<?xml version="1.0" standalone="no"?><!DOCTYPE svg PUBLIC "-//W3C//DTD SVG 1.1//EN" "http://www.w3.org/Graphics/SVG/1.1/DTD/svg11.dtd"><svg xmlns="http://www.w3.org/2000/svg" version="1.1" width="375px" height="46.5px" viewBox="0 -10 375 46.5" style="top:-10px"><desc>ABOUT THE BRAND</desc><defs/><g id="Polygon64243"><path d="m113.8 17.6h-3.6l-.7 4.4h-3.2L110 2.3h4.1l3.7 19.7h-3.3l-.7-4.4zm-.4-2.7L112 6.1l-1.4 8.8h2.8zm13.5-3.2c1.7.3 2.3 1.7 2.3 3.2v3.2c0 2.5-1.9 3.9-4.9 3.9c-.02.02-5.1 0-5.1 0V2.3s5.14-.04 5.1 0c3 0 4.8 1.4 4.8 3.9v2.4c0 1.5-.6 2.9-2.2 3.1zm-4.5-1.3s1.88.02 1.9 0c.9 0 1.5-.5 1.5-1.5V6.6c0-1-.6-1.5-1.5-1.5c-.02-.02-1.9 0-1.9 0v5.3zm2 2.8h-2v6h2c.9 0 1.5-.5 1.5-1.5v-3c0-1-.6-1.5-1.5-1.5zM136.2 2h.2c3 0 5 1.2 5 4.2v11.9c0 3-2 4.1-5 4.1h-.2c-3 0-5-1.1-5-4.1V6.2c0-3 2-4.2 5-4.2zm.1 17.4c1.1 0 1.8-.4 1.8-1.8V6.7c0-1.4-.7-1.8-1.8-1.8c-1.1 0-1.8.4-1.8 1.8v10.9c0 1.4.7 1.8 1.8 1.8zm17.4-1.3c0 3-1.9 4.1-4.9 4.1h-.1c-3 0-4.9-1.1-4.9-4.1c-.04-.03 0-15.8 0-15.8h3.2s.04 15.26 0 15.3c0 1.4.7 1.8 1.7 1.8c1.1 0 1.7-.4 1.7-1.8c.03-.04 0-15.3 0-15.3h3.3v15.8zm11.2-13h-3.3V22h-3.2V5.1h-3.3V2.3h9.8v2.8zm14.2 0h-3.3V22h-3.3V5.1h-3.3V2.3h9.9v2.8zm4.6-2.8v8.2h3.8V2.3h3.3V22h-3.3v-8.6h-3.8v8.6h-3.2V2.3h3.2zm9.6 19.7V2.3h8.7v2.8h-5.4v5.5h4.5v2.8h-4.5v5.7h5.5v2.9h-8.8zM216 11.7c1.8.3 2.4 1.7 2.4 3.2v3.2c0 2.5-2 3.9-5 3.9c.05.02-5.1 0-5.1 0V2.3s5.2-.04 5.2 0c3 0 4.7 1.4 4.7 3.9v2.4c0 1.5-.6 2.9-2.2 3.1zm-4.4-1.3s1.85.02 1.8 0c1 0 1.6-.5 1.6-1.5V6.6c0-1-.6-1.5-1.6-1.5c.05-.02-1.8 0-1.8 0v5.3zm2 2.8h-2v6h2c.9 0 1.5-.5 1.5-1.5v-3c0-1-.6-1.5-1.5-1.5zm14.3 8.8l-2.5-7.9h-1.6v7.9h-3.3V2.3s5.12-.04 5.1 0c3 0 5 1.1 5 4.1v3.6c0 1.9-.8 3-2.2 3.6c.04.04 2.9 8.4 2.9 8.4h-3.4zm-4.1-10.7s1.7.02 1.7 0c1.1 0 1.8-.4 1.8-1.8V6.9c0-1.4-.7-1.8-1.8-1.8c0 .04-1.7 0-1.7 0v6.2zm15.5 6.3h-3.7l-.7 4.4h-3.1l3.6-19.7h4.2l3.7 19.7H240l-.7-4.4zm-.5-2.7l-1.4-8.8l-1.3 8.8h2.7zm5.8 7.1V2.3h3.3l4.2 12.2V2.3h3V22H252l-4.4-12.8V22h-3zm23-15.6v11.4c0 3-1.9 4.2-4.9 4.2c-.04.02-5.1 0-5.1 0V2.3s5.06-.04 5.1 0c3 0 4.9 1.1 4.9 4.1zm-5.1-1.3c.05.04-1.6 0-1.6 0v14s1.65.04 1.6 0c1.1 0 1.9-.4 1.9-1.8V6.9c0-1.4-.8-1.8-1.9-1.8z" stroke="none" fill="#282828"/></g></svg>