<?xml version="1.0" standalone="no"?><!DOCTYPE svg PUBLIC "-//W3C//DTD SVG 1.1//EN" "http://www.w3.org/Graphics/SVG/1.1/DTD/svg11.dtd"><svg xmlns="http://www.w3.org/2000/svg" version="1.1" width="143.3px" height="27.3px" viewBox="0 -6 143.3 27.3" style="top:-6px"><desc>7,740</desc><defs/><g id="Polygon113636"><path d="m114.5 2.8h-5.8v-.8h6.9v.6l-4.5 9.9h-1l4.4-9.7zm1 11.3c.5-.3.9-1 .9-1.5l-.2.1c-.3 0-.6-.3-.6-.7c0-.4.3-.7.7-.7c.4 0 .8.4.8 1c0 .9-.5 1.8-1.2 2.2l-.4-.4zm7.9-11.3h-5.8v-.8h6.9v.6l-4.5 9.9h-1l4.4-9.7zm7.2 6.9h-5v-.9l4.7-6.8h1.2v6.8h1.5v.9h-1.5v2.8h-.9V9.7zm-4.1-.9h4.1V2.9l-4.1 5.9zm11.9-7c2.9 0 3.9 2.9 3.9 5.5c0 2.5-1 5.4-3.9 5.4c-2.8 0-3.9-2.9-3.9-5.4c0-2.6 1.1-5.5 3.9-5.5zm0 .8c-2.2 0-2.9 2.5-2.9 4.7c0 2.1.7 4.6 2.9 4.6c2.2 0 3-2.5 3-4.6c0-2.2-.7-4.7-3-4.7z" stroke="none" fill="#000"/></g></svg>