<?xml version="1.0" standalone="no"?>
<!DOCTYPE svg PUBLIC "-//W3C//DTD SVG 1.1//EN" "http://www.w3.org/Graphics/SVG/1.1/DTD/svg11.dtd">
<svg xmlns="http://www.w3.org/2000/svg" version="1.1" width="277px" height="27.9px" viewBox="0 -6 277 27.9" style="top:-6px">
  <desc>TENANT NAME</desc>
  <defs/>
  <g id="Polygon263081">
    <path d="M 87.8 3.4 L 84.5 3.4 L 84.5 2 L 92.6 2 L 92.6 3.4 L 89.4 3.4 L 89.4 12.5 L 87.8 12.5 L 87.8 3.4 Z M 94.3 2 L 101.4 2 L 101.4 3.4 L 95.9 3.4 L 95.9 6.4 L 101.3 6.4 L 101.3 7.8 L 95.9 7.8 L 95.9 11.2 L 101.4 11.2 L 101.4 12.5 L 94.3 12.5 L 94.3 2 Z M 105 4.4 L 105 12.5 L 103.4 12.5 L 103.4 2 L 105 2 L 110.8 9.9 L 110.8 2 L 112.4 2 L 112.4 12.5 L 110.8 12.5 L 105 4.4 Z M 121.4 10.4 L 116.2 10.4 L 115.4 12.5 L 113.6 12.5 L 117.8 2 L 119.8 2 L 124 12.5 L 122.3 12.5 L 121.4 10.4 Z M 116.7 8.9 L 121 8.9 L 118.8 3.3 L 116.7 8.9 Z M 126.9 4.4 L 126.9 12.5 L 125.3 12.5 L 125.3 2 L 126.9 2 L 132.7 9.9 L 132.7 2 L 134.3 2 L 134.3 12.5 L 132.8 12.5 L 126.9 4.4 Z M 139.2 3.4 L 135.9 3.4 L 135.9 2 L 144.1 2 L 144.1 3.4 L 140.8 3.4 L 140.8 12.5 L 139.2 12.5 L 139.2 3.4 Z M 151.4 4.4 L 151.4 12.5 L 149.8 12.5 L 149.8 2 L 151.5 2 L 157.2 9.9 L 157.2 2 L 158.8 2 L 158.8 12.5 L 157.3 12.5 L 151.4 4.4 Z M 167.9 10.4 L 162.7 10.4 L 161.8 12.5 L 160.1 12.5 L 164.3 2 L 166.3 2 L 170.5 12.5 L 168.7 12.5 L 167.9 10.4 Z M 163.2 8.9 L 167.4 8.9 L 165.3 3.3 L 163.2 8.9 Z M 180.9 4.1 L 177.4 12.5 L 176.8 12.5 L 173.3 4.1 L 173.3 12.5 L 171.8 12.5 L 171.8 2 L 174 2 L 177.1 9.6 L 180.2 2 L 182.5 2 L 182.5 12.5 L 180.9 12.5 L 180.9 4.1 Z M 184.8 2 L 191.9 2 L 191.9 3.4 L 186.4 3.4 L 186.4 6.4 L 191.8 6.4 L 191.8 7.8 L 186.4 7.8 L 186.4 11.2 L 191.9 11.2 L 191.9 12.5 L 184.8 12.5 L 184.8 2 Z " stroke="none" fill="#88898a"/>
  </g>
</svg>