<?xml version="1.0" standalone="no"?><!DOCTYPE svg PUBLIC "-//W3C//DTD SVG 1.1//EN" "http://www.w3.org/Graphics/SVG/1.1/DTD/svg11.dtd"><svg xmlns="http://www.w3.org/2000/svg" version="1.1" width="220.1px" height="39.5px" viewBox="0 -4 220.1 39.5" style="top:-4px"><desc>raising cane s RENT SCHEDULE</desc><defs/><g id="Polygon98299"><path d="m5 26.3l-1.4-4.5h-.9v4.5H.8V15.1h2.9c1.7 0 2.8.7 2.8 2.4v2c0 1-.4 1.7-1.2 2.1c0-.04 1.6 4.7 1.6 4.7H5zm-2.3-6.1s.93.05.9 0c.6 0 1.1-.2 1.1-1v-1.4c0-.8-.5-1.1-1.1-1.1c.03.04-.9 0-.9 0v3.5zm5.2 6.1V15.1h4.9v1.6H9.7v3.1h2.6v1.6H9.7v3.3h3.1v1.6H7.9zm6.1 0V15.1h1.8l2.4 6.9v-6.9h1.7v11.2h-1.8L15.7 19v7.3H14zm12.3-9.6h-1.9v9.6h-1.9v-9.6h-1.8v-1.6h5.6v1.6zm6.5 2.4v-1.6c0-.7-.4-.9-.9-.9c-.6 0-1 .2-1 .9v.8c0 .6.2.8.7 1.1l1.3.8c1.1.6 1.8 1.1 1.8 2.3v1.6c0 1.7-1.1 2.3-2.8 2.3c-1.7 0-2.8-.6-2.8-2.3v-2h1.8s.01 1.75 0 1.7c0 .7.4 1 1 1c.5 0 .9-.3.9-1v-.8c0-.6-.1-.9-.7-1.2l-1.3-.7c-1.1-.7-1.7-1.2-1.7-2.3v-1.5c0-1.7 1.2-2.3 2.7-2.3h.1c1.5 0 2.7.6 2.7 2.3c.02-.01 0 1.8 0 1.8h-1.8zm8.6 5c0 1.7-1.1 2.3-2.8 2.3c-1.7 0-2.8-.6-2.8-2.3v-6.8c0-1.6 1.1-2.3 2.8-2.3c1.7 0 2.8.7 2.8 2.3c.04.05 0 2.1 0 2.1h-1.8s-.02-1.76 0-1.8c0-.7-.4-1-1-1c-.6 0-1 .3-1 1v6.2c0 .8.4 1 1 1c.6 0 1-.2 1-1c-.02-.02 0-2.1 0-2.1h1.8s.04 2.37 0 2.4zm3.2-9v4.7h2.1v-4.7h1.9v11.2h-1.9v-4.9h-2.1v4.9h-1.8V15.1h1.8zM50 26.3V15.1h4.9v1.6h-3v3.1h2.5v1.6h-2.5v3.3h3.1v1.6h-5zm11.8-8.8v6.4c0 1.7-1.1 2.4-2.8 2.4h-2.9V15.1h2.9c1.7 0 2.8.7 2.8 2.4zm-2.9-.8c.04.04-.9 0-.9 0v8s.94-.02.9 0c.7 0 1.1-.2 1.1-1v-5.9c0-.8-.4-1.1-1.1-1.1zm9.9 7.4c0 1.7-1.1 2.3-2.8 2.3c-1.7 0-2.8-.6-2.8-2.3c-.03-.03 0-9 0-9h1.8s.02 8.68 0 8.7c0 .8.4 1 1 1c.6 0 .9-.2.9-1c.04-.02 0-8.7 0-8.7h1.9v9zm6.1 2.2h-4.7V15.1h1.9v9.5h2.8v1.7zm.9 0V15.1h4.9v1.6h-3.1v3.1h2.6v1.6h-2.6v3.3h3.1v1.6h-4.9z" stroke="none" fill="#282828"/></g><g id="Polygon98298"><path d="m2.7 4.8H1.6v2.3h-.9v-6s2.5.01 2.5 0c1.1 0 1.9.7 1.9 1.9c0 1-.7 1.6-1.5 1.7c.03.01 1.6 2.4 1.6 2.4H4.1L2.7 4.8zm.4-2.9H1.6v2.1h1.5c.6 0 1.1-.4 1.1-1c0-.7-.5-1.1-1.1-1.1zm6.8 4H7l-.5 1.2h-1l2.4-6h1.1l2.4 6h-1l-.5-1.2zm-2.6-.8h2.4L8.5 1.9l-1.2 3.2zm4.7-4h.9v6h-.9v-6zm2.3 4.5c.4.4 1.1.8 1.9.8c1 0 1.3-.5 1.3-.9c0-.6-.6-.8-1.4-1c-1-.3-2.1-.5-2.1-1.8c0-1 .9-1.7 2.1-1.7c1 0 1.7.3 2.2.9l-.5.6c-.5-.5-1.1-.7-1.7-.7c-.7 0-1.2.4-1.2.9c0 .5.7.7 1.4.9c1 .2 2.2.5 2.2 1.8c0 .9-.7 1.8-2.3 1.8c-1.1 0-1.9-.4-2.4-.9l.5-.7zm5.1-4.5h.9v6h-.9v-6zm3.1 1.4v4.6h-.9v-6h.9l3.3 4.5V1.1h.9v6h-.9l-3.3-4.6zM30.8 1c1.1 0 1.8.5 2.3 1.2l-.7.4c-.3-.4-.9-.8-1.6-.8c-1.3 0-2.2 1-2.2 2.3c0 1.4.9 2.3 2.2 2.3c.6 0 1.2-.3 1.5-.6c-.02.03 0-1 0-1h-1.9v-.8h2.8s-.02 2.17 0 2.2c-.6.6-1.4 1-2.4 1c-1.8 0-3.2-1.2-3.2-3.1C27.6 2.2 29 1 30.8 1zm5.4 3.1c0-1.8 1.4-3.1 3.1-3.1c1.2 0 1.9.6 2.4 1.3l-.8.4c-.3-.5-.9-.9-1.6-.9c-1.2 0-2.1 1-2.1 2.3c0 1.4.9 2.3 2.1 2.3c.7 0 1.3-.4 1.6-.9l.8.4c-.5.8-1.2 1.3-2.4 1.3c-1.7 0-3.1-1.2-3.1-3.1zm10.1 1.8h-3l-.5 1.2h-1l2.4-6h1.2l2.3 6h-1l-.4-1.2zm-2.7-.8h2.4l-1.2-3.2l-1.2 3.2zm5.7-2.6v4.6h-.9v-6h.9l3.3 4.5V1.1h.9v6h-.9l-3.3-4.6zm5.4-1.4h4v.8h-3.1v1.8h3.1v.7h-3.1v1.9h3.1v.8h-4v-6zm4.9 1.8c.3-.2.6-.5.6-.8h-.1c-.3 0-.5-.2-.5-.5c0-.3.2-.6.6-.6c.3 0 .6.3.6.8c0 .6-.3 1.1-.8 1.4l-.4-.3zM62 5.6c.4.4 1 .8 1.8.8c1 0 1.4-.5 1.4-.9c0-.6-.7-.8-1.5-1c-1-.3-2.1-.5-2.1-1.8c0-1 .9-1.7 2.2-1.7c.9 0 1.6.3 2.1.9l-.5.6c-.4-.5-1.1-.7-1.7-.7c-.7 0-1.1.4-1.1.9c0 .5.6.7 1.4.9c.9.2 2.1.5 2.1 1.8c0 .9-.7 1.8-2.3 1.8c-1.1 0-1.8-.4-2.4-.9l.6-.7z" stroke="none" fill="#3797ef"/></g></svg>