<?xml version="1.0" standalone="no"?><!DOCTYPE svg PUBLIC "-//W3C//DTD SVG 1.1//EN" "http://www.w3.org/Graphics/SVG/1.1/DTD/svg11.dtd"><svg xmlns="http://www.w3.org/2000/svg" version="1.1" width="237px" height="26.9px" viewBox="0 -6 237 26.9" style="top:-6px"><desc>Four (4), 5-Year</desc><defs/><g id="Polygon95152"><path d="m137.1 2h6.7v.8H138v3.9h5.7v.8H138v5h-.9V2zm8.1 6.7c0-2.2 1.4-4 3.7-4c2.3 0 3.7 1.8 3.7 4c0 2.2-1.4 4-3.7 4c-2.3 0-3.7-1.8-3.7-4zm6.5 0c0-1.7-1-3.3-2.8-3.3c-1.8 0-2.8 1.6-2.8 3.3c0 1.7 1 3.3 2.8 3.3c1.8 0 2.8-1.6 2.8-3.3zm8.2 2.7c-.6.7-1.7 1.3-2.8 1.3c-1.5 0-2.4-.7-2.4-2.4V4.9h.8s.04 5.19 0 5.2c0 1.5.8 1.9 1.9 1.9c1 0 2-.6 2.5-1.3V4.9h.8v7.6h-.8s-.01-1.08 0-1.1zm3.4-6.5h.8v1.3c.7-.9 1.5-1.5 2.6-1.5v.9h-.4c-.8 0-1.8.7-2.2 1.4v5.5h-.8V4.9zm8.6 3.8c0-2.6.7-5 2.1-7l.5.3c-1 2.1-1.7 3.9-1.7 6.7c0 2.7.7 4.6 1.7 6.6l-.5.4c-1.4-2.1-2.1-4.5-2.1-7zm8.4 1h-5v-.9L180 2h1.2v6.8h1.6v.9h-1.6v2.8h-.9V9.7zm-4.1-.9h4.1V2.9l-4.1 5.9zm7.4-6.8l.5-.3c1.4 2 2.1 4.4 2.1 7c0 2.5-.7 4.9-2.1 7l-.5-.4c1-2 1.7-3.9 1.7-6.6c0-2.8-.7-4.6-1.7-6.7zm4.3 12.1c.5-.3.9-1 .9-1.5l-.2.1c-.3 0-.6-.3-.6-.7c0-.4.3-.7.7-.7c.4 0 .8.4.8 1c0 .9-.5 1.8-1.2 2.2l-.4-.4zm8.4-3.7c.7 1 1.6 1.5 3 1.5c1.5 0 2.6-1.1 2.6-2.5c0-1.7-1.1-2.6-2.6-2.6c-1 0-1.8.3-2.6 1c.04 0-.7-.3-.7-.3V2h6.2v.8H197s-.04 4.12 0 4.1c.5-.5 1.4-1 2.5-1c1.8 0 3.4 1.2 3.4 3.4c0 2.1-1.7 3.4-3.6 3.4c-1.8 0-2.9-.6-3.6-1.7l.6-.6zm8-2.1h3.8v.8h-3.8v-.8zm7-.3l-4.2-6h1.1l3.6 5.2l3.6-5.2h1.1l-4.2 6v4.5h-1V8zm7.9-3.3c2.3 0 3.6 1.8 3.6 4.1v.2s-6.4-.03-6.4 0c.1 1.6 1.2 3 3 3c1 0 1.8-.3 2.5-1l.4.5c-.7.8-1.7 1.2-3 1.2c-2.2 0-3.8-1.6-3.8-4c0-2.2 1.6-4 3.7-4zm-2.8 3.6h5.6c0-1.3-.9-2.9-2.8-2.9c-1.8 0-2.7 1.6-2.8 2.9zm13.4 3.3c-.7.8-1.5 1.1-2.6 1.1c-1.3 0-2.7-.9-2.7-2.5c0-1.7 1.4-2.5 2.7-2.5c1.1 0 1.9.3 2.6 1V7.2c0-1.1-.9-1.8-2-1.8c-1 0-1.7.3-2.4 1.1l-.5-.5c.8-.9 1.7-1.3 2.9-1.3c1.6 0 2.8.7 2.8 2.4c.04.05 0 5.4 0 5.4h-.8s.02-.86 0-.9zm0-2.2c-.5-.7-1.4-1.1-2.3-1.1c-1.3 0-2.1.8-2.1 1.9c0 1.1.8 1.9 2.1 1.9c.9 0 1.8-.4 2.3-1.1V9.4zm3.4-4.5h.8s.04 1.29 0 1.3c.7-.9 1.6-1.5 2.6-1.5v.9h-.4c-.8 0-1.8.7-2.2 1.4c.04-.04 0 5.5 0 5.5h-.8V4.9z" stroke="none" fill="#000"/></g></svg>