<?xml version="1.0" standalone="no"?><!DOCTYPE svg PUBLIC "-//W3C//DTD SVG 1.1//EN" "http://www.w3.org/Graphics/SVG/1.1/DTD/svg11.dtd"><svg xmlns="http://www.w3.org/2000/svg" xmlns:xlink="http://www.w3.org/1999/xlink" version="1.1" width="134.3px" height="25.9px" viewBox="0 -8 134.3 25.9" style="top:-8px"><desc/><defs/><g id="Polygon52669"><path d="m31.7 3.9l3.9-2v.4l-3.4 1.8l3.4 1.8v.4l-3.9-2v-.4zm4.4 0l4-2v.4l-3.5 1.8l3.5 1.8v.4l-4-2v-.4zm4.8.2c0-1.8 1.3-3.1 3-3.1c1 0 1.7.4 2.2 1.1l-.4.2c-.4-.5-1.1-.8-1.8-.8c-1.4 0-2.5 1-2.5 2.6c0 1.6 1.1 2.7 2.5 2.7c.7 0 1.4-.4 1.8-.9l.4.2c-.5.7-1.2 1.1-2.2 1.1c-1.7 0-3-1.2-3-3.1zm6 .8c0-1.2.8-2.2 2.1-2.2c1.2 0 2.1 1 2.1 2.2c0 1.3-.9 2.3-2.1 2.3c-1.3 0-2.1-1-2.1-2.3zm3.7 0c0-.9-.6-1.8-1.6-1.8c-1 0-1.6.9-1.6 1.8c0 1 .6 1.9 1.6 1.9c1 0 1.6-.9 1.6-1.9zm6.8-.8c0-.6-.2-1-.8-1c-.5 0-1 .3-1.3.7c.02.02 0 3.3 0 3.3h-.5s.05-3.03 0-3c0-.6-.2-1-.8-1c-.5 0-1 .3-1.3.7c.03.02 0 3.3 0 3.3h-.4V2.8h.4s.03.62 0 .6c.2-.3.8-.7 1.4-.7c.7 0 1.1.4 1.2.8c.2-.4.8-.8 1.4-.8c.8 0 1.2.4 1.2 1.3v3.1h-.5s.04-3.03 0-3zm7.1 0c0-.6-.2-1-.8-1c-.5 0-1 .3-1.3.7c.03.02 0 3.3 0 3.3h-.5s.05-3.03 0-3c0-.6-.2-1-.8-1c-.5 0-1 .3-1.3.7c.03.02 0 3.3 0 3.3h-.4V2.8h.4s.03.62 0 .6c.2-.3.8-.7 1.4-.7c.7 0 1.1.4 1.2.8c.2-.4.8-.8 1.4-.8c.8 0 1.2.4 1.2 1.3v3.1h-.5s.04-3.03 0-3zm3.8-1.4c1.3 0 2.1 1 2.1 2.3c-.04-.04 0 .1 0 .1c0 0-3.67-.02-3.7 0c.1.9.7 1.7 1.7 1.7c.6 0 1.1-.2 1.5-.6l.2.3c-.4.5-1 .7-1.7.7c-1.3 0-2.2-.9-2.2-2.3c0-1.2.9-2.2 2.1-2.2zm-1.6 2h3.2c0-.7-.5-1.6-1.6-1.6c-1 0-1.5.9-1.6 1.6zm7.8-.5c0-.9-.4-1.1-1-1.1c-.6 0-1.2.3-1.5.7c.04.02 0 3.3 0 3.3h-.4V2.8h.4s.04.62 0 .6c.4-.4 1-.7 1.6-.7c.9 0 1.4.4 1.4 1.4c-.03-.03 0 3 0 3h-.5V4.2zm3.8-1.5c.7 0 1.2.3 1.5.7l-.3.3c-.3-.5-.7-.6-1.2-.6c-1 0-1.6.8-1.6 1.8c0 1.1.6 1.9 1.6 1.9c.5 0 .9-.2 1.2-.6l.3.3c-.3.4-.8.7-1.5.7c-1.3 0-2.1-1-2.1-2.3c0-1.2.8-2.2 2.1-2.2zm4.4 0c1.3 0 2.1 1 2.1 2.3c-.03-.04 0 .1 0 .1c0 0-3.66-.02-3.7 0c.1.9.7 1.7 1.7 1.7c.6 0 1.1-.2 1.5-.6l.2.3c-.4.5-1 .7-1.7.7c-1.3 0-2.2-.9-2.2-2.3c0-1.2.9-2.2 2.1-2.2zm-1.6 2h3.2c0-.7-.5-1.6-1.6-1.6c-1 0-1.5.9-1.6 1.6zm10.1-.6c0-.6-.3-1-.9-1c-.5 0-1 .3-1.3.7c.04.02 0 3.3 0 3.3h-.4s-.04-3.03 0-3c0-.6-.3-1-.9-1c-.5 0-1 .3-1.3.7c.05.02 0 3.3 0 3.3h-.4V2.8h.4s.05.62 0 .6c.2-.3.8-.7 1.5-.7c.6 0 1 .4 1.1.8c.2-.4.8-.8 1.4-.8c.8 0 1.2.4 1.2 1.3c.02-.02 0 3.1 0 3.1h-.4s-.05-3.03 0-3zm3.7-1.4c1.3 0 2.1 1 2.1 2.3c-.02-.04 0 .1 0 .1c0 0-3.66-.02-3.7 0c.1.9.7 1.7 1.7 1.7c.6 0 1.1-.2 1.5-.6l.2.3c-.4.5-1 .7-1.7.7c-1.3 0-2.2-.9-2.2-2.3c0-1.2.9-2.2 2.1-2.2zm-1.6 2h3.2c0-.7-.5-1.6-1.6-1.6c-1 0-1.5.9-1.6 1.6zm7.8-.5c0-.9-.4-1.1-1-1.1c-.6 0-1.2.3-1.5.7c.05.02 0 3.3 0 3.3h-.4V2.8h.4s.05.62 0 .6c.4-.4 1-.7 1.6-.7c.9 0 1.4.4 1.4 1.4c-.02-.03 0 3 0 3h-.5s.02-2.92 0-2.9zm2 2.1c.03-.03 0-3.1 0-3.1h-.7v-.4h.7V1.6h.5v1.2h.9v.4h-.9v3c0 .4.2.6.5.6c.2 0 .3-.1.4-.2l.2.3c-.1.2-.4.3-.7.3c-.6 0-.9-.3-.9-.9zm4.8-5.2h1.9c1.8 0 3 1.4 3 3c0 1.7-1.2 3-3 3h-1.9v-6zm1.9 5.5c1.6 0 2.5-1.1 2.5-2.5c0-1.4-.9-2.5-2.5-2.5c-.02-.03-1.4 0-1.4 0v5s1.38.04 1.4 0zm7 0c-.3.4-.8.6-1.4.6c-.8 0-1.6-.5-1.6-1.4c0-1 .8-1.5 1.6-1.5c.6 0 1.1.2 1.4.6v-.8c0-.7-.5-1-1.1-1c-.6 0-1 .2-1.4.6l-.3-.3c.5-.5 1-.7 1.7-.7c.9 0 1.6.4 1.6 1.4v3h-.5s.04-.5 0-.5zm0-1.3c-.3-.4-.8-.6-1.3-.6c-.7 0-1.2.5-1.2 1.1c0 .6.5 1 1.2 1c.5 0 1-.1 1.3-.5v-1zm2.1 1c-.04-.03 0-3.1 0-3.1h-.8v-.4h.8V1.6h.4v1.2h.9v.4h-.9s.03 3 0 3c0 .4.2.6.5.6c.2 0 .4-.1.5-.2l.1.3c-.1.2-.3.3-.7.3c-.6 0-.8-.3-.8-.9zm4.2-3.6c1.3 0 2 1 2 2.3c.04-.04 0 .1 0 .1c0 0-3.6-.02-3.6 0c0 .9.7 1.7 1.7 1.7c.6 0 1-.2 1.4-.6l.3.3c-.5.5-1 .7-1.7.7c-1.3 0-2.2-.9-2.2-2.3c0-1.2.9-2.2 2.1-2.2zm-1.6 2h3.2c0-.7-.5-1.6-1.6-1.6c-1.1 0-1.6.9-1.6 1.6zm4.4 1.2l3.4-1.8l-3.4-1.8v-.4l3.9 2v.4l-3.9 2v-.4zm4.4 0l3.5-1.8l-3.5-1.8v-.4l4 2v.4l-4 2v-.4z" stroke="none" fill="#000"/><a xlink:href="DBF_Commencement%20Date" xlink:show="new" xlink:title="&lt;&lt;Commencement Date&gt;&gt;"><rect style="fill:transparent;" x="31" y="0" width="104" height="7"/></a></g></svg>