<?xml version="1.0" standalone="no"?><!DOCTYPE svg PUBLIC "-//W3C//DTD SVG 1.1//EN" "http://www.w3.org/Graphics/SVG/1.1/DTD/svg11.dtd"><svg xmlns="http://www.w3.org/2000/svg" version="1.1" width="25px" height="31px" viewBox="0 -6 25 31" style="top:-6px"><desc>06</desc><defs/><g id="Polygon306800"><path d="m11.7 4v7.5c0 1.9-1.2 2.7-3.1 2.7h-.1c-1.9 0-3-.8-3-2.7V4c0-1.9 1.1-2.7 3-2.7h.1c1.9 0 3.1.8 3.1 2.7zm-3.1-.9c-.7 0-1.1.3-1.1 1.2v6.9c0 .9.4 1.1 1.1 1.1c.6 0 1-.2 1-1.1V4.3c0-.9-.4-1.2-1-1.2zm8.6 2s-.03-1 0-1c0-.9-.3-1.1-.9-1.1c-.7 0-1 .2-1 1.1v2.6c.3-.3.7-.6 1.5-.6c1.4 0 2.5.8 2.5 2.6v2.9c0 1.9-1.1 2.6-3 2.6c-1.9 0-3-.7-3-2.6V3.9c0-1.9 1-2.6 2.9-2.6h.1c1.9 0 2.9.7 2.9 2.6c-.02-.01 0 1.2 0 1.2h-2zM15.3 9v2.4c0 .8.4 1.1 1 1.1c.6 0 1-.3 1-1.1V9c0-.9-.4-1.1-1-1.1c-.5 0-1 .2-1 1.1z" stroke="none" fill="#fff"/></g></svg>