<?xml version="1.0" standalone="no"?>
<!DOCTYPE svg PUBLIC "-//W3C//DTD SVG 1.1//EN" "http://www.w3.org/Graphics/SVG/1.1/DTD/svg11.dtd">
<svg xmlns="http://www.w3.org/2000/svg" version="1.1" width="124px" height="65.9px" viewBox="0 -11 124 65.9" style="top:-11px">
  <desc>Agent 1</desc>
  <defs/>
  <g id="Polygon206944">
    <path d="M 31.2 35.7 L 32.8 35.7 L 32.8 44.9 L 37.6 44.9 L 37.6 46.3 L 31.2 46.3 L 31.2 35.7 Z M 39.1 36.4 C 39.1 35.9 39.5 35.5 40 35.5 C 40.5 35.5 41 35.9 41 36.4 C 41 36.9 40.5 37.3 40 37.3 C 39.5 37.3 39.1 36.9 39.1 36.4 Z M 39.3 38.6 L 40.8 38.6 L 40.8 46.3 L 39.3 46.3 L 39.3 38.6 Z M 43.1 44.2 C 43.6 44.8 44.6 45.3 45.6 45.3 C 46.7 45.3 47.3 44.9 47.3 44.2 C 47.3 43.5 46.4 43.2 45.4 43 C 44.1 42.7 42.6 42.3 42.6 40.7 C 42.6 39.5 43.6 38.4 45.5 38.4 C 46.8 38.4 47.8 38.9 48.4 39.5 C 48.4 39.5 47.8 40.5 47.8 40.5 C 47.4 40 46.5 39.6 45.5 39.6 C 44.6 39.6 44 39.9 44 40.6 C 44 41.2 44.8 41.5 45.7 41.7 C 47.1 42 48.7 42.3 48.7 44.1 C 48.7 45.4 47.6 46.5 45.6 46.5 C 44.3 46.5 43.1 46.1 42.4 45.3 C 42.4 45.3 43.1 44.2 43.1 44.2 Z M 50.8 44.6 C 50.76 44.57 50.8 39.9 50.8 39.9 L 49.5 39.9 L 49.5 38.6 L 50.8 38.6 L 50.8 36.5 L 52.2 36.5 L 52.2 38.6 L 53.7 38.6 L 53.7 39.9 L 52.2 39.9 C 52.2 39.9 52.18 44.25 52.2 44.3 C 52.2 44.8 52.4 45.2 52.9 45.2 C 53.3 45.2 53.6 45 53.7 44.9 C 53.7 44.9 54.1 46 54.1 46 C 53.8 46.3 53.3 46.5 52.6 46.5 C 51.4 46.5 50.8 45.8 50.8 44.6 Z M 59.5 35.7 C 59.5 35.7 63.92 35.68 63.9 35.7 C 66.1 35.7 67.3 37.2 67.3 38.9 C 67.3 40.7 66.1 42.2 63.9 42.2 C 63.92 42.19 61 42.2 61 42.2 L 61 46.3 L 59.5 46.3 L 59.5 35.7 Z M 63.7 37.1 C 63.72 37.07 61 37.1 61 37.1 L 61 40.8 C 61 40.8 63.72 40.79 63.7 40.8 C 64.9 40.8 65.7 40 65.7 38.9 C 65.7 37.8 64.9 37.1 63.7 37.1 Z M 68.9 38.6 L 70.3 38.6 C 70.3 38.6 70.34 39.77 70.3 39.8 C 70.9 39 71.8 38.4 72.8 38.4 C 72.8 38.4 72.8 39.9 72.8 39.9 C 72.7 39.8 72.5 39.8 72.4 39.8 C 71.6 39.8 70.7 40.4 70.3 40.9 C 70.34 40.93 70.3 46.3 70.3 46.3 L 68.9 46.3 L 68.9 38.6 Z M 74.1 36.4 C 74.1 35.9 74.5 35.5 75 35.5 C 75.5 35.5 75.9 35.9 75.9 36.4 C 75.9 36.9 75.5 37.3 75 37.3 C 74.5 37.3 74.1 36.9 74.1 36.4 Z M 74.3 38.6 L 75.7 38.6 L 75.7 46.3 L 74.3 46.3 L 74.3 38.6 Z M 81.4 38.4 C 82.9 38.4 83.7 39 84.3 39.8 C 84.3 39.8 83.3 40.6 83.3 40.6 C 82.9 40 82.2 39.7 81.5 39.7 C 80 39.7 79 40.8 79 42.4 C 79 44 80 45.2 81.5 45.2 C 82.2 45.2 82.9 44.9 83.3 44.2 C 83.3 44.2 84.3 45.1 84.3 45.1 C 83.7 45.9 82.9 46.5 81.4 46.5 C 79.1 46.5 77.5 44.7 77.5 42.4 C 77.5 40.1 79.1 38.4 81.4 38.4 Z M 89.2 38.4 C 91.5 38.4 93 40.2 93 42.6 C 92.95 42.55 93 42.9 93 42.9 C 93 42.9 86.89 42.9 86.9 42.9 C 87 44.2 88 45.3 89.5 45.3 C 90.3 45.3 91.2 45 91.8 44.4 C 91.8 44.4 92.4 45.3 92.4 45.3 C 91.7 46.1 90.6 46.5 89.3 46.5 C 87.1 46.5 85.4 44.8 85.4 42.4 C 85.4 40.2 87 38.4 89.2 38.4 Z M 86.9 41.9 C 86.9 41.9 91.6 41.9 91.6 41.9 C 91.5 40.9 90.8 39.6 89.2 39.6 C 87.7 39.6 87 40.8 86.9 41.9 Z " stroke="none" fill="#3797ef"/>
  </g>
  <g id="Polygon206943">
    <path d="M 18.2 18.3 C 18.2 18.3 18.2 21.2 18.2 21.2 C 18.2 23.7 16.9 24.9 14.8 25.2 C 14.76 25.21 14.8 27.3 14.8 27.3 L 11.9 27.3 C 11.9 27.3 11.85 25.24 11.9 25.2 C 9.7 24.9 8.4 23.8 8.4 21.2 C 8.38 21.2 8.4 17.8 8.4 17.8 L 11.6 17.8 C 11.6 17.8 11.6 20.75 11.6 20.7 C 11.6 22 12.3 22.5 13.3 22.5 C 14.3 22.5 15 22 15 20.7 C 15 20.7 15 19.2 15 19.2 C 15 18.2 14.7 17.7 13.7 17.1 C 13.7 17.1 11.4 15.8 11.4 15.8 C 9.5 14.7 8.4 13.8 8.4 11.8 C 8.4 11.8 8.4 9.2 8.4 9.2 C 8.4 6.7 9.8 5.6 11.9 5.2 C 11.85 5.22 11.9 3.1 11.9 3.1 L 14.8 3.1 C 14.8 3.1 14.76 5.22 14.8 5.2 C 16.7 5.6 18.1 6.8 18.1 9.2 C 18.15 9.17 18.1 12.4 18.1 12.4 L 14.9 12.4 C 14.9 12.4 14.93 9.62 14.9 9.6 C 14.9 8.4 14.2 7.9 13.3 7.9 C 12.3 7.9 11.6 8.4 11.6 9.6 C 11.6 9.6 11.6 11 11.6 11 C 11.6 12 11.9 12.4 12.9 13 C 12.9 13 15.2 14.3 15.2 14.3 C 17.1 15.4 18.2 16.2 18.2 18.3 Z M 30.2 9.3 C 30.2 9.3 30.2 21.1 30.2 21.1 C 30.2 24.1 28.4 25.3 25.4 25.3 C 25.4 25.3 25.2 25.3 25.2 25.3 C 22.2 25.3 20.5 24.1 20.5 21.1 C 20.5 21.1 20.5 9.3 20.5 9.3 C 20.5 6.3 22.2 5.1 25.2 5.1 C 25.2 5.1 25.4 5.1 25.4 5.1 C 28.4 5.1 30.2 6.3 30.2 9.3 Z M 25.3 8 C 24.3 8 23.6 8.4 23.6 9.8 C 23.6 9.8 23.6 20.6 23.6 20.6 C 23.6 22 24.3 22.4 25.3 22.4 C 26.4 22.4 27 22 27 20.6 C 27 20.6 27 9.8 27 9.8 C 27 8.4 26.4 8 25.3 8 Z M 35.8 24.2 C 35.8 26 34.9 27.7 34 28.8 C 34 28.8 32.8 28.2 32.8 28.2 C 33.4 27.3 34 26.1 34.1 25.1 C 34.1 25.09 32.6 25.1 32.6 25.1 L 32.6 21.4 L 35.8 21.4 C 35.8 21.4 35.82 24.25 35.8 24.2 Z M 48 9.3 C 48 9.3 48 21.1 48 21.1 C 48 24.1 46.2 25.3 43.2 25.3 C 43.2 25.3 43 25.3 43 25.3 C 40 25.3 38.3 24.1 38.3 21.1 C 38.3 21.1 38.3 9.3 38.3 9.3 C 38.3 6.3 40 5.1 43 5.1 C 43 5.1 43.2 5.1 43.2 5.1 C 46.2 5.1 48 6.3 48 9.3 Z M 43.1 8 C 42.1 8 41.4 8.4 41.4 9.8 C 41.4 9.8 41.4 20.6 41.4 20.6 C 41.4 22 42.1 22.4 43.1 22.4 C 44.2 22.4 44.8 22 44.8 20.6 C 44.8 20.6 44.8 9.8 44.8 9.8 C 44.8 8.4 44.2 8 43.1 8 Z M 60.3 9.3 C 60.3 9.3 60.3 21.1 60.3 21.1 C 60.3 24.1 58.5 25.3 55.5 25.3 C 55.5 25.3 55.3 25.3 55.3 25.3 C 52.3 25.3 50.6 24.1 50.6 21.1 C 50.6 21.1 50.6 9.3 50.6 9.3 C 50.6 6.3 52.3 5.1 55.3 5.1 C 55.3 5.1 55.5 5.1 55.5 5.1 C 58.5 5.1 60.3 6.3 60.3 9.3 Z M 55.4 8 C 54.4 8 53.7 8.4 53.7 9.8 C 53.7 9.8 53.7 20.6 53.7 20.6 C 53.7 22 54.4 22.4 55.4 22.4 C 56.5 22.4 57.1 22 57.1 20.6 C 57.1 20.6 57.1 9.8 57.1 9.8 C 57.1 8.4 56.5 8 55.4 8 Z M 72.6 9.3 C 72.6 9.3 72.6 21.1 72.6 21.1 C 72.6 24.1 70.8 25.3 67.8 25.3 C 67.8 25.3 67.6 25.3 67.6 25.3 C 64.7 25.3 62.9 24.1 62.9 21.1 C 62.9 21.1 62.9 9.3 62.9 9.3 C 62.9 6.3 64.7 5.1 67.6 5.1 C 67.6 5.1 67.8 5.1 67.8 5.1 C 70.8 5.1 72.6 6.3 72.6 9.3 Z M 67.7 8 C 66.7 8 66 8.4 66 9.8 C 66 9.8 66 20.6 66 20.6 C 66 22 66.7 22.4 67.7 22.4 C 68.8 22.4 69.4 22 69.4 20.6 C 69.4 20.6 69.4 9.8 69.4 9.8 C 69.4 8.4 68.8 8 67.7 8 Z M 78.2 24.2 C 78.2 26 77.4 27.7 76.4 28.8 C 76.4 28.8 75.2 28.2 75.2 28.2 C 75.8 27.3 76.4 26.1 76.5 25.1 C 76.51 25.09 75 25.1 75 25.1 L 75 21.4 L 78.2 21.4 C 78.2 21.4 78.23 24.25 78.2 24.2 Z M 90.4 9.3 C 90.4 9.3 90.4 21.1 90.4 21.1 C 90.4 24.1 88.6 25.3 85.6 25.3 C 85.6 25.3 85.4 25.3 85.4 25.3 C 82.4 25.3 80.7 24.1 80.7 21.1 C 80.7 21.1 80.7 9.3 80.7 9.3 C 80.7 6.3 82.4 5.1 85.4 5.1 C 85.4 5.1 85.6 5.1 85.6 5.1 C 88.6 5.1 90.4 6.3 90.4 9.3 Z M 85.5 8 C 84.5 8 83.8 8.4 83.8 9.8 C 83.8 9.8 83.8 20.6 83.8 20.6 C 83.8 22 84.5 22.4 85.5 22.4 C 86.6 22.4 87.2 22 87.2 20.6 C 87.2 20.6 87.2 9.8 87.2 9.8 C 87.2 8.4 86.6 8 85.5 8 Z M 102.7 9.3 C 102.7 9.3 102.7 21.1 102.7 21.1 C 102.7 24.1 100.9 25.3 97.9 25.3 C 97.9 25.3 97.7 25.3 97.7 25.3 C 94.7 25.3 93 24.1 93 21.1 C 93 21.1 93 9.3 93 9.3 C 93 6.3 94.7 5.1 97.7 5.1 C 97.7 5.1 97.9 5.1 97.9 5.1 C 100.9 5.1 102.7 6.3 102.7 9.3 Z M 97.8 8 C 96.8 8 96.1 8.4 96.1 9.8 C 96.1 9.8 96.1 20.6 96.1 20.6 C 96.1 22 96.8 22.4 97.8 22.4 C 98.9 22.4 99.5 22 99.5 20.6 C 99.5 20.6 99.5 9.8 99.5 9.8 C 99.5 8.4 98.9 8 97.8 8 Z M 115 9.3 C 115 9.3 115 21.1 115 21.1 C 115 24.1 113.2 25.3 110.2 25.3 C 110.2 25.3 110 25.3 110 25.3 C 107.1 25.3 105.3 24.1 105.3 21.1 C 105.3 21.1 105.3 9.3 105.3 9.3 C 105.3 6.3 107.1 5.1 110 5.1 C 110 5.1 110.2 5.1 110.2 5.1 C 113.2 5.1 115 6.3 115 9.3 Z M 110.1 8 C 109.1 8 108.4 8.4 108.4 9.8 C 108.4 9.8 108.4 20.6 108.4 20.6 C 108.4 22 109.1 22.4 110.1 22.4 C 111.2 22.4 111.8 22 111.8 20.6 C 111.8 20.6 111.8 9.8 111.8 9.8 C 111.8 8.4 111.2 8 110.1 8 Z " stroke="none" fill="#282828"/>
  </g>
</svg>