<?xml version="1.0" standalone="no"?>
<!DOCTYPE svg PUBLIC "-//W3C//DTD SVG 1.1//EN" "http://www.w3.org/Graphics/SVG/1.1/DTD/svg11.dtd">
<svg xmlns="http://www.w3.org/2000/svg" version="1.1" width="155.5px" height="26.9px" viewBox="0 -6 155.5 26.9" style="top:-6px">
  <desc>Lorem Ipsum</desc>
  <defs/>
  <g id="Polygon266130">
    <path d="M 34.9 2 L 35.8 2 L 35.8 11.7 L 40.9 11.7 L 40.9 12.5 L 34.9 12.5 L 34.9 2 Z M 42 8.7 C 42 6.5 43.5 4.7 45.7 4.7 C 48 4.7 49.4 6.5 49.4 8.7 C 49.4 10.9 48 12.7 45.7 12.7 C 43.5 12.7 42 10.9 42 8.7 Z M 48.5 8.7 C 48.5 7 47.5 5.4 45.7 5.4 C 43.9 5.4 42.9 7 42.9 8.7 C 42.9 10.4 43.9 12 45.7 12 C 47.5 12 48.5 10.4 48.5 8.7 Z M 51.5 4.9 L 52.4 4.9 C 52.4 4.9 52.35 6.19 52.4 6.2 C 53 5.3 53.9 4.7 54.9 4.7 C 54.9 4.7 54.9 5.6 54.9 5.6 C 54.8 5.6 54.7 5.6 54.5 5.6 C 53.8 5.6 52.7 6.3 52.4 7 C 52.35 6.96 52.4 12.5 52.4 12.5 L 51.5 12.5 L 51.5 4.9 Z M 59.8 4.7 C 62.2 4.7 63.4 6.5 63.4 8.8 C 63.44 8.75 63.4 9 63.4 9 C 63.4 9 57.02 8.97 57 9 C 57.1 10.6 58.2 12 60 12 C 61 12 61.9 11.7 62.5 11 C 62.5 11 63 11.5 63 11.5 C 62.2 12.3 61.2 12.7 60 12.7 C 57.7 12.7 56.1 11.1 56.1 8.7 C 56.1 6.5 57.7 4.7 59.8 4.7 Z M 57 8.3 C 57 8.3 62.6 8.3 62.6 8.3 C 62.6 7 61.7 5.4 59.8 5.4 C 58 5.4 57.1 7 57 8.3 Z M 74.7 7.2 C 74.7 6.1 74.2 5.4 73.2 5.4 C 72.3 5.4 71.4 6 71 6.7 C 70.97 6.73 71 12.5 71 12.5 L 70.1 12.5 C 70.1 12.5 70.13 7.18 70.1 7.2 C 70.1 6.1 69.7 5.4 68.6 5.4 C 67.8 5.4 66.9 6.1 66.4 6.7 C 66.39 6.75 66.4 12.5 66.4 12.5 L 65.6 12.5 L 65.6 4.9 L 66.4 4.9 C 66.4 4.9 66.39 6.03 66.4 6 C 66.7 5.5 67.8 4.7 68.9 4.7 C 70.1 4.7 70.7 5.4 70.9 6.1 C 71.3 5.4 72.4 4.7 73.4 4.7 C 74.8 4.7 75.5 5.5 75.5 7 C 75.53 7.02 75.5 12.5 75.5 12.5 L 74.7 12.5 C 74.7 12.5 74.7 7.18 74.7 7.2 Z M 82.2 2 L 83.1 2 L 83.1 12.5 L 82.2 12.5 L 82.2 2 Z M 85.8 15.5 L 85.8 4.9 L 86.6 4.9 C 86.6 4.9 86.58 6.1 86.6 6.1 C 87.1 5.3 88.1 4.7 89.2 4.7 C 91.3 4.7 92.7 6.2 92.7 8.7 C 92.7 11.2 91.3 12.7 89.2 12.7 C 88.2 12.7 87.2 12.2 86.6 11.3 C 86.58 11.31 86.6 15.5 86.6 15.5 L 85.8 15.5 Z M 89.1 5.4 C 88 5.4 87 6.1 86.6 6.8 C 86.6 6.8 86.6 10.6 86.6 10.6 C 87 11.3 88 12 89.1 12 C 90.8 12 91.8 10.6 91.8 8.7 C 91.8 6.8 90.8 5.4 89.1 5.4 Z M 94.6 10.9 C 95.1 11.5 96 12 97.1 12 C 98.4 12 99.2 11.4 99.2 10.5 C 99.2 9.5 98.1 9.2 97 9 C 95.7 8.6 94.3 8.3 94.3 6.8 C 94.3 5.6 95.3 4.7 97 4.7 C 98.4 4.7 99.2 5.2 99.8 5.8 C 99.8 5.8 99.3 6.4 99.3 6.4 C 98.9 5.8 98.1 5.4 97 5.4 C 95.9 5.4 95.1 6 95.1 6.8 C 95.1 7.6 96.1 7.9 97.2 8.1 C 98.5 8.5 100 8.8 100 10.5 C 100 11.7 99 12.7 97.1 12.7 C 95.9 12.7 94.9 12.4 94.1 11.5 C 94.1 11.5 94.6 10.9 94.6 10.9 Z M 107.3 11.4 C 106.6 12.1 105.6 12.7 104.5 12.7 C 102.9 12.7 102.1 12 102.1 10.3 C 102.1 10.28 102.1 4.9 102.1 4.9 L 102.9 4.9 C 102.9 4.9 102.92 10.09 102.9 10.1 C 102.9 11.6 103.7 12 104.8 12 C 105.8 12 106.8 11.4 107.3 10.7 C 107.28 10.72 107.3 4.9 107.3 4.9 L 108.1 4.9 L 108.1 12.5 L 107.3 12.5 C 107.3 12.5 107.28 11.42 107.3 11.4 Z M 119.8 7.2 C 119.8 6.1 119.3 5.4 118.3 5.4 C 117.4 5.4 116.5 6 116.1 6.7 C 116.07 6.73 116.1 12.5 116.1 12.5 L 115.2 12.5 C 115.2 12.5 115.23 7.18 115.2 7.2 C 115.2 6.1 114.8 5.4 113.7 5.4 C 112.9 5.4 112 6.1 111.5 6.7 C 111.5 6.75 111.5 12.5 111.5 12.5 L 110.7 12.5 L 110.7 4.9 L 111.5 4.9 C 111.5 4.9 111.5 6.03 111.5 6 C 111.8 5.5 112.9 4.7 114 4.7 C 115.2 4.7 115.8 5.4 116 6.1 C 116.4 5.4 117.5 4.7 118.5 4.7 C 119.9 4.7 120.6 5.5 120.6 7 C 120.63 7.02 120.6 12.5 120.6 12.5 L 119.8 12.5 C 119.8 12.5 119.81 7.18 119.8 7.2 Z " stroke="none" fill="#000"/>
  </g>
</svg>