<?xml version="1.0" standalone="no"?><!DOCTYPE svg PUBLIC "-//W3C//DTD SVG 1.1//EN" "http://www.w3.org/Graphics/SVG/1.1/DTD/svg11.dtd"><svg xmlns="http://www.w3.org/2000/svg" version="1.1" width="184px" height="16.9px" viewBox="0 -4 184 16.9" style="top:-4px"><desc>03</desc><defs/><g id="Polygon87137"><path d="m2.8 1c1.6 0 2.3 1.6 2.3 3.1c0 1.5-.7 3.1-2.3 3.1C1.1 7.2.4 5.6.4 4.1C.4 2.6 1.1 1 2.8 1zm0 .8c-1.1 0-1.5 1.1-1.5 2.3c0 1.2.4 2.3 1.5 2.3c1 0 1.4-1.1 1.4-2.3c0-1.2-.4-2.3-1.4-2.3zm3.5 3.9c.3.4 1 .7 1.6.7c.9 0 1.4-.4 1.4-1c0-.7-.6-1-1.5-1c-.2 0-.5 0-.6.1v-.9h.6c.8 0 1.4-.2 1.4-.8c0-.7-.6-1-1.3-1c-.6 0-1.1.3-1.6.7L5.8 2C6.3 1.4 7 1 8 1c1.2 0 2.1.6 2.1 1.6c0 .9-.7 1.3-1.3 1.4c.5.1 1.4.5 1.4 1.5c0 1-.9 1.7-2.2 1.7c-1.1 0-1.9-.4-2.2-1l.5-.5z" stroke="none" fill="#88898a"/></g></svg>