<?xml version="1.0" standalone="no"?><!DOCTYPE svg PUBLIC "-//W3C//DTD SVG 1.1//EN" "http://www.w3.org/Graphics/SVG/1.1/DTD/svg11.dtd"><svg xmlns="http://www.w3.org/2000/svg" version="1.1" width="125.4px" height="27.3px" viewBox="0 -6 125.4 27.3" style="top:-6px"><desc>62,876</desc><defs/><g id="Polygon114588"><path d="m72.9 12.7c-.02.02 0 1.4 0 1.4h-.7s-.05-1.37 0-1.4c-1.7 0-2.9-.7-3.6-1.6l.6-.7c.6.7 1.6 1.4 3 1.5V7.4c-1.7-.4-3.3-.9-3.3-2.8c0-1.6 1.4-2.7 3.3-2.8c-.05 0 0-1.4 0-1.4h.7s-.02 1.41 0 1.4c1.3.1 2.4.6 3.1 1.5l-.6.6c-.7-.7-1.5-1.2-2.5-1.2v3.9c1.6.5 3.3 1.1 3.3 3.2c0 1.2-.8 2.8-3.3 2.9zm-.7-6.3V2.6c-1.3.1-2.3.9-2.3 2c0 1.1 1 1.5 2.3 1.8zm3.1 3.4c0-1.3-1.1-1.8-2.4-2.2v4.3c1.8-.1 2.4-1.3 2.4-2.1zm6.8-8c1.3 0 2.2.5 2.8 1.3l-.5.7c-.5-.7-1.2-1.2-2.3-1.2c-2.3 0-3.2 2.4-3.2 4.7v.5C79.4 7 80.6 6 82 6c2 0 3.5 1.1 3.5 3.4c0 1.7-1.3 3.3-3.6 3.3c-2.9 0-3.9-2.6-3.9-5.4c0-2.8 1.1-5.5 4.1-5.5zm-.2 5c-1.2 0-2.3.8-2.9 1.8c.1 1.5.9 3.3 2.9 3.3c1.8 0 2.6-1.4 2.6-2.5c0-1.8-1.1-2.6-2.6-2.6zm5.4 5c3.6-2.9 6-5 6-7c0-1.5-1.3-2.2-2.4-2.2c-1.4 0-2.4.6-2.9 1.4l-.7-.6c.8-1 2.1-1.6 3.6-1.6c1.5 0 3.3.9 3.3 3c0 2.3-2.5 4.4-5.5 6.9c-.03.02 5.5 0 5.5 0v.8h-6.9s-.04-.7 0-.7zm9.2 2.3c.5-.3.9-1 1-1.5l-.2.1c-.4 0-.7-.3-.7-.7c0-.4.3-.7.7-.7c.5 0 .8.4.8 1c0 .9-.5 1.8-1.1 2.2l-.5-.4zm6.2-7c-1.3-.3-2.5-1.2-2.5-2.6c0-1.8 1.7-2.7 3.4-2.7c1.7 0 3.5.9 3.5 2.7c0 1.4-1.3 2.3-2.5 2.6c1.3.4 2.6 1.3 2.6 2.8c0 1.7-1.5 2.8-3.6 2.8c-2 0-3.6-1.1-3.6-2.8c0-1.5 1.3-2.4 2.7-2.8zm.9-4.5c-1.4 0-2.5.8-2.5 2c0 1.5 1.9 2 2.5 2.1c.7-.1 2.5-.6 2.5-2.1c0-1.2-1.1-2-2.5-2zm0 4.9c-.6.1-2.7.7-2.7 2.3c0 1.3 1.3 2.1 2.7 2.1c1.4 0 2.7-.8 2.7-2.1c0-1.6-2-2.2-2.7-2.3zm10.9-4.7h-5.8v-.8h6.9v.6l-4.5 9.9h-1l4.4-9.7zm6.6-1c1.4 0 2.2.5 2.9 1.3l-.6.7c-.5-.7-1.1-1.2-2.3-1.2c-2.3 0-3.1 2.4-3.1 4.7v.5c.4-.8 1.6-1.8 3.1-1.8c1.9 0 3.4 1.1 3.4 3.4c0 1.7-1.3 3.3-3.6 3.3c-2.8 0-3.9-2.6-3.9-5.4c0-2.8 1.2-5.5 4.1-5.5zm-.2 5c-1.1 0-2.3.8-2.9 1.8c.2 1.5.9 3.3 2.9 3.3c1.8 0 2.7-1.4 2.7-2.5c0-1.8-1.2-2.6-2.7-2.6z" stroke="none" fill="#000"/></g></svg>