<?xml version="1.0" standalone="no"?><!DOCTYPE svg PUBLIC "-//W3C//DTD SVG 1.1//EN" "http://www.w3.org/Graphics/SVG/1.1/DTD/svg11.dtd"><svg xmlns="http://www.w3.org/2000/svg" version="1.1" width="237px" height="26.9px" viewBox="0 -6 237 26.9" style="top:-6px"><desc>5% Every 5 Years</desc><defs/><g id="Polygon95098"><path d="m120.8 10.4c.7 1 1.6 1.5 3 1.5c1.5 0 2.7-1.1 2.7-2.5c0-1.7-1.2-2.6-2.7-2.6c-.9 0-1.8.3-2.6 1c.05 0-.6-.3-.6-.3V2h6.1v.8h-5.2s-.03 4.12 0 4.1c.5-.5 1.4-1 2.5-1c1.8 0 3.4 1.2 3.4 3.4c0 2.1-1.7 3.4-3.6 3.4c-1.8 0-2.8-.6-3.6-1.7l.6-.6zm10.5-8.6c1.5 0 2.5 1.1 2.5 2.6c0 1.5-1 2.6-2.5 2.6c-1.4 0-2.5-1.1-2.5-2.6c0-1.5 1.1-2.6 2.5-2.6zm5.8.2h.7L131 12.5h-.7L137.1 2zm-5.8.4c-1 0-1.7.9-1.7 2c0 1.1.7 2 1.7 2c1.1 0 1.8-.9 1.8-2c0-1.1-.7-2-1.8-2zm5.4 5.1c1.5 0 2.5 1.2 2.5 2.6c0 1.5-1 2.6-2.5 2.6c-1.4 0-2.5-1.1-2.5-2.6c0-1.4 1.1-2.6 2.5-2.6zm0 .7c-1 0-1.7.9-1.7 1.9c0 1.1.7 2 1.7 2c1.1 0 1.8-.9 1.8-2c0-1-.7-1.9-1.8-1.9zm8.5-6.2h6.7v.8h-5.8v3.9h5.7v.8h-5.7v4.2h5.8v.8h-6.7V2zm7.7 2.9h.9l2.8 6.7l2.8-6.7h.9l-3.2 7.6h-.9l-3.3-7.6zm12.1-.2c2.3 0 3.6 1.8 3.6 4.1v.2s-6.41-.03-6.4 0c.1 1.6 1.2 3 3 3c1 0 1.8-.3 2.5-1l.4.5c-.7.8-1.7 1.2-3 1.2c-2.2 0-3.8-1.6-3.8-4c0-2.2 1.6-4 3.7-4zm-2.8 3.6h5.6c0-1.3-.9-2.9-2.8-2.9c-1.8 0-2.7 1.6-2.8 2.9zm8.5-3.4h.9s-.04 1.29 0 1.3c.6-.9 1.5-1.5 2.6-1.5v.9h-.5c-.7 0-1.8.7-2.1 1.4c-.04-.04 0 5.5 0 5.5h-.9V4.9zm5.4 10c.5 0 .8-.2 1.1-.9c.03-.02.6-1.4.6-1.4l-3.2-7.7h.9l2.8 6.7l2.8-6.7h.9s-3.96 9.33-4 9.3c-.4 1-1 1.5-1.9 1.5c-.3 0-.6-.1-.8-.2l.1-.7c.2.1.5.1.7.1zm11.9-4.5c.7 1 1.6 1.5 3 1.5c1.5 0 2.6-1.1 2.6-2.5c0-1.7-1.1-2.6-2.6-2.6c-1 0-1.8.3-2.6 1c.03 0-.7-.3-.7-.3V2h6.2v.8h-5.2s-.05 4.12 0 4.1c.5-.5 1.4-1 2.5-1c1.8 0 3.4 1.2 3.4 3.4c0 2.1-1.7 3.4-3.6 3.4c-1.8 0-2.9-.6-3.6-1.7l.6-.6zM204 8l-4.2-6h1.1l3.6 5.2l3.6-5.2h1.1L205 8v4.5h-1V8zm7.9-3.3c2.3 0 3.6 1.8 3.6 4.1c.02-.05 0 .2 0 .2c0 0-6.39-.03-6.4 0c.1 1.6 1.2 3 3 3c1 0 1.9-.3 2.5-1l.4.5c-.7.8-1.7 1.2-3 1.2c-2.2 0-3.8-1.6-3.8-4c0-2.2 1.6-4 3.7-4zm-2.8 3.6h5.6c0-1.3-.9-2.9-2.8-2.9c-1.8 0-2.7 1.6-2.8 2.9zm13.4 3.3c-.7.8-1.5 1.1-2.6 1.1c-1.3 0-2.7-.9-2.7-2.5c0-1.7 1.4-2.5 2.7-2.5c1.1 0 1.9.3 2.6 1V7.2c0-1.1-.9-1.8-2-1.8c-1 0-1.7.3-2.4 1.1l-.5-.5c.8-.9 1.7-1.3 2.9-1.3c1.6 0 2.9.7 2.9 2.4c-.05.05 0 5.4 0 5.4h-.9s.03-.86 0-.9zm0-2.2c-.5-.7-1.4-1.1-2.3-1.1c-1.3 0-2.1.8-2.1 1.9c0 1.1.8 1.9 2.1 1.9c.9 0 1.8-.4 2.3-1.1V9.4zm3.4-4.5h.9s-.05 1.29 0 1.3c.6-.9 1.5-1.5 2.5-1.5v.9h-.4c-.8 0-1.8.7-2.1 1.4c-.05-.04 0 5.5 0 5.5h-.9V4.9zm4.9 6c.5.6 1.4 1.1 2.5 1.1c1.3 0 2-.6 2-1.5c0-1-1-1.3-2.1-1.5c-1.3-.4-2.7-.7-2.7-2.2c0-1.2 1-2.1 2.7-2.1c1.3 0 2.2.5 2.7 1.1l-.4.6c-.5-.6-1.3-1-2.3-1c-1.2 0-1.9.6-1.9 1.4c0 .8 1 1.1 2 1.3c1.3.4 2.8.7 2.8 2.4c0 1.2-.9 2.2-2.9 2.2c-1.2 0-2.1-.3-2.9-1.2l.5-.6z" stroke="none" fill="#000"/></g></svg>