<?xml version="1.0" standalone="no"?><!DOCTYPE svg PUBLIC "-//W3C//DTD SVG 1.1//EN" "http://www.w3.org/Graphics/SVG/1.1/DTD/svg11.dtd"><svg xmlns="http://www.w3.org/2000/svg" version="1.1" width="62px" height="16.9px" viewBox="0 -4 62 16.9" style="top:-4px"><desc>Street Address</desc><defs/><g id="Polygon268278"><path d="m.8 5.6c.4.4 1.1.8 1.9.8c1 0 1.3-.5 1.3-.9c0-.6-.7-.8-1.4-1C1.6 4.2.5 4 .5 2.7c0-1 .9-1.7 2.1-1.7c.9 0 1.7.3 2.2.9l-.5.6c-.5-.5-1.1-.7-1.8-.7c-.6 0-1.1.4-1.1.9c0 .5.7.7 1.4.9c1 .2 2.1.5 2.1 1.8c0 .9-.6 1.8-2.2 1.8c-1.1 0-1.9-.4-2.4-.9l.5-.7zm5.2.5c-.02.05 0-2.6 0-2.6h-.7v-.7h.7V1.6h.8v1.2h.9v.7h-.9s-.01 2.47 0 2.5c0 .3.1.5.4.5c.2 0 .4-.1.4-.2l.3.6c-.2.2-.5.3-.9.3c-.7 0-1-.4-1-1.1zm2.6-3.3h.8s-.02.63 0 .6c.3-.4.8-.7 1.4-.7v.8h-.3c-.4 0-.9.3-1.1.6c-.02-.01 0 3 0 3h-.8V2.8zm4.9-.1c1.3 0 2.1 1 2.1 2.3c.03 0 0 .2 0 .2h-3.4c.1.7.6 1.4 1.5 1.4c.4 0 .9-.2 1.3-.6l.3.6c-.4.4-1 .6-1.7.6c-1.3 0-2.3-.9-2.3-2.3c0-1.2.9-2.2 2.2-2.2zm-1.3 1.9h2.6c0-.6-.4-1.3-1.3-1.3c-.9 0-1.3.7-1.3 1.3zm6.4-1.9c1.3 0 2.1 1 2.1 2.3c-.03 0 0 .2 0 .2h-3.5c.1.7.6 1.4 1.5 1.4c.5 0 1-.2 1.3-.6l.4.6c-.5.4-1.1.6-1.8.6c-1.3 0-2.2-.9-2.2-2.3c0-1.2.9-2.2 2.2-2.2zm-1.4 1.9h2.7c0-.6-.4-1.3-1.3-1.3c-.9 0-1.3.7-1.4 1.3zm4.7 1.5c-.05.05 0-2.6 0-2.6h-.8v-.7h.8V1.6h.8v1.2h.8v.7h-.8s-.04 2.47 0 2.5c0 .3.1.5.4.5c.2 0 .3-.1.4-.2l.2.6c-.1.2-.4.3-.8.3c-.7 0-1-.4-1-1.1zm8.7-.2h-3l-.4 1.2h-1l2.3-6h1.2l2.4 6h-1l-.5-1.2zm-2.7-.8h2.4l-1.2-3.2l-1.2 3.2zm8 1.4c-.4.4-.9.7-1.5.7c-1.1 0-1.9-.8-1.9-2.3c0-1.4.8-2.2 1.9-2.2c.6 0 1.1.2 1.5.7c-.04-.01 0-2.3 0-2.3h.8v6h-.8s-.04-.61 0-.6zm0-2.5c-.3-.3-.8-.6-1.3-.6c-.8 0-1.3.6-1.3 1.5c0 .9.5 1.6 1.3 1.6c.5 0 1-.3 1.3-.6V4zm5.2 2.5c-.4.4-.9.7-1.5.7c-1.1 0-1.9-.8-1.9-2.3c0-1.4.8-2.2 1.9-2.2c.6 0 1.1.2 1.5.7c-.04-.01 0-2.3 0-2.3h.8v6h-.8s-.04-.61 0-.6zm0-2.5c-.3-.3-.8-.6-1.2-.6c-.9 0-1.4.6-1.4 1.5c0 .9.5 1.6 1.4 1.6c.4 0 .9-.3 1.2-.6V4zm2.1-1.2h.8s-.03.63 0 .6c.3-.4.8-.7 1.4-.7v.8h-.3c-.4 0-.9.3-1.1.6c-.03-.01 0 3 0 3h-.8V2.8zm4.9-.1c1.3 0 2.1 1 2.1 2.3c.03 0 0 .2 0 .2h-3.4c.1.7.6 1.4 1.5 1.4c.4 0 .9-.2 1.3-.6l.3.6c-.4.4-1 .6-1.7.6c-1.3 0-2.3-.9-2.3-2.3c0-1.2.9-2.2 2.2-2.2zm-1.3 1.9h2.6c0-.6-.4-1.3-1.3-1.3c-.9 0-1.3.7-1.3 1.3zm4.5 1.3c.3.4.8.7 1.4.7c.6 0 .9-.3.9-.7c0-.4-.4-.5-1-.7c-.7-.1-1.6-.3-1.6-1.3c0-.7.6-1.2 1.6-1.2c.8 0 1.3.2 1.7.6l-.4.5c-.2-.3-.7-.5-1.2-.5c-.6 0-.9.2-.9.6c0 .4.4.5 1 .6c.7.2 1.6.4 1.6 1.4c0 .7-.6 1.3-1.7 1.3c-.8 0-1.4-.2-1.8-.7l.4-.6zm4.2 0c.3.4.8.7 1.4.7c.6 0 1-.3 1-.7c0-.4-.5-.5-1.1-.7c-.7-.1-1.6-.3-1.6-1.3c0-.7.6-1.2 1.7-1.2c.7 0 1.2.2 1.6.6l-.3.5c-.3-.3-.8-.5-1.3-.5c-.6 0-.9.2-.9.6c0 .4.4.5 1 .6c.7.2 1.6.4 1.6 1.4c0 .7-.6 1.3-1.7 1.3c-.7 0-1.4-.2-1.8-.7l.4-.6z" stroke="none" fill="#000"/></g></svg>