<?xml version="1.0" standalone="no"?><!DOCTYPE svg PUBLIC "-//W3C//DTD SVG 1.1//EN" "http://www.w3.org/Graphics/SVG/1.1/DTD/svg11.dtd"><svg xmlns="http://www.w3.org/2000/svg" version="1.1" width="30px" height="31px" viewBox="0 -6 30 31" style="top:-6px"><desc>05</desc><defs/><g id="Polygon294908"><path d="m14.3 4v7.5c0 1.9-1.1 2.7-3 2.7h-.1c-1.9 0-3-.8-3-2.7V4c0-1.9 1.1-2.7 3-2.7h.1c1.9 0 3 .8 3 2.7zm-3.1-.9c-.6 0-1 .3-1 1.2v6.9c0 .9.4 1.1 1 1.1c.7 0 1.1-.2 1.1-1.1V4.3c0-.9-.4-1.2-1.1-1.2zm6.8.1s.02 2.96 0 3c.3-.4.6-.6 1.5-.6c1.4 0 2.4.7 2.4 2.6v3.4c0 1.9-1 2.6-2.9 2.6h-.1c-1.9 0-3-.7-3-2.6c.03-.01 0-2.1 0-2.1h2v1.9c0 .8.4 1.1 1 1.1c.6 0 1-.3 1-1.1v-3c0-.8-.4-1.1-.9-1.1c-.4 0-.7.3-1 .8l-2-.5V1.4h5.8v1.8H18z" stroke="none" fill="#fff"/></g></svg>