<?xml version="1.0" standalone="no"?><!DOCTYPE svg PUBLIC "-//W3C//DTD SVG 1.1//EN" "http://www.w3.org/Graphics/SVG/1.1/DTD/svg11.dtd"><svg xmlns="http://www.w3.org/2000/svg" version="1.1" width="134.3px" height="15.9px" viewBox="0 -4 134.3 15.9" style="top:-4px"><desc>Private</desc><defs/><g id="Polygon93956"><path d="m108.5 1.1h2.3c1.1 0 1.8.8 1.8 1.8c0 .9-.7 1.7-1.8 1.7c-.04.02-1.8 0-1.8 0v2.5h-.5v-6zm2.2.5c.01-.03-1.7 0-1.7 0v2.5s1.71.05 1.7 0c.8 0 1.3-.5 1.3-1.2c0-.8-.5-1.3-1.3-1.3zm2.9 1.2h.5v.7c.4-.5.9-.8 1.5-.8v.5h-.3c-.4 0-1 .4-1.2.7v3.2h-.5V2.8zm2.8-1.1c0-.2.1-.4.3-.4c.2 0 .4.2.4.4c0 .2-.2.3-.4.3c-.2 0-.3-.1-.3-.3zm.1 1.1h.5v4.3h-.5V2.8zm1.2 0h.6l1.5 3.8l1.6-3.8h.5l-1.8 4.3h-.5l-1.9-4.3zm7.8 3.8c-.4.4-.9.6-1.5.6c-.7 0-1.5-.5-1.5-1.4c0-1 .8-1.5 1.5-1.5c.6 0 1.1.2 1.5.6v-.8c0-.7-.5-1-1.2-1c-.5 0-.9.2-1.3.6l-.3-.3c.5-.5 1-.7 1.7-.7c.9 0 1.6.4 1.6 1.4c-.03-.05 0 3 0 3h-.5v-.5zm0-1.3c-.3-.4-.8-.6-1.3-.6c-.7 0-1.2.5-1.2 1.1c0 .6.5 1 1.2 1c.5 0 1-.1 1.3-.5v-1zm2 1c.02-.03 0-3.1 0-3.1h-.7v-.4h.7V1.6h.5v1.2h.9v.4h-.9v3c0 .4.1.6.4.6c.3 0 .4-.1.5-.2l.2.3c-.2.2-.4.3-.7.3c-.6 0-.9-.3-.9-.9zm4.3-3.6c1.3 0 2 1 2 2.3v.1s-3.63-.02-3.6 0c0 .9.6 1.7 1.7 1.7c.5 0 1-.2 1.4-.6l.2.3c-.4.5-.9.7-1.7.7c-1.2 0-2.1-.9-2.1-2.3c0-1.2.8-2.2 2.1-2.2zm-1.6 2h3.1c0-.7-.5-1.6-1.6-1.6c-1 0-1.5.9-1.5 1.6z" stroke="none" fill="#000"/></g></svg>