<?xml version="1.0" standalone="no"?><!DOCTYPE svg PUBLIC "-//W3C//DTD SVG 1.1//EN" "http://www.w3.org/Graphics/SVG/1.1/DTD/svg11.dtd"><svg xmlns="http://www.w3.org/2000/svg" version="1.1" width="125.4px" height="27.3px" viewBox="0 -6 125.4 27.3" style="top:-6px"><desc>63,230</desc><defs/><g id="Polygon114698"><path d="m72.3 12.7c-.04.02 0 1.4 0 1.4h-.8s.04-1.37 0-1.4c-1.6 0-2.8-.7-3.5-1.6l.5-.7c.7.7 1.7 1.4 3 1.5V7.4c-1.6-.4-3.2-.9-3.2-2.8c0-1.6 1.4-2.7 3.2-2.8c.04 0 0-1.4 0-1.4h.8s-.04 1.41 0 1.4c1.3.1 2.3.6 3.1 1.5l-.6.6c-.7-.7-1.6-1.2-2.5-1.2v3.9c1.6.5 3.3 1.1 3.3 3.2c0 1.2-.8 2.8-3.3 2.9zm-.8-6.3V2.6c-1.3.1-2.3.9-2.3 2c0 1.1 1.1 1.5 2.3 1.8zm3.1 3.4c0-1.3-1.1-1.8-2.3-2.2v4.3c1.8-.1 2.3-1.3 2.3-2.1zm6.8-8c1.4 0 2.3.5 2.9 1.3l-.5.7c-.6-.7-1.2-1.2-2.4-1.2c-2.2 0-3.1 2.4-3.1 4.7v.5C78.8 7 80 6 81.4 6c1.9 0 3.4 1.1 3.4 3.4c0 1.7-1.3 3.3-3.5 3.3c-2.9 0-3.9-2.6-3.9-5.4c0-2.8 1.1-5.5 4-5.5zm-.1 5c-1.2 0-2.3.8-2.9 1.8c.1 1.5.9 3.3 2.9 3.3c1.8 0 2.6-1.4 2.6-2.5c0-1.8-1.1-2.6-2.6-2.6zm5.6 3.6c.6.9 1.6 1.5 2.9 1.5c1.7 0 2.7-.8 2.7-2.2c0-1.6-1.2-2.2-2.8-2.2h-1v-.8h1c1.4 0 2.7-.6 2.7-2c0-1.4-1.2-2.1-2.6-2.1c-1.2 0-2.1.5-2.8 1.4l-.6-.6c.7-.9 1.9-1.6 3.5-1.6c1.8 0 3.4 1 3.4 2.8c0 1.6-1.4 2.3-2.3 2.5c.9.1 2.4.9 2.4 2.6c0 1.8-1.3 3-3.5 3c-1.8 0-3-.8-3.6-1.7l.6-.6zm8.4 3.7c.5-.3.9-1 .9-1.5l-.1.1c-.4 0-.7-.3-.7-.7c0-.4.3-.7.7-.7c.4 0 .8.4.8 1c0 .9-.5 1.8-1.1 2.2l-.5-.4zm3.5-2.3c3.6-2.9 6-5 6-7c0-1.5-1.3-2.2-2.4-2.2c-1.4 0-2.4.6-2.9 1.4l-.7-.6c.8-1 2.1-1.6 3.6-1.6c1.5 0 3.3.9 3.3 3c0 2.3-2.5 4.4-5.5 6.9c-.03.02 5.5 0 5.5 0v.8h-6.9s-.05-.7 0-.7zm9.4-1.4c.6.9 1.7 1.5 3 1.5c1.6 0 2.7-.8 2.7-2.2c0-1.6-1.3-2.2-2.9-2.2h-1v-.8h1c1.4 0 2.7-.6 2.7-2c0-1.4-1.2-2.1-2.5-2.1c-1.2 0-2.1.5-2.9 1.4l-.5-.6c.7-.9 1.9-1.6 3.4-1.6c1.9 0 3.4 1 3.4 2.8c0 1.6-1.3 2.3-2.2 2.5c.9.1 2.4.9 2.4 2.6c0 1.8-1.3 3-3.6 3c-1.7 0-3-.8-3.6-1.7l.6-.6zm12.4-8.6c2.8 0 3.9 2.9 3.9 5.5c0 2.5-1.1 5.4-3.9 5.4c-2.9 0-3.9-2.9-3.9-5.4c0-2.6 1-5.5 3.9-5.5zm0 .8c-2.3 0-3 2.5-3 4.7c0 2.1.7 4.6 3 4.6c2.2 0 2.9-2.5 2.9-4.6c0-2.2-.7-4.7-2.9-4.7z" stroke="none" fill="#000"/></g></svg>