<?xml version="1.0" standalone="no"?><!DOCTYPE svg PUBLIC "-//W3C//DTD SVG 1.1//EN" "http://www.w3.org/Graphics/SVG/1.1/DTD/svg11.dtd"><svg xmlns="http://www.w3.org/2000/svg" version="1.1" width="73.4px" height="16.9px" viewBox="0 -4 73.4 16.9" style="top:-4px"><desc>FORBES RANKING</desc><defs/><g id="Polygon290940"><path d="m.7 1.1h4v.8H1.6v1.8h3v.7h-3v2.7h-.9v-6zM8.4 1c1.7 0 3 1.3 3 3.1c0 1.8-1.3 3.1-3 3.1c-1.8 0-3.1-1.3-3.1-3.1C5.3 2.3 6.6 1 8.4 1zm0 .8c-1.3 0-2.1 1-2.1 2.3c0 1.3.8 2.3 2.1 2.3c1.2 0 2-1 2-2.3c0-1.3-.8-2.3-2-2.3zm6 3h-1.1v2.3h-.9v-6s2.5.01 2.5 0c1.1 0 1.9.7 1.9 1.9c0 1-.7 1.6-1.5 1.7c.04.01 1.6 2.4 1.6 2.4h-1.1l-1.4-2.3zm.4-2.9h-1.5v2.1h1.5c.6 0 1.1-.4 1.1-1c0-.7-.5-1.1-1.1-1.1zm3-.8h2.9c1 0 1.7.7 1.7 1.5c0 .8-.5 1.3-1.1 1.4c.7.1 1.2.8 1.2 1.5c0 .9-.7 1.6-1.8 1.6h-2.9v-6zm2.7 2.6c.6 0 .9-.4.9-.9c0-.5-.3-.9-.9-.9h-1.8v1.8s1.79-.05 1.8 0zm0 2.6c.7 0 1-.3 1-.9c0-.5-.3-1-1-1c.04.05-1.8 0-1.8 0v1.9s1.84.02 1.8 0zm3-5.2h4v.8h-3.1v1.8h3.1v.7h-3.1v1.9h3.1v.8h-4v-6zm5.2 4.5c.4.4 1.1.8 1.9.8c1 0 1.3-.5 1.3-.9c0-.6-.7-.8-1.4-1c-1-.3-2.1-.5-2.1-1.8c0-1 .9-1.7 2.1-1.7c.9 0 1.7.3 2.2.9l-.5.6c-.5-.5-1.1-.7-1.8-.7c-.6 0-1.1.4-1.1.9c0 .5.7.7 1.4.9c1 .2 2.1.5 2.1 1.8c0 .9-.6 1.8-2.2 1.8c-1.1 0-1.9-.4-2.4-.9l.5-.7zm9.3-.8h-1.1v2.3h-.9v-6s2.55.01 2.5 0c1.2 0 2 .7 2 1.9c0 1-.8 1.6-1.5 1.7c-.02.01 1.5 2.4 1.5 2.4h-1L38 4.8zm.4-2.9h-1.5v2.1h1.5c.7 0 1.1-.4 1.1-1c0-.7-.4-1.1-1.1-1.1zm6.9 4h-3l-.4 1.2h-1l2.4-6h1.1l2.4 6h-1l-.5-1.2zm-2.7-.8h2.4l-1.2-3.2l-1.2 3.2zm5.7-2.6v4.6h-.9v-6h.9l3.3 4.5V1.1h.9v6h-.9l-3.3-4.6zm6.9 2l-.6.6v2h-.9v-6h.9v3l2.5-3h1.2L55.8 4l2.7 3.1h-1.2l-2.1-2.6zm3.9-3.4h.9v6h-.9v-6zm3.1 1.4v4.6h-.9v-6h.9l3.3 4.5V1.1h.9v6h-.9l-3.3-4.6zM70.5 1c1.1 0 1.9.5 2.4 1.2l-.8.4c-.3-.4-.9-.8-1.6-.8c-1.3 0-2.2 1-2.2 2.3c0 1.4.9 2.3 2.2 2.3c.7 0 1.2-.3 1.5-.6v-1h-1.9v-.8h2.8s.01 2.17 0 2.2c-.6.6-1.4 1-2.4 1c-1.7 0-3.1-1.2-3.1-3.1c0-1.9 1.4-3.1 3.1-3.1z" stroke="none" fill="#3797ef"/></g></svg>