<?xml version="1.0" standalone="no"?><!DOCTYPE svg PUBLIC "-//W3C//DTD SVG 1.1//EN" "http://www.w3.org/Graphics/SVG/1.1/DTD/svg11.dtd"><svg xmlns="http://www.w3.org/2000/svg" version="1.1" width="103px" height="27.9px" viewBox="0 -6 103 27.9" style="top:-6px"><desc>Agent 1</desc><defs/><g id="Polygon52866"><path d="m1.2 2h1.6v9.2h4.8v1.3H1.2V2zm7.2 6.7c0-2.2 1.5-4 3.8-4c2.4 0 3.9 1.8 3.9 4c0 2.2-1.5 4-3.9 4c-2.3 0-3.8-1.8-3.8-4zm6.2 0c0-1.4-.8-2.7-2.4-2.7c-1.5 0-2.3 1.3-2.3 2.7c0 1.5.8 2.8 2.3 2.8c1.6 0 2.4-1.3 2.4-2.8zm3.2-3.8h1.4v1.2c.6-.8 1.5-1.4 2.5-1.4v1.4h-.5c-.7 0-1.7.5-2 1.1v5.3h-1.4V4.9zm8.5-.2c2.4 0 3.8 1.8 3.8 4.1c-.02.03 0 .4 0 .4c0 0-6.09-.02-6.1 0c.1 1.3 1.1 2.4 2.6 2.4c.8 0 1.7-.4 2.3-.9l.7.9c-.8.7-1.9 1.1-3.1 1.1c-2.3 0-4-1.6-4-4c0-2.2 1.6-4 3.8-4zM24 8.1h4.7c0-1-.7-2.2-2.4-2.2c-1.5 0-2.2 1.2-2.3 2.2zm17-.7c0-.9-.4-1.4-1.3-1.4c-.8 0-1.5.5-1.9 1.1v5.4h-1.4s-.03-5.07 0-5.1C36.4 6.5 36 6 35 6c-.7 0-1.5.5-1.9 1.1c.05-.03 0 5.4 0 5.4h-1.4V4.9h1.4s.05 1.05 0 1.1c.4-.5 1.4-1.3 2.5-1.3c1.2 0 1.9.6 2.1 1.4c.4-.7 1.5-1.4 2.6-1.4c1.4 0 2.2.8 2.2 2.3c-.03 0 0 5.5 0 5.5H41s.04-5.07 0-5.1z" stroke="none" fill="#3797ef"/></g></svg>