<?xml version="1.0" standalone="no"?><!DOCTYPE svg PUBLIC "-//W3C//DTD SVG 1.1//EN" "http://www.w3.org/Graphics/SVG/1.1/DTD/svg11.dtd"><svg xmlns="http://www.w3.org/2000/svg" version="1.1" width="152px" height="16.9px" viewBox="0 -4 152 16.9" style="top:-4px"><desc>Agent 1</desc><defs/><g id="Polygon116008"><path d="m.7 1.1h2.8c1.1 0 1.7.7 1.7 1.5c0 .8-.5 1.3-1.1 1.4c.7.1 1.2.8 1.2 1.5c0 .9-.6 1.6-1.7 1.6H.7v-6zm2.6 2.6c.6 0 .9-.4.9-.9c0-.5-.3-.9-.9-.9H1.6v1.8s1.71-.05 1.7 0zm.1 2.6c.6 0 1-.3 1-.9c0-.5-.4-1-1-1c-.04.05-1.8 0-1.8 0v1.9s1.76.02 1.8 0zm5.6.3c-.4.4-.9.6-1.4.6c-.8 0-1.6-.5-1.6-1.4c0-1 .8-1.4 1.6-1.4c.5 0 1 .1 1.4.5v-.7c0-.5-.5-.9-1.1-.9c-.5 0-.9.2-1.3.6l-.3-.5c.4-.5 1-.7 1.7-.7c1 0 1.8.4 1.8 1.5v2.9h-.8s-.02-.47 0-.5zm0-1.2c-.3-.3-.7-.5-1.1-.5c-.6 0-1 .4-1 .9c0 .5.4.9 1 .9c.4 0 .8-.2 1.1-.5v-.8zm4.9-1.1c0-.7-.3-.9-.9-.9c-.5 0-1 .3-1.2.6v3.1h-.8V2.8h.8v.6c.3-.4.9-.7 1.5-.7c1 0 1.4.4 1.4 1.4c.04-.04 0 3 0 3h-.8s.03-2.77 0-2.8zm2.4 3.3c.3.4.8.6 1.4.6c.7 0 1.3-.3 1.3-1.2v-.6c-.3.4-.8.7-1.4.7c-1.1 0-1.9-.8-1.9-2.2c0-1.4.8-2.2 1.9-2.2c.6 0 1.1.2 1.4.7c.04-.01 0-.6 0-.6h.8s.04 4.14 0 4.1c0 1.5-1 2-2.1 2c-.7 0-1.3-.2-1.8-.7l.4-.6zM19 4c-.2-.3-.7-.6-1.2-.6c-.8 0-1.3.6-1.3 1.5c0 .9.5 1.5 1.3 1.5c.5 0 1-.3 1.2-.6V4zm6.3.8h-1.1v2.3h-.9v-6s2.52.01 2.5 0c1.2 0 1.9.7 1.9 1.9c0 1-.7 1.6-1.4 1.7c-.05.01 1.5 2.4 1.5 2.4h-1.1l-1.4-2.3zm.4-2.9h-1.5v2.1h1.5c.7 0 1.1-.4 1.1-1c0-.7-.4-1.1-1.1-1.1zm4.7.8c1.3 0 2.1 1 2.1 2.3v.2h-3.4c0 .7.6 1.4 1.4 1.4c.5 0 1-.2 1.3-.6l.4.6c-.4.4-1 .6-1.7.6c-1.3 0-2.3-.9-2.3-2.3c0-1.2.9-2.2 2.2-2.2zm-1.3 1.9h2.6c0-.6-.4-1.3-1.3-1.3c-.9 0-1.3.7-1.3 1.3zm7 2c-.3.4-.8.6-1.4.6c-.7 0-1.5-.5-1.5-1.4c0-1 .8-1.4 1.5-1.4c.6 0 1.1.1 1.4.5v-.7c0-.5-.4-.9-1.1-.9c-.4 0-.9.2-1.3.6l-.3-.5c.5-.5 1.1-.7 1.8-.7c.9 0 1.7.4 1.7 1.5c.02-.02 0 2.9 0 2.9h-.8v-.5zm0-1.2c-.2-.3-.7-.5-1.1-.5c-.6 0-1 .4-1 .9c0 .5.4.9 1 .9c.4 0 .9-.2 1.1-.5v-.8zm2-4.3h.8v6h-.8v-6zm2.2 5V3.5h-.7v-.7h.7V1.6h.8v1.2h.9v.7h-.9v2.5c0 .3.1.5.4.5c.2 0 .4-.1.5-.2l.2.6c-.2.2-.5.3-.9.3c-.7 0-1-.4-1-1.1zm2.8 2.1c.3 0 .5-.1.6-.5l.2-.5l-1.7-4.4h.8l1.4 3.4l1.3-3.4h.9s-2.13 5.14-2.1 5.1c-.3.7-.8 1-1.4 1c-.2 0-.4-.1-.5-.1l.1-.7c.1 0 .3.1.4.1zM49 4.6h2.2v.7H49v-.7zm5.4 1c.4.4 1.1.8 1.9.8c1 0 1.3-.5 1.3-.9c0-.6-.7-.8-1.4-1c-1-.3-2.1-.5-2.1-1.8c0-1 .9-1.7 2.1-1.7c.9 0 1.7.3 2.2.9l-.5.6c-.5-.5-1.1-.7-1.8-.7c-.6 0-1.1.4-1.1.9c0 .5.7.7 1.4.9c1 .2 2.1.5 2.1 1.8c0 .9-.6 1.8-2.2 1.8c-1.1 0-1.9-.4-2.4-.9l.5-.7zm4.8-.7c0-1.2.8-2.2 2.2-2.2c1.4 0 2.2 1 2.2 2.2c0 1.3-.8 2.3-2.2 2.3c-1.4 0-2.2-1-2.2-2.3zm3.5 0c0-.8-.4-1.5-1.3-1.5c-.9 0-1.4.7-1.4 1.5c0 .9.5 1.6 1.4 1.6c.9 0 1.3-.7 1.3-1.6zm4.8 1.6c-.4.4-.9.7-1.6.7c-.9 0-1.4-.4-1.4-1.4c.03.03 0-3 0-3h.8s.04 2.76 0 2.8c0 .7.4.9 1 .9c.5 0 .9-.3 1.2-.6c-.04-.01 0-3.1 0-3.1h.8v4.3h-.8s-.04-.58 0-.6zm2.1-.4c.03.05 0-2.6 0-2.6h-.7v-.7h.7V1.6h.8v1.2h.9v.7h-.9s.04 2.47 0 2.5c0 .3.2.5.5.5c.2 0 .3-.1.4-.2l.2.6c-.2.2-.4.3-.8.3c-.7 0-1.1-.4-1.1-1.1zm5.5-1.8c0-.7-.4-.9-1-.9c-.5 0-.9.3-1.2.6c.04 0 0 3.1 0 3.1h-.8v-6h.8s.04 2.27 0 2.3c.3-.4.9-.7 1.6-.7c.9 0 1.4.4 1.4 1.3c-.02.04 0 3.1 0 3.1h-.8s-.03-2.79 0-2.8zm4-.2c0-1.8 1.3-3.1 3.1-3.1c1.1 0 1.9.6 2.3 1.3l-.7.4c-.3-.5-.9-.9-1.6-.9c-1.3 0-2.2 1-2.2 2.3c0 1.4.9 2.3 2.2 2.3c.7 0 1.3-.4 1.6-.9l.7.4c-.4.8-1.2 1.3-2.3 1.3c-1.8 0-3.1-1.2-3.1-3.1zM88 6.6c-.3.4-.8.6-1.4.6c-.7 0-1.5-.5-1.5-1.4c0-1 .8-1.4 1.5-1.4c.6 0 1.1.1 1.4.5v-.7c0-.5-.4-.9-1-.9c-.5 0-1 .2-1.3.6l-.4-.5c.5-.5 1.1-.7 1.8-.7c.9 0 1.7.4 1.7 1.5c.03-.02 0 2.9 0 2.9h-.8s.02-.47 0-.5zm0-1.2c-.2-.3-.6-.5-1.1-.5c-.6 0-1 .4-1 .9c0 .5.4.9 1 .9c.5 0 .9-.2 1.1-.5v-.8zm2-2.6h.8s.04.63 0 .6c.4-.4.9-.7 1.5-.7v.8h-.3c-.4 0-1 .3-1.2.6c.04-.01 0 3 0 3h-.8V2.8zm2.7 2.1c0-1.2.9-2.2 2.2-2.2c1.4 0 2.2 1 2.2 2.2c0 1.3-.8 2.3-2.2 2.3c-1.3 0-2.2-1-2.2-2.3zm3.6 0c0-.8-.5-1.5-1.4-1.5c-.9 0-1.3.7-1.3 1.5c0 .9.4 1.6 1.3 1.6c.9 0 1.4-.7 1.4-1.6zM98 1.1h.9v6h-.9v-6zm1.9.4c0-.3.3-.5.5-.5c.3 0 .6.2.6.5c0 .3-.3.5-.6.5c-.2 0-.5-.2-.5-.5zm.2 1.3h.8v4.3h-.8V2.8zm4.9 1.5c0-.7-.4-.9-.9-.9c-.5 0-1 .3-1.2.6c-.03 0 0 3.1 0 3.1h-.8V2.8h.8s-.03.57 0 .6c.3-.4.8-.7 1.5-.7c.9 0 1.4.4 1.4 1.4v3h-.8V4.3zm4.7 2.3c-.4.4-.9.6-1.4.6c-.8 0-1.6-.5-1.6-1.4c0-1 .8-1.4 1.6-1.4c.5 0 1 .1 1.4.5v-.7c0-.5-.5-.9-1.1-.9c-.5 0-.9.2-1.3.6l-.3-.5c.4-.5 1-.7 1.7-.7c1 0 1.8.4 1.8 1.5v2.9h-.8s-.02-.47 0-.5zm0-1.2c-.3-.3-.7-.5-1.1-.5c-.6 0-1 .4-1 .9c0 .5.4.9 1 .9c.4 0 .8-.2 1.1-.5v-.8zm1.9 2.6c.3-.2.5-.6.6-.9h-.2c-.2 0-.4-.2-.4-.5c0-.3.2-.5.5-.5c.3 0 .6.3.6.7c0 .6-.3 1.2-.8 1.5l-.3-.3zm4.4-6.9h.9v6h-.9v-6zm5.1 3.2c0-.7-.4-.9-1-.9c-.5 0-.9.3-1.2.6c.04 0 0 3.1 0 3.1h-.8V2.8h.8s.04.57 0 .6c.3-.4.9-.7 1.6-.7c.9 0 1.4.4 1.4 1.4c-.02-.04 0 3 0 3h-.8s-.03-2.77 0-2.8zm3.9-1.6c.8 0 1.3.3 1.6.7l-.5.5c-.3-.4-.6-.5-1-.5c-.9 0-1.5.6-1.5 1.5c0 .9.6 1.6 1.5 1.6c.4 0 .7-.2 1-.5l.5.5c-.3.4-.8.7-1.6.7c-1.3 0-2.2-1-2.2-2.3c0-1.3.9-2.2 2.2-2.2z" stroke="none" fill="#888888"/></g></svg>