<?xml version="1.0" standalone="no"?>
<!DOCTYPE svg PUBLIC "-//W3C//DTD SVG 1.1//EN" "http://www.w3.org/Graphics/SVG/1.1/DTD/svg11.dtd">
<svg xmlns="http://www.w3.org/2000/svg" version="1.1" width="106.4px" height="46.5px" viewBox="0 -10 106.4 46.5" style="top:-10px">
  <desc>Agent 1</desc>
  <defs/>
  <g id="Polygon272048">
    <path d="M 11 6.2 C 11 6.2 11 18.1 11 18.1 C 11 21.1 9.2 22.2 6.3 22.2 C 6.3 22.2 6 22.2 6 22.2 C 3.1 22.2 1.3 21.1 1.3 18.1 C 1.3 18.1 1.3 6.2 1.3 6.2 C 1.3 3.2 3.1 2 6 2 C 6 2 6.3 2 6.3 2 C 9.2 2 11 3.2 11 6.2 Z M 6.2 4.9 C 5.1 4.9 4.5 5.3 4.5 6.7 C 4.5 6.7 4.5 17.6 4.5 17.6 C 4.5 19 5.1 19.4 6.2 19.4 C 7.2 19.4 7.8 19 7.8 17.6 C 7.8 17.6 7.8 6.7 7.8 6.7 C 7.8 5.3 7.2 4.9 6.2 4.9 Z M 16.4 22 L 13.2 22 L 13.2 18.4 L 16.4 18.4 L 16.4 22 Z M 28.2 6.2 C 28.2 6.2 28.2 18.1 28.2 18.1 C 28.2 21.1 26.5 22.2 23.5 22.2 C 23.5 22.2 23.3 22.2 23.3 22.2 C 20.3 22.2 18.5 21.1 18.5 18.1 C 18.5 18.1 18.5 6.2 18.5 6.2 C 18.5 3.2 20.3 2 23.3 2 C 23.3 2 23.5 2 23.5 2 C 26.5 2 28.2 3.2 28.2 6.2 Z M 23.4 4.9 C 22.3 4.9 21.7 5.3 21.7 6.7 C 21.7 6.7 21.7 17.6 21.7 17.6 C 21.7 19 22.3 19.4 23.4 19.4 C 24.4 19.4 25.1 19 25.1 17.6 C 25.1 17.6 25.1 6.7 25.1 6.7 C 25.1 5.3 24.4 4.9 23.4 4.9 Z M 40.3 6.2 C 40.3 6.2 40.3 18.1 40.3 18.1 C 40.3 21.1 38.5 22.2 35.5 22.2 C 35.5 22.2 35.3 22.2 35.3 22.2 C 32.3 22.2 30.5 21.1 30.5 18.1 C 30.5 18.1 30.5 6.2 30.5 6.2 C 30.5 3.2 32.3 2 35.3 2 C 35.3 2 35.5 2 35.5 2 C 38.5 2 40.3 3.2 40.3 6.2 Z M 35.4 4.9 C 34.4 4.9 33.7 5.3 33.7 6.7 C 33.7 6.7 33.7 17.6 33.7 17.6 C 33.7 19 34.4 19.4 35.4 19.4 C 36.5 19.4 37.1 19 37.1 17.6 C 37.1 17.6 37.1 6.7 37.1 6.7 C 37.1 5.3 36.5 4.9 35.4 4.9 Z M 47.5 4.5 C 47.5 4.5 47.5 8.2 47.5 8.2 C 47.5 9.9 46.3 10.6 45 10.6 C 45 10.6 44.6 10.6 44.6 10.6 C 43.2 10.6 42.1 9.9 42.1 8.2 C 42.1 8.2 42.1 4.5 42.1 4.5 C 42.1 2.8 43.2 2.1 44.6 2.1 C 44.6 2.1 45 2.1 45 2.1 C 46.3 2.1 47.5 2.8 47.5 4.5 Z M 44.8 22 L 43 22 L 52.2 2.3 L 54 2.3 L 44.8 22 Z M 44.9 3.9 C 44.9 3.9 44.7 3.9 44.7 3.9 C 44.2 3.9 43.9 4.1 43.9 4.8 C 43.9 4.8 43.9 7.9 43.9 7.9 C 43.9 8.6 44.2 8.8 44.7 8.8 C 44.7 8.8 44.9 8.8 44.9 8.8 C 45.3 8.8 45.7 8.6 45.7 7.9 C 45.7 7.9 45.7 4.8 45.7 4.8 C 45.7 4.1 45.3 3.9 44.9 3.9 Z M 54.9 16.1 C 54.9 16.1 54.9 19.8 54.9 19.8 C 54.9 21.5 53.7 22.1 52.4 22.1 C 52.4 22.1 52 22.1 52 22.1 C 50.6 22.1 49.5 21.5 49.5 19.8 C 49.5 19.8 49.5 16.1 49.5 16.1 C 49.5 14.4 50.6 13.7 52 13.7 C 52 13.7 52.4 13.7 52.4 13.7 C 53.7 13.7 54.9 14.4 54.9 16.1 Z M 52.3 15.4 C 52.3 15.4 52.1 15.4 52.1 15.4 C 51.6 15.4 51.3 15.7 51.3 16.4 C 51.3 16.4 51.3 19.5 51.3 19.5 C 51.3 20.2 51.6 20.4 52.1 20.4 C 52.1 20.4 52.3 20.4 52.3 20.4 C 52.7 20.4 53.1 20.2 53.1 19.5 C 53.1 19.5 53.1 16.4 53.1 16.4 C 53.1 15.7 52.7 15.4 52.3 15.4 Z " stroke="none" fill="#282828"/>
  </g>
</svg>