<?xml version="1.0" standalone="no"?><!DOCTYPE svg PUBLIC "-//W3C//DTD SVG 1.1//EN" "http://www.w3.org/Graphics/SVG/1.1/DTD/svg11.dtd"><svg xmlns="http://www.w3.org/2000/svg" version="1.1" width="343px" height="29.9px" viewBox="0 -7 343 29.9" style="top:-7px"><desc>16</desc><defs/><g id="Polygon304866"><path d="m3.1 4.3L1.3 6.2l-1-1.1l3-3h1.5v11.2H3.1v-9zm8.5-2.4c1.4 0 2.4.5 3.1 1.3l-.8 1.3c-.6-.7-1.2-1.1-2.3-1.1c-2.1 0-3.1 2-3.1 4v.4c.5-.7 1.7-1.6 3.1-1.6c2 0 3.7 1.2 3.7 3.6c0 2-1.5 3.7-4 3.7c-3.2 0-4.5-2.7-4.5-5.8c0-3.1 1.6-5.8 4.8-5.8zm-.4 5.7c-1.1 0-2.1.6-2.7 1.5c.2 1.3.9 2.9 2.7 2.9c1.6 0 2.4-1.2 2.4-2.2c0-1.5-1.1-2.2-2.4-2.2z" stroke="none" fill="#88898a"/></g></svg>