<?xml version="1.0" standalone="no"?>
<!DOCTYPE svg PUBLIC "-//W3C//DTD SVG 1.1//EN" "http://www.w3.org/Graphics/SVG/1.1/DTD/svg11.dtd">
<svg xmlns="http://www.w3.org/2000/svg" version="1.1" width="153px" height="63.9px" viewBox="0 -10 153 63.9" style="top:-10px">
  <desc>Agent 1</desc>
  <defs/>
  <g id="Polygon238358">
    <path d="M 2.8 36.1 L 2.8 44.3 L 1.2 44.3 L 1.2 33.7 L 2.8 33.7 L 8.6 41.6 L 8.6 33.7 L 10.2 33.7 L 10.2 44.3 L 8.6 44.3 L 2.8 36.1 Z M 15.7 36.4 C 18 36.4 19.4 38.2 19.4 40.6 C 19.42 40.55 19.4 40.9 19.4 40.9 C 19.4 40.9 13.36 40.9 13.4 40.9 C 13.5 42.2 14.4 43.3 16 43.3 C 16.8 43.3 17.7 43 18.2 42.4 C 18.2 42.4 18.9 43.3 18.9 43.3 C 18.1 44.1 17.1 44.5 15.8 44.5 C 13.5 44.5 11.8 42.8 11.8 40.4 C 11.8 38.2 13.5 36.4 15.7 36.4 Z M 13.3 39.9 C 13.3 39.9 18 39.9 18 39.9 C 18 38.9 17.3 37.6 15.7 37.6 C 14.2 37.6 13.4 38.8 13.3 39.9 Z M 21.3 42.6 C 21.35 42.57 21.3 37.9 21.3 37.9 L 20.1 37.9 L 20.1 36.6 L 21.3 36.6 L 21.3 34.5 L 22.8 34.5 L 22.8 36.6 L 24.3 36.6 L 24.3 37.9 L 22.8 37.9 C 22.8 37.9 22.77 42.25 22.8 42.3 C 22.8 42.8 23 43.2 23.5 43.2 C 23.9 43.2 24.2 43 24.3 42.9 C 24.3 42.9 24.7 44 24.7 44 C 24.4 44.3 23.9 44.5 23.2 44.5 C 22 44.5 21.3 43.8 21.3 42.6 Z M 34.6 33.5 C 37.8 33.5 40 35.8 40 39 C 40 42.1 37.8 44.5 34.6 44.5 C 31.5 44.5 29.3 42.1 29.3 39 C 29.3 35.8 31.5 33.5 34.6 33.5 Z M 34.6 34.9 C 32.4 34.9 30.9 36.6 30.9 39 C 30.9 41.3 32.4 43 34.6 43 C 36.9 43 38.3 41.3 38.3 39 C 38.3 36.6 36.9 34.9 34.6 34.9 Z M 41.7 47.2 L 41.7 36.6 L 43.1 36.6 C 43.1 36.6 43.12 37.69 43.1 37.7 C 43.7 36.9 44.6 36.4 45.6 36.4 C 47.6 36.4 49 37.9 49 40.4 C 49 42.9 47.6 44.5 45.6 44.5 C 44.6 44.5 43.7 44 43.1 43.2 C 43.12 43.16 43.1 47.2 43.1 47.2 L 41.7 47.2 Z M 45.2 37.7 C 44.4 37.7 43.5 38.2 43.1 38.8 C 43.1 38.8 43.1 42.1 43.1 42.1 C 43.5 42.7 44.4 43.2 45.2 43.2 C 46.7 43.2 47.6 42 47.6 40.4 C 47.6 38.8 46.7 37.7 45.2 37.7 Z M 54.1 36.4 C 56.4 36.4 57.8 38.2 57.8 40.6 C 57.79 40.55 57.8 40.9 57.8 40.9 C 57.8 40.9 51.73 40.9 51.7 40.9 C 51.8 42.2 52.8 43.3 54.3 43.3 C 55.1 43.3 56 43 56.6 42.4 C 56.6 42.4 57.3 43.3 57.3 43.3 C 56.5 44.1 55.4 44.5 54.2 44.5 C 51.9 44.5 50.2 42.8 50.2 40.4 C 50.2 38.2 51.8 36.4 54.1 36.4 Z M 51.7 39.9 C 51.7 39.9 56.4 39.9 56.4 39.9 C 56.4 38.9 55.7 37.6 54.1 37.6 C 52.5 37.6 51.8 38.8 51.7 39.9 Z M 59.4 36.6 L 60.9 36.6 C 60.9 36.6 60.86 37.77 60.9 37.8 C 61.4 37 62.4 36.4 63.4 36.4 C 63.4 36.4 63.4 37.9 63.4 37.9 C 63.2 37.8 63.1 37.8 62.9 37.8 C 62.2 37.8 61.2 38.4 60.9 38.9 C 60.86 38.93 60.9 44.3 60.9 44.3 L 59.4 44.3 L 59.4 36.6 Z M 69.4 43.4 C 68.8 44.1 67.9 44.5 66.9 44.5 C 65.6 44.5 64.2 43.6 64.2 41.9 C 64.2 40.2 65.6 39.4 66.9 39.4 C 67.9 39.4 68.8 39.7 69.4 40.4 C 69.4 40.4 69.4 39.2 69.4 39.2 C 69.4 38.2 68.6 37.6 67.5 37.6 C 66.6 37.6 65.9 38 65.2 38.6 C 65.2 38.6 64.6 37.7 64.6 37.7 C 65.4 36.8 66.5 36.4 67.7 36.4 C 69.4 36.4 70.8 37.1 70.8 39.1 C 70.8 39.09 70.8 44.3 70.8 44.3 L 69.4 44.3 C 69.4 44.3 69.37 43.43 69.4 43.4 Z M 69.4 41.3 C 68.9 40.7 68.2 40.4 67.4 40.4 C 66.4 40.4 65.6 41 65.6 41.9 C 65.6 42.8 66.4 43.5 67.4 43.5 C 68.2 43.5 68.9 43.2 69.4 42.6 C 69.4 42.6 69.4 41.3 69.4 41.3 Z M 73.2 42.6 C 73.22 42.57 73.2 37.9 73.2 37.9 L 71.9 37.9 L 71.9 36.6 L 73.2 36.6 L 73.2 34.5 L 74.6 34.5 L 74.6 36.6 L 76.2 36.6 L 76.2 37.9 L 74.6 37.9 C 74.6 37.9 74.65 42.25 74.6 42.3 C 74.6 42.8 74.9 43.2 75.4 43.2 C 75.7 43.2 76 43 76.2 42.9 C 76.2 42.9 76.5 44 76.5 44 C 76.2 44.3 75.8 44.5 75 44.5 C 73.8 44.5 73.2 43.8 73.2 42.6 Z M 77.4 34.4 C 77.4 33.9 77.8 33.5 78.3 33.5 C 78.8 33.5 79.3 33.9 79.3 34.4 C 79.3 34.9 78.8 35.3 78.3 35.3 C 77.8 35.3 77.4 34.9 77.4 34.4 Z M 77.6 36.6 L 79.1 36.6 L 79.1 44.3 L 77.6 44.3 L 77.6 36.6 Z M 86.4 39.4 C 86.4 38.1 85.7 37.7 84.7 37.7 C 83.8 37.7 83 38.2 82.6 38.8 C 82.6 38.79 82.6 44.3 82.6 44.3 L 81.2 44.3 L 81.2 36.6 L 82.6 36.6 C 82.6 36.6 82.6 37.68 82.6 37.7 C 83.1 37.1 84.1 36.4 85.3 36.4 C 86.9 36.4 87.8 37.3 87.8 38.9 C 87.78 38.88 87.8 44.3 87.8 44.3 L 86.4 44.3 C 86.4 44.3 86.35 39.36 86.4 39.4 Z M 90.5 45.2 C 91.1 45.9 91.9 46.2 93 46.2 C 94.2 46.2 95.4 45.6 95.4 44 C 95.4 44 95.4 43 95.4 43 C 94.8 43.8 93.9 44.3 92.8 44.3 C 90.8 44.3 89.4 42.9 89.4 40.4 C 89.4 37.9 90.8 36.4 92.8 36.4 C 93.8 36.4 94.7 36.9 95.4 37.7 C 95.36 37.71 95.4 36.6 95.4 36.6 L 96.8 36.6 C 96.8 36.6 96.79 43.97 96.8 44 C 96.8 46.6 94.9 47.4 93 47.4 C 91.7 47.4 90.8 47.1 89.8 46.2 C 89.8 46.2 90.5 45.2 90.5 45.2 Z M 95.4 38.8 C 95 38.2 94.1 37.7 93.2 37.7 C 91.8 37.7 90.9 38.8 90.9 40.4 C 90.9 42 91.8 43.1 93.2 43.1 C 94.1 43.1 95 42.5 95.4 41.9 C 95.4 41.9 95.4 38.8 95.4 38.8 Z M 102.9 33.7 L 104.5 33.7 L 104.5 44.3 L 102.9 44.3 L 102.9 33.7 Z M 111.8 39.4 C 111.8 38.1 111.2 37.7 110.2 37.7 C 109.3 37.7 108.5 38.2 108.1 38.8 C 108.06 38.79 108.1 44.3 108.1 44.3 L 106.6 44.3 L 106.6 36.6 L 108.1 36.6 C 108.1 36.6 108.06 37.68 108.1 37.7 C 108.6 37.1 109.6 36.4 110.8 36.4 C 112.4 36.4 113.2 37.3 113.2 38.9 C 113.24 38.88 113.2 44.3 113.2 44.3 L 111.8 44.3 C 111.8 44.3 111.81 39.36 111.8 39.4 Z M 118.8 36.4 C 120.2 36.4 121.1 37 121.7 37.8 C 121.7 37.8 120.7 38.6 120.7 38.6 C 120.2 38 119.6 37.7 118.8 37.7 C 117.3 37.7 116.4 38.8 116.4 40.4 C 116.4 42 117.3 43.2 118.8 43.2 C 119.6 43.2 120.2 42.9 120.7 42.2 C 120.7 42.2 121.7 43.1 121.7 43.1 C 121.1 43.9 120.2 44.5 118.8 44.5 C 116.5 44.5 114.9 42.7 114.9 40.4 C 114.9 38.1 116.5 36.4 118.8 36.4 Z M 122.6 40.4 C 122.6 38.2 124.1 36.4 126.5 36.4 C 128.9 36.4 130.3 38.2 130.3 40.4 C 130.3 42.6 128.9 44.5 126.5 44.5 C 124.1 44.5 122.6 42.6 122.6 40.4 Z M 128.9 40.4 C 128.9 39 128 37.7 126.5 37.7 C 124.9 37.7 124.1 39 124.1 40.4 C 124.1 41.9 124.9 43.2 126.5 43.2 C 128 43.2 128.9 41.9 128.9 40.4 Z M 141.3 39.2 C 141.3 38.3 140.9 37.7 140 37.7 C 139.2 37.7 138.4 38.2 138.1 38.8 C 138.08 38.77 138.1 44.3 138.1 44.3 L 136.7 44.3 C 136.7 44.3 136.65 39.15 136.7 39.2 C 136.7 38.3 136.3 37.7 135.3 37.7 C 134.6 37.7 133.8 38.2 133.4 38.8 C 133.43 38.79 133.4 44.3 133.4 44.3 L 132 44.3 L 132 36.6 L 133.4 36.6 C 133.4 36.6 133.43 37.68 133.4 37.7 C 133.7 37.2 134.8 36.4 135.9 36.4 C 137.1 36.4 137.7 37 138 37.8 C 138.4 37.1 139.4 36.4 140.6 36.4 C 142 36.4 142.7 37.2 142.7 38.7 C 142.75 38.73 142.7 44.3 142.7 44.3 L 141.3 44.3 C 141.3 44.3 141.32 39.15 141.3 39.2 Z M 148.2 36.4 C 150.5 36.4 152 38.2 152 40.6 C 151.96 40.55 152 40.9 152 40.9 C 152 40.9 145.89 40.9 145.9 40.9 C 146 42.2 147 43.3 148.5 43.3 C 149.3 43.3 150.2 43 150.8 42.4 C 150.8 42.4 151.4 43.3 151.4 43.3 C 150.7 44.1 149.6 44.5 148.4 44.5 C 146.1 44.5 144.4 42.8 144.4 40.4 C 144.4 38.2 146 36.4 148.2 36.4 Z M 145.9 39.9 C 145.9 39.9 150.6 39.9 150.6 39.9 C 150.5 38.9 149.8 37.6 148.2 37.6 C 146.7 37.6 146 38.8 145.9 39.9 Z " stroke="none" fill="#3797ef"/>
  </g>
  <g id="Polygon238357">
    <path d="M 10.8 16.3 C 10.8 16.3 10.8 19.2 10.8 19.2 C 10.8 21.7 9.5 22.9 7.4 23.2 C 7.4 23.21 7.4 25.3 7.4 25.3 L 4.5 25.3 C 4.5 25.3 4.49 23.23 4.5 23.2 C 2.3 22.9 1 21.8 1 19.2 C 1.02 19.2 1 15.8 1 15.8 L 4.2 15.8 C 4.2 15.8 4.24 18.74 4.2 18.7 C 4.2 20 4.9 20.5 5.9 20.5 C 6.9 20.5 7.6 20 7.6 18.7 C 7.6 18.7 7.6 17.2 7.6 17.2 C 7.6 16.2 7.3 15.7 6.3 15.1 C 6.3 15.1 4 13.8 4 13.8 C 2.1 12.7 1 11.8 1 9.8 C 1 9.8 1 7.2 1 7.2 C 1 4.7 2.5 3.6 4.5 3.2 C 4.49 3.21 4.5 1.1 4.5 1.1 L 7.4 1.1 C 7.4 1.1 7.4 3.21 7.4 3.2 C 9.4 3.6 10.8 4.8 10.8 7.2 C 10.79 7.17 10.8 10.4 10.8 10.4 L 7.6 10.4 C 7.6 10.4 7.57 7.62 7.6 7.6 C 7.6 6.4 6.9 5.9 5.9 5.9 C 4.9 5.9 4.2 6.4 4.2 7.6 C 4.2 7.6 4.2 9 4.2 9 C 4.2 10 4.6 10.4 5.5 11 C 5.5 11 7.8 12.3 7.8 12.3 C 9.7 13.4 10.8 14.2 10.8 16.3 Z M 22.5 7.3 C 22.5 7.3 22.5 19.1 22.5 19.1 C 22.5 22.1 20.8 23.3 17.8 23.3 C 17.8 23.3 17.6 23.3 17.6 23.3 C 14.6 23.3 12.8 22.1 12.8 19.1 C 12.8 19.1 12.8 7.3 12.8 7.3 C 12.8 4.3 14.6 3.1 17.6 3.1 C 17.6 3.1 17.8 3.1 17.8 3.1 C 20.8 3.1 22.5 4.3 22.5 7.3 Z M 17.7 6 C 16.6 6 16 6.4 16 7.8 C 16 7.8 16 18.6 16 18.6 C 16 20 16.6 20.4 17.7 20.4 C 18.7 20.4 19.4 20 19.4 18.6 C 19.4 18.6 19.4 7.8 19.4 7.8 C 19.4 6.4 18.7 6 17.7 6 Z M 34.6 7.3 C 34.6 7.3 34.6 19.1 34.6 19.1 C 34.6 22.1 32.8 23.3 29.8 23.3 C 29.8 23.3 29.6 23.3 29.6 23.3 C 26.6 23.3 24.8 22.1 24.8 19.1 C 24.8 19.1 24.8 7.3 24.8 7.3 C 24.8 4.3 26.6 3.1 29.6 3.1 C 29.6 3.1 29.8 3.1 29.8 3.1 C 32.8 3.1 34.6 4.3 34.6 7.3 Z M 29.7 6 C 28.7 6 28 6.4 28 7.8 C 28 7.8 28 18.6 28 18.6 C 28 20 28.7 20.4 29.7 20.4 C 30.7 20.4 31.4 20 31.4 18.6 C 31.4 18.6 31.4 7.8 31.4 7.8 C 31.4 6.4 30.7 6 29.7 6 Z M 46.6 7.3 C 46.6 7.3 46.6 19.1 46.6 19.1 C 46.6 22.1 44.8 23.3 41.8 23.3 C 41.8 23.3 41.6 23.3 41.6 23.3 C 38.7 23.3 36.9 22.1 36.9 19.1 C 36.9 19.1 36.9 7.3 36.9 7.3 C 36.9 4.3 38.7 3.1 41.6 3.1 C 41.6 3.1 41.8 3.1 41.8 3.1 C 44.8 3.1 46.6 4.3 46.6 7.3 Z M 41.7 6 C 40.7 6 40 6.4 40 7.8 C 40 7.8 40 18.6 40 18.6 C 40 20 40.7 20.4 41.7 20.4 C 42.8 20.4 43.4 20 43.4 18.6 C 43.4 18.6 43.4 7.8 43.4 7.8 C 43.4 6.4 42.8 6 41.7 6 Z M 52 22.2 C 52 24 51.1 25.7 50.1 26.8 C 50.1 26.8 48.9 26.2 48.9 26.2 C 49.6 25.3 50.1 24.1 50.2 23.1 C 50.23 23.09 48.7 23.1 48.7 23.1 L 48.7 19.4 L 52 19.4 C 52 19.4 51.95 22.25 52 22.2 Z M 63.8 7.3 C 63.8 7.3 63.8 19.1 63.8 19.1 C 63.8 22.1 62 23.3 59.1 23.3 C 59.1 23.3 58.8 23.3 58.8 23.3 C 55.9 23.3 54.1 22.1 54.1 19.1 C 54.1 19.1 54.1 7.3 54.1 7.3 C 54.1 4.3 55.9 3.1 58.8 3.1 C 58.8 3.1 59.1 3.1 59.1 3.1 C 62 3.1 63.8 4.3 63.8 7.3 Z M 59 6 C 57.9 6 57.3 6.4 57.3 7.8 C 57.3 7.8 57.3 18.6 57.3 18.6 C 57.3 20 57.9 20.4 59 20.4 C 60 20.4 60.6 20 60.6 18.6 C 60.6 18.6 60.6 7.8 60.6 7.8 C 60.6 6.4 60 6 59 6 Z M 75.8 7.3 C 75.8 7.3 75.8 19.1 75.8 19.1 C 75.8 22.1 74.1 23.3 71.1 23.3 C 71.1 23.3 70.9 23.3 70.9 23.3 C 67.9 23.3 66.1 22.1 66.1 19.1 C 66.1 19.1 66.1 7.3 66.1 7.3 C 66.1 4.3 67.9 3.1 70.9 3.1 C 70.9 3.1 71.1 3.1 71.1 3.1 C 74.1 3.1 75.8 4.3 75.8 7.3 Z M 71 6 C 69.9 6 69.3 6.4 69.3 7.8 C 69.3 7.8 69.3 18.6 69.3 18.6 C 69.3 20 69.9 20.4 71 20.4 C 72 20.4 72.7 20 72.7 18.6 C 72.7 18.6 72.7 7.8 72.7 7.8 C 72.7 6.4 72 6 71 6 Z M 87.9 7.3 C 87.9 7.3 87.9 19.1 87.9 19.1 C 87.9 22.1 86.1 23.3 83.1 23.3 C 83.1 23.3 82.9 23.3 82.9 23.3 C 79.9 23.3 78.2 22.1 78.2 19.1 C 78.2 19.1 78.2 7.3 78.2 7.3 C 78.2 4.3 79.9 3.1 82.9 3.1 C 82.9 3.1 83.1 3.1 83.1 3.1 C 86.1 3.1 87.9 4.3 87.9 7.3 Z M 83 6 C 82 6 81.3 6.4 81.3 7.8 C 81.3 7.8 81.3 18.6 81.3 18.6 C 81.3 20 82 20.4 83 20.4 C 84.1 20.4 84.7 20 84.7 18.6 C 84.7 18.6 84.7 7.8 84.7 7.8 C 84.7 6.4 84.1 6 83 6 Z " stroke="none" fill="#282828"/>
  </g>
</svg>