<?xml version="1.0" standalone="no"?><!DOCTYPE svg PUBLIC "-//W3C//DTD SVG 1.1//EN" "http://www.w3.org/Graphics/SVG/1.1/DTD/svg11.dtd"><svg xmlns="http://www.w3.org/2000/svg" xmlns:xlink="http://www.w3.org/1999/xlink" version="1.1" width="155.5px" height="44.9px" viewBox="0 -16 155.5 44.9" style="top:-16px"><desc/><defs/><g id="Polygon49608"><path d="m13.2 5.1l6.9-3.6v.8L14 5.4l6.1 3.1v.8l-6.9-3.6v-.6zm7.8 0l7-3.6v.8l-6.1 3.1L28 8.5v.8l-7-3.6v-.6zm9.7-3.5v9.2h-.9V.2h.9l6.6 9v-9h.9v10.6h-.9l-6.6-9.2zm15.3 8c-.6.7-1.6 1.3-2.7 1.3c-1.6 0-2.5-.7-2.5-2.4c.04-.02 0-5.4 0-5.4h.9s-.04 5.19 0 5.2c0 1.5.7 1.9 1.8 1.9c1 0 2-.6 2.5-1.3c.02.03 0-5.8 0-5.8h.8v7.7h-.8s.02-1.18 0-1.2zm12.5-4.2c0-1.1-.4-1.8-1.5-1.8c-.8 0-1.8.6-2.2 1.3v5.9h-.8s-.03-5.42 0-5.4c0-1.1-.5-1.8-1.6-1.8c-.8 0-1.7.7-2.2 1.4c.04-.05 0 5.8 0 5.8h-.8V3.1h.8s.04 1.14 0 1.1c.4-.5 1.4-1.3 2.5-1.3c1.2 0 1.8.7 2 1.4c.5-.7 1.5-1.4 2.6-1.4c1.4 0 2.1.8 2.1 2.3c-.03.02 0 5.6 0 5.6h-.9s.05-5.42 0-5.4zM61.9.2h.9s-.03 4.12 0 4.1c.6-.9 1.6-1.4 2.6-1.4c2.1 0 3.5 1.6 3.5 4c0 2.5-1.4 4-3.5 4c-1.1 0-2.1-.6-2.6-1.4c-.03.03 0 1.3 0 1.3h-.9V.2zm3.4 10c1.7 0 2.7-1.4 2.7-3.3c0-1.8-1-3.3-2.7-3.3c-1.1 0-2.1.7-2.5 1.4v3.8c.4.8 1.4 1.4 2.5 1.4zm9-7.3c2.3 0 3.6 1.8 3.6 4.1v.2s-6.43-.02-6.4 0c.1 1.6 1.2 3 3 3c.9 0 1.8-.3 2.5-1l.4.5c-.7.8-1.7 1.2-3 1.2c-2.2 0-3.8-1.6-3.8-4c0-2.2 1.5-4 3.7-4zm-2.8 3.6h5.6c-.1-1.3-.9-2.9-2.8-2.9c-1.9 0-2.8 1.6-2.8 2.9zM80 3.1h.8s.05 1.3 0 1.3c.7-.9 1.6-1.5 2.6-1.5v.9h-.4c-.8 0-1.8.7-2.2 1.4c.05-.04 0 5.6 0 5.6h-.8V3.1zm8.7 3.8c0-2.2 1.5-4 3.7-4c2.3 0 3.7 1.8 3.7 4c0 2.2-1.4 4-3.7 4c-2.2 0-3.7-1.8-3.7-4zm6.5 0c0-1.7-1-3.3-2.8-3.3c-1.8 0-2.8 1.6-2.8 3.3c0 1.7 1 3.3 2.8 3.3c1.8 0 2.8-1.6 2.8-3.3zm3.3-3.1h-1.3v-.7h1.3v-.7c0-1.5.8-2.4 2.1-2.4c.4 0 .7.1 1 .2l-.2.7c-.2-.1-.4-.2-.7-.2c-.9 0-1.4.6-1.4 1.7c.03-.02 0 .7 0 .7h1.6v.7h-1.6v7h-.8v-7zm8.1-3.6h.9v9.7h5.1v.9h-6V.2zm7.1 6.7c0-2.2 1.5-4 3.7-4c2.3 0 3.7 1.8 3.7 4c0 2.2-1.4 4-3.7 4c-2.2 0-3.7-1.8-3.7-4zm6.5 0c0-1.7-1-3.3-2.8-3.3c-1.8 0-2.8 1.6-2.8 3.3c0 1.7 1 3.3 2.8 3.3c1.8 0 2.8-1.6 2.8-3.3zm6.3-4c1.3 0 2.1.5 2.7 1.3l-.5.5c-.6-.8-1.3-1.1-2.1-1.1c-1.8 0-2.9 1.5-2.9 3.3c0 1.9 1.1 3.3 2.9 3.3c.8 0 1.5-.3 2.1-1.1l.5.5c-.6.8-1.4 1.3-2.7 1.3c-2.2 0-3.7-1.8-3.7-4c0-2.2 1.5-4 3.7-4zm9.4 6.9c-.6.8-1.5 1.1-2.6 1.1c-1.3 0-2.6-.9-2.6-2.5c0-1.7 1.3-2.5 2.6-2.5c1.1 0 2 .3 2.6 1V5.4c0-1.1-.9-1.8-2-1.8c-1 0-1.7.4-2.4 1.1l-.5-.5c.8-.9 1.7-1.3 3-1.3c1.5 0 2.8.7 2.8 2.5c-.03-.05 0 5.4 0 5.4h-.9s.04-.95 0-1zm0-2.2c-.5-.7-1.4-1.1-2.3-1.1c-1.2 0-2.1.8-2.1 1.9c0 1.1.9 1.9 2.1 1.9c.9 0 1.8-.4 2.3-1.1V7.6zm2.6-1.1h3.8v.8h-3.8v-.8z" stroke="none" fill="#000"/><a xlink:href="DBF_Number%20of%20Locations" xlink:show="new" xlink:title="&lt;&lt;Number of Locations&gt;&gt;"><rect style="fill:transparent;" x="12" y="-1" width="130" height="12"/></a></g></svg>