<?xml version="1.0" standalone="no"?>
<!DOCTYPE svg PUBLIC "-//W3C//DTD SVG 1.1//EN" "http://www.w3.org/Graphics/SVG/1.1/DTD/svg11.dtd">
<svg xmlns="http://www.w3.org/2000/svg" version="1.1" width="89.3px" height="16.9px" viewBox="0 -4 89.3 16.9" style="top:-4px">
  <desc>Type of Ownership</desc>
  <defs/>
  <g id="Polygon274026">
    <path d="M 2.1 1.9 L 0.3 1.9 L 0.3 1.1 L 4.9 1.1 L 4.9 1.9 L 3 1.9 L 3 7.1 L 2.1 7.1 L 2.1 1.9 Z M 5.5 8.2 C 5.8 8.2 6 8.1 6.1 7.7 C 6.13 7.73 6.4 7.2 6.4 7.2 L 4.6 2.8 L 5.5 2.8 L 6.8 6.2 L 8.2 2.8 L 9 2.8 C 9 2.8 6.9 7.94 6.9 7.9 C 6.6 8.6 6.1 8.9 5.5 8.9 C 5.4 8.9 5.1 8.8 5 8.8 C 5 8.8 5.1 8.1 5.1 8.1 C 5.2 8.1 5.4 8.2 5.5 8.2 Z M 9.7 8.8 L 9.7 2.8 L 10.5 2.8 C 10.5 2.8 10.51 3.38 10.5 3.4 C 10.8 3 11.3 2.7 11.9 2.7 C 13.1 2.7 13.9 3.5 13.9 4.9 C 13.9 6.4 13.1 7.2 11.9 7.2 C 11.4 7.2 10.9 7 10.5 6.5 C 10.51 6.48 10.5 8.8 10.5 8.8 L 9.7 8.8 Z M 11.7 3.4 C 11.2 3.4 10.7 3.7 10.5 4 C 10.5 4 10.5 5.9 10.5 5.9 C 10.7 6.2 11.2 6.5 11.7 6.5 C 12.5 6.5 13 5.8 13 4.9 C 13 4 12.5 3.4 11.7 3.4 Z M 16.8 2.7 C 18.1 2.7 18.9 3.7 18.9 5 C 18.92 5 18.9 5.2 18.9 5.2 C 18.9 5.2 15.48 5.2 15.5 5.2 C 15.5 5.9 16.1 6.6 17 6.6 C 17.4 6.6 17.9 6.4 18.2 6 C 18.2 6 18.6 6.6 18.6 6.6 C 18.2 7 17.6 7.2 16.9 7.2 C 15.6 7.2 14.6 6.3 14.6 4.9 C 14.6 3.7 15.5 2.7 16.8 2.7 Z M 15.5 4.6 C 15.5 4.6 18.1 4.6 18.1 4.6 C 18.1 4 17.7 3.3 16.8 3.3 C 15.9 3.3 15.5 4 15.5 4.6 Z M 22 4.9 C 22 3.7 22.8 2.7 24.2 2.7 C 25.5 2.7 26.4 3.7 26.4 4.9 C 26.4 6.2 25.5 7.2 24.2 7.2 C 22.8 7.2 22 6.2 22 4.9 Z M 25.5 4.9 C 25.5 4.1 25.1 3.4 24.2 3.4 C 23.3 3.4 22.8 4.1 22.8 4.9 C 22.8 5.8 23.3 6.5 24.2 6.5 C 25.1 6.5 25.5 5.8 25.5 4.9 Z M 27.6 3.5 L 26.9 3.5 L 26.9 2.8 L 27.6 2.8 C 27.6 2.8 27.6 2.48 27.6 2.5 C 27.6 1.5 28.2 1 28.9 1 C 29.2 1 29.4 1.1 29.6 1.2 C 29.6 1.2 29.4 1.8 29.4 1.8 C 29.3 1.7 29.2 1.7 29.1 1.7 C 28.7 1.7 28.4 2 28.4 2.5 C 28.41 2.48 28.4 2.8 28.4 2.8 L 29.3 2.8 L 29.3 3.5 L 28.4 3.5 L 28.4 7.1 L 27.6 7.1 L 27.6 3.5 Z M 35.2 1 C 37 1 38.2 2.3 38.2 4.1 C 38.2 5.9 37 7.2 35.2 7.2 C 33.4 7.2 32.2 5.9 32.2 4.1 C 32.2 2.3 33.4 1 35.2 1 Z M 35.2 1.8 C 33.9 1.8 33.1 2.8 33.1 4.1 C 33.1 5.4 33.9 6.4 35.2 6.4 C 36.5 6.4 37.3 5.4 37.3 4.1 C 37.3 2.8 36.5 1.8 35.2 1.8 Z M 42 3.8 L 40.9 7.1 L 40.1 7.1 L 38.7 2.8 L 39.5 2.8 L 40.5 6.1 L 41.6 2.8 L 42.3 2.8 L 43.4 6.1 L 44.4 2.8 L 45.3 2.8 L 43.9 7.1 L 43 7.1 L 42 3.8 Z M 48.9 4.3 C 48.9 3.6 48.5 3.4 48 3.4 C 47.5 3.4 47 3.7 46.8 4 C 46.78 4 46.8 7.1 46.8 7.1 L 46 7.1 L 46 2.8 L 46.8 2.8 C 46.8 2.8 46.78 3.37 46.8 3.4 C 47.1 3 47.6 2.7 48.3 2.7 C 49.2 2.7 49.7 3.1 49.7 4.1 C 49.71 4.06 49.7 7.1 49.7 7.1 L 48.9 7.1 C 48.9 7.1 48.91 4.33 48.9 4.3 Z M 52.9 2.7 C 54.2 2.7 55 3.7 55 5 C 55.02 5 55 5.2 55 5.2 C 55 5.2 51.59 5.2 51.6 5.2 C 51.6 5.9 52.2 6.6 53.1 6.6 C 53.5 6.6 54 6.4 54.4 6 C 54.4 6 54.7 6.6 54.7 6.6 C 54.3 7 53.7 7.2 53 7.2 C 51.7 7.2 50.7 6.3 50.7 4.9 C 50.7 3.7 51.6 2.7 52.9 2.7 Z M 51.6 4.6 C 51.6 4.6 54.2 4.6 54.2 4.6 C 54.2 4 53.8 3.3 52.9 3.3 C 52 3.3 51.6 4 51.6 4.6 Z M 56 2.8 L 56.9 2.8 C 56.9 2.8 56.85 3.43 56.9 3.4 C 57.2 3 57.7 2.7 58.3 2.7 C 58.3 2.7 58.3 3.5 58.3 3.5 C 58.2 3.5 58.1 3.5 58 3.5 C 57.6 3.5 57 3.8 56.9 4.1 C 56.85 4.09 56.9 7.1 56.9 7.1 L 56 7.1 L 56 2.8 Z M 59.1 5.9 C 59.4 6.3 60 6.6 60.6 6.6 C 61.2 6.6 61.5 6.3 61.5 5.9 C 61.5 5.5 61 5.4 60.4 5.2 C 59.7 5.1 58.8 4.9 58.8 3.9 C 58.8 3.2 59.4 2.7 60.5 2.7 C 61.2 2.7 61.8 2.9 62.1 3.3 C 62.1 3.3 61.8 3.8 61.8 3.8 C 61.5 3.5 61 3.3 60.5 3.3 C 59.9 3.3 59.6 3.5 59.6 3.9 C 59.6 4.3 60.1 4.4 60.6 4.5 C 61.4 4.7 62.3 4.9 62.3 5.9 C 62.3 6.6 61.7 7.2 60.5 7.2 C 59.8 7.2 59.1 7 58.7 6.5 C 58.7 6.5 59.1 5.9 59.1 5.9 Z M 66.2 4.3 C 66.2 3.6 65.9 3.4 65.3 3.4 C 64.8 3.4 64.3 3.7 64.1 4 C 64.11 4 64.1 7.1 64.1 7.1 L 63.3 7.1 L 63.3 1.1 L 64.1 1.1 C 64.1 1.1 64.11 3.37 64.1 3.4 C 64.4 3 65 2.7 65.6 2.7 C 66.6 2.7 67 3.1 67 4 C 67.04 4.04 67 7.1 67 7.1 L 66.2 7.1 C 66.2 7.1 66.23 4.31 66.2 4.3 Z M 68.2 1.5 C 68.2 1.2 68.5 1 68.7 1 C 69 1 69.3 1.2 69.3 1.5 C 69.3 1.8 69 2 68.7 2 C 68.5 2 68.2 1.8 68.2 1.5 Z M 68.3 2.8 L 69.1 2.8 L 69.1 7.1 L 68.3 7.1 L 68.3 2.8 Z M 70.4 8.8 L 70.4 2.8 L 71.2 2.8 C 71.2 2.8 71.24 3.38 71.2 3.4 C 71.6 3 72.1 2.7 72.7 2.7 C 73.8 2.7 74.6 3.5 74.6 4.9 C 74.6 6.4 73.8 7.2 72.7 7.2 C 72.1 7.2 71.6 7 71.2 6.5 C 71.24 6.48 71.2 8.8 71.2 8.8 L 70.4 8.8 Z M 72.4 3.4 C 72 3.4 71.5 3.7 71.2 4 C 71.2 4 71.2 5.9 71.2 5.9 C 71.5 6.2 72 6.5 72.4 6.5 C 73.3 6.5 73.8 5.8 73.8 4.9 C 73.8 4 73.3 3.4 72.4 3.4 Z " stroke="none" fill="#000"/>
  </g>
</svg>