<?xml version="1.0" standalone="no"?><!DOCTYPE svg PUBLIC "-//W3C//DTD SVG 1.1//EN" "http://www.w3.org/Graphics/SVG/1.1/DTD/svg11.dtd"><svg xmlns="http://www.w3.org/2000/svg" version="1.1" width="116.1px" height="24.9px" viewBox="0 -1 116.1 24.9" style="top:-1px"><desc>REQUEST MORE INFO</desc><defs/><g id="Polygon81565"><path d="m15.8 11.7h-1.1v2.3h-.9v-6h2.6c1.1 0 1.9.7 1.9 1.8c0 1.1-.8 1.7-1.5 1.8c-.02-.01 1.5 2.4 1.5 2.4h-1l-1.5-2.3zm.4-2.9c.03-.02-1.5 0-1.5 0v2.1h1.5c.7 0 1.2-.4 1.2-1.1c0-.6-.5-1-1.2-1zm3.2-.8h4v.8h-3.1v1.7h3.1v.8h-3.1v1.9h3.1v.8h-4v-6zm10.1 5.2c.03-.01.6.6.6.6l-.7.5l-.5-.6c-.5.3-1 .4-1.6.4c-1.8 0-3-1.3-3-3.1c0-1.8 1.2-3.1 3-3.1c1.8 0 3 1.3 3 3.1c0 .9-.3 1.6-.8 2.2zm-1.2-.1c.01-.04-.8-.9-.8-.9l.6-.6l.8.9c.3-.4.5-.9.5-1.5c0-1.3-.8-2.3-2.1-2.3c-1.3 0-2.1 1-2.1 2.3c0 1.3.8 2.3 2.1 2.3c.4 0 .7-.1 1-.2zM31.4 8h.9s.03 3.62 0 3.6c0 1 .6 1.7 1.7 1.7c1 0 1.6-.7 1.6-1.7c-.03.02 0-3.6 0-3.6h.9s-.03 3.64 0 3.6c0 1.5-.9 2.5-2.5 2.5c-1.7 0-2.6-1-2.6-2.5c.03.05 0-3.6 0-3.6zm6.4 0h4v.8h-3.1v1.7h3.1v.8h-3.1v1.9h3.1v.8h-4v-6zm5.3 4.5c.4.4 1.1.8 1.9.8c1 0 1.3-.5 1.3-.9c0-.7-.7-.8-1.4-1c-1-.3-2.1-.6-2.1-1.8c0-1 .9-1.7 2.1-1.7c.9 0 1.7.3 2.2.8l-.5.7c-.5-.5-1.1-.7-1.8-.7c-.6 0-1.1.3-1.1.8c0 .6.7.8 1.4.9c1 .3 2.1.6 2.1 1.9c0 .9-.6 1.8-2.2 1.8c-1.1 0-1.9-.4-2.4-1l.5-.6zm6.6-3.7h-1.9v-.8h4.6v.8h-1.8v5.2h-.9V8.8zm11.2.4l-2 4.8h-.4l-1.9-4.8v4.8h-.9v-6h1.3l1.7 4.3L60.5 8h1.3v6h-.9V9.2zm5-1.3c1.8 0 3 1.3 3 3.1c0 1.8-1.2 3.1-3 3.1c-1.8 0-3.1-1.3-3.1-3.1c0-1.8 1.3-3.1 3.1-3.1zm0 .8c-1.3 0-2.1 1-2.1 2.3c0 1.3.8 2.3 2.1 2.3c1.2 0 2.1-1 2.1-2.3c0-1.3-.9-2.3-2.1-2.3zm6.1 3h-1.1v2.3h-.9v-6s2.5-.01 2.5 0c1.1 0 1.9.7 1.9 1.8c0 1.1-.7 1.7-1.5 1.8c.03-.01 1.6 2.4 1.6 2.4h-1.1L72 11.7zm.4-2.9c-.02-.02-1.5 0-1.5 0v2.1h1.5c.6 0 1.1-.4 1.1-1.1c0-.6-.5-1-1.1-1zm3.1-.8h4.1v.8h-3.2v1.7h3.1v.8h-3.1v1.9h3.2v.8h-4.1v-6zM83 8h.9v6h-.9v-6zm3.2 1.4v4.6h-.9v-6h.9l3.2 4.5V8h.9v6h-.8l-3.3-4.6zM91.7 8h4v.8h-3.1v1.7h3v.8h-3v2.7h-.9v-6zm7.8-.1c1.7 0 3 1.3 3 3.1c0 1.8-1.3 3.1-3 3.1c-1.8 0-3.1-1.3-3.1-3.1c0-1.8 1.3-3.1 3.1-3.1zm0 .8c-1.3 0-2.1 1-2.1 2.3c0 1.3.8 2.3 2.1 2.3c1.2 0 2.1-1 2.1-2.3c0-1.3-.9-2.3-2.1-2.3z" stroke="none" fill="#ffffff"/></g></svg>