<?xml version="1.0" standalone="no"?><!DOCTYPE svg PUBLIC "-//W3C//DTD SVG 1.1//EN" "http://www.w3.org/Graphics/SVG/1.1/DTD/svg11.dtd"><svg xmlns="http://www.w3.org/2000/svg" xmlns:xlink="http://www.w3.org/1999/xlink" version="1.1" width="147.4px" height="58.9px" viewBox="0 -4 147.4 58.9" style="top:-4px"><desc>Raising Cane s Avoids Layoffs The company was able to avoid layoffs as sales return to pre-COVID-19</desc><defs/><g id="Polygon103444"><path d="m3.5 33.4c-.4.4-.9.6-1.5.6c-.7 0-1.5-.5-1.5-1.4c0-1 .8-1.5 1.5-1.5c.6 0 1.1.2 1.5.6v-.8c0-.7-.5-1-1.2-1c-.5 0-.9.2-1.3.6l-.3-.3c.5-.5 1-.7 1.7-.7c.9 0 1.6.4 1.6 1.4c-.04-.05 0 3 0 3h-.5v-.5zm0-1.3c-.3-.4-.8-.6-1.3-.6c-.7 0-1.2.5-1.2 1.1c0 .6.5 1 1.2 1c.5 0 1-.1 1.3-.5v-1zm1.7.9c.3.3.8.6 1.4.6c.8 0 1.2-.3 1.2-.8c0-.6-.6-.8-1.2-.9c-.8-.2-1.6-.4-1.6-1.2c0-.7.6-1.2 1.6-1.2c.7 0 1.2.2 1.6.6l-.3.3c-.3-.3-.7-.5-1.3-.5c-.7 0-1.1.3-1.1.7c0 .5.6.7 1.2.8c.7.2 1.6.4 1.6 1.3c0 .7-.6 1.3-1.7 1.3c-.7 0-1.2-.2-1.6-.7l.2-.3zm6.3 0c.3.3.8.6 1.4.6c.7 0 1.2-.3 1.2-.8c0-.6-.6-.8-1.2-.9c-.8-.2-1.6-.4-1.6-1.2c0-.7.6-1.2 1.6-1.2c.7 0 1.2.2 1.5.6l-.2.3c-.3-.3-.7-.5-1.3-.5c-.7 0-1.1.3-1.1.7c0 .5.5.7 1.2.8c.7.2 1.5.4 1.5 1.3c0 .7-.5 1.3-1.6 1.3c-.7 0-1.2-.2-1.7-.7l.3-.3zm6.9.4c-.4.4-.9.6-1.5.6c-.7 0-1.5-.5-1.5-1.4c0-1 .8-1.5 1.5-1.5c.6 0 1.1.2 1.5.6v-.8c0-.7-.5-1-1.2-1c-.5 0-.9.2-1.3.6l-.3-.3c.5-.5 1-.7 1.7-.7c.9 0 1.6.4 1.6 1.4c-.02-.05 0 3 0 3h-.5v-.5zm0-1.3c-.3-.4-.8-.6-1.3-.6c-.7 0-1.2.5-1.2 1.1c0 .6.5 1 1.2 1c.5 0 1-.1 1.3-.5v-1zm1.9-4.2h.4v6h-.4v-6zm3.6 1.6c1.4 0 2.1 1 2.1 2.3c-.02-.04 0 .1 0 .1c0 0-3.65-.02-3.7 0c.1.9.7 1.7 1.7 1.7c.6 0 1.1-.2 1.5-.6l.2.3c-.4.5-1 .7-1.7.7c-1.3 0-2.2-.9-2.2-2.3c0-1.2.9-2.2 2.1-2.2zm-1.6 2h3.2c0-.7-.5-1.6-1.6-1.6c-1 0-1.5.9-1.6 1.6zM27 33c.3.3.8.6 1.4.6c.7 0 1.2-.3 1.2-.8c0-.6-.6-.8-1.3-.9c-.7-.2-1.5-.4-1.5-1.2c0-.7.6-1.2 1.6-1.2c.7 0 1.2.2 1.5.6l-.2.3c-.3-.3-.8-.5-1.3-.5c-.7 0-1.1.3-1.1.7c0 .5.5.7 1.1.8c.8.2 1.6.4 1.6 1.3c0 .7-.5 1.3-1.6 1.3c-.7 0-1.2-.2-1.7-.7l.3-.3zm6.4-3.4h.4s.05.71 0 .7c.4-.5.9-.8 1.5-.8v.5h-.2c-.5 0-1.1.4-1.3.7c.05.04 0 3.2 0 3.2h-.4v-4.3zm4.6-.1c1.3 0 2 1 2 2.3c.04-.04 0 .1 0 .1c0 0-3.6-.02-3.6 0c0 .9.7 1.7 1.7 1.7c.6 0 1-.2 1.4-.6l.3.3c-.5.5-1 .7-1.7.7c-1.3 0-2.2-.9-2.2-2.3c0-1.2.9-2.2 2.1-2.2zm-1.6 2h3.2c0-.7-.5-1.6-1.6-1.6c-1 0-1.6.9-1.6 1.6zm4.8 1.6c.05-.03 0-3.1 0-3.1h-.7v-.4h.7v-1.2h.5v1.2h.9v.4h-.9s.02 3 0 3c0 .4.2.6.5.6c.2 0 .4-.1.5-.2l.1.3c-.1.2-.3.3-.7.3c-.6 0-.9-.3-.9-.9zm5.3.2c-.4.4-1 .7-1.6.7c-.9 0-1.4-.4-1.4-1.4c.04.02 0-3 0-3h.5v2.9c0 .9.4 1.1 1.1 1.1c.5 0 1.1-.3 1.4-.7c-.02-.02 0-3.3 0-3.3h.4v4.3h-.4s-.02-.63 0-.6zm1.8-3.7h.5s-.02.71 0 .7c.3-.5.8-.8 1.4-.8v.5h-.2c-.4 0-1 .4-1.2.7c-.02.04 0 3.2 0 3.2h-.5v-4.3zM54 31c0-.9-.4-1.1-1-1.1c-.6 0-1.2.3-1.5.7c.04.02 0 3.3 0 3.3h-.4v-4.3h.4s.04.62 0 .6c.4-.4 1-.7 1.6-.7c.9 0 1.4.4 1.4 1.4c-.02-.03 0 3 0 3h-.5V31zm4.2 2.1c-.02-.03 0-3.1 0-3.1h-.7v-.4h.7v-1.2h.5v1.2h.8v.4h-.8s-.05 3 0 3c0 .4.1.6.4.6c.2 0 .4-.1.5-.2l.2.3c-.2.2-.4.3-.8.3c-.5 0-.8-.3-.8-.9zm2-1.4c0-1.2.8-2.2 2.1-2.2c1.3 0 2.1 1 2.1 2.2c0 1.3-.8 2.3-2.1 2.3c-1.3 0-2.1-1-2.1-2.3zm3.7 0c0-.9-.6-1.8-1.6-1.8c-1 0-1.6.9-1.6 1.8c0 1 .6 1.9 1.6 1.9c1 0 1.6-.9 1.6-1.9zm3.9 3.9v-6h.4s.03.66 0 .7c.3-.5.9-.8 1.5-.8c1.2 0 2 .8 2 2.2c0 1.4-.8 2.3-2 2.3c-.6 0-1.1-.3-1.5-.8c.03.01 0 2.4 0 2.4h-.4zm1.9-5.7c-.6 0-1.2.3-1.5.8v2.1c.3.4.9.8 1.5.8c.9 0 1.5-.8 1.5-1.9c0-1-.6-1.8-1.5-1.8zm3.1-.3h.5s-.03.71 0 .7c.3-.5.8-.8 1.4-.8v.5h-.2c-.4 0-1 .4-1.2.7c-.03.04 0 3.2 0 3.2h-.5v-4.3zm4.6-.1c1.3 0 2.1 1 2.1 2.3c-.04-.04 0 .1 0 .1c0 0-3.68-.02-3.7 0c.1.9.7 1.7 1.7 1.7c.6 0 1.1-.2 1.4-.6l.3.3c-.4.5-1 .7-1.7.7c-1.3 0-2.2-.9-2.2-2.3c0-1.2.9-2.2 2.1-2.2zm-1.6 2h3.2c0-.7-.5-1.6-1.6-1.6c-1 0-1.5.9-1.6 1.6zm4.3 0h2.2v.4h-2.2v-.4zm2.9-.6c0-1.8 1.3-3.1 3-3.1c1 0 1.7.4 2.2 1.1l-.4.2c-.4-.5-1.1-.8-1.8-.8c-1.4 0-2.5 1-2.5 2.6c0 1.6 1.1 2.7 2.5 2.7c.7 0 1.4-.4 1.8-.9l.4.2c-.5.7-1.2 1.1-2.2 1.1c-1.7 0-3-1.2-3-3.1zm8.9-3.1c1.7 0 2.9 1.4 2.9 3.1c0 1.8-1.2 3.1-2.9 3.1c-1.8 0-3-1.3-3-3.1c0-1.7 1.2-3.1 3-3.1zm0 .5c-1.5 0-2.4 1.1-2.4 2.6c0 1.5.9 2.7 2.4 2.7c1.4 0 2.3-1.2 2.3-2.7c0-1.5-.9-2.6-2.3-2.6zm3.3-.4h.5l2.2 5.4l2.2-5.4h.6l-2.4 6h-.7l-2.4-6zm6.3 0h.5v6h-.5v-6zm1.9 0h1.9c1.9 0 3.1 1.4 3.1 3c0 1.7-1.2 3-3.1 3h-1.9v-6zm1.9 5.5c1.6 0 2.5-1.1 2.5-2.5c0-1.4-.9-2.5-2.5-2.5c.03-.03-1.4 0-1.4 0v5s1.43.04 1.4 0zm3.8-1.9h2.1v.4h-2.1v-.4zm3.8-2.9l-.9 1l-.4-.3l1.4-1.4h.4v6h-.5v-5.3zm2.3 4.3c.3.4.7.6 1.3.6c1.4 0 1.8-1.3 1.8-2.6v-.3c-.2.4-.9 1-1.8 1c-1 0-1.9-.6-1.9-1.9c0-1 .7-1.9 2-1.9c1.6 0 2.2 1.5 2.2 3.1c0 1.6-.6 3.1-2.3 3.1c-.7 0-1.2-.3-1.6-.8l.3-.3zm1.4-4.6c-1 0-1.5.8-1.5 1.4c0 1 .7 1.5 1.5 1.5c.7 0 1.3-.5 1.7-1.1c-.1-.8-.5-1.8-1.7-1.8zm3.3 4.9c.2 0 .4.2.4.4c0 .2-.2.4-.4.4c-.2 0-.4-.2-.4-.4c0-.2.2-.4.4-.4z" stroke="none" fill="#000"/><a xlink:href="https://www.qsrmagazine.com/exclusives/raising-canes-avoids-layoffs-sales-return-pre-covid-19?utm_campaign=20200428&amp;utm_medium=email&amp;utm_source=jolt" xlink:show="new" xlink:title="Read More &gt;"><rect style="fill:transparent;" x="-1" y="38" width="48" height="7"/></a></g><g id="Polygon103443"><path d="m2.3 17.6h-2v-.5h4.5v.5h-2v5.5h-.5v-5.5zm6.3 2.5c0-.8-.4-1-1-1c-.6 0-1.1.3-1.4.7c-.02.02 0 3.3 0 3.3h-.5v-6h.5s-.02 2.32 0 2.3c.3-.4.9-.7 1.5-.7c.9 0 1.4.4 1.4 1.3c.02.05 0 3.1 0 3.1h-.5s.05-2.95 0-3zm3.7-1.4c1.4 0 2.1 1 2.1 2.3c-.02-.04 0 .1 0 .1c0 0-3.65-.02-3.7 0c.1.9.7 1.7 1.7 1.7c.6 0 1.1-.2 1.5-.6l.2.3c-.4.5-1 .7-1.7.7c-1.3 0-2.2-.9-2.2-2.3c0-1.2.9-2.2 2.1-2.2zm-1.6 2h3.2c0-.7-.5-1.6-1.6-1.6c-1 0-1.5.9-1.6 1.6zm8.9-2c.7 0 1.2.3 1.5.7l-.3.3c-.3-.5-.7-.6-1.2-.6c-1 0-1.6.8-1.6 1.8c0 1.1.6 1.9 1.6 1.9c.5 0 .9-.2 1.2-.6l.3.3c-.3.4-.8.7-1.5.7c-1.3 0-2.1-1-2.1-2.3c0-1.2.8-2.2 2.1-2.2zm2.2 2.2c0-1.2.8-2.2 2.1-2.2c1.3 0 2.1 1 2.1 2.2c0 1.3-.8 2.3-2.1 2.3c-1.3 0-2.1-1-2.1-2.3zm3.7 0c0-.9-.6-1.8-1.6-1.8c-1 0-1.6.9-1.6 1.8c0 1 .6 1.9 1.6 1.9c1 0 1.6-.9 1.6-1.9zm6.8-.8c0-.6-.3-1-.9-1c-.4 0-1 .3-1.2.7c-.01.02 0 3.3 0 3.3h-.5v-3c0-.6-.2-1-.9-1c-.4 0-.9.3-1.2.7c-.01.02 0 3.3 0 3.3h-.5v-4.3h.5v.6c.2-.3.8-.7 1.4-.7c.7 0 1 .4 1.1.8c.3-.4.9-.8 1.5-.8c.8 0 1.2.4 1.2 1.3c-.03-.02 0 3.1 0 3.1h-.5v-3zm1.8 4.7v-6h.5v.7c.3-.5.9-.8 1.5-.8c1.2 0 2 .8 2 2.2c0 1.4-.8 2.3-2 2.3c-.6 0-1.1-.3-1.5-.8v2.4h-.5zm1.9-5.7c-.6 0-1.1.3-1.4.8v2.1c.3.4.8.8 1.4.8c1 0 1.6-.8 1.6-1.9c0-1-.6-1.8-1.6-1.8zm5.9 3.5c-.3.4-.8.6-1.4.6c-.8 0-1.6-.5-1.6-1.4c0-1 .8-1.5 1.6-1.5c.6 0 1.1.2 1.4.6v-.8c0-.7-.5-1-1.1-1c-.6 0-1 .2-1.4.6l-.3-.3c.5-.5 1-.7 1.7-.7c.9 0 1.6.4 1.6 1.4v3h-.5s.04-.5 0-.5zm0-1.3c-.3-.4-.8-.6-1.3-.6c-.7 0-1.2.5-1.2 1.1c0 .6.5 1 1.2 1c.5 0 1-.1 1.3-.5v-1zm4.8-1.1c0-.9-.4-1.1-1-1.1c-.6 0-1.2.3-1.5.7c.04.02 0 3.3 0 3.3h-.4v-4.3h.4s.04.62 0 .6c.4-.4 1-.7 1.6-.7c.9 0 1.4.4 1.4 1.4c-.02-.03 0 3 0 3h-.5v-2.9zm2 4.3c.3 0 .5-.2.7-.6c-.03.02.3-.8.3-.8l-1.8-4.3h.5l1.6 3.8l1.6-3.8h.5s-2.27 5.26-2.3 5.3c-.2.5-.6.8-1.1.8c-.1 0-.3-.1-.4-.1v-.4c.1 0 .3.1.4.1zm8.8-5.1l-1.2 3.7h-.5l-1.4-4.3h.5l1.2 3.7l1.2-3.7h.4l1.2 3.7l1.2-3.7h.5l-1.4 4.3h-.5l-1.2-3.7zm6.7 3.2c-.4.4-.9.6-1.5.6c-.8 0-1.5-.5-1.5-1.4c0-1 .7-1.5 1.5-1.5c.6 0 1.1.2 1.5.6v-.8c0-.7-.6-1-1.2-1c-.6 0-1 .2-1.4.6l-.2-.3c.4-.5.9-.7 1.6-.7c.9 0 1.6.4 1.6 1.4c.02-.05 0 3 0 3h-.4s-.05-.5 0-.5zm0-1.3c-.4-.4-.8-.6-1.4-.6c-.7 0-1.2.5-1.2 1.1c0 .6.5 1 1.2 1c.6 0 1-.1 1.4-.5v-1zm1.7.9c.3.3.8.6 1.4.6c.7 0 1.2-.3 1.2-.8c0-.6-.6-.8-1.3-.9c-.7-.2-1.5-.4-1.5-1.2c0-.7.6-1.2 1.6-1.2c.7 0 1.2.2 1.5.6l-.2.3c-.3-.3-.8-.5-1.3-.5c-.7 0-1.1.3-1.1.7c0 .5.5.7 1.1.8c.8.2 1.6.4 1.6 1.3c0 .7-.5 1.3-1.6 1.3c-.7 0-1.3-.2-1.7-.7l.3-.3zm9.1.4c-.4.4-.9.6-1.5.6c-.7 0-1.5-.5-1.5-1.4c0-1 .8-1.5 1.5-1.5c.6 0 1.1.2 1.5.6v-.8c0-.7-.5-1-1.2-1c-.5 0-.9.2-1.3.6l-.3-.3c.5-.5 1-.7 1.7-.7c.9 0 1.6.4 1.6 1.4c-.02-.05 0 3 0 3h-.5s.02-.5 0-.5zm0-1.3c-.3-.4-.8-.6-1.3-.6c-.7 0-1.2.5-1.2 1.1c0 .6.5 1 1.2 1c.5 0 1-.1 1.3-.5v-1zm1.9-4.2h.4s.02 2.36 0 2.4c.4-.5.9-.8 1.5-.8c1.2 0 2 .9 2 2.2c0 1.4-.8 2.3-2 2.3c-.6 0-1.2-.3-1.5-.8c.02.02 0 .7 0 .7h-.4v-6zm1.8 5.7c1 0 1.6-.8 1.6-1.9c0-1-.6-1.8-1.6-1.8c-.6 0-1.1.4-1.4.8v2.1c.3.4.8.8 1.4.8zm3.2-5.7h.5v6h-.5v-6zm3.7 1.6c1.3 0 2 1 2 2.3c.03-.04 0 .1 0 .1c0 0-3.6-.02-3.6 0c0 .9.7 1.7 1.7 1.7c.5 0 1-.2 1.4-.6l.3.3c-.5.5-1 .7-1.7.7c-1.3 0-2.2-.9-2.2-2.3c0-1.2.9-2.2 2.1-2.2zm-1.6 2h3.2c-.1-.7-.5-1.6-1.6-1.6c-1.1 0-1.6.9-1.6 1.6zm7.1 1.6c-.04-.03 0-3.1 0-3.1h-.8v-.4h.8v-1.2h.4v1.2h.9v.4h-.9s.04 3 0 3c0 .4.2.6.5.6c.2 0 .4-.1.5-.2l.2.3c-.2.2-.4.3-.8.3c-.6 0-.8-.3-.8-.9zm2-1.4c0-1.2.8-2.2 2.1-2.2c1.3 0 2.1 1 2.1 2.2c0 1.3-.8 2.3-2.1 2.3c-1.3 0-2.1-1-2.1-2.3zm3.7 0c0-.9-.6-1.8-1.6-1.8c-1 0-1.6.9-1.6 1.8c0 1 .6 1.9 1.6 1.9c1 0 1.6-.9 1.6-1.9zm6.6 1.7c-.4.4-.9.6-1.5.6c-.7 0-1.5-.5-1.5-1.4c0-1 .8-1.5 1.5-1.5c.6 0 1.1.2 1.5.6v-.8c0-.7-.5-1-1.2-1c-.5 0-.9.2-1.3.6l-.3-.3c.5-.5 1-.7 1.7-.7c.9 0 1.6.4 1.6 1.4c-.04-.05 0 3 0 3h-.5v-.5zm0-1.3c-.3-.4-.8-.6-1.3-.6c-.7 0-1.2.5-1.2 1.1c0 .6.5 1 1.2 1c.5 0 1-.1 1.3-.5v-1zm1.2-2.5h.5l1.6 3.8l1.5-3.8h.6l-1.9 4.3h-.5l-1.8-4.3zm4.6 2.1c0-1.2.8-2.2 2.1-2.2c1.3 0 2.1 1 2.1 2.2c0 1.3-.8 2.3-2.1 2.3c-1.3 0-2.1-1-2.1-2.3zm3.7 0c0-.9-.6-1.8-1.6-1.8c-1 0-1.6.9-1.6 1.8c0 1 .6 1.9 1.6 1.9c1 0 1.6-.9 1.6-1.9zm1.5-3.2c0-.2.2-.4.4-.4c.1 0 .3.2.3.4c0 .2-.2.3-.3.3c-.2 0-.4-.1-.4-.3zm.1 1.1h.5v4.3h-.5v-4.3zm5.1 3.6c-.3.5-.9.8-1.6.8c-1.1 0-1.9-.9-1.9-2.3c0-1.3.8-2.2 1.9-2.2c.7 0 1.2.3 1.6.8c-.04-.04 0-2.4 0-2.4h.4v6h-.4s-.04-.68 0-.7zm0-2.5c-.3-.5-.9-.8-1.5-.8c-.9 0-1.5.8-1.5 1.8c0 1.1.6 1.9 1.5 1.9c.6 0 1.2-.4 1.5-.8v-2.1zm4-2.8h.5v6h-.5v-6zm4.6 5.5c-.4.4-.8.6-1.5.6c-.7 0-1.5-.5-1.5-1.4c0-1 .8-1.5 1.5-1.5c.7 0 1.1.2 1.5.6v-.8c0-.7-.5-1-1.1-1c-.6 0-1 .2-1.4.6l-.3-.3c.5-.5 1-.7 1.7-.7c.9 0 1.6.4 1.6 1.4v3h-.5s.02-.5 0-.5zm0-1.3c-.3-.4-.8-.6-1.3-.6c-.7 0-1.2.5-1.2 1.1c0 .6.5 1 1.2 1c.5 0 1-.1 1.3-.5v-1zm2 3.2c.3 0 .5-.2.7-.6l.3-.8l-1.8-4.3h.5l1.6 3.8l1.6-3.8h.5s-2.25 5.26-2.3 5.3c-.2.5-.6.8-1.1.8c-.1 0-.3-.1-.4-.1l.1-.4c.1 0 .2.1.3.1zm3.8-3.6c0-1.2.9-2.2 2.1-2.2c1.3 0 2.1 1 2.1 2.2c0 1.3-.8 2.3-2.1 2.3c-1.2 0-2.1-1-2.1-2.3zm3.7 0c0-.9-.5-1.8-1.6-1.8c-1 0-1.6.9-1.6 1.8c0 1 .6 1.9 1.6 1.9c1.1 0 1.6-.9 1.6-1.9zm1.8-1.7h-.7v-.4h.7v-.4c0-.9.5-1.4 1.2-1.4c.2 0 .4.1.6.2l-.2.3c-.1 0-.2-.1-.4-.1c-.5 0-.7.4-.7 1c-.03-.03 0 .4 0 .4h.9v.4h-.9v3.9h-.5v-3.9zm2.4 0h-.7v-.4h.7v-.4c0-.9.4-1.4 1.2-1.4c.2 0 .4.1.5.2l-.1.3c-.1 0-.2-.1-.4-.1c-.5 0-.7.4-.7 1c-.05-.03 0 .4 0 .4h.8v.4h-.8v3.9h-.5v-3.9zm2 3c.3.3.8.6 1.4.6c.8 0 1.2-.3 1.2-.8c0-.6-.6-.8-1.2-.9c-.8-.2-1.6-.4-1.6-1.2c0-.7.6-1.2 1.6-1.2c.7 0 1.2.2 1.5.6l-.2.3c-.3-.3-.7-.5-1.3-.5c-.7 0-1.1.3-1.1.7c0 .5.6.7 1.2.8c.7.2 1.5.4 1.5 1.3c0 .7-.5 1.3-1.6 1.3c-.7 0-1.2-.2-1.7-.7l.3-.3z" stroke="none" fill="#000"/></g><g id="Polygon103442"><path d="m2.7 4.8H1.6v2.3h-.9v-6s2.5.01 2.5 0c1.1 0 1.9.7 1.9 1.9c0 1-.7 1.6-1.5 1.7c.03.01 1.6 2.4 1.6 2.4H4.1L2.7 4.8zm.4-2.9H1.6v2.1h1.5c.6 0 1.1-.4 1.1-1c0-.7-.5-1.1-1.1-1.1zm5.5 4.7c-.3.4-.8.6-1.4.6c-.7 0-1.5-.5-1.5-1.4c0-1 .8-1.4 1.5-1.4c.6 0 1.1.1 1.4.5v-.7c0-.5-.4-.9-1-.9c-.5 0-1 .2-1.3.6l-.4-.5c.5-.5 1.1-.7 1.8-.7c.9 0 1.7.4 1.7 1.5c.03-.02 0 2.9 0 2.9h-.8s.02-.47 0-.5zm0-1.2c-.2-.3-.6-.5-1.1-.5c-.6 0-1 .4-1 .9c0 .5.4.9 1 .9c.5 0 .9-.2 1.1-.5v-.8zm1.9-3.9c0-.3.3-.5.5-.5c.3 0 .6.2.6.5c0 .3-.3.5-.6.5c-.2 0-.5-.2-.5-.5zm.1 1.3h.8v4.3h-.8V2.8zm2.1 3.1c.3.4.8.7 1.4.7c.6 0 .9-.3.9-.7c0-.4-.4-.5-1-.7c-.7-.1-1.6-.3-1.6-1.3c0-.7.6-1.2 1.6-1.2c.8 0 1.3.2 1.7.6l-.4.5c-.2-.3-.7-.5-1.2-.5c-.6 0-.9.2-.9.6c0 .4.4.5 1 .6c.7.2 1.6.4 1.6 1.4c0 .7-.6 1.3-1.7 1.3c-.8 0-1.4-.2-1.8-.7l.4-.6zm3.9-4.4c0-.3.3-.5.6-.5c.3 0 .5.2.5.5c0 .3-.2.5-.5.5c-.3 0-.6-.2-.6-.5zm.2 1.3h.8v4.3h-.8V2.8zm4.9 1.5c0-.7-.4-.9-.9-.9c-.5 0-1 .3-1.2.6c-.02 0 0 3.1 0 3.1h-.8V2.8h.8s-.02.57 0 .6c.3-.4.8-.7 1.5-.7c.9 0 1.4.4 1.4 1.4c.02-.04 0 3 0 3h-.8V4.3zm2.4 3.3c.3.4.8.6 1.4.6c.6 0 1.3-.3 1.3-1.2v-.6c-.3.4-.8.7-1.4.7c-1.1 0-2-.8-2-2.2c0-1.4.9-2.2 2-2.2c.5 0 1.1.2 1.4.7v-.6h.8s.02 4.14 0 4.1c0 1.5-1.1 2-2.1 2c-.8 0-1.3-.2-1.8-.7l.4-.6zM26.8 4c-.2-.3-.7-.6-1.2-.6c-.8 0-1.3.6-1.3 1.5c0 .9.5 1.5 1.3 1.5c.5 0 1-.3 1.2-.6V4zm4 .1c0-1.8 1.4-3.1 3.1-3.1c1.2 0 1.9.6 2.4 1.3l-.8.4c-.3-.5-.9-.9-1.6-.9c-1.2 0-2.2 1-2.2 2.3c0 1.4 1 2.3 2.2 2.3c.7 0 1.3-.4 1.6-.9l.8.4c-.5.8-1.2 1.3-2.4 1.3c-1.7 0-3.1-1.2-3.1-3.1zm9 2.5c-.4.4-.9.6-1.5.6c-.7 0-1.5-.5-1.5-1.4c0-1 .8-1.4 1.5-1.4c.6 0 1.1.1 1.5.5v-.7c0-.5-.5-.9-1.1-.9c-.5 0-.9.2-1.3.6l-.4-.5c.5-.5 1.1-.7 1.8-.7c1 0 1.8.4 1.8 1.5c-.04-.02 0 2.9 0 2.9h-.8s-.05-.47 0-.5zm0-1.2c-.3-.3-.7-.5-1.2-.5c-.5 0-1 .4-1 .9c0 .5.5.9 1 .9c.5 0 .9-.2 1.2-.5v-.8zm4.9-1.1c0-.7-.4-.9-.9-.9c-.5 0-1 .3-1.2.6c-.02 0 0 3.1 0 3.1h-.8V2.8h.8s-.02.57 0 .6c.3-.4.8-.7 1.5-.7c.9 0 1.4.4 1.4 1.4v3h-.8V4.3zm3.9-1.6c1.3 0 2.1 1 2.1 2.3c.03 0 0 .2 0 .2h-3.4c.1.7.6 1.4 1.5 1.4c.4 0 .9-.2 1.3-.6l.3.6c-.4.4-1 .6-1.7.6c-1.3 0-2.3-.9-2.3-2.3c0-1.2.9-2.2 2.2-2.2zm-1.3 1.9h2.6c0-.6-.4-1.3-1.3-1.3c-.9 0-1.3.7-1.3 1.3zm4.2-1.7c.3-.2.6-.5.6-.8h-.1c-.3 0-.5-.2-.5-.5c0-.3.2-.6.5-.6c.4 0 .7.3.7.8c0 .6-.4 1.1-.8 1.4l-.4-.3zm1.9 3c.3.4.9.7 1.5.7c.6 0 .9-.3.9-.7c0-.4-.5-.5-1.1-.7c-.7-.1-1.6-.3-1.6-1.3c0-.7.6-1.2 1.7-1.2c.7 0 1.3.2 1.7.6l-.4.5c-.3-.3-.7-.5-1.3-.5c-.5 0-.9.2-.9.6c0 .4.5.5 1 .6c.8.2 1.7.4 1.7 1.4c0 .7-.6 1.3-1.8 1.3c-.7 0-1.3-.2-1.8-.7l.4-.6zm10.2 0h-3l-.5 1.2h-1l2.4-6h1.2l2.3 6h-.9l-.5-1.2zm-2.7-.8h2.4l-1.2-3.2l-1.2 3.2zm3.9-2.3h.9l1.4 3.4l1.3-3.4h.9l-1.8 4.3h-.9l-1.8-4.3zm4.8 2.1c0-1.2.8-2.2 2.2-2.2c1.3 0 2.2 1 2.2 2.2c0 1.3-.9 2.3-2.2 2.3c-1.4 0-2.2-1-2.2-2.3zm3.5 0c0-.8-.4-1.5-1.3-1.5c-.9 0-1.4.7-1.4 1.5c0 .9.5 1.6 1.4 1.6c.9 0 1.3-.7 1.3-1.6zm1.7-3.4c0-.3.2-.5.5-.5c.3 0 .5.2.5.5c0 .3-.2.5-.5.5c-.3 0-.5-.2-.5-.5zm.1 1.3h.8v4.3h-.8V2.8zM80 6.5c-.3.4-.8.7-1.4.7c-1.1 0-1.9-.8-1.9-2.3c0-1.4.8-2.2 1.9-2.2c.6 0 1.1.2 1.4.7c.02-.01 0-2.3 0-2.3h.8v6h-.8s.02-.61 0-.6zM80 4c-.2-.3-.7-.6-1.2-.6c-.8 0-1.3.6-1.3 1.5c0 .9.5 1.6 1.3 1.6c.5 0 1-.3 1.2-.6V4zm2 1.9c.3.4.9.7 1.5.7c.6 0 .9-.3.9-.7c0-.4-.5-.5-1-.7c-.8-.1-1.6-.3-1.6-1.3c0-.7.6-1.2 1.6-1.2c.8 0 1.3.2 1.7.6l-.4.5c-.2-.3-.7-.5-1.3-.5c-.5 0-.8.2-.8.6c0 .4.4.5 1 .6c.7.2 1.6.4 1.6 1.4c0 .7-.6 1.3-1.7 1.3c-.8 0-1.4-.2-1.8-.7l.3-.6zm6.4-4.8h.9v5.2h2.7v.8h-3.6v-6zm7.1 5.5c-.4.4-.8.6-1.4.6c-.8 0-1.5-.5-1.5-1.4c0-1 .7-1.4 1.5-1.4c.6 0 1.1.1 1.4.5v-.7c0-.5-.5-.9-1.1-.9c-.5 0-.9.2-1.3.6l-.3-.5c.5-.5 1.1-.7 1.8-.7c.9 0 1.7.4 1.7 1.5v2.9h-.8v-.5zm0-1.2c-.3-.3-.7-.5-1.1-.5c-.6 0-1 .4-1 .9c0 .5.4.9 1 .9c.4 0 .8-.2 1.1-.5v-.8zm2.3 2.8c.3 0 .5-.1.6-.5c0 .03.3-.5.3-.5l-1.8-4.4h.8l1.4 3.4l1.3-3.4h.9l-2.1 5.1c-.3.7-.8 1-1.4 1c-.1 0-.4-.1-.5-.1l.1-.7c.1 0 .3.1.4.1zm3.8-3.3c0-1.2.9-2.2 2.2-2.2c1.4 0 2.2 1 2.2 2.2c0 1.3-.8 2.3-2.2 2.3c-1.3 0-2.2-1-2.2-2.3zm3.6 0c0-.8-.5-1.5-1.4-1.5c-.9 0-1.3.7-1.3 1.5c0 .9.4 1.6 1.3 1.6c.9 0 1.4-.7 1.4-1.6zm1.9-1.4h-.7v-.7h.7s.04-.32 0-.3c0-1 .6-1.5 1.4-1.5c.2 0 .5.1.7.2l-.2.6c-.1-.1-.3-.1-.4-.1c-.4 0-.6.3-.6.8c-.05-.02 0 .3 0 .3h.8v.7h-.8v3.6h-.9V3.5zm2.7 0h-.7v-.7h.7v-.3c0-1 .6-1.5 1.3-1.5c.3 0 .6.1.7.2l-.1.6c-.2-.1-.3-.1-.4-.1c-.4 0-.7.3-.7.8c.02-.02 0 .3 0 .3h.9v.7h-.9v3.6h-.8V3.5zm2.4 2.4c.3.4.9.7 1.4.7c.7 0 1-.3 1-.7c0-.4-.5-.5-1.1-.7c-.7-.1-1.6-.3-1.6-1.3c0-.7.6-1.2 1.7-1.2c.7 0 1.3.2 1.6.6l-.3.5c-.3-.3-.8-.5-1.3-.5c-.6 0-.9.2-.9.6c0 .4.5.5 1 .6c.8.2 1.7.4 1.7 1.4c0 .7-.7 1.3-1.8 1.3c-.7 0-1.4-.2-1.8-.7l.4-.6z" stroke="none" fill="#000"/></g><g id="Polygon103445"><path d="m1.8 42.2H.5v2.5h-.5v-6s2.24.01 2.2 0c1.1 0 1.9.7 1.9 1.8c0 1.1-.8 1.7-1.7 1.7l1.7 2.5h-.6l-1.7-2.5zm.4-3c0-.03-1.7 0-1.7 0v2.6s1.7-.04 1.7 0c.8 0 1.3-.6 1.3-1.3c0-.8-.5-1.3-1.3-1.3zm4.6 1.1c1.3 0 2.1 1 2.1 2.3c-.04-.04 0 .1 0 .1c0 0-3.67-.02-3.7 0c.1.9.7 1.7 1.7 1.7c.6 0 1.1-.2 1.5-.6l.2.3c-.4.5-1 .7-1.7.7c-1.3 0-2.2-.9-2.2-2.3c0-1.2.9-2.2 2.1-2.2zm-1.6 2h3.2c0-.7-.5-1.6-1.6-1.6c-1 0-1.5.9-1.6 1.6zm7.5 1.9c-.3.4-.8.6-1.4.6c-.8 0-1.6-.5-1.6-1.4c0-1 .8-1.5 1.6-1.5c.6 0 1.1.2 1.4.6v-.8c0-.7-.5-1-1.1-1c-.6 0-1 .2-1.4.6L10 41c.4-.5.9-.7 1.6-.7c.9 0 1.6.4 1.6 1.4v3h-.5s.04-.5 0-.5zm0-1.3c-.3-.4-.7-.6-1.3-.6c-.7 0-1.2.5-1.2 1.1c0 .6.5 1 1.2 1c.6 0 1-.1 1.3-.5v-1zm5.1 1.1c-.3.5-.9.8-1.5.8c-1.2 0-2-.9-2-2.3c0-1.3.8-2.2 2-2.2c.6 0 1.1.3 1.5.8c-.02-.04 0-2.4 0-2.4h.5v6h-.5s-.02-.68 0-.7zm0-2.5c-.3-.5-.8-.8-1.4-.8c-1 0-1.6.8-1.6 1.8c0 1.1.6 1.9 1.6 1.9c.6 0 1.1-.4 1.4-.8v-2.1zm9.2-2.1l-2.2 5.3h-.2l-2.2-5.3v5.3h-.5v-6h.8l2 5l2-5h.8v6h-.5v-5.3zm1.6 3.1c0-1.2.8-2.2 2.1-2.2c1.3 0 2.1 1 2.1 2.2c0 1.3-.8 2.3-2.1 2.3c-1.3 0-2.1-1-2.1-2.3zm3.7 0c0-.9-.6-1.8-1.6-1.8c-1 0-1.6.9-1.6 1.8c0 1 .6 1.9 1.6 1.9c1 0 1.6-.9 1.6-1.9zm1.6-2.1h.5v.7c.4-.5.9-.8 1.5-.8v.5h-.3c-.4 0-1 .4-1.2.7v3.2h-.5v-4.3zm4.6-.1c1.4 0 2.1 1 2.1 2.3v.1s-3.65-.02-3.6 0c0 .9.6 1.7 1.6 1.7c.6 0 1.1-.2 1.5-.6l.2.3c-.4.5-1 .7-1.7.7c-1.3 0-2.2-.9-2.2-2.3c0-1.2.9-2.2 2.1-2.2zm-1.5 2h3.1c0-.7-.5-1.6-1.6-1.6c-1 0-1.5.9-1.5 1.6zm6.5 1.2l3.5-1.8l-3.5-1.8v-.4l3.9 2v.4l-3.9 2v-.4z" stroke="none" fill="#3797ef"/></g></svg>