<?xml version="1.0" standalone="no"?><!DOCTYPE svg PUBLIC "-//W3C//DTD SVG 1.1//EN" "http://www.w3.org/Graphics/SVG/1.1/DTD/svg11.dtd"><svg xmlns="http://www.w3.org/2000/svg" xmlns:xlink="http://www.w3.org/1999/xlink" version="1.1" width="188.3px" height="35.3px" viewBox="0 -7 188.3 35.3" style="top:-7px"><desc/><defs/><g id="Polygon71519"><path d="m20.5 6.9l6.9-3.6v.8l-6.1 3.1l6.1 3.1v.8l-6.9-3.6v-.6zm7.8 0l7-3.6v.8l-6.1 3.1l6.1 3.1v.8l-7-3.6v-.6zM42 1.8c1.8 0 3.1.7 4 1.8l-.6.5c-.8-.9-2-1.5-3.4-1.5c-2.4 0-4.4 1.9-4.4 4.7c0 2.7 2 4.6 4.4 4.6c1.5 0 2.6-.7 3.2-1.3c-.04.04 0-2.5 0-2.5h-4.1v-.8h5s-.03 3.69 0 3.7c-1 1-2.4 1.8-4.1 1.8c-2.9 0-5.3-2.3-5.3-5.5c0-3.3 2.4-5.5 5.3-5.5zm6.3 3.1h.9s-.04 1.29 0 1.3c.6-.9 1.5-1.5 2.6-1.5v.9h-.5c-.7 0-1.8.7-2.1 1.4c-.04-.05 0 5.5 0 5.5h-.9V4.9zm4.6 3.8c0-2.2 1.5-4 3.7-4c2.3 0 3.7 1.8 3.7 4c0 2.2-1.4 4-3.7 4c-2.2 0-3.7-1.8-3.7-4zm6.5 0c0-1.7-1-3.3-2.8-3.3c-1.8 0-2.8 1.6-2.8 3.3c0 1.7 1 3.3 2.8 3.3c1.8 0 2.8-1.6 2.8-3.3zM66.9 6l-2.2 6.5h-.8l-2.5-7.6h.9l2 6.5l2.2-6.5h.7l2.2 6.5l2-6.5h.9l-2.5 7.6h-.8L66.9 6zm7.1 5.1c.02-.03 0-5.5 0-5.5h-1.3v-.7h1.3V2.8h.9v2.1h1.5v.7h-1.5s-.04 5.34 0 5.3c0 .7.2 1.1.8 1.1c.3 0 .6-.2.8-.4l.3.7c-.3.2-.6.4-1.3.4c-1 0-1.5-.6-1.5-1.6zm9.4-3.8c0-1.5-.7-1.9-1.9-1.9c-.9 0-2 .7-2.5 1.3c.05.05 0 5.8 0 5.8h-.8V2h.8s.05 4.03 0 4c.6-.6 1.7-1.3 2.8-1.3c1.6 0 2.4.7 2.4 2.4c.03.04 0 5.4 0 5.4h-.8V7.3zm7.1 4.5c3.6-2.9 6-5 6-7c0-1.5-1.2-2.2-2.4-2.2c-1.3 0-2.3.6-2.9 1.4l-.6-.6c.7-1 2-1.6 3.5-1.6c1.6 0 3.4.9 3.4 3c0 2.3-2.5 4.4-5.6 6.9c.03.02 5.6 0 5.6 0v.8h-7s.02-.7 0-.7zm13.2-10c2.8 0 3.9 2.9 3.9 5.5c0 2.5-1.1 5.4-3.9 5.4c-2.8 0-3.9-2.9-3.9-5.4c0-2.6 1.1-5.5 3.9-5.5zm0 .8c-2.2 0-3 2.5-3 4.7c0 2.1.8 4.6 3 4.6c2.2 0 2.9-2.5 2.9-4.6c0-2.2-.7-4.7-2.9-4.7zm7.5.6L109.5 5l-.6-.6l2.4-2.4h.8v10.5h-.9V3.2zm5.8 3.9c-1.3-.3-2.5-1.2-2.5-2.6c0-1.8 1.8-2.7 3.5-2.7c1.6 0 3.4.9 3.4 2.7c0 1.4-1.2 2.3-2.5 2.6c1.4.4 2.6 1.3 2.6 2.8c0 1.7-1.5 2.8-3.5 2.8c-2.1 0-3.6-1.1-3.6-2.8c0-1.5 1.2-2.4 2.6-2.8zm1-4.5c-1.4 0-2.6.8-2.6 2c0 1.5 1.9 2 2.6 2.1c.6-.1 2.5-.6 2.5-2.1c0-1.2-1.2-2-2.5-2zm0 4.9c-.7.1-2.7.7-2.7 2.3c0 1.3 1.2 2.1 2.7 2.1c1.3 0 2.6-.8 2.6-2.1c0-1.6-2-2.2-2.6-2.3zm9.1.8h3.8v.8h-3.8v-.8zm9.3 3.5c3.6-2.9 6-5 6-7c0-1.5-1.3-2.2-2.4-2.2c-1.4 0-2.4.6-2.9 1.4l-.7-.6c.8-1 2.1-1.6 3.6-1.6c1.5 0 3.3.9 3.3 3c0 2.3-2.5 4.4-5.5 6.9c-.03.02 5.5 0 5.5 0v.8h-6.9s-.04-.7 0-.7zm13.2-10c2.8 0 3.9 2.9 3.9 5.5c0 2.5-1.1 5.4-3.9 5.4c-2.9 0-4-2.9-4-5.4c0-2.6 1.1-5.5 4-5.5zm0 .8c-2.3 0-3 2.5-3 4.7c0 2.1.7 4.6 3 4.6c2.2 0 2.9-2.5 2.9-4.6c0-2.2-.7-4.7-2.9-4.7zm5.7 9.2c3.6-2.9 6-5 6-7c0-1.5-1.3-2.2-2.4-2.2c-1.4 0-2.4.6-2.9 1.4l-.7-.6c.8-1 2.1-1.6 3.6-1.6c1.5 0 3.3.9 3.3 3c0 2.3-2.5 4.4-5.5 6.9c-.03.02 5.5 0 5.5 0v.8h-6.9s-.04-.7 0-.7zm9.4-1.4c.6.9 1.7 1.5 3 1.5c1.6 0 2.7-.8 2.7-2.2c0-1.6-1.3-2.2-2.9-2.2h-1v-.8h1c1.4 0 2.7-.6 2.7-2c0-1.4-1.2-2.1-2.5-2.1c-1.2 0-2.1.5-2.9 1.4l-.5-.6c.7-.9 1.9-1.6 3.4-1.6c1.9 0 3.4 1 3.4 2.8c0 1.6-1.3 2.3-2.2 2.5c.9.1 2.4.9 2.4 2.6c0 1.8-1.3 3-3.6 3c-1.7 0-3-.8-3.6-1.7l.6-.6zm12.4-1.7c0-2.6.7-5 2.1-7l.5.3c-1 2.1-1.7 3.9-1.7 6.7c0 2.7.7 4.6 1.7 6.6l-.5.4c-1.4-2.1-2.1-4.5-2.1-7zm4.6 1.7c.7 1 1.6 1.5 3 1.5c1.5 0 2.7-1.1 2.7-2.5c0-1.7-1.1-2.6-2.7-2.6c-.9 0-1.8.3-2.5 1c-.05 0-.7-.3-.7-.3V2h6.1v.8h-5.2s-.02 4.12 0 4.1c.5-.5 1.4-1 2.5-1c1.8 0 3.4 1.2 3.4 3.4c0 2.1-1.6 3.4-3.6 3.4c-1.8 0-2.8-.6-3.6-1.7l.6-.6z" stroke="none" fill="#000"/><a xlink:href="DBF_Growth%202018%20-%202023%20(5%20Mile)1" xlink:show="new" xlink:title="&lt;&lt;Growth 2018 - 2023 (5 Mile)1&gt;&gt;"><rect style="fill:transparent;" x="19" y="1" width="169" height="15"/></a></g></svg>