<?xml version="1.0" standalone="no"?><!DOCTYPE svg PUBLIC "-//W3C//DTD SVG 1.1//EN" "http://www.w3.org/Graphics/SVG/1.1/DTD/svg11.dtd"><svg xmlns="http://www.w3.org/2000/svg" version="1.1" width="159px" height="28.3px" viewBox="0 -6 159 28.3" style="top:-6px"><desc>Number of Employees</desc><defs/><g id="Polygon104852"><path d="m2.8 4.4v8.1H1.2V2h1.6l5.8 7.9V2h1.6v10.5H8.6L2.8 4.4zm14.7 7.1c-.6.6-1.6 1.2-2.7 1.2c-1.7 0-2.5-.8-2.5-2.4c.02-.01 0-5.4 0-5.4h1.5s-.05 4.91 0 4.9c0 1.3.6 1.7 1.6 1.7c.9 0 1.7-.5 2.1-1.1V4.9h1.4v7.6h-1.4v-1zm12.9-4.1C30.4 6.5 30 6 29 6c-.8 0-1.5.5-1.9 1c.02.05 0 5.5 0 5.5h-1.4V7.4c0-.9-.4-1.4-1.4-1.4c-.7 0-1.4.5-1.8 1.1c-.03-.03 0 5.4 0 5.4H21V4.9h1.5s-.03 1.05 0 1.1c.3-.5 1.3-1.3 2.4-1.3c1.2 0 1.9.6 2.1 1.4c.5-.7 1.5-1.4 2.6-1.4c1.4 0 2.2.8 2.2 2.3v5.5h-1.4s-.04-5.07 0-5.1zM33.9 2h1.4s.03 3.99 0 4c.6-.8 1.5-1.3 2.5-1.3c2 0 3.5 1.6 3.5 4c0 2.5-1.5 4-3.5 4c-1 0-1.9-.5-2.5-1.2c.03-.05 0 1 0 1h-1.4V2zm3.6 9.5c1.4 0 2.3-1.2 2.3-2.8c0-1.6-.9-2.7-2.3-2.7c-.9 0-1.8.5-2.2 1.1v3.3c.4.6 1.3 1.1 2.2 1.1zm8.8-6.8c2.3 0 3.7 1.8 3.7 4.1c.02.03 0 .4 0 .4c0 0-6.05-.02-6 0c.1 1.3 1 2.4 2.6 2.4c.8 0 1.7-.4 2.2-.9l.7.9c-.8.7-1.8 1.1-3.1 1.1c-2.3 0-4-1.6-4-4c0-2.2 1.6-4 3.9-4zm-2.4 3.4h4.7c0-1-.7-2.2-2.3-2.2c-1.6 0-2.3 1.2-2.4 2.2zm7.8-3.2h1.4s-.01 1.15 0 1.1c.6-.7 1.5-1.3 2.5-1.3v1.4h-.5c-.7 0-1.7.5-2 1.1v5.3h-1.4V4.9zm8.6 3.8c0-2.2 1.5-4 3.9-4c2.4 0 3.9 1.8 3.9 4c0 2.2-1.5 4-3.9 4c-2.4 0-3.9-1.8-3.9-4zm6.3 0c0-1.4-.9-2.7-2.4-2.7c-1.5 0-2.4 1.3-2.4 2.7c0 1.5.9 2.8 2.4 2.8c1.5 0 2.4-1.3 2.4-2.8zm3.5-2.6h-1.3V4.9h1.3s-.02-.53 0-.5c0-1.7.9-2.6 2.3-2.6c.5 0 .9.1 1.3.3l-.4 1c-.2-.1-.4-.1-.7-.1c-.7 0-1.1.4-1.1 1.4v.5h1.6v1.2h-1.6v6.4h-1.4V6.1zM78.2 2h7.2v1.3h-5.6v3.1h5.4v1.4h-5.4v3.3h5.6v1.4h-7.2V2zm18.3 5.4c0-.9-.4-1.4-1.4-1.4c-.7 0-1.5.5-1.9 1c.03.05 0 5.5 0 5.5h-1.4V7.4c0-.9-.4-1.4-1.3-1.4c-.8 0-1.5.5-1.9 1.1c-.02-.03 0 5.4 0 5.4h-1.5V4.9h1.5s-.02 1.05 0 1.1c.3-.5 1.3-1.3 2.5-1.3c1.1 0 1.8.6 2 1.4c.5-.7 1.5-1.4 2.6-1.4c1.4 0 2.2.8 2.2 2.3v5.5h-1.4s-.03-5.07 0-5.1zm3.5 8.1V4.9h1.4s.04 1.07 0 1.1c.6-.8 1.5-1.3 2.5-1.3c2.1 0 3.5 1.5 3.5 4c0 2.5-1.4 4-3.5 4c-1 0-1.8-.4-2.5-1.3c.04.03 0 4.1 0 4.1H100zm3.6-9.5c-.9 0-1.8.5-2.2 1.1v3.2c.4.6 1.3 1.2 2.2 1.2c1.4 0 2.3-1.2 2.3-2.8c0-1.6-.9-2.7-2.3-2.7zm5.4-4h1.4v10.5H109V2zm3.1 6.7c0-2.2 1.5-4 3.9-4c2.4 0 3.8 1.8 3.8 4c0 2.2-1.4 4-3.8 4c-2.4 0-3.9-1.8-3.9-4zm6.2 0c0-1.4-.8-2.7-2.3-2.7c-1.6 0-2.4 1.3-2.4 2.7c0 1.5.8 2.8 2.4 2.8c1.5 0 2.3-1.3 2.3-2.8zm3.7 5.7c.5 0 .8-.2 1.1-.8c-.03.04.4-1 .4-1l-3.1-7.7h1.5l2.4 6l2.4-6h1.5s-3.77 9.11-3.8 9.1c-.5 1.2-1.3 1.6-2.4 1.7c-.2 0-.7-.1-.9-.2l.2-1.2c.2 0 .5.1.7.1zm10.6-9.7c2.3 0 3.7 1.8 3.7 4.1v.4s-6.06-.02-6.1 0c.2 1.3 1.1 2.4 2.7 2.4c.8 0 1.7-.4 2.2-.9l.7.9c-.8.7-1.9 1.1-3.1 1.1c-2.3 0-4-1.6-4-4c0-2.2 1.6-4 3.9-4zm-2.4 3.4h4.7c0-1-.7-2.2-2.3-2.2c-1.6 0-2.3 1.2-2.4 2.2zm11.1-3.4c2.3 0 3.7 1.8 3.7 4.1c.04.03 0 .4 0 .4c0 0-6.02-.02-6 0c.1 1.3 1 2.4 2.6 2.4c.8 0 1.7-.4 2.3-.9l.6.9c-.7.7-1.8 1.1-3.1 1.1c-2.2 0-3.9-1.6-3.9-4c0-2.2 1.6-4 3.8-4zM139 8.1h4.6c0-1-.7-2.2-2.3-2.2c-1.5 0-2.3 1.2-2.3 2.2zm7.7 2.4c.5.6 1.5 1.1 2.6 1.1c1.1 0 1.6-.5 1.6-1.1c0-.8-.9-1-1.8-1.2c-1.3-.3-2.9-.7-2.9-2.3c0-1.3 1.1-2.3 3-2.3c1.3 0 2.2.5 2.9 1.1l-.7 1c-.4-.6-1.3-1-2.2-1c-1 0-1.6.4-1.6 1c0 .7.8.9 1.8 1.2c1.3.3 2.9.6 2.9 2.4c0 1.3-1.1 2.3-3.1 2.3c-1.3 0-2.4-.4-3.2-1.2l.7-1z" stroke="none" fill="#3797ef"/></g></svg>