<?xml version="1.0" standalone="no"?><!DOCTYPE svg PUBLIC "-//W3C//DTD SVG 1.1//EN" "http://www.w3.org/Graphics/SVG/1.1/DTD/svg11.dtd"><svg xmlns="http://www.w3.org/2000/svg" version="1.1" width="22px" height="41.3px" viewBox="0 -8 22 41.3" style="top:-8px"><desc>02</desc><defs/><g id="Polygon68863"><path d="m10.4 5.3v10.1c0 2.5-1.6 3.5-4.1 3.5h-.2c-2.5 0-4-1-4-3.5V5.3c0-2.6 1.5-3.6 4-3.6h.2c2.5 0 4.1 1 4.1 3.6zM6.2 4.2c-.9 0-1.4.3-1.4 1.5v9.2c0 1.2.5 1.6 1.4 1.6c.9 0 1.5-.4 1.5-1.6V5.7c0-1.2-.6-1.5-1.5-1.5zm6.1 1c0-2.5 1.4-3.5 4-3.5c2.5 0 3.9 1 3.9 3.5v2c0 2.1-1.4 3-2.9 4.5c-1.4 1.4-2.3 2.3-2.3 3.2c-.04-.02 0 1.5 0 1.5h5.2v2.3h-7.9s-.03-3.87 0-3.9c0-2.1 1.7-3.5 3.4-5.1C17 8.5 17.6 8 17.6 7.1V5.5c0-1.2-.6-1.5-1.4-1.5c-.7 0-1.2.3-1.2 1.5c-.04-.03 0 2.4 0 2.4h-2.7s.02-2.72 0-2.7z" stroke="none" fill="#fff"/></g></svg>