<?xml version="1.0" standalone="no"?><!DOCTYPE svg PUBLIC "-//W3C//DTD SVG 1.1//EN" "http://www.w3.org/Graphics/SVG/1.1/DTD/svg11.dtd"><svg xmlns="http://www.w3.org/2000/svg" version="1.1" width="115px" height="28.3px" viewBox="0 -6 115 28.3" style="top:-6px"><desc>Average Income</desc><defs/><g id="Polygon73165"><path d="m7.9 10.4H2.7l-.9 2.1H.1L4.3 2h2l4.2 10.5H8.7l-.8-2.1zM3.1 8.9h4.3L5.3 3.3l-2.2 5.6zm7.2-4h1.5l2.4 6l2.4-6h1.5L15 12.5h-1.6l-3.1-7.6zm12.4-.2c2.3 0 3.7 1.8 3.7 4.1v.4s-6.07-.02-6.1 0c.1 1.3 1.1 2.4 2.6 2.4c.8 0 1.7-.4 2.3-.9l.7.9c-.8.7-1.9 1.1-3.1 1.1c-2.3 0-4-1.6-4-4c0-2.2 1.6-4 3.9-4zm-2.4 3.4h4.7c0-1-.7-2.2-2.3-2.2c-1.6 0-2.3 1.2-2.4 2.2zm7.9-3.2h1.4s.02 1.15 0 1.1c.6-.7 1.5-1.3 2.5-1.3v1.4h-.5c-.7 0-1.7.5-2 1.1c.02.01 0 5.3 0 5.3h-1.4V4.9zm10.1 6.8c-.6.7-1.5 1-2.5 1c-1.3 0-2.7-.8-2.7-2.5c0-1.8 1.4-2.5 2.7-2.5c1 0 1.9.3 2.5 1V7.4c0-.9-.8-1.5-1.9-1.5c-.9 0-1.6.3-2.3 1l-.6-1c.8-.8 1.9-1.2 3.1-1.2c1.7 0 3.1.7 3.1 2.7v5.1h-1.4v-.8zm0-2.1c-.4-.6-1.2-.9-2-.9c-1 0-1.7.6-1.7 1.5c0 .9.7 1.5 1.7 1.5c.8 0 1.6-.3 2-.8V9.6zm4.3 3.9c.7.7 1.4 1 2.5 1c1.2 0 2.4-.6 2.4-2.2v-1c-.6.8-1.5 1.3-2.6 1.3c-1.9 0-3.4-1.5-3.4-4c0-2.4 1.5-3.9 3.4-3.9c1 0 1.9.5 2.6 1.3c-.03-.01 0-1.1 0-1.1h1.4v7.3c0 2.7-1.9 3.5-3.8 3.5c-1.3 0-2.2-.3-3.2-1.2l.7-1zm4.9-6.4c-.4-.6-1.3-1.1-2.2-1.1C43.9 6 43 7.1 43 8.6c0 1.6.9 2.7 2.3 2.7c.9 0 1.8-.5 2.2-1.1V7.1zm7-2.4c2.3 0 3.8 1.8 3.8 4.1c-.04.03 0 .4 0 .4c0 0-6.1-.02-6.1 0c.1 1.3 1.1 2.4 2.6 2.4c.8 0 1.7-.4 2.3-.9l.6.9c-.7.7-1.8 1.1-3 1.1c-2.3 0-4-1.6-4-4c0-2.2 1.6-4 3.8-4zm-2.3 3.4h4.7c-.1-1-.7-2.2-2.4-2.2c-1.5 0-2.2 1.2-2.3 2.2zm12-6.1h1.6v10.5h-1.6V2zm9.1 5.6c0-1.2-.7-1.6-1.6-1.6c-.9 0-1.7.5-2.2 1.1c.04-.03 0 5.4 0 5.4h-1.4V4.9h1.4s.04 1.05 0 1.1c.5-.7 1.6-1.3 2.8-1.3c1.6 0 2.4.8 2.4 2.5v5.3h-1.4V7.6zm7.1-2.9c1.5 0 2.3.6 2.9 1.3l-1 .9c-.4-.6-1-.9-1.8-.9C79 6 78 7.1 78 8.7c0 1.6 1 2.8 2.5 2.8c.8 0 1.4-.4 1.8-1l1 .9c-.6.7-1.4 1.3-2.9 1.3c-2.3 0-3.9-1.7-3.9-4c0-2.3 1.6-4 3.9-4zm4 4c0-2.2 1.5-4 3.9-4c2.4 0 3.8 1.8 3.8 4c0 2.2-1.4 4-3.8 4c-2.4 0-3.9-1.8-3.9-4zm6.2 0c0-1.4-.8-2.7-2.3-2.7c-1.6 0-2.4 1.3-2.4 2.7c0 1.5.8 2.8 2.4 2.8c1.5 0 2.3-1.3 2.3-2.8zm12.7-1.3c0-.9-.4-1.4-1.4-1.4c-.7 0-1.5.5-1.9 1c.03.05 0 5.5 0 5.5h-1.4V7.4c0-.9-.4-1.4-1.4-1.4c-.7 0-1.4.5-1.8 1.1c-.03-.03 0 5.4 0 5.4h-1.5V4.9h1.5s-.03 1.05 0 1.1c.3-.5 1.3-1.3 2.5-1.3c1.1 0 1.8.6 2 1.4c.5-.7 1.5-1.4 2.6-1.4c1.4 0 2.2.8 2.2 2.3v5.5h-1.4s-.03-5.07 0-5.1zm7-2.7c2.3 0 3.8 1.8 3.8 4.1c-.04.03 0 .4 0 .4c0 0-6.1-.02-6.1 0c.1 1.3 1.1 2.4 2.6 2.4c.8 0 1.7-.4 2.3-.9l.6.9c-.7.7-1.8 1.1-3 1.1c-2.3 0-4-1.6-4-4c0-2.2 1.6-4 3.8-4zM108 8.1h4.7c-.1-1-.7-2.2-2.4-2.2c-1.5 0-2.2 1.2-2.3 2.2z" stroke="none" fill="#000"/></g></svg>