<?xml version="1.0" standalone="no"?>
<!DOCTYPE svg PUBLIC "-//W3C//DTD SVG 1.1//EN" "http://www.w3.org/Graphics/SVG/1.1/DTD/svg11.dtd">
<svg xmlns="http://www.w3.org/2000/svg" version="1.1" width="158px" height="27.9px" viewBox="0 -6 158 27.9" style="top:-6px">
  <desc>Lease Guarantor</desc>
  <defs/>
  <g id="Polygon276260">
    <path d="M 1.2 2 L 2.8 2 L 2.8 11.2 L 7.6 11.2 L 7.6 12.5 L 1.2 12.5 L 1.2 2 Z M 12.4 4.7 C 14.7 4.7 16.1 6.5 16.1 8.8 C 16.1 8.83 16.1 9.2 16.1 9.2 C 16.1 9.2 10.04 9.18 10 9.2 C 10.1 10.5 11.1 11.6 12.6 11.6 C 13.5 11.6 14.3 11.2 14.9 10.7 C 14.9 10.7 15.6 11.6 15.6 11.6 C 14.8 12.3 13.7 12.7 12.5 12.7 C 10.2 12.7 8.5 11.1 8.5 8.7 C 8.5 6.5 10.1 4.7 12.4 4.7 Z M 10 8.1 C 10 8.1 14.7 8.1 14.7 8.1 C 14.7 7.1 14 5.9 12.4 5.9 C 10.8 5.9 10.1 7.1 10 8.1 Z M 22.6 11.7 C 22 12.4 21.2 12.7 20.1 12.7 C 18.9 12.7 17.5 11.9 17.5 10.2 C 17.5 8.4 18.8 7.7 20.1 7.7 C 21.2 7.7 22 8 22.6 8.7 C 22.6 8.7 22.6 7.4 22.6 7.4 C 22.6 6.5 21.9 5.9 20.8 5.9 C 19.9 5.9 19.1 6.2 18.5 6.9 C 18.5 6.9 17.8 5.9 17.8 5.9 C 18.7 5.1 19.7 4.7 21 4.7 C 22.6 4.7 24.1 5.4 24.1 7.4 C 24.06 7.37 24.1 12.5 24.1 12.5 L 22.6 12.5 C 22.6 12.5 22.63 11.71 22.6 11.7 Z M 22.6 9.6 C 22.2 9 21.5 8.7 20.7 8.7 C 19.6 8.7 18.9 9.3 18.9 10.2 C 18.9 11.1 19.6 11.7 20.7 11.7 C 21.5 11.7 22.2 11.4 22.6 10.9 C 22.6 10.9 22.6 9.6 22.6 9.6 Z M 26.4 10.5 C 26.9 11.1 27.9 11.6 28.9 11.6 C 30 11.6 30.6 11.2 30.6 10.5 C 30.6 9.7 29.7 9.5 28.7 9.3 C 27.4 9 25.9 8.6 25.9 7 C 25.9 5.7 27 4.7 28.8 4.7 C 30.1 4.7 31.1 5.2 31.7 5.8 C 31.7 5.8 31.1 6.8 31.1 6.8 C 30.7 6.2 29.8 5.8 28.8 5.8 C 27.9 5.8 27.3 6.2 27.3 6.8 C 27.3 7.5 28.1 7.7 29 8 C 30.4 8.3 32 8.6 32 10.4 C 32 11.7 30.9 12.7 28.9 12.7 C 27.6 12.7 26.5 12.3 25.7 11.5 C 25.7 11.5 26.4 10.5 26.4 10.5 Z M 37.1 4.7 C 39.5 4.7 40.9 6.5 40.9 8.8 C 40.88 8.83 40.9 9.2 40.9 9.2 C 40.9 9.2 34.81 9.18 34.8 9.2 C 34.9 10.5 35.9 11.6 37.4 11.6 C 38.2 11.6 39.1 11.2 39.7 10.7 C 39.7 10.7 40.4 11.6 40.4 11.6 C 39.6 12.3 38.5 12.7 37.3 12.7 C 35 12.7 33.3 11.1 33.3 8.7 C 33.3 6.5 34.9 4.7 37.1 4.7 Z M 34.8 8.1 C 34.8 8.1 39.5 8.1 39.5 8.1 C 39.5 7.1 38.8 5.9 37.1 5.9 C 35.6 5.9 34.9 7.1 34.8 8.1 Z M 51.9 1.8 C 53.8 1.8 55.2 2.7 56 3.9 C 56 3.9 54.8 4.6 54.8 4.6 C 54.2 3.8 53.1 3.2 51.9 3.2 C 49.6 3.2 48 4.9 48 7.3 C 48 9.6 49.6 11.3 51.9 11.3 C 53 11.3 54 10.8 54.5 10.3 C 54.54 10.29 54.5 8.4 54.5 8.4 L 51.1 8.4 L 51.1 7 L 56.1 7 C 56.1 7 56.13 10.88 56.1 10.9 C 55.1 12 53.7 12.8 51.9 12.8 C 48.8 12.8 46.4 10.6 46.4 7.3 C 46.4 4 48.8 1.8 51.9 1.8 Z M 63.3 11.5 C 62.7 12.1 61.8 12.7 60.6 12.7 C 58.9 12.7 58.1 11.9 58.1 10.3 C 58.13 10.29 58.1 4.9 58.1 4.9 L 59.6 4.9 C 59.6 4.9 59.56 9.82 59.6 9.8 C 59.6 11.1 60.2 11.5 61.2 11.5 C 62.1 11.5 62.9 11 63.3 10.4 C 63.31 10.39 63.3 4.9 63.3 4.9 L 64.7 4.9 L 64.7 12.5 L 63.3 12.5 C 63.3 12.5 63.31 11.5 63.3 11.5 Z M 71.7 11.7 C 71.1 12.4 70.3 12.7 69.2 12.7 C 68 12.7 66.6 11.9 66.6 10.2 C 66.6 8.4 67.9 7.7 69.2 7.7 C 70.3 7.7 71.2 8 71.7 8.7 C 71.7 8.7 71.7 7.4 71.7 7.4 C 71.7 6.5 71 5.9 69.9 5.9 C 69 5.9 68.2 6.2 67.6 6.9 C 67.6 6.9 66.9 5.9 66.9 5.9 C 67.8 5.1 68.8 4.7 70.1 4.7 C 71.8 4.7 73.2 5.4 73.2 7.4 C 73.17 7.37 73.2 12.5 73.2 12.5 L 71.7 12.5 C 71.7 12.5 71.74 11.71 71.7 11.7 Z M 71.7 9.6 C 71.3 9 70.6 8.7 69.8 8.7 C 68.7 8.7 68 9.3 68 10.2 C 68 11.1 68.7 11.7 69.8 11.7 C 70.6 11.7 71.3 11.4 71.7 10.9 C 71.7 10.9 71.7 9.6 71.7 9.6 Z M 75.5 4.9 L 76.9 4.9 C 76.9 4.9 76.88 6.05 76.9 6.1 C 77.5 5.3 78.4 4.7 79.4 4.7 C 79.4 4.7 79.4 6.1 79.4 6.1 C 79.3 6.1 79.1 6.1 78.9 6.1 C 78.2 6.1 77.2 6.6 76.9 7.2 C 76.88 7.21 76.9 12.5 76.9 12.5 L 75.5 12.5 L 75.5 4.9 Z M 85.6 11.7 C 85 12.4 84.1 12.7 83 12.7 C 81.8 12.7 80.4 11.9 80.4 10.2 C 80.4 8.4 81.8 7.7 83 7.7 C 84.1 7.7 85 8 85.6 8.7 C 85.6 8.7 85.6 7.4 85.6 7.4 C 85.6 6.5 84.8 5.9 83.7 5.9 C 82.8 5.9 82.1 6.2 81.4 6.9 C 81.4 6.9 80.8 5.9 80.8 5.9 C 81.6 5.1 82.7 4.7 83.9 4.7 C 85.6 4.7 87 5.4 87 7.4 C 86.99 7.37 87 12.5 87 12.5 L 85.6 12.5 C 85.6 12.5 85.56 11.71 85.6 11.7 Z M 85.6 9.6 C 85.1 9 84.4 8.7 83.6 8.7 C 82.6 8.7 81.8 9.3 81.8 10.2 C 81.8 11.1 82.6 11.7 83.6 11.7 C 84.4 11.7 85.1 11.4 85.6 10.9 C 85.6 10.9 85.6 9.6 85.6 9.6 Z M 94.5 7.6 C 94.5 6.4 93.8 6 92.8 6 C 91.9 6 91.1 6.5 90.7 7.1 C 90.7 7.07 90.7 12.5 90.7 12.5 L 89.3 12.5 L 89.3 4.9 L 90.7 4.9 C 90.7 4.9 90.7 5.95 90.7 6 C 91.2 5.3 92.2 4.7 93.4 4.7 C 95 4.7 95.9 5.5 95.9 7.2 C 95.88 7.16 95.9 12.5 95.9 12.5 L 94.5 12.5 C 94.5 12.5 94.45 7.64 94.5 7.6 Z M 98.4 10.8 C 98.44 10.85 98.4 6.1 98.4 6.1 L 97.2 6.1 L 97.2 4.9 L 98.4 4.9 L 98.4 2.8 L 99.9 2.8 L 99.9 4.9 L 101.4 4.9 L 101.4 6.1 L 99.9 6.1 C 99.9 6.1 99.87 10.53 99.9 10.5 C 99.9 11.1 100.1 11.5 100.6 11.5 C 100.9 11.5 101.2 11.3 101.4 11.2 C 101.4 11.2 101.8 12.2 101.8 12.2 C 101.5 12.5 101 12.7 100.3 12.7 C 99.1 12.7 98.4 12.1 98.4 10.8 Z M 102.5 8.7 C 102.5 6.5 104 4.7 106.4 4.7 C 108.8 4.7 110.3 6.5 110.3 8.7 C 110.3 10.9 108.8 12.7 106.4 12.7 C 104 12.7 102.5 10.9 102.5 8.7 Z M 108.8 8.7 C 108.8 7.3 108 6 106.4 6 C 104.9 6 104 7.3 104 8.7 C 104 10.2 104.9 11.5 106.4 11.5 C 108 11.5 108.8 10.2 108.8 8.7 Z M 112.1 4.9 L 113.5 4.9 C 113.5 4.9 113.52 6.05 113.5 6.1 C 114.1 5.3 115 4.7 116 4.7 C 116 4.7 116 6.1 116 6.1 C 115.9 6.1 115.7 6.1 115.5 6.1 C 114.8 6.1 113.9 6.6 113.5 7.2 C 113.52 7.21 113.5 12.5 113.5 12.5 L 112.1 12.5 L 112.1 4.9 Z " stroke="none" fill="#000"/>
  </g>
</svg>