<?xml version="1.0" standalone="no"?>
<!DOCTYPE svg PUBLIC "-//W3C//DTD SVG 1.1//EN" "http://www.w3.org/Graphics/SVG/1.1/DTD/svg11.dtd">
<svg xmlns="http://www.w3.org/2000/svg" version="1.1" width="106.4px" height="46.5px" viewBox="0 -10 106.4 46.5" style="top:-10px">
  <desc>Agent 1</desc>
  <defs/>
  <g id="Polygon269878">
    <path d="M 10.8 15.3 C 10.8 15.3 10.8 18.1 10.8 18.1 C 10.8 20.6 9.5 21.8 7.4 22.1 C 7.4 22.14 7.4 24.2 7.4 24.2 L 4.5 24.2 C 4.5 24.2 4.49 22.16 4.5 22.2 C 2.3 21.9 1 20.7 1 18.1 C 1.02 18.13 1 14.7 1 14.7 L 4.2 14.7 C 4.2 14.7 4.24 17.68 4.2 17.7 C 4.2 18.9 4.9 19.4 5.9 19.4 C 6.9 19.4 7.6 18.9 7.6 17.7 C 7.6 17.7 7.6 16.1 7.6 16.1 C 7.6 15.1 7.3 14.6 6.3 14.1 C 6.3 14.1 4 12.8 4 12.8 C 2.1 11.7 1 10.8 1 8.7 C 1 8.7 1 6.1 1 6.1 C 1 3.7 2.5 2.5 4.5 2.1 C 4.49 2.15 4.5 0.1 4.5 0.1 L 7.4 0.1 C 7.4 0.1 7.4 2.15 7.4 2.1 C 9.4 2.5 10.8 3.7 10.8 6.1 C 10.79 6.1 10.8 9.3 10.8 9.3 L 7.6 9.3 C 7.6 9.3 7.57 6.55 7.6 6.6 C 7.6 5.3 6.9 4.9 5.9 4.9 C 4.9 4.9 4.2 5.3 4.2 6.6 C 4.2 6.6 4.2 7.9 4.2 7.9 C 4.2 8.9 4.6 9.4 5.5 9.9 C 5.5 9.9 7.8 11.2 7.8 11.2 C 9.7 12.3 10.8 13.2 10.8 15.3 Z M 22.5 6.2 C 22.5 6.2 22.5 18.1 22.5 18.1 C 22.5 21.1 20.8 22.2 17.8 22.2 C 17.8 22.2 17.6 22.2 17.6 22.2 C 14.6 22.2 12.8 21.1 12.8 18.1 C 12.8 18.1 12.8 6.2 12.8 6.2 C 12.8 3.2 14.6 2 17.6 2 C 17.6 2 17.8 2 17.8 2 C 20.8 2 22.5 3.2 22.5 6.2 Z M 17.7 4.9 C 16.6 4.9 16 5.3 16 6.7 C 16 6.7 16 17.6 16 17.6 C 16 19 16.6 19.4 17.7 19.4 C 18.7 19.4 19.4 19 19.4 17.6 C 19.4 17.6 19.4 6.7 19.4 6.7 C 19.4 5.3 18.7 4.9 17.7 4.9 Z M 27.9 21.2 C 27.9 23 27 24.6 26.1 25.8 C 26.1 25.8 24.8 25.1 24.8 25.1 C 25.5 24.2 26 23 26.2 22 C 26.17 22.02 24.7 22 24.7 22 L 24.7 18.4 L 27.9 18.4 C 27.9 18.4 27.9 21.18 27.9 21.2 Z M 39.8 6.2 C 39.8 6.2 39.8 18.1 39.8 18.1 C 39.8 21.1 38 22.2 35 22.2 C 35 22.2 34.8 22.2 34.8 22.2 C 31.8 22.2 30 21.1 30 18.1 C 30 18.1 30 6.2 30 6.2 C 30 3.2 31.8 2 34.8 2 C 34.8 2 35 2 35 2 C 38 2 39.8 3.2 39.8 6.2 Z M 34.9 4.9 C 33.9 4.9 33.2 5.3 33.2 6.7 C 33.2 6.7 33.2 17.6 33.2 17.6 C 33.2 19 33.9 19.4 34.9 19.4 C 35.9 19.4 36.6 19 36.6 17.6 C 36.6 17.6 36.6 6.7 36.6 6.7 C 36.6 5.3 35.9 4.9 34.9 4.9 Z M 51.8 6.2 C 51.8 6.2 51.8 18.1 51.8 18.1 C 51.8 21.1 50 22.2 47 22.2 C 47 22.2 46.8 22.2 46.8 22.2 C 43.8 22.2 42.1 21.1 42.1 18.1 C 42.1 18.1 42.1 6.2 42.1 6.2 C 42.1 3.2 43.8 2 46.8 2 C 46.8 2 47 2 47 2 C 50 2 51.8 3.2 51.8 6.2 Z M 46.9 4.9 C 45.9 4.9 45.2 5.3 45.2 6.7 C 45.2 6.7 45.2 17.6 45.2 17.6 C 45.2 19 45.9 19.4 46.9 19.4 C 48 19.4 48.6 19 48.6 17.6 C 48.6 17.6 48.6 6.7 48.6 6.7 C 48.6 5.3 48 4.9 46.9 4.9 Z M 63.8 6.2 C 63.8 6.2 63.8 18.1 63.8 18.1 C 63.8 21.1 62 22.2 59.1 22.2 C 59.1 22.2 58.8 22.2 58.8 22.2 C 55.9 22.2 54.1 21.1 54.1 18.1 C 54.1 18.1 54.1 6.2 54.1 6.2 C 54.1 3.2 55.9 2 58.8 2 C 58.8 2 59.1 2 59.1 2 C 62 2 63.8 3.2 63.8 6.2 Z M 59 4.9 C 57.9 4.9 57.3 5.3 57.3 6.7 C 57.3 6.7 57.3 17.6 57.3 17.6 C 57.3 19 57.9 19.4 59 19.4 C 60 19.4 60.6 19 60.6 17.6 C 60.6 17.6 60.6 6.7 60.6 6.7 C 60.6 5.3 60 4.9 59 4.9 Z " stroke="none" fill="#282828"/>
  </g>
</svg>