<?xml version="1.0" standalone="no"?><!DOCTYPE svg PUBLIC "-//W3C//DTD SVG 1.1//EN" "http://www.w3.org/Graphics/SVG/1.1/DTD/svg11.dtd"><svg xmlns="http://www.w3.org/2000/svg" version="1.1" width="54px" height="16.9px" viewBox="0 -4 54 16.9" style="top:-4px"><desc>POPULATION</desc><defs/><g id="Polygon72625"><path d="m.7 1.1s2.5.01 2.5 0c1.2 0 1.9.9 1.9 1.9c0 1-.7 1.8-1.9 1.8H1.6v2.3h-.9v-6zm2.4.8H1.6v2.1h1.5c.6 0 1.1-.4 1.1-1c0-.7-.5-1.1-1.1-1.1zM8.7 1c1.8 0 3 1.3 3 3.1c0 1.8-1.2 3.1-3 3.1c-1.8 0-3-1.3-3-3.1c0-1.8 1.2-3.1 3-3.1zm0 .8c-1.3 0-2.1 1-2.1 2.3c0 1.3.8 2.3 2.1 2.3c1.3 0 2.1-1 2.1-2.3c0-1.3-.8-2.3-2.1-2.3zm4-.7h2.6c1.2 0 1.9.9 1.9 1.9c0 1-.7 1.8-1.9 1.8h-1.7v2.3h-.9v-6zm2.5.8h-1.6v2.1h1.6c.6 0 1.1-.4 1.1-1c0-.7-.5-1.1-1.1-1.1zm2.8-.8h.9s.04 3.63 0 3.6c0 1.1.6 1.7 1.7 1.7c1 0 1.6-.6 1.6-1.7c-.03.03 0-3.6 0-3.6h.9s-.02 3.65 0 3.7c0 1.4-.9 2.4-2.5 2.4c-1.7 0-2.6-1-2.6-2.4c.03-.04 0-3.7 0-3.7zm6.3 0h.9v5.2h2.8v.8h-3.7v-6zm8.4 4.8h-3l-.5 1.2h-1l2.4-6h1.1l2.4 6h-1l-.4-1.2zM30 5.1h2.4l-1.2-3.2L30 5.1zm5.6-3.2h-1.8v-.8h4.6v.8h-1.9v5.2h-.9V1.9zm3.6-.8h.9v6h-.9v-6zm5-.1c1.7 0 3 1.3 3 3.1c0 1.8-1.3 3.1-3 3.1c-1.8 0-3.1-1.3-3.1-3.1c0-1.8 1.3-3.1 3.1-3.1zm0 .8c-1.3 0-2.1 1-2.1 2.3c0 1.3.8 2.3 2.1 2.3c1.2 0 2.1-1 2.1-2.3c0-1.3-.9-2.3-2.1-2.3zm4.9.7v4.6h-.9v-6h.9l3.3 4.5V1.1h.9v6h-.9l-3.3-4.6z" stroke="none" fill="#3797ef"/></g></svg>