<?xml version="1.0" standalone="no"?><!DOCTYPE svg PUBLIC "-//W3C//DTD SVG 1.1//EN" "http://www.w3.org/Graphics/SVG/1.1/DTD/svg11.dtd"><svg xmlns="http://www.w3.org/2000/svg" version="1.1" width="375px" height="46.5px" viewBox="0 -10 375 46.5" style="top:-10px"><desc>CONTACT INFORMATION</desc><defs/><g id="Polygon105628"><path d="m95.1 18.1c0 3-1.9 4.1-4.9 4.1h-.1c-3 0-5-1.1-5-4.1V6.2c0-2.9 2-4.2 5-4.2h.1c3 0 4.9 1.3 4.9 4.2c.03.01 0 3.6 0 3.6h-3.2s-.05-3.08 0-3.1c0-1.4-.7-1.8-1.8-1.8c-1 0-1.7.4-1.7 1.8v10.9c0 1.3.7 1.8 1.7 1.8c1.1 0 1.8-.5 1.8-1.8c-.05-.04 0-3.6 0-3.6h3.2s.03 4.07 0 4.1zM102.3 2h.2c3 0 5 1.2 5 4.2v11.9c0 3-2 4.1-5 4.1h-.2c-3 0-5-1.1-5-4.1V6.2c0-3 2-4.2 5-4.2zm.1 17.4c1.1 0 1.8-.4 1.8-1.8V6.7c0-1.4-.7-1.8-1.8-1.8c-1.1 0-1.8.4-1.8 1.8v10.9c0 1.4.7 1.8 1.8 1.8zm7.5 2.6V2.3h3.3l4.2 12.2V2.3h2.9V22h-3.1l-4.3-12.8V22h-3zm21.7-16.9h-3.3V22h-3.2V5.1h-3.3V2.3h9.8v2.8zm6.5 12.5h-3.6l-.7 4.4h-3.2l3.7-19.7h4.1l3.7 19.7h-3.3l-.7-4.4zm-.4-2.7l-1.4-8.8l-1.4 8.8h2.8zm15.6 3.2c0 3-2 4.1-5 4.1c-3 0-5-1.1-5-4.1V6.2c0-2.9 2-4.2 5-4.2c3 0 5 1.3 5 4.2c-.01.01 0 3.6 0 3.6H150s.02-3.08 0-3.1c0-1.4-.7-1.8-1.7-1.8c-1 0-1.7.4-1.7 1.8v10.9c0 1.3.7 1.8 1.7 1.8c1 0 1.7-.5 1.7-1.8c.02-.04 0-3.6 0-3.6h3.3v4.1zm10.9-13h-3.3V22h-3.2V5.1h-3.3V2.3h9.8v2.8zm5.5 16.9V2.3h3.3V22h-3.3zm6 0V2.3h3.2l4.2 12.2V2.3h3V22H183l-4.4-12.8V22h-2.9zm12.9-19.7h8.6v2.8h-5.3v5.6h4.4v2.9h-4.4v8.4h-3.3V2.3zm15-.3h.2c3 0 5 1.2 5 4.2v11.9c0 3-2 4.1-5 4.1h-.2c-3 0-5-1.1-5-4.1V6.2c0-3 2-4.2 5-4.2zm.1 17.4c1.1 0 1.8-.4 1.8-1.8V6.7c0-1.4-.7-1.8-1.8-1.8c-1.1 0-1.8.4-1.8 1.8v10.9c0 1.4.7 1.8 1.8 1.8zm15 2.6l-2.6-7.9h-1.6v7.9h-3.3V2.3s5.14-.04 5.1 0c3 0 5 1.1 5 4.1v3.6c0 1.9-.8 3-2.1 3.6c-.03.04 2.8 8.4 2.8 8.4h-3.3zm-4.2-10.7s1.73.02 1.7 0c1.1 0 1.8-.4 1.8-1.8V6.9c0-1.4-.7-1.8-1.8-1.8c.03.04-1.7 0-1.7 0v6.2zm17 7.8h-1.8l-3-9.2V22h-3V2.3h3.1l3.8 11.5l3.8-11.5h3.3V22h-3.2V9.9l-3 9.2zm15-1.5h-3.6l-.7 4.4H239l3.7-19.7h4.1l3.7 19.7h-3.3l-.7-4.4zm-.4-2.7l-1.4-8.8l-1.4 8.8h2.8zm13.3-9.8h-3.3V22h-3.3V5.1h-3.3V2.3h9.9v2.8zm1.5 16.9V2.3h3.3V22h-3.3zm10.8-20h.2c3 0 5 1.2 5 4.2v11.9c0 3-2 4.1-5 4.1h-.2c-3 0-5-1.1-5-4.1V6.2c0-3 2-4.2 5-4.2zm.1 17.4c1.1 0 1.8-.4 1.8-1.8V6.7c0-1.4-.7-1.8-1.8-1.8c-1 0-1.8.4-1.8 1.8v10.9c0 1.4.8 1.8 1.8 1.8zm7.5 2.6V2.3h3.3l4.2 12.2V2.3h3V22h-3.2l-4.3-12.8V22h-3z" stroke="none" fill="#282828"/></g></svg>