<?xml version="1.0" standalone="no"?><!DOCTYPE svg PUBLIC "-//W3C//DTD SVG 1.1//EN" "http://www.w3.org/Graphics/SVG/1.1/DTD/svg11.dtd"><svg xmlns="http://www.w3.org/2000/svg" version="1.1" width="140.2px" height="27.3px" viewBox="0 -6 140.2 27.3" style="top:-6px"><desc>8,277</desc><defs/><g id="Polygon113465"><path d="m106.1 7.1c-1.3-.3-2.5-1.2-2.5-2.6c0-1.8 1.8-2.7 3.5-2.7c1.6 0 3.4.9 3.4 2.7c0 1.4-1.2 2.3-2.5 2.6c1.4.4 2.6 1.3 2.6 2.8c0 1.7-1.5 2.8-3.5 2.8c-2.1 0-3.7-1.1-3.7-2.8c0-1.5 1.3-2.4 2.7-2.8zm1-4.5c-1.4 0-2.6.8-2.6 2c0 1.5 1.9 2 2.6 2.1c.6-.1 2.5-.6 2.5-2.1c0-1.2-1.2-2-2.5-2zm0 4.9c-.7.1-2.7.7-2.7 2.3c0 1.3 1.2 2.1 2.7 2.1c1.3 0 2.6-.8 2.6-2.1c0-1.6-2-2.2-2.6-2.3zm5.4 6.6c.5-.3.9-1 .9-1.5l-.1.1c-.4 0-.7-.3-.7-.7c0-.4.3-.7.7-.7c.4 0 .8.4.8 1c0 .9-.5 1.8-1.1 2.2l-.5-.4zm3.4-2.3c3.7-2.9 6.1-5 6.1-7c0-1.5-1.3-2.2-2.4-2.2c-1.4 0-2.4.6-3 1.4l-.6-.6c.8-1 2.1-1.6 3.6-1.6c1.5 0 3.3.9 3.3 3c0 2.3-2.5 4.4-5.5 6.9c-.04.02 5.5 0 5.5 0v.8h-7s.05-.7 0-.7zm14.8-9h-5.9v-.8h6.9v.6l-4.5 9.9h-1l4.5-9.7zm8 0h-5.9v-.8h6.9v.6l-4.5 9.9h-1l4.5-9.7z" stroke="none" fill="#000"/></g></svg>