<?xml version="1.0" standalone="no"?><!DOCTYPE svg PUBLIC "-//W3C//DTD SVG 1.1//EN" "http://www.w3.org/Graphics/SVG/1.1/DTD/svg11.dtd"><svg xmlns="http://www.w3.org/2000/svg" version="1.1" width="34.1px" height="21.5px" viewBox="0 -4 34.1 21.5" style="top:-4px"><desc>5-Mile</desc><defs/><g id="Polygon320007"><path d="m2.4 7.3c.5.5 1.3.8 2.1.8c1 0 1.5-.5 1.5-1.2c0-.7-.5-1.2-1.4-1.2c-.7 0-1.2.2-1.7.7c0-.03-1.2-.4-1.2-.4V1.5h5.5v1.4H3.4s-.02 2.04 0 2c.4-.3 1-.6 1.8-.6c1.3 0 2.5.9 2.5 2.6c0 1.7-1.2 2.7-3.2 2.7c-1.3 0-2.4-.4-3-1.2l.9-1.1zm6-1.4h2.9v1.3H8.4V5.9zm10.9-2.2L17 9.5h-.7L14 3.7v5.8h-1.7v-8h2.4l2 5l1.9-5h2.4v8h-1.7V3.7zm3-1.8c0-.5.4-.9.9-.9c.5 0 .9.4.9.9c0 .5-.4.9-.9.9c-.5 0-.9-.4-.9-.9zm.1 1.8h1.5v5.8h-1.5V3.7zm2.9-2.2h1.6v8h-1.6v-8zm5.6 2c1.7 0 2.9 1.3 2.9 3.2v.4s-4.32-.03-4.3 0c.1.7.7 1.3 1.6 1.3c.6 0 1.2-.2 1.6-.6l.7 1c-.6.5-1.5.8-2.4.8c-1.8 0-3.1-1.2-3.1-3c0-1.7 1.2-3.1 3-3.1zM29.5 6h2.8c0-.5-.4-1.2-1.4-1.2c-1 0-1.4.7-1.4 1.2z" stroke="none" fill="#282828"/></g></svg>