<?xml version="1.0" standalone="no"?>
<!DOCTYPE svg PUBLIC "-//W3C//DTD SVG 1.1//EN" "http://www.w3.org/Graphics/SVG/1.1/DTD/svg11.dtd">
<svg xmlns="http://www.w3.org/2000/svg" version="1.1" width="375px" height="67.5px" viewBox="0 -6 375 67.5" style="top:-6px">
  <desc>SUBJECT PROPERTY INVESTMENT SUMMARY</desc>
  <defs/>
  <g id="Polygon264795">
    <path d="M 84.6 46.4 L 84.6 26.7 L 87.9 26.7 L 87.9 46.4 L 84.6 46.4 Z M 90.5 46.4 L 90.5 26.7 L 93.8 26.7 L 98 38.9 L 98 26.7 L 101 26.7 L 101 46.4 L 97.9 46.4 L 93.5 33.6 L 93.5 46.4 L 90.5 46.4 Z M 109.7 46.4 L 106 46.4 L 102.3 26.7 L 105.6 26.7 L 107.9 41.3 L 110.2 26.7 L 113.4 26.7 L 109.7 46.4 Z M 114.7 46.4 L 114.7 26.7 L 123.4 26.7 L 123.4 29.5 L 118 29.5 L 118 35 L 122.5 35 L 122.5 37.8 L 118 37.8 L 118 43.5 L 123.5 43.5 L 123.5 46.4 L 114.7 46.4 Z M 131.5 33.7 C 131.5 33.7 131.51 30.96 131.5 31 C 131.5 29.7 130.8 29.3 129.8 29.3 C 128.9 29.3 128.2 29.7 128.2 31 C 128.2 31 128.2 32.3 128.2 32.3 C 128.2 33.3 128.5 33.8 129.4 34.3 C 129.4 34.3 131.8 35.6 131.8 35.6 C 133.7 36.7 134.8 37.6 134.8 39.7 C 134.8 39.7 134.8 42.5 134.8 42.5 C 134.8 45.6 132.9 46.7 129.9 46.7 C 129.9 46.7 129.8 46.7 129.8 46.7 C 126.9 46.7 125 45.6 125 42.5 C 124.96 42.53 125 39.1 125 39.1 L 128.2 39.1 C 128.2 39.1 128.18 42.08 128.2 42.1 C 128.2 43.3 128.9 43.8 129.9 43.8 C 130.9 43.8 131.6 43.3 131.6 42.1 C 131.6 42.1 131.6 40.5 131.6 40.5 C 131.6 39.5 131.3 39 130.3 38.5 C 130.3 38.5 128 37.2 128 37.2 C 126.1 36.1 125 35.2 125 33.1 C 125 33.1 125 30.5 125 30.5 C 125 27.6 127.1 26.4 129.8 26.4 C 129.8 26.4 129.9 26.4 129.9 26.4 C 132.6 26.4 134.7 27.6 134.7 30.5 C 134.73 30.5 134.7 33.7 134.7 33.7 L 131.5 33.7 Z M 145.5 29.5 L 142.2 29.5 L 142.2 46.4 L 138.9 46.4 L 138.9 29.5 L 135.6 29.5 L 135.6 26.7 L 145.5 26.7 L 145.5 29.5 Z M 154.8 43.5 L 152.9 43.5 L 150 34.3 L 150 46.4 L 146.9 46.4 L 146.9 26.7 L 150 26.7 L 153.8 38.2 L 157.7 26.7 L 160.9 26.7 L 160.9 46.4 L 157.7 46.4 L 157.7 34.3 L 154.8 43.5 Z M 163.4 46.4 L 163.4 26.7 L 172.1 26.7 L 172.1 29.5 L 166.7 29.5 L 166.7 35 L 171.2 35 L 171.2 37.8 L 166.7 37.8 L 166.7 43.5 L 172.2 43.5 L 172.2 46.4 L 163.4 46.4 Z M 174.2 46.4 L 174.2 26.7 L 177.5 26.7 L 181.7 38.9 L 181.7 26.7 L 184.6 26.7 L 184.6 46.4 L 181.5 46.4 L 177.2 33.6 L 177.2 46.4 L 174.2 46.4 Z M 195.9 29.5 L 192.6 29.5 L 192.6 46.4 L 189.4 46.4 L 189.4 29.5 L 186.1 29.5 L 186.1 26.7 L 195.9 26.7 L 195.9 29.5 Z M 207.5 33.7 C 207.5 33.7 207.46 30.96 207.5 31 C 207.5 29.7 206.8 29.3 205.8 29.3 C 204.8 29.3 204.1 29.7 204.1 31 C 204.1 31 204.1 32.3 204.1 32.3 C 204.1 33.3 204.5 33.8 205.4 34.3 C 205.4 34.3 207.7 35.6 207.7 35.6 C 209.6 36.7 210.7 37.6 210.7 39.7 C 210.7 39.7 210.7 42.5 210.7 42.5 C 210.7 45.6 208.8 46.7 205.9 46.7 C 205.9 46.7 205.8 46.7 205.8 46.7 C 202.8 46.7 200.9 45.6 200.9 42.5 C 200.91 42.53 200.9 39.1 200.9 39.1 L 204.1 39.1 C 204.1 39.1 204.13 42.08 204.1 42.1 C 204.1 43.3 204.8 43.8 205.8 43.8 C 206.8 43.8 207.5 43.3 207.5 42.1 C 207.5 42.1 207.5 40.5 207.5 40.5 C 207.5 39.5 207.2 39 206.2 38.5 C 206.2 38.5 203.9 37.2 203.9 37.2 C 202 36.1 200.9 35.2 200.9 33.1 C 200.9 33.1 200.9 30.5 200.9 30.5 C 200.9 27.6 203.1 26.4 205.8 26.4 C 205.8 26.4 205.8 26.4 205.8 26.4 C 208.5 26.4 210.7 27.6 210.7 30.5 C 210.68 30.5 210.7 33.7 210.7 33.7 L 207.5 33.7 Z M 222.7 42.5 C 222.7 45.5 220.8 46.7 217.8 46.7 C 217.8 46.7 217.7 46.7 217.7 46.7 C 214.7 46.7 212.8 45.6 212.8 42.5 C 212.77 42.48 212.8 26.7 212.8 26.7 L 216 26.7 C 216 26.7 216.05 41.97 216 42 C 216 43.4 216.7 43.8 217.7 43.8 C 218.8 43.8 219.4 43.4 219.4 42 C 219.43 41.97 219.4 26.7 219.4 26.7 L 222.7 26.7 C 222.7 26.7 222.71 42.48 222.7 42.5 Z M 233 43.5 L 231.2 43.5 L 228.2 34.3 L 228.2 46.4 L 225.2 46.4 L 225.2 26.7 L 228.3 26.7 L 232.1 38.2 L 236 26.7 L 239.2 26.7 L 239.2 46.4 L 236 46.4 L 236 34.3 L 233 43.5 Z M 249.6 43.5 L 247.7 43.5 L 244.8 34.3 L 244.8 46.4 L 241.7 46.4 L 241.7 26.7 L 244.8 26.7 L 248.6 38.2 L 252.5 26.7 L 255.7 26.7 L 255.7 46.4 L 252.5 46.4 L 252.5 34.3 L 249.6 43.5 Z M 264.5 42 L 260.9 42 L 260.2 46.4 L 257 46.4 L 260.7 26.7 L 264.8 26.7 L 268.6 46.4 L 265.2 46.4 L 264.5 42 Z M 264.1 39.3 L 262.7 30.5 L 261.3 39.3 L 264.1 39.3 Z M 277.3 46.4 L 274.8 38.6 L 273.2 38.6 L 273.2 46.4 L 269.9 46.4 L 269.9 26.7 C 269.9 26.7 275.03 26.66 275 26.7 C 278 26.7 280 27.9 280 30.8 C 280 30.8 280 34.4 280 34.4 C 280 36.3 279.2 37.5 277.9 38 C 277.85 38.04 280.7 46.4 280.7 46.4 L 277.3 46.4 Z M 273.2 35.7 C 273.2 35.7 274.92 35.73 274.9 35.7 C 276 35.7 276.7 35.3 276.7 33.9 C 276.7 33.9 276.7 31.4 276.7 31.4 C 276.7 29.9 276 29.5 274.9 29.5 C 274.92 29.54 273.2 29.5 273.2 29.5 L 273.2 35.7 Z M 288 46.4 L 284.7 46.4 L 284.7 39.4 L 280.7 26.7 L 284.2 26.7 L 286.4 35.8 L 288.6 26.7 L 292 26.7 L 288 39.4 L 288 46.4 Z " stroke="none" fill="#282828"/>
  </g>
  <g id="Polygon264794">
    <path d="M 115 9.8 C 115.7 10.6 116.8 11.3 118.3 11.3 C 120 11.3 120.6 10.5 120.6 9.7 C 120.6 8.6 119.4 8.3 118.1 7.9 C 116.4 7.5 114.4 7 114.4 4.8 C 114.4 3.1 115.9 1.8 118.2 1.8 C 119.8 1.8 121.1 2.3 122 3.3 C 122 3.3 121.1 4.4 121.1 4.4 C 120.3 3.6 119.2 3.2 118 3.2 C 116.9 3.2 116 3.8 116 4.7 C 116 5.7 117.2 6 118.5 6.3 C 120.2 6.7 122.3 7.3 122.3 9.5 C 122.3 11.2 121.1 12.7 118.3 12.7 C 116.4 12.7 115 12.1 114.1 11.1 C 114.1 11.1 115 9.8 115 9.8 Z M 123.9 2 L 125.5 2 C 125.5 2 125.54 8.36 125.5 8.4 C 125.5 10.2 126.5 11.3 128.4 11.3 C 130.3 11.3 131.2 10.2 131.2 8.4 C 131.25 8.36 131.2 2 131.2 2 L 132.8 2 C 132.8 2 132.85 8.39 132.8 8.4 C 132.8 11 131.4 12.7 128.4 12.7 C 125.4 12.7 123.9 11 123.9 8.4 C 123.94 8.4 123.9 2 123.9 2 Z M 135.1 2 C 135.1 2 140.03 1.95 140 2 C 141.9 2 143 3.1 143 4.7 C 143 6 142.1 6.9 141.2 7.1 C 142.3 7.3 143.2 8.4 143.2 9.7 C 143.2 11.4 142.1 12.5 140.2 12.5 C 140.16 12.55 135.1 12.5 135.1 12.5 L 135.1 2 Z M 139.7 6.4 C 140.8 6.4 141.4 5.8 141.4 4.9 C 141.4 4 140.8 3.4 139.7 3.4 C 139.73 3.35 136.6 3.4 136.6 3.4 L 136.6 6.4 C 136.6 6.4 139.73 6.45 139.7 6.4 Z M 139.8 11.2 C 140.9 11.2 141.6 10.5 141.6 9.5 C 141.6 8.6 141 7.8 139.8 7.8 C 139.81 7.84 136.6 7.8 136.6 7.8 L 136.6 11.2 C 136.6 11.2 139.81 11.15 139.8 11.2 Z M 144.8 10.4 C 145.2 10.9 145.8 11.3 146.7 11.3 C 147.9 11.3 148.7 10.5 148.7 9.3 C 148.67 9.26 148.7 2 148.7 2 L 150.3 2 C 150.3 2 150.26 9.28 150.3 9.3 C 150.3 11.6 148.8 12.7 146.8 12.7 C 145.7 12.7 144.7 12.4 144 11.6 C 144 11.6 144.8 10.4 144.8 10.4 Z M 152.5 2 L 159.6 2 L 159.6 3.4 L 154.1 3.4 L 154.1 6.4 L 159.5 6.4 L 159.5 7.8 L 154.1 7.8 L 154.1 11.2 L 159.6 11.2 L 159.6 12.5 L 152.5 12.5 L 152.5 2 Z M 161 7.3 C 161 4 163.4 1.8 166.4 1.8 C 168.5 1.8 169.8 2.8 170.6 4 C 170.6 4 169.3 4.7 169.3 4.7 C 168.7 3.8 167.6 3.2 166.4 3.2 C 164.2 3.2 162.6 4.9 162.6 7.3 C 162.6 9.6 164.2 11.3 166.4 11.3 C 167.6 11.3 168.7 10.7 169.3 9.8 C 169.3 9.8 170.6 10.5 170.6 10.5 C 169.8 11.7 168.5 12.7 166.4 12.7 C 163.4 12.7 161 10.5 161 7.3 Z M 174.6 3.4 L 171.3 3.4 L 171.3 2 L 179.5 2 L 179.5 3.4 L 176.2 3.4 L 176.2 12.5 L 174.6 12.5 L 174.6 3.4 Z M 184.9 2 C 184.9 2 189.37 1.95 189.4 2 C 191.6 2 192.8 3.4 192.8 5.2 C 192.8 7 191.5 8.5 189.4 8.5 C 189.37 8.46 186.5 8.5 186.5 8.5 L 186.5 12.5 L 184.9 12.5 L 184.9 2 Z M 189.2 3.4 C 189.17 3.35 186.5 3.4 186.5 3.4 L 186.5 7.1 C 186.5 7.1 189.17 7.07 189.2 7.1 C 190.3 7.1 191.1 6.3 191.1 5.2 C 191.1 4.1 190.3 3.4 189.2 3.4 Z M 197.8 8.5 L 195.8 8.5 L 195.8 12.5 L 194.2 12.5 L 194.2 2 C 194.2 2 198.7 1.95 198.7 2 C 200.7 2 202.1 3.3 202.1 5.2 C 202.1 7.1 200.8 8.1 199.5 8.3 C 199.46 8.31 202.2 12.5 202.2 12.5 L 200.3 12.5 L 197.8 8.5 Z M 198.5 3.4 C 198.49 3.35 195.8 3.4 195.8 3.4 L 195.8 7.1 C 195.8 7.1 198.49 7.07 198.5 7.1 C 199.6 7.1 200.5 6.3 200.5 5.2 C 200.5 4.1 199.6 3.4 198.5 3.4 Z M 208.8 1.8 C 211.9 1.8 214.1 4.1 214.1 7.3 C 214.1 10.4 211.9 12.7 208.8 12.7 C 205.6 12.7 203.4 10.4 203.4 7.3 C 203.4 4.1 205.6 1.8 208.8 1.8 Z M 208.8 3.2 C 206.5 3.2 205.1 4.9 205.1 7.3 C 205.1 9.6 206.5 11.3 208.8 11.3 C 211 11.3 212.5 9.6 212.5 7.3 C 212.5 4.9 211 3.2 208.8 3.2 Z M 215.9 2 C 215.9 2 220.34 1.95 220.3 2 C 222.5 2 223.7 3.4 223.7 5.2 C 223.7 7 222.5 8.5 220.3 8.5 C 220.34 8.46 217.5 8.5 217.5 8.5 L 217.5 12.5 L 215.9 12.5 L 215.9 2 Z M 220.1 3.4 C 220.14 3.35 217.5 3.4 217.5 3.4 L 217.5 7.1 C 217.5 7.1 220.14 7.07 220.1 7.1 C 221.3 7.1 222.1 6.3 222.1 5.2 C 222.1 4.1 221.3 3.4 220.1 3.4 Z M 225.2 2 L 232.3 2 L 232.3 3.4 L 226.8 3.4 L 226.8 6.4 L 232.2 6.4 L 232.2 7.8 L 226.8 7.8 L 226.8 11.2 L 232.3 11.2 L 232.3 12.5 L 225.2 12.5 L 225.2 2 Z M 237.7 8.5 L 235.7 8.5 L 235.7 12.5 L 234.1 12.5 L 234.1 2 C 234.1 2 238.61 1.95 238.6 2 C 240.6 2 242 3.3 242 5.2 C 242 7.1 240.7 8.1 239.4 8.3 C 239.37 8.31 242.1 12.5 242.1 12.5 L 240.2 12.5 L 237.7 8.5 Z M 238.4 3.4 C 238.4 3.35 235.7 3.4 235.7 3.4 L 235.7 7.1 C 235.7 7.1 238.4 7.07 238.4 7.1 C 239.5 7.1 240.4 6.3 240.4 5.2 C 240.4 4.1 239.5 3.4 238.4 3.4 Z M 246.2 3.4 L 242.9 3.4 L 242.9 2 L 251.1 2 L 251.1 3.4 L 247.8 3.4 L 247.8 12.5 L 246.2 12.5 L 246.2 3.4 Z M 255.6 8.1 L 251.5 2 L 253.3 2 L 256.4 6.7 L 259.5 2 L 261.4 2 L 257.2 8.1 L 257.2 12.5 L 255.6 12.5 L 255.6 8.1 Z " stroke="none" fill="#3797ef"/>
  </g>
</svg>