<?xml version="1.0" standalone="no"?><!DOCTYPE svg PUBLIC "-//W3C//DTD SVG 1.1//EN" "http://www.w3.org/Graphics/SVG/1.1/DTD/svg11.dtd"><svg xmlns="http://www.w3.org/2000/svg" version="1.1" width="179px" height="27.9px" viewBox="0 -6 179 27.9" style="top:-6px"><desc>CONTACT INFORMATION</desc><defs/><g id="Polygon265790"><path d="m.7 7.3C.7 4 3.1 1.8 6.2 1.8c2 0 3.3 1 4.2 2.2L9 4.7c-.5-.9-1.6-1.5-2.8-1.5c-2.2 0-3.8 1.7-3.8 4.1c0 2.3 1.6 4 3.8 4c1.2 0 2.3-.6 2.8-1.5l1.4.7c-.9 1.2-2.2 2.2-4.2 2.2c-3.1 0-5.5-2.2-5.5-5.4zm16-5.5c3.2 0 5.3 2.3 5.3 5.5c0 3.1-2.1 5.4-5.3 5.4c-3.2 0-5.3-2.3-5.3-5.4c0-3.2 2.1-5.5 5.3-5.5zm0 1.4c-2.3 0-3.7 1.7-3.7 4.1c0 2.3 1.4 4 3.7 4c2.2 0 3.7-1.7 3.7-4c0-2.4-1.5-4.1-3.7-4.1zm8.7 1.2v8.1h-1.6V2h1.6l5.8 7.9V2h1.6v10.5h-1.6l-5.8-8.1zm12.2-1h-3.3V2h8.1v1.4h-3.3v9.1h-1.5V3.4zm12 7h-5.2l-.9 2.1h-1.7L46 2h2l4.2 10.5h-1.8l-.8-2.1zm-4.8-1.5h4.3L47 3.3l-2.2 5.6zm7.5-1.6c0-3.3 2.4-5.5 5.4-5.5c2.1 0 3.4 1 4.2 2.2l-1.3.7c-.6-.9-1.6-1.5-2.9-1.5c-2.1 0-3.8 1.7-3.8 4.1c0 2.3 1.7 4 3.8 4c1.3 0 2.3-.6 2.9-1.5l1.3.7c-.8 1.2-2.1 2.2-4.2 2.2c-3 0-5.4-2.2-5.4-5.4zm13.6-3.9h-3.3V2h8.2v1.4h-3.3v9.1h-1.6V3.4zM76.2 2h1.6v10.5h-1.6V2zm5.4 2.4v8.1H80V2h1.6l5.8 7.9V2h1.6v10.5h-1.5l-5.9-8.1zM91.2 2h7.1v1.4h-5.5v3h5.4v1.4h-5.4v4.7h-1.6V2zm13.6-.2c3.1 0 5.3 2.3 5.3 5.5c0 3.1-2.2 5.4-5.3 5.4c-3.2 0-5.4-2.3-5.4-5.4c0-3.2 2.2-5.5 5.4-5.5zm0 1.4c-2.3 0-3.7 1.7-3.7 4.1c0 2.3 1.4 4 3.7 4c2.2 0 3.7-1.7 3.7-4c0-2.4-1.5-4.1-3.7-4.1zm10.6 5.3h-2v4h-1.5V2s4.42-.05 4.4 0c2 0 3.4 1.3 3.4 3.2c0 1.9-1.3 2.9-2.6 3.1c-.02.01 2.7 4.2 2.7 4.2H118l-2.6-4zm.7-5.1c.01-.05-2.7 0-2.7 0v3.7s2.71-.03 2.7 0c1.2 0 2-.8 2-1.9c0-1.1-.8-1.8-2-1.8zm14.5.7l-3.4 8.4h-.7l-3.4-8.4v8.4h-1.6V2h2.3l3.1 7.6l3-7.6h2.3v10.5h-1.6V4.1zm10.5 6.3h-5.2l-.8 2.1h-1.8L137.5 2h2l4.2 10.5H142l-.9-2.1zm-4.7-1.5h4.3l-2.2-5.6l-2.1 5.6zm10-5.5h-3.3V2h8.1v1.4H148v9.1h-1.6V3.4zm6.3-1.4h1.6v10.5h-1.6V2zm8.7-.2c3.2 0 5.3 2.3 5.3 5.5c0 3.1-2.1 5.4-5.3 5.4c-3.2 0-5.3-2.3-5.3-5.4c0-3.2 2.1-5.5 5.3-5.5zm0 1.4c-2.3 0-3.7 1.7-3.7 4.1c0 2.3 1.4 4 3.7 4c2.3 0 3.7-1.7 3.7-4c0-2.4-1.4-4.1-3.7-4.1zm8.7 1.2v8.1h-1.6V2h1.6l5.8 7.9V2h1.6v10.5H176l-5.9-8.1z" stroke="none" fill="#3797ef"/></g></svg>