<?xml version="1.0" standalone="no"?><!DOCTYPE svg PUBLIC "-//W3C//DTD SVG 1.1//EN" "http://www.w3.org/Graphics/SVG/1.1/DTD/svg11.dtd"><svg xmlns="http://www.w3.org/2000/svg" version="1.1" width="75.4px" height="15.9px" viewBox="0 -4 75.4 15.9" style="top:-4px"><desc>3,052</desc><defs/><g id="Polygon110311"><path d="m53.2 5.9c.4.5 1 .9 1.7.9c1 0 1.5-.5 1.5-1.3c0-.9-.7-1.2-1.6-1.2h-.5v-.5h.5c.8 0 1.6-.4 1.6-1.2c0-.7-.7-1.1-1.5-1.1c-.7 0-1.2.3-1.6.7l-.3-.3c.4-.5 1.1-.9 1.9-.9c1.1 0 2 .6 2 1.6c0 .9-.8 1.3-1.3 1.4c.5.1 1.4.5 1.4 1.5c0 1-.8 1.7-2.1 1.7c-.9 0-1.7-.4-2-1l.3-.3zM58 8c.3-.2.5-.6.5-.8c-.3 0-.4-.2-.4-.4c0-.2.2-.4.4-.4c.2 0 .4.2.4.6c0 .5-.3 1-.6 1.2L58 8zm4.2-7c1.6 0 2.2 1.7 2.2 3.1c0 1.4-.6 3.1-2.2 3.1c-1.6 0-2.2-1.7-2.2-3.1c0-1.4.6-3.1 2.2-3.1zm0 .5c-1.3 0-1.7 1.4-1.7 2.6c0 1.2.4 2.7 1.7 2.7c1.3 0 1.7-1.5 1.7-2.7c0-1.2-.4-2.6-1.7-2.6zM66 5.9c.3.5.9.9 1.6.9c.9 0 1.5-.7 1.5-1.5c0-.9-.6-1.5-1.5-1.5c-.5 0-1 .2-1.4.6c-.01.02-.4-.1-.4-.1V1.1h3.5v.5h-3v2.3c.3-.3.8-.5 1.4-.5c1.1 0 2 .6 2 1.9c0 1.2-1 1.9-2.1 1.9c-1 0-1.6-.4-2-1l.4-.3zm4.7.8c2-1.7 3.4-2.8 3.4-4c0-.9-.7-1.2-1.4-1.2c-.7 0-1.3.3-1.6.8l-.4-.4c.5-.5 1.2-.9 2-.9c.9 0 1.9.5 1.9 1.7c0 1.3-1.4 2.5-3.1 3.9c-.01.04 3.1 0 3.1 0v.5h-3.9v-.4z" stroke="none" fill="#000"/></g></svg>