<?xml version="1.0" standalone="no"?><!DOCTYPE svg PUBLIC "-//W3C//DTD SVG 1.1//EN" "http://www.w3.org/Graphics/SVG/1.1/DTD/svg11.dtd"><svg xmlns="http://www.w3.org/2000/svg" version="1.1" width="311px" height="21.5px" viewBox="0 -4 311 21.5" style="top:-4px"><desc>James Capital Advisors, Inc 2021</desc><defs/><g id="Polygon62533"><path d="m63.4 5.5c0-2.3 1.9-4.2 4.2-4.2c2.3 0 4.1 1.9 4.1 4.2c0 2.3-1.8 4.1-4.1 4.1c-2.3 0-4.2-1.8-4.2-4.1zm.4 0c0 2 1.7 3.7 3.8 3.7c2 0 3.7-1.7 3.7-3.7c0-2.1-1.7-3.8-3.7-3.8c-2.1 0-3.8 1.7-3.8 3.8zM67.6 8c-1.4 0-2.5-1.1-2.5-2.5c0-1.5 1.1-2.6 2.5-2.6c.8 0 1.4.3 1.8.8L69 4c-.3-.4-.8-.7-1.4-.7c-1.1 0-2 .9-2 2.2c0 1.2.9 2.1 2 2.1c.6 0 1.1-.3 1.4-.7l.4.3c-.5.5-1 .8-1.8.8zm8.2-.2c.3.4.8.8 1.4.8c1 0 1.5-.7 1.5-1.6c.03 0 0-5.5 0-5.5h1.2s.03 5.51 0 5.5c0 1.8-1.1 2.6-2.6 2.6c-.8 0-1.5-.2-2.1-.9l.6-.9zm9.4 1c-.5.5-1.2.8-1.9.8c-1 0-2.1-.6-2.1-1.9c0-1.3 1.1-1.9 2.1-1.9c.7 0 1.4.3 1.9.8v-1c0-.7-.6-1.1-1.5-1.1c-.6 0-1.2.2-1.7.7l-.5-.7c.7-.6 1.5-1 2.4-1c1.3 0 2.3.6 2.3 2.1c.03-.03 0 3.9 0 3.9h-1s-.05-.66 0-.7zm0-1.6c-.4-.4-.9-.6-1.5-.6c-.8 0-1.4.4-1.4 1.1c0 .7.6 1.2 1.4 1.2c.6 0 1.1-.3 1.5-.7v-1zm9.7-1.6c0-.7-.3-1.1-1-1.1c-.6 0-1.2.4-1.5.8c.03.03 0 4.2 0 4.2h-1s-.04-3.88 0-3.9c0-.7-.3-1.1-1.1-1.1c-.5 0-1.1.4-1.4.8c.02.04 0 4.2 0 4.2h-1.1V3.7h1.1s.02.8 0 .8c.3-.4 1-1 1.9-1c.9 0 1.4.5 1.6 1.1c.3-.5 1.1-1.1 1.9-1.1c1.1 0 1.7.6 1.7 1.8c-.04-.01 0 4.2 0 4.2h-1.1s-.02-3.88 0-3.9zm5.2-2.1c1.7 0 2.8 1.4 2.8 3.2c.02-.03 0 .2 0 .2c0 0-4.56.04-4.6 0c.1 1 .8 1.8 2 1.8c.6 0 1.3-.2 1.7-.6l.5.7c-.5.5-1.4.8-2.3.8c-1.7 0-3-1.2-3-3c0-1.7 1.2-3.1 2.9-3.1zm-1.8 2.7h3.6c-.1-.8-.6-1.8-1.8-1.8c-1.2 0-1.7 1-1.8 1.8zm5.9 1.7c.4.5 1.1.9 1.9.9c.8 0 1.3-.4 1.3-.9c0-.5-.7-.7-1.4-.9c-1-.2-2.2-.5-2.2-1.7c0-1 .8-1.8 2.2-1.8c1 0 1.7.4 2.2.9l-.4.7c-.4-.4-1-.7-1.8-.7c-.7 0-1.1.3-1.1.8c0 .5.6.6 1.3.8c1 .2 2.2.5 2.2 1.8c0 1-.8 1.8-2.3 1.8c-1 0-1.9-.3-2.4-.9l.5-.8zm8.1-2.4c0-2.5 1.8-4.2 4.1-4.2c1.6 0 2.6.8 3.2 1.7l-1 .6c-.4-.7-1.2-1.2-2.2-1.2c-1.6 0-2.8 1.3-2.8 3.1c0 1.8 1.2 3.1 2.8 3.1c1 0 1.8-.5 2.2-1.2l1 .5c-.6 1-1.6 1.7-3.2 1.7c-2.3 0-4.1-1.7-4.1-4.1zm11.9 3.3c-.4.5-1.1.8-1.9.8c-.9 0-2-.6-2-1.9c0-1.3 1.1-1.9 2-1.9c.8 0 1.5.3 1.9.8v-1c0-.7-.6-1.1-1.4-1.1c-.6 0-1.2.2-1.7.7l-.5-.7c.7-.6 1.5-1 2.4-1c1.2 0 2.3.6 2.3 2.1v3.9h-1.1s.04-.66 0-.7zm0-1.6c-.3-.4-.9-.6-1.5-.6c-.7 0-1.3.4-1.3 1.1c0 .7.6 1.2 1.3 1.2c.6 0 1.2-.3 1.5-.7v-1zm2.7 4.5v-8h1.1v.8c.4-.6 1.1-1 1.9-1c1.5 0 2.6 1.2 2.6 3.1c0 1.9-1.1 3-2.6 3c-.8 0-1.4-.3-1.9-1v3.1h-1.1zm2.7-7.2c-.6 0-1.3.4-1.6.9v2.4c.3.5 1 .9 1.6.9c1.1 0 1.8-.9 1.8-2.1c0-1.2-.7-2.1-1.8-2.1zm4-2.5c0-.4.3-.7.7-.7c.3 0 .7.3.7.7c0 .4-.4.7-.7.7c-.4 0-.7-.3-.7-.7zm.1 1.7h1.1v5.8h-1.1V3.7zm2.9 4.5c.02 0 0-3.6 0-3.6h-.9v-.9h.9V2.1h1.1v1.6h1.2v.9h-1.2v3.4c0 .4.2.7.6.7c.2 0 .4-.1.5-.3l.3.9c-.2.2-.5.3-1.1.3c-.9 0-1.4-.5-1.4-1.4zm6.9.6c-.4.5-1.1.8-1.9.8c-.9 0-2-.6-2-1.9c0-1.3 1.1-1.9 2-1.9c.8 0 1.5.3 1.9.8v-1c0-.7-.6-1.1-1.4-1.1c-.6 0-1.2.2-1.7.7l-.5-.7c.7-.6 1.4-1 2.4-1c1.2 0 2.3.6 2.3 2.1v3.9h-1.1s.03-.66 0-.7zm0-1.6c-.3-.4-.9-.6-1.5-.6c-.7 0-1.3.4-1.3 1.1c0 .7.6 1.2 1.3 1.2c.6 0 1.2-.3 1.5-.7v-1zm2.7-5.7h1.1v8h-1.1v-8zM157 7.8h-4l-.6 1.7h-1.3l3.1-8h1.5l3.2 8h-1.3l-.6-1.7zm-3.6-1h3.2L155 2.5l-1.6 4.3zm10.5 1.9c-.5.5-1.2.9-1.9.9c-1.5 0-2.6-1.1-2.6-3c0-1.9 1.1-3.1 2.6-3.1c.7 0 1.4.4 1.9 1c-.03.02 0-3 0-3h1v8h-1s-.03-.85 0-.8zm0-3.3c-.3-.5-1-.9-1.6-.9c-1.1 0-1.8.9-1.8 2.1c0 1.2.7 2.1 1.8 2.1c.6 0 1.3-.4 1.6-.9V5.4zm1.8-1.7h1.2l1.8 4.5l1.8-4.5h1.1l-2.3 5.8h-1.2l-2.4-5.8zm6.5-1.7c0-.4.4-.7.7-.7c.4 0 .7.3.7.7c0 .4-.3.7-.7.7c-.3 0-.7-.3-.7-.7zm.2 1.7h1.1v5.8h-1.1V3.7zm2.7 4.2c.4.5 1.2.9 1.9.9c.9 0 1.3-.4 1.3-.9c0-.5-.7-.7-1.4-.9c-1-.2-2.2-.5-2.2-1.7c0-1 .8-1.8 2.2-1.8c1 0 1.8.4 2.3.9l-.5.7c-.4-.4-1-.7-1.7-.7c-.8 0-1.2.3-1.2.8c0 .5.6.6 1.3.8c1 .2 2.2.5 2.2 1.8c0 1-.8 1.8-2.3 1.8c-1 0-1.8-.3-2.4-.9l.5-.8zm5.1-1.3c0-1.7 1.1-3.1 2.9-3.1c1.9 0 3 1.4 3 3.1c0 1.7-1.1 3-3 3c-1.8 0-2.9-1.3-2.9-3zm4.7 0c0-1.1-.6-2.1-1.8-2.1c-1.1 0-1.8 1-1.8 2.1c0 1.1.7 2.1 1.8 2.1c1.2 0 1.8-1 1.8-2.1zm2.4-2.9h1.1v.9c.4-.6 1.1-1 1.9-1v1h-.4c-.5 0-1.3.4-1.5.8v4.1h-1.1V3.7zm4 4.2c.4.5 1.1.9 1.9.9c.8 0 1.3-.4 1.3-.9c0-.5-.7-.7-1.4-.9c-1-.2-2.2-.5-2.2-1.7c0-1 .8-1.8 2.2-1.8c1 0 1.7.4 2.2.9l-.4.7c-.4-.4-1-.7-1.8-.7c-.7 0-1.2.3-1.2.8c0 .5.7.6 1.4.8c1 .2 2.2.5 2.2 1.8c0 1-.8 1.8-2.3 1.8c-1 0-1.9-.3-2.4-.9l.5-.8zm5.3 2.7c.4-.2.7-.7.8-1.1h-.2c-.4 0-.6-.3-.6-.7c0-.4.3-.7.7-.7c.4 0 .8.4.8 1c0 .8-.4 1.5-1 1.9l-.5-.4zm5.9-9.1h1.2v8h-1.2v-8zm6.7 4.3c0-1-.5-1.3-1.2-1.3c-.7 0-1.3.4-1.6.8v4.2h-1.1V3.7h1.1v.8c.4-.5 1.2-1 2.1-1c1.2 0 1.8.7 1.8 1.9c.02.01 0 4.1 0 4.1h-1.1s.04-3.73 0-3.7zm5.3-2.3c1.1 0 1.8.5 2.2 1.1l-.7.6c-.4-.5-.9-.7-1.4-.7c-1.2 0-1.9.9-1.9 2.1c0 1.2.7 2.1 1.9 2.1c.5 0 1-.3 1.4-.8l.7.7c-.4.6-1.1 1-2.2 1c-1.7 0-2.9-1.3-2.9-3c0-1.8 1.2-3.1 2.9-3.1zm3.8 4.6c.4 0 .8.3.8.8c0 .4-.4.7-.8.7c-.4 0-.7-.3-.7-.7c0-.5.3-.8.7-.8zm4.9.4c3-2.3 4.4-3.5 4.4-4.7c0-1-.8-1.4-1.6-1.4c-.9 0-1.6.4-2.1 1l-.7-.8c.6-.8 1.7-1.2 2.8-1.2c1.5 0 2.8.8 2.8 2.4c0 1.5-1.5 2.9-3.7 4.6c.03.02 3.8 0 3.8 0v1.1h-5.7s.02-.97 0-1zm10.1-7.1c2.2 0 3.1 2.1 3.1 4.1c0 2-.9 4.1-3.1 4.1c-2.3 0-3.2-2.1-3.2-4.1c0-2 .9-4.1 3.2-4.1zm0 1c-1.5 0-2 1.5-2 3.1c0 1.5.5 3.1 2 3.1c1.4 0 1.9-1.6 1.9-3.1c0-1.6-.5-3.1-1.9-3.1zm4.1 6.1c3-2.3 4.4-3.5 4.4-4.7c0-1-.8-1.4-1.5-1.4c-1 0-1.7.4-2.2 1l-.7-.8c.6-.8 1.7-1.2 2.8-1.2c1.5 0 2.8.8 2.8 2.4c0 1.5-1.5 2.9-3.7 4.6c.05.02 3.8 0 3.8 0v1.1h-5.7s.04-.97 0-1zM246 3l-1.3 1.4l-.7-.7l2.2-2.2h1v8H246V3z" stroke="none" fill="#cccccc"/></g></svg>