<?xml version="1.0" standalone="no"?><!DOCTYPE svg PUBLIC "-//W3C//DTD SVG 1.1//EN" "http://www.w3.org/Graphics/SVG/1.1/DTD/svg11.dtd"><svg xmlns="http://www.w3.org/2000/svg" version="1.1" width="292.2px" height="47.4px" viewBox="0 -10 292.2 47.4" style="top:-10px"><desc>XXXX</desc><defs/><g id="Polygon64298"><path d="m9.3 14.6l-5.7 7.7H.2l7.2-9.7L.6 3.5h3.4l5.3 7.2l5.2-7.2h3.4l-6.8 9.1l7.2 9.7h-3.4l-5.6-7.7zm18.2 0l-5.6 7.7h-3.5l7.3-9.7l-6.8-9.1h3.4l5.2 7.2l5.2-7.2h3.4l-6.7 9.1l7.1 9.7h-3.4l-5.6-7.7zm18.2 0l-5.6 7.7h-3.4l7.2-9.7l-6.8-9.1h3.4l5.2 7.2l5.2-7.2h3.5l-6.8 9.1l7.2 9.7h-3.4l-5.7-7.7zm18.3 0l-5.7 7.7h-3.4l7.2-9.7l-6.8-9.1h3.5l5.2 7.2l5.2-7.2h3.4l-6.8 9.1l7.2 9.7h-3.4L64 14.6z" stroke="none" fill="#282828"/></g></svg>