<?xml version="1.0" standalone="no"?>
<!DOCTYPE svg PUBLIC "-//W3C//DTD SVG 1.1//EN" "http://www.w3.org/Graphics/SVG/1.1/DTD/svg11.dtd">
<svg xmlns="http://www.w3.org/2000/svg" version="1.1" width="158px" height="27.9px" viewBox="0 -6 158 27.9" style="top:-6px">
  <desc>Commencement Date</desc>
  <defs/>
  <g id="Polygon278134">
    <path d="M 0.7 7.3 C 0.7 4 3.1 1.8 6.2 1.8 C 8.2 1.8 9.5 2.8 10.4 4 C 10.4 4 9 4.7 9 4.7 C 8.5 3.8 7.4 3.2 6.2 3.2 C 4 3.2 2.4 4.9 2.4 7.3 C 2.4 9.6 4 11.3 6.2 11.3 C 7.4 11.3 8.5 10.7 9 9.8 C 9 9.8 10.4 10.5 10.4 10.5 C 9.5 11.7 8.2 12.7 6.2 12.7 C 3.1 12.7 0.7 10.5 0.7 7.3 Z M 11.5 8.7 C 11.5 6.5 12.9 4.7 15.3 4.7 C 17.7 4.7 19.2 6.5 19.2 8.7 C 19.2 10.9 17.7 12.7 15.3 12.7 C 12.9 12.7 11.5 10.9 11.5 8.7 Z M 17.7 8.7 C 17.7 7.3 16.9 6 15.3 6 C 13.8 6 12.9 7.3 12.9 8.7 C 12.9 10.2 13.8 11.5 15.3 11.5 C 16.9 11.5 17.7 10.2 17.7 8.7 Z M 30.3 7.4 C 30.3 6.5 29.9 6 29 6 C 28.2 6 27.5 6.5 27.1 7.1 C 27.09 7.05 27.1 12.5 27.1 12.5 L 25.7 12.5 C 25.7 12.5 25.67 7.43 25.7 7.4 C 25.7 6.5 25.3 6 24.3 6 C 23.6 6 22.8 6.5 22.4 7.1 C 22.44 7.07 22.4 12.5 22.4 12.5 L 21 12.5 L 21 4.9 L 22.4 4.9 C 22.4 4.9 22.44 5.95 22.4 6 C 22.8 5.5 23.8 4.7 24.9 4.7 C 26.1 4.7 26.8 5.3 27 6.1 C 27.4 5.4 28.5 4.7 29.6 4.7 C 31 4.7 31.8 5.5 31.8 7 C 31.76 7 31.8 12.5 31.8 12.5 L 30.3 12.5 C 30.3 12.5 30.34 7.43 30.3 7.4 Z M 43.4 7.4 C 43.4 6.5 43 6 42 6 C 41.2 6 40.5 6.5 40.1 7.1 C 40.12 7.05 40.1 12.5 40.1 12.5 L 38.7 12.5 C 38.7 12.5 38.69 7.43 38.7 7.4 C 38.7 6.5 38.3 6 37.3 6 C 36.6 6 35.8 6.5 35.5 7.1 C 35.46 7.07 35.5 12.5 35.5 12.5 L 34 12.5 L 34 4.9 L 35.5 4.9 C 35.5 4.9 35.46 5.95 35.5 6 C 35.8 5.5 36.8 4.7 37.9 4.7 C 39.1 4.7 39.8 5.3 40 6.1 C 40.5 5.4 41.5 4.7 42.6 4.7 C 44 4.7 44.8 5.5 44.8 7 C 44.79 7 44.8 12.5 44.8 12.5 L 43.4 12.5 C 43.4 12.5 43.36 7.43 43.4 7.4 Z M 50.4 4.7 C 52.7 4.7 54.2 6.5 54.2 8.8 C 54.16 8.83 54.2 9.2 54.2 9.2 C 54.2 9.2 48.09 9.18 48.1 9.2 C 48.2 10.5 49.2 11.6 50.7 11.6 C 51.5 11.6 52.4 11.2 53 10.7 C 53 10.7 53.6 11.6 53.6 11.6 C 52.9 12.3 51.8 12.7 50.6 12.7 C 48.3 12.7 46.6 11.1 46.6 8.7 C 46.6 6.5 48.2 4.7 50.4 4.7 Z M 48.1 8.1 C 48.1 8.1 52.8 8.1 52.8 8.1 C 52.7 7.1 52 5.9 50.4 5.9 C 48.9 5.9 48.2 7.1 48.1 8.1 Z M 61.1 7.6 C 61.1 6.4 60.5 6 59.5 6 C 58.6 6 57.8 6.5 57.4 7.1 C 57.38 7.07 57.4 12.5 57.4 12.5 L 56 12.5 L 56 4.9 L 57.4 4.9 C 57.4 4.9 57.38 5.95 57.4 6 C 57.9 5.3 58.9 4.7 60.1 4.7 C 61.7 4.7 62.6 5.5 62.6 7.2 C 62.56 7.16 62.6 12.5 62.6 12.5 L 61.1 12.5 C 61.1 12.5 61.13 7.64 61.1 7.6 Z M 68.3 4.7 C 69.7 4.7 70.6 5.3 71.1 6 C 71.1 6 70.2 6.9 70.2 6.9 C 69.7 6.3 69.1 6 68.3 6 C 66.8 6 65.8 7.1 65.8 8.7 C 65.8 10.3 66.8 11.5 68.3 11.5 C 69.1 11.5 69.7 11.2 70.2 10.5 C 70.2 10.5 71.1 11.4 71.1 11.4 C 70.6 12.1 69.7 12.7 68.3 12.7 C 65.9 12.7 64.4 11 64.4 8.7 C 64.4 6.4 65.9 4.7 68.3 4.7 Z M 76.1 4.7 C 78.4 4.7 79.8 6.5 79.8 8.8 C 79.81 8.83 79.8 9.2 79.8 9.2 C 79.8 9.2 73.74 9.18 73.7 9.2 C 73.9 10.5 74.8 11.6 76.3 11.6 C 77.2 11.6 78 11.2 78.6 10.7 C 78.6 10.7 79.3 11.6 79.3 11.6 C 78.5 12.3 77.4 12.7 76.2 12.7 C 73.9 12.7 72.2 11.1 72.2 8.7 C 72.2 6.5 73.8 4.7 76.1 4.7 Z M 73.7 8.1 C 73.7 8.1 78.4 8.1 78.4 8.1 C 78.4 7.1 77.7 5.9 76.1 5.9 C 74.5 5.9 73.8 7.1 73.7 8.1 Z M 90.9 7.4 C 90.9 6.5 90.5 6 89.6 6 C 88.8 6 88 6.5 87.7 7.1 C 87.68 7.05 87.7 12.5 87.7 12.5 L 86.3 12.5 C 86.3 12.5 86.26 7.43 86.3 7.4 C 86.3 6.5 85.9 6 84.9 6 C 84.2 6 83.4 6.5 83 7.1 C 83.03 7.07 83 12.5 83 12.5 L 81.6 12.5 L 81.6 4.9 L 83 4.9 C 83 4.9 83.03 5.95 83 6 C 83.3 5.5 84.4 4.7 85.5 4.7 C 86.7 4.7 87.4 5.3 87.6 6.1 C 88 5.4 89.1 4.7 90.2 4.7 C 91.6 4.7 92.4 5.5 92.4 7 C 92.35 7 92.4 12.5 92.4 12.5 L 90.9 12.5 C 90.9 12.5 90.93 7.43 90.9 7.4 Z M 98 4.7 C 100.3 4.7 101.7 6.5 101.7 8.8 C 101.72 8.83 101.7 9.2 101.7 9.2 C 101.7 9.2 95.66 9.18 95.7 9.2 C 95.8 10.5 96.7 11.6 98.3 11.6 C 99.1 11.6 100 11.2 100.5 10.7 C 100.5 10.7 101.2 11.6 101.2 11.6 C 100.4 12.3 99.4 12.7 98.1 12.7 C 95.8 12.7 94.2 11.1 94.2 8.7 C 94.2 6.5 95.8 4.7 98 4.7 Z M 95.6 8.1 C 95.6 8.1 100.3 8.1 100.3 8.1 C 100.3 7.1 99.6 5.9 98 5.9 C 96.5 5.9 95.7 7.1 95.6 8.1 Z M 108.7 7.6 C 108.7 6.4 108 6 107.1 6 C 106.2 6 105.4 6.5 104.9 7.1 C 104.95 7.07 104.9 12.5 104.9 12.5 L 103.5 12.5 L 103.5 4.9 L 104.9 4.9 C 104.9 4.9 104.95 5.95 104.9 6 C 105.5 5.3 106.5 4.7 107.7 4.7 C 109.3 4.7 110.1 5.5 110.1 7.2 C 110.13 7.16 110.1 12.5 110.1 12.5 L 108.7 12.5 C 108.7 12.5 108.7 7.64 108.7 7.6 Z M 112.7 10.8 C 112.68 10.85 112.7 6.1 112.7 6.1 L 111.4 6.1 L 111.4 4.9 L 112.7 4.9 L 112.7 2.8 L 114.1 2.8 L 114.1 4.9 L 115.7 4.9 L 115.7 6.1 L 114.1 6.1 C 114.1 6.1 114.11 10.53 114.1 10.5 C 114.1 11.1 114.4 11.5 114.9 11.5 C 115.2 11.5 115.5 11.3 115.6 11.2 C 115.6 11.2 116 12.2 116 12.2 C 115.7 12.5 115.3 12.7 114.5 12.7 C 113.3 12.7 112.7 12.1 112.7 10.8 Z M 121.4 2 C 121.4 2 125.17 1.95 125.2 2 C 128.5 2 130.7 4.2 130.7 7.3 C 130.7 10.3 128.5 12.5 125.2 12.5 C 125.17 12.55 121.4 12.5 121.4 12.5 L 121.4 2 Z M 125.2 11.2 C 127.6 11.2 129 9.4 129 7.3 C 129 5.1 127.7 3.4 125.2 3.4 C 125.17 3.35 123 3.4 123 3.4 L 123 11.2 C 123 11.2 125.17 11.15 125.2 11.2 Z M 137.3 11.7 C 136.7 12.4 135.8 12.7 134.8 12.7 C 133.5 12.7 132.1 11.9 132.1 10.2 C 132.1 8.4 133.5 7.7 134.8 7.7 C 135.8 7.7 136.7 8 137.3 8.7 C 137.3 8.7 137.3 7.4 137.3 7.4 C 137.3 6.5 136.5 5.9 135.4 5.9 C 134.5 5.9 133.8 6.2 133.1 6.9 C 133.1 6.9 132.5 5.9 132.5 5.9 C 133.3 5.1 134.4 4.7 135.6 4.7 C 137.3 4.7 138.7 5.4 138.7 7.4 C 138.71 7.37 138.7 12.5 138.7 12.5 L 137.3 12.5 C 137.3 12.5 137.29 11.71 137.3 11.7 Z M 137.3 9.6 C 136.9 9 136.1 8.7 135.3 8.7 C 134.3 8.7 133.6 9.3 133.6 10.2 C 133.6 11.1 134.3 11.7 135.3 11.7 C 136.1 11.7 136.9 11.4 137.3 10.9 C 137.3 10.9 137.3 9.6 137.3 9.6 Z M 141.3 10.8 C 141.29 10.85 141.3 6.1 141.3 6.1 L 140 6.1 L 140 4.9 L 141.3 4.9 L 141.3 2.8 L 142.7 2.8 L 142.7 4.9 L 144.3 4.9 L 144.3 6.1 L 142.7 6.1 C 142.7 6.1 142.72 10.53 142.7 10.5 C 142.7 11.1 143 11.5 143.5 11.5 C 143.8 11.5 144.1 11.3 144.2 11.2 C 144.2 11.2 144.6 12.2 144.6 12.2 C 144.3 12.5 143.9 12.7 143.1 12.7 C 141.9 12.7 141.3 12.1 141.3 10.8 Z M 149.2 4.7 C 151.5 4.7 153 6.5 153 8.8 C 152.96 8.83 153 9.2 153 9.2 C 153 9.2 146.89 9.18 146.9 9.2 C 147 10.5 148 11.6 149.5 11.6 C 150.3 11.6 151.2 11.2 151.8 10.7 C 151.8 10.7 152.4 11.6 152.4 11.6 C 151.7 12.3 150.6 12.7 149.4 12.7 C 147.1 12.7 145.4 11.1 145.4 8.7 C 145.4 6.5 147 4.7 149.2 4.7 Z M 146.9 8.1 C 146.9 8.1 151.6 8.1 151.6 8.1 C 151.5 7.1 150.8 5.9 149.2 5.9 C 147.7 5.9 147 7.1 146.9 8.1 Z " stroke="none" fill="#000"/>
  </g>
</svg>