<?xml version="1.0" standalone="no"?><!DOCTYPE svg PUBLIC "-//W3C//DTD SVG 1.1//EN" "http://www.w3.org/Graphics/SVG/1.1/DTD/svg11.dtd"><svg xmlns="http://www.w3.org/2000/svg" version="1.1" width="109.4px" height="16.9px" viewBox="0 -4 109.4 16.9" style="top:-4px"><desc>Agent 1</desc><defs/><g id="Polygon76826"><path d="m.4 4.1C.4 2.3 1.8 1 3.5 1c1.2 0 1.9.6 2.4 1.3l-.8.4c-.3-.5-.9-.9-1.6-.9c-1.2 0-2.2 1-2.2 2.3c0 1.4 1 2.3 2.2 2.3c.7 0 1.3-.4 1.6-.9l.8.4c-.5.8-1.2 1.3-2.4 1.3C1.8 7.2.4 6 .4 4.1zm6 .8c0-1.2.8-2.2 2.2-2.2c1.4 0 2.2 1 2.2 2.2c0 1.3-.8 2.3-2.2 2.3c-1.4 0-2.2-1-2.2-2.3zm3.5 0c0-.8-.4-1.5-1.3-1.5c-.9 0-1.4.7-1.4 1.5c0 .9.5 1.6 1.4 1.6c.9 0 1.3-.7 1.3-1.6zm7.1-.7c0-.5-.2-.8-.7-.8c-.5 0-.9.3-1.1.6c-.03 0 0 3.1 0 3.1h-.8s-.04-2.89 0-2.9c0-.5-.3-.8-.8-.8c-.4 0-.8.3-1.1.6c.04 0 0 3.1 0 3.1h-.8V2.8h.8s.04.57 0 .6c.2-.3.8-.7 1.4-.7c.7 0 1.1.3 1.2.8c.3-.4.8-.8 1.5-.8c.8 0 1.2.4 1.2 1.3c.02-.03 0 3.1 0 3.1h-.8V4.2zm2 4.6v-6h.8s.03.58 0 .6c.3-.4.9-.7 1.4-.7c1.2 0 2 .8 2 2.2c0 1.5-.8 2.3-2 2.3c-.5 0-1-.2-1.4-.7c.03-.02 0 2.3 0 2.3h-.8zm2-5.4c-.5 0-1 .3-1.2.6v1.9c.2.3.7.6 1.2.6c.8 0 1.3-.7 1.3-1.6c0-.9-.5-1.5-1.3-1.5zm5.8 3.2c-.3.4-.8.6-1.4.6c-.7 0-1.5-.5-1.5-1.4c0-1 .8-1.4 1.5-1.4c.6 0 1.1.1 1.4.5v-.7c0-.5-.4-.9-1.1-.9c-.5 0-.9.2-1.3.6l-.3-.5c.5-.5 1.1-.7 1.8-.7c.9 0 1.7.4 1.7 1.5v2.9h-.8v-.5zm0-1.2c-.2-.3-.7-.5-1.1-.5c-.6 0-1 .4-1 .9c0 .5.4.9 1 .9c.4 0 .9-.2 1.1-.5v-.8zm5-1.1c0-.7-.4-.9-1-.9c-.5 0-.9.3-1.2.6c.03 0 0 3.1 0 3.1h-.8V2.8h.8s.03.57 0 .6c.3-.4.9-.7 1.6-.7c.9 0 1.4.4 1.4 1.4c-.04-.04 0 3 0 3h-.8s-.05-2.77 0-2.8zM34 8.2c.3 0 .5-.1.7-.5c-.04.03.2-.5.2-.5l-1.8-4.4h.9l1.3 3.4l1.4-3.4h.9s-2.17 5.14-2.2 5.1c-.2.7-.7 1-1.4 1c-.1 0-.3-.1-.5-.1l.2-.7c.1 0 .2.1.3.1z" stroke="none" fill="#888888"/></g></svg>