<?xml version="1.0" standalone="no"?><!DOCTYPE svg PUBLIC "-//W3C//DTD SVG 1.1//EN" "http://www.w3.org/Graphics/SVG/1.1/DTD/svg11.dtd"><svg xmlns="http://www.w3.org/2000/svg" version="1.1" width="134px" height="27.3px" viewBox="0 -6 134 27.3" style="top:-6px"><desc>7 20%</desc><defs/><g id="Polygon112412"><path d="m100.2 2.8h-5.9v-.8h7v.6l-4.6 9.9h-1l4.5-9.7zm1.7 8.5c.4 0 .8.3.8.7c0 .4-.4.7-.8.7c-.3 0-.7-.3-.7-.7c0-.4.4-.7.7-.7zm2.7.5c3.6-2.9 6-5 6-7c0-1.5-1.3-2.2-2.4-2.2c-1.3 0-2.4.6-2.9 1.4l-.6-.6c.7-1 2-1.6 3.5-1.6c1.5 0 3.3.9 3.3 3c0 2.3-2.4 4.4-5.5 6.9c-.01.02 5.6 0 5.6 0v.8h-7s-.03-.7 0-.7zm13.2-10c2.8 0 3.9 2.9 3.9 5.5c0 2.5-1.1 5.4-3.9 5.4c-2.9 0-4-2.9-4-5.4c0-2.6 1.1-5.5 4-5.5zm0 .8c-2.3 0-3 2.5-3 4.7c0 2.1.7 4.6 3 4.6c2.2 0 2.9-2.5 2.9-4.6c0-2.2-.7-4.7-2.9-4.7zm7.8-.8c1.5 0 2.5 1.1 2.5 2.6c0 1.5-1 2.6-2.5 2.6c-1.5 0-2.5-1.1-2.5-2.6c0-1.5 1-2.6 2.5-2.6zm5.8.2h.7l-6.8 10.5h-.7L131.4 2zm-5.8.4c-1 0-1.8.9-1.8 2c0 1.1.8 2 1.8 2c1 0 1.8-.9 1.8-2c0-1.1-.8-2-1.8-2zm5.4 5.1c1.5 0 2.5 1.2 2.5 2.6c0 1.5-1 2.6-2.5 2.6c-1.5 0-2.5-1.1-2.5-2.6c0-1.4 1-2.6 2.5-2.6zm0 .7c-1.1 0-1.8.9-1.8 1.9c0 1.1.7 2 1.8 2c1 0 1.7-.9 1.7-2c0-1-.7-1.9-1.7-1.9z" stroke="none" fill="#000"/></g></svg>