<?xml version="1.0" standalone="no"?><!DOCTYPE svg PUBLIC "-//W3C//DTD SVG 1.1//EN" "http://www.w3.org/Graphics/SVG/1.1/DTD/svg11.dtd"><svg xmlns="http://www.w3.org/2000/svg" xmlns:xlink="http://www.w3.org/1999/xlink" version="1.1" width="155.5px" height="44.9px" viewBox="0 -14 155.5 44.9" style="top:-14px"><desc/><defs/><g id="Polygon52960"><path d="m3.1 6.9L10 3.3v.8L3.9 7.2l6.1 3.1v.8L3.1 7.5v-.6zm7.9 0l6.9-3.6v.8l-6.1 3.1l6.1 3.1v.8L11 7.5v-.6zM22.8 8l-4.2-6h1.1l3.6 5.2L26.9 2h1.1l-4.3 6v4.5h-.9V8zm7.9-3.3c2.3 0 3.6 1.8 3.6 4.1v.2s-6.41-.03-6.4 0c.1 1.6 1.2 3 3 3c1 0 1.8-.3 2.5-1l.4.5c-.7.8-1.7 1.2-3 1.2c-2.2 0-3.8-1.6-3.8-4c0-2.2 1.6-4 3.7-4zm-2.8 3.6h5.6c-.1-1.3-.9-2.9-2.8-2.9c-1.8 0-2.7 1.6-2.8 2.9zm13.4 3.3c-.7.8-1.5 1.1-2.6 1.1c-1.3 0-2.7-.9-2.7-2.5c0-1.7 1.4-2.5 2.7-2.5c1.1 0 1.9.3 2.6 1V7.2c0-1.1-.9-1.8-2.1-1.8c-.9 0-1.7.3-2.4 1.1l-.4-.5c.8-.9 1.7-1.3 2.9-1.3c1.6 0 2.8.7 2.8 2.4c.03.05 0 5.4 0 5.4h-.8s.01-.86 0-.9zm0-2.2c-.5-.7-1.4-1.1-2.3-1.1c-1.3 0-2.1.8-2.1 1.9c0 1.1.8 1.9 2.1 1.9c.9 0 1.8-.4 2.3-1.1V9.4zm3.4-4.5h.8s.03 1.29 0 1.3c.7-.9 1.6-1.5 2.6-1.5v.9h-.4c-.8 0-1.8.7-2.2 1.4c.03-.04 0 5.5 0 5.5h-.8V4.9zm4.9 6c.5.6 1.3 1.1 2.4 1.1c1.3 0 2.1-.6 2.1-1.5c0-1-1.1-1.3-2.2-1.5c-1.2-.4-2.6-.7-2.6-2.2c0-1.2.9-2.1 2.7-2.1c1.3 0 2.2.5 2.7 1.1l-.4.6c-.5-.6-1.3-1-2.3-1c-1.2 0-1.9.6-1.9 1.4c0 .8.9 1.1 2 1.3c1.3.4 2.8.7 2.8 2.4c0 1.2-1 2.2-2.9 2.2c-1.2 0-2.2-.3-2.9-1.2l.5-.6zm11.3-8c0-.3.3-.6.7-.6c.3 0 .6.3.6.6c0 .4-.3.7-.6.7c-.4 0-.7-.3-.7-.7zm.2 2h.9v7.6h-.9V4.9zm8.6 2.5c0-1.5-.7-2-1.8-2c-1 0-2 .7-2.5 1.3c-.03.05 0 5.8 0 5.8h-.9V4.9h.9s-.03 1.13 0 1.1c.5-.6 1.6-1.3 2.7-1.3c1.6 0 2.4.7 2.4 2.5c.05-.02 0 5.3 0 5.3h-.8s.02-5.13 0-5.1zM77.3 2s4.32-.05 4.3 0c1.8 0 2.9 1 2.9 2.7c0 1.3-.9 2.2-1.8 2.4c1.1.2 2 1.3 2 2.6c0 1.8-1.1 2.8-3 2.8c0 .05-4.4 0-4.4 0V2zm4.2 4.7c1.4 0 2.1-.9 2.1-2c0-1-.7-1.9-2.1-1.9c.01-.02-3.3 0-3.3 0v3.9h3.3zm.1 5c1.4 0 2.2-.8 2.2-2.1c0-1.1-.8-2.1-2.2-2.1c-.03.03-3.4 0-3.4 0v4.2s3.37.02 3.4 0zm10.6-.3c-.7.7-1.7 1.3-2.8 1.3c-1.6 0-2.4-.7-2.4-2.4V4.9h.8v5.2c0 1.5.8 1.9 1.9 1.9c1 0 2-.6 2.5-1.3c-.04.02 0-5.8 0-5.8h.8v7.6h-.8s-.04-1.08 0-1.1zm3.2-.5c.5.6 1.4 1.1 2.5 1.1c1.3 0 2-.6 2-1.5c0-1-1-1.3-2.1-1.5c-1.3-.4-2.7-.7-2.7-2.2c0-1.2 1-2.1 2.7-2.1c1.3 0 2.2.5 2.7 1.1l-.4.6c-.5-.6-1.3-1-2.3-1c-1.2 0-1.9.6-1.9 1.4c0 .8 1 1.1 2 1.3c1.3.4 2.8.7 2.8 2.4c0 1.2-.9 2.2-2.9 2.2c-1.2 0-2.1-.3-2.9-1.2l.5-.6zm7.2-8c0-.3.3-.6.7-.6c.3 0 .6.3.6.6c0 .4-.3.7-.6.7c-.4 0-.7-.3-.7-.7zm.3 2h.8v7.6h-.8V4.9zm8.5 2.5c0-1.5-.7-2-1.8-2c-1 0-2 .7-2.5 1.3c-.02.05 0 5.8 0 5.8h-.8V4.9h.8s-.02 1.13 0 1.1c.5-.6 1.6-1.3 2.7-1.3c1.6 0 2.5.7 2.5 2.5c-.05-.02 0 5.3 0 5.3h-.9s.03-5.13 0-5.1zm6.7-2.7c2.3 0 3.6 1.8 3.6 4.1v.2s-6.41-.03-6.4 0c.1 1.6 1.2 3 3 3c1 0 1.8-.3 2.5-1l.4.5c-.7.8-1.7 1.2-3 1.2c-2.2 0-3.8-1.6-3.8-4c0-2.2 1.6-4 3.7-4zm-2.8 3.6h5.6c-.1-1.3-.9-2.9-2.8-2.9c-1.8 0-2.8 1.6-2.8 2.9zm8.4 2.6c.4.6 1.3 1.1 2.4 1.1c1.3 0 2.1-.6 2.1-1.5c0-1-1.1-1.3-2.2-1.5c-1.2-.4-2.7-.7-2.7-2.2c0-1.2 1-2.1 2.8-2.1c1.3 0 2.2.5 2.7 1.1l-.4.6c-.5-.6-1.3-1-2.3-1c-1.2 0-2 .6-2 1.4c0 .8 1 1.1 2.1 1.3c1.3.4 2.8.7 2.8 2.4c0 1.2-1 2.2-2.9 2.2c-1.2 0-2.2-.3-2.9-1.2l.5-.6zm7.2 0c.5.6 1.4 1.1 2.5 1.1c1.3 0 2.1-.6 2.1-1.5c0-1-1.1-1.3-2.2-1.5c-1.3-.4-2.7-.7-2.7-2.2c0-1.2 1-2.1 2.8-2.1c1.3 0 2.2.5 2.7 1.1l-.5.6c-.4-.6-1.2-1-2.2-1c-1.2 0-2 .6-2 1.4c0 .8 1 1.1 2.1 1.3c1.3.4 2.8.7 2.8 2.4c0 1.2-1 2.2-2.9 2.2c-1.2 0-2.2-.3-2.9-1.2l.4-.6zm6.7-.6l6.1-3.1l-6.1-3.1v-.8l6.9 3.6v.6l-6.9 3.6v-.8zm7.9 0l6.1-3.1l-6.1-3.1v-.8l6.9 3.6v.6l-6.9 3.6v-.8z" stroke="none" fill="#000"/><a xlink:href="DBF_Years%20in%20Business" xlink:show="new" xlink:title="&lt;&lt;Years in Business&gt;&gt;"><rect style="fill:transparent;" x="2" y="1" width="150" height="12"/></a></g></svg>