<?xml version="1.0" standalone="no"?><!DOCTYPE svg PUBLIC "-//W3C//DTD SVG 1.1//EN" "http://www.w3.org/Graphics/SVG/1.1/DTD/svg11.dtd"><svg xmlns="http://www.w3.org/2000/svg" version="1.1" width="62px" height="16.9px" viewBox="0 -4 62 16.9" style="top:-4px"><desc>Zip</desc><defs/><g id="Polygon274629"><path d="m.4 6.4l3.2-4.5H.4v-.8h4.4v.7L1.6 6.3h3.3v.8H.4v-.7zm5.4-4.9c0-.3.2-.5.5-.5c.3 0 .5.2.5.5c0 .3-.2.5-.5.5c-.3 0-.5-.2-.5-.5zm.1 1.3h.8v4.3h-.8V2.8zm2.1 6v-6h.8s.04.58 0 .6c.4-.4.9-.7 1.5-.7c1.1 0 1.9.8 1.9 2.2c0 1.5-.8 2.3-1.9 2.3c-.6 0-1.1-.2-1.5-.7c.04-.02 0 2.3 0 2.3h-.8zm2-5.4c-.5 0-.9.3-1.2.6v1.9c.3.3.7.6 1.2.6c.9 0 1.3-.7 1.3-1.6c0-.9-.4-1.5-1.3-1.5z" stroke="none" fill="#000"/></g></svg>