<?xml version="1.0" standalone="no"?>
<!DOCTYPE svg PUBLIC "-//W3C//DTD SVG 1.1//EN" "http://www.w3.org/Graphics/SVG/1.1/DTD/svg11.dtd">
<svg xmlns="http://www.w3.org/2000/svg" version="1.1" width="60.3px" height="27.5px" viewBox="0 -6 60.3 27.5" style="top:-6px">
  <desc>Agent 1</desc>
  <defs/>
  <g id="Polygon267713">
    <path d="M 6.1 8.7 C 6.1 8.7 6.1 10.3 6.1 10.3 C 6.1 11.7 5.4 12.4 4.2 12.5 C 4.19 12.54 4.2 13.7 4.2 13.7 L 2.5 13.7 C 2.5 13.7 2.54 12.56 2.5 12.6 C 1.3 12.4 0.6 11.7 0.6 10.3 C 0.58 10.27 0.6 8.3 0.6 8.3 L 2.4 8.3 C 2.4 8.3 2.4 10.02 2.4 10 C 2.4 10.7 2.8 11 3.4 11 C 3.9 11 4.3 10.7 4.3 10 C 4.3 10 4.3 9.1 4.3 9.1 C 4.3 8.6 4.1 8.3 3.6 8 C 3.6 8 2.3 7.2 2.3 7.2 C 1.2 6.6 0.6 6.1 0.6 4.9 C 0.6 4.9 0.6 3.5 0.6 3.5 C 0.6 2.1 1.4 1.4 2.5 1.2 C 2.54 1.22 2.5 0 2.5 0 L 4.2 0 C 4.2 0 4.19 1.22 4.2 1.2 C 5.3 1.4 6.1 2.1 6.1 3.5 C 6.11 3.46 6.1 5.3 6.1 5.3 L 4.3 5.3 C 4.3 5.3 4.29 3.71 4.3 3.7 C 4.3 3 3.9 2.8 3.3 2.8 C 2.8 2.8 2.4 3 2.4 3.7 C 2.4 3.7 2.4 4.5 2.4 4.5 C 2.4 5.1 2.6 5.3 3.1 5.6 C 3.1 5.6 4.4 6.4 4.4 6.4 C 5.5 7 6.1 7.5 6.1 8.7 Z M 12.8 3.5 C 12.8 3.5 12.8 10.2 12.8 10.2 C 12.8 11.9 11.8 12.6 10.1 12.6 C 10.1 12.6 10 12.6 10 12.6 C 8.3 12.6 7.3 11.9 7.3 10.2 C 7.3 10.2 7.3 3.5 7.3 3.5 C 7.3 1.8 8.3 1.2 10 1.2 C 10 1.2 10.1 1.2 10.1 1.2 C 11.8 1.2 12.8 1.8 12.8 3.5 Z M 10 2.8 C 9.4 2.8 9.1 3 9.1 3.8 C 9.1 3.8 9.1 10 9.1 10 C 9.1 10.8 9.4 11 10 11 C 10.6 11 11 10.8 11 10 C 11 10 11 3.8 11 3.8 C 11 3 10.6 2.8 10 2.8 Z M 15.8 12 C 15.8 13 15.3 14 14.8 14.6 C 14.8 14.6 14.1 14.2 14.1 14.2 C 14.4 13.7 14.8 13 14.8 12.5 C 14.83 12.48 14 12.5 14 12.5 L 14 10.4 L 15.8 10.4 C 15.8 10.4 15.81 12 15.8 12 Z M 22.5 3.5 C 22.5 3.5 22.5 10.2 22.5 10.2 C 22.5 11.9 21.5 12.6 19.8 12.6 C 19.8 12.6 19.7 12.6 19.7 12.6 C 18 12.6 17 11.9 17 10.2 C 17 10.2 17 3.5 17 3.5 C 17 1.8 18 1.2 19.7 1.2 C 19.7 1.2 19.8 1.2 19.8 1.2 C 21.5 1.2 22.5 1.8 22.5 3.5 Z M 19.8 2.8 C 19.2 2.8 18.8 3 18.8 3.8 C 18.8 3.8 18.8 10 18.8 10 C 18.8 10.8 19.2 11 19.8 11 C 20.4 11 20.7 10.8 20.7 10 C 20.7 10 20.7 3.8 20.7 3.8 C 20.7 3 20.4 2.8 19.8 2.8 Z M 29.3 3.5 C 29.3 3.5 29.3 10.2 29.3 10.2 C 29.3 11.9 28.3 12.6 26.7 12.6 C 26.7 12.6 26.5 12.6 26.5 12.6 C 24.8 12.6 23.8 11.9 23.8 10.2 C 23.8 10.2 23.8 3.5 23.8 3.5 C 23.8 1.8 24.8 1.2 26.5 1.2 C 26.5 1.2 26.7 1.2 26.7 1.2 C 28.3 1.2 29.3 1.8 29.3 3.5 Z M 26.6 2.8 C 26 2.8 25.6 3 25.6 3.8 C 25.6 3.8 25.6 10 25.6 10 C 25.6 10.8 26 11 26.6 11 C 27.2 11 27.6 10.8 27.6 10 C 27.6 10 27.6 3.8 27.6 3.8 C 27.6 3 27.2 2.8 26.6 2.8 Z M 36.2 3.5 C 36.2 3.5 36.2 10.2 36.2 10.2 C 36.2 11.9 35.2 12.6 33.5 12.6 C 33.5 12.6 33.3 12.6 33.3 12.6 C 31.7 12.6 30.7 11.9 30.7 10.2 C 30.7 10.2 30.7 3.5 30.7 3.5 C 30.7 1.8 31.7 1.2 33.3 1.2 C 33.3 1.2 33.5 1.2 33.5 1.2 C 35.2 1.2 36.2 1.8 36.2 3.5 Z M 33.4 2.8 C 32.8 2.8 32.4 3 32.4 3.8 C 32.4 3.8 32.4 10 32.4 10 C 32.4 10.8 32.8 11 33.4 11 C 34 11 34.4 10.8 34.4 10 C 34.4 10 34.4 3.8 34.4 3.8 C 34.4 3 34 2.8 33.4 2.8 Z M 39.2 12 C 39.2 13 38.7 14 38.2 14.6 C 38.2 14.6 37.5 14.2 37.5 14.2 C 37.8 13.7 38.1 13 38.2 12.5 C 38.22 12.48 37.4 12.5 37.4 12.5 L 37.4 10.4 L 39.2 10.4 C 39.2 10.4 39.2 12 39.2 12 Z M 45.9 3.5 C 45.9 3.5 45.9 10.2 45.9 10.2 C 45.9 11.9 44.9 12.6 43.2 12.6 C 43.2 12.6 43.1 12.6 43.1 12.6 C 41.4 12.6 40.4 11.9 40.4 10.2 C 40.4 10.2 40.4 3.5 40.4 3.5 C 40.4 1.8 41.4 1.2 43.1 1.2 C 43.1 1.2 43.2 1.2 43.2 1.2 C 44.9 1.2 45.9 1.8 45.9 3.5 Z M 43.2 2.8 C 42.6 2.8 42.2 3 42.2 3.8 C 42.2 3.8 42.2 10 42.2 10 C 42.2 10.8 42.6 11 43.2 11 C 43.8 11 44.1 10.8 44.1 10 C 44.1 10 44.1 3.8 44.1 3.8 C 44.1 3 43.8 2.8 43.2 2.8 Z M 52.7 3.5 C 52.7 3.5 52.7 10.2 52.7 10.2 C 52.7 11.9 51.7 12.6 50 12.6 C 50 12.6 49.9 12.6 49.9 12.6 C 48.2 12.6 47.2 11.9 47.2 10.2 C 47.2 10.2 47.2 3.5 47.2 3.5 C 47.2 1.8 48.2 1.2 49.9 1.2 C 49.9 1.2 50 1.2 50 1.2 C 51.7 1.2 52.7 1.8 52.7 3.5 Z M 50 2.8 C 49.4 2.8 49 3 49 3.8 C 49 3.8 49 10 49 10 C 49 10.8 49.4 11 50 11 C 50.6 11 50.9 10.8 50.9 10 C 50.9 10 50.9 3.8 50.9 3.8 C 50.9 3 50.6 2.8 50 2.8 Z M 59.6 3.5 C 59.6 3.5 59.6 10.2 59.6 10.2 C 59.6 11.9 58.5 12.6 56.9 12.6 C 56.9 12.6 56.7 12.6 56.7 12.6 C 55.1 12.6 54 11.9 54 10.2 C 54 10.2 54 3.5 54 3.5 C 54 1.8 55.1 1.2 56.7 1.2 C 56.7 1.2 56.9 1.2 56.9 1.2 C 58.5 1.2 59.6 1.8 59.6 3.5 Z M 56.8 2.8 C 56.2 2.8 55.8 3 55.8 3.8 C 55.8 3.8 55.8 10 55.8 10 C 55.8 10.8 56.2 11 56.8 11 C 57.4 11 57.8 10.8 57.8 10 C 57.8 10 57.8 3.8 57.8 3.8 C 57.8 3 57.4 2.8 56.8 2.8 Z " stroke="none" fill="#282828"/>
  </g>
</svg>