<?xml version="1.0" standalone="no"?><!DOCTYPE svg PUBLIC "-//W3C//DTD SVG 1.1//EN" "http://www.w3.org/Graphics/SVG/1.1/DTD/svg11.dtd"><svg xmlns="http://www.w3.org/2000/svg" version="1.1" width="134px" height="73.2px" viewBox="0 -9 134 73.2" style="top:-9px"><desc>Tony</desc><defs/><g id="Polygon105248"><path d="m9.1 37.7c1.7.3 2.3 1.7 2.3 3.2v3.2c0 2.5-1.9 3.9-4.9 3.9c.02.03-5.1 0-5.1 0V28.3s5.18-.04 5.2 0c3 0 4.7 1.4 4.7 3.9v2.4c0 1.5-.6 3-2.2 3.1zm-4.4-1.3s1.82.02 1.8 0c1 0 1.5-.5 1.5-1.5v-2.3c0-1-.5-1.5-1.5-1.5c.02-.02-1.8 0-1.8 0v5.3zm1.9 2.8H4.7v6h1.9c1 0 1.6-.5 1.6-1.5v-3c0-1-.6-1.5-1.6-1.5zM21 48l-2.5-7.9h-1.6v7.9h-3.3V28.3s5.09-.04 5.1 0c3 0 5 1.1 5 4.1v3.6c0 1.9-.8 3-2.2 3.6l2.8 8.4H21zm-4.1-10.7s1.68.02 1.7 0c1.1 0 1.8-.4 1.8-1.8v-2.6c0-1.4-.7-1.8-1.8-1.8c-.02.04-1.7 0-1.7 0v6.2zM26 48V28.3h8.7v2.8h-5.4v5.5h4.5v2.8h-4.5v5.7h5.5v2.9H26zm14.1-19.7v8.2h3.8v-8.2h3.2V48h-3.2v-8.6h-3.8v8.6h-3.3V28.3h3.3zM56 43.6h-3.6l-.7 4.4h-3.2l3.7-19.7h4.1L60 48h-3.3l-.7-4.4zm-.5-2.7l-1.3-8.8l-1.4 8.8h2.7zm15.6 3.2c0 3-1.9 4.2-4.9 4.2h-.1c-3 0-5-1.1-5-4.2c.04-.03 0-15.8 0-15.8h3.3v15.3c0 1.4.6 1.8 1.7 1.8c1.1 0 1.7-.4 1.7-1.8V28.3h3.3s-.02 15.77 0 15.8zm11.2-13H79V48h-3.3V31.1h-3.3v-2.8h9.9v2.8z" stroke="none" fill="#282828"/></g><g id="Polygon105247"><path d="m8.8 22l-2.5-7.9H4.7v7.9H1.4V2.3s5.12-.04 5.1 0c3 0 5 1.1 5 4.1v3.6c0 1.9-.8 3-2.2 3.6c.05.04 2.9 8.4 2.9 8.4H8.8zM4.7 11.3s1.71.02 1.7 0c1.1 0 1.8-.4 1.8-1.8V6.9c0-1.4-.7-1.8-1.8-1.8c.01.04-1.7 0-1.7 0v6.2zM14 22V2.3h3.3V22H14zm15.8-3.9c0 3-2 4.2-5 4.2c-3 0-5-1.1-5-4.2V6.2c0-2.9 2-4.2 5-4.2c3 0 5 1.3 5 4.2c-.01.01 0 3.6 0 3.6h-3.3s.02-3.08 0-3.1c0-1.4-.7-1.8-1.7-1.8c-1.1 0-1.7.4-1.7 1.8v10.9c0 1.3.6 1.8 1.7 1.8c1 0 1.7-.5 1.7-1.8c.02-.03 0-3.6 0-3.6h3.3v4.1zm5.6-15.8v8.2h3.7V2.3h3.3V22h-3.3v-8.6h-3.7v8.6h-3.3V2.3h3.3zm15.9 15.3h-3.7l-.7 4.4h-3.1l3.6-19.7h4.2L55.3 22H52l-.7-4.4zm-.5-2.7l-1.4-8.8l-1.3 8.8h2.7zM64.1 22l-2.5-7.9h-1.7v7.9h-3.3V2.3s5.16-.04 5.2 0c3 0 4.9 1.1 4.9 4.1v3.6c0 1.9-.8 3-2.1 3.6c-.02.04 2.8 8.4 2.8 8.4h-3.3zm-4.2-10.7s1.75.02 1.7 0c1.1 0 1.9-.4 1.9-1.8V6.9c0-1.4-.8-1.8-1.9-1.8c.05.04-1.7 0-1.7 0v6.2zm19.2-4.9v11.4c0 3-1.9 4.2-4.9 4.2c-.04.03-5.1 0-5.1 0V2.3s5.06-.04 5.1 0c3 0 4.9 1.1 4.9 4.1zM74 5.1c.04.04-1.6 0-1.6 0v14s1.64.05 1.6 0c1.1 0 1.9-.3 1.9-1.8V6.9c0-1.4-.8-1.8-1.9-1.8z" stroke="none" fill="#282828"/></g></svg>