<?xml version="1.0" standalone="no"?><!DOCTYPE svg PUBLIC "-//W3C//DTD SVG 1.1//EN" "http://www.w3.org/Graphics/SVG/1.1/DTD/svg11.dtd"><svg xmlns="http://www.w3.org/2000/svg" version="1.1" width="178px" height="28.4px" viewBox="0 -6 178 28.4" style="top:-6px"><desc>27 States, 5 Countries</desc><defs/><g id="Polygon102879"><path d="m.8 11.4c4-3.1 5.9-4.7 5.9-6.4c0-1.2-1.1-1.8-2.1-1.8c-1.3 0-2.2.6-2.9 1.3l-.9-1c.8-1.1 2.3-1.7 3.8-1.7c1.9 0 3.7 1.1 3.7 3.2c0 2.1-2 4-4.9 6.2c-.02.03 5 0 5 0v1.4H.8s.03-1.22 0-1.2zm14.8-8H9.9V2h7.5v1.1l-4.2 9.5h-1.8l4.2-9.2zm7.8 6.5c.7.8 1.9 1.5 3.4 1.5c1.7 0 2.3-.9 2.3-1.6c0-1.2-1.2-1.5-2.6-1.8c-1.7-.5-3.7-1-3.7-3.2c0-1.7 1.6-3 3.8-3c1.6 0 2.9.5 3.9 1.5l-.9 1.2c-.9-.9-2-1.3-3.1-1.3c-1.2 0-2 .6-2 1.5c0 1 1.1 1.3 2.4 1.6c1.8.5 3.8 1 3.8 3.3c0 1.7-1.1 3.2-4 3.2c-1.9 0-3.3-.7-4.2-1.7l.9-1.2zm9.2 1c-.02.03 0-4.7 0-4.7h-1.3V4.9h1.3V2.8h1.4v2.1h1.6v1.3H34s.02 4.41 0 4.4c0 .6.3 1 .8 1c.3 0 .6-.2.8-.4l.3 1.1c-.3.3-.7.5-1.5.5c-1.2 0-1.8-.7-1.8-1.9zm9.4.9c-.7.7-1.5 1-2.6 1c-1.3 0-2.7-.8-2.7-2.5c0-1.8 1.4-2.6 2.7-2.6c1.1 0 2 .4 2.6 1.1V7.5c0-1-.8-1.5-1.9-1.5c-.9 0-1.7.3-2.4 1l-.6-1c.9-.9 1.9-1.3 3.2-1.3c1.7 0 3.1.8 3.1 2.7v5.2H42s-.05-.81 0-.8zm0-2.2c-.5-.5-1.2-.8-2-.8c-1.1 0-1.8.6-1.8 1.5c0 .9.7 1.5 1.8 1.5c.8 0 1.5-.3 2-.9V9.6zm4 1.3c-.02.03 0-4.7 0-4.7h-1.3V4.9h1.3V2.8h1.4v2.1h1.6v1.3h-1.6s.02 4.41 0 4.4c0 .6.3 1 .8 1c.3 0 .6-.2.8-.4l.3 1.1c-.3.3-.7.5-1.5.5c-1.2 0-1.8-.7-1.8-1.9zm8-6.2c2.3 0 3.7 1.8 3.7 4.2c.04 0 0 .3 0 .3c0 0-6.07.05-6.1 0c.1 1.4 1.1 2.4 2.7 2.4c.8 0 1.7-.3 2.2-.9l.7 1c-.8.7-1.8 1.1-3.1 1.1c-2.3 0-4-1.6-4-4c0-2.3 1.6-4.1 3.9-4.1zm-2.4 3.5h4.7c0-1-.7-2.3-2.3-2.3c-1.6 0-2.3 1.3-2.4 2.3zm8 2.4c.5.6 1.5 1.1 2.6 1.1c1 0 1.6-.5 1.6-1.1c0-.8-.9-1-1.8-1.3c-1.4-.3-2.9-.6-2.9-2.3c0-1.2 1.1-2.3 2.9-2.3c1.4 0 2.3.5 3 1.1l-.6 1c-.5-.5-1.4-.9-2.3-.9c-1 0-1.6.4-1.6 1c0 .7.8.9 1.8 1.1c1.3.3 2.9.7 2.9 2.5c0 1.3-1.1 2.3-3.1 2.3c-1.3 0-2.4-.4-3.2-1.2l.7-1zm7.2 3.6c.5-.4 1-1 1.1-1.5h-.3c-.4 0-.8-.4-.8-.9c0-.6.4-1 1-1c.6 0 1.1.5 1.1 1.3c0 1.1-.6 2-1.4 2.6l-.7-.5zm8.9-4.1c.7.8 1.7 1.3 3 1.3c1.3 0 2.3-.9 2.3-2.1c0-1.3-.9-2.1-2.3-2.1c-.9 0-1.7.3-2.4 1l-1.2-.4V2h6.8v1.4h-5.2s.04 3.38 0 3.4c.5-.5 1.4-1 2.5-1c1.8 0 3.4 1.3 3.4 3.5c0 2.2-1.7 3.5-3.9 3.5c-1.9 0-3.1-.6-3.9-1.6l.9-1.1zm12.5-2.8c0-3.3 2.4-5.5 5.5-5.5c2.1 0 3.4 1 4.2 2.2l-1.3.8c-.6-.9-1.7-1.6-2.9-1.6c-2.2 0-3.8 1.7-3.8 4.1c0 2.4 1.6 4.1 3.8 4.1c1.2 0 2.3-.6 2.9-1.5l1.3.7c-.8 1.2-2.1 2.2-4.2 2.2c-3.1 0-5.5-2.2-5.5-5.5zM99 8.8c0-2.3 1.5-4.1 3.9-4.1c2.4 0 3.9 1.8 3.9 4.1c0 2.2-1.5 4-3.9 4c-2.4 0-3.9-1.8-3.9-4zm6.3 0c0-1.5-.8-2.8-2.4-2.8c-1.5 0-2.4 1.3-2.4 2.8c0 1.4.9 2.8 2.4 2.8c1.6 0 2.4-1.4 2.4-2.8zm8.6 2.8c-.6.6-1.6 1.2-2.8 1.2c-1.6 0-2.5-.8-2.5-2.4c.04-.03 0-5.5 0-5.5h1.5s-.02 4.99 0 5c0 1.3.6 1.7 1.6 1.7c.9 0 1.7-.6 2.2-1.1c-.05-.04 0-5.6 0-5.6h1.4v7.7h-1.4s-.05-1.02 0-1zm8.9-3.9c0-1.3-.7-1.7-1.6-1.7c-.9 0-1.8.5-2.2 1.1c.02.02 0 5.5 0 5.5h-1.4V4.9h1.4s.02 1.1 0 1.1c.5-.6 1.6-1.3 2.8-1.3c1.6 0 2.4.9 2.4 2.5c.04.02 0 5.4 0 5.4h-1.4V7.7zm4 3.2V6.2h-1.3V4.9h1.3V2.8h1.5v2.1h1.5v1.3h-1.5s-.05 4.41 0 4.4c0 .6.2 1 .7 1c.3 0 .6-.2.8-.4l.4 1.1c-.3.3-.8.5-1.5.5c-1.3 0-1.9-.7-1.9-1.9zm4.6-6h1.5s-.04 1.2 0 1.2c.6-.8 1.5-1.4 2.5-1.4v1.5c-.2 0-.3-.1-.5-.1c-.7 0-1.7.6-2 1.2c-.04-.04 0 5.3 0 5.3h-1.5V4.9zm5.2-2.2c0-.5.4-.9.9-.9c.5 0 1 .4 1 .9c0 .5-.5.9-1 .9c-.5 0-.9-.4-.9-.9zm.2 2.2h1.5v7.7h-1.5V4.9zm7.2-.2c2.3 0 3.7 1.8 3.7 4.2v.3s-6.1.05-6.1 0c.1 1.4 1.1 2.4 2.6 2.4c.8 0 1.7-.3 2.3-.9l.7 1c-.8.7-1.9 1.1-3.1 1.1c-2.3 0-4-1.6-4-4c0-2.3 1.6-4.1 3.9-4.1zm-2.4 3.5h4.7c0-1-.7-2.3-2.3-2.3c-1.6 0-2.3 1.3-2.4 2.3zm7.9 2.4c.6.6 1.6 1.1 2.6 1.1c1.1 0 1.7-.5 1.7-1.1c0-.8-.9-1-1.9-1.3c-1.3-.3-2.8-.6-2.8-2.3c0-1.2 1-2.3 2.9-2.3c1.3 0 2.3.5 3 1.1l-.7 1c-.4-.5-1.3-.9-2.3-.9c-.9 0-1.6.4-1.6 1c0 .7.9.9 1.8 1.1c1.4.3 3 .7 3 2.5c0 1.3-1.1 2.3-3.1 2.3c-1.3 0-2.5-.4-3.3-1.2l.7-1z" stroke="none" fill="#000"/></g></svg>