<?xml version="1.0" standalone="no"?>
<!DOCTYPE svg PUBLIC "-//W3C//DTD SVG 1.1//EN" "http://www.w3.org/Graphics/SVG/1.1/DTD/svg11.dtd">
<svg xmlns="http://www.w3.org/2000/svg" version="1.1" width="103px" height="27.9px" viewBox="0 -6 103 27.9" style="top:-6px">
  <desc>Agent 1</desc>
  <defs/>
  <g id="Polygon270322">
    <path d="M 4.7 8.5 L 2.8 8.5 L 2.8 12.5 L 1.2 12.5 L 1.2 2 C 1.2 2 5.64 1.95 5.6 2 C 7.7 2 9 3.3 9 5.2 C 9 7.1 7.8 8.1 6.4 8.3 C 6.4 8.31 9.1 12.5 9.1 12.5 L 7.3 12.5 L 4.7 8.5 Z M 5.4 3.4 C 5.43 3.35 2.8 3.4 2.8 3.4 L 2.8 7.1 C 2.8 7.1 5.43 7.07 5.4 7.1 C 6.6 7.1 7.4 6.3 7.4 5.2 C 7.4 4.1 6.6 3.4 5.4 3.4 Z M 13.7 4.7 C 16 4.7 17.4 6.5 17.4 8.8 C 17.42 8.83 17.4 9.2 17.4 9.2 C 17.4 9.2 11.35 9.18 11.4 9.2 C 11.5 10.5 12.4 11.6 14 11.6 C 14.8 11.6 15.7 11.2 16.2 10.7 C 16.2 10.7 16.9 11.6 16.9 11.6 C 16.1 12.3 15.1 12.7 13.8 12.7 C 11.5 12.7 9.8 11.1 9.8 8.7 C 9.8 6.5 11.5 4.7 13.7 4.7 Z M 11.3 8.1 C 11.3 8.1 16 8.1 16 8.1 C 16 7.1 15.3 5.9 13.7 5.9 C 12.1 5.9 11.4 7.1 11.3 8.1 Z M 24.2 7.6 C 24.2 6.4 23.6 6 22.6 6 C 21.7 6 20.9 6.5 20.5 7.1 C 20.49 7.07 20.5 12.5 20.5 12.5 L 19.1 12.5 L 19.1 4.9 L 20.5 4.9 C 20.5 4.9 20.49 5.95 20.5 6 C 21 5.3 22 4.7 23.2 4.7 C 24.8 4.7 25.7 5.5 25.7 7.2 C 25.66 7.16 25.7 12.5 25.7 12.5 L 24.2 12.5 C 24.2 12.5 24.24 7.64 24.2 7.6 Z M 28.1 10.8 C 28.06 10.85 28.1 6.1 28.1 6.1 L 26.8 6.1 L 26.8 4.9 L 28.1 4.9 L 28.1 2.8 L 29.5 2.8 L 29.5 4.9 L 31 4.9 L 31 6.1 L 29.5 6.1 C 29.5 6.1 29.49 10.53 29.5 10.5 C 29.5 11.1 29.7 11.5 30.2 11.5 C 30.6 11.5 30.9 11.3 31 11.2 C 31 11.2 31.4 12.2 31.4 12.2 C 31.1 12.5 30.6 12.7 29.9 12.7 C 28.7 12.7 28.1 12.1 28.1 10.8 Z M 39 1.6 L 40.1 1.6 L 36.4 12.9 L 35.3 12.9 L 39 1.6 Z M 45.3 9.8 C 46.1 10.6 47.2 11.3 48.7 11.3 C 50.4 11.3 51 10.5 51 9.7 C 51 8.6 49.8 8.3 48.4 7.9 C 46.7 7.5 44.8 7 44.8 4.8 C 44.8 3.1 46.3 1.8 48.5 1.8 C 50.2 1.8 51.4 2.3 52.4 3.3 C 52.4 3.3 51.5 4.4 51.5 4.4 C 50.6 3.6 49.5 3.2 48.4 3.2 C 47.2 3.2 46.4 3.8 46.4 4.7 C 46.4 5.7 47.6 6 48.9 6.3 C 50.6 6.7 52.6 7.3 52.6 9.5 C 52.6 11.2 51.5 12.7 48.6 12.7 C 46.7 12.7 45.3 12.1 44.4 11.1 C 44.4 11.1 45.3 9.8 45.3 9.8 Z M 54.3 2 L 61.4 2 L 61.4 3.4 L 55.9 3.4 L 55.9 6.4 L 61.3 6.4 L 61.3 7.8 L 55.9 7.8 L 55.9 12.5 L 54.3 12.5 L 54.3 2 Z " stroke="none" fill="#3797ef"/>
  </g>
</svg>