<?xml version="1.0" standalone="no"?><!DOCTYPE svg PUBLIC "-//W3C//DTD SVG 1.1//EN" "http://www.w3.org/Graphics/SVG/1.1/DTD/svg11.dtd"><svg xmlns="http://www.w3.org/2000/svg" version="1.1" width="237px" height="26.9px" viewBox="0 -6 237 26.9" style="top:-6px"><desc>Absolute Net (NNN)</desc><defs/><g id="Polygon94886"><path d="m110.7 9.9H105l-1 2.6h-1.1L107.3 2h1.1l4.3 10.5h-1l-1-2.6zm-5.4-.8h5.1l-2.6-6.3l-2.5 6.3zm9-7.1h.8s-.02 4.11 0 4.1c.6-.9 1.6-1.4 2.7-1.4c2 0 3.4 1.6 3.4 4c0 2.5-1.4 4-3.4 4c-1.2 0-2.2-.6-2.7-1.4c-.02.02 0 1.2 0 1.2h-.8V2zm3.3 10c1.7 0 2.7-1.4 2.7-3.3c0-1.8-1-3.3-2.7-3.3c-1.1 0-2.1.7-2.5 1.4v3.8c.4.8 1.4 1.4 2.5 1.4zm5.6-1.1c.4.6 1.3 1.1 2.4 1.1c1.3 0 2.1-.6 2.1-1.5c0-1-1.1-1.3-2.2-1.5c-1.3-.4-2.7-.7-2.7-2.2c0-1.2 1-2.1 2.8-2.1c1.3 0 2.2.5 2.7 1.1l-.4.6c-.5-.6-1.3-1-2.3-1c-1.2 0-2 .6-2 1.4c0 .8 1 1.1 2.1 1.3c1.3.4 2.8.7 2.8 2.4c0 1.2-1 2.2-2.9 2.2c-1.2 0-2.2-.3-2.9-1.2l.5-.6zm7-2.2c0-2.2 1.4-4 3.7-4c2.2 0 3.7 1.8 3.7 4c0 2.2-1.5 4-3.7 4c-2.3 0-3.7-1.8-3.7-4zm6.5 0c0-1.7-1-3.3-2.8-3.3c-1.8 0-2.8 1.6-2.8 3.3c0 1.7 1 3.3 2.8 3.3c1.8 0 2.8-1.6 2.8-3.3zm3-6.7h.8v10.5h-.8V2zm8.6 9.4c-.7.7-1.7 1.3-2.8 1.3c-1.6 0-2.4-.7-2.4-2.4V4.9h.8v5.2c0 1.5.8 1.9 1.9 1.9c1 0 2-.6 2.5-1.3c-.04.02 0-5.8 0-5.8h.8v7.6h-.8s-.04-1.08 0-1.1zm3.5-.3c.02-.03 0-5.5 0-5.5h-1.2v-.7h1.2V2.8h.9v2.1h1.5v.7h-1.5s-.04 5.34 0 5.3c0 .7.2 1.1.8 1.1c.3 0 .6-.2.8-.4l.3.7c-.3.2-.6.4-1.3.4c-1 0-1.5-.6-1.5-1.6zm7.5-6.4c2.3 0 3.6 1.8 3.6 4.1v.2s-6.41-.03-6.4 0c.1 1.6 1.2 3 3 3c1 0 1.8-.3 2.5-1l.4.5c-.7.8-1.7 1.2-3 1.2c-2.2 0-3.8-1.6-3.8-4c0-2.2 1.6-4 3.7-4zm-2.8 3.6h5.6c0-1.3-.9-2.9-2.8-2.9c-1.8 0-2.7 1.6-2.8 2.9zm13.6-4.9v9.1h-.9V2h.9l6.6 9v-9h.9v10.5h-.8l-6.7-9.1zm13.4 1.3c2.3 0 3.6 1.8 3.6 4.1c.03-.05 0 .2 0 .2c0 0-6.39-.03-6.4 0c.1 1.6 1.2 3 3 3c1 0 1.9-.3 2.5-1l.5.5c-.8.8-1.8 1.2-3.1 1.2c-2.2 0-3.8-1.6-3.8-4c0-2.2 1.6-4 3.7-4zm-2.8 3.6h5.6c0-1.3-.9-2.9-2.8-2.9c-1.8 0-2.7 1.6-2.8 2.9zm8.7 2.8c.02-.03 0-5.5 0-5.5h-1.3v-.7h1.3V2.8h.9v2.1h1.5v.7h-1.5s-.05 5.34 0 5.3c0 .7.2 1.1.7 1.1c.4 0 .7-.2.9-.4l.3.7c-.3.2-.6.4-1.3.4c-1 0-1.5-.6-1.5-1.6zm7.8-2.4c0-2.6.7-5 2.1-7l.5.3c-1 2.1-1.7 3.9-1.7 6.7c0 2.7.7 4.6 1.7 6.6l-.5.4c-1.4-2.1-2.1-4.5-2.1-7zm5.1-5.3v9.1h-.9V2h.9l6.6 9v-9h.9v10.5h-.9l-6.6-9.1zm11.1 0v9.1h-.9V2h.9l6.6 9v-9h.9v10.5h-.8l-6.7-9.1zm11.1 0v9.1h-.9V2h.9l6.6 9v-9h.9v10.5h-.8l-6.7-9.1zm9.1-1.4l.5-.3c1.4 2 2.1 4.4 2.1 7c0 2.5-.7 4.9-2.1 7l-.5-.4c1-2 1.7-3.9 1.7-6.6c0-2.8-.7-4.6-1.7-6.7z" stroke="none" fill="#000"/></g></svg>