<?xml version="1.0" standalone="no"?><!DOCTYPE svg PUBLIC "-//W3C//DTD SVG 1.1//EN" "http://www.w3.org/Graphics/SVG/1.1/DTD/svg11.dtd"><svg xmlns="http://www.w3.org/2000/svg" version="1.1" width="156px" height="26.9px" viewBox="0 -6 156 26.9" style="top:-6px"><desc>2011</desc><defs/><g id="Polygon86659"><path d="m64.3 11.8c3.6-2.9 6-5 6-7c0-1.5-1.2-2.2-2.4-2.2c-1.3 0-2.3.6-2.9 1.4l-.6-.6c.7-1 2-1.6 3.5-1.6c1.6 0 3.3.9 3.3 3c0 2.3-2.4 4.4-5.5 6.9c.01.02 5.6 0 5.6 0v.8h-7v-.7zm13.2-10c2.8 0 3.9 2.9 3.9 5.5c0 2.5-1.1 5.4-3.9 5.4c-2.9 0-3.9-2.9-3.9-5.4c0-2.6 1-5.5 3.9-5.5zm0 .8c-2.2 0-3 2.5-3 4.7c0 2.1.8 4.6 3 4.6c2.2 0 2.9-2.5 2.9-4.6c0-2.2-.7-4.7-2.9-4.7zm7.5.6L83.3 5l-.6-.6L85.1 2h.8v10.5h-.9V3.2zm4.9 0L88.2 5l-.6-.6L89.9 2h.9v10.5h-.9V3.2z" stroke="none" fill="#000"/></g></svg>