<?xml version="1.0" standalone="no"?><!DOCTYPE svg PUBLIC "-//W3C//DTD SVG 1.1//EN" "http://www.w3.org/Graphics/SVG/1.1/DTD/svg11.dtd"><svg xmlns="http://www.w3.org/2000/svg" version="1.1" width="77px" height="15.9px" viewBox="0 -4 77 15.9" style="top:-4px"><desc>25,667</desc><defs/><g id="Polygon110735"><path d="m50.1 6.7c2-1.7 3.4-2.8 3.4-4c0-.9-.7-1.2-1.4-1.2c-.7 0-1.3.3-1.6.8l-.4-.4c.4-.5 1.2-.9 2-.9c.9 0 1.9.5 1.9 1.7c0 1.3-1.4 2.5-3.1 3.9c-.03.04 3.1 0 3.1 0v.5h-3.9s-.03-.41 0-.4zm5.7-.8c.4.5.9.9 1.7.9c.9 0 1.5-.7 1.5-1.5c0-.9-.6-1.5-1.5-1.5c-.5 0-1 .2-1.5.6l-.4-.1V1.1h3.5v.5h-2.9s-.03 2.32 0 2.3c.3-.3.8-.5 1.4-.5c1 0 1.9.6 1.9 1.9c0 1.2-.9 1.9-2 1.9c-1 0-1.6-.4-2-1l.3-.3zM60.6 8c.2-.2.5-.6.5-.8h-.1c-.2 0-.4-.2-.4-.4c0-.2.2-.4.4-.4c.3 0 .5.2.5.6c0 .5-.3 1-.7 1.2l-.2-.2zm4.2-7c.8 0 1.3.3 1.6.8l-.3.4c-.3-.4-.6-.7-1.3-.7c-1.3 0-1.7 1.3-1.7 2.6v.3c.2-.4.9-1 1.7-1c1.1 0 2 .6 2 1.9c0 1-.8 1.9-2.1 1.9c-1.6 0-2.2-1.5-2.2-3.1c0-1.5.7-3.1 2.3-3.1zm-.1 2.9c-.6 0-1.3.4-1.6 1c.1.8.5 1.9 1.6 1.9c1 0 1.5-.8 1.5-1.5c0-1-.6-1.4-1.5-1.4zM70.1 1c.8 0 1.2.3 1.6.8l-.3.4c-.3-.4-.7-.7-1.3-.7c-1.3 0-1.8 1.3-1.8 2.6v.3c.3-.4 1-1 1.8-1c1.1 0 1.9.6 1.9 1.9c0 1-.7 1.9-2 1.9c-1.6 0-2.2-1.5-2.2-3.1c0-1.5.6-3.1 2.3-3.1zM70 3.9c-.7 0-1.3.4-1.7 1c.1.8.5 1.9 1.7 1.9c1 0 1.5-.8 1.5-1.5c0-1-.7-1.4-1.5-1.4zm6.1-2.3h-3.3v-.5h3.9v.4l-2.5 5.6h-.6l2.5-5.5z" stroke="none" fill="#000"/></g></svg>