<?xml version="1.0" standalone="no"?><!DOCTYPE svg PUBLIC "-//W3C//DTD SVG 1.1//EN" "http://www.w3.org/Graphics/SVG/1.1/DTD/svg11.dtd"><svg xmlns="http://www.w3.org/2000/svg" xmlns:xlink="http://www.w3.org/1999/xlink" version="1.1" width="237px" height="47.9px" viewBox="0 -14 237 47.9" style="top:-14px"><desc/><defs/><g id="Polygon46221"><path d="m103.3 6.9l6.9-3.6v.8l-6.1 3.1l6.1 3.1v.8l-6.9-3.6v-.6zm7.9 0l6.9-3.6v.8L112 7.2l6.1 3.1v.8l-6.9-3.6v-.6zm8.7-4.9s3.97-.05 4 0c2 0 3.2 1.4 3.2 3.1c0 1.6-1.2 3-3.2 3c-.03.05-3.1 0-3.1 0v4.4h-.9V2zm3.9.8c-.03-.02-3 0-3 0v4.5s2.97.02 3 0c1.4 0 2.3-.9 2.3-2.2c0-1.4-.9-2.3-2.3-2.3zm5.1 2.1h.9s-.04 1.29 0 1.3c.6-.9 1.5-1.5 2.6-1.5v.9h-.5c-.7 0-1.8.7-2.1 1.4c-.04-.04 0 5.5 0 5.5h-.9V4.9zm4.6 3.8c0-2.2 1.5-4 3.7-4c2.3 0 3.7 1.8 3.7 4c0 2.2-1.4 4-3.7 4c-2.2 0-3.7-1.8-3.7-4zm6.5 0c0-1.7-1-3.3-2.8-3.3c-1.8 0-2.8 1.6-2.8 3.3c0 1.7 1 3.3 2.8 3.3c1.8 0 2.8-1.6 2.8-3.3zm3 6.8V4.9h.9s-.04 1.2 0 1.2c.5-.8 1.5-1.4 2.6-1.4c2.1 0 3.5 1.5 3.5 4c0 2.5-1.4 4-3.5 4c-1 0-2-.5-2.6-1.4c-.04.01 0 4.2 0 4.2h-.9zm3.4-10.1c-1.1 0-2.1.7-2.5 1.4v3.8c.4.7 1.4 1.4 2.5 1.4c1.7 0 2.7-1.4 2.7-3.3c0-1.9-1-3.3-2.7-3.3zm8.9-.7c2.4 0 3.7 1.8 3.7 4.1c-.03-.05 0 .2 0 .2c0 0-6.45-.03-6.4 0c0 1.6 1.1 3 2.9 3c1 0 1.9-.3 2.6-1l.4.5c-.8.8-1.7 1.2-3 1.2c-2.2 0-3.9-1.6-3.9-4c0-2.2 1.6-4 3.7-4zm-2.7 3.6h5.5c0-1.3-.8-2.9-2.8-2.9c-1.8 0-2.7 1.6-2.7 2.9zm8.5-3.4h.8s.02 1.29 0 1.3c.7-.9 1.5-1.5 2.6-1.5v.9h-.4c-.8 0-1.8.7-2.2 1.4c.02-.04 0 5.5 0 5.5h-.8V4.9zm5.2 6.2V5.6H165v-.7h1.3V2.8h.8v2.1h1.6v.7h-1.6s.03 5.34 0 5.3c0 .7.3 1.1.8 1.1c.4 0 .7-.2.9-.4l.3.7c-.3.2-.7.4-1.3.4c-1 0-1.5-.6-1.5-1.6zm4.5 3.8c.5 0 .9-.2 1.2-.9c-.04-.02.6-1.4.6-1.4l-3.3-7.7h.9l2.8 6.7l2.8-6.7h.9s-3.93 9.33-3.9 9.3c-.4 1-1.1 1.5-2 1.5c-.3 0-.6-.1-.8-.2l.1-.7c.2.1.5.1.7.1zm11.5-4.5c.7.8 1.8 1.5 3.3 1.5c2.2 0 2.8-1.2 2.8-2.1c0-1.5-1.4-1.9-2.9-2.3c-1.7-.5-3.5-.9-3.5-2.9c0-1.7 1.6-2.8 3.5-2.8c1.6 0 2.8.5 3.6 1.5l-.6.6c-.8-.9-1.8-1.3-3-1.3c-1.5 0-2.5.8-2.5 2c0 1.2 1.3 1.6 2.7 2c1.7.5 3.6 1 3.6 3.2c0 1.3-.9 2.9-3.7 2.9c-1.8 0-3.1-.7-3.9-1.6l.6-.7zm9 .7c.04-.03 0-5.5 0-5.5h-1.2v-.7h1.2V2.8h.9v2.1h1.5v.7h-1.5s-.02 5.34 0 5.3c0 .7.2 1.1.8 1.1c.3 0 .7-.2.8-.4l.3.7c-.3.2-.6.4-1.3.4c-1 0-1.5-.6-1.5-1.6zm4.2-6.2h.9s-.03 1.29 0 1.3c.6-.9 1.5-1.5 2.6-1.5v.9h-.5c-.7 0-1.8.7-2.1 1.4c-.03-.04 0 5.5 0 5.5h-.9V4.9zm8.3-.2c2.4 0 3.7 1.8 3.7 4.1c-.04-.05 0 .2 0 .2c0 0-6.46-.03-6.5 0c.1 1.6 1.2 3 3 3c1 0 1.9-.3 2.6-1l.4.5c-.8.8-1.8 1.2-3 1.2c-2.3 0-3.9-1.6-3.9-4c0-2.2 1.6-4 3.7-4zM201 8.3h5.6c0-1.3-.9-2.9-2.8-2.9c-1.8 0-2.7 1.6-2.8 2.9zm11.8-3.6c2.4 0 3.7 1.8 3.7 4.1c-.04-.05 0 .2 0 .2c0 0-6.46-.03-6.5 0c.1 1.6 1.2 3 3 3c1 0 1.9-.3 2.6-1l.4.5c-.8.8-1.7 1.2-3 1.2c-2.3 0-3.9-1.6-3.9-4c0-2.2 1.6-4 3.7-4zM210 8.3h5.6c0-1.3-.9-2.9-2.8-2.9c-1.8 0-2.7 1.6-2.8 2.9zm8.7 2.8c.05-.03 0-5.5 0-5.5h-1.2v-.7h1.2V2.8h.9v2.1h1.5v.7h-1.5v5.3c0 .7.2 1.1.8 1.1c.3 0 .7-.2.8-.4l.4.7c-.3.2-.7.4-1.3.4c-1.1 0-1.6-.6-1.6-1.6zm3.4-.8l6.2-3.1l-6.2-3.1v-.8l7 3.6v.6l-7 3.6v-.8zm7.9 0l6.1-3.1l-6.1-3.1v-.8l7 3.6v.6l-7 3.6v-.8z" stroke="none" fill="#000"/><a xlink:href="DBF_Property%20Street" xlink:show="new" xlink:title="&lt;&lt;Property Street&gt;&gt;"><rect style="fill:transparent;" x="102" y="1" width="135" height="15"/></a></g></svg>