<?xml version="1.0" standalone="no"?>
<!DOCTYPE svg PUBLIC "-//W3C//DTD SVG 1.1//EN" "http://www.w3.org/Graphics/SVG/1.1/DTD/svg11.dtd">
<svg xmlns="http://www.w3.org/2000/svg" version="1.1" width="156px" height="28.3px" viewBox="0 -6 156 28.3" style="top:-6px">
  <desc>Lot Size</desc>
  <defs/>
  <g id="Polygon236044">
    <path d="M 51.2 2 L 52.8 2 L 52.8 11.1 L 57.6 11.1 L 57.6 12.5 L 51.2 12.5 L 51.2 2 Z M 58.6 8.7 C 58.6 6.5 60.1 4.7 62.5 4.7 C 64.9 4.7 66.3 6.5 66.3 8.7 C 66.3 10.9 64.9 12.7 62.5 12.7 C 60.1 12.7 58.6 10.9 58.6 8.7 Z M 64.8 8.7 C 64.8 7.3 64 6 62.5 6 C 60.9 6 60.1 7.3 60.1 8.7 C 60.1 10.2 60.9 11.5 62.5 11.5 C 64 11.5 64.8 10.2 64.8 8.7 Z M 68.4 10.8 C 68.43 10.85 68.4 6.1 68.4 6.1 L 67.2 6.1 L 67.2 4.9 L 68.4 4.9 L 68.4 2.8 L 69.9 2.8 L 69.9 4.9 L 71.4 4.9 L 71.4 6.1 L 69.9 6.1 C 69.9 6.1 69.86 10.53 69.9 10.5 C 69.9 11.1 70.1 11.5 70.6 11.5 C 70.9 11.5 71.2 11.3 71.4 11.2 C 71.4 11.2 71.7 12.2 71.7 12.2 C 71.4 12.5 71 12.7 70.3 12.7 C 69 12.7 68.4 12.1 68.4 10.8 Z M 77.4 9.8 C 78.1 10.6 79.2 11.3 80.7 11.3 C 82.4 11.3 83 10.4 83 9.7 C 83 8.6 81.8 8.3 80.5 7.9 C 78.8 7.5 76.8 7 76.8 4.8 C 76.8 3.1 78.4 1.8 80.6 1.8 C 82.2 1.8 83.5 2.3 84.4 3.3 C 84.4 3.3 83.5 4.4 83.5 4.4 C 82.7 3.6 81.6 3.2 80.4 3.2 C 79.3 3.2 78.4 3.8 78.4 4.7 C 78.4 5.7 79.6 6 80.9 6.3 C 82.6 6.7 84.7 7.3 84.7 9.5 C 84.7 11.2 83.5 12.7 80.7 12.7 C 78.8 12.7 77.4 12.1 76.5 11.1 C 76.5 11.1 77.4 9.8 77.4 9.8 Z M 86.2 2.7 C 86.2 2.2 86.7 1.8 87.2 1.8 C 87.7 1.8 88.1 2.2 88.1 2.7 C 88.1 3.2 87.7 3.6 87.2 3.6 C 86.7 3.6 86.2 3.2 86.2 2.7 Z M 86.5 4.9 L 87.9 4.9 L 87.9 12.5 L 86.5 12.5 L 86.5 4.9 Z M 89.8 11.5 L 93.8 6.1 L 89.8 6.1 L 89.8 4.9 L 95.7 4.9 L 95.7 5.9 L 91.7 11.3 L 95.8 11.3 L 95.8 12.5 L 89.8 12.5 L 89.8 11.5 Z M 101.1 4.7 C 103.4 4.7 104.8 6.5 104.8 8.8 C 104.79 8.83 104.8 9.2 104.8 9.2 C 104.8 9.2 98.73 9.18 98.7 9.2 C 98.8 10.5 99.8 11.6 101.3 11.6 C 102.1 11.6 103 11.2 103.6 10.7 C 103.6 10.7 104.3 11.6 104.3 11.6 C 103.5 12.3 102.4 12.7 101.2 12.7 C 98.9 12.7 97.2 11.1 97.2 8.7 C 97.2 6.5 98.8 4.7 101.1 4.7 Z M 98.7 8.1 C 98.7 8.1 103.4 8.1 103.4 8.1 C 103.4 7.1 102.7 5.9 101.1 5.9 C 99.5 5.9 98.8 7.1 98.7 8.1 Z " stroke="none" fill="#000"/>
  </g>
</svg>