<?xml version="1.0" standalone="no"?>
<!DOCTYPE svg PUBLIC "-//W3C//DTD SVG 1.1//EN" "http://www.w3.org/Graphics/SVG/1.1/DTD/svg11.dtd">
<svg xmlns="http://www.w3.org/2000/svg" version="1.1" width="103px" height="27.9px" viewBox="0 -6 103 27.9" style="top:-6px">
  <desc>Agent 1</desc>
  <defs/>
  <g id="Polygon270204">
    <path d="M 1.2 2 L 2.8 2 L 2.8 11.2 L 7.6 11.2 L 7.6 12.5 L 1.2 12.5 L 1.2 2 Z M 8.4 8.7 C 8.4 6.5 9.9 4.7 12.2 4.7 C 14.6 4.7 16.1 6.5 16.1 8.7 C 16.1 10.9 14.6 12.7 12.2 12.7 C 9.9 12.7 8.4 10.9 8.4 8.7 Z M 14.6 8.7 C 14.6 7.3 13.8 6 12.2 6 C 10.7 6 9.9 7.3 9.9 8.7 C 9.9 10.2 10.7 11.5 12.2 11.5 C 13.8 11.5 14.6 10.2 14.6 8.7 Z M 17.8 4.9 L 19.2 4.9 C 19.2 4.9 19.2 6.05 19.2 6.1 C 19.8 5.3 20.7 4.7 21.7 4.7 C 21.7 4.7 21.7 6.1 21.7 6.1 C 21.6 6.1 21.4 6.1 21.2 6.1 C 20.5 6.1 19.5 6.6 19.2 7.2 C 19.2 7.21 19.2 12.5 19.2 12.5 L 17.8 12.5 L 17.8 4.9 Z M 26.3 4.7 C 28.7 4.7 30.1 6.5 30.1 8.8 C 30.08 8.83 30.1 9.2 30.1 9.2 C 30.1 9.2 24.01 9.18 24 9.2 C 24.1 10.5 25.1 11.6 26.6 11.6 C 27.4 11.6 28.3 11.2 28.9 10.7 C 28.9 10.7 29.6 11.6 29.6 11.6 C 28.8 12.3 27.7 12.7 26.5 12.7 C 24.2 12.7 22.5 11.1 22.5 8.7 C 22.5 6.5 24.1 4.7 26.3 4.7 Z M 24 8.1 C 24 8.1 28.7 8.1 28.7 8.1 C 28.7 7.1 28 5.9 26.3 5.9 C 24.8 5.9 24.1 7.1 24 8.1 Z M 41 7.4 C 41 6.5 40.6 6 39.7 6 C 38.9 6 38.2 6.5 37.8 7.1 C 37.8 7.05 37.8 12.5 37.8 12.5 L 36.4 12.5 C 36.4 12.5 36.37 7.43 36.4 7.4 C 36.4 6.5 36 6 35 6 C 34.3 6 33.5 6.5 33.1 7.1 C 33.15 7.07 33.1 12.5 33.1 12.5 L 31.7 12.5 L 31.7 4.9 L 33.1 4.9 C 33.1 4.9 33.15 5.95 33.1 6 C 33.5 5.5 34.5 4.7 35.6 4.7 C 36.8 4.7 37.5 5.3 37.7 6.1 C 38.1 5.4 39.2 4.7 40.3 4.7 C 41.7 4.7 42.5 5.5 42.5 7 C 42.47 7 42.5 12.5 42.5 12.5 L 41 12.5 C 41 12.5 41.04 7.43 41 7.4 Z " stroke="none" fill="#3797ef"/>
  </g>
</svg>