<?xml version="1.0" standalone="no"?><!DOCTYPE svg PUBLIC "-//W3C//DTD SVG 1.1//EN" "http://www.w3.org/Graphics/SVG/1.1/DTD/svg11.dtd"><svg xmlns="http://www.w3.org/2000/svg" version="1.1" width="155.5px" height="27.9px" viewBox="0 -6 155.5 27.9" style="top:-6px"><desc>Lot Size</desc><defs/><g id="Polygon267570"><path d="m51.2 2h1.6v9.2h4.8v1.3h-6.4V2zm7.4 6.7c0-2.2 1.5-4 3.9-4c2.4 0 3.8 1.8 3.8 4c0 2.2-1.4 4-3.8 4c-2.4 0-3.9-1.8-3.9-4zm6.2 0c0-1.4-.8-2.7-2.3-2.7c-1.6 0-2.4 1.3-2.4 2.7c0 1.5.8 2.8 2.4 2.8c1.5 0 2.3-1.3 2.3-2.8zm3.6 2.1c.03.05 0-4.7 0-4.7h-1.2V4.9h1.2V2.8h1.5v2.1h1.5v1.2h-1.5s-.04 4.43 0 4.4c0 .6.2 1 .7 1c.3 0 .6-.2.8-.3l.3 1c-.3.3-.7.5-1.4.5c-1.3 0-1.9-.6-1.9-1.9zm9-1c.7.8 1.8 1.5 3.3 1.5c1.7 0 2.3-.8 2.3-1.6c0-1.1-1.2-1.4-2.5-1.8c-1.7-.4-3.7-.9-3.7-3.1c0-1.7 1.6-3 3.8-3c1.6 0 2.9.5 3.8 1.5l-.9 1.1c-.8-.8-1.9-1.2-3.1-1.2c-1.1 0-2 .6-2 1.5c0 1 1.2 1.3 2.5 1.6c1.7.4 3.8 1 3.8 3.2c0 1.7-1.2 3.2-4 3.2c-1.9 0-3.3-.6-4.2-1.6l.9-1.3zm8.8-7.1c0-.5.5-.9 1-.9c.5 0 .9.4.9.9c0 .5-.4.9-.9.9c-.5 0-1-.4-1-.9zm.3 2.2h1.4v7.6h-1.4V4.9zm3.3 6.6l4-5.4h-4V4.9h5.9v1l-4 5.4h4.1v1.2h-6v-1zm11.3-6.8c2.3 0 3.7 1.8 3.7 4.1v.4s-6.07-.02-6.1 0c.1 1.3 1.1 2.4 2.6 2.4c.8 0 1.7-.4 2.3-.9l.7.9c-.8.7-1.9 1.1-3.1 1.1c-2.3 0-4-1.6-4-4c0-2.2 1.6-4 3.9-4zm-2.4 3.4h4.7c0-1-.7-2.2-2.3-2.2c-1.6 0-2.3 1.2-2.4 2.2z" stroke="none" fill="#000"/></g></svg>