<?xml version="1.0" standalone="no"?>
<!DOCTYPE svg PUBLIC "-//W3C//DTD SVG 1.1//EN" "http://www.w3.org/Graphics/SVG/1.1/DTD/svg11.dtd">
<svg xmlns="http://www.w3.org/2000/svg" version="1.1" width="124px" height="63.9px" viewBox="0 -10 124 63.9" style="top:-10px">
  <desc>Agent 1</desc>
  <defs/>
  <g id="Polygon238138">
    <path d="M 1.2 33.7 C 1.2 33.7 5.64 33.68 5.6 33.7 C 7.8 33.7 9 35.2 9 36.9 C 9 38.7 7.8 40.2 5.6 40.2 C 5.64 40.19 2.8 40.2 2.8 40.2 L 2.8 44.3 L 1.2 44.3 L 1.2 33.7 Z M 5.4 35.1 C 5.43 35.07 2.8 35.1 2.8 35.1 L 2.8 38.8 C 2.8 38.8 5.43 38.79 5.4 38.8 C 6.6 38.8 7.4 38 7.4 36.9 C 7.4 35.8 6.6 35.1 5.4 35.1 Z M 15.6 43.2 C 15.1 43.9 14.1 44.5 12.9 44.5 C 11.3 44.5 10.5 43.6 10.5 42 C 10.47 42.01 10.5 36.6 10.5 36.6 L 11.9 36.6 C 11.9 36.6 11.89 41.54 11.9 41.5 C 11.9 42.8 12.5 43.2 13.5 43.2 C 14.4 43.2 15.2 42.7 15.6 42.1 C 15.64 42.11 15.6 36.6 15.6 36.6 L 17.1 36.6 L 17.1 44.3 L 15.6 44.3 C 15.6 44.3 15.64 43.22 15.6 43.2 Z M 19.2 36.6 L 20.6 36.6 C 20.6 36.6 20.61 37.77 20.6 37.8 C 21.2 37 22.1 36.4 23.1 36.4 C 23.1 36.4 23.1 37.9 23.1 37.9 C 23 37.8 22.8 37.8 22.6 37.8 C 21.9 37.8 20.9 38.4 20.6 38.9 C 20.61 38.93 20.6 44.3 20.6 44.3 L 19.2 44.3 L 19.2 36.6 Z M 27.8 36.4 C 29.3 36.4 30.1 37 30.7 37.8 C 30.7 37.8 29.7 38.6 29.7 38.6 C 29.3 38 28.7 37.7 27.9 37.7 C 26.4 37.7 25.4 38.8 25.4 40.4 C 25.4 42 26.4 43.2 27.9 43.2 C 28.7 43.2 29.3 42.9 29.7 42.2 C 29.7 42.2 30.7 43.1 30.7 43.1 C 30.1 43.9 29.3 44.5 27.8 44.5 C 25.5 44.5 23.9 42.7 23.9 40.4 C 23.9 38.1 25.5 36.4 27.8 36.4 Z M 37.3 39.3 C 37.3 38.1 36.6 37.7 35.7 37.7 C 34.8 37.7 34 38.2 33.5 38.8 C 33.54 38.79 33.5 44.3 33.5 44.3 L 32.1 44.3 L 32.1 33.7 L 33.5 33.7 C 33.5 33.7 33.54 37.68 33.5 37.7 C 34.1 37.1 35.1 36.4 36.3 36.4 C 37.9 36.4 38.7 37.2 38.7 38.9 C 38.72 38.85 38.7 44.3 38.7 44.3 L 37.3 44.3 C 37.3 44.3 37.29 39.33 37.3 39.3 Z M 45.6 43.4 C 45 44.1 44.1 44.5 43.1 44.5 C 41.8 44.5 40.4 43.6 40.4 41.9 C 40.4 40.2 41.8 39.4 43.1 39.4 C 44.1 39.4 45 39.7 45.6 40.4 C 45.6 40.4 45.6 39.2 45.6 39.2 C 45.6 38.2 44.8 37.6 43.7 37.6 C 42.8 37.6 42.1 38 41.4 38.6 C 41.4 38.6 40.8 37.7 40.8 37.7 C 41.6 36.8 42.7 36.4 43.9 36.4 C 45.6 36.4 47 37.1 47 39.1 C 47.01 39.09 47 44.3 47 44.3 L 45.6 44.3 C 45.6 44.3 45.58 43.43 45.6 43.4 Z M 45.6 41.3 C 45.2 40.7 44.4 40.4 43.6 40.4 C 42.6 40.4 41.8 41 41.8 41.9 C 41.8 42.8 42.6 43.5 43.6 43.5 C 44.4 43.5 45.2 43.2 45.6 42.6 C 45.6 42.6 45.6 41.3 45.6 41.3 Z M 49.2 42.2 C 49.7 42.8 50.7 43.3 51.7 43.3 C 52.8 43.3 53.4 42.9 53.4 42.2 C 53.4 41.5 52.5 41.2 51.5 41 C 50.2 40.7 48.7 40.3 48.7 38.7 C 48.7 37.5 49.7 36.4 51.6 36.4 C 52.9 36.4 53.9 36.9 54.5 37.5 C 54.5 37.5 53.9 38.5 53.9 38.5 C 53.5 38 52.6 37.6 51.6 37.6 C 50.7 37.6 50.1 37.9 50.1 38.6 C 50.1 39.2 50.9 39.5 51.8 39.7 C 53.2 40 54.8 40.3 54.8 42.1 C 54.8 43.4 53.7 44.5 51.7 44.5 C 50.4 44.5 49.3 44.1 48.5 43.3 C 48.5 43.3 49.2 42.2 49.2 42.2 Z M 59.8 36.4 C 62.1 36.4 63.5 38.2 63.5 40.6 C 63.51 40.55 63.5 40.9 63.5 40.9 C 63.5 40.9 57.44 40.9 57.4 40.9 C 57.6 42.2 58.5 43.3 60.1 43.3 C 60.9 43.3 61.8 43 62.3 42.4 C 62.3 42.4 63 43.3 63 43.3 C 62.2 44.1 61.1 44.5 59.9 44.5 C 57.6 44.5 55.9 42.8 55.9 40.4 C 55.9 38.2 57.5 36.4 59.8 36.4 Z M 57.4 39.9 C 57.4 39.9 62.1 39.9 62.1 39.9 C 62.1 38.9 61.4 37.6 59.8 37.6 C 58.2 37.6 57.5 38.8 57.4 39.9 Z M 69.1 33.7 C 69.1 33.7 73.58 33.68 73.6 33.7 C 75.8 33.7 77 35.2 77 36.9 C 77 38.7 75.7 40.2 73.6 40.2 C 73.58 40.19 70.7 40.2 70.7 40.2 L 70.7 44.3 L 69.1 44.3 L 69.1 33.7 Z M 73.4 35.1 C 73.38 35.07 70.7 35.1 70.7 35.1 L 70.7 38.8 C 70.7 38.8 73.38 38.79 73.4 38.8 C 74.5 38.8 75.3 38 75.3 36.9 C 75.3 35.8 74.5 35.1 73.4 35.1 Z M 78.4 36.6 L 79.8 36.6 C 79.8 36.6 79.84 37.77 79.8 37.8 C 80.4 37 81.3 36.4 82.3 36.4 C 82.3 36.4 82.3 37.9 82.3 37.9 C 82.2 37.8 82 37.8 81.9 37.8 C 81.1 37.8 80.2 38.4 79.8 38.9 C 79.84 38.93 79.8 44.3 79.8 44.3 L 78.4 44.3 L 78.4 36.6 Z M 83.4 34.4 C 83.4 33.9 83.8 33.5 84.3 33.5 C 84.8 33.5 85.2 33.9 85.2 34.4 C 85.2 34.9 84.8 35.3 84.3 35.3 C 83.8 35.3 83.4 34.9 83.4 34.4 Z M 83.6 36.6 L 85 36.6 L 85 44.3 L 83.6 44.3 L 83.6 36.6 Z M 90.6 36.4 C 92 36.4 92.9 37 93.5 37.8 C 93.5 37.8 92.5 38.6 92.5 38.6 C 92.1 38 91.4 37.7 90.7 37.7 C 89.1 37.7 88.2 38.8 88.2 40.4 C 88.2 42 89.1 43.2 90.7 43.2 C 91.4 43.2 92.1 42.9 92.5 42.2 C 92.5 42.2 93.5 43.1 93.5 43.1 C 92.9 43.9 92 44.5 90.6 44.5 C 88.3 44.5 86.7 42.7 86.7 40.4 C 86.7 38.1 88.3 36.4 90.6 36.4 Z M 98.2 36.4 C 100.6 36.4 102 38.2 102 40.6 C 101.98 40.55 102 40.9 102 40.9 C 102 40.9 95.91 40.9 95.9 40.9 C 96 42.2 97 43.3 98.5 43.3 C 99.3 43.3 100.2 43 100.8 42.4 C 100.8 42.4 101.5 43.3 101.5 43.3 C 100.7 44.1 99.6 44.5 98.4 44.5 C 96.1 44.5 94.4 42.8 94.4 40.4 C 94.4 38.2 96 36.4 98.2 36.4 Z M 95.9 39.9 C 95.9 39.9 100.6 39.9 100.6 39.9 C 100.6 38.9 99.9 37.6 98.2 37.6 C 96.7 37.6 96 38.8 95.9 39.9 Z " stroke="none" fill="#3797ef"/>
  </g>
  <g id="Polygon238137">
    <path d="M 10.8 16.3 C 10.8 16.3 10.8 19.2 10.8 19.2 C 10.8 21.7 9.5 22.9 7.4 23.2 C 7.4 23.21 7.4 25.3 7.4 25.3 L 4.5 25.3 C 4.5 25.3 4.49 23.23 4.5 23.2 C 2.3 22.9 1 21.8 1 19.2 C 1.02 19.2 1 15.8 1 15.8 L 4.2 15.8 C 4.2 15.8 4.24 18.74 4.2 18.7 C 4.2 20 4.9 20.5 5.9 20.5 C 6.9 20.5 7.6 20 7.6 18.7 C 7.6 18.7 7.6 17.2 7.6 17.2 C 7.6 16.2 7.3 15.7 6.3 15.1 C 6.3 15.1 4 13.8 4 13.8 C 2.1 12.7 1 11.8 1 9.8 C 1 9.8 1 7.2 1 7.2 C 1 4.7 2.5 3.6 4.5 3.2 C 4.49 3.21 4.5 1.1 4.5 1.1 L 7.4 1.1 C 7.4 1.1 7.4 3.21 7.4 3.2 C 9.4 3.6 10.8 4.8 10.8 7.2 C 10.79 7.17 10.8 10.4 10.8 10.4 L 7.6 10.4 C 7.6 10.4 7.57 7.62 7.6 7.6 C 7.6 6.4 6.9 5.9 5.9 5.9 C 4.9 5.9 4.2 6.4 4.2 7.6 C 4.2 7.6 4.2 9 4.2 9 C 4.2 10 4.6 10.4 5.5 11 C 5.5 11 7.8 12.3 7.8 12.3 C 9.7 13.4 10.8 14.2 10.8 16.3 Z M 22.5 7.3 C 22.5 7.3 22.5 19.1 22.5 19.1 C 22.5 22.1 20.8 23.3 17.8 23.3 C 17.8 23.3 17.6 23.3 17.6 23.3 C 14.6 23.3 12.8 22.1 12.8 19.1 C 12.8 19.1 12.8 7.3 12.8 7.3 C 12.8 4.3 14.6 3.1 17.6 3.1 C 17.6 3.1 17.8 3.1 17.8 3.1 C 20.8 3.1 22.5 4.3 22.5 7.3 Z M 17.7 6 C 16.6 6 16 6.4 16 7.8 C 16 7.8 16 18.6 16 18.6 C 16 20 16.6 20.4 17.7 20.4 C 18.7 20.4 19.4 20 19.4 18.6 C 19.4 18.6 19.4 7.8 19.4 7.8 C 19.4 6.4 18.7 6 17.7 6 Z M 27.9 22.2 C 27.9 24 27 25.7 26.1 26.8 C 26.1 26.8 24.8 26.2 24.8 26.2 C 25.5 25.3 26 24.1 26.2 23.1 C 26.17 23.09 24.7 23.1 24.7 23.1 L 24.7 19.4 L 27.9 19.4 C 27.9 19.4 27.9 22.25 27.9 22.2 Z M 39.8 7.3 C 39.8 7.3 39.8 19.1 39.8 19.1 C 39.8 22.1 38 23.3 35 23.3 C 35 23.3 34.8 23.3 34.8 23.3 C 31.8 23.3 30 22.1 30 19.1 C 30 19.1 30 7.3 30 7.3 C 30 4.3 31.8 3.1 34.8 3.1 C 34.8 3.1 35 3.1 35 3.1 C 38 3.1 39.8 4.3 39.8 7.3 Z M 34.9 6 C 33.9 6 33.2 6.4 33.2 7.8 C 33.2 7.8 33.2 18.6 33.2 18.6 C 33.2 20 33.9 20.4 34.9 20.4 C 35.9 20.4 36.6 20 36.6 18.6 C 36.6 18.6 36.6 7.8 36.6 7.8 C 36.6 6.4 35.9 6 34.9 6 Z M 51.8 7.3 C 51.8 7.3 51.8 19.1 51.8 19.1 C 51.8 22.1 50 23.3 47 23.3 C 47 23.3 46.8 23.3 46.8 23.3 C 43.8 23.3 42.1 22.1 42.1 19.1 C 42.1 19.1 42.1 7.3 42.1 7.3 C 42.1 4.3 43.8 3.1 46.8 3.1 C 46.8 3.1 47 3.1 47 3.1 C 50 3.1 51.8 4.3 51.8 7.3 Z M 46.9 6 C 45.9 6 45.2 6.4 45.2 7.8 C 45.2 7.8 45.2 18.6 45.2 18.6 C 45.2 20 45.9 20.4 46.9 20.4 C 48 20.4 48.6 20 48.6 18.6 C 48.6 18.6 48.6 7.8 48.6 7.8 C 48.6 6.4 48 6 46.9 6 Z M 63.8 7.3 C 63.8 7.3 63.8 19.1 63.8 19.1 C 63.8 22.1 62 23.3 59.1 23.3 C 59.1 23.3 58.8 23.3 58.8 23.3 C 55.9 23.3 54.1 22.1 54.1 19.1 C 54.1 19.1 54.1 7.3 54.1 7.3 C 54.1 4.3 55.9 3.1 58.8 3.1 C 58.8 3.1 59.1 3.1 59.1 3.1 C 62 3.1 63.8 4.3 63.8 7.3 Z M 59 6 C 57.9 6 57.3 6.4 57.3 7.8 C 57.3 7.8 57.3 18.6 57.3 18.6 C 57.3 20 57.9 20.4 59 20.4 C 60 20.4 60.6 20 60.6 18.6 C 60.6 18.6 60.6 7.8 60.6 7.8 C 60.6 6.4 60 6 59 6 Z M 69.2 22.2 C 69.2 24 68.3 25.7 67.3 26.8 C 67.3 26.8 66.1 26.2 66.1 26.2 C 66.8 25.3 67.3 24.1 67.5 23.1 C 67.45 23.09 66 23.1 66 23.1 L 66 19.4 L 69.2 19.4 C 69.2 19.4 69.17 22.25 69.2 22.2 Z M 81 7.3 C 81 7.3 81 19.1 81 19.1 C 81 22.1 79.3 23.3 76.3 23.3 C 76.3 23.3 76.1 23.3 76.1 23.3 C 73.1 23.3 71.3 22.1 71.3 19.1 C 71.3 19.1 71.3 7.3 71.3 7.3 C 71.3 4.3 73.1 3.1 76.1 3.1 C 76.1 3.1 76.3 3.1 76.3 3.1 C 79.3 3.1 81 4.3 81 7.3 Z M 76.2 6 C 75.1 6 74.5 6.4 74.5 7.8 C 74.5 7.8 74.5 18.6 74.5 18.6 C 74.5 20 75.1 20.4 76.2 20.4 C 77.2 20.4 77.9 20 77.9 18.6 C 77.9 18.6 77.9 7.8 77.9 7.8 C 77.9 6.4 77.2 6 76.2 6 Z M 93.1 7.3 C 93.1 7.3 93.1 19.1 93.1 19.1 C 93.1 22.1 91.3 23.3 88.3 23.3 C 88.3 23.3 88.1 23.3 88.1 23.3 C 85.1 23.3 83.3 22.1 83.3 19.1 C 83.3 19.1 83.3 7.3 83.3 7.3 C 83.3 4.3 85.1 3.1 88.1 3.1 C 88.1 3.1 88.3 3.1 88.3 3.1 C 91.3 3.1 93.1 4.3 93.1 7.3 Z M 88.2 6 C 87.2 6 86.5 6.4 86.5 7.8 C 86.5 7.8 86.5 18.6 86.5 18.6 C 86.5 20 87.2 20.4 88.2 20.4 C 89.2 20.4 89.9 20 89.9 18.6 C 89.9 18.6 89.9 7.8 89.9 7.8 C 89.9 6.4 89.2 6 88.2 6 Z M 105.1 7.3 C 105.1 7.3 105.1 19.1 105.1 19.1 C 105.1 22.1 103.3 23.3 100.3 23.3 C 100.3 23.3 100.1 23.3 100.1 23.3 C 97.2 23.3 95.4 22.1 95.4 19.1 C 95.4 19.1 95.4 7.3 95.4 7.3 C 95.4 4.3 97.2 3.1 100.1 3.1 C 100.1 3.1 100.3 3.1 100.3 3.1 C 103.3 3.1 105.1 4.3 105.1 7.3 Z M 100.2 6 C 99.2 6 98.5 6.4 98.5 7.8 C 98.5 7.8 98.5 18.6 98.5 18.6 C 98.5 20 99.2 20.4 100.2 20.4 C 101.3 20.4 101.9 20 101.9 18.6 C 101.9 18.6 101.9 7.8 101.9 7.8 C 101.9 6.4 101.3 6 100.2 6 Z " stroke="none" fill="#282828"/>
  </g>
</svg>