<?xml version="1.0" standalone="no"?><!DOCTYPE svg PUBLIC "-//W3C//DTD SVG 1.1//EN" "http://www.w3.org/Graphics/SVG/1.1/DTD/svg11.dtd"><svg xmlns="http://www.w3.org/2000/svg" version="1.1" width="75.4px" height="15.9px" viewBox="0 -4 75.4 15.9" style="top:-4px"><desc>159,878</desc><defs/><g id="Polygon110470"><path d="m47.2 1.8l-.9 1l-.4-.3l1.4-1.4h.4v6h-.5V1.8zm2.3 4.1c.4.5.9.9 1.7.9c.8 0 1.5-.7 1.5-1.5c0-.9-.7-1.5-1.5-1.5c-.6 0-1 .2-1.5.6c.02.02-.4-.1-.4-.1V1.1h3.5v.5h-2.9s-.05 2.32 0 2.3c.2-.3.8-.5 1.4-.5c1 0 1.9.6 1.9 1.9c0 1.2-.9 1.9-2 1.9c-1 0-1.6-.4-2.1-1l.4-.3zm5.3.2c.3.4.7.6 1.4.6c1.3 0 1.7-1.3 1.7-2.6v-.3c-.2.4-.9 1-1.7 1c-1.1 0-2-.6-2-1.9c0-1 .8-1.9 2.1-1.9c1.6 0 2.2 1.5 2.2 3.1c0 1.6-.7 3.1-2.3 3.1c-.8 0-1.3-.3-1.7-.8l.3-.3zm1.5-4.6c-1.1 0-1.5.8-1.5 1.4c0 1 .6 1.5 1.5 1.5c.6 0 1.3-.5 1.6-1.1c-.1-.8-.5-1.8-1.6-1.8zM59.2 8c.3-.2.5-.6.5-.8h-.1c-.2 0-.4-.2-.4-.4c0-.2.2-.4.4-.4c.3 0 .5.2.5.6c0 .5-.3 1-.7 1.2l-.2-.2zm3.4-4c-.7-.2-1.3-.6-1.3-1.4c0-1.1.9-1.6 1.9-1.6c.9 0 1.9.5 1.9 1.6c0 .8-.7 1.2-1.4 1.4c.8.2 1.5.8 1.5 1.6c0 1-.8 1.6-2 1.6c-1.2 0-2-.6-2-1.6c0-.8.7-1.4 1.4-1.6zm.6-2.5c-.8 0-1.4.4-1.4 1.1c0 .9 1 1.1 1.4 1.2c.4-.1 1.4-.3 1.4-1.2c0-.7-.6-1.1-1.4-1.1zm0 2.7c-.4.1-1.5.5-1.5 1.4c0 .7.7 1.2 1.5 1.2c.8 0 1.5-.5 1.5-1.2c0-.9-1.1-1.3-1.5-1.4zm6.2-2.6h-3.3v-.5h3.9v.4l-2.6 5.6h-.5l2.5-5.5zM72.3 4c-.7-.2-1.4-.6-1.4-1.4c0-1.1 1-1.6 2-1.6c.9 0 1.9.5 1.9 1.6c0 .8-.7 1.2-1.4 1.4c.8.2 1.5.8 1.5 1.6c0 1-.9 1.6-2 1.6c-1.2 0-2.1-.6-2.1-1.6c0-.8.7-1.4 1.5-1.6zm.6-2.5c-.8 0-1.5.4-1.5 1.1c0 .9 1.1 1.1 1.5 1.2c.3-.1 1.4-.3 1.4-1.2c0-.7-.7-1.1-1.4-1.1zm0 2.7c-.4.1-1.6.5-1.6 1.4c0 .7.8 1.2 1.6 1.2c.7 0 1.5-.5 1.5-1.2c0-.9-1.2-1.3-1.5-1.4z" stroke="none" fill="#000"/></g></svg>