<?xml version="1.0" standalone="no"?><!DOCTYPE svg PUBLIC "-//W3C//DTD SVG 1.1//EN" "http://www.w3.org/Graphics/SVG/1.1/DTD/svg11.dtd"><svg xmlns="http://www.w3.org/2000/svg" version="1.1" width="134.3px" height="15.9px" viewBox="0 -4 134.3 15.9" style="top:-4px"><desc>Lorem Ipsum</desc><defs/><g id="Polygon287388"><path d="m85 1.1h.5v5.5h2.9v.5H85v-6zm4 3.8c0-1.2.8-2.2 2.1-2.2c1.3 0 2.1 1 2.1 2.2c0 1.3-.8 2.3-2.1 2.3c-1.3 0-2.1-1-2.1-2.3zm3.7 0c0-.9-.6-1.8-1.6-1.8c-1 0-1.6.9-1.6 1.8c0 1 .6 1.9 1.6 1.9c1 0 1.6-.9 1.6-1.9zm1.7-2.1h.5s-.04.71 0 .7c.3-.5.8-.8 1.4-.8v.5h-.2c-.4 0-1 .4-1.2.7c-.04.04 0 3.2 0 3.2h-.5V2.8zm4.7-.1c1.3 0 2 1 2 2.3c.04-.04 0 .1 0 .1c0 0-3.59-.02-3.6 0c.1.9.7 1.7 1.7 1.7c.6 0 1.1-.2 1.4-.6l.3.3c-.5.5-1 .7-1.7.7c-1.3 0-2.2-.9-2.2-2.3c0-1.2.9-2.2 2.1-2.2zm-1.6 2h3.2c0-.7-.5-1.6-1.6-1.6c-1 0-1.6.9-1.6 1.6zm10-.6c0-.6-.2-1-.8-1c-.5 0-1 .3-1.3.7c.01.02 0 3.3 0 3.3h-.5s.03-3.03 0-3c0-.6-.2-1-.8-1c-.5 0-1 .3-1.3.7c.02.02 0 3.3 0 3.3h-.5V2.8h.5s.02.62 0 .6c.2-.3.8-.7 1.4-.7c.7 0 1.1.4 1.2.8c.2-.4.8-.8 1.4-.8c.8 0 1.2.4 1.2 1.3v3.1h-.5s.02-3.03 0-3zm4.3-3h.5v6h-.5v-6zm2 7.7v-6h.5s-.05.66 0 .7c.3-.5.8-.8 1.5-.8c1.1 0 1.9.8 1.9 2.2c0 1.4-.8 2.3-1.9 2.3c-.6 0-1.2-.3-1.5-.8c-.05.01 0 2.4 0 2.4h-.5zm1.9-5.7c-.6 0-1.2.3-1.4.8v2.1c.2.4.8.8 1.4.8c1 0 1.5-.8 1.5-1.9c0-1-.5-1.8-1.5-1.8zm3.1 3.1c.3.3.8.6 1.4.6c.8 0 1.2-.3 1.2-.8c0-.6-.6-.8-1.2-.9c-.8-.2-1.6-.4-1.6-1.2c0-.7.6-1.2 1.6-1.2c.7 0 1.2.2 1.5.6l-.2.3c-.3-.3-.7-.5-1.3-.5c-.7 0-1.1.3-1.1.7c0 .5.6.7 1.2.8c.7.2 1.5.4 1.5 1.3c0 .7-.5 1.3-1.6 1.3c-.7 0-1.2-.2-1.7-.7l.3-.3zm7.2.3c-.4.4-1 .7-1.6.7c-.9 0-1.4-.4-1.4-1.4c.05.02 0-3 0-3h.5s.02 2.92 0 2.9c0 .9.4 1.1 1.1 1.1c.5 0 1.1-.3 1.4-.7c-.02-.02 0-3.3 0-3.3h.4v4.3h-.4s-.02-.63 0-.6zm7.1-2.4c0-.6-.3-1-.9-1c-.5 0-1 .3-1.2.7c-.03.02 0 3.3 0 3.3h-.5v-3c0-.6-.3-1-.9-1c-.4 0-1 .3-1.2.7c-.02.02 0 3.3 0 3.3h-.5V2.8h.5s-.02.62 0 .6c.2-.3.7-.7 1.4-.7c.7 0 1 .4 1.1.8c.3-.4.9-.8 1.5-.8c.8 0 1.2.4 1.2 1.3c-.05-.02 0 3.1 0 3.1h-.5s-.02-3.03 0-3z" stroke="none" fill="#000"/></g></svg>