<?xml version="1.0" standalone="no"?><!DOCTYPE svg PUBLIC "-//W3C//DTD SVG 1.1//EN" "http://www.w3.org/Graphics/SVG/1.1/DTD/svg11.dtd"><svg xmlns="http://www.w3.org/2000/svg" xmlns:xlink="http://www.w3.org/1999/xlink" version="1.1" width="134px" height="32.3px" viewBox="0 -7 134 32.3" style="top:-7px"><desc/><defs/><g id="Polygon74585"><path d="m33.5 12.7c-.02.02 0 1.4 0 1.4h-.7s-.05-1.37 0-1.4c-1.7 0-2.9-.7-3.6-1.6l.6-.7c.6.7 1.6 1.4 3 1.5V7.4c-1.7-.4-3.3-.9-3.3-2.8c0-1.6 1.4-2.7 3.3-2.8c-.05 0 0-1.4 0-1.4h.7s-.02 1.41 0 1.4c1.3.1 2.3.6 3.1 1.5l-.6.6c-.7-.7-1.5-1.2-2.5-1.2v3.9c1.6.5 3.3 1.1 3.3 3.2c0 1.2-.8 2.8-3.3 2.9zm-.7-6.3V2.6c-1.4.1-2.3.9-2.3 2c0 1.1 1 1.5 2.3 1.8zm3.1 3.4c0-1.3-1.1-1.8-2.4-2.2v4.3c1.8-.1 2.4-1.3 2.4-2.1z" stroke="none" fill="#000"/><a xlink:href="DBF_Med.%20HH%20Income%20(1%20Mile)" xlink:show="new" xlink:title="&lt;&lt;Med. HH Income (1 Mile)&gt;&gt;"><rect style="fill:transparent;" x="37" y="1" width="97" height="12"/></a></g><g id="Polygon74586"><path d="m37.7 6.9l6.9-3.6v.8l-6.1 3.1l6.1 3.1v.8l-6.9-3.6v-.6zm7.9 0l6.9-3.6v.8l-6.1 3.1l6.1 3.1v.8l-6.9-3.6v-.6zm17.7-3.8l-3.9 9.4h-.3l-3.9-9.4v9.4h-.9V2h1.3l3.7 8.7L62.8 2h1.4v10.5h-.9V3.1zm6.8 1.6c2.3 0 3.6 1.8 3.6 4c-.03.05 0 .3 0 .3c0 0-6.44-.03-6.4 0c0 1.6 1.1 3 2.9 3c1 0 1.9-.3 2.6-1l.4.5c-.8.8-1.7 1.2-3 1.2c-2.2 0-3.8-1.6-3.8-4c0-2.2 1.5-4 3.7-4zm-2.8 3.6h5.5c0-1.3-.8-2.9-2.8-2.9c-1.8 0-2.7 1.6-2.7 2.9zm14.2 3c-.6.8-1.6 1.4-2.7 1.4c-2 0-3.4-1.5-3.4-4c0-2.4 1.4-4 3.4-4c1.1 0 2 .5 2.7 1.4c-.05.01 0-4.1 0-4.1h.8v10.5h-.8s-.05-1.18 0-1.2zm0-4.5c-.5-.7-1.5-1.4-2.6-1.4c-1.7 0-2.7 1.5-2.7 3.3c0 1.9 1 3.3 2.7 3.3c1.1 0 2.1-.6 2.6-1.4V6.8zm3.8 4.5c.4 0 .7.3.7.7c0 .4-.3.7-.7.7c-.4 0-.7-.3-.7-.7c0-.4.3-.7.7-.7zm14.8-3.8h-6.7v5h-.9V2h.9v4.7h6.7V2h.9v10.5h-.9v-5zm11.2 0h-6.7v5h-.9V2h.9v4.7h6.7V2h.9v10.5h-.9v-5zm7.6-5.5h.9v10.5h-.9V2zm8.7 5.4c0-1.5-.7-2-1.8-2c-1 0-2 .7-2.5 1.3c-.04.05 0 5.8 0 5.8h-.9V4.9h.9s-.04 1.13 0 1.1c.5-.6 1.6-1.3 2.7-1.3c1.6 0 2.4.7 2.4 2.5c.04-.02 0 5.3 0 5.3h-.8s.02-5.13 0-5.1zm2.6.9h3.8v.8h-3.8v-.8z" stroke="none" fill="#000"/></g></svg>