<?xml version="1.0" standalone="no"?><!DOCTYPE svg PUBLIC "-//W3C//DTD SVG 1.1//EN" "http://www.w3.org/Graphics/SVG/1.1/DTD/svg11.dtd"><svg xmlns="http://www.w3.org/2000/svg" version="1.1" width="303px" height="50.3px" viewBox="0 -1 303 50.3" style="top:-1px"><desc>REQUEST MORE INFO</desc><defs/><g id="Polygon66603"><path d="m70.7 24.7h-2v4.1h-1.6V18.2s4.51-.02 4.5 0c2 0 3.4 1.3 3.4 3.2c0 1.9-1.3 3-2.6 3.1c-.03.03 2.7 4.3 2.7 4.3h-1.9l-2.5-4.1zm.7-5.1c0-.02-2.7 0-2.7 0v3.7h2.7c1.1 0 2-.8 2-1.9c0-1.1-.9-1.8-2-1.8zm6.4-1.4h7.1v1.4h-5.6v3.1h5.5v1.4h-5.5v3.3h5.6v1.4h-7.1V18.2zm18.6 9.1c.05.04 1 1.1 1 1.1l-1.1.9s-.98-1.05-1-1.1c-.8.5-1.7.8-2.8.8c-3.1 0-5.3-2.4-5.3-5.5c0-3.2 2.2-5.5 5.3-5.5c3.2 0 5.4 2.3 5.4 5.5c0 1.5-.6 2.9-1.5 3.8zm-2.1-.2c0 .02-1.4-1.5-1.4-1.5l1.1-1s1.4 1.58 1.4 1.6c.5-.7.8-1.7.8-2.7c0-2.4-1.4-4.1-3.7-4.1c-2.2 0-3.7 1.7-3.7 4.1c0 2.3 1.5 4.1 3.7 4.1c.7 0 1.3-.2 1.8-.5zm6.3-8.9h1.6v6.4c0 1.8 1 3 2.9 3c1.8 0 2.8-1.2 2.8-3v-6.4h1.6v6.4c0 2.6-1.5 4.4-4.4 4.4c-3 0-4.5-1.8-4.5-4.4v-6.4zm12.1 0h7.1v1.4h-5.6v3.1h5.5v1.4h-5.5v3.3h5.6v1.4h-7.1V18.2zm10.1 7.9c.7.8 1.9 1.5 3.3 1.5c1.8 0 2.4-.9 2.4-1.7c0-1.1-1.2-1.4-2.6-1.8c-1.7-.4-3.7-.9-3.7-3.1c0-1.7 1.6-3 3.8-3c1.6 0 2.9.5 3.8 1.5l-.9 1.2c-.8-.9-1.9-1.3-3-1.3c-1.2 0-2 .6-2 1.5c0 1 1.1 1.3 2.4 1.6c1.8.5 3.8 1 3.8 3.3c0 1.6-1.2 3.2-4 3.2c-1.9 0-3.3-.7-4.2-1.7l.9-1.2zm12.4-6.5h-3.3v-1.4h8.1v1.4h-3.2v9.2h-1.6v-9.2zm21.3.8l-3.4 8.4h-.7l-3.4-8.4v8.4h-1.6V18.2h2.2l3.1 7.6l3.1-7.6h2.3v10.6h-1.6v-8.4zm9.6-2.4c3.2 0 5.3 2.3 5.3 5.5c0 3.1-2.1 5.5-5.3 5.5c-3.2 0-5.3-2.4-5.3-5.5c0-3.2 2.1-5.5 5.3-5.5zm0 1.4c-2.3 0-3.7 1.7-3.7 4.1c0 2.3 1.4 4.1 3.7 4.1c2.2 0 3.7-1.8 3.7-4.1c0-2.4-1.5-4.1-3.7-4.1zm11.6 5.3h-2v4.1h-1.5V18.2s4.42-.02 4.4 0c2 0 3.4 1.3 3.4 3.2c0 1.9-1.3 3-2.6 3.1c-.01.03 2.7 4.3 2.7 4.3h-1.8l-2.6-4.1zm.7-5.1c.02-.02-2.7 0-2.7 0v3.7h2.7c1.2 0 2-.8 2-1.9c0-1.1-.8-1.8-2-1.8zm6.4-1.4h7.1v1.4h-5.5v3.1h5.4v1.4h-5.4v3.3h5.5v1.4h-7.1V18.2zm14.8 0h1.5v10.6h-1.5V18.2zm6.3 2.4v8.2h-1.6V18.2h1.6l5.8 7.9v-7.9h1.6v10.6h-1.6l-5.8-8.2zm10.5-2.4h7.1v1.4H218v3.1h5.4v1.4H218v4.7h-1.6V18.2zm14.5-.2c3.2 0 5.4 2.3 5.4 5.5c0 3.1-2.2 5.5-5.4 5.5c-3.1 0-5.3-2.4-5.3-5.5c0-3.2 2.2-5.5 5.3-5.5zm0 1.4c-2.2 0-3.7 1.7-3.7 4.1c0 2.3 1.5 4.1 3.7 4.1c2.3 0 3.7-1.8 3.7-4.1c0-2.4-1.4-4.1-3.7-4.1z" stroke="none" fill="#ffffff"/></g></svg>