<?xml version="1.0" standalone="no"?><!DOCTYPE svg PUBLIC "-//W3C//DTD SVG 1.1//EN" "http://www.w3.org/Graphics/SVG/1.1/DTD/svg11.dtd"><svg xmlns="http://www.w3.org/2000/svg" version="1.1" width="343px" height="29.9px" viewBox="0 -7 343 29.9" style="top:-7px"><desc>02</desc><defs/><g id="Polygon271588"><path d="m5.2 1.9c3.1 0 4.3 3 4.3 5.8c0 2.8-1.2 5.8-4.3 5.8c-3.1 0-4.4-3-4.4-5.8c0-2.8 1.3-5.8 4.4-5.8zm0 1.5c-2 0-2.7 2.1-2.7 4.3c0 2.2.7 4.3 2.7 4.3c1.9 0 2.6-2.1 2.6-4.3c0-2.2-.7-4.3-2.6-4.3zm6 8.6c4.2-3.3 6.1-5 6.1-6.7c0-1.3-1.1-1.9-2.1-1.9c-1.4 0-2.4.6-3.1 1.4l-1-1.1c.9-1.2 2.5-1.8 4-1.8C17.2 1.9 19 3 19 5.3c0 2.2-2 4.1-5.1 6.5h5.2v1.5h-7.9V12z" stroke="none" fill="#88898a"/></g></svg>