<?xml version="1.0" standalone="no"?><!DOCTYPE svg PUBLIC "-//W3C//DTD SVG 1.1//EN" "http://www.w3.org/Graphics/SVG/1.1/DTD/svg11.dtd"><svg xmlns="http://www.w3.org/2000/svg" version="1.1" width="134px" height="27.3px" viewBox="0 -6 134 27.3" style="top:-6px"><desc>2,319</desc><defs/><g id="Polygon114313"><path d="m99.4 11.8c3.6-2.9 6-5 6-7c0-1.5-1.3-2.2-2.4-2.2c-1.3 0-2.3.6-2.9 1.4l-.6-.6c.7-1 2-1.6 3.5-1.6c1.5 0 3.3.9 3.3 3c0 2.3-2.4 4.4-5.5 6.9c-.01.02 5.6 0 5.6 0v.8h-7s-.02-.7 0-.7zm9.3 2.3c.5-.3.8-1 .9-1.5l-.2.1c-.4 0-.6-.3-.6-.7c0-.4.3-.7.6-.7c.5 0 .9.4.9 1c0 .9-.6 1.8-1.2 2.2l-.4-.4zm3.6-3.7c.6.9 1.7 1.5 3 1.5c1.6 0 2.7-.8 2.7-2.2c0-1.6-1.3-2.2-2.9-2.2h-1v-.8h1c1.4 0 2.7-.6 2.7-2c0-1.4-1.2-2.1-2.5-2.1c-1.2 0-2.1.5-2.9 1.4l-.5-.6c.7-.9 1.9-1.6 3.4-1.6c1.9 0 3.4 1 3.4 2.8c0 1.6-1.3 2.3-2.2 2.5c.9.1 2.4.9 2.4 2.6c0 1.8-1.3 3-3.6 3c-1.7 0-3-.8-3.6-1.7l.6-.6zm10.2-7.2L120.8 5l-.6-.6l2.4-2.4h.8v10.5h-.9V3.2zm4.2 7.5c.5.7 1.2 1.2 2.3 1.2c2.4 0 3.2-2.4 3.2-4.7v-.5c-.5.8-1.7 1.8-3.1 1.8c-1.9 0-3.5-1.1-3.5-3.3c0-1.8 1.3-3.4 3.6-3.4c2.9 0 3.9 2.6 3.9 5.5c0 2.7-1.2 5.4-4.1 5.4c-1.3 0-2.2-.5-2.8-1.3l.5-.7zm2.5-8.1c-1.8 0-2.6 1.4-2.6 2.5c0 1.8 1.1 2.6 2.6 2.6c1.2 0 2.3-.7 2.9-1.8c-.1-1.5-.9-3.3-2.9-3.3z" stroke="none" fill="#000"/></g></svg>