<?xml version="1.0" standalone="no"?>
<!DOCTYPE svg PUBLIC "-//W3C//DTD SVG 1.1//EN" "http://www.w3.org/Graphics/SVG/1.1/DTD/svg11.dtd">
<svg xmlns="http://www.w3.org/2000/svg" version="1.1" width="220.1px" height="39.5px" viewBox="0 -4 220.1 39.5" style="top:-4px">
  <desc>SUBJECT PROPERTY INVESTMENT SUMMARY</desc>
  <defs/>
  <g id="Polygon205214">
    <path d="M 0.9 26.3 L 0.9 15.1 L 2.7 15.1 L 2.7 26.3 L 0.9 26.3 Z M 4.2 26.3 L 4.2 15.1 L 6.1 15.1 L 8.4 22 L 8.4 15.1 L 10.1 15.1 L 10.1 26.3 L 8.4 26.3 L 5.9 19 L 5.9 26.3 L 4.2 26.3 Z M 15.1 26.3 L 13 26.3 L 10.9 15.1 L 12.8 15.1 L 14.1 23.4 L 15.4 15.1 L 17.2 15.1 L 15.1 26.3 Z M 17.9 26.3 L 17.9 15.1 L 22.8 15.1 L 22.8 16.7 L 19.8 16.7 L 19.8 19.8 L 22.4 19.8 L 22.4 21.4 L 19.8 21.4 L 19.8 24.7 L 22.9 24.7 L 22.9 26.3 L 17.9 26.3 Z M 27.4 19.1 C 27.4 19.1 27.44 17.54 27.4 17.5 C 27.4 16.8 27 16.6 26.5 16.6 C 26 16.6 25.6 16.8 25.6 17.5 C 25.6 17.5 25.6 18.3 25.6 18.3 C 25.6 18.9 25.7 19.1 26.3 19.4 C 26.3 19.4 27.6 20.2 27.6 20.2 C 28.7 20.8 29.3 21.3 29.3 22.5 C 29.3 22.5 29.3 24.1 29.3 24.1 C 29.3 25.8 28.2 26.4 26.5 26.4 C 26.5 26.4 26.5 26.4 26.5 26.4 C 24.8 26.4 23.7 25.8 23.7 24.1 C 23.73 24.1 23.7 22.1 23.7 22.1 L 25.6 22.1 C 25.6 22.1 25.55 23.85 25.6 23.8 C 25.6 24.5 26 24.8 26.5 24.8 C 27.1 24.8 27.5 24.5 27.5 23.8 C 27.5 23.8 27.5 23 27.5 23 C 27.5 22.4 27.3 22.1 26.7 21.8 C 26.7 21.8 25.4 21.1 25.4 21.1 C 24.4 20.4 23.7 19.9 23.7 18.8 C 23.7 18.8 23.7 17.3 23.7 17.3 C 23.7 15.6 24.9 15 26.5 15 C 26.5 15 26.5 15 26.5 15 C 28 15 29.3 15.6 29.3 17.3 C 29.26 17.29 29.3 19.1 29.3 19.1 L 27.4 19.1 Z M 35.4 16.7 L 33.5 16.7 L 33.5 26.3 L 31.6 26.3 L 31.6 16.7 L 29.8 16.7 L 29.8 15.1 L 35.4 15.1 L 35.4 16.7 Z M 40.6 24.7 L 39.6 24.7 L 37.9 19.5 L 37.9 26.3 L 36.2 26.3 L 36.2 15.1 L 37.9 15.1 L 40.1 21.6 L 42.3 15.1 L 44.1 15.1 L 44.1 26.3 L 42.3 26.3 L 42.3 19.5 L 40.6 24.7 Z M 45.5 26.3 L 45.5 15.1 L 50.4 15.1 L 50.4 16.7 L 47.4 16.7 L 47.4 19.8 L 50 19.8 L 50 21.4 L 47.4 21.4 L 47.4 24.7 L 50.5 24.7 L 50.5 26.3 L 45.5 26.3 Z M 51.6 26.3 L 51.6 15.1 L 53.5 15.1 L 55.9 22 L 55.9 15.1 L 57.6 15.1 L 57.6 26.3 L 55.8 26.3 L 53.3 19 L 53.3 26.3 L 51.6 26.3 Z M 64 16.7 L 62.1 16.7 L 62.1 26.3 L 60.2 26.3 L 60.2 16.7 L 58.4 16.7 L 58.4 15.1 L 64 15.1 L 64 16.7 Z M 70.5 19.1 C 70.5 19.1 70.48 17.54 70.5 17.5 C 70.5 16.8 70.1 16.6 69.5 16.6 C 69 16.6 68.6 16.8 68.6 17.5 C 68.6 17.5 68.6 18.3 68.6 18.3 C 68.6 18.9 68.8 19.1 69.3 19.4 C 69.3 19.4 70.6 20.2 70.6 20.2 C 71.7 20.8 72.3 21.3 72.3 22.5 C 72.3 22.5 72.3 24.1 72.3 24.1 C 72.3 25.8 71.3 26.4 69.6 26.4 C 69.6 26.4 69.5 26.4 69.5 26.4 C 67.8 26.4 66.8 25.8 66.8 24.1 C 66.77 24.1 66.8 22.1 66.8 22.1 L 68.6 22.1 C 68.6 22.1 68.59 23.85 68.6 23.8 C 68.6 24.5 69 24.8 69.6 24.8 C 70.1 24.8 70.5 24.5 70.5 23.8 C 70.5 23.8 70.5 23 70.5 23 C 70.5 22.4 70.3 22.1 69.8 21.8 C 69.8 21.8 68.5 21.1 68.5 21.1 C 67.4 20.4 66.8 19.9 66.8 18.8 C 66.8 18.8 66.8 17.3 66.8 17.3 C 66.8 15.6 68 15 69.5 15 C 69.5 15 69.6 15 69.6 15 C 71.1 15 72.3 15.6 72.3 17.3 C 72.3 17.29 72.3 19.1 72.3 19.1 L 70.5 19.1 Z M 79.1 24.1 C 79.1 25.8 78 26.4 76.3 26.4 C 76.3 26.4 76.3 26.4 76.3 26.4 C 74.6 26.4 73.5 25.8 73.5 24.1 C 73.49 24.07 73.5 15.1 73.5 15.1 L 75.3 15.1 C 75.3 15.1 75.34 23.78 75.3 23.8 C 75.3 24.6 75.7 24.8 76.3 24.8 C 76.9 24.8 77.3 24.6 77.3 23.8 C 77.26 23.78 77.3 15.1 77.3 15.1 L 79.1 15.1 C 79.1 15.1 79.12 24.07 79.1 24.1 Z M 85 24.7 L 83.9 24.7 L 82.3 19.5 L 82.3 26.3 L 80.5 26.3 L 80.5 15.1 L 82.3 15.1 L 84.4 21.6 L 86.6 15.1 L 88.4 15.1 L 88.4 26.3 L 86.7 26.3 L 86.7 19.5 L 85 24.7 Z M 94.3 24.7 L 93.3 24.7 L 91.6 19.5 L 91.6 26.3 L 89.9 26.3 L 89.9 15.1 L 91.6 15.1 L 93.8 21.6 L 96 15.1 L 97.8 15.1 L 97.8 26.3 L 96 26.3 L 96 19.5 L 94.3 24.7 Z M 102.8 23.8 L 100.8 23.8 L 100.4 26.3 L 98.6 26.3 L 100.7 15.1 L 103 15.1 L 105.1 26.3 L 103.2 26.3 L 102.8 23.8 Z M 102.6 22.3 L 101.8 17.3 L 101 22.3 L 102.6 22.3 Z M 110.1 26.3 L 108.7 21.8 L 107.7 21.8 L 107.7 26.3 L 105.9 26.3 L 105.9 15.1 C 105.9 15.1 108.77 15.11 108.8 15.1 C 110.5 15.1 111.6 15.8 111.6 17.5 C 111.6 17.5 111.6 19.5 111.6 19.5 C 111.6 20.5 111.1 21.2 110.4 21.6 C 110.37 21.56 112 26.3 112 26.3 L 110.1 26.3 Z M 107.7 20.2 C 107.7 20.2 108.7 20.25 108.7 20.2 C 109.3 20.2 109.7 20 109.7 19.2 C 109.7 19.2 109.7 17.8 109.7 17.8 C 109.7 17 109.3 16.7 108.7 16.7 C 108.7 16.74 107.7 16.7 107.7 16.7 L 107.7 20.2 Z M 116.1 26.3 L 114.3 26.3 L 114.3 22.3 L 112 15.1 L 114 15.1 L 115.2 20.3 L 116.4 15.1 L 118.4 15.1 L 116.1 22.3 L 116.1 26.3 Z " stroke="none" fill="#282828"/>
  </g>
  <g id="Polygon205213">
    <path d="M 0.8 5.6 C 1.2 6 1.9 6.4 2.7 6.4 C 3.7 6.4 4 5.9 4 5.5 C 4 4.9 3.3 4.7 2.6 4.5 C 1.6 4.2 0.5 4 0.5 2.7 C 0.5 1.7 1.4 1 2.6 1 C 3.5 1 4.3 1.3 4.8 1.9 C 4.8 1.9 4.3 2.5 4.3 2.5 C 3.8 2 3.2 1.8 2.5 1.8 C 1.9 1.8 1.4 2.2 1.4 2.7 C 1.4 3.2 2.1 3.4 2.8 3.6 C 3.8 3.8 4.9 4.1 4.9 5.4 C 4.9 6.3 4.3 7.2 2.7 7.2 C 1.6 7.2 0.8 6.8 0.3 6.3 C 0.3 6.3 0.8 5.6 0.8 5.6 Z M 5.9 1.1 L 6.8 1.1 C 6.8 1.1 6.79 4.73 6.8 4.7 C 6.8 5.8 7.4 6.4 8.4 6.4 C 9.5 6.4 10 5.8 10 4.7 C 10.03 4.73 10 1.1 10 1.1 L 10.9 1.1 C 10.9 1.1 10.93 4.75 10.9 4.8 C 10.9 6.2 10.1 7.2 8.4 7.2 C 6.7 7.2 5.9 6.2 5.9 4.8 C 5.89 4.76 5.9 1.1 5.9 1.1 Z M 12.2 1.1 C 12.2 1.1 15 1.11 15 1.1 C 16.1 1.1 16.7 1.8 16.7 2.6 C 16.7 3.4 16.2 3.9 15.7 4 C 16.3 4.1 16.8 4.8 16.8 5.5 C 16.8 6.4 16.2 7.1 15.1 7.1 C 15.08 7.11 12.2 7.1 12.2 7.1 L 12.2 1.1 Z M 14.8 3.7 C 15.4 3.7 15.8 3.3 15.8 2.8 C 15.8 2.3 15.4 1.9 14.8 1.9 C 14.83 1.9 13.1 1.9 13.1 1.9 L 13.1 3.7 C 13.1 3.7 14.83 3.65 14.8 3.7 Z M 14.9 6.3 C 15.5 6.3 15.9 6 15.9 5.4 C 15.9 4.9 15.5 4.4 14.9 4.4 C 14.88 4.45 13.1 4.4 13.1 4.4 L 13.1 6.3 C 13.1 6.3 14.88 6.32 14.9 6.3 Z M 17.7 5.9 C 17.9 6.2 18.3 6.4 18.8 6.4 C 19.5 6.4 19.9 5.9 19.9 5.2 C 19.9 5.25 19.9 1.1 19.9 1.1 L 20.8 1.1 C 20.8 1.1 20.8 5.26 20.8 5.3 C 20.8 6.6 20 7.2 18.8 7.2 C 18.2 7.2 17.7 7 17.3 6.6 C 17.3 6.6 17.7 5.9 17.7 5.9 Z M 22.1 1.1 L 26.1 1.1 L 26.1 1.9 L 22.9 1.9 L 22.9 3.7 L 26 3.7 L 26 4.4 L 22.9 4.4 L 22.9 6.3 L 26.1 6.3 L 26.1 7.1 L 22.1 7.1 L 22.1 1.1 Z M 26.9 4.1 C 26.9 2.3 28.2 1 29.9 1 C 31.1 1 31.9 1.6 32.3 2.3 C 32.3 2.3 31.6 2.7 31.6 2.7 C 31.2 2.2 30.7 1.8 29.9 1.8 C 28.7 1.8 27.8 2.8 27.8 4.1 C 27.8 5.5 28.7 6.4 29.9 6.4 C 30.7 6.4 31.2 6 31.6 5.5 C 31.6 5.5 32.3 5.9 32.3 5.9 C 31.9 6.7 31.1 7.2 29.9 7.2 C 28.2 7.2 26.9 6 26.9 4.1 Z M 34.6 1.9 L 32.7 1.9 L 32.7 1.1 L 37.4 1.1 L 37.4 1.9 L 35.5 1.9 L 35.5 7.1 L 34.6 7.1 L 34.6 1.9 Z M 40.4 1.1 C 40.4 1.1 42.97 1.11 43 1.1 C 44.2 1.1 44.9 2 44.9 3 C 44.9 4 44.2 4.8 43 4.8 C 42.97 4.8 41.3 4.8 41.3 4.8 L 41.3 7.1 L 40.4 7.1 L 40.4 1.1 Z M 42.8 1.9 C 42.85 1.9 41.3 1.9 41.3 1.9 L 41.3 4 C 41.3 4 42.85 4.01 42.8 4 C 43.5 4 44 3.6 44 3 C 44 2.3 43.5 1.9 42.8 1.9 Z M 47.7 4.8 L 46.6 4.8 L 46.6 7.1 L 45.7 7.1 L 45.7 1.1 C 45.7 1.1 48.25 1.11 48.2 1.1 C 49.4 1.1 50.2 1.8 50.2 3 C 50.2 4 49.4 4.6 48.7 4.7 C 48.68 4.71 50.2 7.1 50.2 7.1 L 49.2 7.1 L 47.7 4.8 Z M 48.1 1.9 C 48.13 1.9 46.6 1.9 46.6 1.9 L 46.6 4 C 46.6 4 48.13 4.01 48.1 4 C 48.8 4 49.2 3.6 49.2 3 C 49.2 2.3 48.8 1.9 48.1 1.9 Z M 54 1 C 55.8 1 57 2.3 57 4.1 C 57 5.9 55.8 7.2 54 7.2 C 52.2 7.2 50.9 5.9 50.9 4.1 C 50.9 2.3 52.2 1 54 1 Z M 54 1.8 C 52.7 1.8 51.9 2.8 51.9 4.1 C 51.9 5.4 52.7 6.4 54 6.4 C 55.2 6.4 56.1 5.4 56.1 4.1 C 56.1 2.8 55.2 1.8 54 1.8 Z M 58 1.1 C 58 1.1 60.52 1.11 60.5 1.1 C 61.7 1.1 62.4 2 62.4 3 C 62.4 4 61.7 4.8 60.5 4.8 C 60.52 4.8 58.9 4.8 58.9 4.8 L 58.9 7.1 L 58 7.1 L 58 1.1 Z M 60.4 1.9 C 60.4 1.9 58.9 1.9 58.9 1.9 L 58.9 4 C 58.9 4 60.4 4.01 60.4 4 C 61 4 61.5 3.6 61.5 3 C 61.5 2.3 61 1.9 60.4 1.9 Z M 63.3 1.1 L 67.3 1.1 L 67.3 1.9 L 64.2 1.9 L 64.2 3.7 L 67.2 3.7 L 67.2 4.4 L 64.2 4.4 L 64.2 6.3 L 67.3 6.3 L 67.3 7.1 L 63.3 7.1 L 63.3 1.1 Z M 70.4 4.8 L 69.2 4.8 L 69.2 7.1 L 68.3 7.1 L 68.3 1.1 C 68.3 1.1 70.87 1.11 70.9 1.1 C 72 1.1 72.8 1.8 72.8 3 C 72.8 4 72.1 4.6 71.3 4.7 C 71.3 4.71 72.8 7.1 72.8 7.1 L 71.8 7.1 L 70.4 4.8 Z M 70.7 1.9 C 70.75 1.9 69.2 1.9 69.2 1.9 L 69.2 4 C 69.2 4 70.75 4.01 70.7 4 C 71.4 4 71.9 3.6 71.9 3 C 71.9 2.3 71.4 1.9 70.7 1.9 Z M 75.2 1.9 L 73.3 1.9 L 73.3 1.1 L 77.9 1.1 L 77.9 1.9 L 76.1 1.9 L 76.1 7.1 L 75.2 7.1 L 75.2 1.9 Z M 80.5 4.6 L 78.2 1.1 L 79.2 1.1 L 81 3.8 L 82.7 1.1 L 83.8 1.1 L 81.4 4.6 L 81.4 7.1 L 80.5 7.1 L 80.5 4.6 Z " stroke="none" fill="#3797ef"/>
  </g>
</svg>