<?xml version="1.0" standalone="no"?>
<!DOCTYPE svg PUBLIC "-//W3C//DTD SVG 1.1//EN" "http://www.w3.org/Graphics/SVG/1.1/DTD/svg11.dtd">
<svg xmlns="http://www.w3.org/2000/svg" version="1.1" width="89.3px" height="16.9px" viewBox="0 -4 89.3 16.9" style="top:-4px">
  <desc>Term Remaining</desc>
  <defs/>
  <g id="Polygon274446">
    <path d="M 2.1 1.9 L 0.3 1.9 L 0.3 1.1 L 4.9 1.1 L 4.9 1.9 L 3 1.9 L 3 7.1 L 2.1 7.1 L 2.1 1.9 Z M 6.7 2.7 C 8 2.7 8.8 3.7 8.8 5 C 8.84 5 8.8 5.2 8.8 5.2 C 8.8 5.2 5.4 5.2 5.4 5.2 C 5.5 5.9 6 6.6 6.9 6.6 C 7.3 6.6 7.8 6.4 8.2 6 C 8.2 6 8.5 6.6 8.5 6.6 C 8.1 7 7.5 7.2 6.8 7.2 C 5.5 7.2 4.5 6.3 4.5 4.9 C 4.5 3.7 5.5 2.7 6.7 2.7 Z M 5.4 4.6 C 5.4 4.6 8 4.6 8 4.6 C 8 4 7.6 3.3 6.7 3.3 C 5.8 3.3 5.4 4 5.4 4.6 Z M 9.9 2.8 L 10.7 2.8 C 10.7 2.8 10.66 3.43 10.7 3.4 C 11 3 11.5 2.7 12.1 2.7 C 12.1 2.7 12.1 3.5 12.1 3.5 C 12 3.5 11.9 3.5 11.8 3.5 C 11.4 3.5 10.9 3.8 10.7 4.1 C 10.66 4.09 10.7 7.1 10.7 7.1 L 9.9 7.1 L 9.9 2.8 Z M 18.2 4.2 C 18.2 3.7 18 3.4 17.4 3.4 C 17 3.4 16.6 3.7 16.3 4 C 16.34 4 16.3 7.1 16.3 7.1 L 15.5 7.1 C 15.5 7.1 15.53 4.21 15.5 4.2 C 15.5 3.7 15.3 3.4 14.8 3.4 C 14.3 3.4 13.9 3.7 13.7 4 C 13.71 4 13.7 7.1 13.7 7.1 L 12.9 7.1 L 12.9 2.8 L 13.7 2.8 C 13.7 2.8 13.71 3.37 13.7 3.4 C 13.9 3.1 14.5 2.7 15.1 2.7 C 15.8 2.7 16.2 3 16.3 3.5 C 16.5 3.1 17.1 2.7 17.8 2.7 C 18.6 2.7 19 3.1 19 4 C 18.99 3.97 19 7.1 19 7.1 L 18.2 7.1 C 18.2 7.1 18.18 4.21 18.2 4.2 Z M 24.6 4.8 L 23.5 4.8 L 23.5 7.1 L 22.6 7.1 L 22.6 1.1 C 22.6 1.1 25.15 1.11 25.1 1.1 C 26.3 1.1 27.1 1.8 27.1 3 C 27.1 4 26.3 4.6 25.6 4.7 C 25.58 4.71 27.1 7.1 27.1 7.1 L 26.1 7.1 L 24.6 4.8 Z M 25 1.9 C 25.03 1.9 23.5 1.9 23.5 1.9 L 23.5 4 C 23.5 4 25.03 4.01 25 4 C 25.7 4 26.1 3.6 26.1 3 C 26.1 2.3 25.7 1.9 25 1.9 Z M 29.8 2.7 C 31.1 2.7 31.9 3.7 31.9 5 C 31.91 5 31.9 5.2 31.9 5.2 C 31.9 5.2 28.48 5.2 28.5 5.2 C 28.5 5.9 29.1 6.6 30 6.6 C 30.4 6.6 30.9 6.4 31.2 6 C 31.2 6 31.6 6.6 31.6 6.6 C 31.2 7 30.6 7.2 29.9 7.2 C 28.6 7.2 27.6 6.3 27.6 4.9 C 27.6 3.7 28.5 2.7 29.8 2.7 Z M 28.5 4.6 C 28.5 4.6 31.1 4.6 31.1 4.6 C 31.1 4 30.7 3.3 29.8 3.3 C 28.9 3.3 28.5 4 28.5 4.6 Z M 38.2 4.2 C 38.2 3.7 38 3.4 37.5 3.4 C 37 3.4 36.6 3.7 36.4 4 C 36.38 4 36.4 7.1 36.4 7.1 L 35.6 7.1 C 35.6 7.1 35.57 4.21 35.6 4.2 C 35.6 3.7 35.4 3.4 34.8 3.4 C 34.4 3.4 34 3.7 33.7 4 C 33.74 4 33.7 7.1 33.7 7.1 L 32.9 7.1 L 32.9 2.8 L 33.7 2.8 C 33.7 2.8 33.74 3.37 33.7 3.4 C 33.9 3.1 34.5 2.7 35.1 2.7 C 35.8 2.7 36.2 3 36.3 3.5 C 36.6 3.1 37.2 2.7 37.8 2.7 C 38.6 2.7 39 3.1 39 4 C 39.02 3.97 39 7.1 39 7.1 L 38.2 7.1 C 38.2 7.1 38.21 4.21 38.2 4.2 Z M 43 6.6 C 42.7 7 42.2 7.2 41.6 7.2 C 40.9 7.2 40.1 6.7 40.1 5.8 C 40.1 4.8 40.8 4.4 41.6 4.4 C 42.2 4.4 42.7 4.5 43 4.9 C 43 4.9 43 4.2 43 4.2 C 43 3.7 42.6 3.3 41.9 3.3 C 41.4 3.3 41 3.5 40.6 3.9 C 40.6 3.9 40.3 3.4 40.3 3.4 C 40.8 2.9 41.4 2.7 42.1 2.7 C 43 2.7 43.8 3.1 43.8 4.2 C 43.8 4.18 43.8 7.1 43.8 7.1 L 43 7.1 C 43 7.1 42.99 6.63 43 6.6 Z M 43 5.4 C 42.8 5.1 42.3 4.9 41.9 4.9 C 41.3 4.9 40.9 5.3 40.9 5.8 C 40.9 6.3 41.3 6.7 41.9 6.7 C 42.3 6.7 42.8 6.5 43 6.2 C 43 6.2 43 5.4 43 5.4 Z M 45 1.5 C 45 1.2 45.2 1 45.5 1 C 45.8 1 46 1.2 46 1.5 C 46 1.8 45.8 2 45.5 2 C 45.2 2 45 1.8 45 1.5 Z M 45.1 2.8 L 45.9 2.8 L 45.9 7.1 L 45.1 7.1 L 45.1 2.8 Z M 50.1 4.3 C 50.1 3.6 49.8 3.4 49.2 3.4 C 48.7 3.4 48.2 3.7 48 4 C 48.01 4 48 7.1 48 7.1 L 47.2 7.1 L 47.2 2.8 L 48 2.8 C 48 2.8 48.01 3.37 48 3.4 C 48.3 3 48.9 2.7 49.5 2.7 C 50.5 2.7 50.9 3.1 50.9 4.1 C 50.94 4.06 50.9 7.1 50.9 7.1 L 50.1 7.1 C 50.1 7.1 50.13 4.33 50.1 4.3 Z M 52.1 1.5 C 52.1 1.2 52.3 1 52.6 1 C 52.9 1 53.1 1.2 53.1 1.5 C 53.1 1.8 52.9 2 52.6 2 C 52.3 2 52.1 1.8 52.1 1.5 Z M 52.2 2.8 L 53 2.8 L 53 7.1 L 52.2 7.1 L 52.2 2.8 Z M 57.3 4.3 C 57.3 3.6 56.9 3.4 56.3 3.4 C 55.8 3.4 55.4 3.7 55.1 4 C 55.13 4 55.1 7.1 55.1 7.1 L 54.3 7.1 L 54.3 2.8 L 55.1 2.8 C 55.1 2.8 55.13 3.37 55.1 3.4 C 55.4 3 56 2.7 56.7 2.7 C 57.6 2.7 58.1 3.1 58.1 4.1 C 58.07 4.06 58.1 7.1 58.1 7.1 L 57.3 7.1 C 57.3 7.1 57.26 4.33 57.3 4.3 Z M 59.7 7.6 C 60.1 8 60.5 8.2 61.1 8.2 C 61.8 8.2 62.5 7.9 62.5 7 C 62.5 7 62.5 6.4 62.5 6.4 C 62.1 6.8 61.6 7.1 61 7.1 C 59.9 7.1 59.1 6.3 59.1 4.9 C 59.1 3.5 59.9 2.7 61 2.7 C 61.6 2.7 62.1 2.9 62.5 3.4 C 62.45 3.39 62.5 2.8 62.5 2.8 L 63.3 2.8 C 63.3 2.8 63.26 6.94 63.3 6.9 C 63.3 8.4 62.2 8.9 61.1 8.9 C 60.4 8.9 59.8 8.7 59.3 8.2 C 59.3 8.2 59.7 7.6 59.7 7.6 Z M 62.5 4 C 62.2 3.7 61.7 3.4 61.2 3.4 C 60.4 3.4 59.9 4 59.9 4.9 C 59.9 5.8 60.4 6.4 61.2 6.4 C 61.7 6.4 62.2 6.1 62.5 5.8 C 62.5 5.8 62.5 4 62.5 4 Z " stroke="none" fill="#000"/>
  </g>
</svg>