<?xml version="1.0" standalone="no"?>
<!DOCTYPE svg PUBLIC "-//W3C//DTD SVG 1.1//EN" "http://www.w3.org/Graphics/SVG/1.1/DTD/svg11.dtd">
<svg xmlns="http://www.w3.org/2000/svg" version="1.1" width="87px" height="36.9px" viewBox="0 -6 87 36.9" style="top:-6px">
  <desc>Agent 1</desc>
  <defs/>
  <g id="Polygon205680">
    <path d="M 1.6 20.5 L 1.6 25.1 L 0.7 25.1 L 0.7 19.1 L 1.6 19.1 L 4.9 23.6 L 4.9 19.1 L 5.8 19.1 L 5.8 25.1 L 4.9 25.1 L 1.6 20.5 Z M 9.8 19 C 11.6 19 12.8 20.3 12.8 22.1 C 12.8 23.9 11.6 25.2 9.8 25.2 C 8 25.2 6.8 23.9 6.8 22.1 C 6.8 20.3 8 19 9.8 19 Z M 9.8 19.8 C 8.5 19.8 7.7 20.8 7.7 22.1 C 7.7 23.4 8.5 24.4 9.8 24.4 C 11 24.4 11.9 23.4 11.9 22.1 C 11.9 20.8 11 19.8 9.8 19.8 Z M 13.8 19.1 L 14.7 19.1 L 14.7 25.1 L 13.8 25.1 L 13.8 19.1 Z " stroke="none" fill="#3797ef"/>
  </g>
  <g id="Polygon205679">
    <path d="M 6.1 9.3 C 6.1 9.3 6.1 10.9 6.1 10.9 C 6.1 12.3 5.4 13 4.2 13.1 C 4.19 13.15 4.2 14.3 4.2 14.3 L 2.5 14.3 C 2.5 14.3 2.54 13.17 2.5 13.2 C 1.3 13 0.6 12.3 0.6 10.9 C 0.58 10.88 0.6 8.9 0.6 8.9 L 2.4 8.9 C 2.4 8.9 2.4 10.62 2.4 10.6 C 2.4 11.3 2.8 11.6 3.4 11.6 C 3.9 11.6 4.3 11.3 4.3 10.6 C 4.3 10.6 4.3 9.7 4.3 9.7 C 4.3 9.2 4.1 8.9 3.6 8.6 C 3.6 8.6 2.3 7.8 2.3 7.8 C 1.2 7.2 0.6 6.7 0.6 5.5 C 0.6 5.5 0.6 4.1 0.6 4.1 C 0.6 2.7 1.4 2 2.5 1.8 C 2.54 1.82 2.5 0.6 2.5 0.6 L 4.2 0.6 C 4.2 0.6 4.19 1.82 4.2 1.8 C 5.3 2 6.1 2.7 6.1 4.1 C 6.11 4.06 6.1 5.9 6.1 5.9 L 4.3 5.9 C 4.3 5.9 4.29 4.32 4.3 4.3 C 4.3 3.6 3.9 3.4 3.3 3.4 C 2.8 3.4 2.4 3.6 2.4 4.3 C 2.4 4.3 2.4 5.1 2.4 5.1 C 2.4 5.7 2.6 5.9 3.1 6.2 C 3.1 6.2 4.4 7 4.4 7 C 5.5 7.6 6.1 8.1 6.1 9.3 Z M 12.8 4.1 C 12.8 4.1 12.8 10.8 12.8 10.8 C 12.8 12.5 11.8 13.2 10.1 13.2 C 10.1 13.2 10 13.2 10 13.2 C 8.3 13.2 7.3 12.5 7.3 10.8 C 7.3 10.8 7.3 4.1 7.3 4.1 C 7.3 2.4 8.3 1.8 10 1.8 C 10 1.8 10.1 1.8 10.1 1.8 C 11.8 1.8 12.8 2.4 12.8 4.1 Z M 10 3.4 C 9.4 3.4 9.1 3.6 9.1 4.4 C 9.1 4.4 9.1 10.6 9.1 10.6 C 9.1 11.4 9.4 11.6 10 11.6 C 10.6 11.6 11 11.4 11 10.6 C 11 10.6 11 4.4 11 4.4 C 11 3.6 10.6 3.4 10 3.4 Z M 19.6 4.1 C 19.6 4.1 19.6 10.8 19.6 10.8 C 19.6 12.5 18.6 13.2 16.9 13.2 C 16.9 13.2 16.8 13.2 16.8 13.2 C 15.1 13.2 14.1 12.5 14.1 10.8 C 14.1 10.8 14.1 4.1 14.1 4.1 C 14.1 2.4 15.1 1.8 16.8 1.8 C 16.8 1.8 16.9 1.8 16.9 1.8 C 18.6 1.8 19.6 2.4 19.6 4.1 Z M 16.8 3.4 C 16.2 3.4 15.9 3.6 15.9 4.4 C 15.9 4.4 15.9 10.6 15.9 10.6 C 15.9 11.4 16.2 11.6 16.8 11.6 C 17.4 11.6 17.8 11.4 17.8 10.6 C 17.8 10.6 17.8 4.4 17.8 4.4 C 17.8 3.6 17.4 3.4 16.8 3.4 Z M 26.4 4.1 C 26.4 4.1 26.4 10.8 26.4 10.8 C 26.4 12.5 25.4 13.2 23.7 13.2 C 23.7 13.2 23.6 13.2 23.6 13.2 C 21.9 13.2 20.9 12.5 20.9 10.8 C 20.9 10.8 20.9 4.1 20.9 4.1 C 20.9 2.4 21.9 1.8 23.6 1.8 C 23.6 1.8 23.7 1.8 23.7 1.8 C 25.4 1.8 26.4 2.4 26.4 4.1 Z M 23.6 3.4 C 23.1 3.4 22.7 3.6 22.7 4.4 C 22.7 4.4 22.7 10.6 22.7 10.6 C 22.7 11.4 23.1 11.6 23.6 11.6 C 24.2 11.6 24.6 11.4 24.6 10.6 C 24.6 10.6 24.6 4.4 24.6 4.4 C 24.6 3.6 24.2 3.4 23.6 3.4 Z M 29.4 12.6 C 29.4 13.6 28.9 14.6 28.4 15.2 C 28.4 15.2 27.7 14.8 27.7 14.8 C 28.1 14.3 28.4 13.6 28.5 13.1 C 28.46 13.09 27.6 13.1 27.6 13.1 L 27.6 11 L 29.4 11 C 29.4 11 29.44 12.61 29.4 12.6 Z M 36.2 4.1 C 36.2 4.1 36.2 10.8 36.2 10.8 C 36.2 12.5 35.2 13.2 33.5 13.2 C 33.5 13.2 33.3 13.2 33.3 13.2 C 31.7 13.2 30.7 12.5 30.7 10.8 C 30.7 10.8 30.7 4.1 30.7 4.1 C 30.7 2.4 31.7 1.8 33.3 1.8 C 33.3 1.8 33.5 1.8 33.5 1.8 C 35.2 1.8 36.2 2.4 36.2 4.1 Z M 33.4 3.4 C 32.8 3.4 32.4 3.6 32.4 4.4 C 32.4 4.4 32.4 10.6 32.4 10.6 C 32.4 11.4 32.8 11.6 33.4 11.6 C 34 11.6 34.4 11.4 34.4 10.6 C 34.4 10.6 34.4 4.4 34.4 4.4 C 34.4 3.6 34 3.4 33.4 3.4 Z M 43 4.1 C 43 4.1 43 10.8 43 10.8 C 43 12.5 42 13.2 40.3 13.2 C 40.3 13.2 40.2 13.2 40.2 13.2 C 38.5 13.2 37.5 12.5 37.5 10.8 C 37.5 10.8 37.5 4.1 37.5 4.1 C 37.5 2.4 38.5 1.8 40.2 1.8 C 40.2 1.8 40.3 1.8 40.3 1.8 C 42 1.8 43 2.4 43 4.1 Z M 40.2 3.4 C 39.6 3.4 39.3 3.6 39.3 4.4 C 39.3 4.4 39.3 10.6 39.3 10.6 C 39.3 11.4 39.6 11.6 40.2 11.6 C 40.8 11.6 41.2 11.4 41.2 10.6 C 41.2 10.6 41.2 4.4 41.2 4.4 C 41.2 3.6 40.8 3.4 40.2 3.4 Z M 49.8 4.1 C 49.8 4.1 49.8 10.8 49.8 10.8 C 49.8 12.5 48.8 13.2 47.1 13.2 C 47.1 13.2 47 13.2 47 13.2 C 45.3 13.2 44.3 12.5 44.3 10.8 C 44.3 10.8 44.3 4.1 44.3 4.1 C 44.3 2.4 45.3 1.8 47 1.8 C 47 1.8 47.1 1.8 47.1 1.8 C 48.8 1.8 49.8 2.4 49.8 4.1 Z M 47 3.4 C 46.4 3.4 46.1 3.6 46.1 4.4 C 46.1 4.4 46.1 10.6 46.1 10.6 C 46.1 11.4 46.4 11.6 47 11.6 C 47.6 11.6 48 11.4 48 10.6 C 48 10.6 48 4.4 48 4.4 C 48 3.6 47.6 3.4 47 3.4 Z " stroke="none" fill="#282828"/>
  </g>
</svg>