<?xml version="1.0" standalone="no"?><!DOCTYPE svg PUBLIC "-//W3C//DTD SVG 1.1//EN" "http://www.w3.org/Graphics/SVG/1.1/DTD/svg11.dtd"><svg xmlns="http://www.w3.org/2000/svg" xmlns:xlink="http://www.w3.org/1999/xlink" version="1.1" width="388.4px" height="75.5px" viewBox="0 -14 388.4 75.5" style="top:-14px"><desc>LOCATION OVERvIEW</desc><defs/><g id="Polygon68732"><path d="m9.7 46.4H1.4V26.7h3.3v16.8h5v2.9zm6.4-20h.2c3 0 5 1.2 5 4.2v11.9c0 3-2 4.2-5 4.2h-.2c-3 0-5-1.2-5-4.2V30.6c0-3 2-4.2 5-4.2zm.1 17.4c1.1 0 1.8-.4 1.8-1.8V31.1c0-1.4-.7-1.8-1.8-1.8c-1.1 0-1.8.4-1.8 1.8V42c0 1.4.7 1.8 1.8 1.8zm17.4-1.3c0 3-2 4.2-5 4.2h-.1c-2.9 0-4.9-1.1-4.9-4.2V30.6c0-2.9 2-4.2 4.9-4.2h.1c3 0 5 1.3 5 4.2c-.03.02 0 3.6 0 3.6h-3.3v-3.1c0-1.4-.7-1.8-1.7-1.8c-1.1 0-1.7.4-1.7 1.8V42c0 1.4.6 1.8 1.7 1.8c1 0 1.7-.4 1.7-1.8v-3.6h3.3s-.03 4.08 0 4.1zm8.5-.5h-3.6l-.8 4.4h-3.1l3.7-19.7h4.1l3.7 19.7h-3.3l-.7-4.4zm-.5-2.7l-1.3-8.8l-1.4 8.8h2.7zM55 29.5h-3.3v16.9h-3.3V29.5h-3.3v-2.8h9.9v2.8zm1.5 16.9V26.7h3.3v19.7h-3.3zm10.8-20h.2c3 0 5 1.2 5 4.2v11.9c0 3-2 4.2-5 4.2h-.2c-3 0-5-1.2-5-4.2V30.6c0-3 2-4.2 5-4.2zm.1 17.4c1.1 0 1.8-.4 1.8-1.8V31.1c0-1.4-.7-1.8-1.8-1.8c-1.1 0-1.8.4-1.8 1.8V42c0 1.4.7 1.8 1.8 1.8zm7.5 2.6V26.7h3.3l4.1 12.2V26.7h3v19.7h-3.1l-4.3-12.8v12.8h-3zm22.1-20h.2c3 0 5 1.2 5 4.2v11.9c0 3-2 4.2-5 4.2h-.2c-3 0-5-1.2-5-4.2V30.6c0-3 2-4.2 5-4.2zm.1 17.4c1 0 1.8-.4 1.8-1.8V31.1c0-1.4-.8-1.8-1.8-1.8c-1.1 0-1.8.4-1.8 1.8V42c0 1.4.7 1.8 1.8 1.8zm13.5 2.6H107l-3.8-19.7h3.4l2.2 14.6l2.3-14.6h3.2l-3.7 19.7zm5.1 0V26.7h8.6v2.8h-5.4v5.5h4.5v2.8h-4.5v5.7h5.5v2.9h-8.7zm18.2 0l-2.6-7.8h-1.6v7.8h-3.3V26.7s5.15-.04 5.1 0c3 0 5 1.2 5 4.1v3.6c0 1.9-.8 3.1-2.1 3.6c-.03.04 2.8 8.4 2.8 8.4h-3.3zm-4.2-10.7s1.73.03 1.7 0c1.1 0 1.8-.4 1.8-1.8v-2.5c0-1.5-.7-1.9-1.8-1.9c.03.04-1.7 0-1.7 0v6.2zm15.2 10.7h-3.6l-3.7-19.7h3.3l2.3 14.6l2.3-14.6h3.2l-3.8 19.7zm5.2 0V26.7h3.3v19.7h-3.3zm6 0V26.7h8.6v2.8h-5.4v5.5h4.5v2.8h-4.5v5.7h5.5v2.9h-8.7zm24.1 0h-3.1l-2.6-13.5l-2.5 13.5h-3.2l-3.1-19.7h3.2l1.7 14.1l2.5-14.1h2.9l2.6 14.1l1.6-14.1h3.1l-3.1 19.7z" stroke="none" fill="#282828"/></g><g id="Polygon68731"><path d="m0 6.7l7-3.4v1.2L1.1 7.2L7 10v1.1L0 7.8V6.7zm7.8 0l7-3.4v1.2L8.9 7.2l5.9 2.8v1.1l-7-3.3V6.7zm11.1-3.3h-3.3V2h8.1v1.4h-3.2v9.1h-1.6V3.4zm7.9 1.3c2.3 0 3.7 1.8 3.7 4.1c.04.03 0 .4 0 .4c0 0-6.03-.02-6 0c.1 1.3 1 2.4 2.6 2.4c.8 0 1.7-.4 2.3-.9l.6.9c-.7.7-1.8 1.1-3.1 1.1c-2.3 0-3.9-1.6-3.9-4c0-2.2 1.6-4 3.8-4zm-2.3 3.4h4.6c0-1-.7-2.2-2.3-2.2c-1.5 0-2.3 1.2-2.3 2.2zm12.9-.5c0-1.2-.7-1.6-1.7-1.6c-.9 0-1.7.5-2.1 1.1v5.4h-1.4V4.9h1.4s.01 1.05 0 1.1c.5-.7 1.5-1.3 2.7-1.3c1.6 0 2.5.8 2.5 2.5c-.02-.04 0 5.3 0 5.3h-1.4s-.04-4.86 0-4.9zm8.2 4.1c-.6.7-1.4 1-2.5 1c-1.3 0-2.6-.8-2.6-2.5c0-1.8 1.3-2.5 2.6-2.5c1.1 0 1.9.3 2.5 1V7.4c0-.9-.7-1.5-1.8-1.5c-.9 0-1.7.3-2.3 1l-.7-1c.9-.8 1.9-1.2 3.2-1.2c1.6 0 3.1.7 3.1 2.7c-.04-.03 0 5.1 0 5.1h-1.5s.03-.79 0-.8zm0-2.1c-.4-.6-1.1-.9-1.9-.9c-1.1 0-1.8.6-1.8 1.5c0 .9.7 1.5 1.8 1.5c.8 0 1.5-.3 1.9-.8V9.6zm8.8-2c0-1.2-.7-1.6-1.7-1.6c-.9 0-1.7.5-2.1 1.1c.02-.03 0 5.4 0 5.4h-1.4V4.9h1.4s.02 1.05 0 1.1c.5-.7 1.5-1.3 2.7-1.3c1.7 0 2.5.8 2.5 2.5v5.3h-1.4s-.03-4.86 0-4.9zm3.8 3.2V6.1h-1.3V4.9h1.3V2.8h1.4v2.1h1.6v1.2h-1.6s.02 4.43 0 4.4c0 .6.3 1 .8 1c.3 0 .6-.2.7-.3l.4 1c-.3.3-.7.5-1.5.5c-1.2 0-1.8-.6-1.8-1.9zm3.9-2.1c0-2.6.9-5.1 2.4-7l.8.6c-1 2-1.6 3.8-1.6 6.4c0 2.6.6 4.4 1.6 6.3l-.8.7c-1.5-1.9-2.4-4.5-2.4-7zm4.5 1.8c.5.6 1.6 1.1 2.6 1.1c1.1 0 1.7-.4 1.7-1.1c0-.8-.9-1-1.9-1.2c-1.3-.3-2.8-.7-2.8-2.3c0-1.3 1-2.3 2.9-2.3c1.3 0 2.3.5 2.9 1.1l-.6 1c-.5-.6-1.3-1-2.3-1c-1 0-1.6.4-1.6 1c0 .7.9.9 1.8 1.2c1.3.3 2.9.6 2.9 2.4c0 1.3-1 2.3-3.1 2.3c-1.3 0-2.4-.4-3.2-1.2l.7-1zM73 2.3l.9-.6c1.5 1.9 2.3 4.4 2.3 7c0 2.5-.8 5.1-2.3 7L73 15c1.1-1.9 1.7-3.7 1.7-6.3c0-2.6-.6-4.4-1.7-6.4zm4.2 7.7l5.9-2.8l-5.9-2.7V3.3l7 3.4v1.1l-7 3.3V10zm7.8 0l5.9-2.8L85 4.5V3.3l7 3.4v1.1l-7 3.3V10z" stroke="none" fill="#3797ef"/><a xlink:href="DBF_Tenant(s)" xlink:show="new" xlink:title="&lt;&lt;Tenant(s)&gt;&gt;"><rect style="fill:transparent;" x="-1" y="1" width="93" height="15"/></a></g></svg>