<?xml version="1.0" standalone="no"?>
<!DOCTYPE svg PUBLIC "-//W3C//DTD SVG 1.1//EN" "http://www.w3.org/Graphics/SVG/1.1/DTD/svg11.dtd">
<svg xmlns="http://www.w3.org/2000/svg" version="1.1" width="162.3px" height="276.3px" viewBox="0 -6 162.3 276.3" style="top:-6px">
  <desc>Lease Type Type of Ownership Original Lease Term Commencement Date Lease Expiration Term Remaining Increases Options</desc>
  <defs/>
  <g id="Polygon210136">
    <path d="M 1.6 257.8 L 0.6 258.5 L 0.4 258 L 1.4 257.5 L 0.4 256.9 L 0.6 256.5 L 1.6 257.2 L 1.6 256 L 2 256 L 2 257.2 L 3 256.5 L 3.2 256.9 L 2.2 257.5 L 3.2 258 L 3 258.5 L 2 257.8 L 2 259 L 1.6 259 L 1.6 257.8 Z M 7.5 256 C 9.6 256 11 257.5 11 259.6 C 11 261.7 9.6 263.3 7.5 263.3 C 5.4 263.3 4 261.7 4 259.6 C 4 257.5 5.4 256 7.5 256 Z M 7.5 256.7 C 6 256.7 4.9 258 4.9 259.6 C 4.9 261.3 6 262.5 7.5 262.5 C 9.1 262.5 10.1 261.3 10.1 259.6 C 10.1 258 9.1 256.7 7.5 256.7 Z M 12.3 265.1 L 12.3 258 L 13.1 258 C 13.1 258 13.08 258.78 13.1 258.8 C 13.4 258.3 14.1 257.9 14.8 257.9 C 16.1 257.9 17.1 258.9 17.1 260.6 C 17.1 262.2 16.1 263.3 14.8 263.3 C 14.1 263.3 13.5 262.9 13.1 262.4 C 13.08 262.36 13.1 265.1 13.1 265.1 L 12.3 265.1 Z M 14.6 258.6 C 14 258.6 13.4 259 13.1 259.4 C 13.1 259.4 13.1 261.7 13.1 261.7 C 13.4 262.2 14 262.6 14.6 262.6 C 15.6 262.6 16.2 261.7 16.2 260.6 C 16.2 259.4 15.6 258.6 14.6 258.6 Z M 18.4 262.1 C 18.41 262.07 18.4 258.7 18.4 258.7 L 17.6 258.7 L 17.6 258 L 18.4 258 L 18.4 256.6 L 19.2 256.6 L 19.2 258 L 20.2 258 L 20.2 258.7 L 19.2 258.7 C 19.2 258.7 19.21 261.9 19.2 261.9 C 19.2 262.3 19.4 262.6 19.7 262.6 C 19.9 262.6 20.2 262.5 20.3 262.3 C 20.3 262.3 20.5 262.9 20.5 262.9 C 20.3 263.1 20 263.3 19.5 263.3 C 18.8 263.3 18.4 262.8 18.4 262.1 Z M 21.1 256.6 C 21.1 256.3 21.4 256.1 21.7 256.1 C 21.9 256.1 22.2 256.3 22.2 256.6 C 22.2 256.9 21.9 257.2 21.7 257.2 C 21.4 257.2 21.1 256.9 21.1 256.6 Z M 21.3 258 L 22.1 258 L 22.1 263.1 L 21.3 263.1 L 21.3 258 Z M 23.2 260.6 C 23.2 259.1 24.2 257.9 25.8 257.9 C 27.3 257.9 28.3 259.1 28.3 260.6 C 28.3 262.1 27.3 263.3 25.8 263.3 C 24.2 263.3 23.2 262.1 23.2 260.6 Z M 27.5 260.6 C 27.5 259.5 26.9 258.6 25.8 258.6 C 24.7 258.6 24.1 259.5 24.1 260.6 C 24.1 261.6 24.7 262.6 25.8 262.6 C 26.9 262.6 27.5 261.6 27.5 260.6 Z M 32.9 259.8 C 32.9 258.9 32.5 258.6 31.8 258.6 C 31.2 258.6 30.6 259 30.3 259.4 C 30.28 259.4 30.3 263.1 30.3 263.1 L 29.5 263.1 L 29.5 258 L 30.3 258 C 30.3 258 30.28 258.76 30.3 258.8 C 30.6 258.3 31.3 257.9 32.1 257.9 C 33.2 257.9 33.7 258.4 33.7 259.5 C 33.73 259.55 33.7 263.1 33.7 263.1 L 32.9 263.1 C 32.9 263.1 32.94 259.79 32.9 259.8 Z M 38.4 262.6 C 38 263 37.4 263.3 36.7 263.3 C 35.9 263.3 34.9 262.7 34.9 261.6 C 34.9 260.4 35.9 259.9 36.7 259.9 C 37.4 259.9 38 260.1 38.4 260.6 C 38.4 260.6 38.4 259.7 38.4 259.7 C 38.4 259 37.9 258.6 37.1 258.6 C 36.5 258.6 36 258.8 35.6 259.3 C 35.6 259.3 35.2 258.7 35.2 258.7 C 35.7 258.2 36.4 257.9 37.2 257.9 C 38.3 257.9 39.2 258.4 39.2 259.6 C 39.21 259.62 39.2 263.1 39.2 263.1 L 38.4 263.1 C 38.4 263.1 38.41 262.55 38.4 262.6 Z M 38.4 261.1 C 38.1 260.7 37.6 260.5 37 260.5 C 36.3 260.5 35.7 260.9 35.7 261.6 C 35.7 262.2 36.3 262.7 37 262.7 C 37.6 262.7 38.1 262.5 38.4 262.1 C 38.4 262.1 38.4 261.1 38.4 261.1 Z M 40.7 256.1 L 41.5 256.1 L 41.5 263.1 L 40.7 263.1 L 40.7 256.1 Z M 46.5 257.4 L 46.5 263.1 L 45.6 263.1 L 45.6 256.1 L 46.5 256.1 L 50.6 261.7 L 50.6 256.1 L 51.5 256.1 L 51.5 263.1 L 50.6 263.1 L 46.5 257.4 Z M 52.7 260.6 C 52.7 259.1 53.7 257.9 55.2 257.9 C 56.8 257.9 57.7 259.1 57.7 260.6 C 57.7 262.1 56.8 263.3 55.2 263.3 C 53.7 263.3 52.7 262.1 52.7 260.6 Z M 56.9 260.6 C 56.9 259.5 56.3 258.6 55.2 258.6 C 54.1 258.6 53.5 259.5 53.5 260.6 C 53.5 261.6 54.1 262.6 55.2 262.6 C 56.3 262.6 56.9 261.6 56.9 260.6 Z M 59.1 262.1 C 59.09 262.07 59.1 258.7 59.1 258.7 L 58.2 258.7 L 58.2 258 L 59.1 258 L 59.1 256.6 L 59.9 256.6 L 59.9 258 L 60.9 258 L 60.9 258.7 L 59.9 258.7 C 59.9 258.7 59.89 261.9 59.9 261.9 C 59.9 262.3 60.1 262.6 60.4 262.6 C 60.6 262.6 60.8 262.5 60.9 262.3 C 60.9 262.3 61.2 262.9 61.2 262.9 C 61 263.1 60.7 263.3 60.2 263.3 C 59.5 263.3 59.1 262.8 59.1 262.1 Z M 64.2 257.9 C 65.7 257.9 66.6 259.1 66.6 260.6 C 66.62 260.64 66.6 260.8 66.6 260.8 C 66.6 260.8 62.48 260.84 62.5 260.8 C 62.5 261.8 63.2 262.6 64.3 262.6 C 64.9 262.6 65.5 262.4 65.9 262 C 65.9 262 66.3 262.5 66.3 262.5 C 65.8 263 65.1 263.3 64.2 263.3 C 62.7 263.3 61.6 262.2 61.6 260.6 C 61.6 259.1 62.7 257.9 64.2 257.9 Z M 62.5 260.3 C 62.5 260.3 65.8 260.3 65.8 260.3 C 65.8 259.5 65.3 258.5 64.2 258.5 C 63.1 258.5 62.5 259.5 62.5 260.3 Z " stroke="none" fill="#88898a"/>
  </g>
  <g id="Polygon210135">
    <path d="M 6.1 224.1 C 9.2 224.1 11.4 226.5 11.4 229.6 C 11.4 232.8 9.2 235.1 6.1 235.1 C 2.9 235.1 0.7 232.8 0.7 229.6 C 0.7 226.5 2.9 224.1 6.1 224.1 Z M 6.1 225.5 C 3.8 225.5 2.4 227.3 2.4 229.6 C 2.4 231.9 3.8 233.7 6.1 233.7 C 8.3 233.7 9.8 231.9 9.8 229.6 C 9.8 227.3 8.3 225.5 6.1 225.5 Z M 13.1 237.8 L 13.1 227.2 L 14.6 227.2 C 14.6 227.2 14.56 228.32 14.6 228.3 C 15.1 227.6 16 227 17.1 227 C 19.1 227 20.5 228.5 20.5 231.1 C 20.5 233.6 19.1 235.1 17.1 235.1 C 16.1 235.1 15.2 234.6 14.6 233.8 C 14.56 233.79 14.6 237.8 14.6 237.8 L 13.1 237.8 Z M 16.7 228.3 C 15.8 228.3 14.9 228.8 14.6 229.4 C 14.6 229.4 14.6 232.7 14.6 232.7 C 14.9 233.3 15.8 233.8 16.7 233.8 C 18.1 233.8 19 232.7 19 231.1 C 19 229.5 18.1 228.3 16.7 228.3 Z M 22.4 233.2 C 22.43 233.2 22.4 228.5 22.4 228.5 L 21.2 228.5 L 21.2 227.2 L 22.4 227.2 L 22.4 225.1 L 23.9 225.1 L 23.9 227.2 L 25.4 227.2 L 25.4 228.5 L 23.9 228.5 C 23.9 228.5 23.85 232.88 23.9 232.9 C 23.9 233.4 24.1 233.8 24.6 233.8 C 24.9 233.8 25.2 233.7 25.4 233.5 C 25.4 233.5 25.7 234.6 25.7 234.6 C 25.4 234.9 25 235.1 24.3 235.1 C 23 235.1 22.4 234.4 22.4 233.2 Z M 26.6 225 C 26.6 224.5 27 224.1 27.5 224.1 C 28 224.1 28.5 224.5 28.5 225 C 28.5 225.5 28 225.9 27.5 225.9 C 27 225.9 26.6 225.5 26.6 225 Z M 26.8 227.2 L 28.3 227.2 L 28.3 234.9 L 26.8 234.9 L 26.8 227.2 Z M 29.9 231.1 C 29.9 228.8 31.4 227 33.8 227 C 36.2 227 37.7 228.8 37.7 231.1 C 37.7 233.3 36.2 235.1 33.8 235.1 C 31.4 235.1 29.9 233.3 29.9 231.1 Z M 36.2 231.1 C 36.2 229.6 35.3 228.3 33.8 228.3 C 32.3 228.3 31.4 229.6 31.4 231.1 C 31.4 232.5 32.3 233.8 33.8 233.8 C 35.3 233.8 36.2 232.5 36.2 231.1 Z M 44.5 230 C 44.5 228.7 43.8 228.3 42.9 228.3 C 42 228.3 41.1 228.8 40.7 229.4 C 40.74 229.42 40.7 234.9 40.7 234.9 L 39.3 234.9 L 39.3 227.2 L 40.7 227.2 C 40.7 227.2 40.74 228.31 40.7 228.3 C 41.2 227.7 42.3 227 43.5 227 C 45.1 227 45.9 227.9 45.9 229.5 C 45.91 229.51 45.9 234.9 45.9 234.9 L 44.5 234.9 C 44.5 234.9 44.49 229.99 44.5 230 Z M 48 232.9 C 48.6 233.4 49.6 233.9 50.6 233.9 C 51.7 233.9 52.3 233.5 52.3 232.9 C 52.3 232.1 51.4 231.8 50.4 231.6 C 49.1 231.3 47.6 231 47.6 229.3 C 47.6 228.1 48.6 227 50.5 227 C 51.8 227 52.8 227.5 53.4 228.1 C 53.4 228.1 52.8 229.1 52.8 229.1 C 52.3 228.6 51.5 228.2 50.5 228.2 C 49.6 228.2 48.9 228.6 48.9 229.2 C 48.9 229.9 49.8 230.1 50.7 230.3 C 52.1 230.6 53.6 231 53.6 232.7 C 53.6 234.1 52.6 235.1 50.6 235.1 C 49.3 235.1 48.1 234.7 47.4 233.9 C 47.4 233.9 48 232.9 48 232.9 Z " stroke="none" fill="#242423"/>
  </g>
  <g id="Polygon210134">
    <path d="M 1.2 192.5 L 2.8 192.5 L 2.8 203.1 L 1.2 203.1 L 1.2 192.5 Z M 10.1 198.2 C 10.1 197 9.5 196.5 8.5 196.5 C 7.6 196.5 6.8 197.1 6.4 197.7 C 6.37 197.65 6.4 203.1 6.4 203.1 L 4.9 203.1 L 4.9 195.5 L 6.4 195.5 C 6.4 195.5 6.37 196.54 6.4 196.5 C 6.9 195.9 7.9 195.3 9.1 195.3 C 10.7 195.3 11.5 196.1 11.5 197.8 C 11.55 197.75 11.5 203.1 11.5 203.1 L 10.1 203.1 C 10.1 203.1 10.12 198.23 10.1 198.2 Z M 17.1 195.3 C 18.5 195.3 19.4 195.9 20 196.6 C 20 196.6 19 197.5 19 197.5 C 18.5 196.8 17.9 196.5 17.2 196.5 C 15.6 196.5 14.7 197.7 14.7 199.3 C 14.7 200.9 15.6 202.1 17.2 202.1 C 17.9 202.1 18.5 201.7 19 201.1 C 19 201.1 20 202 20 202 C 19.4 202.7 18.5 203.3 17.1 203.3 C 14.8 203.3 13.2 201.6 13.2 199.3 C 13.2 197 14.8 195.3 17.1 195.3 Z M 21.4 195.5 L 22.8 195.5 C 22.8 195.5 22.81 196.64 22.8 196.6 C 23.4 195.9 24.3 195.3 25.3 195.3 C 25.3 195.3 25.3 196.7 25.3 196.7 C 25.2 196.7 25 196.7 24.8 196.7 C 24.1 196.7 23.1 197.2 22.8 197.8 C 22.81 197.8 22.8 203.1 22.8 203.1 L 21.4 203.1 L 21.4 195.5 Z M 30 195.3 C 32.3 195.3 33.7 197.1 33.7 199.4 C 33.68 199.42 33.7 199.8 33.7 199.8 C 33.7 199.8 27.62 199.77 27.6 199.8 C 27.7 201.1 28.7 202.2 30.2 202.2 C 31 202.2 31.9 201.8 32.5 201.2 C 32.5 201.2 33.2 202.2 33.2 202.2 C 32.4 202.9 31.3 203.3 30.1 203.3 C 27.8 203.3 26.1 201.7 26.1 199.3 C 26.1 197.1 27.7 195.3 30 195.3 Z M 27.6 198.7 C 27.6 198.7 32.3 198.7 32.3 198.7 C 32.3 197.7 31.6 196.4 30 196.4 C 28.4 196.4 27.7 197.7 27.6 198.7 Z M 40.1 202.3 C 39.5 203 38.6 203.3 37.5 203.3 C 36.3 203.3 34.9 202.5 34.9 200.8 C 34.9 199 36.3 198.3 37.5 198.3 C 38.6 198.3 39.5 198.6 40.1 199.3 C 40.1 199.3 40.1 198 40.1 198 C 40.1 197.1 39.3 196.5 38.2 196.5 C 37.3 196.5 36.6 196.8 35.9 197.5 C 35.9 197.5 35.3 196.5 35.3 196.5 C 36.1 195.7 37.2 195.3 38.4 195.3 C 40.1 195.3 41.5 196 41.5 198 C 41.48 197.96 41.5 203.1 41.5 203.1 L 40.1 203.1 C 40.1 203.1 40.06 202.29 40.1 202.3 Z M 40.1 200.1 C 39.6 199.6 38.9 199.3 38.1 199.3 C 37.1 199.3 36.3 199.9 36.3 200.8 C 36.3 201.7 37.1 202.3 38.1 202.3 C 38.9 202.3 39.6 202 40.1 201.5 C 40.1 201.5 40.1 200.1 40.1 200.1 Z M 43.6 201.1 C 44.2 201.7 45.2 202.2 46.2 202.2 C 47.3 202.2 47.9 201.7 47.9 201.1 C 47.9 200.3 47 200.1 46 199.8 C 44.7 199.5 43.2 199.2 43.2 197.5 C 43.2 196.3 44.2 195.3 46.1 195.3 C 47.4 195.3 48.4 195.8 49 196.4 C 49 196.4 48.4 197.4 48.4 197.4 C 47.9 196.8 47.1 196.4 46.1 196.4 C 45.1 196.4 44.5 196.8 44.5 197.4 C 44.5 198.1 45.4 198.3 46.3 198.5 C 47.6 198.8 49.2 199.2 49.2 201 C 49.2 202.3 48.2 203.3 46.1 203.3 C 44.9 203.3 43.7 202.9 42.9 202.1 C 42.9 202.1 43.6 201.1 43.6 201.1 Z M 54.3 195.3 C 56.6 195.3 58 197.1 58 199.4 C 57.98 199.42 58 199.8 58 199.8 C 58 199.8 51.92 199.77 51.9 199.8 C 52 201.1 53 202.2 54.5 202.2 C 55.3 202.2 56.2 201.8 56.8 201.2 C 56.8 201.2 57.5 202.2 57.5 202.2 C 56.7 202.9 55.6 203.3 54.4 203.3 C 52.1 203.3 50.4 201.7 50.4 199.3 C 50.4 197.1 52 195.3 54.3 195.3 Z M 51.9 198.7 C 51.9 198.7 56.6 198.7 56.6 198.7 C 56.6 197.7 55.9 196.4 54.3 196.4 C 52.7 196.4 52 197.7 51.9 198.7 Z M 59.6 201.1 C 60.2 201.7 61.2 202.2 62.2 202.2 C 63.3 202.2 63.9 201.7 63.9 201.1 C 63.9 200.3 63 200.1 62 199.8 C 60.7 199.5 59.2 199.2 59.2 197.5 C 59.2 196.3 60.2 195.3 62.1 195.3 C 63.4 195.3 64.4 195.8 65 196.4 C 65 196.4 64.4 197.4 64.4 197.4 C 63.9 196.8 63.1 196.4 62.1 196.4 C 61.1 196.4 60.5 196.8 60.5 197.4 C 60.5 198.1 61.4 198.3 62.3 198.5 C 63.7 198.8 65.2 199.2 65.2 201 C 65.2 202.3 64.2 203.3 62.1 203.3 C 60.9 203.3 59.7 202.9 59 202.1 C 59 202.1 59.6 201.1 59.6 201.1 Z " stroke="none" fill="#242423"/>
  </g>
  <g id="Polygon210133">
    <path d="M 3.8 162.2 L 0.5 162.2 L 0.5 160.8 L 8.6 160.8 L 8.6 162.2 L 5.4 162.2 L 5.4 171.4 L 3.8 171.4 L 3.8 162.2 Z M 11.7 163.5 C 14 163.5 15.4 165.3 15.4 167.7 C 15.44 167.65 15.4 168 15.4 168 C 15.4 168 9.37 168 9.4 168 C 9.5 169.3 10.4 170.4 12 170.4 C 12.8 170.4 13.7 170.1 14.2 169.5 C 14.2 169.5 14.9 170.4 14.9 170.4 C 14.2 171.2 13.1 171.6 11.8 171.6 C 9.5 171.6 7.9 169.9 7.9 167.5 C 7.9 165.3 9.5 163.5 11.7 163.5 Z M 9.4 167 C 9.4 167 14 167 14 167 C 14 166 13.3 164.7 11.7 164.7 C 10.2 164.7 9.4 165.9 9.4 167 Z M 17.1 163.7 L 18.5 163.7 C 18.5 163.7 18.5 164.87 18.5 164.9 C 19.1 164.1 20 163.5 21 163.5 C 21 163.5 21 165 21 165 C 20.9 164.9 20.7 164.9 20.5 164.9 C 19.8 164.9 18.8 165.5 18.5 166 C 18.5 166.03 18.5 171.4 18.5 171.4 L 17.1 171.4 L 17.1 163.7 Z M 31.6 166.3 C 31.6 165.4 31.2 164.8 30.3 164.8 C 29.5 164.8 28.7 165.3 28.4 165.9 C 28.37 165.87 28.4 171.4 28.4 171.4 L 26.9 171.4 C 26.9 171.4 26.94 166.26 26.9 166.3 C 26.9 165.4 26.6 164.8 25.6 164.8 C 24.8 164.8 24.1 165.3 23.7 165.9 C 23.71 165.89 23.7 171.4 23.7 171.4 L 22.3 171.4 L 22.3 163.7 L 23.7 163.7 C 23.7 163.7 23.71 164.78 23.7 164.8 C 24 164.3 25 163.5 26.2 163.5 C 27.3 163.5 28 164.1 28.3 164.9 C 28.7 164.2 29.7 163.5 30.9 163.5 C 32.3 163.5 33 164.3 33 165.8 C 33.03 165.83 33 171.4 33 171.4 L 31.6 171.4 C 31.6 171.4 31.61 166.26 31.6 166.3 Z M 42.7 167.3 L 40.7 167.3 L 40.7 171.4 L 39.1 171.4 L 39.1 160.8 C 39.1 160.8 43.58 160.78 43.6 160.8 C 45.6 160.8 47 162.1 47 164 C 47 165.9 45.7 167 44.3 167.1 C 44.34 167.13 47.1 171.4 47.1 171.4 L 45.2 171.4 L 42.7 167.3 Z M 43.4 162.2 C 43.37 162.17 40.7 162.2 40.7 162.2 L 40.7 165.9 C 40.7 165.9 43.37 165.89 43.4 165.9 C 44.5 165.9 45.3 165.1 45.3 164 C 45.3 162.9 44.5 162.2 43.4 162.2 Z M 51.6 163.5 C 53.9 163.5 55.4 165.3 55.4 167.7 C 55.36 167.65 55.4 168 55.4 168 C 55.4 168 49.3 168 49.3 168 C 49.4 169.3 50.4 170.4 51.9 170.4 C 52.7 170.4 53.6 170.1 54.2 169.5 C 54.2 169.5 54.8 170.4 54.8 170.4 C 54.1 171.2 53 171.6 51.8 171.6 C 49.5 171.6 47.8 169.9 47.8 167.5 C 47.8 165.3 49.4 163.5 51.6 163.5 Z M 49.3 167 C 49.3 167 54 167 54 167 C 53.9 166 53.3 164.7 51.6 164.7 C 50.1 164.7 49.4 165.9 49.3 167 Z M 66.3 166.3 C 66.3 165.4 65.9 164.8 65 164.8 C 64.2 164.8 63.4 165.3 63.1 165.9 C 63.08 165.87 63.1 171.4 63.1 171.4 L 61.7 171.4 C 61.7 171.4 61.66 166.26 61.7 166.3 C 61.7 165.4 61.3 164.8 60.3 164.8 C 59.6 164.8 58.8 165.3 58.4 165.9 C 58.43 165.89 58.4 171.4 58.4 171.4 L 57 171.4 L 57 163.7 L 58.4 163.7 C 58.4 163.7 58.43 164.78 58.4 164.8 C 58.7 164.3 59.8 163.5 60.9 163.5 C 62.1 163.5 62.8 164.1 63 164.9 C 63.4 164.2 64.5 163.5 65.6 163.5 C 67 163.5 67.8 164.3 67.8 165.8 C 67.75 165.83 67.8 171.4 67.8 171.4 L 66.3 171.4 C 66.3 171.4 66.33 166.26 66.3 166.3 Z M 74.6 170.5 C 74 171.2 73.1 171.6 72.1 171.6 C 70.8 171.6 69.4 170.7 69.4 169 C 69.4 167.3 70.8 166.5 72.1 166.5 C 73.1 166.5 74 166.8 74.6 167.5 C 74.6 167.5 74.6 166.3 74.6 166.3 C 74.6 165.3 73.8 164.7 72.7 164.7 C 71.9 164.7 71.1 165.1 70.4 165.7 C 70.4 165.7 69.8 164.8 69.8 164.8 C 70.7 163.9 71.7 163.5 72.9 163.5 C 74.6 163.5 76 164.2 76 166.2 C 76.03 166.19 76 171.4 76 171.4 L 74.6 171.4 C 74.6 171.4 74.6 170.53 74.6 170.5 Z M 74.6 168.4 C 74.2 167.8 73.4 167.5 72.6 167.5 C 71.6 167.5 70.9 168.1 70.9 169 C 70.9 169.9 71.6 170.6 72.6 170.6 C 73.4 170.6 74.2 170.3 74.6 169.7 C 74.6 169.7 74.6 168.4 74.6 168.4 Z M 77.9 161.5 C 77.9 161 78.4 160.6 78.9 160.6 C 79.4 160.6 79.8 161 79.8 161.5 C 79.8 162 79.4 162.4 78.9 162.4 C 78.4 162.4 77.9 162 77.9 161.5 Z M 78.2 163.7 L 79.6 163.7 L 79.6 171.4 L 78.2 171.4 L 78.2 163.7 Z M 86.9 166.5 C 86.9 165.2 86.2 164.8 85.2 164.8 C 84.4 164.8 83.5 165.3 83.1 165.9 C 83.13 165.89 83.1 171.4 83.1 171.4 L 81.7 171.4 L 81.7 163.7 L 83.1 163.7 C 83.1 163.7 83.13 164.78 83.1 164.8 C 83.6 164.2 84.7 163.5 85.8 163.5 C 87.5 163.5 88.3 164.4 88.3 166 C 88.3 165.99 88.3 171.4 88.3 171.4 L 86.9 171.4 C 86.9 171.4 86.88 166.46 86.9 166.5 Z M 90.2 161.5 C 90.2 161 90.6 160.6 91.1 160.6 C 91.6 160.6 92 161 92 161.5 C 92 162 91.6 162.4 91.1 162.4 C 90.6 162.4 90.2 162 90.2 161.5 Z M 90.4 163.7 L 91.8 163.7 L 91.8 171.4 L 90.4 171.4 L 90.4 163.7 Z M 99.1 166.5 C 99.1 165.2 98.5 164.8 97.5 164.8 C 96.6 164.8 95.8 165.3 95.4 165.9 C 95.39 165.89 95.4 171.4 95.4 171.4 L 94 171.4 L 94 163.7 L 95.4 163.7 C 95.4 163.7 95.39 164.78 95.4 164.8 C 95.9 164.2 96.9 163.5 98.1 163.5 C 99.7 163.5 100.6 164.4 100.6 166 C 100.57 165.99 100.6 171.4 100.6 171.4 L 99.1 171.4 C 99.1 171.4 99.14 166.46 99.1 166.5 Z M 103.3 172.3 C 103.9 173 104.7 173.3 105.8 173.3 C 107 173.3 108.1 172.7 108.1 171.1 C 108.1 171.1 108.1 170.1 108.1 170.1 C 107.6 170.9 106.6 171.4 105.6 171.4 C 103.6 171.4 102.2 170 102.2 167.5 C 102.2 165 103.6 163.5 105.6 163.5 C 106.6 163.5 107.5 164 108.1 164.8 C 108.14 164.81 108.1 163.7 108.1 163.7 L 109.6 163.7 C 109.6 163.7 109.57 171.07 109.6 171.1 C 109.6 173.7 107.7 174.5 105.8 174.5 C 104.5 174.5 103.5 174.2 102.6 173.3 C 102.6 173.3 103.3 172.3 103.3 172.3 Z M 108.1 165.9 C 107.7 165.3 106.9 164.8 106 164.8 C 104.6 164.8 103.7 165.9 103.7 167.5 C 103.7 169.1 104.6 170.2 106 170.2 C 106.9 170.2 107.7 169.6 108.1 169 C 108.1 169 108.1 165.9 108.1 165.9 Z " stroke="none" fill="#242423"/>
  </g>
  <g id="Polygon210132">
    <path d="M 1.2 129 L 2.8 129 L 2.8 138.2 L 7.6 138.2 L 7.6 139.6 L 1.2 139.6 L 1.2 129 Z M 12.2 131.7 C 14.5 131.7 15.9 133.5 15.9 135.9 C 15.94 135.89 15.9 136.2 15.9 136.2 C 15.9 136.2 9.88 136.24 9.9 136.2 C 10 137.5 10.9 138.6 12.5 138.6 C 13.3 138.6 14.2 138.3 14.8 137.7 C 14.8 137.7 15.4 138.7 15.4 138.7 C 14.7 139.4 13.6 139.8 12.3 139.8 C 10.1 139.8 8.4 138.2 8.4 135.8 C 8.4 133.5 10 131.7 12.2 131.7 Z M 9.9 135.2 C 9.9 135.2 14.5 135.2 14.5 135.2 C 14.5 134.2 13.8 132.9 12.2 132.9 C 10.7 132.9 9.9 134.2 9.9 135.2 Z M 22.3 138.8 C 21.7 139.4 20.8 139.8 19.8 139.8 C 18.5 139.8 17.1 138.9 17.1 137.3 C 17.1 135.5 18.5 134.7 19.8 134.7 C 20.8 134.7 21.7 135.1 22.3 135.8 C 22.3 135.8 22.3 134.5 22.3 134.5 C 22.3 133.5 21.5 133 20.4 133 C 19.6 133 18.8 133.3 18.1 134 C 18.1 134 17.5 133 17.5 133 C 18.4 132.2 19.4 131.7 20.7 131.7 C 22.3 131.7 23.7 132.5 23.7 134.4 C 23.74 134.43 23.7 139.6 23.7 139.6 L 22.3 139.6 C 22.3 139.6 22.32 138.76 22.3 138.8 Z M 22.3 136.6 C 21.9 136 21.1 135.7 20.3 135.7 C 19.3 135.7 18.6 136.4 18.6 137.3 C 18.6 138.2 19.3 138.8 20.3 138.8 C 21.1 138.8 21.9 138.5 22.3 137.9 C 22.3 137.9 22.3 136.6 22.3 136.6 Z M 25.9 137.6 C 26.4 138.1 27.4 138.7 28.5 138.7 C 29.5 138.7 30.1 138.2 30.1 137.6 C 30.1 136.8 29.2 136.5 28.3 136.3 C 27 136 25.4 135.7 25.4 134 C 25.4 132.8 26.5 131.7 28.3 131.7 C 29.7 131.7 30.6 132.2 31.3 132.8 C 31.3 132.8 30.6 133.8 30.6 133.8 C 30.2 133.3 29.3 132.9 28.4 132.9 C 27.4 132.9 26.8 133.3 26.8 133.9 C 26.8 134.6 27.6 134.8 28.6 135 C 29.9 135.3 31.5 135.7 31.5 137.4 C 31.5 138.8 30.4 139.8 28.4 139.8 C 27.1 139.8 26 139.4 25.2 138.6 C 25.2 138.6 25.9 137.6 25.9 137.6 Z M 36.5 131.7 C 38.8 131.7 40.2 133.5 40.2 135.9 C 40.24 135.89 40.2 136.2 40.2 136.2 C 40.2 136.2 34.18 136.24 34.2 136.2 C 34.3 137.5 35.2 138.6 36.8 138.6 C 37.6 138.6 38.5 138.3 39.1 137.7 C 39.1 137.7 39.7 138.7 39.7 138.7 C 39 139.4 37.9 139.8 36.6 139.8 C 34.4 139.8 32.7 138.2 32.7 135.8 C 32.7 133.5 34.3 131.7 36.5 131.7 Z M 34.2 135.2 C 34.2 135.2 38.8 135.2 38.8 135.2 C 38.8 134.2 38.1 132.9 36.5 132.9 C 35 132.9 34.2 134.2 34.2 135.2 Z M 45.9 129 L 53 129 L 53 130.4 L 47.4 130.4 L 47.4 133.5 L 52.9 133.5 L 52.9 134.9 L 47.4 134.9 L 47.4 138.2 L 53 138.2 L 53 139.6 L 45.9 139.6 L 45.9 129 Z M 57.5 136.6 L 55.4 139.6 L 53.7 139.6 L 56.6 135.7 L 53.9 131.9 L 55.5 131.9 L 57.5 134.7 L 59.5 131.9 L 61.1 131.9 L 58.4 135.7 L 61.3 139.6 L 59.7 139.6 L 57.5 136.6 Z M 62.4 142.5 L 62.4 131.9 L 63.8 131.9 C 63.8 131.9 63.83 133.03 63.8 133 C 64.4 132.3 65.3 131.7 66.3 131.7 C 68.3 131.7 69.8 133.3 69.8 135.8 C 69.8 138.3 68.3 139.8 66.3 139.8 C 65.3 139.8 64.4 139.3 63.8 138.5 C 63.83 138.49 63.8 142.5 63.8 142.5 L 62.4 142.5 Z M 66 133 C 65.1 133 64.2 133.5 63.8 134.1 C 63.8 134.1 63.8 137.4 63.8 137.4 C 64.2 138 65.1 138.5 66 138.5 C 67.4 138.5 68.3 137.4 68.3 135.8 C 68.3 134.2 67.4 133 66 133 Z M 71.2 129.7 C 71.2 129.2 71.6 128.8 72.1 128.8 C 72.6 128.8 73 129.2 73 129.7 C 73 130.3 72.6 130.6 72.1 130.6 C 71.6 130.6 71.2 130.3 71.2 129.7 Z M 71.4 131.9 L 72.8 131.9 L 72.8 139.6 L 71.4 139.6 L 71.4 131.9 Z M 74.9 131.9 L 76.4 131.9 C 76.4 131.9 76.38 133.11 76.4 133.1 C 77 132.3 77.9 131.8 78.9 131.8 C 78.9 131.8 78.9 133.2 78.9 133.2 C 78.7 133.2 78.6 133.2 78.4 133.2 C 77.7 133.2 76.7 133.7 76.4 134.3 C 76.38 134.27 76.4 139.6 76.4 139.6 L 74.9 139.6 L 74.9 131.9 Z M 84.9 138.8 C 84.3 139.4 83.4 139.8 82.4 139.8 C 81.1 139.8 79.7 138.9 79.7 137.3 C 79.7 135.5 81.1 134.7 82.4 134.7 C 83.4 134.7 84.3 135.1 84.9 135.8 C 84.9 135.8 84.9 134.5 84.9 134.5 C 84.9 133.5 84.1 133 83 133 C 82.1 133 81.4 133.3 80.7 134 C 80.7 134 80.1 133 80.1 133 C 81 132.2 82 131.7 83.2 131.7 C 84.9 131.7 86.3 132.5 86.3 134.4 C 86.32 134.43 86.3 139.6 86.3 139.6 L 84.9 139.6 C 84.9 139.6 84.89 138.76 84.9 138.8 Z M 84.9 136.6 C 84.5 136 83.7 135.7 82.9 135.7 C 81.9 135.7 81.2 136.4 81.2 137.3 C 81.2 138.2 81.9 138.8 82.9 138.8 C 83.7 138.8 84.5 138.5 84.9 137.9 C 84.9 137.9 84.9 136.6 84.9 136.6 Z M 88.7 137.9 C 88.73 137.91 88.7 133.2 88.7 133.2 L 87.5 133.2 L 87.5 131.9 L 88.7 131.9 L 88.7 129.8 L 90.2 129.8 L 90.2 131.9 L 91.7 131.9 L 91.7 133.2 L 90.2 133.2 C 90.2 133.2 90.16 137.59 90.2 137.6 C 90.2 138.1 90.4 138.5 90.9 138.5 C 91.2 138.5 91.5 138.4 91.7 138.2 C 91.7 138.2 92.1 139.3 92.1 139.3 C 91.8 139.6 91.3 139.8 90.6 139.8 C 89.4 139.8 88.7 139.1 88.7 137.9 Z M 92.9 129.7 C 92.9 129.2 93.4 128.8 93.8 128.8 C 94.4 128.8 94.8 129.2 94.8 129.7 C 94.8 130.3 94.4 130.6 93.8 130.6 C 93.4 130.6 92.9 130.3 92.9 129.7 Z M 93.2 131.9 L 94.6 131.9 L 94.6 139.6 L 93.2 139.6 L 93.2 131.9 Z M 96.2 135.8 C 96.2 133.6 97.7 131.7 100.1 131.7 C 102.5 131.7 104 133.6 104 135.8 C 104 138 102.5 139.8 100.1 139.8 C 97.7 139.8 96.2 138 96.2 135.8 Z M 102.5 135.8 C 102.5 134.3 101.6 133 100.1 133 C 98.6 133 97.7 134.3 97.7 135.8 C 97.7 137.2 98.6 138.5 100.1 138.5 C 101.6 138.5 102.5 137.2 102.5 135.8 Z M 110.8 134.7 C 110.8 133.4 110.1 133 109.2 133 C 108.3 133 107.5 133.6 107 134.1 C 107.04 134.13 107 139.6 107 139.6 L 105.6 139.6 L 105.6 131.9 L 107 131.9 C 107 131.9 107.04 133.01 107 133 C 107.6 132.4 108.6 131.7 109.8 131.7 C 111.4 131.7 112.2 132.6 112.2 134.2 C 112.22 134.22 112.2 139.6 112.2 139.6 L 110.8 139.6 C 110.8 139.6 110.8 134.7 110.8 134.7 Z " stroke="none" fill="#242423"/>
  </g>
  <g id="Polygon210131">
    <path d="M 0.7 102.6 C 0.7 99.3 3.1 97.1 6.2 97.1 C 8.2 97.1 9.5 98.1 10.4 99.3 C 10.4 99.3 9 100 9 100 C 8.5 99.1 7.4 98.5 6.2 98.5 C 4 98.5 2.4 100.2 2.4 102.6 C 2.4 104.9 4 106.6 6.2 106.6 C 7.4 106.6 8.5 106 9 105.1 C 9 105.1 10.4 105.8 10.4 105.8 C 9.5 107 8.2 108 6.2 108 C 3.1 108 0.7 105.8 0.7 102.6 Z M 11.3 104 C 11.3 101.8 12.8 100 15.2 100 C 17.6 100 19 101.8 19 104 C 19 106.2 17.6 108 15.2 108 C 12.8 108 11.3 106.2 11.3 104 Z M 17.6 104 C 17.6 102.6 16.7 101.2 15.2 101.2 C 13.6 101.2 12.8 102.6 12.8 104 C 12.8 105.5 13.6 106.8 15.2 106.8 C 16.7 106.8 17.6 105.5 17.6 104 Z M 30 102.7 C 30 101.8 29.6 101.2 28.7 101.2 C 27.9 101.2 27.1 101.8 26.8 102.3 C 26.78 102.34 26.8 107.8 26.8 107.8 L 25.3 107.8 C 25.3 107.8 25.35 102.73 25.3 102.7 C 25.3 101.8 25 101.2 24 101.2 C 23.3 101.2 22.5 101.8 22.1 102.4 C 22.12 102.36 22.1 107.8 22.1 107.8 L 20.7 107.8 L 20.7 100.2 L 22.1 100.2 C 22.1 100.2 22.12 101.25 22.1 101.2 C 22.4 100.8 23.5 100 24.6 100 C 25.8 100 26.4 100.6 26.7 101.4 C 27.1 100.7 28.1 100 29.3 100 C 30.7 100 31.4 100.8 31.4 102.3 C 31.45 102.3 31.4 107.8 31.4 107.8 L 30 107.8 C 30 107.8 30.02 102.73 30 102.7 Z M 42.9 102.7 C 42.9 101.8 42.5 101.2 41.5 101.2 C 40.8 101.2 40 101.8 39.6 102.3 C 39.64 102.34 39.6 107.8 39.6 107.8 L 38.2 107.8 C 38.2 107.8 38.21 102.73 38.2 102.7 C 38.2 101.8 37.8 101.2 36.9 101.2 C 36.1 101.2 35.4 101.8 35 102.4 C 34.99 102.36 35 107.8 35 107.8 L 33.6 107.8 L 33.6 100.2 L 35 100.2 C 35 100.2 34.99 101.25 35 101.2 C 35.3 100.8 36.3 100 37.5 100 C 38.6 100 39.3 100.6 39.5 101.4 C 40 100.7 41 100 42.1 100 C 43.5 100 44.3 100.8 44.3 102.3 C 44.31 102.3 44.3 107.8 44.3 107.8 L 42.9 107.8 C 42.9 107.8 42.88 102.73 42.9 102.7 Z M 49.8 100 C 52.1 100 53.5 101.8 53.5 104.1 C 53.52 104.12 53.5 104.5 53.5 104.5 C 53.5 104.5 47.45 104.47 47.5 104.5 C 47.6 105.8 48.5 106.9 50.1 106.9 C 50.9 106.9 51.8 106.5 52.3 106 C 52.3 106 53 106.9 53 106.9 C 52.2 107.6 51.2 108 49.9 108 C 47.6 108 45.9 106.4 45.9 104 C 45.9 101.8 47.6 100 49.8 100 Z M 47.4 103.4 C 47.4 103.4 52.1 103.4 52.1 103.4 C 52.1 102.4 51.4 101.2 49.8 101.2 C 48.2 101.2 47.5 102.4 47.4 103.4 Z M 60.3 102.9 C 60.3 101.7 59.7 101.2 58.7 101.2 C 57.8 101.2 57 101.8 56.6 102.4 C 56.59 102.36 56.6 107.8 56.6 107.8 L 55.2 107.8 L 55.2 100.2 L 56.6 100.2 C 56.6 100.2 56.59 101.25 56.6 101.2 C 57.1 100.6 58.1 100 59.3 100 C 60.9 100 61.8 100.8 61.8 102.5 C 61.76 102.46 61.8 107.8 61.8 107.8 L 60.3 107.8 C 60.3 107.8 60.34 102.93 60.3 102.9 Z M 67.3 100 C 68.8 100 69.6 100.6 70.2 101.3 C 70.2 101.3 69.2 102.2 69.2 102.2 C 68.8 101.6 68.1 101.2 67.4 101.2 C 65.9 101.2 64.9 102.4 64.9 104 C 64.9 105.6 65.9 106.8 67.4 106.8 C 68.1 106.8 68.8 106.4 69.2 105.8 C 69.2 105.8 70.2 106.7 70.2 106.7 C 69.6 107.4 68.8 108 67.3 108 C 65 108 63.4 106.3 63.4 104 C 63.4 101.7 65 100 67.3 100 Z M 75 100 C 77.3 100 78.7 101.8 78.7 104.1 C 78.7 104.12 78.7 104.5 78.7 104.5 C 78.7 104.5 72.63 104.47 72.6 104.5 C 72.7 105.8 73.7 106.9 75.2 106.9 C 76 106.9 76.9 106.5 77.5 106 C 77.5 106 78.2 106.9 78.2 106.9 C 77.4 107.6 76.3 108 75.1 108 C 72.8 108 71.1 106.4 71.1 104 C 71.1 101.8 72.7 100 75 100 Z M 72.6 103.4 C 72.6 103.4 77.3 103.4 77.3 103.4 C 77.3 102.4 76.6 101.2 75 101.2 C 73.4 101.2 72.7 102.4 72.6 103.4 Z M 89.7 102.7 C 89.7 101.8 89.3 101.2 88.3 101.2 C 87.5 101.2 86.8 101.8 86.4 102.3 C 86.41 102.34 86.4 107.8 86.4 107.8 L 85 107.8 C 85 107.8 84.99 102.73 85 102.7 C 85 101.8 84.6 101.2 83.6 101.2 C 82.9 101.2 82.1 101.8 81.8 102.4 C 81.76 102.36 81.8 107.8 81.8 107.8 L 80.3 107.8 L 80.3 100.2 L 81.8 100.2 C 81.8 100.2 81.76 101.25 81.8 101.2 C 82.1 100.8 83.1 100 84.2 100 C 85.4 100 86.1 100.6 86.3 101.4 C 86.8 100.7 87.8 100 88.9 100 C 90.3 100 91.1 100.8 91.1 102.3 C 91.08 102.3 91.1 107.8 91.1 107.8 L 89.7 107.8 C 89.7 107.8 89.66 102.73 89.7 102.7 Z M 96.6 100 C 98.9 100 100.3 101.8 100.3 104.1 C 100.29 104.12 100.3 104.5 100.3 104.5 C 100.3 104.5 94.23 104.47 94.2 104.5 C 94.3 105.8 95.3 106.9 96.8 106.9 C 97.6 106.9 98.5 106.5 99.1 106 C 99.1 106 99.8 106.9 99.8 106.9 C 99 107.6 97.9 108 96.7 108 C 94.4 108 92.7 106.4 92.7 104 C 92.7 101.8 94.3 100 96.6 100 Z M 94.2 103.4 C 94.2 103.4 98.9 103.4 98.9 103.4 C 98.9 102.4 98.2 101.2 96.6 101.2 C 95 101.2 94.3 102.4 94.2 103.4 Z M 107.1 102.9 C 107.1 101.7 106.5 101.2 105.5 101.2 C 104.6 101.2 103.8 101.8 103.4 102.4 C 103.36 102.36 103.4 107.8 103.4 107.8 L 101.9 107.8 L 101.9 100.2 L 103.4 100.2 C 103.4 100.2 103.36 101.25 103.4 101.2 C 103.9 100.6 104.9 100 106.1 100 C 107.7 100 108.5 100.8 108.5 102.5 C 108.54 102.46 108.5 107.8 108.5 107.8 L 107.1 107.8 C 107.1 107.8 107.11 102.93 107.1 102.9 Z M 110.9 106.1 C 110.94 106.14 110.9 101.4 110.9 101.4 L 109.7 101.4 L 109.7 100.2 L 110.9 100.2 L 110.9 98.1 L 112.4 98.1 L 112.4 100.2 L 113.9 100.2 L 113.9 101.4 L 112.4 101.4 C 112.4 101.4 112.37 105.82 112.4 105.8 C 112.4 106.4 112.6 106.8 113.1 106.8 C 113.4 106.8 113.7 106.6 113.9 106.5 C 113.9 106.5 114.3 107.5 114.3 107.5 C 114 107.8 113.5 108 112.8 108 C 111.6 108 110.9 107.3 110.9 106.1 Z M 119.3 97.2 C 119.3 97.2 123.1 97.25 123.1 97.2 C 126.4 97.2 128.6 99.5 128.6 102.6 C 128.6 105.6 126.4 107.8 123.1 107.8 C 123.1 107.84 119.3 107.8 119.3 107.8 L 119.3 97.2 Z M 123.1 106.4 C 125.5 106.4 127 104.7 127 102.6 C 127 100.4 125.6 98.6 123.1 98.6 C 123.1 98.64 120.9 98.6 120.9 98.6 L 120.9 106.4 C 120.9 106.4 123.1 106.44 123.1 106.4 Z M 135.1 107 C 134.5 107.7 133.6 108 132.6 108 C 131.3 108 129.9 107.2 129.9 105.5 C 129.9 103.7 131.3 103 132.6 103 C 133.6 103 134.5 103.3 135.1 104 C 135.1 104 135.1 102.7 135.1 102.7 C 135.1 101.8 134.3 101.2 133.2 101.2 C 132.3 101.2 131.6 101.5 130.9 102.2 C 130.9 102.2 130.3 101.2 130.3 101.2 C 131.1 100.4 132.2 100 133.4 100 C 135.1 100 136.5 100.7 136.5 102.7 C 136.49 102.66 136.5 107.8 136.5 107.8 L 135.1 107.8 C 135.1 107.8 135.06 107 135.1 107 Z M 135.1 104.9 C 134.6 104.3 133.9 104 133.1 104 C 132.1 104 131.3 104.6 131.3 105.5 C 131.3 106.4 132.1 107 133.1 107 C 133.9 107 134.6 106.7 135.1 106.2 C 135.1 106.2 135.1 104.9 135.1 104.9 Z M 138.9 106.1 C 138.91 106.14 138.9 101.4 138.9 101.4 L 137.6 101.4 L 137.6 100.2 L 138.9 100.2 L 138.9 98.1 L 140.3 98.1 L 140.3 100.2 L 141.9 100.2 L 141.9 101.4 L 140.3 101.4 C 140.3 101.4 140.33 105.82 140.3 105.8 C 140.3 106.4 140.6 106.8 141.1 106.8 C 141.4 106.8 141.7 106.6 141.9 106.5 C 141.9 106.5 142.2 107.5 142.2 107.5 C 141.9 107.8 141.5 108 140.7 108 C 139.5 108 138.9 107.3 138.9 106.1 Z M 146.7 100 C 149 100 150.4 101.8 150.4 104.1 C 150.42 104.12 150.4 104.5 150.4 104.5 C 150.4 104.5 144.35 104.47 144.4 104.5 C 144.5 105.8 145.4 106.9 147 106.9 C 147.8 106.9 148.7 106.5 149.2 106 C 149.2 106 149.9 106.9 149.9 106.9 C 149.1 107.6 148.1 108 146.8 108 C 144.5 108 142.8 106.4 142.8 104 C 142.8 101.8 144.4 100 146.7 100 Z M 144.3 103.4 C 144.3 103.4 149 103.4 149 103.4 C 149 102.4 148.3 101.2 146.7 101.2 C 145.1 101.2 144.4 102.4 144.3 103.4 Z " stroke="none" fill="#242423"/>
  </g>
  <g id="Polygon210130">
    <path d="M 6.1 65.3 C 9.2 65.3 11.4 67.6 11.4 70.8 C 11.4 73.9 9.2 76.3 6.1 76.3 C 2.9 76.3 0.7 73.9 0.7 70.8 C 0.7 67.6 2.9 65.3 6.1 65.3 Z M 6.1 66.7 C 3.8 66.7 2.4 68.5 2.4 70.8 C 2.4 73.1 3.8 74.9 6.1 74.9 C 8.3 74.9 9.8 73.1 9.8 70.8 C 9.8 68.5 8.3 66.7 6.1 66.7 Z M 13.1 68.4 L 14.6 68.4 C 14.6 68.4 14.56 69.58 14.6 69.6 C 15.2 68.8 16.1 68.2 17.1 68.2 C 17.1 68.2 17.1 69.7 17.1 69.7 C 16.9 69.6 16.8 69.6 16.6 69.6 C 15.9 69.6 14.9 70.2 14.6 70.7 C 14.56 70.74 14.6 76.1 14.6 76.1 L 13.1 76.1 L 13.1 68.4 Z M 18.1 66.2 C 18.1 65.7 18.6 65.3 19 65.3 C 19.6 65.3 20 65.7 20 66.2 C 20 66.7 19.6 67.1 19 67.1 C 18.6 67.1 18.1 66.7 18.1 66.2 Z M 18.3 68.4 L 19.8 68.4 L 19.8 76.1 L 18.3 76.1 L 18.3 68.4 Z M 22.5 77 C 23.1 77.7 23.9 78 25 78 C 26.2 78 27.4 77.4 27.4 75.8 C 27.4 75.8 27.4 74.8 27.4 74.8 C 26.8 75.6 25.9 76.1 24.8 76.1 C 22.8 76.1 21.4 74.7 21.4 72.2 C 21.4 69.7 22.8 68.2 24.8 68.2 C 25.8 68.2 26.7 68.7 27.4 69.5 C 27.35 69.52 27.4 68.4 27.4 68.4 L 28.8 68.4 C 28.8 68.4 28.78 75.77 28.8 75.8 C 28.8 78.4 26.9 79.2 25 79.2 C 23.7 79.2 22.7 78.9 21.8 78 C 21.8 78 22.5 77 22.5 77 Z M 27.4 70.6 C 27 70 26.1 69.5 25.2 69.5 C 23.8 69.5 22.9 70.6 22.9 72.2 C 22.9 73.8 23.8 74.9 25.2 74.9 C 26.1 74.9 27 74.3 27.4 73.7 C 27.4 73.7 27.4 70.6 27.4 70.6 Z M 30.7 66.2 C 30.7 65.7 31.1 65.3 31.6 65.3 C 32.1 65.3 32.5 65.7 32.5 66.2 C 32.5 66.7 32.1 67.1 31.6 67.1 C 31.1 67.1 30.7 66.7 30.7 66.2 Z M 30.9 68.4 L 32.3 68.4 L 32.3 76.1 L 30.9 76.1 L 30.9 68.4 Z M 39.6 71.2 C 39.6 69.9 39 69.5 38 69.5 C 37.1 69.5 36.3 70 35.9 70.6 C 35.86 70.6 35.9 76.1 35.9 76.1 L 34.4 76.1 L 34.4 68.4 L 35.9 68.4 C 35.9 68.4 35.86 69.48 35.9 69.5 C 36.4 68.9 37.4 68.2 38.6 68.2 C 40.2 68.2 41 69.1 41 70.7 C 41.04 70.69 41 76.1 41 76.1 L 39.6 76.1 C 39.6 76.1 39.61 71.17 39.6 71.2 Z M 47.9 75.2 C 47.3 75.9 46.4 76.3 45.4 76.3 C 44.1 76.3 42.7 75.4 42.7 73.7 C 42.7 72 44.1 71.2 45.4 71.2 C 46.4 71.2 47.3 71.6 47.9 72.2 C 47.9 72.2 47.9 71 47.9 71 C 47.9 70 47.1 69.4 46 69.4 C 45.1 69.4 44.4 69.8 43.7 70.5 C 43.7 70.5 43.1 69.5 43.1 69.5 C 43.9 68.6 45 68.2 46.2 68.2 C 47.9 68.2 49.3 68.9 49.3 70.9 C 49.31 70.9 49.3 76.1 49.3 76.1 L 47.9 76.1 C 47.9 76.1 47.89 75.24 47.9 75.2 Z M 47.9 73.1 C 47.5 72.5 46.7 72.2 45.9 72.2 C 44.9 72.2 44.2 72.8 44.2 73.7 C 44.2 74.6 44.9 75.3 45.9 75.3 C 46.7 75.3 47.5 75 47.9 74.4 C 47.9 74.4 47.9 73.1 47.9 73.1 Z M 51.4 65.5 L 52.9 65.5 L 52.9 76.1 L 51.4 76.1 L 51.4 65.5 Z M 59 65.5 L 60.5 65.5 L 60.5 74.7 L 65.4 74.7 L 65.4 76.1 L 59 76.1 L 59 65.5 Z M 70 68.2 C 72.3 68.2 73.7 70 73.7 72.4 C 73.72 72.36 73.7 72.7 73.7 72.7 C 73.7 72.7 67.66 72.71 67.7 72.7 C 67.8 74 68.7 75.1 70.3 75.1 C 71.1 75.1 72 74.8 72.5 74.2 C 72.5 74.2 73.2 75.1 73.2 75.1 C 72.4 75.9 71.4 76.3 70.1 76.3 C 67.8 76.3 66.1 74.6 66.1 72.2 C 66.1 70 67.8 68.2 70 68.2 Z M 67.6 71.7 C 67.6 71.7 72.3 71.7 72.3 71.7 C 72.3 70.7 71.6 69.4 70 69.4 C 68.5 69.4 67.7 70.6 67.6 71.7 Z M 80.1 75.2 C 79.5 75.9 78.6 76.3 77.6 76.3 C 76.3 76.3 74.9 75.4 74.9 73.7 C 74.9 72 76.3 71.2 77.6 71.2 C 78.6 71.2 79.5 71.6 80.1 72.2 C 80.1 72.2 80.1 71 80.1 71 C 80.1 70 79.3 69.4 78.2 69.4 C 77.3 69.4 76.6 69.8 75.9 70.5 C 75.9 70.5 75.3 69.5 75.3 69.5 C 76.2 68.6 77.2 68.2 78.4 68.2 C 80.1 68.2 81.5 68.9 81.5 70.9 C 81.52 70.9 81.5 76.1 81.5 76.1 L 80.1 76.1 C 80.1 76.1 80.09 75.24 80.1 75.2 Z M 80.1 73.1 C 79.7 72.5 78.9 72.2 78.1 72.2 C 77.1 72.2 76.4 72.8 76.4 73.7 C 76.4 74.6 77.1 75.3 78.1 75.3 C 78.9 75.3 79.7 75 80.1 74.4 C 80.1 74.4 80.1 73.1 80.1 73.1 Z M 83.7 74 C 84.2 74.6 85.2 75.1 86.2 75.1 C 87.3 75.1 87.9 74.7 87.9 74 C 87.9 73.3 87 73 86 72.8 C 84.7 72.5 83.2 72.1 83.2 70.5 C 83.2 69.3 84.3 68.2 86.1 68.2 C 87.4 68.2 88.4 68.7 89.1 69.3 C 89.1 69.3 88.4 70.3 88.4 70.3 C 88 69.8 87.1 69.4 86.1 69.4 C 85.2 69.4 84.6 69.8 84.6 70.4 C 84.6 71 85.4 71.3 86.4 71.5 C 87.7 71.8 89.3 72.2 89.3 73.9 C 89.3 75.2 88.2 76.3 86.2 76.3 C 84.9 76.3 83.8 75.9 83 75.1 C 83 75.1 83.7 74 83.7 74 Z M 94.3 68.2 C 96.6 68.2 98 70 98 72.4 C 98.02 72.36 98 72.7 98 72.7 C 98 72.7 91.96 72.71 92 72.7 C 92.1 74 93 75.1 94.6 75.1 C 95.4 75.1 96.3 74.8 96.8 74.2 C 96.8 74.2 97.5 75.1 97.5 75.1 C 96.7 75.9 95.7 76.3 94.4 76.3 C 92.1 76.3 90.4 74.6 90.4 72.2 C 90.4 70 92.1 68.2 94.3 68.2 Z M 91.9 71.7 C 91.9 71.7 96.6 71.7 96.6 71.7 C 96.6 70.7 95.9 69.4 94.3 69.4 C 92.8 69.4 92 70.6 91.9 71.7 Z M 106.2 66.9 L 102.9 66.9 L 102.9 65.5 L 111.1 65.5 L 111.1 66.9 L 107.8 66.9 L 107.8 76.1 L 106.2 76.1 L 106.2 66.9 Z M 114.2 68.2 C 116.5 68.2 117.9 70 117.9 72.4 C 117.89 72.36 117.9 72.7 117.9 72.7 C 117.9 72.7 111.83 72.71 111.8 72.7 C 111.9 74 112.9 75.1 114.4 75.1 C 115.2 75.1 116.1 74.8 116.7 74.2 C 116.7 74.2 117.4 75.1 117.4 75.1 C 116.6 75.9 115.5 76.3 114.3 76.3 C 112 76.3 110.3 74.6 110.3 72.2 C 110.3 70 111.9 68.2 114.2 68.2 Z M 111.8 71.7 C 111.8 71.7 116.5 71.7 116.5 71.7 C 116.5 70.7 115.8 69.4 114.2 69.4 C 112.6 69.4 111.9 70.6 111.8 71.7 Z M 119.5 68.4 L 121 68.4 C 121 68.4 120.96 69.58 121 69.6 C 121.5 68.8 122.5 68.2 123.5 68.2 C 123.5 68.2 123.5 69.7 123.5 69.7 C 123.3 69.6 123.2 69.6 123 69.6 C 122.3 69.6 121.3 70.2 121 70.7 C 120.96 70.74 121 76.1 121 76.1 L 119.5 76.1 L 119.5 68.4 Z M 134.1 71 C 134.1 70.1 133.7 69.5 132.7 69.5 C 131.9 69.5 131.2 70 130.8 70.6 C 130.82 70.58 130.8 76.1 130.8 76.1 L 129.4 76.1 C 129.4 76.1 129.39 70.96 129.4 71 C 129.4 70.1 129 69.5 128 69.5 C 127.3 69.5 126.5 70 126.2 70.6 C 126.17 70.6 126.2 76.1 126.2 76.1 L 124.7 76.1 L 124.7 68.4 L 126.2 68.4 C 126.2 68.4 126.17 69.48 126.2 69.5 C 126.5 69 127.5 68.2 128.6 68.2 C 129.8 68.2 130.5 68.8 130.7 69.6 C 131.2 68.9 132.2 68.2 133.3 68.2 C 134.7 68.2 135.5 69 135.5 70.5 C 135.49 70.53 135.5 76.1 135.5 76.1 L 134.1 76.1 C 134.1 76.1 134.06 70.96 134.1 71 Z " stroke="none" fill="#242423"/>
  </g>
  <g id="Polygon210129">
    <path d="M 3.8 35.1 L 0.5 35.1 L 0.5 33.7 L 8.6 33.7 L 8.6 35.1 L 5.4 35.1 L 5.4 44.3 L 3.8 44.3 L 3.8 35.1 Z M 9.5 46.2 C 10.1 46.2 10.4 46 10.7 45.4 C 10.66 45.41 11.1 44.4 11.1 44.4 L 7.9 36.6 L 9.5 36.6 L 11.9 42.7 L 14.3 36.6 L 15.8 36.6 C 15.8 36.6 12.02 45.77 12 45.8 C 11.5 47 10.7 47.4 9.6 47.4 C 9.3 47.4 8.9 47.4 8.7 47.3 C 8.7 47.3 8.9 46 8.9 46 C 9.1 46.1 9.4 46.2 9.5 46.2 Z M 16.8 47.2 L 16.8 36.6 L 18.2 36.6 C 18.2 36.6 18.23 37.74 18.2 37.7 C 18.8 37 19.7 36.5 20.7 36.5 C 22.7 36.5 24.2 38 24.2 40.5 C 24.2 43 22.7 44.5 20.7 44.5 C 19.7 44.5 18.9 44 18.2 43.2 C 18.23 43.2 18.2 47.2 18.2 47.2 L 16.8 47.2 Z M 20.4 37.7 C 19.5 37.7 18.6 38.2 18.2 38.8 C 18.2 38.8 18.2 42.1 18.2 42.1 C 18.6 42.7 19.5 43.2 20.4 43.2 C 21.8 43.2 22.7 42.1 22.7 40.5 C 22.7 38.9 21.8 37.7 20.4 37.7 Z M 29.2 36.5 C 31.5 36.5 32.9 38.2 32.9 40.6 C 32.91 40.59 32.9 40.9 32.9 40.9 C 32.9 40.9 26.84 40.94 26.8 40.9 C 27 42.2 27.9 43.3 29.4 43.3 C 30.3 43.3 31.1 43 31.7 42.4 C 31.7 42.4 32.4 43.4 32.4 43.4 C 31.6 44.1 30.5 44.5 29.3 44.5 C 27 44.5 25.3 42.9 25.3 40.5 C 25.3 38.2 26.9 36.5 29.2 36.5 Z M 26.8 39.9 C 26.8 39.9 31.5 39.9 31.5 39.9 C 31.5 38.9 30.8 37.6 29.2 37.6 C 27.6 37.6 26.9 38.9 26.8 39.9 Z M 38 40.5 C 38 38.3 39.5 36.5 41.9 36.5 C 44.3 36.5 45.8 38.3 45.8 40.5 C 45.8 42.7 44.3 44.5 41.9 44.5 C 39.5 44.5 38 42.7 38 40.5 Z M 44.3 40.5 C 44.3 39 43.4 37.7 41.9 37.7 C 40.4 37.7 39.5 39 39.5 40.5 C 39.5 41.9 40.4 43.2 41.9 43.2 C 43.4 43.2 44.3 41.9 44.3 40.5 Z M 47.8 37.9 L 46.5 37.9 L 46.5 36.6 L 47.8 36.6 C 47.8 36.6 47.76 36.13 47.8 36.1 C 47.8 34.5 48.7 33.6 50.1 33.6 C 50.6 33.6 51 33.7 51.3 33.8 C 51.3 33.8 51 34.9 51 34.9 C 50.8 34.8 50.6 34.7 50.3 34.7 C 49.6 34.7 49.2 35.2 49.2 36.1 C 49.19 36.13 49.2 36.6 49.2 36.6 L 50.7 36.6 L 50.7 37.9 L 49.2 37.9 L 49.2 44.3 L 47.8 44.3 L 47.8 37.9 Z M 60.8 33.5 C 64 33.5 66.1 35.9 66.1 39 C 66.1 42.2 64 44.5 60.8 44.5 C 57.7 44.5 55.5 42.2 55.5 39 C 55.5 35.9 57.7 33.5 60.8 33.5 Z M 60.8 35 C 58.5 35 57.1 36.7 57.1 39 C 57.1 41.3 58.5 43.1 60.8 43.1 C 63.1 43.1 64.5 41.3 64.5 39 C 64.5 36.7 63.1 35 60.8 35 Z M 72.6 38.4 L 70.8 44.3 L 69.3 44.3 L 66.9 36.6 L 68.4 36.6 L 70.1 42.5 L 72 36.6 L 73.3 36.6 L 75.2 42.5 L 76.9 36.6 L 78.4 36.6 L 76 44.3 L 74.5 44.3 L 72.6 38.4 Z M 84.7 39.4 C 84.7 38.1 84.1 37.7 83.1 37.7 C 82.2 37.7 81.4 38.3 81 38.8 C 80.97 38.83 81 44.3 81 44.3 L 79.5 44.3 L 79.5 36.6 L 81 36.6 C 81 36.6 80.97 37.72 81 37.7 C 81.5 37.1 82.5 36.5 83.7 36.5 C 85.3 36.5 86.1 37.3 86.1 38.9 C 86.14 38.93 86.1 44.3 86.1 44.3 L 84.7 44.3 C 84.7 44.3 84.72 39.4 84.7 39.4 Z M 91.6 36.5 C 93.9 36.5 95.4 38.2 95.4 40.6 C 95.36 40.59 95.4 40.9 95.4 40.9 C 95.4 40.9 89.29 40.94 89.3 40.9 C 89.4 42.2 90.4 43.3 91.9 43.3 C 92.7 43.3 93.6 43 94.2 42.4 C 94.2 42.4 94.8 43.4 94.8 43.4 C 94.1 44.1 93 44.5 91.8 44.5 C 89.5 44.5 87.8 42.9 87.8 40.5 C 87.8 38.2 89.4 36.5 91.6 36.5 Z M 89.3 39.9 C 89.3 39.9 94 39.9 94 39.9 C 93.9 38.9 93.2 37.6 91.6 37.6 C 90.1 37.6 89.4 38.9 89.3 39.9 Z M 97 36.6 L 98.4 36.6 C 98.4 36.6 98.42 37.81 98.4 37.8 C 99 37.1 99.9 36.5 100.9 36.5 C 100.9 36.5 100.9 37.9 100.9 37.9 C 100.8 37.9 100.6 37.9 100.4 37.9 C 99.7 37.9 98.8 38.4 98.4 39 C 98.42 38.97 98.4 44.3 98.4 44.3 L 97 44.3 L 97 36.6 Z M 102.2 42.3 C 102.7 42.8 103.8 43.4 104.8 43.4 C 105.9 43.4 106.4 42.9 106.4 42.3 C 106.4 41.5 105.6 41.2 104.6 41 C 103.3 40.7 101.8 40.4 101.8 38.7 C 101.8 37.5 102.8 36.5 104.7 36.5 C 106 36.5 107 36.9 107.6 37.5 C 107.6 37.5 107 38.5 107 38.5 C 106.5 38 105.7 37.6 104.7 37.6 C 103.7 37.6 103.1 38 103.1 38.6 C 103.1 39.3 103.9 39.5 104.9 39.7 C 106.2 40 107.8 40.4 107.8 42.2 C 107.8 43.5 106.7 44.5 104.7 44.5 C 103.4 44.5 102.3 44.1 101.5 43.3 C 101.5 43.3 102.2 42.3 102.2 42.3 Z M 114.7 39.4 C 114.7 38.1 114 37.7 113 37.7 C 112.1 37.7 111.3 38.3 110.9 38.8 C 110.9 38.83 110.9 44.3 110.9 44.3 L 109.5 44.3 L 109.5 33.7 L 110.9 33.7 C 110.9 33.7 110.9 37.72 110.9 37.7 C 111.4 37.1 112.4 36.5 113.6 36.5 C 115.3 36.5 116.1 37.3 116.1 38.9 C 116.08 38.89 116.1 44.3 116.1 44.3 L 114.7 44.3 C 114.7 44.3 114.65 39.37 114.7 39.4 Z M 118 34.4 C 118 33.9 118.4 33.5 118.9 33.5 C 119.4 33.5 119.8 33.9 119.8 34.4 C 119.8 35 119.4 35.4 118.9 35.4 C 118.4 35.4 118 35 118 34.4 Z M 118.2 36.6 L 119.6 36.6 L 119.6 44.3 L 118.2 44.3 L 118.2 36.6 Z M 121.8 47.2 L 121.8 36.6 L 123.2 36.6 C 123.2 36.6 123.18 37.74 123.2 37.7 C 123.7 37 124.7 36.5 125.7 36.5 C 127.7 36.5 129.1 38 129.1 40.5 C 129.1 43 127.7 44.5 125.7 44.5 C 124.7 44.5 123.8 44 123.2 43.2 C 123.18 43.2 123.2 47.2 123.2 47.2 L 121.8 47.2 Z M 125.3 37.7 C 124.4 37.7 123.6 38.2 123.2 38.8 C 123.2 38.8 123.2 42.1 123.2 42.1 C 123.6 42.7 124.4 43.2 125.3 43.2 C 126.7 43.2 127.6 42.1 127.6 40.5 C 127.6 38.9 126.7 37.7 125.3 37.7 Z " stroke="none" fill="#242423"/>
  </g>
  <g id="Polygon210128">
    <path d="M 1.2 2 L 2.8 2 L 2.8 11.2 L 7.6 11.2 L 7.6 12.5 L 1.2 12.5 L 1.2 2 Z M 12.2 4.7 C 14.5 4.7 15.9 6.5 15.9 8.8 C 15.94 8.83 15.9 9.2 15.9 9.2 C 15.9 9.2 9.88 9.18 9.9 9.2 C 10 10.5 10.9 11.6 12.5 11.6 C 13.3 11.6 14.2 11.2 14.8 10.7 C 14.8 10.7 15.4 11.6 15.4 11.6 C 14.7 12.3 13.6 12.7 12.3 12.7 C 10.1 12.7 8.4 11.1 8.4 8.7 C 8.4 6.5 10 4.7 12.2 4.7 Z M 9.9 8.1 C 9.9 8.1 14.5 8.1 14.5 8.1 C 14.5 7.1 13.8 5.9 12.2 5.9 C 10.7 5.9 9.9 7.1 9.9 8.1 Z M 22.3 11.7 C 21.7 12.4 20.8 12.7 19.8 12.7 C 18.5 12.7 17.1 11.9 17.1 10.2 C 17.1 8.4 18.5 7.7 19.8 7.7 C 20.8 7.7 21.7 8 22.3 8.7 C 22.3 8.7 22.3 7.4 22.3 7.4 C 22.3 6.5 21.5 5.9 20.4 5.9 C 19.6 5.9 18.8 6.2 18.1 6.9 C 18.1 6.9 17.5 5.9 17.5 5.9 C 18.4 5.1 19.4 4.7 20.7 4.7 C 22.3 4.7 23.7 5.4 23.7 7.4 C 23.74 7.37 23.7 12.5 23.7 12.5 L 22.3 12.5 C 22.3 12.5 22.32 11.71 22.3 11.7 Z M 22.3 9.6 C 21.9 9 21.1 8.7 20.3 8.7 C 19.3 8.7 18.6 9.3 18.6 10.2 C 18.6 11.1 19.3 11.7 20.3 11.7 C 21.1 11.7 21.9 11.4 22.3 10.9 C 22.3 10.9 22.3 9.6 22.3 9.6 Z M 25.9 10.5 C 26.4 11.1 27.4 11.6 28.5 11.6 C 29.5 11.6 30.1 11.2 30.1 10.5 C 30.1 9.7 29.2 9.5 28.3 9.3 C 27 9 25.4 8.6 25.4 7 C 25.4 5.7 26.5 4.7 28.3 4.7 C 29.7 4.7 30.6 5.2 31.3 5.8 C 31.3 5.8 30.6 6.8 30.6 6.8 C 30.2 6.2 29.3 5.8 28.4 5.8 C 27.4 5.8 26.8 6.2 26.8 6.8 C 26.8 7.5 27.6 7.7 28.6 8 C 29.9 8.3 31.5 8.6 31.5 10.4 C 31.5 11.7 30.4 12.7 28.4 12.7 C 27.1 12.7 26 12.3 25.2 11.5 C 25.2 11.5 25.9 10.5 25.9 10.5 Z M 36.5 4.7 C 38.8 4.7 40.2 6.5 40.2 8.8 C 40.24 8.83 40.2 9.2 40.2 9.2 C 40.2 9.2 34.18 9.18 34.2 9.2 C 34.3 10.5 35.2 11.6 36.8 11.6 C 37.6 11.6 38.5 11.2 39.1 10.7 C 39.1 10.7 39.7 11.6 39.7 11.6 C 39 12.3 37.9 12.7 36.6 12.7 C 34.4 12.7 32.7 11.1 32.7 8.7 C 32.7 6.5 34.3 4.7 36.5 4.7 Z M 34.2 8.1 C 34.2 8.1 38.8 8.1 38.8 8.1 C 38.8 7.1 38.1 5.9 36.5 5.9 C 35 5.9 34.2 7.1 34.2 8.1 Z M 48.4 3.4 L 45.2 3.4 L 45.2 2 L 53.3 2 L 53.3 3.4 L 50 3.4 L 50 12.5 L 48.4 12.5 L 48.4 3.4 Z M 54.2 14.4 C 54.7 14.4 55.1 14.2 55.3 13.6 C 55.33 13.64 55.8 12.6 55.8 12.6 L 52.6 4.9 L 54.1 4.9 L 56.5 10.9 L 58.9 4.9 L 60.5 4.9 C 60.5 4.9 56.7 14.01 56.7 14 C 56.2 15.2 55.4 15.6 54.3 15.7 C 54 15.7 53.6 15.6 53.4 15.5 C 53.4 15.5 53.6 14.3 53.6 14.3 C 53.8 14.3 54 14.4 54.2 14.4 Z M 61.5 15.5 L 61.5 4.9 L 62.9 4.9 C 62.9 4.9 62.91 5.97 62.9 6 C 63.5 5.2 64.4 4.7 65.4 4.7 C 67.4 4.7 68.8 6.2 68.8 8.7 C 68.8 11.2 67.4 12.7 65.4 12.7 C 64.4 12.7 63.5 12.3 62.9 11.4 C 62.91 11.44 62.9 15.5 62.9 15.5 L 61.5 15.5 Z M 65 6 C 64.2 6 63.3 6.5 62.9 7.1 C 62.9 7.1 62.9 10.3 62.9 10.3 C 63.3 10.9 64.2 11.5 65 11.5 C 66.5 11.5 67.3 10.3 67.3 8.7 C 67.3 7.1 66.5 6 65 6 Z M 73.9 4.7 C 76.2 4.7 77.6 6.5 77.6 8.8 C 77.58 8.83 77.6 9.2 77.6 9.2 C 77.6 9.2 71.52 9.18 71.5 9.2 C 71.6 10.5 72.6 11.6 74.1 11.6 C 74.9 11.6 75.8 11.2 76.4 10.7 C 76.4 10.7 77.1 11.6 77.1 11.6 C 76.3 12.3 75.2 12.7 74 12.7 C 71.7 12.7 70 11.1 70 8.7 C 70 6.5 71.6 4.7 73.9 4.7 Z M 71.5 8.1 C 71.5 8.1 76.2 8.1 76.2 8.1 C 76.2 7.1 75.5 5.9 73.9 5.9 C 72.3 5.9 71.6 7.1 71.5 8.1 Z " stroke="none" fill="#242423"/>
  </g>
</svg>