<?xml version="1.0" standalone="no"?><!DOCTYPE svg PUBLIC "-//W3C//DTD SVG 1.1//EN" "http://www.w3.org/Graphics/SVG/1.1/DTD/svg11.dtd"><svg xmlns="http://www.w3.org/2000/svg" version="1.1" width="134.3px" height="15.9px" viewBox="0 -4 134.3 15.9" style="top:-4px"><desc>2011</desc><defs/><g id="Polygon88151"><path d="m118.5 6.7c2.1-1.7 3.4-2.8 3.4-4c0-.9-.7-1.2-1.3-1.2c-.8 0-1.3.3-1.7.8l-.3-.4c.4-.5 1.1-.9 2-.9c.9 0 1.9.5 1.9 1.7c0 1.3-1.4 2.5-3.2 3.9c.03.04 3.2 0 3.2 0v.5h-4s.03-.41 0-.4zM126 1c1.6 0 2.2 1.7 2.2 3.1c0 1.4-.6 3.1-2.2 3.1c-1.6 0-2.2-1.7-2.2-3.1c0-1.4.6-3.1 2.2-3.1zm0 .5c-1.3 0-1.7 1.4-1.7 2.6c0 1.2.4 2.7 1.7 2.7c1.3 0 1.7-1.5 1.7-2.7c0-1.2-.4-2.6-1.7-2.6zm4.2.3l-.9 1l-.3-.3l1.3-1.4h.5v6h-.6V1.8zm2.8 0l-.9 1l-.4-.3l1.4-1.4h.4v6h-.5V1.8z" stroke="none" fill="#000"/></g></svg>