<?xml version="1.0" standalone="no"?>
<!DOCTYPE svg PUBLIC "-//W3C//DTD SVG 1.1//EN" "http://www.w3.org/Graphics/SVG/1.1/DTD/svg11.dtd">
<svg xmlns="http://www.w3.org/2000/svg" version="1.1" width="103px" height="27.9px" viewBox="0 -6 103 27.9" style="top:-6px">
  <desc>Agent 1</desc>
  <defs/>
  <g id="Polygon270127">
    <path d="M 1.2 2 C 1.2 2 5.64 1.95 5.6 2 C 7.8 2 9 3.4 9 5.2 C 9 7 7.8 8.5 5.6 8.5 C 5.64 8.46 2.8 8.5 2.8 8.5 L 2.8 12.5 L 1.2 12.5 L 1.2 2 Z M 5.4 3.4 C 5.43 3.35 2.8 3.4 2.8 3.4 L 2.8 7.1 C 2.8 7.1 5.43 7.07 5.4 7.1 C 6.6 7.1 7.4 6.3 7.4 5.2 C 7.4 4.1 6.6 3.4 5.4 3.4 Z M 15.6 11.5 C 15.1 12.1 14.1 12.7 12.9 12.7 C 11.3 12.7 10.5 11.9 10.5 10.3 C 10.47 10.29 10.5 4.9 10.5 4.9 L 11.9 4.9 C 11.9 4.9 11.89 9.82 11.9 9.8 C 11.9 11.1 12.5 11.5 13.5 11.5 C 14.4 11.5 15.2 11 15.6 10.4 C 15.64 10.39 15.6 4.9 15.6 4.9 L 17.1 4.9 L 17.1 12.5 L 15.6 12.5 C 15.6 12.5 15.64 11.5 15.6 11.5 Z M 19.2 4.9 L 20.6 4.9 C 20.6 4.9 20.61 6.05 20.6 6.1 C 21.2 5.3 22.1 4.7 23.1 4.7 C 23.1 4.7 23.1 6.1 23.1 6.1 C 23 6.1 22.8 6.1 22.6 6.1 C 21.9 6.1 20.9 6.6 20.6 7.2 C 20.61 7.21 20.6 12.5 20.6 12.5 L 19.2 12.5 L 19.2 4.9 Z M 27.8 4.7 C 29.3 4.7 30.1 5.3 30.7 6 C 30.7 6 29.7 6.9 29.7 6.9 C 29.3 6.3 28.7 6 27.9 6 C 26.4 6 25.4 7.1 25.4 8.7 C 25.4 10.3 26.4 11.5 27.9 11.5 C 28.7 11.5 29.3 11.2 29.7 10.5 C 29.7 10.5 30.7 11.4 30.7 11.4 C 30.1 12.1 29.3 12.7 27.8 12.7 C 25.5 12.7 23.9 11 23.9 8.7 C 23.9 6.4 25.5 4.7 27.8 4.7 Z M 37.3 7.6 C 37.3 6.3 36.6 6 35.7 6 C 34.8 6 34 6.5 33.5 7.1 C 33.54 7.07 33.5 12.5 33.5 12.5 L 32.1 12.5 L 32.1 2 L 33.5 2 C 33.5 2 33.54 5.95 33.5 6 C 34.1 5.3 35.1 4.7 36.3 4.7 C 37.9 4.7 38.7 5.5 38.7 7.1 C 38.72 7.13 38.7 12.5 38.7 12.5 L 37.3 12.5 C 37.3 12.5 37.29 7.61 37.3 7.6 Z M 45.6 11.7 C 45 12.4 44.1 12.7 43.1 12.7 C 41.8 12.7 40.4 11.9 40.4 10.2 C 40.4 8.4 41.8 7.7 43.1 7.7 C 44.1 7.7 45 8 45.6 8.7 C 45.6 8.7 45.6 7.4 45.6 7.4 C 45.6 6.5 44.8 5.9 43.7 5.9 C 42.8 5.9 42.1 6.2 41.4 6.9 C 41.4 6.9 40.8 5.9 40.8 5.9 C 41.6 5.1 42.7 4.7 43.9 4.7 C 45.6 4.7 47 5.4 47 7.4 C 47.01 7.37 47 12.5 47 12.5 L 45.6 12.5 C 45.6 12.5 45.58 11.71 45.6 11.7 Z M 45.6 9.6 C 45.2 9 44.4 8.7 43.6 8.7 C 42.6 8.7 41.8 9.3 41.8 10.2 C 41.8 11.1 42.6 11.7 43.6 11.7 C 44.4 11.7 45.2 11.4 45.6 10.9 C 45.6 10.9 45.6 9.6 45.6 9.6 Z M 49.2 10.5 C 49.7 11.1 50.7 11.6 51.7 11.6 C 52.8 11.6 53.4 11.2 53.4 10.5 C 53.4 9.7 52.5 9.5 51.5 9.3 C 50.2 9 48.7 8.6 48.7 7 C 48.7 5.7 49.7 4.7 51.6 4.7 C 52.9 4.7 53.9 5.2 54.5 5.8 C 54.5 5.8 53.9 6.8 53.9 6.8 C 53.5 6.2 52.6 5.8 51.6 5.8 C 50.7 5.8 50.1 6.2 50.1 6.8 C 50.1 7.5 50.9 7.7 51.8 8 C 53.2 8.3 54.8 8.6 54.8 10.4 C 54.8 11.7 53.7 12.7 51.7 12.7 C 50.4 12.7 49.3 12.3 48.5 11.5 C 48.5 11.5 49.2 10.5 49.2 10.5 Z M 59.8 4.7 C 62.1 4.7 63.5 6.5 63.5 8.8 C 63.51 8.83 63.5 9.2 63.5 9.2 C 63.5 9.2 57.44 9.18 57.4 9.2 C 57.6 10.5 58.5 11.6 60.1 11.6 C 60.9 11.6 61.8 11.2 62.3 10.7 C 62.3 10.7 63 11.6 63 11.6 C 62.2 12.3 61.1 12.7 59.9 12.7 C 57.6 12.7 55.9 11.1 55.9 8.7 C 55.9 6.5 57.5 4.7 59.8 4.7 Z M 57.4 8.1 C 57.4 8.1 62.1 8.1 62.1 8.1 C 62.1 7.1 61.4 5.9 59.8 5.9 C 58.2 5.9 57.5 7.1 57.4 8.1 Z M 69.1 2 C 69.1 2 73.58 1.95 73.6 2 C 75.8 2 77 3.4 77 5.2 C 77 7 75.7 8.5 73.6 8.5 C 73.58 8.46 70.7 8.5 70.7 8.5 L 70.7 12.5 L 69.1 12.5 L 69.1 2 Z M 73.4 3.4 C 73.38 3.35 70.7 3.4 70.7 3.4 L 70.7 7.1 C 70.7 7.1 73.38 7.07 73.4 7.1 C 74.5 7.1 75.3 6.3 75.3 5.2 C 75.3 4.1 74.5 3.4 73.4 3.4 Z M 78.4 4.9 L 79.8 4.9 C 79.8 4.9 79.84 6.05 79.8 6.1 C 80.4 5.3 81.3 4.7 82.3 4.7 C 82.3 4.7 82.3 6.1 82.3 6.1 C 82.2 6.1 82 6.1 81.9 6.1 C 81.1 6.1 80.2 6.6 79.8 7.2 C 79.84 7.21 79.8 12.5 79.8 12.5 L 78.4 12.5 L 78.4 4.9 Z M 83.4 2.7 C 83.4 2.2 83.8 1.8 84.3 1.8 C 84.8 1.8 85.2 2.2 85.2 2.7 C 85.2 3.2 84.8 3.6 84.3 3.6 C 83.8 3.6 83.4 3.2 83.4 2.7 Z M 83.6 4.9 L 85 4.9 L 85 12.5 L 83.6 12.5 L 83.6 4.9 Z M 90.6 4.7 C 92 4.7 92.9 5.3 93.5 6 C 93.5 6 92.5 6.9 92.5 6.9 C 92.1 6.3 91.4 6 90.7 6 C 89.1 6 88.2 7.1 88.2 8.7 C 88.2 10.3 89.1 11.5 90.7 11.5 C 91.4 11.5 92.1 11.2 92.5 10.5 C 92.5 10.5 93.5 11.4 93.5 11.4 C 92.9 12.1 92 12.7 90.6 12.7 C 88.3 12.7 86.7 11 86.7 8.7 C 86.7 6.4 88.3 4.7 90.6 4.7 Z M 98.2 4.7 C 100.6 4.7 102 6.5 102 8.8 C 101.98 8.83 102 9.2 102 9.2 C 102 9.2 95.91 9.18 95.9 9.2 C 96 10.5 97 11.6 98.5 11.6 C 99.3 11.6 100.2 11.2 100.8 10.7 C 100.8 10.7 101.5 11.6 101.5 11.6 C 100.7 12.3 99.6 12.7 98.4 12.7 C 96.1 12.7 94.4 11.1 94.4 8.7 C 94.4 6.5 96 4.7 98.2 4.7 Z M 95.9 8.1 C 95.9 8.1 100.6 8.1 100.6 8.1 C 100.6 7.1 99.9 5.9 98.2 5.9 C 96.7 5.9 96 7.1 95.9 8.1 Z " stroke="none" fill="#3797ef"/>
  </g>
</svg>