<?xml version="1.0" standalone="no"?><!DOCTYPE svg PUBLIC "-//W3C//DTD SVG 1.1//EN" "http://www.w3.org/Graphics/SVG/1.1/DTD/svg11.dtd"><svg xmlns="http://www.w3.org/2000/svg" xmlns:xlink="http://www.w3.org/1999/xlink" version="1.1" width="237px" height="44.9px" viewBox="0 -14 237 44.9" style="top:-14px"><desc/><defs/><g id="Polygon55587"><path d="m64.1 6.9L71 3.3v.8l-6.1 3.1l6.1 3.1v.8l-6.9-3.6v-.6zm7.9 0l6.9-3.6v.8l-6.1 3.1l6.1 3.1v.8L72 7.5v-.6zm9.6-3.5v9.1h-.9V2h.9l6.6 9v-9h.9v10.5h-.8l-6.7-9.1zm15.3 8c-.6.7-1.6 1.3-2.7 1.3c-1.6 0-2.4-.7-2.4-2.4c-.04-.02 0-5.4 0-5.4h.8s-.02 5.19 0 5.2c0 1.5.7 1.9 1.8 1.9c1 0 2-.6 2.5-1.3c.03.02 0-5.8 0-5.8h.9v7.6h-.9s.03-1.08 0-1.1zm12.6-4.2c0-1.1-.5-1.8-1.6-1.8c-.8 0-1.7.6-2.2 1.3c.03.03 0 5.8 0 5.8h-.8V7.2c0-1.1-.5-1.8-1.6-1.8c-.8 0-1.7.7-2.1 1.3c-.04.05 0 5.8 0 5.8h-.9V4.9h.9s-.04 1.13 0 1.1c.3-.5 1.3-1.3 2.4-1.3c1.2 0 1.9.7 2.1 1.4c.4-.7 1.4-1.4 2.5-1.4c1.4 0 2.1.8 2.1 2.3v5.5h-.8s-.04-5.32 0-5.3zm3.4-5.2h.8v4.1c.6-.9 1.6-1.4 2.7-1.4c2 0 3.4 1.6 3.4 4c0 2.5-1.4 4-3.4 4c-1.2 0-2.2-.6-2.7-1.4v1.2h-.8V2zm3.3 10c1.7 0 2.7-1.4 2.7-3.3c0-1.8-1-3.3-2.7-3.3c-1.1 0-2.1.7-2.5 1.4v3.8c.4.8 1.4 1.4 2.5 1.4zm9-7.3c2.3 0 3.6 1.8 3.6 4.1v.2s-6.41-.03-6.4 0c.1 1.6 1.2 3 3 3c1 0 1.8-.3 2.5-1l.4.5c-.7.8-1.7 1.2-3 1.2c-2.2 0-3.8-1.6-3.8-4c0-2.2 1.6-4 3.7-4zm-2.8 3.6h5.6c0-1.3-.9-2.9-2.8-2.9c-1.8 0-2.7 1.6-2.8 2.9zm8.5-3.4h.9s-.04 1.29 0 1.3c.6-.9 1.5-1.5 2.6-1.5v.9h-.5c-.7 0-1.8.7-2.1 1.4c-.04-.04 0 5.5 0 5.5h-.9V4.9zm8.7 3.8c0-2.2 1.5-4 3.7-4c2.3 0 3.7 1.8 3.7 4c0 2.2-1.4 4-3.7 4c-2.2 0-3.7-1.8-3.7-4zm6.5 0c0-1.7-1-3.3-2.8-3.3c-1.8 0-2.8 1.6-2.8 3.3c0 1.7 1 3.3 2.8 3.3c1.8 0 2.8-1.6 2.8-3.3zm3.3-3.1h-1.2v-.7h1.2s.02-.72 0-.7c0-1.5.8-2.4 2.1-2.4c.4 0 .7.1 1 .2l-.2.7c-.2-.1-.4-.2-.7-.2c-.9 0-1.4.6-1.4 1.7c.05-.02 0 .7 0 .7h1.6v.7h-1.6v6.9h-.8V5.6zm8.1-3.6h.9v9.7h5.1v.8h-6V2zm7.1 6.7c0-2.2 1.5-4 3.7-4c2.3 0 3.7 1.8 3.7 4c0 2.2-1.4 4-3.7 4c-2.2 0-3.7-1.8-3.7-4zm6.5 0c0-1.7-1-3.3-2.8-3.3c-1.8 0-2.8 1.6-2.8 3.3c0 1.7 1 3.3 2.8 3.3c1.8 0 2.8-1.6 2.8-3.3zm6.3-4c1.3 0 2.1.5 2.7 1.3l-.5.5c-.6-.8-1.3-1.1-2.1-1.1c-1.8 0-2.9 1.5-2.9 3.3c0 1.8 1.1 3.3 2.9 3.3c.8 0 1.5-.3 2.1-1.1l.5.5c-.6.8-1.4 1.3-2.7 1.3c-2.2 0-3.7-1.8-3.7-4c0-2.2 1.5-4 3.7-4zm9.5 6.9c-.7.8-1.6 1.1-2.6 1.1c-1.4 0-2.7-.9-2.7-2.5c0-1.7 1.3-2.5 2.7-2.5c1 0 1.9.3 2.6 1V7.2c0-1.1-1-1.8-2.1-1.8c-1 0-1.7.3-2.4 1.1l-.5-.5c.8-.9 1.7-1.3 3-1.3c1.5 0 2.8.7 2.8 2.4c-.02.05 0 5.4 0 5.4h-.8s-.04-.86 0-.9zm0-2.2c-.6-.7-1.4-1.1-2.4-1.1c-1.2 0-2.1.8-2.1 1.9c0 1.1.9 1.9 2.1 1.9c1 0 1.8-.4 2.4-1.1V9.4zm3.5 1.7c.02-.03 0-5.5 0-5.5h-1.3v-.7h1.3V2.8h.9v2.1h1.5v.7h-1.5s-.04 5.34 0 5.3c0 .7.2 1.1.8 1.1c.3 0 .6-.2.8-.4l.3.7c-.3.2-.6.4-1.3.4c-1 0-1.5-.6-1.5-1.6zm4-8.2c0-.3.3-.6.6-.6c.4 0 .7.3.7.6c0 .4-.3.7-.7.7c-.3 0-.6-.3-.6-.7zm.2 2h.8v7.6h-.8V4.9zm3 3.8c0-2.2 1.4-4 3.7-4c2.2 0 3.7 1.8 3.7 4c0 2.2-1.5 4-3.7 4c-2.3 0-3.7-1.8-3.7-4zm6.5 0c0-1.7-1-3.3-2.8-3.3c-1.8 0-2.8 1.6-2.8 3.3c0 1.7 1 3.3 2.8 3.3c1.8 0 2.8-1.6 2.8-3.3zm8.2-1.3c0-1.5-.8-2-1.9-2c-1 0-2 .7-2.5 1.3c.02.05 0 5.8 0 5.8h-.8V4.9h.8s.02 1.13 0 1.1c.6-.6 1.7-1.3 2.8-1.3c1.5 0 2.4.7 2.4 2.5v5.3h-.8s-.03-5.13 0-5.1zm3.2 3.5c.5.6 1.4 1.1 2.5 1.1c1.3 0 2-.6 2-1.5c0-1-1-1.3-2.1-1.5c-1.3-.4-2.7-.7-2.7-2.2c0-1.2 1-2.1 2.7-2.1c1.3 0 2.2.5 2.8 1.1l-.5.6c-.4-.6-1.3-1-2.3-1c-1.2 0-1.9.6-1.9 1.4c0 .8 1 1.1 2 1.3c1.4.4 2.8.7 2.8 2.4c0 1.2-.9 2.2-2.8 2.2c-1.3 0-2.2-.3-3-1.2l.5-.6zm6.6-.6l6.2-3.1l-6.2-3.1v-.8l7 3.6v.6l-7 3.6v-.8zm7.9 0l6.1-3.1l-6.1-3.1v-.8l7 3.6v.6l-7 3.6v-.8z" stroke="none" fill="#000"/><a xlink:href="DBF_Number%20of%20Locations" xlink:show="new" xlink:title="&lt;&lt;Number of Locations&gt;&gt;"><rect style="fill:transparent;" x="63" y="1" width="174" height="12"/></a></g></svg>