<?xml version="1.0" standalone="no"?>
<!DOCTYPE svg PUBLIC "-//W3C//DTD SVG 1.1//EN" "http://www.w3.org/Graphics/SVG/1.1/DTD/svg11.dtd">
<svg xmlns="http://www.w3.org/2000/svg" version="1.1" width="196.3px" height="12.3px" viewBox="0 -3 196.3 12.3" style="top:-3px">
  <desc>*Optional Note</desc>
  <defs/>
  <g id="Polygon267174">
    <path d="M 0.9 1.8 L 0.3 2.1 L 0.2 1.9 L 0.8 1.6 L 0.2 1.3 L 0.3 1 L 0.9 1.4 L 0.9 0.7 L 1.2 0.7 L 1.1 1.4 L 1.7 1 L 1.9 1.3 L 1.3 1.6 L 1.9 1.9 L 1.7 2.1 L 1.1 1.8 L 1.2 2.4 L 0.9 2.4 L 0.9 1.8 Z M 4.3 0.7 C 5.5 0.7 6.4 1.6 6.4 2.7 C 6.4 3.9 5.5 4.8 4.3 4.8 C 3.2 4.8 2.3 3.9 2.3 2.7 C 2.3 1.6 3.2 0.7 4.3 0.7 Z M 4.3 1.2 C 3.5 1.2 3 1.9 3 2.7 C 3 3.6 3.5 4.3 4.3 4.3 C 5.2 4.3 5.7 3.6 5.7 2.7 C 5.7 1.9 5.2 1.2 4.3 1.2 Z M 7.1 5.8 L 7.1 1.8 L 7.6 1.8 C 7.6 1.8 7.62 2.26 7.6 2.3 C 7.8 2 8.2 1.8 8.6 1.8 C 9.3 1.8 9.9 2.3 9.9 3.3 C 9.9 4.2 9.3 4.8 8.6 4.8 C 8.2 4.8 7.9 4.6 7.6 4.3 C 7.62 4.32 7.6 5.8 7.6 5.8 L 7.1 5.8 Z M 8.4 2.2 C 8.1 2.2 7.8 2.4 7.6 2.7 C 7.6 2.7 7.6 3.9 7.6 3.9 C 7.8 4.1 8.1 4.3 8.4 4.3 C 9 4.3 9.3 3.9 9.3 3.3 C 9.3 2.7 9 2.2 8.4 2.2 Z M 10.7 4.1 C 10.65 4.1 10.7 2.3 10.7 2.3 L 10.2 2.3 L 10.2 1.8 L 10.7 1.8 L 10.7 1.1 L 11.2 1.1 L 11.2 1.8 L 11.8 1.8 L 11.8 2.3 L 11.2 2.3 C 11.2 2.3 11.19 3.98 11.2 4 C 11.2 4.2 11.3 4.3 11.5 4.3 C 11.6 4.3 11.7 4.3 11.8 4.2 C 11.8 4.2 11.9 4.6 11.9 4.6 C 11.8 4.7 11.6 4.8 11.3 4.8 C 10.9 4.8 10.7 4.6 10.7 4.1 Z M 12.3 1 C 12.3 0.8 12.5 0.7 12.6 0.7 C 12.8 0.7 13 0.8 13 1 C 13 1.2 12.8 1.4 12.6 1.4 C 12.5 1.4 12.3 1.2 12.3 1 Z M 12.4 1.8 L 12.9 1.8 L 12.9 4.7 L 12.4 4.7 L 12.4 1.8 Z M 13.6 3.3 C 13.6 2.5 14.2 1.8 15.1 1.8 C 16 1.8 16.5 2.5 16.5 3.3 C 16.5 4.1 16 4.8 15.1 4.8 C 14.2 4.8 13.6 4.1 13.6 3.3 Z M 16 3.3 C 16 2.7 15.6 2.2 15.1 2.2 C 14.5 2.2 14.2 2.7 14.2 3.3 C 14.2 3.8 14.5 4.3 15.1 4.3 C 15.6 4.3 16 3.8 16 3.3 Z M 19.2 2.9 C 19.2 2.4 18.9 2.2 18.5 2.2 C 18.2 2.2 17.9 2.5 17.7 2.7 C 17.75 2.67 17.7 4.7 17.7 4.7 L 17.2 4.7 L 17.2 1.8 L 17.7 1.8 C 17.7 1.8 17.75 2.25 17.7 2.2 C 17.9 2 18.3 1.8 18.8 1.8 C 19.4 1.8 19.7 2.1 19.7 2.7 C 19.7 2.71 19.7 4.7 19.7 4.7 L 19.2 4.7 C 19.2 4.7 19.16 2.89 19.2 2.9 Z M 22.4 4.4 C 22.1 4.7 21.8 4.8 21.4 4.8 C 20.9 4.8 20.4 4.5 20.4 3.9 C 20.4 3.2 20.9 2.9 21.4 2.9 C 21.8 2.9 22.1 3 22.4 3.3 C 22.4 3.3 22.4 2.8 22.4 2.8 C 22.4 2.4 22.1 2.2 21.6 2.2 C 21.3 2.2 21 2.4 20.8 2.6 C 20.8 2.6 20.5 2.2 20.5 2.2 C 20.9 1.9 21.3 1.8 21.7 1.8 C 22.4 1.8 22.9 2 22.9 2.8 C 22.89 2.78 22.9 4.7 22.9 4.7 L 22.4 4.7 C 22.4 4.7 22.35 4.42 22.4 4.4 Z M 22.4 3.6 C 22.2 3.4 21.9 3.3 21.6 3.3 C 21.2 3.3 20.9 3.5 20.9 3.9 C 20.9 4.2 21.2 4.4 21.6 4.4 C 21.9 4.4 22.2 4.3 22.4 4.1 C 22.4 4.1 22.4 3.6 22.4 3.6 Z M 23.8 0.7 L 24.3 0.7 L 24.3 4.7 L 23.8 4.7 L 23.8 0.7 Z M 27.3 1.7 L 27.3 4.7 L 26.7 4.7 L 26.7 0.7 L 27.3 0.7 L 29.5 3.7 L 29.5 0.7 L 30.1 0.7 L 30.1 4.7 L 29.5 4.7 L 27.3 1.7 Z M 30.8 3.3 C 30.8 2.5 31.4 1.8 32.3 1.8 C 33.2 1.8 33.7 2.5 33.7 3.3 C 33.7 4.1 33.2 4.8 32.3 4.8 C 31.4 4.8 30.8 4.1 30.8 3.3 Z M 33.2 3.3 C 33.2 2.7 32.8 2.2 32.3 2.2 C 31.7 2.2 31.4 2.7 31.4 3.3 C 31.4 3.8 31.7 4.3 32.3 4.3 C 32.8 4.3 33.2 3.8 33.2 3.3 Z M 34.5 4.1 C 34.52 4.1 34.5 2.3 34.5 2.3 L 34 2.3 L 34 1.8 L 34.5 1.8 L 34.5 1.1 L 35.1 1.1 L 35.1 1.8 L 35.7 1.8 L 35.7 2.3 L 35.1 2.3 C 35.1 2.3 35.06 3.98 35.1 4 C 35.1 4.2 35.2 4.3 35.3 4.3 C 35.5 4.3 35.6 4.3 35.6 4.2 C 35.6 4.2 35.8 4.6 35.8 4.6 C 35.7 4.7 35.5 4.8 35.2 4.8 C 34.8 4.8 34.5 4.6 34.5 4.1 Z M 37.5 1.8 C 38.4 1.8 38.9 2.4 38.9 3.3 C 38.93 3.34 38.9 3.5 38.9 3.5 C 38.9 3.5 36.64 3.47 36.6 3.5 C 36.7 4 37 4.4 37.6 4.4 C 37.9 4.4 38.3 4.2 38.5 4 C 38.5 4 38.7 4.4 38.7 4.4 C 38.4 4.7 38 4.8 37.6 4.8 C 36.7 4.8 36.1 4.2 36.1 3.3 C 36.1 2.4 36.7 1.8 37.5 1.8 Z M 36.6 3.1 C 36.6 3.1 38.4 3.1 38.4 3.1 C 38.4 2.7 38.1 2.2 37.5 2.2 C 36.9 2.2 36.7 2.7 36.6 3.1 Z " stroke="none" fill="#878787"/>
  </g>
</svg>