<?xml version="1.0" standalone="no"?>
<!DOCTYPE svg PUBLIC "-//W3C//DTD SVG 1.1//EN" "http://www.w3.org/Graphics/SVG/1.1/DTD/svg11.dtd">
<svg xmlns="http://www.w3.org/2000/svg" version="1.1" width="158px" height="27.9px" viewBox="0 -6 158 27.9" style="top:-6px">
  <desc>Company Name</desc>
  <defs/>
  <g id="Polygon278145">
    <path d="M 0.7 7.3 C 0.7 4 3.1 1.8 6.2 1.8 C 8.2 1.8 9.5 2.8 10.4 4 C 10.4 4 9 4.7 9 4.7 C 8.5 3.8 7.4 3.2 6.2 3.2 C 4 3.2 2.4 4.9 2.4 7.3 C 2.4 9.6 4 11.3 6.2 11.3 C 7.4 11.3 8.5 10.7 9 9.8 C 9 9.8 10.4 10.5 10.4 10.5 C 9.5 11.7 8.2 12.7 6.2 12.7 C 3.1 12.7 0.7 10.5 0.7 7.3 Z M 11.5 8.7 C 11.5 6.5 12.9 4.7 15.3 4.7 C 17.7 4.7 19.2 6.5 19.2 8.7 C 19.2 10.9 17.7 12.7 15.3 12.7 C 12.9 12.7 11.5 10.9 11.5 8.7 Z M 17.7 8.7 C 17.7 7.3 16.9 6 15.3 6 C 13.8 6 12.9 7.3 12.9 8.7 C 12.9 10.2 13.8 11.5 15.3 11.5 C 16.9 11.5 17.7 10.2 17.7 8.7 Z M 30.3 7.4 C 30.3 6.5 29.9 6 29 6 C 28.2 6 27.5 6.5 27.1 7.1 C 27.09 7.05 27.1 12.5 27.1 12.5 L 25.7 12.5 C 25.7 12.5 25.67 7.43 25.7 7.4 C 25.7 6.5 25.3 6 24.3 6 C 23.6 6 22.8 6.5 22.4 7.1 C 22.44 7.07 22.4 12.5 22.4 12.5 L 21 12.5 L 21 4.9 L 22.4 4.9 C 22.4 4.9 22.44 5.95 22.4 6 C 22.8 5.5 23.8 4.7 24.9 4.7 C 26.1 4.7 26.8 5.3 27 6.1 C 27.4 5.4 28.5 4.7 29.6 4.7 C 31 4.7 31.8 5.5 31.8 7 C 31.76 7 31.8 12.5 31.8 12.5 L 30.3 12.5 C 30.3 12.5 30.34 7.43 30.3 7.4 Z M 34 15.5 L 34 4.9 L 35.5 4.9 C 35.5 4.9 35.46 5.97 35.5 6 C 36 5.2 36.9 4.7 38 4.7 C 40 4.7 41.4 6.2 41.4 8.7 C 41.4 11.2 40 12.7 38 12.7 C 37 12.7 36.1 12.3 35.5 11.4 C 35.46 11.44 35.5 15.5 35.5 15.5 L 34 15.5 Z M 37.6 6 C 36.7 6 35.8 6.5 35.5 7.1 C 35.5 7.1 35.5 10.3 35.5 10.3 C 35.8 10.9 36.7 11.5 37.6 11.5 C 39 11.5 39.9 10.3 39.9 8.7 C 39.9 7.1 39 6 37.6 6 Z M 47.9 11.7 C 47.3 12.4 46.5 12.7 45.4 12.7 C 44.2 12.7 42.8 11.9 42.8 10.2 C 42.8 8.4 44.1 7.7 45.4 7.7 C 46.5 7.7 47.3 8 47.9 8.7 C 47.9 8.7 47.9 7.4 47.9 7.4 C 47.9 6.5 47.2 5.9 46.1 5.9 C 45.2 5.9 44.4 6.2 43.8 6.9 C 43.8 6.9 43.1 5.9 43.1 5.9 C 44 5.1 45 4.7 46.3 4.7 C 47.9 4.7 49.4 5.4 49.4 7.4 C 49.36 7.37 49.4 12.5 49.4 12.5 L 47.9 12.5 C 47.9 12.5 47.93 11.71 47.9 11.7 Z M 47.9 9.6 C 47.5 9 46.8 8.7 46 8.7 C 44.9 8.7 44.2 9.3 44.2 10.2 C 44.2 11.1 44.9 11.7 46 11.7 C 46.8 11.7 47.5 11.4 47.9 10.9 C 47.9 10.9 47.9 9.6 47.9 9.6 Z M 56.8 7.6 C 56.8 6.4 56.2 6 55.2 6 C 54.3 6 53.5 6.5 53.1 7.1 C 53.08 7.07 53.1 12.5 53.1 12.5 L 51.6 12.5 L 51.6 4.9 L 53.1 4.9 C 53.1 4.9 53.08 5.95 53.1 6 C 53.6 5.3 54.6 4.7 55.8 4.7 C 57.4 4.7 58.3 5.5 58.3 7.2 C 58.25 7.16 58.3 12.5 58.3 12.5 L 56.8 12.5 C 56.8 12.5 56.83 7.64 56.8 7.6 Z M 61 14.4 C 61.5 14.4 61.9 14.2 62.1 13.6 C 62.12 13.64 62.6 12.6 62.6 12.6 L 59.4 4.9 L 60.9 4.9 L 63.3 10.9 L 65.7 4.9 L 67.3 4.9 C 67.3 4.9 63.48 14.01 63.5 14 C 63 15.2 62.1 15.6 61 15.7 C 60.8 15.7 60.4 15.6 60.1 15.5 C 60.1 15.5 60.4 14.3 60.4 14.3 C 60.5 14.3 60.8 14.4 61 14.4 Z M 74.1 4.4 L 74.1 12.5 L 72.6 12.5 L 72.6 2 L 74.2 2 L 80 9.9 L 80 2 L 81.5 2 L 81.5 12.5 L 80 12.5 L 74.1 4.4 Z M 88.6 11.7 C 88 12.4 87.1 12.7 86.1 12.7 C 84.8 12.7 83.4 11.9 83.4 10.2 C 83.4 8.4 84.8 7.7 86.1 7.7 C 87.1 7.7 88 8 88.6 8.7 C 88.6 8.7 88.6 7.4 88.6 7.4 C 88.6 6.5 87.8 5.9 86.7 5.9 C 85.8 5.9 85.1 6.2 84.4 6.9 C 84.4 6.9 83.8 5.9 83.8 5.9 C 84.7 5.1 85.7 4.7 86.9 4.7 C 88.6 4.7 90 5.4 90 7.4 C 90.02 7.37 90 12.5 90 12.5 L 88.6 12.5 C 88.6 12.5 88.59 11.71 88.6 11.7 Z M 88.6 9.6 C 88.2 9 87.4 8.7 86.6 8.7 C 85.6 8.7 84.9 9.3 84.9 10.2 C 84.9 11.1 85.6 11.7 86.6 11.7 C 87.4 11.7 88.2 11.4 88.6 10.9 C 88.6 10.9 88.6 9.6 88.6 9.6 Z M 101.6 7.4 C 101.6 6.5 101.2 6 100.3 6 C 99.5 6 98.8 6.5 98.4 7.1 C 98.39 7.05 98.4 12.5 98.4 12.5 L 97 12.5 C 97 12.5 96.96 7.43 97 7.4 C 97 6.5 96.6 6 95.6 6 C 94.9 6 94.1 6.5 93.7 7.1 C 93.74 7.07 93.7 12.5 93.7 12.5 L 92.3 12.5 L 92.3 4.9 L 93.7 4.9 C 93.7 4.9 93.74 5.95 93.7 6 C 94.1 5.5 95.1 4.7 96.2 4.7 C 97.4 4.7 98.1 5.3 98.3 6.1 C 98.7 5.4 99.8 4.7 100.9 4.7 C 102.3 4.7 103.1 5.5 103.1 7 C 103.06 7 103.1 12.5 103.1 12.5 L 101.6 12.5 C 101.6 12.5 101.63 7.43 101.6 7.4 Z M 108.7 4.7 C 111 4.7 112.4 6.5 112.4 8.8 C 112.43 8.83 112.4 9.2 112.4 9.2 C 112.4 9.2 106.36 9.18 106.4 9.2 C 106.5 10.5 107.4 11.6 109 11.6 C 109.8 11.6 110.7 11.2 111.2 10.7 C 111.2 10.7 111.9 11.6 111.9 11.6 C 111.1 12.3 110.1 12.7 108.8 12.7 C 106.5 12.7 104.9 11.1 104.9 8.7 C 104.9 6.5 106.5 4.7 108.7 4.7 Z M 106.3 8.1 C 106.3 8.1 111 8.1 111 8.1 C 111 7.1 110.3 5.9 108.7 5.9 C 107.2 5.9 106.4 7.1 106.3 8.1 Z " stroke="none" fill="#000"/>
  </g>
</svg>