<?xml version="1.0" standalone="no"?>
<!DOCTYPE svg PUBLIC "-//W3C//DTD SVG 1.1//EN" "http://www.w3.org/Graphics/SVG/1.1/DTD/svg11.dtd">
<svg xmlns="http://www.w3.org/2000/svg" version="1.1" width="109.3px" height="27.9px" viewBox="0 -6 109.3 27.9" style="top:-6px">
  <desc>Zip</desc>
  <defs/>
  <g id="Polygon269052">
    <path d="M 0.7 11.2 L 6.4 3.4 L 0.7 3.4 L 0.7 2 L 8.5 2 L 8.5 3.3 L 2.8 11.2 L 8.6 11.2 L 8.6 12.5 L 0.7 12.5 L 0.7 11.2 Z M 10.2 2.7 C 10.2 2.2 10.7 1.8 11.2 1.8 C 11.7 1.8 12.1 2.2 12.1 2.7 C 12.1 3.2 11.7 3.6 11.2 3.6 C 10.7 3.6 10.2 3.2 10.2 2.7 Z M 10.5 4.9 L 11.9 4.9 L 11.9 12.5 L 10.5 12.5 L 10.5 4.9 Z M 14.2 15.5 L 14.2 4.9 L 15.6 4.9 C 15.6 4.9 15.6 5.97 15.6 6 C 16.2 5.2 17.1 4.7 18.1 4.7 C 20.1 4.7 21.5 6.2 21.5 8.7 C 21.5 11.2 20.1 12.7 18.1 12.7 C 17.1 12.7 16.2 12.3 15.6 11.4 C 15.6 11.44 15.6 15.5 15.6 15.5 L 14.2 15.5 Z M 17.7 6 C 16.9 6 16 6.5 15.6 7.1 C 15.6 7.1 15.6 10.3 15.6 10.3 C 16 10.9 16.9 11.5 17.7 11.5 C 19.2 11.5 20 10.3 20 8.7 C 20 7.1 19.2 6 17.7 6 Z " stroke="none" fill="#000"/>
  </g>
</svg>