<?xml version="1.0" standalone="no"?><!DOCTYPE svg PUBLIC "-//W3C//DTD SVG 1.1//EN" "http://www.w3.org/Graphics/SVG/1.1/DTD/svg11.dtd"><svg xmlns="http://www.w3.org/2000/svg" xmlns:xlink="http://www.w3.org/1999/xlink" version="1.1" width="104px" height="32.4px" viewBox="0 -7 104 32.4" style="top:-7px"><desc>Agent 1</desc><defs/><g id="Polygon43772"><path d="m5.4 12.8c.04 0 0 1.4 0 1.4H4.3v-1.4c-1.6-.1-2.9-.8-3.7-1.7l.9-1.2c.7.7 1.6 1.3 2.8 1.5V7.9C2.7 7.5 1 6.9 1 4.8c0-1.6 1.3-2.8 3.3-3V.4h1.1s.04 1.44 0 1.4c1.4.2 2.4.7 3.2 1.5l-.9 1.2c-.6-.7-1.4-1-2.3-1.2v3.1c1.7.5 3.5 1.1 3.5 3.2c0 1.6-1 3-3.5 3.2zM4.3 6.1V3.2c-1 .1-1.7.7-1.7 1.5c0 .8.7 1.2 1.7 1.4zm2.9 3.7c0-1-.8-1.3-1.8-1.6v3.2c1.4-.2 1.8-1 1.8-1.6z" stroke="none" fill="#282828"/><a xlink:href="DBF_NOI" xlink:show="new" xlink:title="&lt;&lt;NOI&gt;&gt;"><rect style="fill:transparent;" x="8" y="1" width="59" height="12"/></a></g><g id="Polygon43773"><path d="m9.4 6.8l7.1-3.4v1.1l-5.9 2.8l5.9 2.8v1.1L9.4 7.8v-1zm7.9 0l7-3.4v1.1l-5.9 2.8l5.9 2.8v1.1l-7-3.4v-1zm10.1-2.4v8.2h-1.6V2h1.7l5.8 8v-8h1.6v10.6h-1.6l-5.9-8.2zM42 1.8c3.2 0 5.4 2.3 5.4 5.5c0 3.2-2.2 5.5-5.4 5.5c-3.2 0-5.4-2.3-5.4-5.5c0-3.2 2.2-5.5 5.4-5.5zm0 1.4c-2.3 0-3.7 1.8-3.7 4.1c0 2.3 1.4 4.1 3.7 4.1c2.3 0 3.7-1.8 3.7-4.1c0-2.3-1.4-4.1-3.7-4.1zM49.2 2h1.6v10.6h-1.6V2zm3.1 8.1l5.9-2.8l-5.9-2.8V3.4l7 3.4v1l-7 3.4v-1.1zm7.8 0L66 7.3l-5.9-2.8V3.4l7.1 3.4v1l-7.1 3.4v-1.1z" stroke="none" fill="#282828"/></g></svg>