<?xml version="1.0" standalone="no"?><!DOCTYPE svg PUBLIC "-//W3C//DTD SVG 1.1//EN" "http://www.w3.org/Graphics/SVG/1.1/DTD/svg11.dtd"><svg xmlns="http://www.w3.org/2000/svg" xmlns:xlink="http://www.w3.org/1999/xlink" version="1.1" width="303px" height="102.9px" viewBox="0 -6 303 102.9" style="top:-6px"><desc>Raising Cane s Growth Triples In just four years, Raising Cane s manages to triple in annual sales</desc><defs/><g id="Polygon97273"><path d="m1.4 58.4c.05-.04 0-5.5 0-5.5H.2v-.7h1.2v-2.1h.9v2.1h1.5v.7H2.3v5.3c0 .7.2 1.1.8 1.1c.3 0 .7-.2.8-.4l.4.7c-.3.2-.7.4-1.3.4c-1.1 0-1.6-.6-1.6-1.6zm4.1-6.2h.8s.02 1.29 0 1.3C7 52.6 7.8 52 8.9 52v.9h-.4c-.8 0-1.8.7-2.2 1.3c.02.05 0 5.6 0 5.6h-.8v-7.6zm4.6-2c0-.3.4-.6.7-.6c.3 0 .6.3.6.6c0 .4-.3.7-.6.7c-.3 0-.7-.3-.7-.7zm.3 2h.8v7.6h-.8v-7.6zm3.2 10.6V52.2h.8s.04 1.19 0 1.2c.6-.8 1.6-1.4 2.7-1.4c2.1 0 3.4 1.5 3.4 4c0 2.4-1.3 4-3.4 4c-1.1 0-2-.5-2.7-1.4c.04 0 0 4.2 0 4.2h-.8zM17 52.7c-1.1 0-2.1.7-2.6 1.4v3.8c.5.7 1.5 1.4 2.6 1.4c1.7 0 2.6-1.4 2.6-3.3c0-1.9-.9-3.3-2.6-3.3zm5.5-3.5h.8v10.6h-.8V49.2zM29 52c2.3 0 3.6 1.8 3.6 4c.02.04 0 .3 0 .3c0 0-6.4-.03-6.4 0c.1 1.6 1.2 3 3 3c1 0 1.8-.3 2.5-1l.4.5c-.7.8-1.7 1.2-3 1.2c-2.2 0-3.8-1.6-3.8-4c0-2.2 1.6-4 3.7-4zm-2.8 3.6h5.6c0-1.3-.9-2.9-2.8-2.9c-1.8 0-2.7 1.6-2.8 2.9zm12.1-5.4c0-.3.3-.6.7-.6c.3 0 .6.3.6.6c0 .4-.3.7-.6.7c-.4 0-.7-.3-.7-.7zm.2 2h.9v7.6h-.9v-7.6zm8.5 2.5c0-1.5-.8-2-1.9-2c-1 0-2 .7-2.5 1.3v5.8h-.8v-7.6h.8s.01 1.13 0 1.1c.6-.6 1.7-1.3 2.8-1.3c1.5 0 2.4.7 2.4 2.5v5.3h-.8s-.04-5.14 0-5.1zm12 4.2c-.6.8-1.5 1.1-2.6 1.1c-1.3 0-2.7-.9-2.7-2.5c0-1.7 1.4-2.5 2.7-2.5c1.1 0 2 .3 2.6 1v-1.5c0-1.2-.9-1.8-2-1.8c-1 0-1.7.3-2.4 1.1l-.5-.5c.8-.9 1.7-1.3 2.9-1.3c1.6 0 2.9.7 2.9 2.4c-.04.04 0 5.4 0 5.4h-.9s.03-.86 0-.9zm0-2.3c-.5-.7-1.4-1-2.3-1c-1.3 0-2.1.8-2.1 1.9c0 1.1.8 1.9 2.1 1.9c.9 0 1.8-.4 2.3-1.1v-1.7zm8.5-1.9c0-1.5-.8-2-1.9-2c-1 0-2 .7-2.5 1.3v5.8h-.8v-7.6h.8v1.1c.6-.6 1.7-1.3 2.8-1.3c1.5 0 2.4.7 2.4 2.5c-.02-.03 0 5.3 0 5.3h-.8s-.05-5.14 0-5.1zm8.4 0c0-1.5-.8-2-1.9-2c-1 0-2 .7-2.5 1.3c.02.04 0 5.8 0 5.8h-.8v-7.6h.8s.02 1.13 0 1.1c.6-.6 1.7-1.3 2.8-1.3c1.5 0 2.4.7 2.4 2.5v5.3h-.8s-.03-5.14 0-5.1zm8.4 4c-.6.7-1.7 1.3-2.8 1.3c-1.6 0-2.4-.7-2.4-2.4v-5.4h.8s.03 5.18 0 5.2c0 1.5.8 1.9 1.9 1.9c1 0 2-.6 2.5-1.3v-5.8h.8v7.6h-.8s-.01-1.09 0-1.1zm8.1.2c-.7.8-1.5 1.1-2.6 1.1c-1.3 0-2.7-.9-2.7-2.5c0-1.7 1.4-2.5 2.7-2.5c1.1 0 1.9.3 2.6 1v-1.5c0-1.2-.9-1.8-2.1-1.8c-.9 0-1.7.3-2.4 1.1l-.4-.5c.8-.9 1.7-1.3 2.9-1.3c1.6 0 2.8.7 2.8 2.4c.03.04 0 5.4 0 5.4h-.8v-.9zm0-2.3c-.5-.7-1.4-1-2.3-1c-1.3 0-2.1.8-2.1 1.9c0 1.1.8 1.9 2.1 1.9c.9 0 1.8-.4 2.3-1.1v-1.7zm3.2-7.4h.9v10.6h-.9V49.2zm7.1 9c.5.6 1.3 1.1 2.4 1.1c1.3 0 2.1-.6 2.1-1.5c0-1-1.1-1.3-2.2-1.5c-1.2-.4-2.7-.7-2.7-2.2c0-1.2 1-2.1 2.8-2.1c1.3 0 2.2.5 2.7 1.1l-.4.6c-.5-.6-1.3-1-2.3-1c-1.2 0-1.9.6-1.9 1.4c0 .8.9 1.1 2 1.3c1.3.4 2.8.7 2.8 2.4c0 1.2-1 2.2-2.9 2.2c-1.2 0-2.2-.3-2.9-1.2l.5-.6zm12.1.7c-.6.8-1.5 1.1-2.6 1.1c-1.3 0-2.6-.9-2.6-2.5c0-1.7 1.3-2.5 2.6-2.5c1.1 0 2 .3 2.6 1v-1.5c0-1.2-.9-1.8-2-1.8c-1 0-1.7.3-2.4 1.1l-.5-.5c.8-.9 1.7-1.3 3-1.3c1.5 0 2.8.7 2.8 2.4c-.03.04 0 5.4 0 5.4h-.9s.04-.86 0-.9zm0-2.3c-.5-.7-1.4-1-2.3-1c-1.2 0-2.1.8-2.1 1.9c0 1.1.9 1.9 2.1 1.9c.9 0 1.8-.4 2.3-1.1v-1.7zm3.3-7.4h.8v10.6h-.8V49.2zm6.5 2.8c2.3 0 3.6 1.8 3.6 4v.3s-6.42-.03-6.4 0c.1 1.6 1.2 3 3 3c1 0 1.8-.3 2.5-1l.4.5c-.7.8-1.7 1.2-3 1.2c-2.2 0-3.8-1.6-3.8-4c0-2.2 1.5-4 3.7-4zm-2.8 3.6h5.6c-.1-1.3-.9-2.9-2.8-2.9c-1.8 0-2.8 1.6-2.8 2.9zm8.2 2.6c.5.6 1.4 1.1 2.5 1.1c1.3 0 2-.6 2-1.5c0-1-1-1.3-2.1-1.5c-1.3-.4-2.7-.7-2.7-2.2c0-1.2 1-2.1 2.7-2.1c1.3 0 2.2.5 2.8 1.1l-.5.6c-.4-.6-1.3-1-2.3-1c-1.2 0-1.9.6-1.9 1.4c0 .8 1 1.1 2 1.3c1.4.4 2.8.7 2.8 2.4c0 1.2-.9 2.2-2.8 2.2c-1.3 0-2.2-.3-3-1.2l.5-.6zm7.7.4c.4 0 .8.3.8.7c0 .4-.4.7-.8.7c-.3 0-.7-.3-.7-.7c0-.4.4-.7.7-.7z" stroke="none" fill="#000"/><a xlink:href="https://www.forbes.com/sites/aliciakelso/2020/03/13/raising-canes-is-now-offering-industry-leading-compensation-including-the-chance-to-make-1m/?sh=da055585858d" xlink:show="new" xlink:title="Read More &gt;"><rect style="fill:transparent;" x="-1" y="67" width="85" height="12"/></a></g><g id="Polygon97272"><path d="m1.3 30.2h.9v10.6h-.9V30.2zm8.5 5.4c0-1.5-.7-1.9-1.8-1.9c-1 0-2 .6-2.5 1.3v5.8h-.8v-7.7h.8v1.2c.6-.7 1.6-1.4 2.8-1.4c1.5 0 2.4.8 2.4 2.5c-.03.01 0 5.4 0 5.4h-.9s.05-5.2 0-5.2zm7.8-4.4c0-.4.3-.7.6-.7c.4 0 .7.3.7.7c0 .3-.3.6-.7.6c-.3 0-.6-.3-.6-.6zm1.1 10.6c0 1.4-.8 2.1-2.1 2.1c-.3 0-.6-.1-.9-.1l.2-.8c.2.1.4.2.7.2c.7 0 1.2-.4 1.2-1.4c.03-.03 0-8.7 0-8.7h.9s-.05 8.67 0 8.7zm7.5-2.1c-.6.7-1.6 1.3-2.7 1.3c-1.6 0-2.4-.8-2.4-2.5c-.03.01 0-5.4 0-5.4h.8v5.2c0 1.5.7 1.9 1.9 1.9c.9 0 1.9-.6 2.4-1.2c.05-.04 0-5.9 0-5.9h.9v7.7h-.9s.05-1.14 0-1.1zm3.1-.6c.5.7 1.4 1.2 2.5 1.2c1.3 0 2-.7 2-1.6c0-.9-1-1.2-2.1-1.5c-1.3-.3-2.7-.7-2.7-2.2c0-1.1 1-2.1 2.7-2.1c1.3 0 2.2.5 2.8 1.2l-.5.5c-.4-.6-1.3-1-2.3-1c-1.2 0-1.9.6-1.9 1.4c0 .9 1 1.1 2.1 1.4c1.3.3 2.7.7 2.7 2.3c0 1.3-.9 2.3-2.8 2.3c-1.3 0-2.2-.4-3-1.2l.5-.7zm7.5.2c-.03.01 0-5.4 0-5.4h-1.3v-.8h1.3V31h.8v2.1h1.6v.8h-1.6v5.3c0 .6.3 1 .8 1c.4 0 .7-.1.9-.3l.3.6c-.3.3-.7.5-1.3.5c-1 0-1.5-.6-1.5-1.7zm9-5.5h-1.2v-.7h1.2s.03-.69 0-.7c0-1.5.8-2.4 2.1-2.4c.4 0 .7.1 1 .3l-.2.6c-.2-.1-.4-.2-.7-.2c-.9 0-1.3.6-1.3 1.7c-.04.01 0 .7 0 .7h1.5v.7h-1.5v7h-.9v-7zm3.4 3.1c0-2.2 1.4-4 3.7-4c2.2 0 3.7 1.8 3.7 4c0 2.3-1.5 4.1-3.7 4.1c-2.3 0-3.7-1.8-3.7-4.1zm6.5 0c0-1.7-1-3.2-2.8-3.2c-1.8 0-2.8 1.5-2.8 3.2c0 1.8 1 3.3 2.8 3.3c1.8 0 2.8-1.5 2.8-3.3zm8 2.8c-.6.7-1.7 1.3-2.8 1.3c-1.5 0-2.4-.8-2.4-2.5c.02.01 0-5.4 0-5.4h.8s.05 5.22 0 5.2c0 1.5.8 1.9 1.9 1.9c1 0 2-.6 2.5-1.2v-5.9h.8v7.7h-.8v-1.1zm3.2-6.6h.9s-.03 1.33 0 1.3c.6-.8 1.5-1.4 2.6-1.4v.9c-.2-.1-.3-.1-.5-.1c-.7 0-1.8.7-2.1 1.4c-.03-.01 0 5.6 0 5.6h-.9v-7.7zm9.9 10c.6 0 .9-.2 1.2-.9c.02.01.6-1.4.6-1.4l-3.2-7.7h.9l2.8 6.7l2.8-6.7h.9s-3.97 9.37-4 9.4c-.4.9-1 1.4-1.9 1.4c-.3 0-.6-.1-.9-.1l.2-.8c.2.1.5.1.6.1zm10.5-10.2c2.3 0 3.6 1.9 3.6 4.1v.2h-6.4c.1 1.7 1.2 3.1 3 3.1c1 0 1.8-.4 2.5-1.1l.4.5c-.7.8-1.7 1.3-3 1.3c-2.2 0-3.8-1.7-3.8-4.1c0-2.2 1.6-4 3.7-4zm-2.8 3.7h5.6c0-1.3-.9-3-2.8-3c-1.8 0-2.7 1.6-2.8 3zm13.3 3.3c-.7.7-1.6 1.1-2.6 1.1c-1.4 0-2.7-.9-2.7-2.6c0-1.7 1.3-2.5 2.7-2.5c1 0 1.9.3 2.6 1.1v-1.6c0-1.1-1-1.7-2.1-1.7c-1 0-1.7.3-2.4 1.1l-.5-.6c.8-.9 1.7-1.3 3-1.3c1.5 0 2.8.8 2.8 2.5c-.02-.02 0 5.4 0 5.4h-.8s-.04-.92 0-.9zm0-2.3c-.6-.7-1.4-1.1-2.4-1.1c-1.2 0-2.1.9-2.1 1.9c0 1.1.9 1.9 2.1 1.9c1 0 1.8-.3 2.4-1v-1.7zm3.2-4.5h.8s.02 1.33 0 1.3c.7-.8 1.5-1.4 2.6-1.4v.9c-.1-.1-.2-.1-.4-.1c-.8 0-1.8.7-2.2 1.4c.02-.01 0 5.6 0 5.6h-.8v-7.7zm4.7 6c.5.7 1.4 1.2 2.5 1.2c1.3 0 2-.7 2-1.6c0-.9-1-1.2-2.1-1.5c-1.3-.3-2.7-.7-2.7-2.2c0-1.1 1-2.1 2.7-2.1c1.3 0 2.2.5 2.8 1.2l-.5.5c-.4-.6-1.3-1-2.3-1c-1.2 0-1.9.6-1.9 1.4c0 .9 1 1.1 2 1.4c1.4.3 2.8.7 2.8 2.3c0 1.3-.9 2.3-2.8 2.3c-1.3 0-2.2-.4-3-1.2l.5-.7zm6.9 3.2c.5-.3.9-.9 1-1.4h-.2c-.4 0-.6-.3-.6-.7c0-.3.3-.7.6-.7c.5 0 .8.4.8 1.1c0 .8-.5 1.7-1.1 2.1l-.5-.4zm11.7-5.9H122v4.4h-.9V30.2h4c1.8 0 3.2 1.1 3.2 3.1c0 1.9-1.4 3-3 3c.04.03 3.1 4.5 3.1 4.5h-1.1l-3-4.4zm.7-5.4h-3v4.6s2.97-.03 3 0c1.4 0 2.3-1 2.3-2.3c0-1.3-.9-2.3-2.3-2.3zm9.9 8.9c-.7.7-1.5 1.1-2.6 1.1c-1.3 0-2.7-.9-2.7-2.6c0-1.7 1.4-2.5 2.7-2.5c1.1 0 1.9.3 2.6 1.1v-1.6c0-1.1-.9-1.7-2.1-1.7c-.9 0-1.7.3-2.4 1.1l-.4-.6c.8-.9 1.7-1.3 2.9-1.3c1.6 0 2.8.8 2.8 2.5c.02-.02 0 5.4 0 5.4h-.8v-.9zm0-2.3c-.5-.7-1.4-1.1-2.3-1.1c-1.3 0-2.1.9-2.1 1.9c0 1.1.8 1.9 2.1 1.9c.9 0 1.8-.3 2.3-1v-1.7zm3-6.4c0-.4.3-.7.7-.7c.3 0 .6.3.6.7c0 .3-.3.6-.6.6c-.4 0-.7-.3-.7-.6zm.2 1.9h.9v7.7h-.9v-7.7zm3.1 6c.5.7 1.4 1.2 2.5 1.2c1.3 0 2-.7 2-1.6c0-.9-1-1.2-2.1-1.5c-1.3-.3-2.7-.7-2.7-2.2c0-1.1 1-2.1 2.7-2.1c1.3 0 2.2.5 2.8 1.2l-.5.5c-.4-.6-1.3-1-2.3-1c-1.2 0-1.9.6-1.9 1.4c0 .9 1 1.1 2 1.4c1.4.3 2.8.7 2.8 2.3c0 1.3-.9 2.3-2.8 2.3c-1.3 0-2.2-.4-3-1.2l.5-.7zm7.1-7.9c0-.4.3-.7.6-.7c.4 0 .7.3.7.7c0 .3-.3.6-.7.6c-.3 0-.6-.3-.6-.6zm.2 1.9h.8v7.7h-.8v-7.7zm8.4 2.5c0-1.5-.7-1.9-1.8-1.9c-1 0-2 .6-2.5 1.3c-.03-.02 0 5.8 0 5.8h-.8v-7.7h.8s-.03 1.17 0 1.2c.5-.7 1.6-1.4 2.7-1.4c1.6 0 2.5.8 2.5 2.5c-.05.01 0 5.4 0 5.4h-.9s.03-5.2 0-5.2zm3.8 6.5c.6.8 1.4 1.1 2.5 1.1c1.4 0 2.6-.7 2.6-2.5v-1.2c-.5.8-1.5 1.4-2.6 1.4c-2.1 0-3.5-1.5-3.5-4c0-2.4 1.4-4 3.5-4c1 0 2 .6 2.6 1.4c.02.05 0-1.2 0-1.2h.9s-.04 7.6 0 7.6c0 2.4-1.6 3.2-3.5 3.2c-1.3 0-2.1-.2-3-1.2l.5-.6zm5.1-7c-.4-.8-1.4-1.4-2.5-1.4c-1.7 0-2.7 1.4-2.7 3.2c0 1.9 1 3.3 2.7 3.3c1.1 0 2.1-.7 2.5-1.4v-3.7zm7.6.4c0-3.3 2.4-5.5 5.4-5.5c1.7 0 3 .8 3.9 1.9l-.8.5c-.7-.9-1.8-1.6-3.1-1.6c-2.5 0-4.4 1.9-4.4 4.7c0 2.7 1.9 4.6 4.4 4.6c1.3 0 2.4-.6 3.1-1.5l.8.5c-1 1.1-2.2 1.9-3.9 1.9c-3 0-5.4-2.2-5.4-5.5zm15.8 4.4c-.7.7-1.5 1.1-2.6 1.1c-1.3 0-2.7-.9-2.7-2.6c0-1.7 1.4-2.5 2.7-2.5c1.1 0 1.9.3 2.6 1.1v-1.6c0-1.1-.9-1.7-2.1-1.7c-.9 0-1.7.3-2.4 1.1l-.4-.6c.8-.9 1.7-1.3 2.9-1.3c1.6 0 2.8.8 2.8 2.5c.02-.02 0 5.4 0 5.4h-.8s-.01-.92 0-.9zm0-2.3c-.5-.7-1.4-1.1-2.3-1.1c-1.3 0-2.1.9-2.1 1.9c0 1.1.8 1.9 2.1 1.9c.9 0 1.8-.3 2.3-1v-1.7zm8.4-2c0-1.5-.7-1.9-1.8-1.9c-1 0-2.1.6-2.5 1.3c-.04-.02 0 5.8 0 5.8h-.9v-7.7h.9s-.04 1.17 0 1.2c.5-.7 1.6-1.4 2.7-1.4c1.6 0 2.4.8 2.4 2.5c.03.01 0 5.4 0 5.4h-.8v-5.2zm6.5-2.7c2.3 0 3.6 1.9 3.6 4.1c.02-.01 0 .2 0 .2h-6.4c.1 1.7 1.2 3.1 3 3.1c1 0 1.9-.4 2.5-1.1l.4.5c-.7.8-1.7 1.3-3 1.3c-2.2 0-3.8-1.7-3.8-4.1c0-2.2 1.6-4 3.7-4zm-2.8 3.7h5.6c0-1.3-.9-3-2.8-3c-1.8 0-2.7 1.6-2.8 3zm9.6-5.6c0 .9-.5 1.8-1.1 2.2l-.5-.4c.5-.3.9-.9.9-1.5c0 .1-.1.1-.1.1c-.4 0-.7-.3-.7-.7c0-.4.3-.7.7-.7c.4 0 .8.4.8 1zm1.4 8.1c.5.7 1.4 1.2 2.5 1.2c1.3 0 2.1-.7 2.1-1.6c0-.9-1.1-1.2-2.2-1.5c-1.3-.3-2.7-.7-2.7-2.2c0-1.1 1-2.1 2.7-2.1c1.4 0 2.2.5 2.8 1.2l-.5.5c-.4-.6-1.2-1-2.3-1c-1.1 0-1.9.6-1.9 1.4c0 .9 1 1.1 2.1 1.4c1.3.3 2.8.7 2.8 2.3c0 1.3-1 2.3-2.9 2.3c-1.2 0-2.2-.4-3-1.2l.5-.7zm21.2-3.7c0-1.1-.5-1.7-1.5-1.7c-.9 0-1.8.6-2.2 1.3c-.02-.03 0 5.8 0 5.8h-.9s.04-5.39 0-5.4c0-1.1-.4-1.7-1.5-1.7c-.8 0-1.7.6-2.2 1.3v5.8h-.8v-7.7h.8v1.2c.3-.5 1.4-1.4 2.5-1.4c1.2 0 1.8.7 2 1.5c.4-.7 1.5-1.5 2.5-1.5c1.5 0 2.1.8 2.1 2.4c.03-.05 0 5.5 0 5.5h-.8v-5.4zm8.1 4.5c-.7.7-1.5 1.1-2.6 1.1c-1.3 0-2.7-.9-2.7-2.6c0-1.7 1.4-2.5 2.7-2.5c1.1 0 1.9.3 2.6 1.1v-1.6c0-1.1-.9-1.7-2-1.7c-1 0-1.7.3-2.4 1.1l-.5-.6c.8-.9 1.7-1.3 2.9-1.3c1.6 0 2.8.8 2.8 2.5c.05-.02 0 5.4 0 5.4h-.8s.03-.92 0-.9zm0-2.3c-.5-.7-1.4-1.1-2.3-1.1c-1.3 0-2.1.9-2.1 1.9c0 1.1.8 1.9 2.1 1.9c.9 0 1.8-.3 2.3-1v-1.7zm8.4-2c0-1.5-.7-1.9-1.8-1.9c-1 0-2 .6-2.5 1.3v5.8h-.8v-7.7h.8v1.2c.5-.7 1.6-1.4 2.8-1.4c1.5 0 2.4.8 2.4 2.5c-.03.01 0 5.4 0 5.4h-.9s.04-5.2 0-5.2zm8.2 4.3c-.7.7-1.6 1.1-2.6 1.1c-1.4 0-2.7-.9-2.7-2.6c0-1.7 1.3-2.5 2.7-2.5c1 0 1.9.3 2.6 1.1v-1.6c0-1.1-1-1.7-2.1-1.7c-1 0-1.7.3-2.4 1.1l-.5-.6c.8-.9 1.7-1.3 3-1.3c1.5 0 2.8.8 2.8 2.5c-.02-.02 0 5.4 0 5.4h-.8s-.04-.92 0-.9zm0-2.3c-.6-.7-1.4-1.1-2.4-1.1c-1.2 0-2.1.9-2.1 1.9c0 1.1.9 1.9 2.1 1.9c1 0 1.8-.3 2.4-1v-1.7zm3.7 4.5c.6.8 1.4 1.1 2.5 1.1c1.4 0 2.7-.7 2.7-2.5v-1.2c-.6.8-1.6 1.4-2.7 1.4c-2.1 0-3.4-1.5-3.4-4c0-2.4 1.3-4 3.4-4c1.1 0 2 .6 2.7 1.4c-.05.05 0-1.2 0-1.2h.8v7.6c0 2.4-1.6 3.2-3.5 3.2c-1.3 0-2.1-.2-3-1.2l.5-.6zm5.2-7c-.5-.8-1.5-1.4-2.6-1.4c-1.7 0-2.7 1.4-2.7 3.2c0 1.9 1 3.3 2.7 3.3c1.1 0 2.1-.7 2.6-1.4v-3.7zm6.4-2.2c2.4 0 3.7 1.9 3.7 4.1c-.03-.01 0 .2 0 .2h-6.4c0 1.7 1.1 3.1 2.9 3.1c1 0 1.9-.4 2.6-1.1l.4.5c-.8.8-1.7 1.3-3 1.3c-2.2 0-3.9-1.7-3.9-4.1c0-2.2 1.6-4 3.7-4zm-2.7 3.7h5.5c0-1.3-.8-3-2.8-3c-1.8 0-2.7 1.6-2.7 3zm8.2 2.5c.5.7 1.3 1.2 2.4 1.2c1.3 0 2.1-.7 2.1-1.6c0-.9-1.1-1.2-2.2-1.5c-1.2-.3-2.7-.7-2.7-2.2c0-1.1 1-2.1 2.8-2.1c1.3 0 2.2.5 2.7 1.2l-.4.5c-.5-.6-1.3-1-2.3-1c-1.2 0-1.9.6-1.9 1.4c0 .9.9 1.1 2 1.4c1.3.3 2.8.7 2.8 2.3c0 1.3-1 2.3-2.9 2.3c-1.2 0-2.2-.4-2.9-1.2l.5-.7zm12.2.2c-.03.01 0-5.4 0-5.4h-1.3v-.8h1.3V31h.8v2.1h1.6v.8H292v5.3c0 .6.3 1 .8 1c.4 0 .7-.1.9-.3l.3.6c-.3.3-.7.5-1.3.5c-1 0-1.5-.6-1.5-1.7zm3.6-2.4c0-2.2 1.4-4 3.7-4c2.2 0 3.7 1.8 3.7 4c0 2.3-1.5 4.1-3.7 4.1c-2.3 0-3.7-1.8-3.7-4.1zm6.5 0c0-1.7-1-3.2-2.8-3.2c-1.8 0-2.8 1.5-2.8 3.2c0 1.8 1 3.3 2.8 3.3c1.8 0 2.8-1.5 2.8-3.3z" stroke="none" fill="#000"/></g><g id="Polygon97271"><path d="m4.7 8.5H2.8v4H1.2V2s4.44-.05 4.4 0C7.7 2 9 3.3 9 5.2c0 1.9-1.2 2.9-2.6 3.1l2.7 4.2H7.3l-2.6-4zm.7-5.1c.03-.05-2.6 0-2.6 0v3.7s2.63-.03 2.6 0c1.2 0 2-.8 2-1.9c0-1.1-.8-1.8-2-1.8zm9.8 8.3c-.6.7-1.5 1-2.5 1c-1.3 0-2.7-.8-2.7-2.5c0-1.8 1.4-2.5 2.7-2.5c1 0 1.9.3 2.5 1V7.4c0-.9-.8-1.5-1.9-1.5c-.8 0-1.6.3-2.3 1l-.6-1c.9-.8 1.9-1.2 3.2-1.2c1.6 0 3 .7 3 2.7c.04-.03 0 5.1 0 5.1h-1.4s.02-.79 0-.8zm0-2.1c-.4-.6-1.2-.9-2-.9c-1 0-1.7.6-1.7 1.5c0 .9.7 1.5 1.7 1.5c.8 0 1.6-.3 2-.8V9.6zm3.4-6.9c0-.5.4-.9.9-.9c.5 0 .9.4.9.9c0 .5-.4.9-.9.9c-.5 0-.9-.4-.9-.9zm.2 2.2h1.4v7.6h-1.4V4.9zm3.5 5.6c.6.6 1.6 1.1 2.6 1.1c1.1 0 1.7-.4 1.7-1.1c0-.8-.9-1-1.9-1.2c-1.3-.3-2.8-.7-2.8-2.3c0-1.3 1-2.3 2.9-2.3c1.3 0 2.3.5 2.9 1.1l-.6 1c-.5-.6-1.3-1-2.3-1c-1 0-1.6.4-1.6 1c0 .7.9.9 1.8 1.2c1.3.3 2.9.6 2.9 2.4c0 1.3-1 2.3-3.1 2.3c-1.2 0-2.4-.4-3.2-1.2l.7-1zm7.1-7.8c0-.5.4-.9.9-.9c.5 0 .9.4.9.9c0 .5-.4.9-.9.9c-.5 0-.9-.4-.9-.9zm.2 2.2h1.4v7.6h-1.4V4.9zm8.7 2.7c0-1.2-.6-1.6-1.6-1.6c-.9 0-1.7.5-2.1 1.1c-.04-.03 0 5.4 0 5.4h-1.5V4.9h1.5s-.04 1.05 0 1.1c.5-.7 1.5-1.3 2.7-1.3c1.6 0 2.4.8 2.4 2.5c.04-.04 0 5.3 0 5.3h-1.4V7.6zm4.2 5.9c.6.7 1.4 1 2.4 1c1.2 0 2.4-.6 2.4-2.2v-1c-.6.8-1.5 1.3-2.5 1.3c-2 0-3.4-1.4-3.4-4c0-2.4 1.4-3.9 3.4-3.9c1 0 1.9.5 2.5 1.3c.01-.01 0-1.1 0-1.1h1.4s.04 7.34 0 7.3c0 2.7-1.9 3.5-3.8 3.5c-1.3 0-2.2-.3-3.1-1.2l.7-1zm4.8-6.4C46.9 6.5 46 6 45.2 6c-1.4 0-2.3 1.1-2.3 2.6c0 1.6.9 2.7 2.3 2.7c.8 0 1.7-.5 2.1-1.1V7.1zm7.1.2c0-3.3 2.4-5.5 5.4-5.5c2.1 0 3.4 1 4.2 2.2l-1.3.7c-.6-.9-1.6-1.5-2.9-1.5c-2.1 0-3.8 1.7-3.8 4.1c0 2.3 1.7 4 3.8 4c1.3 0 2.3-.6 2.9-1.5l1.3.7c-.8 1.2-2.1 2.2-4.2 2.2c-3 0-5.4-2.2-5.4-5.4zm15.8 4.4c-.7.7-1.5 1-2.6 1c-1.2 0-2.6-.8-2.6-2.5c0-1.8 1.4-2.5 2.6-2.5c1.1 0 2 .3 2.6 1V7.4c0-.9-.8-1.5-1.9-1.5c-.9 0-1.6.3-2.3 1l-.6-1c.8-.8 1.9-1.2 3.1-1.2c1.7 0 3.1.7 3.1 2.7c-.02-.03 0 5.1 0 5.1h-1.4s-.05-.79 0-.8zm0-2.1c-.5-.6-1.2-.9-2-.9c-1.1 0-1.8.6-1.8 1.5c0 .9.7 1.5 1.8 1.5c.8 0 1.5-.3 2-.8V9.6zm8.7-2c0-1.2-.7-1.6-1.6-1.6c-.9 0-1.7.5-2.2 1.1c.04-.03 0 5.4 0 5.4h-1.4V4.9h1.4s.04 1.05 0 1.1c.5-.7 1.6-1.3 2.8-1.3c1.6 0 2.4.8 2.4 2.5v5.3h-1.4V7.6zm6.9-2.9c2.3 0 3.7 1.8 3.7 4.1c.03.03 0 .4 0 .4c0 0-6.04-.02-6 0c.1 1.3 1 2.4 2.6 2.4c.8 0 1.7-.4 2.2-.9l.7.9c-.8.7-1.8 1.1-3.1 1.1c-2.3 0-3.9-1.6-3.9-4c0-2.2 1.6-4 3.8-4zm-2.4 3.4h4.7c0-1-.7-2.2-2.3-2.2c-1.5 0-2.3 1.2-2.4 2.2zm7.5-3c.5-.3 1-.9 1-1.5c0 .1-.1.1-.2.1c-.5 0-.9-.4-.9-.9c0-.6.5-1 1-1c.6 0 1.1.5 1.1 1.3c0 1.1-.6 2-1.4 2.6l-.6-.6zm3.3 5.4c.6.6 1.6 1.1 2.6 1.1c1.1 0 1.7-.4 1.7-1.1c0-.8-.9-1-1.9-1.2c-1.3-.3-2.8-.7-2.8-2.3c0-1.3 1-2.3 2.9-2.3c1.3 0 2.3.5 2.9 1.1l-.6 1c-.5-.6-1.3-1-2.3-1c-.9 0-1.6.4-1.6 1c0 .7.9.9 1.8 1.2c1.4.3 3 .6 3 2.4c0 1.3-1.1 2.3-3.1 2.3c-1.3 0-2.5-.4-3.2-1.2l.6-1zm16.3-8.7c2 0 3.3.9 4.2 2.1l-1.3.7c-.6-.8-1.6-1.4-2.9-1.4c-2.2 0-3.8 1.7-3.8 4.1c0 2.3 1.6 4 3.8 4c1.2 0 2.2-.5 2.7-1V8.4h-3.4V7h5v3.9c-1 1.1-2.5 1.9-4.3 1.9c-3 0-5.5-2.2-5.5-5.5c0-3.3 2.5-5.5 5.5-5.5zm6.1 3.1h1.5s-.03 1.15 0 1.2c.6-.8 1.5-1.4 2.5-1.4v1.4h-.5c-.7 0-1.7.5-2 1.1c-.03.01 0 5.3 0 5.3h-1.5V4.9zm4.8 3.8c0-2.2 1.5-4 3.8-4c2.4 0 3.9 1.8 3.9 4c0 2.2-1.5 4-3.9 4c-2.3 0-3.8-1.8-3.8-4zm6.2 0c0-1.4-.8-2.7-2.4-2.7c-1.5 0-2.3 1.3-2.3 2.7c0 1.5.8 2.8 2.3 2.8c1.6 0 2.4-1.3 2.4-2.8zm7.9-2l-1.9 5.8h-1.4l-2.4-7.6h1.5l1.7 5.8l1.9-5.8h1.3l1.9 5.8l1.7-5.8h1.5l-2.4 7.6h-1.5l-1.9-5.8zm7.2 4.1c.02.05 0-4.7 0-4.7h-1.3V4.9h1.3V2.8h1.4v2.1h1.6v1.2h-1.6s.05 4.43 0 4.4c0 .6.3 1 .8 1c.3 0 .6-.2.8-.3l.3 1c-.3.3-.7.5-1.5.5c-1.2 0-1.8-.6-1.8-1.9zm9.6-3.2c0-1.3-.6-1.6-1.6-1.6c-.9 0-1.7.5-2.1 1.1c-.04-.03 0 5.4 0 5.4h-1.5V2h1.5s-.04 3.95 0 4c.5-.7 1.5-1.3 2.7-1.3c1.6 0 2.4.8 2.4 2.4c.04.03 0 5.4 0 5.4h-1.4V7.6zm10.1-4.2h-3.3V2h8.2v1.4H164v9.1h-1.6V3.4zm5.1 1.5h1.4v1.2c.6-.8 1.5-1.4 2.5-1.4v1.4h-.5c-.7 0-1.7.5-2 1.1v5.3h-1.4V4.9zm5-2.2c0-.5.4-.9.9-.9c.5 0 .9.4.9.9c0 .5-.4.9-.9.9c-.5 0-.9-.4-.9-.9zm.2 2.2h1.4v7.6h-1.4V4.9zm3.5 10.6V4.9h1.5s-.04 1.07 0 1.1c.5-.8 1.4-1.3 2.5-1.3c2 0 3.4 1.5 3.4 4c0 2.5-1.4 4-3.4 4c-1 0-1.9-.4-2.5-1.3c-.04.04 0 4.1 0 4.1h-1.5zm3.6-9.5c-.9 0-1.8.5-2.1 1.1v3.2c.3.6 1.2 1.2 2.1 1.2c1.4 0 2.3-1.2 2.3-2.8c0-1.6-.9-2.7-2.3-2.7zm5.4-4h1.5v10.5h-1.5V2zm6.9 2.7c2.3 0 3.8 1.8 3.8 4.1c-.03.03 0 .4 0 .4c0 0-6.09-.02-6.1 0c.1 1.3 1.1 2.4 2.6 2.4c.8 0 1.7-.4 2.3-.9l.7.9c-.8.7-1.9 1.1-3.1 1.1c-2.3 0-4-1.6-4-4c0-2.2 1.6-4 3.8-4zm-2.3 3.4h4.7c-.1-1-.7-2.2-2.4-2.2c-1.5 0-2.2 1.2-2.3 2.2zm7.7 2.4c.6.6 1.6 1.1 2.6 1.1c1.1 0 1.7-.4 1.7-1.1c0-.8-.9-1-1.9-1.2c-1.3-.3-2.8-.7-2.8-2.3c0-1.3 1-2.3 2.9-2.3c1.3 0 2.3.5 2.9 1.1l-.6 1c-.5-.6-1.3-1-2.3-1c-1 0-1.6.4-1.6 1c0 .7.9.9 1.8 1.2c1.3.3 2.9.6 2.9 2.4c0 1.3-1 2.3-3.1 2.3c-1.3 0-2.4-.4-3.2-1.2l.7-1z" stroke="none" fill="#000"/></g><g id="Polygon97274"><path d="m3.2 74.5H.9v4.4h-.9V68.3h4c1.8 0 3.2 1.2 3.2 3.1c0 1.9-1.4 3-3 3.1c.04-.05 3.1 4.4 3.1 4.4H6.2l-3-4.4zm.7-5.4c-.03.03-3 0-3 0v4.6h3c1.4 0 2.3-1 2.3-2.3c0-1.3-.9-2.3-2.3-2.3zM12 71c2.4 0 3.6 1.9 3.6 4.1c.04 0 0 .2 0 .2c0 0-6.37.03-6.4 0c.1 1.7 1.2 3.1 3 3.1c1 0 1.9-.4 2.5-1.1l.5.6c-.8.7-1.8 1.2-3 1.2c-2.3 0-3.9-1.7-3.9-4c0-2.3 1.6-4.1 3.7-4.1zm-2.8 3.7h5.6c0-1.3-.9-2.9-2.8-2.9c-1.8 0-2.7 1.5-2.8 2.9zM22.5 78c-.7.7-1.6 1.1-2.6 1.1c-1.3 0-2.7-.9-2.7-2.6c0-1.6 1.3-2.5 2.7-2.5c1 0 1.9.3 2.6 1.1v-1.6c0-1.1-.9-1.7-2.1-1.7c-.9 0-1.7.3-2.4 1.1l-.4-.6c.8-.8 1.6-1.3 2.9-1.3c1.6 0 2.8.8 2.8 2.5v5.4h-.8s-.01-.9 0-.9zm0-2.3c-.6-.7-1.4-1.1-2.3-1.1c-1.3 0-2.1.9-2.1 1.9c0 1.1.8 1.9 2.1 1.9c.9 0 1.7-.3 2.3-1v-1.7zm8.9 2c-.6.8-1.5 1.4-2.7 1.4c-2 0-3.4-1.6-3.4-4c0-2.5 1.4-4.1 3.4-4.1c1.1 0 2.1.6 2.7 1.5c-.02-.03 0-4.2 0-4.2h.8v10.6h-.8s-.02-1.22 0-1.2zm0-4.5c-.5-.8-1.5-1.4-2.5-1.4c-1.7 0-2.7 1.4-2.7 3.3c0 1.8 1 3.2 2.7 3.2c1 0 2-.6 2.5-1.3v-3.8zm16.2-3.7l-3.8 9.4h-.4l-3.9-9.4v9.4h-.9V68.3h1.4l3.6 8.8l3.6-8.8h1.3v10.6h-.9v-9.4zm2.9 5.6c0-2.3 1.5-4.1 3.7-4.1c2.3 0 3.7 1.8 3.7 4.1c0 2.2-1.4 4-3.7 4c-2.2 0-3.7-1.8-3.7-4zm6.5 0c0-1.7-1-3.3-2.8-3.3c-1.8 0-2.8 1.6-2.8 3.3c0 1.7 1 3.2 2.8 3.2c1.8 0 2.8-1.5 2.8-3.2zm2.9-3.9h.8v1.3c.7-.8 1.5-1.4 2.6-1.4v.9c-.2 0-.3-.1-.4-.1c-.8 0-1.9.7-2.2 1.4v5.6h-.8v-7.7zM68 71c2.3 0 3.6 1.9 3.6 4.1c.03 0 0 .2 0 .2c0 0-6.39.03-6.4 0c.1 1.7 1.2 3.1 3 3.1c1 0 1.9-.4 2.5-1.1l.5.6c-.8.7-1.8 1.2-3.1 1.2c-2.2 0-3.8-1.7-3.8-4c0-2.3 1.6-4.1 3.7-4.1zm-2.8 3.7h5.6c0-1.3-.9-2.9-2.8-2.9c-1.8 0-2.7 1.5-2.8 2.9zm11.5 2l6.2-3.1l-6.2-3.1v-.8l7 3.6v.6l-7 3.6v-.8z" stroke="none" fill="#3797ef"/></g></svg>