<?xml version="1.0" standalone="no"?>
<!DOCTYPE svg PUBLIC "-//W3C//DTD SVG 1.1//EN" "http://www.w3.org/Graphics/SVG/1.1/DTD/svg11.dtd">
<svg xmlns="http://www.w3.org/2000/svg" version="1.1" width="85px" height="50.8px" viewBox="0 -11 85 50.8" style="top:-11px">
  <desc>Agent 1</desc>
  <defs/>
  <g id="Polygon236364">
    <path d="M 52 25.3 C 52.04 25.27 52 26.7 52 26.7 L 51.3 26.7 C 51.3 26.7 51.31 25.28 51.3 25.3 C 49.7 25.2 48.5 24.5 47.7 23.6 C 47.7 23.6 48.3 22.9 48.3 22.9 C 48.9 23.6 50 24.3 51.3 24.4 C 51.3 24.4 51.3 20 51.3 20 C 49.7 19.5 48.1 19 48.1 17.2 C 48.1 15.5 49.5 14.4 51.3 14.3 C 51.31 14.34 51.3 12.9 51.3 12.9 L 52 12.9 C 52 12.9 52.04 14.36 52 14.4 C 53.4 14.5 54.4 15 55.1 15.8 C 55.1 15.8 54.5 16.5 54.5 16.5 C 53.9 15.7 53 15.3 52 15.2 C 52 15.2 52 19.2 52 19.2 C 53.7 19.6 55.4 20.2 55.4 22.3 C 55.4 23.6 54.6 25.1 52 25.3 Z M 51.3 19 C 51.3 19 51.3 15.2 51.3 15.2 C 50 15.2 49 16 49 17.1 C 49 18.2 50.1 18.6 51.3 19 Z M 54.4 22.3 C 54.4 21 53.3 20.6 52 20.2 C 52 20.2 52 24.4 52 24.4 C 53.9 24.3 54.4 23.2 54.4 22.3 Z M 60.9 14.3 C 63.8 14.3 64.8 17.3 64.8 19.8 C 64.8 22.3 63.8 25.3 60.9 25.3 C 58.1 25.3 57 22.3 57 19.8 C 57 17.3 58.1 14.3 60.9 14.3 Z M 60.9 15.2 C 58.7 15.2 58 17.6 58 19.8 C 58 22 58.7 24.5 60.9 24.5 C 63.1 24.5 63.9 22 63.9 19.8 C 63.9 17.6 63.2 15.2 60.9 15.2 Z M 70.4 14.3 C 73.3 14.3 74.3 17.3 74.3 19.8 C 74.3 22.3 73.3 25.3 70.4 25.3 C 67.6 25.3 66.5 22.3 66.5 19.8 C 66.5 17.3 67.6 14.3 70.4 14.3 Z M 70.4 15.2 C 68.2 15.2 67.5 17.6 67.5 19.8 C 67.5 22 68.2 24.5 70.4 24.5 C 72.6 24.5 73.4 22 73.4 19.8 C 73.4 17.6 72.7 15.2 70.4 15.2 Z M 79.9 14.3 C 82.8 14.3 83.8 17.3 83.8 19.8 C 83.8 22.3 82.8 25.3 79.9 25.3 C 77.1 25.3 76 22.3 76 19.8 C 76 17.3 77.1 14.3 79.9 14.3 Z M 79.9 15.2 C 77.7 15.2 77 17.6 77 19.8 C 77 22 77.7 24.5 79.9 24.5 C 82.1 24.5 82.9 22 82.9 19.8 C 82.9 17.6 82.2 15.2 79.9 15.2 Z " stroke="none" fill="#242423"/>
  </g>
</svg>