<?xml version="1.0" standalone="no"?><!DOCTYPE svg PUBLIC "-//W3C//DTD SVG 1.1//EN" "http://www.w3.org/Graphics/SVG/1.1/DTD/svg11.dtd"><svg xmlns="http://www.w3.org/2000/svg" version="1.1" width="134.3px" height="15.9px" viewBox="0 -4 134.3 15.9" style="top:-4px"><desc>SC</desc><defs/><g id="Polygon87992"><path d="m123.8 5.9c.3.4 1 .9 1.8.9c1.3 0 1.6-.7 1.6-1.2c0-.9-.8-1.1-1.6-1.4c-1-.2-2-.5-2-1.6c0-1 .9-1.6 2-1.6c.9 0 1.5.3 2 .9l-.3.3c-.5-.5-1.1-.7-1.7-.7c-.9 0-1.5.4-1.5 1.1c0 .7.8.9 1.6 1.1c1 .3 2 .6 2 1.8c0 .8-.5 1.7-2.1 1.7c-1 0-1.7-.4-2.2-.9l.4-.4zm5-1.8c0-1.8 1.3-3.1 3-3.1c.9 0 1.7.4 2.2 1.1l-.4.2c-.4-.5-1.1-.8-1.8-.8c-1.4 0-2.5 1-2.5 2.6c0 1.6 1.1 2.7 2.5 2.7c.7 0 1.4-.4 1.8-.9l.4.2c-.5.7-1.3 1.1-2.2 1.1c-1.7 0-3-1.2-3-3.1z" stroke="none" fill="#000"/></g></svg>