<?xml version="1.0" standalone="no"?><!DOCTYPE svg PUBLIC "-//W3C//DTD SVG 1.1//EN" "http://www.w3.org/Graphics/SVG/1.1/DTD/svg11.dtd"><svg xmlns="http://www.w3.org/2000/svg" version="1.1" width="130px" height="67.9px" viewBox="0 -6 130 67.9" style="top:-6px"><desc>Tony</desc><defs/><g id="Polygon304812"><path d="m.4 53.3c0-1.9 1.4-3.1 3.1-3.1c1.2 0 1.9.6 2.4 1.3l-.8.4c-.3-.5-.9-.9-1.6-.9c-1.2 0-2.2.9-2.2 2.3c0 1.3 1 2.3 2.2 2.3c.7 0 1.3-.4 1.6-.9l.8.4c-.5.7-1.2 1.3-2.4 1.3c-1.7 0-3.1-1.3-3.1-3.1zm10 1.7H7.5L7 56.3h-1l2.4-6h1.1l2.4 6h-1l-.5-1.3zm-2.6-.8h2.4L9 51.1l-1.2 3.1zm9-.2h-1.1v2.3h-.9v-6s2.52-.02 2.5 0c1.2 0 1.9.7 1.9 1.8c0 1.1-.7 1.7-1.5 1.8c.05-.02 1.6 2.4 1.6 2.4h-1.1L16.8 54zm.4-2.9c0-.03-1.5 0-1.5 0v2.1s1.5-.02 1.5 0c.6 0 1.1-.4 1.1-1.1c0-.6-.5-1-1.1-1zm3.1-.8h4v.8h-3.1v1.7h3v.8h-3v1.9h3.1v.8h-4v-6zm7.3 0h.9v5.2h2.7v.8h-3.6v-6zm4.3.4c0-.3.3-.5.6-.5c.3 0 .5.2.5.5c0 .3-.2.5-.5.5c-.3 0-.6-.2-.6-.5zm.2 1.2h.8v4.4h-.8v-4.4zm3.9-.1c.8 0 1.3.4 1.6.8l-.5.5c-.3-.4-.6-.5-1-.5c-.9 0-1.5.6-1.5 1.5c0 .9.6 1.6 1.5 1.6c.4 0 .7-.2 1-.6l.5.5c-.3.5-.8.8-1.6.8c-1.3 0-2.2-1-2.2-2.3c0-1.3.9-2.3 2.2-2.3zm2.9 3.5c.3 0 .5.2.5.5c0 .3-.2.6-.5.6c-.3 0-.6-.3-.6-.6c0-.3.3-.5.6-.5zm5.9-5.1c1.7 0 2.4 1.6 2.4 3.1c0 1.5-.7 3.1-2.4 3.1c-1.6 0-2.3-1.6-2.3-3.1c0-1.5.7-3.1 2.3-3.1zm0 .8c-1 0-1.4 1.1-1.4 2.3c0 1.2.4 2.3 1.4 2.3c1.1 0 1.5-1.1 1.5-2.3c0-1.2-.4-2.3-1.5-2.3zm5.5-.8c1.6 0 2.3 1.6 2.3 3.1c0 1.5-.7 3.1-2.3 3.1c-1.7 0-2.4-1.6-2.4-3.1c0-1.5.7-3.1 2.4-3.1zm0 .8c-1.1 0-1.4 1.1-1.4 2.3c0 1.2.3 2.3 1.4 2.3c1 0 1.4-1.1 1.4-2.3c0-1.2-.4-2.3-1.4-2.3zm5.4-.8c1.7 0 2.4 1.6 2.4 3.1c0 1.5-.7 3.1-2.4 3.1c-1.6 0-2.3-1.6-2.3-3.1c0-1.5.7-3.1 2.3-3.1zm0 .8c-1 0-1.4 1.1-1.4 2.3c0 1.2.4 2.3 1.4 2.3c1.1 0 1.4-1.1 1.4-2.3c0-1.2-.3-2.3-1.4-2.3zm5.5-.8c1.6 0 2.3 1.6 2.3 3.1c0 1.5-.7 3.1-2.3 3.1c-1.7 0-2.4-1.6-2.4-3.1c0-1.5.7-3.1 2.4-3.1zm0 .8c-1.1 0-1.5 1.1-1.5 2.3c0 1.2.4 2.3 1.5 2.3c1 0 1.4-1.1 1.4-2.3c0-1.2-.4-2.3-1.4-2.3zm5.4-.8c1.7 0 2.3 1.6 2.3 3.1c0 1.5-.6 3.1-2.3 3.1c-1.7 0-2.4-1.6-2.4-3.1c0-1.5.7-3.1 2.4-3.1zm0 .8c-1.1 0-1.4 1.1-1.4 2.3c0 1.2.3 2.3 1.4 2.3c1.1 0 1.4-1.1 1.4-2.3c0-1.2-.3-2.3-1.4-2.3zm5.4-.8c1.7 0 2.4 1.6 2.4 3.1c0 1.5-.7 3.1-2.4 3.1c-1.6 0-2.3-1.6-2.3-3.1c0-1.5.7-3.1 2.3-3.1zm0 .8c-1 0-1.4 1.1-1.4 2.3c0 1.2.4 2.3 1.4 2.3c1.1 0 1.5-1.1 1.5-2.3c0-1.2-.4-2.3-1.5-2.3zm5.5-.8c1.6 0 2.3 1.6 2.3 3.1c0 1.5-.7 3.1-2.3 3.1c-1.7 0-2.4-1.6-2.4-3.1c0-1.5.7-3.1 2.4-3.1zm0 .8c-1.1 0-1.5 1.1-1.5 2.3c0 1.2.4 2.3 1.5 2.3c1 0 1.4-1.1 1.4-2.3c0-1.2-.4-2.3-1.4-2.3z" stroke="none" fill="#888888"/></g><g id="Polygon304811"><path d="m2.6 41c1.3 0 2.1 1 2.1 2.4c-.03-.02 0 .2 0 .2c0 0-3.47-.02-3.5 0c.1.7.6 1.3 1.5 1.3c.5 0 1-.2 1.3-.5l.4.5c-.5.5-1.1.7-1.8.7c-1.3 0-2.2-.9-2.2-2.3c0-1.3.9-2.3 2.2-2.3zm-1.4 2h2.7c0-.6-.4-1.3-1.3-1.3c-.9 0-1.3.7-1.4 1.3zm9.7-.4c0-.5-.2-.8-.8-.8c-.4 0-.8.3-1.1.6c.04-.03 0 3.1 0 3.1h-.8s.04-2.91 0-2.9c0-.5-.2-.8-.7-.8c-.5 0-.9.3-1.1.6v3.1h-.8v-4.4h.8v.7c.2-.3.8-.8 1.4-.8c.7 0 1.1.4 1.2.8c.2-.4.8-.8 1.5-.8c.8 0 1.2.5 1.2 1.3v3.2h-.8s-.02-2.91 0-2.9zm4.7 2.4c-.4.4-.9.6-1.5.6c-.7 0-1.5-.5-1.5-1.4c0-1 .8-1.5 1.5-1.5c.6 0 1.1.2 1.5.6v-.7c0-.6-.5-.9-1.1-.9c-.5 0-.9.2-1.3.6l-.3-.6c.4-.4 1-.7 1.7-.7c1 0 1.8.4 1.8 1.6c-.02-.05 0 2.9 0 2.9h-.8s-.03-.49 0-.5zm0-1.2c-.3-.3-.7-.5-1.1-.5c-.6 0-1 .3-1 .9c0 .5.4.8 1 .8c.4 0 .8-.1 1.1-.5v-.7zm1.9-3.9c0-.3.2-.5.5-.5c.3 0 .5.2.5.5c0 .3-.2.5-.5.5c-.3 0-.5-.2-.5-.5zm.1 1.2h.8v4.4h-.8v-4.4zm2-1.6h.8v6h-.8v-6zm5.2.2c1.7 0 2.9 1.3 2.9 2.9c0 1.4-.9 2.1-1.6 2.1c-.6 0-.8-.3-.9-.7c-.3.4-.8.7-1.4.7c-.8 0-1.4-.6-1.4-1.5c0-1.2 1.1-2.2 2.1-2.2c.6 0 1 .3 1.2.7c-.02-.03.1-.6.1-.6h.7s-.48 2.41-.5 2.4v.2c0 .3.2.5.4.5c.3 0 .9-.5.9-1.6c0-1.5-1-2.5-2.5-2.5c-1.7 0-3.2 1.5-3.2 3.2c0 1.4 1.1 2.5 2.6 2.5c.6 0 1.1-.2 1.6-.5l.2.2c-.6.4-1.2.6-1.9.6c-1.6 0-2.8-1.2-2.8-2.8c0-1.9 1.7-3.6 3.5-3.6zm.8 2.5c-.1-.3-.4-.6-.9-.6c-.9 0-1.5.8-1.5 1.6c0 .5.3.9.9.9c.6 0 1-.4 1.2-.7l.3-1.2zm2.8-2.3c0-.3.3-.5.6-.5c.2 0 .5.2.5.5c0 .3-.3.5-.5.5c-.3 0-.6-.2-.6-.5zm1 5.9c0 .9-.5 1.4-1.4 1.4h-.5l.1-.7c.1 0 .2.1.3.1c.4 0 .7-.2.7-.8c-.04.03 0-4.7 0-4.7h.8s-.03 4.73 0 4.7zm3.8-.8c-.3.4-.8.6-1.4.6c-.7 0-1.5-.5-1.5-1.4c0-1 .8-1.5 1.5-1.5c.6 0 1.1.2 1.4.6v-.7c0-.6-.4-.9-1-.9c-.5 0-.9.2-1.3.6l-.4-.6c.5-.4 1.1-.7 1.8-.7c1 0 1.8.4 1.8 1.6c-.05-.05 0 2.9 0 2.9h-.9s.05-.49 0-.5zm0-1.2c-.2-.3-.6-.5-1.1-.5c-.6 0-1 .3-1 .9c0 .5.4.8 1 .8c.5 0 .9-.1 1.1-.5v-.7zm7.3-1.2c0-.5-.2-.8-.7-.8c-.5 0-.9.3-1.1.6v3.1h-.8v-2.9c0-.5-.2-.8-.8-.8c-.4 0-.8.3-1 .6c-.03-.02 0 3.1 0 3.1h-.8v-4.4h.8s-.03.65 0 .7c.2-.3.7-.8 1.4-.8c.6 0 1 .4 1.2.8c.2-.4.8-.8 1.4-.8c.8 0 1.3.5 1.3 1.3c-.05.04 0 3.2 0 3.2h-.9s.04-2.91 0-2.9zm4-1.6c1.3 0 2.1 1 2.1 2.4c-.03-.02 0 .2 0 .2c0 0-3.46-.02-3.5 0c.1.7.6 1.3 1.5 1.3c.5 0 1-.2 1.3-.5l.4.5c-.5.5-1.1.7-1.8.7c-1.3 0-2.2-.9-2.2-2.3c0-1.3.9-2.3 2.2-2.3zm-1.4 2h2.7c0-.6-.4-1.3-1.3-1.3c-.9 0-1.3.7-1.4 1.3zm4.4 1.3c.3.3.9.6 1.5.6c.6 0 .9-.2.9-.6c0-.4-.5-.6-1-.7c-.8-.1-1.7-.3-1.7-1.3c0-.7.6-1.3 1.7-1.3c.8 0 1.3.3 1.7.7l-.4.5c-.3-.3-.7-.5-1.3-.5c-.5 0-.9.2-.9.6c0 .3.5.5 1 .6c.8.2 1.7.4 1.7 1.4c0 .7-.6 1.3-1.8 1.3c-.7 0-1.3-.2-1.8-.7l.4-.6zm6.1-3.3c.8 0 1.3.4 1.6.8l-.5.5c-.3-.4-.7-.5-1.1-.5c-.9 0-1.4.6-1.4 1.5c0 .9.5 1.6 1.4 1.6c.4 0 .8-.2 1.1-.6l.5.5c-.3.5-.8.8-1.6.8c-1.3 0-2.2-1-2.2-2.3c0-1.3.9-2.3 2.2-2.3zm5.1 4c-.4.4-.9.6-1.4.6c-.8 0-1.6-.5-1.6-1.4c0-1 .8-1.5 1.6-1.5c.5 0 1 .2 1.4.6v-.7c0-.6-.5-.9-1.1-.9c-.5 0-.9.2-1.3.6l-.3-.6c.4-.4 1-.7 1.7-.7c1 0 1.8.4 1.8 1.6v2.9h-.8s-.02-.49 0-.5zm0-1.2c-.3-.3-.7-.5-1.1-.5c-.6 0-1 .3-1 .9c0 .5.4.8 1 .8c.4 0 .8-.1 1.1-.5v-.7zm2 3.3v-6h.8v.7c.3-.5.8-.8 1.4-.8c1.2 0 2 .9 2 2.3c0 1.4-.8 2.3-2 2.3c-.5 0-1-.3-1.4-.7v2.2h-.8zm2-5.3c-.5 0-1 .2-1.2.6v1.8c.2.4.7.7 1.2.7c.8 0 1.3-.7 1.3-1.6c0-.9-.5-1.5-1.3-1.5zm3-1.9c0-.3.2-.5.5-.5c.3 0 .5.2.5.5c0 .3-.2.5-.5.5c-.3 0-.5-.2-.5-.5zm.1 1.2h.8v4.4h-.8v-4.4zm2.2 3.4c-.03.02 0-2.7 0-2.7h-.8v-.7h.8V40h.8v1.1h.9v.7h-.9s-.02 2.54 0 2.5c0 .3.1.6.4.6c.2 0 .4-.1.4-.2l.2.6c-.1.2-.4.3-.8.3c-.7 0-1-.4-1-1.1zm5.2.5c-.4.4-.9.6-1.5.6c-.7 0-1.5-.5-1.5-1.4c0-1 .8-1.5 1.5-1.5c.6 0 1.1.2 1.5.6v-.7c0-.6-.5-.9-1.1-.9c-.5 0-.9.2-1.3.6l-.4-.6c.5-.4 1.1-.7 1.8-.7c1 0 1.8.4 1.8 1.6c-.04-.05 0 2.9 0 2.9h-.8s-.05-.49 0-.5zm0-1.2c-.3-.3-.7-.5-1.2-.5c-.6 0-1 .3-1 .9c0 .5.4.8 1 .8c.5 0 .9-.1 1.2-.5v-.7zm2-4.3h.8v6h-.8v-6zm4.7 5.5c-.4.4-.9.6-1.5.6c-.7 0-1.5-.5-1.5-1.4c0-1 .8-1.5 1.5-1.5c.6 0 1.1.2 1.5.6v-.7c0-.6-.5-.9-1.1-.9c-.5 0-.9.2-1.3.6l-.4-.6c.5-.4 1.1-.7 1.8-.7c1 0 1.8.4 1.8 1.6c-.03-.05 0 2.9 0 2.9h-.8s-.04-.49 0-.5zm0-1.2c-.3-.3-.7-.5-1.2-.5c-.5 0-1 .3-1 .9c0 .5.5.8 1 .8c.5 0 .9-.1 1.2-.5v-.7zm5.1 1.1c-.4.4-.9.7-1.5.7c-1.1 0-1.9-.9-1.9-2.3c0-1.4.8-2.3 1.9-2.3c.6 0 1.1.3 1.5.8c-.03-.03 0-2.3 0-2.3h.8v6h-.8s-.03-.63 0-.6zm0-2.5c-.3-.4-.7-.6-1.2-.6c-.8 0-1.4.6-1.4 1.5c0 .9.6 1.6 1.4 1.6c.5 0 .9-.3 1.2-.7v-1.8zm1.3-1.3h.9l1.4 3.5l1.3-3.5h.9L89 45.5h-.9l-1.8-4.4zm4.9-1.2c0-.3.3-.5.6-.5c.3 0 .5.2.5.5c0 .3-.2.5-.5.5c-.3 0-.6-.2-.6-.5zm.2 1.2h.8v4.4h-.8v-4.4zm2 3.2c.3.3.9.6 1.4.6c.7 0 1-.2 1-.6c0-.4-.5-.6-1.1-.7c-.7-.1-1.6-.3-1.6-1.3c0-.7.6-1.3 1.7-1.3c.7 0 1.3.3 1.6.7l-.3.5c-.3-.3-.8-.5-1.3-.5c-.6 0-.9.2-.9.6c0 .3.5.5 1 .6c.8.2 1.7.4 1.7 1.4c0 .7-.7 1.3-1.8 1.3c-.7 0-1.4-.2-1.8-.7l.4-.6zm3.8-1c0-1.2.9-2.3 2.2-2.3c1.4 0 2.2 1.1 2.2 2.3c0 1.3-.8 2.3-2.2 2.3c-1.3 0-2.2-1-2.2-2.3zm3.6 0c0-.8-.5-1.5-1.4-1.5c-.8 0-1.3.7-1.3 1.5c0 .8.5 1.6 1.3 1.6c.9 0 1.4-.8 1.4-1.6zm1.8-2.2h.8s-.04.7 0 .7c.3-.4.8-.8 1.4-.8v.9c-.1-.1-.2-.1-.3-.1c-.4 0-.9.3-1.1.7c-.04-.04 0 3 0 3h-.8v-4.4zm2.9 3.2c.3.3.9.6 1.5.6c.6 0 .9-.2.9-.6c0-.4-.5-.6-1-.7c-.8-.1-1.6-.3-1.6-1.3c0-.7.5-1.3 1.6-1.3c.8 0 1.3.3 1.7.7l-.4.5c-.2-.3-.7-.5-1.3-.5c-.5 0-.9.2-.9.6c0 .3.5.5 1 .6c.8.2 1.7.4 1.7 1.4c0 .7-.6 1.3-1.8 1.3c-.7 0-1.3-.2-1.8-.7l.4-.6zm4.5.2c.3 0 .6.2.6.5c0 .3-.3.6-.6.6c-.3 0-.5-.3-.5-.6c0-.3.2-.5.5-.5zm3.6-3.5c.8 0 1.3.4 1.6.8l-.5.5c-.3-.4-.7-.5-1.1-.5c-.9 0-1.4.6-1.4 1.5c0 .9.5 1.6 1.4 1.6c.4 0 .8-.2 1.1-.6l.5.5c-.3.5-.8.8-1.6.8c-1.3 0-2.2-1-2.2-2.3c0-1.3.9-2.3 2.2-2.3zm2.1 2.3c0-1.2.9-2.3 2.2-2.3c1.4 0 2.2 1.1 2.2 2.3c0 1.3-.8 2.3-2.2 2.3c-1.3 0-2.2-1-2.2-2.3zm3.6 0c0-.8-.5-1.5-1.4-1.5c-.8 0-1.3.7-1.3 1.5c0 .8.5 1.6 1.3 1.6c.9 0 1.4-.8 1.4-1.6zm7-.7c0-.5-.2-.8-.7-.8c-.5 0-.9.3-1.1.6v3.1h-.8v-2.9c0-.5-.2-.8-.8-.8c-.4 0-.8.3-1 .6c-.03-.02 0 3.1 0 3.1h-.8v-4.4h.8s-.03.65 0 .7c.1-.3.7-.8 1.4-.8c.6 0 1 .4 1.1.8c.3-.4.9-.8 1.5-.8c.8 0 1.2.5 1.2 1.3c.05.04 0 3.2 0 3.2h-.8s.04-2.91 0-2.9z" stroke="none" fill="#3797ef"/></g><g id="Polygon304810"><path d="m.4 32.5c0-1.5.5-2.9 1.3-4l.5.4c-.6 1.1-.9 2.1-.9 3.6c0 1.5.3 2.5.9 3.6l-.5.4c-.8-1.1-1.3-2.6-1.3-4zM5 28.6c1.7 0 2.4 1.6 2.4 3.1c0 1.5-.7 3.1-2.4 3.1c-1.6 0-2.3-1.6-2.3-3.1c0-1.5.7-3.1 2.3-3.1zm0 .8c-1 0-1.4 1.1-1.4 2.3C3.6 32.9 4 34 5 34c1.1 0 1.5-1.1 1.5-2.3c0-1.2-.4-2.3-1.5-2.3zm5.5-.8c1.6 0 2.3 1.6 2.3 3.1c0 1.5-.7 3.1-2.3 3.1c-1.7 0-2.4-1.6-2.4-3.1c0-1.5.7-3.1 2.4-3.1zm0 .8c-1.1 0-1.5 1.1-1.5 2.3c0 1.2.4 2.3 1.5 2.3c1 0 1.4-1.1 1.4-2.3c0-1.2-.4-2.3-1.4-2.3zm5.4-.8c1.7 0 2.4 1.6 2.4 3.1c0 1.5-.7 3.1-2.4 3.1c-1.7 0-2.3-1.6-2.3-3.1c0-1.5.6-3.1 2.3-3.1zm0 .8c-1.1 0-1.4 1.1-1.4 2.3c0 1.2.3 2.3 1.4 2.3c1.1 0 1.4-1.1 1.4-2.3c0-1.2-.3-2.3-1.4-2.3zm2.8-.5l.5-.4c.9 1.1 1.3 2.5 1.3 4c0 1.4-.4 2.9-1.3 4l-.5-.4c.6-1.1 1-2.1 1-3.6c0-1.5-.4-2.5-1-3.6zm7.1-.3c1.7 0 2.4 1.6 2.4 3.1c0 1.5-.7 3.1-2.4 3.1c-1.6 0-2.3-1.6-2.3-3.1c0-1.5.7-3.1 2.3-3.1zm0 .8c-1 0-1.4 1.1-1.4 2.3c0 1.2.4 2.3 1.4 2.3c1.1 0 1.5-1.1 1.5-2.3c0-1.2-.4-2.3-1.5-2.3zm5.5-.8c1.6 0 2.3 1.6 2.3 3.1c0 1.5-.7 3.1-2.3 3.1c-1.7 0-2.4-1.6-2.4-3.1c0-1.5.7-3.1 2.4-3.1zm0 .8c-1.1 0-1.5 1.1-1.5 2.3c0 1.2.4 2.3 1.5 2.3c1 0 1.4-1.1 1.4-2.3c0-1.2-.4-2.3-1.4-2.3zm5.4-.8c1.7 0 2.4 1.6 2.4 3.1c0 1.5-.7 3.1-2.4 3.1c-1.7 0-2.3-1.6-2.3-3.1c0-1.5.6-3.1 2.3-3.1zm0 .8c-1.1 0-1.4 1.1-1.4 2.3c0 1.2.3 2.3 1.4 2.3c1.1 0 1.4-1.1 1.4-2.3c0-1.2-.3-2.3-1.4-2.3zm3 2.8h2.1v.7h-2.1v-.7zm5.1-3.6c1.6 0 2.3 1.6 2.3 3.1c0 1.5-.7 3.1-2.3 3.1c-1.7 0-2.4-1.6-2.4-3.1c0-1.5.7-3.1 2.4-3.1zm0 .8c-1.1 0-1.5 1.1-1.5 2.3c0 1.2.4 2.3 1.5 2.3c1 0 1.4-1.1 1.4-2.3c0-1.2-.4-2.3-1.4-2.3zm5.4-.8c1.7 0 2.3 1.6 2.3 3.1c0 1.5-.6 3.1-2.3 3.1c-1.7 0-2.4-1.6-2.4-3.1c0-1.5.7-3.1 2.4-3.1zm0 .8c-1.1 0-1.4 1.1-1.4 2.3c0 1.2.3 2.3 1.4 2.3c1.1 0 1.4-1.1 1.4-2.3c0-1.2-.3-2.3-1.4-2.3zm5.4-.8c1.7 0 2.4 1.6 2.4 3.1c0 1.5-.7 3.1-2.4 3.1c-1.6 0-2.3-1.6-2.3-3.1c0-1.5.7-3.1 2.3-3.1zm0 .8c-1 0-1.4 1.1-1.4 2.3c0 1.2.4 2.3 1.4 2.3c1.1 0 1.5-1.1 1.5-2.3c0-1.2-.4-2.3-1.5-2.3zm5.5-.8c1.6 0 2.3 1.6 2.3 3.1c0 1.5-.7 3.1-2.3 3.1c-1.7 0-2.4-1.6-2.4-3.1c0-1.5.7-3.1 2.4-3.1zm0 .8c-1.1 0-1.5 1.1-1.5 2.3c0 1.2.4 2.3 1.5 2.3c1 0 1.4-1.1 1.4-2.3c0-1.2-.4-2.3-1.4-2.3z" stroke="none" fill="#3797ef"/></g><g id="Polygon304809"><path d="m2.1 18.7H.3v-.8h4.6v.8H3v5.2h-.9v-5.2zm3.5-.4c0-.3.2-.5.5-.5c.3 0 .5.2.5.5c0 .3-.2.5-.5.5c-.3 0-.5-.2-.5-.5zm.1 1.2h.8v4.4h-.8v-4.4zm2.2 3.4c-.02.02 0-2.7 0-2.7h-.7v-.7h.7v-1.1h.8v1.1h.9v.7h-.9s-.01 2.54 0 2.5c0 .3.1.6.4.6c.2 0 .4-.1.5-.2l.2.6c-.2.2-.5.3-.9.3c-.7 0-1-.4-1-1.1zm2.5-5h.8v6h-.8v-6zm3.9 1.5c1.3 0 2.1 1 2.1 2.4c.02-.02 0 .2 0 .2c0 0-3.42-.02-3.4 0c0 .7.6 1.3 1.5 1.3c.4 0 .9-.2 1.2-.5l.4.5c-.4.5-1 .7-1.7.7c-1.3 0-2.3-.9-2.3-2.3c0-1.3.9-2.3 2.2-2.3zm-1.3 2h2.6c0-.6-.4-1.3-1.3-1.3c-.9 0-1.3.7-1.3 1.3z" stroke="none" fill="#888888"/></g><g id="Polygon304808"><path d="m.8 1.9h4.8v1.6H2.7v3.2h2.5v1.6H2.7v4.8H.8V1.9zm5.8 11.2V1.9h1.9v11.2H6.6zm7.6 0l-1.4-4.5h-1v4.5H10V1.9h2.9c1.7 0 2.8.7 2.8 2.4v2c0 1-.5 1.7-1.2 2c-.04.03 1.6 4.8 1.6 4.8h-1.9zM11.8 7s1 .02 1 0c.6 0 1-.2 1-1V4.5c0-.8-.4-1-1-1c0 .02-1 0-1 0v3.5zm8.6-1.1s.05-1.58 0-1.6c0-.7-.4-.9-.9-.9c-.5 0-.9.2-.9.9v.8c0 .6.2.8.7 1.1l1.3.8c1.1.6 1.7 1.1 1.7 2.3v1.6c0 1.7-1.1 2.3-2.8 2.3c-1.7 0-2.8-.6-2.8-2.3c.04-.02 0-2 0-2h1.9s-.04 1.72 0 1.7c0 .7.4 1 .9 1c.6 0 1-.3 1-1v-.9c0-.5-.2-.8-.8-1.1l-1.3-.8c-1-.6-1.7-1.1-1.7-2.3V4.1c0-1.7 1.3-2.3 2.8-2.3c1.6 0 2.8.6 2.8 2.3c-.03-.04 0 1.8 0 1.8h-1.9zm8-2.4h-1.9v9.6h-1.8V3.5h-1.9V1.9h5.6v1.6zm7.7 9.6h-4.7V1.9h1.9v9.5h2.8v1.7zm4.4-2.5h-2l-.4 2.5h-1.8l2.1-11.2h2.3l2.1 11.2h-1.9l-.4-2.5zm-.2-1.5l-.8-5l-.8 5h1.6zM47 5.9V4.3c0-.7-.4-.9-1-.9c-.5 0-.9.2-.9.9v.8c0 .6.2.8.7 1.1l1.3.8c1.1.6 1.7 1.1 1.7 2.3v1.6c0 1.7-1 2.3-2.7 2.3h-.1c-1.6 0-2.7-.6-2.7-2.3c-.02-.02 0-2 0-2h1.8v1.7c0 .7.4 1 1 1c.5 0 .9-.3.9-1v-.9c0-.5-.2-.8-.7-1.1L45 7.8c-1.1-.6-1.7-1.1-1.7-2.3V4.1c0-1.7 1.2-2.3 2.7-2.3h.1c1.5 0 2.7.6 2.7 2.3c.02-.04 0 1.8 0 1.8H47zm7.9-2.4h-1.8v9.6h-1.9V3.5h-1.9V1.9h5.6v1.6z" stroke="none" fill="#282828"/></g></svg>