<?xml version="1.0" standalone="no"?><!DOCTYPE svg PUBLIC "-//W3C//DTD SVG 1.1//EN" "http://www.w3.org/Graphics/SVG/1.1/DTD/svg11.dtd"><svg xmlns="http://www.w3.org/2000/svg" version="1.1" width="134px" height="27.3px" viewBox="0 -6 134 27.3" style="top:-6px"><desc>44,389</desc><defs/><g id="Polygon114478"><path d="m82.2 12.7c-.04.02 0 1.4 0 1.4h-.8s.04-1.37 0-1.4c-1.6 0-2.8-.7-3.5-1.6l.6-.7c.6.7 1.6 1.4 2.9 1.5V7.4c-1.6-.4-3.2-.9-3.2-2.8c0-1.6 1.4-2.7 3.2-2.8c.04 0 0-1.4 0-1.4h.8s-.04 1.41 0 1.4c1.3.1 2.3.6 3.1 1.5l-.6.6c-.7-.7-1.5-1.2-2.5-1.2v3.9c1.6.5 3.3 1.1 3.3 3.2c0 1.2-.8 2.8-3.3 2.9zm-.8-6.3V2.6c-1.3.1-2.3.9-2.3 2c0 1.1 1.1 1.5 2.3 1.8zm3.1 3.4c0-1.3-1.1-1.8-2.3-2.2v4.3c1.8-.1 2.3-1.3 2.3-2.1zm7.4-.1h-5v-.9L91.6 2h1.3v6.8h1.5v.9h-1.5v2.8h-1V9.7zm-4-.9h4V2.9l-4 5.9zm12.6.9h-5v-.9l4.7-6.8h1.2v6.8h1.6v.9h-1.6v2.8h-.9V9.7zm-4-.9h4V2.9l-4 5.9zm8 5.3c.5-.3.9-1 .9-1.5l-.2.1c-.3 0-.6-.3-.6-.7c0-.4.3-.7.7-.7c.4 0 .8.4.8 1c0 .9-.5 1.8-1.2 2.2l-.4-.4zm3.7-3.7c.5.9 1.6 1.5 2.9 1.5c1.7 0 2.7-.8 2.7-2.2c0-1.6-1.3-2.2-2.8-2.2h-1v-.8h1c1.4 0 2.6-.6 2.6-2c0-1.4-1.1-2.1-2.5-2.1c-1.2 0-2.1.5-2.8 1.4l-.6-.6c.7-.9 1.9-1.6 3.4-1.6c1.9 0 3.5 1 3.5 2.8c0 1.6-1.4 2.3-2.3 2.5c.9.1 2.4.9 2.4 2.6c0 1.8-1.3 3-3.6 3c-1.7 0-3-.8-3.6-1.7l.7-.6zm11-3.3c-1.2-.3-2.4-1.2-2.4-2.6c0-1.8 1.7-2.7 3.4-2.7c1.7 0 3.4.9 3.4 2.7c0 1.4-1.2 2.3-2.4 2.6c1.3.4 2.6 1.3 2.6 2.8c0 1.7-1.6 2.8-3.6 2.8c-2 0-3.6-1.1-3.6-2.8c0-1.5 1.3-2.4 2.6-2.8zm1-4.5c-1.4 0-2.5.8-2.5 2c0 1.5 1.9 2 2.5 2.1c.7-.1 2.5-.6 2.5-2.1c0-1.2-1.1-2-2.5-2zm0 4.9c-.6.1-2.7.7-2.7 2.3c0 1.3 1.3 2.1 2.7 2.1c1.4 0 2.7-.8 2.7-2.1c0-1.6-2.1-2.2-2.7-2.3zm6.5 3.2c.5.7 1.2 1.2 2.3 1.2c2.4 0 3.2-2.4 3.2-4.7v-.5c-.5.8-1.7 1.8-3.1 1.8c-1.9 0-3.5-1.1-3.5-3.3c0-1.8 1.3-3.4 3.6-3.4c2.9 0 3.9 2.6 3.9 5.5c0 2.7-1.2 5.4-4.1 5.4c-1.3 0-2.2-.5-2.8-1.3l.5-.7zm2.5-8.1c-1.8 0-2.6 1.4-2.6 2.5c0 1.8 1.1 2.6 2.6 2.6c1.2 0 2.3-.7 2.9-1.8c-.1-1.5-.9-3.3-2.9-3.3z" stroke="none" fill="#000"/></g></svg>