<?xml version="1.0" standalone="no"?><!DOCTYPE svg PUBLIC "-//W3C//DTD SVG 1.1//EN" "http://www.w3.org/Graphics/SVG/1.1/DTD/svg11.dtd"><svg xmlns="http://www.w3.org/2000/svg" version="1.1" width="153px" height="27.9px" viewBox="0 -4 153 27.9" style="top:-4px"><desc>Agent 1</desc><defs/><g id="Polygon116117"><path d="m.4 14.9c0-1.8 1.4-3.1 3.1-3.1c1.2 0 1.9.6 2.4 1.3l-.8.4c-.3-.5-.9-.9-1.6-.9c-1.2 0-2.2 1-2.2 2.3c0 1.4 1 2.3 2.2 2.3c.7 0 1.3-.4 1.6-.9l.8.4c-.5.8-1.2 1.3-2.4 1.3c-1.7 0-3.1-1.2-3.1-3.1zm9.1-3.1c1.8 0 3.1 1.3 3.1 3.1c0 1.8-1.3 3.1-3.1 3.1c-1.7 0-3-1.3-3-3.1c0-1.8 1.3-3.1 3-3.1zm0 .8c-1.2 0-2 1-2 2.3c0 1.3.8 2.3 2 2.3c1.3 0 2.1-1 2.1-2.3c0-1.3-.8-2.3-2.1-2.3zm6.2 3h-1.1v2.3h-.9v-6s2.49.01 2.5 0c1.1 0 1.9.7 1.9 1.9c0 1-.7 1.6-1.5 1.7c.02.01 1.6 2.4 1.6 2.4h-1.1l-1.4-2.3zm.4-2.9h-1.5v2.1h1.5c.6 0 1.1-.4 1.1-1c0-.7-.5-1.1-1.1-1.1zm3.1-.8h2.6c1.2 0 1.9.9 1.9 1.9c0 1-.7 1.8-1.9 1.8h-1.7v2.3h-.9v-6zm2.4.8h-1.5v2.1h1.5c.7 0 1.1-.4 1.1-1c0-.7-.4-1.1-1.1-1.1zm2.6 4.2c.3 0 .5.2.5.5c0 .3-.2.6-.5.6c-.3 0-.6-.3-.6-.6c0-.3.3-.5.6-.5zm4-5h.9v5.2h2.8v.8h-3.7v-6zm4.5.4c0-.3.2-.5.5-.5c.3 0 .5.2.5.5c0 .3-.2.5-.5.5c-.3 0-.5-.2-.5-.5zm.1 1.3h.8v4.3h-.8v-4.3zm4.1-.1c.8 0 1.3.3 1.6.7l-.5.5c-.3-.4-.7-.5-1.1-.5c-.8 0-1.4.6-1.4 1.5c0 .9.6 1.6 1.4 1.6c.4 0 .8-.2 1.1-.5l.5.5c-.3.4-.8.7-1.6.7c-1.3 0-2.2-1-2.2-2.3c0-1.3.9-2.2 2.2-2.2zm6.9 2.8h-1l-.5 1.6h-.7l.6-1.6h-1l.2-.5h1l.5-1.7h-.9l.1-.6h1l.5-1.6h.7l-.5 1.6h.9l.5-1.6h.7l-.6 1.6h1l-.2.6h-.9l-.6 1.7h.9l-.1.5h-1l-.5 1.6h-.7l.6-1.6zm-.2-2.2l-.6 1.7h.9l.6-1.7h-.9zm3.9-.6c.3 0 .6.3.6.6c0 .3-.3.5-.6.5c-.3 0-.5-.2-.5-.5c0-.3.2-.6.5-.6zm0 3.4c.3 0 .6.2.6.5c0 .3-.3.6-.6.6c-.3 0-.5-.3-.5-.6c0-.3.2-.5.5-.5zm3.9.3c2.2-1.7 3.3-2.6 3.3-3.6c0-.7-.6-1-1.2-1c-.7 0-1.3.3-1.6.8l-.6-.6c.5-.6 1.3-1 2.2-1c1.1 0 2.1.6 2.1 1.8c0 1.2-1.1 2.2-2.8 3.5c.01.02 2.8 0 2.8 0v.8h-4.2s-.02-.7 0-.7zm5.3 0c2.2-1.7 3.3-2.6 3.3-3.6c0-.7-.6-1-1.2-1c-.7 0-1.2.3-1.6.8l-.5-.6c.4-.6 1.3-1 2.1-1c1.1 0 2.1.6 2.1 1.8c0 1.2-1.1 2.2-2.8 3.5c.03.02 2.8 0 2.8 0v.8h-4.2v-.7zm6-.6c.3.4.7.6 1.3.6c1.1 0 1.6-1.1 1.6-2.2v-.2c-.3.4-.9.9-1.7.9c-1 0-2-.6-2-1.9c0-1.1.9-2 2.2-2c1.7 0 2.4 1.5 2.4 3.1c0 1.7-.8 3.1-2.5 3.1c-.8 0-1.4-.3-1.7-.7l.4-.7zm1.4-4c-.8 0-1.2.6-1.2 1.2c0 .8.5 1.1 1.3 1.1c.5 0 1.1-.3 1.4-.8c-.1-.6-.5-1.5-1.5-1.5zm4 4c.3.4.6.6 1.2.6c1.2 0 1.7-1.1 1.7-2.2v-.2c-.3.4-1 .9-1.7.9c-1.1 0-2-.6-2-1.9c0-1.1.8-2 2.2-2c1.7 0 2.4 1.5 2.4 3.1c0 1.7-.9 3.1-2.6 3.1c-.7 0-1.3-.3-1.7-.7l.5-.7zm1.4-4c-.8 0-1.3.6-1.3 1.2c0 .8.6 1.1 1.3 1.1c.6 0 1.1-.3 1.4-.8c0-.6-.4-1.5-1.4-1.5zm5.9 3.9h-2.9v-.8l2.6-3.8h1.2v3.8h.8v.8h-.8v1.4h-.9v-1.4zm-2-.8h2v-3l-2 3z" stroke="none" fill="#88898a"/></g><g id="Polygon116116"><path d="m.8 5.6c.4.4 1.1.8 1.9.8c1 0 1.3-.5 1.3-.9c0-.6-.7-.8-1.4-1C1.6 4.2.5 4 .5 2.7c0-1 .9-1.7 2.1-1.7c.9 0 1.7.3 2.2.9l-.5.6c-.5-.5-1.1-.7-1.8-.7c-.6 0-1.1.4-1.1.9c0 .5.7.7 1.4.9c1 .2 2.1.5 2.1 1.8c0 .9-.6 1.8-2.2 1.8c-1.1 0-1.9-.4-2.4-.9l.5-.7zm4.9-1.5C5.7 2.3 7.1 1 8.8 1c1.2 0 1.9.6 2.4 1.3l-.8.4c-.3-.5-.9-.9-1.6-.9c-1.2 0-2.1 1-2.1 2.3c0 1.4.9 2.3 2.1 2.3c.7 0 1.3-.4 1.6-.9l.8.4c-.5.8-1.2 1.3-2.4 1.3c-1.7 0-3.1-1.2-3.1-3.1zm10.7.7h-1.1v2.3h-.9v-6s2.54.01 2.5 0c1.2 0 2 .7 2 1.9c0 1-.8 1.6-1.5 1.7c-.03.01 1.5 2.4 1.5 2.4h-1l-1.5-2.3zm.4-2.9h-1.5v2.1h1.5c.7 0 1.1-.4 1.1-1c0-.7-.4-1.1-1.1-1.1zm3.2-.8h4v.8h-3.1v1.8h3v.7h-3v1.9h3.1v.8h-4v-6zm7.5 0h.8v5.2h2.8v.8h-3.6v-6zm4.4.4c0-.3.3-.5.5-.5c.3 0 .6.2.6.5c0 .3-.3.5-.6.5c-.2 0-.5-.2-.5-.5zm.1 1.3h.9v4.3h-.9V2.8zm4.1-.1c.8 0 1.3.3 1.6.7l-.5.5c-.3-.4-.6-.5-1.1-.5c-.8 0-1.4.6-1.4 1.5c0 .9.6 1.6 1.4 1.6c.5 0 .8-.2 1.1-.5l.5.5c-.3.4-.8.7-1.6.7c-1.3 0-2.2-1-2.2-2.3c0-1.3.9-2.2 2.2-2.2zM43 5.5h-1l-.5 1.6h-.6l.5-1.6h-.9l.1-.5h1l.5-1.7h-.9l.2-.6h.9l.6-1.6h.6L43 2.7h.9l.5-1.6h.7l-.6 1.6h1l-.2.6h-.9L43.8 5h1l-.2.5h-1l-.5 1.6h-.7l.6-1.6zm-.2-2.2L42.2 5h1l.5-1.7h-.9zm3.9-.6c.3 0 .6.3.6.6c0 .3-.3.5-.6.5c-.3 0-.5-.2-.5-.5c0-.3.2-.6.5-.6zm0 3.4c.3 0 .6.2.6.5c0 .3-.3.6-.6.6c-.3 0-.5-.3-.5-.6c0-.3.2-.5.5-.5zm5.1-3.8l-1 1l-.5-.5l1.6-1.7h.8v6h-.9V2.3zM56.1 1c1.7 0 2.4 1.6 2.4 3.1c0 1.5-.7 3.1-2.4 3.1c-1.6 0-2.3-1.6-2.3-3.1c0-1.5.7-3.1 2.3-3.1zm0 .8c-1 0-1.4 1.1-1.4 2.3c0 1.2.4 2.3 1.4 2.3c1.1 0 1.5-1.1 1.5-2.3c0-1.2-.4-2.3-1.5-2.3zM60.7 4c-.7-.2-1.3-.6-1.3-1.4c0-1.1 1.1-1.6 2.1-1.6c1.1 0 2.2.5 2.2 1.6c0 .8-.6 1.2-1.3 1.4c.7.2 1.4.8 1.4 1.6c0 1-1.1 1.6-2.3 1.6c-1.2 0-2.2-.6-2.2-1.6c0-.8.7-1.4 1.4-1.6zm.8-2.2c-.7 0-1.2.4-1.2.9c0 .7.9.9 1.2 1c.4-.1 1.3-.3 1.3-1c0-.5-.6-.9-1.3-.9zm0 2.6c-.3.1-1.3.4-1.3 1.1c0 .6.6.9 1.3.9c.7 0 1.4-.3 1.4-.9c0-.7-1-1-1.4-1.1zm3.1 2c2.3-1.7 3.3-2.6 3.3-3.6c0-.7-.6-1-1.1-1c-.7 0-1.3.3-1.7.8l-.5-.6c.5-.6 1.3-1 2.2-1c1 0 2 .6 2 1.8c0 1.2-1.1 2.2-2.7 3.5c-.02.02 2.8 0 2.8 0v.8h-4.3s.05-.7 0-.7zm6-.7c.4.4.9.7 1.6.7c.8 0 1.3-.5 1.3-1.2c0-.7-.5-1.1-1.3-1.1c-.5 0-.9.1-1.3.5c-.02.01-.7-.2-.7-.2V1.1h3.8v.8h-2.9s.03 1.92 0 1.9c.3-.3.8-.5 1.4-.5c1 0 1.9.7 1.9 1.9c0 1.2-.9 2-2.2 2c-1 0-1.7-.3-2.2-.9l.6-.6zm7-4.7C79.3 1 80 2.6 80 4.1c0 1.5-.7 3.1-2.4 3.1c-1.7 0-2.3-1.6-2.3-3.1c0-1.5.6-3.1 2.3-3.1zm0 .8c-1 0-1.4 1.1-1.4 2.3c0 1.2.4 2.3 1.4 2.3c1.1 0 1.4-1.1 1.4-2.3c0-1.2-.3-2.3-1.4-2.3z" stroke="none" fill="#88898a"/></g></svg>