<?xml version="1.0" standalone="no"?><!DOCTYPE svg PUBLIC "-//W3C//DTD SVG 1.1//EN" "http://www.w3.org/Graphics/SVG/1.1/DTD/svg11.dtd"><svg xmlns="http://www.w3.org/2000/svg" xmlns:xlink="http://www.w3.org/1999/xlink" version="1.1" width="125.4px" height="32.3px" viewBox="0 -7 125.4 32.3" style="top:-7px"><desc/><defs/><g id="Polygon75682"><path d="m24.9 12.7c-.03.02 0 1.4 0 1.4h-.8s.04-1.37 0-1.4c-1.6 0-2.8-.7-3.5-1.6l.6-.7c.6.7 1.6 1.4 2.9 1.5V7.4c-1.6-.4-3.2-.9-3.2-2.8c0-1.6 1.4-2.7 3.2-2.8c.04 0 0-1.4 0-1.4h.8s-.03 1.41 0 1.4c1.3.1 2.3.6 3.1 1.5l-.6.6c-.7-.7-1.5-1.2-2.5-1.2v3.9c1.6.5 3.3 1.1 3.3 3.2c0 1.2-.8 2.8-3.3 2.9zm-.8-6.3V2.6c-1.3.1-2.3.9-2.3 2c0 1.1 1.1 1.5 2.3 1.8zm3.1 3.4c0-1.3-1.1-1.8-2.3-2.2v4.3c1.8-.1 2.3-1.3 2.3-2.1z" stroke="none" fill="#000"/><a xlink:href="DBF_Med.%20HH%20Income%20(5%20Mile)" xlink:show="new" xlink:title="&lt;&lt;Med. HH Income (5 Mile)&gt;&gt;"><rect style="fill:transparent;" x="28" y="1" width="97" height="12"/></a></g><g id="Polygon75683"><path d="m29.1 6.9L36 3.3v.8l-6.1 3.1l6.1 3.1v.8l-6.9-3.6v-.6zm7.9 0l6.9-3.6v.8l-6.1 3.1l6.1 3.1v.8L37 7.5v-.6zm17.7-3.8l-3.9 9.4h-.3l-3.9-9.4v9.4h-.9V2h1.3l3.6 8.7L54.2 2h1.4v10.5h-.9V3.1zm6.7 1.6c2.4 0 3.7 1.8 3.7 4c-.04.05 0 .3 0 .3c0 0-6.46-.03-6.5 0c.1 1.6 1.2 3 3 3c1 0 1.9-.3 2.6-1l.4.5c-.8.8-1.8 1.2-3 1.2c-2.3 0-3.9-1.6-3.9-4c0-2.2 1.6-4 3.7-4zm-2.8 3.6h5.6c0-1.3-.9-2.9-2.8-2.9c-1.8 0-2.7 1.6-2.8 2.9zm14.2 3c-.5.8-1.5 1.4-2.6 1.4c-2.1 0-3.5-1.5-3.5-4c0-2.4 1.4-4 3.5-4c1.1 0 2 .5 2.6 1.4c.04.01 0-4.1 0-4.1h.9v10.5h-.9s.04-1.18 0-1.2zm0-4.5c-.4-.7-1.4-1.4-2.5-1.4c-1.7 0-2.7 1.5-2.7 3.3c0 1.9 1 3.3 2.7 3.3c1.1 0 2.1-.6 2.5-1.4V6.8zm3.9 4.5c.4 0 .7.3.7.7c0 .4-.3.7-.7.7c-.4 0-.7-.3-.7-.7c0-.4.3-.7.7-.7zm14.8-3.8h-6.7v5h-.9V2h.9v4.7h6.7V2h.9v10.5h-.9v-5zm11.2 0h-6.8v5h-.9V2h.9v4.7h6.8V2h.9v10.5h-.9v-5zm7.6-5.5h.9v10.5h-.9V2zm8.7 5.4c0-1.5-.7-2-1.9-2c-.9 0-2 .7-2.5 1.3c.05.05 0 5.8 0 5.8h-.8V4.9h.8s.05 1.13 0 1.1c.6-.6 1.7-1.3 2.8-1.3c1.6 0 2.4.7 2.4 2.5c.02-.02 0 5.3 0 5.3h-.8V7.4zm2.6.9h3.8v.8h-3.8v-.8z" stroke="none" fill="#000"/></g></svg>