<?xml version="1.0" standalone="no"?>
<!DOCTYPE svg PUBLIC "-//W3C//DTD SVG 1.1//EN" "http://www.w3.org/Graphics/SVG/1.1/DTD/svg11.dtd">
<svg xmlns="http://www.w3.org/2000/svg" version="1.1" width="184px" height="249.9px" viewBox="0 -6 184 249.9" style="top:-6px">
  <desc>Lorem Ipsum Lorem Ipsum Lorem Ipsum Lorem Ipsum Lorem Ipsum Lorem Ipsum Lorem Ipsum Lorem Ipsum</desc>
  <defs/>
  <g id="Polygon241176">
    <path d="M 98.5 224.3 L 99.4 224.3 L 99.4 234.1 L 104.5 234.1 L 104.5 234.9 L 98.5 234.9 L 98.5 224.3 Z M 105.4 231.1 C 105.4 228.8 106.9 227 109.1 227 C 111.4 227 112.8 228.8 112.8 231.1 C 112.8 233.3 111.4 235.1 109.1 235.1 C 106.9 235.1 105.4 233.3 105.4 231.1 Z M 111.9 231.1 C 111.9 229.4 110.9 227.8 109.1 227.8 C 107.3 227.8 106.3 229.4 106.3 231.1 C 106.3 232.8 107.3 234.3 109.1 234.3 C 110.9 234.3 111.9 232.8 111.9 231.1 Z M 114.8 227.2 L 115.6 227.2 C 115.6 227.2 115.62 228.55 115.6 228.5 C 116.3 227.7 117.1 227.1 118.2 227.1 C 118.2 227.1 118.2 228 118.2 228 C 118.1 228 118 227.9 117.8 227.9 C 117 227.9 116 228.6 115.6 229.3 C 115.62 229.31 115.6 234.9 115.6 234.9 L 114.8 234.9 L 114.8 227.2 Z M 122.9 227 C 125.3 227 126.6 228.9 126.6 231.1 C 126.55 231.1 126.6 231.3 126.6 231.3 C 126.6 231.3 120.13 231.33 120.1 231.3 C 120.2 233 121.3 234.4 123.1 234.4 C 124.1 234.4 125 234 125.6 233.3 C 125.6 233.3 126.1 233.9 126.1 233.9 C 125.3 234.6 124.3 235.1 123.1 235.1 C 120.8 235.1 119.2 233.4 119.2 231.1 C 119.2 228.8 120.8 227 122.9 227 Z M 120.1 230.7 C 120.1 230.7 125.7 230.7 125.7 230.7 C 125.7 229.4 124.8 227.8 122.9 227.8 C 121.1 227.8 120.2 229.3 120.1 230.7 Z M 137.7 229.5 C 137.7 228.5 137.2 227.8 136.1 227.8 C 135.3 227.8 134.3 228.4 133.9 229.1 C 133.92 229.09 133.9 234.9 133.9 234.9 L 133.1 234.9 C 133.1 234.9 133.08 229.53 133.1 229.5 C 133.1 228.5 132.6 227.8 131.5 227.8 C 130.7 227.8 129.8 228.4 129.3 229.1 C 129.35 229.1 129.3 234.9 129.3 234.9 L 128.5 234.9 L 128.5 227.2 L 129.3 227.2 C 129.3 227.2 129.35 228.39 129.3 228.4 C 129.7 227.9 130.7 227 131.8 227 C 133 227 133.7 227.7 133.8 228.5 C 134.3 227.8 135.3 227 136.4 227 C 137.8 227 138.5 227.8 138.5 229.4 C 138.48 229.37 138.5 234.9 138.5 234.9 L 137.7 234.9 C 137.7 234.9 137.65 229.53 137.7 229.5 Z M 144.9 224.3 L 145.8 224.3 L 145.8 234.9 L 144.9 234.9 L 144.9 224.3 Z M 148.2 237.8 L 148.2 227.2 L 149.1 227.2 C 149.1 227.2 149.06 228.45 149.1 228.5 C 149.6 227.7 150.6 227 151.7 227 C 153.8 227 155.2 228.6 155.2 231.1 C 155.2 233.5 153.8 235.1 151.7 235.1 C 150.6 235.1 149.7 234.5 149.1 233.7 C 149.06 233.66 149.1 237.8 149.1 237.8 L 148.2 237.8 Z M 151.6 227.8 C 150.5 227.8 149.5 228.4 149.1 229.2 C 149.1 229.2 149.1 232.9 149.1 232.9 C 149.5 233.7 150.5 234.3 151.6 234.3 C 153.3 234.3 154.3 232.9 154.3 231.1 C 154.3 229.2 153.3 227.8 151.6 227.8 Z M 156.9 233.3 C 157.4 233.9 158.3 234.4 159.4 234.4 C 160.7 234.4 161.5 233.8 161.5 232.9 C 161.5 231.9 160.4 231.6 159.3 231.3 C 158 231 156.6 230.7 156.6 229.2 C 156.6 228 157.6 227 159.4 227 C 160.7 227 161.6 227.5 162.1 228.2 C 162.1 228.2 161.7 228.8 161.7 228.8 C 161.2 228.1 160.4 227.7 159.4 227.7 C 158.2 227.7 157.4 228.3 157.4 229.1 C 157.4 230 158.4 230.2 159.5 230.5 C 160.8 230.8 162.3 231.2 162.3 232.8 C 162.3 234.1 161.3 235.1 159.4 235.1 C 158.2 235.1 157.2 234.7 156.5 233.9 C 156.5 233.9 156.9 233.3 156.9 233.3 Z M 169.4 233.8 C 168.8 234.5 167.8 235.1 166.7 235.1 C 165.1 235.1 164.3 234.4 164.3 232.6 C 164.26 232.63 164.3 227.2 164.3 227.2 L 165.1 227.2 C 165.1 227.2 165.08 232.44 165.1 232.4 C 165.1 233.9 165.8 234.3 166.9 234.3 C 167.9 234.3 168.9 233.8 169.4 233.1 C 169.43 233.07 169.4 227.2 169.4 227.2 L 170.3 227.2 L 170.3 234.9 L 169.4 234.9 C 169.4 234.9 169.43 233.77 169.4 233.8 Z M 181.8 229.5 C 181.8 228.5 181.3 227.8 180.3 227.8 C 179.4 227.8 178.5 228.4 178.1 229.1 C 178.07 229.09 178.1 234.9 178.1 234.9 L 177.2 234.9 C 177.2 234.9 177.23 229.53 177.2 229.5 C 177.2 228.5 176.8 227.8 175.7 227.8 C 174.9 227.8 174 228.4 173.5 229.1 C 173.5 229.1 173.5 234.9 173.5 234.9 L 172.7 234.9 L 172.7 227.2 L 173.5 227.2 C 173.5 227.2 173.5 228.39 173.5 228.4 C 173.8 227.9 174.9 227 176 227 C 177.2 227 177.8 227.7 178 228.5 C 178.4 227.8 179.5 227 180.5 227 C 181.9 227 182.6 227.8 182.6 229.4 C 182.63 229.37 182.6 234.9 182.6 234.9 L 181.8 234.9 C 181.8 234.9 181.81 229.53 181.8 229.5 Z " stroke="none" fill="#242423"/>
  </g>
  <g id="Polygon241175">
    <path d="M 98.5 192.5 L 99.4 192.5 L 99.4 202.3 L 104.5 202.3 L 104.5 203.1 L 98.5 203.1 L 98.5 192.5 Z M 105.4 199.3 C 105.4 197.1 106.9 195.3 109.1 195.3 C 111.4 195.3 112.8 197.1 112.8 199.3 C 112.8 201.5 111.4 203.3 109.1 203.3 C 106.9 203.3 105.4 201.5 105.4 199.3 Z M 111.9 199.3 C 111.9 197.6 110.9 196 109.1 196 C 107.3 196 106.3 197.6 106.3 199.3 C 106.3 201 107.3 202.6 109.1 202.6 C 110.9 202.6 111.9 201 111.9 199.3 Z M 114.8 195.5 L 115.6 195.5 C 115.6 195.5 115.62 196.78 115.6 196.8 C 116.3 195.9 117.1 195.3 118.2 195.3 C 118.2 195.3 118.2 196.2 118.2 196.2 C 118.1 196.2 118 196.2 117.8 196.2 C 117 196.2 116 196.9 115.6 197.5 C 115.62 197.54 115.6 203.1 115.6 203.1 L 114.8 203.1 L 114.8 195.5 Z M 122.9 195.3 C 125.3 195.3 126.6 197.1 126.6 199.3 C 126.55 199.34 126.6 199.6 126.6 199.6 C 126.6 199.6 120.13 199.56 120.1 199.6 C 120.2 201.2 121.3 202.6 123.1 202.6 C 124.1 202.6 125 202.2 125.6 201.5 C 125.6 201.5 126.1 202.1 126.1 202.1 C 125.3 202.9 124.3 203.3 123.1 203.3 C 120.8 203.3 119.2 201.7 119.2 199.3 C 119.2 197.1 120.8 195.3 122.9 195.3 Z M 120.1 198.9 C 120.1 198.9 125.7 198.9 125.7 198.9 C 125.7 197.6 124.8 196 122.9 196 C 121.1 196 120.2 197.6 120.1 198.9 Z M 137.7 197.8 C 137.7 196.7 137.2 196 136.1 196 C 135.3 196 134.3 196.6 133.9 197.3 C 133.92 197.32 133.9 203.1 133.9 203.1 L 133.1 203.1 C 133.1 203.1 133.08 197.77 133.1 197.8 C 133.1 196.7 132.6 196 131.5 196 C 130.7 196 129.8 196.6 129.3 197.3 C 129.35 197.34 129.3 203.1 129.3 203.1 L 128.5 203.1 L 128.5 195.5 L 129.3 195.5 C 129.3 195.5 129.35 196.62 129.3 196.6 C 129.7 196.1 130.7 195.3 131.8 195.3 C 133 195.3 133.7 196 133.8 196.7 C 134.3 196 135.3 195.3 136.4 195.3 C 137.8 195.3 138.5 196.1 138.5 197.6 C 138.48 197.61 138.5 203.1 138.5 203.1 L 137.7 203.1 C 137.7 203.1 137.65 197.77 137.7 197.8 Z M 144.9 192.5 L 145.8 192.5 L 145.8 203.1 L 144.9 203.1 L 144.9 192.5 Z M 148.2 206.1 L 148.2 195.5 L 149.1 195.5 C 149.1 195.5 149.06 196.69 149.1 196.7 C 149.6 195.9 150.6 195.3 151.7 195.3 C 153.8 195.3 155.2 196.8 155.2 199.3 C 155.2 201.7 153.8 203.3 151.7 203.3 C 150.6 203.3 149.7 202.8 149.1 201.9 C 149.06 201.9 149.1 206.1 149.1 206.1 L 148.2 206.1 Z M 151.6 196 C 150.5 196 149.5 196.7 149.1 197.4 C 149.1 197.4 149.1 201.2 149.1 201.2 C 149.5 201.9 150.5 202.6 151.6 202.6 C 153.3 202.6 154.3 201.2 154.3 199.3 C 154.3 197.4 153.3 196 151.6 196 Z M 156.9 201.5 C 157.4 202.1 158.3 202.6 159.4 202.6 C 160.7 202.6 161.5 202 161.5 201.1 C 161.5 200.1 160.4 199.8 159.3 199.5 C 158 199.2 156.6 198.9 156.6 197.4 C 156.6 196.2 157.6 195.3 159.4 195.3 C 160.7 195.3 161.6 195.8 162.1 196.4 C 162.1 196.4 161.7 197 161.7 197 C 161.2 196.4 160.4 196 159.4 196 C 158.2 196 157.4 196.6 157.4 197.4 C 157.4 198.2 158.4 198.5 159.5 198.7 C 160.8 199.1 162.3 199.4 162.3 201.1 C 162.3 202.3 161.3 203.3 159.4 203.3 C 158.2 203.3 157.2 203 156.5 202.1 C 156.5 202.1 156.9 201.5 156.9 201.5 Z M 169.4 202 C 168.8 202.7 167.8 203.3 166.7 203.3 C 165.1 203.3 164.3 202.6 164.3 200.9 C 164.26 200.87 164.3 195.5 164.3 195.5 L 165.1 195.5 C 165.1 195.5 165.08 200.67 165.1 200.7 C 165.1 202.2 165.8 202.6 166.9 202.6 C 167.9 202.6 168.9 202 169.4 201.3 C 169.43 201.31 169.4 195.5 169.4 195.5 L 170.3 195.5 L 170.3 203.1 L 169.4 203.1 C 169.4 203.1 169.43 202.01 169.4 202 Z M 181.8 197.8 C 181.8 196.7 181.3 196 180.3 196 C 179.4 196 178.5 196.6 178.1 197.3 C 178.07 197.32 178.1 203.1 178.1 203.1 L 177.2 203.1 C 177.2 203.1 177.23 197.77 177.2 197.8 C 177.2 196.7 176.8 196 175.7 196 C 174.9 196 174 196.6 173.5 197.3 C 173.5 197.34 173.5 203.1 173.5 203.1 L 172.7 203.1 L 172.7 195.5 L 173.5 195.5 C 173.5 195.5 173.5 196.62 173.5 196.6 C 173.8 196.1 174.9 195.3 176 195.3 C 177.2 195.3 177.8 196 178 196.7 C 178.4 196 179.5 195.3 180.5 195.3 C 181.9 195.3 182.6 196.1 182.6 197.6 C 182.63 197.61 182.6 203.1 182.6 203.1 L 181.8 203.1 C 181.8 203.1 181.81 197.77 181.8 197.8 Z " stroke="none" fill="#242423"/>
  </g>
  <g id="Polygon241174">
    <path d="M 98.5 160.8 L 99.4 160.8 L 99.4 170.5 L 104.5 170.5 L 104.5 171.4 L 98.5 171.4 L 98.5 160.8 Z M 105.4 167.5 C 105.4 165.3 106.9 163.5 109.1 163.5 C 111.4 163.5 112.8 165.3 112.8 167.5 C 112.8 169.8 111.4 171.6 109.1 171.6 C 106.9 171.6 105.4 169.8 105.4 167.5 Z M 111.9 167.5 C 111.9 165.8 110.9 164.3 109.1 164.3 C 107.3 164.3 106.3 165.8 106.3 167.5 C 106.3 169.2 107.3 170.8 109.1 170.8 C 110.9 170.8 111.9 169.2 111.9 167.5 Z M 114.8 163.7 L 115.6 163.7 C 115.6 163.7 115.62 165.02 115.6 165 C 116.3 164.2 117.1 163.5 118.2 163.5 C 118.2 163.5 118.2 164.4 118.2 164.4 C 118.1 164.4 118 164.4 117.8 164.4 C 117 164.4 116 165.1 115.6 165.8 C 115.62 165.78 115.6 171.4 115.6 171.4 L 114.8 171.4 L 114.8 163.7 Z M 122.9 163.5 C 125.3 163.5 126.6 165.4 126.6 167.6 C 126.55 167.57 126.6 167.8 126.6 167.8 C 126.6 167.8 120.13 167.8 120.1 167.8 C 120.2 169.5 121.3 170.8 123.1 170.8 C 124.1 170.8 125 170.5 125.6 169.8 C 125.6 169.8 126.1 170.3 126.1 170.3 C 125.3 171.1 124.3 171.6 123.1 171.6 C 120.8 171.6 119.2 169.9 119.2 167.5 C 119.2 165.3 120.8 163.5 122.9 163.5 Z M 120.1 167.1 C 120.1 167.1 125.7 167.1 125.7 167.1 C 125.7 165.8 124.8 164.2 122.9 164.2 C 121.1 164.2 120.2 165.8 120.1 167.1 Z M 137.7 166 C 137.7 164.9 137.2 164.3 136.1 164.3 C 135.3 164.3 134.3 164.9 133.9 165.6 C 133.92 165.56 133.9 171.4 133.9 171.4 L 133.1 171.4 C 133.1 171.4 133.08 166 133.1 166 C 133.1 164.9 132.6 164.3 131.5 164.3 C 130.7 164.3 129.8 164.9 129.3 165.6 C 129.35 165.57 129.3 171.4 129.3 171.4 L 128.5 171.4 L 128.5 163.7 L 129.3 163.7 C 129.3 163.7 129.35 164.86 129.3 164.9 C 129.7 164.4 130.7 163.5 131.8 163.5 C 133 163.5 133.7 164.2 133.8 165 C 134.3 164.2 135.3 163.5 136.4 163.5 C 137.8 163.5 138.5 164.3 138.5 165.8 C 138.48 165.84 138.5 171.4 138.5 171.4 L 137.7 171.4 C 137.7 171.4 137.65 166 137.7 166 Z M 144.9 160.8 L 145.8 160.8 L 145.8 171.4 L 144.9 171.4 L 144.9 160.8 Z M 148.2 174.3 L 148.2 163.7 L 149.1 163.7 C 149.1 163.7 149.06 164.92 149.1 164.9 C 149.6 164.1 150.6 163.5 151.7 163.5 C 153.8 163.5 155.2 165.1 155.2 167.5 C 155.2 170 153.8 171.6 151.7 171.6 C 150.6 171.6 149.7 171 149.1 170.1 C 149.06 170.13 149.1 174.3 149.1 174.3 L 148.2 174.3 Z M 151.6 164.3 C 150.5 164.3 149.5 164.9 149.1 165.6 C 149.1 165.6 149.1 169.4 149.1 169.4 C 149.5 170.1 150.5 170.8 151.6 170.8 C 153.3 170.8 154.3 169.4 154.3 167.5 C 154.3 165.7 153.3 164.3 151.6 164.3 Z M 156.9 169.7 C 157.4 170.4 158.3 170.9 159.4 170.9 C 160.7 170.9 161.5 170.2 161.5 169.3 C 161.5 168.4 160.4 168.1 159.3 167.8 C 158 167.5 156.6 167.1 156.6 165.6 C 156.6 164.5 157.6 163.5 159.4 163.5 C 160.7 163.5 161.6 164 162.1 164.7 C 162.1 164.7 161.7 165.2 161.7 165.2 C 161.2 164.6 160.4 164.2 159.4 164.2 C 158.2 164.2 157.4 164.8 157.4 165.6 C 157.4 166.5 158.4 166.7 159.5 167 C 160.8 167.3 162.3 167.7 162.3 169.3 C 162.3 170.5 161.3 171.6 159.4 171.6 C 158.2 171.6 157.2 171.2 156.5 170.4 C 156.5 170.4 156.9 169.7 156.9 169.7 Z M 169.4 170.2 C 168.8 170.9 167.8 171.6 166.7 171.6 C 165.1 171.6 164.3 170.8 164.3 169.1 C 164.26 169.1 164.3 163.7 164.3 163.7 L 165.1 163.7 C 165.1 163.7 165.08 168.91 165.1 168.9 C 165.1 170.4 165.8 170.8 166.9 170.8 C 167.9 170.8 168.9 170.2 169.4 169.5 C 169.43 169.55 169.4 163.7 169.4 163.7 L 170.3 163.7 L 170.3 171.4 L 169.4 171.4 C 169.4 171.4 169.43 170.24 169.4 170.2 Z M 181.8 166 C 181.8 164.9 181.3 164.3 180.3 164.3 C 179.4 164.3 178.5 164.9 178.1 165.6 C 178.07 165.56 178.1 171.4 178.1 171.4 L 177.2 171.4 C 177.2 171.4 177.23 166 177.2 166 C 177.2 164.9 176.8 164.3 175.7 164.3 C 174.9 164.3 174 164.9 173.5 165.6 C 173.5 165.57 173.5 171.4 173.5 171.4 L 172.7 171.4 L 172.7 163.7 L 173.5 163.7 C 173.5 163.7 173.5 164.86 173.5 164.9 C 173.8 164.4 174.9 163.5 176 163.5 C 177.2 163.5 177.8 164.2 178 165 C 178.4 164.2 179.5 163.5 180.5 163.5 C 181.9 163.5 182.6 164.3 182.6 165.8 C 182.63 165.84 182.6 171.4 182.6 171.4 L 181.8 171.4 C 181.8 171.4 181.81 166 181.8 166 Z " stroke="none" fill="#242423"/>
  </g>
  <g id="Polygon241173">
    <path d="M 98.5 129 L 99.4 129 L 99.4 138.8 L 104.5 138.8 L 104.5 139.6 L 98.5 139.6 L 98.5 129 Z M 105.4 135.8 C 105.4 133.5 106.9 131.7 109.1 131.7 C 111.4 131.7 112.8 133.5 112.8 135.8 C 112.8 138 111.4 139.8 109.1 139.8 C 106.9 139.8 105.4 138 105.4 135.8 Z M 111.9 135.8 C 111.9 134.1 110.9 132.5 109.1 132.5 C 107.3 132.5 106.3 134.1 106.3 135.8 C 106.3 137.5 107.3 139.1 109.1 139.1 C 110.9 139.1 111.9 137.5 111.9 135.8 Z M 114.8 131.9 L 115.6 131.9 C 115.6 131.9 115.62 133.25 115.6 133.3 C 116.3 132.4 117.1 131.8 118.2 131.8 C 118.2 131.8 118.2 132.7 118.2 132.7 C 118.1 132.7 118 132.6 117.8 132.6 C 117 132.6 116 133.3 115.6 134 C 115.62 134.01 115.6 139.6 115.6 139.6 L 114.8 139.6 L 114.8 131.9 Z M 122.9 131.7 C 125.3 131.7 126.6 133.6 126.6 135.8 C 126.55 135.81 126.6 136 126.6 136 C 126.6 136 120.13 136.03 120.1 136 C 120.2 137.7 121.3 139.1 123.1 139.1 C 124.1 139.1 125 138.7 125.6 138 C 125.6 138 126.1 138.6 126.1 138.6 C 125.3 139.4 124.3 139.8 123.1 139.8 C 120.8 139.8 119.2 138.1 119.2 135.8 C 119.2 133.5 120.8 131.7 122.9 131.7 Z M 120.1 135.4 C 120.1 135.4 125.7 135.4 125.7 135.4 C 125.7 134.1 124.8 132.5 122.9 132.5 C 121.1 132.5 120.2 134 120.1 135.4 Z M 137.7 134.2 C 137.7 133.2 137.2 132.5 136.1 132.5 C 135.3 132.5 134.3 133.1 133.9 133.8 C 133.92 133.79 133.9 139.6 133.9 139.6 L 133.1 139.6 C 133.1 139.6 133.08 134.24 133.1 134.2 C 133.1 133.2 132.6 132.5 131.5 132.5 C 130.7 132.5 129.8 133.1 129.3 133.8 C 129.35 133.81 129.3 139.6 129.3 139.6 L 128.5 139.6 L 128.5 131.9 L 129.3 131.9 C 129.3 131.9 129.35 133.09 129.3 133.1 C 129.7 132.6 130.7 131.7 131.8 131.7 C 133 131.7 133.7 132.4 133.8 133.2 C 134.3 132.5 135.3 131.7 136.4 131.7 C 137.8 131.7 138.5 132.5 138.5 134.1 C 138.48 134.08 138.5 139.6 138.5 139.6 L 137.7 139.6 C 137.7 139.6 137.65 134.24 137.7 134.2 Z M 144.9 129 L 145.8 129 L 145.8 139.6 L 144.9 139.6 L 144.9 129 Z M 148.2 142.5 L 148.2 131.9 L 149.1 131.9 C 149.1 131.9 149.06 133.16 149.1 133.2 C 149.6 132.4 150.6 131.7 151.7 131.7 C 153.8 131.7 155.2 133.3 155.2 135.8 C 155.2 138.2 153.8 139.8 151.7 139.8 C 150.6 139.8 149.7 139.2 149.1 138.4 C 149.06 138.37 149.1 142.5 149.1 142.5 L 148.2 142.5 Z M 151.6 132.5 C 150.5 132.5 149.5 133.1 149.1 133.9 C 149.1 133.9 149.1 137.7 149.1 137.7 C 149.5 138.4 150.5 139.1 151.6 139.1 C 153.3 139.1 154.3 137.6 154.3 135.8 C 154.3 133.9 153.3 132.5 151.6 132.5 Z M 156.9 138 C 157.4 138.6 158.3 139.1 159.4 139.1 C 160.7 139.1 161.5 138.5 161.5 137.6 C 161.5 136.6 160.4 136.3 159.3 136 C 158 135.7 156.6 135.4 156.6 133.9 C 156.6 132.7 157.6 131.7 159.4 131.7 C 160.7 131.7 161.6 132.3 162.1 132.9 C 162.1 132.9 161.7 133.5 161.7 133.5 C 161.2 132.9 160.4 132.4 159.4 132.4 C 158.2 132.4 157.4 133 157.4 133.8 C 157.4 134.7 158.4 134.9 159.5 135.2 C 160.8 135.5 162.3 135.9 162.3 137.5 C 162.3 138.8 161.3 139.8 159.4 139.8 C 158.2 139.8 157.2 139.4 156.5 138.6 C 156.5 138.6 156.9 138 156.9 138 Z M 169.4 138.5 C 168.8 139.2 167.8 139.8 166.7 139.8 C 165.1 139.8 164.3 139.1 164.3 137.3 C 164.26 137.34 164.3 131.9 164.3 131.9 L 165.1 131.9 C 165.1 131.9 165.08 137.15 165.1 137.1 C 165.1 138.6 165.8 139.1 166.9 139.1 C 167.9 139.1 168.9 138.5 169.4 137.8 C 169.43 137.78 169.4 131.9 169.4 131.9 L 170.3 131.9 L 170.3 139.6 L 169.4 139.6 C 169.4 139.6 169.43 138.48 169.4 138.5 Z M 181.8 134.2 C 181.8 133.2 181.3 132.5 180.3 132.5 C 179.4 132.5 178.5 133.1 178.1 133.8 C 178.07 133.79 178.1 139.6 178.1 139.6 L 177.2 139.6 C 177.2 139.6 177.23 134.24 177.2 134.2 C 177.2 133.2 176.8 132.5 175.7 132.5 C 174.9 132.5 174 133.1 173.5 133.8 C 173.5 133.81 173.5 139.6 173.5 139.6 L 172.7 139.6 L 172.7 131.9 L 173.5 131.9 C 173.5 131.9 173.5 133.09 173.5 133.1 C 173.8 132.6 174.9 131.7 176 131.7 C 177.2 131.7 177.8 132.4 178 133.2 C 178.4 132.5 179.5 131.7 180.5 131.7 C 181.9 131.7 182.6 132.5 182.6 134.1 C 182.63 134.08 182.6 139.6 182.6 139.6 L 181.8 139.6 C 181.8 139.6 181.81 134.24 181.8 134.2 Z " stroke="none" fill="#242423"/>
  </g>
  <g id="Polygon241172">
    <path d="M 98.5 97.2 L 99.4 97.2 L 99.4 107 L 104.5 107 L 104.5 107.8 L 98.5 107.8 L 98.5 97.2 Z M 105.4 104 C 105.4 101.8 106.9 100 109.1 100 C 111.4 100 112.8 101.8 112.8 104 C 112.8 106.2 111.4 108 109.1 108 C 106.9 108 105.4 106.2 105.4 104 Z M 111.9 104 C 111.9 102.3 110.9 100.7 109.1 100.7 C 107.3 100.7 106.3 102.3 106.3 104 C 106.3 105.7 107.3 107.3 109.1 107.3 C 110.9 107.3 111.9 105.7 111.9 104 Z M 114.8 100.2 L 115.6 100.2 C 115.6 100.2 115.62 101.49 115.6 101.5 C 116.3 100.6 117.1 100 118.2 100 C 118.2 100 118.2 100.9 118.2 100.9 C 118.1 100.9 118 100.9 117.8 100.9 C 117 100.9 116 101.6 115.6 102.2 C 115.62 102.25 115.6 107.8 115.6 107.8 L 114.8 107.8 L 114.8 100.2 Z M 122.9 100 C 125.3 100 126.6 101.8 126.6 104 C 126.55 104.04 126.6 104.3 126.6 104.3 C 126.6 104.3 120.13 104.27 120.1 104.3 C 120.2 105.9 121.3 107.3 123.1 107.3 C 124.1 107.3 125 107 125.6 106.3 C 125.6 106.3 126.1 106.8 126.1 106.8 C 125.3 107.6 124.3 108 123.1 108 C 120.8 108 119.2 106.4 119.2 104 C 119.2 101.8 120.8 100 122.9 100 Z M 120.1 103.6 C 120.1 103.6 125.7 103.6 125.7 103.6 C 125.7 102.3 124.8 100.7 122.9 100.7 C 121.1 100.7 120.2 102.3 120.1 103.6 Z M 137.7 102.5 C 137.7 101.4 137.2 100.7 136.1 100.7 C 135.3 100.7 134.3 101.3 133.9 102 C 133.92 102.03 133.9 107.8 133.9 107.8 L 133.1 107.8 C 133.1 107.8 133.08 102.47 133.1 102.5 C 133.1 101.4 132.6 100.7 131.5 100.7 C 130.7 100.7 129.8 101.3 129.3 102 C 129.35 102.04 129.3 107.8 129.3 107.8 L 128.5 107.8 L 128.5 100.2 L 129.3 100.2 C 129.3 100.2 129.35 101.33 129.3 101.3 C 129.7 100.8 130.7 100 131.8 100 C 133 100 133.7 100.7 133.8 101.4 C 134.3 100.7 135.3 100 136.4 100 C 137.8 100 138.5 100.8 138.5 102.3 C 138.48 102.31 138.5 107.8 138.5 107.8 L 137.7 107.8 C 137.7 107.8 137.65 102.47 137.7 102.5 Z M 144.9 97.2 L 145.8 97.2 L 145.8 107.8 L 144.9 107.8 L 144.9 97.2 Z M 148.2 110.8 L 148.2 100.2 L 149.1 100.2 C 149.1 100.2 149.06 101.39 149.1 101.4 C 149.6 100.6 150.6 100 151.7 100 C 153.8 100 155.2 101.5 155.2 104 C 155.2 106.4 153.8 108 151.7 108 C 150.6 108 149.7 107.5 149.1 106.6 C 149.06 106.6 149.1 110.8 149.1 110.8 L 148.2 110.8 Z M 151.6 100.7 C 150.5 100.7 149.5 101.4 149.1 102.1 C 149.1 102.1 149.1 105.9 149.1 105.9 C 149.5 106.6 150.5 107.3 151.6 107.3 C 153.3 107.3 154.3 105.9 154.3 104 C 154.3 102.1 153.3 100.7 151.6 100.7 Z M 156.9 106.2 C 157.4 106.8 158.3 107.3 159.4 107.3 C 160.7 107.3 161.5 106.7 161.5 105.8 C 161.5 104.8 160.4 104.5 159.3 104.3 C 158 103.9 156.6 103.6 156.6 102.1 C 156.6 100.9 157.6 100 159.4 100 C 160.7 100 161.6 100.5 162.1 101.1 C 162.1 101.1 161.7 101.7 161.7 101.7 C 161.2 101.1 160.4 100.7 159.4 100.7 C 158.2 100.7 157.4 101.3 157.4 102.1 C 157.4 102.9 158.4 103.2 159.5 103.4 C 160.8 103.8 162.3 104.1 162.3 105.8 C 162.3 107 161.3 108 159.4 108 C 158.2 108 157.2 107.7 156.5 106.8 C 156.5 106.8 156.9 106.2 156.9 106.2 Z M 169.4 106.7 C 168.8 107.4 167.8 108 166.7 108 C 165.1 108 164.3 107.3 164.3 105.6 C 164.26 105.57 164.3 100.2 164.3 100.2 L 165.1 100.2 C 165.1 100.2 165.08 105.38 165.1 105.4 C 165.1 106.9 165.8 107.3 166.9 107.3 C 167.9 107.3 168.9 106.7 169.4 106 C 169.43 106.02 169.4 100.2 169.4 100.2 L 170.3 100.2 L 170.3 107.8 L 169.4 107.8 C 169.4 107.8 169.43 106.71 169.4 106.7 Z M 181.8 102.5 C 181.8 101.4 181.3 100.7 180.3 100.7 C 179.4 100.7 178.5 101.3 178.1 102 C 178.07 102.03 178.1 107.8 178.1 107.8 L 177.2 107.8 C 177.2 107.8 177.23 102.47 177.2 102.5 C 177.2 101.4 176.8 100.7 175.7 100.7 C 174.9 100.7 174 101.3 173.5 102 C 173.5 102.04 173.5 107.8 173.5 107.8 L 172.7 107.8 L 172.7 100.2 L 173.5 100.2 C 173.5 100.2 173.5 101.33 173.5 101.3 C 173.8 100.8 174.9 100 176 100 C 177.2 100 177.8 100.7 178 101.4 C 178.4 100.7 179.5 100 180.5 100 C 181.9 100 182.6 100.8 182.6 102.3 C 182.63 102.31 182.6 107.8 182.6 107.8 L 181.8 107.8 C 181.8 107.8 181.81 102.47 181.8 102.5 Z " stroke="none" fill="#242423"/>
  </g>
  <g id="Polygon241171">
    <path d="M 98.5 65.5 L 99.4 65.5 L 99.4 75.3 L 104.5 75.3 L 104.5 76.1 L 98.5 76.1 L 98.5 65.5 Z M 105.4 72.2 C 105.4 70 106.9 68.2 109.1 68.2 C 111.4 68.2 112.8 70 112.8 72.2 C 112.8 74.5 111.4 76.3 109.1 76.3 C 106.9 76.3 105.4 74.5 105.4 72.2 Z M 111.9 72.2 C 111.9 70.5 110.9 69 109.1 69 C 107.3 69 106.3 70.5 106.3 72.2 C 106.3 73.9 107.3 75.5 109.1 75.5 C 110.9 75.5 111.9 73.9 111.9 72.2 Z M 114.8 68.4 L 115.6 68.4 C 115.6 68.4 115.62 69.72 115.6 69.7 C 116.3 68.9 117.1 68.2 118.2 68.2 C 118.2 68.2 118.2 69.2 118.2 69.2 C 118.1 69.1 118 69.1 117.8 69.1 C 117 69.1 116 69.8 115.6 70.5 C 115.62 70.48 115.6 76.1 115.6 76.1 L 114.8 76.1 L 114.8 68.4 Z M 122.9 68.2 C 125.3 68.2 126.6 70.1 126.6 72.3 C 126.55 72.28 126.6 72.5 126.6 72.5 C 126.6 72.5 120.13 72.5 120.1 72.5 C 120.2 74.2 121.3 75.6 123.1 75.6 C 124.1 75.6 125 75.2 125.6 74.5 C 125.6 74.5 126.1 75 126.1 75 C 125.3 75.8 124.3 76.3 123.1 76.3 C 120.8 76.3 119.2 74.6 119.2 72.2 C 119.2 70 120.8 68.2 122.9 68.2 Z M 120.1 71.9 C 120.1 71.9 125.7 71.9 125.7 71.9 C 125.7 70.5 124.8 68.9 122.9 68.9 C 121.1 68.9 120.2 70.5 120.1 71.9 Z M 137.7 70.7 C 137.7 69.6 137.2 69 136.1 69 C 135.3 69 134.3 69.6 133.9 70.3 C 133.92 70.26 133.9 76.1 133.9 76.1 L 133.1 76.1 C 133.1 76.1 133.08 70.71 133.1 70.7 C 133.1 69.6 132.6 69 131.5 69 C 130.7 69 129.8 69.6 129.3 70.3 C 129.35 70.28 129.3 76.1 129.3 76.1 L 128.5 76.1 L 128.5 68.4 L 129.3 68.4 C 129.3 68.4 129.35 69.56 129.3 69.6 C 129.7 69.1 130.7 68.2 131.8 68.2 C 133 68.2 133.7 68.9 133.8 69.7 C 134.3 68.9 135.3 68.2 136.4 68.2 C 137.8 68.2 138.5 69 138.5 70.5 C 138.48 70.55 138.5 76.1 138.5 76.1 L 137.7 76.1 C 137.7 76.1 137.65 70.71 137.7 70.7 Z M 144.9 65.5 L 145.8 65.5 L 145.8 76.1 L 144.9 76.1 L 144.9 65.5 Z M 148.2 79 L 148.2 68.4 L 149.1 68.4 C 149.1 68.4 149.06 69.63 149.1 69.6 C 149.6 68.8 150.6 68.2 151.7 68.2 C 153.8 68.2 155.2 69.8 155.2 72.2 C 155.2 74.7 153.8 76.3 151.7 76.3 C 150.6 76.3 149.7 75.7 149.1 74.8 C 149.06 74.84 149.1 79 149.1 79 L 148.2 79 Z M 151.6 69 C 150.5 69 149.5 69.6 149.1 70.3 C 149.1 70.3 149.1 74.1 149.1 74.1 C 149.5 74.9 150.5 75.5 151.6 75.5 C 153.3 75.5 154.3 74.1 154.3 72.2 C 154.3 70.4 153.3 69 151.6 69 Z M 156.9 74.4 C 157.4 75.1 158.3 75.6 159.4 75.6 C 160.7 75.6 161.5 74.9 161.5 74 C 161.5 73.1 160.4 72.8 159.3 72.5 C 158 72.2 156.6 71.8 156.6 70.3 C 156.6 69.2 157.6 68.2 159.4 68.2 C 160.7 68.2 161.6 68.7 162.1 69.4 C 162.1 69.4 161.7 69.9 161.7 69.9 C 161.2 69.3 160.4 68.9 159.4 68.9 C 158.2 68.9 157.4 69.5 157.4 70.3 C 157.4 71.2 158.4 71.4 159.5 71.7 C 160.8 72 162.3 72.4 162.3 74 C 162.3 75.3 161.3 76.3 159.4 76.3 C 158.2 76.3 157.2 75.9 156.5 75.1 C 156.5 75.1 156.9 74.4 156.9 74.4 Z M 169.4 74.9 C 168.8 75.6 167.8 76.3 166.7 76.3 C 165.1 76.3 164.3 75.5 164.3 73.8 C 164.26 73.81 164.3 68.4 164.3 68.4 L 165.1 68.4 C 165.1 68.4 165.08 73.62 165.1 73.6 C 165.1 75.1 165.8 75.5 166.9 75.5 C 167.9 75.5 168.9 74.9 169.4 74.3 C 169.43 74.25 169.4 68.4 169.4 68.4 L 170.3 68.4 L 170.3 76.1 L 169.4 76.1 C 169.4 76.1 169.43 74.95 169.4 74.9 Z M 181.8 70.7 C 181.8 69.6 181.3 69 180.3 69 C 179.4 69 178.5 69.6 178.1 70.3 C 178.07 70.26 178.1 76.1 178.1 76.1 L 177.2 76.1 C 177.2 76.1 177.23 70.71 177.2 70.7 C 177.2 69.6 176.8 69 175.7 69 C 174.9 69 174 69.6 173.5 70.3 C 173.5 70.28 173.5 76.1 173.5 76.1 L 172.7 76.1 L 172.7 68.4 L 173.5 68.4 C 173.5 68.4 173.5 69.56 173.5 69.6 C 173.8 69.1 174.9 68.2 176 68.2 C 177.2 68.2 177.8 68.9 178 69.7 C 178.4 68.9 179.5 68.2 180.5 68.2 C 181.9 68.2 182.6 69 182.6 70.5 C 182.63 70.55 182.6 76.1 182.6 76.1 L 181.8 76.1 C 181.8 76.1 181.81 70.71 181.8 70.7 Z " stroke="none" fill="#242423"/>
  </g>
  <g id="Polygon241170">
    <path d="M 98.5 33.7 L 99.4 33.7 L 99.4 43.5 L 104.5 43.5 L 104.5 44.3 L 98.5 44.3 L 98.5 33.7 Z M 105.4 40.5 C 105.4 38.2 106.9 36.5 109.1 36.5 C 111.4 36.5 112.8 38.2 112.8 40.5 C 112.8 42.7 111.4 44.5 109.1 44.5 C 106.9 44.5 105.4 42.7 105.4 40.5 Z M 111.9 40.5 C 111.9 38.8 110.9 37.2 109.1 37.2 C 107.3 37.2 106.3 38.8 106.3 40.5 C 106.3 42.2 107.3 43.8 109.1 43.8 C 110.9 43.8 111.9 42.2 111.9 40.5 Z M 114.8 36.6 L 115.6 36.6 C 115.6 36.6 115.62 37.96 115.6 38 C 116.3 37.1 117.1 36.5 118.2 36.5 C 118.2 36.5 118.2 37.4 118.2 37.4 C 118.1 37.4 118 37.4 117.8 37.4 C 117 37.4 116 38.1 115.6 38.7 C 115.62 38.72 115.6 44.3 115.6 44.3 L 114.8 44.3 L 114.8 36.6 Z M 122.9 36.5 C 125.3 36.5 126.6 38.3 126.6 40.5 C 126.55 40.52 126.6 40.7 126.6 40.7 C 126.6 40.7 120.13 40.74 120.1 40.7 C 120.2 42.4 121.3 43.8 123.1 43.8 C 124.1 43.8 125 43.4 125.6 42.7 C 125.6 42.7 126.1 43.3 126.1 43.3 C 125.3 44.1 124.3 44.5 123.1 44.5 C 120.8 44.5 119.2 42.8 119.2 40.5 C 119.2 38.2 120.8 36.5 122.9 36.5 Z M 120.1 40.1 C 120.1 40.1 125.7 40.1 125.7 40.1 C 125.7 38.8 124.8 37.2 122.9 37.2 C 121.1 37.2 120.2 38.8 120.1 40.1 Z M 137.7 38.9 C 137.7 37.9 137.2 37.2 136.1 37.2 C 135.3 37.2 134.3 37.8 133.9 38.5 C 133.92 38.5 133.9 44.3 133.9 44.3 L 133.1 44.3 C 133.1 44.3 133.08 38.94 133.1 38.9 C 133.1 37.9 132.6 37.2 131.5 37.2 C 130.7 37.2 129.8 37.8 129.3 38.5 C 129.35 38.51 129.3 44.3 129.3 44.3 L 128.5 44.3 L 128.5 36.6 L 129.3 36.6 C 129.3 36.6 129.35 37.8 129.3 37.8 C 129.7 37.3 130.7 36.5 131.8 36.5 C 133 36.5 133.7 37.1 133.8 37.9 C 134.3 37.2 135.3 36.5 136.4 36.5 C 137.8 36.5 138.5 37.2 138.5 38.8 C 138.48 38.78 138.5 44.3 138.5 44.3 L 137.7 44.3 C 137.7 44.3 137.65 38.94 137.7 38.9 Z M 144.9 33.7 L 145.8 33.7 L 145.8 44.3 L 144.9 44.3 L 144.9 33.7 Z M 148.2 47.2 L 148.2 36.6 L 149.1 36.6 C 149.1 36.6 149.06 37.86 149.1 37.9 C 149.6 37.1 150.6 36.5 151.7 36.5 C 153.8 36.5 155.2 38 155.2 40.5 C 155.2 42.9 153.8 44.5 151.7 44.5 C 150.6 44.5 149.7 43.9 149.1 43.1 C 149.06 43.07 149.1 47.2 149.1 47.2 L 148.2 47.2 Z M 151.6 37.2 C 150.5 37.2 149.5 37.8 149.1 38.6 C 149.1 38.6 149.1 42.4 149.1 42.4 C 149.5 43.1 150.5 43.8 151.6 43.8 C 153.3 43.8 154.3 42.3 154.3 40.5 C 154.3 38.6 153.3 37.2 151.6 37.2 Z M 156.9 42.7 C 157.4 43.3 158.3 43.8 159.4 43.8 C 160.7 43.8 161.5 43.2 161.5 42.3 C 161.5 41.3 160.4 41 159.3 40.7 C 158 40.4 156.6 40.1 156.6 38.6 C 156.6 37.4 157.6 36.5 159.4 36.5 C 160.7 36.5 161.6 37 162.1 37.6 C 162.1 37.6 161.7 38.2 161.7 38.2 C 161.2 37.6 160.4 37.1 159.4 37.1 C 158.2 37.1 157.4 37.7 157.4 38.5 C 157.4 39.4 158.4 39.6 159.5 39.9 C 160.8 40.2 162.3 40.6 162.3 42.2 C 162.3 43.5 161.3 44.5 159.4 44.5 C 158.2 44.5 157.2 44.1 156.5 43.3 C 156.5 43.3 156.9 42.7 156.9 42.7 Z M 169.4 43.2 C 168.8 43.9 167.8 44.5 166.7 44.5 C 165.1 44.5 164.3 43.8 164.3 42 C 164.26 42.04 164.3 36.6 164.3 36.6 L 165.1 36.6 C 165.1 36.6 165.08 41.85 165.1 41.9 C 165.1 43.3 165.8 43.8 166.9 43.8 C 167.9 43.8 168.9 43.2 169.4 42.5 C 169.43 42.49 169.4 36.6 169.4 36.6 L 170.3 36.6 L 170.3 44.3 L 169.4 44.3 C 169.4 44.3 169.43 43.19 169.4 43.2 Z M 181.8 38.9 C 181.8 37.9 181.3 37.2 180.3 37.2 C 179.4 37.2 178.5 37.8 178.1 38.5 C 178.07 38.5 178.1 44.3 178.1 44.3 L 177.2 44.3 C 177.2 44.3 177.23 38.94 177.2 38.9 C 177.2 37.9 176.8 37.2 175.7 37.2 C 174.9 37.2 174 37.8 173.5 38.5 C 173.5 38.51 173.5 44.3 173.5 44.3 L 172.7 44.3 L 172.7 36.6 L 173.5 36.6 C 173.5 36.6 173.5 37.8 173.5 37.8 C 173.8 37.3 174.9 36.5 176 36.5 C 177.2 36.5 177.8 37.1 178 37.9 C 178.4 37.2 179.5 36.5 180.5 36.5 C 181.9 36.5 182.6 37.2 182.6 38.8 C 182.63 38.78 182.6 44.3 182.6 44.3 L 181.8 44.3 C 181.8 44.3 181.81 38.94 181.8 38.9 Z " stroke="none" fill="#242423"/>
  </g>
  <g id="Polygon241169">
    <path d="M 98.5 2 L 99.4 2 L 99.4 11.7 L 104.5 11.7 L 104.5 12.5 L 98.5 12.5 L 98.5 2 Z M 105.4 8.7 C 105.4 6.5 106.9 4.7 109.1 4.7 C 111.4 4.7 112.8 6.5 112.8 8.7 C 112.8 10.9 111.4 12.7 109.1 12.7 C 106.9 12.7 105.4 10.9 105.4 8.7 Z M 111.9 8.7 C 111.9 7 110.9 5.4 109.1 5.4 C 107.3 5.4 106.3 7 106.3 8.7 C 106.3 10.4 107.3 12 109.1 12 C 110.9 12 111.9 10.4 111.9 8.7 Z M 114.8 4.9 L 115.6 4.9 C 115.6 4.9 115.62 6.19 115.6 6.2 C 116.3 5.3 117.1 4.7 118.2 4.7 C 118.2 4.7 118.2 5.6 118.2 5.6 C 118.1 5.6 118 5.6 117.8 5.6 C 117 5.6 116 6.3 115.6 7 C 115.62 6.96 115.6 12.5 115.6 12.5 L 114.8 12.5 L 114.8 4.9 Z M 122.9 4.7 C 125.3 4.7 126.6 6.5 126.6 8.8 C 126.55 8.75 126.6 9 126.6 9 C 126.6 9 120.13 8.97 120.1 9 C 120.2 10.6 121.3 12 123.1 12 C 124.1 12 125 11.7 125.6 11 C 125.6 11 126.1 11.5 126.1 11.5 C 125.3 12.3 124.3 12.7 123.1 12.7 C 120.8 12.7 119.2 11.1 119.2 8.7 C 119.2 6.5 120.8 4.7 122.9 4.7 Z M 120.1 8.3 C 120.1 8.3 125.7 8.3 125.7 8.3 C 125.7 7 124.8 5.4 122.9 5.4 C 121.1 5.4 120.2 7 120.1 8.3 Z M 137.7 7.2 C 137.7 6.1 137.2 5.4 136.1 5.4 C 135.3 5.4 134.3 6 133.9 6.7 C 133.92 6.73 133.9 12.5 133.9 12.5 L 133.1 12.5 C 133.1 12.5 133.08 7.18 133.1 7.2 C 133.1 6.1 132.6 5.4 131.5 5.4 C 130.7 5.4 129.8 6.1 129.3 6.7 C 129.35 6.75 129.3 12.5 129.3 12.5 L 128.5 12.5 L 128.5 4.9 L 129.3 4.9 C 129.3 4.9 129.35 6.03 129.3 6 C 129.7 5.5 130.7 4.7 131.8 4.7 C 133 4.7 133.7 5.4 133.8 6.1 C 134.3 5.4 135.3 4.7 136.4 4.7 C 137.8 4.7 138.5 5.5 138.5 7 C 138.48 7.02 138.5 12.5 138.5 12.5 L 137.7 12.5 C 137.7 12.5 137.65 7.18 137.7 7.2 Z M 144.9 2 L 145.8 2 L 145.8 12.5 L 144.9 12.5 L 144.9 2 Z M 148.2 15.5 L 148.2 4.9 L 149.1 4.9 C 149.1 4.9 149.06 6.1 149.1 6.1 C 149.6 5.3 150.6 4.7 151.7 4.7 C 153.8 4.7 155.2 6.2 155.2 8.7 C 155.2 11.2 153.8 12.7 151.7 12.7 C 150.6 12.7 149.7 12.2 149.1 11.3 C 149.06 11.31 149.1 15.5 149.1 15.5 L 148.2 15.5 Z M 151.6 5.4 C 150.5 5.4 149.5 6.1 149.1 6.8 C 149.1 6.8 149.1 10.6 149.1 10.6 C 149.5 11.3 150.5 12 151.6 12 C 153.3 12 154.3 10.6 154.3 8.7 C 154.3 6.8 153.3 5.4 151.6 5.4 Z M 156.9 10.9 C 157.4 11.5 158.3 12 159.4 12 C 160.7 12 161.5 11.4 161.5 10.5 C 161.5 9.5 160.4 9.2 159.3 9 C 158 8.6 156.6 8.3 156.6 6.8 C 156.6 5.6 157.6 4.7 159.4 4.7 C 160.7 4.7 161.6 5.2 162.1 5.8 C 162.1 5.8 161.7 6.4 161.7 6.4 C 161.2 5.8 160.4 5.4 159.4 5.4 C 158.2 5.4 157.4 6 157.4 6.8 C 157.4 7.6 158.4 7.9 159.5 8.1 C 160.8 8.5 162.3 8.8 162.3 10.5 C 162.3 11.7 161.3 12.7 159.4 12.7 C 158.2 12.7 157.2 12.4 156.5 11.5 C 156.5 11.5 156.9 10.9 156.9 10.9 Z M 169.4 11.4 C 168.8 12.1 167.8 12.7 166.7 12.7 C 165.1 12.7 164.3 12 164.3 10.3 C 164.26 10.28 164.3 4.9 164.3 4.9 L 165.1 4.9 C 165.1 4.9 165.08 10.09 165.1 10.1 C 165.1 11.6 165.8 12 166.9 12 C 167.9 12 168.9 11.4 169.4 10.7 C 169.43 10.72 169.4 4.9 169.4 4.9 L 170.3 4.9 L 170.3 12.5 L 169.4 12.5 C 169.4 12.5 169.43 11.42 169.4 11.4 Z M 181.8 7.2 C 181.8 6.1 181.3 5.4 180.3 5.4 C 179.4 5.4 178.5 6 178.1 6.7 C 178.07 6.73 178.1 12.5 178.1 12.5 L 177.2 12.5 C 177.2 12.5 177.23 7.18 177.2 7.2 C 177.2 6.1 176.8 5.4 175.7 5.4 C 174.9 5.4 174 6.1 173.5 6.7 C 173.5 6.75 173.5 12.5 173.5 12.5 L 172.7 12.5 L 172.7 4.9 L 173.5 4.9 C 173.5 4.9 173.5 6.03 173.5 6 C 173.8 5.5 174.9 4.7 176 4.7 C 177.2 4.7 177.8 5.4 178 6.1 C 178.4 5.4 179.5 4.7 180.5 4.7 C 181.9 4.7 182.6 5.5 182.6 7 C 182.63 7.02 182.6 12.5 182.6 12.5 L 181.8 12.5 C 181.8 12.5 181.81 7.18 181.8 7.2 Z " stroke="none" fill="#242423"/>
  </g>
</svg>