<?xml version="1.0" standalone="no"?><!DOCTYPE svg PUBLIC "-//W3C//DTD SVG 1.1//EN" "http://www.w3.org/Graphics/SVG/1.1/DTD/svg11.dtd"><svg xmlns="http://www.w3.org/2000/svg" version="1.1" width="15.1px" height="31px" viewBox="0 -6 15.1 31" style="top:-6px"><desc>03</desc><defs/><g id="Polygon82460"><path d="m7 4v7.5c0 1.9-1.1 2.7-3 2.7h-.1C2 14.2.8 13.4.8 11.5V4C.8 2.1 2 1.3 3.9 1.3h.1c1.9 0 3 .8 3 2.7zm-3.1-.9c-.6 0-1.1.3-1.1 1.2v6.9c0 .9.5 1.1 1.1 1.1c.7 0 1.1-.2 1.1-1.1V4.3c0-.9-.4-1.2-1.1-1.2zm9.3 4.4c1.1.2 1.2 1.1 1.2 1.8v2.2c0 1.8-.9 2.7-2.8 2.7h-.4c-1.9 0-2.8-.9-2.8-2.7c-.01.02 0-1.7 0-1.7h2v1.5c0 .9.5 1.2.9 1.2h.2c.5 0 .9-.3.9-1.2v-2c0-.6-.4-.9-.9-.9c.04-.03-1.5 0-1.5 0V6.7s1.36-.02 1.4 0c.6 0 1-.3 1-1.2V4.2c0-.9-.4-1.2-.9-1.2h-.2c-.5 0-.9.3-.9 1.2c-.03-.02 0 1.2 0 1.2h-2V4c0-2 1.1-2.7 2.9-2.7h.2c1.8 0 2.9.7 2.9 2.7v1.5c0 .8-.2 1.8-1.2 2z" stroke="none" fill="#fff"/></g></svg>