<?xml version="1.0" standalone="no"?>
<!DOCTYPE svg PUBLIC "-//W3C//DTD SVG 1.1//EN" "http://www.w3.org/Graphics/SVG/1.1/DTD/svg11.dtd">
<svg xmlns="http://www.w3.org/2000/svg" version="1.1" width="106.4px" height="31.9px" viewBox="0 -6 106.4 31.9" style="top:-6px">
  <desc>Agent 1</desc>
  <defs/>
  <g id="Polygon265738">
    <path d="M 60.6 12.7 C 60.65 12.72 60.6 14.1 60.6 14.1 L 59.9 14.1 C 59.9 14.1 59.92 12.74 59.9 12.7 C 58.3 12.7 57.1 12 56.3 11.1 C 56.3 11.1 56.9 10.4 56.9 10.4 C 57.5 11.1 58.6 11.8 59.9 11.9 C 59.9 11.9 59.9 7.4 59.9 7.4 C 58.3 7 56.7 6.5 56.7 4.6 C 56.7 3 58.1 1.9 59.9 1.8 C 59.92 1.8 59.9 0.4 59.9 0.4 L 60.6 0.4 C 60.6 0.4 60.65 1.81 60.6 1.8 C 62 1.9 63 2.4 63.7 3.3 C 63.7 3.3 63.1 3.9 63.1 3.9 C 62.5 3.2 61.6 2.7 60.6 2.7 C 60.6 2.7 60.6 6.6 60.6 6.6 C 62.3 7.1 64 7.7 64 9.8 C 64 11 63.2 12.6 60.6 12.7 Z M 59.9 6.4 C 59.9 6.4 59.9 2.6 59.9 2.6 C 58.6 2.7 57.6 3.5 57.6 4.6 C 57.6 5.7 58.7 6.1 59.9 6.4 Z M 63 9.8 C 63 8.5 61.9 8 60.6 7.6 C 60.6 7.6 60.6 11.9 60.6 11.9 C 62.5 11.8 63 10.6 63 9.8 Z M 69.7 1.8 C 72.5 1.8 73.6 4.7 73.6 7.3 C 73.6 9.8 72.5 12.7 69.7 12.7 C 66.8 12.7 65.8 9.8 65.8 7.3 C 65.8 4.7 66.8 1.8 69.7 1.8 Z M 69.7 2.6 C 67.5 2.6 66.7 5.1 66.7 7.3 C 66.7 9.4 67.5 11.9 69.7 11.9 C 71.9 11.9 72.6 9.4 72.6 7.3 C 72.6 5.1 71.9 2.6 69.7 2.6 Z M 74.9 14.1 C 75.4 13.8 75.8 13.1 75.8 12.6 C 75.8 12.6 75.6 12.7 75.6 12.7 C 75.2 12.7 75 12.4 75 12 C 75 11.6 75.3 11.3 75.7 11.3 C 76.1 11.3 76.5 11.7 76.5 12.3 C 76.5 13.2 75.9 14.1 75.3 14.5 C 75.3 14.5 74.9 14.1 74.9 14.1 Z M 82.3 1.8 C 85.1 1.8 86.2 4.7 86.2 7.3 C 86.2 9.8 85.1 12.7 82.3 12.7 C 79.4 12.7 78.3 9.8 78.3 7.3 C 78.3 4.7 79.4 1.8 82.3 1.8 Z M 82.3 2.6 C 80 2.6 79.3 5.1 79.3 7.3 C 79.3 9.4 80 11.9 82.3 11.9 C 84.5 11.9 85.2 9.4 85.2 7.3 C 85.2 5.1 84.5 2.6 82.3 2.6 Z M 91.9 1.8 C 94.7 1.8 95.8 4.7 95.8 7.3 C 95.8 9.8 94.7 12.7 91.9 12.7 C 89.1 12.7 88 9.8 88 7.3 C 88 4.7 89.1 1.8 91.9 1.8 Z M 91.9 2.6 C 89.7 2.6 88.9 5.1 88.9 7.3 C 88.9 9.4 89.7 11.9 91.9 11.9 C 94.1 11.9 94.9 9.4 94.9 7.3 C 94.9 5.1 94.1 2.6 91.9 2.6 Z M 101.6 1.8 C 104.4 1.8 105.5 4.7 105.5 7.3 C 105.5 9.8 104.4 12.7 101.6 12.7 C 98.7 12.7 97.7 9.8 97.7 7.3 C 97.7 4.7 98.7 1.8 101.6 1.8 Z M 101.6 2.6 C 99.3 2.6 98.6 5.1 98.6 7.3 C 98.6 9.4 99.3 11.9 101.6 11.9 C 103.8 11.9 104.5 9.4 104.5 7.3 C 104.5 5.1 103.8 2.6 101.6 2.6 Z " stroke="none" fill="#000"/>
  </g>
</svg>