<?xml version="1.0" standalone="no"?><!DOCTYPE svg PUBLIC "-//W3C//DTD SVG 1.1//EN" "http://www.w3.org/Graphics/SVG/1.1/DTD/svg11.dtd"><svg xmlns="http://www.w3.org/2000/svg" xmlns:xlink="http://www.w3.org/1999/xlink" version="1.1" width="237px" height="47.9px" viewBox="0 -14 237 47.9" style="top:-14px"><desc/><defs/><g id="Polygon52445"><path d="m109.1 6.9l6.9-3.6v.8l-6.1 3.1l6.1 3.1v.8l-6.9-3.6v-.6zm7.8 0l7-3.6v.8l-6.1 3.1l6.1 3.1v.8l-7-3.6v-.6zm8.8-4.9s3.93-.05 3.9 0c2.1 0 3.2 1.4 3.2 3.1c0 1.6-1.1 3-3.2 3c.03.05-3 0-3 0v4.4h-.9V2zm3.8.8c.04-.02-2.9 0-2.9 0v4.5s2.94.02 2.9 0c1.4 0 2.4-.9 2.4-2.2c0-1.4-1-2.3-2.4-2.3zm5.2 2.1h.8s.03 1.29 0 1.3c.7-.9 1.6-1.5 2.6-1.5v.9h-.4c-.8 0-1.8.7-2.2 1.4c.03-.04 0 5.5 0 5.5h-.8V4.9zm4.6 3.8c0-2.2 1.4-4 3.7-4c2.2 0 3.7 1.8 3.7 4c0 2.2-1.5 4-3.7 4c-2.3 0-3.7-1.8-3.7-4zm6.5 0c0-1.7-1-3.3-2.8-3.3c-1.8 0-2.8 1.6-2.8 3.3c0 1.7 1 3.3 2.8 3.3c1.8 0 2.8-1.6 2.8-3.3zm3 6.8V4.9h.8s.03 1.2 0 1.2c.6-.8 1.6-1.4 2.7-1.4c2 0 3.4 1.5 3.4 4c0 2.5-1.4 4-3.4 4c-1.1 0-2.1-.5-2.7-1.4c.03.01 0 4.2 0 4.2h-.8zm3.4-10.1c-1.1 0-2.1.7-2.6 1.4v3.8c.5.7 1.5 1.4 2.6 1.4c1.7 0 2.6-1.4 2.6-3.3c0-1.9-.9-3.3-2.6-3.3zm8.9-.7c2.3 0 3.6 1.8 3.6 4.1c.03-.05 0 .2 0 .2c0 0-6.38-.03-6.4 0c.1 1.6 1.2 3 3 3c1 0 1.9-.3 2.5-1l.5.5c-.8.8-1.8 1.2-3 1.2c-2.3 0-3.9-1.6-3.9-4c0-2.2 1.6-4 3.7-4zm-2.8 3.6h5.6c0-1.3-.9-2.9-2.8-2.9c-1.8 0-2.7 1.6-2.8 2.9zm8.6-3.4h.8v1.3c.6-.9 1.5-1.5 2.6-1.5v.9h-.4c-.8 0-1.9.7-2.2 1.4v5.5h-.8V4.9zm5.2 6.2c-.04-.03 0-5.5 0-5.5h-1.3v-.7h1.3V2.8h.8v2.1h1.6v.7h-1.6v5.3c0 .7.3 1.1.8 1.1c.4 0 .7-.2.8-.4l.4.7c-.3.2-.7.4-1.3.4c-1.1 0-1.5-.6-1.5-1.6zm4.5 3.8c.5 0 .8-.2 1.1-.9c.03-.02.6-1.4.6-1.4l-3.2-7.7h.9l2.8 6.7l2.8-6.7h.9s-3.96 9.33-4 9.3c-.4 1-1 1.5-1.9 1.5c-.3 0-.6-.1-.8-.2l.1-.7c.2.1.5.1.7.1zm11.4-4.5c.7.8 1.8 1.5 3.4 1.5c2.1 0 2.7-1.2 2.7-2.1c0-1.5-1.4-1.9-2.9-2.3c-1.6-.5-3.4-.9-3.4-2.9c0-1.7 1.6-2.8 3.5-2.8c1.5 0 2.7.5 3.6 1.5l-.6.6c-.8-.9-1.9-1.3-3.1-1.3c-1.4 0-2.5.8-2.5 2c0 1.2 1.4 1.6 2.8 2c1.7.5 3.6 1 3.6 3.2c0 1.3-.9 2.9-3.8 2.9c-1.7 0-3-.7-3.8-1.6l.5-.7zm9.1.7V5.6h-1.3v-.7h1.3V2.8h.8v2.1h1.6v.7h-1.6s.04 5.34 0 5.3c0 .7.3 1.1.8 1.1c.4 0 .7-.2.9-.4l.3.7c-.3.2-.7.4-1.3.4c-1 0-1.5-.6-1.5-1.6zm9.1.5c-.7.8-1.6 1.1-2.6 1.1c-1.3 0-2.7-.9-2.7-2.5c0-1.7 1.3-2.5 2.7-2.5c1 0 1.9.3 2.6 1V7.2c0-1.1-.9-1.8-2.1-1.8c-.9 0-1.7.3-2.4 1.1l-.4-.5c.8-.9 1.6-1.3 2.9-1.3c1.6 0 2.8.7 2.8 2.4v5.4h-.8s-.01-.86 0-.9zm0-2.2c-.6-.7-1.4-1.1-2.3-1.1c-1.3 0-2.1.8-2.1 1.9c0 1.1.8 1.9 2.1 1.9c.9 0 1.7-.4 2.3-1.1V9.4zm3.5 1.7c.04-.03 0-5.5 0-5.5h-1.2v-.7h1.2V2.8h.9v2.1h1.5v.7h-1.5s-.02 5.34 0 5.3c0 .7.2 1.1.8 1.1c.3 0 .7-.2.8-.4l.4.7c-.3.2-.7.4-1.3.4c-1.1 0-1.6-.6-1.6-1.6zm7.5-6.4c2.3 0 3.6 1.8 3.6 4.1c.03-.05 0 .2 0 .2c0 0-6.39-.03-6.4 0c.1 1.6 1.2 3 3 3c1 0 1.9-.3 2.5-1l.5.5c-.8.8-1.8 1.2-3 1.2c-2.3 0-3.9-1.6-3.9-4c0-2.2 1.6-4 3.7-4zm-2.8 3.6h5.6c0-1.3-.9-2.9-2.8-2.9c-1.8 0-2.7 1.6-2.8 2.9zm7.7 2l6.2-3.1l-6.2-3.1v-.8l7 3.6v.6l-7 3.6v-.8zm7.9 0l6.1-3.1l-6.1-3.1v-.8l7 3.6v.6l-7 3.6v-.8z" stroke="none" fill="#000"/><a xlink:href="DBF_Property%20State" xlink:show="new" xlink:title="&lt;&lt;Property State&gt;&gt;"><rect style="fill:transparent;" x="108" y="1" width="129" height="15"/></a></g></svg>