<?xml version="1.0" standalone="no"?><!DOCTYPE svg PUBLIC "-//W3C//DTD SVG 1.1//EN" "http://www.w3.org/Graphics/SVG/1.1/DTD/svg11.dtd"><svg xmlns="http://www.w3.org/2000/svg" version="1.1" width="220.1px" height="81.2px" viewBox="0 -9 220.1 81.2" style="top:-9px"><desc>INVESTMENT SUMMARY</desc><defs/><g id="Polygon283474"><path d="m1.5 55.9V36.1h3.3v19.8H1.5zm6 0V36.1h3.2l4.2 12.3V36.1h3v19.8h-3.1l-4.4-12.8v12.8H7.5zm19.1 0H23l-3.8-19.8h3.4l2.3 14.7l2.2-14.7h3.2l-3.7 19.8zm5.1 0V36.1h8.6v2.9h-5.4v5.4h4.6v2.9h-4.6v5.7h5.5v2.9h-8.7zm16.7-12.7s.03-2.76 0-2.8c0-1.2-.7-1.7-1.6-1.7c-1 0-1.7.5-1.7 1.7v1.4c0 1 .3 1.5 1.3 2l2.3 1.3c1.9 1.1 3 1.9 3 4.1v2.8c0 3.1-1.9 4.1-4.9 4.1c-3 0-4.9-1-4.9-4.1c-.02.02 0-3.4 0-3.4h3.2v3c0 1.2.7 1.7 1.7 1.7c1 0 1.7-.5 1.7-1.7V50c0-1-.3-1.5-1.3-2l-2.3-1.3c-1.9-1.1-3-2.1-3-4.1V40c0-2.9 2.1-4.1 4.8-4.1h.1c2.7 0 4.9 1.2 4.9 4.1c-.05-.01 0 3.2 0 3.2h-3.3zm14-4.2h-3.3v16.9h-3.2V39h-3.3v-2.9h9.8v2.9zm9.3 14h-1.8l-3-9.2v12.1h-3V36.1h3.1l3.8 11.5l3.8-11.5h3.2v19.8h-3.1V43.8l-3 9.2zm8.7 2.9V36.1h8.6v2.9h-5.4v5.4h4.6v2.9h-4.6v5.7h5.5v2.9h-8.7zm10.8 0V36.1h3.2l4.2 12.3V36.1h3v19.8h-3.1l-4.3-12.8v12.8h-3zM112.9 39h-3.3v16.9h-3.3V39H103v-2.9h9.9v2.9zm11.5 4.2v-2.8c0-1.2-.7-1.7-1.7-1.7c-.9 0-1.6.5-1.6 1.7v1.4c0 1 .3 1.5 1.2 2l2.3 1.3c1.9 1.1 3.1 1.9 3.1 4.1v2.8c0 3.1-1.9 4.1-4.9 4.1h-.1c-3 0-4.9-1-4.9-4.1c.04.02 0-3.4 0-3.4h3.3s-.04 2.97 0 3c0 1.2.7 1.7 1.7 1.7c.9 0 1.7-.5 1.7-1.7V50c0-1-.4-1.5-1.3-2l-2.3-1.3c-2-1.1-3.1-2.1-3.1-4.1V40c0-2.9 2.2-4.1 4.9-4.1h.1c2.7 0 4.8 1.2 4.8 4.1c.02-.01 0 3.2 0 3.2h-3.2zm15.2 8.8c0 3-1.9 4.1-4.9 4.1h-.1c-3 0-4.9-1.1-4.9-4.1V36.1h3.3s-.02 15.35 0 15.4c0 1.4.6 1.8 1.7 1.8c1 0 1.7-.4 1.7-1.8c-.03-.05 0-15.4 0-15.4h3.2s.05 15.86 0 15.9zm10.4 1h-1.9l-2.9-9.2v12.1h-3.1V36.1h3.1l3.8 11.5l3.9-11.5h3.2v19.8h-3.2V43.8L150 53zm16.5 0h-1.8l-3-9.2v12.1h-3V36.1h3.1l3.8 11.5l3.8-11.5h3.2v19.8h-3.1V43.8l-3 9.2zm15-1.5h-3.6l-.8 4.4H174l3.7-19.8h4.1l3.7 19.8h-3.3l-.7-4.4zm-.5-2.7l-1.3-8.8l-1.4 8.8h2.7zm13.3 7.1l-2.5-7.9h-1.7v7.9h-3.2V36.1s5.07.05 5.1 0c3 0 4.9 1.2 4.9 4.2v3.6c0 1.8-.7 3-2.1 3.6l2.8 8.4h-3.3zm-4.2-10.7s1.76.01 1.8 0c1 0 1.8-.4 1.8-1.8v-2.6c0-1.4-.8-1.8-1.8-1.8c-.04.03-1.8 0-1.8 0v6.2zm14.8 10.7h-3.2v-7l-4-12.8h3.4l2.2 9.2l2.2-9.2h3.4l-4 12.8v7z" stroke="none" fill="#282828"/></g></svg>