<?xml version="1.0" standalone="no"?><!DOCTYPE svg PUBLIC "-//W3C//DTD SVG 1.1//EN" "http://www.w3.org/Graphics/SVG/1.1/DTD/svg11.dtd"><svg xmlns="http://www.w3.org/2000/svg" version="1.1" width="125.4px" height="27.3px" viewBox="0 -6 125.4 27.3" style="top:-6px"><desc>66,478</desc><defs/><g id="Polygon113693"><path d="m82.7 1.8c1.4 0 2.2.5 2.9 1.3l-.6.7c-.5-.7-1.1-1.2-2.3-1.2c-2.3 0-3.1 2.4-3.1 4.7v.5C80 7 81.3 6 82.7 6c1.9 0 3.4 1.1 3.4 3.4c0 1.7-1.3 3.3-3.5 3.3c-2.9 0-3.9-2.6-3.9-5.4c0-2.8 1.1-5.5 4-5.5zm-.2 5c-1.1 0-2.2.8-2.9 1.8c.2 1.5.9 3.3 2.9 3.3c1.8 0 2.7-1.4 2.7-2.5c0-1.8-1.2-2.6-2.7-2.6zm9.5-5c1.4 0 2.2.5 2.8 1.3l-.5.7c-.5-.7-1.2-1.2-2.3-1.2c-2.3 0-3.1 2.4-3.1 4.7v.5C89.3 7 90.5 6 92 6c1.9 0 3.4 1.1 3.4 3.4c0 1.7-1.3 3.3-3.6 3.3c-2.8 0-3.9-2.6-3.9-5.4c0-2.8 1.2-5.5 4.1-5.5zm-.2 5c-1.1 0-2.3.8-2.9 1.8c.1 1.5.9 3.3 2.9 3.3c1.8 0 2.7-1.4 2.7-2.5c0-1.8-1.2-2.6-2.7-2.6zm5.4 7.3c.5-.3.9-1 .9-1.5l-.1.1c-.4 0-.7-.3-.7-.7c0-.4.3-.7.7-.7c.4 0 .8.4.8 1c0 .9-.5 1.8-1.1 2.2l-.5-.4zm8.1-4.4h-5v-.9L105 2h1.2v6.8h1.6v.9h-1.6v2.8h-.9V9.7zm-4-.9h4V2.9l-4 5.9zm13.4-6h-5.8v-.8h6.9v.6l-4.5 9.9h-1l4.4-9.7zm5.2 4.3c-1.3-.3-2.5-1.2-2.5-2.6c0-1.8 1.8-2.7 3.5-2.7c1.6 0 3.4.9 3.4 2.7c0 1.4-1.2 2.3-2.5 2.6c1.4.4 2.7 1.3 2.7 2.8c0 1.7-1.6 2.8-3.6 2.8c-2.1 0-3.6-1.1-3.6-2.8c0-1.5 1.3-2.4 2.6-2.8zm1-4.5c-1.4 0-2.5.8-2.5 2c0 1.5 1.8 2 2.5 2.1c.6-.1 2.5-.6 2.5-2.1c0-1.2-1.1-2-2.5-2zm0 4.9c-.7.1-2.7.7-2.7 2.3c0 1.3 1.3 2.1 2.7 2.1c1.4 0 2.7-.8 2.7-2.1c0-1.6-2.1-2.2-2.7-2.3z" stroke="none" fill="#000"/></g></svg>