<?xml version="1.0" standalone="no"?>
<!DOCTYPE svg PUBLIC "-//W3C//DTD SVG 1.1//EN" "http://www.w3.org/Graphics/SVG/1.1/DTD/svg11.dtd">
<svg xmlns="http://www.w3.org/2000/svg" version="1.1" width="101.2px" height="16.9px" viewBox="0 -4 101.2 16.9" style="top:-4px">
  <desc>CONTACT INFORMATION</desc>
  <defs/>
  <g id="Polygon178515">
    <path d="M 0.4 4.1 C 0.4 2.3 1.8 1 3.5 1 C 4.7 1 5.4 1.6 5.9 2.3 C 5.9 2.3 5.1 2.7 5.1 2.7 C 4.8 2.2 4.2 1.8 3.5 1.8 C 2.3 1.8 1.3 2.8 1.3 4.1 C 1.3 5.5 2.3 6.4 3.5 6.4 C 4.2 6.4 4.8 6 5.1 5.5 C 5.1 5.5 5.9 5.9 5.9 5.9 C 5.4 6.7 4.7 7.2 3.5 7.2 C 1.8 7.2 0.4 6 0.4 4.1 Z M 9.5 1 C 11.3 1 12.5 2.3 12.5 4.1 C 12.5 5.9 11.3 7.2 9.5 7.2 C 7.7 7.2 6.4 5.9 6.4 4.1 C 6.4 2.3 7.7 1 9.5 1 Z M 9.5 1.8 C 8.2 1.8 7.4 2.8 7.4 4.1 C 7.4 5.4 8.2 6.4 9.5 6.4 C 10.7 6.4 11.6 5.4 11.6 4.1 C 11.6 2.8 10.7 1.8 9.5 1.8 Z M 14.4 2.5 L 14.4 7.1 L 13.5 7.1 L 13.5 1.1 L 14.4 1.1 L 17.7 5.6 L 17.7 1.1 L 18.6 1.1 L 18.6 7.1 L 17.7 7.1 L 14.4 2.5 Z M 21.3 1.9 L 19.4 1.9 L 19.4 1.1 L 24 1.1 L 24 1.9 L 22.2 1.9 L 22.2 7.1 L 21.3 7.1 L 21.3 1.9 Z M 28.1 5.9 L 25.1 5.9 L 24.7 7.1 L 23.7 7.1 L 26.1 1.1 L 27.2 1.1 L 29.6 7.1 L 28.6 7.1 L 28.1 5.9 Z M 25.4 5.1 L 27.8 5.1 L 26.6 1.9 L 25.4 5.1 Z M 29.6 4.1 C 29.6 2.3 31 1 32.7 1 C 33.9 1 34.6 1.6 35.1 2.3 C 35.1 2.3 34.3 2.7 34.3 2.7 C 34 2.2 33.4 1.8 32.7 1.8 C 31.5 1.8 30.5 2.8 30.5 4.1 C 30.5 5.5 31.5 6.4 32.7 6.4 C 33.4 6.4 34 6 34.3 5.5 C 34.3 5.5 35.1 5.9 35.1 5.9 C 34.6 6.7 33.9 7.2 32.7 7.2 C 31 7.2 29.6 6 29.6 4.1 Z M 37.4 1.9 L 35.5 1.9 L 35.5 1.1 L 40.1 1.1 L 40.1 1.9 L 38.3 1.9 L 38.3 7.1 L 37.4 7.1 L 37.4 1.9 Z M 43.2 1.1 L 44.1 1.1 L 44.1 7.1 L 43.2 7.1 L 43.2 1.1 Z M 46.2 2.5 L 46.2 7.1 L 45.3 7.1 L 45.3 1.1 L 46.3 1.1 L 49.5 5.6 L 49.5 1.1 L 50.4 1.1 L 50.4 7.1 L 49.6 7.1 L 46.2 2.5 Z M 51.7 1.1 L 55.7 1.1 L 55.7 1.9 L 52.6 1.9 L 52.6 3.7 L 55.6 3.7 L 55.6 4.4 L 52.6 4.4 L 52.6 7.1 L 51.7 7.1 L 51.7 1.1 Z M 59.4 1 C 61.2 1 62.4 2.3 62.4 4.1 C 62.4 5.9 61.2 7.2 59.4 7.2 C 57.6 7.2 56.3 5.9 56.3 4.1 C 56.3 2.3 57.6 1 59.4 1 Z M 59.4 1.8 C 58.1 1.8 57.3 2.8 57.3 4.1 C 57.3 5.4 58.1 6.4 59.4 6.4 C 60.6 6.4 61.5 5.4 61.5 4.1 C 61.5 2.8 60.6 1.8 59.4 1.8 Z M 65.4 4.8 L 64.3 4.8 L 64.3 7.1 L 63.4 7.1 L 63.4 1.1 C 63.4 1.1 65.92 1.11 65.9 1.1 C 67.1 1.1 67.8 1.8 67.8 3 C 67.8 4 67.1 4.6 66.3 4.7 C 66.35 4.71 67.9 7.1 67.9 7.1 L 66.8 7.1 L 65.4 4.8 Z M 65.8 1.9 C 65.8 1.9 64.3 1.9 64.3 1.9 L 64.3 4 C 64.3 4 65.8 4.01 65.8 4 C 66.4 4 66.9 3.6 66.9 3 C 66.9 2.3 66.4 1.9 65.8 1.9 Z M 74 2.3 L 72.1 7.1 L 71.7 7.1 L 69.8 2.3 L 69.8 7.1 L 68.9 7.1 L 68.9 1.1 L 70.1 1.1 L 71.9 5.4 L 73.6 1.1 L 74.9 1.1 L 74.9 7.1 L 74 7.1 L 74 2.3 Z M 80 5.9 L 77 5.9 L 76.5 7.1 L 75.5 7.1 L 77.9 1.1 L 79.1 1.1 L 81.4 7.1 L 80.4 7.1 L 80 5.9 Z M 77.3 5.1 L 79.7 5.1 L 78.5 1.9 L 77.3 5.1 Z M 82.9 1.9 L 81.1 1.9 L 81.1 1.1 L 85.7 1.1 L 85.7 1.9 L 83.8 1.9 L 83.8 7.1 L 82.9 7.1 L 82.9 1.9 Z M 86.5 1.1 L 87.4 1.1 L 87.4 7.1 L 86.5 7.1 L 86.5 1.1 Z M 91.5 1 C 93.3 1 94.5 2.3 94.5 4.1 C 94.5 5.9 93.3 7.2 91.5 7.2 C 89.7 7.2 88.4 5.9 88.4 4.1 C 88.4 2.3 89.7 1 91.5 1 Z M 91.5 1.8 C 90.2 1.8 89.4 2.8 89.4 4.1 C 89.4 5.4 90.2 6.4 91.5 6.4 C 92.7 6.4 93.6 5.4 93.6 4.1 C 93.6 2.8 92.7 1.8 91.5 1.8 Z M 96.4 2.5 L 96.4 7.1 L 95.5 7.1 L 95.5 1.1 L 96.4 1.1 L 99.7 5.6 L 99.7 1.1 L 100.6 1.1 L 100.6 7.1 L 99.7 7.1 L 96.4 2.5 Z " stroke="none" fill="#3797ef"/>
  </g>
</svg>