<?xml version="1.0" standalone="no"?><!DOCTYPE svg PUBLIC "-//W3C//DTD SVG 1.1//EN" "http://www.w3.org/Graphics/SVG/1.1/DTD/svg11.dtd"><svg xmlns="http://www.w3.org/2000/svg" version="1.1" width="123px" height="27.3px" viewBox="0 -6 123 27.3" style="top:-6px"><desc>60,570</desc><defs/><g id="Polygon114092"><path d="m79 1.8c1.4 0 2.3.5 2.9 1.3l-.6.7c-.5-.7-1.1-1.2-2.3-1.2c-2.3 0-3.1 2.4-3.1 4.7v.5C76.4 7 77.6 6 79 6c1.9 0 3.4 1.1 3.4 3.4c0 1.7-1.3 3.3-3.5 3.3c-2.9 0-3.9-2.6-3.9-5.4c0-2.8 1.1-5.5 4-5.5zm-.1 5c-1.2 0-2.3.8-2.9 1.8c.1 1.5.9 3.3 2.8 3.3c1.8 0 2.7-1.4 2.7-2.5c0-1.8-1.1-2.6-2.6-2.6zm9.3-5c2.8 0 3.9 2.9 3.9 5.5c0 2.5-1.1 5.4-3.9 5.4c-2.9 0-3.9-2.9-3.9-5.4c0-2.6 1-5.5 3.9-5.5zm0 .8c-2.3 0-3 2.5-3 4.7c0 2.1.7 4.6 3 4.6c2.2 0 2.9-2.5 2.9-4.6c0-2.2-.7-4.7-2.9-4.7zm5.1 11.5c.5-.3.9-1 1-1.5l-.2.1c-.4 0-.7-.3-.7-.7c0-.4.4-.7.7-.7c.5 0 .8.4.8 1c0 .9-.5 1.8-1.1 2.2l-.5-.4zm4.4-3.7c.7 1 1.6 1.5 2.9 1.5c1.6 0 2.7-1.1 2.7-2.5c0-1.7-1.1-2.6-2.6-2.6c-1 0-1.8.3-2.6 1l-.7-.3V2h6.1v.8h-5.2v4.1c.5-.5 1.4-1 2.5-1c1.8 0 3.4 1.2 3.4 3.4c0 2.1-1.6 3.4-3.6 3.4c-1.7 0-2.8-.6-3.5-1.7l.6-.6zm13.8-7.6h-5.8v-.8h6.9v.6l-4.5 9.9h-1l4.4-9.7zm6.5-1c2.8 0 3.9 2.9 3.9 5.5c0 2.5-1.1 5.4-3.9 5.4c-2.9 0-4-2.9-4-5.4c0-2.6 1.1-5.5 4-5.5zm0 .8c-2.3 0-3 2.5-3 4.7c0 2.1.7 4.6 3 4.6c2.2 0 2.9-2.5 2.9-4.6c0-2.2-.7-4.7-2.9-4.7z" stroke="none" fill="#000"/></g></svg>