<?xml version="1.0" standalone="no"?>
<!DOCTYPE svg PUBLIC "-//W3C//DTD SVG 1.1//EN" "http://www.w3.org/Graphics/SVG/1.1/DTD/svg11.dtd">
<svg xmlns="http://www.w3.org/2000/svg" version="1.1" width="309.1px" height="16.9px" viewBox="0 -4 309.1 16.9" style="top:-4px">
  <desc>12345 STREET ADDRESS, CITY, STATE ZIP</desc>
  <defs/>
  <g id="Polygon179515">
    <path d="M 142.5 2.3 L 141.5 3.3 L 141 2.8 L 142.6 1.1 L 143.4 1.1 L 143.4 7.1 L 142.5 7.1 L 142.5 2.3 Z M 144.5 6.4 C 146.8 4.7 147.8 3.8 147.8 2.8 C 147.8 2.1 147.2 1.8 146.7 1.8 C 146 1.8 145.4 2.1 145 2.6 C 145 2.6 144.5 2 144.5 2 C 145 1.4 145.8 1 146.7 1 C 147.7 1 148.7 1.6 148.7 2.8 C 148.7 4 147.6 5 146 6.3 C 145.98 6.32 148.8 6.3 148.8 6.3 L 148.8 7.1 L 144.5 7.1 C 144.5 7.1 144.55 6.4 144.5 6.4 Z M 150.1 5.7 C 150.5 6.1 151.1 6.4 151.8 6.4 C 152.6 6.4 153.1 6 153.1 5.4 C 153.1 4.7 152.6 4.4 151.7 4.4 C 151.5 4.4 151.2 4.4 151.1 4.5 C 151.1 4.5 151.1 3.6 151.1 3.6 C 151.2 3.6 151.5 3.6 151.7 3.6 C 152.4 3.6 153 3.4 153 2.8 C 153 2.1 152.5 1.8 151.8 1.8 C 151.1 1.8 150.6 2.1 150.2 2.5 C 150.2 2.5 149.7 2 149.7 2 C 150.2 1.4 150.9 1 151.8 1 C 153.1 1 153.9 1.6 153.9 2.6 C 153.9 3.5 153.2 3.9 152.6 4 C 153.2 4.1 154 4.5 154 5.5 C 154 6.5 153.2 7.2 151.8 7.2 C 150.8 7.2 150 6.8 149.6 6.2 C 149.6 6.2 150.1 5.7 150.1 5.7 Z M 157.6 5.7 L 154.8 5.7 L 154.8 4.9 L 157.3 1.1 L 158.5 1.1 L 158.5 4.9 L 159.3 4.9 L 159.3 5.7 L 158.5 5.7 L 158.5 7.1 L 157.6 7.1 L 157.6 5.7 Z M 155.6 4.9 L 157.6 4.9 L 157.6 1.9 L 155.6 4.9 Z M 160.7 5.7 C 161.1 6.1 161.6 6.4 162.3 6.4 C 163.1 6.4 163.6 5.9 163.6 5.2 C 163.6 4.5 163.1 4.1 162.3 4.1 C 161.8 4.1 161.4 4.2 161 4.6 C 160.99 4.61 160.3 4.4 160.3 4.4 L 160.3 1.1 L 164.1 1.1 L 164.1 1.9 L 161.2 1.9 C 161.2 1.9 161.24 3.82 161.2 3.8 C 161.5 3.5 162 3.3 162.6 3.3 C 163.6 3.3 164.5 4 164.5 5.2 C 164.5 6.4 163.6 7.2 162.3 7.2 C 161.3 7.2 160.6 6.9 160.2 6.3 C 160.2 6.3 160.7 5.7 160.7 5.7 Z M 168.1 5.6 C 168.5 6 169.1 6.4 170 6.4 C 171 6.4 171.3 5.9 171.3 5.5 C 171.3 4.9 170.6 4.7 169.8 4.5 C 168.9 4.2 167.8 4 167.8 2.7 C 167.8 1.7 168.6 1 169.9 1 C 170.8 1 171.5 1.3 172.1 1.9 C 172.1 1.9 171.6 2.5 171.6 2.5 C 171.1 2 170.5 1.8 169.8 1.8 C 169.2 1.8 168.7 2.2 168.7 2.7 C 168.7 3.2 169.3 3.4 170.1 3.6 C 171.1 3.8 172.2 4.1 172.2 5.4 C 172.2 6.3 171.6 7.2 169.9 7.2 C 168.9 7.2 168.1 6.8 167.6 6.3 C 167.6 6.3 168.1 5.6 168.1 5.6 Z M 174.7 1.9 L 172.8 1.9 L 172.8 1.1 L 177.4 1.1 L 177.4 1.9 L 175.5 1.9 L 175.5 7.1 L 174.7 7.1 L 174.7 1.9 Z M 180.4 4.8 L 179.2 4.8 L 179.2 7.1 L 178.3 7.1 L 178.3 1.1 C 178.3 1.1 180.87 1.11 180.9 1.1 C 182 1.1 182.8 1.8 182.8 3 C 182.8 4 182.1 4.6 181.3 4.7 C 181.3 4.71 182.8 7.1 182.8 7.1 L 181.8 7.1 L 180.4 4.8 Z M 180.8 1.9 C 180.75 1.9 179.2 1.9 179.2 1.9 L 179.2 4 C 179.2 4 180.75 4.01 180.8 4 C 181.4 4 181.9 3.6 181.9 3 C 181.9 2.3 181.4 1.9 180.8 1.9 Z M 183.9 1.1 L 187.9 1.1 L 187.9 1.9 L 184.8 1.9 L 184.8 3.7 L 187.9 3.7 L 187.9 4.4 L 184.8 4.4 L 184.8 6.3 L 187.9 6.3 L 187.9 7.1 L 183.9 7.1 L 183.9 1.1 Z M 189.1 1.1 L 193.1 1.1 L 193.1 1.9 L 190 1.9 L 190 3.7 L 193 3.7 L 193 4.4 L 190 4.4 L 190 6.3 L 193.1 6.3 L 193.1 7.1 L 189.1 7.1 L 189.1 1.1 Z M 195.7 1.9 L 193.8 1.9 L 193.8 1.1 L 198.4 1.1 L 198.4 1.9 L 196.6 1.9 L 196.6 7.1 L 195.7 7.1 L 195.7 1.9 Z M 205.5 5.9 L 202.6 5.9 L 202.1 7.1 L 201.1 7.1 L 203.5 1.1 L 204.6 1.1 L 207 7.1 L 206 7.1 L 205.5 5.9 Z M 202.8 5.1 L 205.2 5.1 L 204 1.9 L 202.8 5.1 Z M 207.7 1.1 C 207.7 1.1 209.83 1.11 209.8 1.1 C 211.7 1.1 212.9 2.4 212.9 4.1 C 212.9 5.9 211.7 7.1 209.8 7.1 C 209.83 7.11 207.7 7.1 207.7 7.1 L 207.7 1.1 Z M 209.8 6.3 C 211.2 6.3 212 5.3 212 4.1 C 212 2.9 211.2 1.9 209.8 1.9 C 209.83 1.9 208.6 1.9 208.6 1.9 L 208.6 6.3 C 208.6 6.3 209.83 6.32 209.8 6.3 Z M 214 1.1 C 214 1.1 216.18 1.11 216.2 1.1 C 218 1.1 219.3 2.4 219.3 4.1 C 219.3 5.9 218 7.1 216.2 7.1 C 216.18 7.11 214 7.1 214 7.1 L 214 1.1 Z M 216.2 6.3 C 217.6 6.3 218.4 5.3 218.4 4.1 C 218.4 2.9 217.6 1.9 216.2 1.9 C 216.18 1.9 214.9 1.9 214.9 1.9 L 214.9 6.3 C 214.9 6.3 216.18 6.32 216.2 6.3 Z M 222.4 4.8 L 221.3 4.8 L 221.3 7.1 L 220.4 7.1 L 220.4 1.1 C 220.4 1.1 222.91 1.11 222.9 1.1 C 224.1 1.1 224.8 1.8 224.8 3 C 224.8 4 224.1 4.6 223.3 4.7 C 223.34 4.71 224.9 7.1 224.9 7.1 L 223.8 7.1 L 222.4 4.8 Z M 222.8 1.9 C 222.79 1.9 221.3 1.9 221.3 1.9 L 221.3 4 C 221.3 4 222.79 4.01 222.8 4 C 223.4 4 223.9 3.6 223.9 3 C 223.9 2.3 223.4 1.9 222.8 1.9 Z M 225.9 1.1 L 230 1.1 L 230 1.9 L 226.8 1.9 L 226.8 3.7 L 229.9 3.7 L 229.9 4.4 L 226.8 4.4 L 226.8 6.3 L 230 6.3 L 230 7.1 L 225.9 7.1 L 225.9 1.1 Z M 231.2 5.6 C 231.6 6 232.3 6.4 233.1 6.4 C 234.1 6.4 234.4 5.9 234.4 5.5 C 234.4 4.9 233.8 4.7 233 4.5 C 232 4.2 230.9 4 230.9 2.7 C 230.9 1.7 231.8 1 233 1 C 234 1 234.7 1.3 235.2 1.9 C 235.2 1.9 234.7 2.5 234.7 2.5 C 234.2 2 233.6 1.8 233 1.8 C 232.3 1.8 231.8 2.2 231.8 2.7 C 231.8 3.2 232.5 3.4 233.2 3.6 C 234.2 3.8 235.4 4.1 235.4 5.4 C 235.4 6.3 234.7 7.2 233.1 7.2 C 232 7.2 231.2 6.8 230.7 6.3 C 230.7 6.3 231.2 5.6 231.2 5.6 Z M 236.6 5.6 C 237 6 237.6 6.4 238.4 6.4 C 239.4 6.4 239.8 5.9 239.8 5.5 C 239.8 4.9 239.1 4.7 238.3 4.5 C 237.3 4.2 236.2 4 236.2 2.7 C 236.2 1.7 237.1 1 238.4 1 C 239.3 1 240 1.3 240.5 1.9 C 240.5 1.9 240 2.5 240 2.5 C 239.6 2 238.9 1.8 238.3 1.8 C 237.6 1.8 237.2 2.2 237.2 2.7 C 237.2 3.2 237.8 3.4 238.5 3.6 C 239.5 3.8 240.7 4.1 240.7 5.4 C 240.7 6.3 240 7.2 238.4 7.2 C 237.3 7.2 236.6 6.8 236 6.3 C 236 6.3 236.6 5.6 236.6 5.6 Z M 241.6 8 C 241.9 7.8 242.1 7.4 242.2 7.1 C 242.2 7.1 242.1 7.1 242 7.1 C 241.8 7.1 241.6 6.9 241.6 6.6 C 241.6 6.3 241.8 6.1 242.1 6.1 C 242.4 6.1 242.7 6.4 242.7 6.8 C 242.7 7.4 242.4 8 241.9 8.3 C 241.9 8.3 241.6 8 241.6 8 Z M 245.9 4.1 C 245.9 2.3 247.3 1 249 1 C 250.2 1 250.9 1.6 251.4 2.3 C 251.4 2.3 250.6 2.7 250.6 2.7 C 250.3 2.2 249.7 1.8 249 1.8 C 247.8 1.8 246.9 2.8 246.9 4.1 C 246.9 5.5 247.8 6.4 249 6.4 C 249.7 6.4 250.3 6 250.6 5.5 C 250.6 5.5 251.4 5.9 251.4 5.9 C 250.9 6.7 250.2 7.2 249 7.2 C 247.3 7.2 245.9 6 245.9 4.1 Z M 252.3 1.1 L 253.2 1.1 L 253.2 7.1 L 252.3 7.1 L 252.3 1.1 Z M 256 1.9 L 254.1 1.9 L 254.1 1.1 L 258.8 1.1 L 258.8 1.9 L 256.9 1.9 L 256.9 7.1 L 256 7.1 L 256 1.9 Z M 261.4 4.6 L 259.1 1.1 L 260.1 1.1 L 261.9 3.8 L 263.6 1.1 L 264.7 1.1 L 262.3 4.6 L 262.3 7.1 L 261.4 7.1 L 261.4 4.6 Z M 264.4 8 C 264.7 7.8 265 7.4 265 7.1 C 265 7.1 264.9 7.1 264.9 7.1 C 264.6 7.1 264.4 6.9 264.4 6.6 C 264.4 6.3 264.7 6.1 265 6.1 C 265.3 6.1 265.6 6.4 265.6 6.8 C 265.6 7.4 265.3 8 264.8 8.3 C 264.8 8.3 264.4 8 264.4 8 Z M 269.2 5.6 C 269.6 6 270.2 6.4 271.1 6.4 C 272 6.4 272.4 5.9 272.4 5.5 C 272.4 4.9 271.7 4.7 270.9 4.5 C 270 4.2 268.9 4 268.9 2.7 C 268.9 1.7 269.7 1 271 1 C 271.9 1 272.6 1.3 273.2 1.9 C 273.2 1.9 272.6 2.5 272.6 2.5 C 272.2 2 271.6 1.8 270.9 1.8 C 270.2 1.8 269.8 2.2 269.8 2.7 C 269.8 3.2 270.4 3.4 271.2 3.6 C 272.2 3.8 273.3 4.1 273.3 5.4 C 273.3 6.3 272.7 7.2 271 7.2 C 270 7.2 269.2 6.8 268.7 6.3 C 268.7 6.3 269.2 5.6 269.2 5.6 Z M 275.7 1.9 L 273.9 1.9 L 273.9 1.1 L 278.5 1.1 L 278.5 1.9 L 276.6 1.9 L 276.6 7.1 L 275.7 7.1 L 275.7 1.9 Z M 282.6 5.9 L 279.7 5.9 L 279.2 7.1 L 278.2 7.1 L 280.6 1.1 L 281.7 1.1 L 284.1 7.1 L 283.1 7.1 L 282.6 5.9 Z M 279.9 5.1 L 282.4 5.1 L 281.2 1.9 L 279.9 5.1 Z M 285.7 1.9 L 283.8 1.9 L 283.8 1.1 L 288.5 1.1 L 288.5 1.9 L 286.6 1.9 L 286.6 7.1 L 285.7 7.1 L 285.7 1.9 Z M 289.4 1.1 L 293.4 1.1 L 293.4 1.9 L 290.3 1.9 L 290.3 3.7 L 293.4 3.7 L 293.4 4.4 L 290.3 4.4 L 290.3 6.3 L 293.4 6.3 L 293.4 7.1 L 289.4 7.1 L 289.4 1.1 Z M 296.6 6.4 L 299.8 1.9 L 296.6 1.9 L 296.6 1.1 L 301 1.1 L 301 1.8 L 297.8 6.3 L 301.1 6.3 L 301.1 7.1 L 296.6 7.1 L 296.6 6.4 Z M 302.2 1.1 L 303.1 1.1 L 303.1 7.1 L 302.2 7.1 L 302.2 1.1 Z M 304.4 1.1 C 304.4 1.1 306.92 1.11 306.9 1.1 C 308.2 1.1 308.8 2 308.8 3 C 308.8 4 308.1 4.8 306.9 4.8 C 306.92 4.8 305.3 4.8 305.3 4.8 L 305.3 7.1 L 304.4 7.1 L 304.4 1.1 Z M 306.8 1.9 C 306.81 1.9 305.3 1.9 305.3 1.9 L 305.3 4 C 305.3 4 306.81 4.01 306.8 4 C 307.5 4 307.9 3.6 307.9 3 C 307.9 2.3 307.5 1.9 306.8 1.9 Z " stroke="none" fill="#88898a"/>
  </g>
</svg>