<?xml version="1.0" standalone="no"?><!DOCTYPE svg PUBLIC "-//W3C//DTD SVG 1.1//EN" "http://www.w3.org/Graphics/SVG/1.1/DTD/svg11.dtd"><svg xmlns="http://www.w3.org/2000/svg" version="1.1" width="134.3px" height="15.9px" viewBox="0 -4 134.3 15.9" style="top:-4px"><desc>Raising Cane s</desc><defs/><g id="Polygon87833"><path d="m80.2 4.6h-1.3v2.5h-.5v-6s2.2.01 2.2 0c1 0 1.8.7 1.8 1.8c0 1.1-.8 1.7-1.6 1.7c-.04-.01 1.7 2.5 1.7 2.5h-.6l-1.7-2.5zm.4-3c-.05-.03-1.7 0-1.7 0v2.6s1.65-.04 1.7 0c.7 0 1.3-.6 1.3-1.3c0-.8-.6-1.3-1.3-1.3zm5.7 5c-.4.4-.9.6-1.5.6c-.8 0-1.5-.5-1.5-1.4c0-1 .7-1.5 1.5-1.5c.6 0 1.1.2 1.5.6v-.8c0-.7-.6-1-1.2-1c-.5 0-1 .2-1.4.6l-.2-.3c.4-.5.9-.7 1.6-.7c.9 0 1.6.4 1.6 1.4c.03-.05 0 3 0 3h-.4s-.03-.5 0-.5zm0-1.3c-.3-.4-.8-.6-1.3-.6c-.8 0-1.2.5-1.2 1.1c0 .6.4 1 1.2 1c.5 0 1-.1 1.3-.5v-1zm1.8-3.6c0-.2.1-.4.3-.4c.2 0 .4.2.4.4c0 .2-.2.3-.4.3c-.2 0-.3-.1-.3-.3zm.1 1.1h.5v4.3h-.5V2.8zM90 6.2c.3.3.8.6 1.4.6c.8 0 1.2-.3 1.2-.8c0-.6-.6-.8-1.2-.9c-.8-.2-1.6-.4-1.6-1.2c0-.7.6-1.2 1.6-1.2c.7 0 1.2.2 1.5.6l-.2.3c-.3-.3-.7-.5-1.3-.5c-.7 0-1.1.3-1.1.7c0 .5.6.7 1.2.8c.7.2 1.5.4 1.5 1.3c0 .7-.5 1.3-1.6 1.3c-.7 0-1.2-.2-1.7-.7l.3-.3zm4.1-4.5c0-.2.2-.4.4-.4c.2 0 .3.2.3.4c0 .2-.1.3-.3.3c-.2 0-.4-.1-.4-.3zm.1 1.1h.5v4.3h-.5V2.8zm4.9 1.4c0-.9-.4-1.1-1-1.1c-.6 0-1.2.3-1.5.7c.04.02 0 3.3 0 3.3h-.4V2.8h.4s.04.62 0 .6c.4-.4 1-.7 1.6-.7c.9 0 1.4.4 1.4 1.4c-.02-.03 0 3 0 3h-.5V4.2zm2.2 3.7c.4.4.8.6 1.5.6c.7 0 1.4-.4 1.4-1.4v-.7c-.3.4-.8.8-1.5.8c-1.1 0-1.9-.9-1.9-2.3c0-1.3.8-2.2 1.9-2.2c.6 0 1.2.3 1.5.8c.04-.04 0-.7 0-.7h.5v4.3c0 1.3-.9 1.8-1.9 1.8c-.8 0-1.2-.2-1.8-.7l.3-.3zm2.9-4c-.2-.5-.8-.8-1.4-.8c-1 0-1.5.8-1.5 1.8c0 1.1.5 1.9 1.5 1.9c.6 0 1.2-.4 1.4-.8V3.9zm4.1.2c0-1.8 1.3-3.1 3-3.1c1 0 1.7.4 2.2 1.1l-.4.2c-.4-.5-1.1-.8-1.8-.8c-1.4 0-2.5 1-2.5 2.6c0 1.6 1.1 2.7 2.5 2.7c.7 0 1.4-.4 1.8-.9l.4.2c-.5.7-1.2 1.1-2.2 1.1c-1.7 0-3-1.2-3-3.1zm9 2.5c-.4.4-.9.6-1.5.6c-.7 0-1.5-.5-1.5-1.4c0-1 .8-1.5 1.5-1.5c.6 0 1.1.2 1.5.6v-.8c0-.7-.5-1-1.2-1c-.5 0-.9.2-1.3.6l-.3-.3c.5-.5 1-.7 1.7-.7c.9 0 1.6.4 1.6 1.4c-.03-.05 0 3 0 3h-.5v-.5zm0-1.3c-.3-.4-.8-.6-1.3-.6c-.7 0-1.2.5-1.2 1.1c0 .6.5 1 1.2 1c.5 0 1-.1 1.3-.5v-1zm4.9-1.1c0-.9-.5-1.1-1.1-1.1c-.5 0-1.1.3-1.4.7v3.3h-.5V2.8h.5v.6c.3-.4.9-.7 1.6-.7c.8 0 1.3.4 1.3 1.4c.03-.03 0 3 0 3h-.4s-.03-2.92 0-2.9zm3.7-1.5c1.4 0 2.1 1 2.1 2.3v.1s-3.65-.02-3.6 0c0 .9.6 1.7 1.6 1.7c.6 0 1.1-.2 1.5-.6l.2.3c-.4.5-1 .7-1.7.7c-1.3 0-2.2-.9-2.2-2.3c0-1.2.9-2.2 2.1-2.2zm-1.5 2h3.1c0-.7-.5-1.6-1.6-1.6c-1 0-1.5.9-1.5 1.6zm5.5-3.1c0 .5-.3 1-.7 1.2l-.2-.2c.3-.2.5-.5.5-.8h-.1c-.2 0-.4-.2-.4-.4c0-.2.2-.4.4-.4c.3 0 .5.2.5.6zm.9 4.6c.3.3.8.6 1.4.6c.7 0 1.1-.3 1.1-.8c0-.6-.5-.8-1.2-.9c-.7-.2-1.5-.4-1.5-1.2c0-.7.6-1.2 1.5-1.2c.8 0 1.3.2 1.6.6l-.3.3c-.2-.3-.7-.5-1.3-.5c-.6 0-1 .3-1 .7c0 .5.5.7 1.1.8c.8.2 1.6.4 1.6 1.3c0 .7-.5 1.3-1.6 1.3c-.7 0-1.3-.2-1.7-.7l.3-.3z" stroke="none" fill="#000"/></g></svg>