<?xml version="1.0" standalone="no"?>
<!DOCTYPE svg PUBLIC "-//W3C//DTD SVG 1.1//EN" "http://www.w3.org/Graphics/SVG/1.1/DTD/svg11.dtd">
<svg xmlns="http://www.w3.org/2000/svg" version="1.1" width="388.4px" height="67.5px" viewBox="0 -6 388.4 67.5" style="top:-6px">
  <desc>SUBJECT PROPERTY TABLE OF CONTENTS</desc>
  <defs/>
  <g id="Polygon234560">
    <path d="M 10.2 29.5 L 6.9 29.5 L 6.9 46.4 L 3.6 46.4 L 3.6 29.5 L 0.3 29.5 L 0.3 26.7 L 10.2 26.7 L 10.2 29.5 Z M 16.9 42 L 13.3 42 L 12.6 46.4 L 9.4 46.4 L 13.1 26.7 L 17.2 26.7 L 21 46.4 L 17.6 46.4 L 16.9 42 Z M 16.5 39.3 L 15.1 30.5 L 13.7 39.3 L 16.5 39.3 Z M 30.3 36.2 C 32 36.4 32.6 37.8 32.6 39.3 C 32.6 39.3 32.6 42.5 32.6 42.5 C 32.6 45 30.7 46.4 27.7 46.4 C 27.7 46.43 22.6 46.4 22.6 46.4 L 22.6 26.7 C 22.6 26.7 27.76 26.66 27.8 26.7 C 30.7 26.7 32.5 28.1 32.5 30.6 C 32.5 30.6 32.5 33 32.5 33 C 32.5 34.5 31.9 36 30.3 36.2 Z M 25.9 34.8 C 25.9 34.8 27.7 34.82 27.7 34.8 C 28.6 34.8 29.2 34.3 29.2 33.3 C 29.2 33.3 29.2 31 29.2 31 C 29.2 30 28.6 29.5 27.7 29.5 C 27.7 29.49 25.9 29.5 25.9 29.5 L 25.9 34.8 Z M 27.8 37.6 C 27.81 37.59 25.9 37.6 25.9 37.6 L 25.9 43.6 C 25.9 43.6 27.81 43.61 27.8 43.6 C 28.7 43.6 29.3 43.1 29.3 42.1 C 29.3 42.1 29.3 39.1 29.3 39.1 C 29.3 38.1 28.7 37.6 27.8 37.6 Z M 43.4 46.4 L 35 46.4 L 35 26.7 L 38.3 26.7 L 38.3 43.5 L 43.4 43.5 L 43.4 46.4 Z M 45.1 46.4 L 45.1 26.7 L 53.8 26.7 L 53.8 29.5 L 48.4 29.5 L 48.4 35 L 52.9 35 L 52.9 37.8 L 48.4 37.8 L 48.4 43.5 L 53.9 43.5 L 53.9 46.4 L 45.1 46.4 Z M 65.6 26.4 C 65.6 26.4 65.8 26.4 65.8 26.4 C 68.8 26.4 70.8 27.6 70.8 30.6 C 70.8 30.6 70.8 42.5 70.8 42.5 C 70.8 45.5 68.8 46.7 65.8 46.7 C 65.8 46.7 65.6 46.7 65.6 46.7 C 62.6 46.7 60.6 45.5 60.6 42.5 C 60.6 42.5 60.6 30.6 60.6 30.6 C 60.6 27.6 62.6 26.4 65.6 26.4 Z M 65.7 43.8 C 66.7 43.8 67.5 43.4 67.5 42 C 67.5 42 67.5 31.1 67.5 31.1 C 67.5 29.7 66.7 29.3 65.7 29.3 C 64.6 29.3 63.9 29.7 63.9 31.1 C 63.9 31.1 63.9 42 63.9 42 C 63.9 43.4 64.6 43.8 65.7 43.8 Z M 73.5 26.7 L 82 26.7 L 82 29.5 L 76.7 29.5 L 76.7 35.1 L 81.1 35.1 L 81.1 38 L 76.7 38 L 76.7 46.4 L 73.5 46.4 L 73.5 26.7 Z M 98.3 42.5 C 98.3 45.5 96.3 46.7 93.3 46.7 C 93.3 46.7 93.3 46.7 93.3 46.7 C 90.3 46.7 88.3 45.6 88.3 42.5 C 88.3 42.5 88.3 30.6 88.3 30.6 C 88.3 27.7 90.3 26.4 93.3 26.4 C 93.3 26.4 93.3 26.4 93.3 26.4 C 96.3 26.4 98.3 27.7 98.3 30.6 C 98.29 30.62 98.3 34.2 98.3 34.2 L 95 34.2 C 95 34.2 95.01 31.13 95 31.1 C 95 29.7 94.3 29.3 93.3 29.3 C 92.2 29.3 91.6 29.7 91.6 31.1 C 91.6 31.1 91.6 42 91.6 42 C 91.6 43.4 92.2 43.8 93.3 43.8 C 94.3 43.8 95 43.4 95 42 C 95.01 41.97 95 38.4 95 38.4 L 98.3 38.4 C 98.3 38.4 98.29 42.48 98.3 42.5 Z M 105.7 26.4 C 105.7 26.4 106 26.4 106 26.4 C 109 26.4 110.9 27.6 110.9 30.6 C 110.9 30.6 110.9 42.5 110.9 42.5 C 110.9 45.5 109 46.7 106 46.7 C 106 46.7 105.7 46.7 105.7 46.7 C 102.7 46.7 100.8 45.5 100.8 42.5 C 100.8 42.5 100.8 30.6 100.8 30.6 C 100.8 27.6 102.7 26.4 105.7 26.4 Z M 105.9 43.8 C 106.9 43.8 107.7 43.4 107.7 42 C 107.7 42 107.7 31.1 107.7 31.1 C 107.7 29.7 106.9 29.3 105.9 29.3 C 104.8 29.3 104 29.7 104 31.1 C 104 31.1 104 42 104 42 C 104 43.4 104.8 43.8 105.9 43.8 Z M 113.6 46.4 L 113.6 26.7 L 116.9 26.7 L 121.1 38.9 L 121.1 26.7 L 124.1 26.7 L 124.1 46.4 L 121 46.4 L 116.6 33.6 L 116.6 46.4 L 113.6 46.4 Z M 135.6 29.5 L 132.3 29.5 L 132.3 46.4 L 129.1 46.4 L 129.1 29.5 L 125.8 29.5 L 125.8 26.7 L 135.6 26.7 L 135.6 29.5 Z M 137.3 46.4 L 137.3 26.7 L 146 26.7 L 146 29.5 L 140.6 29.5 L 140.6 35 L 145.1 35 L 145.1 37.8 L 140.6 37.8 L 140.6 43.5 L 146.1 43.5 L 146.1 46.4 L 137.3 46.4 Z M 148.4 46.4 L 148.4 26.7 L 151.7 26.7 L 155.8 38.9 L 155.8 26.7 L 158.8 26.7 L 158.8 46.4 L 155.7 46.4 L 151.4 33.6 L 151.4 46.4 L 148.4 46.4 Z M 170.4 29.5 L 167.1 29.5 L 167.1 46.4 L 163.8 46.4 L 163.8 29.5 L 160.5 29.5 L 160.5 26.7 L 170.4 26.7 L 170.4 29.5 Z M 178.1 33.7 C 178.1 33.7 178.13 30.96 178.1 31 C 178.1 29.7 177.4 29.3 176.5 29.3 C 175.5 29.3 174.8 29.7 174.8 31 C 174.8 31 174.8 32.3 174.8 32.3 C 174.8 33.3 175.1 33.8 176.1 34.3 C 176.1 34.3 178.4 35.6 178.4 35.6 C 180.3 36.7 181.4 37.6 181.4 39.7 C 181.4 39.7 181.4 42.5 181.4 42.5 C 181.4 45.6 179.5 46.7 176.5 46.7 C 176.5 46.7 176.5 46.7 176.5 46.7 C 173.5 46.7 171.6 45.6 171.6 42.5 C 171.58 42.53 171.6 39.1 171.6 39.1 L 174.8 39.1 C 174.8 39.1 174.8 42.08 174.8 42.1 C 174.8 43.3 175.5 43.8 176.5 43.8 C 177.5 43.8 178.2 43.3 178.2 42.1 C 178.2 42.1 178.2 40.5 178.2 40.5 C 178.2 39.5 177.9 39 176.9 38.5 C 176.9 38.5 174.6 37.2 174.6 37.2 C 172.7 36.1 171.6 35.2 171.6 33.1 C 171.6 33.1 171.6 30.5 171.6 30.5 C 171.6 27.6 173.7 26.4 176.4 26.4 C 176.4 26.4 176.5 26.4 176.5 26.4 C 179.2 26.4 181.4 27.6 181.4 30.5 C 181.35 30.5 181.4 33.7 181.4 33.7 L 178.1 33.7 Z " stroke="none" fill="#282828"/>
  </g>
  <g id="Polygon234559">
    <path d="M 1.4 9.8 C 2.1 10.6 3.3 11.3 4.8 11.3 C 6.5 11.3 7.1 10.5 7.1 9.7 C 7.1 8.6 5.9 8.3 4.5 7.9 C 2.8 7.5 0.9 7 0.9 4.8 C 0.9 3.1 2.4 1.8 4.6 1.8 C 6.2 1.8 7.5 2.3 8.5 3.3 C 8.5 3.3 7.5 4.4 7.5 4.4 C 6.7 3.6 5.6 3.2 4.5 3.2 C 3.3 3.2 2.5 3.8 2.5 4.7 C 2.5 5.7 3.6 6 5 6.3 C 6.7 6.7 8.7 7.3 8.7 9.5 C 8.7 11.2 7.6 12.7 4.7 12.7 C 2.8 12.7 1.4 12.1 0.5 11.1 C 0.5 11.1 1.4 9.8 1.4 9.8 Z M 10.5 2 L 12.1 2 C 12.1 2 12.15 8.36 12.1 8.4 C 12.1 10.2 13.1 11.3 15 11.3 C 16.9 11.3 17.9 10.2 17.9 8.4 C 17.85 8.36 17.9 2 17.9 2 L 19.5 2 C 19.5 2 19.45 8.39 19.5 8.4 C 19.5 11 18 12.7 15 12.7 C 12 12.7 10.5 11 10.5 8.4 C 10.55 8.4 10.5 2 10.5 2 Z M 21.8 2 C 21.8 2 26.79 1.95 26.8 2 C 28.7 2 29.8 3.1 29.8 4.7 C 29.8 6 28.9 6.9 27.9 7.1 C 29.1 7.3 30 8.4 30 9.7 C 30 11.4 28.9 12.5 26.9 12.5 C 26.92 12.55 21.8 12.5 21.8 12.5 L 21.8 2 Z M 26.5 6.4 C 27.6 6.4 28.1 5.8 28.1 4.9 C 28.1 4 27.6 3.4 26.5 3.4 C 26.49 3.35 23.4 3.4 23.4 3.4 L 23.4 6.4 C 23.4 6.4 26.49 6.45 26.5 6.4 Z M 26.6 11.2 C 27.7 11.2 28.4 10.5 28.4 9.5 C 28.4 8.6 27.7 7.8 26.6 7.8 C 26.57 7.84 23.4 7.8 23.4 7.8 L 23.4 11.2 C 23.4 11.2 26.57 11.15 26.6 11.2 Z M 31.7 10.4 C 32.1 10.9 32.7 11.3 33.6 11.3 C 34.8 11.3 35.6 10.5 35.6 9.3 C 35.59 9.26 35.6 2 35.6 2 L 37.2 2 C 37.2 2 37.18 9.28 37.2 9.3 C 37.2 11.6 35.7 12.7 33.7 12.7 C 32.6 12.7 31.7 12.4 30.9 11.6 C 30.9 11.6 31.7 10.4 31.7 10.4 Z M 39.5 2 L 46.7 2 L 46.7 3.4 L 41.1 3.4 L 41.1 6.4 L 46.5 6.4 L 46.5 7.8 L 41.1 7.8 L 41.1 11.2 L 46.7 11.2 L 46.7 12.5 L 39.5 12.5 L 39.5 2 Z M 48.2 7.3 C 48.2 4 50.6 1.8 53.6 1.8 C 55.7 1.8 57 2.8 57.8 4 C 57.8 4 56.5 4.7 56.5 4.7 C 55.9 3.8 54.9 3.2 53.6 3.2 C 51.5 3.2 49.8 4.9 49.8 7.3 C 49.8 9.6 51.5 11.3 53.6 11.3 C 54.9 11.3 55.9 10.7 56.5 9.8 C 56.5 9.8 57.8 10.5 57.8 10.5 C 57 11.7 55.7 12.7 53.6 12.7 C 50.6 12.7 48.2 10.5 48.2 7.3 Z M 62 3.4 L 58.7 3.4 L 58.7 2 L 66.9 2 L 66.9 3.4 L 63.6 3.4 L 63.6 12.5 L 62 12.5 L 62 3.4 Z M 72.6 2 C 72.6 2 77.09 1.95 77.1 2 C 79.3 2 80.5 3.4 80.5 5.2 C 80.5 7 79.3 8.5 77.1 8.5 C 77.09 8.46 74.2 8.5 74.2 8.5 L 74.2 12.5 L 72.6 12.5 L 72.6 2 Z M 76.9 3.4 C 76.89 3.35 74.2 3.4 74.2 3.4 L 74.2 7.1 C 74.2 7.1 76.89 7.07 76.9 7.1 C 78 7.1 78.8 6.3 78.8 5.2 C 78.8 4.1 78 3.4 76.9 3.4 Z M 85.7 8.5 L 83.7 8.5 L 83.7 12.5 L 82.1 12.5 L 82.1 2 C 82.1 2 86.57 1.95 86.6 2 C 88.6 2 90 3.3 90 5.2 C 90 7.1 88.7 8.1 87.3 8.3 C 87.34 8.31 90.1 12.5 90.1 12.5 L 88.2 12.5 L 85.7 8.5 Z M 86.4 3.4 C 86.37 3.35 83.7 3.4 83.7 3.4 L 83.7 7.1 C 83.7 7.1 86.37 7.07 86.4 7.1 C 87.5 7.1 88.3 6.3 88.3 5.2 C 88.3 4.1 87.5 3.4 86.4 3.4 Z M 96.8 1.8 C 100 1.8 102.2 4.1 102.2 7.3 C 102.2 10.4 100 12.7 96.8 12.7 C 93.7 12.7 91.5 10.4 91.5 7.3 C 91.5 4.1 93.7 1.8 96.8 1.8 Z M 96.8 3.2 C 94.5 3.2 93.1 4.9 93.1 7.3 C 93.1 9.6 94.5 11.3 96.8 11.3 C 99.1 11.3 100.5 9.6 100.5 7.3 C 100.5 4.9 99.1 3.2 96.8 3.2 Z M 104.1 2 C 104.1 2 108.54 1.95 108.5 2 C 110.7 2 111.9 3.4 111.9 5.2 C 111.9 7 110.7 8.5 108.5 8.5 C 108.54 8.46 105.7 8.5 105.7 8.5 L 105.7 12.5 L 104.1 12.5 L 104.1 2 Z M 108.3 3.4 C 108.33 3.35 105.7 3.4 105.7 3.4 L 105.7 7.1 C 105.7 7.1 108.33 7.07 108.3 7.1 C 109.5 7.1 110.3 6.3 110.3 5.2 C 110.3 4.1 109.5 3.4 108.3 3.4 Z M 113.6 2 L 120.7 2 L 120.7 3.4 L 115.1 3.4 L 115.1 6.4 L 120.6 6.4 L 120.6 7.8 L 115.1 7.8 L 115.1 11.2 L 120.7 11.2 L 120.7 12.5 L 113.6 12.5 L 113.6 2 Z M 126.2 8.5 L 124.2 8.5 L 124.2 12.5 L 122.7 12.5 L 122.7 2 C 122.7 2 127.12 1.95 127.1 2 C 129.1 2 130.5 3.3 130.5 5.2 C 130.5 7.1 129.2 8.1 127.9 8.3 C 127.88 8.31 130.6 12.5 130.6 12.5 L 128.8 12.5 L 126.2 8.5 Z M 126.9 3.4 C 126.91 3.35 124.2 3.4 124.2 3.4 L 124.2 7.1 C 124.2 7.1 126.91 7.07 126.9 7.1 C 128.1 7.1 128.9 6.3 128.9 5.2 C 128.9 4.1 128.1 3.4 126.9 3.4 Z M 134.9 3.4 L 131.6 3.4 L 131.6 2 L 139.8 2 L 139.8 3.4 L 136.5 3.4 L 136.5 12.5 L 134.9 12.5 L 134.9 3.4 Z M 144.5 8.1 L 140.3 2 L 142.1 2 L 145.3 6.7 L 148.3 2 L 150.2 2 L 146.1 8.1 L 146.1 12.5 L 144.5 12.5 L 144.5 8.1 Z " stroke="none" fill="#3797ef"/>
  </g>
</svg>