<?xml version="1.0" standalone="no"?><!DOCTYPE svg PUBLIC "-//W3C//DTD SVG 1.1//EN" "http://www.w3.org/Graphics/SVG/1.1/DTD/svg11.dtd"><svg xmlns="http://www.w3.org/2000/svg" version="1.1" width="58.2px" height="16.9px" viewBox="0 -4 58.2 16.9" style="top:-4px"><desc>Agent 1</desc><defs/><g id="Polygon44842"><path d="m.7 1.1h.9v5.2h2.7v.8H.7v-6zm4.3.4c0-.3.3-.5.6-.5c.3 0 .5.2.5.5c0 .3-.2.5-.5.5c-.3 0-.6-.2-.6-.5zm.2 1.3h.8v4.3h-.8V2.8zm2 3.1c.3.4.9.7 1.4.7c.7 0 1-.3 1-.7c0-.4-.5-.5-1.1-.7c-.7-.1-1.6-.3-1.6-1.3c0-.7.6-1.2 1.7-1.2c.7 0 1.3.2 1.6.6l-.3.5c-.3-.3-.8-.5-1.3-.5c-.6 0-.9.2-.9.6c0 .4.5.5 1 .6c.8.2 1.7.4 1.7 1.4c0 .7-.6 1.3-1.8 1.3c-.7 0-1.4-.2-1.8-.7l.4-.6zm4.3.2c-.03.05 0-2.6 0-2.6h-.8v-.7h.8V1.6h.8v1.2h.9v.7h-.9s-.02 2.47 0 2.5c0 .3.1.5.4.5c.2 0 .4-.1.4-.2l.2.6c-.1.2-.4.3-.8.3c-.7 0-1-.4-1-1.1zm4.7-5s2.55.01 2.5 0c1.3 0 2 .9 2 1.9c0 1-.7 1.8-2 1.8h-1.6v2.3h-.9v-6zm2.4.8h-1.5v2.1h1.5c.7 0 1.1-.4 1.1-1c0-.7-.4-1.1-1.1-1.1zm2.9.9h.8v.6c.3-.4.8-.7 1.4-.7v.8h-.3c-.4 0-.9.3-1.1.6v3h-.8V2.8zm2.8-1.3c0-.3.3-.5.5-.5c.3 0 .6.2.6.5c0 .3-.3.5-.6.5c-.2 0-.5-.2-.5-.5zm.1 1.3h.8v4.3h-.8V2.8zm4-.1c.8 0 1.3.3 1.6.7l-.5.5c-.3-.4-.6-.5-1.1-.5c-.8 0-1.4.6-1.4 1.5c0 .9.6 1.6 1.4 1.6c.5 0 .8-.2 1.1-.5l.5.5c-.3.4-.8.7-1.6.7c-1.3 0-2.2-1-2.2-2.3c0-1.3.9-2.2 2.2-2.2zm4.3 0c1.3 0 2.1 1 2.1 2.3c.04 0 0 .2 0 .2h-3.4c.1.7.6 1.4 1.5 1.4c.4 0 .9-.2 1.3-.6l.3.6c-.4.4-1 .6-1.7.6c-1.3 0-2.3-.9-2.3-2.3c0-1.2 1-2.2 2.2-2.2zm-1.3 1.9h2.6c0-.6-.4-1.3-1.3-1.3c-.9 0-1.3.7-1.3 1.3z" stroke="none" fill="#3797ef"/></g></svg>