<?xml version="1.0" standalone="no"?><!DOCTYPE svg PUBLIC "-//W3C//DTD SVG 1.1//EN" "http://www.w3.org/Graphics/SVG/1.1/DTD/svg11.dtd"><svg xmlns="http://www.w3.org/2000/svg" version="1.1" width="355px" height="47.3px" viewBox="0 -6 355 47.3" style="top:-6px"><desc>Agent 1</desc><defs/><g id="Polygon83322"><path d="m.7 26.3c0-3.2 2.4-5.5 5.5-5.5c2 0 3.3 1 4.2 2.3l-1.4.7c-.5-.9-1.6-1.6-2.8-1.6c-2.2 0-3.8 1.7-3.8 4.1c0 2.4 1.6 4.1 3.8 4.1c1.2 0 2.3-.7 2.8-1.6l1.4.8c-.9 1.2-2.2 2.2-4.2 2.2c-3.1 0-5.5-2.2-5.5-5.5zm16.1-5.5c3.2 0 5.4 2.4 5.4 5.5c0 3.2-2.2 5.5-5.4 5.5c-3.1 0-5.3-2.3-5.3-5.5c0-3.1 2.2-5.5 5.3-5.5zm0 1.4c-2.2 0-3.7 1.8-3.7 4.1c0 2.3 1.5 4.1 3.7 4.1c2.3 0 3.7-1.8 3.7-4.1c0-2.3-1.4-4.1-3.7-4.1zm10.9 5.3h-2v4.1h-1.6V21h4.5c2 0 3.4 1.3 3.4 3.3c0 1.9-1.3 2.9-2.7 3.1c.03-.04 2.7 4.2 2.7 4.2h-1.8l-2.5-4.1zm.7-5.1h-2.7v3.7s2.66.02 2.7 0c1.1 0 1.9-.7 1.9-1.8c0-1.1-.8-1.9-1.9-1.9zm5.5-1.4h4.5c2.2 0 3.4 1.5 3.4 3.3c0 1.7-1.3 3.2-3.4 3.2c-.02.02-2.9 0-2.9 0v4.1h-1.6V21zm4.3 1.4h-2.7v3.7s2.68.02 2.7 0c1.1 0 1.9-.7 1.9-1.8c0-1.1-.8-1.9-1.9-1.9zm4.4 7.4c.6 0 1 .4 1 1c0 .5-.4 1-1 1c-.5 0-.9-.5-.9-1c0-.6.4-1 .9-1zm7.2-8.8h1.6v9.2h4.8v1.4h-6.4V21zm7.9.7c0-.5.4-.9.9-.9c.5 0 .9.4.9.9c0 .5-.4.9-.9.9c-.5 0-.9-.4-.9-.9zm.2 2.2h1.5v7.7h-1.5v-7.7zm7.2-.2c1.4 0 2.3.6 2.8 1.4l-.9.9c-.5-.7-1.1-1-1.9-1c-1.5 0-2.5 1.2-2.5 2.8c0 1.5 1 2.7 2.5 2.7c.8 0 1.4-.3 1.9-.9l.9.8c-.5.8-1.4 1.4-2.8 1.4c-2.4 0-3.9-1.7-3.9-4c0-2.3 1.5-4.1 3.9-4.1zm5.1 6.1c.6 0 1 .4 1 1c0 .5-.4 1-1 1c-.5 0-.9-.5-.9-1c0-.6.4-1 .9-1zm10.9-8.9c3 0 4.2 2.8 4.2 5.4c0 2.6-1.2 5.5-4.2 5.5c-2.9 0-4.1-2.9-4.1-5.5c0-2.6 1.2-5.4 4.1-5.4zm0 1.4c-1.9 0-2.5 1.9-2.5 4c0 2.1.6 4.1 2.5 4.1c1.9 0 2.5-2 2.5-4.1c0-2.1-.6-4-2.5-4zm9.8-1.4c2.9 0 4.1 2.8 4.1 5.4c0 2.6-1.2 5.5-4.1 5.5c-3 0-4.2-2.9-4.2-5.5c0-2.6 1.2-5.4 4.2-5.4zm0 1.4c-1.9 0-2.6 1.9-2.6 4c0 2.1.7 4.1 2.6 4.1c1.8 0 2.5-2 2.5-4.1c0-2.1-.7-4-2.5-4zm9.7-1.4c3 0 4.2 2.8 4.2 5.4c0 2.6-1.2 5.5-4.2 5.5c-2.9 0-4.1-2.9-4.1-5.5c0-2.6 1.2-5.4 4.1-5.4zm0 1.4c-1.9 0-2.5 1.9-2.5 4c0 2.1.6 4.1 2.5 4.1c1.9 0 2.5-2 2.5-4.1c0-2.1-.6-4-2.5-4zm9.8-1.4c2.9 0 4.1 2.8 4.1 5.4c0 2.6-1.2 5.5-4.1 5.5c-3 0-4.2-2.9-4.2-5.5c0-2.6 1.2-5.4 4.2-5.4zm0 1.4c-1.9 0-2.6 1.9-2.6 4c0 2.1.7 4.1 2.6 4.1c1.8 0 2.5-2 2.5-4.1c0-2.1-.7-4-2.5-4zm9.7-1.4c3 0 4.2 2.8 4.2 5.4c0 2.6-1.2 5.5-4.2 5.5c-2.9 0-4.1-2.9-4.1-5.5c0-2.6 1.2-5.4 4.1-5.4zm0 1.4c-1.9 0-2.5 1.9-2.5 4c0 2.1.6 4.1 2.5 4.1c1.9 0 2.5-2 2.5-4.1c0-2.1-.6-4-2.5-4zm9.8-1.4c2.9 0 4.1 2.8 4.1 5.4c0 2.6-1.2 5.5-4.1 5.5c-3 0-4.2-2.9-4.2-5.5c0-2.6 1.2-5.4 4.2-5.4zm0 1.4c-1.9 0-2.6 1.9-2.6 4c0 2.1.7 4.1 2.6 4.1c1.8 0 2.5-2 2.5-4.1c0-2.1-.7-4-2.5-4z" stroke="none" fill="#88898a"/></g><g id="Polygon83321"><path d="m1.4 9.8c.7.8 1.9 1.5 3.4 1.5c1.7 0 2.3-.9 2.3-1.6c0-1.1-1.2-1.4-2.6-1.8C2.8 7.5.9 7 .9 4.8c0-1.7 1.5-3 3.7-3c1.6 0 2.9.5 3.9 1.5l-1 1.1c-.8-.8-1.9-1.2-3-1.2c-1.2 0-2 .6-2 1.5c0 1 1.1 1.3 2.5 1.6c1.7.4 3.7 1 3.7 3.2c0 1.7-1.1 3.2-4 3.2c-1.9 0-3.3-.6-4.2-1.6l.9-1.3zm9.1 1c.05.05 0-4.7 0-4.7H9.3V4.9h1.2V2.8h1.5v2.1h1.5v1.2H12s-.03 4.43 0 4.4c0 .6.2 1 .7 1c.4 0 .7-.2.8-.3l.4 1c-.3.3-.8.5-1.5.5c-1.2 0-1.9-.6-1.9-1.9zm9.4.9c-.7.7-1.5 1-2.6 1c-1.2 0-2.6-.8-2.6-2.5c0-1.8 1.4-2.5 2.6-2.5c1.1 0 2 .3 2.6 1V7.4c0-.9-.8-1.5-1.9-1.5c-.9 0-1.6.3-2.3 1l-.6-1c.8-.8 1.9-1.2 3.1-1.2c1.7 0 3.1.7 3.1 2.7c-.02-.03 0 5.1 0 5.1h-1.4s-.05-.8 0-.8zm0-2.1c-.5-.6-1.2-.9-2-.9c-1.1 0-1.8.6-1.8 1.5c0 .9.7 1.5 1.8 1.5c.8 0 1.5-.3 2-.8V9.6zm4 1.2c-.05.05 0-4.7 0-4.7h-1.3V4.9h1.3V2.8h1.4v2.1h1.5v1.2h-1.5s-.02 4.43 0 4.4c0 .6.2 1 .7 1c.4 0 .7-.2.8-.3l.4 1c-.3.3-.8.5-1.5.5c-1.2 0-1.8-.6-1.8-1.9zm7.9-6.1c2.3 0 3.7 1.8 3.7 4.1c.02.03 0 .4 0 .4c0 0-6.04-.02-6 0c.1 1.3 1 2.4 2.6 2.4c.8 0 1.7-.4 2.2-.9l.7.9c-.8.7-1.8 1.1-3.1 1.1c-2.3 0-4-1.6-4-4c0-2.2 1.7-4 3.9-4zm-2.4 3.4h4.7c0-1-.7-2.2-2.3-2.2c-1.5 0-2.3 1.2-2.4 2.2zm15.6.4h-2v4h-1.6V2s4.51-.05 4.5 0c2 0 3.4 1.3 3.4 3.2c0 1.9-1.3 2.9-2.6 3.1c-.03 0 2.7 4.2 2.7 4.2h-1.9l-2.5-4zm.7-5.2c0 .05-2.7 0-2.7 0v3.8s2.7-.03 2.7 0c1.1 0 2-.8 2-1.9c0-1.1-.9-1.9-2-1.9zM51.3 2h7.1v1.3h-5.6v3.1h5.5v1.4h-5.5v3.3h5.6v1.4h-7.1V2zm13.2 0h1.5v9.1h4.9v1.4h-6.4V2zm7.8.7c0-.5.5-.9 1-.9c.5 0 .9.4.9.9c0 .5-.4.9-.9.9c-.5 0-1-.4-1-.9zm.3 2.2h1.4v7.6h-1.4V4.9zm7.1-.2c1.4 0 2.3.6 2.9 1.3l-1 .9c-.4-.6-1.1-.9-1.8-.9c-1.5 0-2.5 1.1-2.5 2.7c0 1.6 1 2.8 2.5 2.8c.7 0 1.4-.4 1.8-1l1 .9c-.6.7-1.5 1.3-2.9 1.3c-2.3 0-3.9-1.7-3.9-4c0-2.3 1.6-4 3.9-4zm5.2 6c.5 0 1 .5 1 1c0 .6-.5 1-1 1c-.6 0-1-.4-1-1c0-.5.4-1 1-1zm10.9-8.9c2.9 0 4.1 2.8 4.1 5.5c0 2.6-1.2 5.4-4.1 5.4c-3 0-4.2-2.8-4.2-5.4c0-2.7 1.2-5.5 4.2-5.5zm0 1.4c-1.9 0-2.6 2-2.6 4.1c0 2 .7 4 2.6 4c1.8 0 2.5-2 2.5-4c0-2.1-.7-4.1-2.5-4.1zm9.7-1.4c2.9 0 4.1 2.8 4.1 5.5c0 2.6-1.2 5.4-4.1 5.4c-2.9 0-4.1-2.8-4.1-5.4c0-2.7 1.2-5.5 4.1-5.5zm0 1.4c-1.9 0-2.5 2-2.5 4.1c0 2 .6 4 2.5 4c1.9 0 2.5-2 2.5-4c0-2.1-.6-4.1-2.5-4.1zm9.8-1.4c2.9 0 4.1 2.8 4.1 5.5c0 2.6-1.2 5.4-4.1 5.4c-3 0-4.2-2.8-4.2-5.4c0-2.7 1.2-5.5 4.2-5.5zm0 1.4c-1.9 0-2.6 2-2.6 4.1c0 2 .7 4 2.6 4c1.8 0 2.5-2 2.5-4c0-2.1-.7-4.1-2.5-4.1zm9.7-1.4c2.9 0 4.1 2.8 4.1 5.5c0 2.6-1.2 5.4-4.1 5.4c-2.9 0-4.1-2.8-4.1-5.4c0-2.7 1.2-5.5 4.1-5.5zm0 1.4c-1.9 0-2.5 2-2.5 4.1c0 2 .6 4 2.5 4c1.9 0 2.5-2 2.5-4c0-2.1-.6-4.1-2.5-4.1zm9.8-1.4c2.9 0 4.1 2.8 4.1 5.5c0 2.6-1.2 5.4-4.1 5.4c-3 0-4.2-2.8-4.2-5.4c0-2.7 1.2-5.5 4.2-5.5zm0 1.4c-1.9 0-2.6 2-2.6 4.1c0 2 .7 4 2.6 4c1.8 0 2.5-2 2.5-4c0-2.1-.7-4.1-2.5-4.1zm9.7-1.4c2.9 0 4.2 2.8 4.2 5.5c0 2.6-1.3 5.4-4.2 5.4c-2.9 0-4.1-2.8-4.1-5.4c0-2.7 1.2-5.5 4.1-5.5zm0 1.4c-1.9 0-2.5 2-2.5 4.1c0 2 .6 4 2.5 4c1.9 0 2.5-2 2.5-4c0-2.1-.6-4.1-2.5-4.1z" stroke="none" fill="#88898a"/></g></svg>