<?xml version="1.0" standalone="no"?><!DOCTYPE svg PUBLIC "-//W3C//DTD SVG 1.1//EN" "http://www.w3.org/Graphics/SVG/1.1/DTD/svg11.dtd"><svg xmlns="http://www.w3.org/2000/svg" xmlns:xlink="http://www.w3.org/1999/xlink" version="1.1" width="220.1px" height="44.5px" viewBox="0 -8 220.1 44.5" style="top:-8px"><desc>RENT SCHEDULE</desc><defs/><g id="Polygon69605"><path d="m5 26.3l-1.4-4.5h-.9v4.5H.8V15.1h2.9c1.7 0 2.8.7 2.8 2.4v2c0 1-.4 1.7-1.2 2.1c0-.04 1.6 4.7 1.6 4.7H5zm-2.3-6.1s.93.05.9 0c.6 0 1.1-.2 1.1-1v-1.4c0-.8-.5-1.1-1.1-1.1c.03.04-.9 0-.9 0v3.5zm5.2 6.1V15.1h4.9v1.6H9.7v3.1h2.6v1.6H9.7v3.3h3.1v1.6H7.9zm6.1 0V15.1h1.8l2.4 6.9v-6.9h1.7v11.2h-1.8L15.7 19v7.3H14zm12.3-9.6h-1.9v9.6h-1.9v-9.6h-1.8v-1.6h5.6v1.6zm6.5 2.4v-1.6c0-.7-.4-.9-.9-.9c-.6 0-1 .2-1 .9v.8c0 .6.2.8.7 1.1l1.3.8c1.1.6 1.8 1.1 1.8 2.3v1.6c0 1.7-1.1 2.3-2.8 2.3c-1.7 0-2.8-.6-2.8-2.3v-2h1.8s.01 1.75 0 1.7c0 .7.4 1 1 1c.5 0 .9-.3.9-1v-.8c0-.6-.1-.9-.7-1.2l-1.3-.7c-1.1-.7-1.7-1.2-1.7-2.3v-1.5c0-1.7 1.2-2.3 2.7-2.3h.1c1.5 0 2.7.6 2.7 2.3c.02-.01 0 1.8 0 1.8h-1.8zm8.6 5c0 1.7-1.1 2.3-2.8 2.3c-1.7 0-2.8-.6-2.8-2.3v-6.8c0-1.6 1.1-2.3 2.8-2.3c1.7 0 2.8.7 2.8 2.3c.04.05 0 2.1 0 2.1h-1.8s-.02-1.76 0-1.8c0-.7-.4-1-1-1c-.6 0-1 .3-1 1v6.2c0 .8.4 1 1 1c.6 0 1-.2 1-1c-.02-.02 0-2.1 0-2.1h1.8s.04 2.37 0 2.4zm3.2-9v4.7h2.1v-4.7h1.9v11.2h-1.9v-4.9h-2.1v4.9h-1.8V15.1h1.8zM50 26.3V15.1h4.9v1.6h-3v3.1h2.5v1.6h-2.5v3.3h3.1v1.6h-5zm11.8-8.8v6.4c0 1.7-1.1 2.4-2.8 2.4h-2.9V15.1h2.9c1.7 0 2.8.7 2.8 2.4zm-2.9-.8c.04.04-.9 0-.9 0v8s.94-.02.9 0c.7 0 1.1-.2 1.1-1v-5.9c0-.8-.4-1.1-1.1-1.1zm9.9 7.4c0 1.7-1.1 2.3-2.8 2.3c-1.7 0-2.8-.6-2.8-2.3c-.03-.03 0-9 0-9h1.8s.02 8.68 0 8.7c0 .8.4 1 1 1c.6 0 .9-.2.9-1c.04-.02 0-8.7 0-8.7h1.9v9zm6.1 2.2h-4.7V15.1h1.9v9.5h2.8v1.7zm.9 0V15.1h4.9v1.6h-3.1v3.1h2.6v1.6h-2.6v3.3h3.1v1.6h-4.9z" stroke="none" fill="#282828"/></g><g id="Polygon69603"><path d="m0 3.8l4-1.9v.6L.6 4.1L4 5.7v.6L0 4.4v-.6zm4.4 0l4-1.9v.6L5 4.1l3.4 1.6v.6l-4-1.9v-.6zm6.3-1.9H8.8v-.8h4.6v.8h-1.8v5.2h-.9V1.9zm4.5.8c1.3 0 2.1 1 2.1 2.3v.2h-3.4c0 .7.6 1.4 1.4 1.4c.5 0 1-.2 1.3-.6l.4.6c-.4.4-1 .6-1.7.6c-1.3 0-2.3-.9-2.3-2.3c0-1.2.9-2.2 2.2-2.2zm-1.3 1.9h2.6c0-.6-.4-1.3-1.3-1.3c-.9 0-1.3.7-1.3 1.3zm7.3-.3c0-.7-.4-.9-1-.9c-.5 0-.9.3-1.2.6c.04 0 0 3.1 0 3.1h-.8V2.8h.8s.04.57 0 .6c.3-.4.9-.7 1.6-.7c.9 0 1.4.4 1.4 1.4c-.02-.04 0 3 0 3h-.8s-.03-2.77 0-2.8zm4.7 2.3c-.4.4-.9.6-1.5.6c-.7 0-1.5-.5-1.5-1.4c0-1 .8-1.4 1.5-1.4c.6 0 1.1.1 1.5.5v-.7c0-.5-.5-.9-1.1-.9c-.5 0-.9.2-1.3.6l-.4-.5c.5-.5 1.1-.7 1.8-.7c1 0 1.8.4 1.8 1.5c-.03-.02 0 2.9 0 2.9h-.8s-.04-.47 0-.5zm0-1.2c-.3-.3-.7-.5-1.2-.5c-.5 0-1 .4-1 .9c0 .5.5.9 1 .9c.5 0 .9-.2 1.2-.5v-.8zm4.9-1.1c0-.7-.4-.9-.9-.9c-.5 0-1 .3-1.2.6c-.02 0 0 3.1 0 3.1h-.8V2.8h.8s-.02.57 0 .6c.3-.4.8-.7 1.5-.7c.9 0 1.4.4 1.4 1.4c.02-.04 0 3 0 3h-.8V4.3zM33 6.1c-.02.05 0-2.6 0-2.6h-.7v-.7h.7V1.6h.8v1.2h.9v.7h-.9s-.02 2.47 0 2.5c0 .3.1.5.4.5c.2 0 .4-.1.4-.2l.3.6c-.2.2-.5.3-.9.3c-.7 0-1-.4-1-1.1zm2.2-1.2c0-1.4.5-2.9 1.3-4l.5.4c-.6 1.1-.9 2.2-.9 3.6c0 1.5.3 2.5.9 3.6l-.5.4c-.8-1.1-1.3-2.5-1.3-4zm2.6 1c.3.4.8.7 1.4.7c.6 0 .9-.3.9-.7c0-.4-.4-.5-1-.7c-.7-.1-1.6-.3-1.6-1.3c0-.7.6-1.2 1.6-1.2c.8 0 1.3.2 1.7.6l-.4.5c-.2-.3-.7-.5-1.2-.5c-.6 0-.9.2-.9.6c0 .4.4.5 1 .6c.7.2 1.6.4 1.6 1.4c0 .7-.6 1.3-1.7 1.3c-.8 0-1.4-.2-1.8-.7l.4-.6zm3.6-4.6l.5-.4c.8 1.1 1.3 2.6 1.3 4c0 1.5-.5 2.9-1.3 4l-.5-.4c.6-1.1.9-2.1.9-3.6c0-1.4-.3-2.5-.9-3.6zm2.3 4.4l3.4-1.6l-3.4-1.6v-.6l4 1.9v.6l-4 1.9v-.6zm4.5 0l3.3-1.6l-3.3-1.6v-.6l3.9 1.9v.6l-3.9 1.9v-.6z" stroke="none" fill="#3797ef"/><a xlink:href="DBF_Tenant(s)" xlink:show="new" xlink:title="&lt;&lt;Tenant(s)&gt;&gt;"><rect style="fill:transparent;" x="-1" y="0" width="53" height="9"/></a></g></svg>