<?xml version="1.0" standalone="no"?><!DOCTYPE svg PUBLIC "-//W3C//DTD SVG 1.1//EN" "http://www.w3.org/Graphics/SVG/1.1/DTD/svg11.dtd"><svg xmlns="http://www.w3.org/2000/svg" xmlns:xlink="http://www.w3.org/1999/xlink" version="1.1" width="125.4px" height="32.3px" viewBox="0 -7 125.4 32.3" style="top:-7px"><desc/><defs/><g id="Polygon75252"><path d="m12.7 6.9l7-3.6v.8l-6.1 3.1l6.1 3.1v.8l-7-3.6v-.6zm7.9 0l7-3.6v.8l-6.1 3.1l6.1 3.1v.8l-7-3.6v-.6zm8.3 4.9c3.6-2.9 6-5 6-7c0-1.5-1.2-2.2-2.4-2.2c-1.3 0-2.3.6-2.9 1.4l-.6-.6c.8-1 2-1.6 3.5-1.6c1.6 0 3.4.9 3.4 3c0 2.3-2.5 4.4-5.6 6.9c.04.02 5.6 0 5.6 0v.8h-7s.03-.7 0-.7zm13.2-10C45 1.8 46 4.7 46 7.3c0 2.5-1 5.4-3.9 5.4c-2.8 0-3.9-2.9-3.9-5.4c0-2.6 1.1-5.5 3.9-5.5zm0 .8c-2.2 0-2.9 2.5-2.9 4.7c0 2.1.7 4.6 2.9 4.6c2.2 0 3-2.5 3-4.6c0-2.2-.8-4.7-3-4.7zm7.5.6L47.9 5l-.6-.6L49.7 2h.8v10.5h-.9V3.2zm7.1-1.4c2.8 0 3.9 2.9 3.9 5.5c0 2.5-1.1 5.4-3.9 5.4c-2.9 0-3.9-2.9-3.9-5.4c0-2.6 1-5.5 3.9-5.5zm0 .8c-2.3 0-3 2.5-3 4.7c0 2.1.7 4.6 3 4.6c2.2 0 2.9-2.5 2.9-4.6c0-2.2-.7-4.7-2.9-4.7zm9.8 4.7c0-3.3 2.4-5.5 5.4-5.5c1.7 0 2.9.7 3.8 1.9l-.7.4c-.7-.9-1.8-1.5-3.1-1.5c-2.5 0-4.4 1.9-4.4 4.7c0 2.7 1.9 4.6 4.4 4.6c1.3 0 2.4-.6 3.1-1.5l.7.4c-.9 1.2-2.1 1.9-3.8 1.9c-3 0-5.4-2.2-5.4-5.4zm14.3-2.6c2.3 0 3.6 1.8 3.6 4c.03.05 0 .3 0 .3c0 0-6.39-.03-6.4 0c.1 1.6 1.2 3 3 3c1 0 1.9-.3 2.5-1l.5.5c-.8.8-1.8 1.2-3 1.2c-2.3 0-3.9-1.6-3.9-4c0-2.2 1.6-4 3.7-4zM78 8.3h5.6c0-1.3-.9-2.9-2.8-2.9C79 5.4 78.1 7 78 8.3zm13.7-.9c0-1.5-.7-2-1.8-2c-1 0-2 .7-2.5 1.3c-.02.05 0 5.8 0 5.8h-.8V4.9h.8s-.02 1.13 0 1.1c.5-.6 1.6-1.3 2.7-1.3c1.6 0 2.5.7 2.5 2.5c-.04-.02 0 5.3 0 5.3h-.9s.04-5.13 0-5.1zm3.3 3.5c.4.6 1.3 1.1 2.4 1.1c1.3 0 2.1-.6 2.1-1.5c0-1-1.1-1.3-2.2-1.5c-1.2-.4-2.7-.7-2.7-2.2c0-1.2 1-2.1 2.8-2.1c1.3 0 2.2.5 2.7 1.1l-.4.6c-.5-.6-1.3-1-2.3-1c-1.2 0-2 .6-2 1.4c0 .8 1 1.1 2.1 1.3c1.3.4 2.8.7 2.8 2.4c0 1.2-1 2.2-2.9 2.2c-1.2 0-2.2-.3-2.9-1.2l.5-.6zm12.6.5c-.6.7-1.7 1.3-2.8 1.3c-1.5 0-2.4-.7-2.4-2.4c.02-.02 0-5.4 0-5.4h.8s.05 5.18 0 5.2c0 1.5.8 1.9 1.9 1.9c1 0 2-.6 2.5-1.3V4.9h.8v7.6h-.8v-1.1zm3.2-.5c.5.6 1.4 1.1 2.5 1.1c1.3 0 2-.6 2-1.5c0-1-1-1.3-2.1-1.5c-1.3-.4-2.7-.7-2.7-2.2c0-1.2 1-2.1 2.7-2.1c1.4 0 2.2.5 2.8 1.1l-.5.6c-.4-.6-1.2-1-2.3-1c-1.2 0-1.9.6-1.9 1.4c0 .8 1 1.1 2.1 1.3c1.3.4 2.8.7 2.8 2.4c0 1.2-1 2.2-2.9 2.2c-1.3 0-2.2-.3-3-1.2l.5-.6zm10.8-2.6h3.8v.8h-3.8v-.8z" stroke="none" fill="#000"/><a xlink:href="DBF_2010%20Census%20-%205%20Mile1" xlink:show="new" xlink:title="&lt;&lt;2010 Census - 5 Mile1&gt;&gt;"><rect style="fill:transparent;" x="12" y="1" width="114" height="12"/></a></g></svg>