<?xml version="1.0" standalone="no"?><!DOCTYPE svg PUBLIC "-//W3C//DTD SVG 1.1//EN" "http://www.w3.org/Graphics/SVG/1.1/DTD/svg11.dtd"><svg xmlns="http://www.w3.org/2000/svg" xmlns:xlink="http://www.w3.org/1999/xlink" version="1.1" width="237px" height="44.9px" viewBox="0 -14 237 44.9" style="top:-14px"><desc>SF</desc><defs/><g id="Polygon47456"><path d="m220.4 10.4c.7.8 1.8 1.5 3.4 1.5c2.1 0 2.7-1.2 2.7-2.1c0-1.5-1.4-1.9-2.9-2.3c-1.6-.5-3.4-.9-3.4-2.9c0-1.7 1.5-2.8 3.5-2.8c1.5 0 2.7.5 3.6 1.5l-.6.6c-.8-.9-1.9-1.3-3.1-1.3c-1.4 0-2.5.8-2.5 2c0 1.2 1.4 1.6 2.8 2c1.7.5 3.6 1 3.6 3.2c0 1.3-.9 2.9-3.8 2.9c-1.7 0-3-.7-3.8-1.6l.5-.7zm9.3-8.4h6.7v.8h-5.8v3.9h5.7v.8h-5.7v5h-.9V2z" stroke="none" fill="#000"/></g><g id="Polygon47455"><path d="m154.9 6.9l6.9-3.6v.8l-6.1 3.1l6.1 3.1v.8l-6.9-3.6v-.6zm7.8 0l7-3.6v.8l-6.1 3.1l6.1 3.1v.8l-7-3.6v-.6zm13.7-5.1c1.8 0 3.1.7 4 1.8l-.7.5c-.7-.9-1.9-1.5-3.3-1.5c-2.5 0-4.4 1.9-4.4 4.7c0 2.7 1.9 4.6 4.4 4.6c1.5 0 2.6-.7 3.2-1.3c-.05.04 0-2.5 0-2.5h-4.1v-.8h5s-.04 3.69 0 3.7c-1 1-2.4 1.8-4.1 1.8c-2.9 0-5.3-2.3-5.3-5.5c0-3.3 2.4-5.5 5.3-5.5zm6.4.2h.9v9.7h5.1v.8h-6V2zm14.6 7.9h-5.6l-1.1 2.6h-1L194 2h1.1l4.4 10.5h-1l-1.1-2.6zm-5.3-.8h5l-2.5-6.3l-2.5 6.3zm8.1 1.2l6.1-3.1l-6.1-3.1v-.8l6.9 3.6v.6l-6.9 3.6v-.8zm7.9 0l6.1-3.1l-6.1-3.1v-.8l6.9 3.6v.6l-6.9 3.6v-.8z" stroke="none" fill="#000"/><a xlink:href="DBF_GLA" xlink:show="new" xlink:title="&lt;&lt;GLA&gt;&gt;"><rect style="fill:transparent;" x="154" y="1" width="61" height="12"/></a></g></svg>