<?xml version="1.0" standalone="no"?><!DOCTYPE svg PUBLIC "-//W3C//DTD SVG 1.1//EN" "http://www.w3.org/Graphics/SVG/1.1/DTD/svg11.dtd"><svg xmlns="http://www.w3.org/2000/svg" version="1.1" width="158px" height="27.9px" viewBox="0 -6 158 27.9" style="top:-6px"><desc>Term Remaining</desc><defs/><g id="Polygon274006"><path d="m3.8 3.4H.5V2h8.1v1.4H5.4v9.1H3.8V3.4zm7.9 1.3c2.3 0 3.7 1.8 3.7 4.1c.04.03 0 .4 0 .4c0 0-6.03-.02-6 0c.1 1.3 1 2.4 2.6 2.4c.8 0 1.7-.4 2.2-.9l.7.9c-.7.7-1.8 1.1-3.1 1.1c-2.3 0-3.9-1.6-3.9-4c0-2.2 1.6-4 3.8-4zM9.4 8.1h4.6c0-1-.7-2.2-2.3-2.2c-1.5 0-2.3 1.2-2.3 2.2zm7.7-3.2h1.4v1.2c.6-.8 1.5-1.4 2.5-1.4v1.4h-.5c-.7 0-1.7.5-2 1.1v5.3h-1.4V4.9zm14.5 2.5c0-.9-.4-1.4-1.3-1.4c-.8 0-1.6.5-1.9 1.1c-.03-.05 0 5.4 0 5.4h-1.5s.04-5.07 0-5.1c0-.9-.3-1.4-1.3-1.4c-.8 0-1.5.5-1.9 1.1v5.4h-1.4V4.9h1.4s.01 1.05 0 1.1c.3-.5 1.3-1.3 2.5-1.3c1.1 0 1.8.6 2.1 1.4c.4-.7 1.4-1.4 2.6-1.4c1.4 0 2.1.8 2.1 2.3c.03 0 0 5.5 0 5.5h-1.4V7.4zm11.1 1.1h-2v4h-1.6V2s4.48-.05 4.5 0c2 0 3.4 1.3 3.4 3.2c0 1.9-1.3 2.9-2.7 3.1c.04.01 2.8 4.2 2.8 4.2h-1.9l-2.5-4zm.7-5.1c-.03-.05-2.7 0-2.7 0v3.7s2.67-.03 2.7 0c1.1 0 1.9-.8 1.9-1.9c0-1.1-.8-1.8-1.9-1.8zm8.2 1.3c2.3 0 3.8 1.8 3.8 4.1c-.04.03 0 .4 0 .4c0 0-6.1-.02-6.1 0c.1 1.3 1.1 2.4 2.6 2.4c.8 0 1.7-.4 2.3-.9l.6.9c-.7.7-1.8 1.1-3 1.1c-2.3 0-4-1.6-4-4c0-2.2 1.6-4 3.8-4zm-2.3 3.4h4.7c-.1-1-.7-2.2-2.4-2.2c-1.5 0-2.2 1.2-2.3 2.2zm17-.7c0-.9-.4-1.4-1.3-1.4c-.8 0-1.6.5-1.9 1.1c-.02-.05 0 5.4 0 5.4h-1.4s-.04-5.07 0-5.1c0-.9-.4-1.4-1.4-1.4c-.7 0-1.5.5-1.9 1.1c.03-.03 0 5.4 0 5.4H57V4.9h1.4s.03 1.05 0 1.1c.3-.5 1.4-1.3 2.5-1.3c1.2 0 1.9.6 2.1 1.4c.4-.7 1.5-1.4 2.6-1.4c1.4 0 2.2.8 2.2 2.3c-.05 0 0 5.5 0 5.5h-1.5s.03-5.07 0-5.1zm8.3 4.3c-.6.7-1.5 1-2.5 1c-1.3 0-2.7-.8-2.7-2.5c0-1.8 1.4-2.5 2.7-2.5c1 0 1.9.3 2.5 1V7.4c0-.9-.8-1.5-1.9-1.5c-.8 0-1.6.3-2.3 1l-.6-1c.9-.8 1.9-1.2 3.1-1.2c1.7 0 3.1.7 3.1 2.7c.03-.03 0 5.1 0 5.1h-1.4v-.8zm0-2.1c-.4-.6-1.2-.9-2-.9c-1 0-1.7.6-1.7 1.5c0 .9.7 1.5 1.7 1.5c.8 0 1.6-.3 2-.8V9.6zm3.3-6.9c0-.5.5-.9 1-.9c.5 0 .9.4.9.9c0 .5-.4.9-.9.9c-.5 0-1-.4-1-.9zm.3 2.2h1.4v7.6h-1.4V4.9zm8.7 2.7c0-1.2-.7-1.6-1.7-1.6c-.8 0-1.7.5-2.1 1.1c.03-.03 0 5.4 0 5.4h-1.4V4.9h1.4s.03 1.05 0 1.1c.5-.7 1.6-1.3 2.7-1.3c1.7 0 2.5.8 2.5 2.5v5.3h-1.4s-.02-4.86 0-4.9zm3.3-4.9c0-.5.4-.9.9-.9c.5 0 .9.4.9.9c0 .5-.4.9-.9.9c-.5 0-.9-.4-.9-.9zm.2 2.2h1.4v7.6h-1.4V4.9zm8.7 2.7c0-1.2-.6-1.6-1.6-1.6c-.9 0-1.7.5-2.1 1.1v5.4H94V4.9h1.4s-.01 1.05 0 1.1c.5-.7 1.5-1.3 2.7-1.3c1.6 0 2.5.8 2.5 2.5c-.03-.04 0 5.3 0 5.3h-1.5s.04-4.86 0-4.9zm4.2 5.9c.6.7 1.4 1 2.5 1c1.2 0 2.3-.6 2.3-2.2v-1c-.5.8-1.5 1.3-2.5 1.3c-2 0-3.4-1.4-3.4-4c0-2.4 1.4-3.9 3.4-3.9c1 0 1.9.5 2.5 1.3c.04-.01 0-1.1 0-1.1h1.5s-.03 7.34 0 7.3c0 2.7-1.9 3.5-3.8 3.5c-1.3 0-2.3-.3-3.2-1.2l.7-1zm4.8-6.4c-.4-.6-1.2-1.1-2.1-1.1c-1.4 0-2.3 1.1-2.3 2.6c0 1.6.9 2.7 2.3 2.7c.9 0 1.7-.5 2.1-1.1V7.1z" stroke="none" fill="#3797ef"/></g></svg>