<?xml version="1.0" standalone="no"?><!DOCTYPE svg PUBLIC "-//W3C//DTD SVG 1.1//EN" "http://www.w3.org/Graphics/SVG/1.1/DTD/svg11.dtd"><svg xmlns="http://www.w3.org/2000/svg" version="1.1" width="184px" height="16.9px" viewBox="0 -4 184 16.9" style="top:-4px"><desc>06</desc><defs/><g id="Polygon287030"><path d="m2.8 1c1.6 0 2.3 1.6 2.3 3.1c0 1.5-.7 3.1-2.3 3.1C1.1 7.2.4 5.6.4 4.1C.4 2.6 1.1 1 2.8 1zm0 .8c-1.1 0-1.5 1.1-1.5 2.3c0 1.2.4 2.3 1.5 2.3c1 0 1.4-1.1 1.4-2.3c0-1.2-.4-2.3-1.4-2.3zM8.5 1c.7 0 1.3.3 1.7.7l-.5.7c-.3-.4-.6-.6-1.2-.6c-1.1 0-1.7 1.1-1.7 2.2c0 .1 0 .1.1.2c.2-.4.9-.9 1.6-.9c1.1 0 2 .7 2 1.9c0 1.1-.8 2-2.2 2c-1.7 0-2.4-1.4-2.4-3.1c0-1.7.9-3.1 2.6-3.1zm-.2 3.1c-.6 0-1.1.3-1.4.8c0 .7.4 1.5 1.4 1.5c.9 0 1.3-.6 1.3-1.1c0-.8-.6-1.2-1.3-1.2z" stroke="none" fill="#88898a"/></g></svg>