<?xml version="1.0" standalone="no"?><!DOCTYPE svg PUBLIC "-//W3C//DTD SVG 1.1//EN" "http://www.w3.org/Graphics/SVG/1.1/DTD/svg11.dtd"><svg xmlns="http://www.w3.org/2000/svg" version="1.1" width="87.4px" height="249.9px" viewBox="0 -6 87.4 249.9" style="top:-6px"><desc>Term Base Term Base Term Base Term Base Term 1st Option 2nd Option 3rd Option</desc><defs/><g id="Polygon300092"><path d="m1.1 232.8c.6.8 1.6 1.5 3 1.5c1.6 0 2.7-.9 2.7-2.3c0-1.5-1.3-2.1-2.9-2.1h-1v-.9h1c1.4 0 2.7-.6 2.7-2c0-1.3-1.2-2-2.5-2c-1.2 0-2.1.4-2.9 1.3l-.5-.5c.7-1 1.9-1.7 3.4-1.7c1.9 0 3.4 1 3.4 2.8c0 1.7-1.3 2.4-2.2 2.5c.9.1 2.4.9 2.4 2.7c0 1.7-1.3 3-3.6 3c-1.7 0-3-.8-3.6-1.8l.6-.5zm8.7-5.6h.8v1.3c.6-.8 1.5-1.4 2.6-1.4v.9c-.2 0-.3-.1-.4-.1c-.8 0-1.9.7-2.2 1.4v5.6h-.8v-7.7zm10.5 6.5c-.5.8-1.5 1.4-2.7 1.4c-2 0-3.4-1.6-3.4-4c0-2.5 1.4-4.1 3.4-4.1c1.1 0 2.1.6 2.7 1.5v-4.2h.8v10.6h-.8v-1.2zm0-4.5c-.4-.8-1.4-1.4-2.5-1.4c-1.7 0-2.7 1.4-2.7 3.3c0 1.8 1 3.2 2.7 3.2c1.1 0 2.1-.6 2.5-1.3v-3.8zm12-5.1c3.1 0 5.1 2.4 5.1 5.5c0 3.1-2 5.5-5.1 5.5c-3.1 0-5.2-2.4-5.2-5.5c0-3.1 2.1-5.5 5.2-5.5zm0 .9c-2.6 0-4.2 1.9-4.2 4.6c0 2.7 1.6 4.7 4.2 4.7c2.5 0 4.2-2 4.2-4.7c0-2.7-1.7-4.6-4.2-4.6zm7.2 12.8v-10.6h.8v1.3c.5-.8 1.5-1.5 2.7-1.5c2 0 3.4 1.6 3.4 4.1c0 2.4-1.4 4-3.4 4c-1.1 0-2.1-.6-2.7-1.4v4.1h-.8zm3.3-10c-1 0-2 .6-2.5 1.4v3.7c.5.8 1.5 1.4 2.5 1.4c1.7 0 2.7-1.4 2.7-3.2c0-1.9-1-3.3-2.7-3.3zm5.7 5.6c.04.02 0-5.4 0-5.4h-1.2v-.8h1.2v-2.1h.9v2.1h1.5v.8h-1.5s-.02 5.3 0 5.3c0 .6.2 1 .8 1c.3 0 .7-.1.8-.3l.3.6c-.3.3-.6.5-1.3.5c-1 0-1.5-.6-1.5-1.7zm3.9-8.1c0-.4.3-.6.6-.6c.3 0 .6.2.6.6c0 .3-.3.6-.6.6c-.3 0-.6-.3-.6-.6zm.2 1.9h.8v7.7h-.8v-7.7zm2.8 3.9c0-2.3 1.4-4.1 3.7-4.1c2.2 0 3.7 1.8 3.7 4.1c0 2.2-1.5 4-3.7 4c-2.3 0-3.7-1.8-3.7-4zm6.5 0c0-1.7-1-3.3-2.8-3.3c-1.8 0-2.8 1.6-2.8 3.3c0 1.7 1 3.2 2.8 3.2c1.8 0 2.8-1.5 2.8-3.2zm8-1.4c0-1.5-.7-1.9-1.8-1.9c-1 0-2 .6-2.5 1.3c-.04 0 0 5.8 0 5.8h-.9v-7.7h.9s-.04 1.19 0 1.2c.5-.7 1.6-1.4 2.7-1.4c1.6 0 2.4.8 2.4 2.5c.04.03 0 5.4 0 5.4h-.8v-5.2z" stroke="none" fill="#242423"/></g><g id="Polygon300091"><path d="m.9 202.4c3.6-2.9 6-5 6-7c0-1.6-1.2-2.2-2.4-2.2c-1.3 0-2.3.6-2.9 1.4L1 194c.7-1 2-1.6 3.5-1.6c1.6 0 3.3.9 3.3 3c0 2.3-2.4 4.4-5.5 6.9h5.6v.8h-7v-.7zm14.6-4.4c0-1.5-.7-2-1.8-2c-1 0-2 .7-2.5 1.3v5.8h-.8v-7.6h.8v1.1c.6-.6 1.6-1.3 2.8-1.3c1.5 0 2.4.7 2.4 2.5c-.03-.03 0 5.3 0 5.3h-.9s.05-5.14 0-5.1zm8.9 3.9c-.5.8-1.5 1.4-2.6 1.4c-2.1 0-3.5-1.5-3.5-4c0-2.4 1.4-4 3.5-4c1.1 0 2 .5 2.6 1.4c.04 0 0-4.2 0-4.2h.9v10.6h-.9s.04-1.19 0-1.2zm0-4.5c-.4-.7-1.4-1.4-2.5-1.4c-1.7 0-2.7 1.4-2.7 3.3c0 1.9 1 3.3 2.7 3.3c1.1 0 2.1-.7 2.5-1.4v-3.8zm12-5c3.1 0 5.2 2.3 5.2 5.4c0 3.1-2.1 5.5-5.2 5.5c-3.1 0-5.1-2.4-5.1-5.5c0-3.1 2-5.4 5.1-5.4zm0 .8c-2.5 0-4.2 2-4.2 4.6c0 2.7 1.7 4.7 4.2 4.7c2.6 0 4.2-2 4.2-4.7c0-2.6-1.6-4.6-4.2-4.6zm7.2 12.9v-10.6h.9s-.05 1.19 0 1.2c.5-.8 1.5-1.4 2.6-1.4c2.1 0 3.5 1.5 3.5 4c0 2.4-1.4 4-3.5 4c-1.1 0-2-.5-2.6-1.4c-.05 0 0 4.2 0 4.2h-.9zM47 196c-1.1 0-2.1.7-2.5 1.4v3.8c.4.7 1.4 1.4 2.5 1.4c1.7 0 2.7-1.4 2.7-3.3c0-1.9-1-3.3-2.7-3.3zm5.7 5.7c-.02-.04 0-5.5 0-5.5h-1.3v-.7h1.3v-2.1h.8v2.1h1.6v.7h-1.6s.02 5.33 0 5.3c0 .7.3 1.1.8 1.1c.4 0 .7-.2.9-.4l.3.6c-.3.3-.7.5-1.3.5c-1 0-1.5-.6-1.5-1.6zm3.8-8.2c0-.3.3-.6.6-.6c.4 0 .7.3.7.6c0 .4-.3.7-.7.7c-.3 0-.6-.3-.6-.7zm.2 2h.9v7.6h-.9v-7.6zm2.8 3.8c0-2.2 1.5-4 3.7-4c2.3 0 3.7 1.8 3.7 4c0 2.2-1.4 4-3.7 4c-2.2 0-3.7-1.8-3.7-4zm6.5 0c0-1.7-1-3.3-2.8-3.3c-1.8 0-2.8 1.6-2.8 3.3c0 1.7 1 3.3 2.8 3.3c1.8 0 2.8-1.6 2.8-3.3zm8.1-1.3c0-1.5-.8-2-1.9-2c-1 0-2 .7-2.5 1.3v5.8h-.8v-7.6h.8s.01 1.12 0 1.1c.6-.6 1.7-1.3 2.8-1.3c1.5 0 2.4.7 2.4 2.5c-.02-.03 0 5.3 0 5.3h-.8s-.04-5.14 0-5.1z" stroke="none" fill="#242423"/></g><g id="Polygon300090"><path d="m2.7 162L1 163.8l-.6-.6l2.3-2.4h.9v10.6h-.9V162zm3.1 7.7c.5.7 1.4 1.2 2.5 1.2c1.3 0 2.1-.7 2.1-1.6c0-.9-1.1-1.2-2.2-1.5c-1.3-.3-2.7-.7-2.7-2.2c0-1.1 1-2.1 2.8-2.1c1.3 0 2.2.5 2.7 1.2l-.5.5c-.4-.6-1.2-1-2.2-1c-1.2 0-2 .6-2 1.4c0 .9 1 1.1 2.1 1.4c1.3.3 2.8.7 2.8 2.3c0 1.2-1 2.3-2.9 2.3c-1.2 0-2.2-.4-2.9-1.2l.4-.7zm7.5.2v-5.5H12v-.7h1.3v-2.1h.9v2.1h1.5v.7h-1.5s-.05 5.37 0 5.4c0 .6.2 1 .7 1c.4 0 .7-.2.9-.3l.3.6c-.3.3-.6.5-1.3.5c-1 0-1.5-.7-1.5-1.7zm12.8-9.3c3.1 0 5.1 2.4 5.1 5.5c0 3.1-2 5.5-5.1 5.5c-3.1 0-5.2-2.4-5.2-5.5c0-3.1 2.1-5.5 5.2-5.5zm0 .8c-2.6 0-4.2 2-4.2 4.7c0 2.7 1.6 4.6 4.2 4.6c2.5 0 4.2-1.9 4.2-4.6c0-2.7-1.7-4.7-4.2-4.7zm7.2 12.9v-10.6h.8v1.2c.6-.8 1.5-1.4 2.7-1.4c2 0 3.4 1.6 3.4 4c0 2.5-1.4 4.1-3.4 4.1c-1.1 0-2.1-.6-2.7-1.5v4.2h-.8zm3.3-10c-1 0-2 .6-2.5 1.3v3.8c.5.7 1.5 1.4 2.5 1.4c1.8 0 2.7-1.4 2.7-3.3c0-1.8-.9-3.2-2.7-3.2zm5.7 5.6c.04-.01 0-5.5 0-5.5h-1.2v-.7h1.2v-2.1h.9v2.1h1.5v.7h-1.5s-.02 5.37 0 5.4c0 .6.2 1 .8 1c.3 0 .7-.2.8-.3l.4.6c-.3.3-.7.5-1.4.5c-1 0-1.5-.7-1.5-1.7zm3.9-8.1c0-.4.3-.7.6-.7c.4 0 .6.3.6.7c0 .3-.2.6-.6.6c-.3 0-.6-.3-.6-.6zm.2 1.9h.8v7.7h-.8v-7.7zm2.8 3.8c0-2.2 1.4-4 3.7-4c2.2 0 3.7 1.8 3.7 4c0 2.3-1.5 4.1-3.7 4.1c-2.3 0-3.7-1.8-3.7-4.1zm6.5 0c0-1.7-1-3.2-2.8-3.2c-1.8 0-2.8 1.5-2.8 3.2c0 1.7 1 3.3 2.8 3.3c1.8 0 2.8-1.6 2.8-3.3zm8-1.3c0-1.5-.7-1.9-1.8-1.9c-1 0-2 .6-2.5 1.3c-.03-.03 0 5.8 0 5.8h-.9v-7.7h.9s-.03 1.16 0 1.2c.5-.7 1.6-1.4 2.7-1.4c1.6 0 2.4.8 2.4 2.5c.04 0 0 5.4 0 5.4h-.8s.02-5.21 0-5.2z" stroke="none" fill="#242423"/></g><g id="Polygon300089"><path d="m1.3 129s4.37.01 4.4 0c1.7 0 2.9 1 2.9 2.7c0 1.3-.9 2.3-1.9 2.4c1.2.2 2.1 1.4 2.1 2.6c0 1.8-1.1 2.9-3.1 2.9H1.3V129zm4.3 4.8c1.3 0 2-.9 2-2c0-1.1-.7-2-2-2c-.04.04-3.4 0-3.4 0v4s3.36-.04 3.4 0zm0 5c1.4 0 2.2-.8 2.2-2.1c0-1.1-.7-2.1-2.2-2.1c.02-.01-3.4 0-3.4 0v4.2s3.42-.02 3.4 0zm10.2-.1c-.7.7-1.6 1.1-2.6 1.1c-1.4 0-2.7-.9-2.7-2.6c0-1.6 1.3-2.5 2.7-2.5c1 0 1.9.3 2.6 1.1v-1.6c0-1.1-1-1.7-2.1-1.7c-1 0-1.7.3-2.4 1.1l-.5-.6c.8-.8 1.7-1.3 3-1.3c1.5 0 2.8.8 2.8 2.5c-.02.01 0 5.4 0 5.4h-.8s-.04-.9 0-.9zm0-2.3c-.6-.7-1.4-1.1-2.4-1.1c-1.2 0-2.1.9-2.1 2c0 1 .9 1.8 2.1 1.8c1 0 1.8-.3 2.4-1v-1.7zm3 1.6c.5.6 1.4 1.1 2.5 1.1c1.3 0 2-.6 2-1.5c0-1-1-1.3-2.1-1.6c-1.3-.3-2.7-.6-2.7-2.1c0-1.2 1-2.2 2.7-2.2c1.4 0 2.2.6 2.8 1.2l-.5.6c-.4-.6-1.2-1.1-2.3-1.1c-1.2 0-1.9.6-1.9 1.4c0 .9 1 1.1 2.1 1.4c1.3.3 2.8.7 2.8 2.3c0 1.3-1 2.3-2.9 2.3c-1.3 0-2.2-.4-3-1.2l.5-.6zm10.6-6.3c2.3 0 3.6 1.9 3.6 4.1v.2s-6.41.03-6.4 0c.1 1.7 1.2 3.1 3 3.1c1 0 1.8-.4 2.5-1.1l.4.6c-.7.8-1.7 1.2-3 1.2c-2.2 0-3.8-1.7-3.8-4c0-2.3 1.6-4.1 3.7-4.1zm-2.8 3.7h5.6c-.1-1.3-.9-2.9-2.8-2.9c-1.8 0-2.8 1.5-2.8 2.9zm15.1-5.6h-3.5v-.8h7.8v.8h-3.4v9.8h-.9v-9.8zm7.3 1.9c2.4 0 3.6 1.9 3.6 4.1c.05.01 0 .2 0 .2c0 0-6.37.03-6.4 0c.1 1.7 1.2 3.1 3 3.1c1 0 1.9-.4 2.5-1.1l.5.6c-.8.8-1.8 1.2-3 1.2c-2.3 0-3.9-1.7-3.9-4c0-2.3 1.6-4.1 3.7-4.1zm-2.8 3.7h5.6c0-1.3-.9-2.9-2.8-2.9c-1.8 0-2.7 1.5-2.8 2.9zm8.4-3.5h.8s.04 1.35 0 1.4c.7-.9 1.6-1.5 2.6-1.5v.9c-.1 0-.2-.1-.4-.1c-.8 0-1.8.7-2.2 1.4c.04.01 0 5.6 0 5.6h-.8v-7.7zm14 2.3c0-1-.4-1.7-1.5-1.7c-.8 0-1.8.6-2.2 1.3v5.8h-.8s-.05-5.36 0-5.4c0-1-.5-1.7-1.6-1.7c-.8 0-1.7.6-2.2 1.3c.02.01 0 5.8 0 5.8h-.8v-7.7h.8s.02 1.19 0 1.2c.3-.5 1.4-1.4 2.5-1.4c1.2 0 1.8.7 2 1.5c.4-.7 1.5-1.5 2.6-1.5c1.4 0 2.1.8 2.1 2.4c-.05-.02 0 5.5 0 5.5h-.9s.03-5.36 0-5.4z" stroke="none" fill="#242423"/></g><g id="Polygon300088"><path d="m1.3 97.2s4.37.05 4.4 0c1.7 0 2.9 1.1 2.9 2.7c0 1.4-.9 2.3-1.9 2.5c1.2.2 2.1 1.3 2.1 2.6c0 1.7-1.1 2.8-3.1 2.8c.05.04-4.4 0-4.4 0V97.2zm4.3 4.8c1.3 0 2-.9 2-2c0-1-.7-1.9-2-1.9c-.04-.03-3.4 0-3.4 0v3.9h3.4zm0 5c1.4 0 2.2-.8 2.2-2.1c0-1.1-.7-2.1-2.2-2.1c.02.02-3.4 0-3.4 0v4.2s3.42.02 3.4 0zm10.2-.1c-.7.8-1.6 1.1-2.6 1.1c-1.4 0-2.7-.9-2.7-2.5c0-1.7 1.3-2.5 2.7-2.5c1 0 1.9.3 2.6 1v-1.5c0-1.2-1-1.8-2.1-1.8c-1 0-1.7.3-2.4 1.1l-.5-.5c.8-.9 1.7-1.3 3-1.3c1.5 0 2.8.7 2.8 2.4c-.02.04 0 5.4 0 5.4h-.8s-.04-.86 0-.9zm0-2.3c-.6-.7-1.4-1-2.4-1c-1.2 0-2.1.8-2.1 1.9c0 1.1.9 1.9 2.1 1.9c1 0 1.8-.4 2.4-1.1v-1.7zm3 1.6c.5.6 1.4 1.1 2.5 1.1c1.3 0 2-.6 2-1.5c0-1-1-1.3-2.1-1.5c-1.3-.4-2.7-.7-2.7-2.2c0-1.2 1-2.1 2.7-2.1c1.4 0 2.2.5 2.8 1.1l-.5.6c-.4-.6-1.2-1-2.3-1c-1.2 0-1.9.6-1.9 1.4c0 .8 1 1.1 2.1 1.3c1.3.4 2.8.7 2.8 2.4c0 1.2-1 2.2-2.9 2.2c-1.3 0-2.2-.3-3-1.2l.5-.6zm10.6-6.2c2.3 0 3.6 1.8 3.6 4v.3s-6.41-.03-6.4 0c.1 1.6 1.2 3 3 3c1 0 1.8-.3 2.5-1l.4.5c-.7.8-1.7 1.2-3 1.2c-2.2 0-3.8-1.6-3.8-4c0-2.2 1.6-4 3.7-4zm-2.8 3.6h5.6c-.1-1.3-.9-2.9-2.8-2.9c-1.8 0-2.8 1.6-2.8 2.9zm15.1-5.5h-3.5v-.9h7.8v.9h-3.4v9.7h-.9v-9.7zM49 100c2.4 0 3.6 1.8 3.6 4c.05.04 0 .3 0 .3c0 0-6.37-.03-6.4 0c.1 1.6 1.2 3 3 3c1 0 1.9-.3 2.5-1l.5.5c-.8.8-1.8 1.2-3 1.2c-2.3 0-3.9-1.6-3.9-4c0-2.2 1.6-4 3.7-4zm-2.8 3.6h5.6c0-1.3-.9-2.9-2.8-2.9c-1.8 0-2.7 1.6-2.8 2.9zm8.4-3.4h.8s.04 1.29 0 1.3c.7-.9 1.6-1.5 2.6-1.5v.9h-.4c-.8 0-1.8.7-2.2 1.3c.04.05 0 5.6 0 5.6h-.8v-7.6zm14 2.3c0-1.1-.4-1.8-1.5-1.8c-.8 0-1.8.6-2.2 1.3v5.8h-.8s-.05-5.33 0-5.3c0-1.1-.5-1.8-1.6-1.8c-.8 0-1.7.6-2.2 1.3c.02.04 0 5.8 0 5.8h-.8v-7.6h.8s.02 1.13 0 1.1c.3-.5 1.4-1.3 2.5-1.3c1.2 0 1.8.7 2 1.4c.4-.7 1.5-1.4 2.6-1.4c1.4 0 2.1.8 2.1 2.3c-.05.01 0 5.5 0 5.5h-.9s.03-5.33 0-5.3z" stroke="none" fill="#242423"/></g><g id="Polygon300087"><path d="m1.3 65.5s4.37-.02 4.4 0c1.7 0 2.9 1 2.9 2.7c0 1.3-.9 2.2-1.9 2.4c1.2.2 2.1 1.4 2.1 2.6c0 1.8-1.1 2.9-3.1 2.9c.05-.02-4.4 0-4.4 0V65.5zm4.3 4.7c1.3 0 2-.8 2-1.9c0-1.1-.7-2-2-2c-.04.01-3.4 0-3.4 0v3.9s3.36.03 3.4 0zm0 5.1c1.4 0 2.2-.9 2.2-2.1c0-1.1-.7-2.1-2.2-2.1c.02-.04-3.4 0-3.4 0v4.2s3.42-.05 3.4 0zm10.2-.1c-.7.7-1.6 1.1-2.6 1.1c-1.4 0-2.7-.9-2.7-2.6c0-1.7 1.3-2.5 2.7-2.5c1 0 1.9.3 2.6 1.1v-1.6c0-1.1-1-1.8-2.1-1.8c-1 0-1.7.4-2.4 1.2l-.5-.6c.8-.9 1.7-1.3 3-1.3c1.5 0 2.8.8 2.8 2.5c-.02-.02 0 5.4 0 5.4h-.8s-.04-.93 0-.9zm0-2.3c-.6-.7-1.4-1.1-2.4-1.1c-1.2 0-2.1.8-2.1 1.9c0 1.1.9 1.9 2.1 1.9c1 0 1.8-.3 2.4-1v-1.7zm3 1.5c.5.7 1.4 1.2 2.5 1.2c1.3 0 2-.7 2-1.6c0-.9-1-1.2-2.1-1.5c-1.3-.3-2.7-.7-2.7-2.2c0-1.1 1-2.1 2.7-2.1c1.4 0 2.2.5 2.8 1.2l-.5.5c-.4-.6-1.2-1-2.3-1c-1.2 0-1.9.6-1.9 1.4c0 .9 1 1.1 2.1 1.4c1.3.3 2.8.7 2.8 2.3c0 1.3-1 2.3-2.9 2.3c-1.3 0-2.2-.4-3-1.2l.5-.7zm10.6-6.2c2.3 0 3.6 1.9 3.6 4.1v.2h-6.4c.1 1.7 1.2 3.1 3 3.1c1 0 1.8-.4 2.5-1.1l.4.5c-.7.8-1.7 1.3-3 1.3c-2.2 0-3.8-1.7-3.8-4.1c0-2.2 1.6-4 3.7-4zm-2.8 3.7h5.6c-.1-1.4-.9-3-2.8-3c-1.8 0-2.8 1.6-2.8 3zm15.1-5.6h-3.5v-.8h7.8v.8h-3.4v9.8h-.9v-9.8zm7.3 1.9c2.4 0 3.6 1.9 3.6 4.1c.05-.02 0 .2 0 .2h-6.4c.1 1.7 1.2 3.1 3 3.1c1 0 1.9-.4 2.5-1.1l.5.5c-.8.8-1.8 1.3-3 1.3c-2.3 0-3.9-1.7-3.9-4.1c0-2.2 1.6-4 3.7-4zm-2.8 3.7h5.6c0-1.4-.9-3-2.8-3c-1.8 0-2.7 1.6-2.8 3zm8.4-3.5h.8s.04 1.32 0 1.3c.7-.8 1.6-1.5 2.6-1.5v1c-.1-.1-.2-.1-.4-.1c-.8 0-1.8.7-2.2 1.4c.04-.02 0 5.6 0 5.6h-.8v-7.7zm14 2.3c0-1.1-.4-1.7-1.5-1.7c-.8 0-1.8.6-2.2 1.3v5.8h-.8s-.05-5.39 0-5.4c0-1.1-.5-1.7-1.6-1.7c-.8 0-1.7.6-2.2 1.3c.02-.02 0 5.8 0 5.8h-.8v-7.7h.8s.02 1.16 0 1.2c.3-.5 1.4-1.4 2.5-1.4c1.2 0 1.8.7 2 1.5c.4-.8 1.5-1.5 2.6-1.5c1.4 0 2.1.8 2.1 2.3c-.05.05 0 5.6 0 5.6h-.9s.03-5.39 0-5.4z" stroke="none" fill="#242423"/></g><g id="Polygon300086"><path d="m1.2 33.7s4.95.02 4.9 0c1.9 0 3 1.2 3 2.7c0 1.4-.8 2.2-1.8 2.4c1.1.2 2 1.4 2 2.7c0 1.6-1.1 2.8-3 2.8H1.2V33.7zm4.6 4.5c1.1 0 1.7-.7 1.7-1.5c0-.9-.6-1.6-1.7-1.6h-3v3.1h3zm.1 4.7c1.1 0 1.8-.6 1.8-1.7c0-.8-.6-1.6-1.8-1.6H2.8v3.3s3.12.02 3.1 0zm10 .6c-.7.6-1.5 1-2.6 1c-1.2 0-2.6-.9-2.6-2.5c0-1.8 1.4-2.5 2.6-2.5c1.1 0 2 .3 2.6 1v-1.3c0-1-.8-1.5-1.9-1.5c-.9 0-1.6.3-2.3 1l-.6-1c.8-.8 1.9-1.2 3.1-1.2c1.7 0 3.1.7 3.1 2.6c-.02.03 0 5.2 0 5.2h-1.4s-.05-.83 0-.8zm0-2.2c-.5-.5-1.2-.8-2-.8c-1.1 0-1.8.6-1.8 1.5c0 .9.7 1.5 1.8 1.5c.8 0 1.5-.3 2-.9v-1.3zm3.5 1c.5.5 1.6 1.1 2.6 1.1c1.1 0 1.6-.5 1.6-1.1c0-.8-.8-1.1-1.8-1.3c-1.3-.3-2.8-.6-2.8-2.3c0-1.2 1-2.2 2.9-2.2c1.3 0 2.3.4 2.9 1l-.6 1c-.5-.5-1.3-.9-2.3-.9c-1 0-1.6.4-1.6 1c0 .7.9.9 1.8 1.1c1.3.3 2.9.7 2.9 2.5c0 1.3-1 2.3-3.1 2.3c-1.3 0-2.4-.4-3.2-1.2l.7-1zM30 36.5c2.4 0 3.8 1.7 3.8 4.1c-.02-.01 0 .3 0 .3c0 0-6.09.04-6.1 0c.1 1.3 1.1 2.4 2.6 2.4c.8 0 1.7-.3 2.3-.9l.7 1c-.8.7-1.9 1.1-3.1 1.1c-2.3 0-4-1.6-4-4c0-2.3 1.6-4 3.8-4zm-2.3 3.4h4.7c0-1-.7-2.3-2.4-2.3c-1.5 0-2.2 1.3-2.3 2.3zM42 35.1h-3.3v-1.4h8.1v1.4h-3.2v9.2H42v-9.2zm7.9 1.4c2.3 0 3.7 1.7 3.7 4.1c.05-.01 0 .3 0 .3c0 0-6.02.04-6 0c.1 1.3 1 2.4 2.6 2.4c.8 0 1.7-.3 2.3-.9l.6 1c-.7.7-1.8 1.1-3.1 1.1c-2.2 0-3.9-1.6-3.9-4c0-2.3 1.6-4 3.8-4zm-2.3 3.4h4.7c-.1-1-.8-2.3-2.4-2.3c-1.5 0-2.3 1.3-2.3 2.3zm7.7-3.3h1.4v1.2c.6-.7 1.5-1.3 2.5-1.3v1.4h-.5c-.7 0-1.7.5-2 1.1v5.3h-1.4v-7.7zm14.5 2.6c0-.9-.4-1.5-1.3-1.5c-.8 0-1.6.6-1.9 1.1c-.02.02 0 5.5 0 5.5h-1.5s.05-5.1 0-5.1c0-.9-.3-1.5-1.3-1.5c-.7 0-1.5.6-1.9 1.1c.02.03 0 5.5 0 5.5h-1.4v-7.7h1.4s.02 1.12 0 1.1c.3-.5 1.4-1.2 2.5-1.2c1.2 0 1.8.6 2.1 1.4c.4-.7 1.4-1.4 2.6-1.4c1.4 0 2.1.7 2.1 2.3c.05-.03 0 5.5 0 5.5h-1.4s.02-5.1 0-5.1z" stroke="none" fill="#242423"/></g><g id="Polygon300085"><path d="m3.8 3.4H.5V2h8.1v1.4H5.4v9.1H3.8V3.4zm7.9 1.3c2.3 0 3.7 1.8 3.7 4.1c.04.03 0 .4 0 .4c0 0-6.03-.02-6 0c.1 1.3 1 2.4 2.6 2.4c.8 0 1.7-.4 2.2-.9l.7.9c-.7.7-1.8 1.1-3.1 1.1c-2.3 0-3.9-1.6-3.9-4c0-2.2 1.6-4 3.8-4zM9.4 8.1h4.6c0-1-.7-2.2-2.3-2.2c-1.5 0-2.3 1.2-2.3 2.2zm7.7-3.2h1.4v1.2c.6-.8 1.5-1.4 2.5-1.4v1.4h-.5c-.7 0-1.7.5-2 1.1v5.3h-1.4V4.9zm14.5 2.5c0-.9-.4-1.4-1.3-1.4c-.8 0-1.6.5-1.9 1.1c-.03-.05 0 5.4 0 5.4h-1.5s.04-5.07 0-5.1c0-.9-.3-1.4-1.3-1.4c-.8 0-1.5.5-1.9 1.1v5.4h-1.4V4.9h1.4s.01 1.05 0 1.1c.3-.5 1.3-1.3 2.5-1.3c1.1 0 1.8.6 2.1 1.4c.4-.7 1.4-1.4 2.6-1.4c1.4 0 2.1.8 2.1 2.3c.03 0 0 5.5 0 5.5h-1.4V7.4z" stroke="none" fill="#88898a"/></g></svg>