<?xml version="1.0" standalone="no"?><!DOCTYPE svg PUBLIC "-//W3C//DTD SVG 1.1//EN" "http://www.w3.org/Graphics/SVG/1.1/DTD/svg11.dtd"><svg xmlns="http://www.w3.org/2000/svg" xmlns:xlink="http://www.w3.org/1999/xlink" version="1.1" width="77px" height="25.9px" viewBox="0 -8 77 25.9" style="top:-8px"><desc/><defs/><g id="Polygon89605"><path d="m20.1 7.2c-.04.01 0 .8 0 .8h-.5s.05-.78 0-.8c-.9 0-1.5-.4-2-.9l.4-.4c.3.4.9.8 1.6.8V4.2c-.9-.2-1.8-.5-1.8-1.6c0-.9.8-1.5 1.8-1.6c.05.02 0-.8 0-.8h.5s-.04.83 0 .8c.7.1 1.3.4 1.7.9l-.3.3c-.4-.4-.9-.6-1.4-.7v2.3c.9.2 1.9.6 1.9 1.7c0 .7-.5 1.6-1.9 1.7zm-.5-3.5V1.5c-.7 0-1.2.5-1.2 1.1c0 .6.5.8 1.2 1.1zm1.8 1.9c0-.8-.6-1.1-1.3-1.3v2.4c1 0 1.3-.7 1.3-1.1z" stroke="none" fill="#000"/><a xlink:href="DBF_Med.%20HH%20Income%20(3%20Mile)" xlink:show="new" xlink:title="&lt;&lt;Med. HH Income (3 Mile)&gt;&gt;"><rect style="fill:transparent;" x="21" y="0" width="56" height="7"/></a></g><g id="Polygon89606"><path d="m22.4 3.9l4-2v.4l-3.5 1.8l3.5 1.8v.4l-4-2v-.4zm4.5 0l4-2v.4l-3.5 1.8l3.5 1.8v.4l-4-2v-.4zM37 1.8l-2.2 5.3h-.2l-2.2-5.3v5.3h-.5v-6h.7l2.1 5l2-5h.8v6h-.5V1.8zm3.8.9c1.3 0 2 1 2 2.3c.04-.04 0 .1 0 .1c0 0-3.6-.02-3.6 0c0 .9.7 1.7 1.7 1.7c.6 0 1.1-.2 1.4-.6l.3.3c-.5.5-1 .7-1.7.7c-1.3 0-2.2-.9-2.2-2.3c0-1.2.9-2.2 2.1-2.2zm-1.6 2h3.2c0-.7-.5-1.6-1.6-1.6c-1 0-1.6.9-1.6 1.6zm8.1 1.7c-.4.5-.9.8-1.6.8c-1.1 0-1.9-.9-1.9-2.3c0-1.3.8-2.2 1.9-2.2c.7 0 1.2.3 1.6.8c-.05-.04 0-2.4 0-2.4h.4v6h-.4s-.05-.68 0-.7zm0-2.5c-.3-.5-.9-.8-1.5-.8c-.9 0-1.5.8-1.5 1.8c0 1.1.6 1.9 1.5 1.9c.6 0 1.2-.4 1.5-.8V3.9zm2.1 2.5c.3 0 .4.2.4.4c0 .2-.1.4-.4.4c-.2 0-.4-.2-.4-.4c0-.2.2-.4.4-.4zm8.4-2.1H54v2.8h-.5v-6h.5v2.7h3.8V1.1h.5v6h-.5V4.3zm6.4 0h-3.9v2.8h-.5v-6h.5v2.7h3.9V1.1h.5v6h-.5V4.3zm4.3-3.2h.5v6h-.5v-6zm4.9 3.1c0-.9-.4-1.1-1-1.1c-.6 0-1.2.3-1.5.7c.05.02 0 3.3 0 3.3h-.4V2.8h.4s.05.62 0 .6c.4-.4 1-.7 1.6-.7c.9 0 1.4.4 1.4 1.4c-.02-.03 0 3 0 3h-.5V4.2zm1.5.5h2.1v.4h-2.1v-.4z" stroke="none" fill="#000"/></g></svg>