<?xml version="1.0" standalone="no"?>
<!DOCTYPE svg PUBLIC "-//W3C//DTD SVG 1.1//EN" "http://www.w3.org/Graphics/SVG/1.1/DTD/svg11.dtd">
<svg xmlns="http://www.w3.org/2000/svg" version="1.1" width="109.3px" height="27.9px" viewBox="0 -6 109.3 27.9" style="top:-6px">
  <desc>State</desc>
  <defs/>
  <g id="Polygon271580">
    <path d="M 1.4 9.8 C 2.1 10.6 3.3 11.3 4.8 11.3 C 6.5 11.3 7.1 10.5 7.1 9.7 C 7.1 8.6 5.9 8.3 4.5 7.9 C 2.8 7.5 0.9 7 0.9 4.8 C 0.9 3.1 2.4 1.8 4.6 1.8 C 6.2 1.8 7.5 2.3 8.5 3.3 C 8.5 3.3 7.5 4.4 7.5 4.4 C 6.7 3.6 5.6 3.2 4.5 3.2 C 3.3 3.2 2.5 3.8 2.5 4.7 C 2.5 5.7 3.6 6 5 6.3 C 6.7 6.7 8.7 7.3 8.7 9.5 C 8.7 11.2 7.6 12.7 4.7 12.7 C 2.8 12.7 1.4 12.1 0.5 11.1 C 0.5 11.1 1.4 9.8 1.4 9.8 Z M 10.5 10.8 C 10.55 10.85 10.5 6.1 10.5 6.1 L 9.3 6.1 L 9.3 4.9 L 10.5 4.9 L 10.5 2.8 L 12 2.8 L 12 4.9 L 13.5 4.9 L 13.5 6.1 L 12 6.1 C 12 6.1 11.97 10.53 12 10.5 C 12 11.1 12.2 11.5 12.7 11.5 C 13.1 11.5 13.4 11.3 13.5 11.2 C 13.5 11.2 13.9 12.2 13.9 12.2 C 13.6 12.5 13.1 12.7 12.4 12.7 C 11.2 12.7 10.5 12.1 10.5 10.8 Z M 19.9 11.7 C 19.3 12.4 18.4 12.7 17.3 12.7 C 16.1 12.7 14.7 11.9 14.7 10.2 C 14.7 8.4 16.1 7.7 17.3 7.7 C 18.4 7.7 19.3 8 19.9 8.7 C 19.9 8.7 19.9 7.4 19.9 7.4 C 19.9 6.5 19.1 5.9 18 5.9 C 17.1 5.9 16.4 6.2 15.7 6.9 C 15.7 6.9 15.1 5.9 15.1 5.9 C 15.9 5.1 17 4.7 18.2 4.7 C 19.9 4.7 21.3 5.4 21.3 7.4 C 21.28 7.37 21.3 12.5 21.3 12.5 L 19.9 12.5 C 19.9 12.5 19.85 11.71 19.9 11.7 Z M 19.9 9.6 C 19.4 9 18.7 8.7 17.9 8.7 C 16.9 8.7 16.1 9.3 16.1 10.2 C 16.1 11.1 16.9 11.7 17.9 11.7 C 18.7 11.7 19.4 11.4 19.9 10.9 C 19.9 10.9 19.9 9.6 19.9 9.6 Z M 23.9 10.8 C 23.86 10.85 23.9 6.1 23.9 6.1 L 22.6 6.1 L 22.6 4.9 L 23.9 4.9 L 23.9 2.8 L 25.3 2.8 L 25.3 4.9 L 26.8 4.9 L 26.8 6.1 L 25.3 6.1 C 25.3 6.1 25.28 10.53 25.3 10.5 C 25.3 11.1 25.5 11.5 26 11.5 C 26.4 11.5 26.7 11.3 26.8 11.2 C 26.8 11.2 27.2 12.2 27.2 12.2 C 26.9 12.5 26.4 12.7 25.7 12.7 C 24.5 12.7 23.9 12.1 23.9 10.8 Z M 31.8 4.7 C 34.1 4.7 35.5 6.5 35.5 8.8 C 35.53 8.83 35.5 9.2 35.5 9.2 C 35.5 9.2 29.46 9.18 29.5 9.2 C 29.6 10.5 30.5 11.6 32.1 11.6 C 32.9 11.6 33.8 11.2 34.3 10.7 C 34.3 10.7 35 11.6 35 11.6 C 34.2 12.3 33.2 12.7 31.9 12.7 C 29.6 12.7 28 11.1 28 8.7 C 28 6.5 29.6 4.7 31.8 4.7 Z M 29.4 8.1 C 29.4 8.1 34.1 8.1 34.1 8.1 C 34.1 7.1 33.4 5.9 31.8 5.9 C 30.3 5.9 29.5 7.1 29.4 8.1 Z " stroke="none" fill="#000"/>
  </g>
</svg>