<?xml version="1.0" standalone="no"?><!DOCTYPE svg PUBLIC "-//W3C//DTD SVG 1.1//EN" "http://www.w3.org/Graphics/SVG/1.1/DTD/svg11.dtd"><svg xmlns="http://www.w3.org/2000/svg" version="1.1" width="220.1px" height="81.2px" viewBox="0 -9 220.1 81.2" style="top:-9px"><desc>RETAIL AERIALs</desc><defs/><g id="Polygon55716"><path d="m50.1 55.9L47.6 48H46v7.9h-3.3V36.1s5.1.05 5.1 0c3 0 5 1.2 5 4.2v3.6c0 1.8-.8 3-2.2 3.6l2.8 8.4h-3.3zM46 45.2s1.69.01 1.7 0c1.1 0 1.8-.4 1.8-1.8v-2.6c0-1.4-.7-1.8-1.8-1.8c-.01.03-1.7 0-1.7 0v6.2zm9.1 10.7V36.1h8.7v2.9h-5.4v5.4h4.5v2.9h-4.5v5.7h5.5v2.9h-8.8zM74.7 39h-3.3v16.9h-3.3V39h-3.3v-2.9h9.9v2.9zm6.5 12.5h-3.7l-.7 4.4h-3.1l3.6-19.8h4.2l3.7 19.8h-3.3l-.7-4.4zm-.5-2.7L79.3 40l-1.3 8.8h2.7zm6 7.1V36.1h3.2v19.8h-3.2zm14.2 0h-8.3V36.1h3.3V53h5v2.9zm11.5-4.4h-3.7l-.7 4.4h-3.1l3.6-19.8h4.2l3.7 19.8h-3.3l-.7-4.4zm-.5-2.7l-1.4-8.8l-1.3 8.8h2.7zm5.8 7.1V36.1h8.7v2.9H121v5.4h4.5v2.9H121v5.7h5.5v2.9h-8.8zm18.3 0l-2.5-7.9h-1.7v7.9h-3.3V36.1s5.15.05 5.1 0c3 0 5 1.2 5 4.2v3.6c0 1.8-.8 3-2.1 3.6c-.03.03 2.8 8.4 2.8 8.4H136zm-4.2-10.7s1.74.01 1.7 0c1.1 0 1.8-.4 1.8-1.8v-2.6c0-1.4-.7-1.8-1.8-1.8c.04.03-1.7 0-1.7 0v6.2zm9.3 10.7V36.1h3.3v19.8h-3.3zm12.2-4.4h-3.6l-.7 4.4h-3.2l3.7-19.8h4.1l3.8 19.8H154l-.7-4.4zm-.4-2.7l-1.4-8.8l-1.4 8.8h2.8zm14.2 7.1h-8.4V36.1h3.3V53h5.1v2.9zm7.5-12.7s-.03-2.76 0-2.8c0-1.2-.7-1.7-1.7-1.7c-1 0-1.7.5-1.7 1.7v1.4c0 1 .4 1.5 1.3 2l2.3 1.3c1.9 1.1 3 1.9 3 4.1v2.8c0 3.1-1.8 4.1-4.8 4.1h-.1c-3 0-4.9-1-4.9-4.1c.02.02 0-3.4 0-3.4h3.2s.04 2.97 0 3c0 1.2.7 1.7 1.7 1.7c1 0 1.7-.5 1.7-1.7V50c0-1-.3-1.5-1.3-2l-2.3-1.3c-1.9-1.1-3-2.1-3-4.1V40c0-2.9 2.2-4.1 4.9-4.1c2.7 0 4.9 1.2 4.9 4.1v3.2h-3.2z" stroke="none" fill="#282828"/></g></svg>