<?xml version="1.0" standalone="no"?><!DOCTYPE svg PUBLIC "-//W3C//DTD SVG 1.1//EN" "http://www.w3.org/Graphics/SVG/1.1/DTD/svg11.dtd"><svg xmlns="http://www.w3.org/2000/svg" version="1.1" width="277px" height="46.5px" viewBox="0 -10 277 46.5" style="top:-10px"><desc>OPPORTUNITY TITLE</desc><defs/><g id="Polygon270923"><path d="m57 2h.2c3 0 5 1.2 5 4.2v11.9c0 3-2 4.1-5 4.1h-.2c-3 0-5-1.1-5-4.1V6.2c0-3 2-4.2 5-4.2zm.1 17.4c1.1 0 1.8-.4 1.8-1.8V6.7c0-1.4-.7-1.8-1.8-1.8c-1.1 0-1.8.4-1.8 1.8v10.9c0 1.4.7 1.8 1.8 1.8zm17.6-13v3.8c0 3-2 4.2-5 4.2c.02-.03-1.8 0-1.8 0v7.6h-3.3V2.3s5.12-.04 5.1 0c3 0 5 1.1 5 4.1zm-3.3.5c0-1.4-.7-1.8-1.8-1.8c.01.04-1.7 0-1.7 0v6.4s1.71-.01 1.7 0c1.1 0 1.8-.4 1.8-1.8V6.9zm15.2-.5v3.8c0 3-2 4.2-5 4.2c.01-.03-1.8 0-1.8 0v7.6h-3.3V2.3s5.11-.04 5.1 0c3 0 5 1.1 5 4.1zm-3.3.5c0-1.4-.7-1.8-1.8-1.8c0 .04-1.7 0-1.7 0v6.4s1.7-.01 1.7 0c1.1 0 1.8-.4 1.8-1.8V6.9zM93.2 2h.3c3 0 4.9 1.2 4.9 4.2v11.9c0 3-1.9 4.1-4.9 4.1h-.3c-3 0-4.9-1.1-4.9-4.1V6.2c0-3 1.9-4.2 4.9-4.2zm.2 17.4c1 0 1.8-.4 1.8-1.8V6.7c0-1.4-.8-1.8-1.8-1.8c-1.1 0-1.9.4-1.9 1.8v10.9c0 1.4.8 1.8 1.9 1.8zm14.9 2.6l-2.5-7.9h-1.7v7.9h-3.2V2.3s5.08-.04 5.1 0c3 0 4.9 1.1 4.9 4.1v3.6c0 1.9-.7 3-2.1 3.6c0 .04 2.8 8.4 2.8 8.4h-3.3zm-4.2-10.7s1.76.02 1.8 0c1 0 1.8-.4 1.8-1.8V6.9c0-1.4-.8-1.8-1.8-1.8c-.04.04-1.8 0-1.8 0v6.2zm17.8-6.2h-3.3V22h-3.3V5.1H112V2.3h9.9v2.8zm11.3 13c0 3-1.9 4.1-4.9 4.1h-.1c-3 0-4.9-1.1-4.9-4.1c-.04-.03 0-15.8 0-15.8h3.2s.03 15.26 0 15.3c0 1.4.7 1.8 1.7 1.8c1.1 0 1.7-.4 1.7-1.8c.02-.04 0-15.3 0-15.3h3.3v15.8zm2.5 3.9V2.3h3.3l4.1 12.2V2.3h3V22H143l-4.3-12.8V22h-3zm13.1 0V2.3h3.2V22h-3.2zm14.6-16.9h-3.3V22h-3.2V5.1h-3.3V2.3h9.8v2.8zm7.5 16.9h-3.3v-7l-3.9-12.7h3.4l2.2 9.1l2.2-9.1h3.4l-4 12.7v7zM189 5.1h-3.3V22h-3.3V5.1h-3.3V2.3h9.9v2.8zm1.5 16.9V2.3h3.3V22h-3.3zm14.7-16.9h-3.3V22h-3.3V5.1h-3.3V2.3h9.9v2.8zm9.7 16.9h-8.3V2.3h3.3v16.8h5v2.9zm1.5 0V2.3h8.6v2.8h-5.4v5.5h4.6v2.8h-4.6v5.7h5.5v2.9h-8.7z" stroke="none" fill="#282828"/></g></svg>