<?xml version="1.0" standalone="no"?>
<!DOCTYPE svg PUBLIC "-//W3C//DTD SVG 1.1//EN" "http://www.w3.org/Graphics/SVG/1.1/DTD/svg11.dtd">
<svg xmlns="http://www.w3.org/2000/svg" version="1.1" width="89.3px" height="16.9px" viewBox="0 -4 89.3 16.9" style="top:-4px">
  <desc>Roof &amp; Structure</desc>
  <defs/>
  <g id="Polygon274181">
    <path d="M 2.7 4.8 L 1.6 4.8 L 1.6 7.1 L 0.7 7.1 L 0.7 1.1 C 0.7 1.1 3.2 1.11 3.2 1.1 C 4.3 1.1 5.1 1.8 5.1 3 C 5.1 4 4.4 4.6 3.6 4.7 C 3.63 4.71 5.2 7.1 5.2 7.1 L 4.1 7.1 L 2.7 4.8 Z M 3.1 1.9 C 3.08 1.9 1.6 1.9 1.6 1.9 L 1.6 4 C 1.6 4 3.08 4.01 3.1 4 C 3.7 4 4.2 3.6 4.2 3 C 4.2 2.3 3.7 1.9 3.1 1.9 Z M 5.7 4.9 C 5.7 3.7 6.5 2.7 7.9 2.7 C 9.2 2.7 10.1 3.7 10.1 4.9 C 10.1 6.2 9.2 7.2 7.9 7.2 C 6.5 7.2 5.7 6.2 5.7 4.9 Z M 9.2 4.9 C 9.2 4.1 8.7 3.4 7.9 3.4 C 7 3.4 6.5 4.1 6.5 4.9 C 6.5 5.8 7 6.5 7.9 6.5 C 8.7 6.5 9.2 5.8 9.2 4.9 Z M 10.8 4.9 C 10.8 3.7 11.7 2.7 13 2.7 C 14.4 2.7 15.2 3.7 15.2 4.9 C 15.2 6.2 14.4 7.2 13 7.2 C 11.7 7.2 10.8 6.2 10.8 4.9 Z M 14.4 4.9 C 14.4 4.1 13.9 3.4 13 3.4 C 12.1 3.4 11.7 4.1 11.7 4.9 C 11.7 5.8 12.1 6.5 13 6.5 C 13.9 6.5 14.4 5.8 14.4 4.9 Z M 16.4 3.5 L 15.7 3.5 L 15.7 2.8 L 16.4 2.8 C 16.4 2.8 16.43 2.48 16.4 2.5 C 16.4 1.5 17 1 17.8 1 C 18 1 18.3 1.1 18.5 1.2 C 18.5 1.2 18.3 1.8 18.3 1.8 C 18.2 1.7 18 1.7 17.9 1.7 C 17.5 1.7 17.2 2 17.2 2.5 C 17.24 2.48 17.2 2.8 17.2 2.8 L 18.1 2.8 L 18.1 3.5 L 17.2 3.5 L 17.2 7.1 L 16.4 7.1 L 16.4 3.5 Z M 26.1 7.1 C 26.1 7.1 25.1 7.1 25.1 7.1 C 24.9 7 24.7 6.8 24.5 6.5 C 24 6.9 23.5 7.2 22.8 7.2 C 21.7 7.2 20.9 6.7 20.9 5.5 C 20.9 4.6 21.5 4.1 22.2 3.8 C 21.9 3.3 21.7 2.8 21.7 2.4 C 21.7 1.6 22.4 1 23.3 1 C 24.1 1 24.7 1.5 24.7 2.2 C 24.7 3.1 24 3.5 23.2 3.9 C 23.4 4.2 23.7 4.5 23.9 4.7 C 24.1 5 24.3 5.2 24.5 5.4 C 24.8 5 25 4.5 25.1 4.1 C 25.1 4.1 25.8 4.4 25.8 4.4 C 25.6 4.9 25.3 5.5 25 5.9 C 25.3 6.3 25.7 6.7 26.1 7.1 Z M 22.9 3.4 C 23.5 3.1 24 2.8 24 2.3 C 24 1.9 23.7 1.6 23.3 1.6 C 22.9 1.6 22.6 2 22.6 2.4 C 22.6 2.7 22.7 3.1 22.9 3.4 Z M 24 6 C 23.7 5.7 23.4 5.4 23.2 5.2 C 23 4.9 22.7 4.6 22.5 4.3 C 22.1 4.6 21.7 4.9 21.7 5.5 C 21.7 6.2 22.3 6.6 22.9 6.6 C 23.3 6.6 23.7 6.4 24 6 Z M 29.5 5.6 C 29.9 6 30.5 6.4 31.4 6.4 C 32.3 6.4 32.7 5.9 32.7 5.5 C 32.7 4.9 32 4.7 31.2 4.5 C 30.3 4.2 29.2 4 29.2 2.7 C 29.2 1.7 30 1 31.3 1 C 32.2 1 32.9 1.3 33.5 1.9 C 33.5 1.9 32.9 2.5 32.9 2.5 C 32.5 2 31.9 1.8 31.2 1.8 C 30.5 1.8 30.1 2.2 30.1 2.7 C 30.1 3.2 30.7 3.4 31.5 3.6 C 32.5 3.8 33.6 4.1 33.6 5.4 C 33.6 6.3 33 7.2 31.3 7.2 C 30.3 7.2 29.5 6.8 29 6.3 C 29 6.3 29.5 5.6 29.5 5.6 Z M 34.7 6.1 C 34.65 6.15 34.7 3.5 34.7 3.5 L 33.9 3.5 L 33.9 2.8 L 34.7 2.8 L 34.7 1.6 L 35.5 1.6 L 35.5 2.8 L 36.3 2.8 L 36.3 3.5 L 35.5 3.5 C 35.5 3.5 35.46 5.97 35.5 6 C 35.5 6.3 35.6 6.5 35.9 6.5 C 36.1 6.5 36.2 6.4 36.3 6.3 C 36.3 6.3 36.5 6.9 36.5 6.9 C 36.4 7.1 36.1 7.2 35.7 7.2 C 35 7.2 34.7 6.8 34.7 6.1 Z M 37.2 2.8 L 38.1 2.8 C 38.1 2.8 38.05 3.43 38.1 3.4 C 38.4 3 38.9 2.7 39.5 2.7 C 39.5 2.7 39.5 3.5 39.5 3.5 C 39.4 3.5 39.3 3.5 39.2 3.5 C 38.8 3.5 38.2 3.8 38.1 4.1 C 38.05 4.09 38.1 7.1 38.1 7.1 L 37.2 7.1 L 37.2 2.8 Z M 43.2 6.5 C 42.9 6.9 42.3 7.2 41.7 7.2 C 40.7 7.2 40.3 6.8 40.3 5.8 C 40.28 5.83 40.3 2.8 40.3 2.8 L 41.1 2.8 C 41.1 2.8 41.09 5.56 41.1 5.6 C 41.1 6.3 41.5 6.5 42 6.5 C 42.5 6.5 43 6.2 43.2 5.9 C 43.22 5.89 43.2 2.8 43.2 2.8 L 44 2.8 L 44 7.1 L 43.2 7.1 C 43.2 7.1 43.22 6.52 43.2 6.5 Z M 47.3 2.7 C 48.1 2.7 48.6 3 48.9 3.4 C 48.9 3.4 48.3 3.9 48.3 3.9 C 48.1 3.5 47.7 3.4 47.3 3.4 C 46.4 3.4 45.9 4 45.9 4.9 C 45.9 5.8 46.4 6.5 47.3 6.5 C 47.7 6.5 48.1 6.3 48.3 6 C 48.3 6 48.9 6.5 48.9 6.5 C 48.6 6.9 48.1 7.2 47.3 7.2 C 45.9 7.2 45 6.2 45 4.9 C 45 3.6 45.9 2.7 47.3 2.7 Z M 49.9 6.1 C 49.94 6.15 49.9 3.5 49.9 3.5 L 49.2 3.5 L 49.2 2.8 L 49.9 2.8 L 49.9 1.6 L 50.7 1.6 L 50.7 2.8 L 51.6 2.8 L 51.6 3.5 L 50.7 3.5 C 50.7 3.5 50.75 5.97 50.7 6 C 50.7 6.3 50.9 6.5 51.2 6.5 C 51.4 6.5 51.5 6.4 51.6 6.3 C 51.6 6.3 51.8 6.9 51.8 6.9 C 51.6 7.1 51.4 7.2 51 7.2 C 50.3 7.2 49.9 6.8 49.9 6.1 Z M 55.5 6.5 C 55.1 6.9 54.6 7.2 53.9 7.2 C 53 7.2 52.5 6.8 52.5 5.8 C 52.53 5.83 52.5 2.8 52.5 2.8 L 53.3 2.8 C 53.3 2.8 53.34 5.56 53.3 5.6 C 53.3 6.3 53.7 6.5 54.3 6.5 C 54.8 6.5 55.2 6.2 55.5 5.9 C 55.47 5.89 55.5 2.8 55.5 2.8 L 56.3 2.8 L 56.3 7.1 L 55.5 7.1 C 55.5 7.1 55.47 6.52 55.5 6.5 Z M 57.6 2.8 L 58.4 2.8 C 58.4 2.8 58.37 3.43 58.4 3.4 C 58.7 3 59.2 2.7 59.8 2.7 C 59.8 2.7 59.8 3.5 59.8 3.5 C 59.7 3.5 59.6 3.5 59.5 3.5 C 59.1 3.5 58.6 3.8 58.4 4.1 C 58.37 4.09 58.4 7.1 58.4 7.1 L 57.6 7.1 L 57.6 2.8 Z M 62.5 2.7 C 63.8 2.7 64.6 3.7 64.6 5 C 64.63 5 64.6 5.2 64.6 5.2 C 64.6 5.2 61.19 5.2 61.2 5.2 C 61.3 5.9 61.8 6.6 62.7 6.6 C 63.1 6.6 63.6 6.4 64 6 C 64 6 64.3 6.6 64.3 6.6 C 63.9 7 63.3 7.2 62.6 7.2 C 61.3 7.2 60.3 6.3 60.3 4.9 C 60.3 3.7 61.2 2.7 62.5 2.7 Z M 61.2 4.6 C 61.2 4.6 63.8 4.6 63.8 4.6 C 63.8 4 63.4 3.3 62.5 3.3 C 61.6 3.3 61.2 4 61.2 4.6 Z " stroke="none" fill="#000"/>
  </g>
</svg>