<?xml version="1.0" standalone="no"?><!DOCTYPE svg PUBLIC "-//W3C//DTD SVG 1.1//EN" "http://www.w3.org/Graphics/SVG/1.1/DTD/svg11.dtd"><svg xmlns="http://www.w3.org/2000/svg" version="1.1" width="77px" height="15.9px" viewBox="0 -4 77 15.9" style="top:-4px"><desc>23 47%</desc><defs/><g id="Polygon109088"><path d="m49.6 6.7c2-1.7 3.4-2.8 3.4-4c0-.9-.7-1.2-1.4-1.2c-.7 0-1.3.3-1.6.8l-.4-.4c.4-.5 1.2-.9 2-.9c.9 0 1.9.5 1.9 1.7c0 1.3-1.4 2.5-3.1 3.9c-.03.04 3.1 0 3.1 0v.5h-3.9s-.03-.41 0-.4zm5.3-.8c.4.5 1 .9 1.7.9c1 0 1.5-.5 1.5-1.3c0-.9-.7-1.2-1.6-1.2h-.5v-.5h.5c.8 0 1.6-.4 1.6-1.2c0-.7-.7-1.1-1.5-1.1c-.7 0-1.2.3-1.6.7l-.3-.3c.4-.5 1.1-.9 1.9-.9c1.1 0 2 .6 2 1.6c0 .9-.8 1.3-1.3 1.4c.5.1 1.4.5 1.4 1.5c0 1-.8 1.7-2.1 1.7c-.9 0-1.7-.4-2-1l.3-.3zm5.3.5c.2 0 .4.2.4.4c0 .2-.2.4-.4.4c-.2 0-.4-.2-.4-.4c0-.2.2-.4.4-.4zm4.1-.9h-2.8v-.5l2.7-3.9h.6v3.9h.9v.5h-.9v1.6h-.5V5.5zM62 5h2.3V1.6L62 5zm7.7-3.4h-3.4v-.5h4v.4l-2.6 5.6h-.6l2.6-5.5zm2.6-.6c.8 0 1.4.7 1.4 1.5c0 .8-.6 1.5-1.4 1.5c-.9 0-1.4-.7-1.4-1.5c0-.8.5-1.5 1.4-1.5zm3.2.1h.5l-3.9 6h-.4l3.8-6zm-3.2.3c-.6 0-1 .5-1 1.1c0 .6.4 1.1 1 1.1c.6 0 1-.5 1-1.1c0-.6-.4-1.1-1-1.1zm3 2.9c.9 0 1.4.6 1.4 1.5c0 .8-.5 1.4-1.4 1.4c-.8 0-1.4-.6-1.4-1.4c0-.9.6-1.5 1.4-1.5zm0 .3c-.6 0-1 .5-1 1.2c0 .6.4 1.1 1 1.1c.6 0 1-.5 1-1.1c0-.7-.4-1.2-1-1.2z" stroke="none" fill="#000"/></g></svg>