<?xml version="1.0" standalone="no"?><!DOCTYPE svg PUBLIC "-//W3C//DTD SVG 1.1//EN" "http://www.w3.org/Graphics/SVG/1.1/DTD/svg11.dtd"><svg xmlns="http://www.w3.org/2000/svg" version="1.1" width="134.3px" height="15.9px" viewBox="0 -4 134.3 15.9" style="top:-4px"><desc>3,500 SF</desc><defs/><g id="Polygon88428"><path d="m99.4 5.9c.4.5 1 .9 1.7.9c.9 0 1.5-.5 1.5-1.3c0-.9-.7-1.2-1.6-1.2h-.5v-.5h.5c.8 0 1.5-.4 1.5-1.2c0-.7-.6-1.1-1.4-1.1c-.7 0-1.2.3-1.6.7l-.3-.3c.4-.5 1-.9 1.9-.9c1.1 0 2 .6 2 1.6c0 .9-.8 1.3-1.3 1.4c.5.1 1.3.5 1.3 1.5c0 1-.7 1.7-2 1.7c-1 0-1.7-.4-2-1l.3-.3zm4.8 2.1c.3-.2.5-.6.5-.8h-.1c-.2 0-.3-.2-.3-.4c0-.2.1-.4.4-.4c.2 0 .4.2.4.6c0 .5-.3 1-.6 1.2l-.3-.2zm2.5-2.1c.4.5.9.9 1.7.9c.8 0 1.5-.7 1.5-1.5c0-.9-.7-1.5-1.5-1.5c-.6 0-1.1.2-1.5.6c0 .02-.4-.1-.4-.1V1.1h3.5v.5h-3s.03 2.32 0 2.3c.3-.3.8-.5 1.5-.5c1 0 1.9.6 1.9 1.9c0 1.2-.9 1.9-2 1.9c-1 0-1.7-.4-2.1-1l.4-.3zm6.9-4.9c1.6 0 2.3 1.7 2.3 3.1c0 1.4-.7 3.1-2.3 3.1c-1.6 0-2.2-1.7-2.2-3.1c0-1.4.6-3.1 2.2-3.1zm0 .5c-1.2 0-1.6 1.4-1.6 2.6c0 1.2.4 2.7 1.6 2.7c1.3 0 1.7-1.5 1.7-2.7c0-1.2-.4-2.6-1.7-2.6zm5.5-.5c1.6 0 2.2 1.7 2.2 3.1c0 1.4-.6 3.1-2.2 3.1c-1.6 0-2.2-1.7-2.2-3.1c0-1.4.6-3.1 2.2-3.1zm0 .5c-1.3 0-1.7 1.4-1.7 2.6c0 1.2.4 2.7 1.7 2.7c1.3 0 1.7-1.5 1.7-2.7c0-1.2-.4-2.6-1.7-2.6zm5.8 4.4c.4.4 1 .9 1.9.9c1.2 0 1.6-.7 1.6-1.2c0-.9-.8-1.1-1.7-1.4c-.9-.2-1.9-.5-1.9-1.6c0-1 .9-1.6 1.9-1.6c.9 0 1.6.3 2.1.9l-.4.3c-.4-.5-1-.7-1.7-.7c-.8 0-1.4.4-1.4 1.1c0 .7.8.9 1.6 1.1c.9.3 2 .6 2 1.8c0 .8-.5 1.7-2.1 1.7c-1 0-1.8-.4-2.2-.9l.3-.4zm5.2-4.8h3.9v.5h-3.3v2.2h3.2v.5h-3.2v2.8h-.6v-6z" stroke="none" fill="#000"/></g></svg>