<?xml version="1.0" standalone="no"?><!DOCTYPE svg PUBLIC "-//W3C//DTD SVG 1.1//EN" "http://www.w3.org/Graphics/SVG/1.1/DTD/svg11.dtd"><svg xmlns="http://www.w3.org/2000/svg" version="1.1" width="307.3px" height="47.3px" viewBox="0 -6 307.3 47.3" style="top:-6px"><desc>Tony</desc><defs/><g id="Polygon305511"><path d="m4.5 23.7c2.3 0 3.7 1.8 3.7 4.2c.04-.02 0 .3 0 .3c0 0-6.03.03-6 0c.1 1.3 1 2.4 2.6 2.4c.8 0 1.7-.3 2.3-.9l.6.9c-.7.8-1.8 1.2-3.1 1.2c-2.3 0-3.9-1.6-3.9-4c0-2.3 1.6-4.1 3.8-4.1zm-2.3 3.5h4.6c0-1-.7-2.3-2.3-2.3c-1.5 0-2.3 1.3-2.3 2.3zm17-.7c0-.9-.4-1.5-1.3-1.5c-.8 0-1.6.5-1.9 1.1c-.04.01 0 5.5 0 5.5h-1.5s.03-5.11 0-5.1c0-.9-.4-1.5-1.3-1.5c-.8 0-1.5.6-1.9 1.1v5.5H9.9v-7.7h1.4s.01 1.11 0 1.1c.3-.5 1.3-1.3 2.5-1.3c1.1 0 1.8.6 2.1 1.5c.4-.7 1.4-1.5 2.6-1.5c1.4 0 2.1.8 2.1 2.4c.03-.04 0 5.5 0 5.5h-1.4v-5.1zm8.3 4.3c-.6.6-1.5 1-2.5 1c-1.3 0-2.7-.9-2.7-2.6c0-1.7 1.4-2.5 2.7-2.5c1 0 1.9.4 2.5 1.1v-1.3c0-1-.8-1.5-1.9-1.5c-.9 0-1.6.3-2.3 1l-.6-1c.8-.8 1.9-1.3 3.1-1.3c1.7 0 3.1.8 3.1 2.7v5.2h-1.4s-.03-.84 0-.8zm0-2.2c-.5-.6-1.2-.9-2-.9c-1 0-1.8.7-1.8 1.6c0 .9.8 1.5 1.8 1.5c.8 0 1.5-.3 2-.9v-1.3zm3.3-6.9c0-.5.4-.9.9-.9c.5 0 .9.4.9.9c0 .5-.4.9-.9.9c-.5 0-.9-.4-.9-.9zm.2 2.2h1.5v7.7H31v-7.7zm3.6-2.9h1.4v10.6h-1.4V21zm9.2.5c3 0 5 2.2 5 5c0 2.5-1.5 3.8-2.8 3.8c-.9 0-1.4-.7-1.5-1.3v-.1c-.6.8-1.5 1.4-2.5 1.4c-1.5 0-2.4-1.1-2.4-2.7c0-2.1 1.8-3.9 3.7-3.9c1 0 1.7.5 2 1.2l.2-1h1.3s-.89 4.21-.9 4.2v.4c0 .5.3.8.7.8c.6 0 1.6-.8 1.6-2.8c0-2.6-1.7-4.5-4.4-4.5c-3.1 0-5.7 2.7-5.7 5.7c0 2.5 1.9 4.5 4.5 4.5c1.1 0 2.1-.4 3-.9l.3.4c-1 .6-2.2 1-3.3 1c-2.9 0-5.1-2.2-5.1-5c0-3.4 3-6.2 6.3-6.2zm1.3 4.3c-.2-.5-.7-1.1-1.5-1.1c-1.5 0-2.7 1.4-2.7 2.9c0 .9.6 1.6 1.6 1.6c1 0 1.7-.7 2.2-1.3l.4-2.1zm5.1-4.1c0-.5.4-.9.9-.9c.5 0 .9.4.9.9c0 .5-.4.9-.9.9c-.5 0-.9-.4-.9-.9zm1.6 10.5c0 1.6-.8 2.5-2.4 2.5c-.3 0-.6 0-.9-.1l.2-1.2c.2.1.4.1.5.1c.7 0 1.2-.4 1.2-1.3v-8.3h1.4v8.3zm6.9-1.4c-.6.6-1.5 1-2.5 1c-1.3 0-2.7-.9-2.7-2.6c0-1.7 1.4-2.5 2.7-2.5c1 0 1.9.4 2.5 1.1v-1.3c0-1-.8-1.5-1.9-1.5c-.9 0-1.6.3-2.3 1l-.6-1c.8-.8 1.9-1.3 3.1-1.3c1.7 0 3.1.8 3.1 2.7v5.2h-1.4s-.04-.84 0-.8zm0-2.2c-.5-.6-1.2-.9-2-.9c-1 0-1.8.7-1.8 1.6c0 .9.8 1.5 1.8 1.5c.8 0 1.5-.3 2-.9v-1.3zm12.8-2.1c0-.9-.4-1.5-1.3-1.5c-.8 0-1.5.5-1.9 1.1v5.5h-1.4s-.03-5.11 0-5.1c0-.9-.4-1.5-1.4-1.5c-.7 0-1.5.6-1.9 1.1c.04.02 0 5.5 0 5.5h-1.4v-7.7h1.4s.04 1.11 0 1.1c.4-.5 1.4-1.3 2.5-1.3c1.2 0 1.9.6 2.1 1.5c.4-.7 1.5-1.5 2.6-1.5c1.4 0 2.2.8 2.2 2.4c-.03-.04 0 5.5 0 5.5h-1.5s.04-5.11 0-5.1zm6.9-2.8c2.3 0 3.8 1.8 3.8 4.2c-.02-.02 0 .3 0 .3c0 0-6.09.03-6.1 0c.1 1.3 1.1 2.4 2.6 2.4c.8 0 1.7-.3 2.3-.9l.7.9c-.8.8-1.9 1.2-3.1 1.2c-2.3 0-4-1.6-4-4c0-2.3 1.6-4.1 3.8-4.1zm-2.3 3.5h4.7c-.1-1-.7-2.3-2.4-2.3c-1.5 0-2.2 1.3-2.3 2.3zm7.7 2.4c.6.5 1.6 1 2.6 1c1.1 0 1.7-.4 1.7-1c0-.8-.9-1.1-1.9-1.3c-1.3-.3-2.8-.6-2.8-2.3c0-1.2 1-2.3 2.9-2.3c1.3 0 2.3.5 2.9 1.1l-.6 1c-.5-.5-1.3-.9-2.3-.9c-1 0-1.6.4-1.6 1c0 .7.9.9 1.8 1.1c1.3.3 2.9.7 2.9 2.4c0 1.4-1 2.4-3.1 2.4c-1.2 0-2.4-.4-3.2-1.2l.7-1zm10.7-5.9c1.5 0 2.3.6 2.9 1.4l-1 .9c-.4-.7-1-1-1.8-1c-1.5 0-2.5 1.2-2.5 2.8c0 1.5 1 2.7 2.5 2.7c.8 0 1.4-.3 1.8-.9l1 .8c-.6.8-1.4 1.4-2.9 1.4c-2.3 0-3.9-1.7-3.9-4c0-2.3 1.6-4.1 3.9-4.1zm9 7.1c-.6.6-1.4 1-2.5 1c-1.2 0-2.6-.9-2.6-2.6c0-1.7 1.3-2.5 2.6-2.5c1.1 0 1.9.4 2.5 1.1v-1.3c0-1-.7-1.5-1.8-1.5c-.9 0-1.7.3-2.3 1l-.7-1c.9-.8 1.9-1.3 3.2-1.3c1.7 0 3.1.8 3.1 2.7c-.04.02 0 5.2 0 5.2h-1.5s.04-.84 0-.8zm0-2.2c-.4-.6-1.1-.9-1.9-.9c-1.1 0-1.8.7-1.8 1.6c0 .9.7 1.5 1.8 1.5c.8 0 1.5-.3 1.9-.9v-1.3zm3.6 5.9V23.9h1.4s.02 1.13 0 1.1c.6-.7 1.5-1.3 2.5-1.3c2 0 3.4 1.5 3.4 4.1c0 2.5-1.4 4-3.4 4c-1 0-1.9-.5-2.5-1.3c.02-.01 0 4 0 4h-1.4zm3.6-9.5c-.9 0-1.8.5-2.2 1.1v3.3c.4.6 1.3 1.1 2.2 1.1c1.4 0 2.3-1.1 2.3-2.7c0-1.6-.9-2.8-2.3-2.8zm5.2-3.3c0-.5.4-.9.9-.9c.5 0 .9.4.9.9c0 .5-.4.9-.9.9c-.5 0-.9-.4-.9-.9zm.2 2.2h1.4v7.7h-1.4v-7.7zm3.8 6c.02 0 0-4.7 0-4.7h-1.2v-1.3h1.2v-2.1h1.5v2.1h1.5v1.3h-1.5s-.05 4.38 0 4.4c0 .5.2.9.7.9c.3 0 .6-.1.8-.3l.3 1.1c-.3.3-.7.5-1.5.5c-1.2 0-1.8-.7-1.8-1.9zm9.2.9c-.6.6-1.5 1-2.5 1c-1.3 0-2.7-.9-2.7-2.6c0-1.7 1.4-2.5 2.7-2.5c1 0 1.9.4 2.5 1.1v-1.3c0-1-.8-1.5-1.9-1.5c-.9 0-1.6.3-2.3 1l-.6-1c.8-.8 1.9-1.3 3.1-1.3c1.7 0 3.1.8 3.1 2.7v5.2h-1.4s-.03-.84 0-.8zm0-2.2c-.5-.6-1.2-.9-2-.9c-1 0-1.8.7-1.8 1.6c0 .9.8 1.5 1.8 1.5c.8 0 1.5-.3 2-.9v-1.3zm3.5-7.6h1.5v10.6h-1.5V21zm8.3 9.8c-.6.6-1.5 1-2.5 1c-1.3 0-2.7-.9-2.7-2.6c0-1.7 1.4-2.5 2.7-2.5c1 0 1.9.4 2.5 1.1v-1.3c0-1-.8-1.5-1.9-1.5c-.8 0-1.6.3-2.3 1l-.6-1c.9-.8 1.9-1.3 3.1-1.3c1.7 0 3.1.8 3.1 2.7c.03.02 0 5.2 0 5.2h-1.4v-.8zm0-2.2c-.4-.6-1.2-.9-2-.9c-1 0-1.7.7-1.7 1.6c0 .9.7 1.5 1.7 1.5c.8 0 1.6-.3 2-.9v-1.3zm9 1.9c-.6.8-1.5 1.3-2.5 1.3c-2 0-3.4-1.5-3.4-4c0-2.5 1.4-4.1 3.4-4.1c1 0 1.9.5 2.5 1.3c.02.04 0-4 0-4h1.4v10.6h-1.4s.02-1.09 0-1.1zm0-4.4c-.4-.6-1.2-1.1-2.1-1.1c-1.4 0-2.3 1.2-2.3 2.8c0 1.6.9 2.7 2.3 2.7c.9 0 1.7-.5 2.1-1.1v-3.3zm2.5-2.2h1.5l2.4 6.1l2.4-6.1h1.5l-3.1 7.7h-1.6l-3.1-7.7zm8.6-2.2c0-.5.4-.9.9-.9c.5 0 .9.4.9.9c0 .5-.4.9-.9.9c-.5 0-.9-.4-.9-.9zm.2 2.2h1.4v7.7h-1.4v-7.7zm3.6 5.7c.5.5 1.5 1 2.5 1c1.1 0 1.7-.4 1.7-1c0-.8-.9-1.1-1.9-1.3c-1.3-.3-2.8-.6-2.8-2.3c0-1.2 1.1-2.3 2.9-2.3c1.3 0 2.3.5 3 1.1l-.7 1c-.4-.5-1.3-.9-2.3-.9c-.9 0-1.5.4-1.5 1c0 .7.8.9 1.8 1.1c1.3.3 2.9.7 2.9 2.4c0 1.4-1.1 2.4-3.1 2.4c-1.3 0-2.4-.4-3.2-1.2l.7-1zm6.7-1.8c0-2.3 1.5-4.1 3.9-4.1c2.4 0 3.9 1.8 3.9 4.1c0 2.2-1.5 4-3.9 4c-2.4 0-3.9-1.8-3.9-4zm6.3 0c0-1.5-.8-2.8-2.4-2.8c-1.5 0-2.4 1.3-2.4 2.8c0 1.4.9 2.7 2.4 2.7c1.6 0 2.4-1.3 2.4-2.7zm3.2-3.9h1.4s-.02 1.21 0 1.2c.6-.8 1.5-1.3 2.5-1.3v1.4h-.5c-.7 0-1.7.5-2 1.1c-.02-.04 0 5.3 0 5.3H181v-7.7zm5.2 5.7c.5.5 1.5 1 2.5 1c1.1 0 1.7-.4 1.7-1c0-.8-.9-1.1-1.9-1.3c-1.3-.3-2.8-.6-2.8-2.3c0-1.2 1.1-2.3 2.9-2.3c1.4 0 2.3.5 3 1.1l-.7 1c-.4-.5-1.3-.9-2.2-.9c-1 0-1.6.4-1.6 1c0 .7.8.9 1.8 1.1c1.3.3 2.9.7 2.9 2.4c0 1.4-1.1 2.4-3.1 2.4c-1.3 0-2.4-.4-3.2-1.2l.7-1zm8 .2c.5 0 1 .4 1 1c0 .5-.5 1-1 1c-.6 0-1-.5-1-1c0-.6.4-1 1-1zm6.2-6.1c1.4 0 2.3.6 2.9 1.4l-1 .9c-.5-.7-1.1-1-1.9-1c-1.5 0-2.4 1.2-2.4 2.8c0 1.5.9 2.7 2.4 2.7c.8 0 1.4-.3 1.9-.9l1 .8c-.6.8-1.5 1.4-2.9 1.4c-2.3 0-3.9-1.7-3.9-4c0-2.3 1.6-4.1 3.9-4.1zm3.8 4.1c0-2.3 1.5-4.1 3.9-4.1c2.4 0 3.8 1.8 3.8 4.1c0 2.2-1.4 4-3.8 4c-2.4 0-3.9-1.8-3.9-4zm6.3 0c0-1.5-.9-2.8-2.4-2.8c-1.6 0-2.4 1.3-2.4 2.8c0 1.4.8 2.7 2.4 2.7c1.5 0 2.4-1.3 2.4-2.7zm12.4-1.3c0-.9-.4-1.5-1.3-1.5c-.8 0-1.6.5-1.9 1.1c-.02.01 0 5.5 0 5.5h-1.4s-.05-5.11 0-5.1c0-.9-.4-1.5-1.4-1.5c-.7 0-1.5.6-1.9 1.1c.03.02 0 5.5 0 5.5h-1.4v-7.7h1.4s.03 1.11 0 1.1c.3-.5 1.4-1.3 2.5-1.3c1.2 0 1.8.6 2.1 1.5c.4-.7 1.4-1.5 2.6-1.5c1.4 0 2.1.8 2.1 2.4c.05-.04 0 5.5 0 5.5h-1.4s.02-5.11 0-5.1z" stroke="none" fill="#3797ef"/></g><g id="Polygon305510"><path d="m.7 8.7c0-2.6.8-5.1 2.3-7l.9.6c-1.1 2-1.7 3.8-1.7 6.4c0 2.6.6 4.4 1.7 6.3l-.9.7C1.5 13.8.7 11.2.7 8.7zm8.2-6.9c2.9 0 4.1 2.8 4.1 5.5c0 2.6-1.2 5.4-4.1 5.4c-3 0-4.2-2.8-4.2-5.4c0-2.7 1.2-5.5 4.2-5.5zm0 1.4c-1.9 0-2.5 2-2.5 4.1c0 2 .6 4 2.5 4c1.9 0 2.5-2 2.5-4c0-2.1-.6-4.1-2.5-4.1zm9.6-1.4c2.9 0 4.1 2.8 4.1 5.5c0 2.6-1.2 5.4-4.1 5.4c-3 0-4.2-2.8-4.2-5.4c0-2.7 1.2-5.5 4.2-5.5zm0 1.4c-1.9 0-2.6 2-2.6 4.1c0 2 .7 4 2.6 4c1.8 0 2.5-2 2.5-4c0-2.1-.7-4.1-2.5-4.1zm9.6-1.4c2.9 0 4.1 2.8 4.1 5.5c0 2.6-1.2 5.4-4.1 5.4c-3 0-4.2-2.8-4.2-5.4c0-2.7 1.2-5.5 4.2-5.5zm0 1.4c-1.9 0-2.6 2-2.6 4.1c0 2 .7 4 2.6 4c1.8 0 2.5-2 2.5-4c0-2.1-.7-4.1-2.5-4.1zm4.9-.9l.9-.6c1.5 1.9 2.4 4.4 2.4 7c0 2.5-.9 5.1-2.4 7L33 15c1.1-1.9 1.7-3.7 1.7-6.3c0-2.6-.6-4.4-1.7-6.4zm12.6-.5c2.9 0 4.1 2.8 4.1 5.5c0 2.6-1.2 5.4-4.1 5.4c-2.9 0-4.2-2.8-4.2-5.4c0-2.7 1.3-5.5 4.2-5.5zm0 1.4c-1.9 0-2.5 2-2.5 4.1c0 2 .6 4 2.5 4c1.9 0 2.5-2 2.5-4c0-2.1-.6-4.1-2.5-4.1zm9.6-1.4c2.9 0 4.1 2.8 4.1 5.5c0 2.6-1.2 5.4-4.1 5.4c-3 0-4.2-2.8-4.2-5.4c0-2.7 1.2-5.5 4.2-5.5zm0 1.4c-1.9 0-2.5 2-2.5 4.1c0 2 .6 4 2.5 4c1.9 0 2.5-2 2.5-4c0-2.1-.6-4.1-2.5-4.1zm9.6-1.4c2.9 0 4.1 2.8 4.1 5.5c0 2.6-1.2 5.4-4.1 5.4c-3 0-4.2-2.8-4.2-5.4c0-2.7 1.2-5.5 4.2-5.5zm0 1.4c-1.9 0-2.6 2-2.6 4.1c0 2 .7 4 2.6 4c1.8 0 2.5-2 2.5-4c0-2.1-.7-4.1-2.5-4.1zM70 8.1h3.8v1.2H70V8.1zm9-6.3c2.9 0 4.1 2.8 4.1 5.5c0 2.6-1.2 5.4-4.1 5.4c-3 0-4.2-2.8-4.2-5.4c0-2.7 1.2-5.5 4.2-5.5zm0 1.4c-1.9 0-2.6 2-2.6 4.1c0 2 .7 4 2.6 4c1.8 0 2.5-2 2.5-4c0-2.1-.7-4.1-2.5-4.1zm9.6-1.4c2.9 0 4.1 2.8 4.1 5.5c0 2.6-1.2 5.4-4.1 5.4c-3 0-4.2-2.8-4.2-5.4c0-2.7 1.2-5.5 4.2-5.5zm0 1.4c-1.9 0-2.6 2-2.6 4.1c0 2 .7 4 2.6 4c1.8 0 2.5-2 2.5-4c0-2.1-.7-4.1-2.5-4.1zm9.6-1.4c2.9 0 4.1 2.8 4.1 5.5c0 2.6-1.2 5.4-4.1 5.4c-3 0-4.2-2.8-4.2-5.4c0-2.7 1.2-5.5 4.2-5.5zm0 1.4c-1.9 0-2.6 2-2.6 4.1c0 2 .7 4 2.6 4c1.8 0 2.5-2 2.5-4c0-2.1-.7-4.1-2.5-4.1zm9.5-1.4c3 0 4.2 2.8 4.2 5.5c0 2.6-1.2 5.4-4.2 5.4c-2.9 0-4.1-2.8-4.1-5.4c0-2.7 1.2-5.5 4.1-5.5zm0 1.4c-1.8 0-2.5 2-2.5 4.1c0 2 .7 4 2.5 4c1.9 0 2.6-2 2.6-4c0-2.1-.7-4.1-2.6-4.1z" stroke="none" fill="#3797ef"/></g></svg>