<?xml version="1.0" standalone="no"?>
<!DOCTYPE svg PUBLIC "-//W3C//DTD SVG 1.1//EN" "http://www.w3.org/Graphics/SVG/1.1/DTD/svg11.dtd">
<svg xmlns="http://www.w3.org/2000/svg" version="1.1" width="89.3px" height="16.9px" viewBox="0 -4 89.3 16.9" style="top:-4px">
  <desc>Original Lease Term</desc>
  <defs/>
  <g id="Polygon274228">
    <path d="M 3.4 1 C 5.2 1 6.5 2.3 6.5 4.1 C 6.5 5.9 5.2 7.2 3.4 7.2 C 1.6 7.2 0.4 5.9 0.4 4.1 C 0.4 2.3 1.6 1 3.4 1 Z M 3.4 1.8 C 2.2 1.8 1.3 2.8 1.3 4.1 C 1.3 5.4 2.2 6.4 3.4 6.4 C 4.7 6.4 5.5 5.4 5.5 4.1 C 5.5 2.8 4.7 1.8 3.4 1.8 Z M 7.5 2.8 L 8.3 2.8 C 8.3 2.8 8.34 3.43 8.3 3.4 C 8.7 3 9.2 2.7 9.8 2.7 C 9.8 2.7 9.8 3.5 9.8 3.5 C 9.7 3.5 9.6 3.5 9.5 3.5 C 9.1 3.5 8.5 3.8 8.3 4.1 C 8.34 4.09 8.3 7.1 8.3 7.1 L 7.5 7.1 L 7.5 2.8 Z M 10.4 1.5 C 10.4 1.2 10.7 1 11 1 C 11.3 1 11.5 1.2 11.5 1.5 C 11.5 1.8 11.3 2 11 2 C 10.7 2 10.4 1.8 10.4 1.5 Z M 10.6 2.8 L 11.4 2.8 L 11.4 7.1 L 10.6 7.1 L 10.6 2.8 Z M 13 7.6 C 13.4 8 13.8 8.2 14.4 8.2 C 15.1 8.2 15.8 7.9 15.8 7 C 15.8 7 15.8 6.4 15.8 6.4 C 15.4 6.8 14.9 7.1 14.3 7.1 C 13.2 7.1 12.4 6.3 12.4 4.9 C 12.4 3.5 13.2 2.7 14.3 2.7 C 14.9 2.7 15.4 2.9 15.8 3.4 C 15.77 3.39 15.8 2.8 15.8 2.8 L 16.6 2.8 C 16.6 2.8 16.58 6.94 16.6 6.9 C 16.6 8.4 15.5 8.9 14.4 8.9 C 13.7 8.9 13.2 8.7 12.6 8.2 C 12.6 8.2 13 7.6 13 7.6 Z M 15.8 4 C 15.5 3.7 15 3.4 14.6 3.4 C 13.8 3.4 13.2 4 13.2 4.9 C 13.2 5.8 13.8 6.4 14.6 6.4 C 15 6.4 15.5 6.1 15.8 5.8 C 15.8 5.8 15.8 4 15.8 4 Z M 17.7 1.5 C 17.7 1.2 18 1 18.3 1 C 18.5 1 18.8 1.2 18.8 1.5 C 18.8 1.8 18.5 2 18.3 2 C 18 2 17.7 1.8 17.7 1.5 Z M 17.9 2.8 L 18.7 2.8 L 18.7 7.1 L 17.9 7.1 L 17.9 2.8 Z M 22.9 4.3 C 22.9 3.6 22.5 3.4 22 3.4 C 21.5 3.4 21 3.7 20.8 4 C 20.77 4 20.8 7.1 20.8 7.1 L 20 7.1 L 20 2.8 L 20.8 2.8 C 20.8 2.8 20.77 3.37 20.8 3.4 C 21.1 3 21.6 2.7 22.3 2.7 C 23.2 2.7 23.7 3.1 23.7 4.1 C 23.71 4.06 23.7 7.1 23.7 7.1 L 22.9 7.1 C 22.9 7.1 22.9 4.33 22.9 4.3 Z M 27.7 6.6 C 27.3 7 26.8 7.2 26.3 7.2 C 25.5 7.2 24.7 6.7 24.7 5.8 C 24.7 4.8 25.5 4.4 26.3 4.4 C 26.8 4.4 27.3 4.5 27.7 4.9 C 27.7 4.9 27.7 4.2 27.7 4.2 C 27.7 3.7 27.2 3.3 26.6 3.3 C 26.1 3.3 25.7 3.5 25.3 3.9 C 25.3 3.9 25 3.4 25 3.4 C 25.4 2.9 26 2.7 26.7 2.7 C 27.7 2.7 28.5 3.1 28.5 4.2 C 28.48 4.18 28.5 7.1 28.5 7.1 L 27.7 7.1 C 27.7 7.1 27.68 6.63 27.7 6.6 Z M 27.7 5.4 C 27.4 5.1 27 4.9 26.6 4.9 C 26 4.9 25.6 5.3 25.6 5.8 C 25.6 6.3 26 6.7 26.6 6.7 C 27 6.7 27.4 6.5 27.7 6.2 C 27.7 6.2 27.7 5.4 27.7 5.4 Z M 29.8 1.1 L 30.6 1.1 L 30.6 7.1 L 29.8 7.1 L 29.8 1.1 Z M 34.2 1.1 L 35.1 1.1 L 35.1 6.3 L 37.8 6.3 L 37.8 7.1 L 34.2 7.1 L 34.2 1.1 Z M 40.6 2.7 C 41.9 2.7 42.7 3.7 42.7 5 C 42.68 5 42.7 5.2 42.7 5.2 C 42.7 5.2 39.24 5.2 39.2 5.2 C 39.3 5.9 39.8 6.6 40.7 6.6 C 41.2 6.6 41.7 6.4 42 6 C 42 6 42.4 6.6 42.4 6.6 C 41.9 7 41.3 7.2 40.6 7.2 C 39.3 7.2 38.4 6.3 38.4 4.9 C 38.4 3.7 39.3 2.7 40.6 2.7 Z M 39.2 4.6 C 39.2 4.6 41.9 4.6 41.9 4.6 C 41.9 4 41.5 3.3 40.6 3.3 C 39.7 3.3 39.3 4 39.2 4.6 Z M 46.4 6.6 C 46 7 45.5 7.2 45 7.2 C 44.2 7.2 43.4 6.7 43.4 5.8 C 43.4 4.8 44.2 4.4 45 4.4 C 45.5 4.4 46 4.5 46.4 4.9 C 46.4 4.9 46.4 4.2 46.4 4.2 C 46.4 3.7 45.9 3.3 45.3 3.3 C 44.8 3.3 44.4 3.5 44 3.9 C 44 3.9 43.7 3.4 43.7 3.4 C 44.1 2.9 44.7 2.7 45.4 2.7 C 46.4 2.7 47.2 3.1 47.2 4.2 C 47.19 4.18 47.2 7.1 47.2 7.1 L 46.4 7.1 C 46.4 7.1 46.38 6.63 46.4 6.6 Z M 46.4 5.4 C 46.1 5.1 45.7 4.9 45.3 4.9 C 44.7 4.9 44.3 5.3 44.3 5.8 C 44.3 6.3 44.7 6.7 45.3 6.7 C 45.7 6.7 46.1 6.5 46.4 6.2 C 46.4 6.2 46.4 5.4 46.4 5.4 Z M 48.5 5.9 C 48.8 6.3 49.4 6.6 49.9 6.6 C 50.6 6.6 50.9 6.3 50.9 5.9 C 50.9 5.5 50.4 5.4 49.8 5.2 C 49.1 5.1 48.2 4.9 48.2 3.9 C 48.2 3.2 48.8 2.7 49.9 2.7 C 50.6 2.7 51.2 2.9 51.5 3.3 C 51.5 3.3 51.2 3.8 51.2 3.8 C 50.9 3.5 50.4 3.3 49.9 3.3 C 49.3 3.3 49 3.5 49 3.9 C 49 4.3 49.5 4.4 50 4.5 C 50.8 4.7 51.7 4.9 51.7 5.9 C 51.7 6.6 51.1 7.2 49.9 7.2 C 49.2 7.2 48.5 7 48.1 6.5 C 48.1 6.5 48.5 5.9 48.5 5.9 Z M 54.6 2.7 C 55.9 2.7 56.7 3.7 56.7 5 C 56.72 5 56.7 5.2 56.7 5.2 C 56.7 5.2 53.28 5.2 53.3 5.2 C 53.3 5.9 53.9 6.6 54.8 6.6 C 55.2 6.6 55.7 6.4 56 6 C 56 6 56.4 6.6 56.4 6.6 C 56 7 55.4 7.2 54.7 7.2 C 53.4 7.2 52.4 6.3 52.4 4.9 C 52.4 3.7 53.3 2.7 54.6 2.7 Z M 53.3 4.6 C 53.3 4.6 55.9 4.6 55.9 4.6 C 55.9 4 55.5 3.3 54.6 3.3 C 53.7 3.3 53.3 4 53.3 4.6 Z M 61.5 1.9 L 59.7 1.9 L 59.7 1.1 L 64.3 1.1 L 64.3 1.9 L 62.4 1.9 L 62.4 7.1 L 61.5 7.1 L 61.5 1.9 Z M 66.1 2.7 C 67.4 2.7 68.2 3.7 68.2 5 C 68.25 5 68.2 5.2 68.2 5.2 C 68.2 5.2 64.81 5.2 64.8 5.2 C 64.9 5.9 65.4 6.6 66.3 6.6 C 66.7 6.6 67.2 6.4 67.6 6 C 67.6 6 67.9 6.6 67.9 6.6 C 67.5 7 66.9 7.2 66.2 7.2 C 64.9 7.2 64 6.3 64 4.9 C 64 3.7 64.9 2.7 66.1 2.7 Z M 64.8 4.6 C 64.8 4.6 67.5 4.6 67.5 4.6 C 67.4 4 67 3.3 66.1 3.3 C 65.3 3.3 64.8 4 64.8 4.6 Z M 69.3 2.8 L 70.1 2.8 C 70.1 2.8 70.07 3.43 70.1 3.4 C 70.4 3 70.9 2.7 71.5 2.7 C 71.5 2.7 71.5 3.5 71.5 3.5 C 71.4 3.5 71.3 3.5 71.2 3.5 C 70.8 3.5 70.3 3.8 70.1 4.1 C 70.07 4.09 70.1 7.1 70.1 7.1 L 69.3 7.1 L 69.3 2.8 Z M 77.6 4.2 C 77.6 3.7 77.4 3.4 76.8 3.4 C 76.4 3.4 76 3.7 75.8 4 C 75.75 4 75.8 7.1 75.8 7.1 L 74.9 7.1 C 74.9 7.1 74.94 4.21 74.9 4.2 C 74.9 3.7 74.7 3.4 74.2 3.4 C 73.8 3.4 73.3 3.7 73.1 4 C 73.11 4 73.1 7.1 73.1 7.1 L 72.3 7.1 L 72.3 2.8 L 73.1 2.8 C 73.1 2.8 73.11 3.37 73.1 3.4 C 73.3 3.1 73.9 2.7 74.5 2.7 C 75.2 2.7 75.6 3 75.7 3.5 C 75.9 3.1 76.5 2.7 77.2 2.7 C 78 2.7 78.4 3.1 78.4 4 C 78.4 3.97 78.4 7.1 78.4 7.1 L 77.6 7.1 C 77.6 7.1 77.59 4.21 77.6 4.2 Z " stroke="none" fill="#000"/>
  </g>
</svg>