<?xml version="1.0" standalone="no"?><!DOCTYPE svg PUBLIC "-//W3C//DTD SVG 1.1//EN" "http://www.w3.org/Graphics/SVG/1.1/DTD/svg11.dtd"><svg xmlns="http://www.w3.org/2000/svg" version="1.1" width="96px" height="28.4px" viewBox="0 -6 96 28.4" style="top:-6px"><desc>Agent 1</desc><defs/><g id="Polygon281091"><path d="m5.4 12.8c.04 0 0 1.4 0 1.4H4.3v-1.4c-1.6-.1-2.9-.8-3.7-1.7l.9-1.2c.7.7 1.6 1.3 2.8 1.5V7.9C2.7 7.5 1 6.9 1 4.8c0-1.6 1.3-2.8 3.3-3V.4h1.1s.04 1.44 0 1.4c1.4.2 2.4.7 3.2 1.5l-.9 1.2c-.6-.7-1.4-1-2.3-1.2v3.1c1.7.5 3.5 1.1 3.5 3.2c0 1.6-1 3-3.5 3.2zM4.3 6.1V3.2c-1 .1-1.7.7-1.7 1.5c0 .8.7 1.2 1.7 1.4zm2.9 3.7c0-1-.8-1.3-1.8-1.6v3.2c1.4-.2 1.8-1 1.8-1.6zm7.1-8c3 0 4.2 2.9 4.2 5.5c0 2.7-1.2 5.5-4.2 5.5c-2.9 0-4.1-2.8-4.1-5.5c0-2.6 1.2-5.5 4.1-5.5zm0 1.4c-1.9 0-2.5 2-2.5 4.1c0 2.1.6 4.1 2.5 4.1c1.9 0 2.6-2 2.6-4.1c0-2.1-.7-4.1-2.6-4.1zm5.3 11c.5-.4 1-1 1-1.5h-.2c-.5 0-.9-.4-.9-.9c0-.6.5-1 1-1c.6 0 1.1.5 1.1 1.3c0 1.1-.6 2-1.4 2.6l-.6-.5zm7.6-12.4c3 0 4.2 2.9 4.2 5.5c0 2.7-1.2 5.5-4.2 5.5c-3 0-4.2-2.8-4.2-5.5c0-2.6 1.2-5.5 4.2-5.5zm0 1.4c-1.9 0-2.5 2-2.5 4.1c0 2.1.6 4.1 2.5 4.1c1.9 0 2.5-2 2.5-4.1c0-2.1-.6-4.1-2.5-4.1zm9.7-1.4c2.9 0 4.1 2.9 4.1 5.5c0 2.7-1.2 5.5-4.1 5.5c-3 0-4.2-2.8-4.2-5.5c0-2.6 1.2-5.5 4.2-5.5zm0 1.4c-1.9 0-2.6 2-2.6 4.1c0 2.1.7 4.1 2.6 4.1c1.9 0 2.5-2 2.5-4.1c0-2.1-.6-4.1-2.5-4.1zm9.6-1.4c3 0 4.2 2.9 4.2 5.5c0 2.7-1.2 5.5-4.2 5.5c-2.9 0-4.1-2.8-4.1-5.5c0-2.6 1.2-5.5 4.1-5.5zm0 1.4c-1.9 0-2.5 2-2.5 4.1c0 2.1.6 4.1 2.5 4.1c1.9 0 2.6-2 2.6-4.1c0-2.1-.7-4.1-2.6-4.1zm5.2 11c.6-.4 1.1-1 1.1-1.5h-.2c-.5 0-.9-.4-.9-.9c0-.6.5-1 1-1c.6 0 1.1.5 1.1 1.3c0 1.1-.6 2-1.4 2.6l-.7-.5zm7.7-12.4c3 0 4.2 2.9 4.2 5.5c0 2.7-1.2 5.5-4.2 5.5c-3 0-4.2-2.8-4.2-5.5c0-2.6 1.2-5.5 4.2-5.5zm0 1.4c-1.9 0-2.6 2-2.6 4.1c0 2.1.7 4.1 2.6 4.1c1.9 0 2.5-2 2.5-4.1c0-2.1-.6-4.1-2.5-4.1zm9.7-1.4c2.9 0 4.1 2.9 4.1 5.5c0 2.7-1.2 5.5-4.1 5.5c-3 0-4.2-2.8-4.2-5.5c0-2.6 1.2-5.5 4.2-5.5zm0 1.4c-1.9 0-2.6 2-2.6 4.1c0 2.1.7 4.1 2.6 4.1c1.8 0 2.5-2 2.5-4.1c0-2.1-.7-4.1-2.5-4.1zm9.6-1.4c3 0 4.2 2.9 4.2 5.5c0 2.7-1.2 5.5-4.2 5.5c-2.9 0-4.2-2.8-4.2-5.5c0-2.6 1.3-5.5 4.2-5.5zm0 1.4c-1.9 0-2.5 2-2.5 4.1c0 2.1.6 4.1 2.5 4.1c1.9 0 2.6-2 2.6-4.1c0-2.1-.7-4.1-2.6-4.1z" stroke="none" fill="#282828"/></g></svg>