<?xml version="1.0" standalone="no"?><!DOCTYPE svg PUBLIC "-//W3C//DTD SVG 1.1//EN" "http://www.w3.org/Graphics/SVG/1.1/DTD/svg11.dtd"><svg xmlns="http://www.w3.org/2000/svg" version="1.1" width="51.4px" height="16.9px" viewBox="0 -4 51.4 16.9" style="top:-4px"><desc>Monthly Rent</desc><defs/><g id="Polygon97941"><path d="m5.8 2.3L3.9 7.1h-.4L1.6 2.3v4.8h-.9v-6h1.3l1.7 4.3l1.7-4.3h1.3v6h-.9V2.3zm1.9 2.6c0-1.2.8-2.2 2.2-2.2c1.3 0 2.2 1 2.2 2.2c0 1.3-.9 2.3-2.2 2.3c-1.4 0-2.2-1-2.2-2.3zm3.5 0c0-.8-.4-1.5-1.3-1.5c-.9 0-1.4.7-1.4 1.5c0 .9.5 1.6 1.4 1.6c.9 0 1.3-.7 1.3-1.6zm4.7-.6c0-.7-.3-.9-.9-.9c-.5 0-.9.3-1.2.6c.02 0 0 3.1 0 3.1h-.8V2.8h.8s.02.57 0 .6c.3-.4.9-.7 1.6-.7c.9 0 1.4.4 1.4 1.4c-.04-.04 0 3 0 3h-.9s.05-2.77 0-2.8zm2.2 1.8c.02.05 0-2.6 0-2.6h-.7v-.7h.7V1.6h.8v1.2h.9v.7h-.9s.03 2.47 0 2.5c0 .3.2.5.4.5c.2 0 .4-.1.5-.2l.2.6c-.2.2-.4.3-.8.3c-.7 0-1.1-.4-1.1-1.1zm5.5-1.8c0-.7-.4-.9-1-.9c-.5 0-.9.3-1.2.6c.03 0 0 3.1 0 3.1h-.8v-6h.8s.03 2.27 0 2.3c.3-.4.9-.7 1.6-.7c.9 0 1.4.4 1.4 1.3c-.04.04 0 3.1 0 3.1h-.8s-.05-2.79 0-2.8zm2-3.2h.8v6h-.8v-6zm2.2 7.1c.3 0 .5-.1.7-.5l.2-.5l-1.8-4.4h.9l1.4 3.4l1.3-3.4h.9s-2.15 5.14-2.2 5.1c-.2.7-.7 1-1.3 1c-.2 0-.4-.1-.5-.1l.1-.7c.1 0 .2.1.3.1zm8.4-3.4h-1.1v2.3h-.9v-6s2.54.01 2.5 0c1.2 0 2 .7 2 1.9c0 1-.8 1.6-1.5 1.7c-.03.01 1.5 2.4 1.5 2.4h-1l-1.5-2.3zm.4-2.9h-1.5v2.1h1.5c.7 0 1.1-.4 1.1-1c0-.7-.4-1.1-1.1-1.1zm4.7.8c1.3 0 2.1 1 2.1 2.3v.2H40c0 .7.6 1.4 1.5 1.4c.4 0 .9-.2 1.2-.6l.4.6c-.4.4-1 .6-1.7.6c-1.3 0-2.3-.9-2.3-2.3c0-1.2.9-2.2 2.2-2.2zM40 4.6h2.6c0-.6-.4-1.3-1.3-1.3c-.9 0-1.3.7-1.3 1.3zm7.3-.3c0-.7-.4-.9-1-.9c-.5 0-.9.3-1.1.6c-.05 0 0 3.1 0 3.1h-.9V2.8h.9s-.05.57 0 .6c.2-.4.8-.7 1.5-.7c.9 0 1.4.4 1.4 1.4v3h-.8s-.02-2.77 0-2.8zm2.1 1.8c.05.05 0-2.6 0-2.6h-.7v-.7h.7V1.6h.9v1.2h.8v.7h-.8s-.05 2.47 0 2.5c0 .3.1.5.4.5c.2 0 .3-.1.4-.2l.2.6c-.1.2-.4.3-.8.3c-.7 0-1.1-.4-1.1-1.1z" stroke="none" fill="#88898a"/></g></svg>