<?xml version="1.0" standalone="no"?><!DOCTYPE svg PUBLIC "-//W3C//DTD SVG 1.1//EN" "http://www.w3.org/Graphics/SVG/1.1/DTD/svg11.dtd"><svg xmlns="http://www.w3.org/2000/svg" version="1.1" width="77px" height="15.9px" viewBox="0 -4 77 15.9" style="top:-4px"><desc>29 4%</desc><defs/><g id="Polygon109035"><path d="m54.1 6.7c2-1.7 3.4-2.8 3.4-4c0-.9-.7-1.2-1.4-1.2c-.7 0-1.3.3-1.6.8l-.4-.4c.4-.5 1.2-.9 2-.9c.9 0 1.9.5 1.9 1.7c0 1.3-1.4 2.5-3.1 3.9c-.04.04 3.1 0 3.1 0v.5h-3.9s-.05-.41 0-.4zm5.8-.6c.3.4.7.6 1.3.6c1.3 0 1.8-1.3 1.8-2.6v-.3c-.3.4-1 1-1.8 1c-1 0-1.9-.6-1.9-1.9c0-1 .7-1.9 2-1.9c1.6 0 2.2 1.5 2.2 3.1c0 1.6-.6 3.1-2.3 3.1c-.8 0-1.2-.3-1.6-.8l.3-.3zm1.4-4.6c-1 0-1.5.8-1.5 1.4c0 1 .7 1.5 1.5 1.5c.7 0 1.3-.5 1.7-1.1c-.1-.8-.5-1.8-1.7-1.8zm3.4 4.9c.2 0 .4.2.4.4c0 .2-.2.4-.4.4c-.2 0-.4-.2-.4-.4c0-.2.2-.4.4-.4zm4.2-.9H66v-.5l2.7-3.9h.7v3.9h.8v.5h-.8v1.6h-.5V5.5zM66.5 5h2.4V1.6L66.5 5zm5.8-4c.8 0 1.4.7 1.4 1.5c0 .8-.6 1.5-1.4 1.5c-.9 0-1.4-.7-1.4-1.5c0-.8.5-1.5 1.4-1.5zm3.2.1h.5l-3.9 6h-.4l3.8-6zm-3.2.3c-.6 0-1 .5-1 1.1c0 .6.4 1.1 1 1.1c.6 0 1-.5 1-1.1c0-.6-.4-1.1-1-1.1zm3 2.9c.9 0 1.4.6 1.4 1.5c0 .8-.5 1.4-1.4 1.4c-.8 0-1.4-.6-1.4-1.4c0-.9.6-1.5 1.4-1.5zm0 .3c-.6 0-1 .5-1 1.2c0 .6.4 1.1 1 1.1c.6 0 1-.5 1-1.1c0-.7-.4-1.2-1-1.2z" stroke="none" fill="#000"/></g></svg>