<?xml version="1.0" standalone="no"?><!DOCTYPE svg PUBLIC "-//W3C//DTD SVG 1.1//EN" "http://www.w3.org/Graphics/SVG/1.1/DTD/svg11.dtd"><svg xmlns="http://www.w3.org/2000/svg" version="1.1" width="89px" height="28.4px" viewBox="0 -6 89 28.4" style="top:-6px"><desc>XXXX</desc><defs/><g id="Polygon59971"><path d="m5.2 8.3L2 12.6H.1l4.1-5.4L.4 2h1.9l2.9 4.1l3-4.1h1.9L6.3 7.2l4.1 5.4h-2L5.2 8.3zm10.4 0l-3.2 4.3h-2l4.1-5.4L10.7 2h1.9l3 4.1L18.5 2h2l-3.9 5.2l4.1 5.4h-1.9l-3.2-4.3zm10.3 0l-3.2 4.3h-1.9l4.1-5.4L21 2h2l2.9 4.1l3-4.1h1.9L27 7.2l4 5.4h-1.9l-3.2-4.3zm10.4 0l-3.2 4.3h-2l4.1-5.4L31.4 2h1.9l3 4.1L39.2 2h1.9l-3.8 5.2l4.1 5.4h-1.9l-3.2-4.3z" stroke="none" fill="#282828"/></g></svg>