<?xml version="1.0" standalone="no"?>
<!DOCTYPE svg PUBLIC "-//W3C//DTD SVG 1.1//EN" "http://www.w3.org/Graphics/SVG/1.1/DTD/svg11.dtd">
<svg xmlns="http://www.w3.org/2000/svg" version="1.1" width="583.2px" height="27.9px" viewBox="0 -6 583.2 27.9" style="top:-6px">
  <desc>12345 STREET ADDRESS, CITY, STATE ZIP</desc>
  <defs/>
  <g id="Polygon264357">
    <path d="M 289.2 4 L 287.5 5.8 L 286.6 4.9 L 289.4 2 L 290.8 2 L 290.8 12.5 L 289.2 12.5 L 289.2 4 Z M 292.8 11.3 C 296.8 8.2 298.6 6.7 298.6 5 C 298.6 3.7 297.6 3.2 296.5 3.2 C 295.3 3.2 294.3 3.7 293.7 4.5 C 293.7 4.5 292.7 3.5 292.7 3.5 C 293.6 2.4 295.1 1.8 296.5 1.8 C 298.4 1.8 300.2 2.9 300.2 5 C 300.2 7.1 298.2 8.9 295.3 11.2 C 295.34 11.15 300.3 11.2 300.3 11.2 L 300.3 12.5 L 292.8 12.5 C 292.8 12.5 292.81 11.29 292.8 11.3 Z M 302.7 10 C 303.3 10.8 304.4 11.3 305.6 11.3 C 307.1 11.3 308 10.6 308 9.5 C 308 8.3 307 7.8 305.5 7.8 C 305 7.8 304.5 7.8 304.3 7.9 C 304.3 7.9 304.3 6.4 304.3 6.4 C 304.5 6.4 305.1 6.4 305.5 6.4 C 306.8 6.4 307.8 6 307.8 4.9 C 307.8 3.8 306.8 3.2 305.5 3.2 C 304.4 3.2 303.5 3.6 302.8 4.4 C 302.8 4.4 301.9 3.4 301.9 3.4 C 302.7 2.5 304 1.8 305.7 1.8 C 307.8 1.8 309.4 2.9 309.4 4.6 C 309.4 6.1 308.1 6.9 307.1 7.1 C 308.1 7.2 309.5 8 309.5 9.7 C 309.5 11.5 308.1 12.7 305.7 12.7 C 303.8 12.7 302.5 12 301.8 11 C 301.8 11 302.7 10 302.7 10 Z M 315.9 10 L 310.8 10 L 310.8 8.7 L 315.3 2 L 317.4 2 L 317.4 8.6 L 318.9 8.6 L 318.9 10 L 317.4 10 L 317.4 12.5 L 315.9 12.5 L 315.9 10 Z M 312.4 8.6 L 315.9 8.6 L 315.9 3.4 L 312.4 8.6 Z M 321.3 10 C 322 10.8 322.9 11.3 324.2 11.3 C 325.6 11.3 326.5 10.4 326.5 9.3 C 326.5 8 325.6 7.2 324.2 7.2 C 323.3 7.2 322.5 7.5 321.8 8.1 C 321.83 8.13 320.7 7.8 320.7 7.8 L 320.7 2 L 327.4 2 L 327.4 3.4 L 322.3 3.4 C 322.3 3.4 322.27 6.73 322.3 6.7 C 322.8 6.2 323.7 5.8 324.7 5.8 C 326.5 5.8 328.1 7 328.1 9.2 C 328.1 11.4 326.4 12.7 324.2 12.7 C 322.4 12.7 321.2 12.1 320.4 11.1 C 320.4 11.1 321.3 10 321.3 10 Z M 334.4 9.8 C 335.1 10.6 336.2 11.3 337.7 11.3 C 339.4 11.3 340 10.5 340 9.7 C 340 8.6 338.8 8.3 337.5 7.9 C 335.8 7.5 333.8 7 333.8 4.8 C 333.8 3.1 335.3 1.8 337.5 1.8 C 339.2 1.8 340.5 2.3 341.4 3.3 C 341.4 3.3 340.5 4.4 340.5 4.4 C 339.7 3.6 338.6 3.2 337.4 3.2 C 336.2 3.2 335.4 3.8 335.4 4.7 C 335.4 5.7 336.6 6 337.9 6.3 C 339.6 6.7 341.6 7.3 341.6 9.5 C 341.6 11.2 340.5 12.7 337.6 12.7 C 335.7 12.7 334.4 12.1 333.5 11.1 C 333.5 11.1 334.4 9.8 334.4 9.8 Z M 345.9 3.4 L 342.6 3.4 L 342.6 2 L 350.8 2 L 350.8 3.4 L 347.5 3.4 L 347.5 12.5 L 345.9 12.5 L 345.9 3.4 Z M 356 8.5 L 354 8.5 L 354 12.5 L 352.4 12.5 L 352.4 2 C 352.4 2 356.91 1.95 356.9 2 C 358.9 2 360.3 3.3 360.3 5.2 C 360.3 7.1 359 8.1 357.7 8.3 C 357.67 8.31 360.4 12.5 360.4 12.5 L 358.5 12.5 L 356 8.5 Z M 356.7 3.4 C 356.7 3.35 354 3.4 354 3.4 L 354 7.1 C 354 7.1 356.7 7.07 356.7 7.1 C 357.8 7.1 358.7 6.3 358.7 5.2 C 358.7 4.1 357.8 3.4 356.7 3.4 Z M 362.3 2 L 369.4 2 L 369.4 3.4 L 363.9 3.4 L 363.9 6.4 L 369.3 6.4 L 369.3 7.8 L 363.9 7.8 L 363.9 11.2 L 369.4 11.2 L 369.4 12.5 L 362.3 12.5 L 362.3 2 Z M 371.4 2 L 378.5 2 L 378.5 3.4 L 373 3.4 L 373 6.4 L 378.4 6.4 L 378.4 7.8 L 373 7.8 L 373 11.2 L 378.5 11.2 L 378.5 12.5 L 371.4 12.5 L 371.4 2 Z M 383.1 3.4 L 379.8 3.4 L 379.8 2 L 387.9 2 L 387.9 3.4 L 384.6 3.4 L 384.6 12.5 L 383.1 12.5 L 383.1 3.4 Z M 400.4 10.4 L 395.2 10.4 L 394.3 12.5 L 392.6 12.5 L 396.8 2 L 398.8 2 L 403 12.5 L 401.2 12.5 L 400.4 10.4 Z M 395.6 8.9 L 399.9 8.9 L 397.8 3.3 L 395.6 8.9 Z M 404.2 2 C 404.2 2 408.02 1.95 408 2 C 411.3 2 413.5 4.2 413.5 7.3 C 413.5 10.3 411.3 12.5 408 12.5 C 408.02 12.55 404.2 12.5 404.2 12.5 L 404.2 2 Z M 408 11.2 C 410.5 11.2 411.9 9.4 411.9 7.3 C 411.9 5.1 410.5 3.4 408 3.4 C 408.02 3.35 405.8 3.4 405.8 3.4 L 405.8 11.2 C 405.8 11.2 408.02 11.15 408 11.2 Z M 415.4 2 C 415.4 2 419.22 1.95 419.2 2 C 422.5 2 424.7 4.2 424.7 7.3 C 424.7 10.3 422.5 12.5 419.2 12.5 C 419.22 12.55 415.4 12.5 415.4 12.5 L 415.4 2 Z M 419.2 11.2 C 421.7 11.2 423.1 9.4 423.1 7.3 C 423.1 5.1 421.7 3.4 419.2 3.4 C 419.22 3.35 417 3.4 417 3.4 L 417 11.2 C 417 11.2 419.22 11.15 419.2 11.2 Z M 430.2 8.5 L 428.2 8.5 L 428.2 12.5 L 426.6 12.5 L 426.6 2 C 426.6 2 431.1 1.95 431.1 2 C 433.1 2 434.5 3.3 434.5 5.2 C 434.5 7.1 433.2 8.1 431.9 8.3 C 431.86 8.31 434.6 12.5 434.6 12.5 L 432.7 12.5 L 430.2 8.5 Z M 430.9 3.4 C 430.89 3.35 428.2 3.4 428.2 3.4 L 428.2 7.1 C 428.2 7.1 430.89 7.07 430.9 7.1 C 432 7.1 432.9 6.3 432.9 5.2 C 432.9 4.1 432 3.4 430.9 3.4 Z M 436.4 2 L 443.6 2 L 443.6 3.4 L 438 3.4 L 438 6.4 L 443.5 6.4 L 443.5 7.8 L 438 7.8 L 438 11.2 L 443.6 11.2 L 443.6 12.5 L 436.4 12.5 L 436.4 2 Z M 445.8 9.8 C 446.5 10.6 447.7 11.3 449.1 11.3 C 450.9 11.3 451.5 10.5 451.5 9.7 C 451.5 8.6 450.3 8.3 448.9 7.9 C 447.2 7.5 445.2 7 445.2 4.8 C 445.2 3.1 446.8 1.8 449 1.8 C 450.6 1.8 451.9 2.3 452.8 3.3 C 452.8 3.3 451.9 4.4 451.9 4.4 C 451.1 3.6 450 3.2 448.9 3.2 C 447.7 3.2 446.9 3.8 446.9 4.7 C 446.9 5.7 448 6 449.3 6.3 C 451.1 6.7 453.1 7.3 453.1 9.5 C 453.1 11.2 451.9 12.7 449.1 12.7 C 447.2 12.7 445.8 12.1 444.9 11.1 C 444.9 11.1 445.8 9.8 445.8 9.8 Z M 455.2 9.8 C 455.9 10.6 457 11.3 458.5 11.3 C 460.2 11.3 460.8 10.5 460.8 9.7 C 460.8 8.6 459.6 8.3 458.3 7.9 C 456.6 7.5 454.6 7 454.6 4.8 C 454.6 3.1 456.1 1.8 458.4 1.8 C 460 1.8 461.3 2.3 462.2 3.3 C 462.2 3.3 461.3 4.4 461.3 4.4 C 460.5 3.6 459.4 3.2 458.2 3.2 C 457 3.2 456.2 3.8 456.2 4.7 C 456.2 5.7 457.4 6 458.7 6.3 C 460.4 6.7 462.4 7.3 462.4 9.5 C 462.4 11.2 461.3 12.7 458.4 12.7 C 456.6 12.7 455.2 12.1 454.3 11.1 C 454.3 11.1 455.2 9.8 455.2 9.8 Z M 464 14.1 C 464.5 13.7 465 13.1 465.1 12.6 C 465.1 12.6 464.9 12.6 464.9 12.6 C 464.4 12.6 464 12.2 464 11.7 C 464 11.2 464.4 10.7 465 10.7 C 465.6 10.7 466.1 11.2 466.1 12.1 C 466.1 13.1 465.5 14 464.7 14.6 C 464.7 14.6 464 14.1 464 14.1 Z M 471.7 7.3 C 471.7 4 474.1 1.8 477.2 1.8 C 479.2 1.8 480.5 2.8 481.4 4 C 481.4 4 480 4.7 480 4.7 C 479.5 3.8 478.4 3.2 477.2 3.2 C 475 3.2 473.4 4.9 473.4 7.3 C 473.4 9.6 475 11.3 477.2 11.3 C 478.4 11.3 479.5 10.7 480 9.8 C 480 9.8 481.4 10.5 481.4 10.5 C 480.5 11.7 479.2 12.7 477.2 12.7 C 474.1 12.7 471.7 10.5 471.7 7.3 Z M 483 2 L 484.5 2 L 484.5 12.5 L 483 12.5 L 483 2 Z M 489.5 3.4 L 486.2 3.4 L 486.2 2 L 494.4 2 L 494.4 3.4 L 491.1 3.4 L 491.1 12.5 L 489.5 12.5 L 489.5 3.4 Z M 499.1 8.1 L 494.9 2 L 496.7 2 L 499.9 6.7 L 502.9 2 L 504.8 2 L 500.6 8.1 L 500.6 12.5 L 499.1 12.5 L 499.1 8.1 Z M 504.3 14.1 C 504.9 13.7 505.3 13.1 505.4 12.6 C 505.4 12.6 505.3 12.6 505.2 12.6 C 504.7 12.6 504.3 12.2 504.3 11.7 C 504.3 11.2 504.8 10.7 505.3 10.7 C 505.9 10.7 506.4 11.2 506.4 12.1 C 506.4 13.1 505.8 14 505 14.6 C 505 14.6 504.3 14.1 504.3 14.1 Z M 512.7 9.8 C 513.5 10.6 514.6 11.3 516.1 11.3 C 517.8 11.3 518.4 10.5 518.4 9.7 C 518.4 8.6 517.2 8.3 515.8 7.9 C 514.1 7.5 512.2 7 512.2 4.8 C 512.2 3.1 513.7 1.8 515.9 1.8 C 517.6 1.8 518.8 2.3 519.8 3.3 C 519.8 3.3 518.9 4.4 518.9 4.4 C 518.1 3.6 516.9 3.2 515.8 3.2 C 514.6 3.2 513.8 3.8 513.8 4.7 C 513.8 5.7 515 6 516.3 6.3 C 518 6.7 520 7.3 520 9.5 C 520 11.2 518.9 12.7 516 12.7 C 514.1 12.7 512.7 12.1 511.8 11.1 C 511.8 11.1 512.7 9.8 512.7 9.8 Z M 524.3 3.4 L 521 3.4 L 521 2 L 529.2 2 L 529.2 3.4 L 525.9 3.4 L 525.9 12.5 L 524.3 12.5 L 524.3 3.4 Z M 536.5 10.4 L 531.3 10.4 L 530.4 12.5 L 528.7 12.5 L 532.9 2 L 534.9 2 L 539.1 12.5 L 537.3 12.5 L 536.5 10.4 Z M 531.8 8.9 L 536 8.9 L 533.9 3.3 L 531.8 8.9 Z M 541.9 3.4 L 538.6 3.4 L 538.6 2 L 546.8 2 L 546.8 3.4 L 543.5 3.4 L 543.5 12.5 L 541.9 12.5 L 541.9 3.4 Z M 548.4 2 L 555.5 2 L 555.5 3.4 L 550 3.4 L 550 6.4 L 555.4 6.4 L 555.4 7.8 L 550 7.8 L 550 11.2 L 555.5 11.2 L 555.5 12.5 L 548.4 12.5 L 548.4 2 Z M 561.2 11.2 L 566.9 3.4 L 561.2 3.4 L 561.2 2 L 568.9 2 L 568.9 3.3 L 563.2 11.2 L 569 11.2 L 569 12.5 L 561.2 12.5 L 561.2 11.2 Z M 570.9 2 L 572.5 2 L 572.5 12.5 L 570.9 12.5 L 570.9 2 Z M 574.9 2 C 574.9 2 579.36 1.95 579.4 2 C 581.5 2 582.7 3.4 582.7 5.2 C 582.7 7 581.5 8.5 579.4 8.5 C 579.36 8.46 576.5 8.5 576.5 8.5 L 576.5 12.5 L 574.9 12.5 L 574.9 2 Z M 579.2 3.4 C 579.15 3.35 576.5 3.4 576.5 3.4 L 576.5 7.1 C 576.5 7.1 579.15 7.07 579.2 7.1 C 580.3 7.1 581.1 6.3 581.1 5.2 C 581.1 4.1 580.3 3.4 579.2 3.4 Z " stroke="none" fill="#88898a"/>
  </g>
</svg>