<?xml version="1.0" standalone="no"?><!DOCTYPE svg PUBLIC "-//W3C//DTD SVG 1.1//EN" "http://www.w3.org/Graphics/SVG/1.1/DTD/svg11.dtd"><svg xmlns="http://www.w3.org/2000/svg" xmlns:xlink="http://www.w3.org/1999/xlink" version="1.1" width="220.1px" height="44.5px" viewBox="0 -8 220.1 44.5" style="top:-8px"><desc>LOCATION OVERvIEW</desc><defs/><g id="Polygon67708"><path d="m5.5 26.3H.8V15.1h1.9v9.5h2.8v1.7zM9.1 15h.1c1.7 0 2.8.7 2.8 2.3v6.8c0 1.7-1.1 2.3-2.8 2.3h-.1c-1.7 0-2.8-.6-2.8-2.3v-6.8c0-1.7 1.1-2.3 2.8-2.3zm.1 9.8c.6 0 1-.2 1-1v-6.2c0-.8-.4-1-1-1c-.6 0-1.1.2-1.1 1v6.2c0 .8.5 1 1.1 1zm9.8-.7c0 1.7-1.1 2.3-2.8 2.3c-1.7 0-2.8-.6-2.8-2.3v-6.8c0-1.6 1.1-2.3 2.8-2.3c1.7 0 2.8.7 2.8 2.3c.02.05 0 2.1 0 2.1h-1.8s-.03-1.76 0-1.8c0-.7-.4-1-1-1c-.6 0-1 .3-1 1v6.2c0 .8.4 1 1 1c.6 0 1-.2 1-1c-.03-.02 0-2.1 0-2.1h1.8s.02 2.37 0 2.4zm4.8-.3h-2l-.4 2.5h-1.8l2.1-11.2h2.3l2.1 11.2h-1.9l-.4-2.5zm-.2-1.5l-.8-5l-.8 5h1.6zm7.6-5.6h-1.9v9.6h-1.9v-9.6h-1.8v-1.6h5.6v1.6zm.8 9.6V15.1h1.9v11.2H32zM38.1 15h.2c1.7 0 2.8.7 2.8 2.3v6.8c0 1.7-1.1 2.3-2.8 2.3h-.2c-1.7 0-2.8-.6-2.8-2.3v-6.8c0-1.7 1.1-2.3 2.8-2.3zm.1 9.8c.6 0 1-.2 1-1v-6.2c0-.8-.4-1-1-1c-.6 0-1 .2-1 1v6.2c0 .8.4 1 1 1zm4.2 1.5V15.1h1.9l2.4 6.9v-6.9h1.7v11.2h-1.8L44.1 19v7.3h-1.7zM54.9 15h.2c1.7 0 2.8.7 2.8 2.3v6.8c0 1.7-1.1 2.3-2.8 2.3h-.2c-1.7 0-2.8-.6-2.8-2.3v-6.8c0-1.7 1.1-2.3 2.8-2.3zm.1 9.8c.6 0 1-.2 1-1v-6.2c0-.8-.4-1-1-1c-.6 0-1 .2-1 1v6.2c0 .8.4 1 1 1zm7.7 1.5h-2.1l-2.1-11.2h1.9l1.3 8.3l1.3-8.3h1.8l-2.1 11.2zm2.8 0V15.1h4.9v1.6h-3v3.1h2.6v1.6h-2.6v3.3h3.1v1.6h-5zm10.4 0l-1.5-4.5h-.9v4.5h-1.9V15.1h2.9c1.7 0 2.9.7 2.9 2.4v2c0 1-.5 1.7-1.3 2.1c.04-.04 1.6 4.7 1.6 4.7h-1.8zm-2.4-6.1s.98.05 1 0c.6 0 1-.2 1-1v-1.4c0-.8-.4-1.1-1-1.1c-.02.04-1 0-1 0v3.5zm8.6 6.1h-2L78 15.1h1.9l1.3 8.3l1.2-8.3h1.8l-2.1 11.2zm3 0V15.1h1.8v11.2h-1.8zm3.3 0V15.1h4.9v1.6h-3v3.1h2.5v1.6h-2.5v3.3h3.1v1.6h-5zm13.7 0h-1.7l-1.5-7.7l-1.4 7.7h-1.8l-1.8-11.2h1.8l1 8l1.4-8h1.7l1.4 8l.9-8h1.8l-1.8 11.2z" stroke="none" fill="#282828"/></g><g id="Polygon67707"><path d="m0 3.8l4-1.9v.6L.6 4.1L4 5.7v.6L0 4.4v-.6zm4.4 0l4-1.9v.6L5 4.1l3.4 1.6v.6l-4-1.9v-.6zm6.3-1.9H8.8v-.8h4.6v.8h-1.8v5.2h-.9V1.9zm4.5.8c1.3 0 2.1 1 2.1 2.3v.2h-3.4c0 .7.6 1.4 1.4 1.4c.5 0 1-.2 1.3-.6l.4.6c-.4.4-1 .6-1.7.6c-1.3 0-2.3-.9-2.3-2.3c0-1.2.9-2.2 2.2-2.2zm-1.3 1.9h2.6c0-.6-.4-1.3-1.3-1.3c-.9 0-1.3.7-1.3 1.3zm7.3-.3c0-.7-.4-.9-1-.9c-.5 0-.9.3-1.2.6c.04 0 0 3.1 0 3.1h-.8V2.8h.8s.04.57 0 .6c.3-.4.9-.7 1.6-.7c.9 0 1.4.4 1.4 1.4c-.02-.04 0 3 0 3h-.8s-.03-2.77 0-2.8zm4.7 2.3c-.4.4-.9.6-1.5.6c-.7 0-1.5-.5-1.5-1.4c0-1 .8-1.4 1.5-1.4c.6 0 1.1.1 1.5.5v-.7c0-.5-.5-.9-1.1-.9c-.5 0-.9.2-1.3.6l-.4-.5c.5-.5 1.1-.7 1.8-.7c1 0 1.8.4 1.8 1.5c-.03-.02 0 2.9 0 2.9h-.8s-.04-.47 0-.5zm0-1.2c-.3-.3-.7-.5-1.2-.5c-.5 0-1 .4-1 .9c0 .5.5.9 1 .9c.5 0 .9-.2 1.2-.5v-.8zm4.9-1.1c0-.7-.4-.9-.9-.9c-.5 0-1 .3-1.2.6c-.02 0 0 3.1 0 3.1h-.8V2.8h.8s-.02.57 0 .6c.3-.4.8-.7 1.5-.7c.9 0 1.4.4 1.4 1.4c.02-.04 0 3 0 3h-.8V4.3zM33 6.1c-.02.05 0-2.6 0-2.6h-.7v-.7h.7V1.6h.8v1.2h.9v.7h-.9s-.02 2.47 0 2.5c0 .3.1.5.4.5c.2 0 .4-.1.4-.2l.3.6c-.2.2-.5.3-.9.3c-.7 0-1-.4-1-1.1zm2.2-1.2c0-1.4.5-2.9 1.3-4l.5.4c-.6 1.1-.9 2.2-.9 3.6c0 1.5.3 2.5.9 3.6l-.5.4c-.8-1.1-1.3-2.5-1.3-4zm2.6 1c.3.4.8.7 1.4.7c.6 0 .9-.3.9-.7c0-.4-.4-.5-1-.7c-.7-.1-1.6-.3-1.6-1.3c0-.7.6-1.2 1.6-1.2c.8 0 1.3.2 1.7.6l-.4.5c-.2-.3-.7-.5-1.2-.5c-.6 0-.9.2-.9.6c0 .4.4.5 1 .6c.7.2 1.6.4 1.6 1.4c0 .7-.6 1.3-1.7 1.3c-.8 0-1.4-.2-1.8-.7l.4-.6zm3.6-4.6l.5-.4c.8 1.1 1.3 2.6 1.3 4c0 1.5-.5 2.9-1.3 4l-.5-.4c.6-1.1.9-2.1.9-3.6c0-1.4-.3-2.5-.9-3.6zm2.3 4.4l3.4-1.6l-3.4-1.6v-.6l4 1.9v.6l-4 1.9v-.6zm4.5 0l3.3-1.6l-3.3-1.6v-.6l3.9 1.9v.6l-3.9 1.9v-.6z" stroke="none" fill="#3797ef"/><a xlink:href="DBF_Tenant(s)" xlink:show="new" xlink:title="&lt;&lt;Tenant(s)&gt;&gt;"><rect style="fill:transparent;" x="-1" y="0" width="53" height="9"/></a></g></svg>