<?xml version="1.0" standalone="no"?><!DOCTYPE svg PUBLIC "-//W3C//DTD SVG 1.1//EN" "http://www.w3.org/Graphics/SVG/1.1/DTD/svg11.dtd"><svg xmlns="http://www.w3.org/2000/svg" version="1.1" width="237px" height="26.9px" viewBox="0 -6 237 26.9" style="top:-6px"><desc>0 79 AC</desc><defs/><g id="Polygon89174"><path d="m188.6 1.8c2.8 0 3.9 2.9 3.9 5.5c0 2.5-1.1 5.4-3.9 5.4c-2.9 0-4-2.9-4-5.4c0-2.6 1.1-5.5 4-5.5zm0 .8c-2.3 0-3 2.5-3 4.7c0 2.1.7 4.6 3 4.6c2.2 0 2.9-2.5 2.9-4.6c0-2.2-.7-4.7-2.9-4.7zm5.9 8.7c.4 0 .7.3.7.7c0 .4-.3.7-.7.7c-.4 0-.7-.3-.7-.7c0-.4.3-.7.7-.7zm7.2-8.5h-5.9v-.8h6.9v.6l-4.5 9.9h-1l4.5-9.7zm3.5 7.9c.5.7 1.2 1.2 2.4 1.2c2.3 0 3.1-2.4 3.1-4.7v-.4c-.5.7-1.7 1.7-3.1 1.7c-1.9 0-3.4-1.1-3.4-3.3c0-1.8 1.2-3.4 3.5-3.4c2.9 0 3.9 2.6 3.9 5.5c0 2.7-1.1 5.4-4 5.4c-1.4 0-2.3-.5-2.9-1.3l.5-.7zm2.5-8.1c-1.8 0-2.6 1.4-2.6 2.5c0 1.8 1.1 2.6 2.6 2.6c1.2 0 2.3-.7 2.9-1.8c-.1-1.5-.9-3.3-2.9-3.3zm16.9 7.3H219l-1.1 2.6h-1L221.2 2h1.1l4.4 10.5h-1l-1.1-2.6zm-5.4-.8h5.1l-2.5-6.3l-2.6 6.3zm8-1.8c0-3.3 2.4-5.5 5.3-5.5c1.8 0 3 .7 3.9 1.9l-.7.4c-.7-.9-1.8-1.5-3.2-1.5c-2.4 0-4.3 1.9-4.3 4.7c0 2.7 1.9 4.6 4.3 4.6c1.4 0 2.5-.6 3.2-1.5l.7.4c-.9 1.2-2.1 1.9-3.9 1.9c-2.9 0-5.3-2.2-5.3-5.4z" stroke="none" fill="#000"/></g></svg>