<?xml version="1.0" standalone="no"?><!DOCTYPE svg PUBLIC "-//W3C//DTD SVG 1.1//EN" "http://www.w3.org/Graphics/SVG/1.1/DTD/svg11.dtd"><svg xmlns="http://www.w3.org/2000/svg" version="1.1" width="155.5px" height="26.9px" viewBox="0 -6 155.5 26.9" style="top:-6px"><desc>Lorem Ipsum</desc><defs/><g id="Polygon280817"><path d="m34.9 2h.9v9.7h5.1v.8h-6V2zM42 8.7c0-2.2 1.5-4 3.7-4c2.3 0 3.7 1.8 3.7 4c0 2.2-1.4 4-3.7 4c-2.2 0-3.7-1.8-3.7-4zm6.5 0c0-1.7-1-3.3-2.8-3.3c-1.8 0-2.8 1.6-2.8 3.3c0 1.7 1 3.3 2.8 3.3c1.8 0 2.8-1.6 2.8-3.3zm3-3.8h.9s-.05 1.29 0 1.3c.6-.9 1.5-1.5 2.5-1.5v.9h-.4c-.7 0-1.8.7-2.1 1.4c-.05-.04 0 5.5 0 5.5h-.9V4.9zm8.3-.2c2.4 0 3.6 1.8 3.6 4.1c.04-.05 0 .2 0 .2c0 0-6.38-.03-6.4 0c.1 1.6 1.2 3 3 3c1 0 1.9-.3 2.5-1l.5.5c-.8.8-1.8 1.2-3 1.2c-2.3 0-3.9-1.6-3.9-4c0-2.2 1.6-4 3.7-4zM57 8.3h5.6c0-1.3-.9-2.9-2.8-2.9C58 5.4 57.1 7 57 8.3zm17.7-1.1c0-1.1-.5-1.8-1.5-1.8c-.9 0-1.8.6-2.2 1.3c-.03.03 0 5.8 0 5.8h-.9s.03-5.32 0-5.3c0-1.1-.4-1.8-1.5-1.8c-.8 0-1.7.7-2.2 1.3v5.8h-.8V4.9h.8s-.01 1.13 0 1.1c.3-.5 1.4-1.3 2.5-1.3c1.2 0 1.8.7 2 1.4c.4-.7 1.5-1.4 2.5-1.4c1.4 0 2.1.8 2.1 2.3c.03.02 0 5.5 0 5.5h-.8V7.2zM82.2 2h.9v10.5h-.9V2zm3.6 13.5V4.9h.8s-.02 1.2 0 1.2c.5-.8 1.5-1.4 2.6-1.4c2.1 0 3.5 1.5 3.5 4c0 2.5-1.4 4-3.5 4c-1 0-2-.5-2.6-1.4c-.02.01 0 4.2 0 4.2h-.8zm3.3-10.1c-1.1 0-2.1.7-2.5 1.4v3.8c.4.7 1.4 1.4 2.5 1.4c1.7 0 2.7-1.4 2.7-3.3c0-1.9-1-3.3-2.7-3.3zm5.5 5.5c.5.6 1.4 1.1 2.5 1.1c1.3 0 2.1-.6 2.1-1.5c0-1-1.1-1.3-2.2-1.5c-1.3-.4-2.7-.7-2.7-2.2c0-1.2 1-2.1 2.7-2.1c1.4 0 2.2.5 2.8 1.1l-.5.6c-.4-.6-1.2-1-2.3-1c-1.1 0-1.9.6-1.9 1.4c0 .8 1 1.1 2.1 1.3c1.3.4 2.8.7 2.8 2.4c0 1.2-1 2.2-2.9 2.2c-1.2 0-2.2-.3-3-1.2l.5-.6zm12.7.5c-.7.7-1.7 1.3-2.8 1.3c-1.6 0-2.4-.7-2.4-2.4V4.9h.8s.02 5.19 0 5.2c0 1.5.8 1.9 1.9 1.9c1 0 2-.6 2.5-1.3c-.02.02 0-5.8 0-5.8h.8v7.6h-.8s-.02-1.08 0-1.1zm12.5-4.2c0-1.1-.5-1.8-1.5-1.8c-.9 0-1.8.6-2.2 1.3c-.03.03 0 5.8 0 5.8h-.9s.03-5.32 0-5.3c0-1.1-.4-1.8-1.5-1.8c-.8 0-1.7.7-2.2 1.3v5.8h-.8V4.9h.8v1.1c.3-.5 1.4-1.3 2.5-1.3c1.2 0 1.8.7 2 1.4c.4-.7 1.5-1.4 2.5-1.4c1.4 0 2.1.8 2.1 2.3c.03.02 0 5.5 0 5.5h-.8V7.2z" stroke="none" fill="#000"/></g></svg>