<?xml version="1.0" standalone="no"?>
<!DOCTYPE svg PUBLIC "-//W3C//DTD SVG 1.1//EN" "http://www.w3.org/Graphics/SVG/1.1/DTD/svg11.dtd">
<svg xmlns="http://www.w3.org/2000/svg" version="1.1" width="155.5px" height="27.9px" viewBox="0 -6 155.5 27.9" style="top:-6px">
  <desc>Ownership</desc>
  <defs/>
  <g id="Polygon273462">
    <path d="M 45.7 1.8 C 48.8 1.8 51 4.1 51 7.3 C 51 10.4 48.8 12.7 45.7 12.7 C 42.5 12.7 40.3 10.4 40.3 7.3 C 40.3 4.1 42.5 1.8 45.7 1.8 Z M 45.7 3.2 C 43.4 3.2 42 4.9 42 7.3 C 42 9.6 43.4 11.3 45.7 11.3 C 47.9 11.3 49.4 9.6 49.4 7.3 C 49.4 4.9 47.9 3.2 45.7 3.2 Z M 57.6 6.7 L 55.8 12.5 L 54.3 12.5 L 51.9 4.9 L 53.4 4.9 L 55.1 10.7 L 57 4.9 L 58.3 4.9 L 60.2 10.7 L 61.9 4.9 L 63.4 4.9 L 61 12.5 L 59.5 12.5 L 57.6 6.7 Z M 69.9 7.6 C 69.9 6.4 69.2 6 68.2 6 C 67.4 6 66.5 6.5 66.1 7.1 C 66.13 7.07 66.1 12.5 66.1 12.5 L 64.7 12.5 L 64.7 4.9 L 66.1 4.9 C 66.1 4.9 66.13 5.95 66.1 6 C 66.6 5.3 67.7 4.7 68.8 4.7 C 70.5 4.7 71.3 5.5 71.3 7.2 C 71.31 7.16 71.3 12.5 71.3 12.5 L 69.9 12.5 C 69.9 12.5 69.88 7.64 69.9 7.6 Z M 76.9 4.7 C 79.2 4.7 80.7 6.5 80.7 8.8 C 80.68 8.83 80.7 9.2 80.7 9.2 C 80.7 9.2 74.61 9.18 74.6 9.2 C 74.7 10.5 75.7 11.6 77.2 11.6 C 78 11.6 78.9 11.2 79.5 10.7 C 79.5 10.7 80.2 11.6 80.2 11.6 C 79.4 12.3 78.3 12.7 77.1 12.7 C 74.8 12.7 73.1 11.1 73.1 8.7 C 73.1 6.5 74.7 4.7 76.9 4.7 Z M 74.6 8.1 C 74.6 8.1 79.3 8.1 79.3 8.1 C 79.2 7.1 78.6 5.9 76.9 5.9 C 75.4 5.9 74.7 7.1 74.6 8.1 Z M 82.5 4.9 L 83.9 4.9 C 83.9 4.9 83.9 6.05 83.9 6.1 C 84.5 5.3 85.4 4.7 86.4 4.7 C 86.4 4.7 86.4 6.1 86.4 6.1 C 86.3 6.1 86.1 6.1 85.9 6.1 C 85.2 6.1 84.2 6.6 83.9 7.2 C 83.9 7.21 83.9 12.5 83.9 12.5 L 82.5 12.5 L 82.5 4.9 Z M 87.9 10.5 C 88.4 11.1 89.4 11.6 90.4 11.6 C 91.5 11.6 92.1 11.2 92.1 10.5 C 92.1 9.7 91.2 9.5 90.2 9.3 C 88.9 9 87.4 8.6 87.4 7 C 87.4 5.7 88.4 4.7 90.3 4.7 C 91.6 4.7 92.6 5.2 93.2 5.8 C 93.2 5.8 92.6 6.8 92.6 6.8 C 92.2 6.2 91.3 5.8 90.3 5.8 C 89.4 5.8 88.8 6.2 88.8 6.8 C 88.8 7.5 89.6 7.7 90.5 8 C 91.9 8.3 93.5 8.6 93.5 10.4 C 93.5 11.7 92.4 12.7 90.4 12.7 C 89.1 12.7 88 12.3 87.2 11.5 C 87.2 11.5 87.9 10.5 87.9 10.5 Z M 100.5 7.6 C 100.5 6.3 99.8 6 98.8 6 C 97.9 6 97.1 6.5 96.7 7.1 C 96.7 7.07 96.7 12.5 96.7 12.5 L 95.3 12.5 L 95.3 2 L 96.7 2 C 96.7 2 96.7 5.95 96.7 6 C 97.2 5.3 98.2 4.7 99.4 4.7 C 101.1 4.7 101.9 5.5 101.9 7.1 C 101.88 7.13 101.9 12.5 101.9 12.5 L 100.5 12.5 C 100.5 12.5 100.45 7.61 100.5 7.6 Z M 103.9 2.7 C 103.9 2.2 104.4 1.8 104.9 1.8 C 105.4 1.8 105.8 2.2 105.8 2.7 C 105.8 3.2 105.4 3.6 104.9 3.6 C 104.4 3.6 103.9 3.2 103.9 2.7 Z M 104.2 4.9 L 105.6 4.9 L 105.6 12.5 L 104.2 12.5 L 104.2 4.9 Z M 107.9 15.5 L 107.9 4.9 L 109.3 4.9 C 109.3 4.9 109.3 5.97 109.3 6 C 109.9 5.2 110.8 4.7 111.8 4.7 C 113.8 4.7 115.2 6.2 115.2 8.7 C 115.2 11.2 113.8 12.7 111.8 12.7 C 110.8 12.7 109.9 12.3 109.3 11.4 C 109.3 11.44 109.3 15.5 109.3 15.5 L 107.9 15.5 Z M 111.4 6 C 110.6 6 109.7 6.5 109.3 7.1 C 109.3 7.1 109.3 10.3 109.3 10.3 C 109.7 10.9 110.6 11.5 111.4 11.5 C 112.9 11.5 113.7 10.3 113.7 8.7 C 113.7 7.1 112.9 6 111.4 6 Z " stroke="none" fill="#000"/>
  </g>
</svg>