<?xml version="1.0" standalone="no"?>
<!DOCTYPE svg PUBLIC "-//W3C//DTD SVG 1.1//EN" "http://www.w3.org/Graphics/SVG/1.1/DTD/svg11.dtd">
<svg xmlns="http://www.w3.org/2000/svg" version="1.1" width="109.3px" height="27.9px" viewBox="0 -6 109.3 27.9" style="top:-6px">
  <desc>Tenant</desc>
  <defs/>
  <g id="Polygon268830">
    <path d="M 3.8 3.4 L 0.5 3.4 L 0.5 2 L 8.6 2 L 8.6 3.4 L 5.4 3.4 L 5.4 12.5 L 3.8 12.5 L 3.8 3.4 Z M 11.9 4.7 C 14.2 4.7 15.6 6.5 15.6 8.8 C 15.6 8.83 15.6 9.2 15.6 9.2 C 15.6 9.2 9.53 9.18 9.5 9.2 C 9.6 10.5 10.6 11.6 12.1 11.6 C 12.9 11.6 13.8 11.2 14.4 10.7 C 14.4 10.7 15.1 11.6 15.1 11.6 C 14.3 12.3 13.2 12.7 12 12.7 C 9.7 12.7 8 11.1 8 8.7 C 8 6.5 9.6 4.7 11.9 4.7 Z M 9.5 8.1 C 9.5 8.1 14.2 8.1 14.2 8.1 C 14.2 7.1 13.5 5.9 11.9 5.9 C 10.3 5.9 9.6 7.1 9.5 8.1 Z M 22.6 7.6 C 22.6 6.4 21.9 6 20.9 6 C 20 6 19.2 6.5 18.8 7.1 C 18.82 7.07 18.8 12.5 18.8 12.5 L 17.4 12.5 L 17.4 4.9 L 18.8 4.9 C 18.8 4.9 18.82 5.95 18.8 6 C 19.3 5.3 20.3 4.7 21.5 4.7 C 23.2 4.7 24 5.5 24 7.2 C 24 7.16 24 12.5 24 12.5 L 22.6 12.5 C 22.6 12.5 22.57 7.64 22.6 7.6 Z M 31 11.7 C 30.4 12.4 29.5 12.7 28.5 12.7 C 27.2 12.7 25.8 11.9 25.8 10.2 C 25.8 8.4 27.2 7.7 28.5 7.7 C 29.5 7.7 30.4 8 31 8.7 C 31 8.7 31 7.4 31 7.4 C 31 6.5 30.2 5.9 29.1 5.9 C 28.3 5.9 27.5 6.2 26.8 6.9 C 26.8 6.9 26.2 5.9 26.2 5.9 C 27.1 5.1 28.1 4.7 29.4 4.7 C 31 4.7 32.4 5.4 32.4 7.4 C 32.43 7.37 32.4 12.5 32.4 12.5 L 31 12.5 C 31 12.5 31 11.71 31 11.7 Z M 31 9.6 C 30.6 9 29.8 8.7 29 8.7 C 28 8.7 27.3 9.3 27.3 10.2 C 27.3 11.1 28 11.7 29 11.7 C 29.8 11.7 30.6 11.4 31 10.9 C 31 10.9 31 9.6 31 9.6 Z M 39.9 7.6 C 39.9 6.4 39.2 6 38.3 6 C 37.4 6 36.6 6.5 36.1 7.1 C 36.15 7.07 36.1 12.5 36.1 12.5 L 34.7 12.5 L 34.7 4.9 L 36.1 4.9 C 36.1 4.9 36.15 5.95 36.1 6 C 36.7 5.3 37.7 4.7 38.9 4.7 C 40.5 4.7 41.3 5.5 41.3 7.2 C 41.32 7.16 41.3 12.5 41.3 12.5 L 39.9 12.5 C 39.9 12.5 39.9 7.64 39.9 7.6 Z M 43.9 10.8 C 43.88 10.85 43.9 6.1 43.9 6.1 L 42.6 6.1 L 42.6 4.9 L 43.9 4.9 L 43.9 2.8 L 45.3 2.8 L 45.3 4.9 L 46.9 4.9 L 46.9 6.1 L 45.3 6.1 C 45.3 6.1 45.31 10.53 45.3 10.5 C 45.3 11.1 45.6 11.5 46.1 11.5 C 46.4 11.5 46.7 11.3 46.8 11.2 C 46.8 11.2 47.2 12.2 47.2 12.2 C 46.9 12.5 46.5 12.7 45.7 12.7 C 44.5 12.7 43.9 12.1 43.9 10.8 Z " stroke="none" fill="#000"/>
  </g>
</svg>