<?xml version="1.0" standalone="no"?><!DOCTYPE svg PUBLIC "-//W3C//DTD SVG 1.1//EN" "http://www.w3.org/Graphics/SVG/1.1/DTD/svg11.dtd"><svg xmlns="http://www.w3.org/2000/svg" version="1.1" width="735.1px" height="134.5px" viewBox="0 -1 735.1 134.5" style="top:-1px"><desc>7 10 2019 - 7 09 2024,Base Term, 289,800 00, 24,150 00,-,5 50%,7 10 2024 - 7 09 2029,Base Term, 304,290 00, 25,357 50</desc><defs/><g class="svg-tables"><g class="svg-table-background"/></g><g id="Polygon98243"><path d="m606.9 115h-3.3v-.4h3.9v.3l-2.6 5.7h-.5l2.5-5.6zm1 4.9c.2 0 .4.1.4.3c0 .3-.2.4-.4.4c-.2 0-.4-.1-.4-.4c0-.2.2-.3.4-.3zm1.6-.5c.3.4.9.8 1.7.8c.9 0 1.5-.5 1.5-1.3c0-.8-.7-1.2-1.6-1.2h-.6v-.5h.6c.8 0 1.5-.3 1.5-1.1c0-.8-.7-1.2-1.4-1.2c-.7 0-1.2.3-1.6.8l-.4-.3c.4-.5 1.1-.9 2-.9c1 0 1.9.5 1.9 1.5c0 1-.8 1.4-1.3 1.5c.6 0 1.4.5 1.4 1.4c0 1-.7 1.8-2 1.8c-1 0-1.7-.5-2.1-1l.4-.3zm7.9-4.4h-3.3v-.4h3.9v.3l-2.6 5.7h-.5l2.5-5.6zm2.6-.5c.8 0 1.4.6 1.4 1.4c0 .9-.6 1.5-1.4 1.5c-.8 0-1.4-.6-1.4-1.5c0-.8.6-1.4 1.4-1.4zm3.3.1h.4l-3.9 6h-.4l3.9-6zm-3.3.2c-.6 0-1 .5-1 1.1c0 .7.4 1.2 1 1.2c.6 0 1-.5 1-1.2c0-.6-.4-1.1-1-1.1zm3 2.9c.9 0 1.5.6 1.5 1.5c0 .8-.6 1.5-1.5 1.5c-.8 0-1.4-.7-1.4-1.5c0-.9.6-1.5 1.4-1.5zm0 .4c-.6 0-1 .5-1 1.1c0 .6.4 1.1 1 1.1c.6 0 1-.5 1-1.1c0-.6-.4-1.1-1-1.1z" stroke="none" fill="#000"/></g><g id="Polygon98242"><path d="m512.1 119.3c.4.6.9.9 1.7.9c.8 0 1.5-.6 1.5-1.5c0-.9-.7-1.4-1.5-1.4c-.6 0-1 .2-1.5.6c.01-.04-.4-.2-.4-.2v-3.1h3.5v.4h-3s.04 2.37 0 2.4c.3-.3.8-.6 1.5-.6c1 0 1.9.7 1.9 1.9c0 1.2-.9 2-2 2c-1 0-1.6-.4-2.1-1l.4-.4zm5.8-4.8c.9 0 1.4.6 1.4 1.4c0 .9-.5 1.5-1.4 1.5c-.8 0-1.4-.6-1.4-1.5c0-.8.6-1.4 1.4-1.4zm3.3.1h.4l-3.8 6h-.4l3.8-6zm-3.3.2c-.6 0-1 .5-1 1.1c0 .7.4 1.2 1 1.2c.6 0 1-.5 1-1.2c0-.6-.4-1.1-1-1.1zm3.1 2.9c.8 0 1.4.6 1.4 1.5c0 .8-.6 1.5-1.4 1.5c-.8 0-1.4-.7-1.4-1.5c0-.9.6-1.5 1.4-1.5zm0 .4c-.6 0-1 .5-1 1.1c0 .6.4 1.1 1 1.1c.6 0 1-.5 1-1.1c0-.6-.4-1.1-1-1.1z" stroke="none" fill="#242423"/></g><g id="Polygon98241"><path d="m400.8 120.7c.04-.05 0 .8 0 .8h-.4s.03-.84 0-.8c-.9-.1-1.6-.5-2-1l.3-.4c.4.4 1 .8 1.7.9v-2.5c-.9-.3-1.8-.6-1.8-1.6c0-1 .8-1.6 1.8-1.6c.03-.04 0-.9 0-.9h.4s.04.87 0 .9c.8 0 1.4.3 1.8.8l-.3.4c-.4-.5-.9-.7-1.5-.8v2.3c1 .3 1.9.6 1.9 1.8c0 .7-.4 1.6-1.9 1.7zm-.4-3.6v-2.2c-.7.1-1.3.5-1.3 1.1c0 .7.6.9 1.3 1.1zm1.8 1.9c0-.7-.6-1-1.4-1.2v2.4c1.1-.1 1.4-.7 1.4-1.2zm1.6.4c.3.4.9.8 1.7.8c.9 0 1.5-.5 1.5-1.3c0-.8-.7-1.2-1.6-1.2h-.6v-.5h.6c.8 0 1.5-.3 1.5-1.1c0-.8-.7-1.2-1.5-1.2c-.6 0-1.1.3-1.6.8l-.3-.3c.4-.5 1.1-.9 2-.9c1 0 1.9.5 1.9 1.5c0 1-.8 1.4-1.3 1.5c.5 0 1.4.5 1.4 1.4c0 1-.8 1.8-2 1.8c-1 0-1.7-.5-2.1-1l.4-.3zm4.6.7c2.1-1.6 3.5-2.8 3.5-3.9c0-.9-.8-1.3-1.4-1.3c-.8 0-1.3.4-1.7.8l-.3-.3c.4-.6 1.1-.9 2-.9c.9 0 1.9.5 1.9 1.7c0 1.3-1.4 2.5-3.1 3.9h3.1v.5h-4s.05-.47 0-.5zm5.2 1.3c.3-.2.5-.5.5-.8h-.1c-.2 0-.3-.1-.3-.4c0-.2.1-.3.4-.3c.2 0 .4.2.4.5c0 .5-.3 1-.6 1.3l-.3-.3zm2-2c.3.4.9.8 1.7.8c.9 0 1.5-.5 1.5-1.3c0-.8-.7-1.2-1.6-1.2h-.6v-.5h.6c.8 0 1.5-.3 1.5-1.1c0-.8-.6-1.2-1.4-1.2c-.7 0-1.2.3-1.6.8l-.4-.3c.5-.5 1.1-.9 2-.9c1 0 1.9.5 1.9 1.5c0 1-.7 1.4-1.2 1.5c.5 0 1.3.5 1.3 1.4c0 1-.7 1.8-2 1.8c-1 0-1.7-.5-2-1l.3-.3zm7-4.9c.8 0 1.3.3 1.6.7l-.3.4c-.3-.4-.6-.7-1.3-.7c-1.3 0-1.8 1.4-1.8 2.7v.2c.3-.4 1-1 1.8-1c1.1 0 1.9.7 1.9 1.9c0 1-.7 2-2 2c-1.6 0-2.2-1.5-2.2-3.1c0-1.6.6-3.1 2.3-3.1zm-.1 2.8c-.7 0-1.3.4-1.6 1c0 .9.5 1.9 1.6 1.9c1 0 1.5-.8 1.5-1.4c0-1-.6-1.5-1.5-1.5zm3.1 2.1c.3.4.9.8 1.7.8c.9 0 1.5-.5 1.5-1.3c0-.8-.7-1.2-1.6-1.2h-.6v-.5h.6c.8 0 1.5-.3 1.5-1.1c0-.8-.7-1.2-1.4-1.2c-.7 0-1.2.3-1.7.8l-.3-.3c.4-.5 1.1-.9 2-.9c1 0 1.9.5 1.9 1.5c0 1-.8 1.4-1.3 1.5c.5 0 1.4.5 1.4 1.4c0 1-.7 1.8-2 1.8c-1 0-1.7-.5-2.1-1l.4-.3zm5.1.5c.2 0 .4.1.4.3c0 .3-.2.4-.4.4c-.2 0-.4-.1-.4-.4c0-.2.2-.3.4-.3zm1.6-.5c.3.4.9.8 1.7.8c.9 0 1.5-.5 1.5-1.3c0-.8-.7-1.2-1.6-1.2h-.6v-.5h.6c.7 0 1.5-.3 1.5-1.1c0-.8-.7-1.2-1.5-1.2c-.6 0-1.1.3-1.6.8l-.3-.3c.4-.5 1.1-.9 2-.9c1 0 1.9.5 1.9 1.5c0 1-.8 1.4-1.3 1.5c.5 0 1.4.5 1.4 1.4c0 1-.8 1.8-2 1.8c-1 0-1.7-.5-2.1-1l.4-.3zm5.7-4.1l-1 1l-.3-.4l1.3-1.3h.5v6h-.5v-5.3z" stroke="none" fill="#242423"/></g><g id="Polygon98240"><path d="m290.4 120.7c.05-.05 0 .8 0 .8h-.4s.03-.84 0-.8c-.9-.1-1.6-.5-2-1l.3-.4c.4.4 1 .8 1.7.9v-2.5c-.9-.3-1.8-.6-1.8-1.6c0-1 .8-1.6 1.8-1.6c.03-.04 0-.9 0-.9h.4s.05.87 0 .9c.8 0 1.4.3 1.8.8l-.3.4c-.4-.5-.9-.7-1.5-.8v2.3c1 .3 1.9.6 1.9 1.8c0 .7-.4 1.6-1.9 1.7zm-.4-3.6v-2.2c-.7.1-1.3.5-1.3 1.1c0 .7.6.9 1.3 1.1zm1.8 1.9c0-.7-.6-1-1.4-1.2v2.4c1.1-.1 1.4-.7 1.4-1.2zm1.6.4c.3.4.9.8 1.7.8c.9 0 1.5-.5 1.5-1.3c0-.8-.7-1.2-1.6-1.2h-.6v-.5h.6c.8 0 1.5-.3 1.5-1.1c0-.8-.7-1.2-1.5-1.2c-.6 0-1.1.3-1.6.8l-.3-.3c.4-.5 1.1-.9 2-.9c1 0 1.9.5 1.9 1.5c0 1-.8 1.4-1.3 1.5c.5 0 1.4.5 1.4 1.4c0 1-.7 1.8-2 1.8c-1 0-1.7-.5-2.1-1l.4-.3zm6.2-1.9c-.7-.2-1.4-.7-1.4-1.5c0-1.1 1-1.5 1.9-1.5c1 0 2 .4 2 1.5c0 .8-.7 1.3-1.4 1.5c.7.2 1.5.7 1.5 1.6c0 .9-.9 1.6-2.1 1.6c-1.1 0-2-.7-2-1.6c0-.9.7-1.4 1.5-1.6zm.5-2.6c-.8 0-1.4.5-1.4 1.2c0 .8 1.1 1.1 1.4 1.1c.4 0 1.4-.3 1.4-1.1c0-.7-.6-1.2-1.4-1.2zm0 2.8c-.3 0-1.5.4-1.5 1.3c0 .7.7 1.2 1.5 1.2c.8 0 1.5-.5 1.5-1.2c0-.9-1.1-1.3-1.5-1.3zm4.5-.2c-.7-.2-1.4-.7-1.4-1.5c0-1.1 1-1.5 2-1.5c.9 0 1.9.4 1.9 1.5c0 .8-.7 1.3-1.4 1.5c.8.2 1.5.7 1.5 1.6c0 .9-.9 1.6-2 1.6c-1.2 0-2.1-.7-2.1-1.6c0-.9.8-1.4 1.5-1.6zm.6-2.6c-.8 0-1.5.5-1.5 1.2c0 .8 1.1 1.1 1.5 1.1c.3 0 1.4-.3 1.4-1.1c0-.7-.6-1.2-1.4-1.2zm0 2.8c-.4 0-1.6.4-1.6 1.3c0 .7.8 1.2 1.6 1.2c.8 0 1.5-.5 1.5-1.2c0-.9-1.2-1.3-1.5-1.3zm3 3.7c.3-.2.5-.5.5-.8h-.1c-.2 0-.4-.1-.4-.4c0-.2.2-.3.4-.3c.3 0 .5.2.5.5c0 .5-.3 1-.7 1.3l-.2-.3zm2-2c.3.4.9.8 1.6.8c1 0 1.6-.5 1.6-1.3c0-.8-.8-1.2-1.7-1.2h-.5v-.5h.5c.8 0 1.6-.3 1.6-1.1c0-.8-.7-1.2-1.5-1.2c-.7 0-1.1.3-1.6.8l-.3-.3c.4-.5 1.1-.9 2-.9c1 0 1.9.5 1.9 1.5c0 1-.8 1.4-1.3 1.5c.5 0 1.4.5 1.4 1.4c0 1-.8 1.8-2 1.8c-1 0-1.7-.5-2.1-1l.4-.3zm5.1-.1c.4.6.9.9 1.7.9c.9 0 1.5-.6 1.5-1.5c0-.9-.6-1.4-1.5-1.4c-.5 0-1 .2-1.4.6c-.03-.04-.4-.2-.4-.2v-3.1h3.5v.4h-3v2.4c.3-.3.8-.6 1.4-.6c1 0 1.9.7 1.9 1.9c0 1.2-.9 2-2 2c-1 0-1.6-.4-2-1l.3-.4zm5.3.2c.3.4.7.7 1.3.7c1.3 0 1.8-1.4 1.8-2.7v-.2c-.3.4-1 1-1.8 1c-1.1 0-1.9-.7-1.9-1.9c0-1 .7-1.9 2-1.9c1.6 0 2.2 1.4 2.2 3.1c0 1.5-.6 3.1-2.3 3.1c-.8 0-1.2-.4-1.6-.8l.3-.4zm1.4-4.6c-1 0-1.5.8-1.5 1.5c0 .9.7 1.4 1.5 1.4c.7 0 1.3-.4 1.7-1c-.1-.8-.5-1.9-1.7-1.9zm3.3 5c.2 0 .4.1.4.3c0 .3-.2.4-.4.4c-.2 0-.4-.1-.4-.4c0-.2.2-.3.4-.3zm4-4.9h-3.4v-.4h4v.3l-2.6 5.7h-.6l2.6-5.6zm1.3 5.1c2-1.6 3.4-2.8 3.4-3.9c0-.9-.7-1.3-1.4-1.3c-.7 0-1.3.4-1.6.8l-.4-.3c.4-.6 1.2-.9 2-.9c.9 0 1.9.5 1.9 1.7c0 1.3-1.4 2.5-3.1 3.9h3.1v.5h-3.9s-.03-.47 0-.5z" stroke="none" fill="#242423"/></g><g id="Polygon98239"><path d="m182.7 118.9h-2.9v-.4l2.7-3.9h.7v3.8h.9v.5h-.9v1.7h-.5v-1.7zm-2.3-.5h2.3v-3.3l-2.3 3.3zm4.7 1.3c.02.02 0-3.1 0-3.1h-.7v-.4h.7V115h.5v1.2h.9v.4h-.9v3c0 .4.1.6.4.6c.2 0 .4-.1.5-.2l.2.4c-.2.2-.4.3-.7.3c-.6 0-.9-.4-.9-1zm5.2-2.1c0-.8-.4-1.1-1-1.1c-.6 0-1.1.4-1.4.8c-.02-.03 0 3.3 0 3.3h-.5v-6h.5s-.02 2.26 0 2.3c.3-.4.9-.8 1.5-.8c.9 0 1.4.4 1.4 1.4v3.1h-.5s.04-3.01 0-3zm6.8-3.1c1.8 0 2.9 1.3 2.9 3.1c0 1.7-1.1 3.1-2.9 3.1c-1.7 0-2.9-1.4-2.9-3.1c0-1.8 1.2-3.1 2.9-3.1zm0 .4c-1.4 0-2.3 1.1-2.3 2.7c0 1.5.9 2.6 2.3 2.6c1.5 0 2.4-1.1 2.4-2.6c0-1.6-.9-2.7-2.4-2.7zm4.1 7.3v-6h.5s-.03.7 0 .7c.3-.4.8-.8 1.5-.8c1.1 0 1.9.9 1.9 2.3c0 1.4-.8 2.3-1.9 2.3c-.6 0-1.2-.4-1.5-.8c-.03-.05 0 2.3 0 2.3h-.5zm1.9-5.7c-.6 0-1.2.4-1.4.8v2.1c.2.5.8.8 1.4.8c1 0 1.5-.8 1.5-1.8c0-1.1-.5-1.9-1.5-1.9zm3.2 3.2c.04.02 0-3.1 0-3.1h-.7v-.4h.7V115h.5v1.2h.9v.4h-.9v3c0 .4.2.6.5.6c.2 0 .4-.1.4-.2l.2.4c-.1.2-.3.3-.7.3c-.6 0-.9-.4-.9-1zm2.2-4.6c0-.2.2-.3.4-.3c.2 0 .3.1.3.3c0 .2-.1.4-.3.4c-.2 0-.4-.2-.4-.4zm.1 1.1h.5v4.4h-.5v-4.4zm1.6 2.2c0-1.3.8-2.3 2.1-2.3c1.3 0 2.1 1 2.1 2.3c0 1.2-.8 2.3-2.1 2.3c-1.3 0-2.1-1.1-2.1-2.3zm3.7 0c0-1-.6-1.9-1.6-1.9c-1 0-1.6.9-1.6 1.9c0 .9.6 1.8 1.6 1.8c1 0 1.6-.9 1.6-1.8zm4.6-.8c0-.8-.5-1.1-1.1-1.1c-.6 0-1.1.4-1.4.8c-.02-.03 0 3.3 0 3.3h-.5v-4.4h.5s-.02.66 0 .7c.3-.4.9-.8 1.6-.8c.8 0 1.3.4 1.3 1.4c.02.01 0 3.1 0 3.1h-.4s-.05-2.98 0-3z" stroke="none" fill="#242423"/></g><g id="Polygon98238"><path d="m3.6 115H.3v-.4h3.9v.3l-2.5 5.7h-.6l2.5-5.6zm3-.6h.4l-2.2 6.3h-.4l2.2-6.3zm1.8.9l-1 1l-.3-.4l1.3-1.3h.5v6h-.5v-5.3zm3.9-.8c1.6 0 2.2 1.6 2.2 3.1c0 1.4-.6 3.1-2.2 3.1c-1.6 0-2.2-1.7-2.2-3.1c0-1.5.6-3.1 2.2-3.1zm0 .4c-1.3 0-1.7 1.4-1.7 2.7c0 1.2.4 2.6 1.7 2.6c1.3 0 1.7-1.4 1.7-2.6c0-1.3-.4-2.7-1.7-2.7zm4.8-.5h.4l-2.2 6.3h-.4l2.2-6.3zm.8 5.7c2-1.6 3.4-2.8 3.4-3.9c0-.9-.7-1.3-1.4-1.3c-.7 0-1.3.4-1.6.8l-.4-.3c.5-.6 1.2-.9 2-.9c.9 0 1.9.5 1.9 1.7c0 1.3-1.4 2.5-3.1 3.9h3.2v.5h-4v-.5zm7.4-5.6c1.6 0 2.2 1.6 2.2 3.1c0 1.4-.6 3.1-2.2 3.1c-1.6 0-2.2-1.7-2.2-3.1c0-1.5.6-3.1 2.2-3.1zm0 .4c-1.3 0-1.7 1.4-1.7 2.7c0 1.2.4 2.6 1.7 2.6c1.2 0 1.6-1.4 1.6-2.6c0-1.3-.4-2.7-1.6-2.7zm5.8 4h-2.9v-.4l2.7-3.9h.7v3.8h.9v.5h-.9v1.7h-.5v-1.7zm-2.3-.5h2.3v-3.3l-2.3 3.3zm5 1.1c.3.4.7.7 1.3.7c1.3 0 1.8-1.4 1.8-2.7v-.2c-.3.4-.9 1-1.8 1c-1 0-1.9-.7-1.9-1.9c0-1 .7-1.9 2-1.9c1.6 0 2.2 1.4 2.2 3.1c0 1.5-.6 3.1-2.3 3.1c-.7 0-1.2-.4-1.6-.8l.3-.4zm1.4-4.6c-1 0-1.5.8-1.5 1.5c0 .9.7 1.4 1.5 1.4c.7 0 1.3-.4 1.7-1c-.1-.8-.5-1.9-1.7-1.9zm5.2 3.3h2.1v.4h-2.1v-.4zm8.2-3.2h-3.3v-.4h3.9v.3l-2.6 5.7h-.5l2.5-5.6zm2.9-.6h.4l-2.1 6.3h-.4l2.1-6.3zm3.1.1c1.6 0 2.2 1.6 2.2 3.1c0 1.4-.6 3.1-2.2 3.1c-1.6 0-2.2-1.7-2.2-3.1c0-1.5.6-3.1 2.2-3.1zm0 .4c-1.3 0-1.7 1.4-1.7 2.7c0 1.2.4 2.6 1.7 2.6c1.2 0 1.6-1.4 1.6-2.6c0-1.3-.4-2.7-1.6-2.7zm3.7 4.6c.3.4.7.7 1.4.7c1.3 0 1.7-1.4 1.7-2.7v-.2c-.2.4-.9 1-1.7 1c-1.1 0-2-.7-2-1.9c0-1 .8-1.9 2-1.9c1.7 0 2.2 1.4 2.2 3.1c0 1.5-.6 3.1-2.2 3.1c-.8 0-1.3-.4-1.7-.8l.3-.4zm1.5-4.6c-1.1 0-1.6.8-1.6 1.5c0 .9.7 1.4 1.5 1.4c.7 0 1.3-.4 1.7-1c-.1-.8-.5-1.9-1.6-1.9zm4.7-.5h.4l-2.1 6.3h-.4l2.1-6.3zm.8 5.7c2.1-1.6 3.4-2.8 3.4-3.9c0-.9-.7-1.3-1.3-1.3c-.8 0-1.3.4-1.7.8l-.3-.3c.4-.6 1.1-.9 2-.9c.9 0 1.9.5 1.9 1.7c0 1.3-1.4 2.5-3.2 3.9h3.2v.5h-4s.03-.47 0-.5zm7.4-5.6c1.6 0 2.2 1.6 2.2 3.1c0 1.4-.6 3.1-2.2 3.1c-1.6 0-2.2-1.7-2.2-3.1c0-1.5.6-3.1 2.2-3.1zm0 .4c-1.3 0-1.7 1.4-1.7 2.7c0 1.2.4 2.6 1.7 2.6c1.3 0 1.7-1.4 1.7-2.6c0-1.3-.4-2.7-1.7-2.7zm3.7 4.4c.4.6.9.9 1.6.9c.9 0 1.6-.6 1.6-1.5c0-.9-.7-1.4-1.5-1.4c-.6 0-1.1.2-1.5.6c0-.04-.4-.2-.4-.2v-3.1h3.5v.4h-3s.02 2.37 0 2.4c.3-.3.8-.6 1.5-.6c1 0 1.9.7 1.9 1.9c0 1.2-1 2-2.1 2c-1 0-1.6-.4-2-1l.4-.4zm7.3-.4h-2.9v-.4l2.7-3.9h.7v3.8h.9v.5h-.9v1.7h-.5v-1.7zm-2.3-.5h2.3v-3.3l-2.3 3.3z" stroke="none" fill="#242423"/></g><g id="Polygon98237"><path d="m606.9 97h-3.3v-.4h3.9v.3l-2.6 5.7h-.5l2.5-5.6zm1 4.9c.2 0 .4.1.4.3c0 .3-.2.4-.4.4c-.2 0-.4-.1-.4-.4c0-.2.2-.3.4-.3zm3.7-5.4c1.6 0 2.2 1.6 2.2 3.1c0 1.4-.6 3.1-2.2 3.1c-1.6 0-2.2-1.7-2.2-3.1c0-1.5.6-3.1 2.2-3.1zm0 .4c-1.3 0-1.7 1.4-1.7 2.7c0 1.2.4 2.6 1.7 2.6c1.3 0 1.7-1.4 1.7-2.6c0-1.3-.4-2.7-1.7-2.7zm3.2 5.2c2.1-1.6 3.4-2.8 3.4-3.9c0-.9-.7-1.3-1.3-1.3c-.8 0-1.3.4-1.7.8l-.3-.3c.4-.6 1.1-.9 2-.9c.9 0 1.9.5 1.9 1.7c0 1.3-1.4 2.5-3.2 3.9h3.2v.5h-4s.03-.47 0-.5zm6.5-5.6c.8 0 1.4.6 1.4 1.4c0 .9-.6 1.5-1.4 1.5c-.9 0-1.4-.6-1.4-1.5c0-.8.5-1.4 1.4-1.4zm3.3.1h.4l-3.9 6h-.4l3.9-6zm-3.3.2c-.6 0-1 .5-1 1.1c0 .7.4 1.2 1 1.2c.6 0 1-.5 1-1.2c0-.6-.4-1.1-1-1.1zm3 2.9c.9 0 1.4.6 1.4 1.5c0 .8-.5 1.5-1.4 1.5c-.8 0-1.4-.7-1.4-1.5c0-.9.6-1.5 1.4-1.5zm0 .4c-.6 0-1 .5-1 1.1c0 .6.4 1.1 1 1.1c.6 0 1-.5 1-1.1c0-.6-.4-1.1-1-1.1z" stroke="none" fill="#000"/></g><g id="Polygon98236"><path d="m512.1 101.3c.4.6.9.9 1.7.9c.8 0 1.5-.6 1.5-1.5c0-.9-.7-1.4-1.5-1.4c-.6 0-1 .2-1.5.6c.01-.04-.4-.2-.4-.2v-3.1h3.5v.4h-3s.04 2.37 0 2.4c.3-.3.8-.6 1.5-.6c1 0 1.9.7 1.9 1.9c0 1.2-.9 2-2 2c-1 0-1.6-.4-2.1-1l.4-.4zm5.8-4.8c.9 0 1.4.6 1.4 1.4c0 .9-.5 1.5-1.4 1.5c-.8 0-1.4-.6-1.4-1.5c0-.8.6-1.4 1.4-1.4zm3.3.1h.4l-3.8 6h-.4l3.8-6zm-3.3.2c-.6 0-1 .5-1 1.1c0 .7.4 1.2 1 1.2c.6 0 1-.5 1-1.2c0-.6-.4-1.1-1-1.1zm3.1 2.9c.8 0 1.4.6 1.4 1.5c0 .8-.6 1.5-1.4 1.5c-.8 0-1.4-.7-1.4-1.5c0-.9.6-1.5 1.4-1.5zm0 .4c-.6 0-1 .5-1 1.1c0 .6.4 1.1 1 1.1c.6 0 1-.5 1-1.1c0-.6-.4-1.1-1-1.1z" stroke="none" fill="#242423"/></g><g id="Polygon98235"><path d="m400.8 102.7c.04-.05 0 .8 0 .8h-.4s.03-.84 0-.8c-.9-.1-1.6-.5-2-1l.3-.4c.4.4 1 .8 1.7.9v-2.5c-.9-.3-1.8-.6-1.8-1.6c0-1 .8-1.6 1.8-1.6c.03-.04 0-.9 0-.9h.4s.04.87 0 .9c.8 0 1.4.3 1.8.8l-.3.4c-.4-.5-.9-.7-1.5-.8v2.3c1 .3 1.9.6 1.9 1.8c0 .7-.4 1.6-1.9 1.7zm-.4-3.6v-2.2c-.7.1-1.3.5-1.3 1.1c0 .7.6.9 1.3 1.1zm1.8 1.9c0-.7-.6-1-1.4-1.2v2.4c1.1-.1 1.4-.7 1.4-1.2zm1.6.4c.3.4.9.8 1.7.8c.9 0 1.5-.5 1.5-1.3c0-.8-.7-1.2-1.6-1.2h-.6v-.5h.6c.8 0 1.5-.3 1.5-1.1c0-.8-.7-1.2-1.5-1.2c-.6 0-1.1.3-1.6.8l-.3-.3c.4-.5 1.1-.9 2-.9c1 0 1.9.5 1.9 1.5c0 1-.8 1.4-1.3 1.5c.5 0 1.4.5 1.4 1.4c0 1-.8 1.8-2 1.8c-1 0-1.7-.5-2.1-1l.4-.3zm6.9-4.9c1.6 0 2.2 1.6 2.2 3.1c0 1.4-.6 3.1-2.2 3.1c-1.6 0-2.2-1.7-2.2-3.1c0-1.5.6-3.1 2.2-3.1zm0 .4c-1.3 0-1.7 1.4-1.7 2.7c0 1.2.4 2.6 1.7 2.6c1.2 0 1.7-1.4 1.7-2.6c0-1.3-.4-2.7-1.7-2.7zm2.8 6.5c.3-.2.5-.5.5-.8c-.3 0-.4-.1-.4-.4c0-.2.2-.3.4-.3c.2 0 .4.2.4.5c0 .5-.3 1-.6 1.3l-.3-.3zm3.4-3.9c-.7-.2-1.4-.7-1.4-1.5c0-1.1 1-1.5 2-1.5c.9 0 1.9.4 1.9 1.5c0 .8-.7 1.3-1.4 1.5c.8.2 1.5.7 1.5 1.6c0 .9-.9 1.6-2 1.6c-1.2 0-2.1-.7-2.1-1.6c0-.9.7-1.4 1.5-1.6zm.6-2.6c-.8 0-1.5.5-1.5 1.2c0 .8 1.1 1.1 1.5 1.1c.3 0 1.4-.3 1.4-1.1c0-.7-.7-1.2-1.4-1.2zm0 2.8c-.4 0-1.6.4-1.6 1.3c0 .7.8 1.2 1.6 1.2c.7 0 1.5-.5 1.5-1.2c0-.9-1.2-1.3-1.5-1.3zm2.9 2.4c2.1-1.6 3.4-2.8 3.4-3.9c0-.9-.7-1.3-1.3-1.3c-.8 0-1.3.4-1.7.8l-.3-.3c.4-.6 1.1-.9 2-.9c.9 0 1.9.5 1.9 1.7c0 1.3-1.4 2.5-3.2 3.9h3.2v.5h-4s.04-.47 0-.5zm5.2 0c2-1.6 3.4-2.8 3.4-3.9c0-.9-.7-1.3-1.4-1.3c-.7 0-1.3.4-1.6.8l-.4-.3c.5-.6 1.2-.9 2-.9c.9 0 1.9.5 1.9 1.7c0 1.3-1.4 2.5-3.1 3.9h3.1v.5h-3.9v-.5zm5.6-.2c.2 0 .4.1.4.3c0 .3-.2.4-.4.4c-.2 0-.4-.1-.4-.4c0-.2.2-.3.4-.3zm1.4.2c2.1-1.6 3.4-2.8 3.4-3.9c0-.9-.7-1.3-1.3-1.3c-.8 0-1.4.4-1.7.8l-.3-.3c.4-.6 1.1-.9 2-.9c.8 0 1.8.5 1.8 1.7c0 1.3-1.3 2.5-3.1 3.9h3.2v.5h-4v-.5zm7.4-5.6c1.6 0 2.2 1.6 2.2 3.1c0 1.4-.6 3.1-2.2 3.1c-1.6 0-2.2-1.7-2.2-3.1c0-1.5.6-3.1 2.2-3.1zm0 .4c-1.3 0-1.7 1.4-1.7 2.7c0 1.2.4 2.6 1.7 2.6c1.3 0 1.7-1.4 1.7-2.6c0-1.3-.4-2.7-1.7-2.7z" stroke="none" fill="#242423"/></g><g id="Polygon98234"><path d="m290.4 102.7c.05-.05 0 .8 0 .8h-.4s.03-.84 0-.8c-.9-.1-1.6-.5-2-1l.3-.4c.4.4 1 .8 1.7.9v-2.5c-.9-.3-1.8-.6-1.8-1.6c0-1 .8-1.6 1.8-1.6c.03-.04 0-.9 0-.9h.4s.05.87 0 .9c.8 0 1.4.3 1.8.8l-.3.4c-.4-.5-.9-.7-1.5-.8v2.3c1 .3 1.9.6 1.9 1.8c0 .7-.4 1.6-1.9 1.7zm-.4-3.6v-2.2c-.7.1-1.3.5-1.3 1.1c0 .7.6.9 1.3 1.1zm1.8 1.9c0-.7-.6-1-1.4-1.2v2.4c1.1-.1 1.4-.7 1.4-1.2zm1.6.4c.3.4.9.8 1.7.8c.9 0 1.5-.5 1.5-1.3c0-.8-.7-1.2-1.6-1.2h-.6v-.5h.6c.8 0 1.5-.3 1.5-1.1c0-.8-.7-1.2-1.5-1.2c-.6 0-1.1.3-1.6.8l-.3-.3c.4-.5 1.1-.9 2-.9c1 0 1.9.5 1.9 1.5c0 1-.8 1.4-1.3 1.5c.5 0 1.4.5 1.4 1.4c0 1-.7 1.8-2 1.8c-1 0-1.7-.5-2.1-1l.4-.3zm7-4.9c.7 0 1.2.3 1.6.7l-.3.4c-.3-.4-.7-.7-1.3-.7c-1.3 0-1.8 1.4-1.8 2.7v.2c.3-.4.9-1 1.8-1c1 0 1.9.7 1.9 1.9c0 1-.7 2-2 2c-1.6 0-2.2-1.5-2.2-3.1c0-1.6.6-3.1 2.3-3.1zm-.1 2.8c-.7 0-1.3.4-1.7 1c.1.9.5 1.9 1.7 1.9c1 0 1.5-.8 1.5-1.4c0-1-.7-1.5-1.5-1.5zm3.5 2.2c.3.4.7.7 1.4.7c1.3 0 1.7-1.4 1.7-2.7v-.2c-.2.4-.9 1-1.7 1c-1.1 0-2-.7-2-1.9c0-1 .8-1.9 2-1.9c1.7 0 2.2 1.4 2.2 3.1c0 1.5-.6 3.1-2.2 3.1c-.8 0-1.3-.4-1.7-.8l.3-.4zm1.5-4.6c-1.1 0-1.6.8-1.6 1.5c0 .9.7 1.4 1.6 1.4c.6 0 1.2-.4 1.6-1c-.1-.8-.5-1.9-1.6-1.9zm2.8 6.5c.3-.2.5-.5.5-.8h-.1c-.2 0-.4-.1-.4-.4c0-.2.2-.3.4-.3c.3 0 .5.2.5.5c0 .5-.3 1-.7 1.3l-.2-.3zm3.4-3.9c-.8-.2-1.4-.7-1.4-1.5c0-1.1 1-1.5 1.9-1.5c.9 0 2 .4 2 1.5c0 .8-.7 1.3-1.4 1.5c.7.2 1.4.7 1.4 1.6c0 .9-.8 1.6-2 1.6c-1.2 0-2-.7-2-1.6c0-.9.7-1.4 1.5-1.6zm.5-2.6c-.8 0-1.4.5-1.4 1.2c0 .8 1 1.1 1.4 1.1c.4 0 1.4-.3 1.4-1.1c0-.7-.6-1.2-1.4-1.2zm0 2.8c-.4 0-1.5.4-1.5 1.3c0 .7.7 1.2 1.5 1.2c.8 0 1.5-.5 1.5-1.2c0-.9-1.1-1.3-1.5-1.3zm5.3-3.2c.8 0 1.3.3 1.6.7l-.3.4c-.3-.4-.6-.7-1.3-.7c-1.3 0-1.8 1.4-1.8 2.7v.2c.3-.4 1-1 1.8-1c1.1 0 1.9.7 1.9 1.9c0 1-.7 2-2 2c-1.6 0-2.2-1.5-2.2-3.1c0-1.6.6-3.1 2.3-3.1zm-.1 2.8c-.7 0-1.3.4-1.6 1c0 .9.5 1.9 1.6 1.9c1 0 1.5-.8 1.5-1.4c0-1-.6-1.5-1.5-1.5zm5.3-2.8c.8 0 1.2.3 1.6.7l-.3.4c-.3-.4-.7-.7-1.3-.7c-1.3 0-1.8 1.4-1.8 2.7v.2c.3-.4.9-1 1.8-1c1 0 1.9.7 1.9 1.9c0 1-.7 2-2 2c-1.6 0-2.2-1.5-2.2-3.1c0-1.6.6-3.1 2.3-3.1zm-.1 2.8c-.7 0-1.3.4-1.7 1c.1.9.5 1.9 1.7 1.9c1 0 1.5-.8 1.5-1.4c0-1-.7-1.5-1.5-1.5zm3.4 2.6c.2 0 .4.1.4.3c0 .3-.2.4-.4.4c-.2 0-.4-.1-.4-.4c0-.2.2-.3.4-.3zm4.1-1H327v-.4l2.7-3.9h.7v3.8h.9v.5h-.9v1.7h-.5v-1.7zm-2.4-.5h2.4v-3.3l-2.4 3.3zm6.7-3.9c1.6 0 2.2 1.6 2.2 3.1c0 1.4-.6 3.1-2.2 3.1c-1.6 0-2.2-1.7-2.2-3.1c0-1.5.6-3.1 2.2-3.1zm0 .4c-1.2 0-1.7 1.4-1.7 2.7c0 1.2.5 2.6 1.7 2.6c1.3 0 1.7-1.4 1.7-2.6c0-1.3-.4-2.7-1.7-2.7z" stroke="none" fill="#242423"/></g><g id="Polygon98233"><path d="m180.2 101.4c.3.4.9.8 1.6.8c1 0 1.6-.5 1.6-1.3c0-.8-.8-1.2-1.7-1.2h-.5v-.5h.5c.8 0 1.6-.3 1.6-1.1c0-.8-.7-1.2-1.5-1.2c-.7 0-1.1.3-1.6.8l-.3-.3c.4-.5 1.1-.9 1.9-.9c1.1 0 2 .5 2 1.5c0 1-.8 1.4-1.3 1.5c.5 0 1.4.5 1.4 1.4c0 1-.8 1.8-2.1 1.8c-.9 0-1.7-.5-2-1l.4-.3zm4.9-3.2h.4s.02.75 0 .8c.4-.5.9-.9 1.5-.9v.5h-.2c-.5 0-1.1.4-1.3.8c.02-.01 0 3.2 0 3.2h-.4v-4.4zm5.9 3.7c-.3.4-.8.8-1.5.8c-1.1 0-1.9-.9-1.9-2.3c0-1.4.8-2.3 1.9-2.3c.6 0 1.2.3 1.5.8c.02.01 0-2.3 0-2.3h.5v6h-.5s.02-.74 0-.7zm0-2.6c-.2-.4-.8-.8-1.4-.8c-1 0-1.5.8-1.5 1.9c0 1 .5 1.8 1.5 1.8c.6 0 1.2-.3 1.4-.7v-2.2zm6.8-2.8c1.8 0 2.9 1.3 2.9 3.1c0 1.7-1.1 3.1-2.9 3.1c-1.8 0-2.9-1.4-2.9-3.1c0-1.8 1.1-3.1 2.9-3.1zm0 .4c-1.4 0-2.4 1.1-2.4 2.7c0 1.5 1 2.6 2.4 2.6c1.5 0 2.4-1.1 2.4-2.6c0-1.6-.9-2.7-2.4-2.7zm4.1 7.3v-6h.5s-.04.7 0 .7c.3-.4.8-.8 1.5-.8c1.1 0 1.9.9 1.9 2.3c0 1.4-.8 2.3-1.9 2.3c-.6 0-1.2-.4-1.5-.8c-.04-.05 0 2.3 0 2.3h-.5zm1.9-5.7c-.6 0-1.2.4-1.4.8v2.1c.2.5.8.8 1.4.8c1 0 1.5-.8 1.5-1.8c0-1.1-.5-1.9-1.5-1.9zm3.2 3.2c.02.02 0-3.1 0-3.1h-.7v-.4h.7V97h.5v1.2h.9v.4h-.9v3c0 .4.1.6.4.6c.3 0 .4-.1.5-.2l.2.4c-.2.2-.4.3-.7.3c-.6 0-.9-.4-.9-1zm2.2-4.6c0-.2.2-.3.4-.3c.1 0 .3.1.3.3c0 .2-.2.4-.3.4c-.2 0-.4-.2-.4-.4zm.1 1.1h.5v4.4h-.5v-4.4zm1.6 2.2c0-1.3.8-2.3 2.1-2.3c1.3 0 2.1 1 2.1 2.3c0 1.2-.8 2.3-2.1 2.3c-1.3 0-2.1-1.1-2.1-2.3zm3.7 0c0-1-.6-1.9-1.6-1.9c-1 0-1.6.9-1.6 1.9c0 .9.6 1.8 1.6 1.8c1 0 1.6-.9 1.6-1.8zm4.5-.8c0-.8-.4-1.1-1-1.1c-.6 0-1.2.4-1.4.8c-.03-.03 0 3.3 0 3.3h-.5v-4.4h.5s-.03.66 0 .7c.3-.4.9-.8 1.5-.8c.9 0 1.4.4 1.4 1.4v3.1h-.5s.04-2.98 0-3z" stroke="none" fill="#242423"/></g><g id="Polygon98232"><path d="m3.6 97H.3v-.4h3.9v.3l-2.5 5.7h-.6L3.6 97zm3-.6h.4l-2.2 6.3h-.4l2.2-6.3zm1.8.9l-1 1l-.3-.4l1.3-1.3h.5v6h-.5v-5.3zm3.9-.8c1.6 0 2.2 1.6 2.2 3.1c0 1.4-.6 3.1-2.2 3.1c-1.6 0-2.2-1.7-2.2-3.1c0-1.5.6-3.1 2.2-3.1zm0 .4c-1.3 0-1.7 1.4-1.7 2.7c0 1.2.4 2.6 1.7 2.6c1.3 0 1.7-1.4 1.7-2.6c0-1.3-.4-2.7-1.7-2.7zm4.8-.5h.4l-2.2 6.3h-.4l2.2-6.3zm.8 5.7c2-1.6 3.4-2.8 3.4-3.9c0-.9-.7-1.3-1.4-1.3c-.7 0-1.3.4-1.6.8l-.4-.3c.5-.6 1.2-.9 2-.9c.9 0 1.9.5 1.9 1.7c0 1.3-1.4 2.5-3.1 3.9h3.2v.5h-4v-.5zm7.4-5.6c1.6 0 2.2 1.6 2.2 3.1c0 1.4-.6 3.1-2.2 3.1c-1.6 0-2.2-1.7-2.2-3.1c0-1.5.6-3.1 2.2-3.1zm0 .4c-1.3 0-1.7 1.4-1.7 2.7c0 1.2.4 2.6 1.7 2.6c1.2 0 1.6-1.4 1.6-2.6c0-1.3-.4-2.7-1.6-2.7zm5.8 4h-2.9v-.4l2.7-3.9h.7v3.8h.9v.5h-.9v1.7h-.5v-1.7zm-2.3-.5h2.3v-3.3l-2.3 3.3zm7.1.5H33v-.4l2.7-3.9h.7v3.8h.8v.5h-.8v1.7h-.5v-1.7zm-2.4-.5h2.4v-3.3l-2.4 3.3zm6.5-.2h2.1v.4H40v-.4zm8.2-3.2h-3.3v-.4h3.9v.3l-2.6 5.7h-.5l2.5-5.6zm2.9-.6h.4l-2.1 6.3h-.4l2.1-6.3zm3.1.1c1.6 0 2.2 1.6 2.2 3.1c0 1.4-.6 3.1-2.2 3.1c-1.6 0-2.2-1.7-2.2-3.1c0-1.5.6-3.1 2.2-3.1zm0 .4c-1.3 0-1.7 1.4-1.7 2.7c0 1.2.4 2.6 1.7 2.6c1.2 0 1.7-1.4 1.7-2.6c0-1.3-.5-2.7-1.7-2.7zm3.7 4.6c.3.4.7.7 1.4.7c1.3 0 1.7-1.4 1.7-2.7v-.2c-.2.4-.9 1-1.7 1c-1.1 0-2-.7-2-1.9c0-1 .8-1.9 2.1-1.9c1.6 0 2.2 1.4 2.2 3.1c0 1.5-.7 3.1-2.3 3.1c-.8 0-1.3-.4-1.7-.8l.3-.4zm1.5-4.6c-1.1 0-1.5.8-1.5 1.5c0 .9.6 1.4 1.5 1.4c.6 0 1.3-.4 1.6-1c-.1-.8-.5-1.9-1.6-1.9zm4.7-.5h.4l-2.1 6.3h-.4l2.1-6.3zm.8 5.7c2.1-1.6 3.5-2.8 3.5-3.9c0-.9-.8-1.3-1.4-1.3c-.8 0-1.3.4-1.7.8l-.3-.3c.4-.6 1.1-.9 2-.9c.9 0 1.9.5 1.9 1.7c0 1.3-1.4 2.5-3.2 3.9h3.2v.5h-4s.04-.47 0-.5zm7.4-5.6c1.6 0 2.2 1.6 2.2 3.1c0 1.4-.6 3.1-2.2 3.1c-1.6 0-2.2-1.7-2.2-3.1c0-1.5.6-3.1 2.2-3.1zm0 .4c-1.2 0-1.7 1.4-1.7 2.7c0 1.2.5 2.6 1.7 2.6c1.3 0 1.7-1.4 1.7-2.6c0-1.3-.4-2.7-1.7-2.7zm5.8 4h-2.8v-.4l2.6-3.9h.7v3.8h.9v.5h-.9v1.7h-.5v-1.7zm-2.3-.5h2.3v-3.3l-2.3 3.3zm5.1 1.1c.3.4.6.7 1.3.7c1.3 0 1.8-1.4 1.8-2.7v-.2c-.3.4-1 1-1.8 1c-1.1 0-1.9-.7-1.9-1.9c0-1 .7-1.9 2-1.9c1.6 0 2.2 1.4 2.2 3.1c0 1.5-.7 3.1-2.3 3.1c-.8 0-1.3-.4-1.6-.8l.3-.4zm1.4-4.6c-1 0-1.5.8-1.5 1.5c0 .9.6 1.4 1.5 1.4c.6 0 1.3-.4 1.6-1c0-.8-.5-1.9-1.6-1.9z" stroke="none" fill="#242423"/></g><g id="Polygon98231"><path d="m606.1 78.5c.8 0 1.2.3 1.6.7l-.3.4c-.3-.4-.7-.7-1.3-.7c-1.3 0-1.8 1.4-1.8 2.7v.2c.3-.4 1-1 1.8-1c1 0 1.9.7 1.9 1.9c0 1-.7 2-2 2c-1.6 0-2.2-1.5-2.2-3.1c0-1.6.6-3.1 2.3-3.1zm-.1 2.8c-.7 0-1.3.4-1.7 1c.1.9.5 1.9 1.7 1.9c1 0 1.5-.8 1.5-1.4c0-1-.7-1.5-1.5-1.5zm3.5 2.6c.2 0 .4.1.4.3c0 .3-.2.4-.4.4c-.2 0-.4-.1-.4-.4c0-.2.2-.3.4-.3zm3.8-5.4c.8 0 1.3.3 1.6.7l-.3.4c-.3-.4-.6-.7-1.3-.7c-1.3 0-1.8 1.4-1.8 2.7v.2c.3-.4 1-1 1.8-1c1.1 0 1.9.7 1.9 1.9c0 1-.7 2-2 2c-1.6 0-2.2-1.5-2.2-3.1c0-1.6.6-3.1 2.3-3.1zm-.1 2.8c-.7 0-1.3.4-1.6 1c0 .9.5 1.9 1.6 1.9c1 0 1.5-.8 1.5-1.4c0-1-.6-1.5-1.5-1.5zm3.7 2.2c.3.4.6.7 1.3.7c1.3 0 1.8-1.4 1.8-2.7v-.2c-.3.4-1 1-1.8 1c-1.1 0-1.9-.7-1.9-1.9c0-1 .7-1.9 2-1.9c1.6 0 2.2 1.4 2.2 3.1c0 1.5-.7 3.1-2.3 3.1c-.8 0-1.3-.4-1.6-.8l.3-.4zm1.4-4.6c-1 0-1.5.8-1.5 1.5c0 .9.6 1.4 1.5 1.4c.6 0 1.3-.4 1.6-1c-.1-.8-.5-1.9-1.6-1.9zm4.4-.4c.8 0 1.4.6 1.4 1.4c0 .9-.6 1.5-1.4 1.5c-.8 0-1.4-.6-1.4-1.5c0-.8.6-1.4 1.4-1.4zm3.3.1h.4l-3.8 6h-.5l3.9-6zm-3.3.2c-.6 0-1 .5-1 1.1c0 .7.4 1.2 1 1.2c.6 0 1-.5 1-1.2c0-.6-.4-1.1-1-1.1zm3.1 2.9c.8 0 1.4.6 1.4 1.5c0 .8-.6 1.5-1.4 1.5c-.9 0-1.4-.7-1.4-1.5c0-.9.5-1.5 1.4-1.5zm0 .4c-.6 0-1 .5-1 1.1c0 .6.4 1.1 1 1.1c.6 0 1-.5 1-1.1c0-.6-.4-1.1-1-1.1z" stroke="none" fill="#000"/></g><g id="Polygon98230"><path d="m512.1 83.3c.4.6.9.9 1.7.9c.8 0 1.5-.6 1.5-1.5c0-.9-.7-1.4-1.5-1.4c-.6 0-1 .2-1.5.6c.01-.04-.4-.2-.4-.2v-3.1h3.5v.4h-3s.04 2.37 0 2.4c.3-.3.8-.6 1.5-.6c1 0 1.9.7 1.9 1.9c0 1.2-.9 2-2 2c-1 0-1.6-.4-2.1-1l.4-.4zm5.8-4.8c.9 0 1.4.6 1.4 1.4c0 .9-.5 1.5-1.4 1.5c-.8 0-1.4-.6-1.4-1.5c0-.8.6-1.4 1.4-1.4zm3.3.1h.4l-3.8 6h-.4l3.8-6zm-3.3.2c-.6 0-1 .5-1 1.1c0 .7.4 1.2 1 1.2c.6 0 1-.5 1-1.2c0-.6-.4-1.1-1-1.1zm3.1 2.9c.8 0 1.4.6 1.4 1.5c0 .8-.6 1.5-1.4 1.5c-.8 0-1.4-.7-1.4-1.5c0-.9.6-1.5 1.4-1.5zm0 .4c-.6 0-1 .5-1 1.1c0 .6.4 1.1 1 1.1c.6 0 1-.5 1-1.1c0-.6-.4-1.1-1-1.1z" stroke="none" fill="#242423"/></g><g id="Polygon98229"><path d="m400.8 84.7c.04-.05 0 .8 0 .8h-.4s.03-.84 0-.8c-.9-.1-1.6-.5-2-1l.3-.4c.4.4 1 .8 1.7.9v-2.5c-.9-.3-1.8-.6-1.8-1.6c0-1 .8-1.6 1.8-1.6c.03-.04 0-.9 0-.9h.4s.04.87 0 .9c.8 0 1.4.3 1.8.8l-.3.4c-.4-.5-.9-.7-1.5-.8v2.3c1 .3 1.9.6 1.9 1.8c0 .7-.4 1.6-1.9 1.7zm-.4-3.6v-2.2c-.7.1-1.3.5-1.3 1.1c0 .7.6.9 1.3 1.1zm1.8 1.9c0-.7-.6-1-1.4-1.2v2.4c1.1-.1 1.4-.7 1.4-1.2zm1.4 1.1c2.1-1.6 3.5-2.8 3.5-3.9c0-.9-.8-1.3-1.4-1.3c-.8 0-1.3.4-1.7.8l-.3-.3c.4-.6 1.1-.9 2-.9c.9 0 1.9.5 1.9 1.7c0 1.3-1.4 2.5-3.2 3.9h3.2v.5h-4s.04-.47 0-.5zm5.8-.6c.3.4.7.7 1.3.7c1.3 0 1.8-1.4 1.8-2.7v-.2c-.3.4-1 1-1.8 1c-1 0-1.9-.7-1.9-1.9c0-1 .7-1.9 2-1.9c1.6 0 2.2 1.4 2.2 3.1c0 1.5-.6 3.1-2.3 3.1c-.8 0-1.2-.4-1.6-.8l.3-.4zm1.4-4.6c-1 0-1.5.8-1.5 1.5c0 .9.7 1.4 1.5 1.4c.7 0 1.3-.4 1.7-1c-.1-.8-.5-1.9-1.7-1.9zm2.9 6.5c.2-.2.5-.5.5-.8h-.1c-.2 0-.4-.1-.4-.4c0-.2.2-.3.4-.3c.2 0 .5.2.5.5c0 .5-.3 1-.7 1.3l-.2-.3zm1.9-2c.4.4 1 .8 1.7.8c1 0 1.5-.5 1.5-1.3c0-.8-.7-1.2-1.6-1.2h-.5v-.5h.5c.8 0 1.6-.3 1.6-1.1c0-.8-.7-1.2-1.5-1.2c-.7 0-1.2.3-1.6.8l-.3-.3c.4-.5 1.1-.9 1.9-.9c1.1 0 2 .5 2 1.5c0 1-.8 1.4-1.3 1.5c.5 0 1.4.5 1.4 1.4c0 1-.8 1.8-2.1 1.8c-.9 0-1.7-.5-2-1l.3-.3zm5.2-.1c.4.6.9.9 1.7.9c.9 0 1.5-.6 1.5-1.5c0-.9-.6-1.4-1.5-1.4c-.5 0-1 .2-1.4.6c-.04-.04-.4-.2-.4-.2v-3.1h3.4v.4h-2.9s-.02 2.37 0 2.4c.3-.3.8-.6 1.4-.6c1 0 1.9.7 1.9 1.9c0 1.2-.9 2-2 2c-1 0-1.6-.4-2-1l.3-.4zm7.3-.4h-2.8v-.4l2.6-3.9h.7v3.8h.9v.5h-.9v1.7h-.5v-1.7zm-2.3-.5h2.3v-3.3l-2.3 3.3zm4.9 1.5c.2 0 .4.1.4.3c0 .3-.2.4-.4.4c-.2 0-.4-.1-.4-.4c0-.2.2-.3.4-.3zm4.1-1h-2.9v-.4l2.7-3.9h.7v3.8h.9v.5h-.9v1.7h-.5v-1.7zm-2.3-.5h2.3v-3.3l-2.3 3.3zm5.9-.9c-.7-.2-1.4-.7-1.4-1.5c0-1.1 1-1.5 2-1.5c.9 0 1.9.4 1.9 1.5c0 .8-.7 1.3-1.4 1.5c.8.2 1.5.7 1.5 1.6c0 .9-.9 1.6-2 1.6c-1.2 0-2.1-.7-2.1-1.6c0-.9.8-1.4 1.5-1.6zm.6-2.6c-.8 0-1.4.5-1.4 1.2c0 .8 1 1.1 1.4 1.1c.3 0 1.4-.3 1.4-1.1c0-.7-.6-1.2-1.4-1.2zm0 2.8c-.4 0-1.5.4-1.5 1.3c0 .7.7 1.2 1.5 1.2c.8 0 1.5-.5 1.5-1.2c0-.9-1.2-1.3-1.5-1.3z" stroke="none" fill="#242423"/></g><g id="Polygon98228"><path d="m290.4 84.7c.05-.05 0 .8 0 .8h-.4s.03-.84 0-.8c-.9-.1-1.6-.5-2-1l.3-.4c.4.4 1 .8 1.7.9v-2.5c-.9-.3-1.8-.6-1.8-1.6c0-1 .8-1.6 1.8-1.6c.03-.04 0-.9 0-.9h.4s.05.87 0 .9c.8 0 1.4.3 1.8.8l-.3.4c-.4-.5-.9-.7-1.5-.8v2.3c1 .3 1.9.6 1.9 1.8c0 .7-.4 1.6-1.9 1.7zm-.4-3.6v-2.2c-.7.1-1.3.5-1.3 1.1c0 .7.6.9 1.3 1.1zm1.8 1.9c0-.7-.6-1-1.4-1.2v2.4c1.1-.1 1.4-.7 1.4-1.2zm1.6.4c.3.4.9.8 1.7.8c.9 0 1.5-.5 1.5-1.3c0-.8-.7-1.2-1.6-1.2h-.6v-.5h.6c.8 0 1.5-.3 1.5-1.1c0-.8-.7-1.2-1.5-1.2c-.6 0-1.1.3-1.6.8l-.3-.3c.4-.5 1.1-.9 2-.9c1 0 1.9.5 1.9 1.5c0 1-.8 1.4-1.3 1.5c.5 0 1.4.5 1.4 1.4c0 1-.7 1.8-2 1.8c-1 0-1.7-.5-2.1-1l.4-.3zm5.2-.1c.3.6.9.9 1.6.9c.9 0 1.5-.6 1.5-1.5c0-.9-.6-1.4-1.5-1.4c-.5 0-1 .2-1.4.6c-.01-.04-.4-.2-.4-.2v-3.1h3.5v.4h-3v2.4c.3-.3.8-.6 1.4-.6c1.1 0 2 .7 2 1.9c0 1.2-1 2-2.1 2c-1 0-1.6-.4-2-1l.4-.4zm4.6.8c2-1.6 3.4-2.8 3.4-3.9c0-.9-.7-1.3-1.4-1.3c-.7 0-1.3.4-1.6.8l-.4-.3c.5-.6 1.2-.9 2-.9c.9 0 1.9.5 1.9 1.7c0 1.3-1.4 2.5-3.1 3.9h3.2v.5h-4v-.5zm5.2 1.3c.3-.2.5-.5.5-.8h-.1c-.2 0-.4-.1-.4-.4c0-.2.2-.3.4-.3c.3 0 .5.2.5.5c0 .5-.3 1-.7 1.3l-.2-.3zm1.8-1.3c2.1-1.6 3.4-2.8 3.4-3.9c0-.9-.7-1.3-1.3-1.3c-.8 0-1.4.4-1.7.8l-.3-.3c.4-.6 1.1-.9 2-.9c.9 0 1.9.5 1.9 1.7c0 1.3-1.4 2.5-3.2 3.9h3.2v.5h-4s.03-.47 0-.5zm5.7-.8c.4.6.9.9 1.7.9c.8 0 1.5-.6 1.5-1.5c0-.9-.7-1.4-1.5-1.4c-.6 0-1 .2-1.5.6c.01-.04-.4-.2-.4-.2v-3.1h3.5v.4h-3s.04 2.37 0 2.4c.3-.3.8-.6 1.5-.6c1 0 1.9.7 1.9 1.9c0 1.2-.9 2-2 2c-1 0-1.6-.4-2.1-1l.4-.4zm4.8.1c.3.4.9.8 1.6.8c1 0 1.6-.5 1.6-1.3c0-.8-.8-1.2-1.7-1.2h-.5v-.5h.5c.8 0 1.6-.3 1.6-1.1c0-.8-.7-1.2-1.5-1.2c-.7 0-1.1.3-1.6.8l-.3-.3c.4-.5 1.1-.9 2-.9c1 0 1.9.5 1.9 1.5c0 1-.8 1.4-1.3 1.5c.5 0 1.4.5 1.4 1.4c0 1-.8 1.8-2 1.8c-1 0-1.7-.5-2.1-1l.4-.3zm5.1.5c.2 0 .4.1.4.3c0 .3-.2.4-.4.4c-.2 0-.4-.1-.4-.4c0-.2.2-.3.4-.3zm4-4.9h-3.4v-.4h4v.3l-2.6 5.7h-.6l2.6-5.6zm2.3.3l-1 1l-.3-.4l1.3-1.3h.5v6h-.5v-5.3z" stroke="none" fill="#242423"/></g><g id="Polygon98227"><path d="m180 84.1c2.1-1.6 3.4-2.8 3.4-3.9c0-.9-.7-1.3-1.3-1.3c-.8 0-1.4.4-1.7.8l-.3-.3c.4-.6 1.1-.9 2-.9c.8 0 1.9.5 1.9 1.7c0 1.3-1.4 2.5-3.2 3.9h3.2v.5h-4s.02-.47 0-.5zm8.3-2.5c0-.8-.4-1.1-1-1.1c-.6 0-1.2.4-1.4.8c-.04-.03 0 3.3 0 3.3h-.5v-4.4h.5s-.04.66 0 .7c.3-.4.9-.8 1.5-.8c.9 0 1.4.4 1.4 1.4v3.1h-.5s.03-2.98 0-3zm5.1 2.3c-.3.4-.9.8-1.5.8c-1.2 0-2-.9-2-2.3c0-1.4.8-2.3 2-2.3c.6 0 1.1.3 1.5.8c-.03.01 0-2.3 0-2.3h.4v6h-.4s-.03-.74 0-.7zm0-2.6c-.3-.4-.9-.8-1.5-.8c-.9 0-1.5.8-1.5 1.9c0 1 .6 1.8 1.5 1.8c.6 0 1.2-.3 1.5-.7v-2.2zm6.8-2.8c1.7 0 2.9 1.3 2.9 3.1c0 1.7-1.2 3.1-2.9 3.1c-1.8 0-3-1.4-3-3.1c0-1.8 1.2-3.1 3-3.1zm0 .4c-1.5 0-2.4 1.1-2.4 2.7c0 1.5.9 2.6 2.4 2.6c1.4 0 2.3-1.1 2.3-2.6c0-1.6-.9-2.7-2.3-2.7zm4 7.3v-6h.5v.7c.3-.4.9-.8 1.5-.8c1.2 0 2 .9 2 2.3c0 1.4-.8 2.3-2 2.3c-.6 0-1.1-.4-1.5-.8v2.3h-.5zm1.9-5.7c-.6 0-1.1.4-1.4.8v2.1c.3.5.8.8 1.4.8c1 0 1.6-.8 1.6-1.8c0-1.1-.6-1.9-1.6-1.9zm3.3 3.2c-.03.02 0-3.1 0-3.1h-.7v-.4h.7V79h.4v1.2h.9v.4h-.9s.05 3.05 0 3c0 .4.2.6.5.6c.2 0 .4-.1.5-.2l.2.4c-.2.2-.4.3-.8.3c-.6 0-.8-.4-.8-1zm2.1-4.6c0-.2.2-.3.4-.3c.2 0 .4.1.4.3c0 .2-.2.4-.4.4c-.2 0-.4-.2-.4-.4zm.2 1.1h.4v4.4h-.4v-4.4zm1.5 2.2c0-1.3.9-2.3 2.1-2.3c1.3 0 2.1 1 2.1 2.3c0 1.2-.8 2.3-2.1 2.3c-1.2 0-2.1-1.1-2.1-2.3zm3.7 0c0-1-.5-1.9-1.6-1.9c-1 0-1.5.9-1.5 1.9c0 .9.5 1.8 1.5 1.8c1.1 0 1.6-.9 1.6-1.8zm4.6-.8c0-.8-.4-1.1-1.1-1.1c-.5 0-1.1.4-1.4.8c.02-.03 0 3.3 0 3.3h-.4v-4.4h.4s.02.66 0 .7c.3-.4 1-.8 1.6-.8c.9 0 1.4.4 1.4 1.4c-.05.01 0 3.1 0 3.1h-.5s-.02-2.98 0-3z" stroke="none" fill="#242423"/></g><g id="Polygon98226"><path d="m3.6 79H.3v-.4h3.9v.3l-2.5 5.7h-.6L3.6 79zm3-.6h.4l-2.2 6.3h-.4l2.2-6.3zm1.8.9l-1 1l-.3-.4l1.3-1.3h.5v6h-.5v-5.3zm3.9-.8c1.6 0 2.2 1.6 2.2 3.1c0 1.4-.6 3.1-2.2 3.1c-1.6 0-2.2-1.7-2.2-3.1c0-1.5.6-3.1 2.2-3.1zm0 .4c-1.3 0-1.7 1.4-1.7 2.7c0 1.2.4 2.6 1.7 2.6c1.3 0 1.7-1.4 1.7-2.6c0-1.3-.4-2.7-1.7-2.7zm4.8-.5h.4l-2.2 6.3h-.4l2.2-6.3zm.8 5.7c2-1.6 3.4-2.8 3.4-3.9c0-.9-.7-1.3-1.4-1.3c-.7 0-1.3.4-1.6.8l-.4-.3c.5-.6 1.2-.9 2-.9c.9 0 1.9.5 1.9 1.7c0 1.3-1.4 2.5-3.1 3.9h3.2v.5h-4v-.5zm7.4-5.6c1.6 0 2.2 1.6 2.2 3.1c0 1.4-.6 3.1-2.2 3.1c-1.6 0-2.2-1.7-2.2-3.1c0-1.5.6-3.1 2.2-3.1zm0 .4c-1.3 0-1.7 1.4-1.7 2.7c0 1.2.4 2.6 1.7 2.6c1.2 0 1.6-1.4 1.6-2.6c0-1.3-.4-2.7-1.6-2.7zm3.3 4.5c.3.4.9.8 1.6.8c1 0 1.6-.5 1.6-1.3c0-.8-.8-1.2-1.7-1.2h-.5v-.5h.5c.8 0 1.6-.3 1.6-1.1c0-.8-.7-1.2-1.5-1.2c-.7 0-1.1.3-1.6.8l-.3-.3c.4-.5 1.1-.9 1.9-.9c1.1 0 2 .5 2 1.5c0 1-.8 1.4-1.3 1.5c.5 0 1.4.5 1.4 1.4c0 1-.8 1.8-2.1 1.8c-.9 0-1.7-.5-2-1l.4-.3zm5.2.1c.3.4.7.7 1.4.7c1.3 0 1.7-1.4 1.7-2.7v-.2c-.2.4-.9 1-1.7 1c-1.1 0-2-.7-2-1.9c0-1 .8-1.9 2.1-1.9c1.6 0 2.2 1.4 2.2 3.1c0 1.5-.7 3.1-2.3 3.1c-.8 0-1.3-.4-1.7-.8l.3-.4zm1.5-4.6c-1.1 0-1.5.8-1.5 1.5c0 .9.6 1.4 1.5 1.4c.6 0 1.3-.4 1.6-1c-.1-.8-.5-1.9-1.6-1.9zm5.1 3.3h2.2v.4h-2.2v-.4zm8.2-3.2h-3.3v-.4h3.9v.3l-2.6 5.7h-.5l2.5-5.6zm2.9-.6h.4l-2.1 6.3h-.4l2.1-6.3zm3.1.1c1.6 0 2.2 1.6 2.2 3.1c0 1.4-.6 3.1-2.2 3.1c-1.6 0-2.2-1.7-2.2-3.1c0-1.5.6-3.1 2.2-3.1zm0 .4c-1.3 0-1.7 1.4-1.7 2.7c0 1.2.4 2.6 1.7 2.6c1.3 0 1.7-1.4 1.7-2.6c0-1.3-.4-2.7-1.7-2.7zm3.8 4.6c.3.4.6.7 1.3.7c1.3 0 1.8-1.4 1.8-2.7v-.2c-.3.4-1 1-1.8 1c-1.1 0-1.9-.7-1.9-1.9c0-1 .7-1.9 2-1.9c1.6 0 2.2 1.4 2.2 3.1c0 1.5-.7 3.1-2.3 3.1c-.8 0-1.3-.4-1.6-.8l.3-.4zm1.4-4.6c-1 0-1.5.8-1.5 1.5c0 .9.6 1.4 1.5 1.4c.6 0 1.3-.4 1.6-1c-.1-.8-.5-1.9-1.6-1.9zm4.7-.5h.4l-2.1 6.3h-.4l2.1-6.3zm.9 5.7c2-1.6 3.4-2.8 3.4-3.9c0-.9-.7-1.3-1.4-1.3c-.7 0-1.3.4-1.6.8l-.4-.3c.4-.6 1.2-.9 2-.9c.9 0 1.9.5 1.9 1.7c0 1.3-1.4 2.5-3.1 3.9h3.1v.5h-3.9s-.04-.47 0-.5zm7.3-5.6c1.6 0 2.3 1.6 2.3 3.1c0 1.4-.7 3.1-2.3 3.1c-1.6 0-2.2-1.7-2.2-3.1c0-1.5.6-3.1 2.2-3.1zm0 .4c-1.2 0-1.6 1.4-1.6 2.7c0 1.2.4 2.6 1.6 2.6c1.3 0 1.7-1.4 1.7-2.6c0-1.3-.4-2.7-1.7-2.7zm5.8 4h-2.8v-.4l2.7-3.9h.7v3.8h.8v.5h-.8v1.7h-.6v-1.7zm-2.3-.5h2.3v-3.3l-2.3 3.3zm7.1.5h-2.8v-.4l2.6-3.9h.7v3.8h.9v.5h-.9v1.7h-.5v-1.7zm-2.3-.5h2.3v-3.3L81 82.4z" stroke="none" fill="#242423"/></g><g id="Polygon98225"><path d="m606.1 60.5c.8 0 1.2.3 1.6.7l-.3.4c-.3-.4-.7-.7-1.3-.7c-1.3 0-1.8 1.4-1.8 2.7v.2c.3-.4 1-1 1.8-1c1 0 1.9.7 1.9 1.9c0 1-.7 2-2 2c-1.6 0-2.2-1.5-2.2-3.1c0-1.6.6-3.1 2.3-3.1zm-.1 2.8c-.7 0-1.3.4-1.7 1c.1.9.5 1.9 1.7 1.9c1 0 1.5-.8 1.5-1.4c0-1-.7-1.5-1.5-1.5zm3.5 2.6c.2 0 .4.1.4.3c0 .3-.2.4-.4.4c-.2 0-.4-.1-.4-.4c0-.2.2-.3.4-.3zm1.6-.5c.4.4.9.8 1.7.8c.9 0 1.5-.5 1.5-1.3c0-.8-.7-1.2-1.6-1.2h-.5v-.5h.5c.8 0 1.5-.3 1.5-1.1c0-.8-.6-1.2-1.4-1.2c-.7 0-1.2.3-1.6.8l-.3-.3c.4-.5 1-.9 1.9-.9c1.1 0 2 .5 2 1.5c0 1-.8 1.4-1.3 1.5c.5 0 1.3.5 1.3 1.4c0 1-.7 1.8-2 1.8c-1 0-1.7-.5-2-1l.3-.3zM619 61h-3.3v-.4h3.9v.3l-2.6 5.7h-.5L619 61zm2.6-.5c.8 0 1.4.6 1.4 1.4c0 .9-.6 1.5-1.4 1.5c-.8 0-1.4-.6-1.4-1.5c0-.8.6-1.4 1.4-1.4zm3.3.1h.4l-3.8 6h-.4l3.8-6zm-3.3.2c-.6 0-1 .5-1 1.1c0 .7.4 1.2 1 1.2c.6 0 1-.5 1-1.2c0-.6-.4-1.1-1-1.1zm3.1 2.9c.8 0 1.4.6 1.4 1.5c0 .8-.6 1.5-1.4 1.5c-.9 0-1.4-.7-1.4-1.5c0-.9.5-1.5 1.4-1.5zm0 .4c-.6 0-1 .5-1 1.1c0 .6.4 1.1 1 1.1c.6 0 1-.5 1-1.1c0-.6-.4-1.1-1-1.1z" stroke="none" fill="#000"/></g><g id="Polygon98224"><path d="m512.1 65.3c.4.6.9.9 1.7.9c.8 0 1.5-.6 1.5-1.5c0-.9-.7-1.4-1.5-1.4c-.6 0-1 .2-1.5.6c.01-.04-.4-.2-.4-.2v-3.1h3.5v.4h-3s.04 2.37 0 2.4c.3-.3.8-.6 1.5-.6c1 0 1.9.7 1.9 1.9c0 1.2-.9 2-2 2c-1 0-1.6-.4-2.1-1l.4-.4zm5.8-4.8c.9 0 1.4.6 1.4 1.4c0 .9-.5 1.5-1.4 1.5c-.8 0-1.4-.6-1.4-1.5c0-.8.6-1.4 1.4-1.4zm3.3.1h.4l-3.8 6h-.4l3.8-6zm-3.3.2c-.6 0-1 .5-1 1.1c0 .7.4 1.2 1 1.2c.6 0 1-.5 1-1.2c0-.6-.4-1.1-1-1.1zm3.1 2.9c.8 0 1.4.6 1.4 1.5c0 .8-.6 1.5-1.4 1.5c-.8 0-1.4-.7-1.4-1.5c0-.9.6-1.5 1.4-1.5zm0 .4c-.6 0-1 .5-1 1.1c0 .6.4 1.1 1 1.1c.6 0 1-.5 1-1.1c0-.6-.4-1.1-1-1.1z" stroke="none" fill="#242423"/></g><g id="Polygon98223"><path d="m400.8 66.7c.04-.05 0 .8 0 .8h-.4s.03-.84 0-.8c-.9-.1-1.6-.5-2-1l.3-.4c.4.4 1 .8 1.7.9v-2.5c-.9-.3-1.8-.6-1.8-1.6c0-1 .8-1.6 1.8-1.6c.03-.04 0-.9 0-.9h.4s.04.87 0 .9c.8 0 1.4.3 1.8.8l-.3.4c-.4-.5-.9-.7-1.5-.8v2.3c1 .3 1.9.6 1.9 1.8c0 .7-.4 1.6-1.9 1.7zm-.4-3.6v-2.2c-.7.1-1.3.5-1.3 1.1c0 .7.6.9 1.3 1.1zm1.8 1.9c0-.7-.6-1-1.4-1.2v2.4c1.1-.1 1.4-.7 1.4-1.2zm1.4 1.1c2.1-1.6 3.5-2.8 3.5-3.9c0-.9-.8-1.3-1.4-1.3c-.8 0-1.3.4-1.7.8l-.3-.3c.4-.6 1.1-.9 2-.9c.9 0 1.9.5 1.9 1.7c0 1.3-1.4 2.5-3.2 3.9h3.2v.5h-4s.04-.47 0-.5zm8.3-5.1h-3.3v-.4h3.9v.3l-2.5 5.7h-.6l2.5-5.6zm.4 6.4c.3-.2.6-.5.6-.8h-.1c-.2 0-.4-.1-.4-.4c0-.2.2-.3.4-.3c.2 0 .5.2.5.5c0 .5-.3 1-.7 1.3l-.3-.3zm2.5-1.9c.3.4.7.7 1.3.7c1.4 0 1.8-1.4 1.8-2.7v-.2c-.2.4-.9 1-1.7 1c-1.1 0-2-.7-2-1.9c0-1 .7-1.9 2-1.9c1.7 0 2.2 1.4 2.2 3.1c0 1.5-.6 3.1-2.3 3.1c-.7 0-1.2-.4-1.6-.8l.3-.4zm1.5-4.6c-1.1 0-1.6.8-1.6 1.5c0 .9.7 1.4 1.5 1.4c.7 0 1.3-.4 1.7-1c-.1-.8-.5-1.9-1.6-1.9zm3.6 4.4c.4.6.9.9 1.7.9c.8 0 1.5-.6 1.5-1.5c0-.9-.7-1.4-1.5-1.4c-.6 0-1 .2-1.5.6c.01-.04-.4-.2-.4-.2v-3.1h3.5v.4h-3s.04 2.37 0 2.4c.3-.3.8-.6 1.5-.6c1 0 1.9.7 1.9 1.9c0 1.2-.9 2-2 2c-1 0-1.6-.4-2.1-1l.4-.4zm6.9-4.8c.8 0 1.3.3 1.7.7l-.4.4c-.2-.4-.6-.7-1.3-.7c-1.3 0-1.7 1.4-1.7 2.7v.2c.2-.4.9-1 1.7-1c1.1 0 2 .7 2 1.9c0 1-.8 2-2.1 2c-1.6 0-2.2-1.5-2.2-3.1c0-1.6.7-3.1 2.3-3.1zm-.1 2.8c-.6 0-1.3.4-1.6 1c.1.9.5 1.9 1.6 1.9c1.1 0 1.5-.8 1.5-1.4c0-1-.6-1.5-1.5-1.5zm3.5 2.6c.2 0 .4.1.4.3c0 .3-.2.4-.4.4c-.3 0-.4-.1-.4-.4c0-.2.1-.3.4-.3zm3.7-5.4c.8 0 1.2.3 1.6.7l-.3.4c-.3-.4-.7-.7-1.3-.7c-1.3 0-1.8 1.4-1.8 2.7v.2c.3-.4 1-1 1.8-1c1.1 0 1.9.7 1.9 1.9c0 1-.7 2-2 2c-1.6 0-2.2-1.5-2.2-3.1c0-1.6.6-3.1 2.3-3.1zm-.1 2.8c-.7 0-1.3.4-1.7 1c.1.9.5 1.9 1.7 1.9c1 0 1.5-.8 1.5-1.4c0-1-.7-1.5-1.5-1.5zm5.6 1.6h-2.9v-.4l2.7-3.9h.7v3.8h.9v.5h-.9v1.7h-.5v-1.7zm-2.3-.5h2.3v-3.3l-2.3 3.3z" stroke="none" fill="#242423"/></g><g id="Polygon98222"><path d="m290.4 66.7c.05-.05 0 .8 0 .8h-.4s.03-.84 0-.8c-.9-.1-1.6-.5-2-1l.3-.4c.4.4 1 .8 1.7.9v-2.5c-.9-.3-1.8-.6-1.8-1.6c0-1 .8-1.6 1.8-1.6c.03-.04 0-.9 0-.9h.4s.05.87 0 .9c.8 0 1.4.3 1.8.8l-.3.4c-.4-.5-.9-.7-1.5-.8v2.3c1 .3 1.9.6 1.9 1.8c0 .7-.4 1.6-1.9 1.7zm-.4-3.6v-2.2c-.7.1-1.3.5-1.3 1.1c0 .7.6.9 1.3 1.1zm1.8 1.9c0-.7-.6-1-1.4-1.2v2.4c1.1-.1 1.4-.7 1.4-1.2zm1.6.4c.3.4.9.8 1.7.8c.9 0 1.5-.5 1.5-1.3c0-.8-.7-1.2-1.6-1.2h-.6v-.5h.6c.8 0 1.5-.3 1.5-1.1c0-.8-.7-1.2-1.5-1.2c-.6 0-1.1.3-1.6.8l-.3-.3c.4-.5 1.1-.9 2-.9c1 0 1.9.5 1.9 1.5c0 1-.8 1.4-1.3 1.5c.5 0 1.4.5 1.4 1.4c0 1-.7 1.8-2 1.8c-1 0-1.7-.5-2.1-1l.4-.3zm4.8 0c.3.4.9.8 1.7.8c.9 0 1.5-.5 1.5-1.3c0-.8-.7-1.2-1.6-1.2h-.6v-.5h.6c.8 0 1.5-.3 1.5-1.1c0-.8-.7-1.2-1.4-1.2c-.7 0-1.2.3-1.7.8l-.3-.3c.4-.5 1.1-.9 2-.9c1 0 1.9.5 1.9 1.5c0 1-.8 1.4-1.3 1.5c.5 0 1.4.5 1.4 1.4c0 1-.7 1.8-2 1.8c-1 0-1.7-.5-2.1-1l.4-.3zm5.2-.1c.3.6.9.9 1.6.9c.9 0 1.5-.6 1.5-1.5c0-.9-.6-1.4-1.4-1.4c-.6 0-1.1.2-1.5.6c-.01-.04-.4-.2-.4-.2v-3.1h3.5v.4h-3s.02 2.37 0 2.4c.3-.3.8-.6 1.5-.6c1 0 1.9.7 1.9 1.9c0 1.2-1 2-2.1 2c-1 0-1.6-.4-2-1l.4-.4zm4.6 2.1c.3-.2.5-.5.5-.8c-.3 0-.4-.1-.4-.4c0-.2.2-.3.4-.3c.2 0 .4.2.4.5c0 .5-.3 1-.6 1.3l-.3-.3zm4.5-2.5h-2.8v-.4l2.7-3.9h.7v3.8h.8v.5h-.8v1.7h-.6v-1.7zm-2.3-.5h2.3v-3.3l-2.3 3.3zm7.6-3.4h-3.3v-.4h3.9v.3l-2.6 5.7h-.5l2.5-5.6zm1.9 4.5c.3.4.7.7 1.3.7c1.3 0 1.8-1.4 1.8-2.7v-.2c-.3.4-1 1-1.8 1c-1 0-1.9-.7-1.9-1.9c0-1 .7-1.9 2-1.9c1.6 0 2.2 1.4 2.2 3.1c0 1.5-.6 3.1-2.3 3.1c-.8 0-1.2-.4-1.6-.8l.3-.4zm1.4-4.6c-1 0-1.5.8-1.5 1.5c0 .9.7 1.4 1.5 1.4c.7 0 1.3-.4 1.7-1c-.1-.8-.5-1.9-1.7-1.9zm3.3 5c.2 0 .4.1.4.3c0 .3-.2.4-.4.4c-.2 0-.4-.1-.4-.4c0-.2.2-.3.4-.3zm4-4.9H325v-.4h4v.3l-2.6 5.7h-.6l2.6-5.6zm1.4 4.4c.3.4.9.8 1.7.8c.9 0 1.5-.5 1.5-1.3c0-.8-.7-1.2-1.6-1.2h-.6v-.5h.6c.8 0 1.5-.3 1.5-1.1c0-.8-.6-1.2-1.4-1.2c-.7 0-1.2.3-1.6.8l-.4-.3c.5-.5 1.1-.9 2-.9c1 0 1.9.5 1.9 1.5c0 1-.7 1.4-1.2 1.5c.5 0 1.3.5 1.3 1.4c0 1-.7 1.8-2 1.8c-1 0-1.7-.5-2-1l.3-.3z" stroke="none" fill="#242423"/></g><g id="Polygon98221"><path d="m181 61.3l-.9 1l-.4-.4l1.4-1.3h.4v6h-.5v-5.3zm1.8 4.3c.3.4.8.7 1.4.7c.8 0 1.2-.4 1.2-.9c0-.6-.6-.7-1.2-.9c-.7-.2-1.5-.3-1.5-1.2c0-.7.5-1.2 1.5-1.2c.7 0 1.2.3 1.6.6l-.3.4c-.3-.4-.7-.6-1.3-.6c-.7 0-1.1.3-1.1.8c0 .5.6.6 1.2.8c.7.2 1.6.4 1.6 1.3c0 .7-.6 1.3-1.7 1.3c-.7 0-1.2-.2-1.6-.7l.2-.4zm4.3.1c-.04.02 0-3.1 0-3.1h-.8v-.4h.8V61h.4v1.2h.9v.4h-.9s.04 3.05 0 3c0 .4.2.6.5.6c.2 0 .4-.1.5-.2l.2.4c-.2.2-.4.3-.8.3c-.6 0-.8-.4-.8-1zm7.2-5.2c1.8 0 2.9 1.3 2.9 3.1c0 1.7-1.1 3.1-2.9 3.1c-1.8 0-2.9-1.4-2.9-3.1c0-1.8 1.1-3.1 2.9-3.1zm0 .4c-1.5 0-2.4 1.1-2.4 2.7c0 1.5.9 2.6 2.4 2.6c1.4 0 2.4-1.1 2.4-2.6c0-1.6-1-2.7-2.4-2.7zm4.1 7.3v-6h.4s.05.7 0 .7c.4-.4.9-.8 1.6-.8c1.1 0 1.9.9 1.9 2.3c0 1.4-.8 2.3-1.9 2.3c-.7 0-1.2-.4-1.6-.8c.05-.05 0 2.3 0 2.3h-.4zm1.9-5.7c-.6 0-1.2.4-1.5.8v2.1c.3.5.9.8 1.5.8c1 0 1.5-.8 1.5-1.8c0-1.1-.5-1.9-1.5-1.9zm3.2 3.2v-3.1h-.7v-.4h.7V61h.5v1.2h.9v.4h-.9v3c0 .4.1.6.4.6c.2 0 .4-.1.5-.2l.2.4c-.2.2-.4.3-.7.3c-.6 0-.9-.4-.9-1zm2.2-4.6c0-.2.2-.3.3-.3c.2 0 .4.1.4.3c0 .2-.2.4-.4.4c-.1 0-.3-.2-.3-.4zm.1 1.1h.5v4.4h-.5v-4.4zm1.6 2.2c0-1.3.8-2.3 2.1-2.3c1.3 0 2.1 1 2.1 2.3c0 1.2-.8 2.3-2.1 2.3c-1.3 0-2.1-1.1-2.1-2.3zm3.7 0c0-1-.6-1.9-1.6-1.9c-1 0-1.6.9-1.6 1.9c0 .9.6 1.8 1.6 1.8c1 0 1.6-.9 1.6-1.8zm4.5-.8c0-.8-.4-1.1-1-1.1c-.6 0-1.2.4-1.4.8c-.04-.03 0 3.3 0 3.3h-.5v-4.4h.5s-.04.66 0 .7c.3-.4.9-.8 1.5-.8c.9 0 1.4.4 1.4 1.4v3.1h-.5s.03-2.98 0-3z" stroke="none" fill="#242423"/></g><g id="Polygon98220"><path d="m3.6 61H.3v-.4h3.9v.3l-2.5 5.7h-.6L3.6 61zm3-.6h.4l-2.2 6.3h-.4l2.2-6.3zm1.8.9l-1 1l-.3-.4l1.3-1.3h.5v6h-.5v-5.3zm3.9-.8c1.6 0 2.2 1.6 2.2 3.1c0 1.4-.6 3.1-2.2 3.1c-1.6 0-2.2-1.7-2.2-3.1c0-1.5.6-3.1 2.2-3.1zm0 .4c-1.3 0-1.7 1.4-1.7 2.7c0 1.2.4 2.6 1.7 2.6c1.3 0 1.7-1.4 1.7-2.6c0-1.3-.4-2.7-1.7-2.7zm4.8-.5h.4l-2.2 6.3h-.4l2.2-6.3zm.8 5.7c2-1.6 3.4-2.8 3.4-3.9c0-.9-.7-1.3-1.4-1.3c-.7 0-1.3.4-1.6.8l-.4-.3c.5-.6 1.2-.9 2-.9c.9 0 1.9.5 1.9 1.7c0 1.3-1.4 2.5-3.1 3.9h3.2v.5h-4v-.5zm7.4-5.6c1.6 0 2.2 1.6 2.2 3.1c0 1.4-.6 3.1-2.2 3.1c-1.6 0-2.2-1.7-2.2-3.1c0-1.5.6-3.1 2.2-3.1zm0 .4c-1.3 0-1.7 1.4-1.7 2.7c0 1.2.4 2.6 1.7 2.6c1.2 0 1.6-1.4 1.6-2.6c0-1.3-.4-2.7-1.6-2.7zm3.3 4.5c.3.4.9.8 1.6.8c1 0 1.6-.5 1.6-1.3c0-.8-.8-1.2-1.7-1.2h-.5v-.5h.5c.8 0 1.6-.3 1.6-1.1c0-.8-.7-1.2-1.5-1.2c-.7 0-1.1.3-1.6.8l-.3-.3c.4-.5 1.1-.9 1.9-.9c1.1 0 2 .5 2 1.5c0 1-.8 1.4-1.3 1.5c.5 0 1.4.5 1.4 1.4c0 1-.8 1.8-2.1 1.8c-.9 0-1.7-.5-2-1l.4-.3zm7.3-.5H33v-.4l2.7-3.9h.7v3.8h.9v.5h-.9v1.7h-.5v-1.7zm-2.3-.5h2.3v-3.3l-2.3 3.3zm6.4-.2h2.2v.4H40v-.4zm8.2-3.2h-3.3v-.4h3.9v.3l-2.5 5.7h-.6l2.5-5.6zm3-.6h.4l-2.2 6.3h-.4l2.2-6.3zm3 .1c1.6 0 2.2 1.6 2.2 3.1c0 1.4-.6 3.1-2.2 3.1c-1.6 0-2.2-1.7-2.2-3.1c0-1.5.6-3.1 2.2-3.1zm0 .4c-1.3 0-1.7 1.4-1.7 2.7c0 1.2.4 2.6 1.7 2.6c1.3 0 1.7-1.4 1.7-2.6c0-1.3-.4-2.7-1.7-2.7zm3.8 4.6c.3.4.6.7 1.3.7c1.3 0 1.8-1.4 1.8-2.7v-.2c-.3.4-1 1-1.8 1c-1.1 0-1.9-.7-1.9-1.9c0-1 .7-1.9 2-1.9c1.6 0 2.2 1.4 2.2 3.1c0 1.5-.7 3.1-2.3 3.1c-.8 0-1.3-.4-1.6-.8l.3-.4zm1.4-4.6c-1 0-1.5.8-1.5 1.5c0 .9.6 1.4 1.5 1.4c.6 0 1.3-.4 1.6-1c0-.8-.5-1.9-1.6-1.9zm4.8-.5h.4l-2.2 6.3h-.4l2.2-6.3zm.8 5.7c2-1.6 3.4-2.8 3.4-3.9c0-.9-.7-1.3-1.4-1.3c-.7 0-1.3.4-1.6.8l-.4-.3c.4-.6 1.2-.9 2-.9c.9 0 1.9.5 1.9 1.7c0 1.3-1.4 2.5-3.1 3.9h3.1v.5H65s-.03-.47 0-.5zm7.4-5.6c1.6 0 2.2 1.6 2.2 3.1c0 1.4-.6 3.1-2.2 3.1c-1.7 0-2.3-1.7-2.3-3.1c0-1.5.6-3.1 2.3-3.1zm0 .4c-1.3 0-1.7 1.4-1.7 2.7c0 1.2.4 2.6 1.7 2.6c1.2 0 1.6-1.4 1.6-2.6c0-1.3-.4-2.7-1.6-2.7zm3.2 4.5c.4.4 1 .8 1.7.8c.9 0 1.5-.5 1.5-1.3c0-.8-.7-1.2-1.6-1.2h-.5v-.5h.5c.8 0 1.5-.3 1.5-1.1c0-.8-.6-1.2-1.4-1.2c-.7 0-1.2.3-1.6.8l-.3-.3c.4-.5 1-.9 1.9-.9c1.1 0 2 .5 2 1.5c0 1-.8 1.4-1.3 1.5c.5 0 1.4.5 1.4 1.4c0 1-.8 1.8-2.1 1.8c-1 0-1.7-.5-2-1l.3-.3zm5.3.1c.3.4.7.7 1.3.7c1.4 0 1.8-1.4 1.8-2.7v-.2c-.2.4-.9 1-1.8 1c-1 0-1.9-.7-1.9-1.9c0-1 .7-1.9 2-1.9c1.7 0 2.2 1.4 2.2 3.1c0 1.5-.6 3.1-2.3 3.1c-.7 0-1.2-.4-1.6-.8l.3-.4zm1.4-4.6c-1 0-1.5.8-1.5 1.5c0 .9.7 1.4 1.5 1.4c.7 0 1.3-.4 1.7-1c-.1-.8-.5-1.9-1.7-1.9z" stroke="none" fill="#242423"/></g><g id="Polygon98219"><path d="m606.1 42.5c.8 0 1.2.3 1.6.7l-.3.4c-.3-.4-.7-.7-1.3-.7c-1.3 0-1.8 1.4-1.8 2.7v.2c.3-.4 1-1 1.8-1c1 0 1.9.7 1.9 1.9c0 1-.7 2-2 2c-1.6 0-2.2-1.5-2.2-3.1c0-1.6.6-3.1 2.3-3.1zm-.1 2.8c-.7 0-1.3.4-1.7 1c.1.9.5 1.9 1.7 1.9c1 0 1.5-.8 1.5-1.4c0-1-.7-1.5-1.5-1.5zm3.5 2.6c.2 0 .4.1.4.3c0 .3-.2.4-.4.4c-.2 0-.4-.1-.4-.4c0-.2.2-.3.4-.3zm3.7-5.4c1.6 0 2.2 1.6 2.2 3.1c0 1.4-.6 3.1-2.2 3.1c-1.6 0-2.2-1.7-2.2-3.1c0-1.5.6-3.1 2.2-3.1zm0 .4c-1.2 0-1.7 1.4-1.7 2.7c0 1.2.5 2.6 1.7 2.6c1.3 0 1.7-1.4 1.7-2.6c0-1.3-.4-2.7-1.7-2.7zm5.6-.4c.8 0 1.2.3 1.6.7l-.3.4c-.3-.4-.7-.7-1.3-.7c-1.3 0-1.8 1.4-1.8 2.7v.2c.3-.4 1-1 1.8-1c1 0 1.9.7 1.9 1.9c0 1-.7 2-2 2c-1.6 0-2.2-1.5-2.2-3.1c0-1.6.6-3.1 2.3-3.1zm-.1 2.8c-.7 0-1.3.4-1.7 1c.1.9.5 1.9 1.7 1.9c1 0 1.5-.8 1.5-1.4c0-1-.7-1.5-1.5-1.5zm4.2-2.8c.9 0 1.4.6 1.4 1.4c0 .9-.5 1.5-1.4 1.5c-.8 0-1.4-.6-1.4-1.5c0-.8.6-1.4 1.4-1.4zm3.3.1h.4l-3.8 6h-.4l3.8-6zm-3.3.2c-.6 0-1 .5-1 1.1c0 .7.4 1.2 1 1.2c.6 0 1-.5 1-1.2c0-.6-.4-1.1-1-1.1zm3.1 2.9c.8 0 1.4.6 1.4 1.5c0 .8-.6 1.5-1.4 1.5c-.8 0-1.4-.7-1.4-1.5c0-.9.6-1.5 1.4-1.5zm0 .4c-.6 0-1 .5-1 1.1c0 .6.4 1.1 1 1.1c.6 0 1-.5 1-1.1c0-.6-.4-1.1-1-1.1z" stroke="none" fill="#000"/></g><g id="Polygon98218"><path d="m512.1 47.3c.4.6.9.9 1.7.9c.8 0 1.5-.6 1.5-1.5c0-.9-.7-1.4-1.5-1.4c-.6 0-1 .2-1.5.6c.01-.04-.4-.2-.4-.2v-3.1h3.5v.4h-3s.04 2.37 0 2.4c.3-.3.8-.6 1.5-.6c1 0 1.9.7 1.9 1.9c0 1.2-.9 2-2 2c-1 0-1.6-.4-2.1-1l.4-.4zm5.8-4.8c.9 0 1.4.6 1.4 1.4c0 .9-.5 1.5-1.4 1.5c-.8 0-1.4-.6-1.4-1.5c0-.8.6-1.4 1.4-1.4zm3.3.1h.4l-3.8 6h-.4l3.8-6zm-3.3.2c-.6 0-1 .5-1 1.1c0 .7.4 1.2 1 1.2c.6 0 1-.5 1-1.2c0-.6-.4-1.1-1-1.1zm3.1 2.9c.8 0 1.4.6 1.4 1.5c0 .8-.6 1.5-1.4 1.5c-.8 0-1.4-.7-1.4-1.5c0-.9.6-1.5 1.4-1.5zm0 .4c-.6 0-1 .5-1 1.1c0 .6.4 1.1 1 1.1c.6 0 1-.5 1-1.1c0-.6-.4-1.1-1-1.1z" stroke="none" fill="#242423"/></g><g id="Polygon98217"><path d="m400.8 48.7c.04-.05 0 .8 0 .8h-.4s.03-.84 0-.8c-.9-.1-1.6-.5-2-1l.3-.4c.4.4 1 .8 1.7.9v-2.5c-.9-.3-1.8-.6-1.8-1.6c0-1 .8-1.6 1.8-1.6c.03-.04 0-.9 0-.9h.4s.04.87 0 .9c.8 0 1.4.3 1.8.8l-.3.4c-.4-.5-.9-.7-1.5-.8v2.3c1 .3 1.9.6 1.9 1.8c0 .7-.4 1.6-1.9 1.7zm-.4-3.6v-2.2c-.7.1-1.3.5-1.3 1.1c0 .7.6.9 1.3 1.1zm1.8 1.9c0-.7-.6-1-1.4-1.2v2.4c1.1-.1 1.4-.7 1.4-1.2zm1.4 1.1c2.1-1.6 3.5-2.8 3.5-3.9c0-.9-.8-1.3-1.4-1.3c-.8 0-1.3.4-1.7.8l-.3-.3c.4-.6 1.1-.9 2-.9c.9 0 1.9.5 1.9 1.7c0 1.3-1.4 2.5-3.2 3.9h3.2v.5h-4s.04-.47 0-.5zm7.5-5.6c.8 0 1.3.3 1.6.7l-.3.4c-.3-.4-.6-.7-1.3-.7c-1.3 0-1.8 1.4-1.8 2.7v.2c.3-.4 1-1 1.8-1c1.1 0 1.9.7 1.9 1.9c0 1-.7 2-2 2c-1.6 0-2.2-1.5-2.2-3.1c0-1.6.6-3.1 2.3-3.1zm-.1 2.8c-.7 0-1.3.4-1.6 1c0 .9.5 1.9 1.6 1.9c1 0 1.5-.8 1.5-1.4c0-1-.6-1.5-1.5-1.5zm3 4.1c.3-.2.5-.5.5-.8h-.1c-.2 0-.4-.1-.4-.4c0-.2.2-.3.4-.3c.3 0 .5.2.5.5c0 .5-.3 1-.7 1.3l-.2-.3zm4.2-6.9c.7 0 1.2.3 1.6.7l-.3.4c-.3-.4-.7-.7-1.3-.7c-1.3 0-1.8 1.4-1.8 2.7v.2c.2-.4.9-1 1.7-1c1.1 0 2 .7 2 1.9c0 1-.8 2-2 2c-1.7 0-2.2-1.5-2.2-3.1c0-1.6.6-3.1 2.3-3.1zm-.1 2.8c-.7 0-1.3.4-1.7 1c.1.9.5 1.9 1.6 1.9c1.1 0 1.6-.8 1.6-1.4c0-1-.7-1.5-1.5-1.5zm2.9 2.8c2-1.6 3.4-2.8 3.4-3.9c0-.9-.7-1.3-1.4-1.3c-.7 0-1.3.4-1.6.8l-.4-.3c.5-.6 1.2-.9 2-.9c.9 0 1.9.5 1.9 1.7c0 1.3-1.4 2.5-3.1 3.9h3.2v.5h-4v-.5zm5.7-.8c.3.6.9.9 1.6.9c.9 0 1.5-.6 1.5-1.5c0-.9-.6-1.4-1.5-1.4c-.5 0-1 .2-1.4.6c-.01-.04-.4-.2-.4-.2v-3.1h3.5v.4h-3v2.4c.3-.3.8-.6 1.4-.6c1.1 0 2 .7 2 1.9c0 1.2-1 2-2.1 2c-1 0-1.6-.4-2-1l.4-.4zm5.1.6c.2 0 .4.1.4.3c0 .3-.2.4-.4.4c-.2 0-.4-.1-.4-.4c0-.2.2-.3.4-.3zm1.5-.5c.3.4.9.8 1.7.8c.9 0 1.5-.5 1.5-1.3c0-.8-.7-1.2-1.6-1.2h-.6v-.5h.6c.8 0 1.5-.3 1.5-1.1c0-.8-.6-1.2-1.4-1.2c-.7 0-1.2.3-1.6.8l-.4-.3c.5-.5 1.1-.9 2-.9c1.1 0 1.9.5 1.9 1.5c0 1-.7 1.4-1.2 1.5c.5 0 1.3.5 1.3 1.4c0 1-.7 1.8-2 1.8c-1 0-1.7-.5-2-1l.3-.3zm6.2-1.9c-.7-.2-1.4-.7-1.4-1.5c0-1.1 1-1.5 2-1.5c.9 0 1.9.4 1.9 1.5c0 .8-.7 1.3-1.4 1.5c.8.2 1.5.7 1.5 1.6c0 .9-.9 1.6-2 1.6c-1.2 0-2.1-.7-2.1-1.6c0-.9.7-1.4 1.5-1.6zm.6-2.6c-.8 0-1.5.5-1.5 1.2c0 .8 1.1 1.1 1.5 1.1c.3 0 1.4-.3 1.4-1.1c0-.7-.7-1.2-1.4-1.2zm0 2.8c-.4 0-1.6.4-1.6 1.3c0 .7.8 1.2 1.6 1.2c.7 0 1.5-.5 1.5-1.2c0-.9-1.2-1.3-1.5-1.3z" stroke="none" fill="#242423"/></g><g id="Polygon98216"><path d="m290.4 48.7c.05-.05 0 .8 0 .8h-.4s.03-.84 0-.8c-.9-.1-1.6-.5-2-1l.3-.4c.4.4 1 .8 1.7.9v-2.5c-.9-.3-1.8-.6-1.8-1.6c0-1 .8-1.6 1.8-1.6c.03-.04 0-.9 0-.9h.4s.05.87 0 .9c.8 0 1.4.3 1.8.8l-.3.4c-.4-.5-.9-.7-1.5-.8v2.3c1 .3 1.9.6 1.9 1.8c0 .7-.4 1.6-1.9 1.7zm-.4-3.6v-2.2c-.7.1-1.3.5-1.3 1.1c0 .7.6.9 1.3 1.1zm1.8 1.9c0-.7-.6-1-1.4-1.2v2.4c1.1-.1 1.4-.7 1.4-1.2zm1.6.4c.3.4.9.8 1.7.8c.9 0 1.5-.5 1.5-1.3c0-.8-.7-1.2-1.6-1.2h-.6v-.5h.6c.8 0 1.5-.3 1.5-1.1c0-.8-.7-1.2-1.5-1.2c-.6 0-1.1.3-1.6.8l-.3-.3c.4-.5 1.1-.9 2-.9c1 0 1.9.5 1.9 1.5c0 1-.8 1.4-1.3 1.5c.5 0 1.4.5 1.4 1.4c0 1-.7 1.8-2 1.8c-1 0-1.7-.5-2.1-1l.4-.3zm5.7-4.1l-1 1l-.3-.4l1.3-1.3h.5v6h-.5v-5.3zm2.2 4.2c.3.4.7.7 1.4.7c1.3 0 1.7-1.4 1.7-2.7v-.2c-.2.4-.9 1-1.7 1c-1.1 0-2-.7-2-1.9c0-1 .8-1.9 2.1-1.9c1.6 0 2.2 1.4 2.2 3.1c0 1.5-.7 3.1-2.3 3.1c-.8 0-1.3-.4-1.7-.8l.3-.4zm1.5-4.6c-1.1 0-1.5.8-1.5 1.5c0 .9.6 1.4 1.5 1.4c.6 0 1.3-.4 1.6-1c-.1-.8-.5-1.9-1.6-1.9zm2.8 6.5c.3-.2.5-.5.5-.8h-.1c-.2 0-.3-.1-.3-.4c0-.2.1-.3.3-.3c.3 0 .5.2.5.5c0 .5-.3 1-.6 1.3l-.3-.3zm2.4-2.1c.3.6.9.9 1.6.9c.9 0 1.5-.6 1.5-1.5c0-.9-.6-1.4-1.4-1.4c-.6 0-1.1.2-1.5.6c-.01-.04-.4-.2-.4-.2v-3.1h3.5v.4h-3s.02 2.37 0 2.4c.3-.3.8-.6 1.5-.6c1 0 1.9.7 1.9 1.9c0 1.2-1 2-2.1 2c-1 0-1.6-.4-2-1l.4-.4zm6.8-4.8c1.6 0 2.3 1.6 2.3 3.1c0 1.4-.7 3.1-2.3 3.1c-1.6 0-2.2-1.7-2.2-3.1c0-1.5.6-3.1 2.2-3.1zm0 .4c-1.2 0-1.6 1.4-1.6 2.7c0 1.2.4 2.6 1.6 2.6c1.3 0 1.7-1.4 1.7-2.6c0-1.3-.4-2.7-1.7-2.7zm5.8 4h-2.8v-.4l2.7-3.9h.7v3.8h.8v.5h-.8v1.7h-.6v-1.7zm-2.3-.5h2.3v-3.3l-2.3 3.3zm4.9 1.5c.3 0 .4.1.4.3c0 .3-.1.4-.4.4c-.2 0-.4-.1-.4-.4c0-.2.2-.3.4-.3zm1.9-.6c.4.6 1 .9 1.7.9c.9 0 1.5-.6 1.5-1.5c0-.9-.6-1.4-1.5-1.4c-.5 0-1 .2-1.4.6c-.02-.04-.4-.2-.4-.2v-3.1h3.5v.4h-3v2.4c.3-.3.8-.6 1.4-.6c1 0 2 .7 2 1.9c0 1.2-1 2-2.1 2c-1 0-1.6-.4-2-1l.3-.4zm6.9-4.8c1.6 0 2.2 1.6 2.2 3.1c0 1.4-.6 3.1-2.2 3.1c-1.6 0-2.2-1.7-2.2-3.1c0-1.5.6-3.1 2.2-3.1zm0 .4c-1.2 0-1.6 1.4-1.6 2.7c0 1.2.4 2.6 1.6 2.6c1.3 0 1.7-1.4 1.7-2.6c0-1.3-.4-2.7-1.7-2.7z" stroke="none" fill="#242423"/></g><g id="Polygon98215"><path d="m180.3 42.6s2.43-.05 2.4 0c1 0 1.7.5 1.7 1.5c0 .7-.5 1.3-1.1 1.4c.7.1 1.2.7 1.2 1.4c0 1-.6 1.7-1.7 1.7c-.02-.05-2.5 0-2.5 0v-6zm2.4 2.6c.7 0 1.1-.4 1.1-1.1c0-.6-.4-1.1-1.1-1.1c-.03.02-1.9 0-1.9 0v2.2s1.87.04 1.9 0zm0 2.9c.8 0 1.3-.5 1.3-1.2c0-.6-.5-1.2-1.3-1.2h-1.9v2.4h1.9zm5.7-.1c-.3.5-.8.7-1.4.7c-.8 0-1.6-.5-1.6-1.5c0-.9.8-1.4 1.6-1.4c.6 0 1.1.2 1.4.6v-.9c0-.6-.5-1-1.1-1c-.6 0-1 .2-1.4.7l-.2-.4c.4-.5.9-.7 1.6-.7c.9 0 1.6.4 1.6 1.4v3.1h-.5s.05-.56 0-.6zm0-1.3c-.3-.4-.7-.6-1.3-.6c-.7 0-1.2.5-1.2 1.1c0 .6.5 1.1 1.2 1.1c.6 0 1-.2 1.3-.6v-1zm1.8.9c.3.4.8.7 1.4.7c.7 0 1.1-.4 1.1-.9c0-.6-.5-.7-1.2-.9c-.7-.2-1.5-.3-1.5-1.2c0-.7.6-1.2 1.6-1.2c.7 0 1.2.3 1.5.6l-.3.4c-.2-.4-.7-.6-1.2-.6c-.7 0-1.1.3-1.1.8c0 .5.5.6 1.1.8c.8.2 1.6.4 1.6 1.3c0 .7-.5 1.3-1.6 1.3c-.7 0-1.3-.2-1.7-.7l.3-.4zm6-3.5c1.3 0 2 1.1 2 2.3c.02 0 0 .1 0 .1c0 0-3.62.03-3.6 0c0 1 .7 1.8 1.7 1.8c.5 0 1-.2 1.4-.6l.2.3c-.4.4-.9.7-1.7.7c-1.2 0-2.1-1-2.1-2.3c0-1.3.9-2.3 2.1-2.3zm-1.6 2.1h3.1c0-.8-.5-1.7-1.5-1.7c-1.1 0-1.6.9-1.6 1.7zm8.5-3.2h-1.9v-.4h4.4v.4h-2v5.6h-.5V43zm4.2 1.1c1.3 0 2.1 1.1 2.1 2.3c-.05 0 0 .1 0 .1c0 0-3.68.03-3.7 0c.1 1 .7 1.8 1.7 1.8c.6 0 1.1-.2 1.4-.6l.3.3c-.4.4-1 .7-1.7.7c-1.3 0-2.2-1-2.2-2.3c0-1.3.9-2.3 2.1-2.3zm-1.6 2.1h3.2c0-.8-.5-1.7-1.6-1.7c-1 0-1.5.9-1.6 1.7zm4.8-2h.4s.04.75 0 .8c.4-.5.9-.9 1.5-.9v.5h-.2c-.5 0-1.1.4-1.3.8c.04-.01 0 3.2 0 3.2h-.4v-4.4zm7.9 1.3c0-.6-.3-1-.9-1c-.4 0-1 .4-1.2.8c-.01-.04 0 3.3 0 3.3h-.5v-3.1c0-.6-.2-1-.9-1c-.4 0-.9.4-1.2.8v3.3h-.5v-4.4h.5v.7c.2-.3.8-.8 1.4-.8c.7 0 1 .4 1.1.8c.3-.4.9-.8 1.5-.8c.8 0 1.2.4 1.2 1.3c-.03.02 0 3.2 0 3.2h-.5v-3.1z" stroke="none" fill="#242423"/></g><g id="Polygon98214"><path d="m3.6 43H.3v-.4h3.9v.3l-2.5 5.7h-.6L3.6 43zm3-.6h.4l-2.2 6.3h-.4l2.2-6.3zm1.8.9l-1 1l-.3-.4l1.3-1.3h.5v6h-.5v-5.3zm3.9-.8c1.6 0 2.2 1.6 2.2 3.1c0 1.4-.6 3.1-2.2 3.1c-1.6 0-2.2-1.7-2.2-3.1c0-1.5.6-3.1 2.2-3.1zm0 .4c-1.3 0-1.7 1.4-1.7 2.7c0 1.2.4 2.6 1.7 2.6c1.3 0 1.7-1.4 1.7-2.6c0-1.3-.4-2.7-1.7-2.7zm4.8-.5h.4l-2.2 6.3h-.4l2.2-6.3zm.8 5.7c2-1.6 3.4-2.8 3.4-3.9c0-.9-.7-1.3-1.4-1.3c-.7 0-1.3.4-1.6.8l-.4-.3c.5-.6 1.2-.9 2-.9c.9 0 1.9.5 1.9 1.7c0 1.3-1.4 2.5-3.1 3.9h3.2v.5h-4v-.5zm7.4-5.6c1.6 0 2.2 1.6 2.2 3.1c0 1.4-.6 3.1-2.2 3.1c-1.6 0-2.2-1.7-2.2-3.1c0-1.5.6-3.1 2.2-3.1zm0 .4c-1.3 0-1.7 1.4-1.7 2.7c0 1.2.4 2.6 1.7 2.6c1.2 0 1.6-1.4 1.6-2.6c0-1.3-.4-2.7-1.6-2.7zm3.1 5.2c2.1-1.6 3.4-2.8 3.4-3.9c0-.9-.7-1.3-1.3-1.3c-.8 0-1.4.4-1.7.8l-.3-.3c.4-.6 1.1-.9 2-.9c.8 0 1.9.5 1.9 1.7c0 1.3-1.4 2.5-3.2 3.9h3.2v.5h-4s.02-.47 0-.5zm5.8-.6c.3.4.6.7 1.3.7c1.3 0 1.8-1.4 1.8-2.7v-.2c-.3.4-1 1-1.8 1c-1.1 0-1.9-.7-1.9-1.9c0-1 .7-1.9 2-1.9c1.6 0 2.2 1.4 2.2 3.1c0 1.5-.6 3.1-2.3 3.1c-.8 0-1.3-.4-1.6-.8l.3-.4zm1.4-4.6c-1 0-1.5.8-1.5 1.5c0 .9.6 1.4 1.5 1.4c.7 0 1.3-.4 1.6-1c0-.8-.5-1.9-1.6-1.9zm5.1 3.3h2.2v.4h-2.2v-.4zm8.2-3.2h-3.3v-.4h3.9v.3L47 48.6h-.6l2.5-5.6zm3-.6h.4l-2.1 6.3h-.4l2.1-6.3zm3 .1c1.6 0 2.3 1.6 2.3 3.1c0 1.4-.7 3.1-2.3 3.1c-1.6 0-2.2-1.7-2.2-3.1c0-1.5.6-3.1 2.2-3.1zm0 .4c-1.2 0-1.6 1.4-1.6 2.7c0 1.2.4 2.6 1.6 2.6c1.3 0 1.7-1.4 1.7-2.6c0-1.3-.4-2.7-1.7-2.7zm3.8 4.6c.3.4.7.7 1.3.7c1.3 0 1.8-1.4 1.8-2.7v-.2c-.3.4-1 1-1.8 1c-1.1 0-1.9-.7-1.9-1.9c0-1 .7-1.9 2-1.9c1.6 0 2.2 1.4 2.2 3.1c0 1.5-.6 3.1-2.3 3.1c-.8 0-1.2-.4-1.6-.8l.3-.4zm1.4-4.6c-1 0-1.5.8-1.5 1.5c0 .9.7 1.4 1.5 1.4c.7 0 1.3-.4 1.7-1c-.1-.8-.5-1.9-1.7-1.9zm4.8-.5h.4l-2.1 6.3h-.5l2.2-6.3zm.8 5.7c2-1.6 3.4-2.8 3.4-3.9c0-.9-.7-1.3-1.4-1.3c-.7 0-1.3.4-1.6.8l-.4-.3c.5-.6 1.2-.9 2-.9c.9 0 1.9.5 1.9 1.7c0 1.3-1.4 2.5-3.1 3.9h3.2v.5h-4v-.5zm7.4-5.6c1.6 0 2.2 1.6 2.2 3.1c0 1.4-.6 3.1-2.2 3.1c-1.6 0-2.2-1.7-2.2-3.1c0-1.5.6-3.1 2.2-3.1zm0 .4c-1.3 0-1.7 1.4-1.7 2.7c0 1.2.4 2.6 1.7 2.6c1.2 0 1.7-1.4 1.7-2.6c0-1.3-.5-2.7-1.7-2.7zm3.3 4.5c.3.4.9.8 1.6.8c1 0 1.6-.5 1.6-1.3c0-.8-.8-1.2-1.7-1.2h-.5v-.5h.5c.8 0 1.6-.3 1.6-1.1c0-.8-.7-1.2-1.5-1.2c-.7 0-1.1.3-1.6.8l-.3-.3c.4-.5 1.1-.9 2-.9c1 0 1.9.5 1.9 1.5c0 1-.8 1.4-1.3 1.5c.5 0 1.4.5 1.4 1.4c0 1-.8 1.8-2 1.8c-1 0-1.7-.5-2.1-1l.4-.3zm7.3-.5h-2.9v-.4l2.7-3.9h.7v3.8h.9v.5h-.9v1.7h-.5v-1.7zm-2.3-.5h2.3v-3.3l-2.3 3.3z" stroke="none" fill="#242423"/></g><g id="Polygon98213"><path d="m604.3 29.3c.4.6.9.9 1.7.9c.8 0 1.5-.6 1.5-1.5c0-.9-.7-1.4-1.5-1.4c-.6 0-1.1.2-1.5.6c0-.04-.4-.2-.4-.2v-3.1h3.5v.4h-3s.03 2.37 0 2.4c.3-.3.8-.6 1.5-.6c1 0 1.9.7 1.9 1.9c0 1.2-1 2-2 2c-1 0-1.7-.4-2.1-1l.4-.4zm5.2.6c.2 0 .4.1.4.3c0 .3-.2.4-.4.4c-.2 0-.4-.1-.4-.4c0-.2.2-.3.4-.3zm4-4.9h-3.3v-.4h3.9v.3l-2.5 5.7h-.6l2.5-5.6zm4.5 0h-3.3v-.4h3.9v.3l-2.5 5.7h-.6L618 25zm2.6-.5c.9 0 1.5.6 1.5 1.4c0 .9-.6 1.5-1.5 1.5c-.8 0-1.4-.6-1.4-1.5c0-.8.6-1.4 1.4-1.4zm3.3.1h.4l-3.8 6h-.4l3.8-6zm-3.3.2c-.5 0-.9.5-.9 1.1c0 .7.4 1.2.9 1.2c.6 0 1-.5 1-1.2c0-.6-.4-1.1-1-1.1zm3.1 2.9c.8 0 1.4.6 1.4 1.5c0 .8-.6 1.5-1.4 1.5c-.8 0-1.4-.7-1.4-1.5c0-.9.6-1.5 1.4-1.5zm0 .4c-.6 0-1 .5-1 1.1c0 .6.4 1.1 1 1.1c.6 0 1-.5 1-1.1c0-.6-.4-1.1-1-1.1z" stroke="none" fill="#000"/></g><g id="Polygon98212"><path d="m512.1 29.3c.4.6.9.9 1.7.9c.8 0 1.5-.6 1.5-1.5c0-.9-.7-1.4-1.5-1.4c-.6 0-1 .2-1.5.6c.01-.04-.4-.2-.4-.2v-3.1h3.5v.4h-3s.04 2.37 0 2.4c.3-.3.8-.6 1.5-.6c1 0 1.9.7 1.9 1.9c0 1.2-.9 2-2 2c-1 0-1.6-.4-2.1-1l.4-.4zm5.8-4.8c.9 0 1.4.6 1.4 1.4c0 .9-.5 1.5-1.4 1.5c-.8 0-1.4-.6-1.4-1.5c0-.8.6-1.4 1.4-1.4zm3.3.1h.4l-3.8 6h-.4l3.8-6zm-3.3.2c-.6 0-1 .5-1 1.1c0 .7.4 1.2 1 1.2c.6 0 1-.5 1-1.2c0-.6-.4-1.1-1-1.1zm3.1 2.9c.8 0 1.4.6 1.4 1.5c0 .8-.6 1.5-1.4 1.5c-.8 0-1.4-.7-1.4-1.5c0-.9.6-1.5 1.4-1.5zm0 .4c-.6 0-1 .5-1 1.1c0 .6.4 1.1 1 1.1c.6 0 1-.5 1-1.1c0-.6-.4-1.1-1-1.1z" stroke="none" fill="#242423"/></g><g id="Polygon98211"><path d="m400.8 30.7c.04-.05 0 .8 0 .8h-.4s.03-.84 0-.8c-.9-.1-1.6-.5-2-1l.3-.4c.4.4 1 .8 1.7.9v-2.5c-.9-.3-1.8-.6-1.8-1.6c0-1 .8-1.6 1.8-1.6c.03-.04 0-.9 0-.9h.4s.04.87 0 .9c.8 0 1.4.3 1.8.8l-.3.4c-.4-.5-.9-.7-1.5-.8v2.3c1 .3 1.9.6 1.9 1.8c0 .7-.4 1.6-1.9 1.7zm-.4-3.6v-2.2c-.7.1-1.3.5-1.3 1.1c0 .7.6.9 1.3 1.1zm1.8 1.9c0-.7-.6-1-1.4-1.2v2.4c1.1-.1 1.4-.7 1.4-1.2zm1.4 1.1c2.1-1.6 3.5-2.8 3.5-3.9c0-.9-.8-1.3-1.4-1.3c-.8 0-1.3.4-1.7.8l-.3-.3c.4-.6 1.1-.9 2-.9c.9 0 1.9.5 1.9 1.7c0 1.3-1.4 2.5-3.2 3.9h3.2v.5h-4s.04-.47 0-.5zm5.7-.8c.4.6.9.9 1.7.9c.8 0 1.5-.6 1.5-1.5c0-.9-.6-1.4-1.5-1.4c-.6 0-1 .2-1.5.6c.03-.04-.4-.2-.4-.2v-3.1h3.5v.4h-2.9s-.05 2.37 0 2.4c.3-.3.8-.6 1.4-.6c1 0 1.9.7 1.9 1.9c0 1.2-.9 2-2 2c-1 0-1.6-.4-2-1l.3-.4zm4.7 2.1c.2-.2.5-.5.5-.8h-.1c-.2 0-.4-.1-.4-.4c0-.2.2-.3.4-.3c.2 0 .5.2.5.5c0 .5-.3 1-.7 1.3l-.2-.3zm2-2c.3.4.9.8 1.6.8c1 0 1.6-.5 1.6-1.3c0-.8-.8-1.2-1.7-1.2h-.5v-.5h.5c.8 0 1.6-.3 1.6-1.1c0-.8-.7-1.2-1.5-1.2c-.7 0-1.1.3-1.6.8l-.3-.3c.4-.5 1.1-.9 1.9-.9c1.1 0 2 .5 2 1.5c0 1-.8 1.4-1.3 1.5c.5 0 1.4.5 1.4 1.4c0 1-.8 1.8-2.1 1.8c-.9 0-1.7-.5-2-1l.4-.3zm5.1-.1c.4.6.9.9 1.7.9c.9 0 1.5-.6 1.5-1.5c0-.9-.6-1.4-1.5-1.4c-.5 0-1 .2-1.4.6c-.04-.04-.4-.2-.4-.2v-3.1h3.4v.4h-2.9v2.4c.3-.3.8-.6 1.4-.6c1 0 1.9.7 1.9 1.9c0 1.2-.9 2-2 2c-1 0-1.6-.4-2-1l.3-.4zm7.8-4.3h-3.3v-.4h3.9v.3l-2.6 5.7h-.5l2.5-5.6zm.9 4.9c.2 0 .4.1.4.3c0 .3-.2.4-.4.4c-.2 0-.4-.1-.4-.4c0-.2.2-.3.4-.3zm1.9-.6c.4.6.9.9 1.7.9c.8 0 1.5-.6 1.5-1.5c0-.9-.6-1.4-1.5-1.4c-.6 0-1 .2-1.5.6c.03-.04-.4-.2-.4-.2v-3.1h3.5v.4h-2.9s-.05 2.37 0 2.4c.3-.3.8-.6 1.4-.6c1 0 1.9.7 1.9 1.9c0 1.2-.9 2-2 2c-1 0-1.6-.4-2-1l.3-.4zm6.9-4.8c1.6 0 2.2 1.6 2.2 3.1c0 1.4-.6 3.1-2.2 3.1c-1.6 0-2.2-1.7-2.2-3.1c0-1.5.6-3.1 2.2-3.1zm0 .4c-1.3 0-1.7 1.4-1.7 2.7c0 1.2.4 2.6 1.7 2.6c1.2 0 1.6-1.4 1.6-2.6c0-1.3-.4-2.7-1.6-2.7z" stroke="none" fill="#242423"/></g><g id="Polygon98210"><path d="m290.4 30.7c.05-.05 0 .8 0 .8h-.4s.03-.84 0-.8c-.9-.1-1.6-.5-2-1l.3-.4c.4.4 1 .8 1.7.9v-2.5c-.9-.3-1.8-.6-1.8-1.6c0-1 .8-1.6 1.8-1.6c.03-.04 0-.9 0-.9h.4s.05.87 0 .9c.8 0 1.4.3 1.8.8l-.3.4c-.4-.5-.9-.7-1.5-.8v2.3c1 .3 1.9.6 1.9 1.8c0 .7-.4 1.6-1.9 1.7zm-.4-3.6v-2.2c-.7.1-1.3.5-1.3 1.1c0 .7.6.9 1.3 1.1zm1.8 1.9c0-.7-.6-1-1.4-1.2v2.4c1.1-.1 1.4-.7 1.4-1.2zm1.6.4c.3.4.9.8 1.7.8c.9 0 1.5-.5 1.5-1.3c0-.8-.7-1.2-1.6-1.2h-.6v-.5h.6c.8 0 1.5-.3 1.5-1.1c0-.8-.7-1.2-1.5-1.2c-.6 0-1.1.3-1.6.8l-.3-.3c.4-.5 1.1-.9 2-.9c1 0 1.9.5 1.9 1.5c0 1-.8 1.4-1.3 1.5c.5 0 1.4.5 1.4 1.4c0 1-.7 1.8-2 1.8c-1 0-1.7-.5-2.1-1l.4-.3zm6.9-4.9c1.6 0 2.2 1.6 2.2 3.1c0 1.4-.6 3.1-2.2 3.1c-1.6 0-2.2-1.7-2.2-3.1c0-1.5.6-3.1 2.2-3.1zm0 .4c-1.3 0-1.7 1.4-1.7 2.7c0 1.2.4 2.6 1.7 2.6c1.2 0 1.7-1.4 1.7-2.6c0-1.3-.4-2.7-1.7-2.7zm5.8 4h-2.9v-.4l2.7-3.9h.7v3.8h.9v.5h-.9v1.7h-.5v-1.7zm-2.3-.5h2.3v-3.3l-2.3 3.3zm4.4 3c.3-.2.5-.5.6-.8h-.1c-.3 0-.4-.1-.4-.4c0-.2.2-.3.4-.3c.2 0 .4.2.4.5c0 .5-.3 1-.6 1.3l-.3-.3zm1.9-1.3c2-1.6 3.4-2.8 3.4-3.9c0-.9-.7-1.3-1.4-1.3c-.7 0-1.3.4-1.6.8l-.4-.3c.5-.6 1.2-.9 2-.9c.9 0 1.9.5 1.9 1.7c0 1.3-1.4 2.5-3.1 3.9h3.2v.5h-4v-.5zm5.8-.6c.2.4.6.7 1.3.7c1.3 0 1.7-1.4 1.7-2.7v-.2c-.2.4-.9 1-1.7 1c-1.1 0-1.9-.7-1.9-1.9c0-1 .7-1.9 2-1.9c1.6 0 2.2 1.4 2.2 3.1c0 1.5-.7 3.1-2.3 3.1c-.8 0-1.3-.4-1.6-.8l.3-.4zm1.4-4.6c-1 0-1.5.8-1.5 1.5c0 .9.6 1.4 1.5 1.4c.6 0 1.3-.4 1.6-1c-.1-.8-.5-1.9-1.6-1.9zm5.3-.4c1.7 0 2.3 1.6 2.3 3.1c0 1.4-.6 3.1-2.3 3.1c-1.6 0-2.2-1.7-2.2-3.1c0-1.5.6-3.1 2.2-3.1zm0 .4c-1.2 0-1.6 1.4-1.6 2.7c0 1.2.4 2.6 1.6 2.6c1.3 0 1.7-1.4 1.7-2.6c0-1.3-.4-2.7-1.7-2.7zm3.3 5c.3 0 .4.1.4.3c0 .3-.1.4-.4.4c-.2 0-.4-.1-.4-.4c0-.2.2-.3.4-.3zm3.7-5.4c1.6 0 2.2 1.6 2.2 3.1c0 1.4-.6 3.1-2.2 3.1c-1.6 0-2.2-1.7-2.2-3.1c0-1.5.6-3.1 2.2-3.1zm0 .4c-1.3 0-1.7 1.4-1.7 2.7c0 1.2.4 2.6 1.7 2.6c1.2 0 1.7-1.4 1.7-2.6c0-1.3-.5-2.7-1.7-2.7zm5.4-.4c1.6 0 2.2 1.6 2.2 3.1c0 1.4-.6 3.1-2.2 3.1c-1.7 0-2.3-1.7-2.3-3.1c0-1.5.6-3.1 2.3-3.1zm0 .4c-1.3 0-1.7 1.4-1.7 2.7c0 1.2.4 2.6 1.7 2.6c1.2 0 1.6-1.4 1.6-2.6c0-1.3-.4-2.7-1.6-2.7z" stroke="none" fill="#242423"/></g><g id="Polygon98209"><path d="m180.3 24.6s2.43-.05 2.4 0c1 0 1.7.5 1.7 1.5c0 .7-.5 1.3-1.1 1.4c.7.1 1.2.7 1.2 1.4c0 1-.6 1.7-1.7 1.7c-.02-.05-2.5 0-2.5 0v-6zm2.4 2.6c.7 0 1.1-.4 1.1-1.1c0-.6-.4-1.1-1.1-1.1c-.03.02-1.9 0-1.9 0v2.2s1.87.04 1.9 0zm0 2.9c.8 0 1.3-.5 1.3-1.2c0-.6-.5-1.2-1.3-1.2h-1.9v2.4h1.9zm5.7-.1c-.3.5-.8.7-1.4.7c-.8 0-1.6-.5-1.6-1.5c0-.9.8-1.4 1.6-1.4c.6 0 1.1.2 1.4.6v-.9c0-.6-.5-1-1.1-1c-.6 0-1 .2-1.4.7l-.2-.4c.4-.5.9-.7 1.6-.7c.9 0 1.6.4 1.6 1.4v3.1h-.5s.05-.56 0-.6zm0-1.3c-.3-.4-.7-.6-1.3-.6c-.7 0-1.2.5-1.2 1.1c0 .6.5 1.1 1.2 1.1c.6 0 1-.2 1.3-.6v-1zm1.8.9c.3.4.8.7 1.4.7c.7 0 1.1-.4 1.1-.9c0-.6-.5-.7-1.2-.9c-.7-.2-1.5-.3-1.5-1.2c0-.7.6-1.2 1.6-1.2c.7 0 1.2.3 1.5.6l-.3.4c-.2-.4-.7-.6-1.2-.6c-.7 0-1.1.3-1.1.8c0 .5.5.6 1.1.8c.8.2 1.6.4 1.6 1.3c0 .7-.5 1.3-1.6 1.3c-.7 0-1.3-.2-1.7-.7l.3-.4zm6-3.5c1.3 0 2 1.1 2 2.3c.02 0 0 .1 0 .1c0 0-3.62.03-3.6 0c0 1 .7 1.8 1.7 1.8c.5 0 1-.2 1.4-.6l.2.3c-.4.4-.9.7-1.7.7c-1.2 0-2.1-1-2.1-2.3c0-1.3.9-2.3 2.1-2.3zm-1.6 2.1h3.1c0-.8-.5-1.7-1.5-1.7c-1.1 0-1.6.9-1.6 1.7zm8.5-3.2h-1.9v-.4h4.4v.4h-2v5.6h-.5V25zm4.2 1.1c1.3 0 2.1 1.1 2.1 2.3c-.05 0 0 .1 0 .1c0 0-3.68.03-3.7 0c.1 1 .7 1.8 1.7 1.8c.6 0 1.1-.2 1.4-.6l.3.3c-.4.4-1 .7-1.7.7c-1.3 0-2.2-1-2.2-2.3c0-1.3.9-2.3 2.1-2.3zm-1.6 2.1h3.2c0-.8-.5-1.7-1.6-1.7c-1 0-1.5.9-1.6 1.7zm4.8-2h.4s.04.75 0 .8c.4-.5.9-.9 1.5-.9v.5h-.2c-.5 0-1.1.4-1.3.8c.04-.01 0 3.2 0 3.2h-.4v-4.4zm7.9 1.3c0-.6-.3-1-.9-1c-.4 0-1 .4-1.2.8c-.01-.04 0 3.3 0 3.3h-.5v-3.1c0-.6-.2-1-.9-1c-.4 0-.9.4-1.2.8v3.3h-.5v-4.4h.5v.7c.2-.3.8-.8 1.4-.8c.7 0 1 .4 1.1.8c.3-.4.9-.8 1.5-.8c.8 0 1.2.4 1.2 1.3c-.03.02 0 3.2 0 3.2h-.5v-3.1z" stroke="none" fill="#242423"/></g><g id="Polygon98208"><path d="m3.6 25H.3v-.4h3.9v.3l-2.5 5.7h-.6L3.6 25zm3-.6h.4l-2.2 6.3h-.4l2.2-6.3zm1.8.9l-1 1l-.3-.4l1.3-1.3h.5v6h-.5v-5.3zm3.9-.8c1.6 0 2.2 1.6 2.2 3.1c0 1.4-.6 3.1-2.2 3.1c-1.6 0-2.2-1.7-2.2-3.1c0-1.5.6-3.1 2.2-3.1zm0 .4c-1.3 0-1.7 1.4-1.7 2.7c0 1.2.4 2.6 1.7 2.6c1.3 0 1.7-1.4 1.7-2.6c0-1.3-.4-2.7-1.7-2.7zm4.8-.5h.4l-2.2 6.3h-.4l2.2-6.3zm.8 5.7c2-1.6 3.4-2.8 3.4-3.9c0-.9-.7-1.3-1.4-1.3c-.7 0-1.3.4-1.6.8l-.4-.3c.5-.6 1.2-.9 2-.9c.9 0 1.9.5 1.9 1.7c0 1.3-1.4 2.5-3.1 3.9h3.2v.5h-4v-.5zm7.4-5.6c1.6 0 2.2 1.6 2.2 3.1c0 1.4-.6 3.1-2.2 3.1c-1.6 0-2.2-1.7-2.2-3.1c0-1.5.6-3.1 2.2-3.1zm0 .4c-1.3 0-1.7 1.4-1.7 2.7c0 1.2.4 2.6 1.7 2.6c1.2 0 1.6-1.4 1.6-2.6c0-1.3-.4-2.7-1.6-2.7zm3.1 5.2c2.1-1.6 3.4-2.8 3.4-3.9c0-.9-.7-1.3-1.3-1.3c-.8 0-1.4.4-1.7.8l-.3-.3c.4-.6 1.1-.9 2-.9c.8 0 1.9.5 1.9 1.7c0 1.3-1.4 2.5-3.2 3.9h3.2v.5h-4s.02-.47 0-.5zm7.8-1.2h-2.8v-.4l2.6-3.9h.7v3.8h.9v.5h-.9v1.7h-.5v-1.7zm-2.3-.5h2.3v-3.3l-2.3 3.3zm6.5-.2h2.1v.4h-2.1v-.4zm8.2-3.2h-3.4v-.4h4v.3l-2.6 5.7h-.6l2.6-5.6zm2.9-.6h.4l-2.1 6.3h-.4l2.1-6.3zm3.1.1c1.6 0 2.2 1.6 2.2 3.1c0 1.4-.6 3.1-2.2 3.1c-1.7 0-2.3-1.7-2.3-3.1c0-1.5.6-3.1 2.3-3.1zm0 .4c-1.3 0-1.7 1.4-1.7 2.7c0 1.2.4 2.6 1.7 2.6c1.2 0 1.6-1.4 1.6-2.6c0-1.3-.4-2.7-1.6-2.7zm3.7 4.6c.3.4.7.7 1.3.7c1.3 0 1.8-1.4 1.8-2.7v-.2c-.3.4-.9 1-1.8 1c-1 0-1.9-.7-1.9-1.9c0-1 .7-1.9 2-1.9c1.6 0 2.2 1.4 2.2 3.1c0 1.5-.6 3.1-2.3 3.1c-.8 0-1.2-.4-1.6-.8l.3-.4zm1.4-4.6c-1 0-1.5.8-1.5 1.5c0 .9.7 1.4 1.5 1.4c.7 0 1.3-.4 1.7-1c-.1-.8-.5-1.9-1.7-1.9zm4.8-.5h.4l-2.1 6.3h-.4l2.1-6.3zm.8 5.7c2.1-1.6 3.4-2.8 3.4-3.9c0-.9-.7-1.3-1.3-1.3c-.8 0-1.4.4-1.7.8l-.3-.3c.4-.6 1.1-.9 2-.9c.8 0 1.8.5 1.8 1.7c0 1.3-1.3 2.5-3.1 3.9h3.2v.5h-4v-.5zm7.4-5.6c1.6 0 2.2 1.6 2.2 3.1c0 1.4-.6 3.1-2.2 3.1c-1.6 0-2.2-1.7-2.2-3.1c0-1.5.6-3.1 2.2-3.1zm0 .4c-1.3 0-1.7 1.4-1.7 2.7c0 1.2.4 2.6 1.7 2.6c1.3 0 1.7-1.4 1.7-2.6c0-1.3-.4-2.7-1.7-2.7zm3.1 5.2c2.1-1.6 3.5-2.8 3.5-3.9c0-.9-.8-1.3-1.4-1.3c-.8 0-1.3.4-1.7.8l-.3-.3c.4-.6 1.1-.9 2-.9c.9 0 1.9.5 1.9 1.7c0 1.3-1.4 2.5-3.2 3.9h3.2v.5h-4s.04-.47 0-.5zm5.8-.6c.3.4.7.7 1.3.7c1.3 0 1.8-1.4 1.8-2.7v-.2c-.3.4-1 1-1.8 1c-1 0-1.9-.7-1.9-1.9c0-1 .7-1.9 2-1.9c1.6 0 2.2 1.4 2.2 3.1c0 1.5-.6 3.1-2.3 3.1c-.8 0-1.2-.4-1.6-.8l.3-.4zm1.4-4.6c-1 0-1.5.8-1.5 1.5c0 .9.7 1.4 1.5 1.4c.7 0 1.3-.4 1.7-1c-.1-.8-.5-1.9-1.7-1.9z" stroke="none" fill="#242423"/></g><g id="Polygon98207"><path d="m604.3 11.1c.4.5 1 .8 1.7.8c.8 0 1.3-.6 1.3-1.2c0-.7-.5-1.2-1.3-1.2c-.5 0-1 .2-1.4.6c.04-.05-.6-.3-.6-.3V6.6h3.8v.7h-2.9v2c.3-.3.8-.6 1.4-.6c1 0 1.9.7 1.9 2c0 1.2-.9 2-2.2 2c-1 0-1.7-.4-2.2-1l.5-.6zm5.4.4c.3 0 .5.3.5.6c0 .3-.2.6-.5.6c-.3 0-.6-.3-.6-.6c0-.3.3-.6.6-.6zm2.1-.4c.4.5 1 .8 1.7.8c.8 0 1.3-.6 1.3-1.2c0-.7-.5-1.2-1.3-1.2c-.5 0-1 .2-1.4.6c.04-.05-.6-.3-.6-.3V6.6h3.8v.7h-2.9v2c.3-.3.8-.6 1.4-.6c1 0 1.9.7 1.9 2c0 1.2-.9 2-2.2 2c-1 0-1.7-.4-2.2-1l.5-.6zm7.1-4.6c1.6 0 2.3 1.6 2.3 3.1c0 1.4-.7 3.1-2.3 3.1c-1.7 0-2.4-1.7-2.4-3.1c0-1.5.7-3.1 2.4-3.1zm0 .8c-1.1 0-1.5 1.1-1.5 2.3c0 1.1.4 2.3 1.5 2.3c1 0 1.4-1.2 1.4-2.3c0-1.2-.4-2.3-1.4-2.3zm4.5-.8c.8 0 1.4.6 1.4 1.5c0 .8-.6 1.4-1.4 1.4c-.9 0-1.5-.6-1.5-1.4c0-.9.6-1.5 1.5-1.5zm3.2.1h.6l-3.9 6h-.5l3.8-6zm-3.2.4c-.5 0-.9.4-.9 1c0 .5.4.9.9.9c.5 0 .8-.4.8-.9c0-.6-.3-1-.8-1zm3.2 2.7c.8 0 1.4.6 1.4 1.5c0 .8-.6 1.5-1.4 1.5c-.9 0-1.5-.7-1.5-1.5c0-.9.6-1.5 1.5-1.5zm0 .5c-.6 0-.9.4-.9 1c0 .5.3.9.9.9c.5 0 .8-.4.8-.9c0-.6-.3-1-.8-1z" stroke="none" fill="#000"/></g><g id="Polygon98205"><path d="m401 12.6c.03.04 0 .9 0 .9h-.6v-.8c-.9-.1-1.6-.5-2.1-1l.5-.7c.4.4.9.8 1.6.8V9.9c-.9-.3-1.9-.6-1.9-1.7c0-1 .8-1.6 1.9-1.7c-.01-.03 0-.9 0-.9h.6s.03.88 0 .9c.8.1 1.4.3 1.8.8l-.5.7c-.3-.4-.8-.6-1.3-.7v1.8c1 .2 2 .6 2 1.8c0 .8-.6 1.6-2 1.7zm-.6-3.7V7.3c-.6 0-1 .3-1 .8c0 .4.5.6 1 .8zm1.6 2c0-.5-.4-.7-1-.9v1.8c.8 0 1-.5 1-.9zm1.7.9c2.3-1.7 3.3-2.6 3.3-3.5c0-.7-.6-1-1.1-1c-.8 0-1.3.3-1.7.7l-.5-.6c.5-.6 1.3-.9 2.1-.9c1.1 0 2.1.6 2.1 1.8c0 1.1-1.1 2.2-2.7 3.5c-.03-.04 2.8 0 2.8 0v.8h-4.3s.04-.76 0-.8zm7.9-.7h-2.8v-.7l2.5-3.8h1.2v3.7h.9v.8h-.9v1.5h-.9v-1.5zm-1.9-.8h1.9V7.4l-1.9 2.9zm4.3 3.1c.3-.2.6-.5.7-.8h-.2c-.3 0-.5-.2-.5-.5c0-.3.3-.6.6-.6c.3 0 .6.3.6.8c0 .6-.3 1.1-.8 1.4l-.4-.3zm2.5-5.7l-1 1l-.5-.5l1.6-1.6h.8v6h-.9V7.7zm2.6 3.4c.3.5.9.8 1.6.8c.8 0 1.3-.6 1.3-1.2c0-.7-.5-1.2-1.3-1.2c-.5 0-.9.2-1.3.6c-.04-.05-.7-.3-.7-.3V6.6h3.8v.7h-2.9v2c.3-.3.8-.6 1.4-.6c1 0 1.9.7 1.9 2c0 1.2-.9 2-2.2 2c-1 0-1.7-.4-2.2-1l.6-.6zm6.9-4.6c1.7 0 2.3 1.6 2.3 3.1c0 1.4-.6 3.1-2.3 3.1c-1.7 0-2.4-1.7-2.4-3.1c0-1.5.7-3.1 2.4-3.1zm0 .8c-1.1 0-1.4 1.1-1.4 2.3c0 1.1.3 2.3 1.4 2.3c1.1 0 1.4-1.2 1.4-2.3c0-1.2-.3-2.3-1.4-2.3zm3.5 4.2c.3 0 .5.3.5.6c0 .3-.2.6-.5.6c-.3 0-.6-.3-.6-.6c0-.3.3-.6.6-.6zm3.7-5c1.7 0 2.4 1.6 2.4 3.1c0 1.4-.7 3.1-2.4 3.1c-1.6 0-2.3-1.7-2.3-3.1c0-1.5.7-3.1 2.3-3.1zm0 .8c-1 0-1.4 1.1-1.4 2.3c0 1.1.4 2.3 1.4 2.3c1.1 0 1.5-1.2 1.5-2.3c0-1.2-.4-2.3-1.5-2.3zm5.5-.8c1.6 0 2.3 1.6 2.3 3.1c0 1.4-.7 3.1-2.3 3.1c-1.7 0-2.4-1.7-2.4-3.1c0-1.5.7-3.1 2.4-3.1zm0 .8c-1.1 0-1.5 1.1-1.5 2.3c0 1.1.4 2.3 1.5 2.3c1 0 1.4-1.2 1.4-2.3c0-1.2-.4-2.3-1.4-2.3z" stroke="none" fill="#242423"/></g><g id="Polygon98204"><path d="m290.6 12.6c.03.04 0 .9 0 .9h-.6v-.8c-.9-.1-1.6-.5-2.1-1l.5-.7c.4.4.9.8 1.6.8V9.9c-.9-.3-1.9-.6-1.9-1.7c0-1 .8-1.6 1.9-1.7v-.9h.6s.03.88 0 .9c.8.1 1.4.3 1.8.8l-.5.7c-.3-.4-.8-.6-1.3-.7v1.8c1 .2 2 .6 2 1.8c0 .8-.6 1.6-2 1.7zm-.6-3.7V7.3c-.6 0-1 .3-1 .8c0 .4.5.6 1 .8zm1.6 2c0-.5-.4-.7-1-.9v1.8c.8 0 1-.5 1-.9zm1.7.9c2.3-1.7 3.3-2.6 3.3-3.5c0-.7-.6-1-1.1-1c-.8 0-1.3.3-1.7.7l-.5-.6c.5-.6 1.3-.9 2.2-.9c1 0 2 .6 2 1.8c0 1.1-1.1 2.2-2.7 3.5c-.02-.04 2.8 0 2.8 0v.8h-4.3s.04-.76 0-.8zm6.6-2.3c-.7-.2-1.3-.7-1.3-1.5c0-1.1 1.1-1.5 2.2-1.5c1 0 2.1.4 2.1 1.5c0 .8-.6 1.3-1.3 1.5c.7.2 1.4.7 1.4 1.5c0 1.1-1 1.7-2.2 1.7c-1.3 0-2.3-.6-2.3-1.7c0-.8.7-1.3 1.4-1.5zm.9-2.2c-.7 0-1.3.3-1.3.9c0 .6.9.8 1.3.9c.3-.1 1.2-.3 1.2-.9c0-.6-.6-.9-1.2-.9zm0 2.6c-.4 0-1.4.3-1.4 1c0 .6.6 1 1.4 1c.7 0 1.3-.4 1.3-1c0-.7-1-1-1.3-1zm3.6 1.4c.4.3.7.6 1.3.6c1.2 0 1.6-1.1 1.6-2.2v-.2c-.2.4-.9.9-1.6.9c-1.1 0-2-.7-2-2c0-1 .8-1.9 2.2-1.9c1.7 0 2.4 1.4 2.4 3.1c0 1.6-.9 3.1-2.6 3.1c-.7 0-1.3-.3-1.7-.7l.4-.7zm1.5-4c-.9 0-1.3.6-1.3 1.1c0 .8.6 1.2 1.3 1.2c.6 0 1.1-.3 1.4-.8c0-.7-.4-1.5-1.4-1.5zm2.9 6.1c.3-.2.6-.5.7-.8h-.2c-.3 0-.5-.2-.5-.5c0-.3.3-.6.6-.6c.3 0 .6.3.6.8c0 .6-.3 1.1-.8 1.4l-.4-.3zm3.4-3.9c-.7-.2-1.3-.7-1.3-1.5c0-1.1 1.1-1.5 2.1-1.5c1.1 0 2.2.4 2.2 1.5c0 .8-.7 1.3-1.3 1.5c.7.2 1.3.7 1.3 1.5c0 1.1-1 1.7-2.2 1.7c-1.2 0-2.2-.6-2.2-1.7c0-.8.7-1.3 1.4-1.5zm.8-2.2c-.7 0-1.2.3-1.2.9c0 .6.9.8 1.2.9c.4-.1 1.3-.3 1.3-.9c0-.6-.6-.9-1.3-.9zm0 2.6c-.3 0-1.3.3-1.3 1c0 .6.6 1 1.3 1c.7 0 1.4-.4 1.4-1c0-.7-1-1-1.4-1zm5.3-3.4c1.7 0 2.4 1.6 2.4 3.1c0 1.4-.7 3.1-2.4 3.1c-1.6 0-2.3-1.7-2.3-3.1c0-1.5.7-3.1 2.3-3.1zm0 .8c-1 0-1.4 1.1-1.4 2.3c0 1.1.4 2.3 1.4 2.3c1.1 0 1.5-1.2 1.5-2.3c0-1.2-.4-2.3-1.5-2.3zm5.5-.8c1.6 0 2.3 1.6 2.3 3.1c0 1.4-.7 3.1-2.3 3.1c-1.7 0-2.4-1.7-2.4-3.1c0-1.5.7-3.1 2.4-3.1zm0 .8c-1.1 0-1.4 1.1-1.4 2.3c0 1.1.3 2.3 1.4 2.3c1 0 1.4-1.2 1.4-2.3c0-1.2-.4-2.3-1.4-2.3zm3.5 4.2c.3 0 .5.3.5.6c0 .3-.2.6-.5.6c-.3 0-.6-.3-.6-.6c0-.3.3-.6.6-.6zm3.7-5c1.7 0 2.4 1.6 2.4 3.1c0 1.4-.7 3.1-2.4 3.1c-1.6 0-2.3-1.7-2.3-3.1c0-1.5.7-3.1 2.3-3.1zm0 .8c-1 0-1.4 1.1-1.4 2.3c0 1.1.4 2.3 1.4 2.3c1.1 0 1.4-1.2 1.4-2.3c0-1.2-.3-2.3-1.4-2.3zm5.5-.8c1.6 0 2.3 1.6 2.3 3.1c0 1.4-.7 3.1-2.3 3.1c-1.7 0-2.4-1.7-2.4-3.1c0-1.5.7-3.1 2.4-3.1zm0 .8c-1.1 0-1.5 1.1-1.5 2.3c0 1.1.4 2.3 1.5 2.3c1 0 1.4-1.2 1.4-2.3c0-1.2-.4-2.3-1.4-2.3z" stroke="none" fill="#242423"/></g><g id="Polygon98203"><path d="m180.2 6.6s2.8-.05 2.8 0c1.1 0 1.7.6 1.7 1.5c0 .7-.5 1.2-1.1 1.4c.7.1 1.2.7 1.2 1.4c0 1-.6 1.7-1.7 1.7c-.03-.05-2.9 0-2.9 0v-6zm2.6 2.5c.6 0 1-.4 1-.9c0-.5-.4-.9-1-.9c.03.04-1.7 0-1.7 0v1.8h1.7zm.1 2.7c.6 0 1-.4 1-1c0-.5-.4-.9-1-.9c-.03-.01-1.8 0-1.8 0v1.9s1.77-.04 1.8 0zm5.6.3c-.3.4-.8.6-1.4.6c-.7 0-1.5-.5-1.5-1.5c0-1 .7-1.4 1.5-1.4c.6 0 1.1.2 1.4.6v-.7c0-.6-.4-.9-1.1-.9c-.5 0-.9.2-1.3.6l-.3-.6c.5-.5 1.1-.7 1.8-.7c.9 0 1.7.4 1.7 1.5v3h-.8v-.5zm0-1.2c-.2-.4-.7-.5-1.1-.5c-.6 0-1 .3-1 .8c0 .5.4.9 1 .9c.4 0 .9-.2 1.1-.5v-.7zm2 .5c.3.3.9.6 1.5.6c.6 0 .9-.2.9-.6c0-.4-.5-.6-1-.7c-.8-.2-1.6-.4-1.6-1.3c0-.7.6-1.3 1.6-1.3c.8 0 1.3.3 1.7.6l-.4.6c-.2-.3-.7-.5-1.3-.5c-.5 0-.9.2-.9.5c0 .4.5.5 1 .7c.8.1 1.7.3 1.7 1.3c0 .8-.6 1.4-1.8 1.4c-.7 0-1.3-.3-1.8-.7l.4-.6zm6-3.3c1.4 0 2.2 1 2.2 2.3c-.04.05 0 .2 0 .2c0 0-3.48.05-3.5 0c.1.8.6 1.4 1.5 1.4c.5 0 1-.2 1.3-.5l.4.5c-.5.4-1.1.7-1.8.7c-1.3 0-2.2-1-2.2-2.3c0-1.3.9-2.3 2.1-2.3zm-1.3 2h2.7c0-.6-.4-1.3-1.4-1.3c-.8 0-1.2.7-1.3 1.3zm8.1-2.8h-1.9v-.7h4.7v.7h-1.9v5.3h-.9V7.3zm4.5.8c1.3 0 2.1 1 2.1 2.3c.02.05 0 .2 0 .2c0 0-3.42.05-3.4 0c0 .8.6 1.4 1.5 1.4c.4 0 .9-.2 1.2-.5l.4.5c-.4.4-1 .7-1.7.7c-1.3 0-2.3-1-2.3-2.3c0-1.3.9-2.3 2.2-2.3zm-1.3 2h2.6c0-.6-.4-1.3-1.3-1.3c-.9 0-1.3.7-1.3 1.3zm4.3-1.9h.9s-.04.67 0 .7c.3-.5.8-.8 1.4-.8v.8h-.3c-.4 0-1 .3-1.1.6c-.04.03 0 3.1 0 3.1h-.9V8.2zm8.3 1.5c0-.5-.2-.9-.8-.9c-.4 0-.8.3-1.1.6c.04.04 0 3.2 0 3.2h-.8s.04-2.94 0-2.9c0-.5-.2-.9-.7-.9c-.5 0-.9.3-1.1.6v3.2h-.8V8.2h.8v.6c.2-.3.8-.7 1.4-.7c.7 0 1.1.3 1.2.8c.2-.4.8-.8 1.5-.8c.8 0 1.2.4 1.2 1.3v3.2h-.8s-.02-2.94 0-2.9z" stroke="none" fill="#242423"/></g><g id="Polygon98202"><path d="m3.4 7.3H.3v-.7h4.2v.6l-2.4 5.4h-1l2.3-5.3zm3.3-.9h.7l-2.2 6.3h-.6l2.1-6.3zm2.2 1.3l-.9 1l-.6-.5l1.7-1.6h.7v6h-.9V7.7zm4.3-1.2c1.7 0 2.3 1.6 2.3 3.1c0 1.4-.6 3.1-2.3 3.1c-1.7 0-2.4-1.7-2.4-3.1c0-1.5.7-3.1 2.4-3.1zm0 .8c-1.1 0-1.4 1.1-1.4 2.3c0 1.1.3 2.3 1.4 2.3c1 0 1.4-1.2 1.4-2.3c0-1.2-.4-2.3-1.4-2.3zm4.8-.9h.6l-2.1 6.3h-.6L18 6.4zm1 5.4c2.2-1.7 3.3-2.6 3.3-3.5c0-.7-.6-1-1.2-1c-.7 0-1.3.3-1.6.7l-.6-.6c.5-.6 1.4-.9 2.2-.9c1.1 0 2.1.6 2.1 1.8c0 1.1-1.1 2.2-2.8 3.5c.02-.04 2.8 0 2.8 0v.8H19v-.8zm7.5-5.3c1.7 0 2.4 1.6 2.4 3.1c0 1.4-.7 3.1-2.4 3.1c-1.7 0-2.3-1.7-2.3-3.1c0-1.5.6-3.1 2.3-3.1zm0 .8c-1 0-1.4 1.1-1.4 2.3c0 1.1.4 2.3 1.4 2.3c1.1 0 1.4-1.2 1.4-2.3c0-1.2-.3-2.3-1.4-2.3zm4.4.4l-1 1l-.6-.5L31 6.6h.8v6h-.9V7.7zm2.6 3.6c.3.3.6.6 1.2.6c1.2 0 1.7-1.1 1.7-2.2v-.2c-.3.4-1 .9-1.7.9c-1.1 0-2-.7-2-2c0-1 .9-1.9 2.2-1.9c1.7 0 2.4 1.4 2.4 3.1c0 1.6-.9 3.1-2.6 3.1c-.7 0-1.3-.3-1.7-.7l.5-.7zm1.4-4c-.8 0-1.3.6-1.3 1.1c0 .8.6 1.2 1.3 1.2c.6 0 1.1-.3 1.4-.8c0-.7-.4-1.5-1.4-1.5zm5.2 2.7h2.2v.7h-2.2v-.7zm8-2.7h-3.2v-.7h4.2v.6l-2.3 5.4h-1l2.3-5.3zm3.3-.9h.6l-2.1 6.3h-.6l2.1-6.3zm3.3.1c1.7 0 2.4 1.6 2.4 3.1c0 1.4-.7 3.1-2.4 3.1c-1.6 0-2.3-1.7-2.3-3.1c0-1.5.7-3.1 2.3-3.1zm0 .8c-1 0-1.4 1.1-1.4 2.3c0 1.1.4 2.3 1.4 2.3c1.1 0 1.5-1.2 1.5-2.3c0-1.2-.4-2.3-1.5-2.3zm3.8 4c.3.3.7.6 1.3.6c1.1 0 1.6-1.1 1.6-2.2v-.2c-.2.4-.9.9-1.6.9c-1.1 0-2-.7-2-2c0-1 .8-1.9 2.1-1.9c1.8 0 2.4 1.4 2.4 3.1c0 1.6-.8 3.1-2.5 3.1c-.8 0-1.3-.3-1.7-.7l.4-.7zm1.5-4c-.9 0-1.3.6-1.3 1.1c0 .8.6 1.2 1.3 1.2c.6 0 1.1-.3 1.4-.8c0-.7-.4-1.5-1.4-1.5zm4.8-.9h.6l-2.1 6.3h-.6l2.1-6.3zm1 5.4c2.2-1.7 3.3-2.6 3.3-3.5c0-.7-.6-1-1.2-1c-.7 0-1.2.3-1.6.7l-.5-.6c.4-.6 1.3-.9 2.1-.9c1.1 0 2.1.6 2.1 1.8c0 1.1-1.1 2.2-2.8 3.5c.03-.04 2.8 0 2.8 0v.8h-4.2v-.8zm7.5-5.3c1.7 0 2.4 1.6 2.4 3.1c0 1.4-.7 3.1-2.4 3.1c-1.6 0-2.3-1.7-2.3-3.1c0-1.5.7-3.1 2.3-3.1zm0 .8c-1 0-1.4 1.1-1.4 2.3c0 1.1.4 2.3 1.4 2.3c1.1 0 1.5-1.2 1.5-2.3c0-1.2-.4-2.3-1.5-2.3zm3.2 4.5c2.2-1.7 3.2-2.6 3.2-3.5c0-.7-.5-1-1.1-1c-.7 0-1.3.3-1.7.7l-.5-.6c.5-.6 1.3-.9 2.2-.9c1 0 2.1.6 2.1 1.8c0 1.1-1.2 2.2-2.8 3.5c-.01-.04 2.8 0 2.8 0v.8h-4.2s-.04-.76 0-.8zm7.8-.7h-2.8v-.7L84 6.6h1.2v3.7h.9v.8h-.9v1.5h-.9v-1.5zm-1.9-.8h1.9V7.4l-1.9 2.9z" stroke="none" fill="#242423"/></g><g id="Rectangle98206"><path d="m511.3 10h2.2v.7h-2.2v-.7z" stroke="none" fill="#242423"/></g></svg>