<?xml version="1.0" standalone="no"?><!DOCTYPE svg PUBLIC "-//W3C//DTD SVG 1.1//EN" "http://www.w3.org/Graphics/SVG/1.1/DTD/svg11.dtd"><svg xmlns="http://www.w3.org/2000/svg" version="1.1" width="215px" height="28.3px" viewBox="0 -6 215 28.3" style="top:-6px"><desc>CREDIT RATING</desc><defs/><g id="Polygon292475"><path d="m.7 7.3C.7 4 3.1 1.8 6.2 1.8c2 0 3.3 1 4.2 2.2L9 4.7c-.5-.9-1.6-1.5-2.8-1.5c-2.2 0-3.8 1.7-3.8 4.1c0 2.3 1.6 4 3.8 4c1.2 0 2.3-.6 2.8-1.5l1.4.7c-.9 1.2-2.2 2.2-4.2 2.2c-3.1 0-5.5-2.2-5.5-5.4zm14.7 1.2h-2v4h-1.6V2s4.46-.05 4.5 0c2 0 3.4 1.3 3.4 3.2c0 1.9-1.3 2.9-2.7 3.1c.02 0 2.7 4.2 2.7 4.2h-1.8l-2.5-4zm.7-5.2c-.05.05-2.7 0-2.7 0v3.8s2.65-.03 2.7 0c1.1 0 1.9-.8 1.9-1.9c0-1.1-.8-1.9-1.9-1.9zM21.5 2h7.1v1.3H23v3.1h5.5v1.4H23v3.3h5.6v1.4h-7.1V2zm8.9 0s3.77-.05 3.8 0c3.3 0 5.5 2.2 5.5 5.3c0 3-2.2 5.2-5.5 5.2c-.03.04-3.8 0-3.8 0V2zm3.8 9.1c2.4 0 3.8-1.7 3.8-3.8c0-2.2-1.3-4-3.8-4c-.03.05-2.2 0-2.2 0v7.8s2.17.05 2.2 0zM41.4 2h1.6v10.5h-1.6V2zm6.4 1.3h-3.3V2h8.2v1.3h-3.3v9.2h-1.6V3.3zm13.9 5.2h-2v4h-1.6V2s4.47-.05 4.5 0c2 0 3.4 1.3 3.4 3.2c0 1.9-1.3 2.9-2.7 3.1c.03 0 2.7 4.2 2.7 4.2h-1.8l-2.5-4zm.7-5.2c-.04.05-2.7 0-2.7 0v3.8s2.66-.03 2.7 0c1.1 0 1.9-.8 1.9-1.9c0-1.1-.8-1.9-1.9-1.9zm12.1 7.1h-5.2l-.9 2.1h-1.7L70.9 2h2l4.2 10.5h-1.8l-.8-2.1zm-4.8-1.5h4.3l-2.1-5.6l-2.2 5.6zm10-5.6h-3.3V2h8.2v1.3h-3.3v9.2h-1.6V3.3zM86.1 2h1.6v10.5h-1.6V2zm5.4 2.4v8.1h-1.6V2h1.6l5.8 7.9V2h1.6v10.5h-1.6l-5.8-8.1zm14.6-2.6c2 0 3.3.9 4.2 2.1l-1.3.7c-.6-.8-1.7-1.4-2.9-1.4c-2.2 0-3.9 1.7-3.9 4.1c0 2.3 1.7 4 3.9 4c1.2 0 2.2-.5 2.7-1c-.02-.01 0-1.9 0-1.9h-3.4V7h5s-.04 3.88 0 3.9c-1.1 1.1-2.5 1.9-4.3 1.9c-3 0-5.5-2.2-5.5-5.5c0-3.3 2.5-5.5 5.5-5.5z" stroke="none" fill="#3797ef"/></g></svg>