<?xml version="1.0" standalone="no"?><!DOCTYPE svg PUBLIC "-//W3C//DTD SVG 1.1//EN" "http://www.w3.org/Graphics/SVG/1.1/DTD/svg11.dtd"><svg xmlns="http://www.w3.org/2000/svg" version="1.1" width="77px" height="15.9px" viewBox="0 -4 77 15.9" style="top:-4px"><desc>147,475</desc><defs/><g id="Polygon110788"><path d="m50.7 1.8l-1 1l-.3-.3l1.3-1.4h.5v6h-.5V1.8zm4.4 3.7h-2.8v-.5l2.6-3.9h.7v3.9h.9v.5h-.9v1.6h-.5V5.5zM52.8 5h2.3V1.6L52.8 5zm7.6-3.4h-3.3v-.5h3.9v.4l-2.5 5.6h-.6l2.5-5.5zM61 8c.3-.2.5-.6.5-.8h-.1c-.2 0-.4-.2-.4-.4c0-.2.2-.4.4-.4c.3 0 .5.2.5.6c0 .5-.3 1-.7 1.2L61 8zm4.6-2.5h-2.9v-.5l2.7-3.9h.7v3.9h.9v.5h-.9v1.6h-.5V5.5zM63.3 5h2.3V1.6L63.3 5zm7.6-3.4h-3.3v-.5h3.9v.4l-2.6 5.6h-.5l2.5-5.5zm1.9 4.3c.4.5.9.9 1.7.9c.9 0 1.5-.7 1.5-1.5c0-.9-.6-1.5-1.5-1.5c-.5 0-1 .2-1.5.6l-.4-.1V1.1h3.5v.5h-2.9s-.03 2.32 0 2.3c.3-.3.8-.5 1.4-.5c1 0 1.9.6 1.9 1.9c0 1.2-.9 1.9-2 1.9c-1 0-1.6-.4-2-1l.3-.3z" stroke="none" fill="#000"/></g></svg>