<?xml version="1.0" standalone="no"?><!DOCTYPE svg PUBLIC "-//W3C//DTD SVG 1.1//EN" "http://www.w3.org/Graphics/SVG/1.1/DTD/svg11.dtd"><svg xmlns="http://www.w3.org/2000/svg" xmlns:xlink="http://www.w3.org/1999/xlink" version="1.1" width="134px" height="32.3px" viewBox="0 -7 134 32.3" style="top:-7px"><desc/><defs/><g id="Polygon79884"><path d="m13.2 6.9l7-3.6v.8L14 7.2l6.2 3.1v.8l-7-3.6v-.6zm7.9 0L28 3.3v.8l-6.1 3.1l6.1 3.1v.8l-6.9-3.6v-.6zm8.3 4.9c3.6-2.9 6-5 6-7c0-1.5-1.3-2.2-2.4-2.2c-1.3 0-2.3.6-2.9 1.4l-.6-.6c.7-1 2-1.6 3.5-1.6c1.5 0 3.3.9 3.3 3c0 2.3-2.4 4.4-5.5 6.9c0 .02 5.6 0 5.6 0v.8h-7s-.02-.7 0-.7zm13.2-10c2.8 0 3.9 2.9 3.9 5.5c0 2.5-1.1 5.4-3.9 5.4c-2.9 0-3.9-2.9-3.9-5.4c0-2.6 1-5.5 3.9-5.5zm0 .8c-2.3 0-3 2.5-3 4.7c0 2.1.7 4.6 3 4.6c2.2 0 2.9-2.5 2.9-4.6c0-2.2-.7-4.7-2.9-4.7zm7.5.6L48.4 5l-.6-.6L50.1 2h.9v10.5h-.9V3.2zm7-1.4C60 1.8 61 4.7 61 7.3c0 2.5-1 5.4-3.9 5.4c-2.8 0-3.9-2.9-3.9-5.4c0-2.6 1.1-5.5 3.9-5.5zm0 .8c-2.2 0-2.9 2.5-2.9 4.7c0 2.1.7 4.6 2.9 4.6c2.2 0 3-2.5 3-4.6c0-2.2-.8-4.7-3-4.7zM67 7.3c0-3.3 2.3-5.5 5.3-5.5c1.7 0 3 .7 3.9 1.9l-.8.4c-.6-.9-1.8-1.5-3.1-1.5c-2.5 0-4.4 1.9-4.4 4.7c0 2.7 1.9 4.6 4.4 4.6c1.3 0 2.5-.6 3.1-1.5l.8.4c-.9 1.2-2.2 1.9-3.9 1.9c-3 0-5.3-2.2-5.3-5.4zm14.3-2.6c2.3 0 3.6 1.8 3.6 4c-.02.05 0 .3 0 .3c0 0-6.43-.03-6.4 0c0 1.6 1.2 3 3 3c.9 0 1.8-.3 2.5-1l.4.5c-.8.8-1.7 1.2-3 1.2c-2.2 0-3.8-1.6-3.8-4c0-2.2 1.5-4 3.7-4zm-2.8 3.6h5.5c0-1.3-.8-2.9-2.8-2.9c-1.8 0-2.7 1.6-2.7 2.9zm13.7-.9c0-1.5-.8-2-1.9-2c-1 0-2 .7-2.5 1.3c.04.05 0 5.8 0 5.8h-.8V4.9h.8s.04 1.13 0 1.1c.6-.6 1.7-1.3 2.8-1.3c1.6 0 2.4.7 2.4 2.5v5.3h-.8V7.4zm3.2 3.5c.5.6 1.4 1.1 2.5 1.1c1.3 0 2-.6 2-1.5c0-1-1-1.3-2.1-1.5c-1.3-.4-2.7-.7-2.7-2.2c0-1.2 1-2.1 2.7-2.1c1.3 0 2.2.5 2.8 1.1l-.5.6c-.4-.6-1.3-1-2.3-1c-1.2 0-1.9.6-1.9 1.4c0 .8 1 1.1 2.1 1.3c1.3.4 2.7.7 2.7 2.4c0 1.2-.9 2.2-2.8 2.2c-1.3 0-2.2-.3-3-1.2l.5-.6zm12.7.5c-.7.7-1.7 1.3-2.8 1.3c-1.6 0-2.4-.7-2.4-2.4c-.02-.02 0-5.4 0-5.4h.8v5.2c0 1.5.7 1.9 1.9 1.9c.9 0 1.9-.6 2.5-1.3c-.05.02 0-5.8 0-5.8h.8v7.6h-.8s-.05-1.08 0-1.1zm3.2-.5c.5.6 1.4 1.1 2.5 1.1c1.2 0 2-.6 2-1.5c0-1-1-1.3-2.2-1.5c-1.2-.4-2.6-.7-2.6-2.2c0-1.2.9-2.1 2.7-2.1c1.3 0 2.2.5 2.7 1.1l-.4.6c-.5-.6-1.3-1-2.3-1c-1.2 0-1.9.6-1.9 1.4c0 .8 1 1.1 2 1.3c1.3.4 2.8.7 2.8 2.4c0 1.2-1 2.2-2.9 2.2c-1.2 0-2.2-.3-2.9-1.2l.5-.6zM122 8.3h3.9v.8H122v-.8zm11.1-5.1L131.4 5l-.6-.6l2.4-2.4h.8v10.5h-.9V3.2z" stroke="none" fill="#000"/><a xlink:href="DBF_2010%20Census%20-%201%20Mile1" xlink:show="new" xlink:title="&lt;&lt;2010 Census - 1 Mile1&gt;&gt;"><rect style="fill:transparent;" x="12" y="1" width="122" height="12"/></a></g></svg>