<?xml version="1.0" standalone="no"?>
<!DOCTYPE svg PUBLIC "-//W3C//DTD SVG 1.1//EN" "http://www.w3.org/Graphics/SVG/1.1/DTD/svg11.dtd">
<svg xmlns="http://www.w3.org/2000/svg" version="1.1" width="85px" height="65.9px" viewBox="0 -11 85 65.9" style="top:-11px">
  <desc>Agent 1</desc>
  <defs/>
  <g id="Polygon238413">
    <path d="M 4.7 41.9 L 2.8 41.9 L 2.8 46 L 1.2 46 L 1.2 35.4 C 1.2 35.4 5.64 35.36 5.6 35.4 C 7.7 35.4 9 36.7 9 38.6 C 9 40.5 7.8 41.5 6.4 41.7 C 6.4 41.71 9.1 46 9.1 46 L 7.3 46 L 4.7 41.9 Z M 5.4 36.8 C 5.43 36.76 2.8 36.8 2.8 36.8 L 2.8 40.5 C 2.8 40.5 5.43 40.47 5.4 40.5 C 6.6 40.5 7.4 39.7 7.4 38.6 C 7.4 37.5 6.6 36.8 5.4 36.8 Z M 13.7 38.1 C 16 38.1 17.4 39.9 17.4 42.2 C 17.42 42.24 17.4 42.6 17.4 42.6 C 17.4 42.6 11.35 42.58 11.4 42.6 C 11.5 43.9 12.4 45 14 45 C 14.8 45 15.7 44.7 16.2 44.1 C 16.2 44.1 16.9 45 16.9 45 C 16.1 45.7 15.1 46.1 13.8 46.1 C 11.5 46.1 9.8 44.5 9.8 42.1 C 9.8 39.9 11.5 38.1 13.7 38.1 Z M 11.3 41.6 C 11.3 41.6 16 41.6 16 41.6 C 16 40.5 15.3 39.3 13.7 39.3 C 12.1 39.3 11.4 40.5 11.3 41.6 Z M 24.2 41 C 24.2 39.8 23.6 39.4 22.6 39.4 C 21.7 39.4 20.9 39.9 20.5 40.5 C 20.49 40.47 20.5 46 20.5 46 L 19.1 46 L 19.1 38.3 L 20.5 38.3 C 20.5 38.3 20.49 39.36 20.5 39.4 C 21 38.7 22 38.1 23.2 38.1 C 24.8 38.1 25.7 38.9 25.7 40.6 C 25.66 40.57 25.7 46 25.7 46 L 24.2 46 C 24.2 46 24.24 41.04 24.2 41 Z M 28.1 44.3 C 28.06 44.25 28.1 39.5 28.1 39.5 L 26.8 39.5 L 26.8 38.3 L 28.1 38.3 L 28.1 36.2 L 29.5 36.2 L 29.5 38.3 L 31 38.3 L 31 39.5 L 29.5 39.5 C 29.5 39.5 29.49 43.94 29.5 43.9 C 29.5 44.5 29.7 44.9 30.2 44.9 C 30.6 44.9 30.9 44.7 31 44.6 C 31 44.6 31.4 45.7 31.4 45.7 C 31.1 45.9 30.6 46.1 29.9 46.1 C 28.7 46.1 28.1 45.5 28.1 44.3 Z M 39 35 L 40.1 35 L 36.4 46.3 L 35.3 46.3 L 39 35 Z M 45.3 43.2 C 46.1 44 47.2 44.7 48.7 44.7 C 50.4 44.7 51 43.9 51 43.1 C 51 42 49.8 41.7 48.4 41.3 C 46.7 40.9 44.8 40.4 44.8 38.2 C 44.8 36.5 46.3 35.2 48.5 35.2 C 50.2 35.2 51.4 35.7 52.4 36.7 C 52.4 36.7 51.5 37.9 51.5 37.9 C 50.6 37 49.5 36.6 48.4 36.6 C 47.2 36.6 46.4 37.2 46.4 38.1 C 46.4 39.1 47.6 39.4 48.9 39.7 C 50.6 40.2 52.6 40.7 52.6 43 C 52.6 44.6 51.5 46.1 48.6 46.1 C 46.7 46.1 45.3 45.5 44.4 44.5 C 44.4 44.5 45.3 43.2 45.3 43.2 Z M 54.3 35.4 L 61.4 35.4 L 61.4 36.8 L 55.9 36.8 L 55.9 39.9 L 61.3 39.9 L 61.3 41.3 L 55.9 41.3 L 55.9 46 L 54.3 46 L 54.3 35.4 Z " stroke="none" fill="#3797ef"/>
  </g>
  <g id="Polygon238412">
    <path d="M 10.8 18 C 10.8 18 10.8 20.9 10.8 20.9 C 10.8 23.4 9.5 24.6 7.4 24.9 C 7.4 24.89 7.4 27 7.4 27 L 4.5 27 C 4.5 27 4.49 24.92 4.5 24.9 C 2.3 24.6 1 23.4 1 20.9 C 1.02 20.88 1 17.4 1 17.4 L 4.2 17.4 C 4.2 17.4 4.24 20.43 4.2 20.4 C 4.2 21.6 4.9 22.2 5.9 22.2 C 6.9 22.2 7.6 21.6 7.6 20.4 C 7.6 20.4 7.6 18.9 7.6 18.9 C 7.6 17.9 7.3 17.4 6.3 16.8 C 6.3 16.8 4 15.5 4 15.5 C 2.1 14.4 1 13.5 1 11.4 C 1 11.4 1 8.9 1 8.9 C 1 6.4 2.5 5.2 4.5 4.9 C 4.49 4.9 4.5 2.8 4.5 2.8 L 7.4 2.8 C 7.4 2.8 7.4 4.9 7.4 4.9 C 9.4 5.3 10.8 6.5 10.8 8.9 C 10.79 8.85 10.8 12.1 10.8 12.1 L 7.6 12.1 C 7.6 12.1 7.57 9.3 7.6 9.3 C 7.6 8.1 6.9 7.6 5.9 7.6 C 4.9 7.6 4.2 8.1 4.2 9.3 C 4.2 9.3 4.2 10.7 4.2 10.7 C 4.2 11.7 4.6 12.1 5.5 12.7 C 5.5 12.7 7.8 14 7.8 14 C 9.7 15 10.8 15.9 10.8 18 Z M 22.5 9 C 22.5 9 22.5 20.8 22.5 20.8 C 22.5 23.8 20.8 25 17.8 25 C 17.8 25 17.6 25 17.6 25 C 14.6 25 12.8 23.8 12.8 20.8 C 12.8 20.8 12.8 9 12.8 9 C 12.8 6 14.6 4.8 17.6 4.8 C 17.6 4.8 17.8 4.8 17.8 4.8 C 20.8 4.8 22.5 6 22.5 9 Z M 17.7 7.7 C 16.6 7.7 16 8.1 16 9.5 C 16 9.5 16 20.3 16 20.3 C 16 21.7 16.6 22.1 17.7 22.1 C 18.7 22.1 19.4 21.7 19.4 20.3 C 19.4 20.3 19.4 9.5 19.4 9.5 C 19.4 8.1 18.7 7.7 17.7 7.7 Z M 34.6 9 C 34.6 9 34.6 20.8 34.6 20.8 C 34.6 23.8 32.8 25 29.8 25 C 29.8 25 29.6 25 29.6 25 C 26.6 25 24.8 23.8 24.8 20.8 C 24.8 20.8 24.8 9 24.8 9 C 24.8 6 26.6 4.8 29.6 4.8 C 29.6 4.8 29.8 4.8 29.8 4.8 C 32.8 4.8 34.6 6 34.6 9 Z M 29.7 7.7 C 28.7 7.7 28 8.1 28 9.5 C 28 9.5 28 20.3 28 20.3 C 28 21.7 28.7 22.1 29.7 22.1 C 30.7 22.1 31.4 21.7 31.4 20.3 C 31.4 20.3 31.4 9.5 31.4 9.5 C 31.4 8.1 30.7 7.7 29.7 7.7 Z M 46.6 9 C 46.6 9 46.6 20.8 46.6 20.8 C 46.6 23.8 44.8 25 41.8 25 C 41.8 25 41.6 25 41.6 25 C 38.7 25 36.9 23.8 36.9 20.8 C 36.9 20.8 36.9 9 36.9 9 C 36.9 6 38.7 4.8 41.6 4.8 C 41.6 4.8 41.8 4.8 41.8 4.8 C 44.8 4.8 46.6 6 46.6 9 Z M 41.7 7.7 C 40.7 7.7 40 8.1 40 9.5 C 40 9.5 40 20.3 40 20.3 C 40 21.7 40.7 22.1 41.7 22.1 C 42.8 22.1 43.4 21.7 43.4 20.3 C 43.4 20.3 43.4 9.5 43.4 9.5 C 43.4 8.1 42.8 7.7 41.7 7.7 Z " stroke="none" fill="#282828"/>
  </g>
</svg>