<?xml version="1.0" standalone="no"?>
<!DOCTYPE svg PUBLIC "-//W3C//DTD SVG 1.1//EN" "http://www.w3.org/Graphics/SVG/1.1/DTD/svg11.dtd">
<svg xmlns="http://www.w3.org/2000/svg" version="1.1" width="85px" height="65.9px" viewBox="0 -11 85 65.9" style="top:-11px">
  <desc>Agent 1</desc>
  <defs/>
  <g id="Polygon207425">
    <path d="M 15.5 42.2 L 13.5 42.2 L 13.5 46.3 L 11.9 46.3 L 11.9 35.7 C 11.9 35.7 16.4 35.68 16.4 35.7 C 18.4 35.7 19.8 37 19.8 38.9 C 19.8 40.8 18.5 41.9 17.2 42 C 17.16 42.03 19.9 46.3 19.9 46.3 L 18 46.3 L 15.5 42.2 Z M 16.2 37.1 C 16.19 37.07 13.5 37.1 13.5 37.1 L 13.5 40.8 C 13.5 40.8 16.19 40.79 16.2 40.8 C 17.3 40.8 18.2 40 18.2 38.9 C 18.2 37.8 17.3 37.1 16.2 37.1 Z M 24.6 38.4 C 26.9 38.4 28.3 40.2 28.3 42.6 C 28.34 42.55 28.3 42.9 28.3 42.9 C 28.3 42.9 22.27 42.9 22.3 42.9 C 22.4 44.2 23.3 45.3 24.9 45.3 C 25.7 45.3 26.6 45 27.1 44.4 C 27.1 44.4 27.8 45.3 27.8 45.3 C 27.1 46.1 26 46.5 24.7 46.5 C 22.4 46.5 20.8 44.8 20.8 42.4 C 20.8 40.2 22.4 38.4 24.6 38.4 Z M 22.3 41.9 C 22.3 41.9 26.9 41.9 26.9 41.9 C 26.9 40.9 26.2 39.6 24.6 39.6 C 23.1 39.6 22.3 40.8 22.3 41.9 Z M 35.3 41.4 C 35.3 40.1 34.7 39.7 33.7 39.7 C 32.8 39.7 32 40.2 31.6 40.8 C 31.56 40.79 31.6 46.3 31.6 46.3 L 30.1 46.3 L 30.1 38.6 L 31.6 38.6 C 31.6 38.6 31.56 39.68 31.6 39.7 C 32.1 39.1 33.1 38.4 34.3 38.4 C 35.9 38.4 36.7 39.3 36.7 40.9 C 36.74 40.89 36.7 46.3 36.7 46.3 L 35.3 46.3 C 35.3 46.3 35.31 41.36 35.3 41.4 Z M 39.3 44.6 C 39.3 44.57 39.3 39.9 39.3 39.9 L 38 39.9 L 38 38.6 L 39.3 38.6 L 39.3 36.5 L 40.7 36.5 L 40.7 38.6 L 42.3 38.6 L 42.3 39.9 L 40.7 39.9 C 40.7 39.9 40.73 44.25 40.7 44.3 C 40.7 44.8 41 45.2 41.5 45.2 C 41.8 45.2 42.1 45 42.3 44.9 C 42.3 44.9 42.6 46 42.6 46 C 42.3 46.3 41.9 46.5 41.1 46.5 C 39.9 46.5 39.3 45.8 39.3 44.6 Z M 50.6 35.4 L 51.7 35.4 L 47.9 46.6 L 46.8 46.6 L 50.6 35.4 Z M 57.2 43.6 C 57.9 44.3 59.1 45 60.5 45 C 62.3 45 62.9 44.2 62.9 43.4 C 62.9 42.3 61.7 42 60.3 41.6 C 58.6 41.2 56.6 40.7 56.6 38.5 C 56.6 36.8 58.2 35.5 60.4 35.5 C 62 35.5 63.3 36 64.2 37 C 64.2 37 63.3 38.2 63.3 38.2 C 62.5 37.3 61.4 36.9 60.3 36.9 C 59.1 36.9 58.3 37.5 58.3 38.4 C 58.3 39.4 59.4 39.7 60.7 40 C 62.5 40.5 64.5 41 64.5 43.3 C 64.5 44.9 63.3 46.5 60.5 46.5 C 58.6 46.5 57.2 45.8 56.3 44.8 C 56.3 44.8 57.2 43.6 57.2 43.6 Z M 66.3 35.7 L 73.4 35.7 L 73.4 37.1 L 67.9 37.1 L 67.9 40.2 L 73.3 40.2 L 73.3 41.6 L 67.9 41.6 L 67.9 46.3 L 66.3 46.3 L 66.3 35.7 Z " stroke="none" fill="#3797ef"/>
  </g>
  <g id="Polygon207424">
    <path d="M 28.8 18.3 C 28.8 18.3 28.8 21.2 28.8 21.2 C 28.8 23.7 27.5 24.9 25.4 25.2 C 25.4 25.21 25.4 27.3 25.4 27.3 L 22.5 27.3 C 22.5 27.3 22.49 25.24 22.5 25.2 C 20.3 24.9 19 23.8 19 21.2 C 19.02 21.2 19 17.8 19 17.8 L 22.2 17.8 C 22.2 17.8 22.24 20.75 22.2 20.7 C 22.2 22 22.9 22.5 23.9 22.5 C 24.9 22.5 25.6 22 25.6 20.7 C 25.6 20.7 25.6 19.2 25.6 19.2 C 25.6 18.2 25.3 17.7 24.3 17.1 C 24.3 17.1 22 15.8 22 15.8 C 20.1 14.7 19 13.8 19 11.8 C 19 11.8 19 9.2 19 9.2 C 19 6.7 20.5 5.6 22.5 5.2 C 22.49 5.22 22.5 3.1 22.5 3.1 L 25.4 3.1 C 25.4 3.1 25.4 5.22 25.4 5.2 C 27.4 5.6 28.8 6.8 28.8 9.2 C 28.79 9.17 28.8 12.4 28.8 12.4 L 25.6 12.4 C 25.6 12.4 25.57 9.62 25.6 9.6 C 25.6 8.4 24.9 7.9 23.9 7.9 C 22.9 7.9 22.2 8.4 22.2 9.6 C 22.2 9.6 22.2 11 22.2 11 C 22.2 12 22.6 12.4 23.5 13 C 23.5 13 25.8 14.3 25.8 14.3 C 27.7 15.4 28.8 16.2 28.8 18.3 Z M 40.8 9.3 C 40.8 9.3 40.8 21.1 40.8 21.1 C 40.8 24.1 39 25.3 36.1 25.3 C 36.1 25.3 35.8 25.3 35.8 25.3 C 32.9 25.3 31.1 24.1 31.1 21.1 C 31.1 21.1 31.1 9.3 31.1 9.3 C 31.1 6.3 32.9 5.1 35.8 5.1 C 35.8 5.1 36.1 5.1 36.1 5.1 C 39 5.1 40.8 6.3 40.8 9.3 Z M 36 8 C 34.9 8 34.3 8.4 34.3 9.8 C 34.3 9.8 34.3 20.6 34.3 20.6 C 34.3 22 34.9 22.4 36 22.4 C 37 22.4 37.7 22 37.7 20.6 C 37.7 20.6 37.7 9.8 37.7 9.8 C 37.7 8.4 37 8 36 8 Z M 53.1 9.3 C 53.1 9.3 53.1 21.1 53.1 21.1 C 53.1 24.1 51.3 25.3 48.4 25.3 C 48.4 25.3 48.2 25.3 48.2 25.3 C 45.2 25.3 43.4 24.1 43.4 21.1 C 43.4 21.1 43.4 9.3 43.4 9.3 C 43.4 6.3 45.2 5.1 48.2 5.1 C 48.2 5.1 48.4 5.1 48.4 5.1 C 51.3 5.1 53.1 6.3 53.1 9.3 Z M 48.3 8 C 47.2 8 46.6 8.4 46.6 9.8 C 46.6 9.8 46.6 20.6 46.6 20.6 C 46.6 22 47.2 22.4 48.3 22.4 C 49.3 22.4 50 22 50 20.6 C 50 20.6 50 9.8 50 9.8 C 50 8.4 49.3 8 48.3 8 Z M 65.4 9.3 C 65.4 9.3 65.4 21.1 65.4 21.1 C 65.4 24.1 63.7 25.3 60.7 25.3 C 60.7 25.3 60.5 25.3 60.5 25.3 C 57.5 25.3 55.7 24.1 55.7 21.1 C 55.7 21.1 55.7 9.3 55.7 9.3 C 55.7 6.3 57.5 5.1 60.5 5.1 C 60.5 5.1 60.7 5.1 60.7 5.1 C 63.7 5.1 65.4 6.3 65.4 9.3 Z M 60.6 8 C 59.5 8 58.9 8.4 58.9 9.8 C 58.9 9.8 58.9 20.6 58.9 20.6 C 58.9 22 59.5 22.4 60.6 22.4 C 61.6 22.4 62.3 22 62.3 20.6 C 62.3 20.6 62.3 9.8 62.3 9.8 C 62.3 8.4 61.6 8 60.6 8 Z " stroke="none" fill="#282828"/>
  </g>
</svg>