<?xml version="1.0" standalone="no"?><!DOCTYPE svg PUBLIC "-//W3C//DTD SVG 1.1//EN" "http://www.w3.org/Graphics/SVG/1.1/DTD/svg11.dtd"><svg xmlns="http://www.w3.org/2000/svg" xmlns:xlink="http://www.w3.org/1999/xlink" version="1.1" width="267px" height="54.4px" viewBox="0 -13 267 54.4" style="top:-13px"><desc>Agent 1</desc><defs/><g id="Polygon49030"><path d="m175.2 3.2c2.8 0 4.7 2 4.7 4.7c0 2.6-1.9 4.6-4.7 4.6c-2.7 0-4.5-2-4.5-4.6c0-2.7 1.8-4.7 4.5-4.7zm10.3.3h1.7l-12.1 18.8h-1.7l12.1-18.8zm-10.3 1.4c-1.5 0-2.6 1.2-2.6 3c0 1.7 1.1 3 2.6 3c1.6 0 2.7-1.3 2.7-3c0-1.8-1.1-3-2.7-3zm10 8.4c2.8 0 4.6 2.1 4.6 4.7c0 2.6-1.8 4.6-4.6 4.6c-2.7 0-4.6-2-4.6-4.6c0-2.6 1.9-4.7 4.6-4.7zm0 1.7c-1.6 0-2.7 1.3-2.7 3c0 1.7 1.1 3 2.7 3c1.6 0 2.7-1.3 2.7-3c0-1.7-1.1-3-2.7-3z" stroke="none" fill="#282828"/></g><g id="Polygon49029"><path d="m0 11.9l12.5-6v2.1L2 12.9l10.5 4.9v2L0 13.8v-1.9zm13.8 0l12.5-6v2.1l-10.5 4.9l10.5 4.9v2l-12.5-6v-1.9zm14.4 1c0-5.8 4.2-9.7 9.6-9.7c3.7 0 6 1.7 7.5 3.9l-2.4 1.3c-1-1.6-2.9-2.7-5.1-2.7c-3.8 0-6.7 3-6.7 7.2c0 4.2 2.9 7.2 6.7 7.2c2.2 0 4.1-1.1 5.1-2.7l2.4 1.3c-1.5 2.2-3.8 3.9-7.5 3.9c-5.4 0-9.6-3.9-9.6-9.7zm31.4 5.5h-9.2l-1.5 3.9h-3.1l7.5-18.8h3.5l7.5 18.8h-3.1l-1.6-3.9zm-8.4-2.5h7.6L55 5.9l-3.8 10zm15-12.4s7.97-.03 8 0c3.8 0 6 2.6 6 5.8c0 3.1-2.2 5.7-6 5.7c-.03.05-5.1 0-5.1 0v7.3h-2.9V3.5zM73.8 6c.01-.04-4.7 0-4.7 0v6.6s4.71-.04 4.7 0c2 0 3.5-1.4 3.5-3.3c0-2-1.5-3.3-3.5-3.3zm22.4 9h-3.6v7.3h-2.8V3.5s7.95-.03 7.9 0c3.6 0 6.1 2.3 6.1 5.8c0 3.3-2.3 5.2-4.7 5.5c0-.03 4.8 7.5 4.8 7.5h-3.2L96.2 15zm1.2-9c-.02-.04-4.8 0-4.8 0v6.6s4.78-.04 4.8 0c2 0 3.5-1.4 3.5-3.3c0-2-1.5-3.3-3.5-3.3zm17.4 14.8c-1.1 1.2-2.7 1.8-4.5 1.8c-2.2 0-4.7-1.5-4.7-4.5c0-3.1 2.4-4.4 4.7-4.4c1.8 0 3.4.6 4.5 1.8v-2.3c0-1.7-1.4-2.7-3.4-2.7c-1.5 0-2.8.6-4.1 1.8l-1.1-1.7c1.6-1.5 3.4-2.3 5.6-2.3c3 0 5.5 1.3 5.5 4.8c.02 0 0 9.2 0 9.2h-2.5s-.02-1.49 0-1.5zm0-3.8c-.8-1-2.1-1.6-3.5-1.6c-1.9 0-3.2 1.1-3.2 2.8c0 1.6 1.3 2.7 3.2 2.7c1.4 0 2.7-.6 3.5-1.6V17zm6.8 2.3v-8.4h-2.3V8.7h2.3V4.9h2.5v3.8h2.8v2.2h-2.8s.05 7.82 0 7.8c0 1 .5 1.7 1.4 1.7c.6 0 1.1-.3 1.4-.6l.6 2c-.5.5-1.3.8-2.6.8c-2.2 0-3.3-1.2-3.3-3.3zm13.8-11c4.1 0 6.7 3.2 6.7 7.4c-.02 0 0 .6 0 .6c0 0-10.81.02-10.8 0c.2 2.3 1.9 4.3 4.6 4.3c1.5 0 3-.6 4.1-1.7l1.1 1.7c-1.3 1.3-3.2 2-5.4 2c-4.1 0-7.1-2.8-7.1-7.1c0-4 2.9-7.2 6.8-7.2zm-4.1 6.2h8.3c-.1-1.8-1.3-4.1-4.2-4.1c-2.7 0-4 2.2-4.1 4.1zm12.5 3.3l10.4-4.9L143.8 8V5.9l12.5 6v1.9l-12.5 6v-2zm13.8 0l10.5-4.9L157.6 8V5.9l12.5 6v1.9l-12.5 6v-2z" stroke="none" fill="#282828"/><a xlink:href="DBF_CAP%20Rate" xlink:show="new" xlink:title="&lt;&lt;CAP Rate&gt;&gt;"><rect style="fill:transparent;" x="-1" y="2" width="171" height="20"/></a></g></svg>