<?xml version="1.0" standalone="no"?><!DOCTYPE svg PUBLIC "-//W3C//DTD SVG 1.1//EN" "http://www.w3.org/Graphics/SVG/1.1/DTD/svg11.dtd"><svg xmlns="http://www.w3.org/2000/svg" version="1.1" width="237px" height="47.4px" viewBox="0 -10 237 47.4" style="top:-10px"><desc>Absolute Net</desc><defs/><g id="Polygon91127"><path d="m14 18.4H4.8l-1.6 3.9H.1L7.6 3.5h3.6l7.4 18.8h-3.1L14 18.4zm-8.4-2.5h7.6l-3.8-10l-3.8 10zm15-12.4h2.5v7.1c1.1-1.4 2.7-2.3 4.5-2.3c3.5 0 6 2.8 6 7.2c0 4.5-2.5 7.1-6 7.1c-1.9 0-3.5-.9-4.5-2.2v1.9h-2.5V3.5zm6.3 16.9c2.5 0 4.1-2 4.1-4.9c0-2.9-1.6-4.9-4.1-4.9c-1.6 0-3.1.9-3.8 2v5.8c.7 1.1 2.2 2 3.8 2zm9.7-1.7c1 1 2.8 1.9 4.6 1.9c1.9 0 2.9-.8 2.9-1.9c0-1.4-1.5-1.8-3.3-2.2c-2.3-.6-5-1.2-5-4.1c0-2.2 1.9-4.1 5.2-4.1c2.3 0 4 .9 5.2 2l-1.1 1.8c-.8-1-2.4-1.7-4.1-1.7c-1.7 0-2.8.7-2.8 1.8c0 1.2 1.5 1.6 3.2 1.9c2.4.6 5.2 1.2 5.2 4.4c0 2.3-1.9 4.1-5.5 4.1c-2.3 0-4.3-.7-5.7-2.1l1.2-1.8zm12.1-3.2c0-4 2.6-7.2 6.9-7.2c4.2 0 6.9 3.2 6.9 7.2c0 3.9-2.7 7.1-6.9 7.1c-4.3 0-6.9-3.2-6.9-7.1zm11.1 0c0-2.6-1.5-4.9-4.2-4.9c-2.7 0-4.3 2.3-4.3 4.9c0 2.6 1.6 4.9 4.3 4.9c2.7 0 4.2-2.3 4.2-4.9zm5.6-12h2.5v18.8h-2.5V3.5zm15.5 16.9c-1.1 1.2-2.8 2.2-4.9 2.2c-2.9 0-4.3-1.4-4.3-4.3V8.7h2.5s.03 8.75 0 8.7c0 2.3 1.2 3 2.9 3c1.6 0 3-.9 3.8-1.9V8.7h2.5v13.6h-2.5v-1.9zm6.8-1.1v-8.4h-2.3V8.7h2.3V4.9h2.5v3.8h2.8v2.2h-2.8s.04 7.82 0 7.8c0 1 .5 1.7 1.4 1.7c.6 0 1.1-.3 1.3-.6l.7 2c-.5.5-1.3.8-2.7.8c-2.1 0-3.2-1.2-3.2-3.3zm13.8-11c4.1 0 6.7 3.2 6.7 7.4c-.03 0 0 .6 0 .6c0 0-10.82.02-10.8 0c.2 2.3 1.9 4.3 4.6 4.3c1.5 0 3-.6 4-1.7l1.2 1.7c-1.3 1.3-3.2 2-5.4 2c-4.1 0-7.1-2.8-7.1-7.1c0-4 2.9-7.2 6.8-7.2zm-4.1 6.2h8.3c-.1-1.8-1.3-4.1-4.2-4.1c-2.7 0-4 2.2-4.1 4.1zM121 7.8v14.5h-2.9V3.5h2.9l10.3 14.1V3.5h2.8v18.8h-2.7L121 7.8zm22.9.5c4.1 0 6.7 3.2 6.7 7.4c-.02 0 0 .6 0 .6c0 0-10.81.02-10.8 0c.2 2.3 1.9 4.3 4.6 4.3c1.5 0 3-.6 4.1-1.7l1.1 1.7c-1.3 1.3-3.2 2-5.4 2c-4.1 0-7.1-2.8-7.1-7.1c0-4 2.9-7.2 6.8-7.2zm-4.1 6.2h8.3c-.1-1.8-1.3-4.1-4.2-4.1c-2.7 0-4 2.2-4.1 4.1zm14.2 4.8v-8.4h-2.3V8.7h2.3V4.9h2.5v3.8h2.8v2.2h-2.8s.03 7.82 0 7.8c0 1 .5 1.7 1.4 1.7c.6 0 1.1-.3 1.3-.6l.7 2c-.5.5-1.3.8-2.7.8c-2.1 0-3.2-1.2-3.2-3.3z" stroke="none" fill="#282828"/></g></svg>