<?xml version="1.0" standalone="no"?><!DOCTYPE svg PUBLIC "-//W3C//DTD SVG 1.1//EN" "http://www.w3.org/Graphics/SVG/1.1/DTD/svg11.dtd"><svg xmlns="http://www.w3.org/2000/svg" version="1.1" width="131.2px" height="27.3px" viewBox="0 -6 131.2 27.3" style="top:-6px"><desc>3,052</desc><defs/><g id="Polygon113978"><path d="m92.1 10.4c.6.9 1.6 1.5 2.9 1.5c1.7 0 2.7-.8 2.7-2.2c0-1.6-1.2-2.2-2.8-2.2h-1v-.8h1c1.4 0 2.6-.6 2.6-2c0-1.4-1.1-2.1-2.5-2.1c-1.2 0-2.1.5-2.8 1.4l-.6-.6c.7-.9 1.9-1.6 3.5-1.6c1.8 0 3.4 1 3.4 2.8c0 1.6-1.4 2.3-2.3 2.5c.9.1 2.4.9 2.4 2.6c0 1.8-1.3 3-3.5 3c-1.8 0-3-.8-3.7-1.7l.7-.6zm8.4 3.7c.5-.3.9-1 .9-1.5l-.1.1c-.4 0-.7-.3-.7-.7c0-.4.3-.7.7-.7c.4 0 .8.4.8 1c0 .9-.5 1.8-1.1 2.2l-.5-.4zm7.4-12.3c2.8 0 3.9 2.9 3.9 5.5c0 2.5-1.1 5.4-3.9 5.4c-2.9 0-3.9-2.9-3.9-5.4c0-2.6 1-5.5 3.9-5.5zm0 .8c-2.2 0-3 2.5-3 4.7c0 2.1.8 4.6 3 4.6c2.2 0 2.9-2.5 2.9-4.6c0-2.2-.7-4.7-2.9-4.7zm6.6 7.8c.7 1 1.6 1.5 3 1.5c1.5 0 2.6-1.1 2.6-2.5c0-1.7-1.1-2.6-2.6-2.6c-1 0-1.8.3-2.6 1l-.7-.3V2h6.1v.8h-5.2s.02 4.12 0 4.1c.5-.5 1.5-1 2.6-1c1.7 0 3.3 1.2 3.3 3.4c0 2.1-1.6 3.4-3.5 3.4c-1.8 0-2.9-.6-3.6-1.7l.6-.6zm8.3 1.4c3.6-2.9 6.1-5 6.1-7c0-1.5-1.3-2.2-2.5-2.2c-1.3 0-2.3.6-2.9 1.4l-.6-.6c.8-1 2.1-1.6 3.5-1.6c1.6 0 3.4.9 3.4 3c0 2.3-2.5 4.4-5.5 6.9c-.04.02 5.5 0 5.5 0v.8h-7s.04-.7 0-.7z" stroke="none" fill="#000"/></g></svg>