<?xml version="1.0" standalone="no"?><!DOCTYPE svg PUBLIC "-//W3C//DTD SVG 1.1//EN" "http://www.w3.org/Graphics/SVG/1.1/DTD/svg11.dtd"><svg xmlns="http://www.w3.org/2000/svg" version="1.1" width="22px" height="41.3px" viewBox="0 -8 22 41.3" style="top:-8px"><desc>05</desc><defs/><g id="Polygon64835"><path d="m10.2 5.3v10.1c0 2.5-1.5 3.5-4 3.5h-.2c-2.6 0-4.1-1-4.1-3.5V5.3c0-2.6 1.5-3.6 4.1-3.6h.2c2.5 0 4 1 4 3.6zM6.1 4.2c-.9 0-1.5.3-1.5 1.5v9.2c0 1.2.6 1.6 1.5 1.6c.8 0 1.4-.4 1.4-1.6V5.7c0-1.2-.6-1.5-1.4-1.5zm9 .1s-.02 3.91 0 3.9c.3-.4.8-.7 1.9-.7c1.9 0 3.3.9 3.3 3.4v4.6c0 2.5-1.4 3.4-4 3.4c-2.6 0-4-.9-4-3.4v-2.8h2.6s.04 2.47 0 2.5c0 1.1.6 1.4 1.4 1.4c.8 0 1.3-.3 1.3-1.4v-4c0-1.1-.5-1.4-1.1-1.4c-.7 0-1.1.3-1.4 1l-2.7-.7V1.9h7.7v2.4h-5z" stroke="none" fill="#fff"/></g></svg>