<?xml version="1.0" standalone="no"?>
<!DOCTYPE svg PUBLIC "-//W3C//DTD SVG 1.1//EN" "http://www.w3.org/Graphics/SVG/1.1/DTD/svg11.dtd">
<svg xmlns="http://www.w3.org/2000/svg" version="1.1" width="19px" height="51.8px" viewBox="0 -13 19 51.8" style="top:-13px">
  <desc> </desc>
  <defs/>
  <g id="Polygon271136">
    <path d="M 10.5 23.6 C 10.55 23.65 10.5 26.5 10.5 26.5 L 8.6 26.5 C 8.6 26.5 8.61 23.68 8.6 23.7 C 5.4 23.5 2.9 22.2 1.3 20.3 C 1.3 20.3 2.9 18.3 2.9 18.3 C 4.2 19.7 6.1 21 8.6 21.3 C 8.6 21.3 8.6 13.6 8.6 13.6 C 5.4 12.7 2 11.6 2 7.7 C 2 4.4 4.8 2.1 8.6 1.8 C 8.61 1.82 8.6 -1.1 8.6 -1.1 L 10.5 -1.1 C 10.5 -1.1 10.55 1.89 10.5 1.9 C 13.2 2.1 15.3 3.2 16.8 4.8 C 16.8 4.8 15.2 6.7 15.2 6.7 C 14 5.3 12.3 4.6 10.5 4.3 C 10.5 4.3 10.5 11.2 10.5 11.2 C 13.8 12.1 17.3 13.3 17.3 17.5 C 17.3 20.3 15.5 23.3 10.5 23.6 Z M 8.6 10.7 C 8.6 10.7 8.6 4.2 8.6 4.2 C 6.3 4.3 4.7 5.7 4.7 7.5 C 4.7 9.4 6.5 10.1 8.6 10.7 Z M 14.6 17.7 C 14.6 15.5 12.7 14.8 10.5 14.1 C 10.5 14.1 10.5 21.3 10.5 21.3 C 13.6 21 14.6 19.2 14.6 17.7 Z " stroke="none" fill="#fff"/>
  </g>
</svg>