<?xml version="1.0" standalone="no"?><!DOCTYPE svg PUBLIC "-//W3C//DTD SVG 1.1//EN" "http://www.w3.org/Graphics/SVG/1.1/DTD/svg11.dtd"><svg xmlns="http://www.w3.org/2000/svg" xmlns:xlink="http://www.w3.org/1999/xlink" version="1.1" width="125.4px" height="35.3px" viewBox="0 -7 125.4 35.3" style="top:-7px"><desc/><defs/><g id="Polygon74129"><path d="m1.7 6.9l7-3.6v.8L2.6 7.2l6.1 3.1v.8l-7-3.6v-.6zm7.9 0l7-3.6v.8l-6.1 3.1l6.1 3.1v.8l-7-3.6v-.6zm8.3 4.9c3.6-2.9 6-5 6-7c0-1.5-1.2-2.2-2.4-2.2c-1.3 0-2.3.6-2.9 1.4l-.6-.6c.8-1 2-1.6 3.5-1.6c1.6 0 3.4.9 3.4 3c0 2.3-2.5 4.4-5.6 6.9c.04.02 5.6 0 5.6 0v.8h-7s.03-.7 0-.7zm13.2-10C34 1.8 35 4.7 35 7.3c0 2.5-1 5.4-3.9 5.4c-2.8 0-3.9-2.9-3.9-5.4c0-2.6 1.1-5.5 3.9-5.5zm0 .8c-2.2 0-2.9 2.5-2.9 4.7c0 2.1.7 4.6 2.9 4.6c2.2 0 3-2.5 3-4.6c0-2.2-.8-4.7-3-4.7zm5.7 9.2c3.6-2.9 6-5 6-7c0-1.5-1.2-2.2-2.4-2.2c-1.3 0-2.3.6-2.9 1.4l-.6-.6c.8-1 2-1.6 3.5-1.6c1.6 0 3.4.9 3.4 3c0 2.3-2.5 4.4-5.6 6.9c.04.02 5.6 0 5.6 0v.8h-7s.03-.7 0-.7zm9.5-1.4c.6.9 1.6 1.5 3 1.5c1.6 0 2.6-.8 2.6-2.2c0-1.6-1.2-2.2-2.8-2.2h-1v-.8h1c1.4 0 2.7-.6 2.7-2c0-1.4-1.2-2.1-2.6-2.1c-1.2 0-2 .5-2.8 1.4l-.6-.6c.8-.9 1.9-1.6 3.5-1.6c1.8 0 3.4 1 3.4 2.8c0 1.6-1.4 2.3-2.3 2.5c1 .1 2.5.9 2.5 2.6c0 1.8-1.4 3-3.6 3c-1.7 0-3-.8-3.6-1.7l.6-.6zM59.2 2s3.95-.05 4 0c2 0 3.1 1.4 3.1 3c0 1.7-1.1 3.1-3.1 3.1c-.05.05-3.1 0-3.1 0v4.4h-.9V2zm3.9.8c-.04-.02-3 0-3 0v4.5s2.96.02 3 0c1.4 0 2.3-.9 2.3-2.3c0-1.3-.9-2.2-2.3-2.2zm5.1 2.1h.8s.04 1.29 0 1.3c.7-.9 1.6-1.5 2.6-1.5v.9h-.4c-.8 0-1.8.7-2.2 1.4c.04-.05 0 5.5 0 5.5h-.8V4.9zm4.6 3.8c0-2.2 1.4-4 3.7-4c2.3 0 3.7 1.8 3.7 4c0 2.2-1.4 4-3.7 4c-2.3 0-3.7-1.8-3.7-4zm6.5 0c0-1.7-1-3.3-2.8-3.3c-1.8 0-2.8 1.6-2.8 3.3c0 1.7 1 3.3 2.8 3.3c1.8 0 2.8-1.6 2.8-3.3zm2.8-5.8c0-.3.3-.6.6-.6c.4 0 .7.3.7.6c0 .4-.3.7-.7.7c-.3 0-.6-.3-.6-.7zm1 10.6c0 1.4-.7 2.2-2 2.2c-.3 0-.6-.1-.9-.2l.2-.7c.2.1.4.1.6.1c.8 0 1.3-.4 1.3-1.4c.02.03 0-8.6 0-8.6h.8s.04 8.63 0 8.6zM89 4.7c2.3 0 3.6 1.8 3.6 4v.3s-6.42-.03-6.4 0c.1 1.6 1.2 3 3 3c.9 0 1.8-.3 2.5-1l.4.5c-.7.8-1.7 1.2-3 1.2c-2.2 0-3.8-1.6-3.8-4c0-2.2 1.5-4 3.7-4zm-2.8 3.6h5.6c-.1-1.3-.9-2.9-2.8-2.9c-1.9 0-2.8 1.6-2.8 2.9zM98 4.7c1.3 0 2.1.5 2.7 1.3l-.6.5c-.5-.8-1.2-1.1-2-1.1c-1.8 0-2.9 1.5-2.9 3.3c0 1.8 1.1 3.3 2.9 3.3c.8 0 1.5-.3 2-1.1l.6.5c-.6.8-1.4 1.3-2.7 1.3c-2.2 0-3.7-1.8-3.7-4c0-2.2 1.5-4 3.7-4zm4.7 6.4c.02-.03 0-5.5 0-5.5h-1.2v-.7h1.2V2.8h.9v2.1h1.5v.7h-1.5s-.04 5.34 0 5.3c0 .7.2 1.1.8 1.1c.3 0 .6-.2.8-.4l.3.7c-.3.2-.6.4-1.3.4c-1 0-1.5-.6-1.5-1.6zm4-8.2c0-.3.3-.6.6-.6c.4 0 .7.3.7.6c0 .4-.3.7-.7.7c-.3 0-.6-.3-.6-.7zm.2 2h.9v7.6h-.9V4.9zm3 3.8c0-2.2 1.4-4 3.7-4c2.2 0 3.7 1.8 3.7 4c0 2.2-1.5 4-3.7 4c-2.3 0-3.7-1.8-3.7-4zm6.5 0c0-1.7-1-3.3-2.8-3.3c-1.8 0-2.8 1.6-2.8 3.3c0 1.7 1 3.3 2.8 3.3c1.8 0 2.8-1.6 2.8-3.3zm8.2-1.3c0-1.5-.8-2-1.9-2c-1 0-2 .7-2.5 1.3c.02.05 0 5.8 0 5.8h-.8V4.9h.8s.02 1.13 0 1.1c.6-.6 1.7-1.3 2.8-1.3c1.5 0 2.4.7 2.4 2.5v5.3h-.8s-.03-5.13 0-5.1z" stroke="none" fill="#000"/><a xlink:href="DBF_2023%20Projection%20-%203%20Mile" xlink:show="new" xlink:title="&lt;&lt;2023 Projection - 3 Mile&gt;&gt;"><rect style="fill:transparent;" x="1" y="1" width="125" height="15"/></a></g></svg>