<?xml version="1.0" standalone="no"?><!DOCTYPE svg PUBLIC "-//W3C//DTD SVG 1.1//EN" "http://www.w3.org/Graphics/SVG/1.1/DTD/svg11.dtd"><svg xmlns="http://www.w3.org/2000/svg" version="1.1" width="134.3px" height="15.9px" viewBox="0 -4 134.3 15.9" style="top:-4px"><desc>Charleston</desc><defs/><g id="Polygon87939"><path d="m92.7 4.1c0-1.8 1.4-3.1 3-3.1c1 0 1.7.4 2.2 1.1l-.4.2c-.4-.5-1-.8-1.8-.8c-1.4 0-2.4 1-2.4 2.6c0 1.6 1 2.7 2.4 2.7c.8 0 1.4-.4 1.8-.9l.4.2c-.5.7-1.2 1.1-2.2 1.1c-1.6 0-3-1.2-3-3.1zm9.2 0c0-.8-.4-1-1-1c-.6 0-1.2.3-1.5.7c.04.02 0 3.3 0 3.3h-.4v-6h.4s.04 2.32 0 2.3c.4-.4 1-.7 1.6-.7c.9 0 1.4.4 1.4 1.3c-.02.05 0 3.1 0 3.1h-.5v-3zm4.7 2.5c-.4.4-.9.6-1.5.6c-.7 0-1.5-.5-1.5-1.4c0-1 .8-1.5 1.5-1.5c.6 0 1.1.2 1.5.6v-.8c0-.7-.5-1-1.2-1c-.5 0-.9.2-1.3.6l-.3-.3c.5-.5 1-.7 1.7-.7c.9 0 1.6.4 1.6 1.4c-.04-.05 0 3 0 3h-.5v-.5zm0-1.3c-.3-.4-.8-.6-1.3-.6c-.7 0-1.2.5-1.2 1.1c0 .6.5 1 1.2 1c.5 0 1-.1 1.3-.5v-1zm1.9-2.5h.5v.7c.4-.5.9-.8 1.5-.8v.5h-.3c-.4 0-1 .4-1.2.7v3.2h-.5V2.8zm2.9-1.7h.4v6h-.4v-6zm3.7 1.6c1.4 0 2.1 1 2.1 2.3v.1s-3.64-.02-3.6 0c0 .9.6 1.7 1.7 1.7c.5 0 1-.2 1.4-.6l.2.3c-.4.5-1 .7-1.7.7c-1.2 0-2.2-.9-2.2-2.3c0-1.2.9-2.2 2.1-2.2zm-1.5 2h3.1c0-.7-.5-1.6-1.6-1.6c-1 0-1.5.9-1.5 1.6zm4.7 1.5c.3.3.8.6 1.4.6c.7 0 1.2-.3 1.2-.8c0-.6-.6-.8-1.3-.9c-.7-.2-1.5-.4-1.5-1.2c0-.7.6-1.2 1.6-1.2c.7 0 1.2.2 1.5.6l-.2.3c-.3-.3-.8-.5-1.3-.5c-.7 0-1.1.3-1.1.7c0 .5.5.7 1.1.8c.8.2 1.6.4 1.6 1.3c0 .7-.5 1.3-1.6 1.3c-.7 0-1.2-.2-1.7-.7l.3-.3zm4.3.1c.03-.03 0-3.1 0-3.1h-.7v-.4h.7V1.6h.5v1.2h.9v.4h-.9v3c0 .4.1.6.5.6c.2 0 .3-.1.4-.2l.2.3c-.2.2-.4.3-.7.3c-.6 0-.9-.3-.9-.9zm2.2-1.4c0-1.2.8-2.2 2-2.2c1.3 0 2.1 1 2.1 2.2c0 1.3-.8 2.3-2.1 2.3c-1.2 0-2-1-2-2.3zm3.6 0c0-.9-.5-1.8-1.6-1.8c-1 0-1.5.9-1.5 1.8c0 1 .5 1.9 1.5 1.9c1.1 0 1.6-.9 1.6-1.9zm4.7-.7c0-.9-.4-1.1-1.1-1.1c-.5 0-1.1.3-1.4.7c.02.02 0 3.3 0 3.3h-.5V2.8h.5s.02.62 0 .6c.3-.4 1-.7 1.6-.7c.9 0 1.4.4 1.4 1.4c-.05-.03 0 3 0 3h-.5s-.02-2.92 0-2.9z" stroke="none" fill="#000"/></g></svg>