<?xml version="1.0" standalone="no"?><!DOCTYPE svg PUBLIC "-//W3C//DTD SVG 1.1//EN" "http://www.w3.org/Graphics/SVG/1.1/DTD/svg11.dtd"><svg xmlns="http://www.w3.org/2000/svg" version="1.1" width="302.1px" height="131.9px" viewBox="0 -6 302.1 131.9" style="top:-6px"><desc>Historic Charleston City Market The City Market is a historic market complex in downtown Charleston Established in</desc><defs/><g id="Polygon100663"><path d="m10.3 107.6L6.4 117h-.3l-3.9-9.4v9.4h-.9v-10.6h1.4l3.6 8.8l3.6-8.8h1.3V117h-.9v-9.4zm8.2 8.5c-.6.8-1.5 1.1-2.6 1.1c-1.3 0-2.7-.9-2.7-2.5c0-1.7 1.4-2.6 2.7-2.6c1.1 0 2 .4 2.6 1.1v-1.6c0-1.1-.9-1.7-2-1.7c-1 0-1.7.3-2.4 1.1l-.5-.5c.8-.9 1.7-1.3 2.9-1.3c1.6 0 2.9.7 2.9 2.4c-.04.02 0 5.4 0 5.4h-.9s.04-.89 0-.9zm0-2.3c-.5-.7-1.4-1-2.3-1c-1.3 0-2.1.8-2.1 1.9c0 1 .8 1.9 2.1 1.9c.9 0 1.8-.4 2.3-1.1v-1.7zm3.3-4.5h.8v1.4c.7-.9 1.5-1.5 2.6-1.5v.9h-.4c-.8 0-1.9.7-2.2 1.3v5.6h-.8v-7.7zm7.1 4.1l-1.4 1.3v2.3h-.8v-10.6h.8v7.3l4.5-4.4h1.1l-3.6 3.5l3.6 4.2H32l-3.1-3.6zm8.5-4.2c2.4 0 3.6 1.8 3.6 4c.04.02 0 .2 0 .2c0 0-6.38.04-6.4 0c.1 1.7 1.2 3.1 3 3.1c1 0 1.9-.4 2.5-1.1l.5.6c-.8.8-1.8 1.2-3 1.2c-2.3 0-3.9-1.7-3.9-4c0-2.2 1.6-4 3.7-4zm-2.8 3.6h5.6c0-1.3-.9-2.9-2.8-2.9c-1.8 0-2.7 1.6-2.8 2.9zm8.6 2.7c-.03.04 0-5.4 0-5.4h-1.3v-.8h1.3v-2h.8v2h1.6v.8H44v5.3c0 .6.3 1.1.8 1.1c.4 0 .7-.2.9-.4l.3.6c-.3.3-.7.5-1.3.5c-1 0-1.5-.6-1.5-1.7zm15.6-3.5h-6.7v5h-.9v-10.6h.9v4.8h6.7v-4.8h.9V117h-.9v-5zm8.3 4.1c-.7.8-1.6 1.1-2.7 1.1c-1.3 0-2.6-.9-2.6-2.5c0-1.7 1.3-2.6 2.6-2.6c1.1 0 2 .4 2.7 1.1v-1.6c0-1.1-1-1.7-2.1-1.7c-1 0-1.7.3-2.4 1.1l-.5-.5c.8-.9 1.7-1.3 3-1.3c1.5 0 2.8.7 2.8 2.4c-.02.02 0 5.4 0 5.4h-.8s-.04-.89 0-.9zm0-2.3c-.6-.7-1.4-1-2.4-1c-1.2 0-2.1.8-2.1 1.9c0 1 .9 1.9 2.1 1.9c1 0 1.8-.4 2.4-1.1v-1.7zm3.2-7.4h.8V117h-.8v-10.6zm3.2 0h.9V117h-.9v-10.6zm3.7 9.4c.4 0 .7.3.7.7c0 .3-.3.7-.7.7c-.4 0-.7-.4-.7-.7c0-.4.3-.7.7-.7z" stroke="none" fill="#000"/></g><g id="Polygon100662"><path d="m1.3 87.4h.8v4.1c.6-.8 1.6-1.4 2.7-1.4c2 0 3.4 1.6 3.4 4c0 2.5-1.4 4-3.4 4c-1.2 0-2.1-.6-2.7-1.4v1.3h-.8V87.4zm3.3 10c1.8 0 2.7-1.4 2.7-3.3c0-1.8-.9-3.3-2.7-3.3c-1 0-2 .7-2.5 1.4v3.8c.5.8 1.5 1.4 2.5 1.4zm5.6-10h.8V98h-.8V87.4zm2.8 6.7c0-2.2 1.4-4 3.7-4c2.2 0 3.7 1.8 3.7 4c0 2.3-1.5 4-3.7 4c-2.3 0-3.7-1.7-3.7-4zm6.5 0c0-1.7-1-3.3-2.8-3.3c-1.8 0-2.8 1.6-2.8 3.3c0 1.7 1 3.3 2.8 3.3c1.8 0 2.8-1.6 2.8-3.3zm6.1-4c1.4 0 2.1.5 2.7 1.3l-.5.5c-.6-.8-1.3-1.1-2.1-1.1c-1.8 0-2.9 1.5-2.9 3.3c0 1.9 1.1 3.3 2.9 3.3c.8 0 1.5-.3 2.1-1.1l.5.5c-.6.8-1.3 1.3-2.7 1.3c-2.2 0-3.7-1.7-3.7-4c0-2.2 1.5-4 3.7-4zm6.7 4.2l-1.4 1.4v2.3h-.9V87.4h.9v7.3l4.5-4.4h1.1l-3.6 3.4l3.6 4.3h-1.1l-3.1-3.7zm5.4 2c.5.6 1.4 1.2 2.5 1.2c1.2 0 2-.7 2-1.6c0-1-1-1.2-2.2-1.5c-1.2-.3-2.6-.7-2.6-2.2c0-1.2.9-2.1 2.7-2.1c1.3 0 2.2.5 2.7 1.1l-.4.6c-.5-.6-1.3-1-2.3-1c-1.2 0-1.9.6-1.9 1.4c0 .9.9 1.1 2 1.4c1.3.3 2.8.7 2.8 2.3c0 1.2-1 2.2-2.9 2.2c-1.2 0-2.2-.3-2.9-1.2l.5-.6zM59.4 91h-1.2v-.7h1.2s.04-.71 0-.7c0-1.5.8-2.4 2.1-2.4c.4 0 .7.1 1 .2l-.2.7c-.2-.1-.4-.2-.7-.2c-.9 0-1.3.6-1.3 1.7c-.04-.01 0 .7 0 .7h1.5v.7h-1.5v7h-.9v-7zm3.8-.7h.8s.04 1.3 0 1.3c.7-.9 1.6-1.5 2.6-1.5v.9h-.4c-.8 0-1.8.7-2.2 1.4c.04-.03 0 5.6 0 5.6h-.8v-7.7zm4.4 3.8c0-2.2 1.5-4 3.7-4c2.3 0 3.7 1.8 3.7 4c0 2.3-1.4 4-3.7 4c-2.2 0-3.7-1.7-3.7-4zm6.5 0c0-1.7-1-3.3-2.8-3.3c-1.7 0-2.8 1.6-2.8 3.3c0 1.7 1.1 3.3 2.8 3.3c1.8 0 2.8-1.6 2.8-3.3zm12-1.5c0-1.1-.4-1.8-1.5-1.8c-.8 0-1.8.6-2.2 1.3v5.9h-.8s-.04-5.41 0-5.4c0-1.1-.5-1.8-1.6-1.8c-.8 0-1.7.7-2.2 1.4c.03-.04 0 5.8 0 5.8h-.8v-7.7h.8s.03 1.15 0 1.1c.3-.4 1.4-1.3 2.5-1.3c1.2 0 1.8.7 2 1.4c.5-.7 1.5-1.4 2.6-1.4c1.4 0 2.1.8 2.1 2.3c-.04.03 0 5.6 0 5.6h-.9s.04-5.41 0-5.4zm17.6 3.9c.02-.02 0-5.5 0-5.5h-1.2v-.7h1.2v-2.1h.9v2.1h1.5v.7h-1.5s-.04 5.36 0 5.4c0 .6.2 1 .8 1c.3 0 .6-.2.8-.4l.3.7c-.3.3-.6.4-1.3.4c-1 0-1.5-.6-1.5-1.6zm9.2-3.8c0-1.4-.7-1.9-1.8-1.9c-1 0-2 .7-2.5 1.4v5.8h-.8V87.4h.8v4c.6-.6 1.6-1.3 2.8-1.3c1.5 0 2.4.7 2.4 2.5c-.03-.04 0 5.4 0 5.4h-.9s.05-5.27 0-5.3zm6.5-2.6c2.4 0 3.7 1.9 3.7 4.1c-.04-.04 0 .2 0 .2c0 0-6.45-.02-6.5 0c.1 1.7 1.2 3 3 3c1 0 1.9-.3 2.6-1l.4.5c-.8.8-1.7 1.2-3 1.2c-2.3 0-3.9-1.6-3.9-4c0-2.2 1.6-4 3.7-4zm-2.8 3.6h5.6c0-1.3-.8-2.9-2.8-2.9c-1.8 0-2.7 1.6-2.8 2.9zm27.5 3.4c-.7.7-1.5 1-2.6 1c-1.3 0-2.7-.9-2.7-2.5c0-1.7 1.4-2.5 2.7-2.5c1.1 0 1.9.3 2.6 1v-1.5c0-1.1-.9-1.8-2.1-1.8c-.9 0-1.7.4-2.4 1.2l-.4-.6c.8-.9 1.7-1.3 2.9-1.3c1.6 0 2.8.7 2.8 2.5c.02-.04 0 5.4 0 5.4h-.8v-.9zm0-2.3c-.5-.7-1.4-1.1-2.3-1.1c-1.3 0-2.1.8-2.1 1.9c0 1.1.8 1.9 2.1 1.9c.9 0 1.8-.4 2.3-1v-1.7zm3.2-4.5h.9s-.04 1.3 0 1.3c.6-.9 1.5-1.5 2.6-1.5v.9h-.5c-.7 0-1.8.7-2.1 1.4c-.04-.03 0 5.6 0 5.6h-.9v-7.7zm8.2-.2c1.3 0 2.1.5 2.7 1.3l-.6.5c-.5-.8-1.2-1.1-2.1-1.1c-1.7 0-2.8 1.5-2.8 3.3c0 1.9 1.1 3.3 2.8 3.3c.9 0 1.6-.3 2.1-1.1l.6.5c-.6.8-1.4 1.3-2.7 1.3c-2.3 0-3.7-1.7-3.7-4c0-2.2 1.4-4 3.7-4zm9.6 2.6c0-1.4-.8-1.9-1.9-1.9c-1 0-2 .7-2.5 1.4c.03-.04 0 5.8 0 5.8h-.8V87.4h.8s.03 4.05 0 4c.6-.6 1.7-1.3 2.8-1.3c1.5 0 2.4.7 2.4 2.5v5.4h-.8s-.02-5.27 0-5.3zm3-4.3c0-.4.3-.7.6-.7c.4 0 .7.3.7.7c0 .3-.3.6-.7.6c-.3 0-.6-.3-.6-.6zm.2 1.9h.8v7.7h-.8v-7.7zm3.4 6.2c.02-.02 0-5.5 0-5.5h-1.3v-.7h1.3v-2.1h.9v2.1h1.5v.7h-1.5s-.04 5.36 0 5.4c0 .6.2 1 .8 1c.3 0 .6-.2.8-.4l.3.7c-.3.3-.6.4-1.3.4c-1 0-1.5-.6-1.5-1.6zm7.3-6.4c2.4 0 3.6 1.9 3.6 4.1c.04-.04 0 .2 0 .2c0 0-6.37-.02-6.4 0c.1 1.7 1.2 3 3 3c1 0 1.9-.3 2.5-1l.5.5c-.8.8-1.8 1.2-3 1.2c-2.3 0-3.9-1.6-3.9-4c0-2.2 1.6-4 3.7-4zm-2.8 3.6h5.6c0-1.3-.9-2.9-2.8-2.9c-1.8 0-2.7 1.6-2.8 2.9zm11.7-3.6c1.3 0 2.1.5 2.7 1.3l-.6.5c-.5-.8-1.2-1.1-2.1-1.1c-1.7 0-2.8 1.5-2.8 3.3c0 1.9 1.1 3.3 2.8 3.3c.9 0 1.6-.3 2.1-1.1l.6.5c-.6.8-1.4 1.3-2.7 1.3c-2.3 0-3.7-1.7-3.7-4c0-2.2 1.4-4 3.7-4zm4.6 6.4c-.04-.02 0-5.5 0-5.5h-1.3v-.7h1.3v-2.1h.8v2.1h1.6v.7h-1.6v5.4c0 .6.3 1 .8 1c.4 0 .7-.2.9-.4l.3.7c-.3.3-.7.4-1.3.4c-1 0-1.5-.6-1.5-1.6zm9.2.3c-.6.7-1.7 1.3-2.8 1.3c-1.6 0-2.4-.7-2.4-2.4v-5.4h.8s.03 5.2 0 5.2c0 1.5.8 1.9 1.9 1.9c1 0 2-.6 2.5-1.3v-5.8h.8v7.7h-.8v-1.2zm3.2-6.5h.9s-.05 1.3 0 1.3c.6-.9 1.5-1.5 2.5-1.5v.9h-.4c-.8 0-1.8.7-2.1 1.4c-.05-.03 0 5.6 0 5.6h-.9v-7.7zm9.8 6.8c-.7.7-1.6 1-2.6 1c-1.3 0-2.7-.9-2.7-2.5c0-1.7 1.3-2.5 2.7-2.5c1 0 1.9.3 2.6 1v-1.5c0-1.1-.9-1.8-2.1-1.8c-.9 0-1.7.4-2.4 1.2l-.4-.6c.7-.9 1.6-1.3 2.9-1.3c1.6 0 2.8.7 2.8 2.5v5.4h-.8s-.02-.95 0-.9zm0-2.3c-.6-.7-1.4-1.1-2.3-1.1c-1.3 0-2.1.8-2.1 1.9c0 1.1.8 1.9 2.1 1.9c.9 0 1.7-.4 2.3-1v-1.7zm3.2-7.4h.8V98h-.8V87.4zm3.3 0h.8V98h-.8V87.4zm3.5 12.9c.5 0 .9-.2 1.2-.9c-.04-.01.6-1.4.6-1.4l-3.3-7.7h.9l2.8 6.7l2.8-6.7h.9s-3.93 9.34-3.9 9.3c-.4 1-1.1 1.5-2 1.5c-.3 0-.6-.1-.8-.1l.1-.8c.2.1.5.1.7.1zm6.4-6.6h3.8v.8h-3.8v-.8zm5.2 2.6c.5.6 1.4 1.2 2.5 1.2c1.3 0 2-.7 2-1.6c0-1-1-1.2-2.1-1.5c-1.3-.3-2.7-.7-2.7-2.2c0-1.2 1-2.1 2.7-2.1c1.3 0 2.2.5 2.8 1.1l-.5.6c-.4-.6-1.3-1-2.3-1c-1.2 0-1.9.6-1.9 1.4c0 .9 1 1.1 2.1 1.4c1.3.3 2.7.7 2.7 2.3c0 1.2-.9 2.2-2.8 2.2c-1.3 0-2.2-.3-3-1.2l.5-.6zm7.1-7.9c0-.4.3-.7.6-.7c.4 0 .7.3.7.7c0 .3-.3.6-.7.6c-.3 0-.6-.3-.6-.6zm.2 1.9h.8v7.7h-.8v-7.7zm3.7 9c.7.8 1.4 1.1 2.6 1.1c1.4 0 2.6-.7 2.6-2.5v-1.2c-.5.8-1.5 1.4-2.7 1.4c-2 0-3.4-1.5-3.4-4c0-2.4 1.4-4 3.4-4c1.1 0 2.1.6 2.7 1.4v-1.2h.8s.05 7.58 0 7.6c0 2.3-1.5 3.2-3.4 3.2c-1.3 0-2.1-.3-3-1.2l.4-.6zm5.2-7.1c-.4-.7-1.5-1.4-2.5-1.4c-1.7 0-2.7 1.5-2.7 3.3c0 1.9 1 3.3 2.7 3.3c1 0 2.1-.7 2.5-1.4v-3.8zm8.4.6c0-1.5-.7-2-1.8-2c-1 0-2 .7-2.5 1.4c-.03-.04 0 5.8 0 5.8h-.9v-7.7h.9s-.03 1.15 0 1.1c.5-.6 1.6-1.3 2.7-1.3c1.6 0 2.5.8 2.5 2.5c-.05-.01 0 5.4 0 5.4h-.9s.03-5.22 0-5.2zm3-4.4c0-.4.3-.7.7-.7c.3 0 .6.3.6.7c0 .3-.3.6-.6.6c-.4 0-.7-.3-.7-.6zm.3 1.9h.8v7.7h-.8v-7.7zm3.5.7h-1.3v-.7h1.3s-.02-.71 0-.7c0-1.5.8-2.4 2-2.4c.4 0 .8.1 1.1.2l-.3.7c-.2-.1-.4-.2-.7-.2c-.8 0-1.3.6-1.3 1.7v.7h1.6v.7h-1.6v7h-.8v-7zm3.7-2.7c0-.3.3-.6.6-.6c.4 0 .7.3.7.6c0 .4-.3.7-.7.7c-.3 0-.6-.3-.6-.7zm.2 2h.8v7.7h-.8v-7.7zm6.5-.2c1.3 0 2.1.5 2.7 1.3l-.5.5c-.6-.8-1.3-1.1-2.1-1.1c-1.8 0-2.9 1.5-2.9 3.3c0 1.9 1.1 3.3 2.9 3.3c.8 0 1.5-.3 2.1-1.1l.5.5c-.6.8-1.4 1.3-2.7 1.3c-2.2 0-3.7-1.7-3.7-4c0-2.2 1.5-4 3.7-4zm9.3 7c-.7.7-1.5 1-2.6 1c-1.3 0-2.7-.9-2.7-2.5c0-1.7 1.4-2.5 2.7-2.5c1.1 0 1.9.3 2.6 1v-1.5c0-1.1-.9-1.8-2.1-1.8c-.9 0-1.7.4-2.4 1.2l-.4-.6c.8-.9 1.7-1.3 2.9-1.3c1.6 0 2.8.7 2.8 2.5c.03-.04 0 5.4 0 5.4h-.8v-.9zm0-2.3c-.5-.7-1.4-1.1-2.3-1.1c-1.3 0-2.1.8-2.1 1.9c0 1.1.8 1.9 2.1 1.9c.9 0 1.8-.4 2.3-1v-1.7zm8.4-2c0-1.5-.7-2-1.8-2c-1 0-2 .7-2.5 1.4c-.03-.04 0 5.8 0 5.8h-.9v-7.7h.9s-.03 1.15 0 1.1c.5-.6 1.6-1.3 2.7-1.3c1.6 0 2.4.8 2.4 2.5c.04-.01 0 5.4 0 5.4h-.8s.02-5.22 0-5.2zm3.4 3.7c.02-.02 0-5.5 0-5.5h-1.3v-.7h1.3v-2.1h.9v2.1h1.5v.7h-1.5s-.04 5.36 0 5.4c0 .6.2 1 .8 1c.3 0 .6-.2.8-.4l.3.7c-.3.3-.6.4-1.3.4c-1 0-1.5-.6-1.5-1.6z" stroke="none" fill="#000"/></g><g id="Polygon100661"><path d="m1.4 77.4c.05.02 0-5.4 0-5.4H.2v-.8h1.2v-2.1h.9v2.1h1.5v.8H2.3v5.3c0 .6.2 1 .8 1c.3 0 .7-.1.8-.3l.4.6c-.3.3-.7.5-1.3.5c-1.1 0-1.6-.6-1.6-1.7zm9.3-3.7c0-1.5-.8-1.9-1.9-1.9c-1 0-2 .6-2.5 1.3c.02 0 0 5.8 0 5.8h-.8V68.3h.8s.02 4.09 0 4.1C6.9 71.7 8 71 9.1 71c1.5 0 2.4.8 2.4 2.5v5.4h-.8s-.03-5.23 0-5.2zm6.5-2.7c2.3 0 3.6 1.9 3.6 4.1v.2s-6.43.03-6.4 0c.1 1.7 1.2 3.1 3 3.1c.9 0 1.8-.4 2.5-1.1l.4.6c-.7.7-1.7 1.2-3 1.2c-2.2 0-3.8-1.7-3.8-4c0-2.3 1.5-4.1 3.7-4.1zm-2.8 3.7h5.5c0-1.3-.8-2.9-2.7-2.9c-1.9 0-2.8 1.5-2.8 2.9zm15.9-5.2l-1.7 1.9l-.5-.6l2.3-2.5h.9v10.6h-1v-9.4zm8.5-.4h-5.9v-.8h7v.6l-4.6 10h-1l4.5-9.8zm3.4 8c.5.7 1.2 1.1 2.3 1.1c2.3 0 3.2-2.4 3.2-4.6v-.5c-.5.7-1.7 1.8-3.2 1.8c-1.9 0-3.4-1.1-3.4-3.4c0-1.7 1.3-3.4 3.6-3.4c2.8 0 3.9 2.7 3.9 5.5c0 2.7-1.2 5.5-4.1 5.5c-1.4 0-2.2-.6-2.8-1.4l.5-.6zm2.5-8.1c-1.8 0-2.6 1.4-2.6 2.5c0 1.7 1.1 2.6 2.6 2.6c1.2 0 2.3-.8 2.9-1.9c-.1-1.4-.9-3.2-2.9-3.2zm9.5-.9c2.8 0 3.9 3 3.9 5.5c0 2.5-1.1 5.5-3.9 5.5c-2.9 0-3.9-3-3.9-5.5c0-2.5 1-5.5 3.9-5.5zm0 .9c-2.3 0-3 2.4-3 4.6c0 2.2.7 4.7 3 4.7c2.2 0 2.9-2.5 2.9-4.7c0-2.2-.7-4.6-2.9-4.6zm5.8 8.3c.4.6 1.3 1.1 2.4 1.1c1.3 0 2.1-.6 2.1-1.5c0-1-1.1-1.3-2.2-1.6c-1.3-.3-2.7-.6-2.7-2.1c0-1.2 1-2.2 2.8-2.2c1.3 0 2.2.5 2.7 1.2l-.4.6c-.5-.7-1.3-1.1-2.3-1.1c-1.2 0-2 .6-2 1.4c0 .9 1 1.1 2.1 1.4c1.3.3 2.8.7 2.8 2.3c0 1.3-1 2.3-2.9 2.3c-1.2 0-2.2-.4-2.9-1.2l.5-.6zm6.9 3.2c.5-.4.9-1 .9-1.5h-.1c-.4 0-.7-.3-.7-.7c0-.3.3-.6.7-.6c.4 0 .8.3.8 1c0 .9-.5 1.7-1.1 2.1l-.5-.3zm10-3.1c.04.02 0-5.4 0-5.4h-1.2v-.8h1.2v-2.1h.9v2.1h1.5v.8h-1.5s-.02 5.3 0 5.3c0 .6.2 1 .8 1c.3 0 .7-.1.8-.3l.4.6c-.4.3-.7.5-1.4.5c-1 0-1.5-.6-1.5-1.7zm9.3-3.7c0-1.5-.8-1.9-1.9-1.9c-1 0-2 .6-2.5 1.3v5.8h-.8V68.3h.8v4.1c.6-.7 1.7-1.4 2.8-1.4c1.5 0 2.4.8 2.4 2.5v5.4h-.8s-.03-5.23 0-5.2zm6.5-2.7c2.3 0 3.6 1.9 3.6 4.1c-.02 0 0 .2 0 .2c0 0-6.43.03-6.4 0c0 1.7 1.2 3.1 3 3.1c.9 0 1.8-.4 2.5-1.1l.4.6c-.8.7-1.7 1.2-3 1.2c-2.2 0-3.8-1.7-3.8-4c0-2.3 1.5-4.1 3.7-4.1zm-2.8 3.7h5.5c0-1.3-.8-2.9-2.8-2.9c-1.8 0-2.7 1.5-2.7 2.9zm23.7-1.2c0-1-.5-1.7-1.5-1.7c-.9 0-1.8.6-2.2 1.3c-.04-.01 0 5.8 0 5.8h-.9s.02-5.37 0-5.4c0-1-.4-1.7-1.5-1.7c-.8 0-1.8.6-2.2 1.3c-.02 0 0 5.8 0 5.8h-.8v-7.7h.8s-.02 1.19 0 1.2c.3-.5 1.4-1.4 2.5-1.4c1.2 0 1.8.7 2 1.5c.4-.7 1.4-1.5 2.5-1.5c1.4 0 2.1.8 2.1 2.4c.02-.03 0 5.5 0 5.5h-.8v-5.4zm8.1 4.5c-.7.7-1.5 1.1-2.6 1.1c-1.3 0-2.7-.9-2.7-2.6c0-1.6 1.4-2.5 2.7-2.5c1.1 0 1.9.3 2.6 1.1v-1.6c0-1.1-.9-1.7-2.1-1.7c-.9 0-1.7.3-2.4 1.1l-.4-.6c.8-.8 1.7-1.3 2.9-1.3c1.6 0 2.8.8 2.8 2.5c.03 0 0 5.4 0 5.4h-.8s.01-.9 0-.9zm0-2.3c-.5-.7-1.4-1.1-2.3-1.1c-1.3 0-2.1.9-2.1 1.9c0 1.1.8 1.9 2.1 1.9c.9 0 1.8-.3 2.3-1v-1.7zm3.2-4.5h.9s-.03 1.35 0 1.3c.6-.8 1.5-1.4 2.6-1.4v.9c-.2 0-.3-.1-.5-.1c-.7 0-1.8.7-2.1 1.4c-.03.01 0 5.6 0 5.6h-.9v-7.7zm7.2 4l-1.5 1.4v2.3h-.8V68.3h.8v7.3l4.6-4.4h1.1l-3.6 3.5l3.6 4.2h-1.2l-3-3.7zm8.5-4.2c2.3 0 3.6 1.9 3.6 4.1v.2s-6.41.03-6.4 0c.1 1.7 1.2 3.1 3 3.1c1 0 1.8-.4 2.5-1.1l.4.6c-.7.7-1.7 1.2-3 1.2c-2.2 0-3.8-1.7-3.8-4c0-2.3 1.6-4.1 3.7-4.1zm-2.8 3.7h5.6c0-1.3-.9-2.9-2.8-2.9c-1.8 0-2.7 1.5-2.8 2.9zm8.5 2.7c.04.02 0-5.4 0-5.4h-1.2v-.8h1.2v-2.1h.9v2.1h1.5v.8h-1.5s-.02 5.3 0 5.3c0 .6.2 1 .8 1c.3 0 .7-.1.8-.3l.4.6c-.4.3-.7.5-1.4.5c-1 0-1.5-.6-1.5-1.7zm10.1-.1c.5.6 1.4 1.1 2.5 1.1c1.3 0 2-.6 2-1.5c0-1-1-1.3-2.1-1.6c-1.3-.3-2.7-.6-2.7-2.1c0-1.2 1-2.2 2.7-2.2c1.4 0 2.2.5 2.8 1.2l-.5.6c-.4-.7-1.2-1.1-2.3-1.1c-1.2 0-1.9.6-1.9 1.4c0 .9 1 1.1 2.1 1.4c1.3.3 2.8.7 2.8 2.3c0 1.3-1 2.3-2.9 2.3c-1.3 0-2.2-.4-3-1.2l.5-.6zm7.5.1V72h-1.3v-.8h1.3v-2.1h.8v2.1h1.6v.8h-1.6s.03 5.3 0 5.3c0 .6.3 1 .8 1c.4 0 .7-.1.9-.3l.3.6c-.3.3-.7.5-1.3.5c-1 0-1.5-.6-1.5-1.7zm4-6.2h.9s-.04 1.35 0 1.3c.6-.8 1.5-1.4 2.5-1.4v.9c-.1 0-.2-.1-.4-.1c-.7 0-1.8.7-2.1 1.4c-.04.01 0 5.6 0 5.6h-.9v-7.7zm8.2-.2c2.3 0 3.6 1.9 3.6 4.1v.2s-6.43.03-6.4 0c0 1.7 1.2 3.1 3 3.1c.9 0 1.8-.4 2.5-1.1l.4.6c-.8.7-1.7 1.2-3 1.2c-2.2 0-3.8-1.7-3.8-4c0-2.3 1.5-4.1 3.7-4.1zm-2.8 3.7h5.5c0-1.3-.8-2.9-2.7-2.9c-1.9 0-2.8 1.5-2.8 2.9zm8.5 2.7c.02.02 0-5.4 0-5.4h-1.3v-.8h1.3v-2.1h.9v2.1h1.5v.8h-1.5s-.04 5.3 0 5.3c0 .6.2 1 .8 1c.3 0 .6-.1.8-.3l.3.6c-.3.3-.6.5-1.3.5c-1 0-1.5-.6-1.5-1.7zm7.4-6.4c1.3 0 2 .6 2.7 1.3l-.6.5c-.6-.7-1.3-1-2.1-1c-1.8 0-2.9 1.4-2.9 3.3c0 1.8 1.1 3.2 2.9 3.2c.8 0 1.5-.3 2.1-1l.6.5c-.7.8-1.4 1.3-2.7 1.3c-2.3 0-3.8-1.8-3.8-4c0-2.3 1.5-4.1 3.8-4.1zm9.5 2.7c0-1.5-.7-1.9-1.8-1.9c-1 0-2 .6-2.5 1.3c-.02 0 0 5.8 0 5.8h-.8V68.3h.8s-.02 4.09 0 4.1c.5-.7 1.6-1.4 2.7-1.4c1.6 0 2.5.8 2.5 2.5c-.04 0 0 5.4 0 5.4h-.9s.03-5.23 0-5.2zm6.5-2.7c2.4 0 3.6 1.9 3.6 4.1c.05 0 0 .2 0 .2c0 0-6.37.03-6.4 0c.1 1.7 1.2 3.1 3 3.1c1 0 1.9-.4 2.5-1.1l.5.6c-.8.7-1.8 1.2-3 1.2c-2.3 0-3.9-1.7-3.9-4c0-2.3 1.6-4.1 3.7-4.1zm-2.8 3.7h5.6c0-1.3-.9-2.9-2.8-2.9c-1.8 0-2.7 1.5-2.8 2.9zm8.2 2.6c.5.6 1.4 1.1 2.5 1.1c1.3 0 2.1-.6 2.1-1.5c0-1-1.1-1.3-2.2-1.6c-1.3-.3-2.7-.6-2.7-2.1c0-1.2 1-2.2 2.8-2.2c1.3 0 2.1.5 2.7 1.2l-.5.6c-.4-.7-1.2-1.1-2.2-1.1c-1.2 0-2 .6-2 1.4c0 .9 1 1.1 2.1 1.4c1.3.3 2.8.7 2.8 2.3c0 1.3-1 2.3-2.9 2.3c-1.2 0-2.2-.4-2.9-1.2l.4-.6zm13.8-5.3h-1.2v-.8h1.2s.02-.67 0-.7c0-1.5.8-2.4 2.1-2.4c.4 0 .7.1 1 .3l-.2.6c-.2-.1-.4-.1-.7-.1c-.9 0-1.4.6-1.4 1.6c.05.03 0 .7 0 .7h1.6v.8h-1.6v6.9h-.8V72zm3.4 3.1c0-2.3 1.4-4.1 3.6-4.1c2.3 0 3.7 1.8 3.7 4.1c0 2.2-1.4 4-3.7 4c-2.2 0-3.6-1.8-3.6-4zm6.5 0c0-1.7-1-3.3-2.9-3.3c-1.7 0-2.8 1.6-2.8 3.3c0 1.7 1.1 3.2 2.8 3.2c1.9 0 2.9-1.5 2.9-3.2zm2.8-3.9h.8s.04 1.35 0 1.3c.7-.8 1.6-1.4 2.6-1.4v.9c-.1 0-.2-.1-.4-.1c-.8 0-1.8.7-2.2 1.4c.04.01 0 5.6 0 5.6h-.8v-7.7zm11.4.8h-1.3v-.8h1.3s-.04-.67 0-.7c0-1.5.8-2.4 2-2.4c.4 0 .8.1 1.1.3l-.3.6c-.2-.1-.4-.1-.7-.1c-.9 0-1.3.6-1.3 1.6v.7h1.5v.8h-1.5v6.9h-.8V72zm3.3 3.1c0-2.3 1.4-4.1 3.7-4.1c2.3 0 3.7 1.8 3.7 4.1c0 2.2-1.4 4-3.7 4c-2.3 0-3.7-1.8-3.7-4zm6.5 0c0-1.7-1-3.3-2.8-3.3c-1.8 0-2.8 1.6-2.8 3.3c0 1.7 1 3.2 2.8 3.2c1.8 0 2.8-1.5 2.8-3.2zm8 2.7c-.6.7-1.6 1.3-2.7 1.3c-1.6 0-2.4-.7-2.4-2.5c-.05.03 0-5.4 0-5.4h.8s-.02 5.24 0 5.2c0 1.5.7 1.9 1.8 1.9c1 0 2-.5 2.5-1.2c.03-.03 0-5.9 0-5.9h.9v7.7h-.9s.03-1.13 0-1.1zm3.3-6.6h.8v1.3c.6-.8 1.5-1.4 2.6-1.4v.9c-.2 0-.3-.1-.4-.1c-.8 0-1.9.7-2.2 1.4v5.6h-.8v-7.7zm14.3-.2c1.4 0 2.1.6 2.8 1.3l-.6.5c-.6-.7-1.3-1-2.1-1c-1.8 0-2.9 1.4-2.9 3.3c0 1.8 1.1 3.2 2.9 3.2c.8 0 1.5-.3 2.1-1l.6.5c-.7.8-1.4 1.3-2.8 1.3c-2.2 0-3.7-1.8-3.7-4c0-2.3 1.5-4.1 3.7-4.1zm4.2-1.7c0-.4.3-.6.7-.6c.3 0 .6.2.6.6c0 .3-.3.6-.6.6c-.4 0-.7-.3-.7-.6zm.2 1.9h.9v7.7h-.9v-7.7zm3.4 6.2c.04.02 0-5.4 0-5.4h-1.2v-.8h1.2v-2.1h.9v2.1h1.5v.8h-1.5s-.02 5.3 0 5.3c0 .6.2 1 .8 1c.3 0 .7-.1.8-.3l.3.6c-.3.3-.6.5-1.3.5c-1 0-1.5-.6-1.5-1.7zm4.4 3.9c.5 0 .8-.2 1.1-1c.05.03.7-1.3.7-1.3l-3.3-7.8h.9l2.8 6.7l2.8-6.7h.9s-3.94 9.38-3.9 9.4c-.5 1-1.1 1.4-2 1.4c-.3 0-.6 0-.8-.1l.1-.8c.2.1.5.2.7.2z" stroke="none" fill="#000"/></g><g id="Polygon100660"><path d="m1.1 50.2c0-.3.3-.6.6-.6c.3 0 .6.3.6.6c0 .4-.3.7-.6.7c-.3 0-.6-.3-.6-.7zm.2 2h.8v7.6h-.8v-7.6zm8.4 2.5c0-1.5-.7-2-1.9-2c-.9 0-2 .7-2.4 1.3c-.05.04 0 5.8 0 5.8h-.9v-7.6h.9s-.05 1.13 0 1.1C5.9 52.7 7 52 8.1 52c1.6 0 2.4.7 2.4 2.5c.03-.03 0 5.3 0 5.3h-.8v-5.1zm20 3.9c-.6.8-1.5 1.4-2.7 1.4c-2 0-3.4-1.5-3.4-4c0-2.4 1.4-4 3.4-4c1.1 0 2.1.5 2.7 1.4c-.02.01 0-4.2 0-4.2h.8v10.6h-.8s-.02-1.18 0-1.2zm0-4.5c-.5-.7-1.5-1.4-2.5-1.4c-1.7 0-2.7 1.5-2.7 3.3c0 1.9 1 3.3 2.7 3.3c1 0 2-.6 2.5-1.4v-3.8zm2.8 1.9c0-2.2 1.4-4 3.7-4c2.3 0 3.7 1.8 3.7 4c0 2.2-1.4 4-3.7 4c-2.3 0-3.7-1.8-3.7-4zm6.5 0c0-1.7-1-3.3-2.8-3.3c-1.8 0-2.8 1.6-2.8 3.3c0 1.7 1 3.3 2.8 3.3c1.8 0 2.8-1.6 2.8-3.3zm7.3-2.7l-2.2 6.5h-.8l-2.5-7.6h.9l2.1 6.5l2.1-6.5h.7l2.2 6.5l2-6.5h.9l-2.5 7.6h-.8l-2.1-6.5zm12 1.4c0-1.5-.8-2-1.9-2c-1 0-2 .7-2.5 1.3c.03.04 0 5.8 0 5.8h-.8v-7.6h.8s.03 1.13 0 1.1c.6-.6 1.7-1.3 2.8-1.3c1.6 0 2.4.7 2.4 2.5v5.3h-.8v-5.1zm3.4 3.7v-5.5h-1.3v-.7h1.3v-2.1h.8v2.1h1.6v.7h-1.6s.03 5.34 0 5.3c0 .7.3 1.1.8 1.1c.4 0 .7-.2.9-.4l.3.7c-.3.2-.7.4-1.3.4c-1 0-1.5-.6-1.5-1.6zm3.6-2.4c0-2.2 1.4-4 3.7-4c2.2 0 3.7 1.8 3.7 4c0 2.2-1.5 4-3.7 4c-2.3 0-3.7-1.8-3.7-4zm6.5 0c0-1.7-1-3.3-2.8-3.3c-1.8 0-2.8 1.6-2.8 3.3c0 1.7 1 3.3 2.8 3.3c1.8 0 2.8-1.6 2.8-3.3zm7.3-2.7l-2.2 6.5h-.8l-2.5-7.6h.9l2.1 6.5l2.1-6.5h.7l2.2 6.5l2-6.5h.9L82 59.8h-.8l-2.1-6.5zm12 1.4c0-1.5-.8-2-1.9-2c-1 0-2 .7-2.5 1.3c.03.04 0 5.8 0 5.8h-.8v-7.6h.8s.03 1.13 0 1.1c.6-.6 1.7-1.3 2.8-1.3c1.6 0 2.4.7 2.4 2.5v5.3h-.8v-5.1zm13.9-.1c0-3.3 2.4-5.5 5.4-5.5c1.7 0 3 .7 3.9 1.8l-.8.5c-.7-.9-1.8-1.5-3.1-1.5c-2.5 0-4.4 1.9-4.4 4.7c0 2.7 1.9 4.6 4.4 4.6c1.3 0 2.4-.6 3.1-1.5l.8.4c-1 1.2-2.2 1.9-3.9 1.9c-3 0-5.4-2.2-5.4-5.4zm16.1 0c0-1.5-.7-1.9-1.9-1.9c-.9 0-2 .7-2.5 1.3c.05.04 0 5.8 0 5.8h-.8V49.2h.8s.05 4.13 0 4.1c.6-.6 1.7-1.3 2.8-1.3c1.6 0 2.4.7 2.4 2.4c.03.04 0 5.4 0 5.4h-.8v-5.2zm8.1 4.3c-.7.8-1.5 1.1-2.6 1.1c-1.3 0-2.7-.9-2.7-2.5c0-1.7 1.4-2.5 2.7-2.5c1.1 0 1.9.3 2.6 1v-1.5c0-1.2-.9-1.8-2-1.8c-1 0-1.7.3-2.4 1.1l-.5-.5c.8-.9 1.7-1.3 2.9-1.3c1.6 0 2.8.7 2.8 2.4c.04.04 0 5.4 0 5.4h-.8s.02-.86 0-.9zm0-2.3c-.5-.7-1.4-1-2.3-1c-1.3 0-2.1.8-2.1 1.9c0 1.1.8 1.9 2.1 1.9c.9 0 1.8-.4 2.3-1.1v-1.7zm3.3-4.4h.8s-.02 1.29 0 1.3c.6-.9 1.5-1.5 2.6-1.5v.9h-.4c-.8 0-1.9.7-2.2 1.3c-.02.05 0 5.6 0 5.6h-.8v-7.6zm4.8-3h.9v10.6h-.9V49.2zm6.5 2.8c2.4 0 3.6 1.8 3.6 4c.05.04 0 .3 0 .3c0 0-6.37-.03-6.4 0c.1 1.6 1.2 3 3 3c1 0 1.9-.3 2.5-1l.5.5c-.8.8-1.8 1.2-3 1.2c-2.3 0-3.9-1.6-3.9-4c0-2.2 1.6-4 3.7-4zm-2.8 3.6h5.6c0-1.3-.9-2.9-2.8-2.9c-1.8 0-2.7 1.6-2.8 2.9zm8.2 2.6c.5.6 1.4 1.1 2.5 1.1c1.3 0 2.1-.6 2.1-1.5c0-1-1.1-1.3-2.2-1.5c-1.3-.4-2.7-.7-2.7-2.2c0-1.2 1-2.1 2.8-2.1c1.3 0 2.2.5 2.7 1.1l-.5.6c-.4-.6-1.2-1-2.2-1c-1.2 0-2 .6-2 1.4c0 .8 1 1.1 2.1 1.3c1.3.4 2.8.7 2.8 2.4c0 1.2-1 2.2-2.9 2.2c-1.2 0-2.2-.3-2.9-1.2l.4-.6zm7.5.2v-5.5h-1.3v-.7h1.3v-2.1h.8v2.1h1.6v.7h-1.6s.05 5.34 0 5.3c0 .7.3 1.1.8 1.1c.4 0 .7-.2.9-.4l.3.7c-.3.2-.6.4-1.3.4c-1 0-1.5-.6-1.5-1.6zm3.6-2.4c0-2.2 1.5-4 3.7-4c2.3 0 3.7 1.8 3.7 4c0 2.2-1.4 4-3.7 4c-2.2 0-3.7-1.8-3.7-4zm6.5 0c0-1.7-1-3.3-2.8-3.3c-1.8 0-2.8 1.6-2.8 3.3c0 1.7 1 3.3 2.8 3.3c1.8 0 2.8-1.6 2.8-3.3zm8-1.3c0-1.5-.7-2-1.8-2c-1 0-2 .7-2.5 1.3v5.8h-.8v-7.6h.8s-.01 1.13 0 1.1c.5-.6 1.6-1.3 2.8-1.3c1.5 0 2.4.7 2.4 2.5c-.03-.03 0 5.3 0 5.3h-.9s.05-5.14 0-5.1zm14.8 3.9c.4 0 .7.3.7.7c0 .4-.3.7-.7.7c-.4 0-.7-.3-.7-.7c0-.4.3-.7.7-.7zm14-9.4h6.7v.9h-5.8v3.9h5.7v.8h-5.7v4.2h5.8v.8h-6.7V49.2zm8.6 9c.5.6 1.4 1.1 2.5 1.1c1.3 0 2-.6 2-1.5c0-1-1-1.3-2.1-1.5c-1.3-.4-2.7-.7-2.7-2.2c0-1.2 1-2.1 2.7-2.1c1.3 0 2.2.5 2.8 1.1l-.5.6c-.4-.6-1.3-1-2.3-1c-1.2 0-1.9.6-1.9 1.4c0 .8 1 1.1 2 1.3c1.4.4 2.8.7 2.8 2.4c0 1.2-.9 2.2-2.8 2.2c-1.3 0-2.2-.3-3-1.2l.5-.6zm7.5.2c-.03-.04 0-5.5 0-5.5h-1.3v-.7h1.3v-2.1h.8v2.1h1.6v.7h-1.6v5.3c0 .7.3 1.1.8 1.1c.4 0 .7-.2.9-.4l.3.7c-.3.2-.7.4-1.3.4c-1 0-1.5-.6-1.5-1.6zm8.9.5c-.7.8-1.5 1.1-2.6 1.1c-1.3 0-2.7-.9-2.7-2.5c0-1.7 1.4-2.5 2.7-2.5c1.1 0 1.9.3 2.6 1v-1.5c0-1.2-.9-1.8-2.1-1.8c-.9 0-1.7.3-2.4 1.1l-.4-.5c.8-.9 1.7-1.3 2.9-1.3c1.6 0 2.8.7 2.8 2.4c.02.04 0 5.4 0 5.4h-.8s-.01-.86 0-.9zm0-2.3c-.5-.7-1.4-1-2.3-1c-1.3 0-2.1.8-2.1 1.9c0 1.1.8 1.9 2.1 1.9c.9 0 1.8-.4 2.3-1.1v-1.7zm3.2-7.4h.9s-.04 4.21 0 4.2c.6-.9 1.5-1.4 2.6-1.4c2.1 0 3.5 1.6 3.5 4c0 2.5-1.4 4-3.5 4c-1.1 0-2.1-.6-2.6-1.4c-.04.02 0 1.2 0 1.2h-.9V49.2zm3.4 10.1c1.7 0 2.7-1.4 2.7-3.3c0-1.8-1-3.3-2.7-3.3c-1.1 0-2.1.7-2.5 1.4v3.8c.4.8 1.4 1.4 2.5 1.4zm5.5-10.1h.9v10.6h-.9V49.2zm3.1 1c0-.3.3-.6.6-.6c.3 0 .6.3.6.6c0 .4-.3.7-.6.7c-.3 0-.6-.3-.6-.7zm.2 2h.8v7.6h-.8v-7.6zm3 6c.5.6 1.4 1.1 2.5 1.1c1.3 0 2.1-.6 2.1-1.5c0-1-1.1-1.3-2.2-1.5c-1.3-.4-2.7-.7-2.7-2.2c0-1.2 1-2.1 2.8-2.1c1.3 0 2.2.5 2.7 1.1l-.5.6c-.4-.6-1.2-1-2.2-1c-1.2 0-2 .6-2 1.4c0 .8 1 1.1 2.1 1.3c1.3.4 2.8.7 2.8 2.4c0 1.2-1 2.2-2.9 2.2c-1.2 0-2.2-.3-2.9-1.2l.4-.6zm12.5-3.6c0-1.5-.7-1.9-1.8-1.9c-1 0-2 .7-2.5 1.3c-.02.04 0 5.8 0 5.8h-.8V49.2h.8s-.02 4.13 0 4.1c.5-.6 1.6-1.3 2.7-1.3c1.6 0 2.5.7 2.5 2.4c-.05.04 0 5.4 0 5.4h-.9s.03-5.19 0-5.2zM266 52c2.4 0 3.6 1.8 3.6 4c.05.04 0 .3 0 .3c0 0-6.37-.03-6.4 0c.1 1.6 1.2 3 3 3c1 0 1.9-.3 2.5-1l.5.5c-.8.8-1.8 1.2-3 1.2c-2.3 0-3.9-1.6-3.9-4c0-2.2 1.6-4 3.7-4zm-2.8 3.6h5.6c0-1.3-.9-2.9-2.8-2.9c-1.8 0-2.7 1.6-2.8 2.9zm14.1 3c-.6.8-1.6 1.4-2.7 1.4c-2 0-3.4-1.5-3.4-4c0-2.4 1.4-4 3.4-4c1.1 0 2.1.5 2.7 1.4c-.03.01 0-4.2 0-4.2h.8v10.6h-.8s-.03-1.18 0-1.2zm0-4.5c-.5-.7-1.5-1.4-2.6-1.4c-1.7 0-2.6 1.5-2.6 3.3c0 1.9.9 3.3 2.6 3.3c1.1 0 2.1-.6 2.6-1.4v-3.8zm14.1-3.9c0-.3.3-.6.6-.6c.4 0 .7.3.7.6c0 .4-.3.7-.7.7c-.3 0-.6-.3-.6-.7zm.2 2h.8v7.6h-.8v-7.6zm8.4 2.5c0-1.5-.7-2-1.8-2c-1 0-2 .7-2.5 1.3c-.02.04 0 5.8 0 5.8h-.8v-7.6h.8s-.02 1.13 0 1.1c.5-.6 1.6-1.3 2.7-1.3c1.6 0 2.5.7 2.5 2.5c-.05-.03 0 5.3 0 5.3h-.9s.03-5.14 0-5.1z" stroke="none" fill="#000"/></g><g id="Polygon100659"><path d="m4 31H.6v-.8h7.8v.8H4.9v9.8h-.9V31zm11.3 4.6c0-1.5-.8-1.9-1.9-1.9c-1 0-2 .6-2.5 1.3v5.8h-.8V30.2h.8v4.1c.6-.7 1.7-1.4 2.8-1.4c1.5 0 2.4.8 2.4 2.5v5.4h-.8s-.04-5.24 0-5.2zm6.5-2.7c2.3 0 3.6 1.9 3.6 4.1c-.02-.01 0 .2 0 .2H19c0 1.7 1.2 3.1 2.9 3.1c1 0 1.9-.4 2.6-1.1l.4.5c-.8.8-1.7 1.3-3 1.3c-2.2 0-3.8-1.7-3.8-4.1c0-2.2 1.5-4 3.7-4zM19 36.6h5.5c0-1.3-.8-3-2.8-3c-1.8 0-2.7 1.6-2.7 3zm13-1.1c0-3.3 2.4-5.5 5.4-5.5c1.7 0 3 .8 3.9 1.9l-.8.5c-.7-.9-1.8-1.6-3.1-1.6c-2.5 0-4.4 1.9-4.4 4.7c0 2.7 1.9 4.6 4.4 4.6c1.3 0 2.4-.6 3.1-1.5l.8.5c-1 1.1-2.2 1.9-3.9 1.9c-3 0-5.4-2.2-5.4-5.5zm10.7-4.3c0-.4.3-.7.6-.7c.4 0 .7.3.7.7c0 .3-.3.6-.7.6c-.3 0-.6-.3-.6-.6zm.2 1.9h.8v7.7h-.8v-7.7zm3.4 6.2c.02.01 0-5.4 0-5.4h-1.2v-.8h1.2V31h.9v2.1h1.5v.8h-1.5s-.04 5.28 0 5.3c0 .6.2 1 .8 1c.3 0 .6-.1.8-.3l.3.6c-.3.3-.6.5-1.3.5c-1 0-1.5-.6-1.5-1.7zm4.4 3.8c.5 0 .8-.2 1.1-.9c.03.01.6-1.4.6-1.4l-3.2-7.7h.9l2.8 6.7l2.8-6.7h.9s-3.96 9.37-4 9.4c-.4.9-1 1.4-1.9 1.4c-.3 0-.6-.1-.8-.1l.1-.8c.2.1.5.1.7.1zm21.2-11.7l-3.8 9.4h-.4l-3.8-9.4v9.4h-1V30.2h1.4l3.6 8.8l3.6-8.8h1.4v10.6h-1v-9.4zm8.3 8.5c-.7.7-1.6 1.1-2.6 1.1c-1.4 0-2.7-.9-2.7-2.6c0-1.7 1.3-2.5 2.7-2.5c1 0 1.9.3 2.6 1.1v-1.6c0-1.1-1-1.7-2.1-1.7c-1 0-1.7.3-2.4 1.1l-.5-.6c.8-.9 1.7-1.3 3-1.3c1.6 0 2.8.8 2.8 2.5v5.4h-.8s-.04-.92 0-.9zm0-2.3c-.6-.7-1.4-1.1-2.4-1.1c-1.2 0-2.1.9-2.1 1.9c0 1.1.9 1.9 2.1 1.9c1 0 1.8-.3 2.4-1v-1.7zm3.2-4.5h.8s.03 1.33 0 1.3c.7-.8 1.6-1.4 2.6-1.4v.9c-.1-.1-.2-.1-.4-.1c-.8 0-1.8.7-2.2 1.4c.03-.01 0 5.6 0 5.6h-.8v-7.7zm7.1 4l-1.4 1.4v2.3h-.8V30.2h.8v7.3l4.5-4.4h1.1l-3.5 3.5l3.5 4.2h-1.1l-3.1-3.7zm8.5-4.2c2.4 0 3.7 1.9 3.7 4.1c-.03-.01 0 .2 0 .2h-6.4c0 1.7 1.1 3.1 2.9 3.1c1 0 1.9-.4 2.6-1.1l.4.5c-.8.8-1.7 1.3-3 1.3c-2.2 0-3.9-1.7-3.9-4.1c0-2.2 1.6-4 3.7-4zm-2.7 3.7h5.5c0-1.3-.8-3-2.8-3c-1.8 0-2.7 1.6-2.7 3zm8.5 2.7v-5.4h-1.3v-.8h1.3V31h.8v2.1h1.6v.8h-1.6s.04 5.28 0 5.3c0 .6.3 1 .8 1c.4 0 .7-.1.9-.3l.3.6c-.3.3-.7.5-1.3.5c-1 0-1.5-.6-1.5-1.7zm8.9-8.1c0-.4.3-.7.6-.7c.4 0 .7.3.7.7c0 .3-.3.6-.7.6c-.3 0-.6-.3-.6-.6zm.2 1.9h.8v7.7h-.8v-7.7zm3.1 6c.5.7 1.4 1.2 2.5 1.2c1.2 0 2-.7 2-1.6c0-.9-1-1.2-2.2-1.5c-1.2-.3-2.6-.7-2.6-2.2c0-1.1.9-2.1 2.7-2.1c1.3 0 2.2.5 2.7 1.2l-.4.5c-.5-.6-1.3-1-2.3-1c-1.2 0-1.9.6-1.9 1.4c0 .9 1 1.1 2 1.4c1.3.3 2.8.7 2.8 2.3c0 1.3-1 2.3-2.9 2.3c-1.2 0-2.2-.4-2.9-1.2l.5-.7zm17.2.8c-.7.7-1.5 1.1-2.6 1.1c-1.3 0-2.7-.9-2.7-2.6c0-1.7 1.4-2.5 2.7-2.5c1.1 0 1.9.3 2.6 1.1v-1.6c0-1.1-.9-1.7-2-1.7c-1 0-1.7.3-2.4 1.1l-.5-.6c.8-.9 1.7-1.3 2.9-1.3c1.6 0 2.8.8 2.8 2.5c.04-.02 0 5.4 0 5.4h-.8s.02-.92 0-.9zm0-2.3c-.5-.7-1.4-1.1-2.3-1.1c-1.3 0-2.1.9-2.1 1.9c0 1.1.8 1.9 2.1 1.9c.9 0 1.8-.3 2.3-1v-1.7zm13.5-2c0-1.5-.7-1.9-1.9-1.9c-.9 0-2 .6-2.5 1.3c.04-.02 0 5.8 0 5.8h-.8V30.2h.8s.04 4.07 0 4.1c.6-.7 1.7-1.4 2.8-1.4c1.6 0 2.4.8 2.4 2.5c.02-.02 0 5.4 0 5.4h-.8v-5.2zm3-4.4c0-.4.3-.7.6-.7c.4 0 .7.3.7.7c0 .3-.3.6-.7.6c-.3 0-.6-.3-.6-.6zm.2 1.9h.9v7.7h-.9v-7.7zm3.1 6c.5.7 1.4 1.2 2.5 1.2c1.3 0 2-.7 2-1.6c0-.9-1-1.2-2.1-1.5c-1.3-.3-2.7-.7-2.7-2.2c0-1.1 1-2.1 2.7-2.1c1.3 0 2.2.5 2.8 1.2l-.5.5c-.4-.6-1.3-1-2.3-1c-1.2 0-1.9.6-1.9 1.4c0 .9 1 1.1 2 1.4c1.4.3 2.8.7 2.8 2.3c0 1.3-.9 2.3-2.8 2.3c-1.3 0-2.2-.4-3-1.2l.5-.7zm7.5.2c-.03.01 0-5.4 0-5.4h-1.3v-.8h1.3V31h.8v2.1h1.6v.8h-1.6v5.3c0 .6.3 1 .8 1c.4 0 .7-.1.9-.3l.3.6c-.3.3-.7.5-1.3.5c-1 0-1.5-.6-1.5-1.7zm3.6-2.4c0-2.2 1.4-4 3.7-4c2.2 0 3.7 1.8 3.7 4c0 2.3-1.5 4.1-3.7 4.1c-2.3 0-3.7-1.8-3.7-4.1zm6.5 0c0-1.7-1-3.2-2.8-3.2c-1.8 0-2.8 1.5-2.8 3.2c0 1.8 1 3.3 2.8 3.3c1.8 0 2.8-1.5 2.8-3.3zm2.8-3.8h.9s-.05 1.33 0 1.3c.6-.8 1.5-1.4 2.5-1.4v.9c-.1-.1-.2-.1-.4-.1c-.8 0-1.8.7-2.1 1.4c-.05-.01 0 5.6 0 5.6h-.9v-7.7zm4.7-1.9c0-.4.3-.7.6-.7c.4 0 .6.3.6.7c0 .3-.2.6-.6.6c-.3 0-.6-.3-.6-.6zm.2 1.9h.8v7.7h-.8v-7.7zm6.5-.2c1.3 0 2.1.5 2.7 1.3l-.5.5c-.6-.7-1.3-1-2.1-1c-1.8 0-2.9 1.4-2.9 3.2c0 1.9 1.1 3.3 2.9 3.3c.8 0 1.5-.3 2.1-1.1l.5.6c-.6.7-1.4 1.3-2.7 1.3c-2.2 0-3.7-1.8-3.7-4.1c0-2.2 1.5-4 3.7-4zm18.6 2.5c0-1.1-.4-1.7-1.5-1.7c-.8 0-1.8.6-2.2 1.3v5.8h-.9s.05-5.39 0-5.4c0-1.1-.4-1.7-1.5-1.7c-.8 0-1.7.6-2.2 1.3c.02-.02 0 5.8 0 5.8h-.8v-7.7h.8s.02 1.17 0 1.2c.3-.5 1.4-1.4 2.5-1.4c1.2 0 1.8.7 2 1.5c.4-.7 1.5-1.5 2.6-1.5c1.4 0 2 .8 2 2.4c.05-.05 0 5.5 0 5.5h-.8s.02-5.39 0-5.4zm8.1 4.5c-.6.7-1.5 1.1-2.6 1.1c-1.3 0-2.6-.9-2.6-2.6c0-1.7 1.3-2.5 2.6-2.5c1.1 0 2 .3 2.6 1.1v-1.6c0-1.1-.9-1.7-2-1.7c-1 0-1.7.3-2.4 1.1l-.5-.6c.8-.9 1.7-1.3 3-1.3c1.5 0 2.8.8 2.8 2.5c-.04-.02 0 5.4 0 5.4h-.9s.04-.92 0-.9zm0-2.3c-.5-.7-1.4-1.1-2.3-1.1c-1.3 0-2.1.9-2.1 1.9c0 1.1.8 1.9 2.1 1.9c.9 0 1.8-.3 2.3-1v-1.7zm3.3-4.5h.8v1.3c.7-.8 1.5-1.4 2.6-1.4v.9c-.2-.1-.3-.1-.4-.1c-.8 0-1.8.7-2.2 1.4v5.6h-.8v-7.7zm7.1 4l-1.4 1.4v2.3h-.8V30.2h.8v7.3l4.5-4.4h1.1l-3.6 3.5l3.6 4.2H226l-3.1-3.7zm8.5-4.2c2.4 0 3.6 1.9 3.6 4.1c.04-.01 0 .2 0 .2h-6.4c.1 1.7 1.2 3.1 3 3.1c1 0 1.9-.4 2.5-1.1l.5.5c-.8.8-1.8 1.3-3 1.3c-2.3 0-3.9-1.7-3.9-4.1c0-2.2 1.6-4 3.7-4zm-2.8 3.7h5.6c0-1.3-.9-3-2.8-3c-1.8 0-2.7 1.6-2.8 3zm8.6 2.7c-.03.01 0-5.4 0-5.4h-1.3v-.8h1.3V31h.8v2.1h1.6v.8H238v5.3c0 .6.3 1 .8 1c.4 0 .7-.1.9-.3l.3.6c-.3.3-.7.5-1.3.5c-1 0-1.5-.6-1.5-1.7zm12.4-6.4c1.3 0 2.1.5 2.7 1.3l-.6.5c-.6-.7-1.2-1-2.1-1c-1.8 0-2.9 1.4-2.9 3.2c0 1.9 1.1 3.3 2.9 3.3c.9 0 1.5-.3 2.1-1.1l.6.6c-.6.7-1.4 1.3-2.7 1.3c-2.3 0-3.8-1.8-3.8-4.1c0-2.2 1.5-4 3.8-4zm3.9 4c0-2.2 1.5-4 3.7-4c2.3 0 3.7 1.8 3.7 4c0 2.3-1.4 4.1-3.7 4.1c-2.2 0-3.7-1.8-3.7-4.1zm6.5 0c0-1.7-1-3.2-2.8-3.2c-1.8 0-2.8 1.5-2.8 3.2c0 1.8 1 3.3 2.8 3.3c1.8 0 2.8-1.5 2.8-3.3zm12-1.5c0-1.1-.4-1.7-1.5-1.7c-.9 0-1.8.6-2.2 1.3c-.02-.03 0 5.8 0 5.8h-.9s.04-5.39 0-5.4c0-1.1-.4-1.7-1.5-1.7c-.8 0-1.7.6-2.2 1.3v5.8h-.8v-7.7h.8v1.2c.3-.5 1.4-1.4 2.5-1.4c1.2 0 1.8.7 2 1.5c.4-.7 1.5-1.5 2.5-1.5c1.5 0 2.1.8 2.1 2.4c.04-.05 0 5.5 0 5.5h-.8v-5.4zm3.3 8.3V33.1h.8s-.02 1.23 0 1.2c.5-.8 1.5-1.4 2.6-1.4c2.1 0 3.5 1.6 3.5 4c0 2.5-1.4 4.1-3.5 4.1c-1 0-2-.6-2.6-1.5c-.02.04 0 4.2 0 4.2h-.8zm3.3-10c-1.1 0-2.1.6-2.5 1.3v3.8c.4.8 1.4 1.4 2.5 1.4c1.7 0 2.7-1.4 2.7-3.3c0-1.8-1-3.2-2.7-3.2zm5.5-3.5h.9v10.6h-.9V30.2zm6.5 2.7c2.4 0 3.7 1.9 3.7 4.1c-.04-.01 0 .2 0 .2h-6.5c.1 1.7 1.2 3.1 3 3.1c1 0 1.9-.4 2.6-1.1l.4.5c-.8.8-1.7 1.3-3 1.3c-2.3 0-3.9-1.7-3.9-4.1c0-2.2 1.6-4 3.7-4zm-2.8 3.7h5.6c0-1.3-.9-3-2.8-3c-1.8 0-2.7 1.6-2.8 3zm10.5.8l-2.5 3.4h-1l3-4l-2.8-3.7h1l2.3 3.2l2.4-3.2h1l-2.9 3.7l3.1 4h-1l-2.6-3.4z" stroke="none" fill="#000"/></g><g id="Polygon100658"><path d="m8.6 7.8H2.8v4.7H1.2V2h1.6v4.4h5.8V2h1.6v10.5H8.6V7.8zm3.6-5.1c0-.5.4-.9.9-.9c.5 0 .9.4.9.9c0 .5-.4.9-.9.9c-.5 0-.9-.4-.9-.9zm.2 2.2h1.4v7.6h-1.4V4.9zm3.5 5.6c.6.6 1.6 1.1 2.6 1.1c1.1 0 1.7-.4 1.7-1.1c0-.8-.9-1-1.9-1.2C17 9 15.5 8.6 15.5 7c0-1.3 1-2.3 2.9-2.3c1.3 0 2.3.5 2.9 1.1l-.6 1c-.5-.6-1.3-1-2.3-1c-1 0-1.6.4-1.6 1c0 .7.9.9 1.8 1.2c1.3.3 2.9.6 2.9 2.4c0 1.3-1 2.3-3.1 2.3c-1.2 0-2.4-.4-3.2-1.2l.7-1zm7.6.3c-.03.05 0-4.7 0-4.7h-1.3V4.9h1.3V2.8h1.4v2.1h1.6v1.2h-1.6v4.4c0 .6.3 1 .7 1c.4 0 .7-.2.8-.3l.4 1c-.3.3-.8.5-1.5.5c-1.2 0-1.8-.6-1.8-1.9zm3.9-2.1c0-2.2 1.5-4 3.9-4c2.4 0 3.9 1.8 3.9 4c0 2.2-1.5 4-3.9 4c-2.4 0-3.9-1.8-3.9-4zm6.3 0c0-1.4-.9-2.7-2.4-2.7c-1.5 0-2.4 1.3-2.4 2.7c0 1.5.9 2.8 2.4 2.8c1.5 0 2.4-1.3 2.4-2.8zm3.1-3.8h1.4s.04 1.15 0 1.2c.6-.8 1.5-1.4 2.6-1.4v1.4h-.5c-.8 0-1.7.5-2.1 1.1c.04.01 0 5.3 0 5.3h-1.4V4.9zm5-2.2c0-.5.4-.9.9-.9c.5 0 .9.4.9.9c0 .5-.4.9-.9.9c-.5 0-.9-.4-.9-.9zm.2 2.2h1.5v7.6H42V4.9zm7-.2c1.4 0 2.3.6 2.9 1.3l-1 .9c-.4-.6-1.1-.9-1.8-.9c-1.6 0-2.5 1.1-2.5 2.7c0 1.6.9 2.8 2.5 2.8c.7 0 1.4-.3 1.8-1l1 .9c-.6.7-1.5 1.3-2.9 1.3c-2.3 0-3.9-1.7-3.9-4c0-2.3 1.6-4 3.9-4zm7.8 2.6c0-3.3 2.4-5.5 5.4-5.5c2.1 0 3.4 1 4.2 2.2l-1.3.7c-.6-.9-1.6-1.5-2.9-1.5c-2.1 0-3.8 1.7-3.8 4.1c0 2.3 1.7 4 3.8 4c1.3 0 2.3-.6 2.9-1.5l1.3.7c-.8 1.2-2.1 2.2-4.2 2.2c-3 0-5.4-2.2-5.4-5.4zm16.2.3c0-1.3-.6-1.6-1.6-1.6c-.9 0-1.7.5-2.1 1.1c-.02-.03 0 5.4 0 5.4h-1.5V2h1.5s-.02 3.95 0 4c.5-.7 1.5-1.3 2.7-1.3c1.6 0 2.5.8 2.5 2.4c-.05.03 0 5.4 0 5.4H73s.03-4.89 0-4.9zm8.3 4.1c-.6.7-1.5 1-2.5 1c-1.3 0-2.7-.8-2.7-2.5c0-1.8 1.4-2.5 2.7-2.5c1 0 1.9.3 2.5 1V7.4c0-.9-.8-1.5-1.9-1.5c-.8 0-1.6.3-2.3 1l-.6-1c.9-.8 1.9-1.2 3.2-1.2c1.6 0 3 .7 3 2.7c.04-.03 0 5.1 0 5.1h-1.4s.02-.79 0-.8zm0-2.1c-.4-.6-1.2-.9-2-.9c-1 0-1.7.6-1.7 1.5c0 .9.7 1.5 1.7 1.5c.8 0 1.6-.3 2-.8V9.6zm3.6-4.7h1.4v1.2c.6-.8 1.5-1.4 2.5-1.4v1.4h-.5c-.7 0-1.7.5-2 1.1v5.3h-1.4V4.9zM90.1 2h1.4v10.5h-1.4V2zM97 4.7c2.3 0 3.7 1.8 3.7 4.1c.02.03 0 .4 0 .4c0 0-6.04-.02-6 0c.1 1.3 1 2.4 2.6 2.4c.8 0 1.7-.4 2.2-.9l.7.9c-.8.7-1.8 1.1-3.1 1.1c-2.3 0-4-1.6-4-4c0-2.2 1.7-4 3.9-4zm-2.4 3.4h4.7c0-1-.7-2.2-2.3-2.2c-1.5 0-2.3 1.2-2.4 2.2zm7.8 2.4c.5.6 1.5 1.1 2.5 1.1c1.1 0 1.7-.4 1.7-1.1c0-.8-.9-1-1.9-1.2c-1.3-.3-2.8-.7-2.8-2.3c0-1.3 1.1-2.3 2.9-2.3c1.4 0 2.3.5 3 1.1l-.7 1c-.4-.6-1.3-1-2.2-1c-1 0-1.6.4-1.6 1c0 .7.8.9 1.8 1.2c1.3.3 2.9.6 2.9 2.4c0 1.3-1.1 2.3-3.1 2.3c-1.3 0-2.4-.4-3.2-1.2l.7-1zm7.5.3c.02.05 0-4.7 0-4.7h-1.2V4.9h1.2V2.8h1.4v2.1h1.6v1.2h-1.6s.05 4.43 0 4.4c0 .6.3 1 .8 1c.3 0 .6-.2.8-.3l.3 1c-.3.3-.7.5-1.5.5c-1.2 0-1.8-.6-1.8-1.9zm4-2.1c0-2.2 1.5-4 3.8-4c2.4 0 3.9 1.8 3.9 4c0 2.2-1.5 4-3.9 4c-2.3 0-3.8-1.8-3.8-4zm6.2 0c0-1.4-.8-2.7-2.4-2.7c-1.5 0-2.3 1.3-2.3 2.7c0 1.5.8 2.8 2.3 2.8c1.6 0 2.4-1.3 2.4-2.8zm8.3-1.1c0-1.2-.6-1.6-1.6-1.6c-.9 0-1.7.5-2.1 1.1v5.4h-1.4V4.9h1.4s-.01 1.05 0 1.1c.5-.7 1.5-1.3 2.7-1.3c1.6 0 2.5.8 2.5 2.5c-.03-.04 0 5.3 0 5.3h-1.5s.04-4.86 0-4.9zm7.1-.3c0-3.3 2.4-5.5 5.4-5.5c2.1 0 3.4 1 4.2 2.2l-1.3.7c-.6-.9-1.6-1.5-2.9-1.5c-2.1 0-3.8 1.7-3.8 4.1c0 2.3 1.7 4 3.8 4c1.3 0 2.3-.6 2.9-1.5l1.3.7c-.8 1.2-2.1 2.2-4.2 2.2c-3 0-5.4-2.2-5.4-5.4zm10.8-4.6c0-.5.5-.9.9-.9c.6 0 1 .4 1 .9c0 .5-.4.9-1 .9c-.4 0-.9-.4-.9-.9zm.2 2.2h1.5v7.6h-1.5V4.9zm3.9 5.9c-.03.05 0-4.7 0-4.7h-1.3V4.9h1.3V2.8h1.4v2.1h1.6v1.2h-1.6v4.4c0 .6.3 1 .7 1c.4 0 .7-.2.8-.3l.4 1c-.3.3-.8.5-1.5.5c-1.2 0-1.8-.6-1.8-1.9zm4.9 3.6c.5 0 .8-.2 1.1-.8l.4-1l-3.1-7.7h1.5l2.4 6l2.4-6h1.5s-3.76 9.11-3.8 9.1c-.5 1.2-1.3 1.6-2.4 1.7c-.2 0-.7-.1-.9-.2l.2-1.2c.2 0 .5.1.7.1zm20.3-10.3l-3.4 8.4h-.7l-3.4-8.4v8.4h-1.6V2h2.3l3 7.6l3.1-7.6h2.3v10.5h-1.6V4.1zm8.5 7.6c-.6.7-1.5 1-2.5 1c-1.3 0-2.7-.8-2.7-2.5c0-1.8 1.4-2.5 2.7-2.5c1 0 1.9.3 2.5 1V7.4c0-.9-.8-1.5-1.9-1.5c-.9 0-1.6.3-2.3 1l-.6-1c.8-.8 1.9-1.2 3.1-1.2c1.7 0 3.1.7 3.1 2.7c.02-.03 0 5.1 0 5.1h-1.4v-.8zm0-2.1c-.4-.6-1.2-.9-2-.9c-1 0-1.7.6-1.7 1.5c0 .9.7 1.5 1.7 1.5c.8 0 1.6-.3 2-.8V9.6zm3.5-4.7h1.5s-.02 1.15 0 1.2c.6-.8 1.5-1.4 2.5-1.4v1.4h-.5c-.7 0-1.7.5-2 1.1c-.02.01 0 5.3 0 5.3h-1.5V4.9zm7.8 4.3l-1.1 1.2v2.1h-1.4V2h1.4v6.8l3.7-3.9h1.8l-3.3 3.5l3.3 4.1H198l-2.6-3.3zm8.5-4.5c2.3 0 3.8 1.8 3.8 4.1c-.03.03 0 .4 0 .4c0 0-6.09-.02-6.1 0c.1 1.3 1.1 2.4 2.6 2.4c.8 0 1.7-.4 2.3-.9l.7.9c-.8.7-1.9 1.1-3.1 1.1c-2.3 0-4-1.6-4-4c0-2.2 1.6-4 3.8-4zm-2.3 3.4h4.7c-.1-1-.7-2.2-2.4-2.2c-1.5 0-2.2 1.2-2.3 2.2zm8 2.7V6.1h-1.3V4.9h1.3V2.8h1.4v2.1h1.6v1.2H211s.02 4.43 0 4.4c0 .6.3 1 .8 1c.3 0 .6-.2.7-.3l.4 1c-.3.3-.7.5-1.5.5c-1.2 0-1.8-.6-1.8-1.9z" stroke="none" fill="#3797ef"/></g></svg>