<?xml version="1.0" standalone="no"?><!DOCTYPE svg PUBLIC "-//W3C//DTD SVG 1.1//EN" "http://www.w3.org/Graphics/SVG/1.1/DTD/svg11.dtd"><svg xmlns="http://www.w3.org/2000/svg" version="1.1" width="60.3px" height="28.4px" viewBox="0 -6 60.3 28.4" style="top:-6px"><desc>Agent 1</desc><defs/><g id="Polygon276460"><path d="m4.9 1.8c3 0 4.2 2.9 4.2 5.5c0 2.7-1.2 5.5-4.2 5.5C2 12.8.7 10 .7 7.3C.7 4.7 2 1.8 4.9 1.8zm0 1.4c-1.9 0-2.5 2-2.5 4.1c0 2.1.6 4.1 2.5 4.1c1.9 0 2.6-2 2.6-4.1c0-2.1-.7-4.1-2.6-4.1zm6.2 7.6c.5 0 1 .5 1 1c0 .6-.5 1-1 1c-.5 0-1-.4-1-1c0-.5.5-1 1-1zm6.7-9c2.9 0 4.2 2.9 4.2 5.5c0 2.7-1.3 5.5-4.2 5.5c-3 0-4.2-2.8-4.2-5.5c0-2.6 1.2-5.5 4.2-5.5zm0 1.4c-1.9 0-2.6 2-2.6 4.1c0 2.1.7 4.1 2.6 4.1c1.9 0 2.5-2 2.5-4.1c0-2.1-.6-4.1-2.5-4.1zm9.6-1.4c3 0 4.2 2.9 4.2 5.5c0 2.7-1.2 5.5-4.2 5.5c-2.9 0-4.1-2.8-4.1-5.5c0-2.6 1.2-5.5 4.1-5.5zm0 1.4c-1.8 0-2.5 2-2.5 4.1c0 2.1.7 4.1 2.5 4.1c1.9 0 2.6-2 2.6-4.1c0-2.1-.7-4.1-2.6-4.1zm7.9-1.4c1.5 0 2.6 1.2 2.6 2.7c0 1.5-1.1 2.6-2.6 2.6c-1.6 0-2.6-1.1-2.6-2.6c0-1.5 1-2.7 2.6-2.7zm5.8.2h.9l-6.8 10.6h-.9L41.1 2zm-5.8.8c-.9 0-1.5.7-1.5 1.7c0 .9.6 1.7 1.5 1.7c.9 0 1.5-.8 1.5-1.7c0-1-.6-1.7-1.5-1.7zm5.6 4.8c1.6 0 2.6 1.1 2.6 2.6c0 1.5-1 2.6-2.6 2.6c-1.5 0-2.6-1.1-2.6-2.6c0-1.5 1.1-2.6 2.6-2.6zm0 .9c-.9 0-1.5.7-1.5 1.7c0 1 .6 1.7 1.5 1.7c.9 0 1.5-.7 1.5-1.7c0-1-.6-1.7-1.5-1.7z" stroke="none" fill="#282828"/></g></svg>