<?xml version="1.0" standalone="no"?><!DOCTYPE svg PUBLIC "-//W3C//DTD SVG 1.1//EN" "http://www.w3.org/Graphics/SVG/1.1/DTD/svg11.dtd"><svg xmlns="http://www.w3.org/2000/svg" version="1.1" width="125.4px" height="27.3px" viewBox="0 -6 125.4 27.3" style="top:-6px"><desc>159,878</desc><defs/><g id="Polygon113579"><path d="m75.6 3.2L73.9 5l-.5-.6L75.7 2h.9v10.5h-1V3.2zm4 7.2c.7 1 1.7 1.5 3 1.5c1.5 0 2.7-1.1 2.7-2.5c0-1.7-1.1-2.6-2.7-2.6c-.9 0-1.8.3-2.5 1c-.04 0-.7-.3-.7-.3V2h6.1v.8h-5.2s-.02 4.12 0 4.1c.5-.5 1.4-1 2.5-1c1.8 0 3.4 1.2 3.4 3.4c0 2.1-1.6 3.4-3.6 3.4c-1.7 0-2.8-.6-3.6-1.7l.6-.6zm9.5.3c.5.7 1.2 1.2 2.3 1.2c2.3 0 3.1-2.4 3.1-4.7v-.5c-.4.8-1.6 1.8-3.1 1.8c-1.9 0-3.4-1.1-3.4-3.3c0-1.8 1.3-3.4 3.6-3.4c2.8 0 3.9 2.6 3.9 5.5c0 2.7-1.2 5.4-4.1 5.4c-1.4 0-2.2-.5-2.8-1.3l.5-.7zm2.5-8.1c-1.8 0-2.7 1.4-2.7 2.5c0 1.8 1.2 2.6 2.7 2.6c1.1 0 2.3-.7 2.9-1.8c-.1-1.5-.9-3.3-2.9-3.3zm5.1 11.5c.5-.3.9-1 1-1.5l-.2.1c-.4 0-.7-.3-.7-.7c0-.4.3-.7.7-.7c.5 0 .8.4.8 1c0 .9-.5 1.8-1.1 2.2l-.5-.4zm6.2-7c-1.3-.3-2.5-1.2-2.5-2.6c0-1.8 1.7-2.7 3.4-2.7c1.7 0 3.5.9 3.5 2.7c0 1.4-1.3 2.3-2.5 2.6c1.4.4 2.6 1.3 2.6 2.8c0 1.7-1.5 2.8-3.6 2.8c-2 0-3.6-1.1-3.6-2.8c0-1.5 1.3-2.4 2.7-2.8zm.9-4.5c-1.4 0-2.5.8-2.5 2c0 1.5 1.9 2 2.5 2.1c.7-.1 2.5-.6 2.5-2.1c0-1.2-1.1-2-2.5-2zm0 4.9c-.6.1-2.7.7-2.7 2.3c0 1.3 1.3 2.1 2.7 2.1c1.4 0 2.7-.8 2.7-2.1c0-1.6-2-2.2-2.7-2.3zm10.9-4.7h-5.8v-.8h6.9v.6l-4.5 9.9h-1l4.4-9.7zm5.2 4.3c-1.3-.3-2.5-1.2-2.5-2.6c0-1.8 1.8-2.7 3.5-2.7c1.6 0 3.4.9 3.4 2.7c0 1.4-1.2 2.3-2.5 2.6c1.4.4 2.7 1.3 2.7 2.8c0 1.7-1.6 2.8-3.6 2.8c-2.1 0-3.6-1.1-3.6-2.8c0-1.5 1.3-2.4 2.6-2.8zm1-4.5c-1.4 0-2.5.8-2.5 2c0 1.5 1.8 2 2.5 2.1c.6-.1 2.5-.6 2.5-2.1c0-1.2-1.1-2-2.5-2zm0 4.9c-.7.1-2.7.7-2.7 2.3c0 1.3 1.3 2.1 2.7 2.1c1.4 0 2.7-.8 2.7-2.1c0-1.6-2.1-2.2-2.7-2.3z" stroke="none" fill="#000"/></g></svg>