<?xml version="1.0" standalone="no"?><!DOCTYPE svg PUBLIC "-//W3C//DTD SVG 1.1//EN" "http://www.w3.org/Graphics/SVG/1.1/DTD/svg11.dtd"><svg xmlns="http://www.w3.org/2000/svg" version="1.1" width="77px" height="15.9px" viewBox="0 -4 77 15.9" style="top:-4px"><desc>7,740</desc><defs/><g id="Polygon110576"><path d="m60.8 1.6h-3.4v-.5h4v.4l-2.6 5.6h-.6l2.6-5.5zm.5 6.4c.3-.2.5-.6.5-.8h-.1c-.2 0-.3-.2-.3-.4c0-.2.1-.4.3-.4c.3 0 .5.2.5.6c0 .5-.3 1-.6 1.2l-.3-.2zm4.5-6.4h-3.3v-.5h3.9v.4l-2.6 5.6h-.5l2.5-5.5zm4.1 3.9H67v-.5l2.7-3.9h.7v3.9h.9v.5h-.9v1.6h-.5V5.5zM67.5 5h2.4V1.6L67.5 5zm6.8-4c1.6 0 2.2 1.7 2.2 3.1c0 1.4-.6 3.1-2.2 3.1c-1.6 0-2.2-1.7-2.2-3.1c0-1.4.6-3.1 2.2-3.1zm0 .5c-1.3 0-1.7 1.4-1.7 2.6c0 1.2.4 2.7 1.7 2.7c1.3 0 1.7-1.5 1.7-2.7c0-1.2-.4-2.6-1.7-2.6z" stroke="none" fill="#000"/></g></svg>