<?xml version="1.0" standalone="no"?>
<!DOCTYPE svg PUBLIC "-//W3C//DTD SVG 1.1//EN" "http://www.w3.org/Graphics/SVG/1.1/DTD/svg11.dtd">
<svg xmlns="http://www.w3.org/2000/svg" version="1.1" width="89.3px" height="16.9px" viewBox="0 -4 89.3 16.9" style="top:-4px">
  <desc>Insurance</desc>
  <defs/>
  <g id="Polygon274073">
    <path d="M 0.7 1.1 L 1.6 1.1 L 1.6 7.1 L 0.7 7.1 L 0.7 1.1 Z M 5.8 4.3 C 5.8 3.6 5.5 3.4 4.9 3.4 C 4.4 3.4 3.9 3.7 3.7 4 C 3.7 4 3.7 7.1 3.7 7.1 L 2.9 7.1 L 2.9 2.8 L 3.7 2.8 C 3.7 2.8 3.7 3.37 3.7 3.4 C 4 3 4.6 2.7 5.2 2.7 C 6.2 2.7 6.6 3.1 6.6 4.1 C 6.63 4.06 6.6 7.1 6.6 7.1 L 5.8 7.1 C 5.8 7.1 5.82 4.33 5.8 4.3 Z M 7.9 5.9 C 8.2 6.3 8.8 6.6 9.4 6.6 C 10 6.6 10.3 6.3 10.3 5.9 C 10.3 5.5 9.8 5.4 9.3 5.2 C 8.5 5.1 7.7 4.9 7.7 3.9 C 7.7 3.2 8.3 2.7 9.3 2.7 C 10.1 2.7 10.6 2.9 11 3.3 C 11 3.3 10.6 3.8 10.6 3.8 C 10.4 3.5 9.9 3.3 9.3 3.3 C 8.8 3.3 8.4 3.5 8.4 3.9 C 8.4 4.3 8.9 4.4 9.4 4.5 C 10.2 4.7 11.1 4.9 11.1 5.9 C 11.1 6.6 10.5 7.2 9.4 7.2 C 8.6 7.2 8 7 7.5 6.5 C 7.5 6.5 7.9 5.9 7.9 5.9 Z M 15.1 6.5 C 14.7 6.9 14.2 7.2 13.5 7.2 C 12.6 7.2 12.1 6.8 12.1 5.8 C 12.13 5.83 12.1 2.8 12.1 2.8 L 12.9 2.8 C 12.9 2.8 12.94 5.56 12.9 5.6 C 12.9 6.3 13.3 6.5 13.9 6.5 C 14.4 6.5 14.8 6.2 15.1 5.9 C 15.07 5.89 15.1 2.8 15.1 2.8 L 15.9 2.8 L 15.9 7.1 L 15.1 7.1 C 15.1 7.1 15.07 6.52 15.1 6.5 Z M 17.2 2.8 L 18 2.8 C 18 2.8 17.97 3.43 18 3.4 C 18.3 3 18.8 2.7 19.4 2.7 C 19.4 2.7 19.4 3.5 19.4 3.5 C 19.3 3.5 19.2 3.5 19.1 3.5 C 18.7 3.5 18.2 3.8 18 4.1 C 17.97 4.09 18 7.1 18 7.1 L 17.2 7.1 L 17.2 2.8 Z M 22.9 6.6 C 22.5 7 22 7.2 21.5 7.2 C 20.7 7.2 20 6.7 20 5.8 C 20 4.8 20.7 4.4 21.5 4.4 C 22 4.4 22.6 4.5 22.9 4.9 C 22.9 4.9 22.9 4.2 22.9 4.2 C 22.9 3.7 22.4 3.3 21.8 3.3 C 21.3 3.3 20.9 3.5 20.5 3.9 C 20.5 3.9 20.2 3.4 20.2 3.4 C 20.7 2.9 21.2 2.7 22 2.7 C 22.9 2.7 23.7 3.1 23.7 4.2 C 23.7 4.18 23.7 7.1 23.7 7.1 L 22.9 7.1 C 22.9 7.1 22.89 6.63 22.9 6.6 Z M 22.9 5.4 C 22.6 5.1 22.2 4.9 21.8 4.9 C 21.2 4.9 20.8 5.3 20.8 5.8 C 20.8 6.3 21.2 6.7 21.8 6.7 C 22.2 6.7 22.6 6.5 22.9 6.2 C 22.9 6.2 22.9 5.4 22.9 5.4 Z M 27.9 4.3 C 27.9 3.6 27.6 3.4 27 3.4 C 26.5 3.4 26 3.7 25.8 4 C 25.8 4 25.8 7.1 25.8 7.1 L 25 7.1 L 25 2.8 L 25.8 2.8 C 25.8 2.8 25.8 3.37 25.8 3.4 C 26.1 3 26.7 2.7 27.3 2.7 C 28.3 2.7 28.7 3.1 28.7 4.1 C 28.74 4.06 28.7 7.1 28.7 7.1 L 27.9 7.1 C 27.9 7.1 27.93 4.33 27.9 4.3 Z M 32 2.7 C 32.8 2.7 33.3 3 33.6 3.4 C 33.6 3.4 33.1 3.9 33.1 3.9 C 32.8 3.5 32.4 3.4 32 3.4 C 31.1 3.4 30.6 4 30.6 4.9 C 30.6 5.8 31.1 6.5 32 6.5 C 32.4 6.5 32.8 6.3 33.1 6 C 33.1 6 33.6 6.5 33.6 6.5 C 33.3 6.9 32.8 7.2 32 7.2 C 30.7 7.2 29.8 6.2 29.8 4.9 C 29.8 3.6 30.7 2.7 32 2.7 Z M 36.4 2.7 C 37.7 2.7 38.5 3.7 38.5 5 C 38.51 5 38.5 5.2 38.5 5.2 C 38.5 5.2 35.07 5.2 35.1 5.2 C 35.1 5.9 35.7 6.6 36.5 6.6 C 37 6.6 37.5 6.4 37.8 6 C 37.8 6 38.2 6.6 38.2 6.6 C 37.8 7 37.2 7.2 36.5 7.2 C 35.2 7.2 34.2 6.3 34.2 4.9 C 34.2 3.7 35.1 2.7 36.4 2.7 Z M 35.1 4.6 C 35.1 4.6 37.7 4.6 37.7 4.6 C 37.7 4 37.3 3.3 36.4 3.3 C 35.5 3.3 35.1 4 35.1 4.6 Z " stroke="none" fill="#000"/>
  </g>
</svg>