<?xml version="1.0" standalone="no"?>
<!DOCTYPE svg PUBLIC "-//W3C//DTD SVG 1.1//EN" "http://www.w3.org/Graphics/SVG/1.1/DTD/svg11.dtd">
<svg xmlns="http://www.w3.org/2000/svg" version="1.1" width="124px" height="65.9px" viewBox="0 -11 124 65.9" style="top:-11px">
  <desc>Agent 1</desc>
  <defs/>
  <g id="Polygon206512">
    <path d="M 30.5 41 C 30.5 37.7 32.9 35.5 35.9 35.5 C 38 35.5 39.3 36.5 40.1 37.7 C 40.1 37.7 38.7 38.5 38.7 38.5 C 38.2 37.6 37.1 36.9 35.9 36.9 C 33.7 36.9 32.1 38.6 32.1 41 C 32.1 43.3 33.7 45 35.9 45 C 37.1 45 38.2 44.4 38.7 43.5 C 38.7 43.5 40.1 44.2 40.1 44.2 C 39.3 45.5 38 46.5 35.9 46.5 C 32.9 46.5 30.5 44.2 30.5 41 Z M 46.4 45.4 C 45.8 46.1 44.9 46.5 43.9 46.5 C 42.6 46.5 41.2 45.6 41.2 43.9 C 41.2 42.2 42.6 41.4 43.9 41.4 C 44.9 41.4 45.8 41.7 46.4 42.4 C 46.4 42.4 46.4 41.2 46.4 41.2 C 46.4 40.2 45.6 39.6 44.5 39.6 C 43.6 39.6 42.9 40 42.2 40.6 C 42.2 40.6 41.6 39.7 41.6 39.7 C 42.4 38.8 43.5 38.4 44.7 38.4 C 46.4 38.4 47.8 39.1 47.8 41.1 C 47.82 41.09 47.8 46.3 47.8 46.3 L 46.4 46.3 C 46.4 46.3 46.39 45.43 46.4 45.4 Z M 46.4 43.3 C 46 42.7 45.2 42.4 44.4 42.4 C 43.4 42.4 42.7 43 42.7 43.9 C 42.7 44.8 43.4 45.5 44.4 45.5 C 45.2 45.5 46 45.2 46.4 44.6 C 46.4 44.6 46.4 43.3 46.4 43.3 Z M 50.1 49.2 L 50.1 38.6 L 51.5 38.6 C 51.5 38.6 51.53 39.69 51.5 39.7 C 52.1 38.9 53 38.4 54 38.4 C 56 38.4 57.5 39.9 57.5 42.4 C 57.5 44.9 56 46.5 54 46.5 C 53 46.5 52.2 46 51.5 45.2 C 51.53 45.16 51.5 49.2 51.5 49.2 L 50.1 49.2 Z M 53.7 39.7 C 52.8 39.7 51.9 40.2 51.5 40.8 C 51.5 40.8 51.5 44.1 51.5 44.1 C 51.9 44.7 52.8 45.2 53.7 45.2 C 55.1 45.2 56 44 56 42.4 C 56 40.8 55.1 39.7 53.7 39.7 Z M 67 42.2 L 65 42.2 L 65 46.3 L 63.4 46.3 L 63.4 35.7 C 63.4 35.7 67.86 35.68 67.9 35.7 C 69.9 35.7 71.3 37 71.3 38.9 C 71.3 40.8 70 41.9 68.6 42 C 68.62 42.03 71.3 46.3 71.3 46.3 L 69.5 46.3 L 67 42.2 Z M 67.7 37.1 C 67.66 37.07 65 37.1 65 37.1 L 65 40.8 C 65 40.8 67.66 40.79 67.7 40.8 C 68.8 40.8 69.6 40 69.6 38.9 C 69.6 37.8 68.8 37.1 67.7 37.1 Z M 77.6 45.4 C 77 46.1 76.1 46.5 75.1 46.5 C 73.8 46.5 72.4 45.6 72.4 43.9 C 72.4 42.2 73.8 41.4 75.1 41.4 C 76.1 41.4 77 41.7 77.6 42.4 C 77.6 42.4 77.6 41.2 77.6 41.2 C 77.6 40.2 76.8 39.6 75.7 39.6 C 74.8 39.6 74.1 40 73.4 40.6 C 73.4 40.6 72.8 39.7 72.8 39.7 C 73.7 38.8 74.7 38.4 75.9 38.4 C 77.6 38.4 79 39.1 79 41.1 C 79.03 41.09 79 46.3 79 46.3 L 77.6 46.3 C 77.6 46.3 77.6 45.43 77.6 45.4 Z M 77.6 43.3 C 77.2 42.7 76.4 42.4 75.6 42.4 C 74.6 42.4 73.9 43 73.9 43.9 C 73.9 44.8 74.6 45.5 75.6 45.5 C 76.4 45.5 77.2 45.2 77.6 44.6 C 77.6 44.6 77.6 43.3 77.6 43.3 Z M 81.6 44.6 C 81.6 44.57 81.6 39.9 81.6 39.9 L 80.3 39.9 L 80.3 38.6 L 81.6 38.6 L 81.6 36.5 L 83 36.5 L 83 38.6 L 84.6 38.6 L 84.6 39.9 L 83 39.9 C 83 39.9 83.03 44.25 83 44.3 C 83 44.8 83.3 45.2 83.8 45.2 C 84.1 45.2 84.4 45 84.6 44.9 C 84.6 44.9 84.9 46 84.9 46 C 84.6 46.3 84.2 46.5 83.4 46.5 C 82.2 46.5 81.6 45.8 81.6 44.6 Z M 89.5 38.4 C 91.8 38.4 93.3 40.2 93.3 42.6 C 93.27 42.55 93.3 42.9 93.3 42.9 C 93.3 42.9 87.21 42.9 87.2 42.9 C 87.3 44.2 88.3 45.3 89.8 45.3 C 90.6 45.3 91.5 45 92.1 44.4 C 92.1 44.4 92.7 45.3 92.7 45.3 C 92 46.1 90.9 46.5 89.7 46.5 C 87.4 46.5 85.7 44.8 85.7 42.4 C 85.7 40.2 87.3 38.4 89.5 38.4 Z M 87.2 41.9 C 87.2 41.9 91.9 41.9 91.9 41.9 C 91.8 40.9 91.2 39.6 89.5 39.6 C 88 39.6 87.3 40.8 87.2 41.9 Z " stroke="none" fill="#3797ef"/>
  </g>
  <g id="Polygon206511">
    <path d="M 44.4 9.3 C 44.4 9.3 44.4 21.1 44.4 21.1 C 44.4 24.1 42.6 25.3 39.7 25.3 C 39.7 25.3 39.5 25.3 39.5 25.3 C 36.5 25.3 34.7 24.1 34.7 21.1 C 34.7 21.1 34.7 9.3 34.7 9.3 C 34.7 6.3 36.5 5.1 39.5 5.1 C 39.5 5.1 39.7 5.1 39.7 5.1 C 42.6 5.1 44.4 6.3 44.4 9.3 Z M 39.6 8 C 38.5 8 37.9 8.4 37.9 9.8 C 37.9 9.8 37.9 20.6 37.9 20.6 C 37.9 22 38.5 22.4 39.6 22.4 C 40.6 22.4 41.3 22 41.3 20.6 C 41.3 20.6 41.3 9.8 41.3 9.8 C 41.3 8.4 40.6 8 39.6 8 Z M 50.1 25.1 L 46.8 25.1 L 46.8 21.4 L 50.1 21.4 L 50.1 25.1 Z M 62.2 9.3 C 62.2 9.3 62.2 21.1 62.2 21.1 C 62.2 24.1 60.4 25.3 57.5 25.3 C 57.5 25.3 57.2 25.3 57.2 25.3 C 54.3 25.3 52.5 24.1 52.5 21.1 C 52.5 21.1 52.5 9.3 52.5 9.3 C 52.5 6.3 54.3 5.1 57.2 5.1 C 57.2 5.1 57.5 5.1 57.5 5.1 C 60.4 5.1 62.2 6.3 62.2 9.3 Z M 57.4 8 C 56.3 8 55.7 8.4 55.7 9.8 C 55.7 9.8 55.7 20.6 55.7 20.6 C 55.7 22 56.3 22.4 57.4 22.4 C 58.4 22.4 59 22 59 20.6 C 59 20.6 59 9.8 59 9.8 C 59 8.4 58.4 8 57.4 8 Z M 74.5 9.3 C 74.5 9.3 74.5 21.1 74.5 21.1 C 74.5 24.1 72.7 25.3 69.8 25.3 C 69.8 25.3 69.5 25.3 69.5 25.3 C 66.6 25.3 64.8 24.1 64.8 21.1 C 64.8 21.1 64.8 9.3 64.8 9.3 C 64.8 6.3 66.6 5.1 69.5 5.1 C 69.5 5.1 69.8 5.1 69.8 5.1 C 72.7 5.1 74.5 6.3 74.5 9.3 Z M 69.7 8 C 68.6 8 68 8.4 68 9.8 C 68 9.8 68 20.6 68 20.6 C 68 22 68.6 22.4 69.7 22.4 C 70.7 22.4 71.4 22 71.4 20.6 C 71.4 20.6 71.4 9.8 71.4 9.8 C 71.4 8.4 70.7 8 69.7 8 Z M 82 7.6 C 82 7.6 82 11.3 82 11.3 C 82 13 80.9 13.6 79.6 13.6 C 79.6 13.6 79.1 13.6 79.1 13.6 C 77.8 13.6 76.7 13 76.7 11.3 C 76.7 11.3 76.7 7.6 76.7 7.6 C 76.7 5.9 77.8 5.2 79.1 5.2 C 79.1 5.2 79.6 5.2 79.6 5.2 C 80.9 5.2 82 5.9 82 7.6 Z M 79.3 25.1 L 77.5 25.1 L 86.7 5.3 L 88.6 5.3 L 79.3 25.1 Z M 79.5 6.9 C 79.5 6.9 79.2 6.9 79.2 6.9 C 78.8 6.9 78.5 7.2 78.5 7.9 C 78.5 7.9 78.5 10.9 78.5 10.9 C 78.5 11.7 78.8 11.9 79.2 11.9 C 79.2 11.9 79.5 11.9 79.5 11.9 C 79.9 11.9 80.2 11.7 80.2 10.9 C 80.2 10.9 80.2 7.9 80.2 7.9 C 80.2 7.2 79.9 6.9 79.5 6.9 Z M 89.4 19.1 C 89.4 19.1 89.4 22.9 89.4 22.9 C 89.4 24.5 88.3 25.2 87 25.2 C 87 25.2 86.5 25.2 86.5 25.2 C 85.2 25.2 84.1 24.5 84.1 22.9 C 84.1 22.9 84.1 19.1 84.1 19.1 C 84.1 17.5 85.2 16.8 86.5 16.8 C 86.5 16.8 87 16.8 87 16.8 C 88.3 16.8 89.4 17.5 89.4 19.1 Z M 86.9 18.5 C 86.9 18.5 86.6 18.5 86.6 18.5 C 86.2 18.5 85.9 18.8 85.9 19.5 C 85.9 19.5 85.9 22.5 85.9 22.5 C 85.9 23.2 86.2 23.5 86.6 23.5 C 86.6 23.5 86.9 23.5 86.9 23.5 C 87.3 23.5 87.6 23.2 87.6 22.5 C 87.6 22.5 87.6 19.5 87.6 19.5 C 87.6 18.8 87.3 18.5 86.9 18.5 Z " stroke="none" fill="#282828"/>
  </g>
</svg>