<?xml version="1.0" standalone="no"?><!DOCTYPE svg PUBLIC "-//W3C//DTD SVG 1.1//EN" "http://www.w3.org/Graphics/SVG/1.1/DTD/svg11.dtd"><svg xmlns="http://www.w3.org/2000/svg" version="1.1" width="158px" height="27.9px" viewBox="0 -6 158 27.9" style="top:-6px"><desc>Roof &amp; Structure</desc><defs/><g id="Polygon283765"><path d="m4.7 8.5H2.8v4H1.2V2s4.44-.05 4.4 0C7.7 2 9 3.3 9 5.2c0 1.9-1.2 2.9-2.6 3.1l2.7 4.2H7.3l-2.6-4zm.7-5.1c.03-.05-2.6 0-2.6 0v3.7s2.63-.03 2.6 0c1.2 0 2-.8 2-1.9c0-1.1-.8-1.8-2-1.8zM10 8.7c0-2.2 1.5-4 3.9-4c2.4 0 3.9 1.8 3.9 4c0 2.2-1.5 4-3.9 4c-2.4 0-3.9-1.8-3.9-4zm6.3 0c0-1.4-.9-2.7-2.4-2.7c-1.5 0-2.4 1.3-2.4 2.7c0 1.5.9 2.8 2.4 2.8c1.5 0 2.4-1.3 2.4-2.8zm2.8 0c0-2.2 1.5-4 3.9-4c2.4 0 3.8 1.8 3.8 4c0 2.2-1.4 4-3.8 4c-2.4 0-3.9-1.8-3.9-4zm6.2 0c0-1.4-.8-2.7-2.3-2.7c-1.6 0-2.4 1.3-2.4 2.7c0 1.5.8 2.8 2.4 2.8c1.5 0 2.3-1.3 2.3-2.8zM29 6.1h-1.3V4.9h1.3v-.5c0-1.7 1-2.6 2.3-2.6c.5 0 1 .1 1.3.3l-.3 1c-.2-.1-.5-.1-.7-.1c-.7 0-1.2.4-1.2 1.4c.03-.03 0 .5 0 .5h1.6v1.2h-1.6v6.4H29V6.1zm17.1 6.4h-1.9c-.3-.2-.6-.6-1-1c-.8.7-1.8 1.2-3 1.2c-1.9 0-3.4-1-3.4-2.9c0-1.7 1.1-2.5 2.3-3.2c-.4-.8-.7-1.6-.7-2.3c0-1.4 1.1-2.5 2.7-2.5c1.4 0 2.5.8 2.5 2.1c0 1.6-1.3 2.3-2.6 3c.4.5.8 1 1.1 1.4c.4.5.8.9 1.1 1.3c.6-.8 1-1.7 1.1-2.3l1.2.5c-.3.9-.8 1.8-1.4 2.7c.6.7 1.3 1.3 2 2zM40.4 6c1.1-.5 1.9-1 1.9-2c0-.7-.4-1.1-1.1-1.1c-.8 0-1.4.6-1.4 1.4c0 .5.3 1.1.6 1.7zm2 4.7c-.6-.6-1.1-1.2-1.4-1.6c-.4-.4-.9-1-1.3-1.6c-.8.5-1.4 1.2-1.4 2.1c0 1.3 1 2 2 2c.8 0 1.5-.4 2.1-.9zm9.6-.9c.7.8 1.9 1.5 3.4 1.5c1.7 0 2.3-.8 2.3-1.6c0-1.1-1.2-1.4-2.6-1.8c-1.7-.4-3.6-.9-3.6-3.1c0-1.7 1.5-3 3.7-3c1.6 0 2.9.5 3.9 1.5l-1 1.1c-.8-.8-1.9-1.2-3-1.2c-1.2 0-2 .6-2 1.5c0 1 1.1 1.3 2.5 1.6c1.7.4 3.7 1 3.7 3.2c0 1.7-1.1 3.2-4 3.2c-1.9 0-3.3-.6-4.2-1.6l.9-1.3zm9.1 1c.05.05 0-4.7 0-4.7h-1.2V4.9h1.2V2.8h1.5v2.1h1.5v1.2h-1.5s-.03 4.43 0 4.4c0 .6.2 1 .7 1c.4 0 .7-.2.8-.3l.4 1c-.3.3-.8.5-1.5.5c-1.2 0-1.9-.6-1.9-1.9zm4.6-5.9h1.4s.05 1.15 0 1.2c.6-.8 1.5-1.4 2.6-1.4v1.4h-.5c-.7 0-1.7.5-2.1 1.1c.05.01 0 5.3 0 5.3h-1.4V4.9zm10.6 6.6c-.6.6-1.6 1.2-2.8 1.2c-1.6 0-2.4-.8-2.4-2.4V4.9h1.4s.02 4.92 0 4.9c0 1.3.7 1.7 1.6 1.7c.9 0 1.7-.5 2.2-1.1c-.03-.01 0-5.5 0-5.5h1.4v7.6h-1.4s-.03-1 0-1zm7.1-6.8c1.4 0 2.3.6 2.9 1.3l-1 .9c-.4-.6-1.1-.9-1.8-.9C82 6 81 7.1 81 8.7c0 1.6 1 2.8 2.5 2.8c.7 0 1.4-.3 1.8-1l1 .9c-.6.7-1.5 1.3-2.9 1.3c-2.3 0-3.9-1.7-3.9-4c0-2.3 1.6-4 3.9-4zm4.7 6.1c.03.05 0-4.7 0-4.7h-1.2V4.9h1.2V2.8h1.5v2.1h1.5v1.2h-1.5s-.04 4.43 0 4.4c0 .6.2 1 .7 1c.3 0 .6-.2.8-.3l.3 1c-.3.3-.7.5-1.4.5c-1.3 0-1.9-.6-1.9-1.9zm9.8.7c-.6.6-1.6 1.2-2.8 1.2c-1.6 0-2.4-.8-2.4-2.4V4.9h1.4s.03 4.92 0 4.9c0 1.3.7 1.7 1.7 1.7c.8 0 1.7-.5 2.1-1.1c-.02-.01 0-5.5 0-5.5h1.4v7.6h-1.4s-.02-1 0-1zm3.7-6.6h1.4v1.2c.6-.8 1.5-1.4 2.5-1.4v1.4h-.5c-.7 0-1.7.5-2 1.1v5.3h-1.4V4.9zm8.7-.2c2.3 0 3.7 1.8 3.7 4.1c.05.03 0 .4 0 .4c0 0-6.02-.02-6 0c.1 1.3 1 2.4 2.6 2.4c.8 0 1.7-.4 2.3-.9l.6.9c-.7.7-1.8 1.1-3.1 1.1c-2.2 0-3.9-1.6-3.9-4c0-2.2 1.6-4 3.8-4zM108 8.1h4.7c-.1-1-.8-2.2-2.4-2.2c-1.5 0-2.3 1.2-2.3 2.2z" stroke="none" fill="#000"/></g></svg>