<?xml version="1.0" standalone="no"?><!DOCTYPE svg PUBLIC "-//W3C//DTD SVG 1.1//EN" "http://www.w3.org/Graphics/SVG/1.1/DTD/svg11.dtd"><svg xmlns="http://www.w3.org/2000/svg" version="1.1" width="134.3px" height="15.9px" viewBox="0 -4 134.3 15.9" style="top:-4px"><desc>Four (4), 5-Year</desc><defs/><g id="Polygon93214"><path d="m77.7 1.1h3.8v.5h-3.3v2.2h3.2v.5h-3.2v2.8h-.5v-6zm4.6 3.8c0-1.2.8-2.2 2.1-2.2c1.3 0 2.1 1 2.1 2.2c0 1.3-.8 2.3-2.1 2.3c-1.3 0-2.1-1-2.1-2.3zm3.7 0c0-.9-.6-1.8-1.6-1.8c-1 0-1.6.9-1.6 1.8c0 1 .6 1.9 1.6 1.9c1 0 1.6-.9 1.6-1.9zm4.6 1.6c-.4.4-.9.7-1.6.7c-.9 0-1.3-.4-1.3-1.4c-.03.02 0-3 0-3h.4s.04 2.92 0 2.9c0 .9.5 1.1 1.1 1.1c.5 0 1.1-.3 1.4-.7V2.8h.5v4.3h-.5v-.6zm1.9-3.7h.5v.7c.4-.5.9-.8 1.5-.8v.5h-.3c-.4 0-1 .4-1.2.7v3.2h-.5V2.8zm4.9 2.1c0-1.4.4-2.8 1.2-4l.3.2c-.6 1.2-1 2.3-1 3.8c0 1.6.4 2.6 1 3.8l-.3.2c-.8-1.2-1.2-2.5-1.2-4zm4.8.6h-2.9v-.5l2.7-3.9h.7v3.9h.9v.5h-.9v1.6h-.5V5.5zM99.9 5h2.3V1.6L99.9 5zm4.2-3.9l.2-.2c.8 1.2 1.2 2.6 1.2 4c0 1.5-.4 2.8-1.2 4l-.2-.2c.5-1.2.9-2.2.9-3.8c0-1.5-.4-2.6-.9-3.8zm2.4 6.9c.3-.2.5-.6.5-.8h-.1c-.2 0-.4-.2-.4-.4c0-.2.2-.4.4-.4c.3 0 .5.2.5.6c0 .5-.3 1-.7 1.2l-.2-.2zm4.7-2.1c.4.5 1 .9 1.7.9c.9 0 1.5-.7 1.5-1.5c0-.9-.6-1.5-1.5-1.5c-.5 0-1 .2-1.4.6c-.02.02-.4-.1-.4-.1V1.1h3.5v.5h-3v2.3c.3-.3.8-.5 1.4-.5c1 0 2 .6 2 1.9c0 1.2-1 1.9-2.1 1.9c-1 0-1.6-.4-2-1l.3-.3zm4.5-1.2h2.2v.4h-2.2v-.4zm4.1-.2l-2.4-3.4h.6l2 3l2-3h.7l-2.4 3.4v2.6h-.5V4.5zm4.4-1.8c1.3 0 2.1 1 2.1 2.3c-.04-.04 0 .1 0 .1c0 0-3.68-.02-3.7 0c.1.9.7 1.7 1.7 1.7c.6 0 1.1-.2 1.4-.6l.3.3c-.4.5-1 .7-1.7.7c-1.3 0-2.2-.9-2.2-2.3c0-1.2.9-2.2 2.1-2.2zm-1.6 2h3.2c0-.7-.5-1.6-1.6-1.6c-1 0-1.5.9-1.6 1.6zm7.6 1.9c-.4.4-.8.6-1.4.6c-.8 0-1.6-.5-1.6-1.4c0-1 .8-1.5 1.6-1.5c.6 0 1 .2 1.4.6v-.8c0-.7-.5-1-1.1-1c-.6 0-1 .2-1.4.6l-.3-.3c.5-.5 1-.7 1.7-.7c.9 0 1.6.4 1.6 1.4v3h-.5s.03-.5 0-.5zm0-1.3c-.3-.4-.8-.6-1.3-.6c-.7 0-1.2.5-1.2 1.1c0 .6.5 1 1.2 1c.5 0 1-.1 1.3-.5v-1zm2-2.5h.4s.02.71 0 .7c.4-.5.9-.8 1.5-.8v.5h-.2c-.5 0-1.1.4-1.3.7c.02.04 0 3.2 0 3.2h-.4V2.8z" stroke="none" fill="#000"/></g></svg>