<?xml version="1.0" standalone="no"?><!DOCTYPE svg PUBLIC "-//W3C//DTD SVG 1.1//EN" "http://www.w3.org/Graphics/SVG/1.1/DTD/svg11.dtd"><svg xmlns="http://www.w3.org/2000/svg" version="1.1" width="49.5px" height="141.9px" viewBox="0 -4 49.5 141.9" style="top:-4px"><desc>Term Base Term Base Term Base Term Base Term 1st Option 2nd Option 3rd Option</desc><defs/><g id="Polygon61066"><path d="m.6 131.9c.4.5 1 .9 1.7.9c.9 0 1.5-.5 1.5-1.3c0-.9-.7-1.2-1.6-1.2h-.5v-.5h.5c.8 0 1.5-.4 1.5-1.2c0-.7-.6-1.1-1.4-1.1c-.7 0-1.2.3-1.6.7l-.3-.3c.4-.5 1-.9 1.9-.9c1.1 0 2 .6 2 1.6c0 .9-.8 1.3-1.3 1.4c.5.1 1.4.5 1.4 1.5c0 1-.8 1.7-2.1 1.7c-.9 0-1.7-.4-2-1l.3-.3zm4.9-3.1h.5v.7c.4-.5.9-.8 1.5-.8v.5h-.3c-.4 0-1 .4-1.2.7v3.2h-.5v-4.3zm6 3.6c-.3.5-.9.8-1.5.8c-1.2 0-2-.9-2-2.3c0-1.3.8-2.2 2-2.2c.6 0 1.2.3 1.5.8v-2.4h.5v6h-.5v-.7zm0-2.5c-.2-.5-.8-.8-1.4-.8c-1 0-1.6.8-1.6 1.8c0 1.1.6 1.9 1.6 1.9c.6 0 1.2-.4 1.4-.8v-2.1zm6.8-2.9c1.8 0 2.9 1.4 2.9 3.1c0 1.8-1.1 3.1-2.9 3.1c-1.8 0-2.9-1.3-2.9-3.1c0-1.7 1.1-3.1 2.9-3.1zm0 .5c-1.5 0-2.4 1.1-2.4 2.6c0 1.5.9 2.7 2.4 2.7c1.4 0 2.4-1.2 2.4-2.7c0-1.5-1-2.6-2.4-2.6zm4.1 7.3v-6h.4s.04.66 0 .7c.3-.5.9-.8 1.6-.8c1.1 0 1.9.8 1.9 2.2c0 1.4-.8 2.3-1.9 2.3c-.7 0-1.2-.3-1.6-.8c.04.01 0 2.4 0 2.4h-.4zm1.9-5.7c-.6 0-1.2.3-1.5.8v2.1c.3.4.9.8 1.5.8c.9 0 1.5-.8 1.5-1.9c0-1-.6-1.8-1.5-1.8zm3.2 3.2v-3.1h-.7v-.4h.7v-1.2h.5v1.2h.9v.4h-.9s-.02 3 0 3c0 .4.1.6.4.6c.2 0 .4-.1.5-.2l.2.3c-.2.2-.4.3-.7.3c-.6 0-.9-.3-.9-.9zm2.2-4.6c0-.2.1-.4.3-.4c.2 0 .4.2.4.4c0 .2-.2.3-.4.3c-.2 0-.3-.1-.3-.3zm.1 1.1h.5v4.3h-.5v-4.3zm1.6 2.1c0-1.2.8-2.2 2.1-2.2c1.3 0 2.1 1 2.1 2.2c0 1.3-.8 2.3-2.1 2.3c-1.3 0-2.1-1-2.1-2.3zm3.7 0c0-.9-.6-1.8-1.6-1.8c-1 0-1.6.9-1.6 1.8c0 1 .6 1.9 1.6 1.9c1 0 1.6-.9 1.6-1.9zm4.5-.7c0-.9-.4-1.1-1-1.1c-.6 0-1.2.3-1.4.7c-.05.02 0 3.3 0 3.3h-.5v-4.3h.5s-.05.62 0 .6c.3-.4.9-.7 1.5-.7c.9 0 1.4.4 1.4 1.4c-.02-.03 0 3 0 3h-.5s.02-2.92 0-2.9z" stroke="none" fill="#242423"/></g><g id="Polygon61065"><path d="m.5 114.7c2-1.7 3.4-2.8 3.4-4c0-.9-.7-1.2-1.4-1.2c-.7 0-1.3.3-1.6.8l-.4-.4c.5-.5 1.2-.9 2-.9c.9 0 1.9.5 1.9 1.7c0 1.3-1.4 2.5-3.1 3.9c.01.04 3.2 0 3.2 0v.5h-4v-.4zm8.3-2.5c0-.9-.4-1.1-1-1.1c-.6 0-1.2.3-1.5.7c.04.02 0 3.3 0 3.3h-.4v-4.3h.4s.04.62 0 .6c.4-.4 1-.7 1.6-.7c.9 0 1.4.4 1.4 1.4c-.02-.03 0 3 0 3h-.5v-2.9zm5.1 2.2c-.4.5-.9.8-1.6.8c-1.1 0-1.9-.9-1.9-2.3c0-1.3.8-2.2 1.9-2.2c.7 0 1.2.3 1.6.8c-.05-.04 0-2.4 0-2.4h.4v6h-.4s-.05-.68 0-.7zm0-2.5c-.3-.5-.9-.8-1.5-.8c-.9 0-1.5.8-1.5 1.8c0 1.1.6 1.9 1.5 1.9c.6 0 1.2-.4 1.5-.8v-2.1zm6.7-2.9c1.8 0 3 1.4 3 3.1c0 1.8-1.2 3.1-3 3.1c-1.7 0-2.9-1.3-2.9-3.1c0-1.7 1.2-3.1 2.9-3.1zm0 .5c-1.4 0-2.3 1.1-2.3 2.6c0 1.5.9 2.7 2.3 2.7c1.5 0 2.4-1.2 2.4-2.7c0-1.5-.9-2.6-2.4-2.6zm4.1 7.3v-6h.5v.7c.3-.5.9-.8 1.5-.8c1.2 0 1.9.8 1.9 2.2c0 1.4-.7 2.3-1.9 2.3c-.6 0-1.2-.3-1.5-.8v2.4h-.5zm1.9-5.7c-.6 0-1.2.3-1.4.8v2.1c.2.4.8.8 1.4.8c1 0 1.5-.8 1.5-1.9c0-1-.5-1.8-1.5-1.8zm3.3 3.2c-.05-.03 0-3.1 0-3.1h-.8v-.4h.8v-1.2h.4v1.2h.9v.4h-.9s.03 3 0 3c0 .4.2.6.5.6c.2 0 .4-.1.5-.2l.1.3c-.1.2-.3.3-.7.3c-.6 0-.8-.3-.8-.9zm2.1-4.6c0-.2.2-.4.4-.4c.2 0 .3.2.3.4c0 .2-.1.3-.3.3c-.2 0-.4-.1-.4-.3zm.1 1.1h.5v4.3h-.5v-4.3zm1.6 2.1c0-1.2.8-2.2 2.1-2.2c1.3 0 2.1 1 2.1 2.2c0 1.3-.8 2.3-2.1 2.3c-1.3 0-2.1-1-2.1-2.3zm3.7 0c0-.9-.6-1.8-1.6-1.8c-1 0-1.6.9-1.6 1.8c0 1 .6 1.9 1.6 1.9c1 0 1.6-.9 1.6-1.9zm4.6-.7c0-.9-.5-1.1-1.1-1.1c-.5 0-1.1.3-1.4.7v3.3h-.5v-4.3h.5v.6c.3-.4.9-.7 1.6-.7c.8 0 1.3.4 1.3 1.4c.03-.03 0 3 0 3h-.4s-.03-2.92 0-2.9z" stroke="none" fill="#242423"/></g><g id="Polygon61064"><path d="m1.5 91.8l-1 1l-.3-.3l1.4-1.4h.4v6h-.5v-5.3zm1.8 4.4c.3.3.8.6 1.4.6c.7 0 1.2-.3 1.2-.8c0-.6-.6-.8-1.2-.9c-.8-.2-1.6-.4-1.6-1.2c0-.7.6-1.2 1.6-1.2c.7 0 1.2.2 1.5.6l-.2.3c-.3-.3-.7-.5-1.3-.5c-.7 0-1.1.3-1.1.7c0 .5.5.7 1.2.8c.7.2 1.5.4 1.5 1.3c0 .7-.5 1.3-1.6 1.3c-.7 0-1.2-.2-1.7-.7l.3-.3zm4.2.1c.04-.03 0-3.1 0-3.1h-.7v-.4h.7v-1.2h.5v1.2h.9v.4h-.9s.02 3 0 3c0 .4.2.6.5.6c.2 0 .4-.1.5-.2l.1.3c-.1.2-.3.3-.7.3c-.6 0-.9-.3-.9-.9zm7.3-5.3c1.7 0 2.9 1.4 2.9 3.1c0 1.8-1.2 3.1-2.9 3.1c-1.8 0-2.9-1.3-2.9-3.1c0-1.7 1.1-3.1 2.9-3.1zm0 .5c-1.5 0-2.4 1.1-2.4 2.6c0 1.5.9 2.7 2.4 2.7c1.4 0 2.4-1.2 2.4-2.7c0-1.5-1-2.6-2.4-2.6zm4.1 7.3v-6h.4s.03.66 0 .7c.3-.5.9-.8 1.5-.8c1.2 0 2 .8 2 2.2c0 1.4-.8 2.3-2 2.3c-.6 0-1.1-.3-1.5-.8c.03.01 0 2.4 0 2.4h-.4zm1.9-5.7c-.6 0-1.2.3-1.5.8v2.1c.3.4.9.8 1.5.8c.9 0 1.5-.8 1.5-1.9c0-1-.6-1.8-1.5-1.8zm3.2 3.2v-3.1h-.7v-.4h.7v-1.2h.5v1.2h.9v.4h-.9s-.03 3 0 3c0 .4.1.6.4.6c.2 0 .4-.1.5-.2l.2.3c-.2.2-.4.3-.8.3c-.5 0-.8-.3-.8-.9zm2.2-4.6c0-.2.1-.4.3-.4c.2 0 .4.2.4.4c0 .2-.2.3-.4.3c-.2 0-.3-.1-.3-.3zm.1 1.1h.5v4.3h-.5v-4.3zm1.6 2.1c0-1.2.8-2.2 2.1-2.2c1.2 0 2.1 1 2.1 2.2c0 1.3-.9 2.3-2.1 2.3c-1.3 0-2.1-1-2.1-2.3zm3.7 0c0-.9-.6-1.8-1.6-1.8c-1 0-1.6.9-1.6 1.8c0 1 .6 1.9 1.6 1.9c1 0 1.6-.9 1.6-1.9zm4.5-.7c0-.9-.4-1.1-1-1.1c-.6 0-1.2.3-1.5.7c.04.02 0 3.3 0 3.3h-.4v-4.3h.4s.04.62 0 .6c.4-.4 1-.7 1.6-.7c.9 0 1.4.4 1.4 1.4c-.03-.03 0 3 0 3h-.5v-2.9z" stroke="none" fill="#242423"/></g><g id="Polygon61063"><path d="m.7 73.1s2.51.01 2.5 0c1 0 1.7.6 1.7 1.5c0 .8-.5 1.3-1.1 1.4c.7.1 1.2.8 1.2 1.5c0 1-.7 1.6-1.7 1.6H.7v-6zm2.5 2.7c.7 0 1.1-.5 1.1-1.1c0-.6-.4-1.1-1.1-1.1c-.05-.03-1.9 0-1.9 0v2.2h1.9zm0 2.8c.8 0 1.2-.4 1.2-1.1c0-.7-.4-1.2-1.2-1.2c-.01-.03-1.9 0-1.9 0v2.3s1.89.04 1.9 0zm5.7 0c-.4.4-.8.6-1.4.6c-.8 0-1.6-.5-1.6-1.4c0-1 .8-1.5 1.6-1.5c.6 0 1 .2 1.4.6v-.8c0-.7-.5-1-1.1-1c-.6 0-1 .2-1.4.6l-.3-.3c.5-.5 1-.7 1.7-.7c.9 0 1.6.4 1.6 1.4v3h-.5s.03-.5 0-.5zm0-1.3c-.3-.4-.8-.6-1.3-.6c-.7 0-1.2.5-1.2 1.1c0 .6.5 1 1.2 1c.5 0 1-.1 1.3-.5v-1zm1.8.9c.2.3.7.6 1.4.6c.7 0 1.1-.3 1.1-.8c0-.6-.6-.8-1.2-.9c-.7-.2-1.5-.4-1.5-1.2c0-.7.5-1.2 1.5-1.2c.8 0 1.3.2 1.6.6l-.3.3c-.2-.3-.7-.5-1.3-.5c-.6 0-1.1.3-1.1.7c0 .5.6.7 1.2.8c.8.2 1.6.4 1.6 1.3c0 .7-.6 1.3-1.6 1.3c-.7 0-1.3-.2-1.7-.7l.3-.3zm5.9-3.5c1.4 0 2.1 1 2.1 2.3v.1s-3.63-.02-3.6 0c0 .9.6 1.7 1.7 1.7c.5 0 1-.2 1.4-.6l.2.3c-.4.5-.9.7-1.7.7c-1.2 0-2.1-.9-2.1-2.3c0-1.2.8-2.2 2-2.2zm-1.5 2h3.1c0-.7-.5-1.6-1.6-1.6c-1 0-1.5.9-1.5 1.6zm8.5-3.1h-2v-.5h4.5v.5h-2v5.5h-.5v-5.5zm4.2 1.1c1.3 0 2 1 2 2.3c.03-.04 0 .1 0 .1c0 0-3.6-.02-3.6 0c0 .9.7 1.7 1.7 1.7c.5 0 1-.2 1.4-.6l.3.3c-.5.5-1 .7-1.7.7c-1.3 0-2.2-.9-2.2-2.3c0-1.2.9-2.2 2.1-2.2zm-1.6 2h3.2c-.1-.7-.5-1.6-1.6-1.6c-1.1 0-1.6.9-1.6 1.6zm4.8-1.9h.4s.02.71 0 .7c.4-.5.9-.8 1.5-.8v.5h-.2c-.5 0-1.1.4-1.3.7c.02.04 0 3.2 0 3.2h-.4v-4.3zm7.9 1.3c0-.6-.3-1-.9-1c-.5 0-1 .3-1.2.7c-.03.02 0 3.3 0 3.3h-.5v-3c0-.6-.3-1-.9-1c-.4 0-1 .3-1.2.7c-.02.02 0 3.3 0 3.3h-.5v-4.3h.5s-.02.62 0 .6c.2-.3.8-.7 1.4-.7c.7 0 1 .4 1.1.8c.3-.4.9-.8 1.5-.8c.8 0 1.2.4 1.2 1.3c-.04-.02 0 3.1 0 3.1h-.5v-3z" stroke="none" fill="#242423"/></g><g id="Polygon61062"><path d="m.7 55.1s2.51.01 2.5 0c1 0 1.7.6 1.7 1.5c0 .8-.5 1.3-1.1 1.4c.7.1 1.2.8 1.2 1.5c0 1-.7 1.6-1.7 1.6H.7v-6zm2.5 2.7c.7 0 1.1-.5 1.1-1.1c0-.6-.4-1.1-1.1-1.1c-.05-.03-1.9 0-1.9 0v2.2h1.9zm0 2.8c.8 0 1.2-.4 1.2-1.1c0-.7-.4-1.2-1.2-1.2c-.01-.03-1.9 0-1.9 0v2.3s1.89.04 1.9 0zm5.7 0c-.4.4-.8.6-1.4.6c-.8 0-1.6-.5-1.6-1.4c0-1 .8-1.5 1.6-1.5c.6 0 1 .2 1.4.6v-.8c0-.7-.5-1-1.1-1c-.6 0-1 .2-1.4.6l-.3-.3c.5-.5 1-.7 1.7-.7c.9 0 1.6.4 1.6 1.4v3h-.5s.03-.5 0-.5zm0-1.3c-.3-.4-.8-.6-1.3-.6c-.7 0-1.2.5-1.2 1.1c0 .6.5 1 1.2 1c.5 0 1-.1 1.3-.5v-1zm1.8.9c.2.3.7.6 1.4.6c.7 0 1.1-.3 1.1-.8c0-.6-.6-.8-1.2-.9c-.7-.2-1.5-.4-1.5-1.2c0-.7.5-1.2 1.5-1.2c.8 0 1.3.2 1.6.6l-.3.3c-.2-.3-.7-.5-1.3-.5c-.6 0-1.1.3-1.1.7c0 .5.6.7 1.2.8c.8.2 1.6.4 1.6 1.3c0 .7-.6 1.3-1.6 1.3c-.7 0-1.3-.2-1.7-.7l.3-.3zm5.9-3.5c1.4 0 2.1 1 2.1 2.3v.1s-3.63-.02-3.6 0c0 .9.6 1.7 1.7 1.7c.5 0 1-.2 1.4-.6l.2.3c-.4.5-.9.7-1.7.7c-1.2 0-2.1-.9-2.1-2.3c0-1.2.8-2.2 2-2.2zm-1.5 2h3.1c0-.7-.5-1.6-1.6-1.6c-1 0-1.5.9-1.5 1.6zm8.5-3.1h-2v-.5h4.5v.5h-2v5.5h-.5v-5.5zm4.2 1.1c1.3 0 2 1 2 2.3c.03-.04 0 .1 0 .1c0 0-3.6-.02-3.6 0c0 .9.7 1.7 1.7 1.7c.5 0 1-.2 1.4-.6l.3.3c-.5.5-1 .7-1.7.7c-1.3 0-2.2-.9-2.2-2.3c0-1.2.9-2.2 2.1-2.2zm-1.6 2h3.2c-.1-.7-.5-1.6-1.6-1.6c-1.1 0-1.6.9-1.6 1.6zm4.8-1.9h.4s.02.71 0 .7c.4-.5.9-.8 1.5-.8v.5h-.2c-.5 0-1.1.4-1.3.7c.02.04 0 3.2 0 3.2h-.4v-4.3zm7.9 1.3c0-.6-.3-1-.9-1c-.5 0-1 .3-1.2.7c-.03.02 0 3.3 0 3.3h-.5v-3c0-.6-.3-1-.9-1c-.4 0-1 .3-1.2.7c-.02.02 0 3.3 0 3.3h-.5v-4.3h.5s-.02.62 0 .6c.2-.3.8-.7 1.4-.7c.7 0 1 .4 1.1.8c.3-.4.9-.8 1.5-.8c.8 0 1.2.4 1.2 1.3c-.04-.02 0 3.1 0 3.1h-.5v-3z" stroke="none" fill="#242423"/></g><g id="Polygon61061"><path d="m.7 37.1s2.51.01 2.5 0c1 0 1.7.6 1.7 1.5c0 .8-.5 1.3-1.1 1.4c.7.1 1.2.8 1.2 1.5c0 1-.7 1.6-1.7 1.6H.7v-6zm2.5 2.7c.7 0 1.1-.5 1.1-1.1c0-.6-.4-1.1-1.1-1.1c-.05-.03-1.9 0-1.9 0v2.2h1.9zm0 2.8c.8 0 1.2-.4 1.2-1.1c0-.7-.4-1.2-1.2-1.2c-.01-.03-1.9 0-1.9 0v2.3s1.89.04 1.9 0zm5.7 0c-.4.4-.8.6-1.4.6c-.8 0-1.6-.5-1.6-1.4c0-1 .8-1.5 1.6-1.5c.6 0 1 .2 1.4.6v-.8c0-.7-.5-1-1.1-1c-.6 0-1 .2-1.4.6l-.3-.3c.5-.5 1-.7 1.7-.7c.9 0 1.6.4 1.6 1.4v3h-.5s.03-.5 0-.5zm0-1.3c-.3-.4-.8-.6-1.3-.6c-.7 0-1.2.5-1.2 1.1c0 .6.5 1 1.2 1c.5 0 1-.1 1.3-.5v-1zm1.8.9c.2.3.7.6 1.4.6c.7 0 1.1-.3 1.1-.8c0-.6-.6-.8-1.2-.9c-.7-.2-1.5-.4-1.5-1.2c0-.7.5-1.2 1.5-1.2c.8 0 1.3.2 1.6.6l-.3.3c-.2-.3-.7-.5-1.3-.5c-.6 0-1.1.3-1.1.7c0 .5.6.7 1.2.8c.8.2 1.6.4 1.6 1.3c0 .7-.6 1.3-1.6 1.3c-.7 0-1.3-.2-1.7-.7l.3-.3zm5.9-3.5c1.4 0 2.1 1 2.1 2.3v.1s-3.63-.02-3.6 0c0 .9.6 1.7 1.7 1.7c.5 0 1-.2 1.4-.6l.2.3c-.4.5-.9.7-1.7.7c-1.2 0-2.1-.9-2.1-2.3c0-1.2.8-2.2 2-2.2zm-1.5 2h3.1c0-.7-.5-1.6-1.6-1.6c-1 0-1.5.9-1.5 1.6zm8.5-3.1h-2v-.5h4.5v.5h-2v5.5h-.5v-5.5zm4.2 1.1c1.3 0 2 1 2 2.3c.03-.04 0 .1 0 .1c0 0-3.6-.02-3.6 0c0 .9.7 1.7 1.7 1.7c.5 0 1-.2 1.4-.6l.3.3c-.5.5-1 .7-1.7.7c-1.3 0-2.2-.9-2.2-2.3c0-1.2.9-2.2 2.1-2.2zm-1.6 2h3.2c-.1-.7-.5-1.6-1.6-1.6c-1.1 0-1.6.9-1.6 1.6zm4.8-1.9h.4s.02.71 0 .7c.4-.5.9-.8 1.5-.8v.5h-.2c-.5 0-1.1.4-1.3.7c.02.04 0 3.2 0 3.2h-.4v-4.3zm7.9 1.3c0-.6-.3-1-.9-1c-.5 0-1 .3-1.2.7c-.03.02 0 3.3 0 3.3h-.5v-3c0-.6-.3-1-.9-1c-.4 0-1 .3-1.2.7c-.02.02 0 3.3 0 3.3h-.5v-4.3h.5s-.02.62 0 .6c.2-.3.8-.7 1.4-.7c.7 0 1 .4 1.1.8c.3-.4.9-.8 1.5-.8c.8 0 1.2.4 1.2 1.3c-.04-.02 0 3.1 0 3.1h-.5v-3z" stroke="none" fill="#242423"/></g><g id="Polygon61060"><path d="m.7 19.1h2.8c1.1 0 1.7.7 1.7 1.5c0 .8-.5 1.3-1.1 1.4c.7.1 1.2.8 1.2 1.5c0 .9-.6 1.6-1.7 1.6H.7v-6zm2.6 2.6c.6 0 .9-.4.9-.9c0-.5-.3-.9-.9-.9H1.6v1.8s1.71-.05 1.7 0zm.1 2.6c.6 0 1-.3 1-.9c0-.5-.4-1-1-1c-.04.05-1.8 0-1.8 0v1.9s1.76.02 1.8 0zm5.6.3c-.4.4-.9.6-1.4.6c-.8 0-1.6-.5-1.6-1.4c0-1 .8-1.4 1.6-1.4c.5 0 1 .1 1.4.5v-.7c0-.5-.5-.9-1.1-.9c-.5 0-.9.2-1.3.6l-.3-.5c.4-.5 1-.7 1.7-.7c1 0 1.8.4 1.8 1.5v2.9h-.8s-.02-.47 0-.5zm0-1.2c-.3-.3-.7-.5-1.1-.5c-.6 0-1 .4-1 .9c0 .5.4.9 1 .9c.4 0 .8-.2 1.1-.5v-.8zm2 .5c.3.4.9.7 1.5.7c.6 0 .9-.3.9-.7c0-.4-.5-.5-1.1-.7c-.7-.1-1.6-.3-1.6-1.3c0-.7.6-1.2 1.7-1.2c.7 0 1.3.2 1.7.6l-.4.5c-.3-.3-.7-.5-1.3-.5c-.5 0-.9.2-.9.6c0 .4.5.5 1 .6c.8.2 1.7.4 1.7 1.4c0 .7-.6 1.3-1.8 1.3c-.7 0-1.3-.2-1.8-.7l.4-.6zm6-3.2c1.3 0 2.1 1 2.1 2.3c.04 0 0 .2 0 .2h-3.4c.1.7.6 1.4 1.5 1.4c.4 0 .9-.2 1.3-.6l.3.6c-.4.4-1 .6-1.7.6c-1.3 0-2.2-.9-2.2-2.3c0-1.2.9-2.2 2.1-2.2zm-1.3 1.9h2.7c-.1-.6-.5-1.3-1.4-1.3c-.8 0-1.3.7-1.3 1.3zm8.1-2.7h-1.9v-.8h4.6v.8h-1.8v5.2h-.9v-5.2zm4.5.8c1.3 0 2.1 1 2.1 2.3v.2H27c0 .7.6 1.4 1.4 1.4c.5 0 1-.2 1.3-.6l.4.6c-.4.4-1 .6-1.7.6c-1.3 0-2.3-.9-2.3-2.3c0-1.2.9-2.2 2.2-2.2zM27 22.6h2.6c0-.6-.4-1.3-1.3-1.3c-.9 0-1.3.7-1.3 1.3zm4.3-1.8h.8s.04.63 0 .6c.4-.4.9-.7 1.5-.7v.8h-.3c-.4 0-1 .3-1.2.6c.04-.01 0 3 0 3h-.8v-4.3zm8.3 1.4c0-.5-.3-.8-.8-.8c-.4 0-.9.3-1.1.6c.03 0 0 3.1 0 3.1h-.8s.02-2.89 0-2.9c0-.5-.2-.8-.7-.8c-.5 0-.9.3-1.1.6v3.1h-.8v-4.3h.8v.6c.2-.3.7-.7 1.4-.7c.7 0 1 .3 1.2.8c.2-.4.8-.8 1.4-.8c.8 0 1.3.4 1.3 1.3c-.03-.03 0 3.1 0 3.1h-.8s-.04-2.89 0-2.9z" stroke="none" fill="#242423"/></g><g id="Polygon61059"><path d="m2.1 1.9H.3v-.8h4.6v.8H3v5.2h-.9V1.9zm4.5.8c1.3 0 2.1 1 2.1 2.3c.05 0 0 .2 0 .2H5.3c.1.7.6 1.4 1.5 1.4c.4 0 .9-.2 1.3-.6l.4.6c-.5.4-1.1.6-1.8.6c-1.3 0-2.2-.9-2.2-2.3c0-1.2.9-2.2 2.1-2.2zM5.3 4.6h2.7c-.1-.6-.4-1.3-1.4-1.3c-.8 0-1.3.7-1.3 1.3zm4.4-1.8h.8s-.02.63 0 .6c.3-.4.8-.7 1.4-.7v.8h-.3c-.4 0-.9.3-1.1.6c-.02-.01 0 3 0 3h-.8V2.8zm8.2 1.4c0-.5-.2-.8-.7-.8c-.5 0-.9.3-1.1.6c-.03 0 0 3.1 0 3.1h-.8s-.04-2.89 0-2.9c0-.5-.3-.8-.8-.8c-.4 0-.8.3-1.1.6c.04 0 0 3.1 0 3.1h-.8V2.8h.8s.04.57 0 .6c.2-.3.8-.7 1.4-.7c.7 0 1.1.3 1.2.8c.3-.4.8-.8 1.5-.8c.8 0 1.2.4 1.2 1.3c.02-.03 0 3.1 0 3.1h-.8V4.2z" stroke="none" fill="#88898a"/></g></svg>