<?xml version="1.0" standalone="no"?>
<!DOCTYPE svg PUBLIC "-//W3C//DTD SVG 1.1//EN" "http://www.w3.org/Graphics/SVG/1.1/DTD/svg11.dtd">
<svg xmlns="http://www.w3.org/2000/svg" version="1.1" width="152px" height="218.9px" viewBox="0 -6 152 218.9" style="top:-6px">
  <desc>Investment Summary Lease Summary Retail Aerial Site Plan Rent Schedule About the Brand Location Overview</desc>
  <defs/>
  <g id="Polygon264109">
    <path d="M 1.2 192.5 L 2.8 192.5 L 2.8 201.7 L 7.6 201.7 L 7.6 203.1 L 1.2 203.1 L 1.2 192.5 Z M 8.4 199.3 C 8.4 197.1 9.9 195.3 12.2 195.3 C 14.6 195.3 16.1 197.1 16.1 199.3 C 16.1 201.5 14.6 203.3 12.2 203.3 C 9.9 203.3 8.4 201.5 8.4 199.3 Z M 14.6 199.3 C 14.6 197.8 13.8 196.5 12.2 196.5 C 10.7 196.5 9.9 197.8 9.9 199.3 C 9.9 200.8 10.7 202.1 12.2 202.1 C 13.8 202.1 14.6 200.8 14.6 199.3 Z M 21.2 195.3 C 22.6 195.3 23.5 195.9 24.1 196.6 C 24.1 196.6 23.1 197.5 23.1 197.5 C 22.7 196.8 22 196.5 21.3 196.5 C 19.8 196.5 18.8 197.7 18.8 199.3 C 18.8 200.9 19.8 202.1 21.3 202.1 C 22 202.1 22.7 201.7 23.1 201.1 C 23.1 201.1 24.1 202 24.1 202 C 23.5 202.7 22.6 203.3 21.2 203.3 C 18.9 203.3 17.3 201.6 17.3 199.3 C 17.3 197 18.9 195.3 21.2 195.3 Z M 30.2 202.3 C 29.6 203 28.7 203.3 27.7 203.3 C 26.4 203.3 25 202.5 25 200.8 C 25 199 26.4 198.3 27.7 198.3 C 28.7 198.3 29.6 198.6 30.2 199.3 C 30.2 199.3 30.2 198 30.2 198 C 30.2 197.1 29.4 196.5 28.3 196.5 C 27.5 196.5 26.7 196.8 26 197.5 C 26 197.5 25.4 196.5 25.4 196.5 C 26.3 195.7 27.3 195.3 28.6 195.3 C 30.2 195.3 31.7 196 31.7 198 C 31.65 197.96 31.7 203.1 31.7 203.1 L 30.2 203.1 C 30.2 203.1 30.22 202.29 30.2 202.3 Z M 30.2 200.1 C 29.8 199.6 29 199.3 28.3 199.3 C 27.2 199.3 26.5 199.9 26.5 200.8 C 26.5 201.7 27.2 202.3 28.3 202.3 C 29 202.3 29.8 202 30.2 201.5 C 30.2 201.5 30.2 200.1 30.2 200.1 Z M 34.1 201.4 C 34.07 201.44 34.1 196.7 34.1 196.7 L 32.8 196.7 L 32.8 195.5 L 34.1 195.5 L 34.1 193.4 L 35.5 193.4 L 35.5 195.5 L 37.1 195.5 L 37.1 196.7 L 35.5 196.7 C 35.5 196.7 35.5 201.12 35.5 201.1 C 35.5 201.7 35.7 202.1 36.2 202.1 C 36.6 202.1 36.9 201.9 37 201.8 C 37 201.8 37.4 202.8 37.4 202.8 C 37.1 203.1 36.6 203.3 35.9 203.3 C 34.7 203.3 34.1 202.6 34.1 201.4 Z M 38.3 193.3 C 38.3 192.8 38.7 192.4 39.2 192.4 C 39.7 192.4 40.1 192.8 40.1 193.3 C 40.1 193.8 39.7 194.2 39.2 194.2 C 38.7 194.2 38.3 193.8 38.3 193.3 Z M 38.5 195.5 L 39.9 195.5 L 39.9 203.1 L 38.5 203.1 L 38.5 195.5 Z M 41.5 199.3 C 41.5 197.1 43 195.3 45.4 195.3 C 47.8 195.3 49.3 197.1 49.3 199.3 C 49.3 201.5 47.8 203.3 45.4 203.3 C 43 203.3 41.5 201.5 41.5 199.3 Z M 47.8 199.3 C 47.8 197.8 47 196.5 45.4 196.5 C 43.9 196.5 43 197.8 43 199.3 C 43 200.8 43.9 202.1 45.4 202.1 C 47 202.1 47.8 200.8 47.8 199.3 Z M 56.1 198.2 C 56.1 197 55.5 196.5 54.5 196.5 C 53.6 196.5 52.8 197.1 52.4 197.7 C 52.38 197.65 52.4 203.1 52.4 203.1 L 51 203.1 L 51 195.5 L 52.4 195.5 C 52.4 195.5 52.38 196.54 52.4 196.5 C 52.9 195.9 53.9 195.3 55.1 195.3 C 56.7 195.3 57.6 196.1 57.6 197.8 C 57.56 197.75 57.6 203.1 57.6 203.1 L 56.1 203.1 C 56.1 203.1 56.13 198.23 56.1 198.2 Z M 68.5 192.4 C 71.7 192.4 73.9 194.7 73.9 197.8 C 73.9 201 71.7 203.3 68.5 203.3 C 65.4 203.3 63.2 201 63.2 197.8 C 63.2 194.7 65.4 192.4 68.5 192.4 Z M 68.5 193.8 C 66.3 193.8 64.8 195.5 64.8 197.8 C 64.8 200.2 66.3 201.9 68.5 201.9 C 70.8 201.9 72.2 200.2 72.2 197.8 C 72.2 195.5 70.8 193.8 68.5 193.8 Z M 74.5 195.5 L 76 195.5 L 78.4 201.5 L 80.8 195.5 L 82.3 195.5 L 79.2 203.1 L 77.6 203.1 L 74.5 195.5 Z M 86.7 195.3 C 89 195.3 90.4 197.1 90.4 199.4 C 90.43 199.42 90.4 199.8 90.4 199.8 C 90.4 199.8 84.36 199.77 84.4 199.8 C 84.5 201.1 85.4 202.2 87 202.2 C 87.8 202.2 88.7 201.8 89.2 201.2 C 89.2 201.2 89.9 202.2 89.9 202.2 C 89.1 202.9 88.1 203.3 86.8 203.3 C 84.5 203.3 82.9 201.7 82.9 199.3 C 82.9 197.1 84.5 195.3 86.7 195.3 Z M 84.3 198.7 C 84.3 198.7 89 198.7 89 198.7 C 89 197.7 88.3 196.4 86.7 196.4 C 85.2 196.4 84.4 197.7 84.3 198.7 Z M 92.1 195.5 L 93.5 195.5 C 93.5 195.5 93.5 196.64 93.5 196.6 C 94.1 195.9 95 195.3 96 195.3 C 96 195.3 96 196.7 96 196.7 C 95.9 196.7 95.7 196.7 95.5 196.7 C 94.8 196.7 93.8 197.2 93.5 197.8 C 93.5 197.8 93.5 203.1 93.5 203.1 L 92.1 203.1 L 92.1 195.5 Z M 96.2 195.5 L 97.7 195.5 L 100.1 201.5 L 102.5 195.5 L 104 195.5 L 100.9 203.1 L 99.3 203.1 L 96.2 195.5 Z M 104.8 193.3 C 104.8 192.8 105.2 192.4 105.7 192.4 C 106.2 192.4 106.6 192.8 106.6 193.3 C 106.6 193.8 106.2 194.2 105.7 194.2 C 105.2 194.2 104.8 193.8 104.8 193.3 Z M 105 195.5 L 106.4 195.5 L 106.4 203.1 L 105 203.1 L 105 195.5 Z M 111.9 195.3 C 114.2 195.3 115.7 197.1 115.7 199.4 C 115.65 199.42 115.7 199.8 115.7 199.8 C 115.7 199.8 109.59 199.77 109.6 199.8 C 109.7 201.1 110.7 202.2 112.2 202.2 C 113 202.2 113.9 201.8 114.5 201.2 C 114.5 201.2 115.1 202.2 115.1 202.2 C 114.4 202.9 113.3 203.3 112 203.3 C 109.8 203.3 108.1 201.7 108.1 199.3 C 108.1 197.1 109.7 195.3 111.9 195.3 Z M 109.6 198.7 C 109.6 198.7 114.3 198.7 114.3 198.7 C 114.2 197.7 113.5 196.4 111.9 196.4 C 110.4 196.4 109.6 197.7 109.6 198.7 Z M 122.1 197.2 L 120.2 203.1 L 118.7 203.1 L 116.3 195.5 L 117.8 195.5 L 119.5 201.3 L 121.4 195.5 L 122.7 195.5 L 124.6 201.3 L 126.3 195.5 L 127.8 195.5 L 125.4 203.1 L 123.9 203.1 L 122.1 197.2 Z " stroke="none" fill="#242423"/>
  </g>
  <g id="Polygon264108">
    <path d="M 7.9 169.2 L 2.7 169.2 L 1.8 171.4 L 0.1 171.4 L 4.3 160.8 L 6.3 160.8 L 10.5 171.4 L 8.7 171.4 L 7.9 169.2 Z M 3.1 167.8 L 7.4 167.8 L 5.3 162.2 L 3.1 167.8 Z M 11.6 160.8 L 13 160.8 C 13 160.8 12.99 164.81 13 164.8 C 13.6 164 14.5 163.5 15.5 163.5 C 17.5 163.5 18.9 165.1 18.9 167.5 C 18.9 170.1 17.5 171.6 15.5 171.6 C 14.5 171.6 13.6 171 13 170.3 C 12.99 170.28 13 171.4 13 171.4 L 11.6 171.4 L 11.6 160.8 Z M 15.1 170.3 C 16.5 170.3 17.4 169.1 17.4 167.5 C 17.4 165.9 16.5 164.8 15.1 164.8 C 14.2 164.8 13.4 165.3 13 165.9 C 13 165.9 13 169.2 13 169.2 C 13.4 169.8 14.2 170.3 15.1 170.3 Z M 20.1 167.5 C 20.1 165.3 21.6 163.5 24 163.5 C 26.4 163.5 27.9 165.3 27.9 167.5 C 27.9 169.8 26.4 171.6 24 171.6 C 21.6 171.6 20.1 169.8 20.1 167.5 Z M 26.4 167.5 C 26.4 166.1 25.5 164.8 24 164.8 C 22.5 164.8 21.6 166.1 21.6 167.5 C 21.6 169 22.5 170.3 24 170.3 C 25.5 170.3 26.4 169 26.4 167.5 Z M 34.7 170.3 C 34.1 171 33.1 171.6 32 171.6 C 30.3 171.6 29.5 170.7 29.5 169.1 C 29.51 169.12 29.5 163.7 29.5 163.7 L 30.9 163.7 C 30.9 163.7 30.94 168.64 30.9 168.6 C 30.9 169.9 31.6 170.3 32.6 170.3 C 33.4 170.3 34.3 169.8 34.7 169.2 C 34.69 169.21 34.7 163.7 34.7 163.7 L 36.1 163.7 L 36.1 171.4 L 34.7 171.4 C 34.7 171.4 34.69 170.32 34.7 170.3 Z M 38.5 169.7 C 38.51 169.67 38.5 165 38.5 165 L 37.2 165 L 37.2 163.7 L 38.5 163.7 L 38.5 161.6 L 39.9 161.6 L 39.9 163.7 L 41.5 163.7 L 41.5 165 L 39.9 165 C 39.9 165 39.94 169.35 39.9 169.4 C 39.9 169.9 40.2 170.3 40.7 170.3 C 41 170.3 41.3 170.1 41.5 170 C 41.5 170 41.8 171.1 41.8 171.1 C 41.5 171.4 41.1 171.6 40.3 171.6 C 39.1 171.6 38.5 170.9 38.5 169.7 Z M 47.2 169.7 C 47.15 169.67 47.2 165 47.2 165 L 45.9 165 L 45.9 163.7 L 47.2 163.7 L 47.2 161.6 L 48.6 161.6 L 48.6 163.7 L 50.1 163.7 L 50.1 165 L 48.6 165 C 48.6 165 48.58 169.35 48.6 169.4 C 48.6 169.9 48.8 170.3 49.3 170.3 C 49.7 170.3 50 170.1 50.1 170 C 50.1 170 50.5 171.1 50.5 171.1 C 50.2 171.4 49.7 171.6 49 171.6 C 47.8 171.6 47.2 170.9 47.2 169.7 Z M 56.7 166.4 C 56.7 165.2 56.1 164.8 55.1 164.8 C 54.2 164.8 53.4 165.3 53 165.9 C 53 165.89 53 171.4 53 171.4 L 51.6 171.4 L 51.6 160.8 L 53 160.8 C 53 160.8 53 164.78 53 164.8 C 53.5 164.2 54.5 163.5 55.7 163.5 C 57.4 163.5 58.2 164.3 58.2 166 C 58.18 165.95 58.2 171.4 58.2 171.4 L 56.7 171.4 C 56.7 171.4 56.75 166.43 56.7 166.4 Z M 63.7 163.5 C 66 163.5 67.4 165.3 67.4 167.7 C 67.4 167.65 67.4 168 67.4 168 C 67.4 168 61.34 168 61.3 168 C 61.4 169.3 62.4 170.4 63.9 170.4 C 64.8 170.4 65.6 170.1 66.2 169.5 C 66.2 169.5 66.9 170.4 66.9 170.4 C 66.1 171.2 65 171.6 63.8 171.6 C 61.5 171.6 59.8 169.9 59.8 167.5 C 59.8 165.3 61.4 163.5 63.7 163.5 Z M 61.3 167 C 61.3 167 66 167 66 167 C 66 166 65.3 164.7 63.7 164.7 C 62.1 164.7 61.4 165.9 61.3 167 Z M 73 160.8 C 73 160.8 77.98 160.78 78 160.8 C 79.9 160.8 81 161.9 81 163.5 C 81 164.8 80.1 165.7 79.1 165.9 C 80.3 166.1 81.2 167.2 81.2 168.5 C 81.2 170.2 80.1 171.4 78.1 171.4 C 78.11 171.37 73 171.4 73 171.4 L 73 160.8 Z M 77.7 165.3 C 78.7 165.3 79.3 164.6 79.3 163.7 C 79.3 162.9 78.7 162.2 77.7 162.2 C 77.68 162.17 74.6 162.2 74.6 162.2 L 74.6 165.3 C 74.6 165.3 77.68 165.27 77.7 165.3 Z M 77.8 170 C 78.9 170 79.5 169.3 79.5 168.3 C 79.5 167.4 78.9 166.7 77.8 166.7 C 77.76 166.67 74.6 166.7 74.6 166.7 L 74.6 170 C 74.6 170 77.76 169.97 77.8 170 Z M 83 163.7 L 84.4 163.7 C 84.4 163.7 84.38 164.87 84.4 164.9 C 85 164.1 85.9 163.5 86.9 163.5 C 86.9 163.5 86.9 165 86.9 165 C 86.7 164.9 86.6 164.9 86.4 164.9 C 85.7 164.9 84.7 165.5 84.4 166 C 84.38 166.03 84.4 171.4 84.4 171.4 L 83 171.4 L 83 163.7 Z M 92.9 170.5 C 92.3 171.2 91.4 171.6 90.4 171.6 C 89.1 171.6 87.7 170.7 87.7 169 C 87.7 167.3 89.1 166.5 90.4 166.5 C 91.4 166.5 92.3 166.8 92.9 167.5 C 92.9 167.5 92.9 166.3 92.9 166.3 C 92.9 165.3 92.1 164.7 91 164.7 C 90.1 164.7 89.4 165.1 88.7 165.7 C 88.7 165.7 88.1 164.8 88.1 164.8 C 89 163.9 90 163.5 91.2 163.5 C 92.9 163.5 94.3 164.2 94.3 166.2 C 94.32 166.19 94.3 171.4 94.3 171.4 L 92.9 171.4 C 92.9 171.4 92.9 170.53 92.9 170.5 Z M 92.9 168.4 C 92.5 167.8 91.7 167.5 90.9 167.5 C 89.9 167.5 89.2 168.1 89.2 169 C 89.2 169.9 89.9 170.6 90.9 170.6 C 91.7 170.6 92.5 170.3 92.9 169.7 C 92.9 169.7 92.9 168.4 92.9 168.4 Z M 101.6 166.5 C 101.6 165.2 101 164.8 100 164.8 C 99.1 164.8 98.3 165.3 97.9 165.9 C 97.88 165.89 97.9 171.4 97.9 171.4 L 96.5 171.4 L 96.5 163.7 L 97.9 163.7 C 97.9 163.7 97.88 164.78 97.9 164.8 C 98.4 164.2 99.4 163.5 100.6 163.5 C 102.2 163.5 103.1 164.4 103.1 166 C 103.06 165.99 103.1 171.4 103.1 171.4 L 101.6 171.4 C 101.6 171.4 101.63 166.46 101.6 166.5 Z M 110.6 170.3 C 110.1 171 109.1 171.6 108.1 171.6 C 106.1 171.6 104.7 170.1 104.7 167.5 C 104.7 165.1 106.1 163.5 108.1 163.5 C 109.1 163.5 110 164 110.6 164.8 C 110.64 164.81 110.6 160.8 110.6 160.8 L 112.1 160.8 L 112.1 171.4 L 110.6 171.4 C 110.6 171.4 110.64 170.28 110.6 170.3 Z M 110.6 165.9 C 110.2 165.3 109.4 164.8 108.5 164.8 C 107.1 164.8 106.2 165.9 106.2 167.5 C 106.2 169.1 107.1 170.3 108.5 170.3 C 109.4 170.3 110.2 169.8 110.6 169.2 C 110.6 169.2 110.6 165.9 110.6 165.9 Z " stroke="none" fill="#242423"/>
  </g>
  <g id="Polygon264107">
    <path d="M 4.7 135.5 L 2.8 135.5 L 2.8 139.6 L 1.2 139.6 L 1.2 129 C 1.2 129 5.64 129.01 5.6 129 C 7.7 129 9 130.3 9 132.3 C 9 134.2 7.8 135.2 6.4 135.4 C 6.4 135.36 9.1 139.6 9.1 139.6 L 7.3 139.6 L 4.7 135.5 Z M 5.4 130.4 C 5.43 130.41 2.8 130.4 2.8 130.4 L 2.8 134.1 C 2.8 134.1 5.43 134.13 5.4 134.1 C 6.6 134.1 7.4 133.4 7.4 132.3 C 7.4 131.2 6.6 130.4 5.4 130.4 Z M 13.7 131.7 C 16 131.7 17.4 133.5 17.4 135.9 C 17.42 135.89 17.4 136.2 17.4 136.2 C 17.4 136.2 11.35 136.24 11.4 136.2 C 11.5 137.5 12.4 138.6 14 138.6 C 14.8 138.6 15.7 138.3 16.2 137.7 C 16.2 137.7 16.9 138.7 16.9 138.7 C 16.1 139.4 15.1 139.8 13.8 139.8 C 11.5 139.8 9.8 138.2 9.8 135.8 C 9.8 133.5 11.5 131.7 13.7 131.7 Z M 11.3 135.2 C 11.3 135.2 16 135.2 16 135.2 C 16 134.2 15.3 132.9 13.7 132.9 C 12.1 132.9 11.4 134.2 11.3 135.2 Z M 24.2 134.7 C 24.2 133.4 23.6 133 22.6 133 C 21.7 133 20.9 133.6 20.5 134.1 C 20.49 134.13 20.5 139.6 20.5 139.6 L 19.1 139.6 L 19.1 131.9 L 20.5 131.9 C 20.5 131.9 20.49 133.01 20.5 133 C 21 132.4 22 131.7 23.2 131.7 C 24.8 131.7 25.7 132.6 25.7 134.2 C 25.66 134.22 25.7 139.6 25.7 139.6 L 24.2 139.6 C 24.2 139.6 24.24 134.7 24.2 134.7 Z M 28.1 137.9 C 28.06 137.91 28.1 133.2 28.1 133.2 L 26.8 133.2 L 26.8 131.9 L 28.1 131.9 L 28.1 129.8 L 29.5 129.8 L 29.5 131.9 L 31 131.9 L 31 133.2 L 29.5 133.2 C 29.5 133.2 29.49 137.59 29.5 137.6 C 29.5 138.1 29.7 138.5 30.2 138.5 C 30.6 138.5 30.9 138.4 31 138.2 C 31 138.2 31.4 139.3 31.4 139.3 C 31.1 139.6 30.6 139.8 29.9 139.8 C 28.7 139.8 28.1 139.1 28.1 137.9 Z M 36.7 136.9 C 37.4 137.7 38.6 138.4 40 138.4 C 41.8 138.4 42.4 137.5 42.4 136.7 C 42.4 135.6 41.2 135.3 39.8 135 C 38.1 134.5 36.1 134 36.1 131.9 C 36.1 130.1 37.7 128.9 39.9 128.9 C 41.5 128.9 42.8 129.4 43.7 130.3 C 43.7 130.3 42.8 131.5 42.8 131.5 C 42 130.6 40.9 130.3 39.8 130.3 C 38.6 130.3 37.8 130.9 37.8 131.8 C 37.8 132.7 38.9 133 40.2 133.3 C 42 133.8 44 134.3 44 136.6 C 44 138.3 42.8 139.8 40 139.8 C 38.1 139.8 36.7 139.1 35.8 138.1 C 35.8 138.1 36.7 136.9 36.7 136.9 Z M 49.1 131.7 C 50.5 131.7 51.4 132.3 51.9 133.1 C 51.9 133.1 51 134 51 134 C 50.5 133.3 49.9 133 49.1 133 C 47.6 133 46.6 134.2 46.6 135.8 C 46.6 137.4 47.6 138.5 49.1 138.5 C 49.9 138.5 50.5 138.2 51 137.6 C 51 137.6 51.9 138.4 51.9 138.4 C 51.4 139.2 50.5 139.8 49.1 139.8 C 46.7 139.8 45.2 138.1 45.2 135.8 C 45.2 133.5 46.7 131.7 49.1 131.7 Z M 58.5 134.7 C 58.5 133.4 57.9 133 56.9 133 C 56 133 55.2 133.6 54.8 134.1 C 54.78 134.13 54.8 139.6 54.8 139.6 L 53.3 139.6 L 53.3 129 L 54.8 129 C 54.8 129 54.78 133.01 54.8 133 C 55.3 132.4 56.3 131.7 57.5 131.7 C 59.1 131.7 60 132.6 60 134.2 C 59.95 134.19 60 139.6 60 139.6 L 58.5 139.6 C 58.5 139.6 58.53 134.67 58.5 134.7 Z M 65.5 131.7 C 67.8 131.7 69.2 133.5 69.2 135.9 C 69.18 135.89 69.2 136.2 69.2 136.2 C 69.2 136.2 63.11 136.24 63.1 136.2 C 63.2 137.5 64.2 138.6 65.7 138.6 C 66.5 138.6 67.4 138.3 68 137.7 C 68 137.7 68.7 138.7 68.7 138.7 C 67.9 139.4 66.8 139.8 65.6 139.8 C 63.3 139.8 61.6 138.2 61.6 135.8 C 61.6 133.5 63.2 131.7 65.5 131.7 Z M 63.1 135.2 C 63.1 135.2 67.8 135.2 67.8 135.2 C 67.8 134.2 67.1 132.9 65.5 132.9 C 63.9 132.9 63.2 134.2 63.1 135.2 Z M 76.3 138.5 C 75.7 139.3 74.8 139.8 73.8 139.8 C 71.8 139.8 70.3 138.3 70.3 135.8 C 70.3 133.3 71.8 131.7 73.8 131.7 C 74.8 131.7 75.7 132.2 76.3 133 C 76.28 133.05 76.3 129 76.3 129 L 77.7 129 L 77.7 139.6 L 76.3 139.6 C 76.3 139.6 76.28 138.51 76.3 138.5 Z M 76.3 134.1 C 75.9 133.5 75 133 74.2 133 C 72.7 133 71.8 134.2 71.8 135.8 C 71.8 137.4 72.7 138.5 74.2 138.5 C 75 138.5 75.9 138 76.3 137.4 C 76.3 137.4 76.3 134.1 76.3 134.1 Z M 85 138.6 C 84.4 139.2 83.5 139.8 82.3 139.8 C 80.6 139.8 79.8 139 79.8 137.4 C 79.84 137.35 79.8 131.9 79.8 131.9 L 81.3 131.9 C 81.3 131.9 81.27 136.88 81.3 136.9 C 81.3 138.1 81.9 138.5 82.9 138.5 C 83.8 138.5 84.6 138 85 137.4 C 85.02 137.45 85 131.9 85 131.9 L 86.4 131.9 L 86.4 139.6 L 85 139.6 C 85 139.6 85.02 138.56 85 138.6 Z M 88.6 129 L 90 129 L 90 139.6 L 88.6 139.6 L 88.6 129 Z M 95.5 131.7 C 97.8 131.7 99.2 133.5 99.2 135.9 C 99.2 135.89 99.2 136.2 99.2 136.2 C 99.2 136.2 93.13 136.24 93.1 136.2 C 93.2 137.5 94.2 138.6 95.7 138.6 C 96.5 138.6 97.4 138.3 98 137.7 C 98 137.7 98.7 138.7 98.7 138.7 C 97.9 139.4 96.8 139.8 95.6 139.8 C 93.3 139.8 91.6 138.2 91.6 135.8 C 91.6 133.5 93.2 131.7 95.5 131.7 Z M 93.1 135.2 C 93.1 135.2 97.8 135.2 97.8 135.2 C 97.8 134.2 97.1 132.9 95.5 132.9 C 93.9 132.9 93.2 134.2 93.1 135.2 Z " stroke="none" fill="#242423"/>
  </g>
  <g id="Polygon264106">
    <path d="M 1.4 105.1 C 2.1 105.9 3.3 106.6 4.8 106.6 C 6.5 106.6 7.1 105.7 7.1 105 C 7.1 103.9 5.9 103.6 4.5 103.2 C 2.8 102.8 0.9 102.3 0.9 100.1 C 0.9 98.4 2.4 97.1 4.6 97.1 C 6.2 97.1 7.5 97.6 8.5 98.6 C 8.5 98.6 7.5 99.7 7.5 99.7 C 6.7 98.9 5.6 98.5 4.5 98.5 C 3.3 98.5 2.5 99.1 2.5 100 C 2.5 100.9 3.6 101.2 5 101.6 C 6.7 102 8.7 102.6 8.7 104.8 C 8.7 106.5 7.6 108 4.7 108 C 2.8 108 1.4 107.3 0.5 106.3 C 0.5 106.3 1.4 105.1 1.4 105.1 Z M 10.1 98 C 10.1 97.5 10.6 97.1 11.1 97.1 C 11.6 97.1 12 97.5 12 98 C 12 98.5 11.6 98.9 11.1 98.9 C 10.6 98.9 10.1 98.5 10.1 98 Z M 10.4 100.2 L 11.8 100.2 L 11.8 107.8 L 10.4 107.8 L 10.4 100.2 Z M 14.2 106.1 C 14.18 106.14 14.2 101.4 14.2 101.4 L 12.9 101.4 L 12.9 100.2 L 14.2 100.2 L 14.2 98.1 L 15.6 98.1 L 15.6 100.2 L 17.2 100.2 L 17.2 101.4 L 15.6 101.4 C 15.6 101.4 15.61 105.82 15.6 105.8 C 15.6 106.4 15.9 106.8 16.4 106.8 C 16.7 106.8 17 106.6 17.1 106.5 C 17.1 106.5 17.5 107.5 17.5 107.5 C 17.2 107.8 16.8 108 16 108 C 14.8 108 14.2 107.3 14.2 106.1 Z M 22 100 C 24.3 100 25.7 101.8 25.7 104.1 C 25.7 104.12 25.7 104.5 25.7 104.5 C 25.7 104.5 19.63 104.47 19.6 104.5 C 19.7 105.8 20.7 106.9 22.2 106.9 C 23 106.9 23.9 106.5 24.5 106 C 24.5 106 25.2 106.9 25.2 106.9 C 24.4 107.6 23.3 108 22.1 108 C 19.8 108 18.1 106.4 18.1 104 C 18.1 101.8 19.7 100 22 100 Z M 19.6 103.4 C 19.6 103.4 24.3 103.4 24.3 103.4 C 24.3 102.4 23.6 101.2 22 101.2 C 20.4 101.2 19.7 102.4 19.6 103.4 Z M 31.3 97.2 C 31.3 97.2 35.77 97.25 35.8 97.2 C 37.9 97.2 39.1 98.7 39.1 100.5 C 39.1 102.3 37.9 103.8 35.8 103.8 C 35.77 103.76 32.9 103.8 32.9 103.8 L 32.9 107.8 L 31.3 107.8 L 31.3 97.2 Z M 35.6 98.6 C 35.56 98.64 32.9 98.6 32.9 98.6 L 32.9 102.4 C 32.9 102.4 35.56 102.36 35.6 102.4 C 36.7 102.4 37.5 101.6 37.5 100.5 C 37.5 99.4 36.7 98.6 35.6 98.6 Z M 40.6 97.2 L 42 97.2 L 42 107.8 L 40.6 107.8 L 40.6 97.2 Z M 48.9 107 C 48.3 107.7 47.4 108 46.4 108 C 45.1 108 43.7 107.2 43.7 105.5 C 43.7 103.7 45.1 103 46.4 103 C 47.4 103 48.3 103.3 48.9 104 C 48.9 104 48.9 102.7 48.9 102.7 C 48.9 101.8 48.1 101.2 47 101.2 C 46.1 101.2 45.4 101.5 44.7 102.2 C 44.7 102.2 44.1 101.2 44.1 101.2 C 44.9 100.4 46 100 47.2 100 C 48.9 100 50.3 100.7 50.3 102.7 C 50.3 102.66 50.3 107.8 50.3 107.8 L 48.9 107.8 C 48.9 107.8 48.87 107 48.9 107 Z M 48.9 104.9 C 48.4 104.3 47.7 104 46.9 104 C 45.9 104 45.1 104.6 45.1 105.5 C 45.1 106.4 45.9 107 46.9 107 C 47.7 107 48.4 106.7 48.9 106.2 C 48.9 106.2 48.9 104.9 48.9 104.9 Z M 57.6 102.9 C 57.6 101.7 57 101.2 56 101.2 C 55.1 101.2 54.3 101.8 53.9 102.4 C 53.86 102.36 53.9 107.8 53.9 107.8 L 52.4 107.8 L 52.4 100.2 L 53.9 100.2 C 53.9 100.2 53.86 101.25 53.9 101.2 C 54.4 100.6 55.4 100 56.6 100 C 58.2 100 59 100.8 59 102.5 C 59.03 102.46 59 107.8 59 107.8 L 57.6 107.8 C 57.6 107.8 57.61 102.93 57.6 102.9 Z " stroke="none" fill="#242423"/>
  </g>
  <g id="Polygon264105">
    <path d="M 4.7 72 L 2.8 72 L 2.8 76.1 L 1.2 76.1 L 1.2 65.5 C 1.2 65.5 5.64 65.48 5.6 65.5 C 7.7 65.5 9 66.8 9 68.7 C 9 70.6 7.8 71.7 6.4 71.8 C 6.4 71.84 9.1 76.1 9.1 76.1 L 7.3 76.1 L 4.7 72 Z M 5.4 66.9 C 5.43 66.88 2.8 66.9 2.8 66.9 L 2.8 70.6 C 2.8 70.6 5.43 70.6 5.4 70.6 C 6.6 70.6 7.4 69.9 7.4 68.7 C 7.4 67.6 6.6 66.9 5.4 66.9 Z M 13.7 68.2 C 16 68.2 17.4 70 17.4 72.4 C 17.42 72.36 17.4 72.7 17.4 72.7 C 17.4 72.7 11.35 72.71 11.4 72.7 C 11.5 74 12.4 75.1 14 75.1 C 14.8 75.1 15.7 74.8 16.2 74.2 C 16.2 74.2 16.9 75.1 16.9 75.1 C 16.1 75.9 15.1 76.3 13.8 76.3 C 11.5 76.3 9.8 74.6 9.8 72.2 C 9.8 70 11.5 68.2 13.7 68.2 Z M 11.3 71.7 C 11.3 71.7 16 71.7 16 71.7 C 16 70.7 15.3 69.4 13.7 69.4 C 12.1 69.4 11.4 70.6 11.3 71.7 Z M 19.3 74.4 C 19.35 74.38 19.3 69.7 19.3 69.7 L 18.1 69.7 L 18.1 68.4 L 19.3 68.4 L 19.3 66.3 L 20.8 66.3 L 20.8 68.4 L 22.3 68.4 L 22.3 69.7 L 20.8 69.7 C 20.8 69.7 20.77 74.06 20.8 74.1 C 20.8 74.6 21 75 21.5 75 C 21.9 75 22.2 74.9 22.3 74.7 C 22.3 74.7 22.7 75.8 22.7 75.8 C 22.4 76.1 21.9 76.3 21.2 76.3 C 20 76.3 19.3 75.6 19.3 74.4 Z M 28.5 75.2 C 27.9 75.9 27 76.3 26 76.3 C 24.7 76.3 23.3 75.4 23.3 73.7 C 23.3 72 24.7 71.2 26 71.2 C 27 71.2 27.9 71.6 28.5 72.2 C 28.5 72.2 28.5 71 28.5 71 C 28.5 70 27.7 69.4 26.6 69.4 C 25.7 69.4 25 69.8 24.3 70.5 C 24.3 70.5 23.7 69.5 23.7 69.5 C 24.6 68.6 25.6 68.2 26.8 68.2 C 28.5 68.2 29.9 68.9 29.9 70.9 C 29.92 70.9 29.9 76.1 29.9 76.1 L 28.5 76.1 C 28.5 76.1 28.49 75.24 28.5 75.2 Z M 28.5 73.1 C 28.1 72.5 27.3 72.2 26.5 72.2 C 25.5 72.2 24.8 72.8 24.8 73.7 C 24.8 74.6 25.5 75.3 26.5 75.3 C 27.3 75.3 28.1 75 28.5 74.4 C 28.5 74.4 28.5 73.1 28.5 73.1 Z M 31.8 66.2 C 31.8 65.7 32.3 65.3 32.7 65.3 C 33.3 65.3 33.7 65.7 33.7 66.2 C 33.7 66.7 33.3 67.1 32.7 67.1 C 32.3 67.1 31.8 66.7 31.8 66.2 Z M 32.1 68.4 L 33.5 68.4 L 33.5 76.1 L 32.1 76.1 L 32.1 68.4 Z M 35.6 65.5 L 37 65.5 L 37 76.1 L 35.6 76.1 L 35.6 65.5 Z M 49.8 73.9 L 44.6 73.9 L 43.8 76.1 L 42 76.1 L 46.2 65.5 L 48.2 65.5 L 52.4 76.1 L 50.7 76.1 L 49.8 73.9 Z M 45.1 72.5 L 49.3 72.5 L 47.2 66.9 L 45.1 72.5 Z M 56.9 68.2 C 59.2 68.2 60.6 70 60.6 72.4 C 60.59 72.36 60.6 72.7 60.6 72.7 C 60.6 72.7 54.52 72.71 54.5 72.7 C 54.6 74 55.6 75.1 57.1 75.1 C 57.9 75.1 58.8 74.8 59.4 74.2 C 59.4 74.2 60.1 75.1 60.1 75.1 C 59.3 75.9 58.2 76.3 57 76.3 C 54.7 76.3 53 74.6 53 72.2 C 53 70 54.6 68.2 56.9 68.2 Z M 54.5 71.7 C 54.5 71.7 59.2 71.7 59.2 71.7 C 59.2 70.7 58.5 69.4 56.9 69.4 C 55.3 69.4 54.6 70.6 54.5 71.7 Z M 62.2 68.4 L 63.7 68.4 C 63.7 68.4 63.65 69.58 63.7 69.6 C 64.2 68.8 65.1 68.2 66.2 68.2 C 66.2 68.2 66.2 69.7 66.2 69.7 C 66 69.6 65.9 69.6 65.7 69.6 C 65 69.6 64 70.2 63.7 70.7 C 63.65 70.74 63.7 76.1 63.7 76.1 L 62.2 76.1 L 62.2 68.4 Z M 67.2 66.2 C 67.2 65.7 67.6 65.3 68.1 65.3 C 68.6 65.3 69.1 65.7 69.1 66.2 C 69.1 66.7 68.6 67.1 68.1 67.1 C 67.6 67.1 67.2 66.7 67.2 66.2 Z M 67.4 68.4 L 68.9 68.4 L 68.9 76.1 L 67.4 76.1 L 67.4 68.4 Z M 75.7 75.2 C 75.1 75.9 74.2 76.3 73.2 76.3 C 71.9 76.3 70.5 75.4 70.5 73.7 C 70.5 72 71.9 71.2 73.2 71.2 C 74.2 71.2 75.1 71.6 75.7 72.2 C 75.7 72.2 75.7 71 75.7 71 C 75.7 70 74.9 69.4 73.8 69.4 C 73 69.4 72.2 69.8 71.5 70.5 C 71.5 70.5 70.9 69.5 70.9 69.5 C 71.8 68.6 72.8 68.2 74.1 68.2 C 75.7 68.2 77.1 68.9 77.1 70.9 C 77.14 70.9 77.1 76.1 77.1 76.1 L 75.7 76.1 C 75.7 76.1 75.71 75.24 75.7 75.2 Z M 75.7 73.1 C 75.3 72.5 74.5 72.2 73.7 72.2 C 72.7 72.2 72 72.8 72 73.7 C 72 74.6 72.7 75.3 73.7 75.3 C 74.5 75.3 75.3 75 75.7 74.4 C 75.7 74.4 75.7 73.1 75.7 73.1 Z M 79.3 65.5 L 80.7 65.5 L 80.7 76.1 L 79.3 76.1 L 79.3 65.5 Z " stroke="none" fill="#242423"/>
  </g>
  <g id="Polygon264104">
    <path d="M 1.2 33.7 L 2.8 33.7 L 2.8 42.9 L 7.6 42.9 L 7.6 44.3 L 1.2 44.3 L 1.2 33.7 Z M 12.2 36.5 C 14.5 36.5 15.9 38.2 15.9 40.6 C 15.94 40.59 15.9 40.9 15.9 40.9 C 15.9 40.9 9.88 40.94 9.9 40.9 C 10 42.2 10.9 43.3 12.5 43.3 C 13.3 43.3 14.2 43 14.8 42.4 C 14.8 42.4 15.4 43.4 15.4 43.4 C 14.7 44.1 13.6 44.5 12.3 44.5 C 10.1 44.5 8.4 42.9 8.4 40.5 C 8.4 38.2 10 36.5 12.2 36.5 Z M 9.9 39.9 C 9.9 39.9 14.5 39.9 14.5 39.9 C 14.5 38.9 13.8 37.6 12.2 37.6 C 10.7 37.6 9.9 38.9 9.9 39.9 Z M 22.3 43.5 C 21.7 44.1 20.8 44.5 19.8 44.5 C 18.5 44.5 17.1 43.6 17.1 42 C 17.1 40.2 18.5 39.5 19.8 39.5 C 20.8 39.5 21.7 39.8 22.3 40.5 C 22.3 40.5 22.3 39.2 22.3 39.2 C 22.3 38.2 21.5 37.7 20.4 37.7 C 19.6 37.7 18.8 38 18.1 38.7 C 18.1 38.7 17.5 37.7 17.5 37.7 C 18.4 36.9 19.4 36.5 20.7 36.5 C 22.3 36.5 23.7 37.2 23.7 39.1 C 23.74 39.13 23.7 44.3 23.7 44.3 L 22.3 44.3 C 22.3 44.3 22.32 43.47 22.3 43.5 Z M 22.3 41.3 C 21.9 40.8 21.1 40.5 20.3 40.5 C 19.3 40.5 18.6 41.1 18.6 42 C 18.6 42.9 19.3 43.5 20.3 43.5 C 21.1 43.5 21.9 43.2 22.3 42.6 C 22.3 42.6 22.3 41.3 22.3 41.3 Z M 25.9 42.3 C 26.4 42.8 27.4 43.4 28.5 43.4 C 29.5 43.4 30.1 42.9 30.1 42.3 C 30.1 41.5 29.2 41.2 28.3 41 C 27 40.7 25.4 40.4 25.4 38.7 C 25.4 37.5 26.5 36.5 28.3 36.5 C 29.7 36.5 30.6 36.9 31.3 37.5 C 31.3 37.5 30.6 38.5 30.6 38.5 C 30.2 38 29.3 37.6 28.4 37.6 C 27.4 37.6 26.8 38 26.8 38.6 C 26.8 39.3 27.6 39.5 28.6 39.7 C 29.9 40 31.5 40.4 31.5 42.2 C 31.5 43.5 30.4 44.5 28.4 44.5 C 27.1 44.5 26 44.1 25.2 43.3 C 25.2 43.3 25.9 42.3 25.9 42.3 Z M 36.5 36.5 C 38.8 36.5 40.2 38.2 40.2 40.6 C 40.24 40.59 40.2 40.9 40.2 40.9 C 40.2 40.9 34.18 40.94 34.2 40.9 C 34.3 42.2 35.2 43.3 36.8 43.3 C 37.6 43.3 38.5 43 39.1 42.4 C 39.1 42.4 39.7 43.4 39.7 43.4 C 39 44.1 37.9 44.5 36.6 44.5 C 34.4 44.5 32.7 42.9 32.7 40.5 C 32.7 38.2 34.3 36.5 36.5 36.5 Z M 34.2 39.9 C 34.2 39.9 38.8 39.9 38.8 39.9 C 38.8 38.9 38.1 37.6 36.5 37.6 C 35 37.6 34.2 38.9 34.2 39.9 Z M 46.1 41.6 C 46.8 42.4 48 43.1 49.4 43.1 C 51.2 43.1 51.8 42.2 51.8 41.5 C 51.8 40.3 50.6 40 49.2 39.7 C 47.5 39.2 45.5 38.7 45.5 36.6 C 45.5 34.8 47.1 33.6 49.3 33.6 C 50.9 33.6 52.2 34.1 53.1 35 C 53.1 35 52.2 36.2 52.2 36.2 C 51.4 35.4 50.3 35 49.2 35 C 48 35 47.2 35.6 47.2 36.5 C 47.2 37.4 48.3 37.7 49.6 38.1 C 51.4 38.5 53.4 39.1 53.4 41.3 C 53.4 43 52.2 44.5 49.4 44.5 C 47.5 44.5 46.1 43.8 45.2 42.8 C 45.2 42.8 46.1 41.6 46.1 41.6 Z M 60.2 43.3 C 59.6 43.9 58.7 44.5 57.5 44.5 C 55.8 44.5 55 43.7 55 42.1 C 55.03 42.06 55 36.6 55 36.6 L 56.5 36.6 C 56.5 36.6 56.46 41.58 56.5 41.6 C 56.5 42.9 57.1 43.2 58.1 43.2 C 59 43.2 59.8 42.7 60.2 42.2 C 60.21 42.15 60.2 36.6 60.2 36.6 L 61.6 36.6 L 61.6 44.3 L 60.2 44.3 C 60.2 44.3 60.21 43.26 60.2 43.3 Z M 73.1 39.2 C 73.1 38.3 72.7 37.7 71.7 37.7 C 71 37.7 70.2 38.3 69.8 38.8 C 69.83 38.82 69.8 44.3 69.8 44.3 L 68.4 44.3 C 68.4 44.3 68.41 39.2 68.4 39.2 C 68.4 38.3 68 37.7 67.1 37.7 C 66.3 37.7 65.6 38.3 65.2 38.8 C 65.18 38.83 65.2 44.3 65.2 44.3 L 63.8 44.3 L 63.8 36.6 L 65.2 36.6 C 65.2 36.6 65.18 37.72 65.2 37.7 C 65.5 37.2 66.5 36.5 67.7 36.5 C 68.8 36.5 69.5 37.1 69.7 37.9 C 70.2 37.2 71.2 36.5 72.3 36.5 C 73.7 36.5 74.5 37.2 74.5 38.8 C 74.5 38.77 74.5 44.3 74.5 44.3 L 73.1 44.3 C 73.1 44.3 73.08 39.2 73.1 39.2 Z M 85.9 39.2 C 85.9 38.3 85.5 37.7 84.6 37.7 C 83.8 37.7 83.1 38.3 82.7 38.8 C 82.7 38.82 82.7 44.3 82.7 44.3 L 81.3 44.3 C 81.3 44.3 81.27 39.2 81.3 39.2 C 81.3 38.3 80.9 37.7 79.9 37.7 C 79.2 37.7 78.4 38.3 78 38.8 C 78.04 38.83 78 44.3 78 44.3 L 76.6 44.3 L 76.6 36.6 L 78 36.6 C 78 36.6 78.04 37.72 78 37.7 C 78.4 37.2 79.4 36.5 80.5 36.5 C 81.7 36.5 82.4 37.1 82.6 37.9 C 83 37.2 84.1 36.5 85.2 36.5 C 86.6 36.5 87.4 37.2 87.4 38.8 C 87.37 38.77 87.4 44.3 87.4 44.3 L 85.9 44.3 C 85.9 44.3 85.94 39.2 85.9 39.2 Z M 94.2 43.5 C 93.6 44.1 92.7 44.5 91.7 44.5 C 90.4 44.5 89 43.6 89 42 C 89 40.2 90.4 39.5 91.7 39.5 C 92.7 39.5 93.6 39.8 94.2 40.5 C 94.2 40.5 94.2 39.2 94.2 39.2 C 94.2 38.2 93.4 37.7 92.3 37.7 C 91.5 37.7 90.7 38 90 38.7 C 90 38.7 89.4 37.7 89.4 37.7 C 90.3 36.9 91.3 36.5 92.6 36.5 C 94.2 36.5 95.6 37.2 95.6 39.1 C 95.64 39.13 95.6 44.3 95.6 44.3 L 94.2 44.3 C 94.2 44.3 94.21 43.47 94.2 43.5 Z M 94.2 41.3 C 93.8 40.8 93 40.5 92.2 40.5 C 91.2 40.5 90.5 41.1 90.5 42 C 90.5 42.9 91.2 43.5 92.2 43.5 C 93 43.5 93.8 43.2 94.2 42.6 C 94.2 42.6 94.2 41.3 94.2 41.3 Z M 97.8 36.6 L 99.2 36.6 C 99.2 36.6 99.2 37.81 99.2 37.8 C 99.8 37.1 100.7 36.5 101.7 36.5 C 101.7 36.5 101.7 37.9 101.7 37.9 C 101.6 37.9 101.4 37.9 101.2 37.9 C 100.5 37.9 99.5 38.4 99.2 39 C 99.2 38.97 99.2 44.3 99.2 44.3 L 97.8 44.3 L 97.8 36.6 Z M 103.5 46.2 C 104 46.2 104.3 46 104.6 45.4 C 104.57 45.41 105 44.4 105 44.4 L 101.9 36.6 L 103.4 36.6 L 105.8 42.7 L 108.2 36.6 L 109.7 36.6 C 109.7 36.6 105.93 45.77 105.9 45.8 C 105.4 47 104.6 47.4 103.5 47.4 C 103.3 47.4 102.8 47.4 102.6 47.3 C 102.6 47.3 102.8 46 102.8 46 C 103 46.1 103.3 46.2 103.5 46.2 Z " stroke="none" fill="#242423"/>
  </g>
  <g id="Polygon264103">
    <path d="M 1.2 2 L 2.8 2 L 2.8 12.5 L 1.2 12.5 L 1.2 2 Z M 10.1 7.6 C 10.1 6.4 9.5 6 8.5 6 C 7.6 6 6.8 6.5 6.4 7.1 C 6.37 7.07 6.4 12.5 6.4 12.5 L 4.9 12.5 L 4.9 4.9 L 6.4 4.9 C 6.4 4.9 6.37 5.95 6.4 6 C 6.9 5.3 7.9 4.7 9.1 4.7 C 10.7 4.7 11.5 5.5 11.5 7.2 C 11.55 7.16 11.5 12.5 11.5 12.5 L 10.1 12.5 C 10.1 12.5 10.12 7.64 10.1 7.6 Z M 12.5 4.9 L 14.1 4.9 L 16.5 10.9 L 18.9 4.9 L 20.4 4.9 L 17.2 12.5 L 15.7 12.5 L 12.5 4.9 Z M 24.8 4.7 C 27.1 4.7 28.5 6.5 28.5 8.8 C 28.49 8.83 28.5 9.2 28.5 9.2 C 28.5 9.2 22.42 9.18 22.4 9.2 C 22.5 10.5 23.5 11.6 25 11.6 C 25.8 11.6 26.7 11.2 27.3 10.7 C 27.3 10.7 28 11.6 28 11.6 C 27.2 12.3 26.1 12.7 24.9 12.7 C 22.6 12.7 20.9 11.1 20.9 8.7 C 20.9 6.5 22.5 4.7 24.8 4.7 Z M 22.4 8.1 C 22.4 8.1 27.1 8.1 27.1 8.1 C 27.1 7.1 26.4 5.9 24.8 5.9 C 23.2 5.9 22.5 7.1 22.4 8.1 Z M 30.1 10.5 C 30.7 11.1 31.7 11.6 32.7 11.6 C 33.8 11.6 34.4 11.2 34.4 10.5 C 34.4 9.7 33.5 9.5 32.5 9.3 C 31.2 9 29.7 8.6 29.7 7 C 29.7 5.7 30.7 4.7 32.6 4.7 C 33.9 4.7 34.9 5.2 35.5 5.8 C 35.5 5.8 34.9 6.8 34.9 6.8 C 34.4 6.2 33.6 5.8 32.6 5.8 C 31.7 5.8 31 6.2 31 6.8 C 31 7.5 31.9 7.7 32.8 8 C 34.2 8.3 35.7 8.6 35.7 10.4 C 35.7 11.7 34.7 12.7 32.7 12.7 C 31.4 12.7 30.2 12.3 29.5 11.5 C 29.5 11.5 30.1 10.5 30.1 10.5 Z M 37.7 10.8 C 37.69 10.85 37.7 6.1 37.7 6.1 L 36.4 6.1 L 36.4 4.9 L 37.7 4.9 L 37.7 2.8 L 39.1 2.8 L 39.1 4.9 L 40.7 4.9 L 40.7 6.1 L 39.1 6.1 C 39.1 6.1 39.12 10.53 39.1 10.5 C 39.1 11.1 39.4 11.5 39.9 11.5 C 40.2 11.5 40.5 11.3 40.6 11.2 C 40.6 11.2 41 12.2 41 12.2 C 40.7 12.5 40.3 12.7 39.5 12.7 C 38.3 12.7 37.7 12.1 37.7 10.8 Z M 51.4 7.4 C 51.4 6.5 51 6 50.1 6 C 49.3 6 48.6 6.5 48.2 7.1 C 48.19 7.05 48.2 12.5 48.2 12.5 L 46.8 12.5 C 46.8 12.5 46.76 7.43 46.8 7.4 C 46.8 6.5 46.4 6 45.4 6 C 44.7 6 43.9 6.5 43.5 7.1 C 43.53 7.07 43.5 12.5 43.5 12.5 L 42.1 12.5 L 42.1 4.9 L 43.5 4.9 C 43.5 4.9 43.53 5.95 43.5 6 C 43.8 5.5 44.9 4.7 46 4.7 C 47.2 4.7 47.9 5.3 48.1 6.1 C 48.5 5.4 49.6 4.7 50.7 4.7 C 52.1 4.7 52.9 5.5 52.9 7 C 52.85 7 52.9 12.5 52.9 12.5 L 51.4 12.5 C 51.4 12.5 51.43 7.43 51.4 7.4 Z M 58.3 4.7 C 60.6 4.7 62.1 6.5 62.1 8.8 C 62.07 8.83 62.1 9.2 62.1 9.2 C 62.1 9.2 56 9.18 56 9.2 C 56.1 10.5 57.1 11.6 58.6 11.6 C 59.4 11.6 60.3 11.2 60.9 10.7 C 60.9 10.7 61.5 11.6 61.5 11.6 C 60.8 12.3 59.7 12.7 58.5 12.7 C 56.2 12.7 54.5 11.1 54.5 8.7 C 54.5 6.5 56.1 4.7 58.3 4.7 Z M 56 8.1 C 56 8.1 60.7 8.1 60.7 8.1 C 60.6 7.1 60 5.9 58.3 5.9 C 56.8 5.9 56.1 7.1 56 8.1 Z M 68.9 7.6 C 68.9 6.4 68.2 6 67.2 6 C 66.4 6 65.5 6.5 65.1 7.1 C 65.13 7.07 65.1 12.5 65.1 12.5 L 63.7 12.5 L 63.7 4.9 L 65.1 4.9 C 65.1 4.9 65.13 5.95 65.1 6 C 65.6 5.3 66.7 4.7 67.8 4.7 C 69.5 4.7 70.3 5.5 70.3 7.2 C 70.31 7.16 70.3 12.5 70.3 12.5 L 68.9 12.5 C 68.9 12.5 68.88 7.64 68.9 7.6 Z M 72.7 10.8 C 72.71 10.85 72.7 6.1 72.7 6.1 L 71.4 6.1 L 71.4 4.9 L 72.7 4.9 L 72.7 2.8 L 74.1 2.8 L 74.1 4.9 L 75.7 4.9 L 75.7 6.1 L 74.1 6.1 C 74.1 6.1 74.14 10.53 74.1 10.5 C 74.1 11.1 74.4 11.5 74.9 11.5 C 75.2 11.5 75.5 11.3 75.7 11.2 C 75.7 11.2 76 12.2 76 12.2 C 75.7 12.5 75.3 12.7 74.5 12.7 C 73.3 12.7 72.7 12.1 72.7 10.8 Z M 81.3 9.8 C 82.1 10.6 83.2 11.3 84.7 11.3 C 86.4 11.3 87 10.5 87 9.7 C 87 8.6 85.8 8.3 84.4 7.9 C 82.7 7.5 80.8 7 80.8 4.8 C 80.8 3.1 82.3 1.8 84.5 1.8 C 86.2 1.8 87.4 2.3 88.4 3.3 C 88.4 3.3 87.5 4.4 87.5 4.4 C 86.7 3.6 85.5 3.2 84.4 3.2 C 83.2 3.2 82.4 3.8 82.4 4.7 C 82.4 5.7 83.6 6 84.9 6.3 C 86.6 6.7 88.6 7.3 88.6 9.5 C 88.6 11.2 87.5 12.7 84.6 12.7 C 82.7 12.7 81.3 12.1 80.4 11.1 C 80.4 11.1 81.3 9.8 81.3 9.8 Z M 95.5 11.5 C 94.9 12.1 93.9 12.7 92.7 12.7 C 91.1 12.7 90.3 11.9 90.3 10.3 C 90.28 10.29 90.3 4.9 90.3 4.9 L 91.7 4.9 C 91.7 4.9 91.7 9.82 91.7 9.8 C 91.7 11.1 92.3 11.5 93.3 11.5 C 94.2 11.5 95 11 95.5 10.4 C 95.45 10.39 95.5 4.9 95.5 4.9 L 96.9 4.9 L 96.9 12.5 L 95.5 12.5 C 95.5 12.5 95.45 11.5 95.5 11.5 Z M 108.3 7.4 C 108.3 6.5 107.9 6 107 6 C 106.2 6 105.4 6.5 105.1 7.1 C 105.08 7.05 105.1 12.5 105.1 12.5 L 103.6 12.5 C 103.6 12.5 103.65 7.43 103.6 7.4 C 103.6 6.5 103.3 6 102.3 6 C 101.6 6 100.8 6.5 100.4 7.1 C 100.42 7.07 100.4 12.5 100.4 12.5 L 99 12.5 L 99 4.9 L 100.4 4.9 C 100.4 4.9 100.42 5.95 100.4 6 C 100.7 5.5 101.8 4.7 102.9 4.7 C 104.1 4.7 104.7 5.3 105 6.1 C 105.4 5.4 106.4 4.7 107.6 4.7 C 109 4.7 109.7 5.5 109.7 7 C 109.74 7 109.7 12.5 109.7 12.5 L 108.3 12.5 C 108.3 12.5 108.32 7.43 108.3 7.4 Z M 121.2 7.4 C 121.2 6.5 120.8 6 119.8 6 C 119.1 6 118.3 6.5 117.9 7.1 C 117.94 7.05 117.9 12.5 117.9 12.5 L 116.5 12.5 C 116.5 12.5 116.51 7.43 116.5 7.4 C 116.5 6.5 116.1 6 115.2 6 C 114.4 6 113.7 6.5 113.3 7.1 C 113.29 7.07 113.3 12.5 113.3 12.5 L 111.9 12.5 L 111.9 4.9 L 113.3 4.9 C 113.3 4.9 113.29 5.95 113.3 6 C 113.6 5.5 114.6 4.7 115.8 4.7 C 116.9 4.7 117.6 5.3 117.8 6.1 C 118.3 5.4 119.3 4.7 120.4 4.7 C 121.8 4.7 122.6 5.5 122.6 7 C 122.61 7 122.6 12.5 122.6 12.5 L 121.2 12.5 C 121.2 12.5 121.18 7.43 121.2 7.4 Z M 129.5 11.7 C 128.9 12.4 128 12.7 126.9 12.7 C 125.7 12.7 124.3 11.9 124.3 10.2 C 124.3 8.4 125.7 7.7 126.9 7.7 C 128 7.7 128.9 8 129.5 8.7 C 129.5 8.7 129.5 7.4 129.5 7.4 C 129.5 6.5 128.7 5.9 127.6 5.9 C 126.7 5.9 126 6.2 125.3 6.9 C 125.3 6.9 124.7 5.9 124.7 5.9 C 125.5 5.1 126.6 4.7 127.8 4.7 C 129.5 4.7 130.9 5.4 130.9 7.4 C 130.88 7.37 130.9 12.5 130.9 12.5 L 129.5 12.5 C 129.5 12.5 129.46 11.71 129.5 11.7 Z M 129.5 9.6 C 129 9 128.3 8.7 127.5 8.7 C 126.5 8.7 125.7 9.3 125.7 10.2 C 125.7 11.1 126.5 11.7 127.5 11.7 C 128.3 11.7 129 11.4 129.5 10.9 C 129.5 10.9 129.5 9.6 129.5 9.6 Z M 133 4.9 L 134.4 4.9 C 134.4 4.9 134.44 6.05 134.4 6.1 C 135 5.3 135.9 4.7 137 4.7 C 137 4.7 137 6.1 137 6.1 C 136.8 6.1 136.6 6.1 136.5 6.1 C 135.7 6.1 134.8 6.6 134.4 7.2 C 134.44 7.21 134.4 12.5 134.4 12.5 L 133 12.5 L 133 4.9 Z M 138.7 14.4 C 139.2 14.4 139.6 14.2 139.8 13.6 C 139.81 13.64 140.3 12.6 140.3 12.6 L 137.1 4.9 L 138.6 4.9 L 141 10.9 L 143.4 4.9 L 145 4.9 C 145 4.9 141.18 14.01 141.2 14 C 140.7 15.2 139.8 15.6 138.7 15.7 C 138.5 15.7 138.1 15.6 137.8 15.5 C 137.8 15.5 138.1 14.3 138.1 14.3 C 138.2 14.3 138.5 14.4 138.7 14.4 Z " stroke="none" fill="#242423"/>
  </g>
</svg>