<?xml version="1.0" standalone="no"?><!DOCTYPE svg PUBLIC "-//W3C//DTD SVG 1.1//EN" "http://www.w3.org/Graphics/SVG/1.1/DTD/svg11.dtd"><svg xmlns="http://www.w3.org/2000/svg" version="1.1" width="583.2px" height="27.9px" viewBox="0 -6 583.2 27.9" style="top:-6px"><desc>CONTACT AGENT NAME</desc><defs/><g id="Polygon283447"><path d="m376.8 7.3c0-3.3 2.4-5.5 5.4-5.5c2.1 0 3.4 1 4.2 2.2l-1.3.7c-.6-.9-1.6-1.5-2.9-1.5c-2.1 0-3.8 1.7-3.8 4.1c0 2.3 1.7 4 3.8 4c1.3 0 2.3-.6 2.9-1.5l1.3.7c-.8 1.2-2.1 2.2-4.2 2.2c-3 0-5.4-2.2-5.4-5.4zm16.1-5.5c3.2 0 5.3 2.3 5.3 5.5c0 3.1-2.1 5.4-5.3 5.4c-3.2 0-5.3-2.3-5.3-5.4c0-3.2 2.1-5.5 5.3-5.5zm0 1.4c-2.3 0-3.7 1.7-3.7 4.1c0 2.3 1.4 4 3.7 4c2.2 0 3.7-1.7 3.7-4c0-2.4-1.5-4.1-3.7-4.1zm8.8 1.2v8.1h-1.5V2h1.6l5.8 7.9V2h1.5v10.5h-1.5l-5.9-8.1zm12.4-1h-3.3V2h8.1v1.4h-3.2v9.1h-1.6V3.4zm12.2 7h-5.2l-.9 2.1h-1.7L422.7 2h1.9l4.3 10.5h-1.8l-.8-2.1zm-4.8-1.5h4.3l-2.2-5.6l-2.1 5.6zm7.6-1.6c0-3.3 2.4-5.5 5.4-5.5c2.1 0 3.4 1 4.3 2.2l-1.4.7c-.6-.9-1.6-1.5-2.9-1.5c-2.1 0-3.8 1.7-3.8 4.1c0 2.3 1.7 4 3.8 4c1.3 0 2.3-.6 2.9-1.5l1.4.7c-.9 1.2-2.2 2.2-4.3 2.2c-3 0-5.4-2.2-5.4-5.4zm13.8-3.9h-3.3V2h8.2v1.4h-3.3v9.1h-1.6V3.4zm9.9 3.3l7-3.4v1.2L454 7.2l5.8 2.8v1.1l-7-3.3V6.7zm8 0l7-3.4v1.2l-5.9 2.7l5.9 2.8v1.1l-7-3.3V6.7zm15.3 3.7h-5.2l-.8 2.1h-1.8L472.5 2h2l4.2 10.5H477l-.9-2.1zm-4.7-1.5h4.3l-2.2-5.6l-2.1 5.6zm13.1-7.1c2 0 3.3.9 4.2 2.1l-1.3.7c-.6-.8-1.7-1.4-2.9-1.4c-2.2 0-3.9 1.7-3.9 4.1c0 2.3 1.7 4 3.9 4c1.2 0 2.2-.5 2.7-1c-.04-.01 0-1.9 0-1.9h-3.4V7h4.9s.05 3.88 0 3.9c-1 1.1-2.4 1.9-4.2 1.9c-3.1 0-5.5-2.2-5.5-5.5c0-3.3 2.4-5.5 5.5-5.5zm6.3.2h7.1v1.4h-5.5v3h5.4v1.4h-5.4v3.4h5.5v1.3h-7.1V2zm10.7 2.4v8.1h-1.6V2h1.6l5.8 7.9V2h1.6v10.5h-1.6l-5.8-8.1zm12.3-1h-3.3V2h8.2v1.4h-3.3v9.1h-1.6V3.4zm12.2 1v8.1h-1.6V2h1.7l5.7 7.9V2h1.6v10.5h-1.5L526 4.4zm16.5 6h-5.2l-.9 2.1h-1.7L538.9 2h2l4.2 10.5h-1.8l-.8-2.1zm-4.8-1.5h4.3l-2.1-5.6l-2.2 5.6zm17.8-4.8l-3.5 8.4h-.6l-3.5-8.4v8.4h-1.6V2h2.3l3.1 7.6l3.1-7.6h2.2v10.5h-1.5V4.1zm3.9-2.1h7.1v1.4H561v3h5.4v1.4H561v3.4h5.5v1.3h-7.1V2zm8.4 8l5.9-2.8l-5.9-2.7V3.3l7 3.4v1.1l-7 3.3V10zm7.9 0l5.9-2.8l-5.9-2.7V3.3l7 3.4v1.1l-7 3.3V10z" stroke="none" fill="#3797ef"/></g></svg>