<?xml version="1.0" standalone="no"?><!DOCTYPE svg PUBLIC "-//W3C//DTD SVG 1.1//EN" "http://www.w3.org/Graphics/SVG/1.1/DTD/svg11.dtd"><svg xmlns="http://www.w3.org/2000/svg" version="1.1" width="158px" height="27.9px" viewBox="0 -6 158 27.9" style="top:-6px"><desc>Ownership</desc><defs/><g id="Polygon51586"><path d="m6.1 1.8c3.1 0 5.3 2.3 5.3 5.5c0 3.1-2.2 5.4-5.3 5.4c-3.2 0-5.4-2.3-5.4-5.4c0-3.2 2.2-5.5 5.4-5.5zm0 1.4c-2.3 0-3.7 1.7-3.7 4.1c0 2.3 1.4 4 3.7 4c2.2 0 3.7-1.7 3.7-4c0-2.4-1.5-4.1-3.7-4.1zm12 3.5l-1.9 5.8h-1.5l-2.4-7.6h1.5l1.7 5.8l1.9-5.8h1.3l1.9 5.8l1.7-5.8h1.5l-2.4 7.6h-1.5l-1.8-5.8zm12.2.9c0-1.2-.7-1.6-1.6-1.6c-.9 0-1.7.5-2.2 1.1c.04-.03 0 5.4 0 5.4h-1.4V4.9h1.4s.04 1.05 0 1.1c.5-.7 1.6-1.3 2.8-1.3c1.6 0 2.4.8 2.4 2.5c.02-.04 0 5.3 0 5.3h-1.4V7.6zm7.1-2.9c2.3 0 3.7 1.8 3.7 4.1v.4s-6.08-.02-6.1 0c.1 1.3 1.1 2.4 2.6 2.4c.8 0 1.7-.4 2.3-.9l.7.9c-.8.7-1.9 1.1-3.1 1.1c-2.3 0-4-1.6-4-4c0-2.2 1.6-4 3.9-4zM35 8.1h4.7c0-1-.7-2.2-2.3-2.2c-1.6 0-2.3 1.2-2.4 2.2zm7.9-3.2h1.4v1.2c.6-.8 1.5-1.4 2.5-1.4v1.4h-.5c-.7 0-1.7.5-2 1.1v5.3h-1.4V4.9zm5.4 5.6c.5.6 1.5 1.1 2.5 1.1c1.1 0 1.7-.4 1.7-1.1c0-.8-.9-1-1.9-1.2c-1.3-.3-2.8-.7-2.8-2.3c0-1.3 1.1-2.3 2.9-2.3c1.3 0 2.3.5 2.9 1.1l-.6 1c-.4-.6-1.3-1-2.3-1c-.9 0-1.5.4-1.5 1c0 .7.8.9 1.8 1.2c1.3.3 2.9.6 2.9 2.4c0 1.3-1.1 2.3-3.1 2.3c-1.3 0-2.4-.4-3.2-1.2l.7-1zm12.6-2.9c0-1.3-.7-1.6-1.7-1.6c-.9 0-1.7.5-2.1 1.1v5.4h-1.4V2h1.4v4c.5-.7 1.6-1.3 2.7-1.3c1.7 0 2.5.8 2.5 2.4v5.4h-1.4s-.04-4.89 0-4.9zm3.5-4.9c0-.5.4-.9.9-.9c.5 0 .9.4.9.9c0 .5-.4.9-.9.9c-.5 0-.9-.4-.9-.9zm.2 2.2h1.4v7.6h-1.4V4.9zm3.7 10.6V4.9h1.4s.01 1.07 0 1.1c.6-.8 1.5-1.3 2.5-1.3c2 0 3.4 1.5 3.4 4c0 2.5-1.4 4-3.4 4c-1 0-1.9-.4-2.5-1.3v4.1h-1.4zM71.8 6c-.8 0-1.7.5-2.1 1.1v3.2c.4.6 1.3 1.2 2.1 1.2c1.5 0 2.3-1.2 2.3-2.8c0-1.6-.8-2.7-2.3-2.7z" stroke="none" fill="#000"/></g></svg>