<?xml version="1.0" standalone="no"?><!DOCTYPE svg PUBLIC "-//W3C//DTD SVG 1.1//EN" "http://www.w3.org/Graphics/SVG/1.1/DTD/svg11.dtd"><svg xmlns="http://www.w3.org/2000/svg" version="1.1" width="375px" height="46.5px" viewBox="0 -10 375 46.5" style="top:-10px"><desc>Raising Cane s</desc><defs/><g id="Polygon84866"><path d="m123.8 22l-2.5-7.9h-1.6v7.9h-3.3V2.3s5.13-.04 5.1 0c3 0 5 1.1 5 4.1v3.6c0 1.9-.8 3-2.1 3.6c-.05.04 2.8 8.4 2.8 8.4h-3.4zm-4.1-10.7s1.72.02 1.7 0c1.1 0 1.8-.4 1.8-1.8V6.9c0-1.4-.7-1.8-1.8-1.8c.02.04-1.7 0-1.7 0v6.2zm15.7 6.3h-3.6l-.7 4.4H128l3.6-19.7h4.2l3.7 19.7h-3.3l-.8-4.4zm-.4-2.7l-1.4-8.8l-1.3 8.8h2.7zm6.2 7.1V2.3h3.3V22h-3.3zm12.4-12.7V6.6c0-1.3-.7-1.7-1.7-1.7c-.9 0-1.6.4-1.6 1.7v1.3c0 1 .3 1.5 1.2 2l2.4 1.3c1.9 1.1 3 2 3 4.1v2.8c0 3.1-1.9 4.1-4.9 4.1h-.1c-3 0-4.8-1-4.8-4.1c-.05.03 0-3.4 0-3.4h3.2s-.03 2.98 0 3c0 1.2.7 1.7 1.7 1.7c1 0 1.7-.5 1.7-1.7v-1.6c0-1-.3-1.5-1.3-2l-2.3-1.3c-1.9-1.1-3-2-3-4.1V6.1c0-2.9 2.1-4.1 4.8-4.1h.1c2.7 0 4.8 1.2 4.8 4.1c.02 0 0 3.2 0 3.2h-3.2zm5.8 12.7V2.3h3.2V22h-3.2zm6.2 0V2.3h3.3l4.1 12.2V2.3h3V22h-3.1l-4.3-12.8V22h-3zm23.3-3.9c0 3-2 4.1-5 4.1h-.2c-3 0-5-1.1-5-4.1V6.2c0-2.9 2-4.2 5-4.2h.2c3 0 5 1.3 5 4.2c-.03.01 0 2.8 0 2.8h-3.3V6.7c0-1.4-.7-1.8-1.8-1.8c-1.1 0-1.8.4-1.8 1.8v10.9c0 1.4.7 1.8 1.8 1.8c1.1 0 1.8-.4 1.8-1.8v-3h-1.9v-2.7h5.2s-.03 6.17 0 6.2zm16.7 0c0 3-1.9 4.1-4.9 4.1h-.1c-3 0-5-1.1-5-4.1V6.2c0-2.9 2-4.2 5-4.2h.1c3 0 4.9 1.3 4.9 4.2c.04.01 0 3.6 0 3.6h-3.2s-.03-3.08 0-3.1c0-1.4-.7-1.8-1.8-1.8c-1 0-1.7.4-1.7 1.8v10.9c0 1.3.7 1.8 1.7 1.8c1.1 0 1.8-.5 1.8-1.8c-.03-.04 0-3.6 0-3.6h3.2s.04 4.07 0 4.1zm8.8-.5h-3.6l-.7 4.4h-3.2l3.7-19.7h4.1l3.8 19.7h-3.4l-.7-4.4zm-.4-2.7l-1.4-8.8l-1.4 8.8h2.8zm6.1 7.1V2.3h3.3l4.1 12.2V2.3h3V22h-3.1l-4.3-12.8V22h-3zm13.2 0V2.3h8.7v2.8h-5.4v5.5h4.5v2.8h-4.5v5.7h5.5v2.9h-8.8zm13.9-16.9c0 1.8-.9 3.4-1.8 4.6l-1.2-.7c.6-.9 1.1-2.1 1.3-3.1c-.02.03-1.5 0-1.5 0V2.3h3.2v2.8zm8.6 4.2s-.04-2.75 0-2.7c0-1.3-.7-1.7-1.7-1.7c-1 0-1.7.4-1.7 1.7v1.3c0 1 .4 1.5 1.3 2l2.3 1.3c1.9 1.1 3 2 3 4.1v2.8c0 3.1-1.9 4.1-4.9 4.1c-3 0-4.9-1-4.9-4.1c.01.03 0-3.4 0-3.4h3.2s.02 2.98 0 3c0 1.2.7 1.7 1.7 1.7c1 0 1.7-.5 1.7-1.7v-1.6c0-1-.3-1.5-1.3-2l-2.3-1.3c-1.9-1.1-3-2-3-4.1V6.1c0-2.9 2.2-4.1 4.9-4.1c2.7 0 4.9 1.2 4.9 4.1c-.02 0 0 3.2 0 3.2h-3.2z" stroke="none" fill="#282828"/></g></svg>