<?xml version="1.0" standalone="no"?>
<!DOCTYPE svg PUBLIC "-//W3C//DTD SVG 1.1//EN" "http://www.w3.org/Graphics/SVG/1.1/DTD/svg11.dtd">
<svg xmlns="http://www.w3.org/2000/svg" version="1.1" width="104.2px" height="141.9px" viewBox="0 -4 104.2 141.9" style="top:-4px">
  <desc>Lorem Ipsum Lorem Ipsum Lorem Ipsum Lorem Ipsum Lorem Ipsum Lorem Ipsum Lorem Ipsum Lorem Ipsum</desc>
  <defs/>
  <g id="Polygon184644">
    <path d="M 55.8 127.1 L 56.3 127.1 L 56.3 132.6 L 59.2 132.6 L 59.2 133.1 L 55.8 133.1 L 55.8 127.1 Z M 59.8 130.9 C 59.8 129.7 60.6 128.7 61.8 128.7 C 63.1 128.7 63.9 129.7 63.9 130.9 C 63.9 132.2 63.1 133.2 61.8 133.2 C 60.6 133.2 59.8 132.2 59.8 130.9 Z M 63.4 130.9 C 63.4 130 62.9 129.1 61.8 129.1 C 60.8 129.1 60.3 130 60.3 130.9 C 60.3 131.9 60.8 132.8 61.8 132.8 C 62.9 132.8 63.4 131.9 63.4 130.9 Z M 65.1 128.8 L 65.5 128.8 C 65.5 128.8 65.52 129.51 65.5 129.5 C 65.9 129 66.4 128.7 67 128.7 C 67 128.7 67 129.2 67 129.2 C 66.9 129.2 66.8 129.2 66.8 129.2 C 66.3 129.2 65.7 129.6 65.5 129.9 C 65.52 129.94 65.5 133.1 65.5 133.1 L 65.1 133.1 L 65.1 128.8 Z M 69.7 128.7 C 71 128.7 71.7 129.7 71.7 131 C 71.71 130.96 71.7 131.1 71.7 131.1 C 71.7 131.1 68.08 131.08 68.1 131.1 C 68.1 132 68.8 132.8 69.8 132.8 C 70.3 132.8 70.8 132.6 71.2 132.2 C 71.2 132.2 71.4 132.5 71.4 132.5 C 71 133 70.5 133.2 69.7 133.2 C 68.5 133.2 67.6 132.3 67.6 130.9 C 67.6 129.7 68.5 128.7 69.7 128.7 Z M 68.1 130.7 C 68.1 130.7 71.2 130.7 71.2 130.7 C 71.2 130 70.7 129.1 69.7 129.1 C 68.6 129.1 68.1 130 68.1 130.7 Z M 78 130.1 C 78 129.5 77.7 129.1 77.1 129.1 C 76.7 129.1 76.1 129.4 75.9 129.8 C 75.89 129.82 75.9 133.1 75.9 133.1 L 75.4 133.1 C 75.4 133.1 75.41 130.07 75.4 130.1 C 75.4 129.5 75.2 129.1 74.5 129.1 C 74.1 129.1 73.6 129.4 73.3 129.8 C 73.3 129.82 73.3 133.1 73.3 133.1 L 72.8 133.1 L 72.8 128.8 L 73.3 128.8 C 73.3 128.8 73.3 129.42 73.3 129.4 C 73.5 129.1 74.1 128.7 74.7 128.7 C 75.4 128.7 75.7 129.1 75.8 129.5 C 76.1 129.1 76.7 128.7 77.3 128.7 C 78.1 128.7 78.5 129.1 78.5 130 C 78.47 129.98 78.5 133.1 78.5 133.1 L 78 133.1 C 78 133.1 78 130.07 78 130.1 Z M 82.1 127.1 L 82.6 127.1 L 82.6 133.1 L 82.1 133.1 L 82.1 127.1 Z M 84 134.8 L 84 128.8 L 84.5 128.8 C 84.5 128.8 84.46 129.46 84.5 129.5 C 84.8 129 85.3 128.7 86 128.7 C 87.1 128.7 87.9 129.5 87.9 130.9 C 87.9 132.3 87.1 133.2 86 133.2 C 85.4 133.2 84.8 132.9 84.5 132.4 C 84.46 132.41 84.5 134.8 84.5 134.8 L 84 134.8 Z M 85.9 129.1 C 85.3 129.1 84.7 129.4 84.5 129.9 C 84.5 129.9 84.5 132 84.5 132 C 84.7 132.4 85.3 132.8 85.9 132.8 C 86.9 132.8 87.4 132 87.4 130.9 C 87.4 129.9 86.9 129.1 85.9 129.1 Z M 88.9 132.2 C 89.2 132.5 89.7 132.8 90.3 132.8 C 91.1 132.8 91.5 132.5 91.5 132 C 91.5 131.4 90.9 131.2 90.3 131.1 C 89.6 130.9 88.8 130.7 88.8 129.9 C 88.8 129.2 89.3 128.7 90.3 128.7 C 91.1 128.7 91.5 128.9 91.9 129.3 C 91.9 129.3 91.6 129.6 91.6 129.6 C 91.4 129.3 90.9 129.1 90.3 129.1 C 89.6 129.1 89.2 129.4 89.2 129.8 C 89.2 130.3 89.8 130.5 90.4 130.6 C 91.1 130.8 92 131 92 131.9 C 92 132.6 91.4 133.2 90.3 133.2 C 89.6 133.2 89.1 133 88.7 132.5 C 88.7 132.5 88.9 132.2 88.9 132.2 Z M 96 132.5 C 95.7 132.9 95.1 133.2 94.4 133.2 C 93.6 133.2 93.1 132.8 93.1 131.8 C 93.08 131.82 93.1 128.8 93.1 128.8 L 93.5 128.8 C 93.5 128.8 93.55 131.72 93.5 131.7 C 93.5 132.6 94 132.8 94.6 132.8 C 95.2 132.8 95.7 132.5 96 132.1 C 96.01 132.08 96 128.8 96 128.8 L 96.5 128.8 L 96.5 133.1 L 96 133.1 C 96 133.1 96.01 132.47 96 132.5 Z M 103 130.1 C 103 129.5 102.8 129.1 102.2 129.1 C 101.7 129.1 101.2 129.4 100.9 129.8 C 100.91 129.82 100.9 133.1 100.9 133.1 L 100.4 133.1 C 100.4 133.1 100.43 130.07 100.4 130.1 C 100.4 129.5 100.2 129.1 99.6 129.1 C 99.1 129.1 98.6 129.4 98.3 129.8 C 98.32 129.82 98.3 133.1 98.3 133.1 L 97.8 133.1 L 97.8 128.8 L 98.3 128.8 C 98.3 128.8 98.32 129.42 98.3 129.4 C 98.5 129.1 99.1 128.7 99.7 128.7 C 100.4 128.7 100.8 129.1 100.9 129.5 C 101.1 129.1 101.7 128.7 102.3 128.7 C 103.1 128.7 103.5 129.1 103.5 130 C 103.49 129.98 103.5 133.1 103.5 133.1 L 103 133.1 C 103 133.1 103.02 130.07 103 130.1 Z " stroke="none" fill="#242423"/>
  </g>
  <g id="Polygon184643">
    <path d="M 55.8 109.1 L 56.3 109.1 L 56.3 114.6 L 59.2 114.6 L 59.2 115.1 L 55.8 115.1 L 55.8 109.1 Z M 59.8 112.9 C 59.8 111.7 60.6 110.7 61.8 110.7 C 63.1 110.7 63.9 111.7 63.9 112.9 C 63.9 114.2 63.1 115.2 61.8 115.2 C 60.6 115.2 59.8 114.2 59.8 112.9 Z M 63.4 112.9 C 63.4 112 62.9 111.1 61.8 111.1 C 60.8 111.1 60.3 112 60.3 112.9 C 60.3 113.9 60.8 114.8 61.8 114.8 C 62.9 114.8 63.4 113.9 63.4 112.9 Z M 65.1 110.8 L 65.5 110.8 C 65.5 110.8 65.52 111.51 65.5 111.5 C 65.9 111 66.4 110.7 67 110.7 C 67 110.7 67 111.2 67 111.2 C 66.9 111.2 66.8 111.2 66.8 111.2 C 66.3 111.2 65.7 111.6 65.5 111.9 C 65.52 111.94 65.5 115.1 65.5 115.1 L 65.1 115.1 L 65.1 110.8 Z M 69.7 110.7 C 71 110.7 71.7 111.7 71.7 113 C 71.71 112.96 71.7 113.1 71.7 113.1 C 71.7 113.1 68.08 113.08 68.1 113.1 C 68.1 114 68.8 114.8 69.8 114.8 C 70.3 114.8 70.8 114.6 71.2 114.2 C 71.2 114.2 71.4 114.5 71.4 114.5 C 71 115 70.5 115.2 69.7 115.2 C 68.5 115.2 67.6 114.3 67.6 112.9 C 67.6 111.7 68.5 110.7 69.7 110.7 Z M 68.1 112.7 C 68.1 112.7 71.2 112.7 71.2 112.7 C 71.2 112 70.7 111.1 69.7 111.1 C 68.6 111.1 68.1 112 68.1 112.7 Z M 78 112.1 C 78 111.5 77.7 111.1 77.1 111.1 C 76.7 111.1 76.1 111.4 75.9 111.8 C 75.89 111.82 75.9 115.1 75.9 115.1 L 75.4 115.1 C 75.4 115.1 75.41 112.07 75.4 112.1 C 75.4 111.5 75.2 111.1 74.5 111.1 C 74.1 111.1 73.6 111.4 73.3 111.8 C 73.3 111.82 73.3 115.1 73.3 115.1 L 72.8 115.1 L 72.8 110.8 L 73.3 110.8 C 73.3 110.8 73.3 111.42 73.3 111.4 C 73.5 111.1 74.1 110.7 74.7 110.7 C 75.4 110.7 75.7 111.1 75.8 111.5 C 76.1 111.1 76.7 110.7 77.3 110.7 C 78.1 110.7 78.5 111.1 78.5 112 C 78.47 111.98 78.5 115.1 78.5 115.1 L 78 115.1 C 78 115.1 78 112.07 78 112.1 Z M 82.1 109.1 L 82.6 109.1 L 82.6 115.1 L 82.1 115.1 L 82.1 109.1 Z M 84 116.8 L 84 110.8 L 84.5 110.8 C 84.5 110.8 84.46 111.46 84.5 111.5 C 84.8 111 85.3 110.7 86 110.7 C 87.1 110.7 87.9 111.5 87.9 112.9 C 87.9 114.3 87.1 115.2 86 115.2 C 85.4 115.2 84.8 114.9 84.5 114.4 C 84.46 114.41 84.5 116.8 84.5 116.8 L 84 116.8 Z M 85.9 111.1 C 85.3 111.1 84.7 111.4 84.5 111.9 C 84.5 111.9 84.5 114 84.5 114 C 84.7 114.4 85.3 114.8 85.9 114.8 C 86.9 114.8 87.4 114 87.4 112.9 C 87.4 111.9 86.9 111.1 85.9 111.1 Z M 88.9 114.2 C 89.2 114.5 89.7 114.8 90.3 114.8 C 91.1 114.8 91.5 114.5 91.5 114 C 91.5 113.4 90.9 113.2 90.3 113.1 C 89.6 112.9 88.8 112.7 88.8 111.9 C 88.8 111.2 89.3 110.7 90.3 110.7 C 91.1 110.7 91.5 110.9 91.9 111.3 C 91.9 111.3 91.6 111.6 91.6 111.6 C 91.4 111.3 90.9 111.1 90.3 111.1 C 89.6 111.1 89.2 111.4 89.2 111.8 C 89.2 112.3 89.8 112.5 90.4 112.6 C 91.1 112.8 92 113 92 113.9 C 92 114.6 91.4 115.2 90.3 115.2 C 89.6 115.2 89.1 115 88.7 114.5 C 88.7 114.5 88.9 114.2 88.9 114.2 Z M 96 114.5 C 95.7 114.9 95.1 115.2 94.4 115.2 C 93.6 115.2 93.1 114.8 93.1 113.8 C 93.08 113.82 93.1 110.8 93.1 110.8 L 93.5 110.8 C 93.5 110.8 93.55 113.72 93.5 113.7 C 93.5 114.6 94 114.8 94.6 114.8 C 95.2 114.8 95.7 114.5 96 114.1 C 96.01 114.08 96 110.8 96 110.8 L 96.5 110.8 L 96.5 115.1 L 96 115.1 C 96 115.1 96.01 114.47 96 114.5 Z M 103 112.1 C 103 111.5 102.8 111.1 102.2 111.1 C 101.7 111.1 101.2 111.4 100.9 111.8 C 100.91 111.82 100.9 115.1 100.9 115.1 L 100.4 115.1 C 100.4 115.1 100.43 112.07 100.4 112.1 C 100.4 111.5 100.2 111.1 99.6 111.1 C 99.1 111.1 98.6 111.4 98.3 111.8 C 98.32 111.82 98.3 115.1 98.3 115.1 L 97.8 115.1 L 97.8 110.8 L 98.3 110.8 C 98.3 110.8 98.32 111.42 98.3 111.4 C 98.5 111.1 99.1 110.7 99.7 110.7 C 100.4 110.7 100.8 111.1 100.9 111.5 C 101.1 111.1 101.7 110.7 102.3 110.7 C 103.1 110.7 103.5 111.1 103.5 112 C 103.49 111.98 103.5 115.1 103.5 115.1 L 103 115.1 C 103 115.1 103.02 112.07 103 112.1 Z " stroke="none" fill="#242423"/>
  </g>
  <g id="Polygon184642">
    <path d="M 55.8 91.1 L 56.3 91.1 L 56.3 96.6 L 59.2 96.6 L 59.2 97.1 L 55.8 97.1 L 55.8 91.1 Z M 59.8 94.9 C 59.8 93.7 60.6 92.7 61.8 92.7 C 63.1 92.7 63.9 93.7 63.9 94.9 C 63.9 96.2 63.1 97.2 61.8 97.2 C 60.6 97.2 59.8 96.2 59.8 94.9 Z M 63.4 94.9 C 63.4 94 62.9 93.1 61.8 93.1 C 60.8 93.1 60.3 94 60.3 94.9 C 60.3 95.9 60.8 96.8 61.8 96.8 C 62.9 96.8 63.4 95.9 63.4 94.9 Z M 65.1 92.8 L 65.5 92.8 C 65.5 92.8 65.52 93.51 65.5 93.5 C 65.9 93 66.4 92.7 67 92.7 C 67 92.7 67 93.2 67 93.2 C 66.9 93.2 66.8 93.2 66.8 93.2 C 66.3 93.2 65.7 93.6 65.5 93.9 C 65.52 93.94 65.5 97.1 65.5 97.1 L 65.1 97.1 L 65.1 92.8 Z M 69.7 92.7 C 71 92.7 71.7 93.7 71.7 95 C 71.71 94.96 71.7 95.1 71.7 95.1 C 71.7 95.1 68.08 95.08 68.1 95.1 C 68.1 96 68.8 96.8 69.8 96.8 C 70.3 96.8 70.8 96.6 71.2 96.2 C 71.2 96.2 71.4 96.5 71.4 96.5 C 71 97 70.5 97.2 69.7 97.2 C 68.5 97.2 67.6 96.3 67.6 94.9 C 67.6 93.7 68.5 92.7 69.7 92.7 Z M 68.1 94.7 C 68.1 94.7 71.2 94.7 71.2 94.7 C 71.2 94 70.7 93.1 69.7 93.1 C 68.6 93.1 68.1 94 68.1 94.7 Z M 78 94.1 C 78 93.5 77.7 93.1 77.1 93.1 C 76.7 93.1 76.1 93.4 75.9 93.8 C 75.89 93.82 75.9 97.1 75.9 97.1 L 75.4 97.1 C 75.4 97.1 75.41 94.07 75.4 94.1 C 75.4 93.5 75.2 93.1 74.5 93.1 C 74.1 93.1 73.6 93.4 73.3 93.8 C 73.3 93.82 73.3 97.1 73.3 97.1 L 72.8 97.1 L 72.8 92.8 L 73.3 92.8 C 73.3 92.8 73.3 93.42 73.3 93.4 C 73.5 93.1 74.1 92.7 74.7 92.7 C 75.4 92.7 75.7 93.1 75.8 93.5 C 76.1 93.1 76.7 92.7 77.3 92.7 C 78.1 92.7 78.5 93.1 78.5 94 C 78.47 93.98 78.5 97.1 78.5 97.1 L 78 97.1 C 78 97.1 78 94.07 78 94.1 Z M 82.1 91.1 L 82.6 91.1 L 82.6 97.1 L 82.1 97.1 L 82.1 91.1 Z M 84 98.8 L 84 92.8 L 84.5 92.8 C 84.5 92.8 84.46 93.46 84.5 93.5 C 84.8 93 85.3 92.7 86 92.7 C 87.1 92.7 87.9 93.5 87.9 94.9 C 87.9 96.3 87.1 97.2 86 97.2 C 85.4 97.2 84.8 96.9 84.5 96.4 C 84.46 96.41 84.5 98.8 84.5 98.8 L 84 98.8 Z M 85.9 93.1 C 85.3 93.1 84.7 93.4 84.5 93.9 C 84.5 93.9 84.5 96 84.5 96 C 84.7 96.4 85.3 96.8 85.9 96.8 C 86.9 96.8 87.4 96 87.4 94.9 C 87.4 93.9 86.9 93.1 85.9 93.1 Z M 88.9 96.2 C 89.2 96.5 89.7 96.8 90.3 96.8 C 91.1 96.8 91.5 96.5 91.5 96 C 91.5 95.4 90.9 95.2 90.3 95.1 C 89.6 94.9 88.8 94.7 88.8 93.9 C 88.8 93.2 89.3 92.7 90.3 92.7 C 91.1 92.7 91.5 92.9 91.9 93.3 C 91.9 93.3 91.6 93.6 91.6 93.6 C 91.4 93.3 90.9 93.1 90.3 93.1 C 89.6 93.1 89.2 93.4 89.2 93.8 C 89.2 94.3 89.8 94.5 90.4 94.6 C 91.1 94.8 92 95 92 95.9 C 92 96.6 91.4 97.2 90.3 97.2 C 89.6 97.2 89.1 97 88.7 96.5 C 88.7 96.5 88.9 96.2 88.9 96.2 Z M 96 96.5 C 95.7 96.9 95.1 97.2 94.4 97.2 C 93.6 97.2 93.1 96.8 93.1 95.8 C 93.08 95.82 93.1 92.8 93.1 92.8 L 93.5 92.8 C 93.5 92.8 93.55 95.72 93.5 95.7 C 93.5 96.6 94 96.8 94.6 96.8 C 95.2 96.8 95.7 96.5 96 96.1 C 96.01 96.08 96 92.8 96 92.8 L 96.5 92.8 L 96.5 97.1 L 96 97.1 C 96 97.1 96.01 96.47 96 96.5 Z M 103 94.1 C 103 93.5 102.8 93.1 102.2 93.1 C 101.7 93.1 101.2 93.4 100.9 93.8 C 100.91 93.82 100.9 97.1 100.9 97.1 L 100.4 97.1 C 100.4 97.1 100.43 94.07 100.4 94.1 C 100.4 93.5 100.2 93.1 99.6 93.1 C 99.1 93.1 98.6 93.4 98.3 93.8 C 98.32 93.82 98.3 97.1 98.3 97.1 L 97.8 97.1 L 97.8 92.8 L 98.3 92.8 C 98.3 92.8 98.32 93.42 98.3 93.4 C 98.5 93.1 99.1 92.7 99.7 92.7 C 100.4 92.7 100.8 93.1 100.9 93.5 C 101.1 93.1 101.7 92.7 102.3 92.7 C 103.1 92.7 103.5 93.1 103.5 94 C 103.49 93.98 103.5 97.1 103.5 97.1 L 103 97.1 C 103 97.1 103.02 94.07 103 94.1 Z " stroke="none" fill="#242423"/>
  </g>
  <g id="Polygon184641">
    <path d="M 55.8 73.1 L 56.3 73.1 L 56.3 78.6 L 59.2 78.6 L 59.2 79.1 L 55.8 79.1 L 55.8 73.1 Z M 59.8 76.9 C 59.8 75.7 60.6 74.7 61.8 74.7 C 63.1 74.7 63.9 75.7 63.9 76.9 C 63.9 78.2 63.1 79.2 61.8 79.2 C 60.6 79.2 59.8 78.2 59.8 76.9 Z M 63.4 76.9 C 63.4 76 62.9 75.1 61.8 75.1 C 60.8 75.1 60.3 76 60.3 76.9 C 60.3 77.9 60.8 78.8 61.8 78.8 C 62.9 78.8 63.4 77.9 63.4 76.9 Z M 65.1 74.8 L 65.5 74.8 C 65.5 74.8 65.52 75.51 65.5 75.5 C 65.9 75 66.4 74.7 67 74.7 C 67 74.7 67 75.2 67 75.2 C 66.9 75.2 66.8 75.2 66.8 75.2 C 66.3 75.2 65.7 75.6 65.5 75.9 C 65.52 75.94 65.5 79.1 65.5 79.1 L 65.1 79.1 L 65.1 74.8 Z M 69.7 74.7 C 71 74.7 71.7 75.7 71.7 77 C 71.71 76.96 71.7 77.1 71.7 77.1 C 71.7 77.1 68.08 77.08 68.1 77.1 C 68.1 78 68.8 78.8 69.8 78.8 C 70.3 78.8 70.8 78.6 71.2 78.2 C 71.2 78.2 71.4 78.5 71.4 78.5 C 71 79 70.5 79.2 69.7 79.2 C 68.5 79.2 67.6 78.3 67.6 76.9 C 67.6 75.7 68.5 74.7 69.7 74.7 Z M 68.1 76.7 C 68.1 76.7 71.2 76.7 71.2 76.7 C 71.2 76 70.7 75.1 69.7 75.1 C 68.6 75.1 68.1 76 68.1 76.7 Z M 78 76.1 C 78 75.5 77.7 75.1 77.1 75.1 C 76.7 75.1 76.1 75.4 75.9 75.8 C 75.89 75.82 75.9 79.1 75.9 79.1 L 75.4 79.1 C 75.4 79.1 75.41 76.07 75.4 76.1 C 75.4 75.5 75.2 75.1 74.5 75.1 C 74.1 75.1 73.6 75.4 73.3 75.8 C 73.3 75.82 73.3 79.1 73.3 79.1 L 72.8 79.1 L 72.8 74.8 L 73.3 74.8 C 73.3 74.8 73.3 75.42 73.3 75.4 C 73.5 75.1 74.1 74.7 74.7 74.7 C 75.4 74.7 75.7 75.1 75.8 75.5 C 76.1 75.1 76.7 74.7 77.3 74.7 C 78.1 74.7 78.5 75.1 78.5 76 C 78.47 75.98 78.5 79.1 78.5 79.1 L 78 79.1 C 78 79.1 78 76.07 78 76.1 Z M 82.1 73.1 L 82.6 73.1 L 82.6 79.1 L 82.1 79.1 L 82.1 73.1 Z M 84 80.8 L 84 74.8 L 84.5 74.8 C 84.5 74.8 84.46 75.46 84.5 75.5 C 84.8 75 85.3 74.7 86 74.7 C 87.1 74.7 87.9 75.5 87.9 76.9 C 87.9 78.3 87.1 79.2 86 79.2 C 85.4 79.2 84.8 78.9 84.5 78.4 C 84.46 78.41 84.5 80.8 84.5 80.8 L 84 80.8 Z M 85.9 75.1 C 85.3 75.1 84.7 75.4 84.5 75.9 C 84.5 75.9 84.5 78 84.5 78 C 84.7 78.4 85.3 78.8 85.9 78.8 C 86.9 78.8 87.4 78 87.4 76.9 C 87.4 75.9 86.9 75.1 85.9 75.1 Z M 88.9 78.2 C 89.2 78.5 89.7 78.8 90.3 78.8 C 91.1 78.8 91.5 78.5 91.5 78 C 91.5 77.4 90.9 77.2 90.3 77.1 C 89.6 76.9 88.8 76.7 88.8 75.9 C 88.8 75.2 89.3 74.7 90.3 74.7 C 91.1 74.7 91.5 74.9 91.9 75.3 C 91.9 75.3 91.6 75.6 91.6 75.6 C 91.4 75.3 90.9 75.1 90.3 75.1 C 89.6 75.1 89.2 75.4 89.2 75.8 C 89.2 76.3 89.8 76.5 90.4 76.6 C 91.1 76.8 92 77 92 77.9 C 92 78.6 91.4 79.2 90.3 79.2 C 89.6 79.2 89.1 79 88.7 78.5 C 88.7 78.5 88.9 78.2 88.9 78.2 Z M 96 78.5 C 95.7 78.9 95.1 79.2 94.4 79.2 C 93.6 79.2 93.1 78.8 93.1 77.8 C 93.08 77.82 93.1 74.8 93.1 74.8 L 93.5 74.8 C 93.5 74.8 93.55 77.72 93.5 77.7 C 93.5 78.6 94 78.8 94.6 78.8 C 95.2 78.8 95.7 78.5 96 78.1 C 96.01 78.08 96 74.8 96 74.8 L 96.5 74.8 L 96.5 79.1 L 96 79.1 C 96 79.1 96.01 78.47 96 78.5 Z M 103 76.1 C 103 75.5 102.8 75.1 102.2 75.1 C 101.7 75.1 101.2 75.4 100.9 75.8 C 100.91 75.82 100.9 79.1 100.9 79.1 L 100.4 79.1 C 100.4 79.1 100.43 76.07 100.4 76.1 C 100.4 75.5 100.2 75.1 99.6 75.1 C 99.1 75.1 98.6 75.4 98.3 75.8 C 98.32 75.82 98.3 79.1 98.3 79.1 L 97.8 79.1 L 97.8 74.8 L 98.3 74.8 C 98.3 74.8 98.32 75.42 98.3 75.4 C 98.5 75.1 99.1 74.7 99.7 74.7 C 100.4 74.7 100.8 75.1 100.9 75.5 C 101.1 75.1 101.7 74.7 102.3 74.7 C 103.1 74.7 103.5 75.1 103.5 76 C 103.49 75.98 103.5 79.1 103.5 79.1 L 103 79.1 C 103 79.1 103.02 76.07 103 76.1 Z " stroke="none" fill="#242423"/>
  </g>
  <g id="Polygon184640">
    <path d="M 55.8 55.1 L 56.3 55.1 L 56.3 60.6 L 59.2 60.6 L 59.2 61.1 L 55.8 61.1 L 55.8 55.1 Z M 59.8 58.9 C 59.8 57.7 60.6 56.7 61.8 56.7 C 63.1 56.7 63.9 57.7 63.9 58.9 C 63.9 60.2 63.1 61.2 61.8 61.2 C 60.6 61.2 59.8 60.2 59.8 58.9 Z M 63.4 58.9 C 63.4 58 62.9 57.1 61.8 57.1 C 60.8 57.1 60.3 58 60.3 58.9 C 60.3 59.9 60.8 60.8 61.8 60.8 C 62.9 60.8 63.4 59.9 63.4 58.9 Z M 65.1 56.8 L 65.5 56.8 C 65.5 56.8 65.52 57.51 65.5 57.5 C 65.9 57 66.4 56.7 67 56.7 C 67 56.7 67 57.2 67 57.2 C 66.9 57.2 66.8 57.2 66.8 57.2 C 66.3 57.2 65.7 57.6 65.5 57.9 C 65.52 57.94 65.5 61.1 65.5 61.1 L 65.1 61.1 L 65.1 56.8 Z M 69.7 56.7 C 71 56.7 71.7 57.7 71.7 59 C 71.71 58.96 71.7 59.1 71.7 59.1 C 71.7 59.1 68.08 59.08 68.1 59.1 C 68.1 60 68.8 60.8 69.8 60.8 C 70.3 60.8 70.8 60.6 71.2 60.2 C 71.2 60.2 71.4 60.5 71.4 60.5 C 71 61 70.5 61.2 69.7 61.2 C 68.5 61.2 67.6 60.3 67.6 58.9 C 67.6 57.7 68.5 56.7 69.7 56.7 Z M 68.1 58.7 C 68.1 58.7 71.2 58.7 71.2 58.7 C 71.2 58 70.7 57.1 69.7 57.1 C 68.6 57.1 68.1 58 68.1 58.7 Z M 78 58.1 C 78 57.5 77.7 57.1 77.1 57.1 C 76.7 57.1 76.1 57.4 75.9 57.8 C 75.89 57.82 75.9 61.1 75.9 61.1 L 75.4 61.1 C 75.4 61.1 75.41 58.07 75.4 58.1 C 75.4 57.5 75.2 57.1 74.5 57.1 C 74.1 57.1 73.6 57.4 73.3 57.8 C 73.3 57.82 73.3 61.1 73.3 61.1 L 72.8 61.1 L 72.8 56.8 L 73.3 56.8 C 73.3 56.8 73.3 57.42 73.3 57.4 C 73.5 57.1 74.1 56.7 74.7 56.7 C 75.4 56.7 75.7 57.1 75.8 57.5 C 76.1 57.1 76.7 56.7 77.3 56.7 C 78.1 56.7 78.5 57.1 78.5 58 C 78.47 57.98 78.5 61.1 78.5 61.1 L 78 61.1 C 78 61.1 78 58.07 78 58.1 Z M 82.1 55.1 L 82.6 55.1 L 82.6 61.1 L 82.1 61.1 L 82.1 55.1 Z M 84 62.8 L 84 56.8 L 84.5 56.8 C 84.5 56.8 84.46 57.46 84.5 57.5 C 84.8 57 85.3 56.7 86 56.7 C 87.1 56.7 87.9 57.5 87.9 58.9 C 87.9 60.3 87.1 61.2 86 61.2 C 85.4 61.2 84.8 60.9 84.5 60.4 C 84.46 60.41 84.5 62.8 84.5 62.8 L 84 62.8 Z M 85.9 57.1 C 85.3 57.1 84.7 57.4 84.5 57.9 C 84.5 57.9 84.5 60 84.5 60 C 84.7 60.4 85.3 60.8 85.9 60.8 C 86.9 60.8 87.4 60 87.4 58.9 C 87.4 57.9 86.9 57.1 85.9 57.1 Z M 88.9 60.2 C 89.2 60.5 89.7 60.8 90.3 60.8 C 91.1 60.8 91.5 60.5 91.5 60 C 91.5 59.4 90.9 59.2 90.3 59.1 C 89.6 58.9 88.8 58.7 88.8 57.9 C 88.8 57.2 89.3 56.7 90.3 56.7 C 91.1 56.7 91.5 56.9 91.9 57.3 C 91.9 57.3 91.6 57.6 91.6 57.6 C 91.4 57.3 90.9 57.1 90.3 57.1 C 89.6 57.1 89.2 57.4 89.2 57.8 C 89.2 58.3 89.8 58.5 90.4 58.6 C 91.1 58.8 92 59 92 59.9 C 92 60.6 91.4 61.2 90.3 61.2 C 89.6 61.2 89.1 61 88.7 60.5 C 88.7 60.5 88.9 60.2 88.9 60.2 Z M 96 60.5 C 95.7 60.9 95.1 61.2 94.4 61.2 C 93.6 61.2 93.1 60.8 93.1 59.8 C 93.08 59.82 93.1 56.8 93.1 56.8 L 93.5 56.8 C 93.5 56.8 93.55 59.72 93.5 59.7 C 93.5 60.6 94 60.8 94.6 60.8 C 95.2 60.8 95.7 60.5 96 60.1 C 96.01 60.08 96 56.8 96 56.8 L 96.5 56.8 L 96.5 61.1 L 96 61.1 C 96 61.1 96.01 60.47 96 60.5 Z M 103 58.1 C 103 57.5 102.8 57.1 102.2 57.1 C 101.7 57.1 101.2 57.4 100.9 57.8 C 100.91 57.82 100.9 61.1 100.9 61.1 L 100.4 61.1 C 100.4 61.1 100.43 58.07 100.4 58.1 C 100.4 57.5 100.2 57.1 99.6 57.1 C 99.1 57.1 98.6 57.4 98.3 57.8 C 98.32 57.82 98.3 61.1 98.3 61.1 L 97.8 61.1 L 97.8 56.8 L 98.3 56.8 C 98.3 56.8 98.32 57.42 98.3 57.4 C 98.5 57.1 99.1 56.7 99.7 56.7 C 100.4 56.7 100.8 57.1 100.9 57.5 C 101.1 57.1 101.7 56.7 102.3 56.7 C 103.1 56.7 103.5 57.1 103.5 58 C 103.49 57.98 103.5 61.1 103.5 61.1 L 103 61.1 C 103 61.1 103.02 58.07 103 58.1 Z " stroke="none" fill="#242423"/>
  </g>
  <g id="Polygon184639">
    <path d="M 55.8 37.1 L 56.3 37.1 L 56.3 42.6 L 59.2 42.6 L 59.2 43.1 L 55.8 43.1 L 55.8 37.1 Z M 59.8 40.9 C 59.8 39.7 60.6 38.7 61.8 38.7 C 63.1 38.7 63.9 39.7 63.9 40.9 C 63.9 42.2 63.1 43.2 61.8 43.2 C 60.6 43.2 59.8 42.2 59.8 40.9 Z M 63.4 40.9 C 63.4 40 62.9 39.1 61.8 39.1 C 60.8 39.1 60.3 40 60.3 40.9 C 60.3 41.9 60.8 42.8 61.8 42.8 C 62.9 42.8 63.4 41.9 63.4 40.9 Z M 65.1 38.8 L 65.5 38.8 C 65.5 38.8 65.52 39.51 65.5 39.5 C 65.9 39 66.4 38.7 67 38.7 C 67 38.7 67 39.2 67 39.2 C 66.9 39.2 66.8 39.2 66.8 39.2 C 66.3 39.2 65.7 39.6 65.5 39.9 C 65.52 39.94 65.5 43.1 65.5 43.1 L 65.1 43.1 L 65.1 38.8 Z M 69.7 38.7 C 71 38.7 71.7 39.7 71.7 41 C 71.71 40.96 71.7 41.1 71.7 41.1 C 71.7 41.1 68.08 41.08 68.1 41.1 C 68.1 42 68.8 42.8 69.8 42.8 C 70.3 42.8 70.8 42.6 71.2 42.2 C 71.2 42.2 71.4 42.5 71.4 42.5 C 71 43 70.5 43.2 69.7 43.2 C 68.5 43.2 67.6 42.3 67.6 40.9 C 67.6 39.7 68.5 38.7 69.7 38.7 Z M 68.1 40.7 C 68.1 40.7 71.2 40.7 71.2 40.7 C 71.2 40 70.7 39.1 69.7 39.1 C 68.6 39.1 68.1 40 68.1 40.7 Z M 78 40.1 C 78 39.5 77.7 39.1 77.1 39.1 C 76.7 39.1 76.1 39.4 75.9 39.8 C 75.89 39.82 75.9 43.1 75.9 43.1 L 75.4 43.1 C 75.4 43.1 75.41 40.07 75.4 40.1 C 75.4 39.5 75.2 39.1 74.5 39.1 C 74.1 39.1 73.6 39.4 73.3 39.8 C 73.3 39.82 73.3 43.1 73.3 43.1 L 72.8 43.1 L 72.8 38.8 L 73.3 38.8 C 73.3 38.8 73.3 39.42 73.3 39.4 C 73.5 39.1 74.1 38.7 74.7 38.7 C 75.4 38.7 75.7 39.1 75.8 39.5 C 76.1 39.1 76.7 38.7 77.3 38.7 C 78.1 38.7 78.5 39.1 78.5 40 C 78.47 39.98 78.5 43.1 78.5 43.1 L 78 43.1 C 78 43.1 78 40.07 78 40.1 Z M 82.1 37.1 L 82.6 37.1 L 82.6 43.1 L 82.1 43.1 L 82.1 37.1 Z M 84 44.8 L 84 38.8 L 84.5 38.8 C 84.5 38.8 84.46 39.46 84.5 39.5 C 84.8 39 85.3 38.7 86 38.7 C 87.1 38.7 87.9 39.5 87.9 40.9 C 87.9 42.3 87.1 43.2 86 43.2 C 85.4 43.2 84.8 42.9 84.5 42.4 C 84.46 42.41 84.5 44.8 84.5 44.8 L 84 44.8 Z M 85.9 39.1 C 85.3 39.1 84.7 39.4 84.5 39.9 C 84.5 39.9 84.5 42 84.5 42 C 84.7 42.4 85.3 42.8 85.9 42.8 C 86.9 42.8 87.4 42 87.4 40.9 C 87.4 39.9 86.9 39.1 85.9 39.1 Z M 88.9 42.2 C 89.2 42.5 89.7 42.8 90.3 42.8 C 91.1 42.8 91.5 42.5 91.5 42 C 91.5 41.4 90.9 41.2 90.3 41.1 C 89.6 40.9 88.8 40.7 88.8 39.9 C 88.8 39.2 89.3 38.7 90.3 38.7 C 91.1 38.7 91.5 38.9 91.9 39.3 C 91.9 39.3 91.6 39.6 91.6 39.6 C 91.4 39.3 90.9 39.1 90.3 39.1 C 89.6 39.1 89.2 39.4 89.2 39.8 C 89.2 40.3 89.8 40.5 90.4 40.6 C 91.1 40.8 92 41 92 41.9 C 92 42.6 91.4 43.2 90.3 43.2 C 89.6 43.2 89.1 43 88.7 42.5 C 88.7 42.5 88.9 42.2 88.9 42.2 Z M 96 42.5 C 95.7 42.9 95.1 43.2 94.4 43.2 C 93.6 43.2 93.1 42.8 93.1 41.8 C 93.08 41.82 93.1 38.8 93.1 38.8 L 93.5 38.8 C 93.5 38.8 93.55 41.72 93.5 41.7 C 93.5 42.6 94 42.8 94.6 42.8 C 95.2 42.8 95.7 42.5 96 42.1 C 96.01 42.08 96 38.8 96 38.8 L 96.5 38.8 L 96.5 43.1 L 96 43.1 C 96 43.1 96.01 42.47 96 42.5 Z M 103 40.1 C 103 39.5 102.8 39.1 102.2 39.1 C 101.7 39.1 101.2 39.4 100.9 39.8 C 100.91 39.82 100.9 43.1 100.9 43.1 L 100.4 43.1 C 100.4 43.1 100.43 40.07 100.4 40.1 C 100.4 39.5 100.2 39.1 99.6 39.1 C 99.1 39.1 98.6 39.4 98.3 39.8 C 98.32 39.82 98.3 43.1 98.3 43.1 L 97.8 43.1 L 97.8 38.8 L 98.3 38.8 C 98.3 38.8 98.32 39.42 98.3 39.4 C 98.5 39.1 99.1 38.7 99.7 38.7 C 100.4 38.7 100.8 39.1 100.9 39.5 C 101.1 39.1 101.7 38.7 102.3 38.7 C 103.1 38.7 103.5 39.1 103.5 40 C 103.49 39.98 103.5 43.1 103.5 43.1 L 103 43.1 C 103 43.1 103.02 40.07 103 40.1 Z " stroke="none" fill="#242423"/>
  </g>
  <g id="Polygon184638">
    <path d="M 55.8 19.1 L 56.3 19.1 L 56.3 24.6 L 59.2 24.6 L 59.2 25.1 L 55.8 25.1 L 55.8 19.1 Z M 59.8 22.9 C 59.8 21.7 60.6 20.7 61.8 20.7 C 63.1 20.7 63.9 21.7 63.9 22.9 C 63.9 24.2 63.1 25.2 61.8 25.2 C 60.6 25.2 59.8 24.2 59.8 22.9 Z M 63.4 22.9 C 63.4 22 62.9 21.1 61.8 21.1 C 60.8 21.1 60.3 22 60.3 22.9 C 60.3 23.9 60.8 24.8 61.8 24.8 C 62.9 24.8 63.4 23.9 63.4 22.9 Z M 65.1 20.8 L 65.5 20.8 C 65.5 20.8 65.52 21.51 65.5 21.5 C 65.9 21 66.4 20.7 67 20.7 C 67 20.7 67 21.2 67 21.2 C 66.9 21.2 66.8 21.2 66.8 21.2 C 66.3 21.2 65.7 21.6 65.5 21.9 C 65.52 21.94 65.5 25.1 65.5 25.1 L 65.1 25.1 L 65.1 20.8 Z M 69.7 20.7 C 71 20.7 71.7 21.7 71.7 23 C 71.71 22.96 71.7 23.1 71.7 23.1 C 71.7 23.1 68.08 23.08 68.1 23.1 C 68.1 24 68.8 24.8 69.8 24.8 C 70.3 24.8 70.8 24.6 71.2 24.2 C 71.2 24.2 71.4 24.5 71.4 24.5 C 71 25 70.5 25.2 69.7 25.2 C 68.5 25.2 67.6 24.3 67.6 22.9 C 67.6 21.7 68.5 20.7 69.7 20.7 Z M 68.1 22.7 C 68.1 22.7 71.2 22.7 71.2 22.7 C 71.2 22 70.7 21.1 69.7 21.1 C 68.6 21.1 68.1 22 68.1 22.7 Z M 78 22.1 C 78 21.5 77.7 21.1 77.1 21.1 C 76.7 21.1 76.1 21.4 75.9 21.8 C 75.89 21.82 75.9 25.1 75.9 25.1 L 75.4 25.1 C 75.4 25.1 75.41 22.07 75.4 22.1 C 75.4 21.5 75.2 21.1 74.5 21.1 C 74.1 21.1 73.6 21.4 73.3 21.8 C 73.3 21.82 73.3 25.1 73.3 25.1 L 72.8 25.1 L 72.8 20.8 L 73.3 20.8 C 73.3 20.8 73.3 21.42 73.3 21.4 C 73.5 21.1 74.1 20.7 74.7 20.7 C 75.4 20.7 75.7 21.1 75.8 21.5 C 76.1 21.1 76.7 20.7 77.3 20.7 C 78.1 20.7 78.5 21.1 78.5 22 C 78.47 21.98 78.5 25.1 78.5 25.1 L 78 25.1 C 78 25.1 78 22.07 78 22.1 Z M 82.1 19.1 L 82.6 19.1 L 82.6 25.1 L 82.1 25.1 L 82.1 19.1 Z M 84 26.8 L 84 20.8 L 84.5 20.8 C 84.5 20.8 84.46 21.46 84.5 21.5 C 84.8 21 85.3 20.7 86 20.7 C 87.1 20.7 87.9 21.5 87.9 22.9 C 87.9 24.3 87.1 25.2 86 25.2 C 85.4 25.2 84.8 24.9 84.5 24.4 C 84.46 24.41 84.5 26.8 84.5 26.8 L 84 26.8 Z M 85.9 21.1 C 85.3 21.1 84.7 21.4 84.5 21.9 C 84.5 21.9 84.5 24 84.5 24 C 84.7 24.4 85.3 24.8 85.9 24.8 C 86.9 24.8 87.4 24 87.4 22.9 C 87.4 21.9 86.9 21.1 85.9 21.1 Z M 88.9 24.2 C 89.2 24.5 89.7 24.8 90.3 24.8 C 91.1 24.8 91.5 24.5 91.5 24 C 91.5 23.4 90.9 23.2 90.3 23.1 C 89.6 22.9 88.8 22.7 88.8 21.9 C 88.8 21.2 89.3 20.7 90.3 20.7 C 91.1 20.7 91.5 20.9 91.9 21.3 C 91.9 21.3 91.6 21.6 91.6 21.6 C 91.4 21.3 90.9 21.1 90.3 21.1 C 89.6 21.1 89.2 21.4 89.2 21.8 C 89.2 22.3 89.8 22.5 90.4 22.6 C 91.1 22.8 92 23 92 23.9 C 92 24.6 91.4 25.2 90.3 25.2 C 89.6 25.2 89.1 25 88.7 24.5 C 88.7 24.5 88.9 24.2 88.9 24.2 Z M 96 24.5 C 95.7 24.9 95.1 25.2 94.4 25.2 C 93.6 25.2 93.1 24.8 93.1 23.8 C 93.08 23.82 93.1 20.8 93.1 20.8 L 93.5 20.8 C 93.5 20.8 93.55 23.72 93.5 23.7 C 93.5 24.6 94 24.8 94.6 24.8 C 95.2 24.8 95.7 24.5 96 24.1 C 96.01 24.08 96 20.8 96 20.8 L 96.5 20.8 L 96.5 25.1 L 96 25.1 C 96 25.1 96.01 24.47 96 24.5 Z M 103 22.1 C 103 21.5 102.8 21.1 102.2 21.1 C 101.7 21.1 101.2 21.4 100.9 21.8 C 100.91 21.82 100.9 25.1 100.9 25.1 L 100.4 25.1 C 100.4 25.1 100.43 22.07 100.4 22.1 C 100.4 21.5 100.2 21.1 99.6 21.1 C 99.1 21.1 98.6 21.4 98.3 21.8 C 98.32 21.82 98.3 25.1 98.3 25.1 L 97.8 25.1 L 97.8 20.8 L 98.3 20.8 C 98.3 20.8 98.32 21.42 98.3 21.4 C 98.5 21.1 99.1 20.7 99.7 20.7 C 100.4 20.7 100.8 21.1 100.9 21.5 C 101.1 21.1 101.7 20.7 102.3 20.7 C 103.1 20.7 103.5 21.1 103.5 22 C 103.49 21.98 103.5 25.1 103.5 25.1 L 103 25.1 C 103 25.1 103.02 22.07 103 22.1 Z " stroke="none" fill="#242423"/>
  </g>
  <g id="Polygon184637">
    <path d="M 55.8 1.1 L 56.3 1.1 L 56.3 6.6 L 59.2 6.6 L 59.2 7.1 L 55.8 7.1 L 55.8 1.1 Z M 59.8 4.9 C 59.8 3.7 60.6 2.7 61.8 2.7 C 63.1 2.7 63.9 3.7 63.9 4.9 C 63.9 6.2 63.1 7.2 61.8 7.2 C 60.6 7.2 59.8 6.2 59.8 4.9 Z M 63.4 4.9 C 63.4 4 62.9 3.1 61.8 3.1 C 60.8 3.1 60.3 4 60.3 4.9 C 60.3 5.9 60.8 6.8 61.8 6.8 C 62.9 6.8 63.4 5.9 63.4 4.9 Z M 65.1 2.8 L 65.5 2.8 C 65.5 2.8 65.52 3.51 65.5 3.5 C 65.9 3 66.4 2.7 67 2.7 C 67 2.7 67 3.2 67 3.2 C 66.9 3.2 66.8 3.2 66.8 3.2 C 66.3 3.2 65.7 3.6 65.5 3.9 C 65.52 3.94 65.5 7.1 65.5 7.1 L 65.1 7.1 L 65.1 2.8 Z M 69.7 2.7 C 71 2.7 71.7 3.7 71.7 5 C 71.71 4.96 71.7 5.1 71.7 5.1 C 71.7 5.1 68.08 5.08 68.1 5.1 C 68.1 6 68.8 6.8 69.8 6.8 C 70.3 6.8 70.8 6.6 71.2 6.2 C 71.2 6.2 71.4 6.5 71.4 6.5 C 71 7 70.5 7.2 69.7 7.2 C 68.5 7.2 67.6 6.3 67.6 4.9 C 67.6 3.7 68.5 2.7 69.7 2.7 Z M 68.1 4.7 C 68.1 4.7 71.2 4.7 71.2 4.7 C 71.2 4 70.7 3.1 69.7 3.1 C 68.6 3.1 68.1 4 68.1 4.7 Z M 78 4.1 C 78 3.5 77.7 3.1 77.1 3.1 C 76.7 3.1 76.1 3.4 75.9 3.8 C 75.89 3.82 75.9 7.1 75.9 7.1 L 75.4 7.1 C 75.4 7.1 75.41 4.07 75.4 4.1 C 75.4 3.5 75.2 3.1 74.5 3.1 C 74.1 3.1 73.6 3.4 73.3 3.8 C 73.3 3.82 73.3 7.1 73.3 7.1 L 72.8 7.1 L 72.8 2.8 L 73.3 2.8 C 73.3 2.8 73.3 3.42 73.3 3.4 C 73.5 3.1 74.1 2.7 74.7 2.7 C 75.4 2.7 75.7 3.1 75.8 3.5 C 76.1 3.1 76.7 2.7 77.3 2.7 C 78.1 2.7 78.5 3.1 78.5 4 C 78.47 3.98 78.5 7.1 78.5 7.1 L 78 7.1 C 78 7.1 78 4.07 78 4.1 Z M 82.1 1.1 L 82.6 1.1 L 82.6 7.1 L 82.1 7.1 L 82.1 1.1 Z M 84 8.8 L 84 2.8 L 84.5 2.8 C 84.5 2.8 84.46 3.46 84.5 3.5 C 84.8 3 85.3 2.7 86 2.7 C 87.1 2.7 87.9 3.5 87.9 4.9 C 87.9 6.3 87.1 7.2 86 7.2 C 85.4 7.2 84.8 6.9 84.5 6.4 C 84.46 6.41 84.5 8.8 84.5 8.8 L 84 8.8 Z M 85.9 3.1 C 85.3 3.1 84.7 3.4 84.5 3.9 C 84.5 3.9 84.5 6 84.5 6 C 84.7 6.4 85.3 6.8 85.9 6.8 C 86.9 6.8 87.4 6 87.4 4.9 C 87.4 3.9 86.9 3.1 85.9 3.1 Z M 88.9 6.2 C 89.2 6.5 89.7 6.8 90.3 6.8 C 91.1 6.8 91.5 6.5 91.5 6 C 91.5 5.4 90.9 5.2 90.3 5.1 C 89.6 4.9 88.8 4.7 88.8 3.9 C 88.8 3.2 89.3 2.7 90.3 2.7 C 91.1 2.7 91.5 2.9 91.9 3.3 C 91.9 3.3 91.6 3.6 91.6 3.6 C 91.4 3.3 90.9 3.1 90.3 3.1 C 89.6 3.1 89.2 3.4 89.2 3.8 C 89.2 4.3 89.8 4.5 90.4 4.6 C 91.1 4.8 92 5 92 5.9 C 92 6.6 91.4 7.2 90.3 7.2 C 89.6 7.2 89.1 7 88.7 6.5 C 88.7 6.5 88.9 6.2 88.9 6.2 Z M 96 6.5 C 95.7 6.9 95.1 7.2 94.4 7.2 C 93.6 7.2 93.1 6.8 93.1 5.8 C 93.08 5.82 93.1 2.8 93.1 2.8 L 93.5 2.8 C 93.5 2.8 93.55 5.72 93.5 5.7 C 93.5 6.6 94 6.8 94.6 6.8 C 95.2 6.8 95.7 6.5 96 6.1 C 96.01 6.08 96 2.8 96 2.8 L 96.5 2.8 L 96.5 7.1 L 96 7.1 C 96 7.1 96.01 6.47 96 6.5 Z M 103 4.1 C 103 3.5 102.8 3.1 102.2 3.1 C 101.7 3.1 101.2 3.4 100.9 3.8 C 100.91 3.82 100.9 7.1 100.9 7.1 L 100.4 7.1 C 100.4 7.1 100.43 4.07 100.4 4.1 C 100.4 3.5 100.2 3.1 99.6 3.1 C 99.1 3.1 98.6 3.4 98.3 3.8 C 98.32 3.82 98.3 7.1 98.3 7.1 L 97.8 7.1 L 97.8 2.8 L 98.3 2.8 C 98.3 2.8 98.32 3.42 98.3 3.4 C 98.5 3.1 99.1 2.7 99.7 2.7 C 100.4 2.7 100.8 3.1 100.9 3.5 C 101.1 3.1 101.7 2.7 102.3 2.7 C 103.1 2.7 103.5 3.1 103.5 4 C 103.49 3.98 103.5 7.1 103.5 7.1 L 103 7.1 C 103 7.1 103.02 4.07 103 4.1 Z " stroke="none" fill="#242423"/>
  </g>
</svg>