<?xml version="1.0" standalone="no"?><!DOCTYPE svg PUBLIC "-//W3C//DTD SVG 1.1//EN" "http://www.w3.org/Graphics/SVG/1.1/DTD/svg11.dtd"><svg xmlns="http://www.w3.org/2000/svg" version="1.1" width="269.3px" height="139.9px" viewBox="0 -10 269.3 139.9" style="top:-10px"><desc>Agent 1</desc><defs/><g id="Polygon305141"><path d="m.7 115.2c0-3.2 2.4-5.5 5.5-5.5c2 0 3.3 1 4.2 2.3l-1.4.7c-.5-.9-1.6-1.6-2.8-1.6c-2.2 0-3.8 1.7-3.8 4.1c0 2.4 1.6 4.1 3.8 4.1c1.2 0 2.3-.7 2.8-1.6l1.4.8c-.9 1.2-2.2 2.2-4.2 2.2c-3.1 0-5.5-2.2-5.5-5.5zm16-5.5c3.2 0 5.3 2.4 5.3 5.5c0 3.2-2.1 5.5-5.3 5.5c-3.2 0-5.3-2.3-5.3-5.5c0-3.1 2.1-5.5 5.3-5.5zm0 1.4c-2.3 0-3.7 1.8-3.7 4.1c0 2.3 1.4 4.1 3.7 4.1c2.2 0 3.7-1.8 3.7-4.1c0-2.3-1.5-4.1-3.7-4.1zm10.7 5.3h-2v4.1h-1.6v-10.6h4.5c2 0 3.4 1.3 3.4 3.3c0 1.9-1.3 2.9-2.7 3.1c.02-.04 2.7 4.2 2.7 4.2h-1.8l-2.5-4.1zm.6-5.1h-2.6v3.7s2.65.03 2.6 0c1.2 0 2-.7 2-1.8c0-1.1-.8-1.9-2-1.9zm5.4-1.4h4.5c2.2 0 3.4 1.5 3.4 3.3c0 1.7-1.2 3.2-3.4 3.2c.01.02-2.9 0-2.9 0v4.1h-1.6v-10.6zm4.3 1.4H35v3.7s2.7.03 2.7 0c1.1 0 2-.7 2-1.8c0-1.1-.9-1.9-2-1.9zm4.3 7.4c.5 0 1 .4 1 1c0 .5-.5 1-1 1c-.5 0-1-.5-1-1c0-.6.5-1 1-1zm6.9-8.8h1.6v9.2h4.8v1.4h-6.4v-10.6zm7.7.7c0-.5.4-.9.9-.9c.5 0 .9.4.9.9c0 .6-.4.9-.9.9c-.5 0-.9-.3-.9-.9zm.2 2.2h1.5v7.7h-1.5v-7.7zm7-.2c1.4 0 2.3.6 2.9 1.4l-1 .9c-.4-.7-1.1-1-1.8-1c-1.5 0-2.5 1.2-2.5 2.8c0 1.5 1 2.7 2.5 2.7c.7 0 1.4-.3 1.8-.9l1 .8c-.6.8-1.5 1.4-2.9 1.4c-2.3 0-3.9-1.7-3.9-4c0-2.3 1.6-4.1 3.9-4.1zm5 6.1c.6 0 1 .4 1 1c0 .5-.4 1-1 1c-.5 0-1-.5-1-1c0-.6.5-1 1-1zm10.6-8.9c2.9 0 4.1 2.8 4.1 5.4c0 2.6-1.2 5.5-4.1 5.5c-3 0-4.2-2.9-4.2-5.5c0-2.6 1.2-5.4 4.2-5.4zm0 1.4c-1.9 0-2.5 2-2.5 4c0 2.1.6 4.1 2.5 4.1c1.9 0 2.5-2 2.5-4.1c0-2-.6-4-2.5-4zm9.6-1.4c2.9 0 4.1 2.8 4.1 5.4c0 2.6-1.2 5.5-4.1 5.5c-3 0-4.2-2.9-4.2-5.5c0-2.6 1.2-5.4 4.2-5.4zm0 1.4c-1.9 0-2.6 2-2.6 4c0 2.1.7 4.1 2.6 4.1c1.8 0 2.5-2 2.5-4.1c0-2-.7-4-2.5-4zm9.6-1.4c2.9 0 4.1 2.8 4.1 5.4c0 2.6-1.2 5.5-4.1 5.5c-3 0-4.2-2.9-4.2-5.5c0-2.6 1.2-5.4 4.2-5.4zm0 1.4c-1.9 0-2.6 2-2.6 4c0 2.1.7 4.1 2.6 4.1c1.8 0 2.5-2 2.5-4.1c0-2-.7-4-2.5-4zm9.6-1.4c2.9 0 4.1 2.8 4.1 5.4c0 2.6-1.2 5.5-4.1 5.5c-3 0-4.2-2.9-4.2-5.5c0-2.6 1.2-5.4 4.2-5.4zm0 1.4c-1.9 0-2.6 2-2.6 4c0 2.1.7 4.1 2.6 4.1c1.8 0 2.5-2 2.5-4.1c0-2-.7-4-2.5-4zm9.6-1.4c2.9 0 4.1 2.8 4.1 5.4c0 2.6-1.2 5.5-4.1 5.5c-3 0-4.2-2.9-4.2-5.5c0-2.6 1.2-5.4 4.2-5.4zm0 1.4c-1.9 0-2.6 2-2.6 4c0 2.1.7 4.1 2.6 4.1c1.8 0 2.5-2 2.5-4.1c0-2-.7-4-2.5-4zm9.5-1.4c3 0 4.2 2.8 4.2 5.4c0 2.6-1.2 5.5-4.2 5.5c-2.9 0-4.1-2.9-4.1-5.5c0-2.6 1.2-5.4 4.1-5.4zm0 1.4c-1.8 0-2.5 2-2.5 4c0 2.1.7 4.1 2.5 4.1c1.9 0 2.6-2 2.6-4.1c0-2-.7-4-2.6-4z" stroke="none" fill="#888888"/></g><g id="Polygon305140"><path d="m1.4 98.7c.7.8 1.9 1.5 3.4 1.5c1.7 0 2.3-.9 2.3-1.6c0-1.1-1.2-1.4-2.6-1.8c-1.7-.4-3.6-.9-3.6-3.1c0-1.7 1.5-3 3.7-3c1.6 0 2.9.5 3.9 1.5l-1 1.1c-.8-.8-1.9-1.2-3-1.2c-1.2 0-2 .6-2 1.5c0 1 1.1 1.3 2.5 1.6c1.7.4 3.7 1 3.7 3.2c0 1.7-1.1 3.2-4 3.2c-1.9 0-3.3-.6-4.2-1.6l.9-1.3zm9 1V95H9.1v-1.2h1.3v-2.1h1.4v2.1h1.6v1.2h-1.6s.02 4.43 0 4.4c0 .6.3 1 .8 1c.3 0 .6-.2.7-.3l.4 1c-.3.3-.7.5-1.5.5c-1.2 0-1.8-.6-1.8-1.9zm9.1.9c-.6.7-1.4 1-2.5 1c-1.2 0-2.6-.8-2.6-2.5c0-1.8 1.3-2.5 2.6-2.5c1.1 0 1.9.3 2.5 1v-1.3c0-.9-.7-1.5-1.8-1.5c-.9 0-1.7.3-2.3 1l-.7-1c.9-.8 1.9-1.2 3.2-1.2c1.7 0 3.1.7 3.1 2.7c-.04-.03 0 5.1 0 5.1h-1.5s.04-.8 0-.8zm0-2.1c-.4-.6-1.1-.9-1.9-.9c-1.1 0-1.8.6-1.8 1.5c0 .9.7 1.5 1.8 1.5c.8 0 1.5-.3 1.9-.8v-1.3zm3.9 1.2c-.02.05 0-4.7 0-4.7h-1.3v-1.2h1.3v-2.1h1.4v2.1h1.6v1.2h-1.6s.01 4.43 0 4.4c0 .6.3 1 .8 1c.3 0 .6-.2.7-.3l.4 1c-.3.3-.7.5-1.5.5c-1.2 0-1.8-.6-1.8-1.9zm7.8-6.1c2.3 0 3.7 1.8 3.7 4.1v.4s-6.07-.02-6.1 0c.1 1.3 1.1 2.4 2.6 2.4c.8 0 1.7-.4 2.3-.9l.7.9c-.8.7-1.9 1.1-3.1 1.1c-2.3 0-4-1.6-4-4c0-2.2 1.6-4 3.9-4zM28.8 97h4.7c0-1-.7-2.2-2.3-2.2c-1.6 0-2.3 1.2-2.4 2.2zm15.3.4h-2v4h-1.6V90.9s4.46-.05 4.5 0c2 0 3.4 1.3 3.4 3.2c0 1.9-1.3 2.9-2.7 3.1c.03 0 2.7 4.2 2.7 4.2h-1.8l-2.5-4zm.7-5.2c-.04.05-2.7 0-2.7 0v3.8s2.66-.03 2.7 0c1.1 0 1.9-.8 1.9-1.9c0-1.1-.8-1.9-1.9-1.9zm5.4-1.3h7.1v1.3h-5.6v3.1h5.5v1.4h-5.5v3.3h5.6v1.4h-7.1V90.9zm12.8 0h1.6v9.1h4.8v1.4H63V90.9zm7.8.7c0-.5.4-.9.9-.9c.5 0 .9.4.9.9c0 .5-.4.9-.9.9c-.5 0-.9-.4-.9-.9zm.2 2.2h1.4v7.6H71v-7.6zm7-.2c1.4 0 2.3.6 2.8 1.3l-.9.9c-.5-.6-1.1-.9-1.9-.9c-1.5 0-2.4 1.1-2.4 2.7c0 1.6.9 2.8 2.4 2.8c.8 0 1.4-.4 1.9-1l.9.9c-.5.7-1.4 1.3-2.8 1.3c-2.4 0-3.9-1.7-3.9-4c0-2.3 1.5-4 3.9-4zm5 6c.5 0 1 .5 1 1c0 .6-.5 1-1 1c-.6 0-1-.4-1-1c0-.5.4-1 1-1zm10.5-8.9c3 0 4.2 2.8 4.2 5.5c0 2.6-1.2 5.4-4.2 5.4c-2.9 0-4.1-2.8-4.1-5.4c0-2.7 1.2-5.5 4.1-5.5zm0 1.4c-1.8 0-2.5 2-2.5 4.1c0 2 .7 4 2.5 4c1.9 0 2.6-2 2.6-4c0-2.1-.7-4.1-2.6-4.1zm9.6-1.4c3 0 4.2 2.8 4.2 5.5c0 2.6-1.2 5.4-4.2 5.4c-2.9 0-4.1-2.8-4.1-5.4c0-2.7 1.2-5.5 4.1-5.5zm0 1.4c-1.8 0-2.5 2-2.5 4.1c0 2 .7 4 2.5 4c1.9 0 2.6-2 2.6-4c0-2.1-.7-4.1-2.6-4.1zm9.6-1.4c3 0 4.2 2.8 4.2 5.5c0 2.6-1.2 5.4-4.2 5.4c-2.9 0-4.1-2.8-4.1-5.4c0-2.7 1.2-5.5 4.1-5.5zm0 1.4c-1.8 0-2.5 2-2.5 4.1c0 2 .7 4 2.5 4c1.9 0 2.6-2 2.6-4c0-2.1-.7-4.1-2.6-4.1zm9.6-1.4c3 0 4.2 2.8 4.2 5.5c0 2.6-1.2 5.4-4.2 5.4c-2.9 0-4.1-2.8-4.1-5.4c0-2.7 1.2-5.5 4.1-5.5zm0 1.4c-1.9 0-2.5 2-2.5 4.1c0 2 .6 4 2.5 4c1.9 0 2.6-2 2.6-4c0-2.1-.7-4.1-2.6-4.1zm9.6-1.4c3 0 4.2 2.8 4.2 5.5c0 2.6-1.2 5.4-4.2 5.4c-2.9 0-4.1-2.8-4.1-5.4c0-2.7 1.2-5.5 4.1-5.5zm0 1.4c-1.9 0-2.5 2-2.5 4.1c0 2 .6 4 2.5 4c1.9 0 2.5-2 2.5-4c0-2.1-.6-4.1-2.5-4.1zm9.6-1.4c2.9 0 4.2 2.8 4.2 5.5c0 2.6-1.3 5.4-4.2 5.4c-2.9 0-4.1-2.8-4.1-5.4c0-2.7 1.2-5.5 4.1-5.5zm0 1.4c-1.9 0-2.5 2-2.5 4.1c0 2 .6 4 2.5 4c1.9 0 2.5-2 2.5-4c0-2.1-.6-4.1-2.5-4.1z" stroke="none" fill="#888888"/></g><g id="Polygon305139"><path d="m4.5 74.5c2.3 0 3.7 1.8 3.7 4.2c.04-.03 0 .3 0 .3c0 0-6.03.02-6 0c.1 1.3 1 2.4 2.6 2.4c.8 0 1.7-.3 2.3-.9l.6.9c-.7.8-1.8 1.2-3.1 1.2c-2.3 0-3.9-1.6-3.9-4.1c0-2.2 1.6-4 3.8-4zM2.2 78h4.6c0-1-.7-2.3-2.3-2.3c-1.5 0-2.3 1.2-2.3 2.3zm17-.7c0-.9-.4-1.5-1.3-1.5c-.8 0-1.6.5-1.9 1.1c-.04-.01 0 5.5 0 5.5h-1.5s.03-5.13 0-5.1c0-.9-.3-1.5-1.3-1.5c-.8 0-1.5.6-1.9 1.1v5.5H9.9v-7.7h1.4s.01 1.09 0 1.1c.3-.5 1.3-1.3 2.5-1.3c1.1 0 1.8.6 2.1 1.5c.4-.8 1.4-1.5 2.6-1.5c1.4 0 2.1.8 2.1 2.3c.03.04 0 5.6 0 5.6h-1.4v-5.1zm8.3 4.2c-.6.7-1.5 1.1-2.5 1.1c-1.3 0-2.7-.9-2.7-2.6c0-1.7 1.4-2.5 2.7-2.5c1 0 1.9.4 2.5 1v-1.2c0-1-.8-1.6-1.9-1.6c-.9 0-1.6.4-2.3 1.1l-.6-1c.8-.9 1.9-1.3 3.1-1.3c1.7 0 3.1.8 3.1 2.7v5.2h-1.4s-.02-.85 0-.9zm0-2.1c-.5-.6-1.2-.9-2-.9c-1 0-1.8.6-1.8 1.6c0 .9.8 1.5 1.8 1.5c.8 0 1.5-.3 2-.9v-1.3zm3.3-6.9c0-.5.4-.9.9-.9c.5 0 1 .4 1 .9c0 .5-.5.9-1 .9c-.5 0-.9-.4-.9-.9zm.2 2.2h1.5v7.7H31v-7.7zm3.6-2.9h1.4v10.6h-1.4V71.8zm9.2.5c3 0 5 2.2 5 4.9c0 2.6-1.5 3.8-2.8 3.8c-.9 0-1.4-.6-1.5-1.2v-.1c-.6.8-1.5 1.3-2.5 1.3c-1.5 0-2.4-1-2.4-2.6c0-2.2 1.8-3.9 3.7-3.9c1 0 1.7.5 2 1.2l.2-1h1.3s-.88 4.19-.9 4.2v.3c0 .6.3.8.7.8c.6 0 1.6-.7 1.6-2.8c0-2.5-1.7-4.4-4.4-4.4c-3.1 0-5.7 2.7-5.7 5.7c0 2.5 1.9 4.4 4.5 4.4c1.1 0 2.1-.3 3-.8l.3.4c-1 .6-2.2 1-3.3 1c-2.9 0-5.1-2.2-5.1-5c0-3.4 3-6.2 6.3-6.2zm1.3 4.3c-.2-.5-.7-1.1-1.5-1.1c-1.5 0-2.7 1.4-2.7 2.8c0 1 .6 1.7 1.6 1.7c1 0 1.7-.7 2.2-1.3l.4-2.1zm8.7-2.1c2.3 0 3.7 1.8 3.7 4.2v.3s-6.07.02-6.1 0c.1 1.3 1.1 2.4 2.6 2.4c.8 0 1.7-.3 2.3-.9l.7.9c-.8.8-1.9 1.2-3.1 1.2c-2.3 0-4-1.6-4-4.1c0-2.2 1.6-4 3.9-4zM51.4 78h4.7c0-1-.7-2.3-2.3-2.3c-1.6 0-2.3 1.2-2.4 2.3zm17.1-.7c0-.9-.4-1.5-1.4-1.5c-.8 0-1.5.5-1.9 1.1v5.5h-1.4s-.02-5.13 0-5.1c0-.9-.4-1.5-1.4-1.5c-.7 0-1.5.6-1.8 1.1c-.04.01 0 5.5 0 5.5h-1.5v-7.7h1.5s-.04 1.09 0 1.1c.3-.5 1.3-1.3 2.4-1.3c1.2 0 1.9.6 2.1 1.5c.5-.8 1.5-1.5 2.6-1.5c1.4 0 2.2.8 2.2 2.3c-.02.04 0 5.6 0 5.6h-1.4s-.05-5.13 0-5.1zm8.2 4.2c-.6.7-1.5 1.1-2.5 1.1c-1.3 0-2.6-.9-2.6-2.6c0-1.7 1.3-2.5 2.6-2.5c1 0 1.9.4 2.5 1v-1.2c0-1-.8-1.6-1.8-1.6c-.9 0-1.7.4-2.4 1.1l-.6-1c.9-.9 1.9-1.3 3.2-1.3c1.6 0 3.1.8 3.1 2.7c-.04.01 0 5.2 0 5.2h-1.5s.03-.85 0-.9zm0-2.1c-.4-.6-1.1-.9-1.9-.9c-1.1 0-1.8.6-1.8 1.6c0 .9.7 1.5 1.8 1.5c.8 0 1.5-.3 1.9-.9v-1.3zm3.4-6.9c0-.5.4-.9.9-.9c.5 0 .9.4.9.9c0 .5-.4.9-.9.9c-.5 0-.9-.4-.9-.9zm.2 2.2h1.4v7.7h-1.4v-7.7zm3.5-2.9h1.5v10.6h-1.5V71.8zm4.3 8.8c.5 0 1 .4 1 1c0 .5-.5 1-1 1c-.5 0-1-.5-1-1c0-.6.5-1 1-1zm6.2-6.1c1.5 0 2.3.6 2.9 1.4l-1 .8c-.4-.6-1-.9-1.8-.9c-1.5 0-2.5 1.2-2.5 2.7c0 1.6 1 2.8 2.5 2.8c.8 0 1.4-.3 1.8-.9l1 .8c-.6.8-1.4 1.4-2.9 1.4c-2.3 0-3.9-1.8-3.9-4.1c0-2.3 1.6-4 3.9-4zm3.8 4c0-2.2 1.5-4 3.9-4c2.4 0 3.9 1.8 3.9 4c0 2.3-1.5 4.1-3.9 4.1c-2.4 0-3.9-1.8-3.9-4.1zm6.3 0c0-1.4-.8-2.7-2.4-2.7c-1.5 0-2.4 1.3-2.4 2.7c0 1.5.9 2.8 2.4 2.8c1.6 0 2.4-1.3 2.4-2.8zm12.5-1.2c0-.9-.4-1.5-1.4-1.5c-.8 0-1.5.5-1.9 1.1c.02-.01 0 5.5 0 5.5h-1.4v-5.1c0-.9-.4-1.5-1.4-1.5c-.7 0-1.5.6-1.8 1.1c-.03.01 0 5.5 0 5.5h-1.5v-7.7h1.5s-.03 1.09 0 1.1c.3-.5 1.3-1.3 2.4-1.3c1.2 0 1.9.6 2.1 1.5c.5-.8 1.5-1.5 2.6-1.5c1.4 0 2.2.8 2.2 2.3v5.6h-1.4s-.04-5.13 0-5.1z" stroke="none" fill="#3797ef"/></g><g id="Polygon305138"><path d="m.7 59.5c0-2.6.8-5.1 2.3-7.1l.9.7c-1.1 2-1.7 3.8-1.7 6.4c0 2.5.6 4.3 1.7 6.3l-.9.7C1.5 64.6.7 62 .7 59.5zm8.2-6.9c2.9 0 4.1 2.8 4.1 5.4c0 2.7-1.2 5.5-4.1 5.5c-3 0-4.2-2.8-4.2-5.5c0-2.6 1.2-5.4 4.2-5.4zm0 1.4c-1.9 0-2.5 2-2.5 4c0 2.1.6 4.1 2.5 4.1c1.9 0 2.5-2 2.5-4.1c0-2-.6-4-2.5-4zm9.6-1.4c2.9 0 4.1 2.8 4.1 5.4c0 2.7-1.2 5.5-4.1 5.5c-3 0-4.2-2.8-4.2-5.5c0-2.6 1.2-5.4 4.2-5.4zm0 1.4c-1.9 0-2.6 2-2.6 4c0 2.1.7 4.1 2.6 4.1c1.8 0 2.5-2 2.5-4.1c0-2-.7-4-2.5-4zm9.6-1.4c2.9 0 4.1 2.8 4.1 5.4c0 2.7-1.2 5.5-4.1 5.5c-3 0-4.2-2.8-4.2-5.5c0-2.6 1.2-5.4 4.2-5.4zm0 1.4c-1.9 0-2.6 2-2.6 4c0 2.1.7 4.1 2.6 4.1c1.8 0 2.5-2 2.5-4.1c0-2-.7-4-2.5-4zm5-.9l.8-.7c1.5 2 2.4 4.5 2.4 7.1c0 2.5-.9 5.1-2.4 7l-.8-.7c1-2 1.6-3.8 1.6-6.3c0-2.6-.6-4.4-1.6-6.4zm12.5-.5c2.9 0 4.1 2.8 4.1 5.4c0 2.7-1.2 5.5-4.1 5.5c-2.9 0-4.1-2.8-4.1-5.5c0-2.6 1.2-5.4 4.1-5.4zm0 1.4c-1.9 0-2.5 2-2.5 4c0 2.1.6 4.1 2.5 4.1c1.9 0 2.5-2 2.5-4.1c0-2-.6-4-2.5-4zm9.6-1.4c2.9 0 4.1 2.8 4.1 5.4c0 2.7-1.2 5.5-4.1 5.5c-2.9 0-4.2-2.8-4.2-5.5c0-2.6 1.3-5.4 4.2-5.4zm0 1.4c-1.9 0-2.5 2-2.5 4c0 2.1.6 4.1 2.5 4.1c1.9 0 2.5-2 2.5-4.1c0-2-.6-4-2.5-4zm9.6-1.4c2.9 0 4.1 2.8 4.1 5.4c0 2.7-1.2 5.5-4.1 5.5c-3 0-4.2-2.8-4.2-5.5c0-2.6 1.2-5.4 4.2-5.4zm0 1.4c-1.9 0-2.5 2-2.5 4c0 2.1.6 4.1 2.5 4.1c1.9 0 2.5-2 2.5-4.1c0-2-.6-4-2.5-4zm5.2 4.9h3.8v1.2H70v-1.2zm9-6.3c2.9 0 4.1 2.8 4.1 5.4c0 2.7-1.2 5.5-4.1 5.5c-3 0-4.2-2.8-4.2-5.5c0-2.6 1.2-5.4 4.2-5.4zm0 1.4c-1.9 0-2.5 2-2.5 4c0 2.1.6 4.1 2.5 4.1c1.9 0 2.5-2 2.5-4.1c0-2-.6-4-2.5-4zm9.6-1.4c2.9 0 4.1 2.8 4.1 5.4c0 2.7-1.2 5.5-4.1 5.5c-3 0-4.2-2.8-4.2-5.5c0-2.6 1.2-5.4 4.2-5.4zm0 1.4c-1.9 0-2.6 2-2.6 4c0 2.1.7 4.1 2.6 4.1c1.9 0 2.5-2 2.5-4.1c0-2-.6-4-2.5-4zm9.6-1.4c2.9 0 4.1 2.8 4.1 5.4c0 2.7-1.2 5.5-4.1 5.5c-3 0-4.2-2.8-4.2-5.5c0-2.6 1.2-5.4 4.2-5.4zm0 1.4c-1.9 0-2.6 2-2.6 4c0 2.1.7 4.1 2.6 4.1c1.8 0 2.5-2 2.5-4.1c0-2-.7-4-2.5-4zm9.6-1.4c2.9 0 4.1 2.8 4.1 5.4c0 2.7-1.2 5.5-4.1 5.5c-3 0-4.2-2.8-4.2-5.5c0-2.6 1.2-5.4 4.2-5.4zm0 1.4c-1.9 0-2.6 2-2.6 4c0 2.1.7 4.1 2.6 4.1c1.8 0 2.5-2 2.5-4.1c0-2-.7-4-2.5-4z" stroke="none" fill="#3797ef"/></g><g id="Polygon305137"><path d="m.7 39c0-3.3 2.4-5.5 5.5-5.5c2 0 3.3 1 4.2 2.2l-1.4.8c-.5-.9-1.6-1.6-2.8-1.6c-2.2 0-3.8 1.7-3.8 4.1c0 2.3 1.6 4 3.8 4c1.2 0 2.3-.6 2.8-1.5l1.4.7c-.9 1.3-2.2 2.3-4.2 2.3C3.1 44.5.7 42.2.7 39zm10.6 1.4c0-2.2 1.5-4 3.9-4c2.4 0 3.8 1.8 3.8 4c0 2.2-1.4 4.1-3.8 4.1c-2.4 0-3.9-1.9-3.9-4.1zm6.3 0c0-1.4-.9-2.7-2.4-2.7c-1.6 0-2.4 1.3-2.4 2.7c0 1.5.8 2.8 2.4 2.8c1.5 0 2.4-1.3 2.4-2.8zM30 39.2c0-.9-.4-1.5-1.3-1.5c-.8 0-1.6.5-1.9 1.1c-.02-.03 0 5.5 0 5.5h-1.5s.05-5.15 0-5.1c0-.9-.3-1.5-1.3-1.5c-.7 0-1.5.5-1.9 1.1c.02-.01 0 5.5 0 5.5h-1.4v-7.7h1.4s.02 1.08 0 1.1c.3-.5 1.4-1.3 2.5-1.3c1.2 0 1.8.6 2.1 1.4c.4-.7 1.4-1.4 2.6-1.4c1.4 0 2.1.8 2.1 2.3c.05.03 0 5.6 0 5.6H30s.02-5.15 0-5.1zm3.6 8V36.6h1.4s-.01 1.09 0 1.1c.5-.8 1.5-1.3 2.5-1.3c2 0 3.4 1.5 3.4 4c0 2.5-1.4 4.1-3.4 4.1c-1 0-1.9-.5-2.5-1.3v4h-1.4zm3.5-9.5c-.9 0-1.7.5-2.1 1.1v3.3c.4.6 1.2 1.1 2.1 1.1c1.4 0 2.3-1.2 2.3-2.8c0-1.6-.9-2.7-2.3-2.7zm10.2 5.7c-.6.7-1.5 1.1-2.5 1.1c-1.3 0-2.7-.9-2.7-2.6c0-1.7 1.4-2.5 2.7-2.5c1 0 1.9.3 2.5 1v-1.2c0-1-.8-1.6-1.9-1.6c-.9 0-1.6.4-2.3 1l-.6-.9c.9-.9 1.9-1.3 3.1-1.3c1.7 0 3.1.7 3.1 2.7c.03-.01 0 5.2 0 5.2h-1.4v-.9zm0-2.1c-.4-.6-1.2-.9-2-.9c-1 0-1.7.6-1.7 1.5c0 .9.7 1.6 1.7 1.6c.8 0 1.6-.3 2-.9v-1.3zm8.7-1.9c0-1.3-.6-1.7-1.6-1.7c-.9 0-1.7.5-2.1 1.1c-.02-.01 0 5.5 0 5.5h-1.4v-7.7h1.4s-.02 1.08 0 1.1c.5-.6 1.5-1.3 2.7-1.3c1.6 0 2.5.9 2.5 2.5c-.04-.02 0 5.4 0 5.4H56s.03-4.94 0-4.9zm4.1 6.7c.5 0 .8-.2 1.1-.7c-.04-.03.4-1.1.4-1.1l-3.2-7.7h1.6l2.4 6l2.4-6h1.5s-3.77 9.13-3.8 9.1c-.5 1.2-1.3 1.7-2.4 1.7c-.3 0-.7-.1-.9-.1l.2-1.3c.2.1.5.1.7.1z" stroke="none" fill="#888888"/></g><g id="Polygon305136"><path d="m1.4 3.3h8.6v2.9H4.7v5.6h4.4v2.9H4.7v8.4H1.4V3.3zm10.3 19.8V3.3h3.2v19.8h-3.2zm13.3 0l-2.5-7.9h-1.6v7.9h-3.3V3.3s5.1.03 5.1 0c3 0 5 1.2 5 4.2v3.5c0 1.9-.8 3.1-2.2 3.7c.02.01 2.8 8.4 2.8 8.4H25zm-4.1-10.7s1.69-.01 1.7 0c1.1 0 1.8-.4 1.8-1.8V8c0-1.4-.7-1.8-1.8-1.8c-.01.01-1.7 0-1.7 0v6.2zm15.2-2s-.02-2.78 0-2.8c0-1.2-.7-1.7-1.7-1.7c-.9 0-1.6.5-1.6 1.7v1.4c0 1 .3 1.4 1.2 2l2.3 1.3c1.9 1.1 3.1 1.9 3.1 4v2.9c0 3-1.9 4.1-4.9 4.1h-.1c-3 0-4.9-1-4.9-4.1c.03 0 0-3.4 0-3.4h3.3s-.05 2.94 0 2.9c0 1.3.7 1.8 1.6 1.8c1 0 1.7-.5 1.7-1.8v-1.5c0-1-.3-1.5-1.3-2.1l-2.2-1.3c-2-1.1-3.1-2-3.1-4V7.2c0-3 2.2-4.1 4.9-4.1c2.8 0 4.9 1.1 4.9 4.1v3.2h-3.2zm14-4.2h-3.3v16.9h-3.3V6.2h-3.3V3.3h9.9v2.9zm13.7 16.9h-8.3V3.3h3.2v16.9h5.1v2.9zm7.7-4.4h-3.6l-.7 4.4h-3.1l3.6-19.8h4.2l3.7 19.8h-3.3l-.8-4.4zm-.4-2.7l-1.4-8.8l-1.3 8.8h2.7zm11.7-5.6V7.6c0-1.2-.7-1.7-1.7-1.7c-.9 0-1.6.5-1.6 1.7v1.4c0 1 .3 1.4 1.2 2l2.3 1.3c1.9 1.1 3.1 1.9 3.1 4v2.9c0 3-1.9 4.1-4.9 4.1h-.1c-3 0-4.9-1-4.9-4.1c.03 0 0-3.4 0-3.4h3.3s-.05 2.94 0 2.9c0 1.3.7 1.8 1.6 1.8c1 0 1.7-.5 1.7-1.8v-1.5c0-1-.3-1.5-1.3-2.1l-2.2-1.3c-2-1.1-3.1-2-3.1-4V7.2c0-3 2.2-4.1 4.9-4.1c2.8 0 4.9 1.1 4.9 4.1v3.2h-3.2zm14-4.2h-3.3v16.9h-3.3V6.2h-3.3V3.3h9.9v2.9zm1.4 16.9V3.3h3.3l4.1 12.3V3.3h3v19.8h-3.1l-4.3-12.9v12.9h-3zm19.3-4.4h-3.7l-.7 4.4H110l3.6-19.8h4.2l3.7 19.8h-3.3l-.7-4.4zM117 16l-1.3-8.8l-1.4 8.8h2.7zm13.7 4.2h-1.8l-3-9.2v12.1h-3V3.3h3.1l3.8 11.5l3.8-11.5h3.2v19.8h-3.1V11l-3 9.2zm8.7 2.9V3.3h8.6v2.9h-5.4v5.4h4.6v2.9h-4.6v5.7h5.5v2.9h-8.7z" stroke="none" fill="#282828"/></g></svg>