<?xml version="1.0" standalone="no"?><!DOCTYPE svg PUBLIC "-//W3C//DTD SVG 1.1//EN" "http://www.w3.org/Graphics/SVG/1.1/DTD/svg11.dtd"><svg xmlns="http://www.w3.org/2000/svg" xmlns:xlink="http://www.w3.org/1999/xlink" version="1.1" width="77px" height="25.9px" viewBox="0 -8 77 25.9" style="top:-8px"><desc/><defs/><g id="Polygon68873"><path d="m14.1 3.9l4-2v.4l-3.5 1.8l3.5 1.8v.4l-4-2v-.4zm4.5 0l3.9-2v.4l-3.4 1.8l3.4 1.8v.4l-3.9-2v-.4zM26.4 1c1 0 1.7.4 2.2 1l-.4.3c-.4-.5-1.1-.8-1.8-.8c-1.5 0-2.5 1-2.5 2.6c0 1.6 1 2.7 2.5 2.7c.8 0 1.4-.4 1.7-.8c.03.03 0-1.4 0-1.4h-2.3v-.5h2.8s.04 2.13 0 2.1c-.5.6-1.3 1-2.2 1c-1.7 0-3.1-1.2-3.1-3.1c0-1.8 1.4-3.1 3.1-3.1zm3.5 1.8h.5v.7c.4-.5.9-.8 1.5-.8v.5h-.3c-.4 0-1 .4-1.2.7v3.2h-.5V2.8zm2.6 2.1c0-1.2.8-2.2 2.1-2.2c1.3 0 2.1 1 2.1 2.2c0 1.3-.8 2.3-2.1 2.3c-1.3 0-2.1-1-2.1-2.3zm3.7 0c0-.9-.6-1.8-1.6-1.8c-1 0-1.6.9-1.6 1.8c0 1 .6 1.9 1.6 1.9c1 0 1.6-.9 1.6-1.9zm4.2-1.5l-1.2 3.7h-.4l-1.5-4.3h.5L39 6.5l1.2-3.7h.4l1.3 3.7L43 2.8h.5l-1.4 4.3h-.5l-1.2-3.7zm4.1 2.9c-.02-.03 0-3.1 0-3.1h-.7v-.4h.7V1.6h.5v1.2h.8v.4h-.8s-.04 3 0 3c0 .4.1.6.4.6c.2 0 .4-.1.5-.2l.2.3c-.2.2-.4.3-.8.3c-.5 0-.8-.3-.8-.9zm5.3-2.2c0-.8-.4-1-1.1-1c-.5 0-1.1.3-1.4.7c.03.02 0 3.3 0 3.3h-.4v-6h.4s.03 2.32 0 2.3c.3-.4 1-.7 1.6-.7c.9 0 1.4.4 1.4 1.3c-.03.05 0 3.1 0 3.1h-.5v-3zm4 2.6c2.1-1.7 3.4-2.8 3.4-4c0-.9-.7-1.2-1.3-1.2c-.8 0-1.3.3-1.7.8l-.3-.4c.4-.5 1.1-.9 2-.9c.9 0 1.9.5 1.9 1.7c0 1.3-1.4 2.5-3.2 3.9c.03.04 3.2 0 3.2 0v.5h-4s.03-.41 0-.4zM61.3 1c1.6 0 2.2 1.7 2.2 3.1c0 1.4-.6 3.1-2.2 3.1c-1.6 0-2.2-1.7-2.2-3.1c0-1.4.6-3.1 2.2-3.1zm0 .5c-1.3 0-1.7 1.4-1.7 2.6c0 1.2.4 2.7 1.7 2.7c1.3 0 1.7-1.5 1.7-2.7c0-1.2-.4-2.6-1.7-2.6zm4.2.3l-.9 1l-.3-.3l1.3-1.4h.5v6h-.6V1.8zm4.1-.8c1.6 0 2.2 1.7 2.2 3.1c0 1.4-.6 3.1-2.2 3.1c-1.7 0-2.3-1.7-2.3-3.1c0-1.4.6-3.1 2.3-3.1zm0 .5c-1.3 0-1.7 1.4-1.7 2.6c0 1.2.4 2.7 1.7 2.7c1.2 0 1.6-1.5 1.6-2.7c0-1.2-.4-2.6-1.6-2.6zm5.3 3.2h2.1v.4h-2.1v-.4z" stroke="none" fill="#000"/><a xlink:href="DBF_Growth%202010%20-%202018%20(1%20Mile)" xlink:show="new" xlink:title="&lt;&lt;Growth 2010 - 2018 (1 Mile)&gt;&gt;"><rect style="fill:transparent;" x="13" y="0" width="64" height="7"/></a></g></svg>