<?xml version="1.0" standalone="no"?><!DOCTYPE svg PUBLIC "-//W3C//DTD SVG 1.1//EN" "http://www.w3.org/Graphics/SVG/1.1/DTD/svg11.dtd"><svg xmlns="http://www.w3.org/2000/svg" version="1.1" width="330.5px" height="16.9px" viewBox="0 -4 330.5 16.9" style="top:-4px"><desc>12345 STREET ADDRESS, CITY, STATE ZIP</desc><defs/><g id="Polygon301749"><path d="m163.9 2.3l-1 1l-.5-.5l1.6-1.7h.8v6h-.9V2.3zm2 4.1c2.3-1.7 3.3-2.6 3.3-3.6c0-.7-.6-1-1.2-1c-.7 0-1.2.3-1.6.8l-.5-.6c.5-.6 1.3-1 2.1-1c1.1 0 2.1.6 2.1 1.8c0 1.2-1.1 2.2-2.7 3.5c-.04.02 2.8 0 2.8 0v.8h-4.3s.03-.7 0-.7zm5.6-.7c.4.4 1 .7 1.7.7c.8 0 1.3-.4 1.3-1c0-.7-.5-1-1.4-1c-.2 0-.6 0-.6.1v-.9h.6c.7 0 1.3-.2 1.3-.8c0-.7-.6-1-1.3-1c-.6 0-1.1.3-1.5.7l-.5-.5c.4-.6 1.2-1 2.1-1c1.2 0 2.1.6 2.1 1.6c0 .9-.7 1.3-1.3 1.4c.6.1 1.4.5 1.4 1.5c0 1-.8 1.7-2.2 1.7c-1 0-1.8-.4-2.2-1l.5-.5zm7.5 0h-2.9v-.8l2.6-3.8h1.2v3.8h.8v.8h-.8v1.4h-.9V5.7zm-2-.8h2v-3l-2 3zm5.1.8c.4.4.9.7 1.6.7c.8 0 1.3-.5 1.3-1.2c0-.7-.5-1.1-1.3-1.1c-.5 0-.9.1-1.3.5c-.03.01-.7-.2-.7-.2V1.1h3.8v.8h-2.9s.02 1.92 0 1.9c.3-.3.8-.5 1.4-.5c1 0 1.9.7 1.9 1.9c0 1.2-.9 2-2.2 2c-1 0-1.7-.3-2.2-.9l.6-.6zm7.4-.1c.4.4 1 .8 1.9.8c.9 0 1.3-.5 1.3-.9c0-.6-.7-.8-1.5-1c-.9-.3-2.1-.5-2.1-1.8c0-1 .9-1.7 2.2-1.7c.9 0 1.6.3 2.2.9l-.6.6c-.4-.5-1.1-.7-1.7-.7c-.7 0-1.1.4-1.1.9c0 .5.6.7 1.4.9c.9.2 2.1.5 2.1 1.8c0 .9-.7 1.8-2.3 1.8c-1 0-1.8-.4-2.3-.9l.5-.7zm6.5-3.7h-1.8v-.8h4.6v.8h-1.9v5.2h-.9V1.9zm5.7 2.9h-1.1v2.3h-.9v-6s2.55.01 2.5 0c1.2 0 2 .7 2 1.9c0 1-.8 1.6-1.5 1.7c-.02.01 1.5 2.4 1.5 2.4h-1l-1.5-2.3zm.4-2.9h-1.5v2.1h1.5c.7 0 1.1-.4 1.1-1c0-.7-.4-1.1-1.1-1.1zm3.2-.8h4v.8h-3.1v1.8h3.1v.7h-3.1v1.9h3.1v.8h-4v-6zm5.1 0h4.1v.8h-3.2v1.8h3.1v.7h-3.1v1.9h3.2v.8h-4.1v-6zm6.7.8h-1.9v-.8h4.6v.8H218v5.2h-.9V1.9zm9.8 4h-3l-.5 1.2h-.9l2.3-6h1.2l2.3 6h-.9l-.5-1.2zm-2.7-.8h2.4l-1.2-3.2l-1.2 3.2zm4.9-4h2.1c1.9 0 3.1 1.3 3.1 3c0 1.8-1.2 3-3.1 3h-2.1v-6zm2.1 5.2c1.4 0 2.2-1 2.2-2.2c0-1.2-.8-2.2-2.2-2.2H230v4.4s1.21.02 1.2 0zm4.2-5.2s2.16.01 2.2 0c1.8 0 3.1 1.3 3.1 3c0 1.8-1.3 3-3.1 3c-.04.01-2.2 0-2.2 0v-6zm2.2 5.2c1.3 0 2.1-1 2.1-2.2c0-1.2-.7-2.2-2.1-2.2h-1.3v4.4s1.26.02 1.3 0zm6.2-1.5h-1.1v2.3h-.9v-6s2.49.01 2.5 0c1.1 0 1.9.7 1.9 1.9c0 1-.7 1.6-1.5 1.7c.02.01 1.6 2.4 1.6 2.4h-1.1l-1.4-2.3zm.4-2.9h-1.5v2.1h1.5c.6 0 1.1-.4 1.1-1c0-.7-.5-1.1-1.1-1.1zm3.1-.8h4.1v.8h-3.2v1.8h3.1v.7h-3.1v1.9h3.2v.8h-4.1v-6zm5.3 4.5c.4.4 1.1.8 1.9.8c1 0 1.3-.5 1.3-.9c0-.6-.7-.8-1.4-1c-1-.3-2.1-.5-2.1-1.8c0-1 .9-1.7 2.1-1.7c.9 0 1.7.3 2.2.9l-.5.6c-.5-.5-1.1-.7-1.8-.7c-.6 0-1.1.4-1.1.9c0 .5.7.7 1.4.9c1 .2 2.1.5 2.1 1.8c0 .9-.6 1.8-2.2 1.8c-1.1 0-1.9-.4-2.4-.9l.5-.7zm5.3 0c.4.4 1.1.8 1.9.8c1 0 1.3-.5 1.3-.9c0-.6-.6-.8-1.4-1c-1-.3-2.1-.5-2.1-1.8c0-1 .9-1.7 2.1-1.7c1 0 1.7.3 2.2.9l-.5.6c-.5-.5-1.1-.7-1.7-.7c-.7 0-1.2.4-1.2.9c0 .5.7.7 1.4.9c1 .2 2.2.5 2.2 1.8c0 .9-.7 1.8-2.3 1.8c-1.1 0-1.9-.4-2.4-.9l.5-.7zm5 2.4c.3-.2.6-.6.7-.9h-.2c-.3 0-.5-.2-.5-.5c0-.3.3-.5.6-.5c.3 0 .6.3.6.7c0 .6-.3 1.2-.8 1.5l-.4-.3zm4.4-3.9c0-1.8 1.4-3.1 3.1-3.1c1.2 0 1.9.6 2.4 1.3l-.8.4c-.3-.5-.9-.9-1.6-.9c-1.2 0-2.2 1-2.2 2.3c0 1.4 1 2.3 2.2 2.3c.7 0 1.3-.4 1.6-.9l.8.4c-.5.8-1.2 1.3-2.4 1.3c-1.7 0-3.1-1.2-3.1-3.1zm6.4-3h.9v6h-.9v-6zm3.7.8h-1.9v-.8h4.6v.8h-1.8v5.2h-.9V1.9zm5.4 2.7l-2.3-3.5h1l1.7 2.7l1.8-2.7h1l-2.3 3.5v2.5h-.9V4.6zm3 3.4c.3-.2.6-.6.6-.9h-.1c-.3 0-.5-.2-.5-.5c0-.3.2-.5.5-.5c.4 0 .7.3.7.7c0 .6-.4 1.2-.8 1.5l-.4-.3zm4.8-2.4c.4.4 1 .8 1.8.8c1 0 1.4-.5 1.4-.9c0-.6-.7-.8-1.5-1c-1-.3-2.1-.5-2.1-1.8c0-1 .9-1.7 2.2-1.7c.9 0 1.6.3 2.1.9l-.5.6c-.4-.5-1.1-.7-1.7-.7c-.7 0-1.1.4-1.1.9c0 .5.6.7 1.4.9c.9.2 2.1.5 2.1 1.8c0 .9-.7 1.8-2.3 1.8c-1.1 0-1.8-.4-2.4-.9l.6-.7zm6.5-3.7h-1.8v-.8h4.6v.8H298v5.2h-.9V1.9zm6.9 4h-2.9l-.5 1.2h-1l2.4-6h1.1l2.4 6h-1l-.5-1.2zm-2.7-.8h2.5l-1.3-3.2l-1.2 3.2zm5.8-3.2h-1.9v-.8h4.6v.8H308v5.2h-.9V1.9zm3.7-.8h4v.8h-3.1v1.8h3v.7h-3v1.9h3.1v.8h-4v-6zm7.2 5.3l3.2-4.5H318v-.8h4.4v.7l-3.2 4.5h3.2v.8H318v-.7zm5.5-5.3h.9v6h-.9v-6zm2.3 0s2.5.01 2.5 0c1.2 0 1.9.9 1.9 1.9c0 1-.7 1.8-1.9 1.8h-1.6v2.3h-.9v-6zm2.4.8h-1.5v2.1h1.5c.6 0 1.1-.4 1.1-1c0-.7-.5-1.1-1.1-1.1z" stroke="none" fill="#88898a"/></g></svg>