<?xml version="1.0" standalone="no"?><!DOCTYPE svg PUBLIC "-//W3C//DTD SVG 1.1//EN" "http://www.w3.org/Graphics/SVG/1.1/DTD/svg11.dtd"><svg xmlns="http://www.w3.org/2000/svg" version="1.1" width="125.4px" height="27.3px" viewBox="0 -6 125.4 27.3" style="top:-6px"><desc>49,136</desc><defs/><g id="Polygon114643"><path d="m78.7 12.7v1.4h-.7s-.02-1.37 0-1.4c-1.6 0-2.8-.7-3.6-1.6l.6-.7c.6.7 1.6 1.4 3 1.5V7.4c-1.6-.4-3.3-.9-3.3-2.8c0-1.6 1.5-2.7 3.3-2.8c-.02 0 0-1.4 0-1.4h.7v1.4c1.4.1 2.4.6 3.1 1.5l-.6.6c-.6-.7-1.5-1.2-2.5-1.2v3.9c1.7.5 3.3 1.1 3.3 3.2c0 1.2-.8 2.8-3.3 2.9zM78 6.4V2.6c-1.3.1-2.3.9-2.3 2c0 1.1 1 1.5 2.3 1.8zm3.1 3.4c0-1.3-1.1-1.8-2.4-2.2v4.3c1.9-.1 2.4-1.3 2.4-2.1zm7.4-.1h-5v-.9L88.2 2h1.2v6.8h1.6v.9h-1.6v2.8h-.9V9.7zm-4.1-.9h4.1V2.9l-4.1 5.9zm9.1 1.9c.5.7 1.2 1.2 2.3 1.2c2.3 0 3.1-2.4 3.1-4.7v-.5c-.4.8-1.6 1.8-3.1 1.8c-1.9 0-3.4-1.1-3.4-3.3c0-1.8 1.3-3.4 3.6-3.4c2.8 0 3.9 2.6 3.9 5.5c0 2.7-1.2 5.4-4.1 5.4c-1.4 0-2.2-.5-2.8-1.3l.5-.7zM96 2.6c-1.8 0-2.7 1.4-2.7 2.5c0 1.8 1.2 2.6 2.7 2.6c1.1 0 2.3-.7 2.9-1.8c-.1-1.5-.9-3.3-2.9-3.3zm5.1 11.5c.5-.3.9-1 1-1.5l-.2.1c-.4 0-.7-.3-.7-.7c0-.4.3-.7.7-.7c.5 0 .8.4.8 1c0 .9-.5 1.8-1.1 2.2l-.5-.4zm4.2-10.9L103.6 5l-.6-.6l2.3-2.4h.9v10.5h-.9V3.2zm3.3 7.2c.6.9 1.6 1.5 3 1.5c1.6 0 2.7-.8 2.7-2.2c0-1.6-1.3-2.2-2.9-2.2h-1v-.8h1c1.4 0 2.7-.6 2.7-2c0-1.4-1.2-2.1-2.5-2.1c-1.3 0-2.1.5-2.9 1.4l-.6-.6c.8-.9 1.9-1.6 3.5-1.6c1.8 0 3.4 1 3.4 2.8c0 1.6-1.4 2.3-2.3 2.5c1 .1 2.5.9 2.5 2.6c0 1.8-1.3 3-3.6 3c-1.7 0-3-.8-3.6-1.7l.6-.6zm12.5-8.6c1.4 0 2.2.5 2.9 1.3l-.6.7c-.5-.7-1.1-1.2-2.3-1.2c-2.3 0-3.1 2.4-3.1 4.7v.5c.4-.8 1.6-1.8 3.1-1.8c1.9 0 3.4 1.1 3.4 3.4c0 1.7-1.3 3.3-3.6 3.3c-2.8 0-3.9-2.6-3.9-5.4c0-2.8 1.2-5.5 4.1-5.5zm-.2 5c-1.1 0-2.3.8-2.9 1.8c.2 1.5.9 3.3 2.9 3.3c1.8 0 2.7-1.4 2.7-2.5c0-1.8-1.2-2.6-2.7-2.6z" stroke="none" fill="#000"/></g></svg>