<?xml version="1.0" standalone="no"?><!DOCTYPE svg PUBLIC "-//W3C//DTD SVG 1.1//EN" "http://www.w3.org/Graphics/SVG/1.1/DTD/svg11.dtd"><svg xmlns="http://www.w3.org/2000/svg" version="1.1" width="77px" height="15.9px" viewBox="0 -4 77 15.9" style="top:-4px"><desc>21 2%</desc><defs/><g id="Polygon108981"><path d="m55.8 6.7c2.1-1.7 3.5-2.8 3.5-4c0-.9-.8-1.2-1.4-1.2c-.8 0-1.3.3-1.7.8l-.3-.4c.4-.5 1.1-.9 2-.9c.9 0 1.9.5 1.9 1.7c0 1.3-1.4 2.5-3.2 3.9c.05.04 3.2 0 3.2 0v.5h-4s.05-.41 0-.4zm6.3-4.9l-1 1l-.3-.3l1.3-1.4h.5v6h-.5V1.8zm2.2 4.6c.2 0 .4.2.4.4c0 .2-.2.4-.4.4c-.2 0-.4-.2-.4-.4c0-.2.2-.4.4-.4zm1.5.3c2.1-1.7 3.4-2.8 3.4-4c0-.9-.7-1.2-1.3-1.2c-.8 0-1.4.3-1.7.8l-.3-.4c.4-.5 1.1-.9 2-.9c.9 0 1.9.5 1.9 1.7c0 1.3-1.4 2.5-3.2 3.9c.03.04 3.2 0 3.2 0v.5h-4s.03-.41 0-.4zM72.3 1c.8 0 1.4.7 1.4 1.5c0 .8-.6 1.5-1.4 1.5c-.9 0-1.4-.7-1.4-1.5c0-.8.5-1.5 1.4-1.5zm3.2.1h.5l-3.9 6h-.4l3.8-6zm-3.2.3c-.6 0-1 .5-1 1.1c0 .6.4 1.1 1 1.1c.6 0 1-.5 1-1.1c0-.6-.4-1.1-1-1.1zm3 2.9c.9 0 1.4.6 1.4 1.5c0 .8-.5 1.4-1.4 1.4c-.8 0-1.4-.6-1.4-1.4c0-.9.6-1.5 1.4-1.5zm0 .3c-.6 0-1 .5-1 1.2c0 .6.4 1.1 1 1.1c.6 0 1-.5 1-1.1c0-.7-.4-1.2-1-1.2z" stroke="none" fill="#000"/></g></svg>