<?xml version="1.0" standalone="no"?><!DOCTYPE svg PUBLIC "-//W3C//DTD SVG 1.1//EN" "http://www.w3.org/Graphics/SVG/1.1/DTD/svg11.dtd"><svg xmlns="http://www.w3.org/2000/svg" version="1.1" width="237px" height="46.5px" viewBox="0 -10 237 46.5" style="top:-10px"><desc>Lorem Ipsum</desc><defs/><g id="Polygon274165"><path d="m9.7 22H1.4V2.3h3.3v16.8h5v2.9zm6.4-20h.2c3 0 5 1.2 5 4.2v11.9c0 3-2 4.1-5 4.1h-.2c-3 0-5-1.1-5-4.1V6.2c0-3 2-4.2 5-4.2zm.1 17.4c1.1 0 1.8-.4 1.8-1.8V6.7c0-1.4-.7-1.8-1.8-1.8c-1.1 0-1.8.4-1.8 1.8v10.9c0 1.4.7 1.8 1.8 1.8zM31.1 22l-2.5-7.9H27v7.9h-3.3V2.3s5.1-.04 5.1 0c3 0 5 1.1 5 4.1v3.6c0 1.9-.8 3-2.2 3.6l2.8 8.4h-3.3zM27 11.3s1.69.02 1.7 0c1.1 0 1.8-.4 1.8-1.8V6.9c0-1.4-.7-1.8-1.8-1.8c-.01.04-1.7 0-1.7 0v6.2zM36.1 22V2.3h8.7v2.8h-5.4v5.5h4.5v2.8h-4.5v5.7h5.5v2.9h-8.8zm18.7-2.9h-1.9L50 9.9V22h-3.1V2.3h3.1l3.8 11.5l3.9-11.5h3.2V22h-3.2V9.9l-2.9 9.2zm13 2.9V2.3h3.3V22h-3.3zm16-15.6v3.8c0 3-2 4.2-5 4.2c.03-.03-1.8 0-1.8 0v7.6h-3.3V2.3s5.13-.04 5.1 0c3 0 5 1.1 5 4.1zm-3.3.5c0-1.4-.7-1.8-1.8-1.8c.02.04-1.7 0-1.7 0v6.4s1.72-.01 1.7 0c1.1 0 1.8-.4 1.8-1.8V6.9zm11.3 2.4s-.04-2.75 0-2.7c0-1.3-.7-1.7-1.7-1.7c-1 0-1.7.4-1.7 1.7v1.3c0 1 .4 1.5 1.3 2l2.3 1.3c1.9 1.1 3 2 3 4.1v2.8c0 3.1-1.9 4.1-4.8 4.1h-.1c-3 0-4.9-1-4.9-4.1c.01.03 0-3.4 0-3.4h3.2s.03 2.98 0 3c0 1.2.7 1.7 1.7 1.7c1 0 1.7-.5 1.7-1.7v-1.6c0-1-.3-1.5-1.3-2l-2.3-1.3c-1.9-1.1-3-2-3-4.1V6.1c0-2.9 2.2-4.1 4.9-4.1C92.8 2 95 3.2 95 6.1c-.02 0 0 3.2 0 3.2h-3.2zm15.2 8.8c0 3-1.9 4.1-4.9 4.1h-.1c-3 0-4.9-1.1-4.9-4.1c-.03-.03 0-15.8 0-15.8h3.2s.05 15.26 0 15.3c0 1.4.7 1.8 1.7 1.8c1.1 0 1.7-.4 1.7-1.8c.04-.04 0-15.3 0-15.3h3.3v15.8zm10.3 1h-1.8l-3-9.2V22h-3V2.3h3.1l3.8 11.5l3.9-11.5h3.2V22h-3.2V9.9l-3 9.2z" stroke="none" fill="#282828"/></g></svg>