<?xml version="1.0" standalone="no"?><!DOCTYPE svg PUBLIC "-//W3C//DTD SVG 1.1//EN" "http://www.w3.org/Graphics/SVG/1.1/DTD/svg11.dtd"><svg xmlns="http://www.w3.org/2000/svg" version="1.1" width="77px" height="16.9px" viewBox="0 -4 77 16.9" style="top:-4px"><desc>Median Income</desc><defs/><g id="Polygon299461"><path d="m5.8 2.3L3.9 7.1h-.4L1.6 2.3v4.8h-.9v-6h1.3l1.7 4.3l1.7-4.3h1.3v6h-.9V2.3zm4.2.4c1.3 0 2.1 1 2.1 2.3c-.03 0 0 .2 0 .2H8.6c.1.7.6 1.4 1.5 1.4c.5 0 1-.2 1.3-.6l.4.6c-.5.4-1.1.6-1.8.6c-1.3 0-2.2-.9-2.2-2.3c0-1.2.9-2.2 2.2-2.2zM8.6 4.6h2.7c0-.6-.4-1.3-1.3-1.3c-.9 0-1.3.7-1.4 1.3zm7.6 1.9c-.3.4-.9.7-1.4.7c-1.2 0-2-.8-2-2.3c0-1.4.8-2.2 2-2.2c.5 0 1 .2 1.4.7c-.02-.01 0-2.3 0-2.3h.8v6h-.8s-.02-.61 0-.6zm0-2.5c-.2-.3-.7-.6-1.2-.6c-.8 0-1.3.6-1.3 1.5c0 .9.5 1.6 1.3 1.6c.5 0 1-.3 1.2-.6V4zm2-2.5c0-.3.2-.5.5-.5c.3 0 .5.2.5.5c0 .3-.2.5-.5.5c-.3 0-.5-.2-.5-.5zm.1 1.3h.8v4.3h-.8V2.8zm4.8 3.8c-.4.4-.9.6-1.5.6c-.7 0-1.5-.5-1.5-1.4c0-1 .8-1.4 1.5-1.4c.6 0 1.1.1 1.5.5v-.7c0-.5-.5-.9-1.1-.9c-.5 0-.9.2-1.3.6l-.4-.5c.5-.5 1.1-.7 1.8-.7c1 0 1.8.4 1.8 1.5c-.02-.02 0 2.9 0 2.9h-.8s-.03-.47 0-.5zm0-1.2c-.3-.3-.7-.5-1.1-.5c-.6 0-1 .4-1 .9c0 .5.4.9 1 .9c.4 0 .8-.2 1.1-.5v-.8zm5-1.1c0-.7-.4-.9-.9-.9c-.5 0-1 .3-1.2.6c-.02 0 0 3.1 0 3.1h-.8V2.8h.8s-.02.57 0 .6c.3-.4.8-.7 1.5-.7c.9 0 1.4.4 1.4 1.4c.02-.04 0 3 0 3h-.8V4.3zm4.4-3.2h.9v6h-.9v-6zm5.2 3.2c0-.7-.4-.9-.9-.9c-.5 0-1 .3-1.2.6c-.02 0 0 3.1 0 3.1h-.8V2.8h.8s-.02.57 0 .6c.3-.4.8-.7 1.5-.7c.9 0 1.4.4 1.4 1.4v3h-.8V4.3zm4-1.6c.9 0 1.4.3 1.7.7l-.6.5c-.2-.4-.6-.5-1-.5c-.9 0-1.4.6-1.4 1.5c0 .9.5 1.6 1.4 1.6c.4 0 .8-.2 1-.5l.6.5c-.3.4-.8.7-1.7.7c-1.3 0-2.2-1-2.2-2.3c0-1.3.9-2.2 2.2-2.2zM44 4.9c0-1.2.8-2.2 2.2-2.2c1.3 0 2.2 1 2.2 2.2c0 1.3-.9 2.3-2.2 2.3c-1.4 0-2.2-1-2.2-2.3zm3.5 0c0-.8-.4-1.5-1.3-1.5c-.9 0-1.4.7-1.4 1.5c0 .9.5 1.6 1.4 1.6c.9 0 1.3-.7 1.3-1.6zm7.2-.7c0-.5-.2-.8-.8-.8c-.4 0-.8.3-1 .6c-.04 0 0 3.1 0 3.1h-.9s.05-2.89 0-2.9c0-.5-.2-.8-.7-.8c-.4 0-.9.3-1.1.6c.02 0 0 3.1 0 3.1h-.8V2.8h.8s.02.57 0 .6c.2-.3.8-.7 1.4-.7c.7 0 1.1.3 1.2.8c.3-.4.8-.8 1.5-.8c.8 0 1.2.4 1.2 1.3v3.1h-.8V4.2zm4-1.5c1.3 0 2.1 1 2.1 2.3v.2h-3.4c0 .7.6 1.4 1.5 1.4c.4 0 .9-.2 1.2-.6l.4.6c-.4.4-1 .6-1.7.6c-1.3 0-2.3-.9-2.3-2.3c0-1.2.9-2.2 2.2-2.2zm-1.3 1.9h2.6c0-.6-.4-1.3-1.3-1.3c-.9 0-1.3.7-1.3 1.3z" stroke="none" fill="#000"/></g></svg>