<?xml version="1.0" standalone="no"?><!DOCTYPE svg PUBLIC "-//W3C//DTD SVG 1.1//EN" "http://www.w3.org/Graphics/SVG/1.1/DTD/svg11.dtd"><svg xmlns="http://www.w3.org/2000/svg" version="1.1" width="303px" height="126.9px" viewBox="0 -6 303 126.9" style="top:-6px"><desc>South Carolina Aquarium The South Carolina Aquarium is home to more than ten thousand plants and animals including No</desc><defs/><g id="Polygon100486"><path d="m1.3 87.4h.8V98h-.8V87.4zm2.8 6.7c0-2.2 1.4-4 3.7-4c2.2 0 3.7 1.8 3.7 4c0 2.3-1.5 4-3.7 4c-2.3 0-3.7-1.7-3.7-4zm6.5 0c0-1.7-1-3.3-2.8-3.3C6 90.8 5 92.4 5 94.1c0 1.7 1 3.3 2.8 3.3c1.8 0 2.8-1.6 2.8-3.3zm3.3 5.2c.7.8 1.4 1.1 2.6 1.1c1.4 0 2.6-.7 2.6-2.5v-1.2c-.5.8-1.5 1.4-2.7 1.4c-2 0-3.4-1.5-3.4-4c0-2.4 1.4-4 3.4-4c1.1 0 2.1.6 2.7 1.4v-1.2h.8s.03 7.58 0 7.6c0 2.3-1.6 3.2-3.4 3.2c-1.3 0-2.1-.3-3-1.2l.4-.6zm5.2-7.1c-.5-.7-1.5-1.4-2.5-1.4c-1.7 0-2.7 1.5-2.7 3.3c0 1.9 1 3.3 2.7 3.3c1 0 2-.7 2.5-1.4v-3.8zm3.7 7.1c.7.8 1.4 1.1 2.6 1.1c1.4 0 2.6-.7 2.6-2.5v-1.2c-.6.8-1.5 1.4-2.7 1.4c-2 0-3.4-1.5-3.4-4c0-2.4 1.4-4 3.4-4c1.1 0 2.1.6 2.7 1.4v-1.2h.8s.03 7.58 0 7.6c0 2.3-1.6 3.2-3.4 3.2c-1.3 0-2.1-.3-3.1-1.2l.5-.6zm5.2-7.1c-.5-.7-1.5-1.4-2.5-1.4c-1.7 0-2.7 1.5-2.7 3.3c0 1.9 1 3.3 2.7 3.3c1 0 2-.7 2.5-1.4v-3.8zm6.5-2.1c2.3 0 3.6 1.9 3.6 4.1v.2s-6.42-.02-6.4 0c.1 1.7 1.2 3 3 3c1 0 1.8-.3 2.5-1l.4.5c-.7.8-1.7 1.2-3 1.2c-2.2 0-3.8-1.6-3.8-4c0-2.2 1.6-4 3.7-4zm-2.8 3.6h5.6c-.1-1.3-.9-2.9-2.8-2.9c-1.8 0-2.8 1.6-2.8 2.9zm8.4-3.4h.8v1.3c.6-.9 1.5-1.5 2.6-1.5v.9h-.4c-.8 0-1.9.7-2.2 1.4v5.6h-.8v-7.7zm10 2.4c0-1.4-.7-1.9-1.8-1.9c-1 0-2 .7-2.5 1.4c-.03-.04 0 5.8 0 5.8h-.9V87.4h.9s-.03 4.05 0 4c.5-.6 1.6-1.3 2.7-1.3c1.6 0 2.4.7 2.4 2.5c.05-.04 0 5.4 0 5.4h-.8s.02-5.27 0-5.3zm6.5-2.6c2.4 0 3.6 1.9 3.6 4.1c.04-.04 0 .2 0 .2c0 0-6.38-.02-6.4 0c.1 1.7 1.2 3 3 3c1 0 1.9-.3 2.5-1l.5.5c-.8.8-1.8 1.2-3 1.2c-2.3 0-3.9-1.6-3.9-4c0-2.2 1.6-4 3.7-4zm-2.8 3.6h5.6c0-1.3-.9-2.9-2.8-2.9c-1.8 0-2.7 1.6-2.8 2.9zm13.3 3.4c-.7.7-1.6 1-2.6 1c-1.3 0-2.7-.9-2.7-2.5c0-1.7 1.3-2.5 2.7-2.5c1 0 1.9.3 2.6 1v-1.5c0-1.1-.9-1.8-2.1-1.8c-.9 0-1.7.4-2.4 1.2l-.4-.6c.8-.9 1.6-1.3 2.9-1.3c1.6 0 2.8.7 2.8 2.5v5.4h-.8s-.01-.95 0-.9zm0-2.3c-.6-.7-1.4-1.1-2.3-1.1c-1.3 0-2.1.8-2.1 1.9c0 1.1.8 1.9 2.1 1.9c.9 0 1.7-.4 2.3-1v-1.7zm8.9 1.9c-.6.8-1.5 1.4-2.7 1.4c-2 0-3.4-1.5-3.4-4c0-2.4 1.4-4 3.4-4c1.1 0 2.1.6 2.7 1.4c-.02.03 0-4.1 0-4.1h.8V98h-.8s-.02-1.26 0-1.3zm0-4.5c-.5-.7-1.5-1.4-2.5-1.4c-1.7 0-2.7 1.5-2.7 3.3c0 1.9 1 3.3 2.7 3.3c1 0 2-.6 2.5-1.4v-3.8zm7 4.1c.5.6 1.4 1.2 2.5 1.2c1.3 0 2-.7 2-1.6c0-1-1-1.2-2.1-1.5c-1.3-.3-2.7-.7-2.7-2.2c0-1.2 1-2.1 2.7-2.1c1.3 0 2.2.5 2.8 1.1l-.5.6c-.4-.6-1.3-1-2.3-1c-1.2 0-1.9.6-1.9 1.4c0 .9 1 1.1 2.1 1.4c1.3.3 2.8.7 2.8 2.3c0 1.2-1 2.2-2.9 2.2c-1.3 0-2.2-.3-3-1.2l.5-.6zm10.6-6.2c2.3 0 3.6 1.9 3.6 4.1v.2s-6.42-.02-6.4 0c.1 1.7 1.2 3 3 3c1 0 1.8-.3 2.5-1l.4.5c-.7.8-1.7 1.2-3 1.2c-2.2 0-3.8-1.6-3.8-4c0-2.2 1.5-4 3.7-4zm-2.8 3.6h5.6c-.1-1.3-.9-2.9-2.8-2.9c-1.8 0-2.8 1.6-2.8 2.9zm13.2 3.4c-.6.7-1.5 1-2.6 1c-1.3 0-2.6-.9-2.6-2.5c0-1.7 1.3-2.5 2.6-2.5c1.1 0 2 .3 2.6 1v-1.5c0-1.1-.9-1.8-2-1.8c-1 0-1.7.4-2.4 1.2l-.5-.6c.8-.9 1.7-1.3 3-1.3c1.5 0 2.8.7 2.8 2.5c-.03-.04 0 5.4 0 5.4h-.9s.04-.95 0-.9zm0-2.3c-.5-.7-1.4-1.1-2.3-1.1c-1.2 0-2.1.8-2.1 1.9c0 1.1.9 1.9 2.1 1.9c.9 0 1.8-.4 2.3-1v-1.7zm7.4 1.7V91h-1.3v-.7h1.3v-2.1h.8v2.1h1.6v.7h-1.6s.04 5.36 0 5.4c0 .6.3 1 .8 1c.4 0 .7-.2.9-.4l.3.7c-.3.3-.7.4-1.3.4c-1 0-1.5-.6-1.5-1.6zm9.2.3c-.6.7-1.6 1.3-2.7 1.3c-1.6 0-2.5-.7-2.5-2.4c.05-.01 0-5.4 0-5.4h.9s-.03 5.2 0 5.2c0 1.5.7 1.9 1.8 1.9c1 0 2-.6 2.5-1.3c.03.03 0-5.8 0-5.8h.8v7.7h-.8s.03-1.17 0-1.2zm3.3-6.5h.8v1.3c.6-.9 1.5-1.5 2.6-1.5v.9h-.4c-.8 0-1.9.7-2.2 1.4v5.6h-.8v-7.7zm5 6.2V91h-1.3v-.7h1.3v-2.1h.8v2.1h1.6v.7h-1.6s.04 5.36 0 5.4c0 .6.3 1 .8 1c.4 0 .7-.2.9-.4l.3.7c-.3.3-.7.4-1.3.4c-1 0-1.5-.6-1.5-1.6zm4-9.1h.9V98h-.9V87.4zm6.5 2.7c2.4 0 3.7 1.9 3.7 4.1c-.04-.04 0 .2 0 .2c0 0-6.45-.02-6.5 0c.1 1.7 1.2 3 3 3c1 0 1.9-.3 2.6-1l.4.5c-.8.8-1.7 1.2-3 1.2c-2.3 0-3.9-1.6-3.9-4c0-2.2 1.6-4 3.7-4zm-2.8 3.6h5.6c0-1.3-.8-2.9-2.8-2.9c-1.8 0-2.7 1.6-2.8 2.9zm8.3 2.6c.5.6 1.3 1.2 2.4 1.2c1.3 0 2.1-.7 2.1-1.6c0-1-1.1-1.2-2.2-1.5c-1.2-.3-2.7-.7-2.7-2.2c0-1.2 1-2.1 2.8-2.1c1.3 0 2.2.5 2.7 1.1l-.4.6c-.5-.6-1.3-1-2.3-1c-1.2 0-1.9.6-1.9 1.4c0 .9.9 1.1 2 1.4c1.3.3 2.8.7 2.8 2.3c0 1.2-1 2.2-2.9 2.2c-1.2 0-2.2-.3-2.9-1.2l.5-.6zm6.9 3.2c.5-.3.9-1 .9-1.4h-.1c-.4 0-.7-.3-.7-.7c0-.4.3-.7.7-.7c.4 0 .8.4.8 1c0 .9-.5 1.8-1.1 2.2l-.5-.4zm12.5-2.4c-.7.7-1.5 1-2.6 1c-1.3 0-2.7-.9-2.7-2.5c0-1.7 1.4-2.5 2.7-2.5c1.1 0 1.9.3 2.6 1v-1.5c0-1.1-.9-1.8-2-1.8c-1 0-1.7.4-2.4 1.2l-.5-.6c.8-.9 1.7-1.3 2.9-1.3c1.6 0 2.8.7 2.8 2.5c.04-.04 0 5.4 0 5.4h-.8s.02-.95 0-.9zm0-2.3c-.5-.7-1.4-1.1-2.3-1.1c-1.3 0-2.1.8-2.1 1.9c0 1.1.8 1.9 2.1 1.9c.9 0 1.8-.4 2.3-1v-1.7zm3.3-7.4h.8V98h-.8V87.4zm3.2 0h.8V98h-.8V87.4zm3 1c0-.4.3-.7.6-.7c.4 0 .7.3.7.7c0 .3-.3.6-.7.6c-.3 0-.6-.3-.6-.6zm.2 1.9h.9v7.7h-.9v-7.7zm3.8 9c.6.8 1.4 1.1 2.5 1.1c1.4 0 2.6-.7 2.6-2.5v-1.2c-.5.8-1.5 1.4-2.6 1.4c-2.1 0-3.5-1.5-3.5-4c0-2.4 1.4-4 3.5-4c1 0 2 .6 2.6 1.4c.03.03 0-1.2 0-1.2h.9s-.03 7.58 0 7.6c0 2.3-1.6 3.2-3.5 3.2c-1.3 0-2.1-.3-3-1.2l.5-.6zm5.1-7.1c-.4-.7-1.4-1.4-2.5-1.4c-1.7 0-2.7 1.5-2.7 3.3c0 1.9 1 3.3 2.7 3.3c1.1 0 2.1-.7 2.5-1.4v-3.8zm8.1 4.9c-.6.7-1.5 1-2.6 1c-1.3 0-2.6-.9-2.6-2.5c0-1.7 1.3-2.5 2.6-2.5c1.1 0 2 .3 2.6 1v-1.5c0-1.1-.9-1.8-2-1.8c-1 0-1.7.4-2.4 1.2l-.5-.6c.8-.9 1.7-1.3 3-1.3c1.5 0 2.8.7 2.8 2.5c-.03-.04 0 5.4 0 5.4h-.9s.05-.95 0-.9zm0-2.3c-.5-.7-1.4-1.1-2.3-1.1c-1.2 0-2.1.8-2.1 1.9c0 1.1.9 1.9 2.1 1.9c.9 0 1.8-.4 2.3-1v-1.7zm3.4 1.7c.04-.02 0-5.5 0-5.5h-1.2v-.7h1.2v-2.1h.9v2.1h1.5v.7h-1.5s-.02 5.36 0 5.4c0 .6.2 1 .8 1c.3 0 .7-.2.8-.4l.4.7c-.3.3-.7.4-1.3.4c-1.1 0-1.6-.6-1.6-1.6zm3.6-2.4c0-2.2 1.5-4 3.7-4c2.3 0 3.7 1.8 3.7 4c0 2.3-1.4 4-3.7 4c-2.2 0-3.7-1.7-3.7-4zm6.5 0c0-1.7-1-3.3-2.8-3.3c-1.7 0-2.8 1.6-2.8 3.3c0 1.7 1.1 3.3 2.8 3.3c1.8 0 2.8-1.6 2.8-3.3zm2.9-3.8h.8s.03 1.3 0 1.3c.7-.9 1.6-1.5 2.6-1.5v.9h-.4c-.8 0-1.8.7-2.2 1.4c.03-.03 0 5.6 0 5.6h-.8v-7.7zm4.7 6c.5.6 1.4 1.2 2.5 1.2c1.3 0 2-.7 2-1.6c0-1-1-1.2-2.1-1.5c-1.3-.3-2.7-.7-2.7-2.2c0-1.2 1-2.1 2.7-2.1c1.3 0 2.2.5 2.8 1.1l-.5.6c-.4-.6-1.3-1-2.3-1c-1.2 0-1.9.6-1.9 1.4c0 .9 1 1.1 2 1.4c1.4.3 2.8.7 2.8 2.3c0 1.2-.9 2.2-2.8 2.2c-1.3 0-2.2-.3-3-1.2l.5-.6zm18.3 1.7c-.4-.4-.9-.8-1.4-1.3c-.7.8-1.7 1.4-3.1 1.4c-1.7 0-3.2-.9-3.2-2.8c0-1.7 1.2-2.6 2.4-3.3c-.5-.8-.9-1.6-.9-2.4c0-1.4 1.1-2.4 2.5-2.4c1.4 0 2.3.7 2.3 2c0 1.6-1.4 2.3-2.7 3c.4.7.9 1.3 1.3 1.7c.5.6 1 1.1 1.4 1.5c.7-.9 1.1-2 1.2-2.5l.8.3c-.3.8-.8 1.9-1.4 2.8l2 2h-1.2zm-4.5-6.4c1.2-.6 2.3-1.2 2.3-2.4c0-.8-.6-1.3-1.4-1.3c-.9 0-1.7.7-1.7 1.7c0 .7.3 1.4.8 2zm2.6 4.5c-.6-.6-1.3-1.3-1.6-1.7c-.5-.5-1-1.1-1.4-1.8c-1 .6-1.9 1.4-1.9 2.6c0 1.5 1.2 2.2 2.4 2.2c1 0 1.9-.5 2.5-1.3zm17.9-3.5c0-1.1-.4-1.8-1.5-1.8c-.8 0-1.8.6-2.2 1.3v5.9h-.8s-.03-5.41 0-5.4c0-1.1-.5-1.8-1.6-1.8c-.8 0-1.7.7-2.2 1.4c.03-.04 0 5.8 0 5.8h-.8v-7.7h.8s.03 1.15 0 1.1c.4-.4 1.4-1.3 2.5-1.3c1.2 0 1.8.7 2 1.4c.5-.7 1.5-1.4 2.6-1.4c1.4 0 2.1.8 2.1 2.3c-.03.03 0 5.6 0 5.6h-.9s.04-5.41 0-5.4zm2.8 1.5c0-2.2 1.5-4 3.7-4c2.3 0 3.7 1.8 3.7 4c0 2.3-1.4 4-3.7 4c-2.2 0-3.7-1.7-3.7-4zm6.5 0c0-1.7-1-3.3-2.8-3.3c-1.8 0-2.8 1.6-2.8 3.3c0 1.7 1 3.3 2.8 3.3c1.8 0 2.8-1.6 2.8-3.3zm2.9-3.8h.8s.02 1.3 0 1.3c.7-.9 1.5-1.5 2.6-1.5v.9h-.4c-.8 0-1.8.7-2.2 1.4c.02-.03 0 5.6 0 5.6h-.8v-7.7zm8.1-.2c2.4 0 3.6 1.9 3.6 4.1c.04-.04 0 .2 0 .2c0 0-6.37-.02-6.4 0c.1 1.7 1.2 3 3 3c1 0 1.9-.3 2.5-1l.5.5c-.8.8-1.8 1.2-3 1.2c-2.3 0-3.9-1.6-3.9-4c0-2.2 1.6-4 3.7-4zm-2.8 3.6h5.6c0-1.3-.9-2.9-2.8-2.9c-1.8 0-2.7 1.6-2.8 2.9zm8.7 3c.4 0 .7.3.7.7c0 .4-.3.7-.7.7c-.4 0-.7-.3-.7-.7c0-.4.3-.7.7-.7z" stroke="none" fill="#000"/></g><g id="Polygon100485"><path d="m1.1 69.3c0-.4.3-.6.6-.6c.3 0 .6.2.6.6c0 .3-.3.6-.6.6c-.3 0-.6-.3-.6-.6zm.2 1.9h.8v7.7h-.8v-7.7zm8.4 2.5c0-1.5-.7-1.9-1.9-1.9c-.9 0-2 .6-2.4 1.3c-.05 0 0 5.8 0 5.8h-.9v-7.7h.9s-.05 1.19 0 1.2C5.9 71.7 7 71 8.1 71c1.6 0 2.4.8 2.4 2.5c.03.03 0 5.4 0 5.4h-.8v-5.2zm6.5-2.7c1.3 0 2.1.6 2.7 1.3l-.5.5c-.6-.7-1.3-1-2.1-1c-1.8 0-2.9 1.4-2.9 3.3c0 1.8 1.1 3.2 2.9 3.2c.8 0 1.5-.3 2.1-1l.5.5c-.6.8-1.4 1.3-2.7 1.3c-2.2 0-3.7-1.8-3.7-4c0-2.3 1.5-4.1 3.7-4.1zm4.4-2.7h.9v10.6h-.9V68.3zm8.4 9.5c-.6.7-1.6 1.3-2.7 1.3c-1.6 0-2.4-.7-2.4-2.5c-.03.03 0-5.4 0-5.4h.8v5.2c0 1.5.7 1.9 1.9 1.9c.9 0 1.9-.5 2.4-1.2c.05-.03 0-5.9 0-5.9h.9v7.7h-.9s.05-1.13 0-1.1zm8.9-.1c-.5.8-1.5 1.4-2.6 1.4c-2.1 0-3.5-1.6-3.5-4c0-2.5 1.4-4.1 3.5-4.1c1.1 0 2 .6 2.6 1.5c.04-.03 0-4.2 0-4.2h.9v10.6h-.9s.04-1.22 0-1.2zm0-4.5c-.4-.8-1.4-1.4-2.5-1.4c-1.7 0-2.7 1.4-2.7 3.3c0 1.8 1 3.2 2.7 3.2c1.1 0 2.1-.6 2.5-1.3v-3.8zm3.1-3.9c0-.4.3-.6.6-.6c.4 0 .6.2.6.6c0 .3-.2.6-.6.6c-.3 0-.6-.3-.6-.6zm.2 1.9h.8v7.7h-.8v-7.7zm8.4 2.5c0-1.5-.7-1.9-1.8-1.9c-1 0-2 .6-2.5 1.3c-.04 0 0 5.8 0 5.8h-.9v-7.7h.9s-.04 1.19 0 1.2c.5-.7 1.6-1.4 2.7-1.4c1.6 0 2.4.8 2.4 2.5c.04.03 0 5.4 0 5.4h-.8s.02-5.18 0-5.2zm3.7 6.5c.7.8 1.4 1.1 2.6 1.1c1.4 0 2.6-.7 2.6-2.5v-1.2c-.5.8-1.5 1.5-2.7 1.5c-2 0-3.4-1.6-3.4-4c0-2.5 1.4-4.1 3.4-4.1c1.1 0 2.1.6 2.7 1.5v-1.3h.9s-.05 7.62 0 7.6c0 2.4-1.6 3.2-3.5 3.2c-1.3 0-2.1-.2-3-1.1l.4-.7zm5.2-7c-.4-.8-1.5-1.4-2.5-1.4c-1.7 0-2.7 1.4-2.7 3.3c0 1.8 1 3.2 2.7 3.2c1 0 2.1-.6 2.5-1.4v-3.7zm21.8-3.4v9.1h-.9V68.3h.9l6.7 9v-9h.9v10.6h-.9l-6.7-9.1zm9.6 5.3c0-2.3 1.4-4.1 3.7-4.1c2.2 0 3.7 1.8 3.7 4.1c0 2.2-1.5 4-3.7 4c-2.3 0-3.7-1.8-3.7-4zm6.5 0c0-1.7-1-3.3-2.8-3.3c-1.8 0-2.8 1.6-2.8 3.3c0 1.7 1 3.2 2.8 3.2c1.8 0 2.8-1.5 2.8-3.2zm2.8-3.9h.9s-.04 1.35 0 1.3c.6-.8 1.5-1.4 2.5-1.4v.9c-.1 0-.2-.1-.4-.1c-.7 0-1.8.7-2.1 1.4c-.04.01 0 5.6 0 5.6h-.9v-7.7zm5.1 6.2c-.03.02 0-5.4 0-5.4H103v-.8h1.3v-2.1h.8v2.1h1.6v.8h-1.6v5.3c0 .6.3 1 .8 1c.4 0 .7-.1.9-.3l.3.6c-.3.3-.7.5-1.3.5c-1 0-1.5-.6-1.5-1.7zm9.2-3.7c0-1.5-.7-1.9-1.9-1.9c-.9 0-2 .6-2.5 1.3c.05 0 0 5.8 0 5.8h-.8V68.3h.8s.05 4.09 0 4.1c.6-.7 1.7-1.4 2.8-1.4c1.6 0 2.4.8 2.4 2.5c.02 0 0 5.4 0 5.4h-.8v-5.2zm27.5 2.6h-5.6l-1.1 2.6h-1l4.4-10.6h1.1l4.3 10.6h-1l-1.1-2.6zm-5.3-.8h5.1l-2.6-6.3l-2.5 6.3zm17.9-2c0-1-.4-1.7-1.5-1.7c-.8 0-1.8.6-2.2 1.3v5.8h-.9s.05-5.37 0-5.4c0-1-.4-1.7-1.5-1.7c-.8 0-1.7.6-2.2 1.3v5.8h-.8v-7.7h.8v1.2c.3-.5 1.4-1.4 2.5-1.4c1.2 0 1.8.7 2 1.5c.4-.7 1.5-1.5 2.6-1.5c1.4 0 2 .8 2 2.4c.05-.03 0 5.5 0 5.5h-.8s.02-5.37 0-5.4zm6.5-2.5c2.4 0 3.6 1.9 3.6 4.1c.04 0 0 .2 0 .2c0 0-6.38.03-6.4 0c.1 1.7 1.2 3.1 3 3.1c1 0 1.9-.4 2.5-1.1l.5.6c-.8.7-1.8 1.2-3 1.2c-2.3 0-3.9-1.7-3.9-4c0-2.3 1.6-4.1 3.7-4.1zm-2.8 3.7h5.6c0-1.3-.9-2.9-2.8-2.9c-1.8 0-2.7 1.5-2.8 2.9zm8.4-3.5h.8s.03 1.35 0 1.3c.7-.8 1.6-1.4 2.6-1.4v.9c-.1 0-.2-.1-.4-.1c-.8 0-1.8.7-2.2 1.4c.03.01 0 5.6 0 5.6h-.8v-7.7zm4.7-1.9c0-.4.3-.6.6-.6c.3 0 .6.2.6.6c0 .3-.3.6-.6.6c-.3 0-.6-.3-.6-.6zm.2 1.9h.8v7.7h-.8v-7.7zm6.5-.2c1.3 0 2.1.6 2.7 1.3l-.5.5c-.6-.7-1.3-1-2.1-1c-1.8 0-2.9 1.4-2.9 3.3c0 1.8 1.1 3.2 2.9 3.2c.8 0 1.5-.3 2.1-1l.5.5c-.6.8-1.4 1.3-2.7 1.3c-2.2 0-3.7-1.8-3.7-4c0-2.3 1.5-4.1 3.7-4.1zm9.3 7c-.7.7-1.6 1.1-2.6 1.1c-1.3 0-2.7-.9-2.7-2.6c0-1.6 1.3-2.5 2.7-2.5c1 0 1.9.3 2.6 1.1v-1.6c0-1.1-.9-1.7-2.1-1.7c-.9 0-1.7.3-2.4 1.1l-.4-.6c.8-.8 1.6-1.3 2.9-1.3c1.6 0 2.8.8 2.8 2.5v5.4h-.8s-.01-.9 0-.9zm0-2.3c-.6-.7-1.4-1.1-2.3-1.1c-1.3 0-2.1.9-2.1 1.9c0 1.1.8 1.9 2.1 1.9c.9 0 1.7-.3 2.3-1v-1.7zm8.4-2c0-1.5-.7-1.9-1.9-1.9c-.9 0-2 .6-2.5 1.3c.05 0 0 5.8 0 5.8h-.8v-7.7h.8s.05 1.19 0 1.2c.6-.7 1.7-1.4 2.8-1.4c1.6 0 2.4.8 2.4 2.5c.03.03 0 5.4 0 5.4h-.8v-5.2zm20.9-2.5h.8v1.3c.7-.8 1.5-1.4 2.6-1.4v.9c-.2 0-.3-.1-.4-.1c-.8 0-1.8.7-2.2 1.4v5.6h-.8v-7.7zm4.6-1.9c0-.4.3-.6.7-.6c.3 0 .6.2.6.6c0 .3-.3.6-.6.6c-.4 0-.7-.3-.7-.6zm.3 1.9h.8v7.7h-.8v-7.7zm2 0h.9l2.8 6.7l2.8-6.7h.9l-3.2 7.7h-.9l-3.3-7.7zm11.9-.2c2.4 0 3.6 1.9 3.6 4.1c.05 0 0 .2 0 .2c0 0-6.37.03-6.4 0c.1 1.7 1.2 3.1 3 3.1c1 0 1.9-.4 2.5-1.1l.5.6c-.8.7-1.8 1.2-3 1.2c-2.3 0-3.9-1.7-3.9-4c0-2.3 1.6-4.1 3.7-4.1zm-2.8 3.7h5.6c0-1.3-.9-2.9-2.8-2.9c-1.8 0-2.7 1.5-2.8 2.9zm8.4-3.5h.8s.04 1.35 0 1.3c.7-.8 1.6-1.4 2.6-1.4v.9c-.1 0-.2-.1-.4-.1c-.8 0-1.8.7-2.2 1.4c.04.01 0 5.6 0 5.6h-.8v-7.7zm22.1 3.9c0-2.3 1.4-4.1 3.7-4.1c2.2 0 3.7 1.8 3.7 4.1c0 2.2-1.5 4-3.7 4c-2.3 0-3.7-1.8-3.7-4zm6.5 0c0-1.7-1-3.3-2.8-3.3c-1.8 0-2.8 1.6-2.8 3.3c0 1.7 1 3.2 2.8 3.2c1.8 0 2.8-1.5 2.8-3.2zm3 2.3V72h-1.3v-.8h1.3v-2.1h.8v2.1h1.6v.8h-1.6s.04 5.3 0 5.3c0 .6.3 1 .8 1c.4 0 .7-.1.9-.3l.3.6c-.3.3-.7.5-1.3.5c-1 0-1.5-.6-1.5-1.7zm4.2 0V72h-1.3v-.8h1.3v-2.1h.8v2.1h1.6v.8h-1.6s.05 5.3 0 5.3c0 .6.3 1 .8 1c.4 0 .7-.1.9-.3l.3.6c-.3.3-.7.5-1.3.5c-1 0-1.5-.6-1.5-1.7zm7.3-6.4c2.3 0 3.6 1.9 3.6 4.1c.03 0 0 .2 0 .2c0 0-6.39.03-6.4 0c.1 1.7 1.2 3.1 3 3.1c1 0 1.9-.4 2.5-1.1l.5.6c-.8.7-1.8 1.2-3 1.2c-2.3 0-3.9-1.7-3.9-4c0-2.3 1.6-4.1 3.7-4.1zm-2.8 3.7h5.6c0-1.3-.9-2.9-2.8-2.9c-1.8 0-2.7 1.5-2.8 2.9zm8.4-3.5h.8s.03 1.35 0 1.3c.7-.8 1.6-1.4 2.6-1.4v.9c-.1 0-.2-.1-.4-.1c-.8 0-1.8.7-2.2 1.4c.03.01 0 5.6 0 5.6h-.8v-7.7zm4.7 6.1c.5.6 1.4 1.1 2.5 1.1c1.3 0 2-.6 2-1.5c0-1-1-1.3-2.1-1.6c-1.3-.3-2.7-.6-2.7-2.1c0-1.2 1-2.2 2.7-2.2c1.3 0 2.2.5 2.8 1.2l-.5.6c-.4-.7-1.3-1.1-2.3-1.1c-1.2 0-1.9.6-1.9 1.4c0 .9 1 1.1 2 1.4c1.4.3 2.8.7 2.8 2.3c0 1.3-.9 2.3-2.8 2.3c-1.3 0-2.2-.4-3-1.2l.5-.6zm6.9 3.2c.6-.4.9-1 1-1.5h-.2c-.4 0-.6-.3-.6-.7c0-.3.3-.6.6-.6c.5 0 .8.3.8 1c0 .9-.5 1.7-1.1 2.1l-.5-.3z" stroke="none" fill="#000"/></g><g id="Polygon100484"><path d="m10.4 54.5c0-1.1-.4-1.8-1.5-1.8c-.8 0-1.8.6-2.2 1.3v5.8h-.9s.05-5.33 0-5.3c0-1.1-.4-1.8-1.5-1.8c-.8 0-1.7.6-2.2 1.3v5.8h-.8v-7.6h.8s.01 1.13 0 1.1c.3-.5 1.4-1.3 2.5-1.3c1.2 0 1.8.7 2 1.4C7 52.7 8.1 52 9.1 52c1.5 0 2.1.8 2.1 2.3c.04.01 0 5.5 0 5.5h-.8s.02-5.33 0-5.3zm2.8 1.5c0-2.2 1.5-4 3.7-4c2.3 0 3.7 1.8 3.7 4c0 2.2-1.4 4-3.7 4c-2.2 0-3.7-1.8-3.7-4zm6.5 0c0-1.7-1-3.3-2.8-3.3c-1.8 0-2.8 1.6-2.8 3.3c0 1.7 1 3.3 2.8 3.3c1.8 0 2.8-1.6 2.8-3.3zm2.9-3.8h.8v1.3c.6-.9 1.5-1.5 2.6-1.5v.9h-.4c-.8 0-1.9.7-2.2 1.3v5.6h-.8v-7.6zm8.1-.2c2.3 0 3.6 1.8 3.6 4c.02.04 0 .3 0 .3c0 0-6.4-.03-6.4 0c.1 1.6 1.2 3 3 3c1 0 1.8-.3 2.5-1l.4.5c-.7.8-1.7 1.2-3 1.2c-2.2 0-3.8-1.6-3.8-4c0-2.2 1.6-4 3.7-4zm-2.8 3.6h5.6c0-1.3-.9-2.9-2.8-2.9c-1.8 0-2.7 1.6-2.8 2.9zm15 2.8c-.02-.04 0-5.5 0-5.5h-1.3v-.7h1.3v-2.1h.8v2.1h1.6v.7h-1.6s.02 5.34 0 5.3c0 .7.3 1.1.8 1.1c.4 0 .7-.2.9-.4l.3.7c-.3.2-.7.4-1.3.4c-1 0-1.5-.6-1.5-1.6zm9.2-3.8c0-1.5-.7-1.9-1.8-1.9c-1 0-2.1.7-2.5 1.3c-.04.04 0 5.8 0 5.8h-.9V49.2h.9s-.04 4.13 0 4.1c.5-.6 1.6-1.3 2.7-1.3c1.6 0 2.4.7 2.4 2.4c.03.04 0 5.4 0 5.4h-.8v-5.2zm8.1 4.3c-.7.8-1.5 1.1-2.6 1.1c-1.3 0-2.7-.9-2.7-2.5c0-1.7 1.4-2.5 2.7-2.5c1.1 0 1.9.3 2.6 1v-1.5c0-1.2-.9-1.8-2-1.8c-1 0-1.7.3-2.4 1.1l-.5-.5c.8-.9 1.7-1.3 2.9-1.3c1.6 0 2.8.7 2.8 2.4c.05.04 0 5.4 0 5.4h-.8s.03-.86 0-.9zm0-2.3c-.5-.7-1.4-1-2.3-1c-1.3 0-2.1.8-2.1 1.9c0 1.1.8 1.9 2.1 1.9c.9 0 1.8-.4 2.3-1.1v-1.7zm8.4-1.9c0-1.5-.7-2-1.8-2c-1 0-2 .7-2.5 1.3v5.8h-.8v-7.6h.8s-.01 1.13 0 1.1c.5-.6 1.6-1.3 2.8-1.3c1.5 0 2.4.7 2.4 2.5c-.03-.03 0 5.3 0 5.3h-.9s.04-5.14 0-5.1zm9.9 3.7c-.03-.04 0-5.5 0-5.5h-1.3v-.7h1.3v-2.1h.8v2.1h1.6v.7h-1.6v5.3c0 .7.3 1.1.8 1.1c.4 0 .7-.2.9-.4l.3.7c-.3.2-.7.4-1.3.4c-1 0-1.5-.6-1.5-1.6zm7.3-6.4c2.3 0 3.6 1.8 3.6 4v.3s-6.42-.03-6.4 0c.1 1.6 1.2 3 3 3c1 0 1.8-.3 2.5-1l.4.5c-.7.8-1.7 1.2-3 1.2c-2.2 0-3.8-1.6-3.8-4c0-2.2 1.6-4 3.7-4zM83 55.6h5.6c-.1-1.3-.9-2.9-2.8-2.9c-1.8 0-2.8 1.6-2.8 2.9zm13.5-.9c0-1.5-.7-2-1.8-2c-1 0-2 .7-2.5 1.3v5.8h-.8v-7.6h.8s-.01 1.13 0 1.1c.6-.6 1.6-1.3 2.8-1.3c1.5 0 2.4.7 2.4 2.5c-.03-.03 0 5.3 0 5.3h-.9s.05-5.14 0-5.1zm9.9 3.7c-.02-.04 0-5.5 0-5.5h-1.3v-.7h1.3v-2.1h.8v2.1h1.6v.7h-1.6s.02 5.34 0 5.3c0 .7.3 1.1.8 1.1c.4 0 .7-.2.9-.4l.3.7c-.3.2-.7.4-1.3.4c-1 0-1.5-.6-1.5-1.6zm9.2-3.8c0-1.5-.7-1.9-1.9-1.9c-.9 0-2 .7-2.4 1.3c-.05.04 0 5.8 0 5.8h-.9V49.2h.9s-.05 4.13 0 4.1c.5-.6 1.6-1.3 2.7-1.3c1.6 0 2.4.7 2.4 2.4c.03.04 0 5.4 0 5.4h-.8v-5.2zm2.8 1.4c0-2.2 1.4-4 3.7-4c2.3 0 3.7 1.8 3.7 4c0 2.2-1.4 4-3.7 4c-2.3 0-3.7-1.8-3.7-4zm6.5 0c0-1.7-1-3.3-2.8-3.3c-1.8 0-2.8 1.6-2.8 3.3c0 1.7 1 3.3 2.8 3.3c1.8 0 2.8-1.6 2.8-3.3zm8 2.7c-.6.7-1.6 1.3-2.7 1.3c-1.6 0-2.4-.7-2.4-2.4c-.04-.03 0-5.4 0-5.4h.8s-.02 5.18 0 5.2c0 1.5.7 1.9 1.8 1.9c1 0 2-.6 2.5-1.3c.03.02 0-5.8 0-5.8h.9v7.6h-.9s.03-1.09 0-1.1zm3.1-.5c.5.6 1.4 1.1 2.5 1.1c1.3 0 2-.6 2-1.5c0-1-1-1.3-2.1-1.5c-1.3-.4-2.7-.7-2.7-2.2c0-1.2 1-2.1 2.7-2.1c1.3 0 2.2.5 2.8 1.1l-.5.6c-.4-.6-1.3-1-2.3-1c-1.2 0-1.9.6-1.9 1.4c0 .8 1 1.1 2 1.3c1.4.4 2.8.7 2.8 2.4c0 1.2-.9 2.2-2.8 2.2c-1.3 0-2.2-.3-3-1.2l.5-.6zm12.2.7c-.7.8-1.6 1.1-2.6 1.1c-1.3 0-2.7-.9-2.7-2.5c0-1.7 1.3-2.5 2.7-2.5c1 0 1.9.3 2.6 1v-1.5c0-1.2-.9-1.8-2.1-1.8c-.9 0-1.7.3-2.4 1.1l-.4-.5c.8-.9 1.6-1.3 2.9-1.3c1.6 0 2.8.7 2.8 2.4v5.4h-.8s-.02-.86 0-.9zm0-2.3c-.6-.7-1.4-1-2.3-1c-1.3 0-2.1.8-2.1 1.9c0 1.1.8 1.9 2.1 1.9c.9 0 1.7-.4 2.3-1.1v-1.7zm8.4-1.9c0-1.5-.7-2-1.9-2c-.9 0-2 .7-2.5 1.3c.05.04 0 5.8 0 5.8h-.8v-7.6h.8s.05 1.13 0 1.1c.6-.6 1.7-1.3 2.8-1.3c1.6 0 2.4.7 2.4 2.5c.02-.03 0 5.3 0 5.3h-.8v-5.1zm8.9 3.9c-.5.8-1.5 1.4-2.7 1.4c-2 0-3.4-1.5-3.4-4c0-2.4 1.4-4 3.4-4c1.1 0 2.1.5 2.7 1.4v-4.2h.8v10.6h-.8v-1.2zm0-4.5c-.5-.7-1.5-1.4-2.5-1.4c-1.7 0-2.7 1.5-2.7 3.3c0 1.9 1 3.3 2.7 3.3c1 0 2-.6 2.5-1.4v-3.8zm9.7 8.7V52.2h.8v1.2c.5-.8 1.5-1.4 2.7-1.4c2 0 3.4 1.5 3.4 4c0 2.4-1.4 4-3.4 4c-1.1 0-2.1-.5-2.7-1.4v4.2h-.8zm3.3-10.1c-1 0-2 .7-2.5 1.4v3.8c.5.7 1.5 1.4 2.5 1.4c1.7 0 2.7-1.4 2.7-3.3c0-1.9-1-3.3-2.7-3.3zm5.6-3.5h.8v10.6h-.8V49.2zm8.1 9.7c-.7.8-1.6 1.1-2.6 1.1c-1.3 0-2.7-.9-2.7-2.5c0-1.7 1.4-2.5 2.7-2.5c1 0 1.9.3 2.6 1v-1.5c0-1.2-.9-1.8-2.1-1.8c-.9 0-1.7.3-2.4 1.1l-.4-.5c.8-.9 1.6-1.3 2.9-1.3c1.6 0 2.8.7 2.8 2.4v5.4h-.8s-.01-.86 0-.9zm0-2.3c-.5-.7-1.4-1-2.3-1c-1.3 0-2.1.8-2.1 1.9c0 1.1.8 1.9 2.1 1.9c.9 0 1.8-.4 2.3-1.1v-1.7zm8.4-1.9c0-1.5-.7-2-1.9-2c-.9 0-2 .7-2.4 1.3c-.05.04 0 5.8 0 5.8h-.9v-7.6h.9s-.05 1.13 0 1.1c.5-.6 1.6-1.3 2.7-1.3c1.6 0 2.4.7 2.4 2.5c.03-.03 0 5.3 0 5.3h-.8v-5.1zm3.4 3.7v-5.5h-1.3v-.7h1.3v-2.1h.8v2.1h1.6v.7h-1.6s.05 5.34 0 5.3c0 .7.3 1.1.8 1.1c.4 0 .7-.2.9-.4l.3.7c-.3.2-.7.4-1.3.4c-1 0-1.5-.6-1.5-1.6zm3.9-.2c.5.6 1.4 1.1 2.5 1.1c1.2 0 2-.6 2-1.5c0-1-1-1.3-2.2-1.5c-1.2-.4-2.6-.7-2.6-2.2c0-1.2.9-2.1 2.7-2.1c1.3 0 2.2.5 2.7 1.1l-.4.6c-.5-.6-1.3-1-2.3-1c-1.2 0-1.9.6-1.9 1.4c0 .8 1 1.1 2 1.3c1.3.4 2.8.7 2.8 2.4c0 1.2-.9 2.2-2.9 2.2c-1.2 0-2.1-.3-2.9-1.2l.5-.6zm18.6.7c-.7.8-1.5 1.1-2.6 1.1c-1.3 0-2.7-.9-2.7-2.5c0-1.7 1.4-2.5 2.7-2.5c1.1 0 1.9.3 2.6 1v-1.5c0-1.2-.9-1.8-2.1-1.8c-.9 0-1.7.3-2.4 1.1l-.4-.5c.8-.9 1.7-1.3 2.9-1.3c1.6 0 2.8.7 2.8 2.4c.02.04 0 5.4 0 5.4h-.8v-.9zm0-2.3c-.5-.7-1.4-1-2.3-1c-1.3 0-2.1.8-2.1 1.9c0 1.1.8 1.9 2.1 1.9c.9 0 1.8-.4 2.3-1.1v-1.7zm8.4-1.9c0-1.5-.7-2-1.8-2c-1 0-2 .7-2.5 1.3c-.04.04 0 5.8 0 5.8h-.9v-7.6h.9s-.04 1.13 0 1.1c.5-.6 1.6-1.3 2.7-1.3c1.6 0 2.4.7 2.4 2.5c.04-.03 0 5.3 0 5.3h-.8v-5.1zm8.9 3.9c-.5.8-1.5 1.4-2.7 1.4c-2 0-3.4-1.5-3.4-4c0-2.4 1.4-4 3.4-4c1.1 0 2.1.5 2.7 1.4v-4.2h.8v10.6h-.8v-1.2zm0-4.5c-.4-.7-1.4-1.4-2.5-1.4c-1.7 0-2.7 1.5-2.7 3.3c0 1.9 1 3.3 2.7 3.3c1.1 0 2.1-.6 2.5-1.4v-3.8zm14.6 4.8c-.7.8-1.6 1.1-2.6 1.1c-1.4 0-2.7-.9-2.7-2.5c0-1.7 1.3-2.5 2.7-2.5c1 0 1.9.3 2.6 1v-1.5c0-1.2-.9-1.8-2.1-1.8c-.9 0-1.7.3-2.4 1.1l-.5-.5c.8-.9 1.7-1.3 3-1.3c1.6 0 2.8.7 2.8 2.4v5.4h-.8s-.03-.86 0-.9zm0-2.3c-.6-.7-1.4-1-2.3-1c-1.3 0-2.1.8-2.1 1.9c0 1.1.8 1.9 2.1 1.9c.9 0 1.7-.4 2.3-1.1v-1.7zm8.4-1.9c0-1.5-.8-2-1.9-2c-1 0-2 .7-2.5 1.3c.04.04 0 5.8 0 5.8h-.8v-7.6h.8s.04 1.13 0 1.1c.6-.6 1.7-1.3 2.8-1.3c1.6 0 2.4.7 2.4 2.5v5.3h-.8v-5.1zm3-4.5c0-.3.3-.6.6-.6c.4 0 .7.3.7.6c0 .4-.3.7-.7.7c-.3 0-.6-.3-.6-.7zm.2 2h.9v7.6h-.9v-7.6zm12.4 2.3c0-1.1-.5-1.8-1.5-1.8c-.9 0-1.8.6-2.2 1.3c-.03.03 0 5.8 0 5.8h-.9s.03-5.33 0-5.3c0-1.1-.4-1.8-1.5-1.8c-.8 0-1.7.6-2.2 1.3v5.8h-.8v-7.6h.8s-.01 1.13 0 1.1c.3-.5 1.4-1.3 2.5-1.3c1.2 0 1.8.7 2 1.4c.4-.7 1.5-1.4 2.5-1.4c1.4 0 2.1.8 2.1 2.3c.03.01 0 5.5 0 5.5h-.8v-5.3zm8.1 4.4c-.7.8-1.5 1.1-2.6 1.1c-1.3 0-2.7-.9-2.7-2.5c0-1.7 1.4-2.5 2.7-2.5c1.1 0 1.9.3 2.6 1v-1.5c0-1.2-.9-1.8-2-1.8c-1 0-1.7.3-2.4 1.1l-.5-.5c.8-.9 1.7-1.3 2.9-1.3c1.6 0 2.8.7 2.8 2.4c.04.04 0 5.4 0 5.4h-.8s.02-.86 0-.9zm0-2.3c-.5-.7-1.4-1-2.3-1c-1.3 0-2.1.8-2.1 1.9c0 1.1.8 1.9 2.1 1.9c.9 0 1.8-.4 2.3-1.1v-1.7zm3.3-7.4h.8v10.6h-.8V49.2zm3 9c.5.6 1.4 1.1 2.5 1.1c1.3 0 2-.6 2-1.5c0-1-1-1.3-2.1-1.5c-1.3-.4-2.7-.7-2.7-2.2c0-1.2 1-2.1 2.7-2.1c1.4 0 2.2.5 2.8 1.1l-.5.6c-.4-.6-1.2-1-2.3-1c-1.2 0-1.9.6-1.9 1.4c0 .8 1 1.1 2.1 1.3c1.3.4 2.8.7 2.8 2.4c0 1.2-1 2.2-2.9 2.2c-1.3 0-2.2-.3-3-1.2l.5-.6z" stroke="none" fill="#000"/></g><g id="Polygon100483"><path d="m4 31H.6v-.8h7.8v.8H4.9v9.8h-.9V31zm11.3 4.6c0-1.5-.8-1.9-1.9-1.9c-1 0-2 .6-2.5 1.3v5.8h-.8V30.2h.8v4.1c.6-.7 1.7-1.4 2.8-1.4c1.5 0 2.4.8 2.4 2.5v5.4h-.8s-.04-5.24 0-5.2zm6.5-2.7c2.3 0 3.6 1.9 3.6 4.1c-.02-.01 0 .2 0 .2H19c0 1.7 1.2 3.1 2.9 3.1c1 0 1.9-.4 2.6-1.1l.4.5c-.8.8-1.7 1.3-3 1.3c-2.2 0-3.8-1.7-3.8-4.1c0-2.2 1.5-4 3.7-4zM19 36.6h5.5c0-1.3-.8-3-2.8-3c-1.8 0-2.7 1.6-2.7 3zm17.7 2c.7.8 1.8 1.5 3.3 1.5c2.2 0 2.8-1.2 2.8-2.1c0-1.5-1.4-1.9-2.9-2.3c-1.7-.4-3.5-.9-3.5-2.9c0-1.7 1.6-2.8 3.5-2.8c1.6 0 2.8.6 3.6 1.5l-.6.7c-.8-.9-1.8-1.4-3-1.4c-1.4 0-2.5.8-2.5 2c0 1.2 1.3 1.6 2.8 2c1.7.5 3.5 1 3.5 3.2c0 1.3-.9 3-3.7 3c-1.8 0-3.1-.7-3.9-1.7l.6-.7zm8.6-1.7c0-2.2 1.4-4 3.7-4c2.2 0 3.7 1.8 3.7 4c0 2.3-1.5 4.1-3.7 4.1c-2.3 0-3.7-1.8-3.7-4.1zm6.5 0c0-1.7-1-3.2-2.8-3.2c-1.8 0-2.8 1.5-2.8 3.2c0 1.8 1 3.3 2.8 3.3c1.8 0 2.8-1.5 2.8-3.3zm8 2.8c-.6.7-1.6 1.3-2.8 1.3c-1.5 0-2.4-.8-2.4-2.5c.04.01 0-5.4 0-5.4h.9s-.04 5.22 0 5.2c0 1.5.7 1.9 1.8 1.9c1 0 2-.6 2.5-1.2v-5.9h.8v7.7h-.8s.01-1.14 0-1.1zm3.4-.4v-5.4h-1.3v-.8h1.3V31h.9v2.1h1.5v.8h-1.5s-.05 5.28 0 5.3c0 .6.2 1 .7 1c.4 0 .7-.1.9-.3l.3.6c-.3.3-.6.5-1.3.5c-1 0-1.5-.6-1.5-1.7zm9.2-3.7c0-1.5-.7-1.9-1.8-1.9c-1 0-2 .6-2.5 1.3v5.8h-.8V30.2h.8v4.1c.5-.7 1.6-1.4 2.8-1.4c1.5 0 2.4.8 2.4 2.5c-.04-.02 0 5.4 0 5.4h-.9s.04-5.24 0-5.2zm12.2-.1c0-3.3 2.4-5.5 5.4-5.5c1.7 0 2.9.8 3.8 1.9l-.7.5c-.7-.9-1.8-1.6-3.1-1.6c-2.5 0-4.4 1.9-4.4 4.7c0 2.7 1.9 4.6 4.4 4.6c1.3 0 2.4-.6 3.1-1.5l.7.5c-.9 1.1-2.1 1.9-3.8 1.9c-3 0-5.4-2.2-5.4-5.5zm15.8 4.4c-.7.7-1.6 1.1-2.6 1.1c-1.3 0-2.7-.9-2.7-2.6c0-1.7 1.3-2.5 2.7-2.5c1 0 1.9.3 2.6 1.1v-1.6c0-1.1-.9-1.7-2.1-1.7c-.9 0-1.7.3-2.4 1.1l-.4-.6c.7-.9 1.6-1.3 2.9-1.3c1.6 0 2.8.8 2.8 2.5v5.4h-.8s-.02-.92 0-.9zm0-2.3c-.6-.7-1.4-1.1-2.3-1.1c-1.3 0-2.1.9-2.1 1.9c0 1.1.8 1.9 2.1 1.9c.9 0 1.7-.3 2.3-1v-1.7zm3.2-4.5h.8s.04 1.33 0 1.3c.7-.8 1.6-1.4 2.6-1.4v.9c-.1-.1-.2-.1-.4-.1c-.8 0-1.8.7-2.2 1.4c.04-.01 0 5.6 0 5.6h-.8v-7.7zm4.4 3.8c0-2.2 1.5-4 3.7-4c2.3 0 3.7 1.8 3.7 4c0 2.3-1.4 4.1-3.7 4.1c-2.2 0-3.7-1.8-3.7-4.1zm6.5 0c0-1.7-1-3.2-2.8-3.2c-1.7 0-2.8 1.5-2.8 3.2c0 1.8 1.1 3.3 2.8 3.3c1.8 0 2.8-1.5 2.8-3.3zm2.9-6.7h.8v10.6h-.8V30.2zm3 1c0-.4.3-.7.7-.7c.3 0 .6.3.6.7c0 .3-.3.6-.6.6c-.4 0-.7-.3-.7-.6zm.2 1.9h.9v7.7h-.9v-7.7zm8.5 2.5c0-1.5-.8-1.9-1.9-1.9c-1 0-2 .6-2.5 1.3v5.8h-.8v-7.7h.8v1.2c.6-.7 1.7-1.4 2.8-1.4c1.5 0 2.4.8 2.4 2.5c-.02.01 0 5.4 0 5.4h-.8s-.04-5.2 0-5.2zm8.1 4.3c-.7.7-1.6 1.1-2.6 1.1c-1.3 0-2.7-.9-2.7-2.6c0-1.7 1.3-2.5 2.7-2.5c1 0 1.9.3 2.6 1.1v-1.6c0-1.1-.9-1.7-2.1-1.7c-.9 0-1.7.3-2.4 1.1l-.4-.6c.7-.9 1.6-1.3 2.9-1.3c1.6 0 2.8.8 2.8 2.5v5.4h-.8s-.02-.92 0-.9zm0-2.3c-.6-.7-1.4-1.1-2.3-1.1c-1.3 0-2.1.9-2.1 1.9c0 1.1.8 1.9 2.1 1.9c.9 0 1.7-.3 2.3-1v-1.7zm19.2.6h-5.6l-1.1 2.6h-1l4.3-10.6h1.1l4.4 10.6h-1l-1.1-2.6zm-5.4-.8h5.1l-2.5-6.3l-2.6 6.3zm14.5 6.3v-4.2c-.6.9-1.6 1.5-2.7 1.5c-2 0-3.4-1.6-3.4-4.1c0-2.4 1.4-4 3.4-4c1.2 0 2.2.6 2.7 1.4v-1.2h.8v10.6h-.8zm0-8.7c-.5-.7-1.5-1.3-2.5-1.3c-1.7 0-2.7 1.4-2.7 3.2c0 1.9 1 3.3 2.7 3.3c1 0 2-.6 2.5-1.4V35zm8.4 4.7c-.6.7-1.6 1.3-2.8 1.3c-1.5 0-2.4-.8-2.4-2.5c.03.01 0-5.4 0-5.4h.9s-.04 5.22 0 5.2c0 1.5.7 1.9 1.8 1.9c1 0 2-.6 2.5-1.2v-5.9h.8v7.7h-.8s.01-1.14 0-1.1zm8.1.2c-.7.7-1.5 1.1-2.6 1.1c-1.3 0-2.7-.9-2.7-2.6c0-1.7 1.4-2.5 2.7-2.5c1.1 0 1.9.3 2.6 1.1v-1.6c0-1.1-.9-1.7-2-1.7c-1 0-1.7.3-2.4 1.1l-.5-.6c.8-.9 1.7-1.3 2.9-1.3c1.6 0 2.9.8 2.9 2.5c-.05-.02 0 5.4 0 5.4h-.9s.03-.92 0-.9zm0-2.3c-.5-.7-1.4-1.1-2.3-1.1c-1.3 0-2.1.9-2.1 1.9c0 1.1.8 1.9 2.1 1.9c.9 0 1.8-.3 2.3-1v-1.7zm3.3-4.5h.8v1.3c.6-.8 1.5-1.4 2.6-1.4v.9c-.2-.1-.3-.1-.4-.1c-.8 0-1.9.7-2.2 1.4v5.6h-.8v-7.7zm4.6-1.9c0-.4.3-.7.7-.7c.3 0 .6.3.6.7c0 .3-.3.6-.6.6c-.4 0-.7-.3-.7-.6zm.2 1.9h.9v7.7h-.9v-7.7zm8.5 6.6c-.7.7-1.7 1.3-2.8 1.3c-1.6 0-2.4-.8-2.4-2.5c-.02.01 0-5.4 0-5.4h.8v5.2c0 1.5.8 1.9 1.9 1.9c1 0 2-.6 2.5-1.2c-.04-.04 0-5.9 0-5.9h.8v7.7h-.8s-.04-1.14 0-1.1zm12.3-4.3c0-1.1-.4-1.7-1.5-1.7c-.8 0-1.8.6-2.2 1.3v5.8h-.8s-.04-5.39 0-5.4c0-1.1-.5-1.7-1.6-1.7c-.8 0-1.7.6-2.2 1.3c.02-.02 0 5.8 0 5.8h-.8v-7.7h.8s.02 1.17 0 1.2c.3-.5 1.4-1.4 2.5-1.4c1.2 0 1.8.7 2 1.5c.4-.7 1.5-1.5 2.6-1.5c1.4 0 2.1.8 2.1 2.4c-.04-.05 0 5.5 0 5.5h-.9s.03-5.39 0-5.4zm12.4-4.2c0-.4.3-.7.6-.7c.3 0 .6.3.6.7c0 .3-.3.6-.6.6c-.3 0-.6-.3-.6-.6zm.2 1.9h.8v7.7h-.8v-7.7zm3 6c.5.7 1.4 1.2 2.5 1.2c1.3 0 2.1-.7 2.1-1.6c0-.9-1.1-1.2-2.2-1.5c-1.3-.3-2.7-.7-2.7-2.2c0-1.1 1-2.1 2.8-2.1c1.3 0 2.1.5 2.7 1.2l-.5.5c-.4-.6-1.2-1-2.2-1c-1.2 0-2 .6-2 1.4c0 .9 1 1.1 2.1 1.4c1.3.3 2.8.7 2.8 2.3c0 1.3-1 2.3-2.9 2.3c-1.2 0-2.2-.4-2.9-1.2l.4-.7zm21.8-3.5c0-1.5-.7-1.9-1.8-1.9c-1 0-2 .6-2.5 1.3c-.02-.02 0 5.8 0 5.8h-.8V30.2h.8s-.02 4.07 0 4.1c.5-.7 1.6-1.4 2.7-1.4c1.6 0 2.5.8 2.5 2.5c-.04-.02 0 5.4 0 5.4h-.9s.03-5.24 0-5.2zm2.8 1.3c0-2.2 1.5-4 3.7-4c2.3 0 3.7 1.8 3.7 4c0 2.3-1.4 4.1-3.7 4.1c-2.2 0-3.7-1.8-3.7-4.1zm6.5 0c0-1.7-1-3.2-2.8-3.2c-1.8 0-2.8 1.5-2.8 3.2c0 1.8 1 3.3 2.8 3.3c1.8 0 2.8-1.5 2.8-3.3zm12-1.5c0-1.1-.4-1.7-1.5-1.7c-.9 0-1.8.6-2.2 1.3c-.02-.03 0 5.8 0 5.8h-.9s.04-5.39 0-5.4c0-1.1-.4-1.7-1.5-1.7c-.8 0-1.7.6-2.2 1.3v5.8h-.8v-7.7h.8v1.2c.3-.5 1.4-1.4 2.5-1.4c1.2 0 1.8.7 2 1.5c.4-.7 1.5-1.5 2.5-1.5c1.5 0 2.1.8 2.1 2.4c.04-.05 0 5.5 0 5.5h-.8s.02-5.39 0-5.4zm6.5-2.5c2.3 0 3.6 1.9 3.6 4.1c.03-.01 0 .2 0 .2h-6.4c.1 1.7 1.2 3.1 3 3.1c1 0 1.9-.4 2.5-1.1l.5.5c-.8.8-1.8 1.3-3 1.3c-2.3 0-3.9-1.7-3.9-4.1c0-2.2 1.6-4 3.7-4zm-2.8 3.7h5.6c0-1.3-.9-3-2.8-3c-1.8 0-2.7 1.6-2.8 3zm17.9 2.7c-.03.01 0-5.4 0-5.4h-1.3v-.8h1.3V31h.8v2.1h1.6v.8H292v5.3c0 .6.3 1 .8 1c.4 0 .7-.1.9-.3l.3.6c-.3.3-.7.5-1.3.5c-1 0-1.5-.6-1.5-1.7zm3.6-2.4c0-2.2 1.4-4 3.7-4c2.2 0 3.7 1.8 3.7 4c0 2.3-1.5 4.1-3.7 4.1c-2.3 0-3.7-1.8-3.7-4.1zm6.5 0c0-1.7-1-3.2-2.8-3.2c-1.8 0-2.8 1.5-2.8 3.2c0 1.8 1 3.3 2.8 3.3c1.8 0 2.8-1.5 2.8-3.3z" stroke="none" fill="#000"/></g><g id="Polygon100482"><path d="m1.4 9.8c.7.8 1.9 1.5 3.4 1.5c1.7 0 2.3-.8 2.3-1.6c0-1.1-1.2-1.4-2.6-1.8C2.8 7.5.9 7 .9 4.8c0-1.7 1.5-3 3.7-3c1.6 0 2.9.5 3.9 1.5l-1 1.1c-.8-.8-1.9-1.2-3-1.2c-1.2 0-2 .6-2 1.5c0 1 1.1 1.3 2.5 1.6c1.7.4 3.7 1 3.7 3.2c0 1.7-1.1 3.2-4 3.2c-1.9 0-3.3-.6-4.2-1.6l.9-1.3zm8.5-1.1c0-2.2 1.5-4 3.9-4c2.4 0 3.8 1.8 3.8 4c0 2.2-1.4 4-3.8 4c-2.4 0-3.9-1.8-3.9-4zm6.2 0c0-1.4-.8-2.7-2.3-2.7c-1.6 0-2.4 1.3-2.4 2.7c0 1.5.8 2.8 2.4 2.8c1.5 0 2.3-1.3 2.3-2.8zm8.4 2.8c-.6.6-1.6 1.2-2.8 1.2c-1.6 0-2.4-.8-2.4-2.4c-.02-.01 0-5.4 0-5.4h1.4v4.9c0 1.3.6 1.7 1.6 1.7c.9 0 1.7-.5 2.2-1.1c-.04-.01 0-5.5 0-5.5h1.4v7.6h-1.4s-.04-1 0-1zm3.8-.7V6.1H27V4.9h1.3V2.8h1.4v2.1h1.6v1.2h-1.6s.01 4.43 0 4.4c0 .6.3 1 .8 1c.3 0 .6-.2.7-.3l.4 1c-.3.3-.7.5-1.5.5c-1.2 0-1.8-.6-1.8-1.9zm9.6-3.2c0-1.3-.7-1.6-1.7-1.6c-.8 0-1.7.5-2.1 1.1c.03-.03 0 5.4 0 5.4h-1.4V2h1.4s.03 3.95 0 4c.5-.7 1.6-1.3 2.7-1.3c1.7 0 2.5.8 2.5 2.4v5.4h-1.4s-.02-4.89 0-4.9zm7.1-.3c0-3.3 2.4-5.5 5.4-5.5c2.1 0 3.4 1 4.2 2.2l-1.3.7c-.6-.9-1.7-1.5-2.9-1.5c-2.2 0-3.8 1.7-3.8 4.1c0 2.3 1.6 4 3.8 4c1.2 0 2.3-.6 2.9-1.5l1.3.7c-.8 1.2-2.1 2.2-4.2 2.2c-3 0-5.4-2.2-5.4-5.4zm15.7 4.4c-.6.7-1.4 1-2.5 1c-1.2 0-2.6-.8-2.6-2.5c0-1.8 1.3-2.5 2.6-2.5c1.1 0 1.9.3 2.5 1V7.4c0-.9-.7-1.5-1.8-1.5c-.9 0-1.7.3-2.3 1l-.7-1c.9-.8 1.9-1.2 3.2-1.2c1.7 0 3.1.7 3.1 2.7c-.04-.03 0 5.1 0 5.1h-1.5s.03-.79 0-.8zm0-2.1c-.4-.6-1.1-.9-1.9-.9c-1.1 0-1.8.6-1.8 1.5c0 .9.7 1.5 1.8 1.5c.8 0 1.5-.3 1.9-.8V9.6zm3.6-4.7h1.4s.02 1.15 0 1.2c.6-.8 1.5-1.4 2.5-1.4v1.4h-.5c-.7 0-1.6.5-2 1.1c.02.01 0 5.3 0 5.3h-1.4V4.9zM69 8.7c0-2.2 1.5-4 3.9-4c2.4 0 3.9 1.8 3.9 4c0 2.2-1.5 4-3.9 4c-2.4 0-3.9-1.8-3.9-4zm6.3 0c0-1.4-.9-2.7-2.4-2.7c-1.5 0-2.4 1.3-2.4 2.7c0 1.5.9 2.8 2.4 2.8c1.5 0 2.4-1.3 2.4-2.8zM78.4 2h1.5v10.5h-1.5V2zm3.3.7c0-.5.5-.9 1-.9c.5 0 .9.4.9.9c0 .5-.4.9-.9.9c-.5 0-1-.4-1-.9zm.3 2.2h1.4v7.6H82V4.9zm8.7 2.7c0-1.2-.7-1.6-1.6-1.6c-.9 0-1.7.5-2.2 1.1c.04-.03 0 5.4 0 5.4h-1.4V4.9h1.4s.04 1.05 0 1.1c.5-.7 1.6-1.3 2.8-1.3c1.6 0 2.4.8 2.4 2.5c.02-.04 0 5.3 0 5.3h-1.4V7.6zm8.3 4.1c-.6.7-1.5 1-2.5 1c-1.3 0-2.7-.8-2.7-2.5c0-1.8 1.4-2.5 2.7-2.5c1 0 1.9.3 2.5 1V7.4c0-.9-.8-1.5-1.9-1.5c-.9 0-1.6.3-2.3 1l-.6-1c.8-.8 1.9-1.2 3.1-1.2c1.7 0 3.1.7 3.1 2.7v5.1H99s-.04-.79 0-.8zm0-2.1c-.5-.6-1.2-.9-2-.9c-1 0-1.8.6-1.8 1.5c0 .9.8 1.5 1.8 1.5c.8 0 1.5-.3 2-.8V9.6zm14.2.8H108l-.9 2.1h-1.7L109.6 2h2l4.2 10.5H114l-.8-2.1zm-4.7-1.5h4.2l-2.1-5.6l-2.1 5.6zm13.8 6.6s.04-4.06 0-4.1c-.6.9-1.5 1.3-2.5 1.3c-2 0-3.4-1.5-3.4-4c0-2.5 1.4-4 3.4-4c1 0 2 .5 2.5 1.3c.04-.03 0-1.1 0-1.1h1.5v10.6h-1.5zm0-8.4c-.4-.6-1.2-1.1-2.1-1.1c-1.4 0-2.3 1.1-2.3 2.7c0 1.6.9 2.8 2.3 2.8c.9 0 1.7-.6 2.1-1.2V7.1zm8.8 4.4c-.6.6-1.6 1.2-2.8 1.2c-1.6 0-2.4-.8-2.4-2.4c-.02-.01 0-5.4 0-5.4h1.4v4.9c0 1.3.6 1.7 1.6 1.7c.9 0 1.7-.5 2.2-1.1c-.04-.01 0-5.5 0-5.5h1.4v7.6h-1.4s-.04-1 0-1zm8.2.2c-.6.7-1.4 1-2.5 1c-1.2 0-2.6-.8-2.6-2.5c0-1.8 1.3-2.5 2.6-2.5c1.1 0 1.9.3 2.5 1V7.4c0-.9-.7-1.5-1.8-1.5c-.9 0-1.7.3-2.3 1l-.7-1c.9-.8 1.9-1.2 3.2-1.2c1.7 0 3.1.7 3.1 2.7c-.04-.03 0 5.1 0 5.1h-1.5s.03-.79 0-.8zm0-2.1c-.4-.6-1.1-.9-1.9-.9c-1.1 0-1.8.6-1.8 1.5c0 .9.7 1.5 1.8 1.5c.8 0 1.5-.3 1.9-.8V9.6zm3.6-4.7h1.4s.02 1.15 0 1.2c.6-.8 1.5-1.4 2.5-1.4v1.4h-.5c-.7 0-1.6.5-2 1.1c.02.01 0 5.3 0 5.3h-1.4V4.9zm5-2.2c0-.5.4-.9.9-.9c.5 0 .9.4.9.9c0 .5-.4.9-.9.9c-.5 0-.9-.4-.9-.9zm.2 2.2h1.4v7.6h-1.4V4.9zm8.7 6.6c-.6.6-1.5 1.2-2.7 1.2c-1.6 0-2.5-.8-2.5-2.4c.04-.01 0-5.4 0-5.4h1.5s-.03 4.92 0 4.9c0 1.3.6 1.7 1.6 1.7c.9 0 1.7-.5 2.1-1.1c.02-.01 0-5.5 0-5.5h1.4v7.6h-1.4s.02-1 0-1zm12.9-4.1c0-.9-.4-1.4-1.3-1.4c-.8 0-1.6.5-2 1.1c.04-.05 0 5.4 0 5.4H165s.02-5.07 0-5.1c0-.9-.4-1.4-1.3-1.4c-.8 0-1.5.5-1.9 1.1v5.4h-1.4V4.9h1.4s-.01 1.05 0 1.1c.3-.5 1.3-1.3 2.5-1.3c1.1 0 1.8.6 2 1.4c.5-.7 1.5-1.4 2.6-1.4c1.5 0 2.2.8 2.2 2.3v5.5h-1.4V7.4z" stroke="none" fill="#3797ef"/></g></svg>