<?xml version="1.0" standalone="no"?><!DOCTYPE svg PUBLIC "-//W3C//DTD SVG 1.1//EN" "http://www.w3.org/Graphics/SVG/1.1/DTD/svg11.dtd"><svg xmlns="http://www.w3.org/2000/svg" version="1.1" width="15px" height="31px" viewBox="0 -6 15 31" style="top:-6px"><desc>02</desc><defs/><g id="Polygon306640"><path d="m7 4v7.5c0 1.9-1.1 2.7-3 2.7h-.1C2 14.2.8 13.4.8 11.5V4C.8 2.1 2 1.3 3.9 1.3h.1c1.9 0 3 .8 3 2.7zm-3.1-.9c-.6 0-1 .3-1 1.2v6.9c0 .9.4 1.1 1 1.1c.7 0 1.1-.2 1.1-1.1V4.3c0-.9-.4-1.2-1.1-1.2zm4.6.8c0-1.9 1-2.6 3-2.6c1.9 0 2.9.7 2.9 2.6v1.5c0 1.5-1 2.2-2.2 3.4c-1 1-1.7 1.7-1.7 2.4c-.02-.04 0 1.1 0 1.1h3.9v1.7H8.5s-.03-2.88 0-2.9c0-1.6 1.3-2.6 2.5-3.8c1-.9 1.4-1.3 1.4-2V4.1c0-.9-.4-1.1-1-1.1c-.5 0-.9.2-.9 1.1c-.02 0 0 1.8 0 1.8h-2v-2z" stroke="none" fill="#fff"/></g></svg>