<?xml version="1.0" standalone="no"?><!DOCTYPE svg PUBLIC "-//W3C//DTD SVG 1.1//EN" "http://www.w3.org/Graphics/SVG/1.1/DTD/svg11.dtd"><svg xmlns="http://www.w3.org/2000/svg" version="1.1" width="388.4px" height="67.5px" viewBox="0 -6 388.4 67.5" style="top:-6px"><desc>raising cane s DEMOGRAPHICS</desc><defs/><g id="Polygon113407"><path d="m11.4 30.8v11.5c0 2.9-1.9 4.1-4.9 4.1c-.03.03-5.1 0-5.1 0V26.7s5.07-.04 5.1 0c3 0 4.9 1.2 4.9 4.1zm-5-1.3c-.05.04-1.7 0-1.7 0v14s1.65.05 1.7 0c1 0 1.8-.3 1.8-1.8V31.4c0-1.5-.8-1.9-1.8-1.9zm7.5 16.9V26.7h8.6v2.8h-5.4v5.5h4.6v2.8h-4.6v5.7h5.5v2.9h-8.7zm18.6-2.9h-1.8l-3-9.2v12.1h-3.1V26.7h3.2l3.8 11.5l3.8-11.5h3.2v19.7h-3.1V34.3l-3 9.2zM46 26.4h.2c3 0 5 1.2 5 4.2v11.9c0 3-2 4.2-5 4.2h-.2c-3 0-4.9-1.2-4.9-4.2V30.6c0-3 1.9-4.2 4.9-4.2zm.1 17.4c1.1 0 1.8-.4 1.8-1.8V31.1c0-1.4-.7-1.8-1.8-1.8c-1 0-1.8.4-1.8 1.8V42c0 1.4.8 1.8 1.8 1.8zm17.6-1.3c0 3-2 4.2-5 4.2h-.2c-3 0-5-1.1-5-4.2V30.6c0-2.9 2-4.2 5-4.2h.2c3 0 5 1.3 5 4.2v2.8h-3.3s.02-2.27 0-2.3c0-1.4-.7-1.8-1.8-1.8c-1.1 0-1.8.4-1.8 1.8V42c0 1.4.7 1.8 1.8 1.8c1.1 0 1.8-.4 1.8-1.8c.02-.03 0-3 0-3h-1.9v-2.7h5.2v6.2zm9.8 3.9L71 38.6h-1.7v7.8h-3.2V26.7s5.08-.04 5.1 0c3 0 4.9 1.2 4.9 4.1v3.6c0 1.9-.7 3.1-2.1 3.6c0 .04 2.8 8.4 2.8 8.4h-3.3zm-4.2-10.7s1.77.03 1.8 0c1 0 1.8-.4 1.8-1.8v-2.5c0-1.5-.8-1.9-1.8-1.9c-.03.04-1.8 0-1.8 0v6.2zM84.8 42h-3.6l-.7 4.4h-3.2L81 26.7h4.1l3.8 19.7h-3.4l-.7-4.4zm-.4-2.7L83 30.5l-1.4 8.8h2.8zm15.9-8.5v3.8c0 3-2 4.2-5 4.2c.02-.02-1.8 0-1.8 0v7.6h-3.3V26.7s5.12-.04 5.1 0c3 0 5 1.2 5 4.1zm-3.3.6c0-1.5-.7-1.9-1.8-1.9c.01.04-1.7 0-1.7 0v6.4h1.7c1.1 0 1.8-.4 1.8-1.8v-2.7zm8.4-4.7v8.2h3.7v-8.2h3.3v19.7h-3.3v-8.6h-3.7v8.6h-3.3V26.7h3.3zm9.7 19.7V26.7h3.2v19.7h-3.2zm15.8-3.9c0 3-2 4.2-5 4.2h-.1c-2.9 0-4.9-1.1-4.9-4.2V30.6c0-2.9 2-4.2 4.9-4.2h.1c3 0 5 1.3 5 4.2c-.03.02 0 3.6 0 3.6h-3.3v-3.1c0-1.4-.7-1.8-1.7-1.8c-1.1 0-1.8.4-1.8 1.8V42c0 1.4.7 1.8 1.8 1.8c1 0 1.7-.4 1.7-1.8c-.01-.03 0-3.6 0-3.6h3.3s-.03 4.08 0 4.1zm8.4-8.8s.04-2.74 0-2.7c0-1.3-.7-1.7-1.6-1.7c-1 0-1.7.4-1.7 1.7v1.3c0 1 .3 1.5 1.3 2l2.3 1.3c1.9 1.1 3 2 3 4.1v2.8c0 3.1-1.9 4.2-4.9 4.2c-3 0-4.9-1.1-4.9-4.2c-.01.03 0-3.4 0-3.4h3.2v3c0 1.2.7 1.7 1.7 1.7c1 0 1.7-.5 1.7-1.7v-1.6c0-1-.3-1.5-1.3-2l-2.3-1.3c-1.9-1.1-3-2-3-4.1v-2.6c0-2.9 2.1-4.1 4.8-4.1h.1c2.7 0 4.9 1.2 4.9 4.1c-.04 0 0 3.2 0 3.2h-3.3z" stroke="none" fill="#282828"/></g><g id="Polygon113406"><path d="m4.7 8.5H2.8v4H1.2V2s4.44-.05 4.4 0C7.7 2 9 3.3 9 5.2c0 1.9-1.2 2.9-2.6 3.1l2.7 4.2H7.3l-2.6-4zm.7-5.1c.03-.05-2.6 0-2.6 0v3.7s2.63-.03 2.6 0c1.2 0 2-.8 2-1.9c0-1.1-.8-1.8-2-1.8zm12.1 7h-5.2l-.8 2.1H9.7L13.9 2h2l4.2 10.5h-1.7l-.9-2.1zm-4.7-1.5h4.3l-2.2-5.6l-2.1 5.6zM21.3 2h1.5v10.5h-1.5V2zm4 7.8c.7.8 1.9 1.5 3.3 1.5c1.8 0 2.4-.8 2.4-1.6c0-1.1-1.3-1.4-2.6-1.8c-1.7-.4-3.7-.9-3.7-3.1c0-1.7 1.6-3 3.8-3c1.6 0 2.9.5 3.8 1.5l-.9 1.1c-.8-.8-1.9-1.2-3.1-1.2c-1.1 0-1.9.6-1.9 1.5c0 1 1.1 1.3 2.4 1.6c1.8.4 3.8 1 3.8 3.2c0 1.7-1.2 3.2-4 3.2c-1.9 0-3.3-.6-4.2-1.6l.9-1.3zm9-7.8h1.5v10.5h-1.5V2zm5.3 2.4v8.1h-1.5V2h1.6l5.8 7.9V2h1.5v10.5h-1.5l-5.9-8.1zm14.7-2.6c2 0 3.3.9 4.2 2.1l-1.3.7c-.6-.8-1.7-1.4-2.9-1.4c-2.2 0-3.9 1.7-3.9 4.1c0 2.3 1.7 4 3.9 4c1.2 0 2.2-.5 2.7-1c-.03-.01 0-1.9 0-1.9h-3.4V7h5s-.04 3.88 0 3.9c-1.1 1.1-2.5 1.9-4.3 1.9c-3 0-5.5-2.2-5.5-5.5c0-3.3 2.5-5.5 5.5-5.5zm9.6 5.5c0-3.3 2.4-5.5 5.5-5.5c2 0 3.3 1 4.2 2.2l-1.4.7c-.5-.9-1.6-1.5-2.8-1.5c-2.2 0-3.8 1.7-3.8 4.1c0 2.3 1.6 4 3.8 4c1.2 0 2.3-.6 2.8-1.5l1.4.7c-.9 1.2-2.2 2.2-4.2 2.2c-3.1 0-5.5-2.2-5.5-5.4zm17.7 3.1h-5.2l-.8 2.1h-1.8L78 2h2l4.2 10.5h-1.7l-.9-2.1zm-4.7-1.5h4.3L79 3.3l-2.1 5.6zm10-4.5v8.1h-1.5V2h1.6l5.8 7.9V2h1.5v10.5h-1.5l-5.9-8.1zM96.5 2h7.1v1.4h-5.5v3h5.4v1.4h-5.4v3.4h5.5v1.3h-7.1V2zm8.7 3.1c.5-.3 1-.9 1.1-1.5c0 .1-.2.1-.3.1c-.4 0-.8-.4-.8-.9c0-.6.4-1 1-1c.5 0 1.1.5 1.1 1.3c0 1.1-.6 2-1.4 2.6l-.7-.6zm4.1 4.7c.7.8 1.9 1.5 3.4 1.5c1.7 0 2.3-.8 2.3-1.6c0-1.1-1.2-1.4-2.6-1.8c-1.7-.4-3.6-.9-3.6-3.1c0-1.7 1.5-3 3.7-3c1.6 0 2.9.5 3.9 1.5l-1 1.1c-.8-.8-1.9-1.2-3-1.2c-1.2 0-2 .6-2 1.5c0 1 1.1 1.3 2.5 1.6c1.7.4 3.7 1 3.7 3.2c0 1.7-1.1 3.2-4 3.2c-1.9 0-3.3-.6-4.2-1.6l.9-1.3z" stroke="none" fill="#3797ef"/></g></svg>