<?xml version="1.0" standalone="no"?>
<!DOCTYPE svg PUBLIC "-//W3C//DTD SVG 1.1//EN" "http://www.w3.org/Graphics/SVG/1.1/DTD/svg11.dtd">
<svg xmlns="http://www.w3.org/2000/svg" version="1.1" width="346.4px" height="20.3px" viewBox="0 -5 346.4 20.3" style="top:-5px">
  <desc>*Optional Note</desc>
  <defs/>
  <g id="Polygon271612">
    <path d="M 1.6 3.1 L 0.6 3.8 L 0.3 3.3 L 1.4 2.8 L 0.3 2.2 L 0.6 1.7 L 1.6 2.4 L 1.5 1.2 L 2.1 1.2 L 2 2.4 L 3 1.7 L 3.3 2.2 L 2.2 2.8 L 3.3 3.3 L 3 3.8 L 2 3.1 L 2.1 4.3 L 1.5 4.3 L 1.6 3.1 Z M 7.7 1.2 C 9.8 1.2 11.2 2.7 11.2 4.8 C 11.2 6.9 9.8 8.5 7.7 8.5 C 5.6 8.5 4.1 6.9 4.1 4.8 C 4.1 2.7 5.6 1.2 7.7 1.2 Z M 7.7 2.1 C 6.2 2.1 5.2 3.3 5.2 4.8 C 5.2 6.4 6.2 7.6 7.7 7.6 C 9.2 7.6 10.1 6.4 10.1 4.8 C 10.1 3.3 9.2 2.1 7.7 2.1 Z M 12.5 10.3 L 12.5 3.3 L 13.4 3.3 C 13.4 3.3 13.45 3.98 13.4 4 C 13.8 3.5 14.4 3.1 15.1 3.1 C 16.5 3.1 17.4 4.1 17.4 5.8 C 17.4 7.5 16.5 8.5 15.1 8.5 C 14.5 8.5 13.9 8.2 13.4 7.6 C 13.45 7.62 13.4 10.3 13.4 10.3 L 12.5 10.3 Z M 14.9 4 C 14.3 4 13.7 4.3 13.4 4.7 C 13.4 4.7 13.4 6.9 13.4 6.9 C 13.7 7.3 14.3 7.6 14.9 7.6 C 15.8 7.6 16.4 6.9 16.4 5.8 C 16.4 4.7 15.8 4 14.9 4 Z M 18.8 7.2 C 18.79 7.23 18.8 4.1 18.8 4.1 L 17.9 4.1 L 17.9 3.3 L 18.8 3.3 L 18.8 1.9 L 19.7 1.9 L 19.7 3.3 L 20.8 3.3 L 20.8 4.1 L 19.7 4.1 C 19.7 4.1 19.75 7.02 19.7 7 C 19.7 7.4 19.9 7.6 20.2 7.6 C 20.5 7.6 20.7 7.5 20.8 7.4 C 20.8 7.4 21 8.2 21 8.2 C 20.8 8.4 20.5 8.5 20 8.5 C 19.2 8.5 18.8 8 18.8 7.2 Z M 21.7 1.8 C 21.7 1.5 22 1.2 22.3 1.2 C 22.6 1.2 22.9 1.5 22.9 1.8 C 22.9 2.1 22.6 2.4 22.3 2.4 C 22 2.4 21.7 2.1 21.7 1.8 Z M 21.8 3.3 L 22.8 3.3 L 22.8 8.4 L 21.8 8.4 L 21.8 3.3 Z M 24 5.8 C 24 4.3 25 3.1 26.6 3.1 C 28.2 3.1 29.2 4.3 29.2 5.8 C 29.2 7.3 28.2 8.5 26.6 8.5 C 25 8.5 24 7.3 24 5.8 Z M 28.2 5.8 C 28.2 4.8 27.6 4 26.6 4 C 25.6 4 25 4.8 25 5.8 C 25 6.8 25.6 7.6 26.6 7.6 C 27.6 7.6 28.2 6.8 28.2 5.8 Z M 33.8 5.1 C 33.8 4.2 33.4 4 32.7 4 C 32.1 4 31.6 4.3 31.3 4.7 C 31.32 4.71 31.3 8.4 31.3 8.4 L 30.4 8.4 L 30.4 3.3 L 31.3 3.3 C 31.3 3.3 31.32 3.97 31.3 4 C 31.7 3.6 32.3 3.1 33.1 3.1 C 34.2 3.1 34.8 3.7 34.8 4.8 C 34.77 4.77 34.8 8.4 34.8 8.4 L 33.8 8.4 C 33.8 8.4 33.82 5.09 33.8 5.1 Z M 39.4 7.8 C 39 8.2 38.5 8.5 37.8 8.5 C 36.9 8.5 36 7.9 36 6.8 C 36 5.6 36.9 5.1 37.8 5.1 C 38.5 5.1 39 5.3 39.4 5.8 C 39.4 5.8 39.4 5 39.4 5 C 39.4 4.3 38.9 3.9 38.2 3.9 C 37.6 3.9 37.1 4.2 36.7 4.6 C 36.7 4.6 36.2 4 36.2 4 C 36.8 3.4 37.5 3.1 38.3 3.1 C 39.5 3.1 40.4 3.6 40.4 4.9 C 40.39 4.91 40.4 8.4 40.4 8.4 L 39.4 8.4 C 39.4 8.4 39.44 7.8 39.4 7.8 Z M 39.4 6.4 C 39.2 6 38.7 5.8 38.1 5.8 C 37.4 5.8 37 6.2 37 6.8 C 37 7.4 37.4 7.8 38.1 7.8 C 38.7 7.8 39.2 7.6 39.4 7.2 C 39.4 7.2 39.4 6.4 39.4 6.4 Z M 41.9 1.3 L 42.9 1.3 L 42.9 8.4 L 41.9 8.4 L 41.9 1.3 Z M 48.2 2.9 L 48.2 8.4 L 47.1 8.4 L 47.1 1.3 L 48.2 1.3 L 52.1 6.6 L 52.1 1.3 L 53.1 1.3 L 53.1 8.4 L 52.1 8.4 L 48.2 2.9 Z M 54.4 5.8 C 54.4 4.3 55.4 3.1 56.9 3.1 C 58.5 3.1 59.5 4.3 59.5 5.8 C 59.5 7.3 58.5 8.5 56.9 8.5 C 55.4 8.5 54.4 7.3 54.4 5.8 Z M 58.5 5.8 C 58.5 4.8 58 4 56.9 4 C 55.9 4 55.4 4.8 55.4 5.8 C 55.4 6.8 55.9 7.6 56.9 7.6 C 58 7.6 58.5 6.8 58.5 5.8 Z M 60.9 7.2 C 60.92 7.23 60.9 4.1 60.9 4.1 L 60.1 4.1 L 60.1 3.3 L 60.9 3.3 L 60.9 1.9 L 61.9 1.9 L 61.9 3.3 L 62.9 3.3 L 62.9 4.1 L 61.9 4.1 C 61.9 4.1 61.88 7.02 61.9 7 C 61.9 7.4 62 7.6 62.4 7.6 C 62.6 7.6 62.8 7.5 62.9 7.4 C 62.9 7.4 63.1 8.2 63.1 8.2 C 62.9 8.4 62.6 8.5 62.1 8.5 C 61.3 8.5 60.9 8 60.9 7.2 Z M 66.2 3.1 C 67.8 3.1 68.7 4.3 68.7 5.9 C 68.71 5.89 68.7 6.1 68.7 6.1 C 68.7 6.1 64.66 6.12 64.7 6.1 C 64.7 7 65.4 7.7 66.4 7.7 C 66.9 7.7 67.5 7.5 67.9 7.1 C 67.9 7.1 68.4 7.7 68.4 7.7 C 67.8 8.2 67.1 8.5 66.3 8.5 C 64.8 8.5 63.7 7.4 63.7 5.8 C 63.7 4.3 64.7 3.1 66.2 3.1 Z M 64.7 5.4 C 64.7 5.4 67.8 5.4 67.8 5.4 C 67.8 4.8 67.3 3.9 66.2 3.9 C 65.2 3.9 64.7 4.7 64.7 5.4 Z " stroke="none" fill="#878787"/>
  </g>
</svg>