<?xml version="1.0" standalone="no"?>
<!DOCTYPE svg PUBLIC "-//W3C//DTD SVG 1.1//EN" "http://www.w3.org/Graphics/SVG/1.1/DTD/svg11.dtd">
<svg xmlns="http://www.w3.org/2000/svg" version="1.1" width="343px" height="67.5px" viewBox="0 -6 343 67.5" style="top:-6px">
  <desc>SUBJECT PROPERTY INVESTMENT SUMMARY</desc>
  <defs/>
  <g id="Polygon233844">
    <path d="M 68.6 46.4 L 68.6 26.7 L 71.9 26.7 L 71.9 46.4 L 68.6 46.4 Z M 74.5 46.4 L 74.5 26.7 L 77.8 26.7 L 82 38.9 L 82 26.7 L 85 26.7 L 85 46.4 L 81.9 46.4 L 77.5 33.6 L 77.5 46.4 L 74.5 46.4 Z M 93.7 46.4 L 90 46.4 L 86.3 26.7 L 89.6 26.7 L 91.9 41.3 L 94.2 26.7 L 97.4 26.7 L 93.7 46.4 Z M 98.7 46.4 L 98.7 26.7 L 107.4 26.7 L 107.4 29.5 L 102 29.5 L 102 35 L 106.5 35 L 106.5 37.8 L 102 37.8 L 102 43.5 L 107.5 43.5 L 107.5 46.4 L 98.7 46.4 Z M 115.5 33.7 C 115.5 33.7 115.51 30.96 115.5 31 C 115.5 29.7 114.8 29.3 113.8 29.3 C 112.9 29.3 112.2 29.7 112.2 31 C 112.2 31 112.2 32.3 112.2 32.3 C 112.2 33.3 112.5 33.8 113.4 34.3 C 113.4 34.3 115.8 35.6 115.8 35.6 C 117.7 36.7 118.8 37.6 118.8 39.7 C 118.8 39.7 118.8 42.5 118.8 42.5 C 118.8 45.6 116.9 46.7 113.9 46.7 C 113.9 46.7 113.8 46.7 113.8 46.7 C 110.9 46.7 109 45.6 109 42.5 C 108.96 42.53 109 39.1 109 39.1 L 112.2 39.1 C 112.2 39.1 112.18 42.08 112.2 42.1 C 112.2 43.3 112.9 43.8 113.9 43.8 C 114.9 43.8 115.6 43.3 115.6 42.1 C 115.6 42.1 115.6 40.5 115.6 40.5 C 115.6 39.5 115.3 39 114.3 38.5 C 114.3 38.5 112 37.2 112 37.2 C 110.1 36.1 109 35.2 109 33.1 C 109 33.1 109 30.5 109 30.5 C 109 27.6 111.1 26.4 113.8 26.4 C 113.8 26.4 113.9 26.4 113.9 26.4 C 116.6 26.4 118.7 27.6 118.7 30.5 C 118.73 30.5 118.7 33.7 118.7 33.7 L 115.5 33.7 Z M 129.5 29.5 L 126.2 29.5 L 126.2 46.4 L 122.9 46.4 L 122.9 29.5 L 119.6 29.5 L 119.6 26.7 L 129.5 26.7 L 129.5 29.5 Z M 138.8 43.5 L 136.9 43.5 L 134 34.3 L 134 46.4 L 130.9 46.4 L 130.9 26.7 L 134 26.7 L 137.8 38.2 L 141.7 26.7 L 144.9 26.7 L 144.9 46.4 L 141.7 46.4 L 141.7 34.3 L 138.8 43.5 Z M 147.4 46.4 L 147.4 26.7 L 156.1 26.7 L 156.1 29.5 L 150.7 29.5 L 150.7 35 L 155.2 35 L 155.2 37.8 L 150.7 37.8 L 150.7 43.5 L 156.2 43.5 L 156.2 46.4 L 147.4 46.4 Z M 158.2 46.4 L 158.2 26.7 L 161.5 26.7 L 165.7 38.9 L 165.7 26.7 L 168.6 26.7 L 168.6 46.4 L 165.5 46.4 L 161.2 33.6 L 161.2 46.4 L 158.2 46.4 Z M 179.9 29.5 L 176.6 29.5 L 176.6 46.4 L 173.4 46.4 L 173.4 29.5 L 170.1 29.5 L 170.1 26.7 L 179.9 26.7 L 179.9 29.5 Z M 191.5 33.7 C 191.5 33.7 191.46 30.96 191.5 31 C 191.5 29.7 190.8 29.3 189.8 29.3 C 188.8 29.3 188.1 29.7 188.1 31 C 188.1 31 188.1 32.3 188.1 32.3 C 188.1 33.3 188.5 33.8 189.4 34.3 C 189.4 34.3 191.7 35.6 191.7 35.6 C 193.6 36.7 194.7 37.6 194.7 39.7 C 194.7 39.7 194.7 42.5 194.7 42.5 C 194.7 45.6 192.8 46.7 189.9 46.7 C 189.9 46.7 189.8 46.7 189.8 46.7 C 186.8 46.7 184.9 45.6 184.9 42.5 C 184.91 42.53 184.9 39.1 184.9 39.1 L 188.1 39.1 C 188.1 39.1 188.13 42.08 188.1 42.1 C 188.1 43.3 188.8 43.8 189.8 43.8 C 190.8 43.8 191.5 43.3 191.5 42.1 C 191.5 42.1 191.5 40.5 191.5 40.5 C 191.5 39.5 191.2 39 190.2 38.5 C 190.2 38.5 187.9 37.2 187.9 37.2 C 186 36.1 184.9 35.2 184.9 33.1 C 184.9 33.1 184.9 30.5 184.9 30.5 C 184.9 27.6 187.1 26.4 189.8 26.4 C 189.8 26.4 189.8 26.4 189.8 26.4 C 192.5 26.4 194.7 27.6 194.7 30.5 C 194.68 30.5 194.7 33.7 194.7 33.7 L 191.5 33.7 Z M 206.7 42.5 C 206.7 45.5 204.8 46.7 201.8 46.7 C 201.8 46.7 201.7 46.7 201.7 46.7 C 198.7 46.7 196.8 45.6 196.8 42.5 C 196.77 42.48 196.8 26.7 196.8 26.7 L 200 26.7 C 200 26.7 200.05 41.97 200 42 C 200 43.4 200.7 43.8 201.7 43.8 C 202.8 43.8 203.4 43.4 203.4 42 C 203.43 41.97 203.4 26.7 203.4 26.7 L 206.7 26.7 C 206.7 26.7 206.71 42.48 206.7 42.5 Z M 217 43.5 L 215.2 43.5 L 212.2 34.3 L 212.2 46.4 L 209.2 46.4 L 209.2 26.7 L 212.3 26.7 L 216.1 38.2 L 220 26.7 L 223.2 26.7 L 223.2 46.4 L 220 46.4 L 220 34.3 L 217 43.5 Z M 233.6 43.5 L 231.7 43.5 L 228.8 34.3 L 228.8 46.4 L 225.7 46.4 L 225.7 26.7 L 228.8 26.7 L 232.6 38.2 L 236.5 26.7 L 239.7 26.7 L 239.7 46.4 L 236.5 46.4 L 236.5 34.3 L 233.6 43.5 Z M 248.5 42 L 244.9 42 L 244.2 46.4 L 241 46.4 L 244.7 26.7 L 248.8 26.7 L 252.6 46.4 L 249.2 46.4 L 248.5 42 Z M 248.1 39.3 L 246.7 30.5 L 245.3 39.3 L 248.1 39.3 Z M 261.3 46.4 L 258.8 38.6 L 257.2 38.6 L 257.2 46.4 L 253.9 46.4 L 253.9 26.7 C 253.9 26.7 259.03 26.66 259 26.7 C 262 26.7 264 27.9 264 30.8 C 264 30.8 264 34.4 264 34.4 C 264 36.3 263.2 37.5 261.9 38 C 261.85 38.04 264.7 46.4 264.7 46.4 L 261.3 46.4 Z M 257.2 35.7 C 257.2 35.7 258.92 35.73 258.9 35.7 C 260 35.7 260.7 35.3 260.7 33.9 C 260.7 33.9 260.7 31.4 260.7 31.4 C 260.7 29.9 260 29.5 258.9 29.5 C 258.92 29.54 257.2 29.5 257.2 29.5 L 257.2 35.7 Z M 272 46.4 L 268.7 46.4 L 268.7 39.4 L 264.7 26.7 L 268.2 26.7 L 270.4 35.8 L 272.6 26.7 L 276 26.7 L 272 39.4 L 272 46.4 Z " stroke="none" fill="#1c1c1c"/>
  </g>
  <g id="Polygon233843">
    <path d="M 99 9.8 C 99.7 10.6 100.8 11.3 102.3 11.3 C 104 11.3 104.6 10.5 104.6 9.7 C 104.6 8.6 103.4 8.3 102.1 7.9 C 100.4 7.5 98.4 7 98.4 4.8 C 98.4 3.1 99.9 1.8 102.2 1.8 C 103.8 1.8 105.1 2.3 106 3.3 C 106 3.3 105.1 4.4 105.1 4.4 C 104.3 3.6 103.2 3.2 102 3.2 C 100.9 3.2 100 3.8 100 4.7 C 100 5.7 101.2 6 102.5 6.3 C 104.2 6.7 106.3 7.3 106.3 9.5 C 106.3 11.2 105.1 12.7 102.3 12.7 C 100.4 12.7 99 12.1 98.1 11.1 C 98.1 11.1 99 9.8 99 9.8 Z M 107.9 2 L 109.5 2 C 109.5 2 109.54 8.36 109.5 8.4 C 109.5 10.2 110.5 11.3 112.4 11.3 C 114.3 11.3 115.2 10.2 115.2 8.4 C 115.25 8.36 115.2 2 115.2 2 L 116.8 2 C 116.8 2 116.85 8.39 116.8 8.4 C 116.8 11 115.4 12.7 112.4 12.7 C 109.4 12.7 107.9 11 107.9 8.4 C 107.94 8.4 107.9 2 107.9 2 Z M 119.1 2 C 119.1 2 124.03 1.95 124 2 C 125.9 2 127 3.1 127 4.7 C 127 6 126.1 6.9 125.2 7.1 C 126.3 7.3 127.2 8.4 127.2 9.7 C 127.2 11.4 126.1 12.5 124.2 12.5 C 124.16 12.55 119.1 12.5 119.1 12.5 L 119.1 2 Z M 123.7 6.4 C 124.8 6.4 125.4 5.8 125.4 4.9 C 125.4 4 124.8 3.4 123.7 3.4 C 123.73 3.35 120.6 3.4 120.6 3.4 L 120.6 6.4 C 120.6 6.4 123.73 6.45 123.7 6.4 Z M 123.8 11.2 C 124.9 11.2 125.6 10.5 125.6 9.5 C 125.6 8.6 125 7.8 123.8 7.8 C 123.81 7.84 120.6 7.8 120.6 7.8 L 120.6 11.2 C 120.6 11.2 123.81 11.15 123.8 11.2 Z M 128.8 10.4 C 129.2 10.9 129.8 11.3 130.7 11.3 C 131.9 11.3 132.7 10.5 132.7 9.3 C 132.67 9.26 132.7 2 132.7 2 L 134.3 2 C 134.3 2 134.26 9.28 134.3 9.3 C 134.3 11.6 132.8 12.7 130.8 12.7 C 129.7 12.7 128.7 12.4 128 11.6 C 128 11.6 128.8 10.4 128.8 10.4 Z M 136.5 2 L 143.6 2 L 143.6 3.4 L 138.1 3.4 L 138.1 6.4 L 143.5 6.4 L 143.5 7.8 L 138.1 7.8 L 138.1 11.2 L 143.6 11.2 L 143.6 12.5 L 136.5 12.5 L 136.5 2 Z M 145 7.3 C 145 4 147.4 1.8 150.4 1.8 C 152.5 1.8 153.8 2.8 154.6 4 C 154.6 4 153.3 4.7 153.3 4.7 C 152.7 3.8 151.6 3.2 150.4 3.2 C 148.2 3.2 146.6 4.9 146.6 7.3 C 146.6 9.6 148.2 11.3 150.4 11.3 C 151.6 11.3 152.7 10.7 153.3 9.8 C 153.3 9.8 154.6 10.5 154.6 10.5 C 153.8 11.7 152.5 12.7 150.4 12.7 C 147.4 12.7 145 10.5 145 7.3 Z M 158.6 3.4 L 155.3 3.4 L 155.3 2 L 163.5 2 L 163.5 3.4 L 160.2 3.4 L 160.2 12.5 L 158.6 12.5 L 158.6 3.4 Z M 168.9 2 C 168.9 2 173.37 1.95 173.4 2 C 175.6 2 176.8 3.4 176.8 5.2 C 176.8 7 175.5 8.5 173.4 8.5 C 173.37 8.46 170.5 8.5 170.5 8.5 L 170.5 12.5 L 168.9 12.5 L 168.9 2 Z M 173.2 3.4 C 173.17 3.35 170.5 3.4 170.5 3.4 L 170.5 7.1 C 170.5 7.1 173.17 7.07 173.2 7.1 C 174.3 7.1 175.1 6.3 175.1 5.2 C 175.1 4.1 174.3 3.4 173.2 3.4 Z M 181.8 8.5 L 179.8 8.5 L 179.8 12.5 L 178.2 12.5 L 178.2 2 C 178.2 2 182.7 1.95 182.7 2 C 184.7 2 186.1 3.3 186.1 5.2 C 186.1 7.1 184.8 8.1 183.5 8.3 C 183.46 8.31 186.2 12.5 186.2 12.5 L 184.3 12.5 L 181.8 8.5 Z M 182.5 3.4 C 182.49 3.35 179.8 3.4 179.8 3.4 L 179.8 7.1 C 179.8 7.1 182.49 7.07 182.5 7.1 C 183.6 7.1 184.5 6.3 184.5 5.2 C 184.5 4.1 183.6 3.4 182.5 3.4 Z M 192.8 1.8 C 195.9 1.8 198.1 4.1 198.1 7.3 C 198.1 10.4 195.9 12.7 192.8 12.7 C 189.6 12.7 187.4 10.4 187.4 7.3 C 187.4 4.1 189.6 1.8 192.8 1.8 Z M 192.8 3.2 C 190.5 3.2 189.1 4.9 189.1 7.3 C 189.1 9.6 190.5 11.3 192.8 11.3 C 195 11.3 196.5 9.6 196.5 7.3 C 196.5 4.9 195 3.2 192.8 3.2 Z M 199.9 2 C 199.9 2 204.34 1.95 204.3 2 C 206.5 2 207.7 3.4 207.7 5.2 C 207.7 7 206.5 8.5 204.3 8.5 C 204.34 8.46 201.5 8.5 201.5 8.5 L 201.5 12.5 L 199.9 12.5 L 199.9 2 Z M 204.1 3.4 C 204.14 3.35 201.5 3.4 201.5 3.4 L 201.5 7.1 C 201.5 7.1 204.14 7.07 204.1 7.1 C 205.3 7.1 206.1 6.3 206.1 5.2 C 206.1 4.1 205.3 3.4 204.1 3.4 Z M 209.2 2 L 216.3 2 L 216.3 3.4 L 210.8 3.4 L 210.8 6.4 L 216.2 6.4 L 216.2 7.8 L 210.8 7.8 L 210.8 11.2 L 216.3 11.2 L 216.3 12.5 L 209.2 12.5 L 209.2 2 Z M 221.7 8.5 L 219.7 8.5 L 219.7 12.5 L 218.1 12.5 L 218.1 2 C 218.1 2 222.61 1.95 222.6 2 C 224.6 2 226 3.3 226 5.2 C 226 7.1 224.7 8.1 223.4 8.3 C 223.37 8.31 226.1 12.5 226.1 12.5 L 224.2 12.5 L 221.7 8.5 Z M 222.4 3.4 C 222.4 3.35 219.7 3.4 219.7 3.4 L 219.7 7.1 C 219.7 7.1 222.4 7.07 222.4 7.1 C 223.5 7.1 224.4 6.3 224.4 5.2 C 224.4 4.1 223.5 3.4 222.4 3.4 Z M 230.2 3.4 L 226.9 3.4 L 226.9 2 L 235.1 2 L 235.1 3.4 L 231.8 3.4 L 231.8 12.5 L 230.2 12.5 L 230.2 3.4 Z M 239.6 8.1 L 235.5 2 L 237.3 2 L 240.4 6.7 L 243.5 2 L 245.4 2 L 241.2 8.1 L 241.2 12.5 L 239.6 12.5 L 239.6 8.1 Z " stroke="none" fill="#3797ef"/>
  </g>
</svg>