<?xml version="1.0" standalone="no"?><!DOCTYPE svg PUBLIC "-//W3C//DTD SVG 1.1//EN" "http://www.w3.org/Graphics/SVG/1.1/DTD/svg11.dtd"><svg xmlns="http://www.w3.org/2000/svg" version="1.1" width="904px" height="112.9px" viewBox="0 -6 904 112.9" style="top:-6px"><desc>Raising Cane s Raising Cane s is a fast-food restaurant chain specializing in chicken fingers founded in Baton Rouge,</desc><defs/><g id="Polygon104352"><path d="m4 69.1H.6v-.8h7.8v.8H4.9v9.8h-.9v-9.8zm11.3 4.6c0-1.5-.8-1.9-1.9-1.9c-1 0-2 .6-2.5 1.3v5.8h-.8V68.3h.8v4.1c.6-.7 1.7-1.4 2.8-1.4c1.5 0 2.4.8 2.4 2.5v5.4h-.8s-.04-5.23 0-5.2zm6.5-2.7c2.3 0 3.6 1.9 3.6 4.1c-.02 0 0 .2 0 .2c0 0-6.44.03-6.4 0c0 1.7 1.2 3.1 2.9 3.1c1 0 1.9-.4 2.6-1.1l.4.6c-.8.7-1.7 1.2-3 1.2c-2.2 0-3.8-1.7-3.8-4c0-2.3 1.5-4.1 3.7-4.1zM19 74.7h5.5c0-1.3-.8-2.9-2.8-2.9c-1.8 0-2.7 1.5-2.7 2.9zM34.6 71c1.3 0 2.1.6 2.7 1.3l-.6.5c-.5-.7-1.2-1-2.1-1c-1.8 0-2.9 1.4-2.9 3.3c0 1.8 1.1 3.2 2.9 3.2c.9 0 1.6-.3 2.1-1l.6.5c-.6.8-1.4 1.3-2.7 1.3c-2.3 0-3.7-1.8-3.7-4c0-2.3 1.4-4.1 3.7-4.1zm3.9 4.1c0-2.3 1.5-4.1 3.7-4.1c2.3 0 3.7 1.8 3.7 4.1c0 2.2-1.4 4-3.7 4c-2.2 0-3.7-1.8-3.7-4zm6.5 0c0-1.7-1-3.3-2.8-3.3c-1.7 0-2.8 1.6-2.8 3.3c0 1.7 1.1 3.2 2.8 3.2c1.8 0 2.8-1.5 2.8-3.2zm12-1.6c0-1-.4-1.7-1.5-1.7c-.8 0-1.8.6-2.2 1.3v5.8h-.8s-.04-5.37 0-5.4c0-1-.5-1.7-1.6-1.7c-.8 0-1.7.6-2.2 1.3c.03 0 0 5.8 0 5.8h-.8v-7.7h.8s.03 1.19 0 1.2c.3-.5 1.4-1.4 2.5-1.4c1.2 0 1.8.7 2 1.5c.4-.7 1.5-1.5 2.6-1.5c1.4 0 2.1.8 2.1 2.4c-.04-.03 0 5.5 0 5.5h-.9s.03-5.37 0-5.4zm3.3 8.3V71.2h.8v1.3c.5-.8 1.5-1.5 2.7-1.5c2 0 3.4 1.6 3.4 4.1c0 2.4-1.4 4-3.4 4c-1.1 0-2.1-.6-2.7-1.4v4.1h-.8zm3.3-10c-1 0-2.1.6-2.5 1.4v3.7c.4.8 1.5 1.4 2.5 1.4c1.7 0 2.7-1.4 2.7-3.2c0-1.9-1-3.3-2.7-3.3zM74 78c-.6.7-1.5 1.1-2.6 1.1c-1.3 0-2.6-.9-2.6-2.6c0-1.6 1.3-2.5 2.6-2.5c1.1 0 2 .3 2.6 1.1v-1.6c0-1.1-.9-1.7-2-1.7c-1 0-1.7.3-2.4 1.1l-.5-.6c.8-.8 1.7-1.3 3-1.3c1.5 0 2.8.8 2.8 2.5c-.03 0 0 5.4 0 5.4h-.9s.04-.9 0-.9zm0-2.3c-.5-.7-1.4-1.1-2.3-1.1c-1.2 0-2.1.9-2.1 1.9c0 1.1.9 1.9 2.1 1.9c.9 0 1.8-.3 2.3-1v-1.7zm8.5-2c0-1.5-.8-1.9-1.9-1.9c-1 0-2 .6-2.5 1.3v5.8h-.8v-7.7h.8v1.2c.6-.7 1.7-1.4 2.8-1.4c1.5 0 2.4.8 2.4 2.5c-.02.03 0 5.4 0 5.4h-.8s-.04-5.18 0-5.2zm3.5 7.6c.5 0 .9-.2 1.2-1c-.04.03.6-1.3.6-1.3l-3.3-7.8h.9l2.8 6.7l2.8-6.7h.9s-3.93 9.38-3.9 9.4c-.4 1-1.1 1.4-2 1.4c-.3 0-.6 0-.8-.1l.1-.8c.2.1.5.2.7.2zm10.9-12c0-.4.3-.6.6-.6c.4 0 .7.2.7.6c0 .3-.3.6-.7.6c-.3 0-.6-.3-.6-.6zm.2 1.9h.9v7.7h-.9v-7.7zm3.1 6.1c.5.6 1.4 1.1 2.5 1.1c1.3 0 2-.6 2-1.5c0-1-1-1.3-2.1-1.6c-1.3-.3-2.7-.6-2.7-2.1c0-1.2 1-2.2 2.7-2.2c1.3 0 2.2.5 2.8 1.2l-.5.6c-.4-.7-1.3-1.1-2.3-1.1c-1.2 0-1.9.6-1.9 1.4c0 .9 1 1.1 2 1.4c1.4.3 2.8.7 2.8 2.3c0 1.3-.9 2.3-2.8 2.3c-1.3 0-2.2-.4-3-1.2l.5-.6zm14.5-6.3c1.4 0 2.1.6 2.8 1.3l-.6.5c-.6-.7-1.3-1-2.1-1c-1.8 0-2.9 1.4-2.9 3.3c0 1.8 1.1 3.2 2.9 3.2c.8 0 1.5-.3 2.1-1l.6.5c-.7.8-1.4 1.3-2.8 1.3c-2.2 0-3.7-1.8-3.7-4c0-2.3 1.5-4.1 3.7-4.1zm4 4.1c0-2.3 1.4-4.1 3.7-4.1c2.3 0 3.7 1.8 3.7 4.1c0 2.2-1.4 4-3.7 4c-2.3 0-3.7-1.8-3.7-4zm6.5 0c0-1.7-1-3.3-2.8-3.3c-1.8 0-2.8 1.6-2.8 3.3c0 1.7 1 3.2 2.8 3.2c1.8 0 2.8-1.5 2.8-3.2zm8-1.4c0-1.5-.7-1.9-1.8-1.9c-1 0-2 .6-2.5 1.3c-.02 0 0 5.8 0 5.8h-.8v-7.7h.8s-.02 1.19 0 1.2c.5-.7 1.6-1.4 2.7-1.4c1.6 0 2.5.8 2.5 2.5c-.04.03 0 5.4 0 5.4h-.9s.04-5.18 0-5.2zm3.4 3.7c.03.02 0-5.4 0-5.4h-1.2v-.8h1.2v-2.1h.9v2.1h1.5v.8h-1.5s-.03 5.3 0 5.3c0 .6.2 1 .8 1c.3 0 .7-.1.8-.3l.3.6c-.3.3-.6.5-1.3.5c-1 0-1.5-.6-1.5-1.7zm3.9-8.1c0-.4.3-.6.6-.6c.3 0 .6.2.6.6c0 .3-.3.6-.6.6c-.3 0-.6-.3-.6-.6zm.2 1.9h.8v7.7h-.8v-7.7zm8.4 2.5c0-1.5-.7-1.9-1.9-1.9c-.9 0-2 .6-2.5 1.3c.05 0 0 5.8 0 5.8h-.8v-7.7h.8s.05 1.19 0 1.2c.6-.7 1.7-1.4 2.8-1.4c1.6 0 2.4.8 2.4 2.5c.03.03 0 5.4 0 5.4h-.8v-5.2zm8.4 4.1c-.6.7-1.6 1.3-2.7 1.3c-1.6 0-2.5-.7-2.5-2.5c.04.03 0-5.4 0-5.4h.9s-.03 5.24 0 5.2c0 1.5.7 1.9 1.8 1.9c1 0 2-.5 2.5-1.2c.02-.03 0-5.9 0-5.9h.8v7.7h-.8s.02-1.13 0-1.1zm8.1.2c-.6.7-1.5 1.1-2.6 1.1c-1.3 0-2.7-.9-2.7-2.6c0-1.6 1.4-2.5 2.7-2.5c1.1 0 2 .3 2.6 1.1v-1.6c0-1.1-.9-1.7-2-1.7c-1 0-1.7.3-2.4 1.1l-.5-.6c.8-.8 1.7-1.3 2.9-1.3c1.6 0 2.9.8 2.9 2.5c-.04 0 0 5.4 0 5.4h-.9s.04-.9 0-.9zm0-2.3c-.5-.7-1.4-1.1-2.3-1.1c-1.3 0-2.1.9-2.1 1.9c0 1.1.8 1.9 2.1 1.9c.9 0 1.8-.3 2.3-1v-1.7zm3.3-7.4h.8v10.6h-.8V68.3zm3.2 0h.8v10.6h-.8V68.3zm3.5 13c.6 0 .9-.2 1.2-1c.02.03.6-1.3.6-1.3l-3.2-7.8h.9l2.8 6.7l2.8-6.7h.9s-3.97 9.38-4 9.4c-.4 1-1 1.4-1.9 1.4c-.3 0-.6 0-.9-.1l.2-.8c.2.1.5.2.6.2zm11.2-10.1h.8v1.3c.7-.8 1.5-1.4 2.6-1.4v.9c-.1 0-.3-.1-.4-.1c-.8 0-1.8.7-2.2 1.4v5.6h-.8v-7.7zm8.1-.2c2.4 0 3.6 1.9 3.6 4.1c.04 0 0 .2 0 .2c0 0-6.38.03-6.4 0c.1 1.7 1.2 3.1 3 3.1c1 0 1.9-.4 2.5-1.1l.5.6c-.8.7-1.8 1.2-3 1.2c-2.3 0-3.9-1.7-3.9-4c0-2.3 1.6-4.1 3.7-4.1zm-2.8 3.7h5.6c0-1.3-.9-2.9-2.8-2.9c-1.8 0-2.7 1.5-2.8 2.9zm11.7-3.7c1.3 0 2.1.6 2.7 1.3l-.6.5c-.5-.7-1.2-1-2.1-1c-1.7 0-2.8 1.4-2.8 3.3c0 1.8 1.1 3.2 2.8 3.2c.9 0 1.6-.3 2.1-1l.6.5c-.6.8-1.4 1.3-2.7 1.3c-2.3 0-3.7-1.8-3.7-4c0-2.3 1.4-4.1 3.7-4.1zm4 4.1c0-2.3 1.4-4.1 3.6-4.1c2.3 0 3.7 1.8 3.7 4.1c0 2.2-1.4 4-3.7 4c-2.2 0-3.6-1.8-3.6-4zm6.4 0c0-1.7-1-3.3-2.8-3.3c-1.7 0-2.8 1.6-2.8 3.3c0 1.7 1.1 3.2 2.8 3.2c1.8 0 2.8-1.5 2.8-3.2zm3.4 5.1c.7.8 1.4 1.1 2.5 1.1c1.4 0 2.7-.7 2.7-2.5v-1.2c-.6.8-1.6 1.5-2.7 1.5c-2 0-3.4-1.6-3.4-4c0-2.5 1.4-4.1 3.4-4.1c1.1 0 2 .6 2.7 1.5c-.04-.03 0-1.3 0-1.3h.8v7.6c0 2.4-1.6 3.2-3.5 3.2c-1.2 0-2.1-.2-3-1.1l.5-.7zm5.2-7c-.5-.8-1.5-1.4-2.6-1.4c-1.7 0-2.6 1.4-2.6 3.3c0 1.8.9 3.2 2.6 3.2c1.1 0 2.1-.6 2.6-1.4v-3.7zm8.4.5c0-1.5-.8-1.9-1.9-1.9c-1 0-2 .6-2.5 1.3c.03 0 0 5.8 0 5.8h-.8v-7.7h.8s.03 1.19 0 1.2c.6-.7 1.7-1.4 2.8-1.4c1.5 0 2.4.8 2.4 2.5v5.4h-.8s-.02-5.18 0-5.2zm3-4.4c0-.4.3-.6.6-.6c.4 0 .7.2.7.6c0 .3-.3.6-.7.6c-.3 0-.6-.3-.6-.6zm.2 1.9h.8v7.7h-.8v-7.7zm2.9 7l4.5-6.2h-4.5v-.8h5.6v.7l-4.6 6.3h4.6v.7h-5.6v-.7zm10.9-7.2c2.3 0 3.6 1.9 3.6 4.1c.02 0 0 .2 0 .2c0 0-6.39.03-6.4 0c.1 1.7 1.2 3.1 3 3.1c1 0 1.9-.4 2.5-1.1l.4.6c-.7.7-1.7 1.2-3 1.2c-2.2 0-3.8-1.7-3.8-4c0-2.3 1.6-4.1 3.7-4.1zm-2.8 3.7h5.6c0-1.3-.9-2.9-2.8-2.9c-1.8 0-2.7 1.5-2.8 2.9zm14.1 3c-.6.8-1.6 1.4-2.7 1.4c-2.1 0-3.4-1.6-3.4-4c0-2.5 1.3-4.1 3.4-4.1c1.1 0 2 .6 2.7 1.5c-.05-.03 0-4.2 0-4.2h.8v10.6h-.8s-.05-1.22 0-1.2zm0-4.5c-.5-.8-1.5-1.4-2.6-1.4c-1.7 0-2.7 1.4-2.7 3.3c0 1.8 1 3.2 2.7 3.2c1.1 0 2.1-.6 2.6-1.3v-3.8zm7.4-1.2h-1.2v-.8h1.2s.03-.67 0-.7c0-1.5.8-2.4 2.1-2.4c.4 0 .7.1 1 .3l-.2.6c-.2-.1-.4-.1-.7-.1c-.9 0-1.3.6-1.3 1.6c-.05.03 0 .7 0 .7h1.5v.8h-1.5v6.9h-.9V72zm3.4 3.1c0-2.3 1.4-4.1 3.6-4.1c2.3 0 3.7 1.8 3.7 4.1c0 2.2-1.4 4-3.7 4c-2.2 0-3.6-1.8-3.6-4zm6.5 0c0-1.7-1-3.3-2.9-3.3c-1.7 0-2.7 1.6-2.7 3.3c0 1.7 1 3.2 2.7 3.2c1.9 0 2.9-1.5 2.9-3.2zm2.8-3.9h.8s.04 1.35 0 1.3c.7-.8 1.6-1.4 2.6-1.4v.9c-.1 0-.2-.1-.4-.1c-.8 0-1.8.7-2.2 1.4c.04.01 0 5.6 0 5.6h-.8v-7.7zm8.6-1.9c0-.4.3-.6.7-.6c.3 0 .6.2.6.6c0 .3-.3.6-.6.6c-.4 0-.7-.3-.7-.6zm.3 1.9h.8v7.7h-.8v-7.7zm3.3 6.2c.05.02 0-5.4 0-5.4h-1.2v-.8h1.2v-2.1h.9v2.1h1.5v.8h-1.5v5.3c0 .6.2 1 .8 1c.3 0 .7-.1.8-.3l.4.6c-.3.3-.7.5-1.3.5c-1.1 0-1.6-.6-1.6-1.7zm3.9-.1c.5.6 1.4 1.1 2.5 1.1c1.3 0 2.1-.6 2.1-1.5c0-1-1.1-1.3-2.2-1.6c-1.3-.3-2.7-.6-2.7-2.1c0-1.2 1-2.2 2.7-2.2c1.4 0 2.2.5 2.8 1.2l-.5.6c-.4-.7-1.2-1.1-2.3-1.1c-1.2 0-1.9.6-1.9 1.4c0 .9 1 1.1 2.1 1.4c1.3.3 2.8.7 2.8 2.3c0 1.3-1 2.3-2.9 2.3c-1.3 0-2.2-.4-3-1.2l.5-.6zm16.5.5c-.7.7-1.7 1.3-2.8 1.3c-1.6 0-2.4-.7-2.4-2.5c-.02.03 0-5.4 0-5.4h.8v5.2c0 1.5.8 1.9 1.9 1.9c1 0 2-.5 2.5-1.2c-.04-.03 0-5.9 0-5.9h.8v7.7h-.8s-.04-1.13 0-1.1zm8.4-4.1c0-1.5-.8-1.9-1.9-1.9c-1 0-2 .6-2.5 1.3c.03 0 0 5.8 0 5.8h-.8v-7.7h.8s.03 1.19 0 1.2c.6-.7 1.7-1.4 2.8-1.4c1.5 0 2.4.8 2.4 2.5v5.4h-.8s-.02-5.18 0-5.2zm3-4.4c0-.4.3-.6.6-.6c.4 0 .7.2.7.6c0 .3-.3.6-.7.6c-.3 0-.6-.3-.6-.6zm.2 1.9h.8v7.7h-.8v-7.7zm8.9 10.6v-4.1c-.6.8-1.6 1.4-2.7 1.4c-2 0-3.4-1.6-3.4-4c0-2.5 1.4-4.1 3.4-4.1c1.2 0 2.2.7 2.7 1.5v-1.3h.9v10.6h-.9zm0-8.6c-.4-.8-1.4-1.4-2.5-1.4c-1.7 0-2.7 1.4-2.7 3.3c0 1.8 1 3.2 2.7 3.2c1.1 0 2.1-.6 2.5-1.4v-3.7zm8.4 4.6c-.6.7-1.6 1.3-2.7 1.3c-1.6 0-2.4-.7-2.4-2.5c-.05.03 0-5.4 0-5.4h.8s-.02 5.24 0 5.2c0 1.5.7 1.9 1.8 1.9c1 0 2-.5 2.5-1.2c.03-.03 0-5.9 0-5.9h.9v7.7h-.9s.03-1.13 0-1.1zm6.5-6.8c2.4 0 3.6 1.9 3.6 4.1c.05 0 0 .2 0 .2c0 0-6.37.03-6.4 0c.1 1.7 1.2 3.1 3 3.1c1 0 1.9-.4 2.5-1.1l.5.6c-.8.7-1.8 1.2-3 1.2c-2.3 0-3.9-1.7-3.9-4c0-2.3 1.6-4.1 3.7-4.1zm-2.8 3.7h5.6c0-1.3-.9-2.9-2.8-2.9c-1.8 0-2.7 1.5-2.8 2.9zm12.4-6.4h.8v4.2c.6-.9 1.6-1.5 2.7-1.5c2 0 3.4 1.6 3.4 4.1c0 2.4-1.4 4-3.4 4c-1.2 0-2.2-.6-2.7-1.4v1.2h-.8V68.3zm3.3 10c1.7 0 2.7-1.4 2.7-3.2c0-1.9-1-3.3-2.7-3.3c-1 0-2.1.7-2.5 1.4v3.8c.4.7 1.5 1.3 2.5 1.3zm10.8-.5c-.7.7-1.7 1.3-2.8 1.3c-1.6 0-2.4-.7-2.4-2.5c-.02.03 0-5.4 0-5.4h.8v5.2c0 1.5.8 1.9 1.9 1.9c1 0 2-.5 2.5-1.2c-.04-.03 0-5.9 0-5.9h.8v7.7h-.8s-.04-1.13 0-1.1zm3-.5c.5.6 1.4 1.1 2.5 1.1c1.3 0 2.1-.6 2.1-1.5c0-1-1.1-1.3-2.2-1.6c-1.3-.3-2.7-.6-2.7-2.1c0-1.2 1-2.2 2.7-2.2c1.4 0 2.2.5 2.8 1.2l-.5.6c-.4-.7-1.2-1.1-2.3-1.1c-1.2 0-1.9.6-1.9 1.4c0 .9 1 1.1 2.1 1.4c1.3.3 2.8.7 2.8 2.3c0 1.3-1 2.3-2.9 2.3c-1.3 0-2.2-.4-3-1.2l.5-.6zm7.1-8c0-.4.3-.6.6-.6c.4 0 .7.2.7.6c0 .3-.3.6-.7.6c-.3 0-.6-.3-.6-.6zm.2 1.9h.9v7.7h-.9v-7.7zm8.4 2.5c0-1.5-.7-1.9-1.8-1.9c-1 0-2 .6-2.5 1.3v5.8h-.8v-7.7h.8v1.2c.6-.7 1.6-1.4 2.8-1.4c1.5 0 2.4.8 2.4 2.5c-.03.03 0 5.4 0 5.4h-.9s.05-5.18 0-5.2zm6.5-2.7c2.4 0 3.7 1.9 3.7 4.1c-.04 0 0 .2 0 .2c0 0-6.45.03-6.5 0c.1 1.7 1.2 3.1 3 3.1c1 0 1.9-.4 2.6-1.1l.4.6c-.8.7-1.7 1.2-3 1.2c-2.3 0-3.9-1.7-3.9-4c0-2.3 1.6-4.1 3.7-4.1zm-2.8 3.7h5.6c0-1.3-.9-2.9-2.8-2.9c-1.8 0-2.7 1.5-2.8 2.9zm8.3 2.6c.4.6 1.3 1.1 2.4 1.1c1.3 0 2.1-.6 2.1-1.5c0-1-1.1-1.3-2.2-1.6c-1.2-.3-2.7-.6-2.7-2.1c0-1.2 1-2.2 2.8-2.2c1.3 0 2.2.5 2.7 1.2l-.4.6c-.5-.7-1.3-1.1-2.3-1.1c-1.2 0-2 .6-2 1.4c0 .9 1 1.1 2.1 1.4c1.3.3 2.8.7 2.8 2.3c0 1.3-1 2.3-2.9 2.3c-1.2 0-2.2-.4-2.9-1.2l.5-.6zm7.1 0c.5.6 1.4 1.1 2.5 1.1c1.3 0 2-.6 2-1.5c0-1-1-1.3-2.1-1.6c-1.3-.3-2.7-.6-2.7-2.1c0-1.2 1-2.2 2.7-2.2c1.3 0 2.2.5 2.8 1.2l-.5.6c-.5-.7-1.3-1.1-2.3-1.1c-1.2 0-1.9.6-1.9 1.4c0 .9 1 1.1 2 1.4c1.3.3 2.8.7 2.8 2.3c0 1.3-.9 2.3-2.8 2.3c-1.3 0-2.2-.4-3-1.2l.5-.6zm20.4-3.8c0-1-.5-1.7-1.6-1.7c-.8 0-1.7.6-2.2 1.3c.05-.01 0 5.8 0 5.8h-.8v-5.4c0-1-.4-1.7-1.5-1.7c-.8 0-1.8.6-2.2 1.3c-.02 0 0 5.8 0 5.8h-.8v-7.7h.8s-.02 1.19 0 1.2c.3-.5 1.3-1.4 2.5-1.4c1.1 0 1.8.7 2 1.5c.4-.7 1.4-1.5 2.5-1.5c1.4 0 2.1.8 2.1 2.4v5.5h-.8s-.02-5.37 0-5.4zm2.8 1.6c0-2.3 1.4-4.1 3.7-4.1c2.2 0 3.7 1.8 3.7 4.1c0 2.2-1.5 4-3.7 4c-2.3 0-3.7-1.8-3.7-4zm6.5 0c0-1.7-1-3.3-2.8-3.3c-1.8 0-2.8 1.6-2.8 3.3c0 1.7 1 3.2 2.8 3.2c1.8 0 2.8-1.5 2.8-3.2zm8.5 2.6c-.6.8-1.5 1.4-2.7 1.4c-2 0-3.4-1.6-3.4-4c0-2.5 1.4-4.1 3.4-4.1c1.1 0 2.1.6 2.7 1.5v-4.2h.8v10.6h-.8v-1.2zm0-4.5c-.5-.8-1.5-1.4-2.5-1.4c-1.7 0-2.7 1.4-2.7 3.3c0 1.8 1 3.2 2.7 3.2c1 0 2-.6 2.5-1.3v-3.8zm6.5-2.2c2.3 0 3.6 1.9 3.6 4.1c.02 0 0 .2 0 .2c0 0-6.4.03-6.4 0c.1 1.7 1.2 3.1 3 3.1c1 0 1.8-.4 2.5-1.1l.4.6c-.7.7-1.7 1.2-3 1.2c-2.2 0-3.8-1.7-3.8-4c0-2.3 1.6-4.1 3.7-4.1zm-2.8 3.7h5.6c0-1.3-.9-2.9-2.8-2.9c-1.8 0-2.7 1.5-2.8 2.9zm8.4-6.4h.8v10.6h-.8V68.3zm12.1 9.7c-.7.7-1.6 1.1-2.6 1.1c-1.4 0-2.7-.9-2.7-2.6c0-1.6 1.3-2.5 2.7-2.5c1 0 1.9.3 2.6 1.1v-1.6c0-1.1-1-1.7-2.1-1.7c-1 0-1.7.3-2.4 1.1l-.5-.6c.8-.8 1.7-1.3 3-1.3c1.5 0 2.8.8 2.8 2.5c-.02 0 0 5.4 0 5.4h-.8s-.04-.9 0-.9zm0-2.3c-.6-.7-1.4-1.1-2.4-1.1c-1.2 0-2.1.9-2.1 1.9c0 1.1.9 1.9 2.1 1.9c1 0 1.8-.3 2.4-1v-1.7zm8.4-2c0-1.5-.8-1.9-1.9-1.9c-1 0-2 .6-2.5 1.3c.02 0 0 5.8 0 5.8h-.8v-7.7h.8s.02 1.19 0 1.2c.6-.7 1.7-1.4 2.8-1.4c1.5 0 2.4.8 2.4 2.5v5.4h-.8s-.02-5.18 0-5.2zm8.9 4c-.6.8-1.6 1.4-2.7 1.4c-2 0-3.4-1.6-3.4-4c0-2.5 1.4-4.1 3.4-4.1c1.1 0 2.1.6 2.7 1.5c-.03-.03 0-4.2 0-4.2h.8v10.6h-.8s-.03-1.22 0-1.2zm0-4.5c-.5-.8-1.5-1.4-2.6-1.4c-1.7 0-2.6 1.4-2.6 3.3c0 1.8.9 3.2 2.6 3.2c1.1 0 2.1-.6 2.6-1.3v-3.8zm6.8.4c0-3.2 2.4-5.5 5.4-5.5c1.7 0 2.9.8 3.8 1.9l-.7.5c-.7-.9-1.8-1.5-3.1-1.5c-2.5 0-4.4 1.8-4.4 4.6c0 2.7 1.9 4.7 4.4 4.7c1.3 0 2.4-.7 3.1-1.6l.7.5c-.9 1.2-2.1 1.9-3.8 1.9c-3 0-5.4-2.2-5.4-5.5zm16.1 4.2c-.7.7-1.7 1.3-2.8 1.3c-1.6 0-2.4-.7-2.4-2.5v-5.4h.8s.02 5.24 0 5.2c0 1.5.8 1.9 1.9 1.9c1 0 2-.5 2.5-1.2c-.03-.03 0-5.9 0-5.9h.8v7.7h-.8s-.03-1.13 0-1.1zm3-.5c.5.6 1.4 1.1 2.5 1.1c1.3 0 2.1-.6 2.1-1.5c0-1-1.1-1.3-2.2-1.6c-1.3-.3-2.7-.6-2.7-2.1c0-1.2 1-2.2 2.8-2.2c1.3 0 2.1.5 2.7 1.2l-.5.6c-.4-.7-1.2-1.1-2.2-1.1c-1.2 0-2 .6-2 1.4c0 .9 1 1.1 2.1 1.4c1.3.3 2.8.7 2.8 2.3c0 1.3-1 2.3-2.9 2.3c-1.2 0-2.2-.4-3-1.2l.5-.6zm7.5.1V72h-1.3v-.8h1.3v-2.1h.8v2.1h1.6v.8H523s.04 5.3 0 5.3c0 .6.3 1 .8 1c.4 0 .7-.1.9-.3l.3.6c-.3.3-.7.5-1.3.5c-1 0-1.5-.6-1.5-1.7zm3.6-2.3c0-2.3 1.5-4.1 3.7-4.1c2.3 0 3.7 1.8 3.7 4.1c0 2.2-1.4 4-3.7 4c-2.2 0-3.7-1.8-3.7-4zm6.5 0c0-1.7-1-3.3-2.8-3.3c-1.8 0-2.8 1.6-2.8 3.3c0 1.7 1 3.2 2.8 3.2c1.8 0 2.8-1.5 2.8-3.2zm12-1.6c0-1-.5-1.7-1.5-1.7c-.9 0-1.8.6-2.2 1.3c-.04-.01 0 5.8 0 5.8h-.9s.02-5.37 0-5.4c0-1-.4-1.7-1.5-1.7c-.8 0-1.8.6-2.2 1.3v5.8h-.8v-7.7h.8v1.2c.3-.5 1.4-1.4 2.5-1.4c1.2 0 1.8.7 2 1.5c.4-.7 1.4-1.5 2.5-1.5c1.4 0 2.1.8 2.1 2.4c.02-.03 0 5.5 0 5.5h-.8v-5.4zm6.5-2.5c2.3 0 3.6 1.9 3.6 4.1v.2s-6.41.03-6.4 0c.1 1.7 1.2 3.1 3 3.1c1 0 1.8-.4 2.5-1.1l.4.6c-.7.7-1.7 1.2-3 1.2c-2.2 0-3.8-1.7-3.8-4c0-2.3 1.6-4.1 3.7-4.1zm-2.8 3.7h5.6c0-1.3-.9-2.9-2.8-2.9c-1.8 0-2.7 1.5-2.8 2.9zm8.4-3.5h.8v1.3c.7-.8 1.5-1.4 2.6-1.4v.9c-.1 0-.3-.1-.4-.1c-.8 0-1.8.7-2.2 1.4v5.6h-.8v-7.7zm8.6 6.1c.5.6 1.4 1.1 2.5 1.1c1.3 0 2.1-.6 2.1-1.5c0-1-1.1-1.3-2.2-1.6c-1.3-.3-2.7-.6-2.7-2.1c0-1.2 1-2.2 2.8-2.2c1.3 0 2.1.5 2.7 1.2l-.5.6c-.4-.7-1.2-1.1-2.2-1.1c-1.2 0-2 .6-2 1.4c0 .9 1 1.1 2.1 1.4c1.3.3 2.8.7 2.8 2.3c0 1.3-1 2.3-2.9 2.3c-1.2 0-2.2-.4-3-1.2l.5-.6zm12.2.7c-.7.7-1.5 1.1-2.6 1.1c-1.3 0-2.7-.9-2.7-2.6c0-1.6 1.4-2.5 2.7-2.5c1.1 0 1.9.3 2.6 1.1v-1.6c0-1.1-.9-1.7-2-1.7c-1 0-1.7.3-2.4 1.1l-.5-.6c.8-.8 1.7-1.3 2.9-1.3c1.6 0 2.8.8 2.8 2.5c.04 0 0 5.4 0 5.4h-.8s.02-.9 0-.9zm0-2.3c-.5-.7-1.4-1.1-2.3-1.1c-1.3 0-2.1.9-2.1 1.9c0 1.1.8 1.9 2.1 1.9c.9 0 1.8-.3 2.3-1v-1.7zm3.4 1.7c.02.02 0-5.4 0-5.4h-1.3v-.8h1.3v-2.1h.9v2.1h1.5v.8h-1.5s-.04 5.3 0 5.3c0 .6.2 1 .8 1c.3 0 .6-.1.8-.3l.3.6c-.3.3-.6.5-1.3.5c-1 0-1.5-.6-1.5-1.7zm3.8-8.1c0-.4.3-.6.7-.6c.3 0 .6.2.6.6c0 .3-.3.6-.6.6c-.4 0-.7-.3-.7-.6zm.3 1.9h.8v7.7h-.8v-7.7zm3 6.1c.5.6 1.4 1.1 2.5 1.1c1.3 0 2.1-.6 2.1-1.5c0-1-1.1-1.3-2.2-1.6c-1.3-.3-2.7-.6-2.7-2.1c0-1.2 1-2.2 2.7-2.2c1.4 0 2.2.5 2.8 1.2l-.5.6c-.4-.7-1.2-1.1-2.3-1.1c-1.1 0-1.9.6-1.9 1.4c0 .9 1 1.1 2.1 1.4c1.3.3 2.8.7 2.8 2.3c0 1.3-1 2.3-2.9 2.3c-1.2 0-2.2-.4-3-1.2l.5-.6zm7.6-5.3H594v-.8h1.3v-.7c0-1.5.8-2.4 2.1-2.4c.4 0 .7.1 1 .3l-.2.6c-.2-.1-.4-.1-.7-.1c-.9 0-1.4.6-1.4 1.6c.03.03 0 .7 0 .7h1.6v.8h-1.6v6.9h-.8V72zm8.7 6c-.7.7-1.6 1.1-2.6 1.1c-1.4 0-2.7-.9-2.7-2.6c0-1.6 1.3-2.5 2.7-2.5c1 0 1.9.3 2.6 1.1v-1.6c0-1.1-1-1.7-2.1-1.7c-1 0-1.7.3-2.4 1.1l-.5-.6c.8-.8 1.7-1.3 3-1.3c1.6 0 2.8.8 2.8 2.5v5.4h-.8s-.04-.9 0-.9zm0-2.3c-.6-.7-1.4-1.1-2.4-1.1c-1.2 0-2.1.9-2.1 1.9c0 1.1.9 1.9 2.1 1.9c1 0 1.8-.3 2.4-1v-1.7zm6.5-4.7c1.3 0 2.1.6 2.7 1.3l-.6.5c-.5-.7-1.2-1-2.1-1c-1.8 0-2.9 1.4-2.9 3.3c0 1.8 1.1 3.2 2.9 3.2c.9 0 1.6-.3 2.1-1l.6.5c-.6.8-1.4 1.3-2.7 1.3c-2.3 0-3.7-1.8-3.7-4c0-2.3 1.4-4.1 3.7-4.1zm4.5 6.4c.05.02 0-5.4 0-5.4h-1.2v-.8h1.2v-2.1h.9v2.1h1.5v.8h-1.5v5.3c0 .6.2 1 .8 1c.3 0 .7-.1.8-.3l.4.6c-.3.3-.7.5-1.3.5c-1.1 0-1.6-.6-1.6-1.7zm3.9-8.1c0-.4.3-.6.6-.6c.4 0 .6.2.6.6c0 .3-.2.6-.6.6c-.3 0-.6-.3-.6-.6zm.2 1.9h.8v7.7h-.8v-7.7zm2.8 3.9c0-2.3 1.4-4.1 3.7-4.1c2.3 0 3.7 1.8 3.7 4.1c0 2.2-1.4 4-3.7 4c-2.3 0-3.7-1.8-3.7-4zm6.5 0c0-1.7-1-3.3-2.8-3.3c-1.8 0-2.8 1.6-2.8 3.3c0 1.7 1 3.2 2.8 3.2c1.8 0 2.8-1.5 2.8-3.2zm8-1.4c0-1.5-.7-1.9-1.8-1.9c-1 0-2 .6-2.5 1.3c-.03 0 0 5.8 0 5.8h-.9v-7.7h.9s-.03 1.19 0 1.2c.5-.7 1.6-1.4 2.7-1.4c1.6 0 2.5.8 2.5 2.5c-.05.03 0 5.4 0 5.4h-.9s.03-5.18 0-5.2zm3.7 4c.4 0 .7.3.7.6c0 .4-.3.8-.7.8c-.4 0-.7-.4-.7-.8c0-.3.3-.6.7-.6z" stroke="none" fill="#000"/></g><g id="Polygon104351"><path d="m4 50.1H.6v-.9h7.8v.9H4.9v9.7h-.9v-9.7zM7.7 56c0-2.2 1.4-4 3.7-4c2.2 0 3.7 1.8 3.7 4c0 2.2-1.5 4-3.7 4c-2.3 0-3.7-1.8-3.7-4zm6.5 0c0-1.7-1-3.3-2.8-3.3c-1.8 0-2.8 1.6-2.8 3.3c0 1.7 1 3.3 2.8 3.3c1.8 0 2.8-1.6 2.8-3.3zm8.5 2.6c-.5.8-1.5 1.4-2.7 1.4c-2 0-3.4-1.5-3.4-4c0-2.4 1.4-4 3.4-4c1.1 0 2.1.5 2.7 1.4v-4.2h.8v10.6h-.8v-1.2zm0-4.5c-.4-.7-1.4-1.4-2.5-1.4c-1.7 0-2.7 1.5-2.7 3.3c0 1.9 1 3.3 2.7 3.3c1.1 0 2.1-.6 2.5-1.4v-3.8zm8.1 4.8c-.7.8-1.5 1.1-2.6 1.1c-1.3 0-2.7-.9-2.7-2.5c0-1.7 1.4-2.5 2.7-2.5c1.1 0 1.9.3 2.6 1v-1.5c0-1.2-.9-1.8-2-1.8c-1 0-1.7.3-2.4 1.1l-.5-.5c.8-.9 1.7-1.3 2.9-1.3c1.6 0 2.9.7 2.9 2.4c-.05.04 0 5.4 0 5.4h-.9s.03-.86 0-.9zm0-2.3c-.5-.7-1.4-1-2.3-1c-1.3 0-2.1.8-2.1 1.9c0 1.1.8 1.9 2.1 1.9c.9 0 1.8-.4 2.3-1.1v-1.7zm3.6 5.6c.5 0 .8-.2 1.1-.9c.03-.03.6-1.4.6-1.4l-3.2-7.7h.9l2.8 6.7l2.8-6.7h.9s-3.96 9.33-4 9.3c-.4 1-1 1.5-1.9 1.5c-.3 0-.6-.1-.8-.2l.1-.7c.2.1.5.1.7.1zm5.8-.8c.6-.4.9-1 1-1.5l-.2.1c-.4 0-.6-.3-.6-.7c0-.4.3-.7.6-.7c.5 0 .8.4.8 1c0 .9-.5 1.7-1.1 2.2l-.5-.4zm10.5-5.9h-2.3v4.3h-.9V49.2s3.92.05 3.9 0c1.9 0 3.2 1.2 3.2 3.1c0 2-1.3 3-2.9 3.1c.01-.01 3.1 4.4 3.1 4.4h-1.1l-3-4.3zm.6-5.4c.04-.03-2.9 0-2.9 0v4.5s2.94.03 2.9 0c1.4 0 2.4-.9 2.4-2.3c0-1.3-1-2.2-2.4-2.2zm10 8.8c-.7.8-1.6 1.1-2.6 1.1c-1.4 0-2.7-.9-2.7-2.5c0-1.7 1.3-2.5 2.7-2.5c1 0 1.9.3 2.6 1v-1.5c0-1.2-.9-1.8-2.1-1.8c-.9 0-1.7.3-2.4 1.1l-.5-.5c.8-.9 1.7-1.3 3-1.3c1.6 0 2.8.7 2.8 2.4v5.4h-.8s-.03-.86 0-.9zm0-2.3c-.6-.7-1.4-1-2.3-1c-1.3 0-2.1.8-2.1 1.9c0 1.1.8 1.9 2.1 1.9c.9 0 1.7-.4 2.3-1.1v-1.7zm3-6.4c0-.3.3-.6.6-.6c.4 0 .7.3.7.6c0 .4-.3.7-.7.7c-.3 0-.6-.3-.6-.7zm.2 2h.8v7.6h-.8v-7.6zm3.1 6c.5.6 1.4 1.1 2.5 1.1c1.2 0 2-.6 2-1.5c0-1-1-1.3-2.2-1.5c-1.2-.4-2.6-.7-2.6-2.2c0-1.2.9-2.1 2.7-2.1c1.3 0 2.2.5 2.7 1.1l-.4.6c-.5-.6-1.3-1-2.3-1c-1.2 0-1.9.6-1.9 1.4c0 .8 1 1.1 2 1.3c1.3.4 2.8.7 2.8 2.4c0 1.2-1 2.2-2.9 2.2c-1.2 0-2.2-.3-2.9-1.2l.5-.6zm7.1-8c0-.3.3-.6.6-.6c.3 0 .6.3.6.6c0 .4-.3.7-.6.7c-.3 0-.6-.3-.6-.7zm.2 2h.8v7.6h-.8v-7.6zm8.4 2.5c0-1.5-.7-2-1.9-2c-.9 0-2 .7-2.5 1.3c.05.04 0 5.8 0 5.8h-.8v-7.6h.8s.05 1.13 0 1.1c.6-.6 1.7-1.3 2.8-1.3c1.6 0 2.4.7 2.4 2.5c.02-.03 0 5.3 0 5.3h-.8v-5.1zm3.7 6.5c.7.8 1.4 1 2.6 1c1.4 0 2.6-.7 2.6-2.4v-1.2c-.5.7-1.5 1.4-2.7 1.4c-2 0-3.4-1.5-3.4-4c0-2.4 1.4-4 3.4-4c1.1 0 2.1.5 2.7 1.4v-1.2h.8s.03 7.56 0 7.6c0 2.3-1.6 3.2-3.4 3.2c-1.3 0-2.1-.3-3-1.2l.4-.6zm5.2-7.1c-.5-.7-1.5-1.4-2.5-1.4c-1.7 0-2.7 1.4-2.7 3.3c0 1.9 1 3.3 2.7 3.3c1 0 2-.7 2.5-1.4v-3.8zm6.4.5c0-3.3 2.3-5.5 5.3-5.5c1.7 0 3 .7 3.9 1.8l-.8.5c-.6-.9-1.8-1.5-3.1-1.5c-2.5 0-4.4 1.9-4.4 4.7c0 2.7 1.9 4.6 4.4 4.6c1.3 0 2.5-.6 3.1-1.5l.8.4c-.9 1.2-2.2 1.9-3.9 1.9c-3 0-5.3-2.2-5.3-5.4zm15.7 4.3c-.7.8-1.5 1.1-2.6 1.1c-1.3 0-2.7-.9-2.7-2.5c0-1.7 1.4-2.5 2.7-2.5c1.1 0 1.9.3 2.6 1v-1.5c0-1.2-.9-1.8-2-1.8c-1 0-1.7.3-2.4 1.1l-.5-.5c.8-.9 1.7-1.3 2.9-1.3c1.6 0 2.9.7 2.9 2.4c-.04.04 0 5.4 0 5.4h-.9s.03-.86 0-.9zm0-2.3c-.5-.7-1.4-1-2.3-1c-1.3 0-2.1.8-2.1 1.9c0 1.1.8 1.9 2.1 1.9c.9 0 1.8-.4 2.3-1.1v-1.7zm8.4-1.9c0-1.5-.7-2-1.8-2c-1 0-2 .7-2.5 1.3v5.8h-.8v-7.6h.8v1.1c.6-.6 1.6-1.3 2.8-1.3c1.5 0 2.4.7 2.4 2.5c-.03-.03 0 5.3 0 5.3h-.9s.05-5.14 0-5.1zm6.5-2.7c2.4 0 3.7 1.8 3.7 4c-.04.04 0 .3 0 .3c0 0-6.45-.03-6.5 0c.1 1.6 1.2 3 3 3c1 0 1.9-.3 2.6-1l.4.5c-.8.8-1.7 1.2-3 1.2c-2.3 0-3.9-1.6-3.9-4c0-2.2 1.6-4 3.7-4zm-2.8 3.6h5.6c0-1.3-.8-2.9-2.8-2.9c-1.8 0-2.7 1.6-2.8 2.9zm9.6-5.5c0 .9-.5 1.7-1.1 2.2l-.5-.4c.5-.4.9-1 1-1.5h-.2c-.4 0-.7-.2-.7-.6c0-.4.4-.7.7-.7c.5 0 .8.4.8 1zm1.5 8.1c.5.6 1.4 1.1 2.4 1.1c1.3 0 2.1-.6 2.1-1.5c0-1-1.1-1.3-2.2-1.5c-1.2-.4-2.6-.7-2.6-2.2c0-1.2.9-2.1 2.7-2.1c1.3 0 2.2.5 2.7 1.1l-.4.6c-.5-.6-1.3-1-2.3-1c-1.2 0-1.9.6-1.9 1.4c0 .8.9 1.1 2 1.3c1.3.4 2.8.7 2.8 2.4c0 1.2-1 2.2-2.9 2.2c-1.2 0-2.2-.3-2.9-1.2l.5-.6zm16-3.6c0-1.5-.8-1.9-1.9-1.9c-1 0-2 .7-2.5 1.3v5.8h-.8V49.2h.8v4.1c.6-.6 1.7-1.3 2.8-1.3c1.5 0 2.4.7 2.4 2.4v5.4h-.8s-.04-5.19 0-5.2zm8.1 4.3c-.7.8-1.6 1.1-2.6 1.1c-1.3 0-2.7-.9-2.7-2.5c0-1.7 1.3-2.5 2.7-2.5c1 0 1.9.3 2.6 1v-1.5c0-1.2-.9-1.8-2.1-1.8c-.9 0-1.7.3-2.4 1.1l-.4-.5c.7-.9 1.6-1.3 2.9-1.3c1.6 0 2.8.7 2.8 2.4v5.4h-.8s-.02-.86 0-.9zm0-2.3c-.6-.7-1.4-1-2.3-1c-1.3 0-2.1.8-2.1 1.9c0 1.1.8 1.9 2.1 1.9c.9 0 1.7-.4 2.3-1.1v-1.7zm3 1.6c.5.6 1.4 1.1 2.5 1.1c1.3 0 2.1-.6 2.1-1.5c0-1-1.1-1.3-2.2-1.5c-1.3-.4-2.7-.7-2.7-2.2c0-1.2 1-2.1 2.8-2.1c1.3 0 2.1.5 2.7 1.1l-.5.6c-.4-.6-1.2-1-2.2-1c-1.2 0-2 .6-2 1.4c0 .8 1 1.1 2.1 1.3c1.3.4 2.8.7 2.8 2.4c0 1.2-1 2.2-2.9 2.2c-1.2 0-2.2-.3-2.9-1.2l.4-.6zm20-3.7c0-1.1-.5-1.8-1.6-1.8c-.8 0-1.7.6-2.1 1.3c-.05.03 0 5.8 0 5.8h-.9v-5.3c0-1.1-.4-1.8-1.5-1.8c-.8 0-1.8.6-2.2 1.3c-.02.04 0 5.8 0 5.8h-.8v-7.6h.8s-.02 1.13 0 1.1c.3-.5 1.3-1.3 2.5-1.3c1.2 0 1.8.7 2 1.4c.4-.7 1.4-1.4 2.5-1.4c1.4 0 2.1.8 2.1 2.3v5.5h-.8v-5.3zm2.8 1.5c0-2.2 1.4-4 3.7-4c2.2 0 3.7 1.8 3.7 4c0 2.2-1.5 4-3.7 4c-2.3 0-3.7-1.8-3.7-4zm6.5 0c0-1.7-1-3.3-2.8-3.3c-1.8 0-2.8 1.6-2.8 3.3c0 1.7 1 3.3 2.8 3.3c1.8 0 2.8-1.6 2.8-3.3zm2.8-3.8h.9s-.04 1.29 0 1.3c.6-.9 1.5-1.5 2.6-1.5v.9h-.5c-.7 0-1.8.7-2.1 1.3c-.04.05 0 5.6 0 5.6h-.9v-7.6zm8.2-.2c2.3 0 3.6 1.8 3.6 4v.3s-6.43-.03-6.4 0c.1 1.6 1.2 3 3 3c.9 0 1.8-.3 2.5-1l.4.5c-.7.8-1.7 1.2-3 1.2c-2.2 0-3.8-1.6-3.8-4c0-2.2 1.5-4 3.7-4zm-2.8 3.6h5.5c0-1.3-.8-2.9-2.7-2.9c-1.9 0-2.8 1.6-2.8 2.9zm12 2.8c.03-.04 0-5.5 0-5.5h-1.2v-.7h1.2v-2.1h.9v2.1h1.5v.7H215s-.03 5.34 0 5.3c0 .7.2 1.1.8 1.1c.3 0 .6-.2.8-.4l.3.7c-.3.2-.6.4-1.3.4c-1 0-1.5-.6-1.5-1.6zm9.3-3.8c0-1.5-.8-1.9-1.9-1.9c-1 0-2 .7-2.5 1.3v5.8h-.8V49.2h.8v4.1c.6-.6 1.7-1.3 2.8-1.3c1.5 0 2.4.7 2.4 2.4c-.02.04 0 5.4 0 5.4h-.8s-.05-5.19 0-5.2zm8.1 4.3c-.7.8-1.6 1.1-2.6 1.1c-1.4 0-2.7-.9-2.7-2.5c0-1.7 1.3-2.5 2.7-2.5c1 0 1.9.3 2.6 1v-1.5c0-1.2-1-1.8-2.1-1.8c-.9 0-1.7.3-2.4 1.1l-.5-.5c.8-.9 1.7-1.3 3-1.3c1.6 0 2.8.7 2.8 2.4v5.4h-.8s-.03-.86 0-.9zm0-2.3c-.6-.7-1.4-1-2.4-1c-1.2 0-2 .8-2 1.9c0 1.1.8 1.9 2 1.9c1 0 1.8-.4 2.4-1.1v-1.7zm8.4-1.9c0-1.5-.8-2-1.9-2c-1 0-2 .7-2.5 1.3c.03.04 0 5.8 0 5.8h-.8v-7.6h.8s.03 1.13 0 1.1c.6-.6 1.7-1.3 2.8-1.3c1.6 0 2.4.7 2.4 2.5v5.3h-.8v-5.1zm7.2 3c.7 1 1.6 1.5 3 1.5c1.5 0 2.6-1.1 2.6-2.6c0-1.6-1.1-2.5-2.6-2.5c-1 0-1.8.3-2.6 1c.04-.01-.7-.3-.7-.3v-5.6h6.2v.9h-5.2s-.04 4.12 0 4.1c.5-.5 1.4-1 2.5-1c1.8 0 3.4 1.2 3.4 3.4c0 2.1-1.7 3.4-3.6 3.4c-1.8 0-2.8-.6-3.6-1.7l.6-.6zm12.2-8.6c2.8 0 3.9 2.9 3.9 5.5c0 2.5-1.1 5.4-3.9 5.4c-2.9 0-3.9-2.9-3.9-5.4c0-2.6 1-5.5 3.9-5.5zm0 .8c-2.3 0-3 2.5-3 4.7c0 2.1.7 4.6 3 4.6c2.2 0 2.9-2.5 2.9-4.6c0-2.2-.7-4.7-2.9-4.7zm9.5-.8c2.8 0 3.9 2.9 3.9 5.5c0 2.5-1.1 5.4-3.9 5.4c-2.9 0-3.9-2.9-3.9-5.4c0-2.6 1-5.5 3.9-5.5zm0 .8c-2.3 0-3 2.5-3 4.7c0 2.1.7 4.6 3 4.6c2.2 0 2.9-2.5 2.9-4.6c0-2.2-.7-4.7-2.9-4.7zm12.7 5.6h-2.3v4.3h-.9V49.2s3.91.05 3.9 0c1.8 0 3.2 1.2 3.2 3.1c0 2-1.3 3-2.9 3.1l3.1 4.4h-1.1l-3-4.3zm.6-5.4c.03-.03-2.9 0-2.9 0v4.5s2.93.03 2.9 0c1.4 0 2.4-.9 2.4-2.3c0-1.3-1-2.2-2.4-2.2zm8.2 1.9c2.3 0 3.6 1.8 3.6 4v.3s-6.42-.03-6.4 0c.1 1.6 1.2 3 3 3c.9 0 1.8-.3 2.5-1l.4.5c-.7.8-1.7 1.2-3 1.2c-2.2 0-3.8-1.6-3.8-4c0-2.2 1.5-4 3.7-4zm-2.8 3.6h5.6c-.1-1.3-.9-2.9-2.8-2.9c-1.9 0-2.8 1.6-2.8 2.9zm8.2 2.6c.5.6 1.4 1.1 2.5 1.1c1.3 0 2-.6 2-1.5c0-1-1-1.3-2.1-1.5c-1.3-.4-2.7-.7-2.7-2.2c0-1.2 1-2.1 2.7-2.1c1.3 0 2.2.5 2.8 1.1l-.5.6c-.5-.6-1.3-1-2.3-1c-1.2 0-1.9.6-1.9 1.4c0 .8 1 1.1 2 1.3c1.3.4 2.8.7 2.8 2.4c0 1.2-.9 2.2-2.8 2.2c-1.3 0-2.2-.3-3-1.2l.5-.6zm7.5.2c-.04-.04 0-5.5 0-5.5h-1.3v-.7h1.3v-2.1h.8v2.1h1.6v.7H304v5.3c0 .7.2 1.1.8 1.1c.4 0 .7-.2.8-.4l.4.7c-.3.2-.7.4-1.3.4c-1.1 0-1.5-.6-1.5-1.6zm8.9.5c-.7.8-1.6 1.1-2.6 1.1c-1.3 0-2.7-.9-2.7-2.5c0-1.7 1.3-2.5 2.7-2.5c1 0 1.9.3 2.6 1v-1.5c0-1.2-.9-1.8-2.1-1.8c-.9 0-1.7.3-2.4 1.1l-.4-.5c.7-.9 1.6-1.3 2.9-1.3c1.6 0 2.8.7 2.8 2.4v5.4h-.8s-.02-.86 0-.9zm0-2.3c-.6-.7-1.4-1-2.3-1c-1.3 0-2.1.8-2.1 1.9c0 1.1.8 1.9 2.1 1.9c.9 0 1.7-.4 2.3-1.1v-1.7zm8.4 2.1c-.6.7-1.7 1.3-2.8 1.3c-1.5 0-2.4-.7-2.4-2.4c.02-.03 0-5.4 0-5.4h.8s.05 5.18 0 5.2c0 1.5.8 1.9 1.9 1.9c1 0 2-.6 2.5-1.3v-5.8h.8v7.6h-.8v-1.1zm3.2-6.5h.9s-.04 1.29 0 1.3c.6-.9 1.5-1.5 2.6-1.5v.9h-.5c-.7 0-1.8.7-2.1 1.3c-.04.05 0 5.6 0 5.6h-.9v-7.6zm9.8 6.7c-.7.8-1.6 1.1-2.6 1.1c-1.3 0-2.7-.9-2.7-2.5c0-1.7 1.3-2.5 2.7-2.5c1 0 1.9.3 2.6 1v-1.5c0-1.2-.9-1.8-2.1-1.8c-.9 0-1.7.3-2.4 1.1l-.4-.5c.8-.9 1.6-1.3 2.9-1.3c1.6 0 2.8.7 2.8 2.4v5.4h-.8s-.01-.86 0-.9zm0-2.3c-.6-.7-1.4-1-2.3-1c-1.3 0-2.1.8-2.1 1.9c0 1.1.8 1.9 2.1 1.9c.9 0 1.7-.4 2.3-1.1v-1.7zm8.4-1.9c0-1.5-.7-2-1.9-2c-.9 0-2 .7-2.4 1.3c-.05.04 0 5.8 0 5.8h-.9v-7.6h.9s-.05 1.13 0 1.1c.5-.6 1.6-1.3 2.7-1.3c1.6 0 2.4.7 2.4 2.5c.03-.03 0 5.3 0 5.3h-.8v-5.1zm3.4 3.7v-5.5H344v-.7h1.3v-2.1h.8v2.1h1.6v.7h-1.6s.05 5.34 0 5.3c0 .7.3 1.1.8 1.1c.4 0 .7-.2.9-.4l.3.7c-.3.2-.7.4-1.3.4c-1 0-1.5-.6-1.5-1.6zm3.9-.2c.5.6 1.4 1.1 2.5 1.1c1.2 0 2-.6 2-1.5c0-1-1-1.3-2.2-1.5c-1.2-.4-2.6-.7-2.6-2.2c0-1.2.9-2.1 2.7-2.1c1.3 0 2.2.5 2.7 1.1l-.4.6c-.5-.6-1.3-1-2.3-1c-1.2 0-1.9.6-1.9 1.4c0 .8 1 1.1 2 1.3c1.3.4 2.8.7 2.8 2.4c0 1.2-1 2.2-2.9 2.2c-1.2 0-2.1-.3-2.9-1.2l.5-.6zm10.6-8c0-.3.3-.6.6-.6c.4 0 .6.3.6.6c0 .4-.2.7-.6.7c-.3 0-.6-.3-.6-.7zm.2 2h.8v7.6h-.8v-7.6zm8.4 2.5c0-1.5-.7-2-1.8-2c-1 0-2 .7-2.5 1.3c-.04.04 0 5.8 0 5.8h-.9v-7.6h.9s-.04 1.13 0 1.1c.5-.6 1.6-1.3 2.7-1.3c1.6 0 2.4.7 2.4 2.5c.04-.03 0 5.3 0 5.3h-.8v-5.1zm6.4 4.4c3.6-2.9 6-5 6-7c0-1.6-1.3-2.2-2.4-2.2c-1.4 0-2.4.6-2.9 1.4l-.7-.6c.8-1 2.1-1.6 3.6-1.6c1.5 0 3.3.9 3.3 3c0 2.3-2.5 4.4-5.5 6.9c-.02.02 5.5 0 5.5 0v.8h-6.9s-.04-.7 0-.7zm14.5-9h-5.8v-.9h6.9v.7l-4.5 9.9h-1l4.4-9.7zm6.1 8.1c.5.6 1.4 1.1 2.5 1.1c1.3 0 2-.6 2-1.5c0-1-1-1.3-2.1-1.5c-1.3-.4-2.7-.7-2.7-2.2c0-1.2 1-2.1 2.7-2.1c1.3 0 2.2.5 2.8 1.1l-.5.6c-.5-.6-1.3-1-2.3-1c-1.2 0-1.9.6-1.9 1.4c0 .8 1 1.1 2 1.3c1.3.4 2.8.7 2.8 2.4c0 1.2-.9 2.2-2.8 2.2c-1.3 0-2.2-.3-3-1.2l.5-.6zm7.5.2c-.05-.04 0-5.5 0-5.5h-1.3v-.7h1.3v-2.1h.8v2.1h1.6v.7h-1.6v5.3c0 .7.2 1.1.8 1.1c.4 0 .7-.2.8-.4l.4.7c-.3.2-.7.4-1.3.4c-1.1 0-1.5-.6-1.5-1.6zm8.9.5c-.7.8-1.6 1.1-2.6 1.1c-1.3 0-2.7-.9-2.7-2.5c0-1.7 1.3-2.5 2.7-2.5c1 0 1.9.3 2.6 1v-1.5c0-1.2-.9-1.8-2.1-1.8c-.9 0-1.7.3-2.4 1.1l-.4-.5c.7-.9 1.6-1.3 2.9-1.3c1.6 0 2.8.7 2.8 2.4v5.4h-.8s-.02-.86 0-.9zm0-2.3c-.6-.7-1.4-1-2.3-1c-1.3 0-2.1.8-2.1 1.9c0 1.1.8 1.9 2.1 1.9c.9 0 1.7-.4 2.3-1.1v-1.7zm3.4 1.8c-.02-.04 0-5.5 0-5.5h-1.3v-.7h1.3v-2.1h.8v2.1h1.6v.7H416s.02 5.34 0 5.3c0 .7.3 1.1.8 1.1c.4 0 .7-.2.9-.4l.3.7c-.3.2-.7.4-1.3.4c-1 0-1.5-.6-1.5-1.6zm7.3-6.4c2.3 0 3.6 1.8 3.6 4v.3s-6.41-.03-6.4 0c.1 1.6 1.2 3 3 3c1 0 1.8-.3 2.5-1l.4.5c-.7.8-1.7 1.2-3 1.2c-2.2 0-3.8-1.6-3.8-4c0-2.2 1.6-4 3.7-4zm-2.8 3.6h5.6c-.1-1.3-.9-2.9-2.8-2.9c-1.8 0-2.7 1.6-2.8 2.9zm8.2 2.6c.5.6 1.4 1.1 2.5 1.1c1.3 0 2-.6 2-1.5c0-1-1-1.3-2.1-1.5c-1.3-.4-2.7-.7-2.7-2.2c0-1.2 1-2.1 2.7-2.1c1.3 0 2.2.5 2.8 1.1l-.5.6c-.4-.6-1.3-1-2.3-1c-1.2 0-1.9.6-1.9 1.4c0 .8 1 1.1 2 1.3c1.4.4 2.8.7 2.8 2.4c0 1.2-.9 2.2-2.8 2.2c-1.3 0-2.2-.3-3-1.2l.5-.6zm15.7.7c-.7.8-1.6 1.1-2.6 1.1c-1.3 0-2.7-.9-2.7-2.5c0-1.7 1.3-2.5 2.7-2.5c1 0 1.9.3 2.6 1v-1.5c0-1.2-.9-1.8-2.1-1.8c-.9 0-1.7.3-2.4 1.1l-.4-.5c.8-.9 1.6-1.3 2.9-1.3c1.6 0 2.8.7 2.8 2.4v5.4h-.8s-.01-.86 0-.9zm0-2.3c-.6-.7-1.4-1-2.3-1c-1.3 0-2.1.8-2.1 1.9c0 1.1.8 1.9 2.1 1.9c.9 0 1.7-.4 2.3-1.1v-1.7zm8.4-1.9c0-1.5-.7-2-1.9-2c-.9 0-2 .7-2.4 1.3c-.05.04 0 5.8 0 5.8h-.9v-7.6h.9s-.05 1.13 0 1.1c.5-.6 1.6-1.3 2.7-1.3c1.6 0 2.4.7 2.4 2.5c.03-.03 0 5.3 0 5.3h-.8v-5.1zm8.9 3.9c-.5.8-1.5 1.4-2.7 1.4c-2 0-3.4-1.5-3.4-4c0-2.4 1.4-4 3.4-4c1.1 0 2.1.5 2.7 1.4v-4.2h.8v10.6h-.8v-1.2zm0-4.5c-.4-.7-1.4-1.4-2.5-1.4c-1.7 0-2.7 1.5-2.7 3.3c0 1.9 1 3.3 2.7 3.3c1.1 0 2.1-.6 2.5-1.4v-3.8zm7-1.2h-1.2v-.7h1.2s.03-.73 0-.7c0-1.5.8-2.4 2.1-2.4c.4 0 .7.1 1 .2l-.2.7c-.2-.1-.4-.2-.7-.2c-.9 0-1.3.6-1.3 1.7c-.04-.03 0 .7 0 .7h1.5v.7h-1.5v6.9h-.9v-6.9zm3.8-2.7c0-.3.3-.6.6-.6c.3 0 .6.3.6.6c0 .4-.3.7-.6.7c-.3 0-.6-.3-.6-.7zm.2 2h.8v7.6h-.8v-7.6zm2 0h.9l2.8 6.7l2.8-6.7h.9l-3.2 7.6h-.9l-3.3-7.6zm11.9-.2c2.4 0 3.7 1.8 3.7 4c-.05.04 0 .3 0 .3c0 0-6.46-.03-6.5 0c.1 1.6 1.2 3 3 3c1 0 1.9-.3 2.5-1l.5.5c-.8.8-1.8 1.2-3 1.2c-2.3 0-3.9-1.6-3.9-4c0-2.2 1.6-4 3.7-4zm-2.8 3.6h5.6c0-1.3-.9-2.9-2.8-2.9c-1.8 0-2.7 1.6-2.8 2.9zm15.2-3.6c1.3 0 2.1.5 2.7 1.3l-.5.5c-.6-.8-1.3-1.1-2.1-1.1c-1.8 0-2.9 1.5-2.9 3.3c0 1.8 1.1 3.3 2.9 3.3c.8 0 1.5-.3 2.1-1.1l.5.5c-.6.8-1.4 1.3-2.7 1.3c-2.2 0-3.7-1.8-3.7-4c0-2.2 1.5-4 3.7-4zm4 4c0-2.2 1.4-4 3.7-4c2.2 0 3.7 1.8 3.7 4c0 2.2-1.5 4-3.7 4c-2.3 0-3.7-1.8-3.7-4zm6.5 0c0-1.7-1-3.3-2.8-3.3c-1.8 0-2.8 1.6-2.8 3.3c0 1.7 1 3.3 2.8 3.3c1.8 0 2.8-1.6 2.8-3.3zm8 2.7c-.6.7-1.6 1.3-2.8 1.3c-1.5 0-2.4-.7-2.4-2.4c.03-.03 0-5.4 0-5.4h.9s-.05 5.18 0 5.2c0 1.5.7 1.9 1.8 1.9c1 0 2-.6 2.5-1.3v-5.8h.8v7.6h-.8s.01-1.09 0-1.1zm8.4-4c0-1.5-.7-2-1.8-2c-1 0-2 .7-2.5 1.3c-.03.04 0 5.8 0 5.8h-.9v-7.6h.9s-.03 1.13 0 1.1c.5-.6 1.6-1.3 2.7-1.3c1.6 0 2.4.7 2.4 2.5c.05-.03 0 5.3 0 5.3h-.8s.02-5.14 0-5.1zm3.4 3.7c.02-.04 0-5.5 0-5.5h-1.2v-.7h1.2v-2.1h.9v2.1h1.5v.7h-1.5s-.04 5.34 0 5.3c0 .7.2 1.1.8 1.1c.3 0 .6-.2.8-.4l.3.7c-.3.2-.6.4-1.3.4c-1 0-1.5-.6-1.5-1.6zm4.1-6.2h.8v1.3c.6-.9 1.5-1.5 2.6-1.5v.9h-.4c-.8 0-1.9.7-2.2 1.3v5.6h-.8v-7.6zm4.6-2c0-.3.3-.6.7-.6c.3 0 .6.3.6.6c0 .4-.3.7-.6.7c-.4 0-.7-.3-.7-.7zm.2 2h.9v7.6h-.9v-7.6zm6.5-.2c2.4 0 3.7 1.8 3.7 4c-.04.04 0 .3 0 .3c0 0-6.45-.03-6.5 0c.1 1.6 1.2 3 3 3c1 0 1.9-.3 2.6-1l.4.5c-.8.8-1.7 1.2-3 1.2c-2.3 0-3.9-1.6-3.9-4c0-2.2 1.6-4 3.7-4zm-2.8 3.6h5.6c0-1.3-.9-2.9-2.8-2.9c-1.8 0-2.7 1.6-2.8 2.9zm8.3 2.6c.4.6 1.3 1.1 2.4 1.1c1.3 0 2.1-.6 2.1-1.5c0-1-1.1-1.3-2.2-1.5c-1.2-.4-2.7-.7-2.7-2.2c0-1.2 1-2.1 2.8-2.1c1.3 0 2.2.5 2.7 1.1l-.4.6c-.5-.6-1.3-1-2.3-1c-1.2 0-2 .6-2 1.4c0 .8 1 1.1 2.1 1.3c1.3.4 2.8.7 2.8 2.4c0 1.2-1 2.2-2.9 2.2c-1.2 0-2.2-.3-2.9-1.2l.5-.6zm6.9 3.2c.5-.4.9-1 .9-1.5l-.1.1c-.4 0-.7-.3-.7-.7c0-.4.3-.7.7-.7c.4 0 .8.4.8 1c0 .9-.5 1.7-1.1 2.2l-.5-.4zm11.6-8.1l-2.1 6.5h-.8l-2.5-7.6h.9l2 6.5l2.2-6.5h.7l2.1 6.5l2.1-6.5h.9l-2.5 7.6h-.8l-2.2-6.5zm6.6-3.1c0-.3.3-.6.7-.6c.3 0 .6.3.6.6c0 .4-.3.7-.6.7c-.4 0-.7-.3-.7-.7zm.3 2h.8v7.6h-.8v-7.6zm3.3 6.2c.05-.04 0-5.5 0-5.5h-1.2v-.7h1.2v-2.1h.9v2.1h1.5v.7H579v5.3c0 .7.2 1.1.8 1.1c.3 0 .7-.2.8-.4l.4.7c-.3.2-.7.4-1.3.4c-1.1 0-1.6-.6-1.6-1.6zm9.3-3.8c0-1.5-.8-1.9-1.9-1.9c-1 0-2 .7-2.5 1.3c.02.04 0 5.8 0 5.8h-.8V49.2h.8s.02 4.13 0 4.1c.6-.6 1.7-1.3 2.8-1.3c1.5 0 2.4.7 2.4 2.4v5.4h-.8s-.02-5.19 0-5.2zm15.9-.1c0-1.1-.5-1.8-1.6-1.8c-.8 0-1.7.6-2.2 1.3c.02.03 0 5.8 0 5.8h-.8s-.02-5.33 0-5.3c0-1.1-.5-1.8-1.6-1.8c-.8 0-1.7.6-2.2 1.3c.05.04 0 5.8 0 5.8h-.8v-7.6h.8s.05 1.13 0 1.1c.4-.5 1.4-1.3 2.5-1.3c1.2 0 1.9.7 2 1.4c.5-.7 1.5-1.4 2.6-1.4c1.4 0 2.1.8 2.1 2.3c-.02.01 0 5.5 0 5.5h-.8s-.04-5.33 0-5.3zm2.8 1.5c0-2.2 1.4-4 3.6-4c2.3 0 3.7 1.8 3.7 4c0 2.2-1.4 4-3.7 4c-2.2 0-3.6-1.8-3.6-4zm6.4 0c0-1.7-1-3.3-2.8-3.3c-1.7 0-2.8 1.6-2.8 3.3c0 1.7 1.1 3.3 2.8 3.3c1.8 0 2.8-1.6 2.8-3.3zm2.9-3.8h.8s.03 1.29 0 1.3c.7-.9 1.6-1.5 2.6-1.5v.9h-.4c-.8 0-1.8.7-2.2 1.3c.03.05 0 5.6 0 5.6h-.8v-7.6zm8.1-.2c2.4 0 3.7 1.8 3.7 4c-.04.04 0 .3 0 .3c0 0-6.46-.03-6.5 0c.1 1.6 1.2 3 3 3c1 0 1.9-.3 2.6-1l.4.5c-.8.8-1.7 1.2-3 1.2c-2.3 0-3.9-1.6-3.9-4c0-2.2 1.6-4 3.7-4zm-2.8 3.6h5.6c0-1.3-.9-2.9-2.8-2.9c-1.8 0-2.7 1.6-2.8 2.9zm12.1 2.8v-5.5h-1.3v-.7h1.3v-2.1h.8v2.1h1.6v.7h-1.6s.03 5.34 0 5.3c0 .7.3 1.1.8 1.1c.4 0 .7-.2.9-.4l.3.7c-.3.2-.7.4-1.3.4c-1 0-1.5-.6-1.5-1.6zm9.2-3.8c0-1.5-.7-1.9-1.8-1.9c-1 0-2 .7-2.5 1.3c-.03.04 0 5.8 0 5.8h-.9V49.2h.9s-.03 4.13 0 4.1c.5-.6 1.6-1.3 2.7-1.3c1.6 0 2.4.7 2.4 2.4c.05.04 0 5.4 0 5.4h-.8s.02-5.19 0-5.2zm8.1 4.3c-.6.8-1.5 1.1-2.6 1.1c-1.3 0-2.7-.9-2.7-2.5c0-1.7 1.4-2.5 2.7-2.5c1.1 0 2 .3 2.6 1v-1.5c0-1.2-.9-1.8-2-1.8c-1 0-1.7.3-2.4 1.1l-.5-.5c.8-.9 1.7-1.3 3-1.3c1.5 0 2.8.7 2.8 2.4c-.04.04 0 5.4 0 5.4h-.9s.04-.86 0-.9zm0-2.3c-.5-.7-1.4-1-2.3-1c-1.3 0-2.1.8-2.1 1.9c0 1.1.8 1.9 2.1 1.9c.9 0 1.8-.4 2.3-1.1v-1.7zm8.5-1.9c0-1.5-.8-2-1.9-2c-1 0-2 .7-2.5 1.3v5.8h-.8v-7.6h.8v1.1c.6-.6 1.7-1.3 2.8-1.3c1.5 0 2.4.7 2.4 2.5c-.02-.03 0 5.3 0 5.3h-.8s-.04-5.14 0-5.1zm7.2 3c.7 1 1.6 1.5 3 1.5c1.5 0 2.6-1.1 2.6-2.6c0-1.6-1.1-2.5-2.6-2.5c-1 0-1.8.3-2.6 1c.01-.01-.7-.3-.7-.3v-5.6h6.1v.9h-5.2s.03 4.12 0 4.1c.6-.5 1.5-1 2.6-1c1.7 0 3.3 1.2 3.3 3.4c0 2.1-1.6 3.4-3.5 3.4c-1.8 0-2.9-.6-3.6-1.7l.6-.6zm12.1-8.6c2.9 0 3.9 2.9 3.9 5.5c0 2.5-1 5.4-3.9 5.4c-2.8 0-3.9-2.9-3.9-5.4c0-2.6 1.1-5.5 3.9-5.5zm0 .8c-2.2 0-2.9 2.5-2.9 4.7c0 2.1.7 4.6 2.9 4.6c2.3 0 3-2.5 3-4.6c0-2.2-.7-4.7-3-4.7zm14.7 4.8c0-1.5-.8-2-1.9-2c-1 0-2 .7-2.5 1.3v5.8h-.8v-7.6h.8s.01 1.13 0 1.1c.6-.6 1.7-1.3 2.8-1.3c1.5 0 2.4.7 2.4 2.5v5.3h-.8s-.03-5.14 0-5.1zm6.5-2.7c2.3 0 3.6 1.8 3.6 4c-.02.04 0 .3 0 .3c0 0-6.43-.03-6.4 0c0 1.6 1.2 3 3 3c.9 0 1.8-.3 2.5-1l.4.5c-.8.8-1.7 1.2-3 1.2c-2.2 0-3.8-1.6-3.8-4c0-2.2 1.5-4 3.7-4zm-2.8 3.6h5.5c0-1.3-.8-2.9-2.8-2.9c-1.8 0-2.7 1.6-2.7 2.9zm12.8-2.3l-2.2 6.5h-.8l-2.5-7.6h.9l2.1 6.5l2.1-6.5h.7l2.2 6.5l2-6.5h.9l-2.5 7.6h-.8l-2.1-6.5zm10.3-1.1h.8s.05 1.29 0 1.3c.7-.9 1.6-1.5 2.6-1.5v.9h-.4c-.8 0-1.8.7-2.2 1.3c.05.05 0 5.6 0 5.6h-.8v-7.6zm8.2-.2c2.3 0 3.6 1.8 3.6 4c-.03.04 0 .3 0 .3c0 0-6.44-.03-6.4 0c0 1.6 1.1 3 2.9 3c1 0 1.9-.3 2.6-1l.4.5c-.8.8-1.7 1.2-3 1.2c-2.2 0-3.8-1.6-3.8-4c0-2.2 1.5-4 3.7-4zm-2.8 3.6h5.5c0-1.3-.8-2.9-2.8-2.9c-1.8 0-2.7 1.6-2.7 2.9zm8.2 2.6c.5.6 1.3 1.1 2.4 1.1c1.3 0 2.1-.6 2.1-1.5c0-1-1.1-1.3-2.2-1.5c-1.2-.4-2.6-.7-2.6-2.2c0-1.2.9-2.1 2.7-2.1c1.3 0 2.2.5 2.7 1.1l-.4.6c-.5-.6-1.3-1-2.3-1c-1.2 0-1.9.6-1.9 1.4c0 .8.9 1.1 2 1.3c1.3.4 2.8.7 2.8 2.4c0 1.2-1 2.2-2.9 2.2c-1.2 0-2.2-.3-2.9-1.2l.5-.6zm7.4.2c.03-.04 0-5.5 0-5.5h-1.2v-.7h1.2v-2.1h.9v2.1h1.5v.7h-1.5s-.03 5.34 0 5.3c0 .7.2 1.1.8 1.1c.3 0 .7-.2.8-.4l.3.7c-.3.2-.6.4-1.3.4c-1 0-1.5-.6-1.5-1.6zm9 .5c-.7.8-1.6 1.1-2.6 1.1c-1.4 0-2.7-.9-2.7-2.5c0-1.7 1.3-2.5 2.7-2.5c1 0 1.9.3 2.6 1v-1.5c0-1.2-1-1.8-2.1-1.8c-1 0-1.7.3-2.4 1.1l-.5-.5c.8-.9 1.7-1.3 3-1.3c1.5 0 2.8.7 2.8 2.4c-.02.04 0 5.4 0 5.4h-.8s-.04-.86 0-.9zm0-2.3c-.6-.7-1.4-1-2.4-1c-1.2 0-2.1.8-2.1 1.9c0 1.1.9 1.9 2.1 1.9c1 0 1.8-.4 2.4-1.1v-1.7zm8.4 2.1c-.7.7-1.7 1.3-2.8 1.3c-1.6 0-2.4-.7-2.4-2.4v-5.4h.8s.02 5.18 0 5.2c0 1.5.8 1.9 1.9 1.9c1 0 2-.6 2.5-1.3c-.02.02 0-5.8 0-5.8h.8v7.6h-.8s-.02-1.09 0-1.1zm3.2-6.5h.8s.04 1.29 0 1.3c.7-.9 1.6-1.5 2.6-1.5v.9h-.4c-.8 0-1.8.7-2.2 1.3c.04.05 0 5.6 0 5.6h-.8v-7.6zm9.8 6.7c-.7.8-1.6 1.1-2.6 1.1c-1.4 0-2.7-.9-2.7-2.5c0-1.7 1.3-2.5 2.7-2.5c1 0 1.9.3 2.6 1v-1.5c0-1.2-1-1.8-2.1-1.8c-.9 0-1.7.3-2.4 1.1l-.5-.5c.8-.9 1.7-1.3 3-1.3c1.6 0 2.8.7 2.8 2.4v5.4h-.8s-.03-.86 0-.9zm0-2.3c-.6-.7-1.4-1-2.4-1c-1.2 0-2 .8-2 1.9c0 1.1.8 1.9 2 1.9c1 0 1.8-.4 2.4-1.1v-1.7zm8.4-1.9c0-1.5-.8-2-1.9-2c-1 0-2 .7-2.5 1.3c.03.04 0 5.8 0 5.8h-.8v-7.6h.8s.03 1.13 0 1.1c.6-.6 1.7-1.3 2.8-1.3c1.6 0 2.4.7 2.4 2.5v5.3h-.8v-5.1zm3.4 3.7v-5.5h-1.3v-.7h1.3v-2.1h.8v2.1h1.6v.7h-1.6s.03 5.34 0 5.3c0 .7.3 1.1.8 1.1c.4 0 .7-.2.9-.4l.3.7c-.3.2-.7.4-1.3.4c-1 0-1.5-.6-1.5-1.6zm3.9-.2c.5.6 1.3 1.1 2.4 1.1c1.3 0 2.1-.6 2.1-1.5c0-1-1.1-1.3-2.2-1.5c-1.2-.4-2.7-.7-2.7-2.2c0-1.2 1-2.1 2.8-2.1c1.3 0 2.2.5 2.7 1.1l-.4.6c-.5-.6-1.3-1-2.3-1c-1.2 0-1.9.6-1.9 1.4c0 .8.9 1.1 2 1.3c1.3.4 2.8.7 2.8 2.4c0 1.2-1 2.2-2.9 2.2c-1.2 0-2.2-.3-2.9-1.2l.5-.6zm10.6-8c0-.3.3-.6.6-.6c.3 0 .6.3.6.6c0 .4-.3.7-.6.7c-.3 0-.6-.3-.6-.7zm.2 2h.8v7.6h-.8v-7.6zm8.4 2.5c0-1.5-.8-2-1.9-2c-1 0-2 .7-2.5 1.3c.04.04 0 5.8 0 5.8h-.8v-7.6h.8s.04 1.13 0 1.1c.6-.6 1.7-1.3 2.8-1.3c1.6 0 2.4.7 2.4 2.5v5.3h-.8v-5.1zm12.4 3.9c-.5.8-1.5 1.4-2.7 1.4c-2 0-3.4-1.5-3.4-4c0-2.4 1.4-4 3.4-4c1.1 0 2.1.5 2.7 1.4v-4.2h.8v10.6h-.8v-1.2zm0-4.5c-.5-.7-1.5-1.4-2.5-1.4c-1.7 0-2.7 1.5-2.7 3.3c0 1.9 1 3.3 2.7 3.3c1 0 2-.6 2.5-1.4v-3.8zm6.5-2.1c2.3 0 3.6 1.8 3.6 4c.02.04 0 .3 0 .3c0 0-6.39-.03-6.4 0c.1 1.6 1.2 3 3 3c1 0 1.9-.3 2.5-1l.4.5c-.7.8-1.7 1.2-3 1.2c-2.2 0-3.8-1.6-3.8-4c0-2.2 1.6-4 3.7-4zm-2.8 3.6h5.6c0-1.3-.9-2.9-2.8-2.9c-1.8 0-2.7 1.6-2.8 2.9zm7.2-3.4h.9l2.8 6.7l2.8-6.7h.9l-3.2 7.6h-.9l-3.3-7.6zm11.9-.2c2.4 0 3.6 1.8 3.6 4c.05.04 0 .3 0 .3c0 0-6.37-.03-6.4 0c.1 1.6 1.2 3 3 3c1 0 1.9-.3 2.5-1l.5.5c-.8.8-1.8 1.2-3 1.2c-2.3 0-3.9-1.6-3.9-4c0-2.2 1.6-4 3.7-4zm-2.8 3.6h5.6c0-1.3-.9-2.9-2.8-2.9c-1.8 0-2.7 1.6-2.8 2.9zm8.4-6.4h.8v10.6h-.8V49.2zm2.8 6.8c0-2.2 1.5-4 3.7-4c2.3 0 3.7 1.8 3.7 4c0 2.2-1.4 4-3.7 4c-2.2 0-3.7-1.8-3.7-4zm6.5 0c0-1.7-1-3.3-2.8-3.3c-1.8 0-2.8 1.6-2.8 3.3c0 1.7 1 3.3 2.8 3.3c1.8 0 2.8-1.6 2.8-3.3zm2.9 6.8V52.2h.8v1.2c.5-.8 1.5-1.4 2.7-1.4c2 0 3.4 1.5 3.4 4c0 2.4-1.4 4-3.4 4c-1.1 0-2.1-.5-2.7-1.4v4.2h-.8zm3.3-10.1c-1 0-2.1.7-2.5 1.4v3.8c.4.7 1.5 1.4 2.5 1.4c1.7 0 2.7-1.4 2.7-3.3c0-1.9-1-3.3-2.7-3.3zm14.7 1.8c0-1.1-.5-1.8-1.5-1.8c-.9 0-1.8.6-2.2 1.3c-.04.03 0 5.8 0 5.8h-.9s.02-5.33 0-5.3c0-1.1-.4-1.8-1.5-1.8c-.8 0-1.8.6-2.2 1.3v5.8h-.8v-7.6h.8s-.01 1.13 0 1.1c.3-.5 1.4-1.3 2.5-1.3c1.2 0 1.8.7 2 1.4c.4-.7 1.4-1.4 2.5-1.4c1.4 0 2.1.8 2.1 2.3c.02.01 0 5.5 0 5.5h-.8v-5.3zm6.5-2.5c2.3 0 3.6 1.8 3.6 4v.3s-6.4-.03-6.4 0c.1 1.6 1.2 3 3 3c1 0 1.8-.3 2.5-1l.4.5c-.7.8-1.7 1.2-3 1.2c-2.2 0-3.8-1.6-3.8-4c0-2.2 1.6-4 3.7-4zm-2.8 3.6h5.6c0-1.3-.9-2.9-2.8-2.9c-1.8 0-2.7 1.6-2.8 2.9zm13.6-.9c0-1.5-.8-2-1.9-2c-1 0-2 .7-2.5 1.3v5.8h-.8v-7.6h.8s.01 1.13 0 1.1c.6-.6 1.7-1.3 2.8-1.3c1.5 0 2.4.7 2.4 2.5c-.02-.03 0 5.3 0 5.3h-.8s-.04-5.14 0-5.1zm3.4 3.7c-.04-.04 0-5.5 0-5.5h-1.3v-.7h1.3v-2.1h.8v2.1h1.6v.7h-1.6v5.3c0 .7.3 1.1.8 1.1c.4 0 .7-.2.9-.4l.3.7c-.3.2-.7.4-1.3.4c-1 0-1.5-.6-1.5-1.6zm4.5.2c.3 0 .7.3.7.7c0 .4-.4.7-.7.7c-.4 0-.7-.3-.7-.7c0-.4.3-.7.7-.7z" stroke="none" fill="#000"/></g><g id="Polygon104350"><path d="m4.6 36.4H2.2v4.4h-.9V30.2h4c1.8 0 3.2 1.1 3.2 3.1c0 1.9-1.4 3-2.9 3c-.04.03 3 4.5 3 4.5H7.5l-2.9-4.4zm.6-5.4h-3v4.6s2.99-.03 3 0c1.4 0 2.3-1 2.3-2.3c0-1.3-.9-2.3-2.3-2.3zm9.9 8.9c-.7.7-1.5 1.1-2.6 1.1c-1.3 0-2.7-.9-2.7-2.6c0-1.7 1.4-2.5 2.7-2.5c1.1 0 1.9.3 2.6 1.1v-1.6c0-1.1-.9-1.7-2-1.7c-1 0-1.7.3-2.4 1.1l-.5-.6c.8-.9 1.7-1.3 2.9-1.3c1.6 0 2.8.8 2.8 2.5c.04-.02 0 5.4 0 5.4h-.8s.02-.92 0-.9zm0-2.3c-.5-.7-1.4-1.1-2.3-1.1c-1.3 0-2.1.9-2.1 1.9c0 1.1.8 1.9 2.1 1.9c.9 0 1.8-.3 2.3-1v-1.7zm3-6.4c0-.4.3-.7.7-.7c.3 0 .6.3.6.7c0 .3-.3.6-.6.6c-.4 0-.7-.3-.7-.6zm.3 1.9h.8v7.7h-.8v-7.7zm3 6c.5.7 1.4 1.2 2.5 1.2c1.3 0 2.1-.7 2.1-1.6c0-.9-1.1-1.2-2.2-1.5c-1.3-.3-2.7-.7-2.7-2.2c0-1.1 1-2.1 2.7-2.1c1.4 0 2.2.5 2.8 1.2l-.5.5c-.4-.6-1.2-1-2.3-1c-1.2 0-1.9.6-1.9 1.4c0 .9 1 1.1 2.1 1.4c1.3.3 2.8.7 2.8 2.3c0 1.3-1 2.3-2.9 2.3c-1.3 0-2.2-.4-3-1.2l.5-.7zm7.1-7.9c0-.4.3-.7.6-.7c.4 0 .7.3.7.7c0 .3-.3.6-.7.6c-.3 0-.6-.3-.6-.6zm.2 1.9h.9v7.7h-.9v-7.7zm8.4 2.5c0-1.5-.7-1.9-1.8-1.9c-1 0-2 .6-2.5 1.3v5.8h-.8v-7.7h.8v1.2c.6-.7 1.6-1.4 2.8-1.4c1.5 0 2.4.8 2.4 2.5c-.03.01 0 5.4 0 5.4h-.9s.05-5.2 0-5.2zm3.8 6.5c.6.8 1.4 1.1 2.5 1.1c1.4 0 2.6-.7 2.6-2.5v-1.2c-.5.8-1.5 1.4-2.6 1.4c-2.1 0-3.5-1.5-3.5-4c0-2.4 1.4-4 3.5-4c1.1 0 2 .6 2.6 1.4c.04.05 0-1.2 0-1.2h.9s-.02 7.6 0 7.6c0 2.4-1.6 3.2-3.5 3.2c-1.3 0-2.1-.2-3-1.2l.5-.6zm5.1-7c-.4-.8-1.4-1.4-2.5-1.4c-1.7 0-2.7 1.4-2.7 3.2c0 1.9 1 3.3 2.7 3.3c1.1 0 2.1-.7 2.5-1.4v-3.7zm8.3.4c0-3.3 2.4-5.5 5.4-5.5c1.7 0 3 .8 3.9 1.9l-.8.5c-.7-.9-1.8-1.6-3.1-1.6c-2.5 0-4.4 1.9-4.4 4.7c0 2.7 1.9 4.6 4.4 4.6c1.3 0 2.4-.6 3.1-1.5l.8.5c-1 1.1-2.2 1.9-3.9 1.9c-3 0-5.4-2.2-5.4-5.5zm15.8 4.4c-.7.7-1.5 1.1-2.6 1.1c-1.3 0-2.7-.9-2.7-2.6c0-1.7 1.4-2.5 2.7-2.5c1.1 0 1.9.3 2.6 1.1v-1.6c0-1.1-.9-1.7-2.1-1.7c-.9 0-1.7.3-2.4 1.1l-.4-.6c.8-.9 1.7-1.3 2.9-1.3c1.6 0 2.8.8 2.8 2.5c.03-.02 0 5.4 0 5.4h-.8v-.9zm0-2.3c-.5-.7-1.4-1.1-2.3-1.1c-1.3 0-2.1.9-2.1 1.9c0 1.1.8 1.9 2.1 1.9c.9 0 1.8-.3 2.3-1v-1.7zm8.4-2c0-1.5-.7-1.9-1.8-1.9c-1 0-2 .6-2.5 1.3c-.03-.02 0 5.8 0 5.8h-.9v-7.7h.9s-.03 1.17 0 1.2c.5-.7 1.6-1.4 2.7-1.4c1.6 0 2.4.8 2.4 2.5c.04.01 0 5.4 0 5.4h-.8s.02-5.2 0-5.2zm6.5-2.7c2.4 0 3.6 1.9 3.6 4.1c.04-.01 0 .2 0 .2h-6.4c.1 1.7 1.2 3.1 3 3.1c1 0 1.9-.4 2.5-1.1l.5.5c-.8.8-1.8 1.3-3 1.3c-2.3 0-3.9-1.7-3.9-4.1c0-2.2 1.6-4 3.7-4zm-2.8 3.7h5.6c0-1.3-.9-3-2.8-3c-1.8 0-2.7 1.6-2.8 3zm9.6-5.6c0 .9-.5 1.8-1.1 2.2l-.5-.4c.5-.3.9-.9.9-1.5c0 .1-.1.1-.1.1c-.4 0-.7-.3-.7-.7c0-.4.3-.7.7-.7c.4 0 .8.4.8 1zm1.4 8.1c.5.7 1.4 1.2 2.5 1.2c1.3 0 2.1-.7 2.1-1.6c0-.9-1.1-1.2-2.2-1.5c-1.3-.3-2.7-.7-2.7-2.2c0-1.1 1-2.1 2.8-2.1c1.3 0 2.1.5 2.7 1.2l-.5.5c-.4-.6-1.2-1-2.2-1c-1.2 0-2 .6-2 1.4c0 .9 1 1.1 2.1 1.4c1.3.3 2.8.7 2.8 2.3c0 1.3-1 2.3-2.9 2.3c-1.2 0-2.2-.4-2.9-1.2l.4-.7zm12.6-7.9c0-.4.3-.7.6-.7c.3 0 .6.3.6.7c0 .3-.3.6-.6.6c-.3 0-.6-.3-.6-.6zm.2 1.9h.8v7.7h-.8v-7.7zm3 6c.5.7 1.4 1.2 2.5 1.2c1.3 0 2.1-.7 2.1-1.6c0-.9-1.1-1.2-2.2-1.5c-1.3-.3-2.7-.7-2.7-2.2c0-1.1 1-2.1 2.8-2.1c1.3 0 2.1.5 2.7 1.2l-.5.5c-.4-.6-1.2-1-2.2-1c-1.2 0-2 .6-2 1.4c0 .9 1 1.1 2.1 1.4c1.3.3 2.8.7 2.8 2.3c0 1.3-1 2.3-2.9 2.3c-1.2 0-2.2-.4-2.9-1.2l.4-.7zm17.7.8c-.7.7-1.6 1.1-2.7 1.1c-1.3 0-2.6-.9-2.6-2.6c0-1.7 1.3-2.5 2.6-2.5c1.1 0 2 .3 2.7 1.1v-1.6c0-1.1-1-1.7-2.1-1.7c-1 0-1.7.3-2.4 1.1l-.5-.6c.8-.9 1.7-1.3 3-1.3c1.5 0 2.8.8 2.8 2.5c-.02-.02 0 5.4 0 5.4h-.8s-.05-.92 0-.9zm0-2.3c-.6-.7-1.4-1.1-2.4-1.1c-1.2 0-2.1.9-2.1 1.9c0 1.1.9 1.9 2.1 1.9c1 0 1.8-.3 2.4-1v-1.7zm8.9-3.8h-1.3v-.7h1.3v-.7c0-1.5.8-2.4 2.1-2.4c.4 0 .7.1 1 .3l-.3.6c-.1-.1-.4-.2-.6-.2c-.9 0-1.4.6-1.4 1.7c.02.01 0 .7 0 .7h1.6v.7h-1.6v7h-.8v-7zm8.6 6.1c-.6.7-1.5 1.1-2.6 1.1c-1.3 0-2.6-.9-2.6-2.6c0-1.7 1.3-2.5 2.6-2.5c1.1 0 2 .3 2.6 1.1v-1.6c0-1.1-.9-1.7-2-1.7c-1 0-1.7.3-2.4 1.1l-.5-.6c.8-.9 1.7-1.3 3-1.3c1.5 0 2.8.8 2.8 2.5c-.03-.02 0 5.4 0 5.4h-.9s.05-.92 0-.9zm0-2.3c-.5-.7-1.3-1.1-2.3-1.1c-1.2 0-2.1.9-2.1 1.9c0 1.1.9 1.9 2.1 1.9c1 0 1.8-.3 2.3-1v-1.7zm3.1 1.5c.5.7 1.4 1.2 2.5 1.2c1.3 0 2-.7 2-1.6c0-.9-1-1.2-2.1-1.5c-1.3-.3-2.7-.7-2.7-2.2c0-1.1 1-2.1 2.7-2.1c1.3 0 2.2.5 2.8 1.2l-.5.5c-.4-.6-1.3-1-2.3-1c-1.2 0-1.9.6-1.9 1.4c0 .9 1 1.1 2.1 1.4c1.3.3 2.7.7 2.7 2.3c0 1.3-.9 2.3-2.8 2.3c-1.3 0-2.2-.4-3-1.2l.5-.7zm7.5.2c-.02.01 0-5.4 0-5.4h-1.3v-.8h1.3V31h.8v2.1h1.6v.8h-1.6s.02 5.28 0 5.3c0 .6.3 1 .8 1c.4 0 .7-.1.9-.3l.3.6c-.3.3-.7.5-1.3.5c-1 0-1.5-.6-1.5-1.7zm3.2-2.7h3.8v.7H158v-.7zm5.7-2.8h-1.3v-.7h1.3v-.7c0-1.5.8-2.4 2.1-2.4c.4 0 .7.1 1 .3l-.2.6c-.2-.1-.5-.2-.7-.2c-.9 0-1.4.6-1.4 1.7c.03.01 0 .7 0 .7h1.6v.7h-1.6v7h-.8v-7zm3.3 3.1c0-2.2 1.5-4 3.7-4c2.3 0 3.7 1.8 3.7 4c0 2.3-1.4 4.1-3.7 4.1c-2.2 0-3.7-1.8-3.7-4.1zm6.5 0c0-1.7-1-3.2-2.8-3.2c-1.8 0-2.8 1.5-2.8 3.2c0 1.8 1 3.3 2.8 3.3c1.8 0 2.8-1.5 2.8-3.3zm2.4 0c0-2.2 1.5-4 3.7-4c2.3 0 3.7 1.8 3.7 4c0 2.3-1.4 4.1-3.7 4.1c-2.2 0-3.7-1.8-3.7-4.1zm6.5 0c0-1.7-1-3.2-2.8-3.2c-1.7 0-2.8 1.5-2.8 3.2c0 1.8 1.1 3.3 2.8 3.3c1.8 0 2.8-1.5 2.8-3.3zm8.6 2.7c-.6.8-1.6 1.4-2.7 1.4c-2 0-3.4-1.6-3.4-4c0-2.5 1.4-4.1 3.4-4.1c1.1 0 2 .6 2.7 1.4c-.04.05 0-4.1 0-4.1h.8v10.6h-.8s-.04-1.24 0-1.2zm0-4.5c-.5-.8-1.5-1.4-2.6-1.4c-1.7 0-2.7 1.4-2.7 3.3c0 1.8 1 3.2 2.7 3.2c1.1 0 2.1-.6 2.6-1.3v-3.8zm8.6-2h.9s-.03 1.33 0 1.3c.6-.8 1.5-1.4 2.6-1.4v.9c-.2-.1-.3-.1-.5-.1c-.7 0-1.8.7-2.1 1.4c-.03-.01 0 5.6 0 5.6h-.9v-7.7zm8.2-.2c2.3 0 3.6 1.9 3.6 4.1v.2H205c.1 1.7 1.2 3.1 3 3.1c.9 0 1.8-.4 2.5-1.1l.4.5c-.7.8-1.7 1.3-3 1.3c-2.2 0-3.8-1.7-3.8-4.1c0-2.2 1.5-4 3.7-4zm-2.8 3.7h5.6c-.1-1.3-.9-3-2.8-3c-1.9 0-2.8 1.6-2.8 3zm8.2 2.5c.5.7 1.4 1.2 2.5 1.2c1.3 0 2-.7 2-1.6c0-.9-1-1.2-2.1-1.5c-1.3-.3-2.7-.7-2.7-2.2c0-1.1 1-2.1 2.7-2.1c1.3 0 2.2.5 2.8 1.2l-.5.5c-.5-.6-1.3-1-2.3-1c-1.2 0-1.9.6-1.9 1.4c0 .9 1 1.1 2 1.4c1.3.3 2.8.7 2.8 2.3c0 1.3-.9 2.3-2.8 2.3c-1.3 0-2.2-.4-3-1.2l.5-.7zm7.5.2c-.04.01 0-5.4 0-5.4h-1.3v-.8h1.3V31h.8v2.1h1.6v.8h-1.6v5.3c0 .6.2 1 .8 1c.4 0 .7-.1.8-.3l.4.6c-.3.3-.7.5-1.3.5c-1.1 0-1.5-.6-1.5-1.7zm8.9.6c-.7.7-1.6 1.1-2.6 1.1c-1.3 0-2.7-.9-2.7-2.6c0-1.7 1.3-2.5 2.7-2.5c1 0 1.9.3 2.6 1.1v-1.6c0-1.1-.9-1.7-2.1-1.7c-.9 0-1.7.3-2.4 1.1l-.4-.6c.8-.9 1.6-1.3 2.9-1.3c1.6 0 2.8.8 2.8 2.5v5.4h-.8s-.02-.92 0-.9zm0-2.3c-.6-.7-1.4-1.1-2.3-1.1c-1.3 0-2.1.9-2.1 1.9c0 1.1.8 1.9 2.1 1.9c.9 0 1.7-.3 2.3-1v-1.7zm8.4 2.1c-.6.7-1.7 1.3-2.8 1.3c-1.5 0-2.4-.8-2.4-2.5c.02.01 0-5.4 0-5.4h.8s.05 5.22 0 5.2c0 1.5.8 1.9 1.9 1.9c1 0 2-.6 2.5-1.2v-5.9h.8v7.7h-.8v-1.1zm3.2-6.6h.9s-.04 1.33 0 1.3c.6-.8 1.5-1.4 2.6-1.4v.9c-.2-.1-.3-.1-.5-.1c-.7 0-1.8.7-2.1 1.4c-.04-.01 0 5.6 0 5.6h-.9v-7.7zm9.8 6.8c-.7.7-1.6 1.1-2.6 1.1c-1.3 0-2.7-.9-2.7-2.6c0-1.7 1.3-2.5 2.7-2.5c1 0 1.9.3 2.6 1.1v-1.6c0-1.1-.9-1.7-2.1-1.7c-.9 0-1.7.3-2.4 1.1l-.4-.6c.8-.9 1.6-1.3 2.9-1.3c1.6 0 2.8.8 2.8 2.5v5.4h-.8s-.01-.92 0-.9zm0-2.3c-.5-.7-1.4-1.1-2.3-1.1c-1.3 0-2.1.9-2.1 1.9c0 1.1.8 1.9 2.1 1.9c.9 0 1.8-.3 2.3-1v-1.7zm8.4-2c0-1.5-.7-1.9-1.9-1.9c-.9 0-2 .6-2.4 1.3c-.05-.02 0 5.8 0 5.8h-.9v-7.7h.9s-.05 1.17 0 1.2c.5-.7 1.6-1.4 2.7-1.4c1.6 0 2.4.8 2.4 2.5c.03.01 0 5.4 0 5.4h-.8v-5.2zm3.4 3.7v-5.4h-1.3v-.8h1.3V31h.8v2.1h1.6v.8h-1.6s.05 5.28 0 5.3c0 .6.3 1 .8 1c.4 0 .7-.1.9-.3l.3.6c-.3.3-.7.5-1.3.5c-1 0-1.5-.6-1.5-1.7zm12.8-6.4c1.3 0 2.1.5 2.7 1.3l-.6.5c-.6-.7-1.2-1-2.1-1c-1.8 0-2.9 1.4-2.9 3.2c0 1.9 1.1 3.3 2.9 3.3c.9 0 1.5-.3 2.1-1.1l.6.6c-.6.7-1.4 1.3-2.7 1.3c-2.3 0-3.8-1.8-3.8-4.1c0-2.2 1.5-4 3.8-4zm9.6 2.7c0-1.5-.8-1.9-1.9-1.9c-1 0-2 .6-2.5 1.3v5.8h-.8V30.2h.8v4.1c.6-.7 1.6-1.4 2.8-1.4c1.5 0 2.4.8 2.4 2.5c-.03-.02 0 5.4 0 5.4h-.8s-.05-5.24 0-5.2zm8.1 4.3c-.7.7-1.6 1.1-2.6 1.1c-1.4 0-2.7-.9-2.7-2.6c0-1.7 1.3-2.5 2.7-2.5c1 0 1.9.3 2.6 1.1v-1.6c0-1.1-1-1.7-2.1-1.7c-1 0-1.7.3-2.4 1.1l-.5-.6c.8-.9 1.7-1.3 3-1.3c1.6 0 2.8.8 2.8 2.5v5.4h-.8s-.03-.92 0-.9zm0-2.3c-.6-.7-1.4-1.1-2.4-1.1c-1.2 0-2.1.9-2.1 1.9c0 1.1.9 1.9 2.1 1.9c1 0 1.8-.3 2.4-1v-1.7zm3-6.4c0-.4.3-.7.6-.7c.4 0 .7.3.7.7c0 .3-.3.6-.7.6c-.3 0-.6-.3-.6-.6zm.2 1.9h.8v7.7h-.8v-7.7zm8.4 2.5c0-1.5-.7-1.9-1.8-1.9c-1 0-2 .6-2.5 1.3c-.03-.02 0 5.8 0 5.8h-.9v-7.7h.9s-.03 1.17 0 1.2c.5-.7 1.6-1.4 2.7-1.4c1.6 0 2.4.8 2.4 2.5c.05.01 0 5.4 0 5.4h-.8s.02-5.2 0-5.2zm8.5 3.5c.5.7 1.4 1.2 2.5 1.2c1.3 0 2-.7 2-1.6c0-.9-1-1.2-2.1-1.5c-1.3-.3-2.7-.7-2.7-2.2c0-1.1 1-2.1 2.7-2.1c1.3 0 2.2.5 2.8 1.2l-.5.5c-.4-.6-1.3-1-2.3-1c-1.2 0-1.9.6-1.9 1.4c0 .9 1 1.1 2.1 1.4c1.3.3 2.8.7 2.8 2.3c0 1.3-1 2.3-2.9 2.3c-1.3 0-2.2-.4-3-1.2l.5-.7zm7.3 4.6V33.1h.8s.05 1.23 0 1.2c.6-.8 1.6-1.4 2.7-1.4c2.1 0 3.4 1.6 3.4 4c0 2.5-1.3 4.1-3.4 4.1c-1.1 0-2-.6-2.7-1.5c.05.04 0 4.2 0 4.2h-.8zm3.4-10c-1.1 0-2.1.6-2.6 1.3v3.8c.5.8 1.5 1.4 2.6 1.4c1.7 0 2.7-1.4 2.7-3.3c0-1.8-1-3.2-2.7-3.2zm8.8-.8c2.3 0 3.6 1.9 3.6 4.1v.2h-6.4c.1 1.7 1.2 3.1 3 3.1c.9 0 1.8-.4 2.5-1.1l.4.5c-.7.8-1.7 1.3-3 1.3c-2.2 0-3.8-1.7-3.8-4.1c0-2.2 1.5-4 3.7-4zm-2.8 3.7h5.6c-.1-1.3-.9-3-2.8-3c-1.9 0-2.8 1.6-2.8 3zm11.6-3.7c1.4 0 2.1.5 2.8 1.3l-.6.5c-.6-.7-1.3-1-2.1-1c-1.8 0-2.9 1.4-2.9 3.2c0 1.9 1.1 3.3 2.9 3.3c.8 0 1.5-.3 2.1-1.1l.6.6c-.7.7-1.4 1.3-2.8 1.3c-2.2 0-3.7-1.8-3.7-4.1c0-2.2 1.5-4 3.7-4zm4.2-1.7c0-.4.3-.7.7-.7c.3 0 .6.3.6.7c0 .3-.3.6-.6.6c-.4 0-.7-.3-.7-.6zm.3 1.9h.8v7.7h-.8v-7.7zm8.1 6.8c-.7.7-1.6 1.1-2.6 1.1c-1.4 0-2.7-.9-2.7-2.6c0-1.7 1.3-2.5 2.7-2.5c1 0 1.9.3 2.6 1.1v-1.6c0-1.1-1-1.7-2.1-1.7c-1 0-1.7.3-2.4 1.1l-.5-.6c.8-.9 1.7-1.3 3-1.3c1.6 0 2.8.8 2.8 2.5v5.4h-.8s-.03-.92 0-.9zm0-2.3c-.6-.7-1.4-1.1-2.4-1.1c-1.2 0-2.1.9-2.1 1.9c0 1.1.9 1.9 2.1 1.9c1 0 1.8-.3 2.4-1v-1.7zm3.2-7.4h.8v10.6h-.8V30.2zm3 1c0-.4.3-.7.7-.7c.3 0 .6.3.6.7c0 .3-.3.6-.6.6c-.4 0-.7-.3-.7-.6zm.2 1.9h.9v7.7h-.9v-7.7zm2.9 7l4.5-6.2h-4.5v-.8h5.6v.7l-4.6 6.3h4.7v.7h-5.7v-.7zm7.5-8.9c0-.4.3-.7.6-.7c.3 0 .6.3.6.7c0 .3-.3.6-.6.6c-.3 0-.6-.3-.6-.6zm.2 1.9h.8v7.7h-.8v-7.7zm8.4 2.5c0-1.5-.8-1.9-1.9-1.9c-1 0-2 .6-2.5 1.3c.04-.02 0 5.8 0 5.8h-.8v-7.7h.8s.04 1.17 0 1.2c.6-.7 1.7-1.4 2.8-1.4c1.6 0 2.4.8 2.4 2.5c.02.01 0 5.4 0 5.4h-.8v-5.2zm3.7 6.5c.7.8 1.4 1.1 2.6 1.1c1.4 0 2.6-.7 2.6-2.5v-1.2c-.6.8-1.5 1.4-2.7 1.4c-2 0-3.4-1.5-3.4-4c0-2.4 1.4-4 3.4-4c1.1 0 2.1.6 2.7 1.4v-1.2h.8s.03 7.6 0 7.6c0 2.4-1.6 3.2-3.4 3.2c-1.3 0-2.1-.2-3.1-1.2l.5-.6zm5.2-7c-.5-.8-1.5-1.4-2.5-1.4c-1.7 0-2.7 1.4-2.7 3.2c0 1.9 1 3.3 2.7 3.3c1 0 2-.7 2.5-1.4v-3.7zm8.4-3.9c0-.4.3-.7.7-.7c.3 0 .6.3.6.7c0 .3-.3.6-.6.6c-.4 0-.7-.3-.7-.6zm.3 1.9h.8v7.7h-.8v-7.7zm8.4 2.5c0-1.5-.8-1.9-1.9-1.9c-1 0-2 .6-2.5 1.3c.02-.02 0 5.8 0 5.8h-.8v-7.7h.8s.02 1.17 0 1.2c.6-.7 1.7-1.4 2.8-1.4c1.5 0 2.4.8 2.4 2.5v5.4h-.8s-.03-5.2 0-5.2zm11.9-2.7c1.3 0 2.1.5 2.7 1.3l-.5.5c-.6-.7-1.3-1-2.1-1c-1.8 0-2.9 1.4-2.9 3.2c0 1.9 1.1 3.3 2.9 3.3c.8 0 1.5-.3 2.1-1.1l.5.6c-.6.7-1.4 1.3-2.7 1.3c-2.2 0-3.7-1.8-3.7-4.1c0-2.2 1.5-4 3.7-4zm9.6 2.7c0-1.5-.7-1.9-1.9-1.9c-.9 0-2 .6-2.4 1.3c-.05-.02 0 5.8 0 5.8h-.9V30.2h.9s-.05 4.07 0 4.1c.5-.7 1.6-1.4 2.7-1.4c1.6 0 2.4.8 2.4 2.5c.03-.02 0 5.4 0 5.4h-.8v-5.2zm3-4.4c0-.4.3-.7.7-.7c.3 0 .6.3.6.7c0 .3-.3.6-.6.6c-.4 0-.7-.3-.7-.6zm.2 1.9h.9v7.7h-.9v-7.7zm6.6-.2c1.3 0 2.1.5 2.7 1.3l-.6.5c-.6-.7-1.2-1-2.1-1c-1.8 0-2.9 1.4-2.9 3.2c0 1.9 1.1 3.3 2.9 3.3c.9 0 1.5-.3 2.1-1.1l.6.6c-.6.7-1.4 1.3-2.7 1.3c-2.3 0-3.8-1.8-3.8-4.1c0-2.2 1.5-4 3.8-4zm6.6 4.2l-1.4 1.4v2.3h-.8V30.2h.8v7.3l4.5-4.4h1.1l-3.6 3.5l3.6 4.2h-1.1l-3.1-3.7zm8.5-4.2c2.4 0 3.7 1.9 3.7 4.1c-.04-.01 0 .2 0 .2h-6.5c.1 1.7 1.2 3.1 3 3.1c1 0 1.9-.4 2.6-1.1l.4.5c-.8.8-1.7 1.3-3 1.3c-2.3 0-3.9-1.7-3.9-4.1c0-2.2 1.6-4 3.7-4zm-2.8 3.7h5.6c0-1.3-.9-3-2.8-3c-1.8 0-2.7 1.6-2.8 3zm13.6-1c0-1.5-.7-1.9-1.8-1.9c-1 0-2.1.6-2.5 1.3c-.04-.02 0 5.8 0 5.8h-.9v-7.7h.9s-.04 1.17 0 1.2c.5-.7 1.6-1.4 2.7-1.4c1.6 0 2.4.8 2.4 2.5c.03.01 0 5.4 0 5.4h-.8v-5.2zm8.9-1.7h-1.2v-.8h1.2s.05-.69 0-.7c0-1.5.9-2.4 2.1-2.4c.4 0 .8.1 1.1.3l-.3.6c-.2-.1-.4-.2-.7-.2c-.9 0-1.3.6-1.3 1.7c-.03.01 0 .7 0 .7h1.5v.8h-1.5v6.9h-.9v-6.9zm3.8-2.7c0-.4.3-.7.6-.7c.3 0 .6.3.6.7c0 .3-.3.6-.6.6c-.3 0-.6-.3-.6-.6zm.2 1.9h.8v7.7h-.8v-7.7zm8.4 2.5c0-1.5-.8-1.9-1.9-1.9c-1 0-2 .6-2.5 1.3c.04-.02 0 5.8 0 5.8h-.8v-7.7h.8s.04 1.17 0 1.2c.6-.7 1.7-1.4 2.8-1.4c1.6 0 2.4.8 2.4 2.5v5.4h-.8v-5.2zm3.7 6.5c.7.8 1.4 1.1 2.6 1.1c1.4 0 2.6-.7 2.6-2.5v-1.2c-.6.8-1.5 1.4-2.7 1.4c-2 0-3.4-1.5-3.4-4c0-2.4 1.4-4 3.4-4c1.1 0 2.1.6 2.7 1.4c-.02.05 0-1.2 0-1.2h.8s.02 7.6 0 7.6c0 2.4-1.6 3.2-3.4 3.2c-1.3 0-2.2-.2-3.1-1.2l.5-.6zm5.2-7c-.5-.8-1.5-1.4-2.5-1.4c-1.7 0-2.7 1.4-2.7 3.2c0 1.9 1 3.3 2.7 3.3c1 0 2-.7 2.5-1.4v-3.7zm6.5-2.2c2.3 0 3.6 1.9 3.6 4.1v.2h-6.4c.1 1.7 1.2 3.1 3 3.1c1 0 1.8-.4 2.5-1.1l.4.5c-.7.8-1.7 1.3-3 1.3c-2.2 0-3.8-1.7-3.8-4.1c0-2.2 1.6-4 3.7-4zm-2.8 3.7h5.6c-.1-1.3-.9-3-2.8-3c-1.8 0-2.8 1.6-2.8 3zm8.4-3.5h.8v1.3c.6-.8 1.5-1.4 2.6-1.4v.9c-.2-.1-.3-.1-.4-.1c-.8 0-1.9.7-2.2 1.4v5.6h-.8v-7.7zm4.7 6c.5.7 1.4 1.2 2.4 1.2c1.3 0 2.1-.7 2.1-1.6c0-.9-1.1-1.2-2.2-1.5c-1.2-.3-2.6-.7-2.6-2.2c0-1.1.9-2.1 2.7-2.1c1.3 0 2.2.5 2.7 1.2l-.4.5c-.5-.6-1.3-1-2.3-1c-1.2 0-1.9.6-1.9 1.4c0 .9.9 1.1 2 1.4c1.3.3 2.8.7 2.8 2.3c0 1.3-1 2.3-2.9 2.3c-1.2 0-2.2-.4-2.9-1.2l.5-.7zm13-5.3h-1.3v-.7h1.3s-.02-.69 0-.7c0-1.5.8-2.4 2.1-2.4c.3 0 .7.1 1 .3l-.3.6c-.2-.1-.4-.2-.7-.2c-.8 0-1.3.6-1.3 1.7v.7h1.6v.7h-1.6v7h-.8v-7zm3.3 3.1c0-2.2 1.5-4 3.7-4c2.3 0 3.7 1.8 3.7 4c0 2.3-1.4 4.1-3.7 4.1c-2.2 0-3.7-1.8-3.7-4.1zm6.5 0c0-1.7-1-3.2-2.8-3.2c-1.8 0-2.8 1.5-2.8 3.2c0 1.8 1 3.3 2.8 3.3c1.8 0 2.8-1.5 2.8-3.3zm8 2.8c-.6.7-1.6 1.3-2.7 1.3c-1.6 0-2.4-.8-2.4-2.5c-.03.01 0-5.4 0-5.4h.8v5.2c0 1.5.7 1.9 1.8 1.9c1 0 2-.6 2.5-1.2c.04-.04 0-5.9 0-5.9h.9v7.7h-.9s.04-1.14 0-1.1zm8.5-4.1c0-1.5-.8-1.9-1.9-1.9c-1 0-2 .6-2.5 1.3v5.8h-.8v-7.7h.8v1.2c.6-.7 1.7-1.4 2.8-1.4c1.5 0 2.4.8 2.4 2.5v5.4h-.8s-.04-5.2 0-5.2zm8.9 4c-.6.8-1.6 1.4-2.7 1.4c-2 0-3.4-1.6-3.4-4c0-2.5 1.4-4.1 3.4-4.1c1.1 0 2 .6 2.7 1.4c-.04.05 0-4.1 0-4.1h.8v10.6h-.8s-.04-1.24 0-1.2zm0-4.5c-.5-.8-1.5-1.4-2.6-1.4c-1.7 0-2.7 1.4-2.7 3.3c0 1.8 1 3.2 2.7 3.2c1.1 0 2.1-.6 2.6-1.3v-3.8zm6.5-2.2c2.3 0 3.6 1.9 3.6 4.1v.2h-6.4c0 1.7 1.2 3.1 3 3.1c.9 0 1.8-.4 2.5-1.1l.4.5c-.8.8-1.7 1.3-3 1.3c-2.2 0-3.8-1.7-3.8-4.1c0-2.2 1.5-4 3.7-4zm-2.8 3.7h5.5c0-1.3-.8-3-2.7-3c-1.9 0-2.8 1.6-2.8 3zm14 3c-.5.8-1.5 1.4-2.7 1.4c-2 0-3.4-1.6-3.4-4c0-2.5 1.4-4.1 3.4-4.1c1.1 0 2.1.6 2.7 1.4v-4.1h.9v10.6h-.9v-1.2zm0-4.5c-.4-.8-1.4-1.4-2.5-1.4c-1.7 0-2.7 1.4-2.7 3.3c0 1.8 1 3.2 2.7 3.2c1.1 0 2.1-.6 2.5-1.3v-3.8zm8.5-3.9c0-.4.3-.7.6-.7c.4 0 .6.3.6.7c0 .3-.2.6-.6.6c-.3 0-.6-.3-.6-.6zm.2 1.9h.8v7.7h-.8v-7.7zm8.4 2.5c0-1.5-.7-1.9-1.8-1.9c-1 0-2 .6-2.5 1.3c-.04-.02 0 5.8 0 5.8h-.9v-7.7h.9s-.04 1.17 0 1.2c.5-.7 1.6-1.4 2.7-1.4c1.6 0 2.4.8 2.4 2.5c.04.01 0 5.4 0 5.4h-.8v-5.2zm8.7-5.4s4.37-.01 4.4 0c1.7 0 2.9 1 2.9 2.7c0 1.3-.9 2.2-1.9 2.4c1.2.2 2.1 1.4 2.1 2.6c0 1.8-1.1 2.9-3.1 2.9c.05-.02-4.4 0-4.4 0V30.2zm4.3 4.7c1.3 0 2-.8 2-1.9c0-1.1-.7-2-2-2c-.04.01-3.4 0-3.4 0v3.9s3.36.04 3.4 0zm0 5.1c1.4 0 2.2-.9 2.2-2.1c0-1.1-.7-2.1-2.2-2.1c.02-.04-3.4 0-3.4 0v4.2s3.42-.04 3.4 0zm10.2-.1c-.7.7-1.6 1.1-2.7 1.1c-1.3 0-2.6-.9-2.6-2.6c0-1.7 1.3-2.5 2.6-2.5c1.1 0 2 .3 2.7 1.1v-1.6c0-1.1-1-1.7-2.1-1.7c-1 0-1.7.3-2.4 1.1l-.5-.6c.8-.9 1.7-1.3 3-1.3c1.5 0 2.8.8 2.8 2.5c-.02-.02 0 5.4 0 5.4h-.8s-.05-.92 0-.9zm0-2.3c-.6-.7-1.4-1.1-2.4-1.1c-1.2 0-2.1.9-2.1 1.9c0 1.1.9 1.9 2.1 1.9c1 0 1.8-.3 2.4-1v-1.7zm3.4 1.7c-.05.01 0-5.4 0-5.4h-1.3v-.8h1.3V31h.8v2.1h1.5v.8h-1.5v5.3c0 .6.2 1 .8 1c.4 0 .7-.1.8-.3l.4.6c-.3.3-.7.5-1.3.5c-1.1 0-1.5-.6-1.5-1.7zm3.6-2.4c0-2.2 1.4-4 3.6-4c2.3 0 3.7 1.8 3.7 4c0 2.3-1.4 4.1-3.7 4.1c-2.2 0-3.6-1.8-3.6-4.1zm6.5 0c0-1.7-1-3.2-2.9-3.2c-1.7 0-2.8 1.5-2.8 3.2c0 1.8 1.1 3.3 2.8 3.3c1.9 0 2.9-1.5 2.9-3.3zm8-1.3c0-1.5-.8-1.9-1.9-1.9c-1 0-2 .6-2.5 1.3c.04-.02 0 5.8 0 5.8h-.8v-7.7h.8s.04 1.17 0 1.2c.6-.7 1.7-1.4 2.8-1.4c1.6 0 2.4.8 2.4 2.5v5.4h-.8v-5.2zm11.9.8h-2.3v4.4h-.9V30.2h3.9c1.9 0 3.3 1.1 3.3 3.1c0 1.9-1.4 3-3 3l3.1 4.5h-1.1l-3-4.4zm.7-5.4h-3v4.6s2.96-.03 3 0c1.4 0 2.3-1 2.3-2.3c0-1.3-.9-2.3-2.3-2.3zm4.4 5.9c0-2.2 1.5-4 3.7-4c2.3 0 3.7 1.8 3.7 4c0 2.3-1.4 4.1-3.7 4.1c-2.2 0-3.7-1.8-3.7-4.1zm6.5 0c0-1.7-1-3.2-2.8-3.2c-1.8 0-2.8 1.5-2.8 3.2c0 1.8 1 3.3 2.8 3.3c1.8 0 2.8-1.5 2.8-3.3zm8 2.8c-.6.7-1.6 1.3-2.7 1.3c-1.6 0-2.4-.8-2.4-2.5c-.03.01 0-5.4 0-5.4h.8v5.2c0 1.5.7 1.9 1.8 1.9c1 0 2-.6 2.5-1.2c.04-.04 0-5.9 0-5.9h.9v7.7h-.9s.04-1.14 0-1.1zm3.8 2.4c.6.8 1.4 1.1 2.5 1.1c1.4 0 2.6-.7 2.6-2.5v-1.2c-.5.8-1.5 1.4-2.6 1.4c-2.1 0-3.5-1.5-3.5-4c0-2.4 1.4-4 3.5-4c1 0 2 .6 2.6 1.4c.04.05 0-1.2 0-1.2h.9s-.02 7.6 0 7.6c0 2.4-1.6 3.2-3.5 3.2c-1.3 0-2.1-.2-3-1.2l.5-.6zm5.1-7c-.4-.8-1.4-1.4-2.5-1.4c-1.7 0-2.7 1.4-2.7 3.2c0 1.9 1 3.3 2.7 3.3c1.1 0 2.1-.7 2.5-1.4v-3.7zm6.5-2.2c2.4 0 3.7 1.9 3.7 4.1c-.05-.01 0 .2 0 .2h-6.5c.1 1.7 1.2 3.1 3 3.1c1 0 1.9-.4 2.5-1.1l.5.5c-.8.8-1.8 1.3-3 1.3c-2.3 0-3.9-1.7-3.9-4.1c0-2.2 1.6-4 3.7-4zm-2.8 3.7h5.6c0-1.3-.9-3-2.8-3c-1.8 0-2.7 1.6-2.8 3zm7.9 5.7c.5-.3.9-.9.9-1.4h-.1c-.4 0-.7-.3-.7-.7c0-.3.3-.7.7-.7c.4 0 .8.4.8 1.1c0 .8-.5 1.7-1.1 2.1l-.5-.4zm9.2-12.1h.9v9.8h5.1v.8h-6V30.2zm6.9 6.7c0-2.2 1.5-4 3.7-4c2.3 0 3.7 1.8 3.7 4c0 2.3-1.4 4.1-3.7 4.1c-2.2 0-3.7-1.8-3.7-4.1zm6.5 0c0-1.7-1-3.2-2.8-3.2c-1.8 0-2.8 1.5-2.8 3.2c0 1.8 1 3.3 2.8 3.3c1.8 0 2.8-1.5 2.8-3.3zm8.1 2.8c-.7.7-1.7 1.3-2.8 1.3c-1.6 0-2.4-.8-2.4-2.5c-.03.01 0-5.4 0-5.4h.8v5.2c0 1.5.7 1.9 1.9 1.9c.9 0 1.9-.6 2.5-1.2c-.05-.04 0-5.9 0-5.9h.8v7.7h-.8s-.05-1.14 0-1.1zm3-8.5c0-.4.3-.7.6-.7c.4 0 .6.3.6.7c0 .3-.2.6-.6.6c-.3 0-.6-.3-.6-.6zm.2 1.9h.8v7.7h-.8v-7.7zm3.1 6c.4.7 1.3 1.2 2.4 1.2c1.3 0 2.1-.7 2.1-1.6c0-.9-1.1-1.2-2.2-1.5c-1.2-.3-2.7-.7-2.7-2.2c0-1.1 1-2.1 2.8-2.1c1.3 0 2.2.5 2.7 1.2l-.4.5c-.5-.6-1.3-1-2.3-1c-1.2 0-2 .6-2 1.4c0 .9 1 1.1 2.1 1.4c1.3.3 2.8.7 2.8 2.3c0 1.3-1 2.3-2.9 2.3c-1.2 0-2.2-.4-2.9-1.2l.5-.7zm7-7.9c0-.4.3-.7.7-.7c.3 0 .6.3.6.7c0 .3-.3.6-.6.6c-.4 0-.7-.3-.7-.6zm.3 1.9h.8v7.7h-.8v-7.7zm8.1 6.8c-.7.7-1.6 1.1-2.6 1.1c-1.3 0-2.7-.9-2.7-2.6c0-1.7 1.3-2.5 2.7-2.5c1 0 1.9.3 2.6 1.1v-1.6c0-1.1-.9-1.7-2.1-1.7c-.9 0-1.7.3-2.4 1.1l-.4-.6c.7-.9 1.6-1.3 2.9-1.3c1.6 0 2.8.8 2.8 2.5v5.4h-.8s-.02-.92 0-.9zm0-2.3c-.6-.7-1.4-1.1-2.3-1.1c-1.3 0-2.1.9-2.1 1.9c0 1.1.8 1.9 2.1 1.9c.9 0 1.7-.3 2.3-1v-1.7zm8.4-2c0-1.5-.8-1.9-1.9-1.9c-.9 0-2 .6-2.5 1.3c.04-.02 0 5.8 0 5.8h-.8v-7.7h.8s.04 1.17 0 1.2c.6-.7 1.7-1.4 2.8-1.4c1.6 0 2.4.8 2.4 2.5c.02.01 0 5.4 0 5.4h-.8v-5.2zm8.1 4.3c-.7.7-1.5 1.1-2.6 1.1c-1.3 0-2.7-.9-2.7-2.6c0-1.7 1.4-2.5 2.7-2.5c1.1 0 1.9.3 2.6 1.1v-1.6c0-1.1-.9-1.7-2.1-1.7c-.9 0-1.7.3-2.4 1.1l-.4-.6c.8-.9 1.7-1.3 2.9-1.3c1.6 0 2.8.8 2.8 2.5c.03-.02 0 5.4 0 5.4h-.8s.01-.92 0-.9zm0-2.3c-.5-.7-1.4-1.1-2.3-1.1c-1.3 0-2.1.9-2.1 1.9c0 1.1.8 1.9 2.1 1.9c.9 0 1.8-.3 2.3-1v-1.7zm8.2-.7c0-2.2 1.5-4 3.7-4c2.3 0 3.7 1.8 3.7 4c0 2.3-1.4 4.1-3.7 4.1c-2.2 0-3.7-1.8-3.7-4.1zm6.5 0c0-1.7-1-3.2-2.8-3.2c-1.8 0-2.8 1.5-2.8 3.2c0 1.8 1 3.3 2.8 3.3c1.8 0 2.8-1.5 2.8-3.3zm8.1-1.3c0-1.5-.8-1.9-1.9-1.9c-1 0-2 .6-2.5 1.3v5.8h-.8v-7.7h.8v1.2c.6-.7 1.7-1.4 2.8-1.4c1.5 0 2.4.8 2.4 2.5v5.4h-.8s-.03-5.2 0-5.2zm15.3 2.6H791l-1.1 2.6h-1l4.3-10.6h1.2l4.3 10.6h-1l-1.1-2.6zm-5.3-.8h5l-2.5-6.3l-2.5 6.3zm13.8 2.3c-.7.7-1.7 1.3-2.8 1.3c-1.6 0-2.4-.8-2.4-2.5c-.02.01 0-5.4 0-5.4h.8v5.2c0 1.5.8 1.9 1.9 1.9c.9 0 1.9-.6 2.5-1.2c-.04-.04 0-5.9 0-5.9h.8v7.7h-.8s-.04-1.14 0-1.1zm3.7 2.4c.6.8 1.4 1.1 2.5 1.1c1.4 0 2.7-.7 2.7-2.5v-1.2c-.6.8-1.6 1.4-2.7 1.4c-2.1 0-3.4-1.5-3.4-4c0-2.4 1.3-4 3.4-4c1.1 0 2 .6 2.7 1.4c-.05.05 0-1.2 0-1.2h.8v7.6c0 2.4-1.6 3.2-3.5 3.2c-1.3 0-2.1-.2-3-1.2l.5-.6zm5.2-7c-.5-.8-1.5-1.4-2.6-1.4c-1.7 0-2.7 1.4-2.7 3.2c0 1.9 1 3.3 2.7 3.3c1.1 0 2.1-.7 2.6-1.4v-3.7zm8.4 4.6c-.7.7-1.7 1.3-2.8 1.3c-1.6 0-2.4-.8-2.4-2.5v-5.4h.8v5.2c0 1.5.8 1.9 1.9 1.9c1 0 2-.6 2.5-1.2c-.03-.04 0-5.9 0-5.9h.8v7.7h-.8s-.03-1.14 0-1.1zm3-.6c.5.7 1.4 1.2 2.5 1.2c1.3 0 2.1-.7 2.1-1.6c0-.9-1.1-1.2-2.2-1.5c-1.3-.3-2.7-.7-2.7-2.2c0-1.1 1-2.1 2.7-2.1c1.4 0 2.2.5 2.8 1.2l-.5.5c-.4-.6-1.2-1-2.3-1c-1.1 0-1.9.6-1.9 1.4c0 .9 1 1.1 2.1 1.4c1.3.3 2.8.7 2.8 2.3c0 1.3-1 2.3-2.9 2.3c-1.2 0-2.2-.4-3-1.2l.5-.7zm7.5.2v-5.4h-1.3v-.8h1.3V31h.8v2.1h1.6v.8h-1.6s.04 5.28 0 5.3c0 .6.3 1 .8 1c.4 0 .7-.1.9-.3l.3.6c-.3.3-.7.5-1.3.5c-1 0-1.5-.6-1.5-1.7zm9.1.7c3.6-2.9 6-4.9 6-7c0-1.5-1.3-2.1-2.4-2.1c-1.3 0-2.3.5-2.9 1.3l-.6-.5c.7-1.1 2-1.7 3.5-1.7c1.5 0 3.3.9 3.3 3c0 2.4-2.4 4.5-5.5 7c-.01-.04 5.6 0 5.6 0v.8h-7s-.02-.76 0-.8zm13.1-10c1.4 0 2.3.6 2.9 1.4l-.5.6c-.6-.7-1.2-1.1-2.4-1.1c-2.2 0-3.1 2.4-3.1 4.6v.5c.5-.7 1.7-1.8 3.1-1.8c1.9 0 3.4 1.1 3.4 3.4c0 1.7-1.3 3.4-3.5 3.4c-2.9 0-3.9-2.7-3.9-5.5c0-2.7 1.1-5.5 4-5.5zm-.1 5c-1.2 0-2.3.8-2.9 1.9c.1 1.4.9 3.2 2.9 3.2c1.8 0 2.6-1.4 2.6-2.5c0-1.7-1.1-2.6-2.6-2.6zm5.2 7.3c.5-.3.9-.9.9-1.4h-.1c-.4 0-.7-.3-.7-.7c0-.3.3-.7.7-.7c.4 0 .8.4.8 1.1c0 .8-.5 1.7-1.1 2.1l-.5-.4zm10.5-10.9l-1.7 1.8l-.6-.5l2.4-2.5h.8v10.6h-.9v-9.4zm4 7.6c.6.6 1.2 1.1 2.4 1.1c2.3 0 3.1-2.4 3.1-4.6v-.5c-.5.7-1.7 1.8-3.1 1.8c-1.9 0-3.4-1.1-3.4-3.4c0-1.7 1.3-3.4 3.5-3.4c2.9 0 3.9 2.7 3.9 5.5c0 2.7-1.1 5.5-4 5.5c-1.4 0-2.2-.6-2.9-1.4l.5-.6zm2.6-8.2c-1.8 0-2.7 1.4-2.7 2.6c0 1.7 1.1 2.5 2.7 2.5c1.1 0 2.2-.7 2.8-1.8c-.1-1.4-.8-3.3-2.8-3.3zm6.6 8.2c.5.6 1.1 1.1 2.3 1.1c2.3 0 3.1-2.4 3.1-4.6v-.5c-.4.7-1.7 1.8-3.1 1.8c-1.9 0-3.4-1.1-3.4-3.4c0-1.7 1.3-3.4 3.6-3.4c2.8 0 3.8 2.7 3.8 5.5c0 2.7-1.1 5.5-4 5.5c-1.4 0-2.2-.6-2.9-1.4l.6-.6zm2.5-8.2c-1.8 0-2.7 1.4-2.7 2.6c0 1.7 1.2 2.5 2.7 2.5c1.1 0 2.3-.7 2.9-1.8c-.2-1.4-.9-3.3-2.9-3.3zm9.6-.8c1.4 0 2.2.6 2.8 1.4l-.5.6c-.5-.7-1.2-1.1-2.3-1.1c-2.3 0-3.2 2.4-3.2 4.6c0 .2 0 .3.1.5c.4-.7 1.6-1.8 3.1-1.8c1.9 0 3.4 1.1 3.4 3.4c0 1.7-1.3 3.4-3.6 3.4c-2.8 0-3.9-2.7-3.9-5.5c0-2.7 1.2-5.5 4.1-5.5zm-.2 5c-1.2 0-2.3.8-2.9 1.9c.1 1.4.9 3.2 2.9 3.2c1.8 0 2.7-1.4 2.7-2.5c0-1.7-1.2-2.6-2.7-2.6zm6.1 4.5c.3 0 .7.4.7.7c0 .4-.4.7-.7.7c-.4 0-.7-.3-.7-.7c0-.3.3-.7.7-.7z" stroke="none" fill="#000"/></g><g id="Polygon104349"><path d="m4.7 8.5H2.8v4H1.2V2s4.44-.05 4.4 0C7.7 2 9 3.3 9 5.2c0 1.9-1.2 2.9-2.6 3.1l2.7 4.2H7.3l-2.6-4zm.7-5.1c.03-.05-2.6 0-2.6 0v3.7s2.63-.03 2.6 0c1.2 0 2-.8 2-1.9c0-1.1-.8-1.8-2-1.8zm9.8 8.3c-.6.7-1.5 1-2.5 1c-1.3 0-2.7-.8-2.7-2.5c0-1.8 1.4-2.5 2.7-2.5c1 0 1.9.3 2.5 1V7.4c0-.9-.8-1.5-1.9-1.5c-.8 0-1.6.3-2.3 1l-.6-1c.9-.8 1.9-1.2 3.2-1.2c1.6 0 3 .7 3 2.7c.04-.03 0 5.1 0 5.1h-1.4s.02-.79 0-.8zm0-2.1c-.4-.6-1.2-.9-2-.9c-1 0-1.7.6-1.7 1.5c0 .9.7 1.5 1.7 1.5c.8 0 1.6-.3 2-.8V9.6zm3.4-6.9c0-.5.4-.9.9-.9c.5 0 .9.4.9.9c0 .5-.4.9-.9.9c-.5 0-.9-.4-.9-.9zm.2 2.2h1.4v7.6h-1.4V4.9zm3.5 5.6c.6.6 1.6 1.1 2.6 1.1c1.1 0 1.7-.4 1.7-1.1c0-.8-.9-1-1.9-1.2c-1.3-.3-2.8-.7-2.8-2.3c0-1.3 1-2.3 2.9-2.3c1.3 0 2.3.5 2.9 1.1l-.6 1c-.5-.6-1.3-1-2.3-1c-1 0-1.6.4-1.6 1c0 .7.9.9 1.8 1.2c1.3.3 2.9.6 2.9 2.4c0 1.3-1 2.3-3.1 2.3c-1.2 0-2.4-.4-3.2-1.2l.7-1zm7.1-7.8c0-.5.4-.9.9-.9c.5 0 .9.4.9.9c0 .5-.4.9-.9.9c-.5 0-.9-.4-.9-.9zm.2 2.2h1.4v7.6h-1.4V4.9zm8.7 2.7c0-1.2-.6-1.6-1.6-1.6c-.9 0-1.7.5-2.1 1.1c-.04-.03 0 5.4 0 5.4h-1.5V4.9h1.5s-.04 1.05 0 1.1c.5-.7 1.5-1.3 2.7-1.3c1.6 0 2.4.8 2.4 2.5c.04-.04 0 5.3 0 5.3h-1.4V7.6zm4.2 5.9c.6.7 1.4 1 2.4 1c1.2 0 2.4-.6 2.4-2.2v-1c-.6.8-1.5 1.3-2.5 1.3c-2 0-3.4-1.4-3.4-4c0-2.4 1.4-3.9 3.4-3.9c1 0 1.9.5 2.5 1.3c.01-.01 0-1.1 0-1.1h1.4s.04 7.34 0 7.3c0 2.7-1.9 3.5-3.8 3.5c-1.3 0-2.2-.3-3.1-1.2l.7-1zm4.8-6.4C46.9 6.5 46 6 45.2 6c-1.4 0-2.3 1.1-2.3 2.6c0 1.6.9 2.7 2.3 2.7c.8 0 1.7-.5 2.1-1.1V7.1zm7.1.2c0-3.3 2.4-5.5 5.4-5.5c2.1 0 3.4 1 4.2 2.2l-1.3.7c-.6-.9-1.6-1.5-2.9-1.5c-2.1 0-3.8 1.7-3.8 4.1c0 2.3 1.7 4 3.8 4c1.3 0 2.3-.6 2.9-1.5l1.3.7c-.8 1.2-2.1 2.2-4.2 2.2c-3 0-5.4-2.2-5.4-5.4zm15.8 4.4c-.7.7-1.5 1-2.6 1c-1.2 0-2.6-.8-2.6-2.5c0-1.8 1.4-2.5 2.6-2.5c1.1 0 2 .3 2.6 1V7.4c0-.9-.8-1.5-1.9-1.5c-.9 0-1.6.3-2.3 1l-.6-1c.8-.8 1.9-1.2 3.1-1.2c1.7 0 3.1.7 3.1 2.7c-.02-.03 0 5.1 0 5.1h-1.4s-.05-.79 0-.8zm0-2.1c-.5-.6-1.2-.9-2-.9c-1.1 0-1.8.6-1.8 1.5c0 .9.7 1.5 1.8 1.5c.8 0 1.5-.3 2-.8V9.6zm8.7-2c0-1.2-.7-1.6-1.6-1.6c-.9 0-1.7.5-2.2 1.1c.04-.03 0 5.4 0 5.4h-1.4V4.9h1.4s.04 1.05 0 1.1c.5-.7 1.6-1.3 2.8-1.3c1.6 0 2.4.8 2.4 2.5v5.3h-1.4V7.6zm6.9-2.9c2.3 0 3.7 1.8 3.7 4.1c.03.03 0 .4 0 .4c0 0-6.04-.02-6 0c.1 1.3 1 2.4 2.6 2.4c.8 0 1.7-.4 2.2-.9l.7.9c-.8.7-1.8 1.1-3.1 1.1c-2.3 0-3.9-1.6-3.9-4c0-2.2 1.6-4 3.8-4zm-2.4 3.4h4.7c0-1-.7-2.2-2.3-2.2c-1.5 0-2.3 1.2-2.4 2.2zm7.5-3c.5-.3 1-.9 1-1.5c0 .1-.1.1-.2.1c-.5 0-.9-.4-.9-.9c0-.6.5-1 1-1c.6 0 1.1.5 1.1 1.3c0 1.1-.6 2-1.4 2.6l-.6-.6zm3.3 5.4c.6.6 1.6 1.1 2.6 1.1c1.1 0 1.7-.4 1.7-1.1c0-.8-.9-1-1.9-1.2c-1.3-.3-2.8-.7-2.8-2.3c0-1.3 1-2.3 2.9-2.3c1.3 0 2.3.5 2.9 1.1l-.6 1c-.5-.6-1.3-1-2.3-1c-.9 0-1.6.4-1.6 1c0 .7.9.9 1.8 1.2c1.4.3 3 .6 3 2.4c0 1.3-1.1 2.3-3.1 2.3c-1.3 0-2.5-.4-3.2-1.2l.6-1z" stroke="none" fill="#000"/></g></svg>