<?xml version="1.0" standalone="no"?><!DOCTYPE svg PUBLIC "-//W3C//DTD SVG 1.1//EN" "http://www.w3.org/Graphics/SVG/1.1/DTD/svg11.dtd"><svg xmlns="http://www.w3.org/2000/svg" version="1.1" width="267px" height="47.4px" viewBox="0 -10 267 47.4" style="top:-10px"><desc>Agent 1</desc><defs/><g id="Polygon89771"><path d="m3.4 17.8c1.2 1.5 2.9 2.3 5.1 2.3c2.5 0 4.1-1.6 4.1-3.6c0-2.3-1.6-3.7-4-3.7c-1.7 0-3 .5-4.3 1.7c.05-.04-2-.7-2-.7V3.5h11.9v2.5H5.1s.04 5.97 0 6c.9-.9 2.5-1.7 4.4-1.7c3.1 0 6 2.2 6 6c0 3.9-3 6.3-6.9 6.3c-3.3 0-5.4-1.1-6.9-2.9l1.7-1.9zm16.4 1.3c1 0 1.8.8 1.8 1.7c0 1-.8 1.8-1.8 1.8c-.9 0-1.7-.8-1.7-1.8c0-.9.8-1.7 1.7-1.7zm6.5-1.3c1.3 1.5 3 2.3 5.2 2.3c2.4 0 4.1-1.6 4.1-3.6c0-2.3-1.6-3.7-4.1-3.7c-1.6 0-3 .5-4.2 1.7c0-.04-2-.7-2-.7V3.5h11.9v2.5h-9.1v6c.9-.9 2.5-1.7 4.3-1.7c3.2 0 6 2.2 6 6c0 3.9-2.9 6.3-6.9 6.3c-3.2 0-5.4-1.1-6.8-2.9l1.6-1.9zM48.1 3.2c5.3 0 7.4 5 7.4 9.7c0 4.7-2.1 9.7-7.4 9.7c-5.2 0-7.3-5-7.3-9.7c0-4.7 2.1-9.7 7.3-9.7zm0 2.5c-3.3 0-4.4 3.5-4.4 7.2c0 3.7 1.1 7.2 4.4 7.2c3.4 0 4.5-3.5 4.5-7.2c0-3.7-1.1-7.2-4.5-7.2zm13.8-2.5c2.8 0 4.7 2 4.7 4.7c0 2.6-1.9 4.6-4.7 4.6c-2.7 0-4.5-2-4.5-4.6c0-2.7 1.8-4.7 4.5-4.7zm10.3.3h1.7l-12 18.8h-1.7l12-18.8zM61.9 4.9c-1.5 0-2.6 1.2-2.6 3c0 1.7 1.1 3 2.6 3c1.6 0 2.7-1.3 2.7-3c0-1.8-1.1-3-2.7-3zm10 8.4c2.8 0 4.6 2.1 4.6 4.7c0 2.6-1.8 4.6-4.6 4.6c-2.7 0-4.6-2-4.6-4.6c0-2.6 1.9-4.7 4.6-4.7zm0 1.7c-1.5 0-2.6 1.3-2.6 3c0 1.7 1.1 3 2.6 3c1.6 0 2.7-1.3 2.7-3c0-1.7-1.1-3-2.7-3z" stroke="none" fill="#282828"/></g></svg>