<?xml version="1.0" standalone="no"?><!DOCTYPE svg PUBLIC "-//W3C//DTD SVG 1.1//EN" "http://www.w3.org/Graphics/SVG/1.1/DTD/svg11.dtd"><svg xmlns="http://www.w3.org/2000/svg" xmlns:xlink="http://www.w3.org/1999/xlink" version="1.1" width="77px" height="27.9px" viewBox="0 -8 77 27.9" style="top:-8px"><desc/><defs/><g id="Polygon76047"><path d="m3.6 7.2v.8h-.4v-.8c-.9 0-1.6-.4-2-.9l.3-.4c.4.4.9.8 1.7.8V4.2c-.9-.2-1.8-.5-1.8-1.6c0-.9.8-1.5 1.8-1.6v-.8h.4v.8c.8.1 1.4.4 1.8.9l-.4.3c-.3-.4-.8-.6-1.4-.7v2.3c.9.2 1.9.6 1.9 1.7c0 .7-.5 1.6-1.9 1.7zm-.4-3.5V1.5c-.7 0-1.3.5-1.3 1.1c0 .6.6.8 1.3 1.1zM5 5.6c0-.8-.7-1.1-1.4-1.3v2.4C4.7 6.7 5 6 5 5.6z" stroke="none" fill="#000"/><a xlink:href="DBF_Avg.%20HH%20Income%20(1%20Mile)" xlink:show="new" xlink:title="&lt;&lt;Avg. HH Income (1 Mile)&gt;&gt;"><rect style="fill:transparent;" x="5" y="0" width="72" height="9"/></a></g><g id="Polygon76048"><path d="m6 3.9l3.9-2v.4L6.5 4.1l3.4 1.8v.4L6 4.3v-.4zm4.5 0l3.9-2v.4l-3.5 1.8l3.5 1.8v.4l-3.9-2v-.4zm8.7 1.7H16l-.6 1.5h-.6l2.5-6h.6l2.4 6h-.5l-.6-1.5zm-3.1-.4h2.9l-1.4-3.6l-1.5 3.6zm4.3-2.4h.5l1.6 3.8L24 2.8h.6l-1.9 4.3h-.5l-1.8-4.3zm5.2 5.1c.4.4.8.6 1.5.6c.8 0 1.5-.4 1.5-1.4v-.7c-.3.4-.9.8-1.5.8c-1.2 0-2-.9-2-2.3c0-1.3.8-2.2 2-2.2c.6 0 1.1.3 1.5.8c-.03-.04 0-.7 0-.7h.4s.04 4.26 0 4.3c0 1.3-.9 1.8-1.9 1.8c-.7 0-1.2-.2-1.7-.7l.2-.3zm3-4c-.3-.5-.9-.8-1.5-.8c-.9 0-1.5.8-1.5 1.8c0 1.1.6 1.9 1.5 1.9c.6 0 1.2-.4 1.5-.8V3.9zm2.1 2.5c.3 0 .4.2.4.4c0 .2-.1.4-.4.4c-.2 0-.4-.2-.4-.4c0-.2.2-.4.4-.4zM39 4.3h-3.8v2.8h-.5v-6h.5v2.7h3.8V1.1h.6v6h-.6V4.3zm6.4 0h-3.8v2.8h-.6v-6h.6v2.7h3.8V1.1h.5v6h-.5V4.3zm4.2-3.2h.5v6h-.5v-6zm4.9 3.1c0-.9-.4-1.1-1-1.1c-.6 0-1.2.3-1.4.7c-.03.02 0 3.3 0 3.3h-.5V2.8h.5s-.03.62 0 .6c.3-.4.9-.7 1.5-.7c.9 0 1.4.4 1.4 1.4v3h-.5s.03-2.92 0-2.9zm3.8-1.5c.8 0 1.2.3 1.6.7l-.4.3c-.3-.5-.7-.6-1.2-.6c-1 0-1.6.8-1.6 1.8c0 1.1.6 1.9 1.6 1.9c.5 0 .9-.2 1.2-.6l.4.3c-.4.4-.8.7-1.6.7c-1.3 0-2.1-1-2.1-2.3c0-1.2.8-2.2 2.1-2.2zm2.4 2.2c0-1.2.8-2.2 2-2.2c1.3 0 2.1 1 2.1 2.2c0 1.3-.8 2.3-2.1 2.3c-1.2 0-2-1-2-2.3zm3.6 0c0-.9-.5-1.8-1.6-1.8c-1 0-1.5.9-1.5 1.8c0 1 .5 1.9 1.5 1.9c1.1 0 1.6-.9 1.6-1.9zm6.9-.8c0-.6-.2-1-.9-1c-.4 0-1 .3-1.2.7v3.3h-.5s.03-3.03 0-3c0-.6-.2-1-.8-1c-.5 0-1 .3-1.3.7c.01.02 0 3.3 0 3.3h-.5V2.8h.5v.6c.2-.3.8-.7 1.4-.7c.7 0 1 .4 1.2.8c.2-.4.8-.8 1.4-.8c.8 0 1.2.4 1.2 1.3v3.1h-.5s.02-3.03 0-3zM75 2.7c1.3 0 2 1 2 2.3c.04-.04 0 .1 0 .1c0 0-3.6-.02-3.6 0c0 .9.7 1.7 1.7 1.7c.6 0 1-.2 1.4-.6l.3.3c-.5.5-1 .7-1.7.7c-1.3 0-2.2-.9-2.2-2.3c0-1.2.9-2.2 2.1-2.2zm-1.6 2h3.2c0-.7-.5-1.6-1.6-1.6c-1 0-1.6.9-1.6 1.6z" stroke="none" fill="#000"/></g></svg>