<?xml version="1.0" standalone="no"?><!DOCTYPE svg PUBLIC "-//W3C//DTD SVG 1.1//EN" "http://www.w3.org/Graphics/SVG/1.1/DTD/svg11.dtd"><svg xmlns="http://www.w3.org/2000/svg" version="1.1" width="311px" height="24.9px" viewBox="0 -5 311 24.9" style="top:-5px"><desc>Copyright</desc><defs/><g id="Polygon78792"><path d="m126.3 6.4c0-2.9 2.2-4.8 4.8-4.8c1.9 0 3 .8 3.7 1.9l-1.2.7c-.5-.8-1.4-1.4-2.5-1.4c-1.9 0-3.3 1.5-3.3 3.6c0 2.1 1.4 3.6 3.3 3.6c1.1 0 2-.6 2.5-1.4l1.2.7c-.7 1-1.8 1.9-3.7 1.9c-2.6 0-4.8-1.9-4.8-4.8zm9.3 1.3c0-2 1.4-3.6 3.5-3.6c2.1 0 3.4 1.6 3.4 3.6c0 1.9-1.3 3.5-3.4 3.5c-2.1 0-3.5-1.6-3.5-3.5zm5.6 0c0-1.3-.8-2.5-2.1-2.5c-1.4 0-2.1 1.2-2.1 2.5c0 1.3.7 2.4 2.1 2.4c1.3 0 2.1-1.1 2.1-2.4zm2.7 5.9V4.3h1.3v1c.5-.7 1.3-1.2 2.2-1.2c1.8 0 3 1.4 3 3.6c0 2.2-1.2 3.5-3 3.5c-.9 0-1.7-.4-2.2-1.1v3.5h-1.3zm3.2-8.4c-.8 0-1.6.5-1.9 1v2.9c.3.5 1.1 1 1.9 1c1.2 0 2-1 2-2.4c0-1.4-.8-2.5-2-2.5zm5.2 7.5c.4 0 .8-.2 1-.7c-.03.03.4-.9.4-.9l-2.8-6.8h1.3l2.1 5.3l2.1-5.3h1.4l-3.3 8c-.5 1.1-1.2 1.5-2.2 1.5c-.2 0-.6 0-.8-.1l.2-1.1c.2 0 .4.1.6.1zm6.4-8.4h1.2s.04 1.03 0 1c.6-.6 1.4-1.2 2.3-1.2v1.3h-.5c-.6 0-1.5.5-1.8 1c.04-.04 0 4.7 0 4.7h-1.2V4.3zm4.4-1.9c0-.5.4-.8.8-.8c.4 0 .8.3.8.8c0 .4-.4.8-.8.8c-.4 0-.8-.4-.8-.8zm.2 1.9h1.2v6.8h-1.2V4.3zm3.6 7.6c.6.6 1.3.9 2.2.9c1.1 0 2.1-.5 2.1-2v-.8c-.5.6-1.3 1.1-2.2 1.1c-1.8 0-3-1.3-3-3.5c0-2.2 1.2-3.5 3-3.5c.9 0 1.7.5 2.2 1.2c.02-.02 0-1 0-1h1.3s-.03 6.49 0 6.5c0 2.3-1.7 3-3.4 3c-1.1 0-1.9-.2-2.8-1l.6-.9zm4.3-5.7c-.3-.5-1.1-1-1.9-1c-1.2 0-2 1-2 2.4c0 1.4.8 2.4 2 2.4c.8 0 1.6-.5 1.9-1V6.2zm7.7.5c0-1.1-.6-1.5-1.4-1.5c-.8 0-1.5.5-1.9 1v4.9h-1.3V1.7h1.3v3.5c.4-.5 1.4-1.1 2.4-1.1c1.4 0 2.2.8 2.2 2.2c-.04-.01 0 4.8 0 4.8h-1.3V6.7zm3.4 2.9V5.4h-1.1V4.3h1.1V2.5h1.2v1.8h1.4v1.1h-1.4s.05 3.88 0 3.9c0 .5.3.8.7.8c.3 0 .6-.1.7-.3l.3 1c-.3.2-.6.4-1.3.4c-1.1 0-1.6-.6-1.6-1.6z" stroke="none" fill="#888888"/></g></svg>