<?xml version="1.0" standalone="no"?>
<!DOCTYPE svg PUBLIC "-//W3C//DTD SVG 1.1//EN" "http://www.w3.org/Graphics/SVG/1.1/DTD/svg11.dtd">
<svg xmlns="http://www.w3.org/2000/svg" version="1.1" width="158px" height="27.9px" viewBox="0 -6 158 27.9" style="top:-6px">
  <desc>Term Remaining</desc>
  <defs/>
  <g id="Polygon272962">
    <path d="M 3.8 3.4 L 0.5 3.4 L 0.5 2 L 8.6 2 L 8.6 3.4 L 5.4 3.4 L 5.4 12.5 L 3.8 12.5 L 3.8 3.4 Z M 11.7 4.7 C 14 4.7 15.4 6.5 15.4 8.8 C 15.44 8.83 15.4 9.2 15.4 9.2 C 15.4 9.2 9.37 9.18 9.4 9.2 C 9.5 10.5 10.4 11.6 12 11.6 C 12.8 11.6 13.7 11.2 14.2 10.7 C 14.2 10.7 14.9 11.6 14.9 11.6 C 14.2 12.3 13.1 12.7 11.8 12.7 C 9.5 12.7 7.9 11.1 7.9 8.7 C 7.9 6.5 9.5 4.7 11.7 4.7 Z M 9.4 8.1 C 9.4 8.1 14 8.1 14 8.1 C 14 7.1 13.3 5.9 11.7 5.9 C 10.2 5.9 9.4 7.1 9.4 8.1 Z M 17.1 4.9 L 18.5 4.9 C 18.5 4.9 18.5 6.05 18.5 6.1 C 19.1 5.3 20 4.7 21 4.7 C 21 4.7 21 6.1 21 6.1 C 20.9 6.1 20.7 6.1 20.5 6.1 C 19.8 6.1 18.8 6.6 18.5 7.2 C 18.5 7.21 18.5 12.5 18.5 12.5 L 17.1 12.5 L 17.1 4.9 Z M 31.6 7.4 C 31.6 6.5 31.2 6 30.3 6 C 29.5 6 28.7 6.5 28.4 7.1 C 28.37 7.05 28.4 12.5 28.4 12.5 L 26.9 12.5 C 26.9 12.5 26.94 7.43 26.9 7.4 C 26.9 6.5 26.6 6 25.6 6 C 24.8 6 24.1 6.5 23.7 7.1 C 23.71 7.07 23.7 12.5 23.7 12.5 L 22.3 12.5 L 22.3 4.9 L 23.7 4.9 C 23.7 4.9 23.71 5.95 23.7 6 C 24 5.5 25 4.7 26.2 4.7 C 27.3 4.7 28 5.3 28.3 6.1 C 28.7 5.4 29.7 4.7 30.9 4.7 C 32.3 4.7 33 5.5 33 7 C 33.03 7 33 12.5 33 12.5 L 31.6 12.5 C 31.6 12.5 31.61 7.43 31.6 7.4 Z M 42.7 8.5 L 40.7 8.5 L 40.7 12.5 L 39.1 12.5 L 39.1 2 C 39.1 2 43.58 1.95 43.6 2 C 45.6 2 47 3.3 47 5.2 C 47 7.1 45.7 8.1 44.3 8.3 C 44.34 8.31 47.1 12.5 47.1 12.5 L 45.2 12.5 L 42.7 8.5 Z M 43.4 3.4 C 43.37 3.35 40.7 3.4 40.7 3.4 L 40.7 7.1 C 40.7 7.1 43.37 7.07 43.4 7.1 C 44.5 7.1 45.3 6.3 45.3 5.2 C 45.3 4.1 44.5 3.4 43.4 3.4 Z M 51.6 4.7 C 53.9 4.7 55.4 6.5 55.4 8.8 C 55.36 8.83 55.4 9.2 55.4 9.2 C 55.4 9.2 49.3 9.18 49.3 9.2 C 49.4 10.5 50.4 11.6 51.9 11.6 C 52.7 11.6 53.6 11.2 54.2 10.7 C 54.2 10.7 54.8 11.6 54.8 11.6 C 54.1 12.3 53 12.7 51.8 12.7 C 49.5 12.7 47.8 11.1 47.8 8.7 C 47.8 6.5 49.4 4.7 51.6 4.7 Z M 49.3 8.1 C 49.3 8.1 54 8.1 54 8.1 C 53.9 7.1 53.3 5.9 51.6 5.9 C 50.1 5.9 49.4 7.1 49.3 8.1 Z M 66.3 7.4 C 66.3 6.5 65.9 6 65 6 C 64.2 6 63.4 6.5 63.1 7.1 C 63.08 7.05 63.1 12.5 63.1 12.5 L 61.7 12.5 C 61.7 12.5 61.66 7.43 61.7 7.4 C 61.7 6.5 61.3 6 60.3 6 C 59.6 6 58.8 6.5 58.4 7.1 C 58.43 7.07 58.4 12.5 58.4 12.5 L 57 12.5 L 57 4.9 L 58.4 4.9 C 58.4 4.9 58.43 5.95 58.4 6 C 58.7 5.5 59.8 4.7 60.9 4.7 C 62.1 4.7 62.8 5.3 63 6.1 C 63.4 5.4 64.5 4.7 65.6 4.7 C 67 4.7 67.8 5.5 67.8 7 C 67.75 7 67.8 12.5 67.8 12.5 L 66.3 12.5 C 66.3 12.5 66.33 7.43 66.3 7.4 Z M 74.6 11.7 C 74 12.4 73.1 12.7 72.1 12.7 C 70.8 12.7 69.4 11.9 69.4 10.2 C 69.4 8.4 70.8 7.7 72.1 7.7 C 73.1 7.7 74 8 74.6 8.7 C 74.6 8.7 74.6 7.4 74.6 7.4 C 74.6 6.5 73.8 5.9 72.7 5.9 C 71.9 5.9 71.1 6.2 70.4 6.9 C 70.4 6.9 69.8 5.9 69.8 5.9 C 70.7 5.1 71.7 4.7 72.9 4.7 C 74.6 4.7 76 5.4 76 7.4 C 76.03 7.37 76 12.5 76 12.5 L 74.6 12.5 C 74.6 12.5 74.6 11.71 74.6 11.7 Z M 74.6 9.6 C 74.2 9 73.4 8.7 72.6 8.7 C 71.6 8.7 70.9 9.3 70.9 10.2 C 70.9 11.1 71.6 11.7 72.6 11.7 C 73.4 11.7 74.2 11.4 74.6 10.9 C 74.6 10.9 74.6 9.6 74.6 9.6 Z M 77.9 2.7 C 77.9 2.2 78.4 1.8 78.9 1.8 C 79.4 1.8 79.8 2.2 79.8 2.7 C 79.8 3.2 79.4 3.6 78.9 3.6 C 78.4 3.6 77.9 3.2 77.9 2.7 Z M 78.2 4.9 L 79.6 4.9 L 79.6 12.5 L 78.2 12.5 L 78.2 4.9 Z M 86.9 7.6 C 86.9 6.4 86.2 6 85.2 6 C 84.4 6 83.5 6.5 83.1 7.1 C 83.13 7.07 83.1 12.5 83.1 12.5 L 81.7 12.5 L 81.7 4.9 L 83.1 4.9 C 83.1 4.9 83.13 5.95 83.1 6 C 83.6 5.3 84.7 4.7 85.8 4.7 C 87.5 4.7 88.3 5.5 88.3 7.2 C 88.3 7.16 88.3 12.5 88.3 12.5 L 86.9 12.5 C 86.9 12.5 86.88 7.64 86.9 7.6 Z M 90.2 2.7 C 90.2 2.2 90.6 1.8 91.1 1.8 C 91.6 1.8 92 2.2 92 2.7 C 92 3.2 91.6 3.6 91.1 3.6 C 90.6 3.6 90.2 3.2 90.2 2.7 Z M 90.4 4.9 L 91.8 4.9 L 91.8 12.5 L 90.4 12.5 L 90.4 4.9 Z M 99.1 7.6 C 99.1 6.4 98.5 6 97.5 6 C 96.6 6 95.8 6.5 95.4 7.1 C 95.39 7.07 95.4 12.5 95.4 12.5 L 94 12.5 L 94 4.9 L 95.4 4.9 C 95.4 4.9 95.39 5.95 95.4 6 C 95.9 5.3 96.9 4.7 98.1 4.7 C 99.7 4.7 100.6 5.5 100.6 7.2 C 100.57 7.16 100.6 12.5 100.6 12.5 L 99.1 12.5 C 99.1 12.5 99.14 7.64 99.1 7.6 Z M 103.3 13.5 C 103.9 14.2 104.7 14.5 105.8 14.5 C 107 14.5 108.1 13.9 108.1 12.3 C 108.1 12.3 108.1 11.3 108.1 11.3 C 107.6 12.1 106.6 12.6 105.6 12.6 C 103.6 12.6 102.2 11.2 102.2 8.6 C 102.2 6.2 103.6 4.7 105.6 4.7 C 106.6 4.7 107.5 5.2 108.1 6 C 108.14 5.99 108.1 4.9 108.1 4.9 L 109.6 4.9 C 109.6 4.9 109.57 12.24 109.6 12.2 C 109.6 14.9 107.7 15.7 105.8 15.7 C 104.5 15.7 103.5 15.4 102.6 14.5 C 102.6 14.5 103.3 13.5 103.3 13.5 Z M 108.1 7.1 C 107.7 6.5 106.9 6 106 6 C 104.6 6 103.7 7.1 103.7 8.6 C 103.7 10.2 104.6 11.3 106 11.3 C 106.9 11.3 107.7 10.8 108.1 10.2 C 108.1 10.2 108.1 7.1 108.1 7.1 Z " stroke="none" fill="#3797ef"/>
  </g>
</svg>