<?xml version="1.0" standalone="no"?>
<!DOCTYPE svg PUBLIC "-//W3C//DTD SVG 1.1//EN" "http://www.w3.org/Graphics/SVG/1.1/DTD/svg11.dtd">
<svg xmlns="http://www.w3.org/2000/svg" version="1.1" width="236px" height="16.9px" viewBox="0 -4 236 16.9" style="top:-4px">
  <desc>TENANT NAME</desc>
  <defs/>
  <g id="Polygon202686">
    <path d="M 2.1 1.9 L 0.3 1.9 L 0.3 1.1 L 4.9 1.1 L 4.9 1.9 L 3 1.9 L 3 7.1 L 2.1 7.1 L 2.1 1.9 Z M 5.8 1.1 L 9.9 1.1 L 9.9 1.9 L 6.7 1.9 L 6.7 3.7 L 9.8 3.7 L 9.8 4.4 L 6.7 4.4 L 6.7 6.3 L 9.9 6.3 L 9.9 7.1 L 5.8 7.1 L 5.8 1.1 Z M 11.9 2.5 L 11.9 7.1 L 11 7.1 L 11 1.1 L 11.9 1.1 L 15.2 5.6 L 15.2 1.1 L 16.1 1.1 L 16.1 7.1 L 15.2 7.1 L 11.9 2.5 Z M 21.2 5.9 L 18.3 5.9 L 17.8 7.1 L 16.8 7.1 L 19.2 1.1 L 20.3 1.1 L 22.7 7.1 L 21.7 7.1 L 21.2 5.9 Z M 18.5 5.1 L 20.9 5.1 L 19.7 1.9 L 18.5 5.1 Z M 24.3 2.5 L 24.3 7.1 L 23.4 7.1 L 23.4 1.1 L 24.3 1.1 L 27.6 5.6 L 27.6 1.1 L 28.5 1.1 L 28.5 7.1 L 27.6 7.1 L 24.3 2.5 Z M 31.3 1.9 L 29.4 1.9 L 29.4 1.1 L 34 1.1 L 34 1.9 L 32.2 1.9 L 32.2 7.1 L 31.3 7.1 L 31.3 1.9 Z M 38.2 2.5 L 38.2 7.1 L 37.3 7.1 L 37.3 1.1 L 38.2 1.1 L 41.5 5.6 L 41.5 1.1 L 42.4 1.1 L 42.4 7.1 L 41.5 7.1 L 38.2 2.5 Z M 47.5 5.9 L 44.6 5.9 L 44.1 7.1 L 43.1 7.1 L 45.5 1.1 L 46.6 1.1 L 49 7.1 L 48 7.1 L 47.5 5.9 Z M 44.8 5.1 L 47.3 5.1 L 46.1 1.9 L 44.8 5.1 Z M 54.9 2.3 L 52.9 7.1 L 52.6 7.1 L 50.6 2.3 L 50.6 7.1 L 49.7 7.1 L 49.7 1.1 L 51 1.1 L 52.8 5.4 L 54.5 1.1 L 55.8 1.1 L 55.8 7.1 L 54.9 7.1 L 54.9 2.3 Z M 57.1 1.1 L 61.2 1.1 L 61.2 1.9 L 58 1.9 L 58 3.7 L 61.1 3.7 L 61.1 4.4 L 58 4.4 L 58 6.3 L 61.2 6.3 L 61.2 7.1 L 57.1 7.1 L 57.1 1.1 Z " stroke="none" fill="#88898a"/>
  </g>
</svg>