<?xml version="1.0" standalone="no"?><!DOCTYPE svg PUBLIC "-//W3C//DTD SVG 1.1//EN" "http://www.w3.org/Graphics/SVG/1.1/DTD/svg11.dtd"><svg xmlns="http://www.w3.org/2000/svg" version="1.1" width="904px" height="266.9px" viewBox="0 -6 904 266.9" style="top:-6px"><desc>Lorem ipsum Lorem ipsum dolor sit unde enim amet, consectetur adipiscing elit, sed omnis qui do eiusmod tempor incidi</desc><defs/><g id="Polygon296487"><path d="m10.4 139.9c0-1.1-.4-1.8-1.5-1.8c-.8 0-1.8.6-2.2 1.3v5.9h-.9s.05-5.42 0-5.4c0-1.1-.4-1.8-1.5-1.8c-.8 0-1.7.7-2.2 1.4v5.8h-.8v-7.7h.8s.01 1.14 0 1.1c.3-.5 1.4-1.3 2.5-1.3c1.2 0 1.8.7 2 1.4c.4-.7 1.5-1.4 2.5-1.4c1.5 0 2.1.8 2.1 2.3c.04.02 0 5.6 0 5.6h-.8s.02-5.42 0-5.4zm8.1 4.4c-.6.8-1.5 1.1-2.6 1.1c-1.3 0-2.7-.9-2.7-2.5c0-1.7 1.4-2.5 2.7-2.5c1.1 0 2 .3 2.6 1v-1.5c0-1.1-.9-1.8-2-1.8c-1 0-1.7.4-2.4 1.1l-.5-.5c.8-.9 1.7-1.3 2.9-1.3c1.6 0 2.9.7 2.9 2.5c-.04-.05 0 5.4 0 5.4h-.9s.04-.95 0-1zm0-2.2c-.5-.7-1.4-1.1-2.3-1.1c-1.3 0-2.1.8-2.1 1.9c0 1.1.8 1.9 2.1 1.9c.9 0 1.8-.4 2.3-1.1v-1.6zm3.8 4.5c.6.8 1.4 1.1 2.5 1.1c1.4 0 2.6-.7 2.6-2.5V144c-.5.8-1.5 1.4-2.6 1.4c-2.1 0-3.5-1.5-3.5-4c0-2.4 1.4-4 3.5-4c1 0 2 .5 2.6 1.4c.03.02 0-1.2 0-1.2h.9s-.03 7.57 0 7.6c0 2.3-1.6 3.2-3.5 3.2c-1.3 0-2.1-.3-3-1.2l.5-.6zm5.1-7.1c-.4-.7-1.4-1.4-2.5-1.4c-1.7 0-2.7 1.5-2.7 3.3c0 1.9 1 3.3 2.7 3.3c1.1 0 2.1-.7 2.5-1.4v-3.8zm8.4.6c0-1.5-.7-2-1.8-2c-1 0-2 .7-2.5 1.4v5.8h-.8v-7.7h.8s-.01 1.14 0 1.1c.5-.6 1.6-1.3 2.8-1.3c1.5 0 2.4.8 2.4 2.5c-.03-.02 0 5.4 0 5.4h-.9s.05-5.23 0-5.2zm8.2 4.2c-.7.8-1.6 1.1-2.6 1.1c-1.4 0-2.7-.9-2.7-2.5c0-1.7 1.3-2.5 2.7-2.5c1 0 1.9.3 2.6 1v-1.5c0-1.1-1-1.8-2.1-1.8c-1 0-1.7.4-2.4 1.1l-.5-.5c.8-.9 1.7-1.3 3-1.3c1.5 0 2.8.7 2.8 2.5v5.4h-.8s-.04-.95 0-1zm0-2.2c-.6-.7-1.4-1.1-2.4-1.1c-1.2 0-2.1.8-2.1 1.9c0 1.1.9 1.9 2.1 1.9c1 0 1.8-.4 2.4-1.1v-1.6zm12 2.2c-.7.8-1.5 1.1-2.6 1.1c-1.3 0-2.7-.9-2.7-2.5c0-1.7 1.4-2.5 2.7-2.5c1.1 0 1.9.3 2.6 1v-1.5c0-1.1-.9-1.8-2-1.8c-1 0-1.7.4-2.4 1.1l-.5-.5c.8-.9 1.7-1.3 2.9-1.3c1.6 0 2.9.7 2.9 2.5c-.04-.05 0 5.4 0 5.4h-.9s.03-.95 0-1zm0-2.2c-.5-.7-1.4-1.1-2.3-1.1c-1.3 0-2.1.8-2.1 1.9c0 1.1.8 1.9 2.1 1.9c.9 0 1.8-.4 2.3-1.1v-1.6zm3.3-7.4h.8v10.6h-.8v-10.6zm3 .9c0-.3.3-.6.6-.6c.4 0 .7.3.7.6c0 .4-.3.7-.7.7c-.3 0-.6-.3-.6-.7zm.2 2h.8v7.7h-.8v-7.7zm8.9 10.6V144c-.6.9-1.6 1.4-2.7 1.4c-2 0-3.4-1.5-3.4-4c0-2.5 1.4-4 3.4-4c1.2 0 2.2.6 2.7 1.4v-1.2h.8v10.6h-.8zm0-8.7c-.4-.7-1.5-1.4-2.5-1.4c-1.7 0-2.7 1.5-2.7 3.3c0 1.9 1 3.3 2.7 3.3c1 0 2.1-.7 2.5-1.4v-3.8zm8.4 4.6c-.6.7-1.6 1.3-2.7 1.3c-1.6 0-2.5-.7-2.5-2.4c.05-.02 0-5.4 0-5.4h.9s-.03 5.19 0 5.2c0 1.5.7 1.9 1.8 1.9c1 0 2-.6 2.5-1.3c.02.03 0-5.8 0-5.8h.8v7.7h-.8s.02-1.17 0-1.2zm8.1.2c-.6.8-1.5 1.1-2.6 1.1c-1.3 0-2.6-.9-2.6-2.5c0-1.7 1.3-2.5 2.6-2.5c1.1 0 2 .3 2.6 1v-1.5c0-1.1-.9-1.8-2-1.8c-1 0-1.7.4-2.4 1.1l-.5-.5c.8-.9 1.7-1.3 3-1.3c1.5 0 2.8.7 2.8 2.5c-.04-.05 0 5.4 0 5.4h-.9s.04-.95 0-1zm0-2.2c-.5-.7-1.4-1.1-2.3-1.1c-1.3 0-2.1.8-2.1 1.9c0 1.1.8 1.9 2.1 1.9c.9 0 1.8-.4 2.3-1.1v-1.6zm3.7 1.9c.4 0 .7.3.7.7c0 .4-.3.7-.7.7c-.4 0-.7-.3-.7-.7c0-.4.3-.7.7-.7zm6.9-9.3h.9v6.5c0 2.1 1.1 3.4 3.2 3.4c2.1 0 3.2-1.3 3.2-3.4c.02-.03 0-6.5 0-6.5h.9s.04 6.49 0 6.5c0 2.6-1.4 4.2-4.1 4.2c-2.7 0-4.1-1.6-4.1-4.2v-6.5zm10.8 9.1c.05-.02 0-5.5 0-5.5h-1.2v-.7h1.2v-2.1h.9v2.1h1.5v.7h-1.5v5.3c0 .7.2 1.1.8 1.1c.3 0 .7-.2.8-.4l.4.7c-.3.3-.7.4-1.3.4c-1.1 0-1.6-.6-1.6-1.6zm11.3-6.4c2.3 0 3.6 1.8 3.6 4.1c.03-.04 0 .2 0 .2c0 0-6.39-.02-6.4 0c.1 1.6 1.2 3 3 3c1 0 1.9-.3 2.5-1l.5.5c-.8.8-1.8 1.2-3 1.2c-2.3 0-3.9-1.6-3.9-4c0-2.2 1.6-4 3.7-4zm-2.8 3.6h5.6c0-1.3-.9-2.9-2.8-2.9c-1.8 0-2.7 1.6-2.8 2.9zm13.6-.9c0-1.5-.8-2-1.9-2c-1 0-2 .7-2.5 1.4c.02-.05 0 5.8 0 5.8h-.8v-7.7h.8s.02 1.14 0 1.1c.6-.6 1.7-1.3 2.8-1.3c1.5 0 2.4.8 2.4 2.5v5.4h-.8s-.02-5.23 0-5.2zm3-4.5c0-.3.3-.6.6-.6c.4 0 .7.3.7.6c0 .4-.3.7-.7.7c-.3 0-.6-.3-.6-.7zm.2 2h.8v7.7h-.8v-7.7zm12.4 2.3c0-1.1-.5-1.8-1.6-1.8c-.8 0-1.7.6-2.1 1.3c-.04.04 0 5.9 0 5.9h-.9s.02-5.42 0-5.4c0-1.1-.4-1.8-1.5-1.8c-.8 0-1.8.7-2.2 1.4c-.02-.05 0 5.8 0 5.8h-.8v-7.7h.8s-.02 1.14 0 1.1c.3-.5 1.3-1.3 2.5-1.3c1.2 0 1.8.7 2 1.4c.4-.7 1.4-1.4 2.5-1.4c1.4 0 2.1.8 2.1 2.3v5.6h-.8v-5.4zm12.1 4.4c-.7.8-1.6 1.1-2.6 1.1c-1.4 0-2.7-.9-2.7-2.5c0-1.7 1.3-2.5 2.7-2.5c1 0 1.9.3 2.6 1v-1.5c0-1.1-1-1.8-2.1-1.8c-1 0-1.7.4-2.4 1.1l-.5-.5c.8-.9 1.7-1.3 3-1.3c1.5 0 2.8.7 2.8 2.5c-.02-.05 0 5.4 0 5.4h-.8s-.04-.95 0-1zm0-2.2c-.6-.7-1.4-1.1-2.4-1.1c-1.2 0-2.1.8-2.1 1.9c0 1.1.9 1.9 2.1 1.9c1 0 1.8-.4 2.4-1.1v-1.6zm8.9 1.9c-.6.8-1.6 1.4-2.7 1.4c-2 0-3.4-1.5-3.4-4c0-2.4 1.4-4 3.4-4c1.1 0 2 .5 2.7 1.4c-.05.02 0-4.1 0-4.1h.8v10.6h-.8s-.05-1.27 0-1.3zm0-4.5c-.5-.7-1.5-1.4-2.6-1.4c-1.7 0-2.7 1.5-2.7 3.3c0 1.9 1 3.3 2.7 3.3c1.1 0 2.1-.6 2.6-1.4v-3.8zm16.3.4c0-1.1-.5-1.8-1.5-1.8c-.9 0-1.8.6-2.2 1.3c-.04.04 0 5.9 0 5.9h-.9s.02-5.42 0-5.4c0-1.1-.4-1.8-1.5-1.8c-.8 0-1.8.7-2.2 1.4v5.8h-.8v-7.7h.8s-.01 1.14 0 1.1c.3-.5 1.4-1.3 2.5-1.3c1.2 0 1.8.7 2 1.4c.4-.7 1.4-1.4 2.5-1.4c1.4 0 2.1.8 2.1 2.3c.02.02 0 5.6 0 5.6h-.8v-5.4zm3-4.3c0-.3.3-.6.6-.6c.4 0 .7.3.7.6c0 .4-.3.7-.7.7c-.3 0-.6-.3-.6-.7zm.2 2h.9v7.7h-.9v-7.7zm8.5 2.5c0-1.5-.8-2-1.9-2c-1 0-2 .7-2.5 1.4v5.8h-.8v-7.7h.8v1.1c.6-.6 1.7-1.3 2.8-1.3c1.5 0 2.4.8 2.4 2.5c-.02-.02 0 5.4 0 5.4h-.8s-.05-5.23 0-5.2zm3-4.5c0-.3.3-.6.6-.6c.4 0 .6.3.6.6c0 .4-.2.7-.6.7c-.3 0-.6-.3-.6-.7zm.2 2h.8v7.7h-.8v-7.7zm12.4 2.3c0-1.1-.5-1.8-1.6-1.8c-.8 0-1.7.6-2.2 1.3c.03.04 0 5.9 0 5.9h-.8v-5.4c0-1.1-.5-1.8-1.5-1.8c-.9 0-1.8.7-2.2 1.4c-.04-.05 0 5.8 0 5.8h-.9v-7.7h.9s-.04 1.14 0 1.1c.3-.5 1.3-1.3 2.4-1.3c1.2 0 1.9.7 2.1 1.4c.4-.7 1.4-1.4 2.5-1.4c1.4 0 2.1.8 2.1 2.3v5.6h-.8s-.03-5.42 0-5.4zm6-2.3h.9l2.8 6.7l2.8-6.7h.9l-3.2 7.7h-1l-3.2-7.7zm11.9-.2c2.3 0 3.6 1.8 3.6 4.1c.02-.04 0 .2 0 .2c0 0-6.4-.02-6.4 0c.1 1.6 1.2 3 3 3c1 0 1.8-.3 2.5-1l.4.5c-.7.8-1.7 1.2-3 1.2c-2.2 0-3.8-1.6-3.8-4c0-2.2 1.6-4 3.7-4zm-2.8 3.6h5.6c0-1.3-.9-2.9-2.8-2.9c-1.8 0-2.7 1.6-2.8 2.9zm13.6-.9c0-1.5-.8-2-1.9-2c-1 0-2 .7-2.5 1.4v5.8h-.8v-7.7h.8s.01 1.14 0 1.1c.6-.6 1.7-1.3 2.8-1.3c1.5 0 2.4.8 2.4 2.5v5.4h-.8s-.04-5.23 0-5.2zm3-4.5c0-.3.3-.6.6-.6c.4 0 .7.3.7.6c0 .4-.3.7-.7.7c-.3 0-.6-.3-.6-.7zm.2 2h.8v7.7h-.8v-7.7zm8.1 6.7c-.7.8-1.5 1.1-2.6 1.1c-1.3 0-2.7-.9-2.7-2.5c0-1.7 1.4-2.5 2.7-2.5c1.1 0 1.9.3 2.6 1v-1.5c0-1.1-.9-1.8-2-1.8c-1 0-1.7.4-2.4 1.1l-.5-.5c.8-.9 1.7-1.3 2.9-1.3c1.6 0 2.8.7 2.8 2.5c.04-.05 0 5.4 0 5.4h-.8s.02-.95 0-1zm0-2.2c-.5-.7-1.4-1.1-2.3-1.1c-1.3 0-2.1.8-2.1 1.9c0 1.1.8 1.9 2.1 1.9c.9 0 1.8-.4 2.3-1.1v-1.6zm12.4-2.2c0-1.1-.5-1.8-1.5-1.8c-.9 0-1.8.6-2.2 1.3c-.04.04 0 5.9 0 5.9h-.9s.02-5.42 0-5.4c0-1.1-.4-1.8-1.5-1.8c-.8 0-1.8.7-2.2 1.4c-.02-.05 0 5.8 0 5.8h-.8v-7.7h.8s-.02 1.14 0 1.1c.3-.5 1.4-1.3 2.5-1.3c1.2 0 1.8.7 2 1.4c.4-.7 1.4-1.4 2.5-1.4c1.4 0 2.1.8 2.1 2.3c.02.02 0 5.6 0 5.6h-.8v-5.4zm3.7 4.1c.4 0 .7.3.7.7c0 .4-.3.7-.7.7c-.4 0-.7-.3-.7-.7c0-.4.3-.7.7-.7z" stroke="none" fill="#000"/></g><g id="Polygon296486"><path d="m1.3 115.6h.9v9.8h5.2v.8H1.3v-10.6zm7 6.8c0-2.3 1.4-4.1 3.7-4.1c2.2 0 3.7 1.8 3.7 4.1c0 2.2-1.5 4-3.7 4c-2.3 0-3.7-1.8-3.7-4zm6.5 0c0-1.7-1-3.3-2.8-3.3c-1.8 0-2.8 1.6-2.8 3.3c0 1.7 1 3.2 2.8 3.2c1.8 0 2.8-1.5 2.8-3.2zm2.8-3.9h.9s-.05 1.34 0 1.3c.6-.8 1.5-1.4 2.5-1.4v.9c-.1 0-.2-.1-.4-.1c-.7 0-1.8.7-2.1 1.4c-.05 0 0 5.6 0 5.6h-.9v-7.7zm8.2-.2c2.3 0 3.6 1.9 3.6 4.1c-.02 0 0 .2 0 .2c0 0-6.44.02-6.4 0c0 1.7 1.2 3.1 3 3.1c.9 0 1.8-.4 2.5-1.1l.4.5c-.8.8-1.7 1.3-3 1.3c-2.2 0-3.8-1.7-3.8-4c0-2.3 1.5-4.1 3.7-4.1zM23 122h5.5c0-1.3-.8-3-2.8-3c-1.8 0-2.7 1.6-2.7 3zm17.5-1.2c0-1.1-.5-1.7-1.6-1.7c-.8 0-1.7.6-2.1 1.3c-.05-.02 0 5.8 0 5.8h-.9v-5.4c0-1.1-.4-1.7-1.5-1.7c-.8 0-1.8.6-2.2 1.3c-.02 0 0 5.8 0 5.8h-.8v-7.7h.8s-.02 1.18 0 1.2c.3-.5 1.3-1.4 2.5-1.4c1.1 0 1.8.7 2 1.5c.4-.7 1.4-1.5 2.5-1.5c1.4 0 2.1.8 2.1 2.4v5.5h-.8s-.02-5.38 0-5.4zm8.6-4.2c0-.4.3-.6.6-.6c.3 0 .6.2.6.6c0 .3-.3.6-.6.6c-.3 0-.6-.3-.6-.6zm.2 1.9h.8v7.7h-.8v-7.7zm3.2 10.6v-10.6h.8s.04 1.24 0 1.2c.6-.7 1.6-1.4 2.7-1.4c2.1 0 3.4 1.6 3.4 4.1c0 2.4-1.3 4-3.4 4c-1.1 0-2-.6-2.7-1.4c.04-.04 0 4.1 0 4.1h-.8zm3.4-10c-1.1 0-2.1.6-2.6 1.4v3.7c.5.8 1.5 1.4 2.6 1.4c1.7 0 2.7-1.4 2.7-3.2c0-1.9-1-3.3-2.7-3.3zm5.3 5.5c.5.6 1.4 1.1 2.5 1.1c1.3 0 2.1-.6 2.1-1.5c0-1-1.1-1.3-2.2-1.6c-1.3-.3-2.7-.6-2.7-2.1c0-1.2 1-2.2 2.8-2.2c1.3 0 2.1.5 2.7 1.2l-.5.5c-.4-.6-1.2-1-2.2-1c-1.2 0-2 .6-2 1.4c0 .9 1 1.1 2.1 1.4c1.3.3 2.8.7 2.8 2.3c0 1.3-1 2.3-2.9 2.3c-1.2 0-2.2-.4-3-1.2l.5-.6zm12.5.5c-.6.7-1.6 1.3-2.7 1.3c-1.6 0-2.5-.7-2.5-2.5c.05.02 0-5.4 0-5.4h.9s-.03 5.23 0 5.2c0 1.5.7 1.9 1.8 1.9c1 0 2-.5 2.5-1.2c.02-.03 0-5.9 0-5.9h.8v7.7h-.8s.02-1.13 0-1.1zm12.4-4.3c0-1.1-.5-1.7-1.5-1.7c-.9 0-1.8.6-2.2 1.3c-.04-.02 0 5.8 0 5.8h-.9s.02-5.38 0-5.4c0-1.1-.4-1.7-1.5-1.7c-.8 0-1.8.6-2.2 1.3v5.8h-.8v-7.7h.8v1.2c.3-.5 1.4-1.4 2.5-1.4c1.2 0 1.8.7 2 1.5c.4-.7 1.4-1.5 2.5-1.5c1.4 0 2.1.8 2.1 2.4c.02-.03 0 5.5 0 5.5h-.8v-5.4zm14.4 4.2c-.5.8-1.5 1.4-2.6 1.4c-2.1 0-3.5-1.6-3.5-4c0-2.5 1.4-4.1 3.5-4.1c1.1 0 2 .6 2.6 1.5c.04-.04 0-4.2 0-4.2h.9v10.6h-.9s.04-1.23 0-1.2zm0-4.5c-.4-.8-1.4-1.4-2.5-1.4c-1.7 0-2.7 1.4-2.7 3.3c0 1.8 1 3.2 2.7 3.2c1.1 0 2.1-.6 2.5-1.3v-3.8zm2.9 1.9c0-2.3 1.4-4.1 3.6-4.1c2.3 0 3.7 1.8 3.7 4.1c0 2.2-1.4 4-3.7 4c-2.2 0-3.6-1.8-3.6-4zm6.5 0c0-1.7-1-3.3-2.9-3.3c-1.7 0-2.8 1.6-2.8 3.3c0 1.7 1.1 3.2 2.8 3.2c1.9 0 2.9-1.5 2.9-3.2zm2.8-6.8h.8v10.6h-.8v-10.6zm2.8 6.8c0-2.3 1.4-4.1 3.7-4.1c2.3 0 3.7 1.8 3.7 4.1c0 2.2-1.4 4-3.7 4c-2.3 0-3.7-1.8-3.7-4zm6.5 0c0-1.7-1-3.3-2.8-3.3c-1.8 0-2.8 1.6-2.8 3.3c0 1.7 1 3.2 2.8 3.2c1.8 0 2.8-1.5 2.8-3.2zm2.9-3.9h.8s-.02 1.34 0 1.3c.6-.8 1.5-1.4 2.6-1.4v.9c-.2 0-.3-.1-.4-.1c-.8 0-1.9.7-2.2 1.4c-.02 0 0 5.6 0 5.6h-.8v-7.7zm10.2 6.1c.5.6 1.4 1.1 2.5 1.1c1.3 0 2-.6 2-1.5c0-1-1-1.3-2.1-1.6c-1.3-.3-2.7-.6-2.7-2.1c0-1.2 1-2.2 2.7-2.2c1.3 0 2.2.5 2.8 1.2l-.5.5c-.4-.6-1.3-1-2.3-1c-1.2 0-1.9.6-1.9 1.4c0 .9 1 1.1 2.1 1.4c1.3.3 2.8.7 2.8 2.3c0 1.3-1 2.3-2.9 2.3c-1.3 0-2.2-.4-3-1.2l.5-.6zm7.1-8c0-.4.3-.6.6-.6c.4 0 .7.2.7.6c0 .3-.3.6-.7.6c-.3 0-.6-.3-.6-.6zm.2 1.9h.8v7.7h-.8v-7.7zm3.4 6.2c.02.02 0-5.4 0-5.4h-1.2v-.8h1.2v-2.1h.9v2.1h1.5v.8h-1.5s-.04 5.29 0 5.3c0 .6.2 1 .8 1c.3 0 .6-.1.8-.3l.3.6c-.3.3-.6.5-1.3.5c-1 0-1.5-.6-1.5-1.7zm14.8.4c-.6.7-1.6 1.3-2.8 1.3c-1.5 0-2.4-.7-2.4-2.5c.03.02 0-5.4 0-5.4h.9s-.05 5.23 0 5.2c0 1.5.7 1.9 1.8 1.9c1 0 2-.5 2.5-1.2v-5.9h.8v7.7h-.8s.01-1.13 0-1.1zm8.4-4.1c0-1.5-.7-1.9-1.8-1.9c-1 0-2 .6-2.5 1.3c-.03 0 0 5.8 0 5.8h-.9v-7.7h.9s-.03 1.18 0 1.2c.5-.7 1.6-1.4 2.7-1.4c1.6 0 2.4.8 2.4 2.5c.05.02 0 5.4 0 5.4h-.8s.02-5.18 0-5.2zm8.9 4c-.5.8-1.5 1.4-2.7 1.4c-2 0-3.4-1.6-3.4-4c0-2.5 1.4-4.1 3.4-4.1c1.1 0 2.1.6 2.7 1.5c.02-.04 0-4.2 0-4.2h.9v10.6h-.9s.02-1.23 0-1.2zm0-4.5c-.4-.8-1.4-1.4-2.5-1.4c-1.7 0-2.7 1.4-2.7 3.3c0 1.8 1 3.2 2.7 3.2c1.1 0 2.1-.6 2.5-1.3v-3.8zm6.5-2.2c2.4 0 3.6 1.9 3.6 4.1c.05 0 0 .2 0 .2c0 0-6.37.02-6.4 0c.1 1.7 1.2 3.1 3 3.1c1 0 1.9-.4 2.5-1.1l.5.5c-.8.8-1.8 1.3-3 1.3c-2.3 0-3.9-1.7-3.9-4c0-2.3 1.6-4.1 3.7-4.1zm-2.8 3.7h5.6c0-1.3-.9-3-2.8-3c-1.8 0-2.7 1.6-2.8 3zm17.2-3.7c2.4 0 3.6 1.9 3.6 4.1c.05 0 0 .2 0 .2c0 0-6.37.02-6.4 0c.1 1.7 1.2 3.1 3 3.1c1 0 1.9-.4 2.5-1.1l.5.5c-.8.8-1.8 1.3-3 1.3c-2.3 0-3.9-1.7-3.9-4c0-2.3 1.6-4.1 3.7-4.1zM196 122h5.6c0-1.3-.9-3-2.8-3c-1.8 0-2.7 1.6-2.8 3zm13.6-1c0-1.5-.7-1.9-1.9-1.9c-.9 0-2 .6-2.5 1.3c.04 0 0 5.8 0 5.8h-.8v-7.7h.8s.04 1.18 0 1.2c.6-.7 1.7-1.4 2.8-1.4c1.6 0 2.4.8 2.4 2.5c.02.02 0 5.4 0 5.4h-.8V121zm3-4.4c0-.4.3-.6.7-.6c.3 0 .6.2.6.6c0 .3-.3.6-.6.6c-.4 0-.7-.3-.7-.6zm.2 1.9h.9v7.7h-.9v-7.7zm12.4 2.3c0-1.1-.5-1.7-1.5-1.7c-.9 0-1.8.6-2.2 1.3c-.02-.02 0 5.8 0 5.8h-.9s.04-5.38 0-5.4c0-1.1-.4-1.7-1.5-1.7c-.8 0-1.7.6-2.2 1.3v5.8h-.8v-7.7h.8v1.2c.3-.5 1.4-1.4 2.5-1.4c1.2 0 1.8.7 2 1.5c.4-.7 1.5-1.5 2.5-1.5c1.5 0 2.1.8 2.1 2.4c.03-.03 0 5.5 0 5.5h-.8v-5.4zm13.7 4.5c-.7.7-1.6 1.1-2.6 1.1c-1.3 0-2.7-.9-2.7-2.6c0-1.6 1.3-2.5 2.7-2.5c1 0 1.9.3 2.6 1.1v-1.6c0-1.1-.9-1.7-2.1-1.7c-.9 0-1.7.3-2.4 1.1l-.4-.6c.8-.8 1.6-1.3 2.9-1.3c1.6 0 2.8.8 2.8 2.5v5.4h-.8s-.02-.91 0-.9zm0-2.3c-.6-.7-1.4-1.1-2.3-1.1c-1.3 0-2.1.9-2.1 1.9c0 1.1.8 1.9 2.1 1.9c.9 0 1.7-.3 2.3-1V123zm12.4-2.2c0-1.1-.5-1.7-1.6-1.7c-.8 0-1.8.6-2.2 1.3c.02-.02 0 5.8 0 5.8h-.8s-.02-5.38 0-5.4c0-1.1-.5-1.7-1.6-1.7c-.8 0-1.7.6-2.2 1.3c.05 0 0 5.8 0 5.8h-.8v-7.7h.8s.05 1.18 0 1.2c.4-.5 1.4-1.4 2.5-1.4c1.2 0 1.9.7 2 1.5c.5-.7 1.5-1.5 2.6-1.5c1.4 0 2.1.8 2.1 2.4c-.02-.03 0 5.5 0 5.5h-.8s-.05-5.38 0-5.4zm6.4-2.5c2.4 0 3.7 1.9 3.7 4.1c-.03 0 0 .2 0 .2c0 0-6.45.02-6.4 0c0 1.7 1.1 3.1 2.9 3.1c1 0 1.9-.4 2.6-1.1l.4.5c-.8.8-1.7 1.3-3 1.3c-2.2 0-3.9-1.7-3.9-4c0-2.3 1.6-4.1 3.7-4.1zM255 122h5.5c0-1.3-.8-3-2.8-3c-1.8 0-2.7 1.6-2.7 3zm8.5 2.7v-5.4h-1.3v-.8h1.3v-2.1h.8v2.1h1.6v.8h-1.6s.04 5.29 0 5.3c0 .6.3 1 .8 1c.4 0 .7-.1.9-.3l.3.6c-.3.3-.7.5-1.3.5c-1 0-1.5-.6-1.5-1.7zm3.7 3c.5-.3.9-.9.9-1.4h-.2c-.3 0-.6-.3-.6-.7c0-.3.3-.6.7-.6c.4 0 .8.3.8 1c0 .9-.5 1.7-1.2 2.1l-.4-.4zm12.5-9.4c1.3 0 2.1.6 2.7 1.3l-.5.5c-.6-.7-1.3-1-2.1-1c-1.8 0-2.9 1.4-2.9 3.3c0 1.8 1.1 3.2 2.9 3.2c.8 0 1.5-.3 2.1-1l.5.5c-.6.8-1.4 1.3-2.7 1.3c-2.2 0-3.7-1.8-3.7-4c0-2.3 1.5-4.1 3.7-4.1zm4 4.1c0-2.3 1.4-4.1 3.6-4.1c2.3 0 3.7 1.8 3.7 4.1c0 2.2-1.4 4-3.7 4c-2.2 0-3.6-1.8-3.6-4zm6.5 0c0-1.7-1-3.3-2.9-3.3c-1.7 0-2.7 1.6-2.7 3.3c0 1.7 1 3.2 2.7 3.2c1.9 0 2.9-1.5 2.9-3.2zm8-1.4c0-1.5-.7-1.9-1.9-1.9c-.9 0-2 .6-2.5 1.3c.04 0 0 5.8 0 5.8h-.8v-7.7h.8s.04 1.18 0 1.2c.6-.7 1.7-1.4 2.8-1.4c1.6 0 2.4.8 2.4 2.5c.02.02 0 5.4 0 5.4h-.8V121zm3.1 3.6c.5.6 1.3 1.1 2.4 1.1c1.3 0 2.1-.6 2.1-1.5c0-1-1.1-1.3-2.2-1.6c-1.2-.3-2.7-.6-2.7-2.1c0-1.2 1-2.2 2.8-2.2c1.3 0 2.2.5 2.7 1.2l-.4.5c-.5-.6-1.3-1-2.3-1c-1.2 0-1.9.6-1.9 1.4c0 .9.9 1.1 2 1.4c1.3.3 2.8.7 2.8 2.3c0 1.3-1 2.3-2.9 2.3c-1.2 0-2.2-.4-2.9-1.2l.5-.6zm10.5-6.3c2.4 0 3.6 1.9 3.6 4.1c.04 0 0 .2 0 .2c0 0-6.37.02-6.4 0c.1 1.7 1.2 3.1 3 3.1c1 0 1.9-.4 2.5-1.1l.5.5c-.8.8-1.8 1.3-3 1.3c-2.3 0-3.9-1.7-3.9-4c0-2.3 1.6-4.1 3.7-4.1zM309 122h5.6c0-1.3-.9-3-2.8-3c-1.8 0-2.7 1.6-2.8 3zm11.7-3.7c1.3 0 2.1.6 2.7 1.3l-.6.5c-.5-.7-1.2-1-2.1-1c-1.7 0-2.8 1.4-2.8 3.3c0 1.8 1.1 3.2 2.8 3.2c.9 0 1.6-.3 2.1-1l.6.5c-.6.8-1.4 1.3-2.7 1.3c-2.3 0-3.7-1.8-3.7-4c0-2.3 1.4-4.1 3.7-4.1zm4.6 6.4c-.04.02 0-5.4 0-5.4H324v-.8h1.3v-2.1h.8v2.1h1.6v.8h-1.6v5.3c0 .6.3 1 .8 1c.4 0 .7-.1.9-.3l.3.6c-.3.3-.7.5-1.3.5c-1 0-1.5-.6-1.5-1.7zm7.3-6.4c2.3 0 3.6 1.9 3.6 4.1v.2s-6.43.02-6.4 0c0 1.7 1.2 3.1 3 3.1c.9 0 1.8-.4 2.5-1.1l.4.5c-.8.8-1.7 1.3-3 1.3c-2.2 0-3.8-1.7-3.8-4c0-2.3 1.5-4.1 3.7-4.1zm-2.8 3.7h5.5c0-1.3-.8-3-2.7-3c-1.9 0-2.8 1.6-2.8 3zm8.5 2.7c.02.02 0-5.4 0-5.4H337v-.8h1.3v-2.1h.9v2.1h1.5v.8h-1.5s-.04 5.29 0 5.3c0 .6.2 1 .8 1c.3 0 .6-.1.8-.3l.3.6c-.3.3-.6.5-1.3.5c-1 0-1.5-.6-1.5-1.7zm9.2.4c-.6.7-1.6 1.3-2.7 1.3c-1.6 0-2.4-.7-2.4-2.5c-.03.02 0-5.4 0-5.4h.8v5.2c0 1.5.7 1.9 1.8 1.9c1 0 2-.5 2.5-1.2c.04-.03 0-5.9 0-5.9h.9v7.7h-.9s.04-1.13 0-1.1zm3.3-6.6h.8v1.3c.7-.8 1.5-1.4 2.6-1.4v.9c-.1 0-.3-.1-.4-.1c-.8 0-1.8.7-2.2 1.4v5.6h-.8v-7.7zm15.3 6.8c-.7.7-1.5 1.1-2.6 1.1c-1.3 0-2.7-.9-2.7-2.6c0-1.6 1.4-2.5 2.7-2.5c1.1 0 1.9.3 2.6 1.1v-1.6c0-1.1-.9-1.7-2.1-1.7c-.9 0-1.7.3-2.4 1.1l-.4-.6c.8-.8 1.6-1.3 2.9-1.3c1.6 0 2.8.8 2.8 2.5c.02-.01 0 5.4 0 5.4h-.8s-.01-.91 0-.9zm0-2.3c-.5-.7-1.4-1.1-2.3-1.1c-1.3 0-2.1.9-2.1 1.9c0 1.1.8 1.9 2.1 1.9c.9 0 1.8-.3 2.3-1V123zm8.9 2c-.6.8-1.5 1.4-2.7 1.4c-2 0-3.4-1.6-3.4-4c0-2.5 1.4-4.1 3.4-4.1c1.1 0 2.1.6 2.7 1.5v-4.2h.8v10.6h-.8V125zm0-4.5c-.5-.8-1.5-1.4-2.5-1.4c-1.7 0-2.7 1.4-2.7 3.3c0 1.8 1 3.2 2.7 3.2c1 0 2-.6 2.5-1.3v-3.8zm3-3.9c0-.4.3-.6.7-.6c.3 0 .6.2.6.6c0 .3-.3.6-.6.6c-.4 0-.7-.3-.7-.6zm.2 1.9h.9v7.7h-.9v-7.7zm3.3 10.6v-10.6h.8v1.2c.5-.7 1.5-1.4 2.7-1.4c2 0 3.4 1.6 3.4 4.1c0 2.4-1.4 4-3.4 4c-1.1 0-2.1-.6-2.7-1.4v4.1h-.8zm3.3-10c-1 0-2.1.6-2.5 1.4v3.7c.4.8 1.5 1.4 2.5 1.4c1.7 0 2.7-1.4 2.7-3.2c0-1.9-1-3.3-2.7-3.3zm5.4-2.5c0-.4.3-.6.6-.6c.3 0 .6.2.6.6c0 .3-.3.6-.6.6c-.3 0-.6-.3-.6-.6zm.2 1.9h.8v7.7h-.8v-7.7zm3 6.1c.5.6 1.4 1.1 2.5 1.1c1.3 0 2.1-.6 2.1-1.5c0-1-1.1-1.3-2.2-1.6c-1.3-.3-2.7-.6-2.7-2.1c0-1.2 1-2.2 2.8-2.2c1.3 0 2.1.5 2.7 1.2l-.5.5c-.4-.6-1.2-1-2.2-1c-1.2 0-2 .6-2 1.4c0 .9 1 1.1 2.1 1.4c1.3.3 2.8.7 2.8 2.3c0 1.3-1 2.3-2.9 2.3c-1.2 0-2.2-.4-3-1.2l.5-.6zm10.6-6.3c1.4 0 2.1.6 2.7 1.3l-.5.5c-.6-.7-1.3-1-2.1-1c-1.8 0-2.9 1.4-2.9 3.3c0 1.8 1.1 3.2 2.9 3.2c.8 0 1.5-.3 2.1-1l.5.5c-.6.8-1.3 1.3-2.7 1.3c-2.2 0-3.7-1.8-3.7-4c0-2.3 1.5-4.1 3.7-4.1zm4.2-1.7c0-.4.3-.6.6-.6c.4 0 .7.2.7.6c0 .3-.3.6-.7.6c-.3 0-.6-.3-.6-.6zm.2 1.9h.9v7.7h-.9v-7.7zm8.5 2.5c0-1.5-.8-1.9-1.9-1.9c-1 0-2 .6-2.5 1.3v5.8h-.8v-7.7h.8v1.2c.6-.7 1.6-1.4 2.8-1.4c1.5 0 2.4.8 2.4 2.5c-.03.02 0 5.4 0 5.4h-.8s-.05-5.18 0-5.2zm3.7 6.5c.6.8 1.4 1.1 2.5 1.1c1.4 0 2.6-.7 2.6-2.5v-1.2c-.5.8-1.5 1.5-2.6 1.5c-2.1 0-3.5-1.6-3.5-4c0-2.5 1.4-4.1 3.5-4.1c1.1 0 2 .6 2.6 1.5c.04-.04 0-1.3 0-1.3h.9s-.02 7.61 0 7.6c0 2.4-1.6 3.2-3.5 3.2c-1.3 0-2.1-.2-3-1.2l.5-.6zm5.1-7c-.4-.8-1.4-1.4-2.5-1.4c-1.7 0-2.7 1.4-2.7 3.3c0 1.8 1 3.2 2.7 3.2c1.1 0 2.1-.6 2.5-1.4v-3.7zm12.1-2.2c2.3 0 3.6 1.9 3.6 4.1c.02 0 0 .2 0 .2c0 0-6.4.02-6.4 0c.1 1.7 1.2 3.1 3 3.1c1 0 1.8-.4 2.5-1.1l.4.5c-.7.8-1.7 1.3-3 1.3c-2.2 0-3.8-1.7-3.8-4c0-2.3 1.6-4.1 3.7-4.1zM435 122h5.6c0-1.3-.9-3-2.8-3c-1.8 0-2.7 1.6-2.8 3zm8.4-6.4h.8v10.6h-.8v-10.6zm3 1c0-.4.3-.6.6-.6c.4 0 .7.2.7.6c0 .3-.3.6-.7.6c-.3 0-.6-.3-.6-.6zm.2 1.9h.9v7.7h-.9v-7.7zm3.4 6.2c.02.02 0-5.4 0-5.4h-1.2v-.8h1.2v-2.1h.9v2.1h1.5v.8h-1.5s-.04 5.29 0 5.3c0 .6.2 1 .8 1c.3 0 .6-.1.8-.3l.3.6c-.3.3-.6.5-1.3.5c-1 0-1.5-.6-1.5-1.7zm3.7 3c.5-.3.9-.9.9-1.4h-.1c-.4 0-.7-.3-.7-.7c0-.3.3-.6.7-.6c.4 0 .8.3.8 1c0 .9-.5 1.7-1.1 2.1l-.5-.4zm9.1-3.1c.5.6 1.4 1.1 2.5 1.1c1.2 0 2-.6 2-1.5c0-1-1-1.3-2.2-1.6c-1.2-.3-2.6-.6-2.6-2.1c0-1.2.9-2.2 2.7-2.2c1.3 0 2.2.5 2.7 1.2l-.4.5c-.5-.6-1.3-1-2.3-1c-1.2 0-1.9.6-1.9 1.4c0 .9 1 1.1 2 1.4c1.3.3 2.8.7 2.8 2.3c0 1.3-1 2.3-2.9 2.3c-1.2 0-2.2-.4-2.9-1.2l.5-.6zm10.5-6.3c2.4 0 3.7 1.9 3.7 4.1c-.04 0 0 .2 0 .2c0 0-6.46.02-6.5 0c.1 1.7 1.2 3.1 3 3.1c1 0 1.9-.4 2.6-1.1l.4.5c-.8.8-1.8 1.3-3 1.3c-2.3 0-3.9-1.7-3.9-4c0-2.3 1.6-4.1 3.7-4.1zm-2.8 3.7h5.6c0-1.3-.9-3-2.8-3c-1.8 0-2.7 1.6-2.8 3zm14.1 3c-.6.8-1.5 1.4-2.7 1.4c-2 0-3.4-1.6-3.4-4c0-2.5 1.4-4.1 3.4-4.1c1.1 0 2.1.6 2.7 1.5c-.02-.04 0-4.2 0-4.2h.8v10.6h-.8s-.02-1.23 0-1.2zm0-4.5c-.5-.8-1.5-1.4-2.5-1.4c-1.7 0-2.7 1.4-2.7 3.3c0 1.8 1 3.2 2.7 3.2c1 0 2-.6 2.5-1.3v-3.8zm8.3 1.9c0-2.3 1.5-4.1 3.7-4.1c2.3 0 3.7 1.8 3.7 4.1c0 2.2-1.4 4-3.7 4c-2.2 0-3.7-1.8-3.7-4zm6.5 0c0-1.7-1-3.3-2.8-3.3c-1.7 0-2.8 1.6-2.8 3.3c0 1.7 1.1 3.2 2.8 3.2c1.8 0 2.8-1.5 2.8-3.2zm12-1.6c0-1.1-.4-1.7-1.5-1.7c-.8 0-1.8.6-2.2 1.3v5.8h-.8s-.04-5.38 0-5.4c0-1.1-.5-1.7-1.6-1.7c-.8 0-1.7.6-2.2 1.3c.03 0 0 5.8 0 5.8h-.8v-7.7h.8s.03 1.18 0 1.2c.3-.5 1.4-1.4 2.5-1.4c1.2 0 1.8.7 2 1.5c.5-.7 1.5-1.5 2.6-1.5c1.4 0 2.1.8 2.1 2.4c-.04-.03 0 5.5 0 5.5h-.9s.04-5.38 0-5.4zm8.5.2c0-1.5-.8-1.9-1.9-1.9c-1 0-2 .6-2.5 1.3v5.8h-.8v-7.7h.8v1.2c.6-.7 1.7-1.4 2.8-1.4c1.5 0 2.4.8 2.4 2.5c-.02.02 0 5.4 0 5.4h-.8s-.05-5.18 0-5.2zm3-4.4c0-.4.3-.6.6-.6c.4 0 .6.2.6.6c0 .3-.2.6-.6.6c-.3 0-.6-.3-.6-.6zm.2 1.9h.8v7.7h-.8v-7.7zm3.1 6.1c.4.6 1.3 1.1 2.4 1.1c1.3 0 2.1-.6 2.1-1.5c0-1-1.1-1.3-2.2-1.6c-1.2-.3-2.7-.6-2.7-2.1c0-1.2 1-2.2 2.8-2.2c1.3 0 2.2.5 2.7 1.2l-.4.5c-.5-.6-1.3-1-2.3-1c-1.2 0-2 .6-2 1.4c0 .9 1 1.1 2.1 1.4c1.3.3 2.8.7 2.8 2.3c0 1.3-1 2.3-2.9 2.3c-1.2 0-2.2-.4-2.9-1.2l.5-.6zm18.5 4.5s-.03-4.14 0-4.1c-.6.8-1.6 1.4-2.7 1.4c-2 0-3.4-1.6-3.4-4c0-2.5 1.4-4.1 3.4-4.1c1.1 0 2.1.7 2.7 1.4c-.03.04 0-1.2 0-1.2h.8v10.6h-.8zm0-8.6c-.5-.8-1.5-1.4-2.6-1.4c-1.7 0-2.6 1.4-2.6 3.3c0 1.8.9 3.2 2.6 3.2c1.1 0 2.1-.6 2.6-1.4v-3.7zm8.4 4.6c-.6.7-1.7 1.3-2.8 1.3c-1.5 0-2.4-.7-2.4-2.5v-5.4h.8s.04 5.23 0 5.2c0 1.5.8 1.9 1.9 1.9c1 0 2-.5 2.5-1.2v-5.9h.8v7.7h-.8s-.01-1.13 0-1.1zm3-8.5c0-.4.3-.6.6-.6c.4 0 .7.2.7.6c0 .3-.3.6-.7.6c-.3 0-.6-.3-.6-.6zm.2 1.9h.9v7.7h-.9v-7.7zm14.5 6.5c-.6.8-1.5 1.4-2.7 1.4c-2 0-3.4-1.6-3.4-4c0-2.5 1.4-4.1 3.4-4.1c1.1 0 2.1.6 2.7 1.5c-.02-.04 0-4.2 0-4.2h.8v10.6h-.8s-.02-1.23 0-1.2zm0-4.5c-.5-.8-1.5-1.4-2.5-1.4c-1.7 0-2.7 1.4-2.7 3.3c0 1.8 1 3.2 2.7 3.2c1 0 2-.6 2.5-1.3v-3.8zm2.8 1.9c0-2.3 1.4-4.1 3.7-4.1c2.2 0 3.7 1.8 3.7 4.1c0 2.2-1.5 4-3.7 4c-2.3 0-3.7-1.8-3.7-4zm6.5 0c0-1.7-1-3.3-2.8-3.3c-1.8 0-2.8 1.6-2.8 3.3c0 1.7 1 3.2 2.8 3.2c1.8 0 2.8-1.5 2.8-3.2zm11.7-4.1c2.3 0 3.6 1.9 3.6 4.1c-.02 0 0 .2 0 .2c0 0-6.44.02-6.4 0c0 1.7 1.2 3.1 2.9 3.1c1 0 1.9-.4 2.6-1.1l.4.5c-.8.8-1.7 1.3-3 1.3c-2.2 0-3.8-1.7-3.8-4c0-2.3 1.5-4.1 3.7-4.1zM589 122h5.5c0-1.3-.8-3-2.8-3c-1.8 0-2.7 1.6-2.7 3zm8.1-5.4c0-.4.3-.6.7-.6c.3 0 .6.2.6.6c0 .3-.3.6-.6.6c-.4 0-.7-.3-.7-.6zm.2 1.9h.9v7.7h-.9v-7.7zm8.5 6.6c-.7.7-1.7 1.3-2.8 1.3c-1.6 0-2.4-.7-2.4-2.5v-5.4h.8v5.2c0 1.5.8 1.9 1.9 1.9c1 0 2-.5 2.5-1.2c-.03-.03 0-5.9 0-5.9h.8v7.7h-.8s-.03-1.13 0-1.1zm3-.5c.5.6 1.4 1.1 2.5 1.1c1.3 0 2.1-.6 2.1-1.5c0-1-1.1-1.3-2.2-1.6c-1.3-.3-2.7-.6-2.7-2.1c0-1.2 1-2.2 2.7-2.2c1.4 0 2.2.5 2.8 1.2l-.5.5c-.4-.6-1.2-1-2.3-1c-1.1 0-1.9.6-1.9 1.4c0 .9 1 1.1 2.1 1.4c1.3.3 2.8.7 2.8 2.3c0 1.3-1 2.3-2.9 2.3c-1.2 0-2.2-.4-3-1.2l.5-.6zm16.5-3.8c0-1.1-.5-1.7-1.6-1.7c-.8 0-1.7.6-2.2 1.3c.04-.02 0 5.8 0 5.8h-.8v-5.4c0-1.1-.4-1.7-1.5-1.7c-.9 0-1.8.6-2.2 1.3c-.04 0 0 5.8 0 5.8h-.9v-7.7h.9s-.04 1.18 0 1.2c.3-.5 1.3-1.4 2.4-1.4c1.2 0 1.9.7 2.1 1.5c.4-.7 1.4-1.5 2.5-1.5c1.4 0 2.1.8 2.1 2.4v5.5h-.8s-.03-5.38 0-5.4zm2.8 1.6c0-2.3 1.4-4.1 3.6-4.1c2.3 0 3.7 1.8 3.7 4.1c0 2.2-1.4 4-3.7 4c-2.2 0-3.6-1.8-3.6-4zm6.5 0c0-1.7-1-3.3-2.9-3.3c-1.7 0-2.7 1.6-2.7 3.3c0 1.7 1 3.2 2.7 3.2c1.9 0 2.9-1.5 2.9-3.2zm8.5 2.6c-.6.8-1.6 1.4-2.7 1.4c-2 0-3.4-1.6-3.4-4c0-2.5 1.4-4.1 3.4-4.1c1.1 0 2.1.6 2.7 1.5c-.03-.04 0-4.2 0-4.2h.8v10.6h-.8s-.03-1.23 0-1.2zm0-4.5c-.5-.8-1.5-1.4-2.6-1.4c-1.7 0-2.6 1.4-2.6 3.3c0 1.8.9 3.2 2.6 3.2c1.1 0 2.1-.6 2.6-1.3v-3.8zm8.9 4.2c.04.02 0-5.4 0-5.4h-1.2v-.8h1.2v-2.1h.9v2.1h1.5v.8h-1.5s-.02 5.29 0 5.3c0 .6.2 1 .8 1c.3 0 .7-.1.8-.3l.4.6c-.3.3-.7.5-1.3.5c-1.1 0-1.6-.6-1.6-1.7zm7.3-6.4c2.4 0 3.7 1.9 3.7 4.1c-.03 0 0 .2 0 .2c0 0-6.45.02-6.4 0c0 1.7 1.1 3.1 2.9 3.1c1 0 1.9-.4 2.6-1.1l.4.5c-.8.8-1.7 1.3-3 1.3c-2.2 0-3.9-1.7-3.9-4c0-2.3 1.6-4.1 3.7-4.1zm-2.7 3.7h5.5c0-1.3-.8-3-2.8-3c-1.8 0-2.7 1.6-2.7 3zm17.5-1.2c0-1.1-.5-1.7-1.6-1.7c-.8 0-1.7.6-2.2 1.3c.04-.02 0 5.8 0 5.8h-.8v-5.4c0-1.1-.4-1.7-1.5-1.7c-.9 0-1.8.6-2.2 1.3c-.04 0 0 5.8 0 5.8h-.9v-7.7h.9s-.04 1.18 0 1.2c.3-.5 1.3-1.4 2.4-1.4c1.2 0 1.9.7 2.1 1.5c.4-.7 1.4-1.5 2.5-1.5c1.4 0 2.1.8 2.1 2.4v5.5h-.8s-.03-5.38 0-5.4zm3.2 8.3v-10.6h.8s.04 1.24 0 1.2c.6-.7 1.6-1.4 2.7-1.4c2.1 0 3.4 1.6 3.4 4.1c0 2.4-1.3 4-3.4 4c-1.1 0-2-.6-2.7-1.4c.04-.04 0 4.1 0 4.1h-.8zm3.4-10c-1.1 0-2.1.6-2.6 1.4v3.7c.5.8 1.5 1.4 2.6 1.4c1.7 0 2.6-1.4 2.6-3.2c0-1.9-.9-3.3-2.6-3.3zm5.1 3.3c0-2.3 1.4-4.1 3.6-4.1c2.3 0 3.7 1.8 3.7 4.1c0 2.2-1.4 4-3.7 4c-2.2 0-3.6-1.8-3.6-4zm6.5 0c0-1.7-1-3.3-2.9-3.3c-1.7 0-2.8 1.6-2.8 3.3c0 1.7 1.1 3.2 2.8 3.2c1.9 0 2.9-1.5 2.9-3.2zm2.8-3.9h.8s.04 1.34 0 1.3c.7-.8 1.6-1.4 2.6-1.4v.9c-.1 0-.2-.1-.4-.1c-.8 0-1.8.7-2.2 1.4c.04 0 0 5.6 0 5.6h-.8v-7.7zm10.2-1.9c0-.4.3-.6.7-.6c.3 0 .6.2.6.6c0 .3-.3.6-.6.6c-.4 0-.7-.3-.7-.6zm.2 1.9h.9v7.7h-.9v-7.7zm8.5 2.5c0-1.5-.8-1.9-1.9-1.9c-1 0-2 .6-2.5 1.3v5.8h-.8v-7.7h.8v1.2c.6-.7 1.7-1.4 2.8-1.4c1.5 0 2.4.8 2.4 2.5v5.4h-.8s-.04-5.18 0-5.2zm6.5-2.7c1.3 0 2.1.6 2.7 1.3l-.6.5c-.5-.7-1.2-1-2.1-1c-1.8 0-2.9 1.4-2.9 3.3c0 1.8 1.1 3.2 2.9 3.2c.9 0 1.6-.3 2.1-1l.6.5c-.6.8-1.4 1.3-2.7 1.3c-2.3 0-3.7-1.8-3.7-4c0-2.3 1.4-4.1 3.7-4.1zm4.2-1.7c0-.4.3-.6.6-.6c.4 0 .6.2.6.6c0 .3-.2.6-.6.6c-.3 0-.6-.3-.6-.6zm.2 1.9h.8v7.7h-.8v-7.7zm8.9 6.5c-.6.8-1.5 1.4-2.7 1.4c-2 0-3.4-1.6-3.4-4c0-2.5 1.4-4.1 3.4-4.1c1.1 0 2.1.6 2.7 1.5v-4.2h.8v10.6h-.8V125zm0-4.5c-.5-.8-1.5-1.4-2.5-1.4c-1.7 0-2.7 1.4-2.7 3.3c0 1.8 1 3.2 2.7 3.2c1 0 2-.6 2.5-1.3v-3.8zm3-3.9c0-.4.3-.6.7-.6c.3 0 .6.2.6.6c0 .3-.3.6-.6.6c-.4 0-.7-.3-.7-.6zm.2 1.9h.9v7.7h-.9v-7.7zm8.9 6.5c-.5.8-1.5 1.4-2.6 1.4c-2.1 0-3.5-1.6-3.5-4c0-2.5 1.4-4.1 3.5-4.1c1 0 2 .6 2.6 1.5c.04-.04 0-4.2 0-4.2h.9v10.6h-.9s.04-1.23 0-1.2zm0-4.5c-.4-.8-1.4-1.4-2.5-1.4c-1.7 0-2.7 1.4-2.7 3.3c0 1.8 1 3.2 2.7 3.2c1.1 0 2.1-.6 2.5-1.3v-3.8zm8.5 4.6c-.7.7-1.7 1.3-2.8 1.3c-1.6 0-2.4-.7-2.4-2.5v-5.4h.8s.02 5.23 0 5.2c0 1.5.8 1.9 1.9 1.9c1 0 2-.5 2.5-1.2c-.03-.03 0-5.9 0-5.9h.8v7.7h-.8s-.03-1.13 0-1.1zm8.4-4.1c0-1.5-.8-1.9-1.9-1.9c-1 0-2 .6-2.5 1.3c.03 0 0 5.8 0 5.8h-.8v-7.7h.8s.03 1.18 0 1.2c.6-.7 1.7-1.4 2.8-1.4c1.6 0 2.4.8 2.4 2.5v5.4h-.8V121zm3.4 3.7v-5.4h-1.3v-.8h1.3v-2.1h.8v2.1h1.6v.8H767s.02 5.29 0 5.3c0 .6.3 1 .8 1c.4 0 .7-.1.9-.3l.3.6c-.3.3-.7.5-1.3.5c-1 0-1.5-.6-1.5-1.7zm14.8.4c-.7.7-1.7 1.3-2.8 1.3c-1.6 0-2.4-.7-2.4-2.5v-5.4h.8v5.2c0 1.5.8 1.9 1.9 1.9c1 0 2-.5 2.5-1.2c-.03-.03 0-5.9 0-5.9h.8v7.7h-.8s-.03-1.13 0-1.1zm3.4-.4c-.03.02 0-5.4 0-5.4h-1.3v-.8h1.3v-2.1h.8v2.1h1.6v.8h-1.6v5.3c0 .6.3 1 .8 1c.4 0 .7-.1.9-.3l.3.6c-.3.3-.7.5-1.3.5c-1 0-1.5-.6-1.5-1.7zm9.6-9.1h.8v10.6h-.8v-10.6zm8.1 9.7c-.7.7-1.6 1.1-2.6 1.1c-1.3 0-2.7-.9-2.7-2.6c0-1.6 1.3-2.5 2.7-2.5c1 0 1.9.3 2.6 1.1v-1.6c0-1.1-.9-1.7-2.1-1.7c-.9 0-1.7.3-2.4 1.1l-.4-.6c.8-.8 1.6-1.3 2.9-1.3c1.6 0 2.8.8 2.8 2.5v5.4h-.8s-.01-.91 0-.9zm0-2.3c-.6-.7-1.4-1.1-2.3-1.1c-1.3 0-2.1.9-2.1 1.9c0 1.1.8 1.9 2.1 1.9c.9 0 1.7-.3 2.3-1V123zm3.2-7.4h.9s-.05 4.16 0 4.2c.6-.9 1.5-1.5 2.6-1.5c2.1 0 3.5 1.6 3.5 4.1c0 2.4-1.4 4-3.5 4c-1.1 0-2.1-.6-2.6-1.4c-.05-.03 0 1.2 0 1.2h-.9v-10.6zm3.4 10c1.7 0 2.7-1.4 2.7-3.2c0-1.9-1-3.3-2.7-3.3c-1.1 0-2.1.6-2.5 1.4v3.8c.4.7 1.4 1.3 2.5 1.3zm5.1-3.2c0-2.3 1.4-4.1 3.7-4.1c2.2 0 3.7 1.8 3.7 4.1c0 2.2-1.5 4-3.7 4c-2.3 0-3.7-1.8-3.7-4zm6.5 0c0-1.7-1-3.3-2.8-3.3c-1.8 0-2.8 1.6-2.8 3.3c0 1.7 1 3.2 2.8 3.2c1.8 0 2.8-1.5 2.8-3.2zm2.8-3.9h.9s-.03 1.34 0 1.3c.6-.8 1.5-1.4 2.6-1.4v.9c-.2 0-.3-.1-.5-.1c-.7 0-1.8.7-2.1 1.4c-.03 0 0 5.6 0 5.6h-.9v-7.7zm8.2-.2c2.3 0 3.6 1.9 3.6 4.1v.2s-6.42.02-6.4 0c.1 1.7 1.2 3.1 3 3.1c1 0 1.8-.4 2.5-1.1l.4.5c-.7.8-1.7 1.3-3 1.3c-2.2 0-3.8-1.7-3.8-4c0-2.3 1.6-4.1 3.7-4.1zm-2.8 3.7h5.6c-.1-1.3-.9-3-2.8-3c-1.8 0-2.8 1.6-2.8 3zm17.2-3.7c2.3 0 3.6 1.9 3.6 4.1v.2s-6.42.02-6.4 0c.1 1.7 1.2 3.1 3 3.1c1 0 1.8-.4 2.5-1.1l.4.5c-.7.8-1.7 1.3-3 1.3c-2.2 0-3.8-1.7-3.8-4c0-2.3 1.6-4.1 3.7-4.1zm-2.8 3.7h5.6c-.1-1.3-.9-3-2.8-3c-1.8 0-2.8 1.6-2.8 3zm8.5 2.7c.03.02 0-5.4 0-5.4h-1.2v-.8h1.2v-2.1h.9v2.1h1.5v.8h-1.5s-.03 5.29 0 5.3c0 .6.2 1 .8 1c.3 0 .6-.1.8-.3l.3.6c-.3.3-.6.5-1.3.5c-1 0-1.5-.6-1.5-1.7zm15.3.3c-.5.8-1.5 1.4-2.7 1.4c-2 0-3.4-1.6-3.4-4c0-2.5 1.4-4.1 3.4-4.1c1.1 0 2.1.6 2.7 1.5v-4.2h.8v10.6h-.8V125zm0-4.5c-.5-.8-1.5-1.4-2.5-1.4c-1.7 0-2.7 1.4-2.7 3.3c0 1.8 1 3.2 2.7 3.2c1 0 2-.6 2.5-1.3v-3.8zm2.8 1.9c0-2.3 1.4-4.1 3.7-4.1c2.3 0 3.7 1.8 3.7 4.1c0 2.2-1.4 4-3.7 4c-2.3 0-3.7-1.8-3.7-4zm6.5 0c0-1.7-1-3.3-2.8-3.3c-1.8 0-2.8 1.6-2.8 3.3c0 1.7 1 3.2 2.8 3.2c1.8 0 2.8-1.5 2.8-3.2zm2.9-6.8h.8v10.6h-.8v-10.6zm2.8 6.8c0-2.3 1.4-4.1 3.6-4.1c2.3 0 3.7 1.8 3.7 4.1c0 2.2-1.4 4-3.7 4c-2.2 0-3.6-1.8-3.6-4zm6.4 0c0-1.7-1-3.3-2.8-3.3c-1.7 0-2.8 1.6-2.8 3.3c0 1.7 1.1 3.2 2.8 3.2c1.8 0 2.8-1.5 2.8-3.2zm2.9-3.9h.8s.03 1.34 0 1.3c.7-.8 1.6-1.4 2.6-1.4v.9c-.1 0-.2-.1-.4-.1c-.8 0-1.8.7-2.2 1.4c.03 0 0 5.6 0 5.6h-.8v-7.7zm8.1-.2c2.4 0 3.7 1.9 3.7 4.1c-.04 0 0 .2 0 .2c0 0-6.46.02-6.5 0c.1 1.7 1.2 3.1 3 3.1c1 0 1.9-.4 2.6-1.1l.4.5c-.8.8-1.7 1.3-3 1.3c-2.3 0-3.9-1.7-3.9-4c0-2.3 1.6-4.1 3.7-4.1zm-2.8 3.7h5.6c0-1.3-.9-3-2.8-3c-1.8 0-2.7 1.6-2.8 3z" stroke="none" fill="#000"/></g><g id="Polygon296485"><path d="m1.2 87.4h1.6v9.2h4.8v1.4H1.2V87.4zm7.2 6.7c0-2.2 1.5-4 3.8-4c2.4 0 3.9 1.8 3.9 4c0 2.2-1.5 4-3.9 4c-2.3 0-3.8-1.8-3.8-4zm6.2 0c0-1.4-.8-2.7-2.4-2.7c-1.5 0-2.3 1.3-2.3 2.7c0 1.5.8 2.8 2.3 2.8c1.6 0 2.4-1.3 2.4-2.8zm3.2-3.8h1.4v1.2c.6-.8 1.5-1.4 2.5-1.4v1.5c-.1-.1-.3-.1-.5-.1c-.7 0-1.7.5-2 1.1v5.4h-1.4v-7.7zm8.5-.2c2.4 0 3.8 1.8 3.8 4.1c-.02.04 0 .4 0 .4c0 0-6.09-.01-6.1 0c.1 1.3 1.1 2.4 2.6 2.4c.8 0 1.7-.3 2.3-.9l.7.9c-.8.8-1.9 1.1-3.1 1.1c-2.3 0-4-1.6-4-4c0-2.2 1.6-4 3.8-4zM24 93.6h4.7c0-1.1-.7-2.3-2.4-2.3c-1.5 0-2.2 1.2-2.3 2.3zm17-.8c0-.8-.4-1.4-1.3-1.4c-.8 0-1.5.5-1.9 1.1v5.5h-1.4s-.03-5.16 0-5.2c0-.8-.4-1.4-1.4-1.4c-.7 0-1.5.5-1.9 1.1c.05-.02 0 5.5 0 5.5h-1.4v-7.7h1.4s.05 1.07 0 1.1c.4-.5 1.4-1.3 2.5-1.3c1.2 0 1.9.6 2.1 1.4c.4-.7 1.5-1.4 2.6-1.4c1.4 0 2.2.8 2.2 2.3c-.03.01 0 5.6 0 5.6H41s.04-5.16 0-5.2zm7.3-4.7c0-.5.4-.9.9-.9c.5 0 .9.4.9.9c0 .5-.4.9-.9.9c-.5 0-.9-.4-.9-.9zm.2 2.2h1.4v7.7h-1.4v-7.7zm3.6 10.6V90.3h1.4s-.01 1.08 0 1.1c.5-.8 1.5-1.3 2.5-1.3c2 0 3.4 1.5 3.4 4c0 2.5-1.4 4-3.4 4c-1 0-1.9-.4-2.5-1.3v4.1h-1.4zm3.5-9.5c-.9 0-1.7.5-2.1 1.1v3.3c.4.6 1.2 1.1 2.1 1.1c1.4 0 2.3-1.2 2.3-2.8c0-1.6-.9-2.7-2.3-2.7zm5.5 4.5c.5.6 1.5 1.1 2.6 1.1c1 0 1.6-.4 1.6-1.1c0-.8-.9-1-1.9-1.2c-1.3-.3-2.8-.7-2.8-2.3c0-1.3 1.1-2.3 2.9-2.3c1.4 0 2.3.5 3 1.1l-.7 1c-.4-.5-1.3-.9-2.2-.9c-1 0-1.6.3-1.6 1c0 .6.8.8 1.8 1.1c1.3.3 2.9.6 2.9 2.4c0 1.3-1.1 2.3-3.1 2.3c-1.3 0-2.4-.3-3.2-1.1l.7-1.1zm12.4 1c-.6.6-1.5 1.2-2.7 1.2c-1.6 0-2.5-.8-2.5-2.4c.04 0 0-5.4 0-5.4h1.5s-.03 4.93 0 4.9c0 1.3.6 1.7 1.6 1.7c.9 0 1.7-.5 2.1-1.1c.02 0 0-5.5 0-5.5h1.4v7.7h-1.4s.02-1.09 0-1.1zm12.9-4.1c0-.8-.4-1.4-1.4-1.4c-.7 0-1.5.5-1.9 1.1c.04-.04 0 5.5 0 5.5h-1.4v-5.2c0-.8-.4-1.4-1.3-1.4c-.8 0-1.5.5-1.9 1.1v5.5h-1.4v-7.7h1.4s-.01 1.07 0 1.1c.3-.5 1.3-1.3 2.5-1.3c1.1 0 1.8.6 2 1.4c.5-.7 1.5-1.4 2.6-1.4c1.5 0 2.2.8 2.2 2.3v5.6h-1.4s-.02-5.16 0-5.2z" stroke="none" fill="#000"/></g><g id="Polygon296484"><path d="m10.4 54.5c0-1.1-.4-1.8-1.5-1.8c-.8 0-1.8.6-2.2 1.3v5.8h-.9s.05-5.33 0-5.3c0-1.1-.4-1.8-1.5-1.8c-.8 0-1.7.6-2.2 1.3v5.8h-.8v-7.6h.8s.01 1.13 0 1.1c.3-.5 1.4-1.3 2.5-1.3c1.2 0 1.8.7 2 1.4C7 52.7 8.1 52 9.1 52c1.5 0 2.1.8 2.1 2.3c.04.01 0 5.5 0 5.5h-.8s.02-5.33 0-5.3zm8.1 4.4c-.6.8-1.5 1.1-2.6 1.1c-1.3 0-2.7-.9-2.7-2.5c0-1.7 1.4-2.5 2.7-2.5c1.1 0 2 .3 2.6 1v-1.5c0-1.2-.9-1.8-2-1.8c-1 0-1.7.3-2.4 1.1l-.5-.5c.8-.9 1.7-1.3 2.9-1.3c1.6 0 2.9.7 2.9 2.4c-.04.04 0 5.4 0 5.4h-.9s.04-.86 0-.9zm0-2.3c-.5-.7-1.4-1-2.3-1c-1.3 0-2.1.8-2.1 1.9c0 1.1.8 1.9 2.1 1.9c.9 0 1.8-.4 2.3-1.1v-1.7zm3.8 4.6c.6.8 1.4 1 2.5 1c1.4 0 2.6-.7 2.6-2.4v-1.2c-.5.7-1.5 1.4-2.6 1.4c-2.1 0-3.5-1.5-3.5-4c0-2.4 1.4-4 3.5-4c1 0 2 .5 2.6 1.4c.03.01 0-1.2 0-1.2h.9s-.03 7.56 0 7.6c0 2.3-1.6 3.2-3.5 3.2c-1.3 0-2.1-.3-3-1.2l.5-.6zm5.1-7.1c-.4-.7-1.4-1.4-2.5-1.4c-1.7 0-2.7 1.4-2.7 3.3c0 1.9 1 3.3 2.7 3.3c1.1 0 2.1-.7 2.5-1.4v-3.8zm8.4.6c0-1.5-.7-2-1.8-2c-1 0-2 .7-2.5 1.3v5.8h-.8v-7.6h.8s-.01 1.13 0 1.1c.5-.6 1.6-1.3 2.8-1.3c1.5 0 2.4.7 2.4 2.5c-.03-.03 0 5.3 0 5.3h-.9s.05-5.14 0-5.1zm8.2 4.2c-.7.8-1.6 1.1-2.6 1.1c-1.4 0-2.7-.9-2.7-2.5c0-1.7 1.3-2.5 2.7-2.5c1 0 1.9.3 2.6 1v-1.5c0-1.2-1-1.8-2.1-1.8c-1 0-1.7.3-2.4 1.1l-.5-.5c.8-.9 1.7-1.3 3-1.3c1.5 0 2.8.7 2.8 2.4v5.4h-.8s-.04-.86 0-.9zm0-2.3c-.6-.7-1.4-1-2.4-1c-1.2 0-2.1.8-2.1 1.9c0 1.1.9 1.9 2.1 1.9c1 0 1.8-.4 2.4-1.1v-1.7zm12 2.3c-.7.8-1.5 1.1-2.6 1.1c-1.3 0-2.7-.9-2.7-2.5c0-1.7 1.4-2.5 2.7-2.5c1.1 0 1.9.3 2.6 1v-1.5c0-1.2-.9-1.8-2-1.8c-1 0-1.7.3-2.4 1.1l-.5-.5c.8-.9 1.7-1.3 2.9-1.3c1.6 0 2.9.7 2.9 2.4c-.04.04 0 5.4 0 5.4h-.9s.03-.86 0-.9zm0-2.3c-.5-.7-1.4-1-2.3-1c-1.3 0-2.1.8-2.1 1.9c0 1.1.8 1.9 2.1 1.9c.9 0 1.8-.4 2.3-1.1v-1.7zm3.3-7.4h.8v10.6h-.8V49.2zm3 1c0-.3.3-.6.6-.6c.4 0 .7.3.7.6c0 .4-.3.7-.7.7c-.3 0-.6-.3-.6-.7zm.2 2h.8v7.6h-.8v-7.6zm8.9 10.6v-4.2c-.6.9-1.6 1.4-2.7 1.4c-2 0-3.4-1.6-3.4-4c0-2.5 1.4-4 3.4-4c1.2 0 2.2.6 2.7 1.4v-1.2h.8v10.6h-.8zm0-8.7c-.4-.7-1.5-1.4-2.5-1.4c-1.7 0-2.7 1.4-2.7 3.3c0 1.9 1 3.3 2.7 3.3c1 0 2.1-.7 2.5-1.4v-3.8zm8.4 4.6c-.6.7-1.6 1.3-2.7 1.3c-1.6 0-2.5-.7-2.5-2.4c.05-.03 0-5.4 0-5.4h.9s-.03 5.18 0 5.2c0 1.5.7 1.9 1.8 1.9c1 0 2-.6 2.5-1.3c.02.02 0-5.8 0-5.8h.8v7.6h-.8s.02-1.09 0-1.1zm8.1.2c-.6.8-1.5 1.1-2.6 1.1c-1.3 0-2.6-.9-2.6-2.5c0-1.7 1.3-2.5 2.6-2.5c1.1 0 2 .3 2.6 1v-1.5c0-1.2-.9-1.8-2-1.8c-1 0-1.7.3-2.4 1.1l-.5-.5c.8-.9 1.7-1.3 3-1.3c1.5 0 2.8.7 2.8 2.4c-.04.04 0 5.4 0 5.4h-.9s.04-.86 0-.9zm0-2.3c-.5-.7-1.4-1-2.3-1c-1.3 0-2.1.8-2.1 1.9c0 1.1.8 1.9 2.1 1.9c.9 0 1.8-.4 2.3-1.1v-1.7zm3.7 2c.4 0 .7.3.7.7c0 .4-.3.7-.7.7c-.4 0-.7-.3-.7-.7c0-.4.3-.7.7-.7zm6.9-9.4h.9v6.6c0 2.1 1.1 3.4 3.2 3.4c2.1 0 3.2-1.3 3.2-3.4c.02-.04 0-6.6 0-6.6h.9s.04 6.58 0 6.6c0 2.6-1.4 4.2-4.1 4.2c-2.7 0-4.1-1.6-4.1-4.2c-.01-.02 0-6.6 0-6.6zm10.8 9.2c.05-.04 0-5.5 0-5.5h-1.2v-.7h1.2v-2.1h.9v2.1h1.5v.7h-1.5v5.3c0 .7.2 1.1.8 1.1c.3 0 .7-.2.8-.4l.4.7c-.3.2-.7.4-1.3.4c-1.1 0-1.6-.6-1.6-1.6zm11.3-6.4c2.3 0 3.6 1.8 3.6 4c.03.04 0 .3 0 .3c0 0-6.39-.03-6.4 0c.1 1.6 1.2 3 3 3c1 0 1.9-.3 2.5-1l.5.5c-.8.8-1.8 1.2-3 1.2c-2.3 0-3.9-1.6-3.9-4c0-2.2 1.6-4 3.7-4zm-2.8 3.6h5.6c0-1.3-.9-2.9-2.8-2.9c-1.8 0-2.7 1.6-2.8 2.9zm13.6-.9c0-1.5-.8-2-1.9-2c-1 0-2 .7-2.5 1.3c.02.04 0 5.8 0 5.8h-.8v-7.6h.8s.02 1.13 0 1.1c.6-.6 1.7-1.3 2.8-1.3c1.5 0 2.4.7 2.4 2.5v5.3h-.8s-.02-5.14 0-5.1zm3-4.5c0-.3.3-.6.6-.6c.4 0 .7.3.7.6c0 .4-.3.7-.7.7c-.3 0-.6-.3-.6-.7zm.2 2h.8v7.6h-.8v-7.6zm12.4 2.3c0-1.1-.5-1.8-1.6-1.8c-.8 0-1.7.6-2.1 1.3c-.04.03 0 5.8 0 5.8h-.9s.02-5.33 0-5.3c0-1.1-.4-1.8-1.5-1.8c-.8 0-1.8.6-2.2 1.3c-.02.04 0 5.8 0 5.8h-.8v-7.6h.8s-.02 1.13 0 1.1c.3-.5 1.3-1.3 2.5-1.3c1.2 0 1.8.7 2 1.4c.4-.7 1.4-1.4 2.5-1.4c1.4 0 2.1.8 2.1 2.3v5.5h-.8v-5.3zm12.1 4.4c-.7.8-1.6 1.1-2.6 1.1c-1.4 0-2.7-.9-2.7-2.5c0-1.7 1.3-2.5 2.7-2.5c1 0 1.9.3 2.6 1v-1.5c0-1.2-1-1.8-2.1-1.8c-1 0-1.7.3-2.4 1.1l-.5-.5c.8-.9 1.7-1.3 3-1.3c1.5 0 2.8.7 2.8 2.4c-.02.04 0 5.4 0 5.4h-.8s-.04-.86 0-.9zm0-2.3c-.6-.7-1.4-1-2.4-1c-1.2 0-2.1.8-2.1 1.9c0 1.1.9 1.9 2.1 1.9c1 0 1.8-.4 2.4-1.1v-1.7zm8.9 2c-.6.8-1.6 1.4-2.7 1.4c-2 0-3.4-1.5-3.4-4c0-2.4 1.4-4 3.4-4c1.1 0 2 .5 2.7 1.4c-.05.01 0-4.2 0-4.2h.8v10.6h-.8s-.05-1.18 0-1.2zm0-4.5c-.5-.7-1.5-1.4-2.6-1.4c-1.7 0-2.7 1.5-2.7 3.3c0 1.9 1 3.3 2.7 3.3c1.1 0 2.1-.6 2.6-1.4v-3.8zm16.3.4c0-1.1-.5-1.8-1.5-1.8c-.9 0-1.8.6-2.2 1.3c-.04.03 0 5.8 0 5.8h-.9s.02-5.33 0-5.3c0-1.1-.4-1.8-1.5-1.8c-.8 0-1.8.6-2.2 1.3v5.8h-.8v-7.6h.8s-.01 1.13 0 1.1c.3-.5 1.4-1.3 2.5-1.3c1.2 0 1.8.7 2 1.4c.4-.7 1.4-1.4 2.5-1.4c1.4 0 2.1.8 2.1 2.3c.02.01 0 5.5 0 5.5h-.8v-5.3zm3-4.3c0-.3.3-.6.6-.6c.4 0 .7.3.7.6c0 .4-.3.7-.7.7c-.3 0-.6-.3-.6-.7zm.2 2h.9v7.6h-.9v-7.6zm8.5 2.5c0-1.5-.8-2-1.9-2c-1 0-2 .7-2.5 1.3v5.8h-.8v-7.6h.8v1.1c.6-.6 1.7-1.3 2.8-1.3c1.5 0 2.4.7 2.4 2.5c-.02-.03 0 5.3 0 5.3h-.8s-.05-5.14 0-5.1zm3-4.5c0-.3.3-.6.6-.6c.4 0 .6.3.6.6c0 .4-.2.7-.6.7c-.3 0-.6-.3-.6-.7zm.2 2h.8v7.6h-.8v-7.6zm12.4 2.3c0-1.1-.5-1.8-1.6-1.8c-.8 0-1.7.6-2.2 1.3c.03.03 0 5.8 0 5.8h-.8v-5.3c0-1.1-.5-1.8-1.5-1.8c-.9 0-1.8.6-2.2 1.3c-.04.04 0 5.8 0 5.8h-.9v-7.6h.9s-.04 1.13 0 1.1c.3-.5 1.3-1.3 2.4-1.3c1.2 0 1.9.7 2.1 1.4c.4-.7 1.4-1.4 2.5-1.4c1.4 0 2.1.8 2.1 2.3v5.5h-.8s-.03-5.33 0-5.3zm6-2.3h.9l2.8 6.7l2.8-6.7h.9l-3.2 7.6h-1l-3.2-7.6zm11.9-.2c2.3 0 3.6 1.8 3.6 4c.02.04 0 .3 0 .3c0 0-6.4-.03-6.4 0c.1 1.6 1.2 3 3 3c1 0 1.8-.3 2.5-1l.4.5c-.7.8-1.7 1.2-3 1.2c-2.2 0-3.8-1.6-3.8-4c0-2.2 1.6-4 3.7-4zm-2.8 3.6h5.6c0-1.3-.9-2.9-2.8-2.9c-1.8 0-2.7 1.6-2.8 2.9zm13.6-.9c0-1.5-.8-2-1.9-2c-1 0-2 .7-2.5 1.3v5.8h-.8v-7.6h.8s.01 1.13 0 1.1c.6-.6 1.7-1.3 2.8-1.3c1.5 0 2.4.7 2.4 2.5v5.3h-.8s-.04-5.14 0-5.1zm3-4.5c0-.3.3-.6.6-.6c.4 0 .7.3.7.6c0 .4-.3.7-.7.7c-.3 0-.6-.3-.6-.7zm.2 2h.8v7.6h-.8v-7.6zm8.1 6.7c-.7.8-1.5 1.1-2.6 1.1c-1.3 0-2.7-.9-2.7-2.5c0-1.7 1.4-2.5 2.7-2.5c1.1 0 1.9.3 2.6 1v-1.5c0-1.2-.9-1.8-2-1.8c-1 0-1.7.3-2.4 1.1l-.5-.5c.8-.9 1.7-1.3 2.9-1.3c1.6 0 2.8.7 2.8 2.4c.04.04 0 5.4 0 5.4h-.8s.02-.86 0-.9zm0-2.3c-.5-.7-1.4-1-2.3-1c-1.3 0-2.1.8-2.1 1.9c0 1.1.8 1.9 2.1 1.9c.9 0 1.8-.4 2.3-1.1v-1.7zm12.4-2.1c0-1.1-.5-1.8-1.5-1.8c-.9 0-1.8.6-2.2 1.3c-.04.03 0 5.8 0 5.8h-.9s.02-5.33 0-5.3c0-1.1-.4-1.8-1.5-1.8c-.8 0-1.8.6-2.2 1.3c-.02.04 0 5.8 0 5.8h-.8v-7.6h.8s-.02 1.13 0 1.1c.3-.5 1.4-1.3 2.5-1.3c1.2 0 1.8.7 2 1.4c.4-.7 1.4-1.4 2.5-1.4c1.4 0 2.1.8 2.1 2.3c.02.01 0 5.5 0 5.5h-.8v-5.3zm3.7 4.1c.4 0 .7.3.7.7c0 .4-.3.7-.7.7c-.4 0-.7-.3-.7-.7c0-.4.3-.7.7-.7z" stroke="none" fill="#000"/></g><g id="Polygon296483"><path d="m1.3 30.2h.9v9.8h5.2v.8H1.3V30.2zm7 6.7c0-2.2 1.4-4 3.7-4c2.2 0 3.7 1.8 3.7 4c0 2.3-1.5 4.1-3.7 4.1c-2.3 0-3.7-1.8-3.7-4.1zm6.5 0c0-1.7-1-3.2-2.8-3.2c-1.8 0-2.8 1.5-2.8 3.2c0 1.8 1 3.3 2.8 3.3c1.8 0 2.8-1.5 2.8-3.3zm2.8-3.8h.9s-.05 1.33 0 1.3c.6-.8 1.5-1.4 2.5-1.4v.9c-.1-.1-.2-.1-.4-.1c-.7 0-1.8.7-2.1 1.4c-.05-.01 0 5.6 0 5.6h-.9v-7.7zm8.2-.2c2.3 0 3.6 1.9 3.6 4.1c-.02-.01 0 .2 0 .2H23c0 1.7 1.2 3.1 3 3.1c.9 0 1.8-.4 2.5-1.1l.4.5c-.8.8-1.7 1.3-3 1.3c-2.2 0-3.8-1.7-3.8-4.1c0-2.2 1.5-4 3.7-4zM23 36.6h5.5c0-1.3-.8-3-2.8-3c-1.8 0-2.7 1.6-2.7 3zm17.5-1.2c0-1.1-.5-1.7-1.6-1.7c-.8 0-1.7.6-2.1 1.3c-.05-.03 0 5.8 0 5.8h-.9v-5.4c0-1.1-.4-1.7-1.5-1.7c-.8 0-1.8.6-2.2 1.3c-.02-.02 0 5.8 0 5.8h-.8v-7.7h.8s-.02 1.17 0 1.2c.3-.5 1.3-1.4 2.5-1.4c1.1 0 1.8.7 2 1.5c.4-.7 1.4-1.5 2.5-1.5c1.4 0 2.1.8 2.1 2.4v5.5h-.8s-.02-5.39 0-5.4zm8.6-4.2c0-.4.3-.7.6-.7c.3 0 .6.3.6.7c0 .3-.3.6-.6.6c-.3 0-.6-.3-.6-.6zm.2 1.9h.8v7.7h-.8v-7.7zm3.2 10.6V33.1h.8s.04 1.23 0 1.2c.6-.8 1.6-1.4 2.7-1.4c2.1 0 3.4 1.6 3.4 4c0 2.5-1.3 4.1-3.4 4.1c-1.1 0-2-.6-2.7-1.5c.04.04 0 4.2 0 4.2h-.8zm3.4-10c-1.1 0-2.1.6-2.6 1.3v3.8c.5.8 1.5 1.4 2.6 1.4c1.7 0 2.7-1.4 2.7-3.3c0-1.8-1-3.2-2.7-3.2zm5.3 5.4c.5.7 1.4 1.2 2.5 1.2c1.3 0 2.1-.7 2.1-1.6c0-.9-1.1-1.2-2.2-1.5c-1.3-.3-2.7-.7-2.7-2.2c0-1.1 1-2.1 2.8-2.1c1.3 0 2.1.5 2.7 1.2l-.5.5c-.4-.6-1.2-1-2.2-1c-1.2 0-2 .6-2 1.4c0 .9 1 1.1 2.1 1.4c1.3.3 2.8.7 2.8 2.3c0 1.3-1 2.3-2.9 2.3c-1.2 0-2.2-.4-3-1.2l.5-.7zm12.5.6c-.6.7-1.6 1.3-2.7 1.3c-1.6 0-2.5-.8-2.5-2.5c.05.01 0-5.4 0-5.4h.9s-.03 5.22 0 5.2c0 1.5.7 1.9 1.8 1.9c1 0 2-.6 2.5-1.2c.02-.04 0-5.9 0-5.9h.8v7.7h-.8s.02-1.14 0-1.1zm12.4-4.3c0-1.1-.5-1.7-1.5-1.7c-.9 0-1.8.6-2.2 1.3c-.04-.03 0 5.8 0 5.8h-.9s.02-5.39 0-5.4c0-1.1-.4-1.7-1.5-1.7c-.8 0-1.8.6-2.2 1.3v5.8h-.8v-7.7h.8v1.2c.3-.5 1.4-1.4 2.5-1.4c1.2 0 1.8.7 2 1.5c.4-.7 1.4-1.5 2.5-1.5c1.4 0 2.1.8 2.1 2.4c.02-.05 0 5.5 0 5.5h-.8v-5.4zm14.4 4.2c-.5.8-1.5 1.4-2.6 1.4c-2.1 0-3.5-1.6-3.5-4c0-2.5 1.4-4.1 3.5-4.1c1.1 0 2 .6 2.6 1.4c.04.05 0-4.1 0-4.1h.9v10.6h-.9s.04-1.24 0-1.2zm0-4.5c-.4-.8-1.4-1.4-2.5-1.4c-1.7 0-2.7 1.4-2.7 3.3c0 1.8 1 3.2 2.7 3.2c1.1 0 2.1-.6 2.5-1.3v-3.8zm2.9 1.8c0-2.2 1.4-4 3.6-4c2.3 0 3.7 1.8 3.7 4c0 2.3-1.4 4.1-3.7 4.1c-2.2 0-3.6-1.8-3.6-4.1zm6.5 0c0-1.7-1-3.2-2.9-3.2c-1.7 0-2.8 1.5-2.8 3.2c0 1.8 1.1 3.3 2.8 3.3c1.9 0 2.9-1.5 2.9-3.3zm2.8-6.7h.8v10.6h-.8V30.2zm2.8 6.7c0-2.2 1.4-4 3.7-4c2.3 0 3.7 1.8 3.7 4c0 2.3-1.4 4.1-3.7 4.1c-2.3 0-3.7-1.8-3.7-4.1zm6.5 0c0-1.7-1-3.2-2.8-3.2c-1.8 0-2.8 1.5-2.8 3.2c0 1.8 1 3.3 2.8 3.3c1.8 0 2.8-1.5 2.8-3.3zm2.9-3.8h.8s-.02 1.33 0 1.3c.6-.8 1.5-1.4 2.6-1.4v.9c-.2-.1-.3-.1-.4-.1c-.8 0-1.9.7-2.2 1.4c-.02-.01 0 5.6 0 5.6h-.8v-7.7zm10.2 6c.5.7 1.4 1.2 2.5 1.2c1.3 0 2-.7 2-1.6c0-.9-1-1.2-2.1-1.5c-1.3-.3-2.7-.7-2.7-2.2c0-1.1 1-2.1 2.7-2.1c1.3 0 2.2.5 2.8 1.2l-.5.5c-.4-.6-1.3-1-2.3-1c-1.2 0-1.9.6-1.9 1.4c0 .9 1 1.1 2.1 1.4c1.3.3 2.8.7 2.8 2.3c0 1.3-1 2.3-2.9 2.3c-1.3 0-2.2-.4-3-1.2l.5-.7zm7.1-7.9c0-.4.3-.7.6-.7c.4 0 .7.3.7.7c0 .3-.3.6-.7.6c-.3 0-.6-.3-.6-.6zm.2 1.9h.8v7.7h-.8v-7.7zm3.4 6.2c.02.01 0-5.4 0-5.4h-1.2v-.8h1.2V31h.9v2.1h1.5v.8h-1.5s-.04 5.28 0 5.3c0 .6.2 1 .8 1c.3 0 .6-.1.8-.3l.3.6c-.3.3-.6.5-1.3.5c-1 0-1.5-.6-1.5-1.7zm14.8.4c-.6.7-1.6 1.3-2.8 1.3c-1.5 0-2.4-.8-2.4-2.5c.03.01 0-5.4 0-5.4h.9s-.05 5.22 0 5.2c0 1.5.7 1.9 1.8 1.9c1 0 2-.6 2.5-1.2v-5.9h.8v7.7h-.8s.01-1.14 0-1.1zm8.4-4.1c0-1.5-.7-1.9-1.8-1.9c-1 0-2 .6-2.5 1.3c-.03-.02 0 5.8 0 5.8h-.9v-7.7h.9s-.03 1.17 0 1.2c.5-.7 1.6-1.4 2.7-1.4c1.6 0 2.4.8 2.4 2.5c.05.01 0 5.4 0 5.4h-.8s.02-5.2 0-5.2zm8.9 4c-.5.8-1.5 1.4-2.7 1.4c-2 0-3.4-1.6-3.4-4c0-2.5 1.4-4.1 3.4-4.1c1.1 0 2.1.6 2.7 1.4c.02.05 0-4.1 0-4.1h.9v10.6h-.9s.02-1.24 0-1.2zm0-4.5c-.4-.8-1.4-1.4-2.5-1.4c-1.7 0-2.7 1.4-2.7 3.3c0 1.8 1 3.2 2.7 3.2c1.1 0 2.1-.6 2.5-1.3v-3.8zm6.5-2.2c2.4 0 3.6 1.9 3.6 4.1c.05-.01 0 .2 0 .2h-6.4c.1 1.7 1.2 3.1 3 3.1c1 0 1.9-.4 2.5-1.1l.5.5c-.8.8-1.8 1.3-3 1.3c-2.3 0-3.9-1.7-3.9-4.1c0-2.2 1.6-4 3.7-4zm-2.8 3.7h5.6c0-1.3-.9-3-2.8-3c-1.8 0-2.7 1.6-2.8 3zm17.2-3.7c2.4 0 3.6 1.9 3.6 4.1c.05-.01 0 .2 0 .2H196c.1 1.7 1.2 3.1 3 3.1c1 0 1.9-.4 2.5-1.1l.5.5c-.8.8-1.8 1.3-3 1.3c-2.3 0-3.9-1.7-3.9-4.1c0-2.2 1.6-4 3.7-4zm-2.8 3.7h5.6c0-1.3-.9-3-2.8-3c-1.8 0-2.7 1.6-2.8 3zm13.6-1c0-1.5-.7-1.9-1.9-1.9c-.9 0-2 .6-2.5 1.3c.04-.02 0 5.8 0 5.8h-.8v-7.7h.8s.04 1.17 0 1.2c.6-.7 1.7-1.4 2.8-1.4c1.6 0 2.4.8 2.4 2.5c.02.01 0 5.4 0 5.4h-.8v-5.2zm3-4.4c0-.4.3-.7.7-.7c.3 0 .6.3.6.7c0 .3-.3.6-.6.6c-.4 0-.7-.3-.7-.6zm.2 1.9h.9v7.7h-.9v-7.7zm12.4 2.3c0-1.1-.5-1.7-1.5-1.7c-.9 0-1.8.6-2.2 1.3c-.02-.03 0 5.8 0 5.8h-.9s.04-5.39 0-5.4c0-1.1-.4-1.7-1.5-1.7c-.8 0-1.7.6-2.2 1.3v5.8h-.8v-7.7h.8v1.2c.3-.5 1.4-1.4 2.5-1.4c1.2 0 1.8.7 2 1.5c.4-.7 1.5-1.5 2.5-1.5c1.5 0 2.1.8 2.1 2.4c.03-.05 0 5.5 0 5.5h-.8v-5.4zm13.7 4.5c-.7.7-1.6 1.1-2.6 1.1c-1.3 0-2.7-.9-2.7-2.6c0-1.7 1.3-2.5 2.7-2.5c1 0 1.9.3 2.6 1.1v-1.6c0-1.1-.9-1.7-2.1-1.7c-.9 0-1.7.3-2.4 1.1l-.4-.6c.8-.9 1.6-1.3 2.9-1.3c1.6 0 2.8.8 2.8 2.5v5.4h-.8s-.02-.92 0-.9zm0-2.3c-.6-.7-1.4-1.1-2.3-1.1c-1.3 0-2.1.9-2.1 1.9c0 1.1.8 1.9 2.1 1.9c.9 0 1.7-.3 2.3-1v-1.7zm12.4-2.2c0-1.1-.5-1.7-1.6-1.7c-.8 0-1.8.6-2.2 1.3c.02-.03 0 5.8 0 5.8h-.8s-.02-5.39 0-5.4c0-1.1-.5-1.7-1.6-1.7c-.8 0-1.7.6-2.2 1.3c.05-.02 0 5.8 0 5.8h-.8v-7.7h.8s.05 1.17 0 1.2c.4-.5 1.4-1.4 2.5-1.4c1.2 0 1.9.7 2 1.5c.5-.7 1.5-1.5 2.6-1.5c1.4 0 2.1.8 2.1 2.4c-.02-.05 0 5.5 0 5.5h-.8s-.05-5.39 0-5.4zm6.4-2.5c2.4 0 3.7 1.9 3.7 4.1c-.03-.01 0 .2 0 .2H255c0 1.7 1.1 3.1 2.9 3.1c1 0 1.9-.4 2.6-1.1l.4.5c-.8.8-1.7 1.3-3 1.3c-2.2 0-3.9-1.7-3.9-4.1c0-2.2 1.6-4 3.7-4zm-2.7 3.7h5.5c0-1.3-.8-3-2.8-3c-1.8 0-2.7 1.6-2.7 3zm8.5 2.7v-5.4h-1.3v-.8h1.3V31h.8v2.1h1.6v.8h-1.6s.04 5.28 0 5.3c0 .6.3 1 .8 1c.4 0 .7-.1.9-.3l.3.6c-.3.3-.7.5-1.3.5c-1 0-1.5-.6-1.5-1.7zm3.7 3c.5-.3.9-.9.9-1.4h-.2c-.3 0-.6-.3-.6-.7c0-.3.3-.7.7-.7c.4 0 .8.4.8 1.1c0 .8-.5 1.7-1.2 2.1l-.4-.4zm12.5-9.4c1.3 0 2.1.5 2.7 1.3l-.5.5c-.6-.7-1.3-1-2.1-1c-1.8 0-2.9 1.4-2.9 3.2c0 1.9 1.1 3.3 2.9 3.3c.8 0 1.5-.3 2.1-1.1l.5.6c-.6.7-1.4 1.3-2.7 1.3c-2.2 0-3.7-1.8-3.7-4.1c0-2.2 1.5-4 3.7-4zm4 4c0-2.2 1.4-4 3.6-4c2.3 0 3.7 1.8 3.7 4c0 2.3-1.4 4.1-3.7 4.1c-2.2 0-3.6-1.8-3.6-4.1zm6.5 0c0-1.7-1-3.2-2.9-3.2c-1.7 0-2.7 1.5-2.7 3.2c0 1.8 1 3.3 2.7 3.3c1.9 0 2.9-1.5 2.9-3.3zm8-1.3c0-1.5-.7-1.9-1.9-1.9c-.9 0-2 .6-2.5 1.3c.04-.02 0 5.8 0 5.8h-.8v-7.7h.8s.04 1.17 0 1.2c.6-.7 1.7-1.4 2.8-1.4c1.6 0 2.4.8 2.4 2.5c.02.01 0 5.4 0 5.4h-.8v-5.2zm3.1 3.5c.5.7 1.3 1.2 2.4 1.2c1.3 0 2.1-.7 2.1-1.6c0-.9-1.1-1.2-2.2-1.5c-1.2-.3-2.7-.7-2.7-2.2c0-1.1 1-2.1 2.8-2.1c1.3 0 2.2.5 2.7 1.2l-.4.5c-.5-.6-1.3-1-2.3-1c-1.2 0-1.9.6-1.9 1.4c0 .9.9 1.1 2 1.4c1.3.3 2.8.7 2.8 2.3c0 1.3-1 2.3-2.9 2.3c-1.2 0-2.2-.4-2.9-1.2l.5-.7zm10.5-6.2c2.4 0 3.6 1.9 3.6 4.1c.04-.01 0 .2 0 .2H309c.1 1.7 1.2 3.1 3 3.1c1 0 1.9-.4 2.5-1.1l.5.5c-.8.8-1.8 1.3-3 1.3c-2.3 0-3.9-1.7-3.9-4.1c0-2.2 1.6-4 3.7-4zm-2.8 3.7h5.6c0-1.3-.9-3-2.8-3c-1.8 0-2.7 1.6-2.8 3zm11.7-3.7c1.3 0 2.1.5 2.7 1.3l-.6.5c-.5-.7-1.2-1-2.1-1c-1.7 0-2.8 1.4-2.8 3.2c0 1.9 1.1 3.3 2.8 3.3c.9 0 1.6-.3 2.1-1.1l.6.6c-.6.7-1.4 1.3-2.7 1.3c-2.3 0-3.7-1.8-3.7-4.1c0-2.2 1.4-4 3.7-4zm4.6 6.4c-.04.01 0-5.4 0-5.4H324v-.8h1.3V31h.8v2.1h1.6v.8h-1.6v5.3c0 .6.3 1 .8 1c.4 0 .7-.1.9-.3l.3.6c-.3.3-.7.5-1.3.5c-1 0-1.5-.6-1.5-1.7zm7.3-6.4c2.3 0 3.6 1.9 3.6 4.1v.2h-6.4c0 1.7 1.2 3.1 3 3.1c.9 0 1.8-.4 2.5-1.1l.4.5c-.8.8-1.7 1.3-3 1.3c-2.2 0-3.8-1.7-3.8-4.1c0-2.2 1.5-4 3.7-4zm-2.8 3.7h5.5c0-1.3-.8-3-2.7-3c-1.9 0-2.8 1.6-2.8 3zm8.5 2.7c.02.01 0-5.4 0-5.4H337v-.8h1.3V31h.9v2.1h1.5v.8h-1.5s-.04 5.28 0 5.3c0 .6.2 1 .8 1c.3 0 .6-.1.8-.3l.3.6c-.3.3-.6.5-1.3.5c-1 0-1.5-.6-1.5-1.7zm9.2.4c-.6.7-1.6 1.3-2.7 1.3c-1.6 0-2.4-.8-2.4-2.5c-.03.01 0-5.4 0-5.4h.8v5.2c0 1.5.7 1.9 1.8 1.9c1 0 2-.6 2.5-1.2c.04-.04 0-5.9 0-5.9h.9v7.7h-.9s.04-1.14 0-1.1zm3.3-6.6h.8v1.3c.7-.8 1.5-1.4 2.6-1.4v.9c-.1-.1-.3-.1-.4-.1c-.8 0-1.8.7-2.2 1.4v5.6h-.8v-7.7zm15.3 6.8c-.7.7-1.5 1.1-2.6 1.1c-1.3 0-2.7-.9-2.7-2.6c0-1.7 1.4-2.5 2.7-2.5c1.1 0 1.9.3 2.6 1.1v-1.6c0-1.1-.9-1.7-2.1-1.7c-.9 0-1.7.3-2.4 1.1l-.4-.6c.8-.9 1.6-1.3 2.9-1.3c1.6 0 2.8.8 2.8 2.5c.02-.02 0 5.4 0 5.4h-.8s-.01-.92 0-.9zm0-2.3c-.5-.7-1.4-1.1-2.3-1.1c-1.3 0-2.1.9-2.1 1.9c0 1.1.8 1.9 2.1 1.9c.9 0 1.8-.3 2.3-1v-1.7zm8.9 2c-.6.8-1.5 1.4-2.7 1.4c-2 0-3.4-1.6-3.4-4c0-2.5 1.4-4.1 3.4-4.1c1.1 0 2.1.6 2.7 1.4v-4.1h.8v10.6h-.8v-1.2zm0-4.5c-.5-.8-1.5-1.4-2.5-1.4c-1.7 0-2.7 1.4-2.7 3.3c0 1.8 1 3.2 2.7 3.2c1 0 2-.6 2.5-1.3v-3.8zm3-3.9c0-.4.3-.7.7-.7c.3 0 .6.3.6.7c0 .3-.3.6-.6.6c-.4 0-.7-.3-.7-.6zm.2 1.9h.9v7.7h-.9v-7.7zm3.3 10.6V33.1h.8v1.2c.5-.8 1.5-1.4 2.7-1.4c2 0 3.4 1.6 3.4 4c0 2.5-1.4 4.1-3.4 4.1c-1.1 0-2.1-.6-2.7-1.5v4.2h-.8zm3.3-10c-1 0-2.1.6-2.5 1.3v3.8c.4.8 1.5 1.4 2.5 1.4c1.7 0 2.7-1.4 2.7-3.3c0-1.8-1-3.2-2.7-3.2zm5.4-2.5c0-.4.3-.7.6-.7c.3 0 .6.3.6.7c0 .3-.3.6-.6.6c-.3 0-.6-.3-.6-.6zm.2 1.9h.8v7.7h-.8v-7.7zm3 6c.5.7 1.4 1.2 2.5 1.2c1.3 0 2.1-.7 2.1-1.6c0-.9-1.1-1.2-2.2-1.5c-1.3-.3-2.7-.7-2.7-2.2c0-1.1 1-2.1 2.8-2.1c1.3 0 2.1.5 2.7 1.2l-.5.5c-.4-.6-1.2-1-2.2-1c-1.2 0-2 .6-2 1.4c0 .9 1 1.1 2.1 1.4c1.3.3 2.8.7 2.8 2.3c0 1.3-1 2.3-2.9 2.3c-1.2 0-2.2-.4-3-1.2l.5-.7zm10.6-6.2c1.4 0 2.1.5 2.7 1.3l-.5.5c-.6-.7-1.3-1-2.1-1c-1.8 0-2.9 1.4-2.9 3.2c0 1.9 1.1 3.3 2.9 3.3c.8 0 1.5-.3 2.1-1.1l.5.6c-.6.7-1.3 1.3-2.7 1.3c-2.2 0-3.7-1.8-3.7-4.1c0-2.2 1.5-4 3.7-4zm4.2-1.7c0-.4.3-.7.6-.7c.4 0 .7.3.7.7c0 .3-.3.6-.7.6c-.3 0-.6-.3-.6-.6zm.2 1.9h.9v7.7h-.9v-7.7zm8.5 2.5c0-1.5-.8-1.9-1.9-1.9c-1 0-2 .6-2.5 1.3v5.8h-.8v-7.7h.8v1.2c.6-.7 1.6-1.4 2.8-1.4c1.5 0 2.4.8 2.4 2.5c-.03.01 0 5.4 0 5.4h-.8s-.05-5.2 0-5.2zm3.7 6.5c.6.8 1.4 1.1 2.5 1.1c1.4 0 2.6-.7 2.6-2.5v-1.2c-.5.8-1.5 1.4-2.6 1.4c-2.1 0-3.5-1.5-3.5-4c0-2.4 1.4-4 3.5-4c1.1 0 2 .6 2.6 1.4c.04.05 0-1.2 0-1.2h.9s-.02 7.6 0 7.6c0 2.4-1.6 3.2-3.5 3.2c-1.3 0-2.1-.2-3-1.2l.5-.6zm5.1-7c-.4-.8-1.4-1.4-2.5-1.4c-1.7 0-2.7 1.4-2.7 3.2c0 1.9 1 3.3 2.7 3.3c1.1 0 2.1-.7 2.5-1.4v-3.7zm12.1-2.2c2.3 0 3.6 1.9 3.6 4.1c.02-.01 0 .2 0 .2H435c.1 1.7 1.2 3.1 3 3.1c1 0 1.8-.4 2.5-1.1l.4.5c-.7.8-1.7 1.3-3 1.3c-2.2 0-3.8-1.7-3.8-4.1c0-2.2 1.6-4 3.7-4zm-2.8 3.7h5.6c0-1.3-.9-3-2.8-3c-1.8 0-2.7 1.6-2.8 3zm8.4-6.4h.8v10.6h-.8V30.2zm3 1c0-.4.3-.7.6-.7c.4 0 .7.3.7.7c0 .3-.3.6-.7.6c-.3 0-.6-.3-.6-.6zm.2 1.9h.9v7.7h-.9v-7.7zm3.4 6.2c.02.01 0-5.4 0-5.4h-1.2v-.8h1.2V31h.9v2.1h1.5v.8h-1.5s-.04 5.28 0 5.3c0 .6.2 1 .8 1c.3 0 .6-.1.8-.3l.3.6c-.3.3-.6.5-1.3.5c-1 0-1.5-.6-1.5-1.7zm3.7 3c.5-.3.9-.9.9-1.4h-.1c-.4 0-.7-.3-.7-.7c0-.3.3-.7.7-.7c.4 0 .8.4.8 1.1c0 .8-.5 1.7-1.1 2.1l-.5-.4zm9.1-3.2c.5.7 1.4 1.2 2.5 1.2c1.2 0 2-.7 2-1.6c0-.9-1-1.2-2.2-1.5c-1.2-.3-2.6-.7-2.6-2.2c0-1.1.9-2.1 2.7-2.1c1.3 0 2.2.5 2.7 1.2l-.4.5c-.5-.6-1.3-1-2.3-1c-1.2 0-1.9.6-1.9 1.4c0 .9 1 1.1 2 1.4c1.3.3 2.8.7 2.8 2.3c0 1.3-1 2.3-2.9 2.3c-1.2 0-2.2-.4-2.9-1.2l.5-.7zm10.5-6.2c2.4 0 3.7 1.9 3.7 4.1c-.04-.01 0 .2 0 .2h-6.5c.1 1.7 1.2 3.1 3 3.1c1 0 1.9-.4 2.6-1.1l.4.5c-.8.8-1.8 1.3-3 1.3c-2.3 0-3.9-1.7-3.9-4.1c0-2.2 1.6-4 3.7-4zm-2.8 3.7h5.6c0-1.3-.9-3-2.8-3c-1.8 0-2.7 1.6-2.8 3zm14.1 3c-.6.8-1.5 1.4-2.7 1.4c-2 0-3.4-1.6-3.4-4c0-2.5 1.4-4.1 3.4-4.1c1.1 0 2.1.6 2.7 1.4c-.02.05 0-4.1 0-4.1h.8v10.6h-.8s-.02-1.24 0-1.2zm0-4.5c-.5-.8-1.5-1.4-2.5-1.4c-1.7 0-2.7 1.4-2.7 3.3c0 1.8 1 3.2 2.7 3.2c1 0 2-.6 2.5-1.3v-3.8zm8.3 1.8c0-2.2 1.5-4 3.7-4c2.3 0 3.7 1.8 3.7 4c0 2.3-1.4 4.1-3.7 4.1c-2.2 0-3.7-1.8-3.7-4.1zm6.5 0c0-1.7-1-3.2-2.8-3.2c-1.7 0-2.8 1.5-2.8 3.2c0 1.8 1.1 3.3 2.8 3.3c1.8 0 2.8-1.5 2.8-3.3zm12-1.5c0-1.1-.4-1.7-1.5-1.7c-.8 0-1.8.6-2.2 1.3v5.8h-.8s-.04-5.39 0-5.4c0-1.1-.5-1.7-1.6-1.7c-.8 0-1.7.6-2.2 1.3c.03-.02 0 5.8 0 5.8h-.8v-7.7h.8s.03 1.17 0 1.2c.3-.5 1.4-1.4 2.5-1.4c1.2 0 1.8.7 2 1.5c.5-.7 1.5-1.5 2.6-1.5c1.4 0 2.1.8 2.1 2.4c-.04-.05 0 5.5 0 5.5h-.9s.04-5.39 0-5.4zm8.5.2c0-1.5-.8-1.9-1.9-1.9c-1 0-2 .6-2.5 1.3v5.8h-.8v-7.7h.8v1.2c.6-.7 1.7-1.4 2.8-1.4c1.5 0 2.4.8 2.4 2.5c-.02.01 0 5.4 0 5.4h-.8s-.05-5.2 0-5.2zm3-4.4c0-.4.3-.7.6-.7c.4 0 .6.3.6.7c0 .3-.2.6-.6.6c-.3 0-.6-.3-.6-.6zm.2 1.9h.8v7.7h-.8v-7.7zm3.1 6c.4.7 1.3 1.2 2.4 1.2c1.3 0 2.1-.7 2.1-1.6c0-.9-1.1-1.2-2.2-1.5c-1.2-.3-2.7-.7-2.7-2.2c0-1.1 1-2.1 2.8-2.1c1.3 0 2.2.5 2.7 1.2l-.4.5c-.5-.6-1.3-1-2.3-1c-1.2 0-2 .6-2 1.4c0 .9 1 1.1 2.1 1.4c1.3.3 2.8.7 2.8 2.3c0 1.3-1 2.3-2.9 2.3c-1.2 0-2.2-.4-2.9-1.2l.5-.7zm18.5 4.6s-.03-4.16 0-4.2c-.6.9-1.6 1.5-2.7 1.5c-2 0-3.4-1.6-3.4-4.1c0-2.4 1.4-4 3.4-4c1.1 0 2.1.6 2.7 1.4c-.03.03 0-1.2 0-1.2h.8v10.6h-.8zm0-8.7c-.5-.7-1.5-1.3-2.6-1.3c-1.7 0-2.6 1.4-2.6 3.2c0 1.9.9 3.3 2.6 3.3c1.1 0 2.1-.6 2.6-1.4V35zm8.4 4.7c-.6.7-1.7 1.3-2.8 1.3c-1.5 0-2.4-.8-2.4-2.5v-5.4h.8s.04 5.22 0 5.2c0 1.5.8 1.9 1.9 1.9c1 0 2-.6 2.5-1.2v-5.9h.8v7.7h-.8s-.01-1.14 0-1.1zm3-8.5c0-.4.3-.7.6-.7c.4 0 .7.3.7.7c0 .3-.3.6-.7.6c-.3 0-.6-.3-.6-.6zm.2 1.9h.9v7.7h-.9v-7.7zm14.5 6.5c-.6.8-1.5 1.4-2.7 1.4c-2 0-3.4-1.6-3.4-4c0-2.5 1.4-4.1 3.4-4.1c1.1 0 2.1.6 2.7 1.4c-.02.05 0-4.1 0-4.1h.8v10.6h-.8s-.02-1.24 0-1.2zm0-4.5c-.5-.8-1.5-1.4-2.5-1.4c-1.7 0-2.7 1.4-2.7 3.3c0 1.8 1 3.2 2.7 3.2c1 0 2-.6 2.5-1.3v-3.8zm2.8 1.8c0-2.2 1.4-4 3.7-4c2.2 0 3.7 1.8 3.7 4c0 2.3-1.5 4.1-3.7 4.1c-2.3 0-3.7-1.8-3.7-4.1zm6.5 0c0-1.7-1-3.2-2.8-3.2c-1.8 0-2.8 1.5-2.8 3.2c0 1.8 1 3.3 2.8 3.3c1.8 0 2.8-1.5 2.8-3.3zm11.7-4c2.3 0 3.6 1.9 3.6 4.1c-.02-.01 0 .2 0 .2H589c0 1.7 1.2 3.1 2.9 3.1c1 0 1.9-.4 2.6-1.1l.4.5c-.8.8-1.7 1.3-3 1.3c-2.2 0-3.8-1.7-3.8-4.1c0-2.2 1.5-4 3.7-4zm-2.8 3.7h5.5c0-1.3-.8-3-2.8-3c-1.8 0-2.7 1.6-2.7 3zm8.1-5.4c0-.4.3-.7.7-.7c.3 0 .6.3.6.7c0 .3-.3.6-.6.6c-.4 0-.7-.3-.7-.6zm.2 1.9h.9v7.7h-.9v-7.7zm8.5 6.6c-.7.7-1.7 1.3-2.8 1.3c-1.6 0-2.4-.8-2.4-2.5v-5.4h.8v5.2c0 1.5.8 1.9 1.9 1.9c1 0 2-.6 2.5-1.2c-.03-.04 0-5.9 0-5.9h.8v7.7h-.8s-.03-1.14 0-1.1zm3-.6c.5.7 1.4 1.2 2.5 1.2c1.3 0 2.1-.7 2.1-1.6c0-.9-1.1-1.2-2.2-1.5c-1.3-.3-2.7-.7-2.7-2.2c0-1.1 1-2.1 2.7-2.1c1.4 0 2.2.5 2.8 1.2l-.5.5c-.4-.6-1.2-1-2.3-1c-1.1 0-1.9.6-1.9 1.4c0 .9 1 1.1 2.1 1.4c1.3.3 2.8.7 2.8 2.3c0 1.3-1 2.3-2.9 2.3c-1.2 0-2.2-.4-3-1.2l.5-.7zm16.5-3.7c0-1.1-.5-1.7-1.6-1.7c-.8 0-1.7.6-2.2 1.3c.04-.03 0 5.8 0 5.8h-.8v-5.4c0-1.1-.4-1.7-1.5-1.7c-.9 0-1.8.6-2.2 1.3c-.04-.02 0 5.8 0 5.8h-.9v-7.7h.9s-.04 1.17 0 1.2c.3-.5 1.3-1.4 2.4-1.4c1.2 0 1.9.7 2.1 1.5c.4-.7 1.4-1.5 2.5-1.5c1.4 0 2.1.8 2.1 2.4v5.5h-.8s-.03-5.39 0-5.4zm2.8 1.5c0-2.2 1.4-4 3.6-4c2.3 0 3.7 1.8 3.7 4c0 2.3-1.4 4.1-3.7 4.1c-2.2 0-3.6-1.8-3.6-4.1zm6.5 0c0-1.7-1-3.2-2.9-3.2c-1.7 0-2.7 1.5-2.7 3.2c0 1.8 1 3.3 2.7 3.3c1.9 0 2.9-1.5 2.9-3.3zm8.5 2.7c-.6.8-1.6 1.4-2.7 1.4c-2 0-3.4-1.6-3.4-4c0-2.5 1.4-4.1 3.4-4.1c1.1 0 2.1.6 2.7 1.4c-.03.05 0-4.1 0-4.1h.8v10.6h-.8s-.03-1.24 0-1.2zm0-4.5c-.5-.8-1.5-1.4-2.6-1.4c-1.7 0-2.6 1.4-2.6 3.3c0 1.8.9 3.2 2.6 3.2c1.1 0 2.1-.6 2.6-1.3v-3.8zm8.9 4.2c.04.01 0-5.4 0-5.4h-1.2v-.8h1.2V31h.9v2.1h1.5v.8h-1.5s-.02 5.28 0 5.3c0 .6.2 1 .8 1c.3 0 .7-.1.8-.3l.4.6c-.3.3-.7.5-1.3.5c-1.1 0-1.6-.6-1.6-1.7zm7.3-6.4c2.4 0 3.7 1.9 3.7 4.1c-.03-.01 0 .2 0 .2h-6.4c0 1.7 1.1 3.1 2.9 3.1c1 0 1.9-.4 2.6-1.1l.4.5c-.8.8-1.7 1.3-3 1.3c-2.2 0-3.9-1.7-3.9-4.1c0-2.2 1.6-4 3.7-4zm-2.7 3.7h5.5c0-1.3-.8-3-2.8-3c-1.8 0-2.7 1.6-2.7 3zm17.5-1.2c0-1.1-.5-1.7-1.6-1.7c-.8 0-1.7.6-2.2 1.3c.04-.03 0 5.8 0 5.8h-.8v-5.4c0-1.1-.4-1.7-1.5-1.7c-.9 0-1.8.6-2.2 1.3c-.04-.02 0 5.8 0 5.8h-.9v-7.7h.9s-.04 1.17 0 1.2c.3-.5 1.3-1.4 2.4-1.4c1.2 0 1.9.7 2.1 1.5c.4-.7 1.4-1.5 2.5-1.5c1.4 0 2.1.8 2.1 2.4v5.5h-.8s-.03-5.39 0-5.4zm3.2 8.3V33.1h.8s.04 1.23 0 1.2c.6-.8 1.6-1.4 2.7-1.4c2.1 0 3.4 1.6 3.4 4c0 2.5-1.3 4.1-3.4 4.1c-1.1 0-2-.6-2.7-1.5c.04.04 0 4.2 0 4.2h-.8zm3.4-10c-1.1 0-2.1.6-2.6 1.3v3.8c.5.8 1.5 1.4 2.6 1.4c1.7 0 2.6-1.4 2.6-3.3c0-1.8-.9-3.2-2.6-3.2zm5.1 3.2c0-2.2 1.4-4 3.6-4c2.3 0 3.7 1.8 3.7 4c0 2.3-1.4 4.1-3.7 4.1c-2.2 0-3.6-1.8-3.6-4.1zm6.5 0c0-1.7-1-3.2-2.9-3.2c-1.7 0-2.8 1.5-2.8 3.2c0 1.8 1.1 3.3 2.8 3.3c1.9 0 2.9-1.5 2.9-3.3zm2.8-3.8h.8s.04 1.33 0 1.3c.7-.8 1.6-1.4 2.6-1.4v.9c-.1-.1-.2-.1-.4-.1c-.8 0-1.8.7-2.2 1.4c.04-.01 0 5.6 0 5.6h-.8v-7.7zm10.2-1.9c0-.4.3-.7.7-.7c.3 0 .6.3.6.7c0 .3-.3.6-.6.6c-.4 0-.7-.3-.7-.6zm.2 1.9h.9v7.7h-.9v-7.7zm8.5 2.5c0-1.5-.8-1.9-1.9-1.9c-1 0-2 .6-2.5 1.3v5.8h-.8v-7.7h.8v1.2c.6-.7 1.7-1.4 2.8-1.4c1.5 0 2.4.8 2.4 2.5v5.4h-.8s-.04-5.2 0-5.2zm6.5-2.7c1.3 0 2.1.5 2.7 1.3l-.6.5c-.5-.7-1.2-1-2.1-1c-1.8 0-2.9 1.4-2.9 3.2c0 1.9 1.1 3.3 2.9 3.3c.9 0 1.6-.3 2.1-1.1l.6.6c-.6.7-1.4 1.3-2.7 1.3c-2.3 0-3.7-1.8-3.7-4.1c0-2.2 1.4-4 3.7-4zm4.2-1.7c0-.4.3-.7.6-.7c.4 0 .6.3.6.7c0 .3-.2.6-.6.6c-.3 0-.6-.3-.6-.6zm.2 1.9h.8v7.7h-.8v-7.7zm8.9 6.5c-.6.8-1.5 1.4-2.7 1.4c-2 0-3.4-1.6-3.4-4c0-2.5 1.4-4.1 3.4-4.1c1.1 0 2.1.6 2.7 1.4v-4.1h.8v10.6h-.8v-1.2zm0-4.5c-.5-.8-1.5-1.4-2.5-1.4c-1.7 0-2.7 1.4-2.7 3.3c0 1.8 1 3.2 2.7 3.2c1 0 2-.6 2.5-1.3v-3.8zm3-3.9c0-.4.3-.7.7-.7c.3 0 .6.3.6.7c0 .3-.3.6-.6.6c-.4 0-.7-.3-.7-.6zm.2 1.9h.9v7.7h-.9v-7.7zm8.9 6.5c-.5.8-1.5 1.4-2.6 1.4c-2.1 0-3.5-1.6-3.5-4c0-2.5 1.4-4.1 3.5-4.1c1 0 2 .6 2.6 1.4c.04.05 0-4.1 0-4.1h.9v10.6h-.9s.04-1.24 0-1.2zm0-4.5c-.4-.8-1.4-1.4-2.5-1.4c-1.7 0-2.7 1.4-2.7 3.3c0 1.8 1 3.2 2.7 3.2c1.1 0 2.1-.6 2.5-1.3v-3.8zm8.5 4.6c-.7.7-1.7 1.3-2.8 1.3c-1.6 0-2.4-.8-2.4-2.5v-5.4h.8s.02 5.22 0 5.2c0 1.5.8 1.9 1.9 1.9c1 0 2-.6 2.5-1.2c-.03-.04 0-5.9 0-5.9h.8v7.7h-.8s-.03-1.14 0-1.1zm8.4-4.1c0-1.5-.8-1.9-1.9-1.9c-1 0-2 .6-2.5 1.3c.03-.02 0 5.8 0 5.8h-.8v-7.7h.8s.03 1.17 0 1.2c.6-.7 1.7-1.4 2.8-1.4c1.6 0 2.4.8 2.4 2.5v5.4h-.8v-5.2zm3.4 3.7v-5.4h-1.3v-.8h1.3V31h.8v2.1h1.6v.8H767s.02 5.28 0 5.3c0 .6.3 1 .8 1c.4 0 .7-.1.9-.3l.3.6c-.3.3-.7.5-1.3.5c-1 0-1.5-.6-1.5-1.7zm14.8.4c-.7.7-1.7 1.3-2.8 1.3c-1.6 0-2.4-.8-2.4-2.5v-5.4h.8v5.2c0 1.5.8 1.9 1.9 1.9c1 0 2-.6 2.5-1.2c-.03-.04 0-5.9 0-5.9h.8v7.7h-.8s-.03-1.14 0-1.1zm3.4-.4c-.03.01 0-5.4 0-5.4h-1.3v-.8h1.3V31h.8v2.1h1.6v.8h-1.6v5.3c0 .6.3 1 .8 1c.4 0 .7-.1.9-.3l.3.6c-.3.3-.7.5-1.3.5c-1 0-1.5-.6-1.5-1.7zm9.6-9.1h.8v10.6h-.8V30.2zm8.1 9.7c-.7.7-1.6 1.1-2.6 1.1c-1.3 0-2.7-.9-2.7-2.6c0-1.7 1.3-2.5 2.7-2.5c1 0 1.9.3 2.6 1.1v-1.6c0-1.1-.9-1.7-2.1-1.7c-.9 0-1.7.3-2.4 1.1l-.4-.6c.8-.9 1.6-1.3 2.9-1.3c1.6 0 2.8.8 2.8 2.5v5.4h-.8s-.01-.92 0-.9zm0-2.3c-.6-.7-1.4-1.1-2.3-1.1c-1.3 0-2.1.9-2.1 1.9c0 1.1.8 1.9 2.1 1.9c.9 0 1.7-.3 2.3-1v-1.7zm3.2-7.4h.9s-.05 4.15 0 4.1c.6-.8 1.5-1.4 2.6-1.4c2.1 0 3.5 1.6 3.5 4.1c0 2.4-1.4 4-3.5 4c-1.1 0-2.1-.6-2.6-1.4c-.05-.04 0 1.2 0 1.2h-.9V30.2zm3.4 10c1.7 0 2.7-1.4 2.7-3.2c0-1.9-1-3.3-2.7-3.3c-1.1 0-2.1.6-2.5 1.4v3.8c.4.7 1.4 1.3 2.5 1.3zm5.1-3.3c0-2.2 1.4-4 3.7-4c2.2 0 3.7 1.8 3.7 4c0 2.3-1.5 4.1-3.7 4.1c-2.3 0-3.7-1.8-3.7-4.1zm6.5 0c0-1.7-1-3.2-2.8-3.2c-1.8 0-2.8 1.5-2.8 3.2c0 1.8 1 3.3 2.8 3.3c1.8 0 2.8-1.5 2.8-3.3zm2.8-3.8h.9s-.03 1.33 0 1.3c.6-.8 1.5-1.4 2.6-1.4v.9c-.2-.1-.3-.1-.5-.1c-.7 0-1.8.7-2.1 1.4c-.03-.01 0 5.6 0 5.6h-.9v-7.7zm8.2-.2c2.3 0 3.6 1.9 3.6 4.1v.2h-6.4c.1 1.7 1.2 3.1 3 3.1c1 0 1.8-.4 2.5-1.1l.4.5c-.7.8-1.7 1.3-3 1.3c-2.2 0-3.8-1.7-3.8-4.1c0-2.2 1.6-4 3.7-4zm-2.8 3.7h5.6c-.1-1.3-.9-3-2.8-3c-1.8 0-2.8 1.6-2.8 3zm17.2-3.7c2.3 0 3.6 1.9 3.6 4.1v.2h-6.4c.1 1.7 1.2 3.1 3 3.1c1 0 1.8-.4 2.5-1.1l.4.5c-.7.8-1.7 1.3-3 1.3c-2.2 0-3.8-1.7-3.8-4.1c0-2.2 1.6-4 3.7-4zm-2.8 3.7h5.6c-.1-1.3-.9-3-2.8-3c-1.8 0-2.8 1.6-2.8 3zm8.5 2.7c.03.01 0-5.4 0-5.4h-1.2v-.8h1.2V31h.9v2.1h1.5v.8h-1.5s-.03 5.28 0 5.3c0 .6.2 1 .8 1c.3 0 .6-.1.8-.3l.3.6c-.3.3-.6.5-1.3.5c-1 0-1.5-.6-1.5-1.7zm15.3.3c-.5.8-1.5 1.4-2.7 1.4c-2 0-3.4-1.6-3.4-4c0-2.5 1.4-4.1 3.4-4.1c1.1 0 2.1.6 2.7 1.4v-4.1h.8v10.6h-.8v-1.2zm0-4.5c-.5-.8-1.5-1.4-2.5-1.4c-1.7 0-2.7 1.4-2.7 3.3c0 1.8 1 3.2 2.7 3.2c1 0 2-.6 2.5-1.3v-3.8zm2.8 1.8c0-2.2 1.4-4 3.7-4c2.3 0 3.7 1.8 3.7 4c0 2.3-1.4 4.1-3.7 4.1c-2.3 0-3.7-1.8-3.7-4.1zm6.5 0c0-1.7-1-3.2-2.8-3.2c-1.8 0-2.8 1.5-2.8 3.2c0 1.8 1 3.3 2.8 3.3c1.8 0 2.8-1.5 2.8-3.3zm2.9-6.7h.8v10.6h-.8V30.2zm2.8 6.7c0-2.2 1.4-4 3.6-4c2.3 0 3.7 1.8 3.7 4c0 2.3-1.4 4.1-3.7 4.1c-2.2 0-3.6-1.8-3.6-4.1zm6.4 0c0-1.7-1-3.2-2.8-3.2c-1.7 0-2.8 1.5-2.8 3.2c0 1.8 1.1 3.3 2.8 3.3c1.8 0 2.8-1.5 2.8-3.3zm2.9-3.8h.8s.03 1.33 0 1.3c.7-.8 1.6-1.4 2.6-1.4v.9c-.1-.1-.2-.1-.4-.1c-.8 0-1.8.7-2.2 1.4c.03-.01 0 5.6 0 5.6h-.8v-7.7zm8.1-.2c2.4 0 3.7 1.9 3.7 4.1c-.04-.01 0 .2 0 .2h-6.5c.1 1.7 1.2 3.1 3 3.1c1 0 1.9-.4 2.6-1.1l.4.5c-.8.8-1.7 1.3-3 1.3c-2.3 0-3.9-1.7-3.9-4.1c0-2.2 1.6-4 3.7-4zm-2.8 3.7h5.6c0-1.3-.9-3-2.8-3c-1.8 0-2.7 1.6-2.8 3z" stroke="none" fill="#000"/></g><g id="Polygon296482"><path d="m1.2 2h1.6v9.2h4.8v1.3H1.2V2zm7.2 6.7c0-2.2 1.5-4 3.8-4c2.4 0 3.9 1.8 3.9 4c0 2.2-1.5 4-3.9 4c-2.3 0-3.8-1.8-3.8-4zm6.2 0c0-1.4-.8-2.7-2.4-2.7c-1.5 0-2.3 1.3-2.3 2.7c0 1.5.8 2.8 2.3 2.8c1.6 0 2.4-1.3 2.4-2.8zm3.2-3.8h1.4v1.2c.6-.8 1.5-1.4 2.5-1.4v1.4h-.5c-.7 0-1.7.5-2 1.1v5.3h-1.4V4.9zm8.5-.2c2.4 0 3.8 1.8 3.8 4.1c-.02.03 0 .4 0 .4c0 0-6.09-.02-6.1 0c.1 1.3 1.1 2.4 2.6 2.4c.8 0 1.7-.4 2.3-.9l.7.9c-.8.7-1.9 1.1-3.1 1.1c-2.3 0-4-1.6-4-4c0-2.2 1.6-4 3.8-4zM24 8.1h4.7c0-1-.7-2.2-2.4-2.2c-1.5 0-2.2 1.2-2.3 2.2zm17-.7c0-.9-.4-1.4-1.3-1.4c-.8 0-1.5.5-1.9 1.1v5.4h-1.4s-.03-5.07 0-5.1C36.4 6.5 36 6 35 6c-.7 0-1.5.5-1.9 1.1c.05-.03 0 5.4 0 5.4h-1.4V4.9h1.4s.05 1.05 0 1.1c.4-.5 1.4-1.3 2.5-1.3c1.2 0 1.9.6 2.1 1.4c.4-.7 1.5-1.4 2.6-1.4c1.4 0 2.2.8 2.2 2.3c-.03 0 0 5.5 0 5.5H41s.04-5.07 0-5.1zm7.3-4.7c0-.5.4-.9.9-.9c.5 0 .9.4.9.9c0 .5-.4.9-.9.9c-.5 0-.9-.4-.9-.9zm.2 2.2h1.4v7.6h-1.4V4.9zm3.6 10.6V4.9h1.4s-.01 1.07 0 1.1C54 5.2 55 4.7 56 4.7c2 0 3.4 1.5 3.4 4c0 2.5-1.4 4-3.4 4c-1 0-1.9-.4-2.5-1.3v4.1h-1.4zM55.6 6c-.9 0-1.7.5-2.1 1.1v3.2c.4.6 1.2 1.2 2.1 1.2c1.4 0 2.3-1.2 2.3-2.8c0-1.6-.9-2.7-2.3-2.7zm5.5 4.5c.5.6 1.5 1.1 2.6 1.1c1 0 1.6-.4 1.6-1.1c0-.8-.9-1-1.9-1.2c-1.3-.3-2.8-.7-2.8-2.3c0-1.3 1.1-2.3 2.9-2.3c1.4 0 2.3.5 3 1.1l-.7 1c-.4-.6-1.3-1-2.2-1c-1 0-1.6.4-1.6 1c0 .7.8.9 1.8 1.2c1.3.3 2.9.6 2.9 2.4c0 1.3-1.1 2.3-3.1 2.3c-1.3 0-2.4-.4-3.2-1.2l.7-1zm12.4 1c-.6.6-1.5 1.2-2.7 1.2c-1.6 0-2.5-.8-2.5-2.4c.04-.01 0-5.4 0-5.4h1.5s-.03 4.92 0 4.9c0 1.3.6 1.7 1.6 1.7c.9 0 1.7-.5 2.1-1.1c.02-.01 0-5.5 0-5.5h1.4v7.6h-1.4s.02-1 0-1zm12.9-4.1C86.4 6.5 86 6 85 6c-.7 0-1.5.5-1.9 1.1c.04-.05 0 5.4 0 5.4h-1.4V7.4c0-.9-.4-1.4-1.3-1.4c-.8 0-1.5.5-1.9 1.1v5.4h-1.4V4.9h1.4s-.01 1.05 0 1.1c.3-.5 1.3-1.3 2.5-1.3c1.1 0 1.8.6 2 1.4c.5-.7 1.5-1.4 2.6-1.4c1.5 0 2.2.8 2.2 2.3v5.5h-1.4s-.02-5.07 0-5.1z" stroke="none" fill="#000"/></g></svg>