<?xml version="1.0" standalone="no"?><!DOCTYPE svg PUBLIC "-//W3C//DTD SVG 1.1//EN" "http://www.w3.org/Graphics/SVG/1.1/DTD/svg11.dtd"><svg xmlns="http://www.w3.org/2000/svg" version="1.1" width="51.1px" height="52px" viewBox="0 -11 51.1 52" style="top:-11px"><desc>05</desc><defs/><g id="Polygon285317"><path d="m24.5 7v13.3c0 3.4-2 4.7-5.3 4.7h-.3c-3.3 0-5.3-1.3-5.3-4.7V7c0-3.4 2-4.7 5.3-4.7h.3c3.3 0 5.3 1.3 5.3 4.7zM19 5.5c-1.1 0-1.9.5-1.9 2.1v12.2c0 1.5.8 2 1.9 2c1.2 0 1.9-.5 1.9-2V7.6c0-1.6-.7-2.1-1.9-2.1zm12 .2s-.02 5.16 0 5.2c.5-.6 1.1-1 2.6-1c2.5 0 4.3 1.2 4.3 4.6v6c0 3.3-1.9 4.5-5.3 4.5c-3.4 0-5.3-1.2-5.3-4.5v-3.7h3.5s-.01 3.28 0 3.3c0 1.5.7 1.9 1.8 1.9c1 0 1.7-.4 1.7-1.9v-5.2c0-1.6-.6-1.9-1.5-1.9c-.9 0-1.4.3-1.8 1.3l-3.6-1V2.5h10.3v3.2H31z" stroke="none" fill="#fff"/></g></svg>