<?xml version="1.0" standalone="no"?><!DOCTYPE svg PUBLIC "-//W3C//DTD SVG 1.1//EN" "http://www.w3.org/Graphics/SVG/1.1/DTD/svg11.dtd"><svg xmlns="http://www.w3.org/2000/svg" version="1.1" width="155px" height="28.3px" viewBox="0 -6 155 28.3" style="top:-6px"><desc>POPULATION (5-MILE)</desc><defs/><g id="Polygon294006"><path d="m1.2 2s4.44-.05 4.4 0C7.8 2 9 3.4 9 5.2C9 7 7.8 8.5 5.6 8.5c.04-.04-2.8 0-2.8 0v4H1.2V2zm4.2 1.3c.03.05-2.6 0-2.6 0v3.8s2.63-.03 2.6 0c1.2 0 2-.8 2-1.9c0-1.1-.8-1.9-2-1.9zm10-1.5c3.1 0 5.3 2.3 5.3 5.5c0 3.1-2.2 5.4-5.3 5.4c-3.2 0-5.3-2.3-5.3-5.4c0-3.2 2.1-5.5 5.3-5.5zm0 1.4c-2.3 0-3.7 1.7-3.7 4.1c0 2.3 1.4 4 3.7 4c2.2 0 3.7-1.7 3.7-4c0-2.4-1.5-4.1-3.7-4.1zM22.5 2s4.45-.05 4.4 0c2.2 0 3.4 1.4 3.4 3.2c0 1.8-1.2 3.3-3.4 3.3c.05-.04-2.8 0-2.8 0v4h-1.6V2zm4.2 1.3c.04.05-2.6 0-2.6 0v3.8s2.64-.03 2.6 0c1.2 0 2-.8 2-1.9c0-1.1-.8-1.9-2-1.9zM31.8 2h1.6v6.4c0 1.8 1 2.9 2.9 2.9c1.8 0 2.8-1.1 2.8-2.9V2h1.6v6.4c0 2.6-1.5 4.3-4.4 4.3c-3 0-4.5-1.7-4.5-4.3V2zm11.1 0h1.6v9.1h4.8v1.4h-6.4V2zm14.7 8.4h-5.2l-.8 2.1h-1.8L54 2h2l4.2 10.5h-1.7l-.9-2.1zm-4.7-1.5h4.3L55 3.3l-2.1 5.6zm10-5.6h-3.3V2h8.1v1.3h-3.2v9.2h-1.6V3.3zM69.2 2h1.6v10.5h-1.6V2zm8.7-.2c3.2 0 5.3 2.3 5.3 5.5c0 3.1-2.1 5.4-5.3 5.4c-3.2 0-5.3-2.3-5.3-5.4c0-3.2 2.1-5.5 5.3-5.5zm0 1.4c-2.3 0-3.7 1.7-3.7 4.1c0 2.3 1.4 4 3.7 4c2.2 0 3.7-1.7 3.7-4c0-2.4-1.5-4.1-3.7-4.1zm8.7 1.2v8.1H85V2h1.6l5.8 7.9V2h1.6v10.5h-1.5l-5.9-8.1zm13 4.3c0-2.6.9-5.1 2.3-7l.9.6c-1 2-1.6 3.8-1.6 6.4c0 2.6.6 4.4 1.6 6.3l-.9.7c-1.4-1.9-2.3-4.5-2.3-7zm5.3 1.3c.7.8 1.6 1.3 2.8 1.3c1.4 0 2.3-.9 2.3-2c0-1.3-.9-2.1-2.2-2.1c-.9 0-1.7.3-2.4.9c-.01.03-1.1-.3-1.1-.3V2h6.7v1.3h-5.2s.04 3.43 0 3.4c.5-.5 1.4-.9 2.5-.9c1.7 0 3.3 1.2 3.3 3.4c0 2.2-1.6 3.5-3.8 3.5c-1.9 0-3.1-.6-3.9-1.6l1-1.1zm7.8-1.9h3.8v1.2h-3.8V8.1zm14.4-4l-3.4 8.4h-.7l-3.4-8.4v8.4H118V2h2.3l3.1 7.6l3.1-7.6h2.2v10.5h-1.6V4.1zm3.8-2.1h1.6v10.5h-1.6V2zm3.8 0h1.6v9.1h4.8v1.4h-6.4V2zm8 0h7.1v1.3h-5.5v3.1h5.4v1.4h-5.4v3.3h5.5v1.4h-7.1V2zm8 .3l.9-.6c1.5 1.9 2.3 4.4 2.3 7c0 2.5-.8 5.1-2.3 7l-.9-.7c1.1-1.9 1.7-3.7 1.7-6.3c0-2.6-.6-4.4-1.7-6.4z" stroke="none" fill="#3797ef"/></g></svg>