<?xml version="1.0" standalone="no"?><!DOCTYPE svg PUBLIC "-//W3C//DTD SVG 1.1//EN" "http://www.w3.org/Graphics/SVG/1.1/DTD/svg11.dtd"><svg xmlns="http://www.w3.org/2000/svg" version="1.1" width="24.1px" height="65.8px" viewBox="0 -15 24.1 65.8" style="top:-15px"><desc/><defs/><g id="Polygon293816"><path d="m13.5 30.7c-.02.01 0 3.7 0 3.7H11v-3.7c-4.1-.2-7.3-1.9-9.3-4.2l2-2.6c1.6 1.8 4.1 3.5 7.3 3.8v-9.9c-4.1-1.1-8.4-2.5-8.4-7.5c0-4.2 3.5-7.2 8.4-7.5V-.9h2.5s-.02 3.8 0 3.8c3.3.3 6 1.6 8 3.7l-2.1 2.5c-1.5-1.8-3.7-2.8-5.9-3.1v8.8c4.2 1.2 8.6 2.7 8.6 8c0 3.7-2.3 7.5-8.6 7.9zM11 14.1V5.9c-2.9.1-5 1.8-5 4.2c0 2.3 2.3 3.3 5 4zm7.6 9c0-2.7-2.3-3.8-5.1-4.6v9.2c3.9-.4 5.1-2.7 5.1-4.6z" stroke="none" fill="#fff"/></g></svg>