<?xml version="1.0" standalone="no"?>
<!DOCTYPE svg PUBLIC "-//W3C//DTD SVG 1.1//EN" "http://www.w3.org/Graphics/SVG/1.1/DTD/svg11.dtd">
<svg xmlns="http://www.w3.org/2000/svg" version="1.1" width="184px" height="268.5px" viewBox="0 -10 184 268.5" style="top:-10px">
  <desc>Lorem Ipsum Lorem Ipsum Lorem Ipsum Lorem Ipsum Lorem Ipsum Lorem Ipsum Lorem Ipsum Lorem Ipsum</desc>
  <defs/>
  <g id="Polygon239550">
    <path d="M 9.7 244.4 L 1.4 244.4 L 1.4 224.6 L 4.7 224.6 L 4.7 241.4 L 9.7 241.4 L 9.7 244.4 Z M 16.1 224.4 C 16.1 224.4 16.3 224.4 16.3 224.4 C 19.3 224.4 21.3 225.6 21.3 228.6 C 21.3 228.6 21.3 240.4 21.3 240.4 C 21.3 243.4 19.3 244.6 16.3 244.6 C 16.3 244.6 16.1 244.6 16.1 244.6 C 13.1 244.6 11.1 243.4 11.1 240.4 C 11.1 240.4 11.1 228.6 11.1 228.6 C 11.1 225.5 13.1 224.4 16.1 224.4 Z M 16.2 241.7 C 17.3 241.7 18 241.3 18 239.9 C 18 239.9 18 229.1 18 229.1 C 18 227.7 17.3 227.3 16.2 227.3 C 15.1 227.3 14.4 227.7 14.4 229.1 C 14.4 229.1 14.4 239.9 14.4 239.9 C 14.4 241.3 15.1 241.7 16.2 241.7 Z M 31.1 244.4 L 28.6 236.5 L 27 236.5 L 27 244.4 L 23.7 244.4 L 23.7 224.6 C 23.7 224.6 28.8 224.61 28.8 224.6 C 31.8 224.6 33.8 225.8 33.8 228.8 C 33.8 228.8 33.8 232.3 33.8 232.3 C 33.8 234.2 33 235.4 31.6 236 C 31.62 235.99 34.4 244.4 34.4 244.4 L 31.1 244.4 Z M 27 233.7 C 27 233.7 28.69 233.68 28.7 233.7 C 29.8 233.7 30.5 233.3 30.5 231.9 C 30.5 231.9 30.5 229.3 30.5 229.3 C 30.5 227.9 29.8 227.5 28.7 227.5 C 28.69 227.49 27 227.5 27 227.5 L 27 233.7 Z M 36.1 244.4 L 36.1 224.6 L 44.8 224.6 L 44.8 227.5 L 39.4 227.5 L 39.4 232.9 L 43.9 232.9 L 43.9 235.8 L 39.4 235.8 L 39.4 241.5 L 44.9 241.5 L 44.9 244.4 L 36.1 244.4 Z M 54.8 241.5 L 52.9 241.5 L 50 232.3 L 50 244.4 L 46.9 244.4 L 46.9 224.6 L 50 224.6 L 53.8 236.1 L 57.7 224.6 L 60.9 224.6 L 60.9 244.4 L 57.7 244.4 L 57.7 232.3 L 54.8 241.5 Z M 67.8 244.4 L 67.8 224.6 L 71.1 224.6 L 71.1 244.4 L 67.8 244.4 Z M 83.8 228.8 C 83.8 228.8 83.8 232.5 83.8 232.5 C 83.8 235.5 81.8 236.7 78.8 236.7 C 78.83 236.72 77 236.7 77 236.7 L 77 244.4 L 73.7 244.4 L 73.7 224.6 C 73.7 224.6 78.83 224.61 78.8 224.6 C 81.8 224.6 83.8 225.8 83.8 228.8 Z M 80.5 229.3 C 80.5 227.9 79.8 227.5 78.7 227.5 C 78.72 227.49 77 227.5 77 227.5 L 77 233.8 C 77 233.8 78.72 233.84 78.7 233.8 C 79.8 233.8 80.5 233.4 80.5 232 C 80.5 232 80.5 229.3 80.5 229.3 Z M 91.8 231.7 C 91.8 231.7 91.76 228.9 91.8 228.9 C 91.8 227.7 91.1 227.2 90.1 227.2 C 89.1 227.2 88.4 227.7 88.4 228.9 C 88.4 228.9 88.4 230.3 88.4 230.3 C 88.4 231.3 88.8 231.7 89.7 232.3 C 89.7 232.3 92 233.6 92 233.6 C 93.9 234.6 95 235.5 95 237.6 C 95 237.6 95 240.5 95 240.5 C 95 243.5 93.1 244.6 90.2 244.6 C 90.2 244.6 90.1 244.6 90.1 244.6 C 87.1 244.6 85.2 243.6 85.2 240.5 C 85.21 240.48 85.2 237 85.2 237 L 88.4 237 C 88.4 237 88.43 240.03 88.4 240 C 88.4 241.2 89.1 241.8 90.1 241.8 C 91.1 241.8 91.8 241.2 91.8 240 C 91.8 240 91.8 238.5 91.8 238.5 C 91.8 237.5 91.5 237 90.5 236.4 C 90.5 236.4 88.2 235.1 88.2 235.1 C 86.3 234 85.2 233.1 85.2 231 C 85.2 231 85.2 228.5 85.2 228.5 C 85.2 225.5 87.4 224.4 90.1 224.4 C 90.1 224.4 90.1 224.4 90.1 224.4 C 92.8 224.4 95 225.5 95 228.5 C 94.98 228.45 95 231.7 95 231.7 L 91.8 231.7 Z M 107 240.4 C 107 243.5 105.1 244.6 102.1 244.6 C 102.1 244.6 102 244.6 102 244.6 C 99 244.6 97.1 243.5 97.1 240.4 C 97.07 240.42 97.1 224.6 97.1 224.6 L 100.3 224.6 C 100.3 224.6 100.35 239.92 100.3 239.9 C 100.3 241.3 101 241.7 102 241.7 C 103.1 241.7 103.7 241.3 103.7 239.9 C 103.74 239.92 103.7 224.6 103.7 224.6 L 107 224.6 C 107 224.6 107.01 240.42 107 240.4 Z M 117.3 241.5 L 115.5 241.5 L 112.5 232.3 L 112.5 244.4 L 109.5 244.4 L 109.5 224.6 L 112.6 224.6 L 116.4 236.1 L 120.3 224.6 L 123.5 224.6 L 123.5 244.4 L 120.3 244.4 L 120.3 232.3 L 117.3 241.5 Z " stroke="none" fill="#242423"/>
  </g>
  <g id="Polygon239549">
    <path d="M 9.7 212.6 L 1.4 212.6 L 1.4 192.8 L 4.7 192.8 L 4.7 209.7 L 9.7 209.7 L 9.7 212.6 Z M 16.1 192.6 C 16.1 192.6 16.3 192.6 16.3 192.6 C 19.3 192.6 21.3 193.8 21.3 196.8 C 21.3 196.8 21.3 208.7 21.3 208.7 C 21.3 211.7 19.3 212.8 16.3 212.8 C 16.3 212.8 16.1 212.8 16.1 212.8 C 13.1 212.8 11.1 211.7 11.1 208.7 C 11.1 208.7 11.1 196.8 11.1 196.8 C 11.1 193.8 13.1 192.6 16.1 192.6 Z M 16.2 210 C 17.3 210 18 209.6 18 208.2 C 18 208.2 18 197.3 18 197.3 C 18 195.9 17.3 195.5 16.2 195.5 C 15.1 195.5 14.4 195.9 14.4 197.3 C 14.4 197.3 14.4 208.2 14.4 208.2 C 14.4 209.6 15.1 210 16.2 210 Z M 31.1 212.6 L 28.6 204.7 L 27 204.7 L 27 212.6 L 23.7 212.6 L 23.7 192.8 C 23.7 192.8 28.8 192.85 28.8 192.8 C 31.8 192.8 33.8 194 33.8 197 C 33.8 197 33.8 200.6 33.8 200.6 C 33.8 202.4 33 203.6 31.6 204.2 C 31.62 204.23 34.4 212.6 34.4 212.6 L 31.1 212.6 Z M 27 201.9 C 27 201.9 28.69 201.91 28.7 201.9 C 29.8 201.9 30.5 201.5 30.5 200.1 C 30.5 200.1 30.5 197.5 30.5 197.5 C 30.5 196.1 29.8 195.7 28.7 195.7 C 28.69 195.73 27 195.7 27 195.7 L 27 201.9 Z M 36.1 212.6 L 36.1 192.8 L 44.8 192.8 L 44.8 195.7 L 39.4 195.7 L 39.4 201.1 L 43.9 201.1 L 43.9 204 L 39.4 204 L 39.4 209.7 L 44.9 209.7 L 44.9 212.6 L 36.1 212.6 Z M 54.8 209.7 L 52.9 209.7 L 50 200.5 L 50 212.6 L 46.9 212.6 L 46.9 192.8 L 50 192.8 L 53.8 204.3 L 57.7 192.8 L 60.9 192.8 L 60.9 212.6 L 57.7 212.6 L 57.7 200.5 L 54.8 209.7 Z M 67.8 212.6 L 67.8 192.8 L 71.1 192.8 L 71.1 212.6 L 67.8 212.6 Z M 83.8 197 C 83.8 197 83.8 200.8 83.8 200.8 C 83.8 203.8 81.8 205 78.8 205 C 78.83 204.96 77 205 77 205 L 77 212.6 L 73.7 212.6 L 73.7 192.8 C 73.7 192.8 78.83 192.85 78.8 192.8 C 81.8 192.8 83.8 194 83.8 197 Z M 80.5 197.5 C 80.5 196.1 79.8 195.7 78.7 195.7 C 78.72 195.73 77 195.7 77 195.7 L 77 202.1 C 77 202.1 78.72 202.08 78.7 202.1 C 79.8 202.1 80.5 201.7 80.5 200.3 C 80.5 200.3 80.5 197.5 80.5 197.5 Z M 91.8 199.9 C 91.8 199.9 91.76 197.14 91.8 197.1 C 91.8 195.9 91.1 195.4 90.1 195.4 C 89.1 195.4 88.4 195.9 88.4 197.1 C 88.4 197.1 88.4 198.5 88.4 198.5 C 88.4 199.5 88.8 200 89.7 200.5 C 89.7 200.5 92 201.8 92 201.8 C 93.9 202.9 95 203.7 95 205.9 C 95 205.9 95 208.7 95 208.7 C 95 211.8 93.1 212.8 90.2 212.8 C 90.2 212.8 90.1 212.8 90.1 212.8 C 87.1 212.8 85.2 211.8 85.2 208.7 C 85.21 208.72 85.2 205.3 85.2 205.3 L 88.4 205.3 C 88.4 205.3 88.43 208.26 88.4 208.3 C 88.4 209.5 89.1 210 90.1 210 C 91.1 210 91.8 209.5 91.8 208.3 C 91.8 208.3 91.8 206.7 91.8 206.7 C 91.8 205.7 91.5 205.2 90.5 204.6 C 90.5 204.6 88.2 203.4 88.2 203.4 C 86.3 202.2 85.2 201.3 85.2 199.3 C 85.2 199.3 85.2 196.7 85.2 196.7 C 85.2 193.8 87.4 192.6 90.1 192.6 C 90.1 192.6 90.1 192.6 90.1 192.6 C 92.8 192.6 95 193.8 95 196.7 C 94.98 196.69 95 199.9 95 199.9 L 91.8 199.9 Z M 107 208.7 C 107 211.7 105.1 212.8 102.1 212.8 C 102.1 212.8 102 212.8 102 212.8 C 99 212.8 97.1 211.7 97.1 208.7 C 97.07 208.66 97.1 192.8 97.1 192.8 L 100.3 192.8 C 100.3 192.8 100.35 208.15 100.3 208.2 C 100.3 209.6 101 210 102 210 C 103.1 210 103.7 209.6 103.7 208.2 C 103.74 208.15 103.7 192.8 103.7 192.8 L 107 192.8 C 107 192.8 107.01 208.66 107 208.7 Z M 117.3 209.7 L 115.5 209.7 L 112.5 200.5 L 112.5 212.6 L 109.5 212.6 L 109.5 192.8 L 112.6 192.8 L 116.4 204.3 L 120.3 192.8 L 123.5 192.8 L 123.5 212.6 L 120.3 212.6 L 120.3 200.5 L 117.3 209.7 Z " stroke="none" fill="#242423"/>
  </g>
  <g id="Polygon239548">
    <path d="M 9.7 180.8 L 1.4 180.8 L 1.4 161.1 L 4.7 161.1 L 4.7 177.9 L 9.7 177.9 L 9.7 180.8 Z M 16.1 160.9 C 16.1 160.9 16.3 160.9 16.3 160.9 C 19.3 160.9 21.3 162 21.3 165 C 21.3 165 21.3 176.9 21.3 176.9 C 21.3 179.9 19.3 181.1 16.3 181.1 C 16.3 181.1 16.1 181.1 16.1 181.1 C 13.1 181.1 11.1 179.9 11.1 176.9 C 11.1 176.9 11.1 165 11.1 165 C 11.1 162 13.1 160.9 16.1 160.9 Z M 16.2 178.2 C 17.3 178.2 18 177.8 18 176.4 C 18 176.4 18 165.5 18 165.5 C 18 164.1 17.3 163.7 16.2 163.7 C 15.1 163.7 14.4 164.1 14.4 165.5 C 14.4 165.5 14.4 176.4 14.4 176.4 C 14.4 177.8 15.1 178.2 16.2 178.2 Z M 31.1 180.8 L 28.6 173 L 27 173 L 27 180.8 L 23.7 180.8 L 23.7 161.1 C 23.7 161.1 28.8 161.08 28.8 161.1 C 31.8 161.1 33.8 162.3 33.8 165.3 C 33.8 165.3 33.8 168.8 33.8 168.8 C 33.8 170.7 33 171.9 31.6 172.5 C 31.62 172.46 34.4 180.8 34.4 180.8 L 31.1 180.8 Z M 27 170.1 C 27 170.1 28.69 170.15 28.7 170.1 C 29.8 170.1 30.5 169.8 30.5 168.3 C 30.5 168.3 30.5 165.8 30.5 165.8 C 30.5 164.4 29.8 164 28.7 164 C 28.69 163.96 27 164 27 164 L 27 170.1 Z M 36.1 180.8 L 36.1 161.1 L 44.8 161.1 L 44.8 164 L 39.4 164 L 39.4 169.4 L 43.9 169.4 L 43.9 172.3 L 39.4 172.3 L 39.4 178 L 44.9 178 L 44.9 180.8 L 36.1 180.8 Z M 54.8 178 L 52.9 178 L 50 168.8 L 50 180.8 L 46.9 180.8 L 46.9 161.1 L 50 161.1 L 53.8 172.6 L 57.7 161.1 L 60.9 161.1 L 60.9 180.8 L 57.7 180.8 L 57.7 168.8 L 54.8 178 Z M 67.8 180.8 L 67.8 161.1 L 71.1 161.1 L 71.1 180.8 L 67.8 180.8 Z M 83.8 165.3 C 83.8 165.3 83.8 169 83.8 169 C 83.8 172 81.8 173.2 78.8 173.2 C 78.83 173.2 77 173.2 77 173.2 L 77 180.8 L 73.7 180.8 L 73.7 161.1 C 73.7 161.1 78.83 161.08 78.8 161.1 C 81.8 161.1 83.8 162.3 83.8 165.3 Z M 80.5 165.8 C 80.5 164.4 79.8 164 78.7 164 C 78.72 163.96 77 164 77 164 L 77 170.3 C 77 170.3 78.72 170.32 78.7 170.3 C 79.8 170.3 80.5 169.9 80.5 168.5 C 80.5 168.5 80.5 165.8 80.5 165.8 Z M 91.8 168.1 C 91.8 168.1 91.76 165.37 91.8 165.4 C 91.8 164.1 91.1 163.7 90.1 163.7 C 89.1 163.7 88.4 164.1 88.4 165.4 C 88.4 165.4 88.4 166.7 88.4 166.7 C 88.4 167.7 88.8 168.2 89.7 168.7 C 89.7 168.7 92 170 92 170 C 93.9 171.1 95 172 95 174.1 C 95 174.1 95 177 95 177 C 95 180 93.1 181.1 90.2 181.1 C 90.2 181.1 90.1 181.1 90.1 181.1 C 87.1 181.1 85.2 180 85.2 177 C 85.21 176.95 85.2 173.5 85.2 173.5 L 88.4 173.5 C 88.4 173.5 88.43 176.5 88.4 176.5 C 88.4 177.7 89.1 178.2 90.1 178.2 C 91.1 178.2 91.8 177.7 91.8 176.5 C 91.8 176.5 91.8 174.9 91.8 174.9 C 91.8 173.9 91.5 173.4 90.5 172.9 C 90.5 172.9 88.2 171.6 88.2 171.6 C 86.3 170.5 85.2 169.6 85.2 167.5 C 85.2 167.5 85.2 164.9 85.2 164.9 C 85.2 162 87.4 160.9 90.1 160.9 C 90.1 160.9 90.1 160.9 90.1 160.9 C 92.8 160.9 95 162 95 164.9 C 94.98 164.92 95 168.1 95 168.1 L 91.8 168.1 Z M 107 176.9 C 107 179.9 105.1 181.1 102.1 181.1 C 102.1 181.1 102 181.1 102 181.1 C 99 181.1 97.1 180 97.1 176.9 C 97.07 176.89 97.1 161.1 97.1 161.1 L 100.3 161.1 C 100.3 161.1 100.35 176.39 100.3 176.4 C 100.3 177.8 101 178.2 102 178.2 C 103.1 178.2 103.7 177.8 103.7 176.4 C 103.74 176.39 103.7 161.1 103.7 161.1 L 107 161.1 C 107 161.1 107.01 176.89 107 176.9 Z M 117.3 178 L 115.5 178 L 112.5 168.8 L 112.5 180.8 L 109.5 180.8 L 109.5 161.1 L 112.6 161.1 L 116.4 172.6 L 120.3 161.1 L 123.5 161.1 L 123.5 180.8 L 120.3 180.8 L 120.3 168.8 L 117.3 178 Z " stroke="none" fill="#242423"/>
  </g>
  <g id="Polygon239547">
    <path d="M 9.7 149.1 L 1.4 149.1 L 1.4 129.3 L 4.7 129.3 L 4.7 146.1 L 9.7 146.1 L 9.7 149.1 Z M 16.1 129.1 C 16.1 129.1 16.3 129.1 16.3 129.1 C 19.3 129.1 21.3 130.3 21.3 133.3 C 21.3 133.3 21.3 145.1 21.3 145.1 C 21.3 148.1 19.3 149.3 16.3 149.3 C 16.3 149.3 16.1 149.3 16.1 149.3 C 13.1 149.3 11.1 148.1 11.1 145.1 C 11.1 145.1 11.1 133.3 11.1 133.3 C 11.1 130.2 13.1 129.1 16.1 129.1 Z M 16.2 146.4 C 17.3 146.4 18 146 18 144.6 C 18 144.6 18 133.8 18 133.8 C 18 132.4 17.3 132 16.2 132 C 15.1 132 14.4 132.4 14.4 133.8 C 14.4 133.8 14.4 144.6 14.4 144.6 C 14.4 146 15.1 146.4 16.2 146.4 Z M 31.1 149.1 L 28.6 141.2 L 27 141.2 L 27 149.1 L 23.7 149.1 L 23.7 129.3 C 23.7 129.3 28.8 129.32 28.8 129.3 C 31.8 129.3 33.8 130.5 33.8 133.5 C 33.8 133.5 33.8 137 33.8 137 C 33.8 138.9 33 140.1 31.6 140.7 C 31.62 140.7 34.4 149.1 34.4 149.1 L 31.1 149.1 Z M 27 138.4 C 27 138.4 28.69 138.38 28.7 138.4 C 29.8 138.4 30.5 138 30.5 136.6 C 30.5 136.6 30.5 134 30.5 134 C 30.5 132.6 29.8 132.2 28.7 132.2 C 28.69 132.2 27 132.2 27 132.2 L 27 138.4 Z M 36.1 149.1 L 36.1 129.3 L 44.8 129.3 L 44.8 132.2 L 39.4 132.2 L 39.4 137.6 L 43.9 137.6 L 43.9 140.5 L 39.4 140.5 L 39.4 146.2 L 44.9 146.2 L 44.9 149.1 L 36.1 149.1 Z M 54.8 146.2 L 52.9 146.2 L 50 137 L 50 149.1 L 46.9 149.1 L 46.9 129.3 L 50 129.3 L 53.8 140.8 L 57.7 129.3 L 60.9 129.3 L 60.9 149.1 L 57.7 149.1 L 57.7 137 L 54.8 146.2 Z M 67.8 149.1 L 67.8 129.3 L 71.1 129.3 L 71.1 149.1 L 67.8 149.1 Z M 83.8 133.5 C 83.8 133.5 83.8 137.3 83.8 137.3 C 83.8 140.2 81.8 141.4 78.8 141.4 C 78.83 141.43 77 141.4 77 141.4 L 77 149.1 L 73.7 149.1 L 73.7 129.3 C 73.7 129.3 78.83 129.32 78.8 129.3 C 81.8 129.3 83.8 130.5 83.8 133.5 Z M 80.5 134 C 80.5 132.6 79.8 132.2 78.7 132.2 C 78.72 132.2 77 132.2 77 132.2 L 77 138.6 C 77 138.6 78.72 138.55 78.7 138.6 C 79.8 138.6 80.5 138.2 80.5 136.7 C 80.5 136.7 80.5 134 80.5 134 Z M 91.8 136.4 C 91.8 136.4 91.76 133.61 91.8 133.6 C 91.8 132.4 91.1 131.9 90.1 131.9 C 89.1 131.9 88.4 132.4 88.4 133.6 C 88.4 133.6 88.4 135 88.4 135 C 88.4 136 88.8 136.4 89.7 137 C 89.7 137 92 138.3 92 138.3 C 93.9 139.3 95 140.2 95 142.3 C 95 142.3 95 145.2 95 145.2 C 95 148.2 93.1 149.3 90.2 149.3 C 90.2 149.3 90.1 149.3 90.1 149.3 C 87.1 149.3 85.2 148.3 85.2 145.2 C 85.21 145.19 85.2 141.7 85.2 141.7 L 88.4 141.7 C 88.4 141.7 88.43 144.73 88.4 144.7 C 88.4 145.9 89.1 146.5 90.1 146.5 C 91.1 146.5 91.8 145.9 91.8 144.7 C 91.8 144.7 91.8 143.2 91.8 143.2 C 91.8 142.2 91.5 141.7 90.5 141.1 C 90.5 141.1 88.2 139.8 88.2 139.8 C 86.3 138.7 85.2 137.8 85.2 135.8 C 85.2 135.8 85.2 133.2 85.2 133.2 C 85.2 130.2 87.4 129.1 90.1 129.1 C 90.1 129.1 90.1 129.1 90.1 129.1 C 92.8 129.1 95 130.2 95 133.2 C 94.98 133.16 95 136.4 95 136.4 L 91.8 136.4 Z M 107 145.1 C 107 148.2 105.1 149.3 102.1 149.3 C 102.1 149.3 102 149.3 102 149.3 C 99 149.3 97.1 148.2 97.1 145.1 C 97.07 145.13 97.1 129.3 97.1 129.3 L 100.3 129.3 C 100.3 129.3 100.35 144.62 100.3 144.6 C 100.3 146 101 146.4 102 146.4 C 103.1 146.4 103.7 146 103.7 144.6 C 103.74 144.62 103.7 129.3 103.7 129.3 L 107 129.3 C 107 129.3 107.01 145.13 107 145.1 Z M 117.3 146.2 L 115.5 146.2 L 112.5 137 L 112.5 149.1 L 109.5 149.1 L 109.5 129.3 L 112.6 129.3 L 116.4 140.8 L 120.3 129.3 L 123.5 129.3 L 123.5 149.1 L 120.3 149.1 L 120.3 137 L 117.3 146.2 Z " stroke="none" fill="#242423"/>
  </g>
  <g id="Polygon239546">
    <path d="M 9.7 117.3 L 1.4 117.3 L 1.4 97.6 L 4.7 97.6 L 4.7 114.4 L 9.7 114.4 L 9.7 117.3 Z M 16.1 97.3 C 16.1 97.3 16.3 97.3 16.3 97.3 C 19.3 97.3 21.3 98.5 21.3 101.5 C 21.3 101.5 21.3 113.4 21.3 113.4 C 21.3 116.4 19.3 117.5 16.3 117.5 C 16.3 117.5 16.1 117.5 16.1 117.5 C 13.1 117.5 11.1 116.4 11.1 113.4 C 11.1 113.4 11.1 101.5 11.1 101.5 C 11.1 98.5 13.1 97.3 16.1 97.3 Z M 16.2 114.7 C 17.3 114.7 18 114.3 18 112.9 C 18 112.9 18 102 18 102 C 18 100.6 17.3 100.2 16.2 100.2 C 15.1 100.2 14.4 100.6 14.4 102 C 14.4 102 14.4 112.9 14.4 112.9 C 14.4 114.3 15.1 114.7 16.2 114.7 Z M 31.1 117.3 L 28.6 109.4 L 27 109.4 L 27 117.3 L 23.7 117.3 L 23.7 97.6 C 23.7 97.6 28.8 97.55 28.8 97.6 C 31.8 97.6 33.8 98.7 33.8 101.7 C 33.8 101.7 33.8 105.3 33.8 105.3 C 33.8 107.2 33 108.3 31.6 108.9 C 31.62 108.93 34.4 117.3 34.4 117.3 L 31.1 117.3 Z M 27 106.6 C 27 106.6 28.69 106.62 28.7 106.6 C 29.8 106.6 30.5 106.2 30.5 104.8 C 30.5 104.8 30.5 102.2 30.5 102.2 C 30.5 100.8 29.8 100.4 28.7 100.4 C 28.69 100.43 27 100.4 27 100.4 L 27 106.6 Z M 36.1 117.3 L 36.1 97.6 L 44.8 97.6 L 44.8 100.4 L 39.4 100.4 L 39.4 105.9 L 43.9 105.9 L 43.9 108.7 L 39.4 108.7 L 39.4 114.4 L 44.9 114.4 L 44.9 117.3 L 36.1 117.3 Z M 54.8 114.4 L 52.9 114.4 L 50 105.2 L 50 117.3 L 46.9 117.3 L 46.9 97.6 L 50 97.6 L 53.8 109 L 57.7 97.6 L 60.9 97.6 L 60.9 117.3 L 57.7 117.3 L 57.7 105.2 L 54.8 114.4 Z M 67.8 117.3 L 67.8 97.6 L 71.1 97.6 L 71.1 117.3 L 67.8 117.3 Z M 83.8 101.7 C 83.8 101.7 83.8 105.5 83.8 105.5 C 83.8 108.5 81.8 109.7 78.8 109.7 C 78.83 109.67 77 109.7 77 109.7 L 77 117.3 L 73.7 117.3 L 73.7 97.6 C 73.7 97.6 78.83 97.55 78.8 97.6 C 81.8 97.6 83.8 98.7 83.8 101.7 Z M 80.5 102.2 C 80.5 100.8 79.8 100.4 78.7 100.4 C 78.72 100.43 77 100.4 77 100.4 L 77 106.8 C 77 106.8 78.72 106.79 78.7 106.8 C 79.8 106.8 80.5 106.4 80.5 105 C 80.5 105 80.5 102.2 80.5 102.2 Z M 91.8 104.6 C 91.8 104.6 91.76 101.84 91.8 101.8 C 91.8 100.6 91.1 100.2 90.1 100.2 C 89.1 100.2 88.4 100.6 88.4 101.8 C 88.4 101.8 88.4 103.2 88.4 103.2 C 88.4 104.2 88.8 104.7 89.7 105.2 C 89.7 105.2 92 106.5 92 106.5 C 93.9 107.6 95 108.5 95 110.6 C 95 110.6 95 113.4 95 113.4 C 95 116.5 93.1 117.5 90.2 117.5 C 90.2 117.5 90.1 117.5 90.1 117.5 C 87.1 117.5 85.2 116.5 85.2 113.4 C 85.21 113.42 85.2 110 85.2 110 L 88.4 110 C 88.4 110 88.43 112.97 88.4 113 C 88.4 114.2 89.1 114.7 90.1 114.7 C 91.1 114.7 91.8 114.2 91.8 113 C 91.8 113 91.8 111.4 91.8 111.4 C 91.8 110.4 91.5 109.9 90.5 109.4 C 90.5 109.4 88.2 108.1 88.2 108.1 C 86.3 107 85.2 106.1 85.2 104 C 85.2 104 85.2 101.4 85.2 101.4 C 85.2 98.5 87.4 97.3 90.1 97.3 C 90.1 97.3 90.1 97.3 90.1 97.3 C 92.8 97.3 95 98.5 95 101.4 C 94.98 101.39 95 104.6 95 104.6 L 91.8 104.6 Z M 107 113.4 C 107 116.4 105.1 117.5 102.1 117.5 C 102.1 117.5 102 117.5 102 117.5 C 99 117.5 97.1 116.4 97.1 113.4 C 97.07 113.36 97.1 97.6 97.1 97.6 L 100.3 97.6 C 100.3 97.6 100.35 112.86 100.3 112.9 C 100.3 114.3 101 114.7 102 114.7 C 103.1 114.7 103.7 114.3 103.7 112.9 C 103.74 112.86 103.7 97.6 103.7 97.6 L 107 97.6 C 107 97.6 107.01 113.36 107 113.4 Z M 117.3 114.4 L 115.5 114.4 L 112.5 105.2 L 112.5 117.3 L 109.5 117.3 L 109.5 97.6 L 112.6 97.6 L 116.4 109 L 120.3 97.6 L 123.5 97.6 L 123.5 117.3 L 120.3 117.3 L 120.3 105.2 L 117.3 114.4 Z " stroke="none" fill="#242423"/>
  </g>
  <g id="Polygon239545">
    <path d="M 9.7 85.6 L 1.4 85.6 L 1.4 65.8 L 4.7 65.8 L 4.7 82.6 L 9.7 82.6 L 9.7 85.6 Z M 16.1 65.6 C 16.1 65.6 16.3 65.6 16.3 65.6 C 19.3 65.6 21.3 66.7 21.3 69.7 C 21.3 69.7 21.3 81.6 21.3 81.6 C 21.3 84.6 19.3 85.8 16.3 85.8 C 16.3 85.8 16.1 85.8 16.1 85.8 C 13.1 85.8 11.1 84.6 11.1 81.6 C 11.1 81.6 11.1 69.7 11.1 69.7 C 11.1 66.7 13.1 65.6 16.1 65.6 Z M 16.2 82.9 C 17.3 82.9 18 82.5 18 81.1 C 18 81.1 18 70.2 18 70.2 C 18 68.8 17.3 68.4 16.2 68.4 C 15.1 68.4 14.4 68.8 14.4 70.2 C 14.4 70.2 14.4 81.1 14.4 81.1 C 14.4 82.5 15.1 82.9 16.2 82.9 Z M 31.1 85.6 L 28.6 77.7 L 27 77.7 L 27 85.6 L 23.7 85.6 L 23.7 65.8 C 23.7 65.8 28.8 65.79 28.8 65.8 C 31.8 65.8 33.8 67 33.8 70 C 33.8 70 33.8 73.5 33.8 73.5 C 33.8 75.4 33 76.6 31.6 77.2 C 31.62 77.17 34.4 85.6 34.4 85.6 L 31.1 85.6 Z M 27 74.9 C 27 74.9 28.69 74.85 28.7 74.9 C 29.8 74.9 30.5 74.5 30.5 73 C 30.5 73 30.5 70.5 30.5 70.5 C 30.5 69.1 29.8 68.7 28.7 68.7 C 28.69 68.67 27 68.7 27 68.7 L 27 74.9 Z M 36.1 85.6 L 36.1 65.8 L 44.8 65.8 L 44.8 68.7 L 39.4 68.7 L 39.4 74.1 L 43.9 74.1 L 43.9 77 L 39.4 77 L 39.4 82.7 L 44.9 82.7 L 44.9 85.6 L 36.1 85.6 Z M 54.8 82.7 L 52.9 82.7 L 50 73.5 L 50 85.6 L 46.9 85.6 L 46.9 65.8 L 50 65.8 L 53.8 77.3 L 57.7 65.8 L 60.9 65.8 L 60.9 85.6 L 57.7 85.6 L 57.7 73.5 L 54.8 82.7 Z M 67.8 85.6 L 67.8 65.8 L 71.1 65.8 L 71.1 85.6 L 67.8 85.6 Z M 83.8 70 C 83.8 70 83.8 73.7 83.8 73.7 C 83.8 76.7 81.8 77.9 78.8 77.9 C 78.83 77.9 77 77.9 77 77.9 L 77 85.6 L 73.7 85.6 L 73.7 65.8 C 73.7 65.8 78.83 65.79 78.8 65.8 C 81.8 65.8 83.8 67 83.8 70 Z M 80.5 70.5 C 80.5 69.1 79.8 68.7 78.7 68.7 C 78.72 68.67 77 68.7 77 68.7 L 77 75 C 77 75 78.72 75.02 78.7 75 C 79.8 75 80.5 74.6 80.5 73.2 C 80.5 73.2 80.5 70.5 80.5 70.5 Z M 91.8 72.8 C 91.8 72.8 91.76 70.08 91.8 70.1 C 91.8 68.8 91.1 68.4 90.1 68.4 C 89.1 68.4 88.4 68.8 88.4 70.1 C 88.4 70.1 88.4 71.4 88.4 71.4 C 88.4 72.5 88.8 72.9 89.7 73.4 C 89.7 73.4 92 74.7 92 74.7 C 93.9 75.8 95 76.7 95 78.8 C 95 78.8 95 81.7 95 81.7 C 95 84.7 93.1 85.8 90.2 85.8 C 90.2 85.8 90.1 85.8 90.1 85.8 C 87.1 85.8 85.2 84.7 85.2 81.7 C 85.21 81.66 85.2 78.2 85.2 78.2 L 88.4 78.2 C 88.4 78.2 88.43 81.2 88.4 81.2 C 88.4 82.4 89.1 83 90.1 83 C 91.1 83 91.8 82.4 91.8 81.2 C 91.8 81.2 91.8 79.7 91.8 79.7 C 91.8 78.6 91.5 78.1 90.5 77.6 C 90.5 77.6 88.2 76.3 88.2 76.3 C 86.3 75.2 85.2 74.3 85.2 72.2 C 85.2 72.2 85.2 69.6 85.2 69.6 C 85.2 66.7 87.4 65.6 90.1 65.6 C 90.1 65.6 90.1 65.6 90.1 65.6 C 92.8 65.6 95 66.7 95 69.6 C 94.98 69.63 95 72.8 95 72.8 L 91.8 72.8 Z M 107 81.6 C 107 84.6 105.1 85.8 102.1 85.8 C 102.1 85.8 102 85.8 102 85.8 C 99 85.8 97.1 84.7 97.1 81.6 C 97.07 81.6 97.1 65.8 97.1 65.8 L 100.3 65.8 C 100.3 65.8 100.35 81.09 100.3 81.1 C 100.3 82.5 101 82.9 102 82.9 C 103.1 82.9 103.7 82.5 103.7 81.1 C 103.74 81.09 103.7 65.8 103.7 65.8 L 107 65.8 C 107 65.8 107.01 81.6 107 81.6 Z M 117.3 82.7 L 115.5 82.7 L 112.5 73.5 L 112.5 85.6 L 109.5 85.6 L 109.5 65.8 L 112.6 65.8 L 116.4 77.3 L 120.3 65.8 L 123.5 65.8 L 123.5 85.6 L 120.3 85.6 L 120.3 73.5 L 117.3 82.7 Z " stroke="none" fill="#242423"/>
  </g>
  <g id="Polygon239544">
    <path d="M 9.7 53.8 L 1.4 53.8 L 1.4 34 L 4.7 34 L 4.7 50.9 L 9.7 50.9 L 9.7 53.8 Z M 16.1 33.8 C 16.1 33.8 16.3 33.8 16.3 33.8 C 19.3 33.8 21.3 35 21.3 38 C 21.3 38 21.3 49.8 21.3 49.8 C 21.3 52.8 19.3 54 16.3 54 C 16.3 54 16.1 54 16.1 54 C 13.1 54 11.1 52.8 11.1 49.8 C 11.1 49.8 11.1 38 11.1 38 C 11.1 35 13.1 33.8 16.1 33.8 Z M 16.2 51.1 C 17.3 51.1 18 50.7 18 49.3 C 18 49.3 18 38.5 18 38.5 C 18 37.1 17.3 36.7 16.2 36.7 C 15.1 36.7 14.4 37.1 14.4 38.5 C 14.4 38.5 14.4 49.3 14.4 49.3 C 14.4 50.7 15.1 51.1 16.2 51.1 Z M 31.1 53.8 L 28.6 45.9 L 27 45.9 L 27 53.8 L 23.7 53.8 L 23.7 34 C 23.7 34 28.8 34.02 28.8 34 C 31.8 34 33.8 35.2 33.8 38.2 C 33.8 38.2 33.8 41.7 33.8 41.7 C 33.8 43.6 33 44.8 31.6 45.4 C 31.62 45.4 34.4 53.8 34.4 53.8 L 31.1 53.8 Z M 27 43.1 C 27 43.1 28.69 43.09 28.7 43.1 C 29.8 43.1 30.5 42.7 30.5 41.3 C 30.5 41.3 30.5 38.7 30.5 38.7 C 30.5 37.3 29.8 36.9 28.7 36.9 C 28.69 36.9 27 36.9 27 36.9 L 27 43.1 Z M 36.1 53.8 L 36.1 34 L 44.8 34 L 44.8 36.9 L 39.4 36.9 L 39.4 42.3 L 43.9 42.3 L 43.9 45.2 L 39.4 45.2 L 39.4 50.9 L 44.9 50.9 L 44.9 53.8 L 36.1 53.8 Z M 54.8 50.9 L 52.9 50.9 L 50 41.7 L 50 53.8 L 46.9 53.8 L 46.9 34 L 50 34 L 53.8 45.5 L 57.7 34 L 60.9 34 L 60.9 53.8 L 57.7 53.8 L 57.7 41.7 L 54.8 50.9 Z M 67.8 53.8 L 67.8 34 L 71.1 34 L 71.1 53.8 L 67.8 53.8 Z M 83.8 38.2 C 83.8 38.2 83.8 42 83.8 42 C 83.8 45 81.8 46.1 78.8 46.1 C 78.83 46.14 77 46.1 77 46.1 L 77 53.8 L 73.7 53.8 L 73.7 34 C 73.7 34 78.83 34.02 78.8 34 C 81.8 34 83.8 35.2 83.8 38.2 Z M 80.5 38.7 C 80.5 37.3 79.8 36.9 78.7 36.9 C 78.72 36.9 77 36.9 77 36.9 L 77 43.3 C 77 43.3 78.72 43.26 78.7 43.3 C 79.8 43.3 80.5 42.9 80.5 41.4 C 80.5 41.4 80.5 38.7 80.5 38.7 Z M 91.8 41.1 C 91.8 41.1 91.76 38.32 91.8 38.3 C 91.8 37.1 91.1 36.6 90.1 36.6 C 89.1 36.6 88.4 37.1 88.4 38.3 C 88.4 38.3 88.4 39.7 88.4 39.7 C 88.4 40.7 88.8 41.1 89.7 41.7 C 89.7 41.7 92 43 92 43 C 93.9 44 95 44.9 95 47 C 95 47 95 49.9 95 49.9 C 95 52.9 93.1 54 90.2 54 C 90.2 54 90.1 54 90.1 54 C 87.1 54 85.2 53 85.2 49.9 C 85.21 49.89 85.2 46.4 85.2 46.4 L 88.4 46.4 C 88.4 46.4 88.43 49.44 88.4 49.4 C 88.4 50.7 89.1 51.2 90.1 51.2 C 91.1 51.2 91.8 50.7 91.8 49.4 C 91.8 49.4 91.8 47.9 91.8 47.9 C 91.8 46.9 91.5 46.4 90.5 45.8 C 90.5 45.8 88.2 44.5 88.2 44.5 C 86.3 43.4 85.2 42.5 85.2 40.5 C 85.2 40.5 85.2 37.9 85.2 37.9 C 85.2 34.9 87.4 33.8 90.1 33.8 C 90.1 33.8 90.1 33.8 90.1 33.8 C 92.8 33.8 95 34.9 95 37.9 C 94.98 37.86 95 41.1 95 41.1 L 91.8 41.1 Z M 107 49.8 C 107 52.9 105.1 54 102.1 54 C 102.1 54 102 54 102 54 C 99 54 97.1 52.9 97.1 49.8 C 97.07 49.84 97.1 34 97.1 34 L 100.3 34 C 100.3 34 100.35 49.33 100.3 49.3 C 100.3 50.7 101 51.1 102 51.1 C 103.1 51.1 103.7 50.7 103.7 49.3 C 103.74 49.33 103.7 34 103.7 34 L 107 34 C 107 34 107.01 49.84 107 49.8 Z M 117.3 50.9 L 115.5 50.9 L 112.5 41.7 L 112.5 53.8 L 109.5 53.8 L 109.5 34 L 112.6 34 L 116.4 45.5 L 120.3 34 L 123.5 34 L 123.5 53.8 L 120.3 53.8 L 120.3 41.7 L 117.3 50.9 Z " stroke="none" fill="#242423"/>
  </g>
  <g id="Polygon239543">
    <path d="M 9.7 22 L 1.4 22 L 1.4 2.3 L 4.7 2.3 L 4.7 19.1 L 9.7 19.1 L 9.7 22 Z M 16.1 2 C 16.1 2 16.3 2 16.3 2 C 19.3 2 21.3 3.2 21.3 6.2 C 21.3 6.2 21.3 18.1 21.3 18.1 C 21.3 21.1 19.3 22.2 16.3 22.2 C 16.3 22.2 16.1 22.2 16.1 22.2 C 13.1 22.2 11.1 21.1 11.1 18.1 C 11.1 18.1 11.1 6.2 11.1 6.2 C 11.1 3.2 13.1 2 16.1 2 Z M 16.2 19.4 C 17.3 19.4 18 19 18 17.6 C 18 17.6 18 6.7 18 6.7 C 18 5.3 17.3 4.9 16.2 4.9 C 15.1 4.9 14.4 5.3 14.4 6.7 C 14.4 6.7 14.4 17.6 14.4 17.6 C 14.4 19 15.1 19.4 16.2 19.4 Z M 31.1 22 L 28.6 14.1 L 27 14.1 L 27 22 L 23.7 22 L 23.7 2.3 C 23.7 2.3 28.8 2.26 28.8 2.3 C 31.8 2.3 33.8 3.4 33.8 6.4 C 33.8 6.4 33.8 10 33.8 10 C 33.8 11.9 33 13 31.6 13.6 C 31.62 13.64 34.4 22 34.4 22 L 31.1 22 Z M 27 11.3 C 27 11.3 28.69 11.32 28.7 11.3 C 29.8 11.3 30.5 10.9 30.5 9.5 C 30.5 9.5 30.5 6.9 30.5 6.9 C 30.5 5.5 29.8 5.1 28.7 5.1 C 28.69 5.14 27 5.1 27 5.1 L 27 11.3 Z M 36.1 22 L 36.1 2.3 L 44.8 2.3 L 44.8 5.1 L 39.4 5.1 L 39.4 10.6 L 43.9 10.6 L 43.9 13.4 L 39.4 13.4 L 39.4 19.1 L 44.9 19.1 L 44.9 22 L 36.1 22 Z M 54.8 19.1 L 52.9 19.1 L 50 9.9 L 50 22 L 46.9 22 L 46.9 2.3 L 50 2.3 L 53.8 13.8 L 57.7 2.3 L 60.9 2.3 L 60.9 22 L 57.7 22 L 57.7 9.9 L 54.8 19.1 Z M 67.8 22 L 67.8 2.3 L 71.1 2.3 L 71.1 22 L 67.8 22 Z M 83.8 6.4 C 83.8 6.4 83.8 10.2 83.8 10.2 C 83.8 13.2 81.8 14.4 78.8 14.4 C 78.83 14.37 77 14.4 77 14.4 L 77 22 L 73.7 22 L 73.7 2.3 C 73.7 2.3 78.83 2.26 78.8 2.3 C 81.8 2.3 83.8 3.4 83.8 6.4 Z M 80.5 6.9 C 80.5 5.5 79.8 5.1 78.7 5.1 C 78.72 5.14 77 5.1 77 5.1 L 77 11.5 C 77 11.5 78.72 11.49 78.7 11.5 C 79.8 11.5 80.5 11.1 80.5 9.7 C 80.5 9.7 80.5 6.9 80.5 6.9 Z M 91.8 9.3 C 91.8 9.3 91.76 6.55 91.8 6.6 C 91.8 5.3 91.1 4.9 90.1 4.9 C 89.1 4.9 88.4 5.3 88.4 6.6 C 88.4 6.6 88.4 7.9 88.4 7.9 C 88.4 8.9 88.8 9.4 89.7 9.9 C 89.7 9.9 92 11.2 92 11.2 C 93.9 12.3 95 13.2 95 15.3 C 95 15.3 95 18.1 95 18.1 C 95 21.2 93.1 22.2 90.2 22.2 C 90.2 22.2 90.1 22.2 90.1 22.2 C 87.1 22.2 85.2 21.2 85.2 18.1 C 85.21 18.13 85.2 14.7 85.2 14.7 L 88.4 14.7 C 88.4 14.7 88.43 17.68 88.4 17.7 C 88.4 18.9 89.1 19.4 90.1 19.4 C 91.1 19.4 91.8 18.9 91.8 17.7 C 91.8 17.7 91.8 16.1 91.8 16.1 C 91.8 15.1 91.5 14.6 90.5 14.1 C 90.5 14.1 88.2 12.8 88.2 12.8 C 86.3 11.7 85.2 10.8 85.2 8.7 C 85.2 8.7 85.2 6.1 85.2 6.1 C 85.2 3.2 87.4 2 90.1 2 C 90.1 2 90.1 2 90.1 2 C 92.8 2 95 3.2 95 6.1 C 94.98 6.1 95 9.3 95 9.3 L 91.8 9.3 Z M 107 18.1 C 107 21.1 105.1 22.2 102.1 22.2 C 102.1 22.2 102 22.2 102 22.2 C 99 22.2 97.1 21.1 97.1 18.1 C 97.07 18.07 97.1 2.3 97.1 2.3 L 100.3 2.3 C 100.3 2.3 100.35 17.56 100.3 17.6 C 100.3 19 101 19.4 102 19.4 C 103.1 19.4 103.7 19 103.7 17.6 C 103.74 17.56 103.7 2.3 103.7 2.3 L 107 2.3 C 107 2.3 107.01 18.07 107 18.1 Z M 117.3 19.1 L 115.5 19.1 L 112.5 9.9 L 112.5 22 L 109.5 22 L 109.5 2.3 L 112.6 2.3 L 116.4 13.8 L 120.3 2.3 L 123.5 2.3 L 123.5 22 L 120.3 22 L 120.3 9.9 L 117.3 19.1 Z " stroke="none" fill="#242423"/>
  </g>
</svg>