<?xml version="1.0" standalone="no"?><!DOCTYPE svg PUBLIC "-//W3C//DTD SVG 1.1//EN" "http://www.w3.org/Graphics/SVG/1.1/DTD/svg11.dtd"><svg xmlns="http://www.w3.org/2000/svg" version="1.1" width="524.3px" height="93.9px" viewBox="0 -6 524.3 93.9" style="top:-6px"><desc>Magnolia Plantation And Gardens Magnolia Plantation and Gardens is a historic house with gardens located on the Ashle</desc><defs/><g id="Polygon108175"><path d="m2.2 69.8v9.1h-.9V68.3h.9l6.7 9v-9h.9v10.6h-.9l-6.7-9.1zM17.1 78c-.7.7-1.5 1.1-2.6 1.1c-1.3 0-2.7-.9-2.7-2.6c0-1.6 1.4-2.5 2.7-2.5c1.1 0 1.9.3 2.6 1.1v-1.6c0-1.1-.9-1.7-2.1-1.7c-.9 0-1.7.3-2.4 1.1l-.4-.6c.8-.8 1.7-1.3 2.9-1.3c1.6 0 2.8.8 2.8 2.5c.03 0 0 5.4 0 5.4h-.8s.01-.9 0-.9zm0-2.3c-.5-.7-1.4-1.1-2.3-1.1c-1.3 0-2.1.9-2.1 1.9c0 1.1.8 1.9 2.1 1.9c.9 0 1.8-.3 2.3-1v-1.7zm3.4 1.7V72h-1.3v-.8h1.3v-2.1h.8v2.1h1.6v.8h-1.6s.04 5.3 0 5.3c0 .6.3 1 .8 1c.4 0 .7-.1.9-.3l.3.6c-.3.3-.7.5-1.3.5c-1 0-1.5-.6-1.5-1.7zm3.8-8.1c0-.4.3-.6.7-.6c.3 0 .6.2.6.6c0 .3-.3.6-.6.6c-.4 0-.7-.3-.7-.6zm.3 1.9h.8v7.7h-.8v-7.7zm2.7 3.9c0-2.3 1.5-4.1 3.7-4.1c2.3 0 3.7 1.8 3.7 4.1c0 2.2-1.4 4-3.7 4c-2.2 0-3.7-1.8-3.7-4zm6.5 0c0-1.7-1-3.3-2.8-3.3c-1.7 0-2.8 1.6-2.8 3.3c0 1.7 1.1 3.2 2.8 3.2c1.8 0 2.8-1.5 2.8-3.2zm8.1-1.4c0-1.5-.8-1.9-1.9-1.9c-1 0-2 .6-2.5 1.3c.03 0 0 5.8 0 5.8h-.8v-7.7h.8s.03 1.19 0 1.2c.6-.7 1.7-1.4 2.8-1.4c1.6 0 2.4.8 2.4 2.5v5.4h-.8s-.02-5.18 0-5.2zM50 78c-.7.7-1.5 1.1-2.6 1.1c-1.3 0-2.7-.9-2.7-2.6c0-1.6 1.4-2.5 2.7-2.5c1.1 0 1.9.3 2.6 1.1v-1.6c0-1.1-.9-1.7-2.1-1.7c-.9 0-1.7.3-2.4 1.1l-.4-.6c.8-.8 1.7-1.3 2.9-1.3c1.6 0 2.8.8 2.8 2.5c.02 0 0 5.4 0 5.4h-.8v-.9zm0-2.3c-.5-.7-1.4-1.1-2.3-1.1c-1.3 0-2.1.9-2.1 1.9c0 1.1.8 1.9 2.1 1.9c.9 0 1.8-.3 2.3-1v-1.7zm3.2-7.4h.9v10.6h-.9V68.3zm10.5 6.2h-2.3v4.4h-.9V68.3h3.9c1.8 0 3.2 1.2 3.2 3.1c0 1.9-1.3 3-2.9 3.1c0-.05 3.1 4.4 3.1 4.4h-1.1l-3-4.4zm.6-5.4c.04.03-2.9 0-2.9 0v4.6h2.9c1.4 0 2.4-1 2.4-2.3c0-1.3-1-2.3-2.4-2.3zm8.2 1.9c2.3 0 3.6 1.9 3.6 4.1v.2s-6.41.03-6.4 0c.1 1.7 1.2 3.1 3 3.1c1 0 1.8-.4 2.5-1.1l.4.6c-.7.7-1.7 1.2-3 1.2c-2.2 0-3.8-1.7-3.8-4c0-2.3 1.6-4.1 3.7-4.1zm-2.8 3.7h5.6c0-1.3-.9-2.9-2.8-2.9c-1.8 0-2.7 1.5-2.8 2.9zm8.9 5.5c.6.8 1.4 1.1 2.5 1.1c1.4 0 2.6-.7 2.6-2.5v-1.2c-.5.8-1.5 1.5-2.6 1.5c-2.1 0-3.5-1.6-3.5-4c0-2.5 1.4-4.1 3.5-4.1c1 0 2 .6 2.6 1.5c.03-.03 0-1.3 0-1.3h.9s-.03 7.62 0 7.6c0 2.4-1.6 3.2-3.5 3.2c-1.3 0-2.1-.2-3-1.1l.5-.7zm5.1-7c-.4-.8-1.4-1.4-2.5-1.4c-1.7 0-2.7 1.4-2.7 3.3c0 1.8 1 3.2 2.7 3.2c1.1 0 2.1-.6 2.5-1.4v-3.7zm3-3.9c0-.4.4-.6.7-.6c.3 0 .6.2.6.6c0 .3-.3.6-.6.6c-.3 0-.7-.3-.7-.6zm.3 1.9h.8v7.7h-.8v-7.7zm3 6.1c.5.6 1.4 1.1 2.5 1.1c1.3 0 2.1-.6 2.1-1.5c0-1-1.1-1.3-2.2-1.6c-1.3-.3-2.7-.6-2.7-2.1c0-1.2 1-2.2 2.7-2.2c1.4 0 2.2.5 2.8 1.2l-.5.6c-.4-.7-1.2-1.1-2.3-1.1c-1.1 0-1.9.6-1.9 1.4c0 .9 1 1.1 2.1 1.4c1.3.3 2.8.7 2.8 2.3c0 1.3-1 2.3-2.9 2.3c-1.2 0-2.2-.4-3-1.2l.5-.6zm7.5.1V72h-1.3v-.8h1.3v-2.1h.8v2.1h1.6v.8h-1.6s.04 5.3 0 5.3c0 .6.3 1 .8 1c.4 0 .7-.1.9-.3l.3.6c-.3.3-.7.5-1.3.5c-1 0-1.5-.6-1.5-1.7zm7.3-6.4c2.3 0 3.6 1.9 3.6 4.1c.03 0 0 .2 0 .2c0 0-6.39.03-6.4 0c.1 1.7 1.2 3.1 3 3.1c1 0 1.9-.4 2.5-1.1l.5.6c-.8.7-1.8 1.2-3.1 1.2c-2.2 0-3.8-1.7-3.8-4c0-2.3 1.6-4.1 3.7-4.1zm-2.8 3.7h5.6c0-1.3-.9-2.9-2.8-2.9c-1.8 0-2.7 1.5-2.8 2.9zm8.4-3.5h.8s.02 1.35 0 1.3c.7-.8 1.5-1.4 2.6-1.4v.9c-.1 0-.2-.1-.4-.1c-.8 0-1.8.7-2.2 1.4c.02.01 0 5.6 0 5.6h-.8v-7.7zm8.4 3.9c0-2.3 1.4-4.1 3.7-4.1c2.2 0 3.7 1.8 3.7 4.1c0 2.2-1.5 4-3.7 4c-2.3 0-3.7-1.8-3.7-4zm6.5 0c0-1.7-1-3.3-2.8-3.3c-1.8 0-2.8 1.6-2.8 3.3c0 1.7 1 3.2 2.8 3.2c1.8 0 2.8-1.5 2.8-3.2zm3.1-3.1h-1.3v-.8h1.3v-.7c0-1.5.8-2.4 2.1-2.4c.4 0 .7.1 1 .3l-.2.6c-.2-.1-.4-.1-.7-.1c-.9 0-1.4.6-1.4 1.6c.03.03 0 .7 0 .7h1.6v.8h-1.6v6.9h-.8V72zm15.4 1.9h-6.7v5h-.9V68.3h.9v4.7h6.7v-4.7h.9v10.6h-.9v-5zm3.1-4.6c0-.4.3-.6.7-.6c.3 0 .6.2.6.6c0 .3-.3.6-.6.6c-.4 0-.7-.3-.7-.6zm.2 1.9h.9v7.7h-.9v-7.7zm3.1 6.1c.5.6 1.4 1.1 2.5 1.1c1.3 0 2-.6 2-1.5c0-1-1-1.3-2.1-1.6c-1.3-.3-2.7-.6-2.7-2.1c0-1.2 1-2.2 2.7-2.2c1.3 0 2.2.5 2.8 1.2l-.5.6c-.4-.7-1.3-1.1-2.3-1.1c-1.2 0-1.9.6-1.9 1.4c0 .9 1 1.1 2.1 1.4c1.3.3 2.7.7 2.7 2.3c0 1.3-.9 2.3-2.8 2.3c-1.3 0-2.2-.4-3-1.2l.5-.6zm7.5.1c-.02.02 0-5.4 0-5.4h-1.3v-.8h1.3v-2.1h.8v2.1h1.6v.8h-1.6s.02 5.3 0 5.3c0 .6.3 1 .8 1c.4 0 .7-.1.9-.3l.3.6c-.3.3-.7.5-1.3.5c-1 0-1.5-.6-1.5-1.7zm3.6-2.3c0-2.3 1.4-4.1 3.7-4.1c2.2 0 3.7 1.8 3.7 4.1c0 2.2-1.5 4-3.7 4c-2.3 0-3.7-1.8-3.7-4zm6.5 0c0-1.7-1-3.3-2.8-3.3c-1.8 0-2.8 1.6-2.8 3.3c0 1.7 1 3.2 2.8 3.2c1.8 0 2.8-1.5 2.8-3.2zm2.8-3.9h.9s-.04 1.35 0 1.3c.6-.8 1.5-1.4 2.6-1.4v.9c-.2 0-.3-.1-.5-.1c-.7 0-1.8.7-2.1 1.4c-.04.01 0 5.6 0 5.6h-.9v-7.7zm4.7-1.9c0-.4.3-.6.6-.6c.4 0 .7.2.7.6c0 .3-.3.6-.7.6c-.3 0-.6-.3-.6-.6zm.2 1.9h.8v7.7h-.8v-7.7zm6.5-.2c1.4 0 2.1.6 2.8 1.3l-.6.5c-.6-.7-1.3-1-2.1-1c-1.8 0-2.9 1.4-2.9 3.3c0 1.8 1.1 3.2 2.9 3.2c.8 0 1.5-.3 2.1-1l.6.5c-.7.8-1.4 1.3-2.8 1.3c-2.2 0-3.7-1.8-3.7-4c0-2.3 1.5-4.1 3.7-4.1zm8.4-2.7h4c2 0 3.2 1.4 3.2 3.1c0 1.7-1.2 3.1-3.2 3.1h-3.1v4.4h-.9V68.3zm3.9.8c0 .03-3 0-3 0v4.6s3-.02 3 0c1.4 0 2.3-1 2.3-2.3c0-1.3-.9-2.3-2.3-2.3zm5-.8h.8v10.6h-.8V68.3zm8.1 9.7c-.7.7-1.5 1.1-2.6 1.1c-1.3 0-2.7-.9-2.7-2.6c0-1.6 1.4-2.5 2.7-2.5c1.1 0 1.9.3 2.6 1.1v-1.6c0-1.1-.9-1.7-2-1.7c-1 0-1.7.3-2.4 1.1l-.5-.6c.8-.8 1.7-1.3 2.9-1.3c1.6 0 2.8.8 2.8 2.5c.04 0 0 5.4 0 5.4h-.8s.02-.9 0-.9zm0-2.3c-.5-.7-1.4-1.1-2.3-1.1c-1.3 0-2.1.9-2.1 1.9c0 1.1.8 1.9 2.1 1.9c.9 0 1.8-.3 2.3-1v-1.7zm6.5-4.7c1.4 0 2.1.6 2.8 1.3l-.6.5c-.6-.7-1.3-1-2.1-1c-1.8 0-2.9 1.4-2.9 3.3c0 1.8 1.1 3.2 2.9 3.2c.8 0 1.5-.3 2.1-1l.6.5c-.7.8-1.4 1.3-2.8 1.3c-2.2 0-3.7-1.8-3.7-4c0-2.3 1.5-4.1 3.7-4.1zm7.7 0c2.3 0 3.6 1.9 3.6 4.1c.02 0 0 .2 0 .2c0 0-6.39.03-6.4 0c.1 1.7 1.2 3.1 3 3.1c1 0 1.9-.4 2.5-1.1l.4.6c-.7.7-1.7 1.2-3 1.2c-2.2 0-3.8-1.7-3.8-4c0-2.3 1.6-4.1 3.7-4.1zm-2.8 3.7h5.6c0-1.3-.9-2.9-2.8-2.9c-1.8 0-2.7 1.5-2.8 2.9zm8.2 2.6c.5.6 1.4 1.1 2.5 1.1c1.3 0 2-.6 2-1.5c0-1-1-1.3-2.1-1.6c-1.3-.3-2.7-.6-2.7-2.1c0-1.2 1-2.2 2.7-2.2c1.4 0 2.2.5 2.8 1.2l-.5.6c-.4-.7-1.3-1.1-2.3-1.1c-1.2 0-1.9.6-1.9 1.4c0 .9 1 1.1 2.1 1.4c1.3.3 2.8.7 2.8 2.3c0 1.3-1 2.3-2.9 2.3c-1.3 0-2.2-.4-3-1.2l.5-.6zm7.8.4c.3 0 .7.3.7.6c0 .4-.4.8-.7.8c-.4 0-.7-.4-.7-.8c0-.3.3-.6.7-.6z" stroke="none" fill="#000"/></g><g id="Polygon108174"><path d="m1.4 58.4c.05-.04 0-5.5 0-5.5H.2v-.7h1.2v-2.1h.9v2.1h1.5v.7H2.3v5.3c0 .7.2 1.1.8 1.1c.3 0 .7-.2.8-.4l.4.7c-.3.2-.7.4-1.3.4c-1.1 0-1.6-.6-1.6-1.6zm9.3-3.8c0-1.5-.8-1.9-1.9-1.9c-1 0-2 .7-2.5 1.3c.02.04 0 5.8 0 5.8h-.8V49.2h.8s.02 4.13 0 4.1C6.9 52.7 8 52 9.1 52c1.5 0 2.4.7 2.4 2.4v5.4h-.8s-.03-5.19 0-5.2zm6.5-2.6c2.3 0 3.6 1.8 3.6 4v.3s-6.43-.03-6.4 0c.1 1.6 1.2 3 3 3c.9 0 1.8-.3 2.5-1l.4.5c-.7.8-1.7 1.2-3 1.2c-2.2 0-3.8-1.6-3.8-4c0-2.2 1.5-4 3.7-4zm-2.8 3.6h5.5c0-1.3-.8-2.9-2.7-2.9c-1.9 0-2.8 1.6-2.8 2.9zM33 57.2h-5.6l-1.1 2.6h-1l4.3-10.6h1.1l4.4 10.6h-1L33 57.2zm-5.4-.8h5.1l-2.5-6.3l-2.6 6.3zm8.7 1.8c.5.6 1.3 1.1 2.4 1.1c1.3 0 2.1-.6 2.1-1.5c0-1-1.1-1.3-2.2-1.5c-1.2-.4-2.6-.7-2.6-2.2c0-1.2.9-2.1 2.7-2.1c1.3 0 2.2.5 2.7 1.1l-.4.6c-.5-.6-1.3-1-2.3-1c-1.2 0-1.9.6-1.9 1.4c0 .8.9 1.1 2 1.3c1.3.4 2.8.7 2.8 2.4c0 1.2-1 2.2-2.9 2.2c-1.2 0-2.2-.3-2.9-1.2l.5-.6zm12.5-3.6c0-1.5-.8-1.9-1.9-1.9c-1 0-2 .7-2.5 1.3v5.8h-.8V49.2h.8v4.1c.6-.6 1.7-1.3 2.8-1.3c1.5 0 2.4.7 2.4 2.4c-.02.04 0 5.4 0 5.4h-.8s-.05-5.19 0-5.2zm3.2-5.4h.8v10.6h-.8V49.2zm6.5 2.8c2.3 0 3.6 1.8 3.6 4v.3s-6.41-.03-6.4 0c.1 1.6 1.2 3 3 3c1 0 1.8-.3 2.5-1l.4.5c-.7.8-1.7 1.2-3 1.2c-2.2 0-3.8-1.6-3.8-4c0-2.2 1.6-4 3.7-4zm-2.8 3.6h5.6c0-1.3-.9-2.9-2.8-2.9c-1.8 0-2.7 1.6-2.8 2.9zm8.7 6.6c.5 0 .8-.2 1.1-.9c.04-.03.6-1.4.6-1.4l-3.2-7.7h.9l2.8 6.7l2.8-6.7h.9s-3.95 9.33-4 9.3c-.4 1-1 1.5-1.9 1.5c-.3 0-.6-.1-.8-.2l.1-.7c.2.1.5.1.7.1zm14-6.7h-2.3v4.3h-.9V49.2s3.91.05 3.9 0c1.8 0 3.2 1.2 3.2 3.1c0 2-1.3 3-2.9 3.1l3.1 4.4h-1.1l-3-4.3zm.6-5.4c.03-.03-2.9 0-2.9 0v4.5s2.93.03 2.9 0c1.4 0 2.4-.9 2.4-2.3c0-1.3-1-2.2-2.4-2.2zm5.2.1c0-.3.3-.6.6-.6c.4 0 .6.3.6.6c0 .4-.2.7-.6.7c-.3 0-.6-.3-.6-.7zm.2 2h.8v7.6h-.8v-7.6zm2.1 0h.9l2.8 6.7l2.7-6.7h1l-3.3 7.6h-.9l-3.2-7.6zm11.9-.2c2.3 0 3.6 1.8 3.6 4v.3s-6.42-.03-6.4 0c.1 1.6 1.2 3 3 3c1 0 1.8-.3 2.5-1l.4.5c-.7.8-1.7 1.2-3 1.2c-2.2 0-3.8-1.6-3.8-4c0-2.2 1.5-4 3.7-4zm-2.8 3.6h5.6c-.1-1.3-.9-2.9-2.8-2.9c-1.9 0-2.8 1.6-2.8 2.9zm8.4-3.4h.8v1.3c.6-.9 1.5-1.5 2.6-1.5v.9h-.4c-.8 0-1.9.7-2.2 1.3v5.6h-.8v-7.6zm4 6.4c.4 0 .7.3.7.7c0 .4-.3.7-.7.7c-.4 0-.7-.3-.7-.7c0-.4.3-.7.7-.7zm6.6-.2c-.02-.04 0-5.5 0-5.5h-1.3v-.7h1.3v-2.1h.8v2.1h1.6v.7h-1.6s.02 5.34 0 5.3c0 .7.3 1.1.8 1.1c.4 0 .7-.2.9-.4l.3.7c-.3.2-.7.4-1.3.4c-1 0-1.5-.6-1.5-1.6zm7.4-8.2c0-.3.3-.6.6-.6c.4 0 .6.3.6.6c0 .4-.2.7-.6.7c-.3 0-.6-.3-.6-.7zm.2 2h.8v7.6h-.8v-7.6zm3.1 6c.5.6 1.3 1.1 2.4 1.1c1.3 0 2.1-.6 2.1-1.5c0-1-1.1-1.3-2.2-1.5c-1.2-.4-2.7-.7-2.7-2.2c0-1.2 1-2.1 2.8-2.1c1.3 0 2.2.5 2.7 1.1l-.4.6c-.5-.6-1.3-1-2.3-1c-1.2 0-1.9.6-1.9 1.4c0 .8.9 1.1 2 1.3c1.3.4 2.8.7 2.8 2.4c0 1.2-1 2.2-2.9 2.2c-1.2 0-2.2-.3-2.9-1.2l.5-.6zm10.4-2.2c0-2.2 1.4-4 3.7-4c2.2 0 3.7 1.8 3.7 4c0 2.2-1.5 4-3.7 4c-2.3 0-3.7-1.8-3.7-4zm6.5 0c0-1.7-1-3.3-2.8-3.3c-1.8 0-2.8 1.6-2.8 3.3c0 1.7 1 3.3 2.8 3.3c1.8 0 2.8-1.6 2.8-3.3zm8-1.3c0-1.5-.7-2-1.8-2c-1 0-2 .7-2.5 1.3c-.03.04 0 5.8 0 5.8h-.9v-7.6h.9s-.03 1.13 0 1.1c.5-.6 1.6-1.3 2.7-1.3c1.6 0 2.4.7 2.4 2.5c.05-.03 0 5.3 0 5.3h-.8s.03-5.14 0-5.1zm6.5-2.7c2.4 0 3.6 1.8 3.6 4c.04.04 0 .3 0 .3c0 0-6.38-.03-6.4 0c.1 1.6 1.2 3 3 3c1 0 1.9-.3 2.5-1l.5.5c-.8.8-1.8 1.2-3 1.2c-2.3 0-3.9-1.6-3.9-4c0-2.2 1.6-4 3.7-4zm-2.8 3.6h5.6c0-1.3-.9-2.9-2.8-2.9c-1.8 0-2.7 1.6-2.8 2.9zm11.5.4c0-2.2 1.5-4 3.7-4c2.3 0 3.7 1.8 3.7 4c0 2.2-1.4 4-3.7 4c-2.2 0-3.7-1.8-3.7-4zm6.5 0c0-1.7-1-3.3-2.8-3.3c-1.8 0-2.8 1.6-2.8 3.3c0 1.7 1 3.3 2.8 3.3c1.8 0 2.8-1.6 2.8-3.3zm3.2-3.1h-1.3v-.7h1.3s-.04-.73 0-.7c0-1.5.8-2.4 2-2.4c.4 0 .8.1 1.1.2l-.3.7c-.2-.1-.4-.2-.7-.2c-.9 0-1.3.6-1.3 1.7c-.02-.03 0 .7 0 .7h1.5v.7h-1.5v6.9h-.8v-6.9zm7.5 5.5c-.04-.04 0-5.5 0-5.5h-1.3v-.7h1.3v-2.1h.8v2.1h1.6v.7h-1.6v5.3c0 .7.3 1.1.8 1.1c.4 0 .7-.2.9-.4l.3.7c-.3.2-.7.4-1.3.4c-1 0-1.5-.6-1.5-1.6zm9.2-3.8c0-1.5-.8-1.9-1.9-1.9c-1 0-2 .7-2.5 1.3c.04.04 0 5.8 0 5.8h-.8V49.2h.8s.04 4.13 0 4.1c.6-.6 1.7-1.3 2.8-1.3c1.6 0 2.4.7 2.4 2.4c.02.04 0 5.4 0 5.4h-.8v-5.2zm6.5-2.6c2.3 0 3.6 1.8 3.6 4v.3s-6.41-.03-6.4 0c.1 1.6 1.2 3 3 3c1 0 1.8-.3 2.5-1l.4.5c-.7.8-1.7 1.2-3 1.2c-2.2 0-3.8-1.6-3.8-4c0-2.2 1.6-4 3.7-4zm-2.8 3.6h5.6c0-1.3-.9-2.9-2.8-2.9c-1.8 0-2.7 1.6-2.8 2.9zm11.5.4c0-2.2 1.4-4 3.7-4c2.3 0 3.7 1.8 3.7 4c0 2.2-1.4 4-3.7 4c-2.3 0-3.7-1.8-3.7-4zm6.5 0c0-1.7-1-3.3-2.8-3.3c-1.8 0-2.8 1.6-2.8 3.3c0 1.7 1 3.3 2.8 3.3c1.8 0 2.8-1.6 2.8-3.3zm2.9-6.8h.8v10.6h-.8V49.2zm8.8 9.4c-.5.8-1.5 1.4-2.6 1.4c-2.1 0-3.5-1.5-3.5-4c0-2.4 1.4-4 3.5-4c1.1 0 2 .5 2.6 1.4c.05.01 0-4.2 0-4.2h.9v10.6h-.9s.05-1.18 0-1.2zm0-4.5c-.4-.7-1.4-1.4-2.5-1.4c-1.7 0-2.7 1.5-2.7 3.3c0 1.9 1 3.3 2.7 3.3c1.1 0 2.1-.6 2.5-1.4v-3.8zm6.6-2.1c2.3 0 3.6 1.8 3.6 4c-.02.04 0 .3 0 .3c0 0-6.44-.03-6.4 0c0 1.6 1.2 3 2.9 3c1 0 1.9-.3 2.6-1l.4.5c-.8.8-1.7 1.2-3 1.2c-2.2 0-3.8-1.6-3.8-4c0-2.2 1.5-4 3.7-4zm-2.8 3.6h5.5c0-1.3-.8-2.9-2.8-2.9c-1.8 0-2.7 1.6-2.7 2.9zm8.2 2.6c.5.6 1.4 1.1 2.5 1.1c1.2 0 2-.6 2-1.5c0-1-1-1.3-2.2-1.5c-1.2-.4-2.6-.7-2.6-2.2c0-1.2.9-2.1 2.7-2.1c1.3 0 2.2.5 2.7 1.1l-.4.6c-.5-.6-1.3-1-2.3-1c-1.2 0-1.9.6-1.9 1.4c0 .8 1 1.1 2 1.3c1.3.4 2.8.7 2.8 2.4c0 1.2-1 2.2-2.9 2.2c-1.2 0-2.2-.3-2.9-1.2l.5-.6zm7.4.2c.04-.04 0-5.5 0-5.5h-1.2v-.7h1.2v-2.1h.9v2.1h1.5v.7h-1.5s-.02 5.34 0 5.3c0 .7.2 1.1.8 1.1c.3 0 .7-.2.8-.4l.3.7c-.3.2-.6.4-1.3.4c-1 0-1.5-.6-1.5-1.6zm7.7 4.4V52.2h.8s-.02 1.19 0 1.2c.5-.8 1.5-1.4 2.6-1.4c2.1 0 3.5 1.5 3.5 4c0 2.4-1.4 4-3.5 4c-1 0-2-.5-2.6-1.4c-.02 0 0 4.2 0 4.2h-.8zm3.3-10.1c-1.1 0-2.1.7-2.5 1.4v3.8c.4.7 1.4 1.4 2.5 1.4c1.7 0 2.7-1.4 2.7-3.3c0-1.9-1-3.3-2.7-3.3zm5.6-3.5h.8v10.6h-.8V49.2zm8.1 9.7c-.7.8-1.6 1.1-2.6 1.1c-1.4 0-2.7-.9-2.7-2.5c0-1.7 1.3-2.5 2.7-2.5c1 0 1.9.3 2.6 1v-1.5c0-1.2-1-1.8-2.1-1.8c-1 0-1.7.3-2.4 1.1l-.5-.5c.8-.9 1.7-1.3 3-1.3c1.6 0 2.8.7 2.8 2.4v5.4h-.8s-.03-.86 0-.9zm0-2.3c-.6-.7-1.4-1-2.4-1c-1.2 0-2.1.8-2.1 1.9c0 1.1.9 1.9 2.1 1.9c1 0 1.8-.4 2.4-1.1v-1.7zm8.4-1.9c0-1.5-.8-2-1.9-2c-1 0-2 .7-2.5 1.3c.03.04 0 5.8 0 5.8h-.8v-7.6h.8s.03 1.13 0 1.1c.6-.6 1.7-1.3 2.8-1.3c1.6 0 2.4.7 2.4 2.5v5.3h-.8s-.02-5.14 0-5.1zm3.4 3.7c-.02-.04 0-5.5 0-5.5h-1.3v-.7h1.3v-2.1h.8v2.1h1.6v.7h-1.6s.02 5.34 0 5.3c0 .7.3 1.1.8 1.1c.4 0 .7-.2.9-.4l.3.7c-.3.2-.7.4-1.3.4c-1 0-1.5-.6-1.5-1.6zm8.9.5c-.7.8-1.5 1.1-2.6 1.1c-1.3 0-2.7-.9-2.7-2.5c0-1.7 1.4-2.5 2.7-2.5c1.1 0 1.9.3 2.6 1v-1.5c0-1.2-.9-1.8-2.1-1.8c-.9 0-1.7.3-2.4 1.1l-.4-.5c.8-.9 1.7-1.3 2.9-1.3c1.6 0 2.8.7 2.8 2.4c.03.04 0 5.4 0 5.4h-.8s.01-.86 0-.9zm0-2.3c-.5-.7-1.4-1-2.3-1c-1.3 0-2.1.8-2.1 1.9c0 1.1.8 1.9 2.1 1.9c.9 0 1.8-.4 2.3-1.1v-1.7zm3.4 1.8v-5.5h-1.3v-.7h1.3v-2.1h.8v2.1h1.6v.7h-1.6s.05 5.34 0 5.3c0 .7.3 1.1.8 1.1c.4 0 .7-.2.9-.4l.3.7c-.3.2-.7.4-1.3.4c-1 0-1.5-.6-1.5-1.6zm3.8-8.2c0-.3.3-.6.7-.6c.3 0 .6.3.6.6c0 .4-.3.7-.6.7c-.4 0-.7-.3-.7-.7zm.3 2h.8v7.6h-.8v-7.6zm2.8 3.8c0-2.2 1.4-4 3.6-4c2.3 0 3.7 1.8 3.7 4c0 2.2-1.4 4-3.7 4c-2.2 0-3.6-1.8-3.6-4zm6.4 0c0-1.7-1-3.3-2.8-3.3c-1.7 0-2.8 1.6-2.8 3.3c0 1.7 1.1 3.3 2.8 3.3c1.8 0 2.8-1.6 2.8-3.3zm8.1-1.3c0-1.5-.8-2-1.9-2c-1 0-2 .7-2.5 1.3c.03.04 0 5.8 0 5.8h-.8v-7.6h.8s.03 1.13 0 1.1c.6-.6 1.7-1.3 2.8-1.3c1.6 0 2.4.7 2.4 2.5v5.3h-.8s-.02-5.14 0-5.1zm3 3.5c.5.6 1.4 1.1 2.5 1.1c1.3 0 2.1-.6 2.1-1.5c0-1-1.1-1.3-2.2-1.5c-1.3-.4-2.7-.7-2.7-2.2c0-1.2 1-2.1 2.8-2.1c1.3 0 2.2.5 2.7 1.1l-.4.6c-.5-.6-1.3-1-2.3-1c-1.2 0-2 .6-2 1.4c0 .8 1 1.1 2.1 1.3c1.3.4 2.8.7 2.8 2.4c0 1.2-1 2.2-2.9 2.2c-1.2 0-2.2-.3-2.9-1.2l.4-.6zm10.7-8c0-.3.3-.6.6-.6c.4 0 .7.3.7.6c0 .4-.3.7-.7.7c-.3 0-.6-.3-.6-.7zm.2 2h.8v7.6h-.8v-7.6zm8.4 2.5c0-1.5-.7-2-1.8-2c-1 0-2 .7-2.5 1.3v5.8h-.8v-7.6h.8s-.01 1.13 0 1.1c.5-.6 1.6-1.3 2.8-1.3c1.5 0 2.4.7 2.4 2.5c-.04-.03 0 5.3 0 5.3h-.9s.04-5.14 0-5.1zm7 3.7v-5.5h-1.3v-.7h1.3v-2.1h.8v2.1h1.6v.7h-1.6s.04 5.34 0 5.3c0 .7.3 1.1.8 1.1c.4 0 .7-.2.9-.4l.3.7c-.3.2-.7.4-1.3.4c-1 0-1.5-.6-1.5-1.6zm9.2-3.8c0-1.5-.7-1.9-1.8-1.9c-1 0-2 .7-2.5 1.3c-.02.04 0 5.8 0 5.8h-.8V49.2h.8s-.02 4.13 0 4.1c.5-.6 1.6-1.3 2.7-1.3c1.6 0 2.5.7 2.5 2.4c-.04.04 0 5.4 0 5.4h-.9s.03-5.19 0-5.2zm6.5-2.6c2.4 0 3.6 1.8 3.6 4c.05.04 0 .3 0 .3c0 0-6.37-.03-6.4 0c.1 1.6 1.2 3 3 3c1 0 1.9-.3 2.5-1l.5.5c-.8.8-1.8 1.2-3 1.2c-2.3 0-3.9-1.6-3.9-4c0-2.2 1.6-4 3.7-4zm-2.8 3.6h5.6c0-1.3-.9-2.9-2.8-2.9c-1.8 0-2.7 1.6-2.8 2.9zm12 2.1c.7.8 1.8 1.5 3.3 1.5c2.2 0 2.8-1.2 2.8-2.1c0-1.5-1.4-1.9-2.9-2.3c-1.7-.5-3.4-.9-3.4-2.9c0-1.7 1.5-2.8 3.4-2.8c1.6 0 2.8.5 3.6 1.5l-.6.6c-.7-.9-1.8-1.3-3-1.3c-1.4 0-2.5.8-2.5 2c0 1.2 1.3 1.6 2.8 2c1.7.4 3.6 1 3.6 3.1c0 1.4-.9 3-3.8 3c-1.7 0-3.1-.7-3.9-1.7l.6-.6zm8.6-1.7c0-2.2 1.5-4 3.7-4c2.3 0 3.7 1.8 3.7 4c0 2.2-1.4 4-3.7 4c-2.2 0-3.7-1.8-3.7-4zm6.5 0c0-1.7-1-3.3-2.8-3.3c-1.8 0-2.8 1.6-2.8 3.3c0 1.7 1 3.3 2.8 3.3c1.8 0 2.8-1.6 2.8-3.3zm8 2.7c-.6.7-1.6 1.3-2.7 1.3c-1.6 0-2.4-.7-2.4-2.4c-.04-.03 0-5.4 0-5.4h.8v5.2c0 1.5.7 1.9 1.8 1.9c1 0 2-.6 2.5-1.3c.04.02 0-5.8 0-5.8h.9v7.6h-.9s.04-1.09 0-1.1zm3.4-.3c.04-.04 0-5.5 0-5.5h-1.2v-.7h1.2v-2.1h.9v2.1h1.5v.7h-1.5s-.02 5.34 0 5.3c0 .7.2 1.1.8 1.1c.3 0 .7-.2.8-.4l.3.7c-.3.2-.6.4-1.3.4c-1 0-1.5-.6-1.5-1.6zm9.3-3.8c0-1.5-.8-1.9-1.9-1.9c-1 0-2 .7-2.5 1.3v5.8h-.8V49.2h.8v4.1c.6-.6 1.7-1.3 2.8-1.3c1.5 0 2.4.7 2.4 2.4v5.4h-.8s-.03-5.19 0-5.2zm2.8 6.8c.5-.4.9-1 1-1.5l-.2.1c-.4 0-.6-.3-.6-.7c0-.4.3-.7.6-.7c.5 0 .8.4.8 1c0 .9-.5 1.7-1.1 2.2l-.5-.4zm12.2-2.5c-.7.8-1.6 1.1-2.6 1.1c-1.4 0-2.7-.9-2.7-2.5c0-1.7 1.3-2.5 2.7-2.5c1 0 1.9.3 2.6 1v-1.5c0-1.2-1-1.8-2.1-1.8c-1 0-1.7.3-2.4 1.1l-.5-.5c.8-.9 1.7-1.3 3-1.3c1.6 0 2.8.7 2.8 2.4v5.4h-.8s-.03-.86 0-.9zm0-2.3c-.6-.7-1.4-1-2.4-1c-1.2 0-2 .8-2 1.9c0 1.1.8 1.9 2 1.9c1 0 1.8-.4 2.4-1.1v-1.7zm8.4-1.9c0-1.5-.8-2-1.9-2c-1 0-2 .7-2.5 1.3c.03.04 0 5.8 0 5.8h-.8v-7.6h.8s.03 1.13 0 1.1c.6-.6 1.7-1.3 2.8-1.3c1.6 0 2.4.7 2.4 2.5v5.3h-.8v-5.1zm8.9 3.9c-.6.8-1.5 1.4-2.7 1.4c-2 0-3.4-1.5-3.4-4c0-2.4 1.4-4 3.4-4c1.1 0 2.1.5 2.7 1.4c-.02.01 0-4.2 0-4.2h.8v10.6h-.8s-.02-1.18 0-1.2zm0-4.5c-.5-.7-1.5-1.4-2.5-1.4c-1.7 0-2.7 1.5-2.7 3.3c0 1.9 1 3.3 2.7 3.3c1 0 2-.6 2.5-1.4v-3.8zm6.8-4.9h.8v10.6h-.8V49.2zm3 1c0-.3.3-.6.7-.6c.3 0 .6.3.6.6c0 .4-.3.7-.6.7c-.4 0-.7-.3-.7-.7zm.2 2h.9v7.6h-.9v-7.6zm3.1 6c.5.6 1.4 1.1 2.5 1.1c1.3 0 2-.6 2-1.5c0-1-1-1.3-2.1-1.5c-1.3-.4-2.7-.7-2.7-2.2c0-1.2 1-2.1 2.7-2.1c1.3 0 2.2.5 2.8 1.1l-.5.6c-.4-.6-1.3-1-2.3-1c-1.2 0-1.9.6-1.9 1.4c0 .8 1 1.1 2 1.3c1.4.4 2.8.7 2.8 2.4c0 1.2-.9 2.2-2.8 2.2c-1.3 0-2.2-.3-3-1.2l.5-.6zm7.5.2c-.03-.04 0-5.5 0-5.5h-1.3v-.7h1.3v-2.1h.8v2.1h1.6v.7h-1.6v5.3c0 .7.3 1.1.8 1.1c.4 0 .7-.2.9-.4l.3.7c-.3.2-.7.4-1.3.4c-1 0-1.5-.6-1.5-1.6zM465 52c2.3 0 3.6 1.8 3.6 4v.3s-6.42-.03-6.4 0c.1 1.6 1.2 3 3 3c1 0 1.8-.3 2.5-1l.4.5c-.7.8-1.7 1.2-3 1.2c-2.2 0-3.8-1.6-3.8-4c0-2.2 1.5-4 3.7-4zm-2.8 3.6h5.6c-.1-1.3-.9-2.9-2.8-2.9c-1.9 0-2.8 1.6-2.8 2.9zm14 3c-.5.8-1.5 1.4-2.6 1.4c-2.1 0-3.5-1.5-3.5-4c0-2.4 1.4-4 3.5-4c1 0 2 .5 2.6 1.4c.02.01 0-4.2 0-4.2h.9v10.6h-.9s.02-1.18 0-1.2zm0-4.5c-.4-.7-1.4-1.4-2.5-1.4c-1.7 0-2.7 1.5-2.7 3.3c0 1.9 1 3.3 2.7 3.3c1.1 0 2.1-.6 2.5-1.4v-3.8zm6.4 1.9c0-2.2 1.4-4 3.7-4c2.3 0 3.7 1.8 3.7 4c0 2.2-1.4 4-3.7 4c-2.3 0-3.7-1.8-3.7-4zm6.5 0c0-1.7-1-3.3-2.8-3.3c-1.8 0-2.8 1.6-2.8 3.3c0 1.7 1 3.3 2.8 3.3c1.8 0 2.8-1.6 2.8-3.3zm8-1.3c0-1.5-.7-2-1.8-2c-1 0-2 .7-2.5 1.3c-.02.04 0 5.8 0 5.8h-.8v-7.6h.8s-.02 1.13 0 1.1c.5-.6 1.6-1.3 2.7-1.3c1.6 0 2.5.7 2.5 2.5c-.04-.03 0 5.3 0 5.3h-.9s.03-5.14 0-5.1zm7 3.7v-5.5h-1.3v-.7h1.3v-2.1h.8v2.1h1.6v.7h-1.6s.04 5.34 0 5.3c0 .7.3 1.1.8 1.1c.4 0 .7-.2.9-.4l.3.7c-.3.2-.7.4-1.3.4c-1 0-1.5-.6-1.5-1.6zm9.2-3.8c0-1.5-.7-1.9-1.8-1.9c-1 0-2 .7-2.5 1.3c-.03.04 0 5.8 0 5.8h-.9V49.2h.9s-.03 4.13 0 4.1c.5-.6 1.6-1.3 2.7-1.3c1.6 0 2.4.7 2.4 2.4c.05.04 0 5.4 0 5.4h-.8s.02-5.19 0-5.2zm6.5-2.6c2.4 0 3.6 1.8 3.6 4c.04.04 0 .3 0 .3c0 0-6.38-.03-6.4 0c.1 1.6 1.2 3 3 3c1 0 1.9-.3 2.5-1l.5.5c-.8.8-1.8 1.2-3 1.2c-2.3 0-3.9-1.6-3.9-4c0-2.2 1.6-4 3.7-4zm-2.8 3.6h5.6c0-1.3-.9-2.9-2.8-2.9c-1.8 0-2.7 1.6-2.8 2.9z" stroke="none" fill="#000"/></g><g id="Polygon108173"><path d="m10.3 31.4l-3.9 9.4h-.3l-3.9-9.4v9.4h-.9V30.2h1.4L6.3 39l3.6-8.8h1.3v10.6h-.9v-9.4zm8.2 8.5c-.6.7-1.5 1.1-2.6 1.1c-1.3 0-2.7-.9-2.7-2.6c0-1.7 1.4-2.5 2.7-2.5c1.1 0 2 .3 2.6 1.1v-1.6c0-1.1-.9-1.7-2-1.7c-1 0-1.7.3-2.4 1.1l-.5-.6c.8-.9 1.7-1.3 2.9-1.3c1.6 0 2.9.8 2.9 2.5c-.04-.02 0 5.4 0 5.4h-.9s.04-.92 0-.9zm0-2.3c-.5-.7-1.4-1.1-2.3-1.1c-1.3 0-2.1.9-2.1 1.9c0 1.1.8 1.9 2.1 1.9c.9 0 1.8-.3 2.3-1v-1.7zm3.8 4.5c.6.8 1.4 1.1 2.5 1.1c1.4 0 2.6-.7 2.6-2.5v-1.2c-.5.8-1.5 1.4-2.6 1.4c-2.1 0-3.5-1.5-3.5-4c0-2.4 1.4-4 3.5-4c1 0 2 .6 2.6 1.4c.03.05 0-1.2 0-1.2h.9s-.03 7.6 0 7.6c0 2.4-1.6 3.2-3.5 3.2c-1.3 0-2.1-.2-3-1.2l.5-.6zm5.1-7c-.4-.8-1.4-1.4-2.5-1.4c-1.7 0-2.7 1.4-2.7 3.2c0 1.9 1 3.3 2.7 3.3c1.1 0 2.1-.7 2.5-1.4v-3.7zm8.4.5c0-1.5-.7-1.9-1.8-1.9c-1 0-2 .6-2.5 1.3v5.8h-.8v-7.7h.8v1.2c.5-.7 1.6-1.4 2.8-1.4c1.5 0 2.4.8 2.4 2.5c-.03.01 0 5.4 0 5.4h-.9s.05-5.2 0-5.2zm2.8 1.3c0-2.2 1.5-4 3.7-4c2.3 0 3.7 1.8 3.7 4c0 2.3-1.4 4.1-3.7 4.1c-2.2 0-3.7-1.8-3.7-4.1zm6.5 0c0-1.7-1-3.2-2.8-3.2c-1.8 0-2.8 1.5-2.8 3.2c0 1.8 1 3.3 2.8 3.3c1.8 0 2.8-1.5 2.8-3.3zm2.9-6.7h.8v10.6h-.8V30.2zm3 1c0-.4.3-.7.6-.7c.4 0 .7.3.7.7c0 .3-.3.6-.7.6c-.3 0-.6-.3-.6-.6zm.2 1.9h.9v7.7h-.9v-7.7zm8.2 6.8c-.7.7-1.6 1.1-2.7 1.1c-1.3 0-2.6-.9-2.6-2.6c0-1.7 1.3-2.5 2.6-2.5c1.1 0 2 .3 2.7 1.1v-1.6c0-1.1-1-1.7-2.1-1.7c-1 0-1.7.3-2.4 1.1l-.5-.6c.8-.9 1.7-1.3 3-1.3c1.5 0 2.8.8 2.8 2.5c-.02-.02 0 5.4 0 5.4h-.8s-.05-.92 0-.9zm0-2.3c-.6-.7-1.4-1.1-2.4-1.1c-1.2 0-2.1.9-2.1 1.9c0 1.1.9 1.9 2.1 1.9c1 0 1.8-.3 2.4-1v-1.7zm8.4-7.4h3.9c2.1 0 3.2 1.4 3.2 3.1c0 1.7-1.1 3.1-3.2 3.1c.05-.02-3 0-3 0v4.4h-.9V30.2zm3.9.8h-3v4.6s2.95-.04 3 0c1.3 0 2.3-1 2.3-2.3c0-1.3-1-2.3-2.3-2.3zm5-.8h.8v10.6h-.8V30.2zm8.1 9.7c-.7.7-1.6 1.1-2.6 1.1c-1.4 0-2.7-.9-2.7-2.6c0-1.7 1.3-2.5 2.7-2.5c1 0 1.9.3 2.6 1.1v-1.6c0-1.1-1-1.7-2.1-1.7c-.9 0-1.7.3-2.4 1.1l-.5-.6c.8-.9 1.7-1.3 3-1.3c1.6 0 2.8.8 2.8 2.5v5.4h-.8s-.03-.92 0-.9zm0-2.3c-.6-.7-1.4-1.1-2.3-1.1c-1.3 0-2.1.9-2.1 1.9c0 1.1.8 1.9 2.1 1.9c.9 0 1.7-.3 2.3-1v-1.7zm8.4-2c0-1.5-.8-1.9-1.9-1.9c-1 0-2 .6-2.5 1.3c.03-.02 0 5.8 0 5.8h-.8v-7.7h.8s.03 1.17 0 1.2c.6-.7 1.7-1.4 2.8-1.4c1.6 0 2.4.8 2.4 2.5v5.4h-.8v-5.2zm3.4 3.7v-5.4h-1.3v-.8h1.3V31h.8v2.1h1.6v.8h-1.6s.03 5.28 0 5.3c0 .6.3 1 .8 1c.4 0 .7-.1.9-.3l.3.6c-.3.3-.7.5-1.3.5c-1 0-1.5-.6-1.5-1.7zm8.9.6c-.7.7-1.5 1.1-2.6 1.1c-1.3 0-2.7-.9-2.7-2.6c0-1.7 1.4-2.5 2.7-2.5c1.1 0 1.9.3 2.6 1.1v-1.6c0-1.1-.9-1.7-2.1-1.7c-.9 0-1.7.3-2.4 1.1l-.4-.6c.8-.9 1.7-1.3 2.9-1.3c1.6 0 2.8.8 2.8 2.5c.04-.02 0 5.4 0 5.4h-.8s.01-.92 0-.9zm0-2.3c-.5-.7-1.4-1.1-2.3-1.1c-1.3 0-2.1.9-2.1 1.9c0 1.1.8 1.9 2.1 1.9c.9 0 1.8-.3 2.3-1v-1.7zm3.4 1.7v-5.4h-1.3v-.8h1.3V31h.9v2.1h1.5v.8h-1.5s-.05 5.28 0 5.3c0 .6.2 1 .7 1c.4 0 .7-.1.9-.3l.3.6c-.3.3-.6.5-1.3.5c-1 0-1.5-.6-1.5-1.7zm3.8-8.1c0-.4.3-.7.7-.7c.3 0 .6.3.6.7c0 .3-.3.6-.6.6c-.4 0-.7-.3-.7-.6zm.3 1.9h.8v7.7h-.8v-7.7zm2.8 3.8c0-2.2 1.4-4 3.6-4c2.3 0 3.7 1.8 3.7 4c0 2.3-1.4 4.1-3.7 4.1c-2.2 0-3.6-1.8-3.6-4.1zm6.5 0c0-1.7-1-3.2-2.9-3.2c-1.7 0-2.8 1.5-2.8 3.2c0 1.8 1.1 3.3 2.8 3.3c1.9 0 2.9-1.5 2.9-3.3zm8-1.3c0-1.5-.8-1.9-1.9-1.9c-1 0-2 .6-2.5 1.3c.04-.02 0 5.8 0 5.8h-.8v-7.7h.8s.04 1.17 0 1.2c.6-.7 1.7-1.4 2.8-1.4c1.6 0 2.4.8 2.4 2.5v5.4h-.8v-5.2zm13.3 4.3c-.7.7-1.6 1.1-2.6 1.1c-1.4 0-2.7-.9-2.7-2.6c0-1.7 1.3-2.5 2.7-2.5c1 0 1.9.3 2.6 1.1v-1.6c0-1.1-1-1.7-2.1-1.7c-1 0-1.7.3-2.4 1.1l-.5-.6c.8-.9 1.7-1.3 3-1.3c1.5 0 2.8.8 2.8 2.5c-.02-.02 0 5.4 0 5.4h-.8s-.04-.92 0-.9zm0-2.3c-.6-.7-1.4-1.1-2.4-1.1c-1.2 0-2.1.9-2.1 1.9c0 1.1.9 1.9 2.1 1.9c1 0 1.8-.3 2.4-1v-1.7zm8.4-2c0-1.5-.8-1.9-1.9-1.9c-1 0-2 .6-2.5 1.3c.02-.02 0 5.8 0 5.8h-.8v-7.7h.8s.02 1.17 0 1.2c.6-.7 1.7-1.4 2.8-1.4c1.5 0 2.4.8 2.4 2.5v5.4h-.8s-.02-5.2 0-5.2zm8.9 4c-.6.8-1.6 1.4-2.7 1.4c-2 0-3.4-1.6-3.4-4c0-2.5 1.4-4.1 3.4-4.1c1.1 0 2 .6 2.7 1.4c-.03.05 0-4.1 0-4.1h.8v10.6h-.8s-.03-1.24 0-1.2zm0-4.5c-.5-.8-1.5-1.4-2.6-1.4c-1.7 0-2.6 1.4-2.6 3.3c0 1.8.9 3.2 2.6 3.2c1.1 0 2.1-.6 2.6-1.3v-3.8zm13.4-5.1c1.7 0 3 .7 4 1.8l-.7.5c-.8-.9-2-1.5-3.3-1.5c-2.5 0-4.4 1.9-4.4 4.7c0 2.7 1.9 4.7 4.4 4.7c1.4 0 2.5-.7 3.1-1.3c-.01-.02 0-2.5 0-2.5h-4v-.9h4.9v3.7c-1 1.1-2.4 1.8-4 1.8c-3 0-5.4-2.2-5.4-5.5c0-3.3 2.4-5.5 5.4-5.5zm11 9.9c-.7.7-1.6 1.1-2.6 1.1c-1.3 0-2.7-.9-2.7-2.6c0-1.7 1.3-2.5 2.7-2.5c1 0 1.9.3 2.6 1.1v-1.6c0-1.1-.9-1.7-2.1-1.7c-.9 0-1.7.3-2.4 1.1l-.4-.6c.8-.9 1.6-1.3 2.9-1.3c1.6 0 2.8.8 2.8 2.5v5.4h-.8s-.01-.92 0-.9zm0-2.3c-.6-.7-1.4-1.1-2.3-1.1c-1.3 0-2.1.9-2.1 1.9c0 1.1.8 1.9 2.1 1.9c.9 0 1.7-.3 2.3-1v-1.7zm3.2-4.5h.9s-.05 1.33 0 1.3c.6-.8 1.5-1.4 2.5-1.4v.9c-.1-.1-.2-.1-.4-.1c-.8 0-1.8.7-2.1 1.4c-.05-.01 0 5.6 0 5.6h-.9v-7.7zm10.6 6.5c-.6.8-1.6 1.4-2.7 1.4c-2 0-3.4-1.6-3.4-4c0-2.5 1.4-4.1 3.4-4.1c1.1 0 2 .6 2.7 1.4c-.04.05 0-4.1 0-4.1h.8v10.6h-.8s-.04-1.24 0-1.2zm0-4.5c-.5-.8-1.5-1.4-2.6-1.4c-1.7 0-2.7 1.4-2.7 3.3c0 1.8 1 3.2 2.7 3.2c1.1 0 2.1-.6 2.6-1.3v-3.8zm6.5-2.2c2.3 0 3.6 1.9 3.6 4.1v.2h-6.4c.1 1.7 1.2 3.1 3 3.1c.9 0 1.8-.4 2.5-1.1l.4.5c-.7.8-1.7 1.3-3 1.3c-2.2 0-3.8-1.7-3.8-4.1c0-2.2 1.5-4 3.7-4zm-2.8 3.7h5.5c0-1.3-.8-3-2.7-3c-1.9 0-2.8 1.6-2.8 3zm13.5-1c0-1.5-.7-1.9-1.8-1.9c-1 0-2 .6-2.5 1.3c-.02-.02 0 5.8 0 5.8h-.8v-7.7h.8s-.02 1.17 0 1.2c.5-.7 1.6-1.4 2.7-1.4c1.6 0 2.5.8 2.5 2.5c-.04.01 0 5.4 0 5.4h-.9s.04-5.2 0-5.2zm3.1 3.5c.5.7 1.4 1.2 2.5 1.2c1.3 0 2-.7 2-1.6c0-.9-1-1.2-2.1-1.5c-1.3-.3-2.7-.7-2.7-2.2c0-1.1 1-2.1 2.7-2.1c1.3 0 2.2.5 2.8 1.2l-.5.5c-.4-.6-1.3-1-2.3-1c-1.2 0-1.9.6-1.9 1.4c0 .9 1 1.1 2 1.4c1.4.3 2.8.7 2.8 2.3c0 1.3-.9 2.3-2.8 2.3c-1.3 0-2.2-.4-3-1.2l.5-.7zm12.2-7.9c0-.4.3-.7.7-.7c.3 0 .6.3.6.7c0 .3-.3.6-.6.6c-.4 0-.7-.3-.7-.6zm.3 1.9h.8v7.7h-.8v-7.7zm3 6c.5.7 1.4 1.2 2.5 1.2c1.3 0 2.1-.7 2.1-1.6c0-.9-1.1-1.2-2.2-1.5c-1.3-.3-2.7-.7-2.7-2.2c0-1.1 1-2.1 2.7-2.1c1.4 0 2.2.5 2.8 1.2l-.5.5c-.4-.6-1.2-1-2.3-1c-1.2 0-1.9.6-1.9 1.4c0 .9 1 1.1 2.1 1.4c1.3.3 2.8.7 2.8 2.3c0 1.3-1 2.3-2.9 2.3c-1.3 0-2.2-.4-3-1.2l.5-.7zm17.4.8c-.7.7-1.6 1.1-2.6 1.1c-1.4 0-2.7-.9-2.7-2.6c0-1.7 1.3-2.5 2.7-2.5c1 0 1.9.3 2.6 1.1v-1.6c0-1.1-1-1.7-2.1-1.7c-1 0-1.7.3-2.4 1.1l-.5-.6c.8-.9 1.7-1.3 3-1.3c1.5 0 2.8.8 2.8 2.5c-.02-.02 0 5.4 0 5.4h-.8s-.04-.92 0-.9zm0-2.3c-.6-.7-1.4-1.1-2.4-1.1c-1.2 0-2.1.9-2.1 1.9c0 1.1.9 1.9 2.1 1.9c1 0 1.8-.3 2.4-1v-1.7zm13.5-2c0-1.5-.7-1.9-1.8-1.9c-1 0-2 .6-2.5 1.3c-.02-.02 0 5.8 0 5.8h-.8V30.2h.8s-.02 4.07 0 4.1c.5-.7 1.6-1.4 2.7-1.4c1.6 0 2.5.8 2.5 2.5c-.05-.02 0 5.4 0 5.4h-.9s.03-5.24 0-5.2zm3-4.4c0-.4.3-.7.7-.7c.3 0 .6.3.6.7c0 .3-.3.6-.6.6c-.4 0-.7-.3-.7-.6zm.3 1.9h.8v7.7h-.8v-7.7zm3 6c.5.7 1.4 1.2 2.5 1.2c1.3 0 2.1-.7 2.1-1.6c0-.9-1.1-1.2-2.2-1.5c-1.3-.3-2.7-.7-2.7-2.2c0-1.1 1-2.1 2.7-2.1c1.4 0 2.2.5 2.8 1.2l-.5.5c-.4-.6-1.2-1-2.3-1c-1.1 0-1.9.6-1.9 1.4c0 .9 1 1.1 2.1 1.4c1.3.3 2.8.7 2.8 2.3c0 1.3-1 2.3-2.9 2.3c-1.2 0-2.2-.4-3-1.2l.5-.7zm7.5.2v-5.4h-1.3v-.8h1.3V31h.8v2.1h1.6v.8h-1.6s.04 5.28 0 5.3c0 .6.3 1 .8 1c.4 0 .7-.1.9-.3l.3.6c-.3.3-.7.5-1.3.5c-1 0-1.5-.6-1.5-1.7zm3.6-2.4c0-2.2 1.4-4 3.7-4c2.3 0 3.7 1.8 3.7 4c0 2.3-1.4 4.1-3.7 4.1c-2.3 0-3.7-1.8-3.7-4.1zm6.5 0c0-1.7-1-3.2-2.8-3.2c-1.8 0-2.8 1.5-2.8 3.2c0 1.8 1 3.3 2.8 3.3c1.8 0 2.8-1.5 2.8-3.3zm2.9-3.8h.8s-.02 1.33 0 1.3c.6-.8 1.5-1.4 2.6-1.4v.9c-.2-.1-.3-.1-.4-.1c-.8 0-1.9.7-2.2 1.4c-.02-.01 0 5.6 0 5.6h-.8v-7.7zm4.6-1.9c0-.4.3-.7.6-.7c.4 0 .7.3.7.7c0 .3-.3.6-.7.6c-.3 0-.6-.3-.6-.6zm.2 1.9h.9v7.7h-.9v-7.7zm6.6-.2c1.3 0 2.1.5 2.7 1.3l-.6.5c-.6-.7-1.2-1-2.1-1c-1.8 0-2.9 1.4-2.9 3.2c0 1.9 1.1 3.3 2.9 3.3c.9 0 1.5-.3 2.1-1.1l.6.6c-.6.7-1.4 1.3-2.7 1.3c-2.3 0-3.8-1.8-3.8-4.1c0-2.2 1.5-4 3.8-4zm14.7 2.7c0-1.5-.8-1.9-1.9-1.9c-1 0-2 .6-2.5 1.3c.04-.02 0 5.8 0 5.8h-.8V30.2h.8s.04 4.07 0 4.1c.6-.7 1.7-1.4 2.8-1.4c1.6 0 2.4.8 2.4 2.5c.02-.02 0 5.4 0 5.4h-.8v-5.2zm2.8 1.3c0-2.2 1.4-4 3.7-4c2.2 0 3.7 1.8 3.7 4c0 2.3-1.5 4.1-3.7 4.1c-2.3 0-3.7-1.8-3.7-4.1zm6.5 0c0-1.7-1-3.2-2.8-3.2c-1.8 0-2.8 1.5-2.8 3.2c0 1.8 1 3.3 2.8 3.3c1.8 0 2.8-1.5 2.8-3.3zm8 2.8c-.6.7-1.6 1.3-2.7 1.3c-1.6 0-2.5-.8-2.5-2.5c.04.01 0-5.4 0-5.4h.9s-.03 5.22 0 5.2c0 1.5.7 1.9 1.8 1.9c1 0 2-.6 2.5-1.2c.02-.04 0-5.9 0-5.9h.8v7.7h-.8s.02-1.14 0-1.1zm3.1-.6c.5.7 1.4 1.2 2.5 1.2c1.2 0 2-.7 2-1.6c0-.9-1-1.2-2.1-1.5c-1.3-.3-2.7-.7-2.7-2.2c0-1.1 1-2.1 2.7-2.1c1.3 0 2.2.5 2.7 1.2l-.4.5c-.5-.6-1.3-1-2.3-1c-1.2 0-1.9.6-1.9 1.4c0 .9 1 1.1 2 1.4c1.3.3 2.8.7 2.8 2.3c0 1.3-.9 2.3-2.9 2.3c-1.2 0-2.1-.4-2.9-1.2l.5-.7zm10.5-6.2c2.4 0 3.7 1.9 3.7 4.1c-.03-.01 0 .2 0 .2h-6.4c0 1.7 1.1 3.1 2.9 3.1c1 0 1.9-.4 2.6-1.1l.4.5c-.8.8-1.7 1.3-3 1.3c-2.3 0-3.9-1.7-3.9-4.1c0-2.2 1.6-4 3.7-4zm-2.7 3.7h5.5c0-1.3-.8-3-2.8-3c-1.8 0-2.7 1.6-2.7 3zm17.9-2.4l-2.1 6.6h-.8l-2.5-7.7h.9l2 6.5l2.2-6.5h.7l2.1 6.5l2.1-6.5h.9l-2.5 7.7h-.8l-2.2-6.6zm6.6-3c0-.4.3-.7.7-.7c.3 0 .6.3.6.7c0 .3-.3.6-.6.6c-.4 0-.7-.3-.7-.6zm.3 1.9h.8v7.7h-.8v-7.7zm3.3 6.2c.05.01 0-5.4 0-5.4h-1.2v-.8h1.2V31h.9v2.1h1.5v.8h-1.5v5.3c0 .6.2 1 .8 1c.3 0 .7-.1.8-.3l.4.6c-.3.3-.7.5-1.3.5c-1.1 0-1.6-.6-1.6-1.7zm9.3-3.7c0-1.5-.8-1.9-1.9-1.9c-1 0-2 .6-2.5 1.3c.02-.02 0 5.8 0 5.8h-.8V30.2h.8s.02 4.07 0 4.1c.6-.7 1.7-1.4 2.8-1.4c1.5 0 2.4.8 2.4 2.5v5.4h-.8s-.02-5.24 0-5.2zm8.9 6.5c.6.8 1.4 1.1 2.5 1.1c1.4 0 2.6-.7 2.6-2.5v-1.2c-.5.8-1.5 1.4-2.6 1.4c-2.1 0-3.5-1.5-3.5-4c0-2.4 1.4-4 3.5-4c1 0 2 .6 2.6 1.4c.02.05 0-1.2 0-1.2h.9s-.04 7.6 0 7.6c0 2.4-1.6 3.2-3.5 3.2c-1.3 0-2.1-.2-3-1.2l.5-.6zm5.1-7c-.4-.8-1.4-1.4-2.5-1.4c-1.7 0-2.7 1.4-2.7 3.2c0 1.9 1 3.3 2.7 3.3c1.1 0 2.1-.7 2.5-1.4v-3.7zm8.1 4.8c-.6.7-1.5 1.1-2.6 1.1c-1.3 0-2.6-.9-2.6-2.6c0-1.7 1.3-2.5 2.6-2.5c1.1 0 2 .3 2.6 1.1v-1.6c0-1.1-.9-1.7-2-1.7c-1 0-1.7.3-2.4 1.1l-.5-.6c.8-.9 1.7-1.3 3-1.3c1.5 0 2.8.8 2.8 2.5c-.04-.02 0 5.4 0 5.4h-.9s.04-.92 0-.9zm0-2.3c-.5-.7-1.4-1.1-2.3-1.1c-1.3 0-2.1.9-2.1 1.9c0 1.1.8 1.9 2.1 1.9c.9 0 1.8-.3 2.3-1v-1.7zm3.3-4.5h.8v1.3c.7-.8 1.5-1.4 2.6-1.4v.9c-.2-.1-.3-.1-.4-.1c-.8 0-1.8.7-2.2 1.4v5.6h-.8v-7.7zm10.5 6.5c-.5.8-1.5 1.4-2.7 1.4c-2 0-3.4-1.6-3.4-4c0-2.5 1.4-4.1 3.4-4.1c1.1 0 2.1.6 2.7 1.4v-4.1h.8v10.6h-.8v-1.2zm0-4.5c-.4-.8-1.4-1.4-2.5-1.4c-1.7 0-2.7 1.4-2.7 3.3c0 1.8 1 3.2 2.7 3.2c1.1 0 2.1-.6 2.5-1.3v-3.8zm6.5-2.2c2.4 0 3.6 1.9 3.6 4.1c.04-.01 0 .2 0 .2h-6.4c.1 1.7 1.2 3.1 3 3.1c1 0 1.9-.4 2.5-1.1l.5.5c-.8.8-1.8 1.3-3 1.3c-2.3 0-3.9-1.7-3.9-4.1c0-2.2 1.6-4 3.7-4zm-2.8 3.7h5.6c0-1.3-.9-3-2.8-3c-1.8 0-2.7 1.6-2.8 3zm13.6-1c0-1.5-.8-1.9-1.9-1.9c-1 0-2 .6-2.5 1.3c.04-.02 0 5.8 0 5.8h-.8v-7.7h.8s.04 1.17 0 1.2c.6-.7 1.7-1.4 2.8-1.4c1.6 0 2.4.8 2.4 2.5v5.4h-.8v-5.2zm3.1 3.5c.4.7 1.3 1.2 2.4 1.2c1.3 0 2.1-.7 2.1-1.6c0-.9-1.1-1.2-2.2-1.5c-1.3-.3-2.7-.7-2.7-2.2c0-1.1 1-2.1 2.8-2.1c1.3 0 2.2.5 2.7 1.2l-.4.5c-.5-.6-1.3-1-2.3-1c-1.2 0-2 .6-2 1.4c0 .9 1 1.1 2.1 1.4c1.3.3 2.8.7 2.8 2.3c0 1.3-1 2.3-2.9 2.3c-1.2 0-2.2-.4-2.9-1.2l.5-.7zm12.4-8.9h.8v10.6h-.8V30.2zm2.8 6.7c0-2.2 1.5-4 3.7-4c2.3 0 3.7 1.8 3.7 4c0 2.3-1.4 4.1-3.7 4.1c-2.2 0-3.7-1.8-3.7-4.1zm6.5 0c0-1.7-1-3.2-2.8-3.2c-1.8 0-2.8 1.5-2.8 3.2c0 1.8 1 3.3 2.8 3.3c1.8 0 2.8-1.5 2.8-3.3zm6.1-4c1.4 0 2.1.5 2.8 1.3l-.6.5c-.6-.7-1.3-1-2.1-1c-1.8 0-2.9 1.4-2.9 3.2c0 1.9 1.1 3.3 2.9 3.3c.8 0 1.5-.3 2.1-1.1l.6.6c-.7.7-1.4 1.3-2.8 1.3c-2.2 0-3.7-1.8-3.7-4.1c0-2.2 1.5-4 3.7-4zm9.3 7c-.7.7-1.5 1.1-2.6 1.1c-1.3 0-2.7-.9-2.7-2.6c0-1.7 1.4-2.5 2.7-2.5c1.1 0 1.9.3 2.6 1.1v-1.6c0-1.1-.9-1.7-2-1.7c-1 0-1.7.3-2.4 1.1l-.5-.6c.8-.9 1.7-1.3 2.9-1.3c1.6 0 2.8.8 2.8 2.5c.05-.02 0 5.4 0 5.4h-.8s.03-.92 0-.9zm0-2.3c-.5-.7-1.4-1.1-2.3-1.1c-1.3 0-2.1.9-2.1 1.9c0 1.1.8 1.9 2.1 1.9c.9 0 1.8-.3 2.3-1v-1.7zm3.4 1.7c.02.01 0-5.4 0-5.4h-1.2v-.8h1.2V31h.9v2.1h1.5v.8H482s-.04 5.28 0 5.3c0 .6.2 1 .8 1c.3 0 .6-.1.8-.3l.3.6c-.3.3-.6.5-1.3.5c-1 0-1.5-.6-1.5-1.7zm7.3-6.4c2.4 0 3.6 1.9 3.6 4.1c.05-.01 0 .2 0 .2h-6.4c.1 1.7 1.2 3.1 3 3.1c1 0 1.9-.4 2.5-1.1l.5.5c-.8.8-1.8 1.3-3 1.3c-2.3 0-3.9-1.7-3.9-4.1c0-2.2 1.6-4 3.7-4zm-2.8 3.7h5.6c0-1.3-.9-3-2.8-3c-1.8 0-2.7 1.6-2.8 3zm14.1 3c-.6.8-1.6 1.4-2.7 1.4c-2 0-3.4-1.6-3.4-4c0-2.5 1.4-4.1 3.4-4.1c1.1 0 2.1.6 2.7 1.4c-.03.05 0-4.1 0-4.1h.8v10.6h-.8s-.03-1.24 0-1.2zm0-4.5c-.5-.8-1.5-1.4-2.6-1.4c-1.7 0-2.6 1.4-2.6 3.3c0 1.8.9 3.2 2.6 3.2c1.1 0 2.1-.6 2.6-1.3v-3.8zm7.9 1.8c0-2.2 1.5-4 3.7-4c2.3 0 3.7 1.8 3.7 4c0 2.3-1.4 4.1-3.7 4.1c-2.2 0-3.7-1.8-3.7-4.1zm6.5 0c0-1.7-1-3.2-2.8-3.2c-1.8 0-2.8 1.5-2.8 3.2c0 1.8 1 3.3 2.8 3.3c1.8 0 2.8-1.5 2.8-3.3zm8.1-1.3c0-1.5-.8-1.9-1.9-1.9c-1 0-2 .6-2.5 1.3c.02-.02 0 5.8 0 5.8h-.8v-7.7h.8s.02 1.17 0 1.2c.6-.7 1.7-1.4 2.8-1.4c1.5 0 2.4.8 2.4 2.5v5.4h-.8s-.03-5.2 0-5.2z" stroke="none" fill="#000"/></g><g id="Polygon108172"><path d="m10.3 4.1l-3.4 8.4h-.7L2.8 4.1v8.4H1.2V2h2.2l3.1 7.6L9.6 2h2.3v10.5h-1.6V4.1zm8.5 7.6c-.6.7-1.5 1-2.5 1c-1.3 0-2.7-.8-2.7-2.5c0-1.8 1.4-2.5 2.7-2.5c1 0 1.9.3 2.5 1V7.4c0-.9-.8-1.5-1.9-1.5c-.9 0-1.6.3-2.3 1l-.6-1c.8-.8 1.9-1.2 3.1-1.2c1.7 0 3.1.7 3.1 2.7v5.1h-1.4s-.03-.79 0-.8zm0-2.1c-.5-.6-1.2-.9-2-.9c-1 0-1.8.6-1.8 1.5c0 .9.8 1.5 1.8 1.5c.8 0 1.5-.3 2-.8V9.6zm4.1 3.9c.7.7 1.5 1 2.5 1c1.2 0 2.4-.6 2.4-2.2v-1c-.6.8-1.5 1.3-2.5 1.3c-2 0-3.4-1.4-3.4-4c0-2.4 1.4-3.9 3.4-3.9c1 0 1.9.5 2.5 1.3c-.01-.01 0-1.1 0-1.1h1.4s.02 7.34 0 7.3c0 2.7-1.9 3.5-3.8 3.5c-1.3 0-2.2-.3-3.1-1.2l.6-1zm4.9-6.4c-.4-.6-1.3-1.1-2.1-1.1c-1.5 0-2.4 1.1-2.4 2.6c0 1.6.9 2.7 2.4 2.7c.8 0 1.7-.5 2.1-1.1V7.1zm8.7.5c0-1.2-.6-1.6-1.6-1.6c-.9 0-1.7.5-2.1 1.1c-.04-.03 0 5.4 0 5.4h-1.5V4.9h1.5s-.04 1.05 0 1.1c.5-.7 1.5-1.3 2.7-1.3c1.6 0 2.4.8 2.4 2.5c.04-.04 0 5.3 0 5.3h-1.4V7.6zm3.1 1.1c0-2.2 1.5-4 3.9-4c2.4 0 3.8 1.8 3.8 4c0 2.2-1.4 4-3.8 4c-2.4 0-3.9-1.8-3.9-4zm6.2 0c0-1.4-.8-2.7-2.3-2.7c-1.6 0-2.4 1.3-2.4 2.7c0 1.5.8 2.8 2.4 2.8c1.5 0 2.3-1.3 2.3-2.8zM49 2h1.4v10.5H49V2zm3.3.7c0-.5.4-.9.9-.9c.5 0 .9.4.9.9c0 .5-.4.9-.9.9c-.5 0-.9-.4-.9-.9zm.2 2.2h1.5v7.6h-1.5V4.9zm8.3 6.8c-.6.7-1.5 1-2.5 1c-1.3 0-2.7-.8-2.7-2.5c0-1.8 1.4-2.5 2.7-2.5c1 0 1.9.3 2.5 1V7.4c0-.9-.8-1.5-1.9-1.5c-.9 0-1.6.3-2.3 1l-.6-1c.9-.8 1.9-1.2 3.1-1.2c1.7 0 3.1.7 3.1 2.7c.03-.03 0 5.1 0 5.1h-1.4v-.8zm0-2.1c-.4-.6-1.2-.9-2-.9c-1 0-1.7.6-1.7 1.5c0 .9.7 1.5 1.7 1.5c.8 0 1.6-.3 2-.8V9.6zM68.3 2s4.49-.05 4.5 0c2.2 0 3.4 1.4 3.4 3.2c0 1.8-1.3 3.3-3.4 3.3c-.01-.04-2.9 0-2.9 0v4h-1.6V2zm4.3 1.4c-.02-.05-2.7 0-2.7 0v3.7s2.68-.03 2.7 0c1.1 0 1.9-.8 1.9-1.9c0-1.1-.8-1.8-1.9-1.8zm5-1.4h1.4v10.5h-1.4V2zm8.3 9.7c-.6.7-1.5 1-2.5 1c-1.3 0-2.7-.8-2.7-2.5c0-1.8 1.4-2.5 2.7-2.5c1 0 1.9.3 2.5 1V7.4c0-.9-.8-1.5-1.9-1.5c-.9 0-1.6.3-2.3 1l-.6-1c.9-.8 1.9-1.2 3.1-1.2c1.7 0 3.1.7 3.1 2.7c.02-.03 0 5.1 0 5.1h-1.4v-.8zm0-2.1c-.4-.6-1.2-.9-2-.9c-1 0-1.7.6-1.7 1.5c0 .9.7 1.5 1.7 1.5c.8 0 1.6-.3 2-.8V9.6zm8.7-2C94.6 6.4 94 6 93 6c-.9 0-1.7.5-2.1 1.1c-.02-.03 0 5.4 0 5.4h-1.5V4.9h1.5s-.02 1.05 0 1.1c.5-.7 1.5-1.3 2.7-1.3c1.6 0 2.5.8 2.5 2.5c-.05-.04 0 5.3 0 5.3h-1.5s.03-4.86 0-4.9zm3.9 3.2c-.05.05 0-4.7 0-4.7h-1.3V4.9h1.3V2.8h1.4v2.1h1.5v1.2h-1.5s-.02 4.43 0 4.4c0 .6.2 1 .7 1c.4 0 .7-.2.8-.3l.4 1c-.3.3-.8.5-1.5.5c-1.2 0-1.8-.6-1.8-1.9zm9.1.9c-.6.7-1.5 1-2.5 1c-1.3 0-2.7-.8-2.7-2.5c0-1.8 1.4-2.5 2.7-2.5c1 0 1.9.3 2.5 1V7.4c0-.9-.8-1.5-1.9-1.5c-.8 0-1.6.3-2.3 1l-.6-1c.9-.8 1.9-1.2 3.1-1.2c1.7 0 3.1.7 3.1 2.7c.03-.03 0 5.1 0 5.1h-1.4v-.8zm0-2.1c-.4-.6-1.2-.9-2-.9c-1 0-1.7.6-1.7 1.5c0 .9.7 1.5 1.7 1.5c.8 0 1.6-.3 2-.8V9.6zm3.8 1.2c.05.05 0-4.7 0-4.7h-1.2V4.9h1.2V2.8h1.5v2.1h1.5v1.2h-1.5s-.03 4.43 0 4.4c0 .6.2 1 .7 1c.4 0 .7-.2.8-.3l.4 1c-.3.3-.8.5-1.5.5c-1.2 0-1.9-.6-1.9-1.9zm4.2-8.1c0-.5.5-.9 1-.9c.5 0 .9.4.9.9c0 .5-.4.9-.9.9c-.5 0-1-.4-1-.9zm.3 2.2h1.4v7.6h-1.4V4.9zm3 3.8c0-2.2 1.5-4 3.9-4c2.4 0 3.9 1.8 3.9 4c0 2.2-1.5 4-3.9 4c-2.4 0-3.9-1.8-3.9-4zm6.3 0c0-1.4-.9-2.7-2.4-2.7c-1.5 0-2.4 1.3-2.4 2.7c0 1.5.9 2.8 2.4 2.8c1.5 0 2.4-1.3 2.4-2.8zm8.3-1.1c0-1.2-.6-1.6-1.6-1.6c-.9 0-1.7.5-2.1 1.1c-.04-.03 0 5.4 0 5.4h-1.5V4.9h1.5s-.04 1.05 0 1.1c.5-.7 1.5-1.3 2.7-1.3c1.6 0 2.4.8 2.4 2.5c.03-.04 0 5.3 0 5.3h-1.4V7.6zm14.2 2.8h-5.2l-.8 2.1h-1.8L144.1 2h2l4.2 10.5h-1.7l-.9-2.1zM143 8.9h4.3l-2.2-5.6l-2.1 5.6zm13.6-1.3c0-1.2-.7-1.6-1.7-1.6c-.8 0-1.7.5-2.1 1.1c.03-.03 0 5.4 0 5.4h-1.4V4.9h1.4s.03 1.05 0 1.1c.5-.7 1.6-1.3 2.7-1.3c1.7 0 2.5.8 2.5 2.5v5.3h-1.4s-.02-4.86 0-4.9zm9 3.9c-.6.7-1.5 1.2-2.5 1.2c-2 0-3.5-1.5-3.5-4c0-2.4 1.5-4 3.5-4c1 0 1.9.5 2.5 1.3v-4h1.4v10.5h-1.4v-1zm0-4.4c-.4-.6-1.3-1.1-2.1-1.1c-1.5 0-2.4 1.1-2.4 2.7c0 1.6.9 2.8 2.4 2.8c.8 0 1.7-.5 2.1-1.1V7.1zm12.6-5.3c2 0 3.3.9 4.2 2.1l-1.3.7c-.6-.8-1.7-1.4-2.9-1.4c-2.2 0-3.9 1.7-3.9 4.1c0 2.3 1.7 4 3.9 4c1.1 0 2.1-.5 2.7-1c-.05-.01 0-1.9 0-1.9h-3.4V7h4.9s.04 3.88 0 3.9c-1 1.1-2.4 1.9-4.2 1.9c-3.1 0-5.5-2.2-5.5-5.5c0-3.3 2.4-5.5 5.5-5.5zm10.8 9.9c-.6.7-1.5 1-2.5 1c-1.3 0-2.7-.8-2.7-2.5c0-1.8 1.4-2.5 2.7-2.5c1 0 1.9.3 2.5 1V7.4c0-.9-.8-1.5-1.9-1.5c-.8 0-1.6.3-2.3 1l-.6-1c.9-.8 1.9-1.2 3.2-1.2c1.6 0 3 .7 3 2.7c.04-.03 0 5.1 0 5.1H189v-.8zm0-2.1c-.4-.6-1.2-.9-2-.9c-1 0-1.7.6-1.7 1.5c0 .9.7 1.5 1.7 1.5c.8 0 1.6-.3 2-.8V9.6zm3.6-4.7h1.4v1.2c.6-.8 1.5-1.4 2.5-1.4v1.4h-.5c-.7 0-1.7.5-2 1.1v5.3h-1.4V4.9zm10.6 6.6c-.5.7-1.4 1.2-2.5 1.2c-2 0-3.4-1.5-3.4-4c0-2.4 1.4-4 3.4-4c1 0 1.9.5 2.5 1.3c.04-.01 0-4 0-4h1.5v10.5h-1.5s.04-1.05 0-1zm0-4.4c-.4-.6-1.2-1.1-2.1-1.1c-1.4 0-2.3 1.1-2.3 2.7c0 1.6.9 2.8 2.3 2.8c.9 0 1.7-.5 2.1-1.1V7.1zm7-2.4c2.3 0 3.7 1.8 3.7 4.1v.4s-6.07-.02-6.1 0c.1 1.3 1.1 2.4 2.6 2.4c.8 0 1.7-.4 2.3-.9l.7.9c-.8.7-1.9 1.1-3.1 1.1c-2.3 0-4-1.6-4-4c0-2.2 1.6-4 3.9-4zm-2.4 3.4h4.7c0-1-.7-2.2-2.3-2.2c-1.6 0-2.3 1.2-2.4 2.2zm12.9-.5c0-1.2-.6-1.6-1.6-1.6c-.9 0-1.7.5-2.1 1.1c-.04-.03 0 5.4 0 5.4h-1.5V4.9h1.5s-.04 1.05 0 1.1c.5-.7 1.5-1.3 2.7-1.3c1.6 0 2.4.8 2.4 2.5c.04-.04 0 5.3 0 5.3h-1.4V7.6zm3.6 2.9c.5.6 1.5 1.1 2.5 1.1c1.1 0 1.7-.4 1.7-1.1c0-.8-.9-1-1.9-1.2c-1.3-.3-2.8-.7-2.8-2.3c0-1.3 1.1-2.3 2.9-2.3c1.4 0 2.3.5 3 1.1l-.7 1c-.4-.6-1.3-1-2.3-1c-.9 0-1.5.4-1.5 1c0 .7.8.9 1.8 1.2c1.3.3 2.9.6 2.9 2.4c0 1.3-1.1 2.3-3.1 2.3c-1.3 0-2.4-.4-3.2-1.2l.7-1z" stroke="none" fill="#3797ef"/></g></svg>