<?xml version="1.0" standalone="no"?><!DOCTYPE svg PUBLIC "-//W3C//DTD SVG 1.1//EN" "http://www.w3.org/Graphics/SVG/1.1/DTD/svg11.dtd"><svg xmlns="http://www.w3.org/2000/svg" version="1.1" width="134.3px" height="15.9px" viewBox="0 -4 134.3 15.9" style="top:-4px"><desc>29406</desc><defs/><g id="Polygon88045"><path d="m108.7 6.7c2-1.7 3.4-2.8 3.4-4c0-.9-.7-1.2-1.4-1.2c-.7 0-1.3.3-1.6.8l-.4-.4c.5-.5 1.2-.9 2-.9c.9 0 1.9.5 1.9 1.7c0 1.3-1.4 2.5-3.1 3.9c-.01.04 3.2 0 3.2 0v.5h-4v-.4zm5.8-.6c.3.4.7.6 1.4.6c1.3 0 1.7-1.3 1.7-2.6v-.3c-.2.4-.9 1-1.7 1c-1.1 0-2-.6-2-1.9c0-1 .8-1.9 2.1-1.9c1.6 0 2.2 1.5 2.2 3.1c0 1.6-.7 3.1-2.3 3.1c-.8 0-1.3-.3-1.7-.8l.3-.3zm1.5-4.6c-1.1 0-1.5.8-1.5 1.4c0 1 .6 1.5 1.5 1.5c.6 0 1.3-.5 1.6-1.1c-.1-.8-.5-1.8-1.6-1.8zm5.8 4H119v-.5l2.7-3.9h.7v3.9h.8v.5h-.8v1.6h-.6V5.5zm-2.3-.5h2.3V1.6L119.5 5zm6.8-4c1.6 0 2.2 1.7 2.2 3.1c0 1.4-.6 3.1-2.2 3.1c-1.6 0-2.2-1.7-2.2-3.1c0-1.4.6-3.1 2.2-3.1zm0 .5c-1.3 0-1.7 1.4-1.7 2.6c0 1.2.4 2.7 1.7 2.7c1.2 0 1.7-1.5 1.7-2.7c0-1.2-.4-2.6-1.7-2.6zm5.5-.5c.8 0 1.3.3 1.7.8l-.3.4c-.3-.4-.7-.7-1.4-.7c-1.3 0-1.7 1.3-1.7 2.6v.3c.2-.4.9-1 1.7-1c1.1 0 2 .6 2 1.9c0 1-.8 1.9-2 1.9c-1.7 0-2.3-1.5-2.3-3.1c0-1.5.7-3.1 2.3-3.1zm-.1 2.9c-.6 0-1.3.4-1.6 1c.1.8.5 1.9 1.6 1.9c1.1 0 1.5-.8 1.5-1.5c0-1-.6-1.4-1.5-1.4z" stroke="none" fill="#000"/></g></svg>