<?xml version="1.0" standalone="no"?><!DOCTYPE svg PUBLIC "-//W3C//DTD SVG 1.1//EN" "http://www.w3.org/Graphics/SVG/1.1/DTD/svg11.dtd"><svg xmlns="http://www.w3.org/2000/svg" version="1.1" width="335px" height="28.3px" viewBox="0 -6 335 28.3" style="top:-6px"><desc>NUMBER OF LOCATIONS</desc><defs/><g id="Polygon292532"><path d="m2.8 4.4v8.1H1.2V2h1.6l5.8 7.9V2h1.6v10.5H8.6L2.8 4.4zM12.4 2h1.6s-.04 6.35 0 6.4c0 1.8 1 2.9 2.8 2.9c1.9 0 2.9-1.1 2.9-2.9c-.04-.05 0-6.4 0-6.4h1.6s-.04 6.39 0 6.4c0 2.6-1.5 4.3-4.5 4.3c-3 0-4.4-1.7-4.4-4.3c-.04 0 0-6.4 0-6.4zm20.2 2.1l-3.4 8.4h-.7l-3.4-8.4v8.4h-1.6V2h2.2l3.1 7.6L31.9 2h2.3v10.5h-1.6V4.1zM36.4 2s4.94-.05 4.9 0c1.9 0 3 1.1 3 2.7c0 1.3-.9 2.2-1.8 2.4c1.1.2 2 1.3 2 2.6c0 1.7-1.1 2.8-3 2.8c-.04.04-5.1 0-5.1 0V2zM41 6.4c1.1 0 1.7-.6 1.7-1.5c0-.9-.6-1.6-1.7-1.6c.03.05-3 0-3 0v3.1s3.03.05 3 0zm.1 4.7c1.1 0 1.8-.6 1.8-1.6c0-.9-.6-1.7-1.8-1.7c.01.04-3.1 0-3.1 0v3.3s3.11.05 3.1 0zM46.3 2h7.2v1.3h-5.6v3.1h5.4v1.4h-5.4v3.3h5.6v1.4h-7.2V2zm12.6 6.5h-2v4h-1.6V2s4.44-.05 4.4 0c2.1 0 3.4 1.3 3.4 3.2c0 1.9-1.2 2.9-2.6 3.1l2.7 4.2h-1.8l-2.5-4zm.6-5.2c.03.05-2.6 0-2.6 0v3.8s2.63-.03 2.6 0c1.2 0 2-.8 2-1.9c0-1.1-.8-1.9-2-1.9zm14.3-1.5c3.1 0 5.3 2.3 5.3 5.5c0 3.1-2.2 5.4-5.3 5.4c-3.2 0-5.4-2.3-5.4-5.4c0-3.2 2.2-5.5 5.4-5.5zm0 1.4c-2.3 0-3.7 1.7-3.7 4.1c0 2.3 1.4 4 3.7 4c2.2 0 3.7-1.7 3.7-4c0-2.4-1.5-4.1-3.7-4.1zM80.9 2h7.1v1.3h-5.6v3.1h5.5v1.4h-5.5v4.7h-1.5V2zm12.6 0h1.6v9.1h4.8v1.4h-6.4V2zm12.3-.2c3.2 0 5.4 2.3 5.4 5.5c0 3.1-2.2 5.4-5.4 5.4c-3.1 0-5.3-2.3-5.3-5.4c0-3.2 2.2-5.5 5.3-5.5zm0 1.4c-2.2 0-3.7 1.7-3.7 4.1c0 2.3 1.5 4 3.7 4c2.3 0 3.7-1.7 3.7-4c0-2.4-1.4-4.1-3.7-4.1zm6.7 4.1c0-3.3 2.4-5.5 5.4-5.5c2.1 0 3.4 1 4.2 2.2l-1.3.7c-.6-.9-1.6-1.5-2.9-1.5c-2.1 0-3.8 1.7-3.8 4.1c0 2.3 1.7 4 3.8 4c1.3 0 2.3-.6 2.9-1.5l1.3.7c-.8 1.2-2.1 2.2-4.2 2.2c-3 0-5.4-2.2-5.4-5.4zm17.7 3.1H125l-.9 2.1h-1.7L126.6 2h2l4.2 10.5h-1.7l-.9-2.1zm-4.7-1.5h4.2l-2.1-5.6l-2.1 5.6zm10-5.6h-3.3V2h8.1v1.3H137v9.2h-1.5V3.3zm6.3-1.3h1.6v10.5h-1.6V2zm8.7-.2c3.2 0 5.3 2.3 5.3 5.5c0 3.1-2.1 5.4-5.3 5.4c-3.2 0-5.3-2.3-5.3-5.4c0-3.2 2.1-5.5 5.3-5.5zm0 1.4c-2.3 0-3.7 1.7-3.7 4.1c0 2.3 1.4 4 3.7 4c2.2 0 3.7-1.7 3.7-4c0-2.4-1.5-4.1-3.7-4.1zm8.7 1.2v8.1h-1.6V2h1.6l5.8 7.9V2h1.6v10.5H165l-5.8-8.1zm9.8 5.4c.7.8 1.9 1.5 3.4 1.5c1.7 0 2.3-.9 2.3-1.6c0-1.1-1.2-1.4-2.6-1.8c-1.7-.4-3.6-.9-3.6-3.1c0-1.7 1.5-3 3.7-3c1.6 0 2.9.5 3.9 1.5l-1 1.1c-.8-.8-1.9-1.2-3-1.2c-1.2 0-2 .6-2 1.5c0 1 1.1 1.3 2.5 1.6c1.7.4 3.7 1 3.7 3.2c0 1.7-1.1 3.2-4 3.2c-1.9 0-3.3-.6-4.2-1.6l.9-1.3z" stroke="none" fill="#3797ef"/></g></svg>