<?xml version="1.0" standalone="no"?><!DOCTYPE svg PUBLIC "-//W3C//DTD SVG 1.1//EN" "http://www.w3.org/Graphics/SVG/1.1/DTD/svg11.dtd"><svg xmlns="http://www.w3.org/2000/svg" version="1.1" width="248px" height="28.3px" viewBox="0 -6 248 28.3" style="top:-6px"><desc>ROTATE PHONE</desc><defs/><g id="Polygon279211"><path d="m71.1 8.5h-2v4h-1.6V2s4.49-.05 4.5 0c2 0 3.4 1.3 3.4 3.2c0 1.9-1.3 2.9-2.6 3.1c-.04 0 2.7 4.2 2.7 4.2h-1.9l-2.5-4zm.7-5.2c-.01.05-2.7 0-2.7 0v3.8s2.69-.03 2.7 0c1.1 0 2-.8 2-1.9c0-1.1-.9-1.9-2-1.9zm10.4-1.5c3.2 0 5.4 2.3 5.4 5.5c0 3.1-2.2 5.4-5.4 5.4c-3.1 0-5.3-2.3-5.3-5.4c0-3.2 2.2-5.5 5.3-5.5zm0 1.4c-2.2 0-3.7 1.7-3.7 4.1c0 2.3 1.5 4 3.7 4c2.3 0 3.7-1.7 3.7-4c0-2.4-1.4-4.1-3.7-4.1zm9.5.1h-3.3V2h8.1v1.3h-3.2v9.2h-1.6V3.3zm12.1 7.1h-5.2l-.8 2.1H96L100.2 2h2l4.2 10.5h-1.7l-.9-2.1zm-4.7-1.5h4.3l-2.2-5.6l-2.1 5.6zm10.2-5.6H106V2h8.1v1.3h-3.3v9.2h-1.5V3.3zm6.5-1.3h7.1v1.3h-5.6v3.1h5.5v1.4h-5.5v3.3h5.6v1.4h-7.1V2zM129 2s4.42-.05 4.4 0c2.2 0 3.4 1.4 3.4 3.2c0 1.8-1.2 3.3-3.4 3.3c.02-.04-2.9 0-2.9 0v4H129V2zm4.2 1.3c.01.05-2.7 0-2.7 0v3.8s2.71-.03 2.7 0c1.2 0 2-.8 2-1.9c0-1.1-.8-1.9-2-1.9zm12.7 4.5H140v4.7h-1.6V2h1.6v4.4h5.9V2h1.6v10.5h-1.6V7.8zm8.8-6c3.2 0 5.3 2.3 5.3 5.5c0 3.1-2.1 5.4-5.3 5.4c-3.1 0-5.3-2.3-5.3-5.4c0-3.2 2.2-5.5 5.3-5.5zm0 1.4c-2.3 0-3.7 1.7-3.7 4.1c0 2.3 1.4 4 3.7 4c2.3 0 3.7-1.7 3.7-4c0-2.4-1.4-4.1-3.7-4.1zm8.9 1.2v8.1H162V2h1.6l5.8 7.9V2h1.6v10.5h-1.6l-5.8-8.1zm9.7-2.4h7.1v1.3h-5.5v3.1h5.4v1.4h-5.4v3.3h5.5v1.4h-7.1V2z" stroke="none" fill="#cccccc"/></g></svg>