<?xml version="1.0" standalone="no"?>
<!DOCTYPE svg PUBLIC "-//W3C//DTD SVG 1.1//EN" "http://www.w3.org/Graphics/SVG/1.1/DTD/svg11.dtd">
<svg xmlns="http://www.w3.org/2000/svg" version="1.1" width="88px" height="16.9px" viewBox="0 -4 88 16.9" style="top:-4px">
  <desc>PAGE</desc>
  <defs/>
  <g id="Polygon205332">
    <path d="M 0.7 1.1 C 0.7 1.1 3.2 1.11 3.2 1.1 C 4.4 1.1 5.1 2 5.1 3 C 5.1 4 4.4 4.8 3.2 4.8 C 3.2 4.8 1.6 4.8 1.6 4.8 L 1.6 7.1 L 0.7 7.1 L 0.7 1.1 Z M 3.1 1.9 C 3.08 1.9 1.6 1.9 1.6 1.9 L 1.6 4 C 1.6 4 3.08 4.01 3.1 4 C 3.7 4 4.2 3.6 4.2 3 C 4.2 2.3 3.7 1.9 3.1 1.9 Z M 9.1 5.9 L 6.1 5.9 L 5.6 7.1 L 4.6 7.1 L 7 1.1 L 8.2 1.1 L 10.5 7.1 L 9.5 7.1 L 9.1 5.9 Z M 6.4 5.1 L 8.8 5.1 L 7.6 1.9 L 6.4 5.1 Z M 13.7 1 C 14.8 1 15.6 1.5 16.1 2.2 C 16.1 2.2 15.4 2.6 15.4 2.6 C 15 2.2 14.4 1.8 13.7 1.8 C 12.5 1.8 11.5 2.8 11.5 4.1 C 11.5 5.5 12.5 6.4 13.7 6.4 C 14.4 6.4 14.9 6.1 15.2 5.8 C 15.23 5.83 15.2 4.8 15.2 4.8 L 13.3 4.8 L 13.3 4 L 16.1 4 C 16.1 4 16.13 6.17 16.1 6.2 C 15.6 6.8 14.7 7.2 13.7 7.2 C 12 7.2 10.6 6 10.6 4.1 C 10.6 2.2 12 1 13.7 1 Z M 17.2 1.1 L 21.2 1.1 L 21.2 1.9 L 18.1 1.9 L 18.1 3.7 L 21.2 3.7 L 21.2 4.4 L 18.1 4.4 L 18.1 6.3 L 21.2 6.3 L 21.2 7.1 L 17.2 7.1 L 17.2 1.1 Z " stroke="none" fill="#3797ef"/>
  </g>
</svg>