<?xml version="1.0" standalone="no"?>
<!DOCTYPE svg PUBLIC "-//W3C//DTD SVG 1.1//EN" "http://www.w3.org/Graphics/SVG/1.1/DTD/svg11.dtd">
<svg xmlns="http://www.w3.org/2000/svg" version="1.1" width="145.5px" height="276.3px" viewBox="0 -6 145.5 276.3" style="top:-6px">
  <desc>Real Estate Taxes Insurance Roof &amp; Structure Lease Guarantor Company Name Ownership Years in Business Number of Locat</desc>
  <defs/>
  <g id="Polygon210247">
    <path d="M 1.6 257.8 L 0.6 258.5 L 0.4 258 L 1.4 257.5 L 0.4 256.9 L 0.6 256.5 L 1.6 257.2 L 1.6 256 L 2 256 L 2 257.2 L 3 256.5 L 3.2 256.9 L 2.2 257.5 L 3.2 258 L 3 258.5 L 2 257.8 L 2 259 L 1.6 259 L 1.6 257.8 Z M 7.5 256 C 9.6 256 11 257.5 11 259.6 C 11 261.7 9.6 263.3 7.5 263.3 C 5.4 263.3 4 261.7 4 259.6 C 4 257.5 5.4 256 7.5 256 Z M 7.5 256.7 C 6 256.7 4.9 258 4.9 259.6 C 4.9 261.3 6 262.5 7.5 262.5 C 9.1 262.5 10.1 261.3 10.1 259.6 C 10.1 258 9.1 256.7 7.5 256.7 Z M 12.3 265.1 L 12.3 258 L 13.1 258 C 13.1 258 13.08 258.78 13.1 258.8 C 13.4 258.3 14.1 257.9 14.8 257.9 C 16.1 257.9 17.1 258.9 17.1 260.6 C 17.1 262.2 16.1 263.3 14.8 263.3 C 14.1 263.3 13.5 262.9 13.1 262.4 C 13.08 262.36 13.1 265.1 13.1 265.1 L 12.3 265.1 Z M 14.6 258.6 C 14 258.6 13.4 259 13.1 259.4 C 13.1 259.4 13.1 261.7 13.1 261.7 C 13.4 262.2 14 262.6 14.6 262.6 C 15.6 262.6 16.2 261.7 16.2 260.6 C 16.2 259.4 15.6 258.6 14.6 258.6 Z M 18.4 262.1 C 18.41 262.07 18.4 258.7 18.4 258.7 L 17.6 258.7 L 17.6 258 L 18.4 258 L 18.4 256.6 L 19.2 256.6 L 19.2 258 L 20.2 258 L 20.2 258.7 L 19.2 258.7 C 19.2 258.7 19.21 261.9 19.2 261.9 C 19.2 262.3 19.4 262.6 19.7 262.6 C 19.9 262.6 20.2 262.5 20.3 262.3 C 20.3 262.3 20.5 262.9 20.5 262.9 C 20.3 263.1 20 263.3 19.5 263.3 C 18.8 263.3 18.4 262.8 18.4 262.1 Z M 21.1 256.6 C 21.1 256.3 21.4 256.1 21.7 256.1 C 21.9 256.1 22.2 256.3 22.2 256.6 C 22.2 256.9 21.9 257.2 21.7 257.2 C 21.4 257.2 21.1 256.9 21.1 256.6 Z M 21.3 258 L 22.1 258 L 22.1 263.1 L 21.3 263.1 L 21.3 258 Z M 23.2 260.6 C 23.2 259.1 24.2 257.9 25.8 257.9 C 27.3 257.9 28.3 259.1 28.3 260.6 C 28.3 262.1 27.3 263.3 25.8 263.3 C 24.2 263.3 23.2 262.1 23.2 260.6 Z M 27.5 260.6 C 27.5 259.5 26.9 258.6 25.8 258.6 C 24.7 258.6 24.1 259.5 24.1 260.6 C 24.1 261.6 24.7 262.6 25.8 262.6 C 26.9 262.6 27.5 261.6 27.5 260.6 Z M 32.9 259.8 C 32.9 258.9 32.5 258.6 31.8 258.6 C 31.2 258.6 30.6 259 30.3 259.4 C 30.28 259.4 30.3 263.1 30.3 263.1 L 29.5 263.1 L 29.5 258 L 30.3 258 C 30.3 258 30.28 258.76 30.3 258.8 C 30.6 258.3 31.3 257.9 32.1 257.9 C 33.2 257.9 33.7 258.4 33.7 259.5 C 33.73 259.55 33.7 263.1 33.7 263.1 L 32.9 263.1 C 32.9 263.1 32.94 259.79 32.9 259.8 Z M 38.4 262.6 C 38 263 37.4 263.3 36.7 263.3 C 35.9 263.3 34.9 262.7 34.9 261.6 C 34.9 260.4 35.9 259.9 36.7 259.9 C 37.4 259.9 38 260.1 38.4 260.6 C 38.4 260.6 38.4 259.7 38.4 259.7 C 38.4 259 37.9 258.6 37.1 258.6 C 36.5 258.6 36 258.8 35.6 259.3 C 35.6 259.3 35.2 258.7 35.2 258.7 C 35.7 258.2 36.4 257.9 37.2 257.9 C 38.3 257.9 39.2 258.4 39.2 259.6 C 39.21 259.62 39.2 263.1 39.2 263.1 L 38.4 263.1 C 38.4 263.1 38.41 262.55 38.4 262.6 Z M 38.4 261.1 C 38.1 260.7 37.6 260.5 37 260.5 C 36.3 260.5 35.7 260.9 35.7 261.6 C 35.7 262.2 36.3 262.7 37 262.7 C 37.6 262.7 38.1 262.5 38.4 262.1 C 38.4 262.1 38.4 261.1 38.4 261.1 Z M 40.7 256.1 L 41.5 256.1 L 41.5 263.1 L 40.7 263.1 L 40.7 256.1 Z M 46.5 257.4 L 46.5 263.1 L 45.6 263.1 L 45.6 256.1 L 46.5 256.1 L 50.6 261.7 L 50.6 256.1 L 51.5 256.1 L 51.5 263.1 L 50.6 263.1 L 46.5 257.4 Z M 52.7 260.6 C 52.7 259.1 53.7 257.9 55.2 257.9 C 56.8 257.9 57.7 259.1 57.7 260.6 C 57.7 262.1 56.8 263.3 55.2 263.3 C 53.7 263.3 52.7 262.1 52.7 260.6 Z M 56.9 260.6 C 56.9 259.5 56.3 258.6 55.2 258.6 C 54.1 258.6 53.5 259.5 53.5 260.6 C 53.5 261.6 54.1 262.6 55.2 262.6 C 56.3 262.6 56.9 261.6 56.9 260.6 Z M 59.1 262.1 C 59.09 262.07 59.1 258.7 59.1 258.7 L 58.2 258.7 L 58.2 258 L 59.1 258 L 59.1 256.6 L 59.9 256.6 L 59.9 258 L 60.9 258 L 60.9 258.7 L 59.9 258.7 C 59.9 258.7 59.89 261.9 59.9 261.9 C 59.9 262.3 60.1 262.6 60.4 262.6 C 60.6 262.6 60.8 262.5 60.9 262.3 C 60.9 262.3 61.2 262.9 61.2 262.9 C 61 263.1 60.7 263.3 60.2 263.3 C 59.5 263.3 59.1 262.8 59.1 262.1 Z M 64.2 257.9 C 65.7 257.9 66.6 259.1 66.6 260.6 C 66.62 260.64 66.6 260.8 66.6 260.8 C 66.6 260.8 62.48 260.84 62.5 260.8 C 62.5 261.8 63.2 262.6 64.3 262.6 C 64.9 262.6 65.5 262.4 65.9 262 C 65.9 262 66.3 262.5 66.3 262.5 C 65.8 263 65.1 263.3 64.2 263.3 C 62.7 263.3 61.6 262.2 61.6 260.6 C 61.6 259.1 62.7 257.9 64.2 257.9 Z M 62.5 260.3 C 62.5 260.3 65.8 260.3 65.8 260.3 C 65.8 259.5 65.3 258.5 64.2 258.5 C 63.1 258.5 62.5 259.5 62.5 260.3 Z " stroke="none" fill="#88898a"/>
  </g>
  <g id="Polygon210246">
    <path d="M 2.8 226.8 L 2.8 234.9 L 1.2 234.9 L 1.2 224.3 L 2.8 224.3 L 8.6 232.2 L 8.6 224.3 L 10.2 224.3 L 10.2 234.9 L 8.6 234.9 L 2.8 226.8 Z M 17.5 233.9 C 16.9 234.5 15.9 235.1 14.8 235.1 C 13.1 235.1 12.3 234.3 12.3 232.6 C 12.33 232.65 12.3 227.2 12.3 227.2 L 13.8 227.2 C 13.8 227.2 13.75 232.17 13.8 232.2 C 13.8 233.4 14.4 233.8 15.4 233.8 C 16.3 233.8 17.1 233.3 17.5 232.7 C 17.5 232.74 17.5 227.2 17.5 227.2 L 18.9 227.2 L 18.9 234.9 L 17.5 234.9 C 17.5 234.9 17.5 233.85 17.5 233.9 Z M 30.4 229.8 C 30.4 228.9 30 228.3 29 228.3 C 28.3 228.3 27.5 228.8 27.1 229.4 C 27.13 229.4 27.1 234.9 27.1 234.9 L 25.7 234.9 C 25.7 234.9 25.7 229.78 25.7 229.8 C 25.7 228.9 25.3 228.3 24.3 228.3 C 23.6 228.3 22.9 228.9 22.5 229.4 C 22.47 229.42 22.5 234.9 22.5 234.9 L 21 234.9 L 21 227.2 L 22.5 227.2 C 22.5 227.2 22.47 228.31 22.5 228.3 C 22.8 227.8 23.8 227 25 227 C 26.1 227 26.8 227.6 27 228.5 C 27.5 227.8 28.5 227 29.6 227 C 31 227 31.8 227.8 31.8 229.4 C 31.8 229.36 31.8 234.9 31.8 234.9 L 30.4 234.9 C 30.4 234.9 30.37 229.78 30.4 229.8 Z M 33.9 224.3 L 35.3 224.3 C 35.3 224.3 35.34 228.34 35.3 228.3 C 35.9 227.5 36.8 227 37.8 227 C 39.8 227 41.3 228.6 41.3 231.1 C 41.3 233.6 39.8 235.1 37.8 235.1 C 36.8 235.1 35.9 234.6 35.3 233.8 C 35.34 233.8 35.3 234.9 35.3 234.9 L 33.9 234.9 L 33.9 224.3 Z M 37.5 233.8 C 38.9 233.8 39.8 232.7 39.8 231.1 C 39.8 229.5 38.9 228.3 37.5 228.3 C 36.6 228.3 35.7 228.8 35.3 229.5 C 35.3 229.5 35.3 232.7 35.3 232.7 C 35.7 233.3 36.6 233.8 37.5 233.8 Z M 46.3 227 C 48.6 227 50 228.8 50 231.2 C 50.03 231.18 50 231.5 50 231.5 C 50 231.5 43.96 231.53 44 231.5 C 44.1 232.8 45 233.9 46.6 233.9 C 47.4 233.9 48.3 233.6 48.8 233 C 48.8 233 49.5 233.9 49.5 233.9 C 48.7 234.7 47.7 235.1 46.4 235.1 C 44.1 235.1 42.5 233.5 42.5 231.1 C 42.5 228.8 44.1 227 46.3 227 Z M 43.9 230.5 C 43.9 230.5 48.6 230.5 48.6 230.5 C 48.6 229.5 47.9 228.2 46.3 228.2 C 44.8 228.2 44 229.5 43.9 230.5 Z M 51.7 227.2 L 53.1 227.2 C 53.1 227.2 53.09 228.4 53.1 228.4 C 53.7 227.6 54.6 227.1 55.6 227.1 C 55.6 227.1 55.6 228.5 55.6 228.5 C 55.5 228.5 55.3 228.5 55.1 228.5 C 54.4 228.5 53.4 229 53.1 229.6 C 53.09 229.56 53.1 234.9 53.1 234.9 L 51.7 234.9 L 51.7 227.2 Z M 60.3 231.1 C 60.3 228.8 61.8 227 64.2 227 C 66.6 227 68.1 228.8 68.1 231.1 C 68.1 233.3 66.6 235.1 64.2 235.1 C 61.8 235.1 60.3 233.3 60.3 231.1 Z M 66.6 231.1 C 66.6 229.6 65.8 228.3 64.2 228.3 C 62.7 228.3 61.8 229.6 61.8 231.1 C 61.8 232.5 62.7 233.8 64.2 233.8 C 65.8 233.8 66.6 232.5 66.6 231.1 Z M 70.1 228.5 L 68.8 228.5 L 68.8 227.2 L 70.1 227.2 C 70.1 227.2 70.09 226.72 70.1 226.7 C 70.1 225.1 71.1 224.1 72.4 224.1 C 72.9 224.1 73.3 224.2 73.7 224.4 C 73.7 224.4 73.3 225.5 73.3 225.5 C 73.2 225.4 72.9 225.3 72.7 225.3 C 71.9 225.3 71.5 225.8 71.5 226.7 C 71.52 226.72 71.5 227.2 71.5 227.2 L 73.1 227.2 L 73.1 228.5 L 71.5 228.5 L 71.5 234.9 L 70.1 234.9 L 70.1 228.5 Z M 78.3 224.3 L 79.8 224.3 L 79.8 233.5 L 84.7 233.5 L 84.7 234.9 L 78.3 234.9 L 78.3 224.3 Z M 85.4 231.1 C 85.4 228.8 86.9 227 89.3 227 C 91.7 227 93.2 228.8 93.2 231.1 C 93.2 233.3 91.7 235.1 89.3 235.1 C 86.9 235.1 85.4 233.3 85.4 231.1 Z M 91.7 231.1 C 91.7 229.6 90.9 228.3 89.3 228.3 C 87.8 228.3 86.9 229.6 86.9 231.1 C 86.9 232.5 87.8 233.8 89.3 233.8 C 90.9 233.8 91.7 232.5 91.7 231.1 Z M 98.3 227 C 99.7 227 100.6 227.6 101.2 228.4 C 101.2 228.4 100.2 229.3 100.2 229.3 C 99.7 228.6 99.1 228.3 98.3 228.3 C 96.8 228.3 95.9 229.5 95.9 231.1 C 95.9 232.6 96.8 233.8 98.3 233.8 C 99.1 233.8 99.7 233.5 100.2 232.9 C 100.2 232.9 101.2 233.7 101.2 233.7 C 100.6 234.5 99.7 235.1 98.3 235.1 C 96 235.1 94.4 233.4 94.4 231.1 C 94.4 228.8 96 227 98.3 227 Z M 107.3 234.1 C 106.7 234.7 105.8 235.1 104.8 235.1 C 103.5 235.1 102.1 234.2 102.1 232.5 C 102.1 230.8 103.5 230 104.8 230 C 105.8 230 106.7 230.4 107.3 231.1 C 107.3 231.1 107.3 229.8 107.3 229.8 C 107.3 228.8 106.5 228.3 105.4 228.3 C 104.6 228.3 103.8 228.6 103.1 229.3 C 103.1 229.3 102.5 228.3 102.5 228.3 C 103.4 227.5 104.4 227 105.6 227 C 107.3 227 108.7 227.8 108.7 229.7 C 108.73 229.72 108.7 234.9 108.7 234.9 L 107.3 234.9 C 107.3 234.9 107.3 234.06 107.3 234.1 Z M 107.3 231.9 C 106.9 231.3 106.1 231 105.3 231 C 104.3 231 103.6 231.7 103.6 232.6 C 103.6 233.5 104.3 234.1 105.3 234.1 C 106.1 234.1 106.9 233.8 107.3 233.2 C 107.3 233.2 107.3 231.9 107.3 231.9 Z M 111.1 233.2 C 111.14 233.2 111.1 228.5 111.1 228.5 L 109.9 228.5 L 109.9 227.2 L 111.1 227.2 L 111.1 225.1 L 112.6 225.1 L 112.6 227.2 L 114.1 227.2 L 114.1 228.5 L 112.6 228.5 C 112.6 228.5 112.57 232.88 112.6 232.9 C 112.6 233.4 112.8 233.8 113.3 233.8 C 113.7 233.8 114 233.7 114.1 233.5 C 114.1 233.5 114.5 234.6 114.5 234.6 C 114.2 234.9 113.7 235.1 113 235.1 C 111.8 235.1 111.1 234.4 111.1 233.2 Z M 115.3 225 C 115.3 224.5 115.8 224.1 116.3 224.1 C 116.8 224.1 117.2 224.5 117.2 225 C 117.2 225.5 116.8 225.9 116.3 225.9 C 115.8 225.9 115.3 225.5 115.3 225 Z M 115.6 227.2 L 117 227.2 L 117 234.9 L 115.6 234.9 L 115.6 227.2 Z M 118.6 231.1 C 118.6 228.8 120.1 227 122.5 227 C 124.9 227 126.4 228.8 126.4 231.1 C 126.4 233.3 124.9 235.1 122.5 235.1 C 120.1 235.1 118.6 233.3 118.6 231.1 Z M 124.9 231.1 C 124.9 229.6 124 228.3 122.5 228.3 C 121 228.3 120.1 229.6 120.1 231.1 C 120.1 232.5 121 233.8 122.5 233.8 C 124 233.8 124.9 232.5 124.9 231.1 Z M 133.2 230 C 133.2 228.7 132.6 228.3 131.6 228.3 C 130.7 228.3 129.9 228.8 129.5 229.4 C 129.45 229.42 129.5 234.9 129.5 234.9 L 128 234.9 L 128 227.2 L 129.5 227.2 C 129.5 227.2 129.45 228.31 129.5 228.3 C 130 227.7 131 227 132.2 227 C 133.8 227 134.6 227.9 134.6 229.5 C 134.63 229.51 134.6 234.9 134.6 234.9 L 133.2 234.9 C 133.2 234.9 133.2 229.99 133.2 230 Z M 136.8 232.9 C 137.3 233.4 138.3 233.9 139.3 233.9 C 140.4 233.9 141 233.5 141 232.9 C 141 232.1 140.1 231.8 139.1 231.6 C 137.8 231.3 136.3 231 136.3 229.3 C 136.3 228.1 137.3 227 139.2 227 C 140.5 227 141.5 227.5 142.1 228.1 C 142.1 228.1 141.5 229.1 141.5 229.1 C 141.1 228.6 140.2 228.2 139.2 228.2 C 138.3 228.2 137.7 228.6 137.7 229.2 C 137.7 229.9 138.5 230.1 139.4 230.3 C 140.8 230.6 142.4 231 142.4 232.7 C 142.4 234.1 141.3 235.1 139.3 235.1 C 138 235.1 136.9 234.7 136.1 233.9 C 136.1 233.9 136.8 232.9 136.8 232.9 Z " stroke="none" fill="#242423"/>
  </g>
  <g id="Polygon210245">
    <path d="M 4.2 198.7 L 0.1 192.5 L 1.9 192.5 L 5 197.3 L 8.1 192.5 L 9.9 192.5 L 5.8 198.7 L 5.8 203.1 L 4.2 203.1 L 4.2 198.7 Z M 12.4 195.3 C 14.7 195.3 16.1 197.1 16.1 199.4 C 16.12 199.42 16.1 199.8 16.1 199.8 C 16.1 199.8 10.05 199.77 10.1 199.8 C 10.2 201.1 11.1 202.2 12.7 202.2 C 13.5 202.2 14.4 201.8 14.9 201.2 C 14.9 201.2 15.6 202.2 15.6 202.2 C 14.8 202.9 13.8 203.3 12.5 203.3 C 10.2 203.3 8.5 201.7 8.5 199.3 C 8.5 197.1 10.1 195.3 12.4 195.3 Z M 10 198.7 C 10 198.7 14.7 198.7 14.7 198.7 C 14.7 197.7 14 196.4 12.4 196.4 C 10.8 196.4 10.1 197.7 10 198.7 Z M 22.5 202.3 C 21.9 203 21 203.3 20 203.3 C 18.7 203.3 17.3 202.5 17.3 200.8 C 17.3 199 18.7 198.3 20 198.3 C 21 198.3 21.9 198.6 22.5 199.3 C 22.5 199.3 22.5 198 22.5 198 C 22.5 197.1 21.7 196.5 20.6 196.5 C 19.7 196.5 19 196.8 18.3 197.5 C 18.3 197.5 17.7 196.5 17.7 196.5 C 18.5 195.7 19.6 195.3 20.8 195.3 C 22.5 195.3 23.9 196 23.9 198 C 23.92 197.96 23.9 203.1 23.9 203.1 L 22.5 203.1 C 22.5 203.1 22.49 202.29 22.5 202.3 Z M 22.5 200.1 C 22.1 199.6 21.3 199.3 20.5 199.3 C 19.5 199.3 18.8 199.9 18.8 200.8 C 18.8 201.7 19.5 202.3 20.5 202.3 C 21.3 202.3 22.1 202 22.5 201.5 C 22.5 201.5 22.5 200.1 22.5 200.1 Z M 26 195.5 L 27.5 195.5 C 27.5 195.5 27.48 196.64 27.5 196.6 C 28.1 195.9 29 195.3 30 195.3 C 30 195.3 30 196.7 30 196.7 C 29.8 196.7 29.7 196.7 29.5 196.7 C 28.8 196.7 27.8 197.2 27.5 197.8 C 27.48 197.8 27.5 203.1 27.5 203.1 L 26 203.1 L 26 195.5 Z M 31.3 201.1 C 31.8 201.7 32.8 202.2 33.8 202.2 C 34.9 202.2 35.5 201.7 35.5 201.1 C 35.5 200.3 34.6 200.1 33.6 199.8 C 32.3 199.5 30.8 199.2 30.8 197.5 C 30.8 196.3 31.9 195.3 33.7 195.3 C 35.1 195.3 36 195.8 36.7 196.4 C 36.7 196.4 36 197.4 36 197.4 C 35.6 196.8 34.7 196.4 33.7 196.4 C 32.8 196.4 32.2 196.8 32.2 197.4 C 32.2 198.1 33 198.3 34 198.5 C 35.3 198.8 36.9 199.2 36.9 201 C 36.9 202.3 35.8 203.3 33.8 203.3 C 32.5 203.3 31.4 202.9 30.6 202.1 C 30.6 202.1 31.3 201.1 31.3 201.1 Z M 42.2 193.3 C 42.2 192.8 42.7 192.4 43.2 192.4 C 43.7 192.4 44.1 192.8 44.1 193.3 C 44.1 193.8 43.7 194.2 43.2 194.2 C 42.7 194.2 42.2 193.8 42.2 193.3 Z M 42.5 195.5 L 43.9 195.5 L 43.9 203.1 L 42.5 203.1 L 42.5 195.5 Z M 51.2 198.2 C 51.2 197 50.5 196.5 49.6 196.5 C 48.7 196.5 47.9 197.1 47.4 197.7 C 47.44 197.65 47.4 203.1 47.4 203.1 L 46 203.1 L 46 195.5 L 47.4 195.5 C 47.4 195.5 47.44 196.54 47.4 196.5 C 47.9 195.9 49 195.3 50.2 195.3 C 51.8 195.3 52.6 196.1 52.6 197.8 C 52.62 197.75 52.6 203.1 52.6 203.1 L 51.2 203.1 C 51.2 203.1 51.19 198.23 51.2 198.2 Z M 58.7 192.5 C 58.7 192.5 63.67 192.54 63.7 192.5 C 65.6 192.5 66.7 193.7 66.7 195.2 C 66.7 196.6 65.8 197.5 64.8 197.7 C 65.9 197.8 66.9 199 66.9 200.3 C 66.9 201.9 65.8 203.1 63.8 203.1 C 63.8 203.13 58.7 203.1 58.7 203.1 L 58.7 192.5 Z M 63.4 197 C 64.4 197 65 196.4 65 195.5 C 65 194.6 64.4 193.9 63.4 193.9 C 63.37 193.94 60.3 193.9 60.3 193.9 L 60.3 197 C 60.3 197 63.37 197.04 63.4 197 Z M 63.4 201.7 C 64.6 201.7 65.2 201.1 65.2 200.1 C 65.2 199.2 64.6 198.4 63.4 198.4 C 63.45 198.43 60.3 198.4 60.3 198.4 L 60.3 201.7 C 60.3 201.7 63.45 201.74 63.4 201.7 Z M 73.8 202.1 C 73.2 202.7 72.3 203.3 71.1 203.3 C 69.5 203.3 68.6 202.5 68.6 200.9 C 68.64 200.88 68.6 195.5 68.6 195.5 L 70.1 195.5 C 70.1 195.5 70.07 200.4 70.1 200.4 C 70.1 201.7 70.7 202.1 71.7 202.1 C 72.6 202.1 73.4 201.5 73.8 201 C 73.82 200.98 73.8 195.5 73.8 195.5 L 75.2 195.5 L 75.2 203.1 L 73.8 203.1 C 73.8 203.1 73.82 202.09 73.8 202.1 Z M 77.4 201.1 C 77.9 201.7 78.9 202.2 80 202.2 C 81 202.2 81.6 201.7 81.6 201.1 C 81.6 200.3 80.7 200.1 79.7 199.8 C 78.4 199.5 76.9 199.2 76.9 197.5 C 76.9 196.3 78 195.3 79.8 195.3 C 81.2 195.3 82.1 195.8 82.8 196.4 C 82.8 196.4 82.1 197.4 82.1 197.4 C 81.7 196.8 80.8 196.4 79.9 196.4 C 78.9 196.4 78.3 196.8 78.3 197.4 C 78.3 198.1 79.1 198.3 80.1 198.5 C 81.4 198.8 83 199.2 83 201 C 83 202.3 81.9 203.3 79.9 203.3 C 78.6 203.3 77.5 202.9 76.7 202.1 C 76.7 202.1 77.4 201.1 77.4 201.1 Z M 84.4 193.3 C 84.4 192.8 84.8 192.4 85.3 192.4 C 85.8 192.4 86.3 192.8 86.3 193.3 C 86.3 193.8 85.8 194.2 85.3 194.2 C 84.8 194.2 84.4 193.8 84.4 193.3 Z M 84.6 195.5 L 86.1 195.5 L 86.1 203.1 L 84.6 203.1 L 84.6 195.5 Z M 93.4 198.2 C 93.4 197 92.7 196.5 91.7 196.5 C 90.8 196.5 90 197.1 89.6 197.7 C 89.61 197.65 89.6 203.1 89.6 203.1 L 88.2 203.1 L 88.2 195.5 L 89.6 195.5 C 89.6 195.5 89.61 196.54 89.6 196.5 C 90.1 195.9 91.1 195.3 92.3 195.3 C 93.9 195.3 94.8 196.1 94.8 197.8 C 94.78 197.75 94.8 203.1 94.8 203.1 L 93.4 203.1 C 93.4 203.1 93.36 198.23 93.4 198.2 Z M 100.3 195.3 C 102.6 195.3 104 197.1 104 199.4 C 103.99 199.42 104 199.8 104 199.8 C 104 199.8 97.93 199.77 97.9 199.8 C 98 201.1 99 202.2 100.5 202.2 C 101.3 202.2 102.2 201.8 102.8 201.2 C 102.8 201.2 103.5 202.2 103.5 202.2 C 102.7 202.9 101.6 203.3 100.4 203.3 C 98.1 203.3 96.4 201.7 96.4 199.3 C 96.4 197.1 98 195.3 100.3 195.3 Z M 97.9 198.7 C 97.9 198.7 102.6 198.7 102.6 198.7 C 102.6 197.7 101.9 196.4 100.3 196.4 C 98.7 196.4 98 197.7 97.9 198.7 Z M 105.6 201.1 C 106.2 201.7 107.2 202.2 108.2 202.2 C 109.3 202.2 109.9 201.7 109.9 201.1 C 109.9 200.3 109 200.1 108 199.8 C 106.7 199.5 105.2 199.2 105.2 197.5 C 105.2 196.3 106.2 195.3 108.1 195.3 C 109.4 195.3 110.4 195.8 111 196.4 C 111 196.4 110.4 197.4 110.4 197.4 C 110 196.8 109.1 196.4 108.1 196.4 C 107.2 196.4 106.6 196.8 106.6 197.4 C 106.6 198.1 107.4 198.3 108.3 198.5 C 109.7 198.8 111.3 199.2 111.3 201 C 111.3 202.3 110.2 203.3 108.2 203.3 C 106.9 203.3 105.7 202.9 105 202.1 C 105 202.1 105.6 201.1 105.6 201.1 Z M 112.9 201.1 C 113.4 201.7 114.5 202.2 115.5 202.2 C 116.6 202.2 117.1 201.7 117.1 201.1 C 117.1 200.3 116.3 200.1 115.3 199.8 C 114 199.5 112.5 199.2 112.5 197.5 C 112.5 196.3 113.5 195.3 115.4 195.3 C 116.7 195.3 117.7 195.8 118.3 196.4 C 118.3 196.4 117.7 197.4 117.7 197.4 C 117.2 196.8 116.4 196.4 115.4 196.4 C 114.4 196.4 113.8 196.8 113.8 197.4 C 113.8 198.1 114.7 198.3 115.6 198.5 C 116.9 198.8 118.5 199.2 118.5 201 C 118.5 202.3 117.4 203.3 115.4 203.3 C 114.1 203.3 113 202.9 112.2 202.1 C 112.2 202.1 112.9 201.1 112.9 201.1 Z " stroke="none" fill="#242423"/>
  </g>
  <g id="Polygon210244">
    <path d="M 6.1 160.6 C 9.2 160.6 11.4 162.9 11.4 166.1 C 11.4 169.2 9.2 171.6 6.1 171.6 C 2.9 171.6 0.7 169.2 0.7 166.1 C 0.7 162.9 2.9 160.6 6.1 160.6 Z M 6.1 162 C 3.8 162 2.4 163.7 2.4 166.1 C 2.4 168.4 3.8 170.1 6.1 170.1 C 8.3 170.1 9.8 168.4 9.8 166.1 C 9.8 163.7 8.3 162 6.1 162 Z M 17.9 165.5 L 16 171.4 L 14.5 171.4 L 12.1 163.7 L 13.6 163.7 L 15.4 169.5 L 17.3 163.7 L 18.5 163.7 L 20.4 169.5 L 22.2 163.7 L 23.7 163.7 L 21.3 171.4 L 19.8 171.4 L 17.9 165.5 Z M 30 166.5 C 30 165.2 29.3 164.8 28.3 164.8 C 27.4 164.8 26.6 165.3 26.2 165.9 C 26.22 165.89 26.2 171.4 26.2 171.4 L 24.8 171.4 L 24.8 163.7 L 26.2 163.7 C 26.2 163.7 26.22 164.78 26.2 164.8 C 26.7 164.2 27.7 163.5 28.9 163.5 C 30.6 163.5 31.4 164.4 31.4 166 C 31.4 165.99 31.4 171.4 31.4 171.4 L 30 171.4 C 30 171.4 29.97 166.46 30 166.5 Z M 36.9 163.5 C 39.2 163.5 40.6 165.3 40.6 167.7 C 40.61 167.65 40.6 168 40.6 168 C 40.6 168 34.54 168 34.5 168 C 34.7 169.3 35.6 170.4 37.1 170.4 C 38 170.4 38.8 170.1 39.4 169.5 C 39.4 169.5 40.1 170.4 40.1 170.4 C 39.3 171.2 38.2 171.6 37 171.6 C 34.7 171.6 33 169.9 33 167.5 C 33 165.3 34.6 163.5 36.9 163.5 Z M 34.5 167 C 34.5 167 39.2 167 39.2 167 C 39.2 166 38.5 164.7 36.9 164.7 C 35.3 164.7 34.6 165.9 34.5 167 Z M 42.2 163.7 L 43.7 163.7 C 43.7 163.7 43.68 164.87 43.7 164.9 C 44.3 164.1 45.2 163.5 46.2 163.5 C 46.2 163.5 46.2 165 46.2 165 C 46 164.9 45.9 164.9 45.7 164.9 C 45 164.9 44 165.5 43.7 166 C 43.68 166.03 43.7 171.4 43.7 171.4 L 42.2 171.4 L 42.2 163.7 Z M 47.5 169.3 C 48 169.9 49 170.4 50 170.4 C 51.1 170.4 51.7 170 51.7 169.3 C 51.7 168.6 50.8 168.3 49.8 168.1 C 48.5 167.8 47 167.4 47 165.8 C 47 164.6 48.1 163.5 49.9 163.5 C 51.3 163.5 52.2 164 52.9 164.6 C 52.9 164.6 52.2 165.6 52.2 165.6 C 51.8 165.1 50.9 164.7 49.9 164.7 C 49 164.7 48.4 165 48.4 165.7 C 48.4 166.3 49.2 166.6 50.2 166.8 C 51.5 167.1 53.1 167.4 53.1 169.2 C 53.1 170.5 52 171.6 50 171.6 C 48.7 171.6 47.6 171.2 46.8 170.4 C 46.8 170.4 47.5 169.3 47.5 169.3 Z M 59.9 166.4 C 59.9 165.2 59.3 164.8 58.3 164.8 C 57.4 164.8 56.6 165.3 56.2 165.9 C 56.16 165.89 56.2 171.4 56.2 171.4 L 54.7 171.4 L 54.7 160.8 L 56.2 160.8 C 56.2 160.8 56.16 164.78 56.2 164.8 C 56.7 164.2 57.7 163.5 58.9 163.5 C 60.5 163.5 61.3 164.3 61.3 166 C 61.34 165.95 61.3 171.4 61.3 171.4 L 59.9 171.4 C 59.9 171.4 59.91 166.43 59.9 166.4 Z M 63.2 161.5 C 63.2 161 63.7 160.6 64.2 160.6 C 64.7 160.6 65.1 161 65.1 161.5 C 65.1 162 64.7 162.4 64.2 162.4 C 63.7 162.4 63.2 162 63.2 161.5 Z M 63.5 163.7 L 64.9 163.7 L 64.9 171.4 L 63.5 171.4 L 63.5 163.7 Z M 67 174.3 L 67 163.7 L 68.4 163.7 C 68.4 163.7 68.44 164.79 68.4 164.8 C 69 164 69.9 163.5 70.9 163.5 C 72.9 163.5 74.4 165 74.4 167.5 C 74.4 170 72.9 171.6 70.9 171.6 C 69.9 171.6 69.1 171.1 68.4 170.3 C 68.44 170.26 68.4 174.3 68.4 174.3 L 67 174.3 Z M 70.6 164.8 C 69.7 164.8 68.8 165.3 68.4 165.9 C 68.4 165.9 68.4 169.2 68.4 169.2 C 68.8 169.8 69.7 170.3 70.6 170.3 C 72 170.3 72.9 169.1 72.9 167.5 C 72.9 165.9 72 164.8 70.6 164.8 Z " stroke="none" fill="#242423"/>
  </g>
  <g id="Polygon210243">
    <path d="M 0.7 134.3 C 0.7 131.1 3.1 128.8 6.2 128.8 C 8.2 128.8 9.5 129.8 10.4 131.1 C 10.4 131.1 9 131.8 9 131.8 C 8.5 130.9 7.4 130.3 6.2 130.3 C 4 130.3 2.4 131.9 2.4 134.3 C 2.4 136.7 4 138.4 6.2 138.4 C 7.4 138.4 8.5 137.7 9 136.8 C 9 136.8 10.4 137.6 10.4 137.6 C 9.5 138.8 8.2 139.8 6.2 139.8 C 3.1 139.8 0.7 137.6 0.7 134.3 Z M 11.3 135.8 C 11.3 133.6 12.8 131.7 15.2 131.7 C 17.6 131.7 19 133.6 19 135.8 C 19 138 17.6 139.8 15.2 139.8 C 12.8 139.8 11.3 138 11.3 135.8 Z M 17.6 135.8 C 17.6 134.3 16.7 133 15.2 133 C 13.6 133 12.8 134.3 12.8 135.8 C 12.8 137.2 13.6 138.5 15.2 138.5 C 16.7 138.5 17.6 137.2 17.6 135.8 Z M 30 134.5 C 30 133.6 29.6 133 28.7 133 C 27.9 133 27.1 133.6 26.8 134.1 C 26.78 134.11 26.8 139.6 26.8 139.6 L 25.3 139.6 C 25.3 139.6 25.35 134.49 25.3 134.5 C 25.3 133.6 25 133 24 133 C 23.3 133 22.5 133.6 22.1 134.1 C 22.12 134.13 22.1 139.6 22.1 139.6 L 20.7 139.6 L 20.7 131.9 L 22.1 131.9 C 22.1 131.9 22.12 133.01 22.1 133 C 22.4 132.5 23.5 131.7 24.6 131.7 C 25.8 131.7 26.4 132.3 26.7 133.2 C 27.1 132.5 28.1 131.7 29.3 131.7 C 30.7 131.7 31.4 132.5 31.4 134.1 C 31.45 134.06 31.4 139.6 31.4 139.6 L 30 139.6 C 30 139.6 30.02 134.49 30 134.5 Z M 33.6 142.5 L 33.6 131.9 L 35 131.9 C 35 131.9 34.99 133.03 35 133 C 35.5 132.3 36.5 131.7 37.5 131.7 C 39.5 131.7 40.9 133.3 40.9 135.8 C 40.9 138.3 39.5 139.8 37.5 139.8 C 36.5 139.8 35.6 139.3 35 138.5 C 34.99 138.49 35 142.5 35 142.5 L 33.6 142.5 Z M 37.1 133 C 36.2 133 35.4 133.5 35 134.1 C 35 134.1 35 137.4 35 137.4 C 35.4 138 36.2 138.5 37.1 138.5 C 38.5 138.5 39.4 137.4 39.4 135.8 C 39.4 134.2 38.5 133 37.1 133 Z M 47.3 138.8 C 46.7 139.4 45.8 139.8 44.8 139.8 C 43.5 139.8 42.1 138.9 42.1 137.3 C 42.1 135.5 43.5 134.7 44.8 134.7 C 45.8 134.7 46.7 135.1 47.3 135.8 C 47.3 135.8 47.3 134.5 47.3 134.5 C 47.3 133.5 46.5 133 45.4 133 C 44.5 133 43.8 133.3 43.1 134 C 43.1 134 42.5 133 42.5 133 C 43.4 132.2 44.4 131.7 45.6 131.7 C 47.3 131.7 48.7 132.5 48.7 134.4 C 48.73 134.43 48.7 139.6 48.7 139.6 L 47.3 139.6 C 47.3 139.6 47.3 138.76 47.3 138.8 Z M 47.3 136.6 C 46.9 136 46.1 135.7 45.3 135.7 C 44.3 135.7 43.6 136.4 43.6 137.3 C 43.6 138.2 44.3 138.8 45.3 138.8 C 46.1 138.8 46.9 138.5 47.3 137.9 C 47.3 137.9 47.3 136.6 47.3 136.6 Z M 56 134.7 C 56 133.4 55.4 133 54.4 133 C 53.5 133 52.7 133.6 52.3 134.1 C 52.28 134.13 52.3 139.6 52.3 139.6 L 50.9 139.6 L 50.9 131.9 L 52.3 131.9 C 52.3 131.9 52.28 133.01 52.3 133 C 52.8 132.4 53.8 131.7 55 131.7 C 56.6 131.7 57.5 132.6 57.5 134.2 C 57.46 134.22 57.5 139.6 57.5 139.6 L 56 139.6 C 56 139.6 56.03 134.7 56 134.7 Z M 60.1 141.4 C 60.6 141.4 60.9 141.3 61.2 140.7 C 61.16 140.7 61.6 139.7 61.6 139.7 L 58.4 131.9 L 60 131.9 L 62.4 138 L 64.8 131.9 L 66.3 131.9 C 66.3 131.9 62.53 141.07 62.5 141.1 C 62 142.3 61.2 142.7 60.1 142.7 C 59.8 142.7 59.4 142.7 59.2 142.6 C 59.2 142.6 59.4 141.3 59.4 141.3 C 59.6 141.4 59.9 141.4 60.1 141.4 Z M 72.9 131.5 L 72.9 139.6 L 71.3 139.6 L 71.3 129 L 72.9 129 L 78.7 137 L 78.7 129 L 80.3 129 L 80.3 139.6 L 78.7 139.6 L 72.9 131.5 Z M 87.2 138.8 C 86.6 139.4 85.7 139.8 84.7 139.8 C 83.4 139.8 82 138.9 82 137.3 C 82 135.5 83.4 134.7 84.7 134.7 C 85.7 134.7 86.6 135.1 87.2 135.8 C 87.2 135.8 87.2 134.5 87.2 134.5 C 87.2 133.5 86.4 133 85.3 133 C 84.4 133 83.7 133.3 83 134 C 83 134 82.4 133 82.4 133 C 83.2 132.2 84.3 131.7 85.5 131.7 C 87.2 131.7 88.6 132.5 88.6 134.4 C 88.59 134.43 88.6 139.6 88.6 139.6 L 87.2 139.6 C 87.2 139.6 87.16 138.76 87.2 138.8 Z M 87.2 136.6 C 86.7 136 86 135.7 85.2 135.7 C 84.2 135.7 83.4 136.4 83.4 137.3 C 83.4 138.2 84.2 138.8 85.2 138.8 C 86 138.8 86.7 138.5 87.2 137.9 C 87.2 137.9 87.2 136.6 87.2 136.6 Z M 100 134.5 C 100 133.6 99.6 133 98.7 133 C 97.9 133 97.2 133.6 96.8 134.1 C 96.8 134.11 96.8 139.6 96.8 139.6 L 95.4 139.6 C 95.4 139.6 95.37 134.49 95.4 134.5 C 95.4 133.6 95 133 94 133 C 93.3 133 92.5 133.6 92.1 134.1 C 92.15 134.13 92.1 139.6 92.1 139.6 L 90.7 139.6 L 90.7 131.9 L 92.1 131.9 C 92.1 131.9 92.15 133.01 92.1 133 C 92.5 132.5 93.5 131.7 94.6 131.7 C 95.8 131.7 96.5 132.3 96.7 133.2 C 97.2 132.5 98.2 131.7 99.3 131.7 C 100.7 131.7 101.5 132.5 101.5 134.1 C 101.47 134.06 101.5 139.6 101.5 139.6 L 100 139.6 C 100 139.6 100.04 134.49 100 134.5 Z M 107 131.7 C 109.3 131.7 110.7 133.5 110.7 135.9 C 110.68 135.89 110.7 136.2 110.7 136.2 C 110.7 136.2 104.61 136.24 104.6 136.2 C 104.7 137.5 105.7 138.6 107.2 138.6 C 108 138.6 108.9 138.3 109.5 137.7 C 109.5 137.7 110.2 138.7 110.2 138.7 C 109.4 139.4 108.3 139.8 107.1 139.8 C 104.8 139.8 103.1 138.2 103.1 135.8 C 103.1 133.5 104.7 131.7 107 131.7 Z M 104.6 135.2 C 104.6 135.2 109.3 135.2 109.3 135.2 C 109.3 134.2 108.6 132.9 107 132.9 C 105.4 132.9 104.7 134.2 104.6 135.2 Z " stroke="none" fill="#242423"/>
  </g>
  <g id="Polygon210242">
    <path d="M 1.2 97.2 L 2.8 97.2 L 2.8 106.4 L 7.6 106.4 L 7.6 107.8 L 1.2 107.8 L 1.2 97.2 Z M 12.2 100 C 14.5 100 15.9 101.8 15.9 104.1 C 15.94 104.12 15.9 104.5 15.9 104.5 C 15.9 104.5 9.88 104.47 9.9 104.5 C 10 105.8 10.9 106.9 12.5 106.9 C 13.3 106.9 14.2 106.5 14.8 106 C 14.8 106 15.4 106.9 15.4 106.9 C 14.7 107.6 13.6 108 12.3 108 C 10.1 108 8.4 106.4 8.4 104 C 8.4 101.8 10 100 12.2 100 Z M 9.9 103.4 C 9.9 103.4 14.5 103.4 14.5 103.4 C 14.5 102.4 13.8 101.2 12.2 101.2 C 10.7 101.2 9.9 102.4 9.9 103.4 Z M 22.3 107 C 21.7 107.7 20.8 108 19.8 108 C 18.5 108 17.1 107.2 17.1 105.5 C 17.1 103.7 18.5 103 19.8 103 C 20.8 103 21.7 103.3 22.3 104 C 22.3 104 22.3 102.7 22.3 102.7 C 22.3 101.8 21.5 101.2 20.4 101.2 C 19.6 101.2 18.8 101.5 18.1 102.2 C 18.1 102.2 17.5 101.2 17.5 101.2 C 18.4 100.4 19.4 100 20.7 100 C 22.3 100 23.7 100.7 23.7 102.7 C 23.74 102.66 23.7 107.8 23.7 107.8 L 22.3 107.8 C 22.3 107.8 22.32 107 22.3 107 Z M 22.3 104.9 C 21.9 104.3 21.1 104 20.3 104 C 19.3 104 18.6 104.6 18.6 105.5 C 18.6 106.4 19.3 107 20.3 107 C 21.1 107 21.9 106.7 22.3 106.2 C 22.3 106.2 22.3 104.9 22.3 104.9 Z M 25.9 105.8 C 26.4 106.4 27.4 106.9 28.5 106.9 C 29.5 106.9 30.1 106.4 30.1 105.8 C 30.1 105 29.2 104.8 28.3 104.6 C 27 104.3 25.4 103.9 25.4 102.2 C 25.4 101 26.5 100 28.3 100 C 29.7 100 30.6 100.5 31.3 101.1 C 31.3 101.1 30.6 102.1 30.6 102.1 C 30.2 101.5 29.3 101.1 28.4 101.1 C 27.4 101.1 26.8 101.5 26.8 102.1 C 26.8 102.8 27.6 103 28.6 103.3 C 29.9 103.6 31.5 103.9 31.5 105.7 C 31.5 107 30.4 108 28.4 108 C 27.1 108 26 107.6 25.2 106.8 C 25.2 106.8 25.9 105.8 25.9 105.8 Z M 36.5 100 C 38.8 100 40.2 101.8 40.2 104.1 C 40.24 104.12 40.2 104.5 40.2 104.5 C 40.2 104.5 34.18 104.47 34.2 104.5 C 34.3 105.8 35.2 106.9 36.8 106.9 C 37.6 106.9 38.5 106.5 39.1 106 C 39.1 106 39.7 106.9 39.7 106.9 C 39 107.6 37.9 108 36.6 108 C 34.4 108 32.7 106.4 32.7 104 C 32.7 101.8 34.3 100 36.5 100 Z M 34.2 103.4 C 34.2 103.4 38.8 103.4 38.8 103.4 C 38.8 102.4 38.1 101.2 36.5 101.2 C 35 101.2 34.2 102.4 34.2 103.4 Z M 50.9 97.1 C 52.9 97.1 54.2 98 55.1 99.2 C 55.1 99.2 53.8 99.9 53.8 99.9 C 53.2 99.1 52.1 98.5 50.9 98.5 C 48.7 98.5 47 100.2 47 102.6 C 47 104.9 48.7 106.6 50.9 106.6 C 52.1 106.6 53.1 106.1 53.6 105.6 C 53.59 105.59 53.6 103.7 53.6 103.7 L 50.2 103.7 L 50.2 102.3 L 55.2 102.3 C 55.2 102.3 55.17 106.17 55.2 106.2 C 54.2 107.3 52.7 108 50.9 108 C 47.9 108 45.4 105.9 45.4 102.6 C 45.4 99.2 47.9 97.1 50.9 97.1 Z M 62.2 106.8 C 61.6 107.4 60.6 108 59.5 108 C 57.8 108 57 107.2 57 105.6 C 57.02 105.59 57 100.2 57 100.2 L 58.4 100.2 C 58.4 100.2 58.45 105.11 58.4 105.1 C 58.4 106.4 59.1 106.8 60.1 106.8 C 61 106.8 61.8 106.3 62.2 105.7 C 62.2 105.68 62.2 100.2 62.2 100.2 L 63.6 100.2 L 63.6 107.8 L 62.2 107.8 C 62.2 107.8 62.2 106.79 62.2 106.8 Z M 70.5 107 C 69.9 107.7 69 108 68 108 C 66.7 108 65.3 107.2 65.3 105.5 C 65.3 103.7 66.7 103 68 103 C 69 103 69.9 103.3 70.5 104 C 70.5 104 70.5 102.7 70.5 102.7 C 70.5 101.8 69.7 101.2 68.6 101.2 C 67.7 101.2 67 101.5 66.3 102.2 C 66.3 102.2 65.7 101.2 65.7 101.2 C 66.5 100.4 67.6 100 68.8 100 C 70.5 100 71.9 100.7 71.9 102.7 C 71.9 102.66 71.9 107.8 71.9 107.8 L 70.5 107.8 C 70.5 107.8 70.47 107 70.5 107 Z M 70.5 104.9 C 70 104.3 69.3 104 68.5 104 C 67.5 104 66.7 104.6 66.7 105.5 C 66.7 106.4 67.5 107 68.5 107 C 69.3 107 70 106.7 70.5 106.2 C 70.5 106.2 70.5 104.9 70.5 104.9 Z M 74 100.2 L 75.5 100.2 C 75.5 100.2 75.46 101.34 75.5 101.3 C 76 100.6 76.9 100 78 100 C 78 100 78 101.4 78 101.4 C 77.8 101.4 77.7 101.4 77.5 101.4 C 76.8 101.4 75.8 101.9 75.5 102.5 C 75.46 102.5 75.5 107.8 75.5 107.8 L 74 107.8 L 74 100.2 Z M 84 107 C 83.4 107.7 82.5 108 81.5 108 C 80.2 108 78.8 107.2 78.8 105.5 C 78.8 103.7 80.2 103 81.5 103 C 82.5 103 83.4 103.3 84 104 C 84 104 84 102.7 84 102.7 C 84 101.8 83.2 101.2 82.1 101.2 C 81.2 101.2 80.5 101.5 79.8 102.2 C 79.8 102.2 79.2 101.2 79.2 101.2 C 80 100.4 81.1 100 82.3 100 C 84 100 85.4 100.7 85.4 102.7 C 85.4 102.66 85.4 107.8 85.4 107.8 L 84 107.8 C 84 107.8 83.97 107 84 107 Z M 84 104.9 C 83.5 104.3 82.8 104 82 104 C 81 104 80.2 104.6 80.2 105.5 C 80.2 106.4 81 107 82 107 C 82.8 107 83.5 106.7 84 106.2 C 84 106.2 84 104.9 84 104.9 Z M 92.7 102.9 C 92.7 101.7 92.1 101.2 91.1 101.2 C 90.2 101.2 89.4 101.8 89 102.4 C 88.96 102.36 89 107.8 89 107.8 L 87.5 107.8 L 87.5 100.2 L 89 100.2 C 89 100.2 88.96 101.25 89 101.2 C 89.5 100.6 90.5 100 91.7 100 C 93.3 100 94.1 100.8 94.1 102.5 C 94.13 102.46 94.1 107.8 94.1 107.8 L 92.7 107.8 C 92.7 107.8 92.71 102.93 92.7 102.9 Z M 96.5 106.1 C 96.53 106.14 96.5 101.4 96.5 101.4 L 95.3 101.4 L 95.3 100.2 L 96.5 100.2 L 96.5 98.1 L 98 98.1 L 98 100.2 L 99.5 100.2 L 99.5 101.4 L 98 101.4 C 98 101.4 97.96 105.82 98 105.8 C 98 106.4 98.2 106.8 98.7 106.8 C 99 106.8 99.3 106.6 99.5 106.5 C 99.5 106.5 99.9 107.5 99.9 107.5 C 99.5 107.8 99.1 108 98.4 108 C 97.2 108 96.5 107.3 96.5 106.1 Z M 100.5 104 C 100.5 101.8 102 100 104.3 100 C 106.7 100 108.2 101.8 108.2 104 C 108.2 106.2 106.7 108 104.3 108 C 102 108 100.5 106.2 100.5 104 Z M 106.7 104 C 106.7 102.6 105.9 101.2 104.3 101.2 C 102.8 101.2 102 102.6 102 104 C 102 105.5 102.8 106.8 104.3 106.8 C 105.9 106.8 106.7 105.5 106.7 104 Z M 109.9 100.2 L 111.3 100.2 C 111.3 100.2 111.3 101.34 111.3 101.3 C 111.9 100.6 112.8 100 113.8 100 C 113.8 100 113.8 101.4 113.8 101.4 C 113.7 101.4 113.5 101.4 113.3 101.4 C 112.6 101.4 111.6 101.9 111.3 102.5 C 111.3 102.5 111.3 107.8 111.3 107.8 L 109.9 107.8 L 109.9 100.2 Z " stroke="none" fill="#242423"/>
  </g>
  <g id="Polygon210241">
    <path d="M 4.7 72 L 2.8 72 L 2.8 76.1 L 1.2 76.1 L 1.2 65.5 C 1.2 65.5 5.64 65.48 5.6 65.5 C 7.7 65.5 9 66.8 9 68.7 C 9 70.6 7.8 71.7 6.4 71.8 C 6.4 71.84 9.1 76.1 9.1 76.1 L 7.3 76.1 L 4.7 72 Z M 5.4 66.9 C 5.43 66.88 2.8 66.9 2.8 66.9 L 2.8 70.6 C 2.8 70.6 5.43 70.6 5.4 70.6 C 6.6 70.6 7.4 69.9 7.4 68.7 C 7.4 67.6 6.6 66.9 5.4 66.9 Z M 9.8 72.2 C 9.8 70 11.3 68.2 13.7 68.2 C 16.1 68.2 17.6 70 17.6 72.2 C 17.6 74.5 16.1 76.3 13.7 76.3 C 11.3 76.3 9.8 74.5 9.8 72.2 Z M 16.1 72.2 C 16.1 70.8 15.3 69.5 13.7 69.5 C 12.2 69.5 11.3 70.8 11.3 72.2 C 11.3 73.7 12.2 75 13.7 75 C 15.3 75 16.1 73.7 16.1 72.2 Z M 18.8 72.2 C 18.8 70 20.3 68.2 22.6 68.2 C 25 68.2 26.5 70 26.5 72.2 C 26.5 74.5 25 76.3 22.6 76.3 C 20.3 76.3 18.8 74.5 18.8 72.2 Z M 25 72.2 C 25 70.8 24.2 69.5 22.6 69.5 C 21.1 69.5 20.3 70.8 20.3 72.2 C 20.3 73.7 21.1 75 22.6 75 C 24.2 75 25 73.7 25 72.2 Z M 28.5 69.7 L 27.3 69.7 L 27.3 68.4 L 28.5 68.4 C 28.5 68.4 28.53 67.9 28.5 67.9 C 28.5 66.2 29.5 65.3 30.9 65.3 C 31.4 65.3 31.8 65.4 32.1 65.6 C 32.1 65.6 31.8 66.7 31.8 66.7 C 31.6 66.6 31.4 66.5 31.1 66.5 C 30.4 66.5 30 67 30 67.9 C 29.95 67.9 30 68.4 30 68.4 L 31.5 68.4 L 31.5 69.7 L 30 69.7 L 30 76.1 L 28.5 76.1 L 28.5 69.7 Z M 45.3 76.1 C 45.3 76.1 43.4 76.1 43.4 76.1 C 43.2 75.8 42.8 75.5 42.4 75.1 C 41.6 75.8 40.6 76.3 39.4 76.3 C 37.5 76.3 36 75.3 36 73.3 C 36 71.6 37.1 70.8 38.3 70.2 C 37.9 69.3 37.6 68.5 37.6 67.8 C 37.6 66.4 38.8 65.3 40.3 65.3 C 41.7 65.3 42.8 66.1 42.8 67.5 C 42.8 69.1 41.5 69.7 40.2 70.4 C 40.6 70.9 41 71.4 41.3 71.8 C 41.7 72.3 42.1 72.7 42.5 73.1 C 43 72.3 43.4 71.4 43.5 70.8 C 43.5 70.8 44.7 71.4 44.7 71.4 C 44.4 72.2 43.9 73.2 43.3 74 C 43.9 74.7 44.6 75.3 45.3 76.1 Z M 39.6 69.5 C 40.7 69 41.5 68.5 41.5 67.5 C 41.5 66.8 41.1 66.4 40.4 66.4 C 39.6 66.4 39 67 39 67.8 C 39 68.3 39.3 68.9 39.6 69.5 Z M 41.6 74.2 C 41 73.6 40.5 73 40.2 72.7 C 39.8 72.2 39.3 71.6 38.9 71.1 C 38.1 71.6 37.5 72.2 37.5 73.2 C 37.5 74.4 38.5 75.1 39.5 75.1 C 40.3 75.1 41 74.7 41.6 74.2 Z M 50.9 73.4 C 51.6 74.2 52.8 74.9 54.3 74.9 C 56 74.9 56.6 74 56.6 73.2 C 56.6 72.1 55.4 71.8 54 71.4 C 52.3 71 50.3 70.5 50.3 68.3 C 50.3 66.6 51.9 65.3 54.1 65.3 C 55.7 65.3 57 65.8 58 66.8 C 58 66.8 57 68 57 68 C 56.2 67.1 55.1 66.7 54 66.7 C 52.8 66.7 52 67.3 52 68.2 C 52 69.2 53.1 69.5 54.4 69.8 C 56.2 70.3 58.2 70.8 58.2 73.1 C 58.2 74.7 57 76.3 54.2 76.3 C 52.3 76.3 50.9 75.6 50 74.6 C 50 74.6 50.9 73.4 50.9 73.4 Z M 59.9 74.4 C 59.88 74.38 59.9 69.7 59.9 69.7 L 58.6 69.7 L 58.6 68.4 L 59.9 68.4 L 59.9 66.3 L 61.3 66.3 L 61.3 68.4 L 62.9 68.4 L 62.9 69.7 L 61.3 69.7 C 61.3 69.7 61.3 74.06 61.3 74.1 C 61.3 74.6 61.6 75 62.1 75 C 62.4 75 62.7 74.9 62.8 74.7 C 62.8 74.7 63.2 75.8 63.2 75.8 C 62.9 76.1 62.4 76.3 61.7 76.3 C 60.5 76.3 59.9 75.6 59.9 74.4 Z M 64.3 68.4 L 65.7 68.4 C 65.7 68.4 65.72 69.58 65.7 69.6 C 66.3 68.8 67.2 68.2 68.2 68.2 C 68.2 68.2 68.2 69.7 68.2 69.7 C 68.1 69.6 67.9 69.6 67.7 69.6 C 67 69.6 66.1 70.2 65.7 70.7 C 65.72 70.74 65.7 76.1 65.7 76.1 L 64.3 76.1 L 64.3 68.4 Z M 74.7 75 C 74.1 75.7 73.1 76.3 71.9 76.3 C 70.3 76.3 69.5 75.4 69.5 73.8 C 69.5 73.82 69.5 68.4 69.5 68.4 L 70.9 68.4 C 70.9 68.4 70.93 73.35 70.9 73.3 C 70.9 74.6 71.6 75 72.5 75 C 73.4 75 74.3 74.5 74.7 73.9 C 74.68 73.92 74.7 68.4 74.7 68.4 L 76.1 68.4 L 76.1 76.1 L 74.7 76.1 C 74.7 76.1 74.68 75.03 74.7 75 Z M 81.6 68.2 C 83.1 68.2 84 68.8 84.5 69.6 C 84.5 69.6 83.6 70.4 83.6 70.4 C 83.1 69.8 82.5 69.5 81.7 69.5 C 80.2 69.5 79.2 70.6 79.2 72.2 C 79.2 73.8 80.2 75 81.7 75 C 82.5 75 83.1 74.7 83.6 74 C 83.6 74 84.5 74.9 84.5 74.9 C 84 75.7 83.1 76.3 81.6 76.3 C 79.3 76.3 77.7 74.5 77.7 72.2 C 77.7 69.9 79.3 68.2 81.6 68.2 Z M 86.2 74.4 C 86.23 74.38 86.2 69.7 86.2 69.7 L 85 69.7 L 85 68.4 L 86.2 68.4 L 86.2 66.3 L 87.7 66.3 L 87.7 68.4 L 89.2 68.4 L 89.2 69.7 L 87.7 69.7 C 87.7 69.7 87.65 74.06 87.7 74.1 C 87.7 74.6 87.9 75 88.4 75 C 88.7 75 89 74.9 89.2 74.7 C 89.2 74.7 89.5 75.8 89.5 75.8 C 89.2 76.1 88.8 76.3 88 76.3 C 86.8 76.3 86.2 75.6 86.2 74.4 Z M 95.8 75 C 95.2 75.7 94.3 76.3 93.1 76.3 C 91.4 76.3 90.6 75.4 90.6 73.8 C 90.64 73.82 90.6 68.4 90.6 68.4 L 92.1 68.4 C 92.1 68.4 92.07 73.35 92.1 73.3 C 92.1 74.6 92.7 75 93.7 75 C 94.6 75 95.4 74.5 95.8 73.9 C 95.82 73.92 95.8 68.4 95.8 68.4 L 97.2 68.4 L 97.2 76.1 L 95.8 76.1 C 95.8 76.1 95.82 75.03 95.8 75 Z M 99.4 68.4 L 100.8 68.4 C 100.8 68.4 100.79 69.58 100.8 69.6 C 101.4 68.8 102.3 68.2 103.3 68.2 C 103.3 68.2 103.3 69.7 103.3 69.7 C 103.2 69.6 103 69.6 102.8 69.6 C 102.1 69.6 101.1 70.2 100.8 70.7 C 100.79 70.74 100.8 76.1 100.8 76.1 L 99.4 76.1 L 99.4 68.4 Z M 107.9 68.2 C 110.2 68.2 111.7 70 111.7 72.4 C 111.67 72.36 111.7 72.7 111.7 72.7 C 111.7 72.7 105.6 72.71 105.6 72.7 C 105.7 74 106.7 75.1 108.2 75.1 C 109 75.1 109.9 74.8 110.5 74.2 C 110.5 74.2 111.1 75.1 111.1 75.1 C 110.4 75.9 109.3 76.3 108.1 76.3 C 105.8 76.3 104.1 74.6 104.1 72.2 C 104.1 70 105.7 68.2 107.9 68.2 Z M 105.6 71.7 C 105.6 71.7 110.3 71.7 110.3 71.7 C 110.2 70.7 109.6 69.4 107.9 69.4 C 106.4 69.4 105.7 70.6 105.6 71.7 Z " stroke="none" fill="#242423"/>
  </g>
  <g id="Polygon210240">
    <path d="M 1.2 33.7 L 2.8 33.7 L 2.8 44.3 L 1.2 44.3 L 1.2 33.7 Z M 10.1 39.4 C 10.1 38.1 9.5 37.7 8.5 37.7 C 7.6 37.7 6.8 38.3 6.4 38.8 C 6.37 38.83 6.4 44.3 6.4 44.3 L 4.9 44.3 L 4.9 36.6 L 6.4 36.6 C 6.4 36.6 6.37 37.72 6.4 37.7 C 6.9 37.1 7.9 36.5 9.1 36.5 C 10.7 36.5 11.5 37.3 11.5 38.9 C 11.55 38.93 11.5 44.3 11.5 44.3 L 10.1 44.3 C 10.1 44.3 10.12 39.4 10.1 39.4 Z M 13.7 42.3 C 14.2 42.8 15.2 43.4 16.2 43.4 C 17.3 43.4 17.9 42.9 17.9 42.3 C 17.9 41.5 17 41.2 16 41 C 14.7 40.7 13.2 40.4 13.2 38.7 C 13.2 37.5 14.3 36.5 16.1 36.5 C 17.5 36.5 18.4 36.9 19.1 37.5 C 19.1 37.5 18.4 38.5 18.4 38.5 C 18 38 17.1 37.6 16.2 37.6 C 15.2 37.6 14.6 38 14.6 38.6 C 14.6 39.3 15.4 39.5 16.4 39.7 C 17.7 40 19.3 40.4 19.3 42.2 C 19.3 43.5 18.2 44.5 16.2 44.5 C 14.9 44.5 13.8 44.1 13 43.3 C 13 43.3 13.7 42.3 13.7 42.3 Z M 26.1 43.3 C 25.5 43.9 24.6 44.5 23.4 44.5 C 21.7 44.5 20.9 43.7 20.9 42.1 C 20.93 42.06 20.9 36.6 20.9 36.6 L 22.4 36.6 C 22.4 36.6 22.36 41.58 22.4 41.6 C 22.4 42.9 23 43.2 24 43.2 C 24.9 43.2 25.7 42.7 26.1 42.2 C 26.11 42.15 26.1 36.6 26.1 36.6 L 27.5 36.6 L 27.5 44.3 L 26.1 44.3 C 26.1 44.3 26.11 43.26 26.1 43.3 Z M 29.7 36.6 L 31.1 36.6 C 31.1 36.6 31.08 37.81 31.1 37.8 C 31.7 37.1 32.6 36.5 33.6 36.5 C 33.6 36.5 33.6 37.9 33.6 37.9 C 33.4 37.9 33.3 37.9 33.1 37.9 C 32.4 37.9 31.4 38.4 31.1 39 C 31.08 38.97 31.1 44.3 31.1 44.3 L 29.7 44.3 L 29.7 36.6 Z M 39.6 43.5 C 39 44.1 38.1 44.5 37.1 44.5 C 35.8 44.5 34.4 43.6 34.4 42 C 34.4 40.2 35.8 39.5 37.1 39.5 C 38.1 39.5 39 39.8 39.6 40.5 C 39.6 40.5 39.6 39.2 39.6 39.2 C 39.6 38.2 38.8 37.7 37.7 37.7 C 36.8 37.7 36.1 38 35.4 38.7 C 35.4 38.7 34.8 37.7 34.8 37.7 C 35.7 36.9 36.7 36.5 37.9 36.5 C 39.6 36.5 41 37.2 41 39.1 C 41.02 39.13 41 44.3 41 44.3 L 39.6 44.3 C 39.6 44.3 39.6 43.47 39.6 43.5 Z M 39.6 41.3 C 39.2 40.8 38.4 40.5 37.6 40.5 C 36.6 40.5 35.9 41.1 35.9 42 C 35.9 42.9 36.6 43.5 37.6 43.5 C 38.4 43.5 39.2 43.2 39.6 42.6 C 39.6 42.6 39.6 41.3 39.6 41.3 Z M 48.3 39.4 C 48.3 38.1 47.7 37.7 46.7 37.7 C 45.8 37.7 45 38.3 44.6 38.8 C 44.58 38.83 44.6 44.3 44.6 44.3 L 43.2 44.3 L 43.2 36.6 L 44.6 36.6 C 44.6 36.6 44.58 37.72 44.6 37.7 C 45.1 37.1 46.1 36.5 47.3 36.5 C 48.9 36.5 49.8 37.3 49.8 38.9 C 49.76 38.93 49.8 44.3 49.8 44.3 L 48.3 44.3 C 48.3 44.3 48.33 39.4 48.3 39.4 Z M 55.3 36.5 C 56.7 36.5 57.6 37.1 58.2 37.8 C 58.2 37.8 57.2 38.7 57.2 38.7 C 56.8 38 56.1 37.7 55.4 37.7 C 53.9 37.7 52.9 38.9 52.9 40.5 C 52.9 42.1 53.9 43.2 55.4 43.2 C 56.1 43.2 56.8 42.9 57.2 42.3 C 57.2 42.3 58.2 43.2 58.2 43.2 C 57.6 43.9 56.7 44.5 55.3 44.5 C 53 44.5 51.4 42.8 51.4 40.5 C 51.4 38.2 53 36.5 55.3 36.5 Z M 63 36.5 C 65.3 36.5 66.7 38.2 66.7 40.6 C 66.69 40.59 66.7 40.9 66.7 40.9 C 66.7 40.9 60.62 40.94 60.6 40.9 C 60.7 42.2 61.7 43.3 63.2 43.3 C 64 43.3 64.9 43 65.5 42.4 C 65.5 42.4 66.2 43.4 66.2 43.4 C 65.4 44.1 64.3 44.5 63.1 44.5 C 60.8 44.5 59.1 42.9 59.1 40.5 C 59.1 38.2 60.7 36.5 63 36.5 Z M 60.6 39.9 C 60.6 39.9 65.3 39.9 65.3 39.9 C 65.3 38.9 64.6 37.6 63 37.6 C 61.4 37.6 60.7 38.9 60.6 39.9 Z " stroke="none" fill="#242423"/>
  </g>
  <g id="Polygon210239">
    <path d="M 4.7 8.5 L 2.8 8.5 L 2.8 12.5 L 1.2 12.5 L 1.2 2 C 1.2 2 5.64 1.95 5.6 2 C 7.7 2 9 3.3 9 5.2 C 9 7.1 7.8 8.1 6.4 8.3 C 6.4 8.31 9.1 12.5 9.1 12.5 L 7.3 12.5 L 4.7 8.5 Z M 5.4 3.4 C 5.43 3.35 2.8 3.4 2.8 3.4 L 2.8 7.1 C 2.8 7.1 5.43 7.07 5.4 7.1 C 6.6 7.1 7.4 6.3 7.4 5.2 C 7.4 4.1 6.6 3.4 5.4 3.4 Z M 13.7 4.7 C 16 4.7 17.4 6.5 17.4 8.8 C 17.42 8.83 17.4 9.2 17.4 9.2 C 17.4 9.2 11.35 9.18 11.4 9.2 C 11.5 10.5 12.4 11.6 14 11.6 C 14.8 11.6 15.7 11.2 16.2 10.7 C 16.2 10.7 16.9 11.6 16.9 11.6 C 16.1 12.3 15.1 12.7 13.8 12.7 C 11.5 12.7 9.8 11.1 9.8 8.7 C 9.8 6.5 11.5 4.7 13.7 4.7 Z M 11.3 8.1 C 11.3 8.1 16 8.1 16 8.1 C 16 7.1 15.3 5.9 13.7 5.9 C 12.1 5.9 11.4 7.1 11.3 8.1 Z M 23.8 11.7 C 23.2 12.4 22.3 12.7 21.3 12.7 C 20 12.7 18.6 11.9 18.6 10.2 C 18.6 8.4 20 7.7 21.3 7.7 C 22.3 7.7 23.2 8 23.8 8.7 C 23.8 8.7 23.8 7.4 23.8 7.4 C 23.8 6.5 23 5.9 21.9 5.9 C 21 5.9 20.3 6.2 19.6 6.9 C 19.6 6.9 19 5.9 19 5.9 C 19.9 5.1 20.9 4.7 22.1 4.7 C 23.8 4.7 25.2 5.4 25.2 7.4 C 25.22 7.37 25.2 12.5 25.2 12.5 L 23.8 12.5 C 23.8 12.5 23.79 11.71 23.8 11.7 Z M 23.8 9.6 C 23.4 9 22.6 8.7 21.8 8.7 C 20.8 8.7 20.1 9.3 20.1 10.2 C 20.1 11.1 20.8 11.7 21.8 11.7 C 22.6 11.7 23.4 11.4 23.8 10.9 C 23.8 10.9 23.8 9.6 23.8 9.6 Z M 27.4 2 L 28.8 2 L 28.8 12.5 L 27.4 12.5 L 27.4 2 Z M 34.9 2 L 42 2 L 42 3.4 L 36.4 3.4 L 36.4 6.4 L 41.9 6.4 L 41.9 7.8 L 36.4 7.8 L 36.4 11.2 L 42 11.2 L 42 12.5 L 34.9 12.5 L 34.9 2 Z M 43.8 10.5 C 44.3 11.1 45.3 11.6 46.4 11.6 C 47.4 11.6 48 11.2 48 10.5 C 48 9.7 47.1 9.5 46.2 9.3 C 44.9 9 43.3 8.6 43.3 7 C 43.3 5.7 44.4 4.7 46.2 4.7 C 47.6 4.7 48.5 5.2 49.2 5.8 C 49.2 5.8 48.5 6.8 48.5 6.8 C 48.1 6.2 47.2 5.8 46.3 5.8 C 45.3 5.8 44.7 6.2 44.7 6.8 C 44.7 7.5 45.5 7.7 46.5 8 C 47.8 8.3 49.4 8.6 49.4 10.4 C 49.4 11.7 48.3 12.7 46.3 12.7 C 45 12.7 43.9 12.3 43.1 11.5 C 43.1 11.5 43.8 10.5 43.8 10.5 Z M 51.3 10.8 C 51.33 10.85 51.3 6.1 51.3 6.1 L 50.1 6.1 L 50.1 4.9 L 51.3 4.9 L 51.3 2.8 L 52.8 2.8 L 52.8 4.9 L 54.3 4.9 L 54.3 6.1 L 52.8 6.1 C 52.8 6.1 52.76 10.53 52.8 10.5 C 52.8 11.1 53 11.5 53.5 11.5 C 53.8 11.5 54.1 11.3 54.3 11.2 C 54.3 11.2 54.6 12.2 54.6 12.2 C 54.3 12.5 53.9 12.7 53.2 12.7 C 52 12.7 51.3 12.1 51.3 10.8 Z M 60.5 11.7 C 59.9 12.4 59 12.7 58 12.7 C 56.7 12.7 55.3 11.9 55.3 10.2 C 55.3 8.4 56.7 7.7 58 7.7 C 59 7.7 59.9 8 60.5 8.7 C 60.5 8.7 60.5 7.4 60.5 7.4 C 60.5 6.5 59.7 5.9 58.6 5.9 C 57.7 5.9 57 6.2 56.3 6.9 C 56.3 6.9 55.7 5.9 55.7 5.9 C 56.5 5.1 57.6 4.7 58.8 4.7 C 60.5 4.7 61.9 5.4 61.9 7.4 C 61.91 7.37 61.9 12.5 61.9 12.5 L 60.5 12.5 C 60.5 12.5 60.48 11.71 60.5 11.7 Z M 60.5 9.6 C 60.1 9 59.3 8.7 58.5 8.7 C 57.5 8.7 56.7 9.3 56.7 10.2 C 56.7 11.1 57.5 11.7 58.5 11.7 C 59.3 11.7 60.1 11.4 60.5 10.9 C 60.5 10.9 60.5 9.6 60.5 9.6 Z M 64.3 10.8 C 64.32 10.85 64.3 6.1 64.3 6.1 L 63.1 6.1 L 63.1 4.9 L 64.3 4.9 L 64.3 2.8 L 65.8 2.8 L 65.8 4.9 L 67.3 4.9 L 67.3 6.1 L 65.8 6.1 C 65.8 6.1 65.75 10.53 65.8 10.5 C 65.8 11.1 66 11.5 66.5 11.5 C 66.8 11.5 67.1 11.3 67.3 11.2 C 67.3 11.2 67.6 12.2 67.6 12.2 C 67.3 12.5 66.9 12.7 66.1 12.7 C 64.9 12.7 64.3 12.1 64.3 10.8 Z M 72.1 4.7 C 74.4 4.7 75.8 6.5 75.8 8.8 C 75.84 8.83 75.8 9.2 75.8 9.2 C 75.8 9.2 69.77 9.18 69.8 9.2 C 69.9 10.5 70.8 11.6 72.4 11.6 C 73.2 11.6 74.1 11.2 74.6 10.7 C 74.6 10.7 75.3 11.6 75.3 11.6 C 74.6 12.3 73.5 12.7 72.2 12.7 C 69.9 12.7 68.3 11.1 68.3 8.7 C 68.3 6.5 69.9 4.7 72.1 4.7 Z M 69.8 8.1 C 69.8 8.1 74.4 8.1 74.4 8.1 C 74.4 7.1 73.7 5.9 72.1 5.9 C 70.6 5.9 69.8 7.1 69.8 8.1 Z M 84 3.4 L 80.7 3.4 L 80.7 2 L 88.9 2 L 88.9 3.4 L 85.6 3.4 L 85.6 12.5 L 84 12.5 L 84 3.4 Z M 93.7 11.7 C 93.1 12.4 92.2 12.7 91.1 12.7 C 89.9 12.7 88.5 11.9 88.5 10.2 C 88.5 8.4 89.9 7.7 91.1 7.7 C 92.2 7.7 93.1 8 93.7 8.7 C 93.7 8.7 93.7 7.4 93.7 7.4 C 93.7 6.5 92.9 5.9 91.8 5.9 C 90.9 5.9 90.2 6.2 89.5 6.9 C 89.5 6.9 88.9 5.9 88.9 5.9 C 89.7 5.1 90.8 4.7 92 4.7 C 93.7 4.7 95.1 5.4 95.1 7.4 C 95.09 7.37 95.1 12.5 95.1 12.5 L 93.7 12.5 C 93.7 12.5 93.66 11.71 93.7 11.7 Z M 93.7 9.6 C 93.2 9 92.5 8.7 91.7 8.7 C 90.7 8.7 89.9 9.3 89.9 10.2 C 89.9 11.1 90.7 11.7 91.7 11.7 C 92.5 11.7 93.2 11.4 93.7 10.9 C 93.7 10.9 93.7 9.6 93.7 9.6 Z M 100 9.6 L 97.8 12.5 L 96.2 12.5 L 99.1 8.6 L 96.4 4.9 L 98 4.9 L 100 7.6 L 101.9 4.9 L 103.6 4.9 L 100.9 8.6 L 103.7 12.5 L 102.1 12.5 L 100 9.6 Z M 107.8 4.7 C 110.1 4.7 111.5 6.5 111.5 8.8 C 111.51 8.83 111.5 9.2 111.5 9.2 C 111.5 9.2 105.44 9.18 105.4 9.2 C 105.6 10.5 106.5 11.6 108 11.6 C 108.9 11.6 109.7 11.2 110.3 10.7 C 110.3 10.7 111 11.6 111 11.6 C 110.2 12.3 109.1 12.7 107.9 12.7 C 105.6 12.7 103.9 11.1 103.9 8.7 C 103.9 6.5 105.5 4.7 107.8 4.7 Z M 105.4 8.1 C 105.4 8.1 110.1 8.1 110.1 8.1 C 110.1 7.1 109.4 5.9 107.8 5.9 C 106.2 5.9 105.5 7.1 105.4 8.1 Z M 113.2 10.5 C 113.7 11.1 114.7 11.6 115.7 11.6 C 116.8 11.6 117.4 11.2 117.4 10.5 C 117.4 9.7 116.5 9.5 115.5 9.3 C 114.2 9 112.7 8.6 112.7 7 C 112.7 5.7 113.7 4.7 115.6 4.7 C 116.9 4.7 117.9 5.2 118.5 5.8 C 118.5 5.8 117.9 6.8 117.9 6.8 C 117.5 6.2 116.6 5.8 115.6 5.8 C 114.7 5.8 114.1 6.2 114.1 6.8 C 114.1 7.5 114.9 7.7 115.8 8 C 117.2 8.3 118.8 8.6 118.8 10.4 C 118.8 11.7 117.7 12.7 115.7 12.7 C 114.4 12.7 113.3 12.3 112.5 11.5 C 112.5 11.5 113.2 10.5 113.2 10.5 Z " stroke="none" fill="#242423"/>
  </g>
</svg>