<?xml version="1.0" standalone="no"?>
<!DOCTYPE svg PUBLIC "-//W3C//DTD SVG 1.1//EN" "http://www.w3.org/Graphics/SVG/1.1/DTD/svg11.dtd">
<svg xmlns="http://www.w3.org/2000/svg" version="1.1" width="330.5px" height="16.9px" viewBox="0 -4 330.5 16.9" style="top:-4px">
  <desc>CONTACT AGENT NAME</desc>
  <defs/>
  <g id="Polygon207848">
    <path d="M 213.5 4.1 C 213.5 2.3 214.9 1 216.6 1 C 217.8 1 218.5 1.6 219 2.3 C 219 2.3 218.2 2.7 218.2 2.7 C 217.9 2.2 217.3 1.8 216.6 1.8 C 215.4 1.8 214.4 2.8 214.4 4.1 C 214.4 5.5 215.4 6.4 216.6 6.4 C 217.3 6.4 217.9 6 218.2 5.5 C 218.2 5.5 219 5.9 219 5.9 C 218.5 6.7 217.8 7.2 216.6 7.2 C 214.9 7.2 213.5 6 213.5 4.1 Z M 222.6 1 C 224.4 1 225.7 2.3 225.7 4.1 C 225.7 5.9 224.4 7.2 222.6 7.2 C 220.9 7.2 219.6 5.9 219.6 4.1 C 219.6 2.3 220.9 1 222.6 1 Z M 222.6 1.8 C 221.4 1.8 220.5 2.8 220.5 4.1 C 220.5 5.4 221.4 6.4 222.6 6.4 C 223.9 6.4 224.7 5.4 224.7 4.1 C 224.7 2.8 223.9 1.8 222.6 1.8 Z M 227.7 2.5 L 227.7 7.1 L 226.8 7.1 L 226.8 1.1 L 227.7 1.1 L 231 5.6 L 231 1.1 L 231.8 1.1 L 231.8 7.1 L 231 7.1 L 227.7 2.5 Z M 234.6 1.9 L 232.8 1.9 L 232.8 1.1 L 237.4 1.1 L 237.4 1.9 L 235.5 1.9 L 235.5 7.1 L 234.6 7.1 L 234.6 1.9 Z M 241.5 5.9 L 238.6 5.9 L 238.1 7.1 L 237.1 7.1 L 239.5 1.1 L 240.6 1.1 L 243 7.1 L 242 7.1 L 241.5 5.9 Z M 238.9 5.1 L 241.3 5.1 L 240.1 1.9 L 238.9 5.1 Z M 243.2 4.1 C 243.2 2.3 244.5 1 246.2 1 C 247.4 1 248.2 1.6 248.6 2.3 C 248.6 2.3 247.9 2.7 247.9 2.7 C 247.5 2.2 247 1.8 246.2 1.8 C 245 1.8 244.1 2.8 244.1 4.1 C 244.1 5.5 245 6.4 246.2 6.4 C 247 6.4 247.5 6 247.9 5.5 C 247.9 5.5 248.6 5.9 248.6 5.9 C 248.1 6.7 247.4 7.2 246.2 7.2 C 244.5 7.2 243.2 6 243.2 4.1 Z M 251 1.9 L 249.1 1.9 L 249.1 1.1 L 253.7 1.1 L 253.7 1.9 L 251.9 1.9 L 251.9 7.1 L 251 7.1 L 251 1.9 Z M 256.6 3.8 L 260.6 1.9 L 260.6 2.5 L 257.2 4.1 L 260.6 5.7 L 260.6 6.3 L 256.6 4.4 L 256.6 3.8 Z M 261.1 3.8 L 265.1 1.9 L 265.1 2.5 L 261.7 4.1 L 265.1 5.7 L 265.1 6.3 L 261.1 4.4 L 261.1 3.8 Z M 269.8 5.9 L 266.9 5.9 L 266.4 7.1 L 265.4 7.1 L 267.8 1.1 L 268.9 1.1 L 271.3 7.1 L 270.3 7.1 L 269.8 5.9 Z M 267.1 5.1 L 269.5 5.1 L 268.3 1.9 L 267.1 5.1 Z M 274.5 1 C 275.7 1 276.4 1.5 276.9 2.2 C 276.9 2.2 276.2 2.6 276.2 2.6 C 275.8 2.2 275.2 1.8 274.5 1.8 C 273.3 1.8 272.3 2.8 272.3 4.1 C 272.3 5.5 273.3 6.4 274.5 6.4 C 275.2 6.4 275.8 6.1 276.1 5.8 C 276.06 5.83 276.1 4.8 276.1 4.8 L 274.1 4.8 L 274.1 4 L 277 4 C 277 4 276.96 6.17 277 6.2 C 276.4 6.8 275.6 7.2 274.5 7.2 C 272.8 7.2 271.4 6 271.4 4.1 C 271.4 2.2 272.8 1 274.5 1 Z M 278.1 1.1 L 282.1 1.1 L 282.1 1.9 L 279 1.9 L 279 3.7 L 282.1 3.7 L 282.1 4.4 L 279 4.4 L 279 6.3 L 282.1 6.3 L 282.1 7.1 L 278.1 7.1 L 278.1 1.1 Z M 284.2 2.5 L 284.2 7.1 L 283.3 7.1 L 283.3 1.1 L 284.2 1.1 L 287.5 5.6 L 287.5 1.1 L 288.4 1.1 L 288.4 7.1 L 287.5 7.1 L 284.2 2.5 Z M 291.2 1.9 L 289.3 1.9 L 289.3 1.1 L 293.9 1.1 L 293.9 1.9 L 292.1 1.9 L 292.1 7.1 L 291.2 7.1 L 291.2 1.9 Z M 298.1 2.5 L 298.1 7.1 L 297.2 7.1 L 297.2 1.1 L 298.1 1.1 L 301.4 5.6 L 301.4 1.1 L 302.3 1.1 L 302.3 7.1 L 301.4 7.1 L 298.1 2.5 Z M 307.4 5.9 L 304.5 5.9 L 304 7.1 L 303 7.1 L 305.4 1.1 L 306.5 1.1 L 308.9 7.1 L 307.9 7.1 L 307.4 5.9 Z M 304.7 5.1 L 307.1 5.1 L 305.9 1.9 L 304.7 5.1 Z M 314.8 2.3 L 312.8 7.1 L 312.4 7.1 L 310.5 2.3 L 310.5 7.1 L 309.6 7.1 L 309.6 1.1 L 310.9 1.1 L 312.6 5.4 L 314.4 1.1 L 315.7 1.1 L 315.7 7.1 L 314.8 7.1 L 314.8 2.3 Z M 317 1.1 L 321 1.1 L 321 1.9 L 317.9 1.9 L 317.9 3.7 L 321 3.7 L 321 4.4 L 317.9 4.4 L 317.9 6.3 L 321 6.3 L 321 7.1 L 317 7.1 L 317 1.1 Z M 321.7 5.7 L 325.1 4.1 L 321.7 2.5 L 321.7 1.9 L 325.7 3.8 L 325.7 4.4 L 321.7 6.3 L 321.7 5.7 Z M 326.2 5.7 L 329.6 4.1 L 326.2 2.5 L 326.2 1.9 L 330.2 3.8 L 330.2 4.4 L 326.2 6.3 L 326.2 5.7 Z " stroke="none" fill="#3797ef"/>
  </g>
</svg>