<?xml version="1.0" standalone="no"?><!DOCTYPE svg PUBLIC "-//W3C//DTD SVG 1.1//EN" "http://www.w3.org/Graphics/SVG/1.1/DTD/svg11.dtd"><svg xmlns="http://www.w3.org/2000/svg" xmlns:xlink="http://www.w3.org/1999/xlink" version="1.1" width="212px" height="25.9px" viewBox="0 -8 212 25.9" style="top:-8px"><desc>CONTACT</desc><defs/><g id="Polygon50329"><path d="m95.2 4.1c0-1.8 1.4-3.1 3.1-3.1c1.2 0 1.9.6 2.4 1.3l-.8.4c-.3-.5-.9-.9-1.6-.9c-1.2 0-2.1 1-2.1 2.3c0 1.4.9 2.3 2.1 2.3c.7 0 1.3-.4 1.6-.9l.8.4c-.5.8-1.2 1.3-2.4 1.3c-1.7 0-3.1-1.2-3.1-3.1zm9.2-3.1c1.8 0 3 1.3 3 3.1c0 1.8-1.2 3.1-3 3.1c-1.8 0-3.1-1.3-3.1-3.1c0-1.8 1.3-3.1 3.1-3.1zm0 .8c-1.3 0-2.1 1-2.1 2.3c0 1.3.8 2.3 2.1 2.3c1.2 0 2.1-1 2.1-2.3c0-1.3-.9-2.3-2.1-2.3zm5 .7v4.6h-.9v-6h.9l3.3 4.5V1.1h.9v6h-.9l-3.3-4.6zm7-.6h-1.9v-.8h4.6v.8h-1.8v5.2h-.9V1.9zm6.9 4h-3l-.5 1.2h-1l2.4-6h1.2l2.3 6h-.9l-.5-1.2zm-2.7-.8h2.4l-1.2-3.2l-1.2 3.2zm4.3-1c0-1.8 1.4-3.1 3.1-3.1c1.1 0 1.9.6 2.3 1.3l-.7.4c-.3-.5-.9-.9-1.6-.9c-1.3 0-2.2 1-2.2 2.3c0 1.4.9 2.3 2.2 2.3c.7 0 1.3-.4 1.6-.9l.7.4c-.4.8-1.2 1.3-2.3 1.3c-1.7 0-3.1-1.2-3.1-3.1zm7.8-2.2h-1.8v-.8h4.6v.8h-1.9v5.2h-.9V1.9z" stroke="none" fill="#3797ef"/><a xlink:href="DBF_Agent%20Name" xlink:show="new" xlink:title="&lt;&lt;Agent Name&gt;&gt;"><rect style="fill:transparent;" x="137" y="0" width="75" height="7"/></a></g><g id="Polygon50330"><path d="m138.1 3.8l3.9-1.9v.6l-3.3 1.6l3.3 1.6v.6l-3.9-1.9v-.6zm4.5 0l3.9-1.9v.6l-3.3 1.6l3.3 1.6v.6l-3.9-1.9v-.6zm8.7 2.1h-3l-.5 1.2h-1l2.4-6h1.2l2.3 6h-1l-.4-1.2zm-2.7-.8h2.4l-1.2-3.2l-1.2 3.2zM156 1c1.1 0 1.9.5 2.4 1.2l-.8.4c-.3-.4-.9-.8-1.6-.8c-1.3 0-2.2 1-2.2 2.3c0 1.4.9 2.3 2.2 2.3c.7 0 1.2-.3 1.5-.6c.02.03 0-1 0-1h-1.9v-.8h2.8s.02 2.17 0 2.2c-.6.6-1.4 1-2.4 1c-1.7 0-3.1-1.2-3.1-3.1c0-1.9 1.4-3.1 3.1-3.1zm3.6.1h4v.8h-3.1v1.8h3v.7h-3v1.9h3.1v.8h-4v-6zm6 1.4v4.6h-.9v-6h1l3.2 4.5V1.1h.9v6h-.9l-3.3-4.6zm7-.6h-1.8v-.8h4.6v.8h-1.9v5.2h-.9V1.9zm6.9.6v4.6h-.9v-6h1l3.2 4.5V1.1h.9v6h-.8l-3.4-4.6zm9.4 3.4h-3l-.5 1.2h-1l2.4-6h1.1l2.4 6h-1l-.4-1.2zm-2.7-.8h2.4l-1.2-3.2l-1.2 3.2zm10-2.8l-1.9 4.8h-.4L192 2.3v4.8h-.9v-6h1.2l1.8 4.3l1.7-4.3h1.3v6h-.9V2.3zm2.3-1.2h4v.8h-3.1v1.8h3v.7h-3v1.9h3.1v.8h-4v-6zm4.7 4.6l3.3-1.6l-3.3-1.6v-.6l4 1.9v.6l-4 1.9v-.6zm4.5 0l3.3-1.6l-3.3-1.6v-.6l4 1.9v.6l-4 1.9v-.6z" stroke="none" fill="#3797ef"/></g></svg>