<?xml version="1.0" standalone="no"?><!DOCTYPE svg PUBLIC "-//W3C//DTD SVG 1.1//EN" "http://www.w3.org/Graphics/SVG/1.1/DTD/svg11.dtd"><svg xmlns="http://www.w3.org/2000/svg" version="1.1" width="158px" height="27.9px" viewBox="0 -6 158 27.9" style="top:-6px"><desc>Years in Business</desc><defs/><g id="Polygon95555"><path d="m4.2 8.1L.1 2h1.8L5 6.7L8.1 2h1.8L5.8 8.1v4.4H4.2V8.1zm8.3-3.4c2.4 0 3.8 1.8 3.8 4.1c-.02.03 0 .4 0 .4c0 0-6.09-.02-6.1 0c.1 1.3 1.1 2.4 2.6 2.4c.8 0 1.7-.4 2.3-.9l.7.9c-.8.7-1.9 1.1-3.1 1.1c-2.3 0-4-1.6-4-4c0-2.2 1.6-4 3.8-4zm-2.3 3.4h4.7c0-1-.7-2.2-2.4-2.2c-1.5 0-2.2 1.2-2.3 2.2zm12.6 3.6c-.6.7-1.5 1-2.5 1c-1.3 0-2.7-.8-2.7-2.5c0-1.8 1.4-2.5 2.7-2.5c1 0 1.9.3 2.5 1V7.4c0-.9-.8-1.5-1.9-1.5c-.8 0-1.6.3-2.3 1l-.6-1c.9-.8 1.9-1.2 3.2-1.2c1.6 0 3 .7 3 2.7c.04-.03 0 5.1 0 5.1h-1.4v-.8zm0-2.1c-.4-.6-1.2-.9-2-.9c-1 0-1.7.6-1.7 1.5c0 .9.7 1.5 1.7 1.5c.8 0 1.6-.3 2-.8V9.6zm3.7-4.7h1.5s-.05 1.15 0 1.2c.5-.8 1.4-1.4 2.5-1.4v1.4h-.5c-.7 0-1.7.5-2 1.1c-.05.01 0 5.3 0 5.3h-1.5V4.9zm5.4 5.6c.5.6 1.5 1.1 2.6 1.1c1.1 0 1.6-.4 1.6-1.1c0-.8-.8-1-1.8-1.2C33 9 31.4 8.6 31.4 7c0-1.3 1.1-2.3 3-2.3c1.3 0 2.2.5 2.9 1.1l-.6 1c-.5-.6-1.3-1-2.3-1c-1 0-1.6.4-1.6 1c0 .7.8.9 1.8 1.2c1.3.3 2.9.6 2.9 2.4c0 1.3-1.1 2.3-3.1 2.3c-1.3 0-2.4-.4-3.2-1.2l.7-1zm11.3-7.8c0-.5.4-.9.9-.9c.5 0 .9.4.9.9c0 .5-.4.9-.9.9c-.5 0-.9-.4-.9-.9zm.2 2.2h1.5v7.6h-1.5V4.9zm8.9 2.7c0-1.2-.7-1.6-1.6-1.6c-.9 0-1.7.5-2.1 1.1c-.05-.03 0 5.4 0 5.4h-1.5V4.9h1.5s-.05 1.05 0 1.1c.5-.7 1.5-1.3 2.7-1.3c1.6 0 2.4.8 2.4 2.5c.03-.04 0 5.3 0 5.3h-1.4V7.6zM60.1 2s5-.05 5 0c1.9 0 3 1.1 3 2.7c0 1.3-.9 2.2-1.9 2.4c1.2.2 2.1 1.3 2.1 2.6c0 1.7-1.1 2.8-3.1 2.8c.03.05-5.1 0-5.1 0V2zm4.7 4.4c1.1 0 1.7-.6 1.7-1.5c0-.9-.6-1.5-1.7-1.5c0-.05-3.1 0-3.1 0v3s3.1.05 3.1 0zm.1 4.8c1.1 0 1.8-.7 1.8-1.7c0-.9-.6-1.7-1.8-1.7c-.02.04-3.2 0-3.2 0v3.4s3.18-.05 3.2 0zm10.5.3c-.6.6-1.5 1.2-2.7 1.2c-1.7 0-2.5-.8-2.5-2.4c.03-.01 0-5.4 0-5.4h1.5s-.04 4.92 0 4.9c0 1.3.6 1.7 1.6 1.7c.9 0 1.7-.5 2.1-1.1V4.9h1.4v7.6h-1.4v-1zm3.7-1c.5.6 1.6 1.1 2.6 1.1c1.1 0 1.7-.4 1.7-1.1c0-.8-.9-1-1.9-1.2c-1.3-.3-2.8-.7-2.8-2.3c0-1.3 1-2.3 2.9-2.3c1.3 0 2.3.5 2.9 1.1l-.6 1c-.5-.6-1.3-1-2.3-1c-1 0-1.6.4-1.6 1c0 .7.9.9 1.8 1.2c1.3.3 2.9.6 2.9 2.4c0 1.3-1 2.3-3.1 2.3c-1.3 0-2.4-.4-3.2-1.2l.7-1zm7.2-7.8c0-.5.4-.9.9-.9c.5 0 1 .4 1 .9c0 .5-.5.9-1 .9c-.5 0-.9-.4-.9-.9zm.2 2.2h1.5v7.6h-1.5V4.9zm8.9 2.7c0-1.2-.6-1.6-1.6-1.6c-.9 0-1.7.5-2.1 1.1c-.03-.03 0 5.4 0 5.4h-1.5V4.9h1.5s-.03 1.05 0 1.1c.5-.7 1.5-1.3 2.7-1.3c1.6 0 2.4.8 2.4 2.5c.05-.04 0 5.3 0 5.3h-1.4s.02-4.86 0-4.9zm7.1-2.9c2.3 0 3.7 1.8 3.7 4.1c.02.03 0 .4 0 .4c0 0-6.05-.02-6 0c.1 1.3 1 2.4 2.6 2.4c.8 0 1.7-.4 2.2-.9l.7.9c-.8.7-1.8 1.1-3.1 1.1c-2.3 0-4-1.6-4-4c0-2.2 1.6-4 3.9-4zm-2.4 3.4h4.7c0-1-.7-2.2-2.3-2.2c-1.6 0-2.3 1.2-2.4 2.2zm7.9 2.4c.6.6 1.6 1.1 2.6 1.1c1.1 0 1.7-.4 1.7-1.1c0-.8-.9-1-1.9-1.2c-1.3-.3-2.8-.7-2.8-2.3c0-1.3 1-2.3 2.9-2.3c1.3 0 2.3.5 2.9 1.1l-.6 1c-.5-.6-1.3-1-2.3-1c-1 0-1.6.4-1.6 1c0 .7.9.9 1.8 1.2c1.3.3 2.9.6 2.9 2.4c0 1.3-1 2.3-3.1 2.3c-1.2 0-2.4-.4-3.2-1.2l.7-1zm7.5 0c.5.6 1.5 1.1 2.5 1.1c1.1 0 1.7-.4 1.7-1.1c0-.8-.9-1-1.9-1.2c-1.3-.3-2.8-.7-2.8-2.3c0-1.3 1-2.3 2.9-2.3c1.3 0 2.3.5 2.9 1.1l-.6 1c-.4-.6-1.3-1-2.3-1c-.9 0-1.5.4-1.5 1c0 .7.8.9 1.7 1.2c1.4.3 3 .6 3 2.4c0 1.3-1.1 2.3-3.1 2.3c-1.3 0-2.4-.4-3.2-1.2l.7-1z" stroke="none" fill="#000"/></g></svg>