<?xml version="1.0" standalone="no"?><!DOCTYPE svg PUBLIC "-//W3C//DTD SVG 1.1//EN" "http://www.w3.org/Graphics/SVG/1.1/DTD/svg11.dtd"><svg xmlns="http://www.w3.org/2000/svg" version="1.1" width="252px" height="47.4px" viewBox="0 -10 252 47.4" style="top:-10px"><desc>Agent 1</desc><defs/><g id="Polygon90145"><path d="m9.6 22.6v2.5h-2v-2.5c-2.9-.2-5.1-1.3-6.5-2.9l1.6-2.2c1.1 1.2 2.8 2.3 4.9 2.5v-6.1c-2.9-.7-5.9-1.8-5.9-5.3c0-3 2.4-5.1 5.9-5.4V.6h2v2.6c2.3.3 4.2 1.2 5.6 2.6l-1.6 2.1c-1.1-1.1-2.5-1.8-4-2.1v5.6c2.9.7 6 1.8 6 5.6c0 2.7-1.7 5.2-6 5.6zm-2-11.8V5.7c-1.8.2-3 1.2-3 2.7c0 1.3 1.3 1.9 3 2.4zm5.2 6.4c0-1.6-1.4-2.2-3.2-2.8v5.6c2.3-.2 3.2-1.6 3.2-2.8zm5.3 2.9c7.1-5.4 10.3-8.3 10.3-11.2c0-2.2-1.8-3.2-3.7-3.2c-2.2 0-3.9.9-5.1 2.3L18 6.2c1.5-2 4.1-3 6.7-3c3.4 0 6.6 1.9 6.6 5.7c0 3.6-3.5 6.9-8.7 10.9c-.01.02 8.8 0 8.8 0v2.5H18.1v-2.2zm20.6-7.5c-2.1-.7-4-2.1-4-4.5c0-3.4 3.4-4.9 6.7-4.9c3.2 0 6.6 1.5 6.6 4.9c0 2.4-1.9 3.8-4 4.5c2.3.7 4.3 2.4 4.3 4.9c0 3.3-3.2 5.1-6.9 5.1c-3.8 0-7-1.8-7-5.1c0-2.5 2-4.2 4.3-4.9zm2.7-6.9c-2.2 0-3.9 1-3.9 2.8c0 2 2.7 2.8 3.9 3c1.1-.2 3.8-1 3.8-3c0-1.8-1.7-2.8-3.8-2.8zm0 8.2c-1.2.1-4.2 1.1-4.2 3.3c0 1.8 1.9 2.9 4.2 2.9c2.1 0 4.1-1.1 4.1-2.9c0-2.2-3-3.2-4.1-3.3zm11.5 4.4c1 1.1 2.1 1.8 4 1.8c3.6 0 5.1-3.4 5.1-6.8v-.6c-.8 1.2-2.9 2.8-5.2 2.8c-3.4 0-6.2-2.1-6.2-6.1c0-3.4 2.6-6.2 6.7-6.2c5.5 0 7.6 4.5 7.6 9.7c0 5.3-2.6 9.7-8 9.7c-2.4 0-4.1-.9-5.3-2.2l1.3-2.1zm4.6-12.6c-2.7 0-4.1 2-4.1 3.6c0 2.5 1.9 3.7 4.1 3.7c1.8 0 3.5-1 4.4-2.5c-.1-2.2-1.3-4.8-4.4-4.8zM66.7 25c.9-.6 1.8-1.7 1.9-2.6h-.4c-.9 0-1.5-.7-1.5-1.6c0-1 .8-1.7 1.7-1.7c1.1 0 2 .8 2 2.3c0 1.9-1.1 3.6-2.5 4.6l-1.2-1zm10.5-12.4c-2.1-.7-4-2.1-4-4.5c0-3.4 3.4-4.9 6.7-4.9c3.2 0 6.6 1.5 6.6 4.9c0 2.4-1.9 3.8-4 4.5c2.3.7 4.3 2.4 4.3 4.9c0 3.3-3.2 5.1-6.9 5.1c-3.8 0-7-1.8-7-5.1c0-2.5 2-4.2 4.3-4.9zm2.7-6.9c-2.2 0-3.9 1-3.9 2.8c0 2 2.7 2.8 3.9 3c1.1-.2 3.8-1 3.8-3c0-1.8-1.7-2.8-3.8-2.8zm0 8.2c-1.2.1-4.2 1.1-4.2 3.3c0 1.8 1.9 2.9 4.2 2.9c2.2 0 4.1-1.1 4.1-2.9c0-2.2-3-3.2-4.1-3.3zM96.5 3.2c5.3 0 7.4 5 7.4 9.7c0 4.7-2.1 9.7-7.4 9.7c-5.2 0-7.3-5-7.3-9.7c0-4.7 2.1-9.7 7.3-9.7zm0 2.5c-3.3 0-4.5 3.5-4.5 7.2c0 3.7 1.2 7.2 4.5 7.2c3.4 0 4.5-3.5 4.5-7.2c0-3.7-1.1-7.2-4.5-7.2zm17.1-2.5c5.2 0 7.4 5 7.4 9.7c0 4.7-2.2 9.7-7.4 9.7c-5.2 0-7.4-5-7.4-9.7c0-4.7 2.2-9.7 7.4-9.7zm0 2.5c-3.3 0-4.5 3.5-4.5 7.2c0 3.7 1.2 7.2 4.5 7.2c3.3 0 4.5-3.5 4.5-7.2c0-3.7-1.2-7.2-4.5-7.2z" stroke="none" fill="#282828"/></g></svg>