<?xml version="1.0" standalone="no"?><!DOCTYPE svg PUBLIC "-//W3C//DTD SVG 1.1//EN" "http://www.w3.org/Graphics/SVG/1.1/DTD/svg11.dtd"><svg xmlns="http://www.w3.org/2000/svg" version="1.1" width="58.2px" height="16.9px" viewBox="0 -4 58.2 16.9" style="top:-4px"><desc>Agent 1</desc><defs/><g id="Polygon45113"><path d="m1.6 2.5v4.6h-.9v-6h.9l3.3 4.5V1.1h.9v6h-.9L1.6 2.5zM9.8 1c1.8 0 3 1.3 3 3.1c0 1.8-1.2 3.1-3 3.1c-1.8 0-3-1.3-3-3.1C6.8 2.3 8 1 9.8 1zm0 .8c-1.3 0-2.1 1-2.1 2.3c0 1.3.8 2.3 2.1 2.3c1.2 0 2.1-1 2.1-2.3c0-1.3-.9-2.3-2.1-2.3zm4-.7h.9v6h-.9v-6z" stroke="none" fill="#3797ef"/></g></svg>