<?xml version="1.0" standalone="no"?><!DOCTYPE svg PUBLIC "-//W3C//DTD SVG 1.1//EN" "http://www.w3.org/Graphics/SVG/1.1/DTD/svg11.dtd"><svg xmlns="http://www.w3.org/2000/svg" version="1.1" width="185px" height="47.4px" viewBox="0 -10 185 47.4" style="top:-10px"><desc>000</desc><defs/><g id="Polygon293340"><path d="m8.7 3.2c5.2 0 7.3 5 7.3 9.7c0 4.7-2.1 9.7-7.3 9.7c-5.3 0-7.4-5-7.4-9.7c0-4.7 2.1-9.7 7.4-9.7zm0 2.5c-3.4 0-4.5 3.5-4.5 7.2c0 3.7 1.1 7.2 4.5 7.2c3.3 0 4.5-3.5 4.5-7.2c0-3.7-1.2-7.2-4.5-7.2zm17-2.5c5.2 0 7.4 5 7.4 9.7c0 4.7-2.2 9.7-7.4 9.7c-5.2 0-7.3-5-7.3-9.7c0-4.7 2.1-9.7 7.3-9.7zm0 2.5c-3.3 0-4.5 3.5-4.5 7.2c0 3.7 1.2 7.2 4.5 7.2c3.4 0 4.5-3.5 4.5-7.2c0-3.7-1.1-7.2-4.5-7.2zm17.1-2.5c5.2 0 7.3 5 7.3 9.7c0 4.7-2.1 9.7-7.3 9.7c-5.2 0-7.4-5-7.4-9.7c0-4.7 2.2-9.7 7.4-9.7zm0 2.5c-3.4 0-4.5 3.5-4.5 7.2c0 3.7 1.1 7.2 4.5 7.2c3.3 0 4.5-3.5 4.5-7.2c0-3.7-1.2-7.2-4.5-7.2z" stroke="none" fill="#282828"/></g></svg>