<?xml version="1.0" standalone="no"?>
<!DOCTYPE svg PUBLIC "-//W3C//DTD SVG 1.1//EN" "http://www.w3.org/Graphics/SVG/1.1/DTD/svg11.dtd">
<svg xmlns="http://www.w3.org/2000/svg" version="1.1" width="388.4px" height="67.5px" viewBox="0 -6 388.4 67.5" style="top:-6px">
  <desc>SUBJECT PROPERTY LEASE SUMMARY</desc>
  <defs/>
  <g id="Polygon211373">
    <path d="M 9.7 46.4 L 1.4 46.4 L 1.4 26.7 L 4.7 26.7 L 4.7 43.5 L 9.7 43.5 L 9.7 46.4 Z M 11.2 46.4 L 11.2 26.7 L 19.9 26.7 L 19.9 29.5 L 14.5 29.5 L 14.5 35 L 19 35 L 19 37.8 L 14.5 37.8 L 14.5 43.5 L 20 43.5 L 20 46.4 L 11.2 46.4 Z M 28.3 42 L 24.7 42 L 24 46.4 L 20.8 46.4 L 24.5 26.7 L 28.6 26.7 L 32.3 46.4 L 29 46.4 L 28.3 42 Z M 27.9 39.3 L 26.5 30.5 L 25.1 39.3 L 27.9 39.3 Z M 39.5 33.7 C 39.5 33.7 39.53 30.96 39.5 31 C 39.5 29.7 38.8 29.3 37.9 29.3 C 36.9 29.3 36.2 29.7 36.2 31 C 36.2 31 36.2 32.3 36.2 32.3 C 36.2 33.3 36.5 33.8 37.5 34.3 C 37.5 34.3 39.8 35.6 39.8 35.6 C 41.7 36.7 42.8 37.6 42.8 39.7 C 42.8 39.7 42.8 42.5 42.8 42.5 C 42.8 45.6 40.9 46.7 37.9 46.7 C 37.9 46.7 37.9 46.7 37.9 46.7 C 34.9 46.7 33 45.6 33 42.5 C 32.98 42.53 33 39.1 33 39.1 L 36.2 39.1 C 36.2 39.1 36.2 42.08 36.2 42.1 C 36.2 43.3 36.9 43.8 37.9 43.8 C 38.9 43.8 39.6 43.3 39.6 42.1 C 39.6 42.1 39.6 40.5 39.6 40.5 C 39.6 39.5 39.3 39 38.3 38.5 C 38.3 38.5 36 37.2 36 37.2 C 34.1 36.1 33 35.2 33 33.1 C 33 33.1 33 30.5 33 30.5 C 33 27.6 35.1 26.4 37.8 26.4 C 37.8 26.4 37.9 26.4 37.9 26.4 C 40.6 26.4 42.7 27.6 42.7 30.5 C 42.75 30.5 42.7 33.7 42.7 33.7 L 39.5 33.7 Z M 44.9 46.4 L 44.9 26.7 L 53.6 26.7 L 53.6 29.5 L 48.2 29.5 L 48.2 35 L 52.7 35 L 52.7 37.8 L 48.2 37.8 L 48.2 43.5 L 53.6 43.5 L 53.6 46.4 L 44.9 46.4 Z M 66.1 33.7 C 66.1 33.7 66.07 30.96 66.1 31 C 66.1 29.7 65.4 29.3 64.4 29.3 C 63.4 29.3 62.7 29.7 62.7 31 C 62.7 31 62.7 32.3 62.7 32.3 C 62.7 33.3 63.1 33.8 64 34.3 C 64 34.3 66.3 35.6 66.3 35.6 C 68.2 36.7 69.3 37.6 69.3 39.7 C 69.3 39.7 69.3 42.5 69.3 42.5 C 69.3 45.6 67.5 46.7 64.5 46.7 C 64.5 46.7 64.4 46.7 64.4 46.7 C 61.4 46.7 59.5 45.6 59.5 42.5 C 59.52 42.53 59.5 39.1 59.5 39.1 L 62.7 39.1 C 62.7 39.1 62.74 42.08 62.7 42.1 C 62.7 43.3 63.4 43.8 64.4 43.8 C 65.4 43.8 66.1 43.3 66.1 42.1 C 66.1 42.1 66.1 40.5 66.1 40.5 C 66.1 39.5 65.8 39 64.8 38.5 C 64.8 38.5 62.5 37.2 62.5 37.2 C 60.6 36.1 59.5 35.2 59.5 33.1 C 59.5 33.1 59.5 30.5 59.5 30.5 C 59.5 27.6 61.7 26.4 64.4 26.4 C 64.4 26.4 64.4 26.4 64.4 26.4 C 67.1 26.4 69.3 27.6 69.3 30.5 C 69.29 30.5 69.3 33.7 69.3 33.7 L 66.1 33.7 Z M 81.3 42.5 C 81.3 45.5 79.4 46.7 76.4 46.7 C 76.4 46.7 76.3 46.7 76.3 46.7 C 73.3 46.7 71.4 45.6 71.4 42.5 C 71.38 42.48 71.4 26.7 71.4 26.7 L 74.7 26.7 C 74.7 26.7 74.65 41.97 74.7 42 C 74.7 43.4 75.3 43.8 76.3 43.8 C 77.4 43.8 78 43.4 78 42 C 78.04 41.97 78 26.7 78 26.7 L 81.3 26.7 C 81.3 26.7 81.32 42.48 81.3 42.5 Z M 91.7 43.5 L 89.8 43.5 L 86.9 34.3 L 86.9 46.4 L 83.8 46.4 L 83.8 26.7 L 86.9 26.7 L 90.7 38.2 L 94.6 26.7 L 97.8 26.7 L 97.8 46.4 L 94.6 46.4 L 94.6 34.3 L 91.7 43.5 Z M 108.2 43.5 L 106.3 43.5 L 103.4 34.3 L 103.4 46.4 L 100.3 46.4 L 100.3 26.7 L 103.4 26.7 L 107.2 38.2 L 111.1 26.7 L 114.3 26.7 L 114.3 46.4 L 111.1 46.4 L 111.1 34.3 L 108.2 43.5 Z M 123.1 42 L 119.5 42 L 118.8 46.4 L 115.7 46.4 L 119.3 26.7 L 123.4 26.7 L 127.2 46.4 L 123.8 46.4 L 123.1 42 Z M 122.7 39.3 L 121.3 30.5 L 119.9 39.3 L 122.7 39.3 Z M 136 46.4 L 133.4 38.6 L 131.8 38.6 L 131.8 46.4 L 128.5 46.4 L 128.5 26.7 C 128.5 26.7 133.64 26.66 133.6 26.7 C 136.6 26.7 138.6 27.9 138.6 30.8 C 138.6 30.8 138.6 34.4 138.6 34.4 C 138.6 36.3 137.8 37.5 136.5 38 C 136.46 38.04 139.3 46.4 139.3 46.4 L 136 46.4 Z M 131.8 35.7 C 131.8 35.7 133.52 35.73 133.5 35.7 C 134.6 35.7 135.3 35.3 135.3 33.9 C 135.3 33.9 135.3 31.4 135.3 31.4 C 135.3 29.9 134.6 29.5 133.5 29.5 C 133.52 29.54 131.8 29.5 131.8 29.5 L 131.8 35.7 Z M 146.6 46.4 L 143.3 46.4 L 143.3 39.4 L 139.3 26.7 L 142.8 26.7 L 145 35.8 L 147.2 26.7 L 150.6 26.7 L 146.6 39.4 L 146.6 46.4 Z " stroke="none" fill="#282828"/>
  </g>
  <g id="Polygon211372">
    <path d="M 1.4 9.8 C 2.1 10.6 3.3 11.3 4.8 11.3 C 6.5 11.3 7.1 10.5 7.1 9.7 C 7.1 8.6 5.9 8.3 4.5 7.9 C 2.8 7.5 0.9 7 0.9 4.8 C 0.9 3.1 2.4 1.8 4.6 1.8 C 6.2 1.8 7.5 2.3 8.5 3.3 C 8.5 3.3 7.5 4.4 7.5 4.4 C 6.7 3.6 5.6 3.2 4.5 3.2 C 3.3 3.2 2.5 3.8 2.5 4.7 C 2.5 5.7 3.6 6 5 6.3 C 6.7 6.7 8.7 7.3 8.7 9.5 C 8.7 11.2 7.6 12.7 4.7 12.7 C 2.8 12.7 1.4 12.1 0.5 11.1 C 0.5 11.1 1.4 9.8 1.4 9.8 Z M 10.4 2 L 12 2 C 12 2 11.99 8.36 12 8.4 C 12 10.2 13 11.3 14.8 11.3 C 16.7 11.3 17.7 10.2 17.7 8.4 C 17.69 8.36 17.7 2 17.7 2 L 19.3 2 C 19.3 2 19.3 8.39 19.3 8.4 C 19.3 11 17.8 12.7 14.8 12.7 C 11.9 12.7 10.4 11 10.4 8.4 C 10.39 8.4 10.4 2 10.4 2 Z M 21.5 2 C 21.5 2 26.48 1.95 26.5 2 C 28.4 2 29.5 3.1 29.5 4.7 C 29.5 6 28.6 6.9 27.6 7.1 C 28.7 7.3 29.7 8.4 29.7 9.7 C 29.7 11.4 28.6 12.5 26.6 12.5 C 26.6 12.55 21.5 12.5 21.5 12.5 L 21.5 2 Z M 26.2 6.4 C 27.2 6.4 27.8 5.8 27.8 4.9 C 27.8 4 27.2 3.4 26.2 3.4 C 26.17 3.35 23.1 3.4 23.1 3.4 L 23.1 6.4 C 23.1 6.4 26.17 6.45 26.2 6.4 Z M 26.3 11.2 C 27.4 11.2 28 10.5 28 9.5 C 28 8.6 27.4 7.8 26.3 7.8 C 26.25 7.84 23.1 7.8 23.1 7.8 L 23.1 11.2 C 23.1 11.2 26.25 11.15 26.3 11.2 Z M 31.2 10.4 C 31.7 10.9 32.3 11.3 33.1 11.3 C 34.4 11.3 35.1 10.5 35.1 9.3 C 35.12 9.26 35.1 2 35.1 2 L 36.7 2 C 36.7 2 36.7 9.28 36.7 9.3 C 36.7 11.6 35.2 12.7 33.2 12.7 C 32.1 12.7 31.2 12.4 30.5 11.6 C 30.5 11.6 31.2 10.4 31.2 10.4 Z M 38.9 2 L 46 2 L 46 3.4 L 40.5 3.4 L 40.5 6.4 L 45.9 6.4 L 45.9 7.8 L 40.5 7.8 L 40.5 11.2 L 46 11.2 L 46 12.5 L 38.9 12.5 L 38.9 2 Z M 47.4 7.3 C 47.4 4 49.8 1.8 52.8 1.8 C 54.9 1.8 56.2 2.8 57 4 C 57 4 55.7 4.7 55.7 4.7 C 55.1 3.8 54.1 3.2 52.8 3.2 C 50.7 3.2 49 4.9 49 7.3 C 49 9.6 50.7 11.3 52.8 11.3 C 54.1 11.3 55.1 10.7 55.7 9.8 C 55.7 9.8 57 10.5 57 10.5 C 56.2 11.7 54.9 12.7 52.8 12.7 C 49.8 12.7 47.4 10.5 47.4 7.3 Z M 61.1 3.4 L 57.8 3.4 L 57.8 2 L 65.9 2 L 65.9 3.4 L 62.7 3.4 L 62.7 12.5 L 61.1 12.5 L 61.1 3.4 Z M 71.4 2 C 71.4 2 75.82 1.95 75.8 2 C 78 2 79.2 3.4 79.2 5.2 C 79.2 7 78 8.5 75.8 8.5 C 75.82 8.46 72.9 8.5 72.9 8.5 L 72.9 12.5 L 71.4 12.5 L 71.4 2 Z M 75.6 3.4 C 75.62 3.35 72.9 3.4 72.9 3.4 L 72.9 7.1 C 72.9 7.1 75.62 7.07 75.6 7.1 C 76.8 7.1 77.6 6.3 77.6 5.2 C 77.6 4.1 76.8 3.4 75.6 3.4 Z M 84.3 8.5 L 82.3 8.5 L 82.3 12.5 L 80.7 12.5 L 80.7 2 C 80.7 2 85.14 1.95 85.1 2 C 87.2 2 88.5 3.3 88.5 5.2 C 88.5 7.1 87.3 8.1 85.9 8.3 C 85.91 8.31 88.6 12.5 88.6 12.5 L 86.8 12.5 L 84.3 8.5 Z M 84.9 3.4 C 84.94 3.35 82.3 3.4 82.3 3.4 L 82.3 7.1 C 82.3 7.1 84.94 7.07 84.9 7.1 C 86.1 7.1 86.9 6.3 86.9 5.2 C 86.9 4.1 86.1 3.4 84.9 3.4 Z M 95.2 1.8 C 98.4 1.8 100.6 4.1 100.6 7.3 C 100.6 10.4 98.4 12.7 95.2 12.7 C 92.1 12.7 89.9 10.4 89.9 7.3 C 89.9 4.1 92.1 1.8 95.2 1.8 Z M 95.2 3.2 C 93 3.2 91.5 4.9 91.5 7.3 C 91.5 9.6 93 11.3 95.2 11.3 C 97.5 11.3 98.9 9.6 98.9 7.3 C 98.9 4.9 97.5 3.2 95.2 3.2 Z M 102.3 2 C 102.3 2 106.79 1.95 106.8 2 C 109 2 110.2 3.4 110.2 5.2 C 110.2 7 109 8.5 106.8 8.5 C 106.79 8.46 103.9 8.5 103.9 8.5 L 103.9 12.5 L 102.3 12.5 L 102.3 2 Z M 106.6 3.4 C 106.59 3.35 103.9 3.4 103.9 3.4 L 103.9 7.1 C 103.9 7.1 106.59 7.07 106.6 7.1 C 107.7 7.1 108.5 6.3 108.5 5.2 C 108.5 4.1 107.7 3.4 106.6 3.4 Z M 111.7 2 L 118.8 2 L 118.8 3.4 L 113.2 3.4 L 113.2 6.4 L 118.7 6.4 L 118.7 7.8 L 113.2 7.8 L 113.2 11.2 L 118.8 11.2 L 118.8 12.5 L 111.7 12.5 L 111.7 2 Z M 124.2 8.5 L 122.2 8.5 L 122.2 12.5 L 120.6 12.5 L 120.6 2 C 120.6 2 125.06 1.95 125.1 2 C 127.1 2 128.5 3.3 128.5 5.2 C 128.5 7.1 127.2 8.1 125.8 8.3 C 125.82 8.31 128.5 12.5 128.5 12.5 L 126.7 12.5 L 124.2 8.5 Z M 124.8 3.4 C 124.85 3.35 122.2 3.4 122.2 3.4 L 122.2 7.1 C 122.2 7.1 124.85 7.07 124.8 7.1 C 126 7.1 126.8 6.3 126.8 5.2 C 126.8 4.1 126 3.4 124.8 3.4 Z M 132.7 3.4 L 129.4 3.4 L 129.4 2 L 137.5 2 L 137.5 3.4 L 134.3 3.4 L 134.3 12.5 L 132.7 12.5 L 132.7 3.4 Z M 142.1 8.1 L 137.9 2 L 139.8 2 L 142.9 6.7 L 146 2 L 147.8 2 L 143.7 8.1 L 143.7 12.5 L 142.1 12.5 L 142.1 8.1 Z " stroke="none" fill="#3797ef"/>
  </g>
</svg>