<?xml version="1.0" standalone="no"?>
<!DOCTYPE svg PUBLIC "-//W3C//DTD SVG 1.1//EN" "http://www.w3.org/Graphics/SVG/1.1/DTD/svg11.dtd">
<svg xmlns="http://www.w3.org/2000/svg" version="1.1" width="89.3px" height="16.9px" viewBox="0 -4 89.3 16.9" style="top:-4px">
  <desc>Lease Expiration</desc>
  <defs/>
  <g id="Polygon274338">
    <path d="M 0.7 1.1 L 1.6 1.1 L 1.6 6.3 L 4.3 6.3 L 4.3 7.1 L 0.7 7.1 L 0.7 1.1 Z M 7 2.7 C 8.3 2.7 9.1 3.7 9.1 5 C 9.13 5 9.1 5.2 9.1 5.2 C 9.1 5.2 5.69 5.2 5.7 5.2 C 5.8 5.9 6.3 6.6 7.2 6.6 C 7.6 6.6 8.1 6.4 8.5 6 C 8.5 6 8.8 6.6 8.8 6.6 C 8.4 7 7.8 7.2 7.1 7.2 C 5.8 7.2 4.8 6.3 4.8 4.9 C 4.8 3.7 5.7 2.7 7 2.7 Z M 5.7 4.6 C 5.7 4.6 8.3 4.6 8.3 4.6 C 8.3 4 7.9 3.3 7 3.3 C 6.1 3.3 5.7 4 5.7 4.6 Z M 12.8 6.6 C 12.5 7 12 7.2 11.4 7.2 C 10.7 7.2 9.9 6.7 9.9 5.8 C 9.9 4.8 10.7 4.4 11.4 4.4 C 12 4.4 12.5 4.5 12.8 4.9 C 12.8 4.9 12.8 4.2 12.8 4.2 C 12.8 3.7 12.4 3.3 11.8 3.3 C 11.3 3.3 10.8 3.5 10.5 3.9 C 10.5 3.9 10.1 3.4 10.1 3.4 C 10.6 2.9 11.2 2.7 11.9 2.7 C 12.8 2.7 13.6 3.1 13.6 4.2 C 13.63 4.18 13.6 7.1 13.6 7.1 L 12.8 7.1 C 12.8 7.1 12.83 6.63 12.8 6.6 Z M 12.8 5.4 C 12.6 5.1 12.2 4.9 11.7 4.9 C 11.1 4.9 10.7 5.3 10.7 5.8 C 10.7 6.3 11.1 6.7 11.7 6.7 C 12.2 6.7 12.6 6.5 12.8 6.2 C 12.8 6.2 12.8 5.4 12.8 5.4 Z M 14.9 5.9 C 15.2 6.3 15.8 6.6 16.4 6.6 C 17 6.6 17.3 6.3 17.3 5.9 C 17.3 5.5 16.8 5.4 16.3 5.2 C 15.5 5.1 14.7 4.9 14.7 3.9 C 14.7 3.2 15.3 2.7 16.3 2.7 C 17.1 2.7 17.6 2.9 18 3.3 C 18 3.3 17.6 3.8 17.6 3.8 C 17.4 3.5 16.9 3.3 16.3 3.3 C 15.8 3.3 15.5 3.5 15.5 3.9 C 15.5 4.3 15.9 4.4 16.5 4.5 C 17.2 4.7 18.1 4.9 18.1 5.9 C 18.1 6.6 17.5 7.2 16.4 7.2 C 15.6 7.2 15 7 14.6 6.5 C 14.6 6.5 14.9 5.9 14.9 5.9 Z M 21.1 2.7 C 22.4 2.7 23.2 3.7 23.2 5 C 23.17 5 23.2 5.2 23.2 5.2 C 23.2 5.2 19.73 5.2 19.7 5.2 C 19.8 5.9 20.3 6.6 21.2 6.6 C 21.7 6.6 22.2 6.4 22.5 6 C 22.5 6 22.9 6.6 22.9 6.6 C 22.4 7 21.8 7.2 21.1 7.2 C 19.8 7.2 18.9 6.3 18.9 4.9 C 18.9 3.7 19.8 2.7 21.1 2.7 Z M 19.7 4.6 C 19.7 4.6 22.4 4.6 22.4 4.6 C 22.4 4 22 3.3 21.1 3.3 C 20.2 3.3 19.8 4 19.7 4.6 Z M 26.5 1.1 L 30.6 1.1 L 30.6 1.9 L 27.4 1.9 L 27.4 3.7 L 30.5 3.7 L 30.5 4.4 L 27.4 4.4 L 27.4 6.3 L 30.6 6.3 L 30.6 7.1 L 26.5 7.1 L 26.5 1.1 Z M 33.2 5.4 L 32 7.1 L 31.1 7.1 L 32.7 4.9 L 31.2 2.8 L 32.1 2.8 L 33.2 4.3 L 34.3 2.8 L 35.3 2.8 L 33.7 4.9 L 35.4 7.1 L 34.4 7.1 L 33.2 5.4 Z M 36.1 8.8 L 36.1 2.8 L 36.9 2.8 C 36.9 2.8 36.89 3.38 36.9 3.4 C 37.2 3 37.7 2.7 38.3 2.7 C 39.4 2.7 40.2 3.5 40.2 4.9 C 40.2 6.4 39.4 7.2 38.3 7.2 C 37.7 7.2 37.2 7 36.9 6.5 C 36.89 6.48 36.9 8.8 36.9 8.8 L 36.1 8.8 Z M 38.1 3.4 C 37.6 3.4 37.1 3.7 36.9 4 C 36.9 4 36.9 5.9 36.9 5.9 C 37.1 6.2 37.6 6.5 38.1 6.5 C 38.9 6.5 39.4 5.8 39.4 4.9 C 39.4 4 38.9 3.4 38.1 3.4 Z M 41.1 1.5 C 41.1 1.2 41.4 1 41.7 1 C 42 1 42.2 1.2 42.2 1.5 C 42.2 1.8 42 2 41.7 2 C 41.4 2 41.1 1.8 41.1 1.5 Z M 41.3 2.8 L 42.1 2.8 L 42.1 7.1 L 41.3 7.1 L 41.3 2.8 Z M 43.4 2.8 L 44.2 2.8 C 44.2 2.8 44.18 3.43 44.2 3.4 C 44.5 3 45 2.7 45.6 2.7 C 45.6 2.7 45.6 3.5 45.6 3.5 C 45.5 3.5 45.4 3.5 45.3 3.5 C 44.9 3.5 44.4 3.8 44.2 4.1 C 44.18 4.09 44.2 7.1 44.2 7.1 L 43.4 7.1 L 43.4 2.8 Z M 49.1 6.6 C 48.8 7 48.3 7.2 47.7 7.2 C 47 7.2 46.2 6.7 46.2 5.8 C 46.2 4.8 46.9 4.4 47.7 4.4 C 48.3 4.4 48.8 4.5 49.1 4.9 C 49.1 4.9 49.1 4.2 49.1 4.2 C 49.1 3.7 48.7 3.3 48 3.3 C 47.5 3.3 47.1 3.5 46.7 3.9 C 46.7 3.9 46.4 3.4 46.4 3.4 C 46.9 2.9 47.5 2.7 48.2 2.7 C 49.1 2.7 49.9 3.1 49.9 4.2 C 49.9 4.18 49.9 7.1 49.9 7.1 L 49.1 7.1 C 49.1 7.1 49.1 6.63 49.1 6.6 Z M 49.1 5.4 C 48.9 5.1 48.4 4.9 48 4.9 C 47.4 4.9 47 5.3 47 5.8 C 47 6.3 47.4 6.7 48 6.7 C 48.4 6.7 48.9 6.5 49.1 6.2 C 49.1 6.2 49.1 5.4 49.1 5.4 Z M 51.4 6.1 C 51.36 6.15 51.4 3.5 51.4 3.5 L 50.6 3.5 L 50.6 2.8 L 51.4 2.8 L 51.4 1.6 L 52.2 1.6 L 52.2 2.8 L 53.1 2.8 L 53.1 3.5 L 52.2 3.5 C 52.2 3.5 52.17 5.97 52.2 6 C 52.2 6.3 52.3 6.5 52.6 6.5 C 52.8 6.5 53 6.4 53 6.3 C 53 6.3 53.2 6.9 53.2 6.9 C 53.1 7.1 52.8 7.2 52.4 7.2 C 51.7 7.2 51.4 6.8 51.4 6.1 Z M 53.8 1.5 C 53.8 1.2 54.1 1 54.4 1 C 54.6 1 54.9 1.2 54.9 1.5 C 54.9 1.8 54.6 2 54.4 2 C 54.1 2 53.8 1.8 53.8 1.5 Z M 54 2.8 L 54.8 2.8 L 54.8 7.1 L 54 7.1 L 54 2.8 Z M 55.8 4.9 C 55.8 3.7 56.6 2.7 58 2.7 C 59.3 2.7 60.2 3.7 60.2 4.9 C 60.2 6.2 59.3 7.2 58 7.2 C 56.6 7.2 55.8 6.2 55.8 4.9 Z M 59.3 4.9 C 59.3 4.1 58.9 3.4 58 3.4 C 57.1 3.4 56.6 4.1 56.6 4.9 C 56.6 5.8 57.1 6.5 58 6.5 C 58.9 6.5 59.3 5.8 59.3 4.9 Z M 64.1 4.3 C 64.1 3.6 63.8 3.4 63.2 3.4 C 62.7 3.4 62.2 3.7 62 4 C 62.01 4 62 7.1 62 7.1 L 61.2 7.1 L 61.2 2.8 L 62 2.8 C 62 2.8 62.01 3.37 62 3.4 C 62.3 3 62.9 2.7 63.5 2.7 C 64.5 2.7 64.9 3.1 64.9 4.1 C 64.94 4.06 64.9 7.1 64.9 7.1 L 64.1 7.1 C 64.1 7.1 64.13 4.33 64.1 4.3 Z " stroke="none" fill="#000"/>
  </g>
</svg>