<?xml version="1.0" standalone="no"?><!DOCTYPE svg PUBLIC "-//W3C//DTD SVG 1.1//EN" "http://www.w3.org/Graphics/SVG/1.1/DTD/svg11.dtd"><svg xmlns="http://www.w3.org/2000/svg" version="1.1" width="375px" height="46.5px" viewBox="0 -10 375 46.5" style="top:-10px"><desc>SITE PLAN</desc><defs/><g id="Polygon96363"><path d="m150.4 9.3V6.6c0-1.3-.7-1.7-1.7-1.7c-.9 0-1.6.4-1.6 1.7v1.3c0 1 .3 1.5 1.2 2l2.3 1.3c1.9 1.1 3.1 2 3.1 4.1v2.8c0 3.1-1.9 4.1-4.9 4.1h-.1c-3 0-4.9-1-4.9-4.1c.03.03 0-3.4 0-3.4h3.3s-.05 2.98 0 3c0 1.2.7 1.7 1.6 1.7c1 0 1.7-.5 1.7-1.7v-1.6c0-1-.3-1.5-1.3-2l-2.2-1.3c-2-1.1-3.1-2-3.1-4.1V6.1c0-2.9 2.2-4.1 4.9-4.1c2.8 0 4.9 1.2 4.9 4.1v3.2h-3.2zm5.5 12.7V2.3h3.2V22h-3.2zm14.6-16.9h-3.3V22H164V5.1h-3.3V2.3h9.8v2.8zM172 22V2.3h8.6v2.8h-5.4v5.5h4.5v2.8h-4.5v5.7h5.5v2.9H172zm25.1-15.6v3.8c0 3-2 4.2-5 4.2c-.01-.03-1.8 0-1.8 0v7.6H187V2.3s5.09-.04 5.1 0c3 0 5 1.1 5 4.1zm-3.3.5c0-1.4-.8-1.8-1.8-1.8c-.02.04-1.7 0-1.7 0v6.4s1.68-.01 1.7 0c1 0 1.8-.4 1.8-1.8V6.9zM207.2 22h-8.3V2.3h3.2v16.8h5.1v2.9zm7.8-4.4h-3.7l-.7 4.4h-3.1l3.6-19.7h4.2L219 22h-3.3l-.7-4.4zm-.5-2.7l-1.3-8.8l-1.4 8.8h2.7zm5.9 7.1V2.3h3.2l4.2 12.2V2.3h3V22h-3.1l-4.4-12.8V22h-2.9z" stroke="none" fill="#282828"/></g></svg>