<?xml version="1.0" standalone="no"?><!DOCTYPE svg PUBLIC "-//W3C//DTD SVG 1.1//EN" "http://www.w3.org/Graphics/SVG/1.1/DTD/svg11.dtd"><svg xmlns="http://www.w3.org/2000/svg" version="1.1" width="134.3px" height="15.9px" viewBox="0 -4 134.3 15.9" style="top:-4px"><desc>7 10 2014</desc><defs/><g id="Polygon94115"><path d="m101.7 1.6h-3.3v-.5h3.9v.4l-2.5 5.6h-.6l2.5-5.5zm3-.7h.4L103 7.3h-.4l2.1-6.4zm2 .9l-1 1l-.3-.3l1.3-1.4h.5v6h-.5V1.8zm4-.8c1.6 0 2.2 1.7 2.2 3.1c0 1.4-.6 3.1-2.2 3.1c-1.7 0-2.3-1.7-2.3-3.1c0-1.4.6-3.1 2.3-3.1zm0 .5c-1.3 0-1.7 1.4-1.7 2.6c0 1.2.4 2.7 1.7 2.7c1.2 0 1.6-1.5 1.6-2.7c0-1.2-.4-2.6-1.6-2.6zm4.8-.6h.4l-2.1 6.4h-.4l2.1-6.4zm.9 5.8c2.1-1.7 3.4-2.8 3.4-4c0-.9-.7-1.2-1.3-1.2c-.8 0-1.3.3-1.7.8l-.3-.4c.4-.5 1.1-.9 2-.9c.9 0 1.9.5 1.9 1.7c0 1.3-1.4 2.5-3.2 3.9c.03.04 3.2 0 3.2 0v.5h-4s.03-.41 0-.4zm7.5-5.7c1.6 0 2.2 1.7 2.2 3.1c0 1.4-.6 3.1-2.2 3.1c-1.6 0-2.2-1.7-2.2-3.1c0-1.4.6-3.1 2.2-3.1zm0 .5c-1.3 0-1.7 1.4-1.7 2.6c0 1.2.4 2.7 1.7 2.7c1.3 0 1.7-1.5 1.7-2.7c0-1.2-.4-2.6-1.7-2.6zm4.3.3l-1 1l-.3-.3l1.3-1.4h.5v6h-.5V1.8zm4.4 3.7h-2.9v-.5l2.7-3.9h.7v3.9h.9v.5h-.9v1.6h-.5V5.5zm-2.3-.5h2.3V1.6L130.3 5z" stroke="none" fill="#000"/></g></svg>