<?xml version="1.0" standalone="no"?><!DOCTYPE svg PUBLIC "-//W3C//DTD SVG 1.1//EN" "http://www.w3.org/Graphics/SVG/1.1/DTD/svg11.dtd"><svg xmlns="http://www.w3.org/2000/svg" version="1.1" width="303px" height="50.3px" viewBox="0 -1 303 50.3" style="top:-1px"><desc>SUBMIT OFFER</desc><defs/><g id="Polygon104965"><path d="m93.7 26.1c.7.8 1.9 1.5 3.3 1.5c1.8 0 2.4-.9 2.4-1.7c0-1.1-1.2-1.4-2.6-1.8c-1.7-.4-3.7-.9-3.7-3.1c0-1.7 1.6-3 3.8-3c1.6 0 2.9.5 3.8 1.5l-.9 1.2c-.8-.9-1.9-1.3-3-1.3c-1.2 0-2 .6-2 1.5c0 1 1.1 1.3 2.4 1.6c1.8.5 3.8 1 3.8 3.3c0 1.6-1.2 3.2-4 3.2c-1.9 0-3.3-.7-4.2-1.7l.9-1.2zm9.9-7.9h1.6s.03 6.38 0 6.4c0 1.8 1 3 2.9 3c1.8 0 2.8-1.2 2.8-3c.03-.02 0-6.4 0-6.4h1.6s.03 6.41 0 6.4c0 2.6-1.4 4.4-4.4 4.4c-3 0-4.5-1.8-4.5-4.4c.02.03 0-6.4 0-6.4zm12.1 0s4.96-.02 5 0c1.9 0 2.9 1.1 2.9 2.7c0 1.3-.8 2.2-1.8 2.4c1.1.2 2.1 1.3 2.1 2.6c0 1.7-1.2 2.9-3.1 2.9c-.01-.03-5.1 0-5.1 0V18.2zm4.7 4.5c1 0 1.6-.7 1.6-1.6c0-.8-.6-1.5-1.6-1.5c-.04-.02-3.1 0-3.1 0v3.1s3.06-.02 3.1 0zm0 4.7c1.2 0 1.8-.7 1.8-1.7c0-.9-.6-1.6-1.8-1.6c.04-.03-3.1 0-3.1 0v3.3s3.14-.02 3.1 0zm15.3-7l-3.4 8.4h-.7l-3.4-8.4v8.4h-1.6V18.2h2.3l3.1 7.6l3-7.6h2.3v10.6h-1.6v-8.4zm4.8-2.2h1.6v10.6h-1.6V18.2zm7.3 1.4h-3.3v-1.4h8.2v1.4h-3.3v9.2h-1.6v-9.2zm17.1-1.6c3.1 0 5.3 2.3 5.3 5.5c0 3.1-2.2 5.5-5.3 5.5c-3.2 0-5.3-2.4-5.3-5.5c0-3.2 2.1-5.5 5.3-5.5zm0 1.4c-2.3 0-3.7 1.7-3.7 4.1c0 2.3 1.4 4.1 3.7 4.1c2.2 0 3.7-1.8 3.7-4.1c0-2.4-1.5-4.1-3.7-4.1zm8-1.2h7.2v1.4h-5.6v3.1h5.4v1.4h-5.4v4.7h-1.6V18.2zm9.7 0h7.1v1.4h-5.6v3.1h5.5v1.4h-5.5v4.7h-1.5V18.2zm9.6 0h7.1v1.4h-5.5v3.1h5.4v1.4h-5.4v3.3h5.5v1.4h-7.1V18.2zm13.5 6.5h-2v4.1h-1.6V18.2s4.44-.02 4.4 0c2.1 0 3.4 1.3 3.4 3.2c0 1.9-1.2 3-2.6 3.1c0 .03 2.7 4.3 2.7 4.3h-1.8l-2.5-4.1zm.6-5.1c.03-.02-2.6 0-2.6 0v3.7h2.6c1.2 0 2-.8 2-1.9c0-1.1-.8-1.8-2-1.8z" stroke="none" fill="#ffffff"/></g></svg>