<?xml version="1.0" standalone="no"?><!DOCTYPE svg PUBLIC "-//W3C//DTD SVG 1.1//EN" "http://www.w3.org/Graphics/SVG/1.1/DTD/svg11.dtd"><svg xmlns="http://www.w3.org/2000/svg" version="1.1" width="101.2px" height="16.9px" viewBox="0 -4 101.2 16.9" style="top:-4px"><desc>CONTACT INFORMATION</desc><defs/><g id="Polygon37029"><path d="m.4 4.1C.4 2.3 1.8 1 3.5 1c1.2 0 1.9.6 2.4 1.3l-.8.4c-.3-.5-.9-.9-1.6-.9c-1.2 0-2.2 1-2.2 2.3c0 1.4 1 2.3 2.2 2.3c.7 0 1.3-.4 1.6-.9l.8.4c-.5.8-1.2 1.3-2.4 1.3C1.8 7.2.4 6 .4 4.1zM9.5 1c1.8 0 3 1.3 3 3.1c0 1.8-1.2 3.1-3 3.1c-1.8 0-3.1-1.3-3.1-3.1C6.4 2.3 7.7 1 9.5 1zm0 .8c-1.3 0-2.1 1-2.1 2.3c0 1.3.8 2.3 2.1 2.3c1.2 0 2.1-1 2.1-2.3c0-1.3-.9-2.3-2.1-2.3zm4.9.7v4.6h-.9v-6h.9l3.3 4.5V1.1h.9v6h-.9l-3.3-4.6zm6.9-.6h-1.9v-.8h4.6v.8h-1.8v5.2h-.9V1.9zm6.8 4h-3l-.4 1.2h-1l2.4-6h1.1l2.4 6h-1l-.5-1.2zm-2.7-.8h2.4l-1.2-3.2l-1.2 3.2zm4.2-1C29.6 2.3 31 1 32.7 1c1.2 0 1.9.6 2.4 1.3l-.8.4c-.3-.5-.9-.9-1.6-.9c-1.2 0-2.2 1-2.2 2.3c0 1.4 1 2.3 2.2 2.3c.7 0 1.3-.4 1.6-.9l.8.4c-.5.8-1.2 1.3-2.4 1.3c-1.7 0-3.1-1.2-3.1-3.1zm7.8-2.2h-1.9v-.8h4.6v.8h-1.8v5.2h-.9V1.9zm5.8-.8h.9v6h-.9v-6zm3 1.4v4.6h-.9v-6h1l3.2 4.5V1.1h.9v6h-.8l-3.4-4.6zm5.5-1.4h4v.8h-3.1v1.8h3v.7h-3v2.7h-.9v-6zm7.7-.1c1.8 0 3 1.3 3 3.1c0 1.8-1.2 3.1-3 3.1c-1.8 0-3.1-1.3-3.1-3.1c0-1.8 1.3-3.1 3.1-3.1zm0 .8c-1.3 0-2.1 1-2.1 2.3c0 1.3.8 2.3 2.1 2.3c1.2 0 2.1-1 2.1-2.3c0-1.3-.9-2.3-2.1-2.3zm6 3h-1.1v2.3h-.9v-6s2.52.01 2.5 0c1.2 0 1.9.7 1.9 1.9c0 1-.7 1.6-1.5 1.7c.05.01 1.6 2.4 1.6 2.4h-1.1l-1.4-2.3zm.4-2.9h-1.5v2.1h1.5c.6 0 1.1-.4 1.1-1c0-.7-.5-1.1-1.1-1.1zm8.2.4l-1.9 4.8h-.4l-1.9-4.8v4.8h-.9v-6h1.2l1.8 4.3l1.7-4.3h1.3v6h-.9V2.3zm6 3.6h-3l-.5 1.2h-1l2.4-6h1.2l2.3 6h-1L80 5.9zm-2.7-.8h2.4l-1.2-3.2l-1.2 3.2zm5.6-3.2h-1.8v-.8h4.6v.8h-1.9v5.2h-.9V1.9zm3.6-.8h.9v6h-.9v-6zm5-.1c1.8 0 3 1.3 3 3.1c0 1.8-1.2 3.1-3 3.1c-1.8 0-3.1-1.3-3.1-3.1c0-1.8 1.3-3.1 3.1-3.1zm0 .8c-1.3 0-2.1 1-2.1 2.3c0 1.3.8 2.3 2.1 2.3c1.2 0 2.1-1 2.1-2.3c0-1.3-.9-2.3-2.1-2.3zm4.9.7v4.6h-.9v-6h.9l3.3 4.5V1.1h.9v6h-.9l-3.3-4.6z" stroke="none" fill="#3797ef"/></g></svg>