<?xml version="1.0" standalone="no"?><!DOCTYPE svg PUBLIC "-//W3C//DTD SVG 1.1//EN" "http://www.w3.org/Graphics/SVG/1.1/DTD/svg11.dtd"><svg xmlns="http://www.w3.org/2000/svg" version="1.1" width="375px" height="81.2px" viewBox="0 -9 375 81.2" style="top:-9px"><desc>Lease summary</desc><defs/><g id="Polygon280925"><path d="m121.9 55.9h-8.3V36.1h3.2V53h5.1v2.9zm1.5 0V36.1h8.6v2.9h-5.4v5.4h4.6v2.9h-4.6v5.7h5.5v2.9h-8.7zm17.1-4.4h-3.7l-.7 4.4H133l3.6-19.8h4.2l3.7 19.8h-3.3l-.7-4.4zm-.5-2.7l-1.4-8.8l-1.3 8.8h2.7zm11.8-5.6s.03-2.76 0-2.8c0-1.2-.7-1.7-1.6-1.7c-1 0-1.7.5-1.7 1.7v1.4c0 1 .3 1.5 1.3 2l2.3 1.3c1.9 1.1 3 1.9 3 4.1v2.8c0 3.1-1.9 4.1-4.9 4.1c-3 0-4.9-1-4.9-4.1c-.02.02 0-3.4 0-3.4h3.2v3c0 1.2.7 1.7 1.7 1.7c1 0 1.7-.5 1.7-1.7V50c0-1-.3-1.5-1.3-2l-2.3-1.3c-1.9-1.1-3-2.1-3-4.1V40c0-2.9 2.1-4.1 4.8-4.1h.1c2.7 0 4.9 1.2 4.9 4.1c-.05-.01 0 3.2 0 3.2h-3.3zm5.4 12.7V36.1h8.7v2.9h-5.4v5.4h4.5v2.9h-4.5v5.7h5.5v2.9h-8.8zm21.2-12.7s-.02-2.76 0-2.8c0-1.2-.7-1.7-1.7-1.7c-.9 0-1.7.5-1.7 1.7v1.4c0 1 .4 1.5 1.3 2l2.3 1.3c1.9 1.1 3.1 1.9 3.1 4.1v2.8c0 3.1-1.9 4.1-4.9 4.1h-.1c-3 0-4.9-1-4.9-4.1c.03.02 0-3.4 0-3.4h3.2s.05 2.97 0 3c0 1.2.8 1.7 1.7 1.7c1 0 1.7-.5 1.7-1.7V50c0-1-.3-1.5-1.3-2l-2.3-1.3c-1.9-1.1-3-2.1-3-4.1V40c0-2.9 2.2-4.1 4.9-4.1c2.8 0 4.9 1.2 4.9 4.1v3.2h-3.2zm15.2 8.8c0 3-1.9 4.1-4.9 4.1h-.1c-3 0-4.9-1.1-4.9-4.1V36.1h3.3s-.04 15.35 0 15.4c0 1.4.6 1.8 1.7 1.8c1 0 1.7-.4 1.7-1.8c-.05-.05 0-15.4 0-15.4h3.2s.03 15.86 0 15.9zm10.4 1h-1.9l-2.9-9.2v12.1h-3.1V36.1h3.1l3.8 11.5l3.9-11.5h3.2v19.8h-3.2V43.8L204 53zm16.5 0h-1.9l-2.9-9.2v12.1h-3.1V36.1h3.1l3.9 11.5l3.8-11.5h3.2v19.8h-3.2V43.8l-2.9 9.2zm15-1.5h-3.7l-.7 4.4H228l3.6-19.8h4.2l3.7 19.8h-3.3l-.7-4.4zm-.5-2.7l-1.4-8.8l-1.3 8.8h2.7zm13.3 7.1l-2.5-7.9h-1.7v7.9h-3.3V36.1s5.16.05 5.2 0c2.9 0 4.9 1.2 4.9 4.2v3.6c0 1.8-.8 3-2.1 3.6c-.02.03 2.8 8.4 2.8 8.4h-3.3zm-4.2-10.7s1.74.01 1.7 0c1.1 0 1.9-.4 1.9-1.8v-2.6c0-1.4-.8-1.8-1.9-1.8c.04.03-1.7 0-1.7 0v6.2zm14.8 10.7h-3.3v-7l-3.9-12.8h3.4l2.2 9.2l2.2-9.2h3.4l-4 12.8v7z" stroke="none" fill="#282828"/></g></svg>