<?xml version="1.0" standalone="no"?><!DOCTYPE svg PUBLIC "-//W3C//DTD SVG 1.1//EN" "http://www.w3.org/Graphics/SVG/1.1/DTD/svg11.dtd"><svg xmlns="http://www.w3.org/2000/svg" version="1.1" width="416.3px" height="27.9px" viewBox="0 -6 416.3 27.9" style="top:-6px"><desc>TENANT NAME</desc><defs/><g id="Polygon264797"><path d="m3.8 3.4H.5V2h8.1v1.4H5.4v9.1H3.8V3.4zM10.3 2h7.1v1.4h-5.5v3h5.4v1.4h-5.4v3.4h5.5v1.3h-7.1V2zM21 4.4v8.1h-1.6V2h1.6l5.8 7.9V2h1.6v10.5h-1.6L21 4.4zm16.4 6h-5.2l-.8 2.1h-1.8L33.8 2h2L40 12.5h-1.7l-.9-2.1zm-4.7-1.5h4.3l-2.2-5.6l-2.1 5.6zm10.2-4.5v8.1h-1.6V2h1.6l5.8 7.9V2h1.6v10.5h-1.6l-5.8-8.1zm12.3-1h-3.3V2h8.2v1.4h-3.3v9.1h-1.6V3.4zm12.2 1v8.1h-1.6V2h1.7l5.7 7.9V2h1.6v10.5h-1.5l-5.9-8.1zm16.5 6h-5.2l-.9 2.1h-1.7L80.3 2h2l4.2 10.5h-1.8l-.8-2.1zm-4.8-1.5h4.3l-2.1-5.6l-2.2 5.6zm17.8-4.8l-3.5 8.4h-.6l-3.5-8.4v8.4h-1.6V2h2.3l3.1 7.6L96.2 2h2.3v10.5h-1.6V4.1zm3.9-2.1h7.1v1.4h-5.5v3h5.4v1.4h-5.4v3.4h5.5v1.3h-7.1V2z" stroke="none" fill="#88898a"/></g></svg>