<?xml version="1.0" standalone="no"?><!DOCTYPE svg PUBLIC "-//W3C//DTD SVG 1.1//EN" "http://www.w3.org/Graphics/SVG/1.1/DTD/svg11.dtd"><svg xmlns="http://www.w3.org/2000/svg" version="1.1" width="25px" height="12.3px" viewBox="0 -3 25 12.3" style="top:-3px"><desc>5-Mile</desc><defs/><g id="Polygon308790"><path d="m9.1 3.6c.3.3.7.5 1.1.5c.5 0 .8-.3.8-.6c0-.4-.3-.6-.8-.6c-.3 0-.6.1-.8.3L8.8 3V.7h2.7v.8H9.6s.03.97 0 1c.2-.2.6-.4.9-.4c.7 0 1.3.5 1.3 1.3c0 .9-.6 1.4-1.6 1.4c-.7 0-1.2-.2-1.5-.6l.4-.6zm3-.6h1.5v.6h-1.5v-.6zm5.5-1.1l-1.1 2.8h-.4L15 1.9v2.8h-.9v-4h1.2l1 2.5l.9-2.5h1.2v4h-.8V1.9zm1.5-.9c0-.3.2-.5.4-.5c.3 0 .5.2.5.5c0 .2-.2.4-.5.4c-.2 0-.4-.2-.4-.4zm.1.8h.7v2.9h-.7V1.8zM20.6.7h.8v4h-.8v-4zm2.8 1.1c.8 0 1.4.6 1.4 1.6c.04-.03 0 .1 0 .1c0 0-2.12.03-2.1 0c0 .4.3.7.8.7c.3 0 .6-.1.8-.3l.3.5c-.3.3-.7.4-1.2.4c-.8 0-1.5-.6-1.5-1.5c0-.9.6-1.5 1.5-1.5zM22.7 3h1.4c0-.3-.2-.6-.7-.6c-.5 0-.7.3-.7.6z" stroke="none" fill="#282828"/></g></svg>