<?xml version="1.0" standalone="no"?><!DOCTYPE svg PUBLIC "-//W3C//DTD SVG 1.1//EN" "http://www.w3.org/Graphics/SVG/1.1/DTD/svg11.dtd"><svg xmlns="http://www.w3.org/2000/svg" version="1.1" width="77px" height="15.9px" viewBox="0 -4 77 15.9" style="top:-4px"><desc>19,944</desc><defs/><g id="Polygon111053"><path d="m53.9 1.8l-1 1l-.3-.3l1.3-1.4h.5v6h-.5V1.8zm2.4 4.3c.3.4.6.6 1.3.6c1.3 0 1.8-1.3 1.8-2.6v-.3c-.3.4-1 1-1.8 1c-1.1 0-1.9-.6-1.9-1.9c0-1 .7-1.9 2-1.9c1.6 0 2.2 1.5 2.2 3.1c0 1.6-.7 3.1-2.3 3.1c-.8 0-1.3-.3-1.6-.8l.3-.3zm1.4-4.6c-1 0-1.5.8-1.5 1.4c0 1 .6 1.5 1.5 1.5c.6 0 1.3-.5 1.6-1.1c-.1-.8-.5-1.8-1.6-1.8zM60.6 8c.3-.2.5-.6.5-.8h-.1c-.2 0-.3-.2-.3-.4c0-.2.1-.4.3-.4c.3 0 .5.2.5.6c0 .5-.3 1-.6 1.2l-.3-.2zm2.6-1.9c.3.4.6.6 1.3.6c1.3 0 1.8-1.3 1.8-2.6v-.3c-.3.4-1 1-1.8 1c-1.1 0-1.9-.6-1.9-1.9c0-1 .7-1.9 2-1.9c1.6 0 2.2 1.5 2.2 3.1c0 1.6-.7 3.1-2.3 3.1c-.8 0-1.3-.3-1.6-.8l.3-.3zm1.4-4.6c-1 0-1.5.8-1.5 1.4c0 1 .6 1.5 1.5 1.5c.6 0 1.3-.5 1.6-1.1c0-.8-.5-1.8-1.6-1.8zm5.9 4h-2.9v-.5l2.7-3.9h.7v3.9h.9v.5h-.9v1.6h-.5V5.5zM68.1 5h2.4V1.6L68.1 5zm7.2.5h-2.8v-.5l2.7-3.9h.6v3.9h.9v.5h-.9v1.6h-.5V5.5zM73 5h2.3V1.6L73 5z" stroke="none" fill="#000"/></g></svg>