<?xml version="1.0" standalone="no"?><!DOCTYPE svg PUBLIC "-//W3C//DTD SVG 1.1//EN" "http://www.w3.org/Graphics/SVG/1.1/DTD/svg11.dtd"><svg xmlns="http://www.w3.org/2000/svg" version="1.1" width="237px" height="26.9px" viewBox="0 -6 237 26.9" style="top:-6px"><desc>Fee Simple</desc><defs/><g id="Polygon94939"><path d="m160.9 2h6.8v.8h-5.9v3.9h5.7v.8h-5.7v5h-.9V2zm11.9 2.7c2.3 0 3.6 1.8 3.6 4.1v.2s-6.43-.03-6.4 0c.1 1.6 1.2 3 3 3c.9 0 1.8-.3 2.5-1l.4.5c-.7.8-1.7 1.2-3 1.2c-2.2 0-3.8-1.6-3.8-4c0-2.2 1.5-4 3.7-4zM170 8.3h5.6c-.1-1.3-.9-2.9-2.8-2.9c-1.9 0-2.8 1.6-2.8 2.9zm11.8-3.6c2.3 0 3.6 1.8 3.6 4.1v.2s-6.42-.03-6.4 0c.1 1.6 1.2 3 3 3c1 0 1.8-.3 2.5-1l.4.5c-.7.8-1.7 1.2-3 1.2c-2.2 0-3.8-1.6-3.8-4c0-2.2 1.5-4 3.7-4zM179 8.3h5.6c-.1-1.3-.9-2.9-2.8-2.9c-1.9 0-2.8 1.6-2.8 2.9zm12.7 2.1c.7.8 1.8 1.5 3.3 1.5c2.1 0 2.8-1.2 2.8-2.1c0-1.5-1.5-1.9-2.9-2.3c-1.7-.5-3.5-.9-3.5-2.9c0-1.7 1.6-2.8 3.5-2.8c1.6 0 2.8.5 3.6 1.5l-.6.6c-.8-.9-1.9-1.3-3.1-1.3c-1.4 0-2.4.8-2.4 2c0 1.2 1.3 1.6 2.7 2c1.7.5 3.6 1 3.6 3.2c0 1.3-.9 2.9-3.7 2.9c-1.8 0-3.1-.7-3.9-1.6l.6-.7zm8.9-7.5c0-.3.3-.6.7-.6c.3 0 .6.3.6.6c0 .4-.3.7-.6.7c-.4 0-.7-.3-.7-.7zm.3 2h.8v7.6h-.8V4.9zm12.5 2.3c0-1.1-.5-1.8-1.5-1.8c-.9 0-1.8.6-2.2 1.3c-.04.03 0 5.8 0 5.8h-.9s.02-5.32 0-5.3c0-1.1-.4-1.8-1.5-1.8c-.8 0-1.8.7-2.2 1.3v5.8h-.8V4.9h.8s-.01 1.13 0 1.1c.3-.5 1.4-1.3 2.5-1.3c1.2 0 1.8.7 2 1.4c.4-.7 1.4-1.4 2.5-1.4c1.4 0 2.1.8 2.1 2.3c.02.02 0 5.5 0 5.5h-.8V7.2zm3.4 8.3V4.9h.8s.02 1.2 0 1.2c.6-.8 1.5-1.4 2.7-1.4c2 0 3.4 1.5 3.4 4c0 2.5-1.4 4-3.4 4c-1.1 0-2.1-.5-2.7-1.4c.02.01 0 4.2 0 4.2h-.8zm3.3-10.1c-1 0-2 .7-2.5 1.4v3.8c.5.7 1.5 1.4 2.5 1.4c1.8 0 2.7-1.4 2.7-3.3c0-1.9-.9-3.3-2.7-3.3zm5.7-3.4h.9v10.5h-.9V2zm6.7 2.7c2.3 0 3.6 1.8 3.6 4.1c.02-.05 0 .2 0 .2c0 0-6.39-.03-6.4 0c.1 1.6 1.2 3 3 3c1 0 1.9-.3 2.5-1l.4.5c-.7.8-1.7 1.2-3 1.2c-2.2 0-3.8-1.6-3.8-4c0-2.2 1.6-4 3.7-4zm-2.8 3.6h5.6c0-1.3-.9-2.9-2.8-2.9c-1.8 0-2.7 1.6-2.8 2.9z" stroke="none" fill="#000"/></g></svg>