<?xml version="1.0" standalone="no"?>
<!DOCTYPE svg PUBLIC "-//W3C//DTD SVG 1.1//EN" "http://www.w3.org/Graphics/SVG/1.1/DTD/svg11.dtd">
<svg xmlns="http://www.w3.org/2000/svg" version="1.1" width="70.1px" height="36.9px" viewBox="0 -6 70.1 36.9" style="top:-6px">
  <desc>Agent 1</desc>
  <defs/>
  <g id="Polygon208264">
    <path d="M 0.4 22.1 C 0.4 20.2 1.8 19 3.5 19 C 4.7 19 5.4 19.6 5.9 20.3 C 5.9 20.3 5.1 20.7 5.1 20.7 C 4.8 20.2 4.2 19.8 3.5 19.8 C 2.3 19.8 1.3 20.7 1.3 22.1 C 1.3 23.4 2.3 24.4 3.5 24.4 C 4.2 24.4 4.8 24 5.1 23.5 C 5.1 23.5 5.9 23.9 5.9 23.9 C 5.4 24.6 4.7 25.2 3.5 25.2 C 1.8 25.2 0.4 23.9 0.4 22.1 Z M 9.4 24.6 C 9 25 8.5 25.2 7.9 25.2 C 7.2 25.2 6.4 24.7 6.4 23.8 C 6.4 22.8 7.2 22.3 7.9 22.3 C 8.5 22.3 9 22.5 9.4 22.9 C 9.4 22.9 9.4 22.2 9.4 22.2 C 9.4 21.6 8.9 21.3 8.3 21.3 C 7.8 21.3 7.4 21.5 7 21.9 C 7 21.9 6.6 21.3 6.6 21.3 C 7.1 20.9 7.7 20.6 8.4 20.6 C 9.4 20.6 10.2 21 10.2 22.2 C 10.16 22.15 10.2 25.1 10.2 25.1 L 9.4 25.1 C 9.4 25.1 9.35 24.61 9.4 24.6 Z M 9.4 23.4 C 9.1 23.1 8.7 22.9 8.2 22.9 C 7.6 22.9 7.2 23.2 7.2 23.8 C 7.2 24.3 7.6 24.6 8.2 24.6 C 8.7 24.6 9.1 24.5 9.4 24.1 C 9.4 24.1 9.4 23.4 9.4 23.4 Z M 11.4 26.7 L 11.4 20.7 L 12.2 20.7 C 12.2 20.7 12.18 21.36 12.2 21.4 C 12.5 20.9 13 20.6 13.6 20.6 C 14.7 20.6 15.5 21.5 15.5 22.9 C 15.5 24.3 14.7 25.2 13.6 25.2 C 13 25.2 12.5 24.9 12.2 24.5 C 12.18 24.46 12.2 26.7 12.2 26.7 L 11.4 26.7 Z M 13.4 21.4 C 12.9 21.4 12.4 21.6 12.2 22 C 12.2 22 12.2 23.8 12.2 23.8 C 12.4 24.2 12.9 24.5 13.4 24.5 C 14.2 24.5 14.7 23.8 14.7 22.9 C 14.7 22 14.2 21.4 13.4 21.4 Z M 20.7 22.8 L 19.6 22.8 L 19.6 25.1 L 18.7 25.1 L 18.7 19.1 C 18.7 19.1 21.25 19.08 21.2 19.1 C 22.4 19.1 23.2 19.8 23.2 20.9 C 23.2 22 22.4 22.6 21.7 22.7 C 21.68 22.68 23.2 25.1 23.2 25.1 L 22.2 25.1 L 20.7 22.8 Z M 21.1 19.9 C 21.13 19.87 19.6 19.9 19.6 19.9 L 19.6 22 C 19.6 22 21.13 21.98 21.1 22 C 21.8 22 22.2 21.6 22.2 20.9 C 22.2 20.3 21.8 19.9 21.1 19.9 Z M 26.7 24.6 C 26.3 25 25.8 25.2 25.3 25.2 C 24.5 25.2 23.7 24.7 23.7 23.8 C 23.7 22.8 24.5 22.3 25.3 22.3 C 25.8 22.3 26.3 22.5 26.7 22.9 C 26.7 22.9 26.7 22.2 26.7 22.2 C 26.7 21.6 26.2 21.3 25.6 21.3 C 25.1 21.3 24.7 21.5 24.3 21.9 C 24.3 21.9 24 21.3 24 21.3 C 24.4 20.9 25 20.6 25.7 20.6 C 26.7 20.6 27.5 21 27.5 22.2 C 27.49 22.15 27.5 25.1 27.5 25.1 L 26.7 25.1 C 26.7 25.1 26.68 24.61 26.7 24.6 Z M 26.7 23.4 C 26.4 23.1 26 22.9 25.6 22.9 C 25 22.9 24.6 23.2 24.6 23.8 C 24.6 24.3 25 24.6 25.6 24.6 C 26 24.6 26.4 24.5 26.7 24.1 C 26.7 24.1 26.7 23.4 26.7 23.4 Z M 28.9 24.1 C 28.85 24.12 28.9 21.4 28.9 21.4 L 28.1 21.4 L 28.1 20.7 L 28.9 20.7 L 28.9 19.6 L 29.7 19.6 L 29.7 20.7 L 30.5 20.7 L 30.5 21.4 L 29.7 21.4 C 29.7 21.4 29.66 23.94 29.7 23.9 C 29.7 24.2 29.8 24.5 30.1 24.5 C 30.3 24.5 30.4 24.4 30.5 24.3 C 30.5 24.3 30.7 24.9 30.7 24.9 C 30.6 25.1 30.3 25.2 29.9 25.2 C 29.2 25.2 28.9 24.8 28.9 24.1 Z M 33.3 20.6 C 34.6 20.6 35.4 21.6 35.4 23 C 35.38 22.98 35.4 23.2 35.4 23.2 C 35.4 23.2 31.94 23.18 31.9 23.2 C 32 23.9 32.5 24.5 33.4 24.5 C 33.9 24.5 34.4 24.3 34.7 24 C 34.7 24 35.1 24.5 35.1 24.5 C 34.7 25 34 25.2 33.3 25.2 C 32 25.2 31.1 24.3 31.1 22.9 C 31.1 21.6 32 20.6 33.3 20.6 Z M 31.9 22.6 C 31.9 22.6 34.6 22.6 34.6 22.6 C 34.6 22 34.2 21.3 33.3 21.3 C 32.4 21.3 32 22 31.9 22.6 Z " stroke="none" fill="#3797ef"/>
  </g>
  <g id="Polygon208263">
    <path d="M 6.2 4.1 C 6.2 4.1 6.2 10.8 6.2 10.8 C 6.2 12.5 5.2 13.2 3.6 13.2 C 3.6 13.2 3.4 13.2 3.4 13.2 C 1.7 13.2 0.7 12.5 0.7 10.8 C 0.7 10.8 0.7 4.1 0.7 4.1 C 0.7 2.4 1.7 1.8 3.4 1.8 C 3.4 1.8 3.6 1.8 3.6 1.8 C 5.2 1.8 6.2 2.4 6.2 4.1 Z M 3.5 3.4 C 2.9 3.4 2.5 3.6 2.5 4.4 C 2.5 4.4 2.5 10.6 2.5 10.6 C 2.5 11.4 2.9 11.6 3.5 11.6 C 4.1 11.6 4.4 11.4 4.4 10.6 C 4.4 10.6 4.4 4.4 4.4 4.4 C 4.4 3.6 4.1 3.4 3.5 3.4 Z M 9.3 13.1 L 7.5 13.1 L 7.5 11 L 9.3 11 L 9.3 13.1 Z M 16 4.1 C 16 4.1 16 10.8 16 10.8 C 16 12.5 15 13.2 13.3 13.2 C 13.3 13.2 13.2 13.2 13.2 13.2 C 11.5 13.2 10.5 12.5 10.5 10.8 C 10.5 10.8 10.5 4.1 10.5 4.1 C 10.5 2.4 11.5 1.8 13.2 1.8 C 13.2 1.8 13.3 1.8 13.3 1.8 C 15 1.8 16 2.4 16 4.1 Z M 13.2 3.4 C 12.7 3.4 12.3 3.6 12.3 4.4 C 12.3 4.4 12.3 10.6 12.3 10.6 C 12.3 11.4 12.7 11.6 13.2 11.6 C 13.8 11.6 14.2 11.4 14.2 10.6 C 14.2 10.6 14.2 4.4 14.2 4.4 C 14.2 3.6 13.8 3.4 13.2 3.4 Z M 22.8 4.1 C 22.8 4.1 22.8 10.8 22.8 10.8 C 22.8 12.5 21.8 13.2 20.1 13.2 C 20.1 13.2 20 13.2 20 13.2 C 18.3 13.2 17.3 12.5 17.3 10.8 C 17.3 10.8 17.3 4.1 17.3 4.1 C 17.3 2.4 18.3 1.8 20 1.8 C 20 1.8 20.1 1.8 20.1 1.8 C 21.8 1.8 22.8 2.4 22.8 4.1 Z M 20.1 3.4 C 19.5 3.4 19.1 3.6 19.1 4.4 C 19.1 4.4 19.1 10.6 19.1 10.6 C 19.1 11.4 19.5 11.6 20.1 11.6 C 20.7 11.6 21 11.4 21 10.6 C 21 10.6 21 4.4 21 4.4 C 21 3.6 20.7 3.4 20.1 3.4 Z M 26.9 3.1 C 26.9 3.1 26.9 5.3 26.9 5.3 C 26.9 6.2 26.3 6.6 25.5 6.6 C 25.5 6.6 25.3 6.6 25.3 6.6 C 24.5 6.6 23.9 6.2 23.9 5.3 C 23.9 5.3 23.9 3.1 23.9 3.1 C 23.9 2.2 24.5 1.8 25.3 1.8 C 25.3 1.8 25.5 1.8 25.5 1.8 C 26.3 1.8 26.9 2.2 26.9 3.1 Z M 25.4 13.1 L 24.4 13.1 L 29.6 1.9 L 30.6 1.9 L 25.4 13.1 Z M 25.5 2.8 C 25.5 2.8 25.3 2.8 25.3 2.8 C 25.1 2.8 24.9 2.9 24.9 3.3 C 24.9 3.3 24.9 5.1 24.9 5.1 C 24.9 5.5 25.1 5.6 25.3 5.6 C 25.3 5.6 25.5 5.6 25.5 5.6 C 25.7 5.6 25.9 5.5 25.9 5.1 C 25.9 5.1 25.9 3.3 25.9 3.3 C 25.9 2.9 25.7 2.8 25.5 2.8 Z M 31.1 9.7 C 31.1 9.7 31.1 11.8 31.1 11.8 C 31.1 12.8 30.4 13.1 29.7 13.1 C 29.7 13.1 29.5 13.1 29.5 13.1 C 28.7 13.1 28.1 12.8 28.1 11.8 C 28.1 11.8 28.1 9.7 28.1 9.7 C 28.1 8.8 28.7 8.4 29.5 8.4 C 29.5 8.4 29.7 8.4 29.7 8.4 C 30.4 8.4 31.1 8.8 31.1 9.7 Z M 29.6 9.4 C 29.6 9.4 29.5 9.4 29.5 9.4 C 29.3 9.4 29.1 9.5 29.1 9.9 C 29.1 9.9 29.1 11.6 29.1 11.6 C 29.1 12 29.3 12.2 29.5 12.2 C 29.5 12.2 29.6 12.2 29.6 12.2 C 29.9 12.2 30.1 12 30.1 11.6 C 30.1 11.6 30.1 9.9 30.1 9.9 C 30.1 9.5 29.9 9.4 29.6 9.4 Z " stroke="none" fill="#282828"/>
  </g>
</svg>