<?xml version="1.0" standalone="no"?><!DOCTYPE svg PUBLIC "-//W3C//DTD SVG 1.1//EN" "http://www.w3.org/Graphics/SVG/1.1/DTD/svg11.dtd"><svg xmlns="http://www.w3.org/2000/svg" version="1.1" width="91px" height="28.3px" viewBox="0 -6 91 28.3" style="top:-6px"><desc>2010 Census</desc><defs/><g id="Polygon62124"><path d="m.8 11.3c4-3.1 5.8-4.6 5.8-6.3c0-1.3-1-1.8-2-1.8c-1.3 0-2.3.5-2.9 1.3l-1-1c.9-1.1 2.4-1.7 3.8-1.7c1.9 0 3.7 1.1 3.7 3.2c0 2.1-1.9 3.9-4.8 6.1c-.05.05 4.9 0 4.9 0v1.4H.8s.03-1.21 0-1.2zm13.5-9.5c2.9 0 4.1 2.8 4.1 5.5c0 2.6-1.2 5.4-4.1 5.4c-3 0-4.2-2.8-4.2-5.4c0-2.7 1.2-5.5 4.2-5.5zm0 1.4c-1.9 0-2.6 2-2.6 4.1c0 2 .7 4 2.6 4c1.8 0 2.5-2 2.5-4c0-2.1-.7-4.1-2.5-4.1zm7.8.8l-1.7 1.8l-1-.9L22.3 2h1.4v10.5h-1.6V4zm7.6-2.2c2.9 0 4.2 2.8 4.2 5.5c0 2.6-1.3 5.4-4.2 5.4c-2.9 0-4.1-2.8-4.1-5.4c0-2.7 1.2-5.5 4.1-5.5zm0 1.4c-1.9 0-2.5 2-2.5 4.1c0 2 .6 4 2.5 4c1.9 0 2.5-2 2.5-4c0-2.1-.6-4.1-2.5-4.1zm9.7 4.1c0-3.3 2.4-5.5 5.4-5.5c2.1 0 3.4 1 4.3 2.2l-1.4.7c-.6-.9-1.6-1.5-2.9-1.5c-2.1 0-3.8 1.7-3.8 4.1c0 2.3 1.7 4 3.8 4c1.3 0 2.3-.6 2.9-1.5l1.4.7c-.9 1.2-2.2 2.2-4.3 2.2c-3 0-5.4-2.2-5.4-5.4zM54 4.7c2.3 0 3.7 1.8 3.7 4.1v.4s-6.06-.02-6.1 0c.2 1.3 1.1 2.4 2.6 2.4c.9 0 1.7-.4 2.3-.9l.7.9c-.8.7-1.9 1.1-3.1 1.1c-2.3 0-4-1.6-4-4c0-2.2 1.6-4 3.9-4zm-2.4 3.4h4.7c0-1-.7-2.2-2.3-2.2c-1.6 0-2.3 1.2-2.4 2.2zm13.1-.5C64.7 6.4 64 6 63 6c-.8 0-1.7.5-2.1 1.1c.03-.03 0 5.4 0 5.4h-1.4V4.9h1.4s.03 1.05 0 1.1c.5-.7 1.6-1.3 2.7-1.3c1.7 0 2.5.8 2.5 2.5v5.3h-1.4s-.02-4.86 0-4.9zm3.7 2.9c.5.6 1.5 1.1 2.6 1.1c1 0 1.6-.5 1.6-1.1c0-.8-.9-1-1.8-1.2c-1.3-.3-2.9-.7-2.9-2.3c0-1.3 1.1-2.3 3-2.3c1.3 0 2.2.5 2.9 1.1l-.7 1c-.4-.6-1.3-1-2.2-1c-1 0-1.6.4-1.6 1c0 .7.8.9 1.8 1.2c1.3.3 2.9.6 2.9 2.4c0 1.3-1.1 2.3-3.1 2.3c-1.3 0-2.4-.4-3.2-1.2l.7-1zm12.6 1c-.6.6-1.6 1.2-2.7 1.2c-1.7 0-2.5-.8-2.5-2.4V4.9h1.4s.04 4.91 0 4.9c0 1.3.7 1.7 1.7 1.7c.8 0 1.7-.5 2.1-1.1V4.9h1.4v7.6H81v-1zm3.7-1c.5.6 1.5 1.1 2.6 1.1c1.1 0 1.6-.5 1.6-1.1c0-.8-.8-1-1.8-1.2c-1.3-.3-2.9-.7-2.9-2.3c0-1.3 1.1-2.3 3-2.3c1.3 0 2.2.5 2.9 1.1l-.6 1c-.5-.6-1.4-1-2.3-1c-1 0-1.6.4-1.6 1c0 .7.8.9 1.8 1.2c1.3.3 2.9.6 2.9 2.4c0 1.3-1.1 2.3-3.1 2.3c-1.3 0-2.4-.4-3.2-1.2l.7-1z" stroke="none" fill="#000"/></g></svg>