<?xml version="1.0" standalone="no"?>
<!DOCTYPE svg PUBLIC "-//W3C//DTD SVG 1.1//EN" "http://www.w3.org/Graphics/SVG/1.1/DTD/svg11.dtd">
<svg xmlns="http://www.w3.org/2000/svg" version="1.1" width="388.4px" height="67.5px" viewBox="0 -6 388.4 67.5" style="top:-6px">
  <desc>SUBJECT PROPERTY TABLE OF CONTENTS</desc>
  <defs/>
  <g id="Polygon264594">
    <path d="M 10.2 29.5 L 6.9 29.5 L 6.9 46.4 L 3.6 46.4 L 3.6 29.5 L 0.3 29.5 L 0.3 26.7 L 10.2 26.7 L 10.2 29.5 Z M 16.6 42 L 13 42 L 12.3 46.4 L 9.1 46.4 L 12.8 26.7 L 16.9 26.7 L 20.7 46.4 L 17.3 46.4 L 16.6 42 Z M 16.2 39.3 L 14.8 30.5 L 13.4 39.3 L 16.2 39.3 Z M 29.7 36.2 C 31.5 36.4 32 37.8 32 39.3 C 32 39.3 32 42.5 32 42.5 C 32 45 30.1 46.4 27.1 46.4 C 27.13 46.43 22 46.4 22 46.4 L 22 26.7 C 22 26.7 27.19 26.66 27.2 26.7 C 30.2 26.7 31.9 28.1 31.9 30.6 C 31.9 30.6 31.9 33 31.9 33 C 31.9 34.5 31.3 36 29.7 36.2 Z M 25.3 34.8 C 25.3 34.8 27.13 34.82 27.1 34.8 C 28.1 34.8 28.7 34.3 28.7 33.3 C 28.7 33.3 28.7 31 28.7 31 C 28.7 30 28.1 29.5 27.1 29.5 C 27.13 29.49 25.3 29.5 25.3 29.5 L 25.3 34.8 Z M 27.2 37.6 C 27.25 37.59 25.3 37.6 25.3 37.6 L 25.3 43.6 C 25.3 43.6 27.25 43.61 27.2 43.6 C 28.2 43.6 28.8 43.1 28.8 42.1 C 28.8 42.1 28.8 39.1 28.8 39.1 C 28.8 38.1 28.2 37.6 27.2 37.6 Z M 42.5 46.4 L 34.2 46.4 L 34.2 26.7 L 37.5 26.7 L 37.5 43.5 L 42.5 43.5 L 42.5 46.4 Z M 44 46.4 L 44 26.7 L 52.7 26.7 L 52.7 29.5 L 47.3 29.5 L 47.3 35 L 51.8 35 L 51.8 37.8 L 47.3 37.8 L 47.3 43.5 L 52.7 43.5 L 52.7 46.4 L 44 46.4 Z M 63.9 26.4 C 63.9 26.4 64.1 26.4 64.1 26.4 C 67.1 26.4 69.1 27.6 69.1 30.6 C 69.1 30.6 69.1 42.5 69.1 42.5 C 69.1 45.5 67.1 46.7 64.1 46.7 C 64.1 46.7 63.9 46.7 63.9 46.7 C 60.9 46.7 58.9 45.5 58.9 42.5 C 58.9 42.5 58.9 30.6 58.9 30.6 C 58.9 27.6 60.9 26.4 63.9 26.4 Z M 64 43.8 C 65.1 43.8 65.8 43.4 65.8 42 C 65.8 42 65.8 31.1 65.8 31.1 C 65.8 29.7 65.1 29.3 64 29.3 C 62.9 29.3 62.2 29.7 62.2 31.1 C 62.2 31.1 62.2 42 62.2 42 C 62.2 43.4 62.9 43.8 64 43.8 Z M 71.5 26.7 L 80 26.7 L 80 29.5 L 74.8 29.5 L 74.8 35.1 L 79.2 35.1 L 79.2 38 L 74.8 38 L 74.8 46.4 L 71.5 46.4 L 71.5 26.7 Z M 95.7 42.5 C 95.7 45.5 93.8 46.7 90.8 46.7 C 90.8 46.7 90.7 46.7 90.7 46.7 C 87.7 46.7 85.7 45.6 85.7 42.5 C 85.7 42.5 85.7 30.6 85.7 30.6 C 85.7 27.7 87.7 26.4 90.7 26.4 C 90.7 26.4 90.8 26.4 90.8 26.4 C 93.8 26.4 95.7 27.7 95.7 30.6 C 95.74 30.62 95.7 34.2 95.7 34.2 L 92.5 34.2 C 92.5 34.2 92.47 31.13 92.5 31.1 C 92.5 29.7 91.8 29.3 90.7 29.3 C 89.7 29.3 89 29.7 89 31.1 C 89 31.1 89 42 89 42 C 89 43.4 89.7 43.8 90.7 43.8 C 91.8 43.8 92.5 43.4 92.5 42 C 92.47 41.97 92.5 38.4 92.5 38.4 L 95.7 38.4 C 95.7 38.4 95.74 42.48 95.7 42.5 Z M 102.9 26.4 C 102.9 26.4 103.1 26.4 103.1 26.4 C 106.1 26.4 108.1 27.6 108.1 30.6 C 108.1 30.6 108.1 42.5 108.1 42.5 C 108.1 45.5 106.1 46.7 103.1 46.7 C 103.1 46.7 102.9 46.7 102.9 46.7 C 99.9 46.7 97.9 45.5 97.9 42.5 C 97.9 42.5 97.9 30.6 97.9 30.6 C 97.9 27.6 99.9 26.4 102.9 26.4 Z M 103 43.8 C 104.1 43.8 104.8 43.4 104.8 42 C 104.8 42 104.8 31.1 104.8 31.1 C 104.8 29.7 104.1 29.3 103 29.3 C 102 29.3 101.2 29.7 101.2 31.1 C 101.2 31.1 101.2 42 101.2 42 C 101.2 43.4 102 43.8 103 43.8 Z M 110.5 46.4 L 110.5 26.7 L 113.8 26.7 L 118 38.9 L 118 26.7 L 121 26.7 L 121 46.4 L 117.9 46.4 L 113.5 33.6 L 113.5 46.4 L 110.5 46.4 Z M 132.3 29.5 L 128.9 29.5 L 128.9 46.4 L 125.7 46.4 L 125.7 29.5 L 122.4 29.5 L 122.4 26.7 L 132.3 26.7 L 132.3 29.5 Z M 133.7 46.4 L 133.7 26.7 L 142.3 26.7 L 142.3 29.5 L 136.9 29.5 L 136.9 35 L 141.5 35 L 141.5 37.8 L 136.9 37.8 L 136.9 43.5 L 142.4 43.5 L 142.4 46.4 L 133.7 46.4 Z M 144.4 46.4 L 144.4 26.7 L 147.7 26.7 L 151.9 38.9 L 151.9 26.7 L 154.9 26.7 L 154.9 46.4 L 151.8 46.4 L 147.4 33.6 L 147.4 46.4 L 144.4 46.4 Z M 166.2 29.5 L 162.9 29.5 L 162.9 46.4 L 159.6 46.4 L 159.6 29.5 L 156.3 29.5 L 156.3 26.7 L 166.2 26.7 L 166.2 29.5 Z M 173.6 33.7 C 173.6 33.7 173.62 30.96 173.6 31 C 173.6 29.7 172.9 29.3 172 29.3 C 171 29.3 170.3 29.7 170.3 31 C 170.3 31 170.3 32.3 170.3 32.3 C 170.3 33.3 170.6 33.8 171.6 34.3 C 171.6 34.3 173.9 35.6 173.9 35.6 C 175.8 36.7 176.9 37.6 176.9 39.7 C 176.9 39.7 176.9 42.5 176.9 42.5 C 176.9 45.6 175 46.7 172 46.7 C 172 46.7 172 46.7 172 46.7 C 169 46.7 167.1 45.6 167.1 42.5 C 167.07 42.53 167.1 39.1 167.1 39.1 L 170.3 39.1 C 170.3 39.1 170.28 42.08 170.3 42.1 C 170.3 43.3 171 43.8 172 43.8 C 173 43.8 173.7 43.3 173.7 42.1 C 173.7 42.1 173.7 40.5 173.7 40.5 C 173.7 39.5 173.4 39 172.4 38.5 C 172.4 38.5 170.1 37.2 170.1 37.2 C 168.2 36.1 167.1 35.2 167.1 33.1 C 167.1 33.1 167.1 30.5 167.1 30.5 C 167.1 27.6 169.2 26.4 171.9 26.4 C 171.9 26.4 172 26.4 172 26.4 C 174.7 26.4 176.8 27.6 176.8 30.5 C 176.84 30.5 176.8 33.7 176.8 33.7 L 173.6 33.7 Z " stroke="none" fill="#282828"/>
  </g>
  <g id="Polygon264593">
    <path d="M 1.4 9.8 C 2.1 10.6 3.3 11.3 4.8 11.3 C 6.5 11.3 7.1 10.5 7.1 9.7 C 7.1 8.6 5.9 8.3 4.5 7.9 C 2.8 7.5 0.9 7 0.9 4.8 C 0.9 3.1 2.4 1.8 4.6 1.8 C 6.2 1.8 7.5 2.3 8.5 3.3 C 8.5 3.3 7.5 4.4 7.5 4.4 C 6.7 3.6 5.6 3.2 4.5 3.2 C 3.3 3.2 2.5 3.8 2.5 4.7 C 2.5 5.7 3.6 6 5 6.3 C 6.7 6.7 8.7 7.3 8.7 9.5 C 8.7 11.2 7.6 12.7 4.7 12.7 C 2.8 12.7 1.4 12.1 0.5 11.1 C 0.5 11.1 1.4 9.8 1.4 9.8 Z M 10.4 2 L 12 2 C 12 2 11.99 8.36 12 8.4 C 12 10.2 13 11.3 14.8 11.3 C 16.7 11.3 17.7 10.2 17.7 8.4 C 17.69 8.36 17.7 2 17.7 2 L 19.3 2 C 19.3 2 19.3 8.39 19.3 8.4 C 19.3 11 17.8 12.7 14.8 12.7 C 11.9 12.7 10.4 11 10.4 8.4 C 10.39 8.4 10.4 2 10.4 2 Z M 21.5 2 C 21.5 2 26.48 1.95 26.5 2 C 28.4 2 29.5 3.1 29.5 4.7 C 29.5 6 28.6 6.9 27.6 7.1 C 28.7 7.3 29.7 8.4 29.7 9.7 C 29.7 11.4 28.6 12.5 26.6 12.5 C 26.6 12.55 21.5 12.5 21.5 12.5 L 21.5 2 Z M 26.2 6.4 C 27.2 6.4 27.8 5.8 27.8 4.9 C 27.8 4 27.2 3.4 26.2 3.4 C 26.17 3.35 23.1 3.4 23.1 3.4 L 23.1 6.4 C 23.1 6.4 26.17 6.45 26.2 6.4 Z M 26.3 11.2 C 27.4 11.2 28 10.5 28 9.5 C 28 8.6 27.4 7.8 26.3 7.8 C 26.25 7.84 23.1 7.8 23.1 7.8 L 23.1 11.2 C 23.1 11.2 26.25 11.15 26.3 11.2 Z M 31.2 10.4 C 31.7 10.9 32.3 11.3 33.1 11.3 C 34.4 11.3 35.1 10.5 35.1 9.3 C 35.12 9.26 35.1 2 35.1 2 L 36.7 2 C 36.7 2 36.7 9.28 36.7 9.3 C 36.7 11.6 35.2 12.7 33.2 12.7 C 32.1 12.7 31.2 12.4 30.5 11.6 C 30.5 11.6 31.2 10.4 31.2 10.4 Z M 38.9 2 L 46 2 L 46 3.4 L 40.5 3.4 L 40.5 6.4 L 45.9 6.4 L 45.9 7.8 L 40.5 7.8 L 40.5 11.2 L 46 11.2 L 46 12.5 L 38.9 12.5 L 38.9 2 Z M 47.4 7.3 C 47.4 4 49.8 1.8 52.8 1.8 C 54.9 1.8 56.2 2.8 57 4 C 57 4 55.7 4.7 55.7 4.7 C 55.1 3.8 54.1 3.2 52.8 3.2 C 50.7 3.2 49 4.9 49 7.3 C 49 9.6 50.7 11.3 52.8 11.3 C 54.1 11.3 55.1 10.7 55.7 9.8 C 55.7 9.8 57 10.5 57 10.5 C 56.2 11.7 54.9 12.7 52.8 12.7 C 49.8 12.7 47.4 10.5 47.4 7.3 Z M 61.1 3.4 L 57.8 3.4 L 57.8 2 L 65.9 2 L 65.9 3.4 L 62.7 3.4 L 62.7 12.5 L 61.1 12.5 L 61.1 3.4 Z M 71.4 2 C 71.4 2 75.82 1.95 75.8 2 C 78 2 79.2 3.4 79.2 5.2 C 79.2 7 78 8.5 75.8 8.5 C 75.82 8.46 72.9 8.5 72.9 8.5 L 72.9 12.5 L 71.4 12.5 L 71.4 2 Z M 75.6 3.4 C 75.62 3.35 72.9 3.4 72.9 3.4 L 72.9 7.1 C 72.9 7.1 75.62 7.07 75.6 7.1 C 76.8 7.1 77.6 6.3 77.6 5.2 C 77.6 4.1 76.8 3.4 75.6 3.4 Z M 84.3 8.5 L 82.3 8.5 L 82.3 12.5 L 80.7 12.5 L 80.7 2 C 80.7 2 85.14 1.95 85.1 2 C 87.2 2 88.5 3.3 88.5 5.2 C 88.5 7.1 87.3 8.1 85.9 8.3 C 85.91 8.31 88.6 12.5 88.6 12.5 L 86.8 12.5 L 84.3 8.5 Z M 84.9 3.4 C 84.94 3.35 82.3 3.4 82.3 3.4 L 82.3 7.1 C 82.3 7.1 84.94 7.07 84.9 7.1 C 86.1 7.1 86.9 6.3 86.9 5.2 C 86.9 4.1 86.1 3.4 84.9 3.4 Z M 95.2 1.8 C 98.4 1.8 100.6 4.1 100.6 7.3 C 100.6 10.4 98.4 12.7 95.2 12.7 C 92.1 12.7 89.9 10.4 89.9 7.3 C 89.9 4.1 92.1 1.8 95.2 1.8 Z M 95.2 3.2 C 93 3.2 91.5 4.9 91.5 7.3 C 91.5 9.6 93 11.3 95.2 11.3 C 97.5 11.3 98.9 9.6 98.9 7.3 C 98.9 4.9 97.5 3.2 95.2 3.2 Z M 102.3 2 C 102.3 2 106.79 1.95 106.8 2 C 109 2 110.2 3.4 110.2 5.2 C 110.2 7 109 8.5 106.8 8.5 C 106.79 8.46 103.9 8.5 103.9 8.5 L 103.9 12.5 L 102.3 12.5 L 102.3 2 Z M 106.6 3.4 C 106.59 3.35 103.9 3.4 103.9 3.4 L 103.9 7.1 C 103.9 7.1 106.59 7.07 106.6 7.1 C 107.7 7.1 108.5 6.3 108.5 5.2 C 108.5 4.1 107.7 3.4 106.6 3.4 Z M 111.7 2 L 118.8 2 L 118.8 3.4 L 113.2 3.4 L 113.2 6.4 L 118.7 6.4 L 118.7 7.8 L 113.2 7.8 L 113.2 11.2 L 118.8 11.2 L 118.8 12.5 L 111.7 12.5 L 111.7 2 Z M 124.2 8.5 L 122.2 8.5 L 122.2 12.5 L 120.6 12.5 L 120.6 2 C 120.6 2 125.06 1.95 125.1 2 C 127.1 2 128.5 3.3 128.5 5.2 C 128.5 7.1 127.2 8.1 125.8 8.3 C 125.82 8.31 128.5 12.5 128.5 12.5 L 126.7 12.5 L 124.2 8.5 Z M 124.8 3.4 C 124.85 3.35 122.2 3.4 122.2 3.4 L 122.2 7.1 C 122.2 7.1 124.85 7.07 124.8 7.1 C 126 7.1 126.8 6.3 126.8 5.2 C 126.8 4.1 126 3.4 124.8 3.4 Z M 132.7 3.4 L 129.4 3.4 L 129.4 2 L 137.5 2 L 137.5 3.4 L 134.3 3.4 L 134.3 12.5 L 132.7 12.5 L 132.7 3.4 Z M 142.1 8.1 L 137.9 2 L 139.8 2 L 142.9 6.7 L 146 2 L 147.8 2 L 143.7 8.1 L 143.7 12.5 L 142.1 12.5 L 142.1 8.1 Z " stroke="none" fill="#3797ef"/>
  </g>
</svg>