<?xml version="1.0" standalone="no"?><!DOCTYPE svg PUBLIC "-//W3C//DTD SVG 1.1//EN" "http://www.w3.org/Graphics/SVG/1.1/DTD/svg11.dtd"><svg xmlns="http://www.w3.org/2000/svg" version="1.1" width="90px" height="16.9px" viewBox="0 -4 90 16.9" style="top:-4px"><desc>SUBMIT LOI</desc><defs/><g id="Polygon321076"><path d="m21.7 5.6c.4.4 1 .8 1.9.8c.9 0 1.3-.5 1.3-.9c0-.6-.7-.8-1.5-1c-.9-.3-2-.5-2-1.8c0-1 .8-1.7 2.1-1.7c.9 0 1.6.3 2.2.9l-.6.6c-.4-.5-1-.7-1.7-.7c-.7 0-1.1.4-1.1.9c0 .5.6.7 1.4.9c1 .2 2.1.5 2.1 1.8c0 .9-.6 1.8-2.3 1.8c-1 0-1.8-.4-2.3-.9l.5-.7zm5.1-4.5h1s-.05 3.63 0 3.6c0 1.1.5 1.7 1.6 1.7c1 0 1.6-.6 1.6-1.7c-.02.03 0-3.6 0-3.6h.9s-.01 3.65 0 3.7c0 1.4-.8 2.4-2.5 2.4c-1.7 0-2.6-1-2.6-2.4c.04-.04 0-3.7 0-3.7zm6.4 0h2.8c1.1 0 1.7.7 1.7 1.5c0 .8-.5 1.3-1 1.4c.6.1 1.2.8 1.2 1.5c0 .9-.7 1.6-1.8 1.6h-2.9v-6zm2.7 2.6c.6 0 .9-.4.9-.9c0-.5-.3-.9-.9-.9h-1.8v1.8s1.78-.05 1.8 0zm0 2.6c.7 0 1-.3 1-.9c0-.5-.3-1-1-1c.02.05-1.8 0-1.8 0v1.9s1.82.02 1.8 0zm8.2-4l-1.9 4.8h-.4l-1.9-4.8v4.8h-.9v-6h1.3L42 5.4l1.8-4.3h1.2v6h-.9V2.3zm2.3-1.2h.9v6h-.9v-6zm3.7.8h-1.9v-.8h4.6v.8H51v5.2h-.9V1.9zm6-.8h.9v5.2h2.7v.8h-3.6v-6zm7.1-.1c1.8 0 3 1.3 3 3.1c0 1.8-1.2 3.1-3 3.1c-1.8 0-3-1.3-3-3.1c0-1.8 1.2-3.1 3-3.1zm0 .8c-1.3 0-2.1 1-2.1 2.3c0 1.3.8 2.3 2.1 2.3c1.3 0 2.1-1 2.1-2.3c0-1.3-.8-2.3-2.1-2.3zm4.1-.7h.9v6h-.9v-6z" stroke="none" fill="#ffffff"/></g></svg>