<?xml version="1.0" standalone="no"?><!DOCTYPE svg PUBLIC "-//W3C//DTD SVG 1.1//EN" "http://www.w3.org/Graphics/SVG/1.1/DTD/svg11.dtd"><svg xmlns="http://www.w3.org/2000/svg" version="1.1" width="89.3px" height="16.9px" viewBox="0 -4 89.3 16.9" style="top:-4px"><desc>Ownership</desc><defs/><g id="Polygon286319"><path d="m3.4 1c1.8 0 3.1 1.3 3.1 3.1c0 1.8-1.3 3.1-3.1 3.1c-1.8 0-3-1.3-3-3.1C.4 2.3 1.6 1 3.4 1zm0 .8c-1.2 0-2.1 1-2.1 2.3c0 1.3.9 2.3 2.1 2.3c1.3 0 2.1-1 2.1-2.3c0-1.3-.8-2.3-2.1-2.3zm6.8 2l-1 3.3h-.9L7 2.8h.8l1 3.3l1.1-3.3h.7l1.1 3.3l1-3.3h.8l-1.4 4.3h-.8l-1.1-3.3zm7 .5c0-.7-.4-.9-1-.9c-.5 0-.9.3-1.2.6c.04 0 0 3.1 0 3.1h-.8V2.8h.8s.04.57 0 .6c.3-.4.9-.7 1.6-.7c.9 0 1.4.4 1.4 1.4c-.03-.04 0 3 0 3h-.8s-.04-2.77 0-2.8zm4-1.6c1.3 0 2.1 1 2.1 2.3c-.02 0 0 .2 0 .2h-3.5c.1.7.6 1.4 1.5 1.4c.5 0 1-.2 1.3-.6l.4.6c-.4.4-1.1.6-1.8.6c-1.3 0-2.2-.9-2.2-2.3c0-1.2.9-2.2 2.2-2.2zm-1.4 1.9h2.7c0-.6-.4-1.3-1.3-1.3c-.9 0-1.3.7-1.4 1.3zm4.5-1.8h.8v.6c.3-.4.9-.7 1.4-.7v.8h-.2c-.5 0-1 .3-1.2.6v3h-.8V2.8zm3.1 3.1c.2.4.8.7 1.4.7c.6 0 .9-.3.9-.7c0-.4-.4-.5-1-.7c-.7-.1-1.6-.3-1.6-1.3c0-.7.6-1.2 1.6-1.2c.8 0 1.3.2 1.7.6l-.4.5c-.2-.3-.7-.5-1.2-.5c-.6 0-.9.2-.9.6c0 .4.4.5 1 .6c.7.2 1.6.4 1.6 1.4c0 .7-.6 1.3-1.7 1.3c-.8 0-1.4-.2-1.8-.7l.4-.6zm7.1-1.6c0-.7-.4-.9-.9-.9c-.5 0-1 .3-1.2.6c-.04 0 0 3.1 0 3.1h-.8v-6h.8s-.04 2.27 0 2.3c.3-.4.8-.7 1.5-.7c.9 0 1.4.4 1.4 1.3v3.1h-.8V4.3zm2-2.8c0-.3.2-.5.5-.5c.3 0 .5.2.5.5c0 .3-.2.5-.5.5c-.3 0-.5-.2-.5-.5zm.1 1.3h.8v4.3h-.8V2.8zm2.1 6v-6h.8v.6c.3-.4.8-.7 1.4-.7c1.2 0 2 .8 2 2.2c0 1.5-.8 2.3-2 2.3c-.5 0-1-.2-1.4-.7v2.3h-.8zm2-5.4c-.5 0-1 .3-1.2.6v1.9c.2.3.7.6 1.2.6c.8 0 1.3-.7 1.3-1.6c0-.9-.5-1.5-1.3-1.5z" stroke="none" fill="#000"/></g></svg>