<?xml version="1.0" standalone="no"?>
<!DOCTYPE svg PUBLIC "-//W3C//DTD SVG 1.1//EN" "http://www.w3.org/Graphics/SVG/1.1/DTD/svg11.dtd">
<svg xmlns="http://www.w3.org/2000/svg" version="1.1" width="343px" height="29.9px" viewBox="0 -7 343 29.9" style="top:-7px">
  <desc>03</desc>
  <defs/>
  <g id="Polygon181391">
    <path d="M 5.2 1.9 C 8.3 1.9 9.5 4.9 9.5 7.7 C 9.5 10.5 8.3 13.5 5.2 13.5 C 2.1 13.5 0.8 10.5 0.8 7.7 C 0.8 4.9 2.1 1.9 5.2 1.9 Z M 5.2 3.4 C 3.2 3.4 2.5 5.5 2.5 7.7 C 2.5 9.9 3.2 12 5.2 12 C 7.1 12 7.8 9.9 7.8 7.7 C 7.8 5.5 7.1 3.4 5.2 3.4 Z M 11.7 10.6 C 12.4 11.4 13.6 12 14.8 12 C 16.4 12 17.3 11.2 17.3 10.1 C 17.3 8.8 16.3 8.3 14.7 8.3 C 14.2 8.3 13.6 8.3 13.5 8.3 C 13.5 8.3 13.5 6.8 13.5 6.8 C 13.6 6.8 14.2 6.8 14.7 6.8 C 16 6.8 17.1 6.3 17.1 5.1 C 17.1 4 16.1 3.4 14.7 3.4 C 13.6 3.4 12.6 3.8 11.8 4.7 C 11.8 4.7 10.9 3.6 10.9 3.6 C 11.8 2.7 13.1 1.9 14.9 1.9 C 17.2 1.9 18.8 3 18.8 4.9 C 18.8 6.5 17.5 7.3 16.4 7.5 C 17.4 7.6 19 8.5 19 10.2 C 19 12.1 17.4 13.5 14.9 13.5 C 12.9 13.5 11.5 12.7 10.8 11.7 C 10.8 11.7 11.7 10.6 11.7 10.6 Z " stroke="none" fill="#88898a"/>
  </g>
</svg>