<?xml version="1.0" standalone="no"?><!DOCTYPE svg PUBLIC "-//W3C//DTD SVG 1.1//EN" "http://www.w3.org/Graphics/SVG/1.1/DTD/svg11.dtd"><svg xmlns="http://www.w3.org/2000/svg" version="1.1" width="304.3px" height="615.5px" viewBox="0 -6 304.3 615.5" style="top:-6px"><desc>Patriots Point Naval &amp; Maritime Museum 19 Min Drive 15 7 Miles from subject property South Carolina Aquarium 20 Min D</desc><defs/><g id="Polygon106612"><path d="m34 595.1l-1.4 1.4l-.6-.7l2.1-2.1h.9v8.3h-1v-6.9zm2.8 5c.5.6 1.3 1.1 2.3 1.1c1.2 0 1.9-.6 1.9-1.6c0-1-.8-1.4-2-1.4h-.9v-.9h.9c1 0 1.9-.4 1.9-1.4c0-.9-.9-1.4-1.9-1.4c-.9 0-1.5.4-2.1 1l-.6-.6c.6-.7 1.5-1.3 2.8-1.3c1.6 0 2.8.8 2.8 2.2c0 1.2-1 1.8-1.8 1.9c.8.1 1.9.7 1.9 2c0 1.4-1.1 2.4-2.9 2.4c-1.4 0-2.4-.6-2.9-1.4l.6-.6zm7.2.6c.4 0 .7.3.7.7c0 .4-.3.7-.7.7c-.4 0-.7-.3-.7-.7c0-.4.3-.7.7-.7zm5.3-6.1h-4.4v-.9h5.6v.7l-3.4 7.6H46l3.3-7.4zm12.5.5L59 602h-.4l-2.8-6.9v6.9h-1v-8.3h1.4l2.6 6.3l2.6-6.3h1.4v8.3h-1v-6.9zm2.8-1.4h1v8.3h-1v-8.3zm2.9 0h1v7.3h3.8v1h-4.8v-8.3zm6.1 0h5.4v.9h-4.3v2.7h4.2v.9h-4.2v2.8h4.3v1h-5.4v-8.3zm7 6.3c.6.6 1.5 1.2 2.6 1.2c1.5 0 2-.8 2-1.4c0-1-1-1.3-2.1-1.6c-1.3-.3-2.8-.7-2.8-2.3c0-1.4 1.2-2.3 2.8-2.3c1.3 0 2.3.4 3 1.1l-.7.8c-.6-.7-1.4-1-2.3-1c-1 0-1.7.5-1.7 1.3c0 .8.9 1.1 2 1.4c1.3.3 2.8.8 2.8 2.5c0 1.2-.8 2.4-3 2.4c-1.4 0-2.5-.5-3.2-1.3l.6-.8zm10.1-6.3h5.4v.9h-4.4v2.7h4.3v.9h-4.3v3.8h-1v-8.3zm9.4 5h-1.7v3.3h-1v-8.3s3.29.02 3.3 0c1.5 0 2.6 1 2.6 2.5c0 1.5-1 2.3-2.2 2.4c.04 0 2.3 3.4 2.3 3.4h-1.2l-2.1-3.3zm.5-4.1c-.03.03-2.2 0-2.2 0v3.2s2.17-.02 2.2 0c.9 0 1.6-.7 1.6-1.6c0-.9-.7-1.6-1.6-1.6zm7.9-1c2.5 0 4.1 1.8 4.1 4.2c0 2.5-1.6 4.3-4.1 4.3c-2.4 0-4.1-1.8-4.1-4.3c0-2.4 1.7-4.2 4.1-4.2zm0 .9c-1.8 0-3 1.4-3 3.3c0 2 1.2 3.4 3 3.4c1.9 0 3.1-1.4 3.1-3.4c0-1.9-1.2-3.3-3.1-3.3zm12.6.6l-2.8 6.9h-.4l-2.8-6.9v6.9h-1v-8.3h1.5l2.5 6.3l2.6-6.3h1.5v8.3h-1.1v-6.9zm6 4.9c.6.6 1.5 1.2 2.6 1.2c1.5 0 2-.8 2-1.4c0-1-1-1.3-2.1-1.6c-1.3-.3-2.8-.7-2.8-2.3c0-1.4 1.2-2.3 2.8-2.3c1.3 0 2.3.4 3 1.1l-.7.8c-.6-.7-1.4-1-2.4-1c-.9 0-1.6.5-1.6 1.3c0 .8.9 1.1 2 1.4c1.3.3 2.8.8 2.8 2.5c0 1.2-.8 2.4-3 2.4c-1.4 0-2.5-.5-3.2-1.3l.6-.8zm7-6.3h1.1s-.03 5.04 0 5c0 1.5.8 2.5 2.3 2.5c1.5 0 2.3-1 2.3-2.5c.04.04 0-5 0-5h1.1s-.04 5.05 0 5c0 2.1-1.2 3.4-3.4 3.4c-2.2 0-3.4-1.3-3.4-3.3c.05-.04 0-5.1 0-5.1zm8.6 0s3.64.02 3.6 0c1.5 0 2.3.9 2.3 2.1c0 1.1-.6 1.7-1.4 1.9c.9.1 1.6 1 1.6 2c0 1.4-.9 2.3-2.4 2.3c.02-.04-3.7 0-3.7 0v-8.3zm3.5 3.6c.9 0 1.4-.6 1.4-1.3c0-.8-.5-1.4-1.4-1.4c-.04.03-2.5 0-2.5 0v2.7s2.46-.01 2.5 0zm0 3.7c1 0 1.5-.5 1.5-1.4c0-.7-.5-1.4-1.5-1.4h-2.5v2.8s2.51.05 2.5 0zm3.8-.6c.4.4.9.8 1.6.8c1 0 1.6-.7 1.6-1.7c.03-.04 0-5.8 0-5.8h1.1s-.05 5.78 0 5.8c0 1.8-1.2 2.6-2.7 2.6c-.8 0-1.5-.3-2.1-.9l.5-.8zm6.1-6.7h5.4v.9h-4.4v2.7h4.3v.9h-4.3v2.8h4.4v1h-5.4v-8.3zm6.5 4.1c0-2.5 1.9-4.2 4.2-4.2c1.5 0 2.5.7 3.2 1.6l-.9.5c-.4-.7-1.3-1.2-2.3-1.2c-1.7 0-3.1 1.4-3.1 3.3c0 2 1.4 3.4 3.1 3.4c1 0 1.9-.5 2.3-1.2l.9.5c-.7.9-1.7 1.6-3.2 1.6c-2.3 0-4.2-1.7-4.2-4.3zm10.6-3.2h-2.6v-.9h6.3v.9h-2.6v7.4h-1.1v-7.4zm8-.9s3.28.02 3.3 0c1.6 0 2.6 1.2 2.6 2.5c0 1.3-1 2.5-2.6 2.5c-.02-.02-2.3 0-2.3 0v3.3h-1v-8.3zm3.2.9c-.04.03-2.2 0-2.2 0v3.2s2.16-.03 2.2 0c.9 0 1.6-.7 1.6-1.6c0-.9-.7-1.6-1.6-1.6zm6.6 4.1h-1.7v3.3h-1v-8.3s3.31.02 3.3 0c1.5 0 2.6 1 2.6 2.5c0 1.5-1 2.3-2.1 2.4c-.05 0 2.2 3.4 2.2 3.4h-1.2l-2.1-3.3zm.5-4.1c-.01.03-2.2 0-2.2 0v3.2s2.19-.02 2.2 0c1 0 1.6-.7 1.6-1.6c0-.9-.6-1.6-1.6-1.6zm7.9-1c2.5 0 4.1 1.8 4.1 4.2c0 2.5-1.6 4.3-4.1 4.3c-2.4 0-4-1.8-4-4.3c0-2.4 1.6-4.2 4-4.2zm0 .9c-1.8 0-3 1.4-3 3.3c0 2 1.2 3.4 3 3.4c1.9 0 3.1-1.4 3.1-3.4c0-1.9-1.2-3.3-3.1-3.3zm5.6-.8s3.32.02 3.3 0c1.7 0 2.6 1.2 2.6 2.5c0 1.3-.9 2.5-2.6 2.5c.02-.02-2.3 0-2.3 0v3.3h-1v-8.3zm3.2.9c0 .03-2.2 0-2.2 0v3.2s2.2-.03 2.2 0c1 0 1.6-.7 1.6-1.6c0-.9-.6-1.6-1.6-1.6zm3.9-.9h5.4v.9h-4.3v2.7h4.3v.9h-4.3v2.8h4.3v1h-5.4v-8.3zm9.6 5h-1.6v3.3H219v-8.3s3.36.02 3.4 0c1.5 0 2.5 1 2.5 2.5c0 1.5-1 2.3-2.1 2.4l2.2 3.4h-1.2l-2.1-3.3zm.5-4.1c.03.03-2.1 0-2.1 0v3.2s2.13-.02 2.1 0c1 0 1.7-.7 1.7-1.6c0-.9-.7-1.6-1.7-1.6zm6.1 0h-2.6v-.9h6.3v.9h-2.6v7.4h-1.1v-7.4zm7.3 3.9l-3.2-4.8h1.2l2.5 3.8l2.6-3.8h1.2l-3.3 4.8v3.5h-1v-3.5z" stroke="none" fill="#888888"/></g><g id="Polygon106611"><path d="m32.6 579.5c4-3 5.8-4.6 5.8-6.3c0-1.2-1-1.8-2.1-1.8c-1.2 0-2.2.6-2.9 1.3l-.9-1c.9-1.1 2.3-1.7 3.8-1.7c1.9 0 3.7 1.1 3.7 3.2c0 2.1-2 3.9-4.9 6.2c.02-.01 5 0 5 0v1.4h-7.5v-1.3zm9.2 0c4-3 5.8-4.6 5.8-6.3c0-1.2-1-1.8-2-1.8c-1.3 0-2.3.6-2.9 1.3l-1-1c.9-1.1 2.4-1.7 3.8-1.7c1.9 0 3.7 1.1 3.7 3.2c0 2.1-1.9 3.9-4.9 6.2c.04-.01 5 0 5 0v1.4h-7.5s.02-1.27 0-1.3zm22.7-7.1l-3.5 8.4h-.6l-3.5-8.4v8.4h-1.6v-10.6h2.3l3.1 7.6l3.1-7.6h2.2v10.6h-1.5v-8.4zm3.5-1.5c0-.5.4-.9.9-.9c.5 0 .9.4.9.9c0 .5-.4.9-.9.9c-.5 0-.9-.4-.9-.9zm.2 2.2h1.4v7.7h-1.4v-7.7zm8.7 2.8c0-1.3-.6-1.7-1.6-1.7c-.9 0-1.7.5-2.1 1.1c-.03 0 0 5.5 0 5.5h-1.5v-7.7h1.5s-.03 1.09 0 1.1c.5-.6 1.5-1.3 2.7-1.3c1.6 0 2.4.9 2.4 2.5c.05 0 0 5.4 0 5.4h-1.4s.02-4.93 0-4.9zm7.5-5.7h3.8c3.3 0 5.5 2.2 5.5 5.3c0 3.1-2.2 5.3-5.5 5.3c.01-.02-3.8 0-3.8 0v-10.6zm3.8 9.2c2.5 0 3.9-1.8 3.9-3.9c0-2.2-1.4-3.9-3.9-3.9c.01-.01-2.2 0-2.2 0v7.8s2.21-.01 2.2 0zm7.2-6.3h1.5s-.04 1.19 0 1.2c.6-.8 1.5-1.4 2.5-1.4v1.5c-.2-.1-.3-.1-.5-.1c-.7 0-1.7.6-2 1.1c-.04.04 0 5.4 0 5.4h-1.5v-7.7zm5-2.2c0-.5.5-.9.9-.9c.6 0 1 .4 1 .9c0 .5-.4.9-1 .9c-.4 0-.9-.4-.9-.9zm.2 2.2h1.5v7.7h-1.5v-7.7zm2.5 0h1.5l2.4 6l2.4-6h1.5l-3.1 7.7h-1.6l-3.1-7.7zm12.2-.2c2.3 0 3.7 1.8 3.7 4.2c.02-.03 0 .3 0 .3h-6c.1 1.3 1 2.4 2.6 2.4c.8 0 1.7-.3 2.2-.9l.7.9c-.8.8-1.8 1.2-3.1 1.2c-2.3 0-4-1.6-4-4.1c0-2.2 1.6-4 3.9-4zm-2.4 3.5h4.7c0-1-.7-2.3-2.3-2.3c-1.6 0-2.3 1.2-2.4 2.3z" stroke="none" fill="#282828"/></g><g id="Polygon106610"><path d="m5.2 548.9c1.4 0 2.3.4 3 1.2l-.8 1.2c-.5-.6-1.1-1-2.2-1c-1.9 0-2.9 1.8-2.9 3.8v.3c.5-.7 1.7-1.5 3-1.5c1.9 0 3.5 1.1 3.5 3.4c0 1.9-1.5 3.5-3.8 3.5c-3.1 0-4.3-2.6-4.3-5.5c0-2.9 1.5-5.4 4.5-5.4zm-.3 5.4c-1 0-2 .5-2.5 1.4c.1 1.2.7 2.7 2.5 2.7c1.5 0 2.3-1.1 2.3-2.1c0-1.4-1.1-2-2.3-2zm6.3 3.5c.5 0 1 .4 1 1c0 .5-.5 1-1 1c-.6 0-1-.5-1-1c0-.6.4-1 1-1zm29.2-2.9h-5.9v4.7h-1.6V549h1.6v4.5h5.9V549h1.6v10.6h-1.6v-4.7zm3.5-5.2c0-.5.4-.9.9-.9c.5 0 1 .4 1 .9c0 .6-.5.9-1 .9c-.5 0-.9-.3-.9-.9zm.2 2.2h1.5v7.7h-1.5v-7.7zm3.6 5.7c.5.5 1.5 1.1 2.6 1.1c1 0 1.6-.5 1.6-1.1c0-.8-.9-1.1-1.8-1.3c-1.3-.3-2.9-.6-2.9-2.3c0-1.2 1.1-2.3 3-2.3c1.3 0 2.2.5 2.9 1.1l-.7 1c-.4-.5-1.3-.9-2.2-.9c-1 0-1.6.4-1.6 1c0 .7.8.9 1.8 1.1c1.3.3 2.9.7 2.9 2.4c0 1.4-1.1 2.4-3.1 2.4c-1.3 0-2.4-.4-3.2-1.2l.7-1zm7.5.3c.04.01 0-4.7 0-4.7H54v-1.3h1.2v-2.1h1.5v2.1h1.5v1.3h-1.5s-.03 4.39 0 4.4c0 .5.2.9.7.9c.3 0 .6-.1.8-.3l.4 1.1c-.3.3-.8.5-1.5.5c-1.2 0-1.9-.7-1.9-1.9zm4-2.1c0-2.2 1.5-4.1 3.9-4.1c2.4 0 3.8 1.9 3.8 4.1c0 2.2-1.4 4-3.8 4c-2.4 0-3.9-1.8-3.9-4zm6.2 0c0-1.5-.8-2.8-2.3-2.8c-1.6 0-2.4 1.3-2.4 2.8c0 1.4.8 2.7 2.4 2.7c1.5 0 2.3-1.3 2.3-2.7zm3.2-3.9h1.4v1.2c.6-.8 1.5-1.3 2.5-1.3v1.4h-.5c-.7 0-1.7.5-2 1.1v5.3h-1.4v-7.7zm5-2.2c0-.5.4-.9.9-.9c.5 0 .9.4.9.9c0 .6-.4.9-.9.9c-.5 0-.9-.3-.9-.9zm.2 2.2h1.4v7.7h-1.4v-7.7zm7-.2c1.4 0 2.3.6 2.8 1.4l-.9.9c-.5-.7-1.1-1-1.9-1c-1.5 0-2.5 1.2-2.5 2.8c0 1.6 1 2.7 2.5 2.7c.8 0 1.4-.3 1.9-.9l.9.8c-.5.8-1.4 1.4-2.8 1.4c-2.4 0-3.9-1.7-3.9-4c0-2.3 1.5-4.1 3.9-4.1zm7.8 2.6c0-3.2 2.4-5.5 5.4-5.5c2.1 0 3.4 1 4.2 2.3l-1.3.7c-.6-.9-1.6-1.5-2.9-1.5c-2.1 0-3.8 1.6-3.8 4c0 2.4 1.7 4.1 3.8 4.1c1.3 0 2.3-.7 2.9-1.6l1.3.8c-.8 1.2-2.1 2.2-4.2 2.2c-3 0-5.4-2.2-5.4-5.5zm16.2.4c0-1.3-.7-1.7-1.6-1.7c-.9 0-1.7.6-2.2 1.1c.04.03 0 5.5 0 5.5h-1.4V549h1.4s.04 4.01 0 4c.5-.6 1.6-1.3 2.8-1.3c1.6 0 2.4.9 2.4 2.5c.02-.01 0 5.4 0 5.4h-1.4v-4.9zm8.3 4.1c-.6.6-1.5 1-2.5 1c-1.3 0-2.7-.9-2.7-2.5c0-1.8 1.4-2.6 2.7-2.6c1 0 1.9.4 2.5 1.1v-1.3c0-1-.8-1.5-1.9-1.5c-.9 0-1.6.3-2.3 1l-.6-1c.8-.8 1.9-1.3 3.1-1.3c1.7 0 3.1.8 3.1 2.7v5.2h-1.4s-.02-.84 0-.8zm0-2.2c-.4-.6-1.2-.9-2-.9c-1 0-1.8.7-1.8 1.6c0 .9.8 1.5 1.8 1.5c.8 0 1.6-.3 2-.9v-1.3zm3.5-4.7h1.5s-.03 1.21 0 1.2c.6-.8 1.5-1.3 2.5-1.3v1.4h-.5c-.7 0-1.7.5-2 1.1c-.03-.03 0 5.3 0 5.3h-1.5v-7.7zm5.2-2.9h1.5v10.6h-1.5V549zm7 2.7c2.3 0 3.7 1.8 3.7 4.2v.3s-6.08.04-6.1 0c.1 1.3 1.1 2.4 2.6 2.4c.8 0 1.7-.3 2.3-.9l.7 1c-.8.7-1.9 1.1-3.1 1.1c-2.3 0-4-1.6-4-4c0-2.3 1.6-4.1 3.9-4.1zm-2.4 3.5h4.7c0-1-.7-2.3-2.3-2.3c-1.6 0-2.3 1.3-2.4 2.3zm7.7 2.4c.6.5 1.6 1.1 2.6 1.1c1.1 0 1.7-.5 1.7-1.1c0-.8-.9-1.1-1.9-1.3c-1.3-.3-2.8-.6-2.8-2.3c0-1.2 1-2.3 2.9-2.3c1.3 0 2.3.5 2.9 1.1l-.6 1c-.5-.5-1.3-.9-2.3-.9c-1 0-1.6.4-1.6 1c0 .7.9.9 1.8 1.1c1.4.3 2.9.7 2.9 2.4c0 1.4-1 2.4-3.1 2.4c-1.2 0-2.4-.4-3.1-1.2l.6-1zm7.6.3v-4.7h-1.3v-1.3h1.3v-2.1h1.4v2.1h1.6v1.3h-1.6s.01 4.39 0 4.4c0 .5.3.9.8.9c.3 0 .6-.1.7-.3l.4 1.1c-.3.3-.7.5-1.5.5c-1.2 0-1.8-.7-1.8-1.9zm3.9-2.1c0-2.2 1.5-4.1 3.9-4.1c2.4 0 3.9 1.9 3.9 4.1c0 2.2-1.5 4-3.9 4c-2.4 0-3.9-1.8-3.9-4zm6.3 0c0-1.5-.9-2.8-2.4-2.8c-1.5 0-2.4 1.3-2.4 2.8c0 1.4.9 2.7 2.4 2.7c1.5 0 2.4-1.3 2.4-2.7zm8.3-1.1c0-1.3-.6-1.7-1.6-1.7c-.9 0-1.7.6-2.1 1.1c-.05.03 0 5.5 0 5.5H155v-7.7h1.5s-.05 1.11 0 1.1c.5-.6 1.5-1.3 2.7-1.3c1.6 0 2.4.9 2.4 2.5c.03.02 0 5.4 0 5.4h-1.4v-4.9zm7.1-.4c0-3.2 2.4-5.5 5.4-5.5c2.1 0 3.4 1 4.2 2.3l-1.3.7c-.6-.9-1.6-1.5-2.9-1.5c-2.1 0-3.8 1.6-3.8 4c0 2.4 1.7 4.1 3.8 4.1c1.3 0 2.3-.7 2.9-1.6l1.3.8c-.8 1.2-2.1 2.2-4.2 2.2c-3 0-5.4-2.2-5.4-5.5zm10.8-4.6c0-.5.4-.9.9-.9c.5 0 .9.4.9.9c0 .6-.4.9-.9.9c-.5 0-.9-.3-.9-.9zm.2 2.2h1.4v7.7h-1.4v-7.7zm3.8 6c.04.01 0-4.7 0-4.7h-1.2v-1.3h1.2v-2.1h1.5v2.1h1.5v1.3h-1.5s-.04 4.39 0 4.4c0 .5.2.9.7.9c.3 0 .6-.1.8-.3l.4 1.1c-.3.3-.8.5-1.5.5c-1.2 0-1.9-.7-1.9-1.9zm4.9 3.5c.6 0 .9-.1 1.1-.7c.04 0 .5-1 .5-1l-3.2-7.8h1.5l2.4 6.1l2.4-6.1h1.6l-3.8 9.2c-.5 1.2-1.3 1.6-2.4 1.6c-.3 0-.7 0-.9-.1l.2-1.3c.2.1.4.1.6.1zm20.4-10.2l-3.5 8.4h-.6l-3.5-8.4v8.4h-1.5V549h2.2l3.1 7.6l3.1-7.6h2.3v10.6h-1.6v-8.4zm8.5 7.6c-.6.6-1.5 1-2.6 1c-1.2 0-2.6-.9-2.6-2.5c0-1.8 1.4-2.6 2.6-2.6c1.1 0 2 .4 2.6 1.1v-1.3c0-1-.8-1.5-1.9-1.5c-.9 0-1.6.3-2.3 1l-.6-1c.8-.8 1.9-1.3 3.1-1.3c1.7 0 3.1.8 3.1 2.7c-.02.03 0 5.2 0 5.2h-1.4s-.05-.84 0-.8zm0-2.2c-.5-.6-1.2-.9-2-.9c-1 0-1.8.7-1.8 1.6c0 .9.8 1.5 1.8 1.5c.8 0 1.5-.3 2-.9v-1.3zm3.5-4.7h1.4s.04 1.21 0 1.2c.6-.8 1.5-1.3 2.5-1.3v1.4h-.4c-.8 0-1.7.5-2.1 1.1c.04-.03 0 5.3 0 5.3h-1.4v-7.7zm7.8 4.4l-1.2 1.2v2.1h-1.4V549h1.4v6.8l3.7-3.9h1.8l-3.3 3.5l3.4 4.2h-1.8l-2.6-3.3zm8.5-4.6c2.3 0 3.7 1.8 3.7 4.2c.04-.01 0 .3 0 .3c0 0-6.03.04-6 0c.1 1.3 1 2.4 2.6 2.4c.8 0 1.7-.3 2.2-.9l.7 1c-.7.7-1.8 1.1-3.1 1.1c-2.3 0-3.9-1.6-3.9-4c0-2.3 1.6-4.1 3.8-4.1zm-2.3 3.5h4.6c0-1-.7-2.3-2.3-2.3c-1.5 0-2.3 1.3-2.3 2.3zm8 2.7c-.04.01 0-4.7 0-4.7h-1.3v-1.3h1.3v-2.1h1.4v2.1h1.5v1.3h-1.5s-.01 4.39 0 4.4c0 .5.2.9.7.9c.4 0 .7-.1.8-.3l.4 1.1c-.3.3-.8.5-1.5.5c-1.2 0-1.8-.7-1.8-1.9z" stroke="none" fill="#282828"/></g><g id="Polygon106609"><path d="m34 485.7l-1.4 1.4l-.6-.7l2.1-2.1h.9v8.2h-1v-6.8zm3.3 5c.5.7 1.2 1.1 2.2 1.1c1.2 0 2-.8 2-1.8c0-1.1-.8-1.8-1.9-1.8c-.8 0-1.4.3-1.9.8c-.04.01-.8-.2-.8-.2v-4.5h5v.9h-4s.03 2.89 0 2.9c.4-.4 1.1-.8 2-.8c1.3 0 2.6 1 2.6 2.7c0 1.7-1.3 2.7-3 2.7c-1.3 0-2.2-.5-2.9-1.3l.7-.7zm7.1.6c.4 0 .7.3.7.7c0 .4-.3.7-.7.7c-.4 0-.7-.3-.7-.7c0-.4.3-.7.7-.7zm5.3-7.1c1.1 0 1.8.4 2.3 1l-.5.7c-.5-.5-.9-.8-1.8-.8c-1.6 0-2.3 1.6-2.3 3.2v.4c.3-.6 1.3-1.3 2.3-1.3c1.5 0 2.7.8 2.7 2.6c0 1.4-1.1 2.7-2.9 2.7c-2.3 0-3.2-2-3.2-4.3c0-2.2 1.1-4.2 3.4-4.2zm-.2 4.1c-.8 0-1.6.5-2.1 1.2c.1 1 .6 2.3 2.1 2.3c1.3 0 1.9-1 1.9-1.8c0-1.2-.9-1.7-1.9-1.7zm14.5-2.6l-2.8 6.8h-.5l-2.8-6.8v6.8h-1v-8.2h1.5l2.5 6.3l2.6-6.3h1.5v8.2h-1v-6.8zm2.8-1.4h1v8.2h-1v-8.2zm2.8 0h1v7.3h3.9v.9h-4.9v-8.2zm6.2 0h5.4v.9h-4.4v2.7h4.3v.9h-4.3v2.8h4.4v.9h-5.4v-8.2zm7 6.3c.5.6 1.4 1.2 2.6 1.2c1.5 0 1.9-.8 1.9-1.4c0-1-1-1.3-2-1.6c-1.4-.3-2.8-.7-2.8-2.3c0-1.4 1.2-2.3 2.8-2.3c1.2 0 2.2.4 2.9 1.1l-.6.8c-.6-.7-1.5-1-2.4-1c-1 0-1.7.5-1.7 1.3c0 .8 1 1.1 2 1.4c1.4.3 2.9.7 2.9 2.5c0 1.2-.8 2.4-3 2.4c-1.5 0-2.5-.5-3.2-1.3l.6-.8zm10.1-6.3h5.4v.9h-4.4v2.7h4.3v.9h-4.3v3.7h-1v-8.2zm9.3 5h-1.6v3.2h-1.1v-8.2s3.36.01 3.4 0c1.5 0 2.5 1 2.5 2.5c0 1.5-1 2.3-2.1 2.4l2.2 3.3h-1.2l-2.1-3.2zm.5-4.1c.03.02-2.1 0-2.1 0v3.2s2.13-.03 2.1 0c1 0 1.7-.7 1.7-1.6c0-.9-.7-1.6-1.7-1.6zm8-1c2.4 0 4.1 1.8 4.1 4.2c0 2.5-1.7 4.3-4.1 4.3c-2.5 0-4.1-1.8-4.1-4.3c0-2.4 1.6-4.2 4.1-4.2zm0 .9c-1.9 0-3 1.4-3 3.3c0 1.9 1.1 3.4 3 3.4c1.8 0 3-1.5 3-3.4c0-1.9-1.2-3.3-3-3.3zm12.6.6l-2.8 6.8h-.4l-2.8-6.8v6.8h-1v-8.2h1.4l2.6 6.3l2.6-6.3h1.4v8.2h-1v-6.8zm6 4.9c.5.6 1.4 1.2 2.6 1.2c1.5 0 1.9-.8 1.9-1.4c0-1-1-1.3-2.1-1.6c-1.3-.3-2.7-.7-2.7-2.3c0-1.4 1.2-2.3 2.8-2.3c1.2 0 2.2.4 2.9 1.1l-.6.8c-.6-.7-1.5-1-2.4-1c-1 0-1.7.5-1.7 1.3c0 .8 1 1.1 2 1.4c1.4.3 2.9.7 2.9 2.5c0 1.2-.8 2.4-3 2.4c-1.5 0-2.5-.5-3.2-1.3l.6-.8zm7-6.3h1s.03 5.02 0 5c0 1.5.8 2.5 2.4 2.5c1.5 0 2.3-1 2.3-2.5v-5h1s.03 5.04 0 5c0 2.1-1.1 3.4-3.3 3.4c-2.3 0-3.4-1.3-3.4-3.4c.01.05 0-5 0-5zm8.5 0s3.7.01 3.7 0c1.4 0 2.3.9 2.3 2.1c0 1-.7 1.7-1.4 1.9c.8.1 1.6 1 1.6 2c0 1.3-.9 2.2-2.4 2.2c-.01.05-3.8 0-3.8 0v-8.2zm3.5 3.6c1 0 1.4-.6 1.4-1.3c0-.8-.4-1.4-1.4-1.4c.03.02-2.4 0-2.4 0v2.7s2.43-.02 2.4 0zm.1 3.7c.9 0 1.5-.5 1.5-1.4c0-.7-.5-1.4-1.5-1.4c-.02-.01-2.5 0-2.5 0v2.8s2.48.03 2.5 0zm3.8-.6c.3.4.8.8 1.5.8c1 0 1.7-.7 1.7-1.7v-5.8h1s.02 5.76 0 5.8c0 1.8-1.1 2.6-2.6 2.6c-.9 0-1.6-.3-2.2-1l.6-.7zm6-6.7h5.4v.9h-4.4v2.7h4.3v.9h-4.3v2.8h4.4v.9h-5.4v-8.2zm6.6 4.1c0-2.5 1.9-4.2 4.2-4.2c1.5 0 2.5.7 3.2 1.6l-.9.5c-.5-.7-1.3-1.2-2.3-1.2c-1.8 0-3.1 1.4-3.1 3.3c0 2 1.3 3.4 3.1 3.4c1 0 1.8-.5 2.3-1.2l.9.5c-.7.9-1.7 1.6-3.2 1.6c-2.3 0-4.2-1.7-4.2-4.3zm10.6-3.2h-2.6v-.9h6.2v.9h-2.6v7.3h-1v-7.3zm7.9-.9s3.34.01 3.3 0c1.7 0 2.6 1.1 2.6 2.5c0 1.3-.9 2.5-2.6 2.5c.04-.03-2.2 0-2.2 0v3.2h-1.1v-8.2zm3.2.9c.02.02-2.1 0-2.1 0v3.2s2.12-.04 2.1 0c1 0 1.7-.7 1.7-1.6c0-.9-.7-1.6-1.7-1.6zm6.6 4.1h-1.6v3.2h-1v-8.2s3.27.01 3.3 0c1.5 0 2.6 1 2.6 2.5c0 1.5-1.1 2.3-2.2 2.4c.02-.01 2.2 3.3 2.2 3.3h-1.2l-2.1-3.2zm.5-4.1c.05.02-2.1 0-2.1 0v3.2s2.15-.03 2.1 0c1 0 1.7-.7 1.7-1.6c0-.9-.7-1.6-1.7-1.6zm8-1c2.4 0 4.1 1.8 4.1 4.2c0 2.5-1.7 4.3-4.1 4.3c-2.4 0-4.1-1.8-4.1-4.3c0-2.4 1.7-4.2 4.1-4.2zm0 .9c-1.9 0-3 1.4-3 3.3c0 1.9 1.1 3.4 3 3.4c1.8 0 3-1.5 3-3.4c0-1.9-1.2-3.3-3-3.3zm5.6-.8s3.28.01 3.3 0c1.6 0 2.6 1.1 2.6 2.5c0 1.3-1 2.5-2.6 2.5c-.02-.03-2.3 0-2.3 0v3.2h-1v-8.2zm3.2.9c-.04.02-2.2 0-2.2 0v3.2s2.16-.04 2.2 0c.9 0 1.6-.7 1.6-1.6c0-.9-.7-1.6-1.6-1.6zm3.9-.9h5.4v.9h-4.4v2.7h4.3v.9h-4.3v2.8h4.4v.9h-5.4v-8.2zm9.6 5h-1.7v3.2h-1v-8.2s3.32.01 3.3 0c1.5 0 2.6 1 2.6 2.5c0 1.5-1 2.3-2.1 2.4c-.04-.01 2.2 3.3 2.2 3.3H226l-2.1-3.2zm.5-4.1c-.01.02-2.2 0-2.2 0v3.2s2.19-.03 2.2 0c1 0 1.6-.7 1.6-1.6c0-.9-.6-1.6-1.6-1.6zm6.1 0h-2.6v-.9h6.3v.9h-2.7v7.3h-1v-7.3zm7.3 3.9l-3.3-4.8h1.2l2.6 3.8l2.5-3.8h1.2l-3.2 4.8v3.4h-1v-3.4z" stroke="none" fill="#888888"/></g><g id="Polygon106608"><path d="m32.6 470.1c4-3 5.8-4.6 5.8-6.3c0-1.2-1-1.8-2.1-1.8c-1.2 0-2.2.6-2.9 1.3l-.9-1c.9-1.1 2.3-1.7 3.8-1.7c1.9 0 3.7 1.1 3.7 3.2c0 2.1-2 3.9-4.9 6.2c.02-.03 5 0 5 0v1.4h-7.5v-1.3zm9.2 0c4-3 5.8-4.6 5.8-6.3c0-1.2-1-1.8-2-1.8c-1.3 0-2.3.6-2.9 1.3l-1-1c.9-1.1 2.4-1.7 3.8-1.7c1.9 0 3.7 1.1 3.7 3.2c0 2.1-1.9 3.9-4.9 6.2c.04-.03 5 0 5 0v1.4h-7.5s.02-1.28 0-1.3zm22.7-7.1l-3.5 8.4h-.6l-3.5-8.4v8.4h-1.6v-10.6h2.3l3.1 7.6l3.1-7.6h2.2v10.6h-1.5V463zm3.5-1.5c0-.5.4-.9.9-.9c.5 0 .9.4.9.9c0 .5-.4.9-.9.9c-.5 0-.9-.4-.9-.9zm.2 2.2h1.4v7.7h-1.4v-7.7zm8.7 2.8c0-1.3-.6-1.7-1.6-1.7c-.9 0-1.7.5-2.1 1.1c-.03-.01 0 5.5 0 5.5h-1.5v-7.7h1.5s-.03 1.08 0 1.1c.5-.6 1.5-1.3 2.7-1.3c1.6 0 2.4.9 2.4 2.5c.05-.01 0 5.4 0 5.4h-1.4s.02-4.94 0-4.9zm7.5-5.7s3.81-.02 3.8 0c3.3 0 5.5 2.2 5.5 5.3c0 3-2.2 5.3-5.5 5.3c.01-.03-3.8 0-3.8 0v-10.6zm3.8 9.2c2.5 0 3.9-1.8 3.9-3.9c0-2.2-1.4-3.9-3.9-3.9c.01-.03-2.2 0-2.2 0v7.8s2.21-.03 2.2 0zm7.2-6.3h1.5s-.04 1.17 0 1.2c.6-.8 1.5-1.4 2.5-1.4v1.5c-.2-.1-.3-.1-.5-.1c-.7 0-1.7.6-2 1.1c-.04.03 0 5.4 0 5.4h-1.5v-7.7zm5-2.2c0-.5.5-.9.9-.9c.6 0 1 .4 1 .9c0 .5-.4.9-1 .9c-.4 0-.9-.4-.9-.9zm.2 2.2h1.5v7.7h-1.5v-7.7zm2.5 0h1.5l2.4 6l2.4-6h1.5l-3.1 7.7h-1.6l-3.1-7.7zm12.2-.2c2.3 0 3.7 1.8 3.7 4.2c.02-.05 0 .3 0 .3h-6c.1 1.3 1 2.4 2.6 2.4c.8 0 1.7-.3 2.2-.9l.7.9c-.8.8-1.8 1.2-3.1 1.2c-2.3 0-4-1.7-4-4.1c0-2.2 1.6-4 3.9-4zm-2.4 3.5h4.7c0-1-.7-2.3-2.3-2.3c-1.6 0-2.3 1.2-2.4 2.3z" stroke="none" fill="#282828"/></g><g id="Polygon106607"><path d="m1.9 447.6c.7.9 1.7 1.4 2.9 1.4c1.4 0 2.3-.9 2.3-2.1c0-1.3-.9-2.1-2.3-2.1c-.9 0-1.7.3-2.4 1c.05-.02-1.1-.4-1.1-.4v-5.8h6.7v1.4H2.9s-.01 3.38 0 3.4c.5-.5 1.4-1 2.4-1c1.8 0 3.4 1.3 3.4 3.4c0 2.2-1.6 3.6-3.9 3.6c-1.8 0-3-.7-3.8-1.7l.9-1.1zm9.3.8c.5 0 1 .4 1 1c0 .5-.5 1-1 1c-.6 0-1-.5-1-1c0-.6.4-1 1-1zm30.9-6.6l-3.5 8.4h-.6l-3.5-8.4v8.4h-1.6v-10.6h2.3l3.1 7.6l3.1-7.6h2.2v10.6h-1.5v-8.4zm8.4 7.6c-.6.6-1.4 1-2.5 1c-1.2 0-2.6-.9-2.6-2.6c0-1.7 1.3-2.5 2.6-2.5c1.1 0 2 .4 2.5 1v-1.2c0-1-.7-1.5-1.8-1.5c-.9 0-1.7.3-2.3 1l-.7-1c.9-.9 1.9-1.3 3.2-1.3c1.7 0 3.1.8 3.1 2.7c-.03.02 0 5.2 0 5.2h-1.5s.04-.85 0-.8zm0-2.2c-.4-.6-1.1-.9-1.9-.9c-1.1 0-1.8.7-1.8 1.6c0 .9.7 1.5 1.8 1.5c.8 0 1.5-.3 1.9-.9v-1.3zm4.2 3.9c.6.7 1.4 1 2.5 1c1.2 0 2.4-.5 2.4-2.2v-1c-.6.8-1.5 1.4-2.6 1.4c-2 0-3.4-1.5-3.4-4c0-2.5 1.4-4 3.4-4c1 0 1.9.5 2.6 1.3c-.04.03 0-1.1 0-1.1h1.4s-.01 7.39 0 7.4c0 2.6-1.9 3.4-3.8 3.4c-1.3 0-2.2-.3-3.2-1.1l.7-1.1zm4.9-6.4c-.4-.6-1.3-1.1-2.2-1.1c-1.4 0-2.3 1.1-2.3 2.7c0 1.6.9 2.7 2.3 2.7c.9 0 1.8-.5 2.2-1.2v-3.1zm8.7.6c0-1.3-.7-1.7-1.7-1.7c-.8 0-1.7.5-2.1 1.1c.03.01 0 5.5 0 5.5h-1.4v-7.7h1.4s.03 1.1 0 1.1c.5-.6 1.6-1.3 2.7-1.3c1.7 0 2.5.9 2.5 2.5v5.4h-1.4s-.02-4.91 0-4.9zm3 1.1c0-2.3 1.5-4.1 3.9-4.1c2.4 0 3.9 1.8 3.9 4.1c0 2.2-1.5 4-3.9 4c-2.4 0-3.9-1.8-3.9-4zm6.3 0c0-1.5-.8-2.8-2.4-2.8c-1.5 0-2.4 1.3-2.4 2.8c0 1.4.9 2.7 2.4 2.7c1.6 0 2.4-1.3 2.4-2.7zm3.1-6.8h1.5v10.6h-1.5v-10.6zm3.4.7c0-.5.4-.9.9-.9c.5 0 .9.4.9.9c0 .5-.4.9-.9.9c-.5 0-.9-.4-.9-.9zm.2 2.2h1.4v7.7h-1.4v-7.7zm8.3 6.9c-.6.6-1.5 1-2.5 1c-1.3 0-2.7-.9-2.7-2.6c0-1.7 1.4-2.5 2.7-2.5c1 0 1.9.4 2.5 1v-1.2c0-1-.8-1.5-1.9-1.5c-.9 0-1.6.3-2.3 1l-.6-1c.8-.9 1.9-1.3 3.1-1.3c1.7 0 3.1.8 3.1 2.7v5.2h-1.4s-.04-.85 0-.8zm0-2.2c-.5-.6-1.2-.9-2-.9c-1 0-1.8.7-1.8 1.6c0 .9.8 1.5 1.8 1.5c.8 0 1.5-.3 2-.9v-1.3zm7.5-7.6h4.5c2.1 0 3.3 1.5 3.3 3.3c0 1.7-1.2 3.2-3.3 3.2h-2.9v4.1h-1.6v-10.6zm4.2 1.4h-2.6v3.7s2.65.02 2.6 0c1.2 0 2-.7 2-1.8c0-1.2-.8-1.9-2-1.9zm5.1-1.4h1.4v10.6h-1.4v-10.6zm8.3 9.8c-.6.6-1.5 1-2.6 1c-1.2 0-2.6-.9-2.6-2.6c0-1.7 1.4-2.5 2.6-2.5c1.1 0 2 .4 2.6 1v-1.2c0-1-.8-1.5-1.9-1.5c-.9 0-1.6.3-2.3 1l-.6-1c.8-.9 1.9-1.3 3.1-1.3c1.7 0 3.1.8 3.1 2.7c-.02.02 0 5.2 0 5.2h-1.4s-.04-.85 0-.8zm0-2.2c-.5-.6-1.2-.9-2-.9c-1 0-1.8.7-1.8 1.6c0 .9.8 1.5 1.8 1.5c.8 0 1.5-.3 2-.9v-1.3zm8.7-1.9c0-1.3-.7-1.7-1.6-1.7c-.9 0-1.7.5-2.2 1.1c.04.01 0 5.5 0 5.5h-1.4v-7.7h1.4s.04 1.1 0 1.1c.5-.6 1.6-1.3 2.8-1.3c1.6 0 2.4.9 2.4 2.5c.02.01 0 5.4 0 5.4h-1.4v-4.9zm3.8 3.2c.02 0 0-4.7 0-4.7h-1.3v-1.3h1.3v-2.1h1.4v2.1h1.6v1.3h-1.6s.05 4.38 0 4.4c0 .5.3.9.8.9c.3 0 .6-.1.8-.3l.3 1.1c-.3.3-.7.5-1.5.5c-1.2 0-1.8-.7-1.8-1.9zm9.2.9c-.6.6-1.5 1-2.5 1c-1.3 0-2.7-.9-2.7-2.6c0-1.7 1.4-2.5 2.7-2.5c1 0 1.9.4 2.5 1v-1.2c0-1-.8-1.5-1.9-1.5c-.9 0-1.6.3-2.3 1l-.6-1c.8-.9 1.9-1.3 3.1-1.3c1.7 0 3.1.8 3.1 2.7v5.2h-1.4s-.03-.85 0-.8zm0-2.2c-.5-.6-1.2-.9-2-.9c-1 0-1.8.7-1.8 1.6c0 .9.8 1.5 1.8 1.5c.8 0 1.5-.3 2-.9v-1.3zm3.8 1.3v-4.7h-1.3v-1.3h1.3v-2.1h1.4v2.1h1.6v1.3h-1.6s.04 4.38 0 4.4c0 .5.3.9.8.9c.3 0 .6-.1.8-.3l.3 1.1c-.3.3-.7.5-1.5.5c-1.2 0-1.8-.7-1.8-1.9zm4.2-8.2c0-.5.4-.9.9-.9c.5 0 .9.4.9.9c0 .5-.4.9-.9.9c-.5 0-.9-.4-.9-.9zm.2 2.2h1.5v7.7h-1.5v-7.7zm3.1 3.9c0-2.3 1.5-4.1 3.9-4.1c2.4 0 3.8 1.8 3.8 4.1c0 2.2-1.4 4-3.8 4c-2.4 0-3.9-1.8-3.9-4zm6.2 0c0-1.5-.8-2.8-2.3-2.8c-1.6 0-2.4 1.3-2.4 2.8c0 1.4.8 2.7 2.4 2.7c1.5 0 2.3-1.3 2.3-2.7zm8.4-1.1c0-1.3-.7-1.7-1.7-1.7c-.9 0-1.7.5-2.1 1.1c.02.01 0 5.5 0 5.5h-1.4v-7.7h1.4s.02 1.1 0 1.1c.5-.6 1.5-1.3 2.7-1.3c1.7 0 2.5.9 2.5 2.5v5.4h-1.4s-.03-4.91 0-4.9zm12.2 4.1c-.6.6-1.5 1-2.5 1c-1.3 0-2.7-.9-2.7-2.6c0-1.7 1.4-2.5 2.7-2.5c1 0 1.9.4 2.5 1v-1.2c0-1-.8-1.5-1.9-1.5c-.9 0-1.6.3-2.3 1l-.6-1c.8-.9 1.9-1.3 3.1-1.3c1.7 0 3.1.8 3.1 2.7v5.2h-1.4s-.02-.85 0-.8zm0-2.2c-.4-.6-1.2-.9-2-.9c-1 0-1.8.7-1.8 1.6c0 .9.8 1.5 1.8 1.5c.8 0 1.6-.3 2-.9v-1.3zm8.7-1.9c0-1.3-.6-1.7-1.6-1.7c-.9 0-1.7.5-2.1 1.1c-.03.01 0 5.5 0 5.5H181v-7.7h1.5s-.03 1.1 0 1.1c.5-.6 1.5-1.3 2.7-1.3c1.6 0 2.4.9 2.4 2.5c.05.01 0 5.4 0 5.4h-1.4s.02-4.91 0-4.9zm9 3.8c-.5.8-1.5 1.3-2.5 1.3c-2 0-3.4-1.5-3.4-4c0-2.5 1.4-4.1 3.4-4.1c1 0 1.9.5 2.5 1.3c.02.03 0-4 0-4h1.5v10.6h-1.5s.02-1.1 0-1.1zm0-4.4c-.4-.6-1.2-1.1-2.1-1.1c-1.4 0-2.3 1.2-2.3 2.8c0 1.6.9 2.7 2.3 2.7c.9 0 1.7-.5 2.1-1.1v-3.3zm12.6-5.3c2 0 3.3.9 4.2 2.1l-1.3.8c-.6-.8-1.7-1.5-2.9-1.5c-2.2 0-3.9 1.7-3.9 4.1c0 2.4 1.7 4.1 3.9 4.1c1.2 0 2.2-.6 2.7-1.1V446h-3.4v-1.4h5s-.03 3.93 0 3.9c-1 1.2-2.5 1.9-4.3 1.9c-3 0-5.5-2.2-5.5-5.5c0-3.3 2.5-5.5 5.5-5.5zm10.9 10c-.7.6-1.5 1-2.6 1c-1.2 0-2.6-.9-2.6-2.6c0-1.7 1.4-2.5 2.6-2.5c1.1 0 2 .4 2.6 1v-1.2c0-1-.8-1.5-1.9-1.5c-.9 0-1.6.3-2.3 1l-.6-1c.8-.9 1.9-1.3 3.1-1.3c1.7 0 3.1.8 3.1 2.7c-.02.02 0 5.2 0 5.2h-1.4s-.05-.85 0-.8zm0-2.2c-.5-.6-1.2-.9-2-.9c-1.1 0-1.8.7-1.8 1.6c0 .9.7 1.5 1.8 1.5c.8 0 1.5-.3 2-.9v-1.3zm3.5-4.7h1.4s.04 1.2 0 1.2c.6-.8 1.5-1.4 2.5-1.4v1.5c-.1 0-.3-.1-.4-.1c-.8 0-1.7.6-2.1 1.2c.04-.04 0 5.3 0 5.3h-1.4v-7.7zm10.7 6.6c-.6.8-1.5 1.3-2.5 1.3c-2 0-3.5-1.5-3.5-4c0-2.5 1.5-4.1 3.5-4.1c1 0 1.9.5 2.5 1.3c-.02.03 0-4 0-4h1.4v10.6h-1.4s-.02-1.1 0-1.1zm0-4.4c-.4-.6-1.3-1.1-2.1-1.1c-1.5 0-2.4 1.2-2.4 2.8c0 1.6.9 2.7 2.4 2.7c.8 0 1.7-.5 2.1-1.1v-3.3zm6.9-2.4c2.3 0 3.7 1.8 3.7 4.2c.04-.02 0 .3 0 .3c0 0-6.03.03-6 0c.1 1.3 1 2.4 2.6 2.4c.8 0 1.7-.3 2.2-.9l.7.9c-.7.8-1.8 1.2-3.1 1.2c-2.3 0-3.9-1.6-3.9-4c0-2.3 1.6-4.1 3.8-4.1zm-2.3 3.5h4.6c0-1-.7-2.3-2.3-2.3c-1.5 0-2.3 1.2-2.3 2.3zm12.9-.5c0-1.3-.7-1.7-1.7-1.7c-.9 0-1.7.5-2.1 1.1v5.5h-1.4v-7.7h1.4v1.1c.5-.6 1.5-1.3 2.7-1.3c1.6 0 2.5.9 2.5 2.5c-.02.01 0 5.4 0 5.4h-1.4s-.05-4.91 0-4.9zm3.5 2.8c.5.6 1.5 1.1 2.6 1.1c1.1 0 1.6-.4 1.6-1.1c0-.7-.8-1-1.8-1.2c-1.3-.3-2.9-.6-2.9-2.3c0-1.2 1.1-2.3 3-2.3c1.3 0 2.2.5 2.9 1.1l-.6 1c-.5-.5-1.3-.9-2.3-.9c-1 0-1.6.4-1.6 1c0 .7.8.9 1.8 1.1c1.3.3 2.9.7 2.9 2.4c0 1.4-1.1 2.4-3.1 2.4c-1.3 0-2.4-.4-3.2-1.2l.7-1.1z" stroke="none" fill="#282828"/></g><g id="Polygon106606"><path d="m34 376.3l-1.4 1.4l-.6-.7l2.1-2.1h.9v8.2h-1v-6.8zm6.1 4.7h-3.9v-.8l3.6-5.3h1.4v5.2h1.1v.9h-1.1v2.1h-1.1V381zm-2.8-.9h2.8v-4.3l-2.8 4.3zm6.7 1.8c.4 0 .7.3.7.7c0 .3-.3.7-.7.7c-.4 0-.7-.4-.7-.7c0-.4.3-.7.7-.7zm2.6-5.6l-1.4 1.4l-.6-.7l2.1-2.1h.9v8.2h-1v-6.8zm12.9 0l-2.8 6.8h-.4l-2.8-6.8v6.8h-1.1v-8.2h1.5l2.6 6.3l2.5-6.3h1.5v8.2h-1v-6.8zm2.8-1.4h1v8.2h-1v-8.2zm2.8 0h1.1v7.3h3.8v.9h-4.9v-8.2zm6.2 0h5.4v.9h-4.4v2.7h4.3v.9h-4.3v2.8h4.4v.9h-5.4v-8.2zm7 6.3c.6.6 1.5 1.2 2.6 1.2c1.5 0 2-.8 2-1.5c0-.9-1-1.2-2.1-1.5c-1.3-.4-2.8-.7-2.8-2.3c0-1.4 1.2-2.3 2.8-2.3c1.3 0 2.3.4 2.9 1.1l-.6.8c-.6-.7-1.5-1-2.4-1c-.9 0-1.6.5-1.6 1.3c0 .8.9 1.1 2 1.4c1.3.3 2.8.7 2.8 2.5c0 1.2-.8 2.4-3 2.4c-1.4 0-2.5-.6-3.2-1.3l.6-.8zm10.1-6.3h5.4v.9h-4.4v2.7h4.3v.9h-4.3v3.7h-1v-8.2zm9.3 5h-1.6v3.2h-1v-8.2h3.3c1.5 0 2.6 1 2.6 2.5c0 1.5-1 2.3-2.2 2.4c.03-.03 2.3 3.3 2.3 3.3h-1.3l-2.1-3.2zm.6-4.1c-.04.01-2.2 0-2.2 0v3.2s2.16-.04 2.2 0c.9 0 1.6-.7 1.6-1.6c0-.9-.7-1.6-1.6-1.6zm7.9-1c2.4 0 4.1 1.8 4.1 4.2c0 2.5-1.7 4.3-4.1 4.3c-2.4 0-4.1-1.8-4.1-4.3c0-2.4 1.7-4.2 4.1-4.2zm0 .9c-1.8 0-3 1.4-3 3.3c0 1.9 1.2 3.4 3 3.4c1.9 0 3-1.5 3-3.4c0-1.9-1.1-3.3-3-3.3zm12.6.6l-2.8 6.8h-.4l-2.8-6.8v6.8h-1v-8.2h1.5l2.5 6.3l2.6-6.3h1.5v8.2h-1.1v-6.8zm6 4.9c.6.6 1.5 1.2 2.6 1.2c1.5 0 2-.8 2-1.5c0-.9-1-1.2-2.1-1.5c-1.3-.4-2.8-.7-2.8-2.3c0-1.4 1.2-2.3 2.8-2.3c1.3 0 2.2.4 2.9 1.1l-.6.8c-.6-.7-1.5-1-2.4-1c-.9 0-1.7.5-1.7 1.3c0 .8 1 1.1 2 1.4c1.4.3 2.9.7 2.9 2.5c0 1.2-.8 2.4-3 2.4c-1.4 0-2.5-.6-3.2-1.3l.6-.8zm7-6.3h1.1s-.04 5.01 0 5c0 1.5.8 2.5 2.3 2.5c1.5 0 2.3-1 2.3-2.5c.03.01 0-5 0-5h1.1s-.05 5.02 0 5c0 2.1-1.2 3.4-3.4 3.4c-2.2 0-3.4-1.3-3.4-3.4c.04.04 0-5 0-5zm8.6 0h3.6c1.5 0 2.3.9 2.3 2.1c0 1-.7 1.7-1.4 1.9c.9.1 1.6 1 1.6 2c0 1.3-.9 2.2-2.4 2.2c.01.03-3.7 0-3.7 0v-8.2zm3.5 3.6c.9 0 1.4-.6 1.4-1.4c0-.7-.5-1.3-1.4-1.3c-.05.01-2.5 0-2.5 0v2.7s2.45-.03 2.5 0zm0 3.7c1 0 1.5-.5 1.5-1.4c0-.8-.5-1.4-1.5-1.4c0-.02-2.5 0-2.5 0v2.8s2.5.02 2.5 0zm3.8-.6c.4.4.8.8 1.6.8c1 0 1.6-.7 1.6-1.8c.02.04 0-5.7 0-5.7h1s.04 5.75 0 5.8c0 1.7-1.1 2.6-2.6 2.6c-.8 0-1.6-.3-2.1-1l.5-.7zm6-6.7h5.4v.9h-4.3v2.7h4.3v.9h-4.3v2.8h4.3v.9h-5.4v-8.2zm6.6 4.1c0-2.5 1.9-4.2 4.2-4.2c1.5 0 2.5.7 3.2 1.6l-.9.5c-.5-.7-1.3-1.2-2.3-1.2c-1.7 0-3.1 1.4-3.1 3.3c0 2 1.4 3.4 3.1 3.4c1 0 1.8-.5 2.3-1.2l.9.5c-.7.9-1.7 1.6-3.2 1.6c-2.3 0-4.2-1.7-4.2-4.3zm10.6-3.2h-2.6v-.9h6.3v.9h-2.7v7.3h-1v-7.3zm8-.9h3.3c1.6 0 2.6 1.1 2.6 2.5c0 1.3-1 2.5-2.6 2.5c-.03-.04-2.3 0-2.3 0v3.2h-1v-8.2zm3.1.9h-2.1v3.1s2.15.05 2.1 0c1 0 1.7-.6 1.7-1.5c0-.9-.7-1.6-1.7-1.6zm6.7 4.1H187v3.2h-1v-8.2h3.3c1.5 0 2.6 1 2.6 2.5c0 1.5-1 2.3-2.2 2.4c.04-.03 2.3 3.3 2.3 3.3h-1.2l-2.1-3.2zm.5-4.1c-.02.01-2.2 0-2.2 0v3.2s2.18-.04 2.2 0c1 0 1.6-.7 1.6-1.6c0-.9-.6-1.6-1.6-1.6zm7.9-1c2.5 0 4.1 1.8 4.1 4.2c0 2.5-1.6 4.3-4.1 4.3c-2.4 0-4.1-1.8-4.1-4.3c0-2.4 1.7-4.2 4.1-4.2zm0 .9c-1.8 0-3 1.4-3 3.3c0 1.9 1.2 3.4 3 3.4c1.9 0 3.1-1.5 3.1-3.4c0-1.9-1.2-3.3-3.1-3.3zm5.6-.8h3.3c1.7 0 2.6 1.1 2.6 2.5c0 1.3-1 2.5-2.6 2.5c.01-.04-2.3 0-2.3 0v3.2h-1v-8.2zm3.2.9c-.01.01-2.2 0-2.2 0v3.1s2.19.05 2.2 0c1 0 1.6-.6 1.6-1.5c0-.9-.6-1.6-1.6-1.6zm3.9-.9h5.4v.9h-4.3v2.7h4.2v.9h-4.2v2.8h4.3v.9h-5.4v-8.2zm9.6 5h-1.6v3.2h-1.1v-8.2h3.3c1.6 0 2.6 1 2.6 2.5c0 1.5-1 2.3-2.1 2.4l2.2 3.3h-1.2l-2.1-3.2zm.5-4.1h-2.1v3.2s2.12-.04 2.1 0c1 0 1.7-.7 1.7-1.6c0-.9-.7-1.6-1.7-1.6zm6.1 0h-2.6v-.9h6.3v.9h-2.6v7.3H226v-7.3zm7.3 3.9l-3.2-4.8h1.2l2.5 3.8l2.6-3.8h1.2l-3.3 4.8v3.4h-1v-3.4z" stroke="none" fill="#888888"/></g><g id="Polygon106605"><path d="m32.6 360.7c4-3 5.8-4.6 5.8-6.3c0-1.2-1-1.8-2.1-1.8c-1.2 0-2.2.5-2.9 1.3l-.9-1c.9-1.1 2.3-1.7 3.8-1.7c1.9 0 3.7 1.1 3.7 3.2c0 2.1-2 3.9-4.9 6.2c.02-.04 5 0 5 0v1.4h-7.5v-1.3zm9.7-1.3c.7.8 1.8 1.3 2.9 1.3c1.5 0 2.4-.7 2.4-1.8c0-1.2-1-1.6-2.5-1.6h-1.2v-1.5h1.2c1.3 0 2.3-.4 2.3-1.5c0-1.1-1-1.7-2.2-1.7c-1.2 0-2 .4-2.8 1.2l-.9-.9c.8-1 2.1-1.7 3.8-1.7c2.2 0 3.7 1.1 3.7 2.8c0 1.5-1.2 2.3-2.3 2.5c1 .1 2.5.9 2.5 2.6c0 1.8-1.5 3-3.9 3c-1.8 0-3.2-.7-3.9-1.7l.9-1zm21.7-5.9l-3.4 8.5h-.7l-3.4-8.5v8.5h-1.6v-10.6h2.3l3.1 7.6l3.1-7.6h2.2V362H64v-8.5zm3.6-1.4c0-.5.4-.9.9-.9c.5 0 .9.4.9.9c0 .5-.4.9-.9.9c-.5 0-.9-.4-.9-.9zm.2 2.2h1.4v7.7h-1.4v-7.7zm8.7 2.8c0-1.3-.6-1.7-1.6-1.7c-.9 0-1.7.5-2.1 1.1c-.04-.02 0 5.5 0 5.5h-1.5v-7.7h1.5s-.04 1.07 0 1.1c.5-.7 1.5-1.3 2.7-1.3c1.6 0 2.4.9 2.4 2.5c.03-.03 0 5.4 0 5.4h-1.4v-4.9zm7.5-5.7s3.8-.03 3.8 0c3.3 0 5.5 2.2 5.5 5.3c0 3-2.2 5.3-5.5 5.3c0-.04-3.8 0-3.8 0v-10.6zm3.8 9.2c2.4 0 3.9-1.8 3.9-3.9c0-2.2-1.4-3.9-3.9-3.9c0-.04-2.2 0-2.2 0v7.8s2.2-.04 2.2 0zm7.2-6.3h1.5s-.05 1.16 0 1.2c.5-.8 1.4-1.4 2.5-1.4v1.5c-.2-.1-.3-.1-.5-.1c-.7 0-1.7.5-2 1.1c-.05.02 0 5.4 0 5.4H95v-7.7zm5-2.2c0-.5.4-.9.9-.9c.5 0 1 .4 1 .9c0 .5-.5.9-1 .9c-.5 0-.9-.4-.9-.9zm.2 2.2h1.5v7.7h-1.5v-7.7zm2.4 0h1.6l2.4 6l2.4-6h1.5l-3.2 7.7h-1.5l-3.2-7.7zm12.3-.2c2.3 0 3.7 1.8 3.7 4.1v.4s-6.06-.01-6.1 0c.2 1.3 1.1 2.4 2.6 2.4c.9 0 1.7-.3 2.3-.9l.7.9c-.8.8-1.9 1.1-3.1 1.1c-2.3 0-4-1.6-4-4c0-2.2 1.6-4 3.9-4zm-2.4 3.5h4.7c0-1.1-.7-2.3-2.3-2.3c-1.6 0-2.3 1.2-2.4 2.3z" stroke="none" fill="#282828"/></g><g id="Polygon106604"><path d="m5.5 338.2h-5v-1.3l4.4-6.7h2.2v6.6h1.5v1.4H7.1v2.6H5.5v-2.6zM2 336.8h3.5v-5.2L2 336.8zm8.8 2.2c.5 0 1 .4 1 1c0 .5-.5 1-1 1c-.6 0-1-.5-1-1c0-.6.4-1 1-1zm21.9-.4c.4.5 1 1 1.9 1c1.2 0 2-.9 2-2.1c-.02 0 0-7.3 0-7.3h1.6s-.04 7.31 0 7.3c0 2.4-1.5 3.5-3.5 3.5c-1.1 0-2-.4-2.8-1.2l.8-1.2zm7.2-1.7c0-2.2 1.5-4 3.8-4c2.4 0 3.9 1.8 3.9 4c0 2.3-1.5 4.1-3.9 4.1c-2.3 0-3.8-1.8-3.8-4.1zm6.2 0c0-1.4-.8-2.7-2.4-2.7c-1.5 0-2.3 1.3-2.3 2.7c0 1.5.8 2.8 2.3 2.8c1.6 0 2.4-1.3 2.4-2.8zm6.5-4c2.3 0 3.8 1.8 3.8 4.2c-.03-.03 0 .3 0 .3c0 0-6.1.01-6.1 0c.1 1.3 1.1 2.4 2.6 2.4c.8 0 1.7-.3 2.3-.9l.6.9c-.7.8-1.8 1.2-3 1.2c-2.3 0-4-1.6-4-4.1c0-2.2 1.6-4 3.8-4zm-2.3 3.5h4.7c-.1-1-.7-2.3-2.4-2.3c-1.5 0-2.2 1.2-2.3 2.3zm15.2.3h-1.9v4.1H62v-10.6s4.44-.01 4.4 0c2.1 0 3.4 1.3 3.4 3.2c0 2-1.3 3-2.6 3.1c0 .04 2.7 4.3 2.7 4.3h-1.8l-2.6-4.1zm.7-5.1h-2.6v3.7h2.6c1.2 0 2-.7 2-1.9c0-1.1-.8-1.8-2-1.8zm5.2-.7c0-.5.4-.9.9-.9c.5 0 .9.4.9.9c0 .5-.4.9-.9.9c-.5 0-.9-.4-.9-.9zm.2 2.2h1.4v7.7h-1.4v-7.7zm3.5-2.9h1.5v10.6h-1.5v-10.6zm6.9 2.7c2.4 0 3.8 1.8 3.8 4.2c-.02-.03 0 .3 0 .3c0 0-6.09.01-6.1 0c.1 1.3 1.1 2.4 2.6 2.4c.8 0 1.7-.3 2.3-.9l.7.9c-.8.8-1.9 1.2-3.1 1.2c-2.3 0-4-1.6-4-4.1c0-2.2 1.6-4 3.8-4zm-2.3 3.5h4.7c0-1-.7-2.3-2.4-2.3c-1.5 0-2.2 1.2-2.3 2.3zm8.2 6.2c.5 0 .9-.1 1.1-.7l.4-1l-3.1-7.8h1.5l2.4 6l2.4-6h1.5s-3.73 9.14-3.7 9.1c-.5 1.3-1.4 1.7-2.5 1.7c-.2 0-.6-.1-.9-.1l.3-1.3c.1.1.4.1.6.1zm17.1-10l-2.2 8.2h-1.7l-3-10.6h1.8l2.2 8.5l2.3-8.5h1.3l2.3 8.5l2.2-8.5h1.8l-3.1 10.6h-1.7l-2.2-8.2zm12.2 7.3c-.6.7-1.5 1.1-2.5 1.1c-1.3 0-2.7-.9-2.7-2.6c0-1.7 1.4-2.5 2.7-2.5c1 0 1.9.4 2.5 1v-1.2c0-1-.8-1.6-1.9-1.6c-.8 0-1.6.4-2.3 1.1l-.6-1c.9-.9 1.9-1.3 3.2-1.3c1.6 0 3 .8 3 2.7c.04.01 0 5.2 0 5.2h-1.4s.01-.86 0-.9zm0-2.1c-.4-.6-1.2-.9-2-.9c-1 0-1.7.6-1.7 1.5c0 1 .7 1.6 1.7 1.6c.8 0 1.6-.3 2-.9v-1.3zm3.9 1.3c-.04-.02 0-4.7 0-4.7h-1.3v-1.3h1.3V331h1.4v2.1h1.5v1.3h-1.5s-.02 4.37 0 4.4c0 .5.2.9.7.9c.4 0 .7-.1.8-.3l.4 1.1c-.3.3-.8.5-1.5.5c-1.2 0-1.8-.7-1.8-1.9zm7.7-6.2c2.3 0 3.8 1.8 3.8 4.2c-.03-.03 0 .3 0 .3c0 0-6.1.01-6.1 0c.1 1.3 1.1 2.4 2.6 2.4c.8 0 1.7-.3 2.3-.9l.6.9c-.7.8-1.8 1.2-3 1.2c-2.3 0-4-1.6-4-4.1c0-2.2 1.6-4 3.8-4zm-2.3 3.5h4.7c-.1-1-.7-2.3-2.4-2.3c-1.5 0-2.2 1.2-2.3 2.3zm7.7-3.3h1.4s.03 1.19 0 1.2c.6-.8 1.5-1.4 2.5-1.4v1.5c-.1-.1-.3-.1-.4-.1c-.8 0-1.7.6-2.1 1.1c.03.04 0 5.4 0 5.4h-1.4v-7.7zm5.6 1.3h-1.3v-1.3h1.3s-.04-.5 0-.5c0-1.6.9-2.6 2.3-2.6c.5 0 .9.1 1.3.3l-.4 1.1c-.2-.1-.4-.2-.7-.2c-.7 0-1.1.5-1.1 1.4v.5h1.5v1.3h-1.5v6.4h-1.4v-6.4zm4.2-1.3h1.4s-.02 1.19 0 1.2c.6-.8 1.5-1.4 2.5-1.4v1.5c-.1-.1-.3-.1-.5-.1c-.7 0-1.7.6-2 1.1c-.02.04 0 5.4 0 5.4H144v-7.7zm4.7 3.8c0-2.2 1.5-4 3.9-4c2.4 0 3.8 1.8 3.8 4c0 2.3-1.4 4.1-3.8 4.1c-2.4 0-3.9-1.8-3.9-4.1zm6.2 0c0-1.4-.8-2.7-2.3-2.7c-1.6 0-2.4 1.3-2.4 2.7c0 1.5.8 2.8 2.4 2.8c1.5 0 2.3-1.3 2.3-2.8zm8.4-1c0-1.3-.7-1.7-1.7-1.7c-.9 0-1.7.5-2.1 1.1c.02 0 0 5.5 0 5.5h-1.4v-7.7h1.4s.02 1.09 0 1.1c.5-.6 1.5-1.3 2.7-1.3c1.7 0 2.5.9 2.5 2.5v5.4h-1.4s-.03-4.93 0-4.9zm3.8 3.2v-4.7h-1.3v-1.3h1.3V331h1.4v2.1h1.6v1.3h-1.6s.02 4.37 0 4.4c0 .5.3.9.8.9c.3 0 .6-.1.7-.3l.4 1.1c-.3.3-.7.5-1.5.5c-1.2 0-1.8-.7-1.8-1.9zm8.4-8.9s4.45-.01 4.4 0c2.2 0 3.4 1.5 3.4 3.2c0 1.8-1.2 3.3-3.4 3.3h-2.8v4.1h-1.6v-10.6zm4.2 1.4h-2.6v3.7h2.6c1.2 0 2-.7 2-1.9c0-1.1-.8-1.8-2-1.8zm9.5 8.3c-.6.7-1.5 1.1-2.5 1.1c-1.3 0-2.7-.9-2.7-2.6c0-1.7 1.4-2.5 2.7-2.5c1 0 1.9.4 2.5 1v-1.2c0-1-.8-1.6-1.9-1.6c-.9 0-1.6.4-2.3 1.1l-.6-1c.8-.9 1.9-1.3 3.1-1.3c1.7 0 3.1.8 3.1 2.7c.02.01 0 5.2 0 5.2h-1.4s-.01-.86 0-.9zm0-2.1c-.4-.6-1.2-.9-2-.9c-1 0-1.7.6-1.7 1.5c0 1 .7 1.6 1.7 1.6c.8 0 1.6-.3 2-.9v-1.3zm3.5-4.7h1.5s-.03 1.19 0 1.2c.6-.8 1.5-1.4 2.5-1.4v1.5c-.2-.1-.3-.1-.5-.1c-.7 0-1.7.6-2 1.1c-.03.04 0 5.4 0 5.4h-1.5v-7.7zm7.8 4.4l-1.1 1.2v2.1H198v-10.6h1.4v6.8l3.7-3.9h1.8l-3.3 3.5l3.3 4.2h-1.8l-2.6-3.3z" stroke="none" fill="#282828"/></g><g id="Polygon106603"><path d="m34 266.8l-1.4 1.4l-.6-.6l2.1-2.1h.9v8.2h-1v-6.9zm2.8 5.1c.5.6 1.3 1.1 2.3 1.1c1.2 0 1.9-.6 1.9-1.6c0-1-.8-1.4-2-1.4h-.9v-1h.9c1 0 1.9-.4 1.9-1.3c0-.9-.9-1.4-1.9-1.4c-.9 0-1.5.3-2.1 1l-.6-.7c.6-.7 1.5-1.2 2.8-1.2c1.6 0 2.8.8 2.8 2.2c0 1.1-1 1.7-1.8 1.9c.8 0 1.9.7 1.9 2c0 1.4-1.1 2.4-2.9 2.4c-1.4 0-2.4-.6-2.9-1.4l.6-.6zm16.9-5l-2.9 6.8h-.4l-2.8-6.8v6.8h-1v-8.2h1.5l2.5 6.3l2.6-6.3h1.5v8.2h-1v-6.8zm2.8-1.4h1v8.2h-1v-8.2zm2.8 0h1v7.3h3.9v.9h-4.9v-8.2zm6.2 0h5.4v.9h-4.4v2.7h4.3v.9h-4.3v2.8h4.4v.9h-5.4v-8.2zm7 6.3c.5.6 1.4 1.2 2.6 1.2c1.5 0 1.9-.8 1.9-1.5c0-1-1-1.2-2.1-1.5c-1.3-.4-2.7-.7-2.7-2.4c0-1.3 1.2-2.2 2.8-2.2c1.2 0 2.2.4 2.9 1.1l-.6.8c-.6-.7-1.5-1-2.4-1c-1 0-1.7.5-1.7 1.3c0 .8 1 1.1 2 1.3c1.4.4 2.9.8 2.9 2.6c0 1.1-.8 2.4-3 2.4c-1.5 0-2.5-.6-3.2-1.3l.6-.8zm10.1-6.3h5.4v.9h-4.4v2.7h4.3v.9h-4.3v3.7h-1v-8.2zm9.3 4.9h-1.6v3.3h-1.1v-8.2s3.35-.02 3.4 0c1.5 0 2.5.9 2.5 2.5c0 1.5-1 2.3-2.1 2.4c0-.04 2.2 3.3 2.2 3.3H94l-2.1-3.3zm.5-4h-2.1v3.1s2.13.05 2.1 0c1 0 1.7-.6 1.7-1.5c0-1-.7-1.6-1.7-1.6zm8-1.1c2.4 0 4.1 1.9 4.1 4.3c0 2.4-1.7 4.3-4.1 4.3c-2.5 0-4.1-1.9-4.1-4.3c0-2.4 1.6-4.3 4.1-4.3zm0 1c-1.9 0-3 1.4-3 3.3c0 1.9 1.1 3.4 3 3.4c1.8 0 3-1.5 3-3.4c0-1.9-1.2-3.3-3-3.3zm12.6.6l-2.8 6.8h-.4l-2.8-6.8v6.8h-1v-8.2h1.4l2.6 6.3l2.6-6.3h1.4v8.2h-1v-6.8zm6 4.9c.5.6 1.4 1.2 2.6 1.2c1.5 0 1.9-.8 1.9-1.5c0-1-1-1.2-2.1-1.5c-1.3-.4-2.7-.7-2.7-2.4c0-1.3 1.2-2.2 2.8-2.2c1.2 0 2.2.4 2.9 1.1l-.6.8c-.6-.7-1.5-1-2.4-1c-1 0-1.7.5-1.7 1.3c0 .8 1 1.1 2 1.3c1.4.4 2.9.8 2.9 2.6c0 1.1-.8 2.4-3 2.4c-1.5 0-2.5-.6-3.2-1.3l.6-.8zm7-6.3h1s.03 5 0 5c0 1.5.8 2.5 2.4 2.5c1.5 0 2.3-1 2.3-2.5v-5h1s.02 5.01 0 5c0 2.1-1.1 3.4-3.3 3.4c-2.3 0-3.4-1.3-3.4-3.4v-5zm8.5 0s3.7-.02 3.7 0c1.4 0 2.3.8 2.3 2.1c0 1-.7 1.7-1.4 1.9c.8.1 1.6 1 1.6 2c0 1.3-.9 2.2-2.4 2.2c-.02.02-3.8 0-3.8 0v-8.2zm3.5 3.6c1 0 1.4-.6 1.4-1.4c0-.7-.4-1.3-1.4-1.3h-2.4v2.7s2.42-.05 2.4 0zm.1 3.7c.9 0 1.5-.5 1.5-1.4c0-.8-.5-1.4-1.5-1.4c-.03-.03-2.5 0-2.5 0v2.8s2.47.01 2.5 0zm3.8-.7c.3.5.8.9 1.5.9c1 0 1.7-.7 1.7-1.8v-5.7h1v5.7c0 1.8-1.1 2.7-2.6 2.7c-.9 0-1.6-.3-2.2-1l.6-.8zm6-6.6h5.4v.9h-4.4v2.7h4.3v.9h-4.3v2.8h4.4v.9h-5.4v-8.2zm6.6 4.1c0-2.5 1.9-4.3 4.2-4.3c1.5 0 2.5.8 3.2 1.7l-.9.5c-.5-.7-1.3-1.2-2.3-1.2c-1.8 0-3.1 1.3-3.1 3.3c0 2 1.3 3.4 3.1 3.4c1 0 1.8-.5 2.3-1.2l.9.4c-.7 1-1.7 1.7-3.2 1.7c-2.3 0-4.2-1.8-4.2-4.3zm10.6-3.2h-2.6v-.9h6.2v.9h-2.6v7.3h-1v-7.3zm7.9-.9s3.34-.02 3.3 0c1.7 0 2.6 1.1 2.6 2.5c0 1.3-.9 2.4-2.6 2.4c.04.05-2.2 0-2.2 0v3.3H173v-8.2zm3.2.9h-2.1v3.1s2.12.04 2.1 0c1 0 1.7-.6 1.7-1.5c0-1-.7-1.6-1.7-1.6zm6.6 4h-1.6v3.3h-1v-8.2s3.27-.02 3.3 0c1.5 0 2.6.9 2.6 2.5c0 1.5-1.1 2.3-2.2 2.4c.01-.04 2.2 3.3 2.2 3.3h-1.2l-2.1-3.3zm.5-4h-2.1v3.1s2.15.05 2.1 0c1 0 1.7-.6 1.7-1.5c0-1-.7-1.6-1.7-1.6zm8-1.1c2.4 0 4.1 1.9 4.1 4.3c0 2.4-1.7 4.3-4.1 4.3c-2.4 0-4.1-1.9-4.1-4.3c0-2.4 1.7-4.3 4.1-4.3zm0 1c-1.9 0-3 1.4-3 3.3c0 1.9 1.1 3.4 3 3.4c1.8 0 3-1.5 3-3.4c0-1.9-1.2-3.3-3-3.3zm5.6-.8s3.28-.02 3.3 0c1.6 0 2.6 1.1 2.6 2.5c0 1.3-1 2.4-2.6 2.4c-.02.05-2.3 0-2.3 0v3.3h-1v-8.2zm3.2.9h-2.2v3.1s2.16.04 2.2 0c.9 0 1.6-.6 1.6-1.5c0-1-.7-1.6-1.6-1.6zm3.9-.9h5.4v.9H205v2.7h4.3v.9H205v2.8h4.4v.9H204v-8.2zm9.6 4.9h-1.7v3.3h-1v-8.2s3.32-.02 3.3 0c1.5 0 2.6.9 2.6 2.5c0 1.5-1 2.3-2.1 2.4c-.04-.04 2.2 3.3 2.2 3.3h-1.2l-2.1-3.3zm.5-4h-2.2v3.1s2.19.05 2.2 0c1 0 1.6-.6 1.6-1.5c0-1-.6-1.6-1.6-1.6zm6.1 0h-2.6v-.9h6.2v.9h-2.6v7.3h-1v-7.3zm7.3 3.8l-3.3-4.7h1.2l2.6 3.8l2.5-3.8h1.2l-3.2 4.7v3.5h-1v-3.5z" stroke="none" fill="#888888"/></g><g id="Polygon106602"><path d="m34.7 244l-1.7 1.8l-.9-.9l2.8-2.9h1.4v10.5h-1.6V244zm4.6 6.3c.6.6 1.2 1 2.2 1c2.1 0 2.9-1.9 2.9-3.8v-.4c-.5.7-1.6 1.6-2.9 1.6c-1.9 0-3.5-1.2-3.5-3.4c0-1.9 1.5-3.5 3.8-3.5c3.1 0 4.2 2.5 4.2 5.5c0 2.9-1.4 5.4-4.5 5.4c-1.3 0-2.3-.5-2.9-1.2l.7-1.2zm2.6-7.1c-1.5 0-2.3 1.1-2.3 2c0 1.5 1.1 2.1 2.3 2.1c1 0 2-.5 2.5-1.4c-.1-1.2-.8-2.7-2.5-2.7zm18.9.9l-3.4 8.4h-.7l-3.4-8.4v8.4h-1.6V242h2.3l3.1 7.6l3.1-7.6h2.2v10.5h-1.6v-8.4zm3.6-1.4c0-.5.4-.9.9-.9c.5 0 .9.4.9.9c0 .5-.4.9-.9.9c-.5 0-.9-.4-.9-.9zm.2 2.2h1.4v7.6h-1.4v-7.6zm8.7 2.7c0-1.2-.6-1.6-1.6-1.6c-.9 0-1.7.5-2.1 1.1c-.04-.03 0 5.4 0 5.4h-1.5v-7.6h1.5s-.04 1.05 0 1.1c.5-.7 1.5-1.3 2.7-1.3c1.6 0 2.4.8 2.4 2.5c.04-.04 0 5.3 0 5.3h-1.4v-4.9zm7.5-5.6s3.8-.05 3.8 0c3.3 0 5.5 2.2 5.5 5.3c0 3-2.2 5.2-5.5 5.2c0 .05-3.8 0-3.8 0V242zm3.8 9.2c2.5 0 3.9-1.8 3.9-3.9c0-2.2-1.4-3.9-3.9-3.9c0-.05-2.2 0-2.2 0v7.8s2.2-.05 2.2 0zm7.2-6.3h1.5s-.04 1.15 0 1.2c.5-.8 1.5-1.4 2.5-1.4v1.4h-.5c-.7 0-1.7.5-2 1.1c-.04.01 0 5.3 0 5.3h-1.5v-7.6zm5-2.2c0-.5.4-.9.9-.9c.5 0 1 .4 1 .9c0 .5-.5.9-1 .9c-.5 0-.9-.4-.9-.9zm.2 2.2h1.5v7.6H97v-7.6zm2.5 0h1.5l2.4 6l2.4-6h1.5l-3.1 7.6h-1.6l-3.1-7.6zm12.2-.2c2.3 0 3.7 1.8 3.7 4.1v.4s-6.05-.02-6.1 0c.2 1.3 1.1 2.4 2.7 2.4c.8 0 1.7-.4 2.2-.9l.7.9c-.8.7-1.9 1.1-3.1 1.1c-2.3 0-4-1.6-4-4c0-2.2 1.6-4 3.9-4zm-2.4 3.4h4.7c0-1-.7-2.2-2.3-2.2c-1.6 0-2.3 1.2-2.4 2.2z" stroke="none" fill="#282828"/></g><g id="Polygon106601"><path d="m1.3 228.8c.7.8 1.8 1.3 3 1.3c1.4 0 2.3-.7 2.3-1.8c0-1.1-1-1.6-2.5-1.6H3v-1.5c.1.1.7.1 1.1.1c1.3 0 2.3-.5 2.3-1.6c0-1.1-1-1.7-2.2-1.7c-1.1 0-2 .5-2.8 1.3l-.8-1c.8-1 2-1.7 3.7-1.7c2.2 0 3.7 1.1 3.7 2.9c0 1.4-1.2 2.2-2.3 2.4c1 .1 2.5.9 2.5 2.6c0 1.8-1.5 3.1-3.9 3.1c-1.8 0-3.2-.8-3.9-1.8l.9-1zm9.4.8c.5 0 1 .4 1 .9c0 .6-.5 1-1 1c-.6 0-1-.4-1-1c0-.5.4-.9 1-.9zm24.8-7.4h-3.3v-1.4h8.2v1.4h-3.3v9.2h-1.6v-9.2zm11.5 4.2c0-1.2-.6-1.6-1.6-1.6c-.9 0-1.7.5-2.1 1.1c-.02-.01 0 5.5 0 5.5h-1.4v-10.6h1.4s-.02 3.98 0 4c.5-.6 1.5-1.3 2.7-1.3c1.6 0 2.5.8 2.5 2.5c-.04-.05 0 5.4 0 5.4H47s.03-4.97 0-5zm7-2.9c2.3 0 3.7 1.8 3.7 4.2c-.02-.05 0 .3 0 .3h-6.1c.1 1.3 1.1 2.4 2.6 2.4c.8 0 1.7-.3 2.3-.9l.7.9c-.8.8-1.9 1.2-3.1 1.2c-2.3 0-4-1.7-4-4.1c0-2.2 1.6-4 3.9-4zm-2.4 3.5h4.7c0-1-.7-2.3-2.3-2.3c-1.6 0-2.3 1.2-2.4 2.3zm11.2-.9c0-3.3 2.5-5.5 5.5-5.5c2.1 0 3.4 1 4.2 2.2l-1.4.8c-.5-.9-1.6-1.6-2.8-1.6c-2.2 0-3.8 1.7-3.8 4.1c0 2.3 1.6 4 3.8 4c1.2 0 2.3-.6 2.8-1.5l1.4.7c-.9 1.3-2.1 2.3-4.2 2.3c-3 0-5.5-2.3-5.5-5.5zm16.3.3c0-1.2-.7-1.6-1.7-1.6c-.9 0-1.7.5-2.1 1.1v5.5h-1.4v-10.6h1.4v4c.5-.6 1.6-1.3 2.7-1.3c1.7 0 2.5.8 2.5 2.5v5.4h-1.4s-.04-4.97 0-5zm8.3 4.1c-.7.7-1.5 1.1-2.6 1.1c-1.2 0-2.6-.9-2.6-2.6c0-1.7 1.4-2.5 2.6-2.5c1.1 0 2 .3 2.6 1v-1.2c0-1-.8-1.6-1.9-1.6c-.9 0-1.6.4-2.3 1l-.6-.9c.8-.9 1.9-1.3 3.1-1.3c1.7 0 3.1.7 3.1 2.7c-.02-.01 0 5.2 0 5.2h-1.4s-.05-.87 0-.9zm0-2.1c-.5-.6-1.2-.9-2-.9c-1 0-1.8.6-1.8 1.5c0 .9.8 1.6 1.8 1.6c.8 0 1.5-.3 2-.9v-1.3zm3.5-4.7h1.4s.04 1.17 0 1.2c.6-.8 1.5-1.4 2.5-1.4v1.5c-.1-.1-.3-.1-.4-.1c-.8 0-1.7.6-2.1 1.1c.04.03 0 5.4 0 5.4h-1.4v-7.7zm5.2-2.9h1.4v10.6h-1.4v-10.6zm6.9 2.7c2.3 0 3.8 1.8 3.8 4.2c-.04-.05 0 .3 0 .3h-6.1c.1 1.3 1.1 2.4 2.6 2.4c.8 0 1.7-.3 2.3-.9l.6.9c-.7.8-1.8 1.2-3 1.2c-2.3 0-4-1.7-4-4.1c0-2.2 1.6-4 3.8-4zm-2.3 3.5h4.7c-.1-1-.8-2.3-2.4-2.3c-1.5 0-2.2 1.2-2.3 2.3zm7.7 2.3c.5.6 1.6 1.1 2.6 1.1c1.1 0 1.6-.4 1.6-1.1c0-.7-.8-1-1.8-1.2c-1.3-.3-2.8-.7-2.8-2.3c0-1.2 1-2.3 2.9-2.3c1.3 0 2.2.5 2.9 1.1l-.6 1c-.5-.5-1.3-.9-2.3-.9c-1 0-1.6.3-1.6 1c0 .6.8.9 1.8 1.1c1.3.3 2.9.6 2.9 2.4c0 1.3-1.1 2.4-3.1 2.4c-1.3 0-2.4-.4-3.2-1.2l.7-1.1zm7.6.4c-.04-.03 0-4.7 0-4.7h-1.3v-1.3h1.3v-2.1h1.4v2.1h1.5v1.3h-1.5s-.02 4.35 0 4.4c0 .5.2.9.7.9c.4 0 .7-.2.8-.3l.4 1.1c-.3.3-.8.5-1.5.5c-1.2 0-1.8-.7-1.8-1.9zm3.9-2.2c0-2.2 1.5-4 3.9-4c2.4 0 3.8 1.8 3.8 4c0 2.3-1.4 4.1-3.8 4.1c-2.4 0-3.9-1.8-3.9-4.1zm6.3 0c0-1.4-.9-2.7-2.4-2.7c-1.6 0-2.4 1.3-2.4 2.7c0 1.5.8 2.8 2.4 2.8c1.5 0 2.4-1.3 2.4-2.8zm8.3-1c0-1.3-.7-1.7-1.7-1.7c-.9 0-1.7.5-2.1 1.1c.03-.01 0 5.5 0 5.5h-1.4v-7.7h1.4s.03 1.08 0 1.1c.5-.6 1.6-1.3 2.7-1.3c1.7 0 2.5.9 2.5 2.5v5.4h-1.4s-.02-4.94 0-4.9zm16.6-3.5l-3.4 8.4h-.7l-3.4-8.4v8.4H142v-10.6h2.3l3 7.6l3.1-7.6h2.3v10.6h-1.6V223zm8.9 7.3c-.6.7-1.5 1.3-2.7 1.3c-1.6 0-2.4-.9-2.4-2.5c-.05.02 0-5.4 0-5.4h1.4s-.02 4.94 0 4.9c0 1.3.6 1.7 1.6 1.7c.9 0 1.7-.5 2.1-1.1c.03.01 0-5.5 0-5.5h1.5v7.7H160s.03-1.08 0-1.1zm3.6-1c.5.6 1.5 1.1 2.6 1.1c1 0 1.6-.4 1.6-1.1c0-.7-.9-1-1.8-1.2c-1.4-.3-2.9-.7-2.9-2.3c0-1.2 1.1-2.3 2.9-2.3c1.4 0 2.3.5 3 1.1l-.7 1c-.4-.5-1.3-.9-2.2-.9c-1 0-1.6.3-1.6 1c0 .6.8.9 1.8 1.1c1.3.3 2.9.6 2.9 2.4c0 1.3-1.1 2.4-3.1 2.4c-1.3 0-2.4-.4-3.2-1.2l.7-1.1zm10.6-5.8c2.3 0 3.7 1.8 3.7 4.2c.04-.05 0 .3 0 .3h-6c.1 1.3 1 2.4 2.6 2.4c.8 0 1.7-.3 2.3-.9l.6.9c-.7.8-1.8 1.2-3.1 1.2c-2.2 0-3.9-1.7-3.9-4.1c0-2.2 1.6-4 3.8-4zm-2.3 3.5h4.6c0-1-.7-2.3-2.3-2.3c-1.5 0-2.3 1.2-2.3 2.3zm12.9 3.3c-.6.7-1.6 1.3-2.8 1.3c-1.6 0-2.4-.9-2.4-2.5c-.02.02 0-5.4 0-5.4h1.4v4.9c0 1.3.6 1.7 1.6 1.7c.9 0 1.7-.5 2.2-1.1c-.04.01 0-5.5 0-5.5h1.4v7.7h-1.4s-.04-1.08 0-1.1zm12.8-4c0-.9-.4-1.5-1.3-1.5c-.8 0-1.6.5-1.9 1.1c-.02-.03 0 5.5 0 5.5H193s-.05-5.14 0-5.1c0-.9-.4-1.5-1.4-1.5c-.7 0-1.5.5-1.9 1.1c.03-.01 0 5.5 0 5.5h-1.4v-7.7h1.4s.03 1.08 0 1.1c.3-.5 1.4-1.3 2.5-1.3c1.2 0 1.8.6 2.1 1.4c.4-.7 1.4-1.4 2.6-1.4c1.4 0 2.2.8 2.2 2.3c-.05.03 0 5.6 0 5.6h-1.5s.02-5.14 0-5.1z" stroke="none" fill="#282828"/></g><g id="Polygon106600"><path d="m34 157.4l-1.4 1.4l-.6-.6l2.1-2.1h.9v8.2h-1v-6.9zm2.8 5.1c.5.6 1.3 1 2.3 1c1.2 0 1.9-.5 1.9-1.5c0-1-.8-1.5-2-1.5c-.4 0-.8 0-.9.1v-1h.9c1 0 1.9-.4 1.9-1.3c0-.9-.9-1.4-1.9-1.4c-.9 0-1.5.3-2.1 1l-.6-.7c.6-.7 1.5-1.3 2.8-1.3c1.6 0 2.8.9 2.8 2.2c0 1.2-1 1.8-1.8 2c.8 0 1.9.7 1.9 2c0 1.4-1.1 2.4-2.9 2.4c-1.4 0-2.4-.7-2.9-1.4l.6-.6zm7.2.6c.4 0 .7.3.7.7c0 .3-.3.6-.7.6c-.4 0-.7-.3-.7-.6c0-.4.3-.7.7-.7zm2.7-.6c.6.7 1.3 1 2.3 1c1.1 0 1.9-.7 1.9-1.7c0-1.1-.8-1.8-1.9-1.8c-.7 0-1.3.2-1.9.8c.03-.02-.7-.3-.7-.3v-4.4h5v.9h-4v2.9c.4-.4 1.1-.8 1.9-.8c1.4 0 2.6.9 2.6 2.6c0 1.7-1.2 2.8-2.9 2.8c-1.4 0-2.3-.5-2.9-1.4l.6-.6zm16.8-5l-2.8 6.8h-.4l-2.8-6.8v6.8h-1v-8.2h1.5l2.5 6.2l2.6-6.2h1.5v8.2h-1.1v-6.8zm2.9-1.4h1v8.2h-1v-8.2zm2.8 0h1v7.3h3.8v.9h-4.8v-8.2zm6.2 0h5.4v.9h-4.4v2.6h4.3v1h-4.3v2.8h4.4v.9h-5.4v-8.2zm7 6.3c.5.6 1.4 1.1 2.6 1.1c1.5 0 1.9-.7 1.9-1.4c0-1-1-1.2-2.1-1.5c-1.3-.4-2.8-.7-2.8-2.4c0-1.3 1.3-2.3 2.9-2.3c1.2 0 2.2.5 2.9 1.2l-.6.8c-.6-.7-1.5-1-2.4-1c-1 0-1.7.5-1.7 1.3c0 .8 1 1 2 1.3c1.4.4 2.9.8 2.9 2.5c0 1.2-.8 2.5-3.1 2.5c-1.4 0-2.4-.6-3.1-1.3l.6-.8zm10.1-6.3h5.4v.9h-4.4v2.6h4.3v1h-4.3v3.7h-1v-8.2zm9.3 4.9h-1.7v3.3h-1v-8.2s3.34-.03 3.3 0c1.5 0 2.6.9 2.6 2.5c0 1.4-1 2.3-2.1 2.4c-.02-.05 2.2 3.3 2.2 3.3h-1.2l-2.1-3.3zm.5-4c.01-.01-2.2 0-2.2 0v3.1s2.21.04 2.2 0c1 0 1.7-.6 1.7-1.5c0-1-.7-1.6-1.7-1.6zm8-1.1c2.4 0 4.1 1.9 4.1 4.3c0 2.4-1.7 4.3-4.1 4.3c-2.5 0-4.1-1.9-4.1-4.3c0-2.4 1.6-4.3 4.1-4.3zm0 .9c-1.9 0-3.1 1.5-3.1 3.4c0 1.9 1.2 3.3 3.1 3.3c1.8 0 3-1.4 3-3.3c0-1.9-1.2-3.4-3-3.4zm12.6.7l-2.8 6.8h-.4l-2.8-6.8v6.8h-1.1v-8.2h1.5l2.6 6.2l2.5-6.2h1.5v8.2h-1v-6.8zm6 4.9c.5.6 1.4 1.1 2.6 1.1c1.4 0 1.9-.7 1.9-1.4c0-1-1-1.2-2.1-1.5c-1.3-.4-2.8-.7-2.8-2.4c0-1.3 1.2-2.3 2.9-2.3c1.2 0 2.2.5 2.9 1.2l-.6.8c-.6-.7-1.5-1-2.4-1c-1 0-1.7.5-1.7 1.3c0 .8.9 1 2 1.3c1.3.4 2.9.8 2.9 2.5c0 1.2-.8 2.5-3.1 2.5c-1.4 0-2.4-.6-3.1-1.3l.6-.8zm7-6.3h1s.01 4.99 0 5c0 1.5.8 2.4 2.3 2.4c1.6 0 2.4-.9 2.4-2.4c-.02-.01 0-5 0-5h1s.01 5 0 5c0 2.1-1.1 3.4-3.4 3.4c-2.2 0-3.3-1.4-3.3-3.4c-.01.01 0-5 0-5zm8.5 0s3.68-.03 3.7 0c1.4 0 2.3.8 2.3 2.1c0 1-.7 1.7-1.5 1.9c.9.1 1.6 1 1.6 2c0 1.3-.8 2.2-2.3 2.2h-3.8v-8.2zm3.5 3.5c.9 0 1.4-.5 1.4-1.3c0-.7-.5-1.3-1.4-1.3c.01-.01-2.5 0-2.5 0v2.6s2.51.04 2.5 0zm.1 3.8c.9 0 1.5-.5 1.5-1.4c0-.8-.5-1.4-1.5-1.4c-.04-.04-2.6 0-2.6 0v2.8h2.6zm3.8-.7c.3.5.8.8 1.5.8c1 0 1.7-.7 1.7-1.7c-.03.02 0-5.7 0-5.7h1v5.7c0 1.8-1.2 2.7-2.6 2.7c-.9 0-1.6-.3-2.2-1l.6-.8zm6-6.6h5.4v.9h-4.4v2.6h4.3v1h-4.3v2.8h4.4v.9h-5.4v-8.2zm6.6 4.1c0-2.5 1.8-4.3 4.2-4.3c1.5 0 2.5.7 3.1 1.7l-.8.4c-.5-.6-1.4-1.2-2.3-1.2c-1.8 0-3.2 1.4-3.2 3.4c0 2 1.4 3.3 3.2 3.3c.9 0 1.8-.4 2.3-1.2l.8.5c-.6 1-1.6 1.7-3.1 1.7c-2.4 0-4.2-1.8-4.2-4.3zM175 157h-2.6v-.9h6.2v.9H176v7.3h-1V157zm7.9-.9s3.32-.03 3.3 0c1.7 0 2.6 1.1 2.6 2.5c0 1.3-.9 2.4-2.6 2.4c.02.04-2.3 0-2.3 0v3.3h-1v-8.2zm3.2.9c0-.01-2.2 0-2.2 0v3.1s2.2.02 2.2 0c1 0 1.6-.6 1.6-1.5c0-1-.6-1.6-1.6-1.6zm6.6 4h-1.6v3.3H190v-8.2s3.35-.03 3.4 0c1.5 0 2.5.9 2.5 2.5c0 1.4-1 2.3-2.1 2.4c0-.05 2.2 3.3 2.2 3.3h-1.2l-2.1-3.3zm.5-4h-2.1v3.1s2.13.04 2.1 0c1 0 1.7-.6 1.7-1.5c0-1-.7-1.6-1.7-1.6zm8-1.1c2.4 0 4.1 1.9 4.1 4.3c0 2.4-1.7 4.3-4.1 4.3c-2.5 0-4.1-1.9-4.1-4.3c0-2.4 1.6-4.3 4.1-4.3zm0 .9c-1.9 0-3 1.5-3 3.4c0 1.9 1.1 3.3 3 3.3c1.8 0 3-1.4 3-3.3c0-1.9-1.2-3.4-3-3.4zm5.6-.7s3.26-.03 3.3 0c1.6 0 2.5 1.1 2.5 2.5c0 1.3-.9 2.4-2.5 2.4c-.04.04-2.3 0-2.3 0v3.3h-1v-8.2zm3.1.9h-2.1v3.1s2.14.02 2.1 0c1 0 1.7-.6 1.7-1.5c0-1-.7-1.6-1.7-1.6zm4-.9h5.4v.9h-4.4v2.6h4.3v1h-4.3v2.8h4.4v.9h-5.4v-8.2zm9.6 4.9h-1.7v3.3h-1v-8.2s3.3-.03 3.3 0c1.5 0 2.6.9 2.6 2.5c0 1.4-1 2.3-2.2 2.4c.04-.05 2.3 3.3 2.3 3.3h-1.2l-2.1-3.3zm.5-4c-.03-.01-2.2 0-2.2 0v3.1s2.17.04 2.2 0c1 0 1.6-.6 1.6-1.5c0-1-.6-1.6-1.6-1.6zm6.1 0h-2.6v-.9h6.2v.9h-2.6v7.3h-1V157zm7.3 3.8l-3.3-4.7h1.2l2.6 3.8l2.5-3.8h1.2l-3.2 4.7v3.5h-1v-3.5z" stroke="none" fill="#888888"/></g><g id="Polygon106599"><path d="m32.6 141.9c4-3.1 5.8-4.7 5.8-6.3c0-1.3-1-1.8-2.1-1.8c-1.2 0-2.2.5-2.9 1.3l-.9-1c.9-1.1 2.3-1.7 3.8-1.7c1.9 0 3.7 1.1 3.7 3.2c0 2-2 3.9-4.9 6.1c.02.04 5 0 5 0v1.4h-7.5v-1.2zm13.3-9.5c2.9 0 4.1 2.8 4.1 5.4c0 2.7-1.2 5.5-4.1 5.5c-3 0-4.2-2.8-4.2-5.5c0-2.6 1.2-5.4 4.2-5.4zm0 1.4c-1.9 0-2.6 2-2.6 4c0 2.1.7 4.1 2.6 4.1c1.8 0 2.5-2 2.5-4.1c0-2-.7-4-2.5-4zm18.9.9l-3.4 8.4h-.7l-3.4-8.4v8.4h-1.6v-10.6h2.3l3.1 7.6l3-7.6h2.3v10.6h-1.6v-8.4zm3.5-1.4c0-.5.5-.9 1-.9c.5 0 .9.4.9.9c0 .5-.4.9-.9.9c-.5 0-1-.4-1-.9zm.3 2.2h1.4v7.6h-1.4v-7.6zm8.7 2.7c0-1.2-.7-1.7-1.7-1.7c-.8 0-1.7.6-2.1 1.2c.03-.05 0 5.4 0 5.4h-1.4v-7.6h1.4s.03 1.04 0 1c.5-.6 1.6-1.2 2.8-1.2c1.6 0 2.4.8 2.4 2.5v5.3h-1.4s-.02-4.87 0-4.9zm7.5-5.7s3.77.04 3.8 0c3.3 0 5.5 2.3 5.5 5.3c0 3.1-2.2 5.3-5.5 5.3c-.03.03-3.8 0-3.8 0v-10.6zm3.8 9.2c2.4 0 3.8-1.7 3.8-3.9c0-2.1-1.3-3.9-3.8-3.9c-.03.04-2.2 0-2.2 0v7.8s2.17.04 2.2 0zm7.2-6.2h1.4s.03 1.14 0 1.1c.6-.7 1.5-1.3 2.5-1.3v1.4h-.5c-.7 0-1.6.5-2 1.1c.03 0 0 5.3 0 5.3h-1.4v-7.6zm5-2.2c0-.5.4-.9.9-.9c.5 0 .9.4.9.9c0 .5-.4.9-.9.9c-.5 0-.9-.4-.9-.9zm.2 2.2h1.4v7.6H101v-7.6zm2.4 0h1.5l2.4 6l2.4-6h1.6l-3.2 7.6h-1.5l-3.2-7.6zm12.3-.2c2.3 0 3.7 1.8 3.7 4.1v.4s-6.08-.03-6.1 0c.1 1.3 1.1 2.4 2.6 2.4c.8 0 1.7-.4 2.3-1l.7 1c-.8.7-1.9 1.1-3.1 1.1c-2.3 0-4-1.6-4-4c0-2.2 1.6-4 3.9-4zm-2.4 3.4h4.7c0-1-.7-2.3-2.3-2.3c-1.6 0-2.3 1.3-2.4 2.3z" stroke="none" fill="#282828"/></g><g id="Polygon106598"><path d="m.8 120.7c4-3 5.8-4.6 5.8-6.3c0-1.2-1-1.8-2-1.8c-1.3 0-2.3.5-2.9 1.3l-1-1c.9-1.1 2.4-1.7 3.8-1.7c1.9 0 3.7 1.1 3.7 3.2c0 2.1-1.9 3.9-4.8 6.2c-.05-.04 4.9 0 4.9 0v1.4H.8s.03-1.3 0-1.3zm10.3-.6c.5 0 1 .5 1 1c0 .6-.5 1-1 1c-.5 0-1-.4-1-1c0-.5.5-1 1-1zm22.1-.9c.7.8 1.9 1.5 3.3 1.5c1.7 0 2.3-.8 2.3-1.6c0-1.1-1.2-1.4-2.5-1.8c-1.7-.4-3.7-.9-3.7-3.1c0-1.7 1.6-3 3.8-3c1.6 0 2.9.5 3.8 1.5l-.9 1.2c-.8-.9-1.9-1.3-3.1-1.3c-1.1 0-1.9.6-1.9 1.5c0 1 1.1 1.3 2.4 1.6c1.8.5 3.8 1 3.8 3.3c0 1.6-1.2 3.1-4 3.1c-1.9 0-3.3-.6-4.2-1.6l.9-1.3zm8.4-1.1c0-2.2 1.5-4 3.9-4c2.4 0 3.9 1.8 3.9 4c0 2.2-1.5 4-3.9 4c-2.4 0-3.9-1.8-3.9-4zm6.3 0c0-1.4-.8-2.7-2.4-2.7c-1.5 0-2.4 1.3-2.4 2.7c0 1.5.9 2.8 2.4 2.8c1.6 0 2.4-1.3 2.4-2.8zm8.3 2.8c-.6.6-1.5 1.2-2.7 1.2c-1.6 0-2.5-.8-2.5-2.4c.05 0 0-5.4 0-5.4h1.5s-.03 4.93 0 4.9c0 1.3.6 1.7 1.6 1.7c.9 0 1.7-.5 2.1-1.1c.02 0 0-5.5 0-5.5h1.5v7.7h-1.5s.02-1.09 0-1.1zm3.9-.6c-.05-.04 0-4.8 0-4.8h-1.3v-1.2h1.3v-2.1h1.4v2.1h1.5v1.2h-1.5s-.02 4.44 0 4.4c0 .6.2 1 .7 1c.4 0 .7-.2.8-.3l.4 1.1c-.3.2-.8.4-1.5.4c-1.2 0-1.8-.6-1.8-1.8zm9.5-3.3c0-1.3-.6-1.6-1.6-1.6c-.9 0-1.7.5-2.1 1.1v5.5h-1.4v-10.6h1.4v4c.5-.7 1.5-1.3 2.7-1.3c1.6 0 2.5.8 2.5 2.4c-.03.04 0 5.5 0 5.5h-1.5s.04-4.98 0-5zm7.1-.3c0-3.3 2.4-5.5 5.5-5.5c2 0 3.3 1 4.2 2.2l-1.4.7c-.5-.8-1.6-1.5-2.8-1.5c-2.2 0-3.8 1.7-3.8 4.1c0 2.3 1.6 4 3.8 4c1.2 0 2.3-.6 2.8-1.5l1.4.7c-.9 1.2-2.2 2.2-4.2 2.2c-3.1 0-5.5-2.2-5.5-5.4zm15.8 4.4c-.6.7-1.5 1-2.5 1c-1.3 0-2.7-.8-2.7-2.5c0-1.7 1.4-2.5 2.7-2.5c1 0 1.9.3 2.5 1v-1.3c0-.9-.8-1.5-1.9-1.5c-.8 0-1.6.4-2.3 1l-.6-.9c.9-.9 1.9-1.3 3.1-1.3c1.7 0 3.1.7 3.1 2.7c.03-.02 0 5.2 0 5.2h-1.4v-.9zm0-2.1c-.4-.6-1.2-.9-2-.9c-1 0-1.7.6-1.7 1.5c0 .9.7 1.5 1.7 1.5c.8 0 1.6-.3 2-.8V119zm3.6-4.7h1.4s-.02 1.16 0 1.2c.6-.8 1.5-1.4 2.5-1.4v1.5c-.1-.1-.3-.1-.5-.1c-.7 0-1.7.5-2 1.1c-.02.02 0 5.4 0 5.4h-1.4v-7.7zm4.7 3.8c0-2.2 1.5-4 3.9-4c2.4 0 3.8 1.8 3.8 4c0 2.2-1.4 4-3.8 4c-2.4 0-3.9-1.8-3.9-4zm6.2 0c0-1.4-.8-2.7-2.3-2.7c-1.6 0-2.4 1.3-2.4 2.7c0 1.5.8 2.8 2.4 2.8c1.5 0 2.3-1.3 2.3-2.8zm3.2-6.7h1.4V122h-1.4v-10.6zm3.3.7c0-.5.4-.9.9-.9c.5 0 1 .4 1 .9c0 .5-.5.9-1 .9c-.5 0-.9-.4-.9-.9zm.2 2.2h1.5v7.7h-1.5v-7.7zm8.8 2.8c0-1.3-.7-1.7-1.7-1.7c-.9 0-1.7.5-2.1 1.1v5.5h-1.4v-7.7h1.4v1.1c.5-.7 1.5-1.3 2.7-1.3c1.6 0 2.5.9 2.5 2.5c-.02-.03 0 5.4 0 5.4h-1.4s-.05-4.95 0-4.9zm8.2 4c-.6.7-1.5 1-2.5 1c-1.3 0-2.7-.8-2.7-2.5c0-1.7 1.4-2.5 2.7-2.5c1 0 1.9.3 2.5 1v-1.3c0-.9-.8-1.5-1.8-1.5c-.9 0-1.7.4-2.4 1l-.6-.9c.9-.9 1.9-1.3 3.2-1.3c1.6 0 3.1.7 3.1 2.7c-.05-.02 0 5.2 0 5.2h-1.5s.03-.88 0-.9zm0-2.1c-.4-.6-1.1-.9-1.9-.9c-1.1 0-1.8.6-1.8 1.5c0 .9.7 1.5 1.8 1.5c.8 0 1.5-.3 1.9-.8V119zm14.3.8h-5.2l-.9 2.2h-1.7l4.2-10.6h2l4.2 10.6h-1.8l-.8-2.2zm-4.8-1.4h4.3l-2.1-5.7l-2.2 5.7zm13.9 6.5v-4.1c-.6.9-1.5 1.3-2.5 1.3c-2 0-3.4-1.5-3.4-4c0-2.5 1.4-4 3.4-4c1 0 1.9.5 2.5 1.3c.01-.02 0-1.1 0-1.1h1.4v10.6h-1.4zm0-8.4c-.4-.6-1.3-1.1-2.1-1.1c-1.5 0-2.3 1.1-2.3 2.7c0 1.6.8 2.8 2.3 2.8c.8 0 1.7-.5 2.1-1.1v-3.3zm8.7 4.4c-.6.6-1.5 1.2-2.7 1.2c-1.6 0-2.5-.8-2.5-2.4c.05 0 0-5.4 0-5.4h1.5s-.03 4.93 0 4.9c0 1.3.6 1.7 1.6 1.7c.9 0 1.7-.5 2.1-1.1c.02 0 0-5.5 0-5.5h1.5v7.7h-1.5s.02-1.09 0-1.1zm8.3.2c-.6.7-1.5 1-2.5 1c-1.3 0-2.7-.8-2.7-2.5c0-1.7 1.4-2.5 2.7-2.5c1 0 1.9.3 2.5 1v-1.3c0-.9-.8-1.5-1.9-1.5c-.8 0-1.6.4-2.3 1l-.6-.9c.9-.9 1.9-1.3 3.1-1.3c1.7 0 3.1.7 3.1 2.7c.03-.02 0 5.2 0 5.2h-1.4v-.9zm0-2.1c-.4-.6-1.2-.9-2-.9c-1 0-1.7.6-1.7 1.5c0 .9.7 1.5 1.7 1.5c.8 0 1.6-.3 2-.8V119zm3.6-4.7h1.4s-.02 1.16 0 1.2c.6-.8 1.5-1.4 2.5-1.4v1.5c-.1-.1-.3-.1-.5-.1c-.7 0-1.7.5-2 1.1c-.02.02 0 5.4 0 5.4h-1.4v-7.7zm4.9-2.2c0-.5.5-.9 1-.9c.5 0 .9.4.9.9c0 .5-.4.9-.9.9c-.5 0-1-.4-1-.9zm.3 2.2h1.4v7.7h-1.4v-7.7zm8.7 6.6c-.6.6-1.6 1.2-2.7 1.2c-1.7 0-2.5-.8-2.5-2.4v-5.4h1.4s.04 4.93 0 4.9c0 1.3.7 1.7 1.7 1.7c.8 0 1.7-.5 2.1-1.1v-5.5h1.4v7.7h-1.4s-.01-1.09 0-1.1zm12.9-4.1c0-.8-.4-1.4-1.4-1.4c-.8 0-1.5.5-1.9 1.1v5.5h-1.4s-.02-5.16 0-5.2c0-.8-.4-1.4-1.4-1.4c-.7 0-1.5.5-1.8 1.1c-.05-.02 0 5.5 0 5.5h-1.5v-7.7h1.5s-.05 1.07 0 1.1c.3-.5 1.3-1.3 2.4-1.3c1.2 0 1.9.6 2.1 1.4c.5-.7 1.5-1.4 2.6-1.4c1.4 0 2.2.8 2.2 2.3c-.02.01 0 5.6 0 5.6h-1.4s-.05-5.16 0-5.2z" stroke="none" fill="#282828"/></g><g id="Polygon106597"><path d="m34 48l-1.4 1.4l-.6-.6l2.1-2.1h.9v8.2h-1V48zm3.3 5c.5.7 1.2 1.1 2.2 1.1c1.2 0 2-.7 2-1.7c0-1.1-.8-1.8-1.9-1.8c-.8 0-1.4.2-1.9.8c-.04-.03-.8-.3-.8-.3v-4.4h5v.9h-4s.03 2.84 0 2.8c.4-.4 1.1-.7 2-.7c1.3 0 2.6.9 2.6 2.6c0 1.7-1.3 2.7-3 2.7c-1.3 0-2.2-.5-2.9-1.3l.7-.7zm7.1.7c.4 0 .7.3.7.6c0 .4-.3.7-.7.7c-.4 0-.7-.3-.7-.7c0-.3.3-.6.7-.6zm5.3-6.1h-4.4v-.9h5.6v.7l-3.4 7.5h-1.1l3.3-7.3zm12.5.4l-2.8 6.9h-.4L56.2 48v6.9h-1v-8.2h1.4l2.6 6.2l2.6-6.2h1.4v8.2h-1V48zm2.8-1.3h1.1v8.2H65v-8.2zm2.9 0h1v7.3h3.8v.9h-4.8v-8.2zm6.1 0h5.4v.9h-4.3v2.6h4.2v.9h-4.2v2.9h4.3v.9H74v-8.2zm7.1 6.3c.5.6 1.4 1.1 2.5 1.1c1.5 0 2-.8 2-1.4c0-1-1-1.2-2.1-1.5c-1.3-.4-2.8-.8-2.8-2.4c0-1.3 1.2-2.3 2.8-2.3c1.3 0 2.3.5 3 1.2l-.7.7c-.6-.6-1.4-.9-2.3-.9c-1 0-1.7.5-1.7 1.3c0 .8.9 1 2 1.3c1.3.4 2.8.8 2.8 2.5c0 1.2-.8 2.4-3 2.4c-1.4 0-2.5-.5-3.2-1.3l.7-.7zm10-6.3h5.4v.9h-4.4v2.6h4.3v.9h-4.3v3.8h-1v-8.2zm9.4 4.9h-1.7v3.3h-1v-8.2s3.3-.04 3.3 0c1.5 0 2.6.9 2.6 2.4c0 1.5-1 2.3-2.2 2.4c.05.04 2.3 3.4 2.3 3.4h-1.2l-2.1-3.3zm.5-4c-.02-.03-2.2 0-2.2 0v3.1s2.18.03 2.2 0c1 0 1.6-.6 1.6-1.6c0-.9-.6-1.5-1.6-1.5zm7.9-1.1c2.5 0 4.1 1.9 4.1 4.3c0 2.4-1.6 4.2-4.1 4.2c-2.4 0-4.1-1.8-4.1-4.2c0-2.4 1.7-4.3 4.1-4.3zm0 .9c-1.8 0-3 1.5-3 3.4c0 1.9 1.2 3.3 3 3.3c1.9 0 3.1-1.4 3.1-3.3c0-1.9-1.2-3.4-3.1-3.4zm12.6.6l-2.8 6.9h-.4l-2.8-6.9v6.9h-1v-8.2h1.5l2.5 6.2l2.6-6.2h1.5v8.2h-1.1V48zm6 5c.6.6 1.5 1.1 2.6 1.1c1.5 0 2-.8 2-1.4c0-1-1-1.2-2.1-1.5c-1.3-.4-2.8-.8-2.8-2.4c0-1.3 1.2-2.3 2.8-2.3c1.3 0 2.3.5 3 1.2l-.7.7c-.6-.6-1.4-.9-2.3-.9c-1 0-1.7.5-1.7 1.3c0 .8.9 1 2 1.3c1.3.4 2.8.8 2.8 2.5c0 1.2-.8 2.4-3 2.4c-1.4 0-2.5-.5-3.2-1.3l.6-.7zm7.1-6.3h1s-.02 4.98 0 5c0 1.5.8 2.4 2.3 2.4c1.5 0 2.3-.9 2.3-2.4c.05-.02 0-5 0-5h1.1s-.03 4.99 0 5c0 2-1.2 3.3-3.4 3.3c-2.2 0-3.3-1.3-3.3-3.3c-.05 0 0-5 0-5zm8.5 0s3.64-.04 3.6 0c1.5 0 2.4.8 2.4 2.1c0 1-.7 1.7-1.5 1.9c.9.1 1.6 1 1.6 2c0 1.3-.9 2.2-2.4 2.2h-3.7v-8.2zm3.5 3.5c.9 0 1.4-.5 1.4-1.3c0-.7-.5-1.3-1.4-1.3c-.03-.03-2.5 0-2.5 0v2.6s2.47.03 2.5 0zm0 3.8c1 0 1.6-.6 1.6-1.4c0-.8-.6-1.5-1.6-1.5c.02.04-2.5 0-2.5 0v2.9s2.52-.01 2.5 0zm3.8-.7c.4.5.9.8 1.6.8c1 0 1.6-.7 1.6-1.7c.04.01 0-5.7 0-5.7h1.1s-.04 5.72 0 5.7c0 1.8-1.2 2.6-2.7 2.6c-.8 0-1.5-.2-2.1-.9l.5-.8zm6.1-6.6h5.4v.9h-4.4v2.6h4.3v.9h-4.3v2.9h4.4v.9h-5.4v-8.2zm6.5 4.1c0-2.5 1.9-4.3 4.2-4.3c1.5 0 2.5.7 3.2 1.7l-.9.4c-.4-.7-1.3-1.2-2.3-1.2c-1.7 0-3.1 1.4-3.1 3.4c0 1.9 1.4 3.3 3.1 3.3c1 0 1.9-.5 2.3-1.2l.9.5c-.7 1-1.7 1.6-3.2 1.6c-2.3 0-4.2-1.7-4.2-4.2zm10.6-3.2H171v-.9h6.3v.9h-2.6v7.3h-1.1v-7.3zm8-.9s3.29-.04 3.3 0c1.6 0 2.6 1.1 2.6 2.4c0 1.4-1 2.5-2.6 2.5c-.01.03-2.3 0-2.3 0v3.3h-1v-8.2zm3.2.9c-.03-.03-2.2 0-2.2 0v3.1s2.17.01 2.2 0c.9 0 1.6-.6 1.6-1.6c0-.9-.7-1.5-1.6-1.5zm6.6 4h-1.7v3.3h-1v-8.2s3.32-.04 3.3 0c1.5 0 2.6.9 2.6 2.4c0 1.5-1 2.3-2.1 2.4c-.04.04 2.2 3.4 2.2 3.4h-1.2l-2.1-3.3zm.5-4c-.01-.03-2.2 0-2.2 0v3.1s2.19.03 2.2 0c1 0 1.6-.6 1.6-1.6c0-.9-.6-1.5-1.6-1.5zm7.9-1.1c2.5 0 4.1 1.9 4.1 4.3c0 2.4-1.6 4.2-4.1 4.2c-2.4 0-4-1.8-4-4.2c0-2.4 1.6-4.3 4-4.3zm0 .9c-1.8 0-3 1.5-3 3.4c0 1.9 1.2 3.3 3 3.3c1.9 0 3.1-1.4 3.1-3.3c0-1.9-1.2-3.4-3.1-3.4zm5.6-.7s3.33-.04 3.3 0c1.7 0 2.6 1.1 2.6 2.4c0 1.4-.9 2.5-2.6 2.5c.03.03-2.3 0-2.3 0v3.3h-1v-8.2zm3.2.9c.01-.03-2.2 0-2.2 0v3.1s2.21.01 2.2 0c1 0 1.7-.6 1.7-1.6c0-.9-.7-1.5-1.7-1.5zm3.9-.9h5.4v.9h-4.3v2.6h4.3v.9h-4.3v2.9h4.3v.9h-5.4v-8.2zm9.6 4.9h-1.6v3.3h-1v-8.2s3.26-.04 3.3 0c1.5 0 2.5.9 2.5 2.4c0 1.5-1 2.3-2.1 2.4c.01.04 2.2 3.4 2.2 3.4h-1.2l-2.1-3.3zm.5-4c.04-.03-2.1 0-2.1 0v3.1s2.14.03 2.1 0c1 0 1.7-.6 1.7-1.6c0-.9-.7-1.5-1.7-1.5zm6.2 0h-2.7v-.9h6.3v.9h-2.6v7.3h-1v-7.3zm7.2 3.8l-3.2-4.7h1.2l2.5 3.8l2.6-3.8h1.2l-3.2 4.7v3.5H236v-3.5z" stroke="none" fill="#888888"/></g><g id="Polygon106596"><path d="m34.7 25.2L33 27l-.9-1l2.8-2.9h1.4v10.6h-1.6v-8.5zm4.6 6.3c.6.6 1.2 1 2.2 1c2.1 0 2.9-2 2.9-3.8v-.4c-.5.7-1.6 1.6-2.9 1.6c-1.9 0-3.5-1.2-3.5-3.4c0-1.9 1.5-3.5 3.8-3.5c3.1 0 4.2 2.5 4.2 5.4c0 3-1.4 5.5-4.5 5.5c-1.3 0-2.3-.5-2.9-1.2l.7-1.2zm2.6-7.1c-1.5 0-2.3 1.1-2.3 2c0 1.4 1.1 2.1 2.3 2.1c1 0 2-.6 2.5-1.4c-.1-1.2-.8-2.7-2.5-2.7zm18.9.9l-3.4 8.4h-.7l-3.4-8.4v8.4h-1.6V23.1h2.3l3.1 7.6l3.1-7.6h2.2v10.6h-1.6v-8.4zm3.6-1.4c0-.5.4-1 .9-1c.5 0 .9.5.9 1c0 .5-.4.9-.9.9c-.5 0-.9-.4-.9-.9zm.2 2.2h1.4v7.6h-1.4v-7.6zm8.7 2.7c0-1.3-.6-1.7-1.6-1.7c-.9 0-1.7.6-2.1 1.1c-.04.04 0 5.5 0 5.5h-1.5v-7.6h1.5s-.04 1.03 0 1c.5-.6 1.5-1.2 2.7-1.2c1.6 0 2.4.8 2.4 2.4c.04.04 0 5.4 0 5.4h-1.4v-4.9zm7.5-5.7s3.8.03 3.8 0c3.3 0 5.5 2.3 5.5 5.3c0 3.1-2.2 5.3-5.5 5.3c0 .02-3.8 0-3.8 0V23.1zm3.8 9.2c2.5 0 3.9-1.7 3.9-3.9c0-2.1-1.4-3.9-3.9-3.9c0 .03-2.2 0-2.2 0v7.8s2.2.03 2.2 0zm7.2-6.2h1.5s-.04 1.13 0 1.1c.5-.7 1.5-1.3 2.5-1.3v1.4h-.5c-.7 0-1.7.5-2 1.1c-.04-.01 0 5.3 0 5.3h-1.5v-7.6zm5-2.2c0-.5.4-1 .9-1c.5 0 1 .5 1 1c0 .5-.5.9-1 .9c-.5 0-.9-.4-.9-.9zm.2 2.2h1.5v7.6H97v-7.6zm2.5 0h1.5l2.4 6l2.4-6h1.5l-3.1 7.6h-1.6l-3.1-7.6zm12.2-.2c2.3 0 3.7 1.8 3.7 4.1v.4s-6.05-.04-6.1 0c.2 1.3 1.1 2.3 2.7 2.3c.8 0 1.7-.3 2.2-.9l.7 1c-.8.7-1.9 1.1-3.1 1.1c-2.3 0-4-1.6-4-4c0-2.2 1.6-4 3.9-4zm-2.4 3.4h4.7c0-1-.7-2.3-2.3-2.3c-1.6 0-2.3 1.3-2.4 2.3z" stroke="none" fill="#282828"/></g><g id="Polygon106595"><path d="m2.9 4L1.2 5.8l-.9-.9L3.1 2h1.4v10.5H2.9V4zm4.5 6.7c.6 0 1 .5 1 1c0 .6-.4 1-1 1c-.5 0-1-.4-1-1c0-.5.5-1 1-1zM32.9 2s4.5-.05 4.5 0c2.2 0 3.4 1.4 3.4 3.2c0 1.8-1.2 3.3-3.4 3.3c0-.04-2.9 0-2.9 0v4h-1.6V2zm4.3 1.4c0-.05-2.7 0-2.7 0v3.7s2.7-.03 2.7 0c1.1 0 2-.8 2-1.9c0-1.1-.9-1.8-2-1.8zm9.4 8.3c-.6.7-1.4 1-2.5 1c-1.2 0-2.6-.8-2.6-2.5c0-1.8 1.3-2.5 2.6-2.5c1.1 0 2 .3 2.5 1V7.4c0-.9-.7-1.5-1.8-1.5c-.9 0-1.6.3-2.3 1l-.6-1c.8-.8 1.9-1.2 3.1-1.2c1.7 0 3.1.7 3.1 2.7c-.03-.03 0 5.1 0 5.1h-1.5s.05-.79 0-.8zm0-2.1c-.4-.6-1.1-.9-1.9-.9c-1.1 0-1.8.6-1.8 1.5c0 .9.7 1.5 1.8 1.5c.8 0 1.5-.3 1.9-.8V9.6zm3.9 1.2V6.1h-1.3V4.9h1.3V2.8h1.4v2.1h1.6v1.2h-1.6s.02 4.43 0 4.4c0 .6.3 1 .8 1c.3 0 .6-.2.7-.3l.4 1c-.3.3-.7.5-1.5.5c-1.2 0-1.8-.6-1.8-1.9zm4.4-5.9h1.4s.03 1.15 0 1.2c.6-.8 1.5-1.4 2.5-1.4v1.4h-.4c-.8 0-1.7.5-2.1 1.1c.03.01 0 5.3 0 5.3h-1.4V4.9zm5-2.2c0-.5.4-.9.9-.9c.5 0 .9.4.9.9c0 .5-.4.9-.9.9c-.5 0-.9-.4-.9-.9zm.2 2.2h1.4v7.6h-1.4V4.9zm3.1 3.8c0-2.2 1.5-4 3.9-4c2.4 0 3.8 1.8 3.8 4c0 2.2-1.4 4-3.8 4c-2.4 0-3.9-1.8-3.9-4zm6.2 0c0-1.4-.8-2.7-2.3-2.7c-1.6 0-2.4 1.3-2.4 2.7c0 1.5.8 2.8 2.4 2.8c1.5 0 2.3-1.3 2.3-2.8zm3.5 2.1c-.03.05 0-4.7 0-4.7h-1.3V4.9h1.3V2.8h1.4v2.1h1.6v1.2h-1.6v4.4c0 .6.3 1 .7 1c.4 0 .7-.2.8-.3l.4 1c-.3.3-.8.5-1.5.5c-1.2 0-1.8-.6-1.8-1.9zm4.4-.3c.5.6 1.5 1.1 2.6 1.1c1.1 0 1.6-.4 1.6-1.1c0-.8-.8-1-1.8-1.2c-1.3-.3-2.9-.7-2.9-2.3c0-1.3 1.1-2.3 3-2.3c1.3 0 2.2.5 2.9 1.1l-.7 1c-.4-.6-1.3-1-2.2-1c-1 0-1.6.4-1.6 1c0 .7.8.9 1.8 1.2c1.3.3 2.9.6 2.9 2.4c0 1.3-1.1 2.3-3.1 2.3c-1.3 0-2.4-.4-3.2-1.2l.7-1zM88.1 2s4.49-.05 4.5 0C94.8 2 96 3.4 96 5.2c0 1.8-1.3 3.3-3.4 3.3c-.01-.04-2.9 0-2.9 0v4h-1.6V2zm4.3 1.4c-.02-.05-2.7 0-2.7 0v3.7s2.68-.03 2.7 0c1.1 0 1.9-.8 1.9-1.9c0-1.1-.8-1.8-1.9-1.8zm4.3 5.3c0-2.2 1.5-4 3.9-4c2.4 0 3.9 1.8 3.9 4c0 2.2-1.5 4-3.9 4c-2.4 0-3.9-1.8-3.9-4zm6.3 0c0-1.4-.9-2.7-2.4-2.7c-1.5 0-2.4 1.3-2.4 2.7c0 1.5.9 2.8 2.4 2.8c1.5 0 2.4-1.3 2.4-2.8zm2.9-6c0-.5.4-.9.9-.9c.5 0 .9.4.9.9c0 .5-.4.9-.9.9c-.5 0-.9-.4-.9-.9zm.2 2.2h1.4v7.6h-1.4V4.9zm8.7 2.7c0-1.2-.6-1.6-1.6-1.6c-.9 0-1.7.5-2.1 1.1v5.4h-1.4V4.9h1.4s-.01 1.05 0 1.1c.5-.7 1.5-1.3 2.7-1.3c1.6 0 2.5.8 2.5 2.5c-.03-.04 0 5.3 0 5.3h-1.5s.04-4.86 0-4.9zm3.9 3.2c-.03.05 0-4.7 0-4.7h-1.3V4.9h1.3V2.8h1.4v2.1h1.6v1.2h-1.6s-.01 4.43 0 4.4c0 .6.2 1 .7 1c.4 0 .7-.2.8-.3l.4 1c-.3.3-.8.5-1.5.5c-1.2 0-1.8-.6-1.8-1.9zm9.5-6.4v8.1h-1.5V2h1.6l5.8 7.9V2h1.5v10.5h-1.5l-5.9-8.1zm14.3 7.3c-.6.7-1.4 1-2.5 1c-1.2 0-2.6-.8-2.6-2.5c0-1.8 1.3-2.5 2.6-2.5c1.1 0 1.9.3 2.5 1V7.4c0-.9-.7-1.5-1.8-1.5c-.9 0-1.7.3-2.3 1l-.7-1c.9-.8 1.9-1.2 3.2-1.2c1.6 0 3.1.7 3.1 2.7c-.04-.03 0 5.1 0 5.1h-1.5s.03-.79 0-.8zm0-2.1c-.4-.6-1.1-.9-1.9-.9c-1.1 0-1.8.6-1.8 1.5c0 .9.7 1.5 1.8 1.5c.8 0 1.5-.3 1.9-.8V9.6zm2.5-4.7h1.5l2.4 6l2.4-6h1.5l-3.1 7.6h-1.6L145 4.9zm13.6 6.8c-.6.7-1.5 1-2.6 1c-1.2 0-2.6-.8-2.6-2.5c0-1.8 1.4-2.5 2.6-2.5c1.1 0 2 .3 2.6 1V7.4c0-.9-.8-1.5-1.9-1.5c-.9 0-1.6.3-2.3 1l-.6-1c.8-.8 1.9-1.2 3.1-1.2c1.7 0 3.1.7 3.1 2.7v5.1h-1.4s-.04-.79 0-.8zm0-2.1c-.5-.6-1.2-.9-2-.9c-1 0-1.8.6-1.8 1.5c0 .9.8 1.5 1.8 1.5c.8 0 1.5-.3 2-.8V9.6zm3.5-7.6h1.4v10.5h-1.4V2zm15.8 10.5H176c-.3-.2-.7-.6-1.1-1c-.8.7-1.7 1.2-3 1.2c-1.9 0-3.3-1-3.3-2.9c0-1.7 1.1-2.5 2.3-3.2c-.5-.8-.8-1.6-.8-2.3c0-1.4 1.2-2.5 2.8-2.5c1.4 0 2.5.8 2.5 2.1c0 1.6-1.4 2.3-2.7 3c.4.5.8 1 1.1 1.4c.4.5.8.9 1.2 1.3c.5-.8.9-1.7 1.1-2.3l1.2.5c-.4.9-.9 1.8-1.5 2.7c.7.7 1.3 1.3 2.1 2zM172.1 6c1.1-.5 2-1 2-2c0-.7-.5-1.1-1.2-1.1c-.7 0-1.3.6-1.3 1.4c0 .5.2 1.1.5 1.7zm2 4.7c-.6-.6-1.1-1.2-1.4-1.6c-.4-.4-.8-1-1.2-1.6c-.8.5-1.4 1.2-1.4 2.1c0 1.3.9 2 2 2c.8 0 1.4-.4 2-.9zm17.8-6.6l-3.4 8.4h-.7l-3.4-8.4v8.4h-1.6V2h2.3l3.1 7.6l3-7.6h2.3v10.5h-1.6V4.1zm8.5 7.6c-.6.7-1.5 1-2.5 1c-1.3 0-2.7-.8-2.7-2.5c0-1.8 1.4-2.5 2.7-2.5c1 0 1.9.3 2.5 1V7.4c0-.9-.8-1.5-1.9-1.5c-.9 0-1.6.3-2.3 1l-.6-1c.9-.8 1.9-1.2 3.1-1.2c1.7 0 3.1.7 3.1 2.7c.02-.03 0 5.1 0 5.1h-1.4v-.8zm0-2.1c-.4-.6-1.2-.9-2-.9c-1 0-1.7.6-1.7 1.5c0 .9.7 1.5 1.7 1.5c.8 0 1.6-.3 2-.8V9.6zm3.6-4.7h1.4s-.02 1.15 0 1.2c.6-.8 1.5-1.4 2.5-1.4v1.4h-.5c-.7 0-1.7.5-2 1.1c-.02.01 0 5.3 0 5.3H204V4.9zm4.9-2.2c0-.5.5-.9 1-.9c.5 0 .9.4.9.9c0 .5-.4.9-.9.9c-.5 0-1-.4-1-.9zm.3 2.2h1.4v7.6h-1.4V4.9zm3.8 5.9V6.1h-1.3V4.9h1.3V2.8h1.4v2.1h1.6v1.2h-1.6s.02 4.43 0 4.4c0 .6.3 1 .8 1c.3 0 .6-.2.7-.3l.4 1c-.3.3-.7.5-1.5.5c-1.2 0-1.8-.6-1.8-1.9zm4.2-8.1c0-.5.4-.9.9-.9c.5 0 .9.4.9.9c0 .5-.4.9-.9.9c-.5 0-.9-.4-.9-.9zm.2 2.2h1.4v7.6h-1.4V4.9zm12.9 2.5c0-.9-.4-1.4-1.4-1.4c-.7 0-1.5.5-1.9 1.1c.03-.05 0 5.4 0 5.4h-1.4V7.4c0-.9-.4-1.4-1.3-1.4c-.8 0-1.5.5-1.9 1.1c-.02-.03 0 5.4 0 5.4h-1.5V4.9h1.5s-.02 1.05 0 1.1c.3-.5 1.3-1.3 2.5-1.3c1.1 0 1.8.6 2 1.4c.5-.7 1.5-1.4 2.6-1.4c1.4 0 2.2.8 2.2 2.3v5.5h-1.4s-.03-5.07 0-5.1zm6.9-2.7c2.3 0 3.7 1.8 3.7 4.1v.4s-6.06-.02-6.1 0c.2 1.3 1.1 2.4 2.6 2.4c.9 0 1.7-.4 2.3-.9l.7.9c-.8.7-1.9 1.1-3.1 1.1c-2.3 0-4-1.6-4-4c0-2.2 1.6-4 3.9-4zm-2.4 3.4h4.7c0-1-.7-2.2-2.3-2.2c-1.6 0-2.3 1.2-2.4 2.2zm20.4-4l-3.4 8.4h-.7l-3.4-8.4v8.4h-1.6V2h2.3l3.1 7.6l3-7.6h2.3v10.5h-1.6V4.1zm9 7.4c-.6.6-1.6 1.2-2.8 1.2c-1.6 0-2.4-.8-2.4-2.4c-.02-.01 0-5.4 0-5.4h1.4v4.9c0 1.3.6 1.7 1.6 1.7c.9 0 1.7-.5 2.2-1.1c-.04-.01 0-5.5 0-5.5h1.4v7.6h-1.4s-.04-1 0-1zm3.5-1c.5.6 1.6 1.1 2.6 1.1c1.1 0 1.6-.4 1.6-1.1c0-.8-.8-1-1.8-1.2c-1.3-.3-2.8-.7-2.8-2.3c0-1.3 1-2.3 2.9-2.3c1.3 0 2.2.5 2.9 1.1l-.6 1c-.5-.6-1.3-1-2.3-1c-1 0-1.6.4-1.6 1c0 .7.8.9 1.8 1.2c1.3.3 2.9.6 2.9 2.4c0 1.3-1.1 2.3-3.1 2.3c-1.3 0-2.4-.4-3.2-1.2l.7-1zm10.6-5.8c2.3 0 3.8 1.8 3.8 4.1c-.03.03 0 .4 0 .4c0 0-6.1-.02-6.1 0c.1 1.3 1.1 2.4 2.6 2.4c.8 0 1.7-.4 2.3-.9l.6.9c-.7.7-1.8 1.1-3 1.1c-2.3 0-4-1.6-4-4c0-2.2 1.6-4 3.8-4zM276 8.1h4.7c-.1-1-.7-2.2-2.4-2.2c-1.5 0-2.2 1.2-2.3 2.2zm12.9 3.4c-.6.6-1.6 1.2-2.7 1.2c-1.7 0-2.5-.8-2.5-2.4V4.9h1.4s.04 4.92 0 4.9c0 1.3.7 1.7 1.7 1.7c.8 0 1.7-.5 2.1-1.1V4.9h1.4v7.6h-1.4v-1zm12.9-4.1c0-.9-.4-1.4-1.4-1.4c-.8 0-1.5.5-1.9 1.1v5.4h-1.4s-.02-5.07 0-5.1c0-.9-.4-1.4-1.4-1.4c-.7 0-1.5.5-1.8 1.1c-.04-.03 0 5.4 0 5.4h-1.5V4.9h1.5s-.04 1.05 0 1.1c.3-.5 1.3-1.3 2.4-1.3c1.2 0 1.9.6 2.1 1.4c.5-.7 1.5-1.4 2.6-1.4c1.4 0 2.2.8 2.2 2.3c-.02 0 0 5.5 0 5.5h-1.4s-.05-5.07 0-5.1z" stroke="none" fill="#282828"/></g></svg>