<?xml version="1.0" standalone="no"?><!DOCTYPE svg PUBLIC "-//W3C//DTD SVG 1.1//EN" "http://www.w3.org/Graphics/SVG/1.1/DTD/svg11.dtd"><svg xmlns="http://www.w3.org/2000/svg" xmlns:xlink="http://www.w3.org/1999/xlink" version="1.1" width="194px" height="59.4px" viewBox="0 -13 194 59.4" style="top:-13px"><desc>Agent 1</desc><defs/><g id="Polygon40947"><path d="m9.6 22.6v2.5h-2v-2.5c-2.9-.2-5.1-1.3-6.5-2.9l1.6-2.2c1.1 1.2 2.8 2.3 4.9 2.5v-6.1c-2.9-.7-5.9-1.8-5.9-5.3c0-3 2.4-5.1 5.9-5.4V.6h2v2.6c2.3.3 4.2 1.2 5.6 2.6l-1.6 2.1c-1.1-1.1-2.5-1.8-4-2.1v5.6c2.9.7 6 1.8 6 5.6c0 2.7-1.7 5.2-6 5.6zm-2-11.8V5.7c-1.8.2-3 1.2-3 2.7c0 1.3 1.3 1.9 3 2.4zm5.2 6.4c0-1.6-1.4-2.2-3.2-2.8v5.6c2.3-.2 3.2-1.6 3.2-2.8z" stroke="none" fill="#282828"/><a xlink:href="DBF_Opportunity%20Price" xlink:show="new" xlink:title="&lt;&lt;Opportunity Price&gt;&gt;"><rect style="fill:transparent;" x="16" y="2" width="174" height="26"/></a></g><g id="Polygon40948"><path d="m16.6 11.9l12.5-6v2.1l-10.5 4.9l10.5 4.9v2l-12.5-6v-1.9zm13.9 0l12.4-6v2.1l-10.4 4.9l10.4 4.9v2l-12.4-6v-1.9zm23.8-8.7c5.6 0 9.5 4.1 9.5 9.7c0 5.6-3.9 9.7-9.5 9.7c-5.7 0-9.5-4.1-9.5-9.7c0-5.6 3.8-9.7 9.5-9.7zm0 2.5c-4.1 0-6.6 3.1-6.6 7.2c0 4.1 2.5 7.2 6.6 7.2c3.9 0 6.5-3.1 6.5-7.2c0-4.1-2.6-7.2-6.5-7.2zm12.5 21.8V8.7h2.6s-.03 1.92 0 1.9c1-1.3 2.6-2.3 4.4-2.3c3.6 0 6.1 2.7 6.1 7.2c0 4.4-2.5 7.1-6.1 7.1c-1.7 0-3.3-.8-4.4-2.3c-.03.03 0 7.2 0 7.2h-2.6zm6.4-16.9c-1.6 0-3.1.9-3.8 2v5.8c.7 1.1 2.2 2 3.8 2c2.5 0 4.1-2.1 4.1-4.9c0-2.9-1.6-4.9-4.1-4.9zm9.6 16.9V8.7h2.6s-.02 1.92 0 1.9c1-1.3 2.6-2.3 4.4-2.3c3.6 0 6.1 2.7 6.1 7.2c0 4.4-2.5 7.1-6.1 7.1c-1.7 0-3.3-.8-4.4-2.3c-.02.03 0 7.2 0 7.2h-2.6zm6.4-16.9c-1.6 0-3.1.9-3.8 2v5.8c.7 1.1 2.2 2 3.8 2c2.5 0 4.1-2.1 4.1-4.9c0-2.9-1.6-4.9-4.1-4.9zm8.8 4.9c0-4 2.7-7.2 6.9-7.2c4.3 0 6.9 3.2 6.9 7.2c0 3.9-2.6 7.1-6.9 7.1c-4.2 0-6.9-3.2-6.9-7.1zm11.1 0c0-2.6-1.5-4.9-4.2-4.9c-2.7 0-4.2 2.3-4.2 4.9c0 2.6 1.5 4.9 4.2 4.9c2.7 0 4.2-2.3 4.2-4.9zm5.6-6.8h2.6s-.04 2.06 0 2.1c1-1.4 2.6-2.4 4.4-2.4v2.5c-.2 0-.5-.1-.9-.1c-1.2 0-2.9 1-3.5 2c-.04.02 0 9.5 0 9.5h-2.6V8.7zm9.8 10.6v-8.4h-2.3V8.7h2.3V4.9h2.5v3.8h2.8v2.2H127s.03 7.82 0 7.8c0 1 .5 1.7 1.4 1.7c.5 0 1.1-.3 1.3-.6l.7 2c-.5.5-1.3.8-2.7.8c-2.1 0-3.2-1.2-3.2-3.3zm17 1.1c-1 1.2-2.7 2.2-4.8 2.2c-2.9 0-4.4-1.4-4.4-4.3c.04 0 0-9.6 0-9.6h2.6s-.02 8.75 0 8.7c0 2.3 1.1 3 2.9 3c1.5 0 3-.9 3.7-1.9c.04-.03 0-9.8 0-9.8h2.6v13.6h-2.6s.04-1.86 0-1.9zm15.5-6.8c0-2.3-1.1-3-2.9-3c-1.5 0-3 .9-3.7 2c-.02-.04 0 9.7 0 9.7h-2.6V8.7h2.6s-.02 1.89 0 1.9c.9-1.1 2.7-2.3 4.8-2.3c2.9 0 4.4 1.6 4.4 4.4v9.6H157s.04-8.72 0-8.7zm5.9-8.8c0-.9.8-1.7 1.7-1.7c.9 0 1.6.8 1.6 1.7c0 .9-.7 1.6-1.6 1.6c-.9 0-1.7-.7-1.7-1.6zm.4 3.9h2.6v13.6h-2.6V8.7zm6.8 10.6c.04-.02 0-8.4 0-8.4h-2.2V8.7h2.2V4.9h2.6v3.8h2.8v2.2h-2.8v7.8c0 1 .4 1.7 1.3 1.7c.6 0 1.1-.3 1.4-.6l.6 2c-.5.5-1.3.8-2.6.8c-2.2 0-3.3-1.2-3.3-3.3zm8.7 6.3c1 0 1.6-.3 2-1.3l.8-1.9L176 8.7h2.7l4.3 10.7l4.2-10.7h2.8s-6.75 16.2-6.8 16.2c-.8 2.1-2.3 2.9-4.3 2.9c-.4 0-1.2 0-1.6-.2l.4-2.2c.3.1.8.2 1.1.2z" stroke="none" fill="#282828"/></g></svg>