<?xml version="1.0" standalone="no"?><!DOCTYPE svg PUBLIC "-//W3C//DTD SVG 1.1//EN" "http://www.w3.org/Graphics/SVG/1.1/DTD/svg11.dtd"><svg xmlns="http://www.w3.org/2000/svg" xmlns:xlink="http://www.w3.org/1999/xlink" version="1.1" width="237px" height="46.9px" viewBox="0 -14 237 46.9" style="top:-14px"><desc/><defs/><g id="Polygon58116"><path d="m127.6 6.9l7-3.6v.8l-6.2 3.1l6.2 3.1v.8l-7-3.6v-.6zm7.9 0l7-3.6v.8l-6.2 3.1l6.2 3.1v.8l-7-3.6v-.6zm8.7-4.9h.9v9.7h5.2v.8h-6.1V2zM155 4.7c2.4 0 3.7 1.8 3.7 4.1c-.03-.05 0 .2 0 .2c0 0-6.45-.03-6.5 0c.1 1.6 1.2 3 3 3c1 0 1.9-.3 2.6-1l.4.5c-.8.8-1.7 1.2-3 1.2c-2.3 0-3.9-1.6-3.9-4c0-2.2 1.6-4 3.7-4zm-2.8 3.6h5.6c0-1.3-.8-2.9-2.8-2.9c-1.8 0-2.7 1.6-2.8 2.9zm13.5 3.3c-.7.8-1.6 1.1-2.6 1.1c-1.4 0-2.7-.9-2.7-2.5c0-1.7 1.3-2.5 2.7-2.5c1 0 1.9.3 2.6 1V7.2c0-1.1-.9-1.8-2.1-1.8c-.9 0-1.7.3-2.4 1.1l-.5-.5c.8-.9 1.7-1.3 3-1.3c1.6 0 2.8.7 2.8 2.4v5.4h-.8s-.03-.86 0-.9zm0-2.2c-.6-.7-1.4-1.1-2.3-1.1c-1.3 0-2.1.8-2.1 1.9c0 1.1.8 1.9 2.1 1.9c.9 0 1.7-.4 2.3-1.1V9.4zm3.2 1.5c.5.6 1.4 1.1 2.5 1.1c1.3 0 2-.6 2-1.5c0-1-1-1.3-2.1-1.5c-1.3-.4-2.7-.7-2.7-2.2c0-1.2 1-2.1 2.7-2.1c1.3 0 2.2.5 2.8 1.1l-.5.6c-.4-.6-1.3-1-2.3-1c-1.2 0-1.9.6-1.9 1.4c0 .8 1 1.1 2 1.3c1.4.4 2.8.7 2.8 2.4c0 1.2-.9 2.2-2.8 2.2c-1.3 0-2.2-.3-3-1.2l.5-.6zm10.7-6.2c2.4 0 3.6 1.8 3.6 4.1c.04-.05 0 .2 0 .2c0 0-6.38-.03-6.4 0c.1 1.6 1.2 3 3 3c1 0 1.9-.3 2.5-1l.5.5c-.8.8-1.8 1.2-3 1.2c-2.3 0-3.9-1.6-3.9-4c0-2.2 1.6-4 3.7-4zm-2.8 3.6h5.6c0-1.3-.9-2.9-2.8-2.9c-1.8 0-2.7 1.6-2.8 2.9zm15.4-5.5h-3.5v-.8h7.9v.8h-3.5v9.7h-.9V2.8zm5.3 12.1c.6 0 .9-.2 1.2-.9c.02-.02.6-1.4.6-1.4l-3.2-7.7h.9l2.8 6.7l2.8-6.7h.9s-3.97 9.33-4 9.3c-.4 1-1 1.5-1.9 1.5c-.3 0-.6-.1-.8-.2l.1-.7c.2.1.5.1.6.1zm7.4.6V4.9h.8s.02 1.2 0 1.2c.6-.8 1.5-1.4 2.7-1.4c2 0 3.4 1.5 3.4 4c0 2.5-1.4 4-3.4 4c-1.1 0-2.1-.5-2.7-1.4c.02.01 0 4.2 0 4.2h-.8zm3.4-10.1c-1.1 0-2.1.7-2.6 1.4v3.8c.5.7 1.5 1.4 2.6 1.4c1.7 0 2.6-1.4 2.6-3.3c0-1.9-.9-3.3-2.6-3.3zm8.9-.7c2.3 0 3.6 1.8 3.6 4.1c.03-.05 0 .2 0 .2c0 0-6.39-.03-6.4 0c.1 1.6 1.2 3 3 3c1 0 1.9-.3 2.5-1l.5.5c-.8.8-1.8 1.2-3 1.2c-2.3 0-3.9-1.6-3.9-4c0-2.2 1.6-4 3.7-4zm-2.8 3.6h5.6c0-1.3-.9-2.9-2.8-2.9c-1.8 0-2.7 1.6-2.8 2.9zm7.7 2l6.2-3.1l-6.2-3.1v-.8l7 3.6v.6l-7 3.6v-.8zm7.9 0l6.1-3.1l-6.1-3.1v-.8l7 3.6v.6l-7 3.6v-.8z" stroke="none" fill="#000"/><a xlink:href="DBF_Lease%20Type" xlink:show="new" xlink:title="&lt;&lt;Lease Type&gt;&gt;"><rect style="fill:transparent;" x="127" y="1" width="110" height="15"/></a></g></svg>