<?xml version="1.0" standalone="no"?><!DOCTYPE svg PUBLIC "-//W3C//DTD SVG 1.1//EN" "http://www.w3.org/Graphics/SVG/1.1/DTD/svg11.dtd"><svg xmlns="http://www.w3.org/2000/svg" version="1.1" width="291.2px" height="27.9px" viewBox="0 -6 291.2 27.9" style="top:-6px"><desc>12345 STREET ADDRESS, CITY, STATE ZIP</desc><defs/><g id="Polygon276082"><path d="m2.9 4L1.2 5.8l-.9-.9L3.1 2h1.4v10.5H2.9V4zm3.5 7.3c3.9-3.1 5.8-4.6 5.8-6.3c0-1.3-1.1-1.8-2.1-1.8c-1.3 0-2.2.5-2.9 1.3l-.9-1c.9-1.1 2.3-1.7 3.8-1.7c1.9 0 3.7 1.1 3.7 3.2c0 2.1-2 3.9-4.9 6.2c0-.05 4.9 0 4.9 0v1.3H6.4s-.03-1.21 0-1.2zm9.7-1.3c.6.8 1.7 1.3 2.9 1.3c1.5 0 2.4-.7 2.4-1.8c0-1.2-1-1.7-2.5-1.7c-.5 0-1 0-1.2.1V6.4h1.2c1.3 0 2.3-.4 2.3-1.5c0-1.1-1-1.7-2.3-1.7c-1.1 0-2 .4-2.7 1.2l-.9-1c.8-.9 2.1-1.6 3.8-1.6c2.1 0 3.7 1.1 3.7 2.8c0 1.5-1.3 2.3-2.3 2.5c1 .1 2.4.9 2.4 2.6c0 1.8-1.4 3-3.8 3c-1.9 0-3.2-.7-3.9-1.7l.9-1zm13 0h-5V8.7L28.5 2h2.2v6.6h1.4v1.4h-1.4v2.5h-1.6V10zm-3.5-1.4h3.5V3.4l-3.5 5.2zm8.8 1.4c.7.8 1.6 1.3 2.9 1.3c1.3 0 2.3-.9 2.3-2c0-1.3-.9-2.1-2.3-2.1c-.9 0-1.7.3-2.4.9c.01.03-1.1-.3-1.1-.3V2h6.7v1.4h-5.1s-.05 3.33 0 3.3c.5-.5 1.4-.9 2.4-.9c1.8 0 3.4 1.2 3.4 3.4c0 2.2-1.7 3.5-3.9 3.5c-1.8 0-3-.6-3.9-1.6l1-1.1zm12.7-.2c.7.8 1.9 1.5 3.4 1.5c1.7 0 2.3-.8 2.3-1.6c0-1.1-1.2-1.4-2.6-1.8c-1.7-.4-3.6-.9-3.6-3.1c0-1.7 1.5-3 3.7-3c1.6 0 2.9.5 3.9 1.5l-1 1.1c-.8-.8-1.9-1.2-3-1.2c-1.2 0-2 .6-2 1.5c0 1 1.1 1.3 2.4 1.6c1.8.4 3.8 1 3.8 3.2c0 1.7-1.1 3.2-4 3.2c-1.9 0-3.3-.6-4.2-1.6l.9-1.3zm11.4-6.4h-3.2V2h8.1v1.4h-3.3v9.1h-1.6V3.4zm10 5.1h-2v4h-1.6V2s4.46-.05 4.5 0c2 0 3.4 1.3 3.4 3.2c0 1.9-1.3 2.9-2.7 3.1c.02.01 2.7 4.2 2.7 4.2H71l-2.5-4zm.7-5.1c-.05-.05-2.7 0-2.7 0v3.7s2.65-.03 2.7 0c1.1 0 1.9-.8 1.9-1.9c0-1.1-.8-1.8-1.9-1.8zM74.6 2h7.1v1.4h-5.6v3h5.5v1.4h-5.5v3.4h5.6v1.3h-7.1V2zm8.9 0h7.1v1.4h-5.5v3h5.4v1.4h-5.4v3.4h5.5v1.3h-7.1V2zM95 3.4h-3.3V2h8.2v1.4h-3.3v9.1H95V3.4zm17 7h-5.2l-.8 2.1h-1.8L108.4 2h2l4.2 10.5h-1.7l-.9-2.1zm-4.7-1.5h4.3l-2.2-5.6l-2.1 5.6zm8.4-6.9s3.81-.05 3.8 0c3.3 0 5.5 2.2 5.5 5.3c0 3-2.2 5.2-5.5 5.2c.01.05-3.8 0-3.8 0V2zm3.8 9.2c2.5 0 3.9-1.8 3.9-3.9c0-2.2-1.4-3.9-3.9-3.9c.01-.05-2.2 0-2.2 0v7.8s2.21-.05 2.2 0zm7.3-9.2s3.75-.05 3.8 0c3.3 0 5.4 2.2 5.4 5.3c0 3-2.1 5.2-5.4 5.2c-.05.05-3.8 0-3.8 0V2zm3.8 9.2c2.4 0 3.8-1.8 3.8-3.9c0-2.2-1.4-3.9-3.8-3.9c-.05-.05-2.2 0-2.2 0v7.8s2.15-.05 2.2 0zm10.8-2.7h-2v4h-1.6V2s4.47-.05 4.5 0c2 0 3.4 1.3 3.4 3.2c0 1.9-1.3 2.9-2.7 3.1c.04.01 2.7 4.2 2.7 4.2h-1.8l-2.5-4zm.7-5.1c-.03-.05-2.7 0-2.7 0v3.7s2.67-.03 2.7 0c1.1 0 1.9-.8 1.9-1.9c0-1.1-.8-1.8-1.9-1.8zm5.4-1.4h7.1v1.4h-5.5v3h5.4v1.4h-5.4v3.4h5.5v1.3h-7.1V2zm9.2 7.8c.7.8 1.8 1.5 3.3 1.5c1.7 0 2.3-.8 2.3-1.6c0-1.1-1.2-1.4-2.5-1.8c-1.7-.4-3.7-.9-3.7-3.1c0-1.7 1.5-3 3.7-3c1.7 0 3 .5 3.9 1.5l-.9 1.1c-.8-.8-1.9-1.2-3.1-1.2c-1.2 0-2 .6-2 1.5c0 1 1.2 1.3 2.5 1.6c1.7.4 3.7 1 3.7 3.2c0 1.7-1.1 3.2-4 3.2c-1.9 0-3.2-.6-4.1-1.6l.9-1.3zm9.2 0c.7.8 1.8 1.5 3.3 1.5c1.7 0 2.3-.8 2.3-1.6c0-1.1-1.2-1.4-2.5-1.8c-1.7-.4-3.7-.9-3.7-3.1c0-1.7 1.5-3 3.7-3c1.7 0 3 .5 3.9 1.5l-.9 1.1c-.8-.8-1.9-1.2-3.1-1.2c-1.2 0-2 .6-2 1.5c0 1 1.2 1.3 2.5 1.6c1.7.4 3.7 1 3.7 3.2c0 1.7-1.1 3.2-4 3.2c-1.8 0-3.2-.6-4.1-1.6l.9-1.3zm8.7 4.3c.5-.4 1-1 1-1.5h-.2c-.5 0-.9-.4-.9-.9c0-.5.5-1 1-1c.6 0 1.1.5 1.1 1.4c0 1-.6 1.9-1.4 2.5l-.6-.5zm7.3-6.8c0-3.3 2.5-5.5 5.5-5.5c2.1 0 3.4 1 4.2 2.2l-1.4.7c-.5-.9-1.6-1.5-2.8-1.5c-2.2 0-3.8 1.7-3.8 4.1c0 2.3 1.6 4 3.8 4c1.2 0 2.3-.6 2.8-1.5l1.4.7c-.9 1.2-2.1 2.2-4.2 2.2c-3 0-5.5-2.2-5.5-5.4zM193 2h1.6v10.5H193V2zm6.4 1.4h-3.3V2h8.2v1.4H201v9.1h-1.6V3.4zm9.4 4.7L204.7 2h1.8l3.1 4.7l3.1-4.7h1.8l-4.1 6.1v4.4h-1.6V8.1zm5.1 6c.5-.4 1-1 1.1-1.5h-.2c-.5 0-.9-.4-.9-.9c0-.5.4-1 1-1c.6 0 1.1.5 1.1 1.4c0 1-.6 1.9-1.4 2.5l-.7-.5zm8.1-4.3c.7.8 1.9 1.5 3.4 1.5c1.7 0 2.3-.8 2.3-1.6c0-1.1-1.2-1.4-2.6-1.8c-1.7-.4-3.7-.9-3.7-3.1c0-1.7 1.6-3 3.8-3c1.6 0 2.9.5 3.9 1.5l-1 1.1c-.8-.8-1.9-1.2-3-1.2c-1.2 0-2 .6-2 1.5c0 1 1.1 1.3 2.4 1.6c1.8.4 3.8 1 3.8 3.2c0 1.7-1.2 3.2-4 3.2c-1.9 0-3.3-.6-4.2-1.6l.9-1.3zm11.4-6.4h-3.3V2h8.2v1.4H235v9.1h-1.6V3.4zm12 7h-5.2l-.8 2.1h-1.8L241.9 2h1.9l4.2 10.5h-1.7l-.9-2.1zm-4.7-1.5h4.3l-2.2-5.6l-2.1 5.6zm10-5.5h-3.3V2h8.2v1.4h-3.3v9.1h-1.6V3.4zm6.4-1.4h7.1v1.4h-5.6v3h5.5v1.4h-5.5v3.4h5.6v1.3h-7.1V2zm12.4 9.2l5.7-7.8h-5.7V2h7.7v1.3l-5.7 7.9h5.8v1.3h-7.8v-1.3zm9.6-9.2h1.6v10.5h-1.6V2zm3.8 0s4.46-.05 4.5 0c2.1 0 3.3 1.4 3.3 3.2c0 1.8-1.2 3.3-3.3 3.3c-.04-.04-2.9 0-2.9 0v4h-1.6V2zm4.2 1.4c.05-.05-2.6 0-2.6 0v3.7s2.65-.03 2.6 0c1.2 0 2-.8 2-1.9c0-1.1-.8-1.8-2-1.8z" stroke="none" fill="#3797ef"/></g></svg>