<?xml version="1.0" standalone="no"?><!DOCTYPE svg PUBLIC "-//W3C//DTD SVG 1.1//EN" "http://www.w3.org/Graphics/SVG/1.1/DTD/svg11.dtd"><svg xmlns="http://www.w3.org/2000/svg" version="1.1" width="194px" height="47.4px" viewBox="0 -10 194 47.4" style="top:-10px"><desc>Agent 1</desc><defs/><g id="Polygon86977"><path d="m9.6 22.6v2.5h-2v-2.5c-2.9-.2-5.1-1.3-6.5-2.9l1.6-2.2c1.1 1.2 2.8 2.3 4.9 2.5v-6.1c-2.9-.7-5.9-1.8-5.9-5.3c0-3 2.4-5.1 5.9-5.4V.6h2v2.6c2.3.3 4.2 1.2 5.6 2.6l-1.6 2.1c-1.1-1.1-2.5-1.8-4-2.1v5.6c2.9.7 6 1.8 6 5.6c0 2.7-1.7 5.2-6 5.6zm-2-11.8V5.7c-1.8.2-3 1.2-3 2.7c0 1.3 1.3 1.9 3 2.4zm5.2 6.4c0-1.6-1.4-2.2-3.2-2.8v5.6c2.3-.2 3.2-1.6 3.2-2.8zm7.2.6c1.3 1.5 3 2.3 5.2 2.3c2.4 0 4.1-1.6 4.1-3.6c0-2.3-1.7-3.7-4.1-3.7c-1.6 0-3 .5-4.2 1.7c-.02-.04-2.1-.7-2.1-.7V3.5h12v2.5h-9.1s-.03 5.97 0 6c.9-.9 2.5-1.7 4.3-1.7c3.2 0 6 2.2 6 6c0 3.9-2.9 6.3-6.9 6.3c-3.2 0-5.4-1.1-6.8-2.9l1.6-1.9zM34.8 25c.9-.6 1.7-1.7 1.9-2.6h-.4c-.9 0-1.6-.7-1.6-1.6c0-1 .8-1.7 1.8-1.7c1 0 1.9.8 1.9 2.3c0 1.9-1 3.6-2.5 4.6l-1.1-1zm6.3-4.9c7-5.4 10.3-8.3 10.3-11.2c0-2.2-1.9-3.2-3.7-3.2c-2.2 0-4 .9-5.1 2.3l-1.7-1.8c1.6-2 4.1-3 6.8-3c3.3 0 6.5 1.9 6.5 5.7c0 3.6-3.5 6.9-8.7 10.9c.04.02 8.8 0 8.8 0v2.5H41.1s-.05-2.22 0-2.2zM65.3 3.2c2.4 0 4.1.9 5.3 2.2l-1.4 2.1c-1-1.1-2.1-1.8-3.9-1.8c-3.4 0-5.2 3.3-5.2 6.8c0 .2 0 .4.1.6c.8-1.2 2.8-2.7 5.1-2.7c3.4 0 6.3 2 6.3 6c0 3.4-2.7 6.2-6.8 6.2c-5.4 0-7.5-4.5-7.5-9.7c0-5.2 2.6-9.7 8-9.7zm-.7 9.6c-1.7 0-3.4 1-4.4 2.5c.2 2.2 1.4 4.8 4.5 4.8c2.7 0 4-1.9 4-3.6c0-2.5-1.8-3.7-4.1-3.7zm11.5 5.5c1 1.1 2.1 1.8 4 1.8c3.6 0 5.1-3.4 5.1-6.8v-.6c-.9 1.2-2.9 2.8-5.2 2.8c-3.4 0-6.3-2.1-6.3-6.1c0-3.4 2.7-6.2 6.8-6.2c5.4 0 7.6 4.5 7.6 9.7c0 5.3-2.7 9.7-8 9.7c-2.4 0-4.1-.9-5.3-2.2l1.3-2.1zm4.6-12.6c-2.7 0-4.1 2-4.1 3.6c0 2.5 1.9 3.7 4.1 3.7c1.7 0 3.5-1 4.4-2.5c-.1-2.2-1.4-4.8-4.4-4.8zM89.9 25c.9-.6 1.8-1.7 1.9-2.6h-.4c-.9 0-1.5-.7-1.5-1.6c0-1 .7-1.7 1.7-1.7c1 0 2 .8 2 2.3c0 1.9-1.1 3.6-2.5 4.6l-1.2-1zm13.5-21.8c5.2 0 7.4 5 7.4 9.7c0 4.7-2.2 9.7-7.4 9.7c-5.2 0-7.4-5-7.4-9.7c0-4.7 2.2-9.7 7.4-9.7zm0 2.5c-3.3 0-4.5 3.5-4.5 7.2c0 3.7 1.2 7.2 4.5 7.2c3.3 0 4.5-3.5 4.5-7.2c0-3.7-1.2-7.2-4.5-7.2zm12 12.6c.9 1.1 2.1 1.8 3.9 1.8c3.6 0 5.2-3.4 5.2-6.8v-.6c-.9 1.2-2.9 2.8-5.2 2.8c-3.4 0-6.3-2.1-6.3-6.1c0-3.4 2.6-6.2 6.8-6.2c5.4 0 7.5 4.5 7.5 9.7c0 5.3-2.6 9.7-8 9.7c-2.4 0-4.1-.9-5.3-2.2l1.4-2.1zm4.5-12.6c-2.7 0-4 2-4 3.6c0 2.5 1.8 3.7 4.1 3.7c1.7 0 3.4-1 4.4-2.5c-.2-2.2-1.4-4.8-4.5-4.8zm13.7 1.5l-3.1 3.2l-1.7-1.8l5.1-5.1h2.5v18.8h-2.8V7.2z" stroke="none" fill="#282828"/></g></svg>