<?xml version="1.0" standalone="no"?>
<!DOCTYPE svg PUBLIC "-//W3C//DTD SVG 1.1//EN" "http://www.w3.org/Graphics/SVG/1.1/DTD/svg11.dtd">
<svg xmlns="http://www.w3.org/2000/svg" version="1.1" width="156px" height="26.9px" viewBox="0 -6 156 26.9" style="top:-6px">
  <desc>Lorem Ipsum</desc>
  <defs/>
  <g id="Polygon236203">
    <path d="M 35.7 2 L 36.6 2 L 36.6 11.7 L 41.7 11.7 L 41.7 12.5 L 35.7 12.5 L 35.7 2 Z M 42.7 8.7 C 42.7 6.5 44.1 4.7 46.3 4.7 C 48.6 4.7 50 6.5 50 8.7 C 50 10.9 48.6 12.7 46.3 12.7 C 44.1 12.7 42.7 10.9 42.7 8.7 Z M 49.1 8.7 C 49.1 7 48.1 5.4 46.3 5.4 C 44.6 5.4 43.5 7 43.5 8.7 C 43.5 10.4 44.6 12 46.3 12 C 48.1 12 49.1 10.4 49.1 8.7 Z M 52 4.9 L 52.8 4.9 C 52.8 4.9 52.83 6.19 52.8 6.2 C 53.5 5.3 54.4 4.7 55.4 4.7 C 55.4 4.7 55.4 5.6 55.4 5.6 C 55.3 5.6 55.2 5.6 55 5.6 C 54.2 5.6 53.2 6.3 52.8 7 C 52.83 6.96 52.8 12.5 52.8 12.5 L 52 12.5 L 52 4.9 Z M 60.1 4.7 C 62.5 4.7 63.8 6.5 63.8 8.8 C 63.76 8.75 63.8 9 63.8 9 C 63.8 9 57.34 8.97 57.3 9 C 57.4 10.6 58.5 12 60.3 12 C 61.3 12 62.2 11.7 62.9 11 C 62.9 11 63.3 11.5 63.3 11.5 C 62.5 12.3 61.6 12.7 60.3 12.7 C 58 12.7 56.4 11.1 56.4 8.7 C 56.4 6.5 58 4.7 60.1 4.7 Z M 57.3 8.3 C 57.3 8.3 62.9 8.3 62.9 8.3 C 62.9 7 62 5.4 60.1 5.4 C 58.3 5.4 57.4 7 57.3 8.3 Z M 74.9 7.2 C 74.9 6.1 74.4 5.4 73.3 5.4 C 72.5 5.4 71.6 6 71.1 6.7 C 71.13 6.73 71.1 12.5 71.1 12.5 L 70.3 12.5 C 70.3 12.5 70.29 7.18 70.3 7.2 C 70.3 6.1 69.8 5.4 68.7 5.4 C 67.9 5.4 67 6.1 66.6 6.7 C 66.55 6.75 66.6 12.5 66.6 12.5 L 65.7 12.5 L 65.7 4.9 L 66.6 4.9 C 66.6 4.9 66.55 6.03 66.6 6 C 66.9 5.5 67.9 4.7 69 4.7 C 70.2 4.7 70.9 5.4 71 6.1 C 71.5 5.4 72.5 4.7 73.6 4.7 C 75 4.7 75.7 5.5 75.7 7 C 75.68 7.02 75.7 12.5 75.7 12.5 L 74.9 12.5 C 74.9 12.5 74.86 7.18 74.9 7.2 Z M 82.1 2 L 83 2 L 83 12.5 L 82.1 12.5 L 82.1 2 Z M 85.4 15.5 L 85.4 4.9 L 86.3 4.9 C 86.3 4.9 86.26 6.1 86.3 6.1 C 86.8 5.3 87.8 4.7 88.9 4.7 C 91 4.7 92.4 6.2 92.4 8.7 C 92.4 11.2 91 12.7 88.9 12.7 C 87.9 12.7 86.9 12.2 86.3 11.3 C 86.26 11.31 86.3 15.5 86.3 15.5 L 85.4 15.5 Z M 88.8 5.4 C 87.7 5.4 86.7 6.1 86.3 6.8 C 86.3 6.8 86.3 10.6 86.3 10.6 C 86.7 11.3 87.7 12 88.8 12 C 90.5 12 91.5 10.6 91.5 8.7 C 91.5 6.8 90.5 5.4 88.8 5.4 Z M 94.2 10.9 C 94.6 11.5 95.5 12 96.6 12 C 97.9 12 98.7 11.4 98.7 10.5 C 98.7 9.5 97.6 9.2 96.5 9 C 95.3 8.6 93.8 8.3 93.8 6.8 C 93.8 5.6 94.8 4.7 96.6 4.7 C 97.9 4.7 98.8 5.2 99.3 5.8 C 99.3 5.8 98.9 6.4 98.9 6.4 C 98.4 5.8 97.6 5.4 96.6 5.4 C 95.4 5.4 94.6 6 94.6 6.8 C 94.6 7.6 95.6 7.9 96.7 8.1 C 98 8.5 99.5 8.8 99.5 10.5 C 99.5 11.7 98.5 12.7 96.6 12.7 C 95.4 12.7 94.4 12.4 93.7 11.5 C 93.7 11.5 94.2 10.9 94.2 10.9 Z M 106.6 11.4 C 106 12.1 105 12.7 103.9 12.7 C 102.3 12.7 101.5 12 101.5 10.3 C 101.46 10.28 101.5 4.9 101.5 4.9 L 102.3 4.9 C 102.3 4.9 102.29 10.09 102.3 10.1 C 102.3 11.6 103 12 104.1 12 C 105.1 12 106.1 11.4 106.6 10.7 C 106.64 10.72 106.6 4.9 106.6 4.9 L 107.5 4.9 L 107.5 12.5 L 106.6 12.5 C 106.6 12.5 106.64 11.42 106.6 11.4 Z M 119 7.2 C 119 6.1 118.6 5.4 117.5 5.4 C 116.6 5.4 115.7 6 115.3 6.7 C 115.28 6.73 115.3 12.5 115.3 12.5 L 114.4 12.5 C 114.4 12.5 114.44 7.18 114.4 7.2 C 114.4 6.1 114 5.4 112.9 5.4 C 112.1 5.4 111.2 6.1 110.7 6.7 C 110.7 6.75 110.7 12.5 110.7 12.5 L 109.9 12.5 L 109.9 4.9 L 110.7 4.9 C 110.7 4.9 110.7 6.03 110.7 6 C 111 5.5 112.1 4.7 113.2 4.7 C 114.4 4.7 115 5.4 115.2 6.1 C 115.6 5.4 116.7 4.7 117.7 4.7 C 119.2 4.7 119.8 5.5 119.8 7 C 119.84 7.02 119.8 12.5 119.8 12.5 L 119 12.5 C 119 12.5 119.01 7.18 119 7.2 Z " stroke="none" fill="#242423"/>
  </g>
</svg>