<?xml version="1.0" standalone="no"?><!DOCTYPE svg PUBLIC "-//W3C//DTD SVG 1.1//EN" "http://www.w3.org/Graphics/SVG/1.1/DTD/svg11.dtd"><svg xmlns="http://www.w3.org/2000/svg" version="1.1" width="149px" height="16.9px" viewBox="0 -4 149 16.9" style="top:-4px"><desc>SUBMIT LOI REQUEST MORE INFO</desc><defs/><g id="Polygon304418"><path d="m61.9 4.8h-1.1v2.3h-.9v-6s2.51.01 2.5 0c1.1 0 1.9.7 1.9 1.9c0 1-.7 1.6-1.5 1.7c.04.01 1.6 2.4 1.6 2.4h-1.1l-1.4-2.3zm.4-2.9h-1.5v2.1h1.5c.6 0 1.1-.4 1.1-1c0-.7-.5-1.1-1.1-1.1zm3.1-.8h4.1v.8h-3.2v1.8h3.1v.7h-3.1v1.9h3.2v.8h-4.1v-6zm10.2 5.2c-.02 0 .5.6.5.6l-.6.5s-.56-.59-.6-.6c-.4.3-.9.4-1.5.4c-1.8 0-3.1-1.3-3.1-3.1c0-1.8 1.3-3.1 3.1-3.1c1.8 0 3 1.3 3 3.1c0 .9-.3 1.7-.8 2.2zm-1.2-.1l-.8-.9l.6-.5s.79.84.8.8c.3-.4.5-.9.5-1.5c0-1.3-.9-2.3-2.1-2.3c-1.3 0-2.1 1-2.1 2.3c0 1.3.8 2.3 2.1 2.3c.3 0 .7-.1 1-.2zm3.1-5.1h.9s-.01 3.63 0 3.6c0 1.1.6 1.7 1.6 1.7c1.1 0 1.6-.6 1.6-1.7c.02.03 0-3.6 0-3.6h.9s.03 3.65 0 3.7c0 1.4-.8 2.4-2.5 2.4c-1.7 0-2.5-1-2.5-2.4c-.02-.04 0-3.7 0-3.7zm6.4 0h4v.8h-3.1v1.8h3v.7h-3v1.9h3.1v.8h-4v-6zm5.3 4.5c.4.4 1 .8 1.9.8c.9 0 1.3-.5 1.3-.9c0-.6-.7-.8-1.5-1c-.9-.3-2.1-.5-2.1-1.8c0-1 .9-1.7 2.2-1.7c.9 0 1.6.3 2.2.9l-.6.6c-.4-.5-1.1-.7-1.7-.7c-.7 0-1.1.4-1.1.9c0 .5.6.7 1.4.9c1 .2 2.1.5 2.1 1.8c0 .9-.7 1.8-2.3 1.8c-1 0-1.8-.4-2.3-.9l.5-.7zm6.5-3.7h-1.8v-.8h4.6v.8h-1.9v5.2h-.9V1.9zm11.2.4L105 7.1h-.4l-2-4.8v4.8h-.9v-6h1.3l1.8 4.3l1.7-4.3h1.3v6h-.9V2.3zm5-1.3c1.8 0 3 1.3 3 3.1c0 1.8-1.2 3.1-3 3.1c-1.8 0-3-1.3-3-3.1c0-1.8 1.2-3.1 3-3.1zm0 .8c-1.3 0-2.1 1-2.1 2.3c0 1.3.8 2.3 2.1 2.3c1.3 0 2.1-1 2.1-2.3c0-1.3-.8-2.3-2.1-2.3zm6.2 3h-1.2v2.3h-.9v-6h2.6c1.1 0 1.9.7 1.9 1.9c0 1-.7 1.6-1.5 1.7c-.01.01 1.5 2.4 1.5 2.4h-1l-1.4-2.3zm.3-2.9h-1.5v2.1h1.5c.7 0 1.2-.4 1.2-1c0-.7-.5-1.1-1.2-1.1zm3.2-.8h4v.8h-3.1v1.8h3.1v.7h-3.1v1.9h3.1v.8h-4v-6zm7.5 0h.9v6h-.9v-6zm3.1 1.4v4.6h-.9v-6h.9l3.3 4.5V1.1h.9v6h-.9l-3.3-4.6zm5.5-1.4h4.1v.8h-3.2v1.8h3.1v.7h-3.1v2.7h-.9v-6zm7.8-.1c1.8 0 3 1.3 3 3.1c0 1.8-1.2 3.1-3 3.1c-1.8 0-3-1.3-3-3.1c0-1.8 1.2-3.1 3-3.1zm0 .8c-1.3 0-2.1 1-2.1 2.3c0 1.3.8 2.3 2.1 2.3c1.3 0 2.1-1 2.1-2.3c0-1.3-.8-2.3-2.1-2.3z" stroke="none" fill="#3797ef"/></g><g id="Polygon304416"><path d="m.8 5.6c.4.4 1.1.8 1.9.8c1 0 1.3-.5 1.3-.9c0-.6-.7-.8-1.4-1C1.6 4.2.5 4 .5 2.7c0-1 .9-1.7 2.1-1.7c.9 0 1.7.3 2.2.9l-.5.6c-.5-.5-1.1-.7-1.8-.7c-.6 0-1.1.4-1.1.9c0 .5.7.7 1.4.9c1 .2 2.1.5 2.1 1.8c0 .9-.6 1.8-2.2 1.8c-1.1 0-1.9-.4-2.4-.9l.5-.7zM6 1.1h.9s-.02 3.63 0 3.6c0 1.1.6 1.7 1.6 1.7c1.1 0 1.6-.6 1.6-1.7c.02.03 0-3.6 0-3.6h.9s.02 3.65 0 3.7c0 1.4-.8 2.4-2.5 2.4c-1.7 0-2.5-1-2.5-2.4c-.02-.04 0-3.7 0-3.7zm6.4 0h2.8c1.1 0 1.7.7 1.7 1.5c0 .8-.5 1.3-1.1 1.4c.7.1 1.2.8 1.2 1.5c0 .9-.6 1.6-1.7 1.6h-2.9v-6zM15 3.7c.6 0 .9-.4.9-.9c0-.5-.3-.9-.9-.9h-1.7v1.8s1.71-.05 1.7 0zm.1 2.6c.6 0 1-.3 1-.9c0-.5-.4-1-1-1c-.04.05-1.8 0-1.8 0v1.9s1.76.02 1.8 0zm8.2-4l-2 4.8h-.3l-2-4.8v4.8h-.9v-6h1.3l1.7 4.3l1.8-4.3h1.3v6h-.9V2.3zm2.2-1.2h.9v6h-.9v-6zm3.7.8h-1.8v-.8h4.6v.8h-1.9v5.2h-.9V1.9zm6-.8h.9v5.2h2.8v.8h-3.7v-6zm7.1-.1c1.8 0 3 1.3 3 3.1c0 1.8-1.2 3.1-3 3.1c-1.8 0-3-1.3-3-3.1c0-1.8 1.2-3.1 3-3.1zm0 .8c-1.3 0-2.1 1-2.1 2.3c0 1.3.8 2.3 2.1 2.3c1.3 0 2.1-1 2.1-2.3c0-1.3-.8-2.3-2.1-2.3zm4.1-.7h.9v6h-.9v-6z" stroke="none" fill="#3797ef"/></g><g id="Rectangle304417"><path d="m53.3.9h.6v6.4h-.6V.9z" stroke="none" fill="#888888"/></g></svg>