<?xml version="1.0" standalone="no"?>
<!DOCTYPE svg PUBLIC "-//W3C//DTD SVG 1.1//EN" "http://www.w3.org/Graphics/SVG/1.1/DTD/svg11.dtd">
<svg xmlns="http://www.w3.org/2000/svg" version="1.1" width="62px" height="16.9px" viewBox="0 -4 62 16.9" style="top:-4px">
  <desc>City</desc>
  <defs/>
  <g id="Polygon266860">
    <path d="M 0.4 4.1 C 0.4 2.3 1.8 1 3.5 1 C 4.7 1 5.4 1.6 5.9 2.3 C 5.9 2.3 5.1 2.7 5.1 2.7 C 4.8 2.2 4.2 1.8 3.5 1.8 C 2.3 1.8 1.3 2.8 1.3 4.1 C 1.3 5.5 2.3 6.4 3.5 6.4 C 4.2 6.4 4.8 6 5.1 5.5 C 5.1 5.5 5.9 5.9 5.9 5.9 C 5.4 6.7 4.7 7.2 3.5 7.2 C 1.8 7.2 0.4 6 0.4 4.1 Z M 6.6 1.5 C 6.6 1.2 6.9 1 7.2 1 C 7.4 1 7.7 1.2 7.7 1.5 C 7.7 1.8 7.4 2 7.2 2 C 6.9 2 6.6 1.8 6.6 1.5 Z M 6.8 2.8 L 7.6 2.8 L 7.6 7.1 L 6.8 7.1 L 6.8 2.8 Z M 9 6.1 C 9.02 6.15 9 3.5 9 3.5 L 8.3 3.5 L 8.3 2.8 L 9 2.8 L 9 1.6 L 9.8 1.6 L 9.8 2.8 L 10.7 2.8 L 10.7 3.5 L 9.8 3.5 C 9.8 3.5 9.83 5.97 9.8 6 C 9.8 6.3 10 6.5 10.3 6.5 C 10.4 6.5 10.6 6.4 10.7 6.3 C 10.7 6.3 10.9 6.9 10.9 6.9 C 10.7 7.1 10.5 7.2 10.1 7.2 C 9.4 7.2 9 6.8 9 6.1 Z M 11.9 8.2 C 12.2 8.2 12.4 8.1 12.5 7.7 C 12.51 7.73 12.8 7.2 12.8 7.2 L 11 2.8 L 11.8 2.8 L 13.2 6.2 L 14.6 2.8 L 15.4 2.8 C 15.4 2.8 13.28 7.94 13.3 7.9 C 13 8.6 12.5 8.9 11.9 8.9 C 11.8 8.9 11.5 8.8 11.4 8.8 C 11.4 8.8 11.5 8.1 11.5 8.1 C 11.6 8.1 11.8 8.2 11.9 8.2 Z " stroke="none" fill="#000"/>
  </g>
</svg>