<?xml version="1.0" standalone="no"?><!DOCTYPE svg PUBLIC "-//W3C//DTD SVG 1.1//EN" "http://www.w3.org/Graphics/SVG/1.1/DTD/svg11.dtd"><svg xmlns="http://www.w3.org/2000/svg" version="1.1" width="113px" height="28.3px" viewBox="0 -6 113 28.3" style="top:-6px"><desc>2025 Projection</desc><defs/><g id="Polygon78479"><path d="m.8 11.3c4-3.1 5.8-4.6 5.8-6.3c0-1.3-1-1.8-2-1.8c-1.3 0-2.3.5-2.9 1.3l-1-1c.9-1.1 2.4-1.7 3.8-1.7c1.9 0 3.7 1.1 3.7 3.2c0 2.1-1.9 3.9-4.8 6.1c-.05.05 4.9 0 4.9 0v1.4H.8s.03-1.21 0-1.2zm13.5-9.5c2.9 0 4.1 2.8 4.1 5.5c0 2.6-1.2 5.4-4.1 5.4c-3 0-4.2-2.8-4.2-5.4c0-2.7 1.2-5.5 4.2-5.5zm0 1.4c-1.9 0-2.6 2-2.6 4.1c0 2 .7 4 2.6 4c1.8 0 2.5-2 2.5-4c0-2.1-.7-4.1-2.5-4.1zm5.7 8.1c3.9-3.1 5.8-4.6 5.8-6.3c0-1.3-1.1-1.8-2.1-1.8c-1.3 0-2.2.5-2.9 1.3l-.9-1c.9-1.1 2.3-1.7 3.8-1.7c1.9 0 3.7 1.1 3.7 3.2c0 2.1-2 3.9-4.9 6.1c-.01.05 4.9 0 4.9 0v1.4H20s-.04-1.21 0-1.2zM30.4 10c.7.8 1.7 1.3 2.9 1.3c1.4 0 2.3-.9 2.3-2c0-1.3-.9-2.1-2.3-2.1c-.9 0-1.6.3-2.3.9c-.03.03-1.2-.3-1.2-.3V2h6.7v1.3h-5.1s.01 3.43 0 3.4c.5-.5 1.4-.9 2.4-.9c1.8 0 3.4 1.2 3.4 3.4c0 2.2-1.6 3.5-3.9 3.5c-1.8 0-3-.6-3.8-1.6l.9-1.1zm12.8-8s4.5-.05 4.5 0c2.2 0 3.4 1.4 3.4 3.2c0 1.8-1.2 3.3-3.4 3.3c0-.04-2.9 0-2.9 0v4h-1.6V2zm4.3 1.3c0 .05-2.7 0-2.7 0v3.8s2.7-.03 2.7 0c1.1 0 2-.8 2-1.9c0-1.1-.9-1.9-2-1.9zm5.2 1.6h1.4s.02 1.15 0 1.1c.6-.7 1.5-1.3 2.5-1.3v1.4h-.5c-.7 0-1.6.5-2 1.1c.02.01 0 5.3 0 5.3h-1.4V4.9zm4.9 3.8c0-2.2 1.5-4 3.9-4c2.4 0 3.8 1.8 3.8 4c0 2.2-1.4 4-3.8 4c-2.4 0-3.9-1.8-3.9-4zm6.2 0c0-1.4-.8-2.7-2.3-2.7c-1.6 0-2.4 1.3-2.4 2.7c0 1.5.8 2.8 2.4 2.8c1.5 0 2.3-1.3 2.3-2.8zm3.1-6c0-.5.4-.9.9-.9c.5 0 1 .4 1 .9c0 .5-.5.9-1 .9c-.5 0-.9-.4-.9-.9zm1.7 10.4c0 1.6-.9 2.6-2.4 2.6c-.4 0-.6-.1-.9-.1l.2-1.2h.5c.6 0 1.1-.3 1.1-1.3c.04.05 0-8.2 0-8.2h1.5s-.03 8.25 0 8.2zm5.6-8.4c2.3 0 3.7 1.8 3.7 4.1c.04.03 0 .4 0 .4c0 0-6.03-.02-6 0c.1 1.3 1 2.4 2.6 2.4c.8 0 1.7-.4 2.2-.9l.7.9c-.7.7-1.8 1.1-3.1 1.1c-2.3 0-3.9-1.6-3.9-4c0-2.2 1.6-4 3.8-4zm-2.3 3.4h4.6c0-1-.7-2.2-2.3-2.2c-1.5 0-2.3 1.2-2.3 2.2zm11.3-3.4c1.4 0 2.3.6 2.8 1.3l-.9.9c-.5-.6-1.1-.9-1.9-.9c-1.5 0-2.5 1.1-2.5 2.7c0 1.6 1 2.8 2.5 2.8c.8 0 1.4-.4 1.9-1l.9.9c-.5.7-1.4 1.3-2.8 1.3c-2.4 0-3.9-1.7-3.9-4c0-2.3 1.5-4 3.9-4zm4.7 6.1V6.1h-1.3V4.9h1.3V2.8h1.4v2.1h1.6v1.2h-1.6s.02 4.43 0 4.4c0 .6.3 1 .8 1c.3 0 .6-.2.7-.3l.4 1c-.3.3-.7.5-1.5.5c-1.2 0-1.8-.6-1.8-1.9zm4.3-8.1c0-.5.5-.9 1-.9c.5 0 .9.4.9.9c0 .5-.4.9-.9.9c-.5 0-1-.4-1-.9zm.3 2.2h1.4v7.6h-1.4V4.9zm3.2 3.8c0-2.2 1.5-4 3.9-4c2.4 0 3.8 1.8 3.8 4c0 2.2-1.4 4-3.8 4c-2.4 0-3.9-1.8-3.9-4zm6.2 0c0-1.4-.8-2.7-2.3-2.7c-1.6 0-2.4 1.3-2.4 2.7c0 1.5.8 2.8 2.4 2.8c1.5 0 2.3-1.3 2.3-2.8zm8.5-1.1c0-1.2-.6-1.6-1.6-1.6c-.9 0-1.7.5-2.1 1.1c-.02-.03 0 5.4 0 5.4h-1.4V4.9h1.4s-.02 1.05 0 1.1c.5-.7 1.5-1.3 2.7-1.3c1.6 0 2.5.8 2.5 2.5c-.04-.04 0 5.3 0 5.3h-1.5s.03-4.86 0-4.9z" stroke="none" fill="#000"/></g></svg>