<?xml version="1.0" standalone="no"?><!DOCTYPE svg PUBLIC "-//W3C//DTD SVG 1.1//EN" "http://www.w3.org/Graphics/SVG/1.1/DTD/svg11.dtd"><svg xmlns="http://www.w3.org/2000/svg" version="1.1" width="237px" height="26.9px" viewBox="0 -6 237 26.9" style="top:-6px"><desc>SC</desc><defs/><g id="Polygon89068"><path d="m218.4 10.4c.7.8 1.8 1.5 3.3 1.5c2.2 0 2.8-1.2 2.8-2.1c0-1.5-1.4-1.9-2.9-2.3c-1.7-.5-3.5-.9-3.5-2.9c0-1.7 1.6-2.8 3.5-2.8c1.6 0 2.8.5 3.6 1.5l-.6.6c-.8-.9-1.8-1.3-3-1.3c-1.5 0-2.5.8-2.5 2c0 1.2 1.3 1.6 2.7 2c1.7.5 3.6 1 3.6 3.2c0 1.3-.9 2.9-3.7 2.9c-1.8 0-3.1-.7-3.9-1.6l.6-.7zm8.8-3.1c0-3.3 2.4-5.5 5.3-5.5c1.8 0 3 .7 3.9 1.9l-.7.4c-.7-.9-1.8-1.5-3.2-1.5c-2.4 0-4.3 1.9-4.3 4.7c0 2.7 1.9 4.6 4.3 4.6c1.4 0 2.5-.6 3.2-1.5l.7.4c-.9 1.2-2.1 1.9-3.9 1.9c-2.9 0-5.3-2.2-5.3-5.4z" stroke="none" fill="#000"/></g></svg>