<?xml version="1.0" standalone="no"?><!DOCTYPE svg PUBLIC "-//W3C//DTD SVG 1.1//EN" "http://www.w3.org/Graphics/SVG/1.1/DTD/svg11.dtd"><svg xmlns="http://www.w3.org/2000/svg" version="1.1" width="190px" height="27.3px" viewBox="0 -6 190 27.3" style="top:-6px"><desc>147,475</desc><defs/><g id="Polygon102358"><path d="m143.5 3.2L141.8 5l-.5-.6l2.3-2.4h.8v10.5h-.9V3.2zm7.8 6.5h-5v-.9L151 2h1.2v6.8h1.6v.9h-1.6v2.8h-.9V9.7zm-4.1-.9h4.1V2.9l-4.1 5.9zm13.5-6h-5.8v-.8h6.9v.6l-4.5 9.9h-1l4.4-9.7zm1 11.3c.5-.3.8-1 .9-1.5l-.2.1c-.4 0-.6-.3-.6-.7c0-.4.3-.7.6-.7c.5 0 .9.4.9 1c0 .9-.6 1.8-1.2 2.2l-.4-.4zm8.1-4.4h-5v-.9l4.7-6.8h1.2v6.8h1.5v.9h-1.5v2.8h-.9V9.7zm-4.1-.9h4.1V2.9l-4.1 5.9zm13.5-6h-5.9v-.8h6.9v.6l-4.5 9.9h-1l4.5-9.7zm3.4 7.6c.6 1 1.6 1.5 2.9 1.5c1.5 0 2.7-1.1 2.7-2.5c0-1.7-1.1-2.6-2.7-2.6c-.9 0-1.8.3-2.5 1c-.04 0-.7-.3-.7-.3V2h6.1v.8h-5.2v4.1c.5-.5 1.4-1 2.5-1c1.8 0 3.4 1.2 3.4 3.4c0 2.1-1.6 3.4-3.6 3.4c-1.7 0-2.8-.6-3.5-1.7l.6-.6z" stroke="none" fill="#000"/></g></svg>