<?xml version="1.0" standalone="no"?><!DOCTYPE svg PUBLIC "-//W3C//DTD SVG 1.1//EN" "http://www.w3.org/Graphics/SVG/1.1/DTD/svg11.dtd"><svg xmlns="http://www.w3.org/2000/svg" version="1.1" width="155.5px" height="26.9px" viewBox="0 -6 155.5 26.9" style="top:-6px"><desc>24</desc><defs/><g id="Polygon91764"><path d="m69.7 11.8c3.6-2.9 6-5 6-7c0-1.5-1.2-2.2-2.4-2.2c-1.3 0-2.3.6-2.9 1.4l-.6-.6c.7-1 2-1.6 3.5-1.6c1.6 0 3.4.9 3.4 3c0 2.3-2.5 4.4-5.6 6.9c.04.02 5.6 0 5.6 0v.8h-7s.02-.7 0-.7zm14-2.1h-5.1v-.9L83.3 2h1.3v6.8h1.5v.9h-1.5v2.8h-.9V9.7zm-4.1-.9h4.1V2.9l-4.1 5.9z" stroke="none" fill="#000"/></g></svg>