<?xml version="1.0" standalone="no"?><!DOCTYPE svg PUBLIC "-//W3C//DTD SVG 1.1//EN" "http://www.w3.org/Graphics/SVG/1.1/DTD/svg11.dtd"><svg xmlns="http://www.w3.org/2000/svg" version="1.1" width="257px" height="67.4px" viewBox="0 -10 257 67.4" style="top:-10px"><desc>00,000</desc><defs/><g id="Polygon287709"><path d="m8.7 3.2c5.2 0 7.3 5 7.3 9.7c0 4.7-2.1 9.7-7.3 9.7c-5.3 0-7.4-5-7.4-9.7c0-4.7 2.1-9.7 7.4-9.7zm0 2.5c-3.4 0-4.5 3.5-4.5 7.2c0 3.7 1.1 7.2 4.5 7.2c3.3 0 4.5-3.5 4.5-7.2c0-3.7-1.2-7.2-4.5-7.2zm17-2.5c5.2 0 7.4 5 7.4 9.7c0 4.7-2.2 9.7-7.4 9.7c-5.2 0-7.3-5-7.3-9.7c0-4.7 2.1-9.7 7.3-9.7zm0 2.5c-3.3 0-4.5 3.5-4.5 7.2c0 3.7 1.2 7.2 4.5 7.2c3.4 0 4.5-3.5 4.5-7.2c0-3.7-1.1-7.2-4.5-7.2zM34.9 25c.9-.6 1.8-1.7 1.9-2.6h-.4c-.9 0-1.5-.7-1.5-1.6c0-1 .8-1.7 1.7-1.7c1.1 0 2 .8 2 2.3c0 1.9-1 3.6-2.5 4.6l-1.2-1zM48.4 3.2c5.2 0 7.4 5 7.4 9.7c0 4.7-2.2 9.7-7.4 9.7c-5.2 0-7.3-5-7.3-9.7c0-4.7 2.1-9.7 7.3-9.7zm0 2.5c-3.3 0-4.5 3.5-4.5 7.2c0 3.7 1.2 7.2 4.5 7.2c3.4 0 4.5-3.5 4.5-7.2c0-3.7-1.1-7.2-4.5-7.2zm17.1-2.5c5.2 0 7.3 5 7.3 9.7c0 4.7-2.1 9.7-7.3 9.7c-5.2 0-7.4-5-7.4-9.7c0-4.7 2.2-9.7 7.4-9.7zm0 2.5c-3.4 0-4.5 3.5-4.5 7.2c0 3.7 1.1 7.2 4.5 7.2c3.3 0 4.5-3.5 4.5-7.2c0-3.7-1.2-7.2-4.5-7.2zm17-2.5c5.3 0 7.4 5 7.4 9.7c0 4.7-2.1 9.7-7.4 9.7c-5.2 0-7.3-5-7.3-9.7c0-4.7 2.1-9.7 7.3-9.7zm0 2.5c-3.3 0-4.5 3.5-4.5 7.2c0 3.7 1.2 7.2 4.5 7.2c3.4 0 4.5-3.5 4.5-7.2c0-3.7-1.1-7.2-4.5-7.2z" stroke="none" fill="#282828"/></g></svg>