<?xml version="1.0" standalone="no"?><!DOCTYPE svg PUBLIC "-//W3C//DTD SVG 1.1//EN" "http://www.w3.org/Graphics/SVG/1.1/DTD/svg11.dtd"><svg xmlns="http://www.w3.org/2000/svg" version="1.1" width="158.4px" height="28.3px" viewBox="0 -6 158.4 28.3" style="top:-6px"><desc>Submit LOI</desc><defs/><g id="Polygon304831"><path d="m42.2 9.8c.7.8 1.8 1.5 3.3 1.5c1.7 0 2.3-.9 2.3-1.6c0-1.1-1.2-1.4-2.5-1.8c-1.7-.4-3.7-.9-3.7-3.1c0-1.7 1.6-3 3.8-3c1.6 0 2.9.5 3.8 1.5l-.9 1.1c-.8-.8-1.9-1.2-3.1-1.2c-1.1 0-2 .6-2 1.5c0 1 1.2 1.3 2.5 1.6c1.7.4 3.8 1 3.8 3.2c0 1.7-1.2 3.2-4 3.2c-1.9 0-3.3-.6-4.2-1.6l.9-1.3zm14.2 1.7c-.5.6-1.5 1.2-2.7 1.2c-1.6 0-2.4-.8-2.4-2.4c-.03-.01 0-5.4 0-5.4h1.4v4.9c0 1.3.6 1.7 1.6 1.7c.9 0 1.7-.5 2.1-1.1c.05-.01 0-5.5 0-5.5h1.5v7.6h-1.5s.05-1 0-1zM60.1 2h1.5s-.03 3.99 0 4c.6-.8 1.5-1.3 2.5-1.3c2 0 3.4 1.6 3.4 4c0 2.5-1.4 4-3.4 4c-1 0-2-.5-2.5-1.2c-.03-.05 0 1 0 1h-1.5V2zm3.6 9.5c1.4 0 2.3-1.2 2.3-2.8c0-1.6-.9-2.7-2.3-2.7c-.9 0-1.7.5-2.1 1.1v3.3c.4.6 1.2 1.1 2.1 1.1zm14.9-4.1c0-.9-.4-1.4-1.3-1.4c-.8 0-1.5.5-1.9 1v5.5H74s-.02-5.07 0-5.1c0-.9-.4-1.4-1.4-1.4c-.7 0-1.5.5-1.8 1.1c-.05-.03 0 5.4 0 5.4h-1.5V4.9h1.5s-.05 1.05 0 1.1c.3-.5 1.3-1.3 2.4-1.3c1.2 0 1.9.6 2.1 1.4c.5-.7 1.5-1.4 2.6-1.4c1.4 0 2.2.8 2.2 2.3c-.03 0 0 5.5 0 5.5h-1.5s.05-5.07 0-5.1zm3.5-4.7c0-.5.5-.9.9-.9c.6 0 1 .4 1 .9c0 .5-.4.9-1 .9c-.4 0-.9-.4-.9-.9zm.2 2.2h1.5v7.6h-1.5V4.9zm4 5.9c.03.05 0-4.7 0-4.7h-1.2V4.9h1.2V2.8h1.5v2.1h1.5v1.2h-1.5s-.04 4.43 0 4.4c0 .6.2 1 .7 1c.3 0 .6-.2.8-.3l.3 1c-.3.3-.7.5-1.4.5c-1.2 0-1.9-.6-1.9-1.9zM95 2h1.6v9.1h4.8v1.4H95V2zm12.6-.2c3.1 0 5.3 2.3 5.3 5.5c0 3.1-2.2 5.4-5.3 5.4c-3.2 0-5.4-2.3-5.4-5.4c0-3.2 2.2-5.5 5.4-5.5zm0 1.4c-2.3 0-3.7 1.7-3.7 4.1c0 2.3 1.4 4 3.7 4c2.2 0 3.7-1.7 3.7-4c0-2.4-1.5-4.1-3.7-4.1zm7.2-1.2h1.6v10.5h-1.6V2z" stroke="none" fill="#ffffff"/></g></svg>