<?xml version="1.0" standalone="no"?>
<!DOCTYPE svg PUBLIC "-//W3C//DTD SVG 1.1//EN" "http://www.w3.org/Graphics/SVG/1.1/DTD/svg11.dtd">
<svg xmlns="http://www.w3.org/2000/svg" version="1.1" width="48px" height="37.9px" viewBox="0 -6 48 37.9" style="top:-6px">
  <desc>Agent 1</desc>
  <defs/>
  <g id="Polygon237045">
    <path d="M 2.7 23.7 L 1.6 23.7 L 1.6 26 L 0.7 26 L 0.7 20 C 0.7 20 3.2 20.04 3.2 20 C 4.3 20 5.1 20.8 5.1 21.9 C 5.1 23 4.4 23.5 3.6 23.6 C 3.63 23.64 5.2 26 5.2 26 L 4.1 26 L 2.7 23.7 Z M 3.1 20.8 C 3.08 20.83 1.6 20.8 1.6 20.8 L 1.6 22.9 C 1.6 22.9 3.08 22.94 3.1 22.9 C 3.7 22.9 4.2 22.5 4.2 21.9 C 4.2 21.3 3.7 20.8 3.1 20.8 Z M 7.8 21.6 C 9.1 21.6 9.9 22.6 9.9 23.9 C 9.87 23.93 9.9 24.1 9.9 24.1 C 9.9 24.1 6.43 24.13 6.4 24.1 C 6.5 24.9 7 25.5 7.9 25.5 C 8.4 25.5 8.9 25.3 9.2 25 C 9.2 25 9.6 25.5 9.6 25.5 C 9.1 25.9 8.5 26.1 7.8 26.1 C 6.5 26.1 5.6 25.2 5.6 23.9 C 5.6 22.6 6.5 21.6 7.8 21.6 Z M 6.4 23.5 C 6.4 23.5 9.1 23.5 9.1 23.5 C 9.1 23 8.7 22.3 7.8 22.3 C 6.9 22.3 6.5 23 6.4 23.5 Z M 13.7 23.3 C 13.7 22.5 13.4 22.3 12.8 22.3 C 12.3 22.3 11.8 22.6 11.6 22.9 C 11.61 22.93 11.6 26 11.6 26 L 10.8 26 L 10.8 21.7 L 11.6 21.7 C 11.6 21.7 11.61 22.3 11.6 22.3 C 11.9 22 12.5 21.6 13.1 21.6 C 14.1 21.6 14.5 22.1 14.5 23 C 14.54 22.99 14.5 26 14.5 26 L 13.7 26 C 13.7 26 13.73 23.26 13.7 23.3 Z M 15.9 25.1 C 15.9 25.08 15.9 22.4 15.9 22.4 L 15.2 22.4 L 15.2 21.7 L 15.9 21.7 L 15.9 20.5 L 16.7 20.5 L 16.7 21.7 L 17.6 21.7 L 17.6 22.4 L 16.7 22.4 C 16.7 22.4 16.71 24.9 16.7 24.9 C 16.7 25.2 16.9 25.4 17.1 25.4 C 17.3 25.4 17.5 25.3 17.6 25.3 C 17.6 25.3 17.8 25.9 17.8 25.9 C 17.6 26 17.4 26.1 16.9 26.1 C 16.3 26.1 15.9 25.8 15.9 25.1 Z M 22.1 19.9 L 22.7 19.9 L 20.6 26.2 L 20 26.2 L 22.1 19.9 Z M 25.7 24.5 C 26.1 25 26.7 25.3 27.6 25.3 C 28.6 25.3 28.9 24.9 28.9 24.4 C 28.9 23.8 28.2 23.6 27.4 23.4 C 26.5 23.2 25.4 22.9 25.4 21.7 C 25.4 20.7 26.2 19.9 27.5 19.9 C 28.4 19.9 29.2 20.2 29.7 20.8 C 29.7 20.8 29.2 21.4 29.2 21.4 C 28.7 21 28.1 20.7 27.4 20.7 C 26.8 20.7 26.3 21.1 26.3 21.6 C 26.3 22.1 26.9 22.3 27.7 22.5 C 28.7 22.8 29.8 23.1 29.8 24.3 C 29.8 25.3 29.2 26.1 27.5 26.1 C 26.5 26.1 25.7 25.8 25.2 25.2 C 25.2 25.2 25.7 24.5 25.7 24.5 Z M 30.8 20 L 34.8 20 L 34.8 20.8 L 31.7 20.8 L 31.7 22.6 L 34.7 22.6 L 34.7 23.4 L 31.7 23.4 L 31.7 26 L 30.8 26 L 30.8 20 Z " stroke="none" fill="#3797ef"/>
  </g>
  <g id="Polygon237044">
    <path d="M 6.1 10.2 C 6.1 10.2 6.1 11.8 6.1 11.8 C 6.1 13.3 5.4 13.9 4.2 14.1 C 4.19 14.1 4.2 15.3 4.2 15.3 L 2.5 15.3 C 2.5 15.3 2.54 14.12 2.5 14.1 C 1.3 13.9 0.6 13.3 0.6 11.8 C 0.58 11.83 0.6 9.9 0.6 9.9 L 2.4 9.9 C 2.4 9.9 2.4 11.58 2.4 11.6 C 2.4 12.3 2.8 12.6 3.4 12.6 C 3.9 12.6 4.3 12.3 4.3 11.6 C 4.3 11.6 4.3 10.7 4.3 10.7 C 4.3 10.1 4.1 9.8 3.6 9.5 C 3.6 9.5 2.3 8.8 2.3 8.8 C 1.2 8.2 0.6 7.7 0.6 6.5 C 0.6 6.5 0.6 5 0.6 5 C 0.6 3.6 1.4 3 2.5 2.8 C 2.54 2.78 2.5 1.6 2.5 1.6 L 4.2 1.6 C 4.2 1.6 4.19 2.78 4.2 2.8 C 5.3 3 6.1 3.7 6.1 5 C 6.11 5.02 6.1 6.8 6.1 6.8 L 4.3 6.8 C 4.3 6.8 4.29 5.27 4.3 5.3 C 4.3 4.6 3.9 4.3 3.3 4.3 C 2.8 4.3 2.4 4.6 2.4 5.3 C 2.4 5.3 2.4 6 2.4 6 C 2.4 6.6 2.6 6.9 3.1 7.2 C 3.1 7.2 4.4 7.9 4.4 7.9 C 5.5 8.5 6.1 9 6.1 10.2 Z M 12.8 5.1 C 12.8 5.1 12.8 11.8 12.8 11.8 C 12.8 13.5 11.8 14.2 10.1 14.2 C 10.1 14.2 10 14.2 10 14.2 C 8.3 14.2 7.3 13.5 7.3 11.8 C 7.3 11.8 7.3 5.1 7.3 5.1 C 7.3 3.4 8.3 2.7 10 2.7 C 10 2.7 10.1 2.7 10.1 2.7 C 11.8 2.7 12.8 3.4 12.8 5.1 Z M 10 4.3 C 9.4 4.3 9.1 4.6 9.1 5.4 C 9.1 5.4 9.1 11.5 9.1 11.5 C 9.1 12.3 9.4 12.5 10 12.5 C 10.6 12.5 11 12.3 11 11.5 C 11 11.5 11 5.4 11 5.4 C 11 4.6 10.6 4.3 10 4.3 Z M 19.6 5.1 C 19.6 5.1 19.6 11.8 19.6 11.8 C 19.6 13.5 18.6 14.2 16.9 14.2 C 16.9 14.2 16.8 14.2 16.8 14.2 C 15.1 14.2 14.1 13.5 14.1 11.8 C 14.1 11.8 14.1 5.1 14.1 5.1 C 14.1 3.4 15.1 2.7 16.8 2.7 C 16.8 2.7 16.9 2.7 16.9 2.7 C 18.6 2.7 19.6 3.4 19.6 5.1 Z M 16.8 4.3 C 16.2 4.3 15.9 4.6 15.9 5.4 C 15.9 5.4 15.9 11.5 15.9 11.5 C 15.9 12.3 16.2 12.5 16.8 12.5 C 17.4 12.5 17.8 12.3 17.8 11.5 C 17.8 11.5 17.8 5.4 17.8 5.4 C 17.8 4.6 17.4 4.3 16.8 4.3 Z M 26.4 5.1 C 26.4 5.1 26.4 11.8 26.4 11.8 C 26.4 13.5 25.4 14.2 23.7 14.2 C 23.7 14.2 23.6 14.2 23.6 14.2 C 21.9 14.2 20.9 13.5 20.9 11.8 C 20.9 11.8 20.9 5.1 20.9 5.1 C 20.9 3.4 21.9 2.7 23.6 2.7 C 23.6 2.7 23.7 2.7 23.7 2.7 C 25.4 2.7 26.4 3.4 26.4 5.1 Z M 23.6 4.3 C 23.1 4.3 22.7 4.6 22.7 5.4 C 22.7 5.4 22.7 11.5 22.7 11.5 C 22.7 12.3 23.1 12.5 23.6 12.5 C 24.2 12.5 24.6 12.3 24.6 11.5 C 24.6 11.5 24.6 5.4 24.6 5.4 C 24.6 4.6 24.2 4.3 23.6 4.3 Z " stroke="none" fill="#282828"/>
  </g>
</svg>