<?xml version="1.0" standalone="no"?>
<!DOCTYPE svg PUBLIC "-//W3C//DTD SVG 1.1//EN" "http://www.w3.org/Graphics/SVG/1.1/DTD/svg11.dtd">
<svg xmlns="http://www.w3.org/2000/svg" version="1.1" width="502px" height="27.9px" viewBox="0 -6 502 27.9" style="top:-6px">
  <desc>12345 STREET ADDRESS, CITY, STATE ZIP</desc>
  <defs/>
  <g id="Polygon263138">
    <path d="M 105.4 4 L 103.7 5.8 L 102.8 4.9 L 105.6 2 L 107 2 L 107 12.5 L 105.4 12.5 L 105.4 4 Z M 109 11.3 C 113 8.2 114.8 6.7 114.8 5 C 114.8 3.7 113.8 3.2 112.7 3.2 C 111.5 3.2 110.5 3.7 109.9 4.5 C 109.9 4.5 108.9 3.5 108.9 3.5 C 109.8 2.4 111.3 1.8 112.7 1.8 C 114.6 1.8 116.4 2.9 116.4 5 C 116.4 7.1 114.4 8.9 111.5 11.2 C 111.54 11.15 116.5 11.2 116.5 11.2 L 116.5 12.5 L 109 12.5 C 109 12.5 109.01 11.29 109 11.3 Z M 118.9 10 C 119.5 10.8 120.6 11.3 121.8 11.3 C 123.3 11.3 124.2 10.6 124.2 9.5 C 124.2 8.3 123.2 7.8 121.7 7.8 C 121.2 7.8 120.7 7.8 120.5 7.9 C 120.5 7.9 120.5 6.4 120.5 6.4 C 120.7 6.4 121.3 6.4 121.7 6.4 C 123 6.4 124 6 124 4.9 C 124 3.8 123 3.2 121.7 3.2 C 120.6 3.2 119.7 3.6 119 4.4 C 119 4.4 118.1 3.4 118.1 3.4 C 118.9 2.5 120.2 1.8 121.9 1.8 C 124 1.8 125.6 2.9 125.6 4.6 C 125.6 6.1 124.3 6.9 123.3 7.1 C 124.3 7.2 125.7 8 125.7 9.7 C 125.7 11.5 124.3 12.7 121.9 12.7 C 120 12.7 118.7 12 118 11 C 118 11 118.9 10 118.9 10 Z M 132.1 10 L 127 10 L 127 8.7 L 131.5 2 L 133.6 2 L 133.6 8.6 L 135.1 8.6 L 135.1 10 L 133.6 10 L 133.6 12.5 L 132.1 12.5 L 132.1 10 Z M 128.6 8.6 L 132.1 8.6 L 132.1 3.4 L 128.6 8.6 Z M 137.5 10 C 138.2 10.8 139.1 11.3 140.4 11.3 C 141.8 11.3 142.7 10.4 142.7 9.3 C 142.7 8 141.8 7.2 140.4 7.2 C 139.5 7.2 138.7 7.5 138 8.1 C 138.03 8.13 136.9 7.8 136.9 7.8 L 136.9 2 L 143.6 2 L 143.6 3.4 L 138.5 3.4 C 138.5 3.4 138.47 6.73 138.5 6.7 C 139 6.2 139.9 5.8 140.9 5.8 C 142.7 5.8 144.3 7 144.3 9.2 C 144.3 11.4 142.6 12.7 140.4 12.7 C 138.6 12.7 137.4 12.1 136.6 11.1 C 136.6 11.1 137.5 10 137.5 10 Z M 150.6 9.8 C 151.3 10.6 152.4 11.3 153.9 11.3 C 155.6 11.3 156.2 10.5 156.2 9.7 C 156.2 8.6 155 8.3 153.7 7.9 C 152 7.5 150 7 150 4.8 C 150 3.1 151.5 1.8 153.7 1.8 C 155.4 1.8 156.7 2.3 157.6 3.3 C 157.6 3.3 156.7 4.4 156.7 4.4 C 155.9 3.6 154.8 3.2 153.6 3.2 C 152.4 3.2 151.6 3.8 151.6 4.7 C 151.6 5.7 152.8 6 154.1 6.3 C 155.8 6.7 157.8 7.3 157.8 9.5 C 157.8 11.2 156.7 12.7 153.8 12.7 C 151.9 12.7 150.6 12.1 149.7 11.1 C 149.7 11.1 150.6 9.8 150.6 9.8 Z M 162.1 3.4 L 158.8 3.4 L 158.8 2 L 167 2 L 167 3.4 L 163.7 3.4 L 163.7 12.5 L 162.1 12.5 L 162.1 3.4 Z M 172.2 8.5 L 170.2 8.5 L 170.2 12.5 L 168.6 12.5 L 168.6 2 C 168.6 2 173.11 1.95 173.1 2 C 175.1 2 176.5 3.3 176.5 5.2 C 176.5 7.1 175.2 8.1 173.9 8.3 C 173.87 8.31 176.6 12.5 176.6 12.5 L 174.7 12.5 L 172.2 8.5 Z M 172.9 3.4 C 172.9 3.35 170.2 3.4 170.2 3.4 L 170.2 7.1 C 170.2 7.1 172.9 7.07 172.9 7.1 C 174 7.1 174.9 6.3 174.9 5.2 C 174.9 4.1 174 3.4 172.9 3.4 Z M 178.5 2 L 185.6 2 L 185.6 3.4 L 180.1 3.4 L 180.1 6.4 L 185.5 6.4 L 185.5 7.8 L 180.1 7.8 L 180.1 11.2 L 185.6 11.2 L 185.6 12.5 L 178.5 12.5 L 178.5 2 Z M 187.6 2 L 194.7 2 L 194.7 3.4 L 189.2 3.4 L 189.2 6.4 L 194.6 6.4 L 194.6 7.8 L 189.2 7.8 L 189.2 11.2 L 194.7 11.2 L 194.7 12.5 L 187.6 12.5 L 187.6 2 Z M 199.3 3.4 L 196 3.4 L 196 2 L 204.1 2 L 204.1 3.4 L 200.8 3.4 L 200.8 12.5 L 199.3 12.5 L 199.3 3.4 Z M 216.6 10.4 L 211.4 10.4 L 210.5 12.5 L 208.8 12.5 L 213 2 L 215 2 L 219.2 12.5 L 217.4 12.5 L 216.6 10.4 Z M 211.8 8.9 L 216.1 8.9 L 214 3.3 L 211.8 8.9 Z M 220.4 2 C 220.4 2 224.22 1.95 224.2 2 C 227.5 2 229.7 4.2 229.7 7.3 C 229.7 10.3 227.5 12.5 224.2 12.5 C 224.22 12.55 220.4 12.5 220.4 12.5 L 220.4 2 Z M 224.2 11.2 C 226.7 11.2 228.1 9.4 228.1 7.3 C 228.1 5.1 226.7 3.4 224.2 3.4 C 224.22 3.35 222 3.4 222 3.4 L 222 11.2 C 222 11.2 224.22 11.15 224.2 11.2 Z M 231.6 2 C 231.6 2 235.42 1.95 235.4 2 C 238.7 2 240.9 4.2 240.9 7.3 C 240.9 10.3 238.7 12.5 235.4 12.5 C 235.42 12.55 231.6 12.5 231.6 12.5 L 231.6 2 Z M 235.4 11.2 C 237.9 11.2 239.3 9.4 239.3 7.3 C 239.3 5.1 237.9 3.4 235.4 3.4 C 235.42 3.35 233.2 3.4 233.2 3.4 L 233.2 11.2 C 233.2 11.2 235.42 11.15 235.4 11.2 Z M 246.4 8.5 L 244.4 8.5 L 244.4 12.5 L 242.8 12.5 L 242.8 2 C 242.8 2 247.3 1.95 247.3 2 C 249.3 2 250.7 3.3 250.7 5.2 C 250.7 7.1 249.4 8.1 248.1 8.3 C 248.06 8.31 250.8 12.5 250.8 12.5 L 248.9 12.5 L 246.4 8.5 Z M 247.1 3.4 C 247.09 3.35 244.4 3.4 244.4 3.4 L 244.4 7.1 C 244.4 7.1 247.09 7.07 247.1 7.1 C 248.2 7.1 249.1 6.3 249.1 5.2 C 249.1 4.1 248.2 3.4 247.1 3.4 Z M 252.6 2 L 259.8 2 L 259.8 3.4 L 254.2 3.4 L 254.2 6.4 L 259.7 6.4 L 259.7 7.8 L 254.2 7.8 L 254.2 11.2 L 259.8 11.2 L 259.8 12.5 L 252.6 12.5 L 252.6 2 Z M 262 9.8 C 262.7 10.6 263.9 11.3 265.3 11.3 C 267.1 11.3 267.7 10.5 267.7 9.7 C 267.7 8.6 266.5 8.3 265.1 7.9 C 263.4 7.5 261.4 7 261.4 4.8 C 261.4 3.1 263 1.8 265.2 1.8 C 266.8 1.8 268.1 2.3 269 3.3 C 269 3.3 268.1 4.4 268.1 4.4 C 267.3 3.6 266.2 3.2 265.1 3.2 C 263.9 3.2 263.1 3.8 263.1 4.7 C 263.1 5.7 264.2 6 265.5 6.3 C 267.3 6.7 269.3 7.3 269.3 9.5 C 269.3 11.2 268.1 12.7 265.3 12.7 C 263.4 12.7 262 12.1 261.1 11.1 C 261.1 11.1 262 9.8 262 9.8 Z M 271.4 9.8 C 272.1 10.6 273.2 11.3 274.7 11.3 C 276.4 11.3 277 10.5 277 9.7 C 277 8.6 275.8 8.3 274.5 7.9 C 272.8 7.5 270.8 7 270.8 4.8 C 270.8 3.1 272.3 1.8 274.6 1.8 C 276.2 1.8 277.5 2.3 278.4 3.3 C 278.4 3.3 277.5 4.4 277.5 4.4 C 276.7 3.6 275.6 3.2 274.4 3.2 C 273.2 3.2 272.4 3.8 272.4 4.7 C 272.4 5.7 273.6 6 274.9 6.3 C 276.6 6.7 278.6 7.3 278.6 9.5 C 278.6 11.2 277.5 12.7 274.6 12.7 C 272.8 12.7 271.4 12.1 270.5 11.1 C 270.5 11.1 271.4 9.8 271.4 9.8 Z M 280.2 14.1 C 280.7 13.7 281.2 13.1 281.3 12.6 C 281.3 12.6 281.1 12.6 281.1 12.6 C 280.6 12.6 280.2 12.2 280.2 11.7 C 280.2 11.2 280.6 10.7 281.2 10.7 C 281.8 10.7 282.3 11.2 282.3 12.1 C 282.3 13.1 281.7 14 280.9 14.6 C 280.9 14.6 280.2 14.1 280.2 14.1 Z M 287.9 7.3 C 287.9 4 290.3 1.8 293.4 1.8 C 295.4 1.8 296.7 2.8 297.6 4 C 297.6 4 296.2 4.7 296.2 4.7 C 295.7 3.8 294.6 3.2 293.4 3.2 C 291.2 3.2 289.6 4.9 289.6 7.3 C 289.6 9.6 291.2 11.3 293.4 11.3 C 294.6 11.3 295.7 10.7 296.2 9.8 C 296.2 9.8 297.6 10.5 297.6 10.5 C 296.7 11.7 295.4 12.7 293.4 12.7 C 290.3 12.7 287.9 10.5 287.9 7.3 Z M 299.2 2 L 300.7 2 L 300.7 12.5 L 299.2 12.5 L 299.2 2 Z M 305.7 3.4 L 302.4 3.4 L 302.4 2 L 310.6 2 L 310.6 3.4 L 307.3 3.4 L 307.3 12.5 L 305.7 12.5 L 305.7 3.4 Z M 315.3 8.1 L 311.1 2 L 312.9 2 L 316.1 6.7 L 319.1 2 L 321 2 L 316.8 8.1 L 316.8 12.5 L 315.3 12.5 L 315.3 8.1 Z M 320.5 14.1 C 321.1 13.7 321.5 13.1 321.6 12.6 C 321.6 12.6 321.5 12.6 321.4 12.6 C 320.9 12.6 320.5 12.2 320.5 11.7 C 320.5 11.2 321 10.7 321.5 10.7 C 322.1 10.7 322.6 11.2 322.6 12.1 C 322.6 13.1 322 14 321.2 14.6 C 321.2 14.6 320.5 14.1 320.5 14.1 Z M 328.9 9.8 C 329.7 10.6 330.8 11.3 332.3 11.3 C 334 11.3 334.6 10.5 334.6 9.7 C 334.6 8.6 333.4 8.3 332 7.9 C 330.3 7.5 328.4 7 328.4 4.8 C 328.4 3.1 329.9 1.8 332.1 1.8 C 333.8 1.8 335 2.3 336 3.3 C 336 3.3 335.1 4.4 335.1 4.4 C 334.3 3.6 333.1 3.2 332 3.2 C 330.8 3.2 330 3.8 330 4.7 C 330 5.7 331.2 6 332.5 6.3 C 334.2 6.7 336.2 7.3 336.2 9.5 C 336.2 11.2 335.1 12.7 332.2 12.7 C 330.3 12.7 328.9 12.1 328 11.1 C 328 11.1 328.9 9.8 328.9 9.8 Z M 340.5 3.4 L 337.2 3.4 L 337.2 2 L 345.4 2 L 345.4 3.4 L 342.1 3.4 L 342.1 12.5 L 340.5 12.5 L 340.5 3.4 Z M 352.7 10.4 L 347.5 10.4 L 346.6 12.5 L 344.9 12.5 L 349.1 2 L 351.1 2 L 355.3 12.5 L 353.5 12.5 L 352.7 10.4 Z M 348 8.9 L 352.2 8.9 L 350.1 3.3 L 348 8.9 Z M 358.1 3.4 L 354.8 3.4 L 354.8 2 L 363 2 L 363 3.4 L 359.7 3.4 L 359.7 12.5 L 358.1 12.5 L 358.1 3.4 Z M 364.6 2 L 371.7 2 L 371.7 3.4 L 366.2 3.4 L 366.2 6.4 L 371.6 6.4 L 371.6 7.8 L 366.2 7.8 L 366.2 11.2 L 371.7 11.2 L 371.7 12.5 L 364.6 12.5 L 364.6 2 Z M 377.4 11.2 L 383.1 3.4 L 377.4 3.4 L 377.4 2 L 385.1 2 L 385.1 3.3 L 379.4 11.2 L 385.2 11.2 L 385.2 12.5 L 377.4 12.5 L 377.4 11.2 Z M 387.1 2 L 388.7 2 L 388.7 12.5 L 387.1 12.5 L 387.1 2 Z M 391.1 2 C 391.1 2 395.56 1.95 395.6 2 C 397.7 2 398.9 3.4 398.9 5.2 C 398.9 7 397.7 8.5 395.6 8.5 C 395.56 8.46 392.7 8.5 392.7 8.5 L 392.7 12.5 L 391.1 12.5 L 391.1 2 Z M 395.3 3.4 C 395.35 3.35 392.7 3.4 392.7 3.4 L 392.7 7.1 C 392.7 7.1 395.35 7.07 395.3 7.1 C 396.5 7.1 397.3 6.3 397.3 5.2 C 397.3 4.1 396.5 3.4 395.3 3.4 Z " stroke="none" fill="#88898a"/>
  </g>
</svg>