<?xml version="1.0" standalone="no"?><!DOCTYPE svg PUBLIC "-//W3C//DTD SVG 1.1//EN" "http://www.w3.org/Graphics/SVG/1.1/DTD/svg11.dtd"><svg xmlns="http://www.w3.org/2000/svg" xmlns:xlink="http://www.w3.org/1999/xlink" version="1.1" width="134.3px" height="27.9px" viewBox="0 -8 134.3 27.9" style="top:-8px"><desc/><defs/><g id="Polygon52431"><path d="m54.1 3.9l4-2v.4l-3.5 1.8l3.5 1.8v.4l-4-2v-.4zm4.5 0l3.9-2v.4l-3.4 1.8l3.4 1.8v.4l-3.9-2v-.4zm4.7.2c0-1.8 1.4-3.1 3-3.1c1 0 1.7.4 2.3 1.1l-.5.2c-.4-.5-1-.8-1.8-.8c-1.3 0-2.4 1-2.4 2.6c0 1.6 1.1 2.7 2.4 2.7c.8 0 1.4-.4 1.8-.9l.5.2c-.6.7-1.3 1.1-2.3 1.1c-1.6 0-3-1.2-3-3.1zm6 .8c0-1.2.8-2.2 2.1-2.2c1.3 0 2.1 1 2.1 2.2c0 1.3-.8 2.3-2.1 2.3c-1.3 0-2.1-1-2.1-2.3zm3.7 0c0-.9-.6-1.8-1.6-1.8c-1 0-1.6.9-1.6 1.8c0 1 .6 1.9 1.6 1.9c1 0 1.6-.9 1.6-1.9zm6.9-.8c0-.6-.3-1-.9-1c-.4 0-1 .3-1.2.7c-.02.02 0 3.3 0 3.3h-.5v-3c0-.6-.2-1-.9-1c-.4 0-1 .3-1.2.7c-.01.02 0 3.3 0 3.3h-.5V2.8h.5v.6c.2-.3.8-.7 1.4-.7c.7 0 1 .4 1.1.8c.3-.4.9-.8 1.5-.8c.8 0 1.2.4 1.2 1.3c-.04-.02 0 3.1 0 3.1h-.5v-3zm1.9 4.7v-6h.5v.7c.3-.5.9-.8 1.5-.8c1.2 0 1.9.8 1.9 2.2c0 1.4-.7 2.3-1.9 2.3c-.6 0-1.2-.3-1.5-.8v2.4h-.5zm1.9-5.7c-.6 0-1.2.3-1.4.8v2.1c.2.4.8.8 1.4.8c1 0 1.5-.8 1.5-1.9c0-1-.5-1.8-1.5-1.8zm6 3.5c-.4.4-.9.6-1.5.6c-.7 0-1.5-.5-1.5-1.4c0-1 .8-1.5 1.5-1.5c.6 0 1.1.2 1.5.6v-.8c0-.7-.5-1-1.2-1c-.5 0-.9.2-1.3.6l-.3-.3c.5-.5 1-.7 1.7-.7c.9 0 1.6.4 1.6 1.4c-.02-.05 0 3 0 3h-.5v-.5zm0-1.3c-.3-.4-.8-.6-1.3-.6c-.7 0-1.2.5-1.2 1.1c0 .6.5 1 1.2 1c.5 0 1-.1 1.3-.5v-1zm4.9-1.1c0-.9-.4-1.1-1.1-1.1c-.5 0-1.1.3-1.4.7c.01.02 0 3.3 0 3.3h-.5V2.8h.5v.6c.3-.4.9-.7 1.6-.7c.9 0 1.3.4 1.3 1.4c.04-.03 0 3 0 3h-.4s-.03-2.92 0-2.9zm2.1 4.3c.3 0 .5-.2.6-.6c.03.02.4-.8.4-.8l-1.9-4.3h.6l1.5 3.8l1.6-3.8h.5s-2.21 5.26-2.2 5.3c-.2.5-.6.8-1.1.8c-.2 0-.4-.1-.5-.1l.1-.4c.1 0 .3.1.4.1zm7-6.6v5.2h-.5v-6h.5l3.8 5.1V1.1h.5v6h-.5l-3.8-5.2zm8.5 4.7c-.4.4-.9.6-1.5.6c-.7 0-1.5-.5-1.5-1.4c0-1 .8-1.5 1.5-1.5c.6 0 1.1.2 1.5.6v-.8c0-.7-.5-1-1.2-1c-.5 0-.9.2-1.3.6l-.3-.3c.5-.5 1-.7 1.7-.7c.9 0 1.6.4 1.6 1.4c-.02-.05 0 3 0 3h-.5v-.5zm0-1.3c-.3-.4-.8-.6-1.3-.6c-.7 0-1.2.5-1.2 1.1c0 .6.5 1 1.2 1c.5 0 1-.1 1.3-.5v-1zm7.1-1.2c0-.6-.2-1-.9-1c-.4 0-1 .3-1.2.7v3.3h-.5s.02-3.03 0-3c0-.6-.2-1-.9-1c-.4 0-.9.3-1.2.7c.01.02 0 3.3 0 3.3h-.5V2.8h.5v.6c.2-.3.8-.7 1.4-.7c.7 0 1 .4 1.2.8c.2-.4.8-.8 1.4-.8c.8 0 1.2.4 1.2 1.3c-.02-.02 0 3.1 0 3.1h-.5v-3zm3.8-1.4c1.3 0 2 1 2 2.3c.04-.04 0 .1 0 .1c0 0-3.6-.02-3.6 0c0 .9.7 1.7 1.7 1.7c.6 0 1-.2 1.4-.6l.3.3c-.5.5-1 .7-1.7.7c-1.3 0-2.2-.9-2.2-2.3c0-1.2.9-2.2 2.1-2.2zm-1.6 2h3.2c0-.7-.5-1.6-1.6-1.6c-1.1 0-1.6.9-1.6 1.6zm4.4 1.2l3.4-1.8l-3.4-1.8v-.4l3.9 2v.4l-3.9 2v-.4zm4.4 0l3.5-1.8l-3.5-1.8v-.4l4 2v.4l-4 2v-.4z" stroke="none" fill="#000"/><a xlink:href="DBF_Company%20Name" xlink:show="new" xlink:title="&lt;&lt;Company Name&gt;&gt;"><rect style="fill:transparent;" x="53" y="0" width="81" height="9"/></a></g></svg>