<?xml version="1.0" standalone="no"?><!DOCTYPE svg PUBLIC "-//W3C//DTD SVG 1.1//EN" "http://www.w3.org/Graphics/SVG/1.1/DTD/svg11.dtd"><svg xmlns="http://www.w3.org/2000/svg" version="1.1" width="77px" height="16.9px" viewBox="0 -4 77 16.9" style="top:-4px"><desc>Annual Revenue</desc><defs/><g id="Polygon76318"><path d="m4.5 5.9h-3L1 7.1h-1l2.4-6h1.2l2.3 6h-1l-.4-1.2zm-2.7-.8h2.4L3 1.9l-1.2 3.2zm7.7-.8c0-.7-.4-.9-.9-.9c-.5 0-1 .3-1.2.6c-.04 0 0 3.1 0 3.1h-.8V2.8h.8s-.04.57 0 .6c.2-.4.8-.7 1.5-.7c.9 0 1.4.4 1.4 1.4v3h-.8V4.3zm4.9 0c0-.7-.3-.9-.9-.9c-.5 0-1 .3-1.2.6v3.1h-.8V2.8h.8v.6c.3-.4.9-.7 1.5-.7c1 0 1.4.4 1.4 1.4c.04-.04 0 3 0 3h-.8s.03-2.77 0-2.8zm5 2.2c-.4.4-.9.7-1.6.7c-.9 0-1.4-.4-1.4-1.4c.03.03 0-3 0-3h.8s.04 2.76 0 2.8c0 .7.4.9 1 .9c.5 0 .9-.3 1.2-.6c-.03-.01 0-3.1 0-3.1h.8v4.3h-.8s-.03-.58 0-.6zm4.7.1c-.4.4-.9.6-1.5.6c-.7 0-1.5-.5-1.5-1.4c0-1 .8-1.4 1.5-1.4c.6 0 1.1.1 1.5.5v-.7c0-.5-.5-.9-1.1-.9c-.5 0-.9.2-1.3.6l-.4-.5c.5-.5 1.1-.7 1.8-.7c1 0 1.8.4 1.8 1.5c-.03-.02 0 2.9 0 2.9h-.8s-.04-.47 0-.5zm0-1.2c-.3-.3-.7-.5-1.2-.5c-.5 0-1 .4-1 .9c0 .5.5.9 1 .9c.5 0 .9-.2 1.2-.5v-.8zm2-4.3h.8v6h-.8v-6zm6.3 3.7h-1.2v2.3h-.9v-6h2.6c1.1 0 1.9.7 1.9 1.9c0 1-.7 1.6-1.5 1.7c-.01.01 1.5 2.4 1.5 2.4h-1l-1.4-2.3zm.3-2.9h-1.5v2.1h1.5c.7 0 1.2-.4 1.2-1c0-.7-.5-1.1-1.2-1.1zm4.7.8c1.3 0 2.1 1 2.1 2.3c.04 0 0 .2 0 .2h-3.4c.1.7.6 1.4 1.5 1.4c.4 0 .9-.2 1.3-.6l.3.6c-.4.4-1 .6-1.7.6c-1.3 0-2.3-.9-2.3-2.3c0-1.2 1-2.2 2.2-2.2zm-1.3 1.9h2.6c0-.6-.4-1.3-1.3-1.3c-.9 0-1.3.7-1.3 1.3zm3.7-1.8h.9L42 6.2l1.4-3.4h.9l-1.8 4.3h-.9l-1.8-4.3zm7-.1c1.3 0 2.1 1 2.1 2.3c-.03 0 0 .2 0 .2h-3.5c.1.7.6 1.4 1.5 1.4c.5 0 1-.2 1.3-.6l.4.6c-.5.4-1.1.6-1.8.6c-1.3 0-2.2-.9-2.2-2.3c0-1.2.9-2.2 2.2-2.2zm-1.4 1.9h2.7c0-.6-.4-1.3-1.3-1.3c-.9 0-1.3.7-1.4 1.3zm7.3-.3c0-.7-.3-.9-.9-.9c-.5 0-1 .3-1.2.6v3.1h-.8V2.8h.8v.6c.3-.4.9-.7 1.5-.7c1 0 1.4.4 1.4 1.4c.04-.04 0 3 0 3h-.8s.03-2.77 0-2.8zm5 2.2c-.4.4-.9.7-1.6.7c-.9 0-1.4-.4-1.4-1.4c.04.03 0-3 0-3h.8s.05 2.76 0 2.8c0 .7.4.9 1 .9c.5 0 .9-.3 1.2-.6c-.03-.01 0-3.1 0-3.1h.8v4.3h-.8s-.03-.58 0-.6zm3.9-3.8c1.3 0 2.1 1 2.1 2.3v.2h-3.4c0 .7.6 1.4 1.4 1.4c.5 0 1-.2 1.3-.6l.4.6c-.4.4-1 .6-1.7.6c-1.3 0-2.3-.9-2.3-2.3c0-1.2.9-2.2 2.2-2.2zm-1.3 1.9h2.6c0-.6-.4-1.3-1.3-1.3c-.9 0-1.3.7-1.3 1.3z" stroke="none" fill="#3797ef"/></g></svg>