<?xml version="1.0" standalone="no"?>
<!DOCTYPE svg PUBLIC "-//W3C//DTD SVG 1.1//EN" "http://www.w3.org/Graphics/SVG/1.1/DTD/svg11.dtd">
<svg xmlns="http://www.w3.org/2000/svg" version="1.1" width="58.2px" height="16.9px" viewBox="0 -4 58.2 16.9" style="top:-4px">
  <desc>Agent 1</desc>
  <defs/>
  <g id="Polygon267951">
    <path d="M 0.7 1.1 C 0.7 1.1 3.2 1.11 3.2 1.1 C 4.4 1.1 5.1 2 5.1 3 C 5.1 4 4.4 4.8 3.2 4.8 C 3.2 4.8 1.6 4.8 1.6 4.8 L 1.6 7.1 L 0.7 7.1 L 0.7 1.1 Z M 3.1 1.9 C 3.08 1.9 1.6 1.9 1.6 1.9 L 1.6 4 C 1.6 4 3.08 4.01 3.1 4 C 3.7 4 4.2 3.6 4.2 3 C 4.2 2.3 3.7 1.9 3.1 1.9 Z M 8.9 6.5 C 8.5 6.9 8 7.2 7.3 7.2 C 6.4 7.2 5.9 6.8 5.9 5.8 C 5.93 5.83 5.9 2.8 5.9 2.8 L 6.7 2.8 C 6.7 2.8 6.74 5.56 6.7 5.6 C 6.7 6.3 7.1 6.5 7.7 6.5 C 8.2 6.5 8.6 6.2 8.9 5.9 C 8.87 5.89 8.9 2.8 8.9 2.8 L 9.7 2.8 L 9.7 7.1 L 8.9 7.1 C 8.9 7.1 8.87 6.52 8.9 6.5 Z M 10.9 2.8 L 11.7 2.8 C 11.7 2.8 11.68 3.43 11.7 3.4 C 12 3 12.5 2.7 13.1 2.7 C 13.1 2.7 13.1 3.5 13.1 3.5 C 13 3.5 12.9 3.5 12.8 3.5 C 12.4 3.5 11.9 3.8 11.7 4.1 C 11.68 4.09 11.7 7.1 11.7 7.1 L 10.9 7.1 L 10.9 2.8 Z M 15.8 2.7 C 16.6 2.7 17.1 3 17.4 3.4 C 17.4 3.4 16.9 3.9 16.9 3.9 C 16.6 3.5 16.2 3.4 15.8 3.4 C 14.9 3.4 14.4 4 14.4 4.9 C 14.4 5.8 14.9 6.5 15.8 6.5 C 16.2 6.5 16.6 6.3 16.9 6 C 16.9 6 17.4 6.5 17.4 6.5 C 17.1 6.9 16.6 7.2 15.8 7.2 C 14.5 7.2 13.6 6.2 13.6 4.9 C 13.6 3.6 14.5 2.7 15.8 2.7 Z M 21.1 4.3 C 21.1 3.6 20.8 3.4 20.2 3.4 C 19.7 3.4 19.2 3.7 19 4 C 19.01 4 19 7.1 19 7.1 L 18.2 7.1 L 18.2 1.1 L 19 1.1 C 19 1.1 19.01 3.37 19 3.4 C 19.3 3 19.9 2.7 20.5 2.7 C 21.5 2.7 21.9 3.1 21.9 4 C 21.94 4.04 21.9 7.1 21.9 7.1 L 21.1 7.1 C 21.1 7.1 21.13 4.31 21.1 4.3 Z M 25.8 6.6 C 25.5 7 25 7.2 24.4 7.2 C 23.7 7.2 22.9 6.7 22.9 5.8 C 22.9 4.8 23.7 4.4 24.4 4.4 C 25 4.4 25.5 4.5 25.8 4.9 C 25.8 4.9 25.8 4.2 25.8 4.2 C 25.8 3.7 25.4 3.3 24.8 3.3 C 24.3 3.3 23.8 3.5 23.5 3.9 C 23.5 3.9 23.1 3.4 23.1 3.4 C 23.6 2.9 24.2 2.7 24.9 2.7 C 25.8 2.7 26.6 3.1 26.6 4.2 C 26.64 4.18 26.6 7.1 26.6 7.1 L 25.8 7.1 C 25.8 7.1 25.83 6.63 25.8 6.6 Z M 25.8 5.4 C 25.6 5.1 25.2 4.9 24.7 4.9 C 24.1 4.9 23.7 5.3 23.7 5.8 C 23.7 6.3 24.1 6.7 24.7 6.7 C 25.2 6.7 25.6 6.5 25.8 6.2 C 25.8 6.2 25.8 5.4 25.8 5.4 Z M 27.9 5.9 C 28.2 6.3 28.7 6.6 29.3 6.6 C 29.9 6.6 30.2 6.3 30.2 5.9 C 30.2 5.5 29.8 5.4 29.2 5.2 C 28.5 5.1 27.6 4.9 27.6 3.9 C 27.6 3.2 28.2 2.7 29.2 2.7 C 30 2.7 30.5 2.9 30.9 3.3 C 30.9 3.3 30.5 3.8 30.5 3.8 C 30.3 3.5 29.8 3.3 29.3 3.3 C 28.7 3.3 28.4 3.5 28.4 3.9 C 28.4 4.3 28.8 4.4 29.4 4.5 C 30.1 4.7 31 4.9 31 5.9 C 31 6.6 30.4 7.2 29.3 7.2 C 28.5 7.2 27.9 7 27.5 6.5 C 27.5 6.5 27.9 5.9 27.9 5.9 Z M 33.9 2.7 C 35.2 2.7 36 3.7 36 5 C 35.99 5 36 5.2 36 5.2 C 36 5.2 32.55 5.2 32.6 5.2 C 32.6 5.9 33.2 6.6 34 6.6 C 34.5 6.6 35 6.4 35.3 6 C 35.3 6 35.7 6.6 35.7 6.6 C 35.3 7 34.6 7.2 33.9 7.2 C 32.7 7.2 31.7 6.3 31.7 4.9 C 31.7 3.7 32.6 2.7 33.9 2.7 Z M 32.5 4.6 C 32.5 4.6 35.2 4.6 35.2 4.6 C 35.2 4 34.8 3.3 33.9 3.3 C 33 3.3 32.6 4 32.5 4.6 Z M 39.2 1.1 C 39.2 1.1 41.7 1.11 41.7 1.1 C 42.9 1.1 43.6 2 43.6 3 C 43.6 4 42.9 4.8 41.7 4.8 C 41.7 4.8 40.1 4.8 40.1 4.8 L 40.1 7.1 L 39.2 7.1 L 39.2 1.1 Z M 41.6 1.9 C 41.58 1.9 40.1 1.9 40.1 1.9 L 40.1 4 C 40.1 4 41.58 4.01 41.6 4 C 42.2 4 42.7 3.6 42.7 3 C 42.7 2.3 42.2 1.9 41.6 1.9 Z M 44.4 2.8 L 45.2 2.8 C 45.2 2.8 45.24 3.43 45.2 3.4 C 45.6 3 46.1 2.7 46.7 2.7 C 46.7 2.7 46.7 3.5 46.7 3.5 C 46.6 3.5 46.5 3.5 46.4 3.5 C 46 3.5 45.4 3.8 45.2 4.1 C 45.24 4.09 45.2 7.1 45.2 7.1 L 44.4 7.1 L 44.4 2.8 Z M 47.3 1.5 C 47.3 1.2 47.5 1 47.8 1 C 48.1 1 48.3 1.2 48.3 1.5 C 48.3 1.8 48.1 2 47.8 2 C 47.5 2 47.3 1.8 47.3 1.5 Z M 47.4 2.8 L 48.2 2.8 L 48.2 7.1 L 47.4 7.1 L 47.4 2.8 Z M 51.3 2.7 C 52.2 2.7 52.6 3 53 3.4 C 53 3.4 52.4 3.9 52.4 3.9 C 52.2 3.5 51.8 3.4 51.4 3.4 C 50.5 3.4 50 4 50 4.9 C 50 5.8 50.5 6.5 51.4 6.5 C 51.8 6.5 52.2 6.3 52.4 6 C 52.4 6 53 6.5 53 6.5 C 52.6 6.9 52.2 7.2 51.3 7.2 C 50 7.2 49.1 6.2 49.1 4.9 C 49.1 3.6 50 2.7 51.3 2.7 Z M 55.7 2.7 C 57 2.7 57.8 3.7 57.8 5 C 57.79 5 57.8 5.2 57.8 5.2 C 57.8 5.2 54.35 5.2 54.3 5.2 C 54.4 5.9 55 6.6 55.8 6.6 C 56.3 6.6 56.8 6.4 57.1 6 C 57.1 6 57.5 6.6 57.5 6.6 C 57.1 7 56.4 7.2 55.7 7.2 C 54.4 7.2 53.5 6.3 53.5 4.9 C 53.5 3.7 54.4 2.7 55.7 2.7 Z M 54.3 4.6 C 54.3 4.6 57 4.6 57 4.6 C 57 4 56.6 3.3 55.7 3.3 C 54.8 3.3 54.4 4 54.3 4.6 Z " stroke="none" fill="#3797ef"/>
  </g>
</svg>