<?xml version="1.0" standalone="no"?><!DOCTYPE svg PUBLIC "-//W3C//DTD SVG 1.1//EN" "http://www.w3.org/Graphics/SVG/1.1/DTD/svg11.dtd"><svg xmlns="http://www.w3.org/2000/svg" version="1.1" width="310px" height="28.3px" viewBox="0 -6 310 28.3" style="top:-6px"><desc>ANNUAL REVENUE</desc><defs/><g id="Polygon282059"><path d="m7.9 10.4H2.7l-.9 2.1H.1L4.3 2h2l4.2 10.5H8.7l-.8-2.1zM3.1 8.9h4.3L5.3 3.3l-2.2 5.6zm10.1-4.5v8.1h-1.6V2h1.6L19 9.9V2h1.6v10.5H19l-5.8-8.1zm11.2 0v8.1h-1.6V2h1.6l5.8 7.9V2h1.6v10.5h-1.6l-5.8-8.1zM34 2h1.6s-.05 6.35 0 6.4c0 1.8 1 2.9 2.8 2.9c1.9 0 2.9-1.1 2.9-2.9c-.04-.05 0-6.4 0-6.4h1.6s-.04 6.39 0 6.4c0 2.6-1.5 4.3-4.5 4.3c-3 0-4.4-1.7-4.4-4.3c-.05 0 0-6.4 0-6.4zm17.3 8.4h-5.2l-.8 2.1h-1.8L47.7 2h2l4.2 10.5h-1.7l-.9-2.1zm-4.7-1.5h4.3l-2.2-5.6l-2.1 5.6zM55 2h1.6v9.1h4.8v1.4H55V2zm15.5 6.5h-1.9v4H67V2s4.43-.05 4.4 0c2 0 3.4 1.3 3.4 3.2c0 1.9-1.3 2.9-2.6 3.1l2.7 4.2h-1.8l-2.6-4zm.7-5.2c.02.05-2.6 0-2.6 0v3.8s2.62-.03 2.6 0c1.2 0 2-.8 2-1.9c0-1.1-.8-1.9-2-1.9zM76.6 2h7.1v1.3h-5.5v3.1h5.4v1.4h-5.4v3.3h5.5v1.4h-7.1V2zm7.9 0h1.8l3.4 8.8L93.1 2h1.8l-4.2 10.5h-2L84.5 2zM96 2h7.1v1.3h-5.5v3.1h5.4v1.4h-5.4v3.3h5.5v1.4H96V2zm10.5 2.4v8.1h-1.6V2h1.7l5.7 7.9V2h1.6v10.5h-1.5l-5.9-8.1zm9.6-2.4h1.6v6.4c0 1.8 1 2.9 2.9 2.9c1.8 0 2.8-1.1 2.8-2.9V2h1.6v6.4c0 2.6-1.5 4.3-4.4 4.3c-3 0-4.5-1.7-4.5-4.3V2zm11.1 0h7.1v1.3h-5.5v3.1h5.4v1.4h-5.4v3.3h5.5v1.4h-7.1V2z" stroke="none" fill="#3797ef"/></g></svg>