<?xml version="1.0" standalone="no"?>
<!DOCTYPE svg PUBLIC "-//W3C//DTD SVG 1.1//EN" "http://www.w3.org/Graphics/SVG/1.1/DTD/svg11.dtd">
<svg xmlns="http://www.w3.org/2000/svg" version="1.1" width="156px" height="27.9px" viewBox="0 -6 156 27.9" style="top:-6px">
  <desc>GLA</desc>
  <defs/>
  <g id="Polygon266007">
    <path d="M 68.9 1.8 C 70.9 1.8 72.2 2.7 73.1 3.9 C 73.1 3.9 71.8 4.6 71.8 4.6 C 71.2 3.8 70.2 3.2 68.9 3.2 C 66.7 3.2 65.1 4.9 65.1 7.3 C 65.1 9.6 66.7 11.3 68.9 11.3 C 70.1 11.3 71.1 10.8 71.6 10.3 C 71.62 10.29 71.6 8.4 71.6 8.4 L 68.2 8.4 L 68.2 7 L 73.2 7 C 73.2 7 73.21 10.88 73.2 10.9 C 72.2 12 70.7 12.8 68.9 12.8 C 65.9 12.8 63.4 10.6 63.4 7.3 C 63.4 4 65.9 1.8 68.9 1.8 Z M 75.2 2 L 76.8 2 L 76.8 11.2 L 81.6 11.2 L 81.6 12.5 L 75.2 12.5 L 75.2 2 Z M 90.1 10.4 L 84.9 10.4 L 84 12.5 L 82.3 12.5 L 86.5 2 L 88.5 2 L 92.7 12.5 L 90.9 12.5 L 90.1 10.4 Z M 85.4 8.9 L 89.6 8.9 L 87.5 3.3 L 85.4 8.9 Z " stroke="none" fill="#000"/>
  </g>
</svg>