<?xml version="1.0" standalone="no"?><!DOCTYPE svg PUBLIC "-//W3C//DTD SVG 1.1//EN" "http://www.w3.org/Graphics/SVG/1.1/DTD/svg11.dtd"><svg xmlns="http://www.w3.org/2000/svg" version="1.1" width="155px" height="73.2px" viewBox="0 -9 155 73.2" style="top:-9px"><desc>Agent 1</desc><defs/><g id="Polygon308257"><path d="m9.1 37.7c1.7.3 2.3 1.7 2.3 3.2v3.2c0 2.5-1.9 3.9-4.9 3.9c.02.03-5.1 0-5.1 0V28.3s5.18-.04 5.2 0c3 0 4.7 1.4 4.7 3.9v2.4c0 1.5-.6 3-2.2 3.1zm-4.4-1.3s1.82.02 1.8 0c1 0 1.5-.5 1.5-1.5v-2.3c0-1-.5-1.5-1.5-1.5c.02-.02-1.8 0-1.8 0v5.3zm1.9 2.8H4.7v6h1.9c1 0 1.6-.5 1.6-1.5v-3c0-1-.6-1.5-1.6-1.5zM21 48l-2.5-7.9h-1.6v7.9h-3.3V28.3s5.09-.04 5.1 0c3 0 5 1.1 5 4.1v3.6c0 1.9-.8 3-2.2 3.6l2.8 8.4H21zm-4.1-10.7s1.68.02 1.7 0c1.1 0 1.8-.4 1.8-1.8v-2.6c0-1.4-.7-1.8-1.8-1.8c-.02.04-1.7 0-1.7 0v6.2zM30.7 28h.3c2.9 0 4.9 1.2 4.9 4.2v11.9c0 3-2 4.2-4.9 4.2h-.3c-3 0-4.9-1.2-4.9-4.2V32.2c0-3 1.9-4.2 4.9-4.2zm.1 17.4c1.1 0 1.8-.4 1.8-1.8V32.7c0-1.4-.7-1.8-1.8-1.8c-1 0-1.8.4-1.8 1.8v10.9c0 1.4.8 1.8 1.8 1.8zm17.4-1.3c0 3-1.9 4.2-4.9 4.2h-.1c-3 0-5-1.1-5-4.2V32.2c0-2.9 2-4.2 5-4.2h.1c3 0 4.9 1.3 4.9 4.2c.03.01 0 3.6 0 3.6H45s-.04-3.08 0-3.1c0-1.4-.7-1.8-1.8-1.8c-1 0-1.7.4-1.7 1.8v10.9c0 1.3.7 1.8 1.7 1.8c1.1 0 1.8-.5 1.8-1.8c-.04-.03 0-3.6 0-3.6h3.2s.03 4.07 0 4.1zM58 48l-2.7-8.6l-1.5 2.9v5.7h-3.3V28.3h3.3v8.9l3.8-8.9h3.4l-3.8 7.4L61.3 48H58zm12.3-2.9h-1.9l-2.9-9.2V48h-3.1V28.3h3.1l3.8 11.5l3.9-11.5h3.2V48h-3.2V35.9l-2.9 9.2zm14.9-1.5h-3.6l-.7 4.4h-3.2l3.7-19.7h4.1L89.3 48h-3.4l-.7-4.4zm-.4-2.7l-1.4-8.8l-1.4 8.8h2.8zm5.8 7.1V28.3h3.3L98 40.5V28.3h3V48h-3.1l-4.3-12.8V48h-3z" stroke="none" fill="#282828"/></g><g id="Polygon308256"><path d="m9.1 11.7c1.7.3 2.3 1.7 2.3 3.2v3.2c0 2.5-1.9 3.9-4.9 3.9c.02.03-5.1 0-5.1 0V2.3s5.18-.04 5.2 0c3 0 4.7 1.4 4.7 3.9v2.4c0 1.5-.6 3-2.2 3.1zm-4.4-1.3s1.82.02 1.8 0c1 0 1.5-.5 1.5-1.5V6.6c0-1-.5-1.5-1.5-1.5c.02-.02-1.8 0-1.8 0v5.3zm1.9 2.8H4.7v6h1.9c1 0 1.6-.5 1.6-1.5v-3c0-1-.6-1.5-1.6-1.5zM21 22l-2.5-7.9h-1.6v7.9h-3.3V2.3s5.09-.04 5.1 0c3 0 5 1.1 5 4.1v3.6c0 1.9-.8 3-2.2 3.6l2.8 8.4H21zm-4.1-10.7s1.68.02 1.7 0c1.1 0 1.8-.4 1.8-1.8V6.9c0-1.4-.7-1.8-1.8-1.8c-.02.04-1.7 0-1.7 0v6.2zM26.1 22V2.3h3.3V22h-3.3zm12.3-4.4h-3.6l-.7 4.4h-3.2l3.7-19.7h4.1L42.4 22h-3.3l-.7-4.4zm-.4-2.7l-1.4-8.8l-1.4 8.8h2.8zm5.8 7.1V2.3h3.2l4.2 12.2V2.3h3V22h-3.1L46.8 9.2V22h-3z" stroke="none" fill="#282828"/></g></svg>