<?xml version="1.0" standalone="no"?><!DOCTYPE svg PUBLIC "-//W3C//DTD SVG 1.1//EN" "http://www.w3.org/Graphics/SVG/1.1/DTD/svg11.dtd"><svg xmlns="http://www.w3.org/2000/svg" version="1.1" width="100.3px" height="16.9px" viewBox="0 -4 100.3 16.9" style="top:-4px"><desc>Number of Employees</desc><defs/><g id="Polygon103255"><path d="m1.6 2.5v4.6h-.9v-6h.9l3.3 4.5V1.1h.9v6h-.9L1.6 2.5zm8.3 4c-.3.4-.9.7-1.5.7c-1 0-1.4-.4-1.4-1.4c-.02.03 0-3 0-3h.8v2.8c0 .7.4.9.9.9c.5 0 1-.3 1.2-.6c.02-.01 0-3.1 0-3.1h.8v4.3h-.8s.02-.58 0-.6zm7.3-2.3c0-.5-.2-.8-.7-.8c-.5 0-.9.3-1.1.6c-.03 0 0 3.1 0 3.1h-.8s-.04-2.89 0-2.9c0-.5-.3-.8-.8-.8c-.4 0-.8.3-1.1.6c.03 0 0 3.1 0 3.1h-.8V2.8h.8s.03.57 0 .6c.2-.3.8-.7 1.4-.7c.7 0 1.1.3 1.2.8c.3-.4.8-.8 1.5-.8c.8 0 1.2.4 1.2 1.3c.02-.03 0 3.1 0 3.1h-.8V4.2zm2-3.1h.8s.02 2.29 0 2.3c.4-.5.9-.7 1.4-.7c1.2 0 2 .8 2 2.2c0 1.5-.8 2.3-2 2.3c-.5 0-1.1-.3-1.4-.7c.02-.01 0 .6 0 .6h-.8v-6zm2 5.4c.8 0 1.3-.6 1.3-1.6c0-.9-.5-1.5-1.3-1.5c-.5 0-1 .3-1.2.6v1.9c.2.3.7.6 1.2.6zm5-3.8c1.3 0 2.1 1 2.1 2.3c.05 0 0 .2 0 .2h-3.4c.1.7.6 1.4 1.5 1.4c.4 0 1-.2 1.3-.6l.4.6c-.5.4-1.1.6-1.8.6c-1.3 0-2.2-.9-2.2-2.3c0-1.2.9-2.2 2.1-2.2zm-1.3 1.9h2.7c-.1-.6-.4-1.3-1.4-1.3c-.8 0-1.3.7-1.3 1.3zm4.4-1.8h.8v.6c.3-.4.8-.7 1.4-.7v.8h-.3c-.4 0-.9.3-1.1.6v3h-.8V2.8zm4.9 2.1c0-1.2.8-2.2 2.2-2.2c1.3 0 2.2 1 2.2 2.2c0 1.3-.9 2.3-2.2 2.3c-1.4 0-2.2-1-2.2-2.3zm3.5 0c0-.8-.4-1.5-1.3-1.5c-.9 0-1.4.7-1.4 1.5c0 .9.5 1.6 1.4 1.6c.9 0 1.3-.7 1.3-1.6zm2-1.4h-.7v-.7h.7s.02-.32 0-.3c0-1 .6-1.5 1.3-1.5c.3 0 .6.1.7.2l-.1.6c-.1-.1-.3-.1-.4-.1c-.4 0-.7.3-.7.8c.03-.02 0 .3 0 .3h.9v.7h-.9v3.6h-.8V3.5zm4.6-2.4h4.1v.8h-3.2v1.8h3.1v.7h-3.1v1.9h3.2v.8h-4.1v-6zm10.4 3.1c0-.5-.3-.8-.8-.8c-.4 0-.9.3-1.1.6c.04 0 0 3.1 0 3.1h-.8s.03-2.89 0-2.9c0-.5-.2-.8-.7-.8c-.5 0-.9.3-1.1.6v3.1h-.8V2.8h.8v.6c.2-.3.8-.7 1.4-.7c.7 0 1 .3 1.2.8c.2-.4.8-.8 1.5-.8c.8 0 1.2.4 1.2 1.3c-.02-.03 0 3.1 0 3.1h-.8s-.03-2.89 0-2.9zm2 4.6v-6h.8v.6c.3-.4.8-.7 1.4-.7c1.1 0 1.9.8 1.9 2.2c0 1.5-.8 2.3-1.9 2.3c-.6 0-1.1-.2-1.4-.7v2.3h-.8zm2-5.4c-.5 0-1 .3-1.2.6v1.9c.2.3.7.6 1.2.6c.8 0 1.3-.7 1.3-1.6c0-.9-.5-1.5-1.3-1.5zm3.1-2.3h.8v6h-.8v-6zm1.7 3.8c0-1.2.9-2.2 2.2-2.2c1.4 0 2.2 1 2.2 2.2c0 1.3-.8 2.3-2.2 2.3c-1.3 0-2.2-1-2.2-2.3zm3.6 0c0-.8-.5-1.5-1.4-1.5c-.8 0-1.3.7-1.3 1.5c0 .9.5 1.6 1.3 1.6c.9 0 1.4-.7 1.4-1.6zm2 3.3c.3 0 .5-.1.6-.5c.05.03.3-.5.3-.5l-1.8-4.4h.9l1.3 3.4l1.4-3.4h.9s-2.18 5.14-2.2 5.1c-.3.7-.7 1-1.4 1c-.1 0-.3-.1-.5-.1l.2-.7c.1 0 .2.1.3.1zm6-5.5c1.3 0 2.2 1 2.2 2.3c-.05 0 0 .2 0 .2h-3.5c.1.7.6 1.4 1.5 1.4c.5 0 1-.2 1.3-.6l.4.6c-.5.4-1.1.6-1.8.6c-1.3 0-2.2-.9-2.2-2.3c0-1.2.9-2.2 2.1-2.2zm-1.3 1.9h2.7c-.1-.6-.4-1.3-1.4-1.3c-.8 0-1.2.7-1.3 1.3zm6.3-1.9c1.3 0 2.1 1 2.1 2.3v.2h-3.4c0 .7.6 1.4 1.4 1.4c.5 0 1-.2 1.3-.6l.4.6c-.4.4-1 .6-1.7.6c-1.3 0-2.3-.9-2.3-2.3c0-1.2.9-2.2 2.2-2.2zm-1.3 1.9h2.6c0-.6-.4-1.3-1.3-1.3c-.9 0-1.3.7-1.3 1.3zm4.3 1.3c.3.4.9.7 1.5.7c.6 0 .9-.3.9-.7c0-.4-.5-.5-1-.7c-.8-.1-1.6-.3-1.6-1.3c0-.7.6-1.2 1.6-1.2c.8 0 1.3.2 1.7.6l-.4.5c-.2-.3-.7-.5-1.3-.5c-.5 0-.8.2-.8.6c0 .4.4.5 1 .6c.7.2 1.6.4 1.6 1.4c0 .7-.6 1.3-1.7 1.3c-.8 0-1.4-.2-1.8-.7l.3-.6z" stroke="none" fill="#3797ef"/></g></svg>