<?xml version="1.0" standalone="no"?>
<!DOCTYPE svg PUBLIC "-//W3C//DTD SVG 1.1//EN" "http://www.w3.org/Graphics/SVG/1.1/DTD/svg11.dtd">
<svg xmlns="http://www.w3.org/2000/svg" version="1.1" width="85px" height="65.9px" viewBox="0 -11 85 65.9" style="top:-11px">
  <desc>Agent 1</desc>
  <defs/>
  <g id="Polygon238193">
    <path d="M 1.2 35.4 C 1.2 35.4 5.64 35.36 5.6 35.4 C 7.8 35.4 9 36.9 9 38.6 C 9 40.4 7.8 41.9 5.6 41.9 C 5.64 41.87 2.8 41.9 2.8 41.9 L 2.8 46 L 1.2 46 L 1.2 35.4 Z M 5.4 36.8 C 5.43 36.76 2.8 36.8 2.8 36.8 L 2.8 40.5 C 2.8 40.5 5.43 40.47 5.4 40.5 C 6.6 40.5 7.4 39.7 7.4 38.6 C 7.4 37.5 6.6 36.8 5.4 36.8 Z M 10.5 38.3 L 11.9 38.3 C 11.9 38.3 11.89 39.46 11.9 39.5 C 12.5 38.7 13.4 38.1 14.4 38.1 C 14.4 38.1 14.4 39.6 14.4 39.6 C 14.3 39.5 14.1 39.5 13.9 39.5 C 13.2 39.5 12.2 40 11.9 40.6 C 11.89 40.62 11.9 46 11.9 46 L 10.5 46 L 10.5 38.3 Z M 15.5 36.1 C 15.5 35.6 15.9 35.2 16.4 35.2 C 16.9 35.2 17.3 35.6 17.3 36.1 C 17.3 36.6 16.9 37 16.4 37 C 15.9 37 15.5 36.6 15.5 36.1 Z M 15.7 38.3 L 17.1 38.3 L 17.1 46 L 15.7 46 L 15.7 38.3 Z M 22.6 38.1 C 24.1 38.1 25 38.7 25.5 39.4 C 25.5 39.4 24.6 40.3 24.6 40.3 C 24.1 39.7 23.5 39.4 22.7 39.4 C 21.2 39.4 20.2 40.5 20.2 42.1 C 20.2 43.7 21.2 44.9 22.7 44.9 C 23.5 44.9 24.1 44.6 24.6 43.9 C 24.6 43.9 25.5 44.8 25.5 44.8 C 25 45.5 24.1 46.1 22.6 46.1 C 20.3 46.1 18.7 44.4 18.7 42.1 C 18.7 39.8 20.3 38.1 22.6 38.1 Z M 30.3 38.1 C 32.6 38.1 34 39.9 34 42.2 C 34.03 42.24 34 42.6 34 42.6 C 34 42.6 27.97 42.58 28 42.6 C 28.1 43.9 29 45 30.6 45 C 31.4 45 32.3 44.7 32.8 44.1 C 32.8 44.1 33.5 45 33.5 45 C 32.7 45.7 31.7 46.1 30.4 46.1 C 28.1 46.1 26.5 44.5 26.5 42.1 C 26.5 39.9 28.1 38.1 30.3 38.1 Z M 28 41.6 C 28 41.6 32.6 41.6 32.6 41.6 C 32.6 40.5 31.9 39.3 30.3 39.3 C 28.8 39.3 28 40.5 28 41.6 Z M 42.2 35 L 43.3 35 L 39.6 46.3 L 38.5 46.3 L 42.2 35 Z M 48.5 43.2 C 49.2 44 50.4 44.7 51.9 44.7 C 53.6 44.7 54.2 43.9 54.2 43.1 C 54.2 42 53 41.7 51.6 41.3 C 49.9 40.9 48 40.4 48 38.2 C 48 36.5 49.5 35.2 51.7 35.2 C 53.3 35.2 54.6 35.7 55.6 36.7 C 55.6 36.7 54.7 37.9 54.7 37.9 C 53.8 37 52.7 36.6 51.6 36.6 C 50.4 36.6 49.6 37.2 49.6 38.1 C 49.6 39.1 50.7 39.4 52.1 39.7 C 53.8 40.2 55.8 40.7 55.8 43 C 55.8 44.6 54.7 46.1 51.8 46.1 C 49.9 46.1 48.5 45.5 47.6 44.5 C 47.6 44.5 48.5 43.2 48.5 43.2 Z M 57.5 35.4 L 64.6 35.4 L 64.6 36.8 L 59.1 36.8 L 59.1 39.9 L 64.5 39.9 L 64.5 41.3 L 59.1 41.3 L 59.1 46 L 57.5 46 L 57.5 35.4 Z " stroke="none" fill="#3797ef"/>
  </g>
  <g id="Polygon238192">
    <path d="M 10.8 18 C 10.8 18 10.8 20.9 10.8 20.9 C 10.8 23.4 9.5 24.6 7.4 24.9 C 7.4 24.89 7.4 27 7.4 27 L 4.5 27 C 4.5 27 4.49 24.92 4.5 24.9 C 2.3 24.6 1 23.4 1 20.9 C 1.02 20.88 1 17.4 1 17.4 L 4.2 17.4 C 4.2 17.4 4.24 20.43 4.2 20.4 C 4.2 21.6 4.9 22.2 5.9 22.2 C 6.9 22.2 7.6 21.6 7.6 20.4 C 7.6 20.4 7.6 18.9 7.6 18.9 C 7.6 17.9 7.3 17.4 6.3 16.8 C 6.3 16.8 4 15.5 4 15.5 C 2.1 14.4 1 13.5 1 11.4 C 1 11.4 1 8.9 1 8.9 C 1 6.4 2.5 5.2 4.5 4.9 C 4.49 4.9 4.5 2.8 4.5 2.8 L 7.4 2.8 C 7.4 2.8 7.4 4.9 7.4 4.9 C 9.4 5.3 10.8 6.5 10.8 8.9 C 10.79 8.85 10.8 12.1 10.8 12.1 L 7.6 12.1 C 7.6 12.1 7.57 9.3 7.6 9.3 C 7.6 8.1 6.9 7.6 5.9 7.6 C 4.9 7.6 4.2 8.1 4.2 9.3 C 4.2 9.3 4.2 10.7 4.2 10.7 C 4.2 11.7 4.6 12.1 5.5 12.7 C 5.5 12.7 7.8 14 7.8 14 C 9.7 15 10.8 15.9 10.8 18 Z M 22.5 9 C 22.5 9 22.5 20.8 22.5 20.8 C 22.5 23.8 20.8 25 17.8 25 C 17.8 25 17.6 25 17.6 25 C 14.6 25 12.8 23.8 12.8 20.8 C 12.8 20.8 12.8 9 12.8 9 C 12.8 6 14.6 4.8 17.6 4.8 C 17.6 4.8 17.8 4.8 17.8 4.8 C 20.8 4.8 22.5 6 22.5 9 Z M 17.7 7.7 C 16.6 7.7 16 8.1 16 9.5 C 16 9.5 16 20.3 16 20.3 C 16 21.7 16.6 22.1 17.7 22.1 C 18.7 22.1 19.4 21.7 19.4 20.3 C 19.4 20.3 19.4 9.5 19.4 9.5 C 19.4 8.1 18.7 7.7 17.7 7.7 Z M 27.9 23.9 C 27.9 25.7 27 27.4 26.1 28.5 C 26.1 28.5 24.8 27.9 24.8 27.9 C 25.5 27 26 25.7 26.2 24.8 C 26.17 24.78 24.7 24.8 24.7 24.8 L 24.7 21.1 L 27.9 21.1 C 27.9 21.1 27.9 23.93 27.9 23.9 Z M 39.8 9 C 39.8 9 39.8 20.8 39.8 20.8 C 39.8 23.8 38 25 35 25 C 35 25 34.8 25 34.8 25 C 31.8 25 30 23.8 30 20.8 C 30 20.8 30 9 30 9 C 30 6 31.8 4.8 34.8 4.8 C 34.8 4.8 35 4.8 35 4.8 C 38 4.8 39.8 6 39.8 9 Z M 34.9 7.7 C 33.9 7.7 33.2 8.1 33.2 9.5 C 33.2 9.5 33.2 20.3 33.2 20.3 C 33.2 21.7 33.9 22.1 34.9 22.1 C 35.9 22.1 36.6 21.7 36.6 20.3 C 36.6 20.3 36.6 9.5 36.6 9.5 C 36.6 8.1 35.9 7.7 34.9 7.7 Z M 51.8 9 C 51.8 9 51.8 20.8 51.8 20.8 C 51.8 23.8 50 25 47 25 C 47 25 46.8 25 46.8 25 C 43.8 25 42.1 23.8 42.1 20.8 C 42.1 20.8 42.1 9 42.1 9 C 42.1 6 43.8 4.8 46.8 4.8 C 46.8 4.8 47 4.8 47 4.8 C 50 4.8 51.8 6 51.8 9 Z M 46.9 7.7 C 45.9 7.7 45.2 8.1 45.2 9.5 C 45.2 9.5 45.2 20.3 45.2 20.3 C 45.2 21.7 45.9 22.1 46.9 22.1 C 48 22.1 48.6 21.7 48.6 20.3 C 48.6 20.3 48.6 9.5 48.6 9.5 C 48.6 8.1 48 7.7 46.9 7.7 Z M 63.8 9 C 63.8 9 63.8 20.8 63.8 20.8 C 63.8 23.8 62 25 59.1 25 C 59.1 25 58.8 25 58.8 25 C 55.9 25 54.1 23.8 54.1 20.8 C 54.1 20.8 54.1 9 54.1 9 C 54.1 6 55.9 4.8 58.8 4.8 C 58.8 4.8 59.1 4.8 59.1 4.8 C 62 4.8 63.8 6 63.8 9 Z M 59 7.7 C 57.9 7.7 57.3 8.1 57.3 9.5 C 57.3 9.5 57.3 20.3 57.3 20.3 C 57.3 21.7 57.9 22.1 59 22.1 C 60 22.1 60.6 21.7 60.6 20.3 C 60.6 20.3 60.6 9.5 60.6 9.5 C 60.6 8.1 60 7.7 59 7.7 Z " stroke="none" fill="#282828"/>
  </g>
</svg>