<?xml version="1.0" standalone="no"?>
<!DOCTYPE svg PUBLIC "-//W3C//DTD SVG 1.1//EN" "http://www.w3.org/Graphics/SVG/1.1/DTD/svg11.dtd">
<svg xmlns="http://www.w3.org/2000/svg" version="1.1" width="158px" height="27.9px" viewBox="0 -6 158 27.9" style="top:-6px">
  <desc>Lease Type</desc>
  <defs/>
  <g id="Polygon272994">
    <path d="M 1.2 2 L 2.8 2 L 2.8 11.2 L 7.6 11.2 L 7.6 12.5 L 1.2 12.5 L 1.2 2 Z M 12.2 4.7 C 14.5 4.7 15.9 6.5 15.9 8.8 C 15.94 8.83 15.9 9.2 15.9 9.2 C 15.9 9.2 9.88 9.18 9.9 9.2 C 10 10.5 10.9 11.6 12.5 11.6 C 13.3 11.6 14.2 11.2 14.8 10.7 C 14.8 10.7 15.4 11.6 15.4 11.6 C 14.7 12.3 13.6 12.7 12.3 12.7 C 10.1 12.7 8.4 11.1 8.4 8.7 C 8.4 6.5 10 4.7 12.2 4.7 Z M 9.9 8.1 C 9.9 8.1 14.5 8.1 14.5 8.1 C 14.5 7.1 13.8 5.9 12.2 5.9 C 10.7 5.9 9.9 7.1 9.9 8.1 Z M 22.3 11.7 C 21.7 12.4 20.8 12.7 19.8 12.7 C 18.5 12.7 17.1 11.9 17.1 10.2 C 17.1 8.4 18.5 7.7 19.8 7.7 C 20.8 7.7 21.7 8 22.3 8.7 C 22.3 8.7 22.3 7.4 22.3 7.4 C 22.3 6.5 21.5 5.9 20.4 5.9 C 19.6 5.9 18.8 6.2 18.1 6.9 C 18.1 6.9 17.5 5.9 17.5 5.9 C 18.4 5.1 19.4 4.7 20.7 4.7 C 22.3 4.7 23.7 5.4 23.7 7.4 C 23.74 7.37 23.7 12.5 23.7 12.5 L 22.3 12.5 C 22.3 12.5 22.32 11.71 22.3 11.7 Z M 22.3 9.6 C 21.9 9 21.1 8.7 20.3 8.7 C 19.3 8.7 18.6 9.3 18.6 10.2 C 18.6 11.1 19.3 11.7 20.3 11.7 C 21.1 11.7 21.9 11.4 22.3 10.9 C 22.3 10.9 22.3 9.6 22.3 9.6 Z M 25.9 10.5 C 26.4 11.1 27.4 11.6 28.5 11.6 C 29.5 11.6 30.1 11.2 30.1 10.5 C 30.1 9.7 29.2 9.5 28.3 9.3 C 27 9 25.4 8.6 25.4 7 C 25.4 5.7 26.5 4.7 28.3 4.7 C 29.7 4.7 30.6 5.2 31.3 5.8 C 31.3 5.8 30.6 6.8 30.6 6.8 C 30.2 6.2 29.3 5.8 28.4 5.8 C 27.4 5.8 26.8 6.2 26.8 6.8 C 26.8 7.5 27.6 7.7 28.6 8 C 29.9 8.3 31.5 8.6 31.5 10.4 C 31.5 11.7 30.4 12.7 28.4 12.7 C 27.1 12.7 26 12.3 25.2 11.5 C 25.2 11.5 25.9 10.5 25.9 10.5 Z M 36.5 4.7 C 38.8 4.7 40.2 6.5 40.2 8.8 C 40.24 8.83 40.2 9.2 40.2 9.2 C 40.2 9.2 34.18 9.18 34.2 9.2 C 34.3 10.5 35.2 11.6 36.8 11.6 C 37.6 11.6 38.5 11.2 39.1 10.7 C 39.1 10.7 39.7 11.6 39.7 11.6 C 39 12.3 37.9 12.7 36.6 12.7 C 34.4 12.7 32.7 11.1 32.7 8.7 C 32.7 6.5 34.3 4.7 36.5 4.7 Z M 34.2 8.1 C 34.2 8.1 38.8 8.1 38.8 8.1 C 38.8 7.1 38.1 5.9 36.5 5.9 C 35 5.9 34.2 7.1 34.2 8.1 Z M 48.4 3.4 L 45.2 3.4 L 45.2 2 L 53.3 2 L 53.3 3.4 L 50 3.4 L 50 12.5 L 48.4 12.5 L 48.4 3.4 Z M 54.2 14.4 C 54.7 14.4 55.1 14.2 55.3 13.6 C 55.33 13.64 55.8 12.6 55.8 12.6 L 52.6 4.9 L 54.1 4.9 L 56.5 10.9 L 58.9 4.9 L 60.5 4.9 C 60.5 4.9 56.7 14.01 56.7 14 C 56.2 15.2 55.4 15.6 54.3 15.7 C 54 15.7 53.6 15.6 53.4 15.5 C 53.4 15.5 53.6 14.3 53.6 14.3 C 53.8 14.3 54 14.4 54.2 14.4 Z M 61.5 15.5 L 61.5 4.9 L 62.9 4.9 C 62.9 4.9 62.91 5.97 62.9 6 C 63.5 5.2 64.4 4.7 65.4 4.7 C 67.4 4.7 68.8 6.2 68.8 8.7 C 68.8 11.2 67.4 12.7 65.4 12.7 C 64.4 12.7 63.5 12.3 62.9 11.4 C 62.91 11.44 62.9 15.5 62.9 15.5 L 61.5 15.5 Z M 65 6 C 64.2 6 63.3 6.5 62.9 7.1 C 62.9 7.1 62.9 10.3 62.9 10.3 C 63.3 10.9 64.2 11.5 65 11.5 C 66.5 11.5 67.3 10.3 67.3 8.7 C 67.3 7.1 66.5 6 65 6 Z M 73.9 4.7 C 76.2 4.7 77.6 6.5 77.6 8.8 C 77.58 8.83 77.6 9.2 77.6 9.2 C 77.6 9.2 71.52 9.18 71.5 9.2 C 71.6 10.5 72.6 11.6 74.1 11.6 C 74.9 11.6 75.8 11.2 76.4 10.7 C 76.4 10.7 77.1 11.6 77.1 11.6 C 76.3 12.3 75.2 12.7 74 12.7 C 71.7 12.7 70 11.1 70 8.7 C 70 6.5 71.6 4.7 73.9 4.7 Z M 71.5 8.1 C 71.5 8.1 76.2 8.1 76.2 8.1 C 76.2 7.1 75.5 5.9 73.9 5.9 C 72.3 5.9 71.6 7.1 71.5 8.1 Z " stroke="none" fill="#3797ef"/>
  </g>
</svg>