<?xml version="1.0" standalone="no"?><!DOCTYPE svg PUBLIC "-//W3C//DTD SVG 1.1//EN" "http://www.w3.org/Graphics/SVG/1.1/DTD/svg11.dtd"><svg xmlns="http://www.w3.org/2000/svg" version="1.1" width="62.4px" height="43.5px" viewBox="0 -6 62.4 43.5" style="top:-6px"><desc>Tony</desc><defs/><g id="Polygon115737"><path d="m5.2 22.7c.9.1 1.3.9 1.3 1.7v1.9c0 1.4-1.1 2.2-2.8 2.2c0-.02-2.9 0-2.9 0V17.3s2.93-.02 2.9 0c1.7 0 2.7.8 2.7 2.2v1.4c0 .8-.3 1.6-1.2 1.8zm-2.5-.8h1c.5 0 .9-.3.9-.9v-1.3c0-.5-.4-.8-.9-.8c0-.02-1 0-1 0v3zm1.1 1.6c-.04-.03-1.1 0-1.1 0v3.4s1.06-.02 1.1 0c.5 0 .8-.3.8-.9v-1.7c0-.6-.3-.8-.8-.8zm8.1 5L10.5 24h-.9v4.5H7.7V17.3s2.89-.02 2.9 0c1.7 0 2.8.7 2.8 2.3v2c0 1.1-.4 1.8-1.2 2.1c-.01.03 1.6 4.8 1.6 4.8h-1.9zm-2.3-6.1s.93.02.9 0c.6 0 1.1-.2 1.1-1v-1.5c0-.8-.5-1-1.1-1c.03.01-.9 0-.9 0v3.5zm5.2 6.1V17.3h4.9v1.6h-3.1v3.1h2.6v1.6h-2.6v3.2h3.1v1.7h-4.9zm7.9-11.2v4.7h2.1v-4.7h1.9v11.2h-1.9v-4.9h-2.1v4.9h-1.8V17.3h1.8zm9 8.7h-2l-.4 2.5h-1.8l2.1-11.2h2.3L34 28.5h-1.9l-.4-2.5zm-.2-1.6l-.8-4.9l-.8 4.9h1.6zm8.8 1.8c0 1.8-1.1 2.4-2.8 2.4h-.1c-1.7 0-2.8-.6-2.8-2.4c.04.04 0-8.9 0-8.9h1.9v8.7c0 .8.3 1 1 1c.6 0 .9-.2.9-1c.02-.05 0-8.7 0-8.7h1.9s-.03 8.94 0 8.9zm6.3-7.3h-1.8v9.6h-1.9v-9.6H41v-1.6h5.6v1.6z" stroke="none" fill="#282828"/></g><g id="Polygon115736"><path d="m5 12.5L3.6 8h-.9v4.5H.8V1.3s2.9-.02 2.9 0c1.7 0 2.8.7 2.8 2.3v2c0 1.1-.4 1.8-1.2 2.1l1.6 4.8H5zM2.7 6.4s.93.02.9 0c.6 0 1.1-.2 1.1-1V3.9c0-.8-.5-1-1.1-1c.03.01-.9 0-.9 0v3.5zm5.2 6.1V1.3h1.9v11.2H7.9zm9-2.3c0 1.8-1.1 2.4-2.8 2.4h-.1c-1.7 0-2.8-.6-2.8-2.4V3.5c0-1.6 1.1-2.3 2.8-2.3h.1c1.7 0 2.8.7 2.8 2.3c-.02.02 0 2.1 0 2.1H15s.02-1.79 0-1.8c0-.8-.4-1-1-1c-.5 0-.9.2-.9 1v6.2c0 .7.4 1 .9 1c.6 0 1-.3 1-1c.02-.05 0-2.1 0-2.1h1.9s-.02 2.34 0 2.3zM20 1.3v4.7h2.2V1.3h1.8v11.2h-1.8V7.6H20v4.9h-1.8V1.3h1.8zm9 8.7h-2l-.4 2.5h-1.8l2.1-11.2h2.3l2.1 11.2h-1.9L29 10zm-.2-1.6L28 3.5l-.8 4.9h1.6zm7.5 4.1L34.9 8h-.9v4.5h-1.9V1.3s2.89-.02 2.9 0c1.7 0 2.8.7 2.8 2.3v2c0 1.1-.4 1.8-1.2 2.1c-.01.03 1.6 4.8 1.6 4.8h-1.9zM34 6.4s.93.02.9 0c.6 0 1.1-.2 1.1-1V3.9c0-.8-.5-1-1.1-1c.03.01-.9 0-.9 0v3.5zm10.8-2.8v6.5c0 1.7-1.1 2.4-2.8 2.4c.02-.02-2.8 0-2.8 0V1.3s2.82-.02 2.8 0c1.7 0 2.8.7 2.8 2.3zM42 2.9h-1v7.9s.95.05 1 0c.6 0 1-.2 1-1V3.9c0-.8-.4-1-1-1z" stroke="none" fill="#282828"/></g></svg>