<?xml version="1.0" standalone="no"?><!DOCTYPE svg PUBLIC "-//W3C//DTD SVG 1.1//EN" "http://www.w3.org/Graphics/SVG/1.1/DTD/svg11.dtd"><svg xmlns="http://www.w3.org/2000/svg" version="1.1" width="109.3px" height="27.9px" viewBox="0 -6 109.3 27.9" style="top:-6px"><desc>Year Built</desc><defs/><g id="Polygon276818"><path d="m4.2 8.1L.1 2h1.8L5 6.7L8.1 2h1.8L5.8 8.1v4.4H4.2V8.1zm8.3-3.4c2.4 0 3.8 1.8 3.8 4.1c-.02.03 0 .4 0 .4c0 0-6.09-.02-6.1 0c.1 1.3 1.1 2.4 2.6 2.4c.8 0 1.7-.4 2.3-.9l.7.9c-.8.7-1.9 1.1-3.1 1.1c-2.3 0-4-1.6-4-4c0-2.2 1.6-4 3.8-4zm-2.3 3.4h4.7c0-1-.7-2.2-2.4-2.2c-1.5 0-2.2 1.2-2.3 2.2zm12.6 3.6c-.6.7-1.5 1-2.5 1c-1.3 0-2.7-.8-2.7-2.5c0-1.8 1.4-2.5 2.7-2.5c1 0 1.9.3 2.5 1V7.4c0-.9-.8-1.5-1.9-1.5c-.8 0-1.6.3-2.3 1l-.6-1c.9-.8 1.9-1.2 3.2-1.2c1.6 0 3 .7 3 2.7c.04-.03 0 5.1 0 5.1h-1.4v-.8zm0-2.1c-.4-.6-1.2-.9-2-.9c-1 0-1.7.6-1.7 1.5c0 .9.7 1.5 1.7 1.5c.8 0 1.6-.3 2-.8V9.6zm3.7-4.7h1.5s-.05 1.15 0 1.2c.5-.8 1.4-1.4 2.5-1.4v1.4h-.5c-.7 0-1.7.5-2 1.1c-.05.01 0 5.3 0 5.3h-1.5V4.9zM36 2s4.99-.05 5 0c1.9 0 3 1.1 3 2.7c0 1.3-.9 2.2-1.9 2.4c1.2.2 2.1 1.3 2.1 2.6c0 1.7-1.1 2.8-3.1 2.8c.02.05-5.1 0-5.1 0V2zm4.7 4.4c1.1 0 1.6-.6 1.6-1.5c0-.9-.5-1.5-1.6-1.5c-.01-.05-3.1 0-3.1 0v3s3.09.05 3.1 0zm.1 4.8c1.1 0 1.7-.7 1.7-1.7c0-.9-.6-1.7-1.7-1.7c-.03.04-3.2 0-3.2 0v3.4s3.17-.05 3.2 0zm10.5.3c-.6.6-1.6 1.2-2.7 1.2c-1.7 0-2.5-.8-2.5-2.4c.02-.01 0-5.4 0-5.4h1.5s-.05 4.92 0 4.9c0 1.3.6 1.7 1.6 1.7c.9 0 1.7-.5 2.1-1.1V4.9h1.4v7.6h-1.4v-1zm3.5-8.8c0-.5.4-.9.9-.9c.5 0 .9.4.9.9c0 .5-.4.9-.9.9c-.5 0-.9-.4-.9-.9zm.2 2.2h1.4v7.6H55V4.9zM58.7 2h1.4v10.5h-1.4V2zm4 8.8V6.1h-1.3V4.9h1.3V2.8h1.4v2.1h1.6v1.2h-1.6s.02 4.43 0 4.4c0 .6.3 1 .8 1c.3 0 .6-.2.7-.3l.4 1c-.3.3-.7.5-1.5.5c-1.2 0-1.8-.6-1.8-1.9z" stroke="none" fill="#000"/></g></svg>