<?xml version="1.0" standalone="no"?><!DOCTYPE svg PUBLIC "-//W3C//DTD SVG 1.1//EN" "http://www.w3.org/Graphics/SVG/1.1/DTD/svg11.dtd"><svg xmlns="http://www.w3.org/2000/svg" version="1.1" width="89.3px" height="16.9px" viewBox="0 -4 89.3 16.9" style="top:-4px"><desc>Increases</desc><defs/><g id="Polygon92843"><path d="m.7 1.1h.9v6h-.9v-6zm5.1 3.2c0-.7-.3-.9-.9-.9c-.5 0-1 .3-1.2.6v3.1h-.8V2.8h.8v.6c.3-.4.9-.7 1.5-.7c1 0 1.4.4 1.4 1.4c.03-.04 0 3 0 3h-.8s.02-2.77 0-2.8zm4.1-1.6c.8 0 1.3.3 1.6.7l-.5.5c-.3-.4-.7-.5-1.1-.5c-.9 0-1.4.6-1.4 1.5c0 .9.5 1.6 1.4 1.6c.4 0 .8-.2 1.1-.5l.5.5c-.3.4-.8.7-1.6.7c-1.4 0-2.2-1-2.2-2.3c0-1.3.8-2.2 2.2-2.2zm2.5.1h.8v.6c.3-.4.8-.7 1.4-.7v.8h-.3c-.4 0-.9.3-1.1.6v3h-.8V2.8zm4.9-.1c1.3 0 2.1 1 2.1 2.3c.05 0 0 .2 0 .2H16c.1.7.6 1.4 1.5 1.4c.4 0 1-.2 1.3-.6l.4.6c-.5.4-1.1.6-1.8.6c-1.3 0-2.2-.9-2.2-2.3c0-1.2.9-2.2 2.1-2.2zM16 4.6h2.7c-.1-.6-.4-1.3-1.4-1.3c-.8 0-1.3.7-1.3 1.3zm7.1 2c-.3.4-.8.6-1.4.6c-.7 0-1.5-.5-1.5-1.4c0-1 .8-1.4 1.5-1.4c.6 0 1.1.1 1.4.5v-.7c0-.5-.4-.9-1-.9c-.5 0-.9.2-1.3.6l-.4-.5c.5-.5 1.1-.7 1.8-.7c1 0 1.8.4 1.8 1.5c-.04-.02 0 2.9 0 2.9h-.9s.05-.47 0-.5zm0-1.2c-.2-.3-.6-.5-1.1-.5c-.6 0-1 .4-1 .9c0 .5.4.9 1 .9c.5 0 .9-.2 1.1-.5v-.8zm2.2.5c.3.4.8.7 1.4.7c.6 0 1-.3 1-.7c0-.4-.5-.5-1.1-.7c-.7-.1-1.6-.3-1.6-1.3c0-.7.6-1.2 1.7-1.2c.7 0 1.2.2 1.6.6l-.3.5c-.3-.3-.8-.5-1.3-.5c-.6 0-.9.2-.9.6c0 .4.4.5 1 .6c.7.2 1.6.4 1.6 1.4c0 .7-.6 1.3-1.7 1.3c-.7 0-1.4-.2-1.8-.7l.4-.6zm6.1-3.2c1.3 0 2.1 1 2.1 2.3v.2H30c.1.7.7 1.4 1.5 1.4c.5 0 1-.2 1.3-.6l.4.6c-.4.4-1.1.6-1.8.6c-1.3 0-2.2-.9-2.2-2.3c0-1.2.9-2.2 2.2-2.2zM30 4.6h2.7c0-.6-.4-1.3-1.3-1.3c-.9 0-1.3.7-1.4 1.3zm4.5 1.3c.3.4.9.7 1.5.7c.6 0 .9-.3.9-.7c0-.4-.5-.5-1-.7c-.8-.1-1.6-.3-1.6-1.3c0-.7.5-1.2 1.6-1.2c.8 0 1.3.2 1.7.6l-.4.5c-.2-.3-.7-.5-1.3-.5c-.5 0-.9.2-.9.6c0 .4.5.5 1 .6c.8.2 1.7.4 1.7 1.4c0 .7-.6 1.3-1.8 1.3c-.7 0-1.3-.2-1.8-.7l.4-.6z" stroke="none" fill="#000"/></g></svg>