<?xml version="1.0" standalone="no"?><!DOCTYPE svg PUBLIC "-//W3C//DTD SVG 1.1//EN" "http://www.w3.org/Graphics/SVG/1.1/DTD/svg11.dtd"><svg xmlns="http://www.w3.org/2000/svg" version="1.1" width="164.2px" height="28.4px" viewBox="0 -6 164.2 28.4" style="top:-6px"><desc>00 Million</desc><defs/><g id="Polygon297953"><path d="m5.4 12.8c.04 0 0 1.4 0 1.4H4.3v-1.4c-1.6-.1-2.9-.8-3.7-1.7l.9-1.2c.7.7 1.6 1.3 2.8 1.5V7.9C2.7 7.5 1 6.9 1 4.8c0-1.6 1.3-2.8 3.3-3V.4h1.1s.04 1.44 0 1.4c1.4.2 2.4.7 3.2 1.5l-.9 1.2c-.6-.7-1.4-1-2.3-1.2v3.1c1.7.5 3.5 1.1 3.5 3.2c0 1.6-1 3-3.5 3.2zM4.3 6.1V3.2c-1 .1-1.7.7-1.7 1.5c0 .8.7 1.2 1.7 1.4zm2.9 3.7c0-1-.8-1.3-1.8-1.6v3.2c1.4-.2 1.8-1 1.8-1.6zm7.1-8c3 0 4.2 2.9 4.2 5.5c0 2.7-1.2 5.5-4.2 5.5c-2.9 0-4.1-2.8-4.1-5.5c0-2.6 1.2-5.5 4.1-5.5zm0 1.4c-1.9 0-2.5 2-2.5 4.1c0 2.1.6 4.1 2.5 4.1c1.9 0 2.6-2 2.6-4.1c0-2.1-.7-4.1-2.6-4.1zM24 1.8c3 0 4.2 2.9 4.2 5.5c0 2.7-1.2 5.5-4.2 5.5c-3 0-4.2-2.8-4.2-5.5c0-2.6 1.2-5.5 4.2-5.5zm0 1.4c-1.9 0-2.5 2-2.5 4.1c0 2.1.6 4.1 2.5 4.1c1.9 0 2.5-2 2.5-4.1c0-2.1-.6-4.1-2.5-4.1zm19.1 1l-3.5 8.4h-.6l-3.5-8.4v8.4h-1.6V2h2.3l3.1 7.6L42.4 2h2.3v10.6h-1.6V4.2zm3.5-1.5c0-.5.5-.9 1-.9c.5 0 .9.4.9.9c0 .5-.4.9-.9.9c-.5 0-1-.4-1-.9zm.3 2.2h1.4v7.7h-1.4V4.9zM50.4 2h1.5v10.6h-1.5V2zM54 2h1.4v10.6H54V2zm3.3.7c0-.5.5-.9 1-.9c.5 0 .9.4.9.9c0 .5-.4.9-.9.9c-.5 0-1-.4-1-.9zm.3 2.2h1.4v7.7h-1.4V4.9zm3.1 3.9c0-2.3 1.5-4.1 3.9-4.1c2.4 0 3.9 1.8 3.9 4.1c0 2.2-1.5 4-3.9 4c-2.4 0-3.9-1.8-3.9-4zm6.3 0c0-1.5-.9-2.8-2.4-2.8c-1.6 0-2.4 1.3-2.4 2.8c0 1.4.8 2.8 2.4 2.8c1.5 0 2.4-1.4 2.4-2.8zm8.3-1.1c0-1.3-.6-1.7-1.6-1.7c-.9 0-1.7.5-2.1 1.1c-.03.02 0 5.5 0 5.5h-1.5V4.9h1.5s-.03 1.1 0 1.1c.5-.6 1.5-1.3 2.7-1.3c1.6 0 2.5.9 2.5 2.5c-.02.02 0 5.4 0 5.4h-1.5s.04-4.9 0-4.9z" stroke="none" fill="#282828"/></g></svg>