<?xml version="1.0" standalone="no"?><!DOCTYPE svg PUBLIC "-//W3C//DTD SVG 1.1//EN" "http://www.w3.org/Graphics/SVG/1.1/DTD/svg11.dtd"><svg xmlns="http://www.w3.org/2000/svg" version="1.1" width="12.1px" height="31px" viewBox="0 -6 12.1 31" style="top:-6px"><desc>01</desc><defs/><g id="Polygon82238"><path d="m7 4v7.5c0 1.9-1.1 2.7-3 2.7h-.1C2 14.2.8 13.4.8 11.5V4C.8 2.1 2 1.3 3.9 1.3h.1c1.9 0 3 .8 3 2.7zm-3.1-.9c-.6 0-1.1.3-1.1 1.2v6.9c0 .9.5 1.1 1.1 1.1c.7 0 1.1-.2 1.1-1.1V4.3c0-.9-.4-1.2-1.1-1.2zm5 10.9s.03-11.08 0-11.1c.4-.4.7-.8.9-1.5c.01.04 1.1 0 1.1 0V14h-2z" stroke="none" fill="#fff"/></g></svg>