<?xml version="1.0" standalone="no"?>
<!DOCTYPE svg PUBLIC "-//W3C//DTD SVG 1.1//EN" "http://www.w3.org/Graphics/SVG/1.1/DTD/svg11.dtd">
<svg xmlns="http://www.w3.org/2000/svg" version="1.1" width="112.1px" height="63.9px" viewBox="0 -10 112.1 63.9" style="top:-10px">
  <desc>Agent 1</desc>
  <defs/>
  <g id="Polygon240142">
    <path d="M 3.8 35.1 L 0.5 35.1 L 0.5 33.7 L 8.6 33.7 L 8.6 35.1 L 5.4 35.1 L 5.4 44.3 L 3.8 44.3 L 3.8 35.1 Z M 11.7 36.4 C 14 36.4 15.4 38.2 15.4 40.6 C 15.44 40.55 15.4 40.9 15.4 40.9 C 15.4 40.9 9.37 40.9 9.4 40.9 C 9.5 42.2 10.4 43.3 12 43.3 C 12.8 43.3 13.7 43 14.2 42.4 C 14.2 42.4 14.9 43.3 14.9 43.3 C 14.2 44.1 13.1 44.5 11.8 44.5 C 9.5 44.5 7.9 42.8 7.9 40.4 C 7.9 38.2 9.5 36.4 11.7 36.4 Z M 9.4 39.9 C 9.4 39.9 14 39.9 14 39.9 C 14 38.9 13.3 37.6 11.7 37.6 C 10.2 37.6 9.4 38.8 9.4 39.9 Z M 17.1 36.6 L 18.5 36.6 C 18.5 36.6 18.5 37.77 18.5 37.8 C 19.1 37 20 36.4 21 36.4 C 21 36.4 21 37.9 21 37.9 C 20.9 37.8 20.7 37.8 20.5 37.8 C 19.8 37.8 18.8 38.4 18.5 38.9 C 18.5 38.93 18.5 44.3 18.5 44.3 L 17.1 44.3 L 17.1 36.6 Z M 31.6 39.2 C 31.6 38.3 31.2 37.7 30.3 37.7 C 29.5 37.7 28.7 38.2 28.4 38.8 C 28.37 38.77 28.4 44.3 28.4 44.3 L 26.9 44.3 C 26.9 44.3 26.94 39.15 26.9 39.2 C 26.9 38.3 26.6 37.7 25.6 37.7 C 24.8 37.7 24.1 38.2 23.7 38.8 C 23.71 38.79 23.7 44.3 23.7 44.3 L 22.3 44.3 L 22.3 36.6 L 23.7 36.6 C 23.7 36.6 23.71 37.68 23.7 37.7 C 24 37.2 25 36.4 26.2 36.4 C 27.3 36.4 28 37 28.3 37.8 C 28.7 37.1 29.7 36.4 30.9 36.4 C 32.3 36.4 33 37.2 33 38.7 C 33.03 38.73 33 44.3 33 44.3 L 31.6 44.3 C 31.6 44.3 31.61 39.15 31.6 39.2 Z M 42.7 40.2 L 40.7 40.2 L 40.7 44.3 L 39.1 44.3 L 39.1 33.7 C 39.1 33.7 43.58 33.68 43.6 33.7 C 45.6 33.7 47 35 47 36.9 C 47 38.8 45.7 39.9 44.3 40 C 44.34 40.03 47.1 44.3 47.1 44.3 L 45.2 44.3 L 42.7 40.2 Z M 43.4 35.1 C 43.37 35.07 40.7 35.1 40.7 35.1 L 40.7 38.8 C 40.7 38.8 43.37 38.79 43.4 38.8 C 44.5 38.8 45.3 38 45.3 36.9 C 45.3 35.8 44.5 35.1 43.4 35.1 Z M 51.6 36.4 C 53.9 36.4 55.4 38.2 55.4 40.6 C 55.36 40.55 55.4 40.9 55.4 40.9 C 55.4 40.9 49.3 40.9 49.3 40.9 C 49.4 42.2 50.4 43.3 51.9 43.3 C 52.7 43.3 53.6 43 54.2 42.4 C 54.2 42.4 54.8 43.3 54.8 43.3 C 54.1 44.1 53 44.5 51.8 44.5 C 49.5 44.5 47.8 42.8 47.8 40.4 C 47.8 38.2 49.4 36.4 51.6 36.4 Z M 49.3 39.9 C 49.3 39.9 54 39.9 54 39.9 C 53.9 38.9 53.3 37.6 51.6 37.6 C 50.1 37.6 49.4 38.8 49.3 39.9 Z M 66.3 39.2 C 66.3 38.3 65.9 37.7 65 37.7 C 64.2 37.7 63.4 38.2 63.1 38.8 C 63.08 38.77 63.1 44.3 63.1 44.3 L 61.7 44.3 C 61.7 44.3 61.66 39.15 61.7 39.2 C 61.7 38.3 61.3 37.7 60.3 37.7 C 59.6 37.7 58.8 38.2 58.4 38.8 C 58.43 38.79 58.4 44.3 58.4 44.3 L 57 44.3 L 57 36.6 L 58.4 36.6 C 58.4 36.6 58.43 37.68 58.4 37.7 C 58.7 37.2 59.8 36.4 60.9 36.4 C 62.1 36.4 62.8 37 63 37.8 C 63.4 37.1 64.5 36.4 65.6 36.4 C 67 36.4 67.8 37.2 67.8 38.7 C 67.75 38.73 67.8 44.3 67.8 44.3 L 66.3 44.3 C 66.3 44.3 66.33 39.15 66.3 39.2 Z M 74.6 43.4 C 74 44.1 73.1 44.5 72.1 44.5 C 70.8 44.5 69.4 43.6 69.4 41.9 C 69.4 40.2 70.8 39.4 72.1 39.4 C 73.1 39.4 74 39.7 74.6 40.4 C 74.6 40.4 74.6 39.2 74.6 39.2 C 74.6 38.2 73.8 37.6 72.7 37.6 C 71.9 37.6 71.1 38 70.4 38.6 C 70.4 38.6 69.8 37.7 69.8 37.7 C 70.7 36.8 71.7 36.4 72.9 36.4 C 74.6 36.4 76 37.1 76 39.1 C 76.03 39.09 76 44.3 76 44.3 L 74.6 44.3 C 74.6 44.3 74.6 43.43 74.6 43.4 Z M 74.6 41.3 C 74.2 40.7 73.4 40.4 72.6 40.4 C 71.6 40.4 70.9 41 70.9 41.9 C 70.9 42.8 71.6 43.5 72.6 43.5 C 73.4 43.5 74.2 43.2 74.6 42.6 C 74.6 42.6 74.6 41.3 74.6 41.3 Z M 77.9 34.4 C 77.9 33.9 78.4 33.5 78.9 33.5 C 79.4 33.5 79.8 33.9 79.8 34.4 C 79.8 34.9 79.4 35.3 78.9 35.3 C 78.4 35.3 77.9 34.9 77.9 34.4 Z M 78.2 36.6 L 79.6 36.6 L 79.6 44.3 L 78.2 44.3 L 78.2 36.6 Z M 86.9 39.4 C 86.9 38.1 86.2 37.7 85.2 37.7 C 84.4 37.7 83.5 38.2 83.1 38.8 C 83.13 38.79 83.1 44.3 83.1 44.3 L 81.7 44.3 L 81.7 36.6 L 83.1 36.6 C 83.1 36.6 83.13 37.68 83.1 37.7 C 83.6 37.1 84.7 36.4 85.8 36.4 C 87.5 36.4 88.3 37.3 88.3 38.9 C 88.3 38.88 88.3 44.3 88.3 44.3 L 86.9 44.3 C 86.9 44.3 86.88 39.36 86.9 39.4 Z M 90.2 34.4 C 90.2 33.9 90.6 33.5 91.1 33.5 C 91.6 33.5 92 33.9 92 34.4 C 92 34.9 91.6 35.3 91.1 35.3 C 90.6 35.3 90.2 34.9 90.2 34.4 Z M 90.4 36.6 L 91.8 36.6 L 91.8 44.3 L 90.4 44.3 L 90.4 36.6 Z M 99.1 39.4 C 99.1 38.1 98.5 37.7 97.5 37.7 C 96.6 37.7 95.8 38.2 95.4 38.8 C 95.39 38.79 95.4 44.3 95.4 44.3 L 94 44.3 L 94 36.6 L 95.4 36.6 C 95.4 36.6 95.39 37.68 95.4 37.7 C 95.9 37.1 96.9 36.4 98.1 36.4 C 99.7 36.4 100.6 37.3 100.6 38.9 C 100.57 38.88 100.6 44.3 100.6 44.3 L 99.1 44.3 C 99.1 44.3 99.14 39.36 99.1 39.4 Z M 103.3 45.2 C 103.9 45.9 104.7 46.2 105.8 46.2 C 107 46.2 108.1 45.6 108.1 44 C 108.1 44 108.1 43 108.1 43 C 107.6 43.8 106.6 44.3 105.6 44.3 C 103.6 44.3 102.2 42.9 102.2 40.4 C 102.2 37.9 103.6 36.4 105.6 36.4 C 106.6 36.4 107.5 36.9 108.1 37.7 C 108.14 37.71 108.1 36.6 108.1 36.6 L 109.6 36.6 C 109.6 36.6 109.57 43.97 109.6 44 C 109.6 46.6 107.7 47.4 105.8 47.4 C 104.5 47.4 103.5 47.1 102.6 46.2 C 102.6 46.2 103.3 45.2 103.3 45.2 Z M 108.1 38.8 C 107.7 38.2 106.9 37.7 106 37.7 C 104.6 37.7 103.7 38.8 103.7 40.4 C 103.7 42 104.6 43.1 106 43.1 C 106.9 43.1 107.7 42.5 108.1 41.9 C 108.1 41.9 108.1 38.8 108.1 38.8 Z " stroke="none" fill="#3797ef"/>
  </g>
</svg>