<?xml version="1.0" standalone="no"?>
<!DOCTYPE svg PUBLIC "-//W3C//DTD SVG 1.1//EN" "http://www.w3.org/Graphics/SVG/1.1/DTD/svg11.dtd">
<svg xmlns="http://www.w3.org/2000/svg" version="1.1" width="158px" height="27.9px" viewBox="0 -6 158 27.9" style="top:-6px">
  <desc>Type of Ownership</desc>
  <defs/>
  <g id="Polygon277922">
    <path d="M 3.8 3.4 L 0.5 3.4 L 0.5 2 L 8.6 2 L 8.6 3.4 L 5.4 3.4 L 5.4 12.5 L 3.8 12.5 L 3.8 3.4 Z M 9.7 14.4 C 10.2 14.4 10.6 14.2 10.8 13.6 C 10.82 13.64 11.3 12.6 11.3 12.6 L 8.1 4.9 L 9.6 4.9 L 12 10.9 L 14.4 4.9 L 16 4.9 C 16 4.9 12.18 14.01 12.2 14 C 11.7 15.2 10.8 15.6 9.7 15.7 C 9.5 15.7 9.1 15.6 8.8 15.5 C 8.8 15.5 9.1 14.3 9.1 14.3 C 9.2 14.3 9.5 14.4 9.7 14.4 Z M 17.1 15.5 L 17.1 4.9 L 18.5 4.9 C 18.5 4.9 18.55 5.97 18.5 6 C 19.1 5.2 20 4.7 21.1 4.7 C 23.1 4.7 24.5 6.2 24.5 8.7 C 24.5 11.2 23.1 12.7 21.1 12.7 C 20.1 12.7 19.2 12.3 18.5 11.4 C 18.55 11.44 18.5 15.5 18.5 15.5 L 17.1 15.5 Z M 20.7 6 C 19.8 6 18.9 6.5 18.5 7.1 C 18.5 7.1 18.5 10.3 18.5 10.3 C 18.9 10.9 19.8 11.5 20.7 11.5 C 22.1 11.5 23 10.3 23 8.7 C 23 7.1 22.1 6 20.7 6 Z M 29.7 4.7 C 32 4.7 33.4 6.5 33.4 8.8 C 33.38 8.83 33.4 9.2 33.4 9.2 C 33.4 9.2 27.32 9.18 27.3 9.2 C 27.4 10.5 28.4 11.6 29.9 11.6 C 30.7 11.6 31.6 11.2 32.2 10.7 C 32.2 10.7 32.9 11.6 32.9 11.6 C 32.1 12.3 31 12.7 29.8 12.7 C 27.5 12.7 25.8 11.1 25.8 8.7 C 25.8 6.5 27.4 4.7 29.7 4.7 Z M 27.3 8.1 C 27.3 8.1 32 8.1 32 8.1 C 32 7.1 31.3 5.9 29.7 5.9 C 28.1 5.9 27.4 7.1 27.3 8.1 Z M 38.8 8.7 C 38.8 6.5 40.3 4.7 42.7 4.7 C 45.1 4.7 46.5 6.5 46.5 8.7 C 46.5 10.9 45.1 12.7 42.7 12.7 C 40.3 12.7 38.8 10.9 38.8 8.7 Z M 45.1 8.7 C 45.1 7.3 44.2 6 42.7 6 C 41.2 6 40.3 7.3 40.3 8.7 C 40.3 10.2 41.2 11.5 42.7 11.5 C 44.2 11.5 45.1 10.2 45.1 8.7 Z M 48.7 6.1 L 47.4 6.1 L 47.4 4.9 L 48.7 4.9 C 48.7 4.9 48.71 4.37 48.7 4.4 C 48.7 2.7 49.7 1.8 51 1.8 C 51.5 1.8 52 1.9 52.3 2.1 C 52.3 2.1 52 3.1 52 3.1 C 51.8 3 51.5 3 51.3 3 C 50.6 3 50.1 3.4 50.1 4.4 C 50.14 4.37 50.1 4.9 50.1 4.9 L 51.7 4.9 L 51.7 6.1 L 50.1 6.1 L 50.1 12.5 L 48.7 12.5 L 48.7 6.1 Z M 62.1 1.8 C 65.2 1.8 67.4 4.1 67.4 7.3 C 67.4 10.4 65.2 12.7 62.1 12.7 C 58.9 12.7 56.7 10.4 56.7 7.3 C 56.7 4.1 58.9 1.8 62.1 1.8 Z M 62.1 3.2 C 59.8 3.2 58.4 4.9 58.4 7.3 C 58.4 9.6 59.8 11.3 62.1 11.3 C 64.3 11.3 65.8 9.6 65.8 7.3 C 65.8 4.9 64.3 3.2 62.1 3.2 Z M 74.1 6.7 L 72.2 12.5 L 70.7 12.5 L 68.3 4.9 L 69.8 4.9 L 71.5 10.7 L 73.5 4.9 L 74.7 4.9 L 76.6 10.7 L 78.4 4.9 L 79.9 4.9 L 77.4 12.5 L 76 12.5 L 74.1 6.7 Z M 86.3 7.6 C 86.3 6.4 85.7 6 84.7 6 C 83.8 6 83 6.5 82.6 7.1 C 82.55 7.07 82.6 12.5 82.6 12.5 L 81.1 12.5 L 81.1 4.9 L 82.6 4.9 C 82.6 4.9 82.55 5.95 82.6 6 C 83.1 5.3 84.1 4.7 85.3 4.7 C 86.9 4.7 87.7 5.5 87.7 7.2 C 87.73 7.16 87.7 12.5 87.7 12.5 L 86.3 12.5 C 86.3 12.5 86.3 7.64 86.3 7.6 Z M 93.4 4.7 C 95.7 4.7 97.1 6.5 97.1 8.8 C 97.1 8.83 97.1 9.2 97.1 9.2 C 97.1 9.2 91.04 9.18 91 9.2 C 91.1 10.5 92.1 11.6 93.6 11.6 C 94.5 11.6 95.3 11.2 95.9 10.7 C 95.9 10.7 96.6 11.6 96.6 11.6 C 95.8 12.3 94.7 12.7 93.5 12.7 C 91.2 12.7 89.5 11.1 89.5 8.7 C 89.5 6.5 91.1 4.7 93.4 4.7 Z M 91 8.1 C 91 8.1 95.7 8.1 95.7 8.1 C 95.7 7.1 95 5.9 93.4 5.9 C 91.8 5.9 91.1 7.1 91 8.1 Z M 98.9 4.9 L 100.3 4.9 C 100.3 4.9 100.33 6.05 100.3 6.1 C 100.9 5.3 101.8 4.7 102.8 4.7 C 102.8 4.7 102.8 6.1 102.8 6.1 C 102.7 6.1 102.5 6.1 102.3 6.1 C 101.6 6.1 100.7 6.6 100.3 7.2 C 100.33 7.21 100.3 12.5 100.3 12.5 L 98.9 12.5 L 98.9 4.9 Z M 104.3 10.5 C 104.8 11.1 105.8 11.6 106.9 11.6 C 107.9 11.6 108.5 11.2 108.5 10.5 C 108.5 9.7 107.6 9.5 106.6 9.3 C 105.3 9 103.8 8.6 103.8 7 C 103.8 5.7 104.9 4.7 106.7 4.7 C 108.1 4.7 109 5.2 109.7 5.8 C 109.7 5.8 109 6.8 109 6.8 C 108.6 6.2 107.7 5.8 106.8 5.8 C 105.8 5.8 105.2 6.2 105.2 6.8 C 105.2 7.5 106 7.7 107 8 C 108.3 8.3 109.9 8.6 109.9 10.4 C 109.9 11.7 108.8 12.7 106.8 12.7 C 105.5 12.7 104.4 12.3 103.6 11.5 C 103.6 11.5 104.3 10.5 104.3 10.5 Z M 116.9 7.6 C 116.9 6.3 116.2 6 115.2 6 C 114.4 6 113.5 6.5 113.1 7.1 C 113.13 7.07 113.1 12.5 113.1 12.5 L 111.7 12.5 L 111.7 2 L 113.1 2 C 113.1 2 113.13 5.95 113.1 6 C 113.6 5.3 114.7 4.7 115.8 4.7 C 117.5 4.7 118.3 5.5 118.3 7.1 C 118.31 7.13 118.3 12.5 118.3 12.5 L 116.9 12.5 C 116.9 12.5 116.88 7.61 116.9 7.6 Z M 120.4 2.7 C 120.4 2.2 120.8 1.8 121.3 1.8 C 121.8 1.8 122.2 2.2 122.2 2.7 C 122.2 3.2 121.8 3.6 121.3 3.6 C 120.8 3.6 120.4 3.2 120.4 2.7 Z M 120.6 4.9 L 122 4.9 L 122 12.5 L 120.6 12.5 L 120.6 4.9 Z M 124.3 15.5 L 124.3 4.9 L 125.7 4.9 C 125.7 4.9 125.72 5.97 125.7 6 C 126.3 5.2 127.2 4.7 128.2 4.7 C 130.2 4.7 131.6 6.2 131.6 8.7 C 131.6 11.2 130.2 12.7 128.2 12.7 C 127.2 12.7 126.3 12.3 125.7 11.4 C 125.72 11.44 125.7 15.5 125.7 15.5 L 124.3 15.5 Z M 127.9 6 C 127 6 126.1 6.5 125.7 7.1 C 125.7 7.1 125.7 10.3 125.7 10.3 C 126.1 10.9 127 11.5 127.9 11.5 C 129.3 11.5 130.2 10.3 130.2 8.7 C 130.2 7.1 129.3 6 127.9 6 Z " stroke="none" fill="#000"/>
  </g>
</svg>