<?xml version="1.0" standalone="no"?><!DOCTYPE svg PUBLIC "-//W3C//DTD SVG 1.1//EN" "http://www.w3.org/Graphics/SVG/1.1/DTD/svg11.dtd"><svg xmlns="http://www.w3.org/2000/svg" xmlns:xlink="http://www.w3.org/1999/xlink" version="1.1" width="237px" height="46.9px" viewBox="0 -14 237 46.9" style="top:-14px"><desc/><defs/><g id="Polygon50948"><path d="m96.9 6.9l7-3.6v.8l-6.2 3.1l6.2 3.1v.8l-7-3.6v-.6zm7.9 0l7-3.6v.8l-6.2 3.1l6.2 3.1v.8l-7-3.6v-.6zm11.4-4.1h-3.4v-.8h7.8v.8h-3.4v9.7h-1V2.8zm7.6 1.9c2.3 0 3.6 1.8 3.6 4.1c-.02-.05 0 .2 0 .2c0 0-6.44-.03-6.4 0c0 1.6 1.2 3 2.9 3c1 0 1.9-.3 2.6-1l.4.5c-.8.8-1.7 1.2-3 1.2c-2.2 0-3.8-1.6-3.8-4c0-2.2 1.5-4 3.7-4zM121 8.3h5.5c0-1.3-.8-2.9-2.8-2.9c-1.8 0-2.7 1.6-2.7 2.9zm8.5-3.4h.8s.03 1.29 0 1.3c.7-.9 1.6-1.5 2.6-1.5v.9h-.4c-.8 0-1.8.7-2.2 1.4c.03-.04 0 5.5 0 5.5h-.8V4.9zm14.2 2.3c0-1.1-.5-1.8-1.6-1.8c-.8 0-1.7.6-2.2 1.3c.04.03 0 5.8 0 5.8h-.8V7.2c0-1.1-.4-1.8-1.5-1.8c-.9 0-1.8.7-2.2 1.3c-.03.05 0 5.8 0 5.8h-.9V4.9h.9s-.03 1.13 0 1.1c.3-.5 1.3-1.3 2.4-1.3c1.2 0 1.9.7 2.1 1.4c.4-.7 1.4-1.4 2.5-1.4c1.4 0 2.1.8 2.1 2.3v5.5h-.8s-.02-5.32 0-5.3zm10.8 1h-2.4v4.3h-.9V2s3.97-.05 4 0c1.8 0 3.2 1.1 3.2 3.1c0 1.9-1.4 2.9-2.9 3c-.04 0 3 4.4 3 4.4h-1.1l-2.9-4.3zm.6-5.4c-.01-.02-3 0-3 0v4.5s2.99.04 3 0c1.4 0 2.3-.9 2.3-2.2c0-1.4-.9-2.3-2.3-2.3zm8.3 1.9c2.3 0 3.6 1.8 3.6 4.1c.02-.05 0 .2 0 .2c0 0-6.4-.03-6.4 0c.1 1.6 1.2 3 3 3c1 0 1.8-.3 2.5-1l.4.5c-.7.8-1.7 1.2-3 1.2c-2.2 0-3.8-1.6-3.8-4c0-2.2 1.6-4 3.7-4zm-2.8 3.6h5.6c0-1.3-.9-2.9-2.8-2.9c-1.8 0-2.7 1.6-2.8 2.9zm17.7-1.1c0-1.1-.5-1.8-1.6-1.8c-.8 0-1.7.6-2.2 1.3c.05.03 0 5.8 0 5.8h-.8V7.2c0-1.1-.4-1.8-1.5-1.8c-.8 0-1.8.7-2.2 1.3c-.03.05 0 5.8 0 5.8h-.8V4.9h.8s-.03 1.13 0 1.1c.3-.5 1.3-1.3 2.5-1.3c1.1 0 1.8.7 2 1.4c.4-.7 1.4-1.4 2.5-1.4c1.4 0 2.1.8 2.1 2.3v5.5h-.8s-.02-5.32 0-5.3zm8.3 4.4c-.7.8-1.6 1.1-2.6 1.1c-1.4 0-2.7-.9-2.7-2.5c0-1.7 1.3-2.5 2.7-2.5c1 0 1.9.3 2.6 1V7.2c0-1.1-1-1.8-2.1-1.8c-1 0-1.7.3-2.4 1.1l-.5-.5c.8-.9 1.7-1.3 3-1.3c1.5 0 2.8.7 2.8 2.4c-.02.05 0 5.4 0 5.4h-.8s-.04-.86 0-.9zm0-2.2c-.6-.7-1.4-1.1-2.4-1.1c-1.2 0-2.1.8-2.1 1.9c0 1.1.9 1.9 2.1 1.9c1 0 1.8-.4 2.4-1.1V9.4zm3.1-6.5c0-.3.3-.6.7-.6c.3 0 .6.3.6.6c0 .4-.3.7-.6.7c-.4 0-.7-.3-.7-.7zm.3 2h.8v7.6h-.8V4.9zm8.5 2.5c0-1.5-.7-2-1.8-2c-1 0-2 .7-2.5 1.3c-.02.05 0 5.8 0 5.8h-.8V4.9h.8s-.02 1.13 0 1.1c.5-.6 1.6-1.3 2.7-1.3c1.6 0 2.5.7 2.5 2.5c-.04-.02 0 5.3 0 5.3h-.9s.03-5.13 0-5.1zm3.2-4.5c0-.3.3-.6.6-.6c.4 0 .7.3.7.6c0 .4-.3.7-.7.7c-.3 0-.6-.3-.6-.7zm.2 2h.9v7.6h-.9V4.9zm8.6 2.5c0-1.5-.7-2-1.9-2c-.9 0-2 .7-2.4 1.3c-.05.05 0 5.8 0 5.8h-.9V4.9h.9s-.05 1.13 0 1.1c.5-.6 1.6-1.3 2.7-1.3c1.6 0 2.4.7 2.4 2.5c.03-.02 0 5.3 0 5.3h-.8V7.4zm3.9 6.5c.6.8 1.4 1 2.5 1c1.4 0 2.7-.7 2.7-2.4v-1.2c-.6.8-1.6 1.4-2.7 1.4c-2 0-3.4-1.5-3.4-4c0-2.4 1.4-4 3.4-4c1.1 0 2 .5 2.7 1.4c-.04.01 0-1.2 0-1.2h.8v7.6c0 2.3-1.6 3.2-3.5 3.2c-1.2 0-2.1-.3-3-1.2l.5-.6zm5.2-7.1c-.5-.7-1.5-1.4-2.6-1.4c-1.7 0-2.7 1.4-2.7 3.3c0 1.9 1 3.3 2.7 3.3c1.1 0 2.1-.7 2.6-1.4V6.8zm2.5 3.5l6.2-3.1l-6.2-3.1v-.8l7 3.6v.6l-7 3.6v-.8zm7.9 0l6.1-3.1l-6.1-3.1v-.8l7 3.6v.6l-7 3.6v-.8z" stroke="none" fill="#000"/><a xlink:href="DBF_Term%20Remaining" xlink:show="new" xlink:title="&lt;&lt;Term Remaining&gt;&gt;"><rect style="fill:transparent;" x="96" y="1" width="141" height="15"/></a></g></svg>