<?xml version="1.0" standalone="no"?><!DOCTYPE svg PUBLIC "-//W3C//DTD SVG 1.1//EN" "http://www.w3.org/Graphics/SVG/1.1/DTD/svg11.dtd"><svg xmlns="http://www.w3.org/2000/svg" version="1.1" width="237px" height="26.9px" viewBox="0 -6 237 26.9" style="top:-6px"><desc>Lorem Ipsum</desc><defs/><g id="Polygon270843"><path d="m149.9 2h1v9.7h5.1v.8h-6.1V2zm7.2 6.7c0-2.2 1.4-4 3.6-4c2.3 0 3.7 1.8 3.7 4c0 2.2-1.4 4-3.7 4c-2.2 0-3.6-1.8-3.6-4zm6.5 0c0-1.7-1-3.3-2.9-3.3c-1.7 0-2.7 1.6-2.7 3.3c0 1.7 1 3.3 2.7 3.3c1.9 0 2.9-1.6 2.9-3.3zm3-3.8h.8v1.3c.7-.9 1.5-1.5 2.6-1.5v.9h-.4c-.8 0-1.9.7-2.2 1.4v5.5h-.8V4.9zm8.3-.2c2.3 0 3.6 1.8 3.6 4.1v.2s-6.43-.03-6.4 0c0 1.6 1.2 3 3 3c.9 0 1.8-.3 2.5-1l.4.5c-.8.8-1.7 1.2-3 1.2c-2.2 0-3.8-1.6-3.8-4c0-2.2 1.5-4 3.7-4zm-2.8 3.6h5.5c0-1.3-.8-2.9-2.7-2.9c-1.9 0-2.8 1.6-2.8 2.9zm17.6-1.1c0-1.1-.4-1.8-1.5-1.8c-.8 0-1.8.6-2.2 1.3v5.8h-.8s-.03-5.32 0-5.3c0-1.1-.5-1.8-1.6-1.8c-.8 0-1.7.7-2.2 1.3c.04.05 0 5.8 0 5.8h-.8V4.9h.8s.04 1.13 0 1.1c.4-.5 1.4-1.3 2.5-1.3c1.2 0 1.8.7 2 1.4c.5-.7 1.5-1.4 2.6-1.4c1.4 0 2.1.8 2.1 2.3c-.03.02 0 5.5 0 5.5h-.9s.05-5.32 0-5.3zm7.6-5.2h.9v10.5h-.9V2zm3.5 13.5V4.9h.8s.03 1.2 0 1.2c.6-.8 1.6-1.4 2.7-1.4c2 0 3.4 1.5 3.4 4c0 2.5-1.4 4-3.4 4c-1.1 0-2.1-.5-2.7-1.4c.03.01 0 4.2 0 4.2h-.8zm3.4-10.1c-1.1 0-2.1.7-2.6 1.4v3.8c.5.7 1.5 1.4 2.6 1.4c1.7 0 2.6-1.4 2.6-3.3c0-1.9-.9-3.3-2.6-3.3zm5.5 5.5c.5.6 1.4 1.1 2.5 1.1c1.2 0 2-.6 2-1.5c0-1-1-1.3-2.2-1.5c-1.2-.4-2.6-.7-2.6-2.2c0-1.2.9-2.1 2.7-2.1c1.3 0 2.2.5 2.7 1.1l-.4.6c-.5-.6-1.3-1-2.3-1c-1.2 0-1.9.6-1.9 1.4c0 .8 1 1.1 2 1.3c1.3.4 2.8.7 2.8 2.4c0 1.2-1 2.2-2.9 2.2c-1.2 0-2.2-.3-2.9-1.2l.5-.6zm12.6.5c-.6.7-1.6 1.3-2.7 1.3c-1.6 0-2.5-.7-2.5-2.4c.04-.02 0-5.4 0-5.4h.9s-.03 5.19 0 5.2c0 1.5.7 1.9 1.8 1.9c1 0 2-.6 2.5-1.3c.02.02 0-5.8 0-5.8h.8v7.6h-.8s.02-1.08 0-1.1zm12.6-4.2c0-1.1-.5-1.8-1.6-1.8c-.8 0-1.8.6-2.2 1.3c.02.03 0 5.8 0 5.8h-.8s-.02-5.32 0-5.3c0-1.1-.5-1.8-1.6-1.8c-.8 0-1.7.7-2.2 1.3c.05.05 0 5.8 0 5.8h-.8V4.9h.8s.05 1.13 0 1.1c.4-.5 1.4-1.3 2.5-1.3c1.2 0 1.8.7 2 1.4c.5-.7 1.5-1.4 2.6-1.4c1.4 0 2.1.8 2.1 2.3c-.02.02 0 5.5 0 5.5h-.8s-.05-5.32 0-5.3z" stroke="none" fill="#000"/></g></svg>