<?xml version="1.0" standalone="no"?>
<!DOCTYPE svg PUBLIC "-//W3C//DTD SVG 1.1//EN" "http://www.w3.org/Graphics/SVG/1.1/DTD/svg11.dtd">
<svg xmlns="http://www.w3.org/2000/svg" version="1.1" width="171px" height="65.9px" viewBox="0 -11 171 65.9" style="top:-11px">
  <desc>Agent 1</desc>
  <defs/>
  <g id="Polygon207370">
    <path d="M 10.4 38.1 L 10.4 46.3 L 8.8 46.3 L 8.8 35.7 L 10.4 35.7 L 16.2 43.6 L 16.2 35.7 L 17.8 35.7 L 17.8 46.3 L 16.2 46.3 L 10.4 38.1 Z M 23.4 38.4 C 25.8 38.4 27.2 40.2 27.2 42.6 C 27.18 42.55 27.2 42.9 27.2 42.9 C 27.2 42.9 21.11 42.9 21.1 42.9 C 21.2 44.2 22.2 45.3 23.7 45.3 C 24.5 45.3 25.4 45 26 44.4 C 26 44.4 26.7 45.3 26.7 45.3 C 25.9 46.1 24.8 46.5 23.6 46.5 C 21.3 46.5 19.6 44.8 19.6 42.4 C 19.6 40.2 21.2 38.4 23.4 38.4 Z M 21.1 41.9 C 21.1 41.9 25.8 41.9 25.8 41.9 C 25.8 40.9 25.1 39.6 23.4 39.6 C 21.9 39.6 21.2 40.8 21.1 41.9 Z M 29.3 44.6 C 29.26 44.57 29.3 39.9 29.3 39.9 L 28 39.9 L 28 38.6 L 29.3 38.6 L 29.3 36.5 L 30.7 36.5 L 30.7 38.6 L 32.2 38.6 L 32.2 39.9 L 30.7 39.9 C 30.7 39.9 30.69 44.25 30.7 44.3 C 30.7 44.8 30.9 45.2 31.4 45.2 C 31.8 45.2 32.1 45 32.2 44.9 C 32.2 44.9 32.6 46 32.6 46 C 32.3 46.3 31.8 46.5 31.1 46.5 C 29.9 46.5 29.3 45.8 29.3 44.6 Z M 42.9 35.5 C 46 35.5 48.2 37.8 48.2 41 C 48.2 44.1 46 46.5 42.9 46.5 C 39.7 46.5 37.5 44.1 37.5 41 C 37.5 37.8 39.7 35.5 42.9 35.5 Z M 42.9 36.9 C 40.6 36.9 39.2 38.6 39.2 41 C 39.2 43.3 40.6 45 42.9 45 C 45.1 45 46.6 43.3 46.6 41 C 46.6 38.6 45.1 36.9 42.9 36.9 Z M 50.1 49.2 L 50.1 38.6 L 51.5 38.6 C 51.5 38.6 51.51 39.69 51.5 39.7 C 52.1 38.9 53 38.4 54 38.4 C 56 38.4 57.4 39.9 57.4 42.4 C 57.4 44.9 56 46.5 54 46.5 C 53 46.5 52.1 46 51.5 45.2 C 51.51 45.16 51.5 49.2 51.5 49.2 L 50.1 49.2 Z M 53.6 39.7 C 52.8 39.7 51.9 40.2 51.5 40.8 C 51.5 40.8 51.5 44.1 51.5 44.1 C 51.9 44.7 52.8 45.2 53.6 45.2 C 55.1 45.2 55.9 44 55.9 42.4 C 55.9 40.8 55.1 39.7 53.6 39.7 Z M 62.6 38.4 C 64.9 38.4 66.3 40.2 66.3 42.6 C 66.34 42.55 66.3 42.9 66.3 42.9 C 66.3 42.9 60.28 42.9 60.3 42.9 C 60.4 44.2 61.3 45.3 62.9 45.3 C 63.7 45.3 64.6 45 65.2 44.4 C 65.2 44.4 65.8 45.3 65.8 45.3 C 65.1 46.1 64 46.5 62.7 46.5 C 60.5 46.5 58.8 44.8 58.8 42.4 C 58.8 40.2 60.4 38.4 62.6 38.4 Z M 60.3 41.9 C 60.3 41.9 64.9 41.9 64.9 41.9 C 64.9 40.9 64.2 39.6 62.6 39.6 C 61.1 39.6 60.3 40.8 60.3 41.9 Z M 68.1 38.6 L 69.6 38.6 C 69.6 38.6 69.57 39.77 69.6 39.8 C 70.2 39 71.1 38.4 72.1 38.4 C 72.1 38.4 72.1 39.9 72.1 39.9 C 71.9 39.8 71.8 39.8 71.6 39.8 C 70.9 39.8 69.9 40.4 69.6 40.9 C 69.57 40.93 69.6 46.3 69.6 46.3 L 68.1 46.3 L 68.1 38.6 Z M 78.2 45.4 C 77.6 46.1 76.8 46.5 75.7 46.5 C 74.5 46.5 73.1 45.6 73.1 43.9 C 73.1 42.2 74.4 41.4 75.7 41.4 C 76.8 41.4 77.7 41.7 78.2 42.4 C 78.2 42.4 78.2 41.2 78.2 41.2 C 78.2 40.2 77.5 39.6 76.4 39.6 C 75.5 39.6 74.7 40 74.1 40.6 C 74.1 40.6 73.4 39.7 73.4 39.7 C 74.3 38.8 75.4 38.4 76.6 38.4 C 78.3 38.4 79.7 39.1 79.7 41.1 C 79.67 41.09 79.7 46.3 79.7 46.3 L 78.2 46.3 C 78.2 46.3 78.24 45.43 78.2 45.4 Z M 78.2 43.3 C 77.8 42.7 77.1 42.4 76.3 42.4 C 75.2 42.4 74.5 43 74.5 43.9 C 74.5 44.8 75.2 45.5 76.3 45.5 C 77.1 45.5 77.8 45.2 78.2 44.6 C 78.2 44.6 78.2 43.3 78.2 43.3 Z M 82.2 44.6 C 82.24 44.57 82.2 39.9 82.2 39.9 L 81 39.9 L 81 38.6 L 82.2 38.6 L 82.2 36.5 L 83.7 36.5 L 83.7 38.6 L 85.2 38.6 L 85.2 39.9 L 83.7 39.9 C 83.7 39.9 83.67 44.25 83.7 44.3 C 83.7 44.8 83.9 45.2 84.4 45.2 C 84.8 45.2 85.1 45 85.2 44.9 C 85.2 44.9 85.6 46 85.6 46 C 85.3 46.3 84.8 46.5 84.1 46.5 C 82.9 46.5 82.2 45.8 82.2 44.6 Z M 86.6 36.4 C 86.6 35.9 87 35.5 87.5 35.5 C 88 35.5 88.4 35.9 88.4 36.4 C 88.4 36.9 88 37.3 87.5 37.3 C 87 37.3 86.6 36.9 86.6 36.4 Z M 86.8 38.6 L 88.2 38.6 L 88.2 46.3 L 86.8 46.3 L 86.8 38.6 Z M 95.7 41.4 C 95.7 40.1 95 39.7 94.1 39.7 C 93.2 39.7 92.4 40.2 91.9 40.8 C 91.95 40.79 91.9 46.3 91.9 46.3 L 90.5 46.3 L 90.5 38.6 L 91.9 38.6 C 91.9 38.6 91.95 39.68 91.9 39.7 C 92.5 39.1 93.5 38.4 94.7 38.4 C 96.3 38.4 97.1 39.3 97.1 40.9 C 97.12 40.89 97.1 46.3 97.1 46.3 L 95.7 46.3 C 95.7 46.3 95.7 41.36 95.7 41.4 Z M 100 47.2 C 100.7 47.9 101.4 48.2 102.5 48.2 C 103.7 48.2 104.9 47.6 104.9 46 C 104.9 46 104.9 45 104.9 45 C 104.3 45.8 103.4 46.3 102.3 46.3 C 100.3 46.3 98.9 44.9 98.9 42.4 C 98.9 39.9 100.3 38.4 102.3 38.4 C 103.3 38.4 104.2 38.9 104.9 39.7 C 104.86 39.71 104.9 38.6 104.9 38.6 L 106.3 38.6 C 106.3 38.6 106.29 45.97 106.3 46 C 106.3 48.6 104.4 49.4 102.5 49.4 C 101.2 49.4 100.3 49.1 99.3 48.2 C 99.3 48.2 100 47.2 100 47.2 Z M 104.9 40.8 C 104.5 40.2 103.6 39.7 102.7 39.7 C 101.3 39.7 100.4 40.8 100.4 42.4 C 100.4 44 101.3 45.1 102.7 45.1 C 103.6 45.1 104.5 44.5 104.9 43.9 C 104.9 43.9 104.9 40.8 104.9 40.8 Z M 112.7 35.7 L 114.3 35.7 L 114.3 46.3 L 112.7 46.3 L 112.7 35.7 Z M 121.8 41.4 C 121.8 40.1 121.1 39.7 120.2 39.7 C 119.3 39.7 118.5 40.2 118 40.8 C 118.04 40.79 118 46.3 118 46.3 L 116.6 46.3 L 116.6 38.6 L 118 38.6 C 118 38.6 118.04 39.68 118 39.7 C 118.5 39.1 119.6 38.4 120.8 38.4 C 122.4 38.4 123.2 39.3 123.2 40.9 C 123.22 40.89 123.2 46.3 123.2 46.3 L 121.8 46.3 C 121.8 46.3 121.79 41.36 121.8 41.4 Z M 128.9 38.4 C 130.4 38.4 131.2 39 131.8 39.8 C 131.8 39.8 130.8 40.6 130.8 40.6 C 130.4 40 129.8 39.7 129 39.7 C 127.5 39.7 126.5 40.8 126.5 42.4 C 126.5 44 127.5 45.2 129 45.2 C 129.8 45.2 130.4 44.9 130.8 44.2 C 130.8 44.2 131.8 45.1 131.8 45.1 C 131.2 45.9 130.4 46.5 128.9 46.5 C 126.6 46.5 125 44.7 125 42.4 C 125 40.1 126.6 38.4 128.9 38.4 Z M 132.9 42.4 C 132.9 40.2 134.4 38.4 136.8 38.4 C 139.2 38.4 140.6 40.2 140.6 42.4 C 140.6 44.7 139.2 46.5 136.8 46.5 C 134.4 46.5 132.9 44.7 132.9 42.4 Z M 139.2 42.4 C 139.2 41 138.3 39.7 136.8 39.7 C 135.2 39.7 134.4 41 134.4 42.4 C 134.4 43.9 135.2 45.2 136.8 45.2 C 138.3 45.2 139.2 43.9 139.2 42.4 Z M 151.8 41.2 C 151.8 40.3 151.4 39.7 150.4 39.7 C 149.7 39.7 148.9 40.2 148.5 40.8 C 148.53 40.77 148.5 46.3 148.5 46.3 L 147.1 46.3 C 147.1 46.3 147.11 41.16 147.1 41.2 C 147.1 40.3 146.7 39.7 145.8 39.7 C 145 39.7 144.3 40.2 143.9 40.8 C 143.88 40.79 143.9 46.3 143.9 46.3 L 142.5 46.3 L 142.5 38.6 L 143.9 38.6 C 143.9 38.6 143.88 39.68 143.9 39.7 C 144.2 39.2 145.2 38.4 146.4 38.4 C 147.5 38.4 148.2 39 148.4 39.8 C 148.9 39.1 149.9 38.4 151 38.4 C 152.4 38.4 153.2 39.2 153.2 40.7 C 153.2 40.73 153.2 46.3 153.2 46.3 L 151.8 46.3 C 151.8 46.3 151.78 41.16 151.8 41.2 Z M 158.8 38.4 C 161.1 38.4 162.6 40.2 162.6 42.6 C 162.57 42.55 162.6 42.9 162.6 42.9 C 162.6 42.9 156.51 42.9 156.5 42.9 C 156.6 44.2 157.6 45.3 159.1 45.3 C 159.9 45.3 160.8 45 161.4 44.4 C 161.4 44.4 162.1 45.3 162.1 45.3 C 161.3 46.1 160.2 46.5 159 46.5 C 156.7 46.5 155 44.8 155 42.4 C 155 40.2 156.6 38.4 158.8 38.4 Z M 156.5 41.9 C 156.5 41.9 161.2 41.9 161.2 41.9 C 161.1 40.9 160.5 39.6 158.8 39.6 C 157.3 39.6 156.6 40.8 156.5 41.9 Z " stroke="none" fill="#3797ef"/>
  </g>
  <g id="Polygon207369">
    <path d="M 50.7 18.3 C 50.7 18.3 50.7 21.2 50.7 21.2 C 50.7 23.7 49.4 24.9 47.2 25.2 C 47.24 25.21 47.2 27.3 47.2 27.3 L 44.3 27.3 C 44.3 27.3 44.33 25.24 44.3 25.2 C 42.2 24.9 40.9 23.8 40.9 21.2 C 40.86 21.2 40.9 17.8 40.9 17.8 L 44.1 17.8 C 44.1 17.8 44.08 20.75 44.1 20.7 C 44.1 22 44.8 22.5 45.8 22.5 C 46.8 22.5 47.5 22 47.5 20.7 C 47.5 20.7 47.5 19.2 47.5 19.2 C 47.5 18.2 47.2 17.7 46.2 17.1 C 46.2 17.1 43.9 15.8 43.9 15.8 C 42 14.7 40.9 13.8 40.9 11.8 C 40.9 11.8 40.9 9.2 40.9 9.2 C 40.9 6.7 42.3 5.6 44.3 5.2 C 44.33 5.22 44.3 3.1 44.3 3.1 L 47.2 3.1 C 47.2 3.1 47.24 5.22 47.2 5.2 C 49.2 5.6 50.6 6.8 50.6 9.2 C 50.63 9.17 50.6 12.4 50.6 12.4 L 47.4 12.4 C 47.4 12.4 47.41 9.62 47.4 9.6 C 47.4 8.4 46.7 7.9 45.7 7.9 C 44.8 7.9 44.1 8.4 44.1 9.6 C 44.1 9.6 44.1 11 44.1 11 C 44.1 12 44.4 12.4 45.3 13 C 45.3 13 47.7 14.3 47.7 14.3 C 49.6 15.4 50.7 16.2 50.7 18.3 Z M 62.7 9.3 C 62.7 9.3 62.7 21.1 62.7 21.1 C 62.7 24.1 60.9 25.3 57.9 25.3 C 57.9 25.3 57.7 25.3 57.7 25.3 C 54.7 25.3 52.9 24.1 52.9 21.1 C 52.9 21.1 52.9 9.3 52.9 9.3 C 52.9 6.3 54.7 5.1 57.7 5.1 C 57.7 5.1 57.9 5.1 57.9 5.1 C 60.9 5.1 62.7 6.3 62.7 9.3 Z M 57.8 8 C 56.8 8 56.1 8.4 56.1 9.8 C 56.1 9.8 56.1 20.6 56.1 20.6 C 56.1 22 56.8 22.4 57.8 22.4 C 58.8 22.4 59.5 22 59.5 20.6 C 59.5 20.6 59.5 9.8 59.5 9.8 C 59.5 8.4 58.8 8 57.8 8 Z M 75 9.3 C 75 9.3 75 21.1 75 21.1 C 75 24.1 73.2 25.3 70.2 25.3 C 70.2 25.3 70 25.3 70 25.3 C 67 25.3 65.3 24.1 65.3 21.1 C 65.3 21.1 65.3 9.3 65.3 9.3 C 65.3 6.3 67 5.1 70 5.1 C 70 5.1 70.2 5.1 70.2 5.1 C 73.2 5.1 75 6.3 75 9.3 Z M 70.1 8 C 69.1 8 68.4 8.4 68.4 9.8 C 68.4 9.8 68.4 20.6 68.4 20.6 C 68.4 22 69.1 22.4 70.1 22.4 C 71.2 22.4 71.8 22 71.8 20.6 C 71.8 20.6 71.8 9.8 71.8 9.8 C 71.8 8.4 71.2 8 70.1 8 Z M 87.3 9.3 C 87.3 9.3 87.3 21.1 87.3 21.1 C 87.3 24.1 85.5 25.3 82.5 25.3 C 82.5 25.3 82.3 25.3 82.3 25.3 C 79.3 25.3 77.6 24.1 77.6 21.1 C 77.6 21.1 77.6 9.3 77.6 9.3 C 77.6 6.3 79.3 5.1 82.3 5.1 C 82.3 5.1 82.5 5.1 82.5 5.1 C 85.5 5.1 87.3 6.3 87.3 9.3 Z M 82.4 8 C 81.4 8 80.7 8.4 80.7 9.8 C 80.7 9.8 80.7 20.6 80.7 20.6 C 80.7 22 81.4 22.4 82.4 22.4 C 83.5 22.4 84.1 22 84.1 20.6 C 84.1 20.6 84.1 9.8 84.1 9.8 C 84.1 8.4 83.5 8 82.4 8 Z M 92.9 24.2 C 92.9 26 92 27.7 91.1 28.8 C 91.1 28.8 89.9 28.2 89.9 28.2 C 90.5 27.3 91.1 26.1 91.2 25.1 C 91.2 25.09 89.7 25.1 89.7 25.1 L 89.7 21.4 L 92.9 21.4 C 92.9 21.4 92.92 24.25 92.9 24.2 Z M 105.1 9.3 C 105.1 9.3 105.1 21.1 105.1 21.1 C 105.1 24.1 103.3 25.3 100.3 25.3 C 100.3 25.3 100.1 25.3 100.1 25.3 C 97.1 25.3 95.4 24.1 95.4 21.1 C 95.4 21.1 95.4 9.3 95.4 9.3 C 95.4 6.3 97.1 5.1 100.1 5.1 C 100.1 5.1 100.3 5.1 100.3 5.1 C 103.3 5.1 105.1 6.3 105.1 9.3 Z M 100.2 8 C 99.2 8 98.5 8.4 98.5 9.8 C 98.5 9.8 98.5 20.6 98.5 20.6 C 98.5 22 99.2 22.4 100.2 22.4 C 101.3 22.4 101.9 22 101.9 20.6 C 101.9 20.6 101.9 9.8 101.9 9.8 C 101.9 8.4 101.3 8 100.2 8 Z M 117.4 9.3 C 117.4 9.3 117.4 21.1 117.4 21.1 C 117.4 24.1 115.6 25.3 112.6 25.3 C 112.6 25.3 112.4 25.3 112.4 25.3 C 109.4 25.3 107.7 24.1 107.7 21.1 C 107.7 21.1 107.7 9.3 107.7 9.3 C 107.7 6.3 109.4 5.1 112.4 5.1 C 112.4 5.1 112.6 5.1 112.6 5.1 C 115.6 5.1 117.4 6.3 117.4 9.3 Z M 112.5 8 C 111.5 8 110.8 8.4 110.8 9.8 C 110.8 9.8 110.8 20.6 110.8 20.6 C 110.8 22 111.5 22.4 112.5 22.4 C 113.6 22.4 114.2 22 114.2 20.6 C 114.2 20.6 114.2 9.8 114.2 9.8 C 114.2 8.4 113.6 8 112.5 8 Z M 129.7 9.3 C 129.7 9.3 129.7 21.1 129.7 21.1 C 129.7 24.1 127.9 25.3 124.9 25.3 C 124.9 25.3 124.7 25.3 124.7 25.3 C 121.7 25.3 120 24.1 120 21.1 C 120 21.1 120 9.3 120 9.3 C 120 6.3 121.7 5.1 124.7 5.1 C 124.7 5.1 124.9 5.1 124.9 5.1 C 127.9 5.1 129.7 6.3 129.7 9.3 Z M 124.8 8 C 123.8 8 123.1 8.4 123.1 9.8 C 123.1 9.8 123.1 20.6 123.1 20.6 C 123.1 22 123.8 22.4 124.8 22.4 C 125.9 22.4 126.5 22 126.5 20.6 C 126.5 20.6 126.5 9.8 126.5 9.8 C 126.5 8.4 125.9 8 124.8 8 Z " stroke="none" fill="#282828"/>
  </g>
</svg>