<?xml version="1.0" standalone="no"?><!DOCTYPE svg PUBLIC "-//W3C//DTD SVG 1.1//EN" "http://www.w3.org/Graphics/SVG/1.1/DTD/svg11.dtd"><svg xmlns="http://www.w3.org/2000/svg" version="1.1" width="202.3px" height="64.9px" viewBox="0 -4 202.3 64.9" style="top:-4px"><desc>Joe Riley Waterfront Park Waterfront Park is an eight-acre park along approximately one-half mile of the Cooper River</desc><defs/><g id="Polygon107221"><path d="m4.5 54H1.3l-.6 1.5h-.6l2.5-6h.6l2.5 6h-.6L4.5 54zm-3-.4h2.8L2.9 50l-1.4 3.6zm10.1-1.1c0-.6-.2-1-.8-1c-.5 0-1 .3-1.3.7c.02.02 0 3.3 0 3.3h-.5s.05-3.03 0-3c0-.6-.2-1-.8-1c-.5 0-1 .3-1.3.7c.03.02 0 3.3 0 3.3h-.4v-4.3h.4s.03.62 0 .6c.2-.3.8-.7 1.4-.7c.7 0 1.1.4 1.2.8c.2-.4.8-.8 1.4-.8c.8 0 1.2.4 1.2 1.3v3.1h-.5s.04-3.03 0-3zm3.7-1.4c1.3 0 2.1 1 2.1 2.3c-.03-.04 0 .1 0 .1c0 0-3.67-.02-3.7 0c.1.9.7 1.7 1.7 1.7c.6 0 1.1-.2 1.5-.6l.2.3c-.4.5-1 .7-1.7.7c-1.3 0-2.2-.9-2.2-2.3c0-1.2.9-2.2 2.1-2.2zm-1.6 2h3.2c0-.7-.5-1.6-1.6-1.6c-1 0-1.5.9-1.6 1.6zm4.8-1.9h.5s-.05.71 0 .7c.3-.5.8-.8 1.4-.8v.5h-.2c-.5 0-1 .4-1.2.7c-.05.04 0 3.2 0 3.2h-.5v-4.3zm2.6-1.1c0-.2.2-.4.4-.4c.2 0 .3.2.3.4c0 .2-.1.3-.3.3c-.2 0-.4-.1-.4-.3zm.1 1.1h.5v4.3h-.5v-4.3zm3.7-.1c.8 0 1.2.3 1.6.7l-.3.3c-.4-.5-.7-.6-1.2-.6c-1 0-1.7.8-1.7 1.8c0 1.1.7 1.9 1.7 1.9c.5 0 .8-.2 1.2-.6l.3.3c-.4.4-.8.7-1.6.7c-1.2 0-2.1-1-2.1-2.3c0-1.2.9-2.2 2.1-2.2zm5.3 3.9c-.4.4-.9.6-1.5.6c-.7 0-1.5-.5-1.5-1.4c0-1 .8-1.5 1.5-1.5c.6 0 1.1.2 1.5.6v-.8c0-.7-.5-1-1.2-1c-.5 0-.9.2-1.3.6l-.3-.3c.5-.5 1-.7 1.7-.7c.9 0 1.6.4 1.6 1.4c-.03-.05 0 3 0 3h-.5v-.5zm0-1.3c-.3-.4-.8-.6-1.3-.6c-.7 0-1.2.5-1.2 1.1c0 .6.5 1 1.2 1c.5 0 1-.1 1.3-.5v-1zm4.8-1.1c0-.9-.4-1.1-1.1-1.1c-.5 0-1.1.3-1.4.7c.01.02 0 3.3 0 3.3h-.5v-4.3h.5v.6c.3-.4.9-.7 1.6-.7c.9 0 1.3.4 1.3 1.4c.04-.03 0 3 0 3h-.4s-.03-2.92 0-2.9zm4.1 1.7c.4.4 1 .9 1.8.9c1.3 0 1.6-.7 1.6-1.2c0-.9-.8-1.1-1.6-1.4c-1-.2-2-.5-2-1.6c0-1 .9-1.6 2-1.6c.9 0 1.6.3 2 .9l-.3.3c-.4-.5-1.1-.7-1.7-.7c-.8 0-1.4.4-1.4 1.1c0 .7.7.9 1.5 1.1c1 .3 2.1.6 2.1 1.8c0 .8-.5 1.7-2.2 1.7c-1 0-1.7-.4-2.2-.9l.4-.4zm4.8-1c0-1.2.9-2.2 2.1-2.2c1.3 0 2.1 1 2.1 2.2c0 1.3-.8 2.3-2.1 2.3c-1.2 0-2.1-1-2.1-2.3zm3.7 0c0-.9-.5-1.8-1.6-1.8c-1 0-1.6.9-1.6 1.8c0 1 .6 1.9 1.6 1.9c1.1 0 1.6-.9 1.6-1.9zm3.5-2.2c.7 0 1.2.3 1.5.7l-.3.3c-.3-.5-.7-.6-1.2-.6c-1 0-1.6.8-1.6 1.8c0 1.1.6 1.9 1.6 1.9c.5 0 .9-.2 1.2-.6l.3.3c-.3.4-.8.7-1.5.7c-1.3 0-2.1-1-2.1-2.3c0-1.2.8-2.2 2.1-2.2zm2.4-1c0-.2.1-.4.3-.4c.2 0 .4.2.4.4c0 .2-.2.3-.4.3c-.2 0-.3-.1-.3-.3zm.1 1.1h.5v4.3h-.5v-4.3zm3.7-.1c1.3 0 2 1 2 2.3c.03-.04 0 .1 0 .1c0 0-3.61-.02-3.6 0c0 .9.7 1.7 1.7 1.7c.5 0 1-.2 1.4-.6l.3.3c-.5.5-1 .7-1.7.7c-1.3 0-2.2-.9-2.2-2.3c0-1.2.9-2.2 2.1-2.2zm-1.6 2h3.2c-.1-.7-.5-1.6-1.6-1.6c-1.1 0-1.6.9-1.6 1.6zm4.8 1.6c.03-.03 0-3.1 0-3.1h-.7v-.4h.7V50h.5v1.2h.9v.4h-.9v3c0 .4.2.6.5.6c.2 0 .3-.1.4-.2l.2.3c-.1.2-.4.3-.7.3c-.6 0-.9-.3-.9-.9zm2.5 2.2c.3 0 .5-.2.7-.6c-.04.02.3-.8.3-.8l-1.8-4.3h.5l1.6 3.8l1.5-3.8h.6l-2.3 5.3c-.2.5-.6.8-1.1.8c-.1 0-.3-.1-.5-.1l.1-.4c.1 0 .3.1.4.1zm6.1-3.6c0-1.2.8-2.2 2-2.2c1.3 0 2.1 1 2.1 2.2c0 1.3-.8 2.3-2.1 2.3c-1.2 0-2-1-2-2.3zm3.6 0c0-.9-.5-1.8-1.6-1.8c-1 0-1.5.9-1.5 1.8c0 1 .5 1.9 1.5 1.9c1.1 0 1.6-.9 1.6-1.9zm1.8-1.7h-.7v-.4h.7v-.4c0-.9.5-1.4 1.2-1.4c.2 0 .4.1.6.2l-.2.3c-.1 0-.2-.1-.4-.1c-.5 0-.7.4-.7 1c-.02-.03 0 .4 0 .4h.9v.4h-.9v3.9h-.5v-3.9zm4.4-2.1h.5v5.5h2.9v.5h-3.4v-6zm7 5.5c-.3.4-.8.6-1.4.6c-.8 0-1.5-.5-1.5-1.4c0-1 .7-1.5 1.5-1.5c.6 0 1.1.2 1.4.6v-.8c0-.7-.5-1-1.1-1c-.6 0-1 .2-1.4.6l-.2-.3c.4-.5.9-.7 1.6-.7c.9 0 1.6.4 1.6 1.4c.02-.05 0 3 0 3h-.5s.05-.5 0-.5zm0-1.3c-.3-.4-.7-.6-1.3-.6c-.7 0-1.2.5-1.2 1.1c0 .6.5 1 1.2 1c.6 0 1-.1 1.3-.5v-1zm4.8-1.1c0-.9-.4-1.1-1-1.1c-.6 0-1.2.3-1.4.7c-.05.02 0 3.3 0 3.3h-.5v-4.3h.5s-.05.62 0 .6c.3-.4.9-.7 1.5-.7c.9 0 1.4.4 1.4 1.4v3h-.5s.02-2.92 0-2.9zm5.1 2.2c-.3.5-.9.8-1.6.8c-1.1 0-1.9-.9-1.9-2.3c0-1.3.8-2.2 1.9-2.2c.7 0 1.2.3 1.6.8c-.04-.04 0-2.4 0-2.4h.4v6h-.4s-.04-.68 0-.7zm0-2.5c-.3-.5-.9-.8-1.5-.8c-.9 0-1.5.8-1.5 1.8c0 1.1.6 1.9 1.5 1.9c.6 0 1.2-.4 1.5-.8v-2.1zm1.7 2.3c.3.3.8.6 1.4.6c.7 0 1.2-.3 1.2-.8c0-.6-.6-.8-1.3-.9c-.7-.2-1.5-.4-1.5-1.2c0-.7.6-1.2 1.6-1.2c.7 0 1.2.2 1.5.6l-.2.3c-.3-.3-.8-.5-1.3-.5c-.7 0-1.1.3-1.1.7c0 .5.5.7 1.1.8c.8.2 1.6.4 1.6 1.3c0 .7-.5 1.3-1.6 1.3c-.7 0-1.2-.2-1.7-.7l.3-.3zm6-3.5c.8 0 1.2.3 1.5.7l-.3.3c-.3-.5-.7-.6-1.2-.6c-1 0-1.6.8-1.6 1.8c0 1.1.6 1.9 1.6 1.9c.5 0 .9-.2 1.2-.6l.3.3c-.3.4-.7.7-1.5.7c-1.3 0-2.1-1-2.1-2.3c0-1.2.8-2.2 2.1-2.2zm5.3 3.9c-.4.4-.9.6-1.5.6c-.8 0-1.5-.5-1.5-1.4c0-1 .7-1.5 1.5-1.5c.6 0 1.1.2 1.5.6v-.8c0-.7-.6-1-1.2-1c-.5 0-1 .2-1.4.6l-.2-.3c.4-.5.9-.7 1.6-.7c.9 0 1.6.4 1.6 1.4c.03-.05 0 3 0 3h-.4s-.04-.5 0-.5zm0-1.3c-.3-.4-.8-.6-1.4-.6c-.7 0-1.1.5-1.1 1.1c0 .6.4 1 1.1 1c.6 0 1.1-.1 1.4-.5v-1zm1.8 3.5v-6h.5s-.03.66 0 .7c.3-.5.8-.8 1.5-.8c1.1 0 1.9.8 1.9 2.2c0 1.4-.8 2.3-1.9 2.3c-.6 0-1.2-.3-1.5-.8c-.03.01 0 2.4 0 2.4h-.5zm1.9-5.7c-.6 0-1.2.3-1.4.8v2.1c.2.4.8.8 1.4.8c1 0 1.5-.8 1.5-1.9c0-1-.5-1.8-1.5-1.8zm5-.4c1.3 0 2 1 2 2.3c.04-.04 0 .1 0 .1c0 0-3.6-.02-3.6 0c0 .9.7 1.7 1.7 1.7c.6 0 1-.2 1.4-.6l.3.3c-.5.5-1 .7-1.7.7c-1.3 0-2.2-.9-2.2-2.3c0-1.2.9-2.2 2.1-2.2zm-1.6 2h3.2c0-.7-.5-1.6-1.6-1.6c-1.1 0-1.6.9-1.6 1.6zm10.8.9h-3.2l-.6 1.5h-.6l2.5-6h.6l2.5 6h-.6l-.6-1.5zm-3.1-.4h2.9l-1.4-3.6l-1.5 3.6zm5-2.4h.5v.7c.4-.5.9-.8 1.5-.8v.5h-.3c-.4 0-1 .4-1.2.7v3.2h-.5v-4.3zm4.7-.1c.7 0 1.1.3 1.5.7l-.3.3c-.4-.5-.7-.6-1.2-.6c-1 0-1.7.8-1.7 1.8c0 1.1.7 1.9 1.7 1.9c.5 0 .8-.2 1.2-.6l.3.3c-.4.4-.8.7-1.5.7c-1.3 0-2.2-1-2.2-2.3c0-1.2.9-2.2 2.2-2.2zm5.4 1.4c0-.8-.4-1-1.1-1c-.5 0-1.1.3-1.4.7c.01.02 0 3.3 0 3.3h-.5v-6h.5v2.3c.3-.4.9-.7 1.6-.7c.9 0 1.3.4 1.3 1.3c.05.05 0 3.1 0 3.1h-.4s-.02-2.95 0-3zm1.7-2.4c0-.2.2-.4.3-.4c.2 0 .4.2.4.4c0 .2-.2.3-.4.3c-.1 0-.3-.1-.3-.3zm.1 1.1h.5v4.3h-.5v-4.3zm1.9 3.5c.04-.03 0-3.1 0-3.1h-.7v-.4h.7V50h.5v1.2h.9v.4h-.9s.02 3 0 3c0 .4.2.6.5.6c.2 0 .4-.1.5-.2l.1.3c-.1.2-.3.3-.7.3c-.6 0-.9-.3-.9-.9zm4.2-3.6c1.3 0 2 1 2 2.3c.03-.04 0 .1 0 .1c0 0-3.6-.02-3.6 0c0 .9.7 1.7 1.7 1.7c.5 0 1-.2 1.4-.6l.3.3c-.5.5-1 .7-1.7.7c-1.3 0-2.2-.9-2.2-2.3c0-1.2.9-2.2 2.1-2.2zm-1.6 2h3.2c-.1-.7-.5-1.6-1.6-1.6c-1.1 0-1.6.9-1.6 1.6zm6.6-2c.8 0 1.2.3 1.5.7l-.3.3c-.3-.5-.7-.6-1.2-.6c-1 0-1.6.8-1.6 1.8c0 1.1.6 1.9 1.6 1.9c.5 0 .9-.2 1.2-.6l.3.3c-.3.4-.7.7-1.5.7c-1.3 0-2.1-1-2.1-2.3c0-1.2.8-2.2 2.1-2.2zm2.6 3.6v-3.1h-.7v-.4h.7V50h.5v1.2h.9v.4h-.9s-.03 3 0 3c0 .4.1.6.4.6c.2 0 .4-.1.5-.2l.2.3c-.2.2-.4.3-.8.3c-.5 0-.8-.3-.8-.9zm2.2-.1c.3.3.8.6 1.4.6c.7 0 1.2-.3 1.2-.8c0-.6-.6-.8-1.3-.9c-.7-.2-1.5-.4-1.5-1.2c0-.7.6-1.2 1.6-1.2c.7 0 1.2.2 1.5.6l-.2.3c-.3-.3-.8-.5-1.3-.5c-.7 0-1.1.3-1.1.7c0 .5.5.7 1.1.8c.8.2 1.6.4 1.6 1.3c0 .7-.5 1.3-1.6 1.3c-.7 0-1.3-.2-1.7-.7l.3-.3zm4.4.2c.2 0 .4.2.4.4c0 .2-.2.4-.4.4c-.2 0-.4-.2-.4-.4c0-.2.2-.4.4-.4z" stroke="none" fill="#000"/></g><g id="Polygon107220"><path d="m.7 46.4v-6h.5v.7c.3-.5.9-.8 1.5-.8c1.2 0 2 .8 2 2.2c0 1.4-.8 2.3-2 2.3c-.6 0-1.2-.3-1.5-.8v2.4h-.5zm1.9-5.7c-.6 0-1.2.3-1.4.8v2.1c.2.4.8.8 1.4.8c1 0 1.5-.8 1.5-1.9c0-1-.5-1.8-1.5-1.8zm5.9 3.5c-.4.4-.8.6-1.4.6c-.8 0-1.6-.5-1.6-1.4c0-1 .8-1.5 1.6-1.5c.6 0 1 .2 1.4.6v-.8c0-.7-.5-1-1.1-1c-.6 0-1 .2-1.4.6l-.3-.3c.5-.5 1-.7 1.7-.7c.9 0 1.6.4 1.6 1.4v3h-.5s.03-.5 0-.5zm0-1.3c-.3-.4-.8-.6-1.3-.6c-.7 0-1.2.5-1.2 1.1c0 .6.5 1 1.2 1c.5 0 1-.1 1.3-.5v-1zm1.9-2.5h.4s.04.71 0 .7c.4-.5.9-.8 1.5-.8v.5h-.2c-.5 0-1.1.4-1.3.7c.04.04 0 3.2 0 3.2h-.4v-4.3zm4 2.2l-.8.8v1.3h-.5v-6h.5v4.1l2.6-2.4h.6l-2 1.9l2 2.4h-.7l-1.7-2.1zm7.2-2.2h.5v.7c.4-.5.9-.8 1.5-.8v.5h-.3c-.4 0-1 .4-1.2.7v3.2h-.5v-4.3zm4.7-.1c1.3 0 2 1 2 2.3v.1s-3.63-.02-3.6 0c0 .9.6 1.7 1.7 1.7c.5 0 1-.2 1.4-.6l.2.3c-.4.5-.9.7-1.7.7c-1.2 0-2.1-.9-2.1-2.3c0-1.2.8-2.2 2.1-2.2zm-1.6 2h3.1c0-.7-.5-1.6-1.6-1.6c-1 0-1.5.9-1.5 1.6zm6.6-2c.7 0 1.2.3 1.5.7l-.3.3c-.3-.5-.7-.6-1.2-.6c-1 0-1.6.8-1.6 1.8c0 1.1.6 1.9 1.6 1.9c.5 0 .9-.2 1.2-.6l.3.3c-.3.4-.8.7-1.5.7c-1.3 0-2.1-1-2.1-2.3c0-1.2.8-2.2 2.1-2.2zm4.3 0c1.3 0 2.1 1 2.1 2.3c-.03-.04 0 .1 0 .1c0 0-3.66-.02-3.7 0c.1.9.7 1.7 1.7 1.7c.6 0 1.1-.2 1.5-.6l.2.3c-.4.5-1 .7-1.7.7c-1.3 0-2.2-.9-2.2-2.3c0-1.2.9-2.2 2.1-2.2zm-1.6 2h3.2c0-.7-.5-1.6-1.6-1.6c-1 0-1.5.9-1.6 1.6zm4.7-3c0-.2.1-.4.3-.4c.2 0 .4.2.4.4c0 .2-.2.3-.4.3c-.2 0-.3-.1-.3-.3zm.1 1.1h.5v4.3h-.5v-4.3zm1.2 0h.5l1.6 3.8l1.5-3.8h.6l-1.9 4.3h-.5L40 40.4zm6.7-.1c1.3 0 2.1 1 2.1 2.3c-.04-.04 0 .1 0 .1c0 0-3.68-.02-3.7 0c.1.9.7 1.7 1.7 1.7c.6 0 1.1-.2 1.4-.6l.3.3c-.4.5-1 .7-1.7.7c-1.3 0-2.2-.9-2.2-2.3c0-1.2.9-2.2 2.1-2.2zm-1.6 2h3.2c0-.7-.5-1.6-1.6-1.6c-1 0-1.5.9-1.6 1.6zm8 1.7c-.3.5-.9.8-1.5.8c-1.2 0-2-.9-2-2.3c0-1.3.8-2.2 2-2.2c.6 0 1.1.3 1.5.8c-.02-.04 0-2.4 0-2.4h.5v6h-.5s-.02-.68 0-.7zm0-2.5c-.3-.5-.8-.8-1.5-.8c-.9 0-1.5.8-1.5 1.8c0 1.1.6 1.9 1.5 1.9c.7 0 1.2-.4 1.5-.8v-2.1zm6 2.4c-.03-.03 0-3.1 0-3.1h-.7v-.4h.7v-1.2h.4v1.2h.9v.4h-.9s.05 3 0 3c0 .4.2.6.5.6c.2 0 .4-.1.5-.2l.2.3c-.2.2-.4.3-.8.3c-.5 0-.8-.3-.8-.9zm5.2-2.2c0-.8-.4-1-1.1-1c-.5 0-1.1.3-1.4.7c.04.02 0 3.3 0 3.3h-.4v-6h.4s.04 2.32 0 2.3c.4-.4 1-.7 1.6-.7c.9 0 1.4.4 1.4 1.3c-.03.05 0 3.1 0 3.1h-.5v-3zm3.7-1.4c1.3 0 2 1 2 2.3c.03-.04 0 .1 0 .1c0 0-3.6-.02-3.6 0c0 .9.7 1.7 1.7 1.7c.5 0 1-.2 1.4-.6l.3.3c-.5.5-1 .7-1.7.7c-1.3 0-2.2-.9-2.2-2.3c0-1.2.9-2.2 2.1-2.2zm-1.6 2h3.2c-.1-.7-.5-1.6-1.6-1.6c-1.1 0-1.6.9-1.6 1.6zm8.6 2c2-1.7 3.4-2.8 3.4-4c0-.9-.7-1.2-1.4-1.2c-.7 0-1.3.3-1.6.8l-.4-.4c.5-.5 1.2-.9 2-.9c.9 0 1.9.5 1.9 1.7c0 1.3-1.4 2.5-3.1 3.9c-.01.04 3.1 0 3.1 0v.5H75s-.02-.41 0-.4zm7.4-5.7c1.6 0 2.2 1.7 2.2 3.1c0 1.4-.6 3.1-2.2 3.1c-1.6 0-2.2-1.7-2.2-3.1c0-1.4.6-3.1 2.2-3.1zm0 .5c-1.3 0-1.7 1.4-1.7 2.6c0 1.2.4 2.7 1.7 2.7c1.2 0 1.6-1.5 1.6-2.7c0-1.2-.4-2.6-1.6-2.6zm5.4-.5c1.6 0 2.2 1.7 2.2 3.1c0 1.4-.6 3.1-2.2 3.1c-1.7 0-2.3-1.7-2.3-3.1c0-1.4.6-3.1 2.3-3.1zm0 .5c-1.3 0-1.7 1.4-1.7 2.6c0 1.2.4 2.7 1.7 2.7c1.2 0 1.6-1.5 1.6-2.7c0-1.2-.4-2.6-1.6-2.6zm6.2.1h-3.3v-.5h3.9v.4l-2.5 5.6h-.6l2.5-5.5zm5.6-.5h.5v5.5h2.9v.5h-3.4v-6zm7.1 5.5c-.4.4-.9.6-1.5.6c-.8 0-1.5-.5-1.5-1.4c0-1 .7-1.5 1.5-1.5c.6 0 1.1.2 1.5.6v-.8c0-.7-.6-1-1.2-1c-.5 0-1 .2-1.4.6l-.2-.3c.4-.5.9-.7 1.6-.7c.9 0 1.6.4 1.6 1.4c.03-.05 0 3 0 3h-.4s-.04-.5 0-.5zm0-1.3c-.3-.4-.8-.6-1.4-.6c-.7 0-1.1.5-1.1 1.1c0 .6.4 1 1.1 1c.6 0 1.1-.1 1.4-.5v-1zm4.7-1.1c0-.9-.4-1.1-1-1.1c-.6 0-1.2.3-1.4.7c-.03.02 0 3.3 0 3.3h-.5v-4.3h.5s-.03.62 0 .6c.3-.4.9-.7 1.5-.7c.9 0 1.4.4 1.4 1.4v3h-.5s.03-2.92 0-2.9zm5.1 2.2c-.3.5-.9.8-1.5.8c-1.2 0-2-.9-2-2.3c0-1.3.8-2.2 2-2.2c.6 0 1.1.3 1.5.8c-.03-.04 0-2.4 0-2.4h.4v6h-.4s-.03-.68 0-.7zm0-2.5c-.3-.5-.8-.8-1.5-.8c-.9 0-1.5.8-1.5 1.8c0 1.1.6 1.9 1.5 1.9c.7 0 1.2-.4 1.5-.8v-2.1zm7 .2c0-.6-.3-1-.9-1c-.4 0-1 .3-1.2.7c-.02.02 0 3.3 0 3.3h-.5v-3c0-.6-.3-1-.9-1c-.4 0-1 .3-1.2.7c-.01.02 0 3.3 0 3.3h-.5v-4.3h.5v.6c.2-.3.8-.7 1.4-.7c.7 0 1 .4 1.1.8c.3-.4.9-.8 1.5-.8c.8 0 1.2.4 1.2 1.3c-.04-.02 0 3.1 0 3.1h-.5v-3zm4.6 2.5c-.4.4-.9.6-1.5.6c-.7 0-1.5-.5-1.5-1.4c0-1 .8-1.5 1.5-1.5c.6 0 1.1.2 1.5.6v-.8c0-.7-.5-1-1.2-1c-.5 0-.9.2-1.3.6l-.3-.3c.5-.5 1-.7 1.7-.7c.9 0 1.6.4 1.6 1.4c-.04-.05 0 3 0 3h-.5v-.5zm0-1.3c-.3-.4-.8-.6-1.3-.6c-.7 0-1.2.5-1.2 1.1c0 .6.5 1 1.2 1c.5 0 1-.1 1.3-.5v-1zm1.8-2.5h.5v.7c.4-.5.9-.8 1.5-.8v.5h-.3c-.4 0-1 .4-1.2.7v3.2h-.5v-4.3zm4.1 2.2l-.8.8v1.3h-.5v-6h.5v4.1l2.5-2.4h.6l-2 1.9l2 2.4h-.6l-1.7-2.1zm11 .6h-3.2l-.6 1.5h-.6l2.5-6h.6l2.5 6h-.6l-.6-1.5zm-3-.4h2.8l-1.4-3.6l-1.4 3.6zm7.3-1.8l-1.2 3.7h-.5l-1.4-4.3h.5l1.1 3.7l1.3-3.7h.4l1.2 3.7l1.1-3.7h.6l-1.5 4.3h-.4l-1.2-3.7zm6.6 3.2c-.4.4-.9.6-1.5.6c-.7 0-1.5-.5-1.5-1.4c0-1 .8-1.5 1.5-1.5c.6 0 1.1.2 1.5.6v-.8c0-.7-.5-1-1.2-1c-.5 0-.9.2-1.3.6l-.3-.3c.5-.5 1-.7 1.7-.7c.9 0 1.6.4 1.6 1.4c-.02-.05 0 3 0 3h-.5v-.5zm0-1.3c-.3-.4-.8-.6-1.3-.6c-.7 0-1.2.5-1.2 1.1c0 .6.5 1 1.2 1c.5 0 1-.1 1.3-.5v-1zm1.8-2.5h.5v.7c.4-.5.9-.8 1.5-.8v.5h-.3c-.4 0-1 .4-1.2.7v3.2h-.5v-4.3zm6 3.6c-.3.5-.9.8-1.5.8c-1.2 0-1.9-.9-1.9-2.3c0-1.3.7-2.2 1.9-2.2c.6 0 1.2.3 1.5.8v-2.4h.5v6h-.5v-.7zm0-2.5c-.2-.5-.8-.8-1.4-.8c-1 0-1.5.8-1.5 1.8c0 1.1.5 1.9 1.5 1.9c.6 0 1.2-.4 1.4-.8v-2.1zm6.1-.7h-.8v-.4h.8s-.03-.43 0-.4c0-.9.4-1.4 1.1-1.4c.3 0 .5.1.6.2l-.1.3c-.1 0-.2-.1-.4-.1c-.5 0-.8.4-.8 1c.04-.03 0 .4 0 .4h.9v.4h-.9v3.9h-.4v-3.9zm2.1-.4h.5s-.02.71 0 .7c.3-.5.8-.8 1.4-.8v.5h-.2c-.4 0-1 .4-1.2.7c-.02.04 0 3.2 0 3.2h-.5v-4.3zm2.5 2.1c0-1.2.8-2.2 2.1-2.2c1.3 0 2.1 1 2.1 2.2c0 1.3-.8 2.3-2.1 2.3c-1.3 0-2.1-1-2.1-2.3zm3.7 0c0-.9-.6-1.8-1.6-1.8c-1 0-1.6.9-1.6 1.8c0 1 .6 1.9 1.6 1.9c1 0 1.6-.9 1.6-1.9zm6.8-.8c0-.6-.3-1-.9-1c-.4 0-1 .3-1.2.7c-.02.02 0 3.3 0 3.3h-.5v-3c0-.6-.2-1-.9-1c-.4 0-.9.3-1.2.7c-.01.02 0 3.3 0 3.3h-.5v-4.3h.5v.6c.2-.3.8-.7 1.4-.7c.7 0 1 .4 1.1.8c.3-.4.9-.8 1.5-.8c.8 0 1.2.4 1.2 1.3c-.04-.02 0 3.1 0 3.1h-.5v-3zm6 2.2c-.02-.03 0-3.1 0-3.1h-.7v-.4h.7v-1.2h.5v1.2h.8v.4h-.8s-.04 3 0 3c0 .4.1.6.4.6c.2 0 .4-.1.5-.2l.2.3c-.2.2-.4.3-.8.3c-.5 0-.8-.3-.8-.9zm5.2-2.2c0-.8-.4-1-1-1c-.6 0-1.2.3-1.5.7c.04.02 0 3.3 0 3.3h-.4v-6h.4s.04 2.32 0 2.3c.4-.4 1-.7 1.6-.7c.9 0 1.4.4 1.4 1.3c-.02.05 0 3.1 0 3.1h-.5v-3zm3.7-1.4c1.3 0 2 1 2 2.3c.04-.04 0 .1 0 .1c0 0-3.59-.02-3.6 0c.1.9.7 1.7 1.7 1.7c.6 0 1.1-.2 1.4-.6l.3.3c-.5.5-1 .7-1.7.7c-1.3 0-2.2-.9-2.2-2.3c0-1.2.9-2.2 2.1-2.2zm-1.6 2h3.2c0-.7-.5-1.6-1.6-1.6c-1 0-1.6.9-1.6 1.6z" stroke="none" fill="#000"/></g><g id="Polygon107219"><path d="m3.5 33.4c-.4.4-.9.6-1.5.6c-.7 0-1.5-.5-1.5-1.4c0-1 .8-1.5 1.5-1.5c.6 0 1.1.2 1.5.6v-.8c0-.7-.5-1-1.2-1c-.5 0-.9.2-1.3.6l-.3-.3c.5-.5 1-.7 1.7-.7c.9 0 1.6.4 1.6 1.4c-.04-.05 0 3 0 3h-.5v-.5zm0-1.3c-.3-.4-.8-.6-1.3-.6c-.7 0-1.2.5-1.2 1.1c0 .6.5 1 1.2 1c.5 0 1-.1 1.3-.5v-1zm1.8 3.5v-6h.5v.7c.3-.5.9-.8 1.5-.8c1.2 0 2 .8 2 2.2c0 1.4-.8 2.3-2 2.3c-.6 0-1.2-.3-1.5-.8v2.4h-.5zm1.9-5.7c-.6 0-1.2.3-1.4.8v2.1c.2.4.8.8 1.4.8c1 0 1.5-.8 1.5-1.9c0-1-.5-1.8-1.5-1.8zm3.2 5.7v-6h.4s.04.66 0 .7c.3-.5.9-.8 1.5-.8c1.2 0 2 .8 2 2.2c0 1.4-.8 2.3-2 2.3c-.6 0-1.1-.3-1.5-.8c.04.01 0 2.4 0 2.4h-.4zm1.9-5.7c-.6 0-1.2.3-1.5.8v2.1c.3.4.9.8 1.5.8c.9 0 1.5-.8 1.5-1.9c0-1-.6-1.8-1.5-1.8zm3.1-.3h.5s-.02.71 0 .7c.3-.5.8-.8 1.4-.8v.5h-.2c-.4 0-1 .4-1.2.7c-.02.04 0 3.2 0 3.2h-.5v-4.3zm2.5 2.1c0-1.2.8-2.2 2.1-2.2c1.3 0 2.1 1 2.1 2.2c0 1.3-.8 2.3-2.1 2.3c-1.3 0-2.1-1-2.1-2.3zm3.7 0c0-.9-.6-1.8-1.6-1.8c-1 0-1.6.9-1.6 1.8c0 1 .6 1.9 1.6 1.9c1 0 1.6-.9 1.6-1.9zm2.7.3l-1.4 1.9h-.6l1.7-2.2l-1.6-2.1h.6l1.3 1.8l1.4-1.8h.5l-1.6 2.1l1.7 2.2h-.5L24.3 32zm2.7-3.5c0-.2.2-.4.4-.4c.1 0 .3.2.3.4c0 .2-.2.3-.3.3c-.2 0-.4-.1-.4-.3zm.1 1.1h.5v4.3h-.5v-4.3zm7 1.3c0-.6-.2-1-.8-1c-.5 0-1 .3-1.3.7c.01.02 0 3.3 0 3.3h-.5s.04-3.03 0-3c0-.6-.2-1-.8-1c-.5 0-1 .3-1.3.7c.02.02 0 3.3 0 3.3h-.4v-4.3h.4s.02.62 0 .6c.2-.3.8-.7 1.4-.7c.7 0 1.1.4 1.2.8c.2-.4.8-.8 1.4-.8c.8 0 1.2.4 1.2 1.3v3.1h-.5s.03-3.03 0-3zm4.6 2.5c-.4.4-.8.6-1.4.6c-.8 0-1.6-.5-1.6-1.4c0-1 .8-1.5 1.6-1.5c.6 0 1 .2 1.4.6v-.8c0-.7-.5-1-1.1-1c-.6 0-1 .2-1.4.6l-.3-.3c.5-.5 1-.7 1.7-.7c.9 0 1.6.4 1.6 1.4v3h-.5s.03-.5 0-.5zm0-1.3c-.3-.4-.8-.6-1.3-.6c-.7 0-1.2.5-1.2 1.1c0 .6.5 1 1.2 1c.5 0 1-.1 1.3-.5v-1zm2 1c-.05-.03 0-3.1 0-3.1h-.8v-.4h.8v-1.2h.4v1.2h.9v.4h-.9s.03 3 0 3c0 .4.2.6.5.6c.2 0 .4-.1.5-.2l.1.3c-.1.2-.3.3-.7.3c-.6 0-.8-.3-.8-.9zm4.1-3.6c1.3 0 2 1 2 2.3c.04-.04 0 .1 0 .1c0 0-3.59-.02-3.6 0c.1.9.7 1.7 1.7 1.7c.6 0 1.1-.2 1.4-.6l.3.3c-.5.5-1 .7-1.7.7c-1.3 0-2.2-.9-2.2-2.3c0-1.2.9-2.2 2.1-2.2zm-1.6 2h3.2c0-.7-.5-1.6-1.6-1.6c-1 0-1.6.9-1.6 1.6zm4.8-3.6h.4v6h-.4v-6zm2 7.4c.3 0 .5-.2.6-.6c.02.02.4-.8.4-.8l-1.9-4.3h.6l1.5 3.8l1.6-3.8h.5s-2.22 5.26-2.2 5.3c-.3.5-.6.8-1.1.8c-.2 0-.4-.1-.5-.1l.1-.4c.1 0 .3.1.4.1zm6.5-3.6c0-1.2.8-2.2 2.1-2.2c1.3 0 2.1 1 2.1 2.2c0 1.3-.8 2.3-2.1 2.3c-1.3 0-2.1-1-2.1-2.3zm3.7 0c0-.9-.6-1.8-1.6-1.8c-1 0-1.6.9-1.6 1.8c0 1 .6 1.9 1.6 1.9c1 0 1.6-.9 1.6-1.9zm4.5-.7c0-.9-.4-1.1-1-1.1c-.6 0-1.2.3-1.5.7c.05.02 0 3.3 0 3.3h-.4v-4.3h.4s.05.62 0 .6c.4-.4 1-.7 1.6-.7c.9 0 1.4.4 1.4 1.4c-.02-.03 0 3 0 3h-.5s.02-2.92 0-2.9zm3.7-1.5c1.3 0 2 1 2 2.3c.05-.04 0 .1 0 .1c0 0-3.59-.02-3.6 0c.1.9.7 1.7 1.7 1.7c.6 0 1.1-.2 1.4-.6l.3.3c-.5.5-1 .7-1.7.7c-1.3 0-2.2-.9-2.2-2.3c0-1.2.9-2.2 2.1-2.2zm-1.6 2h3.2c0-.7-.5-1.6-1.6-1.6c-1 0-1.6.9-1.6 1.6zm4.3 0h2.2v.4h-2.2v-.4zm6-.6c0-.8-.4-1-1-1c-.6 0-1.2.3-1.5.7c.04.02 0 3.3 0 3.3h-.4v-6h.4s.04 2.32 0 2.3c.4-.4 1-.7 1.6-.7c.9 0 1.4.4 1.4 1.3c-.02.05 0 3.1 0 3.1h-.5v-3zm4.6 2.5c-.4.4-.9.6-1.5.6c-.7 0-1.5-.5-1.5-1.4c0-1 .8-1.5 1.5-1.5c.6 0 1.1.2 1.5.6v-.8c0-.7-.5-1-1.2-1c-.5 0-.9.2-1.3.6l-.3-.3c.5-.5 1-.7 1.7-.7c.9 0 1.6.4 1.6 1.4c-.03-.05 0 3 0 3h-.5v-.5zm0-1.3c-.3-.4-.8-.6-1.3-.6c-.7 0-1.2.5-1.2 1.1c0 .6.5 1 1.2 1c.5 0 1-.1 1.3-.5v-1zm1.8-4.2h.5v6h-.5v-6zm2 2.1h-.7v-.4h.7s.03-.43 0-.4c0-.9.5-1.4 1.2-1.4c.2 0 .4.1.6.2l-.1.3c-.2 0-.3-.1-.4-.1c-.5 0-.8.4-.8 1v.4h.9v.4h-.9v3.9h-.5V30zm10 .9c0-.6-.2-1-.8-1c-.5 0-1 .3-1.3.7c.03.02 0 3.3 0 3.3h-.4s-.04-3.03 0-3c0-.6-.3-1-.9-1c-.5 0-1 .3-1.3.7c.04.02 0 3.3 0 3.3h-.4v-4.3h.4s.04.62 0 .6c.2-.3.8-.7 1.4-.7c.7 0 1.1.4 1.2.8c.2-.4.8-.8 1.4-.8c.8 0 1.2.4 1.2 1.3v3.1h-.5s.05-3.03 0-3zm1.8-2.4c0-.2.1-.4.3-.4c.2 0 .4.2.4.4c0 .2-.2.3-.4.3c-.2 0-.3-.1-.3-.3zm.1 1.1h.5v4.3h-.5v-4.3zm1.8-1.7h.5v6h-.5v-6zm3.7 1.6c1.3 0 2.1 1 2.1 2.3c-.05-.04 0 .1 0 .1c0 0-3.68-.02-3.7 0c.1.9.7 1.7 1.7 1.7c.6 0 1.1-.2 1.4-.6l.3.3c-.4.5-1 .7-1.7.7c-1.3 0-2.2-.9-2.2-2.3c0-1.2.9-2.2 2.1-2.2zm-1.6 2h3.2c0-.7-.5-1.6-1.6-1.6c-1 0-1.5.9-1.6 1.6zm7.2.2c0-1.2.8-2.2 2.1-2.2c1.3 0 2.1 1 2.1 2.2c0 1.3-.8 2.3-2.1 2.3c-1.3 0-2.1-1-2.1-2.3zm3.7 0c0-.9-.6-1.8-1.6-1.8c-1 0-1.6.9-1.6 1.8c0 1 .6 1.9 1.6 1.9c1 0 1.6-.9 1.6-1.9zM114 30h-.8v-.4h.8s-.03-.43 0-.4c0-.9.4-1.4 1.1-1.4c.3 0 .5.1.6.2l-.1.3c-.1 0-.2-.1-.4-.1c-.5 0-.8.4-.8 1c.04-.03 0 .4 0 .4h.9v.4h-.9v3.9h-.4V30zm4.9 3.1V30h-.7v-.4h.7v-1.2h.5v1.2h.9v.4h-.9s-.03 3 0 3c0 .4.1.6.4.6c.2 0 .4-.1.5-.2l.2.3c-.2.2-.4.3-.7.3c-.6 0-.9-.3-.9-.9zm5.2-2.2c0-.8-.4-1-1-1c-.6 0-1.2.3-1.4.7c-.04.02 0 3.3 0 3.3h-.5v-6h.5s-.04 2.32 0 2.3c.3-.4.9-.7 1.5-.7c.9 0 1.4.4 1.4 1.3v3.1h-.5s.03-2.95 0-3zm3.7-1.4c1.3 0 2.1 1 2.1 2.3c-.04-.04 0 .1 0 .1c0 0-3.68-.02-3.7 0c.1.9.7 1.7 1.7 1.7c.6 0 1.1-.2 1.4-.6l.3.3c-.4.5-1 .7-1.7.7c-1.3 0-2.2-.9-2.2-2.3c0-1.2.9-2.2 2.1-2.2zm-1.6 2h3.2c0-.7-.5-1.6-1.6-1.6c-1 0-1.5.9-1.6 1.6zm7.3-.6c0-1.8 1.3-3.1 3-3.1c1 0 1.7.4 2.2 1.1l-.4.2c-.4-.5-1.1-.8-1.8-.8c-1.4 0-2.5 1-2.5 2.6c0 1.6 1.1 2.7 2.5 2.7c.7 0 1.4-.4 1.8-.9l.4.2c-.5.7-1.2 1.1-2.2 1.1c-1.7 0-3-1.2-3-3.1zm5.9.8c0-1.2.8-2.2 2.1-2.2c1.3 0 2.1 1 2.1 2.2c0 1.3-.8 2.3-2.1 2.3c-1.3 0-2.1-1-2.1-2.3zm3.7 0c0-.9-.6-1.8-1.6-1.8c-1 0-1.6.9-1.6 1.8c0 1 .6 1.9 1.6 1.9c1 0 1.6-.9 1.6-1.9zm1.3 0c0-1.2.8-2.2 2.1-2.2c1.3 0 2.1 1 2.1 2.2c0 1.3-.8 2.3-2.1 2.3c-1.3 0-2.1-1-2.1-2.3zm3.7 0c0-.9-.6-1.8-1.6-1.8c-1 0-1.6.9-1.6 1.8c0 1 .6 1.9 1.6 1.9c1 0 1.6-.9 1.6-1.9zm1.6 3.9v-6h.5v.7c.3-.5.9-.8 1.5-.8c1.2 0 2 .8 2 2.2c0 1.4-.8 2.3-2 2.3c-.6 0-1.2-.3-1.5-.8v2.4h-.5zm1.9-5.7c-.6 0-1.2.3-1.4.8v2.1c.2.4.8.8 1.4.8c1 0 1.5-.8 1.5-1.9c0-1-.5-1.8-1.5-1.8zm5-.4c1.3 0 2.1 1 2.1 2.3c-.03-.04 0 .1 0 .1c0 0-3.67-.02-3.7 0c.1.9.7 1.7 1.7 1.7c.6 0 1.1-.2 1.5-.6l.2.3c-.4.5-1 .7-1.7.7c-1.3 0-2.2-.9-2.2-2.3c0-1.2.9-2.2 2.1-2.2zm-1.6 2h3.2c0-.7-.5-1.6-1.6-1.6c-1 0-1.5.9-1.6 1.6zm4.8-1.9h.4s.05.71 0 .7c.4-.5.9-.8 1.5-.8v.5h-.2c-.5 0-1.1.4-1.3.7c.05.04 0 3.2 0 3.2h-.4v-4.3zm7.3 1.8h-1.3v2.5h-.5v-6s2.2.01 2.2 0c1 0 1.8.7 1.8 1.8c0 1.1-.7 1.7-1.6 1.7c-.04-.01 1.7 2.5 1.7 2.5h-.6l-1.7-2.5zm.4-3c-.04-.03-1.7 0-1.7 0v2.6s1.66-.04 1.7 0c.7 0 1.3-.6 1.3-1.3c0-.8-.6-1.3-1.3-1.3zm2.9.1c0-.2.1-.4.3-.4c.2 0 .4.2.4.4c0 .2-.2.3-.4.3c-.2 0-.3-.1-.3-.3zm.1 1.1h.5v4.3h-.5v-4.3zm1.2 0h.5l1.6 3.8l1.5-3.8h.6l-1.9 4.3h-.5l-1.8-4.3zm6.7-.1c1.3 0 2.1 1 2.1 2.3c-.03-.04 0 .1 0 .1c0 0-3.67-.02-3.7 0c.1.9.7 1.7 1.7 1.7c.6 0 1.1-.2 1.5-.6l.2.3c-.4.5-1 .7-1.7.7c-1.3 0-2.2-.9-2.2-2.3c0-1.2.9-2.2 2.1-2.2zm-1.6 2h3.2c0-.7-.5-1.6-1.6-1.6c-1 0-1.5.9-1.6 1.6zm4.8-1.9h.5s-.05.71 0 .7c.3-.5.8-.8 1.4-.8v.5h-.2c-.5 0-1 .4-1.2.7c-.05.04 0 3.2 0 3.2h-.5v-4.3zm2.3 3.6c.2 0 .4.2.4.4c0 .2-.2.4-.4.4c-.3 0-.4-.2-.4-.4c0-.2.1-.4.4-.4zm5.8-4.8h-1.9v-.5h4.4v.5h-1.9v5.5h-.6v-5.5zm6.4 2.5c0-.8-.4-1-1-1c-.6 0-1.2.3-1.5.7c.04.02 0 3.3 0 3.3h-.4v-6h.4s.04 2.32 0 2.3c.4-.4 1-.7 1.6-.7c.9 0 1.4.4 1.4 1.3c-.02.05 0 3.1 0 3.1h-.5v-3zm3.7-1.4c1.3 0 2 1 2 2.3c.04-.04 0 .1 0 .1c0 0-3.59-.02-3.6 0c.1.9.7 1.7 1.7 1.7c.6 0 1.1-.2 1.4-.6l.3.3c-.5.5-1 .7-1.7.7c-1.3 0-2.2-.9-2.2-2.3c0-1.2.9-2.2 2.1-2.2zm-1.6 2h3.2c0-.7-.5-1.6-1.6-1.6c-1 0-1.6.9-1.6 1.6z" stroke="none" fill="#000"/></g><g id="Polygon107218"><path d="m3.9 18l-1.4 5.1h-.6l-1.7-6h.5l1.5 5.3l1.5-5.3h.4l1.5 5.3l1.5-5.3h.5l-1.7 6h-.6L3.9 18zm6.9 4.6c-.3.4-.8.6-1.4.6c-.8 0-1.6-.5-1.6-1.4c0-1 .8-1.5 1.6-1.5c.6 0 1.1.2 1.4.6v-.8c0-.7-.5-1-1.1-1c-.6 0-1 .2-1.4.6l-.2-.3c.4-.5.9-.7 1.6-.7c.9 0 1.6.4 1.6 1.4v3h-.5s.05-.5 0-.5zm0-1.3c-.3-.4-.7-.6-1.3-.6c-.7 0-1.2.5-1.2 1.1c0 .6.5 1 1.2 1c.6 0 1-.1 1.3-.5v-1zm2 1c-.03-.03 0-3.1 0-3.1h-.7v-.4h.7v-1.2h.4v1.2h.9v.4h-.9s.05 3 0 3c0 .4.2.6.5.6c.2 0 .4-.1.5-.2l.2.3c-.2.2-.4.3-.8.3c-.6 0-.8-.3-.8-.9zm4.1-3.6c1.3 0 2.1 1 2.1 2.3c-.04-.04 0 .1 0 .1c0 0-3.67-.02-3.7 0c.1.9.7 1.7 1.7 1.7c.6 0 1.1-.2 1.5-.6l.2.3c-.4.5-1 .7-1.7.7c-1.3 0-2.2-.9-2.2-2.3c0-1.2.9-2.2 2.1-2.2zm-1.6 2h3.2c0-.7-.5-1.6-1.6-1.6c-1 0-1.5.9-1.6 1.6zm4.8-1.9h.4s.05.71 0 .7c.4-.5.9-.8 1.5-.8v.5h-.2c-.5 0-1.1.4-1.3.7c.05.04 0 3.2 0 3.2h-.4v-4.3zm2.9.4h-.7v-.4h.7v-.4c0-.9.5-1.4 1.2-1.4c.2 0 .4.1.6.2l-.2.3c-.1 0-.2-.1-.4-.1c-.5 0-.7.4-.7 1c-.04-.03 0 .4 0 .4h.8v.4h-.8v3.9h-.5v-3.9zm2.1-.4h.5v.7c.4-.5.9-.8 1.5-.8v.5h-.3c-.4 0-1 .4-1.2.7v3.2h-.5v-4.3zm2.5 2.1c0-1.2.9-2.2 2.1-2.2c1.3 0 2.1 1 2.1 2.2c0 1.3-.8 2.3-2.1 2.3c-1.2 0-2.1-1-2.1-2.3zm3.7 0c0-.9-.5-1.8-1.6-1.8c-1 0-1.5.9-1.5 1.8c0 1 .5 1.9 1.5 1.9c1.1 0 1.6-.9 1.6-1.9zm4.6-.7c0-.9-.4-1.1-1.1-1.1c-.5 0-1.1.3-1.4.7c.02.02 0 3.3 0 3.3h-.5v-4.3h.5s.02.62 0 .6c.3-.4 1-.7 1.6-.7c.9 0 1.3.4 1.3 1.4c.05-.03 0 3 0 3h-.4s-.02-2.92 0-2.9zm1.9 2.1v-3.1h-.7v-.4h.7v-1.2h.5v1.2h.9v.4h-.9s-.02 3 0 3c0 .4.1.6.4.6c.2 0 .4-.1.5-.2l.2.3c-.2.2-.4.3-.7.3c-.6 0-.9-.3-.9-.9zm11.4-5.2s2.24.01 2.2 0c1.2 0 1.8.8 1.8 1.8c0 .9-.6 1.7-1.8 1.7c.04.02-1.7 0-1.7 0v2.5h-.5v-6zm2.2.5c-.02-.03-1.7 0-1.7 0v2.5s1.68.05 1.7 0c.8 0 1.3-.5 1.3-1.2c0-.8-.5-1.3-1.3-1.3zm5.4 5c-.4.4-.9.6-1.5.6c-.7 0-1.5-.5-1.5-1.4c0-1 .8-1.5 1.5-1.5c.6 0 1.1.2 1.5.6v-.8c0-.7-.5-1-1.2-1c-.5 0-.9.2-1.3.6l-.3-.3c.5-.5 1-.7 1.7-.7c.9 0 1.6.4 1.6 1.4c-.03-.05 0 3 0 3h-.5v-.5zm0-1.3c-.3-.4-.8-.6-1.3-.6c-.7 0-1.2.5-1.2 1.1c0 .6.5 1 1.2 1c.5 0 1-.1 1.3-.5v-1zm1.8-2.5h.5v.7c.4-.5.9-.8 1.5-.8v.5h-.3c-.4 0-1 .4-1.2.7v3.2h-.5v-4.3zm4.1 2.2l-.8.8v1.3h-.5v-6h.5v4.1l2.5-2.4h.7L63 20.7l2 2.4h-.6L62.7 21zm12.1-3.3c0-.2.2-.4.4-.4c.2 0 .3.2.3.4c0 .2-.1.3-.3.3c-.2 0-.4-.1-.4-.3zm.1 1.1h.5v4.3h-.5v-4.3zm1.8 3.4c.2.3.7.6 1.4.6c.7 0 1.1-.3 1.1-.8c0-.6-.6-.8-1.2-.9c-.7-.2-1.5-.4-1.5-1.2c0-.7.5-1.2 1.5-1.2c.8 0 1.3.2 1.6.6l-.3.3c-.2-.3-.7-.5-1.3-.5c-.7 0-1.1.3-1.1.7c0 .5.6.7 1.2.8c.7.2 1.6.4 1.6 1.3c0 .7-.6 1.3-1.6 1.3c-.8 0-1.3-.2-1.7-.7l.3-.3zm15.9.4c-.4.4-.8.6-1.5.6c-.7 0-1.5-.5-1.5-1.4c0-1 .8-1.5 1.5-1.5c.7 0 1.1.2 1.5.6v-.8c0-.7-.5-1-1.1-1c-.6 0-1 .2-1.4.6l-.3-.3c.5-.5 1-.7 1.7-.7c.9 0 1.6.4 1.6 1.4v3h-.5s.02-.5 0-.5zm0-1.3c-.3-.4-.8-.6-1.3-.6c-.7 0-1.2.5-1.2 1.1c0 .6.5 1 1.2 1c.5 0 1-.1 1.3-.5v-1zm4.8-1.1c0-.9-.4-1.1-1.1-1.1c-.5 0-1.1.3-1.4.7c.03.02 0 3.3 0 3.3h-.4v-4.3h.4s.03.62 0 .6c.3-.4 1-.7 1.6-.7c.9 0 1.4.4 1.4 1.4c-.04-.03 0 3 0 3h-.5v-2.9zm12.7-1.5c1.4 0 2.1 1 2.1 2.3v.1s-3.64-.02-3.6 0c0 .9.6 1.7 1.6 1.7c.6 0 1.1-.2 1.5-.6l.2.3c-.4.5-1 .7-1.7.7c-1.2 0-2.2-.9-2.2-2.3c0-1.2.9-2.2 2.1-2.2zm-1.5 2h3.1c0-.7-.5-1.6-1.6-1.6c-1 0-1.5.9-1.5 1.6zm4.6-3c0-.2.2-.4.3-.4c.2 0 .4.2.4.4c0 .2-.2.3-.4.3c-.1 0-.3-.1-.3-.3zm.1 1.1h.5v4.3h-.5v-4.3zm2.1 5.1c.4.4.8.6 1.5.6c.8 0 1.4-.4 1.4-1.4v-.7c-.3.4-.8.8-1.5.8c-1.1 0-1.9-.9-1.9-2.3c0-1.3.8-2.2 1.9-2.2c.6 0 1.2.3 1.5.8c.05-.04 0-.7 0-.7h.5s.02 4.26 0 4.3c0 1.3-.9 1.8-1.9 1.8c-.8 0-1.2-.2-1.7-.7l.2-.3zm2.9-4c-.2-.5-.8-.8-1.4-.8c-.9 0-1.5.8-1.5 1.8c0 1.1.6 1.9 1.5 1.9c.6 0 1.2-.4 1.4-.8v-2.1zm4.8.2c0-.8-.4-1-1-1c-.6 0-1.2.3-1.4.7c-.05.02 0 3.3 0 3.3h-.5v-6h.5s-.05 2.32 0 2.3c.3-.4.9-.7 1.5-.7c.9 0 1.4.4 1.4 1.3c-.02.05 0 3.1 0 3.1h-.5s.02-2.95 0-3zm1.9 2.2c.04-.03 0-3.1 0-3.1h-.7v-.4h.7v-1.2h.5v1.2h.9v.4h-.9s.02 3 0 3c0 .4.2.6.5.6c.2 0 .4-.1.5-.2l.1.3c-.1.2-.3.3-.7.3c-.6 0-.9-.3-.9-.9zm1.9-1.6h2.1v.4h-2.1v-.4zm5.8 1.9c-.4.4-.9.6-1.5.6c-.7 0-1.5-.5-1.5-1.4c0-1 .8-1.5 1.5-1.5c.6 0 1.1.2 1.5.6v-.8c0-.7-.5-1-1.2-1c-.5 0-.9.2-1.3.6l-.3-.3c.5-.5 1-.7 1.7-.7c.9 0 1.6.4 1.6 1.4c-.02-.05 0 3 0 3h-.5v-.5zm0-1.3c-.3-.4-.8-.6-1.3-.6c-.7 0-1.2.5-1.2 1.1c0 .6.5 1 1.2 1c.5 0 1-.1 1.3-.5v-1zm3.7-2.6c.8 0 1.2.3 1.5.7l-.3.3c-.3-.5-.7-.6-1.2-.6c-1 0-1.6.8-1.6 1.8c0 1.1.6 1.9 1.6 1.9c.5 0 .9-.2 1.2-.6l.3.3c-.3.4-.7.7-1.5.7c-1.3 0-2.1-1-2.1-2.3c0-1.2.8-2.2 2.1-2.2zm2.5.1h.5s-.03.71 0 .7c.3-.5.8-.8 1.4-.8v.5h-.2c-.4 0-1 .4-1.2.7c-.03.04 0 3.2 0 3.2h-.5v-4.3zm4.6-.1c1.3 0 2.1 1 2.1 2.3c-.04-.04 0 .1 0 .1c0 0-3.67-.02-3.7 0c.1.9.7 1.7 1.7 1.7c.6 0 1.1-.2 1.5-.6l.2.3c-.4.5-1 .7-1.7.7c-1.3 0-2.2-.9-2.2-2.3c0-1.2.9-2.2 2.1-2.2zm-1.6 2h3.2c0-.7-.5-1.6-1.6-1.6c-1 0-1.5.9-1.6 1.6zm13.8 4.1v-6h.5v.7c.3-.5.9-.8 1.5-.8c1.2 0 2 .8 2 2.2c0 1.4-.8 2.3-2 2.3c-.6 0-1.1-.3-1.5-.8v2.4h-.5zm1.9-5.7c-.6 0-1.1.3-1.4.8v2.1c.3.4.8.8 1.4.8c1 0 1.6-.8 1.6-1.9c0-1-.6-1.8-1.6-1.8zm5.9 3.5c-.3.4-.8.6-1.4.6c-.8 0-1.5-.5-1.5-1.4c0-1 .7-1.5 1.5-1.5c.6 0 1.1.2 1.4.6v-.8c0-.7-.5-1-1.1-1c-.6 0-1 .2-1.4.6l-.2-.3c.4-.5.9-.7 1.6-.7c.9 0 1.6.4 1.6 1.4v3h-.5s.05-.5 0-.5zm0-1.3c-.3-.4-.7-.6-1.3-.6c-.7 0-1.2.5-1.2 1.1c0 .6.5 1 1.2 1c.6 0 1-.1 1.3-.5v-1zm1.9-2.5h.5s-.05.71 0 .7c.3-.5.8-.8 1.4-.8v.5h-.2c-.5 0-1.1.4-1.2.7c-.05.04 0 3.2 0 3.2h-.5v-4.3zm4 2.2l-.8.8v1.3h-.5v-6h.5v4.1l2.6-2.4h.6l-2 1.9l2 2.4h-.6l-1.8-2.1zm15 1.6c-.4.4-.8.6-1.4.6c-.8 0-1.6-.5-1.6-1.4c0-1 .8-1.5 1.6-1.5c.6 0 1 .2 1.4.6v-.8c0-.7-.5-1-1.1-1c-.6 0-1 .2-1.4.6l-.3-.3c.5-.5 1-.7 1.7-.7c.9 0 1.6.4 1.6 1.4v3h-.5s.03-.5 0-.5zm0-1.3c-.3-.4-.8-.6-1.3-.6c-.7 0-1.2.5-1.2 1.1c0 .6.5 1 1.2 1c.5 0 1-.1 1.3-.5v-1zm1.9-4.2h.4v6h-.4v-6zm1.5 3.8c0-1.2.9-2.2 2.1-2.2c1.3 0 2.1 1 2.1 2.2c0 1.3-.8 2.3-2.1 2.3c-1.2 0-2.1-1-2.1-2.3zm3.7 0c0-.9-.5-1.8-1.6-1.8c-1 0-1.5.9-1.5 1.8c0 1 .5 1.9 1.5 1.9c1.1 0 1.6-.9 1.6-1.9zm4.6-.7c0-.9-.4-1.1-1.1-1.1c-.5 0-1.1.3-1.4.7c.02.02 0 3.3 0 3.3h-.5v-4.3h.5s.02.62 0 .6c.3-.4 1-.7 1.6-.7c.9 0 1.4.4 1.4 1.4c-.05-.03 0 3 0 3h-.5s-.02-2.92 0-2.9zm2.1 3.7c.4.4.8.6 1.4.6c.8 0 1.5-.4 1.5-1.4v-.7c-.3.4-.8.8-1.5.8c-1.1 0-1.9-.9-1.9-2.3c0-1.3.8-2.2 1.9-2.2c.6 0 1.2.3 1.5.8c.02-.04 0-.7 0-.7h.5v4.3c0 1.3-.9 1.8-2 1.8c-.7 0-1.2-.2-1.7-.7l.3-.3zm2.9-4c-.2-.5-.8-.8-1.4-.8c-1 0-1.5.8-1.5 1.8c0 1.1.5 1.9 1.5 1.9c.6 0 1.2-.4 1.4-.8v-2.1z" stroke="none" fill="#000"/></g><g id="Polygon107217"><path d="m.5 5.9c.3.3.6.5 1.1.5c.7 0 1.1-.5 1.1-1.2c.03.05 0-4.1 0-4.1h.9s.03 4.16 0 4.2c0 1.3-.8 1.9-1.9 1.9C1 7.2.5 7 .1 6.6l.4-.7zm4.1-1c0-1.2.8-2.2 2.2-2.2c1.3 0 2.2 1 2.2 2.2c0 1.3-.9 2.3-2.2 2.3c-1.4 0-2.2-1-2.2-2.3zm3.5 0c0-.8-.4-1.5-1.3-1.5c-.9 0-1.4.7-1.4 1.5c0 .9.5 1.6 1.4 1.6c.9 0 1.3-.7 1.3-1.6zm3.7-2.2c1.3 0 2.1 1 2.1 2.3c.04 0 0 .2 0 .2h-3.4c.1.7.6 1.4 1.5 1.4c.4 0 .9-.2 1.3-.6l.3.6c-.4.4-1 .6-1.7.6c-1.3 0-2.3-.9-2.3-2.3c0-1.2 1-2.2 2.2-2.2zm-1.3 1.9h2.6c0-.6-.4-1.3-1.3-1.3c-.8 0-1.3.7-1.3 1.3zm8.6.2H18v2.3h-.9v-6s2.55.01 2.5 0c1.2 0 2 .7 2 1.9c0 1-.8 1.6-1.5 1.7c-.02.01 1.5 2.4 1.5 2.4h-1l-1.5-2.3zm.4-2.9H18v2.1h1.5c.7 0 1.1-.4 1.1-1c0-.7-.4-1.1-1.1-1.1zm2.9-.4c0-.3.3-.5.6-.5c.3 0 .5.2.5.5c0 .3-.2.5-.5.5c-.3 0-.6-.2-.6-.5zm.2 1.3h.8v4.3h-.8V2.8zm2-1.7h.8v6h-.8v-6zm3.9 1.6c1.3 0 2.1 1 2.1 2.3v.2h-3.4c0 .7.6 1.4 1.4 1.4c.5 0 1-.2 1.3-.6l.4.6c-.4.4-1 .6-1.7.6c-1.3 0-2.3-.9-2.3-2.3c0-1.2.9-2.2 2.2-2.2zm-1.3 1.9h2.6c0-.6-.4-1.3-1.3-1.3c-.9 0-1.3.7-1.3 1.3zm4.6 3.6c.3 0 .5-.1.6-.5c.04.03.3-.5.3-.5l-1.8-4.4h.9l1.3 3.4l1.4-3.4h.9s-2.19 5.14-2.2 5.1c-.3.7-.7 1-1.4 1c-.1 0-.4-.1-.5-.1l.1-.7c.1 0 .3.1.4.1zm9.7-5.7l-1.2 4.6h-1l-1.7-6h1l1.2 4.8l1.4-4.8h.7l1.3 4.8l1.2-4.8h1l-1.7 6h-.9l-1.3-4.6zm6.9 4.1c-.3.4-.8.6-1.4.6c-.7 0-1.5-.5-1.5-1.4c0-1 .8-1.4 1.5-1.4c.6 0 1.1.1 1.4.5v-.7c0-.5-.4-.9-1-.9c-.5 0-1 .2-1.3.6l-.4-.5c.5-.5 1.1-.7 1.8-.7c.9 0 1.7.4 1.7 1.5c.03-.02 0 2.9 0 2.9h-.8s.02-.47 0-.5zm0-1.2c-.2-.3-.6-.5-1.1-.5c-.6 0-1 .4-1 .9c0 .5.4.9 1 .9c.5 0 .9-.2 1.1-.5v-.8zm2.2.7V3.5h-.7v-.7h.7V1.6h.8v1.2h.9v.7h-.9s.01 2.47 0 2.5c0 .3.2.5.4.5c.2 0 .4-.1.5-.2l.2.6c-.2.2-.4.3-.9.3c-.7 0-1-.4-1-1.1zM55 2.7c1.3 0 2.1 1 2.1 2.3c.02 0 0 .2 0 .2h-3.4c0 .7.6 1.4 1.5 1.4c.4 0 .9-.2 1.2-.6l.4.6c-.4.4-1 .6-1.7.6c-1.3 0-2.3-.9-2.3-2.3c0-1.2.9-2.2 2.2-2.2zm-1.3 1.9h2.6c0-.6-.4-1.3-1.3-1.3c-.9 0-1.3.7-1.3 1.3zM58 2.8h.9s-.04.63 0 .6c.3-.4.8-.7 1.4-.7v.8h-.3c-.4 0-1 .3-1.1.6c-.04-.01 0 3 0 3h-.9V2.8zm3.2.7h-.7v-.7h.7v-.3c0-1 .5-1.5 1.3-1.5c.3 0 .5.1.7.2l-.2.6c-.1-.1-.2-.1-.3-.1c-.4 0-.7.3-.7.8v.3h.9v.7h-.9v3.6h-.8V3.5zm2.4-.7h.8s-.02.63 0 .6c.3-.4.8-.7 1.4-.7v.8h-.3c-.4 0-.9.3-1.1.6c-.02-.01 0 3 0 3h-.8V2.8zm2.7 2.1c0-1.2.8-2.2 2.2-2.2c1.3 0 2.1 1 2.1 2.2c0 1.3-.8 2.3-2.1 2.3c-1.4 0-2.2-1-2.2-2.3zm3.5 0c0-.8-.5-1.5-1.3-1.5c-.9 0-1.4.7-1.4 1.5c0 .9.5 1.6 1.4 1.6c.8 0 1.3-.7 1.3-1.6zm4.7-.6c0-.7-.3-.9-.9-.9c-.5 0-1 .3-1.2.6v3.1h-.8V2.8h.8v.6c.3-.4.9-.7 1.5-.7c1 0 1.4.4 1.4 1.4c.03-.04 0 3 0 3h-.8s.02-2.77 0-2.8zm2.2 1.8V3.5h-.7v-.7h.7V1.6h.8v1.2h.9v.7h-.9v2.5c0 .3.1.5.4.5c.2 0 .4-.1.5-.2l.2.6c-.2.2-.5.3-.9.3c-.7 0-1-.4-1-1.1zm4.7-5h2.6c1.2 0 1.9.9 1.9 1.9c0 1-.7 1.8-1.9 1.8h-1.7v2.3h-.9v-6zm2.5.8h-1.6v2.1h1.6c.6 0 1.1-.4 1.1-1c0-.7-.5-1.1-1.1-1.1zm5.3 4.7c-.3.4-.8.6-1.4.6c-.7 0-1.5-.5-1.5-1.4c0-1 .8-1.4 1.5-1.4c.6 0 1.1.1 1.4.5v-.7c0-.5-.4-.9-1.1-.9c-.5 0-.9.2-1.3.6l-.3-.5c.5-.5 1.1-.7 1.8-.7c.9 0 1.7.4 1.7 1.5c.02-.02 0 2.9 0 2.9h-.8v-.5zm0-1.2c-.2-.3-.7-.5-1.1-.5c-.6 0-1 .4-1 .9c0 .5.4.9 1 .9c.4 0 .9-.2 1.1-.5v-.8zm2-2.6h.8s.03.63 0 .6c.4-.4.9-.7 1.5-.7v.8h-.3c-.4 0-1 .3-1.2.6c.03-.01 0 3 0 3h-.8V2.8zm4.4 2.4l-.6.7v1.2h-.8v-6h.8v3.9l2.1-2.2h1l-1.9 1.9l1.9 2.4h-1l-1.5-1.9z" stroke="none" fill="#3797ef"/></g></svg>