<?xml version="1.0" standalone="no"?><!DOCTYPE svg PUBLIC "-//W3C//DTD SVG 1.1//EN" "http://www.w3.org/Graphics/SVG/1.1/DTD/svg11.dtd"><svg xmlns="http://www.w3.org/2000/svg" version="1.1" width="343px" height="29.9px" viewBox="0 -7 343 29.9" style="top:-7px"><desc>07</desc><defs/><g id="Polygon289264"><path d="m5.2 1.9c3.1 0 4.3 3 4.3 5.8c0 2.8-1.2 5.8-4.3 5.8c-3.1 0-4.4-3-4.4-5.8c0-2.8 1.3-5.8 4.4-5.8zm0 1.5c-2 0-2.7 2.1-2.7 4.3c0 2.2.7 4.3 2.7 4.3c1.9 0 2.6-2.1 2.6-4.3c0-2.2-.7-4.3-2.6-4.3zm11.5.1h-5.9V2.1h7.9v1.1l-4.5 10.1h-1.8l4.3-9.8z" stroke="none" fill="#88898a"/></g></svg>