<?xml version="1.0" standalone="no"?>
<!DOCTYPE svg PUBLIC "-//W3C//DTD SVG 1.1//EN" "http://www.w3.org/Graphics/SVG/1.1/DTD/svg11.dtd">
<svg xmlns="http://www.w3.org/2000/svg" version="1.1" width="58.2px" height="16.9px" viewBox="0 -4 58.2 16.9" style="top:-4px">
  <desc>Agent 1</desc>
  <defs/>
  <g id="Polygon268067">
    <path d="M 0.4 4.1 C 0.4 2.3 1.8 1 3.5 1 C 4.7 1 5.4 1.6 5.9 2.3 C 5.9 2.3 5.1 2.7 5.1 2.7 C 4.8 2.2 4.2 1.8 3.5 1.8 C 2.3 1.8 1.3 2.8 1.3 4.1 C 1.3 5.5 2.3 6.4 3.5 6.4 C 4.2 6.4 4.8 6 5.1 5.5 C 5.1 5.5 5.9 5.9 5.9 5.9 C 5.4 6.7 4.7 7.2 3.5 7.2 C 1.8 7.2 0.4 6 0.4 4.1 Z M 9.4 6.6 C 9 7 8.5 7.2 7.9 7.2 C 7.2 7.2 6.4 6.7 6.4 5.8 C 6.4 4.8 7.2 4.4 7.9 4.4 C 8.5 4.4 9 4.5 9.4 4.9 C 9.4 4.9 9.4 4.2 9.4 4.2 C 9.4 3.7 8.9 3.3 8.3 3.3 C 7.8 3.3 7.4 3.5 7 3.9 C 7 3.9 6.6 3.4 6.6 3.4 C 7.1 2.9 7.7 2.7 8.4 2.7 C 9.4 2.7 10.2 3.1 10.2 4.2 C 10.16 4.18 10.2 7.1 10.2 7.1 L 9.4 7.1 C 9.4 7.1 9.35 6.63 9.4 6.6 Z M 9.4 5.4 C 9.1 5.1 8.7 4.9 8.2 4.9 C 7.6 4.9 7.2 5.3 7.2 5.8 C 7.2 6.3 7.6 6.7 8.2 6.7 C 8.7 6.7 9.1 6.5 9.4 6.2 C 9.4 6.2 9.4 5.4 9.4 5.4 Z M 11.4 8.8 L 11.4 2.8 L 12.2 2.8 C 12.2 2.8 12.18 3.38 12.2 3.4 C 12.5 3 13 2.7 13.6 2.7 C 14.7 2.7 15.5 3.5 15.5 4.9 C 15.5 6.4 14.7 7.2 13.6 7.2 C 13 7.2 12.5 7 12.2 6.5 C 12.18 6.48 12.2 8.8 12.2 8.8 L 11.4 8.8 Z M 13.4 3.4 C 12.9 3.4 12.4 3.7 12.2 4 C 12.2 4 12.2 5.9 12.2 5.9 C 12.4 6.2 12.9 6.5 13.4 6.5 C 14.2 6.5 14.7 5.8 14.7 4.9 C 14.7 4 14.2 3.4 13.4 3.4 Z M 20.7 4.8 L 19.6 4.8 L 19.6 7.1 L 18.7 7.1 L 18.7 1.1 C 18.7 1.1 21.25 1.11 21.2 1.1 C 22.4 1.1 23.2 1.8 23.2 3 C 23.2 4 22.4 4.6 21.7 4.7 C 21.68 4.71 23.2 7.1 23.2 7.1 L 22.2 7.1 L 20.7 4.8 Z M 21.1 1.9 C 21.13 1.9 19.6 1.9 19.6 1.9 L 19.6 4 C 19.6 4 21.13 4.01 21.1 4 C 21.8 4 22.2 3.6 22.2 3 C 22.2 2.3 21.8 1.9 21.1 1.9 Z M 26.7 6.6 C 26.3 7 25.8 7.2 25.3 7.2 C 24.5 7.2 23.7 6.7 23.7 5.8 C 23.7 4.8 24.5 4.4 25.3 4.4 C 25.8 4.4 26.3 4.5 26.7 4.9 C 26.7 4.9 26.7 4.2 26.7 4.2 C 26.7 3.7 26.2 3.3 25.6 3.3 C 25.1 3.3 24.7 3.5 24.3 3.9 C 24.3 3.9 24 3.4 24 3.4 C 24.4 2.9 25 2.7 25.7 2.7 C 26.7 2.7 27.5 3.1 27.5 4.2 C 27.49 4.18 27.5 7.1 27.5 7.1 L 26.7 7.1 C 26.7 7.1 26.68 6.63 26.7 6.6 Z M 26.7 5.4 C 26.4 5.1 26 4.9 25.6 4.9 C 25 4.9 24.6 5.3 24.6 5.8 C 24.6 6.3 25 6.7 25.6 6.7 C 26 6.7 26.4 6.5 26.7 6.2 C 26.7 6.2 26.7 5.4 26.7 5.4 Z M 28.9 6.1 C 28.85 6.15 28.9 3.5 28.9 3.5 L 28.1 3.5 L 28.1 2.8 L 28.9 2.8 L 28.9 1.6 L 29.7 1.6 L 29.7 2.8 L 30.5 2.8 L 30.5 3.5 L 29.7 3.5 C 29.7 3.5 29.66 5.97 29.7 6 C 29.7 6.3 29.8 6.5 30.1 6.5 C 30.3 6.5 30.4 6.4 30.5 6.3 C 30.5 6.3 30.7 6.9 30.7 6.9 C 30.6 7.1 30.3 7.2 29.9 7.2 C 29.2 7.2 28.9 6.8 28.9 6.1 Z M 33.3 2.7 C 34.6 2.7 35.4 3.7 35.4 5 C 35.38 5 35.4 5.2 35.4 5.2 C 35.4 5.2 31.94 5.2 31.9 5.2 C 32 5.9 32.5 6.6 33.4 6.6 C 33.9 6.6 34.4 6.4 34.7 6 C 34.7 6 35.1 6.6 35.1 6.6 C 34.7 7 34 7.2 33.3 7.2 C 32 7.2 31.1 6.3 31.1 4.9 C 31.1 3.7 32 2.7 33.3 2.7 Z M 31.9 4.6 C 31.9 4.6 34.6 4.6 34.6 4.6 C 34.6 4 34.2 3.3 33.3 3.3 C 32.4 3.3 32 4 31.9 4.6 Z " stroke="none" fill="#3797ef"/>
  </g>
</svg>