<?xml version="1.0" standalone="no"?><!DOCTYPE svg PUBLIC "-//W3C//DTD SVG 1.1//EN" "http://www.w3.org/Graphics/SVG/1.1/DTD/svg11.dtd"><svg xmlns="http://www.w3.org/2000/svg" version="1.1" width="134px" height="27.3px" viewBox="0 -6 134 27.3" style="top:-6px"><desc>2,847</desc><defs/><g id="Polygon114148"><path d="m96.6 11.8c3.6-2.9 6-5 6-7c0-1.5-1.3-2.2-2.4-2.2c-1.4 0-2.4.6-2.9 1.4l-.7-.6c.8-1 2.1-1.6 3.6-1.6c1.5 0 3.3.9 3.3 3c0 2.3-2.5 4.4-5.5 6.9c-.03.02 5.5 0 5.5 0v.8h-6.9s-.05-.7 0-.7zm9.2 2.3c.5-.3.9-1 .9-1.5l-.1.1c-.4 0-.7-.3-.7-.7c0-.4.3-.7.7-.7c.4 0 .8.4.8 1c0 .9-.5 1.8-1.1 2.2l-.5-.4zm6.2-7c-1.3-.3-2.5-1.2-2.5-2.6c0-1.8 1.7-2.7 3.4-2.7c1.7 0 3.5.9 3.5 2.7c0 1.4-1.3 2.3-2.5 2.6c1.3.4 2.6 1.3 2.6 2.8c0 1.7-1.5 2.8-3.6 2.8c-2 0-3.6-1.1-3.6-2.8c0-1.5 1.3-2.4 2.7-2.8zm.9-4.5c-1.4 0-2.5.8-2.5 2c0 1.5 1.9 2 2.5 2.1c.7-.1 2.5-.6 2.5-2.1c0-1.2-1.1-2-2.5-2zm0 4.9c-.6.1-2.7.7-2.7 2.3c0 1.3 1.3 2.1 2.7 2.1c1.4 0 2.7-.8 2.7-2.1c0-1.6-2-2.2-2.7-2.3zM123 9.7h-5v-.9l4.7-6.8h1.2v6.8h1.6v.9h-1.6v2.8h-.9V9.7zm-4.1-.9h4.1V2.9l-4.1 5.9zm13.5-6h-5.8v-.8h6.9v.6l-4.5 9.9h-1l4.4-9.7z" stroke="none" fill="#000"/></g></svg>