<?xml version="1.0" standalone="no"?><!DOCTYPE svg PUBLIC "-//W3C//DTD SVG 1.1//EN" "http://www.w3.org/Graphics/SVG/1.1/DTD/svg11.dtd"><svg xmlns="http://www.w3.org/2000/svg" version="1.1" width="134.3px" height="15.9px" viewBox="0 -4 134.3 15.9" style="top:-4px"><desc>5% Every 5 Years</desc><defs/><g id="Polygon93161"><path d="m68.5 5.9c.4.5.9.9 1.7.9c.8 0 1.5-.7 1.5-1.5c0-.9-.7-1.5-1.5-1.5c-.6 0-1.1.2-1.5.6c.01.02-.4-.1-.4-.1V1.1h3.5v.5h-3s.03 2.32 0 2.3c.3-.3.8-.5 1.5-.5c1 0 1.9.6 1.9 1.9c0 1.2-.9 1.9-2 1.9c-1 0-1.7-.4-2.1-1l.4-.3zM74.4 1c.9 0 1.4.7 1.4 1.5c0 .8-.5 1.5-1.4 1.5c-.8 0-1.4-.7-1.4-1.5c0-.8.6-1.5 1.4-1.5zm3.3.1h.4l-3.8 6h-.4l3.8-6zm-3.3.3c-.6 0-1 .5-1 1.1c0 .6.4 1.1 1 1.1c.6 0 1-.5 1-1.1c0-.6-.4-1.1-1-1.1zm3.1 2.9c.8 0 1.4.6 1.4 1.5c0 .8-.6 1.4-1.4 1.4c-.9 0-1.4-.6-1.4-1.4c0-.9.5-1.5 1.4-1.5zm0 .3c-.6 0-1 .5-1 1.2c0 .6.4 1.1 1 1.1c.6 0 1-.5 1-1.1c0-.7-.4-1.2-1-1.2zm4.8-3.5h3.8v.5h-3.3v2.2h3.2v.5h-3.2v2.3h3.3v.5h-3.8v-6zm4.4 1.7h.5l1.6 3.8l1.5-3.8h.6L89 7.1h-.5l-1.8-4.3zm6.8-.1c1.3 0 2 1 2 2.3c.04-.04 0 .1 0 .1c0 0-3.59-.02-3.6 0c.1.9.7 1.7 1.7 1.7c.6 0 1.1-.2 1.4-.6l.3.3c-.5.5-1 .7-1.7.7c-1.3 0-2.2-.9-2.2-2.3c0-1.2.9-2.2 2.1-2.2zm-1.6 2h3.2c0-.7-.5-1.6-1.6-1.6c-1 0-1.6.9-1.6 1.6zm4.9-1.9h.4s.02.71 0 .7c.4-.5.9-.8 1.5-.8v.5h-.2c-.5 0-1.1.4-1.3.7c.02.04 0 3.2 0 3.2h-.4V2.8zm3 5.7c.3 0 .5-.2.6-.6c.03.02.4-.8.4-.8l-1.9-4.3h.6l1.5 3.8l1.6-3.8h.5s-2.21 5.26-2.2 5.3c-.2.5-.6.8-1.1.8c-.2 0-.4-.1-.5-.1l.1-.4c.1 0 .3.1.4.1zm6.7-2.6c.4.5 1 .9 1.7.9c.9 0 1.5-.7 1.5-1.5c0-.9-.6-1.5-1.5-1.5c-.5 0-1 .2-1.4.6c-.02.02-.4-.1-.4-.1V1.1h3.5v.5h-3v2.3c.3-.3.8-.5 1.4-.5c1 0 1.9.6 1.9 1.9c0 1.2-.9 1.9-2 1.9c-1 0-1.6-.4-2-1l.3-.3zm9.1-1.4l-2.4-3.4h.7l2 3l2-3h.6l-2.4 3.4v2.6h-.5V4.5zm4.5-1.8c1.3 0 2 1 2 2.3c.03-.04 0 .1 0 .1c0 0-3.61-.02-3.6 0c0 .9.7 1.7 1.7 1.7c.5 0 1-.2 1.4-.6l.3.3c-.5.5-1 .7-1.7.7c-1.3 0-2.2-.9-2.2-2.3c0-1.2.9-2.2 2.1-2.2zm-1.6 2h3.2c-.1-.7-.5-1.6-1.6-1.6c-1.1 0-1.6.9-1.6 1.6zm7.6 1.9c-.4.4-.9.6-1.5.6c-.7 0-1.5-.5-1.5-1.4c0-1 .8-1.5 1.5-1.5c.6 0 1.1.2 1.5.6v-.8c0-.7-.5-1-1.2-1c-.5 0-.9.2-1.3.6l-.3-.3c.5-.5 1-.7 1.7-.7c.9 0 1.6.4 1.6 1.4c-.03-.05 0 3 0 3h-.5v-.5zm0-1.3c-.3-.4-.8-.6-1.3-.6c-.7 0-1.2.5-1.2 1.1c0 .6.5 1 1.2 1c.5 0 1-.1 1.3-.5v-1zm1.9-2.5h.5v.7c.4-.5.9-.8 1.5-.8v.5h-.3c-.4 0-1 .4-1.2.7v3.2h-.5V2.8zm2.8 3.4c.3.3.8.6 1.4.6c.7 0 1.1-.3 1.1-.8c0-.6-.5-.8-1.2-.9c-.7-.2-1.5-.4-1.5-1.2c0-.7.6-1.2 1.5-1.2c.8 0 1.3.2 1.6.6l-.3.3c-.2-.3-.7-.5-1.3-.5c-.6 0-1 .3-1 .7c0 .5.5.7 1.1.8c.8.2 1.6.4 1.6 1.3c0 .7-.5 1.3-1.6 1.3c-.7 0-1.3-.2-1.7-.7l.3-.3z" stroke="none" fill="#000"/></g></svg>