<?xml version="1.0" standalone="no"?>
<!DOCTYPE svg PUBLIC "-//W3C//DTD SVG 1.1//EN" "http://www.w3.org/Graphics/SVG/1.1/DTD/svg11.dtd">
<svg xmlns="http://www.w3.org/2000/svg" version="1.1" width="158px" height="27.9px" viewBox="0 -6 158 27.9" style="top:-6px">
  <desc>Original Lease Term</desc>
  <defs/>
  <g id="Polygon276107">
    <path d="M 6.1 1.8 C 9.2 1.8 11.4 4.1 11.4 7.3 C 11.4 10.4 9.2 12.7 6.1 12.7 C 2.9 12.7 0.7 10.4 0.7 7.3 C 0.7 4.1 2.9 1.8 6.1 1.8 Z M 6.1 3.2 C 3.8 3.2 2.4 4.9 2.4 7.3 C 2.4 9.6 3.8 11.3 6.1 11.3 C 8.3 11.3 9.8 9.6 9.8 7.3 C 9.8 4.9 8.3 3.2 6.1 3.2 Z M 13.3 4.9 L 14.7 4.9 C 14.7 4.9 14.72 6.05 14.7 6.1 C 15.3 5.3 16.2 4.7 17.2 4.7 C 17.2 4.7 17.2 6.1 17.2 6.1 C 17.1 6.1 16.9 6.1 16.7 6.1 C 16 6.1 15.1 6.6 14.7 7.2 C 14.72 7.21 14.7 12.5 14.7 12.5 L 13.3 12.5 L 13.3 4.9 Z M 18.4 2.7 C 18.4 2.2 18.9 1.8 19.4 1.8 C 19.9 1.8 20.3 2.2 20.3 2.7 C 20.3 3.2 19.9 3.6 19.4 3.6 C 18.9 3.6 18.4 3.2 18.4 2.7 Z M 18.7 4.9 L 20.1 4.9 L 20.1 12.5 L 18.7 12.5 L 18.7 4.9 Z M 23 13.5 C 23.6 14.2 24.4 14.5 25.4 14.5 C 26.6 14.5 27.8 13.9 27.8 12.3 C 27.8 12.3 27.8 11.3 27.8 11.3 C 27.2 12.1 26.3 12.6 25.3 12.6 C 23.3 12.6 21.9 11.2 21.9 8.6 C 21.9 6.2 23.3 4.7 25.3 4.7 C 26.3 4.7 27.2 5.2 27.8 6 C 27.83 5.99 27.8 4.9 27.8 4.9 L 29.3 4.9 C 29.3 4.9 29.25 12.24 29.3 12.2 C 29.3 14.9 27.3 15.7 25.4 15.7 C 24.2 15.7 23.2 15.4 22.3 14.5 C 22.3 14.5 23 13.5 23 13.5 Z M 27.8 7.1 C 27.4 6.5 26.6 6 25.7 6 C 24.3 6 23.4 7.1 23.4 8.6 C 23.4 10.2 24.3 11.3 25.7 11.3 C 26.6 11.3 27.4 10.8 27.8 10.2 C 27.8 10.2 27.8 7.1 27.8 7.1 Z M 31.3 2.7 C 31.3 2.2 31.7 1.8 32.2 1.8 C 32.7 1.8 33.1 2.2 33.1 2.7 C 33.1 3.2 32.7 3.6 32.2 3.6 C 31.7 3.6 31.3 3.2 31.3 2.7 Z M 31.5 4.9 L 33 4.9 L 33 12.5 L 31.5 12.5 L 31.5 4.9 Z M 40.4 7.6 C 40.4 6.4 39.8 6 38.8 6 C 37.9 6 37.1 6.5 36.7 7.1 C 36.65 7.07 36.7 12.5 36.7 12.5 L 35.2 12.5 L 35.2 4.9 L 36.7 4.9 C 36.7 4.9 36.65 5.95 36.7 6 C 37.2 5.3 38.2 4.7 39.4 4.7 C 41 4.7 41.8 5.5 41.8 7.2 C 41.83 7.16 41.8 12.5 41.8 12.5 L 40.4 12.5 C 40.4 12.5 40.41 7.64 40.4 7.6 Z M 48.8 11.7 C 48.2 12.4 47.4 12.7 46.3 12.7 C 45.1 12.7 43.7 11.9 43.7 10.2 C 43.7 8.4 45 7.7 46.3 7.7 C 47.4 7.7 48.3 8 48.8 8.7 C 48.8 8.7 48.8 7.4 48.8 7.4 C 48.8 6.5 48.1 5.9 47 5.9 C 46.1 5.9 45.3 6.2 44.7 6.9 C 44.7 6.9 44 5.9 44 5.9 C 44.9 5.1 45.9 4.7 47.2 4.7 C 48.9 4.7 50.3 5.4 50.3 7.4 C 50.27 7.37 50.3 12.5 50.3 12.5 L 48.8 12.5 C 48.8 12.5 48.84 11.71 48.8 11.7 Z M 48.8 9.6 C 48.4 9 47.7 8.7 46.9 8.7 C 45.8 8.7 45.1 9.3 45.1 10.2 C 45.1 11.1 45.8 11.7 46.9 11.7 C 47.7 11.7 48.4 11.4 48.8 10.9 C 48.8 10.9 48.8 9.6 48.8 9.6 Z M 52.6 2 L 54 2 L 54 12.5 L 52.6 12.5 L 52.6 2 Z M 60.4 2 L 62 2 L 62 11.2 L 66.8 11.2 L 66.8 12.5 L 60.4 12.5 L 60.4 2 Z M 71.6 4.7 C 73.9 4.7 75.3 6.5 75.3 8.8 C 75.31 8.83 75.3 9.2 75.3 9.2 C 75.3 9.2 69.24 9.18 69.2 9.2 C 69.4 10.5 70.3 11.6 71.9 11.6 C 72.7 11.6 73.6 11.2 74.1 10.7 C 74.1 10.7 74.8 11.6 74.8 11.6 C 74 12.3 72.9 12.7 71.7 12.7 C 69.4 12.7 67.7 11.1 67.7 8.7 C 67.7 6.5 69.3 4.7 71.6 4.7 Z M 69.2 8.1 C 69.2 8.1 73.9 8.1 73.9 8.1 C 73.9 7.1 73.2 5.9 71.6 5.9 C 70 5.9 69.3 7.1 69.2 8.1 Z M 81.8 11.7 C 81.2 12.4 80.4 12.7 79.3 12.7 C 78.1 12.7 76.7 11.9 76.7 10.2 C 76.7 8.4 78 7.7 79.3 7.7 C 80.4 7.7 81.3 8 81.8 8.7 C 81.8 8.7 81.8 7.4 81.8 7.4 C 81.8 6.5 81.1 5.9 80 5.9 C 79.1 5.9 78.3 6.2 77.7 6.9 C 77.7 6.9 77 5.9 77 5.9 C 77.9 5.1 78.9 4.7 80.2 4.7 C 81.9 4.7 83.3 5.4 83.3 7.4 C 83.27 7.37 83.3 12.5 83.3 12.5 L 81.8 12.5 C 81.8 12.5 81.84 11.71 81.8 11.7 Z M 81.8 9.6 C 81.4 9 80.7 8.7 79.9 8.7 C 78.8 8.7 78.1 9.3 78.1 10.2 C 78.1 11.1 78.8 11.7 79.9 11.7 C 80.7 11.7 81.4 11.4 81.8 10.9 C 81.8 10.9 81.8 9.6 81.8 9.6 Z M 85.6 10.5 C 86.1 11.1 87.1 11.6 88.1 11.6 C 89.2 11.6 89.8 11.2 89.8 10.5 C 89.8 9.7 88.9 9.5 87.9 9.3 C 86.6 9 85.1 8.6 85.1 7 C 85.1 5.7 86.2 4.7 88 4.7 C 89.4 4.7 90.3 5.2 91 5.8 C 91 5.8 90.3 6.8 90.3 6.8 C 89.9 6.2 89 5.8 88.1 5.8 C 87.1 5.8 86.5 6.2 86.5 6.8 C 86.5 7.5 87.3 7.7 88.3 8 C 89.6 8.3 91.2 8.6 91.2 10.4 C 91.2 11.7 90.1 12.7 88.1 12.7 C 86.8 12.7 85.7 12.3 84.9 11.5 C 84.9 11.5 85.6 10.5 85.6 10.5 Z M 96.4 4.7 C 98.7 4.7 100.1 6.5 100.1 8.8 C 100.09 8.83 100.1 9.2 100.1 9.2 C 100.1 9.2 94.02 9.18 94 9.2 C 94.1 10.5 95.1 11.6 96.6 11.6 C 97.4 11.6 98.3 11.2 98.9 10.7 C 98.9 10.7 99.6 11.6 99.6 11.6 C 98.8 12.3 97.7 12.7 96.5 12.7 C 94.2 12.7 92.5 11.1 92.5 8.7 C 92.5 6.5 94.1 4.7 96.4 4.7 Z M 94 8.1 C 94 8.1 98.7 8.1 98.7 8.1 C 98.7 7.1 98 5.9 96.4 5.9 C 94.8 5.9 94.1 7.1 94 8.1 Z M 108.6 3.4 L 105.3 3.4 L 105.3 2 L 113.5 2 L 113.5 3.4 L 110.2 3.4 L 110.2 12.5 L 108.6 12.5 L 108.6 3.4 Z M 116.7 4.7 C 119 4.7 120.4 6.5 120.4 8.8 C 120.43 8.83 120.4 9.2 120.4 9.2 C 120.4 9.2 114.37 9.18 114.4 9.2 C 114.5 10.5 115.4 11.6 117 11.6 C 117.8 11.6 118.7 11.2 119.2 10.7 C 119.2 10.7 119.9 11.6 119.9 11.6 C 119.1 12.3 118.1 12.7 116.8 12.7 C 114.5 12.7 112.9 11.1 112.9 8.7 C 112.9 6.5 114.5 4.7 116.7 4.7 Z M 114.4 8.1 C 114.4 8.1 119 8.1 119 8.1 C 119 7.1 118.3 5.9 116.7 5.9 C 115.2 5.9 114.4 7.1 114.4 8.1 Z M 122.2 4.9 L 123.7 4.9 C 123.7 4.9 123.66 6.05 123.7 6.1 C 124.2 5.3 125.2 4.7 126.2 4.7 C 126.2 4.7 126.2 6.1 126.2 6.1 C 126 6.1 125.9 6.1 125.7 6.1 C 125 6.1 124 6.6 123.7 7.2 C 123.66 7.21 123.7 12.5 123.7 12.5 L 122.2 12.5 L 122.2 4.9 Z M 136.9 7.4 C 136.9 6.5 136.5 6 135.6 6 C 134.8 6 134 6.5 133.7 7.1 C 133.68 7.05 133.7 12.5 133.7 12.5 L 132.3 12.5 C 132.3 12.5 132.25 7.43 132.3 7.4 C 132.3 6.5 131.9 6 130.9 6 C 130.2 6 129.4 6.5 129 7.1 C 129.03 7.07 129 12.5 129 12.5 L 127.6 12.5 L 127.6 4.9 L 129 4.9 C 129 4.9 129.03 5.95 129 6 C 129.3 5.5 130.4 4.7 131.5 4.7 C 132.7 4.7 133.3 5.3 133.6 6.1 C 134 5.4 135 4.7 136.2 4.7 C 137.6 4.7 138.3 5.5 138.3 7 C 138.35 7 138.3 12.5 138.3 12.5 L 136.9 12.5 C 136.9 12.5 136.92 7.43 136.9 7.4 Z " stroke="none" fill="#000"/>
  </g>
</svg>