<?xml version="1.0" standalone="no"?>
<!DOCTYPE svg PUBLIC "-//W3C//DTD SVG 1.1//EN" "http://www.w3.org/Graphics/SVG/1.1/DTD/svg11.dtd">
<svg xmlns="http://www.w3.org/2000/svg" version="1.1" width="92px" height="157.3px" viewBox="0 -4 92 157.3" style="top:-4px">
  <desc>Lease Type Type of Ownership Original Lease Term Commencement Date Lease Expiration Term Remaining Increases Options</desc>
  <defs/>
  <g id="Polygon209659">
    <path d="M 0.9 146.1 L 0.3 146.5 L 0.2 146.2 L 0.8 145.9 L 0.2 145.6 L 0.3 145.4 L 0.9 145.7 L 0.9 145 L 1.2 145 L 1.1 145.7 L 1.7 145.4 L 1.8 145.6 L 1.2 145.9 L 1.8 146.2 L 1.7 146.5 L 1.1 146.1 L 1.2 146.8 L 0.9 146.8 L 0.9 146.1 Z M 4.3 145 C 5.5 145 6.3 145.9 6.3 147.1 C 6.3 148.3 5.5 149.2 4.3 149.2 C 3.1 149.2 2.3 148.3 2.3 147.1 C 2.3 145.9 3.1 145 4.3 145 Z M 4.3 145.5 C 3.4 145.5 2.8 146.2 2.8 147.1 C 2.8 148 3.4 148.7 4.3 148.7 C 5.2 148.7 5.7 148 5.7 147.1 C 5.7 146.2 5.2 145.5 4.3 145.5 Z M 7 150.2 L 7 146.2 L 7.4 146.2 C 7.4 146.2 7.41 146.64 7.4 146.6 C 7.6 146.3 8 146.1 8.4 146.1 C 9.2 146.1 9.7 146.7 9.7 147.7 C 9.7 148.6 9.2 149.2 8.4 149.2 C 8 149.2 7.6 149 7.4 148.7 C 7.41 148.67 7.4 150.2 7.4 150.2 L 7 150.2 Z M 8.3 146.5 C 7.9 146.5 7.6 146.8 7.4 147 C 7.4 147 7.4 148.3 7.4 148.3 C 7.6 148.6 7.9 148.8 8.3 148.8 C 8.9 148.8 9.2 148.3 9.2 147.7 C 9.2 147 8.9 146.5 8.3 146.5 Z M 10.4 148.5 C 10.43 148.5 10.4 146.6 10.4 146.6 L 10 146.6 L 10 146.2 L 10.4 146.2 L 10.4 145.4 L 10.9 145.4 L 10.9 146.2 L 11.5 146.2 L 11.5 146.6 L 10.9 146.6 C 10.9 146.6 10.88 148.41 10.9 148.4 C 10.9 148.6 11 148.8 11.2 148.8 C 11.3 148.8 11.4 148.7 11.5 148.7 C 11.5 148.7 11.6 149 11.6 149 C 11.5 149.1 11.3 149.2 11.1 149.2 C 10.6 149.2 10.4 148.9 10.4 148.5 Z M 12 145.4 C 12 145.3 12.1 145.1 12.3 145.1 C 12.4 145.1 12.6 145.3 12.6 145.4 C 12.6 145.6 12.4 145.7 12.3 145.7 C 12.1 145.7 12 145.6 12 145.4 Z M 12 146.2 L 12.5 146.2 L 12.5 149.1 L 12 149.1 L 12 146.2 Z M 13.2 147.7 C 13.2 146.8 13.7 146.1 14.6 146.1 C 15.5 146.1 16 146.8 16 147.7 C 16 148.5 15.5 149.2 14.6 149.2 C 13.7 149.2 13.2 148.5 13.2 147.7 Z M 15.6 147.7 C 15.6 147.1 15.2 146.5 14.6 146.5 C 14 146.5 13.6 147.1 13.6 147.7 C 13.6 148.3 14 148.8 14.6 148.8 C 15.2 148.8 15.6 148.3 15.6 147.7 Z M 18.7 147.2 C 18.7 146.7 18.4 146.5 18 146.5 C 17.7 146.5 17.3 146.8 17.2 147 C 17.16 146.99 17.2 149.1 17.2 149.1 L 16.7 149.1 L 16.7 146.2 L 17.2 146.2 C 17.2 146.2 17.16 146.63 17.2 146.6 C 17.4 146.4 17.8 146.1 18.2 146.1 C 18.8 146.1 19.1 146.4 19.1 147.1 C 19.12 147.08 19.1 149.1 19.1 149.1 L 18.7 149.1 C 18.7 149.1 18.67 147.21 18.7 147.2 Z M 21.8 148.8 C 21.5 149 21.2 149.2 20.8 149.2 C 20.3 149.2 19.8 148.9 19.8 148.2 C 19.8 147.6 20.3 147.3 20.8 147.3 C 21.2 147.3 21.5 147.4 21.8 147.7 C 21.8 147.7 21.8 147.1 21.8 147.1 C 21.8 146.8 21.5 146.5 21 146.5 C 20.7 146.5 20.4 146.7 20.1 146.9 C 20.1 146.9 19.9 146.6 19.9 146.6 C 20.2 146.3 20.6 146.1 21.1 146.1 C 21.7 146.1 22.2 146.4 22.2 147.1 C 22.22 147.12 22.2 149.1 22.2 149.1 L 21.8 149.1 C 21.8 149.1 21.77 148.78 21.8 148.8 Z M 21.8 148 C 21.6 147.7 21.3 147.6 21 147.6 C 20.5 147.6 20.3 147.9 20.3 148.2 C 20.3 148.6 20.5 148.9 21 148.9 C 21.3 148.9 21.6 148.7 21.8 148.5 C 21.8 148.5 21.8 148 21.8 148 Z M 23.1 145.1 L 23.5 145.1 L 23.5 149.1 L 23.1 149.1 L 23.1 145.1 Z M 26.4 145.9 L 26.4 149.1 L 25.9 149.1 L 25.9 145.1 L 26.4 145.1 L 28.7 148.3 L 28.7 145.1 L 29.2 145.1 L 29.2 149.1 L 28.7 149.1 L 26.4 145.9 Z M 29.9 147.7 C 29.9 146.8 30.4 146.1 31.3 146.1 C 32.2 146.1 32.7 146.8 32.7 147.7 C 32.7 148.5 32.2 149.2 31.3 149.2 C 30.4 149.2 29.9 148.5 29.9 147.7 Z M 32.2 147.7 C 32.2 147.1 31.9 146.5 31.3 146.5 C 30.7 146.5 30.3 147.1 30.3 147.7 C 30.3 148.3 30.7 148.8 31.3 148.8 C 31.9 148.8 32.2 148.3 32.2 147.7 Z M 33.5 148.5 C 33.49 148.5 33.5 146.6 33.5 146.6 L 33 146.6 L 33 146.2 L 33.5 146.2 L 33.5 145.4 L 33.9 145.4 L 33.9 146.2 L 34.5 146.2 L 34.5 146.6 L 33.9 146.6 C 33.9 146.6 33.94 148.41 33.9 148.4 C 33.9 148.6 34 148.8 34.2 148.8 C 34.4 148.8 34.5 148.7 34.5 148.7 C 34.5 148.7 34.7 149 34.7 149 C 34.6 149.1 34.4 149.2 34.1 149.2 C 33.7 149.2 33.5 148.9 33.5 148.5 Z M 36.4 146.1 C 37.2 146.1 37.8 146.8 37.8 147.7 C 37.75 147.69 37.8 147.8 37.8 147.8 C 37.8 147.8 35.41 147.81 35.4 147.8 C 35.4 148.4 35.8 148.8 36.4 148.8 C 36.8 148.8 37.1 148.7 37.3 148.4 C 37.3 148.4 37.6 148.7 37.6 148.7 C 37.3 149 36.9 149.2 36.4 149.2 C 35.5 149.2 34.9 148.6 34.9 147.7 C 34.9 146.8 35.5 146.1 36.4 146.1 Z M 35.4 147.5 C 35.4 147.5 37.3 147.5 37.3 147.5 C 37.3 147 37 146.5 36.4 146.5 C 35.7 146.5 35.4 147 35.4 147.5 Z " stroke="none" fill="#88898a"/>
  </g>
  <g id="Polygon209658">
    <path d="M 3.4 127 C 5.2 127 6.5 128.3 6.5 130.1 C 6.5 131.9 5.2 133.2 3.4 133.2 C 1.6 133.2 0.4 131.9 0.4 130.1 C 0.4 128.3 1.6 127 3.4 127 Z M 3.4 127.8 C 2.2 127.8 1.3 128.8 1.3 130.1 C 1.3 131.4 2.2 132.4 3.4 132.4 C 4.7 132.4 5.5 131.4 5.5 130.1 C 5.5 128.8 4.7 127.8 3.4 127.8 Z M 7.4 134.8 L 7.4 128.8 L 8.3 128.8 C 8.3 128.8 8.25 129.38 8.3 129.4 C 8.6 129 9.1 128.7 9.7 128.7 C 10.8 128.7 11.6 129.5 11.6 130.9 C 11.6 132.4 10.8 133.2 9.7 133.2 C 9.1 133.2 8.6 133 8.3 132.5 C 8.25 132.48 8.3 134.8 8.3 134.8 L 7.4 134.8 Z M 9.5 129.4 C 9 129.4 8.5 129.7 8.3 130 C 8.3 130 8.3 131.9 8.3 131.9 C 8.5 132.2 9 132.5 9.5 132.5 C 10.3 132.5 10.8 131.8 10.8 130.9 C 10.8 130 10.3 129.4 9.5 129.4 Z M 12.7 132.1 C 12.71 132.15 12.7 129.5 12.7 129.5 L 12 129.5 L 12 128.8 L 12.7 128.8 L 12.7 127.6 L 13.5 127.6 L 13.5 128.8 L 14.4 128.8 L 14.4 129.5 L 13.5 129.5 C 13.5 129.5 13.52 131.97 13.5 132 C 13.5 132.3 13.7 132.5 13.9 132.5 C 14.1 132.5 14.3 132.4 14.4 132.3 C 14.4 132.3 14.6 132.9 14.6 132.9 C 14.4 133.1 14.2 133.2 13.7 133.2 C 13.1 133.2 12.7 132.8 12.7 132.1 Z M 15.1 127.5 C 15.1 127.2 15.3 127 15.6 127 C 15.9 127 16.1 127.2 16.1 127.5 C 16.1 127.8 15.9 128 15.6 128 C 15.3 128 15.1 127.8 15.1 127.5 Z M 15.2 128.8 L 16 128.8 L 16 133.1 L 15.2 133.1 L 15.2 128.8 Z M 16.9 130.9 C 16.9 129.7 17.8 128.7 19.1 128.7 C 20.5 128.7 21.3 129.7 21.3 130.9 C 21.3 132.2 20.5 133.2 19.1 133.2 C 17.8 133.2 16.9 132.2 16.9 130.9 Z M 20.5 130.9 C 20.5 130.1 20 129.4 19.1 129.4 C 18.3 129.4 17.8 130.1 17.8 130.9 C 17.8 131.8 18.3 132.5 19.1 132.5 C 20 132.5 20.5 131.8 20.5 130.9 Z M 25.2 130.3 C 25.2 129.6 24.8 129.4 24.3 129.4 C 23.8 129.4 23.3 129.7 23.1 130 C 23.08 130 23.1 133.1 23.1 133.1 L 22.3 133.1 L 22.3 128.8 L 23.1 128.8 C 23.1 128.8 23.08 129.37 23.1 129.4 C 23.4 129 23.9 128.7 24.6 128.7 C 25.5 128.7 26 129.1 26 130.1 C 26.02 130.06 26 133.1 26 133.1 L 25.2 133.1 C 25.2 133.1 25.21 130.33 25.2 130.3 Z M 27.2 131.9 C 27.5 132.3 28.1 132.6 28.7 132.6 C 29.3 132.6 29.6 132.3 29.6 131.9 C 29.6 131.5 29.1 131.4 28.6 131.2 C 27.8 131.1 27 130.9 27 129.9 C 27 129.2 27.6 128.7 28.6 128.7 C 29.4 128.7 29.9 128.9 30.3 129.3 C 30.3 129.3 29.9 129.8 29.9 129.8 C 29.7 129.5 29.2 129.3 28.6 129.3 C 28.1 129.3 27.7 129.5 27.7 129.9 C 27.7 130.3 28.2 130.4 28.7 130.5 C 29.5 130.7 30.4 130.9 30.4 131.9 C 30.4 132.6 29.8 133.2 28.6 133.2 C 27.9 133.2 27.3 133 26.8 132.5 C 26.8 132.5 27.2 131.9 27.2 131.9 Z " stroke="none" fill="#242423"/>
  </g>
  <g id="Polygon209657">
    <path d="M 0.7 109.1 L 1.6 109.1 L 1.6 115.1 L 0.7 115.1 L 0.7 109.1 Z M 5.7 112.3 C 5.7 111.6 5.4 111.4 4.8 111.4 C 4.3 111.4 3.8 111.7 3.6 112 C 3.61 112 3.6 115.1 3.6 115.1 L 2.8 115.1 L 2.8 110.8 L 3.6 110.8 C 3.6 110.8 3.61 111.37 3.6 111.4 C 3.9 111 4.5 110.7 5.1 110.7 C 6.1 110.7 6.5 111.1 6.5 112.1 C 6.54 112.06 6.5 115.1 6.5 115.1 L 5.7 115.1 C 5.7 115.1 5.73 112.33 5.7 112.3 Z M 9.7 110.7 C 10.5 110.7 11 111 11.3 111.4 C 11.3 111.4 10.8 111.9 10.8 111.9 C 10.5 111.5 10.2 111.4 9.7 111.4 C 8.9 111.4 8.3 112 8.3 112.9 C 8.3 113.8 8.9 114.5 9.7 114.5 C 10.2 114.5 10.5 114.3 10.8 114 C 10.8 114 11.3 114.5 11.3 114.5 C 11 114.9 10.5 115.2 9.7 115.2 C 8.4 115.2 7.5 114.2 7.5 112.9 C 7.5 111.6 8.4 110.7 9.7 110.7 Z M 12.1 110.8 L 12.9 110.8 C 12.9 110.8 12.92 111.43 12.9 111.4 C 13.3 111 13.8 110.7 14.3 110.7 C 14.3 110.7 14.3 111.5 14.3 111.5 C 14.3 111.5 14.2 111.5 14.1 111.5 C 13.7 111.5 13.1 111.8 12.9 112.1 C 12.92 112.09 12.9 115.1 12.9 115.1 L 12.1 115.1 L 12.1 110.8 Z M 17 110.7 C 18.3 110.7 19.1 111.7 19.1 113 C 19.09 113 19.1 113.2 19.1 113.2 C 19.1 113.2 15.65 113.2 15.7 113.2 C 15.7 113.9 16.3 114.6 17.1 114.6 C 17.6 114.6 18.1 114.4 18.4 114 C 18.4 114 18.8 114.6 18.8 114.6 C 18.4 115 17.7 115.2 17 115.2 C 15.7 115.2 14.8 114.3 14.8 112.9 C 14.8 111.7 15.7 110.7 17 110.7 Z M 15.6 112.6 C 15.6 112.6 18.3 112.6 18.3 112.6 C 18.3 112 17.9 111.3 17 111.3 C 16.1 111.3 15.7 112 15.6 112.6 Z M 22.7 114.6 C 22.4 115 21.9 115.2 21.3 115.2 C 20.6 115.2 19.8 114.7 19.8 113.8 C 19.8 112.8 20.5 112.4 21.3 112.4 C 21.9 112.4 22.4 112.5 22.7 112.9 C 22.7 112.9 22.7 112.2 22.7 112.2 C 22.7 111.7 22.3 111.3 21.6 111.3 C 21.1 111.3 20.7 111.5 20.3 111.9 C 20.3 111.9 20 111.4 20 111.4 C 20.5 110.9 21.1 110.7 21.8 110.7 C 22.7 110.7 23.5 111.1 23.5 112.2 C 23.51 112.18 23.5 115.1 23.5 115.1 L 22.7 115.1 C 22.7 115.1 22.7 114.63 22.7 114.6 Z M 22.7 113.4 C 22.5 113.1 22 112.9 21.6 112.9 C 21 112.9 20.6 113.3 20.6 113.8 C 20.6 114.3 21 114.7 21.6 114.7 C 22 114.7 22.5 114.5 22.7 114.2 C 22.7 114.2 22.7 113.4 22.7 113.4 Z M 24.7 113.9 C 25 114.3 25.6 114.6 26.2 114.6 C 26.8 114.6 27.1 114.3 27.1 113.9 C 27.1 113.5 26.6 113.4 26.1 113.2 C 25.3 113.1 24.5 112.9 24.5 111.9 C 24.5 111.2 25.1 110.7 26.1 110.7 C 26.9 110.7 27.4 110.9 27.8 111.3 C 27.8 111.3 27.4 111.8 27.4 111.8 C 27.2 111.5 26.7 111.3 26.1 111.3 C 25.6 111.3 25.2 111.5 25.2 111.9 C 25.2 112.3 25.7 112.4 26.2 112.5 C 27 112.7 27.9 112.9 27.9 113.9 C 27.9 114.6 27.3 115.2 26.1 115.2 C 25.4 115.2 24.8 115 24.3 114.5 C 24.3 114.5 24.7 113.9 24.7 113.9 Z M 30.7 110.7 C 32 110.7 32.9 111.7 32.9 113 C 32.86 113 32.9 113.2 32.9 113.2 C 32.9 113.2 29.42 113.2 29.4 113.2 C 29.5 113.9 30 114.6 30.9 114.6 C 31.4 114.6 31.9 114.4 32.2 114 C 32.2 114 32.6 114.6 32.6 114.6 C 32.1 115 31.5 115.2 30.8 115.2 C 29.5 115.2 28.6 114.3 28.6 112.9 C 28.6 111.7 29.5 110.7 30.7 110.7 Z M 29.4 112.6 C 29.4 112.6 32.1 112.6 32.1 112.6 C 32 112 31.7 111.3 30.7 111.3 C 29.9 111.3 29.5 112 29.4 112.6 Z M 33.8 113.9 C 34.1 114.3 34.7 114.6 35.3 114.6 C 35.9 114.6 36.2 114.3 36.2 113.9 C 36.2 113.5 35.7 113.4 35.1 113.2 C 34.4 113.1 33.5 112.9 33.5 111.9 C 33.5 111.2 34.1 110.7 35.2 110.7 C 35.9 110.7 36.5 110.9 36.8 111.3 C 36.8 111.3 36.5 111.8 36.5 111.8 C 36.2 111.5 35.7 111.3 35.2 111.3 C 34.6 111.3 34.3 111.5 34.3 111.9 C 34.3 112.3 34.8 112.4 35.3 112.5 C 36.1 112.7 37 112.9 37 113.9 C 37 114.6 36.4 115.2 35.2 115.2 C 34.5 115.2 33.8 115 33.4 114.5 C 33.4 114.5 33.8 113.9 33.8 113.9 Z " stroke="none" fill="#242423"/>
  </g>
  <g id="Polygon209656">
    <path d="M 2.1 91.9 L 0.3 91.9 L 0.3 91.1 L 4.9 91.1 L 4.9 91.9 L 3 91.9 L 3 97.1 L 2.1 97.1 L 2.1 91.9 Z M 6.6 92.7 C 7.9 92.7 8.7 93.7 8.7 95 C 8.75 95 8.7 95.2 8.7 95.2 C 8.7 95.2 5.31 95.2 5.3 95.2 C 5.4 95.9 5.9 96.6 6.8 96.6 C 7.2 96.6 7.7 96.4 8.1 96 C 8.1 96 8.5 96.6 8.5 96.6 C 8 97 7.4 97.2 6.7 97.2 C 5.4 97.2 4.5 96.3 4.5 94.9 C 4.5 93.7 5.4 92.7 6.6 92.7 Z M 5.3 94.6 C 5.3 94.6 8 94.6 8 94.6 C 7.9 94 7.6 93.3 6.6 93.3 C 5.8 93.3 5.3 94 5.3 94.6 Z M 9.7 92.8 L 10.5 92.8 C 10.5 92.8 10.48 93.43 10.5 93.4 C 10.8 93 11.3 92.7 11.9 92.7 C 11.9 92.7 11.9 93.5 11.9 93.5 C 11.8 93.5 11.7 93.5 11.6 93.5 C 11.2 93.5 10.7 93.8 10.5 94.1 C 10.48 94.09 10.5 97.1 10.5 97.1 L 9.7 97.1 L 9.7 92.8 Z M 17.9 94.2 C 17.9 93.7 17.7 93.4 17.2 93.4 C 16.7 93.4 16.3 93.7 16.1 94 C 16.07 94 16.1 97.1 16.1 97.1 L 15.3 97.1 C 15.3 97.1 15.26 94.21 15.3 94.2 C 15.3 93.7 15 93.4 14.5 93.4 C 14.1 93.4 13.7 93.7 13.4 94 C 13.44 94 13.4 97.1 13.4 97.1 L 12.6 97.1 L 12.6 92.8 L 13.4 92.8 C 13.4 92.8 13.44 93.37 13.4 93.4 C 13.6 93.1 14.2 92.7 14.8 92.7 C 15.5 92.7 15.9 93 16 93.5 C 16.3 93.1 16.8 92.7 17.5 92.7 C 18.3 92.7 18.7 93.1 18.7 94 C 18.72 93.97 18.7 97.1 18.7 97.1 L 17.9 97.1 C 17.9 97.1 17.91 94.21 17.9 94.2 Z M 24.2 94.8 L 23.1 94.8 L 23.1 97.1 L 22.2 97.1 L 22.2 91.1 C 22.2 91.1 24.7 91.11 24.7 91.1 C 25.8 91.1 26.6 91.8 26.6 93 C 26.6 94 25.9 94.6 25.1 94.7 C 25.13 94.71 26.7 97.1 26.7 97.1 L 25.6 97.1 L 24.2 94.8 Z M 24.6 91.9 C 24.58 91.9 23.1 91.9 23.1 91.9 L 23.1 94 C 23.1 94 24.58 94.01 24.6 94 C 25.2 94 25.7 93.6 25.7 93 C 25.7 92.3 25.2 91.9 24.6 91.9 Z M 29.3 92.7 C 30.6 92.7 31.4 93.7 31.4 95 C 31.37 95 31.4 95.2 31.4 95.2 C 31.4 95.2 27.94 95.2 27.9 95.2 C 28 95.9 28.5 96.6 29.4 96.6 C 29.9 96.6 30.4 96.4 30.7 96 C 30.7 96 31.1 96.6 31.1 96.6 C 30.6 97 30 97.2 29.3 97.2 C 28 97.2 27.1 96.3 27.1 94.9 C 27.1 93.7 28 92.7 29.3 92.7 Z M 27.9 94.6 C 27.9 94.6 30.6 94.6 30.6 94.6 C 30.6 94 30.2 93.3 29.3 93.3 C 28.4 93.3 28 94 27.9 94.6 Z M 37.6 94.2 C 37.6 93.7 37.4 93.4 36.8 93.4 C 36.4 93.4 36 93.7 35.7 94 C 35.75 94 35.7 97.1 35.7 97.1 L 34.9 97.1 C 34.9 97.1 34.94 94.21 34.9 94.2 C 34.9 93.7 34.7 93.4 34.2 93.4 C 33.7 93.4 33.3 93.7 33.1 94 C 33.11 94 33.1 97.1 33.1 97.1 L 32.3 97.1 L 32.3 92.8 L 33.1 92.8 C 33.1 92.8 33.11 93.37 33.1 93.4 C 33.3 93.1 33.9 92.7 34.5 92.7 C 35.2 92.7 35.6 93 35.7 93.5 C 35.9 93.1 36.5 92.7 37.2 92.7 C 38 92.7 38.4 93.1 38.4 94 C 38.39 93.97 38.4 97.1 38.4 97.1 L 37.6 97.1 C 37.6 97.1 37.58 94.21 37.6 94.2 Z M 42.3 96.6 C 41.9 97 41.4 97.2 40.9 97.2 C 40.1 97.2 39.3 96.7 39.3 95.8 C 39.3 94.8 40.1 94.4 40.9 94.4 C 41.4 94.4 41.9 94.5 42.3 94.9 C 42.3 94.9 42.3 94.2 42.3 94.2 C 42.3 93.7 41.8 93.3 41.2 93.3 C 40.7 93.3 40.3 93.5 39.9 93.9 C 39.9 93.9 39.6 93.4 39.6 93.4 C 40 92.9 40.6 92.7 41.3 92.7 C 42.3 92.7 43.1 93.1 43.1 94.2 C 43.08 94.18 43.1 97.1 43.1 97.1 L 42.3 97.1 C 42.3 97.1 42.27 96.63 42.3 96.6 Z M 42.3 95.4 C 42 95.1 41.6 94.9 41.2 94.9 C 40.6 94.9 40.2 95.3 40.2 95.8 C 40.2 96.3 40.6 96.7 41.2 96.7 C 41.6 96.7 42 96.5 42.3 96.2 C 42.3 96.2 42.3 95.4 42.3 95.4 Z M 44.2 91.5 C 44.2 91.2 44.4 91 44.7 91 C 45 91 45.2 91.2 45.2 91.5 C 45.2 91.8 45 92 44.7 92 C 44.4 92 44.2 91.8 44.2 91.5 Z M 44.3 92.8 L 45.1 92.8 L 45.1 97.1 L 44.3 97.1 L 44.3 92.8 Z M 49.2 94.3 C 49.2 93.6 48.9 93.4 48.3 93.4 C 47.8 93.4 47.3 93.7 47.1 94 C 47.11 94 47.1 97.1 47.1 97.1 L 46.3 97.1 L 46.3 92.8 L 47.1 92.8 C 47.1 92.8 47.11 93.37 47.1 93.4 C 47.4 93 48 92.7 48.6 92.7 C 49.6 92.7 50 93.1 50 94.1 C 50.04 94.06 50 97.1 50 97.1 L 49.2 97.1 C 49.2 97.1 49.23 94.33 49.2 94.3 Z M 51.1 91.5 C 51.1 91.2 51.4 91 51.6 91 C 51.9 91 52.2 91.2 52.2 91.5 C 52.2 91.8 51.9 92 51.6 92 C 51.4 92 51.1 91.8 51.1 91.5 Z M 51.2 92.8 L 52 92.8 L 52 97.1 L 51.2 97.1 L 51.2 92.8 Z M 56.2 94.3 C 56.2 93.6 55.8 93.4 55.3 93.4 C 54.7 93.4 54.3 93.7 54.1 94 C 54.05 94 54.1 97.1 54.1 97.1 L 53.2 97.1 L 53.2 92.8 L 54.1 92.8 C 54.1 92.8 54.05 93.37 54.1 93.4 C 54.3 93 54.9 92.7 55.6 92.7 C 56.5 92.7 57 93.1 57 94.1 C 56.99 94.06 57 97.1 57 97.1 L 56.2 97.1 C 56.2 97.1 56.18 94.33 56.2 94.3 Z M 58.5 97.6 C 58.9 98 59.3 98.2 59.9 98.2 C 60.6 98.2 61.3 97.9 61.3 97 C 61.3 97 61.3 96.4 61.3 96.4 C 60.9 96.8 60.4 97.1 59.8 97.1 C 58.7 97.1 57.9 96.3 57.9 94.9 C 57.9 93.5 58.7 92.7 59.8 92.7 C 60.4 92.7 60.9 92.9 61.3 93.4 C 61.28 93.39 61.3 92.8 61.3 92.8 L 62.1 92.8 C 62.1 92.8 62.09 96.94 62.1 96.9 C 62.1 98.4 61 98.9 59.9 98.9 C 59.2 98.9 58.7 98.7 58.1 98.2 C 58.1 98.2 58.5 97.6 58.5 97.6 Z M 61.3 94 C 61.1 93.7 60.6 93.4 60.1 93.4 C 59.3 93.4 58.8 94 58.8 94.9 C 58.8 95.8 59.3 96.4 60.1 96.4 C 60.6 96.4 61.1 96.1 61.3 95.8 C 61.3 95.8 61.3 94 61.3 94 Z " stroke="none" fill="#242423"/>
  </g>
  <g id="Polygon209655">
    <path d="M 0.7 73.1 L 1.6 73.1 L 1.6 78.3 L 4.3 78.3 L 4.3 79.1 L 0.7 79.1 L 0.7 73.1 Z M 6.9 74.7 C 8.2 74.7 9 75.7 9 77 C 9.04 77 9 77.2 9 77.2 C 9 77.2 5.6 77.2 5.6 77.2 C 5.7 77.9 6.2 78.6 7.1 78.6 C 7.5 78.6 8 78.4 8.4 78 C 8.4 78 8.7 78.6 8.7 78.6 C 8.3 79 7.7 79.2 7 79.2 C 5.7 79.2 4.7 78.3 4.7 76.9 C 4.7 75.7 5.7 74.7 6.9 74.7 Z M 5.6 76.6 C 5.6 76.6 8.2 76.6 8.2 76.6 C 8.2 76 7.8 75.3 6.9 75.3 C 6 75.3 5.6 76 5.6 76.6 Z M 12.6 78.6 C 12.3 79 11.8 79.2 11.2 79.2 C 10.5 79.2 9.7 78.7 9.7 77.8 C 9.7 76.8 10.5 76.4 11.2 76.4 C 11.8 76.4 12.3 76.5 12.6 76.9 C 12.6 76.9 12.6 76.2 12.6 76.2 C 12.6 75.7 12.2 75.3 11.6 75.3 C 11.1 75.3 10.7 75.5 10.3 75.9 C 10.3 75.9 9.9 75.4 9.9 75.4 C 10.4 74.9 11 74.7 11.7 74.7 C 12.7 74.7 13.5 75.1 13.5 76.2 C 13.45 76.18 13.5 79.1 13.5 79.1 L 12.6 79.1 C 12.6 79.1 12.65 78.63 12.6 78.6 Z M 12.6 77.4 C 12.4 77.1 12 76.9 11.5 76.9 C 10.9 76.9 10.5 77.3 10.5 77.8 C 10.5 78.3 10.9 78.7 11.5 78.7 C 12 78.7 12.4 78.5 12.6 78.2 C 12.6 78.2 12.6 77.4 12.6 77.4 Z M 14.7 77.9 C 15 78.3 15.5 78.6 16.1 78.6 C 16.7 78.6 17.1 78.3 17.1 77.9 C 17.1 77.5 16.6 77.4 16 77.2 C 15.3 77.1 14.4 76.9 14.4 75.9 C 14.4 75.2 15 74.7 16.1 74.7 C 16.8 74.7 17.4 74.9 17.7 75.3 C 17.7 75.3 17.4 75.8 17.4 75.8 C 17.1 75.5 16.6 75.3 16.1 75.3 C 15.5 75.3 15.2 75.5 15.2 75.9 C 15.2 76.3 15.7 76.4 16.2 76.5 C 16.9 76.7 17.8 76.9 17.8 77.9 C 17.8 78.6 17.2 79.2 16.1 79.2 C 15.4 79.2 14.7 79 14.3 78.5 C 14.3 78.5 14.7 77.9 14.7 77.9 Z M 20.7 74.7 C 22 74.7 22.8 75.7 22.8 77 C 22.81 77 22.8 77.2 22.8 77.2 C 22.8 77.2 19.37 77.2 19.4 77.2 C 19.4 77.9 20 78.6 20.8 78.6 C 21.3 78.6 21.8 78.4 22.1 78 C 22.1 78 22.5 78.6 22.5 78.6 C 22.1 79 21.5 79.2 20.8 79.2 C 19.5 79.2 18.5 78.3 18.5 76.9 C 18.5 75.7 19.4 74.7 20.7 74.7 Z M 19.4 76.6 C 19.4 76.6 22 76.6 22 76.6 C 22 76 21.6 75.3 20.7 75.3 C 19.8 75.3 19.4 76 19.4 76.6 Z M 26 73.1 L 30 73.1 L 30 73.9 L 26.9 73.9 L 26.9 75.7 L 30 75.7 L 30 76.4 L 26.9 76.4 L 26.9 78.3 L 30 78.3 L 30 79.1 L 26 79.1 L 26 73.1 Z M 32.6 77.4 L 31.4 79.1 L 30.5 79.1 L 32.1 76.9 L 30.6 74.8 L 31.5 74.8 L 32.6 76.3 L 33.7 74.8 L 34.6 74.8 L 33.1 76.9 L 34.7 79.1 L 33.8 79.1 L 32.6 77.4 Z M 35.4 80.8 L 35.4 74.8 L 36.2 74.8 C 36.2 74.8 36.17 75.38 36.2 75.4 C 36.5 75 37 74.7 37.6 74.7 C 38.7 74.7 39.5 75.5 39.5 76.9 C 39.5 78.4 38.7 79.2 37.6 79.2 C 37 79.2 36.5 79 36.2 78.5 C 36.17 78.48 36.2 80.8 36.2 80.8 L 35.4 80.8 Z M 37.4 75.4 C 36.9 75.4 36.4 75.7 36.2 76 C 36.2 76 36.2 77.9 36.2 77.9 C 36.4 78.2 36.9 78.5 37.4 78.5 C 38.2 78.5 38.7 77.8 38.7 76.9 C 38.7 76 38.2 75.4 37.4 75.4 Z M 40.3 73.5 C 40.3 73.2 40.6 73 40.9 73 C 41.1 73 41.4 73.2 41.4 73.5 C 41.4 73.8 41.1 74 40.9 74 C 40.6 74 40.3 73.8 40.3 73.5 Z M 40.5 74.8 L 41.3 74.8 L 41.3 79.1 L 40.5 79.1 L 40.5 74.8 Z M 42.5 74.8 L 43.3 74.8 C 43.3 74.8 43.28 75.43 43.3 75.4 C 43.6 75 44.1 74.7 44.7 74.7 C 44.7 74.7 44.7 75.5 44.7 75.5 C 44.6 75.5 44.5 75.5 44.4 75.5 C 44 75.5 43.5 75.8 43.3 76.1 C 43.28 76.09 43.3 79.1 43.3 79.1 L 42.5 79.1 L 42.5 74.8 Z M 48.1 78.6 C 47.8 79 47.3 79.2 46.7 79.2 C 46 79.2 45.2 78.7 45.2 77.8 C 45.2 76.8 46 76.4 46.7 76.4 C 47.3 76.4 47.8 76.5 48.1 76.9 C 48.1 76.9 48.1 76.2 48.1 76.2 C 48.1 75.7 47.7 75.3 47 75.3 C 46.5 75.3 46.1 75.5 45.7 75.9 C 45.7 75.9 45.4 75.4 45.4 75.4 C 45.9 74.9 46.5 74.7 47.2 74.7 C 48.1 74.7 48.9 75.1 48.9 76.2 C 48.91 76.18 48.9 79.1 48.9 79.1 L 48.1 79.1 C 48.1 79.1 48.11 78.63 48.1 78.6 Z M 48.1 77.4 C 47.9 77.1 47.4 76.9 47 76.9 C 46.4 76.9 46 77.3 46 77.8 C 46 78.3 46.4 78.7 47 78.7 C 47.4 78.7 47.9 78.5 48.1 78.2 C 48.1 78.2 48.1 77.4 48.1 77.4 Z M 50.3 78.1 C 50.28 78.15 50.3 75.5 50.3 75.5 L 49.6 75.5 L 49.6 74.8 L 50.3 74.8 L 50.3 73.6 L 51.1 73.6 L 51.1 74.8 L 52 74.8 L 52 75.5 L 51.1 75.5 C 51.1 75.5 51.09 77.97 51.1 78 C 51.1 78.3 51.2 78.5 51.5 78.5 C 51.7 78.5 51.9 78.4 52 78.3 C 52 78.3 52.2 78.9 52.2 78.9 C 52 79.1 51.7 79.2 51.3 79.2 C 50.6 79.2 50.3 78.8 50.3 78.1 Z M 52.7 73.5 C 52.7 73.2 52.9 73 53.2 73 C 53.5 73 53.7 73.2 53.7 73.5 C 53.7 73.8 53.5 74 53.2 74 C 52.9 74 52.7 73.8 52.7 73.5 Z M 52.8 74.8 L 53.6 74.8 L 53.6 79.1 L 52.8 79.1 L 52.8 74.8 Z M 54.5 76.9 C 54.5 75.7 55.4 74.7 56.7 74.7 C 58.1 74.7 58.9 75.7 58.9 76.9 C 58.9 78.2 58.1 79.2 56.7 79.2 C 55.4 79.2 54.5 78.2 54.5 76.9 Z M 58.1 76.9 C 58.1 76.1 57.6 75.4 56.7 75.4 C 55.9 75.4 55.4 76.1 55.4 76.9 C 55.4 77.8 55.9 78.5 56.7 78.5 C 57.6 78.5 58.1 77.8 58.1 76.9 Z M 62.8 76.3 C 62.8 75.6 62.4 75.4 61.9 75.4 C 61.4 75.4 60.9 75.7 60.7 76 C 60.66 76 60.7 79.1 60.7 79.1 L 59.8 79.1 L 59.8 74.8 L 60.7 74.8 C 60.7 74.8 60.66 75.37 60.7 75.4 C 60.9 75 61.5 74.7 62.2 74.7 C 63.1 74.7 63.6 75.1 63.6 76.1 C 63.59 76.06 63.6 79.1 63.6 79.1 L 62.8 79.1 C 62.8 79.1 62.78 76.33 62.8 76.3 Z " stroke="none" fill="#242423"/>
  </g>
  <g id="Polygon209654">
    <path d="M 0.4 58.1 C 0.4 56.3 1.8 55 3.5 55 C 4.7 55 5.4 55.6 5.9 56.3 C 5.9 56.3 5.1 56.7 5.1 56.7 C 4.8 56.2 4.2 55.8 3.5 55.8 C 2.3 55.8 1.3 56.8 1.3 58.1 C 1.3 59.5 2.3 60.4 3.5 60.4 C 4.2 60.4 4.8 60 5.1 59.5 C 5.1 59.5 5.9 59.9 5.9 59.9 C 5.4 60.7 4.7 61.2 3.5 61.2 C 1.8 61.2 0.4 60 0.4 58.1 Z M 6.4 58.9 C 6.4 57.7 7.2 56.7 8.6 56.7 C 10 56.7 10.8 57.7 10.8 58.9 C 10.8 60.2 10 61.2 8.6 61.2 C 7.2 61.2 6.4 60.2 6.4 58.9 Z M 9.9 58.9 C 9.9 58.1 9.5 57.4 8.6 57.4 C 7.7 57.4 7.2 58.1 7.2 58.9 C 7.2 59.8 7.7 60.5 8.6 60.5 C 9.5 60.5 9.9 59.8 9.9 58.9 Z M 17 58.2 C 17 57.7 16.8 57.4 16.3 57.4 C 15.8 57.4 15.4 57.7 15.2 58 C 15.17 58 15.2 61.1 15.2 61.1 L 14.4 61.1 C 14.4 61.1 14.36 58.21 14.4 58.2 C 14.4 57.7 14.1 57.4 13.6 57.4 C 13.2 57.4 12.8 57.7 12.5 58 C 12.54 58 12.5 61.1 12.5 61.1 L 11.7 61.1 L 11.7 56.8 L 12.5 56.8 C 12.5 56.8 12.54 57.37 12.5 57.4 C 12.7 57.1 13.3 56.7 13.9 56.7 C 14.6 56.7 15 57 15.1 57.5 C 15.4 57.1 15.9 56.7 16.6 56.7 C 17.4 56.7 17.8 57.1 17.8 58 C 17.82 57.97 17.8 61.1 17.8 61.1 L 17 61.1 C 17 61.1 17.01 58.21 17 58.2 Z M 24.3 58.2 C 24.3 57.7 24.1 57.4 23.5 57.4 C 23.1 57.4 22.7 57.7 22.5 58 C 22.46 58 22.5 61.1 22.5 61.1 L 21.7 61.1 C 21.7 61.1 21.65 58.21 21.7 58.2 C 21.7 57.7 21.4 57.4 20.9 57.4 C 20.5 57.4 20 57.7 19.8 58 C 19.83 58 19.8 61.1 19.8 61.1 L 19 61.1 L 19 56.8 L 19.8 56.8 C 19.8 56.8 19.83 57.37 19.8 57.4 C 20 57.1 20.6 56.7 21.2 56.7 C 21.9 56.7 22.3 57 22.4 57.5 C 22.7 57.1 23.2 56.7 23.9 56.7 C 24.7 56.7 25.1 57.1 25.1 58 C 25.11 57.97 25.1 61.1 25.1 61.1 L 24.3 61.1 C 24.3 61.1 24.3 58.21 24.3 58.2 Z M 28.2 56.7 C 29.5 56.7 30.3 57.7 30.3 59 C 30.33 59 30.3 59.2 30.3 59.2 C 30.3 59.2 26.89 59.2 26.9 59.2 C 27 59.9 27.5 60.6 28.4 60.6 C 28.8 60.6 29.3 60.4 29.7 60 C 29.7 60 30 60.6 30 60.6 C 29.6 61 29 61.2 28.3 61.2 C 27 61.2 26 60.3 26 58.9 C 26 57.7 26.9 56.7 28.2 56.7 Z M 26.9 58.6 C 26.9 58.6 29.5 58.6 29.5 58.6 C 29.5 58 29.1 57.3 28.2 57.3 C 27.3 57.3 26.9 58 26.9 58.6 Z M 34.2 58.3 C 34.2 57.6 33.8 57.4 33.3 57.4 C 32.8 57.4 32.3 57.7 32.1 58 C 32.07 58 32.1 61.1 32.1 61.1 L 31.3 61.1 L 31.3 56.8 L 32.1 56.8 C 32.1 56.8 32.07 57.37 32.1 57.4 C 32.4 57 32.9 56.7 33.6 56.7 C 34.5 56.7 35 57.1 35 58.1 C 35 58.06 35 61.1 35 61.1 L 34.2 61.1 C 34.2 61.1 34.19 58.33 34.2 58.3 Z M 38.1 56.7 C 39 56.7 39.5 57 39.8 57.4 C 39.8 57.4 39.2 57.9 39.2 57.9 C 39 57.5 38.6 57.4 38.2 57.4 C 37.3 57.4 36.8 58 36.8 58.9 C 36.8 59.8 37.3 60.5 38.2 60.5 C 38.6 60.5 39 60.3 39.2 60 C 39.2 60 39.8 60.5 39.8 60.5 C 39.5 60.9 39 61.2 38.1 61.2 C 36.8 61.2 35.9 60.2 35.9 58.9 C 35.9 57.6 36.8 56.7 38.1 56.7 Z M 42.5 56.7 C 43.8 56.7 44.6 57.7 44.6 59 C 44.59 59 44.6 59.2 44.6 59.2 C 44.6 59.2 41.16 59.2 41.2 59.2 C 41.2 59.9 41.8 60.6 42.6 60.6 C 43.1 60.6 43.6 60.4 43.9 60 C 43.9 60 44.3 60.6 44.3 60.6 C 43.9 61 43.3 61.2 42.6 61.2 C 41.3 61.2 40.3 60.3 40.3 58.9 C 40.3 57.7 41.2 56.7 42.5 56.7 Z M 41.1 58.6 C 41.1 58.6 43.8 58.6 43.8 58.6 C 43.8 58 43.4 57.3 42.5 57.3 C 41.6 57.3 41.2 58 41.1 58.6 Z M 50.8 58.2 C 50.8 57.7 50.6 57.4 50 57.4 C 49.6 57.4 49.2 57.7 49 58 C 48.97 58 49 61.1 49 61.1 L 48.2 61.1 C 48.2 61.1 48.16 58.21 48.2 58.2 C 48.2 57.7 47.9 57.4 47.4 57.4 C 47 57.4 46.5 57.7 46.3 58 C 46.33 58 46.3 61.1 46.3 61.1 L 45.5 61.1 L 45.5 56.8 L 46.3 56.8 C 46.3 56.8 46.33 57.37 46.3 57.4 C 46.5 57.1 47.1 56.7 47.7 56.7 C 48.4 56.7 48.8 57 48.9 57.5 C 49.2 57.1 49.7 56.7 50.4 56.7 C 51.2 56.7 51.6 57.1 51.6 58 C 51.61 57.97 51.6 61.1 51.6 61.1 L 50.8 61.1 C 50.8 61.1 50.8 58.21 50.8 58.2 Z M 54.7 56.7 C 56 56.7 56.8 57.7 56.8 59 C 56.83 59 56.8 59.2 56.8 59.2 C 56.8 59.2 53.4 59.2 53.4 59.2 C 53.5 59.9 54 60.6 54.9 60.6 C 55.3 60.6 55.8 60.4 56.2 60 C 56.2 60 56.5 60.6 56.5 60.6 C 56.1 61 55.5 61.2 54.8 61.2 C 53.5 61.2 52.5 60.3 52.5 58.9 C 52.5 57.7 53.4 56.7 54.7 56.7 Z M 53.4 58.6 C 53.4 58.6 56 58.6 56 58.6 C 56 58 55.6 57.3 54.7 57.3 C 53.8 57.3 53.4 58 53.4 58.6 Z M 60.7 58.3 C 60.7 57.6 60.3 57.4 59.8 57.4 C 59.3 57.4 58.8 57.7 58.6 58 C 58.57 58 58.6 61.1 58.6 61.1 L 57.8 61.1 L 57.8 56.8 L 58.6 56.8 C 58.6 56.8 58.57 57.37 58.6 57.4 C 58.9 57 59.4 56.7 60.1 56.7 C 61 56.7 61.5 57.1 61.5 58.1 C 61.5 58.06 61.5 61.1 61.5 61.1 L 60.7 61.1 C 60.7 61.1 60.7 58.33 60.7 58.3 Z M 62.9 60.1 C 62.86 60.15 62.9 57.5 62.9 57.5 L 62.1 57.5 L 62.1 56.8 L 62.9 56.8 L 62.9 55.6 L 63.7 55.6 L 63.7 56.8 L 64.6 56.8 L 64.6 57.5 L 63.7 57.5 C 63.7 57.5 63.67 59.97 63.7 60 C 63.7 60.3 63.8 60.5 64.1 60.5 C 64.3 60.5 64.5 60.4 64.5 60.3 C 64.5 60.3 64.7 60.9 64.7 60.9 C 64.6 61.1 64.3 61.2 63.9 61.2 C 63.2 61.2 62.9 60.8 62.9 60.1 Z M 67.6 55.1 C 67.6 55.1 69.76 55.11 69.8 55.1 C 71.6 55.1 72.9 56.4 72.9 58.1 C 72.9 59.9 71.6 61.1 69.8 61.1 C 69.76 61.11 67.6 61.1 67.6 61.1 L 67.6 55.1 Z M 69.8 60.3 C 71.1 60.3 71.9 59.3 71.9 58.1 C 71.9 56.9 71.2 55.9 69.8 55.9 C 69.76 55.9 68.5 55.9 68.5 55.9 L 68.5 60.3 C 68.5 60.3 69.76 60.32 69.8 60.3 Z M 76.5 60.6 C 76.2 61 75.7 61.2 75.1 61.2 C 74.4 61.2 73.6 60.7 73.6 59.8 C 73.6 58.8 74.4 58.4 75.1 58.4 C 75.7 58.4 76.2 58.5 76.5 58.9 C 76.5 58.9 76.5 58.2 76.5 58.2 C 76.5 57.7 76.1 57.3 75.5 57.3 C 75 57.3 74.6 57.5 74.2 57.9 C 74.2 57.9 73.8 57.4 73.8 57.4 C 74.3 56.9 74.9 56.7 75.6 56.7 C 76.5 56.7 77.3 57.1 77.3 58.2 C 77.34 58.18 77.3 61.1 77.3 61.1 L 76.5 61.1 C 76.5 61.1 76.54 60.63 76.5 60.6 Z M 76.5 59.4 C 76.3 59.1 75.9 58.9 75.4 58.9 C 74.8 58.9 74.4 59.3 74.4 59.8 C 74.4 60.3 74.8 60.7 75.4 60.7 C 75.9 60.7 76.3 60.5 76.5 60.2 C 76.5 60.2 76.5 59.4 76.5 59.4 Z M 78.7 60.1 C 78.71 60.15 78.7 57.5 78.7 57.5 L 78 57.5 L 78 56.8 L 78.7 56.8 L 78.7 55.6 L 79.5 55.6 L 79.5 56.8 L 80.4 56.8 L 80.4 57.5 L 79.5 57.5 C 79.5 57.5 79.52 59.97 79.5 60 C 79.5 60.3 79.7 60.5 79.9 60.5 C 80.1 60.5 80.3 60.4 80.4 60.3 C 80.4 60.3 80.6 60.9 80.6 60.9 C 80.4 61.1 80.2 61.2 79.7 61.2 C 79.1 61.2 78.7 60.8 78.7 60.1 Z M 83.1 56.7 C 84.4 56.7 85.2 57.7 85.2 59 C 85.24 59 85.2 59.2 85.2 59.2 C 85.2 59.2 81.8 59.2 81.8 59.2 C 81.9 59.9 82.4 60.6 83.3 60.6 C 83.7 60.6 84.2 60.4 84.6 60 C 84.6 60 84.9 60.6 84.9 60.6 C 84.5 61 83.9 61.2 83.2 61.2 C 81.9 61.2 80.9 60.3 80.9 58.9 C 80.9 57.7 81.9 56.7 83.1 56.7 Z M 81.8 58.6 C 81.8 58.6 84.4 58.6 84.4 58.6 C 84.4 58 84 57.3 83.1 57.3 C 82.2 57.3 81.8 58 81.8 58.6 Z " stroke="none" fill="#242423"/>
  </g>
  <g id="Polygon209653">
    <path d="M 3.4 37 C 5.2 37 6.5 38.3 6.5 40.1 C 6.5 41.9 5.2 43.2 3.4 43.2 C 1.6 43.2 0.4 41.9 0.4 40.1 C 0.4 38.3 1.6 37 3.4 37 Z M 3.4 37.8 C 2.2 37.8 1.3 38.8 1.3 40.1 C 1.3 41.4 2.2 42.4 3.4 42.4 C 4.7 42.4 5.5 41.4 5.5 40.1 C 5.5 38.8 4.7 37.8 3.4 37.8 Z M 7.4 38.8 L 8.3 38.8 C 8.3 38.8 8.25 39.43 8.3 39.4 C 8.6 39 9.1 38.7 9.7 38.7 C 9.7 38.7 9.7 39.5 9.7 39.5 C 9.6 39.5 9.5 39.5 9.4 39.5 C 9 39.5 8.4 39.8 8.3 40.1 C 8.25 40.09 8.3 43.1 8.3 43.1 L 7.4 43.1 L 7.4 38.8 Z M 10.3 37.5 C 10.3 37.2 10.5 37 10.8 37 C 11.1 37 11.3 37.2 11.3 37.5 C 11.3 37.8 11.1 38 10.8 38 C 10.5 38 10.3 37.8 10.3 37.5 Z M 10.4 38.8 L 11.2 38.8 L 11.2 43.1 L 10.4 43.1 L 10.4 38.8 Z M 12.8 43.6 C 13.1 44 13.6 44.2 14.1 44.2 C 14.8 44.2 15.5 43.9 15.5 43 C 15.5 43 15.5 42.4 15.5 42.4 C 15.2 42.8 14.7 43.1 14.1 43.1 C 12.9 43.1 12.1 42.3 12.1 40.9 C 12.1 39.5 12.9 38.7 14.1 38.7 C 14.6 38.7 15.1 38.9 15.5 39.4 C 15.5 39.39 15.5 38.8 15.5 38.8 L 16.3 38.8 C 16.3 38.8 16.31 42.94 16.3 42.9 C 16.3 44.4 15.2 44.9 14.1 44.9 C 13.4 44.9 12.9 44.7 12.4 44.2 C 12.4 44.2 12.8 43.6 12.8 43.6 Z M 15.5 40 C 15.3 39.7 14.8 39.4 14.3 39.4 C 13.5 39.4 13 40 13 40.9 C 13 41.8 13.5 42.4 14.3 42.4 C 14.8 42.4 15.3 42.1 15.5 41.8 C 15.5 41.8 15.5 40 15.5 40 Z M 17.4 37.5 C 17.4 37.2 17.6 37 17.9 37 C 18.2 37 18.4 37.2 18.4 37.5 C 18.4 37.8 18.2 38 17.9 38 C 17.6 38 17.4 37.8 17.4 37.5 Z M 17.5 38.8 L 18.3 38.8 L 18.3 43.1 L 17.5 43.1 L 17.5 38.8 Z M 22.4 40.3 C 22.4 39.6 22.1 39.4 21.5 39.4 C 21 39.4 20.6 39.7 20.3 40 C 20.32 40 20.3 43.1 20.3 43.1 L 19.5 43.1 L 19.5 38.8 L 20.3 38.8 C 20.3 38.8 20.32 39.37 20.3 39.4 C 20.6 39 21.2 38.7 21.9 38.7 C 22.8 38.7 23.3 39.1 23.3 40.1 C 23.26 40.06 23.3 43.1 23.3 43.1 L 22.4 43.1 C 22.4 43.1 22.45 40.33 22.4 40.3 Z M 27.1 42.6 C 26.8 43 26.3 43.2 25.7 43.2 C 25 43.2 24.2 42.7 24.2 41.8 C 24.2 40.8 25 40.4 25.7 40.4 C 26.3 40.4 26.8 40.5 27.1 40.9 C 27.1 40.9 27.1 40.2 27.1 40.2 C 27.1 39.7 26.7 39.3 26.1 39.3 C 25.6 39.3 25.2 39.5 24.8 39.9 C 24.8 39.9 24.4 39.4 24.4 39.4 C 24.9 38.9 25.5 38.7 26.2 38.7 C 27.1 38.7 27.9 39.1 27.9 40.2 C 27.94 40.18 27.9 43.1 27.9 43.1 L 27.1 43.1 C 27.1 43.1 27.14 42.63 27.1 42.6 Z M 27.1 41.4 C 26.9 41.1 26.5 40.9 26 40.9 C 25.4 40.9 25 41.3 25 41.8 C 25 42.3 25.4 42.7 26 42.7 C 26.5 42.7 26.9 42.5 27.1 42.2 C 27.1 42.2 27.1 41.4 27.1 41.4 Z M 29.2 37.1 L 30 37.1 L 30 43.1 L 29.2 43.1 L 29.2 37.1 Z M 33.4 37.1 L 34.3 37.1 L 34.3 42.3 L 37 42.3 L 37 43.1 L 33.4 43.1 L 33.4 37.1 Z M 39.7 38.7 C 41 38.7 41.8 39.7 41.8 41 C 41.78 41 41.8 41.2 41.8 41.2 C 41.8 41.2 38.34 41.2 38.3 41.2 C 38.4 41.9 38.9 42.6 39.8 42.6 C 40.3 42.6 40.8 42.4 41.1 42 C 41.1 42 41.5 42.6 41.5 42.6 C 41 43 40.4 43.2 39.7 43.2 C 38.4 43.2 37.5 42.3 37.5 40.9 C 37.5 39.7 38.4 38.7 39.7 38.7 Z M 38.3 40.6 C 38.3 40.6 41 40.6 41 40.6 C 41 40 40.6 39.3 39.7 39.3 C 38.8 39.3 38.4 40 38.3 40.6 Z M 45.4 42.6 C 45 43 44.5 43.2 44 43.2 C 43.2 43.2 42.5 42.7 42.5 41.8 C 42.5 40.8 43.2 40.4 44 40.4 C 44.5 40.4 45.1 40.5 45.4 40.9 C 45.4 40.9 45.4 40.2 45.4 40.2 C 45.4 39.7 44.9 39.3 44.3 39.3 C 43.8 39.3 43.4 39.5 43 39.9 C 43 39.9 42.7 39.4 42.7 39.4 C 43.2 38.9 43.7 38.7 44.5 38.7 C 45.4 38.7 46.2 39.1 46.2 40.2 C 46.2 40.18 46.2 43.1 46.2 43.1 L 45.4 43.1 C 45.4 43.1 45.39 42.63 45.4 42.6 Z M 45.4 41.4 C 45.1 41.1 44.7 40.9 44.3 40.9 C 43.7 40.9 43.3 41.3 43.3 41.8 C 43.3 42.3 43.7 42.7 44.3 42.7 C 44.7 42.7 45.1 42.5 45.4 42.2 C 45.4 42.2 45.4 41.4 45.4 41.4 Z M 47.4 41.9 C 47.7 42.3 48.3 42.6 48.9 42.6 C 49.5 42.6 49.8 42.3 49.8 41.9 C 49.8 41.5 49.3 41.4 48.8 41.2 C 48 41.1 47.2 40.9 47.2 39.9 C 47.2 39.2 47.7 38.7 48.8 38.7 C 49.6 38.7 50.1 38.9 50.5 39.3 C 50.5 39.3 50.1 39.8 50.1 39.8 C 49.9 39.5 49.4 39.3 48.8 39.3 C 48.3 39.3 47.9 39.5 47.9 39.9 C 47.9 40.3 48.4 40.4 48.9 40.5 C 49.7 40.7 50.6 40.9 50.6 41.9 C 50.6 42.6 50 43.2 48.8 43.2 C 48.1 43.2 47.5 43 47 42.5 C 47 42.5 47.4 41.9 47.4 41.9 Z M 53.4 38.7 C 54.7 38.7 55.5 39.7 55.5 41 C 55.55 41 55.5 41.2 55.5 41.2 C 55.5 41.2 52.11 41.2 52.1 41.2 C 52.2 41.9 52.7 42.6 53.6 42.6 C 54 42.6 54.5 42.4 54.9 42 C 54.9 42 55.3 42.6 55.3 42.6 C 54.8 43 54.2 43.2 53.5 43.2 C 52.2 43.2 51.3 42.3 51.3 40.9 C 51.3 39.7 52.2 38.7 53.4 38.7 Z M 52.1 40.6 C 52.1 40.6 54.8 40.6 54.8 40.6 C 54.7 40 54.4 39.3 53.4 39.3 C 52.6 39.3 52.1 40 52.1 40.6 Z M 60.2 37.9 L 58.3 37.9 L 58.3 37.1 L 62.9 37.1 L 62.9 37.9 L 61.1 37.9 L 61.1 43.1 L 60.2 43.1 L 60.2 37.9 Z M 64.7 38.7 C 66 38.7 66.8 39.7 66.8 41 C 66.81 41 66.8 41.2 66.8 41.2 C 66.8 41.2 63.37 41.2 63.4 41.2 C 63.4 41.9 64 42.6 64.8 42.6 C 65.3 42.6 65.8 42.4 66.1 42 C 66.1 42 66.5 42.6 66.5 42.6 C 66.1 43 65.5 43.2 64.8 43.2 C 63.5 43.2 62.5 42.3 62.5 40.9 C 62.5 39.7 63.4 38.7 64.7 38.7 Z M 63.4 40.6 C 63.4 40.6 66 40.6 66 40.6 C 66 40 65.6 39.3 64.7 39.3 C 63.8 39.3 63.4 40 63.4 40.6 Z M 67.7 38.8 L 68.5 38.8 C 68.5 38.8 68.54 39.43 68.5 39.4 C 68.9 39 69.4 38.7 70 38.7 C 70 38.7 70 39.5 70 39.5 C 69.9 39.5 69.8 39.5 69.7 39.5 C 69.3 39.5 68.7 39.8 68.5 40.1 C 68.54 40.09 68.5 43.1 68.5 43.1 L 67.7 43.1 L 67.7 38.8 Z M 76 40.2 C 76 39.7 75.7 39.4 75.2 39.4 C 74.8 39.4 74.3 39.7 74.1 40 C 74.13 40 74.1 43.1 74.1 43.1 L 73.3 43.1 C 73.3 43.1 73.32 40.21 73.3 40.2 C 73.3 39.7 73.1 39.4 72.6 39.4 C 72.1 39.4 71.7 39.7 71.5 40 C 71.49 40 71.5 43.1 71.5 43.1 L 70.7 43.1 L 70.7 38.8 L 71.5 38.8 C 71.5 38.8 71.49 39.37 71.5 39.4 C 71.7 39.1 72.3 38.7 72.9 38.7 C 73.6 38.7 73.9 39 74.1 39.5 C 74.3 39.1 74.9 38.7 75.5 38.7 C 76.3 38.7 76.8 39.1 76.8 40 C 76.78 39.97 76.8 43.1 76.8 43.1 L 76 43.1 C 76 43.1 75.97 40.21 76 40.2 Z " stroke="none" fill="#242423"/>
  </g>
  <g id="Polygon209652">
    <path d="M 2.1 19.9 L 0.3 19.9 L 0.3 19.1 L 4.9 19.1 L 4.9 19.9 L 3 19.9 L 3 25.1 L 2.1 25.1 L 2.1 19.9 Z M 5.4 26.2 C 5.7 26.2 5.9 26.1 6 25.7 C 6.04 25.73 6.3 25.2 6.3 25.2 L 4.5 20.8 L 5.4 20.8 L 6.7 24.2 L 8.1 20.8 L 9 20.8 C 9 20.8 6.81 25.94 6.8 25.9 C 6.5 26.6 6.1 26.9 5.4 26.9 C 5.3 26.9 5 26.8 4.9 26.8 C 4.9 26.8 5 26.1 5 26.1 C 5.1 26.1 5.3 26.2 5.4 26.2 Z M 9.5 26.8 L 9.5 20.8 L 10.3 20.8 C 10.3 20.8 10.33 21.38 10.3 21.4 C 10.6 21 11.2 20.7 11.8 20.7 C 12.9 20.7 13.7 21.5 13.7 22.9 C 13.7 24.4 12.9 25.2 11.8 25.2 C 11.2 25.2 10.7 25 10.3 24.5 C 10.33 24.48 10.3 26.8 10.3 26.8 L 9.5 26.8 Z M 11.5 21.4 C 11 21.4 10.5 21.7 10.3 22 C 10.3 22 10.3 23.9 10.3 23.9 C 10.5 24.2 11 24.5 11.5 24.5 C 12.3 24.5 12.8 23.8 12.8 22.9 C 12.8 22 12.3 21.4 11.5 21.4 Z M 16.5 20.7 C 17.8 20.7 18.6 21.7 18.6 23 C 18.65 23 18.6 23.2 18.6 23.2 C 18.6 23.2 15.21 23.2 15.2 23.2 C 15.3 23.9 15.8 24.6 16.7 24.6 C 17.1 24.6 17.6 24.4 18 24 C 18 24 18.4 24.6 18.4 24.6 C 17.9 25 17.3 25.2 16.6 25.2 C 15.3 25.2 14.4 24.3 14.4 22.9 C 14.4 21.7 15.3 20.7 16.5 20.7 Z M 15.2 22.6 C 15.2 22.6 17.9 22.6 17.9 22.6 C 17.8 22 17.5 21.3 16.5 21.3 C 15.7 21.3 15.2 22 15.2 22.6 Z M 21.5 22.9 C 21.5 21.7 22.4 20.7 23.7 20.7 C 25.1 20.7 25.9 21.7 25.9 22.9 C 25.9 24.2 25.1 25.2 23.7 25.2 C 22.4 25.2 21.5 24.2 21.5 22.9 Z M 25.1 22.9 C 25.1 22.1 24.6 21.4 23.7 21.4 C 22.9 21.4 22.4 22.1 22.4 22.9 C 22.4 23.8 22.9 24.5 23.7 24.5 C 24.6 24.5 25.1 23.8 25.1 22.9 Z M 27.1 21.5 L 26.3 21.5 L 26.3 20.8 L 27.1 20.8 C 27.1 20.8 27.06 20.48 27.1 20.5 C 27.1 19.5 27.6 19 28.4 19 C 28.7 19 28.9 19.1 29.1 19.2 C 29.1 19.2 28.9 19.8 28.9 19.8 C 28.8 19.7 28.7 19.7 28.5 19.7 C 28.1 19.7 27.9 20 27.9 20.5 C 27.87 20.48 27.9 20.8 27.9 20.8 L 28.8 20.8 L 28.8 21.5 L 27.9 21.5 L 27.9 25.1 L 27.1 25.1 L 27.1 21.5 Z M 34.5 19 C 36.3 19 37.5 20.3 37.5 22.1 C 37.5 23.9 36.3 25.2 34.5 25.2 C 32.7 25.2 31.4 23.9 31.4 22.1 C 31.4 20.3 32.7 19 34.5 19 Z M 34.5 19.8 C 33.2 19.8 32.4 20.8 32.4 22.1 C 32.4 23.4 33.2 24.4 34.5 24.4 C 35.7 24.4 36.6 23.4 36.6 22.1 C 36.6 20.8 35.7 19.8 34.5 19.8 Z M 41.2 21.8 L 40.1 25.1 L 39.3 25.1 L 37.9 20.8 L 38.7 20.8 L 39.7 24.1 L 40.8 20.8 L 41.5 20.8 L 42.6 24.1 L 43.6 20.8 L 44.4 20.8 L 43.1 25.1 L 42.2 25.1 L 41.2 21.8 Z M 48 22.3 C 48 21.6 47.6 21.4 47.1 21.4 C 46.6 21.4 46.1 21.7 45.9 22 C 45.88 22 45.9 25.1 45.9 25.1 L 45.1 25.1 L 45.1 20.8 L 45.9 20.8 C 45.9 20.8 45.88 21.37 45.9 21.4 C 46.2 21 46.7 20.7 47.4 20.7 C 48.3 20.7 48.8 21.1 48.8 22.1 C 48.81 22.06 48.8 25.1 48.8 25.1 L 48 25.1 C 48 25.1 48.01 22.33 48 22.3 Z M 51.9 20.7 C 53.2 20.7 54 21.7 54 23 C 54.03 23 54 23.2 54 23.2 C 54 23.2 50.6 23.2 50.6 23.2 C 50.7 23.9 51.2 24.6 52.1 24.6 C 52.5 24.6 53 24.4 53.4 24 C 53.4 24 53.7 24.6 53.7 24.6 C 53.3 25 52.7 25.2 52 25.2 C 50.7 25.2 49.7 24.3 49.7 22.9 C 49.7 21.7 50.7 20.7 51.9 20.7 Z M 50.6 22.6 C 50.6 22.6 53.2 22.6 53.2 22.6 C 53.2 22 52.8 21.3 51.9 21.3 C 51 21.3 50.6 22 50.6 22.6 Z M 55 20.8 L 55.8 20.8 C 55.8 20.8 55.77 21.43 55.8 21.4 C 56.1 21 56.6 20.7 57.2 20.7 C 57.2 20.7 57.2 21.5 57.2 21.5 C 57.1 21.5 57 21.5 56.9 21.5 C 56.5 21.5 56 21.8 55.8 22.1 C 55.77 22.09 55.8 25.1 55.8 25.1 L 55 25.1 L 55 20.8 Z M 57.9 23.9 C 58.2 24.3 58.8 24.6 59.4 24.6 C 60 24.6 60.3 24.3 60.3 23.9 C 60.3 23.5 59.8 23.4 59.3 23.2 C 58.5 23.1 57.7 22.9 57.7 21.9 C 57.7 21.2 58.3 20.7 59.3 20.7 C 60.1 20.7 60.6 20.9 61 21.3 C 61 21.3 60.6 21.8 60.6 21.8 C 60.4 21.5 59.9 21.3 59.3 21.3 C 58.8 21.3 58.4 21.5 58.4 21.9 C 58.4 22.3 58.9 22.4 59.4 22.5 C 60.2 22.7 61.1 22.9 61.1 23.9 C 61.1 24.6 60.5 25.2 59.3 25.2 C 58.6 25.2 58 25 57.5 24.5 C 57.5 24.5 57.9 23.9 57.9 23.9 Z M 65 22.3 C 65 21.6 64.6 21.4 64 21.4 C 63.5 21.4 63.1 21.7 62.8 22 C 62.85 22 62.8 25.1 62.8 25.1 L 62 25.1 L 62 19.1 L 62.8 19.1 C 62.8 19.1 62.85 21.37 62.8 21.4 C 63.1 21 63.7 20.7 64.4 20.7 C 65.3 20.7 65.8 21.1 65.8 22 C 65.78 22.04 65.8 25.1 65.8 25.1 L 65 25.1 C 65 25.1 64.97 22.31 65 22.3 Z M 66.9 19.5 C 66.9 19.2 67.1 19 67.4 19 C 67.7 19 67.9 19.2 67.9 19.5 C 67.9 19.8 67.7 20 67.4 20 C 67.1 20 66.9 19.8 66.9 19.5 Z M 67 20.8 L 67.8 20.8 L 67.8 25.1 L 67 25.1 L 67 20.8 Z M 69 26.8 L 69 20.8 L 69.8 20.8 C 69.8 20.8 69.8 21.38 69.8 21.4 C 70.1 21 70.6 20.7 71.2 20.7 C 72.4 20.7 73.2 21.5 73.2 22.9 C 73.2 24.4 72.4 25.2 71.2 25.2 C 70.7 25.2 70.2 25 69.8 24.5 C 69.8 24.48 69.8 26.8 69.8 26.8 L 69 26.8 Z M 71 21.4 C 70.5 21.4 70 21.7 69.8 22 C 69.8 22 69.8 23.9 69.8 23.9 C 70 24.2 70.5 24.5 71 24.5 C 71.8 24.5 72.3 23.8 72.3 22.9 C 72.3 22 71.8 21.4 71 21.4 Z " stroke="none" fill="#242423"/>
  </g>
  <g id="Polygon209651">
    <path d="M 0.7 1.1 L 1.6 1.1 L 1.6 6.3 L 4.3 6.3 L 4.3 7.1 L 0.7 7.1 L 0.7 1.1 Z M 6.9 2.7 C 8.2 2.7 9 3.7 9 5 C 9.04 5 9 5.2 9 5.2 C 9 5.2 5.6 5.2 5.6 5.2 C 5.7 5.9 6.2 6.6 7.1 6.6 C 7.5 6.6 8 6.4 8.4 6 C 8.4 6 8.7 6.6 8.7 6.6 C 8.3 7 7.7 7.2 7 7.2 C 5.7 7.2 4.7 6.3 4.7 4.9 C 4.7 3.7 5.7 2.7 6.9 2.7 Z M 5.6 4.6 C 5.6 4.6 8.2 4.6 8.2 4.6 C 8.2 4 7.8 3.3 6.9 3.3 C 6 3.3 5.6 4 5.6 4.6 Z M 12.6 6.6 C 12.3 7 11.8 7.2 11.2 7.2 C 10.5 7.2 9.7 6.7 9.7 5.8 C 9.7 4.8 10.5 4.4 11.2 4.4 C 11.8 4.4 12.3 4.5 12.6 4.9 C 12.6 4.9 12.6 4.2 12.6 4.2 C 12.6 3.7 12.2 3.3 11.6 3.3 C 11.1 3.3 10.7 3.5 10.3 3.9 C 10.3 3.9 9.9 3.4 9.9 3.4 C 10.4 2.9 11 2.7 11.7 2.7 C 12.7 2.7 13.5 3.1 13.5 4.2 C 13.45 4.18 13.5 7.1 13.5 7.1 L 12.6 7.1 C 12.6 7.1 12.65 6.63 12.6 6.6 Z M 12.6 5.4 C 12.4 5.1 12 4.9 11.5 4.9 C 10.9 4.9 10.5 5.3 10.5 5.8 C 10.5 6.3 10.9 6.7 11.5 6.7 C 12 6.7 12.4 6.5 12.6 6.2 C 12.6 6.2 12.6 5.4 12.6 5.4 Z M 14.7 5.9 C 15 6.3 15.5 6.6 16.1 6.6 C 16.7 6.6 17.1 6.3 17.1 5.9 C 17.1 5.5 16.6 5.4 16 5.2 C 15.3 5.1 14.4 4.9 14.4 3.9 C 14.4 3.2 15 2.7 16.1 2.7 C 16.8 2.7 17.4 2.9 17.7 3.3 C 17.7 3.3 17.4 3.8 17.4 3.8 C 17.1 3.5 16.6 3.3 16.1 3.3 C 15.5 3.3 15.2 3.5 15.2 3.9 C 15.2 4.3 15.7 4.4 16.2 4.5 C 16.9 4.7 17.8 4.9 17.8 5.9 C 17.8 6.6 17.2 7.2 16.1 7.2 C 15.4 7.2 14.7 7 14.3 6.5 C 14.3 6.5 14.7 5.9 14.7 5.9 Z M 20.7 2.7 C 22 2.7 22.8 3.7 22.8 5 C 22.81 5 22.8 5.2 22.8 5.2 C 22.8 5.2 19.37 5.2 19.4 5.2 C 19.4 5.9 20 6.6 20.8 6.6 C 21.3 6.6 21.8 6.4 22.1 6 C 22.1 6 22.5 6.6 22.5 6.6 C 22.1 7 21.5 7.2 20.8 7.2 C 19.5 7.2 18.5 6.3 18.5 4.9 C 18.5 3.7 19.4 2.7 20.7 2.7 Z M 19.4 4.6 C 19.4 4.6 22 4.6 22 4.6 C 22 4 21.6 3.3 20.7 3.3 C 19.8 3.3 19.4 4 19.4 4.6 Z M 27.5 1.9 L 25.6 1.9 L 25.6 1.1 L 30.2 1.1 L 30.2 1.9 L 28.3 1.9 L 28.3 7.1 L 27.5 7.1 L 27.5 1.9 Z M 30.7 8.2 C 31 8.2 31.2 8.1 31.4 7.7 C 31.36 7.73 31.6 7.2 31.6 7.2 L 29.8 2.8 L 30.7 2.8 L 32 6.2 L 33.4 2.8 L 34.3 2.8 C 34.3 2.8 32.13 7.94 32.1 7.9 C 31.9 8.6 31.4 8.9 30.7 8.9 C 30.6 8.9 30.4 8.8 30.2 8.8 C 30.2 8.8 30.4 8.1 30.4 8.1 C 30.5 8.1 30.6 8.2 30.7 8.2 Z M 34.8 8.8 L 34.8 2.8 L 35.6 2.8 C 35.6 2.8 35.65 3.38 35.6 3.4 C 36 3 36.5 2.7 37.1 2.7 C 38.2 2.7 39 3.5 39 4.9 C 39 6.4 38.2 7.2 37.1 7.2 C 36.5 7.2 36 7 35.6 6.5 C 35.65 6.48 35.6 8.8 35.6 8.8 L 34.8 8.8 Z M 36.9 3.4 C 36.4 3.4 35.9 3.7 35.6 4 C 35.6 4 35.6 5.9 35.6 5.9 C 35.9 6.2 36.4 6.5 36.9 6.5 C 37.7 6.5 38.2 5.8 38.2 4.9 C 38.2 4 37.7 3.4 36.9 3.4 Z M 41.8 2.7 C 43.2 2.7 44 3.7 44 5 C 43.96 5 44 5.2 44 5.2 C 44 5.2 40.53 5.2 40.5 5.2 C 40.6 5.9 41.1 6.6 42 6.6 C 42.5 6.6 43 6.4 43.3 6 C 43.3 6 43.7 6.6 43.7 6.6 C 43.2 7 42.6 7.2 41.9 7.2 C 40.6 7.2 39.7 6.3 39.7 4.9 C 39.7 3.7 40.6 2.7 41.8 2.7 Z M 40.5 4.6 C 40.5 4.6 43.2 4.6 43.2 4.6 C 43.2 4 42.8 3.3 41.8 3.3 C 41 3.3 40.6 4 40.5 4.6 Z " stroke="none" fill="#242423"/>
  </g>
</svg>