<?xml version="1.0" standalone="no"?><!DOCTYPE svg PUBLIC "-//W3C//DTD SVG 1.1//EN" "http://www.w3.org/Graphics/SVG/1.1/DTD/svg11.dtd"><svg xmlns="http://www.w3.org/2000/svg" version="1.1" width="84px" height="27.9px" viewBox="0 -6 84 27.9" style="top:-6px"><desc>Annual Rent</desc><defs/><g id="Polygon98572"><path d="m7.9 10.4H2.7l-.9 2.1H.1L4.3 2h2l4.2 10.5H8.7l-.8-2.1zM3.1 8.9h4.3L5.3 3.3l-2.2 5.6zm13.6-1.3c0-1.2-.6-1.6-1.6-1.6c-.9 0-1.7.5-2.1 1.1v5.4h-1.4V4.9h1.4s-.01 1.05 0 1.1c.5-.7 1.5-1.3 2.7-1.3c1.6 0 2.5.8 2.5 2.5c-.03-.04 0 5.3 0 5.3h-1.5s.04-4.86 0-4.9zm8.8 0c0-1.2-.7-1.6-1.7-1.6c-.9 0-1.7.5-2.1 1.1v5.4h-1.4V4.9h1.4s.01 1.05 0 1.1c.5-.7 1.5-1.3 2.7-1.3c1.6 0 2.5.8 2.5 2.5v5.3h-1.4s-.04-4.86 0-4.9zm8.7 3.9c-.6.6-1.6 1.2-2.8 1.2c-1.6 0-2.4-.8-2.4-2.4V4.9h1.4s.03 4.92 0 4.9c0 1.3.7 1.7 1.6 1.7c.9 0 1.8-.5 2.2-1.1c-.02-.01 0-5.5 0-5.5h1.4v7.6h-1.4s-.02-1 0-1zm8.3.2c-.7.7-1.5 1-2.6 1c-1.2 0-2.6-.8-2.6-2.5c0-1.8 1.4-2.5 2.6-2.5c1.1 0 2 .3 2.6 1V7.4c0-.9-.8-1.5-1.9-1.5c-.9 0-1.6.3-2.3 1l-.6-1c.8-.8 1.9-1.2 3.1-1.2c1.7 0 3.1.7 3.1 2.7c-.02-.03 0 5.1 0 5.1h-1.4s-.05-.79 0-.8zm0-2.1c-.5-.6-1.2-.9-2-.9c-1 0-1.8.6-1.8 1.5c0 .9.8 1.5 1.8 1.5c.8 0 1.5-.3 2-.8V9.6zM46 2h1.4v10.5H46V2zm11.1 6.5h-2v4h-1.6V2s4.49-.05 4.5 0c2 0 3.4 1.3 3.4 3.2c0 1.9-1.3 2.9-2.7 3.1c.05.01 2.8 4.2 2.8 4.2h-1.9l-2.5-4zm.7-5.1c-.02-.05-2.7 0-2.7 0v3.7s2.68-.03 2.7 0c1.1 0 1.9-.8 1.9-1.9c0-1.1-.8-1.8-1.9-1.8zM66 4.7c2.3 0 3.8 1.8 3.8 4.1c-.03.03 0 .4 0 .4c0 0-6.1-.02-6.1 0c.1 1.3 1.1 2.4 2.6 2.4c.8 0 1.7-.4 2.3-.9l.6.9c-.7.7-1.8 1.1-3 1.1c-2.3 0-4-1.6-4-4c0-2.2 1.6-4 3.8-4zm-2.3 3.4h4.7c-.1-1-.7-2.2-2.4-2.2c-1.5 0-2.2 1.2-2.3 2.2zm12.9-.5c0-1.2-.7-1.6-1.7-1.6c-.8 0-1.7.5-2.1 1.1c.03-.03 0 5.4 0 5.4h-1.4V4.9h1.4s.03 1.05 0 1.1c.5-.7 1.6-1.3 2.8-1.3c1.6 0 2.4.8 2.4 2.5v5.3h-1.4s-.02-4.86 0-4.9zm3.8 3.2V6.1h-1.3V4.9h1.3V2.8h1.4v2.1h1.6v1.2h-1.6s.04 4.43 0 4.4c0 .6.3 1 .8 1c.3 0 .6-.2.8-.3l.3 1c-.3.3-.7.5-1.5.5c-1.2 0-1.8-.6-1.8-1.9z" stroke="none" fill="#88898a"/></g></svg>