<?xml version="1.0" standalone="no"?>
<!DOCTYPE svg PUBLIC "-//W3C//DTD SVG 1.1//EN" "http://www.w3.org/Graphics/SVG/1.1/DTD/svg11.dtd">
<svg xmlns="http://www.w3.org/2000/svg" version="1.1" width="155.5px" height="27.9px" viewBox="0 -6 155.5 27.9" style="top:-6px">
  <desc>Years in Business</desc>
  <defs/>
  <g id="Polygon273441">
    <path d="M 21.1 8.1 L 17 2 L 18.8 2 L 21.9 6.7 L 25 2 L 26.8 2 L 22.7 8.1 L 22.7 12.5 L 21.1 12.5 L 21.1 8.1 Z M 29.4 4.7 C 31.7 4.7 33.2 6.5 33.2 8.8 C 33.16 8.83 33.2 9.2 33.2 9.2 C 33.2 9.2 27.09 9.18 27.1 9.2 C 27.2 10.5 28.2 11.6 29.7 11.6 C 30.5 11.6 31.4 11.2 32 10.7 C 32 10.7 32.6 11.6 32.6 11.6 C 31.9 12.3 30.8 12.7 29.6 12.7 C 27.3 12.7 25.6 11.1 25.6 8.7 C 25.6 6.5 27.2 4.7 29.4 4.7 Z M 27.1 8.1 C 27.1 8.1 31.8 8.1 31.8 8.1 C 31.7 7.1 31 5.9 29.4 5.9 C 27.9 5.9 27.2 7.1 27.1 8.1 Z M 39.7 11.7 C 39.1 12.4 38.2 12.7 37.2 12.7 C 35.9 12.7 34.5 11.9 34.5 10.2 C 34.5 8.4 35.9 7.7 37.2 7.7 C 38.2 7.7 39.1 8 39.7 8.7 C 39.7 8.7 39.7 7.4 39.7 7.4 C 39.7 6.5 38.9 5.9 37.8 5.9 C 36.9 5.9 36.2 6.2 35.5 6.9 C 35.5 6.9 34.9 5.9 34.9 5.9 C 35.7 5.1 36.8 4.7 38 4.7 C 39.7 4.7 41.1 5.4 41.1 7.4 C 41.12 7.37 41.1 12.5 41.1 12.5 L 39.7 12.5 C 39.7 12.5 39.69 11.71 39.7 11.7 Z M 39.7 9.6 C 39.3 9 38.5 8.7 37.7 8.7 C 36.7 8.7 36 9.3 36 10.2 C 36 11.1 36.7 11.7 37.7 11.7 C 38.5 11.7 39.3 11.4 39.7 10.9 C 39.7 10.9 39.7 9.6 39.7 9.6 Z M 43.4 4.9 L 44.8 4.9 C 44.8 4.9 44.83 6.05 44.8 6.1 C 45.4 5.3 46.3 4.7 47.3 4.7 C 47.3 4.7 47.3 6.1 47.3 6.1 C 47.2 6.1 47 6.1 46.9 6.1 C 46.1 6.1 45.2 6.6 44.8 7.2 C 44.83 7.21 44.8 12.5 44.8 12.5 L 43.4 12.5 L 43.4 4.9 Z M 48.8 10.5 C 49.3 11.1 50.3 11.6 51.4 11.6 C 52.4 11.6 53 11.2 53 10.5 C 53 9.7 52.1 9.5 51.2 9.3 C 49.9 9 48.3 8.6 48.3 7 C 48.3 5.7 49.4 4.7 51.3 4.7 C 52.6 4.7 53.5 5.2 54.2 5.8 C 54.2 5.8 53.5 6.8 53.5 6.8 C 53.1 6.2 52.2 5.8 51.3 5.8 C 50.3 5.8 49.7 6.2 49.7 6.8 C 49.7 7.5 50.5 7.7 51.5 8 C 52.8 8.3 54.4 8.6 54.4 10.4 C 54.4 11.7 53.3 12.7 51.3 12.7 C 50 12.7 48.9 12.3 48.1 11.5 C 48.1 11.5 48.8 10.5 48.8 10.5 Z M 60.1 2.7 C 60.1 2.2 60.5 1.8 61 1.8 C 61.5 1.8 61.9 2.2 61.9 2.7 C 61.9 3.2 61.5 3.6 61 3.6 C 60.5 3.6 60.1 3.2 60.1 2.7 Z M 60.3 4.9 L 61.7 4.9 L 61.7 12.5 L 60.3 12.5 L 60.3 4.9 Z M 69.2 7.6 C 69.2 6.4 68.5 6 67.5 6 C 66.7 6 65.8 6.5 65.4 7.1 C 65.43 7.07 65.4 12.5 65.4 12.5 L 64 12.5 L 64 4.9 L 65.4 4.9 C 65.4 4.9 65.43 5.95 65.4 6 C 65.9 5.3 67 4.7 68.2 4.7 C 69.8 4.7 70.6 5.5 70.6 7.2 C 70.61 7.16 70.6 12.5 70.6 12.5 L 69.2 12.5 C 69.2 12.5 69.18 7.64 69.2 7.6 Z M 77 2 C 77 2 81.98 1.95 82 2 C 83.9 2 85 3.1 85 4.7 C 85 6 84.1 6.9 83.1 7.1 C 84.3 7.3 85.2 8.4 85.2 9.7 C 85.2 11.4 84.1 12.5 82.1 12.5 C 82.11 12.55 77 12.5 77 12.5 L 77 2 Z M 81.7 6.4 C 82.7 6.4 83.3 5.8 83.3 4.9 C 83.3 4 82.7 3.4 81.7 3.4 C 81.68 3.35 78.6 3.4 78.6 3.4 L 78.6 6.4 C 78.6 6.4 81.68 6.45 81.7 6.4 Z M 81.8 11.2 C 82.9 11.2 83.5 10.5 83.5 9.5 C 83.5 8.6 82.9 7.8 81.8 7.8 C 81.76 7.84 78.6 7.8 78.6 7.8 L 78.6 11.2 C 78.6 11.2 81.76 11.15 81.8 11.2 Z M 92.3 11.5 C 91.7 12.1 90.7 12.7 89.6 12.7 C 87.9 12.7 87.1 11.9 87.1 10.3 C 87.11 10.29 87.1 4.9 87.1 4.9 L 88.5 4.9 C 88.5 4.9 88.54 9.82 88.5 9.8 C 88.5 11.1 89.2 11.5 90.2 11.5 C 91.1 11.5 91.9 11 92.3 10.4 C 92.29 10.39 92.3 4.9 92.3 4.9 L 93.7 4.9 L 93.7 12.5 L 92.3 12.5 C 92.3 12.5 92.29 11.5 92.3 11.5 Z M 96 10.5 C 96.5 11.1 97.5 11.6 98.6 11.6 C 99.7 11.6 100.2 11.2 100.2 10.5 C 100.2 9.7 99.4 9.5 98.4 9.3 C 97.1 9 95.5 8.6 95.5 7 C 95.5 5.7 96.6 4.7 98.5 4.7 C 99.8 4.7 100.7 5.2 101.4 5.8 C 101.4 5.8 100.8 6.8 100.8 6.8 C 100.3 6.2 99.5 5.8 98.5 5.8 C 97.5 5.8 96.9 6.2 96.9 6.8 C 96.9 7.5 97.7 7.7 98.7 8 C 100 8.3 101.6 8.6 101.6 10.4 C 101.6 11.7 100.5 12.7 98.5 12.7 C 97.2 12.7 96.1 12.3 95.3 11.5 C 95.3 11.5 96 10.5 96 10.5 Z M 103.2 2.7 C 103.2 2.2 103.6 1.8 104.1 1.8 C 104.6 1.8 105 2.2 105 2.7 C 105 3.2 104.6 3.6 104.1 3.6 C 103.6 3.6 103.2 3.2 103.2 2.7 Z M 103.4 4.9 L 104.9 4.9 L 104.9 12.5 L 103.4 12.5 L 103.4 4.9 Z M 112.3 7.6 C 112.3 6.4 111.7 6 110.7 6 C 109.8 6 109 6.5 108.6 7.1 C 108.55 7.07 108.6 12.5 108.6 12.5 L 107.1 12.5 L 107.1 4.9 L 108.6 4.9 C 108.6 4.9 108.55 5.95 108.6 6 C 109.1 5.3 110.1 4.7 111.3 4.7 C 112.9 4.7 113.7 5.5 113.7 7.2 C 113.73 7.16 113.7 12.5 113.7 12.5 L 112.3 12.5 C 112.3 12.5 112.3 7.64 112.3 7.6 Z M 119.4 4.7 C 121.7 4.7 123.1 6.5 123.1 8.8 C 123.1 8.83 123.1 9.2 123.1 9.2 C 123.1 9.2 117.03 9.18 117 9.2 C 117.1 10.5 118.1 11.6 119.6 11.6 C 120.4 11.6 121.3 11.2 121.9 10.7 C 121.9 10.7 122.6 11.6 122.6 11.6 C 121.8 12.3 120.7 12.7 119.5 12.7 C 117.2 12.7 115.5 11.1 115.5 8.7 C 115.5 6.5 117.1 4.7 119.4 4.7 Z M 117 8.1 C 117 8.1 121.7 8.1 121.7 8.1 C 121.7 7.1 121 5.9 119.4 5.9 C 117.8 5.9 117.1 7.1 117 8.1 Z M 124.9 10.5 C 125.4 11.1 126.5 11.6 127.5 11.6 C 128.6 11.6 129.1 11.2 129.1 10.5 C 129.1 9.7 128.3 9.5 127.3 9.3 C 126 9 124.5 8.6 124.5 7 C 124.5 5.7 125.5 4.7 127.4 4.7 C 128.7 4.7 129.6 5.2 130.3 5.8 C 130.3 5.8 129.7 6.8 129.7 6.8 C 129.2 6.2 128.4 5.8 127.4 5.8 C 126.4 5.8 125.8 6.2 125.8 6.8 C 125.8 7.5 126.6 7.7 127.6 8 C 128.9 8.3 130.5 8.6 130.5 10.4 C 130.5 11.7 129.4 12.7 127.4 12.7 C 126.1 12.7 125 12.3 124.2 11.5 C 124.2 11.5 124.9 10.5 124.9 10.5 Z M 132.3 10.5 C 132.9 11.1 133.9 11.6 134.9 11.6 C 136 11.6 136.6 11.2 136.6 10.5 C 136.6 9.7 135.7 9.5 134.7 9.3 C 133.4 9 131.9 8.6 131.9 7 C 131.9 5.7 132.9 4.7 134.8 4.7 C 136.1 4.7 137.1 5.2 137.7 5.8 C 137.7 5.8 137.1 6.8 137.1 6.8 C 136.6 6.2 135.8 5.8 134.8 5.8 C 133.9 5.8 133.2 6.2 133.2 6.8 C 133.2 7.5 134.1 7.7 135 8 C 136.4 8.3 138 8.6 138 10.4 C 138 11.7 136.9 12.7 134.9 12.7 C 133.6 12.7 132.4 12.3 131.7 11.5 C 131.7 11.5 132.3 10.5 132.3 10.5 Z " stroke="none" fill="#000"/>
  </g>
</svg>