<?xml version="1.0" standalone="no"?><!DOCTYPE svg PUBLIC "-//W3C//DTD SVG 1.1//EN" "http://www.w3.org/Graphics/SVG/1.1/DTD/svg11.dtd"><svg xmlns="http://www.w3.org/2000/svg" version="1.1" width="77px" height="16.9px" viewBox="0 -4 77 16.9" style="top:-4px"><desc>ANNUAL REVENUE</desc><defs/><g id="Polygon291046"><path d="m4.5 5.9h-3L1 7.1h-1l2.4-6h1.2l2.3 6h-1l-.4-1.2zm-2.7-.8h2.4L3 1.9l-1.2 3.2zm5.7-2.6v4.6h-.9v-6h.9l3.3 4.5V1.1h.9v6h-.9L7.5 2.5zm6.3 0v4.6h-.9v-6h.9l3.3 4.5V1.1h.9v6h-.9l-3.3-4.6zm5.4-1.4h1s-.05 3.63 0 3.6c0 1.1.5 1.7 1.6 1.7c1 0 1.6-.6 1.6-1.7c-.02.03 0-3.6 0-3.6h.9s-.01 3.65 0 3.7c0 1.4-.8 2.4-2.5 2.4c-1.7 0-2.6-1-2.6-2.4c.04-.04 0-3.7 0-3.7zm9.9 4.8h-3l-.4 1.2h-1l2.4-6h1.1l2.4 6h-1l-.5-1.2zm-2.7-.8h2.4l-1.2-3.2l-1.2 3.2zm4.8-4h.9v5.2h2.7v.8h-3.6v-6zM40 4.8h-1.1v2.3h-.9v-6s2.48.01 2.5 0c1.1 0 1.9.7 1.9 1.9c0 1-.7 1.6-1.5 1.7l1.6 2.4h-1.1L40 4.8zm.4-2.9h-1.5v2.1h1.5c.6 0 1.1-.4 1.1-1c0-.7-.5-1.1-1.1-1.1zm3-.8h4.1v.8h-3.2v1.8h3.1v.7h-3.1v1.9h3.2v.8h-4.1v-6zm4.5 0h1l1.9 5l1.9-5h1.1l-2.4 6h-1.1l-2.4-6zm6.5 0h4v.8h-3.1v1.8h3.1v.7h-3.1v1.9h3.1v.8h-4v-6zm6 1.4v4.6h-.9v-6h.9l3.3 4.5V1.1h.9v6h-.9l-3.3-4.6zm5.4-1.4h.9s.01 3.63 0 3.6c0 1.1.6 1.7 1.6 1.7c1.1 0 1.6-.6 1.6-1.7c.04.03 0-3.6 0-3.6h.9s.05 3.65 0 3.7c0 1.4-.8 2.4-2.5 2.4c-1.7 0-2.5-1-2.5-2.4V1.1zm6.3 0h4v.8H73v1.8h3.1v.7H73v1.9h3.1v.8h-4v-6z" stroke="none" fill="#3797ef"/></g></svg>