<?xml version="1.0" standalone="no"?>
<!DOCTYPE svg PUBLIC "-//W3C//DTD SVG 1.1//EN" "http://www.w3.org/Graphics/SVG/1.1/DTD/svg11.dtd">
<svg xmlns="http://www.w3.org/2000/svg" version="1.1" width="124px" height="63.9px" viewBox="0 -10 124 63.9" style="top:-10px">
  <desc>Agent 1</desc>
  <defs/>
  <g id="Polygon206838">
    <path d="M 1.2 33.7 L 2.8 33.7 L 2.8 42.9 L 7.6 42.9 L 7.6 44.3 L 1.2 44.3 L 1.2 33.7 Z M 8.9 34.4 C 8.9 33.9 9.3 33.5 9.8 33.5 C 10.3 33.5 10.8 33.9 10.8 34.4 C 10.8 34.9 10.3 35.3 9.8 35.3 C 9.3 35.3 8.9 34.9 8.9 34.4 Z M 9.1 36.6 L 10.6 36.6 L 10.6 44.3 L 9.1 44.3 L 9.1 36.6 Z M 12.7 42.2 C 13.2 42.8 14.2 43.3 15.3 43.3 C 16.3 43.3 16.9 42.9 16.9 42.2 C 16.9 41.5 16 41.2 15.1 41 C 13.8 40.7 12.2 40.3 12.2 38.7 C 12.2 37.5 13.3 36.4 15.2 36.4 C 16.5 36.4 17.4 36.9 18.1 37.5 C 18.1 37.5 17.4 38.5 17.4 38.5 C 17 38 16.1 37.6 15.2 37.6 C 14.2 37.6 13.6 37.9 13.6 38.6 C 13.6 39.2 14.4 39.5 15.4 39.7 C 16.7 40 18.3 40.3 18.3 42.1 C 18.3 43.4 17.2 44.5 15.2 44.5 C 13.9 44.5 12.8 44.1 12 43.3 C 12 43.3 12.7 42.2 12.7 42.2 Z M 20.2 42.6 C 20.23 42.57 20.2 37.9 20.2 37.9 L 19 37.9 L 19 36.6 L 20.2 36.6 L 20.2 34.5 L 21.7 34.5 L 21.7 36.6 L 23.2 36.6 L 23.2 37.9 L 21.7 37.9 C 21.7 37.9 21.66 42.25 21.7 42.3 C 21.7 42.8 21.9 43.2 22.4 43.2 C 22.7 43.2 23 43 23.2 42.9 C 23.2 42.9 23.6 44 23.6 44 C 23.3 44.3 22.8 44.5 22.1 44.5 C 20.9 44.5 20.2 43.8 20.2 42.6 Z M 28.6 33.7 C 28.6 33.7 33.08 33.68 33.1 33.7 C 35.3 33.7 36.5 35.2 36.5 36.9 C 36.5 38.7 35.2 40.2 33.1 40.2 C 33.08 40.19 30.2 40.2 30.2 40.2 L 30.2 44.3 L 28.6 44.3 L 28.6 33.7 Z M 32.9 35.1 C 32.88 35.07 30.2 35.1 30.2 35.1 L 30.2 38.8 C 30.2 38.8 32.88 38.79 32.9 38.8 C 34 38.8 34.8 38 34.8 36.9 C 34.8 35.8 34 35.1 32.9 35.1 Z M 37.9 36.6 L 39.3 36.6 C 39.3 36.6 39.34 37.77 39.3 37.8 C 39.9 37 40.8 36.4 41.8 36.4 C 41.8 36.4 41.8 37.9 41.8 37.9 C 41.7 37.8 41.5 37.8 41.4 37.8 C 40.6 37.8 39.7 38.4 39.3 38.9 C 39.34 38.93 39.3 44.3 39.3 44.3 L 37.9 44.3 L 37.9 36.6 Z M 42.9 34.4 C 42.9 33.9 43.3 33.5 43.8 33.5 C 44.3 33.5 44.7 33.9 44.7 34.4 C 44.7 34.9 44.3 35.3 43.8 35.3 C 43.3 35.3 42.9 34.9 42.9 34.4 Z M 43.1 36.6 L 44.5 36.6 L 44.5 44.3 L 43.1 44.3 L 43.1 36.6 Z M 50.1 36.4 C 51.5 36.4 52.4 37 53 37.8 C 53 37.8 52 38.6 52 38.6 C 51.6 38 50.9 37.7 50.2 37.7 C 48.6 37.7 47.7 38.8 47.7 40.4 C 47.7 42 48.6 43.2 50.2 43.2 C 50.9 43.2 51.6 42.9 52 42.2 C 52 42.2 53 43.1 53 43.1 C 52.4 43.9 51.5 44.5 50.1 44.5 C 47.8 44.5 46.2 42.7 46.2 40.4 C 46.2 38.1 47.8 36.4 50.1 36.4 Z M 57.7 36.4 C 60.1 36.4 61.5 38.2 61.5 40.6 C 61.48 40.55 61.5 40.9 61.5 40.9 C 61.5 40.9 55.41 40.9 55.4 40.9 C 55.5 42.2 56.5 43.3 58 43.3 C 58.8 43.3 59.7 43 60.3 42.4 C 60.3 42.4 61 43.3 61 43.3 C 60.2 44.1 59.1 44.5 57.9 44.5 C 55.6 44.5 53.9 42.8 53.9 40.4 C 53.9 38.2 55.5 36.4 57.7 36.4 Z M 55.4 39.9 C 55.4 39.9 60.1 39.9 60.1 39.9 C 60.1 38.9 59.4 37.6 57.7 37.6 C 56.2 37.6 55.5 38.8 55.4 39.9 Z " stroke="none" fill="#3797ef"/>
  </g>
  <g id="Polygon206837">
    <path d="M 10.8 16.3 C 10.8 16.3 10.8 19.2 10.8 19.2 C 10.8 21.7 9.5 22.9 7.4 23.2 C 7.4 23.21 7.4 25.3 7.4 25.3 L 4.5 25.3 C 4.5 25.3 4.49 23.23 4.5 23.2 C 2.3 22.9 1 21.8 1 19.2 C 1.02 19.2 1 15.8 1 15.8 L 4.2 15.8 C 4.2 15.8 4.24 18.74 4.2 18.7 C 4.2 20 4.9 20.5 5.9 20.5 C 6.9 20.5 7.6 20 7.6 18.7 C 7.6 18.7 7.6 17.2 7.6 17.2 C 7.6 16.2 7.3 15.7 6.3 15.1 C 6.3 15.1 4 13.8 4 13.8 C 2.1 12.7 1 11.8 1 9.8 C 1 9.8 1 7.2 1 7.2 C 1 4.7 2.5 3.6 4.5 3.2 C 4.49 3.21 4.5 1.1 4.5 1.1 L 7.4 1.1 C 7.4 1.1 7.4 3.21 7.4 3.2 C 9.4 3.6 10.8 4.8 10.8 7.2 C 10.79 7.17 10.8 10.4 10.8 10.4 L 7.6 10.4 C 7.6 10.4 7.57 7.62 7.6 7.6 C 7.6 6.4 6.9 5.9 5.9 5.9 C 4.9 5.9 4.2 6.4 4.2 7.6 C 4.2 7.6 4.2 9 4.2 9 C 4.2 10 4.6 10.4 5.5 11 C 5.5 11 7.8 12.3 7.8 12.3 C 9.7 13.4 10.8 14.2 10.8 16.3 Z M 22.5 7.3 C 22.5 7.3 22.5 19.1 22.5 19.1 C 22.5 22.1 20.8 23.3 17.8 23.3 C 17.8 23.3 17.6 23.3 17.6 23.3 C 14.6 23.3 12.8 22.1 12.8 19.1 C 12.8 19.1 12.8 7.3 12.8 7.3 C 12.8 4.3 14.6 3.1 17.6 3.1 C 17.6 3.1 17.8 3.1 17.8 3.1 C 20.8 3.1 22.5 4.3 22.5 7.3 Z M 17.7 6 C 16.6 6 16 6.4 16 7.8 C 16 7.8 16 18.6 16 18.6 C 16 20 16.6 20.4 17.7 20.4 C 18.7 20.4 19.4 20 19.4 18.6 C 19.4 18.6 19.4 7.8 19.4 7.8 C 19.4 6.4 18.7 6 17.7 6 Z M 27.9 22.2 C 27.9 24 27 25.7 26.1 26.8 C 26.1 26.8 24.8 26.2 24.8 26.2 C 25.5 25.3 26 24.1 26.2 23.1 C 26.17 23.09 24.7 23.1 24.7 23.1 L 24.7 19.4 L 27.9 19.4 C 27.9 19.4 27.9 22.25 27.9 22.2 Z M 39.8 7.3 C 39.8 7.3 39.8 19.1 39.8 19.1 C 39.8 22.1 38 23.3 35 23.3 C 35 23.3 34.8 23.3 34.8 23.3 C 31.8 23.3 30 22.1 30 19.1 C 30 19.1 30 7.3 30 7.3 C 30 4.3 31.8 3.1 34.8 3.1 C 34.8 3.1 35 3.1 35 3.1 C 38 3.1 39.8 4.3 39.8 7.3 Z M 34.9 6 C 33.9 6 33.2 6.4 33.2 7.8 C 33.2 7.8 33.2 18.6 33.2 18.6 C 33.2 20 33.9 20.4 34.9 20.4 C 35.9 20.4 36.6 20 36.6 18.6 C 36.6 18.6 36.6 7.8 36.6 7.8 C 36.6 6.4 35.9 6 34.9 6 Z M 51.8 7.3 C 51.8 7.3 51.8 19.1 51.8 19.1 C 51.8 22.1 50 23.3 47 23.3 C 47 23.3 46.8 23.3 46.8 23.3 C 43.8 23.3 42.1 22.1 42.1 19.1 C 42.1 19.1 42.1 7.3 42.1 7.3 C 42.1 4.3 43.8 3.1 46.8 3.1 C 46.8 3.1 47 3.1 47 3.1 C 50 3.1 51.8 4.3 51.8 7.3 Z M 46.9 6 C 45.9 6 45.2 6.4 45.2 7.8 C 45.2 7.8 45.2 18.6 45.2 18.6 C 45.2 20 45.9 20.4 46.9 20.4 C 48 20.4 48.6 20 48.6 18.6 C 48.6 18.6 48.6 7.8 48.6 7.8 C 48.6 6.4 48 6 46.9 6 Z M 63.8 7.3 C 63.8 7.3 63.8 19.1 63.8 19.1 C 63.8 22.1 62 23.3 59.1 23.3 C 59.1 23.3 58.8 23.3 58.8 23.3 C 55.9 23.3 54.1 22.1 54.1 19.1 C 54.1 19.1 54.1 7.3 54.1 7.3 C 54.1 4.3 55.9 3.1 58.8 3.1 C 58.8 3.1 59.1 3.1 59.1 3.1 C 62 3.1 63.8 4.3 63.8 7.3 Z M 59 6 C 57.9 6 57.3 6.4 57.3 7.8 C 57.3 7.8 57.3 18.6 57.3 18.6 C 57.3 20 57.9 20.4 59 20.4 C 60 20.4 60.6 20 60.6 18.6 C 60.6 18.6 60.6 7.8 60.6 7.8 C 60.6 6.4 60 6 59 6 Z M 69.2 22.2 C 69.2 24 68.3 25.7 67.3 26.8 C 67.3 26.8 66.1 26.2 66.1 26.2 C 66.8 25.3 67.3 24.1 67.5 23.1 C 67.45 23.09 66 23.1 66 23.1 L 66 19.4 L 69.2 19.4 C 69.2 19.4 69.17 22.25 69.2 22.2 Z M 81 7.3 C 81 7.3 81 19.1 81 19.1 C 81 22.1 79.3 23.3 76.3 23.3 C 76.3 23.3 76.1 23.3 76.1 23.3 C 73.1 23.3 71.3 22.1 71.3 19.1 C 71.3 19.1 71.3 7.3 71.3 7.3 C 71.3 4.3 73.1 3.1 76.1 3.1 C 76.1 3.1 76.3 3.1 76.3 3.1 C 79.3 3.1 81 4.3 81 7.3 Z M 76.2 6 C 75.1 6 74.5 6.4 74.5 7.8 C 74.5 7.8 74.5 18.6 74.5 18.6 C 74.5 20 75.1 20.4 76.2 20.4 C 77.2 20.4 77.9 20 77.9 18.6 C 77.9 18.6 77.9 7.8 77.9 7.8 C 77.9 6.4 77.2 6 76.2 6 Z M 93.1 7.3 C 93.1 7.3 93.1 19.1 93.1 19.1 C 93.1 22.1 91.3 23.3 88.3 23.3 C 88.3 23.3 88.1 23.3 88.1 23.3 C 85.1 23.3 83.3 22.1 83.3 19.1 C 83.3 19.1 83.3 7.3 83.3 7.3 C 83.3 4.3 85.1 3.1 88.1 3.1 C 88.1 3.1 88.3 3.1 88.3 3.1 C 91.3 3.1 93.1 4.3 93.1 7.3 Z M 88.2 6 C 87.2 6 86.5 6.4 86.5 7.8 C 86.5 7.8 86.5 18.6 86.5 18.6 C 86.5 20 87.2 20.4 88.2 20.4 C 89.2 20.4 89.9 20 89.9 18.6 C 89.9 18.6 89.9 7.8 89.9 7.8 C 89.9 6.4 89.2 6 88.2 6 Z M 105.1 7.3 C 105.1 7.3 105.1 19.1 105.1 19.1 C 105.1 22.1 103.3 23.3 100.3 23.3 C 100.3 23.3 100.1 23.3 100.1 23.3 C 97.2 23.3 95.4 22.1 95.4 19.1 C 95.4 19.1 95.4 7.3 95.4 7.3 C 95.4 4.3 97.2 3.1 100.1 3.1 C 100.1 3.1 100.3 3.1 100.3 3.1 C 103.3 3.1 105.1 4.3 105.1 7.3 Z M 100.2 6 C 99.2 6 98.5 6.4 98.5 7.8 C 98.5 7.8 98.5 18.6 98.5 18.6 C 98.5 20 99.2 20.4 100.2 20.4 C 101.3 20.4 101.9 20 101.9 18.6 C 101.9 18.6 101.9 7.8 101.9 7.8 C 101.9 6.4 101.3 6 100.2 6 Z " stroke="none" fill="#282828"/>
  </g>
</svg>