<?xml version="1.0" standalone="no"?>
<!DOCTYPE svg PUBLIC "-//W3C//DTD SVG 1.1//EN" "http://www.w3.org/Graphics/SVG/1.1/DTD/svg11.dtd">
<svg xmlns="http://www.w3.org/2000/svg" version="1.1" width="23.2px" height="51.8px" viewBox="0 -13 23.2 51.8" style="top:-13px">
  <desc>%</desc>
  <defs/>
  <g id="Polygon265670">
    <path d="M 6.1 1.8 C 9.1 1.8 11.2 4.1 11.2 7.1 C 11.2 10.1 9.1 12.3 6.1 12.3 C 3 12.3 1 10.1 1 7.1 C 1 4.1 3 1.8 6.1 1.8 Z M 17.6 2.1 L 19.3 2.1 L 5.8 23.3 L 4.1 23.3 L 17.6 2.1 Z M 6.1 3.4 C 4.2 3.4 2.9 5 2.9 7.1 C 2.9 9.1 4.2 10.7 6.1 10.7 C 8 10.7 9.3 9.1 9.3 7.1 C 9.3 5 8 3.4 6.1 3.4 Z M 17.1 13.3 C 20.1 13.3 22.2 15.5 22.2 18.5 C 22.2 21.5 20.1 23.7 17.1 23.7 C 14.1 23.7 12 21.5 12 18.5 C 12 15.5 14.1 13.3 17.1 13.3 Z M 17.1 14.9 C 15.2 14.9 13.9 16.4 13.9 18.5 C 13.9 20.5 15.2 22.1 17.1 22.1 C 19 22.1 20.4 20.5 20.4 18.5 C 20.4 16.4 19 14.9 17.1 14.9 Z " stroke="none" fill="#fff"/>
  </g>
</svg>