<?xml version="1.0" standalone="no"?><!DOCTYPE svg PUBLIC "-//W3C//DTD SVG 1.1//EN" "http://www.w3.org/Graphics/SVG/1.1/DTD/svg11.dtd"><svg xmlns="http://www.w3.org/2000/svg" xmlns:xlink="http://www.w3.org/1999/xlink" version="1.1" width="77px" height="25.9px" viewBox="0 -8 77 25.9" style="top:-8px"><desc/><defs/><g id="Polygon69502"><path d="m14.5 3.9l3.9-2v.4l-3.5 1.8l3.5 1.8v.4l-3.9-2v-.4zm4.4 0l4-2v.4l-3.5 1.8l3.5 1.8v.4l-4-2v-.4zM26.7 1c1 0 1.7.4 2.3 1l-.4.3c-.5-.5-1.1-.8-1.9-.8c-1.4 0-2.5 1-2.5 2.6c0 1.6 1.1 2.7 2.5 2.7c.8 0 1.4-.4 1.8-.8c-.04.03 0-1.4 0-1.4h-2.3v-.5h2.8s-.03 2.13 0 2.1c-.6.6-1.4 1-2.3 1c-1.7 0-3-1.2-3-3.1c0-1.8 1.3-3.1 3-3.1zm3.6 1.8h.4s.03.71 0 .7c.4-.5.9-.8 1.5-.8v.5h-.2c-.5 0-1.1.4-1.3.7c.03.04 0 3.2 0 3.2h-.4V2.8zm2.6 2.1c0-1.2.8-2.2 2-2.2c1.3 0 2.1 1 2.1 2.2c0 1.3-.8 2.3-2.1 2.3c-1.2 0-2-1-2-2.3zm3.6 0c0-.9-.5-1.8-1.6-1.8c-1 0-1.5.9-1.5 1.8c0 1 .5 1.9 1.5 1.9c1.1 0 1.6-.9 1.6-1.9zm4.3-1.5l-1.3 3.7h-.4l-1.4-4.3h.5l1.1 3.7l1.3-3.7h.4l1.2 3.7l1.1-3.7h.5l-1.4 4.3h-.4l-1.2-3.7zm4 2.9V3.2h-.7v-.4h.7V1.6h.5v1.2h.9v.4h-.9v3c0 .4.1.6.4.6c.2 0 .4-.1.5-.2l.2.3c-.2.2-.4.3-.7.3c-.6 0-.9-.3-.9-.9zm5.3-2.2c0-.8-.4-1-1-1c-.6 0-1.2.3-1.4.7c-.04.02 0 3.3 0 3.3h-.5v-6h.5s-.04 2.32 0 2.3c.3-.4.9-.7 1.5-.7c.9 0 1.4.4 1.4 1.3v3.1h-.5s.03-2.95 0-3zm4.1 2.6c2-1.7 3.4-2.8 3.4-4c0-.9-.7-1.2-1.4-1.2c-.7 0-1.3.3-1.6.8l-.4-.4c.4-.5 1.2-.9 2-.9c.9 0 1.9.5 1.9 1.7c0 1.3-1.4 2.5-3.1 3.9c-.04.04 3.1 0 3.1 0v.5h-3.9s-.04-.41 0-.4zM61.6 1c1.6 0 2.3 1.7 2.3 3.1c0 1.4-.7 3.1-2.3 3.1c-1.6 0-2.2-1.7-2.2-3.1c0-1.4.6-3.1 2.2-3.1zm0 .5c-1.2 0-1.6 1.4-1.6 2.6c0 1.2.4 2.7 1.6 2.7c1.3 0 1.7-1.5 1.7-2.7c0-1.2-.4-2.6-1.7-2.6zm4.3.3l-1 1l-.3-.3l1.3-1.4h.5v6h-.5V1.8zM69.2 4c-.7-.2-1.4-.6-1.4-1.4c0-1.1 1-1.6 1.9-1.6c1 0 2 .5 2 1.6c0 .8-.7 1.2-1.4 1.4c.7.2 1.4.8 1.4 1.6c0 1-.8 1.6-2 1.6c-1.1 0-2-.6-2-1.6c0-.8.7-1.4 1.5-1.6zm.5-2.5c-.8 0-1.4.4-1.4 1.1c0 .9 1.1 1.1 1.4 1.2c.4-.1 1.4-.3 1.4-1.2c0-.7-.6-1.1-1.4-1.1zm0 2.7c-.4.1-1.5.5-1.5 1.4c0 .7.7 1.2 1.5 1.2c.8 0 1.5-.5 1.5-1.2c0-.9-1.1-1.3-1.5-1.4zm5.2.5h2.1v.4h-2.1v-.4z" stroke="none" fill="#000"/><a xlink:href="DBF_Growth%202018%20-%202023%20(1%20Mile)1" xlink:show="new" xlink:title="&lt;&lt;Growth 2018 - 2023 (1 Mile)1&gt;&gt;"><rect style="fill:transparent;" x="13" y="0" width="64" height="7"/></a></g></svg>