<?xml version="1.0" standalone="no"?>
<!DOCTYPE svg PUBLIC "-//W3C//DTD SVG 1.1//EN" "http://www.w3.org/Graphics/SVG/1.1/DTD/svg11.dtd">
<svg xmlns="http://www.w3.org/2000/svg" version="1.1" width="13.2px" height="30.8px" viewBox="0 -7 13.2 30.8" style="top:-7px">
  <desc>%</desc>
  <defs/>
  <g id="Polygon206320">
    <path d="M 3.4 1 C 5.2 1 6.4 2.3 6.4 4 C 6.4 5.7 5.2 7 3.4 7 C 1.7 7 0.6 5.7 0.6 4 C 0.6 2.3 1.7 1 3.4 1 Z M 10 1.2 L 11 1.2 L 3.3 13.2 L 2.3 13.2 L 10 1.2 Z M 3.4 2 C 2.4 2 1.6 2.8 1.6 4 C 1.6 5.2 2.4 6.1 3.4 6.1 C 4.5 6.1 5.3 5.2 5.3 4 C 5.3 2.8 4.5 2 3.4 2 Z M 9.7 7.5 C 11.4 7.5 12.6 8.8 12.6 10.5 C 12.6 12.2 11.4 13.4 9.7 13.4 C 8 13.4 6.8 12.2 6.8 10.5 C 6.8 8.8 8 7.5 9.7 7.5 Z M 9.7 8.4 C 8.6 8.4 7.9 9.3 7.9 10.5 C 7.9 11.6 8.6 12.5 9.7 12.5 C 10.8 12.5 11.5 11.6 11.5 10.5 C 11.5 9.3 10.8 8.4 9.7 8.4 Z " stroke="none" fill="#fff"/>
  </g>
</svg>