<?xml version="1.0" standalone="no"?><!DOCTYPE svg PUBLIC "-//W3C//DTD SVG 1.1//EN" "http://www.w3.org/Graphics/SVG/1.1/DTD/svg11.dtd"><svg xmlns="http://www.w3.org/2000/svg" version="1.1" width="11px" height="30.8px" viewBox="0 -7 11 30.8" style="top:-7px"><desc/><defs/><g id="Polygon269885"><path d="m6 13.4c-.02 0 0 1.6 0 1.6H4.9s-.02-1.58 0-1.6c-1.9-.1-3.2-.8-4.1-1.9l.9-1.1c.7.8 1.8 1.5 3.2 1.7V7.7C3 7.2 1.1 6.6 1.1 4.4c0-1.9 1.6-3.2 3.8-3.4c-.02.03 0-1.6 0-1.6h1.1s-.02 1.67 0 1.7c1.5.1 2.7.7 3.5 1.6l-.9 1.1C7.9 3 7 2.6 6 2.4v3.9c1.8.6 3.8 1.2 3.8 3.6c0 1.6-1 3.3-3.8 3.5zM4.9 6.1V2.4c-1.3.1-2.2.8-2.2 1.9c0 1 1 1.4 2.2 1.8zM8.3 10c0-1.2-1.1-1.6-2.3-2v4c1.7-.1 2.3-1.1 2.3-2z" stroke="none" fill="#fff"/></g></svg>