<?xml version="1.0" standalone="no"?><!DOCTYPE svg PUBLIC "-//W3C//DTD SVG 1.1//EN" "http://www.w3.org/Graphics/SVG/1.1/DTD/svg11.dtd"><svg xmlns="http://www.w3.org/2000/svg" version="1.1" width="375px" height="46.5px" viewBox="0 -10 375 46.5" style="top:-10px"><desc>DEMOGRAPHICS</desc><defs/><g id="Polygon75151"><path d="m127.1 6.4v11.4c0 3-1.9 4.2-4.9 4.2c-.02.02-5.1 0-5.1 0V2.3s5.08-.04 5.1 0c3 0 4.9 1.1 4.9 4.1zm-5-1.3c-.03.04-1.7 0-1.7 0v14s1.67.04 1.7 0c1 0 1.8-.4 1.8-1.8V6.9c0-1.4-.8-1.8-1.8-1.8zm7.5 16.9V2.3h8.6v2.8h-5.3v5.5h4.5v2.8h-4.5v5.7h5.4v2.9h-8.7zm18.6-2.9h-1.8l-3-9.2V22h-3V2.3h3.1l3.8 11.5l3.8-11.5h3.2V22h-3.1V9.9l-3 9.2zM161.7 2h.3c3 0 4.9 1.2 4.9 4.2v11.9c0 3-1.9 4.1-4.9 4.1h-.3c-3 0-4.9-1.1-4.9-4.1V6.2c0-3 1.9-4.2 4.9-4.2zm.1 17.4c1.1 0 1.9-.4 1.9-1.8V6.7c0-1.4-.8-1.8-1.9-1.8c-1 0-1.8.4-1.8 1.8v10.9c0 1.4.8 1.8 1.8 1.8zm17.6-1.3c0 3-2 4.1-5 4.1h-.2c-3 0-5-1.1-5-4.1V6.2c0-2.9 2-4.2 5-4.2h.2c3 0 5 1.3 5 4.2v2.8h-3.3s.04-2.28 0-2.3c0-1.4-.7-1.8-1.8-1.8c-1 0-1.8.4-1.8 1.8v10.9c0 1.4.8 1.8 1.8 1.8c1.1 0 1.8-.4 1.8-1.8c.04-.04 0-3 0-3h-1.9v-2.7h5.2v6.2zm9.8 3.9l-2.5-7.9h-1.6v7.9h-3.3V2.3s5.09-.04 5.1 0c3 0 5 1.1 5 4.1v3.6c0 1.9-.8 3-2.2 3.6l2.8 8.4h-3.3zm-4.1-10.7s1.68.02 1.7 0c1.1 0 1.8-.4 1.8-1.8V6.9c0-1.4-.7-1.8-1.8-1.8c-.02.04-1.7 0-1.7 0v6.2zm15.4 6.3h-3.6l-.7 4.4H193l3.7-19.7h4.1l3.8 19.7h-3.4l-.7-4.4zm-.4-2.7l-1.4-8.8l-1.4 8.8h2.8zM216 6.4v3.8c0 3-2 4.2-5 4.2c.03-.03-1.8 0-1.8 0v7.6h-3.3V2.3s5.13-.04 5.1 0c3 0 5 1.1 5 4.1zm-3.3.5c0-1.4-.7-1.8-1.8-1.8c.02.04-1.7 0-1.7 0v6.4s1.72-.01 1.7 0c1.1 0 1.8-.4 1.8-1.8V6.9zm8.4-4.6v8.2h3.7V2.3h3.3V22h-3.3v-8.6h-3.7v8.6h-3.3V2.3h3.3zm9.7 19.7V2.3h3.2V22h-3.2zm15.8-3.9c0 3-2 4.1-5 4.1c-3 0-5-1.1-5-4.1V6.2c0-2.9 2-4.2 5-4.2c3 0 5 1.3 5 4.2c-.02.01 0 3.6 0 3.6h-3.3V6.7c0-1.4-.7-1.8-1.7-1.8c-1.1 0-1.7.4-1.7 1.8v10.9c0 1.3.6 1.8 1.7 1.8c1 0 1.7-.5 1.7-1.8c.01-.04 0-3.6 0-3.6h3.3s-.02 4.07 0 4.1zm8.5-8.8s-.05-2.75 0-2.7c0-1.3-.8-1.7-1.7-1.7c-1 0-1.7.4-1.7 1.7v1.3c0 1 .4 1.5 1.3 2l2.3 1.3c1.9 1.1 3 2 3 4.1v2.8c0 3.1-1.9 4.1-4.9 4.1c-3 0-4.9-1-4.9-4.1v-3.4h3.2s.02 2.98 0 3c0 1.2.7 1.7 1.7 1.7c1 0 1.7-.5 1.7-1.7v-1.6c0-1-.3-1.5-1.3-2l-2.3-1.3c-1.9-1.1-3-2-3-4.1V6.1c0-2.9 2.1-4.1 4.9-4.1c2.7 0 4.9 1.2 4.9 4.1c-.03 0 0 3.2 0 3.2h-3.2z" stroke="none" fill="#282828"/></g></svg>