<?xml version="1.0" standalone="no"?>
<!DOCTYPE svg PUBLIC "-//W3C//DTD SVG 1.1//EN" "http://www.w3.org/Graphics/SVG/1.1/DTD/svg11.dtd">
<svg xmlns="http://www.w3.org/2000/svg" version="1.1" width="109.3px" height="27.9px" viewBox="0 -6 109.3 27.9" style="top:-6px">
  <desc>GLA</desc>
  <defs/>
  <g id="Polygon269025">
    <path d="M 6.2 1.8 C 8.2 1.8 9.5 2.7 10.4 3.9 C 10.4 3.9 9.1 4.6 9.1 4.6 C 8.5 3.8 7.5 3.2 6.2 3.2 C 4 3.2 2.4 4.9 2.4 7.3 C 2.4 9.6 4 11.3 6.2 11.3 C 7.4 11.3 8.4 10.8 8.9 10.3 C 8.91 10.29 8.9 8.4 8.9 8.4 L 5.5 8.4 L 5.5 7 L 10.5 7 C 10.5 7 10.5 10.88 10.5 10.9 C 9.5 12 8 12.8 6.2 12.8 C 3.2 12.8 0.7 10.6 0.7 7.3 C 0.7 4 3.2 1.8 6.2 1.8 Z M 12.5 2 L 14.1 2 L 14.1 11.2 L 18.9 11.2 L 18.9 12.5 L 12.5 12.5 L 12.5 2 Z M 27.4 10.4 L 22.2 10.4 L 21.3 12.5 L 19.6 12.5 L 23.8 2 L 25.8 2 L 30 12.5 L 28.2 12.5 L 27.4 10.4 Z M 22.6 8.9 L 26.9 8.9 L 24.8 3.3 L 22.6 8.9 Z " stroke="none" fill="#000"/>
  </g>
</svg>