<?xml version="1.0" standalone="no"?><!DOCTYPE svg PUBLIC "-//W3C//DTD SVG 1.1//EN" "http://www.w3.org/Graphics/SVG/1.1/DTD/svg11.dtd"><svg xmlns="http://www.w3.org/2000/svg" version="1.1" width="13.2px" height="124.9px" viewBox="0 -4 13.2 124.9" style="top:-4px"><desc>03 04 05 07 08 09 10</desc><defs/><g id="Polygon276472"><path d="m1.7 110.5l-1 1l-.6-.6l1.8-1.8h.9v6H1.7v-4.6zm4.4-1.5c1.7 0 2.4 1.6 2.4 3.1c0 1.5-.7 3.1-2.4 3.1c-1.7 0-2.4-1.6-2.4-3.1c0-1.5.7-3.1 2.4-3.1zm0 1c-1 0-1.3 1-1.3 2.1c0 1.2.3 2.2 1.3 2.2c1 0 1.3-1 1.3-2.2c0-1.1-.3-2.1-1.3-2.1z" stroke="none" fill="#88898a"/></g><g id="Polygon276471"><path d="m2.8 91c1.7 0 2.4 1.6 2.4 3.1c0 1.5-.7 3.1-2.4 3.1c-1.7 0-2.4-1.6-2.4-3.1c0-1.5.7-3.1 2.4-3.1zm0 1c-1 0-1.4 1-1.4 2.1c0 1.2.4 2.2 1.4 2.2c1 0 1.3-1 1.3-2.2c0-1.1-.3-2.1-1.3-2.1zm3.8 3.8c.3.3.7.5 1.2.5c1.1 0 1.6-1 1.6-2v-.2c-.3.4-.9.9-1.6.9c-1.1 0-2-.7-2-2c0-1.1.9-2 2.2-2c1.8 0 2.5 1.4 2.5 3.1c0 1.7-.9 3.1-2.7 3.1c-.7 0-1.3-.3-1.7-.7l.5-.7zm1.5-3.9c-.8 0-1.2.6-1.2 1.1c0 .7.5 1.1 1.2 1.1c.5 0 1-.3 1.3-.7c0-.7-.4-1.5-1.3-1.5z" stroke="none" fill="#88898a"/></g><g id="Polygon276470"><path d="m2.8 73c1.7 0 2.4 1.6 2.4 3.1c0 1.5-.7 3.1-2.4 3.1c-1.7 0-2.4-1.6-2.4-3.1c0-1.5.7-3.1 2.4-3.1zm0 1c-1 0-1.4 1-1.4 2.1c0 1.2.4 2.2 1.4 2.2c1 0 1.3-1 1.3-2.2c0-1.1-.3-2.1-1.3-2.1zm4.4 2c-.7-.2-1.3-.6-1.3-1.4c0-1.1 1.2-1.6 2.2-1.6c1.1 0 2.2.5 2.2 1.6c0 .8-.5 1.2-1.2 1.4c.7.3 1.3.8 1.3 1.6c0 1-1 1.6-2.3 1.6c-1.2 0-2.3-.5-2.3-1.6c0-.8.7-1.3 1.4-1.6zm.9-2c-.6 0-1.1.2-1.1.8c0 .5.8.7 1.1.8c.4-.1 1.2-.3 1.2-.8c0-.6-.5-.8-1.2-.8zm0 2.5c-.3 0-1.2.3-1.2.9c0 .6.6.9 1.2.9c.7 0 1.3-.3 1.3-.9c0-.6-.9-.9-1.3-.9z" stroke="none" fill="#88898a"/></g><g id="Polygon276469"><path d="m2.8 55c1.7 0 2.4 1.6 2.4 3.1c0 1.5-.7 3.1-2.4 3.1c-1.7 0-2.4-1.6-2.4-3.1c0-1.5.7-3.1 2.4-3.1zm0 1c-1 0-1.4 1-1.4 2.1c0 1.2.4 2.2 1.4 2.2c1 0 1.3-1 1.3-2.2c0-1.1-.3-2.1-1.3-2.1zm6 0H5.7v-.9h4.3v.7l-2.3 5.3H6.5L8.8 56z" stroke="none" fill="#88898a"/></g><g id="Polygon276468"><path d="m2.8 37c1.7 0 2.4 1.6 2.4 3.1c0 1.5-.7 3.1-2.4 3.1c-1.7 0-2.4-1.6-2.4-3.1c0-1.5.7-3.1 2.4-3.1zm0 1c-1 0-1.4 1-1.4 2.1c0 1.2.4 2.2 1.4 2.2c1 0 1.3-1 1.3-2.2c0-1.1-.3-2.1-1.3-2.1zm3.8 3.6c.4.4.9.7 1.6.7c.7 0 1.2-.5 1.2-1.1c0-.6-.5-1-1.2-1c-.5 0-.9.1-1.3.5c-.01-.02-.8-.2-.8-.2v-3.4h4v.9H7.2v1.8c.3-.3.8-.6 1.4-.6c1 0 1.9.8 1.9 2c0 1.2-1 2-2.3 2c-1 0-1.8-.3-2.2-.9l.6-.7z" stroke="none" fill="#88898a"/></g><g id="Polygon276467"><path d="m2.8 19c1.7 0 2.4 1.6 2.4 3.1c0 1.5-.7 3.1-2.4 3.1c-1.7 0-2.4-1.6-2.4-3.1c0-1.5.7-3.1 2.4-3.1zm0 1c-1 0-1.4 1-1.4 2.1c0 1.2.4 2.2 1.4 2.2c1 0 1.3-1 1.3-2.2c0-1.1-.3-2.1-1.3-2.1zm5.8 3.8H5.7v-.9l2.5-3.8h1.4v3.7h.8v1h-.8v1.3h-1v-1.3zm-1.9-1h1.9v-2.7l-1.9 2.7z" stroke="none" fill="#88898a"/></g><g id="Polygon276466"><path d="m2.8 1c1.7 0 2.4 1.6 2.4 3.1c0 1.5-.7 3.1-2.4 3.1C1.1 7.2.4 5.6.4 4.1C.4 2.6 1.1 1 2.8 1zm0 1c-1 0-1.4 1-1.4 2.1c0 1.2.4 2.2 1.4 2.2c1 0 1.3-1 1.3-2.2C4.1 3 3.8 2 2.8 2zm3.4 3.6c.4.4 1.1.7 1.7.7c.8 0 1.3-.4 1.3-.9c0-.6-.5-.9-1.4-.9h-.7v-.9h.7c.7 0 1.3-.3 1.3-.8c0-.6-.6-.8-1.3-.8c-.6 0-1.1.2-1.5.6L5.8 2c.4-.6 1.1-1 2.1-1c1.3 0 2.2.6 2.2 1.6c0 .8-.7 1.3-1.3 1.4c.6.1 1.4.5 1.4 1.5c0 1-.9 1.7-2.3 1.7c-1 0-1.8-.4-2.2-1l.5-.6z" stroke="none" fill="#88898a"/></g></svg>