<?xml version="1.0" standalone="no"?><!DOCTYPE svg PUBLIC "-//W3C//DTD SVG 1.1//EN" "http://www.w3.org/Graphics/SVG/1.1/DTD/svg11.dtd"><svg xmlns="http://www.w3.org/2000/svg" version="1.1" width="168px" height="46.5px" viewBox="0 -10 168 46.5" style="top:-10px"><desc>XXXX</desc><defs/><g id="Polygon281658"><path d="m7.8 11.9L11.7 22H8.3l-2.4-7.2L3.6 22H.2l3.9-10.1L.5 2.3h3.4L6 8.9l2-6.6h3.3l-3.5 9.6zm11.7 0L23.4 22H20l-2.5-7.2l-2.3 7.2h-3.3l3.9-10.1l-3.6-9.6h3.4l2.1 6.6l1.9-6.6h3.4l-3.5 9.6zm11.7 0L35 22h-3.3l-2.5-7.2l-2.3 7.2h-3.4l3.9-10.1l-3.5-9.6h3.3l2.1 6.6l2-6.6h3.3l-3.4 9.6zm11.6 0L46.7 22h-3.4l-2.4-7.2l-2.4 7.2h-3.3l3.9-10.1l-3.6-9.6h3.4L41 8.9l1.9-6.6h3.4l-3.5 9.6z" stroke="none" fill="#282828"/></g></svg>