<?xml version="1.0" standalone="no"?><!DOCTYPE svg PUBLIC "-//W3C//DTD SVG 1.1//EN" "http://www.w3.org/Graphics/SVG/1.1/DTD/svg11.dtd"><svg xmlns="http://www.w3.org/2000/svg" xmlns:xlink="http://www.w3.org/1999/xlink" version="1.1" width="237px" height="44.9px" viewBox="0 -14 237 44.9" style="top:-14px"><desc/><defs/><g id="Polygon54938"><path d="m95 6.9l6.9-3.6v.8l-6.1 3.1l6.1 3.1v.8L95 7.5v-.6zm7.8 0l7-3.6v.8l-6.1 3.1l6.1 3.1v.8l-7-3.6v-.6zm12 1.3h-2.3v4.3h-.9V2s3.93-.05 3.9 0c1.9 0 3.3 1.1 3.3 3.1c0 1.9-1.4 2.9-3 3c.02 0 3.1 4.4 3.1 4.4h-1.1l-3-4.3zm.7-5.4c-.05-.02-3 0-3 0v4.5s2.95.04 3 0c1.4 0 2.3-.9 2.3-2.2c0-1.4-.9-2.3-2.3-2.3zm4.6 5.9c0-2.2 1.4-4 3.6-4c2.3 0 3.7 1.8 3.7 4c0 2.2-1.4 4-3.7 4c-2.2 0-3.6-1.8-3.6-4zm6.5 0c0-1.7-1-3.3-2.9-3.3c-1.7 0-2.8 1.6-2.8 3.3c0 1.7 1.1 3.3 2.8 3.3c1.9 0 2.9-1.6 2.9-3.3zm2.5 0c0-2.2 1.5-4 3.7-4c2.3 0 3.7 1.8 3.7 4c0 2.2-1.4 4-3.7 4c-2.2 0-3.7-1.8-3.7-4zm6.5 0c0-1.7-1-3.3-2.8-3.3c-1.8 0-2.8 1.6-2.8 3.3c0 1.7 1 3.3 2.8 3.3c1.8 0 2.8-1.6 2.8-3.3zm3.3-3.1h-1.3v-.7h1.3v-.7c0-1.5.8-2.4 2.1-2.4c.4 0 .7.1 1 .2l-.2.7c-.2-.1-.4-.2-.7-.2c-.9 0-1.4.6-1.4 1.7c.04-.02 0 .7 0 .7h1.6v.7h-1.6v6.9h-.8V5.6zm15.1 6.9c-.4-.3-.9-.7-1.4-1.2c-.7.8-1.7 1.4-3.1 1.4c-1.7 0-3.2-.9-3.2-2.9c0-1.6 1.2-2.5 2.4-3.2c-.5-.8-.9-1.6-.9-2.4c0-1.4 1.1-2.4 2.5-2.4c1.4 0 2.3.7 2.3 2c0 1.6-1.4 2.3-2.7 3c.4.7.9 1.3 1.3 1.7c.5.6 1 1.1 1.4 1.5c.7-.9 1-2 1.2-2.5l.8.3c-.3.8-.8 1.9-1.4 2.8c.6.6 1.3 1.2 2 1.9H154zm-4.5-6.3c1.2-.6 2.3-1.2 2.3-2.4c0-.8-.6-1.3-1.4-1.3c-.9 0-1.7.7-1.7 1.7c0 .6.3 1.3.8 2zm2.6 4.5c-.6-.6-1.3-1.3-1.6-1.7c-.5-.5-1-1.1-1.4-1.8c-1 .6-1.9 1.3-1.9 2.6c0 1.4 1.2 2.2 2.4 2.2c1 0 1.9-.5 2.5-1.3zm9.2-.3c.6.8 1.8 1.5 3.3 1.5c2.1 0 2.8-1.2 2.8-2.1c0-1.5-1.5-1.9-3-2.3c-1.6-.5-3.4-.9-3.4-2.9c0-1.7 1.6-2.8 3.5-2.8c1.6 0 2.7.5 3.6 1.5l-.6.6c-.8-.9-1.9-1.3-3.1-1.3c-1.4 0-2.4.8-2.4 2c0 1.2 1.3 1.6 2.7 2c1.7.5 3.6 1 3.6 3.2c0 1.3-.9 2.9-3.8 2.9c-1.7 0-3-.7-3.8-1.6l.6-.7zm9 .7V5.6H169v-.7h1.3V2.8h.8v2.1h1.6v.7h-1.6s.05 5.34 0 5.3c0 .7.3 1.1.8 1.1c.4 0 .7-.2.9-.4l.3.7c-.3.2-.6.4-1.3.4c-1 0-1.5-.6-1.5-1.6zm4.2-6.2h.8s.04 1.29 0 1.3c.7-.9 1.6-1.5 2.6-1.5v.9h-.4c-.8 0-1.8.7-2.2 1.4c.04-.04 0 5.5 0 5.5h-.8V4.9zm10.2 6.5c-.6.7-1.6 1.3-2.7 1.3c-1.6 0-2.4-.7-2.4-2.4c-.05-.02 0-5.4 0-5.4h.8s-.02 5.19 0 5.2c0 1.5.7 1.9 1.8 1.9c1 0 2-.6 2.5-1.3c.03.02 0-5.8 0-5.8h.9v7.6h-.9s.03-1.08 0-1.1zm6.7-6.7c1.3 0 2.1.5 2.7 1.3l-.5.5c-.6-.8-1.3-1.1-2.1-1.1c-1.8 0-2.9 1.5-2.9 3.3c0 1.8 1.1 3.3 2.9 3.3c.8 0 1.5-.3 2.1-1.1l.5.5c-.6.8-1.4 1.3-2.7 1.3c-2.2 0-3.7-1.8-3.7-4c0-2.2 1.5-4 3.7-4zm4.7 6.4c.03-.03 0-5.5 0-5.5h-1.2v-.7h1.2V2.8h.9v2.1h1.5v.7H197s-.03 5.34 0 5.3c0 .7.2 1.1.8 1.1c.3 0 .7-.2.8-.4l.3.7c-.3.2-.6.4-1.3.4c-1 0-1.5-.6-1.5-1.6zm9.4.3c-.6.7-1.6 1.3-2.7 1.3c-1.6 0-2.5-.7-2.5-2.4c.04-.02 0-5.4 0-5.4h.9s-.03 5.19 0 5.2c0 1.5.7 1.9 1.8 1.9c1 0 2-.6 2.5-1.3c.02.02 0-5.8 0-5.8h.8v7.6h-.8s.02-1.08 0-1.1zm3.4-6.5h.8s.04 1.29 0 1.3c.7-.9 1.6-1.5 2.6-1.5v.9h-.4c-.8 0-1.8.7-2.2 1.4c.04-.04 0 5.5 0 5.5h-.8V4.9zm8.3-.2c2.3 0 3.6 1.8 3.6 4.1c.03-.05 0 .2 0 .2c0 0-6.39-.03-6.4 0c.1 1.6 1.2 3 3 3c1 0 1.9-.3 2.5-1l.5.5c-.8.8-1.8 1.2-3 1.2c-2.3 0-3.9-1.6-3.9-4c0-2.2 1.6-4 3.7-4zm-2.8 3.6h5.6c0-1.3-.9-2.9-2.8-2.9c-1.8 0-2.7 1.6-2.8 2.9zm7.7 2l6.2-3.1l-6.2-3.1v-.8l7 3.6v.6l-7 3.6v-.8zm7.9 0l6.1-3.1l-6.1-3.1v-.8l7 3.6v.6l-7 3.6v-.8z" stroke="none" fill="#000"/><a xlink:href="DBF_Roof%20&amp;%20Structure" xlink:show="new" xlink:title="&lt;&lt;Roof &amp; Structure&gt;&gt;"><rect style="fill:transparent;" x="94" y="1" width="143" height="12"/></a></g></svg>