<?xml version="1.0" standalone="no"?><!DOCTYPE svg PUBLIC "-//W3C//DTD SVG 1.1//EN" "http://www.w3.org/Graphics/SVG/1.1/DTD/svg11.dtd"><svg xmlns="http://www.w3.org/2000/svg" version="1.1" width="164.2px" height="27.5px" viewBox="0 -6 164.2 27.5" style="top:-6px"><desc>00 Million</desc><defs/><g id="Polygon290993"><path d="m6.1 8.7v1.6c0 1.4-.7 2.1-1.9 2.2v1.2H2.5s.04-1.14 0-1.1c-1.2-.2-1.9-.9-1.9-2.3c-.02-.03 0-2 0-2h1.8v1.7c0 .7.4 1 1 1c.5 0 .9-.3.9-1v-.9c0-.5-.2-.8-.7-1.1l-1.3-.8C1.2 6.6.6 6.1.6 4.9V3.5c0-1.4.8-2.1 1.9-2.3c.04.02 0-1.2 0-1.2h1.7v1.2c1.1.2 1.9.9 1.9 2.3c.01-.04 0 1.8 0 1.8H4.3V3.7c0-.7-.4-.9-1-.9c-.5 0-.9.2-.9.9v.8c0 .6.2.8.7 1.1l1.3.8c1.1.6 1.7 1.1 1.7 2.3zm6.7-5.2v6.7c0 1.7-1 2.4-2.7 2.4h-.1c-1.7 0-2.7-.7-2.7-2.4V3.5c0-1.7 1-2.3 2.7-2.3h.1c1.7 0 2.7.6 2.7 2.3zM10 2.8c-.6 0-.9.2-.9 1v6.2c0 .8.3 1 .9 1c.6 0 1-.2 1-1V3.8c0-.8-.4-1-1-1zm9.6.7v6.7c0 1.7-1 2.4-2.7 2.4h-.1c-1.7 0-2.7-.7-2.7-2.4V3.5c0-1.7 1-2.3 2.7-2.3h.1c1.7 0 2.7.6 2.7 2.3zm-2.8-.7c-.6 0-.9.2-.9 1v6.2c0 .8.3 1 .9 1c.6 0 1-.2 1-1V3.8c0-.8-.4-1-1-1zm11 8h-1l-1.7-5.2v6.9h-1.7V1.3h1.7l2.2 6.5l2.2-6.5h1.8v11.2h-1.8V5.6l-1.7 5.2zm5 1.7V1.3h1.8v11.2h-1.8zm8.1 0h-4.8V1.3h1.9v9.5h2.9v1.7zm5.5 0h-4.7V1.3h1.9v9.5h2.8v1.7zm.9 0V1.3h1.9v11.2h-1.9zm6.1-11.3h.2c1.6 0 2.8.6 2.8 2.3v6.7c0 1.7-1.2 2.4-2.8 2.4h-.2c-1.7 0-2.8-.7-2.8-2.4V3.5c0-1.7 1.1-2.3 2.8-2.3zm.1 9.8c.6 0 1-.2 1-1V3.8c0-.8-.4-1-1-1c-.6 0-1 .2-1 1v6.2c0 .8.4 1 1 1zm4.2 1.5V1.3h1.9L62 8.2V1.3h1.6v11.2h-1.7l-2.5-7.3v7.3h-1.7z" stroke="none" fill="#282828"/></g></svg>