<?xml version="1.0" standalone="no"?><!DOCTYPE svg PUBLIC "-//W3C//DTD SVG 1.1//EN" "http://www.w3.org/Graphics/SVG/1.1/DTD/svg11.dtd"><svg xmlns="http://www.w3.org/2000/svg" xmlns:xlink="http://www.w3.org/1999/xlink" version="1.1" width="106.4px" height="44.9px" viewBox="0 -14 106.4 44.9" style="top:-14px"><desc>Agent 1</desc><defs/><g id="Polygon41011"><path d="m10.1 12.7c.04.02 0 1.4 0 1.4h-.7v-1.4c-1.6 0-2.8-.7-3.6-1.6l.6-.7c.6.7 1.7 1.4 3 1.5V7.4C7.8 7 6.2 6.5 6.2 4.6c0-1.6 1.4-2.7 3.2-2.8V.4h.7s.04 1.41 0 1.4c1.4.1 2.4.6 3.1 1.5l-.6.6c-.6-.7-1.5-1.2-2.5-1.2v3.9c1.7.5 3.4 1.1 3.4 3.2c0 1.2-.8 2.8-3.4 2.9zm-.7-6.3V2.6c-1.3.1-2.3.9-2.3 2c0 1.1 1.1 1.5 2.3 1.8zm3.1 3.4c0-1.3-1.1-1.8-2.4-2.2v4.3c1.9-.1 2.4-1.3 2.4-2.1z" stroke="none" fill="#000"/><a xlink:href="DBF_Rent%20/%20SF" xlink:show="new" xlink:title="&lt;&lt;Rent / SF&gt;&gt;"><rect style="fill:transparent;" x="13" y="1" width="93" height="12"/></a></g><g id="Polygon41012"><path d="m14.4 6.9l6.9-3.6v.8l-6.1 3.1l6.1 3.1v.8l-6.9-3.6v-.6zm7.8 0l7-3.6v.8l-6.1 3.1l6.1 3.1v.8l-7-3.6v-.6zm12 1.3h-2.3v4.3h-.9V2s3.92-.05 3.9 0c1.8 0 3.2 1.1 3.2 3.1c0 1.9-1.3 2.9-2.9 3l3.1 4.4h-1.1l-3-4.3zm.6-5.4c.04-.02-2.9 0-2.9 0v4.5s2.94.04 2.9 0c1.4 0 2.4-.9 2.4-2.2c0-1.4-1-2.3-2.4-2.3zm8.3 1.9c2.4 0 3.7 1.8 3.7 4.1c-.03-.05 0 .2 0 .2c0 0-6.45-.03-6.4 0c0 1.6 1.1 3 2.9 3c1 0 1.9-.3 2.6-1l.4.5c-.8.8-1.7 1.2-3 1.2c-2.3 0-3.9-1.6-3.9-4c0-2.2 1.6-4 3.7-4zm-2.7 3.6h5.5c0-1.3-.8-2.9-2.8-2.9c-1.8 0-2.7 1.6-2.7 2.9zm13.7-.9c0-1.5-.8-2-1.9-2c-1 0-2 .7-2.5 1.3c.02.05 0 5.8 0 5.8h-.8V4.9h.8s.02 1.13 0 1.1c.6-.6 1.7-1.3 2.8-1.3c1.5 0 2.4.7 2.4 2.5v5.3h-.8s-.03-5.13 0-5.1zm3.5 3.7c.03-.03 0-5.5 0-5.5h-1.2v-.7h1.2V2.8h.9v2.1h1.5v.7h-1.5s-.03 5.34 0 5.3c0 .7.2 1.1.8 1.1c.3 0 .6-.2.8-.4l.3.7c-.3.2-.6.4-1.3.4c-1 0-1.5-.6-1.5-1.6zm10.8-9.5h.7l-3.7 11.3h-.7l3.7-11.3zm6.2 8.8c.7.8 1.8 1.5 3.3 1.5c2.2 0 2.8-1.2 2.8-2.1c0-1.5-1.5-1.9-2.9-2.3c-1.7-.5-3.5-.9-3.5-2.9c0-1.7 1.6-2.8 3.5-2.8c1.6 0 2.8.5 3.6 1.5l-.6.6c-.8-.9-1.9-1.3-3-1.3c-1.5 0-2.5.8-2.5 2c0 1.2 1.3 1.6 2.7 2c1.7.5 3.6 1 3.6 3.2c0 1.3-.9 2.9-3.7 2.9c-1.8 0-3.1-.7-3.9-1.6l.6-.7zM83.8 2h6.7v.8h-5.8v3.9h5.7v.8h-5.7v5h-.9V2zm7.8 8.3l6.1-3.1l-6.1-3.1v-.8l6.9 3.6v.6l-6.9 3.6v-.8zm7.8 0l6.2-3.1l-6.2-3.1v-.8l7 3.6v.6l-7 3.6v-.8z" stroke="none" fill="#000"/></g></svg>