<?xml version="1.0" standalone="no"?>
<!DOCTYPE svg PUBLIC "-//W3C//DTD SVG 1.1//EN" "http://www.w3.org/Graphics/SVG/1.1/DTD/svg11.dtd">
<svg xmlns="http://www.w3.org/2000/svg" version="1.1" width="60.3px" height="27.5px" viewBox="0 -6 60.3 27.5" style="top:-6px">
  <desc>Agent 1</desc>
  <defs/>
  <g id="Polygon267978">
    <path d="M 6.1 8.7 C 6.1 8.7 6.1 10.3 6.1 10.3 C 6.1 11.7 5.4 12.4 4.2 12.5 C 4.19 12.54 4.2 13.7 4.2 13.7 L 2.5 13.7 C 2.5 13.7 2.54 12.56 2.5 12.6 C 1.3 12.4 0.6 11.7 0.6 10.3 C 0.58 10.27 0.6 8.3 0.6 8.3 L 2.4 8.3 C 2.4 8.3 2.4 10.02 2.4 10 C 2.4 10.7 2.8 11 3.4 11 C 3.9 11 4.3 10.7 4.3 10 C 4.3 10 4.3 9.1 4.3 9.1 C 4.3 8.6 4.1 8.3 3.6 8 C 3.6 8 2.3 7.2 2.3 7.2 C 1.2 6.6 0.6 6.1 0.6 4.9 C 0.6 4.9 0.6 3.5 0.6 3.5 C 0.6 2.1 1.4 1.4 2.5 1.2 C 2.54 1.22 2.5 0 2.5 0 L 4.2 0 C 4.2 0 4.19 1.22 4.2 1.2 C 5.3 1.4 6.1 2.1 6.1 3.5 C 6.11 3.46 6.1 5.3 6.1 5.3 L 4.3 5.3 C 4.3 5.3 4.29 3.71 4.3 3.7 C 4.3 3 3.9 2.8 3.3 2.8 C 2.8 2.8 2.4 3 2.4 3.7 C 2.4 3.7 2.4 4.5 2.4 4.5 C 2.4 5.1 2.6 5.3 3.1 5.6 C 3.1 5.6 4.4 6.4 4.4 6.4 C 5.5 7 6.1 7.5 6.1 8.7 Z M 12.8 3.5 C 12.8 3.5 12.8 10.2 12.8 10.2 C 12.8 11.9 11.8 12.6 10.1 12.6 C 10.1 12.6 10 12.6 10 12.6 C 8.3 12.6 7.3 11.9 7.3 10.2 C 7.3 10.2 7.3 3.5 7.3 3.5 C 7.3 1.8 8.3 1.2 10 1.2 C 10 1.2 10.1 1.2 10.1 1.2 C 11.8 1.2 12.8 1.8 12.8 3.5 Z M 10 2.8 C 9.4 2.8 9.1 3 9.1 3.8 C 9.1 3.8 9.1 10 9.1 10 C 9.1 10.8 9.4 11 10 11 C 10.6 11 11 10.8 11 10 C 11 10 11 3.8 11 3.8 C 11 3 10.6 2.8 10 2.8 Z M 19.6 3.5 C 19.6 3.5 19.6 10.2 19.6 10.2 C 19.6 11.9 18.6 12.6 16.9 12.6 C 16.9 12.6 16.8 12.6 16.8 12.6 C 15.1 12.6 14.1 11.9 14.1 10.2 C 14.1 10.2 14.1 3.5 14.1 3.5 C 14.1 1.8 15.1 1.2 16.8 1.2 C 16.8 1.2 16.9 1.2 16.9 1.2 C 18.6 1.2 19.6 1.8 19.6 3.5 Z M 16.8 2.8 C 16.2 2.8 15.9 3 15.9 3.8 C 15.9 3.8 15.9 10 15.9 10 C 15.9 10.8 16.2 11 16.8 11 C 17.4 11 17.8 10.8 17.8 10 C 17.8 10 17.8 3.8 17.8 3.8 C 17.8 3 17.4 2.8 16.8 2.8 Z M 26.4 3.5 C 26.4 3.5 26.4 10.2 26.4 10.2 C 26.4 11.9 25.4 12.6 23.7 12.6 C 23.7 12.6 23.6 12.6 23.6 12.6 C 21.9 12.6 20.9 11.9 20.9 10.2 C 20.9 10.2 20.9 3.5 20.9 3.5 C 20.9 1.8 21.9 1.2 23.6 1.2 C 23.6 1.2 23.7 1.2 23.7 1.2 C 25.4 1.2 26.4 1.8 26.4 3.5 Z M 23.6 2.8 C 23.1 2.8 22.7 3 22.7 3.8 C 22.7 3.8 22.7 10 22.7 10 C 22.7 10.8 23.1 11 23.6 11 C 24.2 11 24.6 10.8 24.6 10 C 24.6 10 24.6 3.8 24.6 3.8 C 24.6 3 24.2 2.8 23.6 2.8 Z " stroke="none" fill="#282828"/>
  </g>
</svg>