<?xml version="1.0" standalone="no"?><!DOCTYPE svg PUBLIC "-//W3C//DTD SVG 1.1//EN" "http://www.w3.org/Graphics/SVG/1.1/DTD/svg11.dtd"><svg xmlns="http://www.w3.org/2000/svg" version="1.1" width="292.2px" height="47.4px" viewBox="0 -10 292.2 47.4" style="top:-10px"><desc>1 5 Billion</desc><defs/><g id="Polygon104296"><path d="m9.6 22.6v2.5h-2v-2.5c-2.9-.2-5.1-1.3-6.5-2.9l1.6-2.2c1.1 1.2 2.8 2.3 4.9 2.5v-6.1c-2.9-.7-5.9-1.8-5.9-5.3c0-3 2.4-5.1 5.9-5.4V.6h2v2.6c2.3.3 4.2 1.2 5.6 2.6l-1.6 2.1c-1.1-1.1-2.5-1.8-4-2.1v5.6c2.9.7 6 1.8 6 5.6c0 2.7-1.7 5.2-6 5.6zm-2-11.8V5.7c-1.8.2-3 1.2-3 2.7c0 1.3 1.3 1.9 3 2.4zm5.2 6.4c0-1.6-1.4-2.2-3.2-2.8v5.6c2.3-.2 3.2-1.6 3.2-2.8zm9.3-10l-3 3.2l-1.7-1.8l5.1-5.1h2.5v18.8h-2.9V7.2zm8.3 11.9c.9 0 1.8.8 1.8 1.7c0 1-.9 1.8-1.8 1.8c-1 0-1.8-.8-1.8-1.8c0-.9.8-1.7 1.8-1.7zm6.8-1.3c1.2 1.5 2.9 2.3 5.1 2.3c2.5 0 4.1-1.6 4.1-3.6c0-2.3-1.6-3.7-4-3.7c-1.7 0-3 .5-4.3 1.7c.02-.04-2-.7-2-.7V3.5H48v2.5h-9.1v6c.9-.9 2.5-1.7 4.3-1.7c3.2 0 6 2.2 6 6c0 3.9-2.9 6.3-6.9 6.3c-3.2 0-5.3-1.1-6.8-2.9l1.7-1.9zM59.9 3.5s8.88-.03 8.9 0c3.3 0 5.3 2 5.3 4.8c0 2.3-1.6 3.9-3.3 4.3c2 .3 3.7 2.3 3.7 4.6c0 3-2 5.1-5.5 5.1c.01.01-9.1 0-9.1 0V3.5zm8.3 8c1.9 0 3-1.2 3-2.8c0-1.5-1.1-2.7-3-2.7c.04-.04-5.4 0-5.4 0v5.5s5.44-.04 5.4 0zm.2 8.3c2 0 3.1-1.1 3.1-2.9c0-1.6-1-3-3.1-3c-.02.05-5.6 0-5.6 0v5.9s5.58.02 5.6 0zm9.1-15c0-.9.8-1.7 1.6-1.7c.9 0 1.7.8 1.7 1.7c0 .9-.8 1.6-1.7 1.6c-.8 0-1.6-.7-1.6-1.6zm.4 3.9h2.5v13.6h-2.5V8.7zm6.6-5.2h2.5v18.8h-2.5V3.5zm6.6 0h2.5v18.8h-2.5V3.5zm6.1 1.3c0-.9.8-1.7 1.7-1.7c.9 0 1.6.8 1.6 1.7c0 .9-.7 1.6-1.6 1.6c-.9 0-1.7-.7-1.7-1.6zm.4 3.9h2.6v13.6h-2.6V8.7zm5.8 6.8c0-4 2.6-7.2 6.9-7.2c4.2 0 6.8 3.2 6.8 7.2c0 3.9-2.6 7.1-6.8 7.1c-4.3 0-6.9-3.2-6.9-7.1zm11.1 0c0-2.6-1.5-4.9-4.2-4.9c-2.8 0-4.3 2.3-4.3 4.9c0 2.6 1.5 4.9 4.3 4.9c2.7 0 4.2-2.3 4.2-4.9zm15.1-1.9c0-2.3-1.2-3-2.9-3c-1.6 0-3.1.9-3.8 2v9.7h-2.5V8.7h2.5v1.9c.9-1.1 2.7-2.3 4.8-2.3c2.9 0 4.4 1.6 4.4 4.4v9.6h-2.5s-.03-8.72 0-8.7z" stroke="none" fill="#000"/></g></svg>