<?xml version="1.0" standalone="no"?><!DOCTYPE svg PUBLIC "-//W3C//DTD SVG 1.1//EN" "http://www.w3.org/Graphics/SVG/1.1/DTD/svg11.dtd"><svg xmlns="http://www.w3.org/2000/svg" version="1.1" width="75.4px" height="16.9px" viewBox="0 -4 75.4 16.9" style="top:-4px"><desc>2025 Projection</desc><defs/><g id="Polygon313982"><path d="m.5 6.4c2.2-1.7 3.3-2.6 3.3-3.6c0-.7-.6-1-1.2-1c-.7 0-1.3.3-1.6.8L.4 2c.5-.6 1.3-1 2.2-1c1.1 0 2.1.6 2.1 1.8C4.7 4 3.5 5 1.9 6.3c0 .02 2.8 0 2.8 0v.8H.5s-.03-.7 0-.7zM8.1 1c1.6 0 2.3 1.6 2.3 3.1c0 1.5-.7 3.1-2.3 3.1c-1.7 0-2.4-1.6-2.4-3.1c0-1.5.7-3.1 2.4-3.1zm0 .8C7 1.8 6.7 2.9 6.7 4.1c0 1.2.3 2.3 1.4 2.3c1 0 1.4-1.1 1.4-2.3c0-1.2-.4-2.3-1.4-2.3zm3.2 4.6c2.3-1.7 3.3-2.6 3.3-3.6c0-.7-.6-1-1.2-1c-.7 0-1.2.3-1.6.8l-.5-.6c.5-.6 1.3-1 2.1-1c1.1 0 2.1.6 2.1 1.8c0 1.2-1.1 2.2-2.8 3.5c.04.02 2.8 0 2.8 0v.8h-4.2v-.7zm5.9-.7c.4.4 1 .7 1.7.7c.8 0 1.3-.5 1.3-1.2c0-.7-.5-1.1-1.3-1.1c-.5 0-1 .1-1.4.5l-.6-.2V1.1h3.8v.8h-2.9v1.9c.3-.3.8-.5 1.4-.5c1 0 1.9.7 1.9 1.9c0 1.2-.9 2-2.2 2c-1 0-1.7-.3-2.2-.9l.5-.6zm7.3-4.6s2.54.01 2.5 0c1.3 0 2 .9 2 1.9c0 1-.7 1.8-2 1.8h-1.6v2.3h-.9v-6zm2.4.8h-1.5v2.1h1.5c.7 0 1.1-.4 1.1-1c0-.7-.4-1.1-1.1-1.1zm3 .9h.8s-.03.63 0 .6c.3-.4.8-.7 1.4-.7v.8h-.3c-.4 0-.9.3-1.1.6c-.03-.01 0 3 0 3h-.8V2.8zm2.7 2.1c0-1.2.9-2.2 2.2-2.2c1.4 0 2.2 1 2.2 2.2c0 1.3-.8 2.3-2.2 2.3c-1.3 0-2.2-1-2.2-2.3zm3.6 0c0-.8-.5-1.5-1.4-1.5c-.8 0-1.3.7-1.3 1.5c0 .9.5 1.6 1.3 1.6c.9 0 1.4-.7 1.4-1.6zm1.7-3.4c0-.3.3-.5.5-.5c.3 0 .6.2.6.5c0 .3-.3.5-.6.5c-.2 0-.5-.2-.5-.5zm1 6c0 .8-.5 1.4-1.4 1.4c-.2 0-.3 0-.5-.1l.1-.7c.1.1.2.1.3.1c.4 0 .7-.2.7-.7c-.05-.05 0-4.7 0-4.7h.8s-.04 4.65 0 4.7zm3.2-4.8c1.3 0 2.1 1 2.1 2.3c-.03 0 0 .2 0 .2h-3.5c.1.7.6 1.4 1.5 1.4c.5 0 1-.2 1.3-.6l.4.6c-.5.4-1.1.6-1.8.6c-1.3 0-2.2-.9-2.2-2.3c0-1.2.9-2.2 2.2-2.2zm-1.4 1.9h2.7c0-.6-.4-1.3-1.3-1.3c-.9 0-1.3.7-1.4 1.3zm6.4-1.9c.9 0 1.3.3 1.7.7l-.6.5c-.2-.4-.6-.5-1-.5c-.9 0-1.4.6-1.4 1.5c0 .9.5 1.6 1.4 1.6c.4 0 .8-.2 1-.5l.6.5c-.4.4-.8.7-1.7.7c-1.3 0-2.2-1-2.2-2.3c0-1.3.9-2.2 2.2-2.2zm2.7 3.4V3.5h-.7v-.7h.7V1.6h.8v1.2h.9v.7h-.9s.02 2.47 0 2.5c0 .3.2.5.4.5c.2 0 .4-.1.5-.2l.2.6c-.2.2-.4.3-.9.3c-.6 0-1-.4-1-1.1zm2.5-4.6c0-.3.2-.5.5-.5c.3 0 .5.2.5.5c0 .3-.2.5-.5.5c-.3 0-.5-.2-.5-.5zm.1 1.3h.8v4.3h-.8V2.8zm1.8 2.1c0-1.2.9-2.2 2.2-2.2c1.4 0 2.2 1 2.2 2.2c0 1.3-.8 2.3-2.2 2.3c-1.3 0-2.2-1-2.2-2.3zm3.6 0c0-.8-.5-1.5-1.4-1.5c-.8 0-1.3.7-1.3 1.5c0 .9.5 1.6 1.3 1.6c.9 0 1.4-.7 1.4-1.6zm4.8-.6c0-.7-.4-.9-.9-.9c-.5 0-1 .3-1.2.6c-.04 0 0 3.1 0 3.1h-.8V2.8h.8s-.04.57 0 .6c.2-.4.8-.7 1.5-.7c.9 0 1.4.4 1.4 1.4v3h-.8V4.3z" stroke="none" fill="#000"/></g></svg>