<?xml version="1.0" standalone="no"?><!DOCTYPE svg PUBLIC "-//W3C//DTD SVG 1.1//EN" "http://www.w3.org/Graphics/SVG/1.1/DTD/svg11.dtd"><svg xmlns="http://www.w3.org/2000/svg" version="1.1" width="155px" height="28.3px" viewBox="0 -6 155 28.3" style="top:-6px"><desc>Agent 1</desc><defs/><g id="Polygon308319"><path d="m1.2 2s4.95-.05 4.9 0c1.9 0 3 1.1 3 2.7c0 1.3-.8 2.2-1.8 2.4c1.1.2 2 1.3 2 2.6c0 1.7-1.1 2.8-3 2.8c-.03.04-5.1 0-5.1 0V2zm4.6 4.4c1.1 0 1.7-.6 1.7-1.5c0-.9-.6-1.6-1.7-1.6c.04.05-3 0-3 0v3.1s3.04.05 3 0zm.1 4.7c1.1 0 1.8-.6 1.8-1.6c0-.9-.6-1.7-1.8-1.7c.02.04-3.1 0-3.1 0v3.3s3.12.05 3.1 0zm10.1.6c-.6.7-1.5 1-2.5 1c-1.3 0-2.7-.8-2.7-2.5c0-1.8 1.4-2.5 2.7-2.5c1 0 1.9.3 2.5 1V7.4c0-.9-.8-1.5-1.9-1.5c-.8 0-1.6.3-2.3 1l-.6-1c.9-.8 1.9-1.2 3.2-1.2c1.6 0 3 .7 3 2.7c.04-.03 0 5.1 0 5.1H16v-.8zm0-2.1c-.4-.6-1.2-.9-2-.9c-1 0-1.7.6-1.7 1.5c0 .9.7 1.5 1.7 1.5c.8 0 1.6-.3 2-.8V9.6zm8.9-2c0-1.2-.7-1.6-1.6-1.6c-.9 0-1.7.5-2.1 1.1c-.05-.03 0 5.4 0 5.4h-1.5V4.9h1.5s-.05 1.05 0 1.1c.5-.7 1.5-1.3 2.7-1.3c1.6 0 2.4.8 2.4 2.5c.03-.04 0 5.3 0 5.3h-1.4V7.6zm4.3 5.9c.7.7 1.4 1 2.5 1c1.2 0 2.4-.6 2.4-2.2v-1c-.6.8-1.5 1.3-2.6 1.3c-1.9 0-3.4-1.5-3.4-4c0-2.4 1.5-3.9 3.4-3.9c1 0 1.9.5 2.6 1.3c-.04-.01 0-1.1 0-1.1h1.4v7.3c0 2.7-1.9 3.5-3.8 3.5c-1.3 0-2.2-.3-3.2-1.2l.7-1zm4.9-6.4c-.4-.6-1.3-1.1-2.2-1.1c-1.4 0-2.3 1.1-2.3 2.6c0 1.6.9 2.7 2.3 2.7c.9 0 1.8-.5 2.2-1.1V7.1zm11.4 1.4h-2v4h-1.6V2s4.45-.05 4.5 0c2 0 3.4 1.3 3.4 3.2c0 1.9-1.3 2.9-2.7 3.1c.02 0 2.7 4.2 2.7 4.2H48l-2.5-4zm.6-5.2c.05.05-2.6 0-2.6 0v3.8s2.65-.03 2.6 0c1.2 0 2-.8 2-1.9c0-1.1-.8-1.9-2-1.9zm8.5 1.4c2.3 0 3.7 1.8 3.7 4.1v.4s-6.07-.02-6.1 0c.1 1.3 1.1 2.4 2.6 2.4c.8 0 1.7-.4 2.3-.9l.7.9c-.8.7-1.9 1.1-3.1 1.1c-2.3 0-4-1.6-4-4c0-2.2 1.6-4 3.9-4zm-2.4 3.4h4.7c0-1-.7-2.2-2.3-2.2c-1.6 0-2.3 1.2-2.4 2.2zm12.6 3.6c-.6.7-1.5 1-2.5 1c-1.3 0-2.7-.8-2.7-2.5c0-1.8 1.4-2.5 2.7-2.5c1 0 1.9.3 2.5 1V7.4c0-.9-.8-1.5-1.9-1.5c-.8 0-1.6.3-2.3 1l-.6-1c.9-.8 1.9-1.2 3.2-1.2c1.6 0 3 .7 3 2.7c.05-.03 0 5.1 0 5.1h-1.4s.02-.8 0-.8zm0-2.1c-.4-.6-1.2-.9-1.9-.9c-1.1 0-1.8.6-1.8 1.5c0 .9.7 1.5 1.8 1.5c.7 0 1.5-.3 1.9-.8V9.6zM68.5 2h1.5v10.5h-1.5V2zm4 8.8c.02.05 0-4.7 0-4.7h-1.2V4.9h1.2V2.8h1.5v2.1h1.5v1.2H74s-.05 4.43 0 4.4c0 .6.2 1 .7 1c.3 0 .6-.2.8-.3l.3 1c-.3.3-.7.5-1.5.5c-1.2 0-1.8-.6-1.8-1.9zm5.1 3.6c.5 0 .8-.2 1.1-.8l.4-1L76 4.9h1.5l2.4 6l2.4-6h1.5s-3.75 9.11-3.7 9.1c-.5 1.2-1.4 1.6-2.5 1.7c-.2 0-.7-.1-.9-.2l.2-1.2c.2 0 .5.1.7.1z" stroke="none" fill="#88898a"/></g></svg>