<?xml version="1.0" standalone="no"?><!DOCTYPE svg PUBLIC "-//W3C//DTD SVG 1.1//EN" "http://www.w3.org/Graphics/SVG/1.1/DTD/svg11.dtd"><svg xmlns="http://www.w3.org/2000/svg" xmlns:xlink="http://www.w3.org/1999/xlink" version="1.1" width="583.2px" height="44.9px" viewBox="0 -14 583.2 44.9" style="top:-14px"><desc>CONTACT</desc><defs/><g id="Polygon57340"><path d="m377.7 7.3c0-3.3 2.4-5.5 5.4-5.5c2.1 0 3.4 1 4.2 2.2l-1.3.7c-.6-.9-1.6-1.5-2.9-1.5c-2.1 0-3.8 1.7-3.8 4.1c0 2.3 1.7 4 3.8 4c1.3 0 2.3-.6 2.9-1.5l1.3.7c-.8 1.2-2.1 2.2-4.2 2.2c-3 0-5.4-2.2-5.4-5.4zm16.1-5.5c3.2 0 5.4 2.3 5.4 5.5c0 3.1-2.2 5.4-5.4 5.4c-3.1 0-5.3-2.3-5.3-5.4c0-3.2 2.2-5.5 5.3-5.5zm0 1.4c-2.2 0-3.7 1.7-3.7 4.1c0 2.3 1.5 4 3.7 4c2.3 0 3.7-1.7 3.7-4c0-2.4-1.4-4.1-3.7-4.1zm8.9 1.2v8.1h-1.6V2h1.6l5.8 7.9V2h1.6v10.5h-1.6l-5.8-8.1zm12.3-1h-3.3V2h8.2v1.4h-3.3v9.1H415V3.4zm12.2 7H422l-.9 2.1h-1.7L423.6 2h2l4.2 10.5H428l-.8-2.1zm-4.8-1.5h4.3l-2.1-5.6l-2.2 5.6zm7.6-1.6c0-3.3 2.4-5.5 5.5-5.5c2 0 3.3 1 4.2 2.2l-1.4.7c-.5-.9-1.6-1.5-2.8-1.5c-2.2 0-3.8 1.7-3.8 4.1c0 2.3 1.6 4 3.8 4c1.2 0 2.3-.6 2.8-1.5l1.4.7c-.9 1.2-2.2 2.2-4.2 2.2c-3.1 0-5.5-2.2-5.5-5.4zm13.9-3.9h-3.3V2h8.1v1.4h-3.3v9.1h-1.5V3.4z" stroke="none" fill="#3797ef"/><a xlink:href="DBF_Agent%20Name" xlink:show="new" xlink:title="&lt;&lt;Agent Name&gt;&gt;"><rect style="fill:transparent;" x="452" y="1" width="131" height="12"/></a></g><g id="Polygon57341"><path d="m453.3 6.7l7-3.4v1.2l-5.9 2.7l5.9 2.8v1.1l-7-3.3V6.7zm7.9 0l7-3.4v1.2l-5.8 2.7l5.8 2.8v1.1l-7-3.3V6.7zm15.4 3.7h-5.2l-.9 2.1h-1.7L473 2h2l4.2 10.5h-1.8l-.8-2.1zm-4.7-1.5h4.2L474 3.3l-2.1 5.6zm13-7.1c2 0 3.3.9 4.2 2.1l-1.3.7c-.6-.8-1.6-1.4-2.9-1.4c-2.2 0-3.8 1.7-3.8 4.1c0 2.3 1.6 4 3.8 4c1.2 0 2.2-.5 2.7-1c.02-.01 0-1.9 0-1.9h-3.4V7h5v3.9c-1 1.1-2.5 1.9-4.3 1.9c-3 0-5.5-2.2-5.5-5.5c0-3.3 2.5-5.5 5.5-5.5zm6.3.2h7.2v1.4h-5.6v3h5.4v1.4h-5.4v3.4h5.6v1.3h-7.2V2zm10.7 2.4v8.1h-1.6V2h1.7l5.7 7.9V2h1.6v10.5h-1.5l-5.9-8.1zm12.4-1H511V2h8.1v1.4h-3.2v9.1h-1.6V3.4zm12.2 1v8.1h-1.6V2h1.6l5.8 7.9V2h1.6v10.5h-1.6l-5.8-8.1zm16.4 6h-5.2l-.8 2.1h-1.8L539.3 2h2l4.2 10.5h-1.7l-.9-2.1zm-4.7-1.5h4.3l-2.2-5.6l-2.1 5.6zm17.7-4.8l-3.4 8.4h-.7l-3.4-8.4v8.4h-1.6V2h2.3l3.1 7.6l3-7.6h2.3v10.5h-1.6V4.1zm4-2.1h7.1v1.4h-5.6v3h5.5v1.4h-5.5v3.4h5.6v1.3h-7.1V2zm8.3 8l5.9-2.8l-5.9-2.7V3.3l7.1 3.4v1.1l-7.1 3.3V10zm8 0l5.9-2.8l-5.9-2.7V3.3l7 3.4v1.1l-7 3.3V10z" stroke="none" fill="#3797ef"/></g></svg>