<?xml version="1.0" standalone="no"?><!DOCTYPE svg PUBLIC "-//W3C//DTD SVG 1.1//EN" "http://www.w3.org/Graphics/SVG/1.1/DTD/svg11.dtd"><svg xmlns="http://www.w3.org/2000/svg" version="1.1" width="77px" height="15.9px" viewBox="0 -4 77 15.9" style="top:-4px"><desc>63,230</desc><defs/><g id="Polygon111424"><path d="m46.9 7.2c.03.01 0 .8 0 .8h-.4v-.8c-.9 0-1.6-.4-2-.9l.3-.4c.4.4.9.8 1.7.8V4.2c-.9-.2-1.8-.5-1.8-1.6c0-.9.8-1.5 1.8-1.6v-.8h.4s.03.83 0 .8c.8.1 1.4.4 1.8.9l-.4.3c-.3-.4-.8-.6-1.4-.7v2.3c1 .2 1.9.6 1.9 1.7c0 .7-.4 1.6-1.9 1.7zm-.4-3.5V1.5c-.7 0-1.3.5-1.3 1.1c0 .6.6.8 1.3 1.1zm1.8 1.9c0-.8-.7-1.1-1.4-1.3v2.4c1.1 0 1.4-.7 1.4-1.1zM52.1 1c.8 0 1.3.3 1.6.8l-.3.4c-.3-.4-.6-.7-1.3-.7c-1.3 0-1.7 1.3-1.7 2.6v.3c.2-.4.9-1 1.7-1c1.1 0 2 .6 2 1.9c0 1-.8 1.9-2.1 1.9c-1.6 0-2.2-1.5-2.2-3.1c0-1.5.7-3.1 2.3-3.1zM52 3.9c-.6 0-1.3.4-1.6 1c.1.8.5 1.9 1.6 1.9c1 0 1.5-.8 1.5-1.5c0-1-.6-1.4-1.5-1.4zm3.2 2c.3.5.9.9 1.7.9c.9 0 1.5-.5 1.5-1.3c0-.9-.7-1.2-1.6-1.2h-.6v-.5h.6c.8 0 1.5-.4 1.5-1.2c0-.7-.7-1.1-1.4-1.1c-.7 0-1.2.3-1.6.7l-.4-.3c.5-.5 1.1-.9 2-.9c1 0 1.9.6 1.9 1.6c0 .9-.7 1.3-1.3 1.4c.6.1 1.4.5 1.4 1.5c0 1-.7 1.7-2 1.7c-1 0-1.7-.4-2-1l.3-.3zM60 8c.3-.2.5-.6.5-.8h-.1c-.2 0-.4-.2-.4-.4c0-.2.2-.4.4-.4c.3 0 .5.2.5.6c0 .5-.3 1-.7 1.2L60 8zm1.9-1.3c2.1-1.7 3.4-2.8 3.4-4c0-.9-.7-1.2-1.3-1.2c-.8 0-1.3.3-1.7.8l-.3-.4c.4-.5 1.1-.9 2-.9c.9 0 1.9.5 1.9 1.7c0 1.3-1.4 2.5-3.2 3.9c.04.04 3.2 0 3.2 0v.5h-4s.04-.41 0-.4zm5.4-.8c.3.5.9.9 1.7.9c.9 0 1.5-.5 1.5-1.3c0-.9-.7-1.2-1.6-1.2h-.6v-.5h.6c.8 0 1.5-.4 1.5-1.2c0-.7-.6-1.1-1.4-1.1c-.7 0-1.2.3-1.6.7l-.4-.3c.5-.5 1.1-.9 2-.9c1 0 1.9.6 1.9 1.6c0 .9-.7 1.3-1.2 1.4c.5.1 1.3.5 1.3 1.5c0 1-.7 1.7-2 1.7c-1 0-1.7-.4-2-1l.3-.3zm7-4.9c1.6 0 2.2 1.7 2.2 3.1c0 1.4-.6 3.1-2.2 3.1c-1.6 0-2.2-1.7-2.2-3.1c0-1.4.6-3.1 2.2-3.1zm0 .5c-1.3 0-1.7 1.4-1.7 2.6c0 1.2.4 2.7 1.7 2.7c1.3 0 1.7-1.5 1.7-2.7c0-1.2-.4-2.6-1.7-2.6z" stroke="none" fill="#000"/></g></svg>