<?xml version="1.0" standalone="no"?><!DOCTYPE svg PUBLIC "-//W3C//DTD SVG 1.1//EN" "http://www.w3.org/Graphics/SVG/1.1/DTD/svg11.dtd"><svg xmlns="http://www.w3.org/2000/svg" version="1.1" width="156px" height="24.9px" viewBox="0 -5 156 24.9" style="top:-5px"><desc>Social Media</desc><defs/><g id="Polygon78898"><path d="m40.3 8.7c.6.7 1.6 1.3 2.9 1.3c1.6 0 2.1-.8 2.1-1.5c0-.9-1.1-1.2-2.3-1.5c-1.5-.4-3.2-.9-3.2-2.8c0-1.5 1.4-2.6 3.3-2.6c1.5 0 2.6.4 3.4 1.3l-.8 1C45 3.2 44 2.8 43 2.8c-1 0-1.8.6-1.8 1.3c0 .9 1.1 1.1 2.2 1.4c1.5.4 3.3.9 3.3 2.9c0 1.5-1 2.8-3.5 2.8c-1.7 0-2.9-.6-3.7-1.5l.8-1zm7.5-1c0-2 1.3-3.6 3.4-3.6c2.1 0 3.4 1.6 3.4 3.6c0 1.9-1.3 3.5-3.4 3.5c-2.1 0-3.4-1.6-3.4-3.5zm5.5 0c0-1.3-.8-2.5-2.1-2.5c-1.4 0-2.1 1.2-2.1 2.5c0 1.3.7 2.4 2.1 2.4c1.3 0 2.1-1.1 2.1-2.4zm5.8-3.6c1.2 0 2 .6 2.5 1.2l-.8.8c-.4-.6-1-.9-1.7-.9c-1.3 0-2.2 1.1-2.2 2.5c0 1.4.9 2.4 2.2 2.4c.7 0 1.3-.3 1.7-.8l.8.7c-.5.7-1.3 1.2-2.5 1.2c-2.1 0-3.5-1.5-3.5-3.5c0-2.1 1.4-3.6 3.5-3.6zm3.6-1.7c0-.5.3-.8.8-.8c.4 0 .8.3.8.8c0 .4-.4.8-.8.8c-.5 0-.8-.4-.8-.8zm.1 1.9h1.3v6.8h-1.3V4.3zm7.3 6c-.5.6-1.3.9-2.2.9c-1.1 0-2.3-.7-2.3-2.2c0-1.6 1.2-2.2 2.3-2.2c.9 0 1.7.3 2.2.9V6.6c0-.9-.6-1.4-1.6-1.4c-.8 0-1.4.3-2 .9l-.6-.9c.8-.7 1.7-1.1 2.8-1.1c1.5 0 2.7.7 2.7 2.4v4.6h-1.3s.04-.78 0-.8zm0-1.9c-.3-.5-1-.7-1.7-.7c-.9 0-1.5.5-1.5 1.3c0 .8.6 1.3 1.5 1.3c.7 0 1.4-.2 1.7-.7V8.4zm3.2-6.7h1.2v9.4h-1.2V1.7zm14.6 1.9l-3 7.5h-.6l-3-7.5v7.5h-1.4V1.7h2l2.7 6.7l2.7-6.7h2v9.4h-1.4V3.6zm6.3.5c2 0 3.3 1.6 3.3 3.7v.3h-5.4c.1 1.1 1 2.1 2.3 2.1c.8 0 1.5-.3 2-.8l.6.8c-.6.7-1.6 1-2.7 1c-2 0-3.5-1.4-3.5-3.5c0-2 1.4-3.6 3.4-3.6zm-2.1 3.1h4.2c-.1-.9-.7-2-2.1-2c-1.4 0-2 1.1-2.1 2zm11.7 2.9c-.5.7-1.4 1.1-2.3 1.1c-1.7 0-3-1.3-3-3.5c0-2.2 1.3-3.6 3-3.6c.9 0 1.7.5 2.3 1.2c-.04-.02 0-3.6 0-3.6h1.2v9.4h-1.2s-.04-1.01 0-1zm0-3.9c-.4-.5-1.2-1-1.9-1c-1.3 0-2.1 1.1-2.1 2.5c0 1.4.8 2.4 2.1 2.4c.7 0 1.5-.4 1.9-1V6.2zm2.9-3.8c0-.5.4-.8.8-.8c.5 0 .8.3.8.8c0 .4-.3.8-.8.8c-.4 0-.8-.4-.8-.8zm.2 1.9h1.2v6.8h-1.2V4.3zm7.3 6c-.5.6-1.3.9-2.2.9c-1.1 0-2.4-.7-2.4-2.2c0-1.6 1.2-2.2 2.4-2.2c.9 0 1.7.3 2.2.9V6.6c0-.9-.7-1.4-1.7-1.4c-.7 0-1.4.3-2 .9l-.5-.9c.7-.7 1.6-1.1 2.7-1.1c1.5 0 2.7.7 2.7 2.4c.04 0 0 4.6 0 4.6h-1.2v-.8zm0-1.9c-.4-.5-1.1-.7-1.8-.7c-.9 0-1.5.5-1.5 1.3c0 .8.6 1.3 1.5 1.3c.7 0 1.4-.2 1.8-.7V8.4z" stroke="none" fill="#888888"/></g></svg>