<?xml version="1.0" standalone="no"?>
<!DOCTYPE svg PUBLIC "-//W3C//DTD SVG 1.1//EN" "http://www.w3.org/Graphics/SVG/1.1/DTD/svg11.dtd">
<svg xmlns="http://www.w3.org/2000/svg" version="1.1" width="68px" height="36.9px" viewBox="0 -6 68 36.9" style="top:-6px">
  <desc>Agent 1</desc>
  <defs/>
  <g id="Polygon208634">
    <path d="M 1.6 20.5 L 1.6 25.1 L 0.7 25.1 L 0.7 19.1 L 1.6 19.1 L 4.9 23.6 L 4.9 19.1 L 5.8 19.1 L 5.8 25.1 L 4.9 25.1 L 1.6 20.5 Z M 9.8 19 C 11.6 19 12.8 20.3 12.8 22.1 C 12.8 23.9 11.6 25.2 9.8 25.2 C 8 25.2 6.8 23.9 6.8 22.1 C 6.8 20.3 8 19 9.8 19 Z M 9.8 19.8 C 8.5 19.8 7.7 20.8 7.7 22.1 C 7.7 23.4 8.5 24.4 9.8 24.4 C 11 24.4 11.9 23.4 11.9 22.1 C 11.9 20.8 11 19.8 9.8 19.8 Z M 13.8 19.1 L 14.7 19.1 L 14.7 25.1 L 13.8 25.1 L 13.8 19.1 Z " stroke="none" fill="#3797ef"/>
  </g>
  <g id="Polygon208633">
    <path d="M 6.1 9.3 C 6.1 9.3 6.1 10.9 6.1 10.9 C 6.1 12.3 5.4 13 4.2 13.1 C 4.19 13.15 4.2 14.3 4.2 14.3 L 2.5 14.3 C 2.5 14.3 2.54 13.17 2.5 13.2 C 1.3 13 0.6 12.3 0.6 10.9 C 0.58 10.88 0.6 8.9 0.6 8.9 L 2.4 8.9 C 2.4 8.9 2.4 10.62 2.4 10.6 C 2.4 11.3 2.8 11.6 3.4 11.6 C 3.9 11.6 4.3 11.3 4.3 10.6 C 4.3 10.6 4.3 9.7 4.3 9.7 C 4.3 9.2 4.1 8.9 3.6 8.6 C 3.6 8.6 2.3 7.8 2.3 7.8 C 1.2 7.2 0.6 6.7 0.6 5.5 C 0.6 5.5 0.6 4.1 0.6 4.1 C 0.6 2.7 1.4 2 2.5 1.8 C 2.54 1.82 2.5 0.6 2.5 0.6 L 4.2 0.6 C 4.2 0.6 4.19 1.82 4.2 1.8 C 5.3 2 6.1 2.7 6.1 4.1 C 6.11 4.06 6.1 5.9 6.1 5.9 L 4.3 5.9 C 4.3 5.9 4.29 4.32 4.3 4.3 C 4.3 3.6 3.9 3.4 3.3 3.4 C 2.8 3.4 2.4 3.6 2.4 4.3 C 2.4 4.3 2.4 5.1 2.4 5.1 C 2.4 5.7 2.6 5.9 3.1 6.2 C 3.1 6.2 4.4 7 4.4 7 C 5.5 7.6 6.1 8.1 6.1 9.3 Z M 12.8 4.1 C 12.8 4.1 12.8 10.8 12.8 10.8 C 12.8 12.5 11.8 13.2 10.1 13.2 C 10.1 13.2 10 13.2 10 13.2 C 8.3 13.2 7.3 12.5 7.3 10.8 C 7.3 10.8 7.3 4.1 7.3 4.1 C 7.3 2.4 8.3 1.8 10 1.8 C 10 1.8 10.1 1.8 10.1 1.8 C 11.8 1.8 12.8 2.4 12.8 4.1 Z M 10 3.4 C 9.4 3.4 9.1 3.6 9.1 4.4 C 9.1 4.4 9.1 10.6 9.1 10.6 C 9.1 11.4 9.4 11.6 10 11.6 C 10.6 11.6 11 11.4 11 10.6 C 11 10.6 11 4.4 11 4.4 C 11 3.6 10.6 3.4 10 3.4 Z M 15.8 12.6 C 15.8 13.6 15.3 14.6 14.8 15.2 C 14.8 15.2 14.1 14.8 14.1 14.8 C 14.4 14.3 14.8 13.6 14.8 13.1 C 14.83 13.09 14 13.1 14 13.1 L 14 11 L 15.8 11 C 15.8 11 15.81 12.61 15.8 12.6 Z M 22.5 4.1 C 22.5 4.1 22.5 10.8 22.5 10.8 C 22.5 12.5 21.5 13.2 19.8 13.2 C 19.8 13.2 19.7 13.2 19.7 13.2 C 18 13.2 17 12.5 17 10.8 C 17 10.8 17 4.1 17 4.1 C 17 2.4 18 1.8 19.7 1.8 C 19.7 1.8 19.8 1.8 19.8 1.8 C 21.5 1.8 22.5 2.4 22.5 4.1 Z M 19.8 3.4 C 19.2 3.4 18.8 3.6 18.8 4.4 C 18.8 4.4 18.8 10.6 18.8 10.6 C 18.8 11.4 19.2 11.6 19.8 11.6 C 20.4 11.6 20.7 11.4 20.7 10.6 C 20.7 10.6 20.7 4.4 20.7 4.4 C 20.7 3.6 20.4 3.4 19.8 3.4 Z M 29.3 4.1 C 29.3 4.1 29.3 10.8 29.3 10.8 C 29.3 12.5 28.3 13.2 26.7 13.2 C 26.7 13.2 26.5 13.2 26.5 13.2 C 24.8 13.2 23.8 12.5 23.8 10.8 C 23.8 10.8 23.8 4.1 23.8 4.1 C 23.8 2.4 24.8 1.8 26.5 1.8 C 26.5 1.8 26.7 1.8 26.7 1.8 C 28.3 1.8 29.3 2.4 29.3 4.1 Z M 26.6 3.4 C 26 3.4 25.6 3.6 25.6 4.4 C 25.6 4.4 25.6 10.6 25.6 10.6 C 25.6 11.4 26 11.6 26.6 11.6 C 27.2 11.6 27.6 11.4 27.6 10.6 C 27.6 10.6 27.6 4.4 27.6 4.4 C 27.6 3.6 27.2 3.4 26.6 3.4 Z M 36.2 4.1 C 36.2 4.1 36.2 10.8 36.2 10.8 C 36.2 12.5 35.2 13.2 33.5 13.2 C 33.5 13.2 33.3 13.2 33.3 13.2 C 31.7 13.2 30.7 12.5 30.7 10.8 C 30.7 10.8 30.7 4.1 30.7 4.1 C 30.7 2.4 31.7 1.8 33.3 1.8 C 33.3 1.8 33.5 1.8 33.5 1.8 C 35.2 1.8 36.2 2.4 36.2 4.1 Z M 33.4 3.4 C 32.8 3.4 32.4 3.6 32.4 4.4 C 32.4 4.4 32.4 10.6 32.4 10.6 C 32.4 11.4 32.8 11.6 33.4 11.6 C 34 11.6 34.4 11.4 34.4 10.6 C 34.4 10.6 34.4 4.4 34.4 4.4 C 34.4 3.6 34 3.4 33.4 3.4 Z M 39.2 12.6 C 39.2 13.6 38.7 14.6 38.2 15.2 C 38.2 15.2 37.5 14.8 37.5 14.8 C 37.8 14.3 38.1 13.6 38.2 13.1 C 38.22 13.09 37.4 13.1 37.4 13.1 L 37.4 11 L 39.2 11 C 39.2 11 39.2 12.61 39.2 12.6 Z M 45.9 4.1 C 45.9 4.1 45.9 10.8 45.9 10.8 C 45.9 12.5 44.9 13.2 43.2 13.2 C 43.2 13.2 43.1 13.2 43.1 13.2 C 41.4 13.2 40.4 12.5 40.4 10.8 C 40.4 10.8 40.4 4.1 40.4 4.1 C 40.4 2.4 41.4 1.8 43.1 1.8 C 43.1 1.8 43.2 1.8 43.2 1.8 C 44.9 1.8 45.9 2.4 45.9 4.1 Z M 43.2 3.4 C 42.6 3.4 42.2 3.6 42.2 4.4 C 42.2 4.4 42.2 10.6 42.2 10.6 C 42.2 11.4 42.6 11.6 43.2 11.6 C 43.8 11.6 44.1 11.4 44.1 10.6 C 44.1 10.6 44.1 4.4 44.1 4.4 C 44.1 3.6 43.8 3.4 43.2 3.4 Z M 52.7 4.1 C 52.7 4.1 52.7 10.8 52.7 10.8 C 52.7 12.5 51.7 13.2 50 13.2 C 50 13.2 49.9 13.2 49.9 13.2 C 48.2 13.2 47.2 12.5 47.2 10.8 C 47.2 10.8 47.2 4.1 47.2 4.1 C 47.2 2.4 48.2 1.8 49.9 1.8 C 49.9 1.8 50 1.8 50 1.8 C 51.7 1.8 52.7 2.4 52.7 4.1 Z M 50 3.4 C 49.4 3.4 49 3.6 49 4.4 C 49 4.4 49 10.6 49 10.6 C 49 11.4 49.4 11.6 50 11.6 C 50.6 11.6 50.9 11.4 50.9 10.6 C 50.9 10.6 50.9 4.4 50.9 4.4 C 50.9 3.6 50.6 3.4 50 3.4 Z M 59.6 4.1 C 59.6 4.1 59.6 10.8 59.6 10.8 C 59.6 12.5 58.5 13.2 56.9 13.2 C 56.9 13.2 56.7 13.2 56.7 13.2 C 55.1 13.2 54 12.5 54 10.8 C 54 10.8 54 4.1 54 4.1 C 54 2.4 55.1 1.8 56.7 1.8 C 56.7 1.8 56.9 1.8 56.9 1.8 C 58.5 1.8 59.6 2.4 59.6 4.1 Z M 56.8 3.4 C 56.2 3.4 55.8 3.6 55.8 4.4 C 55.8 4.4 55.8 10.6 55.8 10.6 C 55.8 11.4 56.2 11.6 56.8 11.6 C 57.4 11.6 57.8 11.4 57.8 10.6 C 57.8 10.6 57.8 4.4 57.8 4.4 C 57.8 3.6 57.4 3.4 56.8 3.4 Z " stroke="none" fill="#282828"/>
  </g>
</svg>