<?xml version="1.0" standalone="no"?><!DOCTYPE svg PUBLIC "-//W3C//DTD SVG 1.1//EN" "http://www.w3.org/Graphics/SVG/1.1/DTD/svg11.dtd"><svg xmlns="http://www.w3.org/2000/svg" xmlns:xlink="http://www.w3.org/1999/xlink" version="1.1" width="134px" height="55.4px" viewBox="0 -13 134 55.4" style="top:-13px"><desc>Agent 1</desc><defs/><g id="Polygon47012"><path d="m9.6 22.6v2.5h-2v-2.5c-2.9-.2-5.1-1.3-6.5-2.9l1.6-2.2c1.1 1.2 2.8 2.3 4.9 2.5v-6.1c-2.9-.7-5.9-1.8-5.9-5.3c0-3 2.4-5.1 5.9-5.4V.6h2v2.6c2.3.3 4.2 1.2 5.6 2.6l-1.6 2.1c-1.1-1.1-2.5-1.8-4-2.1v5.6c2.9.7 6 1.8 6 5.6c0 2.7-1.7 5.2-6 5.6zm-2-11.8V5.7c-1.8.2-3 1.2-3 2.7c0 1.3 1.3 1.9 3 2.4zm5.2 6.4c0-1.6-1.4-2.2-3.2-2.8v5.6c2.3-.2 3.2-1.6 3.2-2.8z" stroke="none" fill="#282828"/><a xlink:href="DBF_Price%20/%20SF" xlink:show="new" xlink:title="&lt;&lt;Price / SF&gt;&gt;"><rect style="fill:transparent;" x="16" y="2" width="105" height="21"/></a></g><g id="Polygon47013"><path d="m16.6 11.9l12.5-6v2.1l-10.5 4.9l10.5 4.9v2l-12.5-6v-1.9zm13.9 0l12.4-6v2.1l-10.4 4.9l10.4 4.9v2l-12.4-6v-1.9zm15.1-8.4s7.91-.03 7.9 0c3.9 0 6 2.6 6 5.8c0 3.1-2.2 5.7-6 5.7c.01.05-5.1 0-5.1 0v7.3h-2.8V3.5zM53.1 6c.04-.04-4.7 0-4.7 0v6.6s4.74-.04 4.7 0c2.1 0 3.5-1.4 3.5-3.3c0-2-1.4-3.3-3.5-3.3zm9 2.7h2.5s.03 2.06 0 2.1c1.1-1.4 2.7-2.4 4.5-2.4v2.5c-.3 0-.5-.1-.9-.1c-1.3 0-3 1-3.6 2c.03.02 0 9.5 0 9.5h-2.5V8.7zM71 4.8c0-.9.7-1.7 1.6-1.7c.9 0 1.6.8 1.6 1.7c0 .9-.7 1.6-1.6 1.6c-.9 0-1.6-.7-1.6-1.6zm.4 3.9h2.5v13.6h-2.5V8.7zm12.3-.4c2.6 0 4.2 1.1 5.2 2.4l-1.7 1.6c-.9-1.2-2-1.7-3.3-1.7c-2.7 0-4.4 2-4.4 4.9c0 2.8 1.7 4.9 4.4 4.9c1.3 0 2.4-.6 3.3-1.7l1.7 1.5c-1 1.4-2.6 2.4-5.2 2.4c-4.1 0-6.9-3-6.9-7.1c0-4.1 2.8-7.2 6.9-7.2zm13.7 0c4 0 6.6 3.2 6.6 7.4v.6s-10.8.02-10.8 0c.2 2.3 1.9 4.3 4.6 4.3c1.5 0 3.1-.6 4.1-1.7l1.2 1.7c-1.4 1.3-3.3 2-5.5 2c-4.1 0-7.1-2.8-7.1-7.1c0-4 2.9-7.2 6.9-7.2zm-4.2 6.2h8.3c-.1-1.8-1.3-4.1-4.1-4.1c-2.8 0-4.1 2.2-4.2 4.1zm25.4-11.6h1.9l-6.7 20h-1.9l6.7-20z" stroke="none" fill="#282828"/></g></svg>