<?xml version="1.0" standalone="no"?>
<!DOCTYPE svg PUBLIC "-//W3C//DTD SVG 1.1//EN" "http://www.w3.org/Graphics/SVG/1.1/DTD/svg11.dtd">
<svg xmlns="http://www.w3.org/2000/svg" version="1.1" width="155.5px" height="27.9px" viewBox="0 -6 155.5 27.9" style="top:-6px">
  <desc>Lease Guarantor</desc>
  <defs/>
  <g id="Polygon273331">
    <path d="M 20.8 2 L 22.4 2 L 22.4 11.2 L 27.2 11.2 L 27.2 12.5 L 20.8 12.5 L 20.8 2 Z M 32 4.7 C 34.3 4.7 35.7 6.5 35.7 8.8 C 35.69 8.83 35.7 9.2 35.7 9.2 C 35.7 9.2 29.63 9.18 29.6 9.2 C 29.7 10.5 30.7 11.6 32.2 11.6 C 33 11.6 33.9 11.2 34.5 10.7 C 34.5 10.7 35.2 11.6 35.2 11.6 C 34.4 12.3 33.3 12.7 32.1 12.7 C 29.8 12.7 28.1 11.1 28.1 8.7 C 28.1 6.5 29.7 4.7 32 4.7 Z M 29.6 8.1 C 29.6 8.1 34.3 8.1 34.3 8.1 C 34.3 7.1 33.6 5.9 32 5.9 C 30.4 5.9 29.7 7.1 29.6 8.1 Z M 42.2 11.7 C 41.6 12.4 40.7 12.7 39.7 12.7 C 38.4 12.7 37 11.9 37 10.2 C 37 8.4 38.4 7.7 39.7 7.7 C 40.7 7.7 41.6 8 42.2 8.7 C 42.2 8.7 42.2 7.4 42.2 7.4 C 42.2 6.5 41.4 5.9 40.3 5.9 C 39.5 5.9 38.7 6.2 38 6.9 C 38 6.9 37.4 5.9 37.4 5.9 C 38.3 5.1 39.3 4.7 40.6 4.7 C 42.2 4.7 43.7 5.4 43.7 7.4 C 43.65 7.37 43.7 12.5 43.7 12.5 L 42.2 12.5 C 42.2 12.5 42.22 11.71 42.2 11.7 Z M 42.2 9.6 C 41.8 9 41 8.7 40.3 8.7 C 39.2 8.7 38.5 9.3 38.5 10.2 C 38.5 11.1 39.2 11.7 40.3 11.7 C 41 11.7 41.8 11.4 42.2 10.9 C 42.2 10.9 42.2 9.6 42.2 9.6 Z M 46 10.5 C 46.5 11.1 47.5 11.6 48.5 11.6 C 49.6 11.6 50.2 11.2 50.2 10.5 C 50.2 9.7 49.3 9.5 48.3 9.3 C 47 9 45.5 8.6 45.5 7 C 45.5 5.7 46.5 4.7 48.4 4.7 C 49.7 4.7 50.7 5.2 51.3 5.8 C 51.3 5.8 50.7 6.8 50.7 6.8 C 50.3 6.2 49.4 5.8 48.4 5.8 C 47.5 5.8 46.9 6.2 46.9 6.8 C 46.9 7.5 47.7 7.7 48.6 8 C 50 8.3 51.6 8.6 51.6 10.4 C 51.6 11.7 50.5 12.7 48.5 12.7 C 47.2 12.7 46 12.3 45.3 11.5 C 45.3 11.5 46 10.5 46 10.5 Z M 56.7 4.7 C 59 4.7 60.5 6.5 60.5 8.8 C 60.47 8.83 60.5 9.2 60.5 9.2 C 60.5 9.2 54.4 9.18 54.4 9.2 C 54.5 10.5 55.5 11.6 57 11.6 C 57.8 11.6 58.7 11.2 59.3 10.7 C 59.3 10.7 59.9 11.6 59.9 11.6 C 59.2 12.3 58.1 12.7 56.9 12.7 C 54.6 12.7 52.9 11.1 52.9 8.7 C 52.9 6.5 54.5 4.7 56.7 4.7 Z M 54.4 8.1 C 54.4 8.1 59.1 8.1 59.1 8.1 C 59 7.1 58.4 5.9 56.7 5.9 C 55.2 5.9 54.5 7.1 54.4 8.1 Z M 71.4 1.8 C 73.4 1.8 74.7 2.7 75.6 3.9 C 75.6 3.9 74.4 4.6 74.4 4.6 C 73.7 3.8 72.7 3.2 71.4 3.2 C 69.2 3.2 67.6 4.9 67.6 7.3 C 67.6 9.6 69.2 11.3 71.4 11.3 C 72.6 11.3 73.6 10.8 74.1 10.3 C 74.13 10.29 74.1 8.4 74.1 8.4 L 70.7 8.4 L 70.7 7 L 75.7 7 C 75.7 7 75.72 10.88 75.7 10.9 C 74.7 12 73.2 12.8 71.4 12.8 C 68.4 12.8 66 10.6 66 7.3 C 66 4 68.4 1.8 71.4 1.8 Z M 82.9 11.5 C 82.3 12.1 81.3 12.7 80.2 12.7 C 78.5 12.7 77.7 11.9 77.7 10.3 C 77.72 10.29 77.7 4.9 77.7 4.9 L 79.1 4.9 C 79.1 4.9 79.15 9.82 79.1 9.8 C 79.1 11.1 79.8 11.5 80.8 11.5 C 81.7 11.5 82.5 11 82.9 10.4 C 82.9 10.39 82.9 4.9 82.9 4.9 L 84.3 4.9 L 84.3 12.5 L 82.9 12.5 C 82.9 12.5 82.9 11.5 82.9 11.5 Z M 91.3 11.7 C 90.7 12.4 89.9 12.7 88.8 12.7 C 87.5 12.7 86.2 11.9 86.2 10.2 C 86.2 8.4 87.5 7.7 88.8 7.7 C 89.9 7.7 90.7 8 91.3 8.7 C 91.3 8.7 91.3 7.4 91.3 7.4 C 91.3 6.5 90.6 5.9 89.5 5.9 C 88.6 5.9 87.8 6.2 87.2 6.9 C 87.2 6.9 86.5 5.9 86.5 5.9 C 87.4 5.1 88.4 4.7 89.7 4.7 C 91.3 4.7 92.8 5.4 92.8 7.4 C 92.76 7.37 92.8 12.5 92.8 12.5 L 91.3 12.5 C 91.3 12.5 91.33 11.71 91.3 11.7 Z M 91.3 9.6 C 90.9 9 90.2 8.7 89.4 8.7 C 88.3 8.7 87.6 9.3 87.6 10.2 C 87.6 11.1 88.3 11.7 89.4 11.7 C 90.2 11.7 90.9 11.4 91.3 10.9 C 91.3 10.9 91.3 9.6 91.3 9.6 Z M 95 4.9 L 96.5 4.9 C 96.5 4.9 96.47 6.05 96.5 6.1 C 97.1 5.3 98 4.7 99 4.7 C 99 4.7 99 6.1 99 6.1 C 98.8 6.1 98.7 6.1 98.5 6.1 C 97.8 6.1 96.8 6.6 96.5 7.2 C 96.47 7.21 96.5 12.5 96.5 12.5 L 95 12.5 L 95 4.9 Z M 105.1 11.7 C 104.5 12.4 103.7 12.7 102.6 12.7 C 101.4 12.7 100 11.9 100 10.2 C 100 8.4 101.4 7.7 102.6 7.7 C 103.7 7.7 104.6 8 105.1 8.7 C 105.1 8.7 105.1 7.4 105.1 7.4 C 105.1 6.5 104.4 5.9 103.3 5.9 C 102.4 5.9 101.7 6.2 101 6.9 C 101 6.9 100.4 5.9 100.4 5.9 C 101.2 5.1 102.3 4.7 103.5 4.7 C 105.2 4.7 106.6 5.4 106.6 7.4 C 106.58 7.37 106.6 12.5 106.6 12.5 L 105.1 12.5 C 105.1 12.5 105.15 11.71 105.1 11.7 Z M 105.1 9.6 C 104.7 9 104 8.7 103.2 8.7 C 102.1 8.7 101.4 9.3 101.4 10.2 C 101.4 11.1 102.1 11.7 103.2 11.7 C 104 11.7 104.7 11.4 105.1 10.9 C 105.1 10.9 105.1 9.6 105.1 9.6 Z M 114 7.6 C 114 6.4 113.4 6 112.4 6 C 111.5 6 110.7 6.5 110.3 7.1 C 110.29 7.07 110.3 12.5 110.3 12.5 L 108.9 12.5 L 108.9 4.9 L 110.3 4.9 C 110.3 4.9 110.29 5.95 110.3 6 C 110.8 5.3 111.8 4.7 113 4.7 C 114.6 4.7 115.5 5.5 115.5 7.2 C 115.47 7.16 115.5 12.5 115.5 12.5 L 114 12.5 C 114 12.5 114.04 7.64 114 7.6 Z M 118 10.8 C 118.03 10.85 118 6.1 118 6.1 L 116.8 6.1 L 116.8 4.9 L 118 4.9 L 118 2.8 L 119.5 2.8 L 119.5 4.9 L 121 4.9 L 121 6.1 L 119.5 6.1 C 119.5 6.1 119.46 10.53 119.5 10.5 C 119.5 11.1 119.7 11.5 120.2 11.5 C 120.5 11.5 120.8 11.3 121 11.2 C 121 11.2 121.3 12.2 121.3 12.2 C 121 12.5 120.6 12.7 119.9 12.7 C 118.6 12.7 118 12.1 118 10.8 Z M 122.1 8.7 C 122.1 6.5 123.6 4.7 126 4.7 C 128.4 4.7 129.9 6.5 129.9 8.7 C 129.9 10.9 128.4 12.7 126 12.7 C 123.6 12.7 122.1 10.9 122.1 8.7 Z M 128.4 8.7 C 128.4 7.3 127.5 6 126 6 C 124.5 6 123.6 7.3 123.6 8.7 C 123.6 10.2 124.5 11.5 126 11.5 C 127.5 11.5 128.4 10.2 128.4 8.7 Z M 131.7 4.9 L 133.1 4.9 C 133.1 4.9 133.11 6.05 133.1 6.1 C 133.7 5.3 134.6 4.7 135.6 4.7 C 135.6 4.7 135.6 6.1 135.6 6.1 C 135.5 6.1 135.3 6.1 135.1 6.1 C 134.4 6.1 133.4 6.6 133.1 7.2 C 133.11 7.21 133.1 12.5 133.1 12.5 L 131.7 12.5 L 131.7 4.9 Z " stroke="none" fill="#000"/>
  </g>
</svg>