<?xml version="1.0" standalone="no"?>
<!DOCTYPE svg PUBLIC "-//W3C//DTD SVG 1.1//EN" "http://www.w3.org/Graphics/SVG/1.1/DTD/svg11.dtd">
<svg xmlns="http://www.w3.org/2000/svg" version="1.1" width="220.1px" height="39.5px" viewBox="0 -4 220.1 39.5" style="top:-4px">
  <desc>SUBJECT PROPERTY TABLE OF CONTENTS</desc>
  <defs/>
  <g id="Polygon179569">
    <path d="M 5.8 16.7 L 3.9 16.7 L 3.9 26.3 L 2 26.3 L 2 16.7 L 0.2 16.7 L 0.2 15.1 L 5.8 15.1 L 5.8 16.7 Z M 9.4 23.8 L 7.4 23.8 L 7 26.3 L 5.2 26.3 L 7.3 15.1 L 9.6 15.1 L 11.7 26.3 L 9.8 26.3 L 9.4 23.8 Z M 9.2 22.3 L 8.4 17.3 L 7.6 22.3 L 9.2 22.3 Z M 16.8 20.5 C 17.8 20.6 18.2 21.4 18.2 22.3 C 18.2 22.3 18.2 24.1 18.2 24.1 C 18.2 25.5 17.1 26.3 15.4 26.3 C 15.38 26.31 12.5 26.3 12.5 26.3 L 12.5 15.1 C 12.5 15.1 15.41 15.11 15.4 15.1 C 17.1 15.1 18.1 15.9 18.1 17.3 C 18.1 17.3 18.1 18.7 18.1 18.7 C 18.1 19.5 17.7 20.4 16.8 20.5 Z M 14.3 19.7 C 14.3 19.7 15.38 19.73 15.4 19.7 C 15.9 19.7 16.2 19.5 16.2 18.9 C 16.2 18.9 16.2 17.6 16.2 17.6 C 16.2 17 15.9 16.7 15.4 16.7 C 15.38 16.71 14.3 16.7 14.3 16.7 L 14.3 19.7 Z M 15.4 21.3 C 15.44 21.3 14.3 21.3 14.3 21.3 L 14.3 24.7 C 14.3 24.7 15.44 24.71 15.4 24.7 C 16 24.7 16.3 24.4 16.3 23.8 C 16.3 23.8 16.3 22.2 16.3 22.2 C 16.3 21.6 16 21.3 15.4 21.3 Z M 24.1 26.3 L 19.4 26.3 L 19.4 15.1 L 21.2 15.1 L 21.2 24.6 L 24.1 24.6 L 24.1 26.3 Z M 24.9 26.3 L 24.9 15.1 L 29.8 15.1 L 29.8 16.7 L 26.8 16.7 L 26.8 19.8 L 29.3 19.8 L 29.3 21.4 L 26.8 21.4 L 26.8 24.7 L 29.9 24.7 L 29.9 26.3 L 24.9 26.3 Z M 36.2 15 C 36.2 15 36.3 15 36.3 15 C 38 15 39.1 15.7 39.1 17.3 C 39.1 17.3 39.1 24.1 39.1 24.1 C 39.1 25.8 38 26.4 36.3 26.4 C 36.3 26.4 36.2 26.4 36.2 26.4 C 34.5 26.4 33.4 25.8 33.4 24.1 C 33.4 24.1 33.4 17.3 33.4 17.3 C 33.4 15.6 34.5 15 36.2 15 Z M 36.3 24.8 C 36.9 24.8 37.3 24.6 37.3 23.8 C 37.3 23.8 37.3 17.6 37.3 17.6 C 37.3 16.8 36.9 16.6 36.3 16.6 C 35.6 16.6 35.2 16.8 35.2 17.6 C 35.2 17.6 35.2 23.8 35.2 23.8 C 35.2 24.6 35.6 24.8 36.3 24.8 Z M 40.5 15.1 L 45.4 15.1 L 45.4 16.7 L 42.4 16.7 L 42.4 19.9 L 44.9 19.9 L 44.9 21.5 L 42.4 21.5 L 42.4 26.3 L 40.5 26.3 L 40.5 15.1 Z M 54.3 24.1 C 54.3 25.8 53.1 26.4 51.4 26.4 C 51.4 26.4 51.4 26.4 51.4 26.4 C 49.7 26.4 48.6 25.8 48.6 24.1 C 48.6 24.1 48.6 17.3 48.6 17.3 C 48.6 15.7 49.7 15 51.4 15 C 51.4 15 51.4 15 51.4 15 C 53.1 15 54.3 15.7 54.3 17.3 C 54.26 17.35 54.3 19.4 54.3 19.4 L 52.4 19.4 C 52.4 19.4 52.4 17.64 52.4 17.6 C 52.4 16.9 52 16.6 51.4 16.6 C 50.8 16.6 50.4 16.9 50.4 17.6 C 50.4 17.6 50.4 23.8 50.4 23.8 C 50.4 24.6 50.8 24.8 51.4 24.8 C 52 24.8 52.4 24.6 52.4 23.8 C 52.4 23.78 52.4 21.7 52.4 21.7 L 54.3 21.7 C 54.3 21.7 54.26 24.07 54.3 24.1 Z M 58.3 15 C 58.3 15 58.4 15 58.4 15 C 60.1 15 61.3 15.7 61.3 17.3 C 61.3 17.3 61.3 24.1 61.3 24.1 C 61.3 25.8 60.1 26.4 58.4 26.4 C 58.4 26.4 58.3 26.4 58.3 26.4 C 56.6 26.4 55.5 25.8 55.5 24.1 C 55.5 24.1 55.5 17.3 55.5 17.3 C 55.5 15.6 56.6 15 58.3 15 Z M 58.4 24.8 C 59 24.8 59.4 24.6 59.4 23.8 C 59.4 23.8 59.4 17.6 59.4 17.6 C 59.4 16.8 59 16.6 58.4 16.6 C 57.8 16.6 57.4 16.8 57.4 17.6 C 57.4 17.6 57.4 23.8 57.4 23.8 C 57.4 24.6 57.8 24.8 58.4 24.8 Z M 62.6 26.3 L 62.6 15.1 L 64.5 15.1 L 66.8 22 L 66.8 15.1 L 68.5 15.1 L 68.5 26.3 L 66.8 26.3 L 64.3 19 L 64.3 26.3 L 62.6 26.3 Z M 74.9 16.7 L 73.1 16.7 L 73.1 26.3 L 71.2 26.3 L 71.2 16.7 L 69.3 16.7 L 69.3 15.1 L 74.9 15.1 L 74.9 16.7 Z M 75.7 26.3 L 75.7 15.1 L 80.7 15.1 L 80.7 16.7 L 77.6 16.7 L 77.6 19.8 L 80.2 19.8 L 80.2 21.4 L 77.6 21.4 L 77.6 24.7 L 80.7 24.7 L 80.7 26.3 L 75.7 26.3 Z M 81.9 26.3 L 81.9 15.1 L 83.7 15.1 L 86.1 22 L 86.1 15.1 L 87.8 15.1 L 87.8 26.3 L 86 26.3 L 83.6 19 L 83.6 26.3 L 81.9 26.3 Z M 94.2 16.7 L 92.3 16.7 L 92.3 26.3 L 90.4 26.3 L 90.4 16.7 L 88.6 16.7 L 88.6 15.1 L 94.2 15.1 L 94.2 16.7 Z M 98.4 19.1 C 98.4 19.1 98.38 17.54 98.4 17.5 C 98.4 16.8 98 16.6 97.4 16.6 C 96.9 16.6 96.5 16.8 96.5 17.5 C 96.5 17.5 96.5 18.3 96.5 18.3 C 96.5 18.9 96.7 19.1 97.2 19.4 C 97.2 19.4 98.5 20.2 98.5 20.2 C 99.6 20.8 100.2 21.3 100.2 22.5 C 100.2 22.5 100.2 24.1 100.2 24.1 C 100.2 25.8 99.2 26.4 97.5 26.4 C 97.5 26.4 97.4 26.4 97.4 26.4 C 95.7 26.4 94.7 25.8 94.7 24.1 C 94.67 24.1 94.7 22.1 94.7 22.1 L 96.5 22.1 C 96.5 22.1 96.49 23.85 96.5 23.8 C 96.5 24.5 96.9 24.8 97.5 24.8 C 98 24.8 98.4 24.5 98.4 23.8 C 98.4 23.8 98.4 23 98.4 23 C 98.4 22.4 98.2 22.1 97.7 21.8 C 97.7 21.8 96.4 21.1 96.4 21.1 C 95.3 20.4 94.7 19.9 94.7 18.8 C 94.7 18.8 94.7 17.3 94.7 17.3 C 94.7 15.6 95.9 15 97.4 15 C 97.4 15 97.5 15 97.5 15 C 99 15 100.2 15.6 100.2 17.3 C 100.21 17.29 100.2 19.1 100.2 19.1 L 98.4 19.1 Z " stroke="none" fill="#282828"/>
  </g>
  <g id="Polygon179568">
    <path d="M 0.8 5.6 C 1.2 6 1.9 6.4 2.7 6.4 C 3.7 6.4 4 5.9 4 5.5 C 4 4.9 3.3 4.7 2.6 4.5 C 1.6 4.2 0.5 4 0.5 2.7 C 0.5 1.7 1.4 1 2.6 1 C 3.5 1 4.3 1.3 4.8 1.9 C 4.8 1.9 4.3 2.5 4.3 2.5 C 3.8 2 3.2 1.8 2.5 1.8 C 1.9 1.8 1.4 2.2 1.4 2.7 C 1.4 3.2 2.1 3.4 2.8 3.6 C 3.8 3.8 4.9 4.1 4.9 5.4 C 4.9 6.3 4.3 7.2 2.7 7.2 C 1.6 7.2 0.8 6.8 0.3 6.3 C 0.3 6.3 0.8 5.6 0.8 5.6 Z M 5.9 1.1 L 6.8 1.1 C 6.8 1.1 6.79 4.73 6.8 4.7 C 6.8 5.8 7.4 6.4 8.4 6.4 C 9.5 6.4 10 5.8 10 4.7 C 10.03 4.73 10 1.1 10 1.1 L 10.9 1.1 C 10.9 1.1 10.93 4.75 10.9 4.8 C 10.9 6.2 10.1 7.2 8.4 7.2 C 6.7 7.2 5.9 6.2 5.9 4.8 C 5.89 4.76 5.9 1.1 5.9 1.1 Z M 12.2 1.1 C 12.2 1.1 15 1.11 15 1.1 C 16.1 1.1 16.7 1.8 16.7 2.6 C 16.7 3.4 16.2 3.9 15.7 4 C 16.3 4.1 16.8 4.8 16.8 5.5 C 16.8 6.4 16.2 7.1 15.1 7.1 C 15.08 7.11 12.2 7.1 12.2 7.1 L 12.2 1.1 Z M 14.8 3.7 C 15.4 3.7 15.8 3.3 15.8 2.8 C 15.8 2.3 15.4 1.9 14.8 1.9 C 14.83 1.9 13.1 1.9 13.1 1.9 L 13.1 3.7 C 13.1 3.7 14.83 3.65 14.8 3.7 Z M 14.9 6.3 C 15.5 6.3 15.9 6 15.9 5.4 C 15.9 4.9 15.5 4.4 14.9 4.4 C 14.88 4.45 13.1 4.4 13.1 4.4 L 13.1 6.3 C 13.1 6.3 14.88 6.32 14.9 6.3 Z M 17.7 5.9 C 17.9 6.2 18.3 6.4 18.8 6.4 C 19.5 6.4 19.9 5.9 19.9 5.2 C 19.9 5.25 19.9 1.1 19.9 1.1 L 20.8 1.1 C 20.8 1.1 20.8 5.26 20.8 5.3 C 20.8 6.6 20 7.2 18.8 7.2 C 18.2 7.2 17.7 7 17.3 6.6 C 17.3 6.6 17.7 5.9 17.7 5.9 Z M 22.1 1.1 L 26.1 1.1 L 26.1 1.9 L 22.9 1.9 L 22.9 3.7 L 26 3.7 L 26 4.4 L 22.9 4.4 L 22.9 6.3 L 26.1 6.3 L 26.1 7.1 L 22.1 7.1 L 22.1 1.1 Z M 26.9 4.1 C 26.9 2.3 28.2 1 29.9 1 C 31.1 1 31.9 1.6 32.3 2.3 C 32.3 2.3 31.6 2.7 31.6 2.7 C 31.2 2.2 30.7 1.8 29.9 1.8 C 28.7 1.8 27.8 2.8 27.8 4.1 C 27.8 5.5 28.7 6.4 29.9 6.4 C 30.7 6.4 31.2 6 31.6 5.5 C 31.6 5.5 32.3 5.9 32.3 5.9 C 31.9 6.7 31.1 7.2 29.9 7.2 C 28.2 7.2 26.9 6 26.9 4.1 Z M 34.6 1.9 L 32.7 1.9 L 32.7 1.1 L 37.4 1.1 L 37.4 1.9 L 35.5 1.9 L 35.5 7.1 L 34.6 7.1 L 34.6 1.9 Z M 40.4 1.1 C 40.4 1.1 42.97 1.11 43 1.1 C 44.2 1.1 44.9 2 44.9 3 C 44.9 4 44.2 4.8 43 4.8 C 42.97 4.8 41.3 4.8 41.3 4.8 L 41.3 7.1 L 40.4 7.1 L 40.4 1.1 Z M 42.8 1.9 C 42.85 1.9 41.3 1.9 41.3 1.9 L 41.3 4 C 41.3 4 42.85 4.01 42.8 4 C 43.5 4 44 3.6 44 3 C 44 2.3 43.5 1.9 42.8 1.9 Z M 47.7 4.8 L 46.6 4.8 L 46.6 7.1 L 45.7 7.1 L 45.7 1.1 C 45.7 1.1 48.25 1.11 48.2 1.1 C 49.4 1.1 50.2 1.8 50.2 3 C 50.2 4 49.4 4.6 48.7 4.7 C 48.68 4.71 50.2 7.1 50.2 7.1 L 49.2 7.1 L 47.7 4.8 Z M 48.1 1.9 C 48.13 1.9 46.6 1.9 46.6 1.9 L 46.6 4 C 46.6 4 48.13 4.01 48.1 4 C 48.8 4 49.2 3.6 49.2 3 C 49.2 2.3 48.8 1.9 48.1 1.9 Z M 54 1 C 55.8 1 57 2.3 57 4.1 C 57 5.9 55.8 7.2 54 7.2 C 52.2 7.2 50.9 5.9 50.9 4.1 C 50.9 2.3 52.2 1 54 1 Z M 54 1.8 C 52.7 1.8 51.9 2.8 51.9 4.1 C 51.9 5.4 52.7 6.4 54 6.4 C 55.2 6.4 56.1 5.4 56.1 4.1 C 56.1 2.8 55.2 1.8 54 1.8 Z M 58 1.1 C 58 1.1 60.52 1.11 60.5 1.1 C 61.7 1.1 62.4 2 62.4 3 C 62.4 4 61.7 4.8 60.5 4.8 C 60.52 4.8 58.9 4.8 58.9 4.8 L 58.9 7.1 L 58 7.1 L 58 1.1 Z M 60.4 1.9 C 60.4 1.9 58.9 1.9 58.9 1.9 L 58.9 4 C 58.9 4 60.4 4.01 60.4 4 C 61 4 61.5 3.6 61.5 3 C 61.5 2.3 61 1.9 60.4 1.9 Z M 63.3 1.1 L 67.3 1.1 L 67.3 1.9 L 64.2 1.9 L 64.2 3.7 L 67.2 3.7 L 67.2 4.4 L 64.2 4.4 L 64.2 6.3 L 67.3 6.3 L 67.3 7.1 L 63.3 7.1 L 63.3 1.1 Z M 70.4 4.8 L 69.2 4.8 L 69.2 7.1 L 68.3 7.1 L 68.3 1.1 C 68.3 1.1 70.87 1.11 70.9 1.1 C 72 1.1 72.8 1.8 72.8 3 C 72.8 4 72.1 4.6 71.3 4.7 C 71.3 4.71 72.8 7.1 72.8 7.1 L 71.8 7.1 L 70.4 4.8 Z M 70.7 1.9 C 70.75 1.9 69.2 1.9 69.2 1.9 L 69.2 4 C 69.2 4 70.75 4.01 70.7 4 C 71.4 4 71.9 3.6 71.9 3 C 71.9 2.3 71.4 1.9 70.7 1.9 Z M 75.2 1.9 L 73.3 1.9 L 73.3 1.1 L 77.9 1.1 L 77.9 1.9 L 76.1 1.9 L 76.1 7.1 L 75.2 7.1 L 75.2 1.9 Z M 80.5 4.6 L 78.2 1.1 L 79.2 1.1 L 81 3.8 L 82.7 1.1 L 83.8 1.1 L 81.4 4.6 L 81.4 7.1 L 80.5 7.1 L 80.5 4.6 Z " stroke="none" fill="#3797ef"/>
  </g>
</svg>