<?xml version="1.0" standalone="no"?>
<!DOCTYPE svg PUBLIC "-//W3C//DTD SVG 1.1//EN" "http://www.w3.org/Graphics/SVG/1.1/DTD/svg11.dtd">
<svg xmlns="http://www.w3.org/2000/svg" version="1.1" width="375px" height="67.5px" viewBox="0 -6 375 67.5" style="top:-6px">
  <desc>SUBJECT PROPERTY RETAIL AERIAL</desc>
  <defs/>
  <g id="Polygon278812">
    <path d="M 133.4 46.4 L 130.9 38.6 L 129.3 38.6 L 129.3 46.4 L 126 46.4 L 126 26.7 C 126 26.7 131.11 26.66 131.1 26.7 C 134.1 26.7 136.1 27.9 136.1 30.8 C 136.1 30.8 136.1 34.4 136.1 34.4 C 136.1 36.3 135.3 37.5 133.9 38 C 133.94 38.04 136.8 46.4 136.8 46.4 L 133.4 46.4 Z M 129.3 35.7 C 129.3 35.7 131 35.73 131 35.7 C 132.1 35.7 132.8 35.3 132.8 33.9 C 132.8 33.9 132.8 31.4 132.8 31.4 C 132.8 29.9 132.1 29.5 131 29.5 C 131 29.54 129.3 29.5 129.3 29.5 L 129.3 35.7 Z M 138.5 46.4 L 138.5 26.7 L 147.1 26.7 L 147.1 29.5 L 141.7 29.5 L 141.7 35 L 146.2 35 L 146.2 37.8 L 141.7 37.8 L 141.7 43.5 L 147.2 43.5 L 147.2 46.4 L 138.5 46.4 Z M 158 29.5 L 154.7 29.5 L 154.7 46.4 L 151.4 46.4 L 151.4 29.5 L 148.1 29.5 L 148.1 26.7 L 158 26.7 L 158 29.5 Z M 164.5 42 L 160.8 42 L 160.1 46.4 L 157 46.4 L 160.6 26.7 L 164.8 26.7 L 168.5 46.4 L 165.2 46.4 L 164.5 42 Z M 164 39.3 L 162.7 30.5 L 161.3 39.3 L 164 39.3 Z M 170 46.4 L 170 26.7 L 173.2 26.7 L 173.2 46.4 L 170 46.4 Z M 184.2 46.4 L 175.9 46.4 L 175.9 26.7 L 179.2 26.7 L 179.2 43.5 L 184.2 43.5 L 184.2 46.4 Z M 195.7 42 L 192 42 L 191.3 46.4 L 188.2 46.4 L 191.8 26.7 L 196 26.7 L 199.7 46.4 L 196.4 46.4 L 195.7 42 Z M 195.2 39.3 L 193.9 30.5 L 192.5 39.3 L 195.2 39.3 Z M 201.1 46.4 L 201.1 26.7 L 209.7 26.7 L 209.7 29.5 L 204.3 29.5 L 204.3 35 L 208.8 35 L 208.8 37.8 L 204.3 37.8 L 204.3 43.5 L 209.8 43.5 L 209.8 46.4 L 201.1 46.4 Z M 219.3 46.4 L 216.8 38.6 L 215.1 38.6 L 215.1 46.4 L 211.8 46.4 L 211.8 26.7 C 211.8 26.7 216.95 26.66 216.9 26.7 C 219.9 26.7 221.9 27.9 221.9 30.8 C 221.9 30.8 221.9 34.4 221.9 34.4 C 221.9 36.3 221.1 37.5 219.8 38 C 219.77 38.04 222.6 46.4 222.6 46.4 L 219.3 46.4 Z M 215.1 35.7 C 215.1 35.7 216.84 35.73 216.8 35.7 C 217.9 35.7 218.6 35.3 218.6 33.9 C 218.6 33.9 218.6 31.4 218.6 31.4 C 218.6 29.9 217.9 29.5 216.8 29.5 C 216.84 29.54 215.1 29.5 215.1 29.5 L 215.1 35.7 Z M 224.4 46.4 L 224.4 26.7 L 227.7 26.7 L 227.7 46.4 L 224.4 46.4 Z M 236.6 42 L 233 42 L 232.3 46.4 L 229.1 46.4 L 232.8 26.7 L 236.9 26.7 L 240.7 46.4 L 237.3 46.4 L 236.6 42 Z M 236.2 39.3 L 234.8 30.5 L 233.4 39.3 L 236.2 39.3 Z M 250.4 46.4 L 242 46.4 L 242 26.7 L 245.3 26.7 L 245.3 43.5 L 250.4 43.5 L 250.4 46.4 Z " stroke="none" fill="#282828"/>
  </g>
  <g id="Polygon278811">
    <path d="M 115 9.8 C 115.7 10.6 116.8 11.3 118.3 11.3 C 120 11.3 120.6 10.5 120.6 9.7 C 120.6 8.6 119.4 8.3 118.1 7.9 C 116.4 7.5 114.4 7 114.4 4.8 C 114.4 3.1 115.9 1.8 118.2 1.8 C 119.8 1.8 121.1 2.3 122 3.3 C 122 3.3 121.1 4.4 121.1 4.4 C 120.3 3.6 119.2 3.2 118 3.2 C 116.9 3.2 116 3.8 116 4.7 C 116 5.7 117.2 6 118.5 6.3 C 120.2 6.7 122.3 7.3 122.3 9.5 C 122.3 11.2 121.1 12.7 118.3 12.7 C 116.4 12.7 115 12.1 114.1 11.1 C 114.1 11.1 115 9.8 115 9.8 Z M 123.9 2 L 125.5 2 C 125.5 2 125.54 8.36 125.5 8.4 C 125.5 10.2 126.5 11.3 128.4 11.3 C 130.3 11.3 131.2 10.2 131.2 8.4 C 131.25 8.36 131.2 2 131.2 2 L 132.8 2 C 132.8 2 132.85 8.39 132.8 8.4 C 132.8 11 131.4 12.7 128.4 12.7 C 125.4 12.7 123.9 11 123.9 8.4 C 123.94 8.4 123.9 2 123.9 2 Z M 135.1 2 C 135.1 2 140.03 1.95 140 2 C 141.9 2 143 3.1 143 4.7 C 143 6 142.1 6.9 141.2 7.1 C 142.3 7.3 143.2 8.4 143.2 9.7 C 143.2 11.4 142.1 12.5 140.2 12.5 C 140.16 12.55 135.1 12.5 135.1 12.5 L 135.1 2 Z M 139.7 6.4 C 140.8 6.4 141.4 5.8 141.4 4.9 C 141.4 4 140.8 3.4 139.7 3.4 C 139.73 3.35 136.6 3.4 136.6 3.4 L 136.6 6.4 C 136.6 6.4 139.73 6.45 139.7 6.4 Z M 139.8 11.2 C 140.9 11.2 141.6 10.5 141.6 9.5 C 141.6 8.6 141 7.8 139.8 7.8 C 139.81 7.84 136.6 7.8 136.6 7.8 L 136.6 11.2 C 136.6 11.2 139.81 11.15 139.8 11.2 Z M 144.8 10.4 C 145.2 10.9 145.8 11.3 146.7 11.3 C 147.9 11.3 148.7 10.5 148.7 9.3 C 148.67 9.26 148.7 2 148.7 2 L 150.3 2 C 150.3 2 150.26 9.28 150.3 9.3 C 150.3 11.6 148.8 12.7 146.8 12.7 C 145.7 12.7 144.7 12.4 144 11.6 C 144 11.6 144.8 10.4 144.8 10.4 Z M 152.5 2 L 159.6 2 L 159.6 3.4 L 154.1 3.4 L 154.1 6.4 L 159.5 6.4 L 159.5 7.8 L 154.1 7.8 L 154.1 11.2 L 159.6 11.2 L 159.6 12.5 L 152.5 12.5 L 152.5 2 Z M 161 7.3 C 161 4 163.4 1.8 166.4 1.8 C 168.5 1.8 169.8 2.8 170.6 4 C 170.6 4 169.3 4.7 169.3 4.7 C 168.7 3.8 167.6 3.2 166.4 3.2 C 164.2 3.2 162.6 4.9 162.6 7.3 C 162.6 9.6 164.2 11.3 166.4 11.3 C 167.6 11.3 168.7 10.7 169.3 9.8 C 169.3 9.8 170.6 10.5 170.6 10.5 C 169.8 11.7 168.5 12.7 166.4 12.7 C 163.4 12.7 161 10.5 161 7.3 Z M 174.6 3.4 L 171.3 3.4 L 171.3 2 L 179.5 2 L 179.5 3.4 L 176.2 3.4 L 176.2 12.5 L 174.6 12.5 L 174.6 3.4 Z M 184.9 2 C 184.9 2 189.37 1.95 189.4 2 C 191.6 2 192.8 3.4 192.8 5.2 C 192.8 7 191.5 8.5 189.4 8.5 C 189.37 8.46 186.5 8.5 186.5 8.5 L 186.5 12.5 L 184.9 12.5 L 184.9 2 Z M 189.2 3.4 C 189.17 3.35 186.5 3.4 186.5 3.4 L 186.5 7.1 C 186.5 7.1 189.17 7.07 189.2 7.1 C 190.3 7.1 191.1 6.3 191.1 5.2 C 191.1 4.1 190.3 3.4 189.2 3.4 Z M 197.8 8.5 L 195.8 8.5 L 195.8 12.5 L 194.2 12.5 L 194.2 2 C 194.2 2 198.7 1.95 198.7 2 C 200.7 2 202.1 3.3 202.1 5.2 C 202.1 7.1 200.8 8.1 199.5 8.3 C 199.46 8.31 202.2 12.5 202.2 12.5 L 200.3 12.5 L 197.8 8.5 Z M 198.5 3.4 C 198.49 3.35 195.8 3.4 195.8 3.4 L 195.8 7.1 C 195.8 7.1 198.49 7.07 198.5 7.1 C 199.6 7.1 200.5 6.3 200.5 5.2 C 200.5 4.1 199.6 3.4 198.5 3.4 Z M 208.8 1.8 C 211.9 1.8 214.1 4.1 214.1 7.3 C 214.1 10.4 211.9 12.7 208.8 12.7 C 205.6 12.7 203.4 10.4 203.4 7.3 C 203.4 4.1 205.6 1.8 208.8 1.8 Z M 208.8 3.2 C 206.5 3.2 205.1 4.9 205.1 7.3 C 205.1 9.6 206.5 11.3 208.8 11.3 C 211 11.3 212.5 9.6 212.5 7.3 C 212.5 4.9 211 3.2 208.8 3.2 Z M 215.9 2 C 215.9 2 220.34 1.95 220.3 2 C 222.5 2 223.7 3.4 223.7 5.2 C 223.7 7 222.5 8.5 220.3 8.5 C 220.34 8.46 217.5 8.5 217.5 8.5 L 217.5 12.5 L 215.9 12.5 L 215.9 2 Z M 220.1 3.4 C 220.14 3.35 217.5 3.4 217.5 3.4 L 217.5 7.1 C 217.5 7.1 220.14 7.07 220.1 7.1 C 221.3 7.1 222.1 6.3 222.1 5.2 C 222.1 4.1 221.3 3.4 220.1 3.4 Z M 225.2 2 L 232.3 2 L 232.3 3.4 L 226.8 3.4 L 226.8 6.4 L 232.2 6.4 L 232.2 7.8 L 226.8 7.8 L 226.8 11.2 L 232.3 11.2 L 232.3 12.5 L 225.2 12.5 L 225.2 2 Z M 237.7 8.5 L 235.7 8.5 L 235.7 12.5 L 234.1 12.5 L 234.1 2 C 234.1 2 238.61 1.95 238.6 2 C 240.6 2 242 3.3 242 5.2 C 242 7.1 240.7 8.1 239.4 8.3 C 239.37 8.31 242.1 12.5 242.1 12.5 L 240.2 12.5 L 237.7 8.5 Z M 238.4 3.4 C 238.4 3.35 235.7 3.4 235.7 3.4 L 235.7 7.1 C 235.7 7.1 238.4 7.07 238.4 7.1 C 239.5 7.1 240.4 6.3 240.4 5.2 C 240.4 4.1 239.5 3.4 238.4 3.4 Z M 246.2 3.4 L 242.9 3.4 L 242.9 2 L 251.1 2 L 251.1 3.4 L 247.8 3.4 L 247.8 12.5 L 246.2 12.5 L 246.2 3.4 Z M 255.6 8.1 L 251.5 2 L 253.3 2 L 256.4 6.7 L 259.5 2 L 261.4 2 L 257.2 8.1 L 257.2 12.5 L 255.6 12.5 L 255.6 8.1 Z " stroke="none" fill="#3797ef"/>
  </g>
</svg>