<?xml version="1.0" standalone="no"?><!DOCTYPE svg PUBLIC "-//W3C//DTD SVG 1.1//EN" "http://www.w3.org/Graphics/SVG/1.1/DTD/svg11.dtd"><svg xmlns="http://www.w3.org/2000/svg" version="1.1" width="236px" height="16.9px" viewBox="0 -4 236 16.9" style="top:-4px"><desc>TENANT NAME</desc><defs/><g id="Polygon264685"><path d="m2.1 1.9H.3v-.8h4.6v.8H3v5.2h-.9V1.9zm3.7-.8h4.1v.8H6.7v1.8h3.1v.7H6.7v1.9h3.2v.8H5.8v-6zm6.1 1.4v4.6h-.9v-6h.9l3.3 4.5V1.1h.9v6h-.9l-3.3-4.6zm9.3 3.4h-2.9l-.5 1.2h-1l2.4-6h1.1l2.4 6h-1l-.5-1.2zm-2.7-.8h2.4l-1.2-3.2l-1.2 3.2zm5.8-2.6v4.6h-.9v-6h.9l3.3 4.5V1.1h.9v6h-.9l-3.3-4.6zm7-.6h-1.9v-.8h4.6v.8h-1.8v5.2h-.9V1.9zm6.9.6v4.6h-.9v-6h.9l3.3 4.5V1.1h.9v6h-.9l-3.3-4.6zm9.3 3.4h-2.9l-.5 1.2h-1l2.4-6h1.1l2.4 6h-1l-.5-1.2zm-2.7-.8h2.5l-1.2-3.2l-1.3 3.2zm10.1-2.8l-2 4.8h-.3l-2-4.8v4.8h-.9v-6h1.3l1.8 4.3l1.7-4.3h1.3v6h-.9V2.3zm2.2-1.2h4.1v.8H58v1.8h3.1v.7H58v1.9h3.2v.8h-4.1v-6z" stroke="none" fill="#88898a"/></g></svg>