<?xml version="1.0" standalone="no"?><!DOCTYPE svg PUBLIC "-//W3C//DTD SVG 1.1//EN" "http://www.w3.org/Graphics/SVG/1.1/DTD/svg11.dtd"><svg xmlns="http://www.w3.org/2000/svg" version="1.1" width="13.2px" height="30.8px" viewBox="0 -7 13.2 30.8" style="top:-7px"><desc>%</desc><defs/><g id="Polygon276182"><path d="m3.4 1c1.8 0 3 1.3 3 3c0 1.7-1.2 3-3 3C1.7 7 .6 5.7.6 4c0-1.7 1.1-3 2.8-3zm6.6.2h1l-7.7 12h-1l7.7-12zM3.4 2c-1 0-1.8.8-1.8 2c0 1.2.8 2.1 1.8 2.1c1.1 0 1.9-.9 1.9-2.1c0-1.2-.8-2-1.9-2zm6.3 5.5c1.7 0 2.9 1.3 2.9 3c0 1.7-1.2 2.9-2.9 2.9c-1.7 0-2.9-1.2-2.9-2.9c0-1.7 1.2-3 2.9-3zm0 .9c-1.1 0-1.8.9-1.8 2.1c0 1.1.7 2 1.8 2c1.1 0 1.8-.9 1.8-2c0-1.2-.7-2.1-1.8-2.1z" stroke="none" fill="#fff"/></g></svg>