<?xml version="1.0" standalone="no"?><!DOCTYPE svg PUBLIC "-//W3C//DTD SVG 1.1//EN" "http://www.w3.org/Graphics/SVG/1.1/DTD/svg11.dtd"><svg xmlns="http://www.w3.org/2000/svg" version="1.1" width="75.4px" height="27.3px" viewBox="0 -6 75.4 27.3" style="top:-6px"><desc>Lorem</desc><defs/><g id="Polygon300853"><path d="m33.5 2h.9v9.7h5.1v.8h-6V2zm7.1 6.7c0-2.2 1.5-4 3.7-4c2.3 0 3.7 1.8 3.7 4c0 2.2-1.4 4-3.7 4c-2.2 0-3.7-1.8-3.7-4zm6.5 0c0-1.7-1-3.3-2.8-3.3c-1.8 0-2.8 1.6-2.8 3.3c0 1.7 1 3.3 2.8 3.3c1.8 0 2.8-1.6 2.8-3.3zm3-3.8h.9s-.04 1.29 0 1.3c.6-.9 1.5-1.5 2.6-1.5v.9h-.5c-.7 0-1.8.7-2.1 1.4c-.04-.05 0 5.5 0 5.5h-.9V4.9zm8.3-.2c2.4 0 3.6 1.8 3.6 4c.05.05 0 .3 0 .3c0 0-6.37-.03-6.4 0c.1 1.6 1.2 3 3 3c1 0 1.9-.3 2.5-1l.5.5c-.8.8-1.8 1.2-3 1.2c-2.3 0-3.9-1.6-3.9-4c0-2.2 1.6-4 3.7-4zm-2.8 3.6h5.6c0-1.3-.9-2.9-2.8-2.9c-1.8 0-2.7 1.6-2.8 2.9zm17.7-1.1c0-1.1-.5-1.8-1.5-1.8c-.9 0-1.8.6-2.2 1.3c-.02.03 0 5.8 0 5.8h-.9s.04-5.32 0-5.3c0-1.1-.4-1.8-1.5-1.8c-.8 0-1.7.6-2.2 1.3v5.8h-.8V4.9h.8v1.1c.3-.5 1.4-1.3 2.5-1.3c1.2 0 1.8.7 2 1.4c.4-.7 1.5-1.4 2.5-1.4c1.5 0 2.1.8 2.1 2.3c.03.02 0 5.5 0 5.5h-.8V7.2z" stroke="none" fill="#000"/></g></svg>