<?xml version="1.0" standalone="no"?>
<!DOCTYPE svg PUBLIC "-//W3C//DTD SVG 1.1//EN" "http://www.w3.org/Graphics/SVG/1.1/DTD/svg11.dtd">
<svg xmlns="http://www.w3.org/2000/svg" version="1.1" width="184px" height="16.9px" viewBox="0 -4 184 16.9" style="top:-4px">
  <desc>04</desc>
  <defs/>
  <g id="Polygon210436">
    <path d="M 2.8 1 C 4.4 1 5.1 2.6 5.1 4.1 C 5.1 5.6 4.4 7.2 2.8 7.2 C 1.1 7.2 0.4 5.6 0.4 4.1 C 0.4 2.6 1.1 1 2.8 1 Z M 2.8 1.8 C 1.7 1.8 1.3 2.9 1.3 4.1 C 1.3 5.3 1.7 6.4 2.8 6.4 C 3.8 6.4 4.2 5.3 4.2 4.1 C 4.2 2.9 3.8 1.8 2.8 1.8 Z M 8.6 5.7 L 5.8 5.7 L 5.8 4.9 L 8.3 1.1 L 9.5 1.1 L 9.5 4.9 L 10.4 4.9 L 10.4 5.7 L 9.5 5.7 L 9.5 7.1 L 8.6 7.1 L 8.6 5.7 Z M 6.7 4.9 L 8.6 4.9 L 8.6 1.9 L 6.7 4.9 Z " stroke="none" fill="#88898a"/>
  </g>
</svg>