<?xml version="1.0" standalone="no"?><!DOCTYPE svg PUBLIC "-//W3C//DTD SVG 1.1//EN" "http://www.w3.org/Graphics/SVG/1.1/DTD/svg11.dtd"><svg xmlns="http://www.w3.org/2000/svg" version="1.1" width="155.5px" height="24.9px" viewBox="0 -5 155.5 24.9" style="top:-5px"><desc>Be a Part of the Team</desc><defs/><g id="Polygon78739"><path d="m14.1 1.7s4.37.02 4.4 0c1.6 0 2.6 1 2.6 2.4c0 1.2-.8 2-1.6 2.1c1 .2 1.8 1.2 1.8 2.3c0 1.5-1 2.6-2.7 2.6c-.01-.04-4.5 0-4.5 0V1.7zm4.1 4c.9 0 1.5-.6 1.5-1.4c0-.7-.6-1.3-1.5-1.3c.01-.05-2.7 0-2.7 0v2.7s2.71-.02 2.7 0zm.1 4.1c1 0 1.5-.5 1.5-1.4c0-.8-.5-1.5-1.5-1.5c-.02.02-2.8 0-2.8 0v2.9s2.78.03 2.8 0zm7.5-5.7c2.1 0 3.3 1.6 3.3 3.7v.3h-5.3c.1 1.1.9 2.1 2.3 2.1c.7 0 1.5-.3 2-.8l.6.8c-.7.7-1.7 1-2.8 1c-2 0-3.5-1.4-3.5-3.5c0-2 1.4-3.6 3.4-3.6zm-2 3.1h4.1c0-.9-.6-2-2.1-2c-1.3 0-2 1.1-2 2zm14.4 3.1c-.5.6-1.3.9-2.2.9c-1.1 0-2.4-.7-2.4-2.2c0-1.6 1.3-2.2 2.4-2.2c.9 0 1.7.3 2.2.9V6.6c0-.9-.7-1.4-1.7-1.4c-.7 0-1.4.3-2 .9l-.5-.9c.7-.7 1.7-1.1 2.7-1.1c1.5 0 2.8.7 2.8 2.4c-.04 0 0 4.6 0 4.6h-1.3v-.8zm0-1.9c-.4-.5-1-.7-1.7-.7c-.9 0-1.6.5-1.6 1.3c0 .8.7 1.3 1.6 1.3c.7 0 1.3-.2 1.7-.7V8.4zm6.6-6.7s3.97.02 4 0c1.9 0 3 1.3 3 2.9c0 1.5-1.1 2.9-3 2.9c-.03-.04-2.6 0-2.6 0v3.6h-1.4V1.7zM48.6 3c-.01-.05-2.4 0-2.4 0v3.2s2.39.03 2.4 0c1 0 1.7-.6 1.7-1.6c0-1-.7-1.6-1.7-1.6zm8.3 7.3c-.5.6-1.3.9-2.2.9c-1.1 0-2.3-.7-2.3-2.2c0-1.6 1.2-2.2 2.3-2.2c.9 0 1.7.3 2.2.9V6.6c0-.9-.7-1.4-1.6-1.4c-.8 0-1.5.3-2.1.9l-.5-.9c.7-.7 1.7-1.1 2.8-1.1c1.4 0 2.7.7 2.7 2.4c-.02 0 0 4.6 0 4.6h-1.3s.02-.78 0-.8zm0-1.9c-.4-.5-1-.7-1.7-.7c-.9 0-1.6.5-1.6 1.3c0 .8.7 1.3 1.6 1.3c.7 0 1.3-.2 1.7-.7V8.4zm3.2-4.1h1.2v1c.5-.6 1.3-1.2 2.2-1.2v1.3h-.4c-.6 0-1.5.5-1.8 1v4.7h-1.2V4.3zm4.8 5.3V5.4h-1.1V4.3h1.1V2.5h1.3v1.8h1.3v1.1h-1.3s-.04 3.88 0 3.9c0 .5.2.8.6.8c.3 0 .6-.1.7-.3l.3 1c-.2.2-.6.4-1.3.4c-1.1 0-1.6-.6-1.6-1.6zm6.9-1.9c0-2 1.4-3.6 3.5-3.6c2.1 0 3.4 1.6 3.4 3.6c0 1.9-1.3 3.5-3.4 3.5c-2.1 0-3.5-1.6-3.5-3.5zm5.6 0c0-1.3-.8-2.5-2.1-2.5c-1.4 0-2.1 1.2-2.1 2.5c0 1.3.7 2.4 2.1 2.4c1.3 0 2.1-1.1 2.1-2.4zm3-2.3h-1.1V4.3h1.1s.04-.45 0-.4c0-1.5.9-2.3 2.1-2.3c.4 0 .8.1 1.1.2l-.3 1c-.2-.1-.4-.2-.6-.2c-.6 0-1 .4-1 1.3v.4h1.4v1.1h-1.4v5.7h-1.3V5.4zm7.5 4.2c-.04-.04 0-4.2 0-4.2h-1.2V4.3h1.2V2.5h1.2v1.8h1.4v1.1h-1.4s.02 3.88 0 3.9c0 .5.2.8.7.8c.3 0 .5-.1.7-.3l.3 1c-.3.2-.7.4-1.3.4c-1.1 0-1.6-.6-1.6-1.6zm8.4-2.9c0-1.1-.6-1.5-1.4-1.5c-.8 0-1.5.5-1.9 1v4.9h-1.2V1.7h1.2v3.5c.5-.5 1.4-1.1 2.4-1.1c1.4 0 2.2.8 2.2 2.2c-.03-.01 0 4.8 0 4.8h-1.3s.01-4.39 0-4.4zm6.1-2.6c2 0 3.3 1.6 3.3 3.7v.3h-5.3c.1 1.1.9 2.1 2.3 2.1c.7 0 1.5-.3 2-.8l.5.8c-.6.7-1.6 1-2.7 1c-2 0-3.5-1.4-3.5-3.5c0-2 1.4-3.6 3.4-3.6zm-2.1 3.1h4.2c-.1-.9-.7-2-2.1-2c-1.3 0-2 1.1-2.1 2zM112.9 3H110V1.7h7.2v1.3h-2.9v8.1h-1.4V3zm7 1.1c2.1 0 3.3 1.6 3.3 3.7c.02-.02 0 .3 0 .3h-5.3c.1 1.1.9 2.1 2.3 2.1c.7 0 1.5-.3 2-.8l.6.8c-.7.7-1.7 1-2.8 1c-2 0-3.5-1.4-3.5-3.5c0-2 1.5-3.6 3.4-3.6zm-2 3.1h4.1c0-.9-.6-2-2.1-2c-1.3 0-2 1.1-2 2zm10.9 3.1c-.5.6-1.3.9-2.2.9c-1.1 0-2.3-.7-2.3-2.2c0-1.6 1.2-2.2 2.3-2.2c.9 0 1.7.3 2.2.9V6.6c0-.9-.6-1.4-1.6-1.4c-.8 0-1.4.3-2 .9l-.6-.9c.8-.7 1.7-1.1 2.8-1.1c1.5 0 2.7.7 2.7 2.4v4.6h-1.3s.04-.78 0-.8zm0-1.9c-.3-.5-1-.7-1.7-.7c-.9 0-1.6.5-1.6 1.3c0 .8.7 1.3 1.6 1.3c.7 0 1.4-.2 1.7-.7V8.4zm11.4-1.8c0-.8-.4-1.4-1.2-1.4c-.7 0-1.3.5-1.7 1c.03.02 0 4.9 0 4.9h-1.2s-.03-4.55 0-4.5c0-.8-.4-1.4-1.2-1.4c-.7 0-1.3.5-1.7 1c.03.03 0 4.9 0 4.9H132V4.3h1.2s.03.95 0 .9c.3-.4 1.2-1.1 2.2-1.1c1 0 1.6.6 1.8 1.3c.4-.6 1.3-1.3 2.3-1.3c1.3 0 1.9.7 1.9 2.1c.05-.03 0 4.9 0 4.9h-1.2V6.6z" stroke="none" fill="#888888"/></g></svg>