<?xml version="1.0" standalone="no"?><!DOCTYPE svg PUBLIC "-//W3C//DTD SVG 1.1//EN" "http://www.w3.org/Graphics/SVG/1.1/DTD/svg11.dtd"><svg xmlns="http://www.w3.org/2000/svg" version="1.1" width="77px" height="15.9px" viewBox="0 -4 77 15.9" style="top:-4px"><desc>28 7%</desc><defs/><g id="Polygon109937"><path d="m54.8 6.7c2-1.7 3.4-2.8 3.4-4c0-.9-.7-1.2-1.4-1.2c-.7 0-1.3.3-1.6.8l-.4-.4c.4-.5 1.2-.9 2-.9c.9 0 1.9.5 1.9 1.7c0 1.3-1.4 2.5-3.1 3.9c-.03.04 3.1 0 3.1 0v.5h-3.9s-.03-.41 0-.4zM61.5 4c-.7-.2-1.4-.6-1.4-1.4c0-1.1 1-1.6 2-1.6c.9 0 1.9.5 1.9 1.6c0 .8-.7 1.2-1.4 1.4c.8.2 1.5.8 1.5 1.6c0 1-.9 1.6-2 1.6c-1.2 0-2.1-.6-2.1-1.6c0-.8.8-1.4 1.5-1.6zm.6-2.5c-.8 0-1.4.4-1.4 1.1c0 .9 1 1.1 1.4 1.2c.3-.1 1.4-.3 1.4-1.2c0-.7-.6-1.1-1.4-1.1zm0 2.7c-.4.1-1.5.5-1.5 1.4c0 .7.7 1.2 1.5 1.2c.8 0 1.5-.5 1.5-1.2c0-.9-1.2-1.3-1.5-1.4zm3.5 2.2c.2 0 .4.2.4.4c0 .2-.2.4-.4.4c-.2 0-.4-.2-.4-.4c0-.2.2-.4.4-.4zm4.1-4.8h-3.4v-.5h4v.4l-2.6 5.6h-.6l2.6-5.5zm2.6-.6c.8 0 1.4.7 1.4 1.5c0 .8-.6 1.5-1.4 1.5c-.9 0-1.4-.7-1.4-1.5c0-.8.5-1.5 1.4-1.5zm3.2.1h.5l-3.9 6h-.4l3.8-6zm-3.2.3c-.6 0-1 .5-1 1.1c0 .6.4 1.1 1 1.1c.6 0 1-.5 1-1.1c0-.6-.4-1.1-1-1.1zm3 2.9c.9 0 1.4.6 1.4 1.5c0 .8-.5 1.4-1.4 1.4c-.8 0-1.4-.6-1.4-1.4c0-.9.6-1.5 1.4-1.5zm0 .3c-.6 0-1 .5-1 1.2c0 .6.4 1.1 1 1.1c.6 0 1-.5 1-1.1c0-.7-.4-1.2-1-1.2z" stroke="none" fill="#000"/></g></svg>