<?xml version="1.0" standalone="no"?>
<!DOCTYPE svg PUBLIC "-//W3C//DTD SVG 1.1//EN" "http://www.w3.org/Graphics/SVG/1.1/DTD/svg11.dtd">
<svg xmlns="http://www.w3.org/2000/svg" version="1.1" width="158px" height="27.9px" viewBox="0 -6 158 27.9" style="top:-6px">
  <desc>Options</desc>
  <defs/>
  <g id="Polygon273153">
    <path d="M 6.1 1.8 C 9.2 1.8 11.4 4.1 11.4 7.3 C 11.4 10.4 9.2 12.7 6.1 12.7 C 2.9 12.7 0.7 10.4 0.7 7.3 C 0.7 4.1 2.9 1.8 6.1 1.8 Z M 6.1 3.2 C 3.8 3.2 2.4 4.9 2.4 7.3 C 2.4 9.6 3.8 11.3 6.1 11.3 C 8.3 11.3 9.8 9.6 9.8 7.3 C 9.8 4.9 8.3 3.2 6.1 3.2 Z M 13.3 15.5 L 13.3 4.9 L 14.7 4.9 C 14.7 4.9 14.72 5.97 14.7 6 C 15.3 5.2 16.2 4.7 17.2 4.7 C 19.2 4.7 20.6 6.2 20.6 8.7 C 20.6 11.2 19.2 12.7 17.2 12.7 C 16.2 12.7 15.3 12.3 14.7 11.4 C 14.72 11.44 14.7 15.5 14.7 15.5 L 13.3 15.5 Z M 16.9 6 C 16 6 15.1 6.5 14.7 7.1 C 14.7 7.1 14.7 10.3 14.7 10.3 C 15.1 10.9 16 11.5 16.9 11.5 C 18.3 11.5 19.2 10.3 19.2 8.7 C 19.2 7.1 18.3 6 16.9 6 Z M 22.7 10.8 C 22.74 10.85 22.7 6.1 22.7 6.1 L 21.5 6.1 L 21.5 4.9 L 22.7 4.9 L 22.7 2.8 L 24.2 2.8 L 24.2 4.9 L 25.7 4.9 L 25.7 6.1 L 24.2 6.1 C 24.2 6.1 24.17 10.53 24.2 10.5 C 24.2 11.1 24.4 11.5 24.9 11.5 C 25.3 11.5 25.6 11.3 25.7 11.2 C 25.7 11.2 26.1 12.2 26.1 12.2 C 25.8 12.5 25.3 12.7 24.6 12.7 C 23.4 12.7 22.7 12.1 22.7 10.8 Z M 27.1 2.7 C 27.1 2.2 27.5 1.8 28 1.8 C 28.5 1.8 28.9 2.2 28.9 2.7 C 28.9 3.2 28.5 3.6 28 3.6 C 27.5 3.6 27.1 3.2 27.1 2.7 Z M 27.3 4.9 L 28.7 4.9 L 28.7 12.5 L 27.3 12.5 L 27.3 4.9 Z M 30.5 8.7 C 30.5 6.5 32 4.7 34.4 4.7 C 36.8 4.7 38.3 6.5 38.3 8.7 C 38.3 10.9 36.8 12.7 34.4 12.7 C 32 12.7 30.5 10.9 30.5 8.7 Z M 36.8 8.7 C 36.8 7.3 36 6 34.4 6 C 32.9 6 32 7.3 32 8.7 C 32 10.2 32.9 11.5 34.4 11.5 C 36 11.5 36.8 10.2 36.8 8.7 Z M 45.3 7.6 C 45.3 6.4 44.6 6 43.6 6 C 42.8 6 41.9 6.5 41.5 7.1 C 41.53 7.07 41.5 12.5 41.5 12.5 L 40.1 12.5 L 40.1 4.9 L 41.5 4.9 C 41.5 4.9 41.53 5.95 41.5 6 C 42 5.3 43.1 4.7 44.2 4.7 C 45.9 4.7 46.7 5.5 46.7 7.2 C 46.71 7.16 46.7 12.5 46.7 12.5 L 45.3 12.5 C 45.3 12.5 45.28 7.64 45.3 7.6 Z M 49 10.5 C 49.5 11.1 50.5 11.6 51.6 11.6 C 52.7 11.6 53.2 11.2 53.2 10.5 C 53.2 9.7 52.3 9.5 51.4 9.3 C 50.1 9 48.5 8.6 48.5 7 C 48.5 5.7 49.6 4.7 51.5 4.7 C 52.8 4.7 53.7 5.2 54.4 5.8 C 54.4 5.8 53.7 6.8 53.7 6.8 C 53.3 6.2 52.4 5.8 51.5 5.8 C 50.5 5.8 49.9 6.2 49.9 6.8 C 49.9 7.5 50.7 7.7 51.7 8 C 53 8.3 54.6 8.6 54.6 10.4 C 54.6 11.7 53.5 12.7 51.5 12.7 C 50.2 12.7 49.1 12.3 48.3 11.5 C 48.3 11.5 49 10.5 49 10.5 Z " stroke="none" fill="#000"/>
  </g>
</svg>