<?xml version="1.0" standalone="no"?><!DOCTYPE svg PUBLIC "-//W3C//DTD SVG 1.1//EN" "http://www.w3.org/Graphics/SVG/1.1/DTD/svg11.dtd"><svg xmlns="http://www.w3.org/2000/svg" xmlns:xlink="http://www.w3.org/1999/xlink" version="1.1" width="134.3px" height="25.9px" viewBox="0 -8 134.3 25.9" style="top:-8px"><desc/><defs/><g id="Polygon43810"><path d="m80.9 3.9l3.9-2v.4l-3.5 1.8l3.5 1.8v.4l-3.9-2v-.4zm4.4 0l4-2v.4l-3.5 1.8l3.5 1.8v.4l-4-2v-.4zm6.7.6l-2.3-3.4h.6l2 3l2-3h.7l-2.4 3.4v2.6h-.6V4.5zm4.5-1.8c1.3 0 2.1 1 2.1 2.3c-.05-.04 0 .1 0 .1c0 0-3.69-.02-3.7 0c.1.9.7 1.7 1.7 1.7c.6 0 1.1-.2 1.4-.6l.3.3c-.5.5-1 .7-1.7.7c-1.3 0-2.2-.9-2.2-2.3c0-1.2.9-2.2 2.1-2.2zm-1.6 2h3.2c0-.7-.5-1.6-1.6-1.6c-1 0-1.5.9-1.6 1.6zm7.6 1.9c-.4.4-.9.6-1.5.6c-.7 0-1.5-.5-1.5-1.4c0-1 .8-1.5 1.5-1.5c.6 0 1.1.2 1.5.6v-.8c0-.7-.5-1-1.1-1c-.6 0-1 .2-1.4.6l-.3-.3c.5-.5 1-.7 1.7-.7c.9 0 1.6.4 1.6 1.4v3h-.5s.02-.5 0-.5zm0-1.3c-.3-.4-.8-.6-1.3-.6c-.7 0-1.2.5-1.2 1.1c0 .6.5 1 1.2 1c.5 0 1-.1 1.3-.5v-1zm1.9-2.5h.5v.7c.4-.5.9-.8 1.5-.8v.5h-.3c-.4 0-1 .4-1.2.7v3.2h-.5V2.8zm5.2-1.7s2.51.01 2.5 0c1 0 1.7.6 1.7 1.5c0 .8-.5 1.3-1.1 1.4c.7.1 1.2.8 1.2 1.5c0 1-.7 1.6-1.7 1.6h-2.6v-6zm2.5 2.7c.7 0 1.1-.5 1.1-1.1c0-.6-.4-1.1-1.1-1.1c-.05-.03-1.9 0-1.9 0v2.2h1.9zm0 2.8c.8 0 1.2-.4 1.2-1.1c0-.7-.4-1.2-1.2-1.2c-.01-.03-1.9 0-1.9 0v2.3s1.89.04 1.9 0zm6-.1c-.4.4-.9.7-1.6.7c-.9 0-1.3-.4-1.3-1.4c-.04.02 0-3 0-3h.4s.02 2.92 0 2.9c0 .9.4 1.1 1.1 1.1c.5 0 1.1-.3 1.4-.7c-.01-.02 0-3.3 0-3.3h.5v4.3h-.5v-.6zm1.8-4.8c0-.2.2-.4.3-.4c.2 0 .4.2.4.4c0 .2-.2.3-.4.3c-.1 0-.3-.1-.3-.3zm.1 1.1h.5v4.3h-.5V2.8zm1.9-1.7h.5v6h-.5v-6zm2.1 5.2c-.04-.03 0-3.1 0-3.1h-.8v-.4h.8V1.6h.4v1.2h.9v.4h-.9s.03 3 0 3c0 .4.2.6.5.6c.2 0 .4-.1.5-.2l.2.3c-.2.2-.4.3-.8.3c-.6 0-.8-.3-.8-.9zm1.9-.4l3.4-1.8l-3.4-1.8v-.4l3.9 2v.4l-3.9 2v-.4zm4.4 0l3.5-1.8l-3.5-1.8v-.4l4 2v.4l-4 2v-.4z" stroke="none" fill="#000"/><a xlink:href="DBF_Year%20Built" xlink:show="new" xlink:title="&lt;&lt;Year Built&gt;&gt;"><rect style="fill:transparent;" x="80" y="0" width="54" height="7"/></a></g></svg>