<?xml version="1.0" standalone="no"?><!DOCTYPE svg PUBLIC "-//W3C//DTD SVG 1.1//EN" "http://www.w3.org/Graphics/SVG/1.1/DTD/svg11.dtd"><svg xmlns="http://www.w3.org/2000/svg" xmlns:xlink="http://www.w3.org/1999/xlink" version="1.1" width="134.3px" height="25.9px" viewBox="0 -8 134.3 25.9" style="top:-8px"><desc>AC</desc><defs/><g id="Polygon44257"><path d="m127.3 5.6h-3.2l-.6 1.5h-.6l2.5-6h.6l2.4 6h-.5l-.6-1.5zm-3.1-.4h2.9l-1.4-3.6l-1.5 3.6zm4.6-1.1c0-1.8 1.3-3.1 3-3.1c.9 0 1.7.4 2.2 1.1l-.4.2c-.4-.5-1.1-.8-1.8-.8c-1.4 0-2.5 1-2.5 2.6c0 1.6 1.1 2.7 2.5 2.7c.7 0 1.4-.4 1.8-.9l.4.2c-.5.7-1.3 1.1-2.2 1.1c-1.7 0-3-1.2-3-3.1z" stroke="none" fill="#000"/></g><g id="Polygon44256"><path d="m72.4 3.9l3.9-2v.4l-3.5 1.8l3.5 1.8v.4l-3.9-2v-.4zm4.4 0l4-2v.4l-3.5 1.8l3.5 1.8v.4l-4-2v-.4zm5-2.8h.5v5.5h2.9v.5h-3.4v-6zm4 3.8c0-1.2.8-2.2 2.1-2.2c1.3 0 2.1 1 2.1 2.2c0 1.3-.8 2.3-2.1 2.3c-1.3 0-2.1-1-2.1-2.3zm3.7 0c0-.9-.6-1.8-1.6-1.8c-1 0-1.6.9-1.6 1.8c0 1 .6 1.9 1.6 1.9c1 0 1.6-.9 1.6-1.9zm1.8 1.4V3.2h-.7v-.4h.7V1.6h.5v1.2h.9v.4h-.9s-.03 3 0 3c0 .4.1.6.4.6c.2 0 .4-.1.5-.2l.2.3c-.2.2-.4.3-.7.3c-.6 0-.9-.3-.9-.9zm4.7-.4c.4.4 1 .9 1.9.9c1.2 0 1.6-.7 1.6-1.2c0-.9-.8-1.1-1.7-1.4c-.9-.2-1.9-.5-1.9-1.6c0-1 .9-1.6 2-1.6c.8 0 1.5.3 2 .9l-.3.3c-.5-.5-1.1-.7-1.8-.7c-.8 0-1.4.4-1.4 1.1c0 .7.8.9 1.6 1.1c1 .3 2 .6 2 1.8c0 .8-.5 1.7-2.1 1.7c-1 0-1.7-.4-2.2-.9l.3-.4zm5.1-4.2c0-.2.2-.4.4-.4c.2 0 .3.2.3.4c0 .2-.1.3-.3.3c-.2 0-.4-.1-.4-.3zm.1 1.1h.5v4.3h-.5V2.8zm1.7 3.9l2.6-3.5h-2.6v-.4h3.2v.3l-2.6 3.6h2.7v.4h-3.3v-.4zm6.3-4c1.4 0 2.1 1 2.1 2.3v.1s-3.65-.02-3.7 0c.1.9.7 1.7 1.7 1.7c.6 0 1.1-.2 1.5-.6l.2.3c-.4.5-1 .7-1.7.7c-1.3 0-2.2-.9-2.2-2.3c0-1.2.9-2.2 2.1-2.2zm-1.6 2h3.2c0-.7-.5-1.6-1.6-1.6c-1 0-1.5.9-1.6 1.6zm4.4 1.2l3.5-1.8l-3.5-1.8v-.4l4 2v.4l-4 2v-.4zm4.5 0l3.5-1.8l-3.5-1.8v-.4l3.9 2v.4l-3.9 2v-.4z" stroke="none" fill="#000"/><a xlink:href="DBF_Lot%20Size" xlink:show="new" xlink:title="&lt;&lt;Lot Size&gt;&gt;"><rect style="fill:transparent;" x="71" y="0" width="49" height="7"/></a></g></svg>