<?xml version="1.0" standalone="no"?><!DOCTYPE svg PUBLIC "-//W3C//DTD SVG 1.1//EN" "http://www.w3.org/Graphics/SVG/1.1/DTD/svg11.dtd"><svg xmlns="http://www.w3.org/2000/svg" xmlns:xlink="http://www.w3.org/1999/xlink" version="1.1" width="106.4px" height="44.9px" viewBox="0 -14 106.4 44.9" style="top:-14px"><desc>Agent 1</desc><defs/><g id="Polygon40223"><path d="m6.7 12.7v1.4h-.7s-.03-1.36 0-1.4c-1.6 0-2.8-.7-3.6-1.6l.6-.7c.6.7 1.6 1.4 3 1.5V7.4C4.4 7 2.7 6.5 2.7 4.6C2.7 3 4.2 1.9 6 1.8c-.03 0 0-1.4 0-1.4h.7v1.4c1.3.1 2.4.6 3.1 1.5l-.6.6c-.6-.7-1.5-1.2-2.5-1.2v3.9c1.7.5 3.3 1.1 3.3 3.2c0 1.2-.8 2.8-3.3 2.9zM6 6.4V2.6c-1.3.1-2.3.9-2.3 2c0 1.1 1 1.5 2.3 1.8zm3.1 3.4C9.1 8.5 8 8 6.7 7.6v4.3c1.9-.1 2.4-1.3 2.4-2.1z" stroke="none" fill="#000"/><a xlink:href="DBF_Price%20/%20SF" xlink:show="new" xlink:title="&lt;&lt;Price / SF&gt;&gt;"><rect style="fill:transparent;" x="10" y="1" width="96" height="12"/></a></g><g id="Polygon40224"><path d="m10.9 6.9l7-3.6v.8l-6.2 3.1l6.2 3.1v.8l-7-3.6v-.6zm7.9 0l6.9-3.6v.8l-6.1 3.1l6.1 3.1v.8l-6.9-3.6v-.6zM27.5 2s3.99-.05 4 0c2 0 3.2 1.4 3.2 3.1c0 1.6-1.2 3-3.2 3c-.01.05-3.1 0-3.1 0v4.4h-.9V2zm3.9.8c-.01-.02-3 0-3 0v4.5s2.99.02 3 0c1.4 0 2.3-.9 2.3-2.2c0-1.4-.9-2.3-2.3-2.3zm5.2 2.1h.8s-.02 1.29 0 1.3c.6-.9 1.5-1.5 2.6-1.5v.9h-.4c-.8 0-1.9.7-2.2 1.4c-.02-.04 0 5.5 0 5.5h-.8V4.9zm4.8-2c0-.3.3-.6.6-.6c.4 0 .6.3.6.6c0 .4-.2.7-.6.7c-.3 0-.6-.3-.6-.7zm.2 2h.8v7.6h-.8V4.9zm6.7-.2c1.3 0 2.1.5 2.7 1.3l-.6.5c-.6-.8-1.2-1.1-2.1-1.1c-1.8 0-2.9 1.5-2.9 3.3c0 1.8 1.1 3.3 2.9 3.3c.9 0 1.5-.3 2.1-1.1l.6.5c-.6.8-1.4 1.3-2.7 1.3c-2.3 0-3.8-1.8-3.8-4c0-2.2 1.5-4 3.8-4zm7.8 0c2.3 0 3.6 1.8 3.6 4.1v.2s-6.41-.03-6.4 0c.1 1.6 1.2 3 3 3c1 0 1.8-.3 2.5-1l.4.5c-.7.8-1.7 1.2-3 1.2c-2.2 0-3.8-1.6-3.8-4c0-2.2 1.6-4 3.7-4zm-2.8 3.6h5.6c0-1.3-.9-2.9-2.8-2.9c-1.8 0-2.7 1.6-2.8 2.9zm15.1-6.7h.7l-3.7 11.3h-.7l3.7-11.3zm6.2 8.8c.7.8 1.8 1.5 3.3 1.5c2.2 0 2.8-1.2 2.8-2.1c0-1.5-1.5-1.9-2.9-2.3c-1.7-.5-3.5-.9-3.5-2.9c0-1.7 1.6-2.8 3.5-2.8c1.6 0 2.8.5 3.6 1.5l-.6.6c-.8-.9-1.9-1.3-3-1.3c-1.5 0-2.5.8-2.5 2c0 1.2 1.3 1.6 2.7 2c1.7.5 3.6 1 3.6 3.2c0 1.3-.9 2.9-3.7 2.9c-1.8 0-3.1-.7-3.9-1.6l.6-.7zM83.8 2h6.7v.8h-5.8v3.9h5.7v.8h-5.7v5h-.9V2zm7.8 8.3l6.1-3.1l-6.1-3.1v-.8l6.9 3.6v.6l-6.9 3.6v-.8zm7.8 0l6.2-3.1l-6.2-3.1v-.8l7 3.6v.6l-7 3.6v-.8z" stroke="none" fill="#000"/></g></svg>