<?xml version="1.0" standalone="no"?><!DOCTYPE svg PUBLIC "-//W3C//DTD SVG 1.1//EN" "http://www.w3.org/Graphics/SVG/1.1/DTD/svg11.dtd"><svg xmlns="http://www.w3.org/2000/svg" xmlns:xlink="http://www.w3.org/1999/xlink" version="1.1" width="77px" height="25.9px" viewBox="0 -8 77 25.9" style="top:-8px"><desc/><defs/><g id="Polygon88585"><path d="m2.7 3.9l4-2v.4L3.2 4.1l3.5 1.8v.4l-4-2v-.4zm4.5 0l3.9-2v.4L7.7 4.1l3.4 1.8v.4l-3.9-2v-.4zm4.7 2.8c2-1.7 3.4-2.8 3.4-4c0-.9-.7-1.2-1.4-1.2c-.7 0-1.3.3-1.6.8l-.4-.4c.5-.5 1.2-.9 2-.9c.9 0 1.9.5 1.9 1.7c0 1.3-1.4 2.5-3.1 3.9c0 .04 3.2 0 3.2 0v.5h-4v-.4zM19.4 1c1.6 0 2.2 1.7 2.2 3.1c0 1.4-.6 3.1-2.2 3.1c-1.6 0-2.2-1.7-2.2-3.1c0-1.4.6-3.1 2.2-3.1zm0 .5c-1.3 0-1.7 1.4-1.7 2.6c0 1.2.4 2.7 1.7 2.7c1.2 0 1.6-1.5 1.6-2.7c0-1.2-.4-2.6-1.6-2.6zm4.2.3l-.9 1l-.4-.3l1.4-1.4h.4v6h-.5V1.8zM26.9 4c-.7-.2-1.4-.6-1.4-1.4c0-1.1 1-1.6 2-1.6c.9 0 1.9.5 1.9 1.6c0 .8-.7 1.2-1.4 1.4c.8.2 1.5.8 1.5 1.6c0 1-.9 1.6-2 1.6c-1.2 0-2.1-.6-2.1-1.6c0-.8.7-1.4 1.5-1.6zm.6-2.5c-.8 0-1.5.4-1.5 1.1c0 .9 1.1 1.1 1.5 1.2c.3-.1 1.4-.3 1.4-1.2c0-.7-.7-1.1-1.4-1.1zm0 2.7c-.4.1-1.6.5-1.6 1.4c0 .7.8 1.2 1.6 1.2c.7 0 1.5-.5 1.5-1.2c0-.9-1.2-1.3-1.5-1.4zm5.6-3.1h3.8v.5h-3.3v2.2h3.2v.5h-3.2v2.3h3.3v.5h-3.8v-6zm5 5.1c.2.3.7.6 1.4.6c.7 0 1.1-.3 1.1-.8c0-.6-.6-.8-1.2-.9c-.7-.2-1.5-.4-1.5-1.2c0-.7.5-1.2 1.5-1.2c.8 0 1.3.2 1.6.6l-.3.3c-.2-.3-.7-.5-1.3-.5c-.7 0-1.1.3-1.1.7c0 .5.6.7 1.2.8c.7.2 1.6.4 1.6 1.3c0 .7-.6 1.3-1.7 1.3c-.7 0-1.2-.2-1.6-.7l.3-.3zm4.3.1c-.03-.03 0-3.1 0-3.1h-.7v-.4h.7V1.6h.4v1.2h.9v.4h-.9s.05 3 0 3c0 .4.2.6.5.6c.2 0 .4-.1.5-.2l.2.3c-.2.2-.4.3-.8.3c-.5 0-.8-.3-.8-.9zm2.2-4.6c0-.2.2-.4.4-.4c.2 0 .4.2.4.4c0 .2-.2.3-.4.3c-.2 0-.4-.1-.4-.3zm.2 1.1h.4v4.3h-.4V2.8zm7.1 1.3c0-.6-.3-1-.9-1c-.5 0-1 .3-1.3.7c.04.02 0 3.3 0 3.3h-.4s-.03-3.03 0-3c0-.6-.3-1-.9-1c-.5 0-1 .3-1.2.7c-.05.02 0 3.3 0 3.3h-.5V2.8h.5s-.05.62 0 .6c.1-.3.7-.7 1.4-.7c.6 0 1 .4 1.1.8c.2-.4.8-.8 1.4-.8c.8 0 1.2.4 1.2 1.3c.03-.02 0 3.1 0 3.1h-.4s-.04-3.03 0-3zm4.6 2.5c-.3.4-.8.6-1.4.6c-.8 0-1.5-.5-1.5-1.4c0-1 .7-1.5 1.5-1.5c.6 0 1.1.2 1.4.6v-.8c0-.7-.5-1-1.1-1c-.6 0-1 .2-1.4.6l-.2-.3c.4-.5.9-.7 1.6-.7c.9 0 1.6.4 1.6 1.4c.02-.05 0 3 0 3h-.5s.05-.5 0-.5zm0-1.3c-.3-.4-.7-.6-1.3-.6c-.7 0-1.2.5-1.2 1.1c0 .6.5 1 1.2 1c.6 0 1-.1 1.3-.5v-1zm2.1 1c-.04-.03 0-3.1 0-3.1h-.8v-.4h.8V1.6h.4v1.2h.9v.4h-.9s.04 3 0 3c0 .4.2.6.5.6c.2 0 .4-.1.5-.2l.2.3c-.2.2-.4.3-.8.3c-.6 0-.8-.3-.8-.9zm4.2-3.6c1.3 0 2 1 2 2.3c.05-.04 0 .1 0 .1c0 0-3.59-.02-3.6 0c.1.9.7 1.7 1.7 1.7c.6 0 1.1-.2 1.4-.6l.3.3c-.5.5-1 .7-1.7.7c-1.3 0-2.2-.9-2.2-2.3c0-1.2.9-2.2 2.1-2.2zm-1.6 2h3.2c0-.7-.5-1.6-1.6-1.6c-1 0-1.6.9-1.6 1.6zm6.7 0h2.2v.4h-2.2v-.4zm5.4 1.2c.4.5.9.9 1.7.9c.9 0 1.5-.5 1.5-1.3c0-.9-.7-1.2-1.6-1.2h-.5v-.5h.5c.8 0 1.5-.4 1.5-1.2c0-.7-.6-1.1-1.4-1.1c-.7 0-1.2.3-1.6.7l-.3-.3c.4-.5 1-.9 1.9-.9c1.1 0 1.9.6 1.9 1.6c0 .9-.7 1.3-1.2 1.4c.5.1 1.3.5 1.3 1.5c0 1-.7 1.7-2 1.7c-1 0-1.7-.4-2-1l.3-.3z" stroke="none" fill="#000"/><a xlink:href="DBF_2018%20Estimate%20-%203%20Mile" xlink:show="new" xlink:title="&lt;&lt;2018 Estimate - 3 Mile&gt;&gt;"><rect style="fill:transparent;" x="2" y="0" width="75" height="7"/></a></g></svg>