<?xml version="1.0" standalone="no"?>
<!DOCTYPE svg PUBLIC "-//W3C//DTD SVG 1.1//EN" "http://www.w3.org/Graphics/SVG/1.1/DTD/svg11.dtd">
<svg xmlns="http://www.w3.org/2000/svg" version="1.1" width="86px" height="124.9px" viewBox="0 -4 86 124.9" style="top:-4px">
  <desc>Investment Summary Lease Summary Retail Aerial Site Plan Rent Schedule About the Brand Location Overview</desc>
  <defs/>
  <g id="Polygon263468">
    <path d="M 0.7 109.1 L 1.6 109.1 L 1.6 114.3 L 4.3 114.3 L 4.3 115.1 L 0.7 115.1 L 0.7 109.1 Z M 4.7 112.9 C 4.7 111.7 5.6 110.7 6.9 110.7 C 8.3 110.7 9.1 111.7 9.1 112.9 C 9.1 114.2 8.3 115.2 6.9 115.2 C 5.6 115.2 4.7 114.2 4.7 112.9 Z M 8.3 112.9 C 8.3 112.1 7.8 111.4 6.9 111.4 C 6.1 111.4 5.6 112.1 5.6 112.9 C 5.6 113.8 6.1 114.5 6.9 114.5 C 7.8 114.5 8.3 113.8 8.3 112.9 Z M 12 110.7 C 12.8 110.7 13.3 111 13.6 111.4 C 13.6 111.4 13.1 111.9 13.1 111.9 C 12.8 111.5 12.5 111.4 12.1 111.4 C 11.2 111.4 10.6 112 10.6 112.9 C 10.6 113.8 11.2 114.5 12.1 114.5 C 12.5 114.5 12.8 114.3 13.1 114 C 13.1 114 13.6 114.5 13.6 114.5 C 13.3 114.9 12.8 115.2 12 115.2 C 10.7 115.2 9.8 114.2 9.8 112.9 C 9.8 111.6 10.7 110.7 12 110.7 Z M 17.1 114.6 C 16.8 115 16.3 115.2 15.7 115.2 C 15 115.2 14.2 114.7 14.2 113.8 C 14.2 112.8 15 112.4 15.7 112.4 C 16.3 112.4 16.8 112.5 17.1 112.9 C 17.1 112.9 17.1 112.2 17.1 112.2 C 17.1 111.7 16.7 111.3 16.1 111.3 C 15.6 111.3 15.1 111.5 14.8 111.9 C 14.8 111.9 14.4 111.4 14.4 111.4 C 14.9 110.9 15.5 110.7 16.2 110.7 C 17.1 110.7 17.9 111.1 17.9 112.2 C 17.94 112.18 17.9 115.1 17.9 115.1 L 17.1 115.1 C 17.1 115.1 17.13 114.63 17.1 114.6 Z M 17.1 113.4 C 16.9 113.1 16.5 112.9 16 112.9 C 15.4 112.9 15 113.3 15 113.8 C 15 114.3 15.4 114.7 16 114.7 C 16.5 114.7 16.9 114.5 17.1 114.2 C 17.1 114.2 17.1 113.4 17.1 113.4 Z M 19.3 114.1 C 19.31 114.15 19.3 111.5 19.3 111.5 L 18.6 111.5 L 18.6 110.8 L 19.3 110.8 L 19.3 109.6 L 20.1 109.6 L 20.1 110.8 L 21 110.8 L 21 111.5 L 20.1 111.5 C 20.1 111.5 20.11 113.97 20.1 114 C 20.1 114.3 20.3 114.5 20.5 114.5 C 20.7 114.5 20.9 114.4 21 114.3 C 21 114.3 21.2 114.9 21.2 114.9 C 21 115.1 20.8 115.2 20.3 115.2 C 19.7 115.2 19.3 114.8 19.3 114.1 Z M 21.7 109.5 C 21.7 109.2 21.9 109 22.2 109 C 22.5 109 22.7 109.2 22.7 109.5 C 22.7 109.8 22.5 110 22.2 110 C 21.9 110 21.7 109.8 21.7 109.5 Z M 21.8 110.8 L 22.6 110.8 L 22.6 115.1 L 21.8 115.1 L 21.8 110.8 Z M 23.5 112.9 C 23.5 111.7 24.4 110.7 25.7 110.7 C 27.1 110.7 27.9 111.7 27.9 112.9 C 27.9 114.2 27.1 115.2 25.7 115.2 C 24.4 115.2 23.5 114.2 23.5 112.9 Z M 27.1 112.9 C 27.1 112.1 26.6 111.4 25.7 111.4 C 24.9 111.4 24.4 112.1 24.4 112.9 C 24.4 113.8 24.9 114.5 25.7 114.5 C 26.6 114.5 27.1 113.8 27.1 112.9 Z M 31.8 112.3 C 31.8 111.6 31.4 111.4 30.9 111.4 C 30.4 111.4 29.9 111.7 29.7 112 C 29.68 112 29.7 115.1 29.7 115.1 L 28.9 115.1 L 28.9 110.8 L 29.7 110.8 C 29.7 110.8 29.68 111.37 29.7 111.4 C 30 111 30.5 110.7 31.2 110.7 C 32.1 110.7 32.6 111.1 32.6 112.1 C 32.61 112.06 32.6 115.1 32.6 115.1 L 31.8 115.1 C 31.8 115.1 31.81 112.33 31.8 112.3 Z M 38.8 109 C 40.6 109 41.9 110.3 41.9 112.1 C 41.9 113.9 40.6 115.2 38.8 115.2 C 37 115.2 35.8 113.9 35.8 112.1 C 35.8 110.3 37 109 38.8 109 Z M 38.8 109.8 C 37.5 109.8 36.7 110.8 36.7 112.1 C 36.7 113.4 37.5 114.4 38.8 114.4 C 40.1 114.4 40.9 113.4 40.9 112.1 C 40.9 110.8 40.1 109.8 38.8 109.8 Z M 42.2 110.8 L 43.1 110.8 L 44.4 114.2 L 45.8 110.8 L 46.7 110.8 L 44.9 115.1 L 44 115.1 L 42.2 110.8 Z M 49.1 110.7 C 50.4 110.7 51.2 111.7 51.2 113 C 51.24 113 51.2 113.2 51.2 113.2 C 51.2 113.2 47.81 113.2 47.8 113.2 C 47.9 113.9 48.4 114.6 49.3 114.6 C 49.7 114.6 50.2 114.4 50.6 114 C 50.6 114 50.9 114.6 50.9 114.6 C 50.5 115 49.9 115.2 49.2 115.2 C 47.9 115.2 47 114.3 47 112.9 C 47 111.7 47.9 110.7 49.1 110.7 Z M 47.8 112.6 C 47.8 112.6 50.5 112.6 50.5 112.6 C 50.4 112 50 111.3 49.1 111.3 C 48.3 111.3 47.8 112 47.8 112.6 Z M 52.2 110.8 L 53 110.8 C 53 110.8 52.98 111.43 53 111.4 C 53.3 111 53.8 110.7 54.4 110.7 C 54.4 110.7 54.4 111.5 54.4 111.5 C 54.3 111.5 54.2 111.5 54.1 111.5 C 53.7 111.5 53.2 111.8 53 112.1 C 52.98 112.09 53 115.1 53 115.1 L 52.2 115.1 L 52.2 110.8 Z M 54.5 110.8 L 55.3 110.8 L 56.7 114.2 L 58.1 110.8 L 58.9 110.8 L 57.1 115.1 L 56.3 115.1 L 54.5 110.8 Z M 59.4 109.5 C 59.4 109.2 59.6 109 59.9 109 C 60.2 109 60.4 109.2 60.4 109.5 C 60.4 109.8 60.2 110 59.9 110 C 59.6 110 59.4 109.8 59.4 109.5 Z M 59.5 110.8 L 60.3 110.8 L 60.3 115.1 L 59.5 115.1 L 59.5 110.8 Z M 63.4 110.7 C 64.7 110.7 65.5 111.7 65.5 113 C 65.54 113 65.5 113.2 65.5 113.2 C 65.5 113.2 62.1 113.2 62.1 113.2 C 62.2 113.9 62.7 114.6 63.6 114.6 C 64 114.6 64.5 114.4 64.9 114 C 64.9 114 65.2 114.6 65.2 114.6 C 64.8 115 64.2 115.2 63.5 115.2 C 62.2 115.2 61.2 114.3 61.2 112.9 C 61.2 111.7 62.2 110.7 63.4 110.7 Z M 62.1 112.6 C 62.1 112.6 64.7 112.6 64.7 112.6 C 64.7 112 64.3 111.3 63.4 111.3 C 62.5 111.3 62.1 112 62.1 112.6 Z M 69.2 111.8 L 68.1 115.1 L 67.3 115.1 L 65.9 110.8 L 66.7 110.8 L 67.7 114.1 L 68.8 110.8 L 69.5 110.8 L 70.6 114.1 L 71.6 110.8 L 72.4 110.8 L 71.1 115.1 L 70.2 115.1 L 69.2 111.8 Z " stroke="none" fill="#242423"/>
  </g>
  <g id="Polygon263467">
    <path d="M 4.5 95.9 L 1.5 95.9 L 1 97.1 L 0 97.1 L 2.4 91.1 L 3.6 91.1 L 5.9 97.1 L 4.9 97.1 L 4.5 95.9 Z M 1.8 95.1 L 4.2 95.1 L 3 91.9 L 1.8 95.1 Z M 6.6 91.1 L 7.4 91.1 C 7.4 91.1 7.36 93.39 7.4 93.4 C 7.7 92.9 8.2 92.7 8.8 92.7 C 9.9 92.7 10.7 93.5 10.7 94.9 C 10.7 96.4 9.9 97.2 8.8 97.2 C 8.2 97.2 7.7 96.9 7.4 96.5 C 7.36 96.49 7.4 97.1 7.4 97.1 L 6.6 97.1 L 6.6 91.1 Z M 8.6 96.5 C 9.4 96.5 9.9 95.9 9.9 94.9 C 9.9 94 9.4 93.4 8.6 93.4 C 8.1 93.4 7.6 93.7 7.4 94 C 7.4 94 7.4 95.9 7.4 95.9 C 7.6 96.2 8.1 96.5 8.6 96.5 Z M 11.4 94.9 C 11.4 93.7 12.2 92.7 13.6 92.7 C 14.9 92.7 15.8 93.7 15.8 94.9 C 15.8 96.2 14.9 97.2 13.6 97.2 C 12.2 97.2 11.4 96.2 11.4 94.9 Z M 14.9 94.9 C 14.9 94.1 14.5 93.4 13.6 93.4 C 12.7 93.4 12.2 94.1 12.2 94.9 C 12.2 95.8 12.7 96.5 13.6 96.5 C 14.5 96.5 14.9 95.8 14.9 94.9 Z M 19.7 96.5 C 19.3 96.9 18.8 97.2 18.1 97.2 C 17.2 97.2 16.7 96.8 16.7 95.8 C 16.72 95.83 16.7 92.8 16.7 92.8 L 17.5 92.8 C 17.5 92.8 17.53 95.56 17.5 95.6 C 17.5 96.3 17.9 96.5 18.4 96.5 C 19 96.5 19.4 96.2 19.7 95.9 C 19.66 95.89 19.7 92.8 19.7 92.8 L 20.5 92.8 L 20.5 97.1 L 19.7 97.1 C 19.7 97.1 19.66 96.52 19.7 96.5 Z M 21.8 96.1 C 21.83 96.15 21.8 93.5 21.8 93.5 L 21.1 93.5 L 21.1 92.8 L 21.8 92.8 L 21.8 91.6 L 22.6 91.6 L 22.6 92.8 L 23.5 92.8 L 23.5 93.5 L 22.6 93.5 C 22.6 93.5 22.63 95.97 22.6 96 C 22.6 96.3 22.8 96.5 23.1 96.5 C 23.2 96.5 23.4 96.4 23.5 96.3 C 23.5 96.3 23.7 96.9 23.7 96.9 C 23.5 97.1 23.3 97.2 22.9 97.2 C 22.2 97.2 21.8 96.8 21.8 96.1 Z M 26.7 96.1 C 26.72 96.15 26.7 93.5 26.7 93.5 L 26 93.5 L 26 92.8 L 26.7 92.8 L 26.7 91.6 L 27.5 91.6 L 27.5 92.8 L 28.4 92.8 L 28.4 93.5 L 27.5 93.5 C 27.5 93.5 27.53 95.97 27.5 96 C 27.5 96.3 27.7 96.5 28 96.5 C 28.1 96.5 28.3 96.4 28.4 96.3 C 28.4 96.3 28.6 96.9 28.6 96.9 C 28.4 97.1 28.2 97.2 27.8 97.2 C 27.1 97.2 26.7 96.8 26.7 96.1 Z M 32.2 94.3 C 32.2 93.6 31.8 93.4 31.2 93.4 C 30.7 93.4 30.3 93.7 30 94 C 30.03 94 30 97.1 30 97.1 L 29.2 97.1 L 29.2 91.1 L 30 91.1 C 30 91.1 30.03 93.37 30 93.4 C 30.3 93 30.9 92.7 31.6 92.7 C 32.5 92.7 33 93.1 33 94 C 32.97 94.04 33 97.1 33 97.1 L 32.2 97.1 C 32.2 97.1 32.16 94.31 32.2 94.3 Z M 36.1 92.7 C 37.4 92.7 38.2 93.7 38.2 95 C 38.19 95 38.2 95.2 38.2 95.2 C 38.2 95.2 34.76 95.2 34.8 95.2 C 34.8 95.9 35.4 96.6 36.2 96.6 C 36.7 96.6 37.2 96.4 37.5 96 C 37.5 96 37.9 96.6 37.9 96.6 C 37.5 97 36.9 97.2 36.2 97.2 C 34.9 97.2 33.9 96.3 33.9 94.9 C 33.9 93.7 34.8 92.7 36.1 92.7 Z M 34.7 94.6 C 34.7 94.6 37.4 94.6 37.4 94.6 C 37.4 94 37 93.3 36.1 93.3 C 35.2 93.3 34.8 94 34.7 94.6 Z M 41.4 91.1 C 41.4 91.1 44.19 91.11 44.2 91.1 C 45.3 91.1 45.9 91.8 45.9 92.6 C 45.9 93.4 45.4 93.9 44.8 94 C 45.5 94.1 46 94.8 46 95.5 C 46 96.4 45.4 97.1 44.3 97.1 C 44.26 97.11 41.4 97.1 41.4 97.1 L 41.4 91.1 Z M 44 93.7 C 44.6 93.7 45 93.3 45 92.8 C 45 92.3 44.6 91.9 44 91.9 C 44.02 91.9 42.3 91.9 42.3 91.9 L 42.3 93.7 C 42.3 93.7 44.02 93.65 44 93.7 Z M 44.1 96.3 C 44.7 96.3 45.1 96 45.1 95.4 C 45.1 94.9 44.7 94.4 44.1 94.4 C 44.06 94.45 42.3 94.4 42.3 94.4 L 42.3 96.3 C 42.3 96.3 44.06 96.32 44.1 96.3 Z M 47 92.8 L 47.8 92.8 C 47.8 92.8 47.82 93.43 47.8 93.4 C 48.1 93 48.7 92.7 49.2 92.7 C 49.2 92.7 49.2 93.5 49.2 93.5 C 49.2 93.5 49.1 93.5 49 93.5 C 48.6 93.5 48 93.8 47.8 94.1 C 47.82 94.09 47.8 97.1 47.8 97.1 L 47 97.1 L 47 92.8 Z M 52.6 96.6 C 52.3 97 51.8 97.2 51.2 97.2 C 50.5 97.2 49.7 96.7 49.7 95.8 C 49.7 94.8 50.5 94.4 51.2 94.4 C 51.8 94.4 52.3 94.5 52.6 94.9 C 52.6 94.9 52.6 94.2 52.6 94.2 C 52.6 93.7 52.2 93.3 51.6 93.3 C 51.1 93.3 50.7 93.5 50.3 93.9 C 50.3 93.9 49.9 93.4 49.9 93.4 C 50.4 92.9 51 92.7 51.7 92.7 C 52.6 92.7 53.4 93.1 53.4 94.2 C 53.45 94.18 53.4 97.1 53.4 97.1 L 52.6 97.1 C 52.6 97.1 52.64 96.63 52.6 96.6 Z M 52.6 95.4 C 52.4 95.1 52 94.9 51.5 94.9 C 50.9 94.9 50.5 95.3 50.5 95.8 C 50.5 96.3 50.9 96.7 51.5 96.7 C 52 96.7 52.4 96.5 52.6 96.2 C 52.6 96.2 52.6 95.4 52.6 95.4 Z M 57.6 94.3 C 57.6 93.6 57.2 93.4 56.7 93.4 C 56.2 93.4 55.7 93.7 55.5 94 C 55.47 94 55.5 97.1 55.5 97.1 L 54.7 97.1 L 54.7 92.8 L 55.5 92.8 C 55.5 92.8 55.47 93.37 55.5 93.4 C 55.8 93 56.3 92.7 57 92.7 C 57.9 92.7 58.4 93.1 58.4 94.1 C 58.4 94.06 58.4 97.1 58.4 97.1 L 57.6 97.1 C 57.6 97.1 57.59 94.33 57.6 94.3 Z M 62.7 96.5 C 62.4 96.9 61.8 97.2 61.3 97.2 C 60.1 97.2 59.3 96.4 59.3 94.9 C 59.3 93.5 60.1 92.7 61.3 92.7 C 61.8 92.7 62.3 92.9 62.7 93.4 C 62.69 93.39 62.7 91.1 62.7 91.1 L 63.5 91.1 L 63.5 97.1 L 62.7 97.1 C 62.7 97.1 62.69 96.49 62.7 96.5 Z M 62.7 94 C 62.5 93.7 62 93.4 61.5 93.4 C 60.7 93.4 60.2 94 60.2 94.9 C 60.2 95.8 60.7 96.5 61.5 96.5 C 62 96.5 62.5 96.2 62.7 95.9 C 62.7 95.9 62.7 94 62.7 94 Z " stroke="none" fill="#242423"/>
  </g>
  <g id="Polygon263466">
    <path d="M 2.7 76.8 L 1.6 76.8 L 1.6 79.1 L 0.7 79.1 L 0.7 73.1 C 0.7 73.1 3.2 73.11 3.2 73.1 C 4.3 73.1 5.1 73.8 5.1 75 C 5.1 76 4.4 76.6 3.6 76.7 C 3.63 76.71 5.2 79.1 5.2 79.1 L 4.1 79.1 L 2.7 76.8 Z M 3.1 73.9 C 3.08 73.9 1.6 73.9 1.6 73.9 L 1.6 76 C 1.6 76 3.08 76.01 3.1 76 C 3.7 76 4.2 75.6 4.2 75 C 4.2 74.3 3.7 73.9 3.1 73.9 Z M 7.8 74.7 C 9.1 74.7 9.9 75.7 9.9 77 C 9.87 77 9.9 77.2 9.9 77.2 C 9.9 77.2 6.43 77.2 6.4 77.2 C 6.5 77.9 7 78.6 7.9 78.6 C 8.4 78.6 8.9 78.4 9.2 78 C 9.2 78 9.6 78.6 9.6 78.6 C 9.1 79 8.5 79.2 7.8 79.2 C 6.5 79.2 5.6 78.3 5.6 76.9 C 5.6 75.7 6.5 74.7 7.8 74.7 Z M 6.4 76.6 C 6.4 76.6 9.1 76.6 9.1 76.6 C 9.1 76 8.7 75.3 7.8 75.3 C 6.9 75.3 6.5 76 6.4 76.6 Z M 13.7 76.3 C 13.7 75.6 13.4 75.4 12.8 75.4 C 12.3 75.4 11.8 75.7 11.6 76 C 11.61 76 11.6 79.1 11.6 79.1 L 10.8 79.1 L 10.8 74.8 L 11.6 74.8 C 11.6 74.8 11.61 75.37 11.6 75.4 C 11.9 75 12.5 74.7 13.1 74.7 C 14.1 74.7 14.5 75.1 14.5 76.1 C 14.54 76.06 14.5 79.1 14.5 79.1 L 13.7 79.1 C 13.7 79.1 13.73 76.33 13.7 76.3 Z M 15.9 78.1 C 15.9 78.15 15.9 75.5 15.9 75.5 L 15.2 75.5 L 15.2 74.8 L 15.9 74.8 L 15.9 73.6 L 16.7 73.6 L 16.7 74.8 L 17.6 74.8 L 17.6 75.5 L 16.7 75.5 C 16.7 75.5 16.71 77.97 16.7 78 C 16.7 78.3 16.9 78.5 17.1 78.5 C 17.3 78.5 17.5 78.4 17.6 78.3 C 17.6 78.3 17.8 78.9 17.8 78.9 C 17.6 79.1 17.4 79.2 16.9 79.2 C 16.3 79.2 15.9 78.8 15.9 78.1 Z M 20.8 77.6 C 21.2 78 21.9 78.4 22.7 78.4 C 23.7 78.4 24 77.9 24 77.5 C 24 76.9 23.3 76.7 22.6 76.5 C 21.6 76.2 20.5 76 20.5 74.7 C 20.5 73.7 21.3 73 22.6 73 C 23.5 73 24.3 73.3 24.8 73.9 C 24.8 73.9 24.3 74.5 24.3 74.5 C 23.8 74 23.2 73.8 22.5 73.8 C 21.9 73.8 21.4 74.2 21.4 74.7 C 21.4 75.2 22 75.4 22.8 75.6 C 23.8 75.8 24.9 76.1 24.9 77.4 C 24.9 78.3 24.3 79.2 22.7 79.2 C 21.6 79.2 20.8 78.8 20.3 78.3 C 20.3 78.3 20.8 77.6 20.8 77.6 Z M 27.8 74.7 C 28.6 74.7 29.1 75 29.4 75.4 C 29.4 75.4 28.9 75.9 28.9 75.9 C 28.6 75.5 28.3 75.4 27.8 75.4 C 27 75.4 26.4 76 26.4 76.9 C 26.4 77.8 27 78.5 27.8 78.5 C 28.3 78.5 28.6 78.3 28.9 78 C 28.9 78 29.4 78.5 29.4 78.5 C 29.1 78.9 28.6 79.2 27.8 79.2 C 26.5 79.2 25.6 78.2 25.6 76.9 C 25.6 75.6 26.5 74.7 27.8 74.7 Z M 33.2 76.3 C 33.2 75.6 32.8 75.4 32.2 75.4 C 31.7 75.4 31.3 75.7 31 76 C 31.04 76 31 79.1 31 79.1 L 30.2 79.1 L 30.2 73.1 L 31 73.1 C 31 73.1 31.04 75.37 31 75.4 C 31.3 75 31.9 74.7 32.6 74.7 C 33.5 74.7 34 75.1 34 76 C 33.97 76.04 34 79.1 34 79.1 L 33.2 79.1 C 33.2 79.1 33.17 76.31 33.2 76.3 Z M 37.1 74.7 C 38.4 74.7 39.2 75.7 39.2 77 C 39.2 77 39.2 77.2 39.2 77.2 C 39.2 77.2 35.77 77.2 35.8 77.2 C 35.8 77.9 36.4 78.6 37.2 78.6 C 37.7 78.6 38.2 78.4 38.5 78 C 38.5 78 38.9 78.6 38.9 78.6 C 38.5 79 37.9 79.2 37.2 79.2 C 35.9 79.2 34.9 78.3 34.9 76.9 C 34.9 75.7 35.8 74.7 37.1 74.7 Z M 35.8 76.6 C 35.8 76.6 38.4 76.6 38.4 76.6 C 38.4 76 38 75.3 37.1 75.3 C 36.2 75.3 35.8 76 35.8 76.6 Z M 43.2 78.5 C 42.9 78.9 42.4 79.2 41.8 79.2 C 40.7 79.2 39.9 78.4 39.9 76.9 C 39.9 75.5 40.7 74.7 41.8 74.7 C 42.4 74.7 42.9 74.9 43.2 75.4 C 43.23 75.39 43.2 73.1 43.2 73.1 L 44 73.1 L 44 79.1 L 43.2 79.1 C 43.2 79.1 43.23 78.49 43.2 78.5 Z M 43.2 76 C 43 75.7 42.5 75.4 42 75.4 C 41.2 75.4 40.7 76 40.7 76.9 C 40.7 77.8 41.2 78.5 42 78.5 C 42.5 78.5 43 78.2 43.2 77.9 C 43.2 77.9 43.2 76 43.2 76 Z M 48.2 78.5 C 47.8 78.9 47.3 79.2 46.6 79.2 C 45.7 79.2 45.2 78.8 45.2 77.8 C 45.24 77.83 45.2 74.8 45.2 74.8 L 46.1 74.8 C 46.1 74.8 46.05 77.56 46.1 77.6 C 46.1 78.3 46.4 78.5 47 78.5 C 47.5 78.5 47.9 78.2 48.2 77.9 C 48.18 77.89 48.2 74.8 48.2 74.8 L 49 74.8 L 49 79.1 L 48.2 79.1 C 48.2 79.1 48.18 78.52 48.2 78.5 Z M 50.2 73.1 L 51 73.1 L 51 79.1 L 50.2 79.1 L 50.2 73.1 Z M 54.1 74.7 C 55.4 74.7 56.2 75.7 56.2 77 C 56.21 77 56.2 77.2 56.2 77.2 C 56.2 77.2 52.77 77.2 52.8 77.2 C 52.8 77.9 53.4 78.6 54.3 78.6 C 54.7 78.6 55.2 78.4 55.5 78 C 55.5 78 55.9 78.6 55.9 78.6 C 55.5 79 54.9 79.2 54.2 79.2 C 52.9 79.2 51.9 78.3 51.9 76.9 C 51.9 75.7 52.8 74.7 54.1 74.7 Z M 52.8 76.6 C 52.8 76.6 55.4 76.6 55.4 76.6 C 55.4 76 55 75.3 54.1 75.3 C 53.2 75.3 52.8 76 52.8 76.6 Z " stroke="none" fill="#242423"/>
  </g>
  <g id="Polygon263465">
    <path d="M 0.8 59.6 C 1.2 60 1.9 60.4 2.7 60.4 C 3.7 60.4 4 59.9 4 59.5 C 4 58.9 3.3 58.7 2.6 58.5 C 1.6 58.2 0.5 58 0.5 56.7 C 0.5 55.7 1.4 55 2.6 55 C 3.5 55 4.3 55.3 4.8 55.9 C 4.8 55.9 4.3 56.5 4.3 56.5 C 3.8 56 3.2 55.8 2.5 55.8 C 1.9 55.8 1.4 56.2 1.4 56.7 C 1.4 57.2 2.1 57.4 2.8 57.6 C 3.8 57.8 4.9 58.1 4.9 59.4 C 4.9 60.3 4.3 61.2 2.7 61.2 C 1.6 61.2 0.8 60.8 0.3 60.3 C 0.3 60.3 0.8 59.6 0.8 59.6 Z M 5.7 55.5 C 5.7 55.2 6 55 6.3 55 C 6.6 55 6.8 55.2 6.8 55.5 C 6.8 55.8 6.6 56 6.3 56 C 6 56 5.7 55.8 5.7 55.5 Z M 5.9 56.8 L 6.7 56.8 L 6.7 61.1 L 5.9 61.1 L 5.9 56.8 Z M 8 60.1 C 8.04 60.15 8 57.5 8 57.5 L 7.3 57.5 L 7.3 56.8 L 8 56.8 L 8 55.6 L 8.8 55.6 L 8.8 56.8 L 9.7 56.8 L 9.7 57.5 L 8.8 57.5 C 8.8 57.5 8.85 59.97 8.8 60 C 8.8 60.3 9 60.5 9.3 60.5 C 9.5 60.5 9.6 60.4 9.7 60.3 C 9.7 60.3 9.9 60.9 9.9 60.9 C 9.7 61.1 9.5 61.2 9.1 61.2 C 8.4 61.2 8 60.8 8 60.1 Z M 12.4 56.7 C 13.8 56.7 14.6 57.7 14.6 59 C 14.56 59 14.6 59.2 14.6 59.2 C 14.6 59.2 11.12 59.2 11.1 59.2 C 11.2 59.9 11.7 60.6 12.6 60.6 C 13.1 60.6 13.6 60.4 13.9 60 C 13.9 60 14.3 60.6 14.3 60.6 C 13.8 61 13.2 61.2 12.5 61.2 C 11.2 61.2 10.3 60.3 10.3 58.9 C 10.3 57.7 11.2 56.7 12.4 56.7 Z M 11.1 58.6 C 11.1 58.6 13.8 58.6 13.8 58.6 C 13.8 58 13.4 57.3 12.4 57.3 C 11.6 57.3 11.2 58 11.1 58.6 Z M 17.7 55.1 C 17.7 55.1 20.27 55.11 20.3 55.1 C 21.5 55.1 22.2 56 22.2 57 C 22.2 58 21.5 58.8 20.3 58.8 C 20.27 58.8 18.6 58.8 18.6 58.8 L 18.6 61.1 L 17.7 61.1 L 17.7 55.1 Z M 20.2 55.9 C 20.15 55.9 18.6 55.9 18.6 55.9 L 18.6 58 C 18.6 58 20.15 58.01 20.2 58 C 20.8 58 21.3 57.6 21.3 57 C 21.3 56.3 20.8 55.9 20.2 55.9 Z M 23 55.1 L 23.8 55.1 L 23.8 61.1 L 23 61.1 L 23 55.1 Z M 27.7 60.6 C 27.4 61 26.9 61.2 26.3 61.2 C 25.5 61.2 24.8 60.7 24.8 59.8 C 24.8 58.8 25.5 58.4 26.3 58.4 C 26.9 58.4 27.4 58.5 27.7 58.9 C 27.7 58.9 27.7 58.2 27.7 58.2 C 27.7 57.7 27.3 57.3 26.6 57.3 C 26.1 57.3 25.7 57.5 25.3 57.9 C 25.3 57.9 25 57.4 25 57.4 C 25.5 56.9 26.1 56.7 26.8 56.7 C 27.7 56.7 28.5 57.1 28.5 58.2 C 28.5 58.18 28.5 61.1 28.5 61.1 L 27.7 61.1 C 27.7 61.1 27.69 60.63 27.7 60.6 Z M 27.7 59.4 C 27.4 59.1 27 58.9 26.6 58.9 C 26 58.9 25.6 59.3 25.6 59.8 C 25.6 60.3 26 60.7 26.6 60.7 C 27 60.7 27.4 60.5 27.7 60.2 C 27.7 60.2 27.7 59.4 27.7 59.4 Z M 32.6 58.3 C 32.6 57.6 32.3 57.4 31.7 57.4 C 31.2 57.4 30.8 57.7 30.5 58 C 30.52 58 30.5 61.1 30.5 61.1 L 29.7 61.1 L 29.7 56.8 L 30.5 56.8 C 30.5 56.8 30.52 57.37 30.5 57.4 C 30.8 57 31.4 56.7 32.1 56.7 C 33 56.7 33.5 57.1 33.5 58.1 C 33.45 58.06 33.5 61.1 33.5 61.1 L 32.6 61.1 C 32.6 61.1 32.64 58.33 32.6 58.3 Z " stroke="none" fill="#242423"/>
  </g>
  <g id="Polygon263464">
    <path d="M 2.7 40.8 L 1.6 40.8 L 1.6 43.1 L 0.7 43.1 L 0.7 37.1 C 0.7 37.1 3.2 37.11 3.2 37.1 C 4.3 37.1 5.1 37.8 5.1 39 C 5.1 40 4.4 40.6 3.6 40.7 C 3.63 40.71 5.2 43.1 5.2 43.1 L 4.1 43.1 L 2.7 40.8 Z M 3.1 37.9 C 3.08 37.9 1.6 37.9 1.6 37.9 L 1.6 40 C 1.6 40 3.08 40.01 3.1 40 C 3.7 40 4.2 39.6 4.2 39 C 4.2 38.3 3.7 37.9 3.1 37.9 Z M 7.8 38.7 C 9.1 38.7 9.9 39.7 9.9 41 C 9.87 41 9.9 41.2 9.9 41.2 C 9.9 41.2 6.43 41.2 6.4 41.2 C 6.5 41.9 7 42.6 7.9 42.6 C 8.4 42.6 8.9 42.4 9.2 42 C 9.2 42 9.6 42.6 9.6 42.6 C 9.1 43 8.5 43.2 7.8 43.2 C 6.5 43.2 5.6 42.3 5.6 40.9 C 5.6 39.7 6.5 38.7 7.8 38.7 Z M 6.4 40.6 C 6.4 40.6 9.1 40.6 9.1 40.6 C 9.1 40 8.7 39.3 7.8 39.3 C 6.9 39.3 6.5 40 6.4 40.6 Z M 11 42.1 C 10.96 42.15 11 39.5 11 39.5 L 10.2 39.5 L 10.2 38.8 L 11 38.8 L 11 37.6 L 11.8 37.6 L 11.8 38.8 L 12.7 38.8 L 12.7 39.5 L 11.8 39.5 C 11.8 39.5 11.77 41.97 11.8 42 C 11.8 42.3 11.9 42.5 12.2 42.5 C 12.4 42.5 12.6 42.4 12.6 42.3 C 12.6 42.3 12.8 42.9 12.8 42.9 C 12.7 43.1 12.4 43.2 12 43.2 C 11.3 43.2 11 42.8 11 42.1 Z M 16.1 42.6 C 15.8 43 15.3 43.2 14.7 43.2 C 14 43.2 13.2 42.7 13.2 41.8 C 13.2 40.8 14 40.4 14.7 40.4 C 15.3 40.4 15.8 40.5 16.1 40.9 C 16.1 40.9 16.1 40.2 16.1 40.2 C 16.1 39.7 15.7 39.3 15.1 39.3 C 14.6 39.3 14.2 39.5 13.8 39.9 C 13.8 39.9 13.4 39.4 13.4 39.4 C 13.9 38.9 14.5 38.7 15.2 38.7 C 16.2 38.7 17 39.1 17 40.2 C 16.96 40.18 17 43.1 17 43.1 L 16.1 43.1 C 16.1 43.1 16.15 42.63 16.1 42.6 Z M 16.1 41.4 C 15.9 41.1 15.5 40.9 15 40.9 C 14.4 40.9 14 41.3 14 41.8 C 14 42.3 14.4 42.7 15 42.7 C 15.5 42.7 15.9 42.5 16.1 42.2 C 16.1 42.2 16.1 41.4 16.1 41.4 Z M 18 37.5 C 18 37.2 18.3 37 18.6 37 C 18.8 37 19.1 37.2 19.1 37.5 C 19.1 37.8 18.8 38 18.6 38 C 18.3 38 18 37.8 18 37.5 Z M 18.2 38.8 L 19 38.8 L 19 43.1 L 18.2 43.1 L 18.2 38.8 Z M 20.2 37.1 L 21 37.1 L 21 43.1 L 20.2 43.1 L 20.2 37.1 Z M 28.2 41.9 L 25.3 41.9 L 24.8 43.1 L 23.8 43.1 L 26.2 37.1 L 27.3 37.1 L 29.7 43.1 L 28.7 43.1 L 28.2 41.9 Z M 25.5 41.1 L 28 41.1 L 26.7 37.9 L 25.5 41.1 Z M 32.2 38.7 C 33.5 38.7 34.3 39.7 34.3 41 C 34.33 41 34.3 41.2 34.3 41.2 C 34.3 41.2 30.9 41.2 30.9 41.2 C 31 41.9 31.5 42.6 32.4 42.6 C 32.8 42.6 33.3 42.4 33.7 42 C 33.7 42 34 42.6 34 42.6 C 33.6 43 33 43.2 32.3 43.2 C 31 43.2 30 42.3 30 40.9 C 30 39.7 30.9 38.7 32.2 38.7 Z M 30.9 40.6 C 30.9 40.6 33.5 40.6 33.5 40.6 C 33.5 40 33.1 39.3 32.2 39.3 C 31.3 39.3 30.9 40 30.9 40.6 Z M 35.3 38.8 L 36.1 38.8 C 36.1 38.8 36.07 39.43 36.1 39.4 C 36.4 39 36.9 38.7 37.5 38.7 C 37.5 38.7 37.5 39.5 37.5 39.5 C 37.4 39.5 37.3 39.5 37.2 39.5 C 36.8 39.5 36.3 39.8 36.1 40.1 C 36.07 40.09 36.1 43.1 36.1 43.1 L 35.3 43.1 L 35.3 38.8 Z M 38.1 37.5 C 38.1 37.2 38.3 37 38.6 37 C 38.9 37 39.1 37.2 39.1 37.5 C 39.1 37.8 38.9 38 38.6 38 C 38.3 38 38.1 37.8 38.1 37.5 Z M 38.2 38.8 L 39 38.8 L 39 43.1 L 38.2 43.1 L 38.2 38.8 Z M 42.9 42.6 C 42.6 43 42.1 43.2 41.5 43.2 C 40.8 43.2 40 42.7 40 41.8 C 40 40.8 40.8 40.4 41.5 40.4 C 42.1 40.4 42.6 40.5 42.9 40.9 C 42.9 40.9 42.9 40.2 42.9 40.2 C 42.9 39.7 42.5 39.3 41.8 39.3 C 41.3 39.3 40.9 39.5 40.5 39.9 C 40.5 39.9 40.2 39.4 40.2 39.4 C 40.7 38.9 41.3 38.7 42 38.7 C 42.9 38.7 43.7 39.1 43.7 40.2 C 43.71 40.18 43.7 43.1 43.7 43.1 L 42.9 43.1 C 42.9 43.1 42.9 42.63 42.9 42.6 Z M 42.9 41.4 C 42.7 41.1 42.2 40.9 41.8 40.9 C 41.2 40.9 40.8 41.3 40.8 41.8 C 40.8 42.3 41.2 42.7 41.8 42.7 C 42.2 42.7 42.7 42.5 42.9 42.2 C 42.9 42.2 42.9 41.4 42.9 41.4 Z M 44.9 37.1 L 45.7 37.1 L 45.7 43.1 L 44.9 43.1 L 44.9 37.1 Z " stroke="none" fill="#242423"/>
  </g>
  <g id="Polygon263463">
    <path d="M 0.7 19.1 L 1.6 19.1 L 1.6 24.3 L 4.3 24.3 L 4.3 25.1 L 0.7 25.1 L 0.7 19.1 Z M 6.9 20.7 C 8.2 20.7 9 21.7 9 23 C 9.04 23 9 23.2 9 23.2 C 9 23.2 5.6 23.2 5.6 23.2 C 5.7 23.9 6.2 24.6 7.1 24.6 C 7.5 24.6 8 24.4 8.4 24 C 8.4 24 8.7 24.6 8.7 24.6 C 8.3 25 7.7 25.2 7 25.2 C 5.7 25.2 4.7 24.3 4.7 22.9 C 4.7 21.7 5.7 20.7 6.9 20.7 Z M 5.6 22.6 C 5.6 22.6 8.2 22.6 8.2 22.6 C 8.2 22 7.8 21.3 6.9 21.3 C 6 21.3 5.6 22 5.6 22.6 Z M 12.6 24.6 C 12.3 25 11.8 25.2 11.2 25.2 C 10.5 25.2 9.7 24.7 9.7 23.8 C 9.7 22.8 10.5 22.4 11.2 22.4 C 11.8 22.4 12.3 22.5 12.6 22.9 C 12.6 22.9 12.6 22.2 12.6 22.2 C 12.6 21.7 12.2 21.3 11.6 21.3 C 11.1 21.3 10.7 21.5 10.3 21.9 C 10.3 21.9 9.9 21.4 9.9 21.4 C 10.4 20.9 11 20.7 11.7 20.7 C 12.7 20.7 13.5 21.1 13.5 22.2 C 13.45 22.18 13.5 25.1 13.5 25.1 L 12.6 25.1 C 12.6 25.1 12.65 24.63 12.6 24.6 Z M 12.6 23.4 C 12.4 23.1 12 22.9 11.5 22.9 C 10.9 22.9 10.5 23.3 10.5 23.8 C 10.5 24.3 10.9 24.7 11.5 24.7 C 12 24.7 12.4 24.5 12.6 24.2 C 12.6 24.2 12.6 23.4 12.6 23.4 Z M 14.7 23.9 C 15 24.3 15.5 24.6 16.1 24.6 C 16.7 24.6 17.1 24.3 17.1 23.9 C 17.1 23.5 16.6 23.4 16 23.2 C 15.3 23.1 14.4 22.9 14.4 21.9 C 14.4 21.2 15 20.7 16.1 20.7 C 16.8 20.7 17.4 20.9 17.7 21.3 C 17.7 21.3 17.4 21.8 17.4 21.8 C 17.1 21.5 16.6 21.3 16.1 21.3 C 15.5 21.3 15.2 21.5 15.2 21.9 C 15.2 22.3 15.7 22.4 16.2 22.5 C 16.9 22.7 17.8 22.9 17.8 23.9 C 17.8 24.6 17.2 25.2 16.1 25.2 C 15.4 25.2 14.7 25 14.3 24.5 C 14.3 24.5 14.7 23.9 14.7 23.9 Z M 20.7 20.7 C 22 20.7 22.8 21.7 22.8 23 C 22.81 23 22.8 23.2 22.8 23.2 C 22.8 23.2 19.37 23.2 19.4 23.2 C 19.4 23.9 20 24.6 20.8 24.6 C 21.3 24.6 21.8 24.4 22.1 24 C 22.1 24 22.5 24.6 22.5 24.6 C 22.1 25 21.5 25.2 20.8 25.2 C 19.5 25.2 18.5 24.3 18.5 22.9 C 18.5 21.7 19.4 20.7 20.7 20.7 Z M 19.4 22.6 C 19.4 22.6 22 22.6 22 22.6 C 22 22 21.6 21.3 20.7 21.3 C 19.8 21.3 19.4 22 19.4 22.6 Z M 26.1 23.6 C 26.5 24 27.2 24.4 28 24.4 C 29 24.4 29.3 23.9 29.3 23.5 C 29.3 22.9 28.6 22.7 27.9 22.5 C 26.9 22.2 25.8 22 25.8 20.7 C 25.8 19.7 26.7 19 27.9 19 C 28.9 19 29.6 19.3 30.1 19.9 C 30.1 19.9 29.6 20.5 29.6 20.5 C 29.1 20 28.5 19.8 27.9 19.8 C 27.2 19.8 26.7 20.2 26.7 20.7 C 26.7 21.2 27.4 21.4 28.1 21.6 C 29.1 21.8 30.2 22.1 30.2 23.4 C 30.2 24.3 29.6 25.2 28 25.2 C 26.9 25.2 26.1 24.8 25.6 24.3 C 25.6 24.3 26.1 23.6 26.1 23.6 Z M 34.1 24.5 C 33.8 24.9 33.2 25.2 32.6 25.2 C 31.6 25.2 31.2 24.8 31.2 23.8 C 31.19 23.83 31.2 20.8 31.2 20.8 L 32 20.8 C 32 20.8 31.99 23.56 32 23.6 C 32 24.3 32.4 24.5 32.9 24.5 C 33.4 24.5 33.9 24.2 34.1 23.9 C 34.12 23.89 34.1 20.8 34.1 20.8 L 34.9 20.8 L 34.9 25.1 L 34.1 25.1 C 34.1 25.1 34.12 24.52 34.1 24.5 Z M 41.4 22.2 C 41.4 21.7 41.2 21.4 40.7 21.4 C 40.2 21.4 39.8 21.7 39.6 22 C 39.57 22 39.6 25.1 39.6 25.1 L 38.8 25.1 C 38.8 25.1 38.76 22.21 38.8 22.2 C 38.8 21.7 38.5 21.4 38 21.4 C 37.6 21.4 37.2 21.7 36.9 22 C 36.94 22 36.9 25.1 36.9 25.1 L 36.1 25.1 L 36.1 20.8 L 36.9 20.8 C 36.9 20.8 36.94 21.37 36.9 21.4 C 37.1 21.1 37.7 20.7 38.3 20.7 C 39 20.7 39.4 21 39.5 21.5 C 39.8 21.1 40.3 20.7 41 20.7 C 41.8 20.7 42.2 21.1 42.2 22 C 42.22 21.97 42.2 25.1 42.2 25.1 L 41.4 25.1 C 41.4 25.1 41.41 22.21 41.4 22.2 Z M 48.7 22.2 C 48.7 21.7 48.5 21.4 47.9 21.4 C 47.5 21.4 47.1 21.7 46.9 22 C 46.86 22 46.9 25.1 46.9 25.1 L 46.1 25.1 C 46.1 25.1 46.05 22.21 46.1 22.2 C 46.1 21.7 45.8 21.4 45.3 21.4 C 44.9 21.4 44.4 21.7 44.2 22 C 44.22 22 44.2 25.1 44.2 25.1 L 43.4 25.1 L 43.4 20.8 L 44.2 20.8 C 44.2 20.8 44.22 21.37 44.2 21.4 C 44.4 21.1 45 20.7 45.6 20.7 C 46.3 20.7 46.7 21 46.8 21.5 C 47.1 21.1 47.6 20.7 48.3 20.7 C 49.1 20.7 49.5 21.1 49.5 22 C 49.51 21.97 49.5 25.1 49.5 25.1 L 48.7 25.1 C 48.7 25.1 48.7 22.21 48.7 22.2 Z M 53.4 24.6 C 53 25 52.6 25.2 52 25.2 C 51.2 25.2 50.5 24.7 50.5 23.8 C 50.5 22.8 51.2 22.4 52 22.4 C 52.6 22.4 53.1 22.5 53.4 22.9 C 53.4 22.9 53.4 22.2 53.4 22.2 C 53.4 21.7 52.9 21.3 52.3 21.3 C 51.8 21.3 51.4 21.5 51 21.9 C 51 21.9 50.7 21.4 50.7 21.4 C 51.2 20.9 51.7 20.7 52.5 20.7 C 53.4 20.7 54.2 21.1 54.2 22.2 C 54.2 22.18 54.2 25.1 54.2 25.1 L 53.4 25.1 C 53.4 25.1 53.39 24.63 53.4 24.6 Z M 53.4 23.4 C 53.1 23.1 52.7 22.9 52.3 22.9 C 51.7 22.9 51.3 23.3 51.3 23.8 C 51.3 24.3 51.7 24.7 52.3 24.7 C 52.7 24.7 53.1 24.5 53.4 24.2 C 53.4 24.2 53.4 23.4 53.4 23.4 Z M 55.4 20.8 L 56.2 20.8 C 56.2 20.8 56.21 21.43 56.2 21.4 C 56.5 21 57.1 20.7 57.6 20.7 C 57.6 20.7 57.6 21.5 57.6 21.5 C 57.6 21.5 57.5 21.5 57.4 21.5 C 57 21.5 56.4 21.8 56.2 22.1 C 56.21 22.09 56.2 25.1 56.2 25.1 L 55.4 25.1 L 55.4 20.8 Z M 58.6 26.2 C 58.9 26.2 59.1 26.1 59.3 25.7 C 59.26 25.73 59.5 25.2 59.5 25.2 L 57.7 20.8 L 58.6 20.8 L 59.9 24.2 L 61.3 20.8 L 62.2 20.8 C 62.2 20.8 60.03 25.94 60 25.9 C 59.8 26.6 59.3 26.9 58.6 26.9 C 58.5 26.9 58.3 26.8 58.1 26.8 C 58.1 26.8 58.3 26.1 58.3 26.1 C 58.4 26.1 58.5 26.2 58.6 26.2 Z " stroke="none" fill="#242423"/>
  </g>
  <g id="Polygon263462">
    <path d="M 0.7 1.1 L 1.6 1.1 L 1.6 7.1 L 0.7 7.1 L 0.7 1.1 Z M 5.7 4.3 C 5.7 3.6 5.4 3.4 4.8 3.4 C 4.3 3.4 3.8 3.7 3.6 4 C 3.61 4 3.6 7.1 3.6 7.1 L 2.8 7.1 L 2.8 2.8 L 3.6 2.8 C 3.6 2.8 3.61 3.37 3.6 3.4 C 3.9 3 4.5 2.7 5.1 2.7 C 6.1 2.7 6.5 3.1 6.5 4.1 C 6.54 4.06 6.5 7.1 6.5 7.1 L 5.7 7.1 C 5.7 7.1 5.73 4.33 5.7 4.3 Z M 7.1 2.8 L 8 2.8 L 9.3 6.2 L 10.7 2.8 L 11.6 2.8 L 9.8 7.1 L 8.9 7.1 L 7.1 2.8 Z M 14 2.7 C 15.3 2.7 16.1 3.7 16.1 5 C 16.15 5 16.1 5.2 16.1 5.2 C 16.1 5.2 12.71 5.2 12.7 5.2 C 12.8 5.9 13.3 6.6 14.2 6.6 C 14.6 6.6 15.1 6.4 15.5 6 C 15.5 6 15.8 6.6 15.8 6.6 C 15.4 7 14.8 7.2 14.1 7.2 C 12.8 7.2 11.9 6.3 11.9 4.9 C 11.9 3.7 12.8 2.7 14 2.7 Z M 12.7 4.6 C 12.7 4.6 15.4 4.6 15.4 4.6 C 15.3 4 14.9 3.3 14 3.3 C 13.2 3.3 12.7 4 12.7 4.6 Z M 17.1 5.9 C 17.4 6.3 18 6.6 18.5 6.6 C 19.2 6.6 19.5 6.3 19.5 5.9 C 19.5 5.5 19 5.4 18.4 5.2 C 17.7 5.1 16.8 4.9 16.8 3.9 C 16.8 3.2 17.4 2.7 18.5 2.7 C 19.2 2.7 19.8 2.9 20.1 3.3 C 20.1 3.3 19.8 3.8 19.8 3.8 C 19.5 3.5 19 3.3 18.5 3.3 C 17.9 3.3 17.6 3.5 17.6 3.9 C 17.6 4.3 18.1 4.4 18.6 4.5 C 19.4 4.7 20.3 4.9 20.3 5.9 C 20.3 6.6 19.6 7.2 18.5 7.2 C 17.8 7.2 17.1 7 16.7 6.5 C 16.7 6.5 17.1 5.9 17.1 5.9 Z M 21.4 6.1 C 21.36 6.15 21.4 3.5 21.4 3.5 L 20.6 3.5 L 20.6 2.8 L 21.4 2.8 L 21.4 1.6 L 22.2 1.6 L 22.2 2.8 L 23 2.8 L 23 3.5 L 22.2 3.5 C 22.2 3.5 22.17 5.97 22.2 6 C 22.2 6.3 22.3 6.5 22.6 6.5 C 22.8 6.5 22.9 6.4 23 6.3 C 23 6.3 23.2 6.9 23.2 6.9 C 23.1 7.1 22.8 7.2 22.4 7.2 C 21.7 7.2 21.4 6.8 21.4 6.1 Z M 29.1 4.2 C 29.1 3.7 28.9 3.4 28.4 3.4 C 27.9 3.4 27.5 3.7 27.3 4 C 27.31 4 27.3 7.1 27.3 7.1 L 26.5 7.1 C 26.5 7.1 26.5 4.21 26.5 4.2 C 26.5 3.7 26.3 3.4 25.7 3.4 C 25.3 3.4 24.9 3.7 24.7 4 C 24.67 4 24.7 7.1 24.7 7.1 L 23.9 7.1 L 23.9 2.8 L 24.7 2.8 C 24.7 2.8 24.67 3.37 24.7 3.4 C 24.8 3.1 25.4 2.7 26.1 2.7 C 26.7 2.7 27.1 3 27.3 3.5 C 27.5 3.1 28.1 2.7 28.7 2.7 C 29.5 2.7 30 3.1 30 4 C 29.95 3.97 30 7.1 30 7.1 L 29.1 7.1 C 29.1 7.1 29.14 4.21 29.1 4.2 Z M 33.1 2.7 C 34.4 2.7 35.2 3.7 35.2 5 C 35.17 5 35.2 5.2 35.2 5.2 C 35.2 5.2 31.73 5.2 31.7 5.2 C 31.8 5.9 32.3 6.6 33.2 6.6 C 33.7 6.6 34.2 6.4 34.5 6 C 34.5 6 34.9 6.6 34.9 6.6 C 34.4 7 33.8 7.2 33.1 7.2 C 31.8 7.2 30.9 6.3 30.9 4.9 C 30.9 3.7 31.8 2.7 33.1 2.7 Z M 31.7 4.6 C 31.7 4.6 34.4 4.6 34.4 4.6 C 34.4 4 34 3.3 33.1 3.3 C 32.2 3.3 31.8 4 31.7 4.6 Z M 39 4.3 C 39 3.6 38.7 3.4 38.1 3.4 C 37.6 3.4 37.1 3.7 36.9 4 C 36.91 4 36.9 7.1 36.9 7.1 L 36.1 7.1 L 36.1 2.8 L 36.9 2.8 C 36.9 2.8 36.91 3.37 36.9 3.4 C 37.2 3 37.8 2.7 38.4 2.7 C 39.4 2.7 39.8 3.1 39.8 4.1 C 39.84 4.06 39.8 7.1 39.8 7.1 L 39 7.1 C 39 7.1 39.03 4.33 39 4.3 Z M 41.2 6.1 C 41.2 6.15 41.2 3.5 41.2 3.5 L 40.5 3.5 L 40.5 2.8 L 41.2 2.8 L 41.2 1.6 L 42 1.6 L 42 2.8 L 42.9 2.8 L 42.9 3.5 L 42 3.5 C 42 3.5 42.01 5.97 42 6 C 42 6.3 42.2 6.5 42.4 6.5 C 42.6 6.5 42.8 6.4 42.9 6.3 C 42.9 6.3 43.1 6.9 43.1 6.9 C 42.9 7.1 42.7 7.2 42.2 7.2 C 41.6 7.2 41.2 6.8 41.2 6.1 Z M 46.1 5.6 C 46.5 6 47.2 6.4 48 6.4 C 49 6.4 49.3 5.9 49.3 5.5 C 49.3 4.9 48.6 4.7 47.9 4.5 C 46.9 4.2 45.8 4 45.8 2.7 C 45.8 1.7 46.6 1 47.9 1 C 48.8 1 49.6 1.3 50.1 1.9 C 50.1 1.9 49.6 2.5 49.6 2.5 C 49.1 2 48.5 1.8 47.8 1.8 C 47.2 1.8 46.7 2.2 46.7 2.7 C 46.7 3.2 47.3 3.4 48.1 3.6 C 49.1 3.8 50.2 4.1 50.2 5.4 C 50.2 6.3 49.6 7.2 48 7.2 C 46.9 7.2 46.1 6.8 45.6 6.3 C 45.6 6.3 46.1 5.6 46.1 5.6 Z M 54.1 6.5 C 53.8 6.9 53.2 7.2 52.5 7.2 C 51.6 7.2 51.2 6.8 51.2 5.8 C 51.16 5.83 51.2 2.8 51.2 2.8 L 52 2.8 C 52 2.8 51.96 5.56 52 5.6 C 52 6.3 52.3 6.5 52.9 6.5 C 53.4 6.5 53.8 6.2 54.1 5.9 C 54.09 5.89 54.1 2.8 54.1 2.8 L 54.9 2.8 L 54.9 7.1 L 54.1 7.1 C 54.1 7.1 54.09 6.52 54.1 6.5 Z M 61.4 4.2 C 61.4 3.7 61.2 3.4 60.6 3.4 C 60.2 3.4 59.7 3.7 59.5 4 C 59.54 4 59.5 7.1 59.5 7.1 L 58.7 7.1 C 58.7 7.1 58.73 4.21 58.7 4.2 C 58.7 3.7 58.5 3.4 58 3.4 C 57.5 3.4 57.1 3.7 56.9 4 C 56.91 4 56.9 7.1 56.9 7.1 L 56.1 7.1 L 56.1 2.8 L 56.9 2.8 C 56.9 2.8 56.91 3.37 56.9 3.4 C 57.1 3.1 57.7 2.7 58.3 2.7 C 59 2.7 59.4 3 59.5 3.5 C 59.7 3.1 60.3 2.7 61 2.7 C 61.8 2.7 62.2 3.1 62.2 4 C 62.19 3.97 62.2 7.1 62.2 7.1 L 61.4 7.1 C 61.4 7.1 61.38 4.21 61.4 4.2 Z M 68.7 4.2 C 68.7 3.7 68.4 3.4 67.9 3.4 C 67.5 3.4 67 3.7 66.8 4 C 66.83 4 66.8 7.1 66.8 7.1 L 66 7.1 C 66 7.1 66.02 4.21 66 4.2 C 66 3.7 65.8 3.4 65.3 3.4 C 64.8 3.4 64.4 3.7 64.2 4 C 64.2 4 64.2 7.1 64.2 7.1 L 63.4 7.1 L 63.4 2.8 L 64.2 2.8 C 64.2 2.8 64.2 3.37 64.2 3.4 C 64.4 3.1 65 2.7 65.6 2.7 C 66.3 2.7 66.6 3 66.8 3.5 C 67 3.1 67.6 2.7 68.2 2.7 C 69 2.7 69.5 3.1 69.5 4 C 69.48 3.97 69.5 7.1 69.5 7.1 L 68.7 7.1 C 68.7 7.1 68.67 4.21 68.7 4.2 Z M 73.4 6.6 C 73 7 72.5 7.2 71.9 7.2 C 71.2 7.2 70.4 6.7 70.4 5.8 C 70.4 4.8 71.2 4.4 71.9 4.4 C 72.5 4.4 73 4.5 73.4 4.9 C 73.4 4.9 73.4 4.2 73.4 4.2 C 73.4 3.7 72.9 3.3 72.3 3.3 C 71.8 3.3 71.4 3.5 71 3.9 C 71 3.9 70.6 3.4 70.6 3.4 C 71.1 2.9 71.7 2.7 72.4 2.7 C 73.4 2.7 74.2 3.1 74.2 4.2 C 74.17 4.18 74.2 7.1 74.2 7.1 L 73.4 7.1 C 73.4 7.1 73.36 6.63 73.4 6.6 Z M 73.4 5.4 C 73.1 5.1 72.7 4.9 72.2 4.9 C 71.7 4.9 71.2 5.3 71.2 5.8 C 71.2 6.3 71.7 6.7 72.2 6.7 C 72.7 6.7 73.1 6.5 73.4 6.2 C 73.4 6.2 73.4 5.4 73.4 5.4 Z M 75.4 2.8 L 76.2 2.8 C 76.2 2.8 76.18 3.43 76.2 3.4 C 76.5 3 77 2.7 77.6 2.7 C 77.6 2.7 77.6 3.5 77.6 3.5 C 77.5 3.5 77.4 3.5 77.3 3.5 C 76.9 3.5 76.4 3.8 76.2 4.1 C 76.18 4.09 76.2 7.1 76.2 7.1 L 75.4 7.1 L 75.4 2.8 Z M 78.6 8.2 C 78.9 8.2 79.1 8.1 79.2 7.7 C 79.23 7.73 79.5 7.2 79.5 7.2 L 77.7 2.8 L 78.6 2.8 L 79.9 6.2 L 81.3 2.8 L 82.1 2.8 C 82.1 2.8 80 7.94 80 7.9 C 79.7 8.6 79.2 8.9 78.6 8.9 C 78.5 8.9 78.2 8.8 78.1 8.8 C 78.1 8.8 78.2 8.1 78.2 8.1 C 78.3 8.1 78.5 8.2 78.6 8.2 Z " stroke="none" fill="#242423"/>
  </g>
</svg>