<?xml version="1.0" standalone="no"?><!DOCTYPE svg PUBLIC "-//W3C//DTD SVG 1.1//EN" "http://www.w3.org/Graphics/SVG/1.1/DTD/svg11.dtd"><svg xmlns="http://www.w3.org/2000/svg" version="1.1" width="194px" height="47.4px" viewBox="0 -10 194 47.4" style="top:-10px"><desc>Agent 1</desc><defs/><g id="Polygon277699"><path d="m9.6 22.6v2.5h-2v-2.5c-2.9-.2-5.1-1.3-6.5-2.9l1.6-2.2c1.1 1.2 2.8 2.3 4.9 2.5v-6.1c-2.9-.7-5.9-1.8-5.9-5.3c0-3 2.4-5.1 5.9-5.4V.6h2v2.6c2.3.3 4.2 1.2 5.6 2.6l-1.6 2.1c-1.1-1.1-2.5-1.8-4-2.1v5.6c2.9.7 6 1.8 6 5.6c0 2.7-1.7 5.2-6 5.6zm-2-11.8V5.7c-1.8.2-3 1.2-3 2.7c0 1.3 1.3 1.9 3 2.4zm5.2 6.4c0-1.6-1.4-2.2-3.2-2.8v5.6c2.3-.2 3.2-1.6 3.2-2.8zm12.5-14c5.2 0 7.4 5 7.4 9.7c0 4.7-2.2 9.7-7.4 9.7c-5.2 0-7.4-5-7.4-9.7c0-4.7 2.2-9.7 7.4-9.7zm0 2.5c-3.3 0-4.5 3.5-4.5 7.2c0 3.7 1.2 7.2 4.5 7.2c3.3 0 4.5-3.5 4.5-7.2c0-3.7-1.2-7.2-4.5-7.2zM34.5 25c.9-.6 1.8-1.7 1.9-2.6h-.4c-.9 0-1.5-.7-1.5-1.6c0-1 .7-1.7 1.7-1.7c1 0 2 .8 2 2.3c0 1.9-1.1 3.6-2.5 4.6l-1.2-1zM48 3.2c5.2 0 7.4 5 7.4 9.7c0 4.7-2.2 9.7-7.4 9.7c-5.2 0-7.4-5-7.4-9.7c0-4.7 2.2-9.7 7.4-9.7zm0 2.5c-3.3 0-4.5 3.5-4.5 7.2c0 3.7 1.2 7.2 4.5 7.2c3.3 0 4.5-3.5 4.5-7.2c0-3.7-1.2-7.2-4.5-7.2zm17.1-2.5c5.2 0 7.3 5 7.3 9.7c0 4.7-2.1 9.7-7.3 9.7c-5.3 0-7.4-5-7.4-9.7c0-4.7 2.1-9.7 7.4-9.7zm0 2.5c-3.4 0-4.5 3.5-4.5 7.2c0 3.7 1.1 7.2 4.5 7.2c3.3 0 4.4-3.5 4.4-7.2c0-3.7-1.1-7.2-4.4-7.2zm17-2.5c5.2 0 7.4 5 7.4 9.7c0 4.7-2.2 9.7-7.4 9.7c-5.2 0-7.4-5-7.4-9.7c0-4.7 2.2-9.7 7.4-9.7zm0 2.5c-3.3 0-4.5 3.5-4.5 7.2c0 3.7 1.2 7.2 4.5 7.2c3.3 0 4.5-3.5 4.5-7.2c0-3.7-1.2-7.2-4.5-7.2zM91.3 25c.9-.6 1.8-1.7 1.9-2.6h-.4c-.9 0-1.5-.7-1.5-1.6c0-1 .7-1.7 1.7-1.7c1.1 0 2 .8 2 2.3c0 1.9-1.1 3.6-2.5 4.6l-1.2-1zm13.5-21.8c5.2 0 7.4 5 7.4 9.7c0 4.7-2.2 9.7-7.4 9.7c-5.2 0-7.4-5-7.4-9.7c0-4.7 2.2-9.7 7.4-9.7zm0 2.5c-3.3 0-4.5 3.5-4.5 7.2c0 3.7 1.2 7.2 4.5 7.2c3.3 0 4.5-3.5 4.5-7.2c0-3.7-1.2-7.2-4.5-7.2zm17.1-2.5c5.2 0 7.3 5 7.3 9.7c0 4.7-2.1 9.7-7.3 9.7c-5.3 0-7.4-5-7.4-9.7c0-4.7 2.1-9.7 7.4-9.7zm0 2.5c-3.4 0-4.5 3.5-4.5 7.2c0 3.7 1.1 7.2 4.5 7.2c3.3 0 4.5-3.5 4.5-7.2c0-3.7-1.2-7.2-4.5-7.2zm17-2.5c5.2 0 7.4 5 7.4 9.7c0 4.7-2.2 9.7-7.4 9.7c-5.2 0-7.4-5-7.4-9.7c0-4.7 2.2-9.7 7.4-9.7zm0 2.5c-3.3 0-4.5 3.5-4.5 7.2c0 3.7 1.2 7.2 4.5 7.2c3.3 0 4.5-3.5 4.5-7.2c0-3.7-1.2-7.2-4.5-7.2z" stroke="none" fill="#282828"/></g></svg>