<?xml version="1.0" standalone="no"?><!DOCTYPE svg PUBLIC "-//W3C//DTD SVG 1.1//EN" "http://www.w3.org/Graphics/SVG/1.1/DTD/svg11.dtd"><svg xmlns="http://www.w3.org/2000/svg" xmlns:xlink="http://www.w3.org/1999/xlink" version="1.1" width="416.3px" height="47.9px" viewBox="0 -14 416.3 47.9" style="top:-14px"><desc/><defs/><g id="Polygon35849"><path d="m0 6.7l7-3.4v1.2L1.1 7.2L7 10v1.1L0 7.8V6.7zm7.9 0L15 3.3v1.2L9.1 7.2L15 10v1.1L7.9 7.8V6.7zm11.3-3.3h-3.3V2h8.1v1.4h-3.2v9.1h-1.6V3.4zm8.1 1.3c2.3 0 3.7 1.8 3.7 4.1c.02.03 0 .4 0 .4c0 0-6.05-.02-6.1 0c.2 1.3 1.1 2.4 2.7 2.4c.8 0 1.7-.4 2.2-.9l.7.9c-.8.7-1.8 1.1-3.1 1.1c-2.3 0-4-1.6-4-4c0-2.2 1.6-4 3.9-4zm-2.4 3.4h4.7c0-1-.7-2.2-2.3-2.2c-1.6 0-2.3 1.2-2.4 2.2zM38 7.6c0-1.2-.7-1.6-1.6-1.6c-.9 0-1.7.5-2.2 1.1c.04-.03 0 5.4 0 5.4h-1.4V4.9h1.4s.04 1.05 0 1.1c.5-.7 1.6-1.3 2.8-1.3c1.6 0 2.4.8 2.4 2.5c.02-.04 0 5.3 0 5.3H38V7.6zm8.4 4.1c-.6.7-1.5 1-2.5 1c-1.3 0-2.7-.8-2.7-2.5c0-1.8 1.4-2.5 2.7-2.5c1 0 1.9.3 2.5 1V7.4c0-.9-.8-1.5-1.9-1.5c-.8 0-1.6.3-2.3 1l-.6-1c.9-.8 1.9-1.2 3.2-1.2c1.6 0 3.1.7 3.1 2.7c-.05-.03 0 5.1 0 5.1h-1.5s.02-.79 0-.8zm0-2.1c-.4-.6-1.2-.9-1.9-.9c-1.1 0-1.8.6-1.8 1.5c0 .9.7 1.5 1.8 1.5c.7 0 1.5-.3 1.9-.8V9.6zm8.9-2c0-1.2-.6-1.6-1.6-1.6c-.9 0-1.7.5-2.1 1.1c-.03-.03 0 5.4 0 5.4h-1.5V4.9h1.5s-.03 1.05 0 1.1c.5-.7 1.5-1.3 2.7-1.3c1.6 0 2.4.8 2.4 2.5c.05-.04 0 5.3 0 5.3h-1.4s.02-4.86 0-4.9zm4 3.2V6.1H58V4.9h1.3V2.8h1.4v2.1h1.6v1.2h-1.6s.03 4.43 0 4.4c0 .6.3 1 .8 1c.3 0 .6-.2.8-.3l.3 1c-.3.3-.7.5-1.5.5c-1.2 0-1.8-.6-1.8-1.9zm4.1-2.1c0-2.6.9-5.1 2.3-7l.9.6c-1 2-1.6 3.8-1.6 6.4c0 2.6.6 4.4 1.6 6.3l-.9.7c-1.4-1.9-2.3-4.5-2.3-7zm4.7 1.8c.5.6 1.5 1.1 2.5 1.1c1.1 0 1.7-.4 1.7-1.1c0-.8-.9-1-1.9-1.2c-1.3-.3-2.8-.7-2.8-2.3c0-1.3 1-2.3 2.9-2.3c1.3 0 2.3.5 2.9 1.1l-.6 1c-.4-.6-1.3-1-2.3-1c-.9 0-1.5.4-1.5 1c0 .7.8.9 1.7 1.2c1.4.3 3 .6 3 2.4c0 1.3-1.1 2.3-3.1 2.3c-1.3 0-2.4-.4-3.2-1.2l.7-1zm6.5-8.2l.9-.6c1.4 1.9 2.3 4.4 2.3 7c0 2.5-.9 5.1-2.3 7l-.9-.7c1-1.9 1.7-3.7 1.7-6.3c0-2.6-.7-4.4-1.7-6.4zM79 10l5.8-2.8L79 4.5V3.3l7 3.4v1.1l-7 3.3V10zm7.9 0l5.9-2.8l-5.9-2.7V3.3l7 3.4v1.1l-7 3.3V10z" stroke="none" fill="#88898a"/><a xlink:href="DBF_Tenant(s)" xlink:show="new" xlink:title="&lt;&lt;Tenant(s)&gt;&gt;"><rect style="fill:transparent;" x="-1" y="1" width="95" height="15"/></a></g></svg>