<?xml version="1.0" standalone="no"?><!DOCTYPE svg PUBLIC "-//W3C//DTD SVG 1.1//EN" "http://www.w3.org/Graphics/SVG/1.1/DTD/svg11.dtd"><svg xmlns="http://www.w3.org/2000/svg" version="1.1" width="184px" height="16.9px" viewBox="0 -4 184 16.9" style="top:-4px"><desc>08</desc><defs/><g id="Polygon293873"><path d="m2.8 1c1.6 0 2.3 1.6 2.3 3.1c0 1.5-.7 3.1-2.3 3.1C1.1 7.2.4 5.6.4 4.1C.4 2.6 1.1 1 2.8 1zm0 .8c-1.1 0-1.5 1.1-1.5 2.3c0 1.2.4 2.3 1.5 2.3c1 0 1.4-1.1 1.4-2.3c0-1.2-.4-2.3-1.4-2.3zM7.3 4C6.7 3.8 6 3.4 6 2.6C6 1.5 7.1 1 8.2 1c1 0 2.1.5 2.1 1.6c0 .8-.6 1.2-1.3 1.4c.7.2 1.4.8 1.4 1.6c0 1-1 1.6-2.2 1.6c-1.2 0-2.3-.6-2.3-1.6c0-.8.7-1.4 1.4-1.6zm.9-2.2c-.7 0-1.2.4-1.2.9c0 .7.8.9 1.2 1c.4-.1 1.2-.3 1.2-1c0-.5-.5-.9-1.2-.9zm0 2.6c-.4.1-1.3.4-1.3 1.1c0 .6.6.9 1.3.9c.7 0 1.3-.3 1.3-.9c0-.7-1-1-1.3-1.1z" stroke="none" fill="#88898a"/></g></svg>