<?xml version="1.0" standalone="no"?>
<!DOCTYPE svg PUBLIC "-//W3C//DTD SVG 1.1//EN" "http://www.w3.org/Graphics/SVG/1.1/DTD/svg11.dtd">
<svg xmlns="http://www.w3.org/2000/svg" version="1.1" width="124px" height="63.9px" viewBox="0 -10 124 63.9" style="top:-10px">
  <desc>Agent 1</desc>
  <defs/>
  <g id="Polygon206936">
    <path d="M 0.7 39 C 0.7 35.7 3.1 33.5 6.2 33.5 C 8.2 33.5 9.5 34.5 10.4 35.7 C 10.4 35.7 9 36.5 9 36.5 C 8.5 35.6 7.4 34.9 6.2 34.9 C 4 34.9 2.4 36.6 2.4 39 C 2.4 41.3 4 43 6.2 43 C 7.4 43 8.5 42.4 9 41.5 C 9 41.5 10.4 42.2 10.4 42.2 C 9.5 43.5 8.2 44.5 6.2 44.5 C 3.1 44.5 0.7 42.2 0.7 39 Z M 16.5 43.4 C 15.9 44.1 15 44.5 14 44.5 C 12.7 44.5 11.3 43.6 11.3 41.9 C 11.3 40.2 12.7 39.4 14 39.4 C 15 39.4 15.9 39.7 16.5 40.4 C 16.5 40.4 16.5 39.2 16.5 39.2 C 16.5 38.2 15.7 37.6 14.6 37.6 C 13.8 37.6 13 38 12.3 38.6 C 12.3 38.6 11.7 37.7 11.7 37.7 C 12.6 36.8 13.6 36.4 14.8 36.4 C 16.5 36.4 17.9 37.1 17.9 39.1 C 17.93 39.09 17.9 44.3 17.9 44.3 L 16.5 44.3 C 16.5 44.3 16.5 43.43 16.5 43.4 Z M 16.5 41.3 C 16.1 40.7 15.3 40.4 14.5 40.4 C 13.5 40.4 12.8 41 12.8 41.9 C 12.8 42.8 13.5 43.5 14.5 43.5 C 15.3 43.5 16.1 43.2 16.5 42.6 C 16.5 42.6 16.5 41.3 16.5 41.3 Z M 20.1 47.2 L 20.1 36.6 L 21.5 36.6 C 21.5 36.6 21.49 37.69 21.5 37.7 C 22 36.9 23 36.4 24 36.4 C 26 36.4 27.4 37.9 27.4 40.4 C 27.4 42.9 26 44.5 24 44.5 C 23 44.5 22.1 44 21.5 43.2 C 21.49 43.16 21.5 47.2 21.5 47.2 L 20.1 47.2 Z M 23.6 37.7 C 22.7 37.7 21.9 38.2 21.5 38.8 C 21.5 38.8 21.5 42.1 21.5 42.1 C 21.9 42.7 22.7 43.2 23.6 43.2 C 25 43.2 25.9 42 25.9 40.4 C 25.9 38.8 25 37.7 23.6 37.7 Z M 36.6 40.2 L 34.6 40.2 L 34.6 44.3 L 33 44.3 L 33 33.7 C 33 33.7 37.5 33.68 37.5 33.7 C 39.5 33.7 40.9 35 40.9 36.9 C 40.9 38.8 39.6 39.9 38.3 40 C 38.26 40.03 41 44.3 41 44.3 L 39.1 44.3 L 36.6 40.2 Z M 37.3 35.1 C 37.29 35.07 34.6 35.1 34.6 35.1 L 34.6 38.8 C 34.6 38.8 37.29 38.79 37.3 38.8 C 38.4 38.8 39.3 38 39.3 36.9 C 39.3 35.8 38.4 35.1 37.3 35.1 Z M 47.1 43.4 C 46.5 44.1 45.6 44.5 44.6 44.5 C 43.3 44.5 41.9 43.6 41.9 41.9 C 41.9 40.2 43.3 39.4 44.6 39.4 C 45.6 39.4 46.5 39.7 47.1 40.4 C 47.1 40.4 47.1 39.2 47.1 39.2 C 47.1 38.2 46.3 37.6 45.2 37.6 C 44.3 37.6 43.6 38 42.9 38.6 C 42.9 38.6 42.3 37.7 42.3 37.7 C 43.1 36.8 44.2 36.4 45.4 36.4 C 47.1 36.4 48.5 37.1 48.5 39.1 C 48.5 39.09 48.5 44.3 48.5 44.3 L 47.1 44.3 C 47.1 44.3 47.08 43.43 47.1 43.4 Z M 47.1 41.3 C 46.6 40.7 45.9 40.4 45.1 40.4 C 44.1 40.4 43.3 41 43.3 41.9 C 43.3 42.8 44.1 43.5 45.1 43.5 C 45.9 43.5 46.6 43.2 47.1 42.6 C 47.1 42.6 47.1 41.3 47.1 41.3 Z M 50.9 42.6 C 50.92 42.57 50.9 37.9 50.9 37.9 L 49.6 37.9 L 49.6 36.6 L 50.9 36.6 L 50.9 34.5 L 52.3 34.5 L 52.3 36.6 L 53.9 36.6 L 53.9 37.9 L 52.3 37.9 C 52.3 37.9 52.35 42.25 52.3 42.3 C 52.3 42.8 52.6 43.2 53.1 43.2 C 53.4 43.2 53.7 43 53.9 42.9 C 53.9 42.9 54.2 44 54.2 44 C 53.9 44.3 53.5 44.5 52.7 44.5 C 51.5 44.5 50.9 43.8 50.9 42.6 Z M 58.7 36.4 C 61 36.4 62.4 38.2 62.4 40.6 C 62.43 40.55 62.4 40.9 62.4 40.9 C 62.4 40.9 56.37 40.9 56.4 40.9 C 56.5 42.2 57.4 43.3 59 43.3 C 59.8 43.3 60.7 43 61.2 42.4 C 61.2 42.4 61.9 43.3 61.9 43.3 C 61.1 44.1 60.1 44.5 58.8 44.5 C 56.5 44.5 54.9 42.8 54.9 40.4 C 54.9 38.2 56.5 36.4 58.7 36.4 Z M 56.3 39.9 C 56.3 39.9 61 39.9 61 39.9 C 61 38.9 60.3 37.6 58.7 37.6 C 57.2 37.6 56.4 38.8 56.3 39.9 Z " stroke="none" fill="#3797ef"/>
  </g>
  <g id="Polygon206935">
    <path d="M 11 7.3 C 11 7.3 11 19.1 11 19.1 C 11 22.1 9.2 23.3 6.3 23.3 C 6.3 23.3 6 23.3 6 23.3 C 3.1 23.3 1.3 22.1 1.3 19.1 C 1.3 19.1 1.3 7.3 1.3 7.3 C 1.3 4.3 3.1 3.1 6 3.1 C 6 3.1 6.3 3.1 6.3 3.1 C 9.2 3.1 11 4.3 11 7.3 Z M 6.2 6 C 5.1 6 4.5 6.4 4.5 7.8 C 4.5 7.8 4.5 18.6 4.5 18.6 C 4.5 20 5.1 20.4 6.2 20.4 C 7.2 20.4 7.8 20 7.8 18.6 C 7.8 18.6 7.8 7.8 7.8 7.8 C 7.8 6.4 7.2 6 6.2 6 Z M 16.4 23.1 L 13.2 23.1 L 13.2 19.4 L 16.4 19.4 L 16.4 23.1 Z M 28.2 7.3 C 28.2 7.3 28.2 19.1 28.2 19.1 C 28.2 22.1 26.5 23.3 23.5 23.3 C 23.5 23.3 23.3 23.3 23.3 23.3 C 20.3 23.3 18.5 22.1 18.5 19.1 C 18.5 19.1 18.5 7.3 18.5 7.3 C 18.5 4.3 20.3 3.1 23.3 3.1 C 23.3 3.1 23.5 3.1 23.5 3.1 C 26.5 3.1 28.2 4.3 28.2 7.3 Z M 23.4 6 C 22.3 6 21.7 6.4 21.7 7.8 C 21.7 7.8 21.7 18.6 21.7 18.6 C 21.7 20 22.3 20.4 23.4 20.4 C 24.4 20.4 25.1 20 25.1 18.6 C 25.1 18.6 25.1 7.8 25.1 7.8 C 25.1 6.4 24.4 6 23.4 6 Z M 40.3 7.3 C 40.3 7.3 40.3 19.1 40.3 19.1 C 40.3 22.1 38.5 23.3 35.5 23.3 C 35.5 23.3 35.3 23.3 35.3 23.3 C 32.3 23.3 30.5 22.1 30.5 19.1 C 30.5 19.1 30.5 7.3 30.5 7.3 C 30.5 4.3 32.3 3.1 35.3 3.1 C 35.3 3.1 35.5 3.1 35.5 3.1 C 38.5 3.1 40.3 4.3 40.3 7.3 Z M 35.4 6 C 34.4 6 33.7 6.4 33.7 7.8 C 33.7 7.8 33.7 18.6 33.7 18.6 C 33.7 20 34.4 20.4 35.4 20.4 C 36.5 20.4 37.1 20 37.1 18.6 C 37.1 18.6 37.1 7.8 37.1 7.8 C 37.1 6.4 36.5 6 35.4 6 Z M 47.5 5.6 C 47.5 5.6 47.5 9.3 47.5 9.3 C 47.5 11 46.3 11.6 45 11.6 C 45 11.6 44.6 11.6 44.6 11.6 C 43.2 11.6 42.1 11 42.1 9.3 C 42.1 9.3 42.1 5.6 42.1 5.6 C 42.1 3.9 43.2 3.2 44.6 3.2 C 44.6 3.2 45 3.2 45 3.2 C 46.3 3.2 47.5 3.9 47.5 5.6 Z M 44.8 23.1 L 43 23.1 L 52.2 3.3 L 54 3.3 L 44.8 23.1 Z M 44.9 4.9 C 44.9 4.9 44.7 4.9 44.7 4.9 C 44.2 4.9 43.9 5.2 43.9 5.9 C 43.9 5.9 43.9 8.9 43.9 8.9 C 43.9 9.7 44.2 9.9 44.7 9.9 C 44.7 9.9 44.9 9.9 44.9 9.9 C 45.3 9.9 45.7 9.7 45.7 8.9 C 45.7 8.9 45.7 5.9 45.7 5.9 C 45.7 5.2 45.3 4.9 44.9 4.9 Z M 54.9 17.1 C 54.9 17.1 54.9 20.9 54.9 20.9 C 54.9 22.5 53.7 23.2 52.4 23.2 C 52.4 23.2 52 23.2 52 23.2 C 50.6 23.2 49.5 22.5 49.5 20.9 C 49.5 20.9 49.5 17.1 49.5 17.1 C 49.5 15.5 50.6 14.8 52 14.8 C 52 14.8 52.4 14.8 52.4 14.8 C 53.7 14.8 54.9 15.5 54.9 17.1 Z M 52.3 16.5 C 52.3 16.5 52.1 16.5 52.1 16.5 C 51.6 16.5 51.3 16.8 51.3 17.5 C 51.3 17.5 51.3 20.5 51.3 20.5 C 51.3 21.2 51.6 21.5 52.1 21.5 C 52.1 21.5 52.3 21.5 52.3 21.5 C 52.7 21.5 53.1 21.2 53.1 20.5 C 53.1 20.5 53.1 17.5 53.1 17.5 C 53.1 16.8 52.7 16.5 52.3 16.5 Z " stroke="none" fill="#282828"/>
  </g>
</svg>