<?xml version="1.0" standalone="no"?>
<!DOCTYPE svg PUBLIC "-//W3C//DTD SVG 1.1//EN" "http://www.w3.org/Graphics/SVG/1.1/DTD/svg11.dtd">
<svg xmlns="http://www.w3.org/2000/svg" version="1.1" width="70.1px" height="36.9px" viewBox="0 -6 70.1 36.9" style="top:-6px">
  <desc>Agent 1</desc>
  <defs/>
  <g id="Polygon236770">
    <path d="M 0.7 19.1 C 0.7 19.1 3.2 19.08 3.2 19.1 C 4.4 19.1 5.1 19.9 5.1 20.9 C 5.1 21.9 4.4 22.8 3.2 22.8 C 3.2 22.77 1.6 22.8 1.6 22.8 L 1.6 25.1 L 0.7 25.1 L 0.7 19.1 Z M 3.1 19.9 C 3.08 19.87 1.6 19.9 1.6 19.9 L 1.6 22 C 1.6 22 3.08 21.98 3.1 22 C 3.7 22 4.2 21.6 4.2 20.9 C 4.2 20.3 3.7 19.9 3.1 19.9 Z M 8.9 24.5 C 8.5 24.9 8 25.2 7.3 25.2 C 6.4 25.2 5.9 24.7 5.9 23.8 C 5.93 23.81 5.9 20.7 5.9 20.7 L 6.7 20.7 C 6.7 20.7 6.74 23.54 6.7 23.5 C 6.7 24.3 7.1 24.5 7.7 24.5 C 8.2 24.5 8.6 24.2 8.9 23.9 C 8.87 23.86 8.9 20.7 8.9 20.7 L 9.7 20.7 L 9.7 25.1 L 8.9 25.1 C 8.9 25.1 8.87 24.49 8.9 24.5 Z M 10.9 20.7 L 11.7 20.7 C 11.7 20.7 11.68 21.4 11.7 21.4 C 12 21 12.5 20.6 13.1 20.6 C 13.1 20.6 13.1 21.5 13.1 21.5 C 13 21.4 12.9 21.4 12.8 21.4 C 12.4 21.4 11.9 21.7 11.7 22.1 C 11.68 22.06 11.7 25.1 11.7 25.1 L 10.9 25.1 L 10.9 20.7 Z M 15.8 20.6 C 16.6 20.6 17.1 21 17.4 21.4 C 17.4 21.4 16.9 21.9 16.9 21.9 C 16.6 21.5 16.2 21.4 15.8 21.4 C 14.9 21.4 14.4 22 14.4 22.9 C 14.4 23.8 14.9 24.5 15.8 24.5 C 16.2 24.5 16.6 24.3 16.9 23.9 C 16.9 23.9 17.4 24.4 17.4 24.4 C 17.1 24.9 16.6 25.2 15.8 25.2 C 14.5 25.2 13.6 24.2 13.6 22.9 C 13.6 21.6 14.5 20.6 15.8 20.6 Z M 21.1 22.3 C 21.1 21.6 20.8 21.4 20.2 21.4 C 19.7 21.4 19.2 21.7 19 22 C 19.01 21.98 19 25.1 19 25.1 L 18.2 25.1 L 18.2 19.1 L 19 19.1 C 19 19.1 19.01 21.35 19 21.4 C 19.3 21 19.9 20.6 20.5 20.6 C 21.5 20.6 21.9 21.1 21.9 22 C 21.94 22.02 21.9 25.1 21.9 25.1 L 21.1 25.1 C 21.1 25.1 21.13 22.29 21.1 22.3 Z M 25.8 24.6 C 25.5 25 25 25.2 24.4 25.2 C 23.7 25.2 22.9 24.7 22.9 23.8 C 22.9 22.8 23.7 22.3 24.4 22.3 C 25 22.3 25.5 22.5 25.8 22.9 C 25.8 22.9 25.8 22.2 25.8 22.2 C 25.8 21.6 25.4 21.3 24.8 21.3 C 24.3 21.3 23.8 21.5 23.5 21.9 C 23.5 21.9 23.1 21.3 23.1 21.3 C 23.6 20.9 24.2 20.6 24.9 20.6 C 25.8 20.6 26.6 21 26.6 22.2 C 26.64 22.15 26.6 25.1 26.6 25.1 L 25.8 25.1 C 25.8 25.1 25.83 24.61 25.8 24.6 Z M 25.8 23.4 C 25.6 23.1 25.2 22.9 24.7 22.9 C 24.1 22.9 23.7 23.2 23.7 23.8 C 23.7 24.3 24.1 24.6 24.7 24.6 C 25.2 24.6 25.6 24.5 25.8 24.1 C 25.8 24.1 25.8 23.4 25.8 23.4 Z M 27.9 23.9 C 28.2 24.2 28.7 24.5 29.3 24.5 C 29.9 24.5 30.2 24.3 30.2 23.9 C 30.2 23.5 29.8 23.3 29.2 23.2 C 28.5 23.1 27.6 22.9 27.6 21.9 C 27.6 21.2 28.2 20.6 29.2 20.6 C 30 20.6 30.5 20.9 30.9 21.3 C 30.9 21.3 30.5 21.8 30.5 21.8 C 30.3 21.5 29.8 21.3 29.3 21.3 C 28.7 21.3 28.4 21.5 28.4 21.9 C 28.4 22.2 28.8 22.4 29.4 22.5 C 30.1 22.7 31 22.9 31 23.9 C 31 24.6 30.4 25.2 29.3 25.2 C 28.5 25.2 27.9 25 27.5 24.5 C 27.5 24.5 27.9 23.9 27.9 23.9 Z M 33.9 20.6 C 35.2 20.6 36 21.6 36 23 C 35.99 22.98 36 23.2 36 23.2 C 36 23.2 32.55 23.18 32.6 23.2 C 32.6 23.9 33.2 24.5 34 24.5 C 34.5 24.5 35 24.3 35.3 24 C 35.3 24 35.7 24.5 35.7 24.5 C 35.3 25 34.6 25.2 33.9 25.2 C 32.7 25.2 31.7 24.3 31.7 22.9 C 31.7 21.6 32.6 20.6 33.9 20.6 Z M 32.5 22.6 C 32.5 22.6 35.2 22.6 35.2 22.6 C 35.2 22 34.8 21.3 33.9 21.3 C 33 21.3 32.6 22 32.5 22.6 Z M 39.2 19.1 C 39.2 19.1 41.7 19.08 41.7 19.1 C 42.9 19.1 43.6 19.9 43.6 20.9 C 43.6 21.9 42.9 22.8 41.7 22.8 C 41.7 22.77 40.1 22.8 40.1 22.8 L 40.1 25.1 L 39.2 25.1 L 39.2 19.1 Z M 41.6 19.9 C 41.58 19.87 40.1 19.9 40.1 19.9 L 40.1 22 C 40.1 22 41.58 21.98 41.6 22 C 42.2 22 42.7 21.6 42.7 20.9 C 42.7 20.3 42.2 19.9 41.6 19.9 Z M 44.4 20.7 L 45.2 20.7 C 45.2 20.7 45.24 21.4 45.2 21.4 C 45.6 21 46.1 20.6 46.7 20.6 C 46.7 20.6 46.7 21.5 46.7 21.5 C 46.6 21.4 46.5 21.4 46.4 21.4 C 46 21.4 45.4 21.7 45.2 22.1 C 45.24 22.06 45.2 25.1 45.2 25.1 L 44.4 25.1 L 44.4 20.7 Z M 47.3 19.5 C 47.3 19.2 47.5 19 47.8 19 C 48.1 19 48.3 19.2 48.3 19.5 C 48.3 19.8 48.1 20 47.8 20 C 47.5 20 47.3 19.8 47.3 19.5 Z M 47.4 20.7 L 48.2 20.7 L 48.2 25.1 L 47.4 25.1 L 47.4 20.7 Z M 51.3 20.6 C 52.2 20.6 52.6 21 53 21.4 C 53 21.4 52.4 21.9 52.4 21.9 C 52.2 21.5 51.8 21.4 51.4 21.4 C 50.5 21.4 50 22 50 22.9 C 50 23.8 50.5 24.5 51.4 24.5 C 51.8 24.5 52.2 24.3 52.4 23.9 C 52.4 23.9 53 24.4 53 24.4 C 52.6 24.9 52.2 25.2 51.3 25.2 C 50 25.2 49.1 24.2 49.1 22.9 C 49.1 21.6 50 20.6 51.3 20.6 Z M 55.7 20.6 C 57 20.6 57.8 21.6 57.8 23 C 57.79 22.98 57.8 23.2 57.8 23.2 C 57.8 23.2 54.35 23.18 54.3 23.2 C 54.4 23.9 55 24.5 55.8 24.5 C 56.3 24.5 56.8 24.3 57.1 24 C 57.1 24 57.5 24.5 57.5 24.5 C 57.1 25 56.4 25.2 55.7 25.2 C 54.4 25.2 53.5 24.3 53.5 22.9 C 53.5 21.6 54.4 20.6 55.7 20.6 Z M 54.3 22.6 C 54.3 22.6 57 22.6 57 22.6 C 57 22 56.6 21.3 55.7 21.3 C 54.8 21.3 54.4 22 54.3 22.6 Z " stroke="none" fill="#3797ef"/>
  </g>
  <g id="Polygon236769">
    <path d="M 6.1 9.3 C 6.1 9.3 6.1 10.9 6.1 10.9 C 6.1 12.3 5.4 13 4.2 13.1 C 4.19 13.15 4.2 14.3 4.2 14.3 L 2.5 14.3 C 2.5 14.3 2.54 13.17 2.5 13.2 C 1.3 13 0.6 12.3 0.6 10.9 C 0.58 10.88 0.6 8.9 0.6 8.9 L 2.4 8.9 C 2.4 8.9 2.4 10.62 2.4 10.6 C 2.4 11.3 2.8 11.6 3.4 11.6 C 3.9 11.6 4.3 11.3 4.3 10.6 C 4.3 10.6 4.3 9.7 4.3 9.7 C 4.3 9.2 4.1 8.9 3.6 8.6 C 3.6 8.6 2.3 7.8 2.3 7.8 C 1.2 7.2 0.6 6.7 0.6 5.5 C 0.6 5.5 0.6 4.1 0.6 4.1 C 0.6 2.7 1.4 2 2.5 1.8 C 2.54 1.82 2.5 0.6 2.5 0.6 L 4.2 0.6 C 4.2 0.6 4.19 1.82 4.2 1.8 C 5.3 2 6.1 2.7 6.1 4.1 C 6.11 4.06 6.1 5.9 6.1 5.9 L 4.3 5.9 C 4.3 5.9 4.29 4.32 4.3 4.3 C 4.3 3.6 3.9 3.4 3.3 3.4 C 2.8 3.4 2.4 3.6 2.4 4.3 C 2.4 4.3 2.4 5.1 2.4 5.1 C 2.4 5.7 2.6 5.9 3.1 6.2 C 3.1 6.2 4.4 7 4.4 7 C 5.5 7.6 6.1 8.1 6.1 9.3 Z M 12.8 4.1 C 12.8 4.1 12.8 10.8 12.8 10.8 C 12.8 12.5 11.8 13.2 10.1 13.2 C 10.1 13.2 10 13.2 10 13.2 C 8.3 13.2 7.3 12.5 7.3 10.8 C 7.3 10.8 7.3 4.1 7.3 4.1 C 7.3 2.4 8.3 1.8 10 1.8 C 10 1.8 10.1 1.8 10.1 1.8 C 11.8 1.8 12.8 2.4 12.8 4.1 Z M 10 3.4 C 9.4 3.4 9.1 3.6 9.1 4.4 C 9.1 4.4 9.1 10.6 9.1 10.6 C 9.1 11.4 9.4 11.6 10 11.6 C 10.6 11.6 11 11.4 11 10.6 C 11 10.6 11 4.4 11 4.4 C 11 3.6 10.6 3.4 10 3.4 Z M 15.8 12.6 C 15.8 13.6 15.3 14.6 14.8 15.2 C 14.8 15.2 14.1 14.8 14.1 14.8 C 14.4 14.3 14.8 13.6 14.8 13.1 C 14.83 13.09 14 13.1 14 13.1 L 14 11 L 15.8 11 C 15.8 11 15.81 12.61 15.8 12.6 Z M 22.5 4.1 C 22.5 4.1 22.5 10.8 22.5 10.8 C 22.5 12.5 21.5 13.2 19.8 13.2 C 19.8 13.2 19.7 13.2 19.7 13.2 C 18 13.2 17 12.5 17 10.8 C 17 10.8 17 4.1 17 4.1 C 17 2.4 18 1.8 19.7 1.8 C 19.7 1.8 19.8 1.8 19.8 1.8 C 21.5 1.8 22.5 2.4 22.5 4.1 Z M 19.8 3.4 C 19.2 3.4 18.8 3.6 18.8 4.4 C 18.8 4.4 18.8 10.6 18.8 10.6 C 18.8 11.4 19.2 11.6 19.8 11.6 C 20.4 11.6 20.7 11.4 20.7 10.6 C 20.7 10.6 20.7 4.4 20.7 4.4 C 20.7 3.6 20.4 3.4 19.8 3.4 Z M 29.3 4.1 C 29.3 4.1 29.3 10.8 29.3 10.8 C 29.3 12.5 28.3 13.2 26.7 13.2 C 26.7 13.2 26.5 13.2 26.5 13.2 C 24.8 13.2 23.8 12.5 23.8 10.8 C 23.8 10.8 23.8 4.1 23.8 4.1 C 23.8 2.4 24.8 1.8 26.5 1.8 C 26.5 1.8 26.7 1.8 26.7 1.8 C 28.3 1.8 29.3 2.4 29.3 4.1 Z M 26.6 3.4 C 26 3.4 25.6 3.6 25.6 4.4 C 25.6 4.4 25.6 10.6 25.6 10.6 C 25.6 11.4 26 11.6 26.6 11.6 C 27.2 11.6 27.6 11.4 27.6 10.6 C 27.6 10.6 27.6 4.4 27.6 4.4 C 27.6 3.6 27.2 3.4 26.6 3.4 Z M 36.2 4.1 C 36.2 4.1 36.2 10.8 36.2 10.8 C 36.2 12.5 35.2 13.2 33.5 13.2 C 33.5 13.2 33.3 13.2 33.3 13.2 C 31.7 13.2 30.7 12.5 30.7 10.8 C 30.7 10.8 30.7 4.1 30.7 4.1 C 30.7 2.4 31.7 1.8 33.3 1.8 C 33.3 1.8 33.5 1.8 33.5 1.8 C 35.2 1.8 36.2 2.4 36.2 4.1 Z M 33.4 3.4 C 32.8 3.4 32.4 3.6 32.4 4.4 C 32.4 4.4 32.4 10.6 32.4 10.6 C 32.4 11.4 32.8 11.6 33.4 11.6 C 34 11.6 34.4 11.4 34.4 10.6 C 34.4 10.6 34.4 4.4 34.4 4.4 C 34.4 3.6 34 3.4 33.4 3.4 Z M 39.2 12.6 C 39.2 13.6 38.7 14.6 38.2 15.2 C 38.2 15.2 37.5 14.8 37.5 14.8 C 37.8 14.3 38.1 13.6 38.2 13.1 C 38.22 13.09 37.4 13.1 37.4 13.1 L 37.4 11 L 39.2 11 C 39.2 11 39.2 12.61 39.2 12.6 Z M 45.9 4.1 C 45.9 4.1 45.9 10.8 45.9 10.8 C 45.9 12.5 44.9 13.2 43.2 13.2 C 43.2 13.2 43.1 13.2 43.1 13.2 C 41.4 13.2 40.4 12.5 40.4 10.8 C 40.4 10.8 40.4 4.1 40.4 4.1 C 40.4 2.4 41.4 1.8 43.1 1.8 C 43.1 1.8 43.2 1.8 43.2 1.8 C 44.9 1.8 45.9 2.4 45.9 4.1 Z M 43.2 3.4 C 42.6 3.4 42.2 3.6 42.2 4.4 C 42.2 4.4 42.2 10.6 42.2 10.6 C 42.2 11.4 42.6 11.6 43.2 11.6 C 43.8 11.6 44.1 11.4 44.1 10.6 C 44.1 10.6 44.1 4.4 44.1 4.4 C 44.1 3.6 43.8 3.4 43.2 3.4 Z M 52.7 4.1 C 52.7 4.1 52.7 10.8 52.7 10.8 C 52.7 12.5 51.7 13.2 50 13.2 C 50 13.2 49.9 13.2 49.9 13.2 C 48.2 13.2 47.2 12.5 47.2 10.8 C 47.2 10.8 47.2 4.1 47.2 4.1 C 47.2 2.4 48.2 1.8 49.9 1.8 C 49.9 1.8 50 1.8 50 1.8 C 51.7 1.8 52.7 2.4 52.7 4.1 Z M 50 3.4 C 49.4 3.4 49 3.6 49 4.4 C 49 4.4 49 10.6 49 10.6 C 49 11.4 49.4 11.6 50 11.6 C 50.6 11.6 50.9 11.4 50.9 10.6 C 50.9 10.6 50.9 4.4 50.9 4.4 C 50.9 3.6 50.6 3.4 50 3.4 Z M 59.6 4.1 C 59.6 4.1 59.6 10.8 59.6 10.8 C 59.6 12.5 58.5 13.2 56.9 13.2 C 56.9 13.2 56.7 13.2 56.7 13.2 C 55.1 13.2 54 12.5 54 10.8 C 54 10.8 54 4.1 54 4.1 C 54 2.4 55.1 1.8 56.7 1.8 C 56.7 1.8 56.9 1.8 56.9 1.8 C 58.5 1.8 59.6 2.4 59.6 4.1 Z M 56.8 3.4 C 56.2 3.4 55.8 3.6 55.8 4.4 C 55.8 4.4 55.8 10.6 55.8 10.6 C 55.8 11.4 56.2 11.6 56.8 11.6 C 57.4 11.6 57.8 11.4 57.8 10.6 C 57.8 10.6 57.8 4.4 57.8 4.4 C 57.8 3.6 57.4 3.4 56.8 3.4 Z " stroke="none" fill="#282828"/>
  </g>
</svg>