<?xml version="1.0" standalone="no"?>
<!DOCTYPE svg PUBLIC "-//W3C//DTD SVG 1.1//EN" "http://www.w3.org/Graphics/SVG/1.1/DTD/svg11.dtd">
<svg xmlns="http://www.w3.org/2000/svg" version="1.1" width="201px" height="249.9px" viewBox="0 -6 201 249.9" style="top:-6px">
  <desc>Lorem Ipsum Lorem Ipsum Lorem Ipsum Lorem Ipsum Lorem Ipsum Lorem Ipsum Lorem Ipsum Lorem Ipsum</desc>
  <defs/>
  <g id="Polygon241299">
    <path d="M 115.3 224.3 L 116.2 224.3 L 116.2 234.1 L 121.4 234.1 L 121.4 234.9 L 115.3 234.9 L 115.3 224.3 Z M 122.3 231.1 C 122.3 228.8 123.7 227 126 227 C 128.2 227 129.7 228.8 129.7 231.1 C 129.7 233.3 128.2 235.1 126 235.1 C 123.7 235.1 122.3 233.3 122.3 231.1 Z M 128.8 231.1 C 128.8 229.4 127.8 227.8 126 227.8 C 124.2 227.8 123.2 229.4 123.2 231.1 C 123.2 232.8 124.2 234.3 126 234.3 C 127.8 234.3 128.8 232.8 128.8 231.1 Z M 131.6 227.2 L 132.5 227.2 C 132.5 227.2 132.46 228.55 132.5 228.5 C 133.1 227.7 134 227.1 135 227.1 C 135 227.1 135 228 135 228 C 134.9 228 134.8 227.9 134.6 227.9 C 133.9 227.9 132.8 228.6 132.5 229.3 C 132.46 229.31 132.5 234.9 132.5 234.9 L 131.6 234.9 L 131.6 227.2 Z M 139.8 227 C 142.1 227 143.4 228.9 143.4 231.1 C 143.39 231.1 143.4 231.3 143.4 231.3 C 143.4 231.3 136.97 231.33 137 231.3 C 137 233 138.2 234.4 140 234.4 C 140.9 234.4 141.8 234 142.5 233.3 C 142.5 233.3 142.9 233.9 142.9 233.9 C 142.1 234.6 141.2 235.1 139.9 235.1 C 137.7 235.1 136.1 233.4 136.1 231.1 C 136.1 228.8 137.6 227 139.8 227 Z M 137 230.7 C 137 230.7 142.5 230.7 142.5 230.7 C 142.5 229.4 141.7 227.8 139.8 227.8 C 137.9 227.8 137 229.3 137 230.7 Z M 154.5 229.5 C 154.5 228.5 154 227.8 152.9 227.8 C 152.1 227.8 151.2 228.4 150.8 229.1 C 150.76 229.09 150.8 234.9 150.8 234.9 L 149.9 234.9 C 149.9 234.9 149.92 229.53 149.9 229.5 C 149.9 228.5 149.5 227.8 148.4 227.8 C 147.6 227.8 146.6 228.4 146.2 229.1 C 146.18 229.1 146.2 234.9 146.2 234.9 L 145.4 234.9 L 145.4 227.2 L 146.2 227.2 C 146.2 227.2 146.18 228.39 146.2 228.4 C 146.5 227.9 147.5 227 148.7 227 C 149.9 227 150.5 227.7 150.7 228.5 C 151.1 227.8 152.1 227 153.2 227 C 154.6 227 155.3 227.8 155.3 229.4 C 155.31 229.37 155.3 234.9 155.3 234.9 L 154.5 234.9 C 154.5 234.9 154.49 229.53 154.5 229.5 Z M 161.7 224.3 L 162.6 224.3 L 162.6 234.9 L 161.7 234.9 L 161.7 224.3 Z M 165.1 237.8 L 165.1 227.2 L 165.9 227.2 C 165.9 227.2 165.89 228.45 165.9 228.5 C 166.4 227.7 167.4 227 168.6 227 C 170.6 227 172 228.6 172 231.1 C 172 233.5 170.6 235.1 168.6 235.1 C 167.5 235.1 166.5 234.5 165.9 233.7 C 165.89 233.66 165.9 237.8 165.9 237.8 L 165.1 237.8 Z M 168.4 227.8 C 167.4 227.8 166.3 228.4 165.9 229.2 C 165.9 229.2 165.9 232.9 165.9 232.9 C 166.3 233.7 167.4 234.3 168.4 234.3 C 170.1 234.3 171.1 232.9 171.1 231.1 C 171.1 229.2 170.1 227.8 168.4 227.8 Z M 173.8 233.3 C 174.3 233.9 175.2 234.4 176.3 234.4 C 177.5 234.4 178.3 233.8 178.3 232.9 C 178.3 231.9 177.3 231.6 176.2 231.3 C 174.9 231 173.5 230.7 173.5 229.2 C 173.5 228 174.5 227 176.2 227 C 177.5 227 178.4 227.5 178.9 228.2 C 178.9 228.2 178.5 228.8 178.5 228.8 C 178 228.1 177.2 227.7 176.2 227.7 C 175 227.7 174.3 228.3 174.3 229.1 C 174.3 230 175.3 230.2 176.3 230.5 C 177.6 230.8 179.1 231.2 179.1 232.8 C 179.1 234.1 178.2 235.1 176.2 235.1 C 175 235.1 174.1 234.7 173.3 233.9 C 173.3 233.9 173.8 233.3 173.8 233.3 Z M 186.3 233.8 C 185.6 234.5 184.6 235.1 183.5 235.1 C 181.9 235.1 181.1 234.4 181.1 232.6 C 181.09 232.63 181.1 227.2 181.1 227.2 L 181.9 227.2 C 181.9 227.2 181.92 232.44 181.9 232.4 C 181.9 233.9 182.7 234.3 183.8 234.3 C 184.8 234.3 185.8 233.8 186.3 233.1 C 186.27 233.07 186.3 227.2 186.3 227.2 L 187.1 227.2 L 187.1 234.9 L 186.3 234.9 C 186.3 234.9 186.27 233.77 186.3 233.8 Z M 198.6 229.5 C 198.6 228.5 198.2 227.8 197.1 227.8 C 196.3 227.8 195.3 228.4 194.9 229.1 C 194.91 229.09 194.9 234.9 194.9 234.9 L 194.1 234.9 C 194.1 234.9 194.07 229.53 194.1 229.5 C 194.1 228.5 193.6 227.8 192.5 227.8 C 191.7 227.8 190.8 228.4 190.3 229.1 C 190.33 229.1 190.3 234.9 190.3 234.9 L 189.5 234.9 L 189.5 227.2 L 190.3 227.2 C 190.3 227.2 190.33 228.39 190.3 228.4 C 190.7 227.9 191.7 227 192.8 227 C 194 227 194.6 227.7 194.8 228.5 C 195.3 227.8 196.3 227 197.4 227 C 198.8 227 199.5 227.8 199.5 229.4 C 199.47 229.37 199.5 234.9 199.5 234.9 L 198.6 234.9 C 198.6 234.9 198.64 229.53 198.6 229.5 Z " stroke="none" fill="#242423"/>
  </g>
  <g id="Polygon241298">
    <path d="M 115.3 192.5 L 116.2 192.5 L 116.2 202.3 L 121.4 202.3 L 121.4 203.1 L 115.3 203.1 L 115.3 192.5 Z M 122.3 199.3 C 122.3 197.1 123.7 195.3 126 195.3 C 128.2 195.3 129.7 197.1 129.7 199.3 C 129.7 201.5 128.2 203.3 126 203.3 C 123.7 203.3 122.3 201.5 122.3 199.3 Z M 128.8 199.3 C 128.8 197.6 127.8 196 126 196 C 124.2 196 123.2 197.6 123.2 199.3 C 123.2 201 124.2 202.6 126 202.6 C 127.8 202.6 128.8 201 128.8 199.3 Z M 131.6 195.5 L 132.5 195.5 C 132.5 195.5 132.46 196.78 132.5 196.8 C 133.1 195.9 134 195.3 135 195.3 C 135 195.3 135 196.2 135 196.2 C 134.9 196.2 134.8 196.2 134.6 196.2 C 133.9 196.2 132.8 196.9 132.5 197.5 C 132.46 197.54 132.5 203.1 132.5 203.1 L 131.6 203.1 L 131.6 195.5 Z M 139.8 195.3 C 142.1 195.3 143.4 197.1 143.4 199.3 C 143.39 199.34 143.4 199.6 143.4 199.6 C 143.4 199.6 136.97 199.56 137 199.6 C 137 201.2 138.2 202.6 140 202.6 C 140.9 202.6 141.8 202.2 142.5 201.5 C 142.5 201.5 142.9 202.1 142.9 202.1 C 142.1 202.9 141.2 203.3 139.9 203.3 C 137.7 203.3 136.1 201.7 136.1 199.3 C 136.1 197.1 137.6 195.3 139.8 195.3 Z M 137 198.9 C 137 198.9 142.5 198.9 142.5 198.9 C 142.5 197.6 141.7 196 139.8 196 C 137.9 196 137 197.6 137 198.9 Z M 154.5 197.8 C 154.5 196.7 154 196 152.9 196 C 152.1 196 151.2 196.6 150.8 197.3 C 150.76 197.32 150.8 203.1 150.8 203.1 L 149.9 203.1 C 149.9 203.1 149.92 197.77 149.9 197.8 C 149.9 196.7 149.5 196 148.4 196 C 147.6 196 146.6 196.6 146.2 197.3 C 146.18 197.34 146.2 203.1 146.2 203.1 L 145.4 203.1 L 145.4 195.5 L 146.2 195.5 C 146.2 195.5 146.18 196.62 146.2 196.6 C 146.5 196.1 147.5 195.3 148.7 195.3 C 149.9 195.3 150.5 196 150.7 196.7 C 151.1 196 152.1 195.3 153.2 195.3 C 154.6 195.3 155.3 196.1 155.3 197.6 C 155.31 197.61 155.3 203.1 155.3 203.1 L 154.5 203.1 C 154.5 203.1 154.49 197.77 154.5 197.8 Z M 161.7 192.5 L 162.6 192.5 L 162.6 203.1 L 161.7 203.1 L 161.7 192.5 Z M 165.1 206.1 L 165.1 195.5 L 165.9 195.5 C 165.9 195.5 165.89 196.69 165.9 196.7 C 166.4 195.9 167.4 195.3 168.6 195.3 C 170.6 195.3 172 196.8 172 199.3 C 172 201.7 170.6 203.3 168.6 203.3 C 167.5 203.3 166.5 202.8 165.9 201.9 C 165.89 201.9 165.9 206.1 165.9 206.1 L 165.1 206.1 Z M 168.4 196 C 167.4 196 166.3 196.7 165.9 197.4 C 165.9 197.4 165.9 201.2 165.9 201.2 C 166.3 201.9 167.4 202.6 168.4 202.6 C 170.1 202.6 171.1 201.2 171.1 199.3 C 171.1 197.4 170.1 196 168.4 196 Z M 173.8 201.5 C 174.3 202.1 175.2 202.6 176.3 202.6 C 177.5 202.6 178.3 202 178.3 201.1 C 178.3 200.1 177.3 199.8 176.2 199.5 C 174.9 199.2 173.5 198.9 173.5 197.4 C 173.5 196.2 174.5 195.3 176.2 195.3 C 177.5 195.3 178.4 195.8 178.9 196.4 C 178.9 196.4 178.5 197 178.5 197 C 178 196.4 177.2 196 176.2 196 C 175 196 174.3 196.6 174.3 197.4 C 174.3 198.2 175.3 198.5 176.3 198.7 C 177.6 199.1 179.1 199.4 179.1 201.1 C 179.1 202.3 178.2 203.3 176.2 203.3 C 175 203.3 174.1 203 173.3 202.1 C 173.3 202.1 173.8 201.5 173.8 201.5 Z M 186.3 202 C 185.6 202.7 184.6 203.3 183.5 203.3 C 181.9 203.3 181.1 202.6 181.1 200.9 C 181.09 200.87 181.1 195.5 181.1 195.5 L 181.9 195.5 C 181.9 195.5 181.92 200.67 181.9 200.7 C 181.9 202.2 182.7 202.6 183.8 202.6 C 184.8 202.6 185.8 202 186.3 201.3 C 186.27 201.31 186.3 195.5 186.3 195.5 L 187.1 195.5 L 187.1 203.1 L 186.3 203.1 C 186.3 203.1 186.27 202.01 186.3 202 Z M 198.6 197.8 C 198.6 196.7 198.2 196 197.1 196 C 196.3 196 195.3 196.6 194.9 197.3 C 194.91 197.32 194.9 203.1 194.9 203.1 L 194.1 203.1 C 194.1 203.1 194.07 197.77 194.1 197.8 C 194.1 196.7 193.6 196 192.5 196 C 191.7 196 190.8 196.6 190.3 197.3 C 190.33 197.34 190.3 203.1 190.3 203.1 L 189.5 203.1 L 189.5 195.5 L 190.3 195.5 C 190.3 195.5 190.33 196.62 190.3 196.6 C 190.7 196.1 191.7 195.3 192.8 195.3 C 194 195.3 194.6 196 194.8 196.7 C 195.3 196 196.3 195.3 197.4 195.3 C 198.8 195.3 199.5 196.1 199.5 197.6 C 199.47 197.61 199.5 203.1 199.5 203.1 L 198.6 203.1 C 198.6 203.1 198.64 197.77 198.6 197.8 Z " stroke="none" fill="#242423"/>
  </g>
  <g id="Polygon241297">
    <path d="M 115.3 160.8 L 116.2 160.8 L 116.2 170.5 L 121.4 170.5 L 121.4 171.4 L 115.3 171.4 L 115.3 160.8 Z M 122.3 167.5 C 122.3 165.3 123.7 163.5 126 163.5 C 128.2 163.5 129.7 165.3 129.7 167.5 C 129.7 169.8 128.2 171.6 126 171.6 C 123.7 171.6 122.3 169.8 122.3 167.5 Z M 128.8 167.5 C 128.8 165.8 127.8 164.3 126 164.3 C 124.2 164.3 123.2 165.8 123.2 167.5 C 123.2 169.2 124.2 170.8 126 170.8 C 127.8 170.8 128.8 169.2 128.8 167.5 Z M 131.6 163.7 L 132.5 163.7 C 132.5 163.7 132.46 165.02 132.5 165 C 133.1 164.2 134 163.5 135 163.5 C 135 163.5 135 164.4 135 164.4 C 134.9 164.4 134.8 164.4 134.6 164.4 C 133.9 164.4 132.8 165.1 132.5 165.8 C 132.46 165.78 132.5 171.4 132.5 171.4 L 131.6 171.4 L 131.6 163.7 Z M 139.8 163.5 C 142.1 163.5 143.4 165.4 143.4 167.6 C 143.39 167.57 143.4 167.8 143.4 167.8 C 143.4 167.8 136.97 167.8 137 167.8 C 137 169.5 138.2 170.8 140 170.8 C 140.9 170.8 141.8 170.5 142.5 169.8 C 142.5 169.8 142.9 170.3 142.9 170.3 C 142.1 171.1 141.2 171.6 139.9 171.6 C 137.7 171.6 136.1 169.9 136.1 167.5 C 136.1 165.3 137.6 163.5 139.8 163.5 Z M 137 167.1 C 137 167.1 142.5 167.1 142.5 167.1 C 142.5 165.8 141.7 164.2 139.8 164.2 C 137.9 164.2 137 165.8 137 167.1 Z M 154.5 166 C 154.5 164.9 154 164.3 152.9 164.3 C 152.1 164.3 151.2 164.9 150.8 165.6 C 150.76 165.56 150.8 171.4 150.8 171.4 L 149.9 171.4 C 149.9 171.4 149.92 166 149.9 166 C 149.9 164.9 149.5 164.3 148.4 164.3 C 147.6 164.3 146.6 164.9 146.2 165.6 C 146.18 165.57 146.2 171.4 146.2 171.4 L 145.4 171.4 L 145.4 163.7 L 146.2 163.7 C 146.2 163.7 146.18 164.86 146.2 164.9 C 146.5 164.4 147.5 163.5 148.7 163.5 C 149.9 163.5 150.5 164.2 150.7 165 C 151.1 164.2 152.1 163.5 153.2 163.5 C 154.6 163.5 155.3 164.3 155.3 165.8 C 155.31 165.84 155.3 171.4 155.3 171.4 L 154.5 171.4 C 154.5 171.4 154.49 166 154.5 166 Z M 161.7 160.8 L 162.6 160.8 L 162.6 171.4 L 161.7 171.4 L 161.7 160.8 Z M 165.1 174.3 L 165.1 163.7 L 165.9 163.7 C 165.9 163.7 165.89 164.92 165.9 164.9 C 166.4 164.1 167.4 163.5 168.6 163.5 C 170.6 163.5 172 165.1 172 167.5 C 172 170 170.6 171.6 168.6 171.6 C 167.5 171.6 166.5 171 165.9 170.1 C 165.89 170.13 165.9 174.3 165.9 174.3 L 165.1 174.3 Z M 168.4 164.3 C 167.4 164.3 166.3 164.9 165.9 165.6 C 165.9 165.6 165.9 169.4 165.9 169.4 C 166.3 170.1 167.4 170.8 168.4 170.8 C 170.1 170.8 171.1 169.4 171.1 167.5 C 171.1 165.7 170.1 164.3 168.4 164.3 Z M 173.8 169.7 C 174.3 170.4 175.2 170.9 176.3 170.9 C 177.5 170.9 178.3 170.2 178.3 169.3 C 178.3 168.4 177.3 168.1 176.2 167.8 C 174.9 167.5 173.5 167.1 173.5 165.6 C 173.5 164.5 174.5 163.5 176.2 163.5 C 177.5 163.5 178.4 164 178.9 164.7 C 178.9 164.7 178.5 165.2 178.5 165.2 C 178 164.6 177.2 164.2 176.2 164.2 C 175 164.2 174.3 164.8 174.3 165.6 C 174.3 166.5 175.3 166.7 176.3 167 C 177.6 167.3 179.1 167.7 179.1 169.3 C 179.1 170.5 178.2 171.6 176.2 171.6 C 175 171.6 174.1 171.2 173.3 170.4 C 173.3 170.4 173.8 169.7 173.8 169.7 Z M 186.3 170.2 C 185.6 170.9 184.6 171.6 183.5 171.6 C 181.9 171.6 181.1 170.8 181.1 169.1 C 181.09 169.1 181.1 163.7 181.1 163.7 L 181.9 163.7 C 181.9 163.7 181.92 168.91 181.9 168.9 C 181.9 170.4 182.7 170.8 183.8 170.8 C 184.8 170.8 185.8 170.2 186.3 169.5 C 186.27 169.55 186.3 163.7 186.3 163.7 L 187.1 163.7 L 187.1 171.4 L 186.3 171.4 C 186.3 171.4 186.27 170.24 186.3 170.2 Z M 198.6 166 C 198.6 164.9 198.2 164.3 197.1 164.3 C 196.3 164.3 195.3 164.9 194.9 165.6 C 194.91 165.56 194.9 171.4 194.9 171.4 L 194.1 171.4 C 194.1 171.4 194.07 166 194.1 166 C 194.1 164.9 193.6 164.3 192.5 164.3 C 191.7 164.3 190.8 164.9 190.3 165.6 C 190.33 165.57 190.3 171.4 190.3 171.4 L 189.5 171.4 L 189.5 163.7 L 190.3 163.7 C 190.3 163.7 190.33 164.86 190.3 164.9 C 190.7 164.4 191.7 163.5 192.8 163.5 C 194 163.5 194.6 164.2 194.8 165 C 195.3 164.2 196.3 163.5 197.4 163.5 C 198.8 163.5 199.5 164.3 199.5 165.8 C 199.47 165.84 199.5 171.4 199.5 171.4 L 198.6 171.4 C 198.6 171.4 198.64 166 198.6 166 Z " stroke="none" fill="#242423"/>
  </g>
  <g id="Polygon241296">
    <path d="M 115.3 129 L 116.2 129 L 116.2 138.8 L 121.4 138.8 L 121.4 139.6 L 115.3 139.6 L 115.3 129 Z M 122.3 135.8 C 122.3 133.5 123.7 131.7 126 131.7 C 128.2 131.7 129.7 133.5 129.7 135.8 C 129.7 138 128.2 139.8 126 139.8 C 123.7 139.8 122.3 138 122.3 135.8 Z M 128.8 135.8 C 128.8 134.1 127.8 132.5 126 132.5 C 124.2 132.5 123.2 134.1 123.2 135.8 C 123.2 137.5 124.2 139.1 126 139.1 C 127.8 139.1 128.8 137.5 128.8 135.8 Z M 131.6 131.9 L 132.5 131.9 C 132.5 131.9 132.46 133.25 132.5 133.3 C 133.1 132.4 134 131.8 135 131.8 C 135 131.8 135 132.7 135 132.7 C 134.9 132.7 134.8 132.6 134.6 132.6 C 133.9 132.6 132.8 133.3 132.5 134 C 132.46 134.01 132.5 139.6 132.5 139.6 L 131.6 139.6 L 131.6 131.9 Z M 139.8 131.7 C 142.1 131.7 143.4 133.6 143.4 135.8 C 143.39 135.81 143.4 136 143.4 136 C 143.4 136 136.97 136.03 137 136 C 137 137.7 138.2 139.1 140 139.1 C 140.9 139.1 141.8 138.7 142.5 138 C 142.5 138 142.9 138.6 142.9 138.6 C 142.1 139.4 141.2 139.8 139.9 139.8 C 137.7 139.8 136.1 138.1 136.1 135.8 C 136.1 133.5 137.6 131.7 139.8 131.7 Z M 137 135.4 C 137 135.4 142.5 135.4 142.5 135.4 C 142.5 134.1 141.7 132.5 139.8 132.5 C 137.9 132.5 137 134 137 135.4 Z M 154.5 134.2 C 154.5 133.2 154 132.5 152.9 132.5 C 152.1 132.5 151.2 133.1 150.8 133.8 C 150.76 133.79 150.8 139.6 150.8 139.6 L 149.9 139.6 C 149.9 139.6 149.92 134.24 149.9 134.2 C 149.9 133.2 149.5 132.5 148.4 132.5 C 147.6 132.5 146.6 133.1 146.2 133.8 C 146.18 133.81 146.2 139.6 146.2 139.6 L 145.4 139.6 L 145.4 131.9 L 146.2 131.9 C 146.2 131.9 146.18 133.09 146.2 133.1 C 146.5 132.6 147.5 131.7 148.7 131.7 C 149.9 131.7 150.5 132.4 150.7 133.2 C 151.1 132.5 152.1 131.7 153.2 131.7 C 154.6 131.7 155.3 132.5 155.3 134.1 C 155.31 134.08 155.3 139.6 155.3 139.6 L 154.5 139.6 C 154.5 139.6 154.49 134.24 154.5 134.2 Z M 161.7 129 L 162.6 129 L 162.6 139.6 L 161.7 139.6 L 161.7 129 Z M 165.1 142.5 L 165.1 131.9 L 165.9 131.9 C 165.9 131.9 165.89 133.16 165.9 133.2 C 166.4 132.4 167.4 131.7 168.6 131.7 C 170.6 131.7 172 133.3 172 135.8 C 172 138.2 170.6 139.8 168.6 139.8 C 167.5 139.8 166.5 139.2 165.9 138.4 C 165.89 138.37 165.9 142.5 165.9 142.5 L 165.1 142.5 Z M 168.4 132.5 C 167.4 132.5 166.3 133.1 165.9 133.9 C 165.9 133.9 165.9 137.7 165.9 137.7 C 166.3 138.4 167.4 139.1 168.4 139.1 C 170.1 139.1 171.1 137.6 171.1 135.8 C 171.1 133.9 170.1 132.5 168.4 132.5 Z M 173.8 138 C 174.3 138.6 175.2 139.1 176.3 139.1 C 177.5 139.1 178.3 138.5 178.3 137.6 C 178.3 136.6 177.3 136.3 176.2 136 C 174.9 135.7 173.5 135.4 173.5 133.9 C 173.5 132.7 174.5 131.7 176.2 131.7 C 177.5 131.7 178.4 132.3 178.9 132.9 C 178.9 132.9 178.5 133.5 178.5 133.5 C 178 132.9 177.2 132.4 176.2 132.4 C 175 132.4 174.3 133 174.3 133.8 C 174.3 134.7 175.3 134.9 176.3 135.2 C 177.6 135.5 179.1 135.9 179.1 137.5 C 179.1 138.8 178.2 139.8 176.2 139.8 C 175 139.8 174.1 139.4 173.3 138.6 C 173.3 138.6 173.8 138 173.8 138 Z M 186.3 138.5 C 185.6 139.2 184.6 139.8 183.5 139.8 C 181.9 139.8 181.1 139.1 181.1 137.3 C 181.09 137.34 181.1 131.9 181.1 131.9 L 181.9 131.9 C 181.9 131.9 181.92 137.15 181.9 137.1 C 181.9 138.6 182.7 139.1 183.8 139.1 C 184.8 139.1 185.8 138.5 186.3 137.8 C 186.27 137.78 186.3 131.9 186.3 131.9 L 187.1 131.9 L 187.1 139.6 L 186.3 139.6 C 186.3 139.6 186.27 138.48 186.3 138.5 Z M 198.6 134.2 C 198.6 133.2 198.2 132.5 197.1 132.5 C 196.3 132.5 195.3 133.1 194.9 133.8 C 194.91 133.79 194.9 139.6 194.9 139.6 L 194.1 139.6 C 194.1 139.6 194.07 134.24 194.1 134.2 C 194.1 133.2 193.6 132.5 192.5 132.5 C 191.7 132.5 190.8 133.1 190.3 133.8 C 190.33 133.81 190.3 139.6 190.3 139.6 L 189.5 139.6 L 189.5 131.9 L 190.3 131.9 C 190.3 131.9 190.33 133.09 190.3 133.1 C 190.7 132.6 191.7 131.7 192.8 131.7 C 194 131.7 194.6 132.4 194.8 133.2 C 195.3 132.5 196.3 131.7 197.4 131.7 C 198.8 131.7 199.5 132.5 199.5 134.1 C 199.47 134.08 199.5 139.6 199.5 139.6 L 198.6 139.6 C 198.6 139.6 198.64 134.24 198.6 134.2 Z " stroke="none" fill="#242423"/>
  </g>
  <g id="Polygon241295">
    <path d="M 115.3 97.2 L 116.2 97.2 L 116.2 107 L 121.4 107 L 121.4 107.8 L 115.3 107.8 L 115.3 97.2 Z M 122.3 104 C 122.3 101.8 123.7 100 126 100 C 128.2 100 129.7 101.8 129.7 104 C 129.7 106.2 128.2 108 126 108 C 123.7 108 122.3 106.2 122.3 104 Z M 128.8 104 C 128.8 102.3 127.8 100.7 126 100.7 C 124.2 100.7 123.2 102.3 123.2 104 C 123.2 105.7 124.2 107.3 126 107.3 C 127.8 107.3 128.8 105.7 128.8 104 Z M 131.6 100.2 L 132.5 100.2 C 132.5 100.2 132.46 101.49 132.5 101.5 C 133.1 100.6 134 100 135 100 C 135 100 135 100.9 135 100.9 C 134.9 100.9 134.8 100.9 134.6 100.9 C 133.9 100.9 132.8 101.6 132.5 102.2 C 132.46 102.25 132.5 107.8 132.5 107.8 L 131.6 107.8 L 131.6 100.2 Z M 139.8 100 C 142.1 100 143.4 101.8 143.4 104 C 143.39 104.04 143.4 104.3 143.4 104.3 C 143.4 104.3 136.97 104.27 137 104.3 C 137 105.9 138.2 107.3 140 107.3 C 140.9 107.3 141.8 107 142.5 106.3 C 142.5 106.3 142.9 106.8 142.9 106.8 C 142.1 107.6 141.2 108 139.9 108 C 137.7 108 136.1 106.4 136.1 104 C 136.1 101.8 137.6 100 139.8 100 Z M 137 103.6 C 137 103.6 142.5 103.6 142.5 103.6 C 142.5 102.3 141.7 100.7 139.8 100.7 C 137.9 100.7 137 102.3 137 103.6 Z M 154.5 102.5 C 154.5 101.4 154 100.7 152.9 100.7 C 152.1 100.7 151.2 101.3 150.8 102 C 150.76 102.03 150.8 107.8 150.8 107.8 L 149.9 107.8 C 149.9 107.8 149.92 102.47 149.9 102.5 C 149.9 101.4 149.5 100.7 148.4 100.7 C 147.6 100.7 146.6 101.3 146.2 102 C 146.18 102.04 146.2 107.8 146.2 107.8 L 145.4 107.8 L 145.4 100.2 L 146.2 100.2 C 146.2 100.2 146.18 101.33 146.2 101.3 C 146.5 100.8 147.5 100 148.7 100 C 149.9 100 150.5 100.7 150.7 101.4 C 151.1 100.7 152.1 100 153.2 100 C 154.6 100 155.3 100.8 155.3 102.3 C 155.31 102.31 155.3 107.8 155.3 107.8 L 154.5 107.8 C 154.5 107.8 154.49 102.47 154.5 102.5 Z M 161.7 97.2 L 162.6 97.2 L 162.6 107.8 L 161.7 107.8 L 161.7 97.2 Z M 165.1 110.8 L 165.1 100.2 L 165.9 100.2 C 165.9 100.2 165.89 101.39 165.9 101.4 C 166.4 100.6 167.4 100 168.6 100 C 170.6 100 172 101.5 172 104 C 172 106.4 170.6 108 168.6 108 C 167.5 108 166.5 107.5 165.9 106.6 C 165.89 106.6 165.9 110.8 165.9 110.8 L 165.1 110.8 Z M 168.4 100.7 C 167.4 100.7 166.3 101.4 165.9 102.1 C 165.9 102.1 165.9 105.9 165.9 105.9 C 166.3 106.6 167.4 107.3 168.4 107.3 C 170.1 107.3 171.1 105.9 171.1 104 C 171.1 102.1 170.1 100.7 168.4 100.7 Z M 173.8 106.2 C 174.3 106.8 175.2 107.3 176.3 107.3 C 177.5 107.3 178.3 106.7 178.3 105.8 C 178.3 104.8 177.3 104.5 176.2 104.3 C 174.9 103.9 173.5 103.6 173.5 102.1 C 173.5 100.9 174.5 100 176.2 100 C 177.5 100 178.4 100.5 178.9 101.1 C 178.9 101.1 178.5 101.7 178.5 101.7 C 178 101.1 177.2 100.7 176.2 100.7 C 175 100.7 174.3 101.3 174.3 102.1 C 174.3 102.9 175.3 103.2 176.3 103.4 C 177.6 103.8 179.1 104.1 179.1 105.8 C 179.1 107 178.2 108 176.2 108 C 175 108 174.1 107.7 173.3 106.8 C 173.3 106.8 173.8 106.2 173.8 106.2 Z M 186.3 106.7 C 185.6 107.4 184.6 108 183.5 108 C 181.9 108 181.1 107.3 181.1 105.6 C 181.09 105.57 181.1 100.2 181.1 100.2 L 181.9 100.2 C 181.9 100.2 181.92 105.38 181.9 105.4 C 181.9 106.9 182.7 107.3 183.8 107.3 C 184.8 107.3 185.8 106.7 186.3 106 C 186.27 106.02 186.3 100.2 186.3 100.2 L 187.1 100.2 L 187.1 107.8 L 186.3 107.8 C 186.3 107.8 186.27 106.71 186.3 106.7 Z M 198.6 102.5 C 198.6 101.4 198.2 100.7 197.1 100.7 C 196.3 100.7 195.3 101.3 194.9 102 C 194.91 102.03 194.9 107.8 194.9 107.8 L 194.1 107.8 C 194.1 107.8 194.07 102.47 194.1 102.5 C 194.1 101.4 193.6 100.7 192.5 100.7 C 191.7 100.7 190.8 101.3 190.3 102 C 190.33 102.04 190.3 107.8 190.3 107.8 L 189.5 107.8 L 189.5 100.2 L 190.3 100.2 C 190.3 100.2 190.33 101.33 190.3 101.3 C 190.7 100.8 191.7 100 192.8 100 C 194 100 194.6 100.7 194.8 101.4 C 195.3 100.7 196.3 100 197.4 100 C 198.8 100 199.5 100.8 199.5 102.3 C 199.47 102.31 199.5 107.8 199.5 107.8 L 198.6 107.8 C 198.6 107.8 198.64 102.47 198.6 102.5 Z " stroke="none" fill="#242423"/>
  </g>
  <g id="Polygon241294">
    <path d="M 115.3 65.5 L 116.2 65.5 L 116.2 75.3 L 121.4 75.3 L 121.4 76.1 L 115.3 76.1 L 115.3 65.5 Z M 122.3 72.2 C 122.3 70 123.7 68.2 126 68.2 C 128.2 68.2 129.7 70 129.7 72.2 C 129.7 74.5 128.2 76.3 126 76.3 C 123.7 76.3 122.3 74.5 122.3 72.2 Z M 128.8 72.2 C 128.8 70.5 127.8 69 126 69 C 124.2 69 123.2 70.5 123.2 72.2 C 123.2 73.9 124.2 75.5 126 75.5 C 127.8 75.5 128.8 73.9 128.8 72.2 Z M 131.6 68.4 L 132.5 68.4 C 132.5 68.4 132.46 69.72 132.5 69.7 C 133.1 68.9 134 68.2 135 68.2 C 135 68.2 135 69.2 135 69.2 C 134.9 69.1 134.8 69.1 134.6 69.1 C 133.9 69.1 132.8 69.8 132.5 70.5 C 132.46 70.48 132.5 76.1 132.5 76.1 L 131.6 76.1 L 131.6 68.4 Z M 139.8 68.2 C 142.1 68.2 143.4 70.1 143.4 72.3 C 143.39 72.28 143.4 72.5 143.4 72.5 C 143.4 72.5 136.97 72.5 137 72.5 C 137 74.2 138.2 75.6 140 75.6 C 140.9 75.6 141.8 75.2 142.5 74.5 C 142.5 74.5 142.9 75 142.9 75 C 142.1 75.8 141.2 76.3 139.9 76.3 C 137.7 76.3 136.1 74.6 136.1 72.2 C 136.1 70 137.6 68.2 139.8 68.2 Z M 137 71.9 C 137 71.9 142.5 71.9 142.5 71.9 C 142.5 70.5 141.7 68.9 139.8 68.9 C 137.9 68.9 137 70.5 137 71.9 Z M 154.5 70.7 C 154.5 69.6 154 69 152.9 69 C 152.1 69 151.2 69.6 150.8 70.3 C 150.76 70.26 150.8 76.1 150.8 76.1 L 149.9 76.1 C 149.9 76.1 149.92 70.71 149.9 70.7 C 149.9 69.6 149.5 69 148.4 69 C 147.6 69 146.6 69.6 146.2 70.3 C 146.18 70.28 146.2 76.1 146.2 76.1 L 145.4 76.1 L 145.4 68.4 L 146.2 68.4 C 146.2 68.4 146.18 69.56 146.2 69.6 C 146.5 69.1 147.5 68.2 148.7 68.2 C 149.9 68.2 150.5 68.9 150.7 69.7 C 151.1 68.9 152.1 68.2 153.2 68.2 C 154.6 68.2 155.3 69 155.3 70.5 C 155.31 70.55 155.3 76.1 155.3 76.1 L 154.5 76.1 C 154.5 76.1 154.49 70.71 154.5 70.7 Z M 161.7 65.5 L 162.6 65.5 L 162.6 76.1 L 161.7 76.1 L 161.7 65.5 Z M 165.1 79 L 165.1 68.4 L 165.9 68.4 C 165.9 68.4 165.89 69.63 165.9 69.6 C 166.4 68.8 167.4 68.2 168.6 68.2 C 170.6 68.2 172 69.8 172 72.2 C 172 74.7 170.6 76.3 168.6 76.3 C 167.5 76.3 166.5 75.7 165.9 74.8 C 165.89 74.84 165.9 79 165.9 79 L 165.1 79 Z M 168.4 69 C 167.4 69 166.3 69.6 165.9 70.3 C 165.9 70.3 165.9 74.1 165.9 74.1 C 166.3 74.9 167.4 75.5 168.4 75.5 C 170.1 75.5 171.1 74.1 171.1 72.2 C 171.1 70.4 170.1 69 168.4 69 Z M 173.8 74.4 C 174.3 75.1 175.2 75.6 176.3 75.6 C 177.5 75.6 178.3 74.9 178.3 74 C 178.3 73.1 177.3 72.8 176.2 72.5 C 174.9 72.2 173.5 71.8 173.5 70.3 C 173.5 69.2 174.5 68.2 176.2 68.2 C 177.5 68.2 178.4 68.7 178.9 69.4 C 178.9 69.4 178.5 69.9 178.5 69.9 C 178 69.3 177.2 68.9 176.2 68.9 C 175 68.9 174.3 69.5 174.3 70.3 C 174.3 71.2 175.3 71.4 176.3 71.7 C 177.6 72 179.1 72.4 179.1 74 C 179.1 75.3 178.2 76.3 176.2 76.3 C 175 76.3 174.1 75.9 173.3 75.1 C 173.3 75.1 173.8 74.4 173.8 74.4 Z M 186.3 74.9 C 185.6 75.6 184.6 76.3 183.5 76.3 C 181.9 76.3 181.1 75.5 181.1 73.8 C 181.09 73.81 181.1 68.4 181.1 68.4 L 181.9 68.4 C 181.9 68.4 181.92 73.62 181.9 73.6 C 181.9 75.1 182.7 75.5 183.8 75.5 C 184.8 75.5 185.8 74.9 186.3 74.3 C 186.27 74.25 186.3 68.4 186.3 68.4 L 187.1 68.4 L 187.1 76.1 L 186.3 76.1 C 186.3 76.1 186.27 74.95 186.3 74.9 Z M 198.6 70.7 C 198.6 69.6 198.2 69 197.1 69 C 196.3 69 195.3 69.6 194.9 70.3 C 194.91 70.26 194.9 76.1 194.9 76.1 L 194.1 76.1 C 194.1 76.1 194.07 70.71 194.1 70.7 C 194.1 69.6 193.6 69 192.5 69 C 191.7 69 190.8 69.6 190.3 70.3 C 190.33 70.28 190.3 76.1 190.3 76.1 L 189.5 76.1 L 189.5 68.4 L 190.3 68.4 C 190.3 68.4 190.33 69.56 190.3 69.6 C 190.7 69.1 191.7 68.2 192.8 68.2 C 194 68.2 194.6 68.9 194.8 69.7 C 195.3 68.9 196.3 68.2 197.4 68.2 C 198.8 68.2 199.5 69 199.5 70.5 C 199.47 70.55 199.5 76.1 199.5 76.1 L 198.6 76.1 C 198.6 76.1 198.64 70.71 198.6 70.7 Z " stroke="none" fill="#242423"/>
  </g>
  <g id="Polygon241293">
    <path d="M 115.3 33.7 L 116.2 33.7 L 116.2 43.5 L 121.4 43.5 L 121.4 44.3 L 115.3 44.3 L 115.3 33.7 Z M 122.3 40.5 C 122.3 38.2 123.7 36.5 126 36.5 C 128.2 36.5 129.7 38.2 129.7 40.5 C 129.7 42.7 128.2 44.5 126 44.5 C 123.7 44.5 122.3 42.7 122.3 40.5 Z M 128.8 40.5 C 128.8 38.8 127.8 37.2 126 37.2 C 124.2 37.2 123.2 38.8 123.2 40.5 C 123.2 42.2 124.2 43.8 126 43.8 C 127.8 43.8 128.8 42.2 128.8 40.5 Z M 131.6 36.6 L 132.5 36.6 C 132.5 36.6 132.46 37.96 132.5 38 C 133.1 37.1 134 36.5 135 36.5 C 135 36.5 135 37.4 135 37.4 C 134.9 37.4 134.8 37.4 134.6 37.4 C 133.9 37.4 132.8 38.1 132.5 38.7 C 132.46 38.72 132.5 44.3 132.5 44.3 L 131.6 44.3 L 131.6 36.6 Z M 139.8 36.5 C 142.1 36.5 143.4 38.3 143.4 40.5 C 143.39 40.52 143.4 40.7 143.4 40.7 C 143.4 40.7 136.97 40.74 137 40.7 C 137 42.4 138.2 43.8 140 43.8 C 140.9 43.8 141.8 43.4 142.5 42.7 C 142.5 42.7 142.9 43.3 142.9 43.3 C 142.1 44.1 141.2 44.5 139.9 44.5 C 137.7 44.5 136.1 42.8 136.1 40.5 C 136.1 38.2 137.6 36.5 139.8 36.5 Z M 137 40.1 C 137 40.1 142.5 40.1 142.5 40.1 C 142.5 38.8 141.7 37.2 139.8 37.2 C 137.9 37.2 137 38.8 137 40.1 Z M 154.5 38.9 C 154.5 37.9 154 37.2 152.9 37.2 C 152.1 37.2 151.2 37.8 150.8 38.5 C 150.76 38.5 150.8 44.3 150.8 44.3 L 149.9 44.3 C 149.9 44.3 149.92 38.94 149.9 38.9 C 149.9 37.9 149.5 37.2 148.4 37.2 C 147.6 37.2 146.6 37.8 146.2 38.5 C 146.18 38.51 146.2 44.3 146.2 44.3 L 145.4 44.3 L 145.4 36.6 L 146.2 36.6 C 146.2 36.6 146.18 37.8 146.2 37.8 C 146.5 37.3 147.5 36.5 148.7 36.5 C 149.9 36.5 150.5 37.1 150.7 37.9 C 151.1 37.2 152.1 36.5 153.2 36.5 C 154.6 36.5 155.3 37.2 155.3 38.8 C 155.31 38.78 155.3 44.3 155.3 44.3 L 154.5 44.3 C 154.5 44.3 154.49 38.94 154.5 38.9 Z M 161.7 33.7 L 162.6 33.7 L 162.6 44.3 L 161.7 44.3 L 161.7 33.7 Z M 165.1 47.2 L 165.1 36.6 L 165.9 36.6 C 165.9 36.6 165.89 37.86 165.9 37.9 C 166.4 37.1 167.4 36.5 168.6 36.5 C 170.6 36.5 172 38 172 40.5 C 172 42.9 170.6 44.5 168.6 44.5 C 167.5 44.5 166.5 43.9 165.9 43.1 C 165.89 43.07 165.9 47.2 165.9 47.2 L 165.1 47.2 Z M 168.4 37.2 C 167.4 37.2 166.3 37.8 165.9 38.6 C 165.9 38.6 165.9 42.4 165.9 42.4 C 166.3 43.1 167.4 43.8 168.4 43.8 C 170.1 43.8 171.1 42.3 171.1 40.5 C 171.1 38.6 170.1 37.2 168.4 37.2 Z M 173.8 42.7 C 174.3 43.3 175.2 43.8 176.3 43.8 C 177.5 43.8 178.3 43.2 178.3 42.3 C 178.3 41.3 177.3 41 176.2 40.7 C 174.9 40.4 173.5 40.1 173.5 38.6 C 173.5 37.4 174.5 36.5 176.2 36.5 C 177.5 36.5 178.4 37 178.9 37.6 C 178.9 37.6 178.5 38.2 178.5 38.2 C 178 37.6 177.2 37.1 176.2 37.1 C 175 37.1 174.3 37.7 174.3 38.5 C 174.3 39.4 175.3 39.6 176.3 39.9 C 177.6 40.2 179.1 40.6 179.1 42.2 C 179.1 43.5 178.2 44.5 176.2 44.5 C 175 44.5 174.1 44.1 173.3 43.3 C 173.3 43.3 173.8 42.7 173.8 42.7 Z M 186.3 43.2 C 185.6 43.9 184.6 44.5 183.5 44.5 C 181.9 44.5 181.1 43.8 181.1 42 C 181.09 42.04 181.1 36.6 181.1 36.6 L 181.9 36.6 C 181.9 36.6 181.92 41.85 181.9 41.9 C 181.9 43.3 182.7 43.8 183.8 43.8 C 184.8 43.8 185.8 43.2 186.3 42.5 C 186.27 42.49 186.3 36.6 186.3 36.6 L 187.1 36.6 L 187.1 44.3 L 186.3 44.3 C 186.3 44.3 186.27 43.19 186.3 43.2 Z M 198.6 38.9 C 198.6 37.9 198.2 37.2 197.1 37.2 C 196.3 37.2 195.3 37.8 194.9 38.5 C 194.91 38.5 194.9 44.3 194.9 44.3 L 194.1 44.3 C 194.1 44.3 194.07 38.94 194.1 38.9 C 194.1 37.9 193.6 37.2 192.5 37.2 C 191.7 37.2 190.8 37.8 190.3 38.5 C 190.33 38.51 190.3 44.3 190.3 44.3 L 189.5 44.3 L 189.5 36.6 L 190.3 36.6 C 190.3 36.6 190.33 37.8 190.3 37.8 C 190.7 37.3 191.7 36.5 192.8 36.5 C 194 36.5 194.6 37.1 194.8 37.9 C 195.3 37.2 196.3 36.5 197.4 36.5 C 198.8 36.5 199.5 37.2 199.5 38.8 C 199.47 38.78 199.5 44.3 199.5 44.3 L 198.6 44.3 C 198.6 44.3 198.64 38.94 198.6 38.9 Z " stroke="none" fill="#242423"/>
  </g>
  <g id="Polygon241292">
    <path d="M 115.3 2 L 116.2 2 L 116.2 11.7 L 121.4 11.7 L 121.4 12.5 L 115.3 12.5 L 115.3 2 Z M 122.3 8.7 C 122.3 6.5 123.7 4.7 126 4.7 C 128.2 4.7 129.7 6.5 129.7 8.7 C 129.7 10.9 128.2 12.7 126 12.7 C 123.7 12.7 122.3 10.9 122.3 8.7 Z M 128.8 8.7 C 128.8 7 127.8 5.4 126 5.4 C 124.2 5.4 123.2 7 123.2 8.7 C 123.2 10.4 124.2 12 126 12 C 127.8 12 128.8 10.4 128.8 8.7 Z M 131.6 4.9 L 132.5 4.9 C 132.5 4.9 132.46 6.19 132.5 6.2 C 133.1 5.3 134 4.7 135 4.7 C 135 4.7 135 5.6 135 5.6 C 134.9 5.6 134.8 5.6 134.6 5.6 C 133.9 5.6 132.8 6.3 132.5 7 C 132.46 6.96 132.5 12.5 132.5 12.5 L 131.6 12.5 L 131.6 4.9 Z M 139.8 4.7 C 142.1 4.7 143.4 6.5 143.4 8.8 C 143.39 8.75 143.4 9 143.4 9 C 143.4 9 136.97 8.97 137 9 C 137 10.6 138.2 12 140 12 C 140.9 12 141.8 11.7 142.5 11 C 142.5 11 142.9 11.5 142.9 11.5 C 142.1 12.3 141.2 12.7 139.9 12.7 C 137.7 12.7 136.1 11.1 136.1 8.7 C 136.1 6.5 137.6 4.7 139.8 4.7 Z M 137 8.3 C 137 8.3 142.5 8.3 142.5 8.3 C 142.5 7 141.7 5.4 139.8 5.4 C 137.9 5.4 137 7 137 8.3 Z M 154.5 7.2 C 154.5 6.1 154 5.4 152.9 5.4 C 152.1 5.4 151.2 6 150.8 6.7 C 150.76 6.73 150.8 12.5 150.8 12.5 L 149.9 12.5 C 149.9 12.5 149.92 7.18 149.9 7.2 C 149.9 6.1 149.5 5.4 148.4 5.4 C 147.6 5.4 146.6 6.1 146.2 6.7 C 146.18 6.75 146.2 12.5 146.2 12.5 L 145.4 12.5 L 145.4 4.9 L 146.2 4.9 C 146.2 4.9 146.18 6.03 146.2 6 C 146.5 5.5 147.5 4.7 148.7 4.7 C 149.9 4.7 150.5 5.4 150.7 6.1 C 151.1 5.4 152.1 4.7 153.2 4.7 C 154.6 4.7 155.3 5.5 155.3 7 C 155.31 7.02 155.3 12.5 155.3 12.5 L 154.5 12.5 C 154.5 12.5 154.49 7.18 154.5 7.2 Z M 161.7 2 L 162.6 2 L 162.6 12.5 L 161.7 12.5 L 161.7 2 Z M 165.1 15.5 L 165.1 4.9 L 165.9 4.9 C 165.9 4.9 165.89 6.1 165.9 6.1 C 166.4 5.3 167.4 4.7 168.6 4.7 C 170.6 4.7 172 6.2 172 8.7 C 172 11.2 170.6 12.7 168.6 12.7 C 167.5 12.7 166.5 12.2 165.9 11.3 C 165.89 11.31 165.9 15.5 165.9 15.5 L 165.1 15.5 Z M 168.4 5.4 C 167.4 5.4 166.3 6.1 165.9 6.8 C 165.9 6.8 165.9 10.6 165.9 10.6 C 166.3 11.3 167.4 12 168.4 12 C 170.1 12 171.1 10.6 171.1 8.7 C 171.1 6.8 170.1 5.4 168.4 5.4 Z M 173.8 10.9 C 174.3 11.5 175.2 12 176.3 12 C 177.5 12 178.3 11.4 178.3 10.5 C 178.3 9.5 177.3 9.2 176.2 9 C 174.9 8.6 173.5 8.3 173.5 6.8 C 173.5 5.6 174.5 4.7 176.2 4.7 C 177.5 4.7 178.4 5.2 178.9 5.8 C 178.9 5.8 178.5 6.4 178.5 6.4 C 178 5.8 177.2 5.4 176.2 5.4 C 175 5.4 174.3 6 174.3 6.8 C 174.3 7.6 175.3 7.9 176.3 8.1 C 177.6 8.5 179.1 8.8 179.1 10.5 C 179.1 11.7 178.2 12.7 176.2 12.7 C 175 12.7 174.1 12.4 173.3 11.5 C 173.3 11.5 173.8 10.9 173.8 10.9 Z M 186.3 11.4 C 185.6 12.1 184.6 12.7 183.5 12.7 C 181.9 12.7 181.1 12 181.1 10.3 C 181.09 10.28 181.1 4.9 181.1 4.9 L 181.9 4.9 C 181.9 4.9 181.92 10.09 181.9 10.1 C 181.9 11.6 182.7 12 183.8 12 C 184.8 12 185.8 11.4 186.3 10.7 C 186.27 10.72 186.3 4.9 186.3 4.9 L 187.1 4.9 L 187.1 12.5 L 186.3 12.5 C 186.3 12.5 186.27 11.42 186.3 11.4 Z M 198.6 7.2 C 198.6 6.1 198.2 5.4 197.1 5.4 C 196.3 5.4 195.3 6 194.9 6.7 C 194.91 6.73 194.9 12.5 194.9 12.5 L 194.1 12.5 C 194.1 12.5 194.07 7.18 194.1 7.2 C 194.1 6.1 193.6 5.4 192.5 5.4 C 191.7 5.4 190.8 6.1 190.3 6.7 C 190.33 6.75 190.3 12.5 190.3 12.5 L 189.5 12.5 L 189.5 4.9 L 190.3 4.9 C 190.3 4.9 190.33 6.03 190.3 6 C 190.7 5.5 191.7 4.7 192.8 4.7 C 194 4.7 194.6 5.4 194.8 6.1 C 195.3 5.4 196.3 4.7 197.4 4.7 C 198.8 4.7 199.5 5.5 199.5 7 C 199.47 7.02 199.5 12.5 199.5 12.5 L 198.6 12.5 C 198.6 12.5 198.64 7.18 198.6 7.2 Z " stroke="none" fill="#242423"/>
  </g>
</svg>