<?xml version="1.0" standalone="no"?><!DOCTYPE svg PUBLIC "-//W3C//DTD SVG 1.1//EN" "http://www.w3.org/Graphics/SVG/1.1/DTD/svg11.dtd"><svg xmlns="http://www.w3.org/2000/svg" version="1.1" width="220.1px" height="81.2px" viewBox="0 -9 220.1 81.2" style="top:-9px"><desc>RETAIL AERIAL</desc><defs/><g id="Polygon63244"><path d="m8.8 55.9L6.3 48H4.7v7.9H1.4V36.1s5.12.05 5.1 0c3 0 5 1.2 5 4.2v3.6c0 1.8-.8 3-2.2 3.6c.05.03 2.9 8.4 2.9 8.4H8.8zM4.7 45.2s1.71.01 1.7 0c1.1 0 1.8-.4 1.8-1.8v-2.6c0-1.4-.7-1.8-1.8-1.8c.01.03-1.7 0-1.7 0v6.2zm9.2 10.7V36.1h8.6v2.9h-5.4v5.4h4.6v2.9h-4.6v5.7h5.5v2.9h-8.7zM33.4 39h-3.3v16.9h-3.3V39h-3.3v-2.9h9.9v2.9zm6.5 12.5h-3.6l-.7 4.4h-3.2l3.7-19.8h4.1l3.7 19.8h-3.3l-.7-4.4zm-.4-2.7L38.1 40l-1.4 8.8h2.8zm5.9 7.1V36.1h3.3v19.8h-3.3zm14.2 0h-8.3V36.1h3.3V53h5v2.9zm11.5-4.4h-3.6l-.7 4.4h-3.2l3.7-19.8h4.1l3.7 19.8h-3.3l-.7-4.4zm-.4-2.7L69.3 40l-1.4 8.8h2.8zm5.8 7.1V36.1h8.6v2.9h-5.4v5.4h4.6v2.9h-4.6v5.7h5.5v2.9h-8.7zm18.2 0L92.2 48h-1.7v7.9h-3.2V36.1s5.07.05 5.1 0c3 0 4.9 1.2 4.9 4.2v3.6c0 1.8-.7 3-2.1 3.6l2.8 8.4h-3.3zm-4.2-10.7s1.76.01 1.8 0c1 0 1.8-.4 1.8-1.8v-2.6c0-1.4-.8-1.8-1.8-1.8c-.04.03-1.8 0-1.8 0v6.2zm9.3 10.7V36.1h3.3v19.8h-3.3zm12.3-4.4h-3.7l-.7 4.4h-3.1l3.6-19.8h4.2l3.7 19.8h-3.3l-.7-4.4zm-.5-2.7l-1.4-8.8l-1.3 8.8h2.7zm14.2 7.1h-8.4V36.1h3.3V53h5.1v2.9z" stroke="none" fill="#282828"/></g></svg>