<?xml version="1.0" standalone="no"?><!DOCTYPE svg PUBLIC "-//W3C//DTD SVG 1.1//EN" "http://www.w3.org/Graphics/SVG/1.1/DTD/svg11.dtd"><svg xmlns="http://www.w3.org/2000/svg" version="1.1" width="114px" height="28.3px" viewBox="0 -6 114 28.3" style="top:-6px"><desc>Growth 20 - 25</desc><defs/><g id="Polygon288062"><path d="m6.2 1.8c2 0 3.3.9 4.2 2.1l-1.3.7c-.6-.8-1.6-1.4-2.9-1.4c-2.2 0-3.8 1.7-3.8 4.1c0 2.3 1.6 4 3.8 4c1.2 0 2.2-.5 2.7-1V8.4H5.5V7h5v3.9c-1 1.1-2.5 1.9-4.3 1.9c-3 0-5.5-2.2-5.5-5.5C.7 4 3.2 1.8 6.2 1.8zm6.3 3.1h1.4s.03 1.15 0 1.1c.6-.7 1.5-1.3 2.5-1.3v1.4h-.5c-.7 0-1.6.5-2 1.1c.03.01 0 5.3 0 5.3h-1.4V4.9zm4.9 3.8c0-2.2 1.5-4 3.9-4c2.4 0 3.8 1.8 3.8 4c0 2.2-1.4 4-3.8 4c-2.4 0-3.9-1.8-3.9-4zm6.2 0c0-1.4-.8-2.7-2.3-2.7c-1.6 0-2.4 1.3-2.4 2.7c0 1.5.8 2.8 2.4 2.8c1.5 0 2.3-1.3 2.3-2.8zm8.1-2l-1.9 5.8h-1.5l-2.4-7.6h1.5l1.8 5.8l1.9-5.8h1.2l2 5.8L36 4.9h1.5l-2.4 7.6h-1.5l-1.9-5.8zm7.3 4.1c.05.05 0-4.7 0-4.7h-1.2V4.9h1.2V2.8h1.5v2.1h1.5v1.2h-1.5s-.02 4.43 0 4.4c0 .6.2 1 .7 1c.4 0 .7-.2.8-.3l.4 1c-.3.3-.8.5-1.5.5c-1.2 0-1.9-.6-1.9-1.9zm9.8-3.2c0-1.3-.7-1.6-1.6-1.6c-.9 0-1.7.5-2.1 1.1c-.05-.03 0 5.4 0 5.4h-1.5V2h1.5s-.05 3.95 0 4c.5-.7 1.5-1.3 2.7-1.3c1.6 0 2.4.8 2.4 2.4c.03.03 0 5.4 0 5.4h-1.4V7.6zm9.4-5.3c-.5.4-1 1-1 1.5h.2c.5 0 .9.4.9.9c0 .5-.5 1-1 1c-.6 0-1.1-.5-1.1-1.4c0-1 .6-1.9 1.4-2.5l.6.5zm1.9 9C64 8.2 65.9 6.7 65.9 5c0-1.3-1.1-1.8-2.1-1.8c-1.3 0-2.2.5-2.9 1.3l-.9-1c.9-1.1 2.3-1.7 3.8-1.7c1.9 0 3.7 1.1 3.7 3.2c0 2.1-2 3.9-4.9 6.1c-.02.05 4.9 0 4.9 0v1.4h-7.4s-.04-1.21 0-1.2zm13.4-9.5c2.9 0 4.1 2.8 4.1 5.5c0 2.6-1.2 5.4-4.1 5.4c-2.9 0-4.2-2.8-4.2-5.4c0-2.7 1.3-5.5 4.2-5.5zm0 1.4c-1.9 0-2.5 2-2.5 4.1c0 2 .6 4 2.5 4c1.9 0 2.5-2 2.5-4c0-2.1-.6-4.1-2.5-4.1zm9.4 4.9h3.9v1.2h-3.9V8.1zm11.2-5.8c-.5.4-1 1-1.1 1.5h.2c.5 0 .9.4.9.9c0 .5-.4 1-1 1c-.5 0-1.1-.5-1.1-1.4c0-1 .6-1.9 1.4-2.5l.7.5zm1.8 9c4-3.1 5.8-4.6 5.8-6.3c0-1.3-1-1.8-2.1-1.8c-1.2 0-2.2.5-2.8 1.3l-1-1c.9-1.1 2.4-1.7 3.8-1.7c1.9 0 3.7 1.1 3.7 3.2c0 2.1-2 3.9-4.9 6.1c.04.05 5 0 5 0v1.4h-7.5s.02-1.21 0-1.2zm10.5-1.3c.7.8 1.6 1.3 2.9 1.3c1.4 0 2.3-.9 2.3-2c0-1.3-.9-2.1-2.3-2.1c-.9 0-1.7.3-2.4.9c.02.03-1.1-.3-1.1-.3V2h6.7v1.3h-5.1s-.04 3.43 0 3.4c.5-.5 1.4-.9 2.4-.9c1.8 0 3.4 1.2 3.4 3.4c0 2.2-1.7 3.5-3.9 3.5c-1.8 0-3-.6-3.9-1.6l1-1.1z" stroke="none" fill="#000"/></g></svg>