<?xml version="1.0" standalone="no"?><!DOCTYPE svg PUBLIC "-//W3C//DTD SVG 1.1//EN" "http://www.w3.org/Graphics/SVG/1.1/DTD/svg11.dtd"><svg xmlns="http://www.w3.org/2000/svg" version="1.1" width="134.3px" height="15.9px" viewBox="0 -4 134.3 15.9" style="top:-4px"><desc>13 5 Years</desc><defs/><g id="Polygon93108"><path d="m97.4 1.8l-1 1l-.3-.3l1.4-1.4h.4v6h-.5V1.8zm1.9 4.1c.3.5.9.9 1.7.9c.9 0 1.5-.5 1.5-1.3c0-.9-.7-1.2-1.6-1.2h-.6v-.5h.6c.8 0 1.5-.4 1.5-1.2c0-.7-.7-1.1-1.4-1.1c-.7 0-1.2.3-1.6.7l-.4-.3c.5-.5 1.1-.9 2-.9c1 0 1.9.6 1.9 1.6c0 .9-.7 1.3-1.3 1.4c.6.1 1.4.5 1.4 1.5c0 1-.7 1.7-2 1.7c-1 0-1.7-.4-2-1l.3-.3zm5.2.5c.3 0 .4.2.4.4c0 .2-.1.4-.4.4c-.2 0-.4-.2-.4-.4c0-.2.2-.4.4-.4zm2-.5c.4.5 1 .9 1.7.9c.9 0 1.5-.7 1.5-1.5c0-.9-.6-1.5-1.5-1.5c-.5 0-1 .2-1.4.6c-.02.02-.4-.1-.4-.1V1.1h3.5v.5h-3v2.3c.3-.3.8-.5 1.4-.5c1 0 1.9.6 1.9 1.9c0 1.2-.9 1.9-2 1.9c-1 0-1.6-.4-2-1l.3-.3zm9.1-1.4l-2.4-3.4h.7l2 3l2-3h.6l-2.4 3.4v2.6h-.5V4.5zm4.5-1.8c1.3 0 2 1 2 2.3c.03-.04 0 .1 0 .1c0 0-3.61-.02-3.6 0c0 .9.7 1.7 1.7 1.7c.5 0 1-.2 1.4-.6l.3.3c-.5.5-1 .7-1.7.7c-1.3 0-2.2-.9-2.2-2.3c0-1.2.9-2.2 2.1-2.2zm-1.6 2h3.2c-.1-.7-.5-1.6-1.6-1.6c-1.1 0-1.6.9-1.6 1.6zm7.6 1.9c-.4.4-.9.6-1.5.6c-.7 0-1.5-.5-1.5-1.4c0-1 .8-1.5 1.5-1.5c.6 0 1.1.2 1.5.6v-.8c0-.7-.5-1-1.2-1c-.5 0-.9.2-1.3.6l-.3-.3c.5-.5 1-.7 1.7-.7c.9 0 1.6.4 1.6 1.4c-.03-.05 0 3 0 3h-.5v-.5zm0-1.3c-.3-.4-.8-.6-1.3-.6c-.7 0-1.2.5-1.2 1.1c0 .6.5 1 1.2 1c.5 0 1-.1 1.3-.5v-1zm1.9-2.5h.5v.7c.4-.5.9-.8 1.5-.8v.5h-.3c-.4 0-1 .4-1.2.7v3.2h-.5V2.8zm2.8 3.4c.3.3.8.6 1.4.6c.7 0 1.1-.3 1.1-.8c0-.6-.5-.8-1.2-.9c-.7-.2-1.5-.4-1.5-1.2c0-.7.6-1.2 1.5-1.2c.8 0 1.3.2 1.6.6l-.3.3c-.2-.3-.7-.5-1.3-.5c-.6 0-1 .3-1 .7c0 .5.5.7 1.1.8c.8.2 1.6.4 1.6 1.3c0 .7-.5 1.3-1.6 1.3c-.7 0-1.3-.2-1.7-.7l.3-.3z" stroke="none" fill="#000"/></g></svg>