<?xml version="1.0" standalone="no"?><!DOCTYPE svg PUBLIC "-//W3C//DTD SVG 1.1//EN" "http://www.w3.org/Graphics/SVG/1.1/DTD/svg11.dtd"><svg xmlns="http://www.w3.org/2000/svg" version="1.1" width="128.4px" height="21.5px" viewBox="0 -4 128.4 21.5" style="top:-4px"><desc>Join James Capital</desc><defs/><g id="Polygon78686"><path d="m16 7.8c.4.4.8.8 1.5.8c.9 0 1.5-.7 1.5-1.6V1.5h1.2v5.5c0 1.8-1.1 2.6-2.6 2.6c-.9 0-1.6-.2-2.1-.9l.5-.9zm5.5-1.2c0-1.7 1.1-3.1 2.9-3.1c1.8 0 2.9 1.4 2.9 3.1c0 1.7-1.1 3-2.9 3c-1.8 0-2.9-1.3-2.9-3zm4.7 0c0-1.1-.6-2.1-1.8-2.1c-1.2 0-1.8 1-1.8 2.1c0 1.1.6 2.1 1.8 2.1c1.2 0 1.8-1 1.8-2.1zM28.4 2c0-.4.3-.7.7-.7c.4 0 .7.3.7.7c0 .4-.3.7-.7.7c-.4 0-.7-.3-.7-.7zm.2 1.7h1.1v5.8h-1.1V3.7zm6.6 2.1c0-1-.5-1.3-1.3-1.3c-.6 0-1.3.4-1.6.8c.03.04 0 4.2 0 4.2h-1V3.7h1s.03.8 0 .8c.4-.5 1.2-1 2.1-1c1.2 0 1.8.7 1.8 1.9c.04.01 0 4.1 0 4.1h-1s-.03-3.73 0-3.7zm5.4 2c.4.4.8.8 1.5.8c.9 0 1.5-.7 1.5-1.6V1.5h1.2v5.5c0 1.8-1.1 2.6-2.6 2.6c-.9 0-1.6-.2-2.1-.9l.5-.9zm9.4 1c-.4.5-1.1.8-1.9.8c-.9 0-2-.6-2-1.9c0-1.3 1-1.9 2-1.9c.8 0 1.5.3 1.9.8v-1c0-.7-.6-1.1-1.4-1.1c-.7 0-1.2.2-1.7.7l-.5-.7c.6-.6 1.4-1 2.4-1c1.2 0 2.3.6 2.3 2.1v3.9H50v-.7zm0-1.6c-.3-.4-.9-.6-1.5-.6c-.8 0-1.3.4-1.3 1.1c0 .7.5 1.2 1.3 1.2c.6 0 1.2-.3 1.5-.7v-1zm9.7-1.6c0-.7-.3-1.1-1-1.1c-.6 0-1.1.4-1.4.8v4.2h-1.1V5.6c0-.7-.3-1.1-1-1.1c-.6 0-1.1.4-1.4.8c-.02.04 0 4.2 0 4.2h-1.1V3.7h1.1s-.02.8 0 .8c.2-.4 1-1 1.8-1c.9 0 1.4.5 1.6 1.1c.4-.5 1.1-1.1 2-1.1c1 0 1.6.6 1.6 1.8c.02-.01 0 4.2 0 4.2h-1.1s.04-3.88 0-3.9zM65 3.5c1.7 0 2.8 1.4 2.8 3.2c-.02-.03 0 .2 0 .2c0 0-4.6.04-4.6 0c.1 1 .8 1.8 2 1.8c.6 0 1.2-.2 1.7-.6l.5.7c-.6.5-1.4.8-2.3.8c-1.8 0-3-1.2-3-3c0-1.7 1.2-3.1 2.9-3.1zm-1.8 2.7h3.5c0-.8-.5-1.8-1.7-1.8c-1.2 0-1.8 1-1.8 1.8zM69 7.9c.4.5 1.2.9 2 .9c.8 0 1.2-.4 1.2-.9c0-.5-.6-.7-1.4-.9c-1-.2-2.1-.5-2.1-1.7c0-1 .8-1.8 2.2-1.8c1 0 1.7.4 2.2.9l-.5.7c-.3-.4-1-.7-1.7-.7c-.7 0-1.2.3-1.2.8c0 .5.6.6 1.4.8c1 .2 2.2.5 2.2 1.8c0 1-.9 1.8-2.4 1.8c-.9 0-1.8-.3-2.4-.9l.5-.8zm8.2-2.4c0-2.5 1.8-4.2 4.1-4.2c1.6 0 2.5.8 3.2 1.7l-1.1.6c-.4-.7-1.2-1.2-2.1-1.2c-1.6 0-2.9 1.3-2.9 3.1c0 1.8 1.3 3.1 2.9 3.1c.9 0 1.7-.5 2.1-1.2l1.1.5c-.7 1-1.6 1.7-3.2 1.7c-2.3 0-4.1-1.7-4.1-4.1zm11.9 3.3c-.5.5-1.1.8-1.9.8c-1 0-2-.6-2-1.9c0-1.3 1-1.9 2-1.9c.8 0 1.4.3 1.9.8v-1c0-.7-.6-1.1-1.4-1.1c-.7 0-1.2.2-1.8.7l-.4-.7c.6-.6 1.4-1 2.3-1c1.3 0 2.4.6 2.4 2.1c-.03-.03 0 3.9 0 3.9h-1.1v-.7zm0-1.6c-.3-.4-.9-.6-1.5-.6c-.8 0-1.3.4-1.3 1.1c0 .7.5 1.2 1.3 1.2c.6 0 1.2-.3 1.5-.7v-1zm2.7 4.5v-8h1.1s-.04.81 0 .8c.4-.6 1.1-1 1.9-1c1.5 0 2.5 1.2 2.5 3.1c0 1.9-1 3-2.5 3c-.8 0-1.5-.3-1.9-1c-.04.04 0 3.1 0 3.1h-1.1zm2.7-7.2c-.7 0-1.4.4-1.6.9v2.4c.2.5.9.9 1.6.9c1 0 1.7-.9 1.7-2.1c0-1.2-.7-2.1-1.7-2.1zM98.4 2c0-.4.3-.7.7-.7c.4 0 .7.3.7.7c0 .4-.3.7-.7.7c-.4 0-.7-.3-.7-.7zm.2 1.7h1.1v5.8h-1.1V3.7zm2.9 4.5c-.02 0 0-3.6 0-3.6h-1v-.9h1V2.1h1.1v1.6h1.1v.9h-1.1s-.05 3.36 0 3.4c0 .4.1.7.5.7c.3 0 .5-.1.6-.3l.3.9c-.2.2-.6.3-1.1.3c-1 0-1.4-.5-1.4-1.4zm6.9.6c-.5.5-1.1.8-1.9.8c-1 0-2-.6-2-1.9c0-1.3 1-1.9 2-1.9c.8 0 1.4.3 1.9.8v-1c0-.7-.6-1.1-1.4-1.1c-.7 0-1.3.2-1.8.7l-.4-.7c.6-.6 1.4-1 2.3-1c1.3 0 2.4.6 2.4 2.1c-.03-.03 0 3.9 0 3.9h-1.1v-.7zm0-1.6c-.3-.4-.9-.6-1.5-.6c-.8 0-1.3.4-1.3 1.1c0 .7.5 1.2 1.3 1.2c.6 0 1.2-.3 1.5-.7v-1zm2.7-5.7h1.1v8h-1.1v-8z" stroke="none" fill="#ffffff"/></g></svg>