<?xml version="1.0" standalone="no"?><!DOCTYPE svg PUBLIC "-//W3C//DTD SVG 1.1//EN" "http://www.w3.org/Graphics/SVG/1.1/DTD/svg11.dtd"><svg xmlns="http://www.w3.org/2000/svg" version="1.1" width="143.3px" height="27.3px" viewBox="0 -6 143.3 27.3" style="top:-6px"><desc>21 2%</desc><defs/><g id="Polygon111969"><path d="m105.9 11.8c3.6-2.9 6-5 6-7c0-1.5-1.3-2.2-2.4-2.2c-1.4 0-2.4.6-2.9 1.4l-.7-.6c.8-1 2.1-1.6 3.6-1.6c1.5 0 3.3.9 3.3 3c0 2.3-2.5 4.4-5.5 6.9c-.03.02 5.5 0 5.5 0v.8h-6.9s-.04-.7 0-.7zm11-8.6L115.2 5l-.6-.6L117 2h.8v10.5h-.9V3.2zm3.9 8.1c.4 0 .7.3.7.7c0 .4-.3.7-.7.7c-.3 0-.7-.3-.7-.7c0-.4.4-.7.7-.7zm2.7.5c3.6-2.9 6-5 6-7c0-1.5-1.3-2.2-2.4-2.2c-1.3 0-2.4.6-2.9 1.4l-.7-.6c.8-1 2.1-1.6 3.6-1.6c1.5 0 3.3.9 3.3 3c0 2.3-2.5 4.4-5.5 6.9c-.02.02 5.6 0 5.6 0v.8h-7s-.03-.7 0-.7zm11.3-10c1.5 0 2.5 1.1 2.5 2.6c0 1.5-1 2.6-2.5 2.6c-1.4 0-2.4-1.1-2.4-2.6c0-1.5 1-2.6 2.4-2.6zm5.8.2h.7l-6.7 10.5h-.7L140.6 2zm-5.8.4c-1 0-1.7.9-1.7 2c0 1.1.7 2 1.7 2c1.1 0 1.8-.9 1.8-2c0-1.1-.7-2-1.8-2zm5.4 5.1c1.5 0 2.5 1.2 2.5 2.6c0 1.5-1 2.6-2.5 2.6c-1.4 0-2.5-1.1-2.5-2.6c0-1.4 1.1-2.6 2.5-2.6zm0 .7c-1 0-1.7.9-1.7 1.9c0 1.1.7 2 1.7 2c1.1 0 1.8-.9 1.8-2c0-1-.7-1.9-1.8-1.9z" stroke="none" fill="#000"/></g></svg>