<?xml version="1.0" standalone="no"?><!DOCTYPE svg PUBLIC "-//W3C//DTD SVG 1.1//EN" "http://www.w3.org/Graphics/SVG/1.1/DTD/svg11.dtd"><svg xmlns="http://www.w3.org/2000/svg" version="1.1" width="77px" height="15.9px" viewBox="0 -4 77 15.9" style="top:-4px"><desc>7 20%</desc><defs/><g id="Polygon109565"><path d="m57.9 1.6h-3.4v-.5h4v.4l-2.6 5.6h-.5l2.5-5.5zm1 4.8c.2 0 .4.2.4.4c0 .2-.2.4-.4.4c-.3 0-.4-.2-.4-.4c0-.2.1-.4.4-.4zm1.5.3c2-1.7 3.4-2.8 3.4-4c0-.9-.7-1.2-1.4-1.2c-.7 0-1.3.3-1.6.8l-.4-.4c.4-.5 1.2-.9 2-.9c.9 0 1.9.5 1.9 1.7c0 1.3-1.4 2.5-3.1 3.9c-.04.04 3.1 0 3.1 0v.5h-3.9s-.05-.41 0-.4zM67.8 1C69.4 1 70 2.7 70 4.1c0 1.4-.6 3.1-2.2 3.1c-1.6 0-2.2-1.7-2.2-3.1c0-1.4.6-3.1 2.2-3.1zm0 .5c-1.2 0-1.7 1.4-1.7 2.6c0 1.2.5 2.7 1.7 2.7c1.3 0 1.7-1.5 1.7-2.7c0-1.2-.4-2.6-1.7-2.6zm4.5-.5c.8 0 1.4.7 1.4 1.5c0 .8-.6 1.5-1.4 1.5c-.9 0-1.4-.7-1.4-1.5c0-.8.5-1.5 1.4-1.5zm3.2.1h.5l-3.9 6h-.4l3.8-6zm-3.2.3c-.6 0-1 .5-1 1.1c0 .6.4 1.1 1 1.1c.6 0 1-.5 1-1.1c0-.6-.4-1.1-1-1.1zm3 2.9c.9 0 1.4.6 1.4 1.5c0 .8-.5 1.4-1.4 1.4c-.8 0-1.4-.6-1.4-1.4c0-.9.6-1.5 1.4-1.5zm0 .3c-.6 0-1 .5-1 1.2c0 .6.4 1.1 1 1.1c.6 0 1-.5 1-1.1c0-.7-.4-1.2-1-1.2z" stroke="none" fill="#000"/></g></svg>