<?xml version="1.0" standalone="no"?>
<!DOCTYPE svg PUBLIC "-//W3C//DTD SVG 1.1//EN" "http://www.w3.org/Graphics/SVG/1.1/DTD/svg11.dtd">
<svg xmlns="http://www.w3.org/2000/svg" version="1.1" width="79px" height="63.9px" viewBox="0 -10 79 63.9" style="top:-10px">
  <desc>Agent 1</desc>
  <defs/>
  <g id="Polygon207003">
    <path d="M 1.2 33.7 L 2.8 33.7 L 2.8 42.9 L 7.6 42.9 L 7.6 44.3 L 1.2 44.3 L 1.2 33.7 Z M 8.4 40.4 C 8.4 38.2 9.9 36.4 12.2 36.4 C 14.6 36.4 16.1 38.2 16.1 40.4 C 16.1 42.6 14.6 44.5 12.2 44.5 C 9.9 44.5 8.4 42.6 8.4 40.4 Z M 14.6 40.4 C 14.6 39 13.8 37.7 12.2 37.7 C 10.7 37.7 9.9 39 9.9 40.4 C 9.9 41.9 10.7 43.2 12.2 43.2 C 13.8 43.2 14.6 41.9 14.6 40.4 Z M 17.8 36.6 L 19.2 36.6 C 19.2 36.6 19.2 37.77 19.2 37.8 C 19.8 37 20.7 36.4 21.7 36.4 C 21.7 36.4 21.7 37.9 21.7 37.9 C 21.6 37.8 21.4 37.8 21.2 37.8 C 20.5 37.8 19.5 38.4 19.2 38.9 C 19.2 38.93 19.2 44.3 19.2 44.3 L 17.8 44.3 L 17.8 36.6 Z M 26.3 36.4 C 28.7 36.4 30.1 38.2 30.1 40.6 C 30.08 40.55 30.1 40.9 30.1 40.9 C 30.1 40.9 24.01 40.9 24 40.9 C 24.1 42.2 25.1 43.3 26.6 43.3 C 27.4 43.3 28.3 43 28.9 42.4 C 28.9 42.4 29.6 43.3 29.6 43.3 C 28.8 44.1 27.7 44.5 26.5 44.5 C 24.2 44.5 22.5 42.8 22.5 40.4 C 22.5 38.2 24.1 36.4 26.3 36.4 Z M 24 39.9 C 24 39.9 28.7 39.9 28.7 39.9 C 28.7 38.9 28 37.6 26.3 37.6 C 24.8 37.6 24.1 38.8 24 39.9 Z M 41 39.2 C 41 38.3 40.6 37.7 39.7 37.7 C 38.9 37.7 38.2 38.2 37.8 38.8 C 37.8 38.77 37.8 44.3 37.8 44.3 L 36.4 44.3 C 36.4 44.3 36.37 39.15 36.4 39.2 C 36.4 38.3 36 37.7 35 37.7 C 34.3 37.7 33.5 38.2 33.1 38.8 C 33.15 38.79 33.1 44.3 33.1 44.3 L 31.7 44.3 L 31.7 36.6 L 33.1 36.6 C 33.1 36.6 33.15 37.68 33.1 37.7 C 33.5 37.2 34.5 36.4 35.6 36.4 C 36.8 36.4 37.5 37 37.7 37.8 C 38.1 37.1 39.2 36.4 40.3 36.4 C 41.7 36.4 42.5 37.2 42.5 38.7 C 42.47 38.73 42.5 44.3 42.5 44.3 L 41 44.3 C 41 44.3 41.04 39.15 41 39.2 Z " stroke="none" fill="#3797ef"/>
  </g>
  <g id="Polygon207002">
    <path d="M 11 7.3 C 11 7.3 11 19.1 11 19.1 C 11 22.1 9.2 23.3 6.3 23.3 C 6.3 23.3 6 23.3 6 23.3 C 3.1 23.3 1.3 22.1 1.3 19.1 C 1.3 19.1 1.3 7.3 1.3 7.3 C 1.3 4.3 3.1 3.1 6 3.1 C 6 3.1 6.3 3.1 6.3 3.1 C 9.2 3.1 11 4.3 11 7.3 Z M 6.2 6 C 5.1 6 4.5 6.4 4.5 7.8 C 4.5 7.8 4.5 18.6 4.5 18.6 C 4.5 20 5.1 20.4 6.2 20.4 C 7.2 20.4 7.8 20 7.8 18.6 C 7.8 18.6 7.8 7.8 7.8 7.8 C 7.8 6.4 7.2 6 6.2 6 Z M 16.4 23.1 L 13.2 23.1 L 13.2 19.4 L 16.4 19.4 L 16.4 23.1 Z M 28.2 7.3 C 28.2 7.3 28.2 19.1 28.2 19.1 C 28.2 22.1 26.5 23.3 23.5 23.3 C 23.5 23.3 23.3 23.3 23.3 23.3 C 20.3 23.3 18.5 22.1 18.5 19.1 C 18.5 19.1 18.5 7.3 18.5 7.3 C 18.5 4.3 20.3 3.1 23.3 3.1 C 23.3 3.1 23.5 3.1 23.5 3.1 C 26.5 3.1 28.2 4.3 28.2 7.3 Z M 23.4 6 C 22.3 6 21.7 6.4 21.7 7.8 C 21.7 7.8 21.7 18.6 21.7 18.6 C 21.7 20 22.3 20.4 23.4 20.4 C 24.4 20.4 25.1 20 25.1 18.6 C 25.1 18.6 25.1 7.8 25.1 7.8 C 25.1 6.4 24.4 6 23.4 6 Z M 40.3 7.3 C 40.3 7.3 40.3 19.1 40.3 19.1 C 40.3 22.1 38.5 23.3 35.5 23.3 C 35.5 23.3 35.3 23.3 35.3 23.3 C 32.3 23.3 30.5 22.1 30.5 19.1 C 30.5 19.1 30.5 7.3 30.5 7.3 C 30.5 4.3 32.3 3.1 35.3 3.1 C 35.3 3.1 35.5 3.1 35.5 3.1 C 38.5 3.1 40.3 4.3 40.3 7.3 Z M 35.4 6 C 34.4 6 33.7 6.4 33.7 7.8 C 33.7 7.8 33.7 18.6 33.7 18.6 C 33.7 20 34.4 20.4 35.4 20.4 C 36.5 20.4 37.1 20 37.1 18.6 C 37.1 18.6 37.1 7.8 37.1 7.8 C 37.1 6.4 36.5 6 35.4 6 Z M 47.5 5.6 C 47.5 5.6 47.5 9.3 47.5 9.3 C 47.5 11 46.3 11.6 45 11.6 C 45 11.6 44.6 11.6 44.6 11.6 C 43.2 11.6 42.1 11 42.1 9.3 C 42.1 9.3 42.1 5.6 42.1 5.6 C 42.1 3.9 43.2 3.2 44.6 3.2 C 44.6 3.2 45 3.2 45 3.2 C 46.3 3.2 47.5 3.9 47.5 5.6 Z M 44.8 23.1 L 43 23.1 L 52.2 3.3 L 54 3.3 L 44.8 23.1 Z M 44.9 4.9 C 44.9 4.9 44.7 4.9 44.7 4.9 C 44.2 4.9 43.9 5.2 43.9 5.9 C 43.9 5.9 43.9 8.9 43.9 8.9 C 43.9 9.7 44.2 9.9 44.7 9.9 C 44.7 9.9 44.9 9.9 44.9 9.9 C 45.3 9.9 45.7 9.7 45.7 8.9 C 45.7 8.9 45.7 5.9 45.7 5.9 C 45.7 5.2 45.3 4.9 44.9 4.9 Z M 54.9 17.1 C 54.9 17.1 54.9 20.9 54.9 20.9 C 54.9 22.5 53.7 23.2 52.4 23.2 C 52.4 23.2 52 23.2 52 23.2 C 50.6 23.2 49.5 22.5 49.5 20.9 C 49.5 20.9 49.5 17.1 49.5 17.1 C 49.5 15.5 50.6 14.8 52 14.8 C 52 14.8 52.4 14.8 52.4 14.8 C 53.7 14.8 54.9 15.5 54.9 17.1 Z M 52.3 16.5 C 52.3 16.5 52.1 16.5 52.1 16.5 C 51.6 16.5 51.3 16.8 51.3 17.5 C 51.3 17.5 51.3 20.5 51.3 20.5 C 51.3 21.2 51.6 21.5 52.1 21.5 C 52.1 21.5 52.3 21.5 52.3 21.5 C 52.7 21.5 53.1 21.2 53.1 20.5 C 53.1 20.5 53.1 17.5 53.1 17.5 C 53.1 16.8 52.7 16.5 52.3 16.5 Z " stroke="none" fill="#282828"/>
  </g>
</svg>