<?xml version="1.0" standalone="no"?><!DOCTYPE svg PUBLIC "-//W3C//DTD SVG 1.1//EN" "http://www.w3.org/Graphics/SVG/1.1/DTD/svg11.dtd"><svg xmlns="http://www.w3.org/2000/svg" version="1.1" width="346.4px" height="20.3px" viewBox="0 -5 346.4 20.3" style="top:-5px"><desc>*Optional Note</desc><defs/><g id="Polygon51143"><path d="m1.6 3.1l-1 .7l-.3-.5l1.1-.5l-1.1-.6l.3-.5l1 .7l-.1-1.2h.6L2 2.4l1-.7l.3.5l-1.1.6l1.1.5l-.3.5l-1-.7l.1 1.2h-.6l.1-1.2zm6.1-1.9c2.1 0 3.5 1.5 3.5 3.6c0 2.1-1.4 3.7-3.5 3.7c-2.1 0-3.6-1.6-3.6-3.7c0-2.1 1.5-3.6 3.6-3.6zm0 .9c-1.5 0-2.5 1.2-2.5 2.7c0 1.6 1 2.8 2.5 2.8c1.5 0 2.4-1.2 2.4-2.8c0-1.5-.9-2.7-2.4-2.7zm4.8 8.2v-7h.9s.05.68 0 .7c.4-.5 1-.9 1.7-.9c1.4 0 2.3 1 2.3 2.7c0 1.7-.9 2.7-2.3 2.7c-.6 0-1.2-.3-1.7-.9c.05.02 0 2.7 0 2.7h-.9zM14.9 4c-.6 0-1.2.3-1.5.7v2.2c.3.4.9.7 1.5.7c.9 0 1.5-.7 1.5-1.8c0-1.1-.6-1.8-1.5-1.8zm3.9 3.2V4.1h-.9v-.8h.9V1.9h.9v1.4h1.1v.8h-1.1s.05 2.92 0 2.9c0 .4.2.6.5.6c.3 0 .5-.1.6-.2l.2.8c-.2.2-.5.3-1 .3c-.8 0-1.2-.5-1.2-1.3zm2.9-5.4c0-.3.3-.6.6-.6c.3 0 .6.3.6.6c0 .3-.3.6-.6.6c-.3 0-.6-.3-.6-.6zm.1 1.5h1v5.1h-1V3.3zM24 5.8c0-1.5 1-2.7 2.6-2.7c1.6 0 2.6 1.2 2.6 2.7c0 1.5-1 2.7-2.6 2.7C25 8.5 24 7.3 24 5.8zm4.2 0c0-1-.6-1.8-1.6-1.8c-1 0-1.6.8-1.6 1.8c0 1 .6 1.8 1.6 1.8c1 0 1.6-.8 1.6-1.8zm5.6-.7c0-.9-.4-1.1-1.1-1.1c-.6 0-1.1.3-1.4.7c.02.01 0 3.7 0 3.7h-.9V3.3h.9s.02.67 0 .7c.4-.4 1-.9 1.8-.9c1.1 0 1.7.6 1.7 1.7c-.03-.03 0 3.6 0 3.6h-1s.02-3.31 0-3.3zm5.6 2.7c-.4.4-.9.7-1.6.7c-.9 0-1.8-.6-1.8-1.7c0-1.2.9-1.7 1.8-1.7c.7 0 1.2.2 1.6.7v-.8c0-.7-.5-1.1-1.2-1.1c-.6 0-1.1.3-1.5.7l-.5-.6c.6-.6 1.3-.9 2.1-.9c1.2 0 2.1.5 2.1 1.8v3.5h-1s.04-.6 0-.6zm0-1.4c-.2-.4-.7-.6-1.3-.6c-.7 0-1.1.4-1.1 1c0 .6.4 1 1.1 1c.6 0 1.1-.2 1.3-.6v-.8zm2.5-5.1h1v7.1h-1V1.3zm6.3 1.6v5.5h-1.1V1.3h1.1l3.9 5.3V1.3h1v7.1h-1l-3.9-5.5zm6.2 2.9c0-1.5 1-2.7 2.5-2.7c1.6 0 2.6 1.2 2.6 2.7c0 1.5-1 2.7-2.6 2.7c-1.5 0-2.5-1.2-2.5-2.7zm4.1 0c0-1-.5-1.8-1.6-1.8c-1 0-1.5.8-1.5 1.8c0 1 .5 1.8 1.5 1.8c1.1 0 1.6-.8 1.6-1.8zm2.4 1.4c.02.03 0-3.1 0-3.1h-.8v-.8h.8V1.9h1v1.4h1v.8h-1s-.02 2.92 0 2.9c0 .4.1.6.5.6c.2 0 .4-.1.5-.2l.2.8c-.2.2-.5.3-1 .3c-.8 0-1.2-.5-1.2-1.3zm5.3-4.1c1.6 0 2.5 1.2 2.5 2.8v.2s-4.04.02-4 0c0 .9.7 1.6 1.7 1.6c.5 0 1.1-.2 1.5-.6l.5.6c-.6.5-1.3.8-2.1.8c-1.5 0-2.6-1.1-2.6-2.7c0-1.5 1-2.7 2.5-2.7zm-1.5 2.3h3.1c0-.6-.5-1.5-1.6-1.5c-1 0-1.5.8-1.5 1.5z" stroke="none" fill="#878787"/></g></svg>