<?xml version="1.0" standalone="no"?><!DOCTYPE svg PUBLIC "-//W3C//DTD SVG 1.1//EN" "http://www.w3.org/Graphics/SVG/1.1/DTD/svg11.dtd"><svg xmlns="http://www.w3.org/2000/svg" version="1.1" width="292.2px" height="47.4px" viewBox="0 -10 292.2 47.4" style="top:-10px"><desc>00 Million</desc><defs/><g id="Polygon299010"><path d="m9.6 22.6v2.5h-2v-2.5c-2.9-.2-5.1-1.3-6.5-2.9l1.6-2.2c1.1 1.2 2.8 2.3 4.9 2.5v-6.1c-2.9-.7-5.9-1.8-5.9-5.3c0-3 2.4-5.1 5.9-5.4V.6h2v2.6c2.3.3 4.2 1.2 5.6 2.6l-1.6 2.1c-1.1-1.1-2.5-1.8-4-2.1v5.6c2.9.7 6 1.8 6 5.6c0 2.7-1.7 5.2-6 5.6zm-2-11.8V5.7c-1.8.2-3 1.2-3 2.7c0 1.3 1.3 1.9 3 2.4zm5.2 6.4c0-1.6-1.4-2.2-3.2-2.8v5.6c2.3-.2 3.2-1.6 3.2-2.8zm12.5-14c5.2 0 7.4 5 7.4 9.7c0 4.7-2.2 9.7-7.4 9.7c-5.2 0-7.4-5-7.4-9.7c0-4.7 2.2-9.7 7.4-9.7zm0 2.5c-3.3 0-4.5 3.5-4.5 7.2c0 3.7 1.2 7.2 4.5 7.2c3.3 0 4.5-3.5 4.5-7.2c0-3.7-1.2-7.2-4.5-7.2zm17.1-2.5c5.2 0 7.3 5 7.3 9.7c0 4.7-2.1 9.7-7.3 9.7c-5.3 0-7.4-5-7.4-9.7c0-4.7 2.1-9.7 7.4-9.7zm0 2.5c-3.4 0-4.5 3.5-4.5 7.2c0 3.7 1.1 7.2 4.5 7.2c3.3 0 4.4-3.5 4.4-7.2c0-3.7-1.1-7.2-4.4-7.2zM76 7.3l-6.1 15h-1.1l-6.1-15v15h-2.9V3.5h4.1L69.3 17l5.5-13.5h4.1v18.8H76v-15zm6.3-2.5c0-.9.8-1.7 1.6-1.7c.9 0 1.7.8 1.7 1.7c0 .9-.8 1.6-1.7 1.6c-.8 0-1.6-.7-1.6-1.6zm.4 3.9h2.5v13.6h-2.5V8.7zM89 3.5h2.5v18.8H89V3.5zm6.3 0h2.5v18.8h-2.5V3.5zm5.9 1.3c0-.9.8-1.7 1.6-1.7c.9 0 1.7.8 1.7 1.7c0 .9-.8 1.6-1.7 1.6c-.8 0-1.6-.7-1.6-1.6zm.4 3.9h2.5v13.6h-2.5V8.7zm5.4 6.8c0-4 2.7-7.2 6.9-7.2c4.3 0 6.9 3.2 6.9 7.2c0 3.9-2.6 7.1-6.9 7.1c-4.2 0-6.9-3.2-6.9-7.1zm11.2 0c0-2.6-1.5-4.9-4.3-4.9c-2.7 0-4.2 2.3-4.2 4.9c0 2.6 1.5 4.9 4.2 4.9c2.8 0 4.3-2.3 4.3-4.9zm14.8-1.9c0-2.3-1.2-3-3-3c-1.5 0-3 .9-3.7 2v9.7h-2.5V8.7h2.5v1.9c.9-1.1 2.7-2.3 4.8-2.3c2.9 0 4.4 1.6 4.4 4.4v9.6H133s-.04-8.72 0-8.7z" stroke="none" fill="#282828"/></g></svg>