<?xml version="1.0" standalone="no"?>
<!DOCTYPE svg PUBLIC "-//W3C//DTD SVG 1.1//EN" "http://www.w3.org/Graphics/SVG/1.1/DTD/svg11.dtd">
<svg xmlns="http://www.w3.org/2000/svg" version="1.1" width="158px" height="27.9px" viewBox="0 -6 158 27.9" style="top:-6px">
  <desc>Years in Business</desc>
  <defs/>
  <g id="Polygon276672">
    <path d="M 4.2 8.1 L 0.1 2 L 1.9 2 L 5 6.7 L 8.1 2 L 9.9 2 L 5.8 8.1 L 5.8 12.5 L 4.2 12.5 L 4.2 8.1 Z M 12.5 4.7 C 14.9 4.7 16.3 6.5 16.3 8.8 C 16.28 8.83 16.3 9.2 16.3 9.2 C 16.3 9.2 10.21 9.18 10.2 9.2 C 10.3 10.5 11.3 11.6 12.8 11.6 C 13.6 11.6 14.5 11.2 15.1 10.7 C 15.1 10.7 15.8 11.6 15.8 11.6 C 15 12.3 13.9 12.7 12.7 12.7 C 10.4 12.7 8.7 11.1 8.7 8.7 C 8.7 6.5 10.3 4.7 12.5 4.7 Z M 10.2 8.1 C 10.2 8.1 14.9 8.1 14.9 8.1 C 14.9 7.1 14.2 5.9 12.5 5.9 C 11 5.9 10.3 7.1 10.2 8.1 Z M 22.8 11.7 C 22.2 12.4 21.3 12.7 20.3 12.7 C 19 12.7 17.6 11.9 17.6 10.2 C 17.6 8.4 19 7.7 20.3 7.7 C 21.3 7.7 22.2 8 22.8 8.7 C 22.8 8.7 22.8 7.4 22.8 7.4 C 22.8 6.5 22 5.9 20.9 5.9 C 20.1 5.9 19.3 6.2 18.6 6.9 C 18.6 6.9 18 5.9 18 5.9 C 18.9 5.1 19.9 4.7 21.2 4.7 C 22.8 4.7 24.2 5.4 24.2 7.4 C 24.24 7.37 24.2 12.5 24.2 12.5 L 22.8 12.5 C 22.8 12.5 22.81 11.71 22.8 11.7 Z M 22.8 9.6 C 22.4 9 21.6 8.7 20.8 8.7 C 19.8 8.7 19.1 9.3 19.1 10.2 C 19.1 11.1 19.8 11.7 20.8 11.7 C 21.6 11.7 22.4 11.4 22.8 10.9 C 22.8 10.9 22.8 9.6 22.8 9.6 Z M 26.5 4.9 L 28 4.9 C 28 4.9 27.95 6.05 28 6.1 C 28.5 5.3 29.4 4.7 30.5 4.7 C 30.5 4.7 30.5 6.1 30.5 6.1 C 30.3 6.1 30.2 6.1 30 6.1 C 29.3 6.1 28.3 6.6 28 7.2 C 27.95 7.21 28 12.5 28 12.5 L 26.5 12.5 L 26.5 4.9 Z M 31.9 10.5 C 32.4 11.1 33.4 11.6 34.5 11.6 C 35.6 11.6 36.1 11.2 36.1 10.5 C 36.1 9.7 35.3 9.5 34.3 9.3 C 33 9 31.4 8.6 31.4 7 C 31.4 5.7 32.5 4.7 34.4 4.7 C 35.7 4.7 36.6 5.2 37.3 5.8 C 37.3 5.8 36.7 6.8 36.7 6.8 C 36.2 6.2 35.4 5.8 34.4 5.8 C 33.4 5.8 32.8 6.2 32.8 6.8 C 32.8 7.5 33.6 7.7 34.6 8 C 35.9 8.3 37.5 8.6 37.5 10.4 C 37.5 11.7 36.4 12.7 34.4 12.7 C 33.1 12.7 32 12.3 31.2 11.5 C 31.2 11.5 31.9 10.5 31.9 10.5 Z M 43.2 2.7 C 43.2 2.2 43.6 1.8 44.1 1.8 C 44.6 1.8 45 2.2 45 2.7 C 45 3.2 44.6 3.6 44.1 3.6 C 43.6 3.6 43.2 3.2 43.2 2.7 Z M 43.4 4.9 L 44.9 4.9 L 44.9 12.5 L 43.4 12.5 L 43.4 4.9 Z M 52.3 7.6 C 52.3 6.4 51.6 6 50.7 6 C 49.8 6 49 6.5 48.6 7.1 C 48.55 7.07 48.6 12.5 48.6 12.5 L 47.1 12.5 L 47.1 4.9 L 48.6 4.9 C 48.6 4.9 48.55 5.95 48.6 6 C 49.1 5.3 50.1 4.7 51.3 4.7 C 52.9 4.7 53.7 5.5 53.7 7.2 C 53.73 7.16 53.7 12.5 53.7 12.5 L 52.3 12.5 C 52.3 12.5 52.3 7.64 52.3 7.6 Z M 60.1 2 C 60.1 2 65.1 1.95 65.1 2 C 67 2 68.1 3.1 68.1 4.7 C 68.1 6 67.2 6.9 66.2 7.1 C 67.4 7.3 68.3 8.4 68.3 9.7 C 68.3 11.4 67.2 12.5 65.2 12.5 C 65.23 12.55 60.1 12.5 60.1 12.5 L 60.1 2 Z M 64.8 6.4 C 65.9 6.4 66.5 5.8 66.5 4.9 C 66.5 4 65.9 3.4 64.8 3.4 C 64.8 3.35 61.7 3.4 61.7 3.4 L 61.7 6.4 C 61.7 6.4 64.8 6.45 64.8 6.4 Z M 64.9 11.2 C 66 11.2 66.7 10.5 66.7 9.5 C 66.7 8.6 66.1 7.8 64.9 7.8 C 64.88 7.84 61.7 7.8 61.7 7.8 L 61.7 11.2 C 61.7 11.2 64.88 11.15 64.9 11.2 Z M 75.4 11.5 C 74.8 12.1 73.9 12.7 72.7 12.7 C 71 12.7 70.2 11.9 70.2 10.3 C 70.23 10.29 70.2 4.9 70.2 4.9 L 71.7 4.9 C 71.7 4.9 71.66 9.82 71.7 9.8 C 71.7 11.1 72.3 11.5 73.3 11.5 C 74.2 11.5 75 11 75.4 10.4 C 75.41 10.39 75.4 4.9 75.4 4.9 L 76.8 4.9 L 76.8 12.5 L 75.4 12.5 C 75.4 12.5 75.41 11.5 75.4 11.5 Z M 79.1 10.5 C 79.6 11.1 80.7 11.6 81.7 11.6 C 82.8 11.6 83.4 11.2 83.4 10.5 C 83.4 9.7 82.5 9.5 81.5 9.3 C 80.2 9 78.7 8.6 78.7 7 C 78.7 5.7 79.7 4.7 81.6 4.7 C 82.9 4.7 83.9 5.2 84.5 5.8 C 84.5 5.8 83.9 6.8 83.9 6.8 C 83.4 6.2 82.6 5.8 81.6 5.8 C 80.6 5.8 80 6.2 80 6.8 C 80 7.5 80.9 7.7 81.8 8 C 83.1 8.3 84.7 8.6 84.7 10.4 C 84.7 11.7 83.7 12.7 81.6 12.7 C 80.3 12.7 79.2 12.3 78.4 11.5 C 78.4 11.5 79.1 10.5 79.1 10.5 Z M 86.3 2.7 C 86.3 2.2 86.7 1.8 87.2 1.8 C 87.7 1.8 88.2 2.2 88.2 2.7 C 88.2 3.2 87.7 3.6 87.2 3.6 C 86.7 3.6 86.3 3.2 86.3 2.7 Z M 86.5 4.9 L 88 4.9 L 88 12.5 L 86.5 12.5 L 86.5 4.9 Z M 95.4 7.6 C 95.4 6.4 94.8 6 93.8 6 C 92.9 6 92.1 6.5 91.7 7.1 C 91.67 7.07 91.7 12.5 91.7 12.5 L 90.2 12.5 L 90.2 4.9 L 91.7 4.9 C 91.7 4.9 91.67 5.95 91.7 6 C 92.2 5.3 93.2 4.7 94.4 4.7 C 96 4.7 96.8 5.5 96.8 7.2 C 96.85 7.16 96.8 12.5 96.8 12.5 L 95.4 12.5 C 95.4 12.5 95.42 7.64 95.4 7.6 Z M 102.5 4.7 C 104.8 4.7 106.2 6.5 106.2 8.8 C 106.22 8.83 106.2 9.2 106.2 9.2 C 106.2 9.2 100.15 9.18 100.2 9.2 C 100.3 10.5 101.2 11.6 102.8 11.6 C 103.6 11.6 104.5 11.2 105 10.7 C 105 10.7 105.7 11.6 105.7 11.6 C 104.9 12.3 103.9 12.7 102.6 12.7 C 100.3 12.7 98.6 11.1 98.6 8.7 C 98.6 6.5 100.2 4.7 102.5 4.7 Z M 100.1 8.1 C 100.1 8.1 104.8 8.1 104.8 8.1 C 104.8 7.1 104.1 5.9 102.5 5.9 C 100.9 5.9 100.2 7.1 100.1 8.1 Z M 108 10.5 C 108.6 11.1 109.6 11.6 110.6 11.6 C 111.7 11.6 112.3 11.2 112.3 10.5 C 112.3 9.7 111.4 9.5 110.4 9.3 C 109.1 9 107.6 8.6 107.6 7 C 107.6 5.7 108.6 4.7 110.5 4.7 C 111.8 4.7 112.8 5.2 113.4 5.8 C 113.4 5.8 112.8 6.8 112.8 6.8 C 112.3 6.2 111.5 5.8 110.5 5.8 C 109.5 5.8 108.9 6.2 108.9 6.8 C 108.9 7.5 109.8 7.7 110.7 8 C 112 8.3 113.6 8.6 113.6 10.4 C 113.6 11.7 112.6 12.7 110.5 12.7 C 109.3 12.7 108.1 12.3 107.3 11.5 C 107.3 11.5 108 10.5 108 10.5 Z M 115.5 10.5 C 116 11.1 117 11.6 118 11.6 C 119.1 11.6 119.7 11.2 119.7 10.5 C 119.7 9.7 118.8 9.5 117.8 9.3 C 116.5 9 115 8.6 115 7 C 115 5.7 116 4.7 117.9 4.7 C 119.2 4.7 120.2 5.2 120.8 5.8 C 120.8 5.8 120.2 6.8 120.2 6.8 C 119.8 6.2 118.9 5.8 117.9 5.8 C 117 5.8 116.4 6.2 116.4 6.8 C 116.4 7.5 117.2 7.7 118.1 8 C 119.5 8.3 121.1 8.6 121.1 10.4 C 121.1 11.7 120 12.7 118 12.7 C 116.7 12.7 115.6 12.3 114.8 11.5 C 114.8 11.5 115.5 10.5 115.5 10.5 Z " stroke="none" fill="#000"/>
  </g>
</svg>