<?xml version="1.0" standalone="no"?><!DOCTYPE svg PUBLIC "-//W3C//DTD SVG 1.1//EN" "http://www.w3.org/Graphics/SVG/1.1/DTD/svg11.dtd"><svg xmlns="http://www.w3.org/2000/svg" version="1.1" width="134px" height="27.3px" viewBox="0 -6 134 27.3" style="top:-6px"><desc>29,714</desc><defs/><g id="Polygon114533"><path d="m87.9 12.7c.03.02 0 1.4 0 1.4h-.7v-1.4c-1.6 0-2.8-.7-3.6-1.6l.6-.7c.6.7 1.6 1.4 3 1.5V7.4C85.6 7 84 6.5 84 4.6c0-1.6 1.4-2.7 3.2-2.8V.4h.7s.03 1.41 0 1.4c1.4.1 2.4.6 3.1 1.5l-.6.6c-.6-.7-1.5-1.2-2.5-1.2v3.9c1.7.5 3.4 1.1 3.4 3.2c0 1.2-.8 2.8-3.4 2.9zm-.7-6.3V2.6c-1.3.1-2.3.9-2.3 2c0 1.1 1.1 1.5 2.3 1.8zm3.1 3.4c0-1.3-1.1-1.8-2.4-2.2v4.3c1.9-.1 2.4-1.3 2.4-2.1zm2.7 2c3.6-2.9 6-5 6-7c0-1.5-1.2-2.2-2.4-2.2c-1.3 0-2.3.6-2.9 1.4l-.6-.6c.8-1 2-1.6 3.5-1.6c1.6 0 3.4.9 3.4 3c0 2.3-2.5 4.4-5.6 6.9c.04.02 5.6 0 5.6 0v.8h-7s.03-.7 0-.7zm10.3-1.1c.6.7 1.2 1.2 2.4 1.2c2.3 0 3.1-2.4 3.1-4.7v-.5c-.4.8-1.7 1.8-3.1 1.8c-1.9 0-3.4-1.1-3.4-3.3c0-1.8 1.3-3.4 3.5-3.4c2.9 0 3.9 2.6 3.9 5.5c0 2.7-1.1 5.4-4 5.4c-1.4 0-2.2-.5-2.9-1.3l.5-.7zm2.6-8.1c-1.8 0-2.7 1.4-2.7 2.5c0 1.8 1.1 2.6 2.7 2.6c1.1 0 2.2-.7 2.8-1.8c-.1-1.5-.8-3.3-2.8-3.3zm5.1 11.5c.5-.3.9-1 .9-1.5l-.1.1c-.4 0-.7-.3-.7-.7c0-.4.3-.7.7-.7c.4 0 .8.4.8 1c0 .9-.5 1.8-1.1 2.2l-.5-.4zm7.9-11.3h-5.8v-.8h6.9v.6l-4.5 9.9h-1l4.4-9.7zm4.3.4L121.5 5l-.6-.6l2.4-2.4h.8v10.5h-.9V3.2zm7.8 6.5h-5v-.9l4.7-6.8h1.2v6.8h1.6v.9h-1.6v2.8h-.9V9.7zm-4.1-.9h4.1V2.9l-4.1 5.9z" stroke="none" fill="#000"/></g></svg>