<?xml version="1.0" standalone="no"?><!DOCTYPE svg PUBLIC "-//W3C//DTD SVG 1.1//EN" "http://www.w3.org/Graphics/SVG/1.1/DTD/svg11.dtd"><svg xmlns="http://www.w3.org/2000/svg" version="1.1" width="158px" height="27.9px" viewBox="0 -6 158 27.9" style="top:-6px"><desc>Lease Type</desc><defs/><g id="Polygon53083"><path d="m1.2 2h1.6v9.2h4.8v1.3H1.2V2zm11.2 2.7c2.3 0 3.7 1.8 3.7 4.1v.4s-6.06-.02-6.1 0c.1 1.3 1.1 2.4 2.6 2.4c.9 0 1.7-.4 2.3-.9l.7.9c-.8.7-1.9 1.1-3.1 1.1c-2.3 0-4-1.6-4-4c0-2.2 1.6-4 3.9-4zM10 8.1h4.7c0-1-.7-2.2-2.3-2.2c-1.6 0-2.3 1.2-2.4 2.2zm12.6 3.6c-.6.7-1.4 1-2.5 1c-1.2 0-2.6-.8-2.6-2.5c0-1.8 1.3-2.5 2.6-2.5c1.1 0 1.9.3 2.5 1V7.4c0-.9-.7-1.5-1.8-1.5c-.9 0-1.7.3-2.3 1l-.7-1c.9-.8 1.9-1.2 3.2-1.2c1.6 0 3.1.7 3.1 2.7c-.04-.03 0 5.1 0 5.1h-1.5s.03-.79 0-.8zm0-2.1c-.4-.6-1.1-.9-1.9-.9c-1.1 0-1.8.6-1.8 1.5c0 .9.7 1.5 1.8 1.5c.8 0 1.5-.3 1.9-.8V9.6zm3.8.9c.5.6 1.5 1.1 2.5 1.1c1.1 0 1.7-.4 1.7-1.1c0-.8-.9-1-1.9-1.2c-1.3-.3-2.8-.7-2.8-2.3c0-1.3 1.1-2.3 2.9-2.3c1.3 0 2.3.5 2.9 1.1l-.6 1c-.4-.6-1.3-1-2.3-1c-.9 0-1.5.4-1.5 1c0 .7.8.9 1.7 1.2c1.4.3 3 .6 3 2.4c0 1.3-1.1 2.3-3.1 2.3c-1.3 0-2.4-.4-3.2-1.2l.7-1zm10.7-5.8c2.4 0 3.8 1.8 3.8 4.1c-.02.03 0 .4 0 .4c0 0-6.09-.02-6.1 0c.1 1.3 1.1 2.4 2.6 2.4c.8 0 1.7-.4 2.3-.9l.7.9c-.8.7-1.9 1.1-3.1 1.1c-2.3 0-4-1.6-4-4c0-2.2 1.6-4 3.8-4zm-2.3 3.4h4.7c0-1-.7-2.2-2.4-2.2c-1.5 0-2.2 1.2-2.3 2.2zm14.6-4.7h-3.3V2h8.2v1.4H51v9.1h-1.6V3.4zm5.9 11c.6 0 .9-.2 1.1-.8c.05.04.5-1 .5-1l-3.2-7.7h1.6l2.4 6l2.4-6h1.5s-3.79 9.11-3.8 9.1c-.5 1.2-1.3 1.6-2.4 1.7c-.3 0-.7-.1-.9-.2l.2-1.2c.2 0 .4.1.6.1zm7.5 1.1V4.9h1.4s-.02 1.07 0 1.1c.5-.8 1.5-1.3 2.5-1.3c2 0 3.4 1.5 3.4 4c0 2.5-1.4 4-3.4 4c-1 0-1.9-.4-2.5-1.3c-.02.04 0 4.1 0 4.1h-1.4zM66.3 6c-.9 0-1.7.5-2.1 1.1v3.2c.4.6 1.2 1.2 2.1 1.2c1.4 0 2.3-1.2 2.3-2.8c0-1.6-.9-2.7-2.3-2.7zm9-1.3c2.3 0 3.7 1.8 3.7 4.1v.4s-6.05-.02-6.1 0c.2 1.3 1.1 2.4 2.7 2.4c.8 0 1.7-.4 2.2-.9l.7.9c-.8.7-1.9 1.1-3.1 1.1c-2.3 0-4-1.6-4-4c0-2.2 1.6-4 3.9-4zm-2.4 3.4h4.7c0-1-.7-2.2-2.3-2.2c-1.6 0-2.3 1.2-2.4 2.2z" stroke="none" fill="#000"/></g></svg>