<?xml version="1.0" standalone="no"?><!DOCTYPE svg PUBLIC "-//W3C//DTD SVG 1.1//EN" "http://www.w3.org/Graphics/SVG/1.1/DTD/svg11.dtd"><svg xmlns="http://www.w3.org/2000/svg" version="1.1" width="51.1px" height="52px" viewBox="0 -11 51.1 52" style="top:-11px"><desc>01</desc><defs/><g id="Polygon107670"><path d="m27.3 7v13.3c0 3.4-2 4.7-5.4 4.7h-.2c-3.4 0-5.4-1.3-5.4-4.7V7c0-3.4 2-4.7 5.4-4.7h.2c3.4 0 5.4 1.3 5.4 4.7zm-5.5-1.5c-1.2 0-1.9.5-1.9 2.1v12.2c0 1.5.7 2 1.9 2c1.2 0 1.9-.5 1.9-2V7.6c0-1.6-.7-2.1-1.9-2.1zm8.8 19.3s.03-19.65 0-19.7c.7-.7 1.3-1.5 1.6-2.6c-.01.04 2 0 2 0v22.3h-3.6z" stroke="none" fill="#fff"/></g></svg>