<?xml version="1.0" standalone="no"?><!DOCTYPE svg PUBLIC "-//W3C//DTD SVG 1.1//EN" "http://www.w3.org/Graphics/SVG/1.1/DTD/svg11.dtd"><svg xmlns="http://www.w3.org/2000/svg" version="1.1" width="156px" height="27.9px" viewBox="0 -6 156 27.9" style="top:-6px"><desc>GLA</desc><defs/><g id="Polygon274685"><path d="m68.9 1.8c2 0 3.3.9 4.2 2.1l-1.3.7c-.6-.8-1.6-1.4-2.9-1.4c-2.2 0-3.8 1.7-3.8 4.1c0 2.3 1.6 4 3.8 4c1.2 0 2.2-.5 2.7-1c.02-.01 0-1.9 0-1.9h-3.4V7h5v3.9c-1 1.1-2.5 1.9-4.3 1.9c-3 0-5.5-2.2-5.5-5.5c0-3.3 2.5-5.5 5.5-5.5zm6.3.2h1.6v9.2h4.8v1.3h-6.4V2zm14.9 8.4h-5.2l-.9 2.1h-1.7L86.5 2h2l4.2 10.5h-1.8l-.8-2.1zm-4.7-1.5h4.2l-2.1-5.6l-2.1 5.6z" stroke="none" fill="#000"/></g></svg>