<?xml version="1.0" standalone="no"?><!DOCTYPE svg PUBLIC "-//W3C//DTD SVG 1.1//EN" "http://www.w3.org/Graphics/SVG/1.1/DTD/svg11.dtd"><svg xmlns="http://www.w3.org/2000/svg" version="1.1" width="114px" height="27.5px" viewBox="0 -6 114 27.5" style="top:-6px"><desc>000</desc><defs/><g id="Polygon290887"><path d="m6.2 3.5v6.7c0 1.7-1 2.4-2.6 2.4h-.2c-1.7 0-2.7-.7-2.7-2.4V3.5c0-1.7 1-2.3 2.7-2.3h.2c1.6 0 2.6.6 2.6 2.3zm-2.7-.7c-.6 0-1 .2-1 1v6.2c0 .8.4 1 1 1c.6 0 .9-.2.9-1V3.8c0-.8-.3-1-.9-1zm9.6.7v6.7c0 1.7-1.1 2.4-2.7 2.4h-.2c-1.6 0-2.6-.7-2.6-2.4V3.5c0-1.7 1-2.3 2.6-2.3h.2c1.6 0 2.7.6 2.7 2.3zm-2.8-.7c-.6 0-1 .2-1 1v6.2c0 .8.4 1 1 1c.6 0 1-.2 1-1V3.8c0-.8-.4-1-1-1zm9.6.7v6.7c0 1.7-1 2.4-2.7 2.4h-.1c-1.7 0-2.7-.7-2.7-2.4V3.5c0-1.7 1-2.3 2.7-2.3h.1c1.7 0 2.7.6 2.7 2.3zm-2.8-.7c-.6 0-.9.2-.9 1v6.2c0 .8.3 1 .9 1c.6 0 1-.2 1-1V3.8c0-.8-.4-1-1-1z" stroke="none" fill="#282828"/></g></svg>