<?xml version="1.0" standalone="no"?><!DOCTYPE svg PUBLIC "-//W3C//DTD SVG 1.1//EN" "http://www.w3.org/Graphics/SVG/1.1/DTD/svg11.dtd"><svg xmlns="http://www.w3.org/2000/svg" version="1.1" width="75.4px" height="15.9px" viewBox="0 -4 75.4 15.9" style="top:-4px"><desc>72,830</desc><defs/><g id="Polygon110364"><path d="m51.8 1.6h-3.3v-.5h3.9v.4l-2.5 5.6h-.6l2.5-5.5zm1.4 5.1c2.1-1.7 3.4-2.8 3.4-4c0-.9-.7-1.2-1.3-1.2c-.8 0-1.4.3-1.7.8l-.3-.4c.4-.5 1.1-.9 2-.9c.8 0 1.8.5 1.8 1.7c0 1.3-1.4 2.5-3.1 3.9c.01.04 3.2 0 3.2 0v.5h-4v-.4zM58.5 8c.3-.2.5-.6.5-.8h-.1c-.2 0-.4-.2-.4-.4c0-.2.2-.4.4-.4c.3 0 .5.2.5.6c0 .5-.3 1-.7 1.2l-.2-.2zm3.4-4c-.7-.2-1.4-.6-1.4-1.4c0-1.1 1-1.6 2-1.6c.9 0 1.9.5 1.9 1.6c0 .8-.7 1.2-1.4 1.4c.8.2 1.5.8 1.5 1.6c0 1-.9 1.6-2 1.6c-1.2 0-2.1-.6-2.1-1.6c0-.8.8-1.4 1.5-1.6zm.6-2.5c-.8 0-1.4.4-1.4 1.1c0 .9 1 1.1 1.4 1.2c.4-.1 1.4-.3 1.4-1.2c0-.7-.6-1.1-1.4-1.1zm0 2.7c-.4.1-1.5.5-1.5 1.4c0 .7.7 1.2 1.5 1.2c.8 0 1.5-.5 1.5-1.2c0-.9-1.2-1.3-1.5-1.4zm3.2 1.7c.3.5.9.9 1.7.9c.9 0 1.5-.5 1.5-1.3c0-.9-.7-1.2-1.6-1.2h-.6v-.5h.6c.8 0 1.5-.4 1.5-1.2c0-.7-.7-1.1-1.4-1.1c-.7 0-1.2.3-1.7.7l-.3-.3c.4-.5 1.1-.9 2-.9c1 0 1.9.6 1.9 1.6c0 .9-.8 1.3-1.3 1.4c.6.1 1.4.5 1.4 1.5c0 1-.7 1.7-2 1.7c-1 0-1.7-.4-2.1-1l.4-.3zm7-4.9c1.6 0 2.2 1.7 2.2 3.1c0 1.4-.6 3.1-2.2 3.1c-1.6 0-2.2-1.7-2.2-3.1c0-1.4.6-3.1 2.2-3.1zm0 .5c-1.3 0-1.7 1.4-1.7 2.6c0 1.2.4 2.7 1.7 2.7c1.2 0 1.7-1.5 1.7-2.7c0-1.2-.4-2.6-1.7-2.6z" stroke="none" fill="#000"/></g></svg>