<?xml version="1.0" standalone="no"?><!DOCTYPE svg PUBLIC "-//W3C//DTD SVG 1.1//EN" "http://www.w3.org/Graphics/SVG/1.1/DTD/svg11.dtd"><svg xmlns="http://www.w3.org/2000/svg" version="1.1" width="343px" height="29.9px" viewBox="0 -7 343 29.9" style="top:-7px"><desc>09</desc><defs/><g id="Polygon291417"><path d="m5.2 1.9c3.1 0 4.3 3 4.3 5.8c0 2.8-1.2 5.8-4.3 5.8c-3.1 0-4.4-3-4.4-5.8c0-2.8 1.3-5.8 4.4-5.8zm0 1.5c-2 0-2.7 2.1-2.7 4.3c0 2.2.7 4.3 2.7 4.3c1.9 0 2.6-2.1 2.6-4.3c0-2.2-.7-4.3-2.6-4.3zm7.3 7.5c.5.7 1.2 1.1 2.3 1.1c2.2 0 3.1-2.1 3.1-4.1v-.3c-.5.7-1.8 1.6-3.1 1.6c-2 0-3.8-1.2-3.8-3.6c0-2 1.6-3.7 4.1-3.7c3.2 0 4.5 2.7 4.5 5.8c0 3.1-1.6 5.8-4.8 5.8c-1.4 0-2.4-.6-3.1-1.3l.8-1.3zm2.7-7.5c-1.6 0-2.4 1.2-2.4 2.1c0 1.5 1.1 2.3 2.4 2.3c1 0 2.1-.6 2.6-1.5c-.1-1.3-.8-2.9-2.6-2.9z" stroke="none" fill="#88898a"/></g></svg>