<?xml version="1.0" standalone="no"?><!DOCTYPE svg PUBLIC "-//W3C//DTD SVG 1.1//EN" "http://www.w3.org/Graphics/SVG/1.1/DTD/svg11.dtd"><svg xmlns="http://www.w3.org/2000/svg" version="1.1" width="130px" height="49.5px" viewBox="0 -6 130 49.5" style="top:-6px"><desc>Tony</desc><defs/><g id="Polygon82114"><path d="m5.5 28.5H.8V17.3h1.9v9.5h2.8v1.7zM9.9 26h-2l-.4 2.5H5.7l2.1-11.2h2.3l2.1 11.2h-1.9L9.9 26zm-.2-1.6l-.8-4.9l-.8 4.9h1.6zm6.7-3.1s-.03-1.59 0-1.6c0-.7-.4-.9-1-.9c-.5 0-.9.2-.9.9v.8c0 .6.2.8.7 1.1l1.3.8c1.1.6 1.7 1.1 1.7 2.3v1.6c0 1.7-1 2.3-2.7 2.3h-.1c-1.7 0-2.7-.6-2.7-2.3c-.04-.03 0-2 0-2h1.8s-.02 1.72 0 1.7c0 .7.4 1 .9 1c.6 0 1-.3 1-1v-.9c0-.5-.2-.8-.7-1.1l-1.3-.8c-1.1-.6-1.7-1.1-1.7-2.3v-1.4c0-1.7 1.2-2.3 2.7-2.3c1.6 0 2.8.6 2.8 2.3c-.01-.04 0 1.8 0 1.8h-1.8zm7.9-2.4h-1.9v9.6h-1.8v-9.6h-1.9v-1.6h5.6v1.6z" stroke="none" fill="#282828"/></g><g id="Polygon82113"><path d="m.8 1.3h4.8v1.6H2.7v3.2h2.5v1.6H2.7v4.8H.8V1.3zm5.8 11.2V1.3h1.9v11.2H6.6zm7.6 0L12.8 8h-1v4.5H10V1.3s2.86-.02 2.9 0c1.7 0 2.8.7 2.8 2.3v2c0 1.1-.5 1.8-1.2 2.1c-.04.03 1.6 4.8 1.6 4.8h-1.9zm-2.4-6.1s1 .02 1 0c.6 0 1-.2 1-1V3.9c0-.8-.4-1-1-1h-1v3.5zm8.6-1.1s.05-1.59 0-1.6c0-.7-.4-.9-.9-.9c-.5 0-.9.2-.9.9v.8c0 .6.2.8.7 1.1l1.3.8c1.1.6 1.7 1.1 1.7 2.3v1.6c0 1.7-1.1 2.3-2.8 2.3c-1.7 0-2.8-.6-2.8-2.3c.04-.03 0-2 0-2h1.9s-.04 1.72 0 1.7c0 .7.4 1 .9 1c.6 0 1-.3 1-1v-.9c0-.5-.2-.8-.8-1.1l-1.3-.8c-1-.6-1.7-1.1-1.7-2.3V3.5c0-1.7 1.3-2.3 2.8-2.3c1.6 0 2.8.6 2.8 2.3c-.03-.04 0 1.8 0 1.8h-1.9zm8-2.4h-1.9v9.6h-1.8V2.9h-1.9V1.3h5.6v1.6z" stroke="none" fill="#282828"/></g></svg>