<?xml version="1.0" standalone="no"?>
<!DOCTYPE svg PUBLIC "-//W3C//DTD SVG 1.1//EN" "http://www.w3.org/Graphics/SVG/1.1/DTD/svg11.dtd">
<svg xmlns="http://www.w3.org/2000/svg" version="1.1" width="134.3px" height="141.9px" viewBox="0 -4 134.3 141.9" style="top:-4px">
  <desc>Lorem Ipsum Lorem Ipsum Lorem Ipsum Lorem Ipsum Lorem Ipsum Lorem Ipsum Lorem Ipsum Lorem Ipsum</desc>
  <defs/>
  <g id="Polygon180249">
    <path d="M 85.9 127.1 L 86.4 127.1 L 86.4 132.6 L 89.3 132.6 L 89.3 133.1 L 85.9 133.1 L 85.9 127.1 Z M 89.8 130.9 C 89.8 129.7 90.6 128.7 91.9 128.7 C 93.2 128.7 94 129.7 94 130.9 C 94 132.2 93.2 133.2 91.9 133.2 C 90.6 133.2 89.8 132.2 89.8 130.9 Z M 93.5 130.9 C 93.5 130 92.9 129.1 91.9 129.1 C 90.9 129.1 90.3 130 90.3 130.9 C 90.3 131.9 90.9 132.8 91.9 132.8 C 92.9 132.8 93.5 131.9 93.5 130.9 Z M 95.1 128.8 L 95.6 128.8 C 95.6 128.8 95.58 129.51 95.6 129.5 C 95.9 129 96.4 128.7 97 128.7 C 97 128.7 97 129.2 97 129.2 C 97 129.2 96.9 129.2 96.8 129.2 C 96.4 129.2 95.8 129.6 95.6 129.9 C 95.58 129.94 95.6 133.1 95.6 133.1 L 95.1 133.1 L 95.1 128.8 Z M 99.7 128.7 C 101 128.7 101.8 129.7 101.8 131 C 101.77 130.96 101.8 131.1 101.8 131.1 C 101.8 131.1 98.14 131.08 98.1 131.1 C 98.2 132 98.8 132.8 99.8 132.8 C 100.4 132.8 100.9 132.6 101.3 132.2 C 101.3 132.2 101.5 132.5 101.5 132.5 C 101.1 133 100.5 133.2 99.8 133.2 C 98.5 133.2 97.6 132.3 97.6 130.9 C 97.6 129.7 98.5 128.7 99.7 128.7 Z M 98.1 130.7 C 98.1 130.7 101.3 130.7 101.3 130.7 C 101.3 130 100.8 129.1 99.7 129.1 C 98.7 129.1 98.2 130 98.1 130.7 Z M 108.1 130.1 C 108.1 129.5 107.8 129.1 107.2 129.1 C 106.7 129.1 106.2 129.4 105.9 129.8 C 105.95 129.82 105.9 133.1 105.9 133.1 L 105.5 133.1 C 105.5 133.1 105.47 130.07 105.5 130.1 C 105.5 129.5 105.2 129.1 104.6 129.1 C 104.1 129.1 103.6 129.4 103.4 129.8 C 103.36 129.82 103.4 133.1 103.4 133.1 L 102.9 133.1 L 102.9 128.8 L 103.4 128.8 C 103.4 128.8 103.36 129.42 103.4 129.4 C 103.5 129.1 104.1 128.7 104.8 128.7 C 105.4 128.7 105.8 129.1 105.9 129.5 C 106.1 129.1 106.7 128.7 107.3 128.7 C 108.1 128.7 108.5 129.1 108.5 130 C 108.53 129.98 108.5 133.1 108.5 133.1 L 108.1 133.1 C 108.1 133.1 108.06 130.07 108.1 130.1 Z M 112.2 127.1 L 112.7 127.1 L 112.7 133.1 L 112.2 133.1 L 112.2 127.1 Z M 114.1 134.8 L 114.1 128.8 L 114.5 128.8 C 114.5 128.8 114.52 129.46 114.5 129.5 C 114.8 129 115.4 128.7 116 128.7 C 117.2 128.7 118 129.5 118 130.9 C 118 132.3 117.2 133.2 116 133.2 C 115.4 133.2 114.9 132.9 114.5 132.4 C 114.52 132.41 114.5 134.8 114.5 134.8 L 114.1 134.8 Z M 116 129.1 C 115.4 129.1 114.8 129.4 114.5 129.9 C 114.5 129.9 114.5 132 114.5 132 C 114.8 132.4 115.4 132.8 116 132.8 C 116.9 132.8 117.5 132 117.5 130.9 C 117.5 129.9 116.9 129.1 116 129.1 Z M 119 132.2 C 119.3 132.5 119.8 132.8 120.4 132.8 C 121.1 132.8 121.6 132.5 121.6 132 C 121.6 131.4 121 131.2 120.3 131.1 C 119.6 130.9 118.8 130.7 118.8 129.9 C 118.8 129.2 119.4 128.7 120.4 128.7 C 121.1 128.7 121.6 128.9 121.9 129.3 C 121.9 129.3 121.7 129.6 121.7 129.6 C 121.4 129.3 120.9 129.1 120.4 129.1 C 119.7 129.1 119.3 129.4 119.3 129.8 C 119.3 130.3 119.8 130.5 120.4 130.6 C 121.2 130.8 122 131 122 131.9 C 122 132.6 121.5 133.2 120.4 133.2 C 119.7 133.2 119.2 133 118.7 132.5 C 118.7 132.5 119 132.2 119 132.2 Z M 126.1 132.5 C 125.7 132.9 125.1 133.2 124.5 133.2 C 123.6 133.2 123.1 132.8 123.1 131.8 C 123.14 131.82 123.1 128.8 123.1 128.8 L 123.6 128.8 C 123.6 128.8 123.61 131.72 123.6 131.7 C 123.6 132.6 124 132.8 124.7 132.8 C 125.2 132.8 125.8 132.5 126.1 132.1 C 126.07 132.08 126.1 128.8 126.1 128.8 L 126.5 128.8 L 126.5 133.1 L 126.1 133.1 C 126.1 133.1 126.07 132.47 126.1 132.5 Z M 133.1 130.1 C 133.1 129.5 132.8 129.1 132.2 129.1 C 131.7 129.1 131.2 129.4 131 129.8 C 130.97 129.82 131 133.1 131 133.1 L 130.5 133.1 C 130.5 133.1 130.49 130.07 130.5 130.1 C 130.5 129.5 130.2 129.1 129.6 129.1 C 129.2 129.1 128.6 129.4 128.4 129.8 C 128.38 129.82 128.4 133.1 128.4 133.1 L 127.9 133.1 L 127.9 128.8 L 128.4 128.8 C 128.4 128.8 128.38 129.42 128.4 129.4 C 128.6 129.1 129.1 128.7 129.8 128.7 C 130.5 128.7 130.8 129.1 130.9 129.5 C 131.2 129.1 131.8 128.7 132.4 128.7 C 133.2 128.7 133.6 129.1 133.6 130 C 133.55 129.98 133.6 133.1 133.6 133.1 L 133.1 133.1 C 133.1 133.1 133.08 130.07 133.1 130.1 Z " stroke="none" fill="#242423"/>
  </g>
  <g id="Polygon180248">
    <path d="M 85.9 109.1 L 86.4 109.1 L 86.4 114.6 L 89.3 114.6 L 89.3 115.1 L 85.9 115.1 L 85.9 109.1 Z M 89.8 112.9 C 89.8 111.7 90.6 110.7 91.9 110.7 C 93.2 110.7 94 111.7 94 112.9 C 94 114.2 93.2 115.2 91.9 115.2 C 90.6 115.2 89.8 114.2 89.8 112.9 Z M 93.5 112.9 C 93.5 112 92.9 111.1 91.9 111.1 C 90.9 111.1 90.3 112 90.3 112.9 C 90.3 113.9 90.9 114.8 91.9 114.8 C 92.9 114.8 93.5 113.9 93.5 112.9 Z M 95.1 110.8 L 95.6 110.8 C 95.6 110.8 95.58 111.51 95.6 111.5 C 95.9 111 96.4 110.7 97 110.7 C 97 110.7 97 111.2 97 111.2 C 97 111.2 96.9 111.2 96.8 111.2 C 96.4 111.2 95.8 111.6 95.6 111.9 C 95.58 111.94 95.6 115.1 95.6 115.1 L 95.1 115.1 L 95.1 110.8 Z M 99.7 110.7 C 101 110.7 101.8 111.7 101.8 113 C 101.77 112.96 101.8 113.1 101.8 113.1 C 101.8 113.1 98.14 113.08 98.1 113.1 C 98.2 114 98.8 114.8 99.8 114.8 C 100.4 114.8 100.9 114.6 101.3 114.2 C 101.3 114.2 101.5 114.5 101.5 114.5 C 101.1 115 100.5 115.2 99.8 115.2 C 98.5 115.2 97.6 114.3 97.6 112.9 C 97.6 111.7 98.5 110.7 99.7 110.7 Z M 98.1 112.7 C 98.1 112.7 101.3 112.7 101.3 112.7 C 101.3 112 100.8 111.1 99.7 111.1 C 98.7 111.1 98.2 112 98.1 112.7 Z M 108.1 112.1 C 108.1 111.5 107.8 111.1 107.2 111.1 C 106.7 111.1 106.2 111.4 105.9 111.8 C 105.95 111.82 105.9 115.1 105.9 115.1 L 105.5 115.1 C 105.5 115.1 105.47 112.07 105.5 112.1 C 105.5 111.5 105.2 111.1 104.6 111.1 C 104.1 111.1 103.6 111.4 103.4 111.8 C 103.36 111.82 103.4 115.1 103.4 115.1 L 102.9 115.1 L 102.9 110.8 L 103.4 110.8 C 103.4 110.8 103.36 111.42 103.4 111.4 C 103.5 111.1 104.1 110.7 104.8 110.7 C 105.4 110.7 105.8 111.1 105.9 111.5 C 106.1 111.1 106.7 110.7 107.3 110.7 C 108.1 110.7 108.5 111.1 108.5 112 C 108.53 111.98 108.5 115.1 108.5 115.1 L 108.1 115.1 C 108.1 115.1 108.06 112.07 108.1 112.1 Z M 112.2 109.1 L 112.7 109.1 L 112.7 115.1 L 112.2 115.1 L 112.2 109.1 Z M 114.1 116.8 L 114.1 110.8 L 114.5 110.8 C 114.5 110.8 114.52 111.46 114.5 111.5 C 114.8 111 115.4 110.7 116 110.7 C 117.2 110.7 118 111.5 118 112.9 C 118 114.3 117.2 115.2 116 115.2 C 115.4 115.2 114.9 114.9 114.5 114.4 C 114.52 114.41 114.5 116.8 114.5 116.8 L 114.1 116.8 Z M 116 111.1 C 115.4 111.1 114.8 111.4 114.5 111.9 C 114.5 111.9 114.5 114 114.5 114 C 114.8 114.4 115.4 114.8 116 114.8 C 116.9 114.8 117.5 114 117.5 112.9 C 117.5 111.9 116.9 111.1 116 111.1 Z M 119 114.2 C 119.3 114.5 119.8 114.8 120.4 114.8 C 121.1 114.8 121.6 114.5 121.6 114 C 121.6 113.4 121 113.2 120.3 113.1 C 119.6 112.9 118.8 112.7 118.8 111.9 C 118.8 111.2 119.4 110.7 120.4 110.7 C 121.1 110.7 121.6 110.9 121.9 111.3 C 121.9 111.3 121.7 111.6 121.7 111.6 C 121.4 111.3 120.9 111.1 120.4 111.1 C 119.7 111.1 119.3 111.4 119.3 111.8 C 119.3 112.3 119.8 112.5 120.4 112.6 C 121.2 112.8 122 113 122 113.9 C 122 114.6 121.5 115.2 120.4 115.2 C 119.7 115.2 119.2 115 118.7 114.5 C 118.7 114.5 119 114.2 119 114.2 Z M 126.1 114.5 C 125.7 114.9 125.1 115.2 124.5 115.2 C 123.6 115.2 123.1 114.8 123.1 113.8 C 123.14 113.82 123.1 110.8 123.1 110.8 L 123.6 110.8 C 123.6 110.8 123.61 113.72 123.6 113.7 C 123.6 114.6 124 114.8 124.7 114.8 C 125.2 114.8 125.8 114.5 126.1 114.1 C 126.07 114.08 126.1 110.8 126.1 110.8 L 126.5 110.8 L 126.5 115.1 L 126.1 115.1 C 126.1 115.1 126.07 114.47 126.1 114.5 Z M 133.1 112.1 C 133.1 111.5 132.8 111.1 132.2 111.1 C 131.7 111.1 131.2 111.4 131 111.8 C 130.97 111.82 131 115.1 131 115.1 L 130.5 115.1 C 130.5 115.1 130.49 112.07 130.5 112.1 C 130.5 111.5 130.2 111.1 129.6 111.1 C 129.2 111.1 128.6 111.4 128.4 111.8 C 128.38 111.82 128.4 115.1 128.4 115.1 L 127.9 115.1 L 127.9 110.8 L 128.4 110.8 C 128.4 110.8 128.38 111.42 128.4 111.4 C 128.6 111.1 129.1 110.7 129.8 110.7 C 130.5 110.7 130.8 111.1 130.9 111.5 C 131.2 111.1 131.8 110.7 132.4 110.7 C 133.2 110.7 133.6 111.1 133.6 112 C 133.55 111.98 133.6 115.1 133.6 115.1 L 133.1 115.1 C 133.1 115.1 133.08 112.07 133.1 112.1 Z " stroke="none" fill="#242423"/>
  </g>
  <g id="Polygon180247">
    <path d="M 85.9 91.1 L 86.4 91.1 L 86.4 96.6 L 89.3 96.6 L 89.3 97.1 L 85.9 97.1 L 85.9 91.1 Z M 89.8 94.9 C 89.8 93.7 90.6 92.7 91.9 92.7 C 93.2 92.7 94 93.7 94 94.9 C 94 96.2 93.2 97.2 91.9 97.2 C 90.6 97.2 89.8 96.2 89.8 94.9 Z M 93.5 94.9 C 93.5 94 92.9 93.1 91.9 93.1 C 90.9 93.1 90.3 94 90.3 94.9 C 90.3 95.9 90.9 96.8 91.9 96.8 C 92.9 96.8 93.5 95.9 93.5 94.9 Z M 95.1 92.8 L 95.6 92.8 C 95.6 92.8 95.58 93.51 95.6 93.5 C 95.9 93 96.4 92.7 97 92.7 C 97 92.7 97 93.2 97 93.2 C 97 93.2 96.9 93.2 96.8 93.2 C 96.4 93.2 95.8 93.6 95.6 93.9 C 95.58 93.94 95.6 97.1 95.6 97.1 L 95.1 97.1 L 95.1 92.8 Z M 99.7 92.7 C 101 92.7 101.8 93.7 101.8 95 C 101.77 94.96 101.8 95.1 101.8 95.1 C 101.8 95.1 98.14 95.08 98.1 95.1 C 98.2 96 98.8 96.8 99.8 96.8 C 100.4 96.8 100.9 96.6 101.3 96.2 C 101.3 96.2 101.5 96.5 101.5 96.5 C 101.1 97 100.5 97.2 99.8 97.2 C 98.5 97.2 97.6 96.3 97.6 94.9 C 97.6 93.7 98.5 92.7 99.7 92.7 Z M 98.1 94.7 C 98.1 94.7 101.3 94.7 101.3 94.7 C 101.3 94 100.8 93.1 99.7 93.1 C 98.7 93.1 98.2 94 98.1 94.7 Z M 108.1 94.1 C 108.1 93.5 107.8 93.1 107.2 93.1 C 106.7 93.1 106.2 93.4 105.9 93.8 C 105.95 93.82 105.9 97.1 105.9 97.1 L 105.5 97.1 C 105.5 97.1 105.47 94.07 105.5 94.1 C 105.5 93.5 105.2 93.1 104.6 93.1 C 104.1 93.1 103.6 93.4 103.4 93.8 C 103.36 93.82 103.4 97.1 103.4 97.1 L 102.9 97.1 L 102.9 92.8 L 103.4 92.8 C 103.4 92.8 103.36 93.42 103.4 93.4 C 103.5 93.1 104.1 92.7 104.8 92.7 C 105.4 92.7 105.8 93.1 105.9 93.5 C 106.1 93.1 106.7 92.7 107.3 92.7 C 108.1 92.7 108.5 93.1 108.5 94 C 108.53 93.98 108.5 97.1 108.5 97.1 L 108.1 97.1 C 108.1 97.1 108.06 94.07 108.1 94.1 Z M 112.2 91.1 L 112.7 91.1 L 112.7 97.1 L 112.2 97.1 L 112.2 91.1 Z M 114.1 98.8 L 114.1 92.8 L 114.5 92.8 C 114.5 92.8 114.52 93.46 114.5 93.5 C 114.8 93 115.4 92.7 116 92.7 C 117.2 92.7 118 93.5 118 94.9 C 118 96.3 117.2 97.2 116 97.2 C 115.4 97.2 114.9 96.9 114.5 96.4 C 114.52 96.41 114.5 98.8 114.5 98.8 L 114.1 98.8 Z M 116 93.1 C 115.4 93.1 114.8 93.4 114.5 93.9 C 114.5 93.9 114.5 96 114.5 96 C 114.8 96.4 115.4 96.8 116 96.8 C 116.9 96.8 117.5 96 117.5 94.9 C 117.5 93.9 116.9 93.1 116 93.1 Z M 119 96.2 C 119.3 96.5 119.8 96.8 120.4 96.8 C 121.1 96.8 121.6 96.5 121.6 96 C 121.6 95.4 121 95.2 120.3 95.1 C 119.6 94.9 118.8 94.7 118.8 93.9 C 118.8 93.2 119.4 92.7 120.4 92.7 C 121.1 92.7 121.6 92.9 121.9 93.3 C 121.9 93.3 121.7 93.6 121.7 93.6 C 121.4 93.3 120.9 93.1 120.4 93.1 C 119.7 93.1 119.3 93.4 119.3 93.8 C 119.3 94.3 119.8 94.5 120.4 94.6 C 121.2 94.8 122 95 122 95.9 C 122 96.6 121.5 97.2 120.4 97.2 C 119.7 97.2 119.2 97 118.7 96.5 C 118.7 96.5 119 96.2 119 96.2 Z M 126.1 96.5 C 125.7 96.9 125.1 97.2 124.5 97.2 C 123.6 97.2 123.1 96.8 123.1 95.8 C 123.14 95.82 123.1 92.8 123.1 92.8 L 123.6 92.8 C 123.6 92.8 123.61 95.72 123.6 95.7 C 123.6 96.6 124 96.8 124.7 96.8 C 125.2 96.8 125.8 96.5 126.1 96.1 C 126.07 96.08 126.1 92.8 126.1 92.8 L 126.5 92.8 L 126.5 97.1 L 126.1 97.1 C 126.1 97.1 126.07 96.47 126.1 96.5 Z M 133.1 94.1 C 133.1 93.5 132.8 93.1 132.2 93.1 C 131.7 93.1 131.2 93.4 131 93.8 C 130.97 93.82 131 97.1 131 97.1 L 130.5 97.1 C 130.5 97.1 130.49 94.07 130.5 94.1 C 130.5 93.5 130.2 93.1 129.6 93.1 C 129.2 93.1 128.6 93.4 128.4 93.8 C 128.38 93.82 128.4 97.1 128.4 97.1 L 127.9 97.1 L 127.9 92.8 L 128.4 92.8 C 128.4 92.8 128.38 93.42 128.4 93.4 C 128.6 93.1 129.1 92.7 129.8 92.7 C 130.5 92.7 130.8 93.1 130.9 93.5 C 131.2 93.1 131.8 92.7 132.4 92.7 C 133.2 92.7 133.6 93.1 133.6 94 C 133.55 93.98 133.6 97.1 133.6 97.1 L 133.1 97.1 C 133.1 97.1 133.08 94.07 133.1 94.1 Z " stroke="none" fill="#242423"/>
  </g>
  <g id="Polygon180246">
    <path d="M 85.9 73.1 L 86.4 73.1 L 86.4 78.6 L 89.3 78.6 L 89.3 79.1 L 85.9 79.1 L 85.9 73.1 Z M 89.8 76.9 C 89.8 75.7 90.6 74.7 91.9 74.7 C 93.2 74.7 94 75.7 94 76.9 C 94 78.2 93.2 79.2 91.9 79.2 C 90.6 79.2 89.8 78.2 89.8 76.9 Z M 93.5 76.9 C 93.5 76 92.9 75.1 91.9 75.1 C 90.9 75.1 90.3 76 90.3 76.9 C 90.3 77.9 90.9 78.8 91.9 78.8 C 92.9 78.8 93.5 77.9 93.5 76.9 Z M 95.1 74.8 L 95.6 74.8 C 95.6 74.8 95.58 75.51 95.6 75.5 C 95.9 75 96.4 74.7 97 74.7 C 97 74.7 97 75.2 97 75.2 C 97 75.2 96.9 75.2 96.8 75.2 C 96.4 75.2 95.8 75.6 95.6 75.9 C 95.58 75.94 95.6 79.1 95.6 79.1 L 95.1 79.1 L 95.1 74.8 Z M 99.7 74.7 C 101 74.7 101.8 75.7 101.8 77 C 101.77 76.96 101.8 77.1 101.8 77.1 C 101.8 77.1 98.14 77.08 98.1 77.1 C 98.2 78 98.8 78.8 99.8 78.8 C 100.4 78.8 100.9 78.6 101.3 78.2 C 101.3 78.2 101.5 78.5 101.5 78.5 C 101.1 79 100.5 79.2 99.8 79.2 C 98.5 79.2 97.6 78.3 97.6 76.9 C 97.6 75.7 98.5 74.7 99.7 74.7 Z M 98.1 76.7 C 98.1 76.7 101.3 76.7 101.3 76.7 C 101.3 76 100.8 75.1 99.7 75.1 C 98.7 75.1 98.2 76 98.1 76.7 Z M 108.1 76.1 C 108.1 75.5 107.8 75.1 107.2 75.1 C 106.7 75.1 106.2 75.4 105.9 75.8 C 105.95 75.82 105.9 79.1 105.9 79.1 L 105.5 79.1 C 105.5 79.1 105.47 76.07 105.5 76.1 C 105.5 75.5 105.2 75.1 104.6 75.1 C 104.1 75.1 103.6 75.4 103.4 75.8 C 103.36 75.82 103.4 79.1 103.4 79.1 L 102.9 79.1 L 102.9 74.8 L 103.4 74.8 C 103.4 74.8 103.36 75.42 103.4 75.4 C 103.5 75.1 104.1 74.7 104.8 74.7 C 105.4 74.7 105.8 75.1 105.9 75.5 C 106.1 75.1 106.7 74.7 107.3 74.7 C 108.1 74.7 108.5 75.1 108.5 76 C 108.53 75.98 108.5 79.1 108.5 79.1 L 108.1 79.1 C 108.1 79.1 108.06 76.07 108.1 76.1 Z M 112.2 73.1 L 112.7 73.1 L 112.7 79.1 L 112.2 79.1 L 112.2 73.1 Z M 114.1 80.8 L 114.1 74.8 L 114.5 74.8 C 114.5 74.8 114.52 75.46 114.5 75.5 C 114.8 75 115.4 74.7 116 74.7 C 117.2 74.7 118 75.5 118 76.9 C 118 78.3 117.2 79.2 116 79.2 C 115.4 79.2 114.9 78.9 114.5 78.4 C 114.52 78.41 114.5 80.8 114.5 80.8 L 114.1 80.8 Z M 116 75.1 C 115.4 75.1 114.8 75.4 114.5 75.9 C 114.5 75.9 114.5 78 114.5 78 C 114.8 78.4 115.4 78.8 116 78.8 C 116.9 78.8 117.5 78 117.5 76.9 C 117.5 75.9 116.9 75.1 116 75.1 Z M 119 78.2 C 119.3 78.5 119.8 78.8 120.4 78.8 C 121.1 78.8 121.6 78.5 121.6 78 C 121.6 77.4 121 77.2 120.3 77.1 C 119.6 76.9 118.8 76.7 118.8 75.9 C 118.8 75.2 119.4 74.7 120.4 74.7 C 121.1 74.7 121.6 74.9 121.9 75.3 C 121.9 75.3 121.7 75.6 121.7 75.6 C 121.4 75.3 120.9 75.1 120.4 75.1 C 119.7 75.1 119.3 75.4 119.3 75.8 C 119.3 76.3 119.8 76.5 120.4 76.6 C 121.2 76.8 122 77 122 77.9 C 122 78.6 121.5 79.2 120.4 79.2 C 119.7 79.2 119.2 79 118.7 78.5 C 118.7 78.5 119 78.2 119 78.2 Z M 126.1 78.5 C 125.7 78.9 125.1 79.2 124.5 79.2 C 123.6 79.2 123.1 78.8 123.1 77.8 C 123.14 77.82 123.1 74.8 123.1 74.8 L 123.6 74.8 C 123.6 74.8 123.61 77.72 123.6 77.7 C 123.6 78.6 124 78.8 124.7 78.8 C 125.2 78.8 125.8 78.5 126.1 78.1 C 126.07 78.08 126.1 74.8 126.1 74.8 L 126.5 74.8 L 126.5 79.1 L 126.1 79.1 C 126.1 79.1 126.07 78.47 126.1 78.5 Z M 133.1 76.1 C 133.1 75.5 132.8 75.1 132.2 75.1 C 131.7 75.1 131.2 75.4 131 75.8 C 130.97 75.82 131 79.1 131 79.1 L 130.5 79.1 C 130.5 79.1 130.49 76.07 130.5 76.1 C 130.5 75.5 130.2 75.1 129.6 75.1 C 129.2 75.1 128.6 75.4 128.4 75.8 C 128.38 75.82 128.4 79.1 128.4 79.1 L 127.9 79.1 L 127.9 74.8 L 128.4 74.8 C 128.4 74.8 128.38 75.42 128.4 75.4 C 128.6 75.1 129.1 74.7 129.8 74.7 C 130.5 74.7 130.8 75.1 130.9 75.5 C 131.2 75.1 131.8 74.7 132.4 74.7 C 133.2 74.7 133.6 75.1 133.6 76 C 133.55 75.98 133.6 79.1 133.6 79.1 L 133.1 79.1 C 133.1 79.1 133.08 76.07 133.1 76.1 Z " stroke="none" fill="#242423"/>
  </g>
  <g id="Polygon180245">
    <path d="M 85.9 55.1 L 86.4 55.1 L 86.4 60.6 L 89.3 60.6 L 89.3 61.1 L 85.9 61.1 L 85.9 55.1 Z M 89.8 58.9 C 89.8 57.7 90.6 56.7 91.9 56.7 C 93.2 56.7 94 57.7 94 58.9 C 94 60.2 93.2 61.2 91.9 61.2 C 90.6 61.2 89.8 60.2 89.8 58.9 Z M 93.5 58.9 C 93.5 58 92.9 57.1 91.9 57.1 C 90.9 57.1 90.3 58 90.3 58.9 C 90.3 59.9 90.9 60.8 91.9 60.8 C 92.9 60.8 93.5 59.9 93.5 58.9 Z M 95.1 56.8 L 95.6 56.8 C 95.6 56.8 95.58 57.51 95.6 57.5 C 95.9 57 96.4 56.7 97 56.7 C 97 56.7 97 57.2 97 57.2 C 97 57.2 96.9 57.2 96.8 57.2 C 96.4 57.2 95.8 57.6 95.6 57.9 C 95.58 57.94 95.6 61.1 95.6 61.1 L 95.1 61.1 L 95.1 56.8 Z M 99.7 56.7 C 101 56.7 101.8 57.7 101.8 59 C 101.77 58.96 101.8 59.1 101.8 59.1 C 101.8 59.1 98.14 59.08 98.1 59.1 C 98.2 60 98.8 60.8 99.8 60.8 C 100.4 60.8 100.9 60.6 101.3 60.2 C 101.3 60.2 101.5 60.5 101.5 60.5 C 101.1 61 100.5 61.2 99.8 61.2 C 98.5 61.2 97.6 60.3 97.6 58.9 C 97.6 57.7 98.5 56.7 99.7 56.7 Z M 98.1 58.7 C 98.1 58.7 101.3 58.7 101.3 58.7 C 101.3 58 100.8 57.1 99.7 57.1 C 98.7 57.1 98.2 58 98.1 58.7 Z M 108.1 58.1 C 108.1 57.5 107.8 57.1 107.2 57.1 C 106.7 57.1 106.2 57.4 105.9 57.8 C 105.95 57.82 105.9 61.1 105.9 61.1 L 105.5 61.1 C 105.5 61.1 105.47 58.07 105.5 58.1 C 105.5 57.5 105.2 57.1 104.6 57.1 C 104.1 57.1 103.6 57.4 103.4 57.8 C 103.36 57.82 103.4 61.1 103.4 61.1 L 102.9 61.1 L 102.9 56.8 L 103.4 56.8 C 103.4 56.8 103.36 57.42 103.4 57.4 C 103.5 57.1 104.1 56.7 104.8 56.7 C 105.4 56.7 105.8 57.1 105.9 57.5 C 106.1 57.1 106.7 56.7 107.3 56.7 C 108.1 56.7 108.5 57.1 108.5 58 C 108.53 57.98 108.5 61.1 108.5 61.1 L 108.1 61.1 C 108.1 61.1 108.06 58.07 108.1 58.1 Z M 112.2 55.1 L 112.7 55.1 L 112.7 61.1 L 112.2 61.1 L 112.2 55.1 Z M 114.1 62.8 L 114.1 56.8 L 114.5 56.8 C 114.5 56.8 114.52 57.46 114.5 57.5 C 114.8 57 115.4 56.7 116 56.7 C 117.2 56.7 118 57.5 118 58.9 C 118 60.3 117.2 61.2 116 61.2 C 115.4 61.2 114.9 60.9 114.5 60.4 C 114.52 60.41 114.5 62.8 114.5 62.8 L 114.1 62.8 Z M 116 57.1 C 115.4 57.1 114.8 57.4 114.5 57.9 C 114.5 57.9 114.5 60 114.5 60 C 114.8 60.4 115.4 60.8 116 60.8 C 116.9 60.8 117.5 60 117.5 58.9 C 117.5 57.9 116.9 57.1 116 57.1 Z M 119 60.2 C 119.3 60.5 119.8 60.8 120.4 60.8 C 121.1 60.8 121.6 60.5 121.6 60 C 121.6 59.4 121 59.2 120.3 59.1 C 119.6 58.9 118.8 58.7 118.8 57.9 C 118.8 57.2 119.4 56.7 120.4 56.7 C 121.1 56.7 121.6 56.9 121.9 57.3 C 121.9 57.3 121.7 57.6 121.7 57.6 C 121.4 57.3 120.9 57.1 120.4 57.1 C 119.7 57.1 119.3 57.4 119.3 57.8 C 119.3 58.3 119.8 58.5 120.4 58.6 C 121.2 58.8 122 59 122 59.9 C 122 60.6 121.5 61.2 120.4 61.2 C 119.7 61.2 119.2 61 118.7 60.5 C 118.7 60.5 119 60.2 119 60.2 Z M 126.1 60.5 C 125.7 60.9 125.1 61.2 124.5 61.2 C 123.6 61.2 123.1 60.8 123.1 59.8 C 123.14 59.82 123.1 56.8 123.1 56.8 L 123.6 56.8 C 123.6 56.8 123.61 59.72 123.6 59.7 C 123.6 60.6 124 60.8 124.7 60.8 C 125.2 60.8 125.8 60.5 126.1 60.1 C 126.07 60.08 126.1 56.8 126.1 56.8 L 126.5 56.8 L 126.5 61.1 L 126.1 61.1 C 126.1 61.1 126.07 60.47 126.1 60.5 Z M 133.1 58.1 C 133.1 57.5 132.8 57.1 132.2 57.1 C 131.7 57.1 131.2 57.4 131 57.8 C 130.97 57.82 131 61.1 131 61.1 L 130.5 61.1 C 130.5 61.1 130.49 58.07 130.5 58.1 C 130.5 57.5 130.2 57.1 129.6 57.1 C 129.2 57.1 128.6 57.4 128.4 57.8 C 128.38 57.82 128.4 61.1 128.4 61.1 L 127.9 61.1 L 127.9 56.8 L 128.4 56.8 C 128.4 56.8 128.38 57.42 128.4 57.4 C 128.6 57.1 129.1 56.7 129.8 56.7 C 130.5 56.7 130.8 57.1 130.9 57.5 C 131.2 57.1 131.8 56.7 132.4 56.7 C 133.2 56.7 133.6 57.1 133.6 58 C 133.55 57.98 133.6 61.1 133.6 61.1 L 133.1 61.1 C 133.1 61.1 133.08 58.07 133.1 58.1 Z " stroke="none" fill="#242423"/>
  </g>
  <g id="Polygon180244">
    <path d="M 85.9 37.1 L 86.4 37.1 L 86.4 42.6 L 89.3 42.6 L 89.3 43.1 L 85.9 43.1 L 85.9 37.1 Z M 89.8 40.9 C 89.8 39.7 90.6 38.7 91.9 38.7 C 93.2 38.7 94 39.7 94 40.9 C 94 42.2 93.2 43.2 91.9 43.2 C 90.6 43.2 89.8 42.2 89.8 40.9 Z M 93.5 40.9 C 93.5 40 92.9 39.1 91.9 39.1 C 90.9 39.1 90.3 40 90.3 40.9 C 90.3 41.9 90.9 42.8 91.9 42.8 C 92.9 42.8 93.5 41.9 93.5 40.9 Z M 95.1 38.8 L 95.6 38.8 C 95.6 38.8 95.58 39.51 95.6 39.5 C 95.9 39 96.4 38.7 97 38.7 C 97 38.7 97 39.2 97 39.2 C 97 39.2 96.9 39.2 96.8 39.2 C 96.4 39.2 95.8 39.6 95.6 39.9 C 95.58 39.94 95.6 43.1 95.6 43.1 L 95.1 43.1 L 95.1 38.8 Z M 99.7 38.7 C 101 38.7 101.8 39.7 101.8 41 C 101.77 40.96 101.8 41.1 101.8 41.1 C 101.8 41.1 98.14 41.08 98.1 41.1 C 98.2 42 98.8 42.8 99.8 42.8 C 100.4 42.8 100.9 42.6 101.3 42.2 C 101.3 42.2 101.5 42.5 101.5 42.5 C 101.1 43 100.5 43.2 99.8 43.2 C 98.5 43.2 97.6 42.3 97.6 40.9 C 97.6 39.7 98.5 38.7 99.7 38.7 Z M 98.1 40.7 C 98.1 40.7 101.3 40.7 101.3 40.7 C 101.3 40 100.8 39.1 99.7 39.1 C 98.7 39.1 98.2 40 98.1 40.7 Z M 108.1 40.1 C 108.1 39.5 107.8 39.1 107.2 39.1 C 106.7 39.1 106.2 39.4 105.9 39.8 C 105.95 39.82 105.9 43.1 105.9 43.1 L 105.5 43.1 C 105.5 43.1 105.47 40.07 105.5 40.1 C 105.5 39.5 105.2 39.1 104.6 39.1 C 104.1 39.1 103.6 39.4 103.4 39.8 C 103.36 39.82 103.4 43.1 103.4 43.1 L 102.9 43.1 L 102.9 38.8 L 103.4 38.8 C 103.4 38.8 103.36 39.42 103.4 39.4 C 103.5 39.1 104.1 38.7 104.8 38.7 C 105.4 38.7 105.8 39.1 105.9 39.5 C 106.1 39.1 106.7 38.7 107.3 38.7 C 108.1 38.7 108.5 39.1 108.5 40 C 108.53 39.98 108.5 43.1 108.5 43.1 L 108.1 43.1 C 108.1 43.1 108.06 40.07 108.1 40.1 Z M 112.2 37.1 L 112.7 37.1 L 112.7 43.1 L 112.2 43.1 L 112.2 37.1 Z M 114.1 44.8 L 114.1 38.8 L 114.5 38.8 C 114.5 38.8 114.52 39.46 114.5 39.5 C 114.8 39 115.4 38.7 116 38.7 C 117.2 38.7 118 39.5 118 40.9 C 118 42.3 117.2 43.2 116 43.2 C 115.4 43.2 114.9 42.9 114.5 42.4 C 114.52 42.41 114.5 44.8 114.5 44.8 L 114.1 44.8 Z M 116 39.1 C 115.4 39.1 114.8 39.4 114.5 39.9 C 114.5 39.9 114.5 42 114.5 42 C 114.8 42.4 115.4 42.8 116 42.8 C 116.9 42.8 117.5 42 117.5 40.9 C 117.5 39.9 116.9 39.1 116 39.1 Z M 119 42.2 C 119.3 42.5 119.8 42.8 120.4 42.8 C 121.1 42.8 121.6 42.5 121.6 42 C 121.6 41.4 121 41.2 120.3 41.1 C 119.6 40.9 118.8 40.7 118.8 39.9 C 118.8 39.2 119.4 38.7 120.4 38.7 C 121.1 38.7 121.6 38.9 121.9 39.3 C 121.9 39.3 121.7 39.6 121.7 39.6 C 121.4 39.3 120.9 39.1 120.4 39.1 C 119.7 39.1 119.3 39.4 119.3 39.8 C 119.3 40.3 119.8 40.5 120.4 40.6 C 121.2 40.8 122 41 122 41.9 C 122 42.6 121.5 43.2 120.4 43.2 C 119.7 43.2 119.2 43 118.7 42.5 C 118.7 42.5 119 42.2 119 42.2 Z M 126.1 42.5 C 125.7 42.9 125.1 43.2 124.5 43.2 C 123.6 43.2 123.1 42.8 123.1 41.8 C 123.14 41.82 123.1 38.8 123.1 38.8 L 123.6 38.8 C 123.6 38.8 123.61 41.72 123.6 41.7 C 123.6 42.6 124 42.8 124.7 42.8 C 125.2 42.8 125.8 42.5 126.1 42.1 C 126.07 42.08 126.1 38.8 126.1 38.8 L 126.5 38.8 L 126.5 43.1 L 126.1 43.1 C 126.1 43.1 126.07 42.47 126.1 42.5 Z M 133.1 40.1 C 133.1 39.5 132.8 39.1 132.2 39.1 C 131.7 39.1 131.2 39.4 131 39.8 C 130.97 39.82 131 43.1 131 43.1 L 130.5 43.1 C 130.5 43.1 130.49 40.07 130.5 40.1 C 130.5 39.5 130.2 39.1 129.6 39.1 C 129.2 39.1 128.6 39.4 128.4 39.8 C 128.38 39.82 128.4 43.1 128.4 43.1 L 127.9 43.1 L 127.9 38.8 L 128.4 38.8 C 128.4 38.8 128.38 39.42 128.4 39.4 C 128.6 39.1 129.1 38.7 129.8 38.7 C 130.5 38.7 130.8 39.1 130.9 39.5 C 131.2 39.1 131.8 38.7 132.4 38.7 C 133.2 38.7 133.6 39.1 133.6 40 C 133.55 39.98 133.6 43.1 133.6 43.1 L 133.1 43.1 C 133.1 43.1 133.08 40.07 133.1 40.1 Z " stroke="none" fill="#242423"/>
  </g>
  <g id="Polygon180243">
    <path d="M 85.9 19.1 L 86.4 19.1 L 86.4 24.6 L 89.3 24.6 L 89.3 25.1 L 85.9 25.1 L 85.9 19.1 Z M 89.8 22.9 C 89.8 21.7 90.6 20.7 91.9 20.7 C 93.2 20.7 94 21.7 94 22.9 C 94 24.2 93.2 25.2 91.9 25.2 C 90.6 25.2 89.8 24.2 89.8 22.9 Z M 93.5 22.9 C 93.5 22 92.9 21.1 91.9 21.1 C 90.9 21.1 90.3 22 90.3 22.9 C 90.3 23.9 90.9 24.8 91.9 24.8 C 92.9 24.8 93.5 23.9 93.5 22.9 Z M 95.1 20.8 L 95.6 20.8 C 95.6 20.8 95.58 21.51 95.6 21.5 C 95.9 21 96.4 20.7 97 20.7 C 97 20.7 97 21.2 97 21.2 C 97 21.2 96.9 21.2 96.8 21.2 C 96.4 21.2 95.8 21.6 95.6 21.9 C 95.58 21.94 95.6 25.1 95.6 25.1 L 95.1 25.1 L 95.1 20.8 Z M 99.7 20.7 C 101 20.7 101.8 21.7 101.8 23 C 101.77 22.96 101.8 23.1 101.8 23.1 C 101.8 23.1 98.14 23.08 98.1 23.1 C 98.2 24 98.8 24.8 99.8 24.8 C 100.4 24.8 100.9 24.6 101.3 24.2 C 101.3 24.2 101.5 24.5 101.5 24.5 C 101.1 25 100.5 25.2 99.8 25.2 C 98.5 25.2 97.6 24.3 97.6 22.9 C 97.6 21.7 98.5 20.7 99.7 20.7 Z M 98.1 22.7 C 98.1 22.7 101.3 22.7 101.3 22.7 C 101.3 22 100.8 21.1 99.7 21.1 C 98.7 21.1 98.2 22 98.1 22.7 Z M 108.1 22.1 C 108.1 21.5 107.8 21.1 107.2 21.1 C 106.7 21.1 106.2 21.4 105.9 21.8 C 105.95 21.82 105.9 25.1 105.9 25.1 L 105.5 25.1 C 105.5 25.1 105.47 22.07 105.5 22.1 C 105.5 21.5 105.2 21.1 104.6 21.1 C 104.1 21.1 103.6 21.4 103.4 21.8 C 103.36 21.82 103.4 25.1 103.4 25.1 L 102.9 25.1 L 102.9 20.8 L 103.4 20.8 C 103.4 20.8 103.36 21.42 103.4 21.4 C 103.5 21.1 104.1 20.7 104.8 20.7 C 105.4 20.7 105.8 21.1 105.9 21.5 C 106.1 21.1 106.7 20.7 107.3 20.7 C 108.1 20.7 108.5 21.1 108.5 22 C 108.53 21.98 108.5 25.1 108.5 25.1 L 108.1 25.1 C 108.1 25.1 108.06 22.07 108.1 22.1 Z M 112.2 19.1 L 112.7 19.1 L 112.7 25.1 L 112.2 25.1 L 112.2 19.1 Z M 114.1 26.8 L 114.1 20.8 L 114.5 20.8 C 114.5 20.8 114.52 21.46 114.5 21.5 C 114.8 21 115.4 20.7 116 20.7 C 117.2 20.7 118 21.5 118 22.9 C 118 24.3 117.2 25.2 116 25.2 C 115.4 25.2 114.9 24.9 114.5 24.4 C 114.52 24.41 114.5 26.8 114.5 26.8 L 114.1 26.8 Z M 116 21.1 C 115.4 21.1 114.8 21.4 114.5 21.9 C 114.5 21.9 114.5 24 114.5 24 C 114.8 24.4 115.4 24.8 116 24.8 C 116.9 24.8 117.5 24 117.5 22.9 C 117.5 21.9 116.9 21.1 116 21.1 Z M 119 24.2 C 119.3 24.5 119.8 24.8 120.4 24.8 C 121.1 24.8 121.6 24.5 121.6 24 C 121.6 23.4 121 23.2 120.3 23.1 C 119.6 22.9 118.8 22.7 118.8 21.9 C 118.8 21.2 119.4 20.7 120.4 20.7 C 121.1 20.7 121.6 20.9 121.9 21.3 C 121.9 21.3 121.7 21.6 121.7 21.6 C 121.4 21.3 120.9 21.1 120.4 21.1 C 119.7 21.1 119.3 21.4 119.3 21.8 C 119.3 22.3 119.8 22.5 120.4 22.6 C 121.2 22.8 122 23 122 23.9 C 122 24.6 121.5 25.2 120.4 25.2 C 119.7 25.2 119.2 25 118.7 24.5 C 118.7 24.5 119 24.2 119 24.2 Z M 126.1 24.5 C 125.7 24.9 125.1 25.2 124.5 25.2 C 123.6 25.2 123.1 24.8 123.1 23.8 C 123.14 23.82 123.1 20.8 123.1 20.8 L 123.6 20.8 C 123.6 20.8 123.61 23.72 123.6 23.7 C 123.6 24.6 124 24.8 124.7 24.8 C 125.2 24.8 125.8 24.5 126.1 24.1 C 126.07 24.08 126.1 20.8 126.1 20.8 L 126.5 20.8 L 126.5 25.1 L 126.1 25.1 C 126.1 25.1 126.07 24.47 126.1 24.5 Z M 133.1 22.1 C 133.1 21.5 132.8 21.1 132.2 21.1 C 131.7 21.1 131.2 21.4 131 21.8 C 130.97 21.82 131 25.1 131 25.1 L 130.5 25.1 C 130.5 25.1 130.49 22.07 130.5 22.1 C 130.5 21.5 130.2 21.1 129.6 21.1 C 129.2 21.1 128.6 21.4 128.4 21.8 C 128.38 21.82 128.4 25.1 128.4 25.1 L 127.9 25.1 L 127.9 20.8 L 128.4 20.8 C 128.4 20.8 128.38 21.42 128.4 21.4 C 128.6 21.1 129.1 20.7 129.8 20.7 C 130.5 20.7 130.8 21.1 130.9 21.5 C 131.2 21.1 131.8 20.7 132.4 20.7 C 133.2 20.7 133.6 21.1 133.6 22 C 133.55 21.98 133.6 25.1 133.6 25.1 L 133.1 25.1 C 133.1 25.1 133.08 22.07 133.1 22.1 Z " stroke="none" fill="#242423"/>
  </g>
  <g id="Polygon180242">
    <path d="M 85.9 1.1 L 86.4 1.1 L 86.4 6.6 L 89.3 6.6 L 89.3 7.1 L 85.9 7.1 L 85.9 1.1 Z M 89.8 4.9 C 89.8 3.7 90.6 2.7 91.9 2.7 C 93.2 2.7 94 3.7 94 4.9 C 94 6.2 93.2 7.2 91.9 7.2 C 90.6 7.2 89.8 6.2 89.8 4.9 Z M 93.5 4.9 C 93.5 4 92.9 3.1 91.9 3.1 C 90.9 3.1 90.3 4 90.3 4.9 C 90.3 5.9 90.9 6.8 91.9 6.8 C 92.9 6.8 93.5 5.9 93.5 4.9 Z M 95.1 2.8 L 95.6 2.8 C 95.6 2.8 95.58 3.51 95.6 3.5 C 95.9 3 96.4 2.7 97 2.7 C 97 2.7 97 3.2 97 3.2 C 97 3.2 96.9 3.2 96.8 3.2 C 96.4 3.2 95.8 3.6 95.6 3.9 C 95.58 3.94 95.6 7.1 95.6 7.1 L 95.1 7.1 L 95.1 2.8 Z M 99.7 2.7 C 101 2.7 101.8 3.7 101.8 5 C 101.77 4.96 101.8 5.1 101.8 5.1 C 101.8 5.1 98.14 5.08 98.1 5.1 C 98.2 6 98.8 6.8 99.8 6.8 C 100.4 6.8 100.9 6.6 101.3 6.2 C 101.3 6.2 101.5 6.5 101.5 6.5 C 101.1 7 100.5 7.2 99.8 7.2 C 98.5 7.2 97.6 6.3 97.6 4.9 C 97.6 3.7 98.5 2.7 99.7 2.7 Z M 98.1 4.7 C 98.1 4.7 101.3 4.7 101.3 4.7 C 101.3 4 100.8 3.1 99.7 3.1 C 98.7 3.1 98.2 4 98.1 4.7 Z M 108.1 4.1 C 108.1 3.5 107.8 3.1 107.2 3.1 C 106.7 3.1 106.2 3.4 105.9 3.8 C 105.95 3.82 105.9 7.1 105.9 7.1 L 105.5 7.1 C 105.5 7.1 105.47 4.07 105.5 4.1 C 105.5 3.5 105.2 3.1 104.6 3.1 C 104.1 3.1 103.6 3.4 103.4 3.8 C 103.36 3.82 103.4 7.1 103.4 7.1 L 102.9 7.1 L 102.9 2.8 L 103.4 2.8 C 103.4 2.8 103.36 3.42 103.4 3.4 C 103.5 3.1 104.1 2.7 104.8 2.7 C 105.4 2.7 105.8 3.1 105.9 3.5 C 106.1 3.1 106.7 2.7 107.3 2.7 C 108.1 2.7 108.5 3.1 108.5 4 C 108.53 3.98 108.5 7.1 108.5 7.1 L 108.1 7.1 C 108.1 7.1 108.06 4.07 108.1 4.1 Z M 112.2 1.1 L 112.7 1.1 L 112.7 7.1 L 112.2 7.1 L 112.2 1.1 Z M 114.1 8.8 L 114.1 2.8 L 114.5 2.8 C 114.5 2.8 114.52 3.46 114.5 3.5 C 114.8 3 115.4 2.7 116 2.7 C 117.2 2.7 118 3.5 118 4.9 C 118 6.3 117.2 7.2 116 7.2 C 115.4 7.2 114.9 6.9 114.5 6.4 C 114.52 6.41 114.5 8.8 114.5 8.8 L 114.1 8.8 Z M 116 3.1 C 115.4 3.1 114.8 3.4 114.5 3.9 C 114.5 3.9 114.5 6 114.5 6 C 114.8 6.4 115.4 6.8 116 6.8 C 116.9 6.8 117.5 6 117.5 4.9 C 117.5 3.9 116.9 3.1 116 3.1 Z M 119 6.2 C 119.3 6.5 119.8 6.8 120.4 6.8 C 121.1 6.8 121.6 6.5 121.6 6 C 121.6 5.4 121 5.2 120.3 5.1 C 119.6 4.9 118.8 4.7 118.8 3.9 C 118.8 3.2 119.4 2.7 120.4 2.7 C 121.1 2.7 121.6 2.9 121.9 3.3 C 121.9 3.3 121.7 3.6 121.7 3.6 C 121.4 3.3 120.9 3.1 120.4 3.1 C 119.7 3.1 119.3 3.4 119.3 3.8 C 119.3 4.3 119.8 4.5 120.4 4.6 C 121.2 4.8 122 5 122 5.9 C 122 6.6 121.5 7.2 120.4 7.2 C 119.7 7.2 119.2 7 118.7 6.5 C 118.7 6.5 119 6.2 119 6.2 Z M 126.1 6.5 C 125.7 6.9 125.1 7.2 124.5 7.2 C 123.6 7.2 123.1 6.8 123.1 5.8 C 123.14 5.82 123.1 2.8 123.1 2.8 L 123.6 2.8 C 123.6 2.8 123.61 5.72 123.6 5.7 C 123.6 6.6 124 6.8 124.7 6.8 C 125.2 6.8 125.8 6.5 126.1 6.1 C 126.07 6.08 126.1 2.8 126.1 2.8 L 126.5 2.8 L 126.5 7.1 L 126.1 7.1 C 126.1 7.1 126.07 6.47 126.1 6.5 Z M 133.1 4.1 C 133.1 3.5 132.8 3.1 132.2 3.1 C 131.7 3.1 131.2 3.4 131 3.8 C 130.97 3.82 131 7.1 131 7.1 L 130.5 7.1 C 130.5 7.1 130.49 4.07 130.5 4.1 C 130.5 3.5 130.2 3.1 129.6 3.1 C 129.2 3.1 128.6 3.4 128.4 3.8 C 128.38 3.82 128.4 7.1 128.4 7.1 L 127.9 7.1 L 127.9 2.8 L 128.4 2.8 C 128.4 2.8 128.38 3.42 128.4 3.4 C 128.6 3.1 129.1 2.7 129.8 2.7 C 130.5 2.7 130.8 3.1 130.9 3.5 C 131.2 3.1 131.8 2.7 132.4 2.7 C 133.2 2.7 133.6 3.1 133.6 4 C 133.55 3.98 133.6 7.1 133.6 7.1 L 133.1 7.1 C 133.1 7.1 133.08 4.07 133.1 4.1 Z " stroke="none" fill="#242423"/>
  </g>
</svg>