<?xml version="1.0" standalone="no"?>
<!DOCTYPE svg PUBLIC "-//W3C//DTD SVG 1.1//EN" "http://www.w3.org/Graphics/SVG/1.1/DTD/svg11.dtd">
<svg xmlns="http://www.w3.org/2000/svg" version="1.1" width="89.3px" height="16.9px" viewBox="0 -4 89.3 16.9" style="top:-4px">
  <desc>Years in Business</desc>
  <defs/>
  <g id="Polygon274693">
    <path d="M 2.4 4.6 L 0 1.1 L 1.1 1.1 L 2.8 3.8 L 4.6 1.1 L 5.6 1.1 L 3.3 4.6 L 3.3 7.1 L 2.4 7.1 L 2.4 4.6 Z M 7.1 2.7 C 8.4 2.7 9.2 3.7 9.2 5 C 9.22 5 9.2 5.2 9.2 5.2 C 9.2 5.2 5.79 5.2 5.8 5.2 C 5.8 5.9 6.4 6.6 7.3 6.6 C 7.7 6.6 8.2 6.4 8.6 6 C 8.6 6 8.9 6.6 8.9 6.6 C 8.5 7 7.9 7.2 7.2 7.2 C 5.9 7.2 4.9 6.3 4.9 4.9 C 4.9 3.7 5.8 2.7 7.1 2.7 Z M 5.8 4.6 C 5.8 4.6 8.4 4.6 8.4 4.6 C 8.4 4 8 3.3 7.1 3.3 C 6.2 3.3 5.8 4 5.8 4.6 Z M 12.9 6.6 C 12.6 7 12.1 7.2 11.5 7.2 C 10.8 7.2 10 6.7 10 5.8 C 10 4.8 10.8 4.4 11.5 4.4 C 12.1 4.4 12.6 4.5 12.9 4.9 C 12.9 4.9 12.9 4.2 12.9 4.2 C 12.9 3.7 12.5 3.3 11.9 3.3 C 11.4 3.3 10.9 3.5 10.6 3.9 C 10.6 3.9 10.2 3.4 10.2 3.4 C 10.7 2.9 11.3 2.7 12 2.7 C 12.9 2.7 13.7 3.1 13.7 4.2 C 13.73 4.18 13.7 7.1 13.7 7.1 L 12.9 7.1 C 12.9 7.1 12.92 6.63 12.9 6.6 Z M 12.9 5.4 C 12.7 5.1 12.3 4.9 11.8 4.9 C 11.2 4.9 10.8 5.3 10.8 5.8 C 10.8 6.3 11.2 6.7 11.8 6.7 C 12.3 6.7 12.7 6.5 12.9 6.2 C 12.9 6.2 12.9 5.4 12.9 5.4 Z M 15 2.8 L 15.8 2.8 C 15.8 2.8 15.84 3.43 15.8 3.4 C 16.2 3 16.7 2.7 17.3 2.7 C 17.3 2.7 17.3 3.5 17.3 3.5 C 17.2 3.5 17.1 3.5 17 3.5 C 16.6 3.5 16 3.8 15.8 4.1 C 15.84 4.09 15.8 7.1 15.8 7.1 L 15 7.1 L 15 2.8 Z M 18.1 5.9 C 18.4 6.3 19 6.6 19.5 6.6 C 20.2 6.6 20.5 6.3 20.5 5.9 C 20.5 5.5 20 5.4 19.4 5.2 C 18.7 5.1 17.8 4.9 17.8 3.9 C 17.8 3.2 18.4 2.7 19.5 2.7 C 20.2 2.7 20.8 2.9 21.1 3.3 C 21.1 3.3 20.8 3.8 20.8 3.8 C 20.5 3.5 20 3.3 19.5 3.3 C 18.9 3.3 18.6 3.5 18.6 3.9 C 18.6 4.3 19.1 4.4 19.6 4.5 C 20.4 4.7 21.3 4.9 21.3 5.9 C 21.3 6.6 20.6 7.2 19.5 7.2 C 18.8 7.2 18.1 7 17.7 6.5 C 17.7 6.5 18.1 5.9 18.1 5.9 Z M 24.5 1.5 C 24.5 1.2 24.7 1 25 1 C 25.3 1 25.5 1.2 25.5 1.5 C 25.5 1.8 25.3 2 25 2 C 24.7 2 24.5 1.8 24.5 1.5 Z M 24.6 2.8 L 25.4 2.8 L 25.4 7.1 L 24.6 7.1 L 24.6 2.8 Z M 29.6 4.3 C 29.6 3.6 29.3 3.4 28.7 3.4 C 28.2 3.4 27.7 3.7 27.5 4 C 27.51 4 27.5 7.1 27.5 7.1 L 26.7 7.1 L 26.7 2.8 L 27.5 2.8 C 27.5 2.8 27.51 3.37 27.5 3.4 C 27.8 3 28.4 2.7 29.1 2.7 C 30 2.7 30.4 3.1 30.4 4.1 C 30.45 4.06 30.4 7.1 30.4 7.1 L 29.6 7.1 C 29.6 7.1 29.64 4.33 29.6 4.3 Z M 34.1 1.1 C 34.1 1.1 36.89 1.11 36.9 1.1 C 38 1.1 38.6 1.8 38.6 2.6 C 38.6 3.4 38.1 3.9 37.5 4 C 38.2 4.1 38.7 4.8 38.7 5.5 C 38.7 6.4 38.1 7.1 37 7.1 C 36.96 7.11 34.1 7.1 34.1 7.1 L 34.1 1.1 Z M 36.7 3.7 C 37.3 3.7 37.7 3.3 37.7 2.8 C 37.7 2.3 37.3 1.9 36.7 1.9 C 36.72 1.9 35 1.9 35 1.9 L 35 3.7 C 35 3.7 36.72 3.65 36.7 3.7 Z M 36.8 6.3 C 37.4 6.3 37.8 6 37.8 5.4 C 37.8 4.9 37.4 4.4 36.8 4.4 C 36.76 4.45 35 4.4 35 4.4 L 35 6.3 C 35 6.3 36.76 6.32 36.8 6.3 Z M 42.7 6.5 C 42.4 6.9 41.8 7.2 41.2 7.2 C 40.3 7.2 39.8 6.8 39.8 5.8 C 39.8 5.83 39.8 2.8 39.8 2.8 L 40.6 2.8 C 40.6 2.8 40.61 5.56 40.6 5.6 C 40.6 6.3 41 6.5 41.5 6.5 C 42 6.5 42.5 6.2 42.7 5.9 C 42.73 5.89 42.7 2.8 42.7 2.8 L 43.5 2.8 L 43.5 7.1 L 42.7 7.1 C 42.7 7.1 42.73 6.52 42.7 6.5 Z M 44.8 5.9 C 45.1 6.3 45.7 6.6 46.3 6.6 C 46.9 6.6 47.2 6.3 47.2 5.9 C 47.2 5.5 46.7 5.4 46.2 5.2 C 45.4 5.1 44.6 4.9 44.6 3.9 C 44.6 3.2 45.2 2.7 46.2 2.7 C 47 2.7 47.5 2.9 47.9 3.3 C 47.9 3.3 47.5 3.8 47.5 3.8 C 47.3 3.5 46.8 3.3 46.2 3.3 C 45.7 3.3 45.3 3.5 45.3 3.9 C 45.3 4.3 45.8 4.4 46.4 4.5 C 47.1 4.7 48 4.9 48 5.9 C 48 6.6 47.4 7.2 46.3 7.2 C 45.5 7.2 44.9 7 44.5 6.5 C 44.5 6.5 44.8 5.9 44.8 5.9 Z M 48.9 1.5 C 48.9 1.2 49.2 1 49.4 1 C 49.7 1 50 1.2 50 1.5 C 50 1.8 49.7 2 49.4 2 C 49.2 2 48.9 1.8 48.9 1.5 Z M 49 2.8 L 49.8 2.8 L 49.8 7.1 L 49 7.1 L 49 2.8 Z M 54.1 4.3 C 54.1 3.6 53.7 3.4 53.1 3.4 C 52.6 3.4 52.2 3.7 51.9 4 C 51.95 4 51.9 7.1 51.9 7.1 L 51.1 7.1 L 51.1 2.8 L 51.9 2.8 C 51.9 2.8 51.95 3.37 51.9 3.4 C 52.2 3 52.8 2.7 53.5 2.7 C 54.4 2.7 54.9 3.1 54.9 4.1 C 54.88 4.06 54.9 7.1 54.9 7.1 L 54.1 7.1 C 54.1 7.1 54.07 4.33 54.1 4.3 Z M 58.1 2.7 C 59.4 2.7 60.2 3.7 60.2 5 C 60.19 5 60.2 5.2 60.2 5.2 C 60.2 5.2 56.75 5.2 56.8 5.2 C 56.8 5.9 57.4 6.6 58.2 6.6 C 58.7 6.6 59.2 6.4 59.5 6 C 59.5 6 59.9 6.6 59.9 6.6 C 59.5 7 58.9 7.2 58.1 7.2 C 56.9 7.2 55.9 6.3 55.9 4.9 C 55.9 3.7 56.8 2.7 58.1 2.7 Z M 56.7 4.6 C 56.7 4.6 59.4 4.6 59.4 4.6 C 59.4 4 59 3.3 58.1 3.3 C 57.2 3.3 56.8 4 56.7 4.6 Z M 61.2 5.9 C 61.5 6.3 62.1 6.6 62.7 6.6 C 63.3 6.6 63.6 6.3 63.6 5.9 C 63.6 5.5 63.1 5.4 62.6 5.2 C 61.8 5.1 61 4.9 61 3.9 C 61 3.2 61.5 2.7 62.6 2.7 C 63.4 2.7 63.9 2.9 64.3 3.3 C 64.3 3.3 63.9 3.8 63.9 3.8 C 63.7 3.5 63.2 3.3 62.6 3.3 C 62.1 3.3 61.7 3.5 61.7 3.9 C 61.7 4.3 62.2 4.4 62.7 4.5 C 63.5 4.7 64.4 4.9 64.4 5.9 C 64.4 6.6 63.8 7.2 62.6 7.2 C 61.9 7.2 61.3 7 60.8 6.5 C 60.8 6.5 61.2 5.9 61.2 5.9 Z M 65.4 5.9 C 65.7 6.3 66.3 6.6 66.9 6.6 C 67.5 6.6 67.8 6.3 67.8 5.9 C 67.8 5.5 67.3 5.4 66.8 5.2 C 66 5.1 65.2 4.9 65.2 3.9 C 65.2 3.2 65.8 2.7 66.8 2.7 C 67.6 2.7 68.1 2.9 68.5 3.3 C 68.5 3.3 68.1 3.8 68.1 3.8 C 67.9 3.5 67.4 3.3 66.8 3.3 C 66.3 3.3 65.9 3.5 65.9 3.9 C 65.9 4.3 66.4 4.4 66.9 4.5 C 67.7 4.7 68.6 4.9 68.6 5.9 C 68.6 6.6 68 7.2 66.9 7.2 C 66.1 7.2 65.5 7 65 6.5 C 65 6.5 65.4 5.9 65.4 5.9 Z " stroke="none" fill="#000"/>
  </g>
</svg>