<?xml version="1.0" standalone="no"?><!DOCTYPE svg PUBLIC "-//W3C//DTD SVG 1.1//EN" "http://www.w3.org/Graphics/SVG/1.1/DTD/svg11.dtd"><svg xmlns="http://www.w3.org/2000/svg" version="1.1" width="91px" height="27.9px" viewBox="0 -6 91 27.9" style="top:-6px"><desc>Monthly Rent</desc><defs/><g id="Polygon98625"><path d="m10.3 4.1l-3.4 8.4h-.7L2.8 4.1v8.4H1.2V2h2.2l3.1 7.6L9.6 2h2.3v10.5h-1.6V4.1zm3.3 4.6c0-2.2 1.5-4 3.8-4c2.4 0 3.9 1.8 3.9 4c0 2.2-1.5 4-3.9 4c-2.3 0-3.8-1.8-3.8-4zm6.2 0c0-1.4-.8-2.7-2.4-2.7c-1.5 0-2.3 1.3-2.3 2.7c0 1.5.8 2.8 2.3 2.8c1.6 0 2.4-1.3 2.4-2.8zm8.3-1.1c0-1.2-.6-1.6-1.6-1.6c-.9 0-1.7.5-2.1 1.1v5.4H23V4.9h1.4s-.01 1.05 0 1.1c.5-.7 1.5-1.3 2.7-1.3c1.6 0 2.5.8 2.5 2.5c-.03-.04 0 5.3 0 5.3h-1.5s.04-4.86 0-4.9zm3.9 3.2c-.03.05 0-4.7 0-4.7h-1.3V4.9h1.3V2.8h1.4v2.1h1.6v1.2h-1.6v4.4c0 .6.3 1 .7 1c.4 0 .7-.2.8-.3l.4 1c-.3.3-.8.5-1.5.5c-1.2 0-1.8-.6-1.8-1.9zm9.6-3.2c0-1.3-.7-1.6-1.7-1.6c-.9 0-1.7.5-2.1 1.1v5.4h-1.4V2h1.4v4c.5-.7 1.6-1.3 2.7-1.3c1.7 0 2.5.8 2.5 2.4v5.4h-1.4s-.04-4.89 0-4.9zM45.1 2h1.4v10.5h-1.4V2zm4 12.4c.6 0 .9-.2 1.2-.8c-.05.04.4-1 .4-1l-3.2-7.7h1.6l2.4 6l2.4-6h1.5s-3.78 9.11-3.8 9.1c-.5 1.2-1.3 1.6-2.4 1.7c-.3 0-.7-.1-.9-.2l.2-1.2c.2 0 .4.1.6.1zm14.8-5.9H62v4h-1.6V2s4.43-.05 4.4 0c2 0 3.4 1.3 3.4 3.2c0 1.9-1.3 2.9-2.6 3.1c-.01.01 2.7 4.2 2.7 4.2h-1.8l-2.6-4zm.7-5.1c.02-.05-2.6 0-2.6 0v3.7s2.62-.03 2.6 0c1.2 0 2-.8 2-1.9c0-1.1-.8-1.8-2-1.8zm8.3 1.3c2.3 0 3.7 1.8 3.7 4.1v.4s-6.05-.02-6.1 0c.2 1.3 1.1 2.4 2.7 2.4c.8 0 1.7-.4 2.2-.9l.7.9c-.8.7-1.9 1.1-3.1 1.1c-2.3 0-4-1.6-4-4c0-2.2 1.6-4 3.9-4zm-2.4 3.4h4.7c0-1-.7-2.2-2.3-2.2c-1.6 0-2.3 1.2-2.4 2.2zm12.9-.5c0-1.2-.6-1.6-1.6-1.6c-.9 0-1.7.5-2.1 1.1c-.02-.03 0 5.4 0 5.4h-1.4V4.9h1.4s-.02 1.05 0 1.1c.5-.7 1.5-1.3 2.7-1.3c1.6 0 2.5.8 2.5 2.5c-.04-.04 0 5.3 0 5.3h-1.5s.03-4.86 0-4.9zm3.9 3.2c-.04.05 0-4.7 0-4.7H86V4.9h1.3V2.8h1.4v2.1h1.5v1.2h-1.5s-.02 4.43 0 4.4c0 .6.2 1 .7 1c.4 0 .7-.2.8-.3l.4 1c-.3.3-.8.5-1.5.5c-1.2 0-1.8-.6-1.8-1.9z" stroke="none" fill="#88898a"/></g></svg>