<?xml version="1.0" standalone="no"?><!DOCTYPE svg PUBLIC "-//W3C//DTD SVG 1.1//EN" "http://www.w3.org/Graphics/SVG/1.1/DTD/svg11.dtd"><svg xmlns="http://www.w3.org/2000/svg" version="1.1" width="184px" height="16.9px" viewBox="0 -4 184 16.9" style="top:-4px"><desc>02</desc><defs/><g id="Polygon84972"><path d="m2.8 1c1.6 0 2.3 1.6 2.3 3.1c0 1.5-.7 3.1-2.3 3.1C1.1 7.2.4 5.6.4 4.1C.4 2.6 1.1 1 2.8 1zm0 .8c-1.1 0-1.5 1.1-1.5 2.3c0 1.2.4 2.3 1.5 2.3c1 0 1.4-1.1 1.4-2.3c0-1.2-.4-2.3-1.4-2.3zM6 6.4c2.2-1.7 3.3-2.6 3.3-3.6c0-.7-.6-1-1.2-1c-.7 0-1.3.3-1.6.8L5.9 2c.5-.6 1.4-1 2.2-1c1.1 0 2.1.6 2.1 1.8c0 1.2-1.1 2.2-2.8 3.5c.03.02 2.8 0 2.8 0v.8H6v-.7z" stroke="none" fill="#88898a"/></g></svg>