<?xml version="1.0" standalone="no"?><!DOCTYPE svg PUBLIC "-//W3C//DTD SVG 1.1//EN" "http://www.w3.org/Graphics/SVG/1.1/DTD/svg11.dtd"><svg xmlns="http://www.w3.org/2000/svg" version="1.1" width="153px" height="27.9px" viewBox="0 -6 153 27.9" style="top:-6px"><desc>Agent 1</desc><defs/><g id="Polygon271813"><path d="m2.8 4.4v8.1H1.2V2h1.6l5.8 7.9V2h1.6v10.5H8.6L2.8 4.4zm12.9.3c2.3 0 3.7 1.8 3.7 4.1c.02.03 0 .4 0 .4c0 0-6.04-.02-6 0c.1 1.3 1 2.4 2.6 2.4c.8 0 1.7-.4 2.2-.9l.7.9c-.8.7-1.8 1.1-3.1 1.1c-2.3 0-4-1.6-4-4c0-2.2 1.7-4 3.9-4zm-2.4 3.4h4.7c0-1-.7-2.2-2.3-2.2c-1.5 0-2.3 1.2-2.4 2.2zm8 2.7c.05.05 0-4.7 0-4.7h-1.2V4.9h1.2V2.8h1.5v2.1h1.5v1.2h-1.5s-.03 4.43 0 4.4c0 .6.2 1 .7 1c.4 0 .7-.2.8-.3l.4 1c-.3.3-.8.5-1.5.5c-1.2 0-1.9-.6-1.9-1.9zm13.3-9c3.2 0 5.4 2.3 5.4 5.5c0 3.1-2.2 5.4-5.4 5.4c-3.1 0-5.3-2.3-5.3-5.4c0-3.2 2.2-5.5 5.3-5.5zm0 1.4c-2.2 0-3.7 1.7-3.7 4.1c0 2.3 1.5 4 3.7 4c2.3 0 3.7-1.7 3.7-4c0-2.4-1.4-4.1-3.7-4.1zm7.1 12.3V4.9h1.4s.02 1.07 0 1.1c.6-.8 1.5-1.3 2.5-1.3c2 0 3.4 1.5 3.4 4c0 2.5-1.4 4-3.4 4c-1 0-1.9-.4-2.5-1.3c.02.04 0 4.1 0 4.1h-1.4zM45.2 6c-.8 0-1.7.5-2.1 1.1v3.2c.4.6 1.3 1.2 2.1 1.2c1.5 0 2.4-1.2 2.4-2.8c0-1.6-.9-2.7-2.4-2.7zm8.9-1.3c2.3 0 3.7 1.8 3.7 4.1v.4s-6.07-.02-6.1 0c.1 1.3 1.1 2.4 2.6 2.4c.8 0 1.7-.4 2.3-.9l.7.9c-.8.7-1.9 1.1-3.1 1.1c-2.3 0-4-1.6-4-4c0-2.2 1.6-4 3.9-4zm-2.4 3.4h4.7c0-1-.7-2.2-2.3-2.2c-1.6 0-2.3 1.2-2.4 2.2zm7.7-3.2h1.5s-.04 1.15 0 1.2c.5-.8 1.5-1.4 2.5-1.4v1.4h-.5c-.7 0-1.7.5-2 1.1c-.04.01 0 5.3 0 5.3h-1.5V4.9zm10 6.8c-.6.7-1.5 1-2.5 1c-1.3 0-2.7-.8-2.7-2.5c0-1.8 1.4-2.5 2.7-2.5c1 0 1.9.3 2.5 1V7.4c0-.9-.8-1.5-1.9-1.5c-.9 0-1.6.3-2.3 1l-.6-1c.8-.8 1.9-1.2 3.1-1.2c1.7 0 3.1.7 3.1 2.7v5.1h-1.4s-.03-.79 0-.8zm0-2.1c-.5-.6-1.2-.9-2-.9c-1 0-1.8.6-1.8 1.5c0 .9.8 1.5 1.8 1.5c.8 0 1.5-.3 2-.8V9.6zm3.8 1.2c.02.05 0-4.7 0-4.7h-1.3V4.9h1.3V2.8h1.4v2.1h1.6v1.2h-1.6s.05 4.43 0 4.4c0 .6.3 1 .8 1c.3 0 .6-.2.8-.3l.3 1c-.3.3-.7.5-1.5.5c-1.2 0-1.8-.6-1.8-1.9zm4.2-8.1c0-.5.4-.9.9-.9c.5 0 1 .4 1 .9c0 .5-.5.9-1 .9c-.5 0-.9-.4-.9-.9zm.2 2.2h1.5v7.6h-1.5V4.9zm8.8 2.7c0-1.2-.7-1.6-1.7-1.6c-.9 0-1.7.5-2.1 1.1v5.4h-1.4V4.9h1.4v1.1c.5-.7 1.5-1.3 2.7-1.3c1.6 0 2.5.8 2.5 2.5c-.02-.04 0 5.3 0 5.3h-1.4s-.05-4.86 0-4.9zm4.1 5.9c.6.7 1.4 1 2.5 1c1.2 0 2.4-.6 2.4-2.2v-1c-.6.8-1.5 1.3-2.6 1.3c-2 0-3.4-1.4-3.4-4c0-2.4 1.4-3.9 3.4-3.9c1 0 1.9.5 2.6 1.3c-.04-.01 0-1.1 0-1.1h1.4v7.3c0 2.7-1.9 3.5-3.8 3.5c-1.3 0-2.2-.3-3.2-1.2l.7-1zm4.9-6.4C95 6.5 94.1 6 93.2 6c-1.4 0-2.3 1.1-2.3 2.6c0 1.6.9 2.7 2.3 2.7c.9 0 1.8-.5 2.2-1.1V7.1zm7.5-5.1h1.6v10.5h-1.6V2zm8.9 5.6c0-1.2-.6-1.6-1.6-1.6c-.9 0-1.7.5-2.1 1.1c-.04-.03 0 5.4 0 5.4h-1.5V4.9h1.5s-.04 1.05 0 1.1c.5-.7 1.5-1.3 2.7-1.3c1.6 0 2.4.8 2.4 2.5c.04-.04 0 5.3 0 5.3h-1.4V7.6zm7-2.9c1.4 0 2.3.6 2.9 1.3l-1 .9c-.5-.6-1.1-.9-1.9-.9c-1.5 0-2.4 1.1-2.4 2.7c0 1.6.9 2.8 2.4 2.8c.8 0 1.4-.3 1.9-1l1 .9c-.6.7-1.5 1.3-2.9 1.3c-2.3 0-3.9-1.7-3.9-4c0-2.3 1.6-4 3.9-4zm3.8 4c0-2.2 1.5-4 3.9-4c2.4 0 3.8 1.8 3.8 4c0 2.2-1.4 4-3.8 4c-2.4 0-3.9-1.8-3.9-4zm6.3 0c0-1.4-.9-2.7-2.4-2.7c-1.6 0-2.4 1.3-2.4 2.7c0 1.5.8 2.8 2.4 2.8c1.5 0 2.4-1.3 2.4-2.8zm12.4-1.3c0-.9-.4-1.4-1.3-1.4c-.8 0-1.6.5-1.9 1.1c-.02-.05 0 5.4 0 5.4h-1.4s-.05-5.07 0-5.1c0-.9-.4-1.4-1.4-1.4c-.7 0-1.5.5-1.9 1.1c.03-.03 0 5.4 0 5.4H132V4.9h1.4s.03 1.05 0 1.1c.3-.5 1.4-1.3 2.5-1.3c1.2 0 1.8.6 2.1 1.4c.4-.7 1.4-1.4 2.6-1.4c1.4 0 2.1.8 2.1 2.3c.05 0 0 5.5 0 5.5h-1.4s.02-5.07 0-5.1zm6.9-2.7c2.3 0 3.8 1.8 3.8 4.1c-.04.03 0 .4 0 .4c0 0-6.11-.02-6.1 0c.1 1.3 1.1 2.4 2.6 2.4c.8 0 1.7-.4 2.3-.9l.6.9c-.7.7-1.8 1.1-3 1.1c-2.3 0-4-1.6-4-4c0-2.2 1.6-4 3.8-4zm-2.3 3.4h4.7c-.1-1-.8-2.2-2.4-2.2c-1.5 0-2.2 1.2-2.3 2.2z" stroke="none" fill="#3797ef"/></g></svg>