<?xml version="1.0" standalone="no"?><!DOCTYPE svg PUBLIC "-//W3C//DTD SVG 1.1//EN" "http://www.w3.org/Graphics/SVG/1.1/DTD/svg11.dtd"><svg xmlns="http://www.w3.org/2000/svg" version="1.1" width="125.4px" height="27.3px" viewBox="0 -6 125.4 27.3" style="top:-6px"><desc>29 4%</desc><defs/><g id="Polygon112024"><path d="m84.8 11.8c3.6-2.9 6.1-5 6.1-7c0-1.5-1.3-2.2-2.5-2.2c-1.3 0-2.3.6-2.9 1.4l-.6-.6c.8-1 2.1-1.6 3.5-1.6c1.6 0 3.4.9 3.4 3c0 2.3-2.5 4.4-5.5 6.9c-.04.02 5.5 0 5.5 0v.8h-7s.04-.7 0-.7zm10.4-1.1c.5.7 1.1 1.2 2.3 1.2c2.3 0 3.1-2.4 3.1-4.7v-.5c-.4.8-1.7 1.8-3.1 1.8c-1.9 0-3.4-1.1-3.4-3.3c0-1.8 1.3-3.4 3.6-3.4c2.8 0 3.8 2.6 3.8 5.5c0 2.7-1.1 5.4-4 5.4c-1.4 0-2.2-.5-2.9-1.3l.6-.7zm2.5-8.1C95.9 2.6 95 4 95 5.1c0 1.8 1.2 2.6 2.7 2.6c1.1 0 2.3-.7 2.9-1.8c-.2-1.5-.9-3.3-2.9-3.3zm5.9 8.7c.4 0 .7.3.7.7c0 .4-.3.7-.7.7c-.4 0-.7-.3-.7-.7c0-.4.3-.7.7-.7zm7.3-1.6h-5v-.9l4.7-6.8h1.3v6.8h1.5v.9h-1.5v2.8h-1V9.7zm-4-.9h4V2.9l-4 5.9zm10.1-7c1.5 0 2.5 1.1 2.5 2.6c0 1.5-1 2.6-2.5 2.6c-1.5 0-2.5-1.1-2.5-2.6c0-1.5 1-2.6 2.5-2.6zm5.8.2h.7l-6.8 10.5h-.7L122.8 2zm-5.8.4c-1.1 0-1.8.9-1.8 2c0 1.1.7 2 1.8 2c1 0 1.7-.9 1.7-2c0-1.1-.7-2-1.7-2zm5.4 5.1c1.4 0 2.5 1.2 2.5 2.6c0 1.5-1.1 2.6-2.5 2.6c-1.5 0-2.5-1.1-2.5-2.6c0-1.4 1-2.6 2.5-2.6zm0 .7c-1.1 0-1.8.9-1.8 1.9c0 1.1.7 2 1.8 2c1 0 1.7-.9 1.7-2c0-1-.7-1.9-1.7-1.9z" stroke="none" fill="#000"/></g></svg>