<?xml version="1.0" standalone="no"?>
<!DOCTYPE svg PUBLIC "-//W3C//DTD SVG 1.1//EN" "http://www.w3.org/Graphics/SVG/1.1/DTD/svg11.dtd">
<svg xmlns="http://www.w3.org/2000/svg" version="1.1" width="200.3px" height="27.9px" viewBox="0 -6 200.3 27.9" style="top:-6px">
  <desc>12345 STREET ADDRESS,</desc>
  <defs/>
  <g id="Polygon233786">
    <path d="M 22.6 4 L 20.9 5.8 L 20 4.9 L 22.8 2 L 24.2 2 L 24.2 12.5 L 22.6 12.5 L 22.6 4 Z M 26.2 11.3 C 30.2 8.2 32 6.7 32 5 C 32 3.7 31 3.2 29.9 3.2 C 28.7 3.2 27.7 3.7 27.1 4.5 C 27.1 4.5 26.1 3.5 26.1 3.5 C 27 2.4 28.5 1.8 29.9 1.8 C 31.8 1.8 33.6 2.9 33.6 5 C 33.6 7.1 31.6 8.9 28.7 11.2 C 28.74 11.15 33.7 11.2 33.7 11.2 L 33.7 12.5 L 26.2 12.5 C 26.2 12.5 26.22 11.29 26.2 11.3 Z M 36.1 10 C 36.7 10.8 37.8 11.3 39 11.3 C 40.5 11.3 41.4 10.6 41.4 9.5 C 41.4 8.3 40.4 7.8 38.9 7.8 C 38.4 7.8 37.9 7.8 37.7 7.9 C 37.7 7.9 37.7 6.4 37.7 6.4 C 37.9 6.4 38.5 6.4 38.9 6.4 C 40.2 6.4 41.2 6 41.2 4.9 C 41.2 3.8 40.2 3.2 38.9 3.2 C 37.8 3.2 37 3.6 36.2 4.4 C 36.2 4.4 35.3 3.4 35.3 3.4 C 36.1 2.5 37.4 1.8 39.1 1.8 C 41.2 1.8 42.8 2.9 42.8 4.6 C 42.8 6.1 41.5 6.9 40.5 7.1 C 41.5 7.2 43 8 43 9.7 C 43 11.5 41.5 12.7 39.1 12.7 C 37.2 12.7 35.9 12 35.2 11 C 35.2 11 36.1 10 36.1 10 Z M 49.3 10 L 44.2 10 L 44.2 8.7 L 48.7 2 L 50.8 2 L 50.8 8.6 L 52.3 8.6 L 52.3 10 L 50.8 10 L 50.8 12.5 L 49.3 12.5 L 49.3 10 Z M 45.8 8.6 L 49.3 8.6 L 49.3 3.4 L 45.8 8.6 Z M 54.7 10 C 55.4 10.8 56.3 11.3 57.6 11.3 C 59 11.3 59.9 10.4 59.9 9.3 C 59.9 8 59 7.2 57.6 7.2 C 56.7 7.2 55.9 7.5 55.2 8.1 C 55.23 8.13 54.1 7.8 54.1 7.8 L 54.1 2 L 60.8 2 L 60.8 3.4 L 55.7 3.4 C 55.7 3.4 55.68 6.73 55.7 6.7 C 56.2 6.2 57.1 5.8 58.1 5.8 C 59.9 5.8 61.5 7 61.5 9.2 C 61.5 11.4 59.8 12.7 57.6 12.7 C 55.8 12.7 54.6 12.1 53.8 11.1 C 53.8 11.1 54.7 10 54.7 10 Z M 67.8 9.8 C 68.5 10.6 69.6 11.3 71.1 11.3 C 72.8 11.3 73.4 10.5 73.4 9.7 C 73.4 8.6 72.2 8.3 70.9 7.9 C 69.2 7.5 67.2 7 67.2 4.8 C 67.2 3.1 68.7 1.8 70.9 1.8 C 72.6 1.8 73.9 2.3 74.8 3.3 C 74.8 3.3 73.9 4.4 73.9 4.4 C 73.1 3.6 72 3.2 70.8 3.2 C 69.6 3.2 68.8 3.8 68.8 4.7 C 68.8 5.7 70 6 71.3 6.3 C 73 6.7 75 7.3 75 9.5 C 75 11.2 73.9 12.7 71 12.7 C 69.1 12.7 67.8 12.1 66.9 11.1 C 66.9 11.1 67.8 9.8 67.8 9.8 Z M 79.3 3.4 L 76.1 3.4 L 76.1 2 L 84.2 2 L 84.2 3.4 L 80.9 3.4 L 80.9 12.5 L 79.3 12.5 L 79.3 3.4 Z M 89.4 8.5 L 87.4 8.5 L 87.4 12.5 L 85.9 12.5 L 85.9 2 C 85.9 2 90.32 1.95 90.3 2 C 92.3 2 93.7 3.3 93.7 5.2 C 93.7 7.1 92.4 8.1 91.1 8.3 C 91.08 8.31 93.8 12.5 93.8 12.5 L 92 12.5 L 89.4 8.5 Z M 90.1 3.4 C 90.11 3.35 87.4 3.4 87.4 3.4 L 87.4 7.1 C 87.4 7.1 90.11 7.07 90.1 7.1 C 91.3 7.1 92.1 6.3 92.1 5.2 C 92.1 4.1 91.3 3.4 90.1 3.4 Z M 95.7 2 L 102.8 2 L 102.8 3.4 L 97.3 3.4 L 97.3 6.4 L 102.7 6.4 L 102.7 7.8 L 97.3 7.8 L 97.3 11.2 L 102.8 11.2 L 102.8 12.5 L 95.7 12.5 L 95.7 2 Z M 104.8 2 L 111.9 2 L 111.9 3.4 L 106.4 3.4 L 106.4 6.4 L 111.8 6.4 L 111.8 7.8 L 106.4 7.8 L 106.4 11.2 L 111.9 11.2 L 111.9 12.5 L 104.8 12.5 L 104.8 2 Z M 116.5 3.4 L 113.2 3.4 L 113.2 2 L 121.3 2 L 121.3 3.4 L 118 3.4 L 118 12.5 L 116.5 12.5 L 116.5 3.4 Z M 133.8 10.4 L 128.6 10.4 L 127.7 12.5 L 126 12.5 L 130.2 2 L 132.2 2 L 136.4 12.5 L 134.6 12.5 L 133.8 10.4 Z M 129 8.9 L 133.3 8.9 L 131.2 3.3 L 129 8.9 Z M 137.6 2 C 137.6 2 141.42 1.95 141.4 2 C 144.7 2 146.9 4.2 146.9 7.3 C 146.9 10.3 144.7 12.5 141.4 12.5 C 141.42 12.55 137.6 12.5 137.6 12.5 L 137.6 2 Z M 141.4 11.2 C 143.9 11.2 145.3 9.4 145.3 7.3 C 145.3 5.1 143.9 3.4 141.4 3.4 C 141.42 3.35 139.2 3.4 139.2 3.4 L 139.2 11.2 C 139.2 11.2 141.42 11.15 141.4 11.2 Z M 148.8 2 C 148.8 2 152.62 1.95 152.6 2 C 155.9 2 158.1 4.2 158.1 7.3 C 158.1 10.3 155.9 12.5 152.6 12.5 C 152.62 12.55 148.8 12.5 148.8 12.5 L 148.8 2 Z M 152.6 11.2 C 155.1 11.2 156.5 9.4 156.5 7.3 C 156.5 5.1 155.1 3.4 152.6 3.4 C 152.62 3.35 150.4 3.4 150.4 3.4 L 150.4 11.2 C 150.4 11.2 152.62 11.15 152.6 11.2 Z M 163.6 8.5 L 161.6 8.5 L 161.6 12.5 L 160 12.5 L 160 2 C 160 2 164.5 1.95 164.5 2 C 166.5 2 167.9 3.3 167.9 5.2 C 167.9 7.1 166.6 8.1 165.3 8.3 C 165.26 8.31 168 12.5 168 12.5 L 166.1 12.5 L 163.6 8.5 Z M 164.3 3.4 C 164.3 3.35 161.6 3.4 161.6 3.4 L 161.6 7.1 C 161.6 7.1 164.3 7.07 164.3 7.1 C 165.4 7.1 166.3 6.3 166.3 5.2 C 166.3 4.1 165.4 3.4 164.3 3.4 Z M 169.9 2 L 177 2 L 177 3.4 L 171.4 3.4 L 171.4 6.4 L 176.9 6.4 L 176.9 7.8 L 171.4 7.8 L 171.4 11.2 L 177 11.2 L 177 12.5 L 169.9 12.5 L 169.9 2 Z M 179.2 9.8 C 179.9 10.6 181.1 11.3 182.5 11.3 C 184.3 11.3 184.9 10.5 184.9 9.7 C 184.9 8.6 183.7 8.3 182.3 7.9 C 180.6 7.5 178.6 7 178.6 4.8 C 178.6 3.1 180.2 1.8 182.4 1.8 C 184 1.8 185.3 2.3 186.2 3.3 C 186.2 3.3 185.3 4.4 185.3 4.4 C 184.5 3.6 183.4 3.2 182.3 3.2 C 181.1 3.2 180.3 3.8 180.3 4.7 C 180.3 5.7 181.4 6 182.7 6.3 C 184.5 6.7 186.5 7.3 186.5 9.5 C 186.5 11.2 185.3 12.7 182.5 12.7 C 180.6 12.7 179.2 12.1 178.3 11.1 C 178.3 11.1 179.2 9.8 179.2 9.8 Z M 188.6 9.8 C 189.3 10.6 190.4 11.3 191.9 11.3 C 193.6 11.3 194.2 10.5 194.2 9.7 C 194.2 8.6 193 8.3 191.7 7.9 C 190 7.5 188 7 188 4.8 C 188 3.1 189.5 1.8 191.8 1.8 C 193.4 1.8 194.7 2.3 195.6 3.3 C 195.6 3.3 194.7 4.4 194.7 4.4 C 193.9 3.6 192.8 3.2 191.6 3.2 C 190.5 3.2 189.6 3.8 189.6 4.7 C 189.6 5.7 190.8 6 192.1 6.3 C 193.8 6.7 195.9 7.3 195.9 9.5 C 195.9 11.2 194.7 12.7 191.9 12.7 C 190 12.7 188.6 12.1 187.7 11.1 C 187.7 11.1 188.6 9.8 188.6 9.8 Z M 197.4 14.1 C 197.9 13.7 198.4 13.1 198.5 12.6 C 198.5 12.6 198.3 12.6 198.3 12.6 C 197.8 12.6 197.4 12.2 197.4 11.7 C 197.4 11.2 197.8 10.7 198.4 10.7 C 199 10.7 199.5 11.2 199.5 12.1 C 199.5 13.1 198.9 14 198.1 14.6 C 198.1 14.6 197.4 14.1 197.4 14.1 Z " stroke="none" fill="#88898a"/>
  </g>
</svg>