<?xml version="1.0" standalone="no"?><!DOCTYPE svg PUBLIC "-//W3C//DTD SVG 1.1//EN" "http://www.w3.org/Graphics/SVG/1.1/DTD/svg11.dtd"><svg xmlns="http://www.w3.org/2000/svg" xmlns:xlink="http://www.w3.org/1999/xlink" version="1.1" width="134.3px" height="27.9px" viewBox="0 -8 134.3 27.9" style="top:-8px"><desc/><defs/><g id="Polygon54772"><path d="m43.6 3.9l3.9-2v.4L44 4.1l3.5 1.8v.4l-3.9-2v-.4zm4.4 0l4-2v.4l-3.5 1.8L52 5.9v.4l-4-2v-.4zm6.5-2.3h-1.9v-.5h4.4v.5h-2v5.5h-.5V1.6zm3 6.9c.3 0 .5-.2.7-.6c.01.02.4-.8.4-.8l-1.9-4.3h.5l1.6 3.8l1.6-3.8h.5s-2.23 5.26-2.2 5.3c-.3.5-.6.8-1.1.8c-.2 0-.4-.1-.5-.1l.1-.4c.1 0 .2.1.3.1zm4.2.3v-6h.5s-.02.66 0 .7c.3-.5.8-.8 1.5-.8c1.2 0 1.9.8 1.9 2.2c0 1.4-.7 2.3-1.9 2.3c-.6 0-1.2-.3-1.5-.8c-.02.01 0 2.4 0 2.4h-.5zm1.9-5.7c-.6 0-1.2.3-1.4.8v2.1c.2.4.8.8 1.4.8c1 0 1.5-.8 1.5-1.9c0-1-.5-1.8-1.5-1.8zm5.1-.4c1.3 0 2 1 2 2.3c.04-.04 0 .1 0 .1c0 0-3.59-.02-3.6 0c.1.9.7 1.7 1.7 1.7c.6 0 1.1-.2 1.4-.6l.3.3c-.5.5-1 .7-1.7.7c-1.3 0-2.2-.9-2.2-2.3c0-1.2.9-2.2 2.1-2.2zm-1.6 2h3.2c0-.7-.5-1.6-1.6-1.6c-1 0-1.6.9-1.6 1.6zm6.9.2c0-1.2.8-2.2 2.1-2.2c1.3 0 2.1 1 2.1 2.2c0 1.3-.8 2.3-2.1 2.3c-1.3 0-2.1-1-2.1-2.3zm3.7 0c0-.9-.6-1.8-1.6-1.8c-1 0-1.6.9-1.6 1.8c0 1 .6 1.9 1.6 1.9c1 0 1.6-.9 1.6-1.9zm1.9-1.7h-.7v-.4h.7s-.03-.43 0-.4c0-.9.4-1.4 1.1-1.4c.3 0 .5.1.6.2l-.1.3c-.1 0-.2-.1-.4-.1c-.5 0-.8.4-.8 1c.04-.03 0 .4 0 .4h.9v.4h-.9v3.9h-.4V3.2zM86.8 1c1.8 0 3 1.4 3 3.1c0 1.8-1.2 3.1-3 3.1c-1.7 0-2.9-1.3-2.9-3.1c0-1.7 1.2-3.1 2.9-3.1zm0 .5c-1.4 0-2.3 1.1-2.3 2.6c0 1.5.9 2.7 2.3 2.7c1.5 0 2.4-1.2 2.4-2.7c0-1.5-.9-2.6-2.4-2.6zm6.7 1.9l-1.2 3.7h-.5l-1.4-4.3h.5l1.2 3.7l1.2-3.7h.4l1.2 3.7l1.2-3.7h.5l-1.4 4.3h-.5l-1.2-3.7zm6.9.8c0-.9-.4-1.1-1-1.1c-.6 0-1.2.3-1.5.7c.05.02 0 3.3 0 3.3h-.4V2.8h.4s.05.62 0 .6c.4-.4 1-.7 1.6-.7c.9 0 1.4.4 1.4 1.4c-.02-.03 0 3 0 3h-.5V4.2zm3.8-1.5c1.3 0 2 1 2 2.3c.04-.04 0 .1 0 .1c0 0-3.6-.02-3.6 0c0 .9.7 1.7 1.7 1.7c.6 0 1-.2 1.4-.6l.3.3c-.5.5-1 .7-1.7.7c-1.3 0-2.2-.9-2.2-2.3c0-1.2.9-2.2 2.1-2.2zm-1.6 2h3.2c0-.7-.5-1.6-1.6-1.6c-1.1 0-1.6.9-1.6 1.6zm4.8-1.9h.5v.7c.4-.5.9-.8 1.5-.8v.5h-.3c-.4 0-1 .4-1.2.7v3.2h-.5V2.8zm2.8 3.4c.3.3.8.6 1.4.6c.7 0 1.2-.3 1.2-.8c0-.6-.6-.8-1.3-.9c-.7-.2-1.5-.4-1.5-1.2c0-.7.6-1.2 1.6-1.2c.7 0 1.2.2 1.5.6l-.2.3c-.3-.3-.8-.5-1.3-.5c-.7 0-1.1.3-1.1.7c0 .5.5.7 1.1.8c.8.2 1.6.4 1.6 1.3c0 .7-.5 1.3-1.6 1.3c-.7 0-1.3-.2-1.7-.7l.3-.3zm7.2-2.1c0-.8-.5-1-1.1-1c-.6 0-1.1.3-1.4.7c-.01.02 0 3.3 0 3.3h-.5v-6h.5v2.3c.3-.4.9-.7 1.6-.7c.8 0 1.3.4 1.3 1.3c.03.05 0 3.1 0 3.1h-.4s-.04-2.95 0-3zm1.8-2.4c0-.2.1-.4.3-.4c.2 0 .4.2.4.4c0 .2-.2.3-.4.3c-.2 0-.3-.1-.3-.3zm.1 1.1h.5v4.3h-.5V2.8zm1.9 6v-6h.5s-.02.66 0 .7c.3-.5.8-.8 1.5-.8c1.2 0 1.9.8 1.9 2.2c0 1.4-.7 2.3-1.9 2.3c-.6 0-1.2-.3-1.5-.8c-.02.01 0 2.4 0 2.4h-.5zm1.9-5.7c-.6 0-1.2.3-1.4.8v2.1c.2.4.8.8 1.4.8c1 0 1.5-.8 1.5-1.9c0-1-.5-1.8-1.5-1.8zm2.8 2.8l3.4-1.8l-3.4-1.8v-.4l3.9 2v.4l-3.9 2v-.4zm4.4 0l3.5-1.8l-3.5-1.8v-.4l4 2v.4l-4 2v-.4z" stroke="none" fill="#000"/><a xlink:href="DBF_Type%20of%20Ownership" xlink:show="new" xlink:title="&lt;&lt;Type of Ownership&gt;&gt;"><rect style="fill:transparent;" x="43" y="0" width="92" height="9"/></a></g></svg>