<?xml version="1.0" standalone="no"?><!DOCTYPE svg PUBLIC "-//W3C//DTD SVG 1.1//EN" "http://www.w3.org/Graphics/SVG/1.1/DTD/svg11.dtd"><svg xmlns="http://www.w3.org/2000/svg" version="1.1" width="327.1px" height="28.3px" viewBox="0 -6 327.1 28.3" style="top:-6px"><desc>raising cane s</desc><defs/><g id="Polygon96098"><path d="m4.7 8.5H2.8v4H1.2V2s4.44-.05 4.4 0C7.7 2 9 3.3 9 5.2c0 1.9-1.2 2.9-2.6 3.1l2.7 4.2H7.3l-2.6-4zm.7-5.2c.03.05-2.6 0-2.6 0v3.8s2.63-.03 2.6 0c1.2 0 2-.8 2-1.9c0-1.1-.8-1.9-2-1.9zm12.1 7.1h-5.2l-.8 2.1H9.7L13.9 2h2l4.2 10.5h-1.7l-.9-2.1zm-4.7-1.5h4.3l-2.2-5.6l-2.1 5.6zM21.2 2h1.6v10.5h-1.6V2zm4.1 7.8c.7.8 1.9 1.5 3.3 1.5c1.7 0 2.4-.9 2.4-1.6c0-1.1-1.3-1.4-2.6-1.8c-1.7-.4-3.7-.9-3.7-3.1c0-1.7 1.6-3 3.8-3c1.6 0 2.9.5 3.8 1.5l-.9 1.1c-.8-.8-1.9-1.2-3.1-1.2c-1.1 0-1.9.6-1.9 1.5c0 1 1.1 1.3 2.4 1.6c1.8.4 3.8 1 3.8 3.2c0 1.7-1.2 3.2-4 3.2c-1.9 0-3.3-.6-4.2-1.6l.9-1.3zm9-7.8h1.5v10.5h-1.5V2zm5.3 2.4v8.1H38V2h1.7l5.7 7.9V2h1.6v10.5h-1.5l-5.9-8.1zm14.7-2.6c2 0 3.3.9 4.2 2.1l-1.3.7c-.6-.8-1.7-1.4-2.9-1.4c-2.2 0-3.9 1.7-3.9 4.1c0 2.3 1.7 4 3.9 4c1.2 0 2.2-.5 2.7-1c-.04-.01 0-1.9 0-1.9h-3.4V7h4.9s.05 3.88 0 3.9c-1 1.1-2.4 1.9-4.2 1.9c-3.1 0-5.5-2.2-5.5-5.5c0-3.3 2.4-5.5 5.5-5.5zm9.6 5.5c0-3.3 2.4-5.5 5.4-5.5c2.1 0 3.4 1 4.3 2.2l-1.4.7c-.6-.9-1.6-1.5-2.9-1.5c-2.1 0-3.7 1.7-3.7 4.1c0 2.3 1.6 4 3.7 4c1.3 0 2.3-.6 2.9-1.5l1.4.7c-.9 1.2-2.2 2.2-4.3 2.2c-3 0-5.4-2.2-5.4-5.4zm17.7 3.1h-5.2l-.8 2.1h-1.8L78 2h2l4.2 10.5h-1.7l-.9-2.1zm-4.7-1.5h4.3L79 3.3l-2.1 5.6zm10-4.5v8.1h-1.6V2h1.7l5.7 7.9V2h1.6v10.5h-1.5l-5.9-8.1zM96.5 2h7.1v1.3h-5.5v3.1h5.4v1.4h-5.4v3.3h5.5v1.4h-7.1V2zm8.7 3.1c.5-.3 1-.9 1.1-1.5c-.1.1-.2.1-.3.1c-.5 0-.8-.4-.8-.9c0-.6.4-1 .9-1c.6 0 1.2.5 1.2 1.3c0 1.1-.6 2-1.4 2.6l-.7-.6zm4.1 4.7c.7.8 1.9 1.5 3.4 1.5c1.7 0 2.3-.9 2.3-1.6c0-1.1-1.2-1.4-2.6-1.8c-1.7-.4-3.7-.9-3.7-3.1c0-1.7 1.6-3 3.8-3c1.6 0 2.9.5 3.9 1.5l-1 1.1c-.8-.8-1.9-1.2-3-1.2c-1.2 0-2 .6-2 1.5c0 1 1.1 1.3 2.4 1.6c1.8.4 3.8 1 3.8 3.2c0 1.7-1.2 3.2-4 3.2c-1.9 0-3.3-.6-4.2-1.6l.9-1.3z" stroke="none" fill="#3797ef"/></g></svg>