<?xml version="1.0" standalone="no"?><!DOCTYPE svg PUBLIC "-//W3C//DTD SVG 1.1//EN" "http://www.w3.org/Graphics/SVG/1.1/DTD/svg11.dtd"><svg xmlns="http://www.w3.org/2000/svg" version="1.1" width="155px" height="27.9px" viewBox="0 -6 155 27.9" style="top:-6px"><desc>BROKER OF RECORD</desc><defs/><g id="Polygon304776"><path d="m1.2 2s4.95-.05 4.9 0c1.9 0 3 1.1 3 2.7c0 1.3-.8 2.2-1.8 2.4c1.1.2 2 1.3 2 2.6c0 1.7-1.1 2.8-3 2.8c-.03.05-5.1 0-5.1 0V2zm4.6 4.4c1.1 0 1.7-.6 1.7-1.5c0-.9-.6-1.5-1.7-1.5c.04-.05-3 0-3 0v3s3.04.05 3 0zm.1 4.8c1.1 0 1.8-.7 1.8-1.7c0-.9-.6-1.7-1.8-1.7c.02.04-3.1 0-3.1 0v3.4s3.12-.05 3.1 0zm8.8-2.7h-2v4h-1.5V2s4.41-.05 4.4 0c2 0 3.4 1.3 3.4 3.2c0 1.9-1.3 2.9-2.6 3.1c-.02.01 2.7 4.2 2.7 4.2h-1.9l-2.5-4zm.7-5.1c.01-.05-2.7 0-2.7 0v3.7s2.71-.03 2.7 0c1.1 0 2-.8 2-1.9c0-1.1-.9-1.8-2-1.8zm10.3-1.6c3.2 0 5.3 2.3 5.3 5.5c0 3.1-2.1 5.4-5.3 5.4c-3.2 0-5.3-2.3-5.3-5.4c0-3.2 2.1-5.5 5.3-5.5zm0 1.4c-2.3 0-3.7 1.7-3.7 4.1c0 2.3 1.4 4 3.7 4c2.2 0 3.7-1.7 3.7-4c0-2.4-1.5-4.1-3.7-4.1zm9.7 4.7l-1 1.2v3.4h-1.6V2h1.6v5.2L38.8 2h2l-4.4 5l4.7 5.5h-1.9l-3.8-4.6zM42.3 2h7.2v1.4h-5.6v3h5.4v1.4h-5.4v3.4h5.6v1.3h-7.2V2zm12.6 6.5h-2v4h-1.6V2s4.45-.05 4.4 0c2.1 0 3.4 1.3 3.4 3.2c0 1.9-1.2 2.9-2.6 3.1l2.7 4.2h-1.8l-2.5-4zm.6-5.1c.04-.05-2.6 0-2.6 0v3.7s2.64-.03 2.6 0c1.2 0 2-.8 2-1.9c0-1.1-.8-1.8-2-1.8zm14.3-1.6c3.1 0 5.3 2.3 5.3 5.5c0 3.1-2.2 5.4-5.3 5.4c-3.2 0-5.4-2.3-5.4-5.4c0-3.2 2.2-5.5 5.4-5.5zm0 1.4c-2.3 0-3.7 1.7-3.7 4.1c0 2.3 1.4 4 3.7 4c2.2 0 3.7-1.7 3.7-4c0-2.4-1.5-4.1-3.7-4.1zM76.9 2h7.1v1.4h-5.5v3h5.4v1.4h-5.4v4.7h-1.6V2zm16.2 6.5h-2v4h-1.6V2s4.44-.05 4.4 0c2.1 0 3.4 1.3 3.4 3.2c0 1.9-1.2 2.9-2.6 3.1l2.7 4.2h-1.8l-2.5-4zm.6-5.1c.04-.05-2.6 0-2.6 0v3.7s2.64-.03 2.6 0c1.2 0 2-.8 2-1.9c0-1.1-.8-1.8-2-1.8zM99.1 2h7.2v1.4h-5.6v3h5.4v1.4h-5.4v3.4h5.6v1.3h-7.2V2zm8.5 5.3c0-3.3 2.4-5.5 5.5-5.5c2 0 3.3 1 4.2 2.2l-1.4.7c-.5-.9-1.6-1.5-2.8-1.5c-2.2 0-3.8 1.7-3.8 4.1c0 2.3 1.6 4 3.8 4c1.2 0 2.3-.6 2.8-1.5l1.4.7c-.9 1.2-2.2 2.2-4.2 2.2c-3.1 0-5.5-2.2-5.5-5.4zm16-5.5c3.2 0 5.3 2.3 5.3 5.5c0 3.1-2.1 5.4-5.3 5.4c-3.2 0-5.3-2.3-5.3-5.4c0-3.2 2.1-5.5 5.3-5.5zm0 1.4c-2.3 0-3.7 1.7-3.7 4.1c0 2.3 1.4 4 3.7 4c2.2 0 3.7-1.7 3.7-4c0-2.4-1.5-4.1-3.7-4.1zm10.7 5.3h-2v4h-1.6V2s4.46-.05 4.5 0c2 0 3.4 1.3 3.4 3.2c0 1.9-1.3 2.9-2.7 3.1c.02.01 2.7 4.2 2.7 4.2h-1.8l-2.5-4zm.7-5.1c-.05-.05-2.7 0-2.7 0v3.7s2.65-.03 2.7 0c1.1 0 1.9-.8 1.9-1.9c0-1.1-.8-1.8-1.9-1.8zm5.4-1.4s3.73-.05 3.7 0c3.3 0 5.5 2.2 5.5 5.3c0 3-2.2 5.2-5.5 5.2c.03.05-3.7 0-3.7 0V2zm3.7 9.2c2.5 0 3.9-1.8 3.9-3.9c0-2.2-1.4-3.9-3.9-3.9c.03-.05-2.2 0-2.2 0v7.8s2.23-.05 2.2 0z" stroke="none" fill="#3797ef"/></g></svg>