<?xml version="1.0" standalone="no"?><!DOCTYPE svg PUBLIC "-//W3C//DTD SVG 1.1//EN" "http://www.w3.org/Graphics/SVG/1.1/DTD/svg11.dtd"><svg xmlns="http://www.w3.org/2000/svg" version="1.1" width="181.2px" height="28.3px" viewBox="0 -6 181.2 28.3" style="top:-6px"><desc>Geographical Footprint</desc><defs/><g id="Polygon104741"><path d="m6.2 1.8c2 0 3.3.9 4.2 2.1l-1.3.7c-.6-.8-1.6-1.4-2.9-1.4c-2.2 0-3.8 1.7-3.8 4.1c0 2.3 1.6 4 3.8 4c1.2 0 2.2-.5 2.7-1V8.4H5.5V7h5v3.9c-1 1.1-2.5 1.9-4.3 1.9c-3 0-5.5-2.2-5.5-5.5C.7 4 3.2 1.8 6.2 1.8zm9.5 2.9c2.3 0 3.7 1.8 3.7 4.1c.04.03 0 .4 0 .4c0 0-6.03-.02-6 0c.1 1.3 1 2.4 2.6 2.4c.8 0 1.7-.4 2.2-.9l.7.9c-.7.7-1.8 1.1-3.1 1.1c-2.3 0-3.9-1.6-3.9-4c0-2.2 1.6-4 3.8-4zm-2.3 3.4h4.6c0-1-.7-2.2-2.3-2.2c-1.5 0-2.3 1.2-2.3 2.2zm7.2.6c0-2.2 1.5-4 3.9-4c2.4 0 3.8 1.8 3.8 4c0 2.2-1.4 4-3.8 4c-2.4 0-3.9-1.8-3.9-4zm6.3 0c0-1.4-.9-2.7-2.4-2.7c-1.6 0-2.4 1.3-2.4 2.7c0 1.5.8 2.8 2.4 2.8c1.5 0 2.4-1.3 2.4-2.8zm3.7 4.8c.7.7 1.4 1 2.5 1c1.2 0 2.4-.6 2.4-2.2v-1c-.6.8-1.5 1.3-2.6 1.3c-2 0-3.4-1.5-3.4-4c0-2.4 1.4-3.9 3.4-3.9c1 0 1.9.5 2.6 1.3c-.04-.01 0-1.1 0-1.1h1.4v7.3c0 2.7-1.9 3.5-3.8 3.5c-1.3 0-2.2-.3-3.2-1.2l.7-1zm4.9-6.4c-.4-.6-1.3-1.1-2.2-1.1C31.9 6 31 7.1 31 8.6c0 1.6.9 2.7 2.3 2.7c.9 0 1.8-.5 2.2-1.1V7.1zM39 4.9h1.4s.03 1.15 0 1.1c.6-.7 1.5-1.3 2.5-1.3v1.4h-.5c-.7 0-1.6.5-2 1.1c.03.01 0 5.3 0 5.3H39V4.9zm9.9 6.8c-.6.7-1.4 1-2.5 1c-1.2 0-2.6-.8-2.6-2.5c0-1.8 1.3-2.5 2.6-2.5c1.1 0 2 .3 2.5 1V7.4c0-.9-.7-1.5-1.8-1.5c-.9 0-1.7.3-2.3 1l-.7-1c.9-.8 2-1.2 3.2-1.2c1.7 0 3.1.7 3.1 2.7c-.03-.03 0 5.1 0 5.1h-1.5s.04-.8 0-.8zm0-2.1c-.4-.6-1.1-.9-1.9-.9c-1.1 0-1.8.6-1.8 1.5c0 .9.7 1.5 1.8 1.5c.8 0 1.5-.3 1.9-.8V9.6zm3.6 5.9V4.9h1.4s.03 1.07 0 1.1c.6-.8 1.5-1.3 2.5-1.3c2 0 3.5 1.5 3.5 4c0 2.5-1.5 4-3.5 4c-1 0-1.9-.4-2.5-1.3c.03.03 0 4.1 0 4.1h-1.4zM56.1 6c-.9 0-1.8.5-2.2 1.1v3.2c.4.6 1.3 1.2 2.2 1.2c1.4 0 2.3-1.2 2.3-2.8c0-1.6-.9-2.7-2.3-2.7zm10.6 1.6C66.7 6.3 66 6 65 6c-.8 0-1.7.5-2.1 1.1c.03-.03 0 5.4 0 5.4h-1.4V2h1.4s.03 3.95 0 4c.5-.7 1.6-1.3 2.7-1.3c1.7 0 2.5.8 2.5 2.4v5.4h-1.4s-.02-4.89 0-4.9zM70 2.7c0-.5.4-.9.9-.9c.5 0 1 .4 1 .9c0 .5-.5.9-1 .9c-.5 0-.9-.4-.9-.9zm.2 2.2h1.5v7.6h-1.5V4.9zm7-.2c1.5 0 2.3.6 2.9 1.3l-1 .9c-.4-.6-1.1-.9-1.8-.9c-1.5 0-2.5 1.1-2.5 2.7c0 1.6 1 2.8 2.5 2.8c.7 0 1.4-.4 1.8-1l1 .9c-.6.7-1.4 1.3-2.9 1.3c-2.3 0-3.9-1.7-3.9-4c0-2.3 1.6-4 3.9-4zm9 7c-.6.7-1.4 1-2.5 1c-1.3 0-2.6-.8-2.6-2.5c0-1.8 1.3-2.5 2.6-2.5c1.1 0 1.9.3 2.5 1V7.4c0-.9-.8-1.5-1.8-1.5c-.9 0-1.7.3-2.3 1l-.7-1c.9-.8 1.9-1.2 3.2-1.2c1.6 0 3.1.7 3.1 2.7c-.04-.03 0 5.1 0 5.1h-1.5s.03-.8 0-.8zm0-2.1c-.4-.6-1.1-.9-1.9-.9c-1.1 0-1.8.6-1.8 1.5c0 .9.7 1.5 1.8 1.5c.8 0 1.5-.3 1.9-.8V9.6zM89.8 2h1.4v10.5h-1.4V2zm7.5 0h7.1v1.3h-5.5v3.1h5.4v1.4h-5.4v4.7h-1.6V2zm8.2 6.7c0-2.2 1.4-4 3.8-4c2.4 0 3.9 1.8 3.9 4c0 2.2-1.5 4-3.9 4c-2.4 0-3.8-1.8-3.8-4zm6.2 0c0-1.4-.8-2.7-2.4-2.7c-1.5 0-2.4 1.3-2.4 2.7c0 1.5.9 2.8 2.4 2.8c1.6 0 2.4-1.3 2.4-2.8zm2.7 0c0-2.2 1.5-4 3.9-4c2.4 0 3.8 1.8 3.8 4c0 2.2-1.4 4-3.8 4c-2.4 0-3.9-1.8-3.9-4zm6.2 0c0-1.4-.8-2.7-2.3-2.7c-1.6 0-2.4 1.3-2.4 2.7c0 1.5.8 2.8 2.4 2.8c1.5 0 2.3-1.3 2.3-2.8zm3.5 2.1c-.03.05 0-4.7 0-4.7h-1.3V4.9h1.3V2.8h1.4v2.1h1.6v1.2h-1.6v4.4c0 .6.3 1 .7 1c.4 0 .7-.2.8-.3l.4 1c-.3.3-.8.5-1.5.5c-1.2 0-1.8-.6-1.8-1.9zm4.4 4.7V4.9h1.4s.01 1.07 0 1.1c.6-.8 1.5-1.3 2.5-1.3c2 0 3.4 1.5 3.4 4c0 2.5-1.4 4-3.4 4c-1 0-1.9-.4-2.5-1.3v4.1h-1.4zM132 6c-.8 0-1.7.5-2.1 1.1v3.2c.4.6 1.3 1.2 2.1 1.2c1.5 0 2.3-1.2 2.3-2.8c0-1.6-.8-2.7-2.3-2.7zm5.5-1.1h1.4s.02 1.15 0 1.1c.6-.7 1.5-1.3 2.5-1.3v1.4h-.5c-.7 0-1.7.5-2 1.1c.02.01 0 5.3 0 5.3h-1.4V4.9zm5-2.2c0-.5.4-.9.9-.9c.5 0 .9.4.9.9c0 .5-.4.9-.9.9c-.5 0-.9-.4-.9-.9zm.2 2.2h1.4v7.6h-1.4V4.9zm8.7 2.7c0-1.2-.6-1.6-1.6-1.6c-.9 0-1.7.5-2.1 1.1c-.03-.03 0 5.4 0 5.4h-1.5V4.9h1.5s-.03 1.05 0 1.1c.5-.7 1.5-1.3 2.7-1.3c1.6 0 2.4.8 2.4 2.5c.04-.04 0 5.3 0 5.3h-1.4V7.6zm3.8 3.2c.04.05 0-4.7 0-4.7H154V4.9h1.2V2.8h1.5v2.1h1.5v1.2h-1.5s-.03 4.43 0 4.4c0 .6.2 1 .7 1c.3 0 .7-.2.8-.3l.4 1c-.3.3-.8.5-1.5.5c-1.2 0-1.9-.6-1.9-1.9z" stroke="none" fill="#3797ef"/></g></svg>