<?xml version="1.0" standalone="no"?><!DOCTYPE svg PUBLIC "-//W3C//DTD SVG 1.1//EN" "http://www.w3.org/Graphics/SVG/1.1/DTD/svg11.dtd"><svg xmlns="http://www.w3.org/2000/svg" version="1.1" width="156px" height="24.9px" viewBox="0 -5 156 24.9" style="top:-5px"><desc>Connect With Us</desc><defs/><g id="Polygon62586"><path d="m27.5 6.4c0-2.9 2.1-4.8 4.7-4.8c1.9 0 3 .8 3.8 1.9l-1.2.7c-.5-.8-1.5-1.4-2.6-1.4c-1.8 0-3.3 1.5-3.3 3.6c0 2.1 1.5 3.6 3.3 3.6c1.1 0 2.1-.6 2.6-1.4l1.2.7c-.8 1-1.9 1.9-3.8 1.9c-2.6 0-4.7-1.9-4.7-4.8zm9.3 1.3c0-2 1.3-3.6 3.4-3.6c2.1 0 3.4 1.6 3.4 3.6c0 1.9-1.3 3.5-3.4 3.5c-2.1 0-3.4-1.6-3.4-3.5zm5.5 0c0-1.3-.8-2.5-2.1-2.5c-1.4 0-2.1 1.2-2.1 2.5c0 1.3.7 2.4 2.1 2.4c1.3 0 2.1-1.1 2.1-2.4zm7.3-1c0-1.1-.6-1.5-1.4-1.5c-.8 0-1.5.5-1.9 1v4.9h-1.2V4.3h1.2s.01.95 0 .9c.5-.5 1.4-1.1 2.4-1.1c1.4 0 2.2.8 2.2 2.2c-.02.01 0 4.8 0 4.8h-1.3s.02-4.37 0-4.4zm7.7 0c0-1.1-.6-1.5-1.4-1.5c-.8 0-1.5.5-1.9 1v4.9h-1.3V4.3h1.3v.9c.4-.5 1.3-1.1 2.4-1.1c1.4 0 2.2.8 2.2 2.2c-.04.01 0 4.8 0 4.8h-1.3V6.7zm6.1-2.6c2 0 3.3 1.6 3.3 3.7c-.02-.02 0 .3 0 .3h-5.4c.1 1.1 1 2.1 2.3 2.1c.7 0 1.5-.3 2-.8l.6.8c-.7.7-1.6 1-2.7 1c-2 0-3.5-1.4-3.5-3.5c0-2 1.4-3.6 3.4-3.6zm-2.1 3.1h4.2c-.1-.9-.7-2-2.1-2c-1.4 0-2 1.1-2.1 2zm9.8-3.1c1.3 0 2.1.6 2.6 1.2l-.9.8c-.4-.6-.9-.9-1.6-.9c-1.3 0-2.2 1.1-2.2 2.5c0 1.4.9 2.4 2.2 2.4c.7 0 1.2-.3 1.6-.8l.9.7c-.5.7-1.3 1.2-2.6 1.2c-2 0-3.4-1.5-3.4-3.5c0-2.1 1.4-3.6 3.4-3.6zm4.1 5.5c-.02-.04 0-4.2 0-4.2h-1.1V4.3h1.1V2.5h1.2v1.8h1.4v1.1h-1.4s.04 3.88 0 3.9c0 .5.3.8.7.8c.3 0 .6-.1.7-.3l.3 1c-.3.2-.7.4-1.3.4c-1.1 0-1.6-.6-1.6-1.6zm12.6-5.7l-2 7.2h-1.4l-2.7-9.4h1.5l2 7.5l2-7.5h1.2l2 7.5l1.9-7.5h1.6l-2.7 9.4h-1.5l-1.9-7.2zm6.9-1.5c0-.5.4-.8.8-.8c.5 0 .8.3.8.8c0 .4-.3.8-.8.8c-.4 0-.8-.4-.8-.8zm.2 1.9h1.3v6.8h-1.3V4.3zm3.4 5.3c-.02-.04 0-4.2 0-4.2h-1.1V4.3h1.1V2.5h1.2v1.8h1.4v1.1h-1.4s.04 3.88 0 3.9c0 .5.3.8.7.8c.3 0 .6-.1.7-.3l.3 1c-.3.2-.7.4-1.3.4c-1.1 0-1.6-.6-1.6-1.6zm8.4-2.9c0-1.1-.5-1.5-1.4-1.5c-.8 0-1.5.5-1.9 1c.03.03 0 4.9 0 4.9h-1.2V1.7h1.2s.03 3.55 0 3.5c.5-.5 1.4-1.1 2.4-1.1c1.5 0 2.2.8 2.2 2.2v4.8h-1.3s.04-4.39 0-4.4zm6.7-5h1.4v5.7c0 1.6.9 2.6 2.5 2.6c1.6 0 2.5-1 2.5-2.6V1.7h1.4s.03 5.69 0 5.7c0 2.3-1.3 3.8-3.9 3.8c-2.6 0-3.9-1.5-3.9-3.8c-.03.01 0-5.7 0-5.7zm9.8 7.6c.4.5 1.3.9 2.2.9c1 0 1.5-.4 1.5-.9c0-.7-.8-.9-1.7-1.1c-1.1-.3-2.4-.6-2.4-2.1c0-1 .9-2 2.5-2c1.2 0 2 .5 2.6 1l-.6.9c-.3-.5-1.1-.8-2-.8c-.8 0-1.3.3-1.3.8c0 .6.7.8 1.5 1c1.2.3 2.6.6 2.6 2.2c0 1.1-1 2-2.7 2c-1.2 0-2.2-.3-2.8-1l.6-.9z" stroke="none" fill="#888888"/></g></svg>