<?xml version="1.0" standalone="no"?>
<!DOCTYPE svg PUBLIC "-//W3C//DTD SVG 1.1//EN" "http://www.w3.org/Graphics/SVG/1.1/DTD/svg11.dtd">
<svg xmlns="http://www.w3.org/2000/svg" version="1.1" width="62px" height="16.9px" viewBox="0 -4 62 16.9" style="top:-4px">
  <desc>Tenant</desc>
  <defs/>
  <g id="Polygon266754">
    <path d="M 2.1 1.9 L 0.3 1.9 L 0.3 1.1 L 4.9 1.1 L 4.9 1.9 L 3 1.9 L 3 7.1 L 2.1 7.1 L 2.1 1.9 Z M 6.7 2.7 C 8 2.7 8.8 3.7 8.8 5 C 8.84 5 8.8 5.2 8.8 5.2 C 8.8 5.2 5.4 5.2 5.4 5.2 C 5.5 5.9 6 6.6 6.9 6.6 C 7.3 6.6 7.8 6.4 8.2 6 C 8.2 6 8.5 6.6 8.5 6.6 C 8.1 7 7.5 7.2 6.8 7.2 C 5.5 7.2 4.5 6.3 4.5 4.9 C 4.5 3.7 5.5 2.7 6.7 2.7 Z M 5.4 4.6 C 5.4 4.6 8 4.6 8 4.6 C 8 4 7.6 3.3 6.7 3.3 C 5.8 3.3 5.4 4 5.4 4.6 Z M 12.8 4.3 C 12.8 3.6 12.4 3.4 11.9 3.4 C 11.4 3.4 10.9 3.7 10.7 4 C 10.66 4 10.7 7.1 10.7 7.1 L 9.9 7.1 L 9.9 2.8 L 10.7 2.8 C 10.7 2.8 10.66 3.37 10.7 3.4 C 11 3 11.5 2.7 12.2 2.7 C 13.1 2.7 13.6 3.1 13.6 4.1 C 13.6 4.06 13.6 7.1 13.6 7.1 L 12.8 7.1 C 12.8 7.1 12.79 4.33 12.8 4.3 Z M 17.6 6.6 C 17.2 7 16.7 7.2 16.1 7.2 C 15.4 7.2 14.6 6.7 14.6 5.8 C 14.6 4.8 15.4 4.4 16.1 4.4 C 16.7 4.4 17.2 4.5 17.6 4.9 C 17.6 4.9 17.6 4.2 17.6 4.2 C 17.6 3.7 17.1 3.3 16.5 3.3 C 16 3.3 15.6 3.5 15.2 3.9 C 15.2 3.9 14.9 3.4 14.9 3.4 C 15.3 2.9 15.9 2.7 16.6 2.7 C 17.6 2.7 18.4 3.1 18.4 4.2 C 18.38 4.18 18.4 7.1 18.4 7.1 L 17.6 7.1 C 17.6 7.1 17.57 6.63 17.6 6.6 Z M 17.6 5.4 C 17.3 5.1 16.9 4.9 16.5 4.9 C 15.9 4.9 15.5 5.3 15.5 5.8 C 15.5 6.3 15.9 6.7 16.5 6.7 C 16.9 6.7 17.3 6.5 17.6 6.2 C 17.6 6.2 17.6 5.4 17.6 5.4 Z M 22.6 4.3 C 22.6 3.6 22.2 3.4 21.7 3.4 C 21.2 3.4 20.7 3.7 20.5 4 C 20.48 4 20.5 7.1 20.5 7.1 L 19.7 7.1 L 19.7 2.8 L 20.5 2.8 C 20.5 2.8 20.48 3.37 20.5 3.4 C 20.8 3 21.3 2.7 22 2.7 C 22.9 2.7 23.4 3.1 23.4 4.1 C 23.42 4.06 23.4 7.1 23.4 7.1 L 22.6 7.1 C 22.6 7.1 22.61 4.33 22.6 4.3 Z M 24.9 6.1 C 24.87 6.15 24.9 3.5 24.9 3.5 L 24.1 3.5 L 24.1 2.8 L 24.9 2.8 L 24.9 1.6 L 25.7 1.6 L 25.7 2.8 L 26.6 2.8 L 26.6 3.5 L 25.7 3.5 C 25.7 3.5 25.68 5.97 25.7 6 C 25.7 6.3 25.8 6.5 26.1 6.5 C 26.3 6.5 26.5 6.4 26.5 6.3 C 26.5 6.3 26.7 6.9 26.7 6.9 C 26.6 7.1 26.3 7.2 25.9 7.2 C 25.2 7.2 24.9 6.8 24.9 6.1 Z " stroke="none" fill="#000"/>
  </g>
</svg>