<?xml version="1.0" standalone="no"?>
<!DOCTYPE svg PUBLIC "-//W3C//DTD SVG 1.1//EN" "http://www.w3.org/Graphics/SVG/1.1/DTD/svg11.dtd">
<svg xmlns="http://www.w3.org/2000/svg" version="1.1" width="48px" height="36.9px" viewBox="0 -6 48 36.9" style="top:-6px">
  <desc>Agent 1</desc>
  <defs/>
  <g id="Polygon205509">
    <path d="M 0.7 19.1 C 0.7 19.1 3.2 19.08 3.2 19.1 C 4.4 19.1 5.1 19.9 5.1 20.9 C 5.1 21.9 4.4 22.8 3.2 22.8 C 3.2 22.77 1.6 22.8 1.6 22.8 L 1.6 25.1 L 0.7 25.1 L 0.7 19.1 Z M 3.1 19.9 C 3.08 19.87 1.6 19.9 1.6 19.9 L 1.6 22 C 1.6 22 3.08 21.98 3.1 22 C 3.7 22 4.2 21.6 4.2 20.9 C 4.2 20.3 3.7 19.9 3.1 19.9 Z M 5.9 20.7 L 6.7 20.7 C 6.7 20.7 6.74 21.4 6.7 21.4 C 7.1 21 7.6 20.6 8.2 20.6 C 8.2 20.6 8.2 21.5 8.2 21.5 C 8.1 21.4 8 21.4 7.9 21.4 C 7.5 21.4 6.9 21.7 6.7 22.1 C 6.74 22.06 6.7 25.1 6.7 25.1 L 5.9 25.1 L 5.9 20.7 Z M 8.8 19.5 C 8.8 19.2 9 19 9.3 19 C 9.6 19 9.8 19.2 9.8 19.5 C 9.8 19.8 9.6 20 9.3 20 C 9 20 8.8 19.8 8.8 19.5 Z M 8.9 20.7 L 9.7 20.7 L 9.7 25.1 L 8.9 25.1 L 8.9 20.7 Z M 12.8 20.6 C 13.7 20.6 14.1 21 14.5 21.4 C 14.5 21.4 13.9 21.9 13.9 21.9 C 13.7 21.5 13.3 21.4 12.9 21.4 C 12 21.4 11.5 22 11.5 22.9 C 11.5 23.8 12 24.5 12.9 24.5 C 13.3 24.5 13.7 24.3 13.9 23.9 C 13.9 23.9 14.5 24.4 14.5 24.4 C 14.1 24.9 13.7 25.2 12.8 25.2 C 11.5 25.2 10.6 24.2 10.6 22.9 C 10.6 21.6 11.5 20.6 12.8 20.6 Z M 17.2 20.6 C 18.5 20.6 19.3 21.6 19.3 23 C 19.29 22.98 19.3 23.2 19.3 23.2 C 19.3 23.2 15.85 23.18 15.8 23.2 C 15.9 23.9 16.5 24.5 17.3 24.5 C 17.8 24.5 18.3 24.3 18.6 24 C 18.6 24 19 24.5 19 24.5 C 18.6 25 17.9 25.2 17.2 25.2 C 15.9 25.2 15 24.3 15 22.9 C 15 21.6 15.9 20.6 17.2 20.6 Z M 15.8 22.6 C 15.8 22.6 18.5 22.6 18.5 22.6 C 18.5 22 18.1 21.3 17.2 21.3 C 16.3 21.3 15.9 22 15.8 22.6 Z M 23.9 18.9 L 24.6 18.9 L 22.4 25.3 L 21.8 25.3 L 23.9 18.9 Z M 27.5 23.5 C 27.9 24 28.6 24.4 29.4 24.4 C 30.4 24.4 30.7 23.9 30.7 23.5 C 30.7 22.8 30 22.7 29.3 22.5 C 28.3 22.2 27.2 21.9 27.2 20.7 C 27.2 19.7 28.1 19 29.3 19 C 30.2 19 31 19.3 31.5 19.8 C 31.5 19.8 31 20.5 31 20.5 C 30.5 20 29.9 19.8 29.2 19.8 C 28.6 19.8 28.1 20.1 28.1 20.6 C 28.1 21.2 28.8 21.4 29.5 21.5 C 30.5 21.8 31.6 22.1 31.6 23.4 C 31.6 24.3 31 25.2 29.4 25.2 C 28.3 25.2 27.5 24.8 27 24.2 C 27 24.2 27.5 23.5 27.5 23.5 Z M 32.6 19.1 L 36.6 19.1 L 36.6 19.9 L 33.5 19.9 L 33.5 21.6 L 36.5 21.6 L 36.5 22.4 L 33.5 22.4 L 33.5 25.1 L 32.6 25.1 L 32.6 19.1 Z " stroke="none" fill="#3797ef"/>
  </g>
  <g id="Polygon205508">
    <path d="M 6.1 9.3 C 6.1 9.3 6.1 10.9 6.1 10.9 C 6.1 12.3 5.4 13 4.2 13.1 C 4.19 13.15 4.2 14.3 4.2 14.3 L 2.5 14.3 C 2.5 14.3 2.54 13.17 2.5 13.2 C 1.3 13 0.6 12.3 0.6 10.9 C 0.58 10.88 0.6 8.9 0.6 8.9 L 2.4 8.9 C 2.4 8.9 2.4 10.62 2.4 10.6 C 2.4 11.3 2.8 11.6 3.4 11.6 C 3.9 11.6 4.3 11.3 4.3 10.6 C 4.3 10.6 4.3 9.7 4.3 9.7 C 4.3 9.2 4.1 8.9 3.6 8.6 C 3.6 8.6 2.3 7.8 2.3 7.8 C 1.2 7.2 0.6 6.7 0.6 5.5 C 0.6 5.5 0.6 4.1 0.6 4.1 C 0.6 2.7 1.4 2 2.5 1.8 C 2.54 1.82 2.5 0.6 2.5 0.6 L 4.2 0.6 C 4.2 0.6 4.19 1.82 4.2 1.8 C 5.3 2 6.1 2.7 6.1 4.1 C 6.11 4.06 6.1 5.9 6.1 5.9 L 4.3 5.9 C 4.3 5.9 4.29 4.32 4.3 4.3 C 4.3 3.6 3.9 3.4 3.3 3.4 C 2.8 3.4 2.4 3.6 2.4 4.3 C 2.4 4.3 2.4 5.1 2.4 5.1 C 2.4 5.7 2.6 5.9 3.1 6.2 C 3.1 6.2 4.4 7 4.4 7 C 5.5 7.6 6.1 8.1 6.1 9.3 Z M 12.8 4.1 C 12.8 4.1 12.8 10.8 12.8 10.8 C 12.8 12.5 11.8 13.2 10.1 13.2 C 10.1 13.2 10 13.2 10 13.2 C 8.3 13.2 7.3 12.5 7.3 10.8 C 7.3 10.8 7.3 4.1 7.3 4.1 C 7.3 2.4 8.3 1.8 10 1.8 C 10 1.8 10.1 1.8 10.1 1.8 C 11.8 1.8 12.8 2.4 12.8 4.1 Z M 10 3.4 C 9.4 3.4 9.1 3.6 9.1 4.4 C 9.1 4.4 9.1 10.6 9.1 10.6 C 9.1 11.4 9.4 11.6 10 11.6 C 10.6 11.6 11 11.4 11 10.6 C 11 10.6 11 4.4 11 4.4 C 11 3.6 10.6 3.4 10 3.4 Z M 15.8 12.6 C 15.8 13.6 15.3 14.6 14.8 15.2 C 14.8 15.2 14.1 14.8 14.1 14.8 C 14.4 14.3 14.8 13.6 14.8 13.1 C 14.83 13.09 14 13.1 14 13.1 L 14 11 L 15.8 11 C 15.8 11 15.81 12.61 15.8 12.6 Z M 22.5 4.1 C 22.5 4.1 22.5 10.8 22.5 10.8 C 22.5 12.5 21.5 13.2 19.8 13.2 C 19.8 13.2 19.7 13.2 19.7 13.2 C 18 13.2 17 12.5 17 10.8 C 17 10.8 17 4.1 17 4.1 C 17 2.4 18 1.8 19.7 1.8 C 19.7 1.8 19.8 1.8 19.8 1.8 C 21.5 1.8 22.5 2.4 22.5 4.1 Z M 19.8 3.4 C 19.2 3.4 18.8 3.6 18.8 4.4 C 18.8 4.4 18.8 10.6 18.8 10.6 C 18.8 11.4 19.2 11.6 19.8 11.6 C 20.4 11.6 20.7 11.4 20.7 10.6 C 20.7 10.6 20.7 4.4 20.7 4.4 C 20.7 3.6 20.4 3.4 19.8 3.4 Z M 29.3 4.1 C 29.3 4.1 29.3 10.8 29.3 10.8 C 29.3 12.5 28.3 13.2 26.7 13.2 C 26.7 13.2 26.5 13.2 26.5 13.2 C 24.8 13.2 23.8 12.5 23.8 10.8 C 23.8 10.8 23.8 4.1 23.8 4.1 C 23.8 2.4 24.8 1.8 26.5 1.8 C 26.5 1.8 26.7 1.8 26.7 1.8 C 28.3 1.8 29.3 2.4 29.3 4.1 Z M 26.6 3.4 C 26 3.4 25.6 3.6 25.6 4.4 C 25.6 4.4 25.6 10.6 25.6 10.6 C 25.6 11.4 26 11.6 26.6 11.6 C 27.2 11.6 27.6 11.4 27.6 10.6 C 27.6 10.6 27.6 4.4 27.6 4.4 C 27.6 3.6 27.2 3.4 26.6 3.4 Z M 36.2 4.1 C 36.2 4.1 36.2 10.8 36.2 10.8 C 36.2 12.5 35.2 13.2 33.5 13.2 C 33.5 13.2 33.3 13.2 33.3 13.2 C 31.7 13.2 30.7 12.5 30.7 10.8 C 30.7 10.8 30.7 4.1 30.7 4.1 C 30.7 2.4 31.7 1.8 33.3 1.8 C 33.3 1.8 33.5 1.8 33.5 1.8 C 35.2 1.8 36.2 2.4 36.2 4.1 Z M 33.4 3.4 C 32.8 3.4 32.4 3.6 32.4 4.4 C 32.4 4.4 32.4 10.6 32.4 10.6 C 32.4 11.4 32.8 11.6 33.4 11.6 C 34 11.6 34.4 11.4 34.4 10.6 C 34.4 10.6 34.4 4.4 34.4 4.4 C 34.4 3.6 34 3.4 33.4 3.4 Z " stroke="none" fill="#282828"/>
  </g>
</svg>