<?xml version="1.0" standalone="no"?>
<!DOCTYPE svg PUBLIC "-//W3C//DTD SVG 1.1//EN" "http://www.w3.org/Graphics/SVG/1.1/DTD/svg11.dtd">
<svg xmlns="http://www.w3.org/2000/svg" version="1.1" width="23.3px" height="218.9px" viewBox="0 -6 23.3 218.9" style="top:-6px">
  <desc>03 04 05 07 08 09 10</desc>
  <defs/>
  <g id="Polygon264826">
    <path d="M 3.1 195 L 1.3 196.8 L 0.2 195.6 L 3.3 192.5 L 4.9 192.5 L 4.9 203.1 L 3.1 203.1 L 3.1 195 Z M 10.8 192.4 C 13.7 192.4 15 195.2 15 197.8 C 15 200.5 13.7 203.3 10.8 203.3 C 7.8 203.3 6.5 200.5 6.5 197.8 C 6.5 195.2 7.8 192.4 10.8 192.4 Z M 10.8 194 C 9 194 8.4 195.8 8.4 197.8 C 8.4 199.9 9 201.7 10.8 201.7 C 12.5 201.7 13.1 199.9 13.1 197.8 C 13.1 195.8 12.5 194 10.8 194 Z " stroke="none" fill="#88898a"/>
  </g>
  <g id="Polygon264825">
    <path d="M 4.9 160.6 C 7.9 160.6 9.1 163.4 9.1 166.1 C 9.1 168.8 7.9 171.6 4.9 171.6 C 1.9 171.6 0.7 168.8 0.7 166.1 C 0.7 163.4 1.9 160.6 4.9 160.6 Z M 4.9 162.3 C 3.2 162.3 2.5 164.1 2.5 166.1 C 2.5 168.1 3.2 169.9 4.9 169.9 C 6.6 169.9 7.2 168.1 7.2 166.1 C 7.2 164.1 6.6 162.3 4.9 162.3 Z M 11.7 169 C 12.2 169.5 12.8 169.9 13.8 169.9 C 15.8 169.9 16.6 168.1 16.6 166.4 C 16.6 166.4 16.6 166.1 16.6 166.1 C 16.1 166.8 15 167.6 13.8 167.6 C 11.9 167.6 10.2 166.4 10.2 164.2 C 10.2 162.2 11.8 160.6 14.1 160.6 C 17.2 160.6 18.5 163.1 18.5 166.1 C 18.5 169.1 16.9 171.5 13.8 171.5 C 12.5 171.5 11.5 171.1 10.8 170.4 C 10.8 170.4 11.7 169 11.7 169 Z M 14.2 162.3 C 12.8 162.3 12.1 163.3 12.1 164.1 C 12.1 165.4 13.1 166 14.3 166 C 15.2 166 16.1 165.5 16.6 164.7 C 16.5 163.6 15.9 162.3 14.2 162.3 Z " stroke="none" fill="#88898a"/>
  </g>
  <g id="Polygon264824">
    <path d="M 4.9 128.9 C 7.9 128.9 9.1 131.6 9.1 134.3 C 9.1 137 7.9 139.8 4.9 139.8 C 1.9 139.8 0.7 137 0.7 134.3 C 0.7 131.6 1.9 128.9 4.9 128.9 Z M 4.9 130.5 C 3.2 130.5 2.5 132.3 2.5 134.3 C 2.5 136.3 3.2 138.1 4.9 138.1 C 6.6 138.1 7.2 136.3 7.2 134.3 C 7.2 132.3 6.6 130.5 4.9 130.5 Z M 12.7 134.1 C 11.5 133.8 10.5 133 10.5 131.6 C 10.5 129.7 12.5 128.9 14.4 128.9 C 16.2 128.9 18.2 129.7 18.2 131.6 C 18.2 133 17.2 133.8 16 134.1 C 17.3 134.6 18.4 135.5 18.4 136.9 C 18.4 138.8 16.5 139.8 14.4 139.8 C 12.2 139.8 10.3 138.8 10.3 136.9 C 10.3 135.5 11.4 134.6 12.7 134.1 Z M 14.4 130.5 C 13.2 130.5 12.3 131 12.3 131.9 C 12.3 132.9 13.7 133.3 14.4 133.4 C 15 133.3 16.4 132.9 16.4 131.9 C 16.4 131 15.5 130.5 14.4 130.5 Z M 14.4 135 C 13.7 135.1 12.2 135.6 12.2 136.7 C 12.2 137.6 13.2 138.1 14.4 138.1 C 15.5 138.1 16.5 137.6 16.5 136.7 C 16.5 135.6 15 135.1 14.4 135 Z " stroke="none" fill="#88898a"/>
  </g>
  <g id="Polygon264823">
    <path d="M 4.9 97.1 C 7.9 97.1 9.1 99.9 9.1 102.6 C 9.1 105.2 7.9 108 4.9 108 C 1.9 108 0.7 105.2 0.7 102.6 C 0.7 99.9 1.9 97.1 4.9 97.1 Z M 4.9 98.7 C 3.2 98.7 2.5 100.5 2.5 102.6 C 2.5 104.6 3.2 106.4 4.9 106.4 C 6.6 106.4 7.2 104.6 7.2 102.6 C 7.2 100.5 6.6 98.7 4.9 98.7 Z M 15.5 98.9 L 10.1 98.9 L 10.1 97.2 L 17.7 97.2 L 17.7 98.5 L 13.6 107.8 L 11.5 107.8 L 15.5 98.9 Z " stroke="none" fill="#88898a"/>
  </g>
  <g id="Polygon264822">
    <path d="M 4.9 65.3 C 7.9 65.3 9.1 68.1 9.1 70.8 C 9.1 73.5 7.9 76.3 4.9 76.3 C 1.9 76.3 0.7 73.5 0.7 70.8 C 0.7 68.1 1.9 65.3 4.9 65.3 Z M 4.9 67 C 3.2 67 2.5 68.8 2.5 70.8 C 2.5 72.8 3.2 74.6 4.9 74.6 C 6.6 74.6 7.2 72.8 7.2 70.8 C 7.2 68.8 6.6 67 4.9 67 Z M 11.6 73.4 C 12.3 74.2 13.2 74.6 14.4 74.6 C 15.8 74.6 16.6 73.8 16.6 72.8 C 16.6 71.6 15.8 70.9 14.5 70.9 C 13.6 70.9 12.8 71.2 12.2 71.8 C 12.17 71.79 10.8 71.4 10.8 71.4 L 10.8 65.5 L 17.8 65.5 L 17.8 67.1 L 12.7 67.1 C 12.7 67.1 12.7 70.18 12.7 70.2 C 13.2 69.7 14.1 69.3 15.1 69.3 C 16.9 69.3 18.5 70.5 18.5 72.7 C 18.5 74.9 16.8 76.3 14.5 76.3 C 12.6 76.3 11.4 75.6 10.5 74.6 C 10.5 74.6 11.6 73.4 11.6 73.4 Z " stroke="none" fill="#88898a"/>
  </g>
  <g id="Polygon264821">
    <path d="M 4.9 33.6 C 7.9 33.6 9.1 36.4 9.1 39 C 9.1 41.7 7.9 44.5 4.9 44.5 C 1.9 44.5 0.7 41.7 0.7 39 C 0.7 36.4 1.9 33.6 4.9 33.6 Z M 4.9 35.2 C 3.2 35.2 2.5 37 2.5 39 C 2.5 41 3.2 42.9 4.9 42.9 C 6.6 42.9 7.2 41 7.2 39 C 7.2 37 6.6 35.2 4.9 35.2 Z M 15.1 41.9 L 10.1 41.9 L 10.1 40.4 L 14.4 33.7 L 17 33.7 L 17 40.3 L 18.4 40.3 L 18.4 41.9 L 17 41.9 L 17 44.3 L 15.1 44.3 L 15.1 41.9 Z M 11.9 40.3 L 15.1 40.3 L 15.1 35.4 L 11.9 40.3 Z " stroke="none" fill="#88898a"/>
  </g>
  <g id="Polygon264820">
    <path d="M 4.9 1.8 C 7.9 1.8 9.1 4.6 9.1 7.3 C 9.1 9.9 7.9 12.7 4.9 12.7 C 1.9 12.7 0.7 9.9 0.7 7.3 C 0.7 4.6 1.9 1.8 4.9 1.8 Z M 4.9 3.4 C 3.2 3.4 2.5 5.2 2.5 7.3 C 2.5 9.3 3.2 11.1 4.9 11.1 C 6.6 11.1 7.2 9.3 7.2 7.3 C 7.2 5.2 6.6 3.4 4.9 3.4 Z M 11 9.8 C 11.7 10.6 12.8 11.1 13.9 11.1 C 15.3 11.1 16.2 10.5 16.2 9.5 C 16.2 8.4 15.3 8 13.8 8 C 13.4 8 12.7 8 12.6 8 C 12.6 8 12.6 6.3 12.6 6.3 C 12.8 6.3 13.4 6.3 13.8 6.3 C 15 6.3 16 5.9 16 4.9 C 16 4 15 3.4 13.8 3.4 C 12.8 3.4 11.9 3.9 11.1 4.6 C 11.1 4.6 10.1 3.5 10.1 3.5 C 11 2.5 12.2 1.8 14 1.8 C 16.3 1.8 17.8 2.9 17.8 4.7 C 17.8 6.1 16.6 6.9 15.5 7.1 C 16.6 7.2 18 8 18 9.7 C 18 11.5 16.5 12.7 14 12.7 C 12.1 12.7 10.7 12 10 11 C 10 11 11 9.8 11 9.8 Z " stroke="none" fill="#88898a"/>
  </g>
</svg>