<?xml version="1.0" standalone="no"?><!DOCTYPE svg PUBLIC "-//W3C//DTD SVG 1.1//EN" "http://www.w3.org/Graphics/SVG/1.1/DTD/svg11.dtd"><svg xmlns="http://www.w3.org/2000/svg" version="1.1" width="89.3px" height="16.9px" viewBox="0 -4 89.3 16.9" style="top:-4px"><desc>Years in Business</desc><defs/><g id="Polygon286425"><path d="m2.4 4.6L0 1.1h1.1l1.7 2.7l1.8-2.7h1L3.3 4.6v2.5h-.9V4.6zm4.7-1.9c1.3 0 2.1 1 2.1 2.3c.02 0 0 .2 0 .2H5.8c0 .7.6 1.4 1.5 1.4c.4 0 .9-.2 1.3-.6l.3.6c-.4.4-1 .6-1.7.6c-1.3 0-2.3-.9-2.3-2.3c0-1.2.9-2.2 2.2-2.2zM5.8 4.6h2.6c0-.6-.4-1.3-1.3-1.3c-.9 0-1.3.7-1.3 1.3zm7.1 2c-.3.4-.8.6-1.4.6c-.7 0-1.5-.5-1.5-1.4c0-1 .8-1.4 1.5-1.4c.6 0 1.1.1 1.4.5v-.7c0-.5-.4-.9-1-.9c-.5 0-1 .2-1.3.6l-.4-.5c.5-.5 1.1-.7 1.8-.7c.9 0 1.7.4 1.7 1.5c.03-.02 0 2.9 0 2.9h-.8s.02-.47 0-.5zm0-1.2c-.2-.3-.6-.5-1.1-.5c-.6 0-1 .4-1 .9c0 .5.4.9 1 .9c.5 0 .9-.2 1.1-.5v-.8zM15 2.8h.8s.04.63 0 .6c.4-.4.9-.7 1.5-.7v.8h-.3c-.4 0-1 .3-1.2.6c.04-.01 0 3 0 3h-.8V2.8zm3.1 3.1c.3.4.9.7 1.4.7c.7 0 1-.3 1-.7c0-.4-.5-.5-1.1-.7c-.7-.1-1.6-.3-1.6-1.3c0-.7.6-1.2 1.7-1.2c.7 0 1.3.2 1.6.6l-.3.5c-.3-.3-.8-.5-1.3-.5c-.6 0-.9.2-.9.6c0 .4.5.5 1 .6c.8.2 1.7.4 1.7 1.4c0 .7-.7 1.3-1.8 1.3c-.7 0-1.4-.2-1.8-.7l.4-.6zm6.4-4.4c0-.3.2-.5.5-.5c.3 0 .5.2.5.5c0 .3-.2.5-.5.5c-.3 0-.5-.2-.5-.5zm.1 1.3h.8v4.3h-.8V2.8zm5 1.5c0-.7-.3-.9-.9-.9c-.5 0-1 .3-1.2.6v3.1h-.8V2.8h.8v.6c.3-.4.9-.7 1.6-.7c.9 0 1.3.4 1.3 1.4c.05-.04 0 3 0 3h-.8s.04-2.77 0-2.8zm4.5-3.2h2.8c1.1 0 1.7.7 1.7 1.5c0 .8-.5 1.3-1.1 1.4c.7.1 1.2.8 1.2 1.5c0 .9-.6 1.6-1.7 1.6h-2.9v-6zm2.6 2.6c.6 0 1-.4 1-.9c0-.5-.4-.9-1-.9H35v1.8s1.72-.05 1.7 0zm.1 2.6c.6 0 1-.3 1-.9c0-.5-.4-1-1-1c-.04.05-1.8 0-1.8 0v1.9s1.76.02 1.8 0zm5.9.2c-.3.4-.9.7-1.5.7c-.9 0-1.4-.4-1.4-1.4v-3h.8v2.8c0 .7.4.9.9.9c.5 0 1-.3 1.2-.6c.03-.01 0-3.1 0-3.1h.8v4.3h-.8s.03-.58 0-.6zm2.1-.6c.3.4.9.7 1.5.7c.6 0 .9-.3.9-.7c0-.4-.5-.5-1-.7c-.8-.1-1.6-.3-1.6-1.3c0-.7.6-1.2 1.6-1.2c.8 0 1.3.2 1.7.6l-.4.5c-.2-.3-.7-.5-1.3-.5c-.5 0-.9.2-.9.6c0 .4.5.5 1.1.6c.7.2 1.6.4 1.6 1.4c0 .7-.6 1.3-1.7 1.3c-.8 0-1.4-.2-1.8-.7l.3-.6zm4.1-4.4c0-.3.3-.5.5-.5c.3 0 .6.2.6.5c0 .3-.3.5-.6.5c-.2 0-.5-.2-.5-.5zm.1 1.3h.8v4.3h-.8V2.8zm5.1 1.5c0-.7-.4-.9-1-.9c-.5 0-.9.3-1.2.6c.05 0 0 3.1 0 3.1h-.8V2.8h.8s.05.57 0 .6c.3-.4.9-.7 1.6-.7c.9 0 1.4.4 1.4 1.4c-.02-.04 0 3 0 3h-.8s-.03-2.77 0-2.8zm4-1.6c1.3 0 2.1 1 2.1 2.3v.2h-3.4c0 .7.6 1.4 1.4 1.4c.5 0 1-.2 1.3-.6l.4.6c-.4.4-1 .6-1.8.6c-1.2 0-2.2-.9-2.2-2.3c0-1.2.9-2.2 2.2-2.2zm-1.4 1.9h2.7c0-.6-.4-1.3-1.3-1.3c-.9 0-1.3.7-1.4 1.3zm4.5 1.3c.3.4.9.7 1.5.7c.6 0 .9-.3.9-.7c0-.4-.5-.5-1-.7c-.8-.1-1.6-.3-1.6-1.3c0-.7.5-1.2 1.6-1.2c.8 0 1.3.2 1.7.6l-.4.5c-.2-.3-.7-.5-1.3-.5c-.5 0-.9.2-.9.6c0 .4.5.5 1 .6c.8.2 1.7.4 1.7 1.4c0 .7-.6 1.3-1.8 1.3c-.7 0-1.3-.2-1.8-.7l.4-.6zm4.2 0c.3.4.9.7 1.5.7c.6 0 .9-.3.9-.7c0-.4-.5-.5-1-.7c-.8-.1-1.6-.3-1.6-1.3c0-.7.6-1.2 1.6-1.2c.8 0 1.3.2 1.7.6l-.4.5c-.2-.3-.7-.5-1.3-.5c-.5 0-.9.2-.9.6c0 .4.5.5 1 .6c.8.2 1.7.4 1.7 1.4c0 .7-.6 1.3-1.7 1.3c-.8 0-1.4-.2-1.9-.7l.4-.6z" stroke="none" fill="#000"/></g></svg>