<?xml version="1.0" standalone="no"?><!DOCTYPE svg PUBLIC "-//W3C//DTD SVG 1.1//EN" "http://www.w3.org/Graphics/SVG/1.1/DTD/svg11.dtd"><svg xmlns="http://www.w3.org/2000/svg" version="1.1" width="90px" height="16.9px" viewBox="0 -4 90 16.9" style="top:-4px"><desc>SUBMIT OFFER</desc><defs/><g id="Polygon95179"><path d="m14.6 5.6c.4.4 1.1.8 1.9.8c1 0 1.3-.5 1.3-.9c0-.6-.7-.8-1.4-1c-1-.3-2.1-.5-2.1-1.8c0-1 .8-1.7 2.1-1.7c.9 0 1.7.3 2.2.9l-.5.6c-.5-.5-1.1-.7-1.8-.7c-.6 0-1.1.4-1.1.9c0 .5.6.7 1.4.9c1 .2 2.1.5 2.1 1.8c0 .9-.6 1.8-2.2 1.8c-1.1 0-1.9-.4-2.4-.9l.5-.7zm5.2-4.5h.9s-.03 3.63 0 3.6c0 1.1.5 1.7 1.6 1.7c1 0 1.6-.6 1.6-1.7V1.1h.9s.01 3.65 0 3.7c0 1.4-.8 2.4-2.5 2.4c-1.7 0-2.5-1-2.5-2.4c-.04-.04 0-3.7 0-3.7zm6.4 0h2.8c1 0 1.7.7 1.7 1.5c0 .8-.5 1.3-1.1 1.4c.7.1 1.2.8 1.2 1.5c0 .9-.6 1.6-1.8 1.6h-2.8v-6zm2.6 2.6c.6 0 .9-.4.9-.9c0-.5-.3-.9-.9-.9h-1.7v1.8s1.7-.05 1.7 0zm0 2.6c.7 0 1.1-.3 1.1-.9c0-.5-.4-1-1.1-1c.05.05-1.7 0-1.7 0v1.9s1.75.02 1.7 0zm8.3-4l-2 4.8h-.4l-1.9-4.8v4.8h-.9v-6h1.3l1.7 4.3l1.8-4.3h1.3v6h-.9V2.3zm2.2-1.2h.9v6h-.9v-6zm3.7.8h-1.9v-.8h4.7v.8h-1.9v5.2h-.9V1.9zm8.8-.9c1.8 0 3 1.3 3 3.1c0 1.8-1.2 3.1-3 3.1c-1.8 0-3-1.3-3-3.1c0-1.8 1.2-3.1 3-3.1zm0 .8c-1.3 0-2.1 1-2.1 2.3c0 1.3.8 2.3 2.1 2.3c1.3 0 2.1-1 2.1-2.3c0-1.3-.8-2.3-2.1-2.3zm4.1-.7h4v.8h-3.1v1.8h3.1v.7h-3.1v2.7h-.9v-6zm5 0h4v.8h-3.1v1.8h3.1v.7h-3.1v2.7h-.9v-6zm5 0h4v.8h-3.1v1.8h3.1v.7h-3.1v1.9h3.1v.8h-4v-6zm7.2 3.7H72v2.3h-.9v-6s2.49.01 2.5 0c1.1 0 1.9.7 1.9 1.9c0 1-.7 1.6-1.5 1.7c.02.01 1.6 2.4 1.6 2.4h-1.1l-1.4-2.3zm.4-2.9H72v2.1h1.5c.6 0 1.1-.4 1.1-1c0-.7-.5-1.1-1.1-1.1z" stroke="none" fill="#ffffff"/></g></svg>