<?xml version="1.0" standalone="no"?><!DOCTYPE svg PUBLIC "-//W3C//DTD SVG 1.1//EN" "http://www.w3.org/Graphics/SVG/1.1/DTD/svg11.dtd"><svg xmlns="http://www.w3.org/2000/svg" version="1.1" width="22.3px" height="12.3px" viewBox="0 -3 22.3 12.3" style="top:-3px"><desc>3-Mile</desc><defs/><g id="Polygon86716"><path d="m6.4 3.6c.2.3.7.5 1.1.5c.4 0 .7-.2.7-.5c0-.4-.2-.5-.8-.5h-.5v-.8h.5c.5 0 .8-.1.8-.4c0-.3-.4-.5-.8-.5c-.4 0-.7.2-1 .4L6 1.3c.3-.4.8-.6 1.5-.6C8.4.7 9 1.1 9 1.8c0 .5-.4.8-.9.9c.4 0 1 .3 1 .9c0 .7-.6 1.2-1.6 1.2c-.7 0-1.3-.3-1.6-.6l.5-.6zm3-.6h1.5v.6H9.4v-.6zm5.5-1.1l-1.2 2.8h-.3l-1.2-2.8v2.8h-.8v-4h1.2l1 2.5l.9-2.5h1.2v4h-.8V1.9zm1.5-.9c0-.3.2-.5.4-.5c.3 0 .5.2.5.5c0 .2-.2.4-.5.4c-.2 0-.4-.2-.4-.4zm0 .8h.8v2.9h-.8V1.8zM17.9.7h.8v4h-.8v-4zm2.8 1.1c.8 0 1.4.6 1.4 1.6c.03-.03 0 .1 0 .1c0 0-2.13.03-2.1 0c0 .4.3.7.8.7c.3 0 .6-.1.8-.3l.3.5c-.3.3-.7.4-1.2.4c-.9 0-1.5-.6-1.5-1.5c0-.9.6-1.5 1.5-1.5zM20 3h1.4c0-.3-.2-.6-.7-.6c-.5 0-.7.3-.7.6z" stroke="none" fill="#282828"/></g></svg>