<?xml version="1.0" standalone="no"?><!DOCTYPE svg PUBLIC "-//W3C//DTD SVG 1.1//EN" "http://www.w3.org/Graphics/SVG/1.1/DTD/svg11.dtd"><svg xmlns="http://www.w3.org/2000/svg" version="1.1" width="220.1px" height="39.5px" viewBox="0 -4 220.1 39.5" style="top:-4px"><desc>JAMES CAPITAL ADVISORS, INC DISCLAIMER</desc><defs/><g id="Polygon80859"><path d="m6.5 17.5v6.4c0 1.7-1.1 2.4-2.8 2.4H.8V15.1h2.9c1.7 0 2.8.7 2.8 2.4zm-2.9-.8c0 .04-.9 0-.9 0v8s.9-.02.9 0c.6 0 1-.2 1-1v-5.9c0-.8-.4-1.1-1-1.1zm4.3 9.6V15.1h1.9v11.2H7.9zm6.9-7.2s-.03-1.56 0-1.6c0-.7-.4-.9-1-.9c-.5 0-.9.2-.9.9v.8c0 .6.2.8.7 1.1l1.3.8c1.1.6 1.7 1.1 1.7 2.3v1.6c0 1.7-1 2.3-2.7 2.3h-.1c-1.7 0-2.7-.6-2.7-2.3c-.04 0 0-2 0-2h1.8s-.02 1.75 0 1.7c0 .7.4 1 .9 1c.6 0 1-.3 1-1v-.8c0-.6-.2-.9-.7-1.2l-1.3-.7c-1.1-.7-1.7-1.2-1.7-2.3v-1.5c0-1.7 1.2-2.3 2.7-2.3c1.6 0 2.8.6 2.8 2.3c-.01-.01 0 1.8 0 1.8h-1.8zm8.6 5c0 1.7-1.1 2.3-2.8 2.3c-1.7 0-2.9-.6-2.9-2.3v-6.8c0-1.6 1.2-2.3 2.9-2.3c1.7 0 2.8.7 2.8 2.3v2.1h-1.8s-.05-1.76 0-1.8c0-.7-.4-1-1-1c-.6 0-1 .3-1 1v6.2c0 .8.4 1 1 1c.6 0 1-.2 1-1c-.05-.02 0-2.1 0-2.1h1.8v2.4zm6 2.2h-4.7V15.1h1.9v9.5h2.8v1.7zm4.4-2.5h-2l-.4 2.5h-1.8l2.1-11.2h2.3l2.1 11.2h-1.9l-.4-2.5zm-.2-1.5l-.8-5l-.8 5h1.6zm3.4 4V15.1h1.8v11.2H37zm7.8-1.6h-1.1L42 19.5v6.8h-1.7V15.1h1.8l2.1 6.5l2.2-6.5h1.8v11.2h-1.8v-6.8l-1.6 5.2zm4.9 1.6V15.1h4.9v1.6h-3.1v3.1h2.6v1.6h-2.6v3.3h3.1v1.6h-4.9zm10.3 0l-1.4-4.5h-1v4.5h-1.8V15.1h2.9c1.7 0 2.8.7 2.8 2.4v2c0 1-.4 1.7-1.2 2.1l1.6 4.7H60zm-2.4-6.1s1.02.05 1 0c.6 0 1-.2 1-1v-1.4c0-.8-.4-1.1-1-1.1c.02.04-1 0-1 0v3.5z" stroke="none" fill="#282828"/></g><g id="Polygon80858"><path d="m.5 5.9c.3.3.6.5 1.1.5c.7 0 1.1-.5 1.1-1.2c.03.05 0-4.1 0-4.1h.9s.03 4.16 0 4.2c0 1.3-.8 1.9-1.9 1.9C1 7.2.5 7 .1 6.6l.4-.7zm7.9 0H5.5L5 7.1h-1l2.4-6h1.1l2.4 6h-1l-.5-1.2zm-2.7-.8h2.5L6.9 1.9l-1.2 3.2zm10-2.8l-1.9 4.8h-.4l-2-4.8v4.8h-.9v-6h1.3l1.8 4.3l1.7-4.3h1.3v6h-.9V2.3zm2.1-1.2h4.1v.8h-3.2v1.8h3.1v.7h-3.1v1.9h3.2v.8h-4.1v-6zM23 5.6c.5.4 1.1.8 1.9.8c1 0 1.4-.5 1.4-.9c0-.6-.7-.8-1.5-1c-1-.3-2.1-.5-2.1-1.8c0-1 .9-1.7 2.1-1.7c1 0 1.7.3 2.2.9l-.5.6c-.4-.5-1.1-.7-1.7-.7c-.7 0-1.1.4-1.1.9c0 .5.6.7 1.3.9c1 .2 2.2.5 2.2 1.8c0 .9-.7 1.8-2.3 1.8c-1.1 0-1.9-.4-2.4-.9l.5-.7zm7.1-1.5c0-1.8 1.4-3.1 3.1-3.1c1.2 0 1.9.6 2.4 1.3l-.8.4c-.3-.5-.9-.9-1.6-.9c-1.2 0-2.2 1-2.2 2.3c0 1.4 1 2.3 2.2 2.3c.7 0 1.3-.4 1.6-.9l.8.4c-.5.8-1.2 1.3-2.4 1.3c-1.7 0-3.1-1.2-3.1-3.1zm10 1.8h-2.9l-.5 1.2h-1l2.4-6h1.1l2.4 6h-1l-.5-1.2zm-2.6-.8h2.4l-1.2-3.2l-1.2 3.2zm4.7-4h2.6c1.2 0 1.9.9 1.9 1.9c0 1-.7 1.8-1.9 1.8h-1.7v2.3h-.9v-6zm2.5.8h-1.6v2.1h1.6c.6 0 1.1-.4 1.1-1c0-.7-.5-1.1-1.1-1.1zm2.8-.8h.9v6h-.9v-6zm3.6.8h-1.8v-.8h4.6v.8H52v5.2h-.9V1.9zm6.8 4H55l-.5 1.2h-1l2.4-6h1.1l2.4 6h-1l-.5-1.2zm-2.6-.8h2.4l-1.2-3.2l-1.2 3.2zm4.8-4h.9v5.2h2.7v.8h-3.6v-6zm10.5 4.8h-2.9l-.5 1.2h-1l2.4-6h1.1l2.4 6h-1l-.5-1.2zm-2.7-.8h2.5l-1.3-3.2l-1.2 3.2zm4.8-4s2.16.01 2.2 0c1.8 0 3.1 1.3 3.1 3c0 1.8-1.3 3-3.1 3c-.04.01-2.2 0-2.2 0v-6zm2.2 5.2c1.3 0 2.1-1 2.1-2.2c0-1.2-.7-2.2-2.1-2.2h-1.3v4.4s1.26.02 1.3 0zm3.3-5.2h1l1.9 5l1.9-5h1.1l-2.4 6h-1.1l-2.4-6zm6.5 0h.9v6h-.9v-6zM87 5.6c.4.4 1 .8 1.9.8c1 0 1.3-.5 1.3-.9c0-.6-.7-.8-1.5-1c-.9-.3-2-.5-2-1.8c0-1 .8-1.7 2.1-1.7c.9 0 1.6.3 2.2.9l-.5.6c-.5-.5-1.1-.7-1.8-.7c-.6 0-1.1.4-1.1.9c0 .5.6.7 1.4.9c1 .2 2.1.5 2.1 1.8c0 .9-.6 1.8-2.3 1.8c-1 0-1.8-.4-2.3-.9l.5-.7zM94.8 1c1.8 0 3.1 1.3 3.1 3.1c0 1.8-1.3 3.1-3.1 3.1c-1.8 0-3-1.3-3-3.1c0-1.8 1.2-3.1 3-3.1zm0 .8c-1.2 0-2.1 1-2.1 2.3c0 1.3.9 2.3 2.1 2.3c1.3 0 2.1-1 2.1-2.3c0-1.3-.8-2.3-2.1-2.3zm6.1 3h-1.1v2.3h-.9v-6s2.49.01 2.5 0c1.1 0 1.9.7 1.9 1.9c0 1-.7 1.6-1.5 1.7c.02.01 1.6 2.4 1.6 2.4h-1.1l-1.4-2.3zm.4-2.9h-1.5v2.1h1.5c.6 0 1.1-.4 1.1-1c0-.7-.5-1.1-1.1-1.1zm3.2 3.7c.4.4 1 .8 1.9.8c.9 0 1.3-.5 1.3-.9c0-.6-.7-.8-1.5-1c-.9-.3-2-.5-2-1.8c0-1 .8-1.7 2.1-1.7c.9 0 1.6.3 2.2.9l-.6.6c-.4-.5-1-.7-1.7-.7c-.7 0-1.1.4-1.1.9c0 .5.6.7 1.4.9c1 .2 2.1.5 2.1 1.8c0 .9-.6 1.8-2.3 1.8c-1 0-1.8-.4-2.3-.9l.5-.7zm4.9 2.4c.3-.2.6-.6.6-.9h-.1c-.3 0-.5-.2-.5-.5c0-.3.2-.5.5-.5c.4 0 .7.3.7.7c0 .6-.4 1.2-.8 1.5l-.4-.3zm4.4-6.9h.9v6h-.9v-6zm3.1 1.4v4.6h-.9v-6h.9l3.3 4.5V1.1h.9v6h-.9l-3.3-4.6zm5.2 1.6c0-1.8 1.3-3.1 3.1-3.1c1.1 0 1.9.6 2.3 1.3l-.7.4c-.3-.5-.9-.9-1.6-.9c-1.3 0-2.2 1-2.2 2.3c0 1.4.9 2.3 2.2 2.3c.7 0 1.3-.4 1.6-.9l.7.4c-.4.8-1.2 1.3-2.3 1.3c-1.8 0-3.1-1.2-3.1-3.1zm6.6 2c.3 0 .6.2.6.5c0 .3-.3.6-.6.6c-.3 0-.5-.3-.5-.6c0-.3.2-.5.5-.5z" stroke="none" fill="#3797ef"/></g></svg>