<?xml version="1.0" standalone="no"?><!DOCTYPE svg PUBLIC "-//W3C//DTD SVG 1.1//EN" "http://www.w3.org/Graphics/SVG/1.1/DTD/svg11.dtd"><svg xmlns="http://www.w3.org/2000/svg" xmlns:xlink="http://www.w3.org/1999/xlink" version="1.1" width="77px" height="25.9px" viewBox="0 -8 77 25.9" style="top:-8px"><desc/><defs/><g id="Polygon75457"><path d="m2.4 3.9l3.9-2v.4L2.8 4.1l3.5 1.8v.4l-3.9-2v-.4zm4.4 0l4-2v.4L7.3 4.1l3.5 1.8v.4l-4-2v-.4zm4.7 2.8C13.6 5 15 3.9 15 2.7c0-.9-.8-1.2-1.4-1.2c-.8 0-1.3.3-1.7.8l-.3-.4c.4-.5 1.1-.9 2-.9c.9 0 1.9.5 1.9 1.7c0 1.3-1.4 2.5-3.2 3.9c.04.04 3.2 0 3.2 0v.5h-4s.04-.41 0-.4zM19 1c1.6 0 2.2 1.7 2.2 3.1c0 1.4-.6 3.1-2.2 3.1c-1.6 0-2.2-1.7-2.2-3.1c0-1.4.6-3.1 2.2-3.1zm0 .5c-1.3 0-1.7 1.4-1.7 2.6c0 1.2.4 2.7 1.7 2.7c1.3 0 1.7-1.5 1.7-2.7c0-1.2-.4-2.6-1.7-2.6zm4.3.3l-1 1l-.3-.3l1.3-1.4h.5v6h-.5V1.8zM26.5 4c-.7-.2-1.4-.6-1.4-1.4c0-1.1 1-1.6 2-1.6c.9 0 1.9.5 1.9 1.6c0 .8-.7 1.2-1.4 1.4c.8.2 1.5.8 1.5 1.6c0 1-.9 1.6-2 1.6c-1.2 0-2.1-.6-2.1-1.6c0-.8.8-1.4 1.5-1.6zm.6-2.5c-.8 0-1.4.4-1.4 1.1c0 .9 1 1.1 1.4 1.2c.4-.1 1.4-.3 1.4-1.2c0-.7-.6-1.1-1.4-1.1zm0 2.7c-.4.1-1.5.5-1.5 1.4c0 .7.7 1.2 1.5 1.2c.8 0 1.5-.5 1.5-1.2c0-.9-1.1-1.3-1.5-1.4zm5.6-3.1h3.8v.5h-3.3v2.2h3.3v.5h-3.3v2.3h3.3v.5h-3.8v-6zm5 5.1c.3.3.8.6 1.4.6c.7 0 1.2-.3 1.2-.8c0-.6-.6-.8-1.3-.9c-.7-.2-1.5-.4-1.5-1.2c0-.7.6-1.2 1.6-1.2c.7 0 1.2.2 1.5.6l-.2.3c-.3-.3-.8-.5-1.3-.5c-.7 0-1.1.3-1.1.7c0 .5.5.7 1.1.8c.8.2 1.6.4 1.6 1.3c0 .7-.5 1.3-1.6 1.3c-.7 0-1.3-.2-1.7-.7l.3-.3zm4.3.1V3.2h-.7v-.4h.7V1.6h.5v1.2h.9v.4h-.9v3c0 .4.1.6.4.6c.2 0 .4-.1.5-.2l.2.3c-.2.2-.4.3-.7.3c-.6 0-.9-.3-.9-.9zm2.3-4.6c0-.2.1-.4.3-.4c.2 0 .4.2.4.4c0 .2-.2.3-.4.3c-.2 0-.3-.1-.3-.3zm.1 1.1h.5v4.3h-.5V2.8zm7.1 1.3c0-.6-.3-1-.9-1c-.4 0-1 .3-1.2.7c-.02.02 0 3.3 0 3.3h-.5v-3c0-.6-.2-1-.9-1c-.4 0-.9.3-1.2.7c-.01.02 0 3.3 0 3.3h-.5V2.8h.5v.6c.2-.3.8-.7 1.4-.7c.7 0 1 .4 1.1.8c.3-.4.9-.8 1.5-.8c.8 0 1.2.4 1.2 1.3c-.03-.02 0 3.1 0 3.1h-.5v-3zm4.7 2.5c-.4.4-.9.6-1.5.6c-.7 0-1.5-.5-1.5-1.4c0-1 .8-1.5 1.5-1.5c.6 0 1.1.2 1.5.6v-.8c0-.7-.5-1-1.2-1c-.5 0-.9.2-1.3.6l-.3-.3c.4-.5 1-.7 1.7-.7c.9 0 1.6.4 1.6 1.4c-.04-.05 0 3 0 3h-.5v-.5zm0-1.3c-.3-.4-.8-.6-1.3-.6c-.7 0-1.2.5-1.2 1.1c0 .6.5 1 1.2 1c.5 0 1-.1 1.3-.5v-1zm2 1V3.2h-.7v-.4h.7V1.6h.5v1.2h.9v.4h-.9s-.02 3 0 3c0 .4.1.6.4.6c.2 0 .4-.1.5-.2l.2.3c-.2.2-.4.3-.7.3c-.6 0-.9-.3-.9-.9zm4.2-3.6c1.4 0 2.1 1 2.1 2.3v.1s-3.65-.02-3.7 0c.1.9.7 1.7 1.7 1.7c.6 0 1.1-.2 1.5-.6l.2.3c-.4.5-1 .7-1.7.7c-1.3 0-2.2-.9-2.2-2.3c0-1.2.9-2.2 2.1-2.2zm-1.6 2h3.2c0-.7-.5-1.6-1.6-1.6c-1 0-1.5.9-1.6 1.6zm6.8 0h2.1v.4h-2.1v-.4zm5.7 1.2c.4.5.9.9 1.7.9c.9 0 1.5-.7 1.5-1.5c0-.9-.6-1.5-1.5-1.5c-.5 0-1 .2-1.4.6c-.03.02-.4-.1-.4-.1V1.1h3.4v.5h-2.9v2.3c.3-.3.8-.5 1.4-.5c1 0 1.9.6 1.9 1.9c0 1.2-.9 1.9-2 1.9c-1 0-1.6-.4-2-1l.3-.3z" stroke="none" fill="#000"/><a xlink:href="DBF_2018%20Estimate%20-%205%20Mile" xlink:show="new" xlink:title="&lt;&lt;2018 Estimate - 5 Mile&gt;&gt;"><rect style="fill:transparent;" x="1" y="0" width="76" height="7"/></a></g></svg>