<?xml version="1.0" standalone="no"?>
<!DOCTYPE svg PUBLIC "-//W3C//DTD SVG 1.1//EN" "http://www.w3.org/Graphics/SVG/1.1/DTD/svg11.dtd">
<svg xmlns="http://www.w3.org/2000/svg" version="1.1" width="237px" height="26.9px" viewBox="0 -6 237 26.9" style="top:-6px">
  <desc>Lorem Ipsum</desc>
  <defs/>
  <g id="Polygon277475">
    <path d="M 149.9 2 L 150.9 2 L 150.9 11.7 L 156 11.7 L 156 12.5 L 149.9 12.5 L 149.9 2 Z M 157.1 8.7 C 157.1 6.5 158.5 4.7 160.7 4.7 C 163 4.7 164.4 6.5 164.4 8.7 C 164.4 10.9 163 12.7 160.7 12.7 C 158.5 12.7 157.1 10.9 157.1 8.7 Z M 163.6 8.7 C 163.6 7 162.6 5.4 160.7 5.4 C 159 5.4 158 7 158 8.7 C 158 10.4 159 12 160.7 12 C 162.6 12 163.6 10.4 163.6 8.7 Z M 166.6 4.9 L 167.4 4.9 C 167.4 4.9 167.4 6.19 167.4 6.2 C 168.1 5.3 168.9 4.7 170 4.7 C 170 4.7 170 5.6 170 5.6 C 169.8 5.6 169.7 5.6 169.6 5.6 C 168.8 5.6 167.7 6.3 167.4 7 C 167.4 6.96 167.4 12.5 167.4 12.5 L 166.6 12.5 L 166.6 4.9 Z M 174.9 4.7 C 177.2 4.7 178.5 6.5 178.5 8.8 C 178.49 8.75 178.5 9 178.5 9 C 178.5 9 172.07 8.97 172.1 9 C 172.1 10.6 173.3 12 175.1 12 C 176 12 176.9 11.7 177.6 11 C 177.6 11 178 11.5 178 11.5 C 177.2 12.3 176.3 12.7 175 12.7 C 172.8 12.7 171.2 11.1 171.2 8.7 C 171.2 6.5 172.7 4.7 174.9 4.7 Z M 172.1 8.3 C 172.1 8.3 177.6 8.3 177.6 8.3 C 177.6 7 176.8 5.4 174.9 5.4 C 173 5.4 172.1 7 172.1 8.3 Z M 189.7 7.2 C 189.7 6.1 189.3 5.4 188.2 5.4 C 187.4 5.4 186.4 6 186 6.7 C 186.01 6.73 186 12.5 186 12.5 L 185.2 12.5 C 185.2 12.5 185.17 7.18 185.2 7.2 C 185.2 6.1 184.7 5.4 183.6 5.4 C 182.8 5.4 181.9 6.1 181.4 6.7 C 181.44 6.75 181.4 12.5 181.4 12.5 L 180.6 12.5 L 180.6 4.9 L 181.4 4.9 C 181.4 4.9 181.44 6.03 181.4 6 C 181.8 5.5 182.8 4.7 183.9 4.7 C 185.1 4.7 185.7 5.4 185.9 6.1 C 186.4 5.4 187.4 4.7 188.5 4.7 C 189.9 4.7 190.6 5.5 190.6 7 C 190.57 7.02 190.6 12.5 190.6 12.5 L 189.7 12.5 C 189.7 12.5 189.75 7.18 189.7 7.2 Z M 197.3 2 L 198.2 2 L 198.2 12.5 L 197.3 12.5 L 197.3 2 Z M 200.8 15.5 L 200.8 4.9 L 201.6 4.9 C 201.6 4.9 201.63 6.1 201.6 6.1 C 202.2 5.3 203.2 4.7 204.3 4.7 C 206.3 4.7 207.7 6.2 207.7 8.7 C 207.7 11.2 206.3 12.7 204.3 12.7 C 203.2 12.7 202.2 12.2 201.6 11.3 C 201.63 11.31 201.6 15.5 201.6 15.5 L 200.8 15.5 Z M 204.2 5.4 C 203.1 5.4 202.1 6.1 201.6 6.8 C 201.6 6.8 201.6 10.6 201.6 10.6 C 202.1 11.3 203.1 12 204.2 12 C 205.9 12 206.8 10.6 206.8 8.7 C 206.8 6.8 205.9 5.4 204.2 5.4 Z M 209.7 10.9 C 210.2 11.5 211.1 12 212.2 12 C 213.4 12 214.2 11.4 214.2 10.5 C 214.2 9.5 213.2 9.2 212 9 C 210.8 8.6 209.4 8.3 209.4 6.8 C 209.4 5.6 210.3 4.7 212.1 4.7 C 213.4 4.7 214.3 5.2 214.8 5.8 C 214.8 5.8 214.4 6.4 214.4 6.4 C 213.9 5.8 213.1 5.4 212.1 5.4 C 210.9 5.4 210.2 6 210.2 6.8 C 210.2 7.6 211.2 7.9 212.2 8.1 C 213.5 8.5 215 8.8 215 10.5 C 215 11.7 214 12.7 212.1 12.7 C 210.9 12.7 209.9 12.4 209.2 11.5 C 209.2 11.5 209.7 10.9 209.7 10.9 Z M 222.3 11.4 C 221.7 12.1 220.7 12.7 219.6 12.7 C 218 12.7 217.1 12 217.1 10.3 C 217.14 10.28 217.1 4.9 217.1 4.9 L 218 4.9 C 218 4.9 217.97 10.09 218 10.1 C 218 11.6 218.7 12 219.8 12 C 220.8 12 221.8 11.4 222.3 10.7 C 222.32 10.72 222.3 4.9 222.3 4.9 L 223.1 4.9 L 223.1 12.5 L 222.3 12.5 C 222.3 12.5 222.32 11.42 222.3 11.4 Z M 234.9 7.2 C 234.9 6.1 234.4 5.4 233.3 5.4 C 232.5 5.4 231.5 6 231.1 6.7 C 231.12 6.73 231.1 12.5 231.1 12.5 L 230.3 12.5 C 230.3 12.5 230.28 7.18 230.3 7.2 C 230.3 6.1 229.8 5.4 228.7 5.4 C 227.9 5.4 227 6.1 226.5 6.7 C 226.55 6.75 226.5 12.5 226.5 12.5 L 225.7 12.5 L 225.7 4.9 L 226.5 4.9 C 226.5 4.9 226.55 6.03 226.5 6 C 226.9 5.5 227.9 4.7 229 4.7 C 230.2 4.7 230.8 5.4 231 6.1 C 231.5 5.4 232.5 4.7 233.6 4.7 C 235 4.7 235.7 5.5 235.7 7 C 235.68 7.02 235.7 12.5 235.7 12.5 L 234.9 12.5 C 234.9 12.5 234.85 7.18 234.9 7.2 Z " stroke="none" fill="#000"/>
  </g>
</svg>