<?xml version="1.0" standalone="no"?><!DOCTYPE svg PUBLIC "-//W3C//DTD SVG 1.1//EN" "http://www.w3.org/Graphics/SVG/1.1/DTD/svg11.dtd"><svg xmlns="http://www.w3.org/2000/svg" version="1.1" width="375px" height="47.2px" viewBox="0 -9 375 47.2" style="top:-9px"><desc>RETAIL AERIALs</desc><defs/><g id="Polygon92298"><path d="m127.6 22l-2.5-7.9h-1.7v7.9h-3.3V2.3s5.16-.04 5.2 0c3 0 4.9 1.1 4.9 4.1v3.6c0 1.9-.8 3-2.1 3.6c-.02.04 2.8 8.4 2.8 8.4h-3.3zm-4.2-10.7s1.75.02 1.7 0c1.1 0 1.9-.4 1.9-1.8V6.9c0-1.4-.8-1.8-1.9-1.8c.05.04-1.7 0-1.7 0v6.2zm9.2 10.7V2.3h8.7v2.8h-5.4v5.5h4.5v2.8h-4.5v5.7h5.5v2.9h-8.8zm19.5-16.9h-3.3V22h-3.2V5.1h-3.3V2.3h9.8v2.8zm6.5 12.5H155l-.7 4.4h-3.2l3.7-19.7h4.1l3.7 19.7h-3.3l-.7-4.4zm-.4-2.7l-1.4-8.8l-1.4 8.8h2.8zm5.9 7.1V2.3h3.3V22h-3.3zm14.3 0H170V2.3h3.3v16.8h5.1v2.9zm11.4-4.4h-3.6l-.7 4.4h-3.2L186 2.3h4.1l3.8 19.7h-3.4l-.7-4.4zm-.4-2.7L188 6.1l-1.4 8.8h2.8zm5.8 7.1V2.3h8.7v2.8h-5.4v5.5h4.5v2.8h-4.5v5.7h5.5v2.9h-8.8zm18.2 0l-2.5-7.9h-1.6v7.9H206V2.3s5.11-.04 5.1 0c3 0 5 1.1 5 4.1v3.6c0 1.9-.8 3-2.2 3.6c.03.04 2.9 8.4 2.9 8.4h-3.4zm-4.1-10.7s1.7.02 1.7 0c1.1 0 1.8-.4 1.8-1.8V6.9c0-1.4-.7-1.8-1.8-1.8c0 .04-1.7 0-1.7 0v6.2zm9.3 10.7V2.3h3.2V22h-3.2zm12.2-4.4h-3.6l-.7 4.4h-3.2L227 2.3h4.1l3.7 19.7h-3.3l-.7-4.4zm-.4-2.7L229 6.1l-1.4 8.8h2.8zm14.1 7.1h-8.3V2.3h3.3v16.8h5v2.9zM252 9.3s.03-2.75 0-2.7c0-1.3-.7-1.7-1.6-1.7c-1 0-1.7.4-1.7 1.7v1.3c0 1 .3 1.5 1.3 2l2.3 1.3c1.9 1.1 3 2 3 4.1v2.8c0 3.1-1.9 4.2-4.9 4.2c-3 0-4.9-1.1-4.9-4.2c-.02.03 0-3.4 0-3.4h3.2v3c0 1.2.7 1.7 1.7 1.7c1 0 1.7-.5 1.7-1.7v-1.6c0-1-.3-1.5-1.3-2l-2.3-1.3c-1.9-1.1-3-2-3-4.1V6.1c0-2.9 2.1-4.1 4.8-4.1h.1c2.7 0 4.8 1.2 4.8 4.1c.05 0 0 3.2 0 3.2H252z" stroke="none" fill="#282828"/></g></svg>