<?xml version="1.0" standalone="no"?>
<!DOCTYPE svg PUBLIC "-//W3C//DTD SVG 1.1//EN" "http://www.w3.org/Graphics/SVG/1.1/DTD/svg11.dtd">
<svg xmlns="http://www.w3.org/2000/svg" version="1.1" width="109.3px" height="27.9px" viewBox="0 -6 109.3 27.9" style="top:-6px">
  <desc>City</desc>
  <defs/>
  <g id="Polygon271549">
    <path d="M 0.7 7.3 C 0.7 4 3.1 1.8 6.2 1.8 C 8.2 1.8 9.5 2.8 10.4 4 C 10.4 4 9 4.7 9 4.7 C 8.5 3.8 7.4 3.2 6.2 3.2 C 4 3.2 2.4 4.9 2.4 7.3 C 2.4 9.6 4 11.3 6.2 11.3 C 7.4 11.3 8.5 10.7 9 9.8 C 9 9.8 10.4 10.5 10.4 10.5 C 9.5 11.7 8.2 12.7 6.2 12.7 C 3.1 12.7 0.7 10.5 0.7 7.3 Z M 11.7 2.7 C 11.7 2.2 12.1 1.8 12.6 1.8 C 13.1 1.8 13.5 2.2 13.5 2.7 C 13.5 3.2 13.1 3.6 12.6 3.6 C 12.1 3.6 11.7 3.2 11.7 2.7 Z M 11.9 4.9 L 13.4 4.9 L 13.4 12.5 L 11.9 12.5 L 11.9 4.9 Z M 15.9 10.8 C 15.91 10.85 15.9 6.1 15.9 6.1 L 14.6 6.1 L 14.6 4.9 L 15.9 4.9 L 15.9 2.8 L 17.3 2.8 L 17.3 4.9 L 18.9 4.9 L 18.9 6.1 L 17.3 6.1 C 17.3 6.1 17.34 10.53 17.3 10.5 C 17.3 11.1 17.6 11.5 18.1 11.5 C 18.4 11.5 18.7 11.3 18.9 11.2 C 18.9 11.2 19.2 12.2 19.2 12.2 C 18.9 12.5 18.5 12.7 17.7 12.7 C 16.5 12.7 15.9 12.1 15.9 10.8 Z M 21 14.4 C 21.5 14.4 21.8 14.2 22.1 13.6 C 22.08 13.64 22.5 12.6 22.5 12.6 L 19.4 4.9 L 20.9 4.9 L 23.3 10.9 L 25.7 4.9 L 27.2 4.9 C 27.2 4.9 23.44 14.01 23.4 14 C 22.9 15.2 22.1 15.6 21 15.7 C 20.8 15.7 20.3 15.6 20.1 15.5 C 20.1 15.5 20.3 14.3 20.3 14.3 C 20.5 14.3 20.8 14.4 21 14.4 Z " stroke="none" fill="#000"/>
  </g>
</svg>