<?xml version="1.0" standalone="no"?><!DOCTYPE svg PUBLIC "-//W3C//DTD SVG 1.1//EN" "http://www.w3.org/Graphics/SVG/1.1/DTD/svg11.dtd"><svg xmlns="http://www.w3.org/2000/svg" version="1.1" width="89px" height="27.5px" viewBox="0 -6 89 27.5" style="top:-6px"><desc>XXXX</desc><defs/><g id="Polygon290675"><path d="m4.4 6.8l2.2 5.7H4.7L3.3 8.4L2 12.5H.1l2.2-5.7l-2-5.5h1.9L3.4 5l1.1-3.7h1.9l-2 5.5zm6.7 0l2.1 5.7h-1.9L9.9 8.4l-1.3 4.1H6.7l2.2-5.7l-2-5.5h1.9L10 5l1.1-3.7h1.9l-1.9 5.5zm6.6 0l2.2 5.7h-2l-1.4-4.1l-1.3 4.1h-1.9l2.2-5.7l-2-5.5h1.9L16.6 5l1.1-3.7h1.9l-1.9 5.5zm6.6 0l2.2 5.7h-2l-1.3-4.1l-1.4 4.1H20l2.1-5.7l-2-5.5h1.9L23.2 5l1.1-3.7h1.9l-1.9 5.5z" stroke="none" fill="#282828"/></g></svg>