<?xml version="1.0" standalone="no"?><!DOCTYPE svg PUBLIC "-//W3C//DTD SVG 1.1//EN" "http://www.w3.org/Graphics/SVG/1.1/DTD/svg11.dtd"><svg xmlns="http://www.w3.org/2000/svg" version="1.1" width="134.3px" height="15.9px" viewBox="0 -4 134.3 15.9" style="top:-4px"><desc>7 09 2034</desc><defs/><g id="Polygon94168"><path d="m97.1 1.6h-3.3v-.5h3.9v.4l-2.6 5.6h-.5l2.5-5.5zm3-.7h.4l-2.1 6.4h-.4l2.1-6.4zm3.2.1c1.6 0 2.2 1.7 2.2 3.1c0 1.4-.6 3.1-2.2 3.1c-1.6 0-2.2-1.7-2.2-3.1c0-1.4.6-3.1 2.2-3.1zm0 .5c-1.3 0-1.7 1.4-1.7 2.6c0 1.2.4 2.7 1.7 2.7c1.2 0 1.7-1.5 1.7-2.7c0-1.2-.5-2.6-1.7-2.6zm3.8 4.6c.3.4.7.6 1.4.6c1.3 0 1.7-1.3 1.7-2.6v-.3c-.2.4-.9 1-1.7 1c-1.1 0-2-.6-2-1.9c0-1 .8-1.9 2-1.9c1.7 0 2.2 1.5 2.2 3.1c0 1.6-.6 3.1-2.2 3.1c-.8 0-1.3-.3-1.7-.8l.3-.3zm1.5-4.6c-1.1 0-1.6.8-1.6 1.4c0 1 .7 1.5 1.5 1.5c.7 0 1.3-.5 1.7-1.1c-.1-.8-.5-1.8-1.6-1.8zm4.8-.6h.4l-2.1 6.4h-.4l2.1-6.4zm.9 5.8c2.1-1.7 3.4-2.8 3.4-4c0-.9-.7-1.2-1.3-1.2c-.8 0-1.4.3-1.7.8l-.3-.4c.4-.5 1.1-.9 2-.9c.8 0 1.8.5 1.8 1.7c0 1.3-1.4 2.5-3.1 3.9c.01.04 3.2 0 3.2 0v.5h-4v-.4zm7.5-5.7c1.6 0 2.2 1.7 2.2 3.1c0 1.4-.6 3.1-2.2 3.1c-1.6 0-2.2-1.7-2.2-3.1c0-1.4.6-3.1 2.2-3.1zm0 .5c-1.3 0-1.7 1.4-1.7 2.6c0 1.2.4 2.7 1.7 2.7c1.2 0 1.7-1.5 1.7-2.7c0-1.2-.5-2.6-1.7-2.6zm3.4 4.4c.3.5.9.9 1.6.9c1 0 1.5-.5 1.5-1.3c0-.9-.7-1.2-1.6-1.2h-.5v-.5h.5c.8 0 1.6-.4 1.6-1.2c0-.7-.7-1.1-1.5-1.1c-.7 0-1.2.3-1.6.7l-.3-.3c.4-.5 1.1-.9 1.9-.9c1.1 0 2 .6 2 1.6c0 .9-.8 1.3-1.3 1.4c.5.1 1.4.5 1.4 1.5c0 1-.8 1.7-2.1 1.7c-.9 0-1.7-.4-2-1l.4-.3zm7.4-.4h-2.9v-.5l2.7-3.9h.7v3.9h.9v.5h-.9v1.6h-.5V5.5zm-2.3-.5h2.3V1.6L130.3 5z" stroke="none" fill="#000"/></g></svg>