<?xml version="1.0" standalone="no"?>
<!DOCTYPE svg PUBLIC "-//W3C//DTD SVG 1.1//EN" "http://www.w3.org/Graphics/SVG/1.1/DTD/svg11.dtd">
<svg xmlns="http://www.w3.org/2000/svg" version="1.1" width="45px" height="36.9px" viewBox="0 -6 45 36.9" style="top:-6px">
  <desc>Agent 1</desc>
  <defs/>
  <g id="Polygon208307">
    <path d="M 0.7 19.1 L 1.6 19.1 L 1.6 24.3 L 4.3 24.3 L 4.3 25.1 L 0.7 25.1 L 0.7 19.1 Z M 4.7 22.9 C 4.7 21.7 5.6 20.6 6.9 20.6 C 8.3 20.6 9.1 21.7 9.1 22.9 C 9.1 24.2 8.3 25.2 6.9 25.2 C 5.6 25.2 4.7 24.2 4.7 22.9 Z M 8.3 22.9 C 8.3 22.1 7.8 21.4 6.9 21.4 C 6.1 21.4 5.6 22.1 5.6 22.9 C 5.6 23.7 6.1 24.5 6.9 24.5 C 7.8 24.5 8.3 23.7 8.3 22.9 Z M 10.1 20.7 L 10.9 20.7 C 10.9 20.7 10.88 21.4 10.9 21.4 C 11.2 21 11.7 20.6 12.3 20.6 C 12.3 20.6 12.3 21.5 12.3 21.5 C 12.2 21.4 12.1 21.4 12 21.4 C 11.6 21.4 11.1 21.7 10.9 22.1 C 10.88 22.06 10.9 25.1 10.9 25.1 L 10.1 25.1 L 10.1 20.7 Z M 14.9 20.6 C 16.2 20.6 17 21.6 17 23 C 17.05 22.98 17 23.2 17 23.2 C 17 23.2 13.61 23.18 13.6 23.2 C 13.7 23.9 14.2 24.5 15.1 24.5 C 15.5 24.5 16 24.3 16.4 24 C 16.4 24 16.7 24.5 16.7 24.5 C 16.3 25 15.7 25.2 15 25.2 C 13.7 25.2 12.8 24.3 12.8 22.9 C 12.8 21.6 13.7 20.6 14.9 20.6 Z M 13.6 22.6 C 13.6 22.6 16.3 22.6 16.3 22.6 C 16.2 22 15.8 21.3 14.9 21.3 C 14.1 21.3 13.6 22 13.6 22.6 Z M 23.3 22.2 C 23.3 21.7 23 21.4 22.5 21.4 C 22.1 21.4 21.6 21.7 21.4 22 C 21.42 21.97 21.4 25.1 21.4 25.1 L 20.6 25.1 C 20.6 25.1 20.61 22.19 20.6 22.2 C 20.6 21.7 20.4 21.4 19.8 21.4 C 19.4 21.4 19 21.7 18.8 22 C 18.78 21.98 18.8 25.1 18.8 25.1 L 18 25.1 L 18 20.7 L 18.8 20.7 C 18.8 20.7 18.78 21.35 18.8 21.4 C 19 21.1 19.5 20.6 20.2 20.6 C 20.8 20.6 21.2 21 21.4 21.4 C 21.6 21 22.2 20.6 22.8 20.6 C 23.6 20.6 24.1 21.1 24.1 21.9 C 24.07 21.94 24.1 25.1 24.1 25.1 L 23.3 25.1 C 23.3 25.1 23.26 22.19 23.3 22.2 Z " stroke="none" fill="#3797ef"/>
  </g>
  <g id="Polygon208306">
    <path d="M 6.2 4.1 C 6.2 4.1 6.2 10.8 6.2 10.8 C 6.2 12.5 5.2 13.2 3.6 13.2 C 3.6 13.2 3.4 13.2 3.4 13.2 C 1.7 13.2 0.7 12.5 0.7 10.8 C 0.7 10.8 0.7 4.1 0.7 4.1 C 0.7 2.4 1.7 1.8 3.4 1.8 C 3.4 1.8 3.6 1.8 3.6 1.8 C 5.2 1.8 6.2 2.4 6.2 4.1 Z M 3.5 3.4 C 2.9 3.4 2.5 3.6 2.5 4.4 C 2.5 4.4 2.5 10.6 2.5 10.6 C 2.5 11.4 2.9 11.6 3.5 11.6 C 4.1 11.6 4.4 11.4 4.4 10.6 C 4.4 10.6 4.4 4.4 4.4 4.4 C 4.4 3.6 4.1 3.4 3.5 3.4 Z M 9.3 13.1 L 7.5 13.1 L 7.5 11 L 9.3 11 L 9.3 13.1 Z M 16 4.1 C 16 4.1 16 10.8 16 10.8 C 16 12.5 15 13.2 13.3 13.2 C 13.3 13.2 13.2 13.2 13.2 13.2 C 11.5 13.2 10.5 12.5 10.5 10.8 C 10.5 10.8 10.5 4.1 10.5 4.1 C 10.5 2.4 11.5 1.8 13.2 1.8 C 13.2 1.8 13.3 1.8 13.3 1.8 C 15 1.8 16 2.4 16 4.1 Z M 13.2 3.4 C 12.7 3.4 12.3 3.6 12.3 4.4 C 12.3 4.4 12.3 10.6 12.3 10.6 C 12.3 11.4 12.7 11.6 13.2 11.6 C 13.8 11.6 14.2 11.4 14.2 10.6 C 14.2 10.6 14.2 4.4 14.2 4.4 C 14.2 3.6 13.8 3.4 13.2 3.4 Z M 22.8 4.1 C 22.8 4.1 22.8 10.8 22.8 10.8 C 22.8 12.5 21.8 13.2 20.1 13.2 C 20.1 13.2 20 13.2 20 13.2 C 18.3 13.2 17.3 12.5 17.3 10.8 C 17.3 10.8 17.3 4.1 17.3 4.1 C 17.3 2.4 18.3 1.8 20 1.8 C 20 1.8 20.1 1.8 20.1 1.8 C 21.8 1.8 22.8 2.4 22.8 4.1 Z M 20.1 3.4 C 19.5 3.4 19.1 3.6 19.1 4.4 C 19.1 4.4 19.1 10.6 19.1 10.6 C 19.1 11.4 19.5 11.6 20.1 11.6 C 20.7 11.6 21 11.4 21 10.6 C 21 10.6 21 4.4 21 4.4 C 21 3.6 20.7 3.4 20.1 3.4 Z M 26.9 3.1 C 26.9 3.1 26.9 5.3 26.9 5.3 C 26.9 6.2 26.3 6.6 25.5 6.6 C 25.5 6.6 25.3 6.6 25.3 6.6 C 24.5 6.6 23.9 6.2 23.9 5.3 C 23.9 5.3 23.9 3.1 23.9 3.1 C 23.9 2.2 24.5 1.8 25.3 1.8 C 25.3 1.8 25.5 1.8 25.5 1.8 C 26.3 1.8 26.9 2.2 26.9 3.1 Z M 25.4 13.1 L 24.4 13.1 L 29.6 1.9 L 30.6 1.9 L 25.4 13.1 Z M 25.5 2.8 C 25.5 2.8 25.3 2.8 25.3 2.8 C 25.1 2.8 24.9 2.9 24.9 3.3 C 24.9 3.3 24.9 5.1 24.9 5.1 C 24.9 5.5 25.1 5.6 25.3 5.6 C 25.3 5.6 25.5 5.6 25.5 5.6 C 25.7 5.6 25.9 5.5 25.9 5.1 C 25.9 5.1 25.9 3.3 25.9 3.3 C 25.9 2.9 25.7 2.8 25.5 2.8 Z M 31.1 9.7 C 31.1 9.7 31.1 11.8 31.1 11.8 C 31.1 12.8 30.4 13.1 29.7 13.1 C 29.7 13.1 29.5 13.1 29.5 13.1 C 28.7 13.1 28.1 12.8 28.1 11.8 C 28.1 11.8 28.1 9.7 28.1 9.7 C 28.1 8.8 28.7 8.4 29.5 8.4 C 29.5 8.4 29.7 8.4 29.7 8.4 C 30.4 8.4 31.1 8.8 31.1 9.7 Z M 29.6 9.4 C 29.6 9.4 29.5 9.4 29.5 9.4 C 29.3 9.4 29.1 9.5 29.1 9.9 C 29.1 9.9 29.1 11.6 29.1 11.6 C 29.1 12 29.3 12.2 29.5 12.2 C 29.5 12.2 29.6 12.2 29.6 12.2 C 29.9 12.2 30.1 12 30.1 11.6 C 30.1 11.6 30.1 9.9 30.1 9.9 C 30.1 9.5 29.9 9.4 29.6 9.4 Z " stroke="none" fill="#282828"/>
  </g>
</svg>