<?xml version="1.0" standalone="no"?><!DOCTYPE svg PUBLIC "-//W3C//DTD SVG 1.1//EN" "http://www.w3.org/Graphics/SVG/1.1/DTD/svg11.dtd"><svg xmlns="http://www.w3.org/2000/svg" version="1.1" width="63px" height="16.9px" viewBox="0 -4 63 16.9" style="top:-4px"><desc>Credit Rating</desc><defs/><g id="Polygon64304"><path d="m.4 4.1C.4 2.3 1.8 1 3.5 1c1.2 0 1.9.6 2.4 1.3l-.8.4c-.3-.5-.9-.9-1.6-.9c-1.2 0-2.2 1-2.2 2.3c0 1.4 1 2.3 2.2 2.3c.7 0 1.3-.4 1.6-.9l.8.4c-.5.8-1.2 1.3-2.4 1.3C1.8 7.2.4 6 .4 4.1zm6.3-1.3h.8s-.02.63 0 .6c.3-.4.8-.7 1.4-.7v.8h-.3c-.4 0-.9.3-1.1.6c-.02-.01 0 3 0 3h-.8V2.8zm4.8-.1c1.3 0 2.1 1 2.1 2.3c.04 0 0 .2 0 .2h-3.4c.1.7.6 1.4 1.5 1.4c.4 0 .9-.2 1.3-.6l.3.6c-.4.4-1 .6-1.7.6c-1.3 0-2.2-.9-2.2-2.3c0-1.2.9-2.2 2.1-2.2zm-1.3 1.9h2.7c-.1-.6-.5-1.3-1.4-1.3c-.8 0-1.3.7-1.3 1.3zm7.5 1.9c-.4.4-.9.7-1.5.7c-1.1 0-1.9-.8-1.9-2.3c0-1.4.8-2.2 1.9-2.2c.6 0 1.1.2 1.5.7c-.03-.01 0-2.3 0-2.3h.8v6h-.8s-.03-.61 0-.6zm0-2.5c-.3-.3-.7-.6-1.2-.6c-.8 0-1.4.6-1.4 1.5c0 .9.6 1.6 1.4 1.6c.5 0 .9-.3 1.2-.6V4zm1.9-2.5c0-.3.2-.5.5-.5c.3 0 .5.2.5.5c0 .3-.2.5-.5.5c-.3 0-.5-.2-.5-.5zm.1 1.3h.8v4.3h-.8V2.8zm2.2 3.3c-.05.05 0-2.6 0-2.6h-.8v-.7h.8V1.6h.8v1.2h.8v.7h-.8s-.04 2.47 0 2.5c0 .3.1.5.4.5c.2 0 .3-.1.4-.2l.2.6c-.1.2-.4.3-.8.3c-.7 0-1-.4-1-1.1zm6.7-1.3h-1.1v2.3h-.9v-6s2.53.01 2.5 0c1.2 0 2 .7 2 1.9c0 1-.8 1.6-1.5 1.7c-.04.01 1.5 2.4 1.5 2.4h-1l-1.5-2.3zm.4-2.9h-1.5v2.1h1.5c.7 0 1.1-.4 1.1-1c0-.7-.4-1.1-1.1-1.1zm5.6 4.7c-.4.4-.9.6-1.5.6c-.7 0-1.5-.5-1.5-1.4c0-1 .8-1.4 1.5-1.4c.6 0 1.1.1 1.5.5v-.7c0-.5-.5-.9-1.1-.9c-.5 0-.9.2-1.3.6l-.4-.5c.5-.5 1.1-.7 1.8-.7c1 0 1.8.4 1.8 1.5c-.03-.02 0 2.9 0 2.9h-.8s-.04-.47 0-.5zm0-1.2c-.3-.3-.7-.5-1.2-.5c-.5 0-1 .4-1 .9c0 .5.5.9 1 .9c.5 0 .9-.2 1.2-.5v-.8zm2.1.7c.04.05 0-2.6 0-2.6h-.7v-.7h.7V1.6h.8v1.2h.9v.7h-.9s.05 2.47 0 2.5c0 .3.2.5.5.5c.2 0 .3-.1.4-.2l.2.6c-.2.2-.4.3-.8.3c-.7 0-1.1-.4-1.1-1.1zm2.4-4.6c0-.3.3-.5.5-.5c.3 0 .6.2.6.5c0 .3-.3.5-.6.5c-.2 0-.5-.2-.5-.5zm.1 1.3h.8v4.3h-.8V2.8zm5 1.5c0-.7-.4-.9-.9-.9c-.6 0-1 .3-1.2.6c-.04 0 0 3.1 0 3.1h-.9V2.8h.9s-.04.57 0 .6c.2-.4.8-.7 1.5-.7c.9 0 1.4.4 1.4 1.4v3h-.8s-.02-2.77 0-2.8zm2.3 3.3c.4.4.8.6 1.4.6c.7 0 1.4-.3 1.4-1.2v-.6c-.3.4-.9.7-1.4.7c-1.2 0-2-.8-2-2.2c0-1.4.8-2.2 2-2.2c.5 0 1 .2 1.4.7c-.02-.01 0-.6 0-.6h.8v4.1c0 1.5-1.1 2-2.2 2c-.7 0-1.2-.2-1.7-.7l.3-.6zM49.3 4c-.2-.3-.7-.6-1.2-.6c-.8 0-1.3.6-1.3 1.5c0 .9.5 1.5 1.3 1.5c.5 0 1-.3 1.2-.6V4z" stroke="none" fill="#3797ef"/></g></svg>