<?xml version="1.0" standalone="no"?><!DOCTYPE svg PUBLIC "-//W3C//DTD SVG 1.1//EN" "http://www.w3.org/Graphics/SVG/1.1/DTD/svg11.dtd"><svg xmlns="http://www.w3.org/2000/svg" version="1.1" width="416.3px" height="27.9px" viewBox="0 -6 416.3 27.9" style="top:-6px"><desc>OPPORTUNITY TITLE</desc><defs/><g id="Polygon271830"><path d="m6.1 1.8c3.1 0 5.3 2.3 5.3 5.5c0 3.1-2.2 5.4-5.3 5.4c-3.2 0-5.4-2.3-5.4-5.4c0-3.2 2.2-5.5 5.4-5.5zm0 1.4c-2.3 0-3.7 1.7-3.7 4.1c0 2.3 1.4 4 3.7 4c2.2 0 3.7-1.7 3.7-4c0-2.4-1.5-4.1-3.7-4.1zM13.3 2s4.49-.05 4.5 0c2.2 0 3.4 1.4 3.4 3.2c0 1.8-1.3 3.3-3.4 3.3c-.01-.04-2.9 0-2.9 0v4h-1.6V2zm4.3 1.4c-.02-.05-2.7 0-2.7 0v3.7s2.68-.03 2.7 0c1.1 0 1.9-.8 1.9-1.9c0-1.1-.8-1.8-1.9-1.8zM22.8 2s4.47-.05 4.5 0c2.1 0 3.4 1.4 3.4 3.2c0 1.8-1.3 3.3-3.4 3.3c-.03-.04-2.9 0-2.9 0v4h-1.6V2zm4.3 1.4c-.04-.05-2.7 0-2.7 0v3.7s2.66-.03 2.7 0c1.1 0 1.9-.8 1.9-1.9c0-1.1-.8-1.8-1.9-1.8zm10.1-1.6c3.1 0 5.3 2.3 5.3 5.5c0 3.1-2.2 5.4-5.3 5.4c-3.2 0-5.4-2.3-5.4-5.4c0-3.2 2.2-5.5 5.4-5.5zm0 1.4c-2.3 0-3.7 1.7-3.7 4.1c0 2.3 1.4 4 3.7 4c2.2 0 3.7-1.7 3.7-4c0-2.4-1.5-4.1-3.7-4.1zM48 8.5h-2v4h-1.6V2s4.5-.05 4.5 0c2 0 3.4 1.3 3.4 3.2c0 1.9-1.3 2.9-2.6 3.1c-.04.01 2.7 4.2 2.7 4.2h-1.9l-2.5-4zm.7-5.1c-.01-.05-2.7 0-2.7 0v3.7s2.69-.03 2.7 0c1.1 0 2-.8 2-1.9c0-1.1-.9-1.8-2-1.8zm8 0h-3.3V2h8.1v1.4h-3.2v9.1h-1.6V3.4zM63.2 2h1.6v6.4c0 1.8 1 2.9 2.9 2.9c1.8 0 2.8-1.1 2.8-2.9V2h1.6v6.4c0 2.6-1.5 4.3-4.4 4.3c-3 0-4.5-1.7-4.5-4.3V2zm12.9 2.4v8.1h-1.6V2h1.6l5.8 7.9V2h1.6v10.5h-1.6l-5.8-8.1zM85.8 2h1.6v10.5h-1.6V2zm6.6 1.4h-3.3V2h8.1v1.4h-3.3v9.1h-1.5V3.4zm9.5 4.7L97.8 2h1.8l3.1 4.7l3.1-4.7h1.8l-4.1 6.1v4.4h-1.6V8.1zm13.7-4.7h-3.3V2h8.1v1.4h-3.2v9.1h-1.6V3.4zm6.5-1.4h1.6v10.5h-1.6V2zm6.5 1.4h-3.2V2h8.1v1.4h-3.3v9.1h-1.6V3.4zm6.6-1.4h1.5v9.2h4.9v1.3h-6.4V2zm8.1 0h7.1v1.4h-5.5v3h5.4v1.4h-5.4v3.4h5.5v1.3h-7.1V2z" stroke="none" fill="#88898a"/></g></svg>