<?xml version="1.0" standalone="no"?><!DOCTYPE svg PUBLIC "-//W3C//DTD SVG 1.1//EN" "http://www.w3.org/Graphics/SVG/1.1/DTD/svg11.dtd"><svg xmlns="http://www.w3.org/2000/svg" xmlns:xlink="http://www.w3.org/1999/xlink" version="1.1" width="237px" height="46.9px" viewBox="0 -14 237 46.9" style="top:-14px"><desc/><defs/><g id="Polygon58611"><path d="m89.7 6.9l7-3.6v.8l-6.1 3.1l6.1 3.1v.8l-7-3.6v-.6zm7.9 0l7-3.6v.8l-6.2 3.1l6.2 3.1v.8l-7-3.6v-.6zm12 1.3h-2.3v4.3h-.9V2s3.91-.05 3.9 0c1.8 0 3.2 1.1 3.2 3.1c0 1.9-1.3 2.9-2.9 3l3.1 4.4h-1.1l-3-4.3zm.6-5.4c.03-.02-2.9 0-2.9 0v4.5s2.93.04 2.9 0c1.4 0 2.4-.9 2.4-2.2c0-1.4-1-2.3-2.4-2.3zm8.3 1.9c2.4 0 3.7 1.8 3.7 4.1c-.05-.05 0 .2 0 .2c0 0-6.46-.03-6.5 0c.1 1.6 1.2 3 3 3c1 0 1.9-.3 2.5-1l.5.5c-.8.8-1.8 1.2-3 1.2c-2.3 0-3.9-1.6-3.9-4c0-2.2 1.6-4 3.7-4zm-2.8 3.6h5.6c0-1.3-.9-2.9-2.8-2.9c-1.8 0-2.7 1.6-2.8 2.9zm13.8-.9c0-1.5-.8-2-1.9-2c-1 0-2 .7-2.5 1.3v5.8h-.8V4.9h.8s.01 1.13 0 1.1c.6-.6 1.7-1.3 2.8-1.3c1.5 0 2.4.7 2.4 2.5c-.02-.02 0 5.3 0 5.3h-.8s-.04-5.13 0-5.1zm6.6-2.7c2.3 0 3.6 1.8 3.6 4.1c.03-.05 0 .2 0 .2c0 0-6.38-.03-6.4 0c.1 1.6 1.2 3 3 3c1 0 1.9-.3 2.5-1l.5.5c-.8.8-1.8 1.2-3 1.2c-2.3 0-3.9-1.6-3.9-4c0-2.2 1.6-4 3.7-4zm-2.8 3.6h5.6c0-1.3-.9-2.9-2.8-2.9c-1.8 0-2.7 1.6-2.8 2.9zm13-2.3l-2.2 6.5h-.8l-2.5-7.6h.9l2.1 6.5l2.1-6.5h.7l2.2 6.5l2-6.5h.9l-2.5 7.6h-.8L146.3 6zm11.9 5.6c-.7.8-1.6 1.1-2.6 1.1c-1.4 0-2.7-.9-2.7-2.5c0-1.7 1.3-2.5 2.7-2.5c1 0 1.9.3 2.6 1V7.2c0-1.1-1-1.8-2.1-1.8c-1 0-1.7.3-2.4 1.1l-.5-.5c.8-.9 1.7-1.3 3-1.3c1.5 0 2.8.7 2.8 2.4c-.02.05 0 5.4 0 5.4h-.8s-.04-.86 0-.9zm0-2.2c-.6-.7-1.4-1.1-2.4-1.1c-1.2 0-2.1.8-2.1 1.9c0 1.1.9 1.9 2.1 1.9c1 0 1.8-.4 2.4-1.1V9.4zm3.4-7.4h.8v10.5h-.8V2zm12.3-.2c3 0 5.1 2.4 5.1 5.5c0 3.1-2.1 5.4-5.1 5.4c-3.2 0-5.2-2.3-5.2-5.4c0-3.1 2-5.5 5.2-5.5zm0 .8c-2.6 0-4.2 2-4.2 4.7c0 2.6 1.6 4.6 4.2 4.6c2.5 0 4.1-2 4.1-4.6c0-2.7-1.6-4.7-4.1-4.7zm7.3 12.9V4.9h.8s.03 1.2 0 1.2c.6-.8 1.6-1.4 2.7-1.4c2 0 3.4 1.5 3.4 4c0 2.5-1.4 4-3.4 4c-1.1 0-2.1-.5-2.7-1.4c.03.01 0 4.2 0 4.2h-.8zm3.4-10.1c-1.1 0-2.1.7-2.6 1.4v3.8c.5.7 1.5 1.4 2.6 1.4c1.7 0 2.6-1.4 2.6-3.3c0-1.9-.9-3.3-2.6-3.3zm5.8 5.7c.02-.03 0-5.5 0-5.5h-1.3v-.7h1.3V2.8h.9v2.1h1.5v.7h-1.5s-.04 5.34 0 5.3c0 .7.2 1.1.8 1.1c.3 0 .6-.2.8-.4l.3.7c-.3.2-.6.4-1.3.4c-1 0-1.5-.6-1.5-1.6zm4-8.2c0-.3.3-.6.6-.6c.4 0 .7.3.7.6c0 .4-.3.7-.7.7c-.3 0-.6-.3-.6-.7zm.2 2h.8v7.6h-.8V4.9zm3 3.8c0-2.2 1.4-4 3.7-4c2.2 0 3.7 1.8 3.7 4c0 2.2-1.5 4-3.7 4c-2.3 0-3.7-1.8-3.7-4zm6.5 0c0-1.7-1-3.3-2.8-3.3c-1.8 0-2.8 1.6-2.8 3.3c0 1.7 1 3.3 2.8 3.3c1.8 0 2.8-1.6 2.8-3.3zm8.2-1.3c0-1.5-.8-2-1.9-2c-1 0-2 .7-2.5 1.3c.02.05 0 5.8 0 5.8h-.8V4.9h.8s.02 1.13 0 1.1c.6-.6 1.7-1.3 2.8-1.3c1.5 0 2.4.7 2.4 2.5v5.3h-.8s-.03-5.13 0-5.1zm3.2 3.5c.5.6 1.4 1.1 2.5 1.1c1.3 0 2-.6 2-1.5c0-1-1-1.3-2.1-1.5c-1.3-.4-2.7-.7-2.7-2.2c0-1.2 1-2.1 2.7-2.1c1.3 0 2.2.5 2.8 1.1l-.5.6c-.4-.6-1.3-1-2.3-1c-1.2 0-1.9.6-1.9 1.4c0 .8 1 1.1 2 1.3c1.4.4 2.8.7 2.8 2.4c0 1.2-.9 2.2-2.8 2.2c-1.3 0-2.2-.3-3-1.2l.5-.6zm6.6-.6l6.2-3.1l-6.2-3.1v-.8l7 3.6v.6l-7 3.6v-.8zm7.9 0l6.1-3.1l-6.1-3.1v-.8l7 3.6v.6l-7 3.6v-.8z" stroke="none" fill="#000"/><a xlink:href="DBF_Renewal%20Options" xlink:show="new" xlink:title="&lt;&lt;Renewal Options&gt;&gt;"><rect style="fill:transparent;" x="89" y="1" width="148" height="15"/></a></g></svg>