<?xml version="1.0" standalone="no"?><!DOCTYPE svg PUBLIC "-//W3C//DTD SVG 1.1//EN" "http://www.w3.org/Graphics/SVG/1.1/DTD/svg11.dtd"><svg xmlns="http://www.w3.org/2000/svg" xmlns:xlink="http://www.w3.org/1999/xlink" version="1.1" width="75.2px" height="32.4px" viewBox="0 -7 75.2 32.4" style="top:-7px"><desc>Agent 1</desc><defs/><g id="Polygon43913"><path d="m5.4 12.8c.04 0 0 1.4 0 1.4H4.3v-1.4c-1.6-.1-2.9-.8-3.7-1.7l.9-1.2c.7.7 1.6 1.3 2.8 1.5V7.9C2.7 7.5 1 6.9 1 4.8c0-1.6 1.3-2.8 3.3-3V.4h1.1s.04 1.44 0 1.4c1.4.2 2.4.7 3.2 1.5l-.9 1.2c-.6-.7-1.4-1-2.3-1.2v3.1c1.7.5 3.5 1.1 3.5 3.2c0 1.6-1 3-3.5 3.2zM4.3 6.1V3.2c-1 .1-1.7.7-1.7 1.5c0 .8.7 1.2 1.7 1.4zm2.9 3.7c0-1-.8-1.3-1.8-1.6v3.2c1.4-.2 1.8-1 1.8-1.6z" stroke="none" fill="#282828"/><a xlink:href="DBF_Price%20/%20SF" xlink:show="new" xlink:title="&lt;&lt;Price / SF&gt;&gt;"><rect style="fill:transparent;" x="8" y="1" width="60" height="12"/></a></g><g id="Polygon43914"><path d="m9.4 6.8l7.1-3.4v1.1l-5.9 2.8l5.9 2.8v1.1L9.4 7.8v-1zm7.9 0l7-3.4v1.1l-5.9 2.8l5.9 2.8v1.1l-7-3.4v-1zM25.8 2s4.52-.03 4.5 0c2.2 0 3.4 1.5 3.4 3.2c0 1.8-1.2 3.3-3.4 3.3c.02.03-2.9 0-2.9 0v4.1h-1.6V2zm4.3 1.4c.01-.02-2.7 0-2.7 0v3.7s2.71.02 2.7 0c1.2 0 2-.7 2-1.9c0-1.1-.8-1.8-2-1.8zm5.1 1.5h1.4s.02 1.2 0 1.2c.6-.8 1.5-1.4 2.6-1.4v1.5c-.2 0-.4-.1-.5-.1c-.8 0-1.7.6-2.1 1.2c.02-.04 0 5.3 0 5.3h-1.4V4.9zm5-2.2c0-.5.4-.9.9-.9c.5 0 1 .4 1 .9c0 .5-.5.9-1 .9c-.5 0-.9-.4-.9-.9zm.2 2.2h1.5v7.7h-1.5V4.9zm7.1-.2c1.4 0 2.3.6 2.9 1.4l-1 .9c-.5-.7-1.1-1-1.9-1C46 6 45 7.2 45 8.8c0 1.6 1 2.8 2.5 2.8c.8 0 1.4-.4 1.9-1l1 .9c-.6.7-1.5 1.3-2.9 1.3c-2.4 0-4-1.7-4-4c0-2.4 1.6-4.1 4-4.1zm7.7 0c2.3 0 3.7 1.8 3.7 4.2c.03 0 0 .3 0 .3c0 0-6.08.05-6.1 0c.1 1.4 1.1 2.4 2.6 2.4c.9 0 1.8-.3 2.3-.9l.7 1c-.8.7-1.9 1.1-3.1 1.1c-2.3 0-4-1.6-4-4c0-2.3 1.6-4.1 3.9-4.1zm-2.4 3.5h4.7c0-1-.7-2.3-2.3-2.3c-1.6 0-2.3 1.3-2.4 2.3zm14.4-6.6h1.1L64.5 13h-1.1l3.8-11.4z" stroke="none" fill="#282828"/></g></svg>