<?xml version="1.0" standalone="no"?><!DOCTYPE svg PUBLIC "-//W3C//DTD SVG 1.1//EN" "http://www.w3.org/Graphics/SVG/1.1/DTD/svg11.dtd"><svg xmlns="http://www.w3.org/2000/svg" version="1.1" width="208.1px" height="16.9px" viewBox="0 -4 208.1 16.9" style="top:-4px"><desc>CONTACT Richard Brehaut</desc><defs/><g id="Polygon87194"><path d="m84.5 4.1c0-1.8 1.3-3.1 3-3.1c1.2 0 2 .6 2.4 1.3l-.7.4c-.4-.5-1-.9-1.7-.9c-1.2 0-2.1 1-2.1 2.3c0 1.4.9 2.3 2.1 2.3c.7 0 1.3-.4 1.7-.9l.7.4c-.5.8-1.2 1.3-2.4 1.3c-1.7 0-3-1.2-3-3.1zM93.6 1c1.8 0 3 1.3 3 3.1c0 1.8-1.2 3.1-3 3.1c-1.8 0-3-1.3-3-3.1c0-1.8 1.2-3.1 3-3.1zm0 .8c-1.3 0-2.1 1-2.1 2.3c0 1.3.8 2.3 2.1 2.3c1.3 0 2.1-1 2.1-2.3c0-1.3-.8-2.3-2.1-2.3zm5 .7v4.6h-.9v-6h.9l3.3 4.5V1.1h.9v6h-.9l-3.3-4.6zm7-.6h-1.9v-.8h4.7v.8h-1.9v5.2h-.9V1.9zm6.9 4h-3l-.4 1.2h-1l2.4-6h1.1l2.4 6h-1l-.5-1.2zm-2.7-.8h2.4L111 1.9l-1.2 3.2zm4.3-1c0-1.8 1.4-3.1 3.1-3.1c1.2 0 1.9.6 2.4 1.3l-.8.4c-.3-.5-.9-.9-1.6-.9c-1.2 0-2.2 1-2.2 2.3c0 1.4 1 2.3 2.2 2.3c.7 0 1.3-.4 1.6-.9l.8.4c-.5.8-1.2 1.3-2.4 1.3c-1.7 0-3.1-1.2-3.1-3.1zm7.8-2.2h-1.8v-.8h4.6v.8h-1.9v5.2h-.9V1.9zm8.1 2.9h-1.1v2.3h-.9v-6s2.48.01 2.5 0c1.1 0 1.9.7 1.9 1.9c0 1-.7 1.6-1.5 1.7c.02.01 1.6 2.4 1.6 2.4h-1.1L130 4.8zm.4-2.9h-1.5v2.1h1.5c.6 0 1.1-.4 1.1-1c0-.7-.5-1.1-1.1-1.1zm3.1-.8h.9v6h-.9v-6zm2 3c0-1.8 1.4-3.1 3.1-3.1c1.2 0 1.9.6 2.4 1.3l-.8.4c-.3-.5-.9-.9-1.6-.9c-1.2 0-2.2 1-2.2 2.3c0 1.4 1 2.3 2.2 2.3c.7 0 1.3-.4 1.6-.9l.8.4c-.5.8-1.2 1.3-2.4 1.3c-1.7 0-3.1-1.2-3.1-3.1zm10.6.3h-3.3v2.7h-.9v-6h.9v2.5h3.3V1.1h.9v6h-.9V4.4zm6 1.5h-2.9l-.5 1.2h-1l2.4-6h1.1l2.4 6h-1l-.5-1.2zm-2.7-.8h2.5l-1.3-3.2l-1.2 3.2zm6.9-.3h-1.1v2.3h-.9v-6s2.54.01 2.5 0c1.2 0 2 .7 2 1.9c0 1-.8 1.6-1.5 1.7c-.02.01 1.5 2.4 1.5 2.4h-1l-1.5-2.3zm.4-2.9h-1.5v2.1h1.5c.7 0 1.1-.4 1.1-1c0-.7-.4-1.1-1.1-1.1zm3.2-.8h2.1c1.9 0 3.1 1.3 3.1 3c0 1.8-1.2 3-3.1 3h-2.1v-6zm2.1 5.2c1.4 0 2.2-1 2.2-2.2c0-1.2-.8-2.2-2.2-2.2h-1.2v4.4s1.22.02 1.2 0zm6.5-5.2h2.9c1 0 1.7.7 1.7 1.5c0 .8-.5 1.3-1.1 1.4c.6.1 1.2.8 1.2 1.5c0 .9-.7 1.6-1.8 1.6h-2.9v-6zm2.7 2.6c.6 0 .9-.4.9-.9c0-.5-.3-.9-.9-.9h-1.8v1.8s1.79-.05 1.8 0zm0 2.6c.7 0 1-.3 1-.9c0-.5-.3-1-1-1c.03.05-1.8 0-1.8 0v1.9s1.83.02 1.8 0zm5.1-1.5h-1.1v2.3h-.9v-6s2.51.01 2.5 0c1.2 0 1.9.7 1.9 1.9c0 1-.7 1.6-1.5 1.7c.05.01 1.6 2.4 1.6 2.4h-1.1l-1.4-2.3zm.4-2.9h-1.5v2.1h1.5c.6 0 1.1-.4 1.1-1c0-.7-.5-1.1-1.1-1.1zm3.1-.8h4.1v.8h-3.2v1.8h3.1v.7h-3.1v1.9h3.2v.8h-4.1v-6zm9.4 3.3h-3.3v2.7h-.9v-6h.9v2.5h3.3V1.1h.9v6h-.9V4.4zm6.1 1.5h-3l-.5 1.2h-1l2.4-6h1.1l2.4 6h-1l-.4-1.2zm-2.7-.8h2.4l-1.2-3.2l-1.2 3.2zm4.6-4h.9s.01 3.63 0 3.6c0 1.1.6 1.7 1.6 1.7c1.1 0 1.6-.6 1.6-1.7c.04.03 0-3.6 0-3.6h.9s.05 3.65 0 3.7c0 1.4-.8 2.4-2.5 2.4c-1.7 0-2.5-1-2.5-2.4V1.1zm7.9.8h-1.9v-.8h4.6v.8H206v5.2h-.9V1.9z" stroke="none" fill="#3797ef"/></g></svg>