<?xml version="1.0" standalone="no"?><!DOCTYPE svg PUBLIC "-//W3C//DTD SVG 1.1//EN" "http://www.w3.org/Graphics/SVG/1.1/DTD/svg11.dtd"><svg xmlns="http://www.w3.org/2000/svg" version="1.1" width="343px" height="29.9px" viewBox="0 -7 343 29.9" style="top:-7px"><desc>10</desc><defs/><g id="Polygon64943"><path d="m3.1 4.3L1.3 6.2l-1-1.1l3-3h1.5v11.2H3.1v-9zm8.1-2.4c3.1 0 4.4 3 4.4 5.8c0 2.8-1.3 5.8-4.4 5.8c-3.1 0-4.4-3-4.4-5.8c0-2.8 1.3-5.8 4.4-5.8zm0 1.5c-2 0-2.7 2.1-2.7 4.3c0 2.2.7 4.3 2.7 4.3c2 0 2.7-2.1 2.7-4.3c0-2.2-.7-4.3-2.7-4.3z" stroke="none" fill="#88898a"/></g></svg>