<?xml version="1.0" standalone="no"?>
<!DOCTYPE svg PUBLIC "-//W3C//DTD SVG 1.1//EN" "http://www.w3.org/Graphics/SVG/1.1/DTD/svg11.dtd">
<svg xmlns="http://www.w3.org/2000/svg" version="1.1" width="237px" height="46.5px" viewBox="0 -10 237 46.5" style="top:-10px">
  <desc>Lorem Ipsum</desc>
  <defs/>
  <g id="Polygon273206">
    <path d="M 9.7 22 L 1.4 22 L 1.4 2.3 L 4.7 2.3 L 4.7 19.1 L 9.7 19.1 L 9.7 22 Z M 16.1 2 C 16.1 2 16.3 2 16.3 2 C 19.3 2 21.3 3.2 21.3 6.2 C 21.3 6.2 21.3 18.1 21.3 18.1 C 21.3 21.1 19.3 22.2 16.3 22.2 C 16.3 22.2 16.1 22.2 16.1 22.2 C 13.1 22.2 11.1 21.1 11.1 18.1 C 11.1 18.1 11.1 6.2 11.1 6.2 C 11.1 3.2 13.1 2 16.1 2 Z M 16.2 19.4 C 17.3 19.4 18 19 18 17.6 C 18 17.6 18 6.7 18 6.7 C 18 5.3 17.3 4.9 16.2 4.9 C 15.1 4.9 14.4 5.3 14.4 6.7 C 14.4 6.7 14.4 17.6 14.4 17.6 C 14.4 19 15.1 19.4 16.2 19.4 Z M 31.1 22 L 28.6 14.1 L 27 14.1 L 27 22 L 23.7 22 L 23.7 2.3 C 23.7 2.3 28.8 2.26 28.8 2.3 C 31.8 2.3 33.8 3.4 33.8 6.4 C 33.8 6.4 33.8 10 33.8 10 C 33.8 11.9 33 13 31.6 13.6 C 31.62 13.64 34.4 22 34.4 22 L 31.1 22 Z M 27 11.3 C 27 11.3 28.69 11.32 28.7 11.3 C 29.8 11.3 30.5 10.9 30.5 9.5 C 30.5 9.5 30.5 6.9 30.5 6.9 C 30.5 5.5 29.8 5.1 28.7 5.1 C 28.69 5.14 27 5.1 27 5.1 L 27 11.3 Z M 36.1 22 L 36.1 2.3 L 44.8 2.3 L 44.8 5.1 L 39.4 5.1 L 39.4 10.6 L 43.9 10.6 L 43.9 13.4 L 39.4 13.4 L 39.4 19.1 L 44.9 19.1 L 44.9 22 L 36.1 22 Z M 54.8 19.1 L 52.9 19.1 L 50 9.9 L 50 22 L 46.9 22 L 46.9 2.3 L 50 2.3 L 53.8 13.8 L 57.7 2.3 L 60.9 2.3 L 60.9 22 L 57.7 22 L 57.7 9.9 L 54.8 19.1 Z M 67.8 22 L 67.8 2.3 L 71.1 2.3 L 71.1 22 L 67.8 22 Z M 83.8 6.4 C 83.8 6.4 83.8 10.2 83.8 10.2 C 83.8 13.2 81.8 14.4 78.8 14.4 C 78.83 14.37 77 14.4 77 14.4 L 77 22 L 73.7 22 L 73.7 2.3 C 73.7 2.3 78.83 2.26 78.8 2.3 C 81.8 2.3 83.8 3.4 83.8 6.4 Z M 80.5 6.9 C 80.5 5.5 79.8 5.1 78.7 5.1 C 78.72 5.14 77 5.1 77 5.1 L 77 11.5 C 77 11.5 78.72 11.49 78.7 11.5 C 79.8 11.5 80.5 11.1 80.5 9.7 C 80.5 9.7 80.5 6.9 80.5 6.9 Z M 91.8 9.3 C 91.8 9.3 91.76 6.55 91.8 6.6 C 91.8 5.3 91.1 4.9 90.1 4.9 C 89.1 4.9 88.4 5.3 88.4 6.6 C 88.4 6.6 88.4 7.9 88.4 7.9 C 88.4 8.9 88.8 9.4 89.7 9.9 C 89.7 9.9 92 11.2 92 11.2 C 93.9 12.3 95 13.2 95 15.3 C 95 15.3 95 18.1 95 18.1 C 95 21.2 93.1 22.2 90.2 22.2 C 90.2 22.2 90.1 22.2 90.1 22.2 C 87.1 22.2 85.2 21.2 85.2 18.1 C 85.21 18.13 85.2 14.7 85.2 14.7 L 88.4 14.7 C 88.4 14.7 88.43 17.68 88.4 17.7 C 88.4 18.9 89.1 19.4 90.1 19.4 C 91.1 19.4 91.8 18.9 91.8 17.7 C 91.8 17.7 91.8 16.1 91.8 16.1 C 91.8 15.1 91.5 14.6 90.5 14.1 C 90.5 14.1 88.2 12.8 88.2 12.8 C 86.3 11.7 85.2 10.8 85.2 8.7 C 85.2 8.7 85.2 6.1 85.2 6.1 C 85.2 3.2 87.4 2 90.1 2 C 90.1 2 90.1 2 90.1 2 C 92.8 2 95 3.2 95 6.1 C 94.98 6.1 95 9.3 95 9.3 L 91.8 9.3 Z M 107 18.1 C 107 21.1 105.1 22.2 102.1 22.2 C 102.1 22.2 102 22.2 102 22.2 C 99 22.2 97.1 21.1 97.1 18.1 C 97.07 18.07 97.1 2.3 97.1 2.3 L 100.3 2.3 C 100.3 2.3 100.35 17.56 100.3 17.6 C 100.3 19 101 19.4 102 19.4 C 103.1 19.4 103.7 19 103.7 17.6 C 103.74 17.56 103.7 2.3 103.7 2.3 L 107 2.3 C 107 2.3 107.01 18.07 107 18.1 Z M 117.3 19.1 L 115.5 19.1 L 112.5 9.9 L 112.5 22 L 109.5 22 L 109.5 2.3 L 112.6 2.3 L 116.4 13.8 L 120.3 2.3 L 123.5 2.3 L 123.5 22 L 120.3 22 L 120.3 9.9 L 117.3 19.1 Z " stroke="none" fill="#282828"/>
  </g>
</svg>