<?xml version="1.0" standalone="no"?><!DOCTYPE svg PUBLIC "-//W3C//DTD SVG 1.1//EN" "http://www.w3.org/Graphics/SVG/1.1/DTD/svg11.dtd"><svg xmlns="http://www.w3.org/2000/svg" version="1.1" width="237px" height="26.9px" viewBox="0 -6 237 26.9" style="top:-6px"><desc>29406</desc><defs/><g id="Polygon89121"><path d="m191.8 11.8c3.6-2.9 6-5 6-7c0-1.5-1.2-2.2-2.4-2.2c-1.3 0-2.3.6-2.9 1.4l-.6-.6c.7-1 2-1.6 3.5-1.6c1.6 0 3.4.9 3.4 3c0 2.3-2.5 4.4-5.6 6.9c.03.02 5.6 0 5.6 0v.8h-7v-.7zm10.3-1.1c.6.7 1.2 1.2 2.4 1.2c2.3 0 3.1-2.4 3.1-4.7v-.4c-.5.7-1.7 1.7-3.1 1.7c-1.9 0-3.4-1.1-3.4-3.3c0-1.8 1.3-3.4 3.5-3.4c2.9 0 3.9 2.6 3.9 5.5c0 2.7-1.1 5.4-4 5.4c-1.4 0-2.3-.5-2.9-1.3l.5-.7zm2.6-8.1c-1.9 0-2.7 1.4-2.7 2.5c0 1.8 1.1 2.6 2.6 2.6c1.2 0 2.3-.7 2.9-1.8c-.1-1.5-.9-3.3-2.8-3.3zM215 9.7h-5v-.9l4.7-6.8h1.2v6.8h1.6v.9h-1.6v2.8h-.9V9.7zm-4.1-.9h4.1V2.9l-4.1 5.9zm12-7c2.8 0 3.9 2.9 3.9 5.5c0 2.5-1.1 5.4-3.9 5.4c-2.9 0-3.9-2.9-3.9-5.4c0-2.6 1-5.5 3.9-5.5zm0 .8c-2.3 0-3 2.5-3 4.7c0 2.1.7 4.6 3 4.6c2.2 0 2.9-2.5 2.9-4.6c0-2.2-.7-4.7-2.9-4.7zm9.8-.8c1.3 0 2.2.6 2.8 1.3l-.5.7c-.5-.7-1.2-1.2-2.3-1.2c-2.3 0-3.2 2.4-3.2 4.7v.5c.5-.8 1.7-1.8 3.1-1.8c2 0 3.5 1.1 3.5 3.4c0 1.7-1.3 3.3-3.6 3.3c-2.9 0-3.9-2.6-3.9-5.4c0-2.8 1.1-5.5 4.1-5.5zm-.2 5c-1.2 0-2.3.8-2.9 1.8c.1 1.5.9 3.3 2.9 3.3c1.8 0 2.6-1.4 2.6-2.5c0-1.8-1.1-2.6-2.6-2.6z" stroke="none" fill="#000"/></g></svg>