<?xml version="1.0" standalone="no"?>
<!DOCTYPE svg PUBLIC "-//W3C//DTD SVG 1.1//EN" "http://www.w3.org/Graphics/SVG/1.1/DTD/svg11.dtd">
<svg xmlns="http://www.w3.org/2000/svg" version="1.1" width="89.3px" height="16.9px" viewBox="0 -4 89.3 16.9" style="top:-4px">
  <desc>Commencement Date</desc>
  <defs/>
  <g id="Polygon274232">
    <path d="M 0.4 4.1 C 0.4 2.3 1.8 1 3.5 1 C 4.7 1 5.4 1.6 5.9 2.3 C 5.9 2.3 5.1 2.7 5.1 2.7 C 4.8 2.2 4.2 1.8 3.5 1.8 C 2.3 1.8 1.3 2.8 1.3 4.1 C 1.3 5.5 2.3 6.4 3.5 6.4 C 4.2 6.4 4.8 6 5.1 5.5 C 5.1 5.5 5.9 5.9 5.9 5.9 C 5.4 6.7 4.7 7.2 3.5 7.2 C 1.8 7.2 0.4 6 0.4 4.1 Z M 6.5 4.9 C 6.5 3.7 7.3 2.7 8.7 2.7 C 10 2.7 10.9 3.7 10.9 4.9 C 10.9 6.2 10 7.2 8.7 7.2 C 7.3 7.2 6.5 6.2 6.5 4.9 Z M 10 4.9 C 10 4.1 9.6 3.4 8.7 3.4 C 7.8 3.4 7.3 4.1 7.3 4.9 C 7.3 5.8 7.8 6.5 8.7 6.5 C 9.6 6.5 10 5.8 10 4.9 Z M 17.2 4.2 C 17.2 3.7 17 3.4 16.4 3.4 C 16 3.4 15.6 3.7 15.4 4 C 15.35 4 15.4 7.1 15.4 7.1 L 14.5 7.1 C 14.5 7.1 14.54 4.21 14.5 4.2 C 14.5 3.7 14.3 3.4 13.8 3.4 C 13.4 3.4 12.9 3.7 12.7 4 C 12.72 4 12.7 7.1 12.7 7.1 L 11.9 7.1 L 11.9 2.8 L 12.7 2.8 C 12.7 2.8 12.72 3.37 12.7 3.4 C 12.9 3.1 13.5 2.7 14.1 2.7 C 14.8 2.7 15.2 3 15.3 3.5 C 15.6 3.1 16.1 2.7 16.8 2.7 C 17.6 2.7 18 3.1 18 4 C 18 3.97 18 7.1 18 7.1 L 17.2 7.1 C 17.2 7.1 17.19 4.21 17.2 4.2 Z M 24.6 4.2 C 24.6 3.7 24.3 3.4 23.8 3.4 C 23.4 3.4 22.9 3.7 22.7 4 C 22.73 4 22.7 7.1 22.7 7.1 L 21.9 7.1 C 21.9 7.1 21.92 4.21 21.9 4.2 C 21.9 3.7 21.7 3.4 21.2 3.4 C 20.7 3.4 20.3 3.7 20.1 4 C 20.1 4 20.1 7.1 20.1 7.1 L 19.3 7.1 L 19.3 2.8 L 20.1 2.8 C 20.1 2.8 20.1 3.37 20.1 3.4 C 20.3 3.1 20.9 2.7 21.5 2.7 C 22.2 2.7 22.5 3 22.7 3.5 C 22.9 3.1 23.5 2.7 24.1 2.7 C 24.9 2.7 25.4 3.1 25.4 4 C 25.38 3.97 25.4 7.1 25.4 7.1 L 24.6 7.1 C 24.6 7.1 24.57 4.21 24.6 4.2 Z M 28.6 2.7 C 29.9 2.7 30.7 3.7 30.7 5 C 30.69 5 30.7 5.2 30.7 5.2 C 30.7 5.2 27.25 5.2 27.3 5.2 C 27.3 5.9 27.9 6.6 28.7 6.6 C 29.2 6.6 29.7 6.4 30 6 C 30 6 30.4 6.6 30.4 6.6 C 30 7 29.3 7.2 28.6 7.2 C 27.4 7.2 26.4 6.3 26.4 4.9 C 26.4 3.7 27.3 2.7 28.6 2.7 Z M 27.2 4.6 C 27.2 4.6 29.9 4.6 29.9 4.6 C 29.9 4 29.5 3.3 28.6 3.3 C 27.7 3.3 27.3 4 27.2 4.6 Z M 34.6 4.3 C 34.6 3.6 34.3 3.4 33.7 3.4 C 33.2 3.4 32.8 3.7 32.5 4 C 32.52 4 32.5 7.1 32.5 7.1 L 31.7 7.1 L 31.7 2.8 L 32.5 2.8 C 32.5 2.8 32.52 3.37 32.5 3.4 C 32.8 3 33.4 2.7 34.1 2.7 C 35 2.7 35.5 3.1 35.5 4.1 C 35.45 4.06 35.5 7.1 35.5 7.1 L 34.6 7.1 C 34.6 7.1 34.64 4.33 34.6 4.3 Z M 38.7 2.7 C 39.5 2.7 40 3 40.3 3.4 C 40.3 3.4 39.8 3.9 39.8 3.9 C 39.5 3.5 39.2 3.4 38.7 3.4 C 37.9 3.4 37.3 4 37.3 4.9 C 37.3 5.8 37.9 6.5 38.7 6.5 C 39.2 6.5 39.5 6.3 39.8 6 C 39.8 6 40.3 6.5 40.3 6.5 C 40 6.9 39.5 7.2 38.7 7.2 C 37.4 7.2 36.5 6.2 36.5 4.9 C 36.5 3.6 37.4 2.7 38.7 2.7 Z M 43.1 2.7 C 44.4 2.7 45.2 3.7 45.2 5 C 45.22 5 45.2 5.2 45.2 5.2 C 45.2 5.2 41.79 5.2 41.8 5.2 C 41.8 5.9 42.4 6.6 43.3 6.6 C 43.7 6.6 44.2 6.4 44.5 6 C 44.5 6 44.9 6.6 44.9 6.6 C 44.5 7 43.9 7.2 43.2 7.2 C 41.9 7.2 40.9 6.3 40.9 4.9 C 40.9 3.7 41.8 2.7 43.1 2.7 Z M 41.8 4.6 C 41.8 4.6 44.4 4.6 44.4 4.6 C 44.4 4 44 3.3 43.1 3.3 C 42.2 3.3 41.8 4 41.8 4.6 Z M 51.5 4.2 C 51.5 3.7 51.3 3.4 50.8 3.4 C 50.3 3.4 49.9 3.7 49.7 4 C 49.69 4 49.7 7.1 49.7 7.1 L 48.9 7.1 C 48.9 7.1 48.88 4.21 48.9 4.2 C 48.9 3.7 48.7 3.4 48.1 3.4 C 47.7 3.4 47.3 3.7 47.1 4 C 47.05 4 47.1 7.1 47.1 7.1 L 46.2 7.1 L 46.2 2.8 L 47.1 2.8 C 47.1 2.8 47.05 3.37 47.1 3.4 C 47.2 3.1 47.8 2.7 48.5 2.7 C 49.1 2.7 49.5 3 49.6 3.5 C 49.9 3.1 50.5 2.7 51.1 2.7 C 51.9 2.7 52.3 3.1 52.3 4 C 52.33 3.97 52.3 7.1 52.3 7.1 L 51.5 7.1 C 51.5 7.1 51.52 4.21 51.5 4.2 Z M 55.5 2.7 C 56.8 2.7 57.6 3.7 57.6 5 C 57.64 5 57.6 5.2 57.6 5.2 C 57.6 5.2 54.21 5.2 54.2 5.2 C 54.3 5.9 54.8 6.6 55.7 6.6 C 56.1 6.6 56.6 6.4 57 6 C 57 6 57.3 6.6 57.3 6.6 C 56.9 7 56.3 7.2 55.6 7.2 C 54.3 7.2 53.4 6.3 53.4 4.9 C 53.4 3.7 54.3 2.7 55.5 2.7 Z M 54.2 4.6 C 54.2 4.6 56.9 4.6 56.9 4.6 C 56.8 4 56.4 3.3 55.5 3.3 C 54.7 3.3 54.2 4 54.2 4.6 Z M 61.6 4.3 C 61.6 3.6 61.2 3.4 60.7 3.4 C 60.2 3.4 59.7 3.7 59.5 4 C 59.47 4 59.5 7.1 59.5 7.1 L 58.7 7.1 L 58.7 2.8 L 59.5 2.8 C 59.5 2.8 59.47 3.37 59.5 3.4 C 59.8 3 60.3 2.7 61 2.7 C 61.9 2.7 62.4 3.1 62.4 4.1 C 62.4 4.06 62.4 7.1 62.4 7.1 L 61.6 7.1 C 61.6 7.1 61.6 4.33 61.6 4.3 Z M 63.9 6.1 C 63.85 6.15 63.9 3.5 63.9 3.5 L 63.1 3.5 L 63.1 2.8 L 63.9 2.8 L 63.9 1.6 L 64.7 1.6 L 64.7 2.8 L 65.5 2.8 L 65.5 3.5 L 64.7 3.5 C 64.7 3.5 64.66 5.97 64.7 6 C 64.7 6.3 64.8 6.5 65.1 6.5 C 65.3 6.5 65.4 6.4 65.5 6.3 C 65.5 6.3 65.7 6.9 65.7 6.9 C 65.6 7.1 65.3 7.2 64.9 7.2 C 64.2 7.2 63.9 6.8 63.9 6.1 Z M 68.8 1.1 C 68.8 1.1 70.93 1.11 70.9 1.1 C 72.8 1.1 74 2.4 74 4.1 C 74 5.9 72.8 7.1 70.9 7.1 C 70.93 7.11 68.8 7.1 68.8 7.1 L 68.8 1.1 Z M 70.9 6.3 C 72.3 6.3 73.1 5.3 73.1 4.1 C 73.1 2.9 72.3 1.9 70.9 1.9 C 70.93 1.9 69.7 1.9 69.7 1.9 L 69.7 6.3 C 69.7 6.3 70.93 6.32 70.9 6.3 Z M 77.8 6.6 C 77.5 7 77 7.2 76.4 7.2 C 75.7 7.2 74.9 6.7 74.9 5.8 C 74.9 4.8 75.6 4.4 76.4 4.4 C 77 4.4 77.5 4.5 77.8 4.9 C 77.8 4.9 77.8 4.2 77.8 4.2 C 77.8 3.7 77.4 3.3 76.7 3.3 C 76.2 3.3 75.8 3.5 75.4 3.9 C 75.4 3.9 75.1 3.4 75.1 3.4 C 75.6 2.9 76.2 2.7 76.9 2.7 C 77.8 2.7 78.6 3.1 78.6 4.2 C 78.6 4.18 78.6 7.1 78.6 7.1 L 77.8 7.1 C 77.8 7.1 77.8 6.63 77.8 6.6 Z M 77.8 5.4 C 77.6 5.1 77.1 4.9 76.7 4.9 C 76.1 4.9 75.7 5.3 75.7 5.8 C 75.7 6.3 76.1 6.7 76.7 6.7 C 77.1 6.7 77.6 6.5 77.8 6.2 C 77.8 6.2 77.8 5.4 77.8 5.4 Z M 80.1 6.1 C 80.06 6.15 80.1 3.5 80.1 3.5 L 79.3 3.5 L 79.3 2.8 L 80.1 2.8 L 80.1 1.6 L 80.9 1.6 L 80.9 2.8 L 81.8 2.8 L 81.8 3.5 L 80.9 3.5 C 80.9 3.5 80.87 5.97 80.9 6 C 80.9 6.3 81 6.5 81.3 6.5 C 81.5 6.5 81.7 6.4 81.7 6.3 C 81.7 6.3 81.9 6.9 81.9 6.9 C 81.8 7.1 81.5 7.2 81.1 7.2 C 80.4 7.2 80.1 6.8 80.1 6.1 Z M 84.6 2.7 C 85.9 2.7 86.7 3.7 86.7 5 C 86.68 5 86.7 5.2 86.7 5.2 C 86.7 5.2 83.24 5.2 83.2 5.2 C 83.3 5.9 83.8 6.6 84.7 6.6 C 85.2 6.6 85.7 6.4 86 6 C 86 6 86.4 6.6 86.4 6.6 C 85.9 7 85.3 7.2 84.6 7.2 C 83.3 7.2 82.4 6.3 82.4 4.9 C 82.4 3.7 83.3 2.7 84.6 2.7 Z M 83.2 4.6 C 83.2 4.6 85.9 4.6 85.9 4.6 C 85.9 4 85.5 3.3 84.6 3.3 C 83.7 3.3 83.3 4 83.2 4.6 Z " stroke="none" fill="#000"/>
  </g>
</svg>