<?xml version="1.0" standalone="no"?><!DOCTYPE svg PUBLIC "-//W3C//DTD SVG 1.1//EN" "http://www.w3.org/Graphics/SVG/1.1/DTD/svg11.dtd"><svg xmlns="http://www.w3.org/2000/svg" xmlns:xlink="http://www.w3.org/1999/xlink" version="1.1" width="155.5px" height="46.9px" viewBox="0 -14 155.5 46.9" style="top:-14px"><desc/><defs/><g id="Polygon51731"><path d="m25.2 6.9l7-3.6v.8L26 7.2l6.2 3.1v.8l-7-3.6v-.6zm7.9 0L40 3.3v.8l-6.1 3.1l6.1 3.1v.8l-6.9-3.6v-.6zm13.5-5.1c3.1 0 5.1 2.4 5.1 5.5c0 3.1-2 5.4-5.1 5.4c-3.1 0-5.2-2.3-5.2-5.4c0-3.1 2.1-5.5 5.2-5.5zm0 .8c-2.6 0-4.2 2-4.2 4.7c0 2.6 1.6 4.6 4.2 4.6c2.5 0 4.2-2 4.2-4.6c0-2.7-1.7-4.7-4.2-4.7zM58.4 6l-2.2 6.5h-.8l-2.5-7.6h.9l2 6.5L58 4.9h.7l2.2 6.5l2-6.5h.9l-2.5 7.6h-.8L58.4 6zm12.1 1.4c0-1.5-.7-2-1.8-2c-1 0-2 .7-2.5 1.3c-.03.05 0 5.8 0 5.8h-.9V4.9h.9s-.03 1.13 0 1.1c.5-.6 1.6-1.3 2.7-1.3c1.6 0 2.4.7 2.4 2.5c.05-.02 0 5.3 0 5.3h-.8s.02-5.13 0-5.1zm6.7-2.7c2.3 0 3.6 1.8 3.6 4.1v.2s-6.42-.03-6.4 0c.1 1.6 1.2 3 3 3c1 0 1.8-.3 2.5-1l.4.5c-.7.8-1.7 1.2-3 1.2c-2.2 0-3.8-1.6-3.8-4c0-2.2 1.5-4 3.7-4zm-2.8 3.6h5.6c-.1-1.3-.9-2.9-2.8-2.9c-1.8 0-2.8 1.6-2.8 2.9zm8.5-3.4h.9s-.05 1.29 0 1.3c.6-.9 1.5-1.5 2.5-1.5v.9h-.4c-.7 0-1.8.7-2.1 1.4c-.05-.04 0 5.5 0 5.5h-.9V4.9zm4.9 6c.5.6 1.4 1.1 2.5 1.1c1.3 0 2-.6 2-1.5c0-1-1-1.3-2.1-1.5c-1.3-.4-2.7-.7-2.7-2.2c0-1.2 1-2.1 2.7-2.1c1.3 0 2.2.5 2.7 1.1l-.4.6c-.5-.6-1.3-1-2.3-1c-1.2 0-1.9.6-1.9 1.4c0 .8 1 1.1 2 1.3c1.3.4 2.8.7 2.8 2.4c0 1.2-.9 2.2-2.9 2.2c-1.2 0-2.1-.3-2.9-1.2l.5-.6zm12.6-3.6c0-1.5-.7-1.9-1.8-1.9c-1 0-2 .7-2.5 1.3c-.02.05 0 5.8 0 5.8h-.8V2h.8s-.02 4.03 0 4c.5-.6 1.6-1.3 2.7-1.3c1.6 0 2.5.7 2.5 2.4c-.05.05 0 5.4 0 5.4h-.9s.03-5.18 0-5.2zm3.2-4.4c0-.3.3-.6.6-.6c.4 0 .7.3.7.6c0 .4-.3.7-.7.7c-.3 0-.6-.3-.6-.7zm.2 2h.9v7.6h-.9V4.9zm3.4 10.6V4.9h.9s-.05 1.2 0 1.2c.5-.8 1.5-1.4 2.6-1.4c2.1 0 3.5 1.5 3.5 4c0 2.5-1.4 4-3.5 4c-1.1 0-2-.5-2.6-1.4c-.05.01 0 4.2 0 4.2h-.9zm3.4-10.1c-1.1 0-2.1.7-2.5 1.4v3.8c.4.7 1.4 1.4 2.5 1.4c1.7 0 2.7-1.4 2.7-3.3c0-1.9-1-3.3-2.7-3.3zm4.9 4.9l6.1-3.1l-6.1-3.1v-.8l6.9 3.6v.6l-6.9 3.6v-.8zm7.8 0l6.2-3.1l-6.2-3.1v-.8l7 3.6v.6l-7 3.6v-.8z" stroke="none" fill="#000"/><a xlink:href="DBF_Ownership" xlink:show="new" xlink:title="&lt;&lt;Ownership&gt;&gt;"><rect style="fill:transparent;" x="24" y="1" width="106" height="15"/></a></g></svg>