<?xml version="1.0" standalone="no"?>
<!DOCTYPE svg PUBLIC "-//W3C//DTD SVG 1.1//EN" "http://www.w3.org/Graphics/SVG/1.1/DTD/svg11.dtd">
<svg xmlns="http://www.w3.org/2000/svg" version="1.1" width="502px" height="27.9px" viewBox="0 -6 502 27.9" style="top:-6px">
  <desc>12345 STREET ADDRESS, CITY, STATE ZIP</desc>
  <defs/>
  <g id="Polygon263093">
    <path d="M 207.9 4 L 206.2 5.8 L 205.3 4.9 L 208.1 2 L 209.5 2 L 209.5 12.5 L 207.9 12.5 L 207.9 4 Z M 211.5 11.3 C 215.5 8.2 217.3 6.7 217.3 5 C 217.3 3.7 216.3 3.2 215.2 3.2 C 214 3.2 213 3.7 212.4 4.5 C 212.4 4.5 211.4 3.5 211.4 3.5 C 212.3 2.4 213.7 1.8 215.2 1.8 C 217.1 1.8 218.9 2.9 218.9 5 C 218.9 7.1 216.9 8.9 214 11.2 C 214.02 11.15 219 11.2 219 11.2 L 219 12.5 L 211.5 12.5 C 211.5 12.5 211.49 11.29 211.5 11.3 Z M 221.4 10 C 222 10.8 223.1 11.3 224.3 11.3 C 225.8 11.3 226.6 10.6 226.6 9.5 C 226.6 8.3 225.7 7.8 224.2 7.8 C 223.7 7.8 223.2 7.8 223 7.9 C 223 7.9 223 6.4 223 6.4 C 223.2 6.4 223.7 6.4 224.2 6.4 C 225.4 6.4 226.5 6 226.5 4.9 C 226.5 3.8 225.5 3.2 224.2 3.2 C 223.1 3.2 222.2 3.6 221.5 4.4 C 221.5 4.4 220.6 3.4 220.6 3.4 C 221.4 2.5 222.7 1.8 224.4 1.8 C 226.5 1.8 228.1 2.9 228.1 4.6 C 228.1 6.1 226.8 6.9 225.8 7.1 C 226.8 7.2 228.2 8 228.2 9.7 C 228.2 11.5 226.8 12.7 224.4 12.7 C 222.5 12.7 221.2 12 220.5 11 C 220.5 11 221.4 10 221.4 10 Z M 234.5 10 L 229.5 10 L 229.5 8.7 L 234 2 L 236.1 2 L 236.1 8.6 L 237.6 8.6 L 237.6 10 L 236.1 10 L 236.1 12.5 L 234.5 12.5 L 234.5 10 Z M 231.1 8.6 L 234.5 8.6 L 234.5 3.4 L 231.1 8.6 Z M 240 10 C 240.7 10.8 241.6 11.3 242.9 11.3 C 244.2 11.3 245.2 10.4 245.2 9.3 C 245.2 8 244.3 7.2 242.9 7.2 C 242 7.2 241.2 7.5 240.5 8.1 C 240.51 8.13 239.4 7.8 239.4 7.8 L 239.4 2 L 246.1 2 L 246.1 3.4 L 241 3.4 C 241 3.4 240.95 6.73 241 6.7 C 241.5 6.2 242.4 5.8 243.4 5.8 C 245.2 5.8 246.8 7 246.8 9.2 C 246.8 11.4 245.1 12.7 242.9 12.7 C 241.1 12.7 239.9 12.1 239 11.1 C 239 11.1 240 10 240 10 Z M 253 9.8 C 253.8 10.6 254.9 11.3 256.4 11.3 C 258.1 11.3 258.7 10.5 258.7 9.7 C 258.7 8.6 257.5 8.3 256.1 7.9 C 254.4 7.5 252.5 7 252.5 4.8 C 252.5 3.1 254 1.8 256.2 1.8 C 257.9 1.8 259.1 2.3 260.1 3.3 C 260.1 3.3 259.2 4.4 259.2 4.4 C 258.3 3.6 257.2 3.2 256.1 3.2 C 254.9 3.2 254.1 3.8 254.1 4.7 C 254.1 5.7 255.2 6 256.6 6.3 C 258.3 6.7 260.3 7.3 260.3 9.5 C 260.3 11.2 259.2 12.7 256.3 12.7 C 254.4 12.7 253 12.1 252.1 11.1 C 252.1 11.1 253 9.8 253 9.8 Z M 264.6 3.4 L 261.3 3.4 L 261.3 2 L 269.5 2 L 269.5 3.4 L 266.2 3.4 L 266.2 12.5 L 264.6 12.5 L 264.6 3.4 Z M 274.7 8.5 L 272.7 8.5 L 272.7 12.5 L 271.1 12.5 L 271.1 2 C 271.1 2 275.59 1.95 275.6 2 C 277.6 2 279 3.3 279 5.2 C 279 7.1 277.7 8.1 276.4 8.3 C 276.36 8.31 279.1 12.5 279.1 12.5 L 277.2 12.5 L 274.7 8.5 Z M 275.4 3.4 C 275.39 3.35 272.7 3.4 272.7 3.4 L 272.7 7.1 C 272.7 7.1 275.39 7.07 275.4 7.1 C 276.5 7.1 277.4 6.3 277.4 5.2 C 277.4 4.1 276.5 3.4 275.4 3.4 Z M 280.9 2 L 288.1 2 L 288.1 3.4 L 282.5 3.4 L 282.5 6.4 L 287.9 6.4 L 287.9 7.8 L 282.5 7.8 L 282.5 11.2 L 288.1 11.2 L 288.1 12.5 L 280.9 12.5 L 280.9 2 Z M 290 2 L 297.2 2 L 297.2 3.4 L 291.6 3.4 L 291.6 6.4 L 297 6.4 L 297 7.8 L 291.6 7.8 L 291.6 11.2 L 297.2 11.2 L 297.2 12.5 L 290 12.5 L 290 2 Z M 301.7 3.4 L 298.4 3.4 L 298.4 2 L 306.6 2 L 306.6 3.4 L 303.3 3.4 L 303.3 12.5 L 301.7 12.5 L 301.7 3.4 Z M 319 10.4 L 313.9 10.4 L 313 12.5 L 311.2 12.5 L 315.5 2 L 317.4 2 L 321.7 12.5 L 319.9 12.5 L 319 10.4 Z M 314.3 8.9 L 318.6 8.9 L 316.4 3.3 L 314.3 8.9 Z M 322.9 2 C 322.9 2 326.7 1.95 326.7 2 C 330 2 332.2 4.2 332.2 7.3 C 332.2 10.3 330 12.5 326.7 12.5 C 326.7 12.55 322.9 12.5 322.9 12.5 L 322.9 2 Z M 326.7 11.2 C 329.1 11.2 330.6 9.4 330.6 7.3 C 330.6 5.1 329.2 3.4 326.7 3.4 C 326.7 3.35 324.5 3.4 324.5 3.4 L 324.5 11.2 C 324.5 11.2 326.7 11.15 326.7 11.2 Z M 334.1 2 C 334.1 2 337.9 1.95 337.9 2 C 341.2 2 343.4 4.2 343.4 7.3 C 343.4 10.3 341.2 12.5 337.9 12.5 C 337.9 12.55 334.1 12.5 334.1 12.5 L 334.1 2 Z M 337.9 11.2 C 340.3 11.2 341.8 9.4 341.8 7.3 C 341.8 5.1 340.4 3.4 337.9 3.4 C 337.9 3.35 335.7 3.4 335.7 3.4 L 335.7 11.2 C 335.7 11.2 337.9 11.15 337.9 11.2 Z M 348.9 8.5 L 346.9 8.5 L 346.9 12.5 L 345.3 12.5 L 345.3 2 C 345.3 2 349.78 1.95 349.8 2 C 351.8 2 353.2 3.3 353.2 5.2 C 353.2 7.1 351.9 8.1 350.5 8.3 C 350.54 8.31 353.3 12.5 353.3 12.5 L 351.4 12.5 L 348.9 8.5 Z M 349.6 3.4 C 349.57 3.35 346.9 3.4 346.9 3.4 L 346.9 7.1 C 346.9 7.1 349.57 7.07 349.6 7.1 C 350.7 7.1 351.5 6.3 351.5 5.2 C 351.5 4.1 350.7 3.4 349.6 3.4 Z M 355.1 2 L 362.2 2 L 362.2 3.4 L 356.7 3.4 L 356.7 6.4 L 362.1 6.4 L 362.1 7.8 L 356.7 7.8 L 356.7 11.2 L 362.2 11.2 L 362.2 12.5 L 355.1 12.5 L 355.1 2 Z M 364.5 9.8 C 365.2 10.6 366.3 11.3 367.8 11.3 C 369.5 11.3 370.1 10.5 370.1 9.7 C 370.1 8.6 368.9 8.3 367.6 7.9 C 365.9 7.5 363.9 7 363.9 4.8 C 363.9 3.1 365.5 1.8 367.7 1.8 C 369.3 1.8 370.6 2.3 371.5 3.3 C 371.5 3.3 370.6 4.4 370.6 4.4 C 369.8 3.6 368.7 3.2 367.5 3.2 C 366.4 3.2 365.5 3.8 365.5 4.7 C 365.5 5.7 366.7 6 368 6.3 C 369.7 6.7 371.8 7.3 371.8 9.5 C 371.8 11.2 370.6 12.7 367.8 12.7 C 365.9 12.7 364.5 12.1 363.6 11.1 C 363.6 11.1 364.5 9.8 364.5 9.8 Z M 373.9 9.8 C 374.6 10.6 375.7 11.3 377.2 11.3 C 378.9 11.3 379.5 10.5 379.5 9.7 C 379.5 8.6 378.3 8.3 377 7.9 C 375.3 7.5 373.3 7 373.3 4.8 C 373.3 3.1 374.8 1.8 377 1.8 C 378.7 1.8 380 2.3 380.9 3.3 C 380.9 3.3 380 4.4 380 4.4 C 379.2 3.6 378 3.2 376.9 3.2 C 375.7 3.2 374.9 3.8 374.9 4.7 C 374.9 5.7 376.1 6 377.4 6.3 C 379.1 6.7 381.1 7.3 381.1 9.5 C 381.1 11.2 380 12.7 377.1 12.7 C 375.2 12.7 373.9 12.1 373 11.1 C 373 11.1 373.9 9.8 373.9 9.8 Z M 382.7 14.1 C 383.2 13.7 383.7 13.1 383.8 12.6 C 383.8 12.6 383.6 12.6 383.5 12.6 C 383.1 12.6 382.7 12.2 382.7 11.7 C 382.7 11.2 383.1 10.7 383.7 10.7 C 384.2 10.7 384.8 11.2 384.8 12.1 C 384.8 13.1 384.2 14 383.4 14.6 C 383.4 14.6 382.7 14.1 382.7 14.1 Z M 390.4 7.3 C 390.4 4 392.8 1.8 395.8 1.8 C 397.9 1.8 399.2 2.8 400 4 C 400 4 398.7 4.7 398.7 4.7 C 398.1 3.8 397.1 3.2 395.8 3.2 C 393.7 3.2 392 4.9 392 7.3 C 392 9.6 393.7 11.3 395.8 11.3 C 397.1 11.3 398.1 10.7 398.7 9.8 C 398.7 9.8 400 10.5 400 10.5 C 399.2 11.7 397.9 12.7 395.8 12.7 C 392.8 12.7 390.4 10.5 390.4 7.3 Z M 401.6 2 L 403.2 2 L 403.2 12.5 L 401.6 12.5 L 401.6 2 Z M 408.2 3.4 L 404.9 3.4 L 404.9 2 L 413 2 L 413 3.4 L 409.8 3.4 L 409.8 12.5 L 408.2 12.5 L 408.2 3.4 Z M 417.7 8.1 L 413.6 2 L 415.4 2 L 418.5 6.7 L 421.6 2 L 423.5 2 L 419.3 8.1 L 419.3 12.5 L 417.7 12.5 L 417.7 8.1 Z M 423 14.1 C 423.5 13.7 424 13.1 424.1 12.6 C 424.1 12.6 423.9 12.6 423.9 12.6 C 423.4 12.6 423 12.2 423 11.7 C 423 11.2 423.4 10.7 424 10.7 C 424.6 10.7 425.1 11.2 425.1 12.1 C 425.1 13.1 424.5 14 423.7 14.6 C 423.7 14.6 423 14.1 423 14.1 Z M 431.4 9.8 C 432.1 10.6 433.3 11.3 434.8 11.3 C 436.5 11.3 437.1 10.5 437.1 9.7 C 437.1 8.6 435.9 8.3 434.5 7.9 C 432.8 7.5 430.9 7 430.9 4.8 C 430.9 3.1 432.4 1.8 434.6 1.8 C 436.2 1.8 437.5 2.3 438.5 3.3 C 438.5 3.3 437.5 4.4 437.5 4.4 C 436.7 3.6 435.6 3.2 434.5 3.2 C 433.3 3.2 432.5 3.8 432.5 4.7 C 432.5 5.7 433.6 6 435 6.3 C 436.7 6.7 438.7 7.3 438.7 9.5 C 438.7 11.2 437.6 12.7 434.7 12.7 C 432.8 12.7 431.4 12.1 430.5 11.1 C 430.5 11.1 431.4 9.8 431.4 9.8 Z M 443 3.4 L 439.7 3.4 L 439.7 2 L 447.9 2 L 447.9 3.4 L 444.6 3.4 L 444.6 12.5 L 443 12.5 L 443 3.4 Z M 455.2 10.4 L 450 10.4 L 449.1 12.5 L 447.4 12.5 L 451.6 2 L 453.6 2 L 457.8 12.5 L 456 12.5 L 455.2 10.4 Z M 450.4 8.9 L 454.7 8.9 L 452.6 3.3 L 450.4 8.9 Z M 460.6 3.4 L 457.3 3.4 L 457.3 2 L 465.4 2 L 465.4 3.4 L 462.2 3.4 L 462.2 12.5 L 460.6 12.5 L 460.6 3.4 Z M 467.1 2 L 474.2 2 L 474.2 3.4 L 468.7 3.4 L 468.7 6.4 L 474.1 6.4 L 474.1 7.8 L 468.7 7.8 L 468.7 11.2 L 474.2 11.2 L 474.2 12.5 L 467.1 12.5 L 467.1 2 Z M 479.9 11.2 L 485.5 3.4 L 479.9 3.4 L 479.9 2 L 487.6 2 L 487.6 3.3 L 481.9 11.2 L 487.7 11.2 L 487.7 12.5 L 479.9 12.5 L 479.9 11.2 Z M 489.6 2 L 491.2 2 L 491.2 12.5 L 489.6 12.5 L 489.6 2 Z M 493.6 2 C 493.6 2 498.04 1.95 498 2 C 500.2 2 501.4 3.4 501.4 5.2 C 501.4 7 500.2 8.5 498 8.5 C 498.04 8.46 495.2 8.5 495.2 8.5 L 495.2 12.5 L 493.6 12.5 L 493.6 2 Z M 497.8 3.4 C 497.83 3.35 495.2 3.4 495.2 3.4 L 495.2 7.1 C 495.2 7.1 497.83 7.07 497.8 7.1 C 499 7.1 499.8 6.3 499.8 5.2 C 499.8 4.1 499 3.4 497.8 3.4 Z " stroke="none" fill="#88898a"/>
  </g>
</svg>