<?xml version="1.0" standalone="no"?><!DOCTYPE svg PUBLIC "-//W3C//DTD SVG 1.1//EN" "http://www.w3.org/Graphics/SVG/1.1/DTD/svg11.dtd"><svg xmlns="http://www.w3.org/2000/svg" version="1.1" width="236px" height="16.9px" viewBox="0 -4 236 16.9" style="top:-4px"><desc>Raising Cane s</desc><defs/><g id="Polygon84642"><path d="m2.7 4.8H1.6v2.3h-.9v-6s2.5.01 2.5 0c1.1 0 1.9.7 1.9 1.9c0 1-.7 1.6-1.5 1.7c.03.01 1.6 2.4 1.6 2.4H4.1L2.7 4.8zm.4-2.9H1.6v2.1h1.5c.6 0 1.1-.4 1.1-1c0-.7-.5-1.1-1.1-1.1zm6.9 4H7.1l-.5 1.2h-1l2.4-6h1.1l2.4 6h-1L10 5.9zm-2.7-.8h2.5L8.5 1.9l-1.2 3.2zm4.9-4h.9v6h-.9v-6zm2.4 4.5c.4.4 1.1.8 1.9.8c1 0 1.3-.5 1.3-.9c0-.6-.7-.8-1.4-1c-1-.3-2.1-.5-2.1-1.8c0-1 .9-1.7 2.1-1.7c.9 0 1.7.3 2.2.9l-.5.6c-.5-.5-1.1-.7-1.8-.7c-.6 0-1.1.4-1.1.9c0 .5.7.7 1.4.9c1 .2 2.1.5 2.1 1.8c0 .9-.6 1.8-2.2 1.8c-1.1 0-1.9-.4-2.4-.9l.5-.7zm5.2-4.5h.9v6h-.9v-6zm3.1 1.4v4.6h-.9v-6h.9l3.3 4.5V1.1h.9v6h-.9l-3.3-4.6zM31.3 1c1.1 0 1.9.5 2.4 1.2l-.8.4c-.3-.4-.9-.8-1.6-.8c-1.2 0-2.2 1-2.2 2.3c0 1.4 1 2.3 2.2 2.3c.7 0 1.2-.3 1.5-.6c.02.03 0-1 0-1h-1.9v-.8h2.8s.02 2.17 0 2.2c-.6.6-1.4 1-2.4 1c-1.7 0-3.1-1.2-3.1-3.1c0-1.9 1.4-3.1 3.1-3.1zm5.6 3.1C36.9 2.3 38.3 1 40 1c1.2 0 1.9.6 2.4 1.3l-.8.4c-.3-.5-.9-.9-1.6-.9c-1.2 0-2.1 1-2.1 2.3c0 1.4.9 2.3 2.1 2.3c.7 0 1.3-.4 1.6-.9l.8.4c-.5.8-1.2 1.3-2.4 1.3c-1.7 0-3.1-1.2-3.1-3.1zm10.2 1.8h-3l-.5 1.2h-.9l2.3-6h1.2l2.3 6h-.9l-.5-1.2zm-2.7-.8h2.4l-1.2-3.2l-1.2 3.2zm5.8-2.6v4.6h-.9v-6h.9l3.3 4.5V1.1h.9v6h-.9l-3.3-4.6zm5.5-1.4h4v.8h-3.1v1.8h3.1v.7h-3.1v1.9h3.1v.8h-4v-6zm5 1.8c.3-.2.6-.5.6-.8h-.1c-.3 0-.5-.2-.5-.5c0-.3.2-.6.5-.6c.4 0 .7.3.7.8c0 .6-.4 1.1-.8 1.4l-.4-.3zm2.4 2.7c.4.4 1.1.8 1.9.8c1 0 1.3-.5 1.3-.9c0-.6-.7-.8-1.4-1c-1-.3-2.1-.5-2.1-1.8c0-1 .9-1.7 2.1-1.7c1 0 1.7.3 2.2.9l-.5.6c-.5-.5-1.1-.7-1.7-.7c-.7 0-1.2.4-1.2.9c0 .5.7.7 1.4.9c1 .2 2.1.5 2.1 1.8c0 .9-.6 1.8-2.2 1.8c-1.1 0-1.9-.4-2.4-.9l.5-.7z" stroke="none" fill="#88898a"/></g></svg>