<?xml version="1.0" standalone="no"?><!DOCTYPE svg PUBLIC "-//W3C//DTD SVG 1.1//EN" "http://www.w3.org/Graphics/SVG/1.1/DTD/svg11.dtd"><svg xmlns="http://www.w3.org/2000/svg" version="1.1" width="15.4px" height="12.3px" viewBox="0 -3 15.4 12.3" style="top:-3px"><desc>1-Mile</desc><defs/><g id="Polygon110043"><path d="m1.2 1.8l-.6.7L.1 2L1.3.7h.8v4h-.9V1.8zM2.6 3h1.4v.6H2.6v-.6zM8 1.9L6.9 4.7h-.4L5.4 1.9v2.8h-.9v-4h1.2l1 2.5l1-2.5h1.2v4h-.9V1.9zM9.5 1c0-.3.2-.5.5-.5c.2 0 .4.2.4.5c0 .2-.2.4-.4.4c-.3 0-.5-.2-.5-.4zm.1.8h.8v2.9h-.8V1.8zM11.1.7h.7v4h-.7v-4zm2.7 1.1c.9 0 1.5.6 1.5 1.6c-.02-.03 0 .1 0 .1c0 0-2.18.03-2.2 0c.1.4.4.7.9.7c.2 0 .5-.1.7-.3l.4.5c-.3.3-.8.4-1.2.4c-.9 0-1.6-.6-1.6-1.5c0-.9.6-1.5 1.5-1.5zM13.1 3h1.4c0-.3-.2-.6-.7-.6c-.5 0-.7.3-.7.6z" stroke="none" fill="#282828"/></g></svg>