<?xml version="1.0" standalone="no"?><!DOCTYPE svg PUBLIC "-//W3C//DTD SVG 1.1//EN" "http://www.w3.org/Graphics/SVG/1.1/DTD/svg11.dtd"><svg xmlns="http://www.w3.org/2000/svg" version="1.1" width="375px" height="67.5px" viewBox="0 -6 375 67.5" style="top:-6px"><desc>JAMES CAPITAL ADVISORS, INC CONTACT INFORMATION</desc><defs/><g id="Polygon304669"><path d="m95.1 42.5c0 3-1.9 4.2-4.9 4.2h-.1c-3 0-5-1.1-5-4.2V30.6c0-2.9 2-4.2 5-4.2h.1c3 0 4.9 1.3 4.9 4.2c.03.02 0 3.6 0 3.6h-3.2s-.05-3.07 0-3.1c0-1.4-.7-1.8-1.8-1.8c-1 0-1.7.4-1.7 1.8V42c0 1.4.7 1.8 1.7 1.8c1.1 0 1.8-.4 1.8-1.8c-.05-.03 0-3.6 0-3.6h3.2s.03 4.08 0 4.1zm7.2-16.1h.2c3 0 5 1.2 5 4.2v11.9c0 3-2 4.2-5 4.2h-.2c-3 0-5-1.2-5-4.2V30.6c0-3 2-4.2 5-4.2zm.1 17.4c1.1 0 1.8-.4 1.8-1.8V31.1c0-1.4-.7-1.8-1.8-1.8c-1.1 0-1.8.4-1.8 1.8V42c0 1.4.7 1.8 1.8 1.8zm7.5 2.6V26.7h3.3l4.2 12.2V26.7h2.9v19.7h-3.1l-4.3-12.8v12.8h-3zm21.7-16.9h-3.3v16.9h-3.2V29.5h-3.3v-2.8h9.8v2.8zm6.5 12.5h-3.6l-.7 4.4h-3.2l3.7-19.7h4.1l3.7 19.7h-3.3l-.7-4.4zm-.4-2.7l-1.4-8.8l-1.4 8.8h2.8zm15.6 3.2c0 3-2 4.2-5 4.2c-3 0-5-1.1-5-4.2V30.6c0-2.9 2-4.2 5-4.2c3 0 5 1.3 5 4.2c-.01.02 0 3.6 0 3.6H150s.02-3.07 0-3.1c0-1.4-.7-1.8-1.7-1.8c-1 0-1.7.4-1.7 1.8V42c0 1.4.7 1.8 1.7 1.8c1 0 1.7-.4 1.7-1.8c.02-.03 0-3.6 0-3.6h3.3v4.1zm10.9-13h-3.3v16.9h-3.2V29.5h-3.3v-2.8h9.8v2.8zm5.5 16.9V26.7h3.3v19.7h-3.3zm6 0V26.7h3.2l4.2 12.2V26.7h3v19.7H183l-4.4-12.8v12.8h-2.9zm12.9-19.7h8.6v2.8h-5.3v5.6h4.4v2.9h-4.4v8.4h-3.3V26.7zm15-.3h.2c3 0 5 1.2 5 4.2v11.9c0 3-2 4.2-5 4.2h-.2c-3 0-5-1.2-5-4.2V30.6c0-3 2-4.2 5-4.2zm.1 17.4c1.1 0 1.8-.4 1.8-1.8V31.1c0-1.4-.7-1.8-1.8-1.8c-1.1 0-1.8.4-1.8 1.8V42c0 1.4.7 1.8 1.8 1.8zm15 2.6l-2.6-7.8h-1.6v7.8h-3.3V26.7s5.14-.04 5.1 0c3 0 5 1.2 5 4.1v3.6c0 1.9-.8 3.1-2.1 3.6c-.03.04 2.8 8.4 2.8 8.4h-3.3zm-4.2-10.7s1.73.03 1.7 0c1.1 0 1.8-.4 1.8-1.8v-2.5c0-1.5-.7-1.9-1.8-1.9c.03.04-1.7 0-1.7 0v6.2zm17 7.8h-1.8l-3-9.2v12.1h-3V26.7h3.1l3.8 11.5l3.8-11.5h3.3v19.7h-3.2V34.3l-3 9.2zm15-1.5h-3.6l-.7 4.4H239l3.7-19.7h4.1l3.7 19.7h-3.3l-.7-4.4zm-.4-2.7l-1.4-8.8l-1.4 8.8h2.8zm13.3-9.8h-3.3v16.9h-3.3V29.5h-3.3v-2.8h9.9v2.8zm1.5 16.9V26.7h3.3v19.7h-3.3zm10.8-20h.2c3 0 5 1.2 5 4.2v11.9c0 3-2 4.2-5 4.2h-.2c-3 0-5-1.2-5-4.2V30.6c0-3 2-4.2 5-4.2zm.1 17.4c1.1 0 1.8-.4 1.8-1.8V31.1c0-1.4-.7-1.8-1.8-1.8c-1 0-1.8.4-1.8 1.8V42c0 1.4.8 1.8 1.8 1.8zm7.5 2.6V26.7h3.3l4.2 12.2V26.7h3v19.7h-3.2l-4.3-12.8v12.8h-3z" stroke="none" fill="#282828"/></g><g id="Polygon304668"><path d="m73.9 10.4c.4.5 1 .9 1.9.9c1.2 0 2-.8 2-2c-.04-.04 0-7.3 0-7.3h1.5s.05 7.28 0 7.3c0 2.3-1.4 3.4-3.4 3.4c-1.1 0-2.1-.3-2.8-1.1l.8-1.2zm13.9 0h-5.2l-.8 2.1H80L84.2 2h2l4.2 10.5h-1.7l-.9-2.1zm-4.7-1.5h4.3l-2.2-5.6l-2.1 5.6zm17.5-4.8l-3.4 8.4h-.6l-3.5-8.4v8.4h-1.6V2h2.3l3.1 7.6L100 2h2.2v10.5h-1.6V4.1zm3.8-2.1h7.1v1.4H106v3h5.4v1.4H106v3.4h5.5v1.3h-7.1V2zm9.2 7.8c.7.8 1.9 1.5 3.4 1.5c1.7 0 2.3-.8 2.3-1.6c0-1.1-1.2-1.4-2.6-1.8c-1.7-.4-3.6-.9-3.6-3.1c0-1.7 1.5-3 3.7-3c1.6 0 2.9.5 3.9 1.5l-1 1.1c-.8-.8-1.9-1.2-3-1.2c-1.2 0-2 .6-2 1.5c0 1 1.1 1.3 2.5 1.6c1.7.4 3.7 1 3.7 3.2c0 1.7-1.1 3.2-4 3.2c-1.9 0-3.3-.6-4.2-1.6l.9-1.3zm12.5-2.5c0-3.3 2.4-5.5 5.4-5.5c2.1 0 3.4 1 4.2 2.2l-1.3.7c-.6-.9-1.6-1.5-2.9-1.5c-2.1 0-3.8 1.7-3.8 4.1c0 2.3 1.7 4 3.8 4c1.3 0 2.3-.6 2.9-1.5l1.3.7c-.8 1.2-2.1 2.2-4.2 2.2c-3 0-5.4-2.2-5.4-5.4zm17.7 3.1h-5.2l-.9 2.1H136L140.2 2h2l4.2 10.5h-1.8l-.8-2.1zm-4.7-1.5h4.2l-2.1-5.6l-2.1 5.6zm8.4-6.9s4.46-.05 4.5 0c2.1 0 3.3 1.4 3.3 3.2c0 1.8-1.2 3.3-3.3 3.3c-.04-.04-2.9 0-2.9 0v4h-1.6V2zm4.3 1.4c-.04-.05-2.7 0-2.7 0v3.7s2.66-.03 2.7 0c1.1 0 1.9-.8 1.9-1.9c0-1.1-.8-1.8-1.9-1.8zm5-1.4h1.6v10.5h-1.6V2zm6.4 1.4h-3.3V2h8.2v1.4h-3.3v9.1h-1.6V3.4zm12 7H170l-.8 2.1h-1.8L171.6 2h2l4.2 10.5h-1.7l-.9-2.1zm-4.7-1.5h4.3l-2.2-5.6l-2.1 5.6zm8.4-6.9h1.6v9.2h4.8v1.3h-6.4V2zm18.7 8.4h-5.2l-.9 2.1h-1.7L194 2h2l4.2 10.5h-1.8l-.8-2.1zm-4.8-1.5h4.3L195 3.3l-2.2 5.6zm8.5-6.9s3.76-.05 3.8 0c3.3 0 5.5 2.2 5.5 5.3c0 3-2.2 5.2-5.5 5.2c-.04.05-3.8 0-3.8 0V2zm3.8 9.2c2.4 0 3.8-1.8 3.8-3.9c0-2.2-1.3-3.9-3.8-3.9c-.04-.05-2.2 0-2.2 0v7.8s2.16-.05 2.2 0zm5.8-9.2h1.8l3.4 8.8l3.4-8.8h1.8l-4.2 10.5h-2L210.9 2zm11.5 0h1.6v10.5h-1.6V2zm4.1 7.8c.7.8 1.8 1.5 3.3 1.5c1.7 0 2.3-.8 2.3-1.6c0-1.1-1.2-1.4-2.5-1.8c-1.7-.4-3.7-.9-3.7-3.1c0-1.7 1.5-3 3.7-3c1.7 0 3 .5 3.9 1.5l-.9 1.1c-.8-.8-1.9-1.2-3.1-1.2c-1.2 0-2 .6-2 1.5c0 1 1.2 1.3 2.5 1.6c1.7.4 3.7 1 3.7 3.2c0 1.7-1.1 3.2-4 3.2c-1.9 0-3.2-.6-4.1-1.6l.9-1.3zm13.8-8c3.2 0 5.4 2.3 5.4 5.5c0 3.1-2.2 5.4-5.4 5.4c-3.1 0-5.3-2.3-5.3-5.4c0-3.2 2.2-5.5 5.3-5.5zm0 1.4c-2.3 0-3.7 1.7-3.7 4.1c0 2.3 1.4 4 3.7 4c2.3 0 3.7-1.7 3.7-4c0-2.4-1.4-4.1-3.7-4.1zM251 8.5h-2v4h-1.6V2s4.48-.05 4.5 0c2 0 3.4 1.3 3.4 3.2c0 1.9-1.3 2.9-2.7 3.1c.04.01 2.8 4.2 2.8 4.2h-1.9l-2.5-4zm.7-5.1c-.03-.05-2.7 0-2.7 0v3.7s2.67-.03 2.7 0c1.1 0 1.9-.8 1.9-1.9c0-1.1-.8-1.8-1.9-1.8zm5.6 6.4c.7.8 1.9 1.5 3.4 1.5c1.7 0 2.3-.8 2.3-1.6c0-1.1-1.2-1.4-2.6-1.8c-1.7-.4-3.6-.9-3.6-3.1c0-1.7 1.5-3 3.7-3c1.6 0 2.9.5 3.9 1.5l-1 1.1c-.8-.8-1.9-1.2-3-1.2c-1.2 0-2 .6-2 1.5c0 1 1.1 1.3 2.5 1.6c1.7.4 3.7 1 3.7 3.2c0 1.7-1.1 3.2-4 3.2c-1.9 0-3.3-.6-4.2-1.6l.9-1.3zm8.7 4.3c.5-.4 1-1 1.1-1.5h-.2c-.5 0-.9-.4-.9-.9c0-.5.4-1 1-1c.6 0 1.1.5 1.1 1.4c0 1-.6 1.9-1.4 2.5l-.7-.5zM273.8 2h1.6v10.5h-1.6V2zm5.4 2.4v8.1h-1.6V2h1.7l5.7 7.9V2h1.6v10.5h-1.5l-5.9-8.1zm9.2 2.9c0-3.3 2.4-5.5 5.4-5.5c2.1 0 3.4 1 4.2 2.2l-1.3.7c-.6-.9-1.6-1.5-2.9-1.5c-2.1 0-3.8 1.7-3.8 4.1c0 2.3 1.7 4 3.8 4c1.3 0 2.3-.6 2.9-1.5l1.3.7c-.8 1.2-2.1 2.2-4.2 2.2c-3 0-5.4-2.2-5.4-5.4zm11.7 3.4c.6 0 1 .5 1 1c0 .6-.4 1-1 1c-.5 0-.9-.4-.9-1c0-.5.4-1 .9-1z" stroke="none" fill="#3797ef"/></g></svg>