<?xml version="1.0" standalone="no"?>
<!DOCTYPE svg PUBLIC "-//W3C//DTD SVG 1.1//EN" "http://www.w3.org/Graphics/SVG/1.1/DTD/svg11.dtd">
<svg xmlns="http://www.w3.org/2000/svg" version="1.1" width="229px" height="82.9px" viewBox="0 -10 229 82.9" style="top:-10px">
  <desc>Agent 1</desc>
  <defs/>
  <g id="Polygon266385">
    <path d="M 0.7 59.5 C 0.7 56.9 1.5 54.4 3 52.4 C 3 52.4 3.9 53.1 3.9 53.1 C 2.8 55.1 2.2 56.9 2.2 59.5 C 2.2 62 2.8 63.8 3.9 65.8 C 3.9 65.8 3 66.5 3 66.5 C 1.5 64.6 0.7 62 0.7 59.5 Z M 8.9 52.6 C 11.8 52.6 13 55.4 13 58 C 13 60.7 11.8 63.5 8.9 63.5 C 5.9 63.5 4.7 60.7 4.7 58 C 4.7 55.4 5.9 52.6 8.9 52.6 Z M 8.9 54 C 7 54 6.4 56 6.4 58 C 6.4 60.1 7 62.1 8.9 62.1 C 10.8 62.1 11.4 60.1 11.4 58 C 11.4 56 10.8 54 8.9 54 Z M 18.5 52.6 C 21.4 52.6 22.6 55.4 22.6 58 C 22.6 60.7 21.4 63.5 18.5 63.5 C 15.5 63.5 14.3 60.7 14.3 58 C 14.3 55.4 15.5 52.6 18.5 52.6 Z M 18.5 54 C 16.6 54 15.9 56 15.9 58 C 15.9 60.1 16.6 62.1 18.5 62.1 C 20.3 62.1 21 60.1 21 58 C 21 56 20.3 54 18.5 54 Z M 28.1 52.6 C 31 52.6 32.2 55.4 32.2 58 C 32.2 60.7 31 63.5 28.1 63.5 C 25.1 63.5 23.9 60.7 23.9 58 C 23.9 55.4 25.1 52.6 28.1 52.6 Z M 28.1 54 C 26.2 54 25.5 56 25.5 58 C 25.5 60.1 26.2 62.1 28.1 62.1 C 29.9 62.1 30.6 60.1 30.6 58 C 30.6 56 29.9 54 28.1 54 Z M 33.1 53.1 C 33.1 53.1 33.9 52.4 33.9 52.4 C 35.4 54.4 36.3 56.9 36.3 59.5 C 36.3 62 35.4 64.6 33.9 66.5 C 33.9 66.5 33.1 65.8 33.1 65.8 C 34.1 63.8 34.7 62 34.7 59.5 C 34.7 56.9 34.1 55.1 33.1 53.1 Z M 45.6 52.6 C 48.5 52.6 49.7 55.4 49.7 58 C 49.7 60.7 48.5 63.5 45.6 63.5 C 42.7 63.5 41.5 60.7 41.5 58 C 41.5 55.4 42.7 52.6 45.6 52.6 Z M 45.6 54 C 43.7 54 43.1 56 43.1 58 C 43.1 60.1 43.7 62.1 45.6 62.1 C 47.5 62.1 48.1 60.1 48.1 58 C 48.1 56 47.5 54 45.6 54 Z M 55.2 52.6 C 58.1 52.6 59.3 55.4 59.3 58 C 59.3 60.7 58.1 63.5 55.2 63.5 C 52.3 63.5 51 60.7 51 58 C 51 55.4 52.3 52.6 55.2 52.6 Z M 55.2 54 C 53.3 54 52.7 56 52.7 58 C 52.7 60.1 53.3 62.1 55.2 62.1 C 57.1 62.1 57.7 60.1 57.7 58 C 57.7 56 57.1 54 55.2 54 Z M 64.8 52.6 C 67.7 52.6 68.9 55.4 68.9 58 C 68.9 60.7 67.7 63.5 64.8 63.5 C 61.8 63.5 60.6 60.7 60.6 58 C 60.6 55.4 61.8 52.6 64.8 52.6 Z M 64.8 54 C 62.9 54 62.3 56 62.3 58 C 62.3 60.1 62.9 62.1 64.8 62.1 C 66.7 62.1 67.3 60.1 67.3 58 C 67.3 56 66.7 54 64.8 54 Z M 70 58.9 L 73.8 58.9 L 73.8 60.1 L 70 60.1 L 70 58.9 Z M 79 52.6 C 81.9 52.6 83.1 55.4 83.1 58 C 83.1 60.7 81.9 63.5 79 63.5 C 76 63.5 74.8 60.7 74.8 58 C 74.8 55.4 76 52.6 79 52.6 Z M 79 54 C 77.1 54 76.5 56 76.5 58 C 76.5 60.1 77.1 62.1 79 62.1 C 80.9 62.1 81.5 60.1 81.5 58 C 81.5 56 80.9 54 79 54 Z M 88.6 52.6 C 91.5 52.6 92.7 55.4 92.7 58 C 92.7 60.7 91.5 63.5 88.6 63.5 C 85.6 63.5 84.4 60.7 84.4 58 C 84.4 55.4 85.6 52.6 88.6 52.6 Z M 88.6 54 C 86.7 54 86 56 86 58 C 86 60.1 86.7 62.1 88.6 62.1 C 90.5 62.1 91.1 60.1 91.1 58 C 91.1 56 90.5 54 88.6 54 Z M 98.2 52.6 C 101.1 52.6 102.3 55.4 102.3 58 C 102.3 60.7 101.1 63.5 98.2 63.5 C 95.2 63.5 94 60.7 94 58 C 94 55.4 95.2 52.6 98.2 52.6 Z M 98.2 54 C 96.3 54 95.6 56 95.6 58 C 95.6 60.1 96.3 62.1 98.2 62.1 C 100 62.1 100.7 60.1 100.7 58 C 100.7 56 100 54 98.2 54 Z M 107.8 52.6 C 110.7 52.6 111.9 55.4 111.9 58 C 111.9 60.7 110.7 63.5 107.8 63.5 C 104.8 63.5 103.6 60.7 103.6 58 C 103.6 55.4 104.8 52.6 107.8 52.6 Z M 107.8 54 C 105.9 54 105.2 56 105.2 58 C 105.2 60.1 105.9 62.1 107.8 62.1 C 109.6 62.1 110.3 60.1 110.3 58 C 110.3 56 109.6 54 107.8 54 Z " stroke="none" fill="#3797ef"/>
  </g>
  <g id="Polygon266384">
    <path d="M 3.8 35.1 L 0.5 35.1 L 0.5 33.7 L 8.6 33.7 L 8.6 35.1 L 5.4 35.1 L 5.4 44.3 L 3.8 44.3 L 3.8 35.1 Z M 9.9 34.4 C 9.9 33.9 10.3 33.5 10.8 33.5 C 11.3 33.5 11.7 33.9 11.7 34.4 C 11.7 34.9 11.3 35.3 10.8 35.3 C 10.3 35.3 9.9 34.9 9.9 34.4 Z M 10.1 36.6 L 11.5 36.6 L 11.5 44.3 L 10.1 44.3 L 10.1 36.6 Z M 13.9 42.6 C 13.91 42.57 13.9 37.9 13.9 37.9 L 12.6 37.9 L 12.6 36.6 L 13.9 36.6 L 13.9 34.5 L 15.3 34.5 L 15.3 36.6 L 16.9 36.6 L 16.9 37.9 L 15.3 37.9 C 15.3 37.9 15.34 42.25 15.3 42.3 C 15.3 42.8 15.6 43.2 16.1 43.2 C 16.4 43.2 16.7 43 16.9 42.9 C 16.9 42.9 17.2 44 17.2 44 C 16.9 44.3 16.5 44.5 15.7 44.5 C 14.5 44.5 13.9 43.8 13.9 42.6 Z M 18.3 33.7 L 19.8 33.7 L 19.8 44.3 L 18.3 44.3 L 18.3 33.7 Z M 25.2 36.4 C 27.5 36.4 29 38.2 29 40.6 C 28.97 40.55 29 40.9 29 40.9 C 29 40.9 22.9 40.9 22.9 40.9 C 23 42.2 24 43.3 25.5 43.3 C 26.3 43.3 27.2 43 27.8 42.4 C 27.8 42.4 28.4 43.3 28.4 43.3 C 27.7 44.1 26.6 44.5 25.4 44.5 C 23.1 44.5 21.4 42.8 21.4 40.4 C 21.4 38.2 23 36.4 25.2 36.4 Z M 22.9 39.9 C 22.9 39.9 27.6 39.9 27.6 39.9 C 27.5 38.9 26.9 37.6 25.2 37.6 C 23.7 37.6 23 38.8 22.9 39.9 Z " stroke="none" fill="#888888"/>
  </g>
  <g id="Polygon266383">
    <path d="M 1.4 3.3 L 10 3.3 L 10 6.2 L 4.7 6.2 L 4.7 11.8 L 9.1 11.8 L 9.1 14.7 L 4.7 14.7 L 4.7 23.1 L 1.4 23.1 L 1.4 3.3 Z M 11.7 23.1 L 11.7 3.3 L 14.9 3.3 L 14.9 23.1 L 11.7 23.1 Z M 25 23.1 L 22.5 15.2 L 20.9 15.2 L 20.9 23.1 L 17.6 23.1 L 17.6 3.3 C 17.6 3.3 22.7 3.33 22.7 3.3 C 25.7 3.3 27.7 4.5 27.7 7.5 C 27.7 7.5 27.7 11 27.7 11 C 27.7 12.9 26.9 14.1 25.5 14.7 C 25.52 14.71 28.3 23.1 28.3 23.1 L 25 23.1 Z M 20.9 12.4 C 20.9 12.4 22.59 12.39 22.6 12.4 C 23.7 12.4 24.4 12 24.4 10.6 C 24.4 10.6 24.4 8 24.4 8 C 24.4 6.6 23.7 6.2 22.6 6.2 C 22.59 6.21 20.9 6.2 20.9 6.2 L 20.9 12.4 Z M 36.1 10.4 C 36.1 10.4 36.08 7.62 36.1 7.6 C 36.1 6.4 35.4 5.9 34.4 5.9 C 33.5 5.9 32.8 6.4 32.8 7.6 C 32.8 7.6 32.8 9 32.8 9 C 32.8 10 33.1 10.4 34 11 C 34 11 36.3 12.3 36.3 12.3 C 38.2 13.4 39.4 14.2 39.4 16.3 C 39.4 16.3 39.4 19.2 39.4 19.2 C 39.4 22.2 37.5 23.3 34.5 23.3 C 34.5 23.3 34.4 23.3 34.4 23.3 C 31.4 23.3 29.5 22.3 29.5 19.2 C 29.53 19.2 29.5 15.8 29.5 15.8 L 32.8 15.8 C 32.8 15.8 32.75 18.74 32.8 18.7 C 32.8 20 33.5 20.5 34.4 20.5 C 35.4 20.5 36.1 20 36.1 18.7 C 36.1 18.7 36.1 17.2 36.1 17.2 C 36.1 16.2 35.8 15.7 34.8 15.1 C 34.8 15.1 32.6 13.8 32.6 13.8 C 30.6 12.7 29.5 11.8 29.5 9.8 C 29.5 9.8 29.5 7.2 29.5 7.2 C 29.5 4.2 31.7 3.1 34.4 3.1 C 34.4 3.1 34.4 3.1 34.4 3.1 C 37.2 3.1 39.3 4.2 39.3 7.2 C 39.3 7.17 39.3 10.4 39.3 10.4 L 36.1 10.4 Z M 50.1 6.2 L 46.8 6.2 L 46.8 23.1 L 43.5 23.1 L 43.5 6.2 L 40.2 6.2 L 40.2 3.3 L 50.1 3.3 L 50.1 6.2 Z M 63.8 23.1 L 55.5 23.1 L 55.5 3.3 L 58.7 3.3 L 58.7 20.2 L 63.8 20.2 L 63.8 23.1 Z M 71.5 18.7 L 67.9 18.7 L 67.2 23.1 L 64.1 23.1 L 67.7 3.3 L 71.9 3.3 L 75.6 23.1 L 72.3 23.1 L 71.5 18.7 Z M 71.1 16 L 69.7 7.2 L 68.4 16 L 71.1 16 Z M 82.9 10.4 C 82.9 10.4 82.93 7.62 82.9 7.6 C 82.9 6.4 82.2 5.9 81.3 5.9 C 80.3 5.9 79.6 6.4 79.6 7.6 C 79.6 7.6 79.6 9 79.6 9 C 79.6 10 79.9 10.4 80.9 11 C 80.9 11 83.2 12.3 83.2 12.3 C 85.1 13.4 86.2 14.2 86.2 16.3 C 86.2 16.3 86.2 19.2 86.2 19.2 C 86.2 22.2 84.3 23.3 81.3 23.3 C 81.3 23.3 81.3 23.3 81.3 23.3 C 78.3 23.3 76.4 22.3 76.4 19.2 C 76.38 19.2 76.4 15.8 76.4 15.8 L 79.6 15.8 C 79.6 15.8 79.59 18.74 79.6 18.7 C 79.6 20 80.3 20.5 81.3 20.5 C 82.3 20.5 83 20 83 18.7 C 83 18.7 83 17.2 83 17.2 C 83 16.2 82.7 15.7 81.7 15.1 C 81.7 15.1 79.4 13.8 79.4 13.8 C 77.5 12.7 76.4 11.8 76.4 9.8 C 76.4 9.8 76.4 7.2 76.4 7.2 C 76.4 4.2 78.5 3.1 81.2 3.1 C 81.2 3.1 81.3 3.1 81.3 3.1 C 84 3.1 86.1 4.2 86.1 7.2 C 86.14 7.17 86.1 10.4 86.1 10.4 L 82.9 10.4 Z M 96.9 6.2 L 93.6 6.2 L 93.6 23.1 L 90.4 23.1 L 90.4 6.2 L 87 6.2 L 87 3.3 L 96.9 3.3 L 96.9 6.2 Z " stroke="none" fill="#282828"/>
  </g>
</svg>