<?xml version="1.0" standalone="no"?><!DOCTYPE svg PUBLIC "-//W3C//DTD SVG 1.1//EN" "http://www.w3.org/Graphics/SVG/1.1/DTD/svg11.dtd"><svg xmlns="http://www.w3.org/2000/svg" version="1.1" width="8.4px" height="18.2px" viewBox="0 -4 8.4 18.2" style="top:-4px"><desc>03</desc><defs/><g id="Polygon64142"><path d="m3.9 2.2v4.2c0 1.1-.6 1.5-1.7 1.5h-.1c-1 0-1.6-.4-1.6-1.5V2.2C.5 1.1 1.1.7 2.1.7h.1c1.1 0 1.7.4 1.7 1.5zm-1.7-.5c-.4 0-.6.2-.6.7v3.8c0 .5.2.7.6.7c.4 0 .6-.2.6-.7V2.4c0-.5-.2-.7-.6-.7zm5.1 2.5c.6.1.7.6.7 1v1.2c0 1-.5 1.5-1.5 1.5h-.3c-1 0-1.5-.5-1.5-1.5c-.04 0 0-.9 0-.9h1.1s-.02.78 0 .8c0 .5.2.6.5.6h.1c.2 0 .5-.1.5-.6V5.2c0-.4-.2-.6-.5-.6c.01.05-.8 0-.8 0v-.9h.7c.4 0 .6-.2.6-.6v-.8c0-.5-.3-.6-.5-.6h-.1c-.3 0-.5.1-.5.6c-.04.02 0 .7 0 .7H4.7s-.04-.8 0-.8c0-1.1.6-1.5 1.6-1.5h.1c1 0 1.6.4 1.6 1.5v.9c0 .4-.1 1-.7 1.1z" stroke="none" fill="#fff"/></g></svg>