<?xml version="1.0" standalone="no"?><!DOCTYPE svg PUBLIC "-//W3C//DTD SVG 1.1//EN" "http://www.w3.org/Graphics/SVG/1.1/DTD/svg11.dtd"><svg xmlns="http://www.w3.org/2000/svg" version="1.1" width="237px" height="26.9px" viewBox="0 -6 237 26.9" style="top:-6px"><desc>Raising Cane s Restaurants, LLC</desc><defs/><g id="Polygon95873"><path d="m23.7 8.2h-2.3v4.3h-.9V2s3.91-.05 3.9 0c1.8 0 3.2 1.1 3.2 3.1c0 1.9-1.3 2.9-2.9 3l3.1 4.4h-1.1l-3-4.3zm.6-5.4c.03-.02-2.9 0-2.9 0v4.5s2.93.04 2.9 0c1.4 0 2.4-.9 2.4-2.2c0-1.4-1-2.3-2.4-2.3zm10.1 8.8c-.7.8-1.5 1.1-2.6 1.1c-1.3 0-2.7-.9-2.7-2.5c0-1.7 1.4-2.5 2.7-2.5c1.1 0 1.9.3 2.6 1V7.2c0-1.1-.9-1.8-2-1.8c-1 0-1.7.3-2.4 1.1l-.5-.5c.8-.9 1.7-1.3 2.9-1.3c1.6 0 2.8.7 2.8 2.4c.04.05 0 5.4 0 5.4h-.8s.02-.86 0-.9zm0-2.2c-.5-.7-1.4-1.1-2.3-1.1c-1.3 0-2.1.8-2.1 1.9c0 1.1.8 1.9 2.1 1.9c.9 0 1.8-.4 2.3-1.1V9.4zm3.2-6.5c0-.3.3-.6.6-.6c.4 0 .7.3.7.6c0 .4-.3.7-.7.7c-.3 0-.6-.3-.6-.7zm.2 2h.8v7.6h-.8V4.9zm3.2 6c.5.6 1.4 1.1 2.5 1.1c1.3 0 2.1-.6 2.1-1.5c0-1-1.1-1.3-2.2-1.5c-1.3-.4-2.7-.7-2.7-2.2c0-1.2 1-2.1 2.8-2.1c1.3 0 2.1.5 2.7 1.1l-.5.6c-.4-.6-1.2-1-2.2-1c-1.2 0-2 .6-2 1.4c0 .8 1 1.1 2.1 1.3c1.3.4 2.8.7 2.8 2.4c0 1.2-1 2.2-2.9 2.2c-1.2 0-2.2-.3-2.9-1.2l.4-.6zm7.3-8c0-.3.3-.6.6-.6c.4 0 .7.3.7.6c0 .4-.3.7-.7.7c-.3 0-.6-.3-.6-.7zm.2 2h.8v7.6h-.8V4.9zm8.6 2.5c0-1.5-.8-2-1.9-2c-1 0-2 .7-2.5 1.3c.03.05 0 5.8 0 5.8h-.8V4.9h.8s.03 1.13 0 1.1c.6-.6 1.7-1.3 2.8-1.3c1.6 0 2.4.7 2.4 2.5v5.3h-.8s-.02-5.13 0-5.1zm3.9 6.5c.6.8 1.4 1 2.5 1c1.4 0 2.6-.7 2.6-2.4v-1.2c-.5.8-1.5 1.4-2.6 1.4c-2.1 0-3.5-1.5-3.5-4c0-2.4 1.4-4 3.5-4c1 0 2 .5 2.6 1.4c.04.01 0-1.2 0-1.2h.9s-.02 7.57 0 7.6c0 2.3-1.6 3.2-3.5 3.2c-1.3 0-2.1-.3-3-1.2l.5-.6zm5.1-7.1c-.4-.7-1.4-1.4-2.5-1.4c-1.7 0-2.7 1.4-2.7 3.3c0 1.9 1 3.3 2.7 3.3c1.1 0 2.1-.7 2.5-1.4V6.8zm7.2.5c0-3.3 2.3-5.5 5.3-5.5c1.7 0 3 .7 3.9 1.9l-.8.4c-.6-.9-1.8-1.5-3.1-1.5c-2.4 0-4.4 1.9-4.4 4.7c0 2.7 2 4.6 4.4 4.6c1.3 0 2.5-.6 3.1-1.5l.8.4c-.9 1.2-2.2 1.9-3.9 1.9c-3 0-5.3-2.2-5.3-5.4zm15.9 4.3c-.7.8-1.5 1.1-2.6 1.1c-1.3 0-2.7-.9-2.7-2.5c0-1.7 1.4-2.5 2.7-2.5c1.1 0 1.9.3 2.6 1V7.2c0-1.1-.9-1.8-2.1-1.8c-.9 0-1.7.3-2.4 1.1l-.4-.5c.8-.9 1.7-1.3 2.9-1.3c1.6 0 2.8.7 2.8 2.4c.02.05 0 5.4 0 5.4h-.8v-.9zm0-2.2c-.5-.7-1.4-1.1-2.3-1.1c-1.3 0-2.1.8-2.1 1.9c0 1.1.8 1.9 2.1 1.9c.9 0 1.8-.4 2.3-1.1V9.4zm8.6-2c0-1.5-.8-2-1.9-2c-1 0-2 .7-2.5 1.3c.02.05 0 5.8 0 5.8h-.8V4.9h.8s.02 1.13 0 1.1c.6-.6 1.7-1.3 2.8-1.3c1.5 0 2.4.7 2.4 2.5v5.3h-.8s-.03-5.13 0-5.1zm6.6-2.7c2.4 0 3.6 1.8 3.6 4.1c.05-.05 0 .2 0 .2c0 0-6.37-.03-6.4 0c.1 1.6 1.2 3 3 3c1 0 1.9-.3 2.5-1l.5.5c-.8.8-1.8 1.2-3 1.2c-2.3 0-3.9-1.6-3.9-4c0-2.2 1.6-4 3.7-4zm-2.8 3.6h5.6c0-1.3-.9-2.9-2.8-2.9c-1.8 0-2.7 1.6-2.8 2.9zm9.8-5.5c0 .9-.5 1.7-1.2 2.2l-.4-.4c.5-.4.9-1 .9-1.5h-.2c-.3 0-.6-.2-.6-.6c0-.4.3-.7.7-.7c.4 0 .8.4.8 1zm1.6 8.1c.5.6 1.4 1.1 2.5 1.1c1.2 0 2-.6 2-1.5c0-1-1-1.3-2.2-1.5c-1.2-.4-2.6-.7-2.6-2.2c0-1.2.9-2.1 2.7-2.1c1.3 0 2.2.5 2.7 1.1l-.4.6c-.5-.6-1.3-1-2.3-1c-1.2 0-1.9.6-1.9 1.4c0 .8.9 1.1 2 1.3c1.3.4 2.8.7 2.8 2.4c0 1.2-1 2.2-2.9 2.2c-1.2 0-2.2-.3-2.9-1.2l.5-.6zm14.8-2.7h-2.3v4.3h-.9V2s3.94-.05 3.9 0c1.9 0 3.3 1.1 3.3 3.1c0 1.9-1.4 2.9-3 3c.02 0 3.1 4.4 3.1 4.4h-1.1l-3-4.3zm.7-5.4c-.04-.02-3 0-3 0v4.5s2.96.04 3 0c1.4 0 2.3-.9 2.3-2.2c0-1.4-.9-2.3-2.3-2.3zm8.3 1.9c2.3 0 3.6 1.8 3.6 4.1c-.02-.05 0 .2 0 .2c0 0-6.43-.03-6.4 0c0 1.6 1.2 3 3 3c.9 0 1.8-.3 2.5-1l.4.5c-.8.8-1.7 1.2-3 1.2c-2.2 0-3.8-1.6-3.8-4c0-2.2 1.5-4 3.7-4zM134 8.3h5.5c0-1.3-.8-2.9-2.8-2.9c-1.8 0-2.7 1.6-2.7 2.9zm8.3 2.6c.5.6 1.4 1.1 2.5 1.1c1.3 0 2.1-.6 2.1-1.5c0-1-1.1-1.3-2.2-1.5c-1.3-.4-2.7-.7-2.7-2.2c0-1.2 1-2.1 2.8-2.1c1.3 0 2.1.5 2.7 1.1l-.5.6c-.4-.6-1.2-1-2.2-1c-1.2 0-2 .6-2 1.4c0 .8 1 1.1 2.1 1.3c1.3.4 2.8.7 2.8 2.4c0 1.2-1 2.2-2.9 2.2c-1.2 0-2.2-.3-3-1.2l.5-.6zm7.7.2c-.04-.03 0-5.5 0-5.5h-1.3v-.7h1.3V2.8h.8v2.1h1.6v.7h-1.6v5.3c0 .7.3 1.1.8 1.1c.4 0 .7-.2.9-.4l.3.7c-.3.2-.7.4-1.3.4c-1 0-1.5-.6-1.5-1.6zm9 .5c-.6.8-1.5 1.1-2.6 1.1c-1.3 0-2.6-.9-2.6-2.5c0-1.7 1.3-2.5 2.6-2.5c1.1 0 2 .3 2.6 1V7.2c0-1.1-.9-1.8-2-1.8c-1 0-1.7.3-2.4 1.1l-.5-.5c.8-.9 1.7-1.3 3-1.3c1.5 0 2.8.7 2.8 2.4c-.03.05 0 5.4 0 5.4h-.9s.05-.86 0-.9zm0-2.2c-.5-.7-1.4-1.1-2.3-1.1c-1.2 0-2.1.8-2.1 1.9c0 1.1.9 1.9 2.1 1.9c.9 0 1.8-.4 2.3-1.1V9.4zm8.6 2c-.6.7-1.6 1.3-2.7 1.3c-1.6 0-2.5-.7-2.5-2.4c.05-.02 0-5.4 0-5.4h.9s-.03 5.19 0 5.2c0 1.5.7 1.9 1.8 1.9c1 0 2-.6 2.5-1.3c.02.02 0-5.8 0-5.8h.8v7.6h-.8s.02-1.08 0-1.1zm3.4-6.5h.8s.05 1.29 0 1.3c.7-.9 1.6-1.5 2.6-1.5v.9h-.4c-.8 0-1.8.7-2.2 1.4c.05-.04 0 5.5 0 5.5h-.8V4.9zm9.9 6.7c-.7.8-1.5 1.1-2.6 1.1c-1.3 0-2.7-.9-2.7-2.5c0-1.7 1.4-2.5 2.7-2.5c1.1 0 1.9.3 2.6 1V7.2c0-1.1-.9-1.8-2-1.8c-1 0-1.7.3-2.4 1.1L176 6c.8-.9 1.7-1.3 2.9-1.3c1.6 0 2.9.7 2.9 2.4c-.04.05 0 5.4 0 5.4h-.9s.03-.86 0-.9zm0-2.2c-.5-.7-1.4-1.1-2.3-1.1c-1.3 0-2.1.8-2.1 1.9c0 1.1.8 1.9 2.1 1.9c.9 0 1.8-.4 2.3-1.1V9.4zm8.6-2c0-1.5-.7-2-1.8-2c-1 0-2.1.7-2.5 1.3c-.04.05 0 5.8 0 5.8h-.9V4.9h.9s-.04 1.13 0 1.1c.5-.6 1.6-1.3 2.7-1.3c1.6 0 2.4.7 2.4 2.5c.03-.02 0 5.3 0 5.3h-.8V7.4zm3.6 3.7c-.03-.03 0-5.5 0-5.5h-1.3v-.7h1.3V2.8h.8v2.1h1.6v.7h-1.6v5.3c0 .7.3 1.1.8 1.1c.4 0 .7-.2.9-.4l.3.7c-.3.2-.7.4-1.3.4c-1 0-1.5-.6-1.5-1.6zm4-.2c.5.6 1.4 1.1 2.5 1.1c1.3 0 2-.6 2-1.5c0-1-1-1.3-2.1-1.5c-1.3-.4-2.7-.7-2.7-2.2c0-1.2 1-2.1 2.7-2.1c1.3 0 2.2.5 2.8 1.1l-.5.6c-.4-.6-1.3-1-2.3-1c-1.2 0-1.9.6-1.9 1.4c0 .8 1 1.1 2 1.3c1.4.4 2.8.7 2.8 2.4c0 1.2-.9 2.2-2.8 2.2c-1.3 0-2.2-.3-3-1.2l.5-.6zm7.1 3.2c.5-.3.9-1 .9-1.5l-.1.1c-.4 0-.7-.3-.7-.7c0-.4.3-.7.7-.7c.4 0 .8.4.8 1c0 .9-.5 1.8-1.1 2.2l-.5-.4zm8-12.1h.9v9.7h5.1v.8h-6V2zm8 0h.9v9.7h5.1v.8h-6V2zm7 5.3c0-3.3 2.4-5.5 5.3-5.5c1.8 0 3 .7 3.9 1.9l-.7.4c-.7-.9-1.8-1.5-3.2-1.5c-2.4 0-4.3 1.9-4.3 4.7c0 2.7 1.9 4.6 4.3 4.6c1.4 0 2.5-.6 3.2-1.5l.7.4c-.9 1.2-2.1 1.9-3.9 1.9c-2.9 0-5.3-2.2-5.3-5.4z" stroke="none" fill="#000"/></g></svg>