<?xml version="1.0" standalone="no"?><!DOCTYPE svg PUBLIC "-//W3C//DTD SVG 1.1//EN" "http://www.w3.org/Graphics/SVG/1.1/DTD/svg11.dtd"><svg xmlns="http://www.w3.org/2000/svg" version="1.1" width="77px" height="15.9px" viewBox="0 -4 77 15.9" style="top:-4px"><desc>51,373</desc><defs/><g id="Polygon111000"><path d="m53.8 5.9c.3.5.9.9 1.6.9c.9 0 1.5-.7 1.5-1.5c0-.9-.6-1.5-1.5-1.5c-.5 0-1 .2-1.4.6c-.01.02-.4-.1-.4-.1V1.1h3.5v.5h-3s.02 2.32 0 2.3c.3-.3.8-.5 1.4-.5c1.1 0 2 .6 2 1.9c0 1.2-1 1.9-2.1 1.9c-1 0-1.6-.4-2-1l.4-.3zm5.7-4.1l-1 1l-.3-.3l1.3-1.4h.5v6h-.5V1.8zM61.3 8c.3-.2.5-.6.5-.8h-.1c-.2 0-.4-.2-.4-.4c0-.2.2-.4.4-.4c.3 0 .5.2.5.6c0 .5-.3 1-.7 1.2l-.2-.2zm2.1-2.1c.3.5.9.9 1.7.9c.9 0 1.5-.5 1.5-1.3c0-.9-.7-1.2-1.6-1.2h-.6v-.5h.6c.7 0 1.5-.4 1.5-1.2c0-.7-.7-1.1-1.5-1.1c-.6 0-1.1.3-1.6.7l-.3-.3c.4-.5 1.1-.9 2-.9c1 0 1.9.6 1.9 1.6c0 .9-.8 1.3-1.3 1.4c.5.1 1.4.5 1.4 1.5c0 1-.8 1.7-2 1.7c-1 0-1.7-.4-2.1-1l.4-.3zm7.8-4.3h-3.3v-.5h3.9v.4l-2.5 5.6h-.6l2.5-5.5zm1.6 4.3c.3.5.9.9 1.7.9c.9 0 1.5-.5 1.5-1.3c0-.9-.7-1.2-1.6-1.2h-.6v-.5h.6c.8 0 1.5-.4 1.5-1.2c0-.7-.7-1.1-1.5-1.1c-.6 0-1.1.3-1.6.7l-.3-.3c.4-.5 1.1-.9 2-.9c1 0 1.9.6 1.9 1.6c0 .9-.8 1.3-1.3 1.4c.5.1 1.4.5 1.4 1.5c0 1-.7 1.7-2 1.7c-1 0-1.7-.4-2.1-1l.4-.3z" stroke="none" fill="#000"/></g></svg>