<?xml version="1.0" standalone="no"?><!DOCTYPE svg PUBLIC "-//W3C//DTD SVG 1.1//EN" "http://www.w3.org/Graphics/SVG/1.1/DTD/svg11.dtd"><svg xmlns="http://www.w3.org/2000/svg" version="1.1" width="248px" height="28.3px" viewBox="0 -6 248 28.3" style="top:-6px"><desc>Agent 1</desc><defs/><g id="Polygon105575"><path d="m1.2 2s4.95-.05 4.9 0c1.9 0 3 1.1 3 2.7c0 1.3-.8 2.2-1.8 2.4c1.1.2 2 1.3 2 2.6c0 1.7-1.1 2.8-3 2.8c-.03.04-5.1 0-5.1 0V2zm4.6 4.4c1.1 0 1.7-.6 1.7-1.5c0-.9-.6-1.6-1.7-1.6c.04.05-3 0-3 0v3.1s3.04.05 3 0zm.1 4.7c1.1 0 1.8-.6 1.8-1.6c0-.9-.6-1.7-1.8-1.7c.02.04-3.1 0-3.1 0v3.3s3.12.05 3.1 0zm9.9.6c-.6.7-1.4 1-2.5 1c-1.2 0-2.6-.8-2.6-2.5c0-1.8 1.4-2.5 2.6-2.5c1.1 0 2 .3 2.5 1V7.4c0-.9-.7-1.5-1.8-1.5c-.9 0-1.6.3-2.3 1l-.6-1c.8-.8 1.9-1.2 3.1-1.2c1.7 0 3.1.7 3.1 2.7c-.02-.03 0 5.1 0 5.1h-1.5s.05-.8 0-.8zm0-2.1c-.4-.6-1.1-.9-1.9-.9c-1.1 0-1.8.6-1.8 1.5c0 .9.7 1.5 1.8 1.5c.8 0 1.5-.3 1.9-.8V9.6zm8.8-2c0-1.2-.7-1.6-1.7-1.6c-.8 0-1.7.5-2.1 1.1c.03-.03 0 5.4 0 5.4h-1.4V4.9h1.4s.03 1.05 0 1.1c.5-.7 1.6-1.3 2.8-1.3c1.6 0 2.4.8 2.4 2.5v5.3h-1.4s-.02-4.86 0-4.9zm4.1 5.9c.7.7 1.5 1 2.5 1c1.2 0 2.4-.6 2.4-2.2v-1c-.6.8-1.5 1.3-2.5 1.3c-2 0-3.5-1.5-3.5-4c0-2.4 1.5-3.9 3.5-3.9c1 0 1.9.5 2.5 1.3c-.01-.01 0-1.1 0-1.1h1.4v7.3c0 2.7-1.9 3.5-3.8 3.5c-1.3 0-2.2-.3-3.1-1.2l.6-1zm4.9-6.4c-.4-.6-1.3-1.1-2.1-1.1c-1.5 0-2.4 1.1-2.4 2.6c0 1.6.9 2.7 2.4 2.7c.8 0 1.7-.5 2.1-1.1V7.1zm11.1 1.4h-2v4h-1.6V2s4.46-.05 4.5 0c2 0 3.4 1.3 3.4 3.2c0 1.9-1.3 2.9-2.7 3.1c.02 0 2.7 4.2 2.7 4.2h-1.8l-2.5-4zm.7-5.2c-.05.05-2.7 0-2.7 0v3.8s2.65-.03 2.7 0c1.1 0 1.9-.8 1.9-1.9c0-1.1-.8-1.9-1.9-1.9zm8.2 1.4c2.3 0 3.7 1.8 3.7 4.1c.04.03 0 .4 0 .4c0 0-6.03-.02-6 0c.1 1.3 1 2.4 2.6 2.4c.8 0 1.7-.4 2.3-.9l.6.9c-.7.7-1.8 1.1-3.1 1.1c-2.3 0-3.9-1.6-3.9-4c0-2.2 1.6-4 3.8-4zm-2.3 3.4h4.6c0-1-.7-2.2-2.3-2.2c-1.5 0-2.3 1.2-2.3 2.2zm12.4 3.6c-.6.7-1.5 1-2.5 1c-1.3 0-2.7-.8-2.7-2.5c0-1.8 1.4-2.5 2.7-2.5c1 0 1.9.3 2.5 1V7.4c0-.9-.8-1.5-1.9-1.5c-.8 0-1.6.3-2.3 1l-.6-1c.9-.8 1.9-1.2 3.2-1.2c1.6 0 3 .7 3 2.7c.04-.03 0 5.1 0 5.1h-1.4v-.8zm0-2.1c-.4-.6-1.2-.9-2-.9c-1 0-1.7.6-1.7 1.5c0 .9.7 1.5 1.7 1.5c.8 0 1.6-.3 2-.8V9.6zM67.3 2h1.4v10.5h-1.4V2zm3.8 8.8V6.1h-1.3V4.9h1.3V2.8h1.4v2.1h1.6v1.2h-1.6s.02 4.43 0 4.4c0 .6.3 1 .8 1c.3 0 .6-.2.7-.3l.4 1c-.3.3-.7.5-1.5.5c-1.2 0-1.8-.6-1.8-1.9zm4.9 3.6c.5 0 .9-.2 1.1-.8c0 .04.4-1 .4-1l-3.1-7.7h1.5l2.4 6l2.4-6h1.5s-3.74 9.11-3.7 9.1c-.5 1.2-1.4 1.6-2.5 1.7c-.2 0-.6-.1-.9-.2l.3-1.2c.1 0 .4.1.6.1zm10.5-6.3h3.8v1.2h-3.8V8.1zM96 9.8c.7.8 1.9 1.5 3.3 1.5c1.8 0 2.4-.9 2.4-1.6c0-1.1-1.2-1.4-2.6-1.8c-1.7-.4-3.7-.9-3.7-3.1c0-1.7 1.6-3 3.8-3c1.6 0 2.9.5 3.8 1.5l-.9 1.1c-.8-.8-1.9-1.2-3-1.2c-1.2 0-2 .6-2 1.5c0 1 1.1 1.3 2.4 1.6c1.8.4 3.8 1 3.8 3.2c0 1.7-1.2 3.2-4 3.2c-1.9 0-3.3-.6-4.2-1.6l.9-1.3zm8.5-1.1c0-2.2 1.4-4 3.8-4c2.4 0 3.9 1.8 3.9 4c0 2.2-1.5 4-3.9 4c-2.4 0-3.8-1.8-3.8-4zm6.2 0c0-1.4-.8-2.7-2.4-2.7c-1.5 0-2.4 1.3-2.4 2.7c0 1.5.9 2.8 2.4 2.8c1.6 0 2.4-1.3 2.4-2.8zm8.3 2.8c-.6.6-1.5 1.2-2.7 1.2c-1.6 0-2.4-.8-2.4-2.4c-.04-.01 0-5.4 0-5.4h1.4v4.9c0 1.3.6 1.7 1.6 1.7c.9 0 1.7-.5 2.1-1.1c.04-.01 0-5.5 0-5.5h1.5v7.6H119s.04-1 0-1zm3.9-.7c-.04.05 0-4.7 0-4.7h-1.3V4.9h1.3V2.8h1.4v2.1h1.5v1.2h-1.5s-.01 4.43 0 4.4c0 .6.2 1 .7 1c.4 0 .7-.2.8-.3l.4 1c-.3.3-.8.5-1.5.5c-1.2 0-1.8-.6-1.8-1.9zm9.6-3.2c0-1.3-.7-1.6-1.7-1.6c-.9 0-1.7.5-2.1 1.1v5.4h-1.4V2h1.4v4c.5-.7 1.5-1.3 2.7-1.3c1.7 0 2.5.8 2.5 2.4c-.02.03 0 5.4 0 5.4h-1.4s-.05-4.89 0-4.9zm7-.3c0-3.3 2.4-5.5 5.5-5.5c2 0 3.3 1 4.2 2.2l-1.4.7c-.5-.9-1.6-1.5-2.8-1.5c-2.2 0-3.8 1.7-3.8 4.1c0 2.3 1.6 4 3.8 4c1.2 0 2.3-.6 2.8-1.5l1.4.7c-.9 1.2-2.2 2.2-4.2 2.2c-3.1 0-5.5-2.2-5.5-5.4zm15.8 4.4c-.6.7-1.5 1-2.5 1c-1.3 0-2.7-.8-2.7-2.5c0-1.8 1.4-2.5 2.7-2.5c1 0 1.9.3 2.5 1V7.4c0-.9-.8-1.5-1.9-1.5c-.8 0-1.6.3-2.3 1l-.6-1c.9-.8 1.9-1.2 3.2-1.2c1.6 0 3 .7 3 2.7c.03-.03 0 5.1 0 5.1h-1.4v-.8zm0-2.1c-.4-.6-1.2-.9-2-.9c-1 0-1.7.6-1.7 1.5c0 .9.7 1.5 1.7 1.5c.8 0 1.6-.3 2-.8V9.6zm3.6-4.7h1.4s-.01 1.15 0 1.1c.6-.7 1.5-1.3 2.5-1.3v1.4h-.5c-.7 0-1.7.5-2 1.1v5.3h-1.4V4.9zm4.7 3.8c0-2.2 1.5-4 3.9-4c2.4 0 3.8 1.8 3.8 4c0 2.2-1.4 4-3.8 4c-2.4 0-3.9-1.8-3.9-4zm6.3 0c0-1.4-.9-2.7-2.4-2.7c-1.6 0-2.4 1.3-2.4 2.7c0 1.5.8 2.8 2.4 2.8c1.5 0 2.4-1.3 2.4-2.8zM173 2h1.4v10.5H173V2zm3.3.7c0-.5.4-.9.9-.9c.5 0 1 .4 1 .9c0 .5-.5.9-1 .9c-.5 0-.9-.4-.9-.9zm.2 2.2h1.5v7.6h-1.5V4.9zm8.8 2.7c0-1.2-.7-1.6-1.7-1.6c-.9 0-1.7.5-2.1 1.1v5.4h-1.4V4.9h1.4v1.1c.5-.7 1.5-1.3 2.7-1.3c1.6 0 2.5.8 2.5 2.5c-.02-.04 0 5.3 0 5.3h-1.4s-.05-4.86 0-4.9zm8.2 4.1c-.6.7-1.4 1-2.5 1c-1.3 0-2.6-.8-2.6-2.5c0-1.8 1.3-2.5 2.6-2.5c1.1 0 1.9.3 2.5 1V7.4c0-.9-.8-1.5-1.8-1.5c-.9 0-1.7.3-2.4 1l-.6-1c.9-.8 1.9-1.2 3.2-1.2c1.6 0 3.1.7 3.1 2.7c-.05-.03 0 5.1 0 5.1h-1.5s.03-.8 0-.8zm0-2.1c-.4-.6-1.1-.9-1.9-.9c-1.1 0-1.8.6-1.8 1.5c0 .9.7 1.5 1.8 1.5c.8 0 1.5-.3 1.9-.8V9.6zm3.3 4.5c.6-.4 1-1 1.1-1.5h-.2c-.5 0-.9-.4-.9-.9c0-.5.5-1 1-1c.6 0 1.1.5 1.1 1.4c0 1-.6 1.9-1.4 2.5l-.7-.5zM204.7 2h1.6v10.5h-1.6V2zm8.9 5.6c0-1.2-.6-1.6-1.6-1.6c-.9 0-1.7.5-2.1 1.1c-.03-.03 0 5.4 0 5.4h-1.5V4.9h1.5s-.03 1.05 0 1.1c.5-.7 1.5-1.3 2.7-1.3c1.6 0 2.4.8 2.4 2.5c.04-.04 0 5.3 0 5.3h-1.4s.02-4.86 0-4.9zm7-2.9c1.4 0 2.3.6 2.9 1.3l-1 .9c-.5-.6-1.1-.9-1.9-.9c-1.5 0-2.4 1.1-2.4 2.7c0 1.6.9 2.8 2.4 2.8c.8 0 1.4-.4 1.9-1l1 .9c-.6.7-1.5 1.3-2.9 1.3c-2.3 0-3.9-1.7-3.9-4c0-2.3 1.6-4 3.9-4z" stroke="none" fill="#888888"/></g></svg>