<?xml version="1.0" standalone="no"?>
<!DOCTYPE svg PUBLIC "-//W3C//DTD SVG 1.1//EN" "http://www.w3.org/Graphics/SVG/1.1/DTD/svg11.dtd">
<svg xmlns="http://www.w3.org/2000/svg" version="1.1" width="109.3px" height="27.9px" viewBox="0 -6 109.3 27.9" style="top:-6px">
  <desc>Year Built</desc>
  <defs/>
  <g id="Polygon269131">
    <path d="M 4.2 8.1 L 0.1 2 L 1.9 2 L 5 6.7 L 8.1 2 L 9.9 2 L 5.8 8.1 L 5.8 12.5 L 4.2 12.5 L 4.2 8.1 Z M 12.5 4.7 C 14.9 4.7 16.3 6.5 16.3 8.8 C 16.28 8.83 16.3 9.2 16.3 9.2 C 16.3 9.2 10.21 9.18 10.2 9.2 C 10.3 10.5 11.3 11.6 12.8 11.6 C 13.6 11.6 14.5 11.2 15.1 10.7 C 15.1 10.7 15.8 11.6 15.8 11.6 C 15 12.3 13.9 12.7 12.7 12.7 C 10.4 12.7 8.7 11.1 8.7 8.7 C 8.7 6.5 10.3 4.7 12.5 4.7 Z M 10.2 8.1 C 10.2 8.1 14.9 8.1 14.9 8.1 C 14.9 7.1 14.2 5.9 12.5 5.9 C 11 5.9 10.3 7.1 10.2 8.1 Z M 22.8 11.7 C 22.2 12.4 21.3 12.7 20.3 12.7 C 19 12.7 17.6 11.9 17.6 10.2 C 17.6 8.4 19 7.7 20.3 7.7 C 21.3 7.7 22.2 8 22.8 8.7 C 22.8 8.7 22.8 7.4 22.8 7.4 C 22.8 6.5 22 5.9 20.9 5.9 C 20.1 5.9 19.3 6.2 18.6 6.9 C 18.6 6.9 18 5.9 18 5.9 C 18.9 5.1 19.9 4.7 21.2 4.7 C 22.8 4.7 24.2 5.4 24.2 7.4 C 24.24 7.37 24.2 12.5 24.2 12.5 L 22.8 12.5 C 22.8 12.5 22.81 11.71 22.8 11.7 Z M 22.8 9.6 C 22.4 9 21.6 8.7 20.8 8.7 C 19.8 8.7 19.1 9.3 19.1 10.2 C 19.1 11.1 19.8 11.7 20.8 11.7 C 21.6 11.7 22.4 11.4 22.8 10.9 C 22.8 10.9 22.8 9.6 22.8 9.6 Z M 26.5 4.9 L 28 4.9 C 28 4.9 27.95 6.05 28 6.1 C 28.5 5.3 29.4 4.7 30.5 4.7 C 30.5 4.7 30.5 6.1 30.5 6.1 C 30.3 6.1 30.2 6.1 30 6.1 C 29.3 6.1 28.3 6.6 28 7.2 C 27.95 7.21 28 12.5 28 12.5 L 26.5 12.5 L 26.5 4.9 Z M 36 2 C 36 2 40.99 1.95 41 2 C 42.9 2 44 3.1 44 4.7 C 44 6 43.1 6.9 42.1 7.1 C 43.3 7.3 44.2 8.4 44.2 9.7 C 44.2 11.4 43.1 12.5 41.1 12.5 C 41.12 12.55 36 12.5 36 12.5 L 36 2 Z M 40.7 6.4 C 41.8 6.4 42.3 5.8 42.3 4.9 C 42.3 4 41.8 3.4 40.7 3.4 C 40.69 3.35 37.6 3.4 37.6 3.4 L 37.6 6.4 C 37.6 6.4 40.69 6.45 40.7 6.4 Z M 40.8 11.2 C 41.9 11.2 42.5 10.5 42.5 9.5 C 42.5 8.6 41.9 7.8 40.8 7.8 C 40.77 7.84 37.6 7.8 37.6 7.8 L 37.6 11.2 C 37.6 11.2 40.77 11.15 40.8 11.2 Z M 51.3 11.5 C 50.7 12.1 49.7 12.7 48.6 12.7 C 46.9 12.7 46.1 11.9 46.1 10.3 C 46.12 10.29 46.1 4.9 46.1 4.9 L 47.6 4.9 C 47.6 4.9 47.55 9.82 47.6 9.8 C 47.6 11.1 48.2 11.5 49.2 11.5 C 50.1 11.5 50.9 11 51.3 10.4 C 51.3 10.39 51.3 4.9 51.3 4.9 L 52.7 4.9 L 52.7 12.5 L 51.3 12.5 C 51.3 12.5 51.3 11.5 51.3 11.5 Z M 54.8 2.7 C 54.8 2.2 55.2 1.8 55.7 1.8 C 56.2 1.8 56.6 2.2 56.6 2.7 C 56.6 3.2 56.2 3.6 55.7 3.6 C 55.2 3.6 54.8 3.2 54.8 2.7 Z M 55 4.9 L 56.4 4.9 L 56.4 12.5 L 55 12.5 L 55 4.9 Z M 58.7 2 L 60.1 2 L 60.1 12.5 L 58.7 12.5 L 58.7 2 Z M 62.7 10.8 C 62.69 10.85 62.7 6.1 62.7 6.1 L 61.4 6.1 L 61.4 4.9 L 62.7 4.9 L 62.7 2.8 L 64.1 2.8 L 64.1 4.9 L 65.7 4.9 L 65.7 6.1 L 64.1 6.1 C 64.1 6.1 64.12 10.53 64.1 10.5 C 64.1 11.1 64.4 11.5 64.9 11.5 C 65.2 11.5 65.5 11.3 65.6 11.2 C 65.6 11.2 66 12.2 66 12.2 C 65.7 12.5 65.3 12.7 64.5 12.7 C 63.3 12.7 62.7 12.1 62.7 10.8 Z " stroke="none" fill="#000"/>
  </g>
</svg>