<?xml version="1.0" standalone="no"?><!DOCTYPE svg PUBLIC "-//W3C//DTD SVG 1.1//EN" "http://www.w3.org/Graphics/SVG/1.1/DTD/svg11.dtd"><svg xmlns="http://www.w3.org/2000/svg" version="1.1" width="198.3px" height="42.3px" viewBox="0 -1 198.3 42.3" style="top:-1px"><desc>REQUEST MORE INFO</desc><defs/><g id="Polygon116341"><path d="m24.7 20.6h-1.9v4.1h-1.6V14.1s4.43.01 4.4 0c2 0 3.4 1.3 3.4 3.3c0 1.9-1.3 2.9-2.6 3.1c-.01-.04 2.7 4.2 2.7 4.2h-1.8l-2.6-4.1zm.7-5.1h-2.6v3.7s2.62.02 2.6 0c1.2 0 2-.7 2-1.8c0-1.2-.8-1.9-2-1.9zm5.6-1.4h7.1v1.4h-5.5v3.1h5.4v1.4h-5.4v3.3h5.5v1.4H31V14.1zm17.9 9.2l.9 1l-1.1.9s-.95-1.03-.9-1c-.8.4-1.8.7-2.8.7c-3.2 0-5.4-2.3-5.4-5.5c0-3.1 2.2-5.5 5.4-5.5c3.1 0 5.3 2.4 5.3 5.5c0 1.6-.5 2.9-1.4 3.9zm-2.2-.3l-1.4-1.5l1.1-.9s1.43 1.51 1.4 1.5c.6-.7.9-1.6.9-2.7c0-2.3-1.5-4.1-3.7-4.1c-2.3 0-3.7 1.8-3.7 4.1c0 2.3 1.4 4.1 3.7 4.1c.6 0 1.2-.2 1.7-.5zm5.5-8.9h1.6s.03 6.41 0 6.4c0 1.8 1 3 2.9 3c1.9 0 2.8-1.2 2.8-3c.04.01 0-6.4 0-6.4h1.6s.04 6.44 0 6.4c0 2.7-1.4 4.4-4.4 4.4c-3 0-4.5-1.7-4.5-4.3c.03-.05 0-6.5 0-6.5zm11.3 0h7.1v1.4h-5.5v3.1h5.4v1.4h-5.4v3.3h5.5v1.4h-7.1V14.1zm9.4 7.9c.7.8 1.8 1.5 3.3 1.5c1.7 0 2.3-.9 2.3-1.7c0-1.1-1.2-1.4-2.5-1.7c-1.7-.5-3.7-1-3.7-3.1c0-1.8 1.5-3.1 3.7-3.1c1.7 0 3 .6 3.9 1.5l-.9 1.2c-.8-.9-1.9-1.2-3.1-1.2c-1.2 0-2 .6-2 1.5c0 .9 1.2 1.2 2.5 1.5c1.7.5 3.7 1 3.7 3.3c0 1.6-1.1 3.2-4 3.2c-1.9 0-3.2-.7-4.1-1.7l.9-1.2zm11.5-6.5h-3.3v-1.4h8.2v1.4H86v9.2h-1.6v-9.2zm19.8.8l-3.5 8.4h-.6l-3.5-8.4v8.4H95V14.1h2.3l3.1 7.6l3.1-7.6h2.2v10.6h-1.5v-8.4zm8.8-2.4c3.1 0 5.3 2.4 5.3 5.5c0 3.2-2.2 5.5-5.3 5.5c-3.2 0-5.3-2.3-5.3-5.5c0-3.1 2.1-5.5 5.3-5.5zm0 1.4c-2.3 0-3.7 1.8-3.7 4.1c0 2.3 1.4 4.1 3.7 4.1c2.2 0 3.7-1.8 3.7-4.1c0-2.3-1.5-4.1-3.7-4.1zm10.8 5.3h-2v4.1h-1.6V14.1h4.5c2 0 3.4 1.3 3.4 3.3c0 1.9-1.3 2.9-2.6 3.1l2.7 4.2h-1.9l-2.5-4.1zm.7-5.1h-2.7v3.7s2.7.02 2.7 0c1.1 0 2-.7 2-1.8c0-1.2-.9-1.9-2-1.9zm5.6-1.4h7.1v1.4h-5.6v3.1h5.5v1.4h-5.5v3.3h5.6v1.4h-7.1V14.1zm13.2 0h1.5v10.6h-1.5V14.1zm5.5 2.5v8.1h-1.6V14.1h1.6l5.8 7.9v-7.9h1.6v10.6h-1.5l-5.9-8.1zm9.7-2.5h7.2v1.4h-5.6v3.1h5.4v1.4h-5.4v4.7h-1.6V14.1zm13.8-.2c3.1 0 5.3 2.4 5.3 5.5c0 3.2-2.2 5.5-5.3 5.5c-3.2 0-5.4-2.3-5.4-5.5c0-3.1 2.2-5.5 5.4-5.5zm0 1.4c-2.3 0-3.7 1.8-3.7 4.1c0 2.3 1.4 4.1 3.7 4.1c2.2 0 3.7-1.8 3.7-4.1c0-2.3-1.5-4.1-3.7-4.1z" stroke="none" fill="#ffffff"/></g></svg>