<?xml version="1.0" standalone="no"?><!DOCTYPE svg PUBLIC "-//W3C//DTD SVG 1.1//EN" "http://www.w3.org/Graphics/SVG/1.1/DTD/svg11.dtd"><svg xmlns="http://www.w3.org/2000/svg" version="1.1" width="75.4px" height="15.9px" viewBox="0 -4 75.4 15.9" style="top:-4px"><desc>60,570</desc><defs/><g id="Polygon110523"><path d="m50.6 1c.8 0 1.3.3 1.7.8l-.4.4c-.2-.4-.6-.7-1.3-.7c-1.3 0-1.7 1.3-1.7 2.6v.3c.2-.4.9-1 1.7-1c1.1 0 2 .6 2 1.9c0 1-.8 1.9-2.1 1.9c-1.6 0-2.2-1.5-2.2-3.1c0-1.5.7-3.1 2.3-3.1zm-.1 2.9c-.6 0-1.3.4-1.6 1c.1.8.5 1.9 1.6 1.9c1.1 0 1.5-.8 1.5-1.5c0-1-.6-1.4-1.5-1.4zM55.8 1C57.4 1 58 2.7 58 4.1c0 1.4-.6 3.1-2.2 3.1c-1.6 0-2.2-1.7-2.2-3.1c0-1.4.6-3.1 2.2-3.1zm0 .5c-1.3 0-1.7 1.4-1.7 2.6c0 1.2.4 2.7 1.7 2.7c1.3 0 1.7-1.5 1.7-2.7c0-1.2-.4-2.6-1.7-2.6zM58.7 8c.3-.2.5-.6.6-.8h-.1c-.2 0-.4-.2-.4-.4c0-.2.2-.4.4-.4c.2 0 .5.2.5.6c0 .5-.3 1-.7 1.2l-.3-.2zm2.5-2.1c.4.5.9.9 1.7.9c.8 0 1.5-.7 1.5-1.5c0-.9-.6-1.5-1.5-1.5c-.6 0-1 .2-1.5.6c.03.02-.4-.1-.4-.1V1.1h3.5v.5h-2.9s-.04 2.32 0 2.3c.3-.3.8-.5 1.4-.5c1 0 1.9.6 1.9 1.9c0 1.2-.9 1.9-2 1.9c-1 0-1.6-.4-2-1l.3-.3zM69 1.6h-3.3v-.5h4v.4l-2.6 5.6h-.6L69 1.6zm3.7-.6c1.6 0 2.2 1.7 2.2 3.1c0 1.4-.6 3.1-2.2 3.1c-1.6 0-2.2-1.7-2.2-3.1c0-1.4.6-3.1 2.2-3.1zm0 .5c-1.3 0-1.7 1.4-1.7 2.6c0 1.2.4 2.7 1.7 2.7c1.2 0 1.7-1.5 1.7-2.7c0-1.2-.4-2.6-1.7-2.6z" stroke="none" fill="#000"/></g></svg>