<?xml version="1.0" standalone="no"?><!DOCTYPE svg PUBLIC "-//W3C//DTD SVG 1.1//EN" "http://www.w3.org/Graphics/SVG/1.1/DTD/svg11.dtd"><svg xmlns="http://www.w3.org/2000/svg" version="1.1" width="125.4px" height="27.3px" viewBox="0 -6 125.4 27.3" style="top:-6px"><desc>45,088</desc><defs/><g id="Polygon114423"><path d="m81.9 9.7h-5v-.9L81.6 2h1.2v6.8h1.5v.9h-1.5v2.8h-.9V9.7zm-4.1-.9h4.1V2.9l-4.1 5.9zm8.9 1.6c.6 1 1.6 1.5 2.9 1.5c1.6 0 2.7-1.1 2.7-2.5c0-1.7-1.1-2.6-2.6-2.6c-1 0-1.8.3-2.6 1l-.7-.3V2h6.1v.8h-5.2v4.1c.5-.5 1.4-1 2.5-1c1.8 0 3.4 1.2 3.4 3.4c0 2.1-1.6 3.4-3.6 3.4c-1.7 0-2.8-.6-3.5-1.7l.6-.6zm8.4 3.7c.5-.3.8-1 .9-1.5l-.2.1c-.4 0-.6-.3-.6-.7c0-.4.3-.7.6-.7c.5 0 .9.4.9 1c0 .9-.6 1.8-1.2 2.2l-.4-.4zm7.4-12.3c2.8 0 3.9 2.9 3.9 5.5c0 2.5-1.1 5.4-3.9 5.4c-2.9 0-4-2.9-4-5.4c0-2.6 1.1-5.5 4-5.5zm0 .8c-2.3 0-3 2.5-3 4.7c0 2.1.7 4.6 3 4.6c2.2 0 2.9-2.5 2.9-4.6c0-2.2-.7-4.7-2.9-4.7zm8.3 4.5c-1.2-.3-2.4-1.2-2.4-2.6c0-1.8 1.7-2.7 3.4-2.7c1.7 0 3.4.9 3.4 2.7c0 1.4-1.2 2.3-2.4 2.6c1.3.4 2.6 1.3 2.6 2.8c0 1.7-1.6 2.8-3.6 2.8c-2 0-3.6-1.1-3.6-2.8c0-1.5 1.3-2.4 2.6-2.8zm1-4.5c-1.4 0-2.5.8-2.5 2c0 1.5 1.9 2 2.5 2.1c.7-.1 2.5-.6 2.5-2.1c0-1.2-1.1-2-2.5-2zm0 4.9c-.6.1-2.7.7-2.7 2.3c0 1.3 1.3 2.1 2.7 2.1c1.4 0 2.7-.8 2.7-2.1c0-1.6-2.1-2.2-2.7-2.3zm8.1-.4c-1.3-.3-2.5-1.2-2.5-2.6c0-1.8 1.8-2.7 3.5-2.7c1.6 0 3.4.9 3.4 2.7c0 1.4-1.2 2.3-2.5 2.6c1.4.4 2.7 1.3 2.7 2.8c0 1.7-1.6 2.8-3.6 2.8c-2.1 0-3.6-1.1-3.6-2.8c0-1.5 1.3-2.4 2.6-2.8zm1-4.5c-1.4 0-2.5.8-2.5 2c0 1.5 1.8 2 2.5 2.1c.6-.1 2.5-.6 2.5-2.1c0-1.2-1.1-2-2.5-2zm0 4.9c-.7.1-2.7.7-2.7 2.3c0 1.3 1.3 2.1 2.7 2.1c1.4 0 2.7-.8 2.7-2.1c0-1.6-2.1-2.2-2.7-2.3z" stroke="none" fill="#000"/></g></svg>