<?xml version="1.0" standalone="no"?><!DOCTYPE svg PUBLIC "-//W3C//DTD SVG 1.1//EN" "http://www.w3.org/Graphics/SVG/1.1/DTD/svg11.dtd"><svg xmlns="http://www.w3.org/2000/svg" version="1.1" width="103px" height="28.3px" viewBox="0 -6 103 28.3" style="top:-6px"><desc>2020 Estimate</desc><defs/><g id="Polygon318558"><path d="m.8 11.3c4-3.1 5.8-4.6 5.8-6.3c0-1.3-1-1.8-2-1.8c-1.3 0-2.3.5-2.9 1.3l-1-1c.9-1.1 2.4-1.7 3.8-1.7c1.9 0 3.7 1.1 3.7 3.2c0 2.1-1.9 3.9-4.8 6.1c-.05.05 4.9 0 4.9 0v1.4H.8s.03-1.21 0-1.2zm13.5-9.5c2.9 0 4.1 2.8 4.1 5.5c0 2.6-1.2 5.4-4.1 5.4c-3 0-4.2-2.8-4.2-5.4c0-2.7 1.2-5.5 4.2-5.5zm0 1.4c-1.9 0-2.6 2-2.6 4.1c0 2 .7 4 2.6 4c1.8 0 2.5-2 2.5-4c0-2.1-.7-4.1-2.5-4.1zm5.7 8.1c3.9-3.1 5.8-4.6 5.8-6.3c0-1.3-1.1-1.8-2.1-1.8c-1.3 0-2.2.5-2.9 1.3l-.9-1c.9-1.1 2.3-1.7 3.8-1.7c1.9 0 3.7 1.1 3.7 3.2c0 2.1-2 3.9-4.9 6.1c-.01.05 4.9 0 4.9 0v1.4H20s-.04-1.21 0-1.2zm13.4-9.5c2.9 0 4.1 2.8 4.1 5.5c0 2.6-1.2 5.4-4.1 5.4c-2.9 0-4.1-2.8-4.1-5.4c0-2.7 1.2-5.5 4.1-5.5zm0 1.4c-1.9 0-2.5 2-2.5 4.1c0 2 .6 4 2.5 4c1.9 0 2.5-2 2.5-4c0-2.1-.6-4.1-2.5-4.1zM43.5 2h7.2v1.3h-5.6v3.1h5.4v1.4h-5.4v3.3h5.6v1.4h-7.2V2zm9.1 8.5c.5.6 1.6 1.1 2.6 1.1c1.1 0 1.7-.5 1.7-1.1c0-.8-.9-1-1.9-1.2c-1.3-.3-2.8-.7-2.8-2.3c0-1.3 1-2.3 2.9-2.3c1.3 0 2.3.5 2.9 1.1l-.6 1c-.5-.6-1.3-1-2.3-1c-1 0-1.6.4-1.6 1c0 .7.9.9 1.8 1.2c1.3.3 2.9.6 2.9 2.4c0 1.3-1 2.3-3.1 2.3c-1.3 0-2.4-.4-3.2-1.2l.7-1zm7.7.3c.03.05 0-4.7 0-4.7h-1.2V4.9h1.2V2.8h1.5v2.1h1.5v1.2h-1.5s-.04 4.43 0 4.4c0 .6.2 1 .7 1c.3 0 .6-.2.8-.3l.3 1c-.3.3-.7.5-1.4.5c-1.3 0-1.9-.6-1.9-1.9zm4.4-8.1c0-.5.4-.9.9-.9c.5 0 .9.4.9.9c0 .5-.4.9-.9.9c-.5 0-.9-.4-.9-.9zm.2 2.2h1.4v7.6h-1.4V4.9zm13 2.5c0-.9-.4-1.4-1.3-1.4c-.8 0-1.6.5-1.9 1c-.02.05 0 5.5 0 5.5h-1.4s-.05-5.07 0-5.1c0-.9-.4-1.4-1.4-1.4c-.7 0-1.5.5-1.9 1.1c.03-.03 0 5.4 0 5.4h-1.4V4.9h1.4s.03 1.05 0 1.1c.3-.5 1.4-1.3 2.5-1.3c1.2 0 1.8.6 2.1 1.4c.4-.7 1.4-1.4 2.6-1.4c1.4 0 2.2.8 2.2 2.3c-.05 0 0 5.5 0 5.5h-1.5s.02-5.07 0-5.1zm8.5 4.3c-.6.7-1.5 1-2.6 1c-1.2 0-2.6-.8-2.6-2.5c0-1.8 1.4-2.5 2.6-2.5c1.1 0 2 .3 2.6 1V7.4c0-.9-.8-1.5-1.9-1.5c-.9 0-1.6.3-2.3 1l-.6-1c.8-.8 1.9-1.2 3.1-1.2c1.7 0 3.1.7 3.1 2.7c-.02-.03 0 5.1 0 5.1h-1.4s-.04-.8 0-.8zm0-2.1c-.5-.6-1.2-.9-2-.9c-1 0-1.8.6-1.8 1.5c0 .9.8 1.5 1.8 1.5c.8 0 1.5-.3 2-.8V9.6zm4 1.2c-.04.05 0-4.7 0-4.7h-1.3V4.9h1.3V2.8h1.4v2.1h1.5v1.2h-1.5s-.02 4.43 0 4.4c0 .6.2 1 .7 1c.4 0 .7-.2.8-.3l.4 1c-.3.3-.8.5-1.5.5c-1.2 0-1.8-.6-1.8-1.9zm7.9-6.1c2.3 0 3.7 1.8 3.7 4.1c.03.03 0 .4 0 .4c0 0-6.04-.02-6 0c.1 1.3 1 2.4 2.6 2.4c.8 0 1.7-.4 2.2-.9l.7.9c-.8.7-1.8 1.1-3.1 1.1c-2.3 0-3.9-1.6-3.9-4c0-2.2 1.6-4 3.8-4zm-2.4 3.4h4.7c0-1-.7-2.2-2.3-2.2c-1.5 0-2.3 1.2-2.4 2.2z" stroke="none" fill="#000"/></g></svg>