<?xml version="1.0" standalone="no"?><!DOCTYPE svg PUBLIC "-//W3C//DTD SVG 1.1//EN" "http://www.w3.org/Graphics/SVG/1.1/DTD/svg11.dtd"><svg xmlns="http://www.w3.org/2000/svg" version="1.1" width="73.4px" height="16.9px" viewBox="0 -4 73.4 16.9" style="top:-4px"><desc>Forbes Ranking</desc><defs/><g id="Polygon76264"><path d="m.7 1.1h4v.8H1.6v1.8h3v.7h-3v2.7h-.9v-6zm4.6 3.8c0-1.2.8-2.2 2.2-2.2c1.3 0 2.2 1 2.2 2.2c0 1.3-.9 2.3-2.2 2.3c-1.4 0-2.2-1-2.2-2.3zm3.5 0c0-.8-.4-1.5-1.3-1.5c-.9 0-1.4.7-1.4 1.5c0 .9.5 1.6 1.4 1.6c.9 0 1.3-.7 1.3-1.6zm1.8-2.1h.8s.03.63 0 .6c.4-.4.9-.7 1.5-.7v.8h-.3c-.4 0-1 .3-1.2.6c.03-.01 0 3 0 3h-.8V2.8zm3-1.7h.8s-.02 2.29 0 2.3c.3-.5.8-.7 1.4-.7c1.1 0 1.9.8 1.9 2.2c0 1.5-.8 2.3-1.9 2.3c-.6 0-1.1-.3-1.4-.7c-.02-.01 0 .6 0 .6h-.8v-6zm2 5.4c.8 0 1.3-.6 1.3-1.6c0-.9-.5-1.5-1.3-1.5c-.5 0-1 .3-1.2.6v1.9c.2.3.7.6 1.2.6zm5-3.8c1.3 0 2.1 1 2.1 2.3v.2h-3.4c0 .7.6 1.4 1.4 1.4c.5 0 1-.2 1.3-.6l.4.6c-.4.4-1 .6-1.7.6c-1.3 0-2.3-.9-2.3-2.3c0-1.2.9-2.2 2.2-2.2zm-1.3 1.9h2.6c0-.6-.4-1.3-1.3-1.3c-.9 0-1.3.7-1.3 1.3zm4.3 1.3c.3.4.9.7 1.5.7c.6 0 .9-.3.9-.7c0-.4-.5-.5-1-.7c-.8-.1-1.6-.3-1.6-1.3c0-.7.6-1.2 1.6-1.2c.8 0 1.3.2 1.7.6l-.4.5c-.2-.3-.7-.5-1.3-.5c-.5 0-.8.2-.8.6c0 .4.4.5 1 .6c.7.2 1.6.4 1.6 1.4c0 .7-.6 1.3-1.7 1.3c-.8 0-1.4-.2-1.8-.7l.3-.6zM32 4.8h-1.1v2.3h-.9v-6s2.53.01 2.5 0c1.2 0 2 .7 2 1.9c0 1-.8 1.6-1.5 1.7c-.03.01 1.5 2.4 1.5 2.4h-1L32 4.8zm.4-2.9h-1.5v2.1h1.5c.7 0 1.1-.4 1.1-1c0-.7-.4-1.1-1.1-1.1zM38 6.6c-.4.4-.9.6-1.5.6c-.7 0-1.5-.5-1.5-1.4c0-1 .8-1.4 1.5-1.4c.6 0 1.1.1 1.5.5v-.7c0-.5-.5-.9-1.1-.9c-.5 0-.9.2-1.3.6l-.4-.5c.5-.5 1.1-.7 1.8-.7c1 0 1.8.4 1.8 1.5c-.03-.02 0 2.9 0 2.9h-.8s-.04-.47 0-.5zm0-1.2c-.3-.3-.7-.5-1.2-.5c-.5 0-1 .4-1 .9c0 .5.5.9 1 .9c.5 0 .9-.2 1.2-.5v-.8zm4.9-1.1c0-.7-.4-.9-.9-.9c-.5 0-1 .3-1.2.6v3.1h-.8V2.8h.8v.6c.3-.4.9-.7 1.5-.7c.9 0 1.4.4 1.4 1.4c.02-.04 0 3 0 3h-.8V4.3zm3.5.9l-.7.7v1.2h-.8v-6h.8v3.9l2.1-2.2h1L47 4.7l1.9 2.4h-1.1l-1.4-1.9zm3-3.7c0-.3.2-.5.5-.5c.3 0 .5.2.5.5c0 .3-.2.5-.5.5c-.3 0-.5-.2-.5-.5zm.1 1.3h.8v4.3h-.8V2.8zm4.9 1.5c0-.7-.3-.9-.9-.9c-.5 0-.9.3-1.2.6c.02 0 0 3.1 0 3.1h-.8V2.8h.8s.02.57 0 .6c.3-.4.9-.7 1.6-.7c.9 0 1.4.4 1.4 1.4c-.04-.04 0 3 0 3h-.9s.05-2.77 0-2.8zm2.4 3.3c.4.4.8.6 1.4.6c.7 0 1.4-.3 1.4-1.2v-.6c-.4.4-.9.7-1.5.7c-1.1 0-1.9-.8-1.9-2.2c0-1.4.8-2.2 1.9-2.2c.6 0 1.1.2 1.5.7c-.05-.01 0-.6 0-.6h.8s-.04 4.14 0 4.1c0 1.5-1.1 2-2.2 2c-.7 0-1.3-.2-1.8-.7l.4-.6zM59.6 4c-.3-.3-.8-.6-1.3-.6c-.8 0-1.3.6-1.3 1.5c0 .9.5 1.5 1.3 1.5c.5 0 1-.3 1.3-.6V4z" stroke="none" fill="#3797ef"/></g></svg>