<?xml version="1.0" standalone="no"?><!DOCTYPE svg PUBLIC "-//W3C//DTD SVG 1.1//EN" "http://www.w3.org/Graphics/SVG/1.1/DTD/svg11.dtd"><svg xmlns="http://www.w3.org/2000/svg" version="1.1" width="130px" height="47.9px" viewBox="0 -6 130 47.9" style="top:-6px"><desc>Agent 1</desc><defs/><g id="Polygon272445"><path d="m.4 33.7c0-1.5.5-2.9 1.3-4l.5.4c-.6 1.1-.9 2.1-.9 3.6c0 1.5.3 2.5.9 3.6l-.5.4c-.8-1.1-1.3-2.6-1.3-4zM5 29.8c1.7 0 2.4 1.6 2.4 3.1c0 1.5-.7 3.1-2.4 3.1c-1.6 0-2.3-1.6-2.3-3.1c0-1.5.7-3.1 2.3-3.1zm0 .8c-1 0-1.4 1.1-1.4 2.3c0 1.2.4 2.3 1.4 2.3c1.1 0 1.5-1.1 1.5-2.3c0-1.2-.4-2.3-1.5-2.3zm5.5-.8c1.6 0 2.3 1.6 2.3 3.1c0 1.5-.7 3.1-2.3 3.1c-1.7 0-2.4-1.6-2.4-3.1c0-1.5.7-3.1 2.4-3.1zm0 .8c-1.1 0-1.5 1.1-1.5 2.3c0 1.2.4 2.3 1.5 2.3c1 0 1.4-1.1 1.4-2.3c0-1.2-.4-2.3-1.4-2.3zm5.4-.8c1.7 0 2.4 1.6 2.4 3.1c0 1.5-.7 3.1-2.4 3.1c-1.7 0-2.3-1.6-2.3-3.1c0-1.5.6-3.1 2.3-3.1zm0 .8c-1.1 0-1.4 1.1-1.4 2.3c0 1.2.3 2.3 1.4 2.3c1.1 0 1.4-1.1 1.4-2.3c0-1.2-.3-2.3-1.4-2.3zm2.8-.5l.5-.4c.9 1.1 1.3 2.5 1.3 4c0 1.4-.4 2.9-1.3 4l-.5-.4c.6-1.1 1-2.1 1-3.6c0-1.5-.4-2.5-1-3.6zm7.1-.3c1.7 0 2.4 1.6 2.4 3.1c0 1.5-.7 3.1-2.4 3.1c-1.6 0-2.3-1.6-2.3-3.1c0-1.5.7-3.1 2.3-3.1zm0 .8c-1 0-1.4 1.1-1.4 2.3c0 1.2.4 2.3 1.4 2.3c1.1 0 1.5-1.1 1.5-2.3c0-1.2-.4-2.3-1.5-2.3zm5.5-.8c1.6 0 2.3 1.6 2.3 3.1c0 1.5-.7 3.1-2.3 3.1c-1.7 0-2.4-1.6-2.4-3.1c0-1.5.7-3.1 2.4-3.1zm0 .8c-1.1 0-1.5 1.1-1.5 2.3c0 1.2.4 2.3 1.5 2.3c1 0 1.4-1.1 1.4-2.3c0-1.2-.4-2.3-1.4-2.3zm5.4-.8c1.7 0 2.4 1.6 2.4 3.1c0 1.5-.7 3.1-2.4 3.1c-1.7 0-2.3-1.6-2.3-3.1c0-1.5.6-3.1 2.3-3.1zm0 .8c-1.1 0-1.4 1.1-1.4 2.3c0 1.2.3 2.3 1.4 2.3c1.1 0 1.4-1.1 1.4-2.3c0-1.2-.3-2.3-1.4-2.3zm3 2.8h2.1v.7h-2.1v-.7zm5.1-3.6c1.6 0 2.3 1.6 2.3 3.1c0 1.5-.7 3.1-2.3 3.1c-1.7 0-2.4-1.6-2.4-3.1c0-1.5.7-3.1 2.4-3.1zm0 .8c-1.1 0-1.5 1.1-1.5 2.3c0 1.2.4 2.3 1.5 2.3c1 0 1.4-1.1 1.4-2.3c0-1.2-.4-2.3-1.4-2.3zm5.4-.8c1.7 0 2.3 1.6 2.3 3.1c0 1.5-.6 3.1-2.3 3.1c-1.7 0-2.4-1.6-2.4-3.1c0-1.5.7-3.1 2.4-3.1zm0 .8c-1.1 0-1.4 1.1-1.4 2.3c0 1.2.3 2.3 1.4 2.3c1.1 0 1.4-1.1 1.4-2.3c0-1.2-.3-2.3-1.4-2.3zm5.4-.8c1.7 0 2.4 1.6 2.4 3.1c0 1.5-.7 3.1-2.4 3.1c-1.6 0-2.3-1.6-2.3-3.1c0-1.5.7-3.1 2.3-3.1zm0 .8c-1 0-1.4 1.1-1.4 2.3c0 1.2.4 2.3 1.4 2.3c1.1 0 1.5-1.1 1.5-2.3c0-1.2-.4-2.3-1.5-2.3zm5.5-.8c1.6 0 2.3 1.6 2.3 3.1c0 1.5-.7 3.1-2.3 3.1c-1.7 0-2.4-1.6-2.4-3.1c0-1.5.7-3.1 2.4-3.1zm0 .8c-1.1 0-1.5 1.1-1.5 2.3c0 1.2.4 2.3 1.5 2.3c1 0 1.4-1.1 1.4-2.3c0-1.2-.4-2.3-1.4-2.3z" stroke="none" fill="#3797ef"/></g><g id="Polygon272444"><path d="m2.1 19.9H.3v-.8h4.6v.8H3v5.2h-.9v-5.2zm3.5-.4c0-.3.2-.5.5-.5c.3 0 .5.2.5.5c0 .3-.2.5-.5.5c-.3 0-.5-.2-.5-.5zm.1 1.2h.8v4.4h-.8v-4.4zm2.2 3.4c-.02.02 0-2.7 0-2.7h-.7v-.7h.7v-1.1h.8v1.1h.9v.7h-.9s-.01 2.54 0 2.5c0 .3.1.6.4.6c.2 0 .4-.1.5-.2l.2.6c-.2.2-.5.3-.9.3c-.7 0-1-.4-1-1.1zm2.5-5h.8v6h-.8v-6zm3.9 1.5c1.3 0 2.1 1 2.1 2.4c.02-.02 0 .2 0 .2c0 0-3.42-.02-3.4 0c0 .7.6 1.3 1.5 1.3c.4 0 .9-.2 1.2-.5l.4.5c-.4.5-1 .7-1.7.7c-1.3 0-2.3-.9-2.3-2.3c0-1.3.9-2.3 2.2-2.3zm-1.3 2h2.6c0-.6-.4-1.3-1.3-1.3c-.9 0-1.3.7-1.3 1.3z" stroke="none" fill="#888888"/></g><g id="Polygon272443"><path d="m.8 1.9h4.8v1.6H2.7v3.2h2.5v1.6H2.7v4.8H.8V1.9zm5.8 11.2V1.9h1.9v11.2H6.6zm7.6 0l-1.4-4.5h-1v4.5H10V1.9h2.9c1.7 0 2.8.7 2.8 2.4v2c0 1-.5 1.7-1.2 2c-.04.03 1.6 4.8 1.6 4.8h-1.9zM11.8 7s1 .02 1 0c.6 0 1-.2 1-1V4.5c0-.8-.4-1-1-1c0 .02-1 0-1 0v3.5zm8.6-1.1s.05-1.58 0-1.6c0-.7-.4-.9-.9-.9c-.5 0-.9.2-.9.9v.8c0 .6.2.8.7 1.1l1.3.8c1.1.6 1.7 1.1 1.7 2.3v1.6c0 1.7-1.1 2.3-2.8 2.3c-1.7 0-2.8-.6-2.8-2.3c.04-.02 0-2 0-2h1.9s-.04 1.72 0 1.7c0 .7.4 1 .9 1c.6 0 1-.3 1-1v-.9c0-.5-.2-.8-.8-1.1l-1.3-.8c-1-.6-1.7-1.1-1.7-2.3V4.1c0-1.7 1.3-2.3 2.8-2.3c1.6 0 2.8.6 2.8 2.3c-.03-.04 0 1.8 0 1.8h-1.9zm8-2.4h-1.9v9.6h-1.8V3.5h-1.9V1.9h5.6v1.6zm7.7 9.6h-4.7V1.9h1.9v9.5h2.8v1.7zm4.4-2.5h-2l-.4 2.5h-1.8l2.1-11.2h2.3l2.1 11.2h-1.9l-.4-2.5zm-.2-1.5l-.8-5l-.8 5h1.6zM47 5.9V4.3c0-.7-.4-.9-1-.9c-.5 0-.9.2-.9.9v.8c0 .6.2.8.7 1.1l1.3.8c1.1.6 1.7 1.1 1.7 2.3v1.6c0 1.7-1 2.3-2.7 2.3h-.1c-1.6 0-2.7-.6-2.7-2.3c-.02-.02 0-2 0-2h1.8v1.7c0 .7.4 1 1 1c.5 0 .9-.3.9-1v-.9c0-.5-.2-.8-.7-1.1L45 7.8c-1.1-.6-1.7-1.1-1.7-2.3V4.1c0-1.7 1.2-2.3 2.7-2.3h.1c1.5 0 2.7.6 2.7 2.3c.02-.04 0 1.8 0 1.8H47zm7.9-2.4h-1.8v9.6h-1.9V3.5h-1.9V1.9h5.6v1.6z" stroke="none" fill="#282828"/></g></svg>