<?xml version="1.0" standalone="no"?><!DOCTYPE svg PUBLIC "-//W3C//DTD SVG 1.1//EN" "http://www.w3.org/Graphics/SVG/1.1/DTD/svg11.dtd"><svg xmlns="http://www.w3.org/2000/svg" version="1.1" width="249px" height="47.4px" viewBox="0 -10 249 47.4" style="top:-10px"><desc>25,000+</desc><defs/><g id="Polygon97151"><path d="m1.5 20.1c7-5.4 10.3-8.3 10.3-11.2c0-2.2-1.9-3.2-3.7-3.2c-2.2 0-3.9.9-5.1 2.3L1.3 6.2c1.6-2 4.1-3 6.8-3c3.4 0 6.6 1.9 6.6 5.7c0 3.6-3.6 6.9-8.7 10.9c-.04.02 8.7 0 8.7 0v2.5H1.5s-.03-2.22 0-2.2zm18.6-2.3c1.2 1.5 2.9 2.3 5.1 2.3c2.5 0 4.1-1.6 4.1-3.6c0-2.3-1.6-3.7-4-3.7c-1.7 0-3 .5-4.3 1.7c.03-.04-2-.7-2-.7V3.5h11.9v2.5h-9.1s.03 5.97 0 6c.9-.9 2.5-1.7 4.3-1.7c3.2 0 6.1 2.2 6.1 6c0 3.9-3 6.3-7 6.3c-3.2 0-5.3-1.1-6.8-2.9l1.7-1.9zm15 7.2c.9-.6 1.8-1.7 1.9-2.6h-.4c-.9 0-1.5-.7-1.5-1.6c0-1 .7-1.7 1.7-1.7c1 0 2 .8 2 2.3c0 1.9-1.1 3.6-2.5 4.6l-1.2-1zM48.9 3.2c5.2 0 7.3 5 7.3 9.7c0 4.7-2.1 9.7-7.3 9.7c-5.2 0-7.4-5-7.4-9.7c0-4.7 2.2-9.7 7.4-9.7zm0 2.5c-3.4 0-4.5 3.5-4.5 7.2c0 3.7 1.1 7.2 4.5 7.2c3.3 0 4.5-3.5 4.5-7.2c0-3.7-1.2-7.2-4.5-7.2zm17.3-2.5c5.2 0 7.4 5 7.4 9.7c0 4.7-2.2 9.7-7.4 9.7c-5.2 0-7.4-5-7.4-9.7c0-4.7 2.2-9.7 7.4-9.7zm0 2.5c-3.3 0-4.5 3.5-4.5 7.2c0 3.7 1.2 7.2 4.5 7.2c3.3 0 4.5-3.5 4.5-7.2c0-3.7-1.2-7.2-4.5-7.2zm17.3-2.5c5.3 0 7.4 5 7.4 9.7c0 4.7-2.1 9.7-7.4 9.7c-5.2 0-7.3-5-7.3-9.7c0-4.7 2.1-9.7 7.3-9.7zm0 2.5c-3.3 0-4.4 3.5-4.4 7.2c0 3.7 1.1 7.2 4.4 7.2c3.4 0 4.5-3.5 4.5-7.2c0-3.7-1.1-7.2-4.5-7.2zm16.7 13.9h-1.9v-6H93v-1.7h5.3V6.2h1.9v5.7h5.3v1.7h-5.3v6z" stroke="none" fill="#000"/></g></svg>