<?xml version="1.0" standalone="no"?>
<!DOCTYPE svg PUBLIC "-//W3C//DTD SVG 1.1//EN" "http://www.w3.org/Graphics/SVG/1.1/DTD/svg11.dtd">
<svg xmlns="http://www.w3.org/2000/svg" version="1.1" width="103px" height="27.9px" viewBox="0 -6 103 27.9" style="top:-6px">
  <desc>Agent 1</desc>
  <defs/>
  <g id="Polygon265815">
    <path d="M 4.7 8.5 L 2.8 8.5 L 2.8 12.5 L 1.2 12.5 L 1.2 2 C 1.2 2 5.64 1.95 5.6 2 C 7.7 2 9 3.3 9 5.2 C 9 7.1 7.8 8.1 6.4 8.3 C 6.4 8.31 9.1 12.5 9.1 12.5 L 7.3 12.5 L 4.7 8.5 Z M 5.4 3.4 C 5.43 3.35 2.8 3.4 2.8 3.4 L 2.8 7.1 C 2.8 7.1 5.43 7.07 5.4 7.1 C 6.6 7.1 7.4 6.3 7.4 5.2 C 7.4 4.1 6.6 3.4 5.4 3.4 Z M 13.8 4.7 C 16.2 4.7 17.6 6.5 17.6 8.8 C 17.58 8.83 17.6 9.2 17.6 9.2 C 17.6 9.2 11.51 9.18 11.5 9.2 C 11.6 10.5 12.6 11.6 14.1 11.6 C 14.9 11.6 15.8 11.2 16.4 10.7 C 16.4 10.7 17.1 11.6 17.1 11.6 C 16.3 12.3 15.2 12.7 14 12.7 C 11.7 12.7 10 11.1 10 8.7 C 10 6.5 11.6 4.7 13.8 4.7 Z M 11.5 8.1 C 11.5 8.1 16.2 8.1 16.2 8.1 C 16.2 7.1 15.5 5.9 13.8 5.9 C 12.3 5.9 11.6 7.1 11.5 8.1 Z M 24.6 7.6 C 24.6 6.4 23.9 6 22.9 6 C 22 6 21.2 6.5 20.8 7.1 C 20.8 7.07 20.8 12.5 20.8 12.5 L 19.4 12.5 L 19.4 4.9 L 20.8 4.9 C 20.8 4.9 20.8 5.95 20.8 6 C 21.3 5.3 22.3 4.7 23.5 4.7 C 25.1 4.7 26 5.5 26 7.2 C 25.98 7.16 26 12.5 26 12.5 L 24.6 12.5 C 24.6 12.5 24.56 7.64 24.6 7.6 Z M 28.5 10.8 C 28.54 10.85 28.5 6.1 28.5 6.1 L 27.3 6.1 L 27.3 4.9 L 28.5 4.9 L 28.5 2.8 L 30 2.8 L 30 4.9 L 31.5 4.9 L 31.5 6.1 L 30 6.1 C 30 6.1 29.97 10.53 30 10.5 C 30 11.1 30.2 11.5 30.7 11.5 C 31 11.5 31.4 11.3 31.5 11.2 C 31.5 11.2 31.9 12.2 31.9 12.2 C 31.6 12.5 31.1 12.7 30.4 12.7 C 29.2 12.7 28.5 12.1 28.5 10.8 Z M 39.8 1.6 L 40.9 1.6 L 37.2 12.9 L 36.1 12.9 L 39.8 1.6 Z M 46.5 9.8 C 47.2 10.6 48.3 11.3 49.8 11.3 C 51.5 11.3 52.1 10.5 52.1 9.7 C 52.1 8.6 50.9 8.3 49.6 7.9 C 47.9 7.5 45.9 7 45.9 4.8 C 45.9 3.1 47.4 1.8 49.6 1.8 C 51.3 1.8 52.6 2.3 53.5 3.3 C 53.5 3.3 52.6 4.4 52.6 4.4 C 51.8 3.6 50.6 3.2 49.5 3.2 C 48.3 3.2 47.5 3.8 47.5 4.7 C 47.5 5.7 48.7 6 50 6.3 C 51.7 6.7 53.7 7.3 53.7 9.5 C 53.7 11.2 52.6 12.7 49.7 12.7 C 47.8 12.7 46.5 12.1 45.6 11.1 C 45.6 11.1 46.5 9.8 46.5 9.8 Z M 55.6 2 L 62.7 2 L 62.7 3.4 L 57.2 3.4 L 57.2 6.4 L 62.6 6.4 L 62.6 7.8 L 57.2 7.8 L 57.2 12.5 L 55.6 12.5 L 55.6 2 Z " stroke="none" fill="#000"/>
  </g>
</svg>