<?xml version="1.0" standalone="no"?>
<!DOCTYPE svg PUBLIC "-//W3C//DTD SVG 1.1//EN" "http://www.w3.org/Graphics/SVG/1.1/DTD/svg11.dtd">
<svg xmlns="http://www.w3.org/2000/svg" version="1.1" width="184px" height="16.9px" viewBox="0 -4 184 16.9" style="top:-4px">
  <desc>03</desc>
  <defs/>
  <g id="Polygon208108">
    <path d="M 2.8 1 C 4.4 1 5.1 2.6 5.1 4.1 C 5.1 5.6 4.4 7.2 2.8 7.2 C 1.1 7.2 0.4 5.6 0.4 4.1 C 0.4 2.6 1.1 1 2.8 1 Z M 2.8 1.8 C 1.7 1.8 1.3 2.9 1.3 4.1 C 1.3 5.3 1.7 6.4 2.8 6.4 C 3.8 6.4 4.2 5.3 4.2 4.1 C 4.2 2.9 3.8 1.8 2.8 1.8 Z M 6.3 5.7 C 6.6 6.1 7.3 6.4 7.9 6.4 C 8.8 6.4 9.3 6 9.3 5.4 C 9.3 4.7 8.7 4.4 7.8 4.4 C 7.6 4.4 7.3 4.4 7.2 4.5 C 7.2 4.5 7.2 3.6 7.2 3.6 C 7.3 3.6 7.6 3.6 7.8 3.6 C 8.6 3.6 9.2 3.4 9.2 2.8 C 9.2 2.1 8.6 1.8 7.9 1.8 C 7.3 1.8 6.8 2.1 6.3 2.5 C 6.3 2.5 5.8 2 5.8 2 C 6.3 1.4 7 1 8 1 C 9.2 1 10.1 1.6 10.1 2.6 C 10.1 3.5 9.4 3.9 8.8 4 C 9.3 4.1 10.2 4.5 10.2 5.5 C 10.2 6.5 9.3 7.2 8 7.2 C 6.9 7.2 6.1 6.8 5.8 6.2 C 5.8 6.2 6.3 5.7 6.3 5.7 Z " stroke="none" fill="#88898a"/>
  </g>
</svg>