<?xml version="1.0" standalone="no"?><!DOCTYPE svg PUBLIC "-//W3C//DTD SVG 1.1//EN" "http://www.w3.org/Graphics/SVG/1.1/DTD/svg11.dtd"><svg xmlns="http://www.w3.org/2000/svg" version="1.1" width="77px" height="16.9px" viewBox="0 -4 77 16.9" style="top:-4px"><desc>Growth 10 - 20</desc><defs/><g id="Polygon69697"><path d="m3.5 1c1.2 0 1.9.5 2.4 1.2l-.7.4c-.4-.4-1-.8-1.7-.8c-1.2 0-2.2 1-2.2 2.3c0 1.4 1 2.3 2.2 2.3c.7 0 1.3-.3 1.5-.6c.05.03 0-1 0-1H3.1v-.8h2.8s.05 2.17 0 2.2c-.5.6-1.4 1-2.4 1C1.8 7.2.4 6 .4 4.1C.4 2.2 1.8 1 3.5 1zm3.6 1.8h.8v.6c.3-.4.8-.7 1.4-.7v.8h-.3c-.4 0-.9.3-1.1.6v3h-.8V2.8zm2.8 2.1c0-1.2.8-2.2 2.2-2.2c1.3 0 2.1 1 2.1 2.2c0 1.3-.8 2.3-2.1 2.3c-1.4 0-2.2-1-2.2-2.3zm3.5 0c0-.8-.5-1.5-1.3-1.5c-.9 0-1.4.7-1.4 1.5c0 .9.5 1.6 1.4 1.6c.8 0 1.3-.7 1.3-1.6zM18 3.8l-1.1 3.3h-.8l-1.4-4.3h.8l1 3.3l1.1-3.3h.7l1.1 3.3l1-3.3h.8l-1.3 4.3h-.9l-1-3.3zm4.1 2.3c.03.05 0-2.6 0-2.6h-.7v-.7h.7V1.6h.8v1.2h.9v.7h-.9s.04 2.47 0 2.5c0 .3.2.5.5.5c.2 0 .3-.1.4-.2l.2.6c-.2.2-.4.3-.8.3c-.7 0-1.1-.4-1.1-1.1zm5.6-1.8c0-.7-.4-.9-1-.9c-.5 0-.9.3-1.2.6c.03 0 0 3.1 0 3.1h-.8v-6h.8s.03 2.27 0 2.3c.3-.4.9-.7 1.6-.7c.9 0 1.4.4 1.4 1.3c-.03.04 0 3.1 0 3.1h-.8s-.04-2.79 0-2.8zm5.3-3c-.3.2-.6.6-.6.9h.1c.3 0 .5.2.5.5c0 .3-.2.5-.5.5c-.4 0-.7-.3-.7-.7c0-.6.4-1.2.8-1.5l.4.3zm2.2 1l-.9 1l-.6-.5l1.6-1.7h.8v6h-.9V2.3zM39.6 1c1.6 0 2.3 1.6 2.3 3.1c0 1.5-.7 3.1-2.3 3.1c-1.7 0-2.4-1.6-2.4-3.1c0-1.5.7-3.1 2.4-3.1zm0 .8c-1.1 0-1.5 1.1-1.5 2.3c0 1.2.4 2.3 1.5 2.3c1 0 1.4-1.1 1.4-2.3c0-1.2-.4-2.3-1.4-2.3zm5.3 2.8h2.2v.7h-2.2v-.7zm6.3-3.3c-.3.2-.5.6-.6.9h.2c.2 0 .5.2.5.5c0 .3-.3.5-.6.5c-.3 0-.6-.3-.6-.7c0-.6.3-1.2.8-1.5l.3.3zm1.1 5.1c2.2-1.7 3.3-2.6 3.3-3.6c0-.7-.6-1-1.2-1c-.7 0-1.3.3-1.6.8l-.6-.6c.5-.6 1.3-1 2.2-1c1.1 0 2.1.6 2.1 1.8c0 1.2-1.2 2.2-2.8 3.5c0 .02 2.8 0 2.8 0v.8h-4.2s-.03-.7 0-.7zM59.9 1c1.7 0 2.3 1.6 2.3 3.1c0 1.5-.6 3.1-2.3 3.1c-1.7 0-2.4-1.6-2.4-3.1c0-1.5.7-3.1 2.4-3.1zm0 .8c-1.1 0-1.4 1.1-1.4 2.3c0 1.2.3 2.3 1.4 2.3c1 0 1.4-1.1 1.4-2.3c0-1.2-.4-2.3-1.4-2.3z" stroke="none" fill="#000"/></g></svg>