<?xml version="1.0" standalone="no"?><!DOCTYPE svg PUBLIC "-//W3C//DTD SVG 1.1//EN" "http://www.w3.org/Graphics/SVG/1.1/DTD/svg11.dtd"><svg xmlns="http://www.w3.org/2000/svg" version="1.1" width="257px" height="67.5px" viewBox="0 -10 257 67.5" style="top:-10px"><desc>00,000</desc><defs/><g id="Polygon280950"><path d="m11 6.2v11.9c0 3-1.8 4.1-4.7 4.1h-.3c-2.9 0-4.7-1.1-4.7-4.1V6.2C1.3 3.2 3.1 2 6 2h.3C9.2 2 11 3.2 11 6.2zM6.2 4.9c-1.1 0-1.7.4-1.7 1.8v10.9c0 1.4.6 1.8 1.7 1.8c1 0 1.6-.4 1.6-1.8V6.7c0-1.4-.6-1.8-1.6-1.8zM23 6.2v11.9c0 3-1.7 4.1-4.7 4.1h-.2c-3 0-4.8-1.1-4.8-4.1V6.2c0-3 1.8-4.2 4.8-4.2h.2c3 0 4.7 1.2 4.7 4.2zm-4.8-1.3c-1.1 0-1.7.4-1.7 1.8v10.9c0 1.4.6 1.8 1.7 1.8c1 0 1.7-.4 1.7-1.8V6.7c0-1.4-.7-1.8-1.7-1.8zm10.2 16.3c0 1.8-.9 3.4-1.8 4.6l-1.2-.7c.6-.9 1.1-2.1 1.3-3.1c-.02.02-1.5 0-1.5 0v-3.6h3.2v2.8zm11.9-15v11.9c0 3-1.8 4.1-4.8 4.1h-.2c-3 0-4.8-1.1-4.8-4.1V6.2c0-3 1.8-4.2 4.8-4.2h.2c3 0 4.8 1.2 4.8 4.2zm-4.9-1.3c-1 0-1.7.4-1.7 1.8v10.9c0 1.4.7 1.8 1.7 1.8c1.1 0 1.7-.4 1.7-1.8V6.7c0-1.4-.6-1.8-1.7-1.8zm16.9 1.3v11.9c0 3-1.8 4.1-4.8 4.1h-.2c-2.9 0-4.7-1.1-4.7-4.1V6.2c0-3 1.8-4.2 4.7-4.2h.2c3 0 4.8 1.2 4.8 4.2zm-4.9-1.3c-1 0-1.7.4-1.7 1.8v10.9c0 1.4.7 1.8 1.7 1.8c1.1 0 1.7-.4 1.7-1.8V6.7c0-1.4-.6-1.8-1.7-1.8zm16.9 1.3v11.9c0 3-1.8 4.1-4.7 4.1h-.3c-2.9 0-4.7-1.1-4.7-4.1V6.2c0-3 1.8-4.2 4.7-4.2h.3c2.9 0 4.7 1.2 4.7 4.2zm-4.8-1.3c-1.1 0-1.7.4-1.7 1.8v10.9c0 1.4.6 1.8 1.7 1.8c1 0 1.7-.4 1.7-1.8V6.7c0-1.4-.7-1.8-1.7-1.8z" stroke="none" fill="#282828"/></g></svg>