<?xml version="1.0" standalone="no"?><!DOCTYPE svg PUBLIC "-//W3C//DTD SVG 1.1//EN" "http://www.w3.org/Graphics/SVG/1.1/DTD/svg11.dtd"><svg xmlns="http://www.w3.org/2000/svg" xmlns:xlink="http://www.w3.org/1999/xlink" version="1.1" width="156px" height="44.9px" viewBox="0 -14 156 44.9" style="top:-14px"><desc/><defs/><g id="Polygon40759"><path d="m30.6 6.9l7-3.6v.8l-6.2 3.1l6.2 3.1v.8l-7-3.6v-.6zm7.9 0l6.9-3.6v.8l-6.1 3.1l6.1 3.1v.8l-6.9-3.6v-.6zM50.4 8l-4.3-6h1.1l3.6 5.2L54.4 2h1.1l-4.2 6v4.5h-.9V8zm7.8-3.3c2.4 0 3.6 1.8 3.6 4.1c.04-.05 0 .2 0 .2c0 0-6.38-.03-6.4 0c.1 1.6 1.2 3 3 3c1 0 1.9-.3 2.5-1l.5.5c-.8.8-1.8 1.2-3 1.2c-2.3 0-3.9-1.6-3.9-4c0-2.2 1.6-4 3.7-4zm-2.8 3.6h5.6c0-1.3-.9-2.9-2.8-2.9c-1.8 0-2.7 1.6-2.8 2.9zm13.4 3.3c-.6.8-1.5 1.1-2.6 1.1c-1.3 0-2.6-.9-2.6-2.5c0-1.7 1.3-2.5 2.6-2.5c1.1 0 2 .3 2.6 1V7.2c0-1.1-.9-1.8-2-1.8c-1 0-1.7.3-2.4 1.1l-.5-.5c.8-.9 1.7-1.3 3-1.3c1.5 0 2.8.7 2.8 2.4c-.03.05 0 5.4 0 5.4h-.9s.04-.86 0-.9zm0-2.2c-.5-.7-1.4-1.1-2.3-1.1c-1.2 0-2.1.8-2.1 1.9c0 1.1.9 1.9 2.1 1.9c.9 0 1.8-.4 2.3-1.1V9.4zm3.4-4.5h.9s-.04 1.29 0 1.3c.6-.9 1.5-1.5 2.6-1.5v.9h-.5c-.7 0-1.8.7-2.1 1.4c-.04-.04 0 5.5 0 5.5h-.9V4.9zM81.4 2s4.37-.05 4.4 0c1.7 0 2.9 1 2.9 2.7c0 1.3-.9 2.2-1.9 2.4c1.2.2 2.1 1.3 2.1 2.6c0 1.8-1.1 2.8-3 2.8c-.05.05-4.5 0-4.5 0V2zm4.3 4.7c1.3 0 2-.9 2-2c0-1-.7-1.9-2-1.9c-.04-.02-3.4 0-3.4 0v3.9h3.4zm0 5c1.4 0 2.2-.8 2.2-2.1c0-1.1-.7-2.1-2.2-2.1c.02.03-3.4 0-3.4 0v4.2s3.42.02 3.4 0zm10.6-.3c-.6.7-1.6 1.3-2.7 1.3c-1.6 0-2.5-.7-2.5-2.4c.04-.02 0-5.4 0-5.4h.9s-.04 5.19 0 5.2c0 1.5.7 1.9 1.8 1.9c1 0 2-.6 2.5-1.3c.02.02 0-5.8 0-5.8h.8v7.6h-.8s.02-1.08 0-1.1zm3.2-8.5c0-.3.3-.6.6-.6c.4 0 .7.3.7.6c0 .4-.3.7-.7.7c-.3 0-.6-.3-.6-.7zm.2 2h.8v7.6h-.8V4.9zm3.4-2.9h.8v10.5h-.8V2zm3.6 9.1c-.03-.03 0-5.5 0-5.5h-1.3v-.7h1.3V2.8h.8v2.1h1.6v.7h-1.6v5.3c0 .7.3 1.1.8 1.1c.4 0 .7-.2.9-.4l.3.7c-.3.2-.7.4-1.3.4c-1 0-1.5-.6-1.5-1.6zm3.4-.8l6.1-3.1l-6.1-3.1v-.8l6.9 3.6v.6l-6.9 3.6v-.8zm7.8 0l6.2-3.1l-6.2-3.1v-.8l7 3.6v.6l-7 3.6v-.8z" stroke="none" fill="#000"/><a xlink:href="DBF_Year%20Built" xlink:show="new" xlink:title="&lt;&lt;Year Built&gt;&gt;"><rect style="fill:transparent;" x="30" y="1" width="95" height="12"/></a></g></svg>