<?xml version="1.0" standalone="no"?><!DOCTYPE svg PUBLIC "-//W3C//DTD SVG 1.1//EN" "http://www.w3.org/Graphics/SVG/1.1/DTD/svg11.dtd"><svg xmlns="http://www.w3.org/2000/svg" xmlns:xlink="http://www.w3.org/1999/xlink" version="1.1" width="188.3px" height="35.3px" viewBox="0 -7 188.3 35.3" style="top:-7px"><desc/><defs/><g id="Polygon63699"><path d="m37.6 12.7c-.04.02 0 1.4 0 1.4h-.8s.03-1.37 0-1.4c-1.6 0-2.8-.7-3.5-1.6l.5-.7c.7.7 1.7 1.4 3 1.5V7.4c-1.6-.4-3.2-.9-3.2-2.8c0-1.6 1.4-2.7 3.2-2.8c.03 0 0-1.4 0-1.4h.8s-.04 1.41 0 1.4c1.3.1 2.3.6 3.1 1.5l-.6.6c-.7-.7-1.6-1.2-2.5-1.2v3.9c1.6.5 3.3 1.1 3.3 3.2c0 1.2-.8 2.8-3.3 2.9zm-.8-6.3V2.6c-1.3.1-2.3.9-2.3 2c0 1.1 1.1 1.5 2.3 1.8zm3.1 3.4c0-1.3-1.1-1.8-2.3-2.2v4.3c1.8-.1 2.3-1.3 2.3-2.1z" stroke="none" fill="#000"/><a xlink:href="DBF_Med.%20HH%20Income%20(5%20Mile)" xlink:show="new" xlink:title="&lt;&lt;Med. HH Income (5 Mile)&gt;&gt;"><rect style="fill:transparent;" x="41" y="1" width="148" height="15"/></a></g><g id="Polygon63700"><path d="m41.8 6.9l6.9-3.6v.8l-6.1 3.1l6.1 3.1v.8l-6.9-3.6v-.6zm7.8 0l7-3.6v.8l-6.1 3.1l6.1 3.1v.8l-7-3.6v-.6zm17.8-3.8l-3.9 9.4h-.3l-3.9-9.4v9.4h-.9V2h1.3l3.6 8.7L66.9 2h1.4v10.5h-.9V3.1zm6.7 1.6c2.4 0 3.6 1.8 3.6 4c.05.05 0 .3 0 .3c0 0-6.37-.03-6.4 0c.1 1.6 1.2 3 3 3c1 0 1.9-.3 2.5-1l.5.5c-.8.8-1.8 1.2-3 1.2c-2.3 0-3.9-1.6-3.9-4c0-2.2 1.6-4 3.7-4zm-2.8 3.6h5.6c0-1.3-.9-2.9-2.8-2.9c-1.8 0-2.7 1.6-2.8 2.9zm14.2 3c-.5.8-1.5 1.4-2.6 1.4c-2.1 0-3.5-1.5-3.5-4c0-2.4 1.4-4 3.5-4c1 0 2 .5 2.6 1.4c.03.01 0-4.1 0-4.1h.9v10.5h-.9s.03-1.18 0-1.2zm0-4.5c-.4-.7-1.4-1.4-2.5-1.4c-1.7 0-2.7 1.5-2.7 3.3c0 1.9 1 3.3 2.7 3.3c1.1 0 2.1-.6 2.5-1.4V6.8zm3.9 4.5c.4 0 .7.3.7.7c0 .4-.3.7-.7.7c-.4 0-.7-.3-.7-.7c0-.4.3-.7.7-.7zm14.8-3.8h-6.7v5h-.9V2h.9v4.7h6.7V2h.9v10.5h-.9v-5zm11.2 0h-6.8v5h-.9V2h.9v4.7h6.8V2h.9v10.5h-.9v-5zM123 2h.9v10.5h-.9V2zm8.7 5.4c0-1.5-.8-2-1.9-2c-1 0-2 .7-2.5 1.3c.04.05 0 5.8 0 5.8h-.8V4.9h.8s.04 1.13 0 1.1c.6-.6 1.7-1.3 2.8-1.3c1.6 0 2.4.7 2.4 2.5v5.3h-.8V7.4zm6.7-2.7c1.3 0 2.1.5 2.7 1.3l-.6.5c-.6-.8-1.2-1.1-2.1-1.1c-1.8 0-2.9 1.5-2.9 3.3c0 1.8 1.1 3.3 2.9 3.3c.9 0 1.5-.3 2.1-1.1l.6.5c-.6.8-1.4 1.3-2.7 1.3c-2.3 0-3.8-1.8-3.8-4c0-2.2 1.5-4 3.8-4zm4.1 4c0-2.2 1.4-4 3.7-4c2.2 0 3.7 1.8 3.7 4c0 2.2-1.5 4-3.7 4c-2.3 0-3.7-1.8-3.7-4zm6.5 0c0-1.7-1-3.3-2.8-3.3c-1.8 0-2.8 1.6-2.8 3.3c0 1.7 1 3.3 2.8 3.3c1.8 0 2.8-1.6 2.8-3.3zm12.1-1.5c0-1.1-.4-1.8-1.5-1.8c-.8 0-1.8.6-2.2 1.3v5.8h-.8s-.04-5.32 0-5.3c0-1.1-.5-1.8-1.6-1.8c-.8 0-1.7.6-2.2 1.3c.02.05 0 5.8 0 5.8h-.8V4.9h.8s.02 1.13 0 1.1c.3-.5 1.4-1.3 2.5-1.3c1.2 0 1.8.7 2 1.4c.4-.7 1.5-1.4 2.6-1.4c1.4 0 2.1.8 2.1 2.3c-.04.02 0 5.5 0 5.5h-.9s.03-5.32 0-5.3zm6.7-2.5c2.3 0 3.6 1.8 3.6 4v.3s-6.41-.03-6.4 0c.1 1.6 1.2 3 3 3c1 0 1.8-.3 2.5-1l.4.5c-.7.8-1.7 1.2-3 1.2c-2.2 0-3.8-1.6-3.8-4c0-2.2 1.6-4 3.7-4zM165 8.3h5.6c-.1-1.3-.9-2.9-2.8-2.9c-1.8 0-2.7 1.6-2.8 2.9zm12.1.4c0-2.6.7-5 2.1-7l.5.3c-1 2.1-1.7 3.9-1.7 6.7c0 2.7.7 4.6 1.7 6.6l-.5.4c-1.4-2.1-2.1-4.5-2.1-7zm4.6 1.7c.7 1 1.6 1.5 3 1.5c1.5 0 2.7-1.1 2.7-2.5c0-1.7-1.1-2.6-2.7-2.6c-.9 0-1.8.3-2.5 1c-.05 0-.7-.3-.7-.3V2h6.1v.8h-5.2s-.02 4.12 0 4.1c.5-.5 1.4-1 2.5-1c1.8 0 3.4 1.2 3.4 3.4c0 2.1-1.6 3.4-3.6 3.4c-1.8 0-2.8-.6-3.6-1.7l.6-.6z" stroke="none" fill="#000"/></g></svg>