<?xml version="1.0" standalone="no"?>
<!DOCTYPE svg PUBLIC "-//W3C//DTD SVG 1.1//EN" "http://www.w3.org/Graphics/SVG/1.1/DTD/svg11.dtd">
<svg xmlns="http://www.w3.org/2000/svg" version="1.1" width="375px" height="67.5px" viewBox="0 -6 375 67.5" style="top:-6px">
  <desc>SUBJECT PROPERTY LEASE SUMMARY</desc>
  <defs/>
  <g id="Polygon272610">
    <path d="M 122 46.4 L 113.7 46.4 L 113.7 26.7 L 116.9 26.7 L 116.9 43.5 L 122 43.5 L 122 46.4 Z M 123.4 46.4 L 123.4 26.7 L 132.1 26.7 L 132.1 29.5 L 126.7 29.5 L 126.7 35 L 131.2 35 L 131.2 37.8 L 126.7 37.8 L 126.7 43.5 L 132.2 43.5 L 132.2 46.4 L 123.4 46.4 Z M 140.5 42 L 136.9 42 L 136.2 46.4 L 133 46.4 L 136.7 26.7 L 140.8 26.7 L 144.6 46.4 L 141.2 46.4 L 140.5 42 Z M 140.1 39.3 L 138.7 30.5 L 137.3 39.3 L 140.1 39.3 Z M 151.8 33.7 C 151.8 33.7 151.77 30.96 151.8 31 C 151.8 29.7 151.1 29.3 150.1 29.3 C 149.1 29.3 148.4 29.7 148.4 31 C 148.4 31 148.4 32.3 148.4 32.3 C 148.4 33.3 148.8 33.8 149.7 34.3 C 149.7 34.3 152 35.6 152 35.6 C 153.9 36.7 155 37.6 155 39.7 C 155 39.7 155 42.5 155 42.5 C 155 45.6 153.2 46.7 150.2 46.7 C 150.2 46.7 150.1 46.7 150.1 46.7 C 147.1 46.7 145.2 45.6 145.2 42.5 C 145.22 42.53 145.2 39.1 145.2 39.1 L 148.4 39.1 C 148.4 39.1 148.44 42.08 148.4 42.1 C 148.4 43.3 149.1 43.8 150.1 43.8 C 151.1 43.8 151.8 43.3 151.8 42.1 C 151.8 42.1 151.8 40.5 151.8 40.5 C 151.8 39.5 151.5 39 150.5 38.5 C 150.5 38.5 148.2 37.2 148.2 37.2 C 146.3 36.1 145.2 35.2 145.2 33.1 C 145.2 33.1 145.2 30.5 145.2 30.5 C 145.2 27.6 147.4 26.4 150.1 26.4 C 150.1 26.4 150.1 26.4 150.1 26.4 C 152.8 26.4 155 27.6 155 30.5 C 154.99 30.5 155 33.7 155 33.7 L 151.8 33.7 Z M 157.1 46.4 L 157.1 26.7 L 165.8 26.7 L 165.8 29.5 L 160.4 29.5 L 160.4 35 L 164.9 35 L 164.9 37.8 L 160.4 37.8 L 160.4 43.5 L 165.9 43.5 L 165.9 46.4 L 157.1 46.4 Z M 178.3 33.7 C 178.3 33.7 178.31 30.96 178.3 31 C 178.3 29.7 177.6 29.3 176.6 29.3 C 175.7 29.3 175 29.7 175 31 C 175 31 175 32.3 175 32.3 C 175 33.3 175.3 33.8 176.2 34.3 C 176.2 34.3 178.6 35.6 178.6 35.6 C 180.5 36.7 181.6 37.6 181.6 39.7 C 181.6 39.7 181.6 42.5 181.6 42.5 C 181.6 45.6 179.7 46.7 176.7 46.7 C 176.7 46.7 176.6 46.7 176.6 46.7 C 173.7 46.7 171.8 45.6 171.8 42.5 C 171.76 42.53 171.8 39.1 171.8 39.1 L 175 39.1 C 175 39.1 174.98 42.08 175 42.1 C 175 43.3 175.7 43.8 176.7 43.8 C 177.7 43.8 178.4 43.3 178.4 42.1 C 178.4 42.1 178.4 40.5 178.4 40.5 C 178.4 39.5 178.1 39 177.1 38.5 C 177.1 38.5 174.8 37.2 174.8 37.2 C 172.9 36.1 171.8 35.2 171.8 33.1 C 171.8 33.1 171.8 30.5 171.8 30.5 C 171.8 27.6 173.9 26.4 176.6 26.4 C 176.6 26.4 176.7 26.4 176.7 26.4 C 179.4 26.4 181.5 27.6 181.5 30.5 C 181.53 30.5 181.5 33.7 181.5 33.7 L 178.3 33.7 Z M 193.6 42.5 C 193.6 45.5 191.6 46.7 188.6 46.7 C 188.6 46.7 188.5 46.7 188.5 46.7 C 185.5 46.7 183.6 45.6 183.6 42.5 C 183.62 42.48 183.6 26.7 183.6 26.7 L 186.9 26.7 C 186.9 26.7 186.89 41.97 186.9 42 C 186.9 43.4 187.5 43.8 188.6 43.8 C 189.7 43.8 190.3 43.4 190.3 42 C 190.28 41.97 190.3 26.7 190.3 26.7 L 193.6 26.7 C 193.6 26.7 193.56 42.48 193.6 42.5 Z M 203.9 43.5 L 202.1 43.5 L 199.1 34.3 L 199.1 46.4 L 196 46.4 L 196 26.7 L 199.1 26.7 L 203 38.2 L 206.8 26.7 L 210 26.7 L 210 46.4 L 206.9 46.4 L 206.9 34.3 L 203.9 43.5 Z M 220.4 43.5 L 218.6 43.5 L 215.6 34.3 L 215.6 46.4 L 212.6 46.4 L 212.6 26.7 L 215.7 26.7 L 219.5 38.2 L 223.3 26.7 L 226.5 26.7 L 226.5 46.4 L 223.4 46.4 L 223.4 34.3 L 220.4 43.5 Z M 235.4 42 L 231.8 42 L 231.1 46.4 L 227.9 46.4 L 231.6 26.7 L 235.7 26.7 L 239.4 46.4 L 236.1 46.4 L 235.4 42 Z M 234.9 39.3 L 233.6 30.5 L 232.2 39.3 L 234.9 39.3 Z M 248.2 46.4 L 245.7 38.6 L 244 38.6 L 244 46.4 L 240.8 46.4 L 240.8 26.7 C 240.8 26.7 245.88 26.66 245.9 26.7 C 248.9 26.7 250.8 27.9 250.8 30.8 C 250.8 30.8 250.8 34.4 250.8 34.4 C 250.8 36.3 250.1 37.5 248.7 38 C 248.7 38.04 251.5 46.4 251.5 46.4 L 248.2 46.4 Z M 244 35.7 C 244 35.7 245.76 35.73 245.8 35.7 C 246.8 35.7 247.6 35.3 247.6 33.9 C 247.6 33.9 247.6 31.4 247.6 31.4 C 247.6 29.9 246.8 29.5 245.8 29.5 C 245.76 29.54 244 29.5 244 29.5 L 244 35.7 Z M 258.8 46.4 L 255.6 46.4 L 255.6 39.4 L 251.6 26.7 L 255 26.7 L 257.2 35.8 L 259.4 26.7 L 262.8 26.7 L 258.8 39.4 L 258.8 46.4 Z " stroke="none" fill="#282828"/>
  </g>
  <g id="Polygon272609">
    <path d="M 115 9.8 C 115.7 10.6 116.8 11.3 118.3 11.3 C 120 11.3 120.6 10.5 120.6 9.7 C 120.6 8.6 119.4 8.3 118.1 7.9 C 116.4 7.5 114.4 7 114.4 4.8 C 114.4 3.1 115.9 1.8 118.2 1.8 C 119.8 1.8 121.1 2.3 122 3.3 C 122 3.3 121.1 4.4 121.1 4.4 C 120.3 3.6 119.2 3.2 118 3.2 C 116.9 3.2 116 3.8 116 4.7 C 116 5.7 117.2 6 118.5 6.3 C 120.2 6.7 122.3 7.3 122.3 9.5 C 122.3 11.2 121.1 12.7 118.3 12.7 C 116.4 12.7 115 12.1 114.1 11.1 C 114.1 11.1 115 9.8 115 9.8 Z M 123.9 2 L 125.5 2 C 125.5 2 125.54 8.36 125.5 8.4 C 125.5 10.2 126.5 11.3 128.4 11.3 C 130.3 11.3 131.2 10.2 131.2 8.4 C 131.25 8.36 131.2 2 131.2 2 L 132.8 2 C 132.8 2 132.85 8.39 132.8 8.4 C 132.8 11 131.4 12.7 128.4 12.7 C 125.4 12.7 123.9 11 123.9 8.4 C 123.94 8.4 123.9 2 123.9 2 Z M 135.1 2 C 135.1 2 140.03 1.95 140 2 C 141.9 2 143 3.1 143 4.7 C 143 6 142.1 6.9 141.2 7.1 C 142.3 7.3 143.2 8.4 143.2 9.7 C 143.2 11.4 142.1 12.5 140.2 12.5 C 140.16 12.55 135.1 12.5 135.1 12.5 L 135.1 2 Z M 139.7 6.4 C 140.8 6.4 141.4 5.8 141.4 4.9 C 141.4 4 140.8 3.4 139.7 3.4 C 139.73 3.35 136.6 3.4 136.6 3.4 L 136.6 6.4 C 136.6 6.4 139.73 6.45 139.7 6.4 Z M 139.8 11.2 C 140.9 11.2 141.6 10.5 141.6 9.5 C 141.6 8.6 141 7.8 139.8 7.8 C 139.81 7.84 136.6 7.8 136.6 7.8 L 136.6 11.2 C 136.6 11.2 139.81 11.15 139.8 11.2 Z M 144.8 10.4 C 145.2 10.9 145.8 11.3 146.7 11.3 C 147.9 11.3 148.7 10.5 148.7 9.3 C 148.67 9.26 148.7 2 148.7 2 L 150.3 2 C 150.3 2 150.26 9.28 150.3 9.3 C 150.3 11.6 148.8 12.7 146.8 12.7 C 145.7 12.7 144.7 12.4 144 11.6 C 144 11.6 144.8 10.4 144.8 10.4 Z M 152.5 2 L 159.6 2 L 159.6 3.4 L 154.1 3.4 L 154.1 6.4 L 159.5 6.4 L 159.5 7.8 L 154.1 7.8 L 154.1 11.2 L 159.6 11.2 L 159.6 12.5 L 152.5 12.5 L 152.5 2 Z M 161 7.3 C 161 4 163.4 1.8 166.4 1.8 C 168.5 1.8 169.8 2.8 170.6 4 C 170.6 4 169.3 4.7 169.3 4.7 C 168.7 3.8 167.6 3.2 166.4 3.2 C 164.2 3.2 162.6 4.9 162.6 7.3 C 162.6 9.6 164.2 11.3 166.4 11.3 C 167.6 11.3 168.7 10.7 169.3 9.8 C 169.3 9.8 170.6 10.5 170.6 10.5 C 169.8 11.7 168.5 12.7 166.4 12.7 C 163.4 12.7 161 10.5 161 7.3 Z M 174.6 3.4 L 171.3 3.4 L 171.3 2 L 179.5 2 L 179.5 3.4 L 176.2 3.4 L 176.2 12.5 L 174.6 12.5 L 174.6 3.4 Z M 184.9 2 C 184.9 2 189.37 1.95 189.4 2 C 191.6 2 192.8 3.4 192.8 5.2 C 192.8 7 191.5 8.5 189.4 8.5 C 189.37 8.46 186.5 8.5 186.5 8.5 L 186.5 12.5 L 184.9 12.5 L 184.9 2 Z M 189.2 3.4 C 189.17 3.35 186.5 3.4 186.5 3.4 L 186.5 7.1 C 186.5 7.1 189.17 7.07 189.2 7.1 C 190.3 7.1 191.1 6.3 191.1 5.2 C 191.1 4.1 190.3 3.4 189.2 3.4 Z M 197.8 8.5 L 195.8 8.5 L 195.8 12.5 L 194.2 12.5 L 194.2 2 C 194.2 2 198.7 1.95 198.7 2 C 200.7 2 202.1 3.3 202.1 5.2 C 202.1 7.1 200.8 8.1 199.5 8.3 C 199.46 8.31 202.2 12.5 202.2 12.5 L 200.3 12.5 L 197.8 8.5 Z M 198.5 3.4 C 198.49 3.35 195.8 3.4 195.8 3.4 L 195.8 7.1 C 195.8 7.1 198.49 7.07 198.5 7.1 C 199.6 7.1 200.5 6.3 200.5 5.2 C 200.5 4.1 199.6 3.4 198.5 3.4 Z M 208.8 1.8 C 211.9 1.8 214.1 4.1 214.1 7.3 C 214.1 10.4 211.9 12.7 208.8 12.7 C 205.6 12.7 203.4 10.4 203.4 7.3 C 203.4 4.1 205.6 1.8 208.8 1.8 Z M 208.8 3.2 C 206.5 3.2 205.1 4.9 205.1 7.3 C 205.1 9.6 206.5 11.3 208.8 11.3 C 211 11.3 212.5 9.6 212.5 7.3 C 212.5 4.9 211 3.2 208.8 3.2 Z M 215.9 2 C 215.9 2 220.34 1.95 220.3 2 C 222.5 2 223.7 3.4 223.7 5.2 C 223.7 7 222.5 8.5 220.3 8.5 C 220.34 8.46 217.5 8.5 217.5 8.5 L 217.5 12.5 L 215.9 12.5 L 215.9 2 Z M 220.1 3.4 C 220.14 3.35 217.5 3.4 217.5 3.4 L 217.5 7.1 C 217.5 7.1 220.14 7.07 220.1 7.1 C 221.3 7.1 222.1 6.3 222.1 5.2 C 222.1 4.1 221.3 3.4 220.1 3.4 Z M 225.2 2 L 232.3 2 L 232.3 3.4 L 226.8 3.4 L 226.8 6.4 L 232.2 6.4 L 232.2 7.8 L 226.8 7.8 L 226.8 11.2 L 232.3 11.2 L 232.3 12.5 L 225.2 12.5 L 225.2 2 Z M 237.7 8.5 L 235.7 8.5 L 235.7 12.5 L 234.1 12.5 L 234.1 2 C 234.1 2 238.61 1.95 238.6 2 C 240.6 2 242 3.3 242 5.2 C 242 7.1 240.7 8.1 239.4 8.3 C 239.37 8.31 242.1 12.5 242.1 12.5 L 240.2 12.5 L 237.7 8.5 Z M 238.4 3.4 C 238.4 3.35 235.7 3.4 235.7 3.4 L 235.7 7.1 C 235.7 7.1 238.4 7.07 238.4 7.1 C 239.5 7.1 240.4 6.3 240.4 5.2 C 240.4 4.1 239.5 3.4 238.4 3.4 Z M 246.2 3.4 L 242.9 3.4 L 242.9 2 L 251.1 2 L 251.1 3.4 L 247.8 3.4 L 247.8 12.5 L 246.2 12.5 L 246.2 3.4 Z M 255.6 8.1 L 251.5 2 L 253.3 2 L 256.4 6.7 L 259.5 2 L 261.4 2 L 257.2 8.1 L 257.2 12.5 L 255.6 12.5 L 255.6 8.1 Z " stroke="none" fill="#3797ef"/>
  </g>
</svg>