<?xml version="1.0" standalone="no"?><!DOCTYPE svg PUBLIC "-//W3C//DTD SVG 1.1//EN" "http://www.w3.org/Graphics/SVG/1.1/DTD/svg11.dtd"><svg xmlns="http://www.w3.org/2000/svg" version="1.1" width="129.5px" height="28.3px" viewBox="0 -6 129.5 28.3" style="top:-6px"><desc>FORBES RANKING</desc><defs/><g id="Polygon282002"><path d="m1.2 2h7.1v1.3H2.8v3.1h5.4v1.4H2.8v4.7H1.2V2zm13.5-.2c3.2 0 5.4 2.3 5.4 5.5c0 3.1-2.2 5.4-5.4 5.4c-3.1 0-5.3-2.3-5.3-5.4c0-3.2 2.2-5.5 5.3-5.5zm0 1.4c-2.2 0-3.7 1.7-3.7 4.1c0 2.3 1.5 4 3.7 4c2.3 0 3.7-1.7 3.7-4c0-2.4-1.4-4.1-3.7-4.1zm10.7 5.3h-2v4h-1.6V2s4.5-.05 4.5 0c2 0 3.4 1.3 3.4 3.2c0 1.9-1.3 2.9-2.6 3.1c-.04 0 2.7 4.2 2.7 4.2h-1.9l-2.5-4zm.7-5.2c-.01.05-2.7 0-2.7 0v3.8s2.69-.03 2.7 0c1.1 0 2-.8 2-1.9c0-1.1-.9-1.9-2-1.9zM31.5 2s4.96-.05 5 0c1.9 0 2.9 1.1 2.9 2.7c0 1.3-.8 2.2-1.8 2.4c1.1.2 2.1 1.3 2.1 2.6c0 1.7-1.2 2.8-3.1 2.8c-.01.04-5.1 0-5.1 0V2zm4.7 4.4c1 0 1.6-.6 1.6-1.5c0-.9-.6-1.6-1.6-1.6c-.04.05-3.1 0-3.1 0v3.1s3.06.05 3.1 0zm0 4.7c1.2 0 1.8-.6 1.8-1.6c0-.9-.6-1.7-1.8-1.7c.04.04-3.1 0-3.1 0v3.3s3.14.05 3.1 0zM41.5 2h7.1v1.3H43v3.1h5.5v1.4H43v3.3h5.6v1.4h-7.1V2zm9.2 7.8c.7.8 1.8 1.5 3.3 1.5c1.7 0 2.3-.9 2.3-1.6c0-1.1-1.2-1.4-2.5-1.8c-1.7-.4-3.7-.9-3.7-3.1c0-1.7 1.5-3 3.7-3c1.7 0 3 .5 3.9 1.5l-.9 1.1c-.8-.8-2-1.2-3.1-1.2c-1.2 0-2 .6-2 1.5c0 1 1.2 1.3 2.5 1.6c1.7.4 3.7 1 3.7 3.2c0 1.7-1.1 3.2-4 3.2c-1.9 0-3.2-.6-4.1-1.6l.9-1.3zm16.4-1.3h-2v4h-1.5V2s4.41-.05 4.4 0c2 0 3.4 1.3 3.4 3.2c0 1.9-1.3 2.9-2.6 3.1c-.02 0 2.7 4.2 2.7 4.2h-1.8l-2.6-4zm.7-5.2c.01.05-2.7 0-2.7 0v3.8s2.71-.03 2.7 0c1.2 0 2-.8 2-1.9c0-1.1-.8-1.9-2-1.9zm12.1 7.1h-5.2l-.8 2.1h-1.8L76.3 2h2l4.2 10.5h-1.7l-.9-2.1zm-4.7-1.5h4.2l-2.1-5.6l-2.1 5.6zm10-4.5v8.1h-1.6V2h1.7L91 9.9V2h1.6v10.5h-1.5l-5.9-8.1zm12.2 3.5l-1 1.2v3.4h-1.6V2h1.6v5.2l4.4-5.2h2l-4.4 5l4.7 5.5h-1.9l-3.8-4.6zm6.9-5.9h1.6v10.5h-1.6V2zm5.4 2.4v8.1h-1.6V2h1.7l5.7 7.9V2h1.6v10.5h-1.5l-5.9-8.1zm14.7-2.6c2 0 3.3.9 4.2 2.1l-1.3.7c-.6-.8-1.7-1.4-2.9-1.4c-2.2 0-3.9 1.7-3.9 4.1c0 2.3 1.7 4 3.9 4c1.1 0 2.1-.5 2.7-1c-.04-.01 0-1.9 0-1.9h-3.4V7h4.9s.04 3.88 0 3.9c-1 1.1-2.4 1.9-4.2 1.9c-3.1 0-5.5-2.2-5.5-5.5c0-3.3 2.4-5.5 5.5-5.5z" stroke="none" fill="#3797ef"/></g></svg>