<?xml version="1.0" standalone="no"?><!DOCTYPE svg PUBLIC "-//W3C//DTD SVG 1.1//EN" "http://www.w3.org/Graphics/SVG/1.1/DTD/svg11.dtd"><svg xmlns="http://www.w3.org/2000/svg" version="1.1" width="343px" height="29.9px" viewBox="0 -7 343 29.9" style="top:-7px"><desc>13</desc><defs/><g id="Polygon85418"><path d="m3.1 4.3L1.3 6.2l-1-1.1l3-3h1.5v11.2H3.1v-9zm4.3 6.3c.7.8 1.9 1.4 3.1 1.4c1.6 0 2.5-.8 2.5-1.9c0-1.3-1-1.8-2.6-1.8H9.2V6.8h1.2c1.3 0 2.4-.5 2.4-1.7c0-1.1-1-1.7-2.4-1.7c-1.1 0-2.1.4-2.9 1.3l-.9-1.1c.9-.9 2.2-1.7 4-1.7c2.3 0 3.9 1.1 3.9 3c0 1.6-1.3 2.4-2.4 2.6c1 .1 2.6 1 2.6 2.7c0 1.9-1.6 3.3-4.1 3.3c-2 0-3.4-.8-4.1-1.8l.9-1.1z" stroke="none" fill="#88898a"/></g></svg>