<?xml version="1.0" standalone="no"?><!DOCTYPE svg PUBLIC "-//W3C//DTD SVG 1.1//EN" "http://www.w3.org/Graphics/SVG/1.1/DTD/svg11.dtd"><svg xmlns="http://www.w3.org/2000/svg" version="1.1" width="254.2px" height="46.5px" viewBox="0 -10 254.2 46.5" style="top:-10px"><desc>00 Million</desc><defs/><g id="Polygon281829"><path d="m10.8 15.3v2.8c0 2.5-1.3 3.7-3.4 4v2.1H4.5v-2C2.3 21.9 1 20.7 1 18.1c.02.03 0-3.4 0-3.4h3.2s.04 2.98 0 3c0 1.2.7 1.7 1.7 1.7c1 0 1.7-.5 1.7-1.7v-1.6c0-1-.3-1.5-1.3-2L4 12.8c-1.9-1.1-3-2-3-4.1V6.1c0-2.4 1.5-3.6 3.5-4v-2h2.9v2c2 .4 3.4 1.6 3.4 4v3.2H7.6s-.03-2.75 0-2.7c0-1.3-.7-1.7-1.7-1.7c-1 0-1.7.4-1.7 1.7v1.3c0 1 .4 1.5 1.3 2l2.3 1.3c1.9 1.1 3 2 3 4.1zm11.7-9.1v11.9c0 3-1.7 4.1-4.7 4.1h-.2c-3 0-4.8-1.1-4.8-4.1V6.2c0-3 1.8-4.2 4.8-4.2h.2c3 0 4.7 1.2 4.7 4.2zm-4.8-1.3c-1.1 0-1.7.4-1.7 1.8v10.9c0 1.4.6 1.8 1.7 1.8c1 0 1.7-.4 1.7-1.8V6.7c0-1.4-.7-1.8-1.7-1.8zm16.9 1.3v11.9c0 3-1.8 4.1-4.8 4.1h-.2c-3 0-4.8-1.1-4.8-4.1V6.2c0-3 1.8-4.2 4.8-4.2h.2c3 0 4.8 1.2 4.8 4.2zm-4.9-1.3c-1 0-1.7.4-1.7 1.8v10.9c0 1.4.7 1.8 1.7 1.8c1 0 1.7-.4 1.7-1.8V6.7c0-1.4-.7-1.8-1.7-1.8zm19.4 14.2h-1.9l-2.9-9.2V22h-3.1V2.3h3.1l3.8 11.5L52 2.3h3.2V22H52V9.9l-2.9 9.2zm8.8 2.9V2.3h3.2V22h-3.2zm14.2 0h-8.3V2.3h3.3v16.8h5v2.9zm9.8 0h-8.3V2.3h3.3v16.8h5v2.9zm1.6 0V2.3h3.3V22h-3.3zM94.3 2h.2c3 0 5 1.2 5 4.2v11.9c0 3-2 4.1-5 4.1h-.2c-3 0-5-1.1-5-4.1V6.2c0-3 2-4.2 5-4.2zm.1 17.4c1.1 0 1.8-.4 1.8-1.8V6.7c0-1.4-.7-1.8-1.8-1.8c-1.1 0-1.8.4-1.8 1.8v10.9c0 1.4.7 1.8 1.8 1.8zm7.5 2.6V2.3h3.3l4.1 12.2V2.3h3V22h-3.1l-4.3-12.8V22h-3z" stroke="none" fill="#282828"/></g></svg>