<?xml version="1.0" standalone="no"?><!DOCTYPE svg PUBLIC "-//W3C//DTD SVG 1.1//EN" "http://www.w3.org/Graphics/SVG/1.1/DTD/svg11.dtd"><svg xmlns="http://www.w3.org/2000/svg" version="1.1" width="103px" height="27.9px" viewBox="0 -6 103 27.9" style="top:-6px"><desc>Agent 1</desc><defs/><g id="Polygon274526"><path d="m1.2 2s4.44-.05 4.4 0C7.8 2 9 3.4 9 5.2C9 7 7.8 8.5 5.6 8.5c.04-.04-2.8 0-2.8 0v4H1.2V2zm4.2 1.4c.03-.05-2.6 0-2.6 0v3.7s2.63-.03 2.6 0c1.2 0 2-.8 2-1.9c0-1.1-.8-1.8-2-1.8zm5.2 1.5h1.5s-.05 1.15 0 1.2c.5-.8 1.4-1.4 2.5-1.4v1.4h-.5c-.7 0-1.7.5-2 1.1c-.05.01 0 5.3 0 5.3h-1.5V4.9zm5.2-2.2c0-.5.4-.9.9-.9c.5 0 .9.4.9.9c0 .5-.4.9-.9.9c-.5 0-.9-.4-.9-.9zm.2 2.2h1.4v7.6H16V4.9zm7.1-.2c1.5 0 2.3.6 2.9 1.3l-1 .9c-.4-.6-1-.9-1.8-.9c-1.5 0-2.5 1.1-2.5 2.7c0 1.6 1 2.8 2.5 2.8c.8 0 1.4-.3 1.8-1l1 .9c-.6.7-1.4 1.3-2.9 1.3c-2.3 0-3.9-1.7-3.9-4c0-2.3 1.6-4 3.9-4zm7.8 0c2.3 0 3.8 1.8 3.8 4.1c-.03.03 0 .4 0 .4c0 0-6.1-.02-6.1 0c.1 1.3 1.1 2.4 2.6 2.4c.8 0 1.7-.4 2.3-.9l.6.9c-.7.7-1.8 1.1-3 1.1c-2.3 0-4-1.6-4-4c0-2.2 1.6-4 3.8-4zm-2.3 3.4h4.7c-.1-1-.7-2.2-2.4-2.2c-1.5 0-2.2 1.2-2.3 2.2zm14.6-6.5h1.1l-3.8 11.3h-1.1l3.8-11.3zm6.6 8.2c.7.8 1.9 1.5 3.3 1.5c1.8 0 2.4-.8 2.4-1.6c0-1.1-1.2-1.4-2.6-1.8c-1.7-.4-3.7-.9-3.7-3.1c0-1.7 1.6-3 3.8-3c1.6 0 2.9.5 3.8 1.5l-.9 1.1c-.8-.8-1.9-1.2-3-1.2c-1.2 0-2 .6-2 1.5c0 1 1.1 1.3 2.4 1.6c1.8.4 3.8 1 3.8 3.2c0 1.7-1.2 3.2-4 3.2c-1.9 0-3.3-.6-4.2-1.6l.9-1.3zM58.9 2h7.1v1.4h-5.5v3h5.4v1.4h-5.4v4.7h-1.6V2z" stroke="none" fill="#000"/></g></svg>