<?xml version="1.0" standalone="no"?>
<!DOCTYPE svg PUBLIC "-//W3C//DTD SVG 1.1//EN" "http://www.w3.org/Graphics/SVG/1.1/DTD/svg11.dtd">
<svg xmlns="http://www.w3.org/2000/svg" version="1.1" width="158px" height="27.9px" viewBox="0 -6 158 27.9" style="top:-6px">
  <desc>Insurance</desc>
  <defs/>
  <g id="Polygon277952">
    <path d="M 1.2 2 L 2.8 2 L 2.8 12.5 L 1.2 12.5 L 1.2 2 Z M 10.3 7.6 C 10.3 6.4 9.6 6 8.6 6 C 7.8 6 6.9 6.5 6.5 7.1 C 6.53 7.07 6.5 12.5 6.5 12.5 L 5.1 12.5 L 5.1 4.9 L 6.5 4.9 C 6.5 4.9 6.53 5.95 6.5 6 C 7 5.3 8.1 4.7 9.2 4.7 C 10.9 4.7 11.7 5.5 11.7 7.2 C 11.7 7.16 11.7 12.5 11.7 12.5 L 10.3 12.5 C 10.3 12.5 10.28 7.64 10.3 7.6 Z M 14 10.5 C 14.5 11.1 15.5 11.6 16.6 11.6 C 17.6 11.6 18.2 11.2 18.2 10.5 C 18.2 9.7 17.3 9.5 16.4 9.3 C 15.1 9 13.5 8.6 13.5 7 C 13.5 5.7 14.6 4.7 16.5 4.7 C 17.8 4.7 18.7 5.2 19.4 5.8 C 19.4 5.8 18.7 6.8 18.7 6.8 C 18.3 6.2 17.4 5.8 16.5 5.8 C 15.5 5.8 14.9 6.2 14.9 6.8 C 14.9 7.5 15.7 7.7 16.7 8 C 18 8.3 19.6 8.6 19.6 10.4 C 19.6 11.7 18.5 12.7 16.5 12.7 C 15.2 12.7 14.1 12.3 13.3 11.5 C 13.3 11.5 14 10.5 14 10.5 Z M 26.6 11.5 C 26 12.1 25 12.7 23.9 12.7 C 22.2 12.7 21.4 11.9 21.4 10.3 C 21.41 10.29 21.4 4.9 21.4 4.9 L 22.8 4.9 C 22.8 4.9 22.84 9.82 22.8 9.8 C 22.8 11.1 23.5 11.5 24.5 11.5 C 25.3 11.5 26.2 11 26.6 10.4 C 26.59 10.39 26.6 4.9 26.6 4.9 L 28 4.9 L 28 12.5 L 26.6 12.5 C 26.6 12.5 26.59 11.5 26.6 11.5 Z M 30.3 4.9 L 31.7 4.9 C 31.7 4.9 31.72 6.05 31.7 6.1 C 32.3 5.3 33.2 4.7 34.2 4.7 C 34.2 4.7 34.2 6.1 34.2 6.1 C 34.1 6.1 33.9 6.1 33.7 6.1 C 33 6.1 32 6.6 31.7 7.2 C 31.72 7.21 31.7 12.5 31.7 12.5 L 30.3 12.5 L 30.3 4.9 Z M 40.4 11.7 C 39.8 12.4 38.9 12.7 37.9 12.7 C 36.6 12.7 35.2 11.9 35.2 10.2 C 35.2 8.4 36.6 7.7 37.9 7.7 C 38.9 7.7 39.8 8 40.4 8.7 C 40.4 8.7 40.4 7.4 40.4 7.4 C 40.4 6.5 39.6 5.9 38.5 5.9 C 37.6 5.9 36.9 6.2 36.2 6.9 C 36.2 6.9 35.6 5.9 35.6 5.9 C 36.4 5.1 37.5 4.7 38.7 4.7 C 40.4 4.7 41.8 5.4 41.8 7.4 C 41.82 7.37 41.8 12.5 41.8 12.5 L 40.4 12.5 C 40.4 12.5 40.39 11.71 40.4 11.7 Z M 40.4 9.6 C 40 9 39.2 8.7 38.4 8.7 C 37.4 8.7 36.7 9.3 36.7 10.2 C 36.7 11.1 37.4 11.7 38.4 11.7 C 39.2 11.7 40 11.4 40.4 10.9 C 40.4 10.9 40.4 9.6 40.4 9.6 Z M 49.3 7.6 C 49.3 6.4 48.6 6 47.6 6 C 46.8 6 45.9 6.5 45.5 7.1 C 45.53 7.07 45.5 12.5 45.5 12.5 L 44.1 12.5 L 44.1 4.9 L 45.5 4.9 C 45.5 4.9 45.53 5.95 45.5 6 C 46 5.3 47.1 4.7 48.3 4.7 C 49.9 4.7 50.7 5.5 50.7 7.2 C 50.71 7.16 50.7 12.5 50.7 12.5 L 49.3 12.5 C 49.3 12.5 49.28 7.64 49.3 7.6 Z M 56.4 4.7 C 57.9 4.7 58.7 5.3 59.3 6 C 59.3 6 58.3 6.9 58.3 6.9 C 57.9 6.3 57.3 6 56.5 6 C 55 6 54 7.1 54 8.7 C 54 10.3 55 11.5 56.5 11.5 C 57.3 11.5 57.9 11.2 58.3 10.5 C 58.3 10.5 59.3 11.4 59.3 11.4 C 58.7 12.1 57.9 12.7 56.4 12.7 C 54.1 12.7 52.5 11 52.5 8.7 C 52.5 6.4 54.1 4.7 56.4 4.7 Z M 64.2 4.7 C 66.5 4.7 68 6.5 68 8.8 C 67.96 8.83 68 9.2 68 9.2 C 68 9.2 61.89 9.18 61.9 9.2 C 62 10.5 63 11.6 64.5 11.6 C 65.3 11.6 66.2 11.2 66.8 10.7 C 66.8 10.7 67.4 11.6 67.4 11.6 C 66.7 12.3 65.6 12.7 64.4 12.7 C 62.1 12.7 60.4 11.1 60.4 8.7 C 60.4 6.5 62 4.7 64.2 4.7 Z M 61.9 8.1 C 61.9 8.1 66.6 8.1 66.6 8.1 C 66.5 7.1 65.8 5.9 64.2 5.9 C 62.7 5.9 62 7.1 61.9 8.1 Z " stroke="none" fill="#000"/>
  </g>
</svg>