<?xml version="1.0" standalone="no"?><!DOCTYPE svg PUBLIC "-//W3C//DTD SVG 1.1//EN" "http://www.w3.org/Graphics/SVG/1.1/DTD/svg11.dtd"><svg xmlns="http://www.w3.org/2000/svg" version="1.1" width="89.3px" height="16.9px" viewBox="0 -4 89.3 16.9" style="top:-4px"><desc>Roof &amp; Structure</desc><defs/><g id="Polygon281741"><path d="m2.7 4.8H1.6v2.3h-.9v-6s2.5.01 2.5 0c1.1 0 1.9.7 1.9 1.9c0 1-.7 1.6-1.5 1.7c.03.01 1.6 2.4 1.6 2.4H4.1L2.7 4.8zm.4-2.9H1.6v2.1h1.5c.6 0 1.1-.4 1.1-1c0-.7-.5-1.1-1.1-1.1zm2.6 3c0-1.2.8-2.2 2.2-2.2c1.3 0 2.2 1 2.2 2.2c0 1.3-.9 2.3-2.2 2.3c-1.4 0-2.2-1-2.2-2.3zm3.5 0c0-.8-.5-1.5-1.3-1.5c-.9 0-1.4.7-1.4 1.5c0 .9.5 1.6 1.4 1.6c.8 0 1.3-.7 1.3-1.6zm1.6 0c0-1.2.9-2.2 2.2-2.2c1.4 0 2.2 1 2.2 2.2c0 1.3-.8 2.3-2.2 2.3c-1.3 0-2.2-1-2.2-2.3zm3.6 0c0-.8-.5-1.5-1.4-1.5c-.9 0-1.3.7-1.3 1.5c0 .9.4 1.6 1.3 1.6c.9 0 1.4-.7 1.4-1.6zm2-1.4h-.7v-.7h.7s.03-.32 0-.3c0-1 .6-1.5 1.4-1.5c.2 0 .5.1.7.2l-.2.6c-.1-.1-.3-.1-.4-.1c-.4 0-.7.3-.7.8c.04-.02 0 .3 0 .3h.9v.7h-.9v3.6h-.8V3.5zm9.7 3.6h-1c-.2-.1-.4-.3-.6-.6c-.5.4-1 .7-1.7.7c-1.1 0-1.9-.5-1.9-1.7c0-.9.6-1.4 1.3-1.7c-.3-.5-.5-1-.5-1.4c0-.8.7-1.4 1.6-1.4c.8 0 1.4.5 1.4 1.2c0 .9-.7 1.3-1.5 1.7c.2.3.5.6.7.8c.2.3.4.5.6.7c.3-.4.5-.9.6-1.3l.7.3c-.2.5-.5 1.1-.8 1.5c.3.4.7.8 1.1 1.2zm-3.2-3.7c.6-.3 1.1-.6 1.1-1.1c0-.4-.3-.7-.7-.7c-.4 0-.7.4-.7.8c0 .3.1.7.3 1zM24 6l-.8-.8c-.2-.3-.5-.6-.7-.9c-.4.3-.8.6-.8 1.2c0 .7.6 1.1 1.2 1.1c.4 0 .8-.2 1.1-.6zm5.5-.4c.4.4 1 .8 1.9.8c.9 0 1.3-.5 1.3-.9c0-.6-.7-.8-1.5-1c-.9-.3-2-.5-2-1.8c0-1 .8-1.7 2.1-1.7c.9 0 1.6.3 2.2.9l-.6.6c-.4-.5-1-.7-1.7-.7c-.7 0-1.1.4-1.1.9c0 .5.6.7 1.4.9c1 .2 2.1.5 2.1 1.8c0 .9-.6 1.8-2.3 1.8c-1 0-1.8-.4-2.3-.9l.5-.7zm5.2.5c-.05.05 0-2.6 0-2.6h-.8v-.7h.8V1.6h.8v1.2h.8v.7h-.8s-.04 2.47 0 2.5c0 .3.1.5.4.5c.2 0 .3-.1.4-.2l.2.6c-.1.2-.4.3-.8.3c-.7 0-1-.4-1-1.1zm2.5-3.3h.9s-.05.63 0 .6c.3-.4.8-.7 1.4-.7v.8h-.3c-.4 0-1 .3-1.1.6c-.05-.01 0 3 0 3h-.9V2.8zm6 3.7c-.3.4-.9.7-1.5.7c-1 0-1.4-.4-1.4-1.4c-.02.03 0-3 0-3h.8v2.8c0 .7.4.9.9.9c.5 0 1-.3 1.2-.6c.02-.01 0-3.1 0-3.1h.8v4.3h-.8s.02-.58 0-.6zm4.1-3.8c.8 0 1.3.3 1.6.7l-.6.5c-.2-.4-.6-.5-1-.5c-.9 0-1.4.6-1.4 1.5c0 .9.5 1.6 1.4 1.6c.4 0 .8-.2 1-.5l.6.5c-.3.4-.8.7-1.6.7c-1.4 0-2.3-1-2.3-2.3c0-1.3.9-2.2 2.3-2.2zm2.6 3.4c.04.05 0-2.6 0-2.6h-.7v-.7h.7V1.6h.8v1.2h.9v.7h-.9s.05 2.47 0 2.5c0 .3.2.5.5.5c.2 0 .3-.1.4-.2l.2.6c-.2.2-.4.3-.8.3c-.7 0-1.1-.4-1.1-1.1zm5.6.4c-.4.4-.9.7-1.6.7c-.9 0-1.4-.4-1.4-1.4c.03.03 0-3 0-3h.8s.04 2.76 0 2.8c0 .7.4.9 1 .9c.5 0 .9-.3 1.2-.6c-.03-.01 0-3.1 0-3.1h.8v4.3h-.8s-.03-.58 0-.6zm2.1-3.7h.8s-.03.63 0 .6c.3-.4.8-.7 1.4-.7v.8h-.3c-.4 0-.9.3-1.1.6c-.03-.01 0 3 0 3h-.8V2.8zm4.9-.1c1.3 0 2.1 1 2.1 2.3c.03 0 0 .2 0 .2h-3.4c.1.7.6 1.4 1.5 1.4c.4 0 .9-.2 1.3-.6l.3.6c-.4.4-1 .6-1.7.6c-1.3 0-2.3-.9-2.3-2.3c0-1.2.9-2.2 2.2-2.2zm-1.3 1.9h2.6c0-.6-.4-1.3-1.3-1.3c-.9 0-1.3.7-1.3 1.3z" stroke="none" fill="#000"/></g></svg>