<?xml version="1.0" standalone="no"?><!DOCTYPE svg PUBLIC "-//W3C//DTD SVG 1.1//EN" "http://www.w3.org/Graphics/SVG/1.1/DTD/svg11.dtd"><svg xmlns="http://www.w3.org/2000/svg" xmlns:xlink="http://www.w3.org/1999/xlink" version="1.1" width="77px" height="25.9px" viewBox="0 -8 77 25.9" style="top:-8px"><desc/><defs/><g id="Polygon89131"><path d="m6.2 3.9l4-2v.4L6.7 4.1l3.5 1.8v.4l-4-2v-.4zm4.5 0l3.9-2v.4l-3.4 1.8l3.4 1.8v.4l-3.9-2v-.4zm4.7 2.8c2.1-1.7 3.4-2.8 3.4-4c0-.9-.7-1.2-1.3-1.2c-.8 0-1.4.3-1.7.8l-.3-.4c.4-.5 1.1-.9 2-.9c.8 0 1.8.5 1.8 1.7c0 1.3-1.4 2.5-3.1 3.9c.01.04 3.2 0 3.2 0v.5h-4v-.4zM22.9 1c1.6 0 2.2 1.7 2.2 3.1c0 1.4-.6 3.1-2.2 3.1c-1.6 0-2.2-1.7-2.2-3.1c0-1.4.6-3.1 2.2-3.1zm0 .5c-1.3 0-1.7 1.4-1.7 2.6c0 1.2.4 2.7 1.7 2.7c1.2 0 1.7-1.5 1.7-2.7c0-1.2-.5-2.6-1.7-2.6zm4.2.3l-.9 1l-.4-.3l1.4-1.4h.4v6h-.5V1.8zm4-.8c1.6 0 2.2 1.7 2.2 3.1c0 1.4-.6 3.1-2.2 3.1c-1.6 0-2.2-1.7-2.2-3.1c0-1.4.6-3.1 2.2-3.1zm0 .5c-1.2 0-1.7 1.4-1.7 2.6c0 1.2.5 2.7 1.7 2.7c1.3 0 1.7-1.5 1.7-2.7c0-1.2-.4-2.6-1.7-2.6zm5.6 2.6c0-1.8 1.4-3.1 3-3.1c1 0 1.7.4 2.2 1.1l-.4.2c-.4-.5-1-.8-1.8-.8c-1.4 0-2.4 1-2.4 2.6c0 1.6 1 2.7 2.4 2.7c.8 0 1.4-.4 1.8-.9l.4.2c-.5.7-1.2 1.1-2.2 1.1c-1.6 0-3-1.2-3-3.1zm8.1-1.4c1.3 0 2.1 1 2.1 2.3c-.04-.04 0 .1 0 .1c0 0-3.67-.02-3.7 0c.1.9.7 1.7 1.7 1.7c.6 0 1.1-.2 1.5-.6l.2.3c-.4.5-1 .7-1.7.7c-1.3 0-2.2-.9-2.2-2.3c0-1.2.9-2.2 2.1-2.2zm-1.6 2h3.2c0-.7-.5-1.6-1.6-1.6c-1 0-1.5.9-1.6 1.6zm7.8-.5c0-.9-.4-1.1-1-1.1c-.6 0-1.2.3-1.5.7c.04.02 0 3.3 0 3.3h-.4V2.8h.4s.04.62 0 .6c.4-.4 1-.7 1.6-.7c.9 0 1.4.4 1.4 1.4c-.03-.03 0 3 0 3h-.5V4.2zm1.8 2c.3.3.8.6 1.4.6c.8 0 1.2-.3 1.2-.8c0-.6-.6-.8-1.2-.9c-.7-.2-1.5-.4-1.5-1.2c0-.7.5-1.2 1.5-1.2c.7 0 1.2.2 1.6.6l-.3.3c-.3-.3-.7-.5-1.3-.5c-.7 0-1.1.3-1.1.7c0 .5.6.7 1.2.8c.7.2 1.6.4 1.6 1.3c0 .7-.6 1.3-1.7 1.3c-.7 0-1.2-.2-1.6-.7l.2-.3zm7.2.3c-.4.4-.9.7-1.6.7c-.9 0-1.3-.4-1.3-1.4c-.04.02 0-3 0-3h.4s.03 2.92 0 2.9c0 .9.5 1.1 1.1 1.1c.5 0 1.1-.3 1.4-.7V2.8h.5v4.3h-.5v-.6zm1.8-.3c.3.3.8.6 1.4.6c.8 0 1.2-.3 1.2-.8c0-.6-.6-.8-1.2-.9c-.8-.2-1.6-.4-1.6-1.2c0-.7.6-1.2 1.6-1.2c.7 0 1.2.2 1.5.6l-.2.3c-.3-.3-.7-.5-1.3-.5c-.7 0-1.1.3-1.1.7c0 .5.6.7 1.2.8c.7.2 1.5.4 1.5 1.3c0 .7-.5 1.3-1.6 1.3c-.7 0-1.2-.2-1.7-.7l.3-.3zm6.1-1.5h2.2v.4h-2.2v-.4zm5.4 1.2c.4.5.9.9 1.7.9c.9 0 1.5-.5 1.5-1.3c0-.9-.7-1.2-1.6-1.2h-.5v-.5h.5c.8 0 1.5-.4 1.5-1.2c0-.7-.6-1.1-1.4-1.1c-.7 0-1.2.3-1.6.7l-.3-.3c.4-.5 1-.9 1.9-.9c1.1 0 1.9.6 1.9 1.6c0 .9-.7 1.3-1.2 1.4c.5.1 1.3.5 1.3 1.5c0 1-.7 1.7-2 1.7c-1 0-1.7-.4-2-1l.3-.3z" stroke="none" fill="#000"/><a xlink:href="DBF_2010%20Census%20-%203%20Mile1" xlink:show="new" xlink:title="&lt;&lt;2010 Census - 3 Mile1&gt;&gt;"><rect style="fill:transparent;" x="5" y="0" width="72" height="7"/></a></g></svg>