<?xml version="1.0" standalone="no"?>
<!DOCTYPE svg PUBLIC "-//W3C//DTD SVG 1.1//EN" "http://www.w3.org/Graphics/SVG/1.1/DTD/svg11.dtd">
<svg xmlns="http://www.w3.org/2000/svg" version="1.1" width="343px" height="29.9px" viewBox="0 -7 343 29.9" style="top:-7px">
  <desc>02</desc>
  <defs/>
  <g id="Polygon263825">
    <path d="M 5.2 1.9 C 8.3 1.9 9.5 4.9 9.5 7.7 C 9.5 10.5 8.3 13.5 5.2 13.5 C 2.1 13.5 0.8 10.5 0.8 7.7 C 0.8 4.9 2.1 1.9 5.2 1.9 Z M 5.2 3.4 C 3.2 3.4 2.5 5.5 2.5 7.7 C 2.5 9.9 3.2 12 5.2 12 C 7.1 12 7.8 9.9 7.8 7.7 C 7.8 5.5 7.1 3.4 5.2 3.4 Z M 11.2 12 C 15.4 8.7 17.3 7 17.3 5.3 C 17.3 4 16.2 3.4 15.2 3.4 C 13.8 3.4 12.8 4 12.1 4.8 C 12.1 4.8 11.1 3.7 11.1 3.7 C 12 2.5 13.6 1.9 15.1 1.9 C 17.2 1.9 19 3 19 5.3 C 19 7.5 17 9.4 13.9 11.8 C 13.87 11.8 19.1 11.8 19.1 11.8 L 19.1 13.3 L 11.2 13.3 C 11.2 13.3 11.2 11.96 11.2 12 Z " stroke="none" fill="#88898a"/>
  </g>
</svg>