<?xml version="1.0" standalone="no"?><!DOCTYPE svg PUBLIC "-//W3C//DTD SVG 1.1//EN" "http://www.w3.org/Graphics/SVG/1.1/DTD/svg11.dtd"><svg xmlns="http://www.w3.org/2000/svg" version="1.1" width="220.1px" height="39.5px" viewBox="0 -4 220.1 39.5" style="top:-4px"><desc>raising cane s DEMOGRAPHICS</desc><defs/><g id="Polygon110204"><path d="m6.5 17.5v6.4c0 1.7-1.1 2.4-2.8 2.4H.8V15.1h2.9c1.7 0 2.8.7 2.8 2.4zm-2.9-.8c0 .04-.9 0-.9 0v8s.9-.02.9 0c.6 0 1-.2 1-1v-5.9c0-.8-.4-1.1-1-1.1zm4.3 9.6V15.1h4.9v1.6H9.7v3.1h2.6v1.6H9.7v3.3h3.1v1.6H7.9zm10.5-1.6h-1l-1.7-5.2v6.8H14V15.1h1.7l2.2 6.5l2.2-6.5h1.8v11.2h-1.8v-6.8l-1.7 5.2zm7.7-9.7h.1c1.7 0 2.8.7 2.8 2.3v6.8c0 1.7-1.1 2.3-2.8 2.3h-.1c-1.7 0-2.8-.6-2.8-2.3v-6.8c0-1.7 1.1-2.3 2.8-2.3zm0 9.8c.7 0 1.1-.2 1.1-1v-6.2c0-.8-.4-1-1.1-1c-.6 0-1 .2-1 1v6.2c0 .8.4 1 1 1zm10-.7c0 1.7-1.1 2.3-2.8 2.3h-.1c-1.7 0-2.9-.6-2.9-2.3v-6.8c0-1.6 1.2-2.3 2.9-2.3h.1c1.7 0 2.8.7 2.8 2.3v1.6h-1.9s.04-1.26 0-1.3c0-.8-.4-1-1-1c-.6 0-1 .2-1 1v6.2c0 .8.4 1 1 1c.6 0 1-.2 1-1c.04-.02 0-1.7 0-1.7h-1v-1.6h2.9v3.6zm5.5 2.2l-1.4-4.5h-.9v4.5h-1.9V15.1h2.9c1.7 0 2.9.7 2.9 2.4v2c0 1-.5 1.7-1.3 2.1c.04-.04 1.6 4.7 1.6 4.7h-1.9zm-2.3-6.1s.97.05 1 0c.6 0 1-.2 1-1v-1.4c0-.8-.4-1.1-1-1.1c-.03.04-1 0-1 0v3.5zm8.8 3.6H46l-.4 2.5h-1.8l2.1-11.2h2.3l2.2 11.2h-1.9l-.4-2.5zm-.3-1.5l-.8-5l-.7 5h1.5zm9-4.8v2.1c0 1.7-1.1 2.4-2.8 2.4c.02-.03-1 0-1 0v4.3h-1.9V15.1h2.9c1.7 0 2.8.7 2.8 2.4zm-1.8.3c0-.8-.4-1.1-1-1.1c-.05.04-1 0-1 0v3.6s.95.04 1 0c.6 0 1-.2 1-1v-1.5zm4.7-2.7v4.7h2.1v-4.7h1.9v11.2h-1.9v-4.9h-2.1v4.9h-1.8V15.1h1.8zm5.5 11.2V15.1h1.9v11.2h-1.9zm9-2.2c0 1.7-1.2 2.3-2.9 2.3c-1.7 0-2.8-.6-2.8-2.3v-6.8c0-1.6 1.1-2.3 2.8-2.3c1.7 0 2.9.7 2.9 2.3c-.04.05 0 2.1 0 2.1h-1.9v-1.8c0-.7-.4-1-1-1c-.6 0-.9.3-.9 1v6.2c0 .8.3 1 .9 1c.6 0 1-.2 1-1v-2.1h1.9s-.04 2.37 0 2.4zm4.8-5s-.04-1.56 0-1.6c0-.7-.4-.9-1-.9c-.5 0-.9.2-.9.9v.8c0 .6.2.8.7 1.1l1.3.8c1.1.6 1.7 1.1 1.7 2.3v1.6c0 1.7-1.1 2.3-2.8 2.3c-1.7 0-2.8-.6-2.8-2.3c.05 0 0-2 0-2h1.9s-.03 1.75 0 1.7c0 .7.4 1 .9 1c.6 0 1-.3 1-1v-.8c0-.6-.2-.9-.7-1.2l-1.3-.7c-1.1-.7-1.8-1.2-1.8-2.3v-1.5c0-1.7 1.3-2.3 2.8-2.3c1.6 0 2.8.6 2.8 2.3c-.02-.01 0 1.8 0 1.8H79z" stroke="none" fill="#282828"/></g><g id="Polygon110203"><path d="m2.7 4.8H1.6v2.3h-.9v-6s2.5.01 2.5 0c1.1 0 1.9.7 1.9 1.9c0 1-.7 1.6-1.5 1.7c.03.01 1.6 2.4 1.6 2.4H4.1L2.7 4.8zm.4-2.9H1.6v2.1h1.5c.6 0 1.1-.4 1.1-1c0-.7-.5-1.1-1.1-1.1zm6.8 4H7l-.5 1.2h-1l2.4-6h1.1l2.4 6h-1l-.5-1.2zm-2.6-.8h2.4L8.5 1.9l-1.2 3.2zm4.7-4h.9v6h-.9v-6zm2.3 4.5c.4.4 1.1.8 1.9.8c1 0 1.3-.5 1.3-.9c0-.6-.6-.8-1.4-1c-1-.3-2.1-.5-2.1-1.8c0-1 .9-1.7 2.1-1.7c1 0 1.7.3 2.2.9l-.5.6c-.5-.5-1.1-.7-1.7-.7c-.7 0-1.2.4-1.2.9c0 .5.7.7 1.4.9c1 .2 2.2.5 2.2 1.8c0 .9-.7 1.8-2.3 1.8c-1.1 0-1.9-.4-2.4-.9l.5-.7zm5.1-4.5h.9v6h-.9v-6zm3.1 1.4v4.6h-.9v-6h.9l3.3 4.5V1.1h.9v6h-.9l-3.3-4.6zM30.8 1c1.1 0 1.8.5 2.3 1.2l-.7.4c-.3-.4-.9-.8-1.6-.8c-1.3 0-2.2 1-2.2 2.3c0 1.4.9 2.3 2.2 2.3c.6 0 1.2-.3 1.5-.6c-.02.03 0-1 0-1h-1.9v-.8h2.8s-.02 2.17 0 2.2c-.6.6-1.4 1-2.4 1c-1.8 0-3.2-1.2-3.2-3.1C27.6 2.2 29 1 30.8 1zm5.4 3.1c0-1.8 1.4-3.1 3.1-3.1c1.2 0 1.9.6 2.4 1.3l-.8.4c-.3-.5-.9-.9-1.6-.9c-1.2 0-2.1 1-2.1 2.3c0 1.4.9 2.3 2.1 2.3c.7 0 1.3-.4 1.6-.9l.8.4c-.5.8-1.2 1.3-2.4 1.3c-1.7 0-3.1-1.2-3.1-3.1zm10.1 1.8h-3l-.5 1.2h-1l2.4-6h1.2l2.3 6h-1l-.4-1.2zm-2.7-.8h2.4l-1.2-3.2l-1.2 3.2zm5.7-2.6v4.6h-.9v-6h.9l3.3 4.5V1.1h.9v6h-.9l-3.3-4.6zm5.4-1.4h4v.8h-3.1v1.8h3.1v.7h-3.1v1.9h3.1v.8h-4v-6zm4.9 1.8c.3-.2.6-.5.6-.8h-.1c-.3 0-.5-.2-.5-.5c0-.3.2-.6.6-.6c.3 0 .6.3.6.8c0 .6-.3 1.1-.8 1.4l-.4-.3zM62 5.6c.4.4 1 .8 1.8.8c1 0 1.4-.5 1.4-.9c0-.6-.7-.8-1.5-1c-1-.3-2.1-.5-2.1-1.8c0-1 .9-1.7 2.2-1.7c.9 0 1.6.3 2.1.9l-.5.6c-.4-.5-1.1-.7-1.7-.7c-.7 0-1.1.4-1.1.9c0 .5.6.7 1.4.9c.9.2 2.1.5 2.1 1.8c0 .9-.7 1.8-2.3 1.8c-1.1 0-1.8-.4-2.4-.9l.6-.7z" stroke="none" fill="#3797ef"/></g></svg>