<?xml version="1.0" standalone="no"?>
<!DOCTYPE svg PUBLIC "-//W3C//DTD SVG 1.1//EN" "http://www.w3.org/Graphics/SVG/1.1/DTD/svg11.dtd">
<svg xmlns="http://www.w3.org/2000/svg" version="1.1" width="220.1px" height="39.5px" viewBox="0 -4 220.1 39.5" style="top:-4px">
  <desc>SUBJECT PROPERTY LEASE SUMMARY</desc>
  <defs/>
  <g id="Polygon185465">
    <path d="M 5.5 26.3 L 0.8 26.3 L 0.8 15.1 L 2.7 15.1 L 2.7 24.6 L 5.5 24.6 L 5.5 26.3 Z M 6.4 26.3 L 6.4 15.1 L 11.3 15.1 L 11.3 16.7 L 8.2 16.7 L 8.2 19.8 L 10.8 19.8 L 10.8 21.4 L 8.2 21.4 L 8.2 24.7 L 11.3 24.7 L 11.3 26.3 L 6.4 26.3 Z M 16 23.8 L 14 23.8 L 13.6 26.3 L 11.8 26.3 L 13.9 15.1 L 16.2 15.1 L 18.3 26.3 L 16.4 26.3 L 16 23.8 Z M 15.8 22.3 L 15 17.3 L 14.2 22.3 L 15.8 22.3 Z M 22.4 19.1 C 22.4 19.1 22.4 17.54 22.4 17.5 C 22.4 16.8 22 16.6 21.5 16.6 C 20.9 16.6 20.5 16.8 20.5 17.5 C 20.5 17.5 20.5 18.3 20.5 18.3 C 20.5 18.9 20.7 19.1 21.2 19.4 C 21.2 19.4 22.5 20.2 22.5 20.2 C 23.6 20.8 24.3 21.3 24.3 22.5 C 24.3 22.5 24.3 24.1 24.3 24.1 C 24.3 25.8 23.2 26.4 21.5 26.4 C 21.5 26.4 21.5 26.4 21.5 26.4 C 19.8 26.4 18.7 25.8 18.7 24.1 C 18.69 24.1 18.7 22.1 18.7 22.1 L 20.5 22.1 C 20.5 22.1 20.51 23.85 20.5 23.8 C 20.5 24.5 20.9 24.8 21.5 24.8 C 22 24.8 22.4 24.5 22.4 23.8 C 22.4 23.8 22.4 23 22.4 23 C 22.4 22.4 22.3 22.1 21.7 21.8 C 21.7 21.8 20.4 21.1 20.4 21.1 C 19.3 20.4 18.7 19.9 18.7 18.8 C 18.7 18.8 18.7 17.3 18.7 17.3 C 18.7 15.6 19.9 15 21.4 15 C 21.4 15 21.5 15 21.5 15 C 23 15 24.2 15.6 24.2 17.3 C 24.22 17.29 24.2 19.1 24.2 19.1 L 22.4 19.1 Z M 25.4 26.3 L 25.4 15.1 L 30.4 15.1 L 30.4 16.7 L 27.3 16.7 L 27.3 19.8 L 29.9 19.8 L 29.9 21.4 L 27.3 21.4 L 27.3 24.7 L 30.4 24.7 L 30.4 26.3 L 25.4 26.3 Z M 37.4 19.1 C 37.4 19.1 37.44 17.54 37.4 17.5 C 37.4 16.8 37 16.6 36.5 16.6 C 36 16.6 35.6 16.8 35.6 17.5 C 35.6 17.5 35.6 18.3 35.6 18.3 C 35.6 18.9 35.7 19.1 36.3 19.4 C 36.3 19.4 37.6 20.2 37.6 20.2 C 38.7 20.8 39.3 21.3 39.3 22.5 C 39.3 22.5 39.3 24.1 39.3 24.1 C 39.3 25.8 38.2 26.4 36.5 26.4 C 36.5 26.4 36.5 26.4 36.5 26.4 C 34.8 26.4 33.7 25.8 33.7 24.1 C 33.73 24.1 33.7 22.1 33.7 22.1 L 35.6 22.1 C 35.6 22.1 35.55 23.85 35.6 23.8 C 35.6 24.5 36 24.8 36.5 24.8 C 37.1 24.8 37.5 24.5 37.5 23.8 C 37.5 23.8 37.5 23 37.5 23 C 37.5 22.4 37.3 22.1 36.7 21.8 C 36.7 21.8 35.4 21.1 35.4 21.1 C 34.4 20.4 33.7 19.9 33.7 18.8 C 33.7 18.8 33.7 17.3 33.7 17.3 C 33.7 15.6 34.9 15 36.5 15 C 36.5 15 36.5 15 36.5 15 C 38 15 39.3 15.6 39.3 17.3 C 39.26 17.29 39.3 19.1 39.3 19.1 L 37.4 19.1 Z M 46.1 24.1 C 46.1 25.8 45 26.4 43.3 26.4 C 43.3 26.4 43.2 26.4 43.2 26.4 C 41.5 26.4 40.4 25.8 40.4 24.1 C 40.45 24.07 40.4 15.1 40.4 15.1 L 42.3 15.1 C 42.3 15.1 42.3 23.78 42.3 23.8 C 42.3 24.6 42.7 24.8 43.3 24.8 C 43.9 24.8 44.2 24.6 44.2 23.8 C 44.22 23.78 44.2 15.1 44.2 15.1 L 46.1 15.1 C 46.1 15.1 46.08 24.07 46.1 24.1 Z M 51.9 24.7 L 50.9 24.7 L 49.2 19.5 L 49.2 26.3 L 47.5 26.3 L 47.5 15.1 L 49.2 15.1 L 51.4 21.6 L 53.6 15.1 L 55.4 15.1 L 55.4 26.3 L 53.6 26.3 L 53.6 19.5 L 51.9 24.7 Z M 61.3 24.7 L 60.3 24.7 L 58.6 19.5 L 58.6 26.3 L 56.8 26.3 L 56.8 15.1 L 58.6 15.1 L 60.8 21.6 L 62.9 15.1 L 64.8 15.1 L 64.8 26.3 L 63 26.3 L 63 19.5 L 61.3 24.7 Z M 69.8 23.8 L 67.7 23.8 L 67.3 26.3 L 65.5 26.3 L 67.6 15.1 L 70 15.1 L 72.1 26.3 L 70.2 26.3 L 69.8 23.8 Z M 69.5 22.3 L 68.8 17.3 L 68 22.3 L 69.5 22.3 Z M 77 26.3 L 75.6 21.8 L 74.7 21.8 L 74.7 26.3 L 72.8 26.3 L 72.8 15.1 C 72.8 15.1 75.73 15.11 75.7 15.1 C 77.4 15.1 78.5 15.8 78.5 17.5 C 78.5 17.5 78.5 19.5 78.5 19.5 C 78.5 20.5 78.1 21.2 77.3 21.6 C 77.33 21.56 78.9 26.3 78.9 26.3 L 77 26.3 Z M 74.7 20.2 C 74.7 20.2 75.66 20.25 75.7 20.2 C 76.3 20.2 76.7 20 76.7 19.2 C 76.7 19.2 76.7 17.8 76.7 17.8 C 76.7 17 76.3 16.7 75.7 16.7 C 75.66 16.74 74.7 16.7 74.7 16.7 L 74.7 20.2 Z M 83.1 26.3 L 81.2 26.3 L 81.2 22.3 L 79 15.1 L 80.9 15.1 L 82.2 20.3 L 83.4 15.1 L 85.3 15.1 L 83.1 22.3 L 83.1 26.3 Z " stroke="none" fill="#282828"/>
  </g>
  <g id="Polygon185464">
    <path d="M 0.8 5.6 C 1.2 6 1.9 6.4 2.7 6.4 C 3.7 6.4 4 5.9 4 5.5 C 4 4.9 3.3 4.7 2.6 4.5 C 1.6 4.2 0.5 4 0.5 2.7 C 0.5 1.7 1.4 1 2.6 1 C 3.5 1 4.3 1.3 4.8 1.9 C 4.8 1.9 4.3 2.5 4.3 2.5 C 3.8 2 3.2 1.8 2.5 1.8 C 1.9 1.8 1.4 2.2 1.4 2.7 C 1.4 3.2 2.1 3.4 2.8 3.6 C 3.8 3.8 4.9 4.1 4.9 5.4 C 4.9 6.3 4.3 7.2 2.7 7.2 C 1.6 7.2 0.8 6.8 0.3 6.3 C 0.3 6.3 0.8 5.6 0.8 5.6 Z M 5.9 1.1 L 6.8 1.1 C 6.8 1.1 6.79 4.73 6.8 4.7 C 6.8 5.8 7.4 6.4 8.4 6.4 C 9.5 6.4 10 5.8 10 4.7 C 10.03 4.73 10 1.1 10 1.1 L 10.9 1.1 C 10.9 1.1 10.93 4.75 10.9 4.8 C 10.9 6.2 10.1 7.2 8.4 7.2 C 6.7 7.2 5.9 6.2 5.9 4.8 C 5.89 4.76 5.9 1.1 5.9 1.1 Z M 12.2 1.1 C 12.2 1.1 15 1.11 15 1.1 C 16.1 1.1 16.7 1.8 16.7 2.6 C 16.7 3.4 16.2 3.9 15.7 4 C 16.3 4.1 16.8 4.8 16.8 5.5 C 16.8 6.4 16.2 7.1 15.1 7.1 C 15.08 7.11 12.2 7.1 12.2 7.1 L 12.2 1.1 Z M 14.8 3.7 C 15.4 3.7 15.8 3.3 15.8 2.8 C 15.8 2.3 15.4 1.9 14.8 1.9 C 14.83 1.9 13.1 1.9 13.1 1.9 L 13.1 3.7 C 13.1 3.7 14.83 3.65 14.8 3.7 Z M 14.9 6.3 C 15.5 6.3 15.9 6 15.9 5.4 C 15.9 4.9 15.5 4.4 14.9 4.4 C 14.88 4.45 13.1 4.4 13.1 4.4 L 13.1 6.3 C 13.1 6.3 14.88 6.32 14.9 6.3 Z M 17.7 5.9 C 17.9 6.2 18.3 6.4 18.8 6.4 C 19.5 6.4 19.9 5.9 19.9 5.2 C 19.9 5.25 19.9 1.1 19.9 1.1 L 20.8 1.1 C 20.8 1.1 20.8 5.26 20.8 5.3 C 20.8 6.6 20 7.2 18.8 7.2 C 18.2 7.2 17.7 7 17.3 6.6 C 17.3 6.6 17.7 5.9 17.7 5.9 Z M 22.1 1.1 L 26.1 1.1 L 26.1 1.9 L 22.9 1.9 L 22.9 3.7 L 26 3.7 L 26 4.4 L 22.9 4.4 L 22.9 6.3 L 26.1 6.3 L 26.1 7.1 L 22.1 7.1 L 22.1 1.1 Z M 26.9 4.1 C 26.9 2.3 28.2 1 29.9 1 C 31.1 1 31.9 1.6 32.3 2.3 C 32.3 2.3 31.6 2.7 31.6 2.7 C 31.2 2.2 30.7 1.8 29.9 1.8 C 28.7 1.8 27.8 2.8 27.8 4.1 C 27.8 5.5 28.7 6.4 29.9 6.4 C 30.7 6.4 31.2 6 31.6 5.5 C 31.6 5.5 32.3 5.9 32.3 5.9 C 31.9 6.7 31.1 7.2 29.9 7.2 C 28.2 7.2 26.9 6 26.9 4.1 Z M 34.6 1.9 L 32.7 1.9 L 32.7 1.1 L 37.4 1.1 L 37.4 1.9 L 35.5 1.9 L 35.5 7.1 L 34.6 7.1 L 34.6 1.9 Z M 40.4 1.1 C 40.4 1.1 42.97 1.11 43 1.1 C 44.2 1.1 44.9 2 44.9 3 C 44.9 4 44.2 4.8 43 4.8 C 42.97 4.8 41.3 4.8 41.3 4.8 L 41.3 7.1 L 40.4 7.1 L 40.4 1.1 Z M 42.8 1.9 C 42.85 1.9 41.3 1.9 41.3 1.9 L 41.3 4 C 41.3 4 42.85 4.01 42.8 4 C 43.5 4 44 3.6 44 3 C 44 2.3 43.5 1.9 42.8 1.9 Z M 47.7 4.8 L 46.6 4.8 L 46.6 7.1 L 45.7 7.1 L 45.7 1.1 C 45.7 1.1 48.25 1.11 48.2 1.1 C 49.4 1.1 50.2 1.8 50.2 3 C 50.2 4 49.4 4.6 48.7 4.7 C 48.68 4.71 50.2 7.1 50.2 7.1 L 49.2 7.1 L 47.7 4.8 Z M 48.1 1.9 C 48.13 1.9 46.6 1.9 46.6 1.9 L 46.6 4 C 46.6 4 48.13 4.01 48.1 4 C 48.8 4 49.2 3.6 49.2 3 C 49.2 2.3 48.8 1.9 48.1 1.9 Z M 54 1 C 55.8 1 57 2.3 57 4.1 C 57 5.9 55.8 7.2 54 7.2 C 52.2 7.2 50.9 5.9 50.9 4.1 C 50.9 2.3 52.2 1 54 1 Z M 54 1.8 C 52.7 1.8 51.9 2.8 51.9 4.1 C 51.9 5.4 52.7 6.4 54 6.4 C 55.2 6.4 56.1 5.4 56.1 4.1 C 56.1 2.8 55.2 1.8 54 1.8 Z M 58 1.1 C 58 1.1 60.52 1.11 60.5 1.1 C 61.7 1.1 62.4 2 62.4 3 C 62.4 4 61.7 4.8 60.5 4.8 C 60.52 4.8 58.9 4.8 58.9 4.8 L 58.9 7.1 L 58 7.1 L 58 1.1 Z M 60.4 1.9 C 60.4 1.9 58.9 1.9 58.9 1.9 L 58.9 4 C 58.9 4 60.4 4.01 60.4 4 C 61 4 61.5 3.6 61.5 3 C 61.5 2.3 61 1.9 60.4 1.9 Z M 63.3 1.1 L 67.3 1.1 L 67.3 1.9 L 64.2 1.9 L 64.2 3.7 L 67.2 3.7 L 67.2 4.4 L 64.2 4.4 L 64.2 6.3 L 67.3 6.3 L 67.3 7.1 L 63.3 7.1 L 63.3 1.1 Z M 70.4 4.8 L 69.2 4.8 L 69.2 7.1 L 68.3 7.1 L 68.3 1.1 C 68.3 1.1 70.87 1.11 70.9 1.1 C 72 1.1 72.8 1.8 72.8 3 C 72.8 4 72.1 4.6 71.3 4.7 C 71.3 4.71 72.8 7.1 72.8 7.1 L 71.8 7.1 L 70.4 4.8 Z M 70.7 1.9 C 70.75 1.9 69.2 1.9 69.2 1.9 L 69.2 4 C 69.2 4 70.75 4.01 70.7 4 C 71.4 4 71.9 3.6 71.9 3 C 71.9 2.3 71.4 1.9 70.7 1.9 Z M 75.2 1.9 L 73.3 1.9 L 73.3 1.1 L 77.9 1.1 L 77.9 1.9 L 76.1 1.9 L 76.1 7.1 L 75.2 7.1 L 75.2 1.9 Z M 80.5 4.6 L 78.2 1.1 L 79.2 1.1 L 81 3.8 L 82.7 1.1 L 83.8 1.1 L 81.4 4.6 L 81.4 7.1 L 80.5 7.1 L 80.5 4.6 Z " stroke="none" fill="#3797ef"/>
  </g>
</svg>