<?xml version="1.0" standalone="no"?><!DOCTYPE svg PUBLIC "-//W3C//DTD SVG 1.1//EN" "http://www.w3.org/Graphics/SVG/1.1/DTD/svg11.dtd"><svg xmlns="http://www.w3.org/2000/svg" xmlns:xlink="http://www.w3.org/1999/xlink" version="1.1" width="237px" height="44.9px" viewBox="0 -14 237 44.9" style="top:-14px"><desc>AC</desc><defs/><g id="Polygon44646"><path d="m224.6 9.9H219l-1.1 2.6h-1L221.2 2h1.1l4.4 10.5h-1l-1.1-2.6zm-5.4-.8h5.1l-2.5-6.3l-2.6 6.3zm8-1.8c0-3.3 2.4-5.5 5.3-5.5c1.8 0 3 .7 3.9 1.9l-.7.4c-.7-.9-1.8-1.5-3.2-1.5c-2.4 0-4.3 1.9-4.3 4.7c0 2.7 1.9 4.6 4.3 4.6c1.4 0 2.5-.6 3.2-1.5l.7.4c-.9 1.2-2.1 1.9-3.9 1.9c-2.9 0-5.3-2.2-5.3-5.4z" stroke="none" fill="#000"/></g><g id="Polygon44645"><path d="m127.7 6.9l7-3.6v.8l-6.2 3.1l6.2 3.1v.8l-7-3.6v-.6zm7.9 0l6.9-3.6v.8l-6.1 3.1l6.1 3.1v.8l-6.9-3.6v-.6zm8.7-4.9h.9v9.7h5.2v.8h-6.1V2zm7.1 6.7c0-2.2 1.5-4 3.7-4c2.3 0 3.7 1.8 3.7 4c0 2.2-1.4 4-3.7 4c-2.2 0-3.7-1.8-3.7-4zm6.5 0c0-1.7-1-3.3-2.8-3.3c-1.8 0-2.8 1.6-2.8 3.3c0 1.7 1 3.3 2.8 3.3c1.8 0 2.8-1.6 2.8-3.3zm3.2 2.4V5.6h-1.3v-.7h1.3V2.8h.9v2.1h1.5v.7H162s-.05 5.34 0 5.3c0 .7.2 1.1.7 1.1c.4 0 .7-.2.9-.4l.3.7c-.3.2-.6.4-1.3.4c-1 0-1.5-.6-1.5-1.6zm8.4-.7c.6.8 1.8 1.5 3.3 1.5c2.1 0 2.8-1.2 2.8-2.1c0-1.5-1.5-1.9-2.9-2.3c-1.7-.5-3.5-.9-3.5-2.9c0-1.7 1.6-2.8 3.5-2.8c1.6 0 2.8.5 3.6 1.5l-.6.6c-.8-.9-1.9-1.3-3.1-1.3c-1.4 0-2.4.8-2.4 2c0 1.2 1.3 1.6 2.7 2c1.7.5 3.6 1 3.6 3.2c0 1.3-.9 2.9-3.7 2.9c-1.8 0-3.1-.7-3.9-1.6l.6-.7zm8.9-7.5c0-.3.3-.6.7-.6c.3 0 .6.3.6.6c0 .4-.3.7-.6.7c-.4 0-.7-.3-.7-.7zm.3 2h.8v7.6h-.8V4.9zm3 7l4.5-6.3h-4.5v-.7h5.6v.6l-4.6 6.3h4.6v.7h-5.6v-.6zm11.1-7.2c2.3 0 3.6 1.8 3.6 4.1v.2s-6.43-.03-6.4 0c0 1.6 1.2 3 3 3c.9 0 1.8-.3 2.5-1l.4.5c-.8.8-1.7 1.2-3 1.2c-2.2 0-3.8-1.6-3.8-4c0-2.2 1.5-4 3.7-4zM190 8.3h5.5c0-1.3-.8-2.9-2.8-2.9c-1.8 0-2.7 1.6-2.7 2.9zm7.7 2l6.1-3.1l-6.1-3.1v-.8l6.9 3.6v.6l-6.9 3.6v-.8zm7.9 0l6.1-3.1l-6.1-3.1v-.8l6.9 3.6v.6l-6.9 3.6v-.8z" stroke="none" fill="#000"/><a xlink:href="DBF_Lot%20Size" xlink:show="new" xlink:title="&lt;&lt;Lot Size&gt;&gt;"><rect style="fill:transparent;" x="127" y="1" width="86" height="12"/></a></g></svg>