<?xml version="1.0" standalone="no"?>
<!DOCTYPE svg PUBLIC "-//W3C//DTD SVG 1.1//EN" "http://www.w3.org/Graphics/SVG/1.1/DTD/svg11.dtd">
<svg xmlns="http://www.w3.org/2000/svg" version="1.1" width="85px" height="63.9px" viewBox="0 -10 85 63.9" style="top:-10px">
  <desc>Agent 1</desc>
  <defs/>
  <g id="Polygon209784">
    <path d="M 4.7 40.2 L 2.8 40.2 L 2.8 44.3 L 1.2 44.3 L 1.2 33.7 C 1.2 33.7 5.64 33.68 5.6 33.7 C 7.7 33.7 9 35 9 36.9 C 9 38.8 7.8 39.9 6.4 40 C 6.4 40.03 9.1 44.3 9.1 44.3 L 7.3 44.3 L 4.7 40.2 Z M 5.4 35.1 C 5.43 35.07 2.8 35.1 2.8 35.1 L 2.8 38.8 C 2.8 38.8 5.43 38.79 5.4 38.8 C 6.6 38.8 7.4 38 7.4 36.9 C 7.4 35.8 6.6 35.1 5.4 35.1 Z M 13.7 36.4 C 16 36.4 17.4 38.2 17.4 40.6 C 17.42 40.55 17.4 40.9 17.4 40.9 C 17.4 40.9 11.35 40.9 11.4 40.9 C 11.5 42.2 12.4 43.3 14 43.3 C 14.8 43.3 15.7 43 16.2 42.4 C 16.2 42.4 16.9 43.3 16.9 43.3 C 16.1 44.1 15.1 44.5 13.8 44.5 C 11.5 44.5 9.8 42.8 9.8 40.4 C 9.8 38.2 11.5 36.4 13.7 36.4 Z M 11.3 39.9 C 11.3 39.9 16 39.9 16 39.9 C 16 38.9 15.3 37.6 13.7 37.6 C 12.1 37.6 11.4 38.8 11.3 39.9 Z M 24.2 39.4 C 24.2 38.1 23.6 37.7 22.6 37.7 C 21.7 37.7 20.9 38.2 20.5 38.8 C 20.49 38.79 20.5 44.3 20.5 44.3 L 19.1 44.3 L 19.1 36.6 L 20.5 36.6 C 20.5 36.6 20.49 37.68 20.5 37.7 C 21 37.1 22 36.4 23.2 36.4 C 24.8 36.4 25.7 37.3 25.7 38.9 C 25.66 38.88 25.7 44.3 25.7 44.3 L 24.2 44.3 C 24.2 44.3 24.24 39.36 24.2 39.4 Z M 28.1 42.6 C 28.06 42.57 28.1 37.9 28.1 37.9 L 26.8 37.9 L 26.8 36.6 L 28.1 36.6 L 28.1 34.5 L 29.5 34.5 L 29.5 36.6 L 31 36.6 L 31 37.9 L 29.5 37.9 C 29.5 37.9 29.49 42.25 29.5 42.3 C 29.5 42.8 29.7 43.2 30.2 43.2 C 30.6 43.2 30.9 43 31 42.9 C 31 42.9 31.4 44 31.4 44 C 31.1 44.3 30.6 44.5 29.9 44.5 C 28.7 44.5 28.1 43.8 28.1 42.6 Z M 39 33.4 L 40.1 33.4 L 36.4 44.6 L 35.3 44.6 L 39 33.4 Z M 45.3 41.6 C 46.1 42.3 47.2 43 48.7 43 C 50.4 43 51 42.2 51 41.4 C 51 40.3 49.8 40 48.4 39.6 C 46.7 39.2 44.8 38.7 44.8 36.5 C 44.8 34.8 46.3 33.5 48.5 33.5 C 50.2 33.5 51.4 34 52.4 35 C 52.4 35 51.5 36.2 51.5 36.2 C 50.6 35.3 49.5 34.9 48.4 34.9 C 47.2 34.9 46.4 35.5 46.4 36.4 C 46.4 37.4 47.6 37.7 48.9 38 C 50.6 38.5 52.6 39 52.6 41.3 C 52.6 42.9 51.5 44.5 48.6 44.5 C 46.7 44.5 45.3 43.8 44.4 42.8 C 44.4 42.8 45.3 41.6 45.3 41.6 Z M 54.3 33.7 L 61.4 33.7 L 61.4 35.1 L 55.9 35.1 L 55.9 38.2 L 61.3 38.2 L 61.3 39.6 L 55.9 39.6 L 55.9 44.3 L 54.3 44.3 L 54.3 33.7 Z " stroke="none" fill="#3797ef"/>
  </g>
  <g id="Polygon209783">
    <path d="M 10.8 16.3 C 10.8 16.3 10.8 19.2 10.8 19.2 C 10.8 21.7 9.5 22.9 7.4 23.2 C 7.4 23.21 7.4 25.3 7.4 25.3 L 4.5 25.3 C 4.5 25.3 4.49 23.23 4.5 23.2 C 2.3 22.9 1 21.8 1 19.2 C 1.02 19.2 1 15.8 1 15.8 L 4.2 15.8 C 4.2 15.8 4.24 18.74 4.2 18.7 C 4.2 20 4.9 20.5 5.9 20.5 C 6.9 20.5 7.6 20 7.6 18.7 C 7.6 18.7 7.6 17.2 7.6 17.2 C 7.6 16.2 7.3 15.7 6.3 15.1 C 6.3 15.1 4 13.8 4 13.8 C 2.1 12.7 1 11.8 1 9.8 C 1 9.8 1 7.2 1 7.2 C 1 4.7 2.5 3.6 4.5 3.2 C 4.49 3.21 4.5 1.1 4.5 1.1 L 7.4 1.1 C 7.4 1.1 7.4 3.21 7.4 3.2 C 9.4 3.6 10.8 4.8 10.8 7.2 C 10.79 7.17 10.8 10.4 10.8 10.4 L 7.6 10.4 C 7.6 10.4 7.57 7.62 7.6 7.6 C 7.6 6.4 6.9 5.9 5.9 5.9 C 4.9 5.9 4.2 6.4 4.2 7.6 C 4.2 7.6 4.2 9 4.2 9 C 4.2 10 4.6 10.4 5.5 11 C 5.5 11 7.8 12.3 7.8 12.3 C 9.7 13.4 10.8 14.2 10.8 16.3 Z M 22.5 7.3 C 22.5 7.3 22.5 19.1 22.5 19.1 C 22.5 22.1 20.8 23.3 17.8 23.3 C 17.8 23.3 17.6 23.3 17.6 23.3 C 14.6 23.3 12.8 22.1 12.8 19.1 C 12.8 19.1 12.8 7.3 12.8 7.3 C 12.8 4.3 14.6 3.1 17.6 3.1 C 17.6 3.1 17.8 3.1 17.8 3.1 C 20.8 3.1 22.5 4.3 22.5 7.3 Z M 17.7 6 C 16.6 6 16 6.4 16 7.8 C 16 7.8 16 18.6 16 18.6 C 16 20 16.6 20.4 17.7 20.4 C 18.7 20.4 19.4 20 19.4 18.6 C 19.4 18.6 19.4 7.8 19.4 7.8 C 19.4 6.4 18.7 6 17.7 6 Z M 34.6 7.3 C 34.6 7.3 34.6 19.1 34.6 19.1 C 34.6 22.1 32.8 23.3 29.8 23.3 C 29.8 23.3 29.6 23.3 29.6 23.3 C 26.6 23.3 24.8 22.1 24.8 19.1 C 24.8 19.1 24.8 7.3 24.8 7.3 C 24.8 4.3 26.6 3.1 29.6 3.1 C 29.6 3.1 29.8 3.1 29.8 3.1 C 32.8 3.1 34.6 4.3 34.6 7.3 Z M 29.7 6 C 28.7 6 28 6.4 28 7.8 C 28 7.8 28 18.6 28 18.6 C 28 20 28.7 20.4 29.7 20.4 C 30.7 20.4 31.4 20 31.4 18.6 C 31.4 18.6 31.4 7.8 31.4 7.8 C 31.4 6.4 30.7 6 29.7 6 Z M 46.6 7.3 C 46.6 7.3 46.6 19.1 46.6 19.1 C 46.6 22.1 44.8 23.3 41.8 23.3 C 41.8 23.3 41.6 23.3 41.6 23.3 C 38.7 23.3 36.9 22.1 36.9 19.1 C 36.9 19.1 36.9 7.3 36.9 7.3 C 36.9 4.3 38.7 3.1 41.6 3.1 C 41.6 3.1 41.8 3.1 41.8 3.1 C 44.8 3.1 46.6 4.3 46.6 7.3 Z M 41.7 6 C 40.7 6 40 6.4 40 7.8 C 40 7.8 40 18.6 40 18.6 C 40 20 40.7 20.4 41.7 20.4 C 42.8 20.4 43.4 20 43.4 18.6 C 43.4 18.6 43.4 7.8 43.4 7.8 C 43.4 6.4 42.8 6 41.7 6 Z " stroke="none" fill="#282828"/>
  </g>
</svg>