<?xml version="1.0" standalone="no"?><!DOCTYPE svg PUBLIC "-//W3C//DTD SVG 1.1//EN" "http://www.w3.org/Graphics/SVG/1.1/DTD/svg11.dtd"><svg xmlns="http://www.w3.org/2000/svg" version="1.1" width="388.4px" height="67.5px" viewBox="0 -6 388.4 67.5" style="top:-6px"><desc>JAMES CAPITAL ADVISORS, INC CONTACT INFORMATION</desc><defs/><g id="Polygon96374"><path d="m11.3 42.5c0 3-2 4.2-5 4.2c-3 0-5-1.1-5-4.2V30.6c0-2.9 2-4.2 5-4.2c3 0 5 1.3 5 4.2c-.01.02 0 3.6 0 3.6H8s.02-3.07 0-3.1c0-1.4-.7-1.8-1.7-1.8c-1 0-1.7.4-1.7 1.8V42c0 1.4.7 1.8 1.7 1.8c1 0 1.7-.4 1.7-1.8c.02-.03 0-3.6 0-3.6h3.3v4.1zm7.2-16.1h.2c3 0 5 1.2 5 4.2v11.9c0 3-2 4.2-5 4.2h-.2c-3 0-5-1.2-5-4.2V30.6c0-3 2-4.2 5-4.2zm.1 17.4c1.1 0 1.8-.4 1.8-1.8V31.1c0-1.4-.7-1.8-1.8-1.8c-1.1 0-1.8.4-1.8 1.8V42c0 1.4.7 1.8 1.8 1.8zm7.5 2.6V26.7h3.3l4.1 12.2V26.7h3v19.7h-3.1l-4.3-12.8v12.8h-3zm21.7-16.9h-3.3v16.9h-3.3V29.5h-3.3v-2.8h9.9v2.8zM54.3 42h-3.6l-.8 4.4h-3.1l3.7-19.7h4.1l3.7 19.7H55l-.7-4.4zm-.5-2.7l-1.3-8.8l-1.4 8.8h2.7zm15.7 3.2c0 3-2 4.2-5 4.2h-.1c-3 0-4.9-1.1-4.9-4.2V30.6c0-2.9 1.9-4.2 4.9-4.2h.1c3 0 5 1.3 5 4.2c-.04.02 0 3.6 0 3.6h-3.3s-.02-3.07 0-3.1c0-1.4-.7-1.8-1.7-1.8c-1.1 0-1.8.4-1.8 1.8V42c0 1.4.7 1.8 1.8 1.8c1 0 1.7-.4 1.7-1.8c-.02-.03 0-3.6 0-3.6h3.3s-.04 4.08 0 4.1zm10.9-13h-3.3v16.9h-3.3V29.5h-3.3v-2.8h9.9v2.8zm5.5 16.9V26.7h3.3v19.7h-3.3zm5.9 0V26.7h3.3l4.1 12.2V26.7h3v19.7h-3.1l-4.3-12.8v12.8h-3zm13-19.7h8.5v2.8h-5.2v5.6h4.4v2.9h-4.4v8.4h-3.3V26.7zm15-.3h.2c3 0 5 1.2 5 4.2v11.9c0 3-2 4.2-5 4.2h-.2c-3 0-5-1.2-5-4.2V30.6c0-3 2-4.2 5-4.2zm.1 17.4c1.1 0 1.8-.4 1.8-1.8V31.1c0-1.4-.7-1.8-1.8-1.8c-1.1 0-1.8.4-1.8 1.8V42c0 1.4.7 1.8 1.8 1.8zm14.9 2.6l-2.5-7.8h-1.6v7.8h-3.3V26.7s5.11-.04 5.1 0c3 0 5 1.2 5 4.1v3.6c0 1.9-.8 3.1-2.2 3.6c.03.04 2.9 8.4 2.9 8.4h-3.4zm-4.1-10.7s1.69.03 1.7 0c1.1 0 1.8-.4 1.8-1.8v-2.5c0-1.5-.7-1.9-1.8-1.9c-.01.04-1.7 0-1.7 0v6.2zm17 7.8h-1.8l-3-9.2v12.1h-3.1V26.7h3.2l3.8 11.5l3.8-11.5h3.2v19.7h-3.1V34.3l-3 9.2zm15-1.5H159l-.7 4.4h-3.1l3.6-19.7h4.2l3.7 19.7h-3.3l-.7-4.4zm-.5-2.7l-1.3-8.8l-1.4 8.8h2.7zm13.4-9.8h-3.3v16.9H169V29.5h-3.3v-2.8h9.9v2.8zm1.5 16.9V26.7h3.3v19.7h-3.3zm10.8-20h.2c3 0 5 1.2 5 4.2v11.9c0 3-2 4.2-5 4.2h-.2c-3 0-5-1.2-5-4.2V30.6c0-3 2-4.2 5-4.2zm.1 17.4c1.1 0 1.8-.4 1.8-1.8V31.1c0-1.4-.7-1.8-1.8-1.8c-1.1 0-1.8.4-1.8 1.8V42c0 1.4.7 1.8 1.8 1.8zm7.5 2.6V26.7h3.3l4.1 12.2V26.7h3v19.7h-3.1l-4.3-12.8v12.8h-3z" stroke="none" fill="#282828"/></g><g id="Polygon96373"><path d="m.9 10.4c.5.5 1.1.9 1.9.9c1.3 0 2-.8 2-2V2h1.6v7.3c0 2.3-1.5 3.4-3.5 3.4c-1.1 0-2-.3-2.7-1.1l.7-1.2zm14 0H9.7l-.9 2.1H7.1L11.3 2h2l4.2 10.5h-1.8l-.8-2.1zm-4.8-1.5h4.3l-2.1-5.6l-2.2 5.6zm17.6-4.8l-3.4 8.4h-.7l-3.4-8.4v8.4h-1.6V2h2.3l3 7.6L27 2h2.3v10.5h-1.6V4.1zM31.5 2h7.1v1.4h-5.5v3h5.4v1.4h-5.4v3.4h5.5v1.3h-7.1V2zm9.2 7.8c.7.8 1.8 1.5 3.3 1.5c1.7 0 2.3-.8 2.3-1.6c0-1.1-1.2-1.4-2.5-1.8c-1.7-.4-3.7-.9-3.7-3.1c0-1.7 1.5-3 3.8-3c1.6 0 2.9.5 3.8 1.5l-.9 1.1c-.8-.8-1.9-1.2-3.1-1.2c-1.2 0-2 .6-2 1.5c0 1 1.2 1.3 2.5 1.6c1.7.4 3.7 1 3.7 3.2c0 1.7-1.1 3.2-4 3.2c-1.8 0-3.2-.6-4.1-1.6l.9-1.3zm12.4-2.5c0-3.3 2.4-5.5 5.5-5.5c2 0 3.3 1 4.2 2.2l-1.4.7c-.5-.9-1.6-1.5-2.8-1.5c-2.2 0-3.8 1.7-3.8 4.1c0 2.3 1.6 4 3.8 4c1.2 0 2.3-.6 2.8-1.5l1.4.7c-.9 1.2-2.2 2.2-4.2 2.2c-3.1 0-5.5-2.2-5.5-5.4zm17.7 3.1h-5.2l-.8 2.1H63L67.2 2h2l4.2 10.5h-1.7l-.9-2.1zm-4.7-1.5h4.3l-2.2-5.6l-2.1 5.6zM74.6 2s4.41-.05 4.4 0c2.2 0 3.4 1.4 3.4 3.2c0 1.8-1.2 3.3-3.4 3.3c.01-.04-2.9 0-2.9 0v4h-1.5V2zm4.2 1.4c.01-.05-2.7 0-2.7 0v3.7s2.71-.03 2.7 0c1.2 0 2-.8 2-1.9c0-1.1-.8-1.8-2-1.8zM83.9 2h1.6v10.5h-1.6V2zm6.4 1.4H87V2h8.1v1.4h-3.3v9.1h-1.5V3.4zm12 7h-5.2l-.9 2.1h-1.7L98.7 2h2l4.2 10.5h-1.8l-.8-2.1zm-4.8-1.5h4.3l-2.1-5.6l-2.2 5.6zM106 2h1.6v9.2h4.8v1.3H106V2zm18.6 8.4h-5.2l-.8 2.1h-1.8L121 2h2l4.2 10.5h-1.7l-.9-2.1zm-4.7-1.5h4.3L122 3.3l-2.1 5.6zm8.4-6.9s3.81-.05 3.8 0c3.3 0 5.5 2.2 5.5 5.3c0 3-2.2 5.2-5.5 5.2c.01.05-3.8 0-3.8 0V2zm3.8 9.2c2.5 0 3.9-1.8 3.9-3.9c0-2.2-1.4-3.9-3.9-3.9c.01-.05-2.2 0-2.2 0v7.8s2.21-.05 2.2 0zM138 2h1.8l3.3 8.8l3.4-8.8h1.9l-4.3 10.5h-1.9L138 2zm11.5 0h1.6v10.5h-1.6V2zm4 7.8c.7.8 1.9 1.5 3.4 1.5c1.7 0 2.3-.8 2.3-1.6c0-1.1-1.2-1.4-2.6-1.8c-1.7-.4-3.7-.9-3.7-3.1c0-1.7 1.6-3 3.8-3c1.6 0 2.9.5 3.9 1.5l-1 1.1c-.8-.8-1.9-1.2-3-1.2c-1.2 0-2 .6-2 1.5c0 1 1.1 1.3 2.4 1.6c1.8.4 3.8 1 3.8 3.2c0 1.7-1.2 3.2-4 3.2c-1.9 0-3.3-.6-4.2-1.6l.9-1.3zm13.9-8c3.1 0 5.3 2.3 5.3 5.5c0 3.1-2.2 5.4-5.3 5.4c-3.2 0-5.4-2.3-5.4-5.4c0-3.2 2.2-5.5 5.4-5.5zm0 1.4c-2.3 0-3.7 1.7-3.7 4.1c0 2.3 1.4 4 3.7 4c2.2 0 3.7-1.7 3.7-4c0-2.4-1.5-4.1-3.7-4.1zM178 8.5h-1.9v4h-1.6V2s4.43-.05 4.4 0c2 0 3.4 1.3 3.4 3.2c0 1.9-1.3 2.9-2.6 3.1c-.01.01 2.7 4.2 2.7 4.2h-1.8l-2.6-4zm.7-5.1c.02-.05-2.6 0-2.6 0v3.7s2.62-.03 2.6 0c1.2 0 2-.8 2-1.9c0-1.1-.8-1.8-2-1.8zm5.7 6.4c.7.8 1.8 1.5 3.3 1.5c1.7 0 2.3-.8 2.3-1.6c0-1.1-1.2-1.4-2.5-1.8c-1.7-.4-3.7-.9-3.7-3.1c0-1.7 1.5-3 3.8-3c1.6 0 2.9.5 3.8 1.5l-.9 1.1c-.8-.8-1.9-1.2-3.1-1.2c-1.2 0-2 .6-2 1.5c0 1 1.2 1.3 2.5 1.6c1.7.4 3.7 1 3.7 3.2c0 1.7-1.1 3.2-4 3.2c-1.8 0-3.2-.6-4.1-1.6l.9-1.3zm8.7 4.3c.5-.4 1-1 1-1.5h-.2c-.5 0-.9-.4-.9-.9c0-.5.5-1 1-1c.6 0 1.1.5 1.1 1.4c0 1-.6 1.9-1.4 2.5l-.6-.5zM200.9 2h1.6v10.5h-1.6V2zm5.4 2.4v8.1h-1.6V2h1.6l5.8 7.9V2h1.6v10.5h-1.6l-5.8-8.1zm9.1 2.9c0-3.3 2.4-5.5 5.5-5.5c2 0 3.3 1 4.2 2.2l-1.4.7c-.5-.9-1.6-1.5-2.8-1.5c-2.2 0-3.8 1.7-3.8 4.1c0 2.3 1.6 4 3.8 4c1.2 0 2.3-.6 2.8-1.5l1.4.7c-.9 1.2-2.2 2.2-4.2 2.2c-3.1 0-5.5-2.2-5.5-5.4zm11.8 3.4c.5 0 1 .5 1 1c0 .6-.5 1-1 1c-.5 0-1-.4-1-1c0-.5.5-1 1-1z" stroke="none" fill="#3797ef"/></g></svg>