<?xml version="1.0" standalone="no"?><!DOCTYPE svg PUBLIC "-//W3C//DTD SVG 1.1//EN" "http://www.w3.org/Graphics/SVG/1.1/DTD/svg11.dtd"><svg xmlns="http://www.w3.org/2000/svg" version="1.1" width="116.1px" height="24.9px" viewBox="0 -1 116.1 24.9" style="top:-1px"><desc>SUBMIT OFFER</desc><defs/><g id="Polygon76718"><path d="m27.8 12.5c.4.4 1 .8 1.8.8c1 0 1.4-.5 1.4-.9c0-.7-.7-.8-1.5-1c-1-.3-2.1-.6-2.1-1.8c0-1 .9-1.7 2.2-1.7c.9 0 1.6.3 2.1.8l-.5.7c-.4-.5-1.1-.7-1.7-.7c-.7 0-1.1.3-1.1.8c0 .6.6.8 1.4.9c.9.3 2.1.6 2.1 1.9c0 .9-.7 1.8-2.3 1.8c-1.1 0-1.8-.4-2.4-1l.6-.6zM32.9 8h.9s.03 3.62 0 3.6c0 1 .6 1.7 1.6 1.7c1.1 0 1.7-.7 1.7-1.7c-.04.02 0-3.6 0-3.6h.9s-.03 3.64 0 3.6c0 1.5-.9 2.5-2.6 2.5c-1.6 0-2.5-1-2.5-2.5c.02.05 0-3.6 0-3.6zm6.4 0h2.8c1.1 0 1.7.6 1.7 1.5c0 .8-.5 1.3-1 1.4c.6.1 1.1.7 1.1 1.5c0 .9-.6 1.6-1.7 1.6h-2.9v-6zm2.7 2.5c.6 0 .9-.3.9-.8c0-.5-.3-.9-.9-.9c-.04-.02-1.8 0-1.8 0v1.7s1.76.04 1.8 0zm0 2.7c.6 0 1-.4 1-.9c0-.5-.3-1-1-1c0 .03-1.8 0-1.8 0v1.9h1.8zm8.2-4L48.3 14h-.4L46 9.2v4.8h-.9v-6h1.2l1.8 4.3L49.8 8h1.3v6h-.9V9.2zM52.4 8h.9v6h-.9v-6zm3.8.8h-1.9v-.8h4.6v.8h-1.8v5.2h-.9V8.8zm8.7-.9c1.8 0 3.1 1.3 3.1 3.1c0 1.8-1.3 3.1-3.1 3.1c-1.8 0-3-1.3-3-3.1c0-1.8 1.2-3.1 3-3.1zm0 .8c-1.2 0-2.1 1-2.1 2.3c0 1.3.9 2.3 2.1 2.3c1.3 0 2.1-1 2.1-2.3c0-1.3-.8-2.3-2.1-2.3zm4.2-.7h4v.8H70v1.7h3v.8h-3v2.7h-.9v-6zm5 0h4v.8H75v1.7h3v.8h-3v2.7h-.9v-6zm5 0h4v.8H80v1.7h3v.8h-3v1.9h3.1v.8h-4v-6zm7.1 3.7h-1.1v2.3h-.9v-6s2.55-.01 2.5 0c1.2 0 2 .7 2 1.8c0 1.1-.8 1.7-1.5 1.8c-.02-.01 1.5 2.4 1.5 2.4h-1l-1.5-2.3zm.4-2.9c.03-.02-1.5 0-1.5 0v2.1h1.5c.7 0 1.1-.4 1.1-1.1c0-.6-.4-1-1.1-1z" stroke="none" fill="#ffffff"/></g></svg>