<?xml version="1.0" standalone="no"?><!DOCTYPE svg PUBLIC "-//W3C//DTD SVG 1.1//EN" "http://www.w3.org/Graphics/SVG/1.1/DTD/svg11.dtd"><svg xmlns="http://www.w3.org/2000/svg" version="1.1" width="22px" height="41.3px" viewBox="0 -8 22 41.3" style="top:-8px"><desc>04</desc><defs/><g id="Polygon64781"><path d="m10.6 5.3v10.1c0 2.5-1.5 3.5-4.1 3.5h-.2c-2.5 0-4-1-4-3.5V5.3c0-2.6 1.5-3.6 4-3.6h.2c2.6 0 4.1 1 4.1 3.6zM6.4 4.2c-.8 0-1.4.3-1.4 1.5v9.2c0 1.2.6 1.6 1.4 1.6c.9 0 1.5-.4 1.5-1.6V5.7c0-1.2-.6-1.5-1.5-1.5zm13 8.3h1.2v2.4h-1.2v3.8h-2.7v-3.8h-4.8v-2.5l3.9-10.5h3.6v10.6zm-5.4 0h2.7V4.6L14 12.5z" stroke="none" fill="#fff"/></g></svg>