<?xml version="1.0" standalone="no"?>
<!DOCTYPE svg PUBLIC "-//W3C//DTD SVG 1.1//EN" "http://www.w3.org/Graphics/SVG/1.1/DTD/svg11.dtd">
<svg xmlns="http://www.w3.org/2000/svg" version="1.1" width="89.3px" height="16.9px" viewBox="0 -4 89.3 16.9" style="top:-4px">
  <desc>Ownership</desc>
  <defs/>
  <g id="Polygon274497">
    <path d="M 3.4 1 C 5.2 1 6.5 2.3 6.5 4.1 C 6.5 5.9 5.2 7.2 3.4 7.2 C 1.6 7.2 0.4 5.9 0.4 4.1 C 0.4 2.3 1.6 1 3.4 1 Z M 3.4 1.8 C 2.2 1.8 1.3 2.8 1.3 4.1 C 1.3 5.4 2.2 6.4 3.4 6.4 C 4.7 6.4 5.5 5.4 5.5 4.1 C 5.5 2.8 4.7 1.8 3.4 1.8 Z M 10.2 3.8 L 9.2 7.1 L 8.3 7.1 L 7 2.8 L 7.8 2.8 L 8.8 6.1 L 9.9 2.8 L 10.6 2.8 L 11.7 6.1 L 12.7 2.8 L 13.5 2.8 L 12.1 7.1 L 11.3 7.1 L 10.2 3.8 Z M 17.2 4.3 C 17.2 3.6 16.8 3.4 16.2 3.4 C 15.7 3.4 15.3 3.7 15 4 C 15.04 4 15 7.1 15 7.1 L 14.2 7.1 L 14.2 2.8 L 15 2.8 C 15 2.8 15.04 3.37 15 3.4 C 15.3 3 15.9 2.7 16.6 2.7 C 17.5 2.7 18 3.1 18 4.1 C 17.97 4.06 18 7.1 18 7.1 L 17.2 7.1 C 17.2 7.1 17.16 4.33 17.2 4.3 Z M 21.2 2.7 C 22.5 2.7 23.3 3.7 23.3 5 C 23.28 5 23.3 5.2 23.3 5.2 C 23.3 5.2 19.84 5.2 19.8 5.2 C 19.9 5.9 20.4 6.6 21.3 6.6 C 21.8 6.6 22.3 6.4 22.6 6 C 22.6 6 23 6.6 23 6.6 C 22.6 7 21.9 7.2 21.2 7.2 C 19.9 7.2 19 6.3 19 4.9 C 19 3.7 19.9 2.7 21.2 2.7 Z M 19.8 4.6 C 19.8 4.6 22.5 4.6 22.5 4.6 C 22.5 4 22.1 3.3 21.2 3.3 C 20.3 3.3 19.9 4 19.8 4.6 Z M 24.3 2.8 L 25.1 2.8 C 25.1 2.8 25.11 3.43 25.1 3.4 C 25.4 3 26 2.7 26.5 2.7 C 26.5 2.7 26.5 3.5 26.5 3.5 C 26.5 3.5 26.4 3.5 26.3 3.5 C 25.8 3.5 25.3 3.8 25.1 4.1 C 25.11 4.09 25.1 7.1 25.1 7.1 L 24.3 7.1 L 24.3 2.8 Z M 27.4 5.9 C 27.6 6.3 28.2 6.6 28.8 6.6 C 29.4 6.6 29.7 6.3 29.7 5.9 C 29.7 5.5 29.3 5.4 28.7 5.2 C 28 5.1 27.1 4.9 27.1 3.9 C 27.1 3.2 27.7 2.7 28.7 2.7 C 29.5 2.7 30 2.9 30.4 3.3 C 30.4 3.3 30 3.8 30 3.8 C 29.8 3.5 29.3 3.3 28.8 3.3 C 28.2 3.3 27.9 3.5 27.9 3.9 C 27.9 4.3 28.3 4.4 28.9 4.5 C 29.6 4.7 30.5 4.9 30.5 5.9 C 30.5 6.6 29.9 7.2 28.8 7.2 C 28 7.2 27.4 7 27 6.5 C 27 6.5 27.4 5.9 27.4 5.9 Z M 34.5 4.3 C 34.5 3.6 34.1 3.4 33.6 3.4 C 33.1 3.4 32.6 3.7 32.4 4 C 32.36 4 32.4 7.1 32.4 7.1 L 31.6 7.1 L 31.6 1.1 L 32.4 1.1 C 32.4 1.1 32.36 3.37 32.4 3.4 C 32.7 3 33.2 2.7 33.9 2.7 C 34.8 2.7 35.3 3.1 35.3 4 C 35.3 4.04 35.3 7.1 35.3 7.1 L 34.5 7.1 C 34.5 7.1 34.49 4.31 34.5 4.3 Z M 36.5 1.5 C 36.5 1.2 36.7 1 37 1 C 37.3 1 37.5 1.2 37.5 1.5 C 37.5 1.8 37.3 2 37 2 C 36.7 2 36.5 1.8 36.5 1.5 Z M 36.6 2.8 L 37.4 2.8 L 37.4 7.1 L 36.6 7.1 L 36.6 2.8 Z M 38.7 8.8 L 38.7 2.8 L 39.5 2.8 C 39.5 2.8 39.5 3.38 39.5 3.4 C 39.8 3 40.3 2.7 40.9 2.7 C 42.1 2.7 42.9 3.5 42.9 4.9 C 42.9 6.4 42.1 7.2 40.9 7.2 C 40.4 7.2 39.9 7 39.5 6.5 C 39.5 6.48 39.5 8.8 39.5 8.8 L 38.7 8.8 Z M 40.7 3.4 C 40.2 3.4 39.7 3.7 39.5 4 C 39.5 4 39.5 5.9 39.5 5.9 C 39.7 6.2 40.2 6.5 40.7 6.5 C 41.5 6.5 42 5.8 42 4.9 C 42 4 41.5 3.4 40.7 3.4 Z " stroke="none" fill="#000"/>
  </g>
</svg>