<?xml version="1.0" standalone="no"?><!DOCTYPE svg PUBLIC "-//W3C//DTD SVG 1.1//EN" "http://www.w3.org/Graphics/SVG/1.1/DTD/svg11.dtd"><svg xmlns="http://www.w3.org/2000/svg" version="1.1" width="184px" height="16.9px" viewBox="0 -4 184 16.9" style="top:-4px"><desc>12</desc><defs/><g id="Polygon83717"><path d="m1.7 2.3l-1 1l-.5-.5l1.6-1.7h.8v6h-.9V2.3zm2 4.1C5.9 4.7 7 3.8 7 2.8c0-.7-.6-1-1.2-1c-.7 0-1.2.3-1.6.8L3.7 2c.4-.6 1.3-1 2.1-1c1.1 0 2.1.6 2.1 1.8C7.9 4 6.8 5 5.1 6.3c.03.02 2.8 0 2.8 0v.8H3.7v-.7z" stroke="none" fill="#88898a"/></g></svg>