<?xml version="1.0" standalone="no"?><!DOCTYPE svg PUBLIC "-//W3C//DTD SVG 1.1//EN" "http://www.w3.org/Graphics/SVG/1.1/DTD/svg11.dtd"><svg xmlns="http://www.w3.org/2000/svg" version="1.1" width="237px" height="47.4px" viewBox="0 -10 237 47.4" style="top:-10px"><desc>13 5 Years</desc><defs/><g id="Polygon91233"><path d="m5.2 7.2l-3 3.2L.5 8.6l5.1-5.1h2.4v18.8H5.2V7.2zm7 10.5c1.2 1.5 3.1 2.4 5.2 2.4c2.6 0 4.2-1.2 4.2-3.2c0-2.1-1.7-3-4.5-3c-.7 0-1.7 0-2 .1v-2.6h2c2.3 0 4.2-.8 4.2-2.8c0-1.9-1.8-2.9-4-2.9c-2 0-3.6.8-5 2.2l-1.5-1.8c1.5-1.6 3.7-2.9 6.7-2.9c3.8 0 6.6 1.9 6.6 5c0 2.7-2.2 4.1-4.1 4.4c1.8.2 4.4 1.6 4.4 4.6c0 3.2-2.6 5.4-6.9 5.4c-3.3 0-5.7-1.3-6.9-3l1.6-1.9zm16.7 1.4c.9 0 1.7.8 1.7 1.7c0 1-.8 1.8-1.7 1.8c-1 0-1.8-.8-1.8-1.8c0-.9.8-1.7 1.8-1.7zm6.4-1.3c1.3 1.5 3 2.3 5.2 2.3c2.4 0 4.1-1.6 4.1-3.6c0-2.3-1.6-3.7-4.1-3.7c-1.6 0-2.9.5-4.2 1.7c.01-.04-2-.7-2-.7V3.5h11.9v2.5h-9.1v6c.9-.9 2.5-1.7 4.3-1.7c3.2 0 6 2.2 6 6c0 3.9-2.9 6.3-6.9 6.3c-3.2 0-5.3-1.1-6.8-2.9l1.6-1.9zM63 14.4L55.6 3.5h3.3l5.5 8.4l5.5-8.4h3.3l-7.4 10.9v7.9H63v-7.9zm14.5-6.1c4.1 0 6.6 3.2 6.6 7.4c.04 0 0 .6 0 .6c0 0-10.75.02-10.7 0c.2 2.3 1.8 4.3 4.6 4.3c1.4 0 3-.6 4-1.7l1.2 1.7c-1.3 1.3-3.3 2-5.5 2c-4 0-7-2.8-7-7.1c0-4 2.8-7.2 6.8-7.2zm-4.2 6.2h8.4c-.1-1.8-1.3-4.1-4.2-4.1c-2.7 0-4 2.2-4.2 4.1zm22.2 6.3c-1.1 1.2-2.7 1.8-4.5 1.8c-2.3 0-4.7-1.5-4.7-4.5c0-3.1 2.4-4.4 4.7-4.4c1.8 0 3.4.6 4.5 1.8v-2.3c0-1.7-1.4-2.7-3.4-2.7c-1.5 0-2.8.6-4.1 1.8l-1.1-1.7c1.6-1.5 3.4-2.3 5.6-2.3c3 0 5.5 1.3 5.5 4.8v9.2h-2.5s-.04-1.49 0-1.5zm0-3.8c-.8-1-2.1-1.6-3.5-1.6c-1.9 0-3.2 1.1-3.2 2.8c0 1.6 1.3 2.7 3.2 2.7c1.4 0 2.7-.6 3.5-1.6V17zm6.3-8.3h2.5s.03 2.06 0 2.1c1.1-1.4 2.7-2.4 4.5-2.4v2.5c-.3 0-.5-.1-.9-.1c-1.3 0-3 1-3.6 2c.03.02 0 9.5 0 9.5h-2.5V8.7zm9.3 10c.9 1 2.7 1.9 4.6 1.9c1.9 0 2.9-.8 2.9-1.9c0-1.4-1.6-1.8-3.3-2.2c-2.3-.6-5-1.2-5-4.1c0-2.2 1.8-4.1 5.2-4.1c2.3 0 4 .9 5.1 2l-1.1 1.8c-.8-1-2.3-1.7-4-1.7c-1.7 0-2.8.7-2.8 1.8c0 1.2 1.5 1.6 3.1 1.9c2.4.6 5.2 1.2 5.2 4.4c0 2.3-1.9 4.1-5.5 4.1c-2.2 0-4.3-.7-5.6-2.1l1.2-1.8z" stroke="none" fill="#282828"/></g></svg>