<?xml version="1.0" standalone="no"?><!DOCTYPE svg PUBLIC "-//W3C//DTD SVG 1.1//EN" "http://www.w3.org/Graphics/SVG/1.1/DTD/svg11.dtd"><svg xmlns="http://www.w3.org/2000/svg" xmlns:xlink="http://www.w3.org/1999/xlink" version="1.1" width="237px" height="59.4px" viewBox="0 -13 237 59.4" style="top:-13px"><desc/><defs/><g id="Polygon46615"><path d="m0 11.9l12.5-6v2.1L2 12.9l10.5 4.9v2L0 13.8v-1.9zm13.8 0l12.5-6v2.1l-10.5 4.9l10.5 4.9v2l-12.5-6v-1.9zm15.1-8.4h2.9v16.3h8.5v2.5H28.9V3.5zm19.7 4.8c4.1 0 6.6 3.2 6.6 7.4v.6s-10.79.02-10.8 0c.2 2.3 1.9 4.3 4.6 4.3c1.5 0 3.1-.6 4.1-1.7l1.2 1.7c-1.4 1.3-3.3 2-5.5 2c-4.1 0-7.1-2.8-7.1-7.1c0-4 2.9-7.2 6.9-7.2zm-4.2 6.2h8.3c0-1.8-1.3-4.1-4.1-4.1c-2.8 0-4.1 2.2-4.2 4.1zm22.1 6.3c-1.1 1.2-2.6 1.8-4.4 1.8c-2.3 0-4.8-1.5-4.8-4.5c0-3.1 2.5-4.4 4.8-4.4c1.8 0 3.4.6 4.4 1.8v-2.3c0-1.7-1.4-2.7-3.3-2.7c-1.6 0-2.9.6-4.1 1.8L58 10.6c1.5-1.5 3.4-2.3 5.6-2.3c3 0 5.5 1.3 5.5 4.8c-.04 0 0 9.2 0 9.2h-2.6s.02-1.49 0-1.5zm0-3.8c-.7-1-2.1-1.6-3.5-1.6c-1.8 0-3.1 1.1-3.1 2.8c0 1.6 1.3 2.7 3.1 2.7c1.4 0 2.8-.6 3.5-1.6V17zm6.4 1.7c.9 1 2.7 1.9 4.5 1.9c2 0 3-.8 3-1.9c0-1.4-1.6-1.8-3.3-2.2c-2.3-.6-5-1.2-5-4.1c0-2.2 1.8-4.1 5.2-4.1c2.3 0 4 .9 5.1 2l-1.1 1.8c-.8-1-2.3-1.7-4-1.7c-1.7 0-2.8.7-2.8 1.8c0 1.2 1.5 1.6 3.1 1.9c2.4.6 5.2 1.2 5.2 4.4c0 2.3-1.9 4.1-5.5 4.1c-2.3 0-4.3-.7-5.6-2.1l1.2-1.8zM91.8 8.3c4.1 0 6.6 3.2 6.6 7.4v.6s-10.79.02-10.8 0c.2 2.3 1.9 4.3 4.6 4.3c1.5 0 3.1-.6 4.1-1.7l1.2 1.7c-1.4 1.3-3.3 2-5.5 2c-4.1 0-7.1-2.8-7.1-7.1c0-4 2.9-7.2 6.9-7.2zm-4.2 6.2h8.3c0-1.8-1.3-4.1-4.1-4.1c-2.8 0-4.1 2.2-4.2 4.1zM113 6h-5.9V3.5h14.5v2.5h-5.8v16.3H113V6zm10.2 19.6c1 0 1.6-.3 2-1.3l.8-1.9l-5.6-13.7h2.7l4.3 10.7l4.2-10.7h2.8s-6.75 16.2-6.7 16.2c-.9 2.1-2.4 2.9-4.4 2.9c-.4 0-1.2 0-1.6-.2l.4-2.2c.3.1.8.2 1.1.2zm12.9 1.9V8.7h2.6v1.9c1-1.3 2.6-2.3 4.5-2.3c3.5 0 6 2.7 6 7.2c0 4.4-2.5 7.1-6 7.1c-1.8 0-3.4-.8-4.5-2.3c-.01.03 0 7.2 0 7.2h-2.6zm6.4-16.9c-1.6 0-3.1.9-3.8 2v5.8c.7 1.1 2.2 2 3.8 2c2.5 0 4.1-2.1 4.1-4.9c0-2.9-1.6-4.9-4.1-4.9zm15.6-2.3c4.1 0 6.7 3.2 6.7 7.4c-.02 0 0 .6 0 .6c0 0-10.81.02-10.8 0c.2 2.3 1.9 4.3 4.6 4.3c1.5 0 3-.6 4.1-1.7l1.1 1.7c-1.3 1.3-3.2 2-5.4 2c-4.1 0-7.1-2.8-7.1-7.1c0-4 2.9-7.2 6.8-7.2zm-4.1 6.2h8.3c-.1-1.8-1.3-4.1-4.2-4.1c-2.7 0-4 2.2-4.1 4.1zm12.5 3.3l10.4-4.9L166.5 8V5.9l12.5 6v1.9l-12.5 6v-2zm13.8 0l10.5-4.9L180.3 8V5.9l12.5 6v1.9l-12.5 6v-2z" stroke="none" fill="#282828"/><a xlink:href="DBF_Lease%20Type" xlink:show="new" xlink:title="&lt;&lt;Lease Type&gt;&gt;"><rect style="fill:transparent;" x="-1" y="2" width="194" height="25"/></a></g></svg>