<?xml version="1.0" standalone="no"?><!DOCTYPE svg PUBLIC "-//W3C//DTD SVG 1.1//EN" "http://www.w3.org/Graphics/SVG/1.1/DTD/svg11.dtd"><svg xmlns="http://www.w3.org/2000/svg" version="1.1" width="34.2px" height="27.9px" viewBox="0 -6 34.2 27.9" style="top:-6px"><desc>Term</desc><defs/><g id="Polygon98519"><path d="m3.8 3.4H.5V2h8.1v1.4H5.4v9.1H3.8V3.4zm7.9 1.3c2.3 0 3.7 1.8 3.7 4.1c.04.03 0 .4 0 .4c0 0-6.03-.02-6 0c.1 1.3 1 2.4 2.6 2.4c.8 0 1.7-.4 2.2-.9l.7.9c-.7.7-1.8 1.1-3.1 1.1c-2.3 0-3.9-1.6-3.9-4c0-2.2 1.6-4 3.8-4zM9.4 8.1h4.6c0-1-.7-2.2-2.3-2.2c-1.5 0-2.3 1.2-2.3 2.2zm7.7-3.2h1.4v1.2c.6-.8 1.5-1.4 2.5-1.4v1.4h-.5c-.7 0-1.7.5-2 1.1v5.3h-1.4V4.9zm14.5 2.5c0-.9-.4-1.4-1.3-1.4c-.8 0-1.6.5-1.9 1.1c-.03-.05 0 5.4 0 5.4h-1.5s.04-5.07 0-5.1c0-.9-.3-1.4-1.3-1.4c-.8 0-1.5.5-1.9 1.1v5.4h-1.4V4.9h1.4s.01 1.05 0 1.1c.3-.5 1.3-1.3 2.5-1.3c1.1 0 1.8.6 2.1 1.4c.4-.7 1.4-1.4 2.6-1.4c1.4 0 2.1.8 2.1 2.3c.03 0 0 5.5 0 5.5h-1.4V7.4z" stroke="none" fill="#88898a"/></g></svg>