<?xml version="1.0" standalone="no"?><!DOCTYPE svg PUBLIC "-//W3C//DTD SVG 1.1//EN" "http://www.w3.org/Graphics/SVG/1.1/DTD/svg11.dtd"><svg xmlns="http://www.w3.org/2000/svg" version="1.1" width="34px" height="141.9px" viewBox="0 -4 34 141.9" style="top:-4px"><desc>Increase 00 00% 00 00% 00 00% 00 00% 00 00% 00 00% 00 00%</desc><defs/><g id="Polygon292881"><path d="m2.7 127c1.6 0 2.3 1.7 2.3 3.1c0 1.4-.7 3.1-2.3 3.1c-1.6 0-2.2-1.7-2.2-3.1c0-1.4.6-3.1 2.2-3.1zm0 .5c-1.2 0-1.6 1.4-1.6 2.6c0 1.2.4 2.7 1.6 2.7c1.3 0 1.7-1.5 1.7-2.7c0-1.2-.4-2.6-1.7-2.6zm5.4-.5c1.6 0 2.2 1.7 2.2 3.1c0 1.4-.6 3.1-2.2 3.1c-1.6 0-2.2-1.7-2.2-3.1c0-1.4.6-3.1 2.2-3.1zm0 .5c-1.2 0-1.7 1.4-1.7 2.6c0 1.2.5 2.7 1.7 2.7c1.3 0 1.7-1.5 1.7-2.7c0-1.2-.4-2.6-1.7-2.6zm3.3 4.9c.2 0 .4.2.4.4c0 .2-.2.4-.4.4c-.2 0-.4-.2-.4-.4c0-.2.2-.4.4-.4zm3.7-5.4c1.6 0 2.2 1.7 2.2 3.1c0 1.4-.6 3.1-2.2 3.1c-1.7 0-2.3-1.7-2.3-3.1c0-1.4.6-3.1 2.3-3.1zm0 .5c-1.3 0-1.7 1.4-1.7 2.6c0 1.2.4 2.7 1.7 2.7c1.2 0 1.6-1.5 1.6-2.7c0-1.2-.4-2.6-1.6-2.6zm5.3-.5c1.7 0 2.3 1.7 2.3 3.1c0 1.4-.6 3.1-2.3 3.1c-1.6 0-2.2-1.7-2.2-3.1c0-1.4.6-3.1 2.2-3.1zm0 .5c-1.2 0-1.6 1.4-1.6 2.6c0 1.2.4 2.7 1.6 2.7c1.3 0 1.7-1.5 1.7-2.7c0-1.2-.4-2.6-1.7-2.6zm4.4-.5c.8 0 1.4.7 1.4 1.5c0 .8-.6 1.5-1.4 1.5c-.8 0-1.4-.7-1.4-1.5c0-.8.6-1.5 1.4-1.5zm3.3.1h.4l-3.9 6h-.4l3.9-6zm-3.3.3c-.6 0-1 .5-1 1.1c0 .6.4 1.1 1 1.1c.6 0 1-.5 1-1.1c0-.6-.4-1.1-1-1.1zm3.1 2.9c.8 0 1.4.6 1.4 1.5c0 .8-.6 1.4-1.4 1.4c-.9 0-1.5-.6-1.5-1.4c0-.9.6-1.5 1.5-1.5zm0 .3c-.6 0-1 .5-1 1.2c0 .6.4 1.1 1 1.1c.5 0 .9-.5.9-1.1c0-.7-.4-1.2-.9-1.2z" stroke="none" fill="#242423"/></g><g id="Polygon292880"><path d="m2.7 109c1.6 0 2.3 1.7 2.3 3.1c0 1.4-.7 3.1-2.3 3.1c-1.6 0-2.2-1.7-2.2-3.1c0-1.4.6-3.1 2.2-3.1zm0 .5c-1.2 0-1.6 1.4-1.6 2.6c0 1.2.4 2.7 1.6 2.7c1.3 0 1.7-1.5 1.7-2.7c0-1.2-.4-2.6-1.7-2.6zm5.4-.5c1.6 0 2.2 1.7 2.2 3.1c0 1.4-.6 3.1-2.2 3.1c-1.6 0-2.2-1.7-2.2-3.1c0-1.4.6-3.1 2.2-3.1zm0 .5c-1.2 0-1.7 1.4-1.7 2.6c0 1.2.5 2.7 1.7 2.7c1.3 0 1.7-1.5 1.7-2.7c0-1.2-.4-2.6-1.7-2.6zm3.3 4.9c.2 0 .4.2.4.4c0 .2-.2.4-.4.4c-.2 0-.4-.2-.4-.4c0-.2.2-.4.4-.4zm3.7-5.4c1.6 0 2.2 1.7 2.2 3.1c0 1.4-.6 3.1-2.2 3.1c-1.7 0-2.3-1.7-2.3-3.1c0-1.4.6-3.1 2.3-3.1zm0 .5c-1.3 0-1.7 1.4-1.7 2.6c0 1.2.4 2.7 1.7 2.7c1.2 0 1.6-1.5 1.6-2.7c0-1.2-.4-2.6-1.6-2.6zm5.3-.5c1.7 0 2.3 1.7 2.3 3.1c0 1.4-.6 3.1-2.3 3.1c-1.6 0-2.2-1.7-2.2-3.1c0-1.4.6-3.1 2.2-3.1zm0 .5c-1.2 0-1.6 1.4-1.6 2.6c0 1.2.4 2.7 1.6 2.7c1.3 0 1.7-1.5 1.7-2.7c0-1.2-.4-2.6-1.7-2.6zm4.4-.5c.8 0 1.4.7 1.4 1.5c0 .8-.6 1.5-1.4 1.5c-.8 0-1.4-.7-1.4-1.5c0-.8.6-1.5 1.4-1.5zm3.3.1h.4l-3.9 6h-.4l3.9-6zm-3.3.3c-.6 0-1 .5-1 1.1c0 .6.4 1.1 1 1.1c.6 0 1-.5 1-1.1c0-.6-.4-1.1-1-1.1zm3.1 2.9c.8 0 1.4.6 1.4 1.5c0 .8-.6 1.4-1.4 1.4c-.9 0-1.5-.6-1.5-1.4c0-.9.6-1.5 1.5-1.5zm0 .3c-.6 0-1 .5-1 1.2c0 .6.4 1.1 1 1.1c.5 0 .9-.5.9-1.1c0-.7-.4-1.2-.9-1.2z" stroke="none" fill="#242423"/></g><g id="Polygon292879"><path d="m2.7 91C4.3 91 5 92.7 5 94.1c0 1.4-.7 3.1-2.3 3.1c-1.6 0-2.2-1.7-2.2-3.1c0-1.4.6-3.1 2.2-3.1zm0 .5c-1.2 0-1.6 1.4-1.6 2.6c0 1.2.4 2.7 1.6 2.7c1.3 0 1.7-1.5 1.7-2.7c0-1.2-.4-2.6-1.7-2.6zm5.4-.5c1.6 0 2.2 1.7 2.2 3.1c0 1.4-.6 3.1-2.2 3.1c-1.6 0-2.2-1.7-2.2-3.1c0-1.4.6-3.1 2.2-3.1zm0 .5c-1.2 0-1.7 1.4-1.7 2.6c0 1.2.5 2.7 1.7 2.7c1.3 0 1.7-1.5 1.7-2.7c0-1.2-.4-2.6-1.7-2.6zm3.3 4.9c.2 0 .4.2.4.4c0 .2-.2.4-.4.4c-.2 0-.4-.2-.4-.4c0-.2.2-.4.4-.4zm3.7-5.4c1.6 0 2.2 1.7 2.2 3.1c0 1.4-.6 3.1-2.2 3.1c-1.7 0-2.3-1.7-2.3-3.1c0-1.4.6-3.1 2.3-3.1zm0 .5c-1.3 0-1.7 1.4-1.7 2.6c0 1.2.4 2.7 1.7 2.7c1.2 0 1.6-1.5 1.6-2.7c0-1.2-.4-2.6-1.6-2.6zm5.3-.5c1.7 0 2.3 1.7 2.3 3.1c0 1.4-.6 3.1-2.3 3.1c-1.6 0-2.2-1.7-2.2-3.1c0-1.4.6-3.1 2.2-3.1zm0 .5c-1.2 0-1.6 1.4-1.6 2.6c0 1.2.4 2.7 1.6 2.7c1.3 0 1.7-1.5 1.7-2.7c0-1.2-.4-2.6-1.7-2.6zm4.4-.5c.8 0 1.4.7 1.4 1.5c0 .8-.6 1.5-1.4 1.5c-.8 0-1.4-.7-1.4-1.5c0-.8.6-1.5 1.4-1.5zm3.3.1h.4l-3.9 6h-.4l3.9-6zm-3.3.3c-.6 0-1 .5-1 1.1c0 .6.4 1.1 1 1.1c.6 0 1-.5 1-1.1c0-.6-.4-1.1-1-1.1zm3.1 2.9c.8 0 1.4.6 1.4 1.5c0 .8-.6 1.4-1.4 1.4c-.9 0-1.5-.6-1.5-1.4c0-.9.6-1.5 1.5-1.5zm0 .3c-.6 0-1 .5-1 1.2c0 .6.4 1.1 1 1.1c.5 0 .9-.5.9-1.1c0-.7-.4-1.2-.9-1.2z" stroke="none" fill="#242423"/></g><g id="Polygon292878"><path d="m2.7 73C4.3 73 5 74.7 5 76.1c0 1.4-.7 3.1-2.3 3.1c-1.6 0-2.2-1.7-2.2-3.1c0-1.4.6-3.1 2.2-3.1zm0 .5c-1.2 0-1.6 1.4-1.6 2.6c0 1.2.4 2.7 1.6 2.7c1.3 0 1.7-1.5 1.7-2.7c0-1.2-.4-2.6-1.7-2.6zm5.4-.5c1.6 0 2.2 1.7 2.2 3.1c0 1.4-.6 3.1-2.2 3.1c-1.6 0-2.2-1.7-2.2-3.1c0-1.4.6-3.1 2.2-3.1zm0 .5c-1.2 0-1.7 1.4-1.7 2.6c0 1.2.5 2.7 1.7 2.7c1.3 0 1.7-1.5 1.7-2.7c0-1.2-.4-2.6-1.7-2.6zm3.3 4.9c.2 0 .4.2.4.4c0 .2-.2.4-.4.4c-.2 0-.4-.2-.4-.4c0-.2.2-.4.4-.4zm3.7-5.4c1.6 0 2.2 1.7 2.2 3.1c0 1.4-.6 3.1-2.2 3.1c-1.7 0-2.3-1.7-2.3-3.1c0-1.4.6-3.1 2.3-3.1zm0 .5c-1.3 0-1.7 1.4-1.7 2.6c0 1.2.4 2.7 1.7 2.7c1.2 0 1.6-1.5 1.6-2.7c0-1.2-.4-2.6-1.6-2.6zm5.3-.5c1.7 0 2.3 1.7 2.3 3.1c0 1.4-.6 3.1-2.3 3.1c-1.6 0-2.2-1.7-2.2-3.1c0-1.4.6-3.1 2.2-3.1zm0 .5c-1.2 0-1.6 1.4-1.6 2.6c0 1.2.4 2.7 1.6 2.7c1.3 0 1.7-1.5 1.7-2.7c0-1.2-.4-2.6-1.7-2.6zm4.4-.5c.8 0 1.4.7 1.4 1.5c0 .8-.6 1.5-1.4 1.5c-.8 0-1.4-.7-1.4-1.5c0-.8.6-1.5 1.4-1.5zm3.3.1h.4l-3.9 6h-.4l3.9-6zm-3.3.3c-.6 0-1 .5-1 1.1c0 .6.4 1.1 1 1.1c.6 0 1-.5 1-1.1c0-.6-.4-1.1-1-1.1zm3.1 2.9c.8 0 1.4.6 1.4 1.5c0 .8-.6 1.4-1.4 1.4c-.9 0-1.5-.6-1.5-1.4c0-.9.6-1.5 1.5-1.5zm0 .3c-.6 0-1 .5-1 1.2c0 .6.4 1.1 1 1.1c.5 0 .9-.5.9-1.1c0-.7-.4-1.2-.9-1.2z" stroke="none" fill="#242423"/></g><g id="Polygon292877"><path d="m2.7 55C4.3 55 5 56.7 5 58.1c0 1.4-.7 3.1-2.3 3.1c-1.6 0-2.2-1.7-2.2-3.1c0-1.4.6-3.1 2.2-3.1zm0 .5c-1.2 0-1.6 1.4-1.6 2.6c0 1.2.4 2.7 1.6 2.7c1.3 0 1.7-1.5 1.7-2.7c0-1.2-.4-2.6-1.7-2.6zm5.4-.5c1.6 0 2.2 1.7 2.2 3.1c0 1.4-.6 3.1-2.2 3.1c-1.6 0-2.2-1.7-2.2-3.1c0-1.4.6-3.1 2.2-3.1zm0 .5c-1.2 0-1.7 1.4-1.7 2.6c0 1.2.5 2.7 1.7 2.7c1.3 0 1.7-1.5 1.7-2.7c0-1.2-.4-2.6-1.7-2.6zm3.3 4.9c.2 0 .4.2.4.4c0 .2-.2.4-.4.4c-.2 0-.4-.2-.4-.4c0-.2.2-.4.4-.4zm3.7-5.4c1.6 0 2.2 1.7 2.2 3.1c0 1.4-.6 3.1-2.2 3.1c-1.7 0-2.3-1.7-2.3-3.1c0-1.4.6-3.1 2.3-3.1zm0 .5c-1.3 0-1.7 1.4-1.7 2.6c0 1.2.4 2.7 1.7 2.7c1.2 0 1.6-1.5 1.6-2.7c0-1.2-.4-2.6-1.6-2.6zm5.3-.5c1.7 0 2.3 1.7 2.3 3.1c0 1.4-.6 3.1-2.3 3.1c-1.6 0-2.2-1.7-2.2-3.1c0-1.4.6-3.1 2.2-3.1zm0 .5c-1.2 0-1.6 1.4-1.6 2.6c0 1.2.4 2.7 1.6 2.7c1.3 0 1.7-1.5 1.7-2.7c0-1.2-.4-2.6-1.7-2.6zm4.4-.5c.8 0 1.4.7 1.4 1.5c0 .8-.6 1.5-1.4 1.5c-.8 0-1.4-.7-1.4-1.5c0-.8.6-1.5 1.4-1.5zm3.3.1h.4l-3.9 6h-.4l3.9-6zm-3.3.3c-.6 0-1 .5-1 1.1c0 .6.4 1.1 1 1.1c.6 0 1-.5 1-1.1c0-.6-.4-1.1-1-1.1zm3.1 2.9c.8 0 1.4.6 1.4 1.5c0 .8-.6 1.4-1.4 1.4c-.9 0-1.5-.6-1.5-1.4c0-.9.6-1.5 1.5-1.5zm0 .3c-.6 0-1 .5-1 1.2c0 .6.4 1.1 1 1.1c.5 0 .9-.5.9-1.1c0-.7-.4-1.2-.9-1.2z" stroke="none" fill="#242423"/></g><g id="Polygon292876"><path d="m2.7 37C4.3 37 5 38.7 5 40.1c0 1.4-.7 3.1-2.3 3.1c-1.6 0-2.2-1.7-2.2-3.1c0-1.4.6-3.1 2.2-3.1zm0 .5c-1.2 0-1.6 1.4-1.6 2.6c0 1.2.4 2.7 1.6 2.7c1.3 0 1.7-1.5 1.7-2.7c0-1.2-.4-2.6-1.7-2.6zm5.4-.5c1.6 0 2.2 1.7 2.2 3.1c0 1.4-.6 3.1-2.2 3.1c-1.6 0-2.2-1.7-2.2-3.1c0-1.4.6-3.1 2.2-3.1zm0 .5c-1.2 0-1.7 1.4-1.7 2.6c0 1.2.5 2.7 1.7 2.7c1.3 0 1.7-1.5 1.7-2.7c0-1.2-.4-2.6-1.7-2.6zm3.3 4.9c.2 0 .4.2.4.4c0 .2-.2.4-.4.4c-.2 0-.4-.2-.4-.4c0-.2.2-.4.4-.4zm3.7-5.4c1.6 0 2.2 1.7 2.2 3.1c0 1.4-.6 3.1-2.2 3.1c-1.7 0-2.3-1.7-2.3-3.1c0-1.4.6-3.1 2.3-3.1zm0 .5c-1.3 0-1.7 1.4-1.7 2.6c0 1.2.4 2.7 1.7 2.7c1.2 0 1.6-1.5 1.6-2.7c0-1.2-.4-2.6-1.6-2.6zm5.3-.5c1.7 0 2.3 1.7 2.3 3.1c0 1.4-.6 3.1-2.3 3.1c-1.6 0-2.2-1.7-2.2-3.1c0-1.4.6-3.1 2.2-3.1zm0 .5c-1.2 0-1.6 1.4-1.6 2.6c0 1.2.4 2.7 1.6 2.7c1.3 0 1.7-1.5 1.7-2.7c0-1.2-.4-2.6-1.7-2.6zm4.4-.5c.8 0 1.4.7 1.4 1.5c0 .8-.6 1.5-1.4 1.5c-.8 0-1.4-.7-1.4-1.5c0-.8.6-1.5 1.4-1.5zm3.3.1h.4l-3.9 6h-.4l3.9-6zm-3.3.3c-.6 0-1 .5-1 1.1c0 .6.4 1.1 1 1.1c.6 0 1-.5 1-1.1c0-.6-.4-1.1-1-1.1zm3.1 2.9c.8 0 1.4.6 1.4 1.5c0 .8-.6 1.4-1.4 1.4c-.9 0-1.5-.6-1.5-1.4c0-.9.6-1.5 1.5-1.5zm0 .3c-.6 0-1 .5-1 1.2c0 .6.4 1.1 1 1.1c.5 0 .9-.5.9-1.1c0-.7-.4-1.2-.9-1.2z" stroke="none" fill="#242423"/></g><g id="Polygon292875"><path d="m2.8 19c1.6 0 2.3 1.6 2.3 3.1c0 1.5-.7 3.1-2.3 3.1c-1.7 0-2.4-1.6-2.4-3.1c0-1.5.7-3.1 2.4-3.1zm0 .8c-1.1 0-1.5 1.1-1.5 2.3c0 1.2.4 2.3 1.5 2.3c1 0 1.4-1.1 1.4-2.3c0-1.2-.4-2.3-1.4-2.3zm5.4-.8c1.7 0 2.3 1.6 2.3 3.1c0 1.5-.6 3.1-2.3 3.1c-1.7 0-2.3-1.6-2.3-3.1c0-1.5.6-3.1 2.3-3.1zm0 .8c-1.1 0-1.4 1.1-1.4 2.3c0 1.2.3 2.3 1.4 2.3c1.1 0 1.4-1.1 1.4-2.3c0-1.2-.3-2.3-1.4-2.3zm3.5 4.3c.3 0 .5.2.5.5c0 .3-.2.6-.5.6c-.3 0-.6-.3-.6-.6c0-.3.3-.5.6-.5zm3.7-5.1c1.7 0 2.4 1.6 2.4 3.1c0 1.5-.7 3.1-2.4 3.1c-1.6 0-2.3-1.6-2.3-3.1c0-1.5.7-3.1 2.3-3.1zm0 .8c-1 0-1.4 1.1-1.4 2.3c0 1.2.4 2.3 1.4 2.3c1.1 0 1.5-1.1 1.5-2.3c0-1.2-.4-2.3-1.5-2.3zm5.5-.8c1.6 0 2.3 1.6 2.3 3.1c0 1.5-.7 3.1-2.3 3.1c-1.7 0-2.4-1.6-2.4-3.1c0-1.5.7-3.1 2.4-3.1zm0 .8c-1.1 0-1.5 1.1-1.5 2.3c0 1.2.4 2.3 1.5 2.3c1 0 1.4-1.1 1.4-2.3c0-1.2-.4-2.3-1.4-2.3zm4.4-.8c.9 0 1.4.7 1.4 1.5c0 .8-.5 1.5-1.4 1.5c-.9 0-1.5-.7-1.5-1.5c0-.8.6-1.5 1.5-1.5zm3.2.1h.6l-3.9 6h-.5l3.8-6zm-3.2.4c-.5 0-.9.5-.9 1c0 .6.4 1 .9 1c.5 0 .8-.4.8-1c0-.5-.3-1-.8-1zm3.2 2.7c.8 0 1.4.7 1.4 1.5c0 .9-.6 1.5-1.4 1.5c-.9 0-1.5-.6-1.5-1.5c0-.8.6-1.5 1.5-1.5zm0 .6c-.5 0-.9.4-.9.9c0 .6.4 1 .9 1c.5 0 .8-.4.8-1c0-.5-.3-.9-.8-.9z" stroke="none" fill="#242423"/></g><g id="Polygon292874"><path d="m.7 1.1h.9v6h-.9v-6zm5 3.2c0-.7-.3-.9-.9-.9c-.5 0-1 .3-1.2.6v3.1h-.8V2.8h.8v.6c.3-.4.9-.7 1.5-.7c1 0 1.4.4 1.4 1.4c.04-.04 0 3 0 3h-.8s.03-2.77 0-2.8zm4-1.6c.8 0 1.3.3 1.6.7l-.5.5c-.3-.4-.6-.5-1.1-.5c-.8 0-1.4.6-1.4 1.5c0 .9.6 1.6 1.4 1.6c.5 0 .8-.2 1.1-.5l.5.5c-.3.4-.8.7-1.6.7c-1.3 0-2.2-1-2.2-2.3c0-1.3.9-2.2 2.2-2.2zm2.4.1h.8s.02.63 0 .6c.4-.4.9-.7 1.4-.7v.8h-.2c-.4 0-1 .3-1.2.6c.02-.01 0 3 0 3h-.8V2.8zm4.9-.1c1.3 0 2.1 1 2.1 2.3v.2h-3.4c0 .7.6 1.4 1.4 1.4c.5 0 1-.2 1.3-.6l.4.6c-.4.4-1.1.6-1.8.6c-1.3 0-2.2-.9-2.2-2.3c0-1.2.9-2.2 2.2-2.2zm-1.4 1.9h2.7c0-.6-.4-1.3-1.3-1.3c-.9 0-1.3.7-1.4 1.3zm7.1 2c-.3.4-.8.6-1.4.6c-.7 0-1.5-.5-1.5-1.4c0-1 .7-1.4 1.5-1.4c.6 0 1.1.1 1.4.5v-.7c0-.5-.4-.9-1.1-.9c-.5 0-.9.2-1.3.6l-.3-.5c.5-.5 1.1-.7 1.8-.7c.9 0 1.7.4 1.7 1.5v2.9h-.8v-.5zm0-1.2c-.2-.3-.7-.5-1.1-.5c-.6 0-1 .4-1 .9c0 .5.4.9 1 .9c.4 0 .9-.2 1.1-.5v-.8zm2 .5c.3.4.9.7 1.5.7c.6 0 .9-.3.9-.7c0-.4-.5-.5-1-.7c-.8-.1-1.6-.3-1.6-1.3c0-.7.6-1.2 1.6-1.2c.8 0 1.3.2 1.7.6l-.4.5c-.2-.3-.7-.5-1.3-.5c-.5 0-.9.2-.9.6c0 .4.5.5 1 .6c.8.2 1.7.4 1.7 1.4c0 .7-.6 1.3-1.8 1.3c-.7 0-1.3-.2-1.8-.7l.4-.6zm6-3.2c1.3 0 2.2 1 2.2 2.3c-.04 0 0 .2 0 .2h-3.5c.1.7.6 1.4 1.5 1.4c.5 0 1-.2 1.3-.6l.4.6c-.5.4-1.1.6-1.8.6c-1.3 0-2.2-.9-2.2-2.3c0-1.2.9-2.2 2.1-2.2zm-1.3 1.9h2.7c-.1-.6-.4-1.3-1.4-1.3c-.8 0-1.2.7-1.3 1.3z" stroke="none" fill="#88898a"/></g></svg>