<?xml version="1.0" standalone="no"?><!DOCTYPE svg PUBLIC "-//W3C//DTD SVG 1.1//EN" "http://www.w3.org/Graphics/SVG/1.1/DTD/svg11.dtd"><svg xmlns="http://www.w3.org/2000/svg" version="1.1" width="77px" height="15.9px" viewBox="0 -4 77 15.9" style="top:-4px"><desc>6,386</desc><defs/><g id="Polygon110894"><path d="m57.3 1c.8 0 1.3.3 1.7.8l-.3.4c-.3-.4-.7-.7-1.4-.7c-1.3 0-1.7 1.3-1.7 2.6v.3c.2-.4.9-1 1.7-1c1.1 0 2 .6 2 1.9c0 1-.8 1.9-2.1 1.9c-1.6 0-2.2-1.5-2.2-3.1c0-1.5.7-3.1 2.3-3.1zm-.1 2.9c-.6 0-1.3.4-1.6 1c.1.8.5 1.9 1.6 1.9c1.1 0 1.5-.8 1.5-1.5c0-1-.6-1.4-1.5-1.4zM60.3 8c.3-.2.5-.6.5-.8h-.1c-.2 0-.3-.2-.3-.4c0-.2.1-.4.4-.4c.2 0 .4.2.4.6c0 .5-.3 1-.6 1.2l-.3-.2zm2.1-2.1c.3.5.9.9 1.7.9c.9 0 1.5-.5 1.5-1.3c0-.9-.7-1.2-1.6-1.2h-.6v-.5h.6c.8 0 1.5-.4 1.5-1.2c0-.7-.7-1.1-1.4-1.1c-.7 0-1.2.3-1.7.7l-.3-.3c.4-.5 1.1-.9 2-.9c1 0 1.9.6 1.9 1.6c0 .9-.8 1.3-1.3 1.4c.6.1 1.4.5 1.4 1.5c0 1-.7 1.7-2 1.7c-1 0-1.7-.4-2.1-1l.4-.3zM68.7 4c-.7-.2-1.4-.6-1.4-1.4c0-1.1 1-1.6 1.9-1.6c1 0 2 .5 2 1.6c0 .8-.7 1.2-1.4 1.4c.7.2 1.5.8 1.5 1.6c0 1-.9 1.6-2.1 1.6c-1.1 0-2-.6-2-1.6c0-.8.7-1.4 1.5-1.6zm.5-2.5c-.8 0-1.4.4-1.4 1.1c0 .9 1.1 1.1 1.4 1.2c.4-.1 1.4-.3 1.4-1.2c0-.7-.6-1.1-1.4-1.1zm0 2.7c-.4.1-1.5.5-1.5 1.4c0 .7.7 1.2 1.5 1.2c.8 0 1.5-.5 1.5-1.2c0-.9-1.1-1.3-1.5-1.4zM74.6 1c.8 0 1.3.3 1.6.8l-.3.4c-.3-.4-.6-.7-1.3-.7c-1.3 0-1.8 1.3-1.8 2.6v.3c.3-.4 1-1 1.8-1c1.1 0 1.9.6 1.9 1.9c0 1-.7 1.9-2 1.9c-1.6 0-2.2-1.5-2.2-3.1c0-1.5.6-3.1 2.3-3.1zm-.1 2.9c-.7 0-1.3.4-1.6 1c0 .8.5 1.9 1.6 1.9c1 0 1.5-.8 1.5-1.5c0-1-.6-1.4-1.5-1.4z" stroke="none" fill="#000"/></g></svg>