<?xml version="1.0" standalone="no"?><!DOCTYPE svg PUBLIC "-//W3C//DTD SVG 1.1//EN" "http://www.w3.org/Graphics/SVG/1.1/DTD/svg11.dtd"><svg xmlns="http://www.w3.org/2000/svg" version="1.1" width="51.4px" height="16.9px" viewBox="0 -4 51.4 16.9" style="top:-4px"><desc>Agent 1</desc><defs/><g id="Polygon44273"><path d="m.7 1.1h.9v5.2h2.7v.8H.7v-6zm4 3.8c0-1.2.9-2.2 2.2-2.2c1.4 0 2.2 1 2.2 2.2c0 1.3-.8 2.3-2.2 2.3c-1.3 0-2.2-1-2.2-2.3zm3.6 0c0-.8-.5-1.5-1.4-1.5c-.8 0-1.3.7-1.3 1.5c0 .9.5 1.6 1.3 1.6c.9 0 1.4-.7 1.4-1.6zm1.8-2.1h.8s-.02.63 0 .6c.3-.4.8-.7 1.4-.7v.8h-.3c-.4 0-.9.3-1.1.6c-.02-.01 0 3 0 3h-.8V2.8zm4.8-.1c1.3 0 2.1 1 2.1 2.3c.05 0 0 .2 0 .2h-3.4c.1.7.6 1.4 1.5 1.4c.4 0 .9-.2 1.3-.6l.3.6c-.4.4-1 .6-1.7.6c-1.3 0-2.2-.9-2.2-2.3c0-1.2.9-2.2 2.1-2.2zm-1.3 1.9h2.7c-.1-.6-.5-1.3-1.4-1.3c-.8 0-1.3.7-1.3 1.3zm9.7-.4c0-.5-.3-.8-.8-.8c-.4 0-.9.3-1.1.6c.02 0 0 3.1 0 3.1h-.8V4.2c0-.5-.2-.8-.8-.8c-.4 0-.8.3-1 .6c-.02 0 0 3.1 0 3.1h-.8V2.8h.8s-.02.57 0 .6c.2-.3.7-.7 1.4-.7c.6 0 1 .3 1.2.8c.2-.4.8-.8 1.4-.8c.8 0 1.3.4 1.3 1.3c-.03-.03 0 3.1 0 3.1h-.8s-.04-2.89 0-2.9z" stroke="none" fill="#3797ef"/></g></svg>