<?xml version="1.0" standalone="no"?><!DOCTYPE svg PUBLIC "-//W3C//DTD SVG 1.1//EN" "http://www.w3.org/Graphics/SVG/1.1/DTD/svg11.dtd"><svg xmlns="http://www.w3.org/2000/svg" version="1.1" width="343px" height="29.9px" viewBox="0 -7 343 29.9" style="top:-7px"><desc>08</desc><defs/><g id="Polygon61904"><path d="m5.2 1.9c3.1 0 4.3 3 4.3 5.8c0 2.8-1.2 5.8-4.3 5.8c-3.1 0-4.4-3-4.4-5.8c0-2.8 1.3-5.8 4.4-5.8zm0 1.5c-2 0-2.7 2.1-2.7 4.3c0 2.2.7 4.3 2.7 4.3c1.9 0 2.6-2.1 2.6-4.3c0-2.2-.7-4.3-2.6-4.3zm8.5 4.1c-1.3-.4-2.4-1.2-2.4-2.7c0-2 2-2.9 4-2.9c1.9 0 4 .9 4 2.9c0 1.5-1.2 2.3-2.5 2.7c1.4.4 2.6 1.5 2.6 2.9c0 2-1.9 3.1-4.1 3.1c-2.3 0-4.2-1.1-4.2-3.1c0-1.4 1.2-2.5 2.6-2.9zm1.6-4.1C14 3.4 13 4 13 5.1c0 1.2 1.6 1.6 2.3 1.7c.7-.1 2.3-.5 2.3-1.7c0-1.1-1.1-1.7-2.3-1.7zm0 4.9c-.7 0-2.5.6-2.5 1.9c0 1.1 1.1 1.8 2.5 1.8c1.3 0 2.4-.7 2.4-1.8c0-1.3-1.7-1.9-2.4-1.9z" stroke="none" fill="#88898a"/></g></svg>