<?xml version="1.0" standalone="no"?><!DOCTYPE svg PUBLIC "-//W3C//DTD SVG 1.1//EN" "http://www.w3.org/Graphics/SVG/1.1/DTD/svg11.dtd"><svg xmlns="http://www.w3.org/2000/svg" version="1.1" width="88px" height="16.9px" viewBox="0 -4 88 16.9" style="top:-4px"><desc>PAGE</desc><defs/><g id="Polygon276300"><path d="m.7 1.1s2.5.01 2.5 0c1.2 0 1.9.9 1.9 1.9c0 1-.7 1.8-1.9 1.8H1.6v2.3h-.9v-6zm2.4.8H1.6v2.1h1.5c.6 0 1.1-.4 1.1-1c0-.7-.5-1.1-1.1-1.1zm6 4h-3l-.5 1.2h-1l2.4-6h1.2l2.3 6h-1l-.4-1.2zm-2.7-.8h2.4L7.6 1.9l-1.2 3.2zM13.7 1c1.1 0 1.9.5 2.4 1.2l-.7.4c-.4-.4-1-.8-1.7-.8c-1.2 0-2.2 1-2.2 2.3c0 1.4 1 2.3 2.2 2.3c.7 0 1.2-.3 1.5-.6c.03.03 0-1 0-1h-1.9v-.8h2.8s.03 2.17 0 2.2c-.5.6-1.4 1-2.4 1c-1.7 0-3.1-1.2-3.1-3.1C10.6 2.2 12 1 13.7 1zm3.5.1h4v.8h-3.1v1.8h3.1v.7h-3.1v1.9h3.1v.8h-4v-6z" stroke="none" fill="#3797ef"/></g></svg>