<?xml version="1.0" standalone="no"?><!DOCTYPE svg PUBLIC "-//W3C//DTD SVG 1.1//EN" "http://www.w3.org/Graphics/SVG/1.1/DTD/svg11.dtd"><svg xmlns="http://www.w3.org/2000/svg" version="1.1" width="91.5px" height="249.9px" viewBox="0 -6 91.5 249.9" style="top:-6px"><desc>Annual Rent 000,000 000,000 000,000 000,000 000,000 000,000 000,000</desc><defs/><g id="Polygon293130"><path d="m5.1 235.1c-.03-.03 0 1.4 0 1.4h-.8s.04-1.41 0-1.4c-1.6-.1-2.8-.8-3.5-1.7l.6-.7c.6.8 1.6 1.5 2.9 1.5v-4.4c-1.6-.5-3.2-1-3.2-2.8c0-1.7 1.4-2.8 3.2-2.9c.04.05 0-1.4 0-1.4h.8s-.03 1.46 0 1.5c1.3.1 2.3.6 3.1 1.4l-.6.7c-.7-.8-1.5-1.2-2.5-1.3v4c1.6.5 3.3 1 3.3 3.1c0 1.3-.8 2.8-3.3 3zm-.8-6.3V225c-1.3 0-2.3.8-2.3 1.9c0 1.1 1.1 1.5 2.3 1.9zm3.1 3.4c0-1.4-1.1-1.8-2.3-2.2v4.2c1.8-.1 2.3-1.2 2.3-2zm6.6-8.1c2.8 0 3.9 3 3.9 5.5c0 2.5-1.1 5.5-3.9 5.5c-2.9 0-4-3-4-5.5c0-2.5 1.1-5.5 4-5.5zm0 .9c-2.3 0-3 2.4-3 4.6c0 2.2.7 4.7 3 4.7c2.2 0 2.9-2.5 2.9-4.7c0-2.2-.7-4.6-2.9-4.6zm9.5-.9c2.8 0 3.9 3 3.9 5.5c0 2.5-1.1 5.5-3.9 5.5c-2.9 0-4-3-4-5.5c0-2.5 1.1-5.5 4-5.5zm0 .9c-2.3 0-3 2.4-3 4.6c0 2.2.7 4.7 3 4.7c2.2 0 2.9-2.5 2.9-4.7c0-2.2-.7-4.6-2.9-4.6zm9.5-.9c2.8 0 3.9 3 3.9 5.5c0 2.5-1.1 5.5-3.9 5.5c-2.9 0-4-3-4-5.5c0-2.5 1.1-5.5 4-5.5zm0 .9c-2.3 0-3 2.4-3 4.6c0 2.2.7 4.7 3 4.7c2.2 0 2.9-2.5 2.9-4.7c0-2.2-.7-4.6-2.9-4.6zm5 11.5c.5-.4.8-1 .9-1.5h-.2c-.4 0-.6-.3-.6-.7c0-.3.3-.6.7-.6c.4 0 .8.3.8 1c0 .9-.6 1.7-1.2 2.1l-.4-.3zm7.2-12.4c2.8 0 3.9 3 3.9 5.5c0 2.5-1.1 5.5-3.9 5.5c-2.9 0-3.9-3-3.9-5.5c0-2.5 1-5.5 3.9-5.5zm0 .9c-2.2 0-3 2.4-3 4.6c0 2.2.8 4.7 3 4.7c2.2 0 2.9-2.5 2.9-4.7c0-2.2-.7-4.6-2.9-4.6zm9.5-.9c2.8 0 3.9 3 3.9 5.5c0 2.5-1.1 5.5-3.9 5.5c-2.9 0-3.9-3-3.9-5.5c0-2.5 1-5.5 3.9-5.5zm0 .9c-2.2 0-3 2.4-3 4.6c0 2.2.8 4.7 3 4.7c2.2 0 2.9-2.5 2.9-4.7c0-2.2-.7-4.6-2.9-4.6zm9.5-.9c2.8 0 3.9 3 3.9 5.5c0 2.5-1.1 5.5-3.9 5.5c-2.9 0-3.9-3-3.9-5.5c0-2.5 1-5.5 3.9-5.5zm0 .9c-2.2 0-3 2.4-3 4.6c0 2.2.8 4.7 3 4.7c2.2 0 2.9-2.5 2.9-4.7c0-2.2-.7-4.6-2.9-4.6z" stroke="none" fill="#242423"/></g><g id="Polygon293129"><path d="m5.1 203.3c-.03.01 0 1.4 0 1.4h-.8s.04-1.38 0-1.4c-1.6-.1-2.8-.7-3.5-1.7l.6-.6c.6.7 1.6 1.4 2.9 1.5V198c-1.6-.4-3.2-.9-3.2-2.8c0-1.7 1.4-2.7 3.2-2.8c.04-.02 0-1.5 0-1.5h.8s-.03 1.5 0 1.5c1.3.1 2.3.6 3.1 1.5l-.6.6c-.7-.8-1.5-1.2-2.5-1.3v4c1.6.5 3.3 1.1 3.3 3.1c0 1.3-.8 2.9-3.3 3zm-.8-6.3v-3.8c-1.3.1-2.3.8-2.3 1.9c0 1.2 1.1 1.6 2.3 1.9zm3.1 3.4c0-1.3-1.1-1.8-2.3-2.2v4.3c1.8-.2 2.3-1.3 2.3-2.1zm6.6-8c2.8 0 3.9 2.9 3.9 5.4c0 2.6-1.1 5.5-3.9 5.5c-2.9 0-4-2.9-4-5.5c0-2.5 1.1-5.4 4-5.4zm0 .8c-2.3 0-3 2.5-3 4.6c0 2.2.7 4.7 3 4.7c2.2 0 2.9-2.5 2.9-4.7c0-2.1-.7-4.6-2.9-4.6zm9.5-.8c2.8 0 3.9 2.9 3.9 5.4c0 2.6-1.1 5.5-3.9 5.5c-2.9 0-4-2.9-4-5.5c0-2.5 1.1-5.4 4-5.4zm0 .8c-2.3 0-3 2.5-3 4.6c0 2.2.7 4.7 3 4.7c2.2 0 2.9-2.5 2.9-4.7c0-2.1-.7-4.6-2.9-4.6zm9.5-.8c2.8 0 3.9 2.9 3.9 5.4c0 2.6-1.1 5.5-3.9 5.5c-2.9 0-4-2.9-4-5.5c0-2.5 1.1-5.4 4-5.4zm0 .8c-2.3 0-3 2.5-3 4.6c0 2.2.7 4.7 3 4.7c2.2 0 2.9-2.5 2.9-4.7c0-2.1-.7-4.6-2.9-4.6zm5 11.5c.5-.4.8-1 .9-1.5h-.2c-.4 0-.6-.2-.6-.6c0-.4.3-.7.7-.7c.4 0 .8.4.8 1c0 .9-.6 1.7-1.2 2.2l-.4-.4zm7.2-12.3c2.8 0 3.9 2.9 3.9 5.4c0 2.6-1.1 5.5-3.9 5.5c-2.9 0-3.9-2.9-3.9-5.5c0-2.5 1-5.4 3.9-5.4zm0 .8c-2.2 0-3 2.5-3 4.6c0 2.2.8 4.7 3 4.7c2.2 0 2.9-2.5 2.9-4.7c0-2.1-.7-4.6-2.9-4.6zm9.5-.8c2.8 0 3.9 2.9 3.9 5.4c0 2.6-1.1 5.5-3.9 5.5c-2.9 0-3.9-2.9-3.9-5.5c0-2.5 1-5.4 3.9-5.4zm0 .8c-2.2 0-3 2.5-3 4.6c0 2.2.8 4.7 3 4.7c2.2 0 2.9-2.5 2.9-4.7c0-2.1-.7-4.6-2.9-4.6zm9.5-.8c2.8 0 3.9 2.9 3.9 5.4c0 2.6-1.1 5.5-3.9 5.5c-2.9 0-3.9-2.9-3.9-5.5c0-2.5 1-5.4 3.9-5.4zm0 .8c-2.2 0-3 2.5-3 4.6c0 2.2.8 4.7 3 4.7c2.2 0 2.9-2.5 2.9-4.7c0-2.1-.7-4.6-2.9-4.6z" stroke="none" fill="#242423"/></g><g id="Polygon293128"><path d="m5.1 171.5c-.03.04 0 1.5 0 1.5h-.8s.04-1.44 0-1.4c-1.6-.1-2.8-.8-3.5-1.7l.6-.7c.6.7 1.6 1.4 2.9 1.5v-4.4c-1.6-.5-3.2-1-3.2-2.9c0-1.6 1.4-2.7 3.2-2.8c.04.02 0-1.4 0-1.4h.8s-.03 1.44 0 1.4c1.3.1 2.3.7 3.1 1.5l-.6.7c-.7-.8-1.5-1.2-2.5-1.3v4c1.6.4 3.3 1 3.3 3.1c0 1.2-.8 2.8-3.3 2.9zm-.8-6.2v-3.9c-1.3.1-2.3.9-2.3 2c0 1.1 1.1 1.5 2.3 1.9zm3.1 3.3c0-1.3-1.1-1.8-2.3-2.1v4.2c1.8-.1 2.3-1.2 2.3-2.1zm6.6-8c2.8 0 3.9 3 3.9 5.5c0 2.5-1.1 5.5-3.9 5.5c-2.9 0-4-3-4-5.5c0-2.5 1.1-5.5 4-5.5zm0 .8c-2.3 0-3 2.5-3 4.7c0 2.2.7 4.6 3 4.6c2.2 0 2.9-2.4 2.9-4.6c0-2.2-.7-4.7-2.9-4.7zm9.5-.8c2.8 0 3.9 3 3.9 5.5c0 2.5-1.1 5.5-3.9 5.5c-2.9 0-4-3-4-5.5c0-2.5 1.1-5.5 4-5.5zm0 .8c-2.3 0-3 2.5-3 4.7c0 2.2.7 4.6 3 4.6c2.2 0 2.9-2.4 2.9-4.6c0-2.2-.7-4.7-2.9-4.7zm9.5-.8c2.8 0 3.9 3 3.9 5.5c0 2.5-1.1 5.5-3.9 5.5c-2.9 0-4-3-4-5.5c0-2.5 1.1-5.5 4-5.5zm0 .8c-2.3 0-3 2.5-3 4.7c0 2.2.7 4.6 3 4.6c2.2 0 2.9-2.4 2.9-4.6c0-2.2-.7-4.7-2.9-4.7zm5 11.5c.5-.3.8-.9.9-1.4h-.2c-.4 0-.6-.3-.6-.7c0-.4.3-.7.7-.7c.4 0 .8.4.8 1c0 .9-.6 1.8-1.2 2.2l-.4-.4zm7.2-12.3c2.8 0 3.9 3 3.9 5.5c0 2.5-1.1 5.5-3.9 5.5c-2.9 0-3.9-3-3.9-5.5c0-2.5 1-5.5 3.9-5.5zm0 .8c-2.2 0-3 2.5-3 4.7c0 2.2.8 4.6 3 4.6c2.2 0 2.9-2.4 2.9-4.6c0-2.2-.7-4.7-2.9-4.7zm9.5-.8c2.8 0 3.9 3 3.9 5.5c0 2.5-1.1 5.5-3.9 5.5c-2.9 0-3.9-3-3.9-5.5c0-2.5 1-5.5 3.9-5.5zm0 .8c-2.2 0-3 2.5-3 4.7c0 2.2.8 4.6 3 4.6c2.2 0 2.9-2.4 2.9-4.6c0-2.2-.7-4.7-2.9-4.7zm9.5-.8c2.8 0 3.9 3 3.9 5.5c0 2.5-1.1 5.5-3.9 5.5c-2.9 0-3.9-3-3.9-5.5c0-2.5 1-5.5 3.9-5.5zm0 .8c-2.2 0-3 2.5-3 4.7c0 2.2.8 4.6 3 4.6c2.2 0 2.9-2.4 2.9-4.6c0-2.2-.7-4.7-2.9-4.7z" stroke="none" fill="#242423"/></g><g id="Polygon293127"><path d="m5.1 139.8c-.03-.02 0 1.4 0 1.4h-.8s.04-1.4 0-1.4c-1.6-.1-2.8-.8-3.5-1.7l.6-.7c.6.8 1.6 1.5 2.9 1.6v-4.5c-1.6-.5-3.2-1-3.2-2.8c0-1.7 1.4-2.8 3.2-2.8c.04-.05 0-1.5 0-1.5h.8s-.03 1.47 0 1.5c1.3.1 2.3.6 3.1 1.4l-.6.7c-.7-.8-1.5-1.2-2.5-1.3v4c1.6.5 3.3 1 3.3 3.1c0 1.3-.8 2.8-3.3 3zm-.8-6.3v-3.8c-1.3 0-2.3.8-2.3 1.9c0 1.1 1.1 1.5 2.3 1.9zm3.1 3.4c0-1.4-1.1-1.8-2.3-2.2v4.2c1.8-.1 2.3-1.2 2.3-2zm6.6-8c2.8 0 3.9 2.9 3.9 5.4c0 2.5-1.1 5.5-3.9 5.5c-2.9 0-4-3-4-5.5c0-2.5 1.1-5.4 4-5.4zm0 .8c-2.3 0-3 2.4-3 4.6c0 2.2.7 4.7 3 4.7c2.2 0 2.9-2.5 2.9-4.7c0-2.2-.7-4.6-2.9-4.6zm9.5-.8c2.8 0 3.9 2.9 3.9 5.4c0 2.5-1.1 5.5-3.9 5.5c-2.9 0-4-3-4-5.5c0-2.5 1.1-5.4 4-5.4zm0 .8c-2.3 0-3 2.4-3 4.6c0 2.2.7 4.7 3 4.7c2.2 0 2.9-2.5 2.9-4.7c0-2.2-.7-4.6-2.9-4.6zm9.5-.8c2.8 0 3.9 2.9 3.9 5.4c0 2.5-1.1 5.5-3.9 5.5c-2.9 0-4-3-4-5.5c0-2.5 1.1-5.4 4-5.4zm0 .8c-2.3 0-3 2.4-3 4.6c0 2.2.7 4.7 3 4.7c2.2 0 2.9-2.5 2.9-4.7c0-2.2-.7-4.6-2.9-4.6zm5 11.5c.5-.4.8-1 .9-1.5h-.2c-.4 0-.6-.3-.6-.7c0-.3.3-.6.7-.6c.4 0 .8.3.8 1c0 .9-.6 1.7-1.2 2.1l-.4-.3zm7.2-12.3c2.8 0 3.9 2.9 3.9 5.4c0 2.5-1.1 5.5-3.9 5.5c-2.9 0-3.9-3-3.9-5.5c0-2.5 1-5.4 3.9-5.4zm0 .8c-2.2 0-3 2.4-3 4.6c0 2.2.8 4.7 3 4.7c2.2 0 2.9-2.5 2.9-4.7c0-2.2-.7-4.6-2.9-4.6zm9.5-.8c2.8 0 3.9 2.9 3.9 5.4c0 2.5-1.1 5.5-3.9 5.5c-2.9 0-3.9-3-3.9-5.5c0-2.5 1-5.4 3.9-5.4zm0 .8c-2.2 0-3 2.4-3 4.6c0 2.2.8 4.7 3 4.7c2.2 0 2.9-2.5 2.9-4.7c0-2.2-.7-4.6-2.9-4.6zm9.5-.8c2.8 0 3.9 2.9 3.9 5.4c0 2.5-1.1 5.5-3.9 5.5c-2.9 0-3.9-3-3.9-5.5c0-2.5 1-5.4 3.9-5.4zm0 .8c-2.2 0-3 2.4-3 4.6c0 2.2.8 4.7 3 4.7c2.2 0 2.9-2.5 2.9-4.7c0-2.2-.7-4.6-2.9-4.6z" stroke="none" fill="#242423"/></g><g id="Polygon293126"><path d="m5.1 108c-.03.01 0 1.4 0 1.4h-.8s.04-1.37 0-1.4c-1.6 0-2.8-.7-3.5-1.7l.6-.6c.6.7 1.6 1.4 2.9 1.5v-4.5c-1.6-.4-3.2-.9-3.2-2.8c0-1.7 1.4-2.7 3.2-2.8c.04-.01 0-1.5 0-1.5h.8s-.03 1.51 0 1.5c1.3.1 2.3.6 3.1 1.5l-.6.6c-.7-.7-1.5-1.2-2.5-1.3v4c1.6.5 3.3 1.1 3.3 3.1c0 1.3-.8 2.9-3.3 3zm-.8-6.3v-3.8c-1.3.1-2.3.9-2.3 2c0 1.1 1.1 1.5 2.3 1.8zm3.1 3.4c0-1.3-1.1-1.8-2.3-2.2v4.3c1.8-.2 2.3-1.3 2.3-2.1zm6.6-8c2.8 0 3.9 2.9 3.9 5.5c0 2.5-1.1 5.4-3.9 5.4c-2.9 0-4-2.9-4-5.4c0-2.6 1.1-5.5 4-5.5zm0 .8c-2.3 0-3 2.5-3 4.7c0 2.1.7 4.6 3 4.6c2.2 0 2.9-2.5 2.9-4.6c0-2.2-.7-4.7-2.9-4.7zm9.5-.8c2.8 0 3.9 2.9 3.9 5.5c0 2.5-1.1 5.4-3.9 5.4c-2.9 0-4-2.9-4-5.4c0-2.6 1.1-5.5 4-5.5zm0 .8c-2.3 0-3 2.5-3 4.7c0 2.1.7 4.6 3 4.6c2.2 0 2.9-2.5 2.9-4.6c0-2.2-.7-4.7-2.9-4.7zm9.5-.8c2.8 0 3.9 2.9 3.9 5.5c0 2.5-1.1 5.4-3.9 5.4c-2.9 0-4-2.9-4-5.4c0-2.6 1.1-5.5 4-5.5zm0 .8c-2.3 0-3 2.5-3 4.7c0 2.1.7 4.6 3 4.6c2.2 0 2.9-2.5 2.9-4.6c0-2.2-.7-4.7-2.9-4.7zm5 11.5c.5-.4.8-1 .9-1.5l-.2.1c-.4 0-.6-.3-.6-.7c0-.4.3-.7.7-.7c.4 0 .8.4.8 1c0 .9-.6 1.7-1.2 2.2l-.4-.4zm7.2-12.3c2.8 0 3.9 2.9 3.9 5.5c0 2.5-1.1 5.4-3.9 5.4c-2.9 0-3.9-2.9-3.9-5.4c0-2.6 1-5.5 3.9-5.5zm0 .8c-2.2 0-3 2.5-3 4.7c0 2.1.8 4.6 3 4.6c2.2 0 2.9-2.5 2.9-4.6c0-2.2-.7-4.7-2.9-4.7zm9.5-.8c2.8 0 3.9 2.9 3.9 5.5c0 2.5-1.1 5.4-3.9 5.4c-2.9 0-3.9-2.9-3.9-5.4c0-2.6 1-5.5 3.9-5.5zm0 .8c-2.2 0-3 2.5-3 4.7c0 2.1.8 4.6 3 4.6c2.2 0 2.9-2.5 2.9-4.6c0-2.2-.7-4.7-2.9-4.7zm9.5-.8c2.8 0 3.9 2.9 3.9 5.5c0 2.5-1.1 5.4-3.9 5.4c-2.9 0-3.9-2.9-3.9-5.4c0-2.6 1-5.5 3.9-5.5zm0 .8c-2.2 0-3 2.5-3 4.7c0 2.1.8 4.6 3 4.6c2.2 0 2.9-2.5 2.9-4.6c0-2.2-.7-4.7-2.9-4.7z" stroke="none" fill="#242423"/></g><g id="Polygon293125"><path d="m5.1 76.3c-.03-.05 0 1.4 0 1.4h-.8s.04-1.43 0-1.4c-1.6-.1-2.8-.8-3.5-1.7l.6-.7c.6.7 1.6 1.4 2.9 1.5V71c-1.6-.5-3.2-1-3.2-2.9c0-1.6 1.4-2.7 3.2-2.8c.04.03 0-1.4 0-1.4h.8s-.03 1.44 0 1.4c1.3.1 2.3.7 3.1 1.5l-.6.7c-.7-.8-1.5-1.2-2.5-1.3v4c1.6.4 3.3 1 3.3 3.1c0 1.3-.8 2.8-3.3 3zM4.3 70v-3.9c-1.3.1-2.3.9-2.3 2c0 1.1 1.1 1.5 2.3 1.9zm3.1 3.3c0-1.3-1.1-1.8-2.3-2.1v4.2c1.8-.1 2.3-1.2 2.3-2.1zm6.6-8c2.8 0 3.9 3 3.9 5.5c0 2.5-1.1 5.5-3.9 5.5c-2.9 0-4-3-4-5.5c0-2.5 1.1-5.5 4-5.5zm0 .8c-2.3 0-3 2.5-3 4.7c0 2.2.7 4.6 3 4.6c2.2 0 2.9-2.4 2.9-4.6c0-2.2-.7-4.7-2.9-4.7zm9.5-.8c2.8 0 3.9 3 3.9 5.5c0 2.5-1.1 5.5-3.9 5.5c-2.9 0-4-3-4-5.5c0-2.5 1.1-5.5 4-5.5zm0 .8c-2.3 0-3 2.5-3 4.7c0 2.2.7 4.6 3 4.6c2.2 0 2.9-2.4 2.9-4.6c0-2.2-.7-4.7-2.9-4.7zm9.5-.8c2.8 0 3.9 3 3.9 5.5c0 2.5-1.1 5.5-3.9 5.5c-2.9 0-4-3-4-5.5c0-2.5 1.1-5.5 4-5.5zm0 .8c-2.3 0-3 2.5-3 4.7c0 2.2.7 4.6 3 4.6c2.2 0 2.9-2.4 2.9-4.6c0-2.2-.7-4.7-2.9-4.7zm5 11.5c.5-.3.8-.9.9-1.4h-.2c-.4 0-.6-.3-.6-.7c0-.3.3-.7.7-.7c.4 0 .8.4.8 1.1c0 .8-.6 1.7-1.2 2.1l-.4-.4zm7.2-12.3c2.8 0 3.9 3 3.9 5.5c0 2.5-1.1 5.5-3.9 5.5c-2.9 0-3.9-3-3.9-5.5c0-2.5 1-5.5 3.9-5.5zm0 .8c-2.2 0-3 2.5-3 4.7c0 2.2.8 4.6 3 4.6c2.2 0 2.9-2.4 2.9-4.6c0-2.2-.7-4.7-2.9-4.7zm9.5-.8c2.8 0 3.9 3 3.9 5.5c0 2.5-1.1 5.5-3.9 5.5c-2.9 0-3.9-3-3.9-5.5c0-2.5 1-5.5 3.9-5.5zm0 .8c-2.2 0-3 2.5-3 4.7c0 2.2.8 4.6 3 4.6c2.2 0 2.9-2.4 2.9-4.6c0-2.2-.7-4.7-2.9-4.7zm9.5-.8c2.8 0 3.9 3 3.9 5.5c0 2.5-1.1 5.5-3.9 5.5c-2.9 0-3.9-3-3.9-5.5c0-2.5 1-5.5 3.9-5.5zm0 .8c-2.2 0-3 2.5-3 4.7c0 2.2.8 4.6 3 4.6c2.2 0 2.9-2.4 2.9-4.6c0-2.2-.7-4.7-2.9-4.7z" stroke="none" fill="#242423"/></g><g id="Polygon293124"><path d="m5.4 44.5v1.4H4.3s-.03-1.41 0-1.4c-1.7-.1-2.9-.8-3.7-1.7l.9-1.2c.6.7 1.6 1.3 2.8 1.4v-3.4c-1.6-.4-3.3-1-3.3-3c0-1.7 1.3-2.9 3.3-3c-.03-.02 0-1.5 0-1.5h1.1v1.5c1.3.1 2.4.6 3.2 1.4l-1 1.2c-.6-.6-1.4-1-2.2-1.1v3c1.7.5 3.4 1.1 3.4 3.2c0 1.5-1 3-3.4 3.2zm-1.1-6.7V35c-1 .1-1.7.6-1.7 1.5c0 .7.7 1.1 1.7 1.3zm2.9 3.7c0-1-.8-1.3-1.8-1.6v3.1c1.3-.1 1.8-.9 1.8-1.5zm7-7.9c3 0 4.2 2.8 4.2 5.4c0 2.6-1.2 5.5-4.2 5.5c-2.9 0-4.1-2.9-4.1-5.5c0-2.6 1.2-5.4 4.1-5.4zm0 1.4c-1.8 0-2.5 2-2.5 4c0 2.1.7 4.1 2.5 4.1c1.9 0 2.6-2 2.6-4.1c0-2-.7-4-2.6-4zm9.6-1.4c3 0 4.2 2.8 4.2 5.4c0 2.6-1.2 5.5-4.2 5.5c-2.9 0-4.1-2.9-4.1-5.5c0-2.6 1.2-5.4 4.1-5.4zm0 1.4c-1.9 0-2.5 2-2.5 4c0 2.1.6 4.1 2.5 4.1c1.9 0 2.5-2 2.5-4.1c0-2-.6-4-2.5-4zm9.6-1.4c3 0 4.2 2.8 4.2 5.4c0 2.6-1.2 5.5-4.2 5.5c-2.9 0-4.1-2.9-4.1-5.5c0-2.6 1.2-5.4 4.1-5.4zm0 1.4c-1.9 0-2.5 2-2.5 4c0 2.1.6 4.1 2.5 4.1c1.9 0 2.5-2 2.5-4.1c0-2-.6-4-2.5-4zm5.2 10.8c.5-.3 1-.9 1.1-1.5c-.1 0-.2.1-.3.1c-.5 0-.8-.4-.8-.9c0-.6.4-1 .9-1c.6 0 1.2.5 1.2 1.3c0 1.1-.6 2-1.4 2.6l-.7-.6zm7.6-12.2c2.9 0 4.1 2.8 4.1 5.4c0 2.6-1.2 5.5-4.1 5.5c-3 0-4.2-2.9-4.2-5.5c0-2.6 1.2-5.4 4.2-5.4zm0 1.4c-1.9 0-2.5 2-2.5 4c0 2.1.6 4.1 2.5 4.1c1.9 0 2.5-2 2.5-4.1c0-2-.6-4-2.5-4zm9.6-1.4c2.9 0 4.1 2.8 4.1 5.4c0 2.6-1.2 5.5-4.1 5.5c-3 0-4.2-2.9-4.2-5.5c0-2.6 1.2-5.4 4.2-5.4zm0 1.4c-1.9 0-2.5 2-2.5 4c0 2.1.6 4.1 2.5 4.1c1.9 0 2.5-2 2.5-4.1c0-2-.6-4-2.5-4zm9.6-1.4c2.9 0 4.1 2.8 4.1 5.4c0 2.6-1.2 5.5-4.1 5.5c-3 0-4.2-2.9-4.2-5.5c0-2.6 1.2-5.4 4.2-5.4zm0 1.4c-1.9 0-2.6 2-2.6 4c0 2.1.7 4.1 2.6 4.1c1.8 0 2.5-2 2.5-4.1c0-2-.7-4-2.5-4z" stroke="none" fill="#242423"/></g><g id="Polygon293123"><path d="m7.9 10.4H2.7l-.9 2.1H.1L4.3 2h2l4.2 10.5H8.7l-.8-2.1zM3.1 8.9h4.3L5.3 3.3l-2.2 5.6zm13.6-1.3c0-1.2-.6-1.6-1.6-1.6c-.9 0-1.7.5-2.1 1.1v5.4h-1.4V4.9h1.4s-.01 1.05 0 1.1c.5-.7 1.5-1.3 2.7-1.3c1.6 0 2.5.8 2.5 2.5c-.03-.04 0 5.3 0 5.3h-1.5s.04-4.86 0-4.9zm8.8 0c0-1.2-.7-1.6-1.7-1.6c-.9 0-1.7.5-2.1 1.1v5.4h-1.4V4.9h1.4s.01 1.05 0 1.1c.5-.7 1.5-1.3 2.7-1.3c1.6 0 2.5.8 2.5 2.5v5.3h-1.4s-.04-4.86 0-4.9zm8.7 3.9c-.6.6-1.6 1.2-2.8 1.2c-1.6 0-2.4-.8-2.4-2.4V4.9h1.4s.03 4.92 0 4.9c0 1.3.7 1.7 1.6 1.7c.9 0 1.8-.5 2.2-1.1c-.02-.01 0-5.5 0-5.5h1.4v7.6h-1.4s-.02-1 0-1zm8.3.2c-.7.7-1.5 1-2.6 1c-1.2 0-2.6-.8-2.6-2.5c0-1.8 1.4-2.5 2.6-2.5c1.1 0 2 .3 2.6 1V7.4c0-.9-.8-1.5-1.9-1.5c-.9 0-1.6.3-2.3 1l-.6-1c.8-.8 1.9-1.2 3.1-1.2c1.7 0 3.1.7 3.1 2.7c-.02-.03 0 5.1 0 5.1h-1.4s-.05-.79 0-.8zm0-2.1c-.5-.6-1.2-.9-2-.9c-1 0-1.8.6-1.8 1.5c0 .9.8 1.5 1.8 1.5c.8 0 1.5-.3 2-.8V9.6zM46 2h1.4v10.5H46V2zm11.1 6.5h-2v4h-1.6V2s4.49-.05 4.5 0c2 0 3.4 1.3 3.4 3.2c0 1.9-1.3 2.9-2.7 3.1c.05.01 2.8 4.2 2.8 4.2h-1.9l-2.5-4zm.7-5.1c-.02-.05-2.7 0-2.7 0v3.7s2.68-.03 2.7 0c1.1 0 1.9-.8 1.9-1.9c0-1.1-.8-1.8-1.9-1.8zM66 4.7c2.3 0 3.8 1.8 3.8 4.1c-.03.03 0 .4 0 .4c0 0-6.1-.02-6.1 0c.1 1.3 1.1 2.4 2.6 2.4c.8 0 1.7-.4 2.3-.9l.6.9c-.7.7-1.8 1.1-3 1.1c-2.3 0-4-1.6-4-4c0-2.2 1.6-4 3.8-4zm-2.3 3.4h4.7c-.1-1-.7-2.2-2.4-2.2c-1.5 0-2.2 1.2-2.3 2.2zm12.9-.5c0-1.2-.7-1.6-1.7-1.6c-.8 0-1.7.5-2.1 1.1c.03-.03 0 5.4 0 5.4h-1.4V4.9h1.4s.03 1.05 0 1.1c.5-.7 1.6-1.3 2.8-1.3c1.6 0 2.4.8 2.4 2.5v5.3h-1.4s-.02-4.86 0-4.9zm3.8 3.2V6.1h-1.3V4.9h1.3V2.8h1.4v2.1h1.6v1.2h-1.6s.04 4.43 0 4.4c0 .6.3 1 .8 1c.3 0 .6-.2.8-.3l.3 1c-.3.3-.7.5-1.5.5c-1.2 0-1.8-.6-1.8-1.9z" stroke="none" fill="#88898a"/></g></svg>