<?xml version="1.0" standalone="no"?><!DOCTYPE svg PUBLIC "-//W3C//DTD SVG 1.1//EN" "http://www.w3.org/Graphics/SVG/1.1/DTD/svg11.dtd"><svg xmlns="http://www.w3.org/2000/svg" version="1.1" width="167px" height="27.9px" viewBox="0 -4 167 27.9" style="top:-4px"><desc>Tony</desc><defs/><g id="Polygon321404"><path d="m2.6 13.5c1.3 0 2.1 1 2.1 2.3c-.03 0 0 .2 0 .2H1.2c.1.7.6 1.4 1.5 1.4c.5 0 1-.2 1.3-.6l.4.6c-.5.4-1.1.6-1.8.6c-1.3 0-2.2-.9-2.2-2.3c0-1.2.9-2.2 2.2-2.2zm-1.4 1.9h2.7c0-.6-.4-1.3-1.3-1.3c-.9 0-1.3.7-1.4 1.3zm9.7-.4c0-.5-.2-.8-.8-.8c-.4 0-.8.3-1.1.6c.04 0 0 3.1 0 3.1h-.8s.04-2.89 0-2.9c0-.5-.2-.8-.7-.8c-.5 0-.9.3-1.1.6v3.1h-.8v-4.3h.8v.6c.2-.3.8-.7 1.4-.7c.7 0 1.1.3 1.2.8c.2-.4.8-.8 1.5-.8c.8 0 1.2.4 1.2 1.3v3.1h-.8s-.02-2.89 0-2.9zm4.7 2.4c-.4.4-.9.6-1.5.6c-.7 0-1.5-.5-1.5-1.4c0-1 .8-1.4 1.5-1.4c.6 0 1.1.1 1.5.5v-.7c0-.5-.5-.9-1.1-.9c-.5 0-.9.2-1.3.6l-.3-.5c.4-.5 1-.7 1.7-.7c1 0 1.8.4 1.8 1.5c-.02-.02 0 2.9 0 2.9h-.8s-.03-.47 0-.5zm0-1.2c-.3-.3-.7-.5-1.1-.5c-.6 0-1 .4-1 .9c0 .5.4.9 1 .9c.4 0 .8-.2 1.1-.5v-.8zm1.9-3.9c0-.3.2-.5.5-.5c.3 0 .5.2.5.5c0 .3-.2.5-.5.5c-.3 0-.5-.2-.5-.5zm.1 1.3h.8v4.3h-.8v-4.3zm2-1.7h.8v6h-.8v-6zm5.2.3c1.7 0 2.9 1.2 2.9 2.8c0 1.4-.9 2.1-1.6 2.1c-.6 0-.8-.3-.9-.7c-.3.4-.8.7-1.4.7c-.8 0-1.4-.6-1.4-1.4c0-1.3 1.1-2.3 2.1-2.3c.6 0 1 .3 1.2.7c-.02-.01.1-.5.1-.5h.7s-.48 2.33-.5 2.3v.2c0 .3.2.5.4.5c.3 0 .9-.4.9-1.6c0-1.5-1-2.5-2.5-2.5c-1.7 0-3.2 1.5-3.2 3.2c0 1.4 1.1 2.5 2.6 2.5c.6 0 1.1-.2 1.6-.5l.2.3c-.6.3-1.2.5-1.9.5c-1.6 0-2.8-1.2-2.8-2.8c0-1.9 1.7-3.5 3.5-3.5zm.8 2.4c-.1-.2-.4-.6-.9-.6c-.9 0-1.5.8-1.5 1.6c0 .6.3 1 .9 1c.6 0 1-.4 1.2-.8l.3-1.2zm2.8-2.3c0-.3.3-.5.6-.5c.2 0 .5.2.5.5c0 .3-.3.5-.5.5c-.3 0-.6-.2-.6-.5zm1 6c0 .8-.5 1.4-1.4 1.4c-.2 0-.3 0-.5-.1l.1-.7c.1.1.2.1.3.1c.4 0 .7-.2.7-.7c-.04-.05 0-4.7 0-4.7h.8s-.03 4.65 0 4.7zm3.8-.9c-.3.4-.8.6-1.4.6c-.7 0-1.5-.5-1.5-1.4c0-1 .8-1.4 1.5-1.4c.6 0 1.1.1 1.4.5v-.7c0-.5-.4-.9-1-.9c-.5 0-.9.2-1.3.6l-.4-.5c.5-.5 1.1-.7 1.8-.7c1 0 1.8.4 1.8 1.5c-.05-.02 0 2.9 0 2.9h-.9s.05-.47 0-.5zm0-1.2c-.2-.3-.6-.5-1.1-.5c-.6 0-1 .4-1 .9c0 .5.4.9 1 .9c.5 0 .9-.2 1.1-.5v-.8zm7.3-1.2c0-.5-.2-.8-.7-.8c-.5 0-.9.3-1.1.6v3.1h-.8V15c0-.5-.2-.8-.8-.8c-.4 0-.8.3-1 .6c-.03 0 0 3.1 0 3.1h-.8v-4.3h.8s-.03.57 0 .6c.2-.3.7-.7 1.4-.7c.6 0 1 .3 1.2.8c.2-.4.8-.8 1.4-.8c.8 0 1.3.4 1.3 1.3c-.05-.03 0 3.1 0 3.1h-.9s.04-2.89 0-2.9zm4-1.5c1.3 0 2.1 1 2.1 2.3c-.03 0 0 .2 0 .2h-3.5c.1.7.6 1.4 1.5 1.4c.5 0 1-.2 1.3-.6l.4.6c-.5.4-1.1.6-1.8.6c-1.3 0-2.2-.9-2.2-2.3c0-1.2.9-2.2 2.2-2.2zm-1.4 1.9h2.7c0-.6-.4-1.3-1.3-1.3c-.9 0-1.3.7-1.4 1.3zm4.4 1.3c.3.4.9.7 1.5.7c.6 0 .9-.3.9-.7c0-.4-.5-.5-1-.7c-.8-.1-1.7-.3-1.7-1.3c0-.7.6-1.2 1.7-1.2c.8 0 1.3.2 1.7.6l-.4.5c-.3-.3-.7-.5-1.3-.5c-.5 0-.9.2-.9.6c0 .4.5.5 1 .6c.8.2 1.7.4 1.7 1.4c0 .7-.6 1.3-1.8 1.3c-.7 0-1.3-.2-1.8-.7l.4-.6zm6.1-3.2c.8 0 1.3.3 1.6.7l-.5.5c-.3-.4-.7-.5-1.1-.5c-.9 0-1.4.6-1.4 1.5c0 .9.5 1.6 1.4 1.6c.4 0 .8-.2 1.1-.5l.5.5c-.3.4-.8.7-1.6.7c-1.3 0-2.2-1-2.2-2.3c0-1.3.9-2.2 2.2-2.2zm5.1 3.9c-.4.4-.9.6-1.4.6c-.8 0-1.6-.5-1.6-1.4c0-1 .8-1.4 1.6-1.4c.5 0 1 .1 1.4.5v-.7c0-.5-.5-.9-1.1-.9c-.5 0-.9.2-1.3.6l-.3-.5c.4-.5 1-.7 1.7-.7c1 0 1.8.4 1.8 1.5v2.9h-.8s-.02-.47 0-.5zm0-1.2c-.3-.3-.7-.5-1.1-.5c-.6 0-1 .4-1 .9c0 .5.4.9 1 .9c.4 0 .8-.2 1.1-.5v-.8zm2 3.4v-6h.8v.6c.3-.4.8-.7 1.4-.7c1.2 0 2 .8 2 2.2c0 1.5-.8 2.3-2 2.3c-.5 0-1-.2-1.4-.7v2.3h-.8zm2-5.4c-.5 0-1 .3-1.2.6v1.9c.2.3.7.6 1.2.6c.8 0 1.3-.7 1.3-1.6c0-.9-.5-1.5-1.3-1.5zm3-1.9c0-.3.2-.5.5-.5c.3 0 .5.2.5.5c0 .3-.2.5-.5.5c-.3 0-.5-.2-.5-.5zm.1 1.3h.8v4.3h-.8v-4.3zm2.2 3.3c-.03.05 0-2.6 0-2.6h-.8v-.7h.8v-1.2h.8v1.2h.9v.7h-.9s-.02 2.47 0 2.5c0 .3.1.5.4.5c.2 0 .4-.1.4-.2l.2.6c-.1.2-.4.3-.8.3c-.7 0-1-.4-1-1.1zm5.2.5c-.4.4-.9.6-1.5.6c-.7 0-1.5-.5-1.5-1.4c0-1 .8-1.4 1.5-1.4c.6 0 1.1.1 1.5.5v-.7c0-.5-.5-.9-1.1-.9c-.5 0-.9.2-1.3.6l-.4-.5c.5-.5 1.1-.7 1.8-.7c1 0 1.8.4 1.8 1.5c-.04-.02 0 2.9 0 2.9h-.8s-.05-.47 0-.5zm0-1.2c-.3-.3-.7-.5-1.2-.5c-.6 0-1 .4-1 .9c0 .5.4.9 1 .9c.5 0 .9-.2 1.2-.5v-.8zm2-4.3h.8v6h-.8v-6zm4.7 5.5c-.4.4-.9.6-1.5.6c-.7 0-1.5-.5-1.5-1.4c0-1 .8-1.4 1.5-1.4c.6 0 1.1.1 1.5.5v-.7c0-.5-.5-.9-1.1-.9c-.5 0-.9.2-1.3.6l-.4-.5c.5-.5 1.1-.7 1.8-.7c1 0 1.8.4 1.8 1.5c-.03-.02 0 2.9 0 2.9h-.8s-.04-.47 0-.5zm0-1.2c-.3-.3-.7-.5-1.2-.5c-.5 0-1 .4-1 .9c0 .5.5.9 1 .9c.5 0 .9-.2 1.2-.5v-.8zm5.1 1.1c-.4.4-.9.7-1.5.7c-1.1 0-1.9-.8-1.9-2.3c0-1.4.8-2.2 1.9-2.2c.6 0 1.1.2 1.5.7c-.03-.01 0-2.3 0-2.3h.8v6h-.8s-.03-.61 0-.6zm0-2.5c-.3-.3-.7-.6-1.2-.6c-.8 0-1.4.6-1.4 1.5c0 .9.6 1.6 1.4 1.6c.5 0 .9-.3 1.2-.6v-1.9zm1.3-1.2h.9l1.4 3.4l1.3-3.4h.9L89 17.9h-.9l-1.8-4.3zm4.9-1.3c0-.3.3-.5.6-.5c.3 0 .5.2.5.5c0 .3-.2.5-.5.5c-.3 0-.6-.2-.6-.5zm.2 1.3h.8v4.3h-.8v-4.3zm2 3.1c.3.4.9.7 1.4.7c.7 0 1-.3 1-.7c0-.4-.5-.5-1.1-.7c-.7-.1-1.6-.3-1.6-1.3c0-.7.6-1.2 1.7-1.2c.7 0 1.3.2 1.6.6l-.3.5c-.3-.3-.8-.5-1.3-.5c-.6 0-.9.2-.9.6c0 .4.5.5 1 .6c.8.2 1.7.4 1.7 1.4c0 .7-.7 1.3-1.8 1.3c-.7 0-1.4-.2-1.8-.7l.4-.6zm3.8-1c0-1.2.9-2.2 2.2-2.2c1.4 0 2.2 1 2.2 2.2c0 1.3-.8 2.3-2.2 2.3c-1.3 0-2.2-1-2.2-2.3zm3.6 0c0-.8-.5-1.5-1.4-1.5c-.8 0-1.3.7-1.3 1.5c0 .9.5 1.6 1.3 1.6c.9 0 1.4-.7 1.4-1.6zm1.8-2.1h.8s-.04.63 0 .6c.3-.4.8-.7 1.4-.7v.8h-.3c-.4 0-.9.3-1.1.6c-.04-.01 0 3 0 3h-.8v-4.3zm2.9 3.1c.3.4.9.7 1.5.7c.6 0 .9-.3.9-.7c0-.4-.5-.5-1-.7c-.8-.1-1.6-.3-1.6-1.3c0-.7.5-1.2 1.6-1.2c.8 0 1.3.2 1.7.6l-.4.5c-.2-.3-.7-.5-1.3-.5c-.5 0-.9.2-.9.6c0 .4.5.5 1 .6c.8.2 1.7.4 1.7 1.4c0 .7-.6 1.3-1.8 1.3c-.7 0-1.3-.2-1.8-.7l.4-.6zm4.5.2c.3 0 .6.2.6.5c0 .3-.3.6-.6.6c-.3 0-.5-.3-.5-.6c0-.3.2-.5.5-.5zm3.6-3.4c.8 0 1.3.3 1.6.7l-.5.5c-.3-.4-.7-.5-1.1-.5c-.9 0-1.4.6-1.4 1.5c0 .9.5 1.6 1.4 1.6c.4 0 .8-.2 1.1-.5l.5.5c-.3.4-.8.7-1.6.7c-1.3 0-2.2-1-2.2-2.3c0-1.3.9-2.2 2.2-2.2zm2.1 2.2c0-1.2.9-2.2 2.2-2.2c1.4 0 2.2 1 2.2 2.2c0 1.3-.8 2.3-2.2 2.3c-1.3 0-2.2-1-2.2-2.3zm3.6 0c0-.8-.5-1.5-1.4-1.5c-.8 0-1.3.7-1.3 1.5c0 .9.5 1.6 1.3 1.6c.9 0 1.4-.7 1.4-1.6zm7-.7c0-.5-.2-.8-.7-.8c-.5 0-.9.3-1.1.6v3.1h-.8V15c0-.5-.2-.8-.8-.8c-.4 0-.8.3-1 .6c-.03 0 0 3.1 0 3.1h-.8v-4.3h.8s-.03.57 0 .6c.1-.3.7-.7 1.4-.7c.6 0 1 .3 1.1.8c.3-.4.9-.8 1.5-.8c.8 0 1.2.4 1.2 1.3c.05-.03 0 3.1 0 3.1h-.8s.04-2.89 0-2.9z" stroke="none" fill="#3797ef"/></g><g id="Polygon321403"><path d="m.4 4.9C.4 3.5.9 2 1.7.9l.5.4c-.6 1.1-.9 2.2-.9 3.6c0 1.5.3 2.5.9 3.6l-.5.4C.9 7.8.4 6.4.4 4.9zM5 1c1.7 0 2.4 1.6 2.4 3.1c0 1.5-.7 3.1-2.4 3.1c-1.6 0-2.3-1.6-2.3-3.1C2.7 2.6 3.4 1 5 1zm0 .8c-1 0-1.4 1.1-1.4 2.3c0 1.2.4 2.3 1.4 2.3c1.1 0 1.5-1.1 1.5-2.3c0-1.2-.4-2.3-1.5-2.3zm5.5-.8c1.6 0 2.3 1.6 2.3 3.1c0 1.5-.7 3.1-2.3 3.1c-1.7 0-2.4-1.6-2.4-3.1c0-1.5.7-3.1 2.4-3.1zm0 .8C9.4 1.8 9 2.9 9 4.1c0 1.2.4 2.3 1.5 2.3c1 0 1.4-1.1 1.4-2.3c0-1.2-.4-2.3-1.4-2.3zm5.4-.8c1.7 0 2.4 1.6 2.4 3.1c0 1.5-.7 3.1-2.4 3.1c-1.7 0-2.3-1.6-2.3-3.1c0-1.5.6-3.1 2.3-3.1zm0 .8c-1.1 0-1.4 1.1-1.4 2.3c0 1.2.3 2.3 1.4 2.3c1.1 0 1.4-1.1 1.4-2.3c0-1.2-.3-2.3-1.4-2.3zm2.8-.5l.5-.4c.9 1.1 1.3 2.6 1.3 4c0 1.5-.4 2.9-1.3 4l-.5-.4c.6-1.1 1-2.1 1-3.6c0-1.4-.4-2.5-1-3.6zm7.1-.3c1.7 0 2.4 1.6 2.4 3.1c0 1.5-.7 3.1-2.4 3.1c-1.6 0-2.3-1.6-2.3-3.1c0-1.5.7-3.1 2.3-3.1zm0 .8c-1 0-1.4 1.1-1.4 2.3c0 1.2.4 2.3 1.4 2.3c1.1 0 1.5-1.1 1.5-2.3c0-1.2-.4-2.3-1.5-2.3zm5.5-.8c1.6 0 2.3 1.6 2.3 3.1c0 1.5-.7 3.1-2.3 3.1c-1.7 0-2.4-1.6-2.4-3.1c0-1.5.7-3.1 2.4-3.1zm0 .8c-1.1 0-1.5 1.1-1.5 2.3c0 1.2.4 2.3 1.5 2.3c1 0 1.4-1.1 1.4-2.3c0-1.2-.4-2.3-1.4-2.3zm5.4-.8c1.7 0 2.4 1.6 2.4 3.1c0 1.5-.7 3.1-2.4 3.1c-1.7 0-2.3-1.6-2.3-3.1c0-1.5.6-3.1 2.3-3.1zm0 .8c-1.1 0-1.4 1.1-1.4 2.3c0 1.2.3 2.3 1.4 2.3c1.1 0 1.4-1.1 1.4-2.3c0-1.2-.3-2.3-1.4-2.3zm3 2.8h2.1v.7h-2.1v-.7zM44.8 1c1.6 0 2.3 1.6 2.3 3.1c0 1.5-.7 3.1-2.3 3.1c-1.7 0-2.4-1.6-2.4-3.1c0-1.5.7-3.1 2.4-3.1zm0 .8c-1.1 0-1.5 1.1-1.5 2.3c0 1.2.4 2.3 1.5 2.3c1 0 1.4-1.1 1.4-2.3c0-1.2-.4-2.3-1.4-2.3zm5.4-.8c1.7 0 2.3 1.6 2.3 3.1c0 1.5-.6 3.1-2.3 3.1c-1.7 0-2.4-1.6-2.4-3.1c0-1.5.7-3.1 2.4-3.1zm0 .8c-1.1 0-1.4 1.1-1.4 2.3c0 1.2.3 2.3 1.4 2.3c1.1 0 1.4-1.1 1.4-2.3c0-1.2-.3-2.3-1.4-2.3zm5.4-.8C57.3 1 58 2.6 58 4.1c0 1.5-.7 3.1-2.4 3.1c-1.6 0-2.3-1.6-2.3-3.1c0-1.5.7-3.1 2.3-3.1zm0 .8c-1 0-1.4 1.1-1.4 2.3c0 1.2.4 2.3 1.4 2.3c1.1 0 1.5-1.1 1.5-2.3c0-1.2-.4-2.3-1.5-2.3zm5.5-.8c1.6 0 2.3 1.6 2.3 3.1c0 1.5-.7 3.1-2.3 3.1c-1.7 0-2.4-1.6-2.4-3.1c0-1.5.7-3.1 2.4-3.1zm0 .8c-1.1 0-1.5 1.1-1.5 2.3c0 1.2.4 2.3 1.5 2.3c1 0 1.4-1.1 1.4-2.3c0-1.2-.4-2.3-1.4-2.3z" stroke="none" fill="#3797ef"/></g></svg>