<?xml version="1.0" standalone="no"?><!DOCTYPE svg PUBLIC "-//W3C//DTD SVG 1.1//EN" "http://www.w3.org/Graphics/SVG/1.1/DTD/svg11.dtd"><svg xmlns="http://www.w3.org/2000/svg" version="1.1" width="77px" height="15.9px" viewBox="0 -4 77 15.9" style="top:-4px"><desc>8 39%</desc><defs/><g id="Polygon109672"><path d="m55.3 4c-.7-.2-1.4-.6-1.4-1.4c0-1.1 1-1.6 2-1.6c.9 0 1.9.5 1.9 1.6c0 .8-.7 1.2-1.4 1.4c.8.2 1.5.8 1.5 1.6c0 1-.9 1.6-2 1.6c-1.2 0-2.1-.6-2.1-1.6c0-.8.8-1.4 1.5-1.6zm.6-2.5c-.8 0-1.5.4-1.5 1.1c0 .9 1.1 1.1 1.5 1.2c.3-.1 1.4-.3 1.4-1.2c0-.7-.6-1.1-1.4-1.1zm0 2.7c-.4.1-1.5.5-1.5 1.4c0 .7.7 1.2 1.5 1.2c.8 0 1.5-.5 1.5-1.2c0-.9-1.2-1.3-1.5-1.4zm3.5 2.2c.2 0 .4.2.4.4c0 .2-.2.4-.4.4c-.2 0-.4-.2-.4-.4c0-.2.2-.4.4-.4zm1.6-.5c.4.5 1 .9 1.7.9c1 0 1.5-.5 1.5-1.3c0-.9-.7-1.2-1.6-1.2h-.5v-.5h.5c.8 0 1.6-.4 1.6-1.2c0-.7-.7-1.1-1.5-1.1c-.7 0-1.2.3-1.6.7l-.3-.3c.4-.5 1.1-.9 1.9-.9c1.1 0 2 .6 2 1.6c0 .9-.8 1.3-1.3 1.4c.5.1 1.4.5 1.4 1.5c0 1-.8 1.7-2.1 1.7c-.9 0-1.7-.4-2-1l.3-.3zm5.4.2c.3.4.7.6 1.3.6c1.4 0 1.8-1.3 1.8-2.6v-.3c-.2.4-.9 1-1.7 1c-1.1 0-2-.6-2-1.9c0-1 .7-1.9 2-1.9C69.5 1 70 2.5 70 4.1c0 1.6-.6 3.1-2.3 3.1c-.7 0-1.2-.3-1.6-.8l.3-.3zm1.5-4.6c-1.1 0-1.6.8-1.6 1.4c0 1 .7 1.5 1.5 1.5c.7 0 1.3-.5 1.7-1.1c-.1-.8-.5-1.8-1.6-1.8zm4.4-.5c.8 0 1.4.7 1.4 1.5c0 .8-.6 1.5-1.4 1.5c-.9 0-1.4-.7-1.4-1.5c0-.8.5-1.5 1.4-1.5zm3.2.1h.5l-3.9 6h-.4l3.8-6zm-3.2.3c-.6 0-1 .5-1 1.1c0 .6.4 1.1 1 1.1c.6 0 1-.5 1-1.1c0-.6-.4-1.1-1-1.1zm3 2.9c.9 0 1.4.6 1.4 1.5c0 .8-.5 1.4-1.4 1.4c-.8 0-1.4-.6-1.4-1.4c0-.9.6-1.5 1.4-1.5zm0 .3c-.6 0-1 .5-1 1.2c0 .6.4 1.1 1 1.1c.6 0 1-.5 1-1.1c0-.7-.4-1.2-1-1.2z" stroke="none" fill="#000"/></g></svg>