<?xml version="1.0" standalone="no"?><!DOCTYPE svg PUBLIC "-//W3C//DTD SVG 1.1//EN" "http://www.w3.org/Graphics/SVG/1.1/DTD/svg11.dtd"><svg xmlns="http://www.w3.org/2000/svg" version="1.1" width="155.5px" height="26.9px" viewBox="0 -6 155.5 26.9" style="top:-6px"><desc>3,500 SF</desc><defs/><g id="Polygon87084"><path d="m47.6 10.4c.6.9 1.6 1.5 2.9 1.5c1.7 0 2.7-.8 2.7-2.2c0-1.6-1.2-2.2-2.8-2.2h-1v-.8h1c1.4 0 2.6-.6 2.6-2c0-1.3-1.1-2.1-2.5-2.1c-1.2 0-2.1.5-2.8 1.4l-.6-.6c.7-.9 1.9-1.6 3.5-1.6c1.8 0 3.4 1 3.4 2.8c0 1.6-1.4 2.3-2.3 2.5c.9.1 2.4.9 2.4 2.6c0 1.8-1.3 3-3.5 3c-1.8 0-3-.8-3.7-1.7l.7-.6zm8.4 3.7c.5-.3.9-1 .9-1.5l-.1.1c-.4 0-.7-.3-.7-.7c0-.4.3-.7.7-.7c.4 0 .8.4.8 1c0 .9-.5 1.8-1.1 2.2l-.5-.4zm4.3-3.7c.7 1 1.6 1.5 3 1.5c1.5 0 2.7-1.1 2.7-2.5c0-1.7-1.2-2.6-2.7-2.6c-.9 0-1.8.3-2.6 1c.05 0-.6-.3-.6-.3V2h6.1v.8H61s-.03 4.12 0 4.1c.5-.5 1.4-1 2.5-1c1.8 0 3.4 1.2 3.4 3.4c0 2.1-1.7 3.4-3.6 3.4c-1.8 0-2.8-.6-3.6-1.7l.6-.6zm12.3-8.6c2.9 0 4 2.9 4 5.5c0 2.5-1.1 5.4-4 5.4c-2.8 0-3.9-2.9-3.9-5.4c0-2.6 1.1-5.5 3.9-5.5zm0 .8c-2.2 0-2.9 2.5-2.9 4.7c0 2.1.7 4.6 2.9 4.6c2.3 0 3-2.5 3-4.6c0-2.2-.7-4.7-3-4.7zm9.7-.8c2.8 0 3.9 2.9 3.9 5.5c0 2.5-1.1 5.4-3.9 5.4c-2.9 0-3.9-2.9-3.9-5.4c0-2.6 1-5.5 3.9-5.5zm0 .8c-2.2 0-3 2.5-3 4.7c0 2.1.8 4.6 3 4.6c2.2 0 2.9-2.5 2.9-4.6c0-2.2-.7-4.7-2.9-4.7zm10.2 7.8c.7.8 1.8 1.5 3.3 1.5c2.2 0 2.8-1.2 2.8-2.1c0-1.5-1.4-1.9-2.9-2.3c-1.6-.5-3.4-.9-3.4-2.9c0-1.7 1.5-2.8 3.5-2.8c1.5 0 2.7.5 3.6 1.5l-.6.6c-.8-.9-1.9-1.3-3.1-1.3c-1.4 0-2.5.8-2.5 2c0 1.2 1.4 1.6 2.8 2c1.7.5 3.6 1 3.6 3.2c0 1.3-.9 2.9-3.8 2.9c-1.7 0-3-.7-3.8-1.6l.5-.7zm9.3-8.4h6.7v.8h-5.8v3.9h5.7v.8h-5.7v5h-.9V2z" stroke="none" fill="#000"/></g></svg>