<?xml version="1.0" standalone="no"?>
<!DOCTYPE svg PUBLIC "-//W3C//DTD SVG 1.1//EN" "http://www.w3.org/Graphics/SVG/1.1/DTD/svg11.dtd">
<svg xmlns="http://www.w3.org/2000/svg" version="1.1" width="343px" height="29.9px" viewBox="0 -7 343 29.9" style="top:-7px">
  <desc>04</desc>
  <defs/>
  <g id="Polygon275725">
    <path d="M 5.2 1.9 C 8.3 1.9 9.5 4.9 9.5 7.7 C 9.5 10.5 8.3 13.5 5.2 13.5 C 2.1 13.5 0.8 10.5 0.8 7.7 C 0.8 4.9 2.1 1.9 5.2 1.9 Z M 5.2 3.4 C 3.2 3.4 2.5 5.5 2.5 7.7 C 2.5 9.9 3.2 12 5.2 12 C 7.1 12 7.8 9.9 7.8 7.7 C 7.8 5.5 7.1 3.4 5.2 3.4 Z M 16.2 10.6 L 10.8 10.6 L 10.8 9.2 L 15.5 2.1 L 17.8 2.1 L 17.8 9.1 L 19.4 9.1 L 19.4 10.6 L 17.8 10.6 L 17.8 13.3 L 16.2 13.3 L 16.2 10.6 Z M 12.5 9.1 L 16.2 9.1 L 16.2 3.6 L 12.5 9.1 Z " stroke="none" fill="#88898a"/>
  </g>
</svg>