<?xml version="1.0" standalone="no"?>
<!DOCTYPE svg PUBLIC "-//W3C//DTD SVG 1.1//EN" "http://www.w3.org/Graphics/SVG/1.1/DTD/svg11.dtd">
<svg xmlns="http://www.w3.org/2000/svg" version="1.1" width="11px" height="30.8px" viewBox="0 -7 11 30.8" style="top:-7px">
  <desc> </desc>
  <defs/>
  <g id="Polygon268351">
    <path d="M 6 13.4 C 5.98 13.4 6 15 6 15 L 4.9 15 C 4.9 15 4.88 13.42 4.9 13.4 C 3 13.3 1.7 12.6 0.8 11.5 C 0.8 11.5 1.7 10.4 1.7 10.4 C 2.4 11.2 3.5 11.9 4.9 12.1 C 4.9 12.1 4.9 7.7 4.9 7.7 C 3 7.2 1.1 6.6 1.1 4.4 C 1.1 2.5 2.7 1.2 4.9 1 C 4.88 1.03 4.9 -0.6 4.9 -0.6 L 6 -0.6 C 6 -0.6 5.98 1.07 6 1.1 C 7.5 1.2 8.7 1.8 9.5 2.7 C 9.5 2.7 8.6 3.8 8.6 3.8 C 7.9 3 7 2.6 6 2.4 C 6 2.4 6 6.3 6 6.3 C 7.8 6.9 9.8 7.5 9.8 9.9 C 9.8 11.5 8.8 13.2 6 13.4 Z M 4.9 6.1 C 4.9 6.1 4.9 2.4 4.9 2.4 C 3.6 2.5 2.7 3.2 2.7 4.3 C 2.7 5.3 3.7 5.7 4.9 6.1 Z M 8.3 10 C 8.3 8.8 7.2 8.4 6 8 C 6 8 6 12 6 12 C 7.7 11.9 8.3 10.9 8.3 10 Z " stroke="none" fill="#fff"/>
  </g>
</svg>