<?xml version="1.0" standalone="no"?><!DOCTYPE svg PUBLIC "-//W3C//DTD SVG 1.1//EN" "http://www.w3.org/Graphics/SVG/1.1/DTD/svg11.dtd"><svg xmlns="http://www.w3.org/2000/svg" version="1.1" width="236px" height="16.9px" viewBox="0 -4 236 16.9" style="top:-4px"><desc>15</desc><defs/><g id="Polygon115404"><path d="m1.7 2.3l-1 1l-.5-.5l1.6-1.7h.8v6h-.9V2.3zm2.6 3.4c.4.4.9.7 1.6.7c.8 0 1.4-.5 1.4-1.2c0-.7-.6-1.1-1.3-1.1c-.6 0-1 .1-1.4.5L4 4.4V1.1h3.8v.8H4.9s-.03 1.92 0 1.9c.3-.3.8-.5 1.3-.5c1.1 0 2 .7 2 1.9c0 1.2-1 2-2.2 2c-1.1 0-1.8-.3-2.2-.9l.5-.6z" stroke="none" fill="#88898a"/></g></svg>