<?xml version="1.0" standalone="no"?><!DOCTYPE svg PUBLIC "-//W3C//DTD SVG 1.1//EN" "http://www.w3.org/Graphics/SVG/1.1/DTD/svg11.dtd"><svg xmlns="http://www.w3.org/2000/svg" xmlns:xlink="http://www.w3.org/1999/xlink" version="1.1" width="194px" height="54.4px" viewBox="0 -13 194 54.4" style="top:-13px"><desc>Agent 1</desc><defs/><g id="Polygon41191"><path d="m9.6 22.6v2.5h-2v-2.5c-2.9-.2-5.1-1.3-6.5-2.9l1.6-2.2c1.1 1.2 2.8 2.3 4.9 2.5v-6.1c-2.9-.7-5.9-1.8-5.9-5.3c0-3 2.4-5.1 5.9-5.4V.6h2v2.6c2.3.3 4.2 1.2 5.6 2.6l-1.6 2.1c-1.1-1.1-2.5-1.8-4-2.1v5.6c2.9.7 6 1.8 6 5.6c0 2.7-1.7 5.2-6 5.6zm-2-11.8V5.7c-1.8.2-3 1.2-3 2.7c0 1.3 1.3 1.9 3 2.4zm5.2 6.4c0-1.6-1.4-2.2-3.2-2.8v5.6c2.3-.2 3.2-1.6 3.2-2.8z" stroke="none" fill="#282828"/><a xlink:href="DBF_NOI" xlink:show="new" xlink:title="&lt;&lt;NOI&gt;&gt;"><rect style="fill:transparent;" x="16" y="2" width="103" height="20"/></a></g><g id="Polygon41192"><path d="m16.6 11.9l12.5-6v2.1l-10.5 4.9l10.5 4.9v2l-12.5-6v-1.9zm13.9 0l12.4-6v2.1l-10.4 4.9l10.4 4.9v2l-12.4-6v-1.9zm17.9-4.1v14.5h-2.8V3.5h2.9l10.2 14.1V3.5h2.9v18.8h-2.8L48.4 7.8zm25.7-4.6c5.7 0 9.5 4.1 9.5 9.7c0 5.6-3.8 9.7-9.5 9.7c-5.6 0-9.4-4.1-9.4-9.7c0-5.6 3.8-9.7 9.4-9.7zm0 2.5c-4 0-6.5 3.1-6.5 7.2c0 4.1 2.5 7.2 6.5 7.2c4 0 6.6-3.1 6.6-7.2c0-4.1-2.6-7.2-6.6-7.2zm12.7-2.2h2.8v18.8h-2.8V3.5zm5.4 14.3l10.5-4.9L92.2 8V5.9l12.5 6v1.9l-12.5 6v-2zm13.9 0l10.4-4.9L106.1 8V5.9l12.5 6v1.9l-12.5 6v-2z" stroke="none" fill="#282828"/></g></svg>