<?xml version="1.0" standalone="no"?><!DOCTYPE svg PUBLIC "-//W3C//DTD SVG 1.1//EN" "http://www.w3.org/Graphics/SVG/1.1/DTD/svg11.dtd"><svg xmlns="http://www.w3.org/2000/svg" version="1.1" width="104px" height="28.4px" viewBox="0 -6 104 28.4" style="top:-6px"><desc>Agent 1</desc><defs/><g id="Polygon88269"><path d="m1.9 10.1c.7.8 1.7 1.3 2.9 1.3c1.4 0 2.4-.9 2.4-2.1c0-1.3-1-2.1-2.3-2.1c-1 0-1.7.3-2.4 1l-1.2-.4V2h6.8v1.4H2.9s.01 3.38 0 3.4c.5-.5 1.4-1 2.5-1c1.8 0 3.4 1.3 3.4 3.5c0 2.2-1.7 3.5-4 3.5c-1.8 0-3-.6-3.8-1.6l.9-1.1zm9.3.7c.6 0 1.1.5 1.1 1c0 .6-.5 1-1.1 1c-.5 0-.9-.4-.9-1c0-.5.4-1 .9-1zm3.7-.7c.7.8 1.7 1.3 2.9 1.3c1.4 0 2.4-.9 2.4-2.1c0-1.3-1-2.1-2.3-2.1c-1 0-1.7.3-2.4 1l-1.2-.4V2h6.8v1.4h-5.2s.02 3.38 0 3.4c.5-.5 1.4-1 2.5-1c1.8 0 3.4 1.3 3.4 3.5c0 2.2-1.7 3.5-3.9 3.5c-1.9 0-3.1-.6-3.9-1.6l.9-1.1zm12.4-8.3c2.9 0 4.2 2.9 4.2 5.5c0 2.7-1.3 5.5-4.2 5.5c-3 0-4.2-2.8-4.2-5.5c0-2.6 1.2-5.5 4.2-5.5zm0 1.4c-1.9 0-2.6 2-2.6 4.1c0 2.1.7 4.1 2.6 4.1c1.9 0 2.5-2 2.5-4.1c0-2.1-.6-4.1-2.5-4.1zm7.8-1.4c1.6 0 2.6 1.2 2.6 2.7c0 1.5-1 2.6-2.6 2.6c-1.5 0-2.6-1.1-2.6-2.6c0-1.5 1.1-2.7 2.6-2.7zm5.8.2h1l-6.8 10.6h-1L40.9 2zm-5.8.8c-.9 0-1.5.7-1.5 1.7c0 .9.6 1.7 1.5 1.7c.9 0 1.5-.8 1.5-1.7c0-1-.6-1.7-1.5-1.7zm5.7 4.8c1.5 0 2.6 1.1 2.6 2.6c0 1.5-1.1 2.6-2.6 2.6c-1.6 0-2.6-1.1-2.6-2.6c0-1.5 1-2.6 2.6-2.6zm0 .9c-.9 0-1.6.7-1.6 1.7c0 1 .7 1.7 1.6 1.7c.9 0 1.5-.7 1.5-1.7c0-1-.6-1.7-1.5-1.7z" stroke="none" fill="#282828"/></g></svg>