<?xml version="1.0" standalone="no"?><!DOCTYPE svg PUBLIC "-//W3C//DTD SVG 1.1//EN" "http://www.w3.org/Graphics/SVG/1.1/DTD/svg11.dtd"><svg xmlns="http://www.w3.org/2000/svg" version="1.1" width="134.3px" height="15.9px" viewBox="0 -4 134.3 15.9" style="top:-4px"><desc>7225 Rivers Ave</desc><defs/><g id="Polygon87886"><path d="m74.2 1.6h-3.3v-.5h3.9v.4l-2.5 5.6h-.6l2.5-5.5zm1.4 5.1c2.1-1.7 3.5-2.8 3.5-4c0-.9-.8-1.2-1.4-1.2c-.8 0-1.3.3-1.7.8l-.3-.4c.4-.5 1.1-.9 2-.9c.9 0 1.9.5 1.9 1.7c0 1.3-1.4 2.5-3.2 3.9c.05.04 3.2 0 3.2 0v.5h-4s.05-.41 0-.4zm5.3 0c2-1.7 3.4-2.8 3.4-4c0-.9-.7-1.2-1.4-1.2c-.7 0-1.3.3-1.6.8l-.4-.4c.5-.5 1.2-.9 2-.9c.9 0 1.9.5 1.9 1.7c0 1.3-1.4 2.5-3.1 3.9c-.01.04 3.1 0 3.1 0v.5h-3.9s-.02-.41 0-.4zm5.7-.8c.4.5.9.9 1.7.9c.9 0 1.5-.7 1.5-1.5c0-.9-.6-1.5-1.5-1.5c-.5 0-1 .2-1.4.6c-.04.02-.4-.1-.4-.1V1.1h3.4v.5H87v2.3c.3-.3.8-.5 1.4-.5c1 0 1.9.6 1.9 1.9c0 1.2-.9 1.9-2 1.9c-1 0-1.6-.4-2-1l.3-.3zm9.2-1.3h-1.4v2.5h-.5v-6h2.3c1 0 1.8.7 1.8 1.8c0 1.1-.8 1.7-1.7 1.7c.04-.01 1.8 2.5 1.8 2.5h-.6l-1.7-2.5zm.3-3c.03-.03-1.7 0-1.7 0v2.6s1.73-.04 1.7 0c.8 0 1.4-.6 1.4-1.3c0-.8-.6-1.3-1.4-1.3zm3 .1c0-.2.2-.4.4-.4c.2 0 .4.2.4.4c0 .2-.2.3-.4.3c-.2 0-.4-.1-.4-.3zm.2 1.1h.4v4.3h-.4V2.8zm1.2 0h.5l1.6 3.8l1.6-3.8h.5l-1.8 4.3h-.5l-1.9-4.3zm6.9-.1c1.3 0 2 1 2 2.3v.1s-3.62-.02-3.6 0c0 .9.7 1.7 1.7 1.7c.5 0 1-.2 1.4-.6l.2.3c-.4.5-.9.7-1.7.7c-1.2 0-2.1-.9-2.1-2.3c0-1.2.9-2.2 2.1-2.2zm-1.6 2h3.1c0-.7-.5-1.6-1.5-1.6c-1.1 0-1.6.9-1.6 1.6zm4.8-1.9h.5v.7c.4-.5.9-.8 1.5-.8v.5h-.3c-.4 0-1 .4-1.2.7v3.2h-.5V2.8zm2.8 3.4c.3.3.8.6 1.4.6c.7 0 1.1-.3 1.1-.8c0-.6-.6-.8-1.2-.9c-.7-.2-1.5-.4-1.5-1.2c0-.7.6-1.2 1.5-1.2c.8 0 1.3.2 1.6.6l-.3.3c-.2-.3-.7-.5-1.3-.5c-.6 0-1 .3-1 .7c0 .5.5.7 1.1.8c.8.2 1.6.4 1.6 1.3c0 .7-.6 1.3-1.6 1.3c-.7 0-1.3-.2-1.7-.7l.3-.3zm10.3-.6h-3.2l-.6 1.5h-.6l2.5-6h.6l2.5 6h-.6l-.6-1.5zm-3-.4h2.9l-1.5-3.6l-1.4 3.6zm4.2-2.4h.5l1.6 3.8l1.6-3.8h.5l-1.8 4.3h-.6l-1.8-4.3zm6.9-.1c1.3 0 2 1 2 2.3v.1s-3.63-.02-3.6 0c0 .9.6 1.7 1.7 1.7c.5 0 1-.2 1.4-.6l.2.3c-.4.5-.9.7-1.7.7c-1.2 0-2.1-.9-2.1-2.3c0-1.2.8-2.2 2.1-2.2zm-1.6 2h3.1c0-.7-.5-1.6-1.6-1.6c-1 0-1.5.9-1.5 1.6z" stroke="none" fill="#000"/></g></svg>