<?xml version="1.0" standalone="no"?><!DOCTYPE svg PUBLIC "-//W3C//DTD SVG 1.1//EN" "http://www.w3.org/Graphics/SVG/1.1/DTD/svg11.dtd"><svg xmlns="http://www.w3.org/2000/svg" xmlns:xlink="http://www.w3.org/1999/xlink" version="1.1" width="388.4px" height="75.5px" viewBox="0 -14 388.4 75.5" style="top:-14px"><desc>SITE PLAN</desc><defs/><g id="Polygon55026"><path d="m7.6 33.7s-.03-2.74 0-2.7c0-1.3-.7-1.7-1.7-1.7c-1 0-1.7.4-1.7 1.7v1.3c0 1 .4 1.5 1.3 2l2.3 1.3c1.9 1.1 3 2 3 4.1v2.8c0 3.1-1.8 4.2-4.8 4.2h-.1c-3 0-4.9-1.1-4.9-4.2c.02.03 0-3.4 0-3.4h3.2s.04 2.98 0 3c0 1.2.7 1.7 1.7 1.7c1 0 1.7-.5 1.7-1.7v-1.6c0-1-.3-1.5-1.3-2L4 37.2c-1.9-1.1-3-2-3-4.1v-2.6c0-2.9 2.2-4.1 4.9-4.1c2.7 0 4.9 1.2 4.9 4.1v3.2H7.6zM13 46.4V26.7h3.3v19.7H13zm14.7-16.9h-3.3v16.9h-3.3V29.5h-3.3v-2.8h9.9v2.8zm1.4 16.9V26.7h8.7v2.8h-5.4v5.5h4.5v2.8h-4.5v5.7h5.5v2.9h-8.8zm25.1-15.6v3.8c0 3-1.9 4.2-4.9 4.2c-.03-.02-1.9 0-1.9 0v7.6h-3.2V26.7s5.07-.04 5.1 0c3 0 4.9 1.2 4.9 4.1zm-3.2.6c0-1.5-.8-1.9-1.8-1.9c-.04.04-1.8 0-1.8 0v6.4h1.8c1 0 1.8-.4 1.8-1.8v-2.7zm13.4 15H56V26.7h3.3v16.8h5.1v2.9zm7.7-4.4h-3.6l-.7 4.4h-3.1l3.6-19.7h4.2l3.7 19.7h-3.4l-.7-4.4zm-.4-2.7l-1.4-8.8l-1.4 8.8h2.8zm5.8 7.1V26.7h3.3L85 38.9V26.7h3v19.7h-3.2l-4.3-12.8v12.8h-3z" stroke="none" fill="#282828"/></g><g id="Polygon55025"><path d="m0 6.7l7-3.4v1.2L1.1 7.2L7 10v1.1L0 7.8V6.7zm7.8 0l7-3.4v1.2L8.9 7.2l5.9 2.8v1.1l-7-3.3V6.7zm11.1-3.3h-3.3V2h8.1v1.4h-3.2v9.1h-1.6V3.4zm7.9 1.3c2.3 0 3.7 1.8 3.7 4.1c.04.03 0 .4 0 .4c0 0-6.03-.02-6 0c.1 1.3 1 2.4 2.6 2.4c.8 0 1.7-.4 2.3-.9l.6.9c-.7.7-1.8 1.1-3.1 1.1c-2.3 0-3.9-1.6-3.9-4c0-2.2 1.6-4 3.8-4zm-2.3 3.4h4.6c0-1-.7-2.2-2.3-2.2c-1.5 0-2.3 1.2-2.3 2.2zm12.9-.5c0-1.2-.7-1.6-1.7-1.6c-.9 0-1.7.5-2.1 1.1v5.4h-1.4V4.9h1.4s.01 1.05 0 1.1c.5-.7 1.5-1.3 2.7-1.3c1.6 0 2.5.8 2.5 2.5c-.02-.04 0 5.3 0 5.3h-1.4s-.04-4.86 0-4.9zm8.2 4.1c-.6.7-1.4 1-2.5 1c-1.3 0-2.6-.8-2.6-2.5c0-1.8 1.3-2.5 2.6-2.5c1.1 0 1.9.3 2.5 1V7.4c0-.9-.7-1.5-1.8-1.5c-.9 0-1.7.3-2.3 1l-.7-1c.9-.8 1.9-1.2 3.2-1.2c1.6 0 3.1.7 3.1 2.7c-.04-.03 0 5.1 0 5.1h-1.5s.03-.79 0-.8zm0-2.1c-.4-.6-1.1-.9-1.9-.9c-1.1 0-1.8.6-1.8 1.5c0 .9.7 1.5 1.8 1.5c.8 0 1.5-.3 1.9-.8V9.6zm8.8-2c0-1.2-.7-1.6-1.7-1.6c-.9 0-1.7.5-2.1 1.1c.02-.03 0 5.4 0 5.4h-1.4V4.9h1.4s.02 1.05 0 1.1c.5-.7 1.5-1.3 2.7-1.3c1.7 0 2.5.8 2.5 2.5v5.3h-1.4s-.03-4.86 0-4.9zm3.8 3.2V6.1h-1.3V4.9h1.3V2.8h1.4v2.1h1.6v1.2h-1.6s.02 4.43 0 4.4c0 .6.3 1 .8 1c.3 0 .6-.2.7-.3l.4 1c-.3.3-.7.5-1.5.5c-1.2 0-1.8-.6-1.8-1.9zm3.9-2.1c0-2.6.9-5.1 2.4-7l.8.6c-1 2-1.6 3.8-1.6 6.4c0 2.6.6 4.4 1.6 6.3l-.8.7c-1.5-1.9-2.4-4.5-2.4-7zm4.5 1.8c.5.6 1.6 1.1 2.6 1.1c1.1 0 1.7-.4 1.7-1.1c0-.8-.9-1-1.9-1.2c-1.3-.3-2.8-.7-2.8-2.3c0-1.3 1-2.3 2.9-2.3c1.3 0 2.3.5 2.9 1.1l-.6 1c-.5-.6-1.3-1-2.3-1c-1 0-1.6.4-1.6 1c0 .7.9.9 1.8 1.2c1.3.3 2.9.6 2.9 2.4c0 1.3-1 2.3-3.1 2.3c-1.3 0-2.4-.4-3.2-1.2l.7-1zM73 2.3l.9-.6c1.5 1.9 2.3 4.4 2.3 7c0 2.5-.8 5.1-2.3 7L73 15c1.1-1.9 1.7-3.7 1.7-6.3c0-2.6-.6-4.4-1.7-6.4zm4.2 7.7l5.9-2.8l-5.9-2.7V3.3l7 3.4v1.1l-7 3.3V10zm7.8 0l5.9-2.8L85 4.5V3.3l7 3.4v1.1l-7 3.3V10z" stroke="none" fill="#3797ef"/><a xlink:href="DBF_Tenant(s)" xlink:show="new" xlink:title="&lt;&lt;Tenant(s)&gt;&gt;"><rect style="fill:transparent;" x="-1" y="1" width="93" height="15"/></a></g></svg>