<?xml version="1.0" standalone="no"?><!DOCTYPE svg PUBLIC "-//W3C//DTD SVG 1.1//EN" "http://www.w3.org/Graphics/SVG/1.1/DTD/svg11.dtd"><svg xmlns="http://www.w3.org/2000/svg" version="1.1" width="125.4px" height="27.3px" viewBox="0 -6 125.4 27.3" style="top:-6px"><desc>119,443</desc><defs/><g id="Polygon113921"><path d="m80.3 3.2L78.6 5l-.6-.6L80.4 2h.8v10.5h-.9V3.2zm4.9 0L83.5 5l-.6-.6L85.3 2h.8v10.5h-.9V3.2zm4.2 7.5c.5.7 1.1 1.2 2.3 1.2c2.3 0 3.1-2.4 3.1-4.7v-.5c-.4.8-1.7 1.8-3.1 1.8c-1.9 0-3.4-1.1-3.4-3.3c0-1.8 1.3-3.4 3.6-3.4c2.8 0 3.9 2.6 3.9 5.5c0 2.7-1.2 5.4-4.1 5.4c-1.4 0-2.2-.5-2.9-1.3l.6-.7zm2.5-8.1c-1.8 0-2.7 1.4-2.7 2.5c0 1.8 1.2 2.6 2.7 2.6c1.1 0 2.3-.7 2.9-1.8c-.2-1.5-.9-3.3-2.9-3.3zM97 14.1c.5-.3.9-1 .9-1.5l-.1.1c-.4 0-.7-.3-.7-.7c0-.4.3-.7.7-.7c.4 0 .8.4.8 1c0 .9-.5 1.8-1.1 2.2l-.5-.4zm8.2-4.4h-5.1v-.9l4.7-6.8h1.3v6.8h1.5v.9h-1.5v2.8h-.9V9.7zm-4.1-.9h4.1V2.9l-4.1 5.9zm12.6.9h-5v-.9l4.7-6.8h1.2v6.8h1.6v.9h-1.6v2.8h-.9V9.7zm-4-.9h4V2.9l-4 5.9zm8.2 1.6c.6.9 1.6 1.5 3 1.5c1.6 0 2.6-.8 2.6-2.2c0-1.6-1.2-2.2-2.8-2.2h-1v-.8h1c1.4 0 2.7-.6 2.7-2c0-1.4-1.2-2.1-2.6-2.1c-1.2 0-2 .5-2.8 1.4l-.6-.6c.7-.9 1.9-1.6 3.5-1.6c1.8 0 3.4 1 3.4 2.8c0 1.6-1.4 2.3-2.3 2.5c.9.1 2.4.9 2.4 2.6c0 1.8-1.3 3-3.5 3c-1.8 0-3-.8-3.6-1.7l.6-.6z" stroke="none" fill="#000"/></g></svg>