<?xml version="1.0" standalone="no"?><!DOCTYPE svg PUBLIC "-//W3C//DTD SVG 1.1//EN" "http://www.w3.org/Graphics/SVG/1.1/DTD/svg11.dtd"><svg xmlns="http://www.w3.org/2000/svg" version="1.1" width="8.4px" height="18.2px" viewBox="0 -4 8.4 18.2" style="top:-4px"><desc>04</desc><defs/><g id="Polygon68369"><path d="m4 2.2v4.2c0 1.1-.6 1.5-1.7 1.5C1.2 7.9.6 7.5.6 6.4V2.2C.6 1.1 1.2.7 2.3.7C3.4.7 4 1.1 4 2.2zm-1.7-.5c-.4 0-.6.2-.6.7v3.8c0 .5.2.7.6.7c.4 0 .6-.2.6-.7V2.4c0-.5-.2-.7-.6-.7zm5.4 3.5h.5v1h-.5v1.6H6.6V6.2h-2v-1L6.2.8h1.5v4.4zm-2.3 0h1.2V1.9L5.4 5.2z" stroke="none" fill="#fff"/></g></svg>