<?xml version="1.0" standalone="no"?>
<!DOCTYPE svg PUBLIC "-//W3C//DTD SVG 1.1//EN" "http://www.w3.org/Graphics/SVG/1.1/DTD/svg11.dtd">
<svg xmlns="http://www.w3.org/2000/svg" version="1.1" width="158px" height="27.9px" viewBox="0 -6 158 27.9" style="top:-6px">
  <desc>Increases</desc>
  <defs/>
  <g id="Polygon276618">
    <path d="M 1.2 2 L 2.8 2 L 2.8 12.5 L 1.2 12.5 L 1.2 2 Z M 10.3 7.6 C 10.3 6.4 9.6 6 8.6 6 C 7.8 6 6.9 6.5 6.5 7.1 C 6.53 7.07 6.5 12.5 6.5 12.5 L 5.1 12.5 L 5.1 4.9 L 6.5 4.9 C 6.5 4.9 6.53 5.95 6.5 6 C 7 5.3 8.1 4.7 9.2 4.7 C 10.9 4.7 11.7 5.5 11.7 7.2 C 11.7 7.16 11.7 12.5 11.7 12.5 L 10.3 12.5 C 10.3 12.5 10.28 7.64 10.3 7.6 Z M 17.4 4.7 C 18.9 4.7 19.7 5.3 20.3 6 C 20.3 6 19.3 6.9 19.3 6.9 C 18.9 6.3 18.2 6 17.5 6 C 16 6 15 7.1 15 8.7 C 15 10.3 16 11.5 17.5 11.5 C 18.2 11.5 18.9 11.2 19.3 10.5 C 19.3 10.5 20.3 11.4 20.3 11.4 C 19.7 12.1 18.9 12.7 17.4 12.7 C 15.1 12.7 13.5 11 13.5 8.7 C 13.5 6.4 15.1 4.7 17.4 4.7 Z M 21.9 4.9 L 23.3 4.9 C 23.3 4.9 23.28 6.05 23.3 6.1 C 23.9 5.3 24.8 4.7 25.8 4.7 C 25.8 4.7 25.8 6.1 25.8 6.1 C 25.6 6.1 25.5 6.1 25.3 6.1 C 24.6 6.1 23.6 6.6 23.3 7.2 C 23.28 7.21 23.3 12.5 23.3 12.5 L 21.9 12.5 L 21.9 4.9 Z M 30.6 4.7 C 32.9 4.7 34.3 6.5 34.3 8.8 C 34.32 8.83 34.3 9.2 34.3 9.2 C 34.3 9.2 28.25 9.18 28.3 9.2 C 28.4 10.5 29.3 11.6 30.9 11.6 C 31.7 11.6 32.6 11.2 33.1 10.7 C 33.1 10.7 33.8 11.6 33.8 11.6 C 33 12.3 32 12.7 30.7 12.7 C 28.4 12.7 26.7 11.1 26.7 8.7 C 26.7 6.5 28.3 4.7 30.6 4.7 Z M 28.2 8.1 C 28.2 8.1 32.9 8.1 32.9 8.1 C 32.9 7.1 32.2 5.9 30.6 5.9 C 29 5.9 28.3 7.1 28.2 8.1 Z M 40.8 11.7 C 40.2 12.4 39.4 12.7 38.3 12.7 C 37.1 12.7 35.7 11.9 35.7 10.2 C 35.7 8.4 37.1 7.7 38.3 7.7 C 39.4 7.7 40.3 8 40.8 8.7 C 40.8 8.7 40.8 7.4 40.8 7.4 C 40.8 6.5 40.1 5.9 39 5.9 C 38.1 5.9 37.4 6.2 36.7 6.9 C 36.7 6.9 36.1 5.9 36.1 5.9 C 36.9 5.1 38 4.7 39.2 4.7 C 40.9 4.7 42.3 5.4 42.3 7.4 C 42.28 7.37 42.3 12.5 42.3 12.5 L 40.8 12.5 C 40.8 12.5 40.85 11.71 40.8 11.7 Z M 40.8 9.6 C 40.4 9 39.7 8.7 38.9 8.7 C 37.8 8.7 37.1 9.3 37.1 10.2 C 37.1 11.1 37.8 11.7 38.9 11.7 C 39.7 11.7 40.4 11.4 40.8 10.9 C 40.8 10.9 40.8 9.6 40.8 9.6 Z M 44.6 10.5 C 45.1 11.1 46.1 11.6 47.2 11.6 C 48.2 11.6 48.8 11.2 48.8 10.5 C 48.8 9.7 47.9 9.5 46.9 9.3 C 45.6 9 44.1 8.6 44.1 7 C 44.1 5.7 45.2 4.7 47 4.7 C 48.4 4.7 49.3 5.2 50 5.8 C 50 5.8 49.3 6.8 49.3 6.8 C 48.9 6.2 48 5.8 47.1 5.8 C 46.1 5.8 45.5 6.2 45.5 6.8 C 45.5 7.5 46.3 7.7 47.3 8 C 48.6 8.3 50.2 8.6 50.2 10.4 C 50.2 11.7 49.1 12.7 47.1 12.7 C 45.8 12.7 44.7 12.3 43.9 11.5 C 43.9 11.5 44.6 10.5 44.6 10.5 Z M 55.4 4.7 C 57.7 4.7 59.1 6.5 59.1 8.8 C 59.1 8.83 59.1 9.2 59.1 9.2 C 59.1 9.2 53.03 9.18 53 9.2 C 53.1 10.5 54.1 11.6 55.6 11.6 C 56.4 11.6 57.3 11.2 57.9 10.7 C 57.9 10.7 58.6 11.6 58.6 11.6 C 57.8 12.3 56.7 12.7 55.5 12.7 C 53.2 12.7 51.5 11.1 51.5 8.7 C 51.5 6.5 53.1 4.7 55.4 4.7 Z M 53 8.1 C 53 8.1 57.7 8.1 57.7 8.1 C 57.7 7.1 57 5.9 55.4 5.9 C 53.8 5.9 53.1 7.1 53 8.1 Z M 60.9 10.5 C 61.4 11.1 62.4 11.6 63.5 11.6 C 64.6 11.6 65.1 11.2 65.1 10.5 C 65.1 9.7 64.3 9.5 63.3 9.3 C 62 9 60.4 8.6 60.4 7 C 60.4 5.7 61.5 4.7 63.4 4.7 C 64.7 4.7 65.6 5.2 66.3 5.8 C 66.3 5.8 65.7 6.8 65.7 6.8 C 65.2 6.2 64.4 5.8 63.4 5.8 C 62.4 5.8 61.8 6.2 61.8 6.8 C 61.8 7.5 62.6 7.7 63.6 8 C 64.9 8.3 66.5 8.6 66.5 10.4 C 66.5 11.7 65.4 12.7 63.4 12.7 C 62.1 12.7 61 12.3 60.2 11.5 C 60.2 11.5 60.9 10.5 60.9 10.5 Z " stroke="none" fill="#000"/>
  </g>
</svg>