<?xml version="1.0" standalone="no"?><!DOCTYPE svg PUBLIC "-//W3C//DTD SVG 1.1//EN" "http://www.w3.org/Graphics/SVG/1.1/DTD/svg11.dtd"><svg xmlns="http://www.w3.org/2000/svg" version="1.1" width="125.4px" height="27.3px" viewBox="0 -6 125.4 27.3" style="top:-6px"><desc>51,373</desc><defs/><g id="Polygon113864"><path d="m84.3 10.4c.7 1 1.6 1.5 3 1.5c1.5 0 2.6-1.1 2.6-2.5c0-1.7-1.1-2.6-2.6-2.6c-1 0-1.8.3-2.6 1c.03 0-.7-.3-.7-.3V2h6.2v.8H85s-.05 4.12 0 4.1c.5-.5 1.4-1 2.5-1c1.8 0 3.4 1.2 3.4 3.4c0 2.1-1.7 3.4-3.6 3.4c-1.8 0-2.9-.6-3.6-1.7l.6-.6zm10.1-7.2L92.8 5l-.6-.6L94.5 2h.9v10.5h-1V3.2zm3.2 10.9c.5-.3.9-1 .9-1.5l-.1.1c-.4 0-.7-.3-.7-.7c0-.4.3-.7.7-.7c.4 0 .8.4.8 1c0 .9-.5 1.8-1.1 2.2l-.5-.4zm3.7-3.7c.6.9 1.6 1.5 2.9 1.5c1.7 0 2.7-.8 2.7-2.2c0-1.6-1.2-2.2-2.8-2.2h-1v-.8h1c1.4 0 2.7-.6 2.7-2c0-1.4-1.2-2.1-2.6-2.1c-1.2 0-2 .5-2.8 1.4l-.6-.6c.7-.9 1.9-1.6 3.5-1.6c1.8 0 3.4 1 3.4 2.8c0 1.6-1.4 2.3-2.3 2.5c.9.1 2.4.9 2.4 2.6c0 1.8-1.3 3-3.5 3c-1.8 0-3-.8-3.6-1.7l.6-.6zm13.9-7.6h-5.9v-.8h6.9v.6l-4.5 9.9h-1l4.5-9.7zm2.7 7.6c.6.9 1.6 1.5 3 1.5c1.6 0 2.6-.8 2.6-2.2c0-1.6-1.2-2.2-2.8-2.2h-1v-.8h1c1.4 0 2.7-.6 2.7-2c0-1.4-1.2-2.1-2.6-2.1c-1.2 0-2 .5-2.8 1.4l-.6-.6c.7-.9 1.9-1.6 3.5-1.6c1.8 0 3.4 1 3.4 2.8c0 1.6-1.4 2.3-2.3 2.5c.9.1 2.4.9 2.4 2.6c0 1.8-1.3 3-3.5 3c-1.8 0-3-.8-3.6-1.7l.6-.6z" stroke="none" fill="#000"/></g></svg>