<?xml version="1.0" standalone="no"?><!DOCTYPE svg PUBLIC "-//W3C//DTD SVG 1.1//EN" "http://www.w3.org/Graphics/SVG/1.1/DTD/svg11.dtd"><svg xmlns="http://www.w3.org/2000/svg" version="1.1" width="307.3px" height="28.3px" viewBox="0 -6 307.3 28.3" style="top:-6px"><desc>Tony</desc><defs/><g id="Polygon116957"><path d="m.7 7.3C.7 4 3.1 1.8 6.2 1.8c2 0 3.3 1 4.2 2.2L9 4.7c-.5-.9-1.6-1.5-2.8-1.5c-2.2 0-3.8 1.7-3.8 4.1c0 2.3 1.6 4 3.8 4c1.2 0 2.3-.6 2.8-1.5l1.4.7c-.9 1.2-2.2 2.2-4.2 2.2c-3.1 0-5.5-2.2-5.5-5.4zm17.9 3.1h-5.2l-.9 2.1h-1.7L15 2h2l4.2 10.5h-1.7l-.9-2.1zm-4.7-1.5h4.2L16 3.3l-2.1 5.6zm16.2-.4h-1.9v4h-1.6V2s4.43-.05 4.4 0c2 0 3.4 1.3 3.4 3.2c0 1.9-1.3 2.9-2.6 3.1l2.7 4.2h-1.8l-2.6-4zm.7-5.2c.02.05-2.6 0-2.6 0v3.8s2.62-.03 2.6 0c1.2 0 2-.8 2-1.9c0-1.1-.8-1.9-2-1.9zM36.4 2h7.1v1.3H38v3.1h5.4v1.4H38v3.3h5.5v1.4h-7.1V2zm13.2 0h1.6v9.1h4.8v1.4h-6.4V2zm7.9.7c0-.5.4-.9.9-.9c.5 0 .9.4.9.9c0 .5-.4.9-.9.9c-.5 0-.9-.4-.9-.9zm.2 2.2h1.4v7.6h-1.4V4.9zm7.1-.2c1.5 0 2.3.6 2.9 1.3l-1 .9c-.4-.6-1-.9-1.8-.9c-1.5 0-2.5 1.1-2.5 2.7c0 1.6 1 2.8 2.5 2.8c.8 0 1.4-.4 1.8-1l1 .9c-.6.7-1.4 1.3-2.9 1.3c-2.3 0-3.9-1.7-3.9-4c0-2.3 1.6-4 3.9-4zm5.2 6c.5 0 1 .5 1 1c0 .6-.5 1-1 1c-.5 0-1-.4-1-1c0-.5.5-1 1-1zm10.9-8.9c2.9 0 4.1 2.8 4.1 5.5c0 2.6-1.2 5.4-4.1 5.4c-3 0-4.2-2.8-4.2-5.4c0-2.7 1.2-5.5 4.2-5.5zm0 1.4c-1.9 0-2.6 2-2.6 4.1c0 2 .7 4 2.6 4c1.8 0 2.5-2 2.5-4c0-2.1-.7-4.1-2.5-4.1zm7.8.8L87 5.8l-1-.9L88.9 2h1.4v10.5h-1.6V4zm4.8 6.3c.5.6 1.1 1 2.2 1c2 0 2.9-1.9 2.9-3.8v-.4c-.5.7-1.7 1.6-2.9 1.6c-1.9 0-3.6-1.2-3.6-3.4c0-1.9 1.5-3.5 3.8-3.5c3.1 0 4.3 2.5 4.3 5.5c0 2.9-1.5 5.4-4.5 5.4c-1.3 0-2.3-.5-3-1.2l.8-1.2zM96 3.2c-1.5 0-2.2 1.1-2.2 2c0 1.5 1 2.1 2.3 2.1c.9 0 1.9-.5 2.4-1.4c-.1-1.2-.7-2.7-2.5-2.7zm6.2 6.8c.7.8 1.8 1.3 3 1.3c1.4 0 2.3-.7 2.3-1.8c0-1.2-.9-1.7-2.5-1.7c-.4 0-1 0-1.1.1V6.4h1.1c1.3 0 2.3-.4 2.3-1.5c0-1.1-1-1.7-2.2-1.7c-1.1 0-2 .4-2.8 1.2l-.8-1c.8-.9 2-1.6 3.7-1.6c2.2 0 3.7 1.1 3.7 2.8c0 1.5-1.2 2.3-2.3 2.5c1 .1 2.5.9 2.5 2.6c0 1.8-1.5 3-3.9 3c-1.8 0-3.2-.7-3.9-1.7l.9-1zm13.2 0h-5V8.7l4.4-6.7h2.2v6.6h1.4v1.4H117v2.5h-1.6V10zm-3.5-1.4h3.5V3.4l-3.5 5.2zM125 3.3h-5.6V2h7.4v1l-4.2 9.5h-1.8l4.2-9.2zm7.5-1.5c1.3 0 2.3.5 2.9 1.2l-.7 1.2c-.6-.6-1.2-1-2.2-1c-2 0-2.9 1.9-2.9 3.8v.4c.4-.7 1.6-1.6 2.9-1.6c1.9 0 3.5 1.2 3.5 3.4c0 1.9-1.5 3.5-3.8 3.5c-3.1 0-4.2-2.5-4.2-5.4c0-3 1.4-5.5 4.5-5.5zm-.4 5.4c-1 0-2 .6-2.5 1.4c.1 1.2.8 2.7 2.5 2.7c1.5 0 2.3-1.1 2.3-2c0-1.4-1.1-2.1-2.3-2.1zm9.5-5.4c2.9 0 4.1 2.8 4.1 5.5c0 2.6-1.2 5.4-4.1 5.4c-3 0-4.2-2.8-4.2-5.4c0-2.7 1.2-5.5 4.2-5.5zm0 1.4c-1.9 0-2.6 2-2.6 4.1c0 2 .7 4 2.6 4c1.8 0 2.5-2 2.5-4c0-2.1-.7-4.1-2.5-4.1z" stroke="none" fill="#88898a"/></g></svg>