<?xml version="1.0" standalone="no"?>
<!DOCTYPE svg PUBLIC "-//W3C//DTD SVG 1.1//EN" "http://www.w3.org/Graphics/SVG/1.1/DTD/svg11.dtd">
<svg xmlns="http://www.w3.org/2000/svg" version="1.1" width="237px" height="249.9px" viewBox="0 -6 237 249.9" style="top:-6px">
  <desc>Lorem Ipsum Lorem Ipsum Lorem Ipsum Lorem Ipsum Lorem Ipsum Lorem Ipsum Lorem Ipsum Lorem Ipsum</desc>
  <defs/>
  <g id="Polygon206703">
    <path d="M 151.5 224.3 L 152.4 224.3 L 152.4 234.1 L 157.6 234.1 L 157.6 234.9 L 151.5 234.9 L 151.5 224.3 Z M 158.5 231.1 C 158.5 228.8 159.9 227 162.2 227 C 164.4 227 165.9 228.8 165.9 231.1 C 165.9 233.3 164.4 235.1 162.2 235.1 C 159.9 235.1 158.5 233.3 158.5 231.1 Z M 165 231.1 C 165 229.4 164 227.8 162.2 227.8 C 160.4 227.8 159.4 229.4 159.4 231.1 C 159.4 232.8 160.4 234.3 162.2 234.3 C 164 234.3 165 232.8 165 231.1 Z M 167.8 227.2 L 168.7 227.2 C 168.7 227.2 168.67 228.55 168.7 228.5 C 169.3 227.7 170.2 227.1 171.3 227.1 C 171.3 227.1 171.3 228 171.3 228 C 171.1 228 171 227.9 170.8 227.9 C 170.1 227.9 169 228.6 168.7 229.3 C 168.67 229.31 168.7 234.9 168.7 234.9 L 167.8 234.9 L 167.8 227.2 Z M 176 227 C 178.3 227 179.6 228.9 179.6 231.1 C 179.6 231.1 179.6 231.3 179.6 231.3 C 179.6 231.3 173.18 231.33 173.2 231.3 C 173.3 233 174.4 234.4 176.2 234.4 C 177.2 234.4 178 234 178.7 233.3 C 178.7 233.3 179.1 233.9 179.1 233.9 C 178.4 234.6 177.4 235.1 176.1 235.1 C 173.9 235.1 172.3 233.4 172.3 231.1 C 172.3 228.8 173.8 227 176 227 Z M 173.2 230.7 C 173.2 230.7 178.8 230.7 178.8 230.7 C 178.7 229.4 177.9 227.8 176 227.8 C 174.2 227.8 173.2 229.3 173.2 230.7 Z M 190.7 229.5 C 190.7 228.5 190.2 227.8 189.2 227.8 C 188.3 227.8 187.4 228.4 187 229.1 C 186.97 229.09 187 234.9 187 234.9 L 186.1 234.9 C 186.1 234.9 186.13 229.53 186.1 229.5 C 186.1 228.5 185.7 227.8 184.6 227.8 C 183.8 227.8 182.9 228.4 182.4 229.1 C 182.39 229.1 182.4 234.9 182.4 234.9 L 181.6 234.9 L 181.6 227.2 L 182.4 227.2 C 182.4 227.2 182.39 228.39 182.4 228.4 C 182.7 227.9 183.8 227 184.9 227 C 186.1 227 186.7 227.7 186.9 228.5 C 187.3 227.8 188.3 227 189.4 227 C 190.8 227 191.5 227.8 191.5 229.4 C 191.53 229.37 191.5 234.9 191.5 234.9 L 190.7 234.9 C 190.7 234.9 190.7 229.53 190.7 229.5 Z M 197.9 224.3 L 198.8 224.3 L 198.8 234.9 L 197.9 234.9 L 197.9 224.3 Z M 201.3 237.8 L 201.3 227.2 L 202.1 227.2 C 202.1 227.2 202.1 228.45 202.1 228.5 C 202.6 227.7 203.6 227 204.8 227 C 206.8 227 208.2 228.6 208.2 231.1 C 208.2 233.5 206.8 235.1 204.8 235.1 C 203.7 235.1 202.7 234.5 202.1 233.7 C 202.1 233.66 202.1 237.8 202.1 237.8 L 201.3 237.8 Z M 204.6 227.8 C 203.6 227.8 202.5 228.4 202.1 229.2 C 202.1 229.2 202.1 232.9 202.1 232.9 C 202.5 233.7 203.6 234.3 204.6 234.3 C 206.3 234.3 207.3 232.9 207.3 231.1 C 207.3 229.2 206.3 227.8 204.6 227.8 Z M 210 233.3 C 210.5 233.9 211.4 234.4 212.5 234.4 C 213.8 234.4 214.5 233.8 214.5 232.9 C 214.5 231.9 213.5 231.6 212.4 231.3 C 211.1 231 209.7 230.7 209.7 229.2 C 209.7 228 210.7 227 212.4 227 C 213.7 227 214.6 227.5 215.2 228.2 C 215.2 228.2 214.7 228.8 214.7 228.8 C 214.3 228.1 213.4 227.7 212.4 227.7 C 211.2 227.7 210.5 228.3 210.5 229.1 C 210.5 230 211.5 230.2 212.5 230.5 C 213.9 230.8 215.3 231.2 215.3 232.8 C 215.3 234.1 214.4 235.1 212.5 235.1 C 211.2 235.1 210.3 234.7 209.5 233.9 C 209.5 233.9 210 233.3 210 233.3 Z M 222.5 233.8 C 221.8 234.5 220.8 235.1 219.7 235.1 C 218.1 235.1 217.3 234.4 217.3 232.6 C 217.3 232.63 217.3 227.2 217.3 227.2 L 218.1 227.2 C 218.1 227.2 218.13 232.44 218.1 232.4 C 218.1 233.9 218.9 234.3 220 234.3 C 221 234.3 222 233.8 222.5 233.1 C 222.48 233.07 222.5 227.2 222.5 227.2 L 223.3 227.2 L 223.3 234.9 L 222.5 234.9 C 222.5 234.9 222.48 233.77 222.5 233.8 Z M 234.9 229.5 C 234.9 228.5 234.4 227.8 233.3 227.8 C 232.5 227.8 231.5 228.4 231.1 229.1 C 231.12 229.09 231.1 234.9 231.1 234.9 L 230.3 234.9 C 230.3 234.9 230.28 229.53 230.3 229.5 C 230.3 228.5 229.8 227.8 228.7 227.8 C 227.9 227.8 227 228.4 226.5 229.1 C 226.55 229.1 226.5 234.9 226.5 234.9 L 225.7 234.9 L 225.7 227.2 L 226.5 227.2 C 226.5 227.2 226.55 228.39 226.5 228.4 C 226.9 227.9 227.9 227 229 227 C 230.2 227 230.8 227.7 231 228.5 C 231.5 227.8 232.5 227 233.6 227 C 235 227 235.7 227.8 235.7 229.4 C 235.68 229.37 235.7 234.9 235.7 234.9 L 234.9 234.9 C 234.9 234.9 234.85 229.53 234.9 229.5 Z " stroke="none" fill="#242423"/>
  </g>
  <g id="Polygon206702">
    <path d="M 151.5 192.5 L 152.4 192.5 L 152.4 202.3 L 157.6 202.3 L 157.6 203.1 L 151.5 203.1 L 151.5 192.5 Z M 158.5 199.3 C 158.5 197.1 159.9 195.3 162.2 195.3 C 164.4 195.3 165.9 197.1 165.9 199.3 C 165.9 201.5 164.4 203.3 162.2 203.3 C 159.9 203.3 158.5 201.5 158.5 199.3 Z M 165 199.3 C 165 197.6 164 196 162.2 196 C 160.4 196 159.4 197.6 159.4 199.3 C 159.4 201 160.4 202.6 162.2 202.6 C 164 202.6 165 201 165 199.3 Z M 167.8 195.5 L 168.7 195.5 C 168.7 195.5 168.67 196.78 168.7 196.8 C 169.3 195.9 170.2 195.3 171.3 195.3 C 171.3 195.3 171.3 196.2 171.3 196.2 C 171.1 196.2 171 196.2 170.8 196.2 C 170.1 196.2 169 196.9 168.7 197.5 C 168.67 197.54 168.7 203.1 168.7 203.1 L 167.8 203.1 L 167.8 195.5 Z M 176 195.3 C 178.3 195.3 179.6 197.1 179.6 199.3 C 179.6 199.34 179.6 199.6 179.6 199.6 C 179.6 199.6 173.18 199.56 173.2 199.6 C 173.3 201.2 174.4 202.6 176.2 202.6 C 177.2 202.6 178 202.2 178.7 201.5 C 178.7 201.5 179.1 202.1 179.1 202.1 C 178.4 202.9 177.4 203.3 176.1 203.3 C 173.9 203.3 172.3 201.7 172.3 199.3 C 172.3 197.1 173.8 195.3 176 195.3 Z M 173.2 198.9 C 173.2 198.9 178.8 198.9 178.8 198.9 C 178.7 197.6 177.9 196 176 196 C 174.2 196 173.2 197.6 173.2 198.9 Z M 190.7 197.8 C 190.7 196.7 190.2 196 189.2 196 C 188.3 196 187.4 196.6 187 197.3 C 186.97 197.32 187 203.1 187 203.1 L 186.1 203.1 C 186.1 203.1 186.13 197.77 186.1 197.8 C 186.1 196.7 185.7 196 184.6 196 C 183.8 196 182.9 196.6 182.4 197.3 C 182.39 197.34 182.4 203.1 182.4 203.1 L 181.6 203.1 L 181.6 195.5 L 182.4 195.5 C 182.4 195.5 182.39 196.62 182.4 196.6 C 182.7 196.1 183.8 195.3 184.9 195.3 C 186.1 195.3 186.7 196 186.9 196.7 C 187.3 196 188.3 195.3 189.4 195.3 C 190.8 195.3 191.5 196.1 191.5 197.6 C 191.53 197.61 191.5 203.1 191.5 203.1 L 190.7 203.1 C 190.7 203.1 190.7 197.77 190.7 197.8 Z M 197.9 192.5 L 198.8 192.5 L 198.8 203.1 L 197.9 203.1 L 197.9 192.5 Z M 201.3 206.1 L 201.3 195.5 L 202.1 195.5 C 202.1 195.5 202.1 196.69 202.1 196.7 C 202.6 195.9 203.6 195.3 204.8 195.3 C 206.8 195.3 208.2 196.8 208.2 199.3 C 208.2 201.7 206.8 203.3 204.8 203.3 C 203.7 203.3 202.7 202.8 202.1 201.9 C 202.1 201.9 202.1 206.1 202.1 206.1 L 201.3 206.1 Z M 204.6 196 C 203.6 196 202.5 196.7 202.1 197.4 C 202.1 197.4 202.1 201.2 202.1 201.2 C 202.5 201.9 203.6 202.6 204.6 202.6 C 206.3 202.6 207.3 201.2 207.3 199.3 C 207.3 197.4 206.3 196 204.6 196 Z M 210 201.5 C 210.5 202.1 211.4 202.6 212.5 202.6 C 213.8 202.6 214.5 202 214.5 201.1 C 214.5 200.1 213.5 199.8 212.4 199.5 C 211.1 199.2 209.7 198.9 209.7 197.4 C 209.7 196.2 210.7 195.3 212.4 195.3 C 213.7 195.3 214.6 195.8 215.2 196.4 C 215.2 196.4 214.7 197 214.7 197 C 214.3 196.4 213.4 196 212.4 196 C 211.2 196 210.5 196.6 210.5 197.4 C 210.5 198.2 211.5 198.5 212.5 198.7 C 213.9 199.1 215.3 199.4 215.3 201.1 C 215.3 202.3 214.4 203.3 212.5 203.3 C 211.2 203.3 210.3 203 209.5 202.1 C 209.5 202.1 210 201.5 210 201.5 Z M 222.5 202 C 221.8 202.7 220.8 203.3 219.7 203.3 C 218.1 203.3 217.3 202.6 217.3 200.9 C 217.3 200.87 217.3 195.5 217.3 195.5 L 218.1 195.5 C 218.1 195.5 218.13 200.67 218.1 200.7 C 218.1 202.2 218.9 202.6 220 202.6 C 221 202.6 222 202 222.5 201.3 C 222.48 201.31 222.5 195.5 222.5 195.5 L 223.3 195.5 L 223.3 203.1 L 222.5 203.1 C 222.5 203.1 222.48 202.01 222.5 202 Z M 234.9 197.8 C 234.9 196.7 234.4 196 233.3 196 C 232.5 196 231.5 196.6 231.1 197.3 C 231.12 197.32 231.1 203.1 231.1 203.1 L 230.3 203.1 C 230.3 203.1 230.28 197.77 230.3 197.8 C 230.3 196.7 229.8 196 228.7 196 C 227.9 196 227 196.6 226.5 197.3 C 226.55 197.34 226.5 203.1 226.5 203.1 L 225.7 203.1 L 225.7 195.5 L 226.5 195.5 C 226.5 195.5 226.55 196.62 226.5 196.6 C 226.9 196.1 227.9 195.3 229 195.3 C 230.2 195.3 230.8 196 231 196.7 C 231.5 196 232.5 195.3 233.6 195.3 C 235 195.3 235.7 196.1 235.7 197.6 C 235.68 197.61 235.7 203.1 235.7 203.1 L 234.9 203.1 C 234.9 203.1 234.85 197.77 234.9 197.8 Z " stroke="none" fill="#242423"/>
  </g>
  <g id="Polygon206701">
    <path d="M 151.5 160.8 L 152.4 160.8 L 152.4 170.5 L 157.6 170.5 L 157.6 171.4 L 151.5 171.4 L 151.5 160.8 Z M 158.5 167.5 C 158.5 165.3 159.9 163.5 162.2 163.5 C 164.4 163.5 165.9 165.3 165.9 167.5 C 165.9 169.8 164.4 171.6 162.2 171.6 C 159.9 171.6 158.5 169.8 158.5 167.5 Z M 165 167.5 C 165 165.8 164 164.3 162.2 164.3 C 160.4 164.3 159.4 165.8 159.4 167.5 C 159.4 169.2 160.4 170.8 162.2 170.8 C 164 170.8 165 169.2 165 167.5 Z M 167.8 163.7 L 168.7 163.7 C 168.7 163.7 168.67 165.02 168.7 165 C 169.3 164.2 170.2 163.5 171.3 163.5 C 171.3 163.5 171.3 164.4 171.3 164.4 C 171.1 164.4 171 164.4 170.8 164.4 C 170.1 164.4 169 165.1 168.7 165.8 C 168.67 165.78 168.7 171.4 168.7 171.4 L 167.8 171.4 L 167.8 163.7 Z M 176 163.5 C 178.3 163.5 179.6 165.4 179.6 167.6 C 179.6 167.57 179.6 167.8 179.6 167.8 C 179.6 167.8 173.18 167.8 173.2 167.8 C 173.3 169.5 174.4 170.8 176.2 170.8 C 177.2 170.8 178 170.5 178.7 169.8 C 178.7 169.8 179.1 170.3 179.1 170.3 C 178.4 171.1 177.4 171.6 176.1 171.6 C 173.9 171.6 172.3 169.9 172.3 167.5 C 172.3 165.3 173.8 163.5 176 163.5 Z M 173.2 167.1 C 173.2 167.1 178.8 167.1 178.8 167.1 C 178.7 165.8 177.9 164.2 176 164.2 C 174.2 164.2 173.2 165.8 173.2 167.1 Z M 190.7 166 C 190.7 164.9 190.2 164.3 189.2 164.3 C 188.3 164.3 187.4 164.9 187 165.6 C 186.97 165.56 187 171.4 187 171.4 L 186.1 171.4 C 186.1 171.4 186.13 166 186.1 166 C 186.1 164.9 185.7 164.3 184.6 164.3 C 183.8 164.3 182.9 164.9 182.4 165.6 C 182.39 165.57 182.4 171.4 182.4 171.4 L 181.6 171.4 L 181.6 163.7 L 182.4 163.7 C 182.4 163.7 182.39 164.86 182.4 164.9 C 182.7 164.4 183.8 163.5 184.9 163.5 C 186.1 163.5 186.7 164.2 186.9 165 C 187.3 164.2 188.3 163.5 189.4 163.5 C 190.8 163.5 191.5 164.3 191.5 165.8 C 191.53 165.84 191.5 171.4 191.5 171.4 L 190.7 171.4 C 190.7 171.4 190.7 166 190.7 166 Z M 197.9 160.8 L 198.8 160.8 L 198.8 171.4 L 197.9 171.4 L 197.9 160.8 Z M 201.3 174.3 L 201.3 163.7 L 202.1 163.7 C 202.1 163.7 202.1 164.92 202.1 164.9 C 202.6 164.1 203.6 163.5 204.8 163.5 C 206.8 163.5 208.2 165.1 208.2 167.5 C 208.2 170 206.8 171.6 204.8 171.6 C 203.7 171.6 202.7 171 202.1 170.1 C 202.1 170.13 202.1 174.3 202.1 174.3 L 201.3 174.3 Z M 204.6 164.3 C 203.6 164.3 202.5 164.9 202.1 165.6 C 202.1 165.6 202.1 169.4 202.1 169.4 C 202.5 170.1 203.6 170.8 204.6 170.8 C 206.3 170.8 207.3 169.4 207.3 167.5 C 207.3 165.7 206.3 164.3 204.6 164.3 Z M 210 169.7 C 210.5 170.4 211.4 170.9 212.5 170.9 C 213.8 170.9 214.5 170.2 214.5 169.3 C 214.5 168.4 213.5 168.1 212.4 167.8 C 211.1 167.5 209.7 167.1 209.7 165.6 C 209.7 164.5 210.7 163.5 212.4 163.5 C 213.7 163.5 214.6 164 215.2 164.7 C 215.2 164.7 214.7 165.2 214.7 165.2 C 214.3 164.6 213.4 164.2 212.4 164.2 C 211.2 164.2 210.5 164.8 210.5 165.6 C 210.5 166.5 211.5 166.7 212.5 167 C 213.9 167.3 215.3 167.7 215.3 169.3 C 215.3 170.5 214.4 171.6 212.5 171.6 C 211.2 171.6 210.3 171.2 209.5 170.4 C 209.5 170.4 210 169.7 210 169.7 Z M 222.5 170.2 C 221.8 170.9 220.8 171.6 219.7 171.6 C 218.1 171.6 217.3 170.8 217.3 169.1 C 217.3 169.1 217.3 163.7 217.3 163.7 L 218.1 163.7 C 218.1 163.7 218.13 168.91 218.1 168.9 C 218.1 170.4 218.9 170.8 220 170.8 C 221 170.8 222 170.2 222.5 169.5 C 222.48 169.55 222.5 163.7 222.5 163.7 L 223.3 163.7 L 223.3 171.4 L 222.5 171.4 C 222.5 171.4 222.48 170.24 222.5 170.2 Z M 234.9 166 C 234.9 164.9 234.4 164.3 233.3 164.3 C 232.5 164.3 231.5 164.9 231.1 165.6 C 231.12 165.56 231.1 171.4 231.1 171.4 L 230.3 171.4 C 230.3 171.4 230.28 166 230.3 166 C 230.3 164.9 229.8 164.3 228.7 164.3 C 227.9 164.3 227 164.9 226.5 165.6 C 226.55 165.57 226.5 171.4 226.5 171.4 L 225.7 171.4 L 225.7 163.7 L 226.5 163.7 C 226.5 163.7 226.55 164.86 226.5 164.9 C 226.9 164.4 227.9 163.5 229 163.5 C 230.2 163.5 230.8 164.2 231 165 C 231.5 164.2 232.5 163.5 233.6 163.5 C 235 163.5 235.7 164.3 235.7 165.8 C 235.68 165.84 235.7 171.4 235.7 171.4 L 234.9 171.4 C 234.9 171.4 234.85 166 234.9 166 Z " stroke="none" fill="#242423"/>
  </g>
  <g id="Polygon206700">
    <path d="M 151.5 129 L 152.4 129 L 152.4 138.8 L 157.6 138.8 L 157.6 139.6 L 151.5 139.6 L 151.5 129 Z M 158.5 135.8 C 158.5 133.5 159.9 131.7 162.2 131.7 C 164.4 131.7 165.9 133.5 165.9 135.8 C 165.9 138 164.4 139.8 162.2 139.8 C 159.9 139.8 158.5 138 158.5 135.8 Z M 165 135.8 C 165 134.1 164 132.5 162.2 132.5 C 160.4 132.5 159.4 134.1 159.4 135.8 C 159.4 137.5 160.4 139.1 162.2 139.1 C 164 139.1 165 137.5 165 135.8 Z M 167.8 131.9 L 168.7 131.9 C 168.7 131.9 168.67 133.25 168.7 133.3 C 169.3 132.4 170.2 131.8 171.3 131.8 C 171.3 131.8 171.3 132.7 171.3 132.7 C 171.1 132.7 171 132.6 170.8 132.6 C 170.1 132.6 169 133.3 168.7 134 C 168.67 134.01 168.7 139.6 168.7 139.6 L 167.8 139.6 L 167.8 131.9 Z M 176 131.7 C 178.3 131.7 179.6 133.6 179.6 135.8 C 179.6 135.81 179.6 136 179.6 136 C 179.6 136 173.18 136.03 173.2 136 C 173.3 137.7 174.4 139.1 176.2 139.1 C 177.2 139.1 178 138.7 178.7 138 C 178.7 138 179.1 138.6 179.1 138.6 C 178.4 139.4 177.4 139.8 176.1 139.8 C 173.9 139.8 172.3 138.1 172.3 135.8 C 172.3 133.5 173.8 131.7 176 131.7 Z M 173.2 135.4 C 173.2 135.4 178.8 135.4 178.8 135.4 C 178.7 134.1 177.9 132.5 176 132.5 C 174.2 132.5 173.2 134 173.2 135.4 Z M 190.7 134.2 C 190.7 133.2 190.2 132.5 189.2 132.5 C 188.3 132.5 187.4 133.1 187 133.8 C 186.97 133.79 187 139.6 187 139.6 L 186.1 139.6 C 186.1 139.6 186.13 134.24 186.1 134.2 C 186.1 133.2 185.7 132.5 184.6 132.5 C 183.8 132.5 182.9 133.1 182.4 133.8 C 182.39 133.81 182.4 139.6 182.4 139.6 L 181.6 139.6 L 181.6 131.9 L 182.4 131.9 C 182.4 131.9 182.39 133.09 182.4 133.1 C 182.7 132.6 183.8 131.7 184.9 131.7 C 186.1 131.7 186.7 132.4 186.9 133.2 C 187.3 132.5 188.3 131.7 189.4 131.7 C 190.8 131.7 191.5 132.5 191.5 134.1 C 191.53 134.08 191.5 139.6 191.5 139.6 L 190.7 139.6 C 190.7 139.6 190.7 134.24 190.7 134.2 Z M 197.9 129 L 198.8 129 L 198.8 139.6 L 197.9 139.6 L 197.9 129 Z M 201.3 142.5 L 201.3 131.9 L 202.1 131.9 C 202.1 131.9 202.1 133.16 202.1 133.2 C 202.6 132.4 203.6 131.7 204.8 131.7 C 206.8 131.7 208.2 133.3 208.2 135.8 C 208.2 138.2 206.8 139.8 204.8 139.8 C 203.7 139.8 202.7 139.2 202.1 138.4 C 202.1 138.37 202.1 142.5 202.1 142.5 L 201.3 142.5 Z M 204.6 132.5 C 203.6 132.5 202.5 133.1 202.1 133.9 C 202.1 133.9 202.1 137.7 202.1 137.7 C 202.5 138.4 203.6 139.1 204.6 139.1 C 206.3 139.1 207.3 137.6 207.3 135.8 C 207.3 133.9 206.3 132.5 204.6 132.5 Z M 210 138 C 210.5 138.6 211.4 139.1 212.5 139.1 C 213.8 139.1 214.5 138.5 214.5 137.6 C 214.5 136.6 213.5 136.3 212.4 136 C 211.1 135.7 209.7 135.4 209.7 133.9 C 209.7 132.7 210.7 131.7 212.4 131.7 C 213.7 131.7 214.6 132.3 215.2 132.9 C 215.2 132.9 214.7 133.5 214.7 133.5 C 214.3 132.9 213.4 132.4 212.4 132.4 C 211.2 132.4 210.5 133 210.5 133.8 C 210.5 134.7 211.5 134.9 212.5 135.2 C 213.9 135.5 215.3 135.9 215.3 137.5 C 215.3 138.8 214.4 139.8 212.5 139.8 C 211.2 139.8 210.3 139.4 209.5 138.6 C 209.5 138.6 210 138 210 138 Z M 222.5 138.5 C 221.8 139.2 220.8 139.8 219.7 139.8 C 218.1 139.8 217.3 139.1 217.3 137.3 C 217.3 137.34 217.3 131.9 217.3 131.9 L 218.1 131.9 C 218.1 131.9 218.13 137.15 218.1 137.1 C 218.1 138.6 218.9 139.1 220 139.1 C 221 139.1 222 138.5 222.5 137.8 C 222.48 137.78 222.5 131.9 222.5 131.9 L 223.3 131.9 L 223.3 139.6 L 222.5 139.6 C 222.5 139.6 222.48 138.48 222.5 138.5 Z M 234.9 134.2 C 234.9 133.2 234.4 132.5 233.3 132.5 C 232.5 132.5 231.5 133.1 231.1 133.8 C 231.12 133.79 231.1 139.6 231.1 139.6 L 230.3 139.6 C 230.3 139.6 230.28 134.24 230.3 134.2 C 230.3 133.2 229.8 132.5 228.7 132.5 C 227.9 132.5 227 133.1 226.5 133.8 C 226.55 133.81 226.5 139.6 226.5 139.6 L 225.7 139.6 L 225.7 131.9 L 226.5 131.9 C 226.5 131.9 226.55 133.09 226.5 133.1 C 226.9 132.6 227.9 131.7 229 131.7 C 230.2 131.7 230.8 132.4 231 133.2 C 231.5 132.5 232.5 131.7 233.6 131.7 C 235 131.7 235.7 132.5 235.7 134.1 C 235.68 134.08 235.7 139.6 235.7 139.6 L 234.9 139.6 C 234.9 139.6 234.85 134.24 234.9 134.2 Z " stroke="none" fill="#242423"/>
  </g>
  <g id="Polygon206699">
    <path d="M 151.5 97.2 L 152.4 97.2 L 152.4 107 L 157.6 107 L 157.6 107.8 L 151.5 107.8 L 151.5 97.2 Z M 158.5 104 C 158.5 101.8 159.9 100 162.2 100 C 164.4 100 165.9 101.8 165.9 104 C 165.9 106.2 164.4 108 162.2 108 C 159.9 108 158.5 106.2 158.5 104 Z M 165 104 C 165 102.3 164 100.7 162.2 100.7 C 160.4 100.7 159.4 102.3 159.4 104 C 159.4 105.7 160.4 107.3 162.2 107.3 C 164 107.3 165 105.7 165 104 Z M 167.8 100.2 L 168.7 100.2 C 168.7 100.2 168.67 101.49 168.7 101.5 C 169.3 100.6 170.2 100 171.3 100 C 171.3 100 171.3 100.9 171.3 100.9 C 171.1 100.9 171 100.9 170.8 100.9 C 170.1 100.9 169 101.6 168.7 102.2 C 168.67 102.25 168.7 107.8 168.7 107.8 L 167.8 107.8 L 167.8 100.2 Z M 176 100 C 178.3 100 179.6 101.8 179.6 104 C 179.6 104.04 179.6 104.3 179.6 104.3 C 179.6 104.3 173.18 104.27 173.2 104.3 C 173.3 105.9 174.4 107.3 176.2 107.3 C 177.2 107.3 178 107 178.7 106.3 C 178.7 106.3 179.1 106.8 179.1 106.8 C 178.4 107.6 177.4 108 176.1 108 C 173.9 108 172.3 106.4 172.3 104 C 172.3 101.8 173.8 100 176 100 Z M 173.2 103.6 C 173.2 103.6 178.8 103.6 178.8 103.6 C 178.7 102.3 177.9 100.7 176 100.7 C 174.2 100.7 173.2 102.3 173.2 103.6 Z M 190.7 102.5 C 190.7 101.4 190.2 100.7 189.2 100.7 C 188.3 100.7 187.4 101.3 187 102 C 186.97 102.03 187 107.8 187 107.8 L 186.1 107.8 C 186.1 107.8 186.13 102.47 186.1 102.5 C 186.1 101.4 185.7 100.7 184.6 100.7 C 183.8 100.7 182.9 101.3 182.4 102 C 182.39 102.04 182.4 107.8 182.4 107.8 L 181.6 107.8 L 181.6 100.2 L 182.4 100.2 C 182.4 100.2 182.39 101.33 182.4 101.3 C 182.7 100.8 183.8 100 184.9 100 C 186.1 100 186.7 100.7 186.9 101.4 C 187.3 100.7 188.3 100 189.4 100 C 190.8 100 191.5 100.8 191.5 102.3 C 191.53 102.31 191.5 107.8 191.5 107.8 L 190.7 107.8 C 190.7 107.8 190.7 102.47 190.7 102.5 Z M 197.9 97.2 L 198.8 97.2 L 198.8 107.8 L 197.9 107.8 L 197.9 97.2 Z M 201.3 110.8 L 201.3 100.2 L 202.1 100.2 C 202.1 100.2 202.1 101.39 202.1 101.4 C 202.6 100.6 203.6 100 204.8 100 C 206.8 100 208.2 101.5 208.2 104 C 208.2 106.4 206.8 108 204.8 108 C 203.7 108 202.7 107.5 202.1 106.6 C 202.1 106.6 202.1 110.8 202.1 110.8 L 201.3 110.8 Z M 204.6 100.7 C 203.6 100.7 202.5 101.4 202.1 102.1 C 202.1 102.1 202.1 105.9 202.1 105.9 C 202.5 106.6 203.6 107.3 204.6 107.3 C 206.3 107.3 207.3 105.9 207.3 104 C 207.3 102.1 206.3 100.7 204.6 100.7 Z M 210 106.2 C 210.5 106.8 211.4 107.3 212.5 107.3 C 213.8 107.3 214.5 106.7 214.5 105.8 C 214.5 104.8 213.5 104.5 212.4 104.3 C 211.1 103.9 209.7 103.6 209.7 102.1 C 209.7 100.9 210.7 100 212.4 100 C 213.7 100 214.6 100.5 215.2 101.1 C 215.2 101.1 214.7 101.7 214.7 101.7 C 214.3 101.1 213.4 100.7 212.4 100.7 C 211.2 100.7 210.5 101.3 210.5 102.1 C 210.5 102.9 211.5 103.2 212.5 103.4 C 213.9 103.8 215.3 104.1 215.3 105.8 C 215.3 107 214.4 108 212.5 108 C 211.2 108 210.3 107.7 209.5 106.8 C 209.5 106.8 210 106.2 210 106.2 Z M 222.5 106.7 C 221.8 107.4 220.8 108 219.7 108 C 218.1 108 217.3 107.3 217.3 105.6 C 217.3 105.57 217.3 100.2 217.3 100.2 L 218.1 100.2 C 218.1 100.2 218.13 105.38 218.1 105.4 C 218.1 106.9 218.9 107.3 220 107.3 C 221 107.3 222 106.7 222.5 106 C 222.48 106.02 222.5 100.2 222.5 100.2 L 223.3 100.2 L 223.3 107.8 L 222.5 107.8 C 222.5 107.8 222.48 106.71 222.5 106.7 Z M 234.9 102.5 C 234.9 101.4 234.4 100.7 233.3 100.7 C 232.5 100.7 231.5 101.3 231.1 102 C 231.12 102.03 231.1 107.8 231.1 107.8 L 230.3 107.8 C 230.3 107.8 230.28 102.47 230.3 102.5 C 230.3 101.4 229.8 100.7 228.7 100.7 C 227.9 100.7 227 101.3 226.5 102 C 226.55 102.04 226.5 107.8 226.5 107.8 L 225.7 107.8 L 225.7 100.2 L 226.5 100.2 C 226.5 100.2 226.55 101.33 226.5 101.3 C 226.9 100.8 227.9 100 229 100 C 230.2 100 230.8 100.7 231 101.4 C 231.5 100.7 232.5 100 233.6 100 C 235 100 235.7 100.8 235.7 102.3 C 235.68 102.31 235.7 107.8 235.7 107.8 L 234.9 107.8 C 234.9 107.8 234.85 102.47 234.9 102.5 Z " stroke="none" fill="#242423"/>
  </g>
  <g id="Polygon206698">
    <path d="M 151.5 65.5 L 152.4 65.5 L 152.4 75.3 L 157.6 75.3 L 157.6 76.1 L 151.5 76.1 L 151.5 65.5 Z M 158.5 72.2 C 158.5 70 159.9 68.2 162.2 68.2 C 164.4 68.2 165.9 70 165.9 72.2 C 165.9 74.5 164.4 76.3 162.2 76.3 C 159.9 76.3 158.5 74.5 158.5 72.2 Z M 165 72.2 C 165 70.5 164 69 162.2 69 C 160.4 69 159.4 70.5 159.4 72.2 C 159.4 73.9 160.4 75.5 162.2 75.5 C 164 75.5 165 73.9 165 72.2 Z M 167.8 68.4 L 168.7 68.4 C 168.7 68.4 168.67 69.72 168.7 69.7 C 169.3 68.9 170.2 68.2 171.3 68.2 C 171.3 68.2 171.3 69.2 171.3 69.2 C 171.1 69.1 171 69.1 170.8 69.1 C 170.1 69.1 169 69.8 168.7 70.5 C 168.67 70.48 168.7 76.1 168.7 76.1 L 167.8 76.1 L 167.8 68.4 Z M 176 68.2 C 178.3 68.2 179.6 70.1 179.6 72.3 C 179.6 72.28 179.6 72.5 179.6 72.5 C 179.6 72.5 173.18 72.5 173.2 72.5 C 173.3 74.2 174.4 75.6 176.2 75.6 C 177.2 75.6 178 75.2 178.7 74.5 C 178.7 74.5 179.1 75 179.1 75 C 178.4 75.8 177.4 76.3 176.1 76.3 C 173.9 76.3 172.3 74.6 172.3 72.2 C 172.3 70 173.8 68.2 176 68.2 Z M 173.2 71.9 C 173.2 71.9 178.8 71.9 178.8 71.9 C 178.7 70.5 177.9 68.9 176 68.9 C 174.2 68.9 173.2 70.5 173.2 71.9 Z M 190.7 70.7 C 190.7 69.6 190.2 69 189.2 69 C 188.3 69 187.4 69.6 187 70.3 C 186.97 70.26 187 76.1 187 76.1 L 186.1 76.1 C 186.1 76.1 186.13 70.71 186.1 70.7 C 186.1 69.6 185.7 69 184.6 69 C 183.8 69 182.9 69.6 182.4 70.3 C 182.39 70.28 182.4 76.1 182.4 76.1 L 181.6 76.1 L 181.6 68.4 L 182.4 68.4 C 182.4 68.4 182.39 69.56 182.4 69.6 C 182.7 69.1 183.8 68.2 184.9 68.2 C 186.1 68.2 186.7 68.9 186.9 69.7 C 187.3 68.9 188.3 68.2 189.4 68.2 C 190.8 68.2 191.5 69 191.5 70.5 C 191.53 70.55 191.5 76.1 191.5 76.1 L 190.7 76.1 C 190.7 76.1 190.7 70.71 190.7 70.7 Z M 197.9 65.5 L 198.8 65.5 L 198.8 76.1 L 197.9 76.1 L 197.9 65.5 Z M 201.3 79 L 201.3 68.4 L 202.1 68.4 C 202.1 68.4 202.1 69.63 202.1 69.6 C 202.6 68.8 203.6 68.2 204.8 68.2 C 206.8 68.2 208.2 69.8 208.2 72.2 C 208.2 74.7 206.8 76.3 204.8 76.3 C 203.7 76.3 202.7 75.7 202.1 74.8 C 202.1 74.84 202.1 79 202.1 79 L 201.3 79 Z M 204.6 69 C 203.6 69 202.5 69.6 202.1 70.3 C 202.1 70.3 202.1 74.1 202.1 74.1 C 202.5 74.9 203.6 75.5 204.6 75.5 C 206.3 75.5 207.3 74.1 207.3 72.2 C 207.3 70.4 206.3 69 204.6 69 Z M 210 74.4 C 210.5 75.1 211.4 75.6 212.5 75.6 C 213.8 75.6 214.5 74.9 214.5 74 C 214.5 73.1 213.5 72.8 212.4 72.5 C 211.1 72.2 209.7 71.8 209.7 70.3 C 209.7 69.2 210.7 68.2 212.4 68.2 C 213.7 68.2 214.6 68.7 215.2 69.4 C 215.2 69.4 214.7 69.9 214.7 69.9 C 214.3 69.3 213.4 68.9 212.4 68.9 C 211.2 68.9 210.5 69.5 210.5 70.3 C 210.5 71.2 211.5 71.4 212.5 71.7 C 213.9 72 215.3 72.4 215.3 74 C 215.3 75.3 214.4 76.3 212.5 76.3 C 211.2 76.3 210.3 75.9 209.5 75.1 C 209.5 75.1 210 74.4 210 74.4 Z M 222.5 74.9 C 221.8 75.6 220.8 76.3 219.7 76.3 C 218.1 76.3 217.3 75.5 217.3 73.8 C 217.3 73.81 217.3 68.4 217.3 68.4 L 218.1 68.4 C 218.1 68.4 218.13 73.62 218.1 73.6 C 218.1 75.1 218.9 75.5 220 75.5 C 221 75.5 222 74.9 222.5 74.3 C 222.48 74.25 222.5 68.4 222.5 68.4 L 223.3 68.4 L 223.3 76.1 L 222.5 76.1 C 222.5 76.1 222.48 74.95 222.5 74.9 Z M 234.9 70.7 C 234.9 69.6 234.4 69 233.3 69 C 232.5 69 231.5 69.6 231.1 70.3 C 231.12 70.26 231.1 76.1 231.1 76.1 L 230.3 76.1 C 230.3 76.1 230.28 70.71 230.3 70.7 C 230.3 69.6 229.8 69 228.7 69 C 227.9 69 227 69.6 226.5 70.3 C 226.55 70.28 226.5 76.1 226.5 76.1 L 225.7 76.1 L 225.7 68.4 L 226.5 68.4 C 226.5 68.4 226.55 69.56 226.5 69.6 C 226.9 69.1 227.9 68.2 229 68.2 C 230.2 68.2 230.8 68.9 231 69.7 C 231.5 68.9 232.5 68.2 233.6 68.2 C 235 68.2 235.7 69 235.7 70.5 C 235.68 70.55 235.7 76.1 235.7 76.1 L 234.9 76.1 C 234.9 76.1 234.85 70.71 234.9 70.7 Z " stroke="none" fill="#242423"/>
  </g>
  <g id="Polygon206697">
    <path d="M 151.5 33.7 L 152.4 33.7 L 152.4 43.5 L 157.6 43.5 L 157.6 44.3 L 151.5 44.3 L 151.5 33.7 Z M 158.5 40.5 C 158.5 38.2 159.9 36.5 162.2 36.5 C 164.4 36.5 165.9 38.2 165.9 40.5 C 165.9 42.7 164.4 44.5 162.2 44.5 C 159.9 44.5 158.5 42.7 158.5 40.5 Z M 165 40.5 C 165 38.8 164 37.2 162.2 37.2 C 160.4 37.2 159.4 38.8 159.4 40.5 C 159.4 42.2 160.4 43.8 162.2 43.8 C 164 43.8 165 42.2 165 40.5 Z M 167.8 36.6 L 168.7 36.6 C 168.7 36.6 168.67 37.96 168.7 38 C 169.3 37.1 170.2 36.5 171.3 36.5 C 171.3 36.5 171.3 37.4 171.3 37.4 C 171.1 37.4 171 37.4 170.8 37.4 C 170.1 37.4 169 38.1 168.7 38.7 C 168.67 38.72 168.7 44.3 168.7 44.3 L 167.8 44.3 L 167.8 36.6 Z M 176 36.5 C 178.3 36.5 179.6 38.3 179.6 40.5 C 179.6 40.52 179.6 40.7 179.6 40.7 C 179.6 40.7 173.18 40.74 173.2 40.7 C 173.3 42.4 174.4 43.8 176.2 43.8 C 177.2 43.8 178 43.4 178.7 42.7 C 178.7 42.7 179.1 43.3 179.1 43.3 C 178.4 44.1 177.4 44.5 176.1 44.5 C 173.9 44.5 172.3 42.8 172.3 40.5 C 172.3 38.2 173.8 36.5 176 36.5 Z M 173.2 40.1 C 173.2 40.1 178.8 40.1 178.8 40.1 C 178.7 38.8 177.9 37.2 176 37.2 C 174.2 37.2 173.2 38.8 173.2 40.1 Z M 190.7 38.9 C 190.7 37.9 190.2 37.2 189.2 37.2 C 188.3 37.2 187.4 37.8 187 38.5 C 186.97 38.5 187 44.3 187 44.3 L 186.1 44.3 C 186.1 44.3 186.13 38.94 186.1 38.9 C 186.1 37.9 185.7 37.2 184.6 37.2 C 183.8 37.2 182.9 37.8 182.4 38.5 C 182.39 38.51 182.4 44.3 182.4 44.3 L 181.6 44.3 L 181.6 36.6 L 182.4 36.6 C 182.4 36.6 182.39 37.8 182.4 37.8 C 182.7 37.3 183.8 36.5 184.9 36.5 C 186.1 36.5 186.7 37.1 186.9 37.9 C 187.3 37.2 188.3 36.5 189.4 36.5 C 190.8 36.5 191.5 37.2 191.5 38.8 C 191.53 38.78 191.5 44.3 191.5 44.3 L 190.7 44.3 C 190.7 44.3 190.7 38.94 190.7 38.9 Z M 197.9 33.7 L 198.8 33.7 L 198.8 44.3 L 197.9 44.3 L 197.9 33.7 Z M 201.3 47.2 L 201.3 36.6 L 202.1 36.6 C 202.1 36.6 202.1 37.86 202.1 37.9 C 202.6 37.1 203.6 36.5 204.8 36.5 C 206.8 36.5 208.2 38 208.2 40.5 C 208.2 42.9 206.8 44.5 204.8 44.5 C 203.7 44.5 202.7 43.9 202.1 43.1 C 202.1 43.07 202.1 47.2 202.1 47.2 L 201.3 47.2 Z M 204.6 37.2 C 203.6 37.2 202.5 37.8 202.1 38.6 C 202.1 38.6 202.1 42.4 202.1 42.4 C 202.5 43.1 203.6 43.8 204.6 43.8 C 206.3 43.8 207.3 42.3 207.3 40.5 C 207.3 38.6 206.3 37.2 204.6 37.2 Z M 210 42.7 C 210.5 43.3 211.4 43.8 212.5 43.8 C 213.8 43.8 214.5 43.2 214.5 42.3 C 214.5 41.3 213.5 41 212.4 40.7 C 211.1 40.4 209.7 40.1 209.7 38.6 C 209.7 37.4 210.7 36.5 212.4 36.5 C 213.7 36.5 214.6 37 215.2 37.6 C 215.2 37.6 214.7 38.2 214.7 38.2 C 214.3 37.6 213.4 37.1 212.4 37.1 C 211.2 37.1 210.5 37.7 210.5 38.5 C 210.5 39.4 211.5 39.6 212.5 39.9 C 213.9 40.2 215.3 40.6 215.3 42.2 C 215.3 43.5 214.4 44.5 212.5 44.5 C 211.2 44.5 210.3 44.1 209.5 43.3 C 209.5 43.3 210 42.7 210 42.7 Z M 222.5 43.2 C 221.8 43.9 220.8 44.5 219.7 44.5 C 218.1 44.5 217.3 43.8 217.3 42 C 217.3 42.04 217.3 36.6 217.3 36.6 L 218.1 36.6 C 218.1 36.6 218.13 41.85 218.1 41.9 C 218.1 43.3 218.9 43.8 220 43.8 C 221 43.8 222 43.2 222.5 42.5 C 222.48 42.49 222.5 36.6 222.5 36.6 L 223.3 36.6 L 223.3 44.3 L 222.5 44.3 C 222.5 44.3 222.48 43.19 222.5 43.2 Z M 234.9 38.9 C 234.9 37.9 234.4 37.2 233.3 37.2 C 232.5 37.2 231.5 37.8 231.1 38.5 C 231.12 38.5 231.1 44.3 231.1 44.3 L 230.3 44.3 C 230.3 44.3 230.28 38.94 230.3 38.9 C 230.3 37.9 229.8 37.2 228.7 37.2 C 227.9 37.2 227 37.8 226.5 38.5 C 226.55 38.51 226.5 44.3 226.5 44.3 L 225.7 44.3 L 225.7 36.6 L 226.5 36.6 C 226.5 36.6 226.55 37.8 226.5 37.8 C 226.9 37.3 227.9 36.5 229 36.5 C 230.2 36.5 230.8 37.1 231 37.9 C 231.5 37.2 232.5 36.5 233.6 36.5 C 235 36.5 235.7 37.2 235.7 38.8 C 235.68 38.78 235.7 44.3 235.7 44.3 L 234.9 44.3 C 234.9 44.3 234.85 38.94 234.9 38.9 Z " stroke="none" fill="#242423"/>
  </g>
  <g id="Polygon206696">
    <path d="M 151.5 2 L 152.4 2 L 152.4 11.7 L 157.6 11.7 L 157.6 12.5 L 151.5 12.5 L 151.5 2 Z M 158.5 8.7 C 158.5 6.5 159.9 4.7 162.2 4.7 C 164.4 4.7 165.9 6.5 165.9 8.7 C 165.9 10.9 164.4 12.7 162.2 12.7 C 159.9 12.7 158.5 10.9 158.5 8.7 Z M 165 8.7 C 165 7 164 5.4 162.2 5.4 C 160.4 5.4 159.4 7 159.4 8.7 C 159.4 10.4 160.4 12 162.2 12 C 164 12 165 10.4 165 8.7 Z M 167.8 4.9 L 168.7 4.9 C 168.7 4.9 168.67 6.19 168.7 6.2 C 169.3 5.3 170.2 4.7 171.3 4.7 C 171.3 4.7 171.3 5.6 171.3 5.6 C 171.1 5.6 171 5.6 170.8 5.6 C 170.1 5.6 169 6.3 168.7 7 C 168.67 6.96 168.7 12.5 168.7 12.5 L 167.8 12.5 L 167.8 4.9 Z M 176 4.7 C 178.3 4.7 179.6 6.5 179.6 8.8 C 179.6 8.75 179.6 9 179.6 9 C 179.6 9 173.18 8.97 173.2 9 C 173.3 10.6 174.4 12 176.2 12 C 177.2 12 178 11.7 178.7 11 C 178.7 11 179.1 11.5 179.1 11.5 C 178.4 12.3 177.4 12.7 176.1 12.7 C 173.9 12.7 172.3 11.1 172.3 8.7 C 172.3 6.5 173.8 4.7 176 4.7 Z M 173.2 8.3 C 173.2 8.3 178.8 8.3 178.8 8.3 C 178.7 7 177.9 5.4 176 5.4 C 174.2 5.4 173.2 7 173.2 8.3 Z M 190.7 7.2 C 190.7 6.1 190.2 5.4 189.2 5.4 C 188.3 5.4 187.4 6 187 6.7 C 186.97 6.73 187 12.5 187 12.5 L 186.1 12.5 C 186.1 12.5 186.13 7.18 186.1 7.2 C 186.1 6.1 185.7 5.4 184.6 5.4 C 183.8 5.4 182.9 6.1 182.4 6.7 C 182.39 6.75 182.4 12.5 182.4 12.5 L 181.6 12.5 L 181.6 4.9 L 182.4 4.9 C 182.4 4.9 182.39 6.03 182.4 6 C 182.7 5.5 183.8 4.7 184.9 4.7 C 186.1 4.7 186.7 5.4 186.9 6.1 C 187.3 5.4 188.3 4.7 189.4 4.7 C 190.8 4.7 191.5 5.5 191.5 7 C 191.53 7.02 191.5 12.5 191.5 12.5 L 190.7 12.5 C 190.7 12.5 190.7 7.18 190.7 7.2 Z M 197.9 2 L 198.8 2 L 198.8 12.5 L 197.9 12.5 L 197.9 2 Z M 201.3 15.5 L 201.3 4.9 L 202.1 4.9 C 202.1 4.9 202.1 6.1 202.1 6.1 C 202.6 5.3 203.6 4.7 204.8 4.7 C 206.8 4.7 208.2 6.2 208.2 8.7 C 208.2 11.2 206.8 12.7 204.8 12.7 C 203.7 12.7 202.7 12.2 202.1 11.3 C 202.1 11.31 202.1 15.5 202.1 15.5 L 201.3 15.5 Z M 204.6 5.4 C 203.6 5.4 202.5 6.1 202.1 6.8 C 202.1 6.8 202.1 10.6 202.1 10.6 C 202.5 11.3 203.6 12 204.6 12 C 206.3 12 207.3 10.6 207.3 8.7 C 207.3 6.8 206.3 5.4 204.6 5.4 Z M 210 10.9 C 210.5 11.5 211.4 12 212.5 12 C 213.8 12 214.5 11.4 214.5 10.5 C 214.5 9.5 213.5 9.2 212.4 9 C 211.1 8.6 209.7 8.3 209.7 6.8 C 209.7 5.6 210.7 4.7 212.4 4.7 C 213.7 4.7 214.6 5.2 215.2 5.8 C 215.2 5.8 214.7 6.4 214.7 6.4 C 214.3 5.8 213.4 5.4 212.4 5.4 C 211.2 5.4 210.5 6 210.5 6.8 C 210.5 7.6 211.5 7.9 212.5 8.1 C 213.9 8.5 215.3 8.8 215.3 10.5 C 215.3 11.7 214.4 12.7 212.5 12.7 C 211.2 12.7 210.3 12.4 209.5 11.5 C 209.5 11.5 210 10.9 210 10.9 Z M 222.5 11.4 C 221.8 12.1 220.8 12.7 219.7 12.7 C 218.1 12.7 217.3 12 217.3 10.3 C 217.3 10.28 217.3 4.9 217.3 4.9 L 218.1 4.9 C 218.1 4.9 218.13 10.09 218.1 10.1 C 218.1 11.6 218.9 12 220 12 C 221 12 222 11.4 222.5 10.7 C 222.48 10.72 222.5 4.9 222.5 4.9 L 223.3 4.9 L 223.3 12.5 L 222.5 12.5 C 222.5 12.5 222.48 11.42 222.5 11.4 Z M 234.9 7.2 C 234.9 6.1 234.4 5.4 233.3 5.4 C 232.5 5.4 231.5 6 231.1 6.7 C 231.12 6.73 231.1 12.5 231.1 12.5 L 230.3 12.5 C 230.3 12.5 230.28 7.18 230.3 7.2 C 230.3 6.1 229.8 5.4 228.7 5.4 C 227.9 5.4 227 6.1 226.5 6.7 C 226.55 6.75 226.5 12.5 226.5 12.5 L 225.7 12.5 L 225.7 4.9 L 226.5 4.9 C 226.5 4.9 226.55 6.03 226.5 6 C 226.9 5.5 227.9 4.7 229 4.7 C 230.2 4.7 230.8 5.4 231 6.1 C 231.5 5.4 232.5 4.7 233.6 4.7 C 235 4.7 235.7 5.5 235.7 7 C 235.68 7.02 235.7 12.5 235.7 12.5 L 234.9 12.5 C 234.9 12.5 234.85 7.18 234.9 7.2 Z " stroke="none" fill="#242423"/>
  </g>
</svg>