<?xml version="1.0" standalone="no"?><!DOCTYPE svg PUBLIC "-//W3C//DTD SVG 1.1//EN" "http://www.w3.org/Graphics/SVG/1.1/DTD/svg11.dtd"><svg xmlns="http://www.w3.org/2000/svg" version="1.1" width="77px" height="15.9px" viewBox="0 -4 77 15.9" style="top:-4px"><desc>62,876</desc><defs/><g id="Polygon111318"><path d="m47.3 7.2c-.02.01 0 .8 0 .8h-.4s-.04-.78 0-.8c-.9 0-1.6-.4-2.1-.9l.4-.4c.3.4.9.8 1.7.8V4.2C46 4 45 3.7 45 2.6c0-.9.8-1.5 1.9-1.6c-.04.02 0-.8 0-.8h.4s-.02.83 0 .8c.7.1 1.3.4 1.7.9l-.3.3c-.4-.4-.9-.6-1.4-.7v2.3c.9.2 1.9.6 1.9 1.7c0 .7-.5 1.6-1.9 1.7zm-.4-3.5V1.5c-.8 0-1.3.5-1.3 1.1c0 .6.6.8 1.3 1.1zm1.7 1.9c0-.8-.6-1.1-1.3-1.3v2.4c1 0 1.3-.7 1.3-1.1zM52.5 1c.8 0 1.2.3 1.6.8l-.3.4c-.3-.4-.7-.7-1.3-.7c-1.3 0-1.8 1.3-1.8 2.6v.3c.3-.4 1-1 1.8-1c1.1 0 1.9.6 1.9 1.9c0 1-.7 1.9-2 1.9c-1.6 0-2.2-1.5-2.2-3.1c0-1.5.6-3.1 2.3-3.1zm-.1 2.9c-.7 0-1.3.4-1.7 1c.1.8.5 1.9 1.7 1.9c1 0 1.5-.8 1.5-1.5c0-1-.7-1.4-1.5-1.4zm3 2.8c2.1-1.7 3.4-2.8 3.4-4c0-.9-.7-1.2-1.3-1.2c-.8 0-1.4.3-1.7.8l-.3-.4c.4-.5 1.1-.9 2-.9c.8 0 1.9.5 1.9 1.7c0 1.3-1.4 2.5-3.2 3.9c.02.04 3.2 0 3.2 0v.5h-4s.02-.41 0-.4zM60.7 8c.3-.2.5-.6.5-.8h-.1c-.2 0-.4-.2-.4-.4c0-.2.2-.4.4-.4c.3 0 .5.2.5.6c0 .5-.3 1-.7 1.2l-.2-.2zm3.5-4c-.8-.2-1.4-.6-1.4-1.4c0-1.1.9-1.6 1.9-1.6c.9 0 1.9.5 1.9 1.6c0 .8-.6 1.2-1.3 1.4c.7.2 1.4.8 1.4 1.6c0 1-.8 1.6-2 1.6c-1.2 0-2-.6-2-1.6c0-.8.7-1.4 1.5-1.6zm.5-2.5c-.8 0-1.4.4-1.4 1.1c0 .9 1 1.1 1.4 1.2c.4-.1 1.4-.3 1.4-1.2c0-.7-.6-1.1-1.4-1.1zm0 2.7c-.4.1-1.5.5-1.5 1.4c0 .7.7 1.2 1.5 1.2c.8 0 1.5-.5 1.5-1.2c0-.9-1.1-1.3-1.5-1.4zm6.2-2.6h-3.3v-.5h3.9v.4l-2.6 5.6h-.5l2.5-5.5zm3.7-.6c.8 0 1.3.3 1.6.8l-.3.4c-.3-.4-.6-.7-1.3-.7c-1.3 0-1.8 1.3-1.8 2.6v.3c.3-.4 1-1 1.8-1c1.1 0 1.9.6 1.9 1.9c0 1-.7 1.9-2 1.9c-1.6 0-2.2-1.5-2.2-3.1c0-1.5.6-3.1 2.3-3.1zm-.1 2.9c-.7 0-1.3.4-1.6 1c0 .8.5 1.9 1.6 1.9c1 0 1.5-.8 1.5-1.5c0-1-.6-1.4-1.5-1.4z" stroke="none" fill="#000"/></g></svg>