<?xml version="1.0" standalone="no"?><!DOCTYPE svg PUBLIC "-//W3C//DTD SVG 1.1//EN" "http://www.w3.org/Graphics/SVG/1.1/DTD/svg11.dtd"><svg xmlns="http://www.w3.org/2000/svg" version="1.1" width="198.3px" height="35.3px" viewBox="0 -1 198.3 35.3" style="top:-1px"><desc>SUBMIT OFFER</desc><defs/><g id="Polygon78139"><path d="m45.8 18.3c.7.8 1.8 1.5 3.3 1.5c1.7 0 2.3-.9 2.3-1.6c0-1.1-1.2-1.5-2.6-1.8c-1.7-.4-3.6-.9-3.6-3.1c0-1.7 1.5-3 3.7-3c1.7 0 2.9.5 3.9 1.5l-.9 1.1c-.8-.8-2-1.2-3.1-1.2c-1.2 0-2 .6-2 1.5c0 .9 1.2 1.2 2.5 1.6c1.7.4 3.7 1 3.7 3.2c0 1.7-1.1 3.2-4 3.2c-1.9 0-3.2-.7-4.2-1.7l1-1.2zm9.1-7.9h1.6s-.03 6.44 0 6.4c0 1.9 1 3 2.8 3c1.9 0 2.9-1.1 2.9-3c-.03.04 0-6.4 0-6.4h1.6s-.03 6.47 0 6.5c0 2.6-1.5 4.3-4.5 4.3c-2.9 0-4.4-1.7-4.4-4.3c-.03-.01 0-6.5 0-6.5zm11.2 0s5.01.04 5 0c1.9 0 3 1.2 3 2.7c0 1.4-.9 2.3-1.8 2.5c1.1.1 2 1.3 2 2.6c0 1.6-1.1 2.8-3.1 2.8c.04.03-5.1 0-5.1 0V10.4zm4.7 4.5c1.1 0 1.7-.6 1.7-1.5c0-.9-.6-1.6-1.7-1.6c.01.04-3.1 0-3.1 0v3.1s3.11.04 3.1 0zm.1 4.7c1.1 0 1.8-.6 1.8-1.6c0-.9-.6-1.7-1.8-1.7c-.01.03-3.2 0-3.2 0v3.3s3.19.04 3.2 0zm14.5-7L82 21h-.7l-3.4-8.4v8.4h-1.6V10.4h2.2l3.1 7.6l3.1-7.6h2.3V21h-1.6v-8.4zm3.9-2.2h1.6V21h-1.6V10.4zm6.6 1.4h-3.3v-1.4h8.1v1.4h-3.2v9.2h-1.6v-9.2zm15.5-1.5c3.1 0 5.3 2.3 5.3 5.4c0 3.2-2.2 5.5-5.3 5.5c-3.2 0-5.4-2.3-5.4-5.5c0-3.1 2.2-5.4 5.4-5.4zm0 1.4c-2.3 0-3.7 1.7-3.7 4c0 2.4 1.4 4.1 3.7 4.1c2.2 0 3.7-1.7 3.7-4.1c0-2.3-1.5-4-3.7-4zm7.2-1.3h7.1v1.4h-5.5v3.1h5.4v1.4h-5.4v4.7h-1.6V10.4zm8.9 0h7.1v1.4H129v3.1h5.5v1.4H129v4.7h-1.5V10.4zm8.8 0h7.1v1.4h-5.5v3.1h5.4v1.4h-5.4v3.3h5.5v1.4h-7.1V10.4zM149 17h-2v4h-1.6V10.4s4.44.04 4.4 0c2.1 0 3.4 1.3 3.4 3.3c0 1.9-1.2 2.9-2.6 3.1c.01-.01 2.7 4.2 2.7 4.2h-1.8l-2.5-4zm.6-5.2c.04.04-2.6 0-2.6 0v3.8s2.64-.05 2.6 0c1.2 0 2-.8 2-1.9c0-1.1-.8-1.9-2-1.9z" stroke="none" fill="#ffffff"/></g></svg>