<?xml version="1.0" standalone="no"?><!DOCTYPE svg PUBLIC "-//W3C//DTD SVG 1.1//EN" "http://www.w3.org/Graphics/SVG/1.1/DTD/svg11.dtd"><svg xmlns="http://www.w3.org/2000/svg" version="1.1" width="375px" height="46.5px" viewBox="0 -10 375 46.5" style="top:-10px"><desc>LOCATION OVERVIEW</desc><defs/><g id="Polygon289478"><path d="m105.6 22h-8.3V2.3h3.3v16.8h5v2.9zm6.3-20h.3c2.9 0 4.9 1.2 4.9 4.2v11.9c0 3-2 4.1-4.9 4.1h-.3c-3 0-4.9-1.1-4.9-4.1V6.2c0-3 1.9-4.2 4.9-4.2zm.1 17.4c1.1 0 1.8-.4 1.8-1.8V6.7c0-1.4-.7-1.8-1.8-1.8c-1 0-1.8.4-1.8 1.8v10.9c0 1.4.8 1.8 1.8 1.8zm17.4-1.3c0 3-1.9 4.1-4.9 4.1h-.1c-3 0-5-1.1-5-4.1V6.2c0-2.9 2-4.2 5-4.2h.1c3 0 4.9 1.3 4.9 4.2c.03.01 0 3.6 0 3.6h-3.2s-.04-3.08 0-3.1c0-1.4-.7-1.8-1.8-1.8c-1 0-1.7.4-1.7 1.8v10.9c0 1.3.7 1.8 1.7 1.8c1.1 0 1.8-.5 1.8-1.8c-.04-.04 0-3.6 0-3.6h3.2s.03 4.07 0 4.1zm8.5-.5h-3.6l-.7 4.4h-3.1l3.6-19.7h4.1L142 22h-3.4l-.7-4.4zm-.4-2.7l-1.4-8.8l-1.4 8.8h2.8zm13.3-9.8h-3.3V22h-3.2V5.1H141V2.3h9.8v2.8zm1.6 16.9V2.3h3.2V22h-3.2zm10.7-20h.3c3 0 4.9 1.2 4.9 4.2v11.9c0 3-1.9 4.1-4.9 4.1h-.3c-2.9 0-4.9-1.1-4.9-4.1V6.2c0-3 2-4.2 4.9-4.2zm.2 17.4c1 0 1.8-.4 1.8-1.8V6.7c0-1.4-.8-1.8-1.8-1.8c-1.1 0-1.8.4-1.8 1.8v10.9c0 1.4.7 1.8 1.8 1.8zm7.5 2.6V2.3h3.2l4.2 12.2V2.3h3V22h-3.1l-4.3-12.8V22h-3zm22-20h.2c3 0 5 1.2 5 4.2v11.9c0 3-2 4.1-5 4.1h-.2c-3 0-4.9-1.1-4.9-4.1V6.2c0-3 1.9-4.2 4.9-4.2zm.1 17.4c1.1 0 1.8-.4 1.8-1.8V6.7c0-1.4-.7-1.8-1.8-1.8c-1 0-1.8.4-1.8 1.8v10.9c0 1.4.8 1.8 1.8 1.8zm13.5 2.6h-3.6l-3.7-19.7h3.3l2.3 14.6L207 2.3h3.2L206.4 22zm5.1 0V2.3h8.7v2.8h-5.4v5.5h4.5v2.8h-4.5v5.7h5.5v2.9h-8.8zm18.2 0l-2.5-7.9h-1.6v7.9h-3.3V2.3s5.11-.04 5.1 0c3 0 5 1.1 5 4.1v3.6c0 1.9-.8 3-2.2 3.6c.03.04 2.9 8.4 2.9 8.4h-3.4zm-4.1-10.7s1.7.02 1.7 0c1.1 0 1.8-.4 1.8-1.8V6.9c0-1.4-.7-1.8-1.8-1.8c0 .04-1.7 0-1.7 0v6.2zM240.8 22h-3.6l-3.7-19.7h3.3l2.3 14.6l2.3-14.6h3.1L240.8 22zm5.2 0V2.3h3.3V22H246zm5.9 0V2.3h8.7v2.8h-5.4v5.5h4.5v2.8h-4.5v5.7h5.5v2.9h-8.8zm24.1 0h-3l-2.6-13.5l-2.5 13.5h-3.2l-3.1-19.7h3.2l1.6 14.1L269 2.3h2.9l2.5 14.1l1.7-14.1h3L276 22z" stroke="none" fill="#282828"/></g></svg>