<?xml version="1.0" standalone="no"?>
<!DOCTYPE svg PUBLIC "-//W3C//DTD SVG 1.1//EN" "http://www.w3.org/Graphics/SVG/1.1/DTD/svg11.dtd">
<svg xmlns="http://www.w3.org/2000/svg" version="1.1" width="79px" height="65.9px" viewBox="0 -11 79 65.9" style="top:-11px">
  <desc>Agent 1</desc>
  <defs/>
  <g id="Polygon206567">
    <path d="M 18.6 35.7 L 20.2 35.7 L 20.2 44.9 L 25 44.9 L 25 46.3 L 18.6 46.3 L 18.6 35.7 Z M 25.9 42.4 C 25.9 40.2 27.4 38.4 29.8 38.4 C 32.2 38.4 33.7 40.2 33.7 42.4 C 33.7 44.7 32.2 46.5 29.8 46.5 C 27.4 46.5 25.9 44.7 25.9 42.4 Z M 32.2 42.4 C 32.2 41 31.3 39.7 29.8 39.7 C 28.3 39.7 27.4 41 27.4 42.4 C 27.4 43.9 28.3 45.2 29.8 45.2 C 31.3 45.2 32.2 43.9 32.2 42.4 Z M 35.5 38.6 L 36.9 38.6 C 36.9 38.6 36.91 39.77 36.9 39.8 C 37.5 39 38.4 38.4 39.4 38.4 C 39.4 38.4 39.4 39.9 39.4 39.9 C 39.3 39.8 39.1 39.8 38.9 39.8 C 38.2 39.8 37.2 40.4 36.9 40.9 C 36.91 40.93 36.9 46.3 36.9 46.3 L 35.5 46.3 L 35.5 38.6 Z M 44.2 38.4 C 46.5 38.4 48 40.2 48 42.6 C 47.95 42.55 48 42.9 48 42.9 C 48 42.9 41.89 42.9 41.9 42.9 C 42 44.2 42.9 45.3 44.5 45.3 C 45.3 45.3 46.2 45 46.8 44.4 C 46.8 44.4 47.4 45.3 47.4 45.3 C 46.7 46.1 45.6 46.5 44.3 46.5 C 42.1 46.5 40.4 44.8 40.4 42.4 C 40.4 40.2 42 38.4 44.2 38.4 Z M 41.9 41.9 C 41.9 41.9 46.6 41.9 46.6 41.9 C 46.5 40.9 45.8 39.6 44.2 39.6 C 42.7 39.6 41.9 40.8 41.9 41.9 Z M 59.1 41.2 C 59.1 40.3 58.7 39.7 57.7 39.7 C 57 39.7 56.2 40.2 55.8 40.8 C 55.83 40.77 55.8 46.3 55.8 46.3 L 54.4 46.3 C 54.4 46.3 54.4 41.16 54.4 41.2 C 54.4 40.3 54 39.7 53.1 39.7 C 52.3 39.7 51.6 40.2 51.2 40.8 C 51.18 40.79 51.2 46.3 51.2 46.3 L 49.7 46.3 L 49.7 38.6 L 51.2 38.6 C 51.2 38.6 51.18 39.68 51.2 39.7 C 51.5 39.2 52.5 38.4 53.7 38.4 C 54.8 38.4 55.5 39 55.7 39.8 C 56.2 39.1 57.2 38.4 58.3 38.4 C 59.7 38.4 60.5 39.2 60.5 40.7 C 60.5 40.73 60.5 46.3 60.5 46.3 L 59.1 46.3 C 59.1 46.3 59.07 41.16 59.1 41.2 Z " stroke="none" fill="#3797ef"/>
  </g>
  <g id="Polygon206566">
    <path d="M 22.1 9.3 C 22.1 9.3 22.1 21.1 22.1 21.1 C 22.1 24.1 20.3 25.3 17.4 25.3 C 17.4 25.3 17.1 25.3 17.1 25.3 C 14.2 25.3 12.4 24.1 12.4 21.1 C 12.4 21.1 12.4 9.3 12.4 9.3 C 12.4 6.3 14.2 5.1 17.1 5.1 C 17.1 5.1 17.4 5.1 17.4 5.1 C 20.3 5.1 22.1 6.3 22.1 9.3 Z M 17.2 8 C 16.2 8 15.6 8.4 15.6 9.8 C 15.6 9.8 15.6 20.6 15.6 20.6 C 15.6 22 16.2 22.4 17.2 22.4 C 18.3 22.4 18.9 22 18.9 20.6 C 18.9 20.6 18.9 9.8 18.9 9.8 C 18.9 8.4 18.3 8 17.2 8 Z M 27.8 25.1 L 24.5 25.1 L 24.5 21.4 L 27.8 21.4 L 27.8 25.1 Z M 39.9 9.3 C 39.9 9.3 39.9 21.1 39.9 21.1 C 39.9 24.1 38.1 25.3 35.1 25.3 C 35.1 25.3 34.9 25.3 34.9 25.3 C 32 25.3 30.2 24.1 30.2 21.1 C 30.2 21.1 30.2 9.3 30.2 9.3 C 30.2 6.3 32 5.1 34.9 5.1 C 34.9 5.1 35.1 5.1 35.1 5.1 C 38.1 5.1 39.9 6.3 39.9 9.3 Z M 35 8 C 34 8 33.3 8.4 33.3 9.8 C 33.3 9.8 33.3 20.6 33.3 20.6 C 33.3 22 34 22.4 35 22.4 C 36.1 22.4 36.7 22 36.7 20.6 C 36.7 20.6 36.7 9.8 36.7 9.8 C 36.7 8.4 36.1 8 35 8 Z M 52.2 9.3 C 52.2 9.3 52.2 21.1 52.2 21.1 C 52.2 24.1 50.4 25.3 47.5 25.3 C 47.5 25.3 47.2 25.3 47.2 25.3 C 44.3 25.3 42.5 24.1 42.5 21.1 C 42.5 21.1 42.5 9.3 42.5 9.3 C 42.5 6.3 44.3 5.1 47.2 5.1 C 47.2 5.1 47.5 5.1 47.5 5.1 C 50.4 5.1 52.2 6.3 52.2 9.3 Z M 47.3 8 C 46.3 8 45.7 8.4 45.7 9.8 C 45.7 9.8 45.7 20.6 45.7 20.6 C 45.7 22 46.3 22.4 47.3 22.4 C 48.4 22.4 49 22 49 20.6 C 49 20.6 49 9.8 49 9.8 C 49 8.4 48.4 8 47.3 8 Z M 59.7 7.6 C 59.7 7.6 59.7 11.3 59.7 11.3 C 59.7 13 58.6 13.6 57.3 13.6 C 57.3 13.6 56.8 13.6 56.8 13.6 C 55.5 13.6 54.3 13 54.3 11.3 C 54.3 11.3 54.3 7.6 54.3 7.6 C 54.3 5.9 55.5 5.2 56.8 5.2 C 56.8 5.2 57.3 5.2 57.3 5.2 C 58.6 5.2 59.7 5.9 59.7 7.6 Z M 57 25.1 L 55.2 25.1 L 64.4 5.3 L 66.2 5.3 L 57 25.1 Z M 57.1 6.9 C 57.1 6.9 56.9 6.9 56.9 6.9 C 56.5 6.9 56.2 7.2 56.2 7.9 C 56.2 7.9 56.2 10.9 56.2 10.9 C 56.2 11.7 56.5 11.9 56.9 11.9 C 56.9 11.9 57.1 11.9 57.1 11.9 C 57.6 11.9 57.9 11.7 57.9 10.9 C 57.9 10.9 57.9 7.9 57.9 7.9 C 57.9 7.2 57.6 6.9 57.1 6.9 Z M 67.1 19.1 C 67.1 19.1 67.1 22.9 67.1 22.9 C 67.1 24.5 66 25.2 64.7 25.2 C 64.7 25.2 64.2 25.2 64.2 25.2 C 62.8 25.2 61.7 24.5 61.7 22.9 C 61.7 22.9 61.7 19.1 61.7 19.1 C 61.7 17.5 62.8 16.8 64.2 16.8 C 64.2 16.8 64.7 16.8 64.7 16.8 C 66 16.8 67.1 17.5 67.1 19.1 Z M 64.5 18.5 C 64.5 18.5 64.3 18.5 64.3 18.5 C 63.9 18.5 63.6 18.8 63.6 19.5 C 63.6 19.5 63.6 22.5 63.6 22.5 C 63.6 23.2 63.9 23.5 64.3 23.5 C 64.3 23.5 64.5 23.5 64.5 23.5 C 65 23.5 65.3 23.2 65.3 22.5 C 65.3 22.5 65.3 19.5 65.3 19.5 C 65.3 18.8 65 18.5 64.5 18.5 Z " stroke="none" fill="#282828"/>
  </g>
</svg>