<?xml version="1.0" standalone="no"?><!DOCTYPE svg PUBLIC "-//W3C//DTD SVG 1.1//EN" "http://www.w3.org/Graphics/SVG/1.1/DTD/svg11.dtd"><svg xmlns="http://www.w3.org/2000/svg" version="1.1" width="343px" height="46.5px" viewBox="0 -10 343 46.5" style="top:-10px"><desc>Property photos</desc><defs/><g id="Polygon289809"><path d="m98.6 6.4v3.8c0 3-2 4.2-5 4.2c0-.03-1.8 0-1.8 0v7.6h-3.3V2.3s5.1-.04 5.1 0c3 0 5 1.1 5 4.1zm-3.3.5c0-1.4-.7-1.8-1.8-1.8c-.01.04-1.7 0-1.7 0v6.4s1.69-.01 1.7 0c1.1 0 1.8-.4 1.8-1.8V6.9zM107.8 22l-2.5-7.9h-1.6v7.9h-3.3V2.3s5.09-.04 5.1 0c3 0 5 1.1 5 4.1v3.6c0 1.9-.8 3-2.2 3.6l2.8 8.4h-3.3zm-4.1-10.7s1.67.02 1.7 0c1 0 1.8-.4 1.8-1.8V6.9c0-1.4-.8-1.8-1.8-1.8c-.03.04-1.7 0-1.7 0v6.2zM117.5 2h.2c3 0 5 1.2 5 4.2v11.9c0 3-2 4.1-5 4.1h-.2c-3 0-5-1.1-5-4.1V6.2c0-3 2-4.2 5-4.2zm.1 17.4c1.1 0 1.8-.4 1.8-1.8V6.7c0-1.4-.7-1.8-1.8-1.8c-1 0-1.8.4-1.8 1.8v10.9c0 1.4.8 1.8 1.8 1.8zm17.6-13v3.8c0 3-2 4.2-5 4.2c.05-.03-1.8 0-1.8 0v7.6h-3.3V2.3s5.15-.04 5.1 0c3 0 5 1.1 5 4.1zm-3.3.5c0-1.4-.7-1.8-1.8-1.8c.04.04-1.7 0-1.7 0v6.4s1.74-.01 1.7 0c1.1 0 1.8-.4 1.8-1.8V6.9zM137 22V2.3h8.7v2.8h-5.4v5.5h4.5v2.8h-4.5v5.7h5.5v2.9H137zm18.2 0l-2.5-7.9h-1.6v7.9h-3.3V2.3s5.12-.04 5.1 0c3 0 5 1.1 5 4.1v3.6c0 1.9-.8 3-2.2 3.6c.05.04 2.9 8.4 2.9 8.4h-3.4zm-4.1-10.7s1.71.02 1.7 0c1.1 0 1.8-.4 1.8-1.8V6.9c0-1.4-.7-1.8-1.8-1.8c.01.04-1.7 0-1.7 0v6.2zm17.7-6.2h-3.3V22h-3.2V5.1H159V2.3h9.8v2.8zm7.5 16.9h-3.2v-7l-4-12.7h3.4l2.2 9.1l2.2-9.1h3.4l-4 12.7v7zm19.4-15.6v3.8c0 3-2 4.2-5 4.2c.03-.03-1.8 0-1.8 0v7.6h-3.3V2.3s5.13-.04 5.1 0c3 0 5 1.1 5 4.1zm-3.3.5c0-1.4-.7-1.8-1.8-1.8c.02.04-1.7 0-1.7 0v6.4s1.72-.01 1.7 0c1.1 0 1.8-.4 1.8-1.8V6.9zm8.4-4.6v8.2h3.7V2.3h3.3V22h-3.3v-8.6h-3.7v8.6h-3.3V2.3h3.3zm14.4-.3h.2c3 0 5 1.2 5 4.2v11.9c0 3-2 4.1-5 4.1h-.2c-3 0-5-1.1-5-4.1V6.2c0-3 2-4.2 5-4.2zm.1 17.4c1.1 0 1.8-.4 1.8-1.8V6.7c0-1.4-.7-1.8-1.8-1.8c-1.1 0-1.8.4-1.8 1.8v10.9c0 1.4.7 1.8 1.8 1.8zm16.2-14.3h-3.3V22h-3.3V5.1h-3.3V2.3h9.9v2.8zm6.1-3.1h.3c2.9 0 4.9 1.2 4.9 4.2v11.9c0 3-2 4.1-4.9 4.1h-.3c-3 0-4.9-1.1-4.9-4.1V6.2c0-3 1.9-4.2 4.9-4.2zm.1 17.4c1.1 0 1.8-.4 1.8-1.8V6.7c0-1.4-.7-1.8-1.8-1.8c-1 0-1.8.4-1.8 1.8v10.9c0 1.4.8 1.8 1.8 1.8zm13.7-10.1V6.6c0-1.3-.7-1.7-1.7-1.7c-.9 0-1.6.4-1.6 1.7v1.3c0 1 .3 1.5 1.2 2l2.4 1.3c1.9 1.1 3 2 3 4.1v2.8c0 3.1-1.9 4.1-4.9 4.1h-.1c-3 0-4.8-1-4.8-4.1c-.04.03 0-3.4 0-3.4h3.2s-.03 2.98 0 3c0 1.2.7 1.7 1.7 1.7c1 0 1.7-.5 1.7-1.7v-1.6c0-1-.3-1.5-1.3-2l-2.3-1.3c-1.9-1.1-3-2-3-4.1V6.1c0-2.9 2.1-4.1 4.8-4.1h.1c2.7 0 4.8 1.2 4.8 4.1c.03 0 0 3.2 0 3.2h-3.2z" stroke="none" fill="#282828"/></g></svg>