<?xml version="1.0" standalone="no"?>
<!DOCTYPE svg PUBLIC "-//W3C//DTD SVG 1.1//EN" "http://www.w3.org/Graphics/SVG/1.1/DTD/svg11.dtd">
<svg xmlns="http://www.w3.org/2000/svg" version="1.1" width="158px" height="27.9px" viewBox="0 -6 158 27.9" style="top:-6px">
  <desc>Lease Expiration</desc>
  <defs/>
  <g id="Polygon278187">
    <path d="M 1.2 2 L 2.8 2 L 2.8 11.2 L 7.6 11.2 L 7.6 12.5 L 1.2 12.5 L 1.2 2 Z M 12.4 4.7 C 14.7 4.7 16.1 6.5 16.1 8.8 C 16.1 8.83 16.1 9.2 16.1 9.2 C 16.1 9.2 10.04 9.18 10 9.2 C 10.1 10.5 11.1 11.6 12.6 11.6 C 13.5 11.6 14.3 11.2 14.9 10.7 C 14.9 10.7 15.6 11.6 15.6 11.6 C 14.8 12.3 13.7 12.7 12.5 12.7 C 10.2 12.7 8.5 11.1 8.5 8.7 C 8.5 6.5 10.1 4.7 12.4 4.7 Z M 10 8.1 C 10 8.1 14.7 8.1 14.7 8.1 C 14.7 7.1 14 5.9 12.4 5.9 C 10.8 5.9 10.1 7.1 10 8.1 Z M 22.6 11.7 C 22 12.4 21.2 12.7 20.1 12.7 C 18.9 12.7 17.5 11.9 17.5 10.2 C 17.5 8.4 18.8 7.7 20.1 7.7 C 21.2 7.7 22 8 22.6 8.7 C 22.6 8.7 22.6 7.4 22.6 7.4 C 22.6 6.5 21.9 5.9 20.8 5.9 C 19.9 5.9 19.1 6.2 18.5 6.9 C 18.5 6.9 17.8 5.9 17.8 5.9 C 18.7 5.1 19.7 4.7 21 4.7 C 22.6 4.7 24.1 5.4 24.1 7.4 C 24.06 7.37 24.1 12.5 24.1 12.5 L 22.6 12.5 C 22.6 12.5 22.63 11.71 22.6 11.7 Z M 22.6 9.6 C 22.2 9 21.5 8.7 20.7 8.7 C 19.6 8.7 18.9 9.3 18.9 10.2 C 18.9 11.1 19.6 11.7 20.7 11.7 C 21.5 11.7 22.2 11.4 22.6 10.9 C 22.6 10.9 22.6 9.6 22.6 9.6 Z M 26.4 10.5 C 26.9 11.1 27.9 11.6 28.9 11.6 C 30 11.6 30.6 11.2 30.6 10.5 C 30.6 9.7 29.7 9.5 28.7 9.3 C 27.4 9 25.9 8.6 25.9 7 C 25.9 5.7 27 4.7 28.8 4.7 C 30.1 4.7 31.1 5.2 31.7 5.8 C 31.7 5.8 31.1 6.8 31.1 6.8 C 30.7 6.2 29.8 5.8 28.8 5.8 C 27.9 5.8 27.3 6.2 27.3 6.8 C 27.3 7.5 28.1 7.7 29 8 C 30.4 8.3 32 8.6 32 10.4 C 32 11.7 30.9 12.7 28.9 12.7 C 27.6 12.7 26.5 12.3 25.7 11.5 C 25.7 11.5 26.4 10.5 26.4 10.5 Z M 37.1 4.7 C 39.5 4.7 40.9 6.5 40.9 8.8 C 40.88 8.83 40.9 9.2 40.9 9.2 C 40.9 9.2 34.81 9.18 34.8 9.2 C 34.9 10.5 35.9 11.6 37.4 11.6 C 38.2 11.6 39.1 11.2 39.7 10.7 C 39.7 10.7 40.4 11.6 40.4 11.6 C 39.6 12.3 38.5 12.7 37.3 12.7 C 35 12.7 33.3 11.1 33.3 8.7 C 33.3 6.5 34.9 4.7 37.1 4.7 Z M 34.8 8.1 C 34.8 8.1 39.5 8.1 39.5 8.1 C 39.5 7.1 38.8 5.9 37.1 5.9 C 35.6 5.9 34.9 7.1 34.8 8.1 Z M 46.8 2 L 53.9 2 L 53.9 3.4 L 48.4 3.4 L 48.4 6.4 L 53.8 6.4 L 53.8 7.8 L 48.4 7.8 L 48.4 11.2 L 53.9 11.2 L 53.9 12.5 L 46.8 12.5 L 46.8 2 Z M 58.6 9.6 L 56.5 12.5 L 54.9 12.5 L 57.7 8.6 L 55 4.9 L 56.7 4.9 L 58.6 7.6 L 60.6 4.9 L 62.2 4.9 L 59.5 8.6 L 62.4 12.5 L 60.8 12.5 L 58.6 9.6 Z M 63.7 15.5 L 63.7 4.9 L 65.1 4.9 C 65.1 4.9 65.1 5.97 65.1 6 C 65.7 5.2 66.6 4.7 67.6 4.7 C 69.6 4.7 71 6.2 71 8.7 C 71 11.2 69.6 12.7 67.6 12.7 C 66.6 12.7 65.7 12.3 65.1 11.4 C 65.1 11.44 65.1 15.5 65.1 15.5 L 63.7 15.5 Z M 67.2 6 C 66.4 6 65.5 6.5 65.1 7.1 C 65.1 7.1 65.1 10.3 65.1 10.3 C 65.5 10.9 66.4 11.5 67.2 11.5 C 68.7 11.5 69.5 10.3 69.5 8.7 C 69.5 7.1 68.7 6 67.2 6 Z M 72.6 2.7 C 72.6 2.2 73 1.8 73.5 1.8 C 74 1.8 74.5 2.2 74.5 2.7 C 74.5 3.2 74 3.6 73.5 3.6 C 73 3.6 72.6 3.2 72.6 2.7 Z M 72.8 4.9 L 74.3 4.9 L 74.3 12.5 L 72.8 12.5 L 72.8 4.9 Z M 76.5 4.9 L 78 4.9 C 78 4.9 77.96 6.05 78 6.1 C 78.6 5.3 79.5 4.7 80.5 4.7 C 80.5 4.7 80.5 6.1 80.5 6.1 C 80.3 6.1 80.2 6.1 80 6.1 C 79.3 6.1 78.3 6.6 78 7.2 C 77.96 7.21 78 12.5 78 12.5 L 76.5 12.5 L 76.5 4.9 Z M 86.6 11.7 C 86 12.4 85.2 12.7 84.1 12.7 C 82.9 12.7 81.5 11.9 81.5 10.2 C 81.5 8.4 82.8 7.7 84.1 7.7 C 85.2 7.7 86.1 8 86.6 8.7 C 86.6 8.7 86.6 7.4 86.6 7.4 C 86.6 6.5 85.9 5.9 84.8 5.9 C 83.9 5.9 83.1 6.2 82.5 6.9 C 82.5 6.9 81.8 5.9 81.8 5.9 C 82.7 5.1 83.7 4.7 85 4.7 C 86.7 4.7 88.1 5.4 88.1 7.4 C 88.07 7.37 88.1 12.5 88.1 12.5 L 86.6 12.5 C 86.6 12.5 86.64 11.71 86.6 11.7 Z M 86.6 9.6 C 86.2 9 85.5 8.7 84.7 8.7 C 83.6 8.7 82.9 9.3 82.9 10.2 C 82.9 11.1 83.6 11.7 84.7 11.7 C 85.5 11.7 86.2 11.4 86.6 10.9 C 86.6 10.9 86.6 9.6 86.6 9.6 Z M 90.6 10.8 C 90.64 10.85 90.6 6.1 90.6 6.1 L 89.4 6.1 L 89.4 4.9 L 90.6 4.9 L 90.6 2.8 L 92.1 2.8 L 92.1 4.9 L 93.6 4.9 L 93.6 6.1 L 92.1 6.1 C 92.1 6.1 92.07 10.53 92.1 10.5 C 92.1 11.1 92.3 11.5 92.8 11.5 C 93.1 11.5 93.4 11.3 93.6 11.2 C 93.6 11.2 94 12.2 94 12.2 C 93.7 12.5 93.2 12.7 92.5 12.7 C 91.3 12.7 90.6 12.1 90.6 10.8 Z M 95 2.7 C 95 2.2 95.4 1.8 95.9 1.8 C 96.4 1.8 96.8 2.2 96.8 2.7 C 96.8 3.2 96.4 3.6 95.9 3.6 C 95.4 3.6 95 3.2 95 2.7 Z M 95.2 4.9 L 96.6 4.9 L 96.6 12.5 L 95.2 12.5 L 95.2 4.9 Z M 98.4 8.7 C 98.4 6.5 99.9 4.7 102.3 4.7 C 104.7 4.7 106.2 6.5 106.2 8.7 C 106.2 10.9 104.7 12.7 102.3 12.7 C 99.9 12.7 98.4 10.9 98.4 8.7 Z M 104.7 8.7 C 104.7 7.3 103.9 6 102.3 6 C 100.8 6 99.9 7.3 99.9 8.7 C 99.9 10.2 100.8 11.5 102.3 11.5 C 103.9 11.5 104.7 10.2 104.7 8.7 Z M 113.2 7.6 C 113.2 6.4 112.5 6 111.5 6 C 110.7 6 109.8 6.5 109.4 7.1 C 109.43 7.07 109.4 12.5 109.4 12.5 L 108 12.5 L 108 4.9 L 109.4 4.9 C 109.4 4.9 109.43 5.95 109.4 6 C 109.9 5.3 111 4.7 112.1 4.7 C 113.8 4.7 114.6 5.5 114.6 7.2 C 114.6 7.16 114.6 12.5 114.6 12.5 L 113.2 12.5 C 113.2 12.5 113.18 7.64 113.2 7.6 Z " stroke="none" fill="#000"/>
  </g>
</svg>