<?xml version="1.0" standalone="no"?><!DOCTYPE svg PUBLIC "-//W3C//DTD SVG 1.1//EN" "http://www.w3.org/Graphics/SVG/1.1/DTD/svg11.dtd"><svg xmlns="http://www.w3.org/2000/svg" version="1.1" width="89.3px" height="16.9px" viewBox="0 -4 89.3 16.9" style="top:-4px"><desc>Lease Type</desc><defs/><g id="Polygon281307"><path d="m.7 1.1h.9v5.2h2.7v.8H.7v-6zM7 2.7c1.3 0 2.1 1 2.1 2.3c.03 0 0 .2 0 .2H5.7c.1.7.6 1.4 1.5 1.4c.4 0 .9-.2 1.3-.6l.3.6c-.4.4-1 .6-1.7.6c-1.3 0-2.3-.9-2.3-2.3c0-1.2.9-2.2 2.2-2.2zM5.7 4.6h2.6c0-.6-.4-1.3-1.3-1.3c-.9 0-1.3.7-1.3 1.3zm7.1 2c-.3.4-.8.6-1.4.6c-.7 0-1.5-.5-1.5-1.4c0-1 .8-1.4 1.5-1.4c.6 0 1.1.1 1.4.5v-.7c0-.5-.4-.9-1-.9c-.5 0-1 .2-1.3.6l-.4-.5c.5-.5 1.1-.7 1.8-.7c.9 0 1.7.4 1.7 1.5c.03-.02 0 2.9 0 2.9h-.8s.03-.47 0-.5zm0-1.2c-.2-.3-.6-.5-1.1-.5c-.6 0-1 .4-1 .9c0 .5.4.9 1 .9c.5 0 .9-.2 1.1-.5v-.8zm2.1.5c.3.4.9.7 1.5.7c.6 0 .9-.3.9-.7c0-.4-.5-.5-1-.7c-.8-.1-1.6-.3-1.6-1.3c0-.7.6-1.2 1.6-1.2c.8 0 1.3.2 1.7.6l-.4.5c-.2-.3-.7-.5-1.3-.5c-.5 0-.8.2-.8.6c0 .4.4.5 1 .6c.7.2 1.6.4 1.6 1.4c0 .7-.6 1.3-1.7 1.3c-.8 0-1.4-.2-1.8-.7l.3-.6zm6.2-3.2c1.3 0 2.1 1 2.1 2.3c-.03 0 0 .2 0 .2h-3.5c.1.7.6 1.4 1.5 1.4c.5 0 1-.2 1.3-.6l.4.6c-.5.4-1.1.6-1.8.6c-1.3 0-2.2-.9-2.2-2.3c0-1.2.9-2.2 2.2-2.2zm-1.4 1.9h2.7c0-.6-.4-1.3-1.3-1.3c-.9 0-1.3.7-1.4 1.3zM28 1.9h-1.9v-.8h4.6v.8h-1.8v5.2h-.9V1.9zm3.4 6.3c.3 0 .5-.1.6-.5l.2-.5l-1.8-4.4h.9l1.4 3.4L34 2.8h.9s-2.14 5.14-2.1 5.1c-.3.7-.8 1-1.4 1c-.2 0-.4-.1-.5-.1l.1-.7c.1 0 .2.1.4.1zm4.2.6v-6h.8s-.03.58 0 .6c.3-.4.8-.7 1.4-.7c1.1 0 1.9.8 1.9 2.2c0 1.5-.8 2.3-1.9 2.3c-.6 0-1.1-.2-1.4-.7c-.03-.02 0 2.3 0 2.3h-.8zm2-5.4c-.5 0-1 .3-1.2.6v1.9c.2.3.7.6 1.2.6c.8 0 1.3-.7 1.3-1.6c0-.9-.5-1.5-1.3-1.5zm5.1-.7c1.3 0 2.1 1 2.1 2.3c-.03 0 0 .2 0 .2h-3.5c.1.7.6 1.4 1.5 1.4c.5 0 1-.2 1.3-.6l.4.6c-.5.4-1.1.6-1.8.6c-1.3 0-2.2-.9-2.2-2.3c0-1.2.9-2.2 2.2-2.2zm-1.4 1.9h2.7c0-.6-.4-1.3-1.3-1.3c-.9 0-1.3.7-1.4 1.3z" stroke="none" fill="#000"/></g></svg>