<?xml version="1.0" standalone="no"?><!DOCTYPE svg PUBLIC "-//W3C//DTD SVG 1.1//EN" "http://www.w3.org/Graphics/SVG/1.1/DTD/svg11.dtd"><svg xmlns="http://www.w3.org/2000/svg" version="1.1" width="152px" height="218.9px" viewBox="0 -6 152 218.9" style="top:-6px"><desc>Investment Summary Lease Summary Retail Aerial Site Plan Rent Schedule About the Brand Location Overview</desc><defs/><g id="Polygon276968"><path d="m1.2 192.5h1.6v9.2h4.8v1.4H1.2v-10.6zm7.2 6.8c0-2.2 1.5-4 3.8-4c2.4 0 3.9 1.8 3.9 4c0 2.2-1.5 4-3.9 4c-2.3 0-3.8-1.8-3.8-4zm6.2 0c0-1.5-.8-2.8-2.4-2.8c-1.5 0-2.3 1.3-2.3 2.8c0 1.5.8 2.8 2.3 2.8c1.6 0 2.4-1.3 2.4-2.8zm6.6-4c1.4 0 2.3.6 2.9 1.3l-1 .9c-.4-.7-1.1-1-1.8-1c-1.5 0-2.5 1.2-2.5 2.8c0 1.6 1 2.8 2.5 2.8c.7 0 1.4-.4 1.8-1l1 .9c-.6.7-1.5 1.3-2.9 1.3c-2.3 0-3.9-1.7-3.9-4c0-2.3 1.6-4 3.9-4zm9 7c-.6.7-1.5 1-2.5 1c-1.3 0-2.7-.8-2.7-2.5c0-1.8 1.4-2.5 2.7-2.5c1 0 1.9.3 2.5 1V198c0-.9-.8-1.5-1.9-1.5c-.8 0-1.6.3-2.3 1l-.6-1c.9-.8 1.9-1.2 3.2-1.2c1.6 0 3.1.7 3.1 2.7c-.05-.04 0 5.1 0 5.1h-1.5s.02-.81 0-.8zm0-2.2c-.4-.5-1.2-.8-1.9-.8c-1.1 0-1.8.6-1.8 1.5c0 .9.7 1.5 1.8 1.5c.7 0 1.5-.3 1.9-.8v-1.4zm3.9 1.3c-.03.04 0-4.7 0-4.7h-1.3v-1.2h1.3v-2.1h1.4v2.1h1.6v1.2h-1.6v4.4c0 .6.2 1 .7 1c.4 0 .7-.2.8-.3l.4 1c-.3.3-.8.5-1.5.5c-1.2 0-1.8-.7-1.8-1.9zm4.2-8.1c0-.5.4-.9.9-.9c.5 0 .9.4.9.9c0 .5-.4.9-.9.9c-.5 0-.9-.4-.9-.9zm.2 2.2h1.4v7.6h-1.4v-7.6zm3 3.8c0-2.2 1.5-4 3.9-4c2.4 0 3.9 1.8 3.9 4c0 2.2-1.5 4-3.9 4c-2.4 0-3.9-1.8-3.9-4zm6.3 0c0-1.5-.8-2.8-2.4-2.8c-1.5 0-2.4 1.3-2.4 2.8c0 1.5.9 2.8 2.4 2.8c1.6 0 2.4-1.3 2.4-2.8zm8.3-1.1c0-1.2-.6-1.7-1.6-1.7c-.9 0-1.7.6-2.1 1.2c-.02-.05 0 5.4 0 5.4H51v-7.6h1.4s-.02 1.04 0 1c.5-.6 1.5-1.2 2.7-1.2c1.6 0 2.5.8 2.5 2.5c-.04-.05 0 5.3 0 5.3h-1.5s.03-4.87 0-4.9zm12.4-5.8c3.2 0 5.4 2.3 5.4 5.4c0 3.2-2.2 5.5-5.4 5.5c-3.1 0-5.3-2.3-5.3-5.5c0-3.1 2.2-5.4 5.3-5.4zm0 1.4c-2.2 0-3.7 1.7-3.7 4c0 2.4 1.5 4.1 3.7 4.1c2.3 0 3.7-1.7 3.7-4.1c0-2.3-1.4-4-3.7-4zm6 1.7h1.5l2.4 6l2.4-6h1.5l-3.1 7.6h-1.6l-3.1-7.6zm12.2-.2c2.3 0 3.7 1.8 3.7 4.1c.03.02 0 .4 0 .4c0 0-6.04-.03-6 0c.1 1.3 1 2.4 2.6 2.4c.8 0 1.7-.4 2.2-1l.7 1c-.8.7-1.8 1.1-3.1 1.1c-2.3 0-3.9-1.6-3.9-4c0-2.2 1.6-4 3.8-4zm-2.4 3.4h4.7c0-1-.7-2.3-2.3-2.3c-1.5 0-2.3 1.3-2.4 2.3zm7.8-3.2h1.4v1.1c.6-.7 1.5-1.3 2.5-1.3v1.4h-.5c-.7 0-1.7.5-2 1.1v5.3h-1.4v-7.6zm4.1 0h1.5l2.4 6l2.4-6h1.5l-3.1 7.6h-1.6l-3.1-7.6zm8.6-2.2c0-.5.4-.9.9-.9c.5 0 .9.4.9.9c0 .5-.4.9-.9.9c-.5 0-.9-.4-.9-.9zm.2 2.2h1.4v7.6H105v-7.6zm6.9-.2c2.3 0 3.8 1.8 3.8 4.1c-.05.02 0 .4 0 .4c0 0-6.11-.03-6.1 0c.1 1.3 1.1 2.4 2.6 2.4c.8 0 1.7-.4 2.3-1l.6 1c-.7.7-1.8 1.1-3.1 1.1c-2.2 0-3.9-1.6-3.9-4c0-2.2 1.6-4 3.8-4zm-2.3 3.4h4.7c-.1-1-.8-2.3-2.4-2.3c-1.5 0-2.3 1.3-2.3 2.3zm12.5-1.5l-1.9 5.9h-1.5l-2.4-7.6h1.5l1.7 5.8l1.9-5.8h1.3l1.9 5.8l1.7-5.8h1.5l-2.4 7.6h-1.5l-1.8-5.9z" stroke="none" fill="#242423"/></g><g id="Polygon276967"><path d="m7.9 169.2H2.7l-.9 2.2H.1l4.2-10.6h2l4.2 10.6H8.7l-.8-2.2zm-4.8-1.4h4.3l-2.1-5.6l-2.2 5.6zm8.5-7h1.4v4c.6-.8 1.5-1.3 2.5-1.3c2 0 3.4 1.6 3.4 4c0 2.6-1.4 4.1-3.4 4.1c-1 0-1.9-.6-2.5-1.3c-.01-.02 0 1.1 0 1.1h-1.4v-10.6zm3.5 9.5c1.4 0 2.3-1.2 2.3-2.8c0-1.6-.9-2.7-2.3-2.7c-.9 0-1.7.5-2.1 1.1v3.3c.4.6 1.2 1.1 2.1 1.1zm5-2.8c0-2.2 1.5-4 3.9-4c2.4 0 3.9 1.8 3.9 4c0 2.3-1.5 4.1-3.9 4.1c-2.4 0-3.9-1.8-3.9-4.1zm6.3 0c0-1.4-.9-2.7-2.4-2.7c-1.5 0-2.4 1.3-2.4 2.7c0 1.5.9 2.8 2.4 2.8c1.5 0 2.4-1.3 2.4-2.8zm8.3 2.8c-.6.7-1.6 1.3-2.7 1.3c-1.7 0-2.5-.9-2.5-2.5v-5.4h1.4s.04 4.94 0 4.9c0 1.3.7 1.7 1.7 1.7c.8 0 1.7-.5 2.1-1.1v-5.5h1.4v7.7h-1.4s-.01-1.08 0-1.1zm3.8-.6V165h-1.3v-1.3h1.3v-2.1h1.4v2.1h1.6v1.3h-1.6s.04 4.35 0 4.4c0 .5.3.9.8.9c.3 0 .6-.2.8-.3l.3 1.1c-.3.3-.7.5-1.5.5c-1.2 0-1.8-.7-1.8-1.9zm8.7 0c-.05-.03 0-4.7 0-4.7h-1.3v-1.3h1.3v-2.1h1.4v2.1h1.5v1.3h-1.5s-.02 4.35 0 4.4c0 .5.2.9.7.9c.4 0 .7-.2.8-.3l.4 1.1c-.3.3-.8.5-1.5.5c-1.2 0-1.8-.7-1.8-1.9zm9.5-3.3c0-1.2-.6-1.6-1.6-1.6c-.9 0-1.7.5-2.1 1.1v5.5h-1.4v-10.6h1.4v4c.5-.6 1.5-1.3 2.7-1.3c1.7 0 2.5.8 2.5 2.5c-.02-.05 0 5.4 0 5.4h-1.5s.05-4.97 0-5zm7-2.9c2.3 0 3.7 1.8 3.7 4.2v.3h-6.1c.1 1.3 1.1 2.4 2.6 2.4c.9 0 1.7-.3 2.3-.9l.7.9c-.8.8-1.9 1.2-3.1 1.2c-2.3 0-4-1.7-4-4.1c0-2.2 1.6-4 3.9-4zm-2.4 3.5h4.7c0-1-.7-2.3-2.3-2.3c-1.6 0-2.3 1.2-2.4 2.3zm11.7-6.2s4.98-.02 5 0c1.9 0 3 1.1 3 2.7c0 1.3-.9 2.2-1.9 2.4c1.2.2 2.1 1.3 2.1 2.6c0 1.7-1.1 2.9-3.1 2.9c.01-.03-5.1 0-5.1 0v-10.6zm4.7 4.5c1 0 1.6-.7 1.6-1.6c0-.8-.6-1.5-1.6-1.5c-.02-.03-3.1 0-3.1 0v3.1s3.08-.03 3.1 0zm.1 4.7c1.1 0 1.7-.7 1.7-1.7c0-.9-.6-1.6-1.7-1.6c-.04-.03-3.2 0-3.2 0v3.3s3.16-.03 3.2 0zm5.2-6.3h1.4s-.02 1.17 0 1.2c.6-.8 1.5-1.4 2.5-1.4v1.5c-.2-.1-.3-.1-.5-.1c-.7 0-1.7.6-2 1.1c-.02.03 0 5.4 0 5.4H83v-7.7zm9.9 6.8c-.6.7-1.5 1.1-2.5 1.1c-1.3 0-2.7-.9-2.7-2.6c0-1.7 1.4-2.5 2.7-2.5c1 0 1.9.3 2.5 1v-1.2c0-1-.8-1.6-1.9-1.6c-.9 0-1.6.4-2.3 1l-.6-.9c.9-.9 1.9-1.3 3.1-1.3c1.7 0 3.1.7 3.1 2.7c.02-.01 0 5.2 0 5.2h-1.4v-.9zm0-2.1c-.4-.6-1.2-.9-2-.9c-1 0-1.7.6-1.7 1.5c0 .9.7 1.6 1.7 1.6c.8 0 1.6-.3 2-.9v-1.3zm8.7-1.9c0-1.3-.6-1.7-1.6-1.7c-.9 0-1.7.5-2.1 1.1c-.02-.01 0 5.5 0 5.5h-1.4v-7.7h1.4s-.02 1.08 0 1.1c.5-.6 1.5-1.3 2.7-1.3c1.6 0 2.5.9 2.5 2.5c-.04-.01 0 5.4 0 5.4h-1.5s.03-4.94 0-4.9zm9 3.8c-.5.7-1.5 1.3-2.5 1.3c-2 0-3.4-1.5-3.4-4.1c0-2.4 1.4-4 3.4-4c1 0 1.9.5 2.5 1.3c.04.01 0-4 0-4h1.5v10.6h-1.5s.04-1.12 0-1.1zm0-4.4c-.4-.6-1.2-1.1-2.1-1.1c-1.4 0-2.3 1.1-2.3 2.7c0 1.6.9 2.8 2.3 2.8c.9 0 1.7-.5 2.1-1.1v-3.3z" stroke="none" fill="#242423"/></g><g id="Polygon276966"><path d="m4.7 135.5H2.8v4.1H1.2V129s4.44.01 4.4 0c2.1 0 3.4 1.3 3.4 3.3c0 1.9-1.2 2.9-2.6 3.1c0-.04 2.7 4.2 2.7 4.2H7.3l-2.6-4.1zm.7-5.1H2.8v3.7s2.63.03 2.6 0c1.2 0 2-.7 2-1.8c0-1.1-.8-1.9-2-1.9zm8.3 1.3c2.3 0 3.7 1.8 3.7 4.2c.02-.01 0 .3 0 .3c0 0-6.05.04-6 0c.1 1.3 1 2.4 2.6 2.4c.8 0 1.7-.3 2.2-.9l.7 1c-.8.7-1.8 1.1-3.1 1.1c-2.3 0-4-1.6-4-4c0-2.3 1.7-4.1 3.9-4.1zm-2.4 3.5h4.7c0-1-.7-2.3-2.3-2.3c-1.6 0-2.3 1.3-2.4 2.3zm12.9-.5c0-1.3-.6-1.7-1.6-1.7c-.9 0-1.7.6-2.1 1.1v5.5h-1.4v-7.7h1.4s-.01 1.11 0 1.1c.5-.6 1.5-1.3 2.7-1.3c1.6 0 2.5.9 2.5 2.5c-.04.02 0 5.4 0 5.4h-1.5s.04-4.9 0-4.9zm3.9 3.2c-.04.01 0-4.7 0-4.7h-1.3v-1.3h1.3v-2.1h1.4v2.1h1.5v1.3h-1.5s-.01 4.39 0 4.4c0 .5.2.9.7.9c.4 0 .7-.1.8-.3l.4 1.1c-.3.3-.8.5-1.5.5c-1.2 0-1.8-.7-1.8-1.9zm8.6-1c.7.8 1.9 1.5 3.3 1.5c1.8 0 2.4-.9 2.4-1.7c0-1.1-1.2-1.4-2.6-1.7c-1.7-.5-3.7-1-3.7-3.1c0-1.8 1.6-3 3.8-3c1.6 0 2.9.5 3.8 1.4l-.9 1.2c-.8-.9-1.9-1.2-3-1.2c-1.2 0-2 .6-2 1.5c0 .9 1.1 1.2 2.4 1.5c1.8.5 3.8 1 3.8 3.3c0 1.7-1.2 3.2-4 3.2c-1.9 0-3.3-.7-4.2-1.7l.9-1.2zm12.4-5.2c1.4 0 2.3.6 2.8 1.4l-.9.9c-.5-.7-1.1-1-1.9-1c-1.5 0-2.5 1.2-2.5 2.8c0 1.6 1 2.7 2.5 2.7c.8 0 1.4-.3 1.9-.9l.9.8c-.5.8-1.4 1.4-2.8 1.4c-2.4 0-3.9-1.7-3.9-4c0-2.3 1.5-4.1 3.9-4.1zm9.4 3c0-1.3-.6-1.7-1.6-1.7c-.9 0-1.7.6-2.1 1.1c-.02.03 0 5.5 0 5.5h-1.5V129h1.5s-.02 4.01 0 4c.5-.6 1.5-1.3 2.7-1.3c1.6 0 2.5.9 2.5 2.5c-.05-.01 0 5.4 0 5.4h-1.5s.03-4.93 0-4.9zm7-3c2.3 0 3.7 1.8 3.7 4.2c-.02-.01 0 .3 0 .3c0 0-6.09.04-6.1 0c.1 1.3 1.1 2.4 2.6 2.4c.8 0 1.7-.3 2.3-.9l.7 1c-.8.7-1.9 1.1-3.1 1.1c-2.3 0-4-1.6-4-4c0-2.3 1.6-4.1 3.9-4.1zm-2.4 3.5h4.7c0-1-.7-2.3-2.3-2.3c-1.6 0-2.3 1.3-2.4 2.3zm13.2 3.3c-.6.8-1.5 1.3-2.5 1.3c-2 0-3.5-1.5-3.5-4c0-2.5 1.5-4.1 3.5-4.1c1 0 1.9.5 2.5 1.3c-.02.05 0-4 0-4h1.4v10.6h-1.4s-.02-1.09 0-1.1zm0-4.4c-.4-.6-1.3-1.1-2.1-1.1c-1.5 0-2.4 1.2-2.4 2.8c0 1.6.9 2.7 2.4 2.7c.8 0 1.7-.5 2.1-1.1v-3.3zm8.7 4.5c-.6.6-1.5 1.2-2.7 1.2c-1.7 0-2.5-.8-2.5-2.4c.04-.05 0-5.5 0-5.5h1.5s-.03 4.98 0 5c0 1.2.6 1.6 1.6 1.6c.9 0 1.7-.5 2.1-1.1c.02.05 0-5.5 0-5.5h1.4v7.7H85s.02-1.04 0-1zm3.6-9.6h1.4v10.6h-1.4V129zm6.9 2.7c2.3 0 3.7 1.8 3.7 4.2v.3s-6.07.04-6.1 0c.1 1.3 1.1 2.4 2.6 2.4c.8 0 1.7-.3 2.3-.9l.7 1c-.8.7-1.9 1.1-3.1 1.1c-2.3 0-4-1.6-4-4c0-2.3 1.6-4.1 3.9-4.1zm-2.4 3.5h4.7c0-1-.7-2.3-2.3-2.3c-1.6 0-2.3 1.3-2.4 2.3z" stroke="none" fill="#242423"/></g><g id="Polygon276965"><path d="m1.4 105.1c.7.8 1.9 1.5 3.4 1.5c1.7 0 2.3-.9 2.3-1.6c0-1.1-1.2-1.4-2.6-1.8c-1.7-.4-3.6-.9-3.6-3.1c0-1.7 1.5-3 3.7-3c1.6 0 2.9.5 3.9 1.5l-1 1.1c-.8-.8-1.9-1.2-3-1.2c-1.2 0-2 .6-2 1.5c0 .9 1.1 1.2 2.5 1.6c1.7.4 3.7 1 3.7 3.2c0 1.7-1.1 3.2-4 3.2c-1.9 0-3.3-.7-4.2-1.7l.9-1.2zm8.7-7.1c0-.5.5-.9 1-.9c.5 0 .9.4.9.9c0 .5-.4.9-.9.9c-.5 0-1-.4-1-.9zm.3 2.2h1.4v7.6h-1.4v-7.6zm3.8 5.9c-.02.04 0-4.7 0-4.7h-1.3v-1.2h1.3v-2.1h1.4v2.1h1.6v1.2h-1.6s.01 4.42 0 4.4c0 .6.3 1 .8 1c.3 0 .6-.2.7-.3l.4 1c-.3.3-.7.5-1.5.5c-1.2 0-1.8-.7-1.8-1.9zM22 100c2.3 0 3.7 1.8 3.7 4.1v.4s-6.07-.03-6.1 0c.1 1.3 1.1 2.4 2.6 2.4c.8 0 1.7-.4 2.3-.9l.7.9c-.8.7-1.9 1.1-3.1 1.1c-2.3 0-4-1.6-4-4c0-2.2 1.6-4 3.9-4zm-2.4 3.4h4.7c0-1-.7-2.2-2.3-2.2c-1.6 0-2.3 1.2-2.4 2.2zm11.7-6.2s4.47.05 4.5 0c2.1 0 3.3 1.5 3.3 3.3c0 1.8-1.2 3.3-3.3 3.3c-.03-.04-2.9 0-2.9 0v4h-1.6V97.2zm4.3 1.4c-.04.04-2.7 0-2.7 0v3.8s2.66-.04 2.7 0c1.1 0 1.9-.8 1.9-1.9c0-1.1-.8-1.9-1.9-1.9zm5-1.4h1.4v10.6h-1.4V97.2zm8.3 9.8c-.6.7-1.5 1-2.5 1c-1.3 0-2.7-.8-2.7-2.5c0-1.8 1.4-2.5 2.7-2.5c1 0 1.9.3 2.5 1v-1.3c0-.9-.8-1.5-1.9-1.5c-.9 0-1.6.3-2.3 1l-.6-1c.8-.8 1.9-1.2 3.1-1.2c1.7 0 3.1.7 3.1 2.7v5.1h-1.4s-.03-.8 0-.8zm0-2.1c-.5-.6-1.2-.9-2-.9c-1 0-1.8.6-1.8 1.5c0 .9.8 1.5 1.8 1.5c.8 0 1.5-.3 2-.8v-1.3zm8.7-2c0-1.2-.6-1.7-1.6-1.7c-.9 0-1.7.6-2.1 1.2c-.04-.04 0 5.4 0 5.4h-1.5v-7.6h1.5s-.04 1.05 0 1c.5-.6 1.5-1.2 2.7-1.2c1.6 0 2.4.8 2.4 2.5c.03-.04 0 5.3 0 5.3h-1.4v-4.9z" stroke="none" fill="#242423"/></g><g id="Polygon276964"><path d="m4.7 72H2.8v4.1H1.2V65.5s4.44-.02 4.4 0c2.1 0 3.4 1.3 3.4 3.2c0 1.9-1.2 3-2.6 3.1c0 .04 2.7 4.3 2.7 4.3H7.3L4.7 72zm.7-5.1c.03-.02-2.6 0-2.6 0v3.7h2.6c1.2 0 2-.7 2-1.9c0-1.1-.8-1.8-2-1.8zm8.3 1.3c2.3 0 3.7 1.8 3.7 4.2c.02-.04 0 .3 0 .3h-6c.1 1.3 1 2.4 2.6 2.4c.8 0 1.7-.3 2.2-.9l.7.9c-.8.8-1.8 1.2-3.1 1.2c-2.3 0-4-1.7-4-4.1c0-2.2 1.7-4 3.9-4zm-2.4 3.5h4.7c0-1-.7-2.3-2.3-2.3c-1.6 0-2.3 1.2-2.4 2.3zm8 2.7c.05-.02 0-4.7 0-4.7h-1.2v-1.3h1.2v-2.1h1.5v2.1h1.5v1.3h-1.5s-.03 4.36 0 4.4c0 .5.2.9.7.9c.4 0 .7-.1.8-.3l.4 1.1c-.3.3-.8.5-1.5.5c-1.2 0-1.9-.7-1.9-1.9zm9.2.8c-.6.7-1.5 1.1-2.5 1.1c-1.3 0-2.7-.9-2.7-2.6c0-1.7 1.4-2.5 2.7-2.5c1 0 1.9.4 2.5 1V71c0-1-.8-1.6-1.9-1.6c-.9 0-1.6.4-2.3 1.1l-.6-1c.9-.9 1.9-1.3 3.1-1.3c1.7 0 3.1.7 3.1 2.7c.02 0 0 5.2 0 5.2h-1.4s-.01-.86 0-.9zm0-2.1c-.4-.6-1.2-.9-2-.9c-1 0-1.7.6-1.7 1.5c0 .9.7 1.6 1.7 1.6c.8 0 1.6-.3 2-.9v-1.3zm3.3-6.9c0-.5.5-.9.9-.9c.6 0 1 .4 1 .9c0 .5-.4.9-1 .9c-.4 0-.9-.4-.9-.9zm.3 2.2h1.4v7.7h-1.4v-7.7zm3.5-2.9h1.4v10.6h-1.4V65.5zm14.2 8.4h-5.2l-.8 2.2H42l4.2-10.6h2l4.2 10.6h-1.7l-.9-2.2zm-4.7-1.4h4.2l-2.1-5.6l-2.1 5.6zm11.8-4.3c2.3 0 3.7 1.8 3.7 4.2v.3s-6.08.01-6.1 0c.1 1.3 1.1 2.4 2.6 2.4c.8 0 1.7-.3 2.3-.9l.7.9c-.8.8-1.9 1.2-3.1 1.2c-2.3 0-4-1.7-4-4.1c0-2.2 1.6-4 3.9-4zm-2.4 3.5h4.7c0-1-.7-2.3-2.3-2.3c-1.6 0-2.3 1.2-2.4 2.3zm7.7-3.3h1.5s-.05 1.18 0 1.2c.5-.8 1.4-1.4 2.5-1.4v1.5c-.2-.1-.3-.1-.5-.1c-.7 0-1.7.6-2 1.1c-.05.04 0 5.4 0 5.4h-1.5v-7.7zm5-2.2c0-.5.4-.9.9-.9c.5 0 1 .4 1 .9c0 .5-.5.9-1 .9c-.5 0-.9-.4-.9-.9zm.2 2.2h1.5v7.7h-1.5v-7.7zm8.3 6.8c-.6.7-1.5 1.1-2.5 1.1c-1.3 0-2.7-.9-2.7-2.6c0-1.7 1.4-2.5 2.7-2.5c1 0 1.9.4 2.5 1V71c0-1-.8-1.6-1.9-1.6c-.8 0-1.6.4-2.3 1.1l-.6-1c.9-.9 1.9-1.3 3.2-1.3c1.6 0 3 .7 3 2.7c.04 0 0 5.2 0 5.2h-1.4s.01-.86 0-.9zm0-2.1c-.4-.6-1.2-.9-2-.9c-1 0-1.7.6-1.7 1.5c0 .9.7 1.6 1.7 1.6c.8 0 1.6-.3 2-.9v-1.3zm3.6-7.6h1.4v10.6h-1.4V65.5z" stroke="none" fill="#242423"/></g><g id="Polygon276963"><path d="m1.2 33.7h1.6v9.2h4.8v1.4H1.2V33.7zm11 2.8c2.3 0 3.7 1.7 3.7 4.1c.04-.01 0 .3 0 .3c0 0-6.02.04-6 0c.1 1.3 1 2.4 2.6 2.4c.8 0 1.7-.3 2.3-.9l.6 1c-.7.7-1.8 1.1-3.1 1.1c-2.2 0-3.9-1.6-3.9-4c0-2.3 1.6-4 3.8-4zm-2.3 3.4h4.6c0-1-.7-2.3-2.3-2.3c-1.5 0-2.3 1.3-2.3 2.3zm12.4 3.6c-.6.6-1.5 1-2.5 1c-1.3 0-2.7-.9-2.7-2.5c0-1.8 1.4-2.5 2.7-2.5c1 0 1.9.3 2.5 1v-1.3c0-1-.8-1.5-1.9-1.5c-.8 0-1.6.3-2.3 1l-.6-1c.9-.8 1.9-1.2 3.2-1.2c1.6 0 3 .7 3 2.6c.04.03 0 5.2 0 5.2h-1.4s.02-.83 0-.8zm0-2.2c-.4-.5-1.2-.8-2-.8c-1 0-1.7.6-1.7 1.5c0 .9.7 1.5 1.7 1.5c.8 0 1.6-.3 2-.9v-1.3zm3.6 1c.5.5 1.5 1.1 2.6 1.1c1 0 1.6-.5 1.6-1.1c0-.8-.9-1.1-1.8-1.3c-1.3-.3-2.9-.6-2.9-2.3c0-1.2 1.1-2.2 2.9-2.2c1.4 0 2.3.4 3 1l-.7 1c-.4-.5-1.3-.9-2.2-.9c-1 0-1.6.4-1.6 1c0 .7.8.9 1.8 1.1c1.3.3 2.9.7 2.9 2.5c0 1.3-1.1 2.3-3.1 2.3c-1.3 0-2.4-.4-3.2-1.2l.7-1zm10.6-5.8c2.3 0 3.7 1.7 3.7 4.1c.04-.01 0 .3 0 .3c0 0-6.02.04-6 0c.1 1.3 1 2.4 2.6 2.4c.8 0 1.7-.3 2.3-.9l.6 1c-.7.7-1.8 1.1-3.1 1.1c-2.2 0-3.9-1.6-3.9-4c0-2.3 1.6-4 3.8-4zm-2.3 3.4h4.6c0-1-.7-2.3-2.3-2.3c-1.5 0-2.3 1.3-2.3 2.3zm11.9 1.7c.7.8 1.9 1.5 3.3 1.5c1.8 0 2.4-.9 2.4-1.6c0-1.2-1.2-1.5-2.6-1.8c-1.7-.5-3.7-1-3.7-3.1c0-1.8 1.6-3 3.8-3c1.6 0 2.9.5 3.8 1.4l-.9 1.2c-.8-.8-1.9-1.2-3-1.2c-1.2 0-2 .6-2 1.5c0 .9 1.1 1.2 2.4 1.6c1.8.4 3.8 1 3.8 3.2c0 1.7-1.2 3.2-4 3.2c-1.9 0-3.3-.7-4.2-1.7l.9-1.2zm14.1 1.7c-.6.6-1.5 1.2-2.7 1.2c-1.7 0-2.5-.8-2.5-2.4c.03-.04 0-5.5 0-5.5h1.5s-.04 4.98 0 5c0 1.3.6 1.6 1.6 1.6c.9 0 1.7-.5 2.1-1v-5.6h1.4v7.7h-1.4v-1zm12.9-4.1c0-.9-.4-1.5-1.4-1.5c-.7 0-1.5.6-1.9 1.1c.03.02 0 5.5 0 5.5h-1.4v-5.1c0-.9-.4-1.5-1.3-1.5c-.8 0-1.5.6-1.9 1.1c-.02.03 0 5.5 0 5.5h-1.4v-7.7h1.4s-.02 1.12 0 1.1c.3-.5 1.3-1.2 2.5-1.2c1.1 0 1.8.6 2 1.4c.5-.7 1.5-1.4 2.6-1.4c1.4 0 2.2.7 2.2 2.3v5.5h-1.4s-.02-5.1 0-5.1zm12.8 0c0-.9-.4-1.5-1.3-1.5c-.8 0-1.5.6-1.9 1.1v5.5h-1.4s-.03-5.1 0-5.1c0-.9-.4-1.5-1.4-1.5c-.7 0-1.5.6-1.9 1.1c.04.03 0 5.5 0 5.5h-1.4v-7.7h1.4s.04 1.12 0 1.1c.4-.5 1.4-1.2 2.5-1.2c1.2 0 1.9.6 2.1 1.4c.4-.7 1.5-1.4 2.6-1.4c1.4 0 2.2.7 2.2 2.3c-.03-.03 0 5.5 0 5.5h-1.5s.04-5.1 0-5.1zm8.3 4.3c-.6.6-1.5 1-2.5 1c-1.3 0-2.7-.9-2.7-2.5c0-1.8 1.4-2.5 2.7-2.5c1 0 1.9.3 2.5 1v-1.3c0-1-.8-1.5-1.9-1.5c-.8 0-1.6.3-2.3 1l-.6-1c.9-.8 1.9-1.2 3.2-1.2c1.6 0 3 .7 3 2.6c.04.03 0 5.2 0 5.2h-1.4v-.8zm0-2.2c-.4-.5-1.2-.8-2-.8c-1 0-1.7.6-1.7 1.5c0 .9.7 1.5 1.7 1.5c.8 0 1.6-.3 2-.9v-1.3zm3.6-4.7h1.4v1.2c.6-.7 1.5-1.3 2.5-1.3v1.4h-.5c-.7 0-1.7.5-2 1.1v5.3h-1.4v-7.7zm5.7 9.6c.5 0 .8-.2 1.1-.8c-.03.01.4-1 .4-1l-3.1-7.8h1.5l2.4 6.1l2.4-6.1h1.5s-3.77 9.17-3.8 9.2c-.5 1.2-1.3 1.6-2.4 1.6c-.2 0-.7 0-.9-.1l.2-1.3c.2.1.5.2.7.2z" stroke="none" fill="#242423"/></g><g id="Polygon276962"><path d="m1.2 2h1.6v10.5H1.2V2zm8.9 5.6c0-1.2-.6-1.6-1.6-1.6c-.9 0-1.7.5-2.1 1.1c-.03-.03 0 5.4 0 5.4H4.9V4.9h1.5s-.03 1.05 0 1.1c.5-.7 1.5-1.3 2.7-1.3c1.6 0 2.4.8 2.4 2.5c.05-.04 0 5.3 0 5.3h-1.4s.02-4.86 0-4.9zm2.4-2.7h1.6l2.4 6l2.4-6h1.5l-3.2 7.6h-1.5l-3.2-7.6zm12.3-.2c2.3 0 3.7 1.8 3.7 4.1v.4s-6.08-.02-6.1 0c.1 1.3 1.1 2.4 2.6 2.4c.8 0 1.7-.4 2.3-.9l.7.9c-.8.7-1.9 1.1-3.1 1.1c-2.3 0-4-1.6-4-4c0-2.2 1.6-4 3.9-4zm-2.4 3.4h4.7c0-1-.7-2.2-2.3-2.2c-1.6 0-2.3 1.2-2.4 2.2zm7.7 2.4c.6.6 1.6 1.1 2.6 1.1c1.1 0 1.7-.4 1.7-1.1c0-.8-.9-1-1.9-1.2c-1.3-.3-2.8-.7-2.8-2.3c0-1.3 1-2.3 2.9-2.3c1.3 0 2.3.5 2.9 1.1l-.6 1c-.5-.6-1.3-1-2.3-1c-.9 0-1.6.4-1.6 1c0 .7.9.9 1.8 1.2c1.4.3 2.9.6 2.9 2.4c0 1.3-1 2.3-3 2.3c-1.3 0-2.5-.4-3.2-1.2l.6-1zm7.6.3V6.1h-1.3V4.9h1.3V2.8h1.4v2.1h1.6v1.2h-1.6s.02 4.43 0 4.4c0 .6.3 1 .8 1c.3 0 .6-.2.7-.3l.4 1c-.3.3-.7.5-1.5.5c-1.2 0-1.8-.6-1.8-1.9zm13.7-3.4c0-.9-.4-1.4-1.3-1.4c-.8 0-1.5.5-1.9 1.1v5.4h-1.4s-.04-5.07 0-5.1c0-.9-.4-1.4-1.4-1.4c-.7 0-1.5.5-1.9 1.1c.03-.03 0 5.4 0 5.4h-1.4V4.9h1.4s.03 1.05 0 1.1c.3-.5 1.4-1.3 2.5-1.3c1.2 0 1.9.6 2.1 1.4c.4-.7 1.5-1.4 2.6-1.4c1.4 0 2.2.8 2.2 2.3c-.05 0 0 5.5 0 5.5h-1.5s.03-5.07 0-5.1zm6.9-2.7c2.3 0 3.8 1.8 3.8 4.1c-.03.03 0 .4 0 .4c0 0-6.1-.02-6.1 0c.1 1.3 1.1 2.4 2.6 2.4c.8 0 1.7-.4 2.3-.9l.6.9c-.7.7-1.8 1.1-3 1.1c-2.3 0-4-1.6-4-4c0-2.2 1.6-4 3.8-4zM56 8.1h4.7c-.1-1-.7-2.2-2.4-2.2c-1.5 0-2.2 1.2-2.3 2.2zm12.9-.5c0-1.2-.7-1.6-1.7-1.6c-.8 0-1.7.5-2.1 1.1c.03-.03 0 5.4 0 5.4h-1.4V4.9h1.4s.03 1.05 0 1.1c.5-.7 1.6-1.3 2.7-1.3c1.7 0 2.5.8 2.5 2.5v5.3h-1.4s-.02-4.86 0-4.9zm3.8 3.2V6.1h-1.3V4.9h1.3V2.8h1.4v2.1h1.6v1.2h-1.6s.04 4.43 0 4.4c0 .6.3 1 .8 1c.3 0 .6-.2.8-.3l.3 1c-.3.3-.7.5-1.5.5c-1.2 0-1.8-.6-1.8-1.9zm8.6-1c.8.8 1.9 1.5 3.4 1.5c1.7 0 2.3-.8 2.3-1.6c0-1.1-1.2-1.4-2.6-1.8c-1.7-.4-3.6-.9-3.6-3.1c0-1.7 1.5-3 3.7-3c1.7 0 2.9.5 3.9 1.5l-.9 1.1c-.8-.8-2-1.2-3.1-1.2c-1.2 0-2 .6-2 1.5c0 1 1.2 1.3 2.5 1.6c1.7.4 3.7 1 3.7 3.2c0 1.7-1.1 3.2-4 3.2c-1.9 0-3.3-.6-4.2-1.6l.9-1.3zm14.2 1.7c-.6.6-1.6 1.2-2.8 1.2c-1.6 0-2.4-.8-2.4-2.4c-.02-.01 0-5.4 0-5.4h1.4v4.9c0 1.3.6 1.7 1.6 1.7c.9 0 1.7-.5 2.2-1.1c-.05-.01 0-5.5 0-5.5h1.4v7.6h-1.4s-.05-1 0-1zm12.8-4.1c0-.9-.4-1.4-1.3-1.4c-.8 0-1.6.5-1.9 1.1c-.02-.05 0 5.4 0 5.4h-1.5s.05-5.07 0-5.1c0-.9-.3-1.4-1.3-1.4c-.7 0-1.5.5-1.9 1.1c.02-.03 0 5.4 0 5.4H99V4.9h1.4s.02 1.05 0 1.1c.3-.5 1.4-1.3 2.5-1.3c1.2 0 1.8.6 2.1 1.4c.4-.7 1.4-1.4 2.6-1.4c1.4 0 2.1.8 2.1 2.3c.04 0 0 5.5 0 5.5h-1.4s.02-5.07 0-5.1zm12.9 0c0-.9-.4-1.4-1.4-1.4c-.7 0-1.5.5-1.9 1.1c.04-.05 0 5.4 0 5.4h-1.4V7.4c0-.9-.4-1.4-1.3-1.4c-.8 0-1.5.5-1.9 1.1v5.4h-1.4V4.9h1.4s-.01 1.05 0 1.1c.3-.5 1.3-1.3 2.5-1.3c1.1 0 1.8.6 2 1.4c.5-.7 1.5-1.4 2.6-1.4c1.4 0 2.2.8 2.2 2.3v5.5h-1.4s-.02-5.07 0-5.1zm8.3 4.3c-.6.7-1.5 1-2.6 1c-1.2 0-2.6-.8-2.6-2.5c0-1.8 1.4-2.5 2.6-2.5c1.1 0 2 .3 2.6 1V7.4c0-.9-.8-1.5-1.9-1.5c-.9 0-1.6.3-2.3 1l-.6-1c.8-.8 1.9-1.2 3.1-1.2c1.7 0 3.1.7 3.1 2.7c-.02-.03 0 5.1 0 5.1h-1.4s-.04-.79 0-.8zm0-2.1c-.5-.6-1.2-.9-2-.9c-1 0-1.8.6-1.8 1.5c0 .9.8 1.5 1.8 1.5c.8 0 1.5-.3 2-.8V9.6zm3.5-4.7h1.4s.04 1.15 0 1.2c.6-.8 1.5-1.4 2.6-1.4v1.4h-.5c-.8 0-1.7.5-2.1 1.1c.04.01 0 5.3 0 5.3H133V4.9zm5.7 9.5c.5 0 .9-.2 1.1-.8c.01.04.5-1 .5-1l-3.2-7.7h1.5l2.4 6l2.4-6h1.6s-3.82 9.11-3.8 9.1c-.5 1.2-1.4 1.6-2.5 1.7c-.2 0-.6-.1-.9-.2l.3-1.2c.1 0 .4.1.6.1z" stroke="none" fill="#242423"/></g></svg>