<?xml version="1.0" standalone="no"?><!DOCTYPE svg PUBLIC "-//W3C//DTD SVG 1.1//EN" "http://www.w3.org/Graphics/SVG/1.1/DTD/svg11.dtd"><svg xmlns="http://www.w3.org/2000/svg" xmlns:xlink="http://www.w3.org/1999/xlink" version="1.1" width="237px" height="47.9px" viewBox="0 -14 237 47.9" style="top:-14px"><desc/><defs/><g id="Polygon60064"><path d="m95.5 6.9l7-3.6v.8l-6.1 3.1l6.1 3.1v.8l-7-3.6v-.6zm7.9 0l7-3.6v.8l-6.2 3.1l6.2 3.1v.8l-7-3.6v-.6zm8.4.4c0-3.3 2.3-5.5 5.3-5.5c1.7 0 3 .7 3.9 1.9l-.8.4c-.7-.9-1.8-1.5-3.1-1.5c-2.5 0-4.4 1.9-4.4 4.7c0 2.7 1.9 4.6 4.4 4.6c1.3 0 2.4-.6 3.1-1.5l.8.4c-1 1.2-2.2 1.9-3.9 1.9c-3 0-5.3-2.2-5.3-5.4zm10.5 1.4c0-2.2 1.5-4 3.7-4c2.3 0 3.7 1.8 3.7 4c0 2.2-1.4 4-3.7 4c-2.2 0-3.7-1.8-3.7-4zm6.5 0c0-1.7-1-3.3-2.8-3.3c-1.8 0-2.8 1.6-2.8 3.3c0 1.7 1 3.3 2.8 3.3c1.8 0 2.8-1.6 2.8-3.3zM141 7.2c0-1.1-.5-1.8-1.5-1.8c-.9 0-1.8.6-2.2 1.3c-.04.03 0 5.8 0 5.8h-.9s.02-5.32 0-5.3c0-1.1-.4-1.8-1.5-1.8c-.8 0-1.8.7-2.2 1.3c-.02.05 0 5.8 0 5.8h-.8V4.9h.8s-.02 1.13 0 1.1c.3-.5 1.3-1.3 2.5-1.3c1.2 0 1.8.7 2 1.4c.4-.7 1.4-1.4 2.5-1.4c1.4 0 2.1.8 2.1 2.3c.02.02 0 5.5 0 5.5h-.8V7.2zm3.4 8.3V4.9h.8v1.2c.6-.8 1.5-1.4 2.7-1.4c2 0 3.4 1.5 3.4 4c0 2.5-1.4 4-3.4 4c-1.1 0-2.1-.5-2.7-1.4v4.2h-.8zm3.3-10.1c-1 0-2 .7-2.5 1.4v3.8c.5.7 1.5 1.4 2.5 1.4c1.8 0 2.7-1.4 2.7-3.3c0-1.9-.9-3.3-2.7-3.3zm10.6 6.2c-.7.8-1.5 1.1-2.6 1.1c-1.3 0-2.7-.9-2.7-2.5c0-1.7 1.4-2.5 2.7-2.5c1.1 0 1.9.3 2.6 1V7.2c0-1.1-.9-1.8-2-1.8c-1 0-1.7.3-2.4 1.1l-.5-.5c.8-.9 1.7-1.3 2.9-1.3c1.6 0 2.8.7 2.8 2.4c.04.05 0 5.4 0 5.4h-.8s.02-.86 0-.9zm0-2.2c-.5-.7-1.4-1.1-2.3-1.1c-1.3 0-2.1.8-2.1 1.9c0 1.1.8 1.9 2.1 1.9c.9 0 1.8-.4 2.3-1.1V9.4zm8.6-2c0-1.5-.8-2-1.9-2c-.9 0-2 .7-2.5 1.3c.04.05 0 5.8 0 5.8h-.8V4.9h.8s.04 1.13 0 1.1c.6-.6 1.7-1.3 2.8-1.3c1.6 0 2.4.7 2.4 2.5c.02-.02 0 5.3 0 5.3h-.8V7.4zm3.7 7.5c.5 0 .9-.2 1.2-.9c-.05-.02.6-1.4.6-1.4l-3.3-7.7h.9l2.8 6.7l2.8-6.7h.9s-3.94 9.33-3.9 9.3c-.4 1-1.1 1.5-2 1.5c-.3 0-.6-.1-.8-.2l.1-.7c.2.1.5.1.7.1zM183 3.4v9.1h-.9V2h.9l6.6 9v-9h.9v10.5h-.8L183 3.4zm15 8.2c-.7.8-1.5 1.1-2.6 1.1c-1.3 0-2.7-.9-2.7-2.5c0-1.7 1.4-2.5 2.7-2.5c1.1 0 1.9.3 2.6 1V7.2c0-1.1-.9-1.8-2-1.8c-1 0-1.7.3-2.4 1.1l-.5-.5c.8-.9 1.7-1.3 2.9-1.3c1.6 0 2.8.7 2.8 2.4c.05.05 0 5.4 0 5.4h-.8s.02-.86 0-.9zm0-2.2c-.5-.7-1.4-1.1-2.3-1.1c-1.3 0-2.1.8-2.1 1.9c0 1.1.8 1.9 2.1 1.9c.9 0 1.8-.4 2.3-1.1V9.4zm12.6-2.2c0-1.1-.5-1.8-1.6-1.8c-.8 0-1.8.6-2.2 1.3c.02.03 0 5.8 0 5.8h-.8s-.02-5.32 0-5.3c0-1.1-.5-1.8-1.6-1.8c-.8 0-1.7.7-2.2 1.3c.05.05 0 5.8 0 5.8h-.8V4.9h.8s.05 1.13 0 1.1c.4-.5 1.4-1.3 2.5-1.3c1.2 0 1.9.7 2 1.4c.5-.7 1.5-1.4 2.6-1.4c1.4 0 2.1.8 2.1 2.3c-.02.02 0 5.5 0 5.5h-.8s-.05-5.32 0-5.3zm6.6-2.5c2.3 0 3.6 1.8 3.6 4.1c.03-.05 0 .2 0 .2c0 0-6.39-.03-6.4 0c.1 1.6 1.2 3 3 3c1 0 1.9-.3 2.5-1l.5.5c-.8.8-1.8 1.2-3 1.2c-2.3 0-3.9-1.6-3.9-4c0-2.2 1.6-4 3.7-4zm-2.8 3.6h5.6c0-1.3-.9-2.9-2.8-2.9c-1.8 0-2.7 1.6-2.8 2.9zm7.7 2l6.2-3.1l-6.2-3.1v-.8l7 3.6v.6l-7 3.6v-.8zm7.9 0l6.1-3.1l-6.1-3.1v-.8l7 3.6v.6l-7 3.6v-.8z" stroke="none" fill="#000"/><a xlink:href="DBF_Company%20Name" xlink:show="new" xlink:title="&lt;&lt;Company Name&gt;&gt;"><rect style="fill:transparent;" x="95" y="1" width="142" height="15"/></a></g></svg>