<?xml version="1.0" standalone="no"?>
<!DOCTYPE svg PUBLIC "-//W3C//DTD SVG 1.1//EN" "http://www.w3.org/Graphics/SVG/1.1/DTD/svg11.dtd">
<svg xmlns="http://www.w3.org/2000/svg" version="1.1" width="156px" height="27.9px" viewBox="0 -6 156 27.9" style="top:-6px">
  <desc>Year Built</desc>
  <defs/>
  <g id="Polygon266027">
    <path d="M 48.9 8.1 L 44.8 2 L 46.6 2 L 49.7 6.7 L 52.8 2 L 54.6 2 L 50.5 8.1 L 50.5 12.5 L 48.9 12.5 L 48.9 8.1 Z M 57.2 4.7 C 59.5 4.7 61 6.5 61 8.8 C 60.97 8.83 61 9.2 61 9.2 C 61 9.2 54.9 9.18 54.9 9.2 C 55 10.5 56 11.6 57.5 11.6 C 58.3 11.6 59.2 11.2 59.8 10.7 C 59.8 10.7 60.4 11.6 60.4 11.6 C 59.7 12.3 58.6 12.7 57.4 12.7 C 55.1 12.7 53.4 11.1 53.4 8.7 C 53.4 6.5 55 4.7 57.2 4.7 Z M 54.9 8.1 C 54.9 8.1 59.6 8.1 59.6 8.1 C 59.5 7.1 58.9 5.9 57.2 5.9 C 55.7 5.9 55 7.1 54.9 8.1 Z M 67.5 11.7 C 66.9 12.4 66 12.7 65 12.7 C 63.7 12.7 62.3 11.9 62.3 10.2 C 62.3 8.4 63.7 7.7 65 7.7 C 66 7.7 66.9 8 67.5 8.7 C 67.5 8.7 67.5 7.4 67.5 7.4 C 67.5 6.5 66.7 5.9 65.6 5.9 C 64.8 5.9 64 6.2 63.3 6.9 C 63.3 6.9 62.7 5.9 62.7 5.9 C 63.6 5.1 64.6 4.7 65.8 4.7 C 67.5 4.7 68.9 5.4 68.9 7.4 C 68.93 7.37 68.9 12.5 68.9 12.5 L 67.5 12.5 C 67.5 12.5 67.5 11.71 67.5 11.7 Z M 67.5 9.6 C 67.1 9 66.3 8.7 65.5 8.7 C 64.5 8.7 63.8 9.3 63.8 10.2 C 63.8 11.1 64.5 11.7 65.5 11.7 C 66.3 11.7 67.1 11.4 67.5 10.9 C 67.5 10.9 67.5 9.6 67.5 9.6 Z M 71.2 4.9 L 72.6 4.9 C 72.6 4.9 72.64 6.05 72.6 6.1 C 73.2 5.3 74.1 4.7 75.2 4.7 C 75.2 4.7 75.2 6.1 75.2 6.1 C 75 6.1 74.9 6.1 74.7 6.1 C 73.9 6.1 73 6.6 72.6 7.2 C 72.64 7.21 72.6 12.5 72.6 12.5 L 71.2 12.5 L 71.2 4.9 Z M 80.7 2 C 80.7 2 85.68 1.95 85.7 2 C 87.6 2 88.7 3.1 88.7 4.7 C 88.7 6 87.8 6.9 86.8 7.1 C 88 7.3 88.9 8.4 88.9 9.7 C 88.9 11.4 87.8 12.5 85.8 12.5 C 85.81 12.55 80.7 12.5 80.7 12.5 L 80.7 2 Z M 85.4 6.4 C 86.4 6.4 87 5.8 87 4.9 C 87 4 86.4 3.4 85.4 3.4 C 85.38 3.35 82.3 3.4 82.3 3.4 L 82.3 6.4 C 82.3 6.4 85.38 6.45 85.4 6.4 Z M 85.5 11.2 C 86.6 11.2 87.2 10.5 87.2 9.5 C 87.2 8.6 86.6 7.8 85.5 7.8 C 85.46 7.84 82.3 7.8 82.3 7.8 L 82.3 11.2 C 82.3 11.2 85.46 11.15 85.5 11.2 Z M 96 11.5 C 95.4 12.1 94.4 12.7 93.3 12.7 C 91.6 12.7 90.8 11.9 90.8 10.3 C 90.81 10.29 90.8 4.9 90.8 4.9 L 92.2 4.9 C 92.2 4.9 92.24 9.82 92.2 9.8 C 92.2 11.1 92.9 11.5 93.9 11.5 C 94.8 11.5 95.6 11 96 10.4 C 95.99 10.39 96 4.9 96 4.9 L 97.4 4.9 L 97.4 12.5 L 96 12.5 C 96 12.5 95.99 11.5 96 11.5 Z M 99.5 2.7 C 99.5 2.2 99.9 1.8 100.4 1.8 C 100.9 1.8 101.3 2.2 101.3 2.7 C 101.3 3.2 100.9 3.6 100.4 3.6 C 99.9 3.6 99.5 3.2 99.5 2.7 Z M 99.7 4.9 L 101.1 4.9 L 101.1 12.5 L 99.7 12.5 L 99.7 4.9 Z M 103.4 2 L 104.8 2 L 104.8 12.5 L 103.4 12.5 L 103.4 2 Z M 107.4 10.8 C 107.38 10.85 107.4 6.1 107.4 6.1 L 106.1 6.1 L 106.1 4.9 L 107.4 4.9 L 107.4 2.8 L 108.8 2.8 L 108.8 4.9 L 110.4 4.9 L 110.4 6.1 L 108.8 6.1 C 108.8 6.1 108.81 10.53 108.8 10.5 C 108.8 11.1 109.1 11.5 109.6 11.5 C 109.9 11.5 110.2 11.3 110.3 11.2 C 110.3 11.2 110.7 12.2 110.7 12.2 C 110.4 12.5 109.9 12.7 109.2 12.7 C 108 12.7 107.4 12.1 107.4 10.8 Z " stroke="none" fill="#000"/>
  </g>
</svg>