<?xml version="1.0" standalone="no"?>
<!DOCTYPE svg PUBLIC "-//W3C//DTD SVG 1.1//EN" "http://www.w3.org/Graphics/SVG/1.1/DTD/svg11.dtd">
<svg xmlns="http://www.w3.org/2000/svg" version="1.1" width="89.3px" height="16.9px" viewBox="0 -4 89.3 16.9" style="top:-4px">
  <desc>Lease Type</desc>
  <defs/>
  <g id="Polygon274004">
    <path d="M 0.7 1.1 L 1.6 1.1 L 1.6 6.3 L 4.3 6.3 L 4.3 7.1 L 0.7 7.1 L 0.7 1.1 Z M 7 2.7 C 8.3 2.7 9.1 3.7 9.1 5 C 9.13 5 9.1 5.2 9.1 5.2 C 9.1 5.2 5.69 5.2 5.7 5.2 C 5.8 5.9 6.3 6.6 7.2 6.6 C 7.6 6.6 8.1 6.4 8.5 6 C 8.5 6 8.8 6.6 8.8 6.6 C 8.4 7 7.8 7.2 7.1 7.2 C 5.8 7.2 4.8 6.3 4.8 4.9 C 4.8 3.7 5.7 2.7 7 2.7 Z M 5.7 4.6 C 5.7 4.6 8.3 4.6 8.3 4.6 C 8.3 4 7.9 3.3 7 3.3 C 6.1 3.3 5.7 4 5.7 4.6 Z M 12.8 6.6 C 12.5 7 12 7.2 11.4 7.2 C 10.7 7.2 9.9 6.7 9.9 5.8 C 9.9 4.8 10.7 4.4 11.4 4.4 C 12 4.4 12.5 4.5 12.8 4.9 C 12.8 4.9 12.8 4.2 12.8 4.2 C 12.8 3.7 12.4 3.3 11.8 3.3 C 11.3 3.3 10.8 3.5 10.5 3.9 C 10.5 3.9 10.1 3.4 10.1 3.4 C 10.6 2.9 11.2 2.7 11.9 2.7 C 12.8 2.7 13.6 3.1 13.6 4.2 C 13.63 4.18 13.6 7.1 13.6 7.1 L 12.8 7.1 C 12.8 7.1 12.83 6.63 12.8 6.6 Z M 12.8 5.4 C 12.6 5.1 12.2 4.9 11.7 4.9 C 11.1 4.9 10.7 5.3 10.7 5.8 C 10.7 6.3 11.1 6.7 11.7 6.7 C 12.2 6.7 12.6 6.5 12.8 6.2 C 12.8 6.2 12.8 5.4 12.8 5.4 Z M 14.9 5.9 C 15.2 6.3 15.8 6.6 16.4 6.6 C 17 6.6 17.3 6.3 17.3 5.9 C 17.3 5.5 16.8 5.4 16.3 5.2 C 15.5 5.1 14.7 4.9 14.7 3.9 C 14.7 3.2 15.3 2.7 16.3 2.7 C 17.1 2.7 17.6 2.9 18 3.3 C 18 3.3 17.6 3.8 17.6 3.8 C 17.4 3.5 16.9 3.3 16.3 3.3 C 15.8 3.3 15.5 3.5 15.5 3.9 C 15.5 4.3 15.9 4.4 16.5 4.5 C 17.2 4.7 18.1 4.9 18.1 5.9 C 18.1 6.6 17.5 7.2 16.4 7.2 C 15.6 7.2 15 7 14.6 6.5 C 14.6 6.5 14.9 5.9 14.9 5.9 Z M 21.1 2.7 C 22.4 2.7 23.2 3.7 23.2 5 C 23.17 5 23.2 5.2 23.2 5.2 C 23.2 5.2 19.73 5.2 19.7 5.2 C 19.8 5.9 20.3 6.6 21.2 6.6 C 21.7 6.6 22.2 6.4 22.5 6 C 22.5 6 22.9 6.6 22.9 6.6 C 22.4 7 21.8 7.2 21.1 7.2 C 19.8 7.2 18.9 6.3 18.9 4.9 C 18.9 3.7 19.8 2.7 21.1 2.7 Z M 19.7 4.6 C 19.7 4.6 22.4 4.6 22.4 4.6 C 22.4 4 22 3.3 21.1 3.3 C 20.2 3.3 19.8 4 19.7 4.6 Z M 28 1.9 L 26.1 1.9 L 26.1 1.1 L 30.7 1.1 L 30.7 1.9 L 28.9 1.9 L 28.9 7.1 L 28 7.1 L 28 1.9 Z M 31.4 8.2 C 31.7 8.2 31.9 8.1 32 7.7 C 31.99 7.73 32.2 7.2 32.2 7.2 L 30.4 2.8 L 31.3 2.8 L 32.7 6.2 L 34 2.8 L 34.9 2.8 C 34.9 2.8 32.76 7.94 32.8 7.9 C 32.5 8.6 32 8.9 31.4 8.9 C 31.2 8.9 31 8.8 30.9 8.8 C 30.9 8.8 31 8.1 31 8.1 C 31.1 8.1 31.2 8.2 31.4 8.2 Z M 35.6 8.8 L 35.6 2.8 L 36.4 2.8 C 36.4 2.8 36.37 3.38 36.4 3.4 C 36.7 3 37.2 2.7 37.8 2.7 C 38.9 2.7 39.7 3.5 39.7 4.9 C 39.7 6.4 38.9 7.2 37.8 7.2 C 37.2 7.2 36.7 7 36.4 6.5 C 36.37 6.48 36.4 8.8 36.4 8.8 L 35.6 8.8 Z M 37.6 3.4 C 37.1 3.4 36.6 3.7 36.4 4 C 36.4 4 36.4 5.9 36.4 5.9 C 36.6 6.2 37.1 6.5 37.6 6.5 C 38.4 6.5 38.9 5.8 38.9 4.9 C 38.9 4 38.4 3.4 37.6 3.4 Z M 42.7 2.7 C 44 2.7 44.8 3.7 44.8 5 C 44.77 5 44.8 5.2 44.8 5.2 C 44.8 5.2 41.34 5.2 41.3 5.2 C 41.4 5.9 41.9 6.6 42.8 6.6 C 43.3 6.6 43.8 6.4 44.1 6 C 44.1 6 44.5 6.6 44.5 6.6 C 44 7 43.4 7.2 42.7 7.2 C 41.4 7.2 40.5 6.3 40.5 4.9 C 40.5 3.7 41.4 2.7 42.7 2.7 Z M 41.3 4.6 C 41.3 4.6 44 4.6 44 4.6 C 44 4 43.6 3.3 42.7 3.3 C 41.8 3.3 41.4 4 41.3 4.6 Z " stroke="none" fill="#000"/>
  </g>
</svg>