<?xml version="1.0" standalone="no"?>
<!DOCTYPE svg PUBLIC "-//W3C//DTD SVG 1.1//EN" "http://www.w3.org/Graphics/SVG/1.1/DTD/svg11.dtd">
<svg xmlns="http://www.w3.org/2000/svg" version="1.1" width="388.4px" height="67.5px" viewBox="0 -6 388.4 67.5" style="top:-6px">
  <desc>SUBJECT PROPERTY INVESTMENT SUMMARY</desc>
  <defs/>
  <g id="Polygon268776">
    <path d="M 1.5 46.4 L 1.5 26.7 L 4.8 26.7 L 4.8 46.4 L 1.5 46.4 Z M 7.5 46.4 L 7.5 26.7 L 10.7 26.7 L 14.9 38.9 L 14.9 26.7 L 17.9 26.7 L 17.9 46.4 L 14.8 46.4 L 10.4 33.6 L 10.4 46.4 L 7.5 46.4 Z M 26.6 46.4 L 23 46.4 L 19.2 26.7 L 22.6 26.7 L 24.8 41.3 L 27.1 26.7 L 30.3 26.7 L 26.6 46.4 Z M 31.7 46.4 L 31.7 26.7 L 40.3 26.7 L 40.3 29.5 L 34.9 29.5 L 34.9 35 L 39.4 35 L 39.4 37.8 L 34.9 37.8 L 34.9 43.5 L 40.4 43.5 L 40.4 46.4 L 31.7 46.4 Z M 48.4 33.7 C 48.4 33.7 48.42 30.96 48.4 31 C 48.4 29.7 47.7 29.3 46.8 29.3 C 45.8 29.3 45.1 29.7 45.1 31 C 45.1 31 45.1 32.3 45.1 32.3 C 45.1 33.3 45.4 33.8 46.4 34.3 C 46.4 34.3 48.7 35.6 48.7 35.6 C 50.6 36.7 51.7 37.6 51.7 39.7 C 51.7 39.7 51.7 42.5 51.7 42.5 C 51.7 45.6 49.8 46.7 46.8 46.7 C 46.8 46.7 46.8 46.7 46.8 46.7 C 43.8 46.7 41.9 45.6 41.9 42.5 C 41.87 42.53 41.9 39.1 41.9 39.1 L 45.1 39.1 C 45.1 39.1 45.09 42.08 45.1 42.1 C 45.1 43.3 45.8 43.8 46.8 43.8 C 47.8 43.8 48.5 43.3 48.5 42.1 C 48.5 42.1 48.5 40.5 48.5 40.5 C 48.5 39.5 48.2 39 47.2 38.5 C 47.2 38.5 44.9 37.2 44.9 37.2 C 43 36.1 41.9 35.2 41.9 33.1 C 41.9 33.1 41.9 30.5 41.9 30.5 C 41.9 27.6 44 26.4 46.7 26.4 C 46.7 26.4 46.8 26.4 46.8 26.4 C 49.5 26.4 51.6 27.6 51.6 30.5 C 51.64 30.5 51.6 33.7 51.6 33.7 L 48.4 33.7 Z M 62.4 29.5 L 59.1 29.5 L 59.1 46.4 L 55.8 46.4 L 55.8 29.5 L 52.5 29.5 L 52.5 26.7 L 62.4 26.7 L 62.4 29.5 Z M 71.7 43.5 L 69.9 43.5 L 66.9 34.3 L 66.9 46.4 L 63.8 46.4 L 63.8 26.7 L 66.9 26.7 L 70.8 38.2 L 74.6 26.7 L 77.8 26.7 L 77.8 46.4 L 74.7 46.4 L 74.7 34.3 L 71.7 43.5 Z M 80.4 46.4 L 80.4 26.7 L 89 26.7 L 89 29.5 L 83.6 29.5 L 83.6 35 L 88.1 35 L 88.1 37.8 L 83.6 37.8 L 83.6 43.5 L 89.1 43.5 L 89.1 46.4 L 80.4 46.4 Z M 91.1 46.4 L 91.1 26.7 L 94.4 26.7 L 98.6 38.9 L 98.6 26.7 L 101.6 26.7 L 101.6 46.4 L 98.5 46.4 L 94.1 33.6 L 94.1 46.4 L 91.1 46.4 Z M 112.9 29.5 L 109.6 29.5 L 109.6 46.4 L 106.3 46.4 L 106.3 29.5 L 103 29.5 L 103 26.7 L 112.9 26.7 L 112.9 29.5 Z M 124.4 33.7 C 124.4 33.7 124.38 30.96 124.4 31 C 124.4 29.7 123.7 29.3 122.7 29.3 C 121.7 29.3 121 29.7 121 31 C 121 31 121 32.3 121 32.3 C 121 33.3 121.4 33.8 122.3 34.3 C 122.3 34.3 124.6 35.6 124.6 35.6 C 126.5 36.7 127.7 37.6 127.7 39.7 C 127.7 39.7 127.7 42.5 127.7 42.5 C 127.7 45.6 125.8 46.7 122.8 46.7 C 122.8 46.7 122.7 46.7 122.7 46.7 C 119.7 46.7 117.8 45.6 117.8 42.5 C 117.82 42.53 117.8 39.1 117.8 39.1 L 121 39.1 C 121 39.1 121.04 42.08 121 42.1 C 121 43.3 121.7 43.8 122.7 43.8 C 123.7 43.8 124.4 43.3 124.4 42.1 C 124.4 42.1 124.4 40.5 124.4 40.5 C 124.4 39.5 124.1 39 123.1 38.5 C 123.1 38.5 120.8 37.2 120.8 37.2 C 118.9 36.1 117.8 35.2 117.8 33.1 C 117.8 33.1 117.8 30.5 117.8 30.5 C 117.8 27.6 120 26.4 122.7 26.4 C 122.7 26.4 122.7 26.4 122.7 26.4 C 125.4 26.4 127.6 27.6 127.6 30.5 C 127.59 30.5 127.6 33.7 127.6 33.7 L 124.4 33.7 Z M 139.6 42.5 C 139.6 45.5 137.7 46.7 134.7 46.7 C 134.7 46.7 134.6 46.7 134.6 46.7 C 131.6 46.7 129.7 45.6 129.7 42.5 C 129.68 42.48 129.7 26.7 129.7 26.7 L 133 26.7 C 133 26.7 132.96 41.97 133 42 C 133 43.4 133.6 43.8 134.7 43.8 C 135.7 43.8 136.3 43.4 136.3 42 C 136.35 41.97 136.3 26.7 136.3 26.7 L 139.6 26.7 C 139.6 26.7 139.62 42.48 139.6 42.5 Z M 150 43.5 L 148.1 43.5 L 145.2 34.3 L 145.2 46.4 L 142.1 46.4 L 142.1 26.7 L 145.2 26.7 L 149 38.2 L 152.9 26.7 L 156.1 26.7 L 156.1 46.4 L 152.9 46.4 L 152.9 34.3 L 150 43.5 Z M 166.5 43.5 L 164.6 43.5 L 161.7 34.3 L 161.7 46.4 L 158.6 46.4 L 158.6 26.7 L 161.7 26.7 L 165.5 38.2 L 169.4 26.7 L 172.6 26.7 L 172.6 46.4 L 169.4 46.4 L 169.4 34.3 L 166.5 43.5 Z M 181.4 42 L 177.8 42 L 177.1 46.4 L 174 46.4 L 177.6 26.7 L 181.7 26.7 L 185.5 46.4 L 182.1 46.4 L 181.4 42 Z M 181 39.3 L 179.6 30.5 L 178.2 39.3 L 181 39.3 Z M 194.3 46.4 L 191.7 38.6 L 190.1 38.6 L 190.1 46.4 L 186.8 46.4 L 186.8 26.7 C 186.8 26.7 191.94 26.66 191.9 26.7 C 194.9 26.7 196.9 27.9 196.9 30.8 C 196.9 30.8 196.9 34.4 196.9 34.4 C 196.9 36.3 196.1 37.5 194.8 38 C 194.76 38.04 197.6 46.4 197.6 46.4 L 194.3 46.4 Z M 190.1 35.7 C 190.1 35.7 191.83 35.73 191.8 35.7 C 192.9 35.7 193.6 35.3 193.6 33.9 C 193.6 33.9 193.6 31.4 193.6 31.4 C 193.6 29.9 192.9 29.5 191.8 29.5 C 191.83 29.54 190.1 29.5 190.1 29.5 L 190.1 35.7 Z M 204.9 46.4 L 201.6 46.4 L 201.6 39.4 L 197.6 26.7 L 201.1 26.7 L 203.3 35.8 L 205.5 26.7 L 208.9 26.7 L 204.9 39.4 L 204.9 46.4 Z " stroke="none" fill="#282828"/>
  </g>
  <g id="Polygon268775">
    <path d="M 1.4 9.8 C 2.1 10.6 3.3 11.3 4.8 11.3 C 6.5 11.3 7.1 10.5 7.1 9.7 C 7.1 8.6 5.9 8.3 4.5 7.9 C 2.8 7.5 0.9 7 0.9 4.8 C 0.9 3.1 2.4 1.8 4.6 1.8 C 6.2 1.8 7.5 2.3 8.5 3.3 C 8.5 3.3 7.5 4.4 7.5 4.4 C 6.7 3.6 5.6 3.2 4.5 3.2 C 3.3 3.2 2.5 3.8 2.5 4.7 C 2.5 5.7 3.6 6 5 6.3 C 6.7 6.7 8.7 7.3 8.7 9.5 C 8.7 11.2 7.6 12.7 4.7 12.7 C 2.8 12.7 1.4 12.1 0.5 11.1 C 0.5 11.1 1.4 9.8 1.4 9.8 Z M 10.4 2 L 12 2 C 12 2 11.99 8.36 12 8.4 C 12 10.2 13 11.3 14.8 11.3 C 16.7 11.3 17.7 10.2 17.7 8.4 C 17.69 8.36 17.7 2 17.7 2 L 19.3 2 C 19.3 2 19.3 8.39 19.3 8.4 C 19.3 11 17.8 12.7 14.8 12.7 C 11.9 12.7 10.4 11 10.4 8.4 C 10.39 8.4 10.4 2 10.4 2 Z M 21.5 2 C 21.5 2 26.48 1.95 26.5 2 C 28.4 2 29.5 3.1 29.5 4.7 C 29.5 6 28.6 6.9 27.6 7.1 C 28.7 7.3 29.7 8.4 29.7 9.7 C 29.7 11.4 28.6 12.5 26.6 12.5 C 26.6 12.55 21.5 12.5 21.5 12.5 L 21.5 2 Z M 26.2 6.4 C 27.2 6.4 27.8 5.8 27.8 4.9 C 27.8 4 27.2 3.4 26.2 3.4 C 26.17 3.35 23.1 3.4 23.1 3.4 L 23.1 6.4 C 23.1 6.4 26.17 6.45 26.2 6.4 Z M 26.3 11.2 C 27.4 11.2 28 10.5 28 9.5 C 28 8.6 27.4 7.8 26.3 7.8 C 26.25 7.84 23.1 7.8 23.1 7.8 L 23.1 11.2 C 23.1 11.2 26.25 11.15 26.3 11.2 Z M 31.2 10.4 C 31.7 10.9 32.3 11.3 33.1 11.3 C 34.4 11.3 35.1 10.5 35.1 9.3 C 35.12 9.26 35.1 2 35.1 2 L 36.7 2 C 36.7 2 36.7 9.28 36.7 9.3 C 36.7 11.6 35.2 12.7 33.2 12.7 C 32.1 12.7 31.2 12.4 30.5 11.6 C 30.5 11.6 31.2 10.4 31.2 10.4 Z M 38.9 2 L 46 2 L 46 3.4 L 40.5 3.4 L 40.5 6.4 L 45.9 6.4 L 45.9 7.8 L 40.5 7.8 L 40.5 11.2 L 46 11.2 L 46 12.5 L 38.9 12.5 L 38.9 2 Z M 47.4 7.3 C 47.4 4 49.8 1.8 52.8 1.8 C 54.9 1.8 56.2 2.8 57 4 C 57 4 55.7 4.7 55.7 4.7 C 55.1 3.8 54.1 3.2 52.8 3.2 C 50.7 3.2 49 4.9 49 7.3 C 49 9.6 50.7 11.3 52.8 11.3 C 54.1 11.3 55.1 10.7 55.7 9.8 C 55.7 9.8 57 10.5 57 10.5 C 56.2 11.7 54.9 12.7 52.8 12.7 C 49.8 12.7 47.4 10.5 47.4 7.3 Z M 61.1 3.4 L 57.8 3.4 L 57.8 2 L 65.9 2 L 65.9 3.4 L 62.7 3.4 L 62.7 12.5 L 61.1 12.5 L 61.1 3.4 Z M 71.4 2 C 71.4 2 75.82 1.95 75.8 2 C 78 2 79.2 3.4 79.2 5.2 C 79.2 7 78 8.5 75.8 8.5 C 75.82 8.46 72.9 8.5 72.9 8.5 L 72.9 12.5 L 71.4 12.5 L 71.4 2 Z M 75.6 3.4 C 75.62 3.35 72.9 3.4 72.9 3.4 L 72.9 7.1 C 72.9 7.1 75.62 7.07 75.6 7.1 C 76.8 7.1 77.6 6.3 77.6 5.2 C 77.6 4.1 76.8 3.4 75.6 3.4 Z M 84.3 8.5 L 82.3 8.5 L 82.3 12.5 L 80.7 12.5 L 80.7 2 C 80.7 2 85.14 1.95 85.1 2 C 87.2 2 88.5 3.3 88.5 5.2 C 88.5 7.1 87.3 8.1 85.9 8.3 C 85.91 8.31 88.6 12.5 88.6 12.5 L 86.8 12.5 L 84.3 8.5 Z M 84.9 3.4 C 84.94 3.35 82.3 3.4 82.3 3.4 L 82.3 7.1 C 82.3 7.1 84.94 7.07 84.9 7.1 C 86.1 7.1 86.9 6.3 86.9 5.2 C 86.9 4.1 86.1 3.4 84.9 3.4 Z M 95.2 1.8 C 98.4 1.8 100.6 4.1 100.6 7.3 C 100.6 10.4 98.4 12.7 95.2 12.7 C 92.1 12.7 89.9 10.4 89.9 7.3 C 89.9 4.1 92.1 1.8 95.2 1.8 Z M 95.2 3.2 C 93 3.2 91.5 4.9 91.5 7.3 C 91.5 9.6 93 11.3 95.2 11.3 C 97.5 11.3 98.9 9.6 98.9 7.3 C 98.9 4.9 97.5 3.2 95.2 3.2 Z M 102.3 2 C 102.3 2 106.79 1.95 106.8 2 C 109 2 110.2 3.4 110.2 5.2 C 110.2 7 109 8.5 106.8 8.5 C 106.79 8.46 103.9 8.5 103.9 8.5 L 103.9 12.5 L 102.3 12.5 L 102.3 2 Z M 106.6 3.4 C 106.59 3.35 103.9 3.4 103.9 3.4 L 103.9 7.1 C 103.9 7.1 106.59 7.07 106.6 7.1 C 107.7 7.1 108.5 6.3 108.5 5.2 C 108.5 4.1 107.7 3.4 106.6 3.4 Z M 111.7 2 L 118.8 2 L 118.8 3.4 L 113.2 3.4 L 113.2 6.4 L 118.7 6.4 L 118.7 7.8 L 113.2 7.8 L 113.2 11.2 L 118.8 11.2 L 118.8 12.5 L 111.7 12.5 L 111.7 2 Z M 124.2 8.5 L 122.2 8.5 L 122.2 12.5 L 120.6 12.5 L 120.6 2 C 120.6 2 125.06 1.95 125.1 2 C 127.1 2 128.5 3.3 128.5 5.2 C 128.5 7.1 127.2 8.1 125.8 8.3 C 125.82 8.31 128.5 12.5 128.5 12.5 L 126.7 12.5 L 124.2 8.5 Z M 124.8 3.4 C 124.85 3.35 122.2 3.4 122.2 3.4 L 122.2 7.1 C 122.2 7.1 124.85 7.07 124.8 7.1 C 126 7.1 126.8 6.3 126.8 5.2 C 126.8 4.1 126 3.4 124.8 3.4 Z M 132.7 3.4 L 129.4 3.4 L 129.4 2 L 137.5 2 L 137.5 3.4 L 134.3 3.4 L 134.3 12.5 L 132.7 12.5 L 132.7 3.4 Z M 142.1 8.1 L 137.9 2 L 139.8 2 L 142.9 6.7 L 146 2 L 147.8 2 L 143.7 8.1 L 143.7 12.5 L 142.1 12.5 L 142.1 8.1 Z " stroke="none" fill="#3797ef"/>
  </g>
</svg>