<?xml version="1.0" standalone="no"?>
<!DOCTYPE svg PUBLIC "-//W3C//DTD SVG 1.1//EN" "http://www.w3.org/Graphics/SVG/1.1/DTD/svg11.dtd">
<svg xmlns="http://www.w3.org/2000/svg" version="1.1" width="330.5px" height="16.9px" viewBox="0 -4 330.5 16.9" style="top:-4px">
  <desc>12345 STREET ADDRESS, CITY, STATE ZIP</desc>
  <defs/>
  <g id="Polygon205224">
    <path d="M 163.9 2.3 L 162.9 3.3 L 162.4 2.8 L 164 1.1 L 164.8 1.1 L 164.8 7.1 L 163.9 7.1 L 163.9 2.3 Z M 165.9 6.4 C 168.2 4.7 169.2 3.8 169.2 2.8 C 169.2 2.1 168.6 1.8 168 1.8 C 167.3 1.8 166.8 2.1 166.4 2.6 C 166.4 2.6 165.9 2 165.9 2 C 166.4 1.4 167.2 1 168 1 C 169.1 1 170.1 1.6 170.1 2.8 C 170.1 4 169 5 167.4 6.3 C 167.36 6.32 170.2 6.3 170.2 6.3 L 170.2 7.1 L 165.9 7.1 C 165.9 7.1 165.93 6.4 165.9 6.4 Z M 171.5 5.7 C 171.9 6.1 172.5 6.4 173.2 6.4 C 174 6.4 174.5 6 174.5 5.4 C 174.5 4.7 174 4.4 173.1 4.4 C 172.9 4.4 172.5 4.4 172.5 4.5 C 172.5 4.5 172.5 3.6 172.5 3.6 C 172.6 3.6 172.9 3.6 173.1 3.6 C 173.8 3.6 174.4 3.4 174.4 2.8 C 174.4 2.1 173.8 1.8 173.1 1.8 C 172.5 1.8 172 2.1 171.6 2.5 C 171.6 2.5 171.1 2 171.1 2 C 171.5 1.4 172.3 1 173.2 1 C 174.4 1 175.3 1.6 175.3 2.6 C 175.3 3.5 174.6 3.9 174 4 C 174.6 4.1 175.4 4.5 175.4 5.5 C 175.4 6.5 174.6 7.2 173.2 7.2 C 172.2 7.2 171.4 6.8 171 6.2 C 171 6.2 171.5 5.7 171.5 5.7 Z M 179 5.7 L 176.1 5.7 L 176.1 4.9 L 178.7 1.1 L 179.9 1.1 L 179.9 4.9 L 180.7 4.9 L 180.7 5.7 L 179.9 5.7 L 179.9 7.1 L 179 7.1 L 179 5.7 Z M 177 4.9 L 179 4.9 L 179 1.9 L 177 4.9 Z M 182.1 5.7 C 182.5 6.1 183 6.4 183.7 6.4 C 184.5 6.4 185 5.9 185 5.2 C 185 4.5 184.5 4.1 183.7 4.1 C 183.2 4.1 182.8 4.2 182.4 4.6 C 182.37 4.61 181.7 4.4 181.7 4.4 L 181.7 1.1 L 185.5 1.1 L 185.5 1.9 L 182.6 1.9 C 182.6 1.9 182.62 3.82 182.6 3.8 C 182.9 3.5 183.4 3.3 184 3.3 C 185 3.3 185.9 4 185.9 5.2 C 185.9 6.4 185 7.2 183.7 7.2 C 182.7 7.2 182 6.9 181.5 6.3 C 181.5 6.3 182.1 5.7 182.1 5.7 Z M 189.5 5.6 C 189.9 6 190.5 6.4 191.4 6.4 C 192.3 6.4 192.7 5.9 192.7 5.5 C 192.7 4.9 192 4.7 191.2 4.5 C 190.3 4.2 189.1 4 189.1 2.7 C 189.1 1.7 190 1 191.3 1 C 192.2 1 192.9 1.3 193.5 1.9 C 193.5 1.9 192.9 2.5 192.9 2.5 C 192.5 2 191.8 1.8 191.2 1.8 C 190.5 1.8 190.1 2.2 190.1 2.7 C 190.1 3.2 190.7 3.4 191.5 3.6 C 192.4 3.8 193.6 4.1 193.6 5.4 C 193.6 6.3 192.9 7.2 191.3 7.2 C 190.3 7.2 189.5 6.8 189 6.3 C 189 6.3 189.5 5.6 189.5 5.6 Z M 196 1.9 L 194.2 1.9 L 194.2 1.1 L 198.8 1.1 L 198.8 1.9 L 196.9 1.9 L 196.9 7.1 L 196 7.1 L 196 1.9 Z M 201.7 4.8 L 200.6 4.8 L 200.6 7.1 L 199.7 7.1 L 199.7 1.1 C 199.7 1.1 202.25 1.11 202.2 1.1 C 203.4 1.1 204.2 1.8 204.2 3 C 204.2 4 203.4 4.6 202.7 4.7 C 202.68 4.71 204.2 7.1 204.2 7.1 L 203.2 7.1 L 201.7 4.8 Z M 202.1 1.9 C 202.13 1.9 200.6 1.9 200.6 1.9 L 200.6 4 C 200.6 4 202.13 4.01 202.1 4 C 202.8 4 203.2 3.6 203.2 3 C 203.2 2.3 202.8 1.9 202.1 1.9 Z M 205.3 1.1 L 209.3 1.1 L 209.3 1.9 L 206.2 1.9 L 206.2 3.7 L 209.3 3.7 L 209.3 4.4 L 206.2 4.4 L 206.2 6.3 L 209.3 6.3 L 209.3 7.1 L 205.3 7.1 L 205.3 1.1 Z M 210.4 1.1 L 214.5 1.1 L 214.5 1.9 L 211.3 1.9 L 211.3 3.7 L 214.4 3.7 L 214.4 4.4 L 211.3 4.4 L 211.3 6.3 L 214.5 6.3 L 214.5 7.1 L 210.4 7.1 L 210.4 1.1 Z M 217.1 1.9 L 215.2 1.9 L 215.2 1.1 L 219.8 1.1 L 219.8 1.9 L 218 1.9 L 218 7.1 L 217.1 7.1 L 217.1 1.9 Z M 226.9 5.9 L 223.9 5.9 L 223.4 7.1 L 222.5 7.1 L 224.8 1.1 L 226 1.1 L 228.3 7.1 L 227.4 7.1 L 226.9 5.9 Z M 224.2 5.1 L 226.6 5.1 L 225.4 1.9 L 224.2 5.1 Z M 229.1 1.1 C 229.1 1.1 231.21 1.11 231.2 1.1 C 233.1 1.1 234.3 2.4 234.3 4.1 C 234.3 5.9 233.1 7.1 231.2 7.1 C 231.21 7.11 229.1 7.1 229.1 7.1 L 229.1 1.1 Z M 231.2 6.3 C 232.6 6.3 233.4 5.3 233.4 4.1 C 233.4 2.9 232.6 1.9 231.2 1.9 C 231.21 1.9 230 1.9 230 1.9 L 230 6.3 C 230 6.3 231.21 6.32 231.2 6.3 Z M 235.4 1.1 C 235.4 1.1 237.56 1.11 237.6 1.1 C 239.4 1.1 240.7 2.4 240.7 4.1 C 240.7 5.9 239.4 7.1 237.6 7.1 C 237.56 7.11 235.4 7.1 235.4 7.1 L 235.4 1.1 Z M 237.6 6.3 C 238.9 6.3 239.7 5.3 239.7 4.1 C 239.7 2.9 239 1.9 237.6 1.9 C 237.56 1.9 236.3 1.9 236.3 1.9 L 236.3 6.3 C 236.3 6.3 237.56 6.32 237.6 6.3 Z M 243.8 4.8 L 242.7 4.8 L 242.7 7.1 L 241.8 7.1 L 241.8 1.1 C 241.8 1.1 244.29 1.11 244.3 1.1 C 245.4 1.1 246.2 1.8 246.2 3 C 246.2 4 245.5 4.6 244.7 4.7 C 244.72 4.71 246.3 7.1 246.3 7.1 L 245.2 7.1 L 243.8 4.8 Z M 244.2 1.9 C 244.17 1.9 242.7 1.9 242.7 1.9 L 242.7 4 C 242.7 4 244.17 4.01 244.2 4 C 244.8 4 245.3 3.6 245.3 3 C 245.3 2.3 244.8 1.9 244.2 1.9 Z M 247.3 1.1 L 251.4 1.1 L 251.4 1.9 L 248.2 1.9 L 248.2 3.7 L 251.3 3.7 L 251.3 4.4 L 248.2 4.4 L 248.2 6.3 L 251.4 6.3 L 251.4 7.1 L 247.3 7.1 L 247.3 1.1 Z M 252.6 5.6 C 253 6 253.7 6.4 254.5 6.4 C 255.5 6.4 255.8 5.9 255.8 5.5 C 255.8 4.9 255.1 4.7 254.4 4.5 C 253.4 4.2 252.3 4 252.3 2.7 C 252.3 1.7 253.2 1 254.4 1 C 255.3 1 256.1 1.3 256.6 1.9 C 256.6 1.9 256.1 2.5 256.1 2.5 C 255.6 2 255 1.8 254.3 1.8 C 253.7 1.8 253.2 2.2 253.2 2.7 C 253.2 3.2 253.9 3.4 254.6 3.6 C 255.6 3.8 256.7 4.1 256.7 5.4 C 256.7 6.3 256.1 7.2 254.5 7.2 C 253.4 7.2 252.6 6.8 252.1 6.3 C 252.1 6.3 252.6 5.6 252.6 5.6 Z M 257.9 5.6 C 258.3 6 259 6.4 259.8 6.4 C 260.8 6.4 261.1 5.9 261.1 5.5 C 261.1 4.9 260.5 4.7 259.7 4.5 C 258.7 4.2 257.6 4 257.6 2.7 C 257.6 1.7 258.5 1 259.7 1 C 260.7 1 261.4 1.3 261.9 1.9 C 261.9 1.9 261.4 2.5 261.4 2.5 C 260.9 2 260.3 1.8 259.7 1.8 C 259 1.8 258.5 2.2 258.5 2.7 C 258.5 3.2 259.2 3.4 259.9 3.6 C 260.9 3.8 262.1 4.1 262.1 5.4 C 262.1 6.3 261.4 7.2 259.8 7.2 C 258.7 7.2 257.9 6.8 257.4 6.3 C 257.4 6.3 257.9 5.6 257.9 5.6 Z M 262.9 8 C 263.2 7.8 263.5 7.4 263.6 7.1 C 263.5 7.1 263.5 7.1 263.4 7.1 C 263.1 7.1 262.9 6.9 262.9 6.6 C 262.9 6.3 263.2 6.1 263.5 6.1 C 263.8 6.1 264.1 6.4 264.1 6.8 C 264.1 7.4 263.8 8 263.3 8.3 C 263.3 8.3 262.9 8 262.9 8 Z M 267.3 4.1 C 267.3 2.3 268.7 1 270.4 1 C 271.6 1 272.3 1.6 272.8 2.3 C 272.8 2.3 272 2.7 272 2.7 C 271.7 2.2 271.1 1.8 270.4 1.8 C 269.2 1.8 268.2 2.8 268.2 4.1 C 268.2 5.5 269.2 6.4 270.4 6.4 C 271.1 6.4 271.7 6 272 5.5 C 272 5.5 272.8 5.9 272.8 5.9 C 272.3 6.7 271.6 7.2 270.4 7.2 C 268.7 7.2 267.3 6 267.3 4.1 Z M 273.7 1.1 L 274.6 1.1 L 274.6 7.1 L 273.7 7.1 L 273.7 1.1 Z M 277.4 1.9 L 275.5 1.9 L 275.5 1.1 L 280.1 1.1 L 280.1 1.9 L 278.3 1.9 L 278.3 7.1 L 277.4 7.1 L 277.4 1.9 Z M 282.8 4.6 L 280.5 1.1 L 281.5 1.1 L 283.2 3.8 L 285 1.1 L 286 1.1 L 283.7 4.6 L 283.7 7.1 L 282.8 7.1 L 282.8 4.6 Z M 285.8 8 C 286.1 7.8 286.4 7.4 286.4 7.1 C 286.4 7.1 286.3 7.1 286.3 7.1 C 286 7.1 285.8 6.9 285.8 6.6 C 285.8 6.3 286 6.1 286.3 6.1 C 286.7 6.1 287 6.4 287 6.8 C 287 7.4 286.6 8 286.2 8.3 C 286.2 8.3 285.8 8 285.8 8 Z M 290.6 5.6 C 291 6 291.6 6.4 292.4 6.4 C 293.4 6.4 293.8 5.9 293.8 5.5 C 293.8 4.9 293.1 4.7 292.3 4.5 C 291.3 4.2 290.2 4 290.2 2.7 C 290.2 1.7 291.1 1 292.4 1 C 293.3 1 294 1.3 294.5 1.9 C 294.5 1.9 294 2.5 294 2.5 C 293.6 2 292.9 1.8 292.3 1.8 C 291.6 1.8 291.2 2.2 291.2 2.7 C 291.2 3.2 291.8 3.4 292.6 3.6 C 293.5 3.8 294.7 4.1 294.7 5.4 C 294.7 6.3 294 7.2 292.4 7.2 C 291.3 7.2 290.6 6.8 290 6.3 C 290 6.3 290.6 5.6 290.6 5.6 Z M 297.1 1.9 L 295.3 1.9 L 295.3 1.1 L 299.9 1.1 L 299.9 1.9 L 298 1.9 L 298 7.1 L 297.1 7.1 L 297.1 1.9 Z M 304 5.9 L 301.1 5.9 L 300.6 7.1 L 299.6 7.1 L 302 1.1 L 303.1 1.1 L 305.5 7.1 L 304.5 7.1 L 304 5.9 Z M 301.3 5.1 L 303.8 5.1 L 302.5 1.9 L 301.3 5.1 Z M 307.1 1.9 L 305.2 1.9 L 305.2 1.1 L 309.8 1.1 L 309.8 1.9 L 308 1.9 L 308 7.1 L 307.1 7.1 L 307.1 1.9 Z M 310.8 1.1 L 314.8 1.1 L 314.8 1.9 L 311.7 1.9 L 311.7 3.7 L 314.7 3.7 L 314.7 4.4 L 311.7 4.4 L 311.7 6.3 L 314.8 6.3 L 314.8 7.1 L 310.8 7.1 L 310.8 1.1 Z M 318 6.4 L 321.2 1.9 L 318 1.9 L 318 1.1 L 322.4 1.1 L 322.4 1.8 L 319.2 6.3 L 322.4 6.3 L 322.4 7.1 L 318 7.1 L 318 6.4 Z M 323.5 1.1 L 324.4 1.1 L 324.4 7.1 L 323.5 7.1 L 323.5 1.1 Z M 325.8 1.1 C 325.8 1.1 328.3 1.11 328.3 1.1 C 329.5 1.1 330.2 2 330.2 3 C 330.2 4 329.5 4.8 328.3 4.8 C 328.3 4.8 326.7 4.8 326.7 4.8 L 326.7 7.1 L 325.8 7.1 L 325.8 1.1 Z M 328.2 1.9 C 328.19 1.9 326.7 1.9 326.7 1.9 L 326.7 4 C 326.7 4 328.19 4.01 328.2 4 C 328.8 4 329.3 3.6 329.3 3 C 329.3 2.3 328.8 1.9 328.2 1.9 Z " stroke="none" fill="#88898a"/>
  </g>
</svg>