<?xml version="1.0" standalone="no"?><!DOCTYPE svg PUBLIC "-//W3C//DTD SVG 1.1//EN" "http://www.w3.org/Graphics/SVG/1.1/DTD/svg11.dtd"><svg xmlns="http://www.w3.org/2000/svg" version="1.1" width="229px" height="82.9px" viewBox="0 -10 229 82.9" style="top:-10px"><desc>Agent 1</desc><defs/><g id="Polygon273056"><path d="m.7 59.5c0-2.6.8-5.1 2.3-7.1l.9.7c-1.1 2-1.7 3.8-1.7 6.4c0 2.5.6 4.3 1.7 6.3l-.9.7C1.5 64.6.7 62 .7 59.5zm8.2-6.9c2.9 0 4.1 2.8 4.1 5.4c0 2.7-1.2 5.5-4.1 5.5c-3 0-4.2-2.8-4.2-5.5c0-2.6 1.2-5.4 4.2-5.4zm0 1.4c-1.9 0-2.5 2-2.5 4c0 2.1.6 4.1 2.5 4.1c1.9 0 2.5-2 2.5-4.1c0-2-.6-4-2.5-4zm9.6-1.4c2.9 0 4.1 2.8 4.1 5.4c0 2.7-1.2 5.5-4.1 5.5c-3 0-4.2-2.8-4.2-5.5c0-2.6 1.2-5.4 4.2-5.4zm0 1.4c-1.9 0-2.6 2-2.6 4c0 2.1.7 4.1 2.6 4.1c1.8 0 2.5-2 2.5-4.1c0-2-.7-4-2.5-4zm9.6-1.4c2.9 0 4.1 2.8 4.1 5.4c0 2.7-1.2 5.5-4.1 5.5c-3 0-4.2-2.8-4.2-5.5c0-2.6 1.2-5.4 4.2-5.4zm0 1.4c-1.9 0-2.6 2-2.6 4c0 2.1.7 4.1 2.6 4.1c1.8 0 2.5-2 2.5-4.1c0-2-.7-4-2.5-4zm5-.9l.8-.7c1.5 2 2.4 4.5 2.4 7.1c0 2.5-.9 5.1-2.4 7l-.8-.7c1-2 1.6-3.8 1.6-6.3c0-2.6-.6-4.4-1.6-6.4zm12.5-.5c2.9 0 4.1 2.8 4.1 5.4c0 2.7-1.2 5.5-4.1 5.5c-2.9 0-4.1-2.8-4.1-5.5c0-2.6 1.2-5.4 4.1-5.4zm0 1.4c-1.9 0-2.5 2-2.5 4c0 2.1.6 4.1 2.5 4.1c1.9 0 2.5-2 2.5-4.1c0-2-.6-4-2.5-4zm9.6-1.4c2.9 0 4.1 2.8 4.1 5.4c0 2.7-1.2 5.5-4.1 5.5c-2.9 0-4.2-2.8-4.2-5.5c0-2.6 1.3-5.4 4.2-5.4zm0 1.4c-1.9 0-2.5 2-2.5 4c0 2.1.6 4.1 2.5 4.1c1.9 0 2.5-2 2.5-4.1c0-2-.6-4-2.5-4zm9.6-1.4c2.9 0 4.1 2.8 4.1 5.4c0 2.7-1.2 5.5-4.1 5.5c-3 0-4.2-2.8-4.2-5.5c0-2.6 1.2-5.4 4.2-5.4zm0 1.4c-1.9 0-2.5 2-2.5 4c0 2.1.6 4.1 2.5 4.1c1.9 0 2.5-2 2.5-4.1c0-2-.6-4-2.5-4zm5.2 4.9h3.8v1.2H70v-1.2zm9-6.3c2.9 0 4.1 2.8 4.1 5.4c0 2.7-1.2 5.5-4.1 5.5c-3 0-4.2-2.8-4.2-5.5c0-2.6 1.2-5.4 4.2-5.4zm0 1.4c-1.9 0-2.5 2-2.5 4c0 2.1.6 4.1 2.5 4.1c1.9 0 2.5-2 2.5-4.1c0-2-.6-4-2.5-4zm9.6-1.4c2.9 0 4.1 2.8 4.1 5.4c0 2.7-1.2 5.5-4.1 5.5c-3 0-4.2-2.8-4.2-5.5c0-2.6 1.2-5.4 4.2-5.4zm0 1.4c-1.9 0-2.6 2-2.6 4c0 2.1.7 4.1 2.6 4.1c1.9 0 2.5-2 2.5-4.1c0-2-.6-4-2.5-4zm9.6-1.4c2.9 0 4.1 2.8 4.1 5.4c0 2.7-1.2 5.5-4.1 5.5c-3 0-4.2-2.8-4.2-5.5c0-2.6 1.2-5.4 4.2-5.4zm0 1.4c-1.9 0-2.6 2-2.6 4c0 2.1.7 4.1 2.6 4.1c1.8 0 2.5-2 2.5-4.1c0-2-.7-4-2.5-4zm9.6-1.4c2.9 0 4.1 2.8 4.1 5.4c0 2.7-1.2 5.5-4.1 5.5c-3 0-4.2-2.8-4.2-5.5c0-2.6 1.2-5.4 4.2-5.4zm0 1.4c-1.9 0-2.6 2-2.6 4c0 2.1.7 4.1 2.6 4.1c1.8 0 2.5-2 2.5-4.1c0-2-.7-4-2.5-4z" stroke="none" fill="#3797ef"/></g><g id="Polygon273055"><path d="m3.8 35.1H.5v-1.4h8.1v1.4H5.4v9.2H3.8v-9.2zm6.1-.7c0-.5.4-.9.9-.9c.5 0 .9.4.9.9c0 .5-.4.9-.9.9c-.5 0-.9-.4-.9-.9zm.2 2.2h1.4v7.7h-1.4v-7.7zm3.8 6v-4.7h-1.3v-1.3h1.3v-2.1h1.4v2.1h1.6v1.3h-1.6s.04 4.35 0 4.4c0 .5.3.9.8.9c.3 0 .6-.2.8-.3l.3 1.1c-.3.3-.7.5-1.5.5c-1.2 0-1.8-.7-1.8-1.9zm4.4-8.9h1.5v10.6h-1.5V33.7zm6.9 2.7c2.3 0 3.8 1.8 3.8 4.2c-.03-.05 0 .3 0 .3h-6.1c.1 1.3 1.1 2.4 2.6 2.4c.8 0 1.7-.3 2.3-.9l.6.9c-.7.8-1.8 1.2-3 1.2c-2.3 0-4-1.7-4-4.1c0-2.2 1.6-4 3.8-4zm-2.3 3.5h4.7c-.1-1-.7-2.3-2.4-2.3c-1.5 0-2.2 1.2-2.3 2.3z" stroke="none" fill="#888888"/></g><g id="Polygon273054"><path d="m1.4 3.3h8.6v2.9H4.7v5.6h4.4v2.9H4.7v8.4H1.4V3.3zm10.3 19.8V3.3h3.2v19.8h-3.2zm13.3 0l-2.5-7.9h-1.6v7.9h-3.3V3.3s5.1.03 5.1 0c3 0 5 1.2 5 4.2v3.5c0 1.9-.8 3.1-2.2 3.7c.02.01 2.8 8.4 2.8 8.4H25zm-4.1-10.7s1.69-.01 1.7 0c1.1 0 1.8-.4 1.8-1.8V8c0-1.4-.7-1.8-1.8-1.8c-.01.01-1.7 0-1.7 0v6.2zm15.2-2s-.02-2.78 0-2.8c0-1.2-.7-1.7-1.7-1.7c-.9 0-1.6.5-1.6 1.7v1.4c0 1 .3 1.4 1.2 2l2.3 1.3c1.9 1.1 3.1 1.9 3.1 4v2.9c0 3-1.9 4.1-4.9 4.1h-.1c-3 0-4.9-1-4.9-4.1c.03 0 0-3.4 0-3.4h3.3s-.05 2.94 0 2.9c0 1.3.7 1.8 1.6 1.8c1 0 1.7-.5 1.7-1.8v-1.5c0-1-.3-1.5-1.3-2.1l-2.2-1.3c-2-1.1-3.1-2-3.1-4V7.2c0-3 2.2-4.1 4.9-4.1c2.8 0 4.9 1.1 4.9 4.1v3.2h-3.2zm14-4.2h-3.3v16.9h-3.3V6.2h-3.3V3.3h9.9v2.9zm13.7 16.9h-8.3V3.3h3.2v16.9h5.1v2.9zm7.7-4.4h-3.6l-.7 4.4h-3.1l3.6-19.8h4.2l3.7 19.8h-3.3l-.8-4.4zm-.4-2.7l-1.4-8.8l-1.3 8.8h2.7zm11.8-5.6s.03-2.78 0-2.8c0-1.2-.7-1.7-1.6-1.7c-1 0-1.7.5-1.7 1.7v1.4c0 1 .3 1.4 1.3 2l2.3 1.3c1.9 1.1 3 1.9 3 4v2.9c0 3-1.9 4.1-4.9 4.1c-3 0-4.9-1-4.9-4.1c-.02 0 0-3.4 0-3.4h3.2v2.9c0 1.3.7 1.8 1.7 1.8c1 0 1.7-.5 1.7-1.8v-1.5c0-1-.3-1.5-1.3-2.1l-2.3-1.3c-1.9-1.1-3-2-3-4V7.2c0-3 2.1-4.1 4.8-4.1h.1c2.7 0 4.8 1.1 4.8 4.1c.04-.03 0 3.2 0 3.2h-3.2zm14-4.2h-3.3v16.9h-3.2V6.2H87V3.3h9.9v2.9z" stroke="none" fill="#282828"/></g></svg>