<?xml version="1.0" standalone="no"?>
<!DOCTYPE svg PUBLIC "-//W3C//DTD SVG 1.1//EN" "http://www.w3.org/Graphics/SVG/1.1/DTD/svg11.dtd">
<svg xmlns="http://www.w3.org/2000/svg" version="1.1" width="13.2px" height="124.9px" viewBox="0 -4 13.2 124.9" style="top:-4px">
  <desc>03 04 05 07 08 09 10</desc>
  <defs/>
  <g id="Polygon263596">
    <path d="M 1.7 110.5 L 0.7 111.5 L 0.1 110.9 L 1.9 109.1 L 2.8 109.1 L 2.8 115.1 L 1.7 115.1 L 1.7 110.5 Z M 6.1 109 C 7.8 109 8.5 110.6 8.5 112.1 C 8.5 113.6 7.8 115.2 6.1 115.2 C 4.4 115.2 3.7 113.6 3.7 112.1 C 3.7 110.6 4.4 109 6.1 109 Z M 6.1 110 C 5.1 110 4.8 111 4.8 112.1 C 4.8 113.3 5.1 114.3 6.1 114.3 C 7.1 114.3 7.4 113.3 7.4 112.1 C 7.4 111 7.1 110 6.1 110 Z " stroke="none" fill="#88898a"/>
  </g>
  <g id="Polygon263595">
    <path d="M 2.8 91 C 4.5 91 5.2 92.6 5.2 94.1 C 5.2 95.6 4.5 97.2 2.8 97.2 C 1.1 97.2 0.4 95.6 0.4 94.1 C 0.4 92.6 1.1 91 2.8 91 Z M 2.8 92 C 1.8 92 1.4 93 1.4 94.1 C 1.4 95.3 1.8 96.3 2.8 96.3 C 3.8 96.3 4.1 95.3 4.1 94.1 C 4.1 93 3.8 92 2.8 92 Z M 6.6 95.8 C 6.9 96.1 7.3 96.3 7.8 96.3 C 8.9 96.3 9.4 95.3 9.4 94.3 C 9.4 94.3 9.4 94.1 9.4 94.1 C 9.1 94.5 8.5 95 7.8 95 C 6.7 95 5.8 94.3 5.8 93 C 5.8 91.9 6.7 91 8 91 C 9.8 91 10.5 92.4 10.5 94.1 C 10.5 95.8 9.6 97.2 7.8 97.2 C 7.1 97.2 6.5 96.9 6.1 96.5 C 6.1 96.5 6.6 95.8 6.6 95.8 Z M 8.1 91.9 C 7.3 91.9 6.9 92.5 6.9 93 C 6.9 93.7 7.4 94.1 8.1 94.1 C 8.6 94.1 9.1 93.8 9.4 93.4 C 9.4 92.7 9 91.9 8.1 91.9 Z " stroke="none" fill="#88898a"/>
  </g>
  <g id="Polygon263594">
    <path d="M 2.8 73 C 4.5 73 5.2 74.6 5.2 76.1 C 5.2 77.6 4.5 79.2 2.8 79.2 C 1.1 79.2 0.4 77.6 0.4 76.1 C 0.4 74.6 1.1 73 2.8 73 Z M 2.8 74 C 1.8 74 1.4 75 1.4 76.1 C 1.4 77.3 1.8 78.3 2.8 78.3 C 3.8 78.3 4.1 77.3 4.1 76.1 C 4.1 75 3.8 74 2.8 74 Z M 7.2 76 C 6.5 75.8 5.9 75.4 5.9 74.6 C 5.9 73.5 7.1 73 8.1 73 C 9.2 73 10.3 73.5 10.3 74.6 C 10.3 75.4 9.8 75.8 9.1 76 C 9.8 76.3 10.4 76.8 10.4 77.6 C 10.4 78.6 9.4 79.2 8.1 79.2 C 6.9 79.2 5.8 78.7 5.8 77.6 C 5.8 76.8 6.5 76.3 7.2 76 Z M 8.1 74 C 7.5 74 7 74.2 7 74.8 C 7 75.3 7.8 75.5 8.1 75.6 C 8.5 75.5 9.3 75.3 9.3 74.8 C 9.3 74.2 8.8 74 8.1 74 Z M 8.1 76.5 C 7.8 76.5 6.9 76.8 6.9 77.4 C 6.9 78 7.5 78.3 8.1 78.3 C 8.8 78.3 9.4 78 9.4 77.4 C 9.4 76.8 8.5 76.5 8.1 76.5 Z " stroke="none" fill="#88898a"/>
  </g>
  <g id="Polygon263593">
    <path d="M 2.8 55 C 4.5 55 5.2 56.6 5.2 58.1 C 5.2 59.6 4.5 61.2 2.8 61.2 C 1.1 61.2 0.4 59.6 0.4 58.1 C 0.4 56.6 1.1 55 2.8 55 Z M 2.8 56 C 1.8 56 1.4 57 1.4 58.1 C 1.4 59.3 1.8 60.3 2.8 60.3 C 3.8 60.3 4.1 59.3 4.1 58.1 C 4.1 57 3.8 56 2.8 56 Z M 8.8 56 L 5.7 56 L 5.7 55.1 L 10 55.1 L 10 55.8 L 7.7 61.1 L 6.5 61.1 L 8.8 56 Z " stroke="none" fill="#88898a"/>
  </g>
  <g id="Polygon263592">
    <path d="M 2.8 37 C 4.5 37 5.2 38.6 5.2 40.1 C 5.2 41.6 4.5 43.2 2.8 43.2 C 1.1 43.2 0.4 41.6 0.4 40.1 C 0.4 38.6 1.1 37 2.8 37 Z M 2.8 38 C 1.8 38 1.4 39 1.4 40.1 C 1.4 41.3 1.8 42.3 2.8 42.3 C 3.8 42.3 4.1 41.3 4.1 40.1 C 4.1 39 3.8 38 2.8 38 Z M 6.6 41.6 C 7 42 7.5 42.3 8.2 42.3 C 8.9 42.3 9.4 41.8 9.4 41.2 C 9.4 40.6 8.9 40.2 8.2 40.2 C 7.7 40.2 7.3 40.3 6.9 40.7 C 6.89 40.68 6.1 40.5 6.1 40.5 L 6.1 37.1 L 10.1 37.1 L 10.1 38 L 7.2 38 C 7.2 38 7.2 39.77 7.2 39.8 C 7.5 39.5 8 39.2 8.6 39.2 C 9.6 39.2 10.5 40 10.5 41.2 C 10.5 42.4 9.5 43.2 8.2 43.2 C 7.2 43.2 6.4 42.9 6 42.3 C 6 42.3 6.6 41.6 6.6 41.6 Z " stroke="none" fill="#88898a"/>
  </g>
  <g id="Polygon263591">
    <path d="M 2.8 19 C 4.5 19 5.2 20.6 5.2 22.1 C 5.2 23.6 4.5 25.2 2.8 25.2 C 1.1 25.2 0.4 23.6 0.4 22.1 C 0.4 20.6 1.1 19 2.8 19 Z M 2.8 20 C 1.8 20 1.4 21 1.4 22.1 C 1.4 23.3 1.8 24.3 2.8 24.3 C 3.8 24.3 4.1 23.3 4.1 22.1 C 4.1 21 3.8 20 2.8 20 Z M 8.6 23.8 L 5.7 23.8 L 5.7 22.9 L 8.2 19.1 L 9.6 19.1 L 9.6 22.8 L 10.4 22.8 L 10.4 23.8 L 9.6 23.8 L 9.6 25.1 L 8.6 25.1 L 8.6 23.8 Z M 6.7 22.8 L 8.6 22.8 L 8.6 20.1 L 6.7 22.8 Z " stroke="none" fill="#88898a"/>
  </g>
  <g id="Polygon263590">
    <path d="M 2.8 1 C 4.5 1 5.2 2.6 5.2 4.1 C 5.2 5.6 4.5 7.2 2.8 7.2 C 1.1 7.2 0.4 5.6 0.4 4.1 C 0.4 2.6 1.1 1 2.8 1 Z M 2.8 2 C 1.8 2 1.4 3 1.4 4.1 C 1.4 5.3 1.8 6.3 2.8 6.3 C 3.8 6.3 4.1 5.3 4.1 4.1 C 4.1 3 3.8 2 2.8 2 Z M 6.2 5.6 C 6.6 6 7.3 6.3 7.9 6.3 C 8.7 6.3 9.2 5.9 9.2 5.4 C 9.2 4.8 8.7 4.5 7.8 4.5 C 7.6 4.5 7.2 4.5 7.1 4.5 C 7.1 4.5 7.1 3.6 7.1 3.6 C 7.2 3.6 7.6 3.6 7.8 3.6 C 8.5 3.6 9.1 3.3 9.1 2.8 C 9.1 2.2 8.5 2 7.8 2 C 7.2 2 6.7 2.2 6.3 2.6 C 6.3 2.6 5.8 2 5.8 2 C 6.2 1.4 6.9 1 7.9 1 C 9.2 1 10.1 1.6 10.1 2.6 C 10.1 3.4 9.4 3.9 8.8 4 C 9.4 4.1 10.2 4.5 10.2 5.5 C 10.2 6.5 9.3 7.2 7.9 7.2 C 6.9 7.2 6.1 6.8 5.7 6.2 C 5.7 6.2 6.2 5.6 6.2 5.6 Z " stroke="none" fill="#88898a"/>
  </g>
</svg>