<?xml version="1.0" standalone="no"?><!DOCTYPE svg PUBLIC "-//W3C//DTD SVG 1.1//EN" "http://www.w3.org/Graphics/SVG/1.1/DTD/svg11.dtd"><svg xmlns="http://www.w3.org/2000/svg" version="1.1" width="77px" height="15.9px" viewBox="0 -4 77 15.9" style="top:-4px"><desc>45,088</desc><defs/><g id="Polygon111159"><path d="m52.4 5.5h-2.9v-.5l2.7-3.9h.7v3.9h.9v.5h-.9v1.6h-.5V5.5zM50.1 5h2.3V1.6L50.1 5zm5 .9c.4.5.9.9 1.7.9c.8 0 1.5-.7 1.5-1.5c0-.9-.7-1.5-1.5-1.5c-.6 0-1 .2-1.5.6c.02.02-.4-.1-.4-.1V1.1h3.5v.5h-3s.05 2.32 0 2.3c.3-.3.9-.5 1.5-.5c1 0 1.9.6 1.9 1.9c0 1.2-.9 1.9-2 1.9c-1 0-1.6-.4-2.1-1l.4-.3zM59.8 8c.3-.2.5-.6.6-.8h-.1c-.2 0-.4-.2-.4-.4c0-.2.2-.4.4-.4c.2 0 .4.2.4.6c0 .5-.2 1-.6 1.2l-.3-.2zM64 1c1.6 0 2.2 1.7 2.2 3.1c0 1.4-.6 3.1-2.2 3.1c-1.6 0-2.2-1.7-2.2-3.1c0-1.4.6-3.1 2.2-3.1zm0 .5c-1.2 0-1.6 1.4-1.6 2.6c0 1.2.4 2.7 1.6 2.7c1.3 0 1.7-1.5 1.7-2.7c0-1.2-.4-2.6-1.7-2.6zM68.8 4c-.7-.2-1.4-.6-1.4-1.4c0-1.1 1-1.6 1.9-1.6c1 0 2 .5 2 1.6c0 .8-.7 1.2-1.4 1.4c.8.2 1.5.8 1.5 1.6c0 1-.9 1.6-2.1 1.6c-1.1 0-2-.6-2-1.6c0-.8.7-1.4 1.5-1.6zm.5-2.5c-.8 0-1.4.4-1.4 1.1c0 .9 1.1 1.1 1.4 1.2c.4-.1 1.5-.3 1.5-1.2c0-.7-.7-1.1-1.5-1.1zm0 2.7c-.3.1-1.5.5-1.5 1.4c0 .7.7 1.2 1.5 1.2c.8 0 1.6-.5 1.6-1.2c0-.9-1.2-1.3-1.6-1.4zm4.6-.2c-.7-.2-1.4-.6-1.4-1.4c0-1.1 1-1.6 2-1.6c.9 0 1.9.5 1.9 1.6c0 .8-.7 1.2-1.4 1.4c.8.2 1.5.8 1.5 1.6c0 1-.9 1.6-2 1.6c-1.2 0-2.1-.6-2.1-1.6c0-.8.8-1.4 1.5-1.6zm.6-2.5c-.8 0-1.4.4-1.4 1.1c0 .9 1 1.1 1.4 1.2c.3-.1 1.4-.3 1.4-1.2c0-.7-.6-1.1-1.4-1.1zm0 2.7c-.4.1-1.5.5-1.5 1.4c0 .7.7 1.2 1.5 1.2c.8 0 1.5-.5 1.5-1.2c0-.9-1.2-1.3-1.5-1.4z" stroke="none" fill="#000"/></g></svg>