<?xml version="1.0" standalone="no"?><!DOCTYPE svg PUBLIC "-//W3C//DTD SVG 1.1//EN" "http://www.w3.org/Graphics/SVG/1.1/DTD/svg11.dtd"><svg xmlns="http://www.w3.org/2000/svg" version="1.1" width="304.3px" height="615.5px" viewBox="0 -6 304.3 615.5" style="top:-6px"><desc>Point of Interest 00 Min Drive 00 Miles From Subject Property Point of Interest 00 Min Drive 00 Miles From Subject Pr</desc><defs/><g id="Polygon304429"><path d="m35.5 593.6c2.3 0 3.2 2.2 3.2 4.2c0 2-.9 4.3-3.2 4.3c-2.2 0-3.1-2.3-3.1-4.3c0-2 .9-4.2 3.1-4.2zm0 .9c-1.5 0-2.1 1.7-2.1 3.3c0 1.7.6 3.4 2.1 3.4c1.6 0 2.1-1.7 2.1-3.4c0-1.6-.5-3.3-2.1-3.3zm7.5-.9c2.2 0 3.1 2.2 3.1 4.2c0 2-.9 4.3-3.1 4.3c-2.3 0-3.2-2.3-3.2-4.3c0-2 .9-4.2 3.2-4.2zm0 .9c-1.6 0-2.1 1.7-2.1 3.3c0 1.7.5 3.4 2.1 3.4c1.6 0 2.1-1.7 2.1-3.4c0-1.6-.5-3.3-2.1-3.3zm14.7.6l-2.8 6.9h-.4l-2.8-6.9v6.9h-1v-8.3h1.4l2.6 6.3l2.6-6.3h1.4v8.3h-1v-6.9zm2.6-.7c0-.4.3-.7.7-.7c.3 0 .6.3.6.7c0 .3-.3.6-.6.6c-.4 0-.7-.3-.7-.6zm.2 1.6h.9v6h-.9v-6zm2.7-2.3h.9v8.3h-.9v-8.3zm5.2 2.1c1.8 0 2.9 1.5 2.9 3.2c-.03.04 0 .3 0 .3c0 0-4.86-.02-4.9 0c.1 1.1.9 2 2.2 2c.7 0 1.4-.2 1.8-.7l.5.6c-.6.6-1.4.9-2.4.9c-1.8 0-3-1.3-3-3.1c0-1.8 1.2-3.2 2.9-3.2zm-2 2.8h4c-.1-.9-.6-2-2-2c-1.3 0-1.9 1.1-2 2zm6.2 1.9c.4.5 1.2.9 2 .9c.9 0 1.4-.5 1.4-1c0-.7-.8-.9-1.6-1.1c-1-.2-2.1-.5-2.1-1.7c0-1 .8-1.8 2.2-1.8c1 0 1.7.4 2.2.9l-.4.7c-.4-.5-1-.8-1.8-.8c-.8 0-1.3.4-1.3.9c0 .6.7.8 1.4 1c1.1.2 2.3.5 2.3 1.8c0 1-.8 1.8-2.4 1.8c-.9 0-1.8-.3-2.4-.9l.5-.7zm8.8-6.8h5.4v.9h-4.4v2.7h4.3v.9h-4.3v3.8h-1v-8.3zM88 596h.9s.02.96 0 1c.5-.7 1.2-1.1 2-1.1v.9h-.4c-.5 0-1.3.5-1.6.9c.02.03 0 4.3 0 4.3h-.9v-6zm3.6 3c0-1.8 1.1-3.2 3-3.2c1.8 0 2.9 1.4 2.9 3.2c0 1.7-1.1 3.1-2.9 3.1c-1.9 0-3-1.4-3-3.1zm4.9 0c0-1.2-.7-2.3-1.9-2.3c-1.3 0-2 1.1-2 2.3c0 1.2.7 2.3 2 2.3c1.2 0 1.9-1.1 1.9-2.3zm9.6-1.1c0-.7-.3-1.2-1.1-1.2c-.6 0-1.3.4-1.6.9c.01-.01 0 4.4 0 4.4h-.9s-.02-4.09 0-4.1c0-.7-.3-1.2-1.1-1.2c-.6 0-1.3.4-1.6.9c.02 0 0 4.4 0 4.4h-.9v-6h.9s.02.86 0 .9c.3-.4 1.1-1.1 1.9-1.1c1 0 1.5.5 1.6 1.2c.4-.6 1.2-1.2 2.1-1.2c1 0 1.6.6 1.6 1.8c.02.05 0 4.4 0 4.4h-.9v-4.1zm5.9 2.1c.5.6 1.4 1.2 2.6 1.2c1.4 0 1.9-.8 1.9-1.4c0-1-1-1.3-2.1-1.6c-1.3-.3-2.8-.7-2.8-2.3c0-1.4 1.2-2.3 2.8-2.3c1.3 0 2.3.4 3 1.1l-.6.8c-.7-.7-1.5-1-2.4-1c-1 0-1.7.5-1.7 1.3c0 .8.9 1.1 2 1.4c1.3.3 2.9.8 2.9 2.5c0 1.2-.9 2.4-3.1 2.4c-1.4 0-2.5-.5-3.1-1.3l.6-.8zm11 1.1c-.5.5-1.3 1-2.2 1c-1.2 0-1.9-.6-1.9-1.9c.03.01 0-4.2 0-4.2h1s-.05 3.92 0 3.9c0 1.1.5 1.4 1.3 1.4c.7 0 1.4-.4 1.8-.9c-.05-.02 0-4.4 0-4.4h.9v6h-.9s-.05-.88 0-.9zm2.6-7.4h.9s.03 3.19 0 3.2c.5-.7 1.2-1.1 2-1.1c1.6 0 2.7 1.3 2.7 3.2c0 1.9-1.1 3.1-2.7 3.1c-.8 0-1.5-.4-2-1c.03-.03 0 .9 0 .9h-.9v-8.3zm2.7 7.6c1.2 0 1.9-1 1.9-2.3c0-1.3-.7-2.3-1.9-2.3c-.7 0-1.4.4-1.8.9v2.7c.4.6 1.1 1 1.8 1zm4.1-6.9c0-.4.3-.7.6-.7c.4 0 .7.3.7.7c0 .3-.3.6-.7.6c-.3 0-.6-.3-.6-.6zm1.1 8.1c0 1.2-.6 1.9-1.7 1.9c-.3 0-.5 0-.7-.1l.1-.8c.1.1.3.1.5.1c.5 0 .9-.3.9-1.1V596h.9v6.5zm4.3-6.7c1.8 0 2.9 1.5 2.9 3.2v.3s-4.83-.02-4.8 0c0 1.1.8 2 2.1 2c.7 0 1.4-.2 1.9-.7l.4.6c-.6.6-1.4.9-2.4.9c-1.7 0-3-1.3-3-3.1c0-1.8 1.2-3.2 2.9-3.2zm-1.9 2.8h3.9c0-.9-.6-2-2-2c-1.2 0-1.9 1.1-1.9 2zm8.8-2.8c1.1 0 1.7.5 2.2 1.1l-.6.5c-.4-.5-.9-.7-1.5-.7c-1.3 0-2.1.9-2.1 2.3c0 1.3.8 2.3 2.1 2.3c.6 0 1.1-.3 1.5-.8l.6.6c-.5.6-1.1 1-2.2 1c-1.8 0-3-1.4-3-3.1c0-1.8 1.2-3.2 3-3.2zm3.6 4.9c-.05.01 0-3.9 0-3.9h-1v-.8h1v-1.6h.9v1.6h1.2v.8h-1.2s-.02 3.71 0 3.7c0 .5.2.8.6.8c.2 0 .5-.1.6-.3l.3.7c-.3.2-.6.4-1.1.4c-.9 0-1.3-.5-1.3-1.4zm6.4-7s3.29.02 3.3 0c1.6 0 2.6 1.2 2.6 2.5c0 1.3-1 2.5-2.6 2.5c-.01-.02-2.3 0-2.3 0v3.3h-1v-8.3zm3.2.9c-.04.03-2.2 0-2.2 0v3.2s2.16-.03 2.2 0c.9 0 1.6-.7 1.6-1.6c0-.9-.7-1.6-1.6-1.6zm3.9 1.4h.9v1c.5-.7 1.2-1.1 2-1.1v.9h-.4c-.6 0-1.3.5-1.6.9v4.3h-.9v-6zm3.6 3c0-1.8 1.1-3.2 2.9-3.2c1.8 0 3 1.4 3 3.2c0 1.7-1.2 3.1-3 3.1c-1.8 0-2.9-1.4-2.9-3.1zm4.9 0c0-1.2-.7-2.3-2-2.3c-1.2 0-2 1.1-2 2.3c0 1.2.8 2.3 2 2.3c1.3 0 2-1.1 2-2.3zm2.4 5.2V596h.9s-.01.88 0 .9c.4-.6 1.2-1.1 2-1.1c1.6 0 2.7 1.2 2.7 3.2c0 1.9-1.1 3.1-2.7 3.1c-.8 0-1.5-.4-2-1v3.1h-.9zm2.7-7.5c-.8 0-1.5.4-1.8.9v2.7c.3.5 1 1 1.8 1c1.2 0 1.9-1 1.9-2.3c0-1.4-.7-2.3-1.9-2.3zm6.8-.9c1.8 0 2.9 1.5 2.9 3.2v.3s-4.84-.02-4.8 0c0 1.1.8 2 2.1 2c.7 0 1.4-.2 1.8-.7l.5.6c-.6.6-1.4.9-2.4.9c-1.7 0-3-1.3-3-3.1c0-1.8 1.2-3.2 2.9-3.2zm-1.9 2.8h3.9c0-.9-.6-2-2-2c-1.3 0-1.9 1.1-1.9 2zm6.2-2.6h.9s-.02.96 0 1c.5-.7 1.2-1.1 2-1.1v.9h-.4c-.6 0-1.3.5-1.6.9c-.02.03 0 4.3 0 4.3h-.9v-6zm4.1 4.7v-3.9h-1v-.8h1v-1.6h.9v1.6h1.2v.8h-1.2s.02 3.71 0 3.7c0 .5.2.8.6.8c.3 0 .5-.1.7-.3l.2.7c-.2.2-.5.4-1.1.4c-.9 0-1.3-.5-1.3-1.4zm3.6 2.9c.4 0 .7-.2.9-.7c.03.02.4-.9.4-.9l-2.5-6h1l2 4.9l2-4.9h1l-3 7.2c-.3.8-.9 1.2-1.7 1.2c-.2 0-.5-.1-.7-.1l.1-.8c.2 0 .4.1.5.1z" stroke="none" fill="#888888"/></g><g id="Polygon304428"><path d="m36.6 570c3 0 4.2 2.9 4.2 5.5c0 2.6-1.2 5.5-4.2 5.5c-2.9 0-4.1-2.9-4.1-5.5c0-2.6 1.2-5.5 4.1-5.5zm0 1.4c-1.8 0-2.5 2-2.5 4.1c0 2.1.7 4.1 2.5 4.1c1.9 0 2.6-2 2.6-4.1c0-2.1-.7-4.1-2.6-4.1zm9.6-1.4c3 0 4.2 2.9 4.2 5.5c0 2.6-1.2 5.5-4.2 5.5c-2.9 0-4.1-2.9-4.1-5.5c0-2.6 1.2-5.5 4.1-5.5zm0 1.4c-1.8 0-2.5 2-2.5 4.1c0 2.1.7 4.1 2.5 4.1c1.9 0 2.6-2 2.6-4.1c0-2.1-.7-4.1-2.6-4.1zm19 1l-3.4 8.4h-.7l-3.4-8.4v8.4h-1.6v-10.6h2.2l3.1 7.6l3.1-7.6h2.3v10.6h-1.6v-8.4zm3.5-1.5c0-.5.4-.9.9-.9c.5 0 .9.4.9.9c0 .5-.4.9-.9.9c-.5 0-.9-.4-.9-.9zm.2 2.2h1.5v7.7h-1.5v-7.7zm8.7 2.8c0-1.3-.6-1.7-1.6-1.7c-.9 0-1.7.5-2.1 1.1v5.5h-1.4v-7.7h1.4v1.1c.5-.6 1.5-1.3 2.7-1.3c1.6 0 2.5.9 2.5 2.5c-.02 0 0 5.4 0 5.4h-1.5s.05-4.93 0-4.9zm7.6-5.7s3.74-.01 3.7 0c3.3 0 5.5 2.2 5.5 5.3c0 3.1-2.2 5.3-5.5 5.3c.04-.02-3.7 0-3.7 0v-10.6zm3.7 9.2c2.5 0 3.9-1.8 3.9-3.9c0-2.2-1.4-3.9-3.9-3.9c.04-.01-2.2 0-2.2 0v7.8s2.24-.01 2.2 0zm7.3-6.3h1.4v1.2c.6-.8 1.5-1.4 2.5-1.4v1.5c-.1-.1-.3-.1-.5-.1c-.7 0-1.7.6-2 1.1v5.4h-1.4v-7.7zm5-2.2c0-.5.4-.9.9-.9c.5 0 .9.4.9.9c0 .5-.4.9-.9.9c-.5 0-.9-.4-.9-.9zm.2 2.2h1.4v7.7h-1.4v-7.7zm2.4 0h1.5l2.4 6l2.4-6h1.6l-3.2 7.7H107l-3.2-7.7zm12.2-.2c2.3 0 3.8 1.8 3.8 4.2c-.05-.03 0 .3 0 .3c0 0-6.12.01-6.1 0c.1 1.3 1 2.4 2.6 2.4c.8 0 1.7-.3 2.3-.9l.6.9c-.7.8-1.8 1.2-3.1 1.2c-2.2 0-3.9-1.6-3.9-4.1c0-2.2 1.6-4 3.8-4zm-2.3 3.5h4.7c-.1-1-.8-2.3-2.4-2.3c-1.5 0-2.3 1.2-2.3 2.3z" stroke="none" fill="#282828"/></g><g id="Polygon304427"><path d="m5.2 548.9c1.4 0 2.3.4 3 1.2l-.8 1.2c-.5-.6-1.1-1-2.2-1c-1.9 0-2.9 1.8-2.9 3.8v.3c.5-.7 1.7-1.5 3-1.5c1.9 0 3.5 1.1 3.5 3.4c0 1.9-1.5 3.5-3.8 3.5c-3.1 0-4.3-2.6-4.3-5.5c0-2.9 1.5-5.4 4.5-5.4zm-.3 5.4c-1 0-2 .5-2.5 1.4c.1 1.2.7 2.7 2.5 2.7c1.5 0 2.3-1.1 2.3-2.1c0-1.4-1.1-2-2.3-2zm6.3 3.5c.5 0 1 .4 1 1c0 .5-.5 1-1 1c-.6 0-1-.5-1-1c0-.6.4-1 1-1zm21.7-8.8h4.5c2.2 0 3.4 1.5 3.4 3.3c0 1.7-1.2 3.2-3.4 3.2c0 .02-2.9 0-2.9 0v4.1h-1.6V549zm4.3 1.4h-2.7v3.7s2.7.03 2.7 0c1.1 0 2-.7 2-1.8c0-1.1-.9-1.9-2-1.9zm4.3 5.4c0-2.2 1.5-4.1 3.9-4.1c2.4 0 3.9 1.9 3.9 4.1c0 2.2-1.5 4-3.9 4c-2.4 0-3.9-1.8-3.9-4zm6.3 0c0-1.5-.9-2.8-2.4-2.8c-1.5 0-2.4 1.3-2.4 2.8c0 1.4.9 2.7 2.4 2.7c1.5 0 2.4-1.3 2.4-2.7zm2.9-6.1c0-.5.4-.9.9-.9c.5 0 1 .4 1 .9c0 .6-.5.9-1 .9c-.5 0-.9-.3-.9-.9zm.2 2.2h1.5v7.7h-1.5v-7.7zm8.8 2.8c0-1.3-.7-1.7-1.7-1.7c-.9 0-1.7.6-2.1 1.1v5.5h-1.4v-7.7h1.4v1.1c.5-.6 1.5-1.3 2.7-1.3c1.6 0 2.5.9 2.5 2.5c-.02.02 0 5.4 0 5.4h-1.4s-.05-4.9 0-4.9zm3.8 3.2c-.02.01 0-4.7 0-4.7h-1.3v-1.3h1.3v-2.1h1.4v2.1h1.6v1.3h-1.6s.01 4.39 0 4.4c0 .5.3.9.8.9c.3 0 .6-.1.7-.3l.4 1.1c-.3.3-.7.5-1.5.5c-1.2 0-1.8-.7-1.8-1.9zm7.9-2.1c0-2.2 1.5-4.1 3.8-4.1c2.4 0 3.9 1.9 3.9 4.1c0 2.2-1.5 4-3.9 4c-2.3 0-3.8-1.8-3.8-4zm6.2 0c0-1.5-.8-2.8-2.4-2.8c-1.5 0-2.3 1.3-2.3 2.8c0 1.4.8 2.7 2.3 2.7c1.6 0 2.4-1.3 2.4-2.7zm3.5-2.6h-1.3v-1.3h1.3v-.5c0-1.6 1-2.5 2.3-2.5c.5 0 1 0 1.3.2l-.3 1.1c-.2-.1-.5-.2-.7-.2c-.7 0-1.2.5-1.2 1.4c.04.03 0 .5 0 .5h1.6v1.3h-1.6v6.4h-1.4v-6.4zm8.2-4.2h1.6v10.6h-1.6V549zm8.9 5.7c0-1.3-.6-1.7-1.6-1.7c-.9 0-1.7.6-2.1 1.1c-.03.03 0 5.5 0 5.5H93v-7.7h1.5s-.03 1.11 0 1.1c.5-.6 1.5-1.3 2.7-1.3c1.6 0 2.4.9 2.4 2.5c.04.02 0 5.4 0 5.4h-1.4s.02-4.9 0-4.9zm3.8 3.2c.04.01 0-4.7 0-4.7h-1.2v-1.3h1.2v-2.1h1.5v2.1h1.5v1.3h-1.5s-.03 4.39 0 4.4c0 .5.2.9.7.9c.4 0 .7-.1.8-.3l.4 1.1c-.3.3-.8.5-1.5.5c-1.2 0-1.9-.7-1.9-1.9zm7.8-6.2c2.3 0 3.8 1.8 3.8 4.2c-.04-.01 0 .3 0 .3c0 0-6.11.04-6.1 0c.1 1.3 1.1 2.4 2.6 2.4c.8 0 1.7-.3 2.3-.9l.6 1c-.7.7-1.8 1.1-3 1.1c-2.3 0-4-1.6-4-4c0-2.3 1.6-4.1 3.8-4.1zm-2.3 3.5h4.7c-.1-1-.8-2.3-2.4-2.3c-1.5 0-2.2 1.3-2.3 2.3zm7.7-3.3h1.4s.02 1.21 0 1.2c.6-.8 1.5-1.3 2.5-1.3v1.4h-.5c-.7 0-1.6.5-2 1.1c.02-.03 0 5.3 0 5.3h-1.4v-7.7zm8.6-.2c2.3 0 3.7 1.8 3.7 4.2v.3s-6.07.04-6.1 0c.1 1.3 1.1 2.4 2.6 2.4c.9 0 1.7-.3 2.3-.9l.7 1c-.8.7-1.9 1.1-3.1 1.1c-2.3 0-4-1.6-4-4c0-2.3 1.6-4.1 3.9-4.1zm-2.4 3.5h4.7c0-1-.7-2.3-2.3-2.3c-1.6 0-2.3 1.3-2.4 2.3zm7.8 2.4c.5.5 1.5 1.1 2.5 1.1c1.1 0 1.7-.5 1.7-1.1c0-.8-.9-1.1-1.9-1.3c-1.3-.3-2.8-.6-2.8-2.3c0-1.2 1-2.3 2.9-2.3c1.3 0 2.3.5 2.9 1.1l-.6 1c-.4-.5-1.3-.9-2.3-.9c-.9 0-1.5.4-1.5 1c0 .7.8.9 1.7 1.1c1.4.3 3 .7 3 2.4c0 1.4-1.1 2.4-3.1 2.4c-1.3 0-2.5-.4-3.2-1.2l.7-1zm7.5.3v-4.7h-1.3v-1.3h1.3v-2.1h1.4v2.1h1.6v1.3h-1.6s.03 4.39 0 4.4c0 .5.3.9.8.9c.3 0 .6-.1.8-.3l.3 1.1c-.3.3-.7.5-1.5.5c-1.2 0-1.8-.7-1.8-1.9z" stroke="none" fill="#282828"/></g><g id="Polygon304426"><path d="m35.5 484.2c2.3 0 3.2 2.2 3.2 4.2c0 2-.9 4.3-3.2 4.3c-2.2 0-3.1-2.3-3.1-4.3c0-2 .9-4.2 3.1-4.2zm0 .9c-1.5 0-2.1 1.7-2.1 3.3c0 1.7.6 3.4 2.1 3.4c1.6 0 2.1-1.7 2.1-3.4c0-1.6-.5-3.3-2.1-3.3zm7.5-.9c2.2 0 3.1 2.2 3.1 4.2c0 2-.9 4.3-3.1 4.3c-2.3 0-3.2-2.3-3.2-4.3c0-2 .9-4.2 3.2-4.2zm0 .9c-1.6 0-2.1 1.7-2.1 3.3c0 1.7.5 3.4 2.1 3.4c1.6 0 2.1-1.7 2.1-3.4c0-1.6-.5-3.3-2.1-3.3zm14.7.6l-2.8 6.8h-.4l-2.8-6.8v6.8h-1v-8.2h1.4l2.6 6.3l2.6-6.3h1.4v8.2h-1v-6.8zm2.6-.7c0-.4.3-.7.7-.7c.3 0 .6.3.6.7c0 .3-.3.6-.6.6c-.4 0-.7-.3-.7-.6zm.2 1.6h.9v5.9h-.9v-5.9zm2.7-2.3h.9v8.2h-.9v-8.2zm5.2 2.1c1.8 0 2.9 1.4 2.9 3.2c-.03.03 0 .3 0 .3c0 0-4.86-.03-4.9 0c.1 1.1.9 2 2.2 2c.7 0 1.4-.2 1.8-.7l.5.6c-.6.6-1.4.9-2.4.9c-1.8 0-3-1.3-3-3.1c0-1.8 1.2-3.2 2.9-3.2zm-2 2.8h4c-.1-.9-.6-2-2-2c-1.3 0-1.9 1.1-2 2zm6.2 1.9c.4.4 1.2.8 2 .8c.9 0 1.4-.4 1.4-.9c0-.7-.8-.9-1.6-1.1c-1-.2-2.1-.5-2.1-1.8c0-.9.8-1.7 2.2-1.7c1 0 1.7.4 2.2.9l-.4.6c-.4-.4-1-.7-1.8-.7c-.8 0-1.3.4-1.3.9c0 .6.7.8 1.4.9c1.1.3 2.3.6 2.3 1.9c0 1-.8 1.8-2.4 1.8c-.9 0-1.8-.3-2.4-.9l.5-.7zm8.8-6.8h5.4v.9h-4.4v2.7h4.3v.9h-4.3v3.7h-1v-8.2zm6.6 2.3h.9s.02.94 0 .9c.5-.6 1.2-1 2-1v.9h-.4c-.5 0-1.3.4-1.6.9c.02.02 0 4.2 0 4.2h-.9v-5.9zm3.6 3c0-1.8 1.1-3.2 3-3.2c1.8 0 2.9 1.4 2.9 3.2c0 1.7-1.1 3.1-2.9 3.1c-1.9 0-3-1.4-3-3.1zm4.9 0c0-1.3-.7-2.3-1.9-2.3c-1.3 0-2 1-2 2.3c0 1.2.7 2.3 2 2.3c1.2 0 1.9-1.1 1.9-2.3zm9.6-1.1c0-.8-.3-1.2-1.1-1.2c-.6 0-1.3.4-1.6.9v4.3h-.9s-.02-4.01 0-4c0-.8-.3-1.2-1.1-1.2c-.6 0-1.3.4-1.6.9c.02-.01 0 4.3 0 4.3h-.9v-5.9h.9s.02.84 0 .8c.3-.3 1.1-1 1.9-1c1 0 1.5.5 1.6 1.1c.4-.5 1.2-1.1 2.1-1.1c1 0 1.6.6 1.6 1.8c.02.04 0 4.3 0 4.3h-.9v-4zm5.9 2.1c.5.6 1.4 1.2 2.6 1.2c1.4 0 1.9-.8 1.9-1.4c0-1-1-1.3-2.1-1.6c-1.3-.3-2.8-.7-2.8-2.3c0-1.4 1.2-2.3 2.8-2.3c1.3 0 2.3.4 3 1.1l-.6.8c-.7-.7-1.5-1-2.4-1c-1 0-1.7.5-1.7 1.3c0 .8.9 1.1 2 1.4c1.3.3 2.9.7 2.9 2.5c0 1.2-.9 2.4-3.1 2.4c-1.4 0-2.5-.5-3.1-1.3l.6-.8zm11 1.1c-.5.5-1.3 1-2.2 1c-1.2 0-1.9-.6-1.9-1.9c.03-.01 0-4.2 0-4.2h1s-.05 3.91 0 3.9c0 1.1.5 1.4 1.3 1.4c.7 0 1.4-.5 1.8-.9c-.05-.03 0-4.4 0-4.4h.9v5.9h-.9s-.05-.79 0-.8zm2.6-7.4h.9s.03 3.18 0 3.2c.5-.7 1.2-1.1 2-1.1c1.6 0 2.7 1.3 2.7 3.2c0 1.9-1.1 3.1-2.7 3.1c-.8 0-1.5-.4-2-1c.03-.04 0 .8 0 .8h-.9v-8.2zm2.7 7.6c1.2 0 1.9-1 1.9-2.3c0-1.4-.7-2.3-1.9-2.3c-.7 0-1.4.4-1.8.9v2.7c.4.5 1.1 1 1.8 1zm4.1-6.9c0-.4.3-.7.6-.7c.4 0 .7.3.7.7c0 .3-.3.6-.7.6c-.3 0-.6-.3-.6-.6zm1.1 8.1c0 1.2-.6 1.9-1.7 1.9c-.3 0-.5-.1-.7-.1l.1-.8c.1.1.3.1.5.1c.5 0 .9-.3.9-1.1v-6.5h.9v6.5zm4.3-6.7c1.8 0 2.9 1.4 2.9 3.2v.3s-4.83-.03-4.8 0c0 1.1.8 2 2.1 2c.7 0 1.4-.2 1.9-.7l.4.6c-.6.6-1.4.9-2.4.9c-1.7 0-3-1.3-3-3.1c0-1.8 1.2-3.2 2.9-3.2zm-1.9 2.8h3.9c0-.9-.6-2-2-2c-1.2 0-1.9 1.1-1.9 2zm8.8-2.8c1.1 0 1.7.5 2.2 1.1l-.6.5c-.4-.5-.9-.7-1.5-.7c-1.3 0-2.1.9-2.1 2.3c0 1.3.8 2.3 2.1 2.3c.6 0 1.1-.3 1.5-.8l.6.6c-.5.6-1.1 1-2.2 1c-1.8 0-3-1.4-3-3.1c0-1.8 1.2-3.2 3-3.2zm3.6 4.9c-.05 0 0-3.9 0-3.9h-1v-.8h1V485h.9v1.6h1.2v.8h-1.2s-.02 3.7 0 3.7c0 .4.2.8.6.8c.2 0 .5-.1.6-.3l.3.7c-.3.2-.6.4-1.1.4c-.9 0-1.3-.5-1.3-1.4zm6.4-7s3.29.01 3.3 0c1.6 0 2.6 1.1 2.6 2.5c0 1.3-1 2.5-2.6 2.5c-.01-.03-2.3 0-2.3 0v3.2h-1v-8.2zm3.2.9c-.04.02-2.2 0-2.2 0v3.2s2.16-.04 2.2 0c.9 0 1.6-.7 1.6-1.6c0-.9-.7-1.6-1.6-1.6zm3.9 1.4h.9s-.01.94 0 .9c.5-.6 1.2-1 2-1v.9h-.4c-.6 0-1.3.4-1.6.9v4.2h-.9v-5.9zm3.6 3c0-1.8 1.1-3.2 2.9-3.2c1.8 0 3 1.4 3 3.2c0 1.7-1.2 3.1-3 3.1c-1.8 0-2.9-1.4-2.9-3.1zm4.9 0c0-1.3-.7-2.3-2-2.3c-1.2 0-2 1-2 2.3c0 1.2.8 2.3 2 2.3c1.3 0 2-1.1 2-2.3zm2.4 5.2v-8.2h.9s-.01.87 0 .9c.4-.6 1.2-1.1 2-1.1c1.6 0 2.7 1.2 2.7 3.2c0 1.9-1.1 3.1-2.7 3.1c-.8 0-1.5-.4-2-1.1v3.2h-.9zm2.7-7.5c-.8 0-1.5.4-1.8.9v2.7c.3.5 1 1 1.8 1c1.2 0 1.9-1 1.9-2.3c0-1.4-.7-2.3-1.9-2.3zm6.8-.9c1.8 0 2.9 1.4 2.9 3.2v.3s-4.84-.03-4.8 0c0 1.1.8 2 2.1 2c.7 0 1.4-.2 1.8-.7l.5.6c-.6.6-1.4.9-2.4.9c-1.7 0-3-1.3-3-3.1c0-1.8 1.2-3.2 2.9-3.2zm-1.9 2.8h3.9c0-.9-.6-2-2-2c-1.3 0-1.9 1.1-1.9 2zm6.2-2.6h.9s-.02.94 0 .9c.5-.6 1.2-1 2-1v.9h-.4c-.6 0-1.3.4-1.6.9c-.02.02 0 4.2 0 4.2h-.9v-5.9zm4.1 4.7v-3.9h-1v-.8h1V485h.9v1.6h1.2v.8h-1.2s.02 3.7 0 3.7c0 .4.2.8.6.8c.3 0 .5-.1.7-.3l.2.7c-.2.2-.5.4-1.1.4c-.9 0-1.3-.5-1.3-1.4zm3.6 2.8c.4 0 .7-.1.9-.6c.03.01.4-.9.4-.9l-2.5-6h1l2 4.9l2-4.9h1l-3 7.2c-.3.8-.9 1.2-1.7 1.2c-.2 0-.5-.1-.7-.1l.1-.9c.2.1.4.1.5.1z" stroke="none" fill="#888888"/></g><g id="Polygon304425"><path d="m36.6 460.6c3 0 4.2 2.9 4.2 5.5c0 2.6-1.2 5.5-4.2 5.5c-2.9 0-4.1-2.9-4.1-5.5c0-2.6 1.2-5.5 4.1-5.5zm0 1.4c-1.8 0-2.5 2-2.5 4.1c0 2 .7 4 2.5 4c1.9 0 2.6-2 2.6-4c0-2.1-.7-4.1-2.6-4.1zm9.6-1.4c3 0 4.2 2.9 4.2 5.5c0 2.6-1.2 5.5-4.2 5.5c-2.9 0-4.1-2.9-4.1-5.5c0-2.6 1.2-5.5 4.1-5.5zm0 1.4c-1.8 0-2.5 2-2.5 4.1c0 2 .7 4 2.5 4c1.9 0 2.6-2 2.6-4c0-2.1-.7-4.1-2.6-4.1zm19 1l-3.4 8.4h-.7l-3.4-8.4v8.4h-1.6v-10.6h2.2l3.1 7.6l3.1-7.6h2.3v10.6h-1.6V463zm3.5-1.5c0-.5.4-.9.9-.9c.5 0 .9.4.9.9c0 .5-.4.9-.9.9c-.5 0-.9-.4-.9-.9zm.2 2.2h1.5v7.7h-1.5v-7.7zm8.7 2.8c0-1.3-.6-1.7-1.6-1.7c-.9 0-1.7.5-2.1 1.1v5.5h-1.4v-7.7h1.4v1.1c.5-.6 1.5-1.3 2.7-1.3c1.6 0 2.5.9 2.5 2.5c-.02-.01 0 5.4 0 5.4h-1.5s.05-4.94 0-4.9zm7.6-5.7s3.74-.02 3.7 0c3.3 0 5.5 2.2 5.5 5.3c0 3-2.2 5.3-5.5 5.3c.04-.03-3.7 0-3.7 0v-10.6zm3.7 9.2c2.5 0 3.9-1.8 3.9-3.9c0-2.2-1.4-3.9-3.9-3.9c.04-.03-2.2 0-2.2 0v7.8s2.24-.03 2.2 0zm7.3-6.3h1.4v1.2c.6-.8 1.5-1.4 2.5-1.4v1.5c-.1-.1-.3-.1-.5-.1c-.7 0-1.7.6-2 1.1v5.4h-1.4v-7.7zm5-2.2c0-.5.4-.9.9-.9c.5 0 .9.4.9.9c0 .5-.4.9-.9.9c-.5 0-.9-.4-.9-.9zm.2 2.2h1.4v7.7h-1.4v-7.7zm2.4 0h1.5l2.4 6l2.4-6h1.6l-3.2 7.7H107l-3.2-7.7zm12.2-.2c2.3 0 3.8 1.8 3.8 4.2c-.05-.05 0 .3 0 .3h-6.1c.1 1.3 1 2.4 2.6 2.4c.8 0 1.7-.3 2.3-.9l.6.9c-.7.8-1.8 1.2-3.1 1.2c-2.2 0-3.9-1.7-3.9-4.1c0-2.2 1.6-4 3.8-4zm-2.3 3.5h4.7c-.1-1-.8-2.3-2.4-2.3c-1.5 0-2.3 1.2-2.3 2.3z" stroke="none" fill="#282828"/></g><g id="Polygon304424"><path d="m1.9 447.6c.7.9 1.7 1.4 2.9 1.4c1.4 0 2.3-.9 2.3-2.1c0-1.3-.9-2.1-2.3-2.1c-.9 0-1.7.3-2.4 1c.05-.02-1.1-.4-1.1-.4v-5.8h6.7v1.4H2.9s-.01 3.38 0 3.4c.5-.5 1.4-1 2.4-1c1.8 0 3.4 1.3 3.4 3.4c0 2.2-1.6 3.6-3.9 3.6c-1.8 0-3-.7-3.8-1.7l.9-1.1zm9.3.8c.5 0 1 .4 1 1c0 .5-.5 1-1 1c-.6 0-1-.5-1-1c0-.6.4-1 1-1zm21.7-8.8h4.5c2.2 0 3.4 1.5 3.4 3.3c0 1.7-1.2 3.2-3.4 3.2h-2.9v4.1h-1.6v-10.6zm4.3 1.4h-2.7v3.7s2.7.02 2.7 0c1.1 0 2-.7 2-1.8c0-1.2-.9-1.9-2-1.9zm4.3 5.4c0-2.3 1.5-4.1 3.9-4.1c2.4 0 3.9 1.8 3.9 4.1c0 2.2-1.5 4-3.9 4c-2.4 0-3.9-1.8-3.9-4zm6.3 0c0-1.5-.9-2.8-2.4-2.8c-1.5 0-2.4 1.3-2.4 2.8c0 1.4.9 2.7 2.4 2.7c1.5 0 2.4-1.3 2.4-2.7zm2.9-6.1c0-.5.4-.9.9-.9c.5 0 1 .4 1 .9c0 .5-.5.9-1 .9c-.5 0-.9-.4-.9-.9zm.2 2.2h1.5v7.7h-1.5v-7.7zm8.8 2.8c0-1.3-.7-1.7-1.7-1.7c-.9 0-1.7.5-2.1 1.1v5.5h-1.4v-7.7h1.4v1.1c.5-.6 1.5-1.3 2.7-1.3c1.6 0 2.5.9 2.5 2.5c-.02.01 0 5.4 0 5.4h-1.4s-.05-4.91 0-4.9zm3.8 3.2c-.02 0 0-4.7 0-4.7h-1.3v-1.3h1.3v-2.1h1.4v2.1h1.6v1.3h-1.6s.01 4.38 0 4.4c0 .5.3.9.8.9c.3 0 .6-.1.7-.3l.4 1.1c-.3.3-.7.5-1.5.5c-1.2 0-1.8-.7-1.8-1.9zm7.9-2.1c0-2.3 1.5-4.1 3.8-4.1c2.4 0 3.9 1.8 3.9 4.1c0 2.2-1.5 4-3.9 4c-2.3 0-3.8-1.8-3.8-4zm6.2 0c0-1.5-.8-2.8-2.4-2.8c-1.5 0-2.3 1.3-2.3 2.8c0 1.4.8 2.7 2.3 2.7c1.6 0 2.4-1.3 2.4-2.7zm3.5-2.6h-1.3v-1.3h1.3v-.5c0-1.6 1-2.6 2.3-2.6c.5 0 1 .1 1.3.3l-.3 1.1c-.2-.1-.5-.2-.7-.2c-.7 0-1.2.5-1.2 1.4c.04.02 0 .5 0 .5h1.6v1.3h-1.6v6.4h-1.4v-6.4zm8.2-4.2h1.6v10.6h-1.6v-10.6zm8.9 5.7c0-1.3-.6-1.7-1.6-1.7c-.9 0-1.7.5-2.1 1.1c-.03.01 0 5.5 0 5.5H93v-7.7h1.5s-.03 1.1 0 1.1c.5-.6 1.5-1.3 2.7-1.3c1.6 0 2.4.9 2.4 2.5c.04.01 0 5.4 0 5.4h-1.4s.02-4.91 0-4.9zm3.8 3.2c.04 0 0-4.7 0-4.7h-1.2v-1.3h1.2v-2.1h1.5v2.1h1.5v1.3h-1.5s-.03 4.38 0 4.4c0 .5.2.9.7.9c.4 0 .7-.1.8-.3l.4 1.1c-.3.3-.8.5-1.5.5c-1.2 0-1.9-.7-1.9-1.9zm7.8-6.2c2.3 0 3.8 1.8 3.8 4.2c-.04-.02 0 .3 0 .3c0 0-6.11.03-6.1 0c.1 1.3 1.1 2.4 2.6 2.4c.8 0 1.7-.3 2.3-.9l.6.9c-.7.8-1.8 1.2-3 1.2c-2.3 0-4-1.6-4-4c0-2.3 1.6-4.1 3.8-4.1zm-2.3 3.5h4.7c-.1-1-.8-2.3-2.4-2.3c-1.5 0-2.2 1.2-2.3 2.3zm7.7-3.3h1.4s.02 1.2 0 1.2c.6-.8 1.5-1.4 2.5-1.4v1.5c-.1 0-.3-.1-.5-.1c-.7 0-1.6.6-2 1.2c.02-.04 0 5.3 0 5.3h-1.4v-7.7zm8.6-.2c2.3 0 3.7 1.8 3.7 4.2v.3s-6.07.03-6.1 0c.1 1.3 1.1 2.4 2.6 2.4c.9 0 1.7-.3 2.3-.9l.7.9c-.8.8-1.9 1.2-3.1 1.2c-2.3 0-4-1.6-4-4c0-2.3 1.6-4.1 3.9-4.1zm-2.4 3.5h4.7c0-1-.7-2.3-2.3-2.3c-1.6 0-2.3 1.2-2.4 2.3zm7.8 2.3c.5.6 1.5 1.1 2.5 1.1c1.1 0 1.7-.4 1.7-1.1c0-.7-.9-1-1.9-1.2c-1.3-.3-2.8-.6-2.8-2.3c0-1.2 1-2.3 2.9-2.3c1.3 0 2.3.5 2.9 1.1l-.6 1c-.4-.5-1.3-.9-2.3-.9c-.9 0-1.5.4-1.5 1c0 .7.8.9 1.7 1.1c1.4.3 3 .7 3 2.4c0 1.4-1.1 2.4-3.1 2.4c-1.3 0-2.5-.4-3.2-1.2l.7-1.1zm7.5.4v-4.7h-1.3v-1.3h1.3v-2.1h1.4v2.1h1.6v1.3h-1.6s.03 4.38 0 4.4c0 .5.3.9.8.9c.3 0 .6-.1.8-.3l.3 1.1c-.3.3-.7.5-1.5.5c-1.2 0-1.8-.7-1.8-1.9z" stroke="none" fill="#282828"/></g><g id="Polygon304423"><path d="m35.5 374.8c2.3 0 3.2 2.2 3.2 4.2c0 2-.9 4.3-3.2 4.3c-2.2 0-3.1-2.3-3.1-4.3c0-2 .9-4.2 3.1-4.2zm0 .9c-1.5 0-2.1 1.7-2.1 3.3c0 1.7.6 3.4 2.1 3.4c1.6 0 2.1-1.7 2.1-3.4c0-1.6-.5-3.3-2.1-3.3zm7.5-.9c2.2 0 3.1 2.2 3.1 4.2c0 2-.9 4.3-3.1 4.3c-2.3 0-3.2-2.3-3.2-4.3c0-2 .9-4.2 3.2-4.2zm0 .9c-1.6 0-2.1 1.7-2.1 3.3c0 1.7.5 3.4 2.1 3.4c1.6 0 2.1-1.7 2.1-3.4c0-1.6-.5-3.3-2.1-3.3zm14.7.6l-2.8 6.8h-.4l-2.8-6.8v6.8h-1v-8.2h1.4l2.6 6.3l2.6-6.3h1.4v8.2h-1v-6.8zm2.6-.8c0-.3.3-.6.7-.6c.3 0 .6.3.6.6c0 .4-.3.7-.6.7c-.4 0-.7-.3-.7-.7zm.2 1.7h.9v5.9h-.9v-5.9zm2.7-2.3h.9v8.2h-.9v-8.2zm5.2 2.1c1.8 0 2.9 1.4 2.9 3.2c-.03.02 0 .3 0 .3c0 0-4.86-.05-4.9 0c.1 1.1.9 2 2.2 2c.7 0 1.4-.3 1.8-.7l.5.6c-.6.6-1.4.9-2.4.9c-1.8 0-3-1.3-3-3.2c0-1.7 1.2-3.1 2.9-3.1zm-2 2.8h4c-.1-.9-.6-2-2-2c-1.3 0-1.9 1.1-2 2zm6.2 1.9c.4.4 1.2.8 2 .8c.9 0 1.4-.4 1.4-1c0-.6-.8-.8-1.6-1c-1-.3-2.1-.5-2.1-1.8c0-.9.8-1.7 2.2-1.7c1 0 1.7.4 2.2.9l-.4.6c-.4-.4-1-.7-1.8-.7c-.8 0-1.3.3-1.3.9c0 .6.7.7 1.4.9c1.1.3 2.3.6 2.3 1.9c0 1-.8 1.8-2.4 1.8c-.9 0-1.8-.3-2.4-1l.5-.6zm8.8-6.8h5.4v.9h-4.4v2.7h4.3v.9h-4.3v3.7h-1v-8.2zm6.6 2.3h.9s.02.93 0 .9c.5-.6 1.2-1.1 2-1.1v1h-.4c-.5 0-1.3.4-1.6.9c.02.01 0 4.2 0 4.2h-.9v-5.9zm3.6 2.9c0-1.7 1.1-3.1 3-3.1c1.8 0 2.9 1.4 2.9 3.1c0 1.8-1.1 3.2-2.9 3.2c-1.9 0-3-1.4-3-3.2zm4.9 0c0-1.2-.7-2.3-1.9-2.3c-1.3 0-2 1.1-2 2.3c0 1.3.7 2.4 2 2.4c1.2 0 1.9-1.1 1.9-2.4zm9.6-1c0-.8-.3-1.3-1.1-1.3c-.6 0-1.3.5-1.6 1v4.3h-.9s-.02-4.02 0-4c0-.8-.3-1.3-1.1-1.3c-.6 0-1.3.5-1.6 1c.02-.03 0 4.3 0 4.3h-.9v-5.9h.9s.02.83 0 .8c.3-.3 1.1-1 1.9-1c1 0 1.5.5 1.6 1.1c.4-.5 1.2-1.1 2.1-1.1c1 0 1.6.6 1.6 1.8c.02.02 0 4.3 0 4.3h-.9v-4zm5.9 2.1c.5.6 1.4 1.2 2.6 1.2c1.4 0 1.9-.8 1.9-1.5c0-.9-1-1.2-2.1-1.5c-1.3-.4-2.8-.7-2.8-2.3c0-1.4 1.2-2.3 2.8-2.3c1.3 0 2.3.4 3 1.1l-.6.8c-.7-.7-1.5-1-2.4-1c-1 0-1.7.5-1.7 1.3c0 .8.9 1.1 2 1.4c1.3.3 2.9.7 2.9 2.5c0 1.2-.9 2.4-3.1 2.4c-1.4 0-2.5-.6-3.1-1.3l.6-.8zm11 1.1c-.5.5-1.3 1-2.2 1c-1.2 0-1.9-.6-1.9-1.9c.03-.02 0-4.2 0-4.2h1s-.05 3.9 0 3.9c0 1 .5 1.4 1.3 1.4c.7 0 1.4-.5 1.8-.9c-.05-.05 0-4.4 0-4.4h.9v5.9h-.9s-.05-.8 0-.8zm2.6-7.4h.9s.03 3.17 0 3.2c.5-.7 1.2-1.1 2-1.1c1.6 0 2.7 1.3 2.7 3.2c0 1.9-1.1 3.1-2.7 3.1c-.8 0-1.5-.4-2-1.1c.03.05 0 .9 0 .9h-.9v-8.2zm2.7 7.6c1.2 0 1.9-1 1.9-2.3c0-1.4-.7-2.4-1.9-2.4c-.7 0-1.4.5-1.8 1v2.7c.4.5 1.1 1 1.8 1zm4.1-7c0-.3.3-.6.6-.6c.4 0 .7.3.7.6c0 .4-.3.7-.7.7c-.3 0-.6-.3-.6-.7zm1.1 8.2c0 1.2-.6 1.9-1.7 1.9c-.3 0-.5-.1-.7-.1l.1-.8c.1 0 .3.1.5.1c.5 0 .9-.3.9-1.1v-6.5h.9v6.5zm4.3-6.7c1.8 0 2.9 1.4 2.9 3.2v.3s-4.83-.05-4.8 0c0 1.1.8 2 2.1 2c.7 0 1.4-.3 1.9-.7l.4.6c-.6.6-1.4.9-2.4.9c-1.7 0-3-1.3-3-3.2c0-1.7 1.2-3.1 2.9-3.1zm-1.9 2.8h3.9c0-.9-.6-2-2-2c-1.2 0-1.9 1.1-1.9 2zm8.8-2.8c1.1 0 1.7.5 2.2 1.1l-.6.5c-.4-.5-.9-.8-1.5-.8c-1.3 0-2.1 1-2.1 2.3c0 1.4.8 2.4 2.1 2.4c.6 0 1.1-.3 1.5-.8l.6.5c-.5.6-1.1 1.1-2.2 1.1c-1.8 0-3-1.4-3-3.2c0-1.7 1.2-3.1 3-3.1zm3.6 4.9c-.05-.01 0-3.9 0-3.9h-1v-.8h1v-1.7h.9v1.7h1.2v.8h-1.2s-.02 3.69 0 3.7c0 .4.2.8.6.8c.2 0 .5-.2.6-.3l.3.7c-.3.2-.6.4-1.1.4c-.9 0-1.3-.5-1.3-1.4zm6.4-7h3.3c1.6 0 2.6 1.1 2.6 2.5c0 1.3-1 2.5-2.6 2.5c-.01-.04-2.3 0-2.3 0v3.2h-1v-8.2zm3.2.9c-.04.01-2.2 0-2.2 0v3.1s2.16.05 2.2 0c.9 0 1.6-.6 1.6-1.5c0-.9-.7-1.6-1.6-1.6zm3.9 1.4h.9s-.01.93 0 .9c.5-.6 1.2-1.1 2-1.1v1h-.4c-.6 0-1.3.4-1.6.9v4.2h-.9v-5.9zm3.6 2.9c0-1.7 1.1-3.1 2.9-3.1c1.8 0 3 1.4 3 3.1c0 1.8-1.2 3.2-3 3.2c-1.8 0-2.9-1.4-2.9-3.2zm4.9 0c0-1.2-.7-2.3-2-2.3c-1.2 0-2 1.1-2 2.3c0 1.3.8 2.4 2 2.4c1.3 0 2-1.1 2-2.4zm2.4 5.3v-8.2h.9s-.01.86 0 .9c.4-.6 1.2-1.1 2-1.1c1.6 0 2.7 1.2 2.7 3.1c0 2-1.1 3.2-2.7 3.2c-.8 0-1.5-.4-2-1.1v3.2h-.9zm2.7-7.6c-.8 0-1.5.5-1.8 1v2.7c.3.5 1 1 1.8 1c1.2 0 1.9-1 1.9-2.4c0-1.3-.7-2.3-1.9-2.3zm6.8-.8c1.8 0 2.9 1.4 2.9 3.2v.3s-4.84-.05-4.8 0c0 1.1.8 2 2.1 2c.7 0 1.4-.3 1.8-.7l.5.6c-.6.6-1.4.9-2.4.9c-1.7 0-3-1.3-3-3.2c0-1.7 1.2-3.1 2.9-3.1zm-1.9 2.8h3.9c0-.9-.6-2-2-2c-1.3 0-1.9 1.1-1.9 2zm6.2-2.6h.9s-.02.93 0 .9c.5-.6 1.2-1.1 2-1.1v1h-.4c-.6 0-1.3.4-1.6.9c-.02.01 0 4.2 0 4.2h-.9v-5.9zm4.1 4.7V378h-1v-.8h1v-1.7h.9v1.7h1.2v.8h-1.2s.02 3.69 0 3.7c0 .4.2.8.6.8c.3 0 .5-.2.7-.3l.2.7c-.2.2-.5.4-1.1.4c-.9 0-1.3-.5-1.3-1.4zm3.6 2.8c.4 0 .7-.1.9-.6c.03 0 .4-.9.4-.9l-2.5-6h1l2 4.9l2-4.9h1s-2.98 7.15-3 7.1c-.3.9-.9 1.2-1.7 1.3c-.2 0-.5-.1-.7-.1l.1-.9c.2.1.4.1.5.1z" stroke="none" fill="#888888"/></g><g id="Polygon304422"><path d="m36.6 351.2c3 0 4.2 2.8 4.2 5.5c0 2.6-1.2 5.4-4.2 5.4c-2.9 0-4.1-2.8-4.1-5.4c0-2.7 1.2-5.5 4.1-5.5zm0 1.4c-1.8 0-2.5 2-2.5 4.1c0 2 .7 4 2.5 4c1.9 0 2.6-2 2.6-4c0-2.1-.7-4.1-2.6-4.1zm9.6-1.4c3 0 4.2 2.8 4.2 5.5c0 2.6-1.2 5.4-4.2 5.4c-2.9 0-4.1-2.8-4.1-5.4c0-2.7 1.2-5.5 4.1-5.5zm0 1.4c-1.8 0-2.5 2-2.5 4.1c0 2 .7 4 2.5 4c1.9 0 2.6-2 2.6-4c0-2.1-.7-4.1-2.6-4.1zm19 .9l-3.4 8.5h-.7l-3.4-8.5v8.5h-1.6v-10.6h2.2l3.1 7.6l3.1-7.6h2.3V362h-1.6v-8.5zm3.5-1.4c0-.5.4-.9.9-.9c.5 0 .9.4.9.9c0 .5-.4.9-.9.9c-.5 0-.9-.4-.9-.9zm.2 2.2h1.5v7.7h-1.5v-7.7zm8.7 2.8c0-1.3-.6-1.7-1.6-1.7c-.9 0-1.7.5-2.1 1.1v5.5h-1.4v-7.7h1.4v1.1c.5-.7 1.5-1.3 2.7-1.3c1.6 0 2.5.9 2.5 2.5c-.02-.03 0 5.4 0 5.4h-1.5s.05-4.95 0-4.9zm7.6-5.7s3.74-.03 3.7 0c3.3 0 5.5 2.2 5.5 5.3c0 3-2.2 5.3-5.5 5.3c.04-.04-3.7 0-3.7 0v-10.6zm3.7 9.2c2.5 0 3.9-1.8 3.9-3.9c0-2.2-1.4-3.9-3.9-3.9c.04-.04-2.2 0-2.2 0v7.8s2.24-.04 2.2 0zm7.3-6.3h1.4v1.2c.6-.8 1.5-1.4 2.5-1.4v1.5c-.1-.1-.3-.1-.5-.1c-.7 0-1.7.5-2 1.1v5.4h-1.4v-7.7zm5-2.2c0-.5.4-.9.9-.9c.5 0 .9.4.9.9c0 .5-.4.9-.9.9c-.5 0-.9-.4-.9-.9zm.2 2.2h1.4v7.7h-1.4v-7.7zm2.4 0h1.5l2.4 6l2.4-6h1.6l-3.2 7.7H107l-3.2-7.7zm12.2-.2c2.3 0 3.8 1.8 3.8 4.1c-.05.04 0 .4 0 .4c0 0-6.12-.01-6.1 0c.1 1.3 1 2.4 2.6 2.4c.8 0 1.7-.3 2.3-.9l.6.9c-.7.8-1.8 1.1-3.1 1.1c-2.2 0-3.9-1.6-3.9-4c0-2.2 1.6-4 3.8-4zm-2.3 3.5h4.7c-.1-1.1-.8-2.3-2.4-2.3c-1.5 0-2.3 1.2-2.3 2.3z" stroke="none" fill="#282828"/></g><g id="Polygon304421"><path d="m5.5 338.2h-5v-1.3l4.4-6.7h2.2v6.6h1.5v1.4H7.1v2.6H5.5v-2.6zM2 336.8h3.5v-5.2L2 336.8zm8.8 2.2c.5 0 1 .4 1 1c0 .5-.5 1-1 1c-.6 0-1-.5-1-1c0-.6.4-1 1-1zm22.1-8.8h4.5c2.2 0 3.4 1.5 3.4 3.2c0 1.8-1.2 3.3-3.4 3.3h-2.9v4.1h-1.6v-10.6zm4.3 1.4h-2.7v3.7h2.7c1.1 0 2-.7 2-1.9c0-1.1-.9-1.8-2-1.8zm4.3 5.3c0-2.2 1.5-4 3.9-4c2.4 0 3.9 1.8 3.9 4c0 2.3-1.5 4.1-3.9 4.1c-2.4 0-3.9-1.8-3.9-4.1zm6.3 0c0-1.4-.9-2.7-2.4-2.7c-1.5 0-2.4 1.3-2.4 2.7c0 1.5.9 2.8 2.4 2.8c1.5 0 2.4-1.3 2.4-2.8zm2.9-6c0-.5.4-.9.9-.9c.5 0 1 .4 1 .9c0 .5-.5.9-1 .9c-.5 0-.9-.4-.9-.9zm.2 2.2h1.5v7.7h-1.5v-7.7zm8.8 2.8c0-1.3-.7-1.7-1.7-1.7c-.9 0-1.7.5-2.1 1.1v5.5h-1.4v-7.7h1.4v1.1c.5-.6 1.5-1.3 2.7-1.3c1.6 0 2.5.9 2.5 2.5c-.02 0 0 5.4 0 5.4h-1.4s-.05-4.93 0-4.9zm3.8 3.2c-.02-.02 0-4.7 0-4.7h-1.3v-1.3h1.3V331h1.4v2.1h1.6v1.3h-1.6s.01 4.37 0 4.4c0 .5.3.9.8.9c.3 0 .6-.1.7-.3l.4 1.1c-.3.3-.7.5-1.5.5c-1.2 0-1.8-.7-1.8-1.9zm7.9-2.2c0-2.2 1.5-4 3.8-4c2.4 0 3.9 1.8 3.9 4c0 2.3-1.5 4.1-3.9 4.1c-2.3 0-3.8-1.8-3.8-4.1zm6.2 0c0-1.4-.8-2.7-2.4-2.7c-1.5 0-2.3 1.3-2.3 2.7c0 1.5.8 2.8 2.3 2.8c1.6 0 2.4-1.3 2.4-2.8zm3.5-2.5h-1.3v-1.3h1.3v-.5c0-1.6 1-2.6 2.3-2.6c.5 0 1 .1 1.3.3l-.3 1.1c-.2-.1-.5-.2-.7-.2c-.7 0-1.2.5-1.2 1.4c.04 0 0 .5 0 .5h1.6v1.3h-1.6v6.4h-1.4v-6.4zm8.2-4.2h1.6v10.6h-1.6v-10.6zm8.9 5.7c0-1.3-.6-1.7-1.6-1.7c-.9 0-1.7.5-2.1 1.1c-.03 0 0 5.5 0 5.5H93v-7.7h1.5s-.03 1.09 0 1.1c.5-.6 1.5-1.3 2.7-1.3c1.6 0 2.4.9 2.4 2.5c.04 0 0 5.4 0 5.4h-1.4s.02-4.93 0-4.9zm3.8 3.2c.04-.02 0-4.7 0-4.7h-1.2v-1.3h1.2V331h1.5v2.1h1.5v1.3h-1.5s-.03 4.37 0 4.4c0 .5.2.9.7.9c.4 0 .7-.1.8-.3l.4 1.1c-.3.3-.8.5-1.5.5c-1.2 0-1.9-.7-1.9-1.9zm7.8-6.2c2.3 0 3.8 1.8 3.8 4.2c-.04-.03 0 .3 0 .3c0 0-6.11.01-6.1 0c.1 1.3 1.1 2.4 2.6 2.4c.8 0 1.7-.3 2.3-.9l.6.9c-.7.8-1.8 1.2-3 1.2c-2.3 0-4-1.6-4-4.1c0-2.2 1.6-4 3.8-4zm-2.3 3.5h4.7c-.1-1-.8-2.3-2.4-2.3c-1.5 0-2.2 1.2-2.3 2.3zm7.7-3.3h1.4s.02 1.19 0 1.2c.6-.8 1.5-1.4 2.5-1.4v1.5c-.1-.1-.3-.1-.5-.1c-.7 0-1.6.6-2 1.1c.02.04 0 5.4 0 5.4h-1.4v-7.7zm8.6-.2c2.3 0 3.7 1.8 3.7 4.2v.3s-6.07.01-6.1 0c.1 1.3 1.1 2.4 2.6 2.4c.9 0 1.7-.3 2.3-.9l.7.9c-.8.8-1.9 1.2-3.1 1.2c-2.3 0-4-1.6-4-4.1c0-2.2 1.6-4 3.9-4zm-2.4 3.5h4.7c0-1-.7-2.3-2.3-2.3c-1.6 0-2.3 1.2-2.4 2.3zm7.8 2.3c.5.6 1.5 1.1 2.5 1.1c1.1 0 1.7-.4 1.7-1.1c0-.7-.9-1-1.9-1.2c-1.3-.3-2.8-.7-2.8-2.3c0-1.2 1-2.3 2.9-2.3c1.3 0 2.3.5 2.9 1.1l-.6 1c-.4-.5-1.3-.9-2.3-.9c-.9 0-1.5.4-1.5 1c0 .6.8.9 1.7 1.1c1.4.3 3 .7 3 2.4c0 1.3-1.1 2.4-3.1 2.4c-1.3 0-2.5-.4-3.2-1.2l.7-1.1zm7.5.4v-4.7h-1.3v-1.3h1.3V331h1.4v2.1h1.6v1.3h-1.6s.03 4.37 0 4.4c0 .5.3.9.8.9c.3 0 .6-.1.8-.3l.3 1.1c-.3.3-.7.5-1.5.5c-1.2 0-1.8-.7-1.8-1.9z" stroke="none" fill="#282828"/></g><g id="Polygon304420"><path d="m35.5 265.4c2.3 0 3.2 2.2 3.2 4.2c0 2-.9 4.3-3.2 4.3c-2.2 0-3.1-2.3-3.1-4.3c0-2 .9-4.2 3.1-4.2zm0 .9c-1.5 0-2.1 1.7-2.1 3.3c0 1.7.6 3.4 2.1 3.4c1.6 0 2.1-1.7 2.1-3.4c0-1.6-.5-3.3-2.1-3.3zm7.5-.9c2.2 0 3.1 2.2 3.1 4.2c0 2-.9 4.3-3.1 4.3c-2.3 0-3.2-2.3-3.2-4.3c0-2 .9-4.2 3.2-4.2zm0 .9c-1.6 0-2.1 1.7-2.1 3.3c0 1.7.5 3.4 2.1 3.4c1.6 0 2.1-1.7 2.1-3.4c0-1.6-.5-3.3-2.1-3.3zm14.7.6l-2.8 6.8h-.4l-2.8-6.8v6.8h-1v-8.2h1.4l2.6 6.3l2.6-6.3h1.4v8.2h-1v-6.8zm2.6-.8c0-.3.3-.6.7-.6c.3 0 .6.3.6.6c0 .4-.3.7-.6.7c-.4 0-.7-.3-.7-.7zm.2 1.7h.9v5.9h-.9v-5.9zm2.7-2.3h.9v8.2h-.9v-8.2zm5.2 2.1c1.8 0 2.9 1.4 2.9 3.2c-.03.01 0 .2 0 .2c0 0-4.86.04-4.9 0c.1 1.2.9 2.1 2.2 2.1c.7 0 1.4-.3 1.8-.7l.5.6c-.6.6-1.4.9-2.4.9c-1.8 0-3-1.3-3-3.2c0-1.7 1.2-3.1 2.9-3.1zm-2 2.8h4c-.1-.9-.6-2-2-2c-1.3 0-1.9 1-2 2zm6.2 1.9c.4.4 1.2.8 2 .8c.9 0 1.4-.4 1.4-1c0-.6-.8-.8-1.6-1c-1-.3-2.1-.5-2.1-1.8c0-.9.8-1.7 2.2-1.7c1 0 1.7.4 2.2.9l-.4.6c-.4-.4-1-.7-1.8-.7c-.8 0-1.3.3-1.3.9c0 .5.7.7 1.4.9c1.1.2 2.3.5 2.3 1.9c0 1-.8 1.8-2.4 1.8c-.9 0-1.8-.3-2.4-1l.5-.6zm8.8-6.8h5.4v.9h-4.4v2.7h4.3v.9h-4.3v3.7h-1v-8.2zm6.6 2.3h.9s.02.92 0 .9c.5-.6 1.2-1.1 2-1.1v1c-.1 0-.2-.1-.4-.1c-.5 0-1.3.5-1.6 1c.02 0 0 4.2 0 4.2h-.9v-5.9zm3.6 2.9c0-1.7 1.1-3.1 3-3.1c1.8 0 2.9 1.4 2.9 3.1c0 1.8-1.1 3.2-2.9 3.2c-1.9 0-3-1.4-3-3.2zm4.9 0c0-1.2-.7-2.3-1.9-2.3c-1.3 0-2 1.1-2 2.3c0 1.3.7 2.3 2 2.3c1.2 0 1.9-1 1.9-2.3zm9.6-1c0-.8-.3-1.3-1.1-1.3c-.6 0-1.3.5-1.6.9c.01.05 0 4.4 0 4.4h-.9s-.02-4.03 0-4c0-.8-.3-1.3-1.1-1.3c-.6 0-1.3.5-1.6 1c.02-.04 0 4.3 0 4.3h-.9v-5.9h.9s.02.82 0 .8c.3-.4 1.1-1 1.9-1c1 0 1.5.5 1.6 1.1c.4-.5 1.2-1.1 2.1-1.1c1 0 1.6.6 1.6 1.8c.02.01 0 4.3 0 4.3h-.9v-4zm5.9 2.1c.5.6 1.4 1.2 2.6 1.2c1.4 0 1.9-.8 1.9-1.5c0-1-1-1.2-2.1-1.5c-1.3-.4-2.8-.7-2.8-2.4c0-1.3 1.2-2.2 2.8-2.2c1.3 0 2.3.4 3 1.1l-.6.8c-.7-.7-1.5-1-2.4-1c-1 0-1.7.5-1.7 1.3c0 .8.9 1.1 2 1.3c1.3.4 2.9.8 2.9 2.6c0 1.1-.9 2.4-3.1 2.4c-1.4 0-2.5-.6-3.1-1.3l.6-.8zm11 1.1c-.5.5-1.3 1-2.2 1c-1.2 0-1.9-.6-1.9-1.9c.03-.03 0-4.2 0-4.2h1s-.05 3.89 0 3.9c0 1 .5 1.3 1.3 1.3c.7 0 1.4-.4 1.8-.9c-.05.04 0-4.3 0-4.3h.9v5.9h-.9s-.05-.82 0-.8zm2.6-7.4h.9s.03 3.16 0 3.2c.5-.7 1.2-1.1 2-1.1c1.6 0 2.7 1.2 2.7 3.1c0 2-1.1 3.2-2.7 3.2c-.8 0-1.5-.5-2-1.1c.03.03 0 .9 0 .9h-.9v-8.2zm2.7 7.5c1.2 0 1.9-.9 1.9-2.3c0-1.3-.7-2.3-1.9-2.3c-.7 0-1.4.5-1.8 1v2.7c.4.5 1.1.9 1.8.9zm4.1-6.9c0-.3.3-.6.6-.6c.4 0 .7.3.7.6c0 .4-.3.7-.7.7c-.3 0-.6-.3-.6-.7zm1.1 8.2c0 1.2-.6 1.8-1.7 1.8h-.7l.1-.8h.5c.5 0 .9-.2.9-1v-6.5h.9v6.5zm4.3-6.7c1.8 0 2.9 1.4 2.9 3.2v.2s-4.83.04-4.8 0c0 1.2.8 2.1 2.1 2.1c.7 0 1.4-.3 1.9-.7l.4.6c-.6.6-1.4.9-2.4.9c-1.7 0-3-1.3-3-3.2c0-1.7 1.2-3.1 2.9-3.1zm-1.9 2.8h3.9c0-.9-.6-2-2-2c-1.2 0-1.9 1-1.9 2zm8.8-2.8c1.1 0 1.7.5 2.2 1l-.6.6c-.4-.5-.9-.8-1.5-.8c-1.3 0-2.1 1-2.1 2.3c0 1.4.8 2.3 2.1 2.3c.6 0 1.1-.2 1.5-.7l.6.5c-.5.6-1.1 1.1-2.2 1.1c-1.8 0-3-1.4-3-3.2c0-1.7 1.2-3.1 3-3.1zm3.6 4.9c-.05-.02 0-3.9 0-3.9h-1v-.8h1v-1.7h.9v1.7h1.2v.8h-1.2s-.02 3.68 0 3.7c0 .4.2.7.6.7c.2 0 .5-.1.6-.2l.3.7c-.3.2-.6.4-1.1.4c-.9 0-1.3-.5-1.3-1.4zm6.4-7s3.29-.02 3.3 0c1.6 0 2.6 1.1 2.6 2.5c0 1.3-1 2.4-2.6 2.4c-.01.05-2.3 0-2.3 0v3.3h-1v-8.2zm3.2.9h-2.2v3.1s2.16.04 2.2 0c.9 0 1.6-.6 1.6-1.5c0-1-.7-1.6-1.6-1.6zm3.9 1.4h.9s-.01.92 0 .9c.5-.6 1.2-1.1 2-1.1v1c-.1 0-.2-.1-.4-.1c-.6 0-1.3.5-1.6 1v4.2h-.9v-5.9zm3.6 2.9c0-1.7 1.1-3.1 2.9-3.1c1.8 0 3 1.4 3 3.1c0 1.8-1.2 3.2-3 3.2c-1.8 0-2.9-1.4-2.9-3.2zm4.9 0c0-1.2-.7-2.3-2-2.3c-1.2 0-2 1.1-2 2.3c0 1.3.8 2.3 2 2.3c1.3 0 2-1 2-2.3zm2.4 5.3v-8.2h.9v.8c.4-.6 1.2-1 2-1c1.6 0 2.7 1.2 2.7 3.1c0 2-1.1 3.2-2.7 3.2c-.8 0-1.5-.4-2-1.1v3.2h-.9zm2.7-7.6c-.8 0-1.5.5-1.8 1v2.7c.3.5 1 .9 1.8.9c1.2 0 1.9-.9 1.9-2.3c0-1.3-.7-2.3-1.9-2.3zm6.8-.8c1.8 0 2.9 1.4 2.9 3.2v.2s-4.84.04-4.8 0c0 1.2.8 2.1 2.1 2.1c.7 0 1.4-.3 1.8-.7l.5.6c-.6.6-1.4.9-2.4.9c-1.7 0-3-1.3-3-3.2c0-1.7 1.2-3.1 2.9-3.1zm-1.9 2.8h3.9c0-.9-.6-2-2-2c-1.3 0-1.9 1-1.9 2zm6.2-2.6h.9s-.02.92 0 .9c.5-.6 1.2-1.1 2-1.1v1c-.1 0-.2-.1-.4-.1c-.6 0-1.3.5-1.6 1c-.02 0 0 4.2 0 4.2h-.9v-5.9zm4.1 4.7v-3.9h-1v-.8h1v-1.7h.9v1.7h1.2v.8h-1.2s.02 3.68 0 3.7c0 .4.2.7.6.7c.3 0 .5-.1.7-.2l.2.7c-.2.2-.5.4-1.1.4c-.9 0-1.3-.5-1.3-1.4zm3.6 2.8c.4 0 .7-.1.9-.6c.03-.01.4-.9.4-.9l-2.5-6h1l2 4.8l2-4.8h1s-2.98 7.13-3 7.1c-.3.9-.9 1.2-1.7 1.2h-.7l.1-.9c.2.1.4.1.5.1z" stroke="none" fill="#888888"/></g><g id="Polygon304419"><path d="m36.6 241.8c3 0 4.2 2.8 4.2 5.5c0 2.6-1.2 5.4-4.2 5.4c-2.9 0-4.1-2.8-4.1-5.4c0-2.7 1.2-5.5 4.1-5.5zm0 1.4c-1.8 0-2.5 2-2.5 4.1c0 2 .7 4 2.5 4c1.9 0 2.6-2 2.6-4c0-2.1-.7-4.1-2.6-4.1zm9.6-1.4c3 0 4.2 2.8 4.2 5.5c0 2.6-1.2 5.4-4.2 5.4c-2.9 0-4.1-2.8-4.1-5.4c0-2.7 1.2-5.5 4.1-5.5zm0 1.4c-1.8 0-2.5 2-2.5 4.1c0 2 .7 4 2.5 4c1.9 0 2.6-2 2.6-4c0-2.1-.7-4.1-2.6-4.1zm19 .9l-3.4 8.4h-.7l-3.4-8.4v8.4h-1.6V242h2.2l3.1 7.6l3.1-7.6h2.3v10.5h-1.6v-8.4zm3.5-1.4c0-.5.4-.9.9-.9c.5 0 .9.4.9.9c0 .5-.4.9-.9.9c-.5 0-.9-.4-.9-.9zm.2 2.2h1.5v7.6h-1.5v-7.6zm8.7 2.7c0-1.2-.6-1.6-1.6-1.6c-.9 0-1.7.5-2.1 1.1v5.4h-1.4v-7.6h1.4v1.1c.5-.7 1.5-1.3 2.7-1.3c1.6 0 2.5.8 2.5 2.5c-.02-.04 0 5.3 0 5.3h-1.5s.05-4.86 0-4.9zm7.6-5.6s3.74-.05 3.7 0c3.3 0 5.5 2.2 5.5 5.3c0 3-2.2 5.2-5.5 5.2c.04.05-3.7 0-3.7 0V242zm3.7 9.2c2.5 0 3.9-1.8 3.9-3.9c0-2.2-1.4-3.9-3.9-3.9c.04-.05-2.2 0-2.2 0v7.8s2.24-.05 2.2 0zm7.3-6.3h1.4v1.2c.6-.8 1.5-1.4 2.5-1.4v1.4h-.5c-.7 0-1.7.5-2 1.1v5.3h-1.4v-7.6zm5-2.2c0-.5.4-.9.9-.9c.5 0 .9.4.9.9c0 .5-.4.9-.9.9c-.5 0-.9-.4-.9-.9zm.2 2.2h1.4v7.6h-1.4v-7.6zm2.4 0h1.5l2.4 6l2.4-6h1.6l-3.2 7.6H107l-3.2-7.6zm12.2-.2c2.3 0 3.8 1.8 3.8 4.1c-.05.03 0 .4 0 .4c0 0-6.12-.02-6.1 0c.1 1.3 1 2.4 2.6 2.4c.8 0 1.7-.4 2.3-.9l.6.9c-.7.7-1.8 1.1-3.1 1.1c-2.2 0-3.9-1.6-3.9-4c0-2.2 1.6-4 3.8-4zm-2.3 3.4h4.7c-.1-1-.8-2.2-2.4-2.2c-1.5 0-2.3 1.2-2.3 2.2z" stroke="none" fill="#282828"/></g><g id="Polygon304418"><path d="m1.3 228.8c.7.8 1.8 1.3 3 1.3c1.4 0 2.3-.7 2.3-1.8c0-1.1-1-1.6-2.5-1.6H3v-1.5c.1.1.7.1 1.1.1c1.3 0 2.3-.5 2.3-1.6c0-1.1-1-1.7-2.2-1.7c-1.1 0-2 .5-2.8 1.3l-.8-1c.8-1 2-1.7 3.7-1.7c2.2 0 3.7 1.1 3.7 2.9c0 1.4-1.2 2.2-2.3 2.4c1 .1 2.5.9 2.5 2.6c0 1.8-1.5 3.1-3.9 3.1c-1.8 0-3.2-.8-3.9-1.8l.9-1zm9.4.8c.5 0 1 .4 1 .9c0 .6-.5 1-1 1c-.6 0-1-.4-1-1c0-.5.4-.9 1-.9zm22.2-8.8s4.5-.02 4.5 0c2.2 0 3.4 1.5 3.4 3.2c0 1.8-1.2 3.3-3.4 3.3h-2.9v4.1h-1.6v-10.6zm4.3 1.4c0-.03-2.7 0-2.7 0v3.7h2.7c1.1 0 2-.8 2-1.9c0-1.1-.9-1.8-2-1.8zm4.3 5.3c0-2.2 1.5-4 3.9-4c2.4 0 3.9 1.8 3.9 4c0 2.3-1.5 4.1-3.9 4.1c-2.4 0-3.9-1.8-3.9-4.1zm6.3 0c0-1.4-.9-2.7-2.4-2.7c-1.5 0-2.4 1.3-2.4 2.7c0 1.5.9 2.8 2.4 2.8c1.5 0 2.4-1.3 2.4-2.8zm2.9-6c0-.5.4-.9.9-.9c.5 0 1 .4 1 .9c0 .5-.5.9-1 .9c-.5 0-.9-.4-.9-.9zm.2 2.2h1.5v7.7h-1.5v-7.7zm8.8 2.8c0-1.3-.7-1.7-1.7-1.7c-.9 0-1.7.5-2.1 1.1v5.5h-1.4v-7.7h1.4v1.1c.5-.6 1.5-1.3 2.7-1.3c1.6 0 2.5.9 2.5 2.5c-.02-.01 0 5.4 0 5.4h-1.4s-.05-4.94 0-4.9zm3.8 3.2c-.02-.03 0-4.7 0-4.7h-1.3v-1.3h1.3v-2.1h1.4v2.1h1.6v1.3h-1.6s.01 4.35 0 4.4c0 .5.3.9.8.9c.3 0 .6-.2.7-.3l.4 1.1c-.3.3-.7.5-1.5.5c-1.2 0-1.8-.7-1.8-1.9zm7.9-2.2c0-2.2 1.5-4 3.8-4c2.4 0 3.9 1.8 3.9 4c0 2.3-1.5 4.1-3.9 4.1c-2.3 0-3.8-1.8-3.8-4.1zm6.2 0c0-1.4-.8-2.7-2.4-2.7c-1.5 0-2.3 1.3-2.3 2.7c0 1.5.8 2.8 2.3 2.8c1.6 0 2.4-1.3 2.4-2.8zm3.5-2.5h-1.3v-1.3h1.3v-.5c0-1.7 1-2.6 2.3-2.6c.5 0 1 .1 1.3.3l-.3 1.1c-.2-.1-.5-.2-.7-.2c-.7 0-1.2.5-1.2 1.4c.04-.01 0 .5 0 .5h1.6v1.3h-1.6v6.4h-1.4V225zm8.2-4.2h1.6v10.6h-1.6v-10.6zm8.9 5.7c0-1.3-.6-1.7-1.6-1.7c-.9 0-1.7.5-2.1 1.1c-.03-.01 0 5.5 0 5.5H93v-7.7h1.5s-.03 1.08 0 1.1c.5-.6 1.5-1.3 2.7-1.3c1.6 0 2.4.9 2.4 2.5c.04-.01 0 5.4 0 5.4h-1.4s.02-4.94 0-4.9zm3.8 3.2c.04-.03 0-4.7 0-4.7h-1.2v-1.3h1.2v-2.1h1.5v2.1h1.5v1.3h-1.5s-.03 4.35 0 4.4c0 .5.2.9.7.9c.4 0 .7-.2.8-.3l.4 1.1c-.3.3-.8.5-1.5.5c-1.2 0-1.9-.7-1.9-1.9zm7.8-6.2c2.3 0 3.8 1.8 3.8 4.2c-.04-.05 0 .3 0 .3h-6.1c.1 1.3 1.1 2.4 2.6 2.4c.8 0 1.7-.3 2.3-.9l.6.9c-.7.8-1.8 1.2-3 1.2c-2.3 0-4-1.7-4-4.1c0-2.2 1.6-4 3.8-4zm-2.3 3.5h4.7c-.1-1-.8-2.3-2.4-2.3c-1.5 0-2.2 1.2-2.3 2.3zm7.7-3.3h1.4s.02 1.17 0 1.2c.6-.8 1.5-1.4 2.5-1.4v1.5c-.1-.1-.3-.1-.5-.1c-.7 0-1.6.6-2 1.1c.02.03 0 5.4 0 5.4h-1.4v-7.7zm8.6-.2c2.3 0 3.7 1.8 3.7 4.2v.3h-6.1c.1 1.3 1.1 2.4 2.6 2.4c.9 0 1.7-.3 2.3-.9l.7.9c-.8.8-1.9 1.2-3.1 1.2c-2.3 0-4-1.7-4-4.1c0-2.2 1.6-4 3.9-4zm-2.4 3.5h4.7c0-1-.7-2.3-2.3-2.3c-1.6 0-2.3 1.2-2.4 2.3zm7.8 2.3c.5.6 1.5 1.1 2.5 1.1c1.1 0 1.7-.4 1.7-1.1c0-.7-.9-1-1.9-1.2c-1.3-.3-2.8-.7-2.8-2.3c0-1.2 1-2.3 2.9-2.3c1.3 0 2.3.5 2.9 1.1l-.6 1c-.4-.5-1.3-.9-2.3-.9c-.9 0-1.5.3-1.5 1c0 .6.8.9 1.7 1.1c1.4.3 3 .6 3 2.4c0 1.3-1.1 2.4-3.1 2.4c-1.3 0-2.5-.4-3.2-1.2l.7-1.1zm7.5.4V225h-1.3v-1.3h1.3v-2.1h1.4v2.1h1.6v1.3h-1.6s.03 4.35 0 4.4c0 .5.3.9.8.9c.3 0 .6-.2.8-.3l.3 1.1c-.3.3-.7.5-1.5.5c-1.2 0-1.8-.7-1.8-1.9z" stroke="none" fill="#282828"/></g><g id="Polygon304417"><path d="m35.5 155.9c2.3 0 3.2 2.3 3.2 4.3c0 2-.9 4.3-3.2 4.3c-2.2 0-3.1-2.3-3.1-4.3c0-2 .9-4.3 3.1-4.3zm0 1c-1.5 0-2.1 1.7-2.1 3.3c0 1.6.6 3.3 2.1 3.3c1.6 0 2.1-1.7 2.1-3.3c0-1.6-.5-3.3-2.1-3.3zm7.5-1c2.2 0 3.1 2.3 3.1 4.3c0 2-.9 4.3-3.1 4.3c-2.3 0-3.2-2.3-3.2-4.3c0-2 .9-4.3 3.2-4.3zm0 1c-1.6 0-2.1 1.7-2.1 3.3c0 1.6.5 3.3 2.1 3.3c1.6 0 2.1-1.7 2.1-3.3c0-1.6-.5-3.3-2.1-3.3zm14.7.6l-2.8 6.8h-.4l-2.8-6.8v6.8h-1v-8.2h1.4l2.6 6.2l2.6-6.2h1.4v8.2h-1v-6.8zm2.6-.8c0-.3.3-.6.7-.6c.3 0 .6.3.6.6c0 .4-.3.6-.6.6c-.4 0-.7-.2-.7-.6zm.2 1.6h.9v6h-.9v-6zm2.7-2.2h.9v8.2h-.9v-8.2zm5.2 2.1c1.8 0 2.9 1.4 2.9 3.2c-.03 0 0 .2 0 .2c0 0-4.86.03-4.9 0c.1 1.2.9 2.1 2.2 2.1c.7 0 1.4-.3 1.8-.8l.5.6c-.6.6-1.4 1-2.4 1c-1.8 0-3-1.3-3-3.2c0-1.7 1.2-3.1 2.9-3.1zm-2 2.8h4c-.1-.9-.6-2-2-2c-1.3 0-1.9 1-2 2zm6.2 1.9c.4.4 1.2.8 2 .8c.9 0 1.4-.4 1.4-1c0-.6-.8-.8-1.6-1c-1-.3-2.1-.6-2.1-1.8c0-.9.8-1.7 2.2-1.7c1 0 1.7.4 2.2.9l-.4.6c-.4-.4-1-.8-1.8-.8c-.8 0-1.3.4-1.3 1c0 .5.7.7 1.4.9c1.1.2 2.3.5 2.3 1.9c0 1-.8 1.8-2.4 1.8c-.9 0-1.8-.3-2.4-1l.5-.6zm8.8-6.8h5.4v.9h-4.4v2.6h4.3v1h-4.3v3.7h-1v-8.2zm6.6 2.2h.9s.02 1.01 0 1c.5-.6 1.2-1.1 2-1.1v1c-.1-.1-.2-.1-.4-.1c-.5 0-1.3.5-1.6 1c.02-.01 0 4.2 0 4.2h-.9v-6zm3.6 3c0-1.7 1.1-3.1 3-3.1c1.8 0 2.9 1.4 2.9 3.1c0 1.8-1.1 3.2-2.9 3.2c-1.9 0-3-1.4-3-3.2zm4.9 0c0-1.2-.7-2.3-1.9-2.3c-1.3 0-2 1.1-2 2.3c0 1.2.7 2.3 2 2.3c1.2 0 1.9-1.1 1.9-2.3zm9.6-1c0-.8-.3-1.3-1.1-1.3c-.6 0-1.3.5-1.6.9c.01.04 0 4.4 0 4.4h-.9s-.02-4.04 0-4c0-.8-.3-1.3-1.1-1.3c-.6 0-1.3.5-1.6 1c.02-.05 0 4.3 0 4.3h-.9v-6h.9s.02.91 0 .9c.3-.4 1.1-1 1.9-1c1 0 1.5.5 1.6 1.1c.4-.5 1.2-1.1 2.1-1.1c1 0 1.6.6 1.6 1.8c.02 0 0 4.3 0 4.3h-.9v-4zm5.9 2.1c.5.6 1.4 1.1 2.6 1.1c1.4 0 1.9-.7 1.9-1.4c0-1-1-1.2-2.1-1.5c-1.3-.4-2.8-.7-2.8-2.4c0-1.3 1.2-2.3 2.8-2.3c1.3 0 2.3.5 3 1.2l-.6.8c-.7-.7-1.5-1-2.4-1c-1 0-1.7.5-1.7 1.3c0 .8.9 1 2 1.3c1.3.4 2.9.8 2.9 2.5c0 1.2-.9 2.5-3.1 2.5c-1.4 0-2.5-.6-3.1-1.3l.6-.8zm11 1.1c-.5.5-1.3 1-2.2 1c-1.2 0-1.9-.6-1.9-1.9c.03-.04 0-4.3 0-4.3h1s-.05 3.97 0 4c0 1 .5 1.3 1.3 1.3c.7 0 1.4-.4 1.8-.9c-.05.03 0-4.4 0-4.4h.9v6h-.9s-.05-.83 0-.8zm2.6-7.4h.9s.03 3.15 0 3.1c.5-.6 1.2-1 2-1c1.6 0 2.7 1.2 2.7 3.1c0 2-1.1 3.2-2.7 3.2c-.8 0-1.5-.5-2-1.1c.03.02 0 .9 0 .9h-.9v-8.2zm2.7 7.5c1.2 0 1.9-.9 1.9-2.3c0-1.3-.7-2.3-1.9-2.3c-.7 0-1.4.5-1.8 1v2.7c.4.5 1.1.9 1.8.9zm4.1-6.9c0-.3.3-.6.6-.6c.4 0 .7.3.7.6c0 .4-.3.6-.7.6c-.3 0-.6-.2-.6-.6zm1.1 8.2c0 1.2-.6 1.8-1.7 1.8c-.3 0-.5 0-.7-.1l.1-.7h.5c.5 0 .9-.3.9-1c-.01-.01 0-6.6 0-6.6h.9s.01 6.59 0 6.6zm4.3-6.7c1.8 0 2.9 1.4 2.9 3.2v.2s-4.83.03-4.8 0c0 1.2.8 2.1 2.1 2.1c.7 0 1.4-.3 1.9-.8l.4.6c-.6.6-1.4 1-2.4 1c-1.7 0-3-1.3-3-3.2c0-1.7 1.2-3.1 2.9-3.1zm-1.9 2.8h3.9c0-.9-.6-2-2-2c-1.2 0-1.9 1-1.9 2zm8.8-2.8c1.1 0 1.7.4 2.2 1l-.6.6c-.4-.5-.9-.8-1.5-.8c-1.3 0-2.1 1-2.1 2.3c0 1.3.8 2.3 2.1 2.3c.6 0 1.1-.2 1.5-.7l.6.5c-.5.6-1.1 1.1-2.2 1.1c-1.8 0-3-1.4-3-3.2c0-1.7 1.2-3.1 3-3.1zm3.6 4.9c-.05-.04 0-3.9 0-3.9h-1v-.9h1v-1.6h.9v1.6h1.2v.9h-1.2s-.02 3.67 0 3.7c0 .4.2.7.6.7c.2 0 .5-.1.6-.2l.3.7c-.3.2-.6.4-1.1.4c-.9 0-1.3-.5-1.3-1.4zm6.4-7s3.29-.03 3.3 0c1.6 0 2.6 1.1 2.6 2.5c0 1.3-1 2.4-2.6 2.4c-.01.04-2.3 0-2.3 0v3.3h-1v-8.2zm3.2.9c-.04-.01-2.2 0-2.2 0v3.1s2.16.02 2.2 0c.9 0 1.6-.6 1.6-1.5c0-1-.7-1.6-1.6-1.6zm3.9 1.3h.9v1c.5-.6 1.2-1.1 2-1.1v1c-.1-.1-.2-.1-.4-.1c-.6 0-1.3.5-1.6 1v4.2h-.9v-6zm3.6 3c0-1.7 1.1-3.1 2.9-3.1c1.8 0 3 1.4 3 3.1c0 1.8-1.2 3.2-3 3.2c-1.8 0-2.9-1.4-2.9-3.2zm4.9 0c0-1.2-.7-2.3-2-2.3c-1.2 0-2 1.1-2 2.3c0 1.2.8 2.3 2 2.3c1.3 0 2-1.1 2-2.3zm2.4 5.3v-8.3h.9s-.01.93 0 .9c.4-.6 1.2-1 2-1c1.6 0 2.7 1.2 2.7 3.1c0 1.9-1.1 3.2-2.7 3.2c-.8 0-1.5-.4-2-1.1v3.2h-.9zm2.7-7.6c-.8 0-1.5.5-1.8 1v2.7c.3.5 1 .9 1.8.9c1.2 0 1.9-1 1.9-2.3c0-1.3-.7-2.3-1.9-2.3zm6.8-.8c1.8 0 2.9 1.4 2.9 3.2v.2s-4.84.03-4.8 0c0 1.2.8 2.1 2.1 2.1c.7 0 1.4-.3 1.8-.8l.5.6c-.6.6-1.4 1-2.4 1c-1.7 0-3-1.3-3-3.2c0-1.7 1.2-3.1 2.9-3.1zm-1.9 2.8h3.9c0-.9-.6-2-2-2c-1.3 0-1.9 1-1.9 2zm6.2-2.7h.9s-.02 1.01 0 1c.5-.6 1.2-1.1 2-1.1v1c-.1-.1-.2-.1-.4-.1c-.6 0-1.3.5-1.6 1c-.02-.01 0 4.2 0 4.2h-.9v-6zm4.1 4.8v-3.9h-1v-.9h1v-1.6h.9v1.6h1.2v.9h-1.2s.02 3.67 0 3.7c0 .4.2.7.6.7c.3 0 .5-.1.7-.2l.2.7c-.2.2-.5.4-1.1.4c-.9 0-1.3-.5-1.3-1.4zm3.6 2.8c.4 0 .7-.1.9-.6c.03-.02.4-.9.4-.9l-2.5-6.1h1l2 4.9l2-4.9h1s-2.98 7.22-3 7.2c-.3.9-.9 1.2-1.7 1.2c-.2 0-.5 0-.7-.1l.1-.8c.2.1.4.1.5.1z" stroke="none" fill="#888888"/></g><g id="Polygon304416"><path d="m36.6 132.4c3 0 4.2 2.8 4.2 5.4c0 2.7-1.2 5.5-4.2 5.5c-2.9 0-4.1-2.8-4.1-5.5c0-2.6 1.2-5.4 4.1-5.4zm0 1.4c-1.8 0-2.5 2-2.5 4c0 2.1.7 4.1 2.5 4.1c1.9 0 2.6-2 2.6-4.1c0-2-.7-4-2.6-4zm9.6-1.4c3 0 4.2 2.8 4.2 5.4c0 2.7-1.2 5.5-4.2 5.5c-2.9 0-4.1-2.8-4.1-5.5c0-2.6 1.2-5.4 4.1-5.4zm0 1.4c-1.8 0-2.5 2-2.5 4c0 2.1.7 4.1 2.5 4.1c1.9 0 2.6-2 2.6-4.1c0-2-.7-4-2.6-4zm19 .9l-3.4 8.4h-.7l-3.4-8.4v8.4h-1.6v-10.6h2.2l3.1 7.6l3.1-7.6h2.3v10.6h-1.6v-8.4zm3.5-1.4c0-.5.4-.9.9-.9c.5 0 .9.4.9.9c0 .5-.4.9-.9.9c-.5 0-.9-.4-.9-.9zm.2 2.2h1.5v7.6h-1.5v-7.6zm8.7 2.7c0-1.2-.6-1.7-1.6-1.7c-.9 0-1.7.6-2.1 1.2v5.4h-1.4v-7.6h1.4v1c.5-.6 1.5-1.2 2.7-1.2c1.6 0 2.5.8 2.5 2.5c-.02-.05 0 5.3 0 5.3h-1.5s.05-4.87 0-4.9zm7.6-5.7s3.74.04 3.7 0c3.3 0 5.5 2.3 5.5 5.3c0 3.1-2.2 5.3-5.5 5.3c.04.03-3.7 0-3.7 0v-10.6zm3.7 9.2c2.5 0 3.9-1.7 3.9-3.9c0-2.1-1.4-3.9-3.9-3.9c.04.04-2.2 0-2.2 0v7.8s2.24.04 2.2 0zm7.3-6.2h1.4v1.1c.6-.7 1.5-1.3 2.5-1.3v1.4h-.5c-.7 0-1.7.5-2 1.1v5.3h-1.4v-7.6zm5-2.2c0-.5.4-.9.9-.9c.5 0 .9.4.9.9c0 .5-.4.9-.9.9c-.5 0-.9-.4-.9-.9zm.2 2.2h1.4v7.6h-1.4v-7.6zm2.4 0h1.5l2.4 6l2.4-6h1.6l-3.2 7.6H107l-3.2-7.6zm12.2-.2c2.3 0 3.8 1.8 3.8 4.1c-.05.02 0 .4 0 .4c0 0-6.12-.03-6.1 0c.1 1.3 1 2.4 2.6 2.4c.8 0 1.7-.4 2.3-1l.6 1c-.7.7-1.8 1.1-3.1 1.1c-2.2 0-3.9-1.6-3.9-4c0-2.2 1.6-4 3.8-4zm-2.3 3.4h4.7c-.1-1-.8-2.3-2.4-2.3c-1.5 0-2.3 1.3-2.3 2.3z" stroke="none" fill="#282828"/></g><g id="Polygon304415"><path d="m.8 120.7c4-3 5.8-4.6 5.8-6.3c0-1.2-1-1.8-2-1.8c-1.3 0-2.3.5-2.9 1.3l-1-1c.9-1.1 2.4-1.7 3.8-1.7c1.9 0 3.7 1.1 3.7 3.2c0 2.1-1.9 3.9-4.8 6.2c-.05-.04 4.9 0 4.9 0v1.4H.8s.03-1.3 0-1.3zm10.3-.6c.5 0 1 .5 1 1c0 .6-.5 1-1 1c-.5 0-1-.4-1-1c0-.5.5-1 1-1zm21.8-8.7s4.5-.03 4.5 0c2.2 0 3.4 1.5 3.4 3.2c0 1.8-1.2 3.3-3.4 3.3c0-.02-2.9 0-2.9 0v4.1h-1.6v-10.6zm4.3 1.4c0-.04-2.7 0-2.7 0v3.7s2.7-.02 2.7 0c1.1 0 2-.8 2-1.9c0-1.1-.9-1.8-2-1.8zm4.3 5.3c0-2.2 1.5-4 3.9-4c2.4 0 3.9 1.8 3.9 4c0 2.2-1.5 4-3.9 4c-2.4 0-3.9-1.8-3.9-4zm6.3 0c0-1.4-.9-2.7-2.4-2.7c-1.5 0-2.4 1.3-2.4 2.7c0 1.5.9 2.8 2.4 2.8c1.5 0 2.4-1.3 2.4-2.8zm2.9-6c0-.5.4-.9.9-.9c.5 0 1 .4 1 .9c0 .5-.5.9-1 .9c-.5 0-.9-.4-.9-.9zm.2 2.2h1.5v7.7h-1.5v-7.7zm8.8 2.8c0-1.3-.7-1.7-1.7-1.7c-.9 0-1.7.5-2.1 1.1v5.5h-1.4v-7.7h1.4v1.1c.5-.7 1.5-1.3 2.7-1.3c1.6 0 2.5.9 2.5 2.5c-.02-.03 0 5.4 0 5.4h-1.4s-.05-4.95 0-4.9zm3.8 3.2c-.02-.04 0-4.8 0-4.8h-1.3v-1.2h1.3v-2.1h1.4v2.1h1.6v1.2h-1.6s.01 4.44 0 4.4c0 .6.3 1 .8 1c.3 0 .6-.2.7-.3l.4 1.1c-.3.2-.7.4-1.5.4c-1.2 0-1.8-.6-1.8-1.8zm7.9-2.2c0-2.2 1.5-4 3.8-4c2.4 0 3.9 1.8 3.9 4c0 2.2-1.5 4-3.9 4c-2.3 0-3.8-1.8-3.8-4zm6.2 0c0-1.4-.8-2.7-2.4-2.7c-1.5 0-2.3 1.3-2.3 2.7c0 1.5.8 2.8 2.3 2.8c1.6 0 2.4-1.3 2.4-2.8zm3.5-2.6h-1.3v-1.2h1.3v-.5c0-1.7 1-2.6 2.3-2.6c.5 0 1 .1 1.3.3l-.3 1.1c-.2-.2-.5-.2-.7-.2c-.7 0-1.2.5-1.2 1.4c.04-.02 0 .5 0 .5h1.6v1.2h-1.6v6.5h-1.4v-6.5zm8.2-4.1h1.6V122h-1.6v-10.6zm8.9 5.7c0-1.3-.6-1.7-1.6-1.7c-.9 0-1.7.5-2.1 1.1c-.03-.02 0 5.5 0 5.5H93v-7.7h1.5s-.03 1.07 0 1.1c.5-.7 1.5-1.3 2.7-1.3c1.6 0 2.4.9 2.4 2.5c.04-.03 0 5.4 0 5.4h-1.4s.02-4.95 0-4.9zm3.8 3.2c.04-.04 0-4.8 0-4.8h-1.2v-1.2h1.2v-2.1h1.5v2.1h1.5v1.2h-1.5s-.03 4.44 0 4.4c0 .6.2 1 .7 1c.4 0 .7-.2.8-.3l.4 1.1c-.3.2-.8.4-1.5.4c-1.2 0-1.9-.6-1.9-1.8zm7.8-6.2c2.3 0 3.8 1.8 3.8 4.1c-.04.04 0 .4 0 .4c0 0-6.11-.01-6.1 0c.1 1.3 1.1 2.4 2.6 2.4c.8 0 1.7-.3 2.3-.9l.6.9c-.7.8-1.8 1.1-3 1.1c-2.3 0-4-1.6-4-4c0-2.2 1.6-4 3.8-4zm-2.3 3.5h4.7c-.1-1.1-.8-2.3-2.4-2.3c-1.5 0-2.2 1.2-2.3 2.3zm7.7-3.3h1.4s.02 1.16 0 1.2c.6-.8 1.5-1.4 2.5-1.4v1.5c-.1-.1-.3-.1-.5-.1c-.7 0-1.6.5-2 1.1c.02.02 0 5.4 0 5.4h-1.4v-7.7zm8.6-.2c2.3 0 3.7 1.8 3.7 4.1v.4s-6.07-.01-6.1 0c.1 1.3 1.1 2.4 2.6 2.4c.9 0 1.7-.3 2.3-.9l.7.9c-.8.8-1.9 1.1-3.1 1.1c-2.3 0-4-1.6-4-4c0-2.2 1.6-4 3.9-4zm-2.4 3.5h4.7c0-1.1-.7-2.3-2.3-2.3c-1.6 0-2.3 1.2-2.4 2.3zm7.8 2.3c.5.6 1.5 1.1 2.5 1.1c1.1 0 1.7-.4 1.7-1.1c0-.8-.9-1-1.9-1.2c-1.3-.3-2.8-.7-2.8-2.3c0-1.3 1-2.3 2.9-2.3c1.3 0 2.3.5 2.9 1.1l-.6 1c-.4-.5-1.3-.9-2.3-.9c-.9 0-1.5.3-1.5 1c0 .6.8.8 1.7 1.1c1.4.3 3 .6 3 2.4c0 1.3-1.1 2.3-3.1 2.3c-1.3 0-2.5-.3-3.2-1.1l.7-1.1zm7.5.4v-4.8h-1.3v-1.2h1.3v-2.1h1.4v2.1h1.6v1.2h-1.6s.03 4.44 0 4.4c0 .6.3 1 .8 1c.3 0 .6-.2.8-.3l.3 1.1c-.3.2-.7.4-1.5.4c-1.2 0-1.8-.6-1.8-1.8z" stroke="none" fill="#282828"/></g><g id="Polygon304414"><path d="m35.5 46.5c2.3 0 3.2 2.3 3.2 4.3c0 2-.9 4.2-3.2 4.2c-2.2 0-3.1-2.2-3.1-4.2c0-2 .9-4.3 3.1-4.3zm0 1c-1.5 0-2.1 1.6-2.1 3.3c0 1.6.6 3.3 2.1 3.3c1.6 0 2.1-1.7 2.1-3.3c0-1.7-.5-3.3-2.1-3.3zm7.5-1c2.2 0 3.1 2.3 3.1 4.3c0 2-.9 4.2-3.1 4.2c-2.3 0-3.2-2.2-3.2-4.2c0-2 .9-4.3 3.2-4.3zm0 1c-1.6 0-2.1 1.6-2.1 3.3c0 1.6.5 3.3 2.1 3.3c1.6 0 2.1-1.7 2.1-3.3c0-1.7-.5-3.3-2.1-3.3zm14.7.5l-2.8 6.9h-.4L51.7 48v6.9h-1v-8.2h1.4l2.6 6.2l2.6-6.2h1.4v8.2h-1V48zm2.6-.7c0-.3.3-.6.7-.6c.3 0 .6.3.6.6c0 .3-.3.6-.6.6c-.4 0-.7-.3-.7-.6zm.2 1.6h.9v6h-.9v-6zm2.7-2.2h.9v8.2h-.9v-8.2zm5.2 2.1c1.8 0 2.9 1.4 2.9 3.2c-.03-.02 0 .2 0 .2c0 0-4.86.02-4.9 0c.1 1.1.9 2.1 2.2 2.1c.7 0 1.4-.3 1.8-.8l.5.6c-.6.6-1.4.9-2.4.9c-1.8 0-3-1.2-3-3.1c0-1.7 1.2-3.1 2.9-3.1zm-2 2.7h4c-.1-.8-.6-1.9-2-1.9c-1.3 0-1.9 1-2 1.9zm6.2 1.9c.4.5 1.2.9 2 .9c.9 0 1.4-.4 1.4-1c0-.6-.8-.9-1.6-1.1c-1-.2-2.1-.5-2.1-1.7c0-.9.8-1.7 2.2-1.7c1 0 1.7.4 2.2.8l-.4.7c-.4-.4-1-.8-1.8-.8c-.8 0-1.3.4-1.3.9c0 .6.7.8 1.4 1c1.1.2 2.3.5 2.3 1.8c0 1-.8 1.8-2.4 1.8c-.9 0-1.8-.2-2.4-.9l.5-.7zm8.8-6.7h5.4v.9h-4.4v2.6h4.3v.9h-4.3v3.8h-1v-8.2zm6.6 2.2h.9s.02 1 0 1c.5-.6 1.2-1.1 2-1.1v1c-.1-.1-.2-.1-.4-.1c-.5 0-1.3.5-1.6 1c.02-.03 0 4.2 0 4.2h-.9v-6zm3.6 3c0-1.7 1.1-3.1 3-3.1c1.8 0 2.9 1.4 2.9 3.1c0 1.7-1.1 3.1-2.9 3.1c-1.9 0-3-1.4-3-3.1zm4.9 0c0-1.2-.7-2.3-1.9-2.3c-1.3 0-2 1.1-2 2.3c0 1.2.7 2.3 2 2.3c1.2 0 1.9-1.1 1.9-2.3zm9.6-1.1c0-.7-.3-1.2-1.1-1.2c-.6 0-1.3.5-1.6.9c.01.03 0 4.4 0 4.4h-.9s-.02-4.05 0-4.1c0-.7-.3-1.2-1.1-1.2c-.6 0-1.3.5-1.6.9c.02.04 0 4.4 0 4.4h-.9v-6h.9s.02.9 0 .9c.3-.4 1.1-1 1.9-1c1 0 1.5.5 1.6 1.1c.4-.5 1.2-1.1 2.1-1.1c1 0 1.6.6 1.6 1.8c.02-.01 0 4.3 0 4.3h-.9v-4.1zM112 53c.5.6 1.4 1.1 2.6 1.1c1.4 0 1.9-.8 1.9-1.4c0-1-1-1.2-2.1-1.5c-1.3-.4-2.8-.8-2.8-2.4c0-1.3 1.2-2.3 2.8-2.3c1.3 0 2.3.5 3 1.2l-.6.7c-.7-.6-1.5-.9-2.4-.9c-1 0-1.7.5-1.7 1.3c0 .8.9 1 2 1.3c1.3.4 2.9.8 2.9 2.5c0 1.2-.9 2.4-3.1 2.4c-1.4 0-2.5-.5-3.1-1.3l.6-.7zm11 1.1c-.5.5-1.3.9-2.2.9c-1.2 0-1.9-.6-1.9-1.9c.03.05 0-4.2 0-4.2h1s-.05 3.96 0 4c0 1 .5 1.3 1.3 1.3c.7 0 1.4-.4 1.8-.9c-.05.02 0-4.4 0-4.4h.9v6h-.9s-.05-.84 0-.8zm2.6-7.4h.9s.03 3.13 0 3.1c.5-.6 1.2-1 2-1c1.6 0 2.7 1.2 2.7 3.1c0 2-1.1 3.1-2.7 3.1c-.8 0-1.5-.4-2-1c.03.01 0 .9 0 .9h-.9v-8.2zm2.7 7.5c1.2 0 1.9-1 1.9-2.3c0-1.3-.7-2.3-1.9-2.3c-.7 0-1.4.5-1.8 1v2.7c.4.5 1.1.9 1.8.9zm4.1-6.9c0-.3.3-.6.6-.6c.4 0 .7.3.7.6c0 .3-.3.6-.7.6c-.3 0-.6-.3-.6-.6zm1.1 8.2c0 1.2-.6 1.8-1.7 1.8c-.3 0-.5 0-.7-.1l.1-.7h.5c.5 0 .9-.3.9-1c-.01-.02 0-6.6 0-6.6h.9s.01 6.58 0 6.6zm4.3-6.7c1.8 0 2.9 1.4 2.9 3.2v.2s-4.83.02-4.8 0c0 1.1.8 2.1 2.1 2.1c.7 0 1.4-.3 1.9-.8l.4.6c-.6.6-1.4.9-2.4.9c-1.7 0-3-1.2-3-3.1c0-1.7 1.2-3.1 2.9-3.1zm-1.9 2.7h3.9c0-.8-.6-1.9-2-1.9c-1.2 0-1.9 1-1.9 1.9zm8.8-2.7c1.1 0 1.7.4 2.2 1l-.6.6c-.4-.6-.9-.8-1.5-.8c-1.3 0-2.1 1-2.1 2.3c0 1.3.8 2.3 2.1 2.3c.6 0 1.1-.2 1.5-.8l.6.6c-.5.6-1.1 1-2.2 1c-1.8 0-3-1.3-3-3.1c0-1.8 1.2-3.1 3-3.1zm3.6 4.9c-.05-.05 0-4 0-4h-1v-.8h1v-1.6h.9v1.6h1.2v.8h-1.2s-.02 3.76 0 3.8c0 .4.2.7.6.7c.2 0 .5-.1.6-.2l.3.7c-.3.2-.6.3-1.1.3c-.9 0-1.3-.5-1.3-1.3zm6.4-7s3.29-.04 3.3 0c1.6 0 2.6 1.1 2.6 2.4c0 1.4-1 2.5-2.6 2.5c-.01.03-2.3 0-2.3 0v3.3h-1v-8.2zm3.2.9c-.04-.03-2.2 0-2.2 0v3.1s2.16.01 2.2 0c.9 0 1.6-.6 1.6-1.6c0-.9-.7-1.5-1.6-1.5zm3.9 1.3h.9v1c.5-.6 1.2-1.1 2-1.1v1c-.1-.1-.2-.1-.4-.1c-.6 0-1.3.5-1.6 1v4.2h-.9v-6zm3.6 3c0-1.7 1.1-3.1 2.9-3.1c1.8 0 3 1.4 3 3.1c0 1.7-1.2 3.1-3 3.1c-1.8 0-2.9-1.4-2.9-3.1zm4.9 0c0-1.2-.7-2.3-2-2.3c-1.2 0-2 1.1-2 2.3c0 1.2.8 2.3 2 2.3c1.3 0 2-1.1 2-2.3zm2.4 5.3v-8.3h.9s-.01.92 0 .9c.4-.6 1.2-1 2-1c1.6 0 2.7 1.2 2.7 3.1c0 1.9-1.1 3.1-2.7 3.1c-.8 0-1.5-.3-2-1v3.2h-.9zm2.7-7.6c-.8 0-1.5.4-1.8 1v2.7c.3.5 1 .9 1.8.9c1.2 0 1.9-1 1.9-2.3c0-1.3-.7-2.3-1.9-2.3zm6.8-.8c1.8 0 2.9 1.4 2.9 3.2v.2s-4.84.02-4.8 0c0 1.1.8 2.1 2.1 2.1c.7 0 1.4-.3 1.8-.8l.5.6c-.6.6-1.4.9-2.4.9c-1.7 0-3-1.2-3-3.1c0-1.7 1.2-3.1 2.9-3.1zm-1.9 2.7h3.9c0-.8-.6-1.9-2-1.9c-1.3 0-1.9 1-1.9 1.9zm6.2-2.6h.9s-.02 1 0 1c.5-.6 1.2-1.1 2-1.1v1c-.1-.1-.2-.1-.4-.1c-.6 0-1.3.5-1.6 1c-.02-.03 0 4.2 0 4.2h-.9v-6zm4.1 4.8v-4h-1v-.8h1v-1.6h.9v1.6h1.2v.8h-1.2s.02 3.76 0 3.8c0 .4.2.7.6.7c.3 0 .5-.1.7-.2l.2.7c-.2.2-.5.3-1.1.3c-.9 0-1.3-.5-1.3-1.3zm3.6 2.8c.4 0 .7-.1.9-.6c.03-.04.4-.9.4-.9l-2.5-6.1h1l2 4.9l2-4.9h1s-2.98 7.21-3 7.2c-.3.9-.9 1.2-1.7 1.2c-.2 0-.5 0-.7-.1l.1-.8c.2.1.4.1.5.1z" stroke="none" fill="#888888"/></g><g id="Polygon304413"><path d="m36.6 23c3 0 4.2 2.8 4.2 5.4c0 2.7-1.2 5.5-4.2 5.5c-2.9 0-4.1-2.8-4.1-5.5c0-2.6 1.2-5.4 4.1-5.4zm0 1.4c-1.8 0-2.5 2-2.5 4c0 2.1.7 4.1 2.5 4.1c1.9 0 2.6-2 2.6-4.1c0-2-.7-4-2.6-4zm9.6-1.4c3 0 4.2 2.8 4.2 5.4c0 2.7-1.2 5.5-4.2 5.5c-2.9 0-4.1-2.8-4.1-5.5c0-2.6 1.2-5.4 4.1-5.4zm0 1.4c-1.8 0-2.5 2-2.5 4c0 2.1.7 4.1 2.5 4.1c1.9 0 2.6-2 2.6-4.1c0-2-.7-4-2.6-4zm19 .9l-3.4 8.4h-.7l-3.4-8.4v8.4h-1.6V23.1h2.2l3.1 7.6l3.1-7.6h2.3v10.6h-1.6v-8.4zm3.5-1.4c0-.5.4-1 .9-1c.5 0 .9.5.9 1c0 .5-.4.9-.9.9c-.5 0-.9-.4-.9-.9zm.2 2.2h1.5v7.6h-1.5v-7.6zm8.7 2.7c0-1.3-.6-1.7-1.6-1.7c-.9 0-1.7.6-2.1 1.1v5.5h-1.4v-7.6h1.4v1c.5-.6 1.5-1.2 2.7-1.2c1.6 0 2.5.8 2.5 2.4c-.02.04 0 5.4 0 5.4h-1.5s.05-4.89 0-4.9zm7.6-5.7s3.74.03 3.7 0c3.3 0 5.5 2.3 5.5 5.3c0 3.1-2.2 5.3-5.5 5.3c.04.02-3.7 0-3.7 0V23.1zm3.7 9.2c2.5 0 3.9-1.7 3.9-3.9c0-2.1-1.4-3.9-3.9-3.9c.04.03-2.2 0-2.2 0v7.8s2.24.03 2.2 0zm7.3-6.2h1.4v1.1c.6-.7 1.5-1.3 2.5-1.3v1.4h-.5c-.7 0-1.7.5-2 1.1v5.3h-1.4v-7.6zm5-2.2c0-.5.4-1 .9-1c.5 0 .9.5.9 1c0 .5-.4.9-.9.9c-.5 0-.9-.4-.9-.9zm.2 2.2h1.4v7.6h-1.4v-7.6zm2.4 0h1.5l2.4 6l2.4-6h1.6l-3.2 7.6H107l-3.2-7.6zm12.2-.2c2.3 0 3.8 1.8 3.8 4.1c-.05.01 0 .4 0 .4c0 0-6.12-.04-6.1 0c.1 1.3 1 2.3 2.6 2.3c.8 0 1.7-.3 2.3-.9l.6 1c-.7.7-1.8 1.1-3.1 1.1c-2.2 0-3.9-1.6-3.9-4c0-2.2 1.6-4 3.8-4zm-2.3 3.4h4.7c-.1-1-.8-2.3-2.4-2.3c-1.5 0-2.3 1.3-2.3 2.3z" stroke="none" fill="#282828"/></g><g id="Polygon304412"><path d="m2.9 4L1.2 5.8l-.9-.9L3.1 2h1.4v10.5H2.9V4zm4.5 6.7c.6 0 1 .5 1 1c0 .6-.4 1-1 1c-.5 0-1-.4-1-1c0-.5.5-1 1-1zM32.9 2s4.5-.05 4.5 0c2.2 0 3.4 1.4 3.4 3.2c0 1.8-1.2 3.3-3.4 3.3c0-.04-2.9 0-2.9 0v4h-1.6V2zm4.3 1.4c0-.05-2.7 0-2.7 0v3.7s2.7-.03 2.7 0c1.1 0 2-.8 2-1.9c0-1.1-.9-1.8-2-1.8zm4.3 5.3c0-2.2 1.5-4 3.9-4c2.4 0 3.9 1.8 3.9 4c0 2.2-1.5 4-3.9 4c-2.4 0-3.9-1.8-3.9-4zm6.3 0c0-1.4-.9-2.7-2.4-2.7C43.9 6 43 7.3 43 8.7c0 1.5.9 2.8 2.4 2.8c1.5 0 2.4-1.3 2.4-2.8zm2.9-6c0-.5.4-.9.9-.9c.5 0 1 .4 1 .9c0 .5-.5.9-1 .9c-.5 0-.9-.4-.9-.9zm.2 2.2h1.5v7.6h-1.5V4.9zm8.8 2.7C59.7 6.4 59 6 58 6c-.9 0-1.7.5-2.1 1.1v5.4h-1.4V4.9h1.4v1.1c.5-.7 1.5-1.3 2.7-1.3c1.6 0 2.5.8 2.5 2.5c-.02-.04 0 5.3 0 5.3h-1.4s-.05-4.86 0-4.9zm3.8 3.2c-.02.05 0-4.7 0-4.7h-1.3V4.9h1.3V2.8h1.4v2.1h1.6v1.2h-1.6s.01 4.43 0 4.4c0 .6.3 1 .8 1c.3 0 .6-.2.7-.3l.4 1c-.3.3-.7.5-1.5.5c-1.2 0-1.8-.6-1.8-1.9zm7.9-2.1c0-2.2 1.5-4 3.8-4c2.4 0 3.9 1.8 3.9 4c0 2.2-1.5 4-3.9 4c-2.3 0-3.8-1.8-3.8-4zm6.2 0c0-1.4-.8-2.7-2.4-2.7c-1.5 0-2.3 1.3-2.3 2.7c0 1.5.8 2.8 2.3 2.8c1.6 0 2.4-1.3 2.4-2.8zm3.5-2.6h-1.3V4.9h1.3v-.5c0-1.7 1-2.6 2.3-2.6c.5 0 1 .1 1.3.3l-.3 1c-.2-.1-.5-.1-.7-.1c-.7 0-1.2.4-1.2 1.4c.04-.03 0 .5 0 .5h1.6v1.2h-1.6v6.4h-1.4V6.1zM89.3 2h1.6v10.5h-1.6V2zm8.9 5.6c0-1.2-.6-1.6-1.6-1.6c-.9 0-1.7.5-2.1 1.1c-.03-.03 0 5.4 0 5.4H93V4.9h1.5s-.03 1.05 0 1.1c.5-.7 1.5-1.3 2.7-1.3c1.6 0 2.4.8 2.4 2.5c.04-.04 0 5.3 0 5.3h-1.4s.02-4.86 0-4.9zm3.8 3.2c.04.05 0-4.7 0-4.7h-1.2V4.9h1.2V2.8h1.5v2.1h1.5v1.2h-1.5s-.03 4.43 0 4.4c0 .6.2 1 .7 1c.4 0 .7-.2.8-.3l.4 1c-.3.3-.8.5-1.5.5c-1.2 0-1.9-.6-1.9-1.9zm7.8-6.1c2.3 0 3.8 1.8 3.8 4.1c-.04.03 0 .4 0 .4c0 0-6.11-.02-6.1 0c.1 1.3 1.1 2.4 2.6 2.4c.8 0 1.7-.4 2.3-.9l.6.9c-.7.7-1.8 1.1-3 1.1c-2.3 0-4-1.6-4-4c0-2.2 1.6-4 3.8-4zm-2.3 3.4h4.7c-.1-1-.8-2.2-2.4-2.2c-1.5 0-2.2 1.2-2.3 2.2zm7.7-3.2h1.4s.02 1.15 0 1.2c.6-.8 1.5-1.4 2.5-1.4v1.4h-.5c-.7 0-1.6.5-2 1.1c.02.01 0 5.3 0 5.3h-1.4V4.9zm8.6-.2c2.3 0 3.7 1.8 3.7 4.1v.4s-6.07-.02-6.1 0c.1 1.3 1.1 2.4 2.6 2.4c.9 0 1.7-.4 2.3-.9l.7.9c-.8.7-1.9 1.1-3.1 1.1c-2.3 0-4-1.6-4-4c0-2.2 1.6-4 3.9-4zm-2.4 3.4h4.7c0-1-.7-2.2-2.3-2.2c-1.6 0-2.3 1.2-2.4 2.2zm7.8 2.4c.5.6 1.5 1.1 2.5 1.1c1.1 0 1.7-.4 1.7-1.1c0-.8-.9-1-1.9-1.2c-1.3-.3-2.8-.7-2.8-2.3c0-1.3 1-2.3 2.9-2.3c1.3 0 2.3.5 2.9 1.1l-.6 1c-.4-.6-1.3-1-2.3-1c-.9 0-1.5.4-1.5 1c0 .7.8.9 1.7 1.2c1.4.3 3 .6 3 2.4c0 1.3-1.1 2.3-3.1 2.3c-1.3 0-2.5-.4-3.2-1.2l.7-1zm7.5.3V6.1h-1.3V4.9h1.3V2.8h1.4v2.1h1.6v1.2h-1.6s.03 4.43 0 4.4c0 .6.3 1 .8 1c.3 0 .6-.2.8-.3l.3 1c-.3.3-.7.5-1.5.5c-1.2 0-1.8-.6-1.8-1.9z" stroke="none" fill="#282828"/></g></svg>