<?xml version="1.0" standalone="no"?>
<!DOCTYPE svg PUBLIC "-//W3C//DTD SVG 1.1//EN" "http://www.w3.org/Graphics/SVG/1.1/DTD/svg11.dtd">
<svg xmlns="http://www.w3.org/2000/svg" version="1.1" width="116.5px" height="46.9px" viewBox="0 -6 116.5 46.9" style="top:-6px">
  <desc>Agent 1</desc>
  <defs/>
  <g id="Polygon179853">
    <path d="M 0.4 33.1 C 0.4 31.6 0.9 30.2 1.7 29.1 C 1.7 29.1 2.2 29.5 2.2 29.5 C 1.6 30.6 1.3 31.6 1.3 33.1 C 1.3 34.6 1.6 35.6 2.2 36.7 C 2.2 36.7 1.7 37.1 1.7 37.1 C 0.9 36 0.4 34.5 0.4 33.1 Z M 5 29.2 C 6.7 29.2 7.4 30.8 7.4 32.3 C 7.4 33.8 6.7 35.4 5 35.4 C 3.4 35.4 2.7 33.8 2.7 32.3 C 2.7 30.8 3.4 29.2 5 29.2 Z M 5 30 C 4 30 3.6 31.1 3.6 32.3 C 3.6 33.5 4 34.6 5 34.6 C 6.1 34.6 6.5 33.5 6.5 32.3 C 6.5 31.1 6.1 30 5 30 Z M 10.5 29.2 C 12.1 29.2 12.8 30.8 12.8 32.3 C 12.8 33.8 12.1 35.4 10.5 35.4 C 8.8 35.4 8.1 33.8 8.1 32.3 C 8.1 30.8 8.8 29.2 10.5 29.2 Z M 10.5 30 C 9.4 30 9 31.1 9 32.3 C 9 33.5 9.4 34.6 10.5 34.6 C 11.5 34.6 11.9 33.5 11.9 32.3 C 11.9 31.1 11.5 30 10.5 30 Z M 15.9 29.2 C 17.6 29.2 18.3 30.8 18.3 32.3 C 18.3 33.8 17.6 35.4 15.9 35.4 C 14.2 35.4 13.6 33.8 13.6 32.3 C 13.6 30.8 14.2 29.2 15.9 29.2 Z M 15.9 30 C 14.8 30 14.5 31.1 14.5 32.3 C 14.5 33.5 14.8 34.6 15.9 34.6 C 17 34.6 17.3 33.5 17.3 32.3 C 17.3 31.1 17 30 15.9 30 Z M 18.7 29.5 C 18.7 29.5 19.2 29.1 19.2 29.1 C 20.1 30.2 20.5 31.6 20.5 33.1 C 20.5 34.5 20.1 36 19.2 37.1 C 19.2 37.1 18.7 36.7 18.7 36.7 C 19.3 35.6 19.7 34.6 19.7 33.1 C 19.7 31.6 19.3 30.6 18.7 29.5 Z M 25.8 29.2 C 27.5 29.2 28.2 30.8 28.2 32.3 C 28.2 33.8 27.5 35.4 25.8 35.4 C 24.2 35.4 23.5 33.8 23.5 32.3 C 23.5 30.8 24.2 29.2 25.8 29.2 Z M 25.8 30 C 24.8 30 24.4 31.1 24.4 32.3 C 24.4 33.5 24.8 34.6 25.8 34.6 C 26.9 34.6 27.3 33.5 27.3 32.3 C 27.3 31.1 26.9 30 25.8 30 Z M 31.3 29.2 C 32.9 29.2 33.6 30.8 33.6 32.3 C 33.6 33.8 32.9 35.4 31.3 35.4 C 29.6 35.4 28.9 33.8 28.9 32.3 C 28.9 30.8 29.6 29.2 31.3 29.2 Z M 31.3 30 C 30.2 30 29.8 31.1 29.8 32.3 C 29.8 33.5 30.2 34.6 31.3 34.6 C 32.3 34.6 32.7 33.5 32.7 32.3 C 32.7 31.1 32.3 30 31.3 30 Z M 36.7 29.2 C 38.4 29.2 39.1 30.8 39.1 32.3 C 39.1 33.8 38.4 35.4 36.7 35.4 C 35 35.4 34.4 33.8 34.4 32.3 C 34.4 30.8 35 29.2 36.7 29.2 Z M 36.7 30 C 35.6 30 35.3 31.1 35.3 32.3 C 35.3 33.5 35.6 34.6 36.7 34.6 C 37.8 34.6 38.1 33.5 38.1 32.3 C 38.1 31.1 37.8 30 36.7 30 Z M 39.7 32.8 L 41.8 32.8 L 41.8 33.5 L 39.7 33.5 L 39.7 32.8 Z M 44.8 29.2 C 46.4 29.2 47.1 30.8 47.1 32.3 C 47.1 33.8 46.4 35.4 44.8 35.4 C 43.1 35.4 42.4 33.8 42.4 32.3 C 42.4 30.8 43.1 29.2 44.8 29.2 Z M 44.8 30 C 43.7 30 43.3 31.1 43.3 32.3 C 43.3 33.5 43.7 34.6 44.8 34.6 C 45.8 34.6 46.2 33.5 46.2 32.3 C 46.2 31.1 45.8 30 44.8 30 Z M 50.2 29.2 C 51.9 29.2 52.5 30.8 52.5 32.3 C 52.5 33.8 51.9 35.4 50.2 35.4 C 48.5 35.4 47.8 33.8 47.8 32.3 C 47.8 30.8 48.5 29.2 50.2 29.2 Z M 50.2 30 C 49.1 30 48.8 31.1 48.8 32.3 C 48.8 33.5 49.1 34.6 50.2 34.6 C 51.3 34.6 51.6 33.5 51.6 32.3 C 51.6 31.1 51.3 30 50.2 30 Z M 55.6 29.2 C 57.3 29.2 58 30.8 58 32.3 C 58 33.8 57.3 35.4 55.6 35.4 C 54 35.4 53.3 33.8 53.3 32.3 C 53.3 30.8 54 29.2 55.6 29.2 Z M 55.6 30 C 54.6 30 54.2 31.1 54.2 32.3 C 54.2 33.5 54.6 34.6 55.6 34.6 C 56.7 34.6 57.1 33.5 57.1 32.3 C 57.1 31.1 56.7 30 55.6 30 Z M 61.1 29.2 C 62.7 29.2 63.4 30.8 63.4 32.3 C 63.4 33.8 62.7 35.4 61.1 35.4 C 59.4 35.4 58.7 33.8 58.7 32.3 C 58.7 30.8 59.4 29.2 61.1 29.2 Z M 61.1 30 C 60 30 59.6 31.1 59.6 32.3 C 59.6 33.5 60 34.6 61.1 34.6 C 62.1 34.6 62.5 33.5 62.5 32.3 C 62.5 31.1 62.1 30 61.1 30 Z " stroke="none" fill="#3797ef"/>
  </g>
  <g id="Polygon179852">
    <path d="M 2.1 19.3 L 0.3 19.3 L 0.3 18.5 L 4.9 18.5 L 4.9 19.3 L 3 19.3 L 3 24.5 L 2.1 24.5 L 2.1 19.3 Z M 5.6 18.9 C 5.6 18.6 5.8 18.4 6.1 18.4 C 6.4 18.4 6.6 18.6 6.6 18.9 C 6.6 19.2 6.4 19.4 6.1 19.4 C 5.8 19.4 5.6 19.2 5.6 18.9 Z M 5.7 20.1 L 6.5 20.1 L 6.5 24.5 L 5.7 24.5 L 5.7 20.1 Z M 7.9 23.5 C 7.88 23.52 7.9 20.8 7.9 20.8 L 7.2 20.8 L 7.2 20.1 L 7.9 20.1 L 7.9 18.9 L 8.7 18.9 L 8.7 20.1 L 9.6 20.1 L 9.6 20.8 L 8.7 20.8 C 8.7 20.8 8.69 23.34 8.7 23.3 C 8.7 23.6 8.8 23.9 9.1 23.9 C 9.3 23.9 9.5 23.8 9.6 23.7 C 9.6 23.7 9.8 24.3 9.8 24.3 C 9.6 24.5 9.3 24.6 8.9 24.6 C 8.2 24.6 7.9 24.2 7.9 23.5 Z M 10.4 18.5 L 11.2 18.5 L 11.2 24.5 L 10.4 24.5 L 10.4 18.5 Z M 14.3 20 C 15.6 20 16.4 21 16.4 22.4 C 16.42 22.37 16.4 22.6 16.4 22.6 C 16.4 22.6 12.98 22.57 13 22.6 C 13 23.3 13.6 23.9 14.5 23.9 C 14.9 23.9 15.4 23.7 15.7 23.4 C 15.7 23.4 16.1 23.9 16.1 23.9 C 15.7 24.4 15.1 24.6 14.4 24.6 C 13.1 24.6 12.1 23.7 12.1 22.3 C 12.1 21 13 20 14.3 20 Z M 13 22 C 13 22 15.6 22 15.6 22 C 15.6 21.4 15.2 20.7 14.3 20.7 C 13.4 20.7 13 21.4 13 22 Z " stroke="none" fill="#888888"/>
  </g>
  <g id="Polygon179851">
    <path d="M 0.8 1.3 L 5.6 1.3 L 5.6 2.9 L 2.7 2.9 L 2.7 6.1 L 5.2 6.1 L 5.2 7.7 L 2.7 7.7 L 2.7 12.5 L 0.8 12.5 L 0.8 1.3 Z M 6.6 12.5 L 6.6 1.3 L 8.5 1.3 L 8.5 12.5 L 6.6 12.5 Z M 14.2 12.5 L 12.8 8 L 11.8 8 L 11.8 12.5 L 10 12.5 L 10 1.3 C 10 1.3 12.86 1.28 12.9 1.3 C 14.6 1.3 15.7 2 15.7 3.6 C 15.7 3.6 15.7 5.6 15.7 5.6 C 15.7 6.7 15.2 7.4 14.5 7.7 C 14.46 7.73 16.1 12.5 16.1 12.5 L 14.2 12.5 Z M 11.8 6.4 C 11.8 6.4 12.8 6.42 12.8 6.4 C 13.4 6.4 13.8 6.2 13.8 5.4 C 13.8 5.4 13.8 3.9 13.8 3.9 C 13.8 3.1 13.4 2.9 12.8 2.9 C 12.8 2.91 11.8 2.9 11.8 2.9 L 11.8 6.4 Z M 20.4 5.3 C 20.4 5.3 20.45 3.71 20.4 3.7 C 20.4 3 20 2.8 19.5 2.8 C 19 2.8 18.6 3 18.6 3.7 C 18.6 3.7 18.6 4.5 18.6 4.5 C 18.6 5.1 18.8 5.3 19.3 5.6 C 19.3 5.6 20.6 6.4 20.6 6.4 C 21.7 7 22.3 7.5 22.3 8.7 C 22.3 8.7 22.3 10.3 22.3 10.3 C 22.3 12 21.2 12.6 19.5 12.6 C 19.5 12.6 19.5 12.6 19.5 12.6 C 17.8 12.6 16.7 12 16.7 10.3 C 16.74 10.27 16.7 8.3 16.7 8.3 L 18.6 8.3 C 18.6 8.3 18.56 10.02 18.6 10 C 18.6 10.7 19 11 19.5 11 C 20.1 11 20.5 10.7 20.5 10 C 20.5 10 20.5 9.1 20.5 9.1 C 20.5 8.6 20.3 8.3 19.7 8 C 19.7 8 18.4 7.2 18.4 7.2 C 17.4 6.6 16.7 6.1 16.7 4.9 C 16.7 4.9 16.7 3.5 16.7 3.5 C 16.7 1.8 18 1.2 19.5 1.2 C 19.5 1.2 19.5 1.2 19.5 1.2 C 21.1 1.2 22.3 1.8 22.3 3.5 C 22.27 3.46 22.3 5.3 22.3 5.3 L 20.4 5.3 Z M 28.4 2.9 L 26.5 2.9 L 26.5 12.5 L 24.7 12.5 L 24.7 2.9 L 22.8 2.9 L 22.8 1.3 L 28.4 1.3 L 28.4 2.9 Z M 36.1 12.5 L 31.4 12.5 L 31.4 1.3 L 33.3 1.3 L 33.3 10.8 L 36.1 10.8 L 36.1 12.5 Z M 40.5 10 L 38.5 10 L 38.1 12.5 L 36.3 12.5 L 38.4 1.3 L 40.7 1.3 L 42.8 12.5 L 40.9 12.5 L 40.5 10 Z M 40.3 8.4 L 39.5 3.5 L 38.7 8.4 L 40.3 8.4 Z M 47 5.3 C 47 5.3 46.99 3.71 47 3.7 C 47 3 46.6 2.8 46 2.8 C 45.5 2.8 45.1 3 45.1 3.7 C 45.1 3.7 45.1 4.5 45.1 4.5 C 45.1 5.1 45.3 5.3 45.8 5.6 C 45.8 5.6 47.1 6.4 47.1 6.4 C 48.2 7 48.8 7.5 48.8 8.7 C 48.8 8.7 48.8 10.3 48.8 10.3 C 48.8 12 47.8 12.6 46.1 12.6 C 46.1 12.6 46 12.6 46 12.6 C 44.4 12.6 43.3 12 43.3 10.3 C 43.28 10.27 43.3 8.3 43.3 8.3 L 45.1 8.3 C 45.1 8.3 45.1 10.02 45.1 10 C 45.1 10.7 45.5 11 46.1 11 C 46.6 11 47 10.7 47 10 C 47 10 47 9.1 47 9.1 C 47 8.6 46.8 8.3 46.3 8 C 46.3 8 45 7.2 45 7.2 C 43.9 6.6 43.3 6.1 43.3 4.9 C 43.3 4.9 43.3 3.5 43.3 3.5 C 43.3 1.8 44.5 1.2 46 1.2 C 46 1.2 46.1 1.2 46.1 1.2 C 47.6 1.2 48.8 1.8 48.8 3.5 C 48.82 3.46 48.8 5.3 48.8 5.3 L 47 5.3 Z M 54.9 2.9 L 53.1 2.9 L 53.1 12.5 L 51.2 12.5 L 51.2 2.9 L 49.3 2.9 L 49.3 1.3 L 54.9 1.3 L 54.9 2.9 Z " stroke="none" fill="#282828"/>
  </g>
</svg>