<?xml version="1.0" standalone="no"?>
<!DOCTYPE svg PUBLIC "-//W3C//DTD SVG 1.1//EN" "http://www.w3.org/Graphics/SVG/1.1/DTD/svg11.dtd">
<svg xmlns="http://www.w3.org/2000/svg" version="1.1" width="60.3px" height="27.5px" viewBox="0 -6 60.3 27.5" style="top:-6px">
  <desc>Agent 1</desc>
  <defs/>
  <g id="Polygon267819">
    <path d="M 6.2 3.5 C 6.2 3.5 6.2 10.2 6.2 10.2 C 6.2 11.9 5.2 12.6 3.6 12.6 C 3.6 12.6 3.4 12.6 3.4 12.6 C 1.7 12.6 0.7 11.9 0.7 10.2 C 0.7 10.2 0.7 3.5 0.7 3.5 C 0.7 1.8 1.7 1.2 3.4 1.2 C 3.4 1.2 3.6 1.2 3.6 1.2 C 5.2 1.2 6.2 1.8 6.2 3.5 Z M 3.5 2.8 C 2.9 2.8 2.5 3 2.5 3.8 C 2.5 3.8 2.5 10 2.5 10 C 2.5 10.8 2.9 11 3.5 11 C 4.1 11 4.4 10.8 4.4 10 C 4.4 10 4.4 3.8 4.4 3.8 C 4.4 3 4.1 2.8 3.5 2.8 Z M 9.3 12.5 L 7.5 12.5 L 7.5 10.4 L 9.3 10.4 L 9.3 12.5 Z M 16 3.5 C 16 3.5 16 10.2 16 10.2 C 16 11.9 15 12.6 13.3 12.6 C 13.3 12.6 13.2 12.6 13.2 12.6 C 11.5 12.6 10.5 11.9 10.5 10.2 C 10.5 10.2 10.5 3.5 10.5 3.5 C 10.5 1.8 11.5 1.2 13.2 1.2 C 13.2 1.2 13.3 1.2 13.3 1.2 C 15 1.2 16 1.8 16 3.5 Z M 13.2 2.8 C 12.7 2.8 12.3 3 12.3 3.8 C 12.3 3.8 12.3 10 12.3 10 C 12.3 10.8 12.7 11 13.2 11 C 13.8 11 14.2 10.8 14.2 10 C 14.2 10 14.2 3.8 14.2 3.8 C 14.2 3 13.8 2.8 13.2 2.8 Z M 22.8 3.5 C 22.8 3.5 22.8 10.2 22.8 10.2 C 22.8 11.9 21.8 12.6 20.1 12.6 C 20.1 12.6 20 12.6 20 12.6 C 18.3 12.6 17.3 11.9 17.3 10.2 C 17.3 10.2 17.3 3.5 17.3 3.5 C 17.3 1.8 18.3 1.2 20 1.2 C 20 1.2 20.1 1.2 20.1 1.2 C 21.8 1.2 22.8 1.8 22.8 3.5 Z M 20.1 2.8 C 19.5 2.8 19.1 3 19.1 3.8 C 19.1 3.8 19.1 10 19.1 10 C 19.1 10.8 19.5 11 20.1 11 C 20.7 11 21 10.8 21 10 C 21 10 21 3.8 21 3.8 C 21 3 20.7 2.8 20.1 2.8 Z M 26.9 2.5 C 26.9 2.5 26.9 4.7 26.9 4.7 C 26.9 5.6 26.3 6 25.5 6 C 25.5 6 25.3 6 25.3 6 C 24.5 6 23.9 5.6 23.9 4.7 C 23.9 4.7 23.9 2.5 23.9 2.5 C 23.9 1.6 24.5 1.2 25.3 1.2 C 25.3 1.2 25.5 1.2 25.5 1.2 C 26.3 1.2 26.9 1.6 26.9 2.5 Z M 25.4 12.5 L 24.4 12.5 L 29.6 1.3 L 30.6 1.3 L 25.4 12.5 Z M 25.5 2.2 C 25.5 2.2 25.3 2.2 25.3 2.2 C 25.1 2.2 24.9 2.3 24.9 2.7 C 24.9 2.7 24.9 4.5 24.9 4.5 C 24.9 4.9 25.1 5 25.3 5 C 25.3 5 25.5 5 25.5 5 C 25.7 5 25.9 4.9 25.9 4.5 C 25.9 4.5 25.9 2.7 25.9 2.7 C 25.9 2.3 25.7 2.2 25.5 2.2 Z M 31.1 9.1 C 31.1 9.1 31.1 11.2 31.1 11.2 C 31.1 12.2 30.4 12.5 29.7 12.5 C 29.7 12.5 29.5 12.5 29.5 12.5 C 28.7 12.5 28.1 12.2 28.1 11.2 C 28.1 11.2 28.1 9.1 28.1 9.1 C 28.1 8.2 28.7 7.8 29.5 7.8 C 29.5 7.8 29.7 7.8 29.7 7.8 C 30.4 7.8 31.1 8.2 31.1 9.1 Z M 29.6 8.8 C 29.6 8.8 29.5 8.8 29.5 8.8 C 29.3 8.8 29.1 8.9 29.1 9.3 C 29.1 9.3 29.1 11 29.1 11 C 29.1 11.4 29.3 11.6 29.5 11.6 C 29.5 11.6 29.6 11.6 29.6 11.6 C 29.9 11.6 30.1 11.4 30.1 11 C 30.1 11 30.1 9.3 30.1 9.3 C 30.1 8.9 29.9 8.8 29.6 8.8 Z " stroke="none" fill="#282828"/>
  </g>
</svg>