<?xml version="1.0" standalone="no"?><!DOCTYPE svg PUBLIC "-//W3C//DTD SVG 1.1//EN" "http://www.w3.org/Graphics/SVG/1.1/DTD/svg11.dtd"><svg xmlns="http://www.w3.org/2000/svg" version="1.1" width="122px" height="49.5px" viewBox="0 -6 122 49.5" style="top:-6px"><desc>Agent 1</desc><defs/><g id="Polygon115953"><path d="m5.2 22.7c.9.1 1.3.9 1.3 1.7v1.9c0 1.4-1.1 2.2-2.8 2.2c0-.02-2.9 0-2.9 0V17.3s2.93-.02 2.9 0c1.7 0 2.7.8 2.7 2.2v1.4c0 .8-.3 1.6-1.2 1.8zm-2.5-.8h1c.5 0 .9-.3.9-.9v-1.3c0-.5-.4-.8-.9-.8c0-.02-1 0-1 0v3zm1.1 1.6c-.04-.03-1.1 0-1.1 0v3.4s1.06-.02 1.1 0c.5 0 .8-.3.8-.9v-1.7c0-.6-.3-.8-.8-.8zm8.1 5L10.5 24h-.9v4.5H7.7V17.3s2.89-.02 2.9 0c1.7 0 2.8.7 2.8 2.3v2c0 1.1-.4 1.8-1.2 2.1c-.01.03 1.6 4.8 1.6 4.8h-1.9zm-2.3-6.1s.93.02.9 0c.6 0 1.1-.2 1.1-1v-1.5c0-.8-.5-1-1.1-1c.03.01-.9 0-.9 0v3.5zm7.8-5.2h.1c1.7 0 2.9.6 2.9 2.3v6.7c0 1.7-1.2 2.4-2.9 2.4h-.1c-1.7 0-2.8-.7-2.8-2.4v-6.7c0-1.7 1.1-2.3 2.8-2.3zm.1 9.8c.6 0 1-.2 1-1v-6.2c0-.8-.4-1-1-1c-.6 0-1.1.2-1.1 1v6.2c0 .8.5 1 1.1 1zm9.8-.8c0 1.8-1.1 2.4-2.8 2.4c-1.7 0-2.8-.6-2.8-2.4v-6.7c0-1.6 1.1-2.3 2.8-2.3c1.7 0 2.8.7 2.8 2.3c.03.02 0 2.1 0 2.1h-1.8s-.03-1.79 0-1.8c0-.8-.4-1-1-1c-.6 0-1 .2-1 1v6.2c0 .7.4 1 1 1c.6 0 1-.3 1-1c-.03-.05 0-2.1 0-2.1h1.8s.03 2.34 0 2.3zm5.6 2.3l-1.6-4.9l-.8 1.6v3.3h-1.9V17.3h1.9v5l2.1-5h2l-2.2 4.2l2.4 7h-1.9zm6.9-1.7h-1l-1.7-5.2v6.9h-1.7V17.3h1.7l2.2 6.5l2.2-6.5h1.8v11.2h-1.8v-6.9l-1.7 5.2zm8.5-.8h-2.1l-.4 2.5H44l2.1-11.2h2.4l2.1 11.2h-1.9l-.4-2.5zm-.3-1.6l-.7-4.9l-.8 4.9h1.5zm3.3 4.1V17.3h1.9l2.4 6.9v-6.9h1.6v11.2h-1.7L53 21.2v7.3h-1.7z" stroke="none" fill="#282828"/></g><g id="Polygon115952"><path d="m5.2 6.7c.9.1 1.3.9 1.3 1.7v1.9c0 1.4-1.1 2.2-2.8 2.2c0-.02-2.9 0-2.9 0V1.3s2.93-.02 2.9 0c1.7 0 2.7.8 2.7 2.2v1.4c0 .8-.3 1.6-1.2 1.8zm-2.5-.8h1c.5 0 .9-.3.9-.9V3.7c0-.5-.4-.8-.9-.8c0-.02-1 0-1 0v3zm1.1 1.6c-.04-.03-1.1 0-1.1 0v3.4s1.06-.02 1.1 0c.5 0 .8-.3.8-.9V8.3c0-.6-.3-.8-.8-.8zm8.1 5L10.5 8h-.9v4.5H7.7V1.3s2.89-.02 2.9 0c1.7 0 2.8.7 2.8 2.3v2c0 1.1-.4 1.8-1.2 2.1c-.01.03 1.6 4.8 1.6 4.8h-1.9zM9.6 6.4s.93.02.9 0c.6 0 1.1-.2 1.1-1V3.9c0-.8-.5-1-1.1-1c.03.01-.9 0-.9 0v3.5zm5.2 6.1V1.3h1.9v11.2h-1.9zm6.9-2.5h-2l-.4 2.5h-1.8l2.1-11.2h2.3L24 12.5h-1.9l-.4-2.5zm-.2-1.6l-.8-4.9l-.8 4.9h1.6zm3.3 4.1V1.3h1.9L29 8.2V1.3h1.7v11.2h-1.8l-2.4-7.3v7.3h-1.7z" stroke="none" fill="#282828"/></g></svg>