<?xml version="1.0" standalone="no"?>
<!DOCTYPE svg PUBLIC "-//W3C//DTD SVG 1.1//EN" "http://www.w3.org/Graphics/SVG/1.1/DTD/svg11.dtd">
<svg xmlns="http://www.w3.org/2000/svg" version="1.1" width="158px" height="27.9px" viewBox="0 -6 158 27.9" style="top:-6px">
  <desc>Real Estate Taxes</desc>
  <defs/>
  <g id="Polygon275978">
    <path d="M 4.7 8.5 L 2.8 8.5 L 2.8 12.5 L 1.2 12.5 L 1.2 2 C 1.2 2 5.64 1.95 5.6 2 C 7.7 2 9 3.3 9 5.2 C 9 7.1 7.8 8.1 6.4 8.3 C 6.4 8.31 9.1 12.5 9.1 12.5 L 7.3 12.5 L 4.7 8.5 Z M 5.4 3.4 C 5.43 3.35 2.8 3.4 2.8 3.4 L 2.8 7.1 C 2.8 7.1 5.43 7.07 5.4 7.1 C 6.6 7.1 7.4 6.3 7.4 5.2 C 7.4 4.1 6.6 3.4 5.4 3.4 Z M 13.8 4.7 C 16.2 4.7 17.6 6.5 17.6 8.8 C 17.58 8.83 17.6 9.2 17.6 9.2 C 17.6 9.2 11.51 9.18 11.5 9.2 C 11.6 10.5 12.6 11.6 14.1 11.6 C 14.9 11.6 15.8 11.2 16.4 10.7 C 16.4 10.7 17.1 11.6 17.1 11.6 C 16.3 12.3 15.2 12.7 14 12.7 C 11.7 12.7 10 11.1 10 8.7 C 10 6.5 11.6 4.7 13.8 4.7 Z M 11.5 8.1 C 11.5 8.1 16.2 8.1 16.2 8.1 C 16.2 7.1 15.5 5.9 13.8 5.9 C 12.3 5.9 11.6 7.1 11.5 8.1 Z M 24.1 11.7 C 23.5 12.4 22.6 12.7 21.6 12.7 C 20.3 12.7 18.9 11.9 18.9 10.2 C 18.9 8.4 20.3 7.7 21.6 7.7 C 22.6 7.7 23.5 8 24.1 8.7 C 24.1 8.7 24.1 7.4 24.1 7.4 C 24.1 6.5 23.3 5.9 22.2 5.9 C 21.4 5.9 20.6 6.2 19.9 6.9 C 19.9 6.9 19.3 5.9 19.3 5.9 C 20.2 5.1 21.2 4.7 22.5 4.7 C 24.1 4.7 25.5 5.4 25.5 7.4 C 25.54 7.37 25.5 12.5 25.5 12.5 L 24.1 12.5 C 24.1 12.5 24.11 11.71 24.1 11.7 Z M 24.1 9.6 C 23.7 9 22.9 8.7 22.1 8.7 C 21.1 8.7 20.4 9.3 20.4 10.2 C 20.4 11.1 21.1 11.7 22.1 11.7 C 22.9 11.7 23.7 11.4 24.1 10.9 C 24.1 10.9 24.1 9.6 24.1 9.6 Z M 27.8 2 L 29.3 2 L 29.3 12.5 L 27.8 12.5 L 27.8 2 Z M 35.7 2 L 42.8 2 L 42.8 3.4 L 37.2 3.4 L 37.2 6.4 L 42.7 6.4 L 42.7 7.8 L 37.2 7.8 L 37.2 11.2 L 42.8 11.2 L 42.8 12.5 L 35.7 12.5 L 35.7 2 Z M 44.7 10.5 C 45.3 11.1 46.3 11.6 47.3 11.6 C 48.4 11.6 49 11.2 49 10.5 C 49 9.7 48.1 9.5 47.1 9.3 C 45.8 9 44.3 8.6 44.3 7 C 44.3 5.7 45.3 4.7 47.2 4.7 C 48.5 4.7 49.5 5.2 50.1 5.8 C 50.1 5.8 49.5 6.8 49.5 6.8 C 49 6.2 48.2 5.8 47.2 5.8 C 46.2 5.8 45.6 6.2 45.6 6.8 C 45.6 7.5 46.5 7.7 47.4 8 C 48.8 8.3 50.3 8.6 50.3 10.4 C 50.3 11.7 49.3 12.7 47.2 12.7 C 46 12.7 44.8 12.3 44.1 11.5 C 44.1 11.5 44.7 10.5 44.7 10.5 Z M 52.4 10.8 C 52.44 10.85 52.4 6.1 52.4 6.1 L 51.2 6.1 L 51.2 4.9 L 52.4 4.9 L 52.4 2.8 L 53.9 2.8 L 53.9 4.9 L 55.4 4.9 L 55.4 6.1 L 53.9 6.1 C 53.9 6.1 53.87 10.53 53.9 10.5 C 53.9 11.1 54.1 11.5 54.6 11.5 C 55 11.5 55.3 11.3 55.4 11.2 C 55.4 11.2 55.8 12.2 55.8 12.2 C 55.5 12.5 55 12.7 54.3 12.7 C 53.1 12.7 52.4 12.1 52.4 10.8 Z M 61.8 11.7 C 61.1 12.4 60.3 12.7 59.2 12.7 C 58 12.7 56.6 11.9 56.6 10.2 C 56.6 8.4 58 7.7 59.2 7.7 C 60.3 7.7 61.2 8 61.8 8.7 C 61.8 8.7 61.8 7.4 61.8 7.4 C 61.8 6.5 61 5.9 59.9 5.9 C 59 5.9 58.3 6.2 57.6 6.9 C 57.6 6.9 57 5.9 57 5.9 C 57.8 5.1 58.9 4.7 60.1 4.7 C 61.8 4.7 63.2 5.4 63.2 7.4 C 63.18 7.37 63.2 12.5 63.2 12.5 L 61.8 12.5 C 61.8 12.5 61.75 11.71 61.8 11.7 Z M 61.8 9.6 C 61.3 9 60.6 8.7 59.8 8.7 C 58.7 8.7 58 9.3 58 10.2 C 58 11.1 58.7 11.7 59.8 11.7 C 60.6 11.7 61.3 11.4 61.8 10.9 C 61.8 10.9 61.8 9.6 61.8 9.6 Z M 65.8 10.8 C 65.75 10.85 65.8 6.1 65.8 6.1 L 64.5 6.1 L 64.5 4.9 L 65.8 4.9 L 65.8 2.8 L 67.2 2.8 L 67.2 4.9 L 68.7 4.9 L 68.7 6.1 L 67.2 6.1 C 67.2 6.1 67.18 10.53 67.2 10.5 C 67.2 11.1 67.4 11.5 67.9 11.5 C 68.3 11.5 68.6 11.3 68.7 11.2 C 68.7 11.2 69.1 12.2 69.1 12.2 C 68.8 12.5 68.3 12.7 67.6 12.7 C 66.4 12.7 65.8 12.1 65.8 10.8 Z M 73.7 4.7 C 76 4.7 77.4 6.5 77.4 8.8 C 77.42 8.83 77.4 9.2 77.4 9.2 C 77.4 9.2 71.36 9.18 71.4 9.2 C 71.5 10.5 72.4 11.6 74 11.6 C 74.8 11.6 75.7 11.2 76.2 10.7 C 76.2 10.7 76.9 11.6 76.9 11.6 C 76.1 12.3 75.1 12.7 73.8 12.7 C 71.5 12.7 69.9 11.1 69.9 8.7 C 69.9 6.5 71.5 4.7 73.7 4.7 Z M 71.3 8.1 C 71.3 8.1 76 8.1 76 8.1 C 76 7.1 75.3 5.9 73.7 5.9 C 72.2 5.9 71.4 7.1 71.3 8.1 Z M 85.9 3.4 L 82.7 3.4 L 82.7 2 L 90.8 2 L 90.8 3.4 L 87.5 3.4 L 87.5 12.5 L 85.9 12.5 L 85.9 3.4 Z M 95.7 11.7 C 95.1 12.4 94.2 12.7 93.2 12.7 C 91.9 12.7 90.5 11.9 90.5 10.2 C 90.5 8.4 91.9 7.7 93.2 7.7 C 94.2 7.7 95.1 8 95.7 8.7 C 95.7 8.7 95.7 7.4 95.7 7.4 C 95.7 6.5 94.9 5.9 93.8 5.9 C 93 5.9 92.2 6.2 91.5 6.9 C 91.5 6.9 90.9 5.9 90.9 5.9 C 91.8 5.1 92.8 4.7 94.1 4.7 C 95.7 4.7 97.2 5.4 97.2 7.4 C 97.15 7.37 97.2 12.5 97.2 12.5 L 95.7 12.5 C 95.7 12.5 95.72 11.71 95.7 11.7 Z M 95.7 9.6 C 95.3 9 94.5 8.7 93.8 8.7 C 92.7 8.7 92 9.3 92 10.2 C 92 11.1 92.7 11.7 93.8 11.7 C 94.5 11.7 95.3 11.4 95.7 10.9 C 95.7 10.9 95.7 9.6 95.7 9.6 Z M 102.2 9.6 L 100 12.5 L 98.4 12.5 L 101.3 8.6 L 98.6 4.9 L 100.2 4.9 L 102.2 7.6 L 104.2 4.9 L 105.8 4.9 L 103.1 8.6 L 106 12.5 L 104.3 12.5 L 102.2 9.6 Z M 110.2 4.7 C 112.5 4.7 113.9 6.5 113.9 8.8 C 113.89 8.83 113.9 9.2 113.9 9.2 C 113.9 9.2 107.82 9.18 107.8 9.2 C 107.9 10.5 108.9 11.6 110.4 11.6 C 111.2 11.6 112.1 11.2 112.7 10.7 C 112.7 10.7 113.4 11.6 113.4 11.6 C 112.6 12.3 111.5 12.7 110.3 12.7 C 108 12.7 106.3 11.1 106.3 8.7 C 106.3 6.5 107.9 4.7 110.2 4.7 Z M 107.8 8.1 C 107.8 8.1 112.5 8.1 112.5 8.1 C 112.5 7.1 111.8 5.9 110.2 5.9 C 108.6 5.9 107.9 7.1 107.8 8.1 Z M 115.7 10.5 C 116.2 11.1 117.2 11.6 118.3 11.6 C 119.4 11.6 119.9 11.2 119.9 10.5 C 119.9 9.7 119.1 9.5 118.1 9.3 C 116.8 9 115.2 8.6 115.2 7 C 115.2 5.7 116.3 4.7 118.2 4.7 C 119.5 4.7 120.4 5.2 121.1 5.8 C 121.1 5.8 120.5 6.8 120.5 6.8 C 120 6.2 119.1 5.8 118.2 5.8 C 117.2 5.8 116.6 6.2 116.6 6.8 C 116.6 7.5 117.4 7.7 118.4 8 C 119.7 8.3 121.3 8.6 121.3 10.4 C 121.3 11.7 120.2 12.7 118.2 12.7 C 116.9 12.7 115.8 12.3 115 11.5 C 115 11.5 115.7 10.5 115.7 10.5 Z " stroke="none" fill="#000"/>
  </g>
</svg>