<?xml version="1.0" standalone="no"?><!DOCTYPE svg PUBLIC "-//W3C//DTD SVG 1.1//EN" "http://www.w3.org/Graphics/SVG/1.1/DTD/svg11.dtd"><svg xmlns="http://www.w3.org/2000/svg" version="1.1" width="1689.2px" height="236.5px" viewBox="0 -2 1689.2 236.5" style="top:-2px"><desc>7 10 2019 - 7 09 2024,Base Term, 289,800 00, 24,150 00,-,5 50%,7 10 2024 - 7 09 2029,Base Term, 304,290 00, 25,357 50</desc><defs/><g class="svg-tables"><g class="svg-table-background"/></g><g id="Polygon98930"><path d="m1610.1 203h-5.8v-.8h6.9v.6l-4.5 9.9h-1l4.4-9.7zm1.8 8.5c.4 0 .7.3.7.7c0 .4-.3.7-.7.7c-.4 0-.7-.3-.7-.7c0-.4.3-.7.7-.7zm2.8-.9c.6.9 1.7 1.5 3 1.5c1.7 0 2.7-.8 2.7-2.2c0-1.6-1.3-2.2-2.9-2.2h-.9v-.8h.9c1.4 0 2.7-.6 2.7-2c0-1.4-1.1-2.1-2.5-2.1c-1.2 0-2.1.5-2.9 1.4l-.5-.6c.7-.9 1.9-1.6 3.4-1.6c1.9 0 3.4 1 3.4 2.8c0 1.6-1.3 2.3-2.2 2.5c.9.1 2.4.9 2.4 2.6c0 1.7-1.3 3-3.6 3c-1.7 0-3-.8-3.6-1.7l.6-.6zm13.9-7.6h-5.8v-.8h6.9v.6l-4.5 9.9h-1l4.4-9.7zm4.6-1c1.5 0 2.5 1.1 2.5 2.6c0 1.5-1 2.6-2.5 2.6c-1.4 0-2.4-1.1-2.4-2.6c0-1.5 1-2.6 2.4-2.6zm5.8.2h.8l-6.8 10.5h-.7l6.7-10.5zm-5.8.4c-1 0-1.7.9-1.7 2c0 1.1.7 2 1.7 2c1.1 0 1.8-.9 1.8-2c0-1.1-.7-2-1.8-2zm5.4 5.1c1.5 0 2.5 1.2 2.5 2.6c0 1.5-1 2.6-2.5 2.6c-1.4 0-2.4-1.1-2.4-2.6c0-1.4 1-2.6 2.4-2.6zm0 .7c-1 0-1.7.8-1.7 1.9c0 1.1.7 2 1.7 2c1.1 0 1.8-.9 1.8-2c0-1.1-.7-1.9-1.8-1.9z" stroke="none" fill="#000"/></g><g id="Polygon98929"><path d="m1334.9 210.6c.7 1 1.6 1.5 3 1.5c1.5 0 2.6-1.1 2.6-2.5c0-1.7-1.1-2.6-2.6-2.6c-1 0-1.8.3-2.6 1c.03-.01-.7-.3-.7-.3v-5.5h6.2v.8h-5.2s-.05 4.12 0 4.1c.5-.5 1.4-1 2.5-1c1.8 0 3.4 1.2 3.4 3.4c0 2.1-1.7 3.4-3.6 3.4c-1.8 0-2.9-.6-3.6-1.7l.6-.6zm10.3-8.6c1.5 0 2.5 1.1 2.5 2.6c0 1.5-1 2.6-2.5 2.6c-1.4 0-2.4-1.1-2.4-2.6c0-1.5 1-2.6 2.4-2.6zm5.8.2h.8l-6.8 10.5h-.7l6.7-10.5zm-5.8.4c-1 0-1.7.9-1.7 2c0 1.1.7 2 1.7 2c1.1 0 1.8-.9 1.8-2c0-1.1-.7-2-1.8-2zm5.4 5.1c1.5 0 2.5 1.2 2.5 2.6c0 1.5-1 2.6-2.5 2.6c-1.4 0-2.4-1.1-2.4-2.6c0-1.4 1-2.6 2.4-2.6zm0 .7c-1 0-1.7.8-1.7 1.9c0 1.1.7 2 1.7 2c1.1 0 1.8-.9 1.8-2c0-1.1-.7-1.9-1.8-1.9z" stroke="none" fill="#242423"/></g><g id="Polygon98928"><path d="m1030.7 212.9v1.4h-.7s-.02-1.37 0-1.4c-1.6 0-2.8-.7-3.6-1.6l.6-.7c.6.7 1.6 1.4 3 1.5v-4.5c-1.6-.4-3.3-.9-3.3-2.8c0-1.6 1.5-2.7 3.3-2.8c-.02-.01 0-1.5 0-1.5h.7v1.5c1.4.1 2.4.6 3.1 1.5l-.6.6c-.6-.7-1.5-1.2-2.5-1.3v4c1.7.5 3.3 1.1 3.3 3.1c0 1.3-.8 2.9-3.3 3zm-.7-6.3v-3.8c-1.3.1-2.3.9-2.3 2c0 1.1 1 1.5 2.3 1.8zm3.1 3.4c0-1.3-1.1-1.8-2.4-2.2v4.3c1.9-.1 2.4-1.3 2.4-2.1zm2.8.6c.6.9 1.6 1.5 3 1.5c1.6 0 2.6-.8 2.6-2.2c0-1.6-1.2-2.2-2.8-2.2h-1v-.8h1c1.4 0 2.7-.6 2.7-2c0-1.4-1.2-2.1-2.6-2.1c-1.2 0-2 .5-2.8 1.4l-.6-.6c.7-.9 1.9-1.6 3.5-1.6c1.8 0 3.4 1 3.4 2.8c0 1.6-1.4 2.3-2.3 2.5c.9.1 2.4.9 2.4 2.6c0 1.7-1.3 3-3.5 3c-1.8 0-3-.8-3.6-1.7l.6-.6zm8.2 1.4c3.6-2.9 6-5 6-7c0-1.5-1.2-2.2-2.4-2.2c-1.3 0-2.3.6-2.9 1.4l-.6-.6c.8-1 2-1.6 3.5-1.6c1.6 0 3.4.9 3.4 3c0 2.3-2.5 4.4-5.6 6.9c.04.02 5.6 0 5.6 0v.8h-7s.03-.7 0-.7zm9.1 2.3c.6-.3.9-1 1-1.5l-.2.1c-.4 0-.6-.3-.6-.7c0-.4.3-.7.6-.7c.5 0 .8.4.8 1c0 .9-.5 1.8-1.1 2.2l-.5-.4zm3.6-3.7c.6.9 1.6 1.5 2.9 1.5c1.7 0 2.7-.8 2.7-2.2c0-1.6-1.2-2.2-2.8-2.2h-1v-.8h1c1.4 0 2.6-.6 2.6-2c0-1.4-1.1-2.1-2.5-2.1c-1.2 0-2.1.5-2.8 1.4l-.6-.6c.7-.9 1.9-1.6 3.5-1.6c1.8 0 3.4 1 3.4 2.8c0 1.6-1.4 2.3-2.3 2.5c.9.1 2.4.9 2.4 2.6c0 1.7-1.3 3-3.5 3c-1.8 0-3-.8-3.7-1.7l.7-.6zm12.3-8.6c1.4 0 2.2.5 2.9 1.3l-.6.7c-.5-.7-1.1-1.2-2.3-1.2c-2.3 0-3.1 2.4-3.1 4.7v.5c.4-.8 1.6-1.8 3.1-1.8c1.9 0 3.4 1.1 3.4 3.4c0 1.7-1.3 3.3-3.6 3.3c-2.8 0-3.9-2.6-3.9-5.4c0-2.8 1.2-5.5 4.1-5.5zm-.2 5c-1.1 0-2.3.8-2.9 1.8c.2 1.5.9 3.3 2.9 3.3c1.8 0 2.7-1.4 2.7-2.5c0-1.8-1.2-2.6-2.7-2.6zm5.5 3.6c.6.9 1.6 1.5 2.9 1.5c1.7 0 2.7-.8 2.7-2.2c0-1.6-1.3-2.2-2.8-2.2h-1v-.8h1c1.4 0 2.6-.6 2.6-2c0-1.4-1.1-2.1-2.5-2.1c-1.2 0-2.1.5-2.8 1.4l-.6-.6c.7-.9 1.9-1.6 3.5-1.6c1.8 0 3.4 1 3.4 2.8c0 1.6-1.4 2.3-2.3 2.5c.9.1 2.4.9 2.4 2.6c0 1.7-1.3 3-3.5 3c-1.8 0-3-.8-3.7-1.7l.7-.6zm9 .9c.4 0 .8.3.8.7c0 .4-.4.7-.8.7c-.3 0-.6-.3-.6-.7c0-.4.3-.7.6-.7zm2.8-.9c.6.9 1.6 1.5 2.9 1.5c1.7 0 2.7-.8 2.7-2.2c0-1.6-1.3-2.2-2.8-2.2h-1v-.8h1c1.4 0 2.6-.6 2.6-2c0-1.4-1.1-2.1-2.5-2.1c-1.2 0-2.1.5-2.8 1.4l-.6-.6c.7-.9 1.9-1.6 3.5-1.6c1.8 0 3.4 1 3.4 2.8c0 1.6-1.4 2.3-2.3 2.5c.9.1 2.4.9 2.4 2.6c0 1.7-1.3 3-3.5 3c-1.8 0-3-.8-3.7-1.7l.7-.6zm10-7.2l-1.7 1.8l-.6-.6l2.4-2.4h.8v10.5h-.9v-9.3z" stroke="none" fill="#242423"/></g><g id="Polygon98927"><path d="m728 212.9c-.03.02 0 1.4 0 1.4h-.8s.04-1.37 0-1.4c-1.6 0-2.8-.7-3.5-1.6l.6-.7c.6.7 1.6 1.4 2.9 1.5v-4.5c-1.6-.4-3.2-.9-3.2-2.8c0-1.6 1.4-2.7 3.2-2.8c.04-.01 0-1.5 0-1.5h.8s-.03 1.51 0 1.5c1.3.1 2.3.6 3.1 1.5l-.6.6c-.7-.7-1.5-1.2-2.5-1.3v4c1.6.5 3.3 1.1 3.3 3.1c0 1.3-.8 2.9-3.3 3zm-.8-6.3v-3.8c-1.3.1-2.3.9-2.3 2c0 1.1 1.1 1.5 2.3 1.8zm3.1 3.4c0-1.3-1.1-1.8-2.3-2.2v4.3c1.8-.1 2.3-1.3 2.3-2.1zm2.8.6c.6.9 1.7 1.5 3 1.5c1.7 0 2.7-.8 2.7-2.2c0-1.6-1.3-2.2-2.9-2.2h-.9v-.8h.9c1.4 0 2.7-.6 2.7-2c0-1.4-1.2-2.1-2.5-2.1c-1.2 0-2.1.5-2.9 1.4l-.5-.6c.7-.9 1.9-1.6 3.4-1.6c1.9 0 3.4 1 3.4 2.8c0 1.6-1.3 2.3-2.2 2.5c.9.1 2.4.9 2.4 2.6c0 1.7-1.3 3-3.6 3c-1.7 0-3-.8-3.6-1.7l.6-.6zm11-3.3c-1.3-.3-2.5-1.2-2.5-2.6c0-1.9 1.8-2.7 3.4-2.7c1.7 0 3.5.8 3.5 2.7c0 1.4-1.3 2.3-2.5 2.6c1.4.4 2.6 1.3 2.6 2.8c0 1.7-1.5 2.8-3.6 2.8c-2 0-3.6-1.1-3.6-2.8c0-1.5 1.3-2.4 2.7-2.8zm.9-4.5c-1.4 0-2.5.8-2.5 2c0 1.5 1.9 2 2.5 2.1c.7-.1 2.6-.6 2.6-2.1c0-1.2-1.2-2-2.6-2zm0 4.9c-.6.1-2.6.7-2.6 2.3c0 1.3 1.2 2.1 2.6 2.1c1.4 0 2.7-.8 2.7-2.1c0-1.6-2-2.2-2.7-2.3zm8-.4c-1.3-.3-2.5-1.2-2.5-2.6c0-1.9 1.8-2.7 3.4-2.7c1.7 0 3.5.8 3.5 2.7c0 1.4-1.2 2.3-2.5 2.6c1.4.4 2.6 1.3 2.6 2.8c0 1.7-1.5 2.8-3.6 2.8c-2 0-3.6-1.1-3.6-2.8c0-1.5 1.3-2.4 2.7-2.8zm.9-4.5c-1.3 0-2.5.8-2.5 2c0 1.5 1.9 2 2.5 2.1c.7-.1 2.6-.6 2.6-2.1c0-1.2-1.2-2-2.6-2zm0 4.9c-.6.1-2.6.7-2.6 2.3c0 1.3 1.2 2.1 2.6 2.1c1.4 0 2.7-.8 2.7-2.1c0-1.6-2-2.2-2.7-2.3zm5.3 6.6c.5-.3.9-1 1-1.5l-.2.1c-.4 0-.6-.3-.6-.7c0-.4.3-.7.6-.7c.5 0 .8.4.8 1c0 .9-.5 1.8-1.1 2.2l-.5-.4zm3.6-3.7c.6.9 1.6 1.5 2.9 1.5c1.7 0 2.7-.8 2.7-2.2c0-1.6-1.3-2.2-2.8-2.2h-1v-.8h1c1.4 0 2.6-.6 2.6-2c0-1.4-1.1-2.1-2.5-2.1c-1.2 0-2.1.5-2.8 1.4l-.6-.6c.7-.9 1.9-1.6 3.5-1.6c1.8 0 3.4 1 3.4 2.8c0 1.6-1.4 2.3-2.3 2.5c.9.1 2.4.9 2.4 2.6c0 1.7-1.3 3-3.5 3c-1.8 0-3.1-.8-3.7-1.7l.7-.6zm9.1 0c.7 1 1.6 1.5 3 1.5c1.5 0 2.6-1.1 2.6-2.5c0-1.7-1.1-2.6-2.6-2.6c-1 0-1.8.3-2.6 1c.01-.01-.7-.3-.7-.3v-5.5h6.1v.8h-5.2s.03 4.12 0 4.1c.6-.5 1.5-1 2.6-1c1.7 0 3.3 1.2 3.3 3.4c0 2.1-1.6 3.4-3.5 3.4c-1.8 0-2.9-.6-3.6-1.7l.6-.6zm9.3.3c.5.7 1.1 1.2 2.3 1.2c2.3 0 3.1-2.4 3.1-4.7v-.5c-.4.8-1.6 1.8-3.1 1.8c-1.9 0-3.4-1.1-3.4-3.3c0-1.8 1.3-3.4 3.6-3.4c2.8 0 3.9 2.6 3.9 5.5c0 2.7-1.2 5.4-4.1 5.4c-1.4 0-2.2-.5-2.9-1.3l.6-.7zm2.5-8.1c-1.8 0-2.7 1.4-2.7 2.5c0 1.8 1.2 2.6 2.7 2.6c1.1 0 2.3-.7 2.9-1.8c-.2-1.5-.9-3.3-2.9-3.3zm5.8 8.7c.4 0 .7.3.7.7c0 .4-.3.7-.7.7c-.4 0-.7-.3-.7-.7c0-.4.3-.7.7-.7zm7-8.5h-5.9v-.8h6.9v.6l-4.5 9.9h-1l4.5-9.7zm2.3 9c3.6-2.9 6-5 6-7c0-1.5-1.3-2.2-2.4-2.2c-1.3 0-2.4.6-2.9 1.4l-.6-.6c.7-1 2-1.6 3.5-1.6c1.5 0 3.3.9 3.3 3c0 2.3-2.5 4.4-5.5 6.9c-.02.02 5.6 0 5.6 0v.8h-7s-.03-.7 0-.7z" stroke="none" fill="#242423"/></g><g id="Polygon98926"><path d="m429.9 209.9h-5.1v-.9l4.7-6.8h1.3v6.8h1.5v.9h-1.5v2.8h-.9v-2.8zm-4.1-.9h4.1v-5.9l-4.1 5.9zm8.4 2.3c-.03-.03 0-5.5 0-5.5h-1.3v-.7h1.3V203h.8v2.1h1.6v.7H435v5.3c0 .7.3 1.1.8 1.1c.4 0 .7-.2.9-.4l.3.7c-.3.2-.7.4-1.3.4c-1 0-1.5-.6-1.5-1.6zm9.2-3.8c0-1.5-.7-1.9-1.9-1.9c-.9 0-2 .7-2.5 1.3c.04.05 0 5.8 0 5.8h-.8v-10.5h.8s.04 4.03 0 4c.6-.6 1.7-1.3 2.8-1.3c1.6 0 2.4.7 2.4 2.4c.02.04 0 5.4 0 5.4h-.8v-5.2zm12-5.5c3.1 0 5.1 2.4 5.1 5.5c0 3.1-2 5.4-5.1 5.4c-3.1 0-5.2-2.3-5.2-5.4c0-3.1 2.1-5.5 5.2-5.5zm0 .8c-2.6 0-4.2 2-4.2 4.7c0 2.6 1.6 4.6 4.2 4.6c2.5 0 4.2-2 4.2-4.6c0-2.7-1.7-4.7-4.2-4.7zm7.2 12.9v-10.6h.8v1.2c.5-.8 1.5-1.4 2.7-1.4c2 0 3.4 1.5 3.4 4c0 2.4-1.4 4-3.4 4c-1.1 0-2.1-.5-2.7-1.4v4.2h-.8zm3.3-10.1c-1 0-2.1.7-2.5 1.4v3.8c.4.7 1.5 1.4 2.5 1.4c1.7 0 2.7-1.4 2.7-3.3c0-1.9-1-3.3-2.7-3.3zm5.7 5.7c.02-.03 0-5.5 0-5.5h-1.2v-.7h1.2V203h.9v2.1h1.5v.7h-1.5s-.04 5.34 0 5.3c0 .7.2 1.1.8 1.1c.3 0 .6-.2.8-.4l.3.7c-.3.2-.6.4-1.3.4c-1 0-1.5-.6-1.5-1.6zm3.8-8.2c0-.3.3-.6.7-.6c.3 0 .6.3.6.6c0 .4-.3.7-.6.7c-.4 0-.7-.3-.7-.7zm.3 2h.8v7.6h-.8v-7.6zm2.8 3.8c0-2.2 1.4-4 3.6-4c2.3 0 3.7 1.8 3.7 4c0 2.2-1.4 4-3.7 4c-2.2 0-3.6-1.8-3.6-4zm6.5 0c0-1.7-1-3.3-2.9-3.3c-1.7 0-2.7 1.6-2.7 3.3c0 1.7 1 3.3 2.7 3.3c1.9 0 2.9-1.6 2.9-3.3zm8-1.3c0-1.5-.7-2-1.9-2c-.9 0-2 .7-2.5 1.3c.04.05 0 5.8 0 5.8h-.8v-7.6h.8s.04 1.13 0 1.1c.6-.6 1.7-1.3 2.8-1.3c1.6 0 2.4.7 2.4 2.5c.02-.03 0 5.3 0 5.3h-.8v-5.1z" stroke="none" fill="#242423"/></g><g id="Polygon98925"><path d="m6.4 203H.5v-.8h6.9v.6l-4.5 9.9h-1l4.5-9.7zm5.2-1.2h.7l-3.8 11.3h-.7l3.8-11.3zm3.2 1.6l-1.7 1.8l-.6-.6l2.4-2.4h.8v10.5h-.9v-9.3zm6.9-1.4c2.8 0 3.9 2.9 3.9 5.5c0 2.5-1.1 5.4-3.9 5.4c-2.8 0-3.9-2.9-3.9-5.4c0-2.6 1.1-5.5 3.9-5.5zm0 .8c-2.2 0-3 2.5-3 4.7c0 2.1.8 4.6 3 4.6c2.2 0 3-2.5 3-4.6c0-2.2-.8-4.7-3-4.7zm8.4-1h.7l-3.7 11.3h-.7l3.7-11.3zm1.5 10.2c3.6-2.9 6-5 6-7c0-1.5-1.3-2.2-2.4-2.2c-1.3 0-2.4.6-2.9 1.4l-.6-.6c.7-1 2-1.6 3.5-1.6c1.5 0 3.3.9 3.3 3c0 2.3-2.4 4.4-5.5 6.9c-.01.02 5.6 0 5.6 0v.8h-7s-.03-.7 0-.7zm13-10c2.8 0 3.9 2.9 3.9 5.5c0 2.5-1.1 5.4-3.9 5.4c-2.8 0-3.9-2.9-3.9-5.4c0-2.6 1.1-5.5 3.9-5.5zm0 .8c-2.2 0-3 2.5-3 4.7c0 2.1.8 4.6 3 4.6c2.2 0 3-2.5 3-4.6c0-2.2-.8-4.7-3-4.7zm10.2 7.1h-5v-.9l4.7-6.8h1.2v6.8h1.6v.9h-1.6v2.8h-.9v-2.8zm-4-.9h4v-5.9l-4 5.9zm8.9 1.9c.5.7 1.1 1.2 2.3 1.2c2.3 0 3.1-2.4 3.1-4.7v-.5c-.4.8-1.7 1.8-3.1 1.8c-1.9 0-3.4-1.1-3.4-3.3c0-1.8 1.3-3.4 3.6-3.4c2.8 0 3.9 2.6 3.9 5.5c0 2.7-1.2 5.4-4.1 5.4c-1.4 0-2.2-.5-2.9-1.3l.6-.7zm2.5-8.1c-1.8 0-2.7 1.4-2.7 2.5c0 1.8 1.2 2.6 2.7 2.6c1.1 0 2.3-.7 2.9-1.8c-.2-1.5-.9-3.3-2.9-3.3zm9 5.7h3.9v.8h-3.9v-.8zm14.5-5.5h-5.8v-.8h6.9v.6l-4.5 9.9h-1l4.4-9.7zm5.2-1.2h.7l-3.7 11.3h-.8l3.8-11.3zm5.4.2c2.8 0 3.9 2.9 3.9 5.5c0 2.5-1.1 5.4-3.9 5.4c-2.9 0-3.9-2.9-3.9-5.4c0-2.6 1-5.5 3.9-5.5zm0 .8c-2.2 0-3 2.5-3 4.7c0 2.1.8 4.6 3 4.6c2.2 0 2.9-2.5 2.9-4.6c0-2.2-.7-4.7-2.9-4.7zm6.6 8.1c.6.7 1.2 1.2 2.4 1.2c2.3 0 3.1-2.4 3.1-4.7v-.5c-.5.8-1.7 1.8-3.1 1.8c-1.9 0-3.4-1.1-3.4-3.3c0-1.8 1.3-3.4 3.5-3.4c2.9 0 3.9 2.6 3.9 5.5c0 2.7-1.1 5.4-4 5.4c-1.4 0-2.3-.5-2.9-1.3l.5-.7zm2.6-8.1c-1.9 0-2.7 1.4-2.7 2.5c0 1.8 1.1 2.6 2.6 2.6c1.2 0 2.3-.7 2.9-1.8c-.1-1.5-.9-3.3-2.8-3.3zm8.3-1h.8l-3.8 11.3h-.7l3.7-11.3zm1.5 10.2c3.6-2.9 6-5 6-7c0-1.5-1.2-2.2-2.4-2.2c-1.3 0-2.3.6-2.9 1.4l-.6-.6c.7-1 2-1.6 3.5-1.6c1.6 0 3.3.9 3.3 3c0 2.3-2.4 4.4-5.5 6.9c0 .02 5.6 0 5.6 0v.8h-7v-.7zm13-10c2.9 0 3.9 2.9 3.9 5.5c0 2.5-1 5.4-3.9 5.4c-2.8 0-3.9-2.9-3.9-5.4c0-2.6 1.1-5.5 3.9-5.5zm0 .8c-2.2 0-2.9 2.5-2.9 4.7c0 2.1.7 4.6 2.9 4.6c2.2 0 3-2.5 3-4.6c0-2.2-.7-4.7-3-4.7zm6.5 7.8c.6 1 1.6 1.5 2.9 1.5c1.6 0 2.7-1.1 2.7-2.5c0-1.7-1.1-2.6-2.7-2.6c-.9 0-1.8.3-2.5 1l-.7-.3v-5.5h6.1v.8h-5.2v4.1c.5-.5 1.4-1 2.5-1c1.8 0 3.4 1.2 3.4 3.4c0 2.1-1.6 3.4-3.6 3.4c-1.7 0-2.8-.6-3.5-1.7l.6-.6zm12.8-.7h-5v-.9l4.7-6.8h1.2v6.8h1.6v.9h-1.6v2.8h-.9v-2.8zm-4-.9h4v-5.9l-4 5.9z" stroke="none" fill="#242423"/></g><g id="Polygon98924"><path d="m1610.1 171.2h-5.8v-.8h6.9v.6l-4.5 10h-1l4.4-9.8zm1.8 8.5c.4 0 .7.4.7.7c0 .4-.3.7-.7.7c-.4 0-.7-.3-.7-.7c0-.3.3-.7.7-.7zm6.6-9.5c2.8 0 3.9 3 3.9 5.5c0 2.5-1.1 5.5-3.9 5.5c-2.9 0-4-3-4-5.5c0-2.5 1.1-5.5 4-5.5zm0 .9c-2.3 0-3 2.4-3 4.6c0 2.2.7 4.6 3 4.6c2.2 0 2.9-2.4 2.9-4.6c0-2.2-.7-4.6-2.9-4.6zm5.7 9.1c3.6-2.9 6-4.9 6-7c0-1.5-1.3-2.1-2.4-2.1c-1.3 0-2.4.5-2.9 1.3l-.7-.5c.8-1.1 2.1-1.7 3.6-1.7c1.5 0 3.3.9 3.3 3c0 2.3-2.5 4.5-5.5 7c-.02-.05 5.6 0 5.6 0v.8h-7s-.04-.77 0-.8zm11.3-10c1.5 0 2.5 1.2 2.5 2.6c0 1.5-1 2.6-2.5 2.6c-1.4 0-2.4-1.1-2.4-2.6c0-1.4 1-2.6 2.4-2.6zm5.8.2h.7l-6.7 10.6h-.8l6.8-10.6zm-5.8.4c-1 0-1.7.9-1.7 2c0 1.1.7 2 1.7 2c1.1 0 1.8-.9 1.8-2c0-1.1-.7-2-1.8-2zm5.4 5.2c1.5 0 2.5 1.1 2.5 2.6c0 1.5-1 2.6-2.5 2.6c-1.4 0-2.5-1.1-2.5-2.6c0-1.5 1.1-2.6 2.5-2.6zm0 .6c-1 0-1.7.9-1.7 2c0 1.1.7 2 1.7 2c1.1 0 1.8-.9 1.8-2c0-1.1-.7-2-1.8-2z" stroke="none" fill="#000"/></g><g id="Polygon98923"><path d="m1334.9 178.8c.7 1 1.6 1.5 3 1.5c1.5 0 2.6-1.1 2.6-2.5c0-1.6-1.1-2.6-2.6-2.6c-1 0-1.8.3-2.6 1c.03.03-.7-.3-.7-.3v-5.5h6.2v.8h-5.2s-.05 4.16 0 4.2c.5-.6 1.4-1 2.5-1c1.8 0 3.4 1.1 3.4 3.4c0 2.1-1.7 3.4-3.6 3.4c-1.8 0-2.9-.7-3.6-1.8l.6-.6zm10.3-8.6c1.5 0 2.5 1.2 2.5 2.6c0 1.5-1 2.6-2.5 2.6c-1.4 0-2.4-1.1-2.4-2.6c0-1.4 1-2.6 2.4-2.6zm5.8.2h.8L1345 181h-.7l6.7-10.6zm-5.8.4c-1 0-1.7.9-1.7 2c0 1.1.7 2 1.7 2c1.1 0 1.8-.9 1.8-2c0-1.1-.7-2-1.8-2zm5.4 5.2c1.5 0 2.5 1.1 2.5 2.6c0 1.5-1 2.6-2.5 2.6c-1.4 0-2.4-1.1-2.4-2.6c0-1.5 1-2.6 2.4-2.6zm0 .6c-1 0-1.7.9-1.7 2c0 1.1.7 2 1.7 2c1.1 0 1.8-.9 1.8-2c0-1.1-.7-2-1.8-2z" stroke="none" fill="#242423"/></g><g id="Polygon98922"><path d="m1030.7 181.2v1.4h-.7s-.02-1.43 0-1.4c-1.6-.1-2.8-.8-3.6-1.7l.6-.7c.6.7 1.6 1.4 3 1.5v-4.4c-1.6-.5-3.3-1-3.3-2.9c0-1.6 1.5-2.7 3.3-2.8c-.02.03 0-1.4 0-1.4h.7v1.4c1.4.1 2.4.7 3.1 1.5l-.6.7c-.6-.8-1.5-1.2-2.5-1.3v4c1.7.4 3.3 1 3.3 3.1c0 1.3-.8 2.8-3.3 3zm-.7-6.3v-3.8c-1.3 0-2.3.8-2.3 1.9c0 1.1 1 1.5 2.3 1.9zm3.1 3.3c0-1.3-1.1-1.8-2.4-2.1v4.2c1.9-.1 2.4-1.2 2.4-2.1zm2.8.7c.6.8 1.6 1.4 3 1.4c1.6 0 2.6-.8 2.6-2.2c0-1.5-1.2-2.2-2.8-2.2c-.4 0-.8 0-1 .1v-.9h1c1.4 0 2.7-.6 2.7-2c0-1.3-1.2-2-2.6-2c-1.2 0-2 .4-2.8 1.3l-.6-.6c.7-.9 1.9-1.6 3.5-1.6c1.8 0 3.4 1 3.4 2.8c0 1.6-1.4 2.3-2.3 2.5c.9.1 2.4.9 2.4 2.6c0 1.8-1.3 3.1-3.5 3.1c-1.8 0-3-.8-3.6-1.8l.6-.5zm12.2-8.7c2.8 0 3.9 3 3.9 5.5c0 2.5-1.1 5.5-3.9 5.5c-2.9 0-3.9-3-3.9-5.5c0-2.5 1-5.5 3.9-5.5zm0 .9c-2.3 0-3 2.4-3 4.6c0 2.2.7 4.6 3 4.6c2.2 0 2.9-2.4 2.9-4.6c0-2.2-.7-4.6-2.9-4.6zm5 11.4c.5-.3.9-.9.9-1.4h-.2c-.3 0-.6-.3-.6-.7c0-.3.3-.7.7-.7c.4 0 .8.4.8 1.1c0 .8-.5 1.7-1.2 2.1l-.4-.4zm6-7c-1.3-.3-2.5-1.1-2.5-2.5c0-1.9 1.7-2.8 3.4-2.8c1.7 0 3.5.9 3.5 2.8c0 1.4-1.3 2.2-2.5 2.5c1.3.4 2.6 1.4 2.6 2.8c0 1.7-1.5 2.9-3.6 2.9c-2 0-3.6-1.1-3.6-2.9c0-1.4 1.3-2.4 2.7-2.8zm.9-4.4c-1.4 0-2.5.7-2.5 2c0 1.4 1.9 1.9 2.5 2c.7-.1 2.5-.6 2.5-2c0-1.3-1.1-2-2.5-2zm0 4.8c-.6.1-2.7.8-2.7 2.4c0 1.3 1.3 2 2.7 2c1.4 0 2.7-.7 2.7-2c0-1.6-2-2.3-2.7-2.4zm5.3 4.3c3.6-2.9 6-4.9 6-7c0-1.5-1.3-2.1-2.4-2.1c-1.3 0-2.3.5-2.9 1.3l-.6-.5c.7-1.1 2-1.7 3.5-1.7c1.5 0 3.3.9 3.3 3c0 2.3-2.4 4.5-5.5 7c-.01-.05 5.6 0 5.6 0v.8h-7s-.02-.77 0-.8zm9.1 0c3.6-2.9 6-4.9 6-7c0-1.5-1.3-2.1-2.4-2.1c-1.3 0-2.4.5-2.9 1.3l-.7-.5c.8-1.1 2.1-1.7 3.6-1.7c1.5 0 3.3.9 3.3 3c0 2.3-2.5 4.5-5.5 7c-.02-.05 5.6 0 5.6 0v.8h-7s-.03-.77 0-.8zm9.9-.5c.4 0 .7.4.7.7c0 .4-.3.7-.7.7c-.4 0-.7-.3-.7-.7c0-.3.3-.7.7-.7zm2.5.5c3.6-2.9 6-4.9 6-7c0-1.5-1.3-2.1-2.4-2.1c-1.3 0-2.4.5-2.9 1.3l-.7-.5c.8-1.1 2.1-1.7 3.6-1.7c1.5 0 3.3.9 3.3 3c0 2.3-2.5 4.5-5.5 7c-.02-.05 5.6 0 5.6 0v.8h-7s-.03-.77 0-.8zm13-10c2.8 0 3.9 3 3.9 5.5c0 2.5-1.1 5.5-3.9 5.5c-2.9 0-3.9-3-3.9-5.5c0-2.5 1-5.5 3.9-5.5zm0 .9c-2.2 0-3 2.4-3 4.6c0 2.2.8 4.6 3 4.6c2.2 0 2.9-2.4 2.9-4.6c0-2.2-.7-4.6-2.9-4.6z" stroke="none" fill="#242423"/></g><g id="Polygon98921"><path d="m728 181.2c-.03-.05 0 1.4 0 1.4h-.8s.04-1.43 0-1.4c-1.6-.1-2.8-.8-3.5-1.7l.6-.7c.6.7 1.6 1.4 2.9 1.5v-4.4c-1.6-.5-3.2-1-3.2-2.9c0-1.6 1.4-2.7 3.2-2.8c.04.03 0-1.4 0-1.4h.8s-.03 1.44 0 1.4c1.3.1 2.3.7 3.1 1.5l-.6.7c-.7-.8-1.5-1.2-2.5-1.3v4c1.6.4 3.3 1 3.3 3.1c0 1.3-.8 2.8-3.3 3zm-.8-6.3v-3.8c-1.3 0-2.3.8-2.3 1.9c0 1.1 1.1 1.5 2.3 1.9zm3.1 3.3c0-1.3-1.1-1.8-2.3-2.1v4.2c1.8-.1 2.3-1.2 2.3-2.1zm2.8.7c.6.8 1.7 1.4 3 1.4c1.7 0 2.7-.8 2.7-2.2c0-1.5-1.3-2.2-2.9-2.2c-.4 0-.8 0-.9.1v-.9h.9c1.4 0 2.7-.6 2.7-2c0-1.3-1.2-2-2.5-2c-1.2 0-2.1.4-2.9 1.3l-.5-.6c.7-.9 1.9-1.6 3.4-1.6c1.9 0 3.4 1 3.4 2.8c0 1.6-1.3 2.3-2.2 2.5c.9.1 2.4.9 2.4 2.6c0 1.8-1.3 3.1-3.6 3.1c-1.7 0-3-.8-3.6-1.8l.6-.5zm12.4-8.7c1.4 0 2.2.6 2.8 1.4l-.5.6c-.5-.7-1.2-1.1-2.3-1.1c-2.3 0-3.2 2.4-3.2 4.6c0 .2 0 .3.1.5c.4-.7 1.6-1.8 3.1-1.8c1.9 0 3.4 1.1 3.4 3.4c0 1.7-1.3 3.4-3.6 3.4c-2.8 0-3.9-2.7-3.9-5.5c0-2.7 1.1-5.5 4.1-5.5zm-.2 5c-1.2 0-2.3.8-2.9 1.9c.1 1.4.9 3.2 2.9 3.2c1.8 0 2.6-1.4 2.6-2.5c0-1.7-1.1-2.6-2.6-2.6zm6.3 4c.5.6 1.2 1.1 2.3 1.1c2.3 0 3.1-2.4 3.1-4.6v-.5c-.4.7-1.6 1.8-3.1 1.8c-1.9 0-3.4-1.1-3.4-3.4c0-1.7 1.3-3.4 3.6-3.4c2.8 0 3.9 2.6 3.9 5.5c0 2.7-1.2 5.5-4.1 5.5c-1.4 0-2.2-.6-2.8-1.4l.5-.6zm2.5-8.2c-1.8 0-2.7 1.4-2.7 2.6c0 1.7 1.2 2.5 2.7 2.5c1.2 0 2.3-.7 2.9-1.8c-.1-1.4-.9-3.3-2.9-3.3zm5 11.5c.5-.3.9-.9.9-1.4h-.2c-.3 0-.6-.3-.6-.7c0-.3.3-.7.7-.7c.4 0 .8.4.8 1.1c0 .8-.5 1.7-1.2 2.1l-.4-.4zm6-7c-1.3-.3-2.5-1.1-2.5-2.5c0-1.9 1.7-2.8 3.4-2.8c1.7 0 3.5.9 3.5 2.8c0 1.4-1.3 2.2-2.5 2.5c1.3.4 2.6 1.4 2.6 2.8c0 1.7-1.5 2.9-3.6 2.9c-2 0-3.6-1.1-3.6-2.9c0-1.4 1.3-2.4 2.7-2.8zm.9-4.4c-1.4 0-2.5.7-2.5 2c0 1.4 1.9 1.9 2.5 2c.7-.1 2.5-.6 2.5-2c0-1.3-1.1-2-2.5-2zm0 4.8c-.6.1-2.7.8-2.7 2.4c0 1.3 1.3 2 2.7 2c1.4 0 2.7-.7 2.7-2c0-1.6-2-2.3-2.7-2.4zm9.4-5.7c1.3 0 2.2.6 2.8 1.4l-.5.6c-.5-.7-1.2-1.1-2.3-1.1c-2.3 0-3.2 2.4-3.2 4.6v.5c.5-.7 1.7-1.8 3.1-1.8c2 0 3.5 1.1 3.5 3.4c0 1.7-1.3 3.4-3.6 3.4c-2.9 0-3.9-2.7-3.9-5.5c0-2.7 1.1-5.5 4.1-5.5zm-.2 5c-1.2 0-2.3.8-2.9 1.9c.1 1.4.9 3.2 2.9 3.2c1.8 0 2.6-1.4 2.6-2.5c0-1.7-1.1-2.6-2.6-2.6zm9.3-5c1.4 0 2.2.6 2.8 1.4l-.5.6c-.5-.7-1.2-1.1-2.3-1.1c-2.3 0-3.2 2.4-3.2 4.6c0 .2 0 .3.1.5c.4-.7 1.6-1.8 3.1-1.8c1.9 0 3.4 1.1 3.4 3.4c0 1.7-1.3 3.4-3.6 3.4c-2.8 0-3.9-2.7-3.9-5.5c0-2.7 1.2-5.5 4.1-5.5zm-.2 5c-1.2 0-2.3.8-2.9 1.9c.1 1.4.9 3.2 2.9 3.2c1.8 0 2.7-1.4 2.7-2.5c0-1.7-1.2-2.6-2.7-2.6zm6.1 4.5c.3 0 .7.4.7.7c0 .4-.4.7-.7.7c-.4 0-.7-.3-.7-.7c0-.3.3-.7.7-.7zm7.1-1.6h-5v-.8l4.7-6.9h1.2v6.9h1.6v.8h-1.6v2.9h-.9v-2.9zm-4.1-.8h4.1v-6l-4.1 6zm11.8-7.1c2.8 0 3.9 3 3.9 5.5c0 2.5-1.1 5.5-3.9 5.5c-2.8 0-3.9-3-3.9-5.5c0-2.5 1.1-5.5 3.9-5.5zm0 .9c-2.2 0-3 2.4-3 4.6c0 2.2.8 4.6 3 4.6c2.2 0 3-2.4 3-4.6c0-2.2-.8-4.6-3-4.6z" stroke="none" fill="#242423"/></g><g id="Polygon98920"><path d="m425.4 178.9c.6.8 1.6 1.4 3 1.4c1.6 0 2.7-.8 2.7-2.2c0-1.5-1.3-2.2-2.9-2.2c-.4 0-.8 0-1 .1v-.9h1c1.4 0 2.7-.6 2.7-2c0-1.3-1.2-2-2.5-2c-1.2 0-2.1.4-2.9 1.3l-.6-.6c.8-.9 1.9-1.6 3.5-1.6c1.8 0 3.4 1 3.4 2.8c0 1.6-1.3 2.3-2.3 2.5c1 .1 2.5.9 2.5 2.6c0 1.8-1.3 3.1-3.6 3.1c-1.7 0-3-.8-3.6-1.8l.6-.5zm8.7-5.6h.8s-.02 1.33 0 1.3c.6-.8 1.5-1.4 2.6-1.4v.9c-.2-.1-.3-.1-.4-.1c-.8 0-1.9.7-2.2 1.4c-.02-.01 0 5.6 0 5.6h-.8v-7.7zm10.5 6.5c-.6.8-1.5 1.4-2.7 1.4c-2 0-3.4-1.6-3.4-4c0-2.5 1.4-4.1 3.4-4.1c1.1 0 2.1.6 2.7 1.4v-4.1h.8V181h-.8v-1.2zm0-4.5c-.5-.8-1.5-1.4-2.5-1.4c-1.7 0-2.7 1.4-2.7 3.3c0 1.8 1 3.2 2.7 3.2c1 0 2-.6 2.5-1.3v-3.8zm12-5.1c3.1 0 5.1 2.4 5.1 5.5c0 3.1-2 5.5-5.1 5.5c-3.1 0-5.2-2.4-5.2-5.5c0-3.1 2.1-5.5 5.2-5.5zm0 .8c-2.6 0-4.2 2-4.2 4.7c0 2.7 1.6 4.6 4.2 4.6c2.5 0 4.2-1.9 4.2-4.6c0-2.7-1.7-4.7-4.2-4.7zm7.2 12.9v-10.6h.8v1.2c.5-.8 1.5-1.4 2.7-1.4c2 0 3.4 1.6 3.4 4c0 2.5-1.4 4.1-3.4 4.1c-1.1 0-2.1-.6-2.7-1.5v4.2h-.8zm3.3-10c-1 0-2.1.6-2.5 1.3v3.8c.4.8 1.5 1.4 2.5 1.4c1.7 0 2.7-1.4 2.7-3.3c0-1.8-1-3.2-2.7-3.2zm5.7 5.6c.03 0 0-5.4 0-5.4h-1.2v-.8h1.2v-2.1h.9v2.1h1.5v.8h-1.5s-.03 5.28 0 5.3c0 .6.2 1 .8 1c.3 0 .6-.2.8-.3l.3.6c-.3.3-.6.5-1.3.5c-1 0-1.5-.6-1.5-1.7zm3.9-8.1c0-.4.3-.7.6-.7c.3 0 .6.3.6.7c0 .3-.3.6-.6.6c-.3 0-.6-.3-.6-.6zm.2 1.9h.8v7.7h-.8v-7.7zm2.8 3.8c0-2.2 1.4-4 3.7-4c2.2 0 3.7 1.8 3.7 4c0 2.3-1.5 4.1-3.7 4.1c-2.3 0-3.7-1.8-3.7-4.1zm6.5 0c0-1.7-1-3.2-2.8-3.2c-1.8 0-2.8 1.5-2.8 3.2c0 1.8 1 3.3 2.8 3.3c1.8 0 2.8-1.5 2.8-3.3zm8-1.3c0-1.5-.7-1.9-1.9-1.9c-.9 0-2 .6-2.4 1.3c-.05-.02 0 5.8 0 5.8h-.9v-7.7h.9s-.05 1.17 0 1.2c.5-.7 1.6-1.4 2.7-1.4c1.6 0 2.4.8 2.4 2.5c.03.01 0 5.4 0 5.4h-.8v-5.2z" stroke="none" fill="#242423"/></g><g id="Polygon98919"><path d="m6.4 171.2H.5v-.8h6.9v.6l-4.5 10h-1l4.5-9.8zm5.2-1.1h.7l-3.8 11.2h-.7l3.8-11.2zm3.2 1.5l-1.7 1.8l-.6-.6l2.4-2.4h.8V181h-.9v-9.4zm6.9-1.4c2.8 0 3.9 3 3.9 5.5c0 2.5-1.1 5.5-3.9 5.5c-2.8 0-3.9-3-3.9-5.5c0-2.5 1.1-5.5 3.9-5.5zm0 .9c-2.2 0-3 2.4-3 4.6c0 2.2.8 4.6 3 4.6c2.2 0 3-2.4 3-4.6c0-2.2-.8-4.6-3-4.6zm8.4-1h.7l-3.7 11.2h-.7l3.7-11.2zm1.5 10.1c3.6-2.9 6-4.9 6-7c0-1.5-1.3-2.1-2.4-2.1c-1.3 0-2.4.5-2.9 1.3l-.6-.5c.7-1.1 2-1.7 3.5-1.7c1.5 0 3.3.9 3.3 3c0 2.3-2.4 4.5-5.5 7c-.01-.05 5.6 0 5.6 0v.8h-7s-.03-.77 0-.8zm13-10c2.8 0 3.9 3 3.9 5.5c0 2.5-1.1 5.5-3.9 5.5c-2.8 0-3.9-3-3.9-5.5c0-2.5 1.1-5.5 3.9-5.5zm0 .9c-2.2 0-3 2.4-3 4.6c0 2.2.8 4.6 3 4.6c2.2 0 3-2.4 3-4.6c0-2.2-.8-4.6-3-4.6zm10.2 7h-5v-.8l4.7-6.9h1.2v6.9h1.6v.8h-1.6v2.9h-.9v-2.9zm-4-.8h4v-6l-4 6zm12.5.8h-5v-.8l4.7-6.9h1.2v6.9h1.5v.8h-1.5v2.9h-.9v-2.9zm-4.1-.8h4.1v-6l-4.1 6zm11.4-.5h3.8v.7h-3.8v-.7zm14.4-5.6h-5.8v-.8h6.9v.6l-4.5 10h-1l4.4-9.8zm5.2-1.1h.7l-3.7 11.2h-.7l3.7-11.2zm5.4.1c2.9 0 3.9 3 3.9 5.5c0 2.5-1 5.5-3.9 5.5c-2.8 0-3.9-3-3.9-5.5c0-2.5 1.1-5.5 3.9-5.5zm0 .9c-2.2 0-2.9 2.4-2.9 4.6c0 2.2.7 4.6 2.9 4.6c2.2 0 3-2.4 3-4.6c0-2.2-.7-4.6-3-4.6zm6.6 8.1c.6.6 1.2 1.1 2.4 1.1c2.3 0 3.1-2.4 3.1-4.6v-.5c-.4.7-1.7 1.8-3.1 1.8c-1.9 0-3.4-1.1-3.4-3.4c0-1.7 1.3-3.4 3.5-3.4c2.9 0 3.9 2.6 3.9 5.5c0 2.7-1.1 5.5-4 5.5c-1.4 0-2.2-.6-2.9-1.4l.5-.6zm2.6-8.2c-1.8 0-2.7 1.4-2.7 2.6c0 1.7 1.1 2.5 2.7 2.5c1.1 0 2.2-.7 2.8-1.8c-.1-1.4-.8-3.3-2.8-3.3zm8.4-.9h.7l-3.8 11.2h-.7l3.8-11.2zm1.4 10.1c3.6-2.9 6-4.9 6-7c0-1.5-1.2-2.1-2.4-2.1c-1.3 0-2.3.5-2.9 1.3l-.6-.5c.7-1.1 2-1.7 3.5-1.7c1.6 0 3.3.9 3.3 3c0 2.3-2.4 4.5-5.5 7c.02-.05 5.6 0 5.6 0v.8h-7v-.8zm13-10c2.9 0 4 3 4 5.5c0 2.5-1.1 5.5-4 5.5c-2.8 0-3.9-3-3.9-5.5c0-2.5 1.1-5.5 3.9-5.5zm0 .9c-2.2 0-2.9 2.4-2.9 4.6c0 2.2.7 4.6 2.9 4.6c2.3 0 3-2.4 3-4.6c0-2.2-.7-4.6-3-4.6zm10.3 7h-5v-.8l4.7-6.9h1.2v6.9h1.5v.8h-1.5v2.9h-.9v-2.9zm-4.1-.8h4.1v-6l-4.1 6zm8.9 1.9c.5.6 1.2 1.1 2.3 1.1c2.4 0 3.2-2.4 3.2-4.6v-.5c-.5.7-1.7 1.8-3.1 1.8c-2 0-3.5-1.1-3.5-3.4c0-1.7 1.3-3.4 3.6-3.4c2.9 0 3.9 2.6 3.9 5.5c0 2.7-1.2 5.5-4.1 5.5c-1.3 0-2.2-.6-2.8-1.4l.5-.6zm2.5-8.2c-1.8 0-2.6 1.4-2.6 2.6c0 1.7 1.1 2.5 2.6 2.5c1.2 0 2.3-.7 2.9-1.8c-.1-1.4-.9-3.3-2.9-3.3z" stroke="none" fill="#242423"/></g><g id="Polygon98918"><path d="m1608.7 138.5c1.4 0 2.2.5 2.9 1.3l-.6.7c-.5-.7-1.1-1.2-2.3-1.2c-2.3 0-3.1 2.4-3.1 4.6v.5c.4-.7 1.7-1.7 3.1-1.7c1.9 0 3.4 1.1 3.4 3.3c0 1.8-1.3 3.4-3.5 3.4c-2.9 0-3.9-2.6-3.9-5.5c0-2.7 1.1-5.4 4-5.4zm-.2 5c-1.1 0-2.3.7-2.9 1.8c.2 1.4.9 3.3 2.9 3.3c1.8 0 2.7-1.4 2.7-2.6c0-1.7-1.2-2.5-2.7-2.5zm6.2 4.5c.4 0 .8.3.8.7c0 .3-.4.7-.8.7c-.3 0-.7-.4-.7-.7c0-.4.4-.7.7-.7zm6.8-9.5c1.3 0 2.2.5 2.8 1.3l-.5.7c-.5-.7-1.2-1.2-2.3-1.2c-2.3 0-3.2 2.4-3.2 4.6v.5c.5-.7 1.7-1.7 3.1-1.7c2 0 3.5 1.1 3.5 3.3c0 1.8-1.3 3.4-3.6 3.4c-2.9 0-3.9-2.6-3.9-5.5c0-2.7 1.1-5.4 4.1-5.4zm-.2 5c-1.2 0-2.3.7-2.9 1.8c.1 1.4.9 3.3 2.9 3.3c1.8 0 2.6-1.4 2.6-2.6c0-1.7-1.1-2.5-2.6-2.5zm6.4 3.9c.6.7 1.2 1.2 2.4 1.2c2.3 0 3.1-2.5 3.1-4.7v-.5c-.5.7-1.7 1.8-3.1 1.8c-1.9 0-3.4-1.1-3.4-3.4c0-1.7 1.3-3.4 3.5-3.4c2.9 0 3.9 2.7 3.9 5.5c0 2.7-1.1 5.5-4 5.5c-1.4 0-2.3-.6-2.9-1.4l.5-.6zm2.6-8.1c-1.8 0-2.7 1.4-2.7 2.5c0 1.7 1.1 2.6 2.6 2.6c1.2 0 2.3-.8 2.9-1.8c-.1-1.5-.9-3.3-2.8-3.3zm7.8-.8c1.4 0 2.5 1.1 2.5 2.6c0 1.5-1.1 2.6-2.5 2.6c-1.5 0-2.5-1.1-2.5-2.6c0-1.5 1-2.6 2.5-2.6zm5.7.1h.8l-6.8 10.6h-.7l6.7-10.6zm-5.7.5c-1.1 0-1.8.9-1.8 2c0 1 .7 2 1.8 2c1 0 1.7-1 1.7-2c0-1.1-.7-2-1.7-2zm5.4 5.1c1.4 0 2.5 1.1 2.5 2.6c0 1.5-1.1 2.6-2.5 2.6c-1.5 0-2.5-1.1-2.5-2.6c0-1.5 1-2.6 2.5-2.6zm0 .6c-1.1 0-1.8.9-1.8 2c0 1.1.7 2 1.8 2c1 0 1.7-.9 1.7-2c0-1.1-.7-2-1.7-2z" stroke="none" fill="#000"/></g><g id="Polygon98917"><path d="m1334.9 147.1c.7.9 1.6 1.5 3 1.5c1.5 0 2.6-1.1 2.6-2.6c0-1.6-1.1-2.6-2.6-2.6c-1 0-1.8.4-2.6 1.1c.03-.03-.7-.3-.7-.3v-5.6h6.2v.8h-5.2s-.05 4.19 0 4.2c.5-.5 1.4-1 2.5-1c1.8 0 3.4 1.2 3.4 3.4c0 2.1-1.7 3.4-3.6 3.4c-1.8 0-2.9-.7-3.6-1.7l.6-.6zm10.3-8.6c1.5 0 2.5 1.1 2.5 2.6c0 1.5-1 2.6-2.5 2.6c-1.4 0-2.4-1.1-2.4-2.6c0-1.5 1-2.6 2.4-2.6zm5.8.1h.8l-6.8 10.6h-.7l6.7-10.6zm-5.8.5c-1 0-1.7.9-1.7 2c0 1 .7 2 1.7 2c1.1 0 1.8-1 1.8-2c0-1.1-.7-2-1.8-2zm5.4 5.1c1.5 0 2.5 1.1 2.5 2.6c0 1.5-1 2.6-2.5 2.6c-1.4 0-2.4-1.1-2.4-2.6c0-1.5 1-2.6 2.4-2.6zm0 .6c-1 0-1.7.9-1.7 2c0 1.1.7 2 1.7 2c1.1 0 1.8-.9 1.8-2c0-1.1-.7-2-1.8-2z" stroke="none" fill="#242423"/></g><g id="Polygon98916"><path d="m1030.7 149.4v1.4h-.7s-.02-1.4 0-1.4c-1.6-.1-2.8-.8-3.6-1.7l.6-.7c.6.8 1.6 1.5 3 1.6v-4.5c-1.6-.4-3.3-1-3.3-2.8c0-1.7 1.5-2.8 3.3-2.8c-.02-.04 0-1.5 0-1.5h.7v1.5c1.4.1 2.4.6 3.1 1.4l-.6.7c-.6-.8-1.5-1.2-2.5-1.3v4c1.7.5 3.3 1.1 3.3 3.1c0 1.3-.8 2.8-3.3 3zm-.7-6.3v-3.8c-1.3.1-2.3.8-2.3 1.9c0 1.2 1 1.6 2.3 1.9zm3.1 3.4c0-1.4-1.1-1.8-2.4-2.2v4.2c1.9-.1 2.4-1.2 2.4-2zm2.5 2c3.7-2.9 6.1-5 6.1-7c0-1.6-1.3-2.2-2.4-2.2c-1.4 0-2.4.6-3 1.4l-.6-.6c.8-1 2.1-1.6 3.6-1.6c1.5 0 3.3.9 3.3 3c0 2.3-2.5 4.4-5.5 6.9h5.5v.8h-7s.05-.73 0-.7zm10.2-1.1c.5.7 1.2 1.2 2.3 1.2c2.4 0 3.2-2.5 3.2-4.7v-.5c-.5.7-1.7 1.8-3.1 1.8c-1.9 0-3.5-1.1-3.5-3.4c0-1.7 1.3-3.4 3.6-3.4c2.9 0 3.9 2.7 3.9 5.5c0 2.7-1.1 5.5-4.1 5.5c-1.3 0-2.2-.6-2.8-1.4l.5-.6zm2.5-8.1c-1.8 0-2.6 1.4-2.6 2.5c0 1.7 1.1 2.6 2.6 2.6c1.2 0 2.3-.8 2.9-1.8c-.1-1.5-.9-3.3-2.9-3.3zm5 11.5c.5-.4.9-1 .9-1.5h-.1c-.4 0-.7-.3-.7-.6c0-.4.3-.7.7-.7c.4 0 .8.3.8 1c0 .9-.5 1.7-1.1 2.2l-.5-.4zm3.5-3.7c.6.8 1.7 1.5 3 1.5c1.6 0 2.7-.9 2.7-2.3c0-1.5-1.3-2.1-2.9-2.1h-1v-.9c.2.1.6.1 1 .1c1.4 0 2.7-.6 2.7-2.1c0-1.3-1.2-2-2.5-2c-1.2 0-2.1.5-2.9 1.3l-.5-.5c.7-.9 1.9-1.6 3.4-1.6c1.9 0 3.4 1 3.4 2.8c0 1.6-1.3 2.3-2.2 2.4c.9.1 2.4.9 2.4 2.7c0 1.7-1.3 3-3.6 3c-1.7 0-3-.8-3.6-1.8l.6-.5zm9.2 0c.6.9 1.6 1.5 2.9 1.5c1.6 0 2.7-1.1 2.7-2.6c0-1.6-1.1-2.6-2.7-2.6c-.9 0-1.7.4-2.5 1.1c-.02-.03-.7-.3-.7-.3v-5.6h6.1v.8h-5.2v4.2c.5-.5 1.4-1 2.5-1c1.8 0 3.4 1.2 3.4 3.4c0 2.1-1.6 3.4-3.6 3.4c-1.7 0-2.8-.7-3.5-1.7l.6-.6zm12.8-.8h-5v-.8l4.7-6.9h1.2v6.9h1.6v.8h-1.6v2.9h-.9v-2.9zm-4-.8h4v-6l-4 6zm8.6 2.5c.4 0 .7.3.7.7c0 .3-.3.7-.7.7c-.3 0-.7-.4-.7-.7c0-.4.4-.7.7-.7zm7.2-1.7h-5v-.8l4.7-6.9h1.2v6.9h1.6v.8h-1.6v2.9h-.9v-2.9zm-4.1-.8h4.1v-6l-4.1 6zm10.5-1.7c-1.2-.4-2.4-1.2-2.4-2.6c0-1.9 1.7-2.7 3.4-2.7c1.6 0 3.4.8 3.4 2.7c0 1.4-1.2 2.2-2.4 2.6c1.3.3 2.6 1.3 2.6 2.8c0 1.7-1.6 2.8-3.6 2.8c-2.1 0-3.6-1.1-3.6-2.8c0-1.5 1.3-2.5 2.6-2.8zm1-4.5c-1.4 0-2.5.7-2.5 2c0 1.5 1.9 1.9 2.5 2.1c.6-.2 2.5-.6 2.5-2.1c0-1.3-1.1-2-2.5-2zm0 4.9c-.7 0-2.7.7-2.7 2.3c0 1.3 1.3 2.1 2.7 2.1c1.4 0 2.7-.8 2.7-2.1c0-1.6-2.1-2.3-2.7-2.3z" stroke="none" fill="#242423"/></g><g id="Polygon98915"><path d="m728 149.4c-.03-.01 0 1.4 0 1.4h-.8s.04-1.4 0-1.4c-1.6-.1-2.8-.8-3.5-1.7l.6-.7c.6.8 1.6 1.5 2.9 1.6v-4.5c-1.6-.4-3.2-1-3.2-2.8c0-1.7 1.4-2.8 3.2-2.8c.04-.04 0-1.5 0-1.5h.8s-.03 1.48 0 1.5c1.3.1 2.3.6 3.1 1.4l-.6.7c-.7-.8-1.5-1.2-2.5-1.3v4c1.6.5 3.3 1.1 3.3 3.1c0 1.3-.8 2.8-3.3 3zm-.8-6.3v-3.8c-1.3.1-2.3.8-2.3 1.9c0 1.2 1.1 1.6 2.3 1.9zm3.1 3.4c0-1.4-1.1-1.8-2.3-2.2v4.2c1.8-.1 2.3-1.2 2.3-2zm2.8.6c.6.8 1.7 1.5 3 1.5c1.7 0 2.7-.9 2.7-2.3c0-1.5-1.3-2.1-2.9-2.1h-.9v-.9c.1.1.5.1.9.1c1.4 0 2.7-.6 2.7-2.1c0-1.3-1.2-2-2.5-2c-1.2 0-2.1.5-2.9 1.3l-.5-.5c.7-.9 1.9-1.6 3.4-1.6c1.9 0 3.4 1 3.4 2.8c0 1.6-1.3 2.3-2.2 2.4c.9.1 2.4.9 2.4 2.7c0 1.7-1.3 3-3.6 3c-1.7 0-3-.8-3.6-1.8l.6-.5zm9.2 0c.7.9 1.6 1.5 2.9 1.5c1.6 0 2.7-1.1 2.7-2.6c0-1.6-1.1-2.6-2.6-2.6c-1 0-1.8.4-2.6 1.1c-.01-.03-.7-.3-.7-.3v-5.6h6.1v.8h-5.2v4.2c.5-.5 1.4-1 2.5-1c1.8 0 3.4 1.2 3.4 3.4c0 2.1-1.6 3.4-3.6 3.4c-1.7 0-2.8-.7-3.5-1.7l.6-.6zm8.2 1.4c3.6-2.9 6-5 6-7c0-1.6-1.3-2.2-2.4-2.2c-1.3 0-2.4.6-2.9 1.4l-.6-.6c.7-1 2-1.6 3.5-1.6c1.5 0 3.3.9 3.3 3c0 2.3-2.4 4.4-5.5 6.9h5.6v.8h-7s-.03-.73 0-.7zm9.1 2.3c.5-.4.9-1 .9-1.5h-.1c-.4 0-.7-.3-.7-.6c0-.4.3-.7.7-.7c.4 0 .8.3.8 1c0 .9-.5 1.7-1.2 2.2l-.4-.4zm3.3-2.3c3.6-2.9 6-5 6-7c0-1.6-1.3-2.2-2.4-2.2c-1.3 0-2.4.6-2.9 1.4l-.6-.6c.7-1 2-1.6 3.5-1.6c1.5 0 3.3.9 3.3 3c0 2.3-2.4 4.4-5.5 6.9h5.6v.8h-7s-.02-.73 0-.7zm9.9-1.4c.7.9 1.7 1.5 3 1.5c1.5 0 2.7-1.1 2.7-2.6c0-1.6-1.1-2.6-2.7-2.6c-.9 0-1.8.4-2.5 1.1c-.04-.03-.7-.3-.7-.3v-5.6h6.1v.8h-5.2s-.02 4.19 0 4.2c.5-.5 1.4-1 2.5-1c1.8 0 3.4 1.2 3.4 3.4c0 2.1-1.6 3.4-3.6 3.4c-1.7 0-2.8-.7-3.6-1.7l.6-.6zm8.5 0c.6.8 1.6 1.5 3 1.5c1.6 0 2.6-.9 2.6-2.3c0-1.5-1.2-2.1-2.8-2.1h-1v-.9c.2.1.5.1 1 .1c1.4 0 2.7-.6 2.7-2.1c0-1.3-1.2-2-2.6-2c-1.2 0-2 .5-2.8 1.3l-.6-.5c.7-.9 1.9-1.6 3.5-1.6c1.8 0 3.4 1 3.4 2.8c0 1.6-1.4 2.3-2.3 2.4c.9.1 2.4.9 2.4 2.7c0 1.7-1.3 3-3.5 3c-1.8 0-3-.8-3.6-1.8l.6-.5zm9.1.9c.3 0 .7.3.7.7c0 .3-.4.7-.7.7c-.4 0-.7-.4-.7-.7c0-.4.3-.7.7-.7zm6.9-8.6h-5.8v-.8h6.9v.7l-4.5 9.9h-1l4.4-9.8zm4.1.5l-1.7 1.8l-.5-.6l2.3-2.5h.8v10.6h-.9v-9.3z" stroke="none" fill="#242423"/></g><g id="Polygon98914"><path d="m425.2 148.5c3.6-2.9 6-5 6-7c0-1.6-1.3-2.2-2.4-2.2c-1.3 0-2.3.6-2.9 1.4l-.6-.6c.7-1 2-1.6 3.5-1.6c1.5 0 3.3.9 3.3 3c0 2.3-2.4 4.4-5.5 6.9h5.6v.8h-7s-.02-.73 0-.7zm14.6-4.5c0-1.5-.7-1.9-1.8-1.9c-1 0-2 .6-2.5 1.3v5.8h-.8v-7.7h.8v1.2c.5-.7 1.6-1.3 2.8-1.3c1.5 0 2.4.7 2.4 2.4c-.04.05 0 5.4 0 5.4h-.9s.04-5.16 0-5.2zm8.9 4c-.5.8-1.5 1.4-2.6 1.4c-2.1 0-3.5-1.6-3.5-4c0-2.4 1.4-4 3.5-4c1 0 2 .5 2.6 1.4c.03-.02 0-4.2 0-4.2h.9v10.6h-.9s.03-1.21 0-1.2zm0-4.5c-.4-.8-1.4-1.4-2.5-1.4c-1.7 0-2.7 1.4-2.7 3.3c0 1.8 1 3.3 2.7 3.3c1.1 0 2.1-.7 2.5-1.4v-3.8zm12-5.1c3.1 0 5.2 2.4 5.2 5.5c0 3.1-2.1 5.5-5.2 5.5c-3.1 0-5.1-2.4-5.1-5.5c0-3.1 2-5.5 5.1-5.5zm0 .9c-2.5 0-4.2 1.9-4.2 4.6c0 2.7 1.7 4.7 4.2 4.7c2.6 0 4.2-2 4.2-4.7c0-2.7-1.6-4.6-4.2-4.6zm7.2 12.8v-10.6h.8s.04 1.27 0 1.3c.6-.8 1.6-1.4 2.7-1.4c2.1 0 3.4 1.5 3.4 4c0 2.4-1.3 4-3.4 4c-1.1 0-2-.6-2.7-1.4c.04-.02 0 4.1 0 4.1h-.8zm3.4-10c-1.1 0-2.1.6-2.6 1.4v3.8c.5.7 1.5 1.4 2.6 1.4c1.7 0 2.7-1.5 2.7-3.3c0-1.9-1-3.3-2.7-3.3zm5.7 5.6c-.03.04 0-5.4 0-5.4h-1.3v-.8h1.3v-2.1h.8v2.1h1.6v.8h-1.6v5.3c0 .6.3 1.1.8 1.1c.4 0 .7-.2.9-.4l.3.6c-.3.3-.7.5-1.3.5c-1 0-1.5-.6-1.5-1.7zm3.8-8.1c0-.3.3-.6.6-.6c.4 0 .7.3.7.6c0 .4-.3.6-.7.6c-.3 0-.6-.2-.6-.6zm.2 1.9h.8v7.7h-.8v-7.7zm2.8 3.9c0-2.3 1.5-4 3.7-4c2.3 0 3.7 1.7 3.7 4c0 2.2-1.4 4-3.7 4c-2.2 0-3.7-1.8-3.7-4zm6.5 0c0-1.7-1-3.3-2.8-3.3c-1.8 0-2.8 1.6-2.8 3.3c0 1.7 1 3.3 2.8 3.3c1.8 0 2.8-1.6 2.8-3.3zm8.1-1.4c0-1.5-.8-1.9-1.9-1.9c-1 0-2 .6-2.5 1.3v5.8h-.8v-7.7h.8v1.2c.6-.7 1.6-1.3 2.8-1.3c1.5 0 2.4.7 2.4 2.4c-.03.05 0 5.4 0 5.4h-.8s-.05-5.16 0-5.2z" stroke="none" fill="#242423"/></g><g id="Polygon98913"><path d="m6.4 139.4H.5v-.8h6.9v.7l-4.5 9.9h-1l4.5-9.8zm5.2-1.1h.7l-3.8 11.2h-.7l3.8-11.2zm3.2 1.6l-1.7 1.8l-.6-.6l2.4-2.5h.8v10.6h-.9v-9.3zm6.9-1.4c2.8 0 3.9 2.9 3.9 5.4c0 2.5-1.1 5.5-3.9 5.5c-2.8 0-3.9-3-3.9-5.5c0-2.5 1.1-5.4 3.9-5.4zm0 .8c-2.2 0-3 2.4-3 4.6c0 2.2.8 4.7 3 4.7c2.2 0 3-2.5 3-4.7c0-2.2-.8-4.6-3-4.6zm8.4-1h.7l-3.7 11.2h-.7l3.7-11.2zm1.5 10.2c3.6-2.9 6-5 6-7c0-1.6-1.3-2.2-2.4-2.2c-1.3 0-2.4.6-2.9 1.4l-.6-.6c.7-1 2-1.6 3.5-1.6c1.5 0 3.3.9 3.3 3c0 2.3-2.4 4.4-5.5 6.9h5.6v.8h-7s-.03-.73 0-.7zm13-10c2.8 0 3.9 2.9 3.9 5.4c0 2.5-1.1 5.5-3.9 5.5c-2.8 0-3.9-3-3.9-5.5c0-2.5 1.1-5.4 3.9-5.4zm0 .8c-2.2 0-3 2.4-3 4.6c0 2.2.8 4.7 3 4.7c2.2 0 3-2.5 3-4.7c0-2.2-.8-4.6-3-4.6zm5.8 7.8c.6.8 1.6 1.5 3 1.5c1.6 0 2.6-.9 2.6-2.3c0-1.5-1.2-2.1-2.8-2.1h-1v-.9c.2.1.6.1 1 .1c1.4 0 2.7-.6 2.7-2.1c0-1.3-1.2-2-2.6-2c-1.2 0-2 .5-2.8 1.3l-.6-.5c.7-.9 1.9-1.6 3.5-1.6c1.8 0 3.4 1 3.4 2.8c0 1.6-1.4 2.3-2.3 2.4c.9.1 2.5.9 2.5 2.7c0 1.7-1.4 3-3.6 3c-1.8 0-3-.8-3.6-1.8l.6-.5zm9.3.3c.5.7 1.2 1.2 2.4 1.2c2.3 0 3.1-2.5 3.1-4.7v-.5c-.5.7-1.7 1.8-3.1 1.8c-1.9 0-3.4-1.1-3.4-3.4c0-1.7 1.2-3.4 3.5-3.4c2.9 0 3.9 2.7 3.9 5.5c0 2.7-1.1 5.5-4 5.5c-1.4 0-2.3-.6-2.9-1.4l.5-.6zm2.5-8.1c-1.8 0-2.6 1.4-2.6 2.5c0 1.7 1.1 2.6 2.6 2.6c1.2 0 2.3-.8 2.9-1.8c-.1-1.5-.9-3.3-2.9-3.3zm9.1 5.7h3.8v.8h-3.8v-.8zm14.5-5.6h-5.9v-.8h6.9v.7l-4.5 9.9h-1l4.5-9.8zm5.2-1.1h.7l-3.8 11.2h-.7l3.8-11.2zm5.4.2c2.8 0 3.9 2.9 3.9 5.4c0 2.5-1.1 5.5-3.9 5.5c-2.9 0-4-3-4-5.5c0-2.5 1.1-5.4 4-5.4zm0 .8c-2.3 0-3 2.4-3 4.6c0 2.2.7 4.7 3 4.7c2.2 0 2.9-2.5 2.9-4.7c0-2.2-.7-4.6-2.9-4.6zm6.6 8.1c.5.7 1.2 1.2 2.3 1.2c2.3 0 3.1-2.5 3.1-4.7v-.5c-.4.7-1.6 1.8-3.1 1.8c-1.9 0-3.4-1.1-3.4-3.4c0-1.7 1.3-3.4 3.6-3.4c2.8 0 3.9 2.7 3.9 5.5c0 2.7-1.2 5.5-4.1 5.5c-1.4 0-2.2-.6-2.8-1.4l.5-.6zm2.5-8.1c-1.8 0-2.7 1.4-2.7 2.5c0 1.7 1.2 2.6 2.7 2.6c1.1 0 2.3-.8 2.9-1.8c-.1-1.5-.9-3.3-2.9-3.3zm8.4-1h.7l-3.8 11.2h-.7l3.8-11.2zm1.4 10.2c3.6-2.9 6.1-5 6.1-7c0-1.6-1.3-2.2-2.5-2.2c-1.3 0-2.3.6-2.9 1.4l-.6-.6c.8-1 2-1.6 3.5-1.6c1.6 0 3.4.9 3.4 3c0 2.3-2.5 4.4-5.5 6.9h5.5v.8h-7s.04-.73 0-.7zm13.1-10c2.8 0 3.9 2.9 3.9 5.4c0 2.5-1.1 5.5-3.9 5.5c-2.9 0-3.9-3-3.9-5.5c0-2.5 1-5.4 3.9-5.4zm0 .8c-2.3 0-3 2.4-3 4.6c0 2.2.7 4.7 3 4.7c2.2 0 2.9-2.5 2.9-4.7c0-2.2-.7-4.6-2.9-4.6zm10.2 7h-5v-.8l4.7-6.9h1.2v6.9h1.6v.8h-1.6v2.9h-.9v-2.9zm-4.1-.8h4.1v-6l-4.1 6zm12.5.8h-5v-.8l4.7-6.9h1.2v6.9h1.6v.8h-1.6v2.9h-.9v-2.9zm-4-.8h4v-6l-4 6z" stroke="none" fill="#242423"/></g><g id="Polygon98912"><path d="m1608.7 106.7c1.4 0 2.2.6 2.9 1.3l-.6.7c-.5-.7-1.1-1.2-2.3-1.2c-2.3 0-3.1 2.4-3.1 4.7v.5c.4-.8 1.7-1.8 3.1-1.8c1.9 0 3.4 1.1 3.4 3.4c0 1.7-1.3 3.3-3.5 3.3c-2.9 0-3.9-2.6-3.9-5.4c0-2.8 1.1-5.5 4-5.5zm-.2 5c-1.1 0-2.3.8-2.9 1.8c.2 1.5.9 3.3 2.9 3.3c1.8 0 2.7-1.4 2.7-2.5c0-1.8-1.2-2.6-2.7-2.6zm6.2 4.5c.4 0 .8.3.8.7c0 .4-.4.7-.8.7c-.3 0-.7-.3-.7-.7c0-.4.4-.7.7-.7zm2.9-.9c.6.9 1.6 1.5 3 1.5c1.6 0 2.7-.8 2.7-2.2c0-1.6-1.3-2.2-2.9-2.2h-1v-.8h1c1.4 0 2.7-.6 2.7-2c0-1.3-1.2-2.1-2.5-2.1c-1.2 0-2.1.5-2.9 1.4l-.6-.6c.8-.9 2-1.6 3.5-1.6c1.8 0 3.4 1 3.4 2.8c0 1.6-1.3 2.3-2.2 2.5c.9.1 2.4.9 2.4 2.6c0 1.8-1.3 3-3.6 3c-1.7 0-3-.8-3.6-1.7l.6-.6zm13.9-7.6h-5.8v-.8h6.9v.6l-4.5 9.9h-1l4.4-9.7zm4.6-1c1.5 0 2.5 1.1 2.5 2.6c0 1.5-1 2.6-2.5 2.6c-1.4 0-2.5-1.1-2.5-2.6c0-1.5 1.1-2.6 2.5-2.6zm5.8.2h.7l-6.7 10.5h-.8l6.8-10.5zm-5.8.4c-1 0-1.7.9-1.7 2c0 1.1.7 2 1.7 2c1.1 0 1.8-.9 1.8-2c0-1.1-.7-2-1.8-2zm5.4 5.1c1.5 0 2.5 1.2 2.5 2.7c0 1.4-1 2.5-2.5 2.5c-1.4 0-2.5-1.1-2.5-2.5c0-1.5 1.1-2.7 2.5-2.7zm0 .7c-1 0-1.7.9-1.7 2c0 1 .7 1.9 1.7 1.9c1.1 0 1.8-.9 1.8-1.9c0-1.1-.7-2-1.8-2z" stroke="none" fill="#000"/></g><g id="Polygon98911"><path d="m1334.9 115.3c.7 1 1.6 1.5 3 1.5c1.5 0 2.6-1.1 2.6-2.5c0-1.6-1.1-2.6-2.6-2.6c-1 0-1.8.3-2.6 1c.03 0-.7-.3-.7-.3v-5.5h6.2v.8h-5.2s-.05 4.13 0 4.1c.5-.5 1.4-1 2.5-1c1.8 0 3.4 1.2 3.4 3.4c0 2.1-1.7 3.4-3.6 3.4c-1.8 0-2.9-.6-3.6-1.7l.6-.6zm10.3-8.6c1.5 0 2.5 1.1 2.5 2.6c0 1.5-1 2.6-2.5 2.6c-1.4 0-2.4-1.1-2.4-2.6c0-1.5 1-2.6 2.4-2.6zm5.8.2h.8l-6.8 10.5h-.7l6.7-10.5zm-5.8.4c-1 0-1.7.9-1.7 2c0 1.1.7 2 1.7 2c1.1 0 1.8-.9 1.8-2c0-1.1-.7-2-1.8-2zm5.4 5.1c1.5 0 2.5 1.2 2.5 2.7c0 1.4-1 2.5-2.5 2.5c-1.4 0-2.4-1.1-2.4-2.5c0-1.5 1-2.7 2.4-2.7zm0 .7c-1 0-1.7.9-1.7 2c0 1 .7 1.9 1.7 1.9c1.1 0 1.8-.9 1.8-1.9c0-1.1-.7-2-1.8-2z" stroke="none" fill="#242423"/></g><g id="Polygon98910"><path d="m1030.7 117.6v1.4h-.7s-.02-1.36 0-1.4c-1.6 0-2.8-.7-3.6-1.6l.6-.7c.6.7 1.6 1.4 3 1.5v-4.5c-1.6-.4-3.3-.9-3.3-2.8c0-1.6 1.5-2.7 3.3-2.8c-.02 0 0-1.4 0-1.4h.7v1.4c1.4.1 2.4.6 3.1 1.5l-.6.6c-.6-.7-1.5-1.2-2.5-1.2v3.9c1.7.5 3.3 1.1 3.3 3.2c0 1.2-.8 2.8-3.3 2.9zm-.7-6.2v-3.9c-1.3.1-2.3.9-2.3 2c0 1.1 1 1.5 2.3 1.9zm3.1 3.3c0-1.3-1.1-1.8-2.4-2.2v4.3c1.9-.1 2.4-1.3 2.4-2.1zm2.5 2c3.7-2.9 6.1-5 6.1-7c0-1.5-1.3-2.2-2.4-2.2c-1.4 0-2.4.6-3 1.4l-.6-.6c.8-1 2.1-1.6 3.6-1.6c1.5 0 3.3.9 3.3 3c0 2.3-2.5 4.4-5.5 6.9c-.04.03 5.5 0 5.5 0v.8h-7s.05-.7 0-.7zm14.6-9h-5.8v-.8h6.9v.6l-4.5 9.9h-1l4.4-9.7zm.8 11.3c.5-.3.9-1 .9-1.5l-.1.1c-.4 0-.7-.3-.7-.7c0-.4.3-.7.7-.7c.4 0 .8.4.8 1c0 .9-.5 1.8-1.1 2.2l-.5-.4zm4.4-3.4c.5.7 1.1 1.2 2.3 1.2c2.3 0 3.1-2.4 3.1-4.7v-.4c-.4.7-1.6 1.7-3.1 1.7c-1.9 0-3.4-1.1-3.4-3.3c0-1.8 1.3-3.4 3.6-3.4c2.8 0 3.9 2.6 3.9 5.5c0 2.7-1.2 5.4-4.1 5.4c-1.4 0-2.2-.5-2.9-1.3l.6-.7zm2.5-8.1c-1.8 0-2.7 1.4-2.7 2.5c0 1.8 1.2 2.6 2.7 2.6c1.1 0 2.3-.7 2.9-1.8c-.2-1.5-.9-3.3-2.9-3.3zm6.4 7.8c.7 1 1.6 1.5 3 1.5c1.5 0 2.6-1.1 2.6-2.5c0-1.6-1.1-2.6-2.6-2.6c-1 0-1.8.3-2.6 1l-.7-.3v-5.5h6.1v.8h-5.2s.03 4.13 0 4.1c.6-.5 1.5-1 2.6-1c1.7 0 3.3 1.2 3.3 3.4c0 2.1-1.6 3.4-3.5 3.4c-1.8 0-2.9-.6-3.6-1.7l.6-.6zm12.3-8.6c1.4 0 2.2.6 2.8 1.3l-.5.7c-.5-.7-1.2-1.2-2.3-1.2c-2.3 0-3.2 2.4-3.2 4.7c0 .1 0 .3.1.5c.4-.8 1.6-1.8 3.1-1.8c1.9 0 3.4 1.1 3.4 3.4c0 1.7-1.3 3.3-3.6 3.3c-2.8 0-3.9-2.6-3.9-5.4c0-2.8 1.1-5.5 4.1-5.5zm-.2 5c-1.2 0-2.3.8-2.9 1.8c.1 1.5.9 3.3 2.9 3.3c1.8 0 2.7-1.4 2.7-2.5c0-1.8-1.2-2.6-2.7-2.6zm6 4.5c.4 0 .8.3.8.7c0 .4-.4.7-.8.7c-.3 0-.6-.3-.6-.7c0-.4.3-.7.6-.7zm6.6-9.5c1.4 0 2.2.6 2.9 1.3l-.6.7c-.5-.7-1.1-1.2-2.3-1.2c-2.3 0-3.1 2.4-3.1 4.7v.5c.4-.8 1.7-1.8 3.1-1.8c1.9 0 3.4 1.1 3.4 3.4c0 1.7-1.3 3.3-3.6 3.3c-2.8 0-3.8-2.6-3.8-5.4c0-2.8 1.1-5.5 4-5.5zm-.2 5c-1.1 0-2.3.8-2.9 1.8c.2 1.5.9 3.3 2.9 3.3c1.8 0 2.7-1.4 2.7-2.5c0-1.8-1.2-2.6-2.7-2.6zm9.9 2.9h-5v-.8l4.7-6.9h1.2v6.8h1.6v.9h-1.6v2.8h-.9v-2.8zm-4.1-.9h4.1v-5.9l-4.1 5.9z" stroke="none" fill="#242423"/></g><g id="Polygon98909"><path d="m728 117.6c-.03.02 0 1.4 0 1.4h-.8s.04-1.36 0-1.4c-1.6 0-2.8-.7-3.5-1.6l.6-.7c.6.7 1.6 1.4 2.9 1.5v-4.5c-1.6-.4-3.2-.9-3.2-2.8c0-1.6 1.4-2.7 3.2-2.8c.04 0 0-1.4 0-1.4h.8s-.03 1.41 0 1.4c1.3.1 2.3.6 3.1 1.5l-.6.6c-.7-.7-1.5-1.2-2.5-1.2v3.9c1.6.5 3.3 1.1 3.3 3.2c0 1.2-.8 2.8-3.3 2.9zm-.8-6.2v-3.9c-1.3.1-2.3.9-2.3 2c0 1.1 1.1 1.5 2.3 1.9zm3.1 3.3c0-1.3-1.1-1.8-2.3-2.2v4.3c1.8-.1 2.3-1.3 2.3-2.1zm2.8.6c.6.9 1.7 1.5 3 1.5c1.7 0 2.7-.8 2.7-2.2c0-1.6-1.3-2.2-2.9-2.2h-.9v-.8h.9c1.4 0 2.7-.6 2.7-2c0-1.3-1.2-2.1-2.5-2.1c-1.2 0-2.1.5-2.9 1.4l-.5-.6c.7-.9 1.9-1.6 3.4-1.6c1.9 0 3.4 1 3.4 2.8c0 1.6-1.3 2.3-2.2 2.5c.9.1 2.4.9 2.4 2.6c0 1.8-1.3 3-3.6 3c-1.7 0-3-.8-3.6-1.7l.6-.6zm8.5 0c.6.9 1.6 1.5 3 1.5c1.6 0 2.7-.8 2.7-2.2c0-1.6-1.3-2.2-2.9-2.2h-1v-.8h1c1.4 0 2.7-.6 2.7-2c0-1.3-1.2-2.1-2.5-2.1c-1.2 0-2.1.5-2.9 1.4l-.6-.6c.8-.9 2-1.6 3.5-1.6c1.9 0 3.4 1 3.4 2.8c0 1.6-1.3 2.3-2.2 2.5c.9.1 2.4.9 2.4 2.6c0 1.8-1.3 3-3.6 3c-1.7 0-3-.8-3.6-1.7l.6-.6zm9.2 0c.6 1 1.6 1.5 2.9 1.5c1.6 0 2.7-1.1 2.7-2.5c0-1.6-1.1-2.6-2.7-2.6c-.9 0-1.8.3-2.5 1c-.03 0-.7-.3-.7-.3v-5.5h6.1v.8h-5.2v4.1c.5-.5 1.4-1 2.5-1c1.8 0 3.4 1.2 3.4 3.4c0 2.1-1.6 3.4-3.6 3.4c-1.7 0-2.8-.6-3.5-1.7l.6-.6zm8.2 3.7c.5-.3.9-1 .9-1.5l-.2.1c-.3 0-.6-.3-.6-.7c0-.4.3-.7.7-.7c.4 0 .8.4.8 1c0 .9-.5 1.8-1.2 2.2l-.4-.4zm8-4.4h-5.1v-.8l4.7-6.9h1.3v6.8h1.5v.9h-1.5v2.8h-.9v-2.8zm-4.1-.9h4.1v-5.9l-4.1 5.9zm13.3-6h-5.9v-.8h7v.6l-4.5 9.9h-1l4.4-9.7zm3.4 7.9c.5.7 1.2 1.2 2.3 1.2c2.4 0 3.2-2.4 3.2-4.7v-.4c-.5.7-1.7 1.7-3.2 1.7c-1.9 0-3.4-1.1-3.4-3.3c0-1.8 1.3-3.4 3.6-3.4c2.9 0 3.9 2.6 3.9 5.5c0 2.7-1.2 5.4-4.1 5.4c-1.3 0-2.2-.5-2.8-1.3l.5-.7zm2.5-8.1c-1.8 0-2.6 1.4-2.6 2.5c0 1.8 1.1 2.6 2.6 2.6c1.2 0 2.3-.7 2.9-1.8c-.1-1.5-.9-3.3-2.9-3.3zm5.8 8.7c.4 0 .7.3.7.7c0 .4-.3.7-.7.7c-.4 0-.7-.3-.7-.7c0-.4.3-.7.7-.7zm7-8.5H789v-.8h6.9v.6l-4.5 9.9h-1l4.5-9.7zm2.5 7.6c.6.9 1.7 1.5 3 1.5c1.6 0 2.7-.8 2.7-2.2c0-1.6-1.3-2.2-2.9-2.2h-1v-.8h1c1.4 0 2.7-.6 2.7-2c0-1.3-1.2-2.1-2.5-2.1c-1.2 0-2.1.5-2.9 1.4l-.5-.6c.7-.9 1.9-1.6 3.4-1.6c1.9 0 3.4 1 3.4 2.8c0 1.6-1.3 2.3-2.2 2.5c.9.1 2.4.9 2.4 2.6c0 1.8-1.3 3-3.6 3c-1.7 0-3-.8-3.6-1.7l.6-.6z" stroke="none" fill="#242423"/></g><g id="Polygon98908"><path d="m427 108.1l-1.7 1.8l-.6-.6l2.3-2.4h.9v10.5h-.9v-9.3zm3.1 7.7c.5.6 1.4 1.1 2.5 1.1c1.3 0 2.1-.6 2.1-1.5c0-1-1.1-1.3-2.2-1.5c-1.3-.4-2.7-.7-2.7-2.2c0-1.2 1-2.1 2.7-2.1c1.4 0 2.2.5 2.8 1.1l-.5.6c-.4-.6-1.2-1-2.3-1c-1.1 0-1.9.6-1.9 1.4c0 .8 1 1.1 2.1 1.4c1.3.3 2.8.6 2.8 2.3c0 1.2-1 2.2-2.9 2.2c-1.2 0-2.2-.3-3-1.2l.5-.6zm7.5.2v-5.5h-1.3v-.7h1.3v-2.1h.8v2.1h1.6v.7h-1.6s.04 5.35 0 5.3c0 .7.3 1.1.8 1.1c.4 0 .7-.2.9-.4l.3.7c-.3.2-.7.4-1.3.4c-1 0-1.5-.6-1.5-1.6zm12.8-9.3c3.1 0 5.1 2.4 5.1 5.5c0 3.1-2 5.4-5.1 5.4c-3.1 0-5.2-2.3-5.2-5.4c0-3.1 2.1-5.5 5.2-5.5zm0 .8c-2.6 0-4.2 2-4.2 4.7c0 2.6 1.6 4.6 4.2 4.6c2.5 0 4.2-2 4.2-4.6c0-2.7-1.7-4.7-4.2-4.7zm7.2 12.9v-10.6h.8v1.2c.5-.8 1.5-1.4 2.7-1.4c2 0 3.4 1.5 3.4 4c0 2.5-1.4 4-3.4 4c-1.1 0-2.1-.5-2.7-1.4v4.2h-.8zm3.3-10.1c-1 0-2.1.7-2.5 1.4v3.8c.4.7 1.5 1.4 2.5 1.4c1.7 0 2.7-1.4 2.7-3.3c0-1.9-1-3.3-2.7-3.3zm5.7 5.7c.03-.03 0-5.5 0-5.5h-1.2v-.7h1.2v-2.1h.9v2.1h1.5v.7h-1.5s-.03 5.35 0 5.3c0 .7.2 1.1.8 1.1c.3 0 .7-.2.8-.4l.3.7c-.3.2-.6.4-1.3.4c-1 0-1.5-.6-1.5-1.6zm3.9-8.2c0-.3.3-.6.6-.6c.3 0 .6.3.6.6c0 .4-.3.7-.6.7c-.3 0-.6-.3-.6-.7zm.2 2h.8v7.6h-.8v-7.6zm2.8 3.8c0-2.2 1.4-4 3.7-4c2.2 0 3.7 1.8 3.7 4c0 2.2-1.5 4-3.7 4c-2.3 0-3.7-1.8-3.7-4zm6.5 0c0-1.7-1-3.3-2.8-3.3c-1.8 0-2.8 1.6-2.8 3.3c0 1.7 1 3.3 2.8 3.3c1.8 0 2.8-1.6 2.8-3.3zm8-1.3c0-1.5-.7-2-1.8-2c-1 0-2 .7-2.5 1.4c-.04-.05 0 5.7 0 5.7h-.9v-7.6h.9s-.04 1.14 0 1.1c.5-.6 1.6-1.3 2.7-1.3c1.6 0 2.4.7 2.4 2.5c.04-.02 0 5.3 0 5.3h-.8v-5.1z" stroke="none" fill="#242423"/></g><g id="Polygon98907"><path d="m6.4 107.7H.5v-.8h6.9v.6l-4.5 9.9h-1l4.5-9.7zm5.2-1.2h.7l-3.8 11.3h-.7l3.8-11.3zm3.2 1.6l-1.7 1.8l-.6-.6l2.4-2.4h.8v10.5h-.9v-9.3zm6.9-1.4c2.8 0 3.9 2.9 3.9 5.5c0 2.5-1.1 5.4-3.9 5.4c-2.8 0-3.9-2.9-3.9-5.4c0-2.6 1.1-5.5 3.9-5.5zm0 .8c-2.2 0-3 2.5-3 4.7c0 2.1.8 4.6 3 4.6c2.2 0 3-2.5 3-4.6c0-2.2-.8-4.7-3-4.7zm8.4-1h.7l-3.7 11.3h-.7l3.7-11.3zm1.5 10.2c3.6-2.9 6-5 6-7c0-1.5-1.3-2.2-2.4-2.2c-1.3 0-2.4.6-2.9 1.4l-.6-.6c.7-1 2-1.6 3.5-1.6c1.5 0 3.3.9 3.3 3c0 2.3-2.4 4.4-5.5 6.9c-.01.03 5.6 0 5.6 0v.8h-7s-.03-.7 0-.7zm13-10c2.8 0 3.9 2.9 3.9 5.5c0 2.5-1.1 5.4-3.9 5.4c-2.8 0-3.9-2.9-3.9-5.4c0-2.6 1.1-5.5 3.9-5.5zm0 .8c-2.2 0-3 2.5-3 4.7c0 2.1.8 4.6 3 4.6c2.2 0 3-2.5 3-4.6c0-2.2-.8-4.7-3-4.7zm5.8 7.8c.6.9 1.6 1.5 3 1.5c1.6 0 2.6-.8 2.6-2.2c0-1.6-1.2-2.2-2.8-2.2h-1v-.8h1c1.4 0 2.7-.6 2.7-2c0-1.3-1.2-2.1-2.6-2.1c-1.2 0-2 .5-2.8 1.4l-.6-.6c.7-.9 1.9-1.6 3.5-1.6c1.8 0 3.4 1 3.4 2.8c0 1.6-1.4 2.3-2.3 2.5c.9.1 2.5.9 2.5 2.6c0 1.8-1.4 3-3.6 3c-1.8 0-3-.8-3.6-1.7l.6-.6zm12.9-.7h-5v-.8l4.7-6.9h1.2v6.8h1.6v.9h-1.6v2.8h-.9v-2.8zm-4.1-.9h4.1v-5.9l-4.1 5.9zm11.4-.5h3.8v.8h-3.8v-.8zm14.5-5.5h-5.9v-.8h6.9v.6l-4.5 9.9h-1l4.5-9.7zm5.2-1.2h.7l-3.8 11.3h-.7l3.8-11.3zm5.4.2c2.8 0 3.9 2.9 3.9 5.5c0 2.5-1.1 5.4-3.9 5.4c-2.9 0-3.9-2.9-3.9-5.4c0-2.6 1-5.5 3.9-5.5zm0 .8c-2.3 0-3 2.5-3 4.7c0 2.1.7 4.6 3 4.6c2.2 0 2.9-2.5 2.9-4.6c0-2.2-.7-4.7-2.9-4.7zm6.6 8.1c.5.7 1.2 1.2 2.3 1.2c2.4 0 3.2-2.4 3.2-4.7v-.4c-.5.7-1.7 1.7-3.2 1.7c-1.9 0-3.4-1.1-3.4-3.3c0-1.8 1.3-3.4 3.6-3.4c2.8 0 3.9 2.6 3.9 5.5c0 2.7-1.2 5.4-4.1 5.4c-1.4 0-2.2-.5-2.8-1.3l.5-.7zm2.5-8.1c-1.8 0-2.6 1.4-2.6 2.5c0 1.8 1.1 2.6 2.6 2.6c1.2 0 2.3-.7 2.9-1.8c-.1-1.5-.9-3.3-2.9-3.3zm8.4-1h.7l-3.7 11.3h-.8l3.8-11.3zm1.5 10.2c3.6-2.9 6-5 6-7c0-1.5-1.3-2.2-2.4-2.2c-1.4 0-2.4.6-2.9 1.4l-.7-.6c.8-1 2.1-1.6 3.6-1.6c1.5 0 3.3.9 3.3 3c0 2.3-2.5 4.4-5.5 6.9c-.03.03 5.5 0 5.5 0v.8h-6.9s-.05-.7 0-.7zm13-10c2.8 0 3.9 2.9 3.9 5.5c0 2.5-1.1 5.4-3.9 5.4c-2.9 0-3.9-2.9-3.9-5.4c0-2.6 1-5.5 3.9-5.5zm0 .8c-2.2 0-3 2.5-3 4.7c0 2.1.8 4.6 3 4.6c2.2 0 2.9-2.5 2.9-4.6c0-2.2-.7-4.7-2.9-4.7zm5.8 7.8c.6.9 1.6 1.5 2.9 1.5c1.7 0 2.7-.8 2.7-2.2c0-1.6-1.2-2.2-2.8-2.2h-1v-.8h1c1.4 0 2.7-.6 2.7-2c0-1.3-1.2-2.1-2.6-2.1c-1.2 0-2.1.5-2.8 1.4l-.6-.6c.7-.9 1.9-1.6 3.5-1.6c1.8 0 3.4 1 3.4 2.8c0 1.6-1.4 2.3-2.3 2.5c.9.1 2.4.9 2.4 2.6c0 1.8-1.3 3-3.5 3c-1.8 0-3-.8-3.6-1.7l.6-.6zm9.3.3c.5.7 1.2 1.2 2.3 1.2c2.3 0 3.2-2.4 3.2-4.7v-.4c-.5.7-1.7 1.7-3.2 1.7c-1.9 0-3.4-1.1-3.4-3.3c0-1.8 1.3-3.4 3.6-3.4c2.8 0 3.9 2.6 3.9 5.5c0 2.7-1.2 5.4-4.1 5.4c-1.4 0-2.2-.5-2.8-1.3l.5-.7zm2.5-8.1c-1.8 0-2.6 1.4-2.6 2.5c0 1.8 1.1 2.6 2.6 2.6c1.2 0 2.3-.7 2.9-1.8c-.1-1.5-.9-3.3-2.9-3.3z" stroke="none" fill="#242423"/></g><g id="Polygon98906"><path d="m1608.7 74.9c1.4 0 2.2.6 2.9 1.4l-.6.6c-.5-.6-1.1-1.1-2.3-1.1c-2.3 0-3.1 2.4-3.1 4.6v.5c.4-.7 1.7-1.8 3.1-1.8c1.9 0 3.4 1.1 3.4 3.4c0 1.7-1.3 3.4-3.5 3.4c-2.9 0-3.9-2.7-3.9-5.5c0-2.7 1.1-5.5 4-5.5zm-.2 5.1c-1.1 0-2.3.7-2.9 1.8c.2 1.4.9 3.3 2.9 3.3c1.8 0 2.7-1.4 2.7-2.6c0-1.7-1.2-2.5-2.7-2.5zm6.2 4.4c.4 0 .8.4.8.7c0 .4-.4.7-.8.7c-.3 0-.7-.3-.7-.7c0-.3.4-.7.7-.7zm6.6-9.5c2.9 0 3.9 3 3.9 5.5c0 2.5-1 5.5-3.9 5.5c-2.8 0-3.9-3-3.9-5.5c0-2.5 1.1-5.5 3.9-5.5zm0 .9c-2.2 0-2.9 2.4-2.9 4.6c0 2.2.7 4.7 2.9 4.7c2.2 0 3-2.5 3-4.7c0-2.2-.7-4.6-3-4.6zm9.8-.9c1.4 0 2.2.6 2.9 1.4l-.6.6c-.5-.6-1.1-1.1-2.3-1.1c-2.3 0-3.1 2.4-3.1 4.6v.5c.5-.7 1.7-1.8 3.1-1.8c1.9 0 3.4 1.1 3.4 3.4c0 1.7-1.3 3.4-3.5 3.4c-2.9 0-3.9-2.7-3.9-5.5c0-2.7 1.1-5.5 4-5.5zm-.2 5.1c-1.1 0-2.2.7-2.8 1.8c.1 1.4.8 3.3 2.8 3.3c1.8 0 2.7-1.4 2.7-2.6c0-1.7-1.1-2.5-2.7-2.5zm7.5-5.1c1.5 0 2.5 1.2 2.5 2.7c0 1.4-1 2.5-2.5 2.5c-1.4 0-2.4-1.1-2.4-2.5c0-1.5 1-2.7 2.4-2.7zm5.8.2h.8l-6.8 10.6h-.7l6.7-10.6zm-5.8.5c-1 0-1.7.8-1.7 2c0 1 .7 1.9 1.7 1.9c1.1 0 1.8-.9 1.8-1.9c0-1.2-.7-2-1.8-2zm5.4 5.1c1.5 0 2.5 1.1 2.5 2.6c0 1.5-1 2.6-2.5 2.6c-1.4 0-2.5-1.1-2.5-2.6c0-1.5 1.1-2.6 2.5-2.6zm0 .6c-1 0-1.7.9-1.7 2c0 1.1.7 2 1.7 2c1.1 0 1.8-.9 1.8-2c0-1.1-.7-2-1.8-2z" stroke="none" fill="#000"/></g><g id="Polygon98905"><path d="m1334.9 83.5c.7 1 1.6 1.6 3 1.6c1.5 0 2.6-1.2 2.6-2.6c0-1.6-1.1-2.6-2.6-2.6c-1 0-1.8.3-2.6 1c.03.04-.7-.3-.7-.3v-5.5h6.2v.8h-5.2s-.05 4.16 0 4.2c.5-.5 1.4-1 2.5-1c1.8 0 3.4 1.2 3.4 3.4c0 2.1-1.7 3.4-3.6 3.4c-1.8 0-2.9-.7-3.6-1.8l.6-.6zm10.3-8.6c1.5 0 2.5 1.2 2.5 2.7c0 1.4-1 2.5-2.5 2.5c-1.4 0-2.4-1.1-2.4-2.5c0-1.5 1-2.7 2.4-2.7zm5.8.2h.8l-6.8 10.6h-.7l6.7-10.6zm-5.8.5c-1 0-1.7.8-1.7 2c0 1 .7 1.9 1.7 1.9c1.1 0 1.8-.9 1.8-1.9c0-1.2-.7-2-1.8-2zm5.4 5.1c1.5 0 2.5 1.1 2.5 2.6c0 1.5-1 2.6-2.5 2.6c-1.4 0-2.4-1.1-2.4-2.6c0-1.5 1-2.6 2.4-2.6zm0 .6c-1 0-1.7.9-1.7 2c0 1.1.7 2 1.7 2c1.1 0 1.8-.9 1.8-2c0-1.1-.7-2-1.8-2z" stroke="none" fill="#242423"/></g><g id="Polygon98904"><path d="m1030.7 85.9v1.4h-.7s-.02-1.43 0-1.4c-1.6-.1-2.8-.8-3.6-1.7l.6-.7c.6.7 1.6 1.4 3 1.5v-4.4c-1.6-.5-3.3-1-3.3-2.9c0-1.6 1.5-2.7 3.3-2.8c-.02.03 0-1.4 0-1.4h.7v1.4c1.4.1 2.4.7 3.1 1.5l-.6.7c-.6-.8-1.5-1.2-2.5-1.3v4c1.7.4 3.3 1 3.3 3.1c0 1.3-.8 2.8-3.3 3zm-.7-6.3v-3.8c-1.3 0-2.3.8-2.3 1.9c0 1.1 1 1.5 2.3 1.9zm3.1 3.3c0-1.3-1.1-1.8-2.4-2.1v4.2c1.9-.1 2.4-1.2 2.4-2.1zm2.5 2c3.7-2.9 6.1-4.9 6.1-7c0-1.5-1.3-2.1-2.4-2.1c-1.4 0-2.4.5-3 1.3l-.6-.5c.8-1 2.1-1.7 3.6-1.7c1.5 0 3.3.9 3.3 3c0 2.4-2.5 4.5-5.5 7c-.04-.04 5.5 0 5.5 0v.8h-7s.05-.76 0-.8zm13.2-10c1.4 0 2.2.6 2.9 1.4l-.6.6c-.5-.6-1.1-1.1-2.3-1.1c-2.3 0-3.1 2.4-3.1 4.6v.5c.4-.7 1.7-1.8 3.1-1.8c1.9 0 3.4 1.1 3.4 3.4c0 1.7-1.3 3.4-3.5 3.4c-2.9 0-3.9-2.7-3.9-5.5c0-2.7 1.1-5.5 4-5.5zm-.2 5.1c-1.1 0-2.3.7-2.9 1.8c.2 1.4.9 3.3 2.9 3.3c1.8 0 2.7-1.4 2.7-2.6c0-1.7-1.2-2.5-2.7-2.5zm5.3 7.2c.5-.3.9-.9.9-1.4h-.2c-.3 0-.6-.3-.6-.7c0-.3.3-.7.7-.7c.4 0 .8.4.8 1.1c0 .9-.5 1.7-1.2 2.1l-.4-.4zm7.3-12.3c1.4 0 2.3.6 2.9 1.4l-.5.6c-.6-.6-1.2-1.1-2.4-1.1c-2.2 0-3.1 2.4-3.1 4.6v.5c.5-.7 1.7-1.8 3.1-1.8c1.9 0 3.4 1.1 3.4 3.4c0 1.7-1.3 3.4-3.5 3.4c-2.9 0-3.9-2.7-3.9-5.5c0-2.7 1.1-5.5 4-5.5zm-.1 5.1c-1.2 0-2.3.7-2.9 1.8c.1 1.4.9 3.3 2.9 3.3c1.8 0 2.6-1.4 2.6-2.6c0-1.7-1.1-2.5-2.6-2.5zm5.2 4.9c3.6-2.9 6-4.9 6-7c0-1.5-1.3-2.1-2.4-2.1c-1.3 0-2.3.5-2.9 1.3l-.6-.5c.7-1 2-1.7 3.5-1.7c1.5 0 3.3.9 3.3 3c0 2.4-2.4 4.5-5.5 7c0-.04 5.6 0 5.6 0v.8h-7s-.02-.76 0-.8zm10-1.4c.6 1 1.6 1.6 2.9 1.6c1.6 0 2.7-1.2 2.7-2.6c0-1.6-1.1-2.6-2.7-2.6c-.9 0-1.8.3-2.5 1c-.03.04-.7-.3-.7-.3v-5.5h6.1v.8h-5.2v4.2c.5-.5 1.4-1 2.5-1c1.8 0 3.4 1.2 3.4 3.4c0 2.1-1.6 3.4-3.6 3.4c-1.7 0-2.8-.7-3.5-1.8l.6-.6zm9 .9c.4 0 .7.4.7.7c0 .4-.3.7-.7.7c-.4 0-.7-.3-.7-.7c0-.3.3-.7.7-.7zm2.7-.8c.6.8 1.6 1.5 3 1.5c1.6 0 2.6-.9 2.6-2.3c0-1.5-1.2-2.2-2.8-2.2c-.4 0-.8 0-1 .1v-.9h1c1.4 0 2.7-.6 2.7-2c0-1.3-1.2-2-2.6-2c-1.2 0-2 .4-2.8 1.3l-.6-.6c.8-.9 1.9-1.6 3.5-1.6c1.8 0 3.4 1 3.4 2.8c0 1.6-1.4 2.3-2.3 2.5c1 .1 2.5.9 2.5 2.6c0 1.8-1.4 3.1-3.6 3.1c-1.7 0-3-.8-3.6-1.8l.6-.5zm10.9-3.4c-1.2-.3-2.4-1.1-2.4-2.5c0-1.9 1.7-2.8 3.4-2.8c1.7 0 3.4.9 3.4 2.8c0 1.4-1.2 2.2-2.4 2.5c1.3.4 2.6 1.4 2.6 2.8c0 1.7-1.6 2.9-3.6 2.9c-2 0-3.6-1.1-3.6-2.9c0-1.4 1.3-2.4 2.6-2.8zm1-4.4c-1.4 0-2.5.7-2.5 2c0 1.4 1.9 1.9 2.5 2c.7-.1 2.5-.6 2.5-2c0-1.3-1.1-2-2.5-2zm0 4.8c-.6.1-2.7.8-2.7 2.4c0 1.3 1.3 2.1 2.7 2.1c1.4 0 2.7-.8 2.7-2.1c0-1.6-2.1-2.3-2.7-2.4z" stroke="none" fill="#242423"/></g><g id="Polygon98903"><path d="m728 85.9c-.03-.04 0 1.4 0 1.4h-.8s.04-1.43 0-1.4c-1.6-.1-2.8-.8-3.5-1.7l.6-.7c.6.7 1.6 1.4 2.9 1.5v-4.4c-1.6-.5-3.2-1-3.2-2.9c0-1.6 1.4-2.7 3.2-2.8c.04.03 0-1.4 0-1.4h.8s-.03 1.45 0 1.4c1.3.1 2.3.7 3.1 1.5l-.6.7c-.7-.8-1.5-1.2-2.5-1.3v4c1.6.4 3.3 1 3.3 3.1c0 1.3-.8 2.8-3.3 3zm-.8-6.3v-3.8c-1.3 0-2.3.8-2.3 1.9c0 1.1 1.1 1.5 2.3 1.9zm3.1 3.3c0-1.3-1.1-1.8-2.3-2.1v4.2c1.8-.1 2.3-1.2 2.3-2.1zm2.8.7c.6.8 1.7 1.5 3 1.5c1.7 0 2.7-.9 2.7-2.3c0-1.5-1.3-2.2-2.9-2.2c-.4 0-.8 0-.9.1v-.9h.9c1.4 0 2.7-.6 2.7-2c0-1.3-1.2-2-2.5-2c-1.2 0-2.1.4-2.9 1.3l-.5-.6c.7-.9 1.9-1.6 3.4-1.6c1.9 0 3.4 1 3.4 2.8c0 1.6-1.3 2.3-2.2 2.5c.9.1 2.4.9 2.4 2.6c0 1.8-1.3 3.1-3.6 3.1c-1.7 0-3-.8-3.6-1.8l.6-.5zm10.1-7.3l-1.7 1.8l-.6-.5l2.3-2.5h.9v10.6h-.9v-9.4zm4 7.6c.5.6 1.2 1.1 2.3 1.1c2.4 0 3.2-2.4 3.2-4.6v-.5c-.5.7-1.7 1.8-3.1 1.8c-2 0-3.5-1.1-3.5-3.4c0-1.7 1.3-3.4 3.6-3.4c2.9 0 3.9 2.7 3.9 5.5c0 2.7-1.2 5.5-4.1 5.5c-1.3 0-2.2-.6-2.8-1.4l.5-.6zm2.5-8.2c-1.8 0-2.6 1.4-2.6 2.6c0 1.7 1.1 2.5 2.6 2.5c1.2 0 2.3-.7 2.9-1.8c-.1-1.4-.9-3.3-2.9-3.3zm5 11.5c.5-.3.9-.9.9-1.4h-.1c-.4 0-.7-.3-.7-.7c0-.3.3-.7.7-.7c.4 0 .8.4.8 1.1c0 .9-.5 1.7-1.1 2.1l-.5-.4zm4.2-3.7c.7 1 1.6 1.6 2.9 1.6c1.6 0 2.7-1.2 2.7-2.6c0-1.6-1.1-2.6-2.6-2.6c-1 0-1.8.3-2.6 1c-.01.04-.7-.3-.7-.3v-5.5h6.1v.8h-5.2v4.2c.5-.5 1.4-1 2.5-1c1.8 0 3.4 1.2 3.4 3.4c0 2.1-1.6 3.4-3.6 3.4c-1.7 0-2.8-.7-3.5-1.8l.6-.6zm12.1-8.6c2.9 0 3.9 3 3.9 5.5c0 2.5-1 5.5-3.9 5.5c-2.8 0-3.9-3-3.9-5.5c0-2.5 1.1-5.5 3.9-5.5zm0 .9c-2.2 0-2.9 2.4-2.9 4.6c0 2.2.7 4.7 2.9 4.7c2.2 0 3-2.5 3-4.7c0-2.2-.8-4.6-3-4.6zm10.3 7h-5.1v-.8l4.7-6.9h1.3v6.9h1.5v.8h-1.5v2.9h-.9v-2.9zm-4.1-.8h4.1v-6l-4.1 6zm8.6 2.4c.4 0 .8.4.8.7c0 .4-.4.7-.8.7c-.3 0-.7-.3-.7-.7c0-.3.4-.7.7-.7zm3.4-.9c.7 1 1.6 1.6 3 1.6c1.5 0 2.6-1.2 2.6-2.6c0-1.6-1.1-2.6-2.6-2.6c-1 0-1.8.3-2.6 1c.02.04-.7-.3-.7-.3v-5.5h6.2v.8h-5.3s.04 4.16 0 4.2c.6-.5 1.5-1 2.6-1c1.7 0 3.4 1.2 3.4 3.4c0 2.1-1.7 3.4-3.6 3.4c-1.8 0-2.9-.7-3.6-1.8l.6-.6zm12.2-8.6c2.8 0 3.9 3 3.9 5.5c0 2.5-1.1 5.5-3.9 5.5c-2.9 0-4-3-4-5.5c0-2.5 1.1-5.5 4-5.5zm0 .9c-2.3 0-3 2.4-3 4.6c0 2.2.7 4.7 3 4.7c2.2 0 2.9-2.5 2.9-4.7c0-2.2-.7-4.6-2.9-4.6z" stroke="none" fill="#242423"/></g><g id="Polygon98902"><path d="m425.6 75.1s4.36-.01 4.4 0c1.7 0 2.9 1 2.9 2.7c0 1.3-.9 2.2-1.9 2.4c1.2.2 2.1 1.4 2.1 2.6c0 1.8-1.2 2.9-3.1 2.9c.04-.02-4.4 0-4.4 0V75.1zm4.3 4.7c1.3 0 2-.8 2-1.9c0-1.1-.7-2-2-2c-.05.02-3.4 0-3.4 0v3.9s3.35.04 3.4 0zm0 5.1c1.4 0 2.2-.9 2.2-2.1c0-1.1-.7-2.1-2.2-2.1c.01-.03-3.4 0-3.4 0v4.2s3.41-.04 3.4 0zm10.1-.1c-.6.7-1.5 1.1-2.6 1.1c-1.3 0-2.6-.9-2.6-2.6c0-1.6 1.3-2.5 2.6-2.5c1.1 0 2 .3 2.6 1.1v-1.6c0-1.1-.9-1.7-2-1.7c-1 0-1.7.3-2.4 1.1l-.5-.6c.8-.8 1.7-1.3 3-1.3c1.5 0 2.8.8 2.8 2.5c-.03-.01 0 5.4 0 5.4h-.9s.05-.92 0-.9zm0-2.3c-.5-.7-1.4-1.1-2.3-1.1c-1.2 0-2.1.9-2.1 1.9c0 1.1.9 1.9 2.1 1.9c.9 0 1.8-.3 2.3-1v-1.7zm3.1 1.6c.5.6 1.4 1.1 2.5 1.1c1.3 0 2-.7 2-1.5c0-1-1-1.3-2.1-1.6c-1.3-.3-2.7-.7-2.7-2.1c0-1.2 1-2.2 2.7-2.2c1.3 0 2.2.5 2.8 1.2l-.5.5c-.4-.6-1.3-1-2.3-1c-1.2 0-1.9.6-1.9 1.4c0 .9 1 1.1 2.1 1.4c1.3.3 2.7.7 2.7 2.3c0 1.3-.9 2.3-2.8 2.3c-1.3 0-2.2-.4-3-1.2l.5-.6zm10.6-6.3c2.3 0 3.6 1.9 3.6 4.1v.2h-6.4c.1 1.7 1.2 3.1 3 3.1c.9 0 1.8-.4 2.5-1.1l.4.5c-.7.8-1.7 1.3-3 1.3c-2.2 0-3.8-1.7-3.8-4.1c0-2.2 1.5-4 3.7-4zm-2.8 3.7h5.6c-.1-1.3-.9-3-2.8-3c-1.9 0-2.8 1.6-2.8 3zm15.1-5.6h-3.5v-.8h7.8v.8h-3.4v9.8h-.9v-9.8zm7.3 1.9c2.4 0 3.6 1.9 3.6 4.1c.04-.01 0 .2 0 .2h-6.4c.1 1.7 1.2 3.1 3 3.1c1 0 1.9-.4 2.5-1.1l.5.5c-.8.8-1.8 1.3-3 1.3c-2.3 0-3.9-1.7-3.9-4.1c0-2.2 1.6-4 3.7-4zm-2.8 3.7h5.6c0-1.3-.9-3-2.8-3c-1.8 0-2.7 1.6-2.8 3zm8.4-3.5h.8s.03 1.33 0 1.3c.7-.8 1.6-1.4 2.6-1.4v.9c-.1-.1-.2-.1-.4-.1c-.8 0-1.8.7-2.2 1.4c.03-.01 0 5.6 0 5.6h-.8V78zm14 2.3c0-1.1-.4-1.7-1.5-1.7c-.8 0-1.8.6-2.2 1.3c-.02-.03 0 5.8 0 5.8h-.9s.04-5.38 0-5.4c0-1.1-.4-1.7-1.5-1.7c-.8 0-1.7.6-2.2 1.3v5.8h-.8V78h.8v1.2c.3-.5 1.4-1.4 2.5-1.4c1.2 0 1.8.7 2 1.5c.4-.7 1.5-1.5 2.5-1.5c1.5 0 2.1.8 2.1 2.4c.04-.04 0 5.5 0 5.5h-.8s.02-5.38 0-5.4z" stroke="none" fill="#242423"/></g><g id="Polygon98901"><path d="m6.4 75.9H.5v-.8h6.9v.6l-4.5 10h-1l4.5-9.8zm5.2-1.1h.7L8.5 86h-.7l3.8-11.2zm3.2 1.5l-1.7 1.8l-.6-.5l2.4-2.5h.8v10.6h-.9v-9.4zm6.9-1.4c2.8 0 3.9 3 3.9 5.5c0 2.5-1.1 5.5-3.9 5.5c-2.8 0-3.9-3-3.9-5.5c0-2.5 1.1-5.5 3.9-5.5zm0 .9c-2.2 0-3 2.4-3 4.6c0 2.2.8 4.7 3 4.7c2.2 0 3-2.5 3-4.7c0-2.2-.8-4.6-3-4.6zm8.4-1h.7L27.1 86h-.7l3.7-11.2zm1.5 10.1c3.6-2.9 6-4.9 6-7c0-1.5-1.3-2.1-2.4-2.1c-1.3 0-2.4.5-2.9 1.3l-.6-.5c.7-1 2-1.7 3.5-1.7c1.5 0 3.3.9 3.3 3c0 2.4-2.4 4.5-5.5 7c-.01-.04 5.6 0 5.6 0v.8h-7s-.03-.76 0-.8zm13-10c2.8 0 3.9 3 3.9 5.5c0 2.5-1.1 5.5-3.9 5.5c-2.8 0-3.9-3-3.9-5.5c0-2.5 1.1-5.5 3.9-5.5zm0 .9c-2.2 0-3 2.4-3 4.6c0 2.2.8 4.7 3 4.7c2.2 0 3-2.5 3-4.7c0-2.2-.8-4.6-3-4.6zm5.6 9.1c3.6-2.9 6-4.9 6-7c0-1.5-1.3-2.1-2.4-2.1c-1.4 0-2.4.5-2.9 1.3l-.7-.5c.8-1 2.1-1.7 3.6-1.7c1.5 0 3.3.9 3.3 3c0 2.4-2.5 4.5-5.5 7c-.03-.04 5.5 0 5.5 0v.8h-6.9s-.04-.76 0-.8zm10.1-1c.5.6 1.2 1.1 2.4 1.1c2.3 0 3.1-2.4 3.1-4.6v-.5c-.5.7-1.7 1.8-3.1 1.8c-1.9 0-3.4-1.1-3.4-3.4c0-1.7 1.2-3.4 3.5-3.4c2.9 0 3.9 2.7 3.9 5.5c0 2.7-1.1 5.5-4 5.5c-1.4 0-2.3-.6-2.9-1.4l.5-.6zm2.5-8.2c-1.8 0-2.6 1.4-2.6 2.6c0 1.7 1.1 2.5 2.6 2.5c1.2 0 2.3-.7 2.9-1.8c-.1-1.4-.9-3.3-2.9-3.3zm9.1 5.8h3.8v.7h-3.8v-.7zm14.5-5.6h-5.9v-.8h6.9v.6l-4.5 10h-1l4.5-9.8zm5.2-1.1h.7L88.5 86h-.7l3.8-11.2zm5.4.1c2.8 0 3.9 3 3.9 5.5c0 2.5-1.1 5.5-3.9 5.5c-2.9 0-4-3-4-5.5c0-2.5 1.1-5.5 4-5.5zm0 .9c-2.3 0-3 2.4-3 4.6c0 2.2.7 4.7 3 4.7c2.2 0 2.9-2.5 2.9-4.7c0-2.2-.7-4.6-2.9-4.6zm6.6 8.1c.5.6 1.2 1.1 2.3 1.1c2.3 0 3.1-2.4 3.1-4.6v-.5c-.4.7-1.6 1.8-3.1 1.8c-1.9 0-3.4-1.1-3.4-3.4c0-1.7 1.3-3.4 3.6-3.4c2.8 0 3.9 2.7 3.9 5.5c0 2.7-1.2 5.5-4.1 5.5c-1.4 0-2.2-.6-2.8-1.4l.5-.6zm2.5-8.2c-1.8 0-2.7 1.4-2.7 2.6c0 1.7 1.2 2.5 2.7 2.5c1.2 0 2.3-.7 2.9-1.8c-.1-1.4-.9-3.3-2.9-3.3zm8.4-.9h.7L111.4 86h-.7l3.8-11.2zm1.4 10.1c3.6-2.9 6.1-4.9 6.1-7c0-1.5-1.3-2.1-2.5-2.1c-1.3 0-2.3.5-2.9 1.3l-.6-.5c.8-1 2.1-1.7 3.5-1.7c1.6 0 3.4.9 3.4 3c0 2.4-2.5 4.5-5.5 7c-.05-.04 5.5 0 5.5 0v.8h-7s.04-.76 0-.8zm13.1-10c2.8 0 3.9 3 3.9 5.5c0 2.5-1.1 5.5-3.9 5.5c-2.9 0-3.9-3-3.9-5.5c0-2.5 1-5.5 3.9-5.5zm0 .9c-2.3 0-3 2.4-3 4.6c0 2.2.7 4.7 3 4.7c2.2 0 2.9-2.5 2.9-4.7c0-2.2-.7-4.6-2.9-4.6zm5.8 7.8c.5.8 1.6 1.5 2.9 1.5c1.7 0 2.7-.9 2.7-2.3c0-1.5-1.3-2.2-2.8-2.2c-.5 0-.9 0-1 .1v-.9h1c1.4 0 2.6-.6 2.6-2c0-1.3-1.1-2-2.5-2c-1.2 0-2.1.4-2.8 1.3l-.6-.6c.7-.9 1.9-1.6 3.4-1.6c1.9 0 3.5 1 3.5 2.8c0 1.6-1.4 2.3-2.3 2.5c.9.1 2.4.9 2.4 2.6c0 1.8-1.3 3.1-3.6 3.1c-1.7 0-3-.8-3.6-1.8l.7-.5zm12.9-.8h-5v-.8l4.7-6.9h1.2v6.9h1.5v.8h-1.5v2.9h-.9v-2.9zm-4.1-.8h4.1v-6l-4.1 6z" stroke="none" fill="#242423"/></g><g id="Polygon98900"><path d="m1605.5 51.8c.7.9 1.6 1.5 3 1.5c1.5 0 2.6-1.1 2.6-2.6c0-1.6-1.1-2.6-2.6-2.6c-1 0-1.8.4-2.6 1.1c.03-.03-.7-.3-.7-.3v-5.6h6.2v.9h-5.2s-.05 4.1 0 4.1c.5-.5 1.4-1 2.5-1c1.8 0 3.4 1.2 3.4 3.4c0 2.1-1.7 3.4-3.6 3.4c-1.8 0-2.9-.7-3.6-1.7l.6-.6zm9.2.9c.4 0 .7.3.7.7c0 .3-.3.7-.7.7c-.4 0-.7-.4-.7-.7c0-.4.3-.7.7-.7zm7.1-8.5h-5.8v-.9h6.9v.7l-4.5 9.9h-1l4.4-9.7zm8 0h-5.8v-.9h6.9v.7l-4.5 9.9h-1l4.4-9.7zm4.6-1c1.5 0 2.5 1.1 2.5 2.6c0 1.5-1 2.6-2.5 2.6c-1.4 0-2.5-1.1-2.5-2.6c0-1.5 1.1-2.6 2.5-2.6zm5.8.1h.7l-6.7 10.6h-.8l6.8-10.6zm-5.8.5c-1 0-1.7.9-1.7 2c0 1.1.7 2 1.7 2c1.1 0 1.8-.9 1.8-2c0-1.1-.7-2-1.8-2zm5.4 5.1c1.5 0 2.5 1.1 2.5 2.6c0 1.5-1 2.6-2.5 2.6c-1.4 0-2.5-1.1-2.5-2.6c0-1.5 1.1-2.6 2.5-2.6zm0 .6c-1 0-1.7.9-1.7 2c0 1.1.7 2 1.7 2c1.1 0 1.8-.9 1.8-2c0-1.1-.7-2-1.8-2z" stroke="none" fill="#000"/></g><g id="Polygon98899"><path d="m1334.9 51.8c.7.9 1.6 1.5 3 1.5c1.5 0 2.6-1.1 2.6-2.6c0-1.6-1.1-2.6-2.6-2.6c-1 0-1.8.4-2.6 1.1c.03-.03-.7-.3-.7-.3v-5.6h6.2v.9h-5.2s-.05 4.1 0 4.1c.5-.5 1.4-1 2.5-1c1.8 0 3.4 1.2 3.4 3.4c0 2.1-1.7 3.4-3.6 3.4c-1.8 0-2.9-.7-3.6-1.7l.6-.6zm10.3-8.6c1.5 0 2.5 1.1 2.5 2.6c0 1.5-1 2.6-2.5 2.6c-1.4 0-2.4-1.1-2.4-2.6c0-1.5 1-2.6 2.4-2.6zm5.8.1h.8l-6.8 10.6h-.7l6.7-10.6zm-5.8.5c-1 0-1.7.9-1.7 2c0 1.1.7 2 1.7 2c1.1 0 1.8-.9 1.8-2c0-1.1-.7-2-1.8-2zm5.4 5.1c1.5 0 2.5 1.1 2.5 2.6c0 1.5-1 2.6-2.5 2.6c-1.4 0-2.4-1.1-2.4-2.6c0-1.5 1-2.6 2.4-2.6zm0 .6c-1 0-1.7.9-1.7 2c0 1.1.7 2 1.7 2c1.1 0 1.8-.9 1.8-2c0-1.1-.7-2-1.8-2z" stroke="none" fill="#242423"/></g><g id="Polygon98898"><path d="m1030.7 54.1v1.4h-.7s-.02-1.39 0-1.4c-1.6-.1-2.8-.8-3.6-1.7l.6-.7c.6.8 1.6 1.5 3 1.6v-4.5c-1.6-.4-3.3-.9-3.3-2.8c0-1.7 1.5-2.8 3.3-2.8c-.02-.03 0-1.5 0-1.5h.7v1.5c1.4.1 2.4.6 3.1 1.4l-.6.7c-.6-.8-1.5-1.2-2.5-1.3v4c1.7.5 3.3 1.1 3.3 3.1c0 1.3-.8 2.9-3.3 3zm-.7-6.3V44c-1.3.1-2.3.8-2.3 1.9c0 1.2 1 1.6 2.3 1.9zm3.1 3.4c0-1.3-1.1-1.8-2.4-2.2v4.3c1.9-.2 2.4-1.3 2.4-2.1zm2.5 2c3.7-2.9 6.1-5 6.1-7c0-1.6-1.3-2.2-2.4-2.2c-1.4 0-2.4.6-3 1.4l-.6-.6c.8-1 2.1-1.6 3.6-1.6c1.5 0 3.3.9 3.3 3c0 2.3-2.5 4.4-5.5 6.9h5.5v.8h-7s.05-.73 0-.7zm10-1.4c.7.9 1.6 1.5 3 1.5c1.5 0 2.6-1.1 2.6-2.6c0-1.6-1.1-2.6-2.6-2.6c-1 0-1.8.4-2.6 1.1c.03-.03-.7-.3-.7-.3v-5.6h6.2v.9h-5.2s-.05 4.1 0 4.1c.5-.5 1.4-1 2.5-1c1.8 0 3.4 1.2 3.4 3.4c0 2.1-1.7 3.4-3.6 3.4c-1.8 0-2.9-.7-3.6-1.7l.6-.6zm8.2 3.7c.6-.4.9-1 1-1.5h-.2c-.4 0-.6-.3-.6-.6c0-.4.3-.7.6-.7c.5 0 .8.3.8 1c0 .9-.5 1.7-1.1 2.2l-.5-.4zm3.6-3.7c.6.9 1.6 1.5 2.9 1.5c1.7 0 2.7-.9 2.7-2.3c0-1.5-1.2-2.1-2.8-2.1h-1v-.9c.1.1.5.1 1 .1c1.4 0 2.7-.6 2.7-2.1c0-1.3-1.2-2-2.6-2c-1.2 0-2.1.5-2.8 1.3l-.6-.5c.7-.9 1.9-1.6 3.5-1.6c1.8 0 3.4 1 3.4 2.8c0 1.6-1.4 2.3-2.3 2.4c.9.1 2.4.9 2.4 2.7c0 1.7-1.3 3-3.5 3c-1.8 0-3-.8-3.6-1.8l.6-.5zm9.1 0c.7.9 1.6 1.5 3 1.5c1.5 0 2.6-1.1 2.6-2.6c0-1.6-1.1-2.6-2.6-2.6c-1 0-1.8.4-2.6 1.1c.02-.03-.7-.3-.7-.3v-5.6h6.1v.9h-5.2s.04 4.1 0 4.1c.6-.5 1.5-1 2.6-1c1.7 0 3.3 1.2 3.3 3.4c0 2.1-1.6 3.4-3.5 3.4c-1.8 0-2.9-.7-3.6-1.7l.6-.6zm13.7-7.6h-5.9v-.9h7v.7l-4.6 9.9h-1l4.5-9.7zm1.6 8.5c.4 0 .7.3.7.7c0 .3-.3.7-.7.7c-.4 0-.7-.4-.7-.7c0-.4.3-.7.7-.7zm3.3-.9c.7.9 1.7 1.5 3 1.5c1.5 0 2.7-1.1 2.7-2.6c0-1.6-1.1-2.6-2.7-2.6c-.9 0-1.8.4-2.5 1.1c-.04-.03-.7-.3-.7-.3v-5.6h6.1v.9h-5.2s-.02 4.1 0 4.1c.5-.5 1.4-1 2.5-1c1.8 0 3.4 1.2 3.4 3.4c0 2.1-1.6 3.4-3.6 3.4c-1.7 0-2.8-.7-3.6-1.7l.6-.6zm12.2-8.6c2.8 0 3.9 2.9 3.9 5.4c0 2.5-1.1 5.5-3.9 5.5c-2.9 0-3.9-3-3.9-5.5c0-2.5 1-5.4 3.9-5.4zm0 .8c-2.2 0-3 2.4-3 4.6c0 2.2.8 4.7 3 4.7c2.2 0 2.9-2.5 2.9-4.7c0-2.2-.7-4.6-2.9-4.6z" stroke="none" fill="#242423"/></g><g id="Polygon98897"><path d="m728 54.1c-.03-.01 0 1.4 0 1.4h-.8s.04-1.39 0-1.4c-1.6-.1-2.8-.8-3.5-1.7l.6-.7c.6.8 1.6 1.5 2.9 1.6v-4.5c-1.6-.4-3.2-.9-3.2-2.8c0-1.7 1.4-2.8 3.2-2.8c.04-.03 0-1.5 0-1.5h.8s-.03 1.49 0 1.5c1.3.1 2.3.6 3.1 1.4l-.6.7c-.7-.8-1.5-1.2-2.5-1.3v4c1.6.5 3.3 1.1 3.3 3.1c0 1.3-.8 2.9-3.3 3zm-.8-6.3V44c-1.3.1-2.3.8-2.3 1.9c0 1.2 1.1 1.6 2.3 1.9zm3.1 3.4c0-1.3-1.1-1.8-2.3-2.2v4.3c1.8-.2 2.3-1.3 2.3-2.1zm2.8.6c.6.9 1.7 1.5 3 1.5c1.7 0 2.7-.9 2.7-2.3c0-1.5-1.3-2.1-2.9-2.1h-.9v-.9c.1.1.5.1.9.1c1.4 0 2.7-.6 2.7-2.1c0-1.3-1.2-2-2.5-2c-1.2 0-2.1.5-2.9 1.3l-.5-.5c.7-.9 1.9-1.6 3.4-1.6c1.9 0 3.4 1 3.4 2.8c0 1.6-1.3 2.3-2.2 2.4c.9.1 2.4.9 2.4 2.7c0 1.7-1.3 3-3.6 3c-1.7 0-3-.8-3.6-1.8l.6-.5zm12.2-8.6c2.9 0 3.9 2.9 3.9 5.4c0 2.5-1 5.5-3.9 5.5c-2.8 0-3.9-3-3.9-5.5c0-2.5 1.1-5.4 3.9-5.4zm0 .8c-2.2 0-2.9 2.4-2.9 4.6c0 2.2.7 4.7 2.9 4.7c2.3 0 3-2.5 3-4.7c0-2.2-.7-4.6-3-4.6zm10.3 7h-5v-.8l4.7-6.9h1.2v6.9h1.5v.8h-1.5v2.9h-.9V51zm-4.1-.8h4.1v-6l-4.1 6zm7.9 5.3c.5-.4.8-1 .9-1.5h-.2c-.4 0-.6-.3-.6-.6c0-.4.3-.7.6-.7c.5 0 .9.3.9 1c0 .9-.6 1.7-1.2 2.2l-.4-.4zm3.2-2.3c3.6-2.9 6.1-5 6.1-7c0-1.6-1.3-2.2-2.5-2.2c-1.3 0-2.3.6-2.9 1.4l-.6-.6c.8-1 2.1-1.6 3.5-1.6c1.6 0 3.4.9 3.4 3c0 2.3-2.5 4.4-5.5 6.9h5.5v.8h-7s.04-.73 0-.7zm10.2-1.1c.5.7 1.2 1.2 2.3 1.2c2.4 0 3.2-2.5 3.2-4.7v-.5c-.5.8-1.7 1.8-3.1 1.8c-2 0-3.5-1.1-3.5-3.4c0-1.7 1.3-3.3 3.6-3.3c2.9 0 3.9 2.6 3.9 5.4c0 2.7-1.2 5.5-4.1 5.5c-1.3 0-2.2-.6-2.8-1.4l.5-.6zm2.5-8.1c-1.8 0-2.6 1.4-2.6 2.5c0 1.8 1.1 2.6 2.6 2.6c1.2 0 2.3-.8 2.9-1.8c-.1-1.5-.9-3.3-2.9-3.3zm9.5-.8c2.8 0 3.9 2.9 3.9 5.4c0 2.5-1.1 5.5-3.9 5.5c-2.9 0-3.9-3-3.9-5.5c0-2.5 1-5.4 3.9-5.4zm0 .8c-2.2 0-3 2.4-3 4.6c0 2.2.8 4.7 3 4.7c2.2 0 2.9-2.5 2.9-4.7c0-2.2-.7-4.6-2.9-4.6zm5.8 8.7c.4 0 .7.3.7.7c0 .3-.3.7-.7.7c-.4 0-.7-.4-.7-.7c0-.4.3-.7.7-.7zm6.4-9.5c2.9 0 3.9 2.9 3.9 5.4c0 2.5-1 5.5-3.9 5.5c-2.8 0-3.9-3-3.9-5.5c0-2.5 1.1-5.4 3.9-5.4zm0 .8c-2.2 0-2.9 2.4-2.9 4.6c0 2.2.7 4.7 2.9 4.7c2.2 0 3-2.5 3-4.7c0-2.2-.7-4.6-3-4.6zm9.5-.8c2.9 0 3.9 2.9 3.9 5.4c0 2.5-1 5.5-3.9 5.5c-2.8 0-3.9-3-3.9-5.5c0-2.5 1.1-5.4 3.9-5.4zm0 .8c-2.2 0-2.9 2.4-2.9 4.6c0 2.2.7 4.7 2.9 4.7c2.2 0 3-2.5 3-4.7c0-2.2-.7-4.6-3-4.6z" stroke="none" fill="#242423"/></g><g id="Polygon98896"><path d="m425.6 43.3s4.36.03 4.4 0c1.7 0 2.9 1.1 2.9 2.7c0 1.4-.9 2.3-1.9 2.5c1.2.1 2.1 1.3 2.1 2.6c0 1.7-1.2 2.8-3.1 2.8c.04.02-4.4 0-4.4 0V43.3zm4.3 4.8c1.3 0 2-.9 2-2c0-1.1-.7-1.9-2-1.9c-.05-.05-3.4 0-3.4 0v3.9s3.35-.02 3.4 0zm0 5c1.4 0 2.2-.8 2.2-2.1c0-1.1-.7-2.1-2.2-2.1h-3.4v4.2h3.4zM440 53c-.6.8-1.5 1.1-2.6 1.1c-1.3 0-2.6-.9-2.6-2.5c0-1.7 1.3-2.6 2.6-2.6c1.1 0 2 .4 2.6 1.1v-1.5c0-1.2-.9-1.8-2-1.8c-1 0-1.7.3-2.4 1.1l-.5-.5c.8-.9 1.7-1.3 3-1.3c1.5 0 2.8.7 2.8 2.4c-.03.02 0 5.4 0 5.4h-.9s.05-.88 0-.9zm0-2.3c-.5-.7-1.4-1-2.3-1c-1.2 0-2.1.8-2.1 1.9c0 1.1.9 1.9 2.1 1.9c.9 0 1.8-.4 2.3-1.1v-1.7zm3.1 1.6c.5.6 1.4 1.1 2.5 1.1c1.3 0 2-.6 2-1.5c0-1-1-1.3-2.1-1.6c-1.3-.3-2.7-.6-2.7-2.1c0-1.2 1-2.1 2.7-2.1c1.3 0 2.2.5 2.8 1.1l-.5.6c-.4-.6-1.3-1-2.3-1c-1.2 0-1.9.5-1.9 1.3c0 .9 1 1.2 2.1 1.4c1.3.4 2.7.7 2.7 2.4c0 1.2-.9 2.2-2.8 2.2c-1.3 0-2.2-.4-3-1.2l.5-.6zm10.6-6.2c2.3 0 3.6 1.8 3.6 4v.2s-6.42.05-6.4 0c.1 1.7 1.2 3.1 3 3.1c.9 0 1.8-.4 2.5-1.1l.4.6c-.7.8-1.7 1.2-3 1.2c-2.2 0-3.8-1.7-3.8-4c0-2.2 1.5-4 3.7-4zm-2.8 3.6h5.6c-.1-1.3-.9-2.9-2.8-2.9c-1.9 0-2.8 1.6-2.8 2.9zm15.1-5.5h-3.5v-.9h7.8v.9h-3.4v9.7h-.9v-9.7zm7.3 1.9c2.4 0 3.6 1.8 3.6 4c.04.02 0 .2 0 .2c0 0-6.38.05-6.4 0c.1 1.7 1.2 3.1 3 3.1c1 0 1.9-.4 2.5-1.1l.5.6c-.8.8-1.8 1.2-3 1.2c-2.3 0-3.9-1.7-3.9-4c0-2.2 1.6-4 3.7-4zm-2.8 3.6h5.6c0-1.3-.9-2.9-2.8-2.9c-1.8 0-2.7 1.6-2.8 2.9zm8.4-3.4h.8s.03 1.27 0 1.3c.7-.9 1.6-1.5 2.6-1.5v.9h-.4c-.8 0-1.8.7-2.2 1.3c.03.03 0 5.6 0 5.6h-.8v-7.6zm14 2.3c0-1.1-.4-1.8-1.5-1.8c-.8 0-1.8.6-2.2 1.3c-.02.01 0 5.8 0 5.8h-.9s.04-5.35 0-5.3c0-1.1-.4-1.8-1.5-1.8c-.8 0-1.7.6-2.2 1.3v5.8h-.8v-7.6h.8s.01 1.11 0 1.1c.3-.5 1.4-1.3 2.5-1.3c1.2 0 1.8.7 2 1.4c.4-.7 1.5-1.4 2.5-1.4c1.5 0 2.1.8 2.1 2.3c.04-.01 0 5.5 0 5.5h-.8s.02-5.35 0-5.3z" stroke="none" fill="#242423"/></g><g id="Polygon98895"><path d="m6.4 44.2H.5v-.9h6.9v.7l-4.5 9.9h-1l4.5-9.7zm5.2-1.2h.7L8.5 54.2h-.7L11.6 43zm3.2 1.6l-1.7 1.8l-.6-.6l2.4-2.5h.8v10.6h-.9v-9.3zm6.9-1.4c2.8 0 3.9 2.9 3.9 5.4c0 2.5-1.1 5.5-3.9 5.5c-2.8 0-3.9-3-3.9-5.5c0-2.5 1.1-5.4 3.9-5.4zm0 .8c-2.2 0-3 2.4-3 4.6c0 2.2.8 4.7 3 4.7c2.2 0 3-2.5 3-4.7c0-2.2-.8-4.6-3-4.6zm8.4-1h.7l-3.7 11.2h-.7L30.1 43zm1.5 10.2c3.6-2.9 6-5 6-7c0-1.6-1.3-2.2-2.4-2.2c-1.3 0-2.4.6-2.9 1.4l-.6-.6c.7-1 2-1.6 3.5-1.6c1.5 0 3.3.9 3.3 3c0 2.3-2.4 4.4-5.5 6.9h5.6v.8h-7s-.03-.73 0-.7zm13-10c2.8 0 3.9 2.9 3.9 5.4c0 2.5-1.1 5.5-3.9 5.5c-2.8 0-3.9-3-3.9-5.5c0-2.5 1.1-5.4 3.9-5.4zm0 .8c-2.2 0-3 2.4-3 4.6c0 2.2.8 4.7 3 4.7c2.2 0 3-2.5 3-4.7c0-2.2-.8-4.6-3-4.6zm5.6 9.2c3.6-2.9 6-5 6-7c0-1.6-1.3-2.2-2.4-2.2c-1.4 0-2.4.6-2.9 1.4l-.7-.6c.8-1 2.1-1.6 3.6-1.6c1.5 0 3.3.9 3.3 3c0 2.3-2.5 4.4-5.5 6.9h5.5v.8h-6.9s-.04-.73 0-.7zM63.9 51h-5v-.8l4.7-6.9h1.2v6.9h1.6v.8h-1.6v2.9h-.9V51zm-4.1-.8h4.1v-6l-4.1 6zm11.4-.5h3.8v.8h-3.8v-.8zm14.5-5.5h-5.9v-.9h6.9v.7l-4.5 9.9h-1l4.5-9.7zm5.2-1.2h.7l-3.8 11.2h-.7L90.9 43zm5.4.2c2.8 0 3.9 2.9 3.9 5.4c0 2.5-1.1 5.5-3.9 5.5c-2.9 0-3.9-3-3.9-5.5c0-2.5 1-5.4 3.9-5.4zm0 .8c-2.3 0-3 2.4-3 4.6c0 2.2.7 4.7 3 4.7c2.2 0 2.9-2.5 2.9-4.7c0-2.2-.7-4.6-2.9-4.6zm6.6 8.1c.5.7 1.2 1.2 2.3 1.2c2.4 0 3.2-2.5 3.2-4.7v-.5c-.5.8-1.7 1.8-3.1 1.8c-2 0-3.5-1.1-3.5-3.4c0-1.7 1.3-3.3 3.6-3.3c2.9 0 3.9 2.6 3.9 5.4c0 2.7-1.2 5.5-4.1 5.5c-1.3 0-2.2-.6-2.8-1.4l.5-.6zm2.5-8.1c-1.8 0-2.6 1.4-2.6 2.5c0 1.8 1.1 2.6 2.6 2.6c1.2 0 2.3-.8 2.9-1.8c-.1-1.5-.9-3.3-2.9-3.3zm8.4-1h.7l-3.7 11.2h-.8l3.8-11.2zm1.5 10.2c3.6-2.9 6-5 6-7c0-1.6-1.3-2.2-2.4-2.2c-1.4 0-2.4.6-2.9 1.4l-.7-.6c.8-1 2.1-1.6 3.6-1.6c1.5 0 3.3.9 3.3 3c0 2.3-2.5 4.4-5.5 6.9h5.5v.8h-6.9s-.04-.73 0-.7zm13-10c2.8 0 3.9 2.9 3.9 5.4c0 2.5-1.1 5.5-3.9 5.5c-2.9 0-3.9-3-3.9-5.5c0-2.5 1-5.4 3.9-5.4zm0 .8c-2.2 0-3 2.4-3 4.6c0 2.2.8 4.7 3 4.7c2.2 0 2.9-2.5 2.9-4.7c0-2.2-.7-4.6-2.9-4.6zm5.5 9.2c3.6-2.9 6.1-5 6.1-7c0-1.6-1.3-2.2-2.5-2.2c-1.3 0-2.3.6-2.9 1.4l-.6-.6c.8-1 2.1-1.6 3.5-1.6c1.6 0 3.4.9 3.4 3c0 2.3-2.5 4.4-5.5 6.9h5.5v.8h-7s.04-.73 0-.7zm10.2-1.1c.5.7 1.2 1.2 2.3 1.2c2.4 0 3.2-2.5 3.2-4.7v-.5c-.5.8-1.7 1.8-3.1 1.8c-2 0-3.5-1.1-3.5-3.4c0-1.7 1.3-3.3 3.6-3.3c2.9 0 3.9 2.6 3.9 5.4c0 2.7-1.2 5.5-4.1 5.5c-1.3 0-2.2-.6-2.8-1.4l.5-.6zm2.5-8.1c-1.8 0-2.6 1.4-2.6 2.5c0 1.8 1.1 2.6 2.6 2.6c1.2 0 2.3-.8 2.9-1.8c-.1-1.5-.9-3.3-2.9-3.3z" stroke="none" fill="#242423"/></g><g id="Polygon98894"><path d="m1605.6 19.6c.7.9 1.7 1.3 2.9 1.3c1.4 0 2.3-.9 2.3-2c0-1.3-.9-2.1-2.2-2.1c-1 0-1.7.3-2.4.9c-.02.04-1.2-.3-1.2-.3v-5.8h6.7v1.4h-5.1s.03 3.34 0 3.3c.5-.5 1.4-.9 2.5-.9c1.7 0 3.3 1.2 3.3 3.4c0 2.2-1.6 3.5-3.8 3.5c-1.9 0-3.1-.6-3.9-1.6l.9-1.1zm9.5.7c.5 0 1 .5 1 1c0 .6-.5 1-1 1c-.6 0-1-.4-1-1c0-.5.4-1 1-1zm3.8-.7c.7.9 1.6 1.3 2.9 1.3c1.3 0 2.3-.9 2.3-2c0-1.3-.9-2.1-2.3-2.1c-.9 0-1.7.3-2.4.9c.01.04-1.1-.3-1.1-.3v-5.8h6.7v1.4h-5.1s-.04 3.34 0 3.3c.5-.5 1.4-.9 2.4-.9c1.8 0 3.4 1.2 3.4 3.4c0 2.2-1.7 3.5-3.9 3.5c-1.8 0-3-.6-3.9-1.6l1-1.1zm12.4-8.2c2.9 0 4.1 2.8 4.1 5.5c0 2.6-1.2 5.4-4.1 5.4c-2.9 0-4.2-2.8-4.2-5.4c0-2.7 1.3-5.5 4.2-5.5zm0 1.4c-1.9 0-2.5 2-2.5 4.1c0 2 .6 4 2.5 4c1.9 0 2.5-2 2.5-4c0-2.1-.6-4.1-2.5-4.1zm7.9-1.4c1.6 0 2.6 1.1 2.6 2.6c0 1.5-1 2.6-2.6 2.6c-1.5 0-2.6-1.1-2.6-2.6c0-1.5 1.1-2.6 2.6-2.6zm5.8.2h1l-6.8 10.6h-1l6.8-10.6zm-5.8.7c-.9 0-1.5.8-1.5 1.7c0 1 .6 1.7 1.5 1.7c.9 0 1.5-.7 1.5-1.7c0-.9-.6-1.7-1.5-1.7zm5.6 4.8c1.6 0 2.6 1.1 2.6 2.6c0 1.5-1 2.6-2.6 2.6c-1.5 0-2.5-1.1-2.5-2.6c0-1.5 1-2.6 2.5-2.6zm0 .9c-.8 0-1.5.8-1.5 1.7c0 1 .7 1.7 1.5 1.7c.9 0 1.6-.7 1.6-1.7c0-.9-.7-1.7-1.6-1.7z" stroke="none" fill="#000"/></g><g id="Polygon98892"><path d="m1031 22.3c.04.01 0 1.4 0 1.4h-1.1v-1.4c-1.6-.1-2.8-.7-3.6-1.6l.9-1.3c.6.7 1.5 1.3 2.7 1.5v-3.5c-1.6-.4-3.3-1-3.3-3c0-1.6 1.3-2.8 3.3-3V10h1.1s.04 1.44 0 1.4c1.4.2 2.4.7 3.2 1.5l-.9 1.2c-.6-.7-1.4-1.1-2.3-1.2v3.1c1.7.4 3.4 1 3.4 3.2c0 1.5-.9 2.9-3.4 3.1zm-1.1-6.6v-2.9c-1 .1-1.7.7-1.7 1.5c0 .8.8 1.1 1.7 1.4zm2.9 3.6c0-.9-.8-1.3-1.8-1.6v3.2c1.3-.2 1.8-.9 1.8-1.6zm3 1.6c4-3 5.8-4.6 5.8-6.3c0-1.2-1-1.8-2-1.8c-1.3 0-2.3.5-2.9 1.3l-1-1c.9-1.1 2.4-1.7 3.8-1.7c1.9 0 3.7 1.1 3.7 3.2c0 2.1-1.9 3.9-4.9 6.2c.05-.04 5 0 5 0v1.4h-7.5s.02-1.3 0-1.3zm13.9-1.3h-5v-1.3l4.4-6.7h2.2v6.6h1.5v1.4h-1.5v2.6h-1.6v-2.6zm-3.4-1.4h3.4V13l-3.4 5.2zm7.7 5.5c.5-.4 1-1 1.1-1.5h-.3c-.4 0-.8-.4-.8-.9c0-.5.4-1 1-1c.5 0 1.1.5 1.1 1.4c0 1-.6 1.9-1.4 2.5l-.7-.5zm4.3-10.1l-1.7 1.8l-.9-.9l2.8-2.9h1.4v10.6h-1.6v-8.6zm4.5 6c.7.9 1.7 1.3 2.9 1.3c1.4 0 2.3-.9 2.3-2c0-1.3-.9-2.1-2.2-2.1c-1 0-1.7.3-2.4.9c-.03.04-1.2-.3-1.2-.3v-5.8h6.7v1.4h-5.1s.02 3.34 0 3.3c.5-.5 1.4-.9 2.4-.9c1.8 0 3.4 1.2 3.4 3.4c0 2.2-1.6 3.5-3.9 3.5c-1.8 0-3-.6-3.8-1.6l.9-1.1zm12.3-8.2c2.9 0 4.1 2.8 4.1 5.5c0 2.6-1.2 5.4-4.1 5.4c-2.9 0-4.1-2.8-4.1-5.4c0-2.7 1.2-5.5 4.1-5.5zm0 1.4c-1.9 0-2.5 2-2.5 4.1c0 2 .6 4 2.5 4c1.9 0 2.5-2 2.5-4c0-2.1-.6-4.1-2.5-4.1zm6.1 7.5c.6 0 1 .5 1 1c0 .6-.4 1-1 1c-.5 0-.9-.4-.9-1c0-.5.4-1 .9-1zm6.7-8.9c2.9 0 4.1 2.8 4.1 5.5c0 2.6-1.2 5.4-4.1 5.4c-3 0-4.2-2.8-4.2-5.4c0-2.7 1.2-5.5 4.2-5.5zm0 1.4c-1.9 0-2.6 2-2.6 4.1c0 2 .7 4 2.6 4c1.8 0 2.5-2 2.5-4c0-2.1-.7-4.1-2.5-4.1zm9.6-1.4c2.9 0 4.1 2.8 4.1 5.5c0 2.6-1.2 5.4-4.1 5.4c-3 0-4.2-2.8-4.2-5.4c0-2.7 1.2-5.5 4.2-5.5zm0 1.4c-1.9 0-2.6 2-2.6 4.1c0 2 .7 4 2.6 4c1.8 0 2.5-2 2.5-4c0-2.1-.7-4.1-2.5-4.1z" stroke="none" fill="#242423"/></g><g id="Polygon98891"><path d="m728.3 22.3v1.4h-1.1s-.03-1.37 0-1.4c-1.7-.1-2.9-.7-3.7-1.6l.9-1.3c.6.7 1.6 1.3 2.8 1.5v-3.5c-1.6-.4-3.3-1-3.3-3c0-1.6 1.3-2.8 3.3-3c-.03.02 0-1.4 0-1.4h1.1v1.4c1.3.2 2.4.7 3.2 1.5l-1 1.2c-.6-.7-1.4-1.1-2.2-1.2v3.1c1.7.4 3.4 1 3.4 3.2c0 1.5-1 2.9-3.4 3.1zm-1.1-6.6v-2.9c-1 .1-1.7.7-1.7 1.5c0 .8.7 1.1 1.7 1.4zm2.9 3.6c0-.9-.8-1.3-1.8-1.6v3.2c1.3-.2 1.8-.9 1.8-1.6zm3 1.6c4-3 5.8-4.6 5.8-6.3c0-1.2-1.1-1.8-2.1-1.8c-1.2 0-2.2.5-2.9 1.3l-.9-1c.9-1.1 2.3-1.7 3.8-1.7c1.9 0 3.7 1.1 3.7 3.2c0 2.1-2 3.9-4.9 6.2c.01-.04 4.9 0 4.9 0v1.4h-7.4s-.02-1.3 0-1.3zm11.6-4.2c-1.2-.4-2.3-1.2-2.3-2.5c0-2 1.9-2.8 3.8-2.8c1.8 0 3.7.8 3.7 2.8c0 1.3-1.1 2.1-2.3 2.5c1.3.4 2.5 1.4 2.5 2.8c0 1.8-1.8 2.8-3.9 2.8c-2.2 0-4-1-4-2.8c0-1.4 1.2-2.4 2.5-2.8zm1.5-3.9c-1.3 0-2.2.6-2.2 1.6c0 1.1 1.5 1.5 2.2 1.7c.6-.2 2.1-.6 2.1-1.7c0-1-.9-1.6-2.1-1.6zm0 4.6c-.7.1-2.4.6-2.4 1.9c0 1 1.1 1.6 2.4 1.6c1.2 0 2.3-.6 2.3-1.6c0-1.3-1.7-1.8-2.3-1.9zm6.5 2.5c.5.6 1.2 1 2.2 1c2 0 2.9-1.9 2.9-3.8v-.4c-.5.8-1.6 1.6-2.9 1.6c-1.9 0-3.6-1.1-3.6-3.4c0-1.9 1.5-3.5 3.9-3.5c3 0 4.2 2.5 4.2 5.5c0 2.9-1.5 5.4-4.5 5.4c-1.3 0-2.3-.5-3-1.2l.8-1.2zm2.5-7.1c-1.5 0-2.2 1.1-2.2 2c0 1.5 1 2.1 2.3 2.1c.9 0 1.9-.5 2.4-1.4c0-1.2-.7-2.7-2.5-2.7zm5.2 10.9c.5-.4 1-1 1.1-1.5h-.2c-.5 0-.9-.4-.9-.9c0-.5.4-1 1-1c.6 0 1.1.5 1.1 1.4c0 1-.6 1.9-1.4 2.5l-.7-.5zm5.9-7c-1.2-.4-2.2-1.2-2.2-2.5c0-2 1.9-2.8 3.7-2.8c1.8 0 3.8.8 3.8 2.8c0 1.3-1.1 2.1-2.3 2.5c1.3.4 2.4 1.4 2.4 2.8c0 1.8-1.8 2.8-3.9 2.8c-2.1 0-3.9-1-3.9-2.8c0-1.4 1.1-2.4 2.4-2.8zm1.5-3.9c-1.2 0-2.1.6-2.1 1.6c0 1.1 1.5 1.5 2.1 1.7c.7-.2 2.2-.6 2.2-1.7c0-1-1-1.6-2.2-1.6zm0 4.6c-.6.1-2.3.6-2.3 1.9c0 1 1.1 1.6 2.3 1.6c1.3 0 2.4-.6 2.4-1.6c0-1.3-1.7-1.8-2.4-1.9zm9.4-6c2.9 0 4.1 2.8 4.1 5.5c0 2.6-1.2 5.4-4.1 5.4c-2.9 0-4.1-2.8-4.1-5.4c0-2.7 1.2-5.5 4.1-5.5zm0 1.4c-1.9 0-2.5 2-2.5 4.1c0 2 .6 4 2.5 4c1.9 0 2.5-2 2.5-4c0-2.1-.6-4.1-2.5-4.1zm9.6-1.4c2.9 0 4.1 2.8 4.1 5.5c0 2.6-1.2 5.4-4.1 5.4c-2.9 0-4.2-2.8-4.2-5.4c0-2.7 1.3-5.5 4.2-5.5zm0 1.4c-1.9 0-2.5 2-2.5 4.1c0 2 .6 4 2.5 4c1.9 0 2.5-2 2.5-4c0-2.1-.6-4.1-2.5-4.1zm6.1 7.5c.6 0 1 .5 1 1c0 .6-.4 1-1 1c-.5 0-.9-.4-.9-1c0-.5.4-1 .9-1zm6.7-8.9c2.9 0 4.1 2.8 4.1 5.5c0 2.6-1.2 5.4-4.1 5.4c-3 0-4.2-2.8-4.2-5.4c0-2.7 1.2-5.5 4.2-5.5zm0 1.4c-1.9 0-2.6 2-2.6 4.1c0 2 .7 4 2.6 4c1.8 0 2.5-2 2.5-4c0-2.1-.7-4.1-2.5-4.1zm9.6-1.4c2.9 0 4.1 2.8 4.1 5.5c0 2.6-1.2 5.4-4.1 5.4c-3 0-4.2-2.8-4.2-5.4c0-2.7 1.2-5.5 4.2-5.5zm0 1.4c-1.9 0-2.6 2-2.6 4.1c0 2 .7 4 2.6 4c1.8 0 2.5-2 2.5-4c0-2.1-.7-4.1-2.5-4.1z" stroke="none" fill="#242423"/></g><g id="Polygon98890"><path d="m425.5 11.6s4.94-.04 4.9 0c1.9 0 3 1.1 3 2.7c0 1.3-.8 2.2-1.8 2.4c1.1.2 2 1.3 2 2.6c0 1.7-1.1 2.9-3 2.9c-.03-.05-5.1 0-5.1 0V11.6zm4.6 4.5c1.1 0 1.7-.7 1.7-1.6c0-.9-.6-1.5-1.7-1.5c.04-.04-3 0-3 0v3.1s3.04-.04 3 0zm.1 4.7c1.1 0 1.8-.7 1.8-1.7c0-.9-.6-1.6-1.8-1.6c.02-.05-3.1 0-3.1 0v3.3s3.12-.04 3.1 0zm9.9.5c-.6.7-1.4 1-2.5 1c-1.2 0-2.6-.8-2.6-2.5c0-1.7 1.3-2.5 2.6-2.5c1.1 0 2 .3 2.5 1V17c0-.9-.7-1.5-1.8-1.5c-.9 0-1.7.3-2.3 1l-.7-1c.9-.8 2-1.2 3.2-1.2c1.7 0 3.1.7 3.1 2.7c-.03-.02 0 5.2 0 5.2h-1.5s.04-.88 0-.9zm0-2.1c-.4-.6-1.1-.9-1.9-.9c-1.1 0-1.8.6-1.8 1.5c0 .9.7 1.5 1.8 1.5c.8 0 1.5-.3 1.9-.8v-1.3zm3.6.9c.5.6 1.6 1.1 2.6 1.1c1.1 0 1.6-.4 1.6-1.1c0-.8-.8-1-1.8-1.2c-1.3-.3-2.8-.7-2.8-2.3c0-1.3 1-2.3 2.9-2.3c1.3 0 2.2.5 2.9 1.1l-.6 1c-.5-.6-1.3-.9-2.3-.9c-1 0-1.6.3-1.6 1c0 .6.8.8 1.8 1.1c1.3.3 2.9.6 2.9 2.4c0 1.3-1.1 2.3-3.1 2.3c-1.3 0-2.4-.4-3.2-1.1l.7-1.1zm10.6-5.8c2.3 0 3.8 1.8 3.8 4.1c-.03.04 0 .4 0 .4c0 0-6.1-.01-6.1 0c.1 1.3 1.1 2.4 2.6 2.4c.8 0 1.7-.3 2.3-.9l.6.9c-.7.7-1.8 1.1-3 1.1c-2.3 0-4-1.6-4-4c0-2.2 1.6-4 3.8-4zm-2.3 3.5h4.7c-.1-1.1-.7-2.3-2.4-2.3c-1.5 0-2.2 1.2-2.3 2.3zm14.3-4.8H463v-1.4h8.1v1.4h-3.2v9.2h-1.6V13zm7.9 1.3c2.3 0 3.7 1.8 3.7 4.1c.04.04 0 .4 0 .4h-6c.1 1.3 1 2.4 2.6 2.4c.8 0 1.7-.3 2.3-.9l.6.9c-.7.7-1.8 1.1-3.1 1.1c-2.3 0-3.9-1.6-3.9-4c0-2.2 1.6-4 3.8-4zm-2.3 3.5h4.6c0-1.1-.7-2.3-2.3-2.3c-1.5 0-2.3 1.2-2.3 2.3zm7.7-3.3h1.4v1.2c.6-.8 1.5-1.4 2.5-1.4v1.5c-.1-.1-.3-.1-.5-.1c-.7 0-1.7.5-2 1.1v5.4h-1.4v-7.7zm14.5 2.5c0-.8-.4-1.4-1.3-1.4c-.8 0-1.6.5-1.9 1.1c-.03-.04 0 5.5 0 5.5h-1.5s.04-5.16 0-5.2c0-.8-.3-1.4-1.3-1.4c-.8 0-1.5.5-1.9 1.1c.02-.02 0 5.5 0 5.5h-1.4v-7.7h1.4s.02 1.06 0 1.1c.3-.5 1.4-1.3 2.5-1.3c1.2 0 1.8.6 2.1 1.4c.4-.7 1.4-1.4 2.6-1.4c1.4 0 2.1.8 2.1 2.3c.04.01 0 5.6 0 5.6h-1.4V17z" stroke="none" fill="#242423"/></g><g id="Polygon98889"><path d="m6.1 13H.5v-1.4h7.4v1.1l-4.2 9.5H1.9L6.1 13zm5.8-1.8h1.1L9.2 22.5H8.1l3.8-11.3zm3.9 2.4l-1.7 1.8l-1-.9l2.9-2.9h1.4v10.6h-1.6v-8.6zm7.5-2.2c2.9 0 4.1 2.8 4.1 5.5c0 2.6-1.2 5.4-4.1 5.4c-3 0-4.2-2.8-4.2-5.4c0-2.7 1.2-5.5 4.2-5.5zm0 1.4c-1.9 0-2.6 2-2.6 4.1c0 2 .7 4 2.6 4c1.8 0 2.5-2 2.5-4c0-2.1-.7-4.1-2.5-4.1zm8.4-1.6h1.1l-3.7 11.3H28l3.7-11.3zm1.8 9.7c4-3 5.8-4.6 5.8-6.3c0-1.2-1-1.8-2.1-1.8c-1.2 0-2.2.5-2.8 1.3l-1-1c.9-1.1 2.4-1.7 3.8-1.7c1.9 0 3.7 1.1 3.7 3.2c0 2.1-2 3.9-4.9 6.2c.04-.04 5 0 5 0v1.4h-7.5v-1.3zm13.3-9.5c2.9 0 4.1 2.8 4.1 5.5c0 2.6-1.2 5.4-4.1 5.4c-2.9 0-4.2-2.8-4.2-5.4c0-2.7 1.3-5.5 4.2-5.5zm0 1.4c-1.9 0-2.5 2-2.5 4.1c0 2 .6 4 2.5 4c1.9 0 2.5-2 2.5-4c0-2.1-.6-4.1-2.5-4.1zm7.6.8l-1.7 1.8l-.9-.9l2.8-2.9h1.4v10.6h-1.6v-8.6zm4.7 6.3c.5.6 1.1 1 2.2 1c2 0 2.9-1.9 2.9-3.8v-.4c-.5.8-1.7 1.6-2.9 1.6c-1.9 0-3.6-1.1-3.6-3.4c0-1.9 1.5-3.5 3.8-3.5c3.1 0 4.3 2.5 4.3 5.5c0 2.9-1.5 5.4-4.5 5.4c-1.3 0-2.3-.5-3-1.2l.8-1.2zm2.5-7.1c-1.5 0-2.2 1.1-2.2 2c0 1.5 1 2.1 2.3 2.1c.9 0 1.9-.5 2.4-1.4c-.1-1.2-.7-2.7-2.5-2.7zm9.2 4.9h3.8v1.2h-3.8v-1.2zM84.9 13h-5.6v-1.4h7.4v1.1l-4.2 9.5h-1.7l4.1-9.2zm5.9-1.8h1l-3.7 11.3H87l3.8-11.3zm5.8.2c2.9 0 4.1 2.8 4.1 5.5c0 2.6-1.2 5.4-4.1 5.4c-3 0-4.2-2.8-4.2-5.4c0-2.7 1.2-5.5 4.2-5.5zm0 1.4c-1.9 0-2.6 2-2.6 4.1c0 2 .7 4 2.6 4c1.8 0 2.5-2 2.5-4c0-2.1-.7-4.1-2.5-4.1zm6.7 7.1c.5.6 1.2 1 2.2 1c2.1 0 2.9-1.9 2.9-3.8v-.4c-.5.8-1.6 1.6-2.9 1.6c-1.9 0-3.5-1.1-3.5-3.4c0-1.9 1.4-3.5 3.8-3.5c3 0 4.2 2.5 4.2 5.5c0 2.9-1.5 5.4-4.5 5.4c-1.3 0-2.3-.5-3-1.2l.8-1.2zm2.6-7.1c-1.6 0-2.3 1.1-2.3 2c0 1.5 1 2.1 2.3 2.1c1 0 1.9-.5 2.5-1.4c-.1-1.2-.8-2.7-2.5-2.7zm8.5-1.6h1l-3.7 11.3h-1.1l3.8-11.3zm1.7 9.7c4-3 5.8-4.6 5.8-6.3c0-1.2-1-1.8-2.1-1.8c-1.2 0-2.2.5-2.8 1.3l-1-1c.9-1.1 2.4-1.7 3.8-1.7c1.9 0 3.7 1.1 3.7 3.2c0 2.1-2 3.9-4.9 6.2c.04-.04 5 0 5 0v1.4h-7.5s.02-1.3 0-1.3zm13.3-9.5c2.9 0 4.1 2.8 4.1 5.5c0 2.6-1.2 5.4-4.1 5.4c-2.9 0-4.2-2.8-4.2-5.4c0-2.7 1.3-5.5 4.2-5.5zm0 1.4c-1.9 0-2.5 2-2.5 4.1c0 2 .6 4 2.5 4c1.9 0 2.5-2 2.5-4c0-2.1-.6-4.1-2.5-4.1zm5.5 8.1c4-3 5.8-4.6 5.8-6.3c0-1.2-1-1.8-2-1.8c-1.3 0-2.3.5-2.9 1.3l-.9-1c.8-1.1 2.3-1.7 3.8-1.7c1.9 0 3.7 1.1 3.7 3.2c0 2.1-2 3.9-4.9 6.2c-.04-.04 4.9 0 4.9 0v1.4h-7.5s.04-1.3 0-1.3zm13.9-1.3h-5v-1.3l4.5-6.7h2.1v6.6h1.5v1.4h-1.5v2.6h-1.6v-2.6zm-3.4-1.4h3.4V13l-3.4 5.2z" stroke="none" fill="#242423"/></g><g id="Rectangle98893"><path d="m1333.6 17.7h3.8v1.2h-3.8v-1.2z" stroke="none" fill="#242423"/></g></svg>