<?xml version="1.0" standalone="no"?><!DOCTYPE svg PUBLIC "-//W3C//DTD SVG 1.1//EN" "http://www.w3.org/Graphics/SVG/1.1/DTD/svg11.dtd"><svg xmlns="http://www.w3.org/2000/svg" version="1.1" width="89.3px" height="16.9px" viewBox="0 -4 89.3 16.9" style="top:-4px"><desc>Commencement Date</desc><defs/><g id="Polygon281794"><path d="m.4 4.1C.4 2.3 1.8 1 3.5 1c1.2 0 1.9.6 2.4 1.3l-.8.4c-.3-.5-.9-.9-1.6-.9c-1.2 0-2.2 1-2.2 2.3c0 1.4 1 2.3 2.2 2.3c.7 0 1.3-.4 1.6-.9l.8.4c-.5.8-1.2 1.3-2.4 1.3C1.8 7.2.4 6 .4 4.1zm6.1.8c0-1.2.8-2.2 2.2-2.2c1.3 0 2.2 1 2.2 2.2c0 1.3-.9 2.3-2.2 2.3c-1.4 0-2.2-1-2.2-2.3zm3.5 0c0-.8-.4-1.5-1.3-1.5c-.9 0-1.4.7-1.4 1.5c0 .9.5 1.6 1.4 1.6c.9 0 1.3-.7 1.3-1.6zm7.2-.7c0-.5-.2-.8-.8-.8c-.4 0-.8.3-1 .6c-.05 0 0 3.1 0 3.1h-.9s.04-2.89 0-2.9c0-.5-.2-.8-.7-.8c-.4 0-.9.3-1.1.6c.02 0 0 3.1 0 3.1h-.8V2.8h.8s.02.57 0 .6c.2-.3.8-.7 1.4-.7c.7 0 1.1.3 1.2.8c.3-.4.8-.8 1.5-.8c.8 0 1.2.4 1.2 1.3v3.1h-.8V4.2zm7.4 0c0-.5-.3-.8-.8-.8c-.4 0-.9.3-1.1.6c.03 0 0 3.1 0 3.1h-.8s.02-2.89 0-2.9c0-.5-.2-.8-.7-.8c-.5 0-.9.3-1.1.6v3.1h-.8V2.8h.8v.6c.2-.3.8-.7 1.4-.7c.7 0 1 .3 1.2.8c.2-.4.8-.8 1.4-.8c.8 0 1.3.4 1.3 1.3c-.02-.03 0 3.1 0 3.1h-.8s-.03-2.89 0-2.9zm4-1.5c1.3 0 2.1 1 2.1 2.3v.2h-3.4c0 .7.6 1.4 1.4 1.4c.5 0 1-.2 1.3-.6l.4.6c-.4.4-1.1.6-1.8.6c-1.2 0-2.2-.9-2.2-2.3c0-1.2.9-2.2 2.2-2.2zm-1.4 1.9h2.7c0-.6-.4-1.3-1.3-1.3c-.9 0-1.3.7-1.4 1.3zm7.4-.3c0-.7-.3-.9-.9-.9c-.5 0-.9.3-1.2.6c.02 0 0 3.1 0 3.1h-.8V2.8h.8s.02.57 0 .6c.3-.4.9-.7 1.6-.7c.9 0 1.4.4 1.4 1.4c-.05-.04 0 3 0 3h-.9s.04-2.77 0-2.8zm4.1-1.6c.8 0 1.3.3 1.6.7l-.5.5c-.3-.4-.6-.5-1.1-.5c-.8 0-1.4.6-1.4 1.5c0 .9.6 1.6 1.4 1.6c.5 0 .8-.2 1.1-.5l.5.5c-.3.4-.8.7-1.6.7c-1.3 0-2.2-1-2.2-2.3c0-1.3.9-2.2 2.2-2.2zm4.4 0c1.3 0 2.1 1 2.1 2.3c.02 0 0 .2 0 .2h-3.4c0 .7.6 1.4 1.5 1.4c.4 0 .9-.2 1.2-.6l.4.6c-.4.4-1 .6-1.7.6c-1.3 0-2.3-.9-2.3-2.3c0-1.2.9-2.2 2.2-2.2zm-1.3 1.9h2.6c0-.6-.4-1.3-1.3-1.3c-.9 0-1.3.7-1.3 1.3zm9.7-.4c0-.5-.2-.8-.7-.8c-.5 0-.9.3-1.1.6v3.1h-.8s-.02-2.89 0-2.9c0-.5-.2-.8-.8-.8c-.4 0-.8.3-1 .6c-.05 0 0 3.1 0 3.1h-.9V2.8h.9s-.05.57 0 .6c.1-.3.7-.7 1.4-.7c.6 0 1 .3 1.1.8c.3-.4.9-.8 1.5-.8c.8 0 1.2.4 1.2 1.3c.03-.03 0 3.1 0 3.1h-.8s.02-2.89 0-2.9zm4-1.5c1.3 0 2.1 1 2.1 2.3c.04 0 0 .2 0 .2h-3.4c.1.7.6 1.4 1.5 1.4c.4 0 .9-.2 1.3-.6l.3.6c-.4.4-1 .6-1.7.6c-1.3 0-2.2-.9-2.2-2.3c0-1.2.9-2.2 2.1-2.2zm-1.3 1.9h2.7c-.1-.6-.5-1.3-1.4-1.3c-.8 0-1.3.7-1.3 1.3zm7.4-.3c0-.7-.4-.9-.9-.9c-.5 0-1 .3-1.2.6c-.03 0 0 3.1 0 3.1h-.8V2.8h.8s-.03.57 0 .6c.3-.4.8-.7 1.5-.7c.9 0 1.4.4 1.4 1.4v3h-.8V4.3zm2.3 1.8c-.05.05 0-2.6 0-2.6h-.8v-.7h.8V1.6h.8v1.2h.8v.7h-.8s-.04 2.47 0 2.5c0 .3.1.5.4.5c.2 0 .3-.1.4-.2l.2.6c-.1.2-.4.3-.8.3c-.7 0-1-.4-1-1.1zm4.9-5h2.1c1.9 0 3.1 1.3 3.1 3c0 1.8-1.2 3-3.1 3h-2.1v-6zm2.1 5.2c1.4 0 2.2-1 2.2-2.2c0-1.2-.8-2.2-2.2-2.2h-1.2v4.4s1.23.02 1.2 0zm6.9.3c-.3.4-.8.6-1.4.6c-.7 0-1.5-.5-1.5-1.4c0-1 .7-1.4 1.5-1.4c.6 0 1.1.1 1.4.5v-.7c0-.5-.4-.9-1.1-.9c-.5 0-.9.2-1.3.6l-.3-.5c.5-.5 1.1-.7 1.8-.7c.9 0 1.7.4 1.7 1.5v2.9h-.8v-.5zm0-1.2c-.2-.3-.7-.5-1.1-.5c-.6 0-1 .4-1 .9c0 .5.4.9 1 .9c.4 0 .9-.2 1.1-.5v-.8zm2.3.7c-.04.05 0-2.6 0-2.6h-.8v-.7h.8V1.6h.8v1.2h.9v.7h-.9s-.03 2.47 0 2.5c0 .3.1.5.4.5c.2 0 .4-.1.4-.2l.2.6c-.1.2-.4.3-.8.3c-.7 0-1-.4-1-1.1zm4.5-3.4c1.3 0 2.1 1 2.1 2.3c-.02 0 0 .2 0 .2h-3.5c.1.7.6 1.4 1.5 1.4c.5 0 1-.2 1.3-.6l.4.6c-.5.4-1.1.6-1.8.6c-1.3 0-2.2-.9-2.2-2.3c0-1.2.9-2.2 2.2-2.2zm-1.4 1.9h2.7c0-.6-.4-1.3-1.3-1.3c-.9 0-1.3.7-1.4 1.3z" stroke="none" fill="#000"/></g></svg>