<?xml version="1.0" standalone="no"?>
<!DOCTYPE svg PUBLIC "-//W3C//DTD SVG 1.1//EN" "http://www.w3.org/Graphics/SVG/1.1/DTD/svg11.dtd">
<svg xmlns="http://www.w3.org/2000/svg" version="1.1" width="82.4px" height="157.3px" viewBox="0 -4 82.4 157.3" style="top:-4px">
  <desc>Real Estate Taxes Insurance Roof &amp; Structure Lease Guarantor Company Name Ownership Years in Business Number of Locat</desc>
  <defs/>
  <g id="Polygon210729">
    <path d="M 0.9 146.1 L 0.3 146.5 L 0.2 146.2 L 0.8 145.9 L 0.2 145.6 L 0.3 145.4 L 0.9 145.7 L 0.9 145 L 1.2 145 L 1.1 145.7 L 1.7 145.4 L 1.8 145.6 L 1.2 145.9 L 1.8 146.2 L 1.7 146.5 L 1.1 146.1 L 1.2 146.8 L 0.9 146.8 L 0.9 146.1 Z M 4.3 145 C 5.5 145 6.3 145.9 6.3 147.1 C 6.3 148.3 5.5 149.2 4.3 149.2 C 3.1 149.2 2.3 148.3 2.3 147.1 C 2.3 145.9 3.1 145 4.3 145 Z M 4.3 145.5 C 3.4 145.5 2.8 146.2 2.8 147.1 C 2.8 148 3.4 148.7 4.3 148.7 C 5.2 148.7 5.7 148 5.7 147.1 C 5.7 146.2 5.2 145.5 4.3 145.5 Z M 7 150.2 L 7 146.2 L 7.4 146.2 C 7.4 146.2 7.41 146.64 7.4 146.6 C 7.6 146.3 8 146.1 8.4 146.1 C 9.2 146.1 9.7 146.7 9.7 147.7 C 9.7 148.6 9.2 149.2 8.4 149.2 C 8 149.2 7.6 149 7.4 148.7 C 7.41 148.67 7.4 150.2 7.4 150.2 L 7 150.2 Z M 8.3 146.5 C 7.9 146.5 7.6 146.8 7.4 147 C 7.4 147 7.4 148.3 7.4 148.3 C 7.6 148.6 7.9 148.8 8.3 148.8 C 8.9 148.8 9.2 148.3 9.2 147.7 C 9.2 147 8.9 146.5 8.3 146.5 Z M 10.4 148.5 C 10.43 148.5 10.4 146.6 10.4 146.6 L 10 146.6 L 10 146.2 L 10.4 146.2 L 10.4 145.4 L 10.9 145.4 L 10.9 146.2 L 11.5 146.2 L 11.5 146.6 L 10.9 146.6 C 10.9 146.6 10.88 148.41 10.9 148.4 C 10.9 148.6 11 148.8 11.2 148.8 C 11.3 148.8 11.4 148.7 11.5 148.7 C 11.5 148.7 11.6 149 11.6 149 C 11.5 149.1 11.3 149.2 11.1 149.2 C 10.6 149.2 10.4 148.9 10.4 148.5 Z M 12 145.4 C 12 145.3 12.1 145.1 12.3 145.1 C 12.4 145.1 12.6 145.3 12.6 145.4 C 12.6 145.6 12.4 145.7 12.3 145.7 C 12.1 145.7 12 145.6 12 145.4 Z M 12 146.2 L 12.5 146.2 L 12.5 149.1 L 12 149.1 L 12 146.2 Z M 13.2 147.7 C 13.2 146.8 13.7 146.1 14.6 146.1 C 15.5 146.1 16 146.8 16 147.7 C 16 148.5 15.5 149.2 14.6 149.2 C 13.7 149.2 13.2 148.5 13.2 147.7 Z M 15.6 147.7 C 15.6 147.1 15.2 146.5 14.6 146.5 C 14 146.5 13.6 147.1 13.6 147.7 C 13.6 148.3 14 148.8 14.6 148.8 C 15.2 148.8 15.6 148.3 15.6 147.7 Z M 18.7 147.2 C 18.7 146.7 18.4 146.5 18 146.5 C 17.7 146.5 17.3 146.8 17.2 147 C 17.16 146.99 17.2 149.1 17.2 149.1 L 16.7 149.1 L 16.7 146.2 L 17.2 146.2 C 17.2 146.2 17.16 146.63 17.2 146.6 C 17.4 146.4 17.8 146.1 18.2 146.1 C 18.8 146.1 19.1 146.4 19.1 147.1 C 19.12 147.08 19.1 149.1 19.1 149.1 L 18.7 149.1 C 18.7 149.1 18.67 147.21 18.7 147.2 Z M 21.8 148.8 C 21.5 149 21.2 149.2 20.8 149.2 C 20.3 149.2 19.8 148.9 19.8 148.2 C 19.8 147.6 20.3 147.3 20.8 147.3 C 21.2 147.3 21.5 147.4 21.8 147.7 C 21.8 147.7 21.8 147.1 21.8 147.1 C 21.8 146.8 21.5 146.5 21 146.5 C 20.7 146.5 20.4 146.7 20.1 146.9 C 20.1 146.9 19.9 146.6 19.9 146.6 C 20.2 146.3 20.6 146.1 21.1 146.1 C 21.7 146.1 22.2 146.4 22.2 147.1 C 22.22 147.12 22.2 149.1 22.2 149.1 L 21.8 149.1 C 21.8 149.1 21.77 148.78 21.8 148.8 Z M 21.8 148 C 21.6 147.7 21.3 147.6 21 147.6 C 20.5 147.6 20.3 147.9 20.3 148.2 C 20.3 148.6 20.5 148.9 21 148.9 C 21.3 148.9 21.6 148.7 21.8 148.5 C 21.8 148.5 21.8 148 21.8 148 Z M 23.1 145.1 L 23.5 145.1 L 23.5 149.1 L 23.1 149.1 L 23.1 145.1 Z M 26.4 145.9 L 26.4 149.1 L 25.9 149.1 L 25.9 145.1 L 26.4 145.1 L 28.7 148.3 L 28.7 145.1 L 29.2 145.1 L 29.2 149.1 L 28.7 149.1 L 26.4 145.9 Z M 29.9 147.7 C 29.9 146.8 30.4 146.1 31.3 146.1 C 32.2 146.1 32.7 146.8 32.7 147.7 C 32.7 148.5 32.2 149.2 31.3 149.2 C 30.4 149.2 29.9 148.5 29.9 147.7 Z M 32.2 147.7 C 32.2 147.1 31.9 146.5 31.3 146.5 C 30.7 146.5 30.3 147.1 30.3 147.7 C 30.3 148.3 30.7 148.8 31.3 148.8 C 31.9 148.8 32.2 148.3 32.2 147.7 Z M 33.5 148.5 C 33.49 148.5 33.5 146.6 33.5 146.6 L 33 146.6 L 33 146.2 L 33.5 146.2 L 33.5 145.4 L 33.9 145.4 L 33.9 146.2 L 34.5 146.2 L 34.5 146.6 L 33.9 146.6 C 33.9 146.6 33.94 148.41 33.9 148.4 C 33.9 148.6 34 148.8 34.2 148.8 C 34.4 148.8 34.5 148.7 34.5 148.7 C 34.5 148.7 34.7 149 34.7 149 C 34.6 149.1 34.4 149.2 34.1 149.2 C 33.7 149.2 33.5 148.9 33.5 148.5 Z M 36.4 146.1 C 37.2 146.1 37.8 146.8 37.8 147.7 C 37.75 147.69 37.8 147.8 37.8 147.8 C 37.8 147.8 35.41 147.81 35.4 147.8 C 35.4 148.4 35.8 148.8 36.4 148.8 C 36.8 148.8 37.1 148.7 37.3 148.4 C 37.3 148.4 37.6 148.7 37.6 148.7 C 37.3 149 36.9 149.2 36.4 149.2 C 35.5 149.2 34.9 148.6 34.9 147.7 C 34.9 146.8 35.5 146.1 36.4 146.1 Z M 35.4 147.5 C 35.4 147.5 37.3 147.5 37.3 147.5 C 37.3 147 37 146.5 36.4 146.5 C 35.7 146.5 35.4 147 35.4 147.5 Z " stroke="none" fill="#88898a"/>
  </g>
  <g id="Polygon210728">
    <path d="M 1.6 128.5 L 1.6 133.1 L 0.7 133.1 L 0.7 127.1 L 1.6 127.1 L 4.9 131.6 L 4.9 127.1 L 5.8 127.1 L 5.8 133.1 L 4.9 133.1 L 1.6 128.5 Z M 9.9 132.5 C 9.6 132.9 9 133.2 8.4 133.2 C 7.4 133.2 7 132.8 7 131.8 C 6.98 131.83 7 128.8 7 128.8 L 7.8 128.8 C 7.8 128.8 7.79 131.56 7.8 131.6 C 7.8 132.3 8.2 132.5 8.7 132.5 C 9.2 132.5 9.7 132.2 9.9 131.9 C 9.92 131.89 9.9 128.8 9.9 128.8 L 10.7 128.8 L 10.7 133.1 L 9.9 133.1 C 9.9 133.1 9.92 132.52 9.9 132.5 Z M 17.2 130.2 C 17.2 129.7 17 129.4 16.5 129.4 C 16 129.4 15.6 129.7 15.4 130 C 15.37 130 15.4 133.1 15.4 133.1 L 14.6 133.1 C 14.6 133.1 14.56 130.21 14.6 130.2 C 14.6 129.7 14.3 129.4 13.8 129.4 C 13.4 129.4 13 129.7 12.7 130 C 12.73 130 12.7 133.1 12.7 133.1 L 11.9 133.1 L 11.9 128.8 L 12.7 128.8 C 12.7 128.8 12.73 129.37 12.7 129.4 C 12.9 129.1 13.5 128.7 14.1 128.7 C 14.8 128.7 15.2 129 15.3 129.5 C 15.6 129.1 16.1 128.7 16.8 128.7 C 17.6 128.7 18 129.1 18 130 C 18.02 129.97 18 133.1 18 133.1 L 17.2 133.1 C 17.2 133.1 17.21 130.21 17.2 130.2 Z M 19.2 127.1 L 20 127.1 C 20 127.1 20.02 129.39 20 129.4 C 20.4 128.9 20.9 128.7 21.4 128.7 C 22.6 128.7 23.4 129.5 23.4 130.9 C 23.4 132.4 22.6 133.2 21.4 133.2 C 20.9 133.2 20.3 132.9 20 132.5 C 20.02 132.49 20 133.1 20 133.1 L 19.2 133.1 L 19.2 127.1 Z M 21.2 132.5 C 22 132.5 22.5 131.9 22.5 130.9 C 22.5 130 22 129.4 21.2 129.4 C 20.7 129.4 20.2 129.7 20 130 C 20 130 20 131.9 20 131.9 C 20.2 132.2 20.7 132.5 21.2 132.5 Z M 26.2 128.7 C 27.5 128.7 28.3 129.7 28.3 131 C 28.35 131 28.3 131.2 28.3 131.2 C 28.3 131.2 24.91 131.2 24.9 131.2 C 25 131.9 25.5 132.6 26.4 132.6 C 26.8 132.6 27.4 132.4 27.7 132 C 27.7 132 28.1 132.6 28.1 132.6 C 27.6 133 27 133.2 26.3 133.2 C 25 133.2 24.1 132.3 24.1 130.9 C 24.1 129.7 25 128.7 26.2 128.7 Z M 24.9 130.6 C 24.9 130.6 27.6 130.6 27.6 130.6 C 27.5 130 27.2 129.3 26.2 129.3 C 25.4 129.3 24.9 130 24.9 130.6 Z M 29.3 128.8 L 30.1 128.8 C 30.1 128.8 30.09 129.43 30.1 129.4 C 30.4 129 30.9 128.7 31.5 128.7 C 31.5 128.7 31.5 129.5 31.5 129.5 C 31.4 129.5 31.3 129.5 31.2 129.5 C 30.8 129.5 30.3 129.8 30.1 130.1 C 30.09 130.09 30.1 133.1 30.1 133.1 L 29.3 133.1 L 29.3 128.8 Z M 34.2 130.9 C 34.2 129.7 35 128.7 36.4 128.7 C 37.7 128.7 38.6 129.7 38.6 130.9 C 38.6 132.2 37.7 133.2 36.4 133.2 C 35 133.2 34.2 132.2 34.2 130.9 Z M 37.7 130.9 C 37.7 130.1 37.3 129.4 36.4 129.4 C 35.5 129.4 35 130.1 35 130.9 C 35 131.8 35.5 132.5 36.4 132.5 C 37.3 132.5 37.7 131.8 37.7 130.9 Z M 39.7 129.5 L 39 129.5 L 39 128.8 L 39.7 128.8 C 39.7 128.8 39.72 128.48 39.7 128.5 C 39.7 127.5 40.3 127 41 127 C 41.3 127 41.6 127.1 41.7 127.2 C 41.7 127.2 41.6 127.8 41.6 127.8 C 41.5 127.7 41.3 127.7 41.2 127.7 C 40.8 127.7 40.5 128 40.5 128.5 C 40.53 128.48 40.5 128.8 40.5 128.8 L 41.4 128.8 L 41.4 129.5 L 40.5 129.5 L 40.5 133.1 L 39.7 133.1 L 39.7 129.5 Z M 44.3 127.1 L 45.2 127.1 L 45.2 132.3 L 48 132.3 L 48 133.1 L 44.3 133.1 L 44.3 127.1 Z M 48.4 130.9 C 48.4 129.7 49.3 128.7 50.6 128.7 C 52 128.7 52.8 129.7 52.8 130.9 C 52.8 132.2 52 133.2 50.6 133.2 C 49.3 133.2 48.4 132.2 48.4 130.9 Z M 52 130.9 C 52 130.1 51.5 129.4 50.6 129.4 C 49.8 129.4 49.3 130.1 49.3 130.9 C 49.3 131.8 49.8 132.5 50.6 132.5 C 51.5 132.5 52 131.8 52 130.9 Z M 55.7 128.7 C 56.5 128.7 57 129 57.3 129.4 C 57.3 129.4 56.8 129.9 56.8 129.9 C 56.5 129.5 56.2 129.4 55.7 129.4 C 54.9 129.4 54.3 130 54.3 130.9 C 54.3 131.8 54.9 132.5 55.7 132.5 C 56.2 132.5 56.5 132.3 56.8 132 C 56.8 132 57.3 132.5 57.3 132.5 C 57 132.9 56.5 133.2 55.7 133.2 C 54.4 133.2 53.5 132.2 53.5 130.9 C 53.5 129.6 54.4 128.7 55.7 128.7 Z M 60.8 132.6 C 60.5 133 60 133.2 59.4 133.2 C 58.7 133.2 57.9 132.7 57.9 131.8 C 57.9 130.8 58.7 130.4 59.4 130.4 C 60 130.4 60.5 130.5 60.8 130.9 C 60.8 130.9 60.8 130.2 60.8 130.2 C 60.8 129.7 60.4 129.3 59.7 129.3 C 59.2 129.3 58.8 129.5 58.4 129.9 C 58.4 129.9 58.1 129.4 58.1 129.4 C 58.6 128.9 59.2 128.7 59.9 128.7 C 60.8 128.7 61.6 129.1 61.6 130.2 C 61.61 130.18 61.6 133.1 61.6 133.1 L 60.8 133.1 C 60.8 133.1 60.8 132.63 60.8 132.6 Z M 60.8 131.4 C 60.6 131.1 60.1 130.9 59.7 130.9 C 59.1 130.9 58.7 131.3 58.7 131.8 C 58.7 132.3 59.1 132.7 59.7 132.7 C 60.1 132.7 60.6 132.5 60.8 132.2 C 60.8 132.2 60.8 131.4 60.8 131.4 Z M 63 132.1 C 62.98 132.15 63 129.5 63 129.5 L 62.3 129.5 L 62.3 128.8 L 63 128.8 L 63 127.6 L 63.8 127.6 L 63.8 128.8 L 64.7 128.8 L 64.7 129.5 L 63.8 129.5 C 63.8 129.5 63.79 131.97 63.8 132 C 63.8 132.3 63.9 132.5 64.2 132.5 C 64.4 132.5 64.6 132.4 64.7 132.3 C 64.7 132.3 64.9 132.9 64.9 132.9 C 64.7 133.1 64.4 133.2 64 133.2 C 63.3 133.2 63 132.8 63 132.1 Z M 65.4 127.5 C 65.4 127.2 65.6 127 65.9 127 C 66.2 127 66.4 127.2 66.4 127.5 C 66.4 127.8 66.2 128 65.9 128 C 65.6 128 65.4 127.8 65.4 127.5 Z M 65.5 128.8 L 66.3 128.8 L 66.3 133.1 L 65.5 133.1 L 65.5 128.8 Z M 67.2 130.9 C 67.2 129.7 68.1 128.7 69.4 128.7 C 70.8 128.7 71.6 129.7 71.6 130.9 C 71.6 132.2 70.8 133.2 69.4 133.2 C 68.1 133.2 67.2 132.2 67.2 130.9 Z M 70.8 130.9 C 70.8 130.1 70.3 129.4 69.4 129.4 C 68.6 129.4 68.1 130.1 68.1 130.9 C 68.1 131.8 68.6 132.5 69.4 132.5 C 70.3 132.5 70.8 131.8 70.8 130.9 Z M 75.5 130.3 C 75.5 129.6 75.1 129.4 74.6 129.4 C 74.1 129.4 73.6 129.7 73.4 130 C 73.36 130 73.4 133.1 73.4 133.1 L 72.5 133.1 L 72.5 128.8 L 73.4 128.8 C 73.4 128.8 73.36 129.37 73.4 129.4 C 73.6 129 74.2 128.7 74.9 128.7 C 75.8 128.7 76.3 129.1 76.3 130.1 C 76.29 130.06 76.3 133.1 76.3 133.1 L 75.5 133.1 C 75.5 133.1 75.48 130.33 75.5 130.3 Z M 77.5 131.9 C 77.8 132.3 78.4 132.6 79 132.6 C 79.6 132.6 79.9 132.3 79.9 131.9 C 79.9 131.5 79.4 131.4 78.8 131.2 C 78.1 131.1 77.2 130.9 77.2 129.9 C 77.2 129.2 77.8 128.7 78.9 128.7 C 79.6 128.7 80.2 128.9 80.5 129.3 C 80.5 129.3 80.2 129.8 80.2 129.8 C 79.9 129.5 79.5 129.3 78.9 129.3 C 78.4 129.3 78 129.5 78 129.9 C 78 130.3 78.5 130.4 79 130.5 C 79.8 130.7 80.7 130.9 80.7 131.9 C 80.7 132.6 80.1 133.2 78.9 133.2 C 78.2 133.2 77.6 133 77.1 132.5 C 77.1 132.5 77.5 131.9 77.5 131.9 Z " stroke="none" fill="#242423"/>
  </g>
  <g id="Polygon210727">
    <path d="M 2.4 112.6 L 0 109.1 L 1.1 109.1 L 2.8 111.8 L 4.6 109.1 L 5.6 109.1 L 3.3 112.6 L 3.3 115.1 L 2.4 115.1 L 2.4 112.6 Z M 7 110.7 C 8.3 110.7 9.1 111.7 9.1 113 C 9.13 113 9.1 113.2 9.1 113.2 C 9.1 113.2 5.7 113.2 5.7 113.2 C 5.8 113.9 6.3 114.6 7.2 114.6 C 7.6 114.6 8.1 114.4 8.5 114 C 8.5 114 8.8 114.6 8.8 114.6 C 8.4 115 7.8 115.2 7.1 115.2 C 5.8 115.2 4.8 114.3 4.8 112.9 C 4.8 111.7 5.8 110.7 7 110.7 Z M 5.7 112.6 C 5.7 112.6 8.3 112.6 8.3 112.6 C 8.3 112 7.9 111.3 7 111.3 C 6.1 111.3 5.7 112 5.7 112.6 Z M 12.7 114.6 C 12.4 115 11.9 115.2 11.3 115.2 C 10.6 115.2 9.8 114.7 9.8 113.8 C 9.8 112.8 10.6 112.4 11.3 112.4 C 11.9 112.4 12.4 112.5 12.7 112.9 C 12.7 112.9 12.7 112.2 12.7 112.2 C 12.7 111.7 12.3 111.3 11.7 111.3 C 11.2 111.3 10.8 111.5 10.4 111.9 C 10.4 111.9 10 111.4 10 111.4 C 10.5 110.9 11.1 110.7 11.8 110.7 C 12.8 110.7 13.6 111.1 13.6 112.2 C 13.55 112.18 13.6 115.1 13.6 115.1 L 12.7 115.1 C 12.7 115.1 12.74 114.63 12.7 114.6 Z M 12.7 113.4 C 12.5 113.1 12.1 112.9 11.6 112.9 C 11 112.9 10.6 113.3 10.6 113.8 C 10.6 114.3 11 114.7 11.6 114.7 C 12.1 114.7 12.5 114.5 12.7 114.2 C 12.7 114.2 12.7 113.4 12.7 113.4 Z M 14.8 110.8 L 15.6 110.8 C 15.6 110.8 15.57 111.43 15.6 111.4 C 15.9 111 16.4 110.7 17 110.7 C 17 110.7 17 111.5 17 111.5 C 16.9 111.5 16.8 111.5 16.7 111.5 C 16.3 111.5 15.8 111.8 15.6 112.1 C 15.57 112.09 15.6 115.1 15.6 115.1 L 14.8 115.1 L 14.8 110.8 Z M 17.7 113.9 C 18 114.3 18.6 114.6 19.2 114.6 C 19.8 114.6 20.1 114.3 20.1 113.9 C 20.1 113.5 19.6 113.4 19.1 113.2 C 18.3 113.1 17.5 112.9 17.5 111.9 C 17.5 111.2 18.1 110.7 19.1 110.7 C 19.9 110.7 20.4 110.9 20.8 111.3 C 20.8 111.3 20.4 111.8 20.4 111.8 C 20.2 111.5 19.7 111.3 19.1 111.3 C 18.6 111.3 18.2 111.5 18.2 111.9 C 18.2 112.3 18.7 112.4 19.2 112.5 C 20 112.7 20.9 112.9 20.9 113.9 C 20.9 114.6 20.3 115.2 19.1 115.2 C 18.4 115.2 17.8 115 17.3 114.5 C 17.3 114.5 17.7 113.9 17.7 113.9 Z M 23.9 109.5 C 23.9 109.2 24.2 109 24.5 109 C 24.7 109 25 109.2 25 109.5 C 25 109.8 24.7 110 24.5 110 C 24.2 110 23.9 109.8 23.9 109.5 Z M 24.1 110.8 L 24.9 110.8 L 24.9 115.1 L 24.1 115.1 L 24.1 110.8 Z M 29 112.3 C 29 111.6 28.6 111.4 28.1 111.4 C 27.6 111.4 27.1 111.7 26.9 112 C 26.88 112 26.9 115.1 26.9 115.1 L 26.1 115.1 L 26.1 110.8 L 26.9 110.8 C 26.9 110.8 26.88 111.37 26.9 111.4 C 27.2 111 27.7 110.7 28.4 110.7 C 29.3 110.7 29.8 111.1 29.8 112.1 C 29.82 112.06 29.8 115.1 29.8 115.1 L 29 115.1 C 29 115.1 29.01 112.33 29 112.3 Z M 33.3 109.1 C 33.3 109.1 36.08 109.11 36.1 109.1 C 37.2 109.1 37.8 109.8 37.8 110.6 C 37.8 111.4 37.3 111.9 36.7 112 C 37.4 112.1 37.9 112.8 37.9 113.5 C 37.9 114.4 37.3 115.1 36.2 115.1 C 36.15 115.11 33.3 115.1 33.3 115.1 L 33.3 109.1 Z M 35.9 111.7 C 36.5 111.7 36.8 111.3 36.8 110.8 C 36.8 110.3 36.5 109.9 35.9 109.9 C 35.91 109.9 34.2 109.9 34.2 109.9 L 34.2 111.7 C 34.2 111.7 35.91 111.65 35.9 111.7 Z M 36 114.3 C 36.6 114.3 37 114 37 113.4 C 37 112.9 36.6 112.4 36 112.4 C 35.95 112.45 34.2 112.4 34.2 112.4 L 34.2 114.3 C 34.2 114.3 35.95 114.32 36 114.3 Z M 41.8 114.5 C 41.5 114.9 40.9 115.2 40.3 115.2 C 39.4 115.2 38.9 114.8 38.9 113.8 C 38.9 113.83 38.9 110.8 38.9 110.8 L 39.7 110.8 C 39.7 110.8 39.71 113.56 39.7 113.6 C 39.7 114.3 40.1 114.5 40.6 114.5 C 41.1 114.5 41.6 114.2 41.8 113.9 C 41.83 113.89 41.8 110.8 41.8 110.8 L 42.6 110.8 L 42.6 115.1 L 41.8 115.1 C 41.8 115.1 41.83 114.52 41.8 114.5 Z M 43.8 113.9 C 44.1 114.3 44.7 114.6 45.3 114.6 C 45.9 114.6 46.2 114.3 46.2 113.9 C 46.2 113.5 45.7 113.4 45.2 113.2 C 44.4 113.1 43.6 112.9 43.6 111.9 C 43.6 111.2 44.2 110.7 45.2 110.7 C 46 110.7 46.5 110.9 46.9 111.3 C 46.9 111.3 46.5 111.8 46.5 111.8 C 46.3 111.5 45.8 111.3 45.3 111.3 C 44.7 111.3 44.4 111.5 44.4 111.9 C 44.4 112.3 44.8 112.4 45.4 112.5 C 46.1 112.7 47 112.9 47 113.9 C 47 114.6 46.4 115.2 45.3 115.2 C 44.5 115.2 43.9 115 43.5 114.5 C 43.5 114.5 43.8 113.9 43.8 113.9 Z M 47.8 109.5 C 47.8 109.2 48.1 109 48.4 109 C 48.6 109 48.9 109.2 48.9 109.5 C 48.9 109.8 48.6 110 48.4 110 C 48.1 110 47.8 109.8 47.8 109.5 Z M 48 110.8 L 48.8 110.8 L 48.8 115.1 L 48 115.1 L 48 110.8 Z M 52.9 112.3 C 52.9 111.6 52.5 111.4 52 111.4 C 51.5 111.4 51 111.7 50.8 112 C 50.78 112 50.8 115.1 50.8 115.1 L 50 115.1 L 50 110.8 L 50.8 110.8 C 50.8 110.8 50.78 111.37 50.8 111.4 C 51.1 111 51.6 110.7 52.3 110.7 C 53.2 110.7 53.7 111.1 53.7 112.1 C 53.71 112.06 53.7 115.1 53.7 115.1 L 52.9 115.1 C 52.9 115.1 52.9 112.33 52.9 112.3 Z M 56.8 110.7 C 58.1 110.7 58.9 111.7 58.9 113 C 58.93 113 58.9 113.2 58.9 113.2 C 58.9 113.2 55.49 113.2 55.5 113.2 C 55.6 113.9 56.1 114.6 57 114.6 C 57.4 114.6 57.9 114.4 58.3 114 C 58.3 114 58.6 114.6 58.6 114.6 C 58.2 115 57.6 115.2 56.9 115.2 C 55.6 115.2 54.6 114.3 54.6 112.9 C 54.6 111.7 55.5 110.7 56.8 110.7 Z M 55.5 112.6 C 55.5 112.6 58.1 112.6 58.1 112.6 C 58.1 112 57.7 111.3 56.8 111.3 C 55.9 111.3 55.5 112 55.5 112.6 Z M 59.9 113.9 C 60.2 114.3 60.7 114.6 61.3 114.6 C 61.9 114.6 62.3 114.3 62.3 113.9 C 62.3 113.5 61.8 113.4 61.2 113.2 C 60.5 113.1 59.6 112.9 59.6 111.9 C 59.6 111.2 60.2 110.7 61.3 110.7 C 62 110.7 62.5 110.9 62.9 111.3 C 62.9 111.3 62.6 111.8 62.6 111.8 C 62.3 111.5 61.8 111.3 61.3 111.3 C 60.7 111.3 60.4 111.5 60.4 111.9 C 60.4 112.3 60.8 112.4 61.4 112.5 C 62.1 112.7 63 112.9 63 113.9 C 63 114.6 62.4 115.2 61.3 115.2 C 60.6 115.2 59.9 115 59.5 114.5 C 59.5 114.5 59.9 113.9 59.9 113.9 Z M 64 113.9 C 64.3 114.3 64.9 114.6 65.4 114.6 C 66.1 114.6 66.4 114.3 66.4 113.9 C 66.4 113.5 65.9 113.4 65.3 113.2 C 64.6 113.1 63.7 112.9 63.7 111.9 C 63.7 111.2 64.3 110.7 65.4 110.7 C 66.1 110.7 66.7 110.9 67 111.3 C 67 111.3 66.7 111.8 66.7 111.8 C 66.4 111.5 65.9 111.3 65.4 111.3 C 64.8 111.3 64.5 111.5 64.5 111.9 C 64.5 112.3 65 112.4 65.5 112.5 C 66.3 112.7 67.2 112.9 67.2 113.9 C 67.2 114.6 66.6 115.2 65.4 115.2 C 64.7 115.2 64 115 63.6 114.5 C 63.6 114.5 64 113.9 64 113.9 Z " stroke="none" fill="#242423"/>
  </g>
  <g id="Polygon210726">
    <path d="M 3.4 91 C 5.2 91 6.5 92.3 6.5 94.1 C 6.5 95.9 5.2 97.2 3.4 97.2 C 1.6 97.2 0.4 95.9 0.4 94.1 C 0.4 92.3 1.6 91 3.4 91 Z M 3.4 91.8 C 2.2 91.8 1.3 92.8 1.3 94.1 C 1.3 95.4 2.2 96.4 3.4 96.4 C 4.7 96.4 5.5 95.4 5.5 94.1 C 5.5 92.8 4.7 91.8 3.4 91.8 Z M 10.1 93.8 L 9.1 97.1 L 8.2 97.1 L 6.9 92.8 L 7.7 92.8 L 8.7 96.1 L 9.8 92.8 L 10.5 92.8 L 11.6 96.1 L 12.6 92.8 L 13.4 92.8 L 12.1 97.1 L 11.2 97.1 L 10.1 93.8 Z M 17 94.3 C 17 93.6 16.6 93.4 16.1 93.4 C 15.6 93.4 15.1 93.7 14.9 94 C 14.86 94 14.9 97.1 14.9 97.1 L 14 97.1 L 14 92.8 L 14.9 92.8 C 14.9 92.8 14.86 93.37 14.9 93.4 C 15.1 93 15.7 92.7 16.4 92.7 C 17.3 92.7 17.8 93.1 17.8 94.1 C 17.79 94.06 17.8 97.1 17.8 97.1 L 17 97.1 C 17 97.1 16.98 94.33 17 94.3 Z M 20.9 92.7 C 22.2 92.7 23 93.7 23 95 C 23.01 95 23 95.2 23 95.2 C 23 95.2 19.57 95.2 19.6 95.2 C 19.6 95.9 20.2 96.6 21.1 96.6 C 21.5 96.6 22 96.4 22.3 96 C 22.3 96 22.7 96.6 22.7 96.6 C 22.3 97 21.7 97.2 21 97.2 C 19.7 97.2 18.7 96.3 18.7 94.9 C 18.7 93.7 19.6 92.7 20.9 92.7 Z M 19.6 94.6 C 19.6 94.6 22.2 94.6 22.2 94.6 C 22.2 94 21.8 93.3 20.9 93.3 C 20 93.3 19.6 94 19.6 94.6 Z M 23.9 92.8 L 24.7 92.8 C 24.7 92.8 24.75 93.43 24.7 93.4 C 25.1 93 25.6 92.7 26.2 92.7 C 26.2 92.7 26.2 93.5 26.2 93.5 C 26.1 93.5 26 93.5 25.9 93.5 C 25.5 93.5 24.9 93.8 24.7 94.1 C 24.75 94.09 24.7 97.1 24.7 97.1 L 23.9 97.1 L 23.9 92.8 Z M 26.9 95.9 C 27.2 96.3 27.8 96.6 28.4 96.6 C 29 96.6 29.3 96.3 29.3 95.9 C 29.3 95.5 28.8 95.4 28.2 95.2 C 27.5 95.1 26.6 94.9 26.6 93.9 C 26.6 93.2 27.2 92.7 28.3 92.7 C 29 92.7 29.6 92.9 30 93.3 C 30 93.3 29.6 93.8 29.6 93.8 C 29.3 93.5 28.9 93.3 28.3 93.3 C 27.8 93.3 27.4 93.5 27.4 93.9 C 27.4 94.3 27.9 94.4 28.4 94.5 C 29.2 94.7 30.1 94.9 30.1 95.9 C 30.1 96.6 29.5 97.2 28.3 97.2 C 27.6 97.2 27 97 26.5 96.5 C 26.5 96.5 26.9 95.9 26.9 95.9 Z M 33.9 94.3 C 33.9 93.6 33.6 93.4 33 93.4 C 32.5 93.4 32.1 93.7 31.8 94 C 31.82 94 31.8 97.1 31.8 97.1 L 31 97.1 L 31 91.1 L 31.8 91.1 C 31.8 91.1 31.82 93.37 31.8 93.4 C 32.1 93 32.7 92.7 33.4 92.7 C 34.3 92.7 34.8 93.1 34.8 94 C 34.76 94.04 34.8 97.1 34.8 97.1 L 33.9 97.1 C 33.9 97.1 33.95 94.31 33.9 94.3 Z M 35.8 91.5 C 35.8 91.2 36.1 91 36.4 91 C 36.6 91 36.9 91.2 36.9 91.5 C 36.9 91.8 36.6 92 36.4 92 C 36.1 92 35.8 91.8 35.8 91.5 Z M 36 92.8 L 36.8 92.8 L 36.8 97.1 L 36 97.1 L 36 92.8 Z M 38 98.8 L 38 92.8 L 38.8 92.8 C 38.8 92.8 38.78 93.38 38.8 93.4 C 39.1 93 39.6 92.7 40.2 92.7 C 41.3 92.7 42.1 93.5 42.1 94.9 C 42.1 96.4 41.3 97.2 40.2 97.2 C 39.6 97.2 39.1 97 38.8 96.5 C 38.78 96.48 38.8 98.8 38.8 98.8 L 38 98.8 Z M 40 93.4 C 39.5 93.4 39 93.7 38.8 94 C 38.8 94 38.8 95.9 38.8 95.9 C 39 96.2 39.5 96.5 40 96.5 C 40.8 96.5 41.3 95.8 41.3 94.9 C 41.3 94 40.8 93.4 40 93.4 Z " stroke="none" fill="#242423"/>
  </g>
  <g id="Polygon210725">
    <path d="M 0.4 76.1 C 0.4 74.3 1.8 73 3.5 73 C 4.7 73 5.4 73.6 5.9 74.3 C 5.9 74.3 5.1 74.7 5.1 74.7 C 4.8 74.2 4.2 73.8 3.5 73.8 C 2.3 73.8 1.3 74.8 1.3 76.1 C 1.3 77.5 2.3 78.4 3.5 78.4 C 4.2 78.4 4.8 78 5.1 77.5 C 5.1 77.5 5.9 77.9 5.9 77.9 C 5.4 78.7 4.7 79.2 3.5 79.2 C 1.8 79.2 0.4 78 0.4 76.1 Z M 6.4 76.9 C 6.4 75.7 7.2 74.7 8.6 74.7 C 10 74.7 10.8 75.7 10.8 76.9 C 10.8 78.2 10 79.2 8.6 79.2 C 7.2 79.2 6.4 78.2 6.4 76.9 Z M 9.9 76.9 C 9.9 76.1 9.5 75.4 8.6 75.4 C 7.7 75.4 7.2 76.1 7.2 76.9 C 7.2 77.8 7.7 78.5 8.6 78.5 C 9.5 78.5 9.9 77.8 9.9 76.9 Z M 17 76.2 C 17 75.7 16.8 75.4 16.3 75.4 C 15.8 75.4 15.4 75.7 15.2 76 C 15.17 76 15.2 79.1 15.2 79.1 L 14.4 79.1 C 14.4 79.1 14.36 76.21 14.4 76.2 C 14.4 75.7 14.1 75.4 13.6 75.4 C 13.2 75.4 12.8 75.7 12.5 76 C 12.54 76 12.5 79.1 12.5 79.1 L 11.7 79.1 L 11.7 74.8 L 12.5 74.8 C 12.5 74.8 12.54 75.37 12.5 75.4 C 12.7 75.1 13.3 74.7 13.9 74.7 C 14.6 74.7 15 75 15.1 75.5 C 15.4 75.1 15.9 74.7 16.6 74.7 C 17.4 74.7 17.8 75.1 17.8 76 C 17.82 75.97 17.8 79.1 17.8 79.1 L 17 79.1 C 17 79.1 17.01 76.21 17 76.2 Z M 19 80.8 L 19 74.8 L 19.8 74.8 C 19.8 74.8 19.83 75.38 19.8 75.4 C 20.1 75 20.7 74.7 21.2 74.7 C 22.4 74.7 23.2 75.5 23.2 76.9 C 23.2 78.4 22.4 79.2 21.2 79.2 C 20.7 79.2 20.2 79 19.8 78.5 C 19.83 78.48 19.8 80.8 19.8 80.8 L 19 80.8 Z M 21 75.4 C 20.5 75.4 20 75.7 19.8 76 C 19.8 76 19.8 77.9 19.8 77.9 C 20 78.2 20.5 78.5 21 78.5 C 21.8 78.5 22.3 77.8 22.3 76.9 C 22.3 76 21.8 75.4 21 75.4 Z M 26.8 78.6 C 26.5 79 26 79.2 25.4 79.2 C 24.7 79.2 23.9 78.7 23.9 77.8 C 23.9 76.8 24.7 76.4 25.4 76.4 C 26 76.4 26.5 76.5 26.8 76.9 C 26.8 76.9 26.8 76.2 26.8 76.2 C 26.8 75.7 26.4 75.3 25.7 75.3 C 25.2 75.3 24.8 75.5 24.4 75.9 C 24.4 75.9 24.1 75.4 24.1 75.4 C 24.6 74.9 25.2 74.7 25.9 74.7 C 26.8 74.7 27.6 75.1 27.6 76.2 C 27.61 76.18 27.6 79.1 27.6 79.1 L 26.8 79.1 C 26.8 79.1 26.8 78.63 26.8 78.6 Z M 26.8 77.4 C 26.6 77.1 26.1 76.9 25.7 76.9 C 25.1 76.9 24.7 77.3 24.7 77.8 C 24.7 78.3 25.1 78.7 25.7 78.7 C 26.1 78.7 26.6 78.5 26.8 78.2 C 26.8 78.2 26.8 77.4 26.8 77.4 Z M 31.8 76.3 C 31.8 75.6 31.4 75.4 30.8 75.4 C 30.3 75.4 29.9 75.7 29.6 76 C 29.63 76 29.6 79.1 29.6 79.1 L 28.8 79.1 L 28.8 74.8 L 29.6 74.8 C 29.6 74.8 29.63 75.37 29.6 75.4 C 29.9 75 30.5 74.7 31.2 74.7 C 32.1 74.7 32.6 75.1 32.6 76.1 C 32.56 76.06 32.6 79.1 32.6 79.1 L 31.8 79.1 C 31.8 79.1 31.75 76.33 31.8 76.3 Z M 34 80.2 C 34.3 80.2 34.5 80.1 34.7 79.7 C 34.66 79.73 34.9 79.2 34.9 79.2 L 33.1 74.8 L 34 74.8 L 35.3 78.2 L 36.7 74.8 L 37.6 74.8 C 37.6 74.8 35.43 79.94 35.4 79.9 C 35.2 80.6 34.7 80.9 34 80.9 C 33.9 80.9 33.7 80.8 33.5 80.8 C 33.5 80.8 33.7 80.1 33.7 80.1 C 33.8 80.1 33.9 80.2 34 80.2 Z M 41.3 74.5 L 41.3 79.1 L 40.4 79.1 L 40.4 73.1 L 41.3 73.1 L 44.6 77.6 L 44.6 73.1 L 45.5 73.1 L 45.5 79.1 L 44.6 79.1 L 41.3 74.5 Z M 49.4 78.6 C 49 79 48.6 79.2 48 79.2 C 47.2 79.2 46.5 78.7 46.5 77.8 C 46.5 76.8 47.2 76.4 48 76.4 C 48.6 76.4 49.1 76.5 49.4 76.9 C 49.4 76.9 49.4 76.2 49.4 76.2 C 49.4 75.7 49 75.3 48.3 75.3 C 47.8 75.3 47.4 75.5 47 75.9 C 47 75.9 46.7 75.4 46.7 75.4 C 47.2 74.9 47.8 74.7 48.5 74.7 C 49.4 74.7 50.2 75.1 50.2 76.2 C 50.2 76.18 50.2 79.1 50.2 79.1 L 49.4 79.1 C 49.4 79.1 49.39 78.63 49.4 78.6 Z M 49.4 77.4 C 49.1 77.1 48.7 76.9 48.3 76.9 C 47.7 76.9 47.3 77.3 47.3 77.8 C 47.3 78.3 47.7 78.7 48.3 78.7 C 48.7 78.7 49.1 78.5 49.4 78.2 C 49.4 78.2 49.4 77.4 49.4 77.4 Z M 56.7 76.2 C 56.7 75.7 56.5 75.4 55.9 75.4 C 55.5 75.4 55.1 75.7 54.9 76 C 54.85 76 54.9 79.1 54.9 79.1 L 54 79.1 C 54 79.1 54.04 76.21 54 76.2 C 54 75.7 53.8 75.4 53.3 75.4 C 52.9 75.4 52.4 75.7 52.2 76 C 52.22 76 52.2 79.1 52.2 79.1 L 51.4 79.1 L 51.4 74.8 L 52.2 74.8 C 52.2 74.8 52.22 75.37 52.2 75.4 C 52.4 75.1 53 74.7 53.6 74.7 C 54.3 74.7 54.7 75 54.8 75.5 C 55.1 75.1 55.6 74.7 56.3 74.7 C 57.1 74.7 57.5 75.1 57.5 76 C 57.5 75.97 57.5 79.1 57.5 79.1 L 56.7 79.1 C 56.7 79.1 56.69 76.21 56.7 76.2 Z M 60.6 74.7 C 61.9 74.7 62.7 75.7 62.7 77 C 62.72 77 62.7 77.2 62.7 77.2 C 62.7 77.2 59.28 77.2 59.3 77.2 C 59.3 77.9 59.9 78.6 60.8 78.6 C 61.2 78.6 61.7 78.4 62 78 C 62 78 62.4 78.6 62.4 78.6 C 62 79 61.4 79.2 60.7 79.2 C 59.4 79.2 58.4 78.3 58.4 76.9 C 58.4 75.7 59.3 74.7 60.6 74.7 Z M 59.3 76.6 C 59.3 76.6 61.9 76.6 61.9 76.6 C 61.9 76 61.5 75.3 60.6 75.3 C 59.7 75.3 59.3 76 59.3 76.6 Z " stroke="none" fill="#242423"/>
  </g>
  <g id="Polygon210724">
    <path d="M 0.7 55.1 L 1.6 55.1 L 1.6 60.3 L 4.3 60.3 L 4.3 61.1 L 0.7 61.1 L 0.7 55.1 Z M 6.9 56.7 C 8.2 56.7 9 57.7 9 59 C 9.04 59 9 59.2 9 59.2 C 9 59.2 5.6 59.2 5.6 59.2 C 5.7 59.9 6.2 60.6 7.1 60.6 C 7.5 60.6 8 60.4 8.4 60 C 8.4 60 8.7 60.6 8.7 60.6 C 8.3 61 7.7 61.2 7 61.2 C 5.7 61.2 4.7 60.3 4.7 58.9 C 4.7 57.7 5.7 56.7 6.9 56.7 Z M 5.6 58.6 C 5.6 58.6 8.2 58.6 8.2 58.6 C 8.2 58 7.8 57.3 6.9 57.3 C 6 57.3 5.6 58 5.6 58.6 Z M 12.6 60.6 C 12.3 61 11.8 61.2 11.2 61.2 C 10.5 61.2 9.7 60.7 9.7 59.8 C 9.7 58.8 10.5 58.4 11.2 58.4 C 11.8 58.4 12.3 58.5 12.6 58.9 C 12.6 58.9 12.6 58.2 12.6 58.2 C 12.6 57.7 12.2 57.3 11.6 57.3 C 11.1 57.3 10.7 57.5 10.3 57.9 C 10.3 57.9 9.9 57.4 9.9 57.4 C 10.4 56.9 11 56.7 11.7 56.7 C 12.7 56.7 13.5 57.1 13.5 58.2 C 13.45 58.18 13.5 61.1 13.5 61.1 L 12.6 61.1 C 12.6 61.1 12.65 60.63 12.6 60.6 Z M 12.6 59.4 C 12.4 59.1 12 58.9 11.5 58.9 C 10.9 58.9 10.5 59.3 10.5 59.8 C 10.5 60.3 10.9 60.7 11.5 60.7 C 12 60.7 12.4 60.5 12.6 60.2 C 12.6 60.2 12.6 59.4 12.6 59.4 Z M 14.7 59.9 C 15 60.3 15.5 60.6 16.1 60.6 C 16.7 60.6 17.1 60.3 17.1 59.9 C 17.1 59.5 16.6 59.4 16 59.2 C 15.3 59.1 14.4 58.9 14.4 57.9 C 14.4 57.2 15 56.7 16.1 56.7 C 16.8 56.7 17.4 56.9 17.7 57.3 C 17.7 57.3 17.4 57.8 17.4 57.8 C 17.1 57.5 16.6 57.3 16.1 57.3 C 15.5 57.3 15.2 57.5 15.2 57.9 C 15.2 58.3 15.7 58.4 16.2 58.5 C 16.9 58.7 17.8 58.9 17.8 59.9 C 17.8 60.6 17.2 61.2 16.1 61.2 C 15.4 61.2 14.7 61 14.3 60.5 C 14.3 60.5 14.7 59.9 14.7 59.9 Z M 20.7 56.7 C 22 56.7 22.8 57.7 22.8 59 C 22.81 59 22.8 59.2 22.8 59.2 C 22.8 59.2 19.37 59.2 19.4 59.2 C 19.4 59.9 20 60.6 20.8 60.6 C 21.3 60.6 21.8 60.4 22.1 60 C 22.1 60 22.5 60.6 22.5 60.6 C 22.1 61 21.5 61.2 20.8 61.2 C 19.5 61.2 18.5 60.3 18.5 58.9 C 18.5 57.7 19.4 56.7 20.7 56.7 Z M 19.4 58.6 C 19.4 58.6 22 58.6 22 58.6 C 22 58 21.6 57.3 20.7 57.3 C 19.8 57.3 19.4 58 19.4 58.6 Z M 28.8 55 C 30 55 30.7 55.5 31.2 56.2 C 31.2 56.2 30.5 56.6 30.5 56.6 C 30.2 56.2 29.5 55.8 28.8 55.8 C 27.6 55.8 26.7 56.8 26.7 58.1 C 26.7 59.5 27.6 60.4 28.8 60.4 C 29.5 60.4 30.1 60.1 30.4 59.8 C 30.37 59.83 30.4 58.8 30.4 58.8 L 28.4 58.8 L 28.4 58 L 31.3 58 C 31.3 58 31.27 60.17 31.3 60.2 C 30.7 60.8 29.9 61.2 28.8 61.2 C 27.1 61.2 25.7 60 25.7 58.1 C 25.7 56.2 27.1 55 28.8 55 Z M 35.2 60.5 C 34.9 60.9 34.4 61.2 33.7 61.2 C 32.8 61.2 32.3 60.8 32.3 59.8 C 32.31 59.83 32.3 56.8 32.3 56.8 L 33.1 56.8 C 33.1 56.8 33.12 59.56 33.1 59.6 C 33.1 60.3 33.5 60.5 34 60.5 C 34.5 60.5 35 60.2 35.2 59.9 C 35.24 59.89 35.2 56.8 35.2 56.8 L 36.1 56.8 L 36.1 61.1 L 35.2 61.1 C 35.2 61.1 35.24 60.52 35.2 60.5 Z M 39.9 60.6 C 39.6 61 39.1 61.2 38.5 61.2 C 37.8 61.2 37 60.7 37 59.8 C 37 58.8 37.8 58.4 38.5 58.4 C 39.1 58.4 39.6 58.5 39.9 58.9 C 39.9 58.9 39.9 58.2 39.9 58.2 C 39.9 57.7 39.5 57.3 38.9 57.3 C 38.4 57.3 38 57.5 37.6 57.9 C 37.6 57.9 37.2 57.4 37.2 57.4 C 37.7 56.9 38.3 56.7 39 56.7 C 39.9 56.7 40.7 57.1 40.7 58.2 C 40.74 58.18 40.7 61.1 40.7 61.1 L 39.9 61.1 C 39.9 61.1 39.93 60.63 39.9 60.6 Z M 39.9 59.4 C 39.7 59.1 39.3 58.9 38.8 58.9 C 38.2 58.9 37.8 59.3 37.8 59.8 C 37.8 60.3 38.2 60.7 38.8 60.7 C 39.3 60.7 39.7 60.5 39.9 60.2 C 39.9 60.2 39.9 59.4 39.9 59.4 Z M 41.9 56.8 L 42.8 56.8 C 42.8 56.8 42.76 57.43 42.8 57.4 C 43.1 57 43.6 56.7 44.2 56.7 C 44.2 56.7 44.2 57.5 44.2 57.5 C 44.1 57.5 44 57.5 43.9 57.5 C 43.5 57.5 42.9 57.8 42.8 58.1 C 42.76 58.09 42.8 61.1 42.8 61.1 L 41.9 61.1 L 41.9 56.8 Z M 47.6 60.6 C 47.2 61 46.7 61.2 46.2 61.2 C 45.4 61.2 44.6 60.7 44.6 59.8 C 44.6 58.8 45.4 58.4 46.2 58.4 C 46.7 58.4 47.2 58.5 47.6 58.9 C 47.6 58.9 47.6 58.2 47.6 58.2 C 47.6 57.7 47.1 57.3 46.5 57.3 C 46 57.3 45.6 57.5 45.2 57.9 C 45.2 57.9 44.9 57.4 44.9 57.4 C 45.4 56.9 45.9 56.7 46.6 56.7 C 47.6 56.7 48.4 57.1 48.4 58.2 C 48.39 58.18 48.4 61.1 48.4 61.1 L 47.6 61.1 C 47.6 61.1 47.58 60.63 47.6 60.6 Z M 47.6 59.4 C 47.3 59.1 46.9 58.9 46.5 58.9 C 45.9 58.9 45.5 59.3 45.5 59.8 C 45.5 60.3 45.9 60.7 46.5 60.7 C 46.9 60.7 47.3 60.5 47.6 60.2 C 47.6 60.2 47.6 59.4 47.6 59.4 Z M 52.5 58.3 C 52.5 57.6 52.2 57.4 51.6 57.4 C 51.1 57.4 50.6 57.7 50.4 58 C 50.41 58 50.4 61.1 50.4 61.1 L 49.6 61.1 L 49.6 56.8 L 50.4 56.8 C 50.4 56.8 50.41 57.37 50.4 57.4 C 50.7 57 51.3 56.7 51.9 56.7 C 52.9 56.7 53.3 57.1 53.3 58.1 C 53.34 58.06 53.3 61.1 53.3 61.1 L 52.5 61.1 C 52.5 61.1 52.53 58.33 52.5 58.3 Z M 54.7 60.1 C 54.7 60.15 54.7 57.5 54.7 57.5 L 54 57.5 L 54 56.8 L 54.7 56.8 L 54.7 55.6 L 55.5 55.6 L 55.5 56.8 L 56.4 56.8 L 56.4 57.5 L 55.5 57.5 C 55.5 57.5 55.51 59.97 55.5 60 C 55.5 60.3 55.7 60.5 55.9 60.5 C 56.1 60.5 56.3 60.4 56.4 60.3 C 56.4 60.3 56.6 60.9 56.6 60.9 C 56.4 61.1 56.2 61.2 55.7 61.2 C 55.1 61.2 54.7 60.8 54.7 60.1 Z M 56.9 58.9 C 56.9 57.7 57.8 56.7 59.1 56.7 C 60.5 56.7 61.3 57.7 61.3 58.9 C 61.3 60.2 60.5 61.2 59.1 61.2 C 57.8 61.2 56.9 60.2 56.9 58.9 Z M 60.5 58.9 C 60.5 58.1 60 57.4 59.1 57.4 C 58.3 57.4 57.8 58.1 57.8 58.9 C 57.8 59.8 58.3 60.5 59.1 60.5 C 60 60.5 60.5 59.8 60.5 58.9 Z M 62.3 56.8 L 63.1 56.8 C 63.1 56.8 63.07 57.43 63.1 57.4 C 63.4 57 63.9 56.7 64.5 56.7 C 64.5 56.7 64.5 57.5 64.5 57.5 C 64.4 57.5 64.3 57.5 64.2 57.5 C 63.8 57.5 63.3 57.8 63.1 58.1 C 63.07 58.09 63.1 61.1 63.1 61.1 L 62.3 61.1 L 62.3 56.8 Z " stroke="none" fill="#242423"/>
  </g>
  <g id="Polygon210723">
    <path d="M 2.7 40.8 L 1.6 40.8 L 1.6 43.1 L 0.7 43.1 L 0.7 37.1 C 0.7 37.1 3.2 37.11 3.2 37.1 C 4.3 37.1 5.1 37.8 5.1 39 C 5.1 40 4.4 40.6 3.6 40.7 C 3.63 40.71 5.2 43.1 5.2 43.1 L 4.1 43.1 L 2.7 40.8 Z M 3.1 37.9 C 3.08 37.9 1.6 37.9 1.6 37.9 L 1.6 40 C 1.6 40 3.08 40.01 3.1 40 C 3.7 40 4.2 39.6 4.2 39 C 4.2 38.3 3.7 37.9 3.1 37.9 Z M 5.6 40.9 C 5.6 39.7 6.4 38.7 7.8 38.7 C 9.1 38.7 10 39.7 10 40.9 C 10 42.2 9.1 43.2 7.8 43.2 C 6.4 43.2 5.6 42.2 5.6 40.9 Z M 9.1 40.9 C 9.1 40.1 8.6 39.4 7.8 39.4 C 6.9 39.4 6.4 40.1 6.4 40.9 C 6.4 41.8 6.9 42.5 7.8 42.5 C 8.6 42.5 9.1 41.8 9.1 40.9 Z M 10.6 40.9 C 10.6 39.7 11.5 38.7 12.8 38.7 C 14.2 38.7 15 39.7 15 40.9 C 15 42.2 14.2 43.2 12.8 43.2 C 11.5 43.2 10.6 42.2 10.6 40.9 Z M 14.2 40.9 C 14.2 40.1 13.7 39.4 12.8 39.4 C 12 39.4 11.5 40.1 11.5 40.9 C 11.5 41.8 12 42.5 12.8 42.5 C 13.7 42.5 14.2 41.8 14.2 40.9 Z M 16.2 39.5 L 15.4 39.5 L 15.4 38.8 L 16.2 38.8 C 16.2 38.8 16.16 38.48 16.2 38.5 C 16.2 37.5 16.7 37 17.5 37 C 17.8 37 18 37.1 18.2 37.2 C 18.2 37.2 18 37.8 18 37.8 C 17.9 37.7 17.8 37.7 17.6 37.7 C 17.2 37.7 17 38 17 38.5 C 16.97 38.48 17 38.8 17 38.8 L 17.9 38.8 L 17.9 39.5 L 17 39.5 L 17 43.1 L 16.2 43.1 L 16.2 39.5 Z M 25.7 43.1 C 25.7 43.1 24.6 43.1 24.6 43.1 C 24.5 43 24.2 42.8 24 42.5 C 23.6 42.9 23 43.2 22.3 43.2 C 21.3 43.2 20.4 42.7 20.4 41.5 C 20.4 40.6 21 40.1 21.7 39.8 C 21.5 39.3 21.3 38.8 21.3 38.4 C 21.3 37.6 22 37 22.9 37 C 23.7 37 24.3 37.5 24.3 38.2 C 24.3 39.1 23.5 39.5 22.8 39.9 C 23 40.2 23.2 40.5 23.4 40.7 C 23.6 41 23.8 41.2 24.1 41.4 C 24.4 41 24.6 40.5 24.7 40.1 C 24.7 40.1 25.4 40.4 25.4 40.4 C 25.1 40.9 24.9 41.5 24.5 41.9 C 24.9 42.3 25.3 42.7 25.7 43.1 Z M 22.4 39.4 C 23 39.1 23.5 38.8 23.5 38.3 C 23.5 37.9 23.3 37.6 22.9 37.6 C 22.5 37.6 22.1 38 22.1 38.4 C 22.1 38.7 22.2 39.1 22.4 39.4 Z M 23.6 42 C 23.2 41.7 22.9 41.4 22.8 41.2 C 22.5 40.9 22.3 40.6 22.1 40.3 C 21.6 40.6 21.3 40.9 21.3 41.5 C 21.3 42.2 21.8 42.6 22.4 42.6 C 22.9 42.6 23.2 42.4 23.6 42 Z M 28.9 41.6 C 29.3 42 29.9 42.4 30.7 42.4 C 31.7 42.4 32.1 41.9 32.1 41.5 C 32.1 40.9 31.4 40.7 30.6 40.5 C 29.6 40.2 28.5 40 28.5 38.7 C 28.5 37.7 29.4 37 30.7 37 C 31.6 37 32.3 37.3 32.8 37.9 C 32.8 37.9 32.3 38.5 32.3 38.5 C 31.9 38 31.2 37.8 30.6 37.8 C 29.9 37.8 29.5 38.2 29.5 38.7 C 29.5 39.2 30.1 39.4 30.9 39.6 C 31.8 39.8 33 40.1 33 41.4 C 33 42.3 32.3 43.2 30.7 43.2 C 29.6 43.2 28.9 42.8 28.3 42.3 C 28.3 42.3 28.9 41.6 28.9 41.6 Z M 33.9 42.1 C 33.93 42.15 33.9 39.5 33.9 39.5 L 33.2 39.5 L 33.2 38.8 L 33.9 38.8 L 33.9 37.6 L 34.7 37.6 L 34.7 38.8 L 35.6 38.8 L 35.6 39.5 L 34.7 39.5 C 34.7 39.5 34.74 41.97 34.7 42 C 34.7 42.3 34.9 42.5 35.2 42.5 C 35.4 42.5 35.5 42.4 35.6 42.3 C 35.6 42.3 35.8 42.9 35.8 42.9 C 35.6 43.1 35.4 43.2 35 43.2 C 34.3 43.2 33.9 42.8 33.9 42.1 Z M 36.4 38.8 L 37.2 38.8 C 37.2 38.8 37.24 39.43 37.2 39.4 C 37.6 39 38.1 38.7 38.7 38.7 C 38.7 38.7 38.7 39.5 38.7 39.5 C 38.6 39.5 38.5 39.5 38.4 39.5 C 38 39.5 37.4 39.8 37.2 40.1 C 37.24 40.09 37.2 43.1 37.2 43.1 L 36.4 43.1 L 36.4 38.8 Z M 42.3 42.5 C 42 42.9 41.4 43.2 40.8 43.2 C 39.8 43.2 39.4 42.8 39.4 41.8 C 39.38 41.83 39.4 38.8 39.4 38.8 L 40.2 38.8 C 40.2 38.8 40.19 41.56 40.2 41.6 C 40.2 42.3 40.6 42.5 41.1 42.5 C 41.6 42.5 42.1 42.2 42.3 41.9 C 42.32 41.89 42.3 38.8 42.3 38.8 L 43.1 38.8 L 43.1 43.1 L 42.3 43.1 C 42.3 43.1 42.32 42.52 42.3 42.5 Z M 46.3 38.7 C 47.1 38.7 47.6 39 47.9 39.4 C 47.9 39.4 47.4 39.9 47.4 39.9 C 47.1 39.5 46.7 39.4 46.3 39.4 C 45.4 39.4 44.9 40 44.9 40.9 C 44.9 41.8 45.4 42.5 46.3 42.5 C 46.7 42.5 47.1 42.3 47.4 42 C 47.4 42 47.9 42.5 47.9 42.5 C 47.6 42.9 47.1 43.2 46.3 43.2 C 45 43.2 44.1 42.2 44.1 40.9 C 44.1 39.6 45 38.7 46.3 38.7 Z M 48.9 42.1 C 48.86 42.15 48.9 39.5 48.9 39.5 L 48.1 39.5 L 48.1 38.8 L 48.9 38.8 L 48.9 37.6 L 49.7 37.6 L 49.7 38.8 L 50.6 38.8 L 50.6 39.5 L 49.7 39.5 C 49.7 39.5 49.67 41.97 49.7 42 C 49.7 42.3 49.8 42.5 50.1 42.5 C 50.3 42.5 50.5 42.4 50.5 42.3 C 50.5 42.3 50.7 42.9 50.7 42.9 C 50.6 43.1 50.3 43.2 49.9 43.2 C 49.2 43.2 48.9 42.8 48.9 42.1 Z M 54.3 42.5 C 54 42.9 53.4 43.2 52.7 43.2 C 51.8 43.2 51.4 42.8 51.4 41.8 C 51.36 41.83 51.4 38.8 51.4 38.8 L 52.2 38.8 C 52.2 38.8 52.17 41.56 52.2 41.6 C 52.2 42.3 52.5 42.5 53.1 42.5 C 53.6 42.5 54.1 42.2 54.3 41.9 C 54.3 41.89 54.3 38.8 54.3 38.8 L 55.1 38.8 L 55.1 43.1 L 54.3 43.1 C 54.3 43.1 54.3 42.52 54.3 42.5 Z M 56.3 38.8 L 57.1 38.8 C 57.1 38.8 57.11 39.43 57.1 39.4 C 57.4 39 58 38.7 58.5 38.7 C 58.5 38.7 58.5 39.5 58.5 39.5 C 58.5 39.5 58.4 39.5 58.3 39.5 C 57.9 39.5 57.3 39.8 57.1 40.1 C 57.11 40.09 57.1 43.1 57.1 43.1 L 56.3 43.1 L 56.3 38.8 Z M 61.2 38.7 C 62.5 38.7 63.3 39.7 63.3 41 C 63.28 41 63.3 41.2 63.3 41.2 C 63.3 41.2 59.84 41.2 59.8 41.2 C 59.9 41.9 60.4 42.6 61.3 42.6 C 61.8 42.6 62.3 42.4 62.6 42 C 62.6 42 63 42.6 63 42.6 C 62.5 43 61.9 43.2 61.2 43.2 C 59.9 43.2 59 42.3 59 40.9 C 59 39.7 59.9 38.7 61.2 38.7 Z M 59.8 40.6 C 59.8 40.6 62.5 40.6 62.5 40.6 C 62.5 40 62.1 39.3 61.2 39.3 C 60.3 39.3 59.9 40 59.8 40.6 Z " stroke="none" fill="#242423"/>
  </g>
  <g id="Polygon210722">
    <path d="M 0.7 19.1 L 1.6 19.1 L 1.6 25.1 L 0.7 25.1 L 0.7 19.1 Z M 5.7 22.3 C 5.7 21.6 5.4 21.4 4.8 21.4 C 4.3 21.4 3.8 21.7 3.6 22 C 3.61 22 3.6 25.1 3.6 25.1 L 2.8 25.1 L 2.8 20.8 L 3.6 20.8 C 3.6 20.8 3.61 21.37 3.6 21.4 C 3.9 21 4.5 20.7 5.1 20.7 C 6.1 20.7 6.5 21.1 6.5 22.1 C 6.54 22.06 6.5 25.1 6.5 25.1 L 5.7 25.1 C 5.7 25.1 5.73 22.33 5.7 22.3 Z M 7.7 23.9 C 8 24.3 8.6 24.6 9.2 24.6 C 9.8 24.6 10.1 24.3 10.1 23.9 C 10.1 23.5 9.6 23.4 9.1 23.2 C 8.4 23.1 7.5 22.9 7.5 21.9 C 7.5 21.2 8.1 20.7 9.1 20.7 C 9.9 20.7 10.4 20.9 10.8 21.3 C 10.8 21.3 10.4 21.8 10.4 21.8 C 10.2 21.5 9.7 21.3 9.2 21.3 C 8.6 21.3 8.3 21.5 8.3 21.9 C 8.3 22.3 8.7 22.4 9.3 22.5 C 10 22.7 10.9 22.9 10.9 23.9 C 10.9 24.6 10.3 25.2 9.2 25.2 C 8.4 25.2 7.8 25 7.4 24.5 C 7.4 24.5 7.7 23.9 7.7 23.9 Z M 14.8 24.5 C 14.5 24.9 13.9 25.2 13.2 25.2 C 12.3 25.2 11.9 24.8 11.9 23.8 C 11.86 23.83 11.9 20.8 11.9 20.8 L 12.7 20.8 C 12.7 20.8 12.67 23.56 12.7 23.6 C 12.7 24.3 13 24.5 13.6 24.5 C 14.1 24.5 14.6 24.2 14.8 23.9 C 14.8 23.89 14.8 20.8 14.8 20.8 L 15.6 20.8 L 15.6 25.1 L 14.8 25.1 C 14.8 25.1 14.8 24.52 14.8 24.5 Z M 16.8 20.8 L 17.6 20.8 C 17.6 20.8 17.61 21.43 17.6 21.4 C 17.9 21 18.5 20.7 19 20.7 C 19 20.7 19 21.5 19 21.5 C 19 21.5 18.9 21.5 18.8 21.5 C 18.4 21.5 17.8 21.8 17.6 22.1 C 17.61 22.09 17.6 25.1 17.6 25.1 L 16.8 25.1 L 16.8 20.8 Z M 22.4 24.6 C 22.1 25 21.6 25.2 21 25.2 C 20.3 25.2 19.5 24.7 19.5 23.8 C 19.5 22.8 20.3 22.4 21 22.4 C 21.6 22.4 22.1 22.5 22.4 22.9 C 22.4 22.9 22.4 22.2 22.4 22.2 C 22.4 21.7 22 21.3 21.4 21.3 C 20.9 21.3 20.5 21.5 20.1 21.9 C 20.1 21.9 19.7 21.4 19.7 21.4 C 20.2 20.9 20.8 20.7 21.5 20.7 C 22.4 20.7 23.2 21.1 23.2 22.2 C 23.25 22.18 23.2 25.1 23.2 25.1 L 22.4 25.1 C 22.4 25.1 22.44 24.63 22.4 24.6 Z M 22.4 23.4 C 22.2 23.1 21.8 22.9 21.3 22.9 C 20.7 22.9 20.3 23.3 20.3 23.8 C 20.3 24.3 20.7 24.7 21.3 24.7 C 21.8 24.7 22.2 24.5 22.4 24.2 C 22.4 24.2 22.4 23.4 22.4 23.4 Z M 27.4 22.3 C 27.4 21.6 27 21.4 26.5 21.4 C 26 21.4 25.5 21.7 25.3 22 C 25.26 22 25.3 25.1 25.3 25.1 L 24.5 25.1 L 24.5 20.8 L 25.3 20.8 C 25.3 20.8 25.26 21.37 25.3 21.4 C 25.6 21 26.1 20.7 26.8 20.7 C 27.7 20.7 28.2 21.1 28.2 22.1 C 28.2 22.06 28.2 25.1 28.2 25.1 L 27.4 25.1 C 27.4 25.1 27.39 22.33 27.4 22.3 Z M 31.3 20.7 C 32.2 20.7 32.7 21 33 21.4 C 33 21.4 32.4 21.9 32.4 21.9 C 32.2 21.5 31.8 21.4 31.4 21.4 C 30.5 21.4 30 22 30 22.9 C 30 23.8 30.5 24.5 31.4 24.5 C 31.8 24.5 32.2 24.3 32.4 24 C 32.4 24 33 24.5 33 24.5 C 32.7 24.9 32.2 25.2 31.3 25.2 C 30 25.2 29.1 24.2 29.1 22.9 C 29.1 21.6 30 20.7 31.3 20.7 Z M 35.7 20.7 C 37 20.7 37.8 21.7 37.8 23 C 37.79 23 37.8 23.2 37.8 23.2 C 37.8 23.2 34.35 23.2 34.4 23.2 C 34.4 23.9 35 24.6 35.8 24.6 C 36.3 24.6 36.8 24.4 37.1 24 C 37.1 24 37.5 24.6 37.5 24.6 C 37.1 25 36.4 25.2 35.7 25.2 C 34.5 25.2 33.5 24.3 33.5 22.9 C 33.5 21.7 34.4 20.7 35.7 20.7 Z M 34.3 22.6 C 34.3 22.6 37 22.6 37 22.6 C 37 22 36.6 21.3 35.7 21.3 C 34.8 21.3 34.4 22 34.3 22.6 Z " stroke="none" fill="#242423"/>
  </g>
  <g id="Polygon210721">
    <path d="M 2.7 4.8 L 1.6 4.8 L 1.6 7.1 L 0.7 7.1 L 0.7 1.1 C 0.7 1.1 3.2 1.11 3.2 1.1 C 4.3 1.1 5.1 1.8 5.1 3 C 5.1 4 4.4 4.6 3.6 4.7 C 3.63 4.71 5.2 7.1 5.2 7.1 L 4.1 7.1 L 2.7 4.8 Z M 3.1 1.9 C 3.08 1.9 1.6 1.9 1.6 1.9 L 1.6 4 C 1.6 4 3.08 4.01 3.1 4 C 3.7 4 4.2 3.6 4.2 3 C 4.2 2.3 3.7 1.9 3.1 1.9 Z M 7.8 2.7 C 9.1 2.7 9.9 3.7 9.9 5 C 9.87 5 9.9 5.2 9.9 5.2 C 9.9 5.2 6.43 5.2 6.4 5.2 C 6.5 5.9 7 6.6 7.9 6.6 C 8.4 6.6 8.9 6.4 9.2 6 C 9.2 6 9.6 6.6 9.6 6.6 C 9.1 7 8.5 7.2 7.8 7.2 C 6.5 7.2 5.6 6.3 5.6 4.9 C 5.6 3.7 6.5 2.7 7.8 2.7 Z M 6.4 4.6 C 6.4 4.6 9.1 4.6 9.1 4.6 C 9.1 4 8.7 3.3 7.8 3.3 C 6.9 3.3 6.5 4 6.4 4.6 Z M 13.5 6.6 C 13.1 7 12.6 7.2 12.1 7.2 C 11.3 7.2 10.5 6.7 10.5 5.8 C 10.5 4.8 11.3 4.4 12.1 4.4 C 12.6 4.4 13.1 4.5 13.5 4.9 C 13.5 4.9 13.5 4.2 13.5 4.2 C 13.5 3.7 13 3.3 12.4 3.3 C 11.9 3.3 11.5 3.5 11.1 3.9 C 11.1 3.9 10.8 3.4 10.8 3.4 C 11.2 2.9 11.8 2.7 12.5 2.7 C 13.5 2.7 14.3 3.1 14.3 4.2 C 14.29 4.18 14.3 7.1 14.3 7.1 L 13.5 7.1 C 13.5 7.1 13.48 6.63 13.5 6.6 Z M 13.5 5.4 C 13.2 5.1 12.8 4.9 12.4 4.9 C 11.8 4.9 11.4 5.3 11.4 5.8 C 11.4 6.3 11.8 6.7 12.4 6.7 C 12.8 6.7 13.2 6.5 13.5 6.2 C 13.5 6.2 13.5 5.4 13.5 5.4 Z M 15.5 1.1 L 16.3 1.1 L 16.3 7.1 L 15.5 7.1 L 15.5 1.1 Z M 19.8 1.1 L 23.8 1.1 L 23.8 1.9 L 20.7 1.9 L 20.7 3.7 L 23.7 3.7 L 23.7 4.4 L 20.7 4.4 L 20.7 6.3 L 23.8 6.3 L 23.8 7.1 L 19.8 7.1 L 19.8 1.1 Z M 24.8 5.9 C 25.1 6.3 25.7 6.6 26.3 6.6 C 26.9 6.6 27.2 6.3 27.2 5.9 C 27.2 5.5 26.7 5.4 26.2 5.2 C 25.4 5.1 24.6 4.9 24.6 3.9 C 24.6 3.2 25.1 2.7 26.2 2.7 C 27 2.7 27.5 2.9 27.9 3.3 C 27.9 3.3 27.5 3.8 27.5 3.8 C 27.3 3.5 26.8 3.3 26.2 3.3 C 25.7 3.3 25.3 3.5 25.3 3.9 C 25.3 4.3 25.8 4.4 26.3 4.5 C 27.1 4.7 28 4.9 28 5.9 C 28 6.6 27.4 7.2 26.2 7.2 C 25.5 7.2 24.9 7 24.4 6.5 C 24.4 6.5 24.8 5.9 24.8 5.9 Z M 29.1 6.1 C 29.09 6.15 29.1 3.5 29.1 3.5 L 28.4 3.5 L 28.4 2.8 L 29.1 2.8 L 29.1 1.6 L 29.9 1.6 L 29.9 2.8 L 30.8 2.8 L 30.8 3.5 L 29.9 3.5 C 29.9 3.5 29.9 5.97 29.9 6 C 29.9 6.3 30 6.5 30.3 6.5 C 30.5 6.5 30.7 6.4 30.8 6.3 C 30.8 6.3 31 6.9 31 6.9 C 30.8 7.1 30.5 7.2 30.1 7.2 C 29.4 7.2 29.1 6.8 29.1 6.1 Z M 34.3 6.6 C 33.9 7 33.4 7.2 32.8 7.2 C 32.1 7.2 31.3 6.7 31.3 5.8 C 31.3 4.8 32.1 4.4 32.8 4.4 C 33.4 4.4 33.9 4.5 34.3 4.9 C 34.3 4.9 34.3 4.2 34.3 4.2 C 34.3 3.7 33.8 3.3 33.2 3.3 C 32.7 3.3 32.3 3.5 31.9 3.9 C 31.9 3.9 31.6 3.4 31.6 3.4 C 32 2.9 32.6 2.7 33.3 2.7 C 34.3 2.7 35.1 3.1 35.1 4.2 C 35.08 4.18 35.1 7.1 35.1 7.1 L 34.3 7.1 C 34.3 7.1 34.27 6.63 34.3 6.6 Z M 34.3 5.4 C 34 5.1 33.6 4.9 33.2 4.9 C 32.6 4.9 32.2 5.3 32.2 5.8 C 32.2 6.3 32.6 6.7 33.2 6.7 C 33.6 6.7 34 6.5 34.3 6.2 C 34.3 6.2 34.3 5.4 34.3 5.4 Z M 36.5 6.1 C 36.45 6.15 36.5 3.5 36.5 3.5 L 35.7 3.5 L 35.7 2.8 L 36.5 2.8 L 36.5 1.6 L 37.3 1.6 L 37.3 2.8 L 38.1 2.8 L 38.1 3.5 L 37.3 3.5 C 37.3 3.5 37.26 5.97 37.3 6 C 37.3 6.3 37.4 6.5 37.7 6.5 C 37.9 6.5 38 6.4 38.1 6.3 C 38.1 6.3 38.3 6.9 38.3 6.9 C 38.2 7.1 37.9 7.2 37.5 7.2 C 36.8 7.2 36.5 6.8 36.5 6.1 Z M 40.9 2.7 C 42.2 2.7 43 3.7 43 5 C 42.97 5 43 5.2 43 5.2 C 43 5.2 39.54 5.2 39.5 5.2 C 39.6 5.9 40.1 6.6 41 6.6 C 41.5 6.6 42 6.4 42.3 6 C 42.3 6 42.7 6.6 42.7 6.6 C 42.2 7 41.6 7.2 40.9 7.2 C 39.6 7.2 38.7 6.3 38.7 4.9 C 38.7 3.7 39.6 2.7 40.9 2.7 Z M 39.5 4.6 C 39.5 4.6 42.2 4.6 42.2 4.6 C 42.2 4 41.8 3.3 40.9 3.3 C 40 3.3 39.6 4 39.5 4.6 Z M 47.6 1.9 L 45.8 1.9 L 45.8 1.1 L 50.4 1.1 L 50.4 1.9 L 48.5 1.9 L 48.5 7.1 L 47.6 7.1 L 47.6 1.9 Z M 53.1 6.6 C 52.7 7 52.2 7.2 51.7 7.2 C 50.9 7.2 50.1 6.7 50.1 5.8 C 50.1 4.8 50.9 4.4 51.7 4.4 C 52.2 4.4 52.7 4.5 53.1 4.9 C 53.1 4.9 53.1 4.2 53.1 4.2 C 53.1 3.7 52.6 3.3 52 3.3 C 51.5 3.3 51.1 3.5 50.7 3.9 C 50.7 3.9 50.4 3.4 50.4 3.4 C 50.8 2.9 51.4 2.7 52.1 2.7 C 53.1 2.7 53.9 3.1 53.9 4.2 C 53.88 4.18 53.9 7.1 53.9 7.1 L 53.1 7.1 C 53.1 7.1 53.07 6.63 53.1 6.6 Z M 53.1 5.4 C 52.8 5.1 52.4 4.9 52 4.9 C 51.4 4.9 51 5.3 51 5.8 C 51 6.3 51.4 6.7 52 6.7 C 52.4 6.7 52.8 6.5 53.1 6.2 C 53.1 6.2 53.1 5.4 53.1 5.4 Z M 56.7 5.4 L 55.4 7.1 L 54.5 7.1 L 56.1 4.9 L 54.6 2.8 L 55.5 2.8 L 56.7 4.3 L 57.8 2.8 L 58.7 2.8 L 57.1 4.9 L 58.8 7.1 L 57.9 7.1 L 56.7 5.4 Z M 61.1 2.7 C 62.4 2.7 63.2 3.7 63.2 5 C 63.19 5 63.2 5.2 63.2 5.2 C 63.2 5.2 59.75 5.2 59.7 5.2 C 59.8 5.9 60.4 6.6 61.2 6.6 C 61.7 6.6 62.2 6.4 62.5 6 C 62.5 6 62.9 6.6 62.9 6.6 C 62.5 7 61.8 7.2 61.1 7.2 C 59.8 7.2 58.9 6.3 58.9 4.9 C 58.9 3.7 59.8 2.7 61.1 2.7 Z M 59.7 4.6 C 59.7 4.6 62.4 4.6 62.4 4.6 C 62.4 4 62 3.3 61.1 3.3 C 60.2 3.3 59.8 4 59.7 4.6 Z M 64.1 5.9 C 64.4 6.3 65 6.6 65.6 6.6 C 66.2 6.6 66.5 6.3 66.5 5.9 C 66.5 5.5 66 5.4 65.5 5.2 C 64.7 5.1 63.9 4.9 63.9 3.9 C 63.9 3.2 64.5 2.7 65.5 2.7 C 66.3 2.7 66.8 2.9 67.2 3.3 C 67.2 3.3 66.8 3.8 66.8 3.8 C 66.6 3.5 66.1 3.3 65.5 3.3 C 65 3.3 64.6 3.5 64.6 3.9 C 64.6 4.3 65.1 4.4 65.6 4.5 C 66.4 4.7 67.3 4.9 67.3 5.9 C 67.3 6.6 66.7 7.2 65.5 7.2 C 64.8 7.2 64.2 7 63.7 6.5 C 63.7 6.5 64.1 5.9 64.1 5.9 Z " stroke="none" fill="#242423"/>
  </g>
</svg>