<?xml version="1.0" standalone="no"?><!DOCTYPE svg PUBLIC "-//W3C//DTD SVG 1.1//EN" "http://www.w3.org/Graphics/SVG/1.1/DTD/svg11.dtd"><svg xmlns="http://www.w3.org/2000/svg" xmlns:xlink="http://www.w3.org/1999/xlink" version="1.1" width="237px" height="47.9px" viewBox="0 -14 237 47.9" style="top:-14px"><desc/><defs/><g id="Polygon59768"><path d="m110.1 6.9l6.9-3.6v.8l-6.1 3.1l6.1 3.1v.8l-6.9-3.6v-.6zm7.8 0l7-3.6v.8l-6.1 3.1l6.1 3.1v.8l-7-3.6v-.6zm8.8-4.9h.9v10.5h-.9V2zm8.7 5.4c0-1.5-.8-2-1.9-2c-1 0-2 .7-2.5 1.3v5.8h-.8V4.9h.8v1.1c.6-.6 1.7-1.3 2.8-1.3c1.5 0 2.4.7 2.4 2.5c-.02-.02 0 5.3 0 5.3h-.8s-.05-5.13 0-5.1zm3.2 3.5c.5.6 1.4 1.1 2.5 1.1c1.2 0 2-.6 2-1.5c0-1-1-1.3-2.2-1.5c-1.2-.4-2.6-.7-2.6-2.2c0-1.2.9-2.1 2.7-2.1c1.3 0 2.2.5 2.7 1.1l-.4.6c-.5-.6-1.3-1-2.3-1c-1.2 0-1.9.6-1.9 1.4c0 .8 1 1.1 2 1.3c1.3.4 2.8.7 2.8 2.4c0 1.2-1 2.2-2.9 2.2c-1.2 0-2.2-.3-2.9-1.2l.5-.6zm12.6.5c-.6.7-1.6 1.3-2.7 1.3c-1.6 0-2.5-.7-2.5-2.4c.04-.02 0-5.4 0-5.4h.9s-.03 5.19 0 5.2c0 1.5.7 1.9 1.8 1.9c1 0 2-.6 2.5-1.3c.02.02 0-5.8 0-5.8h.8v7.6h-.8s.02-1.08 0-1.1zm3.4-6.5h.8s.04 1.29 0 1.3c.7-.9 1.6-1.5 2.6-1.5v.9h-.4c-.8 0-1.8.7-2.2 1.4c.04-.04 0 5.5 0 5.5h-.8V4.9zm9.9 6.7c-.7.8-1.5 1.1-2.6 1.1c-1.3 0-2.7-.9-2.7-2.5c0-1.7 1.4-2.5 2.7-2.5c1.1 0 1.9.3 2.6 1V7.2c0-1.1-.9-1.8-2-1.8c-1 0-1.7.3-2.4 1.1l-.5-.5c.8-.9 1.7-1.3 2.9-1.3c1.6 0 2.9.7 2.9 2.4c-.05.05 0 5.4 0 5.4h-.9s.03-.86 0-.9zm0-2.2c-.5-.7-1.4-1.1-2.3-1.1c-1.3 0-2.1.8-2.1 1.9c0 1.1.8 1.9 2.1 1.9c.9 0 1.8-.4 2.3-1.1V9.4zm8.6-2c0-1.5-.7-2-1.9-2c-.9 0-2 .7-2.4 1.3c-.05.05 0 5.8 0 5.8h-.9V4.9h.9s-.05 1.13 0 1.1c.5-.6 1.6-1.3 2.7-1.3c1.6 0 2.4.7 2.4 2.5c.03-.02 0 5.3 0 5.3h-.8V7.4zm6.7-2.7c1.3 0 2.1.5 2.7 1.3l-.6.5c-.5-.8-1.2-1.1-2.1-1.1c-1.8 0-2.9 1.5-2.9 3.3c0 1.8 1.1 3.3 2.9 3.3c.9 0 1.6-.3 2.1-1.1l.6.5c-.6.8-1.4 1.3-2.7 1.3c-2.3 0-3.7-1.8-3.7-4c0-2.2 1.4-4 3.7-4zm7.8 0c2.3 0 3.6 1.8 3.6 4.1c.02-.05 0 .2 0 .2c0 0-6.39-.03-6.4 0c.1 1.6 1.2 3 3 3c1 0 1.9-.3 2.5-1l.4.5c-.7.8-1.7 1.2-3 1.2c-2.2 0-3.8-1.6-3.8-4c0-2.2 1.6-4 3.7-4zm-2.8 3.6h5.6c0-1.3-.9-2.9-2.8-2.9c-1.8 0-2.7 1.6-2.8 2.9zm12.1.4c0-2.6.8-5 2.1-7l.5.3c-1 2.1-1.7 3.9-1.7 6.7c0 2.7.7 4.6 1.7 6.6l-.5.4c-1.3-2.1-2.1-4.5-2.1-7zm4.2-6.7h.9v9.7h5.1v.8h-6V2zm14.6 7.9h-5.6l-1.1 2.6h-1L212.4 2h1.1l4.3 10.5h-1l-1.1-2.6zm-5.3-.8h5.1l-2.6-6.3l-2.5 6.3zm7.9-7.1l.5-.3c1.4 2 2.2 4.4 2.2 7c0 2.5-.8 4.9-2.2 7l-.5-.4c1.1-2 1.7-3.9 1.7-6.6c0-2.8-.6-4.6-1.7-6.7zm3.8 8.3l6.2-3.1l-6.2-3.1v-.8l7 3.6v.6l-7 3.6v-.8zm7.9 0l6.1-3.1l-6.1-3.1v-.8l7 3.6v.6l-7 3.6v-.8z" stroke="none" fill="#000"/><a xlink:href="DBF_Insurance%20(LA)" xlink:show="new" xlink:title="&lt;&lt;Insurance (LA)&gt;&gt;"><rect style="fill:transparent;" x="109" y="1" width="128" height="15"/></a></g></svg>