<?xml version="1.0" standalone="no"?>
<!DOCTYPE svg PUBLIC "-//W3C//DTD SVG 1.1//EN" "http://www.w3.org/Graphics/SVG/1.1/DTD/svg11.dtd">
<svg xmlns="http://www.w3.org/2000/svg" version="1.1" width="89.3px" height="16.9px" viewBox="0 -4 89.3 16.9" style="top:-4px">
  <desc>Options</desc>
  <defs/>
  <g id="Polygon274656">
    <path d="M 3.4 1 C 5.2 1 6.5 2.3 6.5 4.1 C 6.5 5.9 5.2 7.2 3.4 7.2 C 1.6 7.2 0.4 5.9 0.4 4.1 C 0.4 2.3 1.6 1 3.4 1 Z M 3.4 1.8 C 2.2 1.8 1.3 2.8 1.3 4.1 C 1.3 5.4 2.2 6.4 3.4 6.4 C 4.7 6.4 5.5 5.4 5.5 4.1 C 5.5 2.8 4.7 1.8 3.4 1.8 Z M 7.5 8.8 L 7.5 2.8 L 8.3 2.8 C 8.3 2.8 8.34 3.38 8.3 3.4 C 8.7 3 9.2 2.7 9.8 2.7 C 10.9 2.7 11.7 3.5 11.7 4.9 C 11.7 6.4 10.9 7.2 9.8 7.2 C 9.2 7.2 8.7 7 8.3 6.5 C 8.34 6.48 8.3 8.8 8.3 8.8 L 7.5 8.8 Z M 9.5 3.4 C 9.1 3.4 8.6 3.7 8.3 4 C 8.3 4 8.3 5.9 8.3 5.9 C 8.6 6.2 9.1 6.5 9.5 6.5 C 10.4 6.5 10.9 5.8 10.9 4.9 C 10.9 4 10.4 3.4 9.5 3.4 Z M 12.9 6.1 C 12.89 6.15 12.9 3.5 12.9 3.5 L 12.2 3.5 L 12.2 2.8 L 12.9 2.8 L 12.9 1.6 L 13.7 1.6 L 13.7 2.8 L 14.6 2.8 L 14.6 3.5 L 13.7 3.5 C 13.7 3.5 13.7 5.97 13.7 6 C 13.7 6.3 13.8 6.5 14.1 6.5 C 14.3 6.5 14.5 6.4 14.6 6.3 C 14.6 6.3 14.8 6.9 14.8 6.9 C 14.6 7.1 14.3 7.2 13.9 7.2 C 13.2 7.2 12.9 6.8 12.9 6.1 Z M 15.4 1.5 C 15.4 1.2 15.6 1 15.9 1 C 16.2 1 16.4 1.2 16.4 1.5 C 16.4 1.8 16.2 2 15.9 2 C 15.6 2 15.4 1.8 15.4 1.5 Z M 15.5 2.8 L 16.3 2.8 L 16.3 7.1 L 15.5 7.1 L 15.5 2.8 Z M 17.3 4.9 C 17.3 3.7 18.2 2.7 19.5 2.7 C 20.9 2.7 21.7 3.7 21.7 4.9 C 21.7 6.2 20.9 7.2 19.5 7.2 C 18.2 7.2 17.3 6.2 17.3 4.9 Z M 20.9 4.9 C 20.9 4.1 20.4 3.4 19.5 3.4 C 18.6 3.4 18.2 4.1 18.2 4.9 C 18.2 5.8 18.6 6.5 19.5 6.5 C 20.4 6.5 20.9 5.8 20.9 4.9 Z M 25.7 4.3 C 25.7 3.6 25.3 3.4 24.7 3.4 C 24.2 3.4 23.8 3.7 23.5 4 C 23.53 4 23.5 7.1 23.5 7.1 L 22.7 7.1 L 22.7 2.8 L 23.5 2.8 C 23.5 2.8 23.53 3.37 23.5 3.4 C 23.8 3 24.4 2.7 25.1 2.7 C 26 2.7 26.5 3.1 26.5 4.1 C 26.47 4.06 26.5 7.1 26.5 7.1 L 25.7 7.1 C 25.7 7.1 25.66 4.33 25.7 4.3 Z M 27.8 5.9 C 28.1 6.3 28.6 6.6 29.2 6.6 C 29.8 6.6 30.2 6.3 30.2 5.9 C 30.2 5.5 29.7 5.4 29.1 5.2 C 28.4 5.1 27.5 4.9 27.5 3.9 C 27.5 3.2 28.1 2.7 29.2 2.7 C 29.9 2.7 30.4 2.9 30.8 3.3 C 30.8 3.3 30.5 3.8 30.5 3.8 C 30.2 3.5 29.7 3.3 29.2 3.3 C 28.6 3.3 28.3 3.5 28.3 3.9 C 28.3 4.3 28.7 4.4 29.3 4.5 C 30 4.7 30.9 4.9 30.9 5.9 C 30.9 6.6 30.3 7.2 29.2 7.2 C 28.5 7.2 27.8 7 27.4 6.5 C 27.4 6.5 27.8 5.9 27.8 5.9 Z " stroke="none" fill="#000"/>
  </g>
</svg>