<?xml version="1.0" standalone="no"?><!DOCTYPE svg PUBLIC "-//W3C//DTD SVG 1.1//EN" "http://www.w3.org/Graphics/SVG/1.1/DTD/svg11.dtd"><svg xmlns="http://www.w3.org/2000/svg" xmlns:xlink="http://www.w3.org/1999/xlink" version="1.1" width="134.3px" height="27.9px" viewBox="0 -8 134.3 27.9" style="top:-8px"><desc/><defs/><g id="Polygon44169"><path d="m69.3 3.9l4-2v.4l-3.5 1.8l3.5 1.8v.4l-4-2v-.4zm4.5 0l3.9-2v.4l-3.5 1.8l3.5 1.8v.4l-3.9-2v-.4zm4.9-2.8h2.3c1.1 0 1.8.8 1.8 1.8c0 .9-.7 1.7-1.8 1.7c-.03.02-1.8 0-1.8 0v2.5h-.5v-6zm2.2.5c.02-.03-1.7 0-1.7 0v2.5s1.72.05 1.7 0c.8 0 1.3-.5 1.3-1.2c0-.8-.5-1.3-1.3-1.3zm2.9 1.2h.5v.7c.4-.5.9-.8 1.5-.8v.5h-.3c-.4 0-1 .4-1.2.7v3.2h-.5V2.8zm2.6 2.1c0-1.2.9-2.2 2.1-2.2c1.3 0 2.1 1 2.1 2.2c0 1.3-.8 2.3-2.1 2.3c-1.2 0-2.1-1-2.1-2.3zm3.7 0c0-.9-.5-1.8-1.6-1.8c-1 0-1.6.9-1.6 1.8c0 1 .6 1.9 1.6 1.9c1.1 0 1.6-.9 1.6-1.9zm1.7 3.9v-6h.5v.7c.3-.5.9-.8 1.5-.8c1.2 0 2 .8 2 2.2c0 1.4-.8 2.3-2 2.3c-.6 0-1.1-.3-1.5-.8v2.4h-.5zm1.9-5.7c-.6 0-1.1.3-1.4.8v2.1c.3.4.8.8 1.4.8c1 0 1.6-.8 1.6-1.9c0-1-.6-1.8-1.6-1.8zm5.1-.4c1.3 0 2.1 1 2.1 2.3c-.04-.04 0 .1 0 .1c0 0-3.67-.02-3.7 0c.1.9.7 1.7 1.7 1.7c.6 0 1.1-.2 1.5-.6l.2.3c-.4.5-1 .7-1.7.7c-1.3 0-2.2-.9-2.2-2.3c0-1.2.9-2.2 2.1-2.2zm-1.6 2h3.2c0-.7-.5-1.6-1.6-1.6c-1 0-1.5.9-1.6 1.6zm4.9-1.9h.4s.04.71 0 .7c.4-.5.9-.8 1.5-.8v.5h-.2c-.5 0-1.1.4-1.3.7c.04.04 0 3.2 0 3.2h-.4V2.8zm2.9 3.5V3.2h-.7v-.4h.7V1.6h.5v1.2h.9v.4h-.9v3c0 .4.1.6.4.6c.2 0 .4-.1.5-.2l.2.3c-.2.2-.4.3-.7.3c-.6 0-.9-.3-.9-.9zm2.6 2.2c.3 0 .5-.2.6-.6c.03.02.4-.8.4-.8l-1.9-4.3h.6l1.5 3.8l1.6-3.8h.5s-2.21 5.26-2.2 5.3c-.2.5-.6.8-1.1.8c-.2 0-.4-.1-.5-.1l.1-.4c.1 0 .3.1.4.1zm6.2-1.8l3.6-5.1h-3.6v-.5h4.2v.4l-3.6 5.1h3.7v.5h-4.3v-.4zm5.4-5c0-.2.1-.4.3-.4c.2 0 .4.2.4.4c0 .2-.2.3-.4.3c-.2 0-.3-.1-.3-.3zm.1 1.1h.5v4.3h-.5V2.8zm1.9 6v-6h.5s-.02.66 0 .7c.3-.5.8-.8 1.5-.8c1.2 0 1.9.8 1.9 2.2c0 1.4-.7 2.3-1.9 2.3c-.6 0-1.2-.3-1.5-.8c-.02.01 0 2.4 0 2.4h-.5zm1.9-5.7c-.6 0-1.2.3-1.4.8v2.1c.2.4.8.8 1.4.8c1 0 1.5-.8 1.5-1.9c0-1-.5-1.8-1.5-1.8zm2.8 2.8l3.4-1.8l-3.4-1.8v-.4l3.9 2v.4l-3.9 2v-.4zm4.4 0l3.5-1.8l-3.5-1.8v-.4l4 2v.4l-4 2v-.4z" stroke="none" fill="#000"/><a xlink:href="DBF_Property%20Zip" xlink:show="new" xlink:title="&lt;&lt;Property Zip&gt;&gt;"><rect style="fill:transparent;" x="68" y="0" width="66" height="9"/></a></g></svg>