<?xml version="1.0" standalone="no"?>
<!DOCTYPE svg PUBLIC "-//W3C//DTD SVG 1.1//EN" "http://www.w3.org/Graphics/SVG/1.1/DTD/svg11.dtd">
<svg xmlns="http://www.w3.org/2000/svg" version="1.1" width="284.4px" height="16.9px" viewBox="0 -4 284.4 16.9" style="top:-4px">
  <desc>12345 STREET ADDRESS, CITY, STATE ZIP</desc>
  <defs/>
  <g id="Polygon233566">
    <path d="M 117.8 2.3 L 116.8 3.3 L 116.3 2.8 L 117.9 1.1 L 118.7 1.1 L 118.7 7.1 L 117.8 7.1 L 117.8 2.3 Z M 119.8 6.4 C 122.1 4.7 123.1 3.8 123.1 2.8 C 123.1 2.1 122.5 1.8 122 1.8 C 121.3 1.8 120.7 2.1 120.3 2.6 C 120.3 2.6 119.8 2 119.8 2 C 120.3 1.4 121.1 1 122 1 C 123 1 124 1.6 124 2.8 C 124 4 122.9 5 121.3 6.3 C 121.28 6.32 124.1 6.3 124.1 6.3 L 124.1 7.1 L 119.8 7.1 C 119.8 7.1 119.85 6.4 119.8 6.4 Z M 125.4 5.7 C 125.8 6.1 126.4 6.4 127.1 6.4 C 127.9 6.4 128.4 6 128.4 5.4 C 128.4 4.7 127.9 4.4 127 4.4 C 126.8 4.4 126.5 4.4 126.4 4.5 C 126.4 4.5 126.4 3.6 126.4 3.6 C 126.5 3.6 126.8 3.6 127 3.6 C 127.7 3.6 128.3 3.4 128.3 2.8 C 128.3 2.1 127.8 1.8 127.1 1.8 C 126.4 1.8 125.9 2.1 125.5 2.5 C 125.5 2.5 125 2 125 2 C 125.5 1.4 126.2 1 127.1 1 C 128.4 1 129.2 1.6 129.2 2.6 C 129.2 3.5 128.5 3.9 127.9 4 C 128.5 4.1 129.3 4.5 129.3 5.5 C 129.3 6.5 128.5 7.2 127.1 7.2 C 126.1 7.2 125.3 6.8 124.9 6.2 C 124.9 6.2 125.4 5.7 125.4 5.7 Z M 132.9 5.7 L 130.1 5.7 L 130.1 4.9 L 132.6 1.1 L 133.8 1.1 L 133.8 4.9 L 134.6 4.9 L 134.6 5.7 L 133.8 5.7 L 133.8 7.1 L 132.9 7.1 L 132.9 5.7 Z M 130.9 4.9 L 132.9 4.9 L 132.9 1.9 L 130.9 4.9 Z M 136 5.7 C 136.4 6.1 136.9 6.4 137.6 6.4 C 138.4 6.4 138.9 5.9 138.9 5.2 C 138.9 4.5 138.4 4.1 137.6 4.1 C 137.1 4.1 136.7 4.2 136.3 4.6 C 136.29 4.61 135.6 4.4 135.6 4.4 L 135.6 1.1 L 139.4 1.1 L 139.4 1.9 L 136.5 1.9 C 136.5 1.9 136.54 3.82 136.5 3.8 C 136.8 3.5 137.3 3.3 137.9 3.3 C 138.9 3.3 139.8 4 139.8 5.2 C 139.8 6.4 138.9 7.2 137.6 7.2 C 136.6 7.2 135.9 6.9 135.5 6.3 C 135.5 6.3 136 5.7 136 5.7 Z M 143.4 5.6 C 143.8 6 144.4 6.4 145.3 6.4 C 146.3 6.4 146.6 5.9 146.6 5.5 C 146.6 4.9 145.9 4.7 145.1 4.5 C 144.2 4.2 143.1 4 143.1 2.7 C 143.1 1.7 143.9 1 145.2 1 C 146.1 1 146.8 1.3 147.4 1.9 C 147.4 1.9 146.9 2.5 146.9 2.5 C 146.4 2 145.8 1.8 145.1 1.8 C 144.5 1.8 144 2.2 144 2.7 C 144 3.2 144.6 3.4 145.4 3.6 C 146.4 3.8 147.5 4.1 147.5 5.4 C 147.5 6.3 146.9 7.2 145.2 7.2 C 144.2 7.2 143.4 6.8 142.9 6.3 C 142.9 6.3 143.4 5.6 143.4 5.6 Z M 150 1.9 L 148.1 1.9 L 148.1 1.1 L 152.7 1.1 L 152.7 1.9 L 150.8 1.9 L 150.8 7.1 L 150 7.1 L 150 1.9 Z M 155.7 4.8 L 154.5 4.8 L 154.5 7.1 L 153.6 7.1 L 153.6 1.1 C 153.6 1.1 156.17 1.11 156.2 1.1 C 157.3 1.1 158.1 1.8 158.1 3 C 158.1 4 157.4 4.6 156.6 4.7 C 156.6 4.71 158.1 7.1 158.1 7.1 L 157.1 7.1 L 155.7 4.8 Z M 156.1 1.9 C 156.05 1.9 154.5 1.9 154.5 1.9 L 154.5 4 C 154.5 4 156.05 4.01 156.1 4 C 156.7 4 157.2 3.6 157.2 3 C 157.2 2.3 156.7 1.9 156.1 1.9 Z M 159.2 1.1 L 163.2 1.1 L 163.2 1.9 L 160.1 1.9 L 160.1 3.7 L 163.2 3.7 L 163.2 4.4 L 160.1 4.4 L 160.1 6.3 L 163.2 6.3 L 163.2 7.1 L 159.2 7.1 L 159.2 1.1 Z M 164.4 1.1 L 168.4 1.1 L 168.4 1.9 L 165.3 1.9 L 165.3 3.7 L 168.3 3.7 L 168.3 4.4 L 165.3 4.4 L 165.3 6.3 L 168.4 6.3 L 168.4 7.1 L 164.4 7.1 L 164.4 1.1 Z M 171 1.9 L 169.1 1.9 L 169.1 1.1 L 173.7 1.1 L 173.7 1.9 L 171.9 1.9 L 171.9 7.1 L 171 7.1 L 171 1.9 Z M 180.8 5.9 L 177.9 5.9 L 177.4 7.1 L 176.4 7.1 L 178.8 1.1 L 179.9 1.1 L 182.3 7.1 L 181.3 7.1 L 180.8 5.9 Z M 178.1 5.1 L 180.5 5.1 L 179.3 1.9 L 178.1 5.1 Z M 183 1.1 C 183 1.1 185.13 1.11 185.1 1.1 C 187 1.1 188.2 2.4 188.2 4.1 C 188.2 5.9 187 7.1 185.1 7.1 C 185.13 7.11 183 7.1 183 7.1 L 183 1.1 Z M 185.1 6.3 C 186.5 6.3 187.3 5.3 187.3 4.1 C 187.3 2.9 186.5 1.9 185.1 1.9 C 185.13 1.9 183.9 1.9 183.9 1.9 L 183.9 6.3 C 183.9 6.3 185.13 6.32 185.1 6.3 Z M 189.3 1.1 C 189.3 1.1 191.48 1.11 191.5 1.1 C 193.3 1.1 194.6 2.4 194.6 4.1 C 194.6 5.9 193.3 7.1 191.5 7.1 C 191.48 7.11 189.3 7.1 189.3 7.1 L 189.3 1.1 Z M 191.5 6.3 C 192.9 6.3 193.7 5.3 193.7 4.1 C 193.7 2.9 192.9 1.9 191.5 1.9 C 191.48 1.9 190.2 1.9 190.2 1.9 L 190.2 6.3 C 190.2 6.3 191.48 6.32 191.5 6.3 Z M 197.7 4.8 L 196.6 4.8 L 196.6 7.1 L 195.7 7.1 L 195.7 1.1 C 195.7 1.1 198.21 1.11 198.2 1.1 C 199.4 1.1 200.1 1.8 200.1 3 C 200.1 4 199.4 4.6 198.6 4.7 C 198.64 4.71 200.2 7.1 200.2 7.1 L 199.1 7.1 L 197.7 4.8 Z M 198.1 1.9 C 198.09 1.9 196.6 1.9 196.6 1.9 L 196.6 4 C 196.6 4 198.09 4.01 198.1 4 C 198.7 4 199.2 3.6 199.2 3 C 199.2 2.3 198.7 1.9 198.1 1.9 Z M 201.2 1.1 L 205.3 1.1 L 205.3 1.9 L 202.1 1.9 L 202.1 3.7 L 205.2 3.7 L 205.2 4.4 L 202.1 4.4 L 202.1 6.3 L 205.3 6.3 L 205.3 7.1 L 201.2 7.1 L 201.2 1.1 Z M 206.5 5.6 C 206.9 6 207.6 6.4 208.4 6.4 C 209.4 6.4 209.7 5.9 209.7 5.5 C 209.7 4.9 209.1 4.7 208.3 4.5 C 207.3 4.2 206.2 4 206.2 2.7 C 206.2 1.7 207.1 1 208.3 1 C 209.3 1 210 1.3 210.5 1.9 C 210.5 1.9 210 2.5 210 2.5 C 209.5 2 208.9 1.8 208.3 1.8 C 207.6 1.8 207.1 2.2 207.1 2.7 C 207.1 3.2 207.8 3.4 208.5 3.6 C 209.5 3.8 210.7 4.1 210.7 5.4 C 210.7 6.3 210 7.2 208.4 7.2 C 207.3 7.2 206.5 6.8 206 6.3 C 206 6.3 206.5 5.6 206.5 5.6 Z M 211.9 5.6 C 212.3 6 212.9 6.4 213.7 6.4 C 214.7 6.4 215.1 5.9 215.1 5.5 C 215.1 4.9 214.4 4.7 213.6 4.5 C 212.6 4.2 211.5 4 211.5 2.7 C 211.5 1.7 212.4 1 213.7 1 C 214.6 1 215.3 1.3 215.8 1.9 C 215.8 1.9 215.3 2.5 215.3 2.5 C 214.9 2 214.2 1.8 213.6 1.8 C 212.9 1.8 212.5 2.2 212.5 2.7 C 212.5 3.2 213.1 3.4 213.8 3.6 C 214.8 3.8 216 4.1 216 5.4 C 216 6.3 215.3 7.2 213.7 7.2 C 212.6 7.2 211.9 6.8 211.3 6.3 C 211.3 6.3 211.9 5.6 211.9 5.6 Z M 216.9 8 C 217.2 7.8 217.4 7.4 217.5 7.1 C 217.5 7.1 217.4 7.1 217.3 7.1 C 217.1 7.1 216.9 6.9 216.9 6.6 C 216.9 6.3 217.1 6.1 217.4 6.1 C 217.7 6.1 218 6.4 218 6.8 C 218 7.4 217.7 8 217.2 8.3 C 217.2 8.3 216.9 8 216.9 8 Z M 221.2 4.1 C 221.2 2.3 222.6 1 224.3 1 C 225.5 1 226.2 1.6 226.7 2.3 C 226.7 2.3 225.9 2.7 225.9 2.7 C 225.6 2.2 225 1.8 224.3 1.8 C 223.1 1.8 222.2 2.8 222.2 4.1 C 222.2 5.5 223.1 6.4 224.3 6.4 C 225 6.4 225.6 6 225.9 5.5 C 225.9 5.5 226.7 5.9 226.7 5.9 C 226.2 6.7 225.5 7.2 224.3 7.2 C 222.6 7.2 221.2 6 221.2 4.1 Z M 227.6 1.1 L 228.5 1.1 L 228.5 7.1 L 227.6 7.1 L 227.6 1.1 Z M 231.3 1.9 L 229.4 1.9 L 229.4 1.1 L 234.1 1.1 L 234.1 1.9 L 232.2 1.9 L 232.2 7.1 L 231.3 7.1 L 231.3 1.9 Z M 236.7 4.6 L 234.4 1.1 L 235.4 1.1 L 237.2 3.8 L 238.9 1.1 L 240 1.1 L 237.6 4.6 L 237.6 7.1 L 236.7 7.1 L 236.7 4.6 Z M 239.7 8 C 240 7.8 240.3 7.4 240.3 7.1 C 240.3 7.1 240.2 7.1 240.2 7.1 C 239.9 7.1 239.7 6.9 239.7 6.6 C 239.7 6.3 240 6.1 240.3 6.1 C 240.6 6.1 240.9 6.4 240.9 6.8 C 240.9 7.4 240.6 8 240.1 8.3 C 240.1 8.3 239.7 8 239.7 8 Z M 244.5 5.6 C 244.9 6 245.5 6.4 246.4 6.4 C 247.3 6.4 247.7 5.9 247.7 5.5 C 247.7 4.9 247 4.7 246.2 4.5 C 245.3 4.2 244.2 4 244.2 2.7 C 244.2 1.7 245 1 246.3 1 C 247.2 1 247.9 1.3 248.5 1.9 C 248.5 1.9 247.9 2.5 247.9 2.5 C 247.5 2 246.9 1.8 246.2 1.8 C 245.5 1.8 245.1 2.2 245.1 2.7 C 245.1 3.2 245.7 3.4 246.5 3.6 C 247.5 3.8 248.6 4.1 248.6 5.4 C 248.6 6.3 248 7.2 246.3 7.2 C 245.3 7.2 244.5 6.8 244 6.3 C 244 6.3 244.5 5.6 244.5 5.6 Z M 251 1.9 L 249.2 1.9 L 249.2 1.1 L 253.8 1.1 L 253.8 1.9 L 251.9 1.9 L 251.9 7.1 L 251 7.1 L 251 1.9 Z M 257.9 5.9 L 255 5.9 L 254.5 7.1 L 253.5 7.1 L 255.9 1.1 L 257 1.1 L 259.4 7.1 L 258.4 7.1 L 257.9 5.9 Z M 255.2 5.1 L 257.7 5.1 L 256.5 1.9 L 255.2 5.1 Z M 261 1.9 L 259.1 1.9 L 259.1 1.1 L 263.8 1.1 L 263.8 1.9 L 261.9 1.9 L 261.9 7.1 L 261 7.1 L 261 1.9 Z M 264.7 1.1 L 268.7 1.1 L 268.7 1.9 L 265.6 1.9 L 265.6 3.7 L 268.7 3.7 L 268.7 4.4 L 265.6 4.4 L 265.6 6.3 L 268.7 6.3 L 268.7 7.1 L 264.7 7.1 L 264.7 1.1 Z M 271.9 6.4 L 275.1 1.9 L 271.9 1.9 L 271.9 1.1 L 276.3 1.1 L 276.3 1.8 L 273.1 6.3 L 276.4 6.3 L 276.4 7.1 L 271.9 7.1 L 271.9 6.4 Z M 277.5 1.1 L 278.4 1.1 L 278.4 7.1 L 277.5 7.1 L 277.5 1.1 Z M 279.7 1.1 C 279.7 1.1 282.22 1.11 282.2 1.1 C 283.5 1.1 284.1 2 284.1 3 C 284.1 4 283.4 4.8 282.2 4.8 C 282.22 4.8 280.6 4.8 280.6 4.8 L 280.6 7.1 L 279.7 7.1 L 279.7 1.1 Z M 282.1 1.9 C 282.11 1.9 280.6 1.9 280.6 1.9 L 280.6 4 C 280.6 4 282.11 4.01 282.1 4 C 282.8 4 283.2 3.6 283.2 3 C 283.2 2.3 282.8 1.9 282.1 1.9 Z " stroke="none" fill="#88898a"/>
  </g>
</svg>