<?xml version="1.0" standalone="no"?>
<!DOCTYPE svg PUBLIC "-//W3C//DTD SVG 1.1//EN" "http://www.w3.org/Graphics/SVG/1.1/DTD/svg11.dtd">
<svg xmlns="http://www.w3.org/2000/svg" version="1.1" width="124px" height="63.9px" viewBox="0 -10 124 63.9" style="top:-10px">
  <desc>Agent 1</desc>
  <defs/>
  <g id="Polygon240089">
    <path d="M 1.2 33.7 L 2.8 33.7 L 2.8 42.9 L 7.6 42.9 L 7.6 44.3 L 1.2 44.3 L 1.2 33.7 Z M 12.2 36.4 C 14.5 36.4 15.9 38.2 15.9 40.6 C 15.94 40.55 15.9 40.9 15.9 40.9 C 15.9 40.9 9.88 40.9 9.9 40.9 C 10 42.2 10.9 43.3 12.5 43.3 C 13.3 43.3 14.2 43 14.8 42.4 C 14.8 42.4 15.4 43.3 15.4 43.3 C 14.7 44.1 13.6 44.5 12.3 44.5 C 10.1 44.5 8.4 42.8 8.4 40.4 C 8.4 38.2 10 36.4 12.2 36.4 Z M 9.9 39.9 C 9.9 39.9 14.5 39.9 14.5 39.9 C 14.5 38.9 13.8 37.6 12.2 37.6 C 10.7 37.6 9.9 38.8 9.9 39.9 Z M 22.3 43.4 C 21.7 44.1 20.8 44.5 19.8 44.5 C 18.5 44.5 17.1 43.6 17.1 41.9 C 17.1 40.2 18.5 39.4 19.8 39.4 C 20.8 39.4 21.7 39.7 22.3 40.4 C 22.3 40.4 22.3 39.2 22.3 39.2 C 22.3 38.2 21.5 37.6 20.4 37.6 C 19.6 37.6 18.8 38 18.1 38.6 C 18.1 38.6 17.5 37.7 17.5 37.7 C 18.4 36.8 19.4 36.4 20.7 36.4 C 22.3 36.4 23.7 37.1 23.7 39.1 C 23.74 39.09 23.7 44.3 23.7 44.3 L 22.3 44.3 C 22.3 44.3 22.32 43.43 22.3 43.4 Z M 22.3 41.3 C 21.9 40.7 21.1 40.4 20.3 40.4 C 19.3 40.4 18.6 41 18.6 41.9 C 18.6 42.8 19.3 43.5 20.3 43.5 C 21.1 43.5 21.9 43.2 22.3 42.6 C 22.3 42.6 22.3 41.3 22.3 41.3 Z M 25.9 42.2 C 26.4 42.8 27.4 43.3 28.5 43.3 C 29.5 43.3 30.1 42.9 30.1 42.2 C 30.1 41.5 29.2 41.2 28.3 41 C 27 40.7 25.4 40.3 25.4 38.7 C 25.4 37.5 26.5 36.4 28.3 36.4 C 29.7 36.4 30.6 36.9 31.3 37.5 C 31.3 37.5 30.6 38.5 30.6 38.5 C 30.2 38 29.3 37.6 28.4 37.6 C 27.4 37.6 26.8 37.9 26.8 38.6 C 26.8 39.2 27.6 39.5 28.6 39.7 C 29.9 40 31.5 40.3 31.5 42.1 C 31.5 43.4 30.4 44.5 28.4 44.5 C 27.1 44.5 26 44.1 25.2 43.3 C 25.2 43.3 25.9 42.2 25.9 42.2 Z M 36.5 36.4 C 38.8 36.4 40.2 38.2 40.2 40.6 C 40.24 40.55 40.2 40.9 40.2 40.9 C 40.2 40.9 34.18 40.9 34.2 40.9 C 34.3 42.2 35.2 43.3 36.8 43.3 C 37.6 43.3 38.5 43 39.1 42.4 C 39.1 42.4 39.7 43.3 39.7 43.3 C 39 44.1 37.9 44.5 36.6 44.5 C 34.4 44.5 32.7 42.8 32.7 40.4 C 32.7 38.2 34.3 36.4 36.5 36.4 Z M 34.2 39.9 C 34.2 39.9 38.8 39.9 38.8 39.9 C 38.8 38.9 38.1 37.6 36.5 37.6 C 35 37.6 34.2 38.8 34.2 39.9 Z M 48.4 35.1 L 45.2 35.1 L 45.2 33.7 L 53.3 33.7 L 53.3 35.1 L 50 35.1 L 50 44.3 L 48.4 44.3 L 48.4 35.1 Z M 54.2 46.1 C 54.7 46.1 55.1 45.9 55.3 45.4 C 55.33 45.37 55.8 44.3 55.8 44.3 L 52.6 36.6 L 54.1 36.6 L 56.5 42.6 L 58.9 36.6 L 60.5 36.6 C 60.5 36.6 56.7 45.73 56.7 45.7 C 56.2 46.9 55.4 47.4 54.3 47.4 C 54 47.4 53.6 47.3 53.4 47.3 C 53.4 47.3 53.6 46 53.6 46 C 53.8 46.1 54 46.1 54.2 46.1 Z M 61.5 47.2 L 61.5 36.6 L 62.9 36.6 C 62.9 36.6 62.91 37.69 62.9 37.7 C 63.5 36.9 64.4 36.4 65.4 36.4 C 67.4 36.4 68.8 37.9 68.8 40.4 C 68.8 42.9 67.4 44.5 65.4 44.5 C 64.4 44.5 63.5 44 62.9 43.2 C 62.91 43.16 62.9 47.2 62.9 47.2 L 61.5 47.2 Z M 65 37.7 C 64.2 37.7 63.3 38.2 62.9 38.8 C 62.9 38.8 62.9 42.1 62.9 42.1 C 63.3 42.7 64.2 43.2 65 43.2 C 66.5 43.2 67.3 42 67.3 40.4 C 67.3 38.8 66.5 37.7 65 37.7 Z M 73.9 36.4 C 76.2 36.4 77.6 38.2 77.6 40.6 C 77.58 40.55 77.6 40.9 77.6 40.9 C 77.6 40.9 71.52 40.9 71.5 40.9 C 71.6 42.2 72.6 43.3 74.1 43.3 C 74.9 43.3 75.8 43 76.4 42.4 C 76.4 42.4 77.1 43.3 77.1 43.3 C 76.3 44.1 75.2 44.5 74 44.5 C 71.7 44.5 70 42.8 70 40.4 C 70 38.2 71.6 36.4 73.9 36.4 Z M 71.5 39.9 C 71.5 39.9 76.2 39.9 76.2 39.9 C 76.2 38.9 75.5 37.6 73.9 37.6 C 72.3 37.6 71.6 38.8 71.5 39.9 Z " stroke="none" fill="#3797ef"/>
  </g>
</svg>