<?xml version="1.0" standalone="no"?>
<!DOCTYPE svg PUBLIC "-//W3C//DTD SVG 1.1//EN" "http://www.w3.org/Graphics/SVG/1.1/DTD/svg11.dtd">
<svg xmlns="http://www.w3.org/2000/svg" version="1.1" width="89.3px" height="16.9px" viewBox="0 -4 89.3 16.9" style="top:-4px">
  <desc>Increases</desc>
  <defs/>
  <g id="Polygon274630">
    <path d="M 0.7 1.1 L 1.6 1.1 L 1.6 7.1 L 0.7 7.1 L 0.7 1.1 Z M 5.8 4.3 C 5.8 3.6 5.5 3.4 4.9 3.4 C 4.4 3.4 3.9 3.7 3.7 4 C 3.7 4 3.7 7.1 3.7 7.1 L 2.9 7.1 L 2.9 2.8 L 3.7 2.8 C 3.7 2.8 3.7 3.37 3.7 3.4 C 4 3 4.6 2.7 5.2 2.7 C 6.2 2.7 6.6 3.1 6.6 4.1 C 6.63 4.06 6.6 7.1 6.6 7.1 L 5.8 7.1 C 5.8 7.1 5.82 4.33 5.8 4.3 Z M 9.9 2.7 C 10.7 2.7 11.2 3 11.5 3.4 C 11.5 3.4 11 3.9 11 3.9 C 10.7 3.5 10.3 3.4 9.9 3.4 C 9 3.4 8.5 4 8.5 4.9 C 8.5 5.8 9 6.5 9.9 6.5 C 10.3 6.5 10.7 6.3 11 6 C 11 6 11.5 6.5 11.5 6.5 C 11.2 6.9 10.7 7.2 9.9 7.2 C 8.5 7.2 7.7 6.2 7.7 4.9 C 7.7 3.6 8.5 2.7 9.9 2.7 Z M 12.4 2.8 L 13.2 2.8 C 13.2 2.8 13.19 3.43 13.2 3.4 C 13.5 3 14 2.7 14.6 2.7 C 14.6 2.7 14.6 3.5 14.6 3.5 C 14.5 3.5 14.4 3.5 14.3 3.5 C 13.9 3.5 13.4 3.8 13.2 4.1 C 13.19 4.09 13.2 7.1 13.2 7.1 L 12.4 7.1 L 12.4 2.8 Z M 17.3 2.7 C 18.6 2.7 19.4 3.7 19.4 5 C 19.45 5 19.4 5.2 19.4 5.2 C 19.4 5.2 16.01 5.2 16 5.2 C 16.1 5.9 16.6 6.6 17.5 6.6 C 17.9 6.6 18.5 6.4 18.8 6 C 18.8 6 19.2 6.6 19.2 6.6 C 18.7 7 18.1 7.2 17.4 7.2 C 16.1 7.2 15.2 6.3 15.2 4.9 C 15.2 3.7 16.1 2.7 17.3 2.7 Z M 16 4.6 C 16 4.6 18.7 4.6 18.7 4.6 C 18.6 4 18.3 3.3 17.3 3.3 C 16.5 3.3 16 4 16 4.6 Z M 23.1 6.6 C 22.8 7 22.3 7.2 21.7 7.2 C 21 7.2 20.2 6.7 20.2 5.8 C 20.2 4.8 21 4.4 21.7 4.4 C 22.3 4.4 22.8 4.5 23.1 4.9 C 23.1 4.9 23.1 4.2 23.1 4.2 C 23.1 3.7 22.7 3.3 22.1 3.3 C 21.6 3.3 21.2 3.5 20.8 3.9 C 20.8 3.9 20.4 3.4 20.4 3.4 C 20.9 2.9 21.5 2.7 22.2 2.7 C 23.2 2.7 24 3.1 24 4.2 C 23.96 4.18 24 7.1 24 7.1 L 23.1 7.1 C 23.1 7.1 23.15 6.63 23.1 6.6 Z M 23.1 5.4 C 22.9 5.1 22.5 4.9 22 4.9 C 21.4 4.9 21 5.3 21 5.8 C 21 6.3 21.4 6.7 22 6.7 C 22.5 6.7 22.9 6.5 23.1 6.2 C 23.1 6.2 23.1 5.4 23.1 5.4 Z M 25.3 5.9 C 25.6 6.3 26.1 6.6 26.7 6.6 C 27.3 6.6 27.7 6.3 27.7 5.9 C 27.7 5.5 27.2 5.4 26.6 5.2 C 25.9 5.1 25 4.9 25 3.9 C 25 3.2 25.6 2.7 26.7 2.7 C 27.4 2.7 27.9 2.9 28.3 3.3 C 28.3 3.3 28 3.8 28 3.8 C 27.7 3.5 27.2 3.3 26.7 3.3 C 26.1 3.3 25.8 3.5 25.8 3.9 C 25.8 4.3 26.2 4.4 26.8 4.5 C 27.5 4.7 28.4 4.9 28.4 5.9 C 28.4 6.6 27.8 7.2 26.7 7.2 C 26 7.2 25.3 7 24.9 6.5 C 24.9 6.5 25.3 5.9 25.3 5.9 Z M 31.4 2.7 C 32.7 2.7 33.5 3.7 33.5 5 C 33.49 5 33.5 5.2 33.5 5.2 C 33.5 5.2 30.05 5.2 30 5.2 C 30.1 5.9 30.7 6.6 31.5 6.6 C 32 6.6 32.5 6.4 32.8 6 C 32.8 6 33.2 6.6 33.2 6.6 C 32.8 7 32.1 7.2 31.4 7.2 C 30.1 7.2 29.2 6.3 29.2 4.9 C 29.2 3.7 30.1 2.7 31.4 2.7 Z M 30 4.6 C 30 4.6 32.7 4.6 32.7 4.6 C 32.7 4 32.3 3.3 31.4 3.3 C 30.5 3.3 30.1 4 30 4.6 Z M 34.5 5.9 C 34.8 6.3 35.4 6.6 36 6.6 C 36.6 6.6 36.9 6.3 36.9 5.9 C 36.9 5.5 36.4 5.4 35.9 5.2 C 35.1 5.1 34.3 4.9 34.3 3.9 C 34.3 3.2 34.8 2.7 35.9 2.7 C 36.7 2.7 37.2 2.9 37.6 3.3 C 37.6 3.3 37.2 3.8 37.2 3.8 C 37 3.5 36.5 3.3 35.9 3.3 C 35.4 3.3 35 3.5 35 3.9 C 35 4.3 35.5 4.4 36 4.5 C 36.8 4.7 37.7 4.9 37.7 5.9 C 37.7 6.6 37.1 7.2 35.9 7.2 C 35.2 7.2 34.6 7 34.1 6.5 C 34.1 6.5 34.5 5.9 34.5 5.9 Z " stroke="none" fill="#000"/>
  </g>
</svg>