<?xml version="1.0" standalone="no"?>
<!DOCTYPE svg PUBLIC "-//W3C//DTD SVG 1.1//EN" "http://www.w3.org/Graphics/SVG/1.1/DTD/svg11.dtd">
<svg xmlns="http://www.w3.org/2000/svg" version="1.1" width="103px" height="27.9px" viewBox="0 -6 103 27.9" style="top:-6px">
  <desc>Agent 1</desc>
  <defs/>
  <g id="Polygon270163">
    <path d="M 0.7 7.3 C 0.7 4 3.1 1.8 6.2 1.8 C 8.2 1.8 9.5 2.8 10.4 4 C 10.4 4 9 4.7 9 4.7 C 8.5 3.8 7.4 3.2 6.2 3.2 C 4 3.2 2.4 4.9 2.4 7.3 C 2.4 9.6 4 11.3 6.2 11.3 C 7.4 11.3 8.5 10.7 9 9.8 C 9 9.8 10.4 10.5 10.4 10.5 C 9.5 11.7 8.2 12.7 6.2 12.7 C 3.1 12.7 0.7 10.5 0.7 7.3 Z M 16.5 11.7 C 15.9 12.4 15 12.7 14 12.7 C 12.7 12.7 11.3 11.9 11.3 10.2 C 11.3 8.4 12.7 7.7 14 7.7 C 15 7.7 15.9 8 16.5 8.7 C 16.5 8.7 16.5 7.4 16.5 7.4 C 16.5 6.5 15.7 5.9 14.6 5.9 C 13.8 5.9 13 6.2 12.3 6.9 C 12.3 6.9 11.7 5.9 11.7 5.9 C 12.6 5.1 13.6 4.7 14.8 4.7 C 16.5 4.7 17.9 5.4 17.9 7.4 C 17.93 7.37 17.9 12.5 17.9 12.5 L 16.5 12.5 C 16.5 12.5 16.5 11.71 16.5 11.7 Z M 16.5 9.6 C 16.1 9 15.3 8.7 14.5 8.7 C 13.5 8.7 12.8 9.3 12.8 10.2 C 12.8 11.1 13.5 11.7 14.5 11.7 C 15.3 11.7 16.1 11.4 16.5 10.9 C 16.5 10.9 16.5 9.6 16.5 9.6 Z M 20.1 15.5 L 20.1 4.9 L 21.5 4.9 C 21.5 4.9 21.49 5.97 21.5 6 C 22 5.2 23 4.7 24 4.7 C 26 4.7 27.4 6.2 27.4 8.7 C 27.4 11.2 26 12.7 24 12.7 C 23 12.7 22.1 12.3 21.5 11.4 C 21.49 11.44 21.5 15.5 21.5 15.5 L 20.1 15.5 Z M 23.6 6 C 22.7 6 21.9 6.5 21.5 7.1 C 21.5 7.1 21.5 10.3 21.5 10.3 C 21.9 10.9 22.7 11.5 23.6 11.5 C 25 11.5 25.9 10.3 25.9 8.7 C 25.9 7.1 25 6 23.6 6 Z M 36.6 8.5 L 34.6 8.5 L 34.6 12.5 L 33 12.5 L 33 2 C 33 2 37.5 1.95 37.5 2 C 39.5 2 40.9 3.3 40.9 5.2 C 40.9 7.1 39.6 8.1 38.3 8.3 C 38.26 8.31 41 12.5 41 12.5 L 39.1 12.5 L 36.6 8.5 Z M 37.3 3.4 C 37.29 3.35 34.6 3.4 34.6 3.4 L 34.6 7.1 C 34.6 7.1 37.29 7.07 37.3 7.1 C 38.4 7.1 39.3 6.3 39.3 5.2 C 39.3 4.1 38.4 3.4 37.3 3.4 Z M 47.1 11.7 C 46.5 12.4 45.6 12.7 44.6 12.7 C 43.3 12.7 41.9 11.9 41.9 10.2 C 41.9 8.4 43.3 7.7 44.6 7.7 C 45.6 7.7 46.5 8 47.1 8.7 C 47.1 8.7 47.1 7.4 47.1 7.4 C 47.1 6.5 46.3 5.9 45.2 5.9 C 44.3 5.9 43.6 6.2 42.9 6.9 C 42.9 6.9 42.3 5.9 42.3 5.9 C 43.1 5.1 44.2 4.7 45.4 4.7 C 47.1 4.7 48.5 5.4 48.5 7.4 C 48.5 7.37 48.5 12.5 48.5 12.5 L 47.1 12.5 C 47.1 12.5 47.08 11.71 47.1 11.7 Z M 47.1 9.6 C 46.6 9 45.9 8.7 45.1 8.7 C 44.1 8.7 43.3 9.3 43.3 10.2 C 43.3 11.1 44.1 11.7 45.1 11.7 C 45.9 11.7 46.6 11.4 47.1 10.9 C 47.1 10.9 47.1 9.6 47.1 9.6 Z M 50.9 10.8 C 50.92 10.85 50.9 6.1 50.9 6.1 L 49.6 6.1 L 49.6 4.9 L 50.9 4.9 L 50.9 2.8 L 52.3 2.8 L 52.3 4.9 L 53.9 4.9 L 53.9 6.1 L 52.3 6.1 C 52.3 6.1 52.35 10.53 52.3 10.5 C 52.3 11.1 52.6 11.5 53.1 11.5 C 53.4 11.5 53.7 11.3 53.9 11.2 C 53.9 11.2 54.2 12.2 54.2 12.2 C 53.9 12.5 53.5 12.7 52.7 12.7 C 51.5 12.7 50.9 12.1 50.9 10.8 Z M 58.7 4.7 C 61 4.7 62.4 6.5 62.4 8.8 C 62.43 8.83 62.4 9.2 62.4 9.2 C 62.4 9.2 56.37 9.18 56.4 9.2 C 56.5 10.5 57.4 11.6 59 11.6 C 59.8 11.6 60.7 11.2 61.2 10.7 C 61.2 10.7 61.9 11.6 61.9 11.6 C 61.1 12.3 60.1 12.7 58.8 12.7 C 56.5 12.7 54.9 11.1 54.9 8.7 C 54.9 6.5 56.5 4.7 58.7 4.7 Z M 56.3 8.1 C 56.3 8.1 61 8.1 61 8.1 C 61 7.1 60.3 5.9 58.7 5.9 C 57.2 5.9 56.4 7.1 56.3 8.1 Z " stroke="none" fill="#3797ef"/>
  </g>
</svg>