<?xml version="1.0" standalone="no"?><!DOCTYPE svg PUBLIC "-//W3C//DTD SVG 1.1//EN" "http://www.w3.org/Graphics/SVG/1.1/DTD/svg11.dtd"><svg xmlns="http://www.w3.org/2000/svg" version="1.1" width="237px" height="26.9px" viewBox="0 -6 237 26.9" style="top:-6px"><desc>504</desc><defs/><g id="Polygon96310"><path d="m211.3 10.4c.6 1 1.6 1.5 2.9 1.5c1.5 0 2.7-1.1 2.7-2.5c0-1.7-1.1-2.6-2.7-2.6c-.9 0-1.8.3-2.5 1c-.04 0-.7-.3-.7-.3V2h6.1v.8h-5.2v4.1c.5-.5 1.4-1 2.5-1c1.8 0 3.4 1.2 3.4 3.4c0 2.1-1.6 3.4-3.6 3.4c-1.7 0-2.8-.6-3.6-1.7l.7-.6zm12.3-8.6c2.8 0 3.9 2.9 3.9 5.5c0 2.5-1.1 5.4-3.9 5.4c-2.9 0-4-2.9-4-5.4c0-2.6 1.1-5.5 4-5.5zm0 .8c-2.3 0-3 2.5-3 4.7c0 2.1.7 4.6 3 4.6c2.2 0 2.9-2.5 2.9-4.6c0-2.2-.7-4.7-2.9-4.7zm10.3 7.1h-5v-.9l4.7-6.8h1.3v6.8h1.5v.9h-1.5v2.8h-1V9.7zm-4-.9h4V2.9l-4 5.9z" stroke="none" fill="#000"/></g></svg>