<?xml version="1.0" standalone="no"?>
<!DOCTYPE svg PUBLIC "-//W3C//DTD SVG 1.1//EN" "http://www.w3.org/Graphics/SVG/1.1/DTD/svg11.dtd">
<svg xmlns="http://www.w3.org/2000/svg" version="1.1" width="116.5px" height="47.9px" viewBox="0 -6 116.5 47.9" style="top:-6px">
  <desc>Agent 1</desc>
  <defs/>
  <g id="Polygon179909">
    <path d="M 0.4 33.7 C 0.4 32.2 0.9 30.8 1.7 29.7 C 1.7 29.7 2.2 30.1 2.2 30.1 C 1.6 31.2 1.3 32.2 1.3 33.7 C 1.3 35.2 1.6 36.2 2.2 37.3 C 2.2 37.3 1.7 37.7 1.7 37.7 C 0.9 36.6 0.4 35.1 0.4 33.7 Z M 5 29.8 C 6.7 29.8 7.4 31.4 7.4 32.9 C 7.4 34.4 6.7 36 5 36 C 3.4 36 2.7 34.4 2.7 32.9 C 2.7 31.4 3.4 29.8 5 29.8 Z M 5 30.6 C 4 30.6 3.6 31.7 3.6 32.9 C 3.6 34.1 4 35.2 5 35.2 C 6.1 35.2 6.5 34.1 6.5 32.9 C 6.5 31.7 6.1 30.6 5 30.6 Z M 10.5 29.8 C 12.1 29.8 12.8 31.4 12.8 32.9 C 12.8 34.4 12.1 36 10.5 36 C 8.8 36 8.1 34.4 8.1 32.9 C 8.1 31.4 8.8 29.8 10.5 29.8 Z M 10.5 30.6 C 9.4 30.6 9 31.7 9 32.9 C 9 34.1 9.4 35.2 10.5 35.2 C 11.5 35.2 11.9 34.1 11.9 32.9 C 11.9 31.7 11.5 30.6 10.5 30.6 Z M 15.9 29.8 C 17.6 29.8 18.3 31.4 18.3 32.9 C 18.3 34.4 17.6 36 15.9 36 C 14.2 36 13.6 34.4 13.6 32.9 C 13.6 31.4 14.2 29.8 15.9 29.8 Z M 15.9 30.6 C 14.8 30.6 14.5 31.7 14.5 32.9 C 14.5 34.1 14.8 35.2 15.9 35.2 C 17 35.2 17.3 34.1 17.3 32.9 C 17.3 31.7 17 30.6 15.9 30.6 Z M 18.7 30.1 C 18.7 30.1 19.2 29.7 19.2 29.7 C 20.1 30.8 20.5 32.2 20.5 33.7 C 20.5 35.1 20.1 36.6 19.2 37.7 C 19.2 37.7 18.7 37.3 18.7 37.3 C 19.3 36.2 19.7 35.2 19.7 33.7 C 19.7 32.2 19.3 31.2 18.7 30.1 Z M 25.8 29.8 C 27.5 29.8 28.2 31.4 28.2 32.9 C 28.2 34.4 27.5 36 25.8 36 C 24.2 36 23.5 34.4 23.5 32.9 C 23.5 31.4 24.2 29.8 25.8 29.8 Z M 25.8 30.6 C 24.8 30.6 24.4 31.7 24.4 32.9 C 24.4 34.1 24.8 35.2 25.8 35.2 C 26.9 35.2 27.3 34.1 27.3 32.9 C 27.3 31.7 26.9 30.6 25.8 30.6 Z M 31.3 29.8 C 32.9 29.8 33.6 31.4 33.6 32.9 C 33.6 34.4 32.9 36 31.3 36 C 29.6 36 28.9 34.4 28.9 32.9 C 28.9 31.4 29.6 29.8 31.3 29.8 Z M 31.3 30.6 C 30.2 30.6 29.8 31.7 29.8 32.9 C 29.8 34.1 30.2 35.2 31.3 35.2 C 32.3 35.2 32.7 34.1 32.7 32.9 C 32.7 31.7 32.3 30.6 31.3 30.6 Z M 36.7 29.8 C 38.4 29.8 39.1 31.4 39.1 32.9 C 39.1 34.4 38.4 36 36.7 36 C 35 36 34.4 34.4 34.4 32.9 C 34.4 31.4 35 29.8 36.7 29.8 Z M 36.7 30.6 C 35.6 30.6 35.3 31.7 35.3 32.9 C 35.3 34.1 35.6 35.2 36.7 35.2 C 37.8 35.2 38.1 34.1 38.1 32.9 C 38.1 31.7 37.8 30.6 36.7 30.6 Z M 39.7 33.4 L 41.8 33.4 L 41.8 34.1 L 39.7 34.1 L 39.7 33.4 Z M 44.8 29.8 C 46.4 29.8 47.1 31.4 47.1 32.9 C 47.1 34.4 46.4 36 44.8 36 C 43.1 36 42.4 34.4 42.4 32.9 C 42.4 31.4 43.1 29.8 44.8 29.8 Z M 44.8 30.6 C 43.7 30.6 43.3 31.7 43.3 32.9 C 43.3 34.1 43.7 35.2 44.8 35.2 C 45.8 35.2 46.2 34.1 46.2 32.9 C 46.2 31.7 45.8 30.6 44.8 30.6 Z M 50.2 29.8 C 51.9 29.8 52.5 31.4 52.5 32.9 C 52.5 34.4 51.9 36 50.2 36 C 48.5 36 47.8 34.4 47.8 32.9 C 47.8 31.4 48.5 29.8 50.2 29.8 Z M 50.2 30.6 C 49.1 30.6 48.8 31.7 48.8 32.9 C 48.8 34.1 49.1 35.2 50.2 35.2 C 51.3 35.2 51.6 34.1 51.6 32.9 C 51.6 31.7 51.3 30.6 50.2 30.6 Z M 55.6 29.8 C 57.3 29.8 58 31.4 58 32.9 C 58 34.4 57.3 36 55.6 36 C 54 36 53.3 34.4 53.3 32.9 C 53.3 31.4 54 29.8 55.6 29.8 Z M 55.6 30.6 C 54.6 30.6 54.2 31.7 54.2 32.9 C 54.2 34.1 54.6 35.2 55.6 35.2 C 56.7 35.2 57.1 34.1 57.1 32.9 C 57.1 31.7 56.7 30.6 55.6 30.6 Z M 61.1 29.8 C 62.7 29.8 63.4 31.4 63.4 32.9 C 63.4 34.4 62.7 36 61.1 36 C 59.4 36 58.7 34.4 58.7 32.9 C 58.7 31.4 59.4 29.8 61.1 29.8 Z M 61.1 30.6 C 60 30.6 59.6 31.7 59.6 32.9 C 59.6 34.1 60 35.2 61.1 35.2 C 62.1 35.2 62.5 34.1 62.5 32.9 C 62.5 31.7 62.1 30.6 61.1 30.6 Z " stroke="none" fill="#3797ef"/>
  </g>
  <g id="Polygon179908">
    <path d="M 2.1 19.9 L 0.3 19.9 L 0.3 19.1 L 4.9 19.1 L 4.9 19.9 L 3 19.9 L 3 25.1 L 2.1 25.1 L 2.1 19.9 Z M 5.6 19.5 C 5.6 19.2 5.8 19 6.1 19 C 6.4 19 6.6 19.2 6.6 19.5 C 6.6 19.8 6.4 20 6.1 20 C 5.8 20 5.6 19.8 5.6 19.5 Z M 5.7 20.7 L 6.5 20.7 L 6.5 25.1 L 5.7 25.1 L 5.7 20.7 Z M 7.9 24.1 C 7.88 24.12 7.9 21.4 7.9 21.4 L 7.2 21.4 L 7.2 20.7 L 7.9 20.7 L 7.9 19.6 L 8.7 19.6 L 8.7 20.7 L 9.6 20.7 L 9.6 21.4 L 8.7 21.4 C 8.7 21.4 8.69 23.94 8.7 23.9 C 8.7 24.2 8.8 24.5 9.1 24.5 C 9.3 24.5 9.5 24.4 9.6 24.3 C 9.6 24.3 9.8 24.9 9.8 24.9 C 9.6 25.1 9.3 25.2 8.9 25.2 C 8.2 25.2 7.9 24.8 7.9 24.1 Z M 10.4 19.1 L 11.2 19.1 L 11.2 25.1 L 10.4 25.1 L 10.4 19.1 Z M 14.3 20.6 C 15.6 20.6 16.4 21.6 16.4 23 C 16.42 22.98 16.4 23.2 16.4 23.2 C 16.4 23.2 12.98 23.18 13 23.2 C 13 23.9 13.6 24.5 14.5 24.5 C 14.9 24.5 15.4 24.3 15.7 24 C 15.7 24 16.1 24.5 16.1 24.5 C 15.7 25 15.1 25.2 14.4 25.2 C 13.1 25.2 12.1 24.3 12.1 22.9 C 12.1 21.6 13 20.6 14.3 20.6 Z M 13 22.6 C 13 22.6 15.6 22.6 15.6 22.6 C 15.6 22 15.2 21.3 14.3 21.3 C 13.4 21.3 13 22 13 22.6 Z " stroke="none" fill="#888888"/>
  </g>
  <g id="Polygon179907">
    <path d="M 0.8 1.9 L 5.6 1.9 L 5.6 3.5 L 2.7 3.5 L 2.7 6.7 L 5.2 6.7 L 5.2 8.3 L 2.7 8.3 L 2.7 13.1 L 0.8 13.1 L 0.8 1.9 Z M 6.6 13.1 L 6.6 1.9 L 8.5 1.9 L 8.5 13.1 L 6.6 13.1 Z M 14.2 13.1 L 12.8 8.6 L 11.8 8.6 L 11.8 13.1 L 10 13.1 L 10 1.9 C 10 1.9 12.86 1.89 12.9 1.9 C 14.6 1.9 15.7 2.6 15.7 4.3 C 15.7 4.3 15.7 6.3 15.7 6.3 C 15.7 7.3 15.2 8 14.5 8.3 C 14.46 8.33 16.1 13.1 16.1 13.1 L 14.2 13.1 Z M 11.8 7 C 11.8 7 12.8 7.02 12.8 7 C 13.4 7 13.8 6.8 13.8 6 C 13.8 6 13.8 4.5 13.8 4.5 C 13.8 3.7 13.4 3.5 12.8 3.5 C 12.8 3.52 11.8 3.5 11.8 3.5 L 11.8 7 Z M 20.4 5.9 C 20.4 5.9 20.45 4.32 20.4 4.3 C 20.4 3.6 20 3.4 19.5 3.4 C 19 3.4 18.6 3.6 18.6 4.3 C 18.6 4.3 18.6 5.1 18.6 5.1 C 18.6 5.7 18.8 5.9 19.3 6.2 C 19.3 6.2 20.6 7 20.6 7 C 21.7 7.6 22.3 8.1 22.3 9.3 C 22.3 9.3 22.3 10.9 22.3 10.9 C 22.3 12.6 21.2 13.2 19.5 13.2 C 19.5 13.2 19.5 13.2 19.5 13.2 C 17.8 13.2 16.7 12.6 16.7 10.9 C 16.74 10.88 16.7 8.9 16.7 8.9 L 18.6 8.9 C 18.6 8.9 18.56 10.62 18.6 10.6 C 18.6 11.3 19 11.6 19.5 11.6 C 20.1 11.6 20.5 11.3 20.5 10.6 C 20.5 10.6 20.5 9.7 20.5 9.7 C 20.5 9.2 20.3 8.9 19.7 8.6 C 19.7 8.6 18.4 7.8 18.4 7.8 C 17.4 7.2 16.7 6.7 16.7 5.5 C 16.7 5.5 16.7 4.1 16.7 4.1 C 16.7 2.4 18 1.8 19.5 1.8 C 19.5 1.8 19.5 1.8 19.5 1.8 C 21.1 1.8 22.3 2.4 22.3 4.1 C 22.27 4.06 22.3 5.9 22.3 5.9 L 20.4 5.9 Z M 28.4 3.5 L 26.5 3.5 L 26.5 13.1 L 24.7 13.1 L 24.7 3.5 L 22.8 3.5 L 22.8 1.9 L 28.4 1.9 L 28.4 3.5 Z M 36.1 13.1 L 31.4 13.1 L 31.4 1.9 L 33.3 1.9 L 33.3 11.4 L 36.1 11.4 L 36.1 13.1 Z M 40.5 10.6 L 38.5 10.6 L 38.1 13.1 L 36.3 13.1 L 38.4 1.9 L 40.7 1.9 L 42.8 13.1 L 40.9 13.1 L 40.5 10.6 Z M 40.3 9.1 L 39.5 4.1 L 38.7 9.1 L 40.3 9.1 Z M 47 5.9 C 47 5.9 46.99 4.32 47 4.3 C 47 3.6 46.6 3.4 46 3.4 C 45.5 3.4 45.1 3.6 45.1 4.3 C 45.1 4.3 45.1 5.1 45.1 5.1 C 45.1 5.7 45.3 5.9 45.8 6.2 C 45.8 6.2 47.1 7 47.1 7 C 48.2 7.6 48.8 8.1 48.8 9.3 C 48.8 9.3 48.8 10.9 48.8 10.9 C 48.8 12.6 47.8 13.2 46.1 13.2 C 46.1 13.2 46 13.2 46 13.2 C 44.4 13.2 43.3 12.6 43.3 10.9 C 43.28 10.88 43.3 8.9 43.3 8.9 L 45.1 8.9 C 45.1 8.9 45.1 10.62 45.1 10.6 C 45.1 11.3 45.5 11.6 46.1 11.6 C 46.6 11.6 47 11.3 47 10.6 C 47 10.6 47 9.7 47 9.7 C 47 9.2 46.8 8.9 46.3 8.6 C 46.3 8.6 45 7.8 45 7.8 C 43.9 7.2 43.3 6.7 43.3 5.5 C 43.3 5.5 43.3 4.1 43.3 4.1 C 43.3 2.4 44.5 1.8 46 1.8 C 46 1.8 46.1 1.8 46.1 1.8 C 47.6 1.8 48.8 2.4 48.8 4.1 C 48.82 4.06 48.8 5.9 48.8 5.9 L 47 5.9 Z M 54.9 3.5 L 53.1 3.5 L 53.1 13.1 L 51.2 13.1 L 51.2 3.5 L 49.3 3.5 L 49.3 1.9 L 54.9 1.9 L 54.9 3.5 Z " stroke="none" fill="#282828"/>
  </g>
</svg>