<?xml version="1.0" standalone="no"?><!DOCTYPE svg PUBLIC "-//W3C//DTD SVG 1.1//EN" "http://www.w3.org/Graphics/SVG/1.1/DTD/svg11.dtd"><svg xmlns="http://www.w3.org/2000/svg" version="1.1" width="237px" height="47.4px" viewBox="0 -10 237 47.4" style="top:-10px"><desc>Lorem Ipsum</desc><defs/><g id="Polygon284440"><path d="m2.1 3.5h2.8v16.3h8.6v2.5H2.1V3.5zm12.8 12c0-4 2.6-7.2 6.9-7.2c4.2 0 6.9 3.2 6.9 7.2c0 3.9-2.7 7.1-6.9 7.1c-4.3 0-6.9-3.2-6.9-7.1zm11.1 0c0-2.6-1.5-4.9-4.2-4.9c-2.7 0-4.3 2.3-4.3 4.9c0 2.6 1.6 4.9 4.3 4.9c2.7 0 4.2-2.3 4.2-4.9zm5.6-6.8h2.5s.04 2.06 0 2.1c1.1-1.4 2.7-2.4 4.5-2.4v2.5c-.3 0-.5-.1-.9-.1c-1.2 0-3 1-3.6 2c.04.02 0 9.5 0 9.5h-2.5V8.7zm15.2-.4c4.1 0 6.7 3.2 6.7 7.4c-.02 0 0 .6 0 .6c0 0-10.81.02-10.8 0c.2 2.3 1.9 4.3 4.6 4.3c1.5 0 3-.6 4.1-1.7l1.1 1.7c-1.3 1.3-3.2 2-5.4 2c-4.1 0-7.1-2.8-7.1-7.1c0-4 2.9-7.2 6.8-7.2zm-4.1 6.2h8.3c-.1-1.8-1.3-4.1-4.2-4.1c-2.7 0-4 2.2-4.1 4.1zM73 13.2c0-1.6-.7-2.6-2.4-2.6c-1.4 0-2.8.9-3.4 1.9v9.8h-2.5s-.04-9.09 0-9.1c0-1.6-.7-2.6-2.4-2.6c-1.4 0-2.7 1-3.4 2c.03-.04 0 9.7 0 9.7h-2.5V8.7h2.5s.03 1.89 0 1.9c.6-.9 2.4-2.3 4.4-2.3c2.1 0 3.3 1.1 3.7 2.6c.8-1.3 2.6-2.6 4.6-2.6c2.5 0 3.9 1.4 3.9 4.2v9.8H73s-.04-9.09 0-9.1zm13.3-9.7h2.8v18.8h-2.8V3.5zm6.7 24V8.7h2.5s.05 1.92 0 1.9c1-1.3 2.7-2.3 4.5-2.3c3.6 0 6.1 2.7 6.1 7.2c0 4.4-2.5 7.1-6.1 7.1c-1.8 0-3.4-.8-4.5-2.3c.05.03 0 7.2 0 7.2H93zm6.3-16.9c-1.5 0-3.1.9-3.8 2v5.8c.7 1.1 2.3 2 3.8 2c2.6 0 4.1-2.1 4.1-4.9c0-2.9-1.5-4.9-4.1-4.9zm9.7 8.1c1 1 2.8 1.9 4.6 1.9c1.9 0 3-.8 3-1.9c0-1.4-1.6-1.8-3.3-2.2c-2.4-.6-5.1-1.2-5.1-4.1c0-2.2 1.9-4.1 5.2-4.1c2.4 0 4.1.9 5.2 2l-1.1 1.8c-.8-1-2.3-1.7-4.1-1.7c-1.7 0-2.7.7-2.7 1.8c0 1.2 1.4 1.6 3.1 1.9c2.4.6 5.2 1.2 5.2 4.4c0 2.3-1.9 4.1-5.5 4.1c-2.3 0-4.3-.7-5.7-2.1l1.2-1.8zm22.2 1.7c-1.1 1.2-2.8 2.2-4.9 2.2c-2.9 0-4.4-1.4-4.4-4.3c.05 0 0-9.6 0-9.6h2.6s-.01 8.75 0 8.7c0 2.3 1.1 3 2.9 3c1.5 0 3-.9 3.8-1.9c-.05-.03 0-9.8 0-9.8h2.5v13.6h-2.5s-.05-1.86 0-1.9zm22.8-7.2c0-1.6-.7-2.6-2.4-2.6c-1.3 0-2.7.9-3.3 1.9c-.04.04 0 9.8 0 9.8h-2.6s.02-9.09 0-9.1c0-1.6-.7-2.6-2.4-2.6c-1.3 0-2.6 1-3.3 2v9.7h-2.6V8.7h2.6v1.9c.6-.9 2.4-2.3 4.4-2.3c2.1 0 3.3 1.1 3.7 2.6c.8-1.3 2.6-2.6 4.6-2.6c2.5 0 3.9 1.4 3.9 4.2c-.04-.05 0 9.8 0 9.8H154s.02-9.09 0-9.1z" stroke="none" fill="#282828"/></g></svg>