<?xml version="1.0" standalone="no"?><!DOCTYPE svg PUBLIC "-//W3C//DTD SVG 1.1//EN" "http://www.w3.org/Graphics/SVG/1.1/DTD/svg11.dtd"><svg xmlns="http://www.w3.org/2000/svg" version="1.1" width="36px" height="31px" viewBox="0 -6 36 31" style="top:-6px"><desc>04</desc><defs/><g id="Polygon303136"><path d="m17.5 4v7.5c0 1.9-1.2 2.7-3.1 2.7h-.1c-1.9 0-3-.8-3-2.7V4c0-1.9 1.1-2.7 3-2.7h.1c1.9 0 3.1.8 3.1 2.7zm-3.1-.9c-.7 0-1.1.3-1.1 1.2v6.9c0 .9.4 1.1 1.1 1.1c.6 0 1-.2 1-1.1V4.3c0-.9-.4-1.2-1-1.2zm9.7 6.3h.9v1.7h-.9v2.9H22v-2.9h-3.6V9.3l3-7.9h2.7v8zm-4.1 0h2V3.5l-2 5.9z" stroke="none" fill="#fff"/></g></svg>