<?xml version="1.0" standalone="no"?><!DOCTYPE svg PUBLIC "-//W3C//DTD SVG 1.1//EN" "http://www.w3.org/Graphics/SVG/1.1/DTD/svg11.dtd"><svg xmlns="http://www.w3.org/2000/svg" version="1.1" width="77px" height="15.9px" viewBox="0 -4 77 15.9" style="top:-4px"><desc>44,389</desc><defs/><g id="Polygon111212"><path d="m47.7 7.2c-.05.01 0 .8 0 .8h-.5s.04-.78 0-.8c-.9 0-1.6-.4-2-.9l.3-.4c.4.4 1 .8 1.7.8V4.2c-.9-.2-1.8-.5-1.8-1.6c0-.9.8-1.5 1.8-1.6c.04.02 0-.8 0-.8h.5s-.05.83 0 .8c.7.1 1.3.4 1.7.9l-.3.3c-.4-.4-.9-.6-1.4-.7v2.3c.9.2 1.8.6 1.8 1.7c0 .7-.4 1.6-1.8 1.7zm-.5-3.5V1.5c-.7 0-1.3.5-1.3 1.1c0 .6.6.8 1.3 1.1zM49 5.6c0-.8-.6-1.1-1.3-1.3v2.4c1 0 1.3-.7 1.3-1.1zm4.2-.1h-2.8v-.5L53 1.1h.7v3.9h.9v.5h-.9v1.6h-.5V5.5zM50.9 5h2.3V1.6L50.9 5zm7.2.5h-2.9v-.5l2.7-3.9h.7v3.9h.9v.5h-.9v1.6h-.5V5.5zM55.8 5h2.3V1.6L55.8 5zm4.5 3c.3-.2.5-.6.5-.8h-.1c-.2 0-.3-.2-.3-.4c0-.2.1-.4.4-.4c.2 0 .4.2.4.6c0 .5-.3 1-.6 1.2l-.3-.2zm2.1-2.1c.3.5.9.9 1.7.9c.9 0 1.5-.5 1.5-1.3c0-.9-.7-1.2-1.6-1.2h-.6v-.5h.6c.8 0 1.5-.4 1.5-1.2c0-.7-.7-1.1-1.4-1.1c-.7 0-1.2.3-1.7.7l-.3-.3c.4-.5 1.1-.9 2-.9c1 0 1.9.6 1.9 1.6c0 .9-.8 1.3-1.3 1.4c.6.1 1.4.5 1.4 1.5c0 1-.7 1.7-2 1.7c-1 0-1.7-.4-2.1-1l.4-.3zM68.7 4c-.7-.2-1.4-.6-1.4-1.4c0-1.1 1-1.6 1.9-1.6c1 0 2 .5 2 1.6c0 .8-.7 1.2-1.4 1.4c.7.2 1.5.8 1.5 1.6c0 1-.9 1.6-2.1 1.6c-1.1 0-2-.6-2-1.6c0-.8.7-1.4 1.5-1.6zm.5-2.5c-.8 0-1.4.4-1.4 1.1c0 .9 1.1 1.1 1.4 1.2c.4-.1 1.4-.3 1.4-1.2c0-.7-.6-1.1-1.4-1.1zm0 2.7c-.4.1-1.5.5-1.5 1.4c0 .7.7 1.2 1.5 1.2c.8 0 1.5-.5 1.5-1.2c0-.9-1.1-1.3-1.5-1.4zm3.7 1.9c.3.4.7.6 1.3.6c1.3 0 1.8-1.3 1.8-2.6v-.3c-.3.4-1 1-1.8 1c-1 0-1.9-.6-1.9-1.9c0-1 .7-1.9 2-1.9c1.6 0 2.2 1.5 2.2 3.1c0 1.6-.6 3.1-2.3 3.1c-.8 0-1.2-.3-1.6-.8l.3-.3zm1.4-4.6c-1 0-1.5.8-1.5 1.4c0 1 .7 1.5 1.5 1.5c.7 0 1.3-.5 1.7-1.1c-.1-.8-.5-1.8-1.7-1.8z" stroke="none" fill="#000"/></g></svg>