<?xml version="1.0" standalone="no"?>
<!DOCTYPE svg PUBLIC "-//W3C//DTD SVG 1.1//EN" "http://www.w3.org/Graphics/SVG/1.1/DTD/svg11.dtd">
<svg xmlns="http://www.w3.org/2000/svg" version="1.1" width="388.4px" height="67.5px" viewBox="0 -6 388.4 67.5" style="top:-6px">
  <desc>SUBJECT PROPERTY LEASE SUMMARY</desc>
  <defs/>
  <g id="Polygon241053">
    <path d="M 9.7 46.4 L 1.4 46.4 L 1.4 26.7 L 4.7 26.7 L 4.7 43.5 L 9.7 43.5 L 9.7 46.4 Z M 11.5 46.4 L 11.5 26.7 L 20.2 26.7 L 20.2 29.5 L 14.8 29.5 L 14.8 35 L 19.3 35 L 19.3 37.8 L 14.8 37.8 L 14.8 43.5 L 20.2 43.5 L 20.2 46.4 L 11.5 46.4 Z M 28.9 42 L 25.2 42 L 24.5 46.4 L 21.4 46.4 L 25 26.7 L 29.2 26.7 L 32.9 46.4 L 29.6 46.4 L 28.9 42 Z M 28.4 39.3 L 27 30.5 L 25.7 39.3 L 28.4 39.3 Z M 40.4 33.7 C 40.4 33.7 40.38 30.96 40.4 31 C 40.4 29.7 39.7 29.3 38.7 29.3 C 37.8 29.3 37 29.7 37 31 C 37 31 37 32.3 37 32.3 C 37 33.3 37.4 33.8 38.3 34.3 C 38.3 34.3 40.6 35.6 40.6 35.6 C 42.5 36.7 43.7 37.6 43.7 39.7 C 43.7 39.7 43.7 42.5 43.7 42.5 C 43.7 45.6 41.8 46.7 38.8 46.7 C 38.8 46.7 38.7 46.7 38.7 46.7 C 35.7 46.7 33.8 45.6 33.8 42.5 C 33.83 42.53 33.8 39.1 33.8 39.1 L 37 39.1 C 37 39.1 37.04 42.08 37 42.1 C 37 43.3 37.8 43.8 38.7 43.8 C 39.7 43.8 40.4 43.3 40.4 42.1 C 40.4 42.1 40.4 40.5 40.4 40.5 C 40.4 39.5 40.1 39 39.1 38.5 C 39.1 38.5 36.8 37.2 36.8 37.2 C 34.9 36.1 33.8 35.2 33.8 33.1 C 33.8 33.1 33.8 30.5 33.8 30.5 C 33.8 27.6 36 26.4 38.7 26.4 C 38.7 26.4 38.7 26.4 38.7 26.4 C 41.4 26.4 43.6 27.6 43.6 30.5 C 43.6 30.5 43.6 33.7 43.6 33.7 L 40.4 33.7 Z M 46 46.4 L 46 26.7 L 54.7 26.7 L 54.7 29.5 L 49.3 29.5 L 49.3 35 L 53.8 35 L 53.8 37.8 L 49.3 37.8 L 49.3 43.5 L 54.8 43.5 L 54.8 46.4 L 46 46.4 Z M 67.8 33.7 C 67.8 33.7 67.76 30.96 67.8 31 C 67.8 29.7 67.1 29.3 66.1 29.3 C 65.1 29.3 64.4 29.7 64.4 31 C 64.4 31 64.4 32.3 64.4 32.3 C 64.4 33.3 64.8 33.8 65.7 34.3 C 65.7 34.3 68 35.6 68 35.6 C 69.9 36.7 71 37.6 71 39.7 C 71 39.7 71 42.5 71 42.5 C 71 45.6 69.1 46.7 66.2 46.7 C 66.2 46.7 66.1 46.7 66.1 46.7 C 63.1 46.7 61.2 45.6 61.2 42.5 C 61.21 42.53 61.2 39.1 61.2 39.1 L 64.4 39.1 C 64.4 39.1 64.43 42.08 64.4 42.1 C 64.4 43.3 65.1 43.8 66.1 43.8 C 67.1 43.8 67.8 43.3 67.8 42.1 C 67.8 42.1 67.8 40.5 67.8 40.5 C 67.8 39.5 67.5 39 66.5 38.5 C 66.5 38.5 64.2 37.2 64.2 37.2 C 62.3 36.1 61.2 35.2 61.2 33.1 C 61.2 33.1 61.2 30.5 61.2 30.5 C 61.2 27.6 63.4 26.4 66.1 26.4 C 66.1 26.4 66.1 26.4 66.1 26.4 C 68.8 26.4 71 27.6 71 30.5 C 70.98 30.5 71 33.7 71 33.7 L 67.8 33.7 Z M 83.3 42.5 C 83.3 45.5 81.4 46.7 78.4 46.7 C 78.4 46.7 78.3 46.7 78.3 46.7 C 75.3 46.7 73.4 45.6 73.4 42.5 C 73.35 42.48 73.4 26.7 73.4 26.7 L 76.6 26.7 C 76.6 26.7 76.63 41.97 76.6 42 C 76.6 43.4 77.3 43.8 78.3 43.8 C 79.4 43.8 80 43.4 80 42 C 80.02 41.97 80 26.7 80 26.7 L 83.3 26.7 C 83.3 26.7 83.29 42.48 83.3 42.5 Z M 93.9 43.5 L 92.1 43.5 L 89.1 34.3 L 89.1 46.4 L 86.1 46.4 L 86.1 26.7 L 89.2 26.7 L 93 38.2 L 96.8 26.7 L 100 26.7 L 100 46.4 L 96.9 46.4 L 96.9 34.3 L 93.9 43.5 Z M 110.7 43.5 L 108.9 43.5 L 105.9 34.3 L 105.9 46.4 L 102.9 46.4 L 102.9 26.7 L 106 26.7 L 109.8 38.2 L 113.6 26.7 L 116.8 26.7 L 116.8 46.4 L 113.7 46.4 L 113.7 34.3 L 110.7 43.5 Z M 126 42 L 122.3 42 L 121.6 46.4 L 118.5 46.4 L 122.1 26.7 L 126.3 26.7 L 130 46.4 L 126.7 46.4 L 126 42 Z M 125.5 39.3 L 124.1 30.5 L 122.8 39.3 L 125.5 39.3 Z M 139.1 46.4 L 136.5 38.6 L 134.9 38.6 L 134.9 46.4 L 131.6 46.4 L 131.6 26.7 C 131.6 26.7 136.74 26.66 136.7 26.7 C 139.7 26.7 141.7 27.9 141.7 30.8 C 141.7 30.8 141.7 34.4 141.7 34.4 C 141.7 36.3 140.9 37.5 139.6 38 C 139.57 38.04 142.4 46.4 142.4 46.4 L 139.1 46.4 Z M 134.9 35.7 C 134.9 35.7 136.63 35.73 136.6 35.7 C 137.7 35.7 138.4 35.3 138.4 33.9 C 138.4 33.9 138.4 31.4 138.4 31.4 C 138.4 29.9 137.7 29.5 136.6 29.5 C 136.63 29.54 134.9 29.5 134.9 29.5 L 134.9 35.7 Z M 150 46.4 L 146.7 46.4 L 146.7 39.4 L 142.7 26.7 L 146.2 26.7 L 148.4 35.8 L 150.6 26.7 L 154 26.7 L 150 39.4 L 150 46.4 Z " stroke="none" fill="#282828"/>
  </g>
  <g id="Polygon241052">
    <path d="M 1.4 9.8 C 2.1 10.6 3.3 11.3 4.8 11.3 C 6.5 11.3 7.1 10.5 7.1 9.7 C 7.1 8.6 5.9 8.3 4.5 7.9 C 2.8 7.5 0.9 7 0.9 4.8 C 0.9 3.1 2.4 1.8 4.6 1.8 C 6.2 1.8 7.5 2.3 8.5 3.3 C 8.5 3.3 7.5 4.4 7.5 4.4 C 6.7 3.6 5.6 3.2 4.5 3.2 C 3.3 3.2 2.5 3.8 2.5 4.7 C 2.5 5.7 3.6 6 5 6.3 C 6.7 6.7 8.7 7.3 8.7 9.5 C 8.7 11.2 7.6 12.7 4.7 12.7 C 2.8 12.7 1.4 12.1 0.5 11.1 C 0.5 11.1 1.4 9.8 1.4 9.8 Z M 10.5 2 L 12.1 2 C 12.1 2 12.15 8.36 12.1 8.4 C 12.1 10.2 13.1 11.3 15 11.3 C 16.9 11.3 17.9 10.2 17.9 8.4 C 17.85 8.36 17.9 2 17.9 2 L 19.5 2 C 19.5 2 19.45 8.39 19.5 8.4 C 19.5 11 18 12.7 15 12.7 C 12 12.7 10.5 11 10.5 8.4 C 10.55 8.4 10.5 2 10.5 2 Z M 21.8 2 C 21.8 2 26.79 1.95 26.8 2 C 28.7 2 29.8 3.1 29.8 4.7 C 29.8 6 28.9 6.9 27.9 7.1 C 29.1 7.3 30 8.4 30 9.7 C 30 11.4 28.9 12.5 26.9 12.5 C 26.92 12.55 21.8 12.5 21.8 12.5 L 21.8 2 Z M 26.5 6.4 C 27.6 6.4 28.1 5.8 28.1 4.9 C 28.1 4 27.6 3.4 26.5 3.4 C 26.49 3.35 23.4 3.4 23.4 3.4 L 23.4 6.4 C 23.4 6.4 26.49 6.45 26.5 6.4 Z M 26.6 11.2 C 27.7 11.2 28.4 10.5 28.4 9.5 C 28.4 8.6 27.7 7.8 26.6 7.8 C 26.57 7.84 23.4 7.8 23.4 7.8 L 23.4 11.2 C 23.4 11.2 26.57 11.15 26.6 11.2 Z M 31.7 10.4 C 32.1 10.9 32.7 11.3 33.6 11.3 C 34.8 11.3 35.6 10.5 35.6 9.3 C 35.59 9.26 35.6 2 35.6 2 L 37.2 2 C 37.2 2 37.18 9.28 37.2 9.3 C 37.2 11.6 35.7 12.7 33.7 12.7 C 32.6 12.7 31.7 12.4 30.9 11.6 C 30.9 11.6 31.7 10.4 31.7 10.4 Z M 39.5 2 L 46.7 2 L 46.7 3.4 L 41.1 3.4 L 41.1 6.4 L 46.5 6.4 L 46.5 7.8 L 41.1 7.8 L 41.1 11.2 L 46.7 11.2 L 46.7 12.5 L 39.5 12.5 L 39.5 2 Z M 48.2 7.3 C 48.2 4 50.6 1.8 53.6 1.8 C 55.7 1.8 57 2.8 57.8 4 C 57.8 4 56.5 4.7 56.5 4.7 C 55.9 3.8 54.9 3.2 53.6 3.2 C 51.5 3.2 49.8 4.9 49.8 7.3 C 49.8 9.6 51.5 11.3 53.6 11.3 C 54.9 11.3 55.9 10.7 56.5 9.8 C 56.5 9.8 57.8 10.5 57.8 10.5 C 57 11.7 55.7 12.7 53.6 12.7 C 50.6 12.7 48.2 10.5 48.2 7.3 Z M 62 3.4 L 58.7 3.4 L 58.7 2 L 66.9 2 L 66.9 3.4 L 63.6 3.4 L 63.6 12.5 L 62 12.5 L 62 3.4 Z M 72.6 2 C 72.6 2 77.09 1.95 77.1 2 C 79.3 2 80.5 3.4 80.5 5.2 C 80.5 7 79.3 8.5 77.1 8.5 C 77.09 8.46 74.2 8.5 74.2 8.5 L 74.2 12.5 L 72.6 12.5 L 72.6 2 Z M 76.9 3.4 C 76.89 3.35 74.2 3.4 74.2 3.4 L 74.2 7.1 C 74.2 7.1 76.89 7.07 76.9 7.1 C 78 7.1 78.8 6.3 78.8 5.2 C 78.8 4.1 78 3.4 76.9 3.4 Z M 85.7 8.5 L 83.7 8.5 L 83.7 12.5 L 82.1 12.5 L 82.1 2 C 82.1 2 86.57 1.95 86.6 2 C 88.6 2 90 3.3 90 5.2 C 90 7.1 88.7 8.1 87.3 8.3 C 87.34 8.31 90.1 12.5 90.1 12.5 L 88.2 12.5 L 85.7 8.5 Z M 86.4 3.4 C 86.37 3.35 83.7 3.4 83.7 3.4 L 83.7 7.1 C 83.7 7.1 86.37 7.07 86.4 7.1 C 87.5 7.1 88.3 6.3 88.3 5.2 C 88.3 4.1 87.5 3.4 86.4 3.4 Z M 96.8 1.8 C 100 1.8 102.2 4.1 102.2 7.3 C 102.2 10.4 100 12.7 96.8 12.7 C 93.7 12.7 91.5 10.4 91.5 7.3 C 91.5 4.1 93.7 1.8 96.8 1.8 Z M 96.8 3.2 C 94.5 3.2 93.1 4.9 93.1 7.3 C 93.1 9.6 94.5 11.3 96.8 11.3 C 99.1 11.3 100.5 9.6 100.5 7.3 C 100.5 4.9 99.1 3.2 96.8 3.2 Z M 104.1 2 C 104.1 2 108.54 1.95 108.5 2 C 110.7 2 111.9 3.4 111.9 5.2 C 111.9 7 110.7 8.5 108.5 8.5 C 108.54 8.46 105.7 8.5 105.7 8.5 L 105.7 12.5 L 104.1 12.5 L 104.1 2 Z M 108.3 3.4 C 108.33 3.35 105.7 3.4 105.7 3.4 L 105.7 7.1 C 105.7 7.1 108.33 7.07 108.3 7.1 C 109.5 7.1 110.3 6.3 110.3 5.2 C 110.3 4.1 109.5 3.4 108.3 3.4 Z M 113.6 2 L 120.7 2 L 120.7 3.4 L 115.1 3.4 L 115.1 6.4 L 120.6 6.4 L 120.6 7.8 L 115.1 7.8 L 115.1 11.2 L 120.7 11.2 L 120.7 12.5 L 113.6 12.5 L 113.6 2 Z M 126.2 8.5 L 124.2 8.5 L 124.2 12.5 L 122.7 12.5 L 122.7 2 C 122.7 2 127.12 1.95 127.1 2 C 129.1 2 130.5 3.3 130.5 5.2 C 130.5 7.1 129.2 8.1 127.9 8.3 C 127.88 8.31 130.6 12.5 130.6 12.5 L 128.8 12.5 L 126.2 8.5 Z M 126.9 3.4 C 126.91 3.35 124.2 3.4 124.2 3.4 L 124.2 7.1 C 124.2 7.1 126.91 7.07 126.9 7.1 C 128.1 7.1 128.9 6.3 128.9 5.2 C 128.9 4.1 128.1 3.4 126.9 3.4 Z M 134.9 3.4 L 131.6 3.4 L 131.6 2 L 139.8 2 L 139.8 3.4 L 136.5 3.4 L 136.5 12.5 L 134.9 12.5 L 134.9 3.4 Z M 144.5 8.1 L 140.3 2 L 142.1 2 L 145.3 6.7 L 148.3 2 L 150.2 2 L 146.1 8.1 L 146.1 12.5 L 144.5 12.5 L 144.5 8.1 Z " stroke="none" fill="#3797ef"/>
  </g>
</svg>