<?xml version="1.0" standalone="no"?><!DOCTYPE svg PUBLIC "-//W3C//DTD SVG 1.1//EN" "http://www.w3.org/Graphics/SVG/1.1/DTD/svg11.dtd"><svg xmlns="http://www.w3.org/2000/svg" xmlns:xlink="http://www.w3.org/1999/xlink" version="1.1" width="237px" height="47.9px" viewBox="0 -14 237 47.9" style="top:-14px"><desc/><defs/><g id="Polygon53666"><path d="m76.9 6.9l7-3.6v.8l-6.2 3.1l6.2 3.1v.8l-7-3.6v-.6zm7.9 0l6.9-3.6v.8l-6.1 3.1l6.1 3.1v.8l-6.9-3.6v-.6zm11.4-4.1h-3.4v-.8h7.8v.8h-3.5v9.7h-.9V2.8zm5.4 12.1c.5 0 .8-.2 1.1-.9c.03-.02.6-1.4.6-1.4l-3.2-7.7h.9l2.8 6.7l2.8-6.7h.9s-3.96 9.33-4 9.3c-.4 1-1 1.5-1.9 1.5c-.3 0-.6-.1-.8-.2l.1-.7c.2.1.5.1.7.1zm7.3.6V4.9h.8s.03 1.2 0 1.2c.6-.8 1.6-1.4 2.7-1.4c2.1 0 3.4 1.5 3.4 4c0 2.5-1.3 4-3.4 4c-1.1 0-2-.5-2.7-1.4c.03.01 0 4.2 0 4.2h-.8zm3.4-10.1c-1.1 0-2.1.7-2.6 1.4v3.8c.5.7 1.5 1.4 2.6 1.4c1.7 0 2.6-1.4 2.6-3.3c0-1.9-.9-3.3-2.6-3.3zm8.9-.7c2.4 0 3.6 1.8 3.6 4.1c.04-.05 0 .2 0 .2c0 0-6.38-.03-6.4 0c.1 1.6 1.2 3 3 3c1 0 1.9-.3 2.5-1l.5.5c-.8.8-1.8 1.2-3 1.2c-2.3 0-3.9-1.6-3.9-4c0-2.2 1.6-4 3.7-4zm-2.8 3.6h5.6c0-1.3-.9-2.9-2.8-2.9c-1.8 0-2.7 1.6-2.8 2.9zm12.2.4c0-2.2 1.5-4 3.7-4c2.3 0 3.7 1.8 3.7 4c0 2.2-1.4 4-3.7 4c-2.2 0-3.7-1.8-3.7-4zm6.5 0c0-1.7-1-3.3-2.8-3.3c-1.8 0-2.8 1.6-2.8 3.3c0 1.7 1 3.3 2.8 3.3c1.8 0 2.8-1.6 2.8-3.3zm3.3-3.1h-1.3v-.7h1.3s.02-.72 0-.7c0-1.5.8-2.4 2.1-2.4c.4 0 .7.1 1 .2l-.2.7c-.2-.1-.4-.2-.7-.2c-.9 0-1.4.6-1.4 1.7c.04-.02 0 .7 0 .7h1.6v.7h-1.6v6.9h-.8V5.6zm12.9-3.8c3 0 5.1 2.4 5.1 5.5c0 3.1-2.1 5.4-5.1 5.4c-3.2 0-5.2-2.3-5.2-5.4c0-3.1 2-5.5 5.2-5.5zm0 .8c-2.6 0-4.2 2-4.2 4.7c0 2.6 1.6 4.6 4.2 4.6c2.5 0 4.1-2 4.1-4.6c0-2.7-1.6-4.7-4.1-4.7zM165 6l-2.1 6.5h-.8l-2.5-7.6h.9l2 6.5l2.2-6.5h.7l2.1 6.5l2.1-6.5h.9l-2.5 7.6h-.8L165 6zm12.2 1.4c0-1.5-.7-2-1.9-2c-.9 0-2 .7-2.5 1.3c.05.05 0 5.8 0 5.8h-.8V4.9h.8s.05 1.13 0 1.1c.6-.6 1.7-1.3 2.8-1.3c1.6 0 2.4.7 2.4 2.5c.03-.02 0 5.3 0 5.3h-.8V7.4zm6.7-2.7c2.3 0 3.6 1.8 3.6 4.1c-.02-.05 0 .2 0 .2c0 0-6.44-.03-6.4 0c0 1.6 1.2 3 2.9 3c1 0 1.9-.3 2.6-1l.4.5c-.8.8-1.7 1.2-3 1.2c-2.2 0-3.8-1.6-3.8-4c0-2.2 1.5-4 3.7-4zm-2.8 3.6h5.5c0-1.3-.8-2.9-2.8-2.9c-1.8 0-2.7 1.6-2.7 2.9zm8.5-3.4h.8s.03 1.29 0 1.3c.7-.9 1.6-1.5 2.6-1.5v.9h-.4c-.8 0-1.8.7-2.2 1.4c.03-.04 0 5.5 0 5.5h-.8V4.9zm4.9 6c.5.6 1.3 1.1 2.4 1.1c1.3 0 2.1-.6 2.1-1.5c0-1-1.1-1.3-2.2-1.5c-1.2-.4-2.7-.7-2.7-2.2c0-1.2 1-2.1 2.8-2.1c1.3 0 2.2.5 2.7 1.1l-.4.6c-.5-.6-1.3-1-2.3-1c-1.2 0-1.9.6-1.9 1.4c0 .8.9 1.1 2 1.3c1.3.4 2.8.7 2.8 2.4c0 1.2-1 2.2-2.9 2.2c-1.2 0-2.2-.3-2.9-1.2l.5-.6zm12.6-3.6c0-1.5-.7-1.9-1.9-1.9c-.9 0-2 .7-2.4 1.3c-.05.05 0 5.8 0 5.8h-.9V2h.9s-.05 4.03 0 4c.5-.6 1.6-1.3 2.7-1.3c1.6 0 2.4.7 2.4 2.4c.03.05 0 5.4 0 5.4h-.8V7.3zm3.2-4.4c0-.3.3-.6.6-.6c.4 0 .7.3.7.6c0 .4-.3.7-.7.7c-.3 0-.6-.3-.6-.7zm.2 2h.8v7.6h-.8V4.9zm3.4 10.6V4.9h.8s.03 1.2 0 1.2c.6-.8 1.6-1.4 2.7-1.4c2 0 3.4 1.5 3.4 4c0 2.5-1.4 4-3.4 4c-1.1 0-2.1-.5-2.7-1.4c.03.01 0 4.2 0 4.2h-.8zm3.4-10.1c-1.1 0-2.1.7-2.6 1.4v3.8c.5.7 1.5 1.4 2.6 1.4c1.7 0 2.6-1.4 2.6-3.3c0-1.9-.9-3.3-2.6-3.3zm4.8 4.9l6.2-3.1l-6.2-3.1v-.8l7 3.6v.6l-7 3.6v-.8zm7.9 0l6.1-3.1l-6.1-3.1v-.8l7 3.6v.6l-7 3.6v-.8z" stroke="none" fill="#000"/><a xlink:href="DBF_Type%20of%20Ownership" xlink:show="new" xlink:title="&lt;&lt;Type of Ownership&gt;&gt;"><rect style="fill:transparent;" x="76" y="1" width="161" height="15"/></a></g></svg>