<?xml version="1.0" standalone="no"?><!DOCTYPE svg PUBLIC "-//W3C//DTD SVG 1.1//EN" "http://www.w3.org/Graphics/SVG/1.1/DTD/svg11.dtd"><svg xmlns="http://www.w3.org/2000/svg" version="1.1" width="89.3px" height="16.9px" viewBox="0 -4 89.3 16.9" style="top:-4px"><desc>Number of Locations</desc><defs/><g id="Polygon56118"><path d="m1.6 2.5v4.6h-.9v-6h.9l3.3 4.5V1.1h.9v6h-.9L1.6 2.5zm8.4 4c-.3.4-.9.7-1.5.7c-1 0-1.4-.4-1.4-1.4c-.03.03 0-3 0-3h.8s-.02 2.76 0 2.8c0 .7.3.9.9.9c.5 0 1-.3 1.2-.6V2.8h.8v4.3h-.8v-.6zm7.4-2.3c0-.5-.2-.8-.8-.8c-.4 0-.8.3-1 .6c-.05 0 0 3.1 0 3.1h-.9s.04-2.89 0-2.9c0-.5-.2-.8-.7-.8c-.4 0-.9.3-1.1.6v3.1h-.8V2.8h.8v.6c.2-.3.8-.7 1.4-.7c.7 0 1.1.3 1.2.8c.2-.4.8-.8 1.5-.8c.8 0 1.2.4 1.2 1.3v3.1h-.8V4.2zm2.1-3.1h.8v2.3c.3-.5.8-.7 1.4-.7c1.2 0 2 .8 2 2.2c0 1.5-.9 2.3-2 2.3c-.6 0-1.1-.3-1.4-.7v.6h-.8v-6zm2 5.4c.8 0 1.3-.6 1.3-1.6c0-.9-.5-1.5-1.3-1.5c-.5 0-1 .3-1.2.6v1.9c.2.3.7.6 1.2.6zm5.1-3.8c1.3 0 2.1 1 2.1 2.3v.2h-3.4c0 .7.6 1.4 1.4 1.4c.5 0 1-.2 1.3-.6l.4.6c-.4.4-1 .6-1.7.6c-1.3 0-2.3-.9-2.3-2.3c0-1.2.9-2.2 2.2-2.2zm-1.3 1.9h2.6c0-.6-.4-1.3-1.3-1.3c-.9 0-1.3.7-1.3 1.3zm4.4-1.8h.8s.04.63 0 .6c.4-.4.9-.7 1.5-.7v.8h-.3c-.4 0-1 .3-1.2.6c.04-.01 0 3 0 3h-.8V2.8zm5.1 2.1c0-1.2.9-2.2 2.2-2.2c1.4 0 2.2 1 2.2 2.2c0 1.3-.8 2.3-2.2 2.3c-1.3 0-2.2-1-2.2-2.3zm3.6 0c0-.8-.5-1.5-1.4-1.5c-.8 0-1.3.7-1.3 1.5c0 .9.5 1.6 1.3 1.6c.9 0 1.4-.7 1.4-1.6zm2-1.4h-.7v-.7h.7s.04-.32 0-.3c0-1 .6-1.5 1.4-1.5c.2 0 .5.1.7.2l-.2.6c-.1-.1-.3-.1-.4-.1c-.4 0-.7.3-.7.8c.05-.02 0 .3 0 .3h.9v.7h-.9v3.6h-.8V3.5zm4.8-2.4h.9v5.2h2.8v.8h-3.7v-6zm4.2 3.8c0-1.2.9-2.2 2.2-2.2c1.4 0 2.2 1 2.2 2.2c0 1.3-.8 2.3-2.2 2.3c-1.3 0-2.2-1-2.2-2.3zm3.6 0c0-.8-.5-1.5-1.4-1.5c-.9 0-1.3.7-1.3 1.5c0 .9.4 1.6 1.3 1.6c.9 0 1.4-.7 1.4-1.6zm3.8-2.2c.8 0 1.3.3 1.6.7l-.5.5c-.3-.4-.7-.5-1.1-.5c-.8 0-1.4.6-1.4 1.5c0 .9.6 1.6 1.4 1.6c.4 0 .8-.2 1.1-.5l.5.5c-.3.4-.8.7-1.6.7c-1.3 0-2.2-1-2.2-2.3c0-1.3.9-2.2 2.2-2.2zM62 6.6c-.4.4-.9.6-1.4.6c-.8 0-1.6-.5-1.6-1.4c0-1 .8-1.4 1.6-1.4c.5 0 1 .1 1.4.5v-.7c0-.5-.5-.9-1.1-.9c-.5 0-.9.2-1.3.6l-.3-.5c.4-.5 1-.7 1.7-.7c1 0 1.8.4 1.8 1.5c-.02-.02 0 2.9 0 2.9h-.8s-.03-.47 0-.5zm0-1.2c-.3-.3-.7-.5-1.1-.5c-.6 0-1 .4-1 .9c0 .5.4.9 1 .9c.4 0 .8-.2 1.1-.5v-.8zm2.2.7c.04.05 0-2.6 0-2.6h-.7v-.7h.7V1.6h.9v1.2h.8v.7h-.8s-.05 2.47 0 2.5c0 .3.1.5.4.5c.2 0 .3-.1.4-.2l.2.6c-.1.2-.4.3-.8.3c-.7 0-1.1-.4-1.1-1.1zm2.5-4.6c0-.3.3-.5.5-.5c.3 0 .6.2.6.5c0 .3-.3.5-.6.5c-.2 0-.5-.2-.5-.5zm.1 1.3h.8v4.3h-.8V2.8zm1.9 2.1c0-1.2.8-2.2 2.2-2.2c1.3 0 2.2 1 2.2 2.2c0 1.3-.9 2.3-2.2 2.3c-1.4 0-2.2-1-2.2-2.3zm3.5 0c0-.8-.5-1.5-1.3-1.5c-.9 0-1.4.7-1.4 1.5c0 .9.5 1.6 1.4 1.6c.8 0 1.3-.7 1.3-1.6zm4.8-.6c0-.7-.4-.9-.9-.9c-.5 0-1 .3-1.2.6v3.1h-.8V2.8h.8v.6c.3-.4.9-.7 1.5-.7c.9 0 1.4.4 1.4 1.4c.02-.04 0 3 0 3h-.8V4.3zm2.1 1.6c.3.4.9.7 1.5.7c.6 0 .9-.3.9-.7c0-.4-.5-.5-1-.7c-.8-.1-1.6-.3-1.6-1.3c0-.7.6-1.2 1.6-1.2c.8 0 1.3.2 1.7.6l-.4.5c-.2-.3-.7-.5-1.3-.5c-.5 0-.9.2-.9.6c0 .4.5.5 1 .6c.8.2 1.7.4 1.7 1.4c0 .7-.6 1.3-1.8 1.3c-.7 0-1.3-.2-1.8-.7l.4-.6z" stroke="none" fill="#000"/></g></svg>