<?xml version="1.0" standalone="no"?>
<!DOCTYPE svg PUBLIC "-//W3C//DTD SVG 1.1//EN" "http://www.w3.org/Graphics/SVG/1.1/DTD/svg11.dtd">
<svg xmlns="http://www.w3.org/2000/svg" version="1.1" width="58.2px" height="16.9px" viewBox="0 -4 58.2 16.9" style="top:-4px">
  <desc>Agent 1</desc>
  <defs/>
  <g id="Polygon268190">
    <path d="M 0.7 1.1 L 1.6 1.1 L 1.6 6.3 L 4.3 6.3 L 4.3 7.1 L 0.7 7.1 L 0.7 1.1 Z M 4.7 4.9 C 4.7 3.7 5.6 2.7 6.9 2.7 C 8.3 2.7 9.1 3.7 9.1 4.9 C 9.1 6.2 8.3 7.2 6.9 7.2 C 5.6 7.2 4.7 6.2 4.7 4.9 Z M 8.3 4.9 C 8.3 4.1 7.8 3.4 6.9 3.4 C 6.1 3.4 5.6 4.1 5.6 4.9 C 5.6 5.8 6.1 6.5 6.9 6.5 C 7.8 6.5 8.3 5.8 8.3 4.9 Z M 10.1 2.8 L 10.9 2.8 C 10.9 2.8 10.88 3.43 10.9 3.4 C 11.2 3 11.7 2.7 12.3 2.7 C 12.3 2.7 12.3 3.5 12.3 3.5 C 12.2 3.5 12.1 3.5 12 3.5 C 11.6 3.5 11.1 3.8 10.9 4.1 C 10.88 4.09 10.9 7.1 10.9 7.1 L 10.1 7.1 L 10.1 2.8 Z M 14.9 2.7 C 16.2 2.7 17 3.7 17 5 C 17.05 5 17 5.2 17 5.2 C 17 5.2 13.61 5.2 13.6 5.2 C 13.7 5.9 14.2 6.6 15.1 6.6 C 15.5 6.6 16 6.4 16.4 6 C 16.4 6 16.7 6.6 16.7 6.6 C 16.3 7 15.7 7.2 15 7.2 C 13.7 7.2 12.8 6.3 12.8 4.9 C 12.8 3.7 13.7 2.7 14.9 2.7 Z M 13.6 4.6 C 13.6 4.6 16.3 4.6 16.3 4.6 C 16.2 4 15.8 3.3 14.9 3.3 C 14.1 3.3 13.6 4 13.6 4.6 Z M 23.3 4.2 C 23.3 3.7 23 3.4 22.5 3.4 C 22.1 3.4 21.6 3.7 21.4 4 C 21.42 4 21.4 7.1 21.4 7.1 L 20.6 7.1 C 20.6 7.1 20.61 4.21 20.6 4.2 C 20.6 3.7 20.4 3.4 19.8 3.4 C 19.4 3.4 19 3.7 18.8 4 C 18.78 4 18.8 7.1 18.8 7.1 L 18 7.1 L 18 2.8 L 18.8 2.8 C 18.8 2.8 18.78 3.37 18.8 3.4 C 19 3.1 19.5 2.7 20.2 2.7 C 20.8 2.7 21.2 3 21.4 3.5 C 21.6 3.1 22.2 2.7 22.8 2.7 C 23.6 2.7 24.1 3.1 24.1 4 C 24.07 3.97 24.1 7.1 24.1 7.1 L 23.3 7.1 C 23.3 7.1 23.26 4.21 23.3 4.2 Z " stroke="none" fill="#3797ef"/>
  </g>
</svg>