<?xml version="1.0" standalone="no"?><!DOCTYPE svg PUBLIC "-//W3C//DTD SVG 1.1//EN" "http://www.w3.org/Graphics/SVG/1.1/DTD/svg11.dtd"><svg xmlns="http://www.w3.org/2000/svg" version="1.1" width="33px" height="21.5px" viewBox="0 -4 33 21.5" style="top:-4px"><desc>3-Mile</desc><defs/><g id="Polygon78204"><path d="m1.1 7.2c.6.6 1.5.9 2.2.9c1 0 1.5-.4 1.5-1c0-.6-.4-.9-1.6-.9h-1V4.7h1c.9 0 1.5-.3 1.5-.9c0-.6-.6-1-1.5-1c-.7 0-1.4.3-2 .9L.3 2.6C1 1.9 2 1.4 3.4 1.4c1.9 0 3 .8 3 2.1c0 1-.8 1.7-1.7 1.9c.8 0 1.9.7 1.9 1.9c0 1.4-1.3 2.3-3.2 2.3C1.9 9.6.8 9.1.2 8.3l.9-1.1zm6.2-1.3h2.9v1.3H7.3V5.9zm10.9-2.2l-2.3 5.8h-.7l-2.3-5.8v5.8h-1.7v-8h2.4l1.9 5l2-5h2.4v8h-1.7V3.7zm2.9-1.8c0-.5.5-.9 1-.9c.5 0 .9.4.9.9c0 .5-.4.9-.9.9c-.5 0-1-.4-1-.9zm.2 1.8h1.5v5.8h-1.5V3.7zm2.9-2.2h1.5v8h-1.5v-8zm5.6 2c1.7 0 2.9 1.3 2.9 3.2c-.04.03 0 .4 0 .4c0 0-4.35-.03-4.3 0c.1.7.6 1.3 1.6 1.3c.6 0 1.2-.2 1.6-.6l.6 1c-.5.5-1.4.8-2.3.8c-1.8 0-3.1-1.2-3.1-3c0-1.7 1.2-3.1 3-3.1zM28.3 6h2.9c0-.5-.4-1.2-1.4-1.2c-1 0-1.4.7-1.5 1.2z" stroke="none" fill="#282828"/></g></svg>