<?xml version="1.0" standalone="no"?><!DOCTYPE svg PUBLIC "-//W3C//DTD SVG 1.1//EN" "http://www.w3.org/Graphics/SVG/1.1/DTD/svg11.dtd"><svg xmlns="http://www.w3.org/2000/svg" version="1.1" width="155.5px" height="26.9px" viewBox="0 -6 155.5 26.9" style="top:-6px"><desc>Private</desc><defs/><g id="Polygon91658"><path d="m55.7 2s3.94-.05 3.9 0c2.1 0 3.2 1.4 3.2 3.1c0 1.6-1.1 3-3.2 3c.04.05-3 0-3 0v4.4h-.9V2zm3.8.8c.05-.02-2.9 0-2.9 0v4.5s2.95.02 2.9 0c1.4 0 2.4-.9 2.4-2.2c0-1.4-1-2.3-2.4-2.3zm5.2 2.1h.8s.04 1.29 0 1.3c.7-.9 1.6-1.5 2.6-1.5v.9h-.4c-.8 0-1.8.7-2.2 1.4c.04-.04 0 5.5 0 5.5h-.8V4.9zm4.8-2c0-.3.3-.6.7-.6c.3 0 .6.3.6.6c0 .4-.3.7-.6.7c-.4 0-.7-.3-.7-.7zm.2 2h.9v7.6h-.9V4.9zm2.3 0h.9l2.8 6.7l2.7-6.7h1l-3.3 7.6h-.9L72 4.9zm13.7 6.7c-.7.8-1.6 1.1-2.6 1.1c-1.4 0-2.7-.9-2.7-2.5c0-1.7 1.3-2.5 2.7-2.5c1 0 1.9.3 2.6 1V7.2c0-1.1-1-1.8-2.1-1.8c-1 0-1.7.3-2.4 1.1l-.5-.5c.8-.9 1.7-1.3 3-1.3c1.5 0 2.8.7 2.8 2.4c-.02.05 0 5.4 0 5.4h-.8s-.04-.86 0-.9zm0-2.2c-.6-.7-1.4-1.1-2.4-1.1c-1.2 0-2.1.8-2.1 1.9c0 1.1.9 1.9 2.1 1.9c1 0 1.8-.4 2.4-1.1V9.4zm3.5 1.7c.02-.03 0-5.5 0-5.5h-1.3v-.7h1.3V2.8h.9v2.1h1.5v.7h-1.5s-.04 5.34 0 5.3c0 .7.2 1.1.8 1.1c.3 0 .6-.2.8-.4l.3.7c-.3.2-.6.4-1.3.4c-1 0-1.5-.6-1.5-1.6zm7.5-6.4c2.3 0 3.6 1.8 3.6 4.1v.2s-6.41-.03-6.4 0c.1 1.6 1.2 3 3 3c1 0 1.8-.3 2.5-1l.4.5c-.7.8-1.7 1.2-3 1.2c-2.2 0-3.8-1.6-3.8-4c0-2.2 1.6-4 3.7-4zm-2.8 3.6h5.6c-.1-1.3-.9-2.9-2.8-2.9c-1.8 0-2.8 1.6-2.8 2.9z" stroke="none" fill="#000"/></g></svg>