<?xml version="1.0" standalone="no"?><!DOCTYPE svg PUBLIC "-//W3C//DTD SVG 1.1//EN" "http://www.w3.org/Graphics/SVG/1.1/DTD/svg11.dtd"><svg xmlns="http://www.w3.org/2000/svg" version="1.1" width="213.5px" height="276.3px" viewBox="0 -6 213.5 276.3" style="top:-6px"><desc>Period 00 00 0000 - 00 00 0000 00 00 0000 - 00 00 0000 00 00 0000 - 00 00 0000 00 00 0000 - 00 00 0000 00 00 0000 - 0</desc><defs/><g id="Polygon286511"><path d="m1.6 257.8l-1 .7l-.2-.5l1-.5l-1-.6l.2-.4l1 .7V256h.4v1.2l1-.7l.2.4l-1 .6l1 .5l-.2.5l-1-.7v1.2h-.4v-1.2zm5.9-1.8c2.1 0 3.5 1.5 3.5 3.6c0 2.1-1.4 3.7-3.5 3.7c-2.1 0-3.5-1.6-3.5-3.7c0-2.1 1.4-3.6 3.5-3.6zm0 .7c-1.5 0-2.6 1.3-2.6 2.9c0 1.7 1.1 2.9 2.6 2.9c1.6 0 2.6-1.2 2.6-2.9c0-1.6-1-2.9-2.6-2.9zm4.8 8.4V258h.8s-.02.78 0 .8c.3-.5 1-.9 1.7-.9c1.3 0 2.3 1 2.3 2.7c0 1.6-1 2.7-2.3 2.7c-.7 0-1.3-.4-1.7-.9c-.02-.04 0 2.7 0 2.7h-.8zm2.3-6.5c-.6 0-1.2.4-1.5.8v2.3c.3.5.9.9 1.5.9c1 0 1.6-.9 1.6-2c0-1.2-.6-2-1.6-2zm3.8 3.5c.01-.03 0-3.4 0-3.4h-.8v-.7h.8v-1.4h.8v1.4h1v.7h-1v3.2c0 .4.2.7.5.7c.2 0 .5-.1.6-.3l.2.6c-.2.2-.5.4-1 .4c-.7 0-1.1-.5-1.1-1.2zm2.7-5.5c0-.3.3-.5.6-.5c.2 0 .5.2.5.5c0 .3-.3.6-.5.6c-.3 0-.6-.3-.6-.6zm.2 1.4h.8v5.1h-.8V258zm1.9 2.6c0-1.5 1-2.7 2.6-2.7c1.5 0 2.5 1.2 2.5 2.7c0 1.5-1 2.7-2.5 2.7c-1.6 0-2.6-1.2-2.6-2.7zm4.3 0c0-1.1-.6-2-1.7-2c-1.1 0-1.7.9-1.7 2c0 1 .6 2 1.7 2c1.1 0 1.7-1 1.7-2zm5.4-.8c0-.9-.4-1.2-1.1-1.2c-.6 0-1.2.4-1.5.8c-.02 0 0 3.7 0 3.7h-.8V258h.8s-.02.76 0 .8c.3-.5 1-.9 1.8-.9c1.1 0 1.6.5 1.6 1.6c.03.05 0 3.6 0 3.6h-.8s.04-3.31 0-3.3zm5.5 2.8c-.4.4-1 .7-1.7.7c-.8 0-1.8-.6-1.8-1.7c0-1.2 1-1.7 1.8-1.7c.7 0 1.3.2 1.7.7v-.9c0-.7-.5-1.1-1.3-1.1c-.6 0-1.1.2-1.5.7l-.4-.6c.5-.5 1.2-.8 2-.8c1.1 0 2 .5 2 1.7v3.5h-.8v-.5zm0-1.5c-.3-.4-.8-.6-1.4-.6c-.7 0-1.3.4-1.3 1.1c0 .6.6 1.1 1.3 1.1c.6 0 1.1-.2 1.4-.6v-1zm2.3-5h.8v7h-.8v-7zm5.8 1.3v5.7h-.9v-7h.9l4.1 5.6v-5.6h.9v7h-.9l-4.1-5.7zm6.2 3.2c0-1.5 1-2.7 2.5-2.7c1.6 0 2.5 1.2 2.5 2.7c0 1.5-.9 2.7-2.5 2.7c-1.5 0-2.5-1.2-2.5-2.7zm4.2 0c0-1.1-.6-2-1.7-2c-1.1 0-1.7.9-1.7 2c0 1 .6 2 1.7 2c1.1 0 1.7-1 1.7-2zm2.2 1.5c-.01-.03 0-3.4 0-3.4h-.9v-.7h.9v-1.4h.8v1.4h1v.7h-1v3.2c0 .4.2.7.5.7c.2 0 .4-.1.5-.3l.3.6c-.2.2-.5.4-1 .4c-.7 0-1.1-.5-1.1-1.2zm5.1-4.2c1.5 0 2.4 1.2 2.4 2.7c.02.04 0 .2 0 .2c0 0-4.12.04-4.1 0c0 1 .7 1.8 1.8 1.8c.6 0 1.2-.2 1.6-.6l.4.5c-.5.5-1.2.8-2.1.8c-1.5 0-2.6-1.1-2.6-2.7c0-1.5 1.1-2.7 2.6-2.7zm-1.7 2.4h3.3c0-.8-.5-1.8-1.6-1.8c-1.1 0-1.7 1-1.7 1.8z" stroke="none" fill="#88898a"/></g><g id="Polygon286510"><path d="m4.8 224.1c2.9 0 4 3 4 5.5c0 2.5-1.1 5.5-4 5.5c-2.8 0-3.9-3-3.9-5.5c0-2.5 1.1-5.5 3.9-5.5zm0 .9c-2.2 0-2.9 2.4-2.9 4.6c0 2.2.7 4.7 2.9 4.7c2.3 0 3-2.5 3-4.7c0-2.2-.7-4.6-3-4.6zm9.5-.9c2.9 0 3.9 3 3.9 5.5c0 2.5-1 5.5-3.9 5.5c-2.8 0-3.9-3-3.9-5.5c0-2.5 1.1-5.5 3.9-5.5zm0 .9c-2.2 0-2.9 2.4-2.9 4.6c0 2.2.7 4.7 2.9 4.7c2.2 0 3-2.5 3-4.7c0-2.2-.7-4.6-3-4.6zm8.5-1h.7l-3.8 11.2h-.7l3.8-11.2zm5.4.1c2.8 0 3.9 3 3.9 5.5c0 2.5-1.1 5.5-3.9 5.5c-2.9 0-4-3-4-5.5c0-2.5 1.1-5.5 4-5.5zm0 .9c-2.3 0-3 2.4-3 4.6c0 2.2.7 4.7 3 4.7c2.2 0 2.9-2.5 2.9-4.7c0-2.2-.7-4.6-2.9-4.6zm9.5-.9c2.8 0 3.9 3 3.9 5.5c0 2.5-1.1 5.5-3.9 5.5c-2.9 0-4-3-4-5.5c0-2.5 1.1-5.5 4-5.5zm0 .9c-2.3 0-3 2.4-3 4.6c0 2.2.7 4.7 3 4.7c2.2 0 2.9-2.5 2.9-4.7c0-2.2-.7-4.6-2.9-4.6zm8.4-1h.7L43 235.2h-.7l3.8-11.2zm5.4.1c2.8 0 3.9 3 3.9 5.5c0 2.5-1.1 5.5-3.9 5.5c-2.9 0-3.9-3-3.9-5.5c0-2.5 1-5.5 3.9-5.5zm0 .9c-2.3 0-3 2.4-3 4.6c0 2.2.7 4.7 3 4.7c2.2 0 2.9-2.5 2.9-4.7c0-2.2-.7-4.6-2.9-4.6zm9.5-.9c2.8 0 3.9 3 3.9 5.5c0 2.5-1.1 5.5-3.9 5.5c-2.9 0-4-3-4-5.5c0-2.5 1.1-5.5 4-5.5zm0 .9c-2.3 0-3 2.4-3 4.6c0 2.2.7 4.7 3 4.7c2.2 0 2.9-2.5 2.9-4.7c0-2.2-.7-4.6-2.9-4.6zm9.5-.9c2.8 0 3.9 3 3.9 5.5c0 2.5-1.1 5.5-3.9 5.5c-2.9 0-4-3-4-5.5c0-2.5 1.1-5.5 4-5.5zm0 .9c-2.3 0-3 2.4-3 4.6c0 2.2.7 4.7 3 4.7c2.2 0 2.9-2.5 2.9-4.7c0-2.2-.7-4.6-2.9-4.6zm9.5-.9c2.8 0 3.9 3 3.9 5.5c0 2.5-1.1 5.5-3.9 5.5c-2.9 0-4-3-4-5.5c0-2.5 1.1-5.5 4-5.5zm0 .9c-2.3 0-3 2.4-3 4.6c0 2.2.7 4.7 3 4.7c2.2 0 2.9-2.5 2.9-4.7c0-2.2-.7-4.6-2.9-4.6zm9.1 5.7h3.8v.7h-3.8v-.7zm12.9-6.6c2.8 0 3.9 3 3.9 5.5c0 2.5-1.1 5.5-3.9 5.5c-2.9 0-3.9-3-3.9-5.5c0-2.5 1-5.5 3.9-5.5zm0 .9c-2.3 0-3 2.4-3 4.6c0 2.2.7 4.7 3 4.7c2.2 0 2.9-2.5 2.9-4.7c0-2.2-.7-4.6-2.9-4.6zm9.5-.9c2.8 0 3.9 3 3.9 5.5c0 2.5-1.1 5.5-3.9 5.5c-2.9 0-3.9-3-3.9-5.5c0-2.5 1-5.5 3.9-5.5zm0 .9c-2.3 0-3 2.4-3 4.6c0 2.2.7 4.7 3 4.7c2.2 0 2.9-2.5 2.9-4.7c0-2.2-.7-4.6-2.9-4.6zm8.4-1h.7l-3.8 11.2h-.7l3.8-11.2zm5.4.1c2.8 0 3.9 3 3.9 5.5c0 2.5-1.1 5.5-3.9 5.5c-2.9 0-3.9-3-3.9-5.5c0-2.5 1-5.5 3.9-5.5zm0 .9c-2.2 0-3 2.4-3 4.6c0 2.2.8 4.7 3 4.7c2.2 0 2.9-2.5 2.9-4.7c0-2.2-.7-4.6-2.9-4.6zm9.5-.9c2.8 0 3.9 3 3.9 5.5c0 2.5-1.1 5.5-3.9 5.5c-2.9 0-3.9-3-3.9-5.5c0-2.5 1-5.5 3.9-5.5zm0 .9c-2.2 0-3 2.4-3 4.6c0 2.2.8 4.7 3 4.7c2.2 0 2.9-2.5 2.9-4.7c0-2.2-.7-4.6-2.9-4.6zm8.4-1h.7l-3.7 11.2h-.8l3.8-11.2zm5.4.1c2.8 0 3.9 3 3.9 5.5c0 2.5-1.1 5.5-3.9 5.5c-2.9 0-3.9-3-3.9-5.5c0-2.5 1-5.5 3.9-5.5zm0 .9c-2.2 0-3 2.4-3 4.6c0 2.2.8 4.7 3 4.7c2.2 0 2.9-2.5 2.9-4.7c0-2.2-.7-4.6-2.9-4.6zm9.5-.9c2.8 0 3.9 3 3.9 5.5c0 2.5-1.1 5.5-3.9 5.5c-2.9 0-3.9-3-3.9-5.5c0-2.5 1-5.5 3.9-5.5zm0 .9c-2.2 0-3 2.4-3 4.6c0 2.2.8 4.7 3 4.7c2.2 0 2.9-2.5 2.9-4.7c0-2.2-.7-4.6-2.9-4.6zm9.5-.9c2.8 0 3.9 3 3.9 5.5c0 2.5-1.1 5.5-3.9 5.5c-2.9 0-3.9-3-3.9-5.5c0-2.5 1-5.5 3.9-5.5zm0 .9c-2.2 0-3 2.4-3 4.6c0 2.2.8 4.7 3 4.7c2.2 0 2.9-2.5 2.9-4.7c0-2.2-.7-4.6-2.9-4.6zm9.5-.9c2.8 0 3.9 3 3.9 5.5c0 2.5-1.1 5.5-3.9 5.5c-2.9 0-3.9-3-3.9-5.5c0-2.5 1-5.5 3.9-5.5zm0 .9c-2.2 0-3 2.4-3 4.6c0 2.2.8 4.7 3 4.7c2.2 0 2.9-2.5 2.9-4.7c0-2.2-.7-4.6-2.9-4.6z" stroke="none" fill="#242423"/></g><g id="Polygon286509"><path d="m4.8 192.4c2.9 0 4 2.9 4 5.4c0 2.6-1.1 5.5-4 5.5c-2.8 0-3.9-2.9-3.9-5.5c0-2.5 1.1-5.4 3.9-5.4zm0 .8c-2.2 0-2.9 2.5-2.9 4.6c0 2.2.7 4.7 2.9 4.7c2.3 0 3-2.5 3-4.7c0-2.1-.7-4.6-3-4.6zm9.5-.8c2.9 0 3.9 2.9 3.9 5.4c0 2.6-1 5.5-3.9 5.5c-2.8 0-3.9-2.9-3.9-5.5c0-2.5 1.1-5.4 3.9-5.4zm0 .8c-2.2 0-2.9 2.5-2.9 4.6c0 2.2.7 4.7 2.9 4.7c2.2 0 3-2.5 3-4.7c0-2.1-.7-4.6-3-4.6zm8.5-1h.7l-3.8 11.3h-.7l3.8-11.3zm5.4.2c2.8 0 3.9 2.9 3.9 5.4c0 2.6-1.1 5.5-3.9 5.5c-2.9 0-4-2.9-4-5.5c0-2.5 1.1-5.4 4-5.4zm0 .8c-2.3 0-3 2.5-3 4.6c0 2.2.7 4.7 3 4.7c2.2 0 2.9-2.5 2.9-4.7c0-2.1-.7-4.6-2.9-4.6zm9.5-.8c2.8 0 3.9 2.9 3.9 5.4c0 2.6-1.1 5.5-3.9 5.5c-2.9 0-4-2.9-4-5.5c0-2.5 1.1-5.4 4-5.4zm0 .8c-2.3 0-3 2.5-3 4.6c0 2.2.7 4.7 3 4.7c2.2 0 2.9-2.5 2.9-4.7c0-2.1-.7-4.6-2.9-4.6zm8.4-1h.7L43 203.5h-.7l3.8-11.3zm5.4.2c2.8 0 3.9 2.9 3.9 5.4c0 2.6-1.1 5.5-3.9 5.5c-2.9 0-3.9-2.9-3.9-5.5c0-2.5 1-5.4 3.9-5.4zm0 .8c-2.3 0-3 2.5-3 4.6c0 2.2.7 4.7 3 4.7c2.2 0 2.9-2.5 2.9-4.7c0-2.1-.7-4.6-2.9-4.6zm9.5-.8c2.8 0 3.9 2.9 3.9 5.4c0 2.6-1.1 5.5-3.9 5.5c-2.9 0-4-2.9-4-5.5c0-2.5 1.1-5.4 4-5.4zm0 .8c-2.3 0-3 2.5-3 4.6c0 2.2.7 4.7 3 4.7c2.2 0 2.9-2.5 2.9-4.7c0-2.1-.7-4.6-2.9-4.6zm9.5-.8c2.8 0 3.9 2.9 3.9 5.4c0 2.6-1.1 5.5-3.9 5.5c-2.9 0-4-2.9-4-5.5c0-2.5 1.1-5.4 4-5.4zm0 .8c-2.3 0-3 2.5-3 4.6c0 2.2.7 4.7 3 4.7c2.2 0 2.9-2.5 2.9-4.7c0-2.1-.7-4.6-2.9-4.6zm9.5-.8c2.8 0 3.9 2.9 3.9 5.4c0 2.6-1.1 5.5-3.9 5.5c-2.9 0-4-2.9-4-5.5c0-2.5 1.1-5.4 4-5.4zm0 .8c-2.3 0-3 2.5-3 4.6c0 2.2.7 4.7 3 4.7c2.2 0 2.9-2.5 2.9-4.7c0-2.1-.7-4.6-2.9-4.6zm9.1 5.7h3.8v.8h-3.8v-.8zm12.9-6.5c2.8 0 3.9 2.9 3.9 5.4c0 2.6-1.1 5.5-3.9 5.5c-2.9 0-3.9-2.9-3.9-5.5c0-2.5 1-5.4 3.9-5.4zm0 .8c-2.3 0-3 2.5-3 4.6c0 2.2.7 4.7 3 4.7c2.2 0 2.9-2.5 2.9-4.7c0-2.1-.7-4.6-2.9-4.6zm9.5-.8c2.8 0 3.9 2.9 3.9 5.4c0 2.6-1.1 5.5-3.9 5.5c-2.9 0-3.9-2.9-3.9-5.5c0-2.5 1-5.4 3.9-5.4zm0 .8c-2.3 0-3 2.5-3 4.6c0 2.2.7 4.7 3 4.7c2.2 0 2.9-2.5 2.9-4.7c0-2.1-.7-4.6-2.9-4.6zm8.4-1h.7l-3.8 11.3h-.7l3.8-11.3zm5.4.2c2.8 0 3.9 2.9 3.9 5.4c0 2.6-1.1 5.5-3.9 5.5c-2.9 0-3.9-2.9-3.9-5.5c0-2.5 1-5.4 3.9-5.4zm0 .8c-2.2 0-3 2.5-3 4.6c0 2.2.8 4.7 3 4.7c2.2 0 2.9-2.5 2.9-4.7c0-2.1-.7-4.6-2.9-4.6zm9.5-.8c2.8 0 3.9 2.9 3.9 5.4c0 2.6-1.1 5.5-3.9 5.5c-2.9 0-3.9-2.9-3.9-5.5c0-2.5 1-5.4 3.9-5.4zm0 .8c-2.2 0-3 2.5-3 4.6c0 2.2.8 4.7 3 4.7c2.2 0 2.9-2.5 2.9-4.7c0-2.1-.7-4.6-2.9-4.6zm8.4-1h.7l-3.7 11.3h-.8l3.8-11.3zm5.4.2c2.8 0 3.9 2.9 3.9 5.4c0 2.6-1.1 5.5-3.9 5.5c-2.9 0-3.9-2.9-3.9-5.5c0-2.5 1-5.4 3.9-5.4zm0 .8c-2.2 0-3 2.5-3 4.6c0 2.2.8 4.7 3 4.7c2.2 0 2.9-2.5 2.9-4.7c0-2.1-.7-4.6-2.9-4.6zm9.5-.8c2.8 0 3.9 2.9 3.9 5.4c0 2.6-1.1 5.5-3.9 5.5c-2.9 0-3.9-2.9-3.9-5.5c0-2.5 1-5.4 3.9-5.4zm0 .8c-2.2 0-3 2.5-3 4.6c0 2.2.8 4.7 3 4.7c2.2 0 2.9-2.5 2.9-4.7c0-2.1-.7-4.6-2.9-4.6zm9.5-.8c2.8 0 3.9 2.9 3.9 5.4c0 2.6-1.1 5.5-3.9 5.5c-2.9 0-3.9-2.9-3.9-5.5c0-2.5 1-5.4 3.9-5.4zm0 .8c-2.2 0-3 2.5-3 4.6c0 2.2.8 4.7 3 4.7c2.2 0 2.9-2.5 2.9-4.7c0-2.1-.7-4.6-2.9-4.6zm9.5-.8c2.8 0 3.9 2.9 3.9 5.4c0 2.6-1.1 5.5-3.9 5.5c-2.9 0-3.9-2.9-3.9-5.5c0-2.5 1-5.4 3.9-5.4zm0 .8c-2.2 0-3 2.5-3 4.6c0 2.2.8 4.7 3 4.7c2.2 0 2.9-2.5 2.9-4.7c0-2.1-.7-4.6-2.9-4.6z" stroke="none" fill="#242423"/></g><g id="Polygon286508"><path d="m4.8 160.6c2.9 0 4 3 4 5.5c0 2.5-1.1 5.5-4 5.5c-2.8 0-3.9-3-3.9-5.5c0-2.5 1.1-5.5 3.9-5.5zm0 .8c-2.2 0-2.9 2.5-2.9 4.7c0 2.2.7 4.6 2.9 4.6c2.3 0 3-2.4 3-4.6c0-2.2-.7-4.7-3-4.7zm9.5-.8c2.9 0 3.9 3 3.9 5.5c0 2.5-1 5.5-3.9 5.5c-2.8 0-3.9-3-3.9-5.5c0-2.5 1.1-5.5 3.9-5.5zm0 .8c-2.2 0-2.9 2.5-2.9 4.7c0 2.2.7 4.6 2.9 4.6c2.2 0 3-2.4 3-4.6c0-2.2-.7-4.7-3-4.7zm8.5-.9h.7l-3.8 11.2h-.7l3.8-11.2zm5.4.1c2.8 0 3.9 3 3.9 5.5c0 2.5-1.1 5.5-3.9 5.5c-2.9 0-4-3-4-5.5c0-2.5 1.1-5.5 4-5.5zm0 .8c-2.3 0-3 2.5-3 4.7c0 2.2.7 4.6 3 4.6c2.2 0 2.9-2.4 2.9-4.6c0-2.2-.7-4.7-2.9-4.7zm9.5-.8c2.8 0 3.9 3 3.9 5.5c0 2.5-1.1 5.5-3.9 5.5c-2.9 0-4-3-4-5.5c0-2.5 1.1-5.5 4-5.5zm0 .8c-2.3 0-3 2.5-3 4.7c0 2.2.7 4.6 3 4.6c2.2 0 2.9-2.4 2.9-4.6c0-2.2-.7-4.7-2.9-4.7zm8.4-.9h.7L43 171.7h-.7l3.8-11.2zm5.4.1c2.8 0 3.9 3 3.9 5.5c0 2.5-1.1 5.5-3.9 5.5c-2.9 0-3.9-3-3.9-5.5c0-2.5 1-5.5 3.9-5.5zm0 .8c-2.3 0-3 2.5-3 4.7c0 2.2.7 4.6 3 4.6c2.2 0 2.9-2.4 2.9-4.6c0-2.2-.7-4.7-2.9-4.7zm9.5-.8c2.8 0 3.9 3 3.9 5.5c0 2.5-1.1 5.5-3.9 5.5c-2.9 0-4-3-4-5.5c0-2.5 1.1-5.5 4-5.5zm0 .8c-2.3 0-3 2.5-3 4.7c0 2.2.7 4.6 3 4.6c2.2 0 2.9-2.4 2.9-4.6c0-2.2-.7-4.7-2.9-4.7zm9.5-.8c2.8 0 3.9 3 3.9 5.5c0 2.5-1.1 5.5-3.9 5.5c-2.9 0-4-3-4-5.5c0-2.5 1.1-5.5 4-5.5zm0 .8c-2.3 0-3 2.5-3 4.7c0 2.2.7 4.6 3 4.6c2.2 0 2.9-2.4 2.9-4.6c0-2.2-.7-4.7-2.9-4.7zm9.5-.8c2.8 0 3.9 3 3.9 5.5c0 2.5-1.1 5.5-3.9 5.5c-2.9 0-4-3-4-5.5c0-2.5 1.1-5.5 4-5.5zm0 .8c-2.3 0-3 2.5-3 4.7c0 2.2.7 4.6 3 4.6c2.2 0 2.9-2.4 2.9-4.6c0-2.2-.7-4.7-2.9-4.7zm9.1 5.7h3.8v.8h-3.8v-.8zm12.9-6.5c2.8 0 3.9 3 3.9 5.5c0 2.5-1.1 5.5-3.9 5.5c-2.9 0-3.9-3-3.9-5.5c0-2.5 1-5.5 3.9-5.5zm0 .8c-2.3 0-3 2.5-3 4.7c0 2.2.7 4.6 3 4.6c2.2 0 2.9-2.4 2.9-4.6c0-2.2-.7-4.7-2.9-4.7zm9.5-.8c2.8 0 3.9 3 3.9 5.5c0 2.5-1.1 5.5-3.9 5.5c-2.9 0-3.9-3-3.9-5.5c0-2.5 1-5.5 3.9-5.5zm0 .8c-2.3 0-3 2.5-3 4.7c0 2.2.7 4.6 3 4.6c2.2 0 2.9-2.4 2.9-4.6c0-2.2-.7-4.7-2.9-4.7zm8.4-.9h.7l-3.8 11.2h-.7l3.8-11.2zm5.4.1c2.8 0 3.9 3 3.9 5.5c0 2.5-1.1 5.5-3.9 5.5c-2.9 0-3.9-3-3.9-5.5c0-2.5 1-5.5 3.9-5.5zm0 .8c-2.2 0-3 2.5-3 4.7c0 2.2.8 4.6 3 4.6c2.2 0 2.9-2.4 2.9-4.6c0-2.2-.7-4.7-2.9-4.7zm9.5-.8c2.8 0 3.9 3 3.9 5.5c0 2.5-1.1 5.5-3.9 5.5c-2.9 0-3.9-3-3.9-5.5c0-2.5 1-5.5 3.9-5.5zm0 .8c-2.2 0-3 2.5-3 4.7c0 2.2.8 4.6 3 4.6c2.2 0 2.9-2.4 2.9-4.6c0-2.2-.7-4.7-2.9-4.7zm8.4-.9h.7l-3.7 11.2h-.8l3.8-11.2zm5.4.1c2.8 0 3.9 3 3.9 5.5c0 2.5-1.1 5.5-3.9 5.5c-2.9 0-3.9-3-3.9-5.5c0-2.5 1-5.5 3.9-5.5zm0 .8c-2.2 0-3 2.5-3 4.7c0 2.2.8 4.6 3 4.6c2.2 0 2.9-2.4 2.9-4.6c0-2.2-.7-4.7-2.9-4.7zm9.5-.8c2.8 0 3.9 3 3.9 5.5c0 2.5-1.1 5.5-3.9 5.5c-2.9 0-3.9-3-3.9-5.5c0-2.5 1-5.5 3.9-5.5zm0 .8c-2.2 0-3 2.5-3 4.7c0 2.2.8 4.6 3 4.6c2.2 0 2.9-2.4 2.9-4.6c0-2.2-.7-4.7-2.9-4.7zm9.5-.8c2.8 0 3.9 3 3.9 5.5c0 2.5-1.1 5.5-3.9 5.5c-2.9 0-3.9-3-3.9-5.5c0-2.5 1-5.5 3.9-5.5zm0 .8c-2.2 0-3 2.5-3 4.7c0 2.2.8 4.6 3 4.6c2.2 0 2.9-2.4 2.9-4.6c0-2.2-.7-4.7-2.9-4.7zm9.5-.8c2.8 0 3.9 3 3.9 5.5c0 2.5-1.1 5.5-3.9 5.5c-2.9 0-3.9-3-3.9-5.5c0-2.5 1-5.5 3.9-5.5zm0 .8c-2.2 0-3 2.5-3 4.7c0 2.2.8 4.6 3 4.6c2.2 0 2.9-2.4 2.9-4.6c0-2.2-.7-4.7-2.9-4.7z" stroke="none" fill="#242423"/></g><g id="Polygon286507"><path d="m4.8 128.9c2.9 0 4 2.9 4 5.4c0 2.5-1.1 5.5-4 5.5c-2.8 0-3.9-3-3.9-5.5c0-2.5 1.1-5.4 3.9-5.4zm0 .8c-2.2 0-2.9 2.4-2.9 4.6c0 2.2.7 4.7 2.9 4.7c2.3 0 3-2.5 3-4.7c0-2.2-.7-4.6-3-4.6zm9.5-.8c2.9 0 3.9 2.9 3.9 5.4c0 2.5-1 5.5-3.9 5.5c-2.8 0-3.9-3-3.9-5.5c0-2.5 1.1-5.4 3.9-5.4zm0 .8c-2.2 0-2.9 2.4-2.9 4.6c0 2.2.7 4.7 2.9 4.7c2.2 0 3-2.5 3-4.7c0-2.2-.7-4.6-3-4.6zm8.5-1h.7l-3.8 11.2h-.7l3.8-11.2zm5.4.2c2.8 0 3.9 2.9 3.9 5.4c0 2.5-1.1 5.5-3.9 5.5c-2.9 0-4-3-4-5.5c0-2.5 1.1-5.4 4-5.4zm0 .8c-2.3 0-3 2.4-3 4.6c0 2.2.7 4.7 3 4.7c2.2 0 2.9-2.5 2.9-4.7c0-2.2-.7-4.6-2.9-4.6zm9.5-.8c2.8 0 3.9 2.9 3.9 5.4c0 2.5-1.1 5.5-3.9 5.5c-2.9 0-4-3-4-5.5c0-2.5 1.1-5.4 4-5.4zm0 .8c-2.3 0-3 2.4-3 4.6c0 2.2.7 4.7 3 4.7c2.2 0 2.9-2.5 2.9-4.7c0-2.2-.7-4.6-2.9-4.6zm8.4-1h.7L43 139.9h-.7l3.8-11.2zm5.4.2c2.8 0 3.9 2.9 3.9 5.4c0 2.5-1.1 5.5-3.9 5.5c-2.9 0-3.9-3-3.9-5.5c0-2.5 1-5.4 3.9-5.4zm0 .8c-2.3 0-3 2.4-3 4.6c0 2.2.7 4.7 3 4.7c2.2 0 2.9-2.5 2.9-4.7c0-2.2-.7-4.6-2.9-4.6zm9.5-.8c2.8 0 3.9 2.9 3.9 5.4c0 2.5-1.1 5.5-3.9 5.5c-2.9 0-4-3-4-5.5c0-2.5 1.1-5.4 4-5.4zm0 .8c-2.3 0-3 2.4-3 4.6c0 2.2.7 4.7 3 4.7c2.2 0 2.9-2.5 2.9-4.7c0-2.2-.7-4.6-2.9-4.6zm9.5-.8c2.8 0 3.9 2.9 3.9 5.4c0 2.5-1.1 5.5-3.9 5.5c-2.9 0-4-3-4-5.5c0-2.5 1.1-5.4 4-5.4zm0 .8c-2.3 0-3 2.4-3 4.6c0 2.2.7 4.7 3 4.7c2.2 0 2.9-2.5 2.9-4.7c0-2.2-.7-4.6-2.9-4.6zm9.5-.8c2.8 0 3.9 2.9 3.9 5.4c0 2.5-1.1 5.5-3.9 5.5c-2.9 0-4-3-4-5.5c0-2.5 1.1-5.4 4-5.4zm0 .8c-2.3 0-3 2.4-3 4.6c0 2.2.7 4.7 3 4.7c2.2 0 2.9-2.5 2.9-4.7c0-2.2-.7-4.6-2.9-4.6zm9.1 5.7h3.8v.7h-3.8v-.7zm12.9-6.5c2.8 0 3.9 2.9 3.9 5.4c0 2.5-1.1 5.5-3.9 5.5c-2.9 0-3.9-3-3.9-5.5c0-2.5 1-5.4 3.9-5.4zm0 .8c-2.3 0-3 2.4-3 4.6c0 2.2.7 4.7 3 4.7c2.2 0 2.9-2.5 2.9-4.7c0-2.2-.7-4.6-2.9-4.6zm9.5-.8c2.8 0 3.9 2.9 3.9 5.4c0 2.5-1.1 5.5-3.9 5.5c-2.9 0-3.9-3-3.9-5.5c0-2.5 1-5.4 3.9-5.4zm0 .8c-2.3 0-3 2.4-3 4.6c0 2.2.7 4.7 3 4.7c2.2 0 2.9-2.5 2.9-4.7c0-2.2-.7-4.6-2.9-4.6zm8.4-1h.7l-3.8 11.2h-.7l3.8-11.2zm5.4.2c2.8 0 3.9 2.9 3.9 5.4c0 2.5-1.1 5.5-3.9 5.5c-2.9 0-3.9-3-3.9-5.5c0-2.5 1-5.4 3.9-5.4zm0 .8c-2.2 0-3 2.4-3 4.6c0 2.2.8 4.7 3 4.7c2.2 0 2.9-2.5 2.9-4.7c0-2.2-.7-4.6-2.9-4.6zm9.5-.8c2.8 0 3.9 2.9 3.9 5.4c0 2.5-1.1 5.5-3.9 5.5c-2.9 0-3.9-3-3.9-5.5c0-2.5 1-5.4 3.9-5.4zm0 .8c-2.2 0-3 2.4-3 4.6c0 2.2.8 4.7 3 4.7c2.2 0 2.9-2.5 2.9-4.7c0-2.2-.7-4.6-2.9-4.6zm8.4-1h.7l-3.7 11.2h-.8l3.8-11.2zm5.4.2c2.8 0 3.9 2.9 3.9 5.4c0 2.5-1.1 5.5-3.9 5.5c-2.9 0-3.9-3-3.9-5.5c0-2.5 1-5.4 3.9-5.4zm0 .8c-2.2 0-3 2.4-3 4.6c0 2.2.8 4.7 3 4.7c2.2 0 2.9-2.5 2.9-4.7c0-2.2-.7-4.6-2.9-4.6zm9.5-.8c2.8 0 3.9 2.9 3.9 5.4c0 2.5-1.1 5.5-3.9 5.5c-2.9 0-3.9-3-3.9-5.5c0-2.5 1-5.4 3.9-5.4zm0 .8c-2.2 0-3 2.4-3 4.6c0 2.2.8 4.7 3 4.7c2.2 0 2.9-2.5 2.9-4.7c0-2.2-.7-4.6-2.9-4.6zm9.5-.8c2.8 0 3.9 2.9 3.9 5.4c0 2.5-1.1 5.5-3.9 5.5c-2.9 0-3.9-3-3.9-5.5c0-2.5 1-5.4 3.9-5.4zm0 .8c-2.2 0-3 2.4-3 4.6c0 2.2.8 4.7 3 4.7c2.2 0 2.9-2.5 2.9-4.7c0-2.2-.7-4.6-2.9-4.6zm9.5-.8c2.8 0 3.9 2.9 3.9 5.4c0 2.5-1.1 5.5-3.9 5.5c-2.9 0-3.9-3-3.9-5.5c0-2.5 1-5.4 3.9-5.4zm0 .8c-2.2 0-3 2.4-3 4.6c0 2.2.8 4.7 3 4.7c2.2 0 2.9-2.5 2.9-4.7c0-2.2-.7-4.6-2.9-4.6z" stroke="none" fill="#242423"/></g><g id="Polygon286506"><path d="m4.8 97.1c2.9 0 4 2.9 4 5.5c0 2.5-1.1 5.4-4 5.4c-2.8 0-3.9-2.9-3.9-5.4c0-2.6 1.1-5.5 3.9-5.5zm0 .8c-2.2 0-2.9 2.5-2.9 4.7c0 2.1.7 4.6 2.9 4.6c2.3 0 3-2.5 3-4.6c0-2.2-.7-4.7-3-4.7zm9.5-.8c2.9 0 3.9 2.9 3.9 5.5c0 2.5-1 5.4-3.9 5.4c-2.8 0-3.9-2.9-3.9-5.4c0-2.6 1.1-5.5 3.9-5.5zm0 .8c-2.2 0-2.9 2.5-2.9 4.7c0 2.1.7 4.6 2.9 4.6c2.2 0 3-2.5 3-4.6c0-2.2-.7-4.7-3-4.7zm8.5-1h.7l-3.8 11.3h-.7l3.8-11.3zm5.4.2c2.8 0 3.9 2.9 3.9 5.5c0 2.5-1.1 5.4-3.9 5.4c-2.9 0-4-2.9-4-5.4c0-2.6 1.1-5.5 4-5.5zm0 .8c-2.3 0-3 2.5-3 4.7c0 2.1.7 4.6 3 4.6c2.2 0 2.9-2.5 2.9-4.6c0-2.2-.7-4.7-2.9-4.7zm9.5-.8c2.8 0 3.9 2.9 3.9 5.5c0 2.5-1.1 5.4-3.9 5.4c-2.9 0-4-2.9-4-5.4c0-2.6 1.1-5.5 4-5.5zm0 .8c-2.3 0-3 2.5-3 4.7c0 2.1.7 4.6 3 4.6c2.2 0 2.9-2.5 2.9-4.6c0-2.2-.7-4.7-2.9-4.7zm8.4-1h.7L43 108.2h-.7l3.8-11.3zm5.4.2c2.8 0 3.9 2.9 3.9 5.5c0 2.5-1.1 5.4-3.9 5.4c-2.9 0-3.9-2.9-3.9-5.4c0-2.6 1-5.5 3.9-5.5zm0 .8c-2.3 0-3 2.5-3 4.7c0 2.1.7 4.6 3 4.6c2.2 0 2.9-2.5 2.9-4.6c0-2.2-.7-4.7-2.9-4.7zm9.5-.8c2.8 0 3.9 2.9 3.9 5.5c0 2.5-1.1 5.4-3.9 5.4c-2.9 0-4-2.9-4-5.4c0-2.6 1.1-5.5 4-5.5zm0 .8c-2.3 0-3 2.5-3 4.7c0 2.1.7 4.6 3 4.6c2.2 0 2.9-2.5 2.9-4.6c0-2.2-.7-4.7-2.9-4.7zm9.5-.8c2.8 0 3.9 2.9 3.9 5.5c0 2.5-1.1 5.4-3.9 5.4c-2.9 0-4-2.9-4-5.4c0-2.6 1.1-5.5 4-5.5zm0 .8c-2.3 0-3 2.5-3 4.7c0 2.1.7 4.6 3 4.6c2.2 0 2.9-2.5 2.9-4.6c0-2.2-.7-4.7-2.9-4.7zm9.5-.8c2.8 0 3.9 2.9 3.9 5.5c0 2.5-1.1 5.4-3.9 5.4c-2.9 0-4-2.9-4-5.4c0-2.6 1.1-5.5 4-5.5zm0 .8c-2.3 0-3 2.5-3 4.7c0 2.1.7 4.6 3 4.6c2.2 0 2.9-2.5 2.9-4.6c0-2.2-.7-4.7-2.9-4.7zm9.1 5.7h3.8v.8h-3.8v-.8zm12.9-6.5c2.8 0 3.9 2.9 3.9 5.5c0 2.5-1.1 5.4-3.9 5.4c-2.9 0-3.9-2.9-3.9-5.4c0-2.6 1-5.5 3.9-5.5zm0 .8c-2.3 0-3 2.5-3 4.7c0 2.1.7 4.6 3 4.6c2.2 0 2.9-2.5 2.9-4.6c0-2.2-.7-4.7-2.9-4.7zm9.5-.8c2.8 0 3.9 2.9 3.9 5.5c0 2.5-1.1 5.4-3.9 5.4c-2.9 0-3.9-2.9-3.9-5.4c0-2.6 1-5.5 3.9-5.5zm0 .8c-2.3 0-3 2.5-3 4.7c0 2.1.7 4.6 3 4.6c2.2 0 2.9-2.5 2.9-4.6c0-2.2-.7-4.7-2.9-4.7zm8.4-1h.7l-3.8 11.3h-.7l3.8-11.3zm5.4.2c2.8 0 3.9 2.9 3.9 5.5c0 2.5-1.1 5.4-3.9 5.4c-2.9 0-3.9-2.9-3.9-5.4c0-2.6 1-5.5 3.9-5.5zm0 .8c-2.2 0-3 2.5-3 4.7c0 2.1.8 4.6 3 4.6c2.2 0 2.9-2.5 2.9-4.6c0-2.2-.7-4.7-2.9-4.7zm9.5-.8c2.8 0 3.9 2.9 3.9 5.5c0 2.5-1.1 5.4-3.9 5.4c-2.9 0-3.9-2.9-3.9-5.4c0-2.6 1-5.5 3.9-5.5zm0 .8c-2.2 0-3 2.5-3 4.7c0 2.1.8 4.6 3 4.6c2.2 0 2.9-2.5 2.9-4.6c0-2.2-.7-4.7-2.9-4.7zm8.4-1h.7l-3.7 11.3h-.8l3.8-11.3zm5.4.2c2.8 0 3.9 2.9 3.9 5.5c0 2.5-1.1 5.4-3.9 5.4c-2.9 0-3.9-2.9-3.9-5.4c0-2.6 1-5.5 3.9-5.5zm0 .8c-2.2 0-3 2.5-3 4.7c0 2.1.8 4.6 3 4.6c2.2 0 2.9-2.5 2.9-4.6c0-2.2-.7-4.7-2.9-4.7zm9.5-.8c2.8 0 3.9 2.9 3.9 5.5c0 2.5-1.1 5.4-3.9 5.4c-2.9 0-3.9-2.9-3.9-5.4c0-2.6 1-5.5 3.9-5.5zm0 .8c-2.2 0-3 2.5-3 4.7c0 2.1.8 4.6 3 4.6c2.2 0 2.9-2.5 2.9-4.6c0-2.2-.7-4.7-2.9-4.7zm9.5-.8c2.8 0 3.9 2.9 3.9 5.5c0 2.5-1.1 5.4-3.9 5.4c-2.9 0-3.9-2.9-3.9-5.4c0-2.6 1-5.5 3.9-5.5zm0 .8c-2.2 0-3 2.5-3 4.7c0 2.1.8 4.6 3 4.6c2.2 0 2.9-2.5 2.9-4.6c0-2.2-.7-4.7-2.9-4.7zm9.5-.8c2.8 0 3.9 2.9 3.9 5.5c0 2.5-1.1 5.4-3.9 5.4c-2.9 0-3.9-2.9-3.9-5.4c0-2.6 1-5.5 3.9-5.5zm0 .8c-2.2 0-3 2.5-3 4.7c0 2.1.8 4.6 3 4.6c2.2 0 2.9-2.5 2.9-4.6c0-2.2-.7-4.7-2.9-4.7z" stroke="none" fill="#242423"/></g><g id="Polygon286505"><path d="m4.8 65.3c2.9 0 4 3 4 5.5c0 2.5-1.1 5.5-4 5.5c-2.8 0-3.9-3-3.9-5.5c0-2.5 1.1-5.5 3.9-5.5zm0 .8c-2.2 0-2.9 2.5-2.9 4.7c0 2.2.7 4.6 2.9 4.6c2.3 0 3-2.4 3-4.6c0-2.2-.7-4.7-3-4.7zm9.5-.8c2.9 0 3.9 3 3.9 5.5c0 2.5-1 5.5-3.9 5.5c-2.8 0-3.9-3-3.9-5.5c0-2.5 1.1-5.5 3.9-5.5zm0 .8c-2.2 0-2.9 2.5-2.9 4.7c0 2.2.7 4.6 2.9 4.6c2.2 0 3-2.4 3-4.6c0-2.2-.7-4.7-3-4.7zm8.5-.9h.7l-3.8 11.2h-.7l3.8-11.2zm5.4.1c2.8 0 3.9 3 3.9 5.5c0 2.5-1.1 5.5-3.9 5.5c-2.9 0-4-3-4-5.5c0-2.5 1.1-5.5 4-5.5zm0 .8c-2.3 0-3 2.5-3 4.7c0 2.2.7 4.6 3 4.6c2.2 0 2.9-2.4 2.9-4.6c0-2.2-.7-4.7-2.9-4.7zm9.5-.8c2.8 0 3.9 3 3.9 5.5c0 2.5-1.1 5.5-3.9 5.5c-2.9 0-4-3-4-5.5c0-2.5 1.1-5.5 4-5.5zm0 .8c-2.3 0-3 2.5-3 4.7c0 2.2.7 4.6 3 4.6c2.2 0 2.9-2.4 2.9-4.6c0-2.2-.7-4.7-2.9-4.7zm8.4-.9h.7L43 76.4h-.7l3.8-11.2zm5.4.1c2.8 0 3.9 3 3.9 5.5c0 2.5-1.1 5.5-3.9 5.5c-2.9 0-3.9-3-3.9-5.5c0-2.5 1-5.5 3.9-5.5zm0 .8c-2.3 0-3 2.5-3 4.7c0 2.2.7 4.6 3 4.6c2.2 0 2.9-2.4 2.9-4.6c0-2.2-.7-4.7-2.9-4.7zm9.5-.8c2.8 0 3.9 3 3.9 5.5c0 2.5-1.1 5.5-3.9 5.5c-2.9 0-4-3-4-5.5c0-2.5 1.1-5.5 4-5.5zm0 .8c-2.3 0-3 2.5-3 4.7c0 2.2.7 4.6 3 4.6c2.2 0 2.9-2.4 2.9-4.6c0-2.2-.7-4.7-2.9-4.7zm9.5-.8c2.8 0 3.9 3 3.9 5.5c0 2.5-1.1 5.5-3.9 5.5c-2.9 0-4-3-4-5.5c0-2.5 1.1-5.5 4-5.5zm0 .8c-2.3 0-3 2.5-3 4.7c0 2.2.7 4.6 3 4.6c2.2 0 2.9-2.4 2.9-4.6c0-2.2-.7-4.7-2.9-4.7zm9.5-.8c2.8 0 3.9 3 3.9 5.5c0 2.5-1.1 5.5-3.9 5.5c-2.9 0-4-3-4-5.5c0-2.5 1.1-5.5 4-5.5zm0 .8c-2.3 0-3 2.5-3 4.7c0 2.2.7 4.6 3 4.6c2.2 0 2.9-2.4 2.9-4.6c0-2.2-.7-4.7-2.9-4.7zm9.1 5.8h3.8v.7h-3.8v-.7zm12.9-6.6c2.8 0 3.9 3 3.9 5.5c0 2.5-1.1 5.5-3.9 5.5c-2.9 0-3.9-3-3.9-5.5c0-2.5 1-5.5 3.9-5.5zm0 .8c-2.3 0-3 2.5-3 4.7c0 2.2.7 4.6 3 4.6c2.2 0 2.9-2.4 2.9-4.6c0-2.2-.7-4.7-2.9-4.7zm9.5-.8c2.8 0 3.9 3 3.9 5.5c0 2.5-1.1 5.5-3.9 5.5c-2.9 0-3.9-3-3.9-5.5c0-2.5 1-5.5 3.9-5.5zm0 .8c-2.3 0-3 2.5-3 4.7c0 2.2.7 4.6 3 4.6c2.2 0 2.9-2.4 2.9-4.6c0-2.2-.7-4.7-2.9-4.7zm8.4-.9h.7l-3.8 11.2h-.7l3.8-11.2zm5.4.1c2.8 0 3.9 3 3.9 5.5c0 2.5-1.1 5.5-3.9 5.5c-2.9 0-3.9-3-3.9-5.5c0-2.5 1-5.5 3.9-5.5zm0 .8c-2.2 0-3 2.5-3 4.7c0 2.2.8 4.6 3 4.6c2.2 0 2.9-2.4 2.9-4.6c0-2.2-.7-4.7-2.9-4.7zm9.5-.8c2.8 0 3.9 3 3.9 5.5c0 2.5-1.1 5.5-3.9 5.5c-2.9 0-3.9-3-3.9-5.5c0-2.5 1-5.5 3.9-5.5zm0 .8c-2.2 0-3 2.5-3 4.7c0 2.2.8 4.6 3 4.6c2.2 0 2.9-2.4 2.9-4.6c0-2.2-.7-4.7-2.9-4.7zm8.4-.9h.7l-3.7 11.2h-.8l3.8-11.2zm5.4.1c2.8 0 3.9 3 3.9 5.5c0 2.5-1.1 5.5-3.9 5.5c-2.9 0-3.9-3-3.9-5.5c0-2.5 1-5.5 3.9-5.5zm0 .8c-2.2 0-3 2.5-3 4.7c0 2.2.8 4.6 3 4.6c2.2 0 2.9-2.4 2.9-4.6c0-2.2-.7-4.7-2.9-4.7zm9.5-.8c2.8 0 3.9 3 3.9 5.5c0 2.5-1.1 5.5-3.9 5.5c-2.9 0-3.9-3-3.9-5.5c0-2.5 1-5.5 3.9-5.5zm0 .8c-2.2 0-3 2.5-3 4.7c0 2.2.8 4.6 3 4.6c2.2 0 2.9-2.4 2.9-4.6c0-2.2-.7-4.7-2.9-4.7zm9.5-.8c2.8 0 3.9 3 3.9 5.5c0 2.5-1.1 5.5-3.9 5.5c-2.9 0-3.9-3-3.9-5.5c0-2.5 1-5.5 3.9-5.5zm0 .8c-2.2 0-3 2.5-3 4.7c0 2.2.8 4.6 3 4.6c2.2 0 2.9-2.4 2.9-4.6c0-2.2-.7-4.7-2.9-4.7zm9.5-.8c2.8 0 3.9 3 3.9 5.5c0 2.5-1.1 5.5-3.9 5.5c-2.9 0-3.9-3-3.9-5.5c0-2.5 1-5.5 3.9-5.5zm0 .8c-2.2 0-3 2.5-3 4.7c0 2.2.8 4.6 3 4.6c2.2 0 2.9-2.4 2.9-4.6c0-2.2-.7-4.7-2.9-4.7z" stroke="none" fill="#242423"/></g><g id="Polygon286504"><path d="m4.9 33.6C7.8 33.6 9 36.4 9 39c0 2.6-1.2 5.5-4.1 5.5c-3 0-4.2-2.9-4.2-5.5c0-2.6 1.2-5.4 4.2-5.4zm0 1.4c-1.9 0-2.6 2-2.6 4c0 2.1.7 4.1 2.6 4.1c1.9 0 2.5-2 2.5-4.1c0-2-.6-4-2.5-4zm9.6-1.4c2.9 0 4.1 2.8 4.1 5.4c0 2.6-1.2 5.5-4.1 5.5c-3 0-4.2-2.9-4.2-5.5c0-2.6 1.2-5.4 4.2-5.4zm0 1.4c-1.9 0-2.6 2-2.6 4c0 2.1.7 4.1 2.6 4.1c1.8 0 2.5-2 2.5-4.1c0-2-.7-4-2.5-4zm8.4-1.6h1.1l-3.7 11.2h-1.1l3.7-11.2zm5.9.2c2.9 0 4.1 2.8 4.1 5.4c0 2.6-1.2 5.5-4.1 5.5c-3 0-4.2-2.9-4.2-5.5c0-2.6 1.2-5.4 4.2-5.4zm0 1.4c-1.9 0-2.6 2-2.6 4c0 2.1.7 4.1 2.6 4.1c1.8 0 2.5-2 2.5-4.1c0-2-.7-4-2.5-4zm9.6-1.4c2.9 0 4.1 2.8 4.1 5.4c0 2.6-1.2 5.5-4.1 5.5c-3 0-4.2-2.9-4.2-5.5c0-2.6 1.2-5.4 4.2-5.4zm0 1.4c-1.9 0-2.6 2-2.6 4c0 2.1.7 4.1 2.6 4.1c1.8 0 2.5-2 2.5-4.1c0-2-.7-4-2.5-4zm8.4-1.6h1.1l-3.7 11.2h-1.1l3.7-11.2zm5.8.2c3 0 4.2 2.8 4.2 5.4c0 2.6-1.2 5.5-4.2 5.5c-2.9 0-4.1-2.9-4.1-5.5c0-2.6 1.2-5.4 4.1-5.4zm0 1.4c-1.8 0-2.5 2-2.5 4c0 2.1.7 4.1 2.5 4.1c1.9 0 2.6-2 2.6-4.1c0-2-.7-4-2.6-4zm9.6-1.4c3 0 4.2 2.8 4.2 5.4c0 2.6-1.2 5.5-4.2 5.5c-2.9 0-4.1-2.9-4.1-5.5c0-2.6 1.2-5.4 4.1-5.4zm0 1.4c-1.8 0-2.5 2-2.5 4c0 2.1.7 4.1 2.5 4.1c1.9 0 2.6-2 2.6-4.1c0-2-.7-4-2.6-4zm9.6-1.4c3 0 4.2 2.8 4.2 5.4c0 2.6-1.2 5.5-4.2 5.5c-2.9 0-4.1-2.9-4.1-5.5c0-2.6 1.2-5.4 4.1-5.4zm0 1.4c-1.8 0-2.5 2-2.5 4c0 2.1.7 4.1 2.5 4.1c1.9 0 2.6-2 2.6-4.1c0-2-.7-4-2.6-4zm9.6-1.4c3 0 4.2 2.8 4.2 5.4c0 2.6-1.2 5.5-4.2 5.5c-2.9 0-4.1-2.9-4.1-5.5c0-2.6 1.2-5.4 4.1-5.4zm0 1.4c-1.8 0-2.5 2-2.5 4c0 2.1.7 4.1 2.5 4.1c1.9 0 2.6-2 2.6-4.1c0-2-.7-4-2.6-4zm9.2 4.8h3.8v1.3h-3.8v-1.3zm12.9-6.2c2.9 0 4.1 2.8 4.1 5.4c0 2.6-1.2 5.5-4.1 5.5c-2.9 0-4.1-2.9-4.1-5.5c0-2.6 1.2-5.4 4.1-5.4zm0 1.4c-1.9 0-2.5 2-2.5 4c0 2.1.6 4.1 2.5 4.1c1.9 0 2.5-2 2.5-4.1c0-2-.6-4-2.5-4zm9.6-1.4c2.9 0 4.1 2.8 4.1 5.4c0 2.6-1.2 5.5-4.1 5.5c-2.9 0-4.1-2.9-4.1-5.5c0-2.6 1.2-5.4 4.1-5.4zm0 1.4c-1.9 0-2.5 2-2.5 4c0 2.1.6 4.1 2.5 4.1c1.9 0 2.5-2 2.5-4.1c0-2-.6-4-2.5-4zm8.5-1.6h1.1l-3.8 11.2h-1.1l3.8-11.2zm5.8.2c2.9 0 4.1 2.8 4.1 5.4c0 2.6-1.2 5.5-4.1 5.5c-2.9 0-4.2-2.9-4.2-5.5c0-2.6 1.3-5.4 4.2-5.4zm0 1.4c-1.9 0-2.5 2-2.5 4c0 2.1.6 4.1 2.5 4.1c1.9 0 2.5-2 2.5-4.1c0-2-.6-4-2.5-4zm9.6-1.4c2.9 0 4.1 2.8 4.1 5.4c0 2.6-1.2 5.5-4.1 5.5c-3 0-4.2-2.9-4.2-5.5c0-2.6 1.2-5.4 4.2-5.4zm0 1.4c-1.9 0-2.5 2-2.5 4c0 2.1.6 4.1 2.5 4.1c1.9 0 2.5-2 2.5-4.1c0-2-.6-4-2.5-4zm8.5-1.6h1.1l-3.8 11.2h-1.1l3.8-11.2zm5.8.2c2.9 0 4.1 2.8 4.1 5.4c0 2.6-1.2 5.5-4.1 5.5c-3 0-4.2-2.9-4.2-5.5c0-2.6 1.2-5.4 4.2-5.4zm0 1.4c-1.9 0-2.5 2-2.5 4c0 2.1.6 4.1 2.5 4.1c1.9 0 2.5-2 2.5-4.1c0-2-.6-4-2.5-4zm9.6-1.4c2.9 0 4.1 2.8 4.1 5.4c0 2.6-1.2 5.5-4.1 5.5c-3 0-4.2-2.9-4.2-5.5c0-2.6 1.2-5.4 4.2-5.4zm0 1.4c-1.9 0-2.6 2-2.6 4c0 2.1.7 4.1 2.6 4.1c1.8 0 2.5-2 2.5-4.1c0-2-.7-4-2.5-4zm9.6-1.4c2.9 0 4.1 2.8 4.1 5.4c0 2.6-1.2 5.5-4.1 5.5c-3 0-4.2-2.9-4.2-5.5c0-2.6 1.2-5.4 4.2-5.4zm0 1.4c-1.9 0-2.6 2-2.6 4c0 2.1.7 4.1 2.6 4.1c1.8 0 2.5-2 2.5-4.1c0-2-.7-4-2.5-4zm9.6-1.4c2.9 0 4.1 2.8 4.1 5.4c0 2.6-1.2 5.5-4.1 5.5c-3 0-4.2-2.9-4.2-5.5c0-2.6 1.2-5.4 4.2-5.4zm0 1.4c-1.9 0-2.6 2-2.6 4c0 2.1.7 4.1 2.6 4.1c1.8 0 2.5-2 2.5-4.1c0-2-.7-4-2.5-4z" stroke="none" fill="#242423"/></g><g id="Polygon286503"><path d="m1.2 2s4.44-.05 4.4 0C7.8 2 9 3.4 9 5.2C9 7 7.8 8.5 5.6 8.5c.04-.04-2.8 0-2.8 0v4H1.2V2zm4.2 1.4c.03-.05-2.6 0-2.6 0v3.7s2.63-.03 2.6 0c1.2 0 2-.8 2-1.9c0-1.1-.8-1.8-2-1.8zm8.2 1.3c2.3 0 3.7 1.8 3.7 4.1c.04.03 0 .4 0 .4c0 0-6.02-.02-6 0c.1 1.3 1 2.4 2.6 2.4c.8 0 1.7-.4 2.3-.9l.6.9c-.7.7-1.8 1.1-3.1 1.1c-2.2 0-3.9-1.6-3.9-4c0-2.2 1.6-4 3.8-4zm-2.3 3.4h4.6c0-1-.7-2.2-2.3-2.2c-1.5 0-2.3 1.2-2.3 2.2zM19 4.9h1.4v1.2c.6-.8 1.5-1.4 2.5-1.4v1.4h-.5c-.7 0-1.7.5-2 1.1v5.3H19V4.9zm5-2.2c0-.5.4-.9.9-.9c.5 0 .9.4.9.9c0 .5-.4.9-.9.9c-.5 0-.9-.4-.9-.9zm.2 2.2h1.4v7.6h-1.4V4.9zm3.1 3.8c0-2.2 1.4-4 3.8-4c2.4 0 3.9 1.8 3.9 4c0 2.2-1.5 4-3.9 4c-2.4 0-3.8-1.8-3.8-4zm6.2 0c0-1.4-.8-2.7-2.4-2.7c-1.5 0-2.4 1.3-2.4 2.7c0 1.5.9 2.8 2.4 2.8c1.6 0 2.4-1.3 2.4-2.8zm8.6 2.8c-.6.7-1.5 1.2-2.5 1.2c-2 0-3.4-1.5-3.4-4c0-2.4 1.4-4 3.4-4c1 0 1.9.5 2.5 1.3c.02-.01 0-4 0-4h1.4v10.5h-1.4s.02-1.05 0-1zm0-4.4C41.7 6.5 40.9 6 40 6c-1.4 0-2.3 1.1-2.3 2.7c0 1.6.9 2.8 2.3 2.8c.9 0 1.7-.5 2.1-1.1V7.1z" stroke="none" fill="#88898a"/></g></svg>