<?xml version="1.0" standalone="no"?><!DOCTYPE svg PUBLIC "-//W3C//DTD SVG 1.1//EN" "http://www.w3.org/Graphics/SVG/1.1/DTD/svg11.dtd"><svg xmlns="http://www.w3.org/2000/svg" version="1.1" width="388.4px" height="67.5px" viewBox="0 -6 388.4 67.5" style="top:-6px"><desc>SUBJECT PROPERTY LOCATION OVERvIEW</desc><defs/><g id="Polygon305016"><path d="m9.7 46.4H1.4V26.7h3.3v16.8h5v2.9zm6.4-20h.2c3 0 5 1.2 5 4.2v11.9c0 3-2 4.2-5 4.2h-.2c-3 0-5-1.2-5-4.2V30.6c0-3 2-4.2 5-4.2zm.1 17.4c1.1 0 1.8-.4 1.8-1.8V31.1c0-1.4-.7-1.8-1.8-1.8c-1.1 0-1.8.4-1.8 1.8V42c0 1.4.7 1.8 1.8 1.8zm17.4-1.3c0 3-2 4.2-5 4.2h-.1c-2.9 0-4.9-1.1-4.9-4.2V30.6c0-2.9 2-4.2 4.9-4.2h.1c3 0 5 1.3 5 4.2c-.03.02 0 3.6 0 3.6h-3.3v-3.1c0-1.4-.7-1.8-1.7-1.8c-1.1 0-1.7.4-1.7 1.8V42c0 1.4.6 1.8 1.7 1.8c1 0 1.7-.4 1.7-1.8v-3.6h3.3s-.03 4.08 0 4.1zm8.5-.5h-3.6l-.8 4.4h-3.1l3.7-19.7h4.1l3.7 19.7h-3.3l-.7-4.4zm-.5-2.7l-1.3-8.8l-1.4 8.8h2.7zM55 29.5h-3.3v16.9h-3.3V29.5h-3.3v-2.8h9.9v2.8zm1.5 16.9V26.7h3.3v19.7h-3.3zm10.8-20h.2c3 0 5 1.2 5 4.2v11.9c0 3-2 4.2-5 4.2h-.2c-3 0-5-1.2-5-4.2V30.6c0-3 2-4.2 5-4.2zm.1 17.4c1.1 0 1.8-.4 1.8-1.8V31.1c0-1.4-.7-1.8-1.8-1.8c-1.1 0-1.8.4-1.8 1.8V42c0 1.4.7 1.8 1.8 1.8zm7.5 2.6V26.7h3.3l4.1 12.2V26.7h3v19.7h-3.1l-4.3-12.8v12.8h-3zm22.1-20h.2c3 0 5 1.2 5 4.2v11.9c0 3-2 4.2-5 4.2h-.2c-3 0-5-1.2-5-4.2V30.6c0-3 2-4.2 5-4.2zm.1 17.4c1 0 1.8-.4 1.8-1.8V31.1c0-1.4-.8-1.8-1.8-1.8c-1.1 0-1.8.4-1.8 1.8V42c0 1.4.7 1.8 1.8 1.8zm13.5 2.6H107l-3.8-19.7h3.4l2.2 14.6l2.3-14.6h3.2l-3.7 19.7zm5.1 0V26.7h8.6v2.8h-5.4v5.5h4.5v2.8h-4.5v5.7h5.5v2.9h-8.7zm18.2 0l-2.6-7.8h-1.6v7.8h-3.3V26.7s5.15-.04 5.1 0c3 0 5 1.2 5 4.1v3.6c0 1.9-.8 3.1-2.1 3.6c-.03.04 2.8 8.4 2.8 8.4h-3.3zm-4.2-10.7s1.73.03 1.7 0c1.1 0 1.8-.4 1.8-1.8v-2.5c0-1.5-.7-1.9-1.8-1.9c.03.04-1.7 0-1.7 0v6.2zm15.2 10.7h-3.6l-3.7-19.7h3.3l2.3 14.6l2.3-14.6h3.2l-3.8 19.7zm5.2 0V26.7h3.3v19.7h-3.3zm6 0V26.7h8.6v2.8h-5.4v5.5h4.5v2.8h-4.5v5.7h5.5v2.9h-8.7zm24.1 0h-3.1l-2.6-13.5l-2.5 13.5h-3.2l-3.1-19.7h3.2l1.7 14.1l2.5-14.1h2.9l2.6 14.1l1.6-14.1h3.1l-3.1 19.7z" stroke="none" fill="#282828"/></g><g id="Polygon305015"><path d="m1.4 9.8c.7.8 1.9 1.5 3.4 1.5c1.7 0 2.3-.8 2.3-1.6c0-1.1-1.2-1.4-2.6-1.8C2.8 7.5.9 7 .9 4.8c0-1.7 1.5-3 3.7-3c1.6 0 2.9.5 3.9 1.5l-1 1.1c-.8-.8-1.9-1.2-3-1.2c-1.2 0-2 .6-2 1.5c0 1 1.1 1.3 2.5 1.6c1.7.4 3.7 1 3.7 3.2c0 1.7-1.1 3.2-4 3.2c-1.9 0-3.3-.6-4.2-1.6l.9-1.3zm9-7.8h1.6v6.4c0 1.8 1 2.9 2.8 2.9c1.9 0 2.9-1.1 2.9-2.9V2h1.6v6.4c0 2.6-1.5 4.3-4.5 4.3c-2.9 0-4.4-1.7-4.4-4.3V2zm11.1 0s4.98-.05 5 0c1.9 0 3 1.1 3 2.7c0 1.3-.9 2.2-1.9 2.4c1.1.2 2.1 1.3 2.1 2.6c0 1.7-1.1 2.8-3.1 2.8c0 .05-5.1 0-5.1 0V2zm4.7 4.4c1 0 1.6-.6 1.6-1.5c0-.9-.6-1.5-1.6-1.5c-.03-.05-3.1 0-3.1 0v3s3.07.05 3.1 0zm.1 4.8c1.1 0 1.7-.7 1.7-1.7c0-.9-.6-1.7-1.7-1.7c-.05.04-3.2 0-3.2 0v3.4s3.15-.05 3.2 0zm4.9-.8c.5.5 1.1.9 1.9.9c1.3 0 2-.8 2-2c.02-.04 0-7.3 0-7.3h1.6v7.3c0 2.3-1.5 3.4-3.5 3.4c-1.1 0-2-.3-2.7-1.1l.7-1.2zM38.9 2h7.1v1.4h-5.5v3h5.4v1.4h-5.4v3.4h5.5v1.3h-7.1V2zm8.5 5.3c0-3.3 2.4-5.5 5.4-5.5c2.1 0 3.4 1 4.2 2.2l-1.3.7c-.6-.9-1.6-1.5-2.9-1.5c-2.1 0-3.8 1.7-3.8 4.1c0 2.3 1.7 4 3.8 4c1.3 0 2.3-.6 2.9-1.5l1.3.7c-.8 1.2-2.1 2.2-4.2 2.2c-3 0-5.4-2.2-5.4-5.4zm13.7-3.9h-3.3V2h8.1v1.4h-3.2v9.1h-1.6V3.4zM71.4 2s4.42-.05 4.4 0c2.2 0 3.4 1.4 3.4 3.2c0 1.8-1.2 3.3-3.4 3.3c.02-.04-2.9 0-2.9 0v4h-1.5V2zm4.2 1.4c.02-.05-2.7 0-2.7 0v3.7s2.72-.03 2.7 0c1.2 0 2-.8 2-1.9c0-1.1-.8-1.8-2-1.8zm8.7 5.1h-2v4h-1.6V2s4.44-.05 4.4 0c2.1 0 3.4 1.3 3.4 3.2c0 1.9-1.2 2.9-2.6 3.1l2.7 4.2h-1.8l-2.5-4zm.6-5.1c.04-.05-2.6 0-2.6 0v3.7s2.64-.03 2.6 0c1.2 0 2-.8 2-1.9c0-1.1-.8-1.8-2-1.8zm10.3-1.6c3.2 0 5.4 2.3 5.4 5.5c0 3.1-2.2 5.4-5.4 5.4c-3.1 0-5.3-2.3-5.3-5.4c0-3.2 2.2-5.5 5.3-5.5zm0 1.4c-2.2 0-3.7 1.7-3.7 4.1c0 2.3 1.5 4 3.7 4c2.3 0 3.7-1.7 3.7-4c0-2.4-1.4-4.1-3.7-4.1zm7.1-1.2s4.49-.05 4.5 0c2.2 0 3.4 1.4 3.4 3.2c0 1.8-1.2 3.3-3.4 3.3c-.01-.04-2.9 0-2.9 0v4h-1.6V2zm4.3 1.4c-.01-.05-2.7 0-2.7 0v3.7s2.69-.03 2.7 0c1.1 0 1.9-.8 1.9-1.9c0-1.1-.8-1.8-1.9-1.8zm5.1-1.4h7.1v1.4h-5.6v3h5.5v1.4h-5.5v3.4h5.6v1.3h-7.1V2zm12.5 6.5h-2v4h-1.6V2s4.46-.05 4.5 0c2 0 3.4 1.3 3.4 3.2c0 1.9-1.3 2.9-2.7 3.1c.02.01 2.7 4.2 2.7 4.2h-1.8l-2.5-4zm.6-5.1c.05-.05-2.6 0-2.6 0v3.7s2.65-.03 2.6 0c1.2 0 2-.8 2-1.9c0-1.1-.8-1.8-2-1.8zm7.9 0h-3.3V2h8.1v1.4h-3.2v9.1h-1.6V3.4zm9.4 4.7L137.9 2h1.9l3.1 4.7L146 2h1.8l-4.1 6.1v4.4h-1.6V8.1z" stroke="none" fill="#3797ef"/></g></svg>