<?xml version="1.0" standalone="no"?><!DOCTYPE svg PUBLIC "-//W3C//DTD SVG 1.1//EN" "http://www.w3.org/Graphics/SVG/1.1/DTD/svg11.dtd"><svg xmlns="http://www.w3.org/2000/svg" version="1.1" width="215px" height="28.3px" viewBox="0 -6 215 28.3" style="top:-6px"><desc>Credit Rating</desc><defs/><g id="Polygon299381"><path d="m.7 7.3C.7 4 3.1 1.8 6.2 1.8c2 0 3.3 1 4.2 2.2L9 4.7c-.5-.9-1.6-1.5-2.8-1.5c-2.2 0-3.8 1.7-3.8 4.1c0 2.3 1.6 4 3.8 4c1.2 0 2.3-.6 2.8-1.5l1.4.7c-.9 1.2-2.2 2.2-4.2 2.2c-3.1 0-5.5-2.2-5.5-5.4zm11.1-2.4h1.4v1.1c.6-.7 1.5-1.3 2.5-1.3v1.4h-.5c-.7 0-1.7.5-2 1.1v5.3h-1.4V4.9zm8.5-.2c2.3 0 3.8 1.8 3.8 4.1c-.03.03 0 .4 0 .4c0 0-6.09-.02-6.1 0c.1 1.3 1.1 2.4 2.6 2.4c.8 0 1.7-.4 2.3-.9l.6.9c-.7.7-1.8 1.1-3 1.1c-2.3 0-4-1.6-4-4c0-2.2 1.6-4 3.8-4zM18 8.1h4.7c-.1-1-.7-2.2-2.4-2.2c-1.5 0-2.2 1.2-2.3 2.2zm13.2 3.4c-.6.7-1.5 1.2-2.5 1.2c-2 0-3.5-1.5-3.5-4c0-2.4 1.5-4 3.5-4c.9 0 1.9.5 2.5 1.3c-.03-.01 0-4 0-4h1.4v10.5h-1.4s-.03-1.05 0-1zm0-4.4C30.8 6.5 29.9 6 29 6c-1.4 0-2.3 1.1-2.3 2.7c0 1.6.9 2.8 2.3 2.8c.9 0 1.8-.5 2.2-1.1V7.1zm3.3-4.4c0-.5.4-.9.9-.9c.5 0 .9.4.9.9c0 .5-.4.9-.9.9c-.5 0-.9-.4-.9-.9zm.2 2.2h1.5v7.6h-1.5V4.9zm3.9 5.9c-.04.05 0-4.7 0-4.7h-1.3V4.9h1.3V2.8h1.4v2.1h1.5v1.2H40s-.02 4.43 0 4.4c0 .6.2 1 .7 1c.4 0 .7-.2.8-.3l.4 1c-.3.3-.8.5-1.5.5c-1.2 0-1.8-.6-1.8-1.9zm11.9-2.3h-2v4h-1.6V2s4.5-.05 4.5 0c2 0 3.4 1.3 3.4 3.2c0 1.9-1.3 2.9-2.6 3.1c-.03 0 2.7 4.2 2.7 4.2H53l-2.5-4zm.7-5.2c0 .05-2.7 0-2.7 0v3.8s2.7-.03 2.7 0c1.1 0 2-.8 2-1.9c0-1.1-.9-1.9-2-1.9zm9.8 8.4c-.6.7-1.5 1-2.5 1c-1.3 0-2.7-.8-2.7-2.5c0-1.8 1.4-2.5 2.7-2.5c1 0 1.9.3 2.5 1V7.4c0-.9-.8-1.5-1.9-1.5c-.9 0-1.6.3-2.3 1l-.6-1c.8-.8 1.9-1.2 3.1-1.2c1.7 0 3.1.7 3.1 2.7v5.1H61s-.02-.8 0-.8zm0-2.1c-.4-.6-1.2-.9-2-.9c-1 0-1.8.6-1.8 1.5c0 .9.8 1.5 1.8 1.5c.8 0 1.6-.3 2-.8V9.6zm3.8 1.2c.02.05 0-4.7 0-4.7h-1.2V4.9h1.2V2.8h1.4v2.1h1.6v1.2h-1.6s.05 4.43 0 4.4c0 .6.3 1 .8 1c.3 0 .6-.2.8-.3l.3 1c-.3.3-.7.5-1.5.5c-1.2 0-1.8-.6-1.8-1.9zM69 2.7c0-.5.4-.9.9-.9c.5 0 1 .4 1 .9c0 .5-.5.9-1 .9c-.5 0-.9-.4-.9-.9zm.2 2.2h1.5v7.6h-1.5V4.9zM78 7.6c0-1.2-.7-1.6-1.7-1.6c-.9 0-1.7.5-2.1 1.1v5.4h-1.4V4.9h1.4s.01 1.05 0 1.1c.5-.7 1.5-1.3 2.7-1.3c1.6 0 2.5.8 2.5 2.5c-.02-.04 0 5.3 0 5.3H78s-.05-4.86 0-4.9zm4.1 5.9c.6.7 1.4 1 2.5 1c1.2 0 2.4-.6 2.4-2.2v-1c-.6.8-1.5 1.3-2.6 1.3c-2 0-3.4-1.5-3.4-4c0-2.4 1.4-3.9 3.4-3.9c1 0 1.9.5 2.6 1.3c-.04-.01 0-1.1 0-1.1h1.4v7.3c0 2.7-1.9 3.5-3.8 3.5c-1.3 0-2.2-.3-3.2-1.2l.7-1zM87 7.1c-.4-.6-1.3-1.1-2.2-1.1c-1.4 0-2.3 1.1-2.3 2.6c0 1.6.9 2.7 2.3 2.7c.9 0 1.8-.5 2.2-1.1V7.1z" stroke="none" fill="#3797ef"/></g></svg>