<?xml version="1.0" standalone="no"?>
<!DOCTYPE svg PUBLIC "-//W3C//DTD SVG 1.1//EN" "http://www.w3.org/Graphics/SVG/1.1/DTD/svg11.dtd">
<svg xmlns="http://www.w3.org/2000/svg" version="1.1" width="89.3px" height="16.9px" viewBox="0 -4 89.3 16.9" style="top:-4px">
  <desc>Number of Locations</desc>
  <defs/>
  <g id="Polygon274711">
    <path d="M 1.6 2.5 L 1.6 7.1 L 0.7 7.1 L 0.7 1.1 L 1.6 1.1 L 4.9 5.6 L 4.9 1.1 L 5.8 1.1 L 5.8 7.1 L 4.9 7.1 L 1.6 2.5 Z M 10 6.5 C 9.7 6.9 9.1 7.2 8.5 7.2 C 7.5 7.2 7.1 6.8 7.1 5.8 C 7.07 5.83 7.1 2.8 7.1 2.8 L 7.9 2.8 C 7.9 2.8 7.88 5.56 7.9 5.6 C 7.9 6.3 8.2 6.5 8.8 6.5 C 9.3 6.5 9.8 6.2 10 5.9 C 10.01 5.89 10 2.8 10 2.8 L 10.8 2.8 L 10.8 7.1 L 10 7.1 C 10 7.1 10.01 6.52 10 6.5 Z M 17.4 4.2 C 17.4 3.7 17.2 3.4 16.6 3.4 C 16.2 3.4 15.8 3.7 15.6 4 C 15.55 4 15.6 7.1 15.6 7.1 L 14.7 7.1 C 14.7 7.1 14.74 4.21 14.7 4.2 C 14.7 3.7 14.5 3.4 14 3.4 C 13.6 3.4 13.1 3.7 12.9 4 C 12.91 4 12.9 7.1 12.9 7.1 L 12.1 7.1 L 12.1 2.8 L 12.9 2.8 C 12.9 2.8 12.91 3.37 12.9 3.4 C 13.1 3.1 13.7 2.7 14.3 2.7 C 15 2.7 15.4 3 15.5 3.5 C 15.7 3.1 16.3 2.7 17 2.7 C 17.8 2.7 18.2 3.1 18.2 4 C 18.2 3.97 18.2 7.1 18.2 7.1 L 17.4 7.1 C 17.4 7.1 17.39 4.21 17.4 4.2 Z M 19.5 1.1 L 20.3 1.1 C 20.3 1.1 20.29 3.39 20.3 3.4 C 20.6 2.9 21.1 2.7 21.7 2.7 C 22.9 2.7 23.7 3.5 23.7 4.9 C 23.7 6.4 22.8 7.2 21.7 7.2 C 21.1 7.2 20.6 6.9 20.3 6.5 C 20.29 6.49 20.3 7.1 20.3 7.1 L 19.5 7.1 L 19.5 1.1 Z M 21.5 6.5 C 22.3 6.5 22.8 5.9 22.8 4.9 C 22.8 4 22.3 3.4 21.5 3.4 C 21 3.4 20.5 3.7 20.3 4 C 20.3 4 20.3 5.9 20.3 5.9 C 20.5 6.2 21 6.5 21.5 6.5 Z M 26.6 2.7 C 27.9 2.7 28.7 3.7 28.7 5 C 28.71 5 28.7 5.2 28.7 5.2 C 28.7 5.2 25.27 5.2 25.3 5.2 C 25.3 5.9 25.9 6.6 26.7 6.6 C 27.2 6.6 27.7 6.4 28 6 C 28 6 28.4 6.6 28.4 6.6 C 28 7 27.4 7.2 26.7 7.2 C 25.4 7.2 24.4 6.3 24.4 4.9 C 24.4 3.7 25.3 2.7 26.6 2.7 Z M 25.3 4.6 C 25.3 4.6 27.9 4.6 27.9 4.6 C 27.9 4 27.5 3.3 26.6 3.3 C 25.7 3.3 25.3 4 25.3 4.6 Z M 29.7 2.8 L 30.5 2.8 C 30.5 2.8 30.54 3.43 30.5 3.4 C 30.9 3 31.4 2.7 32 2.7 C 32 2.7 32 3.5 32 3.5 C 31.9 3.5 31.8 3.5 31.7 3.5 C 31.3 3.5 30.7 3.8 30.5 4.1 C 30.54 4.09 30.5 7.1 30.5 7.1 L 29.7 7.1 L 29.7 2.8 Z M 34.8 4.9 C 34.8 3.7 35.7 2.7 37 2.7 C 38.4 2.7 39.2 3.7 39.2 4.9 C 39.2 6.2 38.4 7.2 37 7.2 C 35.7 7.2 34.8 6.2 34.8 4.9 Z M 38.4 4.9 C 38.4 4.1 37.9 3.4 37 3.4 C 36.2 3.4 35.7 4.1 35.7 4.9 C 35.7 5.8 36.2 6.5 37 6.5 C 37.9 6.5 38.4 5.8 38.4 4.9 Z M 40.4 3.5 L 39.7 3.5 L 39.7 2.8 L 40.4 2.8 C 40.4 2.8 40.44 2.48 40.4 2.5 C 40.4 1.5 41 1 41.8 1 C 42 1 42.3 1.1 42.5 1.2 C 42.5 1.2 42.3 1.8 42.3 1.8 C 42.2 1.7 42 1.7 41.9 1.7 C 41.5 1.7 41.2 2 41.2 2.5 C 41.25 2.48 41.2 2.8 41.2 2.8 L 42.1 2.8 L 42.1 3.5 L 41.2 3.5 L 41.2 7.1 L 40.4 7.1 L 40.4 3.5 Z M 45.2 1.1 L 46.1 1.1 L 46.1 6.3 L 48.9 6.3 L 48.9 7.1 L 45.2 7.1 L 45.2 1.1 Z M 49.4 4.9 C 49.4 3.7 50.3 2.7 51.6 2.7 C 53 2.7 53.8 3.7 53.8 4.9 C 53.8 6.2 53 7.2 51.6 7.2 C 50.3 7.2 49.4 6.2 49.4 4.9 Z M 53 4.9 C 53 4.1 52.5 3.4 51.6 3.4 C 50.7 3.4 50.3 4.1 50.3 4.9 C 50.3 5.8 50.7 6.5 51.6 6.5 C 52.5 6.5 53 5.8 53 4.9 Z M 56.8 2.7 C 57.6 2.7 58.1 3 58.4 3.4 C 58.4 3.4 57.9 3.9 57.9 3.9 C 57.6 3.5 57.2 3.4 56.8 3.4 C 56 3.4 55.4 4 55.4 4.9 C 55.4 5.8 56 6.5 56.8 6.5 C 57.2 6.5 57.6 6.3 57.9 6 C 57.9 6 58.4 6.5 58.4 6.5 C 58.1 6.9 57.6 7.2 56.8 7.2 C 55.5 7.2 54.6 6.2 54.6 4.9 C 54.6 3.6 55.5 2.7 56.8 2.7 Z M 62 6.6 C 61.6 7 61.1 7.2 60.6 7.2 C 59.8 7.2 59 6.7 59 5.8 C 59 4.8 59.8 4.4 60.6 4.4 C 61.1 4.4 61.6 4.5 62 4.9 C 62 4.9 62 4.2 62 4.2 C 62 3.7 61.5 3.3 60.9 3.3 C 60.4 3.3 60 3.5 59.6 3.9 C 59.6 3.9 59.3 3.4 59.3 3.4 C 59.7 2.9 60.3 2.7 61 2.7 C 62 2.7 62.8 3.1 62.8 4.2 C 62.78 4.18 62.8 7.1 62.8 7.1 L 62 7.1 C 62 7.1 61.97 6.63 62 6.6 Z M 62 5.4 C 61.7 5.1 61.3 4.9 60.9 4.9 C 60.3 4.9 59.9 5.3 59.9 5.8 C 59.9 6.3 60.3 6.7 60.9 6.7 C 61.3 6.7 61.7 6.5 62 6.2 C 62 6.2 62 5.4 62 5.4 Z M 64.2 6.1 C 64.24 6.15 64.2 3.5 64.2 3.5 L 63.5 3.5 L 63.5 2.8 L 64.2 2.8 L 64.2 1.6 L 65.1 1.6 L 65.1 2.8 L 65.9 2.8 L 65.9 3.5 L 65.1 3.5 C 65.1 3.5 65.05 5.97 65.1 6 C 65.1 6.3 65.2 6.5 65.5 6.5 C 65.7 6.5 65.8 6.4 65.9 6.3 C 65.9 6.3 66.1 6.9 66.1 6.9 C 66 7.1 65.7 7.2 65.3 7.2 C 64.6 7.2 64.2 6.8 64.2 6.1 Z M 66.7 1.5 C 66.7 1.2 67 1 67.2 1 C 67.5 1 67.8 1.2 67.8 1.5 C 67.8 1.8 67.5 2 67.2 2 C 67 2 66.7 1.8 66.7 1.5 Z M 66.8 2.8 L 67.6 2.8 L 67.6 7.1 L 66.8 7.1 L 66.8 2.8 Z M 68.7 4.9 C 68.7 3.7 69.5 2.7 70.9 2.7 C 72.2 2.7 73.1 3.7 73.1 4.9 C 73.1 6.2 72.2 7.2 70.9 7.2 C 69.5 7.2 68.7 6.2 68.7 4.9 Z M 72.2 4.9 C 72.2 4.1 71.7 3.4 70.9 3.4 C 70 3.4 69.5 4.1 69.5 4.9 C 69.5 5.8 70 6.5 70.9 6.5 C 71.7 6.5 72.2 5.8 72.2 4.9 Z M 77 4.3 C 77 3.6 76.6 3.4 76.1 3.4 C 75.6 3.4 75.1 3.7 74.9 4 C 74.89 4 74.9 7.1 74.9 7.1 L 74.1 7.1 L 74.1 2.8 L 74.9 2.8 C 74.9 2.8 74.89 3.37 74.9 3.4 C 75.2 3 75.8 2.7 76.4 2.7 C 77.3 2.7 77.8 3.1 77.8 4.1 C 77.82 4.06 77.8 7.1 77.8 7.1 L 77 7.1 C 77 7.1 77.01 4.33 77 4.3 Z M 79.1 5.9 C 79.4 6.3 80 6.6 80.6 6.6 C 81.2 6.6 81.5 6.3 81.5 5.9 C 81.5 5.5 81 5.4 80.5 5.2 C 79.7 5.1 78.9 4.9 78.9 3.9 C 78.9 3.2 79.5 2.7 80.5 2.7 C 81.3 2.7 81.8 2.9 82.2 3.3 C 82.2 3.3 81.8 3.8 81.8 3.8 C 81.6 3.5 81.1 3.3 80.5 3.3 C 80 3.3 79.6 3.5 79.6 3.9 C 79.6 4.3 80.1 4.4 80.6 4.5 C 81.4 4.7 82.3 4.9 82.3 5.9 C 82.3 6.6 81.7 7.2 80.5 7.2 C 79.8 7.2 79.2 7 78.7 6.5 C 78.7 6.5 79.1 5.9 79.1 5.9 Z " stroke="none" fill="#000"/>
  </g>
</svg>