<?xml version="1.0" standalone="no"?><!DOCTYPE svg PUBLIC "-//W3C//DTD SVG 1.1//EN" "http://www.w3.org/Graphics/SVG/1.1/DTD/svg11.dtd"><svg xmlns="http://www.w3.org/2000/svg" version="1.1" width="103px" height="27.9px" viewBox="0 -6 103 27.9" style="top:-6px"><desc>Agent 1</desc><defs/><g id="Polygon282756"><path d="m1.2 2s4.44-.05 4.4 0C7.8 2 9 3.4 9 5.2C9 7 7.8 8.5 5.6 8.5c.04-.04-2.8 0-2.8 0v4H1.2V2zm4.2 1.4c.03-.05-2.6 0-2.6 0v3.7s2.63-.03 2.6 0c1.2 0 2-.8 2-1.9c0-1.1-.8-1.8-2-1.8zm10.2 8.1c-.5.6-1.5 1.2-2.7 1.2c-1.6 0-2.4-.8-2.4-2.4c-.03-.01 0-5.4 0-5.4h1.4v4.9c0 1.3.6 1.7 1.6 1.7c.9 0 1.7-.5 2.1-1.1c.04-.01 0-5.5 0-5.5h1.5v7.6h-1.5s.04-1 0-1zm3.6-6.6h1.4v1.2c.6-.8 1.5-1.4 2.5-1.4v1.4h-.5c-.7 0-1.7.5-2 1.1v5.3h-1.4V4.9zm8.6-.2c1.5 0 2.3.6 2.9 1.3l-1 .9c-.4-.6-1-.9-1.8-.9c-1.5 0-2.5 1.1-2.5 2.7c0 1.6 1 2.8 2.5 2.8c.8 0 1.4-.3 1.8-1l1 .9c-.6.7-1.4 1.3-2.9 1.3c-2.3 0-3.9-1.7-3.9-4c0-2.3 1.6-4 3.9-4zm9.5 2.9c0-1.3-.7-1.6-1.6-1.6c-.9 0-1.7.5-2.2 1.1c.04-.03 0 5.4 0 5.4h-1.4V2h1.4s.04 3.95 0 4c.6-.7 1.6-1.3 2.8-1.3c1.6 0 2.4.8 2.4 2.4c.02.03 0 5.4 0 5.4h-1.4V7.6zm8.3 4.1c-.6.7-1.5 1-2.5 1c-1.3 0-2.7-.8-2.7-2.5c0-1.8 1.4-2.5 2.7-2.5c1 0 1.9.3 2.5 1V7.4c0-.9-.8-1.5-1.9-1.5c-.9 0-1.6.3-2.3 1l-.6-1c.8-.8 1.9-1.2 3.1-1.2c1.7 0 3.1.7 3.1 2.7v5.1h-1.4s-.02-.79 0-.8zm0-2.1c-.4-.6-1.2-.9-2-.9c-1 0-1.8.6-1.8 1.5c0 .9.8 1.5 1.8 1.5c.8 0 1.6-.3 2-.8V9.6zm3.6.9c.5.6 1.5 1.1 2.5 1.1c1.1 0 1.7-.4 1.7-1.1c0-.8-.9-1-1.9-1.2c-1.3-.3-2.8-.7-2.8-2.3c0-1.3 1-2.3 2.9-2.3c1.3 0 2.3.5 2.9 1.1l-.6 1c-.4-.6-1.3-1-2.3-1c-.9 0-1.5.4-1.5 1c0 .7.8.9 1.7 1.2c1.4.3 3 .6 3 2.4c0 1.3-1.1 2.3-3.1 2.3c-1.3 0-2.4-.4-3.2-1.2l.7-1zm10.6-5.8c2.3 0 3.7 1.8 3.7 4.1v.4s-6.06-.02-6.1 0c.2 1.3 1.1 2.4 2.7 2.4c.8 0 1.7-.4 2.2-.9l.7.9c-.8.7-1.9 1.1-3.1 1.1c-2.3 0-4-1.6-4-4c0-2.2 1.6-4 3.9-4zm-2.4 3.4h4.7c0-1-.7-2.2-2.3-2.2c-1.6 0-2.3 1.2-2.4 2.2zM69.1 2s4.48-.05 4.5 0C75.8 2 77 3.4 77 5.2c0 1.8-1.3 3.3-3.4 3.3c-.02-.04-2.9 0-2.9 0v4h-1.6V2zm4.3 1.4c-.02-.05-2.7 0-2.7 0v3.7s2.68-.03 2.7 0c1.1 0 1.9-.8 1.9-1.9c0-1.1-.8-1.8-1.9-1.8zm5 1.5h1.4s.04 1.15 0 1.2c.6-.8 1.5-1.4 2.5-1.4v1.4h-.4c-.8 0-1.7.5-2.1 1.1c.04.01 0 5.3 0 5.3h-1.4V4.9zm5-2.2c0-.5.4-.9.9-.9c.5 0 .9.4.9.9c0 .5-.4.9-.9.9c-.5 0-.9-.4-.9-.9zm.2 2.2h1.4v7.6h-1.4V4.9zm7-.2c1.4 0 2.3.6 2.9 1.3l-1 .9c-.4-.6-1.1-.9-1.8-.9c-1.6 0-2.5 1.1-2.5 2.7c0 1.6.9 2.8 2.5 2.8c.7 0 1.4-.3 1.8-1l1 .9c-.6.7-1.5 1.3-2.9 1.3c-2.3 0-3.9-1.7-3.9-4c0-2.3 1.6-4 3.9-4zm7.6 0c2.4 0 3.8 1.8 3.8 4.1c-.02.03 0 .4 0 .4c0 0-6.09-.02-6.1 0c.1 1.3 1.1 2.4 2.6 2.4c.8 0 1.7-.4 2.3-.9l.7.9c-.8.7-1.9 1.1-3.1 1.1c-2.3 0-4-1.6-4-4c0-2.2 1.6-4 3.8-4zm-2.3 3.4h4.7c0-1-.7-2.2-2.4-2.2c-1.5 0-2.2 1.2-2.3 2.2z" stroke="none" fill="#3797ef"/></g></svg>