<?xml version="1.0" standalone="no"?><!DOCTYPE svg PUBLIC "-//W3C//DTD SVG 1.1//EN" "http://www.w3.org/Graphics/SVG/1.1/DTD/svg11.dtd"><svg xmlns="http://www.w3.org/2000/svg" xmlns:xlink="http://www.w3.org/1999/xlink" version="1.1" width="237px" height="44.9px" viewBox="0 -14 237 44.9" style="top:-14px"><desc/><defs/><g id="Polygon52238"><path d="m55.9 6.9l7-3.6v.8l-6.2 3.1l6.2 3.1v.8l-7-3.6v-.6zm7.9 0l6.9-3.6v.8l-6.1 3.1l6.1 3.1v.8l-6.9-3.6v-.6zm8.3.4c0-3.3 2.4-5.5 5.4-5.5c1.7 0 2.9.7 3.9 1.9l-.8.4c-.7-.9-1.8-1.5-3.1-1.5c-2.5 0-4.4 1.9-4.4 4.7c0 2.7 1.9 4.6 4.4 4.6c1.3 0 2.4-.6 3.1-1.5l.8.4c-1 1.2-2.2 1.9-3.9 1.9c-3 0-5.4-2.2-5.4-5.4zm10.6 1.4c0-2.2 1.5-4 3.7-4c2.3 0 3.7 1.8 3.7 4c0 2.2-1.4 4-3.7 4c-2.2 0-3.7-1.8-3.7-4zm6.5 0c0-1.7-1-3.3-2.8-3.3c-1.8 0-2.8 1.6-2.8 3.3c0 1.7 1 3.3 2.8 3.3c1.8 0 2.8-1.6 2.8-3.3zm12.2-1.5c0-1.1-.5-1.8-1.6-1.8c-.8 0-1.7.6-2.2 1.3c.03.03 0 5.8 0 5.8h-.8V7.2c0-1.1-.5-1.8-1.5-1.8c-.9 0-1.8.7-2.2 1.3c-.04.05 0 5.8 0 5.8h-.9V4.9h.9s-.04 1.13 0 1.1c.3-.5 1.3-1.3 2.4-1.3c1.2 0 1.9.7 2.1 1.4c.4-.7 1.4-1.4 2.5-1.4c1.4 0 2.1.8 2.1 2.3v5.5h-.8s-.03-5.32 0-5.3zm12.5 0c0-1.1-.5-1.8-1.5-1.8c-.9 0-1.8.6-2.2 1.3c-.04.03 0 5.8 0 5.8h-.9s.02-5.32 0-5.3c0-1.1-.4-1.8-1.5-1.8c-.8 0-1.8.7-2.2 1.3v5.8h-.8V4.9h.8s-.01 1.13 0 1.1c.3-.5 1.4-1.3 2.5-1.3c1.2 0 1.8.7 2 1.4c.4-.7 1.4-1.4 2.5-1.4c1.4 0 2.1.8 2.1 2.3c.02.02 0 5.5 0 5.5h-.8V7.2zm6.7-2.5c2.3 0 3.6 1.8 3.6 4.1c-.03-.05 0 .2 0 .2c0 0-6.45-.03-6.4 0c0 1.6 1.1 3 2.9 3c1 0 1.9-.3 2.6-1l.4.5c-.8.8-1.7 1.2-3 1.2c-2.2 0-3.8-1.6-3.8-4c0-2.2 1.5-4 3.7-4zm-2.8 3.6h5.5c0-1.3-.8-2.9-2.8-2.9c-1.8 0-2.7 1.6-2.7 2.9zm13.7-.9c0-1.5-.8-2-1.9-2c-1 0-2 .7-2.5 1.3c.02.05 0 5.8 0 5.8h-.8V4.9h.8s.02 1.13 0 1.1c.6-.6 1.7-1.3 2.8-1.3c1.5 0 2.4.7 2.4 2.5v5.3h-.8s-.02-5.13 0-5.1zm6.7-2.7c1.3 0 2.1.5 2.7 1.3l-.6.5c-.6-.8-1.2-1.1-2.1-1.1c-1.8 0-2.9 1.5-2.9 3.3c0 1.8 1.1 3.3 2.9 3.3c.9 0 1.5-.3 2.1-1.1l.6.5c-.6.8-1.4 1.3-2.7 1.3c-2.3 0-3.8-1.8-3.8-4c0-2.2 1.5-4 3.8-4zm7.8 0c2.3 0 3.6 1.8 3.6 4.1v.2s-6.42-.03-6.4 0c.1 1.6 1.2 3 3 3c1 0 1.8-.3 2.5-1l.4.5c-.7.8-1.7 1.2-3 1.2c-2.2 0-3.8-1.6-3.8-4c0-2.2 1.5-4 3.7-4zm-2.8 3.6h5.6c-.1-1.3-.9-2.9-2.8-2.9c-1.8 0-2.8 1.6-2.8 2.9zm17.7-1.1c0-1.1-.5-1.8-1.6-1.8c-.8 0-1.7.6-2.2 1.3c.03.03 0 5.8 0 5.8h-.8V7.2c0-1.1-.5-1.8-1.6-1.8c-.8 0-1.7.7-2.1 1.3c-.05.05 0 5.8 0 5.8h-.9V4.9h.9s-.05 1.13 0 1.1c.3-.5 1.3-1.3 2.4-1.3c1.2 0 1.9.7 2 1.4c.5-.7 1.5-1.4 2.6-1.4c1.4 0 2.1.8 2.1 2.3c-.02.02 0 5.5 0 5.5h-.8s-.04-5.32 0-5.3zm6.6-2.5c2.3 0 3.6 1.8 3.6 4.1c.03-.05 0 .2 0 .2c0 0-6.38-.03-6.4 0c.1 1.6 1.2 3 3 3c1 0 1.9-.3 2.5-1l.5.5c-.8.8-1.8 1.2-3 1.2c-2.3 0-3.9-1.6-3.9-4c0-2.2 1.6-4 3.7-4zm-2.8 3.6h5.6c0-1.3-.9-2.9-2.8-2.9c-1.8 0-2.7 1.6-2.8 2.9zm13.7-.9c0-1.5-.7-2-1.8-2c-1 0-2 .7-2.5 1.3v5.8h-.8V4.9h.8s-.01 1.13 0 1.1c.5-.6 1.6-1.3 2.8-1.3c1.5 0 2.4.7 2.4 2.5c-.03-.02 0 5.3 0 5.3h-.9s.04-5.13 0-5.1zm3.6 3.7V5.6h-1.3v-.7h1.3V2.8h.8v2.1h1.6v.7h-1.6s.04 5.34 0 5.3c0 .7.3 1.1.8 1.1c.4 0 .7-.2.9-.4l.3.7c-.3.2-.7.4-1.3.4c-1 0-1.5-.6-1.5-1.6zm8.4-9.1s3.33-.05 3.3 0c3.3 0 5.4 2.4 5.4 5.3c0 2.9-2.1 5.2-5.4 5.2c.03.05-3.3 0-3.3 0V2zm3.3 9.7c2.8 0 4.4-2 4.4-4.4c0-2.5-1.6-4.5-4.4-4.5c.03-.02-2.4 0-2.4 0v8.9s2.43.02 2.4 0zm12.5-.1c-.7.8-1.6 1.1-2.6 1.1c-1.3 0-2.7-.9-2.7-2.5c0-1.7 1.3-2.5 2.7-2.5c1 0 1.9.3 2.6 1V7.2c0-1.1-.9-1.8-2.1-1.8c-.9 0-1.7.3-2.4 1.1l-.4-.5c.8-.9 1.6-1.3 2.9-1.3c1.6 0 2.8.7 2.8 2.4v5.4h-.8s-.01-.86 0-.9zm0-2.2c-.6-.7-1.4-1.1-2.3-1.1c-1.3 0-2.1.8-2.1 1.9c0 1.1.8 1.9 2.1 1.9c.9 0 1.7-.4 2.3-1.1V9.4zm3.5 1.7c.04-.03 0-5.5 0-5.5h-1.2v-.7h1.2V2.8h.9v2.1h1.5v.7h-1.5s-.02 5.34 0 5.3c0 .7.2 1.1.8 1.1c.3 0 .7-.2.8-.4l.4.7c-.3.2-.7.4-1.3.4c-1.1 0-1.6-.6-1.6-1.6zm7.5-6.4c2.3 0 3.6 1.8 3.6 4.1c.03-.05 0 .2 0 .2c0 0-6.39-.03-6.4 0c.1 1.6 1.2 3 3 3c1 0 1.9-.3 2.5-1l.5.5c-.8.8-1.8 1.2-3 1.2c-2.3 0-3.9-1.6-3.9-4c0-2.2 1.6-4 3.7-4zm-2.8 3.6h5.6c0-1.3-.9-2.9-2.8-2.9c-1.8 0-2.7 1.6-2.8 2.9zm7.7 2l6.2-3.1l-6.2-3.1v-.8l7 3.6v.6l-7 3.6v-.8zm7.9 0l6.1-3.1l-6.1-3.1v-.8l7 3.6v.6l-7 3.6v-.8z" stroke="none" fill="#000"/><a xlink:href="DBF_Commencement%20Date" xlink:show="new" xlink:title="&lt;&lt;Commencement Date&gt;&gt;"><rect style="fill:transparent;" x="55" y="1" width="182" height="12"/></a></g></svg>