<?xml version="1.0" standalone="no"?><!DOCTYPE svg PUBLIC "-//W3C//DTD SVG 1.1//EN" "http://www.w3.org/Graphics/SVG/1.1/DTD/svg11.dtd"><svg xmlns="http://www.w3.org/2000/svg" version="1.1" width="220.1px" height="47.5px" viewBox="0 -6 220.1 47.5" style="top:-6px"><desc>Lease summary</desc><defs/><g id="Polygon48879"><path d="m5.5 31.7H.8V20.5h1.9v9.5h2.8v1.7zm.9 0V20.5h4.9v1.6H8.2v3.1h2.6v1.6H8.2v3.2h3.1v1.7H6.4zm9.6-2.5h-2l-.4 2.5h-1.8l2.1-11.2h2.3l2.1 11.2h-1.9l-.4-2.5zm-.2-1.6l-.8-4.9l-.8 4.9h1.6zm6.7-3.1s-.02-1.59 0-1.6c0-.7-.4-.9-1-.9c-.5 0-.9.2-.9.9v.8c0 .6.2.8.7 1.1l1.3.8c1.1.6 1.7 1.1 1.7 2.3v1.6c0 1.7-1 2.3-2.7 2.3h-.1c-1.7 0-2.7-.6-2.7-2.3c-.03-.03 0-2 0-2h1.8s-.01 1.72 0 1.7c0 .7.4 1 1 1c.5 0 .9-.3.9-1v-.9c0-.5-.2-.8-.7-1.1l-1.3-.8c-1.1-.6-1.7-1.1-1.7-2.3v-1.4c0-1.7 1.2-2.3 2.7-2.3h.1c1.5 0 2.7.6 2.7 2.3v1.8h-1.8zm3 7.2V20.5h4.9v1.6h-3v3.1h2.5v1.6h-2.5v3.2h3.1v1.7h-5zm12-7.2s.02-1.59 0-1.6c0-.7-.4-.9-.9-.9c-.6 0-1 .2-1 .9v.8c0 .6.2.8.8 1.1l1.3.8c1 .6 1.7 1.1 1.7 2.3v1.6c0 1.7-1.1 2.3-2.8 2.3c-1.7 0-2.8-.6-2.8-2.3v-2h1.8s.03 1.72 0 1.7c0 .7.4 1 1 1c.6 0 1-.3 1-1v-.9c0-.5-.2-.8-.8-1.1l-1.3-.8c-1.1-.6-1.7-1.1-1.7-2.3v-1.4c0-1.7 1.2-2.3 2.8-2.3c1.5 0 2.7.6 2.7 2.3c.04-.04 0 1.8 0 1.8h-1.8zm8.7 4.9c0 1.8-1.1 2.4-2.8 2.4h-.1c-1.7 0-2.8-.6-2.8-2.4c.03.04 0-8.9 0-8.9h1.9s-.02 8.65 0 8.7c0 .8.3 1 .9 1c.7 0 1-.2 1-1v-8.7h1.9s-.04 8.94 0 8.9zm5.8.6h-1l-1.7-5.2v6.9h-1.7V20.5h1.7l2.2 6.5l2.2-6.5h1.8v11.2h-1.8v-6.9L52 30zm9.4 0h-1.1l-1.6-5.2v6.9h-1.8V20.5h1.8l2.1 6.5l2.2-6.5h1.8v11.2h-1.7v-6.9L61.4 30zm8.5-.8h-2.1l-.4 2.5h-1.8l2.1-11.2h2.3l2.1 11.2h-1.8l-.4-2.5zm-.3-1.6l-.8-4.9l-.8 4.9h1.6zm7.5 4.1l-1.4-4.5h-.9v4.5h-1.9V20.5s2.91-.02 2.9 0c1.7 0 2.8.7 2.8 2.3v2c0 1.1-.4 1.8-1.2 2.1l1.6 4.8h-1.9zm-2.3-6.1s.94.02.9 0c.7 0 1.1-.2 1.1-1v-1.5c0-.8-.4-1-1.1-1c.04.01-.9 0-.9 0v3.5zm8.4 6.1h-1.9v-4L79 20.5h2l1.2 5.2l1.3-5.2h1.9l-2.2 7.2v4z" stroke="none" fill="#282828"/></g></svg>