<?xml version="1.0" standalone="no"?><!DOCTYPE svg PUBLIC "-//W3C//DTD SVG 1.1//EN" "http://www.w3.org/Graphics/SVG/1.1/DTD/svg11.dtd"><svg xmlns="http://www.w3.org/2000/svg" xmlns:xlink="http://www.w3.org/1999/xlink" version="1.1" width="583.2px" height="47.9px" viewBox="0 -14 583.2 47.9" style="top:-14px"><desc>, ,</desc><defs/><g id="Polygon64999"><path d="m193.5 14.1c.5-.4 1-1 1.1-1.5h-.3c-.5 0-.8-.4-.8-.9c0-.5.4-1 .9-1c.6 0 1.2.5 1.2 1.4c0 1-.6 1.9-1.4 2.5l-.7-.5zm130.2 0c.5-.4 1-1 1-1.5h-.2c-.5 0-.9-.4-.9-.9c0-.5.5-1 1-1c.6 0 1.1.5 1.1 1.4c0 1-.6 1.9-1.4 2.5l-.6-.5z" stroke="none" fill="#88898a"/><a xlink:href="DBF_Property%20City" xlink:show="new" xlink:title="&lt;&lt;Property City&gt;&gt;"><rect style="fill:transparent;" x="199" y="1" width="123" height="15"/></a><a xlink:href="DBF_Property%20State" xlink:show="new" xlink:title="&lt;&lt;Property State&gt;&gt;"><rect style="fill:transparent;" x="330" y="1" width="132" height="15"/></a></g><g id="Polygon64998"><path d="m55.5 6.7l7.1-3.4v1.2l-5.9 2.7l5.9 2.8v1.1l-7.1-3.3V6.7zm8 0l7-3.4v1.2l-5.9 2.7l5.9 2.8v1.1l-7-3.3V6.7zM72.1 2s4.5-.05 4.5 0C78.8 2 80 3.4 80 5.2c0 1.8-1.2 3.3-3.4 3.3c0-.04-2.9 0-2.9 0v4h-1.6V2zm4.3 1.4c-.01-.05-2.7 0-2.7 0v3.7s2.69-.03 2.7 0c1.1 0 1.9-.8 1.9-1.9c0-1.1-.8-1.8-1.9-1.8zm5.2 1.5h1.4v1.2c.6-.8 1.5-1.4 2.5-1.4v1.4h-.5c-.7 0-1.7.5-2 1.1v5.3h-1.4V4.9zm4.9 3.8c0-2.2 1.5-4 3.8-4c2.4 0 3.9 1.8 3.9 4c0 2.2-1.5 4-3.9 4c-2.3 0-3.8-1.8-3.8-4zm6.2 0c0-1.4-.8-2.7-2.4-2.7C88.8 6 88 7.3 88 8.7c0 1.5.8 2.8 2.3 2.8c1.6 0 2.4-1.3 2.4-2.8zm3.3 6.8V4.9h1.5s-.04 1.07 0 1.1c.5-.8 1.4-1.3 2.5-1.3c2 0 3.4 1.5 3.4 4c0 2.5-1.4 4-3.4 4c-1 0-1.9-.4-2.5-1.3c-.04.04 0 4.1 0 4.1H96zM99.6 6c-.9 0-1.8.5-2.1 1.1v3.2c.3.6 1.2 1.2 2.1 1.2c1.4 0 2.3-1.2 2.3-2.8c0-1.6-.9-2.7-2.3-2.7zm9-1.3c2.3 0 3.7 1.8 3.7 4.1v.4s-6.07-.02-6.1 0c.1 1.3 1.1 2.4 2.6 2.4c.8 0 1.7-.4 2.3-.9l.7.9c-.8.7-1.9 1.1-3.1 1.1c-2.3 0-4-1.6-4-4c0-2.2 1.6-4 3.9-4zm-2.4 3.4h4.7c0-1-.7-2.2-2.3-2.2c-1.6 0-2.3 1.2-2.4 2.2zm7.9-3.2h1.4s.02 1.15 0 1.2c.6-.8 1.5-1.4 2.5-1.4v1.4h-.5c-.7 0-1.6.5-2 1.1c.02.01 0 5.3 0 5.3h-1.4V4.9zm5.6 5.9c.05.05 0-4.7 0-4.7h-1.2V4.9h1.2V2.8h1.5v2.1h1.5v1.2h-1.5s-.02 4.43 0 4.4c0 .6.2 1 .7 1c.4 0 .7-.2.8-.3l.4 1c-.3.3-.8.5-1.5.5c-1.2 0-1.9-.6-1.9-1.9zm5.1 3.6c.5 0 .9-.2 1.1-.8c.01.04.5-1 .5-1l-3.2-7.7h1.5l2.4 6l2.4-6h1.6s-3.82 9.11-3.8 9.1c-.5 1.2-1.4 1.6-2.5 1.7c-.2 0-.6-.1-.9-.2l.3-1.2c.1 0 .4.1.6.1zm11.8-4.6c.7.8 1.9 1.5 3.3 1.5c1.8 0 2.4-.8 2.4-1.6c0-1.1-1.3-1.4-2.6-1.8c-1.7-.4-3.7-.9-3.7-3.1c0-1.7 1.6-3 3.8-3c1.6 0 2.9.5 3.8 1.5l-.9 1.1c-.8-.8-1.9-1.2-3.1-1.2c-1.1 0-1.9.6-1.9 1.5c0 1 1.1 1.3 2.4 1.6c1.8.4 3.8 1 3.8 3.2c0 1.7-1.2 3.2-4 3.2c-1.9 0-3.3-.6-4.2-1.6l.9-1.3zm9.1 1c.02.05 0-4.7 0-4.7h-1.3V4.9h1.3V2.8h1.4v2.1h1.6v1.2h-1.6s.04 4.43 0 4.4c0 .6.3 1 .8 1c.3 0 .6-.2.8-.3l.3 1c-.3.3-.7.5-1.5.5c-1.2 0-1.8-.6-1.8-1.9zm4.6-5.9h1.4s.02 1.15 0 1.2c.6-.8 1.5-1.4 2.5-1.4v1.4h-.5c-.7 0-1.6.5-2 1.1c.02.01 0 5.3 0 5.3h-1.4V4.9zm8.7-.2c2.3 0 3.8 1.8 3.8 4.1c-.04.03 0 .4 0 .4c0 0-6.11-.02-6.1 0c.1 1.3 1.1 2.4 2.6 2.4c.8 0 1.7-.4 2.3-.9l.6.9c-.7.7-1.8 1.1-3 1.1c-2.3 0-4-1.6-4-4c0-2.2 1.6-4 3.8-4zm-2.3 3.4h4.7c-.1-1-.8-2.2-2.4-2.2c-1.5 0-2.2 1.2-2.3 2.2zm11.2-3.4c2.3 0 3.8 1.8 3.8 4.1c-.05.03 0 .4 0 .4c0 0-6.12-.02-6.1 0c.1 1.3 1 2.4 2.6 2.4c.8 0 1.7-.4 2.3-.9l.6.9c-.7.7-1.8 1.1-3.1 1.1c-2.2 0-3.9-1.6-3.9-4c0-2.2 1.6-4 3.8-4zm-2.3 3.4h4.7c-.1-1-.8-2.2-2.4-2.2c-1.5 0-2.3 1.2-2.3 2.2zm8.1 2.7c.03.05 0-4.7 0-4.7h-1.2V4.9h1.2V2.8h1.5v2.1h1.5v1.2h-1.5s-.04 4.43 0 4.4c0 .6.2 1 .7 1c.3 0 .6-.2.8-.3l.4 1c-.4.3-.8.5-1.5.5c-1.2 0-1.9-.6-1.9-1.9zm3.9-.8l5.9-2.8l-5.9-2.7V3.3l7 3.4v1.1l-7 3.3V10zm8 0l5.8-2.8l-5.8-2.7V3.3l7 3.4v1.1l-7 3.3V10z" stroke="none" fill="#88898a"/><a xlink:href="DBF_Property%20Street" xlink:show="new" xlink:title="&lt;&lt;Property Street&gt;&gt;"><rect style="fill:transparent;" x="55" y="1" width="138" height="15"/></a></g><g id="Polygon65000"><path d="m200.5 6.7l7-3.4v1.2l-5.9 2.7l5.9 2.8v1.1l-7-3.3V6.7zm7.9 0l7-3.4v1.2l-5.9 2.7l5.9 2.8v1.1l-7-3.3V6.7zm8.7-4.7s4.42-.05 4.4 0c2.2 0 3.4 1.4 3.4 3.2c0 1.8-1.2 3.3-3.4 3.3c.02-.04-2.9 0-2.9 0v4h-1.5V2zm4.2 1.4c.01-.05-2.7 0-2.7 0v3.7s2.71-.03 2.7 0c1.2 0 2-.8 2-1.9c0-1.1-.8-1.8-2-1.8zm5.2 1.5h1.4s.03 1.15 0 1.2c.6-.8 1.5-1.4 2.5-1.4v1.4h-.4c-.8 0-1.7.5-2.1 1.1c.03.01 0 5.3 0 5.3h-1.4V4.9zm4.9 3.8c0-2.2 1.5-4 3.9-4c2.4 0 3.8 1.8 3.8 4c0 2.2-1.4 4-3.8 4c-2.4 0-3.9-1.8-3.9-4zm6.3 0c0-1.4-.9-2.7-2.4-2.7c-1.6 0-2.4 1.3-2.4 2.7c0 1.5.8 2.8 2.4 2.8c1.5 0 2.4-1.3 2.4-2.8zm3.3 6.8V4.9h1.4s-.01 1.07 0 1.1c.5-.8 1.5-1.3 2.5-1.3c2 0 3.4 1.5 3.4 4c0 2.5-1.4 4-3.4 4c-1 0-1.9-.4-2.5-1.3v4.1H241zm3.5-9.5c-.9 0-1.7.5-2.1 1.1v3.2c.4.6 1.2 1.2 2.1 1.2c1.4 0 2.3-1.2 2.3-2.8c0-1.6-.9-2.7-2.3-2.7zm9-1.3c2.3 0 3.7 1.8 3.7 4.1c.02.03 0 .4 0 .4c0 0-6.05-.02-6 0c.1 1.3 1 2.4 2.6 2.4c.8 0 1.7-.4 2.2-.9l.7.9c-.8.7-1.8 1.1-3.1 1.1c-2.3 0-4-1.6-4-4c0-2.2 1.6-4 3.9-4zm-2.4 3.4h4.7c0-1-.7-2.2-2.3-2.2c-1.6 0-2.3 1.2-2.4 2.2zm7.9-3.2h1.4s.05 1.15 0 1.2c.6-.8 1.5-1.4 2.6-1.4v1.4h-.5c-.8 0-1.7.5-2.1 1.1c.05.01 0 5.3 0 5.3H259V4.9zm5.7 5.9c-.03.05 0-4.7 0-4.7h-1.3V4.9h1.3V2.8h1.4v2.1h1.6v1.2h-1.6v4.4c0 .6.3 1 .7 1c.4 0 .7-.2.8-.3l.4 1c-.3.3-.8.5-1.5.5c-1.2 0-1.8-.6-1.8-1.9zm5 3.6c.5 0 .9-.2 1.1-.8c.03.04.5-1 .5-1l-3.2-7.7h1.5l2.4 6l2.4-6h1.6l-3.8 9.1c-.5 1.2-1.3 1.6-2.4 1.7c-.3 0-.7-.1-.9-.2l.2-1.2c.2 0 .4.1.6.1zm11.1-7.1c0-3.3 2.4-5.5 5.5-5.5c2 0 3.3 1 4.2 2.2l-1.4.7c-.5-.9-1.6-1.5-2.8-1.5c-2.2 0-3.8 1.7-3.8 4.1c0 2.3 1.6 4 3.8 4c1.2 0 2.3-.6 2.8-1.5l1.4.7c-.9 1.2-2.2 2.2-4.2 2.2c-3.1 0-5.5-2.2-5.5-5.4zm11-4.6c0-.5.4-.9.9-.9c.5 0 .9.4.9.9c0 .5-.4.9-.9.9c-.5 0-.9-.4-.9-.9zm.2 2.2h1.4v7.6H292V4.9zm4 5.9V6.1h-1.3V4.9h1.3V2.8h1.4v2.1h1.6v1.2h-1.6s.04 4.43 0 4.4c0 .6.3 1 .8 1c.3 0 .6-.2.8-.3l.3 1c-.3.3-.7.5-1.5.5c-1.2 0-1.8-.6-1.8-1.9zm5.1 3.6c.5 0 .8-.2 1.1-.8c-.03.04.4-1 .4-1l-3.1-7.7h1.5l2.4 6l2.4-6h1.5s-3.77 9.11-3.8 9.1c-.5 1.2-1.3 1.6-2.4 1.7c-.2 0-.7-.1-.9-.2l.2-1.2c.2 0 .5.1.7.1zm6.7-4.4l5.9-2.8l-5.9-2.7V3.3l7 3.4v1.1l-7 3.3V10zm7.9 0l5.9-2.8l-5.9-2.7V3.3l7.1 3.4v1.1l-7.1 3.3V10z" stroke="none" fill="#88898a"/></g><g id="Polygon65001"><path d="m330.6 6.7l7-3.4v1.2l-5.8 2.7l5.8 2.8v1.1l-7-3.3V6.7zm8 0l7-3.4v1.2l-5.9 2.7l5.9 2.8v1.1l-7-3.3V6.7zm8.6-4.7s4.49-.05 4.5 0c2.2 0 3.4 1.4 3.4 3.2c0 1.8-1.3 3.3-3.4 3.3c-.01-.04-2.9 0-2.9 0v4h-1.6V2zm4.3 1.4c-.02-.05-2.7 0-2.7 0v3.7s2.68-.03 2.7 0c1.1 0 1.9-.8 1.9-1.9c0-1.1-.8-1.8-1.9-1.8zm5.2 1.5h1.4v1.2c.6-.8 1.5-1.4 2.5-1.4v1.4h-.5c-.7 0-1.7.5-2 1.1v5.3h-1.4V4.9zm4.9 3.8c0-2.2 1.5-4 3.8-4c2.4 0 3.9 1.8 3.9 4c0 2.2-1.5 4-3.9 4c-2.3 0-3.8-1.8-3.8-4zm6.2 0c0-1.4-.8-2.7-2.4-2.7c-1.5 0-2.3 1.3-2.3 2.7c0 1.5.8 2.8 2.3 2.8c1.6 0 2.4-1.3 2.4-2.8zm3.3 6.8V4.9h1.5s-.04 1.07 0 1.1c.5-.8 1.4-1.3 2.5-1.3c2 0 3.4 1.5 3.4 4c0 2.5-1.4 4-3.4 4c-1 0-1.9-.4-2.5-1.3c-.04.04 0 4.1 0 4.1h-1.5zm3.6-9.5c-.9 0-1.8.5-2.1 1.1v3.2c.3.6 1.2 1.2 2.1 1.2c1.4 0 2.3-1.2 2.3-2.8c0-1.6-.9-2.7-2.3-2.7zm9-1.3c2.3 0 3.7 1.8 3.7 4.1v.4s-6.08-.02-6.1 0c.1 1.3 1.1 2.4 2.6 2.4c.8 0 1.7-.4 2.3-.9l.7.9c-.8.7-1.9 1.1-3.1 1.1c-2.3 0-4-1.6-4-4c0-2.2 1.6-4 3.9-4zm-2.4 3.4h4.7c0-1-.7-2.2-2.3-2.2c-1.6 0-2.3 1.2-2.4 2.2zm7.9-3.2h1.4v1.2c.6-.8 1.5-1.4 2.5-1.4v1.4h-.5c-.7 0-1.7.5-2 1.1v5.3h-1.4V4.9zm5.6 5.9c.04.05 0-4.7 0-4.7h-1.2V4.9h1.2V2.8h1.5v2.1h1.5v1.2h-1.5s-.03 4.43 0 4.4c0 .6.2 1 .7 1c.3 0 .6-.2.8-.3l.4 1c-.3.3-.8.5-1.5.5c-1.2 0-1.9-.6-1.9-1.9zm5.1 3.6c.5 0 .9-.2 1.1-.8c0 .04.4-1 .4-1l-3.1-7.7h1.5l2.4 6l2.4-6h1.5s-3.73 9.11-3.7 9.1c-.5 1.2-1.4 1.6-2.5 1.7c-.2 0-.6-.1-.9-.2l.3-1.2c.1 0 .4.1.6.1zm11.8-4.6c.7.8 1.8 1.5 3.3 1.5c1.7 0 2.3-.8 2.3-1.6c0-1.1-1.2-1.4-2.5-1.8c-1.7-.4-3.7-.9-3.7-3.1c0-1.7 1.6-3 3.8-3c1.6 0 2.9.5 3.8 1.5l-.9 1.1c-.8-.8-1.9-1.2-3.1-1.2c-1.1 0-1.9.6-1.9 1.5c0 1 1.1 1.3 2.4 1.6c1.7.4 3.8 1 3.8 3.2c0 1.7-1.2 3.2-4 3.2c-1.9 0-3.3-.6-4.2-1.6l.9-1.3zm9.1 1V6.1h-1.3V4.9h1.3V2.8h1.4v2.1h1.6v1.2h-1.6s.04 4.43 0 4.4c0 .6.3 1 .8 1c.3 0 .6-.2.8-.3l.3 1c-.3.3-.7.5-1.5.5c-1.2 0-1.8-.6-1.8-1.9zm9.3.9c-.6.7-1.5 1-2.5 1c-1.3 0-2.7-.8-2.7-2.5c0-1.8 1.4-2.5 2.7-2.5c1 0 1.9.3 2.5 1V7.4c0-.9-.8-1.5-1.9-1.5c-.8 0-1.6.3-2.3 1l-.6-1c.9-.8 1.9-1.2 3.2-1.2c1.6 0 3 .7 3 2.7c.04-.03 0 5.1 0 5.1h-1.4s.02-.79 0-.8zm0-2.1c-.4-.6-1.2-.9-2-.9c-1 0-1.7.6-1.7 1.5c0 .9.7 1.5 1.7 1.5c.8 0 1.6-.3 2-.8V9.6zm4 1.2c.02.05 0-4.7 0-4.7h-1.3V4.9h1.3V2.8h1.4v2.1h1.6v1.2h-1.6s.05 4.43 0 4.4c0 .6.3 1 .8 1c.3 0 .6-.2.8-.3l.3 1c-.3.3-.7.5-1.5.5c-1.2 0-1.8-.6-1.8-1.9zm8-6.1c2.3 0 3.7 1.8 3.7 4.1v.4s-6.08-.02-6.1 0c.1 1.3 1.1 2.4 2.6 2.4c.8 0 1.7-.4 2.3-.9l.7.9c-.8.7-1.9 1.1-3.1 1.1c-2.3 0-4-1.6-4-4c0-2.2 1.6-4 3.9-4zm-2.4 3.4h4.7c0-1-.7-2.2-2.3-2.2c-1.6 0-2.3 1.2-2.4 2.2zm7.2 1.9l5.9-2.8l-5.9-2.7V3.3l7 3.4v1.1l-7 3.3V10zm7.9 0l5.9-2.8l-5.9-2.7V3.3l7.1 3.4v1.1l-7.1 3.3V10z" stroke="none" fill="#88898a"/><a xlink:href="DBF_Property%20Zip" xlink:show="new" xlink:title="&lt;&lt;Property Zip&gt;&gt;"><rect style="fill:transparent;" x="465" y="1" width="118" height="15"/></a></g><g id="Polygon65002"><path d="m466 6.7l7-3.4v1.2l-5.9 2.7L473 10v1.1l-7-3.3V6.7zm7.9 0l7-3.4v1.2L475 7.2l5.9 2.8v1.1l-7-3.3V6.7zm8.7-4.7s4.42-.05 4.4 0c2.2 0 3.4 1.4 3.4 3.2c0 1.8-1.2 3.3-3.4 3.3c.02-.04-2.9 0-2.9 0v4h-1.5V2zm4.2 1.4c.01-.05-2.7 0-2.7 0v3.7s2.71-.03 2.7 0c1.2 0 2-.8 2-1.9c0-1.1-.8-1.8-2-1.8zm5.2 1.5h1.4s.03 1.15 0 1.2c.6-.8 1.5-1.4 2.5-1.4v1.4h-.4c-.8 0-1.7.5-2.1 1.1c.03.01 0 5.3 0 5.3H492V4.9zm4.9 3.8c0-2.2 1.5-4 3.9-4c2.4 0 3.8 1.8 3.8 4c0 2.2-1.4 4-3.8 4c-2.4 0-3.9-1.8-3.9-4zm6.3 0c0-1.4-.9-2.7-2.4-2.7c-1.6 0-2.4 1.3-2.4 2.7c0 1.5.8 2.8 2.4 2.8c1.5 0 2.4-1.3 2.4-2.8zm3.3 6.8V4.9h1.4s-.01 1.07 0 1.1c.5-.8 1.5-1.3 2.5-1.3c2 0 3.4 1.5 3.4 4c0 2.5-1.4 4-3.4 4c-1 0-1.9-.4-2.5-1.3v4.1h-1.4zM510 6c-.9 0-1.7.5-2.1 1.1v3.2c.4.6 1.2 1.2 2.1 1.2c1.4 0 2.3-1.2 2.3-2.8c0-1.6-.9-2.7-2.3-2.7zm9-1.3c2.3 0 3.7 1.8 3.7 4.1c.02.03 0 .4 0 .4c0 0-6.05-.02-6 0c.1 1.3 1 2.4 2.6 2.4c.8 0 1.7-.4 2.2-.9l.7.9c-.8.7-1.8 1.1-3.1 1.1c-2.3 0-4-1.6-4-4c0-2.2 1.6-4 3.9-4zm-2.4 3.4h4.7c0-1-.7-2.2-2.3-2.2c-1.6 0-2.3 1.2-2.4 2.2zm7.9-3.2h1.4s.04 1.15 0 1.2c.6-.8 1.5-1.4 2.6-1.4v1.4h-.5c-.8 0-1.7.5-2.1 1.1c.04.01 0 5.3 0 5.3h-1.4V4.9zm5.7 5.9c-.03.05 0-4.7 0-4.7h-1.3V4.9h1.3V2.8h1.4v2.1h1.6v1.2h-1.6v4.4c0 .6.3 1 .7 1c.4 0 .7-.2.8-.3l.4 1c-.3.3-.8.5-1.5.5c-1.2 0-1.8-.6-1.8-1.9zm5 3.6c.5 0 .9-.2 1.1-.8c.03.04.5-1 .5-1l-3.2-7.7h1.5l2.4 6l2.4-6h1.6l-3.8 9.1c-.5 1.2-1.3 1.6-2.4 1.7c-.3 0-.7-.1-.9-.2l.2-1.2c.2 0 .4.1.6.1zm11.1-3.2l5.7-7.8h-5.7V2h7.8v1.3l-5.7 7.9h5.8v1.3h-7.9v-1.3zm9.5-8.5c0-.5.5-.9 1-.9c.5 0 .9.4.9.9c0 .5-.4.9-.9.9c-.5 0-1-.4-1-.9zm.3 2.2h1.4v7.6h-1.4V4.9zm3.7 10.6V4.9h1.4s-.01 1.07 0 1.1c.5-.8 1.5-1.3 2.5-1.3c2 0 3.4 1.5 3.4 4c0 2.5-1.4 4-3.4 4c-1 0-1.9-.4-2.5-1.3v4.1h-1.4zm3.5-9.5c-.9 0-1.7.5-2.1 1.1v3.2c.4.6 1.2 1.2 2.1 1.2c1.4 0 2.3-1.2 2.3-2.8c0-1.6-.9-2.7-2.3-2.7zm4.9 4l5.9-2.8l-5.9-2.7V3.3l7.1 3.4v1.1l-7.1 3.3V10zm8 0l5.9-2.8l-5.9-2.7V3.3l7 3.4v1.1l-7 3.3V10z" stroke="none" fill="#88898a"/></g></svg>