<?xml version="1.0" standalone="no"?>
<!DOCTYPE svg PUBLIC "-//W3C//DTD SVG 1.1//EN" "http://www.w3.org/Graphics/SVG/1.1/DTD/svg11.dtd">
<svg xmlns="http://www.w3.org/2000/svg" version="1.1" width="138px" height="28.3px" viewBox="0 -6 138 28.3" style="top:-6px">
  <desc>Price SF</desc>
  <defs/>
  <g id="Polygon235885">
    <path d="M 1.2 2 C 1.2 2 5.64 1.95 5.6 2 C 7.8 2 9 3.4 9 5.2 C 9 7 7.8 8.5 5.6 8.5 C 5.64 8.46 2.8 8.5 2.8 8.5 L 2.8 12.5 L 1.2 12.5 L 1.2 2 Z M 5.4 3.3 C 5.43 3.35 2.8 3.3 2.8 3.3 L 2.8 7.1 C 2.8 7.1 5.43 7.07 5.4 7.1 C 6.6 7.1 7.4 6.3 7.4 5.2 C 7.4 4.1 6.6 3.3 5.4 3.3 Z M 10.6 4.9 L 12.1 4.9 C 12.1 4.9 12.05 6.05 12.1 6 C 12.6 5.3 13.5 4.7 14.6 4.7 C 14.6 4.7 14.6 6.1 14.6 6.1 C 14.4 6.1 14.3 6.1 14.1 6.1 C 13.4 6.1 12.4 6.6 12.1 7.2 C 12.05 7.21 12.1 12.5 12.1 12.5 L 10.6 12.5 L 10.6 4.9 Z M 15.8 2.7 C 15.8 2.2 16.2 1.8 16.7 1.8 C 17.2 1.8 17.6 2.2 17.6 2.7 C 17.6 3.2 17.2 3.6 16.7 3.6 C 16.2 3.6 15.8 3.2 15.8 2.7 Z M 16 4.9 L 17.4 4.9 L 17.4 12.5 L 16 12.5 L 16 4.9 Z M 23.1 4.7 C 24.6 4.7 25.4 5.3 26 6 C 26 6 25 6.9 25 6.9 C 24.6 6.3 24 6 23.2 6 C 21.7 6 20.7 7.1 20.7 8.7 C 20.7 10.3 21.7 11.5 23.2 11.5 C 24 11.5 24.6 11.1 25 10.5 C 25 10.5 26 11.4 26 11.4 C 25.4 12.1 24.6 12.7 23.1 12.7 C 20.8 12.7 19.2 11 19.2 8.7 C 19.2 6.4 20.8 4.7 23.1 4.7 Z M 30.9 4.7 C 33.2 4.7 34.7 6.5 34.7 8.8 C 34.66 8.83 34.7 9.2 34.7 9.2 C 34.7 9.2 28.6 9.18 28.6 9.2 C 28.7 10.5 29.7 11.6 31.2 11.6 C 32 11.6 32.9 11.2 33.5 10.7 C 33.5 10.7 34.1 11.6 34.1 11.6 C 33.4 12.3 32.3 12.7 31.1 12.7 C 28.8 12.7 27.1 11.1 27.1 8.7 C 27.1 6.5 28.7 4.7 30.9 4.7 Z M 28.6 8.1 C 28.6 8.1 33.3 8.1 33.3 8.1 C 33.2 7.1 32.6 5.9 30.9 5.9 C 29.4 5.9 28.7 7.1 28.6 8.1 Z M 43.2 1.6 L 44.3 1.6 L 40.5 12.9 L 39.4 12.9 L 43.2 1.6 Z M 49.8 9.8 C 50.5 10.6 51.7 11.3 53.1 11.3 C 54.8 11.3 55.5 10.4 55.5 9.7 C 55.5 8.6 54.2 8.3 52.9 7.9 C 51.2 7.5 49.2 7 49.2 4.8 C 49.2 3.1 50.8 1.8 53 1.8 C 54.6 1.8 55.9 2.3 56.8 3.3 C 56.8 3.3 55.9 4.4 55.9 4.4 C 55.1 3.6 54 3.2 52.8 3.2 C 51.7 3.2 50.9 3.8 50.9 4.7 C 50.9 5.7 52 6 53.3 6.3 C 55.1 6.7 57.1 7.3 57.1 9.5 C 57.1 11.2 55.9 12.7 53.1 12.7 C 51.2 12.7 49.8 12.1 48.9 11.1 C 48.9 11.1 49.8 9.8 49.8 9.8 Z M 58.9 2 L 66 2 L 66 3.3 L 60.5 3.3 L 60.5 6.4 L 65.9 6.4 L 65.9 7.8 L 60.5 7.8 L 60.5 12.5 L 58.9 12.5 L 58.9 2 Z " stroke="none" fill="#000"/>
  </g>
</svg>