<?xml version="1.0" standalone="no"?><!DOCTYPE svg PUBLIC "-//W3C//DTD SVG 1.1//EN" "http://www.w3.org/Graphics/SVG/1.1/DTD/svg11.dtd"><svg xmlns="http://www.w3.org/2000/svg" version="1.1" width="125.4px" height="27.3px" viewBox="0 -6 125.4 27.3" style="top:-6px"><desc>25,667</desc><defs/><g id="Polygon114203"><path d="m77.8 11.8c3.6-2.9 6-5 6-7c0-1.5-1.2-2.2-2.4-2.2c-1.3 0-2.3.6-2.9 1.4l-.6-.6c.7-1 2-1.6 3.5-1.6c1.6 0 3.3.9 3.3 3c0 2.3-2.4 4.4-5.5 6.9c.02.02 5.6 0 5.6 0v.8h-7v-.7zm10.1-1.4c.7 1 1.6 1.5 3 1.5c1.5 0 2.7-1.1 2.7-2.5c0-1.7-1.2-2.6-2.7-2.6c-.9 0-1.8.3-2.5 1c-.05 0-.7-.3-.7-.3V2h6.1v.8h-5.2s-.03 4.12 0 4.1c.5-.5 1.4-1 2.5-1c1.8 0 3.4 1.2 3.4 3.4c0 2.1-1.7 3.4-3.6 3.4c-1.8 0-2.8-.6-3.6-1.7l.6-.6zm8.4 3.7c.5-.3.9-1 .9-1.5l-.1.1c-.4 0-.7-.3-.7-.7c0-.4.3-.7.7-.7c.4 0 .8.4.8 1c0 .9-.5 1.8-1.1 2.2l-.5-.4zm7.5-12.3c1.4 0 2.3.5 2.9 1.3l-.5.7c-.6-.7-1.2-1.2-2.4-1.2c-2.2 0-3.1 2.4-3.1 4.7v.5c.5-.8 1.7-1.8 3.1-1.8c1.9 0 3.4 1.1 3.4 3.4c0 1.7-1.3 3.3-3.5 3.3c-2.9 0-3.9-2.6-3.9-5.4c0-2.8 1.1-5.5 4-5.5zm-.1 5c-1.2 0-2.3.8-2.9 1.8c.1 1.5.9 3.3 2.9 3.3c1.8 0 2.6-1.4 2.6-2.5c0-1.8-1.1-2.6-2.6-2.6zm9.4-5c1.4 0 2.2.5 2.9 1.3l-.6.7c-.5-.7-1.1-1.2-2.3-1.2c-2.3 0-3.1 2.4-3.1 4.7v.5c.5-.8 1.7-1.8 3.1-1.8c1.9 0 3.4 1.1 3.4 3.4c0 1.7-1.3 3.3-3.5 3.3c-2.9 0-3.9-2.6-3.9-5.4c0-2.8 1.1-5.5 4-5.5zm-.2 5c-1.1 0-2.2.8-2.8 1.8c.1 1.5.8 3.3 2.8 3.3c1.8 0 2.7-1.4 2.7-2.5c0-1.8-1.1-2.6-2.7-2.6zm10.9-4H118v-.8h6.9v.6l-4.5 9.9h-1l4.4-9.7z" stroke="none" fill="#000"/></g></svg>