<?xml version="1.0" standalone="no"?><!DOCTYPE svg PUBLIC "-//W3C//DTD SVG 1.1//EN" "http://www.w3.org/Graphics/SVG/1.1/DTD/svg11.dtd"><svg xmlns="http://www.w3.org/2000/svg" version="1.1" width="98.4px" height="16.9px" viewBox="0 -4 98.4 16.9" style="top:-4px"><desc>HOUSEHOLDS</desc><defs/><g id="Polygon313876"><path d="m4.9 4.4H1.6v2.7h-.9v-6h.9v2.5h3.3V1.1h.9v6h-.9V4.4zM9.8 1c1.8 0 3 1.3 3 3.1c0 1.8-1.2 3.1-3 3.1c-1.8 0-3-1.3-3-3.1C6.8 2.3 8 1 9.8 1zm0 .8c-1.3 0-2.1 1-2.1 2.3c0 1.3.8 2.3 2.1 2.3c1.3 0 2.1-1 2.1-2.3c0-1.3-.8-2.3-2.1-2.3zm4-.7h.9s.03 3.63 0 3.6c0 1.1.6 1.7 1.7 1.7c1 0 1.6-.6 1.6-1.7c-.04.03 0-3.6 0-3.6h.9s-.03 3.65 0 3.7c0 1.4-.9 2.4-2.5 2.4c-1.7 0-2.6-1-2.6-2.4c.02-.04 0-3.7 0-3.7zm6.5 4.5c.4.4 1 .8 1.9.8c.9 0 1.3-.5 1.3-.9c0-.6-.7-.8-1.5-1c-.9-.3-2.1-.5-2.1-1.8c0-1 .9-1.7 2.2-1.7c.9 0 1.6.3 2.2.9l-.6.6c-.4-.5-1.1-.7-1.7-.7c-.7 0-1.1.4-1.1.9c0 .5.6.7 1.4.9c.9.2 2.1.5 2.1 1.8c0 .9-.7 1.8-2.3 1.8c-1 0-1.8-.4-2.3-.9l.5-.7zm5-4.5h4.1v.8h-3.2v1.8h3.1v.7h-3.1v1.9h3.2v.8h-4.1v-6zm9.3 3.3h-3.3v2.7h-.9v-6h.9v2.5h3.3V1.1h.9v6h-.9V4.4zM39.5 1c1.8 0 3.1 1.3 3.1 3.1c0 1.8-1.3 3.1-3.1 3.1c-1.7 0-3-1.3-3-3.1c0-1.8 1.3-3.1 3-3.1zm0 .8c-1.2 0-2.1 1-2.1 2.3c0 1.3.9 2.3 2.1 2.3c1.3 0 2.1-1 2.1-2.3c0-1.3-.8-2.3-2.1-2.3zm4.1-.7h.9v5.2h2.7v.8h-3.6v-6zm4.5 0h2.1c1.9 0 3.2 1.3 3.2 3c0 1.8-1.3 3-3.2 3h-2.1v-6zm2.1 5.2c1.4 0 2.2-1 2.2-2.2c0-1.2-.7-2.2-2.2-2.2H49v4.4s1.24.02 1.2 0zm4.3-.7c.4.4 1 .8 1.9.8c1 0 1.3-.5 1.3-.9c0-.6-.7-.8-1.5-1c-.9-.3-2-.5-2-1.8c0-1 .8-1.7 2.1-1.7c.9 0 1.7.3 2.2.9l-.5.6c-.5-.5-1.1-.7-1.8-.7c-.6 0-1.1.4-1.1.9c0 .5.6.7 1.4.9c1 .2 2.1.5 2.1 1.8c0 .9-.6 1.8-2.3 1.8c-1 0-1.8-.4-2.3-.9l.5-.7z" stroke="none" fill="#3797ef"/></g></svg>