<?xml version="1.0" standalone="no"?>
<!DOCTYPE svg PUBLIC "-//W3C//DTD SVG 1.1//EN" "http://www.w3.org/Graphics/SVG/1.1/DTD/svg11.dtd">
<svg xmlns="http://www.w3.org/2000/svg" version="1.1" width="158px" height="27.9px" viewBox="0 -6 158 27.9" style="top:-6px">
  <desc>Lease Type</desc>
  <defs/>
  <g id="Polygon275994">
    <path d="M 1.2 2 L 2.8 2 L 2.8 11.2 L 7.6 11.2 L 7.6 12.5 L 1.2 12.5 L 1.2 2 Z M 12.4 4.7 C 14.7 4.7 16.1 6.5 16.1 8.8 C 16.1 8.83 16.1 9.2 16.1 9.2 C 16.1 9.2 10.04 9.18 10 9.2 C 10.1 10.5 11.1 11.6 12.6 11.6 C 13.5 11.6 14.3 11.2 14.9 10.7 C 14.9 10.7 15.6 11.6 15.6 11.6 C 14.8 12.3 13.7 12.7 12.5 12.7 C 10.2 12.7 8.5 11.1 8.5 8.7 C 8.5 6.5 10.1 4.7 12.4 4.7 Z M 10 8.1 C 10 8.1 14.7 8.1 14.7 8.1 C 14.7 7.1 14 5.9 12.4 5.9 C 10.8 5.9 10.1 7.1 10 8.1 Z M 22.6 11.7 C 22 12.4 21.2 12.7 20.1 12.7 C 18.9 12.7 17.5 11.9 17.5 10.2 C 17.5 8.4 18.8 7.7 20.1 7.7 C 21.2 7.7 22 8 22.6 8.7 C 22.6 8.7 22.6 7.4 22.6 7.4 C 22.6 6.5 21.9 5.9 20.8 5.9 C 19.9 5.9 19.1 6.2 18.5 6.9 C 18.5 6.9 17.8 5.9 17.8 5.9 C 18.7 5.1 19.7 4.7 21 4.7 C 22.6 4.7 24.1 5.4 24.1 7.4 C 24.06 7.37 24.1 12.5 24.1 12.5 L 22.6 12.5 C 22.6 12.5 22.63 11.71 22.6 11.7 Z M 22.6 9.6 C 22.2 9 21.5 8.7 20.7 8.7 C 19.6 8.7 18.9 9.3 18.9 10.2 C 18.9 11.1 19.6 11.7 20.7 11.7 C 21.5 11.7 22.2 11.4 22.6 10.9 C 22.6 10.9 22.6 9.6 22.6 9.6 Z M 26.4 10.5 C 26.9 11.1 27.9 11.6 28.9 11.6 C 30 11.6 30.6 11.2 30.6 10.5 C 30.6 9.7 29.7 9.5 28.7 9.3 C 27.4 9 25.9 8.6 25.9 7 C 25.9 5.7 27 4.7 28.8 4.7 C 30.1 4.7 31.1 5.2 31.7 5.8 C 31.7 5.8 31.1 6.8 31.1 6.8 C 30.7 6.2 29.8 5.8 28.8 5.8 C 27.9 5.8 27.3 6.2 27.3 6.8 C 27.3 7.5 28.1 7.7 29 8 C 30.4 8.3 32 8.6 32 10.4 C 32 11.7 30.9 12.7 28.9 12.7 C 27.6 12.7 26.5 12.3 25.7 11.5 C 25.7 11.5 26.4 10.5 26.4 10.5 Z M 37.1 4.7 C 39.5 4.7 40.9 6.5 40.9 8.8 C 40.88 8.83 40.9 9.2 40.9 9.2 C 40.9 9.2 34.81 9.18 34.8 9.2 C 34.9 10.5 35.9 11.6 37.4 11.6 C 38.2 11.6 39.1 11.2 39.7 10.7 C 39.7 10.7 40.4 11.6 40.4 11.6 C 39.6 12.3 38.5 12.7 37.3 12.7 C 35 12.7 33.3 11.1 33.3 8.7 C 33.3 6.5 34.9 4.7 37.1 4.7 Z M 34.8 8.1 C 34.8 8.1 39.5 8.1 39.5 8.1 C 39.5 7.1 38.8 5.9 37.1 5.9 C 35.6 5.9 34.9 7.1 34.8 8.1 Z M 49.4 3.4 L 46.1 3.4 L 46.1 2 L 54.3 2 L 54.3 3.4 L 51 3.4 L 51 12.5 L 49.4 12.5 L 49.4 3.4 Z M 55.3 14.4 C 55.9 14.4 56.2 14.2 56.4 13.6 C 56.45 13.64 56.9 12.6 56.9 12.6 L 53.7 4.9 L 55.3 4.9 L 57.7 10.9 L 60.1 4.9 L 61.6 4.9 C 61.6 4.9 57.81 14.01 57.8 14 C 57.3 15.2 56.5 15.6 55.4 15.7 C 55.1 15.7 54.7 15.6 54.5 15.5 C 54.5 15.5 54.7 14.3 54.7 14.3 C 54.9 14.3 55.1 14.4 55.3 14.4 Z M 62.8 15.5 L 62.8 4.9 L 64.2 4.9 C 64.2 4.9 64.18 5.97 64.2 6 C 64.7 5.2 65.7 4.7 66.7 4.7 C 68.7 4.7 70.1 6.2 70.1 8.7 C 70.1 11.2 68.7 12.7 66.7 12.7 C 65.7 12.7 64.8 12.3 64.2 11.4 C 64.18 11.44 64.2 15.5 64.2 15.5 L 62.8 15.5 Z M 66.3 6 C 65.4 6 64.6 6.5 64.2 7.1 C 64.2 7.1 64.2 10.3 64.2 10.3 C 64.6 10.9 65.4 11.5 66.3 11.5 C 67.7 11.5 68.6 10.3 68.6 8.7 C 68.6 7.1 67.7 6 66.3 6 Z M 75.3 4.7 C 77.6 4.7 79 6.5 79 8.8 C 79.01 8.83 79 9.2 79 9.2 C 79 9.2 72.95 9.18 72.9 9.2 C 73.1 10.5 74 11.6 75.6 11.6 C 76.4 11.6 77.3 11.2 77.8 10.7 C 77.8 10.7 78.5 11.6 78.5 11.6 C 77.7 12.3 76.6 12.7 75.4 12.7 C 73.1 12.7 71.4 11.1 71.4 8.7 C 71.4 6.5 73 4.7 75.3 4.7 Z M 72.9 8.1 C 72.9 8.1 77.6 8.1 77.6 8.1 C 77.6 7.1 76.9 5.9 75.3 5.9 C 73.7 5.9 73 7.1 72.9 8.1 Z " stroke="none" fill="#000"/>
  </g>
</svg>