<?xml version="1.0" standalone="no"?><!DOCTYPE svg PUBLIC "-//W3C//DTD SVG 1.1//EN" "http://www.w3.org/Graphics/SVG/1.1/DTD/svg11.dtd"><svg xmlns="http://www.w3.org/2000/svg" version="1.1" width="155.5px" height="27.9px" viewBox="0 -6 155.5 27.9" style="top:-6px"><desc>Tenant</desc><defs/><g id="Polygon274632"><path d="m57.9 3.4h-3.3V2h8.1v1.4h-3.3v9.1h-1.5V3.4zM66 4.7c2.3 0 3.7 1.8 3.7 4.1v.4s-6.08-.02-6.1 0c.1 1.3 1.1 2.4 2.6 2.4c.8 0 1.7-.4 2.3-.9l.7.9c-.8.7-1.9 1.1-3.1 1.1c-2.3 0-4-1.6-4-4c0-2.2 1.6-4 3.9-4zm-2.4 3.4h4.7c0-1-.7-2.2-2.3-2.2c-1.6 0-2.3 1.2-2.4 2.2zm13.1-.5C76.7 6.4 76 6 75 6c-.9 0-1.7.5-2.1 1.1v5.4h-1.4V4.9h1.4s.01 1.05 0 1.1c.5-.7 1.5-1.3 2.7-1.3c1.7 0 2.5.8 2.5 2.5v5.3h-1.4s-.04-4.86 0-4.9zm8.4 4.1c-.6.7-1.5 1-2.5 1c-1.3 0-2.7-.8-2.7-2.5c0-1.8 1.4-2.5 2.7-2.5c1 0 1.9.3 2.5 1V7.4c0-.9-.8-1.5-1.9-1.5c-.9 0-1.6.3-2.3 1l-.6-1c.9-.8 1.9-1.2 3.1-1.2c1.7 0 3.1.7 3.1 2.7c.02-.03 0 5.1 0 5.1h-1.4v-.8zm0-2.1c-.4-.6-1.2-.9-2-.9c-1 0-1.7.6-1.7 1.5c0 .9.7 1.5 1.7 1.5c.8 0 1.6-.3 2-.8V9.6zm8.9-2c0-1.2-.7-1.6-1.6-1.6c-.9 0-1.7.5-2.2 1.1c.04-.03 0 5.4 0 5.4h-1.4V4.9h1.4s.04 1.05 0 1.1c.5-.7 1.6-1.3 2.8-1.3c1.6 0 2.4.8 2.4 2.5c.02-.04 0 5.3 0 5.3H94V7.6zm4 3.2c-.02.05 0-4.7 0-4.7h-1.3V4.9h1.3V2.8h1.4v2.1h1.6v1.2h-1.6v4.4c0 .6.3 1 .8 1c.3 0 .6-.2.7-.3l.4 1c-.3.3-.8.5-1.5.5c-1.2 0-1.8-.6-1.8-1.9z" stroke="none" fill="#000"/></g></svg>