<?xml version="1.0" standalone="no"?><!DOCTYPE svg PUBLIC "-//W3C//DTD SVG 1.1//EN" "http://www.w3.org/Graphics/SVG/1.1/DTD/svg11.dtd"><svg xmlns="http://www.w3.org/2000/svg" version="1.1" width="31px" height="21.5px" viewBox="0 -4 31 21.5" style="top:-4px"><desc>1-Mile</desc><defs/><g id="Polygon73486"><path d="m2.4 3.7L1.1 5l-1-1l2.6-2.5h1.4v8H2.4V3.7zm2.8 2.2h2.9v1.3H5.2V5.9zM16 3.7l-2.2 5.8h-.8l-2.2-5.8v5.8H9.1v-8h2.4l1.9 5l2-5h2.4v8H16V3.7zm3-1.8c0-.5.5-.9.9-.9c.5 0 1 .4 1 .9c0 .5-.5.9-1 .9c-.4 0-.9-.4-.9-.9zm.2 1.8h1.5v5.8h-1.5V3.7zm2.9-2.2h1.5v8h-1.5v-8zm5.5 2c1.8 0 3 1.3 3 3.2c-.05.03 0 .4 0 .4c0 0-4.36-.03-4.4 0c.1.7.7 1.3 1.7 1.3c.6 0 1.2-.2 1.6-.6l.6 1c-.5.5-1.5.8-2.4.8c-1.7 0-3.1-1.2-3.1-3c0-1.7 1.3-3.1 3-3.1zM26.2 6h2.9c-.1-.5-.4-1.2-1.5-1.2c-.9 0-1.3.7-1.4 1.2z" stroke="none" fill="#282828"/></g></svg>