<?xml version="1.0" standalone="no"?><!DOCTYPE svg PUBLIC "-//W3C//DTD SVG 1.1//EN" "http://www.w3.org/Graphics/SVG/1.1/DTD/svg11.dtd"><svg xmlns="http://www.w3.org/2000/svg" version="1.1" width="104.4px" height="28.3px" viewBox="0 -6 104.4 28.3" style="top:-6px"><desc>HOUSEHOLDS</desc><defs/><g id="Polygon318283"><path d="m8.6 7.8H2.8v4.7H1.2V2h1.6v4.4h5.8V2h1.6v10.5H8.6V7.8zm8.7-6c3.2 0 5.3 2.3 5.3 5.5c0 3.1-2.1 5.4-5.3 5.4c-3.2 0-5.3-2.3-5.3-5.4c0-3.2 2.1-5.5 5.3-5.5zm0 1.4c-2.3 0-3.7 1.7-3.7 4.1c0 2.3 1.4 4 3.7 4c2.2 0 3.7-1.7 3.7-4c0-2.4-1.5-4.1-3.7-4.1zM24.4 2h1.6v6.4c0 1.8 1 2.9 2.9 2.9c1.8 0 2.8-1.1 2.8-2.9V2h1.6v6.4c0 2.6-1.5 4.3-4.4 4.3c-3 0-4.5-1.7-4.5-4.3V2zm11.4 7.8c.7.8 1.8 1.5 3.3 1.5c1.7 0 2.3-.9 2.3-1.6c0-1.1-1.2-1.4-2.5-1.8c-1.7-.4-3.7-.9-3.7-3.1c0-1.7 1.5-3 3.7-3c1.7 0 3 .5 3.9 1.5l-.9 1.1c-.8-.8-1.9-1.2-3.1-1.2c-1.2 0-2 .6-2 1.5c0 1 1.2 1.3 2.5 1.6c1.7.4 3.7 1 3.7 3.2c0 1.7-1.1 3.2-4 3.2c-1.9 0-3.2-.6-4.1-1.6l.9-1.3zM44.7 2h7.1v1.3h-5.5v3.1h5.4v1.4h-5.4v3.3h5.5v1.4h-7.1V2zm16.4 5.8h-5.9v4.7h-1.5V2h1.5v4.4h5.9V2h1.6v10.5h-1.6V7.8zm8.7-6c3.1 0 5.3 2.3 5.3 5.5c0 3.1-2.2 5.4-5.3 5.4c-3.2 0-5.4-2.3-5.4-5.4c0-3.2 2.2-5.5 5.4-5.5zm0 1.4c-2.3 0-3.7 1.7-3.7 4.1c0 2.3 1.4 4 3.7 4c2.2 0 3.7-1.7 3.7-4c0-2.4-1.5-4.1-3.7-4.1zM76.9 2h1.6v9.1h4.8v1.4h-6.4V2zm8 0s3.74-.05 3.7 0c3.3 0 5.5 2.2 5.5 5.3c0 3-2.2 5.2-5.5 5.2c.04.04-3.7 0-3.7 0V2zm3.7 9.1c2.5 0 3.9-1.7 3.9-3.8c0-2.2-1.4-4-3.9-4c.04.05-2.2 0-2.2 0v7.8s2.24.05 2.2 0zm7.6-1.3c.7.8 1.8 1.5 3.3 1.5c1.7 0 2.3-.9 2.3-1.6c0-1.1-1.2-1.4-2.6-1.8c-1.7-.4-3.6-.9-3.6-3.1c0-1.7 1.5-3 3.7-3c1.7 0 3 .5 3.9 1.5l-.9 1.1c-.8-.8-2-1.2-3.1-1.2c-1.2 0-2 .6-2 1.5c0 1 1.2 1.3 2.5 1.6c1.7.4 3.7 1 3.7 3.2c0 1.7-1.1 3.2-4 3.2c-1.9 0-3.2-.6-4.2-1.6l1-1.3z" stroke="none" fill="#3797ef"/></g></svg>