<?xml version="1.0" standalone="no"?><!DOCTYPE svg PUBLIC "-//W3C//DTD SVG 1.1//EN" "http://www.w3.org/Graphics/SVG/1.1/DTD/svg11.dtd"><svg xmlns="http://www.w3.org/2000/svg" version="1.1" width="62px" height="16.9px" viewBox="0 -4 62 16.9" style="top:-4px"><desc>GLA</desc><defs/><g id="Polygon268490"><path d="m3.5 1c1.2 0 1.9.5 2.4 1.2l-.7.4c-.4-.4-1-.8-1.7-.8c-1.2 0-2.2 1-2.2 2.3c0 1.4 1 2.3 2.2 2.3c.7 0 1.3-.3 1.5-.6c.05.03 0-1 0-1H3.1v-.8h2.8s.05 2.17 0 2.2c-.5.6-1.4 1-2.4 1C1.8 7.2.4 6 .4 4.1C.4 2.2 1.8 1 3.5 1zm3.6.1h.9v5.2h2.7v.8H7.1v-6zm8.4 4.8h-2.9l-.5 1.2h-1l2.4-6h1.1l2.4 6h-1l-.5-1.2zm-2.7-.8h2.5L14 1.9l-1.2 3.2z" stroke="none" fill="#000"/></g></svg>