<?xml version="1.0" standalone="no"?>
<!DOCTYPE svg PUBLIC "-//W3C//DTD SVG 1.1//EN" "http://www.w3.org/Graphics/SVG/1.1/DTD/svg11.dtd">
<svg xmlns="http://www.w3.org/2000/svg" version="1.1" width="179px" height="27.9px" viewBox="0 -6 179 27.9" style="top:-6px">
  <desc>CONTACT INFORMATION</desc>
  <defs/>
  <g id="Polygon204120">
    <path d="M 0.7 7.3 C 0.7 4 3.1 1.8 6.2 1.8 C 8.2 1.8 9.5 2.8 10.4 4 C 10.4 4 9 4.7 9 4.7 C 8.5 3.8 7.4 3.2 6.2 3.2 C 4 3.2 2.4 4.9 2.4 7.3 C 2.4 9.6 4 11.3 6.2 11.3 C 7.4 11.3 8.5 10.7 9 9.8 C 9 9.8 10.4 10.5 10.4 10.5 C 9.5 11.7 8.2 12.7 6.2 12.7 C 3.1 12.7 0.7 10.5 0.7 7.3 Z M 16.7 1.8 C 19.9 1.8 22 4.1 22 7.3 C 22 10.4 19.9 12.7 16.7 12.7 C 13.5 12.7 11.4 10.4 11.4 7.3 C 11.4 4.1 13.5 1.8 16.7 1.8 Z M 16.7 3.2 C 14.4 3.2 13 4.9 13 7.3 C 13 9.6 14.4 11.3 16.7 11.3 C 18.9 11.3 20.4 9.6 20.4 7.3 C 20.4 4.9 18.9 3.2 16.7 3.2 Z M 25.4 4.4 L 25.4 12.5 L 23.8 12.5 L 23.8 2 L 25.4 2 L 31.2 9.9 L 31.2 2 L 32.8 2 L 32.8 12.5 L 31.2 12.5 L 25.4 4.4 Z M 37.6 3.4 L 34.3 3.4 L 34.3 2 L 42.4 2 L 42.4 3.4 L 39.1 3.4 L 39.1 12.5 L 37.6 12.5 L 37.6 3.4 Z M 49.6 10.4 L 44.4 10.4 L 43.5 12.5 L 41.8 12.5 L 46 2 L 48 2 L 52.2 12.5 L 50.4 12.5 L 49.6 10.4 Z M 44.8 8.9 L 49.1 8.9 L 47 3.3 L 44.8 8.9 Z M 52.3 7.3 C 52.3 4 54.7 1.8 57.7 1.8 C 59.8 1.8 61.1 2.8 61.9 4 C 61.9 4 60.6 4.7 60.6 4.7 C 60 3.8 59 3.2 57.7 3.2 C 55.6 3.2 53.9 4.9 53.9 7.3 C 53.9 9.6 55.6 11.3 57.7 11.3 C 59 11.3 60 10.7 60.6 9.8 C 60.6 9.8 61.9 10.5 61.9 10.5 C 61.1 11.7 59.8 12.7 57.7 12.7 C 54.7 12.7 52.3 10.5 52.3 7.3 Z M 65.9 3.4 L 62.6 3.4 L 62.6 2 L 70.8 2 L 70.8 3.4 L 67.5 3.4 L 67.5 12.5 L 65.9 12.5 L 65.9 3.4 Z M 76.2 2 L 77.8 2 L 77.8 12.5 L 76.2 12.5 L 76.2 2 Z M 81.6 4.4 L 81.6 12.5 L 80 12.5 L 80 2 L 81.6 2 L 87.4 9.9 L 87.4 2 L 89 2 L 89 12.5 L 87.5 12.5 L 81.6 4.4 Z M 91.2 2 L 98.3 2 L 98.3 3.4 L 92.8 3.4 L 92.8 6.4 L 98.2 6.4 L 98.2 7.8 L 92.8 7.8 L 92.8 12.5 L 91.2 12.5 L 91.2 2 Z M 104.8 1.8 C 107.9 1.8 110.1 4.1 110.1 7.3 C 110.1 10.4 107.9 12.7 104.8 12.7 C 101.6 12.7 99.4 10.4 99.4 7.3 C 99.4 4.1 101.6 1.8 104.8 1.8 Z M 104.8 3.2 C 102.5 3.2 101.1 4.9 101.1 7.3 C 101.1 9.6 102.5 11.3 104.8 11.3 C 107 11.3 108.5 9.6 108.5 7.3 C 108.5 4.9 107 3.2 104.8 3.2 Z M 115.4 8.5 L 113.4 8.5 L 113.4 12.5 L 111.9 12.5 L 111.9 2 C 111.9 2 116.32 1.95 116.3 2 C 118.3 2 119.7 3.3 119.7 5.2 C 119.7 7.1 118.4 8.1 117.1 8.3 C 117.08 8.31 119.8 12.5 119.8 12.5 L 118 12.5 L 115.4 8.5 Z M 116.1 3.4 C 116.11 3.35 113.4 3.4 113.4 3.4 L 113.4 7.1 C 113.4 7.1 116.11 7.07 116.1 7.1 C 117.3 7.1 118.1 6.3 118.1 5.2 C 118.1 4.1 117.3 3.4 116.1 3.4 Z M 130.6 4.1 L 127.2 12.5 L 126.5 12.5 L 123.1 4.1 L 123.1 12.5 L 121.5 12.5 L 121.5 2 L 123.8 2 L 126.9 9.6 L 129.9 2 L 132.2 2 L 132.2 12.5 L 130.6 12.5 L 130.6 4.1 Z M 141.1 10.4 L 135.9 10.4 L 135.1 12.5 L 133.3 12.5 L 137.5 2 L 139.5 2 L 143.7 12.5 L 142 12.5 L 141.1 10.4 Z M 136.4 8.9 L 140.7 8.9 L 138.5 3.3 L 136.4 8.9 Z M 146.4 3.4 L 143.1 3.4 L 143.1 2 L 151.2 2 L 151.2 3.4 L 148 3.4 L 148 12.5 L 146.4 12.5 L 146.4 3.4 Z M 152.7 2 L 154.3 2 L 154.3 12.5 L 152.7 12.5 L 152.7 2 Z M 161.4 1.8 C 164.6 1.8 166.7 4.1 166.7 7.3 C 166.7 10.4 164.6 12.7 161.4 12.7 C 158.2 12.7 156.1 10.4 156.1 7.3 C 156.1 4.1 158.2 1.8 161.4 1.8 Z M 161.4 3.2 C 159.1 3.2 157.7 4.9 157.7 7.3 C 157.7 9.6 159.1 11.3 161.4 11.3 C 163.7 11.3 165.1 9.6 165.1 7.3 C 165.1 4.9 163.7 3.2 161.4 3.2 Z M 170.1 4.4 L 170.1 12.5 L 168.5 12.5 L 168.5 2 L 170.1 2 L 175.9 9.9 L 175.9 2 L 177.5 2 L 177.5 12.5 L 176 12.5 L 170.1 4.4 Z " stroke="none" fill="#3797ef"/>
  </g>
</svg>