<?xml version="1.0" standalone="no"?><!DOCTYPE svg PUBLIC "-//W3C//DTD SVG 1.1//EN" "http://www.w3.org/Graphics/SVG/1.1/DTD/svg11.dtd"><svg xmlns="http://www.w3.org/2000/svg" version="1.1" width="134px" height="47.4px" viewBox="0 -10 134 47.4" style="top:-10px"><desc>Agent 1</desc><defs/><g id="Polygon48049"><path d="m8.7 3.2c5.2 0 7.3 5 7.3 9.7c0 4.7-2.1 9.7-7.3 9.7c-5.3 0-7.4-5-7.4-9.7c0-4.7 2.1-9.7 7.4-9.7zm0 2.5c-3.4 0-4.5 3.5-4.5 7.2c0 3.7 1.1 7.2 4.5 7.2c3.3 0 4.5-3.5 4.5-7.2c0-3.7-1.2-7.2-4.5-7.2zm10.9 13.4c1 0 1.8.8 1.8 1.7c0 1-.8 1.8-1.8 1.8c-1 0-1.8-.8-1.8-1.8c0-.9.8-1.7 1.8-1.7zM31.4 3.2c5.2 0 7.3 5 7.3 9.7c0 4.7-2.1 9.7-7.3 9.7c-5.3 0-7.4-5-7.4-9.7c0-4.7 2.1-9.7 7.4-9.7zm0 2.5c-3.4 0-4.5 3.5-4.5 7.2c0 3.7 1.1 7.2 4.5 7.2c3.3 0 4.5-3.5 4.5-7.2c0-3.7-1.2-7.2-4.5-7.2zm17-2.5c5.2 0 7.4 5 7.4 9.7c0 4.7-2.2 9.7-7.4 9.7c-5.2 0-7.3-5-7.3-9.7c0-4.7 2.1-9.7 7.3-9.7zm0 2.5c-3.3 0-4.5 3.5-4.5 7.2c0 3.7 1.2 7.2 4.5 7.2c3.4 0 4.5-3.5 4.5-7.2c0-3.7-1.1-7.2-4.5-7.2zm13.8-2.5c2.8 0 4.7 2 4.7 4.7c0 2.6-1.9 4.6-4.7 4.6c-2.7 0-4.5-2-4.5-4.6c0-2.7 1.8-4.7 4.5-4.7zm10.3.3h1.7L62.1 22.3h-1.6l12-18.8zM62.2 4.9c-1.5 0-2.6 1.2-2.6 3c0 1.7 1.1 3 2.6 3c1.6 0 2.7-1.3 2.7-3c0-1.8-1.1-3-2.7-3zm10 8.4c2.8 0 4.6 2.1 4.6 4.7c0 2.6-1.8 4.6-4.6 4.6c-2.7 0-4.6-2-4.6-4.6c0-2.6 1.9-4.7 4.6-4.7zm0 1.7c-1.6 0-2.7 1.3-2.7 3c0 1.7 1.1 3 2.7 3c1.6 0 2.7-1.3 2.7-3c0-1.7-1.1-3-2.7-3z" stroke="none" fill="#282828"/></g></svg>