<?xml version="1.0" standalone="no"?><!DOCTYPE svg PUBLIC "-//W3C//DTD SVG 1.1//EN" "http://www.w3.org/Graphics/SVG/1.1/DTD/svg11.dtd"><svg xmlns="http://www.w3.org/2000/svg" version="1.1" width="215.2px" height="73.2px" viewBox="0 -9 215.2 73.2" style="top:-9px"><desc>Tony</desc><defs/><g id="Polygon313096"><path d="m9.7 48H1.4V28.3h3.3v16.8h5v2.9zm7.8-4.4h-3.6l-.7 4.4H10l3.7-19.7h4.1L21.5 48h-3.3l-.7-4.4zm-.4-2.7l-1.4-8.8l-1.4 8.8h2.8zm11.8-5.6v-2.7c0-1.3-.7-1.7-1.7-1.7c-.9 0-1.6.4-1.6 1.7v1.3c0 1 .3 1.5 1.2 2l2.3 1.3c1.9 1.1 3.1 2 3.1 4.1v2.8c0 3.1-1.9 4.2-4.9 4.2h-.1c-3 0-4.9-1.1-4.9-4.2c.04.03 0-3.4 0-3.4h3.3s-.04 2.98 0 3c0 1.2.7 1.7 1.7 1.7c.9 0 1.6-.5 1.6-1.7v-1.6c0-1-.3-1.5-1.3-2l-2.2-1.3c-2-1.1-3.1-2-3.1-4.1v-2.6c0-2.9 2.2-4.1 4.9-4.1h.1c2.7 0 4.8 1.2 4.8 4.1v3.2h-3.2zm14-4.2h-3.3V48h-3.3V31.1H33v-2.8h9.9v2.8z" stroke="none" fill="#282828"/></g><g id="Polygon313095"><path d="m1.4 2.3h8.6v2.8H4.7v5.6h4.4v2.9H4.7v8.4H1.4V2.3zM11.7 22V2.3h3.2V22h-3.2zM25 22l-2.5-7.9h-1.6v7.9h-3.3V2.3s5.1-.04 5.1 0c3 0 5 1.1 5 4.1v3.6c0 1.9-.8 3-2.2 3.6c.03.04 2.9 8.4 2.9 8.4H25zm-4.1-10.7s1.69.02 1.7 0c1.1 0 1.8-.4 1.8-1.8V6.9c0-1.4-.7-1.8-1.8-1.8c-.01.04-1.7 0-1.7 0v6.2zm15.2-2V6.6c0-1.3-.7-1.7-1.7-1.7c-.9 0-1.6.4-1.6 1.7v1.3c0 1 .3 1.5 1.2 2l2.3 1.3c1.9 1.1 3.1 2 3.1 4.1v2.8c0 3.1-1.9 4.2-4.9 4.2h-.1c-3 0-4.9-1.1-4.9-4.2c.04.03 0-3.4 0-3.4h3.3s-.04 2.98 0 3c0 1.2.7 1.7 1.7 1.7c.9 0 1.6-.5 1.6-1.7v-1.6c0-1-.3-1.5-1.3-2l-2.2-1.3c-2-1.1-3.1-2-3.1-4.1V6.1c0-2.9 2.2-4.1 4.9-4.1h.1c2.7 0 4.8 1.2 4.8 4.1v3.2h-3.2zm14-4.2h-3.3V22h-3.3V5.1h-3.3V2.3h9.9v2.8z" stroke="none" fill="#282828"/></g></svg>