<?xml version="1.0" standalone="no"?><!DOCTYPE svg PUBLIC "-//W3C//DTD SVG 1.1//EN" "http://www.w3.org/Graphics/SVG/1.1/DTD/svg11.dtd"><svg xmlns="http://www.w3.org/2000/svg" version="1.1" width="184px" height="16.9px" viewBox="0 -4 184 16.9" style="top:-4px"><desc>13</desc><defs/><g id="Polygon296722"><path d="m1.7 2.3l-1 1l-.5-.5l1.6-1.7h.8v6h-.9V2.3zM4 5.7c.3.4 1 .7 1.6.7c.9 0 1.4-.4 1.4-1c0-.7-.6-1-1.4-1c-.3 0-.6 0-.7.1v-.9h.7c.7 0 1.3-.2 1.3-.8c0-.7-.6-1-1.3-1c-.6 0-1.1.3-1.6.7L3.5 2c.5-.6 1.2-1 2.2-1c1.2 0 2.1.6 2.1 1.6c0 .9-.7 1.3-1.3 1.4c.5.1 1.4.5 1.4 1.5c0 1-.9 1.7-2.2 1.7c-1.1 0-1.8-.4-2.2-1l.5-.5z" stroke="none" fill="#88898a"/></g></svg>