<?xml version="1.0" standalone="no"?><!DOCTYPE svg PUBLIC "-//W3C//DTD SVG 1.1//EN" "http://www.w3.org/Graphics/SVG/1.1/DTD/svg11.dtd"><svg xmlns="http://www.w3.org/2000/svg" version="1.1" width="502px" height="27.9px" viewBox="0 -6 502 27.9" style="top:-6px"><desc>7225 Rivers Ave, Charleston, SC 29406</desc><defs/><g id="Polygon84805"><path d="m192.8 3.4h-5.6V2h7.4v1l-4.2 9.5h-1.7l4.1-9.1zm3.1 7.9c4-3.1 5.8-4.6 5.8-6.3c0-1.3-1.1-1.8-2.1-1.8c-1.2 0-2.2.5-2.9 1.3l-.9-1c.9-1.1 2.3-1.7 3.8-1.7c1.9 0 3.7 1.1 3.7 3.2c0 2.1-2 3.9-4.9 6.2c.01-.05 4.9 0 4.9 0v1.3h-7.4s-.02-1.21 0-1.2zm9.4 0c3.9-3.1 5.8-4.6 5.8-6.3c0-1.3-1.1-1.8-2.1-1.8c-1.3 0-2.2.5-2.9 1.3l-.9-1c.9-1.1 2.3-1.7 3.8-1.7c1.9 0 3.7 1.1 3.7 3.2c0 2.1-2 3.9-4.9 6.2c-.01-.05 4.9 0 4.9 0v1.3h-7.4s-.03-1.21 0-1.2zm10.4-1.3c.7.8 1.7 1.3 2.9 1.3c1.4 0 2.3-.9 2.3-2c0-1.3-.9-2.1-2.2-2.1c-1 0-1.7.3-2.4.9c-.03.03-1.2-.3-1.2-.3V2h6.7v1.4h-5.1s.02 3.33 0 3.3c.5-.5 1.4-.9 2.4-.9c1.8 0 3.4 1.2 3.4 3.4c0 2.2-1.6 3.5-3.9 3.5c-1.8 0-3-.6-3.8-1.6l.9-1.1zm16.4-1.5h-2v4h-1.5V2s4.41-.05 4.4 0c2 0 3.4 1.3 3.4 3.2c0 1.9-1.3 2.9-2.6 3.1c-.02.01 2.7 4.2 2.7 4.2h-1.8l-2.6-4zm.7-5.1c.01-.05-2.7 0-2.7 0v3.7s2.71-.03 2.7 0c1.2 0 2-.8 2-1.9c0-1.1-.8-1.8-2-1.8zm5.6-1.4h1.6v10.5h-1.6V2zm2.8 0h1.8l3.4 8.8l3.4-8.8h1.8l-4.2 10.5h-2L241.2 2zm11.7 0h7.1v1.4h-5.5v3h5.4v1.4h-5.4v3.4h5.5v1.3h-7.1V2zm12.7 6.5h-2v4H262V2s4.46-.05 4.5 0c2 0 3.4 1.3 3.4 3.2c0 1.9-1.3 2.9-2.7 3.1c.02.01 2.7 4.2 2.7 4.2h-1.8l-2.5-4zm.7-5.1c-.05-.05-2.7 0-2.7 0v3.7s2.65-.03 2.7 0c1.1 0 1.9-.8 1.9-1.9c0-1.1-.8-1.8-1.9-1.8zm5.8 6.4c.7.8 1.8 1.5 3.3 1.5c1.7 0 2.3-.8 2.3-1.6c0-1.1-1.2-1.4-2.5-1.8c-1.7-.4-3.7-.9-3.7-3.1c0-1.7 1.5-3 3.7-3c1.7 0 3 .5 3.9 1.5l-.9 1.1c-.8-.8-1.9-1.2-3.1-1.2c-1.2 0-2 .6-2 1.5c0 1 1.2 1.3 2.5 1.6c1.7.4 3.7 1 3.7 3.2c0 1.7-1.1 3.2-4 3.2c-1.9 0-3.2-.6-4.1-1.6l.9-1.3zm19.9.6h-5.2l-.9 2.1h-1.7L288.4 2h2l4.2 10.5h-1.8l-.8-2.1zm-4.7-1.5h4.2l-2.1-5.6l-2.1 5.6zm6.6-6.9h1.8l3.4 8.8l3.4-8.8h1.8l-4.2 10.5h-2L293.9 2zm11.7 0h7.1v1.4h-5.5v3h5.4v1.4h-5.4v3.4h5.5v1.3h-7.1V2zm8.8 12.1c.6-.4 1-1 1.1-1.5h-.2c-.5 0-.9-.4-.9-.9c0-.5.5-1 1-1c.6 0 1.1.5 1.1 1.4c0 1-.6 1.9-1.4 2.5l-.7-.5zm7.7-6.8c0-3.3 2.5-5.5 5.5-5.5c2.1 0 3.4 1 4.2 2.2l-1.4.7c-.5-.9-1.6-1.5-2.8-1.5c-2.2 0-3.8 1.7-3.8 4.1c0 2.3 1.6 4 3.8 4c1.2 0 2.3-.6 2.8-1.5l1.4.7c-.9 1.2-2.1 2.2-4.2 2.2c-3 0-5.5-2.2-5.5-5.4zm18.7.5H335v4.7h-1.6V2h1.6v4.4h5.8V2h1.6v10.5h-1.6V7.8zm10.7 2.6h-5.2l-.9 2.1h-1.7L347.9 2h2l4.2 10.5h-1.8l-.8-2.1zm-4.8-1.5h4.3l-2.1-5.6l-2.2 5.6zm12.2-.4h-2v4h-1.6V2s4.5-.05 4.5 0c2 0 3.4 1.3 3.4 3.2c0 1.9-1.3 2.9-2.6 3.1c-.04.01 2.7 4.2 2.7 4.2h-1.9l-2.5-4zm.7-5.1c-.01-.05-2.7 0-2.7 0v3.7s2.69-.03 2.7 0c1.1 0 2-.8 2-1.9c0-1.1-.9-1.8-2-1.8zm5.6-1.4h1.5v9.2h4.9v1.3h-6.4V2zm8.1 0h7.1v1.4h-5.5v3h5.4v1.4h-5.4v3.4h5.5v1.3h-7.1V2zm9.4 7.8c.7.8 1.8 1.5 3.3 1.5c1.7 0 2.3-.8 2.3-1.6c0-1.1-1.2-1.4-2.5-1.8c-1.7-.4-3.7-.9-3.7-3.1c0-1.7 1.5-3 3.7-3c1.7 0 3 .5 3.9 1.5l-.9 1.1c-.8-.8-2-1.2-3.1-1.2c-1.2 0-2 .6-2 1.5c0 1 1.2 1.3 2.5 1.6c1.7.4 3.7 1 3.7 3.2c0 1.7-1.1 3.2-4 3.2c-1.9 0-3.2-.6-4.1-1.6l.9-1.3zm11.5-6.4h-3.3V2h8.2v1.4h-3.3v9.1h-1.6V3.4zm11-1.6c3.2 0 5.4 2.3 5.4 5.5c0 3.1-2.2 5.4-5.4 5.4c-3.1 0-5.3-2.3-5.3-5.4c0-3.2 2.2-5.5 5.3-5.5zm0 1.4c-2.2 0-3.7 1.7-3.7 4.1c0 2.3 1.5 4 3.7 4c2.3 0 3.7-1.7 3.7-4c0-2.4-1.4-4.1-3.7-4.1zm8.9 1.2v8.1h-1.6V2h1.6l5.8 7.9V2h1.6v10.5h-1.6l-5.8-8.1zm9.5 9.7c.5-.4 1-1 1-1.5h-.2c-.5 0-.9-.4-.9-.9c0-.5.5-1 1-1c.6 0 1.1.5 1.1 1.4c0 1-.6 1.9-1.4 2.5l-.6-.5zm8.4-4.3c.7.8 1.8 1.5 3.3 1.5c1.7 0 2.3-.8 2.3-1.6c0-1.1-1.2-1.4-2.5-1.8c-1.7-.4-3.7-.9-3.7-3.1c0-1.7 1.5-3 3.7-3c1.7 0 3 .5 3.9 1.5l-.9 1.1c-.8-.8-2-1.2-3.1-1.2c-1.2 0-2 .6-2 1.5c0 1 1.2 1.3 2.5 1.6c1.7.4 3.7 1 3.7 3.2c0 1.7-1.1 3.2-4 3.2c-1.9 0-3.2-.6-4.2-1.6l1-1.3zm8.6-2.5c0-3.3 2.4-5.5 5.5-5.5c2 0 3.3 1 4.2 2.2l-1.4.7c-.5-.9-1.6-1.5-2.8-1.5c-2.2 0-3.8 1.7-3.8 4.1c0 2.3 1.6 4 3.8 4c1.2 0 2.3-.6 2.8-1.5l1.4.7c-.9 1.2-2.2 2.2-4.2 2.2c-3.1 0-5.5-2.2-5.5-5.4zm15 4c4-3.1 5.8-4.6 5.8-6.3c0-1.3-1-1.8-2.1-1.8c-1.2 0-2.2.5-2.8 1.3l-1-1c.9-1.1 2.3-1.7 3.8-1.7c1.9 0 3.7 1.1 3.7 3.2c0 2.1-2 3.9-4.9 6.2c.03-.05 5 0 5 0v1.3h-7.5v-1.2zm10.6-1c.5.6 1.2 1 2.2 1c2 0 2.9-1.9 2.9-3.8v-.4c-.5.7-1.6 1.6-2.9 1.6c-1.9 0-3.6-1.2-3.6-3.4c0-1.9 1.5-3.5 3.9-3.5c3 0 4.2 2.5 4.2 5.5c0 2.9-1.5 5.4-4.5 5.4c-1.3 0-2.3-.5-3-1.2l.8-1.2zm2.5-7.1c-1.5 0-2.2 1.1-2.2 2c0 1.5 1 2.1 2.3 2.1c.9 0 1.9-.5 2.4-1.4c0-1.2-.7-2.7-2.5-2.7zm10.4 6.8h-5V8.7l4.5-6.7h2.1v6.6h1.5v1.4h-1.5v2.5h-1.6V10zm-3.4-1.4h3.4V3.4l-3.4 5.2zm11.8-6.8c3 0 4.2 2.8 4.2 5.5c0 2.6-1.2 5.4-4.2 5.4c-2.9 0-4.1-2.8-4.1-5.4c0-2.7 1.2-5.5 4.1-5.5zm0 1.4c-1.8 0-2.5 2-2.5 4.1c0 2 .7 4 2.5 4c1.9 0 2.6-2 2.6-4c0-2.1-.7-4.1-2.6-4.1zm10.1-1.4c1.4 0 2.3.5 3 1.2l-.7 1.2c-.6-.6-1.2-1-2.3-1c-1.9 0-2.8 1.9-2.8 3.8v.4c.4-.7 1.6-1.6 2.9-1.6c1.9 0 3.5 1.2 3.5 3.4c0 1.9-1.5 3.5-3.8 3.5c-3.1 0-4.3-2.5-4.3-5.4c0-3 1.5-5.5 4.5-5.5zm-.3 5.4c-1 0-2 .6-2.5 1.4c.1 1.2.8 2.7 2.5 2.7c1.5 0 2.3-1.1 2.3-2c0-1.4-1.1-2.1-2.3-2.1z" stroke="none" fill="#88898a"/></g></svg>