<?xml version="1.0" standalone="no"?><!DOCTYPE svg PUBLIC "-//W3C//DTD SVG 1.1//EN" "http://www.w3.org/Graphics/SVG/1.1/DTD/svg11.dtd"><svg xmlns="http://www.w3.org/2000/svg" version="1.1" width="100.3px" height="16.9px" viewBox="0 -4 100.3 16.9" style="top:-4px"><desc>NUMBER OF LOCATIONS</desc><defs/><g id="Polygon290834"><path d="m1.6 2.5v4.6h-.9v-6h.9l3.3 4.5V1.1h.9v6h-.9L1.6 2.5zM7 1.1h.9s.01 3.63 0 3.6c0 1.1.6 1.7 1.6 1.7c1.1 0 1.6-.6 1.6-1.7c.04.03 0-3.6 0-3.6h1s-.05 3.65 0 3.7c0 1.4-.9 2.4-2.6 2.4c-1.7 0-2.5-1-2.5-2.4V1.1zm11.5 1.2l-2 4.8h-.4l-1.9-4.8v4.8h-.9v-6h1.3l1.7 4.3l1.8-4.3h1.3v6h-.9V2.3zm2.1-1.2h2.8c1.1 0 1.7.7 1.7 1.5c0 .8-.5 1.3-1 1.4c.6.1 1.1.8 1.1 1.5c0 .9-.6 1.6-1.7 1.6h-2.9v-6zm2.7 2.6c.6 0 .9-.4.9-.9c0-.5-.3-.9-.9-.9h-1.8v1.8s1.76-.05 1.8 0zm0 2.6c.6 0 1-.3 1-.9c0-.5-.3-1-1-1c0 .05-1.8 0-1.8 0v1.9s1.8.02 1.8 0zm3-5.2h4v.8h-3.1v1.8h3v.7h-3v1.9h3.1v.8h-4v-6zm7.1 3.7h-1.2v2.3h-.9v-6h2.6c1.1 0 1.9.7 1.9 1.9c0 1-.7 1.6-1.5 1.7c-.01.01 1.5 2.4 1.5 2.4h-1l-1.4-2.3zm.3-2.9h-1.5v2.1h1.5c.7 0 1.2-.4 1.2-1c0-.7-.5-1.1-1.2-1.1zm8.1-.9c1.8 0 3 1.3 3 3.1c0 1.8-1.2 3.1-3 3.1c-1.8 0-3-1.3-3-3.1c0-1.8 1.2-3.1 3-3.1zm0 .8c-1.3 0-2.1 1-2.1 2.3c0 1.3.8 2.3 2.1 2.3c1.3 0 2.1-1 2.1-2.3c0-1.3-.8-2.3-2.1-2.3zm4-.7h4.1v.8h-3.2v1.8h3.1v.7h-3.1v2.7h-.9v-6zm7.2 0h.9v5.2h2.7v.8H53v-6zm7-.1c1.8 0 3 1.3 3 3.1c0 1.8-1.2 3.1-3 3.1c-1.8 0-3-1.3-3-3.1C57 2.3 58.2 1 60 1zm0 .8c-1.3 0-2.1 1-2.1 2.3c0 1.3.8 2.3 2.1 2.3c1.3 0 2.1-1 2.1-2.3c0-1.3-.8-2.3-2.1-2.3zm3.8 2.3c0-1.8 1.3-3.1 3-3.1c1.2 0 1.9.6 2.4 1.3l-.7.4c-.4-.5-1-.9-1.7-.9c-1.2 0-2.1 1-2.1 2.3c0 1.4.9 2.3 2.1 2.3c.7 0 1.3-.4 1.7-.9l.7.4c-.5.8-1.2 1.3-2.4 1.3c-1.7 0-3-1.2-3-3.1zm10 1.8h-3l-.4 1.2h-1l2.4-6h1.1l2.4 6h-1l-.5-1.2zm-2.7-.8h2.4l-1.2-3.2l-1.2 3.2zm5.7-3.2h-1.9v-.8h4.6v.8h-1.8v5.2h-.9V1.9zm3.6-.8h.9v6h-.9v-6zm4.9-.1c1.8 0 3 1.3 3 3.1c0 1.8-1.2 3.1-3 3.1c-1.8 0-3-1.3-3-3.1c0-1.8 1.2-3.1 3-3.1zm0 .8c-1.3 0-2.1 1-2.1 2.3c0 1.3.8 2.3 2.1 2.3c1.3 0 2.1-1 2.1-2.3c0-1.3-.8-2.3-2.1-2.3zm4.9.7v4.6h-.9v-6h.9l3.3 4.5V1.1h.9v6h-.9l-3.3-4.6zm5.6 3.1c.4.4 1 .8 1.9.8c1 0 1.3-.5 1.3-.9c0-.6-.7-.8-1.5-1c-.9-.3-2-.5-2-1.8c0-1 .8-1.7 2.1-1.7c.9 0 1.7.3 2.2.9l-.5.6c-.5-.5-1.1-.7-1.8-.7c-.6 0-1.1.4-1.1.9c0 .5.6.7 1.4.9c1 .2 2.1.5 2.1 1.8c0 .9-.6 1.8-2.3 1.8c-1 0-1.8-.4-2.3-.9l.5-.7z" stroke="none" fill="#3797ef"/></g></svg>