<?xml version="1.0" standalone="no"?>
<!DOCTYPE svg PUBLIC "-//W3C//DTD SVG 1.1//EN" "http://www.w3.org/Graphics/SVG/1.1/DTD/svg11.dtd">
<svg xmlns="http://www.w3.org/2000/svg" version="1.1" width="158px" height="27.9px" viewBox="0 -6 158 27.9" style="top:-6px">
  <desc>Term Remaining</desc>
  <defs/>
  <g id="Polygon276515">
    <path d="M 3.8 3.4 L 0.5 3.4 L 0.5 2 L 8.6 2 L 8.6 3.4 L 5.4 3.4 L 5.4 12.5 L 3.8 12.5 L 3.8 3.4 Z M 11.9 4.7 C 14.2 4.7 15.6 6.5 15.6 8.8 C 15.6 8.83 15.6 9.2 15.6 9.2 C 15.6 9.2 9.53 9.18 9.5 9.2 C 9.6 10.5 10.6 11.6 12.1 11.6 C 12.9 11.6 13.8 11.2 14.4 10.7 C 14.4 10.7 15.1 11.6 15.1 11.6 C 14.3 12.3 13.2 12.7 12 12.7 C 9.7 12.7 8 11.1 8 8.7 C 8 6.5 9.6 4.7 11.9 4.7 Z M 9.5 8.1 C 9.5 8.1 14.2 8.1 14.2 8.1 C 14.2 7.1 13.5 5.9 11.9 5.9 C 10.3 5.9 9.6 7.1 9.5 8.1 Z M 17.4 4.9 L 18.8 4.9 C 18.8 4.9 18.82 6.05 18.8 6.1 C 19.4 5.3 20.3 4.7 21.3 4.7 C 21.3 4.7 21.3 6.1 21.3 6.1 C 21.2 6.1 21 6.1 20.8 6.1 C 20.1 6.1 19.2 6.6 18.8 7.2 C 18.82 7.21 18.8 12.5 18.8 12.5 L 17.4 12.5 L 17.4 4.9 Z M 32.1 7.4 C 32.1 6.5 31.7 6 30.7 6 C 30 6 29.2 6.5 28.8 7.1 C 28.84 7.05 28.8 12.5 28.8 12.5 L 27.4 12.5 C 27.4 12.5 27.41 7.43 27.4 7.4 C 27.4 6.5 27 6 26.1 6 C 25.3 6 24.6 6.5 24.2 7.1 C 24.19 7.07 24.2 12.5 24.2 12.5 L 22.8 12.5 L 22.8 4.9 L 24.2 4.9 C 24.2 4.9 24.19 5.95 24.2 6 C 24.5 5.5 25.5 4.7 26.7 4.7 C 27.8 4.7 28.5 5.3 28.7 6.1 C 29.2 5.4 30.2 4.7 31.3 4.7 C 32.7 4.7 33.5 5.5 33.5 7 C 33.51 7 33.5 12.5 33.5 12.5 L 32.1 12.5 C 32.1 12.5 32.08 7.43 32.1 7.4 Z M 43.5 8.5 L 41.5 8.5 L 41.5 12.5 L 39.9 12.5 L 39.9 2 C 39.9 2 44.38 1.95 44.4 2 C 46.4 2 47.8 3.3 47.8 5.2 C 47.8 7.1 46.5 8.1 45.1 8.3 C 45.14 8.31 47.9 12.5 47.9 12.5 L 46 12.5 L 43.5 8.5 Z M 44.2 3.4 C 44.17 3.35 41.5 3.4 41.5 3.4 L 41.5 7.1 C 41.5 7.1 44.17 7.07 44.2 7.1 C 45.3 7.1 46.1 6.3 46.1 5.2 C 46.1 4.1 45.3 3.4 44.2 3.4 Z M 52.6 4.7 C 54.9 4.7 56.3 6.5 56.3 8.8 C 56.32 8.83 56.3 9.2 56.3 9.2 C 56.3 9.2 50.25 9.18 50.3 9.2 C 50.4 10.5 51.3 11.6 52.9 11.6 C 53.7 11.6 54.6 11.2 55.1 10.7 C 55.1 10.7 55.8 11.6 55.8 11.6 C 55 12.3 54 12.7 52.7 12.7 C 50.4 12.7 48.7 11.1 48.7 8.7 C 48.7 6.5 50.3 4.7 52.6 4.7 Z M 50.2 8.1 C 50.2 8.1 54.9 8.1 54.9 8.1 C 54.9 7.1 54.2 5.9 52.6 5.9 C 51 5.9 50.3 7.1 50.2 8.1 Z M 67.4 7.4 C 67.4 6.5 67 6 66.1 6 C 65.3 6 64.6 6.5 64.2 7.1 C 64.2 7.05 64.2 12.5 64.2 12.5 L 62.8 12.5 C 62.8 12.5 62.77 7.43 62.8 7.4 C 62.8 6.5 62.4 6 61.4 6 C 60.7 6 59.9 6.5 59.5 7.1 C 59.54 7.07 59.5 12.5 59.5 12.5 L 58.1 12.5 L 58.1 4.9 L 59.5 4.9 C 59.5 4.9 59.54 5.95 59.5 6 C 59.9 5.5 60.9 4.7 62 4.7 C 63.2 4.7 63.9 5.3 64.1 6.1 C 64.5 5.4 65.6 4.7 66.7 4.7 C 68.1 4.7 68.9 5.5 68.9 7 C 68.86 7 68.9 12.5 68.9 12.5 L 67.4 12.5 C 67.4 12.5 67.44 7.43 67.4 7.4 Z M 75.9 11.7 C 75.3 12.4 74.4 12.7 73.4 12.7 C 72.1 12.7 70.7 11.9 70.7 10.2 C 70.7 8.4 72.1 7.7 73.4 7.7 C 74.4 7.7 75.3 8 75.9 8.7 C 75.9 8.7 75.9 7.4 75.9 7.4 C 75.9 6.5 75.1 5.9 74 5.9 C 73.1 5.9 72.4 6.2 71.7 6.9 C 71.7 6.9 71.1 5.9 71.1 5.9 C 71.9 5.1 73 4.7 74.2 4.7 C 75.9 4.7 77.3 5.4 77.3 7.4 C 77.3 7.37 77.3 12.5 77.3 12.5 L 75.9 12.5 C 75.9 12.5 75.87 11.71 75.9 11.7 Z M 75.9 9.6 C 75.4 9 74.7 8.7 73.9 8.7 C 72.9 8.7 72.1 9.3 72.1 10.2 C 72.1 11.1 72.9 11.7 73.9 11.7 C 74.7 11.7 75.4 11.4 75.9 10.9 C 75.9 10.9 75.9 9.6 75.9 9.6 Z M 79.4 2.7 C 79.4 2.2 79.8 1.8 80.3 1.8 C 80.8 1.8 81.2 2.2 81.2 2.7 C 81.2 3.2 80.8 3.6 80.3 3.6 C 79.8 3.6 79.4 3.2 79.4 2.7 Z M 79.6 4.9 L 81 4.9 L 81 12.5 L 79.6 12.5 L 79.6 4.9 Z M 88.5 7.6 C 88.5 6.4 87.8 6 86.8 6 C 85.9 6 85.1 6.5 84.7 7.1 C 84.71 7.07 84.7 12.5 84.7 12.5 L 83.3 12.5 L 83.3 4.9 L 84.7 4.9 C 84.7 4.9 84.71 5.95 84.7 6 C 85.2 5.3 86.2 4.7 87.4 4.7 C 89.1 4.7 89.9 5.5 89.9 7.2 C 89.89 7.16 89.9 12.5 89.9 12.5 L 88.5 12.5 C 88.5 12.5 88.47 7.64 88.5 7.6 Z M 91.9 2.7 C 91.9 2.2 92.4 1.8 92.9 1.8 C 93.4 1.8 93.8 2.2 93.8 2.7 C 93.8 3.2 93.4 3.6 92.9 3.6 C 92.4 3.6 91.9 3.2 91.9 2.7 Z M 92.2 4.9 L 93.6 4.9 L 93.6 12.5 L 92.2 12.5 L 92.2 4.9 Z M 101 7.6 C 101 6.4 100.4 6 99.4 6 C 98.5 6 97.7 6.5 97.3 7.1 C 97.29 7.07 97.3 12.5 97.3 12.5 L 95.9 12.5 L 95.9 4.9 L 97.3 4.9 C 97.3 4.9 97.29 5.95 97.3 6 C 97.8 5.3 98.8 4.7 100 4.7 C 101.6 4.7 102.5 5.5 102.5 7.2 C 102.47 7.16 102.5 12.5 102.5 12.5 L 101 12.5 C 101 12.5 101.04 7.64 101 7.6 Z M 105.4 13.5 C 106 14.2 106.8 14.5 107.8 14.5 C 109 14.5 110.2 13.9 110.2 12.3 C 110.2 12.3 110.2 11.3 110.2 11.3 C 109.6 12.1 108.7 12.6 107.7 12.6 C 105.7 12.6 104.3 11.2 104.3 8.6 C 104.3 6.2 105.7 4.7 107.7 4.7 C 108.7 4.7 109.6 5.2 110.2 6 C 110.21 5.99 110.2 4.9 110.2 4.9 L 111.6 4.9 C 111.6 4.9 111.64 12.24 111.6 12.2 C 111.6 14.9 109.7 15.7 107.8 15.7 C 106.5 15.7 105.6 15.4 104.7 14.5 C 104.7 14.5 105.4 13.5 105.4 13.5 Z M 110.2 7.1 C 109.8 6.5 108.9 6 108.1 6 C 106.6 6 105.8 7.1 105.8 8.6 C 105.8 10.2 106.6 11.3 108.1 11.3 C 108.9 11.3 109.8 10.8 110.2 10.2 C 110.2 10.2 110.2 7.1 110.2 7.1 Z " stroke="none" fill="#000"/>
  </g>
</svg>