<?xml version="1.0" standalone="no"?><!DOCTYPE svg PUBLIC "-//W3C//DTD SVG 1.1//EN" "http://www.w3.org/Graphics/SVG/1.1/DTD/svg11.dtd"><svg xmlns="http://www.w3.org/2000/svg" xmlns:xlink="http://www.w3.org/1999/xlink" version="1.1" width="134px" height="35.3px" viewBox="0 -7 134 35.3" style="top:-7px"><desc/><defs/><g id="Polygon74507"><path d="m37.4 12.7c.03.02 0 1.4 0 1.4h-.7v-1.4c-1.6 0-2.8-.7-3.6-1.6l.6-.7c.6.7 1.7 1.4 3 1.5V7.4c-1.6-.4-3.2-.9-3.2-2.8c0-1.6 1.4-2.7 3.2-2.8V.4h.7s.03 1.41 0 1.4c1.4.1 2.4.6 3.1 1.5l-.6.6c-.6-.7-1.5-1.2-2.5-1.2v3.9c1.7.5 3.4 1.1 3.4 3.2c0 1.2-.8 2.8-3.4 2.9zm-.7-6.3V2.6c-1.3.1-2.3.9-2.3 2c0 1.1 1.1 1.5 2.3 1.8zm3.1 3.4c0-1.3-1.1-1.8-2.4-2.2v4.3c1.9-.1 2.4-1.3 2.4-2.1z" stroke="none" fill="#000"/><a xlink:href="DBF_Avg.%20HH%20Income%20(1%20Mile)" xlink:show="new" xlink:title="&lt;&lt;Avg. HH Income (1 Mile)&gt;&gt;"><rect style="fill:transparent;" x="41" y="1" width="93" height="15"/></a></g><g id="Polygon74508"><path d="m41.6 6.9l7-3.6v.8l-6.1 3.1l6.1 3.1v.8l-7-3.6v-.6zm7.9 0l7-3.6v.8l-6.2 3.1l6.2 3.1v.8l-7-3.6v-.6zm15.4 3h-5.6l-1.1 2.6h-1L61.5 2h1.1L67 12.5h-1l-1.1-2.6zm-5.4-.8h5.1l-2.5-6.3l-2.6 6.3zM67 4.9h.9l2.8 6.7l2.8-6.7h.9l-3.2 7.6h-1L67 4.9zm9.3 9c.7.8 1.4 1 2.5 1c1.4 0 2.7-.7 2.7-2.4v-1.2c-.6.8-1.6 1.4-2.7 1.4c-2 0-3.4-1.5-3.4-4c0-2.4 1.4-4 3.4-4c1.1 0 2.1.5 2.7 1.4c-.03.01 0-1.2 0-1.2h.8v7.6c0 2.3-1.6 3.2-3.5 3.2c-1.2 0-2.1-.3-3-1.2l.5-.6zm5.2-7.1c-.5-.7-1.5-1.4-2.6-1.4c-1.7 0-2.6 1.4-2.6 3.3c0 1.9.9 3.3 2.6 3.3c1.1 0 2.1-.7 2.6-1.4V6.8zm3.8 4.5c.4 0 .7.3.7.7c0 .4-.3.7-.7.7c-.4 0-.7-.3-.7-.7c0-.4.3-.7.7-.7zm14.8-3.8h-6.7v5h-.9V2h.9v4.7h6.7V2h.9v10.5h-.9v-5zm11.2 0h-6.7v5h-.9V2h.9v4.7h6.7V2h.9v10.5h-.9v-5zm7.6-5.5h.9v10.5h-.9V2zm8.7 5.4c0-1.5-.7-2-1.8-2c-1 0-2 .7-2.5 1.3c-.04.05 0 5.8 0 5.8h-.9V4.9h.9s-.04 1.13 0 1.1c.5-.6 1.6-1.3 2.7-1.3c1.6 0 2.4.7 2.4 2.5c.04-.02 0 5.3 0 5.3h-.8s.02-5.13 0-5.1zm2.6.9h3.8v.8h-3.8v-.8z" stroke="none" fill="#000"/></g></svg>