<?xml version="1.0" standalone="no"?><!DOCTYPE svg PUBLIC "-//W3C//DTD SVG 1.1//EN" "http://www.w3.org/Graphics/SVG/1.1/DTD/svg11.dtd"><svg xmlns="http://www.w3.org/2000/svg" xmlns:xlink="http://www.w3.org/1999/xlink" version="1.1" width="330.5px" height="27.9px" viewBox="0 -8 330.5 27.9" style="top:-8px"><desc>, ,</desc><defs/><g id="Polygon67635"><path d="m109.6 8c.3-.2.6-.6.7-.9h-.2c-.3 0-.5-.2-.5-.5c0-.3.3-.5.6-.5c.3 0 .6.3.6.7c0 .6-.3 1.2-.8 1.5l-.4-.3zm73.8 0c.3-.2.6-.6.6-.9h-.1c-.3 0-.5-.2-.5-.5c0-.3.2-.5.5-.5c.4 0 .7.3.7.7c0 .6-.4 1.2-.8 1.5l-.4-.3z" stroke="none" fill="#88898a"/><a xlink:href="DBF_Property%20City" xlink:show="new" xlink:title="&lt;&lt;Property City&gt;&gt;"><rect style="fill:transparent;" x="113" y="0" width="70" height="9"/></a><a xlink:href="DBF_Property%20State" xlink:show="new" xlink:title="&lt;&lt;Property State&gt;&gt;"><rect style="fill:transparent;" x="186" y="0" width="75" height="9"/></a></g><g id="Polygon67634"><path d="m31.5 3.8l3.9-1.9v.6l-3.3 1.6l3.3 1.6v.6l-3.9-1.9v-.6zm4.5 0l3.9-1.9v.6l-3.3 1.6l3.3 1.6v.6L36 4.4v-.6zm4.9-2.7s2.5.01 2.5 0c1.2 0 1.9.9 1.9 1.9c0 1-.7 1.8-1.9 1.8h-1.6v2.3h-.9v-6zm2.4.8h-1.5v2.1h1.5c.6 0 1.1-.4 1.1-1c0-.7-.5-1.1-1.1-1.1zm2.9.9h.8s.04.63 0 .6c.4-.4.9-.7 1.5-.7v.8h-.3c-.4 0-1 .3-1.2.6c.04-.01 0 3 0 3h-.8V2.8zM49 4.9c0-1.2.8-2.2 2.2-2.2c1.4 0 2.2 1 2.2 2.2c0 1.3-.8 2.3-2.2 2.3c-1.4 0-2.2-1-2.2-2.3zm3.5 0c0-.8-.4-1.5-1.3-1.5c-.9 0-1.4.7-1.4 1.5c0 .9.5 1.6 1.4 1.6c.9 0 1.3-.7 1.3-1.6zm1.9 3.9v-6h.8s.03.58 0 .6c.3-.4.9-.7 1.5-.7c1.1 0 1.9.8 1.9 2.2c0 1.5-.8 2.3-1.9 2.3c-.6 0-1.1-.2-1.5-.7c.03-.02 0 2.3 0 2.3h-.8zm2-5.4c-.5 0-1 .3-1.2.6v1.9c.2.3.7.6 1.2.6c.8 0 1.3-.7 1.3-1.6c0-.9-.5-1.5-1.3-1.5zm5.1-.7c1.3 0 2.1 1 2.1 2.3c.04 0 0 .2 0 .2h-3.4c.1.7.6 1.4 1.5 1.4c.4 0 .9-.2 1.3-.6l.3.6c-.4.4-1 .6-1.7.6c-1.3 0-2.3-.9-2.3-2.3c0-1.2 1-2.2 2.2-2.2zm-1.3 1.9h2.6c0-.6-.4-1.3-1.3-1.3c-.9 0-1.3.7-1.3 1.3zm4.5-1.8h.8s-.04.63 0 .6c.3-.4.8-.7 1.4-.7v.8h-.3c-.4 0-.9.3-1.1.6c-.04-.01 0 3 0 3h-.8V2.8zm3.2 3.3c-.04.05 0-2.6 0-2.6h-.8v-.7h.8V1.6h.8v1.2h.8v.7h-.8s-.03 2.47 0 2.5c0 .3.1.5.4.5c.2 0 .3-.1.4-.2l.2.6c-.1.2-.4.3-.8.3c-.7 0-1-.4-1-1.1zm2.8 2.1c.3 0 .5-.1.6-.5c.05.03.3-.5.3-.5l-1.8-4.4h.9L72 6.2l1.4-3.4h.9s-2.18 5.14-2.2 5.1c-.3.7-.7 1-1.4 1c-.1 0-.3-.1-.5-.1l.2-.7c.1 0 .2.1.3.1zm6.7-2.6c.4.4 1.1.8 1.9.8c1 0 1.3-.5 1.3-.9c0-.6-.7-.8-1.4-1c-1-.3-2.1-.5-2.1-1.8c0-1 .9-1.7 2.1-1.7c.9 0 1.7.3 2.2.9l-.5.6c-.5-.5-1.1-.7-1.8-.7c-.6 0-1.1.4-1.1.9c0 .5.7.7 1.4.9c1 .2 2.1.5 2.1 1.8c0 .9-.6 1.8-2.2 1.8c-1.1 0-1.9-.4-2.4-.9l.5-.7zm5.2.5c-.03.05 0-2.6 0-2.6h-.7v-.7h.7V1.6h.8v1.2h.9v.7h-.9s-.02 2.47 0 2.5c0 .3.1.5.4.5c.2 0 .4-.1.4-.2l.3.6c-.2.2-.5.3-.9.3c-.7 0-1-.4-1-1.1zm2.6-3.3h.8s-.03.63 0 .6c.3-.4.8-.7 1.4-.7v.8h-.3c-.4 0-.9.3-1.1.6c-.03-.01 0 3 0 3h-.8V2.8zm4.9-.1c1.3 0 2.1 1 2.1 2.3c.03 0 0 .2 0 .2h-3.4c.1.7.6 1.4 1.5 1.4c.4 0 .9-.2 1.3-.6l.3.6c-.4.4-1 .6-1.7.6c-1.3 0-2.3-.9-2.3-2.3c0-1.2.9-2.2 2.2-2.2zm-1.3 1.9h2.6c0-.6-.4-1.3-1.3-1.3c-.9 0-1.3.7-1.3 1.3zm6.4-1.9c1.3 0 2.1 1 2.1 2.3c-.03 0 0 .2 0 .2h-3.5c.1.7.6 1.4 1.5 1.4c.5 0 1-.2 1.3-.6l.4.6c-.5.4-1.1.6-1.8.6c-1.3 0-2.2-.9-2.2-2.3c0-1.2.9-2.2 2.2-2.2zm-1.4 1.9h2.7c0-.6-.4-1.3-1.3-1.3c-.9 0-1.3.7-1.4 1.3zm4.6 1.5c.05.05 0-2.6 0-2.6h-.7v-.7h.7V1.6h.9v1.2h.8v.7h-.8s-.04 2.47 0 2.5c0 .3.1.5.4.5c.2 0 .3-.1.4-.2l.2.6c-.1.2-.4.3-.8.3c-.7 0-1.1-.4-1.1-1.1zm2.3-.4l3.3-1.6l-3.3-1.6v-.6l3.9 1.9v.6l-3.9 1.9v-.6zm4.5 0l3.3-1.6l-3.3-1.6v-.6l3.9 1.9v.6l-3.9 1.9v-.6z" stroke="none" fill="#88898a"/><a xlink:href="DBF_Property%20Street" xlink:show="new" xlink:title="&lt;&lt;Property Street&gt;&gt;"><rect style="fill:transparent;" x="30" y="0" width="79" height="9"/></a></g><g id="Polygon67636"><path d="m113.6 3.8l4-1.9v.6l-3.4 1.6l3.4 1.6v.6l-4-1.9v-.6zm4.5 0l4-1.9v.6l-3.4 1.6l3.4 1.6v.6l-4-1.9v-.6zm4.9-2.7s2.53.01 2.5 0c1.3 0 1.9.9 1.9 1.9c0 1-.6 1.8-1.9 1.8h-1.6v2.3h-.9v-6zm2.4.8h-1.5v2.1h1.5c.7 0 1.1-.4 1.1-1c0-.7-.4-1.1-1.1-1.1zm3 .9h.8s-.04.63 0 .6c.3-.4.8-.7 1.4-.7v.8h-.3c-.4 0-.9.3-1.1.6c-.04-.01 0 3 0 3h-.8V2.8zm2.7 2.1c0-1.2.9-2.2 2.2-2.2c1.4 0 2.2 1 2.2 2.2c0 1.3-.8 2.3-2.2 2.3c-1.3 0-2.2-1-2.2-2.3zm3.6 0c0-.8-.5-1.5-1.4-1.5c-.8 0-1.3.7-1.3 1.5c0 .9.5 1.6 1.3 1.6c.9 0 1.4-.7 1.4-1.6zm1.8 3.9v-6h.9s-.05.58 0 .6c.3-.4.8-.7 1.4-.7c1.1 0 1.9.8 1.9 2.2c0 1.5-.8 2.3-1.9 2.3c-.6 0-1.1-.2-1.4-.7c-.05-.02 0 2.3 0 2.3h-.9zm2.1-5.4c-.5 0-1 .3-1.2.6v1.9c.2.3.7.6 1.2.6c.8 0 1.3-.7 1.3-1.6c0-.9-.5-1.5-1.3-1.5zm5-.7c1.4 0 2.2 1 2.2 2.3c-.04 0 0 .2 0 .2h-3.5c.1.7.6 1.4 1.5 1.4c.5 0 1-.2 1.3-.6l.4.6c-.5.4-1.1.6-1.8.6c-1.3 0-2.2-.9-2.2-2.3c0-1.2.9-2.2 2.1-2.2zm-1.3 1.9h2.7c0-.6-.4-1.3-1.4-1.3c-.8 0-1.2.7-1.3 1.3zm4.5-1.8h.8v.6c.3-.4.8-.7 1.4-.7v.8h-.3c-.4 0-.9.3-1.1.6v3h-.8V2.8zm3.2 3.3c-.02.05 0-2.6 0-2.6h-.7v-.7h.7V1.6h.8v1.2h.9v.7h-.9s-.01 2.47 0 2.5c0 .3.1.5.4.5c.2 0 .4-.1.5-.2l.2.6c-.2.2-.5.3-.9.3c-.7 0-1-.4-1-1.1zm2.8 2.1c.3 0 .5-.1.7-.5c-.03.03.2-.5.2-.5l-1.8-4.4h.9l1.4 3.4l1.3-3.4h.9s-2.15 5.14-2.2 5.1c-.2.7-.7 1-1.3 1c-.2 0-.4-.1-.5-.1l.1-.7c.1 0 .2.1.3.1zm6.3-4.1c0-1.8 1.4-3.1 3.1-3.1c1.2 0 1.9.6 2.4 1.3l-.8.4c-.3-.5-.9-.9-1.6-.9c-1.2 0-2.1 1-2.1 2.3c0 1.4.9 2.3 2.1 2.3c.7 0 1.3-.4 1.6-.9l.8.4c-.5.8-1.2 1.3-2.4 1.3c-1.7 0-3.1-1.2-3.1-3.1zm6.3-2.6c0-.3.2-.5.5-.5c.3 0 .5.2.5.5c0 .3-.2.5-.5.5c-.3 0-.5-.2-.5-.5zm.1 1.3h.8v4.3h-.8V2.8zm2.2 3.3c.04.05 0-2.6 0-2.6h-.7v-.7h.7V1.6h.8v1.2h.9v.7h-.9s.05 2.47 0 2.5c0 .3.2.5.5.5c.2 0 .3-.1.4-.2l.2.6c-.2.2-.4.3-.8.3c-.7 0-1.1-.4-1.1-1.1zm2.9 2.1c.3 0 .5-.1.6-.5c.03.03.3-.5.3-.5l-1.8-4.4h.9l1.3 3.4l1.4-3.4h.8S172 7.94 172 7.9c-.3.7-.8 1-1.4 1c-.1 0-.4-.1-.5-.1l.1-.7c.1 0 .3.1.4.1zm3.8-2.5l3.3-1.6l-3.3-1.6v-.6l4 1.9v.6l-4 1.9v-.6zm4.5 0l3.3-1.6l-3.3-1.6v-.6l4 1.9v.6l-4 1.9v-.6z" stroke="none" fill="#88898a"/></g><g id="Polygon67637"><path d="m187.4 3.8l3.9-1.9v.6L188 4.1l3.3 1.6v.6l-3.9-1.9v-.6zm4.5 0l3.9-1.9v.6l-3.3 1.6l3.3 1.6v.6l-3.9-1.9v-.6zm4.9-2.7s2.49.01 2.5 0c1.2 0 1.9.9 1.9 1.9c0 1-.7 1.8-1.9 1.8h-1.6v2.3h-.9v-6zm2.4.8h-1.5v2.1h1.5c.6 0 1.1-.4 1.1-1c0-.7-.5-1.1-1.1-1.1zm2.9.9h.8s.03.63 0 .6c.4-.4.9-.7 1.4-.7v.8h-.2c-.4 0-1 .3-1.2.6c.03-.01 0 3 0 3h-.8V2.8zm2.8 2.1c0-1.2.8-2.2 2.2-2.2c1.3 0 2.2 1 2.2 2.2c0 1.3-.9 2.3-2.2 2.3c-1.4 0-2.2-1-2.2-2.3zm3.5 0c0-.8-.4-1.5-1.3-1.5c-.9 0-1.4.7-1.4 1.5c0 .9.5 1.6 1.4 1.6c.9 0 1.3-.7 1.3-1.6zm1.9 3.9v-6h.8s.02.58 0 .6c.3-.4.9-.7 1.4-.7c1.2 0 2 .8 2 2.2c0 1.5-.8 2.3-2 2.3c-.5 0-1-.2-1.4-.7c.02-.02 0 2.3 0 2.3h-.8zm2-5.4c-.5 0-1 .3-1.2.6v1.9c.2.3.7.6 1.2.6c.8 0 1.3-.7 1.3-1.6c0-.9-.5-1.5-1.3-1.5zm5.1-.7c1.3 0 2.1 1 2.1 2.3c.02 0 0 .2 0 .2h-3.4c0 .7.6 1.4 1.5 1.4c.4 0 .9-.2 1.2-.6l.4.6c-.4.4-1 .6-1.7.6c-1.3 0-2.3-.9-2.3-2.3c0-1.2.9-2.2 2.2-2.2zm-1.3 1.9h2.6c0-.6-.4-1.3-1.3-1.3c-.9 0-1.3.7-1.3 1.3zm4.4-1.8h.8s.05.63 0 .6c.4-.4.9-.7 1.5-.7v.8h-.3c-.4 0-1 .3-1.2.6c.05-.01 0 3 0 3h-.8V2.8zm3.2 3.3c.04.05 0-2.6 0-2.6h-.7v-.7h.7V1.6h.9v1.2h.8v.7h-.8s-.05 2.47 0 2.5c0 .3.1.5.4.5c.2 0 .3-.1.4-.2l.2.6c-.1.2-.4.3-.8.3c-.7 0-1.1-.4-1.1-1.1zm2.9 2.1c.3 0 .5-.1.6-.5c.03.03.3-.5.3-.5l-1.8-4.4h.9l1.3 3.4l1.4-3.4h.8s-2.09 5.14-2.1 5.1c-.3.7-.7 1-1.4 1c-.1 0-.4-.1-.5-.1l.1-.7c.1 0 .3.1.4.1zm6.7-2.6c.4.4 1 .8 1.9.8c1 0 1.3-.5 1.3-.9c0-.6-.7-.8-1.5-1c-.9-.3-2-.5-2-1.8c0-1 .8-1.7 2.1-1.7c.9 0 1.6.3 2.2.9l-.5.6c-.5-.5-1.1-.7-1.8-.7c-.6 0-1.1.4-1.1.9c0 .5.6.7 1.4.9c1 .2 2.1.5 2.1 1.8c0 .9-.6 1.8-2.3 1.8c-1 0-1.8-.4-2.3-.9l.5-.7zm5.2.5c-.04.05 0-2.6 0-2.6h-.8v-.7h.8V1.6h.8v1.2h.8v.7h-.8s-.03 2.47 0 2.5c0 .3.1.5.4.5c.2 0 .3-.1.4-.2l.2.6c-.1.2-.4.3-.8.3c-.7 0-1-.4-1-1.1zm5.2.5c-.3.4-.8.6-1.4.6c-.7 0-1.5-.5-1.5-1.4c0-1 .8-1.4 1.5-1.4c.6 0 1.1.1 1.4.5v-.7c0-.5-.4-.9-1-.9c-.5 0-.9.2-1.3.6l-.4-.5c.5-.5 1.1-.7 1.8-.7c.9 0 1.7.4 1.7 1.5c.04-.02 0 2.9 0 2.9h-.8s.03-.47 0-.5zm0-1.2c-.2-.3-.6-.5-1.1-.5c-.6 0-1 .4-1 .9c0 .5.4.9 1 .9c.5 0 .9-.2 1.1-.5v-.8zm2.3.7V3.5h-.7v-.7h.7V1.6h.8v1.2h.9v.7h-.9s.01 2.47 0 2.5c0 .3.2.5.4.5c.2 0 .4-.1.5-.2l.2.6c-.2.2-.4.3-.9.3c-.6 0-1-.4-1-1.1zm4.5-3.4c1.3 0 2.1 1 2.1 2.3v.2h-3.4c0 .7.6 1.4 1.5 1.4c.4 0 .9-.2 1.2-.6l.4.6c-.4.4-1 .6-1.7.6c-1.3 0-2.3-.9-2.3-2.3c0-1.2.9-2.2 2.2-2.2zm-1.3 1.9h2.6c0-.6-.4-1.3-1.3-1.3c-.9 0-1.3.7-1.3 1.3zm4 1.1l3.4-1.6l-3.4-1.6v-.6l4 1.9v.6l-4 1.9v-.6zm4.5 0l3.4-1.6l-3.4-1.6v-.6l4 1.9v.6l-4 1.9v-.6z" stroke="none" fill="#88898a"/><a xlink:href="DBF_Property%20Zip" xlink:show="new" xlink:title="&lt;&lt;Property Zip&gt;&gt;"><rect style="fill:transparent;" x="263" y="0" width="67" height="9"/></a></g><g id="Polygon67638"><path d="m264 3.8l4-1.9v.6l-3.3 1.6l3.3 1.6v.6l-4-1.9v-.6zm4.5 0l4-1.9v.6l-3.3 1.6l3.3 1.6v.6l-4-1.9v-.6zm4.9-2.7h2.6c1.2 0 1.9.9 1.9 1.9c0 1-.7 1.8-1.9 1.8h-1.7v2.3h-.9v-6zm2.5.8h-1.6v2.1h1.6c.6 0 1.1-.4 1.1-1c0-.7-.5-1.1-1.1-1.1zm2.9.9h.8v.6c.3-.4.9-.7 1.4-.7v.8h-.2c-.4 0-1 .3-1.2.6v3h-.8V2.8zm2.8 2.1c0-1.2.8-2.2 2.2-2.2c1.3 0 2.2 1 2.2 2.2c0 1.3-.9 2.3-2.2 2.3c-1.4 0-2.2-1-2.2-2.3zm3.5 0c0-.8-.5-1.5-1.3-1.5c-.9 0-1.4.7-1.4 1.5c0 .9.5 1.6 1.4 1.6c.8 0 1.3-.7 1.3-1.6zm1.9 3.9v-6h.8v.6c.3-.4.8-.7 1.4-.7c1.2 0 2 .8 2 2.2c0 1.5-.8 2.3-2 2.3c-.5 0-1-.2-1.4-.7v2.3h-.8zm2-5.4c-.5 0-1 .3-1.2.6v1.9c.2.3.7.6 1.2.6c.8 0 1.3-.7 1.3-1.6c0-.9-.5-1.5-1.3-1.5zm5.1-.7c1.3 0 2.1 1 2.1 2.3v.2h-3.4c0 .7.6 1.4 1.4 1.4c.5 0 1-.2 1.3-.6l.4.6c-.4.4-1 .6-1.7.6c-1.3 0-2.3-.9-2.3-2.3c0-1.2.9-2.2 2.2-2.2zm-1.3 1.9h2.6c0-.6-.4-1.3-1.3-1.3c-.9 0-1.3.7-1.3 1.3zm4.4-1.8h.8s.04.63 0 .6c.4-.4.9-.7 1.5-.7v.8h-.3c-.4 0-1 .3-1.2.6c.04-.01 0 3 0 3h-.8V2.8zm3.2 3.3c.03.05 0-2.6 0-2.6h-.7v-.7h.7V1.6h.8v1.2h.9v.7h-.9s.04 2.47 0 2.5c0 .3.2.5.5.5c.2 0 .3-.1.4-.2l.2.6c-.2.2-.4.3-.8.3c-.7 0-1.1-.4-1.1-1.1zm2.9 2.1c.3 0 .5-.1.6-.5c.02.03.3-.5.3-.5l-1.8-4.4h.8l1.4 3.4l1.4-3.4h.8s-2.1 5.14-2.1 5.1c-.3.7-.8 1-1.4 1c-.1 0-.4-.1-.5-.1l.1-.7c.1 0 .3.1.4.1zm6.3-1.8l3.2-4.5h-3.2v-.8h4.4v.7l-3.3 4.5h3.3v.8h-4.4v-.7zm5.4-4.9c0-.3.2-.5.5-.5c.3 0 .5.2.5.5c0 .3-.2.5-.5.5c-.3 0-.5-.2-.5-.5zm.1 1.3h.8v4.3h-.8V2.8zm2.1 6v-6h.8v.6c.3-.4.8-.7 1.4-.7c1.2 0 2 .8 2 2.2c0 1.5-.8 2.3-2 2.3c-.5 0-1-.2-1.4-.7v2.3h-.8zm2-5.4c-.5 0-1 .3-1.2.6v1.9c.2.3.7.6 1.2.6c.8 0 1.3-.7 1.3-1.6c0-.9-.5-1.5-1.3-1.5zm2.8 2.3l3.3-1.6l-3.3-1.6v-.6l4 1.9v.6l-4 1.9v-.6zm4.5 0l3.3-1.6l-3.3-1.6v-.6l4 1.9v.6l-4 1.9v-.6z" stroke="none" fill="#88898a"/></g></svg>