<?xml version="1.0" standalone="no"?>
<!DOCTYPE svg PUBLIC "-//W3C//DTD SVG 1.1//EN" "http://www.w3.org/Graphics/SVG/1.1/DTD/svg11.dtd">
<svg xmlns="http://www.w3.org/2000/svg" version="1.1" width="62px" height="16.9px" viewBox="0 -4 62 16.9" style="top:-4px">
  <desc>Zip</desc>
  <defs/>
  <g id="Polygon266966">
    <path d="M 0.4 6.4 L 3.6 1.9 L 0.4 1.9 L 0.4 1.1 L 4.8 1.1 L 4.8 1.8 L 1.6 6.3 L 4.9 6.3 L 4.9 7.1 L 0.4 7.1 L 0.4 6.4 Z M 5.8 1.5 C 5.8 1.2 6 1 6.3 1 C 6.6 1 6.8 1.2 6.8 1.5 C 6.8 1.8 6.6 2 6.3 2 C 6 2 5.8 1.8 5.8 1.5 Z M 5.9 2.8 L 6.7 2.8 L 6.7 7.1 L 5.9 7.1 L 5.9 2.8 Z M 8 8.8 L 8 2.8 L 8.8 2.8 C 8.8 2.8 8.84 3.38 8.8 3.4 C 9.2 3 9.7 2.7 10.3 2.7 C 11.4 2.7 12.2 3.5 12.2 4.9 C 12.2 6.4 11.4 7.2 10.3 7.2 C 9.7 7.2 9.2 7 8.8 6.5 C 8.84 6.48 8.8 8.8 8.8 8.8 L 8 8.8 Z M 10 3.4 C 9.5 3.4 9.1 3.7 8.8 4 C 8.8 4 8.8 5.9 8.8 5.9 C 9.1 6.2 9.5 6.5 10 6.5 C 10.9 6.5 11.3 5.8 11.3 4.9 C 11.3 4 10.9 3.4 10 3.4 Z " stroke="none" fill="#000"/>
  </g>
</svg>