<?xml version="1.0" standalone="no"?><!DOCTYPE svg PUBLIC "-//W3C//DTD SVG 1.1//EN" "http://www.w3.org/Graphics/SVG/1.1/DTD/svg11.dtd"><svg xmlns="http://www.w3.org/2000/svg" version="1.1" width="108px" height="28.3px" viewBox="0 -6 108 28.3" style="top:-6px"><desc>Median Income</desc><defs/><g id="Polygon311410"><path d="m10.3 4.1l-3.4 8.4h-.7L2.8 4.1v8.4H1.2V2h2.2l3.1 7.6L9.6 2h2.3v10.5h-1.6V4.1zm7.3.6c2.3 0 3.7 1.8 3.7 4.1v.4s-6.07-.02-6.1 0c.1 1.3 1.1 2.4 2.6 2.4c.8 0 1.7-.4 2.3-.9l.7.9c-.8.7-1.9 1.1-3.1 1.1c-2.3 0-4-1.6-4-4c0-2.2 1.6-4 3.9-4zm-2.4 3.4h4.7c0-1-.7-2.2-2.3-2.2c-1.6 0-2.3 1.2-2.4 2.2zm13.4 3.4c-.6.7-1.5 1.2-2.6 1.2c-2 0-3.4-1.5-3.4-4c0-2.4 1.4-4 3.4-4c1 0 1.9.5 2.6 1.3c-.05-.01 0-4 0-4h1.4v10.5h-1.4s-.05-1.05 0-1zm0-4.4c-.4-.6-1.3-1.1-2.2-1.1c-1.4 0-2.3 1.1-2.3 2.7c0 1.6.9 2.8 2.3 2.8c.9 0 1.8-.5 2.2-1.1V7.1zM32 2.7c0-.5.5-.9 1-.9c.5 0 .9.4.9.9c0 .5-.4.9-.9.9c-.5 0-1-.4-1-.9zm.3 2.2h1.4v7.6h-1.4V4.9zm8.4 6.8c-.6.7-1.5 1-2.5 1c-1.3 0-2.7-.8-2.7-2.5c0-1.8 1.4-2.5 2.7-2.5c1 0 1.9.3 2.5 1V7.4c0-.9-.8-1.5-1.9-1.5c-.8 0-1.6.3-2.3 1l-.6-1c.9-.8 1.9-1.2 3.1-1.2c1.7 0 3.1.7 3.1 2.7c.03-.03 0 5.1 0 5.1h-1.4v-.8zm0-2.1c-.4-.6-1.2-.9-2-.9c-1 0-1.7.6-1.7 1.5c0 .9.7 1.5 1.7 1.5c.8 0 1.6-.3 2-.8V9.6zm8.9-2c0-1.2-.7-1.6-1.6-1.6c-.9 0-1.7.5-2.2 1.1c.04-.03 0 5.4 0 5.4h-1.4V4.9h1.4s.04 1.05 0 1.1c.6-.7 1.6-1.3 2.8-1.3c1.6 0 2.4.8 2.4 2.5c.02-.04 0 5.3 0 5.3h-1.4V7.6zM57.4 2h1.6v10.5h-1.6V2zm9.1 5.6c0-1.2-.6-1.6-1.6-1.6c-.9 0-1.7.5-2.1 1.1c-.03-.03 0 5.4 0 5.4h-1.5V4.9h1.5s-.03 1.05 0 1.1c.5-.7 1.5-1.3 2.7-1.3c1.6 0 2.4.8 2.4 2.5c.05-.04 0 5.3 0 5.3h-1.4s.02-4.86 0-4.9zm7.1-2.9c1.5 0 2.4.6 2.9 1.3l-.9.9c-.5-.6-1.1-.9-1.9-.9c-1.5 0-2.5 1.1-2.5 2.7c0 1.6 1 2.8 2.5 2.8c.8 0 1.4-.4 1.9-1l.9.9c-.5.7-1.4 1.3-2.9 1.3c-2.3 0-3.9-1.7-3.9-4c0-2.3 1.6-4 3.9-4zm4 4c0-2.2 1.5-4 3.9-4c2.4 0 3.9 1.8 3.9 4c0 2.2-1.5 4-3.9 4c-2.4 0-3.9-1.8-3.9-4zm6.3 0c0-1.4-.9-2.7-2.4-2.7c-1.5 0-2.4 1.3-2.4 2.7c0 1.5.9 2.8 2.4 2.8c1.5 0 2.4-1.3 2.4-2.8zm12.6-1.3c0-.9-.4-1.4-1.3-1.4c-.8 0-1.6.5-1.9 1c-.04.05 0 5.5 0 5.5h-1.5s.03-5.07 0-5.1c0-.9-.3-1.4-1.3-1.4c-.8 0-1.5.5-1.9 1.1v5.4h-1.4V4.9h1.4s.01 1.05 0 1.1c.3-.5 1.3-1.3 2.5-1.3c1.1 0 1.8.6 2.1 1.4c.4-.7 1.4-1.4 2.6-1.4c1.4 0 2.1.8 2.1 2.3c.03 0 0 5.5 0 5.5h-1.4V7.4zm7.1-2.7c2.3 0 3.7 1.8 3.7 4.1v.4s-6.07-.02-6.1 0c.1 1.3 1.1 2.4 2.6 2.4c.8 0 1.7-.4 2.3-.9l.7.9c-.8.7-1.9 1.1-3.1 1.1c-2.3 0-4-1.6-4-4c0-2.2 1.6-4 3.9-4zm-2.4 3.4h4.7c0-1-.7-2.2-2.3-2.2c-1.6 0-2.3 1.2-2.4 2.2z" stroke="none" fill="#000"/></g></svg>