<?xml version="1.0" standalone="no"?><!DOCTYPE svg PUBLIC "-//W3C//DTD SVG 1.1//EN" "http://www.w3.org/Graphics/SVG/1.1/DTD/svg11.dtd"><svg xmlns="http://www.w3.org/2000/svg" version="1.1" width="158px" height="27.9px" viewBox="0 -6 158 27.9" style="top:-6px"><desc>Number of Locations</desc><defs/><g id="Polygon284136"><path d="m2.8 4.4v8.1H1.2V2h1.6l5.8 7.9V2h1.6v10.5H8.6L2.8 4.4zm14.9 7.1c-.6.6-1.6 1.2-2.8 1.2c-1.6 0-2.4-.8-2.4-2.4c-.02-.01 0-5.4 0-5.4h1.4v4.9c0 1.3.6 1.7 1.6 1.7c.9 0 1.7-.5 2.2-1.1c-.04-.01 0-5.5 0-5.5h1.4v7.6h-1.4s-.04-1 0-1zm13-4.1c0-.9-.4-1.4-1.3-1.4c-.8 0-1.6.5-2 1.1c.04-.05 0 5.4 0 5.4H26s.02-5.07 0-5.1c0-.9-.4-1.4-1.3-1.4c-.8 0-1.5.5-1.9 1.1v5.4h-1.4V4.9h1.4s-.01 1.05 0 1.1c.3-.5 1.3-1.3 2.5-1.3c1.1 0 1.8.6 2 1.4c.5-.7 1.5-1.4 2.6-1.4c1.5 0 2.2.8 2.2 2.3v5.5h-1.4V7.4zM34.4 2h1.4v4c.6-.8 1.5-1.3 2.5-1.3c2 0 3.4 1.6 3.4 4c0 2.5-1.4 4-3.4 4c-1 0-1.9-.5-2.5-1.2v1h-1.4V2zm3.5 9.5c1.5 0 2.4-1.2 2.4-2.8c0-1.6-.9-2.7-2.4-2.7c-.8 0-1.7.5-2.1 1.1v3.3c.4.6 1.3 1.1 2.1 1.1zm9-6.8c2.3 0 3.8 1.8 3.8 4.1c-.04.03 0 .4 0 .4c0 0-6.1-.02-6.1 0c.1 1.3 1.1 2.4 2.6 2.4c.8 0 1.7-.4 2.3-.9l.6.9c-.7.7-1.8 1.1-3 1.1c-2.3 0-4-1.6-4-4c0-2.2 1.6-4 3.8-4zm-2.3 3.4h4.7c-.1-1-.7-2.2-2.4-2.2c-1.5 0-2.2 1.2-2.3 2.2zm7.9-3.2h1.4v1.2c.6-.8 1.5-1.4 2.5-1.4v1.4h-.5c-.7 0-1.7.5-2 1.1v5.3h-1.4V4.9zm8.9 3.8c0-2.2 1.5-4 3.9-4c2.4 0 3.9 1.8 3.9 4c0 2.2-1.5 4-3.9 4c-2.4 0-3.9-1.8-3.9-4zm6.3 0c0-1.4-.8-2.7-2.4-2.7c-1.5 0-2.4 1.3-2.4 2.7c0 1.5.9 2.8 2.4 2.8c1.6 0 2.4-1.3 2.4-2.8zm3.7-2.6h-1.3V4.9h1.3s-.04-.53 0-.5c0-1.7.9-2.6 2.3-2.6c.5 0 .9.1 1.2.3l-.3 1c-.2-.1-.4-.1-.7-.1c-.7 0-1.1.4-1.1 1.4v.5h1.5v1.2h-1.5v6.4h-1.4V6.1zM79.8 2h1.6v9.2h4.8v1.3h-6.4V2zm7.4 6.7c0-2.2 1.5-4 3.9-4c2.4 0 3.8 1.8 3.8 4c0 2.2-1.4 4-3.8 4c-2.4 0-3.9-1.8-3.9-4zm6.3 0c0-1.4-.9-2.7-2.4-2.7c-1.6 0-2.4 1.3-2.4 2.7c0 1.5.8 2.8 2.4 2.8c1.5 0 2.4-1.3 2.4-2.8zm6.7-4c1.4 0 2.3.6 2.9 1.3l-1 .9c-.5-.6-1.1-.9-1.9-.9c-1.5 0-2.4 1.1-2.4 2.7c0 1.6.9 2.8 2.4 2.8c.8 0 1.4-.3 1.9-1l1 .9c-.6.7-1.5 1.3-2.9 1.3c-2.3 0-3.9-1.7-3.9-4c0-2.3 1.6-4 3.9-4zm9.2 7c-.6.7-1.5 1-2.5 1c-1.3 0-2.7-.8-2.7-2.5c0-1.8 1.4-2.5 2.7-2.5c1 0 1.9.3 2.5 1V7.4c0-.9-.8-1.5-1.9-1.5c-.9 0-1.6.3-2.3 1l-.6-1c.8-.8 1.9-1.2 3.1-1.2c1.7 0 3.1.7 3.1 2.7v5.1h-1.4s-.03-.79 0-.8zm0-2.1c-.5-.6-1.2-.9-2-.9c-1 0-1.8.6-1.8 1.5c0 .9.8 1.5 1.8 1.5c.8 0 1.5-.3 2-.8V9.6zm4 1.2c-.03.05 0-4.7 0-4.7h-1.3V4.9h1.3V2.8h1.4v2.1h1.6v1.2h-1.6v4.4c0 .6.2 1 .7 1c.4 0 .7-.2.8-.3l.4 1c-.3.3-.8.5-1.5.5c-1.2 0-1.8-.6-1.8-1.9zm4.3-8.1c0-.5.4-.9.9-.9c.5 0 1 .4 1 .9c0 .5-.5.9-1 .9c-.5 0-.9-.4-.9-.9zm.2 2.2h1.5v7.6h-1.5V4.9zm3.3 3.8c0-2.2 1.5-4 3.8-4c2.4 0 3.9 1.8 3.9 4c0 2.2-1.5 4-3.9 4c-2.3 0-3.8-1.8-3.8-4zm6.2 0c0-1.4-.8-2.7-2.4-2.7c-1.5 0-2.3 1.3-2.3 2.7c0 1.5.8 2.8 2.3 2.8c1.6 0 2.4-1.3 2.4-2.8zm8.5-1.1c0-1.2-.6-1.6-1.6-1.6c-.9 0-1.7.5-2.1 1.1c-.05-.03 0 5.4 0 5.4h-1.5V4.9h1.5s-.05 1.05 0 1.1c.5-.7 1.5-1.3 2.7-1.3c1.6 0 2.4.8 2.4 2.5c.03-.04 0 5.3 0 5.3h-1.4V7.6zm3.7 2.9c.5.6 1.6 1.1 2.6 1.1c1.1 0 1.6-.4 1.6-1.1c0-.8-.8-1-1.8-1.2c-1.3-.3-2.8-.7-2.8-2.3c0-1.3 1-2.3 2.9-2.3c1.3 0 2.3.5 2.9 1.1l-.6 1c-.5-.6-1.3-1-2.3-1c-1 0-1.6.4-1.6 1c0 .7.9.9 1.8 1.2c1.3.3 2.9.6 2.9 2.4c0 1.3-1.1 2.3-3.1 2.3c-1.3 0-2.4-.4-3.2-1.2l.7-1z" stroke="none" fill="#000"/></g></svg>