<?xml version="1.0" standalone="no"?><!DOCTYPE svg PUBLIC "-//W3C//DTD SVG 1.1//EN" "http://www.w3.org/Graphics/SVG/1.1/DTD/svg11.dtd"><svg xmlns="http://www.w3.org/2000/svg" version="1.1" width="77px" height="15.9px" viewBox="0 -4 77 15.9" style="top:-4px"><desc>119,443</desc><defs/><g id="Polygon111106"><path d="m51.5 1.8l-1 1l-.3-.3l1.3-1.4h.5v6h-.5V1.8zm2.7 0l-.9 1l-.3-.3l1.3-1.4h.5v6h-.6V1.8zm2.4 4.3c.3.4.7.6 1.3.6c1.4 0 1.8-1.3 1.8-2.6v-.3c-.2.4-.9 1-1.7 1c-1.1 0-2-.6-2-1.9c0-1 .7-1.9 2-1.9c1.7 0 2.2 1.5 2.2 3.1c0 1.6-.6 3.1-2.3 3.1c-.7 0-1.2-.3-1.6-.8l.3-.3zm1.5-4.6c-1.1 0-1.6.8-1.6 1.4c0 1 .7 1.5 1.5 1.5c.7 0 1.3-.5 1.7-1.1c-.1-.8-.5-1.8-1.6-1.8zM61 8c.2-.2.5-.6.5-.8h-.1c-.2 0-.4-.2-.4-.4c0-.2.2-.4.4-.4c.3 0 .5.2.5.6c0 .5-.3 1-.7 1.2L61 8zm4.6-2.5h-2.9v-.5l2.7-3.9h.7v3.9h.9v.5h-.9v1.6h-.5V5.5zM63.3 5h2.3V1.6L63.3 5zm7.1.5h-2.8v-.5l2.7-3.9h.6v3.9h.9v.5h-.9v1.6h-.5V5.5zM68.1 5h2.3V1.6L68.1 5zm4.7.9c.3.5.9.9 1.7.9c.9 0 1.5-.5 1.5-1.3c0-.9-.7-1.2-1.6-1.2h-.6v-.5h.6c.8 0 1.5-.4 1.5-1.2c0-.7-.7-1.1-1.5-1.1c-.6 0-1.1.3-1.6.7l-.3-.3c.4-.5 1.1-.9 2-.9c1 0 1.9.6 1.9 1.6c0 .9-.8 1.3-1.3 1.4c.5.1 1.4.5 1.4 1.5c0 1-.7 1.7-2 1.7c-1 0-1.7-.4-2.1-1l.4-.3z" stroke="none" fill="#000"/></g></svg>