<?xml version="1.0" standalone="no"?>
<!DOCTYPE svg PUBLIC "-//W3C//DTD SVG 1.1//EN" "http://www.w3.org/Graphics/SVG/1.1/DTD/svg11.dtd">
<svg xmlns="http://www.w3.org/2000/svg" version="1.1" width="156px" height="27.9px" viewBox="0 -6 156 27.9" style="top:-6px">
  <desc>Number of Locations</desc>
  <defs/>
  <g id="Polygon273488">
    <path d="M 7.6 4.4 L 7.6 12.5 L 6 12.5 L 6 2 L 7.6 2 L 13.4 9.9 L 13.4 2 L 15 2 L 15 12.5 L 13.4 12.5 L 7.6 4.4 Z M 22.5 11.5 C 21.9 12.1 20.9 12.7 19.7 12.7 C 18.1 12.7 17.3 11.9 17.3 10.3 C 17.29 10.29 17.3 4.9 17.3 4.9 L 18.7 4.9 C 18.7 4.9 18.72 9.82 18.7 9.8 C 18.7 11.1 19.4 11.5 20.3 11.5 C 21.2 11.5 22 11 22.5 10.4 C 22.47 10.39 22.5 4.9 22.5 4.9 L 23.9 4.9 L 23.9 12.5 L 22.5 12.5 C 22.5 12.5 22.47 11.5 22.5 11.5 Z M 35.5 7.4 C 35.5 6.5 35.1 6 34.2 6 C 33.4 6 32.6 6.5 32.2 7.1 C 32.25 7.05 32.2 12.5 32.2 12.5 L 30.8 12.5 C 30.8 12.5 30.82 7.43 30.8 7.4 C 30.8 6.5 30.4 6 29.5 6 C 28.7 6 28 6.5 27.6 7.1 C 27.59 7.07 27.6 12.5 27.6 12.5 L 26.2 12.5 L 26.2 4.9 L 27.6 4.9 C 27.6 4.9 27.59 5.95 27.6 6 C 27.9 5.5 28.9 4.7 30.1 4.7 C 31.2 4.7 31.9 5.3 32.2 6.1 C 32.6 5.4 33.6 4.7 34.7 4.7 C 36.2 4.7 36.9 5.5 36.9 7 C 36.92 7 36.9 12.5 36.9 12.5 L 35.5 12.5 C 35.5 12.5 35.49 7.43 35.5 7.4 Z M 39.2 2 L 40.6 2 C 40.6 2 40.62 5.99 40.6 6 C 41.2 5.2 42.1 4.7 43.1 4.7 C 45.1 4.7 46.5 6.3 46.5 8.7 C 46.5 11.2 45.1 12.7 43.1 12.7 C 42.1 12.7 41.2 12.2 40.6 11.5 C 40.62 11.45 40.6 12.5 40.6 12.5 L 39.2 12.5 L 39.2 2 Z M 42.7 11.5 C 44.2 11.5 45.1 10.3 45.1 8.7 C 45.1 7.1 44.2 6 42.7 6 C 41.9 6 41 6.5 40.6 7.1 C 40.6 7.1 40.6 10.4 40.6 10.4 C 41 11 41.9 11.5 42.7 11.5 Z M 51.7 4.7 C 54 4.7 55.5 6.5 55.5 8.8 C 55.47 8.83 55.5 9.2 55.5 9.2 C 55.5 9.2 49.4 9.18 49.4 9.2 C 49.5 10.5 50.5 11.6 52 11.6 C 52.8 11.6 53.7 11.2 54.3 10.7 C 54.3 10.7 54.9 11.6 54.9 11.6 C 54.2 12.3 53.1 12.7 51.9 12.7 C 49.6 12.7 47.9 11.1 47.9 8.7 C 47.9 6.5 49.5 4.7 51.7 4.7 Z M 49.4 8.1 C 49.4 8.1 54.1 8.1 54.1 8.1 C 54 7.1 53.4 5.9 51.7 5.9 C 50.2 5.9 49.5 7.1 49.4 8.1 Z M 57.3 4.9 L 58.7 4.9 C 58.7 4.9 58.69 6.05 58.7 6.1 C 59.3 5.3 60.2 4.7 61.2 4.7 C 61.2 4.7 61.2 6.1 61.2 6.1 C 61.1 6.1 60.9 6.1 60.7 6.1 C 60 6.1 59 6.6 58.7 7.2 C 58.69 7.21 58.7 12.5 58.7 12.5 L 57.3 12.5 L 57.3 4.9 Z M 66.3 8.7 C 66.3 6.5 67.7 4.7 70.1 4.7 C 72.5 4.7 74 6.5 74 8.7 C 74 10.9 72.5 12.7 70.1 12.7 C 67.7 12.7 66.3 10.9 66.3 8.7 Z M 72.5 8.7 C 72.5 7.3 71.7 6 70.1 6 C 68.6 6 67.7 7.3 67.7 8.7 C 67.7 10.2 68.6 11.5 70.1 11.5 C 71.7 11.5 72.5 10.2 72.5 8.7 Z M 76.2 6.1 L 74.9 6.1 L 74.9 4.9 L 76.2 4.9 C 76.2 4.9 76.16 4.37 76.2 4.4 C 76.2 2.7 77.1 1.8 78.5 1.8 C 79 1.8 79.4 1.9 79.8 2.1 C 79.8 2.1 79.4 3.1 79.4 3.1 C 79.2 3 79 3 78.7 3 C 78 3 77.6 3.4 77.6 4.4 C 77.59 4.37 77.6 4.9 77.6 4.9 L 79.1 4.9 L 79.1 6.1 L 77.6 6.1 L 77.6 12.5 L 76.2 12.5 L 76.2 6.1 Z M 84.6 2 L 86.2 2 L 86.2 11.2 L 91 11.2 L 91 12.5 L 84.6 12.5 L 84.6 2 Z M 92 8.7 C 92 6.5 93.5 4.7 95.9 4.7 C 98.3 4.7 99.7 6.5 99.7 8.7 C 99.7 10.9 98.3 12.7 95.9 12.7 C 93.5 12.7 92 10.9 92 8.7 Z M 98.3 8.7 C 98.3 7.3 97.4 6 95.9 6 C 94.3 6 93.5 7.3 93.5 8.7 C 93.5 10.2 94.3 11.5 95.9 11.5 C 97.4 11.5 98.3 10.2 98.3 8.7 Z M 105 4.7 C 106.4 4.7 107.3 5.3 107.9 6 C 107.9 6 106.9 6.9 106.9 6.9 C 106.4 6.3 105.8 6 105.1 6 C 103.5 6 102.6 7.1 102.6 8.7 C 102.6 10.3 103.5 11.5 105.1 11.5 C 105.8 11.5 106.4 11.2 106.9 10.5 C 106.9 10.5 107.9 11.4 107.9 11.4 C 107.3 12.1 106.4 12.7 105 12.7 C 102.7 12.7 101.1 11 101.1 8.7 C 101.1 6.4 102.7 4.7 105 4.7 Z M 114.2 11.7 C 113.6 12.4 112.7 12.7 111.7 12.7 C 110.4 12.7 109 11.9 109 10.2 C 109 8.4 110.4 7.7 111.7 7.7 C 112.7 7.7 113.6 8 114.2 8.7 C 114.2 8.7 114.2 7.4 114.2 7.4 C 114.2 6.5 113.4 5.9 112.3 5.9 C 111.4 5.9 110.7 6.2 110 6.9 C 110 6.9 109.4 5.9 109.4 5.9 C 110.2 5.1 111.3 4.7 112.5 4.7 C 114.2 4.7 115.6 5.4 115.6 7.4 C 115.6 7.37 115.6 12.5 115.6 12.5 L 114.2 12.5 C 114.2 12.5 114.17 11.71 114.2 11.7 Z M 114.2 9.6 C 113.7 9 113 8.7 112.2 8.7 C 111.2 8.7 110.4 9.3 110.4 10.2 C 110.4 11.1 111.2 11.7 112.2 11.7 C 113 11.7 113.7 11.4 114.2 10.9 C 114.2 10.9 114.2 9.6 114.2 9.6 Z M 118.2 10.8 C 118.17 10.85 118.2 6.1 118.2 6.1 L 116.9 6.1 L 116.9 4.9 L 118.2 4.9 L 118.2 2.8 L 119.6 2.8 L 119.6 4.9 L 121.2 4.9 L 121.2 6.1 L 119.6 6.1 C 119.6 6.1 119.6 10.53 119.6 10.5 C 119.6 11.1 119.9 11.5 120.3 11.5 C 120.7 11.5 121 11.3 121.1 11.2 C 121.1 11.2 121.5 12.2 121.5 12.2 C 121.2 12.5 120.7 12.7 120 12.7 C 118.8 12.7 118.2 12.1 118.2 10.8 Z M 122.5 2.7 C 122.5 2.2 123 1.8 123.4 1.8 C 124 1.8 124.4 2.2 124.4 2.7 C 124.4 3.2 124 3.6 123.4 3.6 C 123 3.6 122.5 3.2 122.5 2.7 Z M 122.7 4.9 L 124.2 4.9 L 124.2 12.5 L 122.7 12.5 L 122.7 4.9 Z M 126 8.7 C 126 6.5 127.5 4.7 129.8 4.7 C 132.2 4.7 133.7 6.5 133.7 8.7 C 133.7 10.9 132.2 12.7 129.8 12.7 C 127.5 12.7 126 10.9 126 8.7 Z M 132.2 8.7 C 132.2 7.3 131.4 6 129.8 6 C 128.3 6 127.5 7.3 127.5 8.7 C 127.5 10.2 128.3 11.5 129.8 11.5 C 131.4 11.5 132.2 10.2 132.2 8.7 Z M 140.7 7.6 C 140.7 6.4 140.1 6 139.1 6 C 138.2 6 137.4 6.5 137 7.1 C 136.96 7.07 137 12.5 137 12.5 L 135.5 12.5 L 135.5 4.9 L 137 4.9 C 137 4.9 136.96 5.95 137 6 C 137.5 5.3 138.5 4.7 139.7 4.7 C 141.3 4.7 142.1 5.5 142.1 7.2 C 142.14 7.16 142.1 12.5 142.1 12.5 L 140.7 12.5 C 140.7 12.5 140.71 7.64 140.7 7.6 Z M 144.4 10.5 C 144.9 11.1 146 11.6 147 11.6 C 148.1 11.6 148.6 11.2 148.6 10.5 C 148.6 9.7 147.8 9.5 146.8 9.3 C 145.5 9 144 8.6 144 7 C 144 5.7 145 4.7 146.9 4.7 C 148.2 4.7 149.2 5.2 149.8 5.8 C 149.8 5.8 149.2 6.8 149.2 6.8 C 148.7 6.2 147.9 5.8 146.9 5.8 C 145.9 5.8 145.3 6.2 145.3 6.8 C 145.3 7.5 146.2 7.7 147.1 8 C 148.4 8.3 150 8.6 150 10.4 C 150 11.7 149 12.7 146.9 12.7 C 145.6 12.7 144.5 12.3 143.7 11.5 C 143.7 11.5 144.4 10.5 144.4 10.5 Z " stroke="none" fill="#000"/>
  </g>
</svg>