<?xml version="1.0" standalone="no"?>
<!DOCTYPE svg PUBLIC "-//W3C//DTD SVG 1.1//EN" "http://www.w3.org/Graphics/SVG/1.1/DTD/svg11.dtd">
<svg xmlns="http://www.w3.org/2000/svg" version="1.1" width="583.2px" height="27.9px" viewBox="0 -6 583.2 27.9" style="top:-6px">
  <desc>CONTACT AGENT NAME</desc>
  <defs/>
  <g id="Polygon275886">
    <path d="M 376.8 7.3 C 376.8 4 379.2 1.8 382.2 1.8 C 384.3 1.8 385.6 2.8 386.4 4 C 386.4 4 385.1 4.7 385.1 4.7 C 384.5 3.8 383.5 3.2 382.2 3.2 C 380.1 3.2 378.4 4.9 378.4 7.3 C 378.4 9.6 380.1 11.3 382.2 11.3 C 383.5 11.3 384.5 10.7 385.1 9.8 C 385.1 9.8 386.4 10.5 386.4 10.5 C 385.6 11.7 384.3 12.7 382.2 12.7 C 379.2 12.7 376.8 10.5 376.8 7.3 Z M 392.9 1.8 C 396.1 1.8 398.2 4.1 398.2 7.3 C 398.2 10.4 396.1 12.7 392.9 12.7 C 389.7 12.7 387.6 10.4 387.6 7.3 C 387.6 4.1 389.7 1.8 392.9 1.8 Z M 392.9 3.2 C 390.6 3.2 389.2 4.9 389.2 7.3 C 389.2 9.6 390.6 11.3 392.9 11.3 C 395.1 11.3 396.6 9.6 396.6 7.3 C 396.6 4.9 395.1 3.2 392.9 3.2 Z M 401.7 4.4 L 401.7 12.5 L 400.2 12.5 L 400.2 2 L 401.8 2 L 407.6 9.9 L 407.6 2 L 409.1 2 L 409.1 12.5 L 407.6 12.5 L 401.7 4.4 Z M 414.1 3.4 L 410.8 3.4 L 410.8 2 L 418.9 2 L 418.9 3.4 L 415.7 3.4 L 415.7 12.5 L 414.1 12.5 L 414.1 3.4 Z M 426.3 10.4 L 421.1 10.4 L 420.2 12.5 L 418.5 12.5 L 422.7 2 L 424.6 2 L 428.9 12.5 L 427.1 12.5 L 426.3 10.4 Z M 421.5 8.9 L 425.8 8.9 L 423.6 3.3 L 421.5 8.9 Z M 429.1 7.3 C 429.1 4 431.5 1.8 434.5 1.8 C 436.6 1.8 437.9 2.8 438.8 4 C 438.8 4 437.4 4.7 437.4 4.7 C 436.8 3.8 435.8 3.2 434.5 3.2 C 432.4 3.2 430.7 4.9 430.7 7.3 C 430.7 9.6 432.4 11.3 434.5 11.3 C 435.8 11.3 436.8 10.7 437.4 9.8 C 437.4 9.8 438.8 10.5 438.8 10.5 C 437.9 11.7 436.6 12.7 434.5 12.7 C 431.5 12.7 429.1 10.5 429.1 7.3 Z M 442.9 3.4 L 439.6 3.4 L 439.6 2 L 447.8 2 L 447.8 3.4 L 444.5 3.4 L 444.5 12.5 L 442.9 12.5 L 442.9 3.4 Z M 452.8 6.7 L 459.8 3.3 L 459.8 4.5 L 454 7.2 L 459.8 10 L 459.8 11.1 L 452.8 7.8 L 452.8 6.7 Z M 460.8 6.7 L 467.8 3.3 L 467.8 4.5 L 461.9 7.2 L 467.8 10 L 467.8 11.1 L 460.8 7.8 L 460.8 6.7 Z M 476.1 10.4 L 470.9 10.4 L 470.1 12.5 L 468.3 12.5 L 472.5 2 L 474.5 2 L 478.7 12.5 L 477 12.5 L 476.1 10.4 Z M 471.4 8.9 L 475.7 8.9 L 473.5 3.3 L 471.4 8.9 Z M 484.5 1.8 C 486.5 1.8 487.8 2.7 488.7 3.9 C 488.7 3.9 487.4 4.6 487.4 4.6 C 486.8 3.8 485.7 3.2 484.5 3.2 C 482.3 3.2 480.6 4.9 480.6 7.3 C 480.6 9.6 482.3 11.3 484.5 11.3 C 485.7 11.3 486.7 10.8 487.2 10.3 C 487.16 10.29 487.2 8.4 487.2 8.4 L 483.8 8.4 L 483.8 7 L 488.7 7 C 488.7 7 488.75 10.88 488.7 10.9 C 487.7 12 486.3 12.8 484.5 12.8 C 481.4 12.8 479 10.6 479 7.3 C 479 4 481.4 1.8 484.5 1.8 Z M 490.8 2 L 497.9 2 L 497.9 3.4 L 492.4 3.4 L 492.4 6.4 L 497.8 6.4 L 497.8 7.8 L 492.4 7.8 L 492.4 11.2 L 497.9 11.2 L 497.9 12.5 L 490.8 12.5 L 490.8 2 Z M 501.5 4.4 L 501.5 12.5 L 499.9 12.5 L 499.9 2 L 501.5 2 L 507.3 9.9 L 507.3 2 L 508.9 2 L 508.9 12.5 L 507.3 12.5 L 501.5 4.4 Z M 513.8 3.4 L 510.5 3.4 L 510.5 2 L 518.7 2 L 518.7 3.4 L 515.4 3.4 L 515.4 12.5 L 513.8 12.5 L 513.8 3.4 Z M 526 4.4 L 526 12.5 L 524.4 12.5 L 524.4 2 L 526.1 2 L 531.8 9.9 L 531.8 2 L 533.4 2 L 533.4 12.5 L 531.9 12.5 L 526 4.4 Z M 542.5 10.4 L 537.3 10.4 L 536.4 12.5 L 534.7 12.5 L 538.9 2 L 540.9 2 L 545.1 12.5 L 543.3 12.5 L 542.5 10.4 Z M 537.7 8.9 L 542 8.9 L 539.9 3.3 L 537.7 8.9 Z M 555.5 4.1 L 552 12.5 L 551.4 12.5 L 547.9 4.1 L 547.9 12.5 L 546.3 12.5 L 546.3 2 L 548.6 2 L 551.7 9.6 L 554.8 2 L 557 2 L 557 12.5 L 555.5 12.5 L 555.5 4.1 Z M 559.4 2 L 566.5 2 L 566.5 3.4 L 561 3.4 L 561 6.4 L 566.4 6.4 L 566.4 7.8 L 561 7.8 L 561 11.2 L 566.5 11.2 L 566.5 12.5 L 559.4 12.5 L 559.4 2 Z M 567.8 10 L 573.7 7.2 L 567.8 4.5 L 567.8 3.3 L 574.8 6.7 L 574.8 7.8 L 567.8 11.1 L 567.8 10 Z M 575.7 10 L 581.6 7.2 L 575.7 4.5 L 575.7 3.3 L 582.7 6.7 L 582.7 7.8 L 575.7 11.1 L 575.7 10 Z " stroke="none" fill="#3797ef"/>
  </g>
</svg>