<?xml version="1.0" standalone="no"?><!DOCTYPE svg PUBLIC "-//W3C//DTD SVG 1.1//EN" "http://www.w3.org/Graphics/SVG/1.1/DTD/svg11.dtd"><svg xmlns="http://www.w3.org/2000/svg" version="1.1" width="158.4px" height="28.3px" viewBox="0 -6 158.4 28.3" style="top:-6px"><desc>SUBMIT OFFER</desc><defs/><g id="Polygon96589"><path d="m25.8 9.8c.7.8 1.8 1.5 3.3 1.5c1.7 0 2.3-.9 2.3-1.6c0-1.1-1.2-1.4-2.5-1.8c-1.7-.4-3.7-.9-3.7-3.1c0-1.7 1.5-3 3.7-3c1.7 0 3 .5 3.9 1.5l-.9 1.1c-.8-.8-2-1.2-3.1-1.2c-1.2 0-2 .6-2 1.5c0 1 1.2 1.3 2.5 1.6c1.7.4 3.7 1 3.7 3.2c0 1.7-1.1 3.2-4 3.2c-1.9 0-3.2-.6-4.1-1.6l.9-1.3zM34.9 2h1.6s-.02 6.35 0 6.4c0 1.8 1 2.9 2.8 2.9c1.9 0 2.9-1.1 2.9-2.9c-.02-.05 0-6.4 0-6.4h1.6s-.02 6.39 0 6.4c0 2.6-1.5 4.3-4.5 4.3c-2.9 0-4.4-1.7-4.4-4.3c-.03 0 0-6.4 0-6.4zm11.2 0s5.02-.05 5 0c1.9 0 3 1.1 3 2.7c0 1.3-.9 2.2-1.8 2.4c1.1.2 2 1.3 2 2.6c0 1.7-1.1 2.8-3.1 2.8c.04.04-5.1 0-5.1 0V2zm4.7 4.4c1.1 0 1.7-.6 1.7-1.5c0-.9-.6-1.6-1.7-1.6c.02.05-3.1 0-3.1 0v3.1s3.12.05 3.1 0zm.1 4.7c1.1 0 1.8-.6 1.8-1.6c0-.9-.6-1.7-1.8-1.7c0 .04-3.2 0-3.2 0v3.3s3.2.05 3.2 0zm14.5-7L62 12.5h-.7l-3.4-8.4v8.4h-1.6V2h2.2l3.1 7.6L64.7 2h2.3v10.5h-1.6V4.1zM69.3 2h1.6v10.5h-1.6V2zm6.6 1.3h-3.3V2h8.1v1.3h-3.2v9.2h-1.6V3.3zm15.5-1.5c3.1 0 5.3 2.3 5.3 5.5c0 3.1-2.2 5.4-5.3 5.4c-3.2 0-5.4-2.3-5.4-5.4c0-3.2 2.2-5.5 5.4-5.5zm0 1.4c-2.3 0-3.7 1.7-3.7 4.1c0 2.3 1.4 4 3.7 4c2.2 0 3.7-1.7 3.7-4c0-2.4-1.5-4.1-3.7-4.1zM98.6 2h7.1v1.3h-5.5v3.1h5.4v1.4h-5.4v4.7h-1.6V2zm8.9 0h7.1v1.3H109v3.1h5.5v1.4H109v4.7h-1.5V2zm8.8 0h7.1v1.3h-5.5v3.1h5.4v1.4h-5.4v3.3h5.5v1.4h-7.1V2zM129 8.5h-2v4h-1.6V2s4.45-.05 4.5 0c2 0 3.3 1.3 3.3 3.2c0 1.9-1.2 2.9-2.6 3.1l2.7 4.2h-1.8l-2.5-4zm.6-5.2c.04.05-2.6 0-2.6 0v3.8s2.64-.03 2.6 0c1.2 0 2-.8 2-1.9c0-1.1-.8-1.9-2-1.9z" stroke="none" fill="#ffffff"/></g></svg>