<?xml version="1.0" standalone="no"?>
<!DOCTYPE svg PUBLIC "-//W3C//DTD SVG 1.1//EN" "http://www.w3.org/Graphics/SVG/1.1/DTD/svg11.dtd">
<svg xmlns="http://www.w3.org/2000/svg" version="1.1" width="109.3px" height="27.9px" viewBox="0 -6 109.3 27.9" style="top:-6px">
  <desc>Street Address</desc>
  <defs/>
  <g id="Polygon268813">
    <path d="M 1.4 9.8 C 2.1 10.6 3.3 11.3 4.8 11.3 C 6.5 11.3 7.1 10.5 7.1 9.7 C 7.1 8.6 5.9 8.3 4.5 7.9 C 2.8 7.5 0.9 7 0.9 4.8 C 0.9 3.1 2.4 1.8 4.6 1.8 C 6.2 1.8 7.5 2.3 8.5 3.3 C 8.5 3.3 7.5 4.4 7.5 4.4 C 6.7 3.6 5.6 3.2 4.5 3.2 C 3.3 3.2 2.5 3.8 2.5 4.7 C 2.5 5.7 3.6 6 5 6.3 C 6.7 6.7 8.7 7.3 8.7 9.5 C 8.7 11.2 7.6 12.7 4.7 12.7 C 2.8 12.7 1.4 12.1 0.5 11.1 C 0.5 11.1 1.4 9.8 1.4 9.8 Z M 10.5 10.8 C 10.55 10.85 10.5 6.1 10.5 6.1 L 9.3 6.1 L 9.3 4.9 L 10.5 4.9 L 10.5 2.8 L 12 2.8 L 12 4.9 L 13.5 4.9 L 13.5 6.1 L 12 6.1 C 12 6.1 11.97 10.53 12 10.5 C 12 11.1 12.2 11.5 12.7 11.5 C 13.1 11.5 13.4 11.3 13.5 11.2 C 13.5 11.2 13.9 12.2 13.9 12.2 C 13.6 12.5 13.1 12.7 12.4 12.7 C 11.2 12.7 10.5 12.1 10.5 10.8 Z M 15.1 4.9 L 16.5 4.9 C 16.5 4.9 16.55 6.05 16.5 6.1 C 17.1 5.3 18 4.7 19.1 4.7 C 19.1 4.7 19.1 6.1 19.1 6.1 C 18.9 6.1 18.8 6.1 18.6 6.1 C 17.9 6.1 16.9 6.6 16.5 7.2 C 16.55 7.21 16.5 12.5 16.5 12.5 L 15.1 12.5 L 15.1 4.9 Z M 23.9 4.7 C 26.2 4.7 27.6 6.5 27.6 8.8 C 27.59 8.83 27.6 9.2 27.6 9.2 C 27.6 9.2 21.52 9.18 21.5 9.2 C 21.6 10.5 22.6 11.6 24.1 11.6 C 24.9 11.6 25.8 11.2 26.4 10.7 C 26.4 10.7 27.1 11.6 27.1 11.6 C 26.3 12.3 25.2 12.7 24 12.7 C 21.7 12.7 20 11.1 20 8.7 C 20 6.5 21.6 4.7 23.9 4.7 Z M 21.5 8.1 C 21.5 8.1 26.2 8.1 26.2 8.1 C 26.2 7.1 25.5 5.9 23.9 5.9 C 22.3 5.9 21.6 7.1 21.5 8.1 Z M 32.7 4.7 C 35.1 4.7 36.5 6.5 36.5 8.8 C 36.48 8.83 36.5 9.2 36.5 9.2 C 36.5 9.2 30.41 9.18 30.4 9.2 C 30.5 10.5 31.5 11.6 33 11.6 C 33.8 11.6 34.7 11.2 35.3 10.7 C 35.3 10.7 36 11.6 36 11.6 C 35.2 12.3 34.1 12.7 32.9 12.7 C 30.6 12.7 28.9 11.1 28.9 8.7 C 28.9 6.5 30.5 4.7 32.7 4.7 Z M 30.4 8.1 C 30.4 8.1 35.1 8.1 35.1 8.1 C 35.1 7.1 34.4 5.9 32.7 5.9 C 31.2 5.9 30.5 7.1 30.4 8.1 Z M 38.6 10.8 C 38.56 10.85 38.6 6.1 38.6 6.1 L 37.3 6.1 L 37.3 4.9 L 38.6 4.9 L 38.6 2.8 L 40 2.8 L 40 4.9 L 41.5 4.9 L 41.5 6.1 L 40 6.1 C 40 6.1 39.99 10.53 40 10.5 C 40 11.1 40.2 11.5 40.7 11.5 C 41.1 11.5 41.4 11.3 41.5 11.2 C 41.5 11.2 41.9 12.2 41.9 12.2 C 41.6 12.5 41.1 12.7 40.4 12.7 C 39.2 12.7 38.6 12.1 38.6 10.8 Z M 54 10.4 L 48.8 10.4 L 47.9 12.5 L 46.2 12.5 L 50.4 2 L 52.4 2 L 56.6 12.5 L 54.8 12.5 L 54 10.4 Z M 49.2 8.9 L 53.5 8.9 L 51.4 3.3 L 49.2 8.9 Z M 63.3 11.5 C 62.7 12.2 61.8 12.7 60.8 12.7 C 58.8 12.7 57.3 11.2 57.3 8.7 C 57.3 6.3 58.8 4.7 60.8 4.7 C 61.8 4.7 62.7 5.2 63.3 6 C 63.28 5.99 63.3 2 63.3 2 L 64.7 2 L 64.7 12.5 L 63.3 12.5 C 63.3 12.5 63.28 11.45 63.3 11.5 Z M 63.3 7.1 C 62.9 6.5 62 6 61.1 6 C 59.7 6 58.8 7.1 58.8 8.7 C 58.8 10.3 59.7 11.5 61.1 11.5 C 62 11.5 62.9 11 63.3 10.4 C 63.3 10.4 63.3 7.1 63.3 7.1 Z M 72.5 11.5 C 71.9 12.2 71 12.7 69.9 12.7 C 67.9 12.7 66.5 11.2 66.5 8.7 C 66.5 6.3 67.9 4.7 69.9 4.7 C 70.9 4.7 71.8 5.2 72.5 6 C 72.46 5.99 72.5 2 72.5 2 L 73.9 2 L 73.9 12.5 L 72.5 12.5 C 72.5 12.5 72.46 11.45 72.5 11.5 Z M 72.5 7.1 C 72.1 6.5 71.2 6 70.3 6 C 68.9 6 68 7.1 68 8.7 C 68 10.3 68.9 11.5 70.3 11.5 C 71.2 11.5 72.1 11 72.5 10.4 C 72.5 10.4 72.5 7.1 72.5 7.1 Z M 76.2 4.9 L 77.6 4.9 C 77.6 4.9 77.6 6.05 77.6 6.1 C 78.2 5.3 79.1 4.7 80.1 4.7 C 80.1 4.7 80.1 6.1 80.1 6.1 C 80 6.1 79.8 6.1 79.6 6.1 C 78.9 6.1 77.9 6.6 77.6 7.2 C 77.6 7.21 77.6 12.5 77.6 12.5 L 76.2 12.5 L 76.2 4.9 Z M 84.9 4.7 C 87.2 4.7 88.6 6.5 88.6 8.8 C 88.64 8.83 88.6 9.2 88.6 9.2 C 88.6 9.2 82.57 9.18 82.6 9.2 C 82.7 10.5 83.6 11.6 85.2 11.6 C 86 11.6 86.9 11.2 87.4 10.7 C 87.4 10.7 88.1 11.6 88.1 11.6 C 87.4 12.3 86.3 12.7 85 12.7 C 82.7 12.7 81.1 11.1 81.1 8.7 C 81.1 6.5 82.7 4.7 84.9 4.7 Z M 82.6 8.1 C 82.6 8.1 87.2 8.1 87.2 8.1 C 87.2 7.1 86.5 5.9 84.9 5.9 C 83.4 5.9 82.6 7.1 82.6 8.1 Z M 90.4 10.5 C 91 11.1 92 11.6 93 11.6 C 94.1 11.6 94.7 11.2 94.7 10.5 C 94.7 9.7 93.8 9.5 92.8 9.3 C 91.5 9 90 8.6 90 7 C 90 5.7 91 4.7 92.9 4.7 C 94.2 4.7 95.2 5.2 95.8 5.8 C 95.8 5.8 95.2 6.8 95.2 6.8 C 94.8 6.2 93.9 5.8 92.9 5.8 C 92 5.8 91.4 6.2 91.4 6.8 C 91.4 7.5 92.2 7.7 93.1 8 C 94.5 8.3 96.1 8.6 96.1 10.4 C 96.1 11.7 95 12.7 93 12.7 C 91.7 12.7 90.5 12.3 89.8 11.5 C 89.8 11.5 90.4 10.5 90.4 10.5 Z M 97.9 10.5 C 98.4 11.1 99.4 11.6 100.5 11.6 C 101.5 11.6 102.1 11.2 102.1 10.5 C 102.1 9.7 101.2 9.5 100.2 9.3 C 98.9 9 97.4 8.6 97.4 7 C 97.4 5.7 98.5 4.7 100.3 4.7 C 101.7 4.7 102.6 5.2 103.3 5.8 C 103.3 5.8 102.6 6.8 102.6 6.8 C 102.2 6.2 101.3 5.8 100.4 5.8 C 99.4 5.8 98.8 6.2 98.8 6.8 C 98.8 7.5 99.6 7.7 100.6 8 C 101.9 8.3 103.5 8.6 103.5 10.4 C 103.5 11.7 102.4 12.7 100.4 12.7 C 99.1 12.7 98 12.3 97.2 11.5 C 97.2 11.5 97.9 10.5 97.9 10.5 Z " stroke="none" fill="#000"/>
  </g>
</svg>