<?xml version="1.0" standalone="no"?>
<!DOCTYPE svg PUBLIC "-//W3C//DTD SVG 1.1//EN" "http://www.w3.org/Graphics/SVG/1.1/DTD/svg11.dtd">
<svg xmlns="http://www.w3.org/2000/svg" version="1.1" width="103px" height="27.9px" viewBox="0 -6 103 27.9" style="top:-6px">
  <desc>Agent 1</desc>
  <defs/>
  <g id="Polygon270202">
    <path d="M 1.2 2 C 1.2 2 5.64 1.95 5.6 2 C 7.8 2 9 3.4 9 5.2 C 9 7 7.8 8.5 5.6 8.5 C 5.64 8.46 2.8 8.5 2.8 8.5 L 2.8 12.5 L 1.2 12.5 L 1.2 2 Z M 5.4 3.4 C 5.43 3.35 2.8 3.4 2.8 3.4 L 2.8 7.1 C 2.8 7.1 5.43 7.07 5.4 7.1 C 6.6 7.1 7.4 6.3 7.4 5.2 C 7.4 4.1 6.6 3.4 5.4 3.4 Z M 10.5 4.9 L 11.9 4.9 C 11.9 4.9 11.89 6.05 11.9 6.1 C 12.5 5.3 13.4 4.7 14.4 4.7 C 14.4 4.7 14.4 6.1 14.4 6.1 C 14.3 6.1 14.1 6.1 13.9 6.1 C 13.2 6.1 12.2 6.6 11.9 7.2 C 11.89 7.21 11.9 12.5 11.9 12.5 L 10.5 12.5 L 10.5 4.9 Z M 15.5 2.7 C 15.5 2.2 15.9 1.8 16.4 1.8 C 16.9 1.8 17.3 2.2 17.3 2.7 C 17.3 3.2 16.9 3.6 16.4 3.6 C 15.9 3.6 15.5 3.2 15.5 2.7 Z M 15.7 4.9 L 17.1 4.9 L 17.1 12.5 L 15.7 12.5 L 15.7 4.9 Z M 22.6 4.7 C 24.1 4.7 25 5.3 25.5 6 C 25.5 6 24.6 6.9 24.6 6.9 C 24.1 6.3 23.5 6 22.7 6 C 21.2 6 20.2 7.1 20.2 8.7 C 20.2 10.3 21.2 11.5 22.7 11.5 C 23.5 11.5 24.1 11.2 24.6 10.5 C 24.6 10.5 25.5 11.4 25.5 11.4 C 25 12.1 24.1 12.7 22.6 12.7 C 20.3 12.7 18.7 11 18.7 8.7 C 18.7 6.4 20.3 4.7 22.6 4.7 Z M 30.3 4.7 C 32.6 4.7 34 6.5 34 8.8 C 34.03 8.83 34 9.2 34 9.2 C 34 9.2 27.97 9.18 28 9.2 C 28.1 10.5 29 11.6 30.6 11.6 C 31.4 11.6 32.3 11.2 32.8 10.7 C 32.8 10.7 33.5 11.6 33.5 11.6 C 32.7 12.3 31.7 12.7 30.4 12.7 C 28.1 12.7 26.5 11.1 26.5 8.7 C 26.5 6.5 28.1 4.7 30.3 4.7 Z M 28 8.1 C 28 8.1 32.6 8.1 32.6 8.1 C 32.6 7.1 31.9 5.9 30.3 5.9 C 28.8 5.9 28 7.1 28 8.1 Z M 42.2 1.6 L 43.3 1.6 L 39.6 12.9 L 38.5 12.9 L 42.2 1.6 Z M 48.5 9.8 C 49.2 10.6 50.4 11.3 51.9 11.3 C 53.6 11.3 54.2 10.5 54.2 9.7 C 54.2 8.6 53 8.3 51.6 7.9 C 49.9 7.5 48 7 48 4.8 C 48 3.1 49.5 1.8 51.7 1.8 C 53.3 1.8 54.6 2.3 55.6 3.3 C 55.6 3.3 54.7 4.4 54.7 4.4 C 53.8 3.6 52.7 3.2 51.6 3.2 C 50.4 3.2 49.6 3.8 49.6 4.7 C 49.6 5.7 50.7 6 52.1 6.3 C 53.8 6.7 55.8 7.3 55.8 9.5 C 55.8 11.2 54.7 12.7 51.8 12.7 C 49.9 12.7 48.5 12.1 47.6 11.1 C 47.6 11.1 48.5 9.8 48.5 9.8 Z M 57.5 2 L 64.6 2 L 64.6 3.4 L 59.1 3.4 L 59.1 6.4 L 64.5 6.4 L 64.5 7.8 L 59.1 7.8 L 59.1 12.5 L 57.5 12.5 L 57.5 2 Z " stroke="none" fill="#3797ef"/>
  </g>
</svg>