<?xml version="1.0" standalone="no"?><!DOCTYPE svg PUBLIC "-//W3C//DTD SVG 1.1//EN" "http://www.w3.org/Graphics/SVG/1.1/DTD/svg11.dtd"><svg xmlns="http://www.w3.org/2000/svg" version="1.1" width="158.4px" height="47.3px" viewBox="0 -6 158.4 47.3" style="top:-6px"><desc>SUBMIT LOI</desc><defs/><g id="Polygon310384"><path d="m70.5 21h1.6v9.2h4.8v1.4h-6.4V21zm12.6-.2c3.1 0 5.3 2.4 5.3 5.5c0 3.2-2.2 5.5-5.3 5.5c-3.2 0-5.4-2.3-5.4-5.5c0-3.1 2.2-5.5 5.4-5.5zm0 1.4c-2.3 0-3.7 1.8-3.7 4.1c0 2.3 1.4 4.1 3.7 4.1c2.2 0 3.7-1.8 3.7-4.1c0-2.3-1.5-4.1-3.7-4.1zm7.2-1.2h1.6v10.6h-1.6V21z" stroke="none" fill="#fff"/></g><g id="Polygon310383"><path d="m52.2 9.8c.7.8 1.8 1.5 3.3 1.5c1.7 0 2.3-.9 2.3-1.6c0-1.1-1.2-1.4-2.5-1.8c-1.7-.4-3.7-.9-3.7-3.1c0-1.7 1.5-3 3.7-3c1.7 0 3 .5 3.9 1.5l-.9 1.1c-.8-.8-1.9-1.2-3.1-1.2c-1.2 0-2 .6-2 1.5c0 1 1.2 1.3 2.5 1.6c1.7.4 3.7 1 3.7 3.2c0 1.7-1.1 3.2-4 3.2c-1.9 0-3.2-.6-4.1-1.6l.9-1.3zM61.3 2h1.6s-.02 6.35 0 6.4c0 1.8 1 2.9 2.8 2.9c1.9 0 2.9-1.1 2.9-2.9V2h1.6v6.4c0 2.6-1.5 4.3-4.5 4.3c-2.9 0-4.4-1.7-4.4-4.3c-.02 0 0-6.4 0-6.4zm11.3 0s4.93-.05 4.9 0c1.9 0 3 1.1 3 2.7c0 1.3-.9 2.2-1.8 2.4c1.1.2 2 1.3 2 2.6c0 1.7-1.1 2.8-3 2.8c-.05.04-5.1 0-5.1 0V2zm4.6 4.4c1.1 0 1.7-.6 1.7-1.5c0-.9-.6-1.6-1.7-1.6c.02.05-3.1 0-3.1 0v3.1s3.12.05 3.1 0zm.1 4.7c1.1 0 1.8-.6 1.8-1.6c0-.9-.6-1.7-1.8-1.7c0 .04-3.2 0-3.2 0v3.3s3.2.05 3.2 0zm14.5-7l-3.4 8.4h-.7l-3.4-8.4v8.4h-1.6V2h2.3l3 7.6L91.1 2h2.3v10.5h-1.6V4.1zM95.7 2h1.6v10.5h-1.6V2zm6.6 1.3H99V2h8.1v1.3h-3.2v9.2h-1.6V3.3z" stroke="none" fill="#fff"/></g></svg>