<?xml version="1.0" standalone="no"?><!DOCTYPE svg PUBLIC "-//W3C//DTD SVG 1.1//EN" "http://www.w3.org/Graphics/SVG/1.1/DTD/svg11.dtd"><svg xmlns="http://www.w3.org/2000/svg" xmlns:xlink="http://www.w3.org/1999/xlink" version="1.1" width="375px" height="57.5px" viewBox="0 -15 375 57.5" style="top:-15px"><desc/><defs/><g id="Polygon39268"><path d="m128 4.9l-8.2 5.6v2.9L128 19v-3.4l-5.8-3.7l5.8-3.6V4.9zm10.2 0l-8.2 5.6v2.9l8.2 5.6v-3.4l-5.8-3.7l5.8-3.6V4.9zm11.9.2h-3.3V22h-3.3V5.1h-3.3V2.3h9.9v2.8zm1.4 16.9V2.3h8.7v2.8h-5.4v5.5h4.5v2.8h-4.5v5.7h5.5v2.9h-8.8zm10.8 0V2.3h3.3l4.1 12.2V2.3h3V22h-3.1l-4.3-12.8V22h-3zm19.3-4.4H178l-.7 4.4h-3.2l3.7-19.7h4.1l3.7 19.7h-3.3l-.7-4.4zm-.5-2.7l-1.3-8.8l-1.4 8.8h2.7zM187 22V2.3h3.2l4.2 12.2V2.3h3V22h-3.1L190 9.2V22h-3zm21.7-16.9h-3.3V22h-3.3V5.1h-3.3V2.3h9.9v2.8zm4.6.5v13.1c0 1.4.7 1.8 1.8 1.8h.9v2.9s-.94-.02-.9 0c-3 0-5-1.2-5-4.2V5.1c0-3 2-4.2 5-4.2h.9v2.9s-.94-.02-.9 0c-1.1 0-1.8.4-1.8 1.8zm10.2 3.7s.03-2.75 0-2.7c0-1.3-.7-1.7-1.6-1.7c-1 0-1.7.4-1.7 1.7v1.3c0 1 .3 1.5 1.3 2l2.3 1.3c1.9 1.1 3 2 3 4.1v2.8c0 3.1-1.9 4.1-4.9 4.1c-3 0-4.9-1-4.9-4.1c-.02.03 0-3.4 0-3.4h3.2v3c0 1.2.7 1.7 1.7 1.7c1 0 1.7-.5 1.7-1.7v-1.6c0-1-.3-1.5-1.3-2l-2.3-1.3c-1.9-1.1-3-2-3-4.1V6.1c0-2.9 2.1-4.1 4.8-4.1h.1c2.7 0 4.8 1.2 4.8 4.1c.05 0 0 3.2 0 3.2h-3.2zm4.2-5.5V.9h1c3 0 4.9 1.2 4.9 4.2v14.1c0 3-1.9 4.2-4.9 4.2c-.03-.02-1 0-1 0v-2.9h1c1 0 1.8-.4 1.8-1.8V5.6c0-1.4-.8-1.8-1.8-1.8c-.03-.02-1 0-1 0zm14.9 8.1l-5.8 3.7v3.4l8.2-5.6v-2.9l-8.2-5.6v3.4l5.8 3.6zm10.2 0l-5.8 3.7v3.4l8.2-5.6v-2.9L247 4.9v3.4l5.8 3.6z" stroke="none" fill="#282828"/><a xlink:href="DBF_Tenant(s)" xlink:show="new" xlink:title="&lt;&lt;Tenant(s)&gt;&gt;"><rect style="fill:transparent;" x="119" y="0" width="136" height="23"/></a></g></svg>