<?xml version="1.0" standalone="no"?><!DOCTYPE svg PUBLIC "-//W3C//DTD SVG 1.1//EN" "http://www.w3.org/Graphics/SVG/1.1/DTD/svg11.dtd"><svg xmlns="http://www.w3.org/2000/svg" version="1.1" width="416.3px" height="27.9px" viewBox="0 -6 416.3 27.9" style="top:-6px"><desc>Raising Cane s</desc><defs/><g id="Polygon84752"><path d="m4.7 8.5H2.8v4H1.2V2s4.44-.05 4.4 0C7.7 2 9 3.3 9 5.2c0 1.9-1.2 2.9-2.6 3.1l2.7 4.2H7.3l-2.6-4zm.7-5.1c.03-.05-2.6 0-2.6 0v3.7s2.63-.03 2.6 0c1.2 0 2-.8 2-1.9c0-1.1-.8-1.8-2-1.8zm12.3 7h-5.2l-.9 2.1H9.9L14.1 2h2l4.2 10.5h-1.8l-.8-2.1zM13 8.9h4.2l-2.1-5.6L13 8.9zM21.6 2h1.6v10.5h-1.6V2zm4.2 7.8c.7.8 1.8 1.5 3.3 1.5c1.7 0 2.3-.8 2.3-1.6c0-1.1-1.2-1.4-2.5-1.8c-1.7-.4-3.7-.9-3.7-3.1c0-1.7 1.5-3 3.8-3c1.6 0 2.9.5 3.8 1.5l-.9 1.1c-.8-.8-1.9-1.2-3.1-1.2c-1.1 0-2 .6-2 1.5c0 1 1.2 1.3 2.5 1.6c1.7.4 3.7 1 3.7 3.2c0 1.7-1.1 3.2-4 3.2c-1.8 0-3.2-.6-4.1-1.6l.9-1.3zM34.9 2h1.6v10.5h-1.6V2zm5.5 2.4v8.1h-1.6V2h1.7l5.7 7.9V2h1.6v10.5h-1.5l-5.9-8.1zm14.8-2.6c2 0 3.3.9 4.2 2.1l-1.3.7c-.6-.8-1.6-1.4-2.9-1.4c-2.2 0-3.8 1.7-3.8 4.1c0 2.3 1.6 4 3.8 4c1.2 0 2.2-.5 2.7-1c.02-.01 0-1.9 0-1.9h-3.4V7h5v3.9c-1 1.1-2.5 1.9-4.3 1.9c-3 0-5.5-2.2-5.5-5.5c0-3.3 2.5-5.5 5.5-5.5zm10 5.5c0-3.3 2.4-5.5 5.4-5.5c2.1 0 3.4 1 4.2 2.2l-1.3.7c-.6-.9-1.6-1.5-2.9-1.5c-2.1 0-3.8 1.7-3.8 4.1c0 2.3 1.7 4 3.8 4c1.3 0 2.3-.6 2.9-1.5l1.3.7c-.8 1.2-2.1 2.2-4.2 2.2c-3 0-5.4-2.2-5.4-5.4zm17.9 3.1h-5.2l-.9 2.1h-1.7L79.5 2h2l4.2 10.5h-1.8l-.8-2.1zm-4.8-1.5h4.3l-2.1-5.6l-2.2 5.6zm10.2-4.5v8.1h-1.6V2h1.7l5.7 7.9V2h1.6v10.5h-1.5l-5.9-8.1zM98.3 2h7.1v1.4h-5.5v3h5.4v1.4h-5.4v3.4h5.5v1.3h-7.1V2zm8.8 3.1c.5-.3 1-.9 1.1-1.5c0 .1-.2.1-.2.1c-.5 0-.9-.4-.9-.9c0-.6.4-1 1-1c.5 0 1.1.5 1.1 1.3c0 1.1-.6 2-1.4 2.6l-.7-.6zm4.3 4.7c.7.8 1.9 1.5 3.3 1.5c1.7 0 2.4-.8 2.4-1.6c0-1.1-1.3-1.4-2.6-1.8c-1.7-.4-3.7-.9-3.7-3.1c0-1.7 1.6-3 3.8-3c1.6 0 2.9.5 3.8 1.5l-.9 1.1c-.8-.8-1.9-1.2-3.1-1.2c-1.1 0-1.9.6-1.9 1.5c0 1 1.1 1.3 2.4 1.6c1.8.4 3.8 1 3.8 3.2c0 1.7-1.2 3.2-4 3.2c-1.9 0-3.3-.6-4.2-1.6l.9-1.3z" stroke="none" fill="#88898a"/></g></svg>