<?xml version="1.0" standalone="no"?><!DOCTYPE svg PUBLIC "-//W3C//DTD SVG 1.1//EN" "http://www.w3.org/Graphics/SVG/1.1/DTD/svg11.dtd"><svg xmlns="http://www.w3.org/2000/svg" xmlns:xlink="http://www.w3.org/1999/xlink" version="1.1" width="237px" height="46.9px" viewBox="0 -14 237 46.9" style="top:-14px"><desc/><defs/><g id="Polygon46256"><path d="m122.3 6.9l7-3.6v.8l-6.2 3.1l6.2 3.1v.8l-7-3.6v-.6zm7.9 0l6.9-3.6v.8L131 7.2l6.1 3.1v.8l-6.9-3.6v-.6zm8.7-4.9s4-.05 4 0c2 0 3.2 1.4 3.2 3.1c0 1.6-1.2 3-3.2 3c0 .05-3.1 0-3.1 0v4.4h-.9V2zm3.9.8c0-.02-3 0-3 0v4.5s3 .02 3 0c1.4 0 2.3-.9 2.3-2.2c0-1.4-.9-2.3-2.3-2.3zm5.2 2.1h.8v1.3c.6-.9 1.5-1.5 2.6-1.5v.9h-.4c-.8 0-1.9.7-2.2 1.4v5.5h-.8V4.9zm4.6 3.8c0-2.2 1.4-4 3.6-4c2.3 0 3.7 1.8 3.7 4c0 2.2-1.4 4-3.7 4c-2.2 0-3.6-1.8-3.6-4zm6.4 0c0-1.7-1-3.3-2.8-3.3c-1.7 0-2.8 1.6-2.8 3.3c0 1.7 1.1 3.3 2.8 3.3c1.8 0 2.8-1.6 2.8-3.3zm3.1 6.8V4.9h.8v1.2c.5-.8 1.5-1.4 2.7-1.4c2 0 3.4 1.5 3.4 4c0 2.5-1.4 4-3.4 4c-1.1 0-2.1-.5-2.7-1.4v4.2h-.8zm3.3-10.1c-1 0-2.1.7-2.5 1.4v3.8c.4.7 1.5 1.4 2.5 1.4c1.7 0 2.7-1.4 2.7-3.3c0-1.9-1-3.3-2.7-3.3zm9-.7c2.3 0 3.6 1.8 3.6 4.1v.2s-6.42-.03-6.4 0c.1 1.6 1.2 3 3 3c1 0 1.8-.3 2.5-1l.4.5c-.7.8-1.7 1.2-3 1.2c-2.2 0-3.8-1.6-3.8-4c0-2.2 1.5-4 3.7-4zm-2.8 3.6h5.6c-.1-1.3-.9-2.9-2.8-2.9c-1.9 0-2.8 1.6-2.8 2.9zm8.5-3.4h.8s.05 1.29 0 1.3c.7-.9 1.6-1.5 2.6-1.5v.9h-.4c-.8 0-1.8.7-2.2 1.4c.05-.04 0 5.5 0 5.5h-.8V4.9zm5.2 6.2c.02-.03 0-5.5 0-5.5H184v-.7h1.3V2.8h.9v2.1h1.5v.7h-1.5s-.04 5.34 0 5.3c0 .7.2 1.1.8 1.1c.3 0 .6-.2.8-.4l.3.7c-.3.2-.6.4-1.3.4c-1 0-1.5-.6-1.5-1.6zm4.5 3.8c.5 0 .9-.2 1.2-.9c-.01-.02.6-1.4.6-1.4l-3.2-7.7h.9l2.8 6.7l2.7-6.7h1s-4 9.33-4 9.3c-.4 1-1.1 1.5-2 1.5c-.2 0-.6-.1-.8-.2l.2-.7c.1.1.4.1.6.1zm11-3.1l6.4-9h-6.4v-.8h7.5v.7l-6.4 9h6.5v.8h-7.6v-.7zm9.5-8.9c0-.3.3-.6.6-.6c.4 0 .7.3.7.6c0 .4-.3.7-.7.7c-.3 0-.6-.3-.6-.7zm.2 2h.8v7.6h-.8V4.9zm3.4 10.6V4.9h.8s.03 1.2 0 1.2c.6-.8 1.6-1.4 2.7-1.4c2 0 3.4 1.5 3.4 4c0 2.5-1.4 4-3.4 4c-1.1 0-2.1-.5-2.7-1.4c.03.01 0 4.2 0 4.2h-.8zm3.4-10.1c-1.1 0-2.1.7-2.6 1.4v3.8c.5.7 1.5 1.4 2.6 1.4c1.7 0 2.6-1.4 2.6-3.3c0-1.9-.9-3.3-2.6-3.3zm4.8 4.9l6.2-3.1l-6.2-3.1v-.8l7 3.6v.6l-7 3.6v-.8zm7.9 0l6.1-3.1l-6.1-3.1v-.8l7 3.6v.6l-7 3.6v-.8z" stroke="none" fill="#000"/><a xlink:href="DBF_Property%20Zip" xlink:show="new" xlink:title="&lt;&lt;Property Zip&gt;&gt;"><rect style="fill:transparent;" x="121" y="1" width="116" height="15"/></a></g></svg>