<?xml version="1.0" standalone="no"?><!DOCTYPE svg PUBLIC "-//W3C//DTD SVG 1.1//EN" "http://www.w3.org/Graphics/SVG/1.1/DTD/svg11.dtd"><svg xmlns="http://www.w3.org/2000/svg" version="1.1" width="343px" height="29.9px" viewBox="0 -7 343 29.9" style="top:-7px"><desc>15</desc><defs/><g id="Polygon320465"><path d="m3.1 4.3L1.3 6.2l-1-1.1l3-3h1.5v11.2H3.1v-9zm5 6.3c.7.9 1.7 1.4 3 1.4c1.5 0 2.5-1 2.5-2.2c0-1.3-1-2.2-2.5-2.2c-.9 0-1.7.3-2.5 1l-1.2-.4V2.1h7.1v1.4H9.1v3.6c.5-.5 1.5-1 2.6-1c1.9 0 3.5 1.3 3.5 3.6c0 2.3-1.7 3.8-4.1 3.8c-1.9 0-3.2-.7-4-1.8l1-1.1z" stroke="none" fill="#88898a"/></g></svg>