<?xml version="1.0" standalone="no"?><!DOCTYPE svg PUBLIC "-//W3C//DTD SVG 1.1//EN" "http://www.w3.org/Graphics/SVG/1.1/DTD/svg11.dtd"><svg xmlns="http://www.w3.org/2000/svg" xmlns:xlink="http://www.w3.org/1999/xlink" version="1.1" width="155.5px" height="47.9px" viewBox="0 -14 155.5 47.9" style="top:-14px"><desc/><defs/><g id="Polygon39369"><path d="m32.3 6.9l7-3.6v.8l-6.2 3.1l6.2 3.1v.8l-7-3.6v-.6zm7.9 0l6.9-3.6v.8L41 7.2l6.1 3.1v.8l-6.9-3.6v-.6zm11.4-4.1h-3.4v-.8h7.8v.8h-3.5v9.7h-.9V2.8zm7.5 1.9c2.4 0 3.7 1.8 3.7 4.1c-.04-.05 0 .2 0 .2c0 0-6.45-.03-6.5 0c.1 1.6 1.2 3 3 3c1 0 1.9-.3 2.6-1l.4.5c-.8.8-1.7 1.2-3 1.2c-2.3 0-3.9-1.6-3.9-4c0-2.2 1.6-4 3.7-4zm-2.8 3.6h5.6c0-1.3-.8-2.9-2.8-2.9c-1.8 0-2.7 1.6-2.8 2.9zm13.8-.9c0-1.5-.8-2-1.9-2c-1 0-2 .7-2.5 1.3c.02.05 0 5.8 0 5.8h-.8V4.9h.8s.02 1.13 0 1.1c.6-.6 1.7-1.3 2.8-1.3c1.5 0 2.4.7 2.4 2.5v5.3h-.8s-.03-5.13 0-5.1zm8.2 4.2c-.6.8-1.5 1.1-2.6 1.1c-1.3 0-2.6-.9-2.6-2.5c0-1.7 1.3-2.5 2.6-2.5c1.1 0 2 .3 2.6 1V7.2c0-1.1-.9-1.8-2-1.8c-1 0-1.7.3-2.4 1.1l-.5-.5c.8-.9 1.7-1.3 3-1.3c1.5 0 2.8.7 2.8 2.4c-.03.05 0 5.4 0 5.4h-.9s.05-.86 0-.9zm0-2.2c-.5-.7-1.4-1.1-2.3-1.1c-1.2 0-2.1.8-2.1 1.9c0 1.1.9 1.9 2.1 1.9c.9 0 1.8-.4 2.3-1.1V9.4zm8.6-2c0-1.5-.7-2-1.8-2c-1 0-2 .7-2.5 1.3c-.03.05 0 5.8 0 5.8h-.9V4.9h.9s-.03 1.13 0 1.1c.5-.6 1.6-1.3 2.7-1.3c1.6 0 2.4.7 2.4 2.5c.05-.02 0 5.3 0 5.3h-.8s.02-5.13 0-5.1zm3.6 3.7c-.02-.03 0-5.5 0-5.5h-1.3v-.7h1.3V2.8h.8v2.1h1.6v.7h-1.6s.02 5.34 0 5.3c0 .7.3 1.1.8 1.1c.4 0 .7-.2.9-.4l.3.7c-.3.2-.7.4-1.3.4c-1 0-1.5-.6-1.5-1.6zm3.6-2.4c0-2.6.8-5 2.1-7l.5.3c-1 2.1-1.6 3.9-1.6 6.7c0 2.7.6 4.6 1.6 6.6l-.5.4c-1.3-2.1-2.1-4.5-2.1-7zm4 2.2c.5.6 1.4 1.1 2.5 1.1c1.3 0 2-.6 2-1.5c0-1-1-1.3-2.1-1.5c-1.3-.4-2.7-.7-2.7-2.2c0-1.2 1-2.1 2.7-2.1c1.4 0 2.2.5 2.8 1.1l-.5.6c-.4-.6-1.3-1-2.3-1c-1.2 0-1.9.6-1.9 1.4c0 .8 1 1.1 2.1 1.3c1.3.4 2.8.7 2.8 2.4c0 1.2-1 2.2-2.9 2.2c-1.3 0-2.2-.3-3-1.2l.5-.6zm6.5-8.9l.5-.3c1.3 2 2.1 4.4 2.1 7c0 2.5-.8 4.9-2.1 7l-.5-.4c1-2 1.7-3.9 1.7-6.6c0-2.8-.7-4.6-1.7-6.7zm3.8 8.3l6.1-3.1l-6.1-3.1v-.8l6.9 3.6v.6l-6.9 3.6v-.8zm7.8 0l6.2-3.1l-6.2-3.1v-.8l7 3.6v.6l-7 3.6v-.8z" stroke="none" fill="#000"/><a xlink:href="DBF_Tenant(s)" xlink:show="new" xlink:title="&lt;&lt;Tenant(s)&gt;&gt;"><rect style="fill:transparent;" x="31" y="1" width="92" height="15"/></a></g></svg>