<?xml version="1.0" standalone="no"?><!DOCTYPE svg PUBLIC "-//W3C//DTD SVG 1.1//EN" "http://www.w3.org/Graphics/SVG/1.1/DTD/svg11.dtd"><svg xmlns="http://www.w3.org/2000/svg" version="1.1" width="158px" height="27.9px" viewBox="0 -6 158 27.9" style="top:-6px"><desc>Commencement Date</desc><defs/><g id="Polygon283658"><path d="m.7 7.3C.7 4 3.1 1.8 6.2 1.8c2 0 3.3 1 4.2 2.2L9 4.7c-.5-.9-1.6-1.5-2.8-1.5c-2.2 0-3.8 1.7-3.8 4.1c0 2.3 1.6 4 3.8 4c1.2 0 2.3-.6 2.8-1.5l1.4.7c-.9 1.2-2.2 2.2-4.2 2.2c-3.1 0-5.5-2.2-5.5-5.4zm10.8 1.4c0-2.2 1.4-4 3.8-4c2.4 0 3.9 1.8 3.9 4c0 2.2-1.5 4-3.9 4c-2.4 0-3.8-1.8-3.8-4zm6.2 0c0-1.4-.8-2.7-2.4-2.7c-1.5 0-2.4 1.3-2.4 2.7c0 1.5.9 2.8 2.4 2.8c1.6 0 2.4-1.3 2.4-2.8zm12.6-1.3c0-.9-.4-1.4-1.3-1.4c-.8 0-1.5.5-1.9 1.1v5.4h-1.4s-.03-5.07 0-5.1c0-.9-.4-1.4-1.4-1.4c-.7 0-1.5.5-1.9 1.1c.04-.03 0 5.4 0 5.4H21V4.9h1.4s.04 1.05 0 1.1c.4-.5 1.4-1.3 2.5-1.3c1.2 0 1.9.6 2.1 1.4c.4-.7 1.5-1.4 2.6-1.4c1.4 0 2.2.8 2.2 2.3c-.04 0 0 5.5 0 5.5h-1.5s.04-5.07 0-5.1zm13.1 0C43.4 6.5 43 6 42 6c-.8 0-1.5.5-1.9 1.1c.02-.05 0 5.4 0 5.4h-1.4V7.4c0-.9-.4-1.4-1.4-1.4c-.7 0-1.5.5-1.8 1.1c-.04-.03 0 5.4 0 5.4H34V4.9h1.5s-.04 1.05 0 1.1c.3-.5 1.3-1.3 2.4-1.3c1.2 0 1.9.6 2.1 1.4c.5-.7 1.5-1.4 2.6-1.4c1.4 0 2.2.8 2.2 2.3v5.5h-1.4s-.04-5.07 0-5.1zm7-2.7c2.3 0 3.8 1.8 3.8 4.1c-.04.03 0 .4 0 .4c0 0-6.11-.02-6.1 0c.1 1.3 1.1 2.4 2.6 2.4c.8 0 1.7-.4 2.3-.9l.6.9c-.7.7-1.8 1.1-3 1.1c-2.3 0-4-1.6-4-4c0-2.2 1.6-4 3.8-4zm-2.3 3.4h4.7c-.1-1-.8-2.2-2.4-2.2c-1.5 0-2.2 1.2-2.3 2.2zm13-.5c0-1.2-.6-1.6-1.6-1.6c-.9 0-1.7.5-2.1 1.1c-.02-.03 0 5.4 0 5.4H56V4.9h1.4s-.02 1.05 0 1.1c.5-.7 1.5-1.3 2.7-1.3c1.6 0 2.5.8 2.5 2.5c-.04-.04 0 5.3 0 5.3h-1.5s.03-4.86 0-4.9zm7.2-2.9c1.4 0 2.3.6 2.8 1.3l-.9.9c-.5-.6-1.1-.9-1.9-.9c-1.5 0-2.5 1.1-2.5 2.7c0 1.6 1 2.8 2.5 2.8c.8 0 1.4-.3 1.9-1l.9.9c-.5.7-1.4 1.3-2.8 1.3c-2.4 0-3.9-1.7-3.9-4c0-2.3 1.5-4 3.9-4zm7.8 0c2.3 0 3.7 1.8 3.7 4.1v.4s-6.06-.02-6.1 0c.2 1.3 1.1 2.4 2.6 2.4c.9 0 1.7-.4 2.3-.9l.7.9c-.8.7-1.9 1.1-3.1 1.1c-2.3 0-4-1.6-4-4c0-2.2 1.6-4 3.9-4zm-2.4 3.4h4.7c0-1-.7-2.2-2.3-2.2c-1.6 0-2.3 1.2-2.4 2.2zm17.2-.7c0-.9-.4-1.4-1.3-1.4c-.8 0-1.6.5-1.9 1.1c-.02-.05 0 5.4 0 5.4h-1.4s-.04-5.07 0-5.1c0-.9-.4-1.4-1.4-1.4c-.7 0-1.5.5-1.9 1.1c.03-.03 0 5.4 0 5.4h-1.4V4.9h1.4s.03 1.05 0 1.1c.3-.5 1.4-1.3 2.5-1.3c1.2 0 1.9.6 2.1 1.4c.4-.7 1.5-1.4 2.6-1.4c1.4 0 2.2.8 2.2 2.3c-.05 0 0 5.5 0 5.5h-1.5s.03-5.07 0-5.1zM98 4.7c2.3 0 3.7 1.8 3.7 4.1c.02.03 0 .4 0 .4c0 0-6.04-.02-6 0c.1 1.3 1 2.4 2.6 2.4c.8 0 1.7-.4 2.2-.9l.7.9c-.8.7-1.8 1.1-3.1 1.1c-2.3 0-3.9-1.6-3.9-4c0-2.2 1.6-4 3.8-4zm-2.4 3.4h4.7c0-1-.7-2.2-2.3-2.2c-1.5 0-2.3 1.2-2.4 2.2zm13.1-.5c0-1.2-.7-1.6-1.6-1.6c-.9 0-1.7.5-2.2 1.1c.05-.03 0 5.4 0 5.4h-1.4V4.9h1.4s.05 1.05 0 1.1c.6-.7 1.6-1.3 2.8-1.3c1.6 0 2.4.8 2.4 2.5c.03-.04 0 5.3 0 5.3h-1.4V7.6zm4 3.2c-.02.05 0-4.7 0-4.7h-1.3V4.9h1.3V2.8h1.4v2.1h1.6v1.2h-1.6s.01 4.43 0 4.4c0 .6.3 1 .8 1c.3 0 .6-.2.7-.3l.4 1c-.3.3-.7.5-1.5.5c-1.2 0-1.8-.6-1.8-1.9zm8.7-8.8s3.77-.05 3.8 0c3.3 0 5.5 2.2 5.5 5.3c0 3-2.2 5.2-5.5 5.2c-.03.05-3.8 0-3.8 0V2zm3.8 9.2c2.4 0 3.8-1.8 3.8-3.9c0-2.2-1.3-3.9-3.8-3.9c-.03-.05-2.2 0-2.2 0v7.8s2.17-.05 2.2 0zm12.1.5c-.6.7-1.5 1-2.5 1c-1.3 0-2.7-.8-2.7-2.5c0-1.8 1.4-2.5 2.7-2.5c1 0 1.9.3 2.5 1V7.4c0-.9-.8-1.5-1.9-1.5c-.9 0-1.6.3-2.3 1l-.6-1c.8-.8 1.9-1.2 3.1-1.2c1.7 0 3.1.7 3.1 2.7v5.1h-1.4v-.8zm0-2.1c-.4-.6-1.2-.9-2-.9c-1 0-1.7.6-1.7 1.5c0 .9.7 1.5 1.7 1.5c.8 0 1.6-.3 2-.8V9.6zm4 1.2V6.1H140V4.9h1.3V2.8h1.4v2.1h1.6v1.2h-1.6s.02 4.43 0 4.4c0 .6.3 1 .8 1c.3 0 .6-.2.7-.3l.4 1c-.3.3-.7.5-1.5.5c-1.2 0-1.8-.6-1.8-1.9zm7.9-6.1c2.3 0 3.8 1.8 3.8 4.1c-.04.03 0 .4 0 .4c0 0-6.11-.02-6.1 0c.1 1.3 1.1 2.4 2.6 2.4c.8 0 1.7-.4 2.3-.9l.6.9c-.7.7-1.8 1.1-3 1.1c-2.3 0-4-1.6-4-4c0-2.2 1.6-4 3.8-4zm-2.3 3.4h4.7c-.1-1-.8-2.2-2.4-2.2c-1.5 0-2.2 1.2-2.3 2.2z" stroke="none" fill="#000"/></g></svg>