<?xml version="1.0" standalone="no"?><!DOCTYPE svg PUBLIC "-//W3C//DTD SVG 1.1//EN" "http://www.w3.org/Graphics/SVG/1.1/DTD/svg11.dtd"><svg xmlns="http://www.w3.org/2000/svg" version="1.1" width="109.3px" height="27.9px" viewBox="0 -6 109.3 27.9" style="top:-6px"><desc>City</desc><defs/><g id="Polygon281626"><path d="m.7 7.3C.7 4 3.1 1.8 6.2 1.8c2 0 3.3 1 4.2 2.2L9 4.7c-.5-.9-1.6-1.5-2.8-1.5c-2.2 0-3.8 1.7-3.8 4.1c0 2.3 1.6 4 3.8 4c1.2 0 2.3-.6 2.8-1.5l1.4.7c-.9 1.2-2.2 2.2-4.2 2.2c-3.1 0-5.5-2.2-5.5-5.4zm11-4.6c0-.5.4-.9.9-.9c.5 0 .9.4.9.9c0 .5-.4.9-.9.9c-.5 0-.9-.4-.9-.9zm.2 2.2h1.5v7.6h-1.5V4.9zm4 5.9V6.1h-1.3V4.9h1.3V2.8h1.4v2.1h1.6v1.2h-1.6s.04 4.43 0 4.4c0 .6.3 1 .8 1c.3 0 .6-.2.8-.3l.3 1c-.3.3-.7.5-1.5.5c-1.2 0-1.8-.6-1.8-1.9zm5.1 3.6c.5 0 .8-.2 1.1-.8l.4-1l-3.1-7.7h1.5l2.4 6l2.4-6h1.5s-3.76 9.11-3.8 9.1c-.5 1.2-1.3 1.6-2.4 1.7c-.2 0-.7-.1-.9-.2l.2-1.2c.2 0 .5.1.7.1z" stroke="none" fill="#000"/></g></svg>