<?xml version="1.0" standalone="no"?><!DOCTYPE svg PUBLIC "-//W3C//DTD SVG 1.1//EN" "http://www.w3.org/Graphics/SVG/1.1/DTD/svg11.dtd"><svg xmlns="http://www.w3.org/2000/svg" version="1.1" width="263px" height="27.9px" viewBox="0 -6 263 27.9" style="top:-6px"><desc>REQUEST MORE INFO</desc><defs/><g id="Polygon314283"><path d="m57 8.5h-2v4h-1.6V2s4.48-.05 4.5 0c2 0 3.4 1.3 3.4 3.2c0 1.9-1.3 2.9-2.7 3.1c.05.01 2.8 4.2 2.8 4.2h-1.9l-2.5-4zm.7-5.1c-.02-.05-2.7 0-2.7 0v3.7s2.68-.03 2.7 0c1.1 0 1.9-.8 1.9-1.9c0-1.1-.8-1.8-1.9-1.8zM63.2 2h7.1v1.4h-5.5v3h5.4v1.4h-5.4v3.4h5.5v1.3h-7.1V2zm17.9 9.1l1 1l-1.1 1l-1-1.1c-.8.5-1.7.7-2.8.7c-3.1 0-5.3-2.3-5.3-5.4c0-3.2 2.2-5.5 5.3-5.5c3.2 0 5.4 2.3 5.4 5.5c0 1.5-.6 2.8-1.5 3.8zm-2.1-.2l-1.4-1.6l1.1-.9s1.39 1.56 1.4 1.6c.5-.8.8-1.7.8-2.7c0-2.4-1.4-4.1-3.7-4.1c-2.2 0-3.7 1.7-3.7 4.1c0 2.3 1.5 4 3.7 4c.7 0 1.3-.1 1.8-.4zM84.5 2h1.6v6.4c0 1.8 1 2.9 2.8 2.9c1.9 0 2.9-1.1 2.9-2.9V2h1.6v6.4c0 2.6-1.5 4.3-4.5 4.3c-2.9 0-4.4-1.7-4.4-4.3V2zm11.3 0h7.1v1.4h-5.6v3h5.5v1.4h-5.5v3.4h5.6v1.3h-7.1V2zm9.3 7.8c.7.8 1.9 1.5 3.4 1.5c1.7 0 2.3-.8 2.3-1.6c0-1.1-1.2-1.4-2.6-1.8c-1.7-.4-3.7-.9-3.7-3.1c0-1.7 1.6-3 3.8-3c1.6 0 2.9.5 3.9 1.5l-1 1.1c-.8-.8-1.9-1.2-3-1.2c-1.2 0-2 .6-2 1.5c0 1 1.1 1.3 2.4 1.6c1.8.4 3.8 1 3.8 3.2c0 1.7-1.2 3.2-4 3.2c-1.9 0-3.3-.6-4.2-1.6l.9-1.3zm11.6-6.4h-3.3V2h8.2v1.4h-3.3v9.1h-1.6V3.4zm19.7.7l-3.4 8.4h-.7l-3.4-8.4v8.4h-1.6V2h2.3l3.1 7.6l3-7.6h2.3v10.5h-1.6V4.1zm8.9-2.3c3.1 0 5.3 2.3 5.3 5.5c0 3.1-2.2 5.4-5.3 5.4c-3.2 0-5.4-2.3-5.4-5.4c0-3.2 2.2-5.5 5.4-5.5zm0 1.4c-2.3 0-3.8 1.7-3.8 4.1c0 2.3 1.5 4 3.8 4c2.2 0 3.7-1.7 3.7-4c0-2.4-1.5-4.1-3.7-4.1zm10.8 5.3h-2v4h-1.6V2s4.47-.05 4.5 0c2 0 3.4 1.3 3.4 3.2c0 1.9-1.3 2.9-2.7 3.1c.03.01 2.7 4.2 2.7 4.2h-1.8l-2.5-4zm.7-5.1c-.03-.05-2.7 0-2.7 0v3.7s2.67-.03 2.7 0c1.1 0 1.9-.8 1.9-1.9c0-1.1-.8-1.8-1.9-1.8zm5.5-1.4h7.1v1.4h-5.5v3h5.4v1.4h-5.4v3.4h5.5v1.3h-7.1V2zm13.2 0h1.6v10.5h-1.6V2zm5.6 2.4v8.1h-1.6V2h1.6l5.8 7.9V2h1.6v10.5h-1.6l-5.8-8.1zm9.7-2.4h7.1v1.4h-5.5v3h5.4v1.4h-5.4v4.7h-1.6V2zm13.7-.2c3.2 0 5.4 2.3 5.4 5.5c0 3.1-2.2 5.4-5.4 5.4c-3.1 0-5.3-2.3-5.3-5.4c0-3.2 2.2-5.5 5.3-5.5zm0 1.4c-2.2 0-3.7 1.7-3.7 4.1c0 2.3 1.5 4 3.7 4c2.3 0 3.7-1.7 3.7-4c0-2.4-1.4-4.1-3.7-4.1z" stroke="none" fill="#ffffff"/></g></svg>