<?xml version="1.0" standalone="no"?><!DOCTYPE svg PUBLIC "-//W3C//DTD SVG 1.1//EN" "http://www.w3.org/Graphics/SVG/1.1/DTD/svg11.dtd"><svg xmlns="http://www.w3.org/2000/svg" version="1.1" width="51.1px" height="52px" viewBox="0 -11 51.1 52" style="top:-11px"><desc>06</desc><defs/><g id="Polygon83417"><path d="m24.3 7v13.3c0 3.4-2 4.7-5.3 4.7h-.2c-3.4 0-5.4-1.3-5.4-4.7V7c0-3.4 2-4.7 5.4-4.7h.2c3.3 0 5.3 1.3 5.3 4.7zm-5.4-1.5c-1.2 0-1.9.5-1.9 2.1v12.2c0 1.5.7 2 1.9 2c1.2 0 1.9-.5 1.9-2V7.6c0-1.6-.7-2.1-1.9-2.1zM34.1 9s-.04-1.76 0-1.8c0-1.5-.6-1.9-1.7-1.9c-1 0-1.6.4-1.6 1.9v4.6c.5-.5 1.1-1 2.6-1c2.6 0 4.4 1.3 4.4 4.6v5.1c0 3.3-1.9 4.5-5.2 4.5h-.1c-3.4 0-5.2-1.2-5.2-4.5V6.9c0-3.3 1.7-4.6 5.1-4.6h.1c3.3 0 5.1 1.3 5.1 4.6c.02-.04 0 2.1 0 2.1h-3.5zm-3.3 6.8v4.3c0 1.5.7 1.9 1.7 1.9c1.1 0 1.8-.4 1.8-1.9v-4.3c0-1.5-.7-1.9-1.8-1.9c-.9 0-1.7.5-1.7 1.9z" stroke="none" fill="#fff"/></g></svg>