<?xml version="1.0" standalone="no"?>
<!DOCTYPE svg PUBLIC "-//W3C//DTD SVG 1.1//EN" "http://www.w3.org/Graphics/SVG/1.1/DTD/svg11.dtd">
<svg xmlns="http://www.w3.org/2000/svg" version="1.1" width="70.1px" height="36.9px" viewBox="0 -6 70.1 36.9" style="top:-6px">
  <desc>Agent 1</desc>
  <defs/>
  <g id="Polygon208470">
    <path d="M 0.7 19.1 L 1.6 19.1 L 1.6 24.3 L 4.3 24.3 L 4.3 25.1 L 0.7 25.1 L 0.7 19.1 Z M 5 19.5 C 5 19.2 5.3 19 5.6 19 C 5.9 19 6.1 19.2 6.1 19.5 C 6.1 19.8 5.9 20 5.6 20 C 5.3 20 5 19.8 5 19.5 Z M 5.2 20.7 L 6 20.7 L 6 25.1 L 5.2 25.1 L 5.2 20.7 Z M 7.2 23.9 C 7.5 24.2 8.1 24.5 8.6 24.5 C 9.3 24.5 9.6 24.3 9.6 23.9 C 9.6 23.5 9.1 23.3 8.5 23.2 C 7.8 23.1 6.9 22.9 6.9 21.9 C 6.9 21.2 7.5 20.6 8.6 20.6 C 9.3 20.6 9.9 20.9 10.2 21.3 C 10.2 21.3 9.9 21.8 9.9 21.8 C 9.6 21.5 9.1 21.3 8.6 21.3 C 8 21.3 7.7 21.5 7.7 21.9 C 7.7 22.2 8.2 22.4 8.7 22.5 C 9.5 22.7 10.4 22.9 10.4 23.9 C 10.4 24.6 9.8 25.2 8.6 25.2 C 7.9 25.2 7.2 25 6.8 24.5 C 6.8 24.5 7.2 23.9 7.2 23.9 Z M 11.5 24.1 C 11.47 24.12 11.5 21.4 11.5 21.4 L 10.7 21.4 L 10.7 20.7 L 11.5 20.7 L 11.5 19.6 L 12.3 19.6 L 12.3 20.7 L 13.2 20.7 L 13.2 21.4 L 12.3 21.4 C 12.3 21.4 12.28 23.94 12.3 23.9 C 12.3 24.2 12.4 24.5 12.7 24.5 C 12.9 24.5 13.1 24.4 13.1 24.3 C 13.1 24.3 13.3 24.9 13.3 24.9 C 13.2 25.1 12.9 25.2 12.5 25.2 C 11.8 25.2 11.5 24.8 11.5 24.1 Z M 16.2 19.1 C 16.2 19.1 18.75 19.08 18.7 19.1 C 20 19.1 20.7 19.9 20.7 20.9 C 20.7 21.9 20 22.8 18.7 22.8 C 18.75 22.77 17.1 22.8 17.1 22.8 L 17.1 25.1 L 16.2 25.1 L 16.2 19.1 Z M 18.6 19.9 C 18.63 19.87 17.1 19.9 17.1 19.9 L 17.1 22 C 17.1 22 18.63 21.98 18.6 22 C 19.3 22 19.7 21.6 19.7 20.9 C 19.7 20.3 19.3 19.9 18.6 19.9 Z M 21.5 20.7 L 22.3 20.7 C 22.3 20.7 22.29 21.4 22.3 21.4 C 22.6 21 23.1 20.6 23.7 20.6 C 23.7 20.6 23.7 21.5 23.7 21.5 C 23.6 21.4 23.5 21.4 23.4 21.4 C 23 21.4 22.5 21.7 22.3 22.1 C 22.29 22.06 22.3 25.1 22.3 25.1 L 21.5 25.1 L 21.5 20.7 Z M 24.3 19.5 C 24.3 19.2 24.6 19 24.8 19 C 25.1 19 25.4 19.2 25.4 19.5 C 25.4 19.8 25.1 20 24.8 20 C 24.6 20 24.3 19.8 24.3 19.5 Z M 24.4 20.7 L 25.2 20.7 L 25.2 25.1 L 24.4 25.1 L 24.4 20.7 Z M 28.4 20.6 C 29.2 20.6 29.7 21 30 21.4 C 30 21.4 29.5 21.9 29.5 21.9 C 29.2 21.5 28.9 21.4 28.4 21.4 C 27.6 21.4 27 22 27 22.9 C 27 23.8 27.6 24.5 28.4 24.5 C 28.9 24.5 29.2 24.3 29.5 23.9 C 29.5 23.9 30 24.4 30 24.4 C 29.7 24.9 29.2 25.2 28.4 25.2 C 27.1 25.2 26.2 24.2 26.2 22.9 C 26.2 21.6 27.1 20.6 28.4 20.6 Z M 32.7 20.6 C 34 20.6 34.8 21.6 34.8 23 C 34.84 22.98 34.8 23.2 34.8 23.2 C 34.8 23.2 31.4 23.18 31.4 23.2 C 31.5 23.9 32 24.5 32.9 24.5 C 33.3 24.5 33.8 24.3 34.2 24 C 34.2 24 34.5 24.5 34.5 24.5 C 34.1 25 33.5 25.2 32.8 25.2 C 31.5 25.2 30.5 24.3 30.5 22.9 C 30.5 21.6 31.5 20.6 32.7 20.6 Z M 31.4 22.6 C 31.4 22.6 34 22.6 34 22.6 C 34 22 33.6 21.3 32.7 21.3 C 31.8 21.3 31.4 22 31.4 22.6 Z " stroke="none" fill="#3797ef"/>
  </g>
  <g id="Polygon208469">
    <path d="M 6.1 9.3 C 6.1 9.3 6.1 10.9 6.1 10.9 C 6.1 12.3 5.4 13 4.2 13.1 C 4.19 13.15 4.2 14.3 4.2 14.3 L 2.5 14.3 C 2.5 14.3 2.54 13.17 2.5 13.2 C 1.3 13 0.6 12.3 0.6 10.9 C 0.58 10.88 0.6 8.9 0.6 8.9 L 2.4 8.9 C 2.4 8.9 2.4 10.62 2.4 10.6 C 2.4 11.3 2.8 11.6 3.4 11.6 C 3.9 11.6 4.3 11.3 4.3 10.6 C 4.3 10.6 4.3 9.7 4.3 9.7 C 4.3 9.2 4.1 8.9 3.6 8.6 C 3.6 8.6 2.3 7.8 2.3 7.8 C 1.2 7.2 0.6 6.7 0.6 5.5 C 0.6 5.5 0.6 4.1 0.6 4.1 C 0.6 2.7 1.4 2 2.5 1.8 C 2.54 1.82 2.5 0.6 2.5 0.6 L 4.2 0.6 C 4.2 0.6 4.19 1.82 4.2 1.8 C 5.3 2 6.1 2.7 6.1 4.1 C 6.11 4.06 6.1 5.9 6.1 5.9 L 4.3 5.9 C 4.3 5.9 4.29 4.32 4.3 4.3 C 4.3 3.6 3.9 3.4 3.3 3.4 C 2.8 3.4 2.4 3.6 2.4 4.3 C 2.4 4.3 2.4 5.1 2.4 5.1 C 2.4 5.7 2.6 5.9 3.1 6.2 C 3.1 6.2 4.4 7 4.4 7 C 5.5 7.6 6.1 8.1 6.1 9.3 Z M 12.8 4.1 C 12.8 4.1 12.8 10.8 12.8 10.8 C 12.8 12.5 11.8 13.2 10.1 13.2 C 10.1 13.2 10 13.2 10 13.2 C 8.3 13.2 7.3 12.5 7.3 10.8 C 7.3 10.8 7.3 4.1 7.3 4.1 C 7.3 2.4 8.3 1.8 10 1.8 C 10 1.8 10.1 1.8 10.1 1.8 C 11.8 1.8 12.8 2.4 12.8 4.1 Z M 10 3.4 C 9.4 3.4 9.1 3.6 9.1 4.4 C 9.1 4.4 9.1 10.6 9.1 10.6 C 9.1 11.4 9.4 11.6 10 11.6 C 10.6 11.6 11 11.4 11 10.6 C 11 10.6 11 4.4 11 4.4 C 11 3.6 10.6 3.4 10 3.4 Z M 15.8 12.6 C 15.8 13.6 15.3 14.6 14.8 15.2 C 14.8 15.2 14.1 14.8 14.1 14.8 C 14.4 14.3 14.8 13.6 14.8 13.1 C 14.83 13.09 14 13.1 14 13.1 L 14 11 L 15.8 11 C 15.8 11 15.81 12.61 15.8 12.6 Z M 22.5 4.1 C 22.5 4.1 22.5 10.8 22.5 10.8 C 22.5 12.5 21.5 13.2 19.8 13.2 C 19.8 13.2 19.7 13.2 19.7 13.2 C 18 13.2 17 12.5 17 10.8 C 17 10.8 17 4.1 17 4.1 C 17 2.4 18 1.8 19.7 1.8 C 19.7 1.8 19.8 1.8 19.8 1.8 C 21.5 1.8 22.5 2.4 22.5 4.1 Z M 19.8 3.4 C 19.2 3.4 18.8 3.6 18.8 4.4 C 18.8 4.4 18.8 10.6 18.8 10.6 C 18.8 11.4 19.2 11.6 19.8 11.6 C 20.4 11.6 20.7 11.4 20.7 10.6 C 20.7 10.6 20.7 4.4 20.7 4.4 C 20.7 3.6 20.4 3.4 19.8 3.4 Z M 29.3 4.1 C 29.3 4.1 29.3 10.8 29.3 10.8 C 29.3 12.5 28.3 13.2 26.7 13.2 C 26.7 13.2 26.5 13.2 26.5 13.2 C 24.8 13.2 23.8 12.5 23.8 10.8 C 23.8 10.8 23.8 4.1 23.8 4.1 C 23.8 2.4 24.8 1.8 26.5 1.8 C 26.5 1.8 26.7 1.8 26.7 1.8 C 28.3 1.8 29.3 2.4 29.3 4.1 Z M 26.6 3.4 C 26 3.4 25.6 3.6 25.6 4.4 C 25.6 4.4 25.6 10.6 25.6 10.6 C 25.6 11.4 26 11.6 26.6 11.6 C 27.2 11.6 27.6 11.4 27.6 10.6 C 27.6 10.6 27.6 4.4 27.6 4.4 C 27.6 3.6 27.2 3.4 26.6 3.4 Z M 36.2 4.1 C 36.2 4.1 36.2 10.8 36.2 10.8 C 36.2 12.5 35.2 13.2 33.5 13.2 C 33.5 13.2 33.3 13.2 33.3 13.2 C 31.7 13.2 30.7 12.5 30.7 10.8 C 30.7 10.8 30.7 4.1 30.7 4.1 C 30.7 2.4 31.7 1.8 33.3 1.8 C 33.3 1.8 33.5 1.8 33.5 1.8 C 35.2 1.8 36.2 2.4 36.2 4.1 Z M 33.4 3.4 C 32.8 3.4 32.4 3.6 32.4 4.4 C 32.4 4.4 32.4 10.6 32.4 10.6 C 32.4 11.4 32.8 11.6 33.4 11.6 C 34 11.6 34.4 11.4 34.4 10.6 C 34.4 10.6 34.4 4.4 34.4 4.4 C 34.4 3.6 34 3.4 33.4 3.4 Z M 39.2 12.6 C 39.2 13.6 38.7 14.6 38.2 15.2 C 38.2 15.2 37.5 14.8 37.5 14.8 C 37.8 14.3 38.1 13.6 38.2 13.1 C 38.22 13.09 37.4 13.1 37.4 13.1 L 37.4 11 L 39.2 11 C 39.2 11 39.2 12.61 39.2 12.6 Z M 45.9 4.1 C 45.9 4.1 45.9 10.8 45.9 10.8 C 45.9 12.5 44.9 13.2 43.2 13.2 C 43.2 13.2 43.1 13.2 43.1 13.2 C 41.4 13.2 40.4 12.5 40.4 10.8 C 40.4 10.8 40.4 4.1 40.4 4.1 C 40.4 2.4 41.4 1.8 43.1 1.8 C 43.1 1.8 43.2 1.8 43.2 1.8 C 44.9 1.8 45.9 2.4 45.9 4.1 Z M 43.2 3.4 C 42.6 3.4 42.2 3.6 42.2 4.4 C 42.2 4.4 42.2 10.6 42.2 10.6 C 42.2 11.4 42.6 11.6 43.2 11.6 C 43.8 11.6 44.1 11.4 44.1 10.6 C 44.1 10.6 44.1 4.4 44.1 4.4 C 44.1 3.6 43.8 3.4 43.2 3.4 Z M 52.7 4.1 C 52.7 4.1 52.7 10.8 52.7 10.8 C 52.7 12.5 51.7 13.2 50 13.2 C 50 13.2 49.9 13.2 49.9 13.2 C 48.2 13.2 47.2 12.5 47.2 10.8 C 47.2 10.8 47.2 4.1 47.2 4.1 C 47.2 2.4 48.2 1.8 49.9 1.8 C 49.9 1.8 50 1.8 50 1.8 C 51.7 1.8 52.7 2.4 52.7 4.1 Z M 50 3.4 C 49.4 3.4 49 3.6 49 4.4 C 49 4.4 49 10.6 49 10.6 C 49 11.4 49.4 11.6 50 11.6 C 50.6 11.6 50.9 11.4 50.9 10.6 C 50.9 10.6 50.9 4.4 50.9 4.4 C 50.9 3.6 50.6 3.4 50 3.4 Z M 59.6 4.1 C 59.6 4.1 59.6 10.8 59.6 10.8 C 59.6 12.5 58.5 13.2 56.9 13.2 C 56.9 13.2 56.7 13.2 56.7 13.2 C 55.1 13.2 54 12.5 54 10.8 C 54 10.8 54 4.1 54 4.1 C 54 2.4 55.1 1.8 56.7 1.8 C 56.7 1.8 56.9 1.8 56.9 1.8 C 58.5 1.8 59.6 2.4 59.6 4.1 Z M 56.8 3.4 C 56.2 3.4 55.8 3.6 55.8 4.4 C 55.8 4.4 55.8 10.6 55.8 10.6 C 55.8 11.4 56.2 11.6 56.8 11.6 C 57.4 11.6 57.8 11.4 57.8 10.6 C 57.8 10.6 57.8 4.4 57.8 4.4 C 57.8 3.6 57.4 3.4 56.8 3.4 Z " stroke="none" fill="#282828"/>
  </g>
</svg>