<?xml version="1.0" standalone="no"?>
<!DOCTYPE svg PUBLIC "-//W3C//DTD SVG 1.1//EN" "http://www.w3.org/Graphics/SVG/1.1/DTD/svg11.dtd">
<svg xmlns="http://www.w3.org/2000/svg" version="1.1" width="85px" height="63.9px" viewBox="0 -10 85 63.9" style="top:-10px">
  <desc>Agent 1</desc>
  <defs/>
  <g id="Polygon209563">
    <path d="M 1.2 33.7 C 1.2 33.7 5.64 33.68 5.6 33.7 C 7.8 33.7 9 35.2 9 36.9 C 9 38.7 7.8 40.2 5.6 40.2 C 5.64 40.19 2.8 40.2 2.8 40.2 L 2.8 44.3 L 1.2 44.3 L 1.2 33.7 Z M 5.4 35.1 C 5.43 35.07 2.8 35.1 2.8 35.1 L 2.8 38.8 C 2.8 38.8 5.43 38.79 5.4 38.8 C 6.6 38.8 7.4 38 7.4 36.9 C 7.4 35.8 6.6 35.1 5.4 35.1 Z M 10.5 36.6 L 11.9 36.6 C 11.9 36.6 11.89 37.77 11.9 37.8 C 12.5 37 13.4 36.4 14.4 36.4 C 14.4 36.4 14.4 37.9 14.4 37.9 C 14.3 37.8 14.1 37.8 13.9 37.8 C 13.2 37.8 12.2 38.4 11.9 38.9 C 11.89 38.93 11.9 44.3 11.9 44.3 L 10.5 44.3 L 10.5 36.6 Z M 15.5 34.4 C 15.5 33.9 15.9 33.5 16.4 33.5 C 16.9 33.5 17.3 33.9 17.3 34.4 C 17.3 34.9 16.9 35.3 16.4 35.3 C 15.9 35.3 15.5 34.9 15.5 34.4 Z M 15.7 36.6 L 17.1 36.6 L 17.1 44.3 L 15.7 44.3 L 15.7 36.6 Z M 22.6 36.4 C 24.1 36.4 25 37 25.5 37.8 C 25.5 37.8 24.6 38.6 24.6 38.6 C 24.1 38 23.5 37.7 22.7 37.7 C 21.2 37.7 20.2 38.8 20.2 40.4 C 20.2 42 21.2 43.2 22.7 43.2 C 23.5 43.2 24.1 42.9 24.6 42.2 C 24.6 42.2 25.5 43.1 25.5 43.1 C 25 43.9 24.1 44.5 22.6 44.5 C 20.3 44.5 18.7 42.7 18.7 40.4 C 18.7 38.1 20.3 36.4 22.6 36.4 Z M 30.3 36.4 C 32.6 36.4 34 38.2 34 40.6 C 34.03 40.55 34 40.9 34 40.9 C 34 40.9 27.97 40.9 28 40.9 C 28.1 42.2 29 43.3 30.6 43.3 C 31.4 43.3 32.3 43 32.8 42.4 C 32.8 42.4 33.5 43.3 33.5 43.3 C 32.7 44.1 31.7 44.5 30.4 44.5 C 28.1 44.5 26.5 42.8 26.5 40.4 C 26.5 38.2 28.1 36.4 30.3 36.4 Z M 28 39.9 C 28 39.9 32.6 39.9 32.6 39.9 C 32.6 38.9 31.9 37.6 30.3 37.6 C 28.8 37.6 28 38.8 28 39.9 Z M 42.2 33.4 L 43.3 33.4 L 39.6 44.6 L 38.5 44.6 L 42.2 33.4 Z M 48.5 41.6 C 49.2 42.3 50.4 43 51.9 43 C 53.6 43 54.2 42.2 54.2 41.4 C 54.2 40.3 53 40 51.6 39.6 C 49.9 39.2 48 38.7 48 36.5 C 48 34.8 49.5 33.5 51.7 33.5 C 53.3 33.5 54.6 34 55.6 35 C 55.6 35 54.7 36.2 54.7 36.2 C 53.8 35.3 52.7 34.9 51.6 34.9 C 50.4 34.9 49.6 35.5 49.6 36.4 C 49.6 37.4 50.7 37.7 52.1 38 C 53.8 38.5 55.8 39 55.8 41.3 C 55.8 42.9 54.7 44.5 51.8 44.5 C 49.9 44.5 48.5 43.8 47.6 42.8 C 47.6 42.8 48.5 41.6 48.5 41.6 Z M 57.5 33.7 L 64.6 33.7 L 64.6 35.1 L 59.1 35.1 L 59.1 38.2 L 64.5 38.2 L 64.5 39.6 L 59.1 39.6 L 59.1 44.3 L 57.5 44.3 L 57.5 33.7 Z " stroke="none" fill="#3797ef"/>
  </g>
  <g id="Polygon209562">
    <path d="M 10.8 16.3 C 10.8 16.3 10.8 19.2 10.8 19.2 C 10.8 21.7 9.5 22.9 7.4 23.2 C 7.4 23.21 7.4 25.3 7.4 25.3 L 4.5 25.3 C 4.5 25.3 4.49 23.23 4.5 23.2 C 2.3 22.9 1 21.8 1 19.2 C 1.02 19.2 1 15.8 1 15.8 L 4.2 15.8 C 4.2 15.8 4.24 18.74 4.2 18.7 C 4.2 20 4.9 20.5 5.9 20.5 C 6.9 20.5 7.6 20 7.6 18.7 C 7.6 18.7 7.6 17.2 7.6 17.2 C 7.6 16.2 7.3 15.7 6.3 15.1 C 6.3 15.1 4 13.8 4 13.8 C 2.1 12.7 1 11.8 1 9.8 C 1 9.8 1 7.2 1 7.2 C 1 4.7 2.5 3.6 4.5 3.2 C 4.49 3.21 4.5 1.1 4.5 1.1 L 7.4 1.1 C 7.4 1.1 7.4 3.21 7.4 3.2 C 9.4 3.6 10.8 4.8 10.8 7.2 C 10.79 7.17 10.8 10.4 10.8 10.4 L 7.6 10.4 C 7.6 10.4 7.57 7.62 7.6 7.6 C 7.6 6.4 6.9 5.9 5.9 5.9 C 4.9 5.9 4.2 6.4 4.2 7.6 C 4.2 7.6 4.2 9 4.2 9 C 4.2 10 4.6 10.4 5.5 11 C 5.5 11 7.8 12.3 7.8 12.3 C 9.7 13.4 10.8 14.2 10.8 16.3 Z M 22.5 7.3 C 22.5 7.3 22.5 19.1 22.5 19.1 C 22.5 22.1 20.8 23.3 17.8 23.3 C 17.8 23.3 17.6 23.3 17.6 23.3 C 14.6 23.3 12.8 22.1 12.8 19.1 C 12.8 19.1 12.8 7.3 12.8 7.3 C 12.8 4.3 14.6 3.1 17.6 3.1 C 17.6 3.1 17.8 3.1 17.8 3.1 C 20.8 3.1 22.5 4.3 22.5 7.3 Z M 17.7 6 C 16.6 6 16 6.4 16 7.8 C 16 7.8 16 18.6 16 18.6 C 16 20 16.6 20.4 17.7 20.4 C 18.7 20.4 19.4 20 19.4 18.6 C 19.4 18.6 19.4 7.8 19.4 7.8 C 19.4 6.4 18.7 6 17.7 6 Z M 27.9 22.2 C 27.9 24 27 25.7 26.1 26.8 C 26.1 26.8 24.8 26.2 24.8 26.2 C 25.5 25.3 26 24.1 26.2 23.1 C 26.17 23.09 24.7 23.1 24.7 23.1 L 24.7 19.4 L 27.9 19.4 C 27.9 19.4 27.9 22.25 27.9 22.2 Z M 39.8 7.3 C 39.8 7.3 39.8 19.1 39.8 19.1 C 39.8 22.1 38 23.3 35 23.3 C 35 23.3 34.8 23.3 34.8 23.3 C 31.8 23.3 30 22.1 30 19.1 C 30 19.1 30 7.3 30 7.3 C 30 4.3 31.8 3.1 34.8 3.1 C 34.8 3.1 35 3.1 35 3.1 C 38 3.1 39.8 4.3 39.8 7.3 Z M 34.9 6 C 33.9 6 33.2 6.4 33.2 7.8 C 33.2 7.8 33.2 18.6 33.2 18.6 C 33.2 20 33.9 20.4 34.9 20.4 C 35.9 20.4 36.6 20 36.6 18.6 C 36.6 18.6 36.6 7.8 36.6 7.8 C 36.6 6.4 35.9 6 34.9 6 Z M 51.8 7.3 C 51.8 7.3 51.8 19.1 51.8 19.1 C 51.8 22.1 50 23.3 47 23.3 C 47 23.3 46.8 23.3 46.8 23.3 C 43.8 23.3 42.1 22.1 42.1 19.1 C 42.1 19.1 42.1 7.3 42.1 7.3 C 42.1 4.3 43.8 3.1 46.8 3.1 C 46.8 3.1 47 3.1 47 3.1 C 50 3.1 51.8 4.3 51.8 7.3 Z M 46.9 6 C 45.9 6 45.2 6.4 45.2 7.8 C 45.2 7.8 45.2 18.6 45.2 18.6 C 45.2 20 45.9 20.4 46.9 20.4 C 48 20.4 48.6 20 48.6 18.6 C 48.6 18.6 48.6 7.8 48.6 7.8 C 48.6 6.4 48 6 46.9 6 Z M 63.8 7.3 C 63.8 7.3 63.8 19.1 63.8 19.1 C 63.8 22.1 62 23.3 59.1 23.3 C 59.1 23.3 58.8 23.3 58.8 23.3 C 55.9 23.3 54.1 22.1 54.1 19.1 C 54.1 19.1 54.1 7.3 54.1 7.3 C 54.1 4.3 55.9 3.1 58.8 3.1 C 58.8 3.1 59.1 3.1 59.1 3.1 C 62 3.1 63.8 4.3 63.8 7.3 Z M 59 6 C 57.9 6 57.3 6.4 57.3 7.8 C 57.3 7.8 57.3 18.6 57.3 18.6 C 57.3 20 57.9 20.4 59 20.4 C 60 20.4 60.6 20 60.6 18.6 C 60.6 18.6 60.6 7.8 60.6 7.8 C 60.6 6.4 60 6 59 6 Z " stroke="none" fill="#282828"/>
  </g>
</svg>