<?xml version="1.0" standalone="no"?><!DOCTYPE svg PUBLIC "-//W3C//DTD SVG 1.1//EN" "http://www.w3.org/Graphics/SVG/1.1/DTD/svg11.dtd"><svg xmlns="http://www.w3.org/2000/svg" version="1.1" width="134.3px" height="15.9px" viewBox="0 -4 134.3 15.9" style="top:-4px"><desc>Absolute Net (NNN)</desc><defs/><g id="Polygon92949"><path d="m62.7 5.6h-3.2l-.6 1.5h-.6l2.5-6h.6l2.5 6h-.6l-.6-1.5zm-3-.4h2.8l-1.4-3.6l-1.4 3.6zm5-4.1h.5v2.4c.4-.5.9-.8 1.5-.8c1.2 0 2 .9 2 2.2c0 1.4-.8 2.3-2 2.3c-.6 0-1.2-.3-1.5-.8v.7h-.5v-6zm1.9 5.7c1 0 1.6-.8 1.6-1.9c0-1-.6-1.8-1.6-1.8c-.6 0-1.1.4-1.4.8v2.1c.3.4.8.8 1.4.8zm3.2-.6c.3.3.8.6 1.4.6c.7 0 1.2-.3 1.2-.8c0-.6-.6-.8-1.3-.9c-.7-.2-1.5-.4-1.5-1.2c0-.7.6-1.2 1.6-1.2c.7 0 1.2.2 1.5.6l-.2.3c-.3-.3-.8-.5-1.3-.5c-.7 0-1.1.3-1.1.7c0 .5.5.7 1.1.8c.8.2 1.6.4 1.6 1.3c0 .7-.5 1.3-1.6 1.3c-.7 0-1.3-.2-1.7-.7l.3-.3zm4-1.3c0-1.2.8-2.2 2.1-2.2c1.2 0 2 1 2 2.2c0 1.3-.8 2.3-2 2.3c-1.3 0-2.1-1-2.1-2.3zm3.6 0c0-.9-.5-1.8-1.5-1.8c-1.1 0-1.6.9-1.6 1.8c0 1 .5 1.9 1.6 1.9c1 0 1.5-.9 1.5-1.9zm1.8-3.8h.4v6h-.4v-6zM84 6.5c-.3.4-.9.7-1.5.7c-.9 0-1.4-.4-1.4-1.4c-.02.02 0-3 0-3h.4s.05 2.92 0 2.9c0 .9.5 1.1 1.1 1.1c.6 0 1.1-.3 1.4-.7c.02-.02 0-3.3 0-3.3h.5v4.3h-.5s.02-.63 0-.6zm2-.2c.03-.03 0-3.1 0-3.1h-.7v-.4h.7V1.6h.5v1.2h.9v.4h-.9v3c0 .4.2.6.5.6c.2 0 .3-.1.4-.2l.2.3c-.1.2-.4.3-.7.3c-.6 0-.9-.3-.9-.9zm4.3-3.6c1.3 0 2 1 2 2.3v.1s-3.62-.02-3.6 0c0 .9.7 1.7 1.7 1.7c.5 0 1-.2 1.4-.6l.2.3c-.4.5-.9.7-1.7.7c-1.2 0-2.1-.9-2.1-2.3c0-1.2.9-2.2 2.1-2.2zm-1.6 2h3.1c0-.7-.5-1.6-1.5-1.6c-1.1 0-1.6.9-1.6 1.6zm7.7-2.8v5.2h-.5v-6h.5l3.8 5.1V1.1h.5v6h-.5l-3.8-5.2zm7.6.8c1.3 0 2 1 2 2.3c.04-.04 0 .1 0 .1c0 0-3.6-.02-3.6 0c0 .9.7 1.7 1.7 1.7c.6 0 1-.2 1.4-.6l.3.3c-.5.5-1 .7-1.7.7c-1.3 0-2.2-.9-2.2-2.3c0-1.2.9-2.2 2.1-2.2zm-1.6 2h3.2c0-.7-.5-1.6-1.6-1.6c-1 0-1.6.9-1.6 1.6zm4.9 1.6c.04-.03 0-3.1 0-3.1h-.7v-.4h.7V1.6h.5v1.2h.9v.4h-.9v3c0 .4.2.6.5.6c.2 0 .3-.1.4-.2l.2.3c-.1.2-.4.3-.7.3c-.6 0-.9-.3-.9-.9zm4.4-1.4c0-1.4.5-2.8 1.2-4l.3.2c-.6 1.2-.9 2.3-.9 3.8c0 1.6.3 2.6.9 3.8l-.3.2c-.7-1.2-1.2-2.5-1.2-4zm2.9-3v5.2h-.5v-6h.5l3.8 5.1V1.1h.5v6h-.5l-3.8-5.2zm6.3 0v5.2h-.5v-6h.5l3.8 5.1V1.1h.5v6h-.5l-3.8-5.2zm6.3 0v5.2h-.5v-6h.5l3.8 5.1V1.1h.5v6h-.5l-3.8-5.2zm5.2-.8l.3-.2c.7 1.2 1.2 2.6 1.2 4c0 1.5-.5 2.8-1.2 4l-.3-.2c.6-1.2.9-2.2.9-3.8c0-1.5-.3-2.6-.9-3.8z" stroke="none" fill="#000"/></g></svg>