<?xml version="1.0" standalone="no"?><!DOCTYPE svg PUBLIC "-//W3C//DTD SVG 1.1//EN" "http://www.w3.org/Graphics/SVG/1.1/DTD/svg11.dtd"><svg xmlns="http://www.w3.org/2000/svg" version="1.1" width="134.3px" height="15.9px" viewBox="0 -4 134.3 15.9" style="top:-4px"><desc>0 79 AC</desc><defs/><g id="Polygon88098"><path d="m106.8 1c1.7 0 2.3 1.7 2.3 3.1c0 1.4-.6 3.1-2.3 3.1c-1.6 0-2.2-1.7-2.2-3.1c0-1.4.6-3.1 2.2-3.1zm0 .5c-1.2 0-1.6 1.4-1.6 2.6c0 1.2.4 2.7 1.6 2.7c1.3 0 1.7-1.5 1.7-2.7c0-1.2-.4-2.6-1.7-2.6zm3.4 4.9c.2 0 .4.2.4.4c0 .2-.2.4-.4.4c-.2 0-.4-.2-.4-.4c0-.2.2-.4.4-.4zm4.1-4.8H111v-.5h3.9v.4l-2.6 5.6h-.5l2.5-5.5zm2 4.5c.3.4.7.6 1.3.6c1.3 0 1.8-1.3 1.8-2.6v-.3c-.3.4-1 1-1.8 1c-1.1 0-1.9-.6-1.9-1.9c0-1 .7-1.9 2-1.9c1.6 0 2.2 1.5 2.2 3.1c0 1.6-.6 3.1-2.3 3.1c-.8 0-1.2-.3-1.6-.8l.3-.3zm1.4-4.6c-1 0-1.5.8-1.5 1.4c0 1 .7 1.5 1.5 1.5c.7 0 1.3-.5 1.6-1.1c0-.8-.5-1.8-1.6-1.8zm9.6 4.1h-3.2l-.6 1.5h-.6l2.5-6h.6l2.4 6h-.5l-.6-1.5zm-3.1-.4h2.9l-1.4-3.6l-1.5 3.6zm4.6-1.1c0-1.8 1.3-3.1 3-3.1c.9 0 1.7.4 2.2 1.1l-.4.2c-.4-.5-1.1-.8-1.8-.8c-1.4 0-2.5 1-2.5 2.6c0 1.6 1.1 2.7 2.5 2.7c.7 0 1.4-.4 1.8-.9l.4.2c-.5.7-1.3 1.1-2.2 1.1c-1.7 0-3-1.2-3-3.1z" stroke="none" fill="#000"/></g></svg>