<?xml version="1.0" standalone="no"?><!DOCTYPE svg PUBLIC "-//W3C//DTD SVG 1.1//EN" "http://www.w3.org/Graphics/SVG/1.1/DTD/svg11.dtd"><svg xmlns="http://www.w3.org/2000/svg" xmlns:xlink="http://www.w3.org/1999/xlink" version="1.1" width="77px" height="25.9px" viewBox="0 -8 77 25.9" style="top:-8px"><desc/><defs/><g id="Polygon71460"><path d="m5.9 3.9l3.9-2v.4L6.3 4.1l3.5 1.8v.4l-3.9-2v-.4zm4.4 0l4-2v.4l-3.5 1.8l3.5 1.8v.4l-4-2v-.4zm4.8 2.8c2-1.7 3.4-2.8 3.4-4c0-.9-.7-1.2-1.4-1.2c-.8 0-1.3.3-1.7.8l-.3-.4c.4-.5 1.1-.9 2-.9c.9 0 1.9.5 1.9 1.7c0 1.3-1.4 2.5-3.1 3.9c-.05.04 3.1 0 3.1 0v.5h-3.9s-.05-.41 0-.4zM22.5 1c1.6 0 2.2 1.7 2.2 3.1c0 1.4-.6 3.1-2.2 3.1c-1.6 0-2.2-1.7-2.2-3.1c0-1.4.6-3.1 2.2-3.1zm0 .5c-1.2 0-1.7 1.4-1.7 2.6c0 1.2.5 2.7 1.7 2.7c1.3 0 1.7-1.5 1.7-2.7c0-1.2-.4-2.6-1.7-2.6zm4.3.3l-1 1l-.3-.3l1.3-1.4h.5v6h-.5V1.8zm4-.8C32.4 1 33 2.7 33 4.1c0 1.4-.6 3.1-2.2 3.1c-1.6 0-2.3-1.7-2.3-3.1c0-1.4.7-3.1 2.3-3.1zm0 .5c-1.3 0-1.7 1.4-1.7 2.6c0 1.2.4 2.7 1.7 2.7c1.2 0 1.6-1.5 1.6-2.7c0-1.2-.4-2.6-1.6-2.6zm5.6 2.6c0-1.8 1.3-3.1 3-3.1c.9 0 1.7.4 2.2 1.1l-.5.2c-.3-.5-1-.8-1.7-.8c-1.4 0-2.5 1-2.5 2.6c0 1.6 1.1 2.7 2.5 2.7c.7 0 1.4-.4 1.7-.9l.5.2c-.6.7-1.3 1.1-2.2 1.1c-1.7 0-3-1.2-3-3.1zm8.1-1.4c1.3 0 2 1 2 2.3v.1s-3.63-.02-3.6 0c0 .9.6 1.7 1.7 1.7c.5 0 1-.2 1.4-.6l.2.3c-.4.5-.9.7-1.7.7c-1.2 0-2.1-.9-2.1-2.3c0-1.2.8-2.2 2.1-2.2zm-1.6 2h3.1c0-.7-.5-1.6-1.6-1.6c-1 0-1.5.9-1.5 1.6zm7.7-.5c0-.9-.4-1.1-1-1.1c-.6 0-1.1.3-1.4.7c-.02.02 0 3.3 0 3.3h-.5V2.8h.5s-.02.62 0 .6c.3-.4.9-.7 1.5-.7c.9 0 1.4.4 1.4 1.4v3h-.5s.04-2.92 0-2.9zm1.9 2c.2.3.8.6 1.4.6c.7 0 1.1-.3 1.1-.8c0-.6-.6-.8-1.2-.9c-.7-.2-1.5-.4-1.5-1.2c0-.7.5-1.2 1.5-1.2c.8 0 1.3.2 1.6.6l-.3.3c-.2-.3-.7-.5-1.3-.5c-.6 0-1.1.3-1.1.7c0 .5.6.7 1.2.8c.8.2 1.6.4 1.6 1.3c0 .7-.6 1.3-1.6 1.3c-.7 0-1.3-.2-1.7-.7l.3-.3zm7.1.3c-.3.4-.9.7-1.5.7c-.9 0-1.4-.4-1.4-1.4v-3h.5s-.03 2.92 0 2.9c0 .9.4 1.1 1 1.1c.6 0 1.1-.3 1.4-.7c.04-.02 0-3.3 0-3.3h.5v4.3h-.5s.04-.63 0-.6zm1.9-.3c.2.3.7.6 1.4.6c.7 0 1.1-.3 1.1-.8c0-.6-.6-.8-1.2-.9c-.7-.2-1.5-.4-1.5-1.2c0-.7.5-1.2 1.5-1.2c.8 0 1.3.2 1.6.6l-.3.3c-.2-.3-.7-.5-1.3-.5c-.6 0-1.1.3-1.1.7c0 .5.6.7 1.2.8c.7.2 1.6.4 1.6 1.3c0 .7-.6 1.3-1.6 1.3c-.7 0-1.3-.2-1.7-.7l.3-.3zm6.1-1.5h2.1v.4h-2.1v-.4zm5.7 1.2c.4.5.9.9 1.7.9c.9 0 1.5-.7 1.5-1.5c0-.9-.6-1.5-1.5-1.5c-.5 0-1 .2-1.4.6c-.03.02-.4-.1-.4-.1V1.1h3.4v.5h-2.9v2.3c.3-.3.8-.5 1.4-.5c1 0 1.9.6 1.9 1.9c0 1.2-.9 1.9-2 1.9c-1 0-1.6-.4-2-1l.3-.3z" stroke="none" fill="#000"/><a xlink:href="DBF_2010%20Census%20-%205%20Mile1" xlink:show="new" xlink:title="&lt;&lt;2010 Census - 5 Mile1&gt;&gt;"><rect style="fill:transparent;" x="5" y="0" width="72" height="7"/></a></g></svg>