<?xml version="1.0" standalone="no"?><!DOCTYPE svg PUBLIC "-//W3C//DTD SVG 1.1//EN" "http://www.w3.org/Graphics/SVG/1.1/DTD/svg11.dtd"><svg xmlns="http://www.w3.org/2000/svg" version="1.1" width="77px" height="15.9px" viewBox="0 -4 77 15.9" style="top:-4px"><desc>29,714</desc><defs/><g id="Polygon111265"><path d="m50.9 7.2c.02.01 0 .8 0 .8h-.4v-.8c-.9 0-1.6-.4-2-.9l.3-.4c.4.4.9.8 1.7.8V4.2c-.9-.2-1.8-.5-1.8-1.6c0-.9.8-1.5 1.8-1.6v-.8h.4s.02.83 0 .8c.8.1 1.4.4 1.8.9l-.4.3c-.3-.4-.8-.6-1.4-.7v2.3c1 .2 1.9.6 1.9 1.7c0 .7-.4 1.6-1.9 1.7zm-.4-3.5V1.5c-.7 0-1.3.5-1.3 1.1c0 .6.6.8 1.3 1.1zm1.8 1.9c0-.8-.7-1.1-1.4-1.3v2.4c1.1 0 1.4-.7 1.4-1.1zm1.5 1.1c2.1-1.7 3.4-2.8 3.4-4c0-.9-.7-1.2-1.3-1.2c-.8 0-1.4.3-1.7.8l-.3-.4c.4-.5 1.1-.9 2-.9c.8 0 1.8.5 1.8 1.7c0 1.3-1.4 2.5-3.1 3.9c.01.04 3.2 0 3.2 0v.5h-4v-.4zm5.9-.6c.3.4.6.6 1.3.6c1.3 0 1.8-1.3 1.8-2.6v-.3c-.3.4-1 1-1.8 1c-1.1 0-1.9-.6-1.9-1.9c0-1 .7-1.9 2-1.9c1.6 0 2.2 1.5 2.2 3.1c0 1.6-.7 3.1-2.3 3.1c-.8 0-1.3-.3-1.6-.8l.3-.3zm1.4-4.6c-1 0-1.5.8-1.5 1.4c0 1 .6 1.5 1.5 1.5c.6 0 1.3-.5 1.6-1.1c-.1-.8-.5-1.8-1.6-1.8zM64 8c.3-.2.5-.6.5-.8h-.1c-.2 0-.3-.2-.3-.4c0-.2.1-.4.3-.4c.3 0 .5.2.5.6c0 .5-.3 1-.6 1.2L64 8zm4.5-6.4h-3.3v-.5h3.9v.4l-2.6 5.6h-.5l2.5-5.5zm2.4.2l-1 1l-.3-.3L71 1.1h.4v6h-.5V1.8zm4.4 3.7h-2.8v-.5l2.7-3.9h.6v3.9h.9v.5h-.9v1.6h-.5V5.5zM73 5h2.3V1.6L73 5z" stroke="none" fill="#000"/></g></svg>