<?xml version="1.0" standalone="no"?><!DOCTYPE svg PUBLIC "-//W3C//DTD SVG 1.1//EN" "http://www.w3.org/Graphics/SVG/1.1/DTD/svg11.dtd"><svg xmlns="http://www.w3.org/2000/svg" version="1.1" width="184px" height="16.9px" viewBox="0 -4 184 16.9" style="top:-4px"><desc>04</desc><defs/><g id="Polygon53806"><path d="m2.8 1c1.6 0 2.3 1.6 2.3 3.1c0 1.5-.7 3.1-2.3 3.1C1.1 7.2.4 5.6.4 4.1C.4 2.6 1.1 1 2.8 1zm0 .8c-1.1 0-1.5 1.1-1.5 2.3c0 1.2.4 2.3 1.5 2.3c1 0 1.4-1.1 1.4-2.3c0-1.2-.4-2.3-1.4-2.3zm5.8 3.9H5.8v-.8l2.5-3.8h1.2v3.8h.9v.8h-.9v1.4h-.9V5.7zm-1.9-.8h1.9v-3l-1.9 3z" stroke="none" fill="#88898a"/></g></svg>