<?xml version="1.0" standalone="no"?><!DOCTYPE svg PUBLIC "-//W3C//DTD SVG 1.1//EN" "http://www.w3.org/Graphics/SVG/1.1/DTD/svg11.dtd"><svg xmlns="http://www.w3.org/2000/svg" version="1.1" width="166px" height="28.4px" viewBox="0 -6 166 28.4" style="top:-6px"><desc>500+</desc><defs/><g id="Polygon102932"><path d="m1.9 10.1c.7.8 1.7 1.3 2.9 1.3c1.4 0 2.4-.9 2.4-2.1c0-1.3-1-2.1-2.3-2.1c-1 0-1.7.3-2.4 1l-1.2-.4V2h6.8v1.4H2.9s.01 3.38 0 3.4c.5-.5 1.4-1 2.5-1c1.8 0 3.4 1.3 3.4 3.5c0 2.2-1.7 3.5-4 3.5c-1.8 0-3-.6-3.8-1.6l.9-1.1zm12.5-8.3c3 0 4.2 2.9 4.2 5.5c0 2.7-1.2 5.5-4.2 5.5c-2.9 0-4.1-2.8-4.1-5.5c0-2.6 1.2-5.5 4.1-5.5zm0 1.4c-1.9 0-2.5 2-2.5 4.1c0 2.1.6 4.1 2.5 4.1c1.9 0 2.6-2 2.6-4.1c0-2.1-.7-4.1-2.6-4.1zm9.9-1.4c2.9 0 4.1 2.9 4.1 5.5c0 2.7-1.2 5.5-4.1 5.5c-3 0-4.2-2.8-4.2-5.5c0-2.6 1.2-5.5 4.2-5.5zm0 1.4c-1.9 0-2.6 2-2.6 4.1c0 2.1.7 4.1 2.6 4.1c1.8 0 2.5-2 2.5-4.1c0-2.1-.7-4.1-2.5-4.1zm9.4 7.9h-1.1V7.7h-3v-.9h3V3.5h1.1v3.3h3v.9h-3v3.4z" stroke="none" fill="#000"/></g></svg>