<?xml version="1.0" standalone="no"?>
<!DOCTYPE svg PUBLIC "-//W3C//DTD SVG 1.1//EN" "http://www.w3.org/Graphics/SVG/1.1/DTD/svg11.dtd">
<svg xmlns="http://www.w3.org/2000/svg" version="1.1" width="62px" height="16.9px" viewBox="0 -4 62 16.9" style="top:-4px">
  <desc>State</desc>
  <defs/>
  <g id="Polygon266823">
    <path d="M 0.8 5.6 C 1.2 6 1.9 6.4 2.7 6.4 C 3.7 6.4 4 5.9 4 5.5 C 4 4.9 3.3 4.7 2.6 4.5 C 1.6 4.2 0.5 4 0.5 2.7 C 0.5 1.7 1.4 1 2.6 1 C 3.5 1 4.3 1.3 4.8 1.9 C 4.8 1.9 4.3 2.5 4.3 2.5 C 3.8 2 3.2 1.8 2.5 1.8 C 1.9 1.8 1.4 2.2 1.4 2.7 C 1.4 3.2 2.1 3.4 2.8 3.6 C 3.8 3.8 4.9 4.1 4.9 5.4 C 4.9 6.3 4.3 7.2 2.7 7.2 C 1.6 7.2 0.8 6.8 0.3 6.3 C 0.3 6.3 0.8 5.6 0.8 5.6 Z M 6 6.1 C 5.98 6.15 6 3.5 6 3.5 L 5.3 3.5 L 5.3 2.8 L 6 2.8 L 6 1.6 L 6.8 1.6 L 6.8 2.8 L 7.7 2.8 L 7.7 3.5 L 6.8 3.5 C 6.8 3.5 6.79 5.97 6.8 6 C 6.8 6.3 6.9 6.5 7.2 6.5 C 7.4 6.5 7.6 6.4 7.6 6.3 C 7.6 6.3 7.9 6.9 7.9 6.9 C 7.7 7.1 7.4 7.2 7 7.2 C 6.3 7.2 6 6.8 6 6.1 Z M 11.3 6.6 C 10.9 7 10.4 7.2 9.8 7.2 C 9.1 7.2 8.3 6.7 8.3 5.8 C 8.3 4.8 9.1 4.4 9.8 4.4 C 10.4 4.4 10.9 4.5 11.3 4.9 C 11.3 4.9 11.3 4.2 11.3 4.2 C 11.3 3.7 10.8 3.3 10.2 3.3 C 9.7 3.3 9.3 3.5 8.9 3.9 C 8.9 3.9 8.5 3.4 8.5 3.4 C 9 2.9 9.6 2.7 10.3 2.7 C 11.3 2.7 12.1 3.1 12.1 4.2 C 12.06 4.18 12.1 7.1 12.1 7.1 L 11.3 7.1 C 11.3 7.1 11.25 6.63 11.3 6.6 Z M 11.3 5.4 C 11 5.1 10.6 4.9 10.1 4.9 C 9.5 4.9 9.1 5.3 9.1 5.8 C 9.1 6.3 9.5 6.7 10.1 6.7 C 10.6 6.7 11 6.5 11.3 6.2 C 11.3 6.2 11.3 5.4 11.3 5.4 Z M 13.5 6.1 C 13.52 6.15 13.5 3.5 13.5 3.5 L 12.8 3.5 L 12.8 2.8 L 13.5 2.8 L 13.5 1.6 L 14.3 1.6 L 14.3 2.8 L 15.2 2.8 L 15.2 3.5 L 14.3 3.5 C 14.3 3.5 14.33 5.97 14.3 6 C 14.3 6.3 14.5 6.5 14.8 6.5 C 14.9 6.5 15.1 6.4 15.2 6.3 C 15.2 6.3 15.4 6.9 15.4 6.9 C 15.2 7.1 15 7.2 14.6 7.2 C 13.9 7.2 13.5 6.8 13.5 6.1 Z M 18 2.7 C 19.3 2.7 20.1 3.7 20.1 5 C 20.13 5 20.1 5.2 20.1 5.2 C 20.1 5.2 16.69 5.2 16.7 5.2 C 16.8 5.9 17.3 6.6 18.2 6.6 C 18.6 6.6 19.1 6.4 19.5 6 C 19.5 6 19.8 6.6 19.8 6.6 C 19.4 7 18.8 7.2 18.1 7.2 C 16.8 7.2 15.8 6.3 15.8 4.9 C 15.8 3.7 16.7 2.7 18 2.7 Z M 16.7 4.6 C 16.7 4.6 19.3 4.6 19.3 4.6 C 19.3 4 18.9 3.3 18 3.3 C 17.1 3.3 16.7 4 16.7 4.6 Z " stroke="none" fill="#000"/>
  </g>
</svg>