<?xml version="1.0" standalone="no"?>
<!DOCTYPE svg PUBLIC "-//W3C//DTD SVG 1.1//EN" "http://www.w3.org/Graphics/SVG/1.1/DTD/svg11.dtd">
<svg xmlns="http://www.w3.org/2000/svg" version="1.1" width="158px" height="27.9px" viewBox="0 -6 158 27.9" style="top:-6px">
  <desc>Number of Locations</desc>
  <defs/>
  <g id="Polygon276686">
    <path d="M 2.8 4.4 L 2.8 12.5 L 1.2 12.5 L 1.2 2 L 2.8 2 L 8.6 9.9 L 8.6 2 L 10.2 2 L 10.2 12.5 L 8.6 12.5 L 2.8 4.4 Z M 17.7 11.5 C 17.1 12.1 16.1 12.7 14.9 12.7 C 13.3 12.7 12.5 11.9 12.5 10.3 C 12.48 10.29 12.5 4.9 12.5 4.9 L 13.9 4.9 C 13.9 4.9 13.91 9.82 13.9 9.8 C 13.9 11.1 14.5 11.5 15.5 11.5 C 16.4 11.5 17.2 11 17.7 10.4 C 17.66 10.39 17.7 4.9 17.7 4.9 L 19.1 4.9 L 19.1 12.5 L 17.7 12.5 C 17.7 12.5 17.66 11.5 17.7 11.5 Z M 30.7 7.4 C 30.7 6.5 30.3 6 29.4 6 C 28.6 6 27.8 6.5 27.4 7.1 C 27.44 7.05 27.4 12.5 27.4 12.5 L 26 12.5 C 26 12.5 26.02 7.43 26 7.4 C 26 6.5 25.6 6 24.7 6 C 23.9 6 23.2 6.5 22.8 7.1 C 22.79 7.07 22.8 12.5 22.8 12.5 L 21.4 12.5 L 21.4 4.9 L 22.8 4.9 C 22.8 4.9 22.79 5.95 22.8 6 C 23.1 5.5 24.1 4.7 25.3 4.7 C 26.4 4.7 27.1 5.3 27.3 6.1 C 27.8 5.4 28.8 4.7 29.9 4.7 C 31.4 4.7 32.1 5.5 32.1 7 C 32.11 7 32.1 12.5 32.1 12.5 L 30.7 12.5 C 30.7 12.5 30.69 7.43 30.7 7.4 Z M 34.4 2 L 35.8 2 C 35.8 2 35.81 5.99 35.8 6 C 36.4 5.2 37.3 4.7 38.3 4.7 C 40.3 4.7 41.7 6.3 41.7 8.7 C 41.7 11.2 40.3 12.7 38.3 12.7 C 37.3 12.7 36.4 12.2 35.8 11.5 C 35.81 11.45 35.8 12.5 35.8 12.5 L 34.4 12.5 L 34.4 2 Z M 37.9 11.5 C 39.4 11.5 40.3 10.3 40.3 8.7 C 40.3 7.1 39.4 6 37.9 6 C 37.1 6 36.2 6.5 35.8 7.1 C 35.8 7.1 35.8 10.4 35.8 10.4 C 36.2 11 37.1 11.5 37.9 11.5 Z M 46.9 4.7 C 49.2 4.7 50.7 6.5 50.7 8.8 C 50.66 8.83 50.7 9.2 50.7 9.2 C 50.7 9.2 44.6 9.18 44.6 9.2 C 44.7 10.5 45.7 11.6 47.2 11.6 C 48 11.6 48.9 11.2 49.5 10.7 C 49.5 10.7 50.1 11.6 50.1 11.6 C 49.4 12.3 48.3 12.7 47.1 12.7 C 44.8 12.7 43.1 11.1 43.1 8.7 C 43.1 6.5 44.7 4.7 46.9 4.7 Z M 44.6 8.1 C 44.6 8.1 49.3 8.1 49.3 8.1 C 49.2 7.1 48.6 5.9 46.9 5.9 C 45.4 5.9 44.7 7.1 44.6 8.1 Z M 52.5 4.9 L 53.9 4.9 C 53.9 4.9 53.89 6.05 53.9 6.1 C 54.5 5.3 55.4 4.7 56.4 4.7 C 56.4 4.7 56.4 6.1 56.4 6.1 C 56.3 6.1 56.1 6.1 55.9 6.1 C 55.2 6.1 54.2 6.6 53.9 7.2 C 53.89 7.21 53.9 12.5 53.9 12.5 L 52.5 12.5 L 52.5 4.9 Z M 61.4 8.7 C 61.4 6.5 62.9 4.7 65.3 4.7 C 67.7 4.7 69.2 6.5 69.2 8.7 C 69.2 10.9 67.7 12.7 65.3 12.7 C 62.9 12.7 61.4 10.9 61.4 8.7 Z M 67.7 8.7 C 67.7 7.3 66.9 6 65.3 6 C 63.8 6 62.9 7.3 62.9 8.7 C 62.9 10.2 63.8 11.5 65.3 11.5 C 66.9 11.5 67.7 10.2 67.7 8.7 Z M 71.4 6.1 L 70.1 6.1 L 70.1 4.9 L 71.4 4.9 C 71.4 4.9 71.36 4.37 71.4 4.4 C 71.4 2.7 72.3 1.8 73.7 1.8 C 74.2 1.8 74.6 1.9 74.9 2.1 C 74.9 2.1 74.6 3.1 74.6 3.1 C 74.4 3 74.2 3 73.9 3 C 73.2 3 72.8 3.4 72.8 4.4 C 72.79 4.37 72.8 4.9 72.8 4.9 L 74.3 4.9 L 74.3 6.1 L 72.8 6.1 L 72.8 12.5 L 71.4 12.5 L 71.4 6.1 Z M 79.8 2 L 81.4 2 L 81.4 11.2 L 86.2 11.2 L 86.2 12.5 L 79.8 12.5 L 79.8 2 Z M 87.2 8.7 C 87.2 6.5 88.7 4.7 91.1 4.7 C 93.5 4.7 94.9 6.5 94.9 8.7 C 94.9 10.9 93.5 12.7 91.1 12.7 C 88.7 12.7 87.2 10.9 87.2 8.7 Z M 93.5 8.7 C 93.5 7.3 92.6 6 91.1 6 C 89.5 6 88.7 7.3 88.7 8.7 C 88.7 10.2 89.5 11.5 91.1 11.5 C 92.6 11.5 93.5 10.2 93.5 8.7 Z M 100.2 4.7 C 101.6 4.7 102.5 5.3 103.1 6 C 103.1 6 102.1 6.9 102.1 6.9 C 101.6 6.3 101 6 100.2 6 C 98.7 6 97.8 7.1 97.8 8.7 C 97.8 10.3 98.7 11.5 100.2 11.5 C 101 11.5 101.6 11.2 102.1 10.5 C 102.1 10.5 103.1 11.4 103.1 11.4 C 102.5 12.1 101.6 12.7 100.2 12.7 C 97.9 12.7 96.3 11 96.3 8.7 C 96.3 6.4 97.9 4.7 100.2 4.7 Z M 109.4 11.7 C 108.8 12.4 107.9 12.7 106.9 12.7 C 105.6 12.7 104.2 11.9 104.2 10.2 C 104.2 8.4 105.6 7.7 106.9 7.7 C 107.9 7.7 108.8 8 109.4 8.7 C 109.4 8.7 109.4 7.4 109.4 7.4 C 109.4 6.5 108.6 5.9 107.5 5.9 C 106.6 5.9 105.9 6.2 105.2 6.9 C 105.2 6.9 104.6 5.9 104.6 5.9 C 105.4 5.1 106.5 4.7 107.7 4.7 C 109.4 4.7 110.8 5.4 110.8 7.4 C 110.79 7.37 110.8 12.5 110.8 12.5 L 109.4 12.5 C 109.4 12.5 109.37 11.71 109.4 11.7 Z M 109.4 9.6 C 108.9 9 108.2 8.7 107.4 8.7 C 106.4 8.7 105.6 9.3 105.6 10.2 C 105.6 11.1 106.4 11.7 107.4 11.7 C 108.2 11.7 108.9 11.4 109.4 10.9 C 109.4 10.9 109.4 9.6 109.4 9.6 Z M 113.4 10.8 C 113.37 10.85 113.4 6.1 113.4 6.1 L 112.1 6.1 L 112.1 4.9 L 113.4 4.9 L 113.4 2.8 L 114.8 2.8 L 114.8 4.9 L 116.4 4.9 L 116.4 6.1 L 114.8 6.1 C 114.8 6.1 114.8 10.53 114.8 10.5 C 114.8 11.1 115 11.5 115.5 11.5 C 115.9 11.5 116.2 11.3 116.3 11.2 C 116.3 11.2 116.7 12.2 116.7 12.2 C 116.4 12.5 115.9 12.7 115.2 12.7 C 114 12.7 113.4 12.1 113.4 10.8 Z M 117.7 2.7 C 117.7 2.2 118.1 1.8 118.6 1.8 C 119.1 1.8 119.6 2.2 119.6 2.7 C 119.6 3.2 119.1 3.6 118.6 3.6 C 118.1 3.6 117.7 3.2 117.7 2.7 Z M 117.9 4.9 L 119.4 4.9 L 119.4 12.5 L 117.9 12.5 L 117.9 4.9 Z M 121.2 8.7 C 121.2 6.5 122.7 4.7 125 4.7 C 127.4 4.7 128.9 6.5 128.9 8.7 C 128.9 10.9 127.4 12.7 125 12.7 C 122.7 12.7 121.2 10.9 121.2 8.7 Z M 127.4 8.7 C 127.4 7.3 126.6 6 125 6 C 123.5 6 122.7 7.3 122.7 8.7 C 122.7 10.2 123.5 11.5 125 11.5 C 126.6 11.5 127.4 10.2 127.4 8.7 Z M 135.9 7.6 C 135.9 6.4 135.3 6 134.3 6 C 133.4 6 132.6 6.5 132.2 7.1 C 132.15 7.07 132.2 12.5 132.2 12.5 L 130.7 12.5 L 130.7 4.9 L 132.2 4.9 C 132.2 4.9 132.15 5.95 132.2 6 C 132.7 5.3 133.7 4.7 134.9 4.7 C 136.5 4.7 137.3 5.5 137.3 7.2 C 137.33 7.16 137.3 12.5 137.3 12.5 L 135.9 12.5 C 135.9 12.5 135.9 7.64 135.9 7.6 Z M 139.6 10.5 C 140.1 11.1 141.2 11.6 142.2 11.6 C 143.3 11.6 143.8 11.2 143.8 10.5 C 143.8 9.7 143 9.5 142 9.3 C 140.7 9 139.2 8.6 139.2 7 C 139.2 5.7 140.2 4.7 142.1 4.7 C 143.4 4.7 144.4 5.2 145 5.8 C 145 5.8 144.4 6.8 144.4 6.8 C 143.9 6.2 143.1 5.8 142.1 5.8 C 141.1 5.8 140.5 6.2 140.5 6.8 C 140.5 7.5 141.4 7.7 142.3 8 C 143.6 8.3 145.2 8.6 145.2 10.4 C 145.2 11.7 144.1 12.7 142.1 12.7 C 140.8 12.7 139.7 12.3 138.9 11.5 C 138.9 11.5 139.6 10.5 139.6 10.5 Z " stroke="none" fill="#000"/>
  </g>
</svg>