<?xml version="1.0" standalone="no"?><!DOCTYPE svg PUBLIC "-//W3C//DTD SVG 1.1//EN" "http://www.w3.org/Graphics/SVG/1.1/DTD/svg11.dtd"><svg xmlns="http://www.w3.org/2000/svg" version="1.1" width="130px" height="47.9px" viewBox="0 -6 130 47.9" style="top:-6px"><desc>Agent 1</desc><defs/><g id="Polygon85257"><path d="m.4 33.7c0-1.5.5-2.9 1.3-4l.5.4c-.6 1.1-.9 2.1-.9 3.6c0 1.5.3 2.5.9 3.6l-.5.4c-.8-1.1-1.3-2.6-1.3-4zm5 .7H2.5v-.7l2.6-3.8h1.2v3.8h.8v.7h-.8v1.5h-.9v-1.5zm-2-.7h2v-3l-2 3zm4.4 1.5c2.2-1.8 3.3-2.7 3.3-3.6c0-.7-.6-1-1.2-1c-.7 0-1.3.3-1.6.7l-.6-.6c.5-.6 1.3-.9 2.2-.9c1.1 0 2.1.6 2.1 1.8c0 1.2-1.2 2.2-2.8 3.5h2.8v.8H7.8s-.03-.72 0-.7zm7.9-.8h-2.9v-.7l2.5-3.8h1.3v3.8h.8v.7h-.8v1.5h-.9v-1.5zm-2-.7h2v-3l-2 3zm4-3.6l.5-.4c.8 1.1 1.3 2.5 1.3 4c0 1.4-.5 2.9-1.3 4l-.5-.4c.6-1.1.9-2.1.9-3.6c0-1.5-.3-2.5-.9-3.6zm5.1 4.3c.4.5 1 .8 1.7.8c.8 0 1.3-.4 1.3-1c0-.7-.5-1-1.4-1h-.7v-.8h.7c.7 0 1.3-.2 1.3-.9c0-.6-.6-.9-1.3-.9c-.6 0-1.1.2-1.5.7l-.5-.6c.4-.5 1.1-.9 2.1-.9c1.2 0 2.1.6 2.1 1.6c0 .8-.7 1.3-1.3 1.4c.6 0 1.4.5 1.4 1.5c0 1-.8 1.7-2.2 1.7c-1 0-1.8-.4-2.2-1l.5-.6zm4.7.8c2.3-1.8 3.3-2.7 3.3-3.6c0-.7-.6-1-1.2-1c-.7 0-1.2.3-1.6.7l-.5-.6c.5-.6 1.3-.9 2.1-.9c1.1 0 2.1.6 2.1 1.8c0 1.2-1.1 2.2-2.7 3.5h2.8v.8h-4.3s.02-.72 0-.7zm5.9-.8c.4.5.9.8 1.6.8c.8 0 1.3-.5 1.3-1.2c0-.7-.5-1.2-1.3-1.2c-.5 0-.9.2-1.3.6c-.03-.02-.7-.2-.7-.2v-3.3h3.8v.8h-2.9s.02 1.89 0 1.9c.3-.3.8-.5 1.4-.5c1 0 1.9.7 1.9 1.9c0 1.2-.9 2-2.2 2c-1 0-1.7-.4-2.2-1l.6-.6zm4.4-1h2.2v.7h-2.2v-.7zm2.8 1.8c2.3-1.8 3.3-2.7 3.3-3.6c0-.7-.6-1-1.2-1c-.7 0-1.2.3-1.6.7l-.5-.6c.5-.6 1.3-.9 2.1-.9c1.1 0 2.1.6 2.1 1.8c0 1.2-1.1 2.2-2.7 3.5h2.8v.8h-4.3s.03-.72 0-.7zm7.7-5.4c.8 0 1.4.3 1.7.7l-.4.7c-.3-.4-.7-.6-1.3-.6c-1 0-1.6 1-1.6 2.2v.2c.3-.4.9-.9 1.7-.9c1 0 2 .6 2 1.9c0 1.1-.9 2-2.2 2c-1.7 0-2.4-1.5-2.4-3.1c0-1.7.8-3.1 2.5-3.1zm-.2 3.1c-.5 0-1.1.3-1.4.8c.1.7.5 1.5 1.4 1.5c.9 0 1.3-.6 1.3-1.2c0-.8-.5-1.1-1.3-1.1zm5.3-3.1c1.7 0 2.4 1.6 2.4 3.1c0 1.5-.7 3.1-2.4 3.1c-1.6 0-2.3-1.6-2.3-3.1c0-1.5.7-3.1 2.3-3.1zm0 .8c-1 0-1.4 1.1-1.4 2.3c0 1.2.4 2.3 1.4 2.3c1.1 0 1.5-1.1 1.5-2.3c0-1.2-.4-2.3-1.5-2.3zm4.5 2.2c-.7-.2-1.3-.7-1.3-1.4c0-1.1 1.1-1.6 2.2-1.6c1 0 2.1.5 2.1 1.6c0 .7-.6 1.2-1.3 1.4c.7.2 1.4.8 1.4 1.6c0 1-1.1 1.6-2.2 1.6c-1.3 0-2.3-.6-2.3-1.6c0-.8.7-1.4 1.4-1.6zm.9-2.2c-.8 0-1.3.3-1.3.9c0 .6.9.9 1.3.9c.3 0 1.2-.3 1.2-.9c0-.6-.6-.9-1.2-.9zm0 2.6c-.4 0-1.4.3-1.4 1c0 .6.6 1 1.4 1c.6 0 1.3-.4 1.3-1c0-.7-1-1-1.3-1z" stroke="none" fill="#3797ef"/></g><g id="Polygon85256"><path d="m.7 19.1s2.11-.02 2.1 0c1.9 0 3.1 1.3 3.1 3c0 1.7-1.2 3-3.1 3H.7v-6zm2.1 5.2c1.4 0 2.2-1 2.2-2.2c0-1.2-.8-2.2-2.2-2.2c.01-.03-1.2 0-1.2 0v4.4h1.2zm4-4.8c0-.3.2-.5.5-.5c.3 0 .5.2.5.5c0 .3-.2.5-.5.5c-.3 0-.5-.2-.5-.5zm.1 1.2h.8v4.4h-.8v-4.4zm2 0h.8s.02.7 0 .7c.4-.4.9-.8 1.4-.8v.9c0-.1-.1-.1-.2-.1c-.4 0-1 .3-1.2.7c.02-.04 0 3 0 3h-.8v-4.4zm4.9-.1c1.3 0 2.1 1 2.1 2.4c-.02-.02 0 .2 0 .2c0 0-3.45-.02-3.5 0c.1.7.6 1.3 1.5 1.3c.5 0 1-.2 1.3-.5l.4.5c-.4.5-1.1.7-1.8.7c-1.3 0-2.2-.9-2.2-2.3c0-1.3.9-2.3 2.2-2.3zm-1.4 2h2.7c0-.6-.4-1.3-1.3-1.3c-.9 0-1.3.7-1.4 1.3zm6.4-2c.8 0 1.3.4 1.6.8l-.6.5c-.2-.4-.6-.5-1-.5c-.9 0-1.4.6-1.4 1.5c0 .9.5 1.6 1.4 1.6c.4 0 .8-.2 1-.6l.6.5c-.3.5-.8.8-1.6.8c-1.4 0-2.3-1-2.3-2.3c0-1.3.9-2.3 2.3-2.3zm2.5 3.5c.05.02 0-2.7 0-2.7h-.7v-.7h.7v-1.1h.9v1.1h.8v.7h-.8s-.04 2.54 0 2.5c0 .3.1.6.4.6c.2 0 .3-.1.4-.2l.2.6c-.1.2-.4.3-.8.3c-.7 0-1.1-.4-1.1-1.1zm2.3-1.2c0-1.2.8-2.3 2.2-2.3c1.3 0 2.2 1.1 2.2 2.3c0 1.3-.9 2.3-2.2 2.3c-1.4 0-2.2-1-2.2-2.3zm3.5 0c0-.8-.5-1.5-1.3-1.5c-.9 0-1.4.7-1.4 1.5c0 .8.5 1.6 1.4 1.6c.8 0 1.3-.8 1.3-1.6zm1.8-2.2h.8s.02.7 0 .7c.3-.4.9-.8 1.4-.8v.9c0-.1-.1-.1-.2-.1c-.4 0-1 .3-1.2.7c.02-.04 0 3 0 3h-.8v-4.4z" stroke="none" fill="#888888"/></g><g id="Polygon85255"><path d="m5 13.1L3.6 8.6h-.9v4.5H.8V1.9h2.9c1.7 0 2.8.7 2.8 2.4v2c0 1-.4 1.7-1.2 2l1.6 4.8H5zM2.7 7s.93.02.9 0c.6 0 1.1-.2 1.1-1V4.5c0-.8-.5-1-1.1-1c.03.02-.9 0-.9 0v3.5zm5.2 6.1V1.9h1.9v11.2H7.9zm9-2.3c0 1.8-1.1 2.4-2.8 2.4h-.1c-1.7 0-2.8-.6-2.8-2.4V4.1c0-1.6 1.1-2.3 2.8-2.3h.1c1.7 0 2.8.7 2.8 2.3c-.02.03 0 2.1 0 2.1H15s.02-1.79 0-1.8c0-.8-.4-1-1-1c-.5 0-.9.2-.9 1v6.2c0 .7.4 1 .9 1c.6 0 1-.3 1-1c.02-.04 0-2.1 0-2.1h1.9s-.02 2.35 0 2.3zM20 1.9v4.7h2.2V1.9h1.8v11.2h-1.8V8.2H20v4.9h-1.8V1.9h1.8zm9 8.7h-2l-.4 2.5h-1.8l2.1-11.2h2.3l2.1 11.2h-1.9l-.4-2.5zm-.2-1.5l-.8-5l-.8 5h1.6zm7.5 4l-1.4-4.5h-.9v4.5h-1.9V1.9h2.9c1.7 0 2.8.7 2.8 2.4v2c0 1-.4 1.7-1.2 2c-.01.03 1.6 4.8 1.6 4.8h-1.9zM34 7s.93.02.9 0c.6 0 1.1-.2 1.1-1V4.5c0-.8-.5-1-1.1-1c.03.02-.9 0-.9 0v3.5zm10.8-2.7v6.4c0 1.7-1.1 2.4-2.8 2.4h-2.8V1.9h2.8c1.7 0 2.8.7 2.8 2.4zM42 3.5c-.05.02-1 0-1 0v8s.95-.05 1 0c.6 0 1-.3 1-1.1V4.5c0-.8-.4-1-1-1zm11 3.8c1 .1 1.3.9 1.3 1.7v1.9c0 1.4-1.1 2.2-2.8 2.2h-2.9V1.9h2.9c1.7 0 2.7.8 2.7 2.2v1.4c0 .8-.3 1.6-1.2 1.8zm-2.5-.8h1c.5 0 .9-.3.9-.9V4.3c0-.5-.4-.8-.9-.8h-1v3zm1.1 1.6c-.03-.02-1.1 0-1.1 0v3.4s1.07-.01 1.1 0c.5 0 .8-.3.8-.9V8.9c0-.6-.3-.8-.8-.8zm8.1 5l-1.4-4.5h-.9v4.5h-1.9V1.9h2.9c1.7 0 2.8.7 2.8 2.4v2c0 1-.4 1.7-1.2 2l1.6 4.8h-1.9zM57.4 7s.93.02.9 0c.6 0 1.1-.2 1.1-1V4.5c0-.8-.5-1-1.1-1c.03.02-.9 0-.9 0v3.5zm5.2 6.1V1.9h4.9v1.6h-3.1v3.1h2.6v1.6h-2.6v3.3h3.1v1.6h-4.9zm7.9-11.2v4.7h2.2V1.9h1.8v11.2h-1.8V8.2h-2.2v4.9h-1.8V1.9h1.8zm9 8.7h-2l-.4 2.5h-1.8l2.1-11.2h2.3l2.1 11.2h-1.9l-.4-2.5zm-.2-1.5l-.8-5l-.8 5h1.6zm8.8 1.7c0 1.8-1.1 2.4-2.8 2.4h-.1c-1.7 0-2.8-.6-2.8-2.4c.05.05 0-8.9 0-8.9h1.9v8.7c0 .8.4 1 1 1c.6 0 .9-.2.9-1c.02-.04 0-8.7 0-8.7h1.9s-.02 8.95 0 8.9zm6.3-7.3h-1.8v9.6h-1.9V3.5h-1.9V1.9h5.6v1.6z" stroke="none" fill="#282828"/></g></svg>