<?xml version="1.0" standalone="no"?><!DOCTYPE svg PUBLIC "-//W3C//DTD SVG 1.1//EN" "http://www.w3.org/Graphics/SVG/1.1/DTD/svg11.dtd"><svg xmlns="http://www.w3.org/2000/svg" version="1.1" width="330.5px" height="16.9px" viewBox="0 -4 330.5 16.9" style="top:-4px"><desc>7225 Rivers Ave, Charleston, SC 29406</desc><defs/><g id="Polygon91923"><path d="m155.3 1.9h-3.1v-.8h4.2v.6L154 7.1h-1l2.3-5.2zm1.8 4.5c2.2-1.7 3.3-2.6 3.3-3.6c0-.7-.6-1-1.2-1c-.7 0-1.3.3-1.6.8L157 2c.5-.6 1.3-1 2.2-1c1.1 0 2.1.6 2.1 1.8c0 1.2-1.1 2.2-2.8 3.5c.01.02 2.8 0 2.8 0v.8h-4.2s-.02-.7 0-.7zm5.3 0c2.2-1.7 3.3-2.6 3.3-3.6c0-.7-.6-1-1.2-1c-.7 0-1.2.3-1.6.8l-.5-.6c.4-.6 1.3-1 2.1-1c1.1 0 2.1.6 2.1 1.8c0 1.2-1.1 2.2-2.8 3.5c.03.02 2.8 0 2.8 0v.8h-4.2v-.7zm5.9-.7c.4.4 1 .7 1.7.7c.8 0 1.3-.5 1.3-1.2c0-.7-.5-1.1-1.3-1.1c-.5 0-1 .1-1.4.5l-.6-.2V1.1h3.8v.8h-2.9v1.9c.3-.3.8-.5 1.4-.5c1 0 1.9.7 1.9 1.9c0 1.2-1 2-2.2 2c-1.1 0-1.7-.3-2.2-.9l.5-.6zm9.3-.9h-1.1v2.3h-.9v-6s2.52.01 2.5 0c1.2 0 1.9.7 1.9 1.9c0 1-.7 1.6-1.4 1.7c-.05.01 1.5 2.4 1.5 2.4H179l-1.4-2.3zm.4-2.9h-1.5v2.1h1.5c.7 0 1.1-.4 1.1-1c0-.7-.4-1.1-1.1-1.1zm3.2-.8h.9v6h-.9v-6zm1.6 0h1l1.9 5l1.9-5h1.1l-2.4 6h-1.1l-2.4-6zm6.6 0h4v.8h-3.1v1.8h3.1v.7h-3.1v1.9h3.1v.8h-4v-6zm7.2 3.7h-1.2v2.3h-.9v-6h2.6c1.1 0 1.9.7 1.9 1.9c0 1-.7 1.6-1.5 1.7l1.5 2.4h-1l-1.4-2.3zm.4-2.9h-1.6v2.1h1.6c.6 0 1.1-.4 1.1-1c0-.7-.5-1.1-1.1-1.1zm3.3 3.7c.4.4 1 .8 1.8.8c1 0 1.4-.5 1.4-.9c0-.6-.7-.8-1.5-1c-1-.3-2.1-.5-2.1-1.8c0-1 .9-1.7 2.2-1.7c.9 0 1.6.3 2.1.9l-.5.6c-.4-.5-1.1-.7-1.7-.7c-.7 0-1.1.4-1.1.9c0 .5.6.7 1.3.9c1 .2 2.2.5 2.2 1.8c0 .9-.7 1.8-2.3 1.8c-1.1 0-1.8-.4-2.4-.9l.6-.7zm11.2.3h-2.9l-.5 1.2h-1l2.4-6h1.1l2.4 6h-1l-.5-1.2zm-2.6-.8h2.4l-1.2-3.2l-1.2 3.2zm3.7-4h1.1l1.9 5l1.9-5h1l-2.3 6H215l-2.4-6zm6.7 0h4v.8h-3.1v1.8h3v.7h-3v1.9h3.1v.8h-4v-6zm5 6.9c.3-.2.5-.6.6-.9h-.2c-.2 0-.4-.2-.4-.5c0-.3.2-.5.5-.5c.3 0 .6.3.6.7c0 .6-.3 1.2-.8 1.5l-.3-.3zm4.3-3.9c0-1.8 1.4-3.1 3.1-3.1c1.2 0 1.9.6 2.4 1.3l-.8.4c-.3-.5-.9-.9-1.6-.9c-1.2 0-2.1 1-2.1 2.3c0 1.4.9 2.3 2.1 2.3c.7 0 1.3-.4 1.6-.9l.8.4c-.5.8-1.2 1.3-2.4 1.3c-1.7 0-3.1-1.2-3.1-3.1zm10.6.3h-3.3v2.7h-.9v-6h.9v2.5h3.3V1.1h.9v6h-.9V4.4zm6 1.5h-2.9l-.5 1.2h-1l2.4-6h1.1l2.4 6h-1l-.5-1.2zm-2.6-.8h2.4l-1.2-3.2l-1.2 3.2zm6.9-.3h-1.2v2.3h-.9v-6h2.6c1.1 0 1.9.7 1.9 1.9c0 1-.7 1.6-1.5 1.7l1.5 2.4h-1l-1.4-2.3zm.3-2.9h-1.5v2.1h1.5c.7 0 1.2-.4 1.2-1c0-.7-.5-1.1-1.2-1.1zm3.2-.8h.9v5.2h2.7v.8H253v-6zm4.6 0h4v.8h-3.1v1.8h3.1v.7h-3.1v1.9h3.1v.8h-4v-6zm5.3 4.5c.4.4 1.1.8 1.9.8c1 0 1.3-.5 1.3-.9c0-.6-.7-.8-1.4-1c-1-.3-2.1-.5-2.1-1.8c0-1 .9-1.7 2.1-1.7c.9 0 1.7.3 2.2.9l-.5.6c-.5-.5-1.1-.7-1.8-.7c-.6 0-1.1.4-1.1.9c0 .5.7.7 1.4.9c1 .2 2.1.5 2.1 1.8c0 .9-.6 1.8-2.2 1.8c-1.1 0-1.9-.4-2.4-.9l.5-.7zm6.6-3.7h-1.9v-.8h4.6v.8h-1.8v5.2h-.9V1.9zm6.2-.9c1.8 0 3 1.3 3 3.1c0 1.8-1.2 3.1-3 3.1c-1.8 0-3-1.3-3-3.1c0-1.8 1.2-3.1 3-3.1zm0 .8c-1.3 0-2.1 1-2.1 2.3c0 1.3.8 2.3 2.1 2.3c1.3 0 2.1-1 2.1-2.3c0-1.3-.8-2.3-2.1-2.3zm5 .7v4.6h-.9v-6h.9l3.3 4.5V1.1h.9v6h-.9l-3.3-4.6zm5.4 5.5c.3-.2.6-.6.6-.9h-.1c-.3 0-.5-.2-.5-.5c0-.3.2-.5.5-.5c.4 0 .7.3.7.7c0 .6-.4 1.2-.8 1.5l-.4-.3zm4.8-2.4c.4.4 1 .8 1.8.8c1 0 1.4-.5 1.4-.9c0-.6-.7-.8-1.5-1c-1-.3-2.1-.5-2.1-1.8c0-1 .9-1.7 2.2-1.7c.9 0 1.6.3 2.1.9l-.5.6c-.4-.5-1.1-.7-1.7-.7c-.7 0-1.1.4-1.1.9c0 .5.6.7 1.4.9c.9.2 2.1.5 2.1 1.8c0 .9-.7 1.8-2.3 1.8c-1.1 0-1.8-.4-2.4-.9l.6-.7zm4.9-1.5c0-1.8 1.3-3.1 3-3.1c1.2 0 2 .6 2.4 1.3l-.7.4c-.4-.5-.9-.9-1.7-.9c-1.2 0-2.1 1-2.1 2.3c0 1.4.9 2.3 2.1 2.3c.8 0 1.3-.4 1.7-.9l.7.4c-.4.8-1.2 1.3-2.4 1.3c-1.7 0-3-1.2-3-3.1zm8.5 2.3c2.2-1.7 3.2-2.6 3.2-3.6c0-.7-.5-1-1.1-1c-.7 0-1.3.3-1.7.8l-.5-.6c.5-.6 1.3-1 2.2-1c1 0 2.1.6 2.1 1.8c0 1.2-1.2 2.2-2.8 3.5c-.01.02 2.8 0 2.8 0v.8h-4.2s-.05-.7 0-.7zm5.9-.6c.4.4.7.6 1.3.6c1.2 0 1.6-1.1 1.6-2.2v-.2c-.2.4-.9.9-1.6.9c-1.1 0-2-.6-2-1.9c0-1.1.8-2 2.2-2c1.7 0 2.4 1.5 2.4 3.1c0 1.7-.9 3.1-2.6 3.1c-.7 0-1.3-.3-1.7-.7l.4-.7zm1.5-4c-.9 0-1.3.6-1.3 1.2c0 .8.6 1.1 1.3 1.1c.6 0 1.1-.3 1.4-.8c0-.6-.4-1.5-1.4-1.5zm5.9 3.9h-2.9v-.8l2.6-3.8h1.2v3.8h.8v.8h-.8v1.4h-.9V5.7zm-2-.8h2v-3l-2 3zm6.8-3.9c1.6 0 2.3 1.6 2.3 3.1c0 1.5-.7 3.1-2.3 3.1c-1.7 0-2.4-1.6-2.4-3.1c0-1.5.7-3.1 2.4-3.1zm0 .8c-1.1 0-1.5 1.1-1.5 2.3c0 1.2.4 2.3 1.5 2.3c1 0 1.4-1.1 1.4-2.3c0-1.2-.4-2.3-1.4-2.3zm5.7-.8c.7 0 1.3.3 1.7.7l-.5.7c-.3-.4-.6-.6-1.2-.6c-1.1 0-1.7 1.1-1.7 2.2v.2c.3-.4 1-.9 1.7-.9c1.1 0 2 .7 2 1.9c0 1.1-.9 2-2.2 2c-1.7 0-2.4-1.4-2.4-3.1c0-1.7.9-3.1 2.6-3.1zm-.2 3.1c-.6 0-1.1.3-1.4.8c0 .7.4 1.5 1.4 1.5c.8 0 1.3-.6 1.3-1.1c0-.8-.6-1.2-1.3-1.2z" stroke="none" fill="#88898a"/></g></svg>