<?xml version="1.0" standalone="no"?><!DOCTYPE svg PUBLIC "-//W3C//DTD SVG 1.1//EN" "http://www.w3.org/Graphics/SVG/1.1/DTD/svg11.dtd"><svg xmlns="http://www.w3.org/2000/svg" version="1.1" width="375px" height="67.5px" viewBox="0 -6 375 67.5" style="top:-6px"><desc>SUBJECT PROPERTY SITE PLAN</desc><defs/><g id="Polygon280215"><path d="m150.4 33.7V31c0-1.3-.7-1.7-1.7-1.7c-.9 0-1.6.4-1.6 1.7v1.3c0 1 .3 1.5 1.2 2l2.3 1.3c1.9 1.1 3.1 2 3.1 4.1v2.8c0 3.1-1.9 4.2-4.9 4.2h-.1c-3 0-4.9-1.1-4.9-4.2c.03.03 0-3.4 0-3.4h3.3s-.05 2.98 0 3c0 1.2.7 1.7 1.6 1.7c1 0 1.7-.5 1.7-1.7v-1.6c0-1-.3-1.5-1.3-2l-2.2-1.3c-2-1.1-3.1-2-3.1-4.1v-2.6c0-2.9 2.2-4.1 4.9-4.1c2.8 0 4.9 1.2 4.9 4.1v3.2h-3.2zm5.5 12.7V26.7h3.2v19.7h-3.2zm14.6-16.9h-3.3v16.9H164V29.5h-3.3v-2.8h9.8v2.8zm1.5 16.9V26.7h8.6v2.8h-5.4v5.5h4.5v2.8h-4.5v5.7h5.5v2.9H172zm25.1-15.6v3.8c0 3-2 4.2-5 4.2c-.01-.02-1.8 0-1.8 0v7.6H187V26.7s5.09-.04 5.1 0c3 0 5 1.2 5 4.1zm-3.3.6c0-1.5-.8-1.9-1.8-1.9c-.02.04-1.7 0-1.7 0v6.4h1.7c1 0 1.8-.4 1.8-1.8v-2.7zm13.4 15h-8.3V26.7h3.2v16.8h5.1v2.9zM215 42h-3.7l-.7 4.4h-3.1l3.6-19.7h4.2l3.7 19.7h-3.3L215 42zm-.5-2.7l-1.3-8.8l-1.4 8.8h2.7zm5.9 7.1V26.7h3.2l4.2 12.2V26.7h3v19.7h-3.1l-4.4-12.8v12.8h-2.9z" stroke="none" fill="#282828"/></g><g id="Polygon280214"><path d="m115 9.8c.7.8 1.8 1.5 3.3 1.5c1.7 0 2.3-.8 2.3-1.6c0-1.1-1.2-1.4-2.5-1.8c-1.7-.4-3.7-.9-3.7-3.1c0-1.7 1.5-3 3.8-3c1.6 0 2.9.5 3.8 1.5l-.9 1.1c-.8-.8-1.9-1.2-3.1-1.2c-1.1 0-2 .6-2 1.5c0 1 1.2 1.3 2.5 1.6c1.7.4 3.8 1 3.8 3.2c0 1.7-1.2 3.2-4 3.2c-1.9 0-3.3-.6-4.2-1.6l.9-1.3zm8.9-7.8h1.6s.04 6.36 0 6.4c0 1.8 1 2.9 2.9 2.9c1.9 0 2.8-1.1 2.8-2.9c.05-.04 0-6.4 0-6.4h1.6s.05 6.39 0 6.4c0 2.6-1.4 4.3-4.4 4.3c-3 0-4.5-1.7-4.5-4.3c.04 0 0-6.4 0-6.4zm11.2 0s4.93-.05 4.9 0c1.9 0 3 1.1 3 2.7c0 1.3-.9 2.2-1.8 2.4c1.1.2 2 1.3 2 2.6c0 1.7-1.1 2.8-3 2.8c-.04.05-5.1 0-5.1 0V2zm4.6 4.4c1.1 0 1.7-.6 1.7-1.5c0-.9-.6-1.5-1.7-1.5c.03-.05-3.1 0-3.1 0v3s3.13.05 3.1 0zm.1 4.8c1.1 0 1.8-.7 1.8-1.7c0-.9-.6-1.7-1.8-1.7c.01.04-3.2 0-3.2 0v3.4s3.21-.05 3.2 0zm5-.8c.4.5 1 .9 1.9.9c1.2 0 2-.8 2-2c-.03-.04 0-7.3 0-7.3h1.6s-.04 7.28 0 7.3c0 2.3-1.5 3.4-3.5 3.4c-1.1 0-2.1-.3-2.8-1.1l.8-1.2zm7.7-8.4h7.1v1.4h-5.5v3h5.4v1.4h-5.4v3.4h5.5v1.3h-7.1V2zm8.5 5.3c0-3.3 2.4-5.5 5.4-5.5c2.1 0 3.4 1 4.2 2.2l-1.3.7c-.6-.9-1.7-1.5-2.9-1.5c-2.2 0-3.8 1.7-3.8 4.1c0 2.3 1.6 4 3.8 4c1.2 0 2.3-.6 2.9-1.5l1.3.7c-.8 1.2-2.1 2.2-4.2 2.2c-3 0-5.4-2.2-5.4-5.4zm13.6-3.9h-3.3V2h8.2v1.4h-3.3v9.1h-1.6V3.4zM184.9 2s4.47-.05 4.5 0c2.2 0 3.4 1.4 3.4 3.2c0 1.8-1.3 3.3-3.4 3.3c-.03-.04-2.9 0-2.9 0v4h-1.6V2zm4.3 1.4c-.03-.05-2.7 0-2.7 0v3.7s2.67-.03 2.7 0c1.1 0 1.9-.8 1.9-1.9c0-1.1-.8-1.8-1.9-1.8zm8.6 5.1h-2v4h-1.6V2s4.5-.05 4.5 0c2 0 3.4 1.3 3.4 3.2c0 1.9-1.3 2.9-2.6 3.1c-.04.01 2.7 4.2 2.7 4.2h-1.9l-2.5-4zm.7-5.1c-.01-.05-2.7 0-2.7 0v3.7s2.69-.03 2.7 0c1.1 0 2-.8 2-1.9c0-1.1-.9-1.8-2-1.8zm10.3-1.6c3.1 0 5.3 2.3 5.3 5.5c0 3.1-2.2 5.4-5.3 5.4c-3.2 0-5.4-2.3-5.4-5.4c0-3.2 2.2-5.5 5.4-5.5zm0 1.4c-2.3 0-3.7 1.7-3.7 4.1c0 2.3 1.4 4 3.7 4c2.2 0 3.7-1.7 3.7-4c0-2.4-1.5-4.1-3.7-4.1zm7.1-1.2s4.44-.05 4.4 0c2.2 0 3.4 1.4 3.4 3.2c0 1.8-1.2 3.3-3.4 3.3c.04-.04-2.8 0-2.8 0v4h-1.6V2zm4.2 1.4c.04-.05-2.6 0-2.6 0v3.7s2.64-.03 2.6 0c1.2 0 2-.8 2-1.9c0-1.1-.8-1.8-2-1.8zm5.1-1.4h7.1v1.4h-5.5v3h5.4v1.4h-5.4v3.4h5.5v1.3h-7.1V2zm12.5 6.5h-2v4h-1.6V2s4.51-.05 4.5 0c2 0 3.4 1.3 3.4 3.2c0 1.9-1.3 2.9-2.6 3.1c-.03.01 2.7 4.2 2.7 4.2h-1.9l-2.5-4zm.7-5.1c0-.05-2.7 0-2.7 0v3.7s2.7-.03 2.7 0c1.1 0 2-.8 2-1.9c0-1.1-.9-1.8-2-1.8zm7.8 0h-3.3V2h8.2v1.4h-3.3v9.1h-1.6V3.4zm9.4 4.7L251.5 2h1.8l3.1 4.7l3.1-4.7h1.9l-4.2 6.1v4.4h-1.6V8.1z" stroke="none" fill="#3797ef"/></g></svg>