<?xml version="1.0" standalone="no"?><!DOCTYPE svg PUBLIC "-//W3C//DTD SVG 1.1//EN" "http://www.w3.org/Graphics/SVG/1.1/DTD/svg11.dtd"><svg xmlns="http://www.w3.org/2000/svg" version="1.1" width="103px" height="27.9px" viewBox="0 -6 103 27.9" style="top:-6px"><desc>Agent 1</desc><defs/><g id="Polygon278006"><path d="m4.7 8.5H2.8v4H1.2V2s4.44-.05 4.4 0C7.7 2 9 3.3 9 5.2c0 1.9-1.2 2.9-2.6 3.1l2.7 4.2H7.3l-2.6-4zm.7-5.1c.03-.05-2.6 0-2.6 0v3.7s2.63-.03 2.6 0c1.2 0 2-.8 2-1.9c0-1.1-.8-1.8-2-1.8zm8.3 1.3c2.3 0 3.7 1.8 3.7 4.1c.02.03 0 .4 0 .4c0 0-6.05-.02-6 0c.1 1.3 1 2.4 2.6 2.4c.8 0 1.7-.4 2.2-.9l.7.9c-.8.7-1.8 1.1-3.1 1.1c-2.3 0-4-1.6-4-4c0-2.2 1.7-4 3.9-4zm-2.4 3.4h4.7c0-1-.7-2.2-2.3-2.2c-1.6 0-2.3 1.2-2.4 2.2zm12.9-.5c0-1.2-.6-1.6-1.6-1.6c-.9 0-1.7.5-2.1 1.1v5.4h-1.4V4.9h1.4s-.01 1.05 0 1.1c.5-.7 1.5-1.3 2.7-1.3c1.6 0 2.5.8 2.5 2.5c-.04-.04 0 5.3 0 5.3h-1.5s.04-4.86 0-4.9zm3.9 3.2c-.04.05 0-4.7 0-4.7h-1.3V4.9h1.3V2.8h1.4v2.1h1.5v1.2h-1.5s-.01 4.43 0 4.4c0 .6.2 1 .7 1c.4 0 .7-.2.8-.3l.4 1c-.3.3-.8.5-1.5.5c-1.2 0-1.8-.6-1.8-1.9zM39 1.6h1.1l-3.7 11.3h-1.1L39 1.6zm6.3 8.2c.8.8 1.9 1.5 3.4 1.5c1.7 0 2.3-.8 2.3-1.6c0-1.1-1.2-1.4-2.6-1.8c-1.7-.4-3.6-.9-3.6-3.1c0-1.7 1.5-3 3.7-3c1.7 0 2.9.5 3.9 1.5l-.9 1.1c-.9-.8-2-1.2-3.1-1.2c-1.2 0-2 .6-2 1.5c0 1 1.2 1.3 2.5 1.6c1.7.4 3.7 1 3.7 3.2c0 1.7-1.1 3.2-4 3.2c-1.9 0-3.3-.6-4.2-1.6l.9-1.3zm9-7.8h7.1v1.4h-5.5v3h5.4v1.4h-5.4v4.7h-1.6V2z" stroke="none" fill="#3797ef"/></g></svg>