<?xml version="1.0" standalone="no"?><!DOCTYPE svg PUBLIC "-//W3C//DTD SVG 1.1//EN" "http://www.w3.org/Graphics/SVG/1.1/DTD/svg11.dtd"><svg xmlns="http://www.w3.org/2000/svg" version="1.1" width="236px" height="16.9px" viewBox="0 -4 236 16.9" style="top:-4px"><desc>OPPORTUNITY TITLE</desc><defs/><g id="Polygon270700"><path d="m3.4 1c1.8 0 3.1 1.3 3.1 3.1c0 1.8-1.3 3.1-3.1 3.1c-1.8 0-3-1.3-3-3.1C.4 2.3 1.6 1 3.4 1zm0 .8c-1.2 0-2.1 1-2.1 2.3c0 1.3.9 2.3 2.1 2.3c1.3 0 2.1-1 2.1-2.3c0-1.3-.8-2.3-2.1-2.3zm4.2-.7s2.48.01 2.5 0C11.3 1.1 12 2 12 3c0 1-.7 1.8-1.9 1.8H8.5v2.3h-.9v-6zm2.4.8H8.5v2.1h1.5c.6 0 1.1-.4 1.1-1c0-.7-.5-1.1-1.1-1.1zm2.9-.8h2.6c1.2 0 1.9.9 1.9 1.9c0 1-.7 1.8-1.9 1.8h-1.7v2.3h-.9v-6zm2.4.8h-1.5v2.1h1.5c.7 0 1.1-.4 1.1-1c0-.7-.4-1.1-1.1-1.1zm5.8-.9c1.8 0 3 1.3 3 3.1c0 1.8-1.2 3.1-3 3.1c-1.8 0-3.1-1.3-3.1-3.1C18 2.3 19.3 1 21.1 1zm0 .8c-1.3 0-2.1 1-2.1 2.3c0 1.3.8 2.3 2.1 2.3c1.2 0 2.1-1 2.1-2.3c0-1.3-.9-2.3-2.1-2.3zm6.1 3h-1.1v2.3h-.9v-6s2.51.01 2.5 0c1.2 0 1.9.7 1.9 1.9c0 1-.7 1.6-1.5 1.7c.04.01 1.6 2.4 1.6 2.4h-1.1l-1.4-2.3zm.4-2.9h-1.5v2.1h1.5c.6 0 1.1-.4 1.1-1c0-.7-.5-1.1-1.1-1.1zm4.5 0h-1.8v-.8h4.6v.8H33v5.2h-.9V1.9zm3.7-.8h.9s.02 3.63 0 3.6c0 1.1.6 1.7 1.6 1.7c1.1 0 1.7-.6 1.7-1.7c-.05.03 0-3.6 0-3.6h.9s-.04 3.65 0 3.7c0 1.4-.9 2.4-2.6 2.4c-1.6 0-2.5-1-2.5-2.4c.01-.04 0-3.7 0-3.7zm7.3 1.4v4.6h-.9v-6h.9l3.3 4.5V1.1h.9v6h-.9l-3.3-4.6zm5.5-1.4h.9v6h-.9v-6zm3.7.8h-1.8v-.8h4.6v.8h-1.9v5.2h-.9V1.9zm5.5 2.7l-2.4-3.5h1l1.8 2.7l1.7-2.7h1.1l-2.3 3.5v2.5h-.9V4.6zm7.7-2.7h-1.9v-.8h4.7v.8h-1.9v5.2h-.9V1.9zm3.7-.8h.9v6h-.9v-6zm3.7.8H71v-.8h4.7v.8h-1.9v5.2h-.9V1.9zm3.7-.8h.9v5.2h2.7v.8h-3.6v-6zm4.6 0h4v.8h-3.1v1.8h3.1v.7h-3.1v1.9h3.1v.8h-4v-6z" stroke="none" fill="#88898a"/></g></svg>