<?xml version="1.0" standalone="no"?><!DOCTYPE svg PUBLIC "-//W3C//DTD SVG 1.1//EN" "http://www.w3.org/Graphics/SVG/1.1/DTD/svg11.dtd"><svg xmlns="http://www.w3.org/2000/svg" xmlns:xlink="http://www.w3.org/1999/xlink" version="1.1" width="134px" height="55.4px" viewBox="0 -13 134 55.4" style="top:-13px"><desc>Agent 1</desc><defs/><g id="Polygon48178"><path d="m9.6 22.6v2.5h-2v-2.5c-2.9-.2-5.1-1.3-6.5-2.9l1.6-2.2c1.1 1.2 2.8 2.3 4.9 2.5v-6.1c-2.9-.7-5.9-1.8-5.9-5.3c0-3 2.4-5.1 5.9-5.4V.6h2v2.6c2.3.3 4.2 1.2 5.6 2.6l-1.6 2.1c-1.1-1.1-2.5-1.8-4-2.1v5.6c2.9.7 6 1.8 6 5.6c0 2.7-1.7 5.2-6 5.6zm-2-11.8V5.7c-1.8.2-3 1.2-3 2.7c0 1.3 1.3 1.9 3 2.4zm5.2 6.4c0-1.6-1.4-2.2-3.2-2.8v5.6c2.3-.2 3.2-1.6 3.2-2.8z" stroke="none" fill="#282828"/><a xlink:href="DBF_Rent%20/%20SF" xlink:show="new" xlink:title="&lt;&lt;Rent / SF&gt;&gt;"><rect style="fill:transparent;" x="16" y="2" width="99" height="21"/></a></g><g id="Polygon48179"><path d="m16.6 11.9l12.5-6v2.1l-10.5 4.9l10.5 4.9v2l-12.5-6v-1.9zm13.9 0l12.4-6v2.1l-10.4 4.9l10.4 4.9v2l-12.4-6v-1.9zM51.9 15h-3.5v7.3h-2.8V3.5s7.91-.03 7.9 0c3.6 0 6 2.3 6 5.8c0 3.3-2.2 5.2-4.6 5.5c-.04-.03 4.8 7.5 4.8 7.5h-3.3L51.9 15zm1.2-9c.04-.04-4.7 0-4.7 0v6.6s4.74-.04 4.7 0c2.1 0 3.5-1.4 3.5-3.3c0-2-1.4-3.3-3.5-3.3zm14.7 2.3c4.1 0 6.7 3.2 6.7 7.4c-.04 0 0 .6 0 .6c0 0-10.83.02-10.8 0c.2 2.3 1.9 4.3 4.6 4.3c1.4 0 3-.6 4-1.7l1.2 1.7c-1.3 1.3-3.3 2-5.5 2c-4 0-7-2.8-7-7.1c0-4 2.8-7.2 6.8-7.2zm-4.2 6.2h8.4c-.1-1.8-1.3-4.1-4.2-4.1c-2.7 0-4 2.2-4.2 4.1zm23-.9c0-2.3-1.2-3-2.9-3c-1.6 0-3.1.9-3.8 2v9.7h-2.5V8.7h2.5v1.9c.9-1.1 2.7-2.3 4.8-2.3c2.9 0 4.4 1.6 4.4 4.4v9.6h-2.5s-.03-8.72 0-8.7zm6.8 5.7c-.03-.02 0-8.4 0-8.4h-2.3V8.7h2.3V4.9h2.5v3.8h2.8v2.2h-2.8v7.8c0 1 .5 1.7 1.3 1.7c.6 0 1.2-.3 1.4-.6l.7 2c-.6.5-1.4.8-2.7.8c-2.1 0-3.2-1.2-3.2-3.3zm19.5-16.4h1.9l-6.7 20h-1.9l6.7-20z" stroke="none" fill="#282828"/></g></svg>