<?xml version="1.0" standalone="no"?><!DOCTYPE svg PUBLIC "-//W3C//DTD SVG 1.1//EN" "http://www.w3.org/Graphics/SVG/1.1/DTD/svg11.dtd"><svg xmlns="http://www.w3.org/2000/svg" version="1.1" width="155px" height="27.9px" viewBox="0 -6 155 27.9" style="top:-6px"><desc>LISTING AGENTS</desc><defs/><g id="Polygon62203"><path d="m1.2 2h1.6v9.2h4.8v1.3H1.2V2zm8 0h1.6v10.5H9.2V2zm4 7.8c.7.8 1.9 1.5 3.3 1.5c1.8 0 2.4-.8 2.4-1.6c0-1.1-1.2-1.4-2.6-1.8c-1.7-.4-3.7-.9-3.7-3.1c0-1.7 1.6-3 3.8-3c1.6 0 2.9.5 3.8 1.5l-.9 1.1c-.8-.8-1.9-1.2-3-1.2c-1.2 0-2 .6-2 1.5c0 1 1.1 1.3 2.4 1.6c1.8.4 3.8 1 3.8 3.2c0 1.7-1.2 3.2-4 3.2c-1.9 0-3.3-.6-4.2-1.6l.9-1.3zm11.4-6.4h-3.3V2h8.2v1.4h-3.3v9.1h-1.6V3.4zM31 2h1.6v10.5H31V2zm5.4 2.4v8.1h-1.6V2h1.6l5.8 7.9V2h1.6v10.5h-1.6l-5.8-8.1zM51 1.8c2 0 3.3.9 4.2 2.1l-1.3.7c-.6-.8-1.6-1.4-2.9-1.4c-2.2 0-3.8 1.7-3.8 4.1c0 2.3 1.6 4 3.8 4c1.2 0 2.2-.5 2.7-1V8.4h-3.4V7h5s-.02 3.88 0 3.9c-1 1.1-2.5 1.9-4.3 1.9c-3 0-5.5-2.2-5.5-5.5C45.5 4 48 1.8 51 1.8zm16.8 8.6h-5.2l-.8 2.1H60L64.2 2h2l4.2 10.5h-1.7l-.9-2.1zm-4.7-1.5h4.2l-2.1-5.6l-2.1 5.6zM76 1.8c2 0 3.3.9 4.2 2.1l-1.3.7c-.6-.8-1.7-1.4-2.9-1.4c-2.2 0-3.9 1.7-3.9 4.1c0 2.3 1.7 4 3.9 4c1.2 0 2.2-.5 2.7-1c-.02-.01 0-1.9 0-1.9h-3.4V7h5s-.03 3.88 0 3.9c-1 1.1-2.5 1.9-4.3 1.9c-3 0-5.5-2.2-5.5-5.5C70.5 4 73 1.8 76 1.8zm6.1.2h7.2v1.4h-5.6v3h5.4v1.4h-5.4v3.4h5.6v1.3h-7.2V2zm10.6 2.4v8.1h-1.6V2h1.6l5.8 7.9V2h1.6v10.5h-1.6l-5.8-8.1zm12.2-1h-3.3V2h8.1v1.4h-3.3v9.1h-1.5V3.4zm6.5 6.4c.7.8 1.9 1.5 3.3 1.5c1.7 0 2.4-.8 2.4-1.6c0-1.1-1.3-1.4-2.6-1.8c-1.7-.4-3.7-.9-3.7-3.1c0-1.7 1.6-3 3.8-3c1.6 0 2.9.5 3.8 1.5l-.9 1.1c-.8-.8-1.9-1.2-3.1-1.2c-1.1 0-1.9.6-1.9 1.5c0 1 1.1 1.3 2.4 1.6c1.8.4 3.8 1 3.8 3.2c0 1.7-1.2 3.2-4 3.2c-1.9 0-3.3-.6-4.2-1.6l.9-1.3z" stroke="none" fill="#3797ef"/></g></svg>