<?xml version="1.0" standalone="no"?>
<!DOCTYPE svg PUBLIC "-//W3C//DTD SVG 1.1//EN" "http://www.w3.org/Graphics/SVG/1.1/DTD/svg11.dtd">
<svg xmlns="http://www.w3.org/2000/svg" version="1.1" width="158px" height="27.9px" viewBox="0 -6 158 27.9" style="top:-6px">
  <desc>Roof &amp; Structure</desc>
  <defs/>
  <g id="Polygon278081">
    <path d="M 4.7 8.5 L 2.8 8.5 L 2.8 12.5 L 1.2 12.5 L 1.2 2 C 1.2 2 5.64 1.95 5.6 2 C 7.7 2 9 3.3 9 5.2 C 9 7.1 7.8 8.1 6.4 8.3 C 6.4 8.31 9.1 12.5 9.1 12.5 L 7.3 12.5 L 4.7 8.5 Z M 5.4 3.4 C 5.43 3.35 2.8 3.4 2.8 3.4 L 2.8 7.1 C 2.8 7.1 5.43 7.07 5.4 7.1 C 6.6 7.1 7.4 6.3 7.4 5.2 C 7.4 4.1 6.6 3.4 5.4 3.4 Z M 10 8.7 C 10 6.5 11.5 4.7 13.9 4.7 C 16.3 4.7 17.8 6.5 17.8 8.7 C 17.8 10.9 16.3 12.7 13.9 12.7 C 11.5 12.7 10 10.9 10 8.7 Z M 16.3 8.7 C 16.3 7.3 15.4 6 13.9 6 C 12.4 6 11.5 7.3 11.5 8.7 C 11.5 10.2 12.4 11.5 13.9 11.5 C 15.4 11.5 16.3 10.2 16.3 8.7 Z M 19.1 8.7 C 19.1 6.5 20.6 4.7 23 4.7 C 25.4 4.7 26.8 6.5 26.8 8.7 C 26.8 10.9 25.4 12.7 23 12.7 C 20.6 12.7 19.1 10.9 19.1 8.7 Z M 25.3 8.7 C 25.3 7.3 24.5 6 23 6 C 21.4 6 20.6 7.3 20.6 8.7 C 20.6 10.2 21.4 11.5 23 11.5 C 24.5 11.5 25.3 10.2 25.3 8.7 Z M 29 6.1 L 27.7 6.1 L 27.7 4.9 L 29 4.9 C 29 4.9 29 4.37 29 4.4 C 29 2.7 30 1.8 31.3 1.8 C 31.8 1.8 32.3 1.9 32.6 2.1 C 32.6 2.1 32.3 3.1 32.3 3.1 C 32.1 3 31.8 3 31.6 3 C 30.9 3 30.4 3.4 30.4 4.4 C 30.43 4.37 30.4 4.9 30.4 4.9 L 32 4.9 L 32 6.1 L 30.4 6.1 L 30.4 12.5 L 29 12.5 L 29 6.1 Z M 46.1 12.5 C 46.1 12.5 44.2 12.5 44.2 12.5 C 43.9 12.3 43.6 11.9 43.2 11.5 C 42.4 12.2 41.4 12.7 40.2 12.7 C 38.3 12.7 36.8 11.7 36.8 9.8 C 36.8 8.1 37.9 7.3 39.1 6.6 C 38.7 5.8 38.4 5 38.4 4.3 C 38.4 2.9 39.5 1.8 41.1 1.8 C 42.5 1.8 43.6 2.6 43.6 3.9 C 43.6 5.5 42.3 6.2 41 6.9 C 41.4 7.4 41.8 7.9 42.1 8.3 C 42.5 8.8 42.9 9.2 43.2 9.6 C 43.8 8.8 44.2 7.9 44.3 7.3 C 44.3 7.3 45.5 7.8 45.5 7.8 C 45.2 8.7 44.7 9.6 44.1 10.5 C 44.7 11.2 45.4 11.8 46.1 12.5 Z M 40.4 6 C 41.5 5.5 42.3 5 42.3 4 C 42.3 3.3 41.9 2.9 41.2 2.9 C 40.4 2.9 39.8 3.5 39.8 4.3 C 39.8 4.8 40.1 5.4 40.4 6 Z M 42.4 10.7 C 41.8 10.1 41.3 9.5 41 9.1 C 40.6 8.7 40.1 8.1 39.7 7.5 C 38.9 8 38.3 8.7 38.3 9.6 C 38.3 10.9 39.3 11.6 40.3 11.6 C 41.1 11.6 41.8 11.2 42.4 10.7 Z M 52 9.8 C 52.7 10.6 53.9 11.3 55.4 11.3 C 57.1 11.3 57.7 10.5 57.7 9.7 C 57.7 8.6 56.5 8.3 55.1 7.9 C 53.4 7.5 51.5 7 51.5 4.8 C 51.5 3.1 53 1.8 55.2 1.8 C 56.8 1.8 58.1 2.3 59.1 3.3 C 59.1 3.3 58.1 4.4 58.1 4.4 C 57.3 3.6 56.2 3.2 55.1 3.2 C 53.9 3.2 53.1 3.8 53.1 4.7 C 53.1 5.7 54.2 6 55.6 6.3 C 57.3 6.7 59.3 7.3 59.3 9.5 C 59.3 11.2 58.2 12.7 55.3 12.7 C 53.4 12.7 52 12.1 51.1 11.1 C 51.1 11.1 52 9.8 52 9.8 Z M 61.1 10.8 C 61.15 10.85 61.1 6.1 61.1 6.1 L 59.9 6.1 L 59.9 4.9 L 61.1 4.9 L 61.1 2.8 L 62.6 2.8 L 62.6 4.9 L 64.1 4.9 L 64.1 6.1 L 62.6 6.1 C 62.6 6.1 62.57 10.53 62.6 10.5 C 62.6 11.1 62.8 11.5 63.3 11.5 C 63.7 11.5 64 11.3 64.1 11.2 C 64.1 11.2 64.5 12.2 64.5 12.2 C 64.2 12.5 63.7 12.7 63 12.7 C 61.8 12.7 61.1 12.1 61.1 10.8 Z M 65.7 4.9 L 67.1 4.9 C 67.1 4.9 67.15 6.05 67.1 6.1 C 67.7 5.3 68.6 4.7 69.7 4.7 C 69.7 4.7 69.7 6.1 69.7 6.1 C 69.5 6.1 69.4 6.1 69.2 6.1 C 68.5 6.1 67.5 6.6 67.1 7.2 C 67.15 7.21 67.1 12.5 67.1 12.5 L 65.7 12.5 L 65.7 4.9 Z M 76.3 11.5 C 75.7 12.1 74.7 12.7 73.5 12.7 C 71.9 12.7 71.1 11.9 71.1 10.3 C 71.09 10.29 71.1 4.9 71.1 4.9 L 72.5 4.9 C 72.5 4.9 72.52 9.82 72.5 9.8 C 72.5 11.1 73.2 11.5 74.1 11.5 C 75 11.5 75.8 11 76.3 10.4 C 76.27 10.39 76.3 4.9 76.3 4.9 L 77.7 4.9 L 77.7 12.5 L 76.3 12.5 C 76.3 12.5 76.27 11.5 76.3 11.5 Z M 83.4 4.7 C 84.8 4.7 85.7 5.3 86.3 6 C 86.3 6 85.3 6.9 85.3 6.9 C 84.9 6.3 84.2 6 83.5 6 C 82 6 81 7.1 81 8.7 C 81 10.3 82 11.5 83.5 11.5 C 84.2 11.5 84.9 11.2 85.3 10.5 C 85.3 10.5 86.3 11.4 86.3 11.4 C 85.7 12.1 84.8 12.7 83.4 12.7 C 81.1 12.7 79.5 11 79.5 8.7 C 79.5 6.4 81.1 4.7 83.4 4.7 Z M 88.1 10.8 C 88.13 10.85 88.1 6.1 88.1 6.1 L 86.9 6.1 L 86.9 4.9 L 88.1 4.9 L 88.1 2.8 L 89.6 2.8 L 89.6 4.9 L 91.1 4.9 L 91.1 6.1 L 89.6 6.1 C 89.6 6.1 89.56 10.53 89.6 10.5 C 89.6 11.1 89.8 11.5 90.3 11.5 C 90.6 11.5 90.9 11.3 91.1 11.2 C 91.1 11.2 91.4 12.2 91.4 12.2 C 91.1 12.5 90.7 12.7 90 12.7 C 88.7 12.7 88.1 12.1 88.1 10.8 Z M 97.9 11.5 C 97.3 12.1 96.3 12.7 95.1 12.7 C 93.5 12.7 92.7 11.9 92.7 10.3 C 92.71 10.29 92.7 4.9 92.7 4.9 L 94.1 4.9 C 94.1 4.9 94.13 9.82 94.1 9.8 C 94.1 11.1 94.8 11.5 95.8 11.5 C 96.6 11.5 97.5 11 97.9 10.4 C 97.88 10.39 97.9 4.9 97.9 4.9 L 99.3 4.9 L 99.3 12.5 L 97.9 12.5 C 97.9 12.5 97.88 11.5 97.9 11.5 Z M 101.6 4.9 L 103 4.9 C 103 4.9 103.01 6.05 103 6.1 C 103.6 5.3 104.5 4.7 105.5 4.7 C 105.5 4.7 105.5 6.1 105.5 6.1 C 105.4 6.1 105.2 6.1 105 6.1 C 104.3 6.1 103.3 6.6 103 7.2 C 103.01 7.21 103 12.5 103 12.5 L 101.6 12.5 L 101.6 4.9 Z M 110.3 4.7 C 112.6 4.7 114 6.5 114 8.8 C 114.05 8.83 114 9.2 114 9.2 C 114 9.2 107.98 9.18 108 9.2 C 108.1 10.5 109 11.6 110.6 11.6 C 111.4 11.6 112.3 11.2 112.9 10.7 C 112.9 10.7 113.5 11.6 113.5 11.6 C 112.8 12.3 111.7 12.7 110.4 12.7 C 108.2 12.7 106.5 11.1 106.5 8.7 C 106.5 6.5 108.1 4.7 110.3 4.7 Z M 108 8.1 C 108 8.1 112.7 8.1 112.7 8.1 C 112.6 7.1 111.9 5.9 110.3 5.9 C 108.8 5.9 108 7.1 108 8.1 Z " stroke="none" fill="#000"/>
  </g>
</svg>