<?xml version="1.0" standalone="no"?><!DOCTYPE svg PUBLIC "-//W3C//DTD SVG 1.1//EN" "http://www.w3.org/Graphics/SVG/1.1/DTD/svg11.dtd"><svg xmlns="http://www.w3.org/2000/svg" xmlns:xlink="http://www.w3.org/1999/xlink" version="1.1" width="134.3px" height="25.9px" viewBox="0 -8 134.3 25.9" style="top:-8px"><desc/><defs/><g id="Polygon48699"><path d="m79.6 3.9l4-2v.4l-3.5 1.8l3.5 1.8v.4l-4-2v-.4zm4.5 0l3.9-2v.4l-3.4 1.8L88 5.9v.4l-3.9-2v-.4zM89 1.1h.6v6h-.6v-6zm5 3.1c0-.9-.5-1.1-1.1-1.1c-.5 0-1.1.3-1.4.7c-.01.02 0 3.3 0 3.3h-.5V2.8h.5v.6c.3-.4.9-.7 1.6-.7c.8 0 1.3.4 1.3 1.4c.03-.03 0 3 0 3h-.4s-.04-2.92 0-2.9zm3.7-1.5c.8 0 1.2.3 1.6.7l-.3.3c-.4-.5-.7-.6-1.2-.6c-1 0-1.7.8-1.7 1.8c0 1.1.7 1.9 1.7 1.9c.5 0 .8-.2 1.2-.6l.3.3c-.4.4-.8.7-1.6.7c-1.2 0-2.1-1-2.1-2.3c0-1.2.9-2.2 2.1-2.2zm2.6.1h.5v.7c.4-.5.9-.8 1.5-.8v.5h-.3c-.4 0-1 .4-1.2.7v3.2h-.5V2.8zm4.7-.1c1.4 0 2.1 1 2.1 2.3c-.02-.04 0 .1 0 .1c0 0-3.65-.02-3.7 0c.1.9.7 1.7 1.7 1.7c.6 0 1.1-.2 1.5-.6l.2.3c-.4.5-1 .7-1.7.7c-1.3 0-2.2-.9-2.2-2.3c0-1.2.9-2.2 2.1-2.2zm-1.6 2h3.2c0-.7-.5-1.6-1.6-1.6c-1 0-1.5.9-1.6 1.6zm7.7 1.9c-.4.4-.9.6-1.5.6c-.8 0-1.5-.5-1.5-1.4c0-1 .7-1.5 1.5-1.5c.6 0 1.1.2 1.5.6v-.8c0-.7-.6-1-1.2-1c-.6 0-1 .2-1.4.6l-.2-.3c.4-.5.9-.7 1.6-.7c.9 0 1.6.4 1.6 1.4c.02-.05 0 3 0 3h-.4s-.05-.5 0-.5zm0-1.3c-.4-.4-.8-.6-1.4-.6c-.7 0-1.2.5-1.2 1.1c0 .6.5 1 1.2 1c.6 0 1-.1 1.4-.5v-1zm1.8.9c.3.3.8.6 1.4.6c.7 0 1.1-.3 1.1-.8c0-.6-.5-.8-1.2-.9c-.7-.2-1.5-.4-1.5-1.2c0-.7.6-1.2 1.5-1.2c.8 0 1.3.2 1.6.6l-.3.3c-.2-.3-.7-.5-1.3-.5c-.6 0-1 .3-1 .7c0 .5.5.7 1.1.8c.8.2 1.6.4 1.6 1.3c0 .7-.5 1.3-1.6 1.3c-.7 0-1.3-.2-1.7-.7l.3-.3zm6.1-3.5c1.3 0 2 1 2 2.3v.1s-3.63-.02-3.6 0c0 .9.6 1.7 1.7 1.7c.5 0 1-.2 1.4-.6l.2.3c-.4.5-.9.7-1.7.7c-1.2 0-2.1-.9-2.1-2.3c0-1.2.8-2.2 2.1-2.2zm-1.6 2h3.1c0-.7-.5-1.6-1.6-1.6c-1 0-1.5.9-1.5 1.6zm4.7 1.5c.3.3.8.6 1.4.6c.7 0 1.2-.3 1.2-.8c0-.6-.6-.8-1.2-.9c-.8-.2-1.6-.4-1.6-1.2c0-.7.6-1.2 1.6-1.2c.7 0 1.2.2 1.5.6l-.2.3c-.3-.3-.7-.5-1.3-.5c-.7 0-1.1.3-1.1.7c0 .5.5.7 1.2.8c.7.2 1.5.4 1.5 1.3c0 .7-.5 1.3-1.6 1.3c-.7 0-1.2-.2-1.7-.7l.3-.3zm3.8-.3l3.4-1.8l-3.4-1.8v-.4l3.9 2v.4l-3.9 2v-.4zm4.4 0l3.5-1.8l-3.5-1.8v-.4l4 2v.4l-4 2v-.4z" stroke="none" fill="#000"/><a xlink:href="DBF_Increases" xlink:show="new" xlink:title="&lt;&lt;Increases&gt;&gt;"><rect style="fill:transparent;" x="79" y="0" width="56" height="7"/></a></g></svg>