<?xml version="1.0" standalone="no"?>
<!DOCTYPE svg PUBLIC "-//W3C//DTD SVG 1.1//EN" "http://www.w3.org/Graphics/SVG/1.1/DTD/svg11.dtd">
<svg xmlns="http://www.w3.org/2000/svg" version="1.1" width="311px" height="67.5px" viewBox="0 -6 311 67.5" style="top:-6px">
  <desc>SUBJECT PROPERTY LEASE SUMMARY</desc>
  <defs/>
  <g id="Polygon236257">
    <path d="M 90 46.4 L 81.7 46.4 L 81.7 26.7 L 84.9 26.7 L 84.9 43.5 L 90 43.5 L 90 46.4 Z M 91.4 46.4 L 91.4 26.7 L 100.1 26.7 L 100.1 29.5 L 94.7 29.5 L 94.7 35 L 99.2 35 L 99.2 37.8 L 94.7 37.8 L 94.7 43.5 L 100.2 43.5 L 100.2 46.4 L 91.4 46.4 Z M 108.5 42 L 104.9 42 L 104.2 46.4 L 101 46.4 L 104.7 26.7 L 108.8 26.7 L 112.6 46.4 L 109.2 46.4 L 108.5 42 Z M 108.1 39.3 L 106.7 30.5 L 105.3 39.3 L 108.1 39.3 Z M 119.8 33.7 C 119.8 33.7 119.77 30.96 119.8 31 C 119.8 29.7 119.1 29.3 118.1 29.3 C 117.1 29.3 116.4 29.7 116.4 31 C 116.4 31 116.4 32.3 116.4 32.3 C 116.4 33.3 116.8 33.8 117.7 34.3 C 117.7 34.3 120 35.6 120 35.6 C 121.9 36.7 123 37.6 123 39.7 C 123 39.7 123 42.5 123 42.5 C 123 45.6 121.2 46.7 118.2 46.7 C 118.2 46.7 118.1 46.7 118.1 46.7 C 115.1 46.7 113.2 45.6 113.2 42.5 C 113.22 42.53 113.2 39.1 113.2 39.1 L 116.4 39.1 C 116.4 39.1 116.44 42.08 116.4 42.1 C 116.4 43.3 117.1 43.8 118.1 43.8 C 119.1 43.8 119.8 43.3 119.8 42.1 C 119.8 42.1 119.8 40.5 119.8 40.5 C 119.8 39.5 119.5 39 118.5 38.5 C 118.5 38.5 116.2 37.2 116.2 37.2 C 114.3 36.1 113.2 35.2 113.2 33.1 C 113.2 33.1 113.2 30.5 113.2 30.5 C 113.2 27.6 115.4 26.4 118.1 26.4 C 118.1 26.4 118.1 26.4 118.1 26.4 C 120.8 26.4 123 27.6 123 30.5 C 122.99 30.5 123 33.7 123 33.7 L 119.8 33.7 Z M 125.1 46.4 L 125.1 26.7 L 133.8 26.7 L 133.8 29.5 L 128.4 29.5 L 128.4 35 L 132.9 35 L 132.9 37.8 L 128.4 37.8 L 128.4 43.5 L 133.9 43.5 L 133.9 46.4 L 125.1 46.4 Z M 146.3 33.7 C 146.3 33.7 146.31 30.96 146.3 31 C 146.3 29.7 145.6 29.3 144.6 29.3 C 143.7 29.3 143 29.7 143 31 C 143 31 143 32.3 143 32.3 C 143 33.3 143.3 33.8 144.2 34.3 C 144.2 34.3 146.6 35.6 146.6 35.6 C 148.5 36.7 149.6 37.6 149.6 39.7 C 149.6 39.7 149.6 42.5 149.6 42.5 C 149.6 45.6 147.7 46.7 144.7 46.7 C 144.7 46.7 144.6 46.7 144.6 46.7 C 141.7 46.7 139.8 45.6 139.8 42.5 C 139.76 42.53 139.8 39.1 139.8 39.1 L 143 39.1 C 143 39.1 142.98 42.08 143 42.1 C 143 43.3 143.7 43.8 144.7 43.8 C 145.7 43.8 146.4 43.3 146.4 42.1 C 146.4 42.1 146.4 40.5 146.4 40.5 C 146.4 39.5 146.1 39 145.1 38.5 C 145.1 38.5 142.8 37.2 142.8 37.2 C 140.9 36.1 139.8 35.2 139.8 33.1 C 139.8 33.1 139.8 30.5 139.8 30.5 C 139.8 27.6 141.9 26.4 144.6 26.4 C 144.6 26.4 144.7 26.4 144.7 26.4 C 147.4 26.4 149.5 27.6 149.5 30.5 C 149.53 30.5 149.5 33.7 149.5 33.7 L 146.3 33.7 Z M 161.6 42.5 C 161.6 45.5 159.6 46.7 156.6 46.7 C 156.6 46.7 156.5 46.7 156.5 46.7 C 153.5 46.7 151.6 45.6 151.6 42.5 C 151.62 42.48 151.6 26.7 151.6 26.7 L 154.9 26.7 C 154.9 26.7 154.89 41.97 154.9 42 C 154.9 43.4 155.5 43.8 156.6 43.8 C 157.7 43.8 158.3 43.4 158.3 42 C 158.28 41.97 158.3 26.7 158.3 26.7 L 161.6 26.7 C 161.6 26.7 161.56 42.48 161.6 42.5 Z M 171.9 43.5 L 170.1 43.5 L 167.1 34.3 L 167.1 46.4 L 164 46.4 L 164 26.7 L 167.1 26.7 L 171 38.2 L 174.8 26.7 L 178 26.7 L 178 46.4 L 174.9 46.4 L 174.9 34.3 L 171.9 43.5 Z M 188.4 43.5 L 186.6 43.5 L 183.6 34.3 L 183.6 46.4 L 180.6 46.4 L 180.6 26.7 L 183.7 26.7 L 187.5 38.2 L 191.3 26.7 L 194.5 26.7 L 194.5 46.4 L 191.4 46.4 L 191.4 34.3 L 188.4 43.5 Z M 203.4 42 L 199.8 42 L 199.1 46.4 L 195.9 46.4 L 199.6 26.7 L 203.7 26.7 L 207.4 46.4 L 204.1 46.4 L 203.4 42 Z M 202.9 39.3 L 201.6 30.5 L 200.2 39.3 L 202.9 39.3 Z M 216.2 46.4 L 213.7 38.6 L 212 38.6 L 212 46.4 L 208.8 46.4 L 208.8 26.7 C 208.8 26.7 213.88 26.66 213.9 26.7 C 216.9 26.7 218.8 27.9 218.8 30.8 C 218.8 30.8 218.8 34.4 218.8 34.4 C 218.8 36.3 218.1 37.5 216.7 38 C 216.7 38.04 219.5 46.4 219.5 46.4 L 216.2 46.4 Z M 212 35.7 C 212 35.7 213.76 35.73 213.8 35.7 C 214.8 35.7 215.6 35.3 215.6 33.9 C 215.6 33.9 215.6 31.4 215.6 31.4 C 215.6 29.9 214.8 29.5 213.8 29.5 C 213.76 29.54 212 29.5 212 29.5 L 212 35.7 Z M 226.8 46.4 L 223.6 46.4 L 223.6 39.4 L 219.6 26.7 L 223 26.7 L 225.2 35.8 L 227.4 26.7 L 230.8 26.7 L 226.8 39.4 L 226.8 46.4 Z " stroke="none" fill="#282828"/>
  </g>
  <g id="Polygon236256">
    <path d="M 83 9.8 C 83.7 10.6 84.8 11.3 86.3 11.3 C 88 11.3 88.6 10.5 88.6 9.7 C 88.6 8.6 87.4 8.3 86.1 7.9 C 84.4 7.5 82.4 7 82.4 4.8 C 82.4 3.1 83.9 1.8 86.2 1.8 C 87.8 1.8 89.1 2.3 90 3.3 C 90 3.3 89.1 4.4 89.1 4.4 C 88.3 3.6 87.2 3.2 86 3.2 C 84.9 3.2 84 3.8 84 4.7 C 84 5.7 85.2 6 86.5 6.3 C 88.2 6.7 90.3 7.3 90.3 9.5 C 90.3 11.2 89.1 12.7 86.3 12.7 C 84.4 12.7 83 12.1 82.1 11.1 C 82.1 11.1 83 9.8 83 9.8 Z M 91.9 2 L 93.5 2 C 93.5 2 93.54 8.36 93.5 8.4 C 93.5 10.2 94.5 11.3 96.4 11.3 C 98.3 11.3 99.2 10.2 99.2 8.4 C 99.25 8.36 99.2 2 99.2 2 L 100.8 2 C 100.8 2 100.85 8.39 100.8 8.4 C 100.8 11 99.4 12.7 96.4 12.7 C 93.4 12.7 91.9 11 91.9 8.4 C 91.94 8.4 91.9 2 91.9 2 Z M 103.1 2 C 103.1 2 108.03 1.95 108 2 C 109.9 2 111 3.1 111 4.7 C 111 6 110.1 6.9 109.2 7.1 C 110.3 7.3 111.2 8.4 111.2 9.7 C 111.2 11.4 110.1 12.5 108.2 12.5 C 108.16 12.55 103.1 12.5 103.1 12.5 L 103.1 2 Z M 107.7 6.4 C 108.8 6.4 109.4 5.8 109.4 4.9 C 109.4 4 108.8 3.4 107.7 3.4 C 107.73 3.35 104.6 3.4 104.6 3.4 L 104.6 6.4 C 104.6 6.4 107.73 6.45 107.7 6.4 Z M 107.8 11.2 C 108.9 11.2 109.6 10.5 109.6 9.5 C 109.6 8.6 109 7.8 107.8 7.8 C 107.81 7.84 104.6 7.8 104.6 7.8 L 104.6 11.2 C 104.6 11.2 107.81 11.15 107.8 11.2 Z M 112.8 10.4 C 113.2 10.9 113.8 11.3 114.7 11.3 C 115.9 11.3 116.7 10.5 116.7 9.3 C 116.67 9.26 116.7 2 116.7 2 L 118.3 2 C 118.3 2 118.26 9.28 118.3 9.3 C 118.3 11.6 116.8 12.7 114.8 12.7 C 113.7 12.7 112.7 12.4 112 11.6 C 112 11.6 112.8 10.4 112.8 10.4 Z M 120.5 2 L 127.6 2 L 127.6 3.4 L 122.1 3.4 L 122.1 6.4 L 127.5 6.4 L 127.5 7.8 L 122.1 7.8 L 122.1 11.2 L 127.6 11.2 L 127.6 12.5 L 120.5 12.5 L 120.5 2 Z M 129 7.3 C 129 4 131.4 1.8 134.4 1.8 C 136.5 1.8 137.8 2.8 138.6 4 C 138.6 4 137.3 4.7 137.3 4.7 C 136.7 3.8 135.6 3.2 134.4 3.2 C 132.2 3.2 130.6 4.9 130.6 7.3 C 130.6 9.6 132.2 11.3 134.4 11.3 C 135.6 11.3 136.7 10.7 137.3 9.8 C 137.3 9.8 138.6 10.5 138.6 10.5 C 137.8 11.7 136.5 12.7 134.4 12.7 C 131.4 12.7 129 10.5 129 7.3 Z M 142.6 3.4 L 139.3 3.4 L 139.3 2 L 147.5 2 L 147.5 3.4 L 144.2 3.4 L 144.2 12.5 L 142.6 12.5 L 142.6 3.4 Z M 152.9 2 C 152.9 2 157.37 1.95 157.4 2 C 159.6 2 160.8 3.4 160.8 5.2 C 160.8 7 159.5 8.5 157.4 8.5 C 157.37 8.46 154.5 8.5 154.5 8.5 L 154.5 12.5 L 152.9 12.5 L 152.9 2 Z M 157.2 3.4 C 157.17 3.35 154.5 3.4 154.5 3.4 L 154.5 7.1 C 154.5 7.1 157.17 7.07 157.2 7.1 C 158.3 7.1 159.1 6.3 159.1 5.2 C 159.1 4.1 158.3 3.4 157.2 3.4 Z M 165.8 8.5 L 163.8 8.5 L 163.8 12.5 L 162.2 12.5 L 162.2 2 C 162.2 2 166.7 1.95 166.7 2 C 168.7 2 170.1 3.3 170.1 5.2 C 170.1 7.1 168.8 8.1 167.5 8.3 C 167.46 8.31 170.2 12.5 170.2 12.5 L 168.3 12.5 L 165.8 8.5 Z M 166.5 3.4 C 166.49 3.35 163.8 3.4 163.8 3.4 L 163.8 7.1 C 163.8 7.1 166.49 7.07 166.5 7.1 C 167.6 7.1 168.5 6.3 168.5 5.2 C 168.5 4.1 167.6 3.4 166.5 3.4 Z M 176.8 1.8 C 179.9 1.8 182.1 4.1 182.1 7.3 C 182.1 10.4 179.9 12.7 176.8 12.7 C 173.6 12.7 171.4 10.4 171.4 7.3 C 171.4 4.1 173.6 1.8 176.8 1.8 Z M 176.8 3.2 C 174.5 3.2 173.1 4.9 173.1 7.3 C 173.1 9.6 174.5 11.3 176.8 11.3 C 179 11.3 180.5 9.6 180.5 7.3 C 180.5 4.9 179 3.2 176.8 3.2 Z M 183.9 2 C 183.9 2 188.34 1.95 188.3 2 C 190.5 2 191.7 3.4 191.7 5.2 C 191.7 7 190.5 8.5 188.3 8.5 C 188.34 8.46 185.5 8.5 185.5 8.5 L 185.5 12.5 L 183.9 12.5 L 183.9 2 Z M 188.1 3.4 C 188.14 3.35 185.5 3.4 185.5 3.4 L 185.5 7.1 C 185.5 7.1 188.14 7.07 188.1 7.1 C 189.3 7.1 190.1 6.3 190.1 5.2 C 190.1 4.1 189.3 3.4 188.1 3.4 Z M 193.2 2 L 200.3 2 L 200.3 3.4 L 194.8 3.4 L 194.8 6.4 L 200.2 6.4 L 200.2 7.8 L 194.8 7.8 L 194.8 11.2 L 200.3 11.2 L 200.3 12.5 L 193.2 12.5 L 193.2 2 Z M 205.7 8.5 L 203.7 8.5 L 203.7 12.5 L 202.1 12.5 L 202.1 2 C 202.1 2 206.61 1.95 206.6 2 C 208.6 2 210 3.3 210 5.2 C 210 7.1 208.7 8.1 207.4 8.3 C 207.37 8.31 210.1 12.5 210.1 12.5 L 208.2 12.5 L 205.7 8.5 Z M 206.4 3.4 C 206.4 3.35 203.7 3.4 203.7 3.4 L 203.7 7.1 C 203.7 7.1 206.4 7.07 206.4 7.1 C 207.5 7.1 208.4 6.3 208.4 5.2 C 208.4 4.1 207.5 3.4 206.4 3.4 Z M 214.2 3.4 L 210.9 3.4 L 210.9 2 L 219.1 2 L 219.1 3.4 L 215.8 3.4 L 215.8 12.5 L 214.2 12.5 L 214.2 3.4 Z M 223.6 8.1 L 219.5 2 L 221.3 2 L 224.4 6.7 L 227.5 2 L 229.4 2 L 225.2 8.1 L 225.2 12.5 L 223.6 12.5 L 223.6 8.1 Z " stroke="none" fill="#3797ef"/>
  </g>
</svg>