<?xml version="1.0" standalone="no"?>
<!DOCTYPE svg PUBLIC "-//W3C//DTD SVG 1.1//EN" "http://www.w3.org/Graphics/SVG/1.1/DTD/svg11.dtd">
<svg xmlns="http://www.w3.org/2000/svg" version="1.1" width="172px" height="16.9px" viewBox="0 -4 172 16.9" style="top:-4px">
  <desc>12345 STREET ADDRESS, CITY, STATE ZIP</desc>
  <defs/>
  <g id="Polygon203049">
    <path d="M 5.4 2.3 L 4.4 3.3 L 3.9 2.8 L 5.5 1.1 L 6.3 1.1 L 6.3 7.1 L 5.4 7.1 L 5.4 2.3 Z M 7.4 6.4 C 9.7 4.7 10.7 3.8 10.7 2.8 C 10.7 2.1 10.1 1.8 9.6 1.8 C 8.9 1.8 8.3 2.1 7.9 2.6 C 7.9 2.6 7.4 2 7.4 2 C 7.9 1.4 8.7 1 9.6 1 C 10.6 1 11.6 1.6 11.6 2.8 C 11.6 4 10.5 5 8.9 6.3 C 8.88 6.32 11.7 6.3 11.7 6.3 L 11.7 7.1 L 7.4 7.1 C 7.4 7.1 7.45 6.4 7.4 6.4 Z M 13 5.7 C 13.4 6.1 14 6.4 14.7 6.4 C 15.5 6.4 16 6 16 5.4 C 16 4.7 15.5 4.4 14.6 4.4 C 14.4 4.4 14.1 4.4 14 4.5 C 14 4.5 14 3.6 14 3.6 C 14.1 3.6 14.4 3.6 14.6 3.6 C 15.3 3.6 15.9 3.4 15.9 2.8 C 15.9 2.1 15.4 1.8 14.7 1.8 C 14 1.8 13.5 2.1 13.1 2.5 C 13.1 2.5 12.6 2 12.6 2 C 13.1 1.4 13.8 1 14.7 1 C 16 1 16.8 1.6 16.8 2.6 C 16.8 3.5 16.1 3.9 15.5 4 C 16.1 4.1 16.9 4.5 16.9 5.5 C 16.9 6.5 16.1 7.2 14.7 7.2 C 13.7 7.2 12.9 6.8 12.5 6.2 C 12.5 6.2 13 5.7 13 5.7 Z M 20.5 5.7 L 17.7 5.7 L 17.7 4.9 L 20.2 1.1 L 21.4 1.1 L 21.4 4.9 L 22.2 4.9 L 22.2 5.7 L 21.4 5.7 L 21.4 7.1 L 20.5 7.1 L 20.5 5.7 Z M 18.5 4.9 L 20.5 4.9 L 20.5 1.9 L 18.5 4.9 Z M 23.6 5.7 C 24 6.1 24.5 6.4 25.2 6.4 C 26 6.4 26.5 5.9 26.5 5.2 C 26.5 4.5 26 4.1 25.2 4.1 C 24.7 4.1 24.3 4.2 23.9 4.6 C 23.89 4.61 23.2 4.4 23.2 4.4 L 23.2 1.1 L 27 1.1 L 27 1.9 L 24.1 1.9 C 24.1 1.9 24.14 3.82 24.1 3.8 C 24.4 3.5 24.9 3.3 25.5 3.3 C 26.5 3.3 27.4 4 27.4 5.2 C 27.4 6.4 26.5 7.2 25.2 7.2 C 24.2 7.2 23.5 6.9 23.1 6.3 C 23.1 6.3 23.6 5.7 23.6 5.7 Z M 31 5.6 C 31.4 6 32 6.4 32.9 6.4 C 33.9 6.4 34.2 5.9 34.2 5.5 C 34.2 4.9 33.5 4.7 32.7 4.5 C 31.8 4.2 30.7 4 30.7 2.7 C 30.7 1.7 31.5 1 32.8 1 C 33.7 1 34.4 1.3 35 1.9 C 35 1.9 34.5 2.5 34.5 2.5 C 34 2 33.4 1.8 32.7 1.8 C 32.1 1.8 31.6 2.2 31.6 2.7 C 31.6 3.2 32.2 3.4 33 3.6 C 34 3.8 35.1 4.1 35.1 5.4 C 35.1 6.3 34.5 7.2 32.8 7.2 C 31.8 7.2 31 6.8 30.5 6.3 C 30.5 6.3 31 5.6 31 5.6 Z M 37.6 1.9 L 35.7 1.9 L 35.7 1.1 L 40.3 1.1 L 40.3 1.9 L 38.4 1.9 L 38.4 7.1 L 37.6 7.1 L 37.6 1.9 Z M 43.3 4.8 L 42.1 4.8 L 42.1 7.1 L 41.2 7.1 L 41.2 1.1 C 41.2 1.1 43.77 1.11 43.8 1.1 C 44.9 1.1 45.7 1.8 45.7 3 C 45.7 4 45 4.6 44.2 4.7 C 44.2 4.71 45.7 7.1 45.7 7.1 L 44.7 7.1 L 43.3 4.8 Z M 43.7 1.9 C 43.65 1.9 42.1 1.9 42.1 1.9 L 42.1 4 C 42.1 4 43.65 4.01 43.7 4 C 44.3 4 44.8 3.6 44.8 3 C 44.8 2.3 44.3 1.9 43.7 1.9 Z M 46.8 1.1 L 50.8 1.1 L 50.8 1.9 L 47.7 1.9 L 47.7 3.7 L 50.8 3.7 L 50.8 4.4 L 47.7 4.4 L 47.7 6.3 L 50.8 6.3 L 50.8 7.1 L 46.8 7.1 L 46.8 1.1 Z M 52 1.1 L 56 1.1 L 56 1.9 L 52.9 1.9 L 52.9 3.7 L 55.9 3.7 L 55.9 4.4 L 52.9 4.4 L 52.9 6.3 L 56 6.3 L 56 7.1 L 52 7.1 L 52 1.1 Z M 58.6 1.9 L 56.7 1.9 L 56.7 1.1 L 61.3 1.1 L 61.3 1.9 L 59.5 1.9 L 59.5 7.1 L 58.6 7.1 L 58.6 1.9 Z M 68.4 5.9 L 65.5 5.9 L 65 7.1 L 64 7.1 L 66.4 1.1 L 67.5 1.1 L 69.9 7.1 L 68.9 7.1 L 68.4 5.9 Z M 65.7 5.1 L 68.1 5.1 L 66.9 1.9 L 65.7 5.1 Z M 70.6 1.1 C 70.6 1.1 72.73 1.11 72.7 1.1 C 74.6 1.1 75.8 2.4 75.8 4.1 C 75.8 5.9 74.6 7.1 72.7 7.1 C 72.73 7.11 70.6 7.1 70.6 7.1 L 70.6 1.1 Z M 72.7 6.3 C 74.1 6.3 74.9 5.3 74.9 4.1 C 74.9 2.9 74.1 1.9 72.7 1.9 C 72.73 1.9 71.5 1.9 71.5 1.9 L 71.5 6.3 C 71.5 6.3 72.73 6.32 72.7 6.3 Z M 76.9 1.1 C 76.9 1.1 79.08 1.11 79.1 1.1 C 80.9 1.1 82.2 2.4 82.2 4.1 C 82.2 5.9 80.9 7.1 79.1 7.1 C 79.08 7.11 76.9 7.1 76.9 7.1 L 76.9 1.1 Z M 79.1 6.3 C 80.5 6.3 81.3 5.3 81.3 4.1 C 81.3 2.9 80.5 1.9 79.1 1.9 C 79.08 1.9 77.8 1.9 77.8 1.9 L 77.8 6.3 C 77.8 6.3 79.08 6.32 79.1 6.3 Z M 85.3 4.8 L 84.2 4.8 L 84.2 7.1 L 83.3 7.1 L 83.3 1.1 C 83.3 1.1 85.81 1.11 85.8 1.1 C 87 1.1 87.7 1.8 87.7 3 C 87.7 4 87 4.6 86.2 4.7 C 86.24 4.71 87.8 7.1 87.8 7.1 L 86.7 7.1 L 85.3 4.8 Z M 85.7 1.9 C 85.69 1.9 84.2 1.9 84.2 1.9 L 84.2 4 C 84.2 4 85.69 4.01 85.7 4 C 86.3 4 86.8 3.6 86.8 3 C 86.8 2.3 86.3 1.9 85.7 1.9 Z M 88.8 1.1 L 92.9 1.1 L 92.9 1.9 L 89.7 1.9 L 89.7 3.7 L 92.8 3.7 L 92.8 4.4 L 89.7 4.4 L 89.7 6.3 L 92.9 6.3 L 92.9 7.1 L 88.8 7.1 L 88.8 1.1 Z M 94.1 5.6 C 94.5 6 95.2 6.4 96 6.4 C 97 6.4 97.3 5.9 97.3 5.5 C 97.3 4.9 96.7 4.7 95.9 4.5 C 94.9 4.2 93.8 4 93.8 2.7 C 93.8 1.7 94.7 1 95.9 1 C 96.9 1 97.6 1.3 98.1 1.9 C 98.1 1.9 97.6 2.5 97.6 2.5 C 97.1 2 96.5 1.8 95.9 1.8 C 95.2 1.8 94.7 2.2 94.7 2.7 C 94.7 3.2 95.4 3.4 96.1 3.6 C 97.1 3.8 98.3 4.1 98.3 5.4 C 98.3 6.3 97.6 7.2 96 7.2 C 94.9 7.2 94.1 6.8 93.6 6.3 C 93.6 6.3 94.1 5.6 94.1 5.6 Z M 99.5 5.6 C 99.9 6 100.5 6.4 101.3 6.4 C 102.3 6.4 102.7 5.9 102.7 5.5 C 102.7 4.9 102 4.7 101.2 4.5 C 100.2 4.2 99.1 4 99.1 2.7 C 99.1 1.7 100 1 101.3 1 C 102.2 1 102.9 1.3 103.4 1.9 C 103.4 1.9 102.9 2.5 102.9 2.5 C 102.5 2 101.8 1.8 101.2 1.8 C 100.5 1.8 100.1 2.2 100.1 2.7 C 100.1 3.2 100.7 3.4 101.4 3.6 C 102.4 3.8 103.6 4.1 103.6 5.4 C 103.6 6.3 102.9 7.2 101.3 7.2 C 100.2 7.2 99.5 6.8 98.9 6.3 C 98.9 6.3 99.5 5.6 99.5 5.6 Z M 104.5 8 C 104.8 7.8 105 7.4 105.1 7.1 C 105.1 7.1 105 7.1 104.9 7.1 C 104.7 7.1 104.5 6.9 104.5 6.6 C 104.5 6.3 104.7 6.1 105 6.1 C 105.3 6.1 105.6 6.4 105.6 6.8 C 105.6 7.4 105.3 8 104.8 8.3 C 104.8 8.3 104.5 8 104.5 8 Z M 108.8 4.1 C 108.8 2.3 110.2 1 111.9 1 C 113.1 1 113.8 1.6 114.3 2.3 C 114.3 2.3 113.5 2.7 113.5 2.7 C 113.2 2.2 112.6 1.8 111.9 1.8 C 110.7 1.8 109.8 2.8 109.8 4.1 C 109.8 5.5 110.7 6.4 111.9 6.4 C 112.6 6.4 113.2 6 113.5 5.5 C 113.5 5.5 114.3 5.9 114.3 5.9 C 113.8 6.7 113.1 7.2 111.9 7.2 C 110.2 7.2 108.8 6 108.8 4.1 Z M 115.2 1.1 L 116.1 1.1 L 116.1 7.1 L 115.2 7.1 L 115.2 1.1 Z M 118.9 1.9 L 117 1.9 L 117 1.1 L 121.7 1.1 L 121.7 1.9 L 119.8 1.9 L 119.8 7.1 L 118.9 7.1 L 118.9 1.9 Z M 124.3 4.6 L 122 1.1 L 123 1.1 L 124.8 3.8 L 126.5 1.1 L 127.6 1.1 L 125.2 4.6 L 125.2 7.1 L 124.3 7.1 L 124.3 4.6 Z M 127.3 8 C 127.6 7.8 127.9 7.4 127.9 7.1 C 127.9 7.1 127.8 7.1 127.8 7.1 C 127.5 7.1 127.3 6.9 127.3 6.6 C 127.3 6.3 127.6 6.1 127.9 6.1 C 128.2 6.1 128.5 6.4 128.5 6.8 C 128.5 7.4 128.2 8 127.7 8.3 C 127.7 8.3 127.3 8 127.3 8 Z M 132.1 5.6 C 132.5 6 133.1 6.4 134 6.4 C 134.9 6.4 135.3 5.9 135.3 5.5 C 135.3 4.9 134.6 4.7 133.8 4.5 C 132.9 4.2 131.8 4 131.8 2.7 C 131.8 1.7 132.6 1 133.9 1 C 134.8 1 135.5 1.3 136.1 1.9 C 136.1 1.9 135.5 2.5 135.5 2.5 C 135.1 2 134.5 1.8 133.8 1.8 C 133.1 1.8 132.7 2.2 132.7 2.7 C 132.7 3.2 133.3 3.4 134.1 3.6 C 135.1 3.8 136.2 4.1 136.2 5.4 C 136.2 6.3 135.6 7.2 133.9 7.2 C 132.9 7.2 132.1 6.8 131.6 6.3 C 131.6 6.3 132.1 5.6 132.1 5.6 Z M 138.6 1.9 L 136.8 1.9 L 136.8 1.1 L 141.4 1.1 L 141.4 1.9 L 139.5 1.9 L 139.5 7.1 L 138.6 7.1 L 138.6 1.9 Z M 145.5 5.9 L 142.6 5.9 L 142.1 7.1 L 141.1 7.1 L 143.5 1.1 L 144.6 1.1 L 147 7.1 L 146 7.1 L 145.5 5.9 Z M 142.8 5.1 L 145.3 5.1 L 144.1 1.9 L 142.8 5.1 Z M 148.6 1.9 L 146.7 1.9 L 146.7 1.1 L 151.4 1.1 L 151.4 1.9 L 149.5 1.9 L 149.5 7.1 L 148.6 7.1 L 148.6 1.9 Z M 152.3 1.1 L 156.3 1.1 L 156.3 1.9 L 153.2 1.9 L 153.2 3.7 L 156.3 3.7 L 156.3 4.4 L 153.2 4.4 L 153.2 6.3 L 156.3 6.3 L 156.3 7.1 L 152.3 7.1 L 152.3 1.1 Z M 159.5 6.4 L 162.7 1.9 L 159.5 1.9 L 159.5 1.1 L 163.9 1.1 L 163.9 1.8 L 160.7 6.3 L 164 6.3 L 164 7.1 L 159.5 7.1 L 159.5 6.4 Z M 165.1 1.1 L 166 1.1 L 166 7.1 L 165.1 7.1 L 165.1 1.1 Z M 167.3 1.1 C 167.3 1.1 169.82 1.11 169.8 1.1 C 171.1 1.1 171.7 2 171.7 3 C 171.7 4 171 4.8 169.8 4.8 C 169.82 4.8 168.2 4.8 168.2 4.8 L 168.2 7.1 L 167.3 7.1 L 167.3 1.1 Z M 169.7 1.9 C 169.71 1.9 168.2 1.9 168.2 1.9 L 168.2 4 C 168.2 4 169.71 4.01 169.7 4 C 170.4 4 170.8 3.6 170.8 3 C 170.8 2.3 170.4 1.9 169.7 1.9 Z " stroke="none" fill="#88898a"/>
  </g>
</svg>