<?xml version="1.0" standalone="no"?><!DOCTYPE svg PUBLIC "-//W3C//DTD SVG 1.1//EN" "http://www.w3.org/Graphics/SVG/1.1/DTD/svg11.dtd"><svg xmlns="http://www.w3.org/2000/svg" xmlns:xlink="http://www.w3.org/1999/xlink" version="1.1" width="104px" height="32.4px" viewBox="0 -7 104 32.4" style="top:-7px"><desc>Agent 1</desc><defs/><g id="Polygon44703"><path d="m0 6.8l7.1-3.4v1.1l-6 2.8l6 2.8v1.1L0 7.8v-1zm7.8 0l7.1-3.4v1.1L9 7.3l5.9 2.8v1.1L7.8 7.8v-1zm8.2.5c0-3.3 2.4-5.5 5.4-5.5c2.1 0 3.4 1 4.3 2.2l-1.4.8c-.6-.9-1.6-1.6-2.9-1.6c-2.1 0-3.8 1.7-3.8 4.1c0 2.4 1.7 4.1 3.8 4.1c1.3 0 2.3-.6 2.9-1.5l1.4.7c-.9 1.2-2.2 2.2-4.3 2.2c-3 0-5.4-2.2-5.4-5.5zm17.8 3.1h-5.2l-.9 2.2h-1.8L30.2 2h2l4.2 10.6h-1.7l-.9-2.2zM29 9h4.3l-2.1-5.6L29 9zm8.5-7s4.53-.03 4.5 0c2.2 0 3.4 1.5 3.4 3.2c0 1.8-1.2 3.3-3.4 3.3c.03.03-2.9 0-2.9 0v4.1h-1.6V2zm4.3 1.4c.02-.02-2.7 0-2.7 0v3.7s2.72.02 2.7 0c1.2 0 2-.7 2-1.9c0-1.1-.8-1.8-2-1.8z" stroke="none" fill="#282828"/><a xlink:href="DBF_CAP%20Rate" xlink:show="new" xlink:title="&lt;&lt;CAP Rate&gt;&gt;"><rect style="fill:transparent;" x="-1" y="1" width="46" height="12"/></a></g></svg>