<?xml version="1.0" standalone="no"?><!DOCTYPE svg PUBLIC "-//W3C//DTD SVG 1.1//EN" "http://www.w3.org/Graphics/SVG/1.1/DTD/svg11.dtd"><svg xmlns="http://www.w3.org/2000/svg" version="1.1" width="198.3px" height="42.3px" viewBox="0 -1 198.3 42.3" style="top:-1px"><desc>SUBMIT OFFER</desc><defs/><g id="Polygon116399"><path d="m45.8 22c.7.8 1.8 1.5 3.3 1.5c1.7 0 2.3-.9 2.3-1.7c0-1.1-1.2-1.4-2.6-1.7c-1.7-.5-3.6-1-3.6-3.1c0-1.8 1.5-3.1 3.7-3.1c1.7 0 2.9.6 3.9 1.5l-.9 1.2c-.8-.9-2-1.2-3.1-1.2c-1.2 0-2 .6-2 1.5c0 .9 1.2 1.2 2.5 1.5c1.7.5 3.7 1 3.7 3.3c0 1.6-1.1 3.2-4 3.2c-1.9 0-3.2-.7-4.2-1.7l1-1.2zm9.1-7.9h1.6s-.03 6.41 0 6.4c0 1.8 1 3 2.8 3c1.9 0 2.9-1.2 2.9-3c-.03.01 0-6.4 0-6.4h1.6s-.03 6.44 0 6.4c0 2.7-1.5 4.4-4.5 4.4c-2.9 0-4.4-1.7-4.4-4.3c-.03-.05 0-6.5 0-6.5zm11.2 0s5.01.01 5 0c1.9 0 3 1.2 3 2.7c0 1.3-.9 2.2-1.8 2.4c1.1.2 2 1.4 2 2.6c0 1.7-1.1 2.9-3.1 2.9h-5.1V14.1zm4.7 4.5c1.1 0 1.7-.7 1.7-1.5c0-.9-.6-1.6-1.7-1.6h-3.1v3.1h3.1zm.1 4.7c1.1 0 1.8-.6 1.8-1.7c0-.8-.6-1.6-1.8-1.6h-3.2v3.3h3.2zm14.5-7L82 24.7h-.7l-3.4-8.4v8.4h-1.6V14.1h2.2l3.1 7.6l3.1-7.6h2.3v10.6h-1.6v-8.4zm3.9-2.2h1.6v10.6h-1.6V14.1zm6.6 1.4h-3.3v-1.4h8.1v1.4h-3.2v9.2h-1.6v-9.2zm15.5-1.6c3.1 0 5.3 2.4 5.3 5.5c0 3.2-2.2 5.5-5.3 5.5c-3.2 0-5.4-2.3-5.4-5.5c0-3.1 2.2-5.5 5.4-5.5zm0 1.4c-2.3 0-3.7 1.8-3.7 4.1c0 2.3 1.4 4.1 3.7 4.1c2.2 0 3.7-1.8 3.7-4.1c0-2.3-1.5-4.1-3.7-4.1zm7.2-1.2h7.1v1.4h-5.5v3.1h5.4v1.4h-5.4v4.7h-1.6V14.1zm8.9 0h7.1v1.4H129v3.1h5.5v1.4H129v4.7h-1.5V14.1zm8.8 0h7.1v1.4h-5.5v3.1h5.4v1.4h-5.4v3.3h5.5v1.4h-7.1V14.1zm12.7 6.5h-2v4.1h-1.6V14.1s4.44.01 4.4 0c2.1 0 3.4 1.3 3.4 3.3c0 1.9-1.2 2.9-2.6 3.1c.01-.04 2.7 4.2 2.7 4.2h-1.8l-2.5-4.1zm.6-5.1H147v3.7s2.64.02 2.6 0c1.2 0 2-.7 2-1.8c0-1.2-.8-1.9-2-1.9z" stroke="none" fill="#ffffff"/></g></svg>