<?xml version="1.0" standalone="no"?><!DOCTYPE svg PUBLIC "-//W3C//DTD SVG 1.1//EN" "http://www.w3.org/Graphics/SVG/1.1/DTD/svg11.dtd"><svg xmlns="http://www.w3.org/2000/svg" version="1.1" width="31.5px" height="21.5px" viewBox="0 -4 31.5 21.5" style="top:-4px"><desc>1-Mile</desc><defs/><g id="Polygon78314"><path d="m3 3.7L1.7 5l-1-1l2.5-2.5h1.5v8H3V3.7zm2.8 2.2h2.8v1.3H5.8V5.9zm10.8-2.2l-2.2 5.8h-.8l-2.2-5.8v5.8H9.7v-8h2.4l1.9 5l2-5h2.4v8h-1.8V3.7zm3-1.8c0-.5.4-.9.9-.9c.5 0 .9.4.9.9c0 .5-.4.9-.9.9c-.5 0-.9-.4-.9-.9zm.2 1.8h1.5v5.8h-1.5V3.7zm2.9-2.2h1.5v8h-1.5v-8zm5.5 2c1.8 0 2.9 1.3 2.9 3.2c.04.03 0 .4 0 .4c0 0-4.26-.03-4.3 0c.1.7.7 1.3 1.7 1.3c.5 0 1.2-.2 1.6-.6l.6 1c-.6.5-1.5.8-2.4.8c-1.7 0-3.1-1.2-3.1-3c0-1.7 1.3-3.1 3-3.1zM26.8 6h2.9c-.1-.5-.5-1.2-1.5-1.2c-.9 0-1.3.7-1.4 1.2z" stroke="none" fill="#282828"/></g></svg>