<?xml version="1.0" standalone="no"?><!DOCTYPE svg PUBLIC "-//W3C//DTD SVG 1.1//EN" "http://www.w3.org/Graphics/SVG/1.1/DTD/svg11.dtd"><svg xmlns="http://www.w3.org/2000/svg" version="1.1" width="190px" height="27.3px" viewBox="0 -6 190 27.3" style="top:-6px"><desc>8 41%</desc><defs/><g id="Polygon101423"><path d="m156.1 7.1c-1.2-.3-2.4-1.2-2.4-2.6c0-1.8 1.7-2.7 3.4-2.7c1.6 0 3.4.9 3.4 2.7c0 1.4-1.2 2.3-2.4 2.6c1.3.4 2.6 1.3 2.6 2.8c0 1.7-1.6 2.8-3.6 2.8c-2.1 0-3.6-1.1-3.6-2.8c0-1.5 1.3-2.4 2.6-2.8zm1-4.5c-1.4 0-2.5.8-2.5 2c0 1.5 1.9 2 2.5 2.1c.6-.1 2.5-.6 2.5-2.1c0-1.2-1.1-2-2.5-2zm0 4.9c-.7.1-2.7.7-2.7 2.3c0 1.3 1.3 2.1 2.7 2.1c1.4 0 2.7-.8 2.7-2.1c0-1.6-2.1-2.2-2.7-2.3zm6.3 3.8c.3 0 .7.3.7.7c0 .4-.4.7-.7.7c-.4 0-.7-.3-.7-.7c0-.4.3-.7.7-.7zm7.3-1.6h-5v-.9l4.7-6.8h1.2v6.8h1.5v.9h-1.5v2.8h-.9V9.7zm-4.1-.9h4.1V2.9l-4.1 5.9zm9.8-5.6L174.7 5l-.6-.6l2.3-2.4h.9v10.5h-.9V3.2zm5.2-1.4c1.5 0 2.5 1.1 2.5 2.6c0 1.5-1 2.6-2.5 2.6c-1.5 0-2.5-1.1-2.5-2.6c0-1.5 1-2.6 2.5-2.6zm5.8.2h.7l-6.8 10.5h-.7L187.4 2zm-5.8.4c-1 0-1.7.9-1.7 2c0 1.1.7 2 1.7 2c1 0 1.8-.9 1.8-2c0-1.1-.8-2-1.8-2zm5.4 5.1c1.5 0 2.5 1.2 2.5 2.6c0 1.5-1 2.6-2.5 2.6c-1.5 0-2.5-1.1-2.5-2.6c0-1.4 1-2.6 2.5-2.6zm0 .7c-1 0-1.8.9-1.8 1.9c0 1.1.8 2 1.8 2c1 0 1.7-.9 1.7-2c0-1-.7-1.9-1.7-1.9z" stroke="none" fill="#000"/></g></svg>