<?xml version="1.0" standalone="no"?><!DOCTYPE svg PUBLIC "-//W3C//DTD SVG 1.1//EN" "http://www.w3.org/Graphics/SVG/1.1/DTD/svg11.dtd"><svg xmlns="http://www.w3.org/2000/svg" version="1.1" width="220.1px" height="47.5px" viewBox="0 -6 220.1 47.5" style="top:-6px"><desc>RETAIL AERIAL</desc><defs/><g id="Polygon286602"><path d="m5 31.7l-1.4-4.5h-.9v4.5H.8V20.5s2.9-.02 2.9 0c1.7 0 2.8.7 2.8 2.3v2c0 1.1-.4 1.8-1.2 2.1l1.6 4.8H5zm-2.3-6.1s.93.02.9 0c.6 0 1.1-.2 1.1-1v-1.5c0-.8-.5-1-1.1-1c.03.01-.9 0-.9 0v3.5zm5.2 6.1V20.5h4.9v1.6H9.7v3.1h2.6v1.6H9.7v3.2h3.1v1.7H7.9zm11-9.6h-1.8v9.6h-1.9v-9.6h-1.9v-1.6h5.6v1.6zm3.7 7.1h-2.1l-.4 2.5h-1.7l2-11.2h2.4l2.1 11.2H23l-.4-2.5zm-.2-1.6l-.8-4.9l-.8 4.9h1.6zm3.3 4.1V20.5h1.9v11.2h-1.9zm8.1 0h-4.7V20.5h1.8v9.5h2.9v1.7zm6.5-2.5h-2.1l-.4 2.5H36l2.1-11.2h2.3l2.2 11.2h-1.9l-.4-2.5zm-.3-1.6l-.8-4.9l-.7 4.9h1.5zm3.3 4.1V20.5h4.9v1.6h-3v3.1h2.5v1.6h-2.5v3.2h3.1v1.7h-5zm10.3 0l-1.4-4.5h-.9v4.5h-1.9V20.5s2.94-.02 2.9 0c1.7 0 2.9.7 2.9 2.3v2c0 1.1-.5 1.8-1.3 2.1c.04.03 1.6 4.8 1.6 4.8h-1.9zm-2.3-6.1s.97.02 1 0c.6 0 1-.2 1-1v-1.5c0-.8-.4-1-1-1h-1v3.5zm5.3 6.1V20.5h1.8v11.2h-1.8zm6.9-2.5h-2.1l-.4 2.5h-1.8l2.1-11.2h2.4l2.1 11.2h-1.9l-.4-2.5zm-.3-1.6l-.7-4.9l-.8 4.9h1.5zm8.1 4.1h-4.8V20.5h1.9v9.5h2.9v1.7z" stroke="none" fill="#282828"/></g></svg>