<?xml version="1.0" standalone="no"?><!DOCTYPE svg PUBLIC "-//W3C//DTD SVG 1.1//EN" "http://www.w3.org/Graphics/SVG/1.1/DTD/svg11.dtd"><svg xmlns="http://www.w3.org/2000/svg" version="1.1" width="125.4px" height="27.3px" viewBox="0 -6 125.4 27.3" style="top:-6px"><desc>9 56%</desc><defs/><g id="Polygon111804"><path d="m85.2 10.7c.6.7 1.2 1.2 2.4 1.2c2.3 0 3.1-2.4 3.1-4.7v-.5c-.5.8-1.7 1.8-3.1 1.8c-1.9 0-3.4-1.1-3.4-3.3c0-1.8 1.3-3.4 3.5-3.4c2.9 0 3.9 2.6 3.9 5.5c0 2.7-1.1 5.4-4 5.4c-1.4 0-2.3-.5-2.9-1.3l.5-.7zm2.6-8.1c-1.8 0-2.7 1.4-2.7 2.5c0 1.8 1.1 2.6 2.6 2.6c1.2 0 2.3-.7 2.9-1.8c-.1-1.5-.9-3.3-2.8-3.3zm5.9 8.7c.4 0 .7.3.7.7c0 .4-.3.7-.7.7c-.4 0-.7-.3-.7-.7c0-.4.3-.7.7-.7zm3.5-.9c.7 1 1.6 1.5 3 1.5c1.5 0 2.7-1.1 2.7-2.5c0-1.7-1.2-2.6-2.7-2.6c-1 0-1.8.3-2.6 1c.04 0-.7-.3-.7-.3V2h6.2v.8h-5.2s-.04 4.12 0 4.1c.5-.5 1.4-1 2.5-1c1.8 0 3.4 1.2 3.4 3.4c0 2.1-1.7 3.4-3.6 3.4c-1.8 0-2.8-.6-3.6-1.7l.6-.6zm12.5-8.6c1.3 0 2.2.5 2.8 1.3l-.5.7c-.5-.7-1.2-1.2-2.3-1.2c-2.3 0-3.2 2.4-3.2 4.7v.5c.5-.8 1.7-1.8 3.1-1.8c2 0 3.5 1.1 3.5 3.4c0 1.7-1.3 3.3-3.6 3.3c-2.9 0-3.9-2.6-3.9-5.4c0-2.8 1.1-5.5 4.1-5.5zm-.2 5c-1.2 0-2.3.8-2.9 1.8c.1 1.5.9 3.3 2.9 3.3c1.8 0 2.6-1.4 2.6-2.5c0-1.8-1.1-2.6-2.6-2.6zm7.5-5c1.5 0 2.5 1.1 2.5 2.6c0 1.5-1 2.6-2.5 2.6c-1.5 0-2.5-1.1-2.5-2.6c0-1.5 1-2.6 2.5-2.6zm5.8.2h.7l-6.8 10.5h-.7L122.8 2zm-5.8.4c-1.1 0-1.8.9-1.8 2c0 1.1.7 2 1.8 2c1 0 1.7-.9 1.7-2c0-1.1-.7-2-1.7-2zm5.4 5.1c1.4 0 2.5 1.2 2.5 2.6c0 1.5-1.1 2.6-2.5 2.6c-1.5 0-2.5-1.1-2.5-2.6c0-1.4 1-2.6 2.5-2.6zm0 .7c-1.1 0-1.8.9-1.8 1.9c0 1.1.7 2 1.8 2c1 0 1.7-.9 1.7-2c0-1-.7-1.9-1.7-1.9z" stroke="none" fill="#000"/></g></svg>