<?xml version="1.0" standalone="no"?><!DOCTYPE svg PUBLIC "-//W3C//DTD SVG 1.1//EN" "http://www.w3.org/Graphics/SVG/1.1/DTD/svg11.dtd"><svg xmlns="http://www.w3.org/2000/svg" version="1.1" width="59.3px" height="249.9px" viewBox="0 -6 59.3 249.9" style="top:-6px"><desc>Increase 00 00% 00 00% 00 00% 00 00% 00 00% 00 00% 00 00%</desc><defs/><g id="Polygon293728"><path d="m4.8 224.1c2.9 0 4 3 4 5.5c0 2.5-1.1 5.5-4 5.5c-2.8 0-3.9-3-3.9-5.5c0-2.5 1.1-5.5 3.9-5.5zm0 .9c-2.2 0-2.9 2.4-2.9 4.6c0 2.2.7 4.7 2.9 4.7c2.3 0 3-2.5 3-4.7c0-2.2-.7-4.6-3-4.6zm9.5-.9c2.9 0 3.9 3 3.9 5.5c0 2.5-1 5.5-3.9 5.5c-2.8 0-3.9-3-3.9-5.5c0-2.5 1.1-5.5 3.9-5.5zm0 .9c-2.2 0-2.9 2.4-2.9 4.6c0 2.2.7 4.7 2.9 4.7c2.2 0 3-2.5 3-4.7c0-2.2-.7-4.6-3-4.6zm5.9 8.7c.3 0 .7.3.7.6c0 .4-.4.8-.7.8c-.4 0-.7-.4-.7-.8c0-.3.3-.6.7-.6zm6.4-9.6c2.8 0 3.9 3 3.9 5.5c0 2.5-1.1 5.5-3.9 5.5c-2.9 0-3.9-3-3.9-5.5c0-2.5 1-5.5 3.9-5.5zm0 .9c-2.3 0-3 2.4-3 4.6c0 2.2.7 4.7 3 4.7c2.2 0 2.9-2.5 2.9-4.7c0-2.2-.7-4.6-2.9-4.6zm9.5-.9c2.8 0 3.9 3 3.9 5.5c0 2.5-1.1 5.5-3.9 5.5c-2.9 0-3.9-3-3.9-5.5c0-2.5 1-5.5 3.9-5.5zm0 .9c-2.3 0-3 2.4-3 4.6c0 2.2.7 4.7 3 4.7c2.2 0 2.9-2.5 2.9-4.7c0-2.2-.7-4.6-2.9-4.6zm7.7-.9c1.4 0 2.4 1.2 2.4 2.7c0 1.4-1 2.6-2.4 2.6c-1.5 0-2.5-1.2-2.5-2.6c0-1.5 1-2.7 2.5-2.7zm5.7.2h.8l-6.8 10.6h-.7l6.7-10.6zm-5.7.5c-1.1 0-1.8.9-1.8 2c0 1 .7 1.9 1.8 1.9c1 0 1.7-.9 1.7-1.9c0-1.1-.7-2-1.7-2zm5.4 5.1c1.4 0 2.4 1.1 2.4 2.6c0 1.5-1 2.6-2.4 2.6c-1.5 0-2.5-1.1-2.5-2.6c0-1.5 1-2.6 2.5-2.6zm0 .6c-1.1 0-1.8.9-1.8 2c0 1.1.7 2 1.8 2c1 0 1.7-.9 1.7-2c0-1.1-.7-2-1.7-2z" stroke="none" fill="#242423"/></g><g id="Polygon293727"><path d="m4.8 192.4c2.9 0 4 2.9 4 5.4c0 2.6-1.1 5.5-4 5.5c-2.8 0-3.9-2.9-3.9-5.5c0-2.5 1.1-5.4 3.9-5.4zm0 .8c-2.2 0-2.9 2.5-2.9 4.6c0 2.2.7 4.7 2.9 4.7c2.3 0 3-2.5 3-4.7c0-2.1-.7-4.6-3-4.6zm9.5-.8c2.9 0 3.9 2.9 3.9 5.4c0 2.6-1 5.5-3.9 5.5c-2.8 0-3.9-2.9-3.9-5.5c0-2.5 1.1-5.4 3.9-5.4zm0 .8c-2.2 0-2.9 2.5-2.9 4.6c0 2.2.7 4.7 2.9 4.7c2.2 0 3-2.5 3-4.7c0-2.1-.7-4.6-3-4.6zm5.9 8.7c.3 0 .7.3.7.7c0 .4-.4.7-.7.7c-.4 0-.7-.3-.7-.7c0-.4.3-.7.7-.7zm6.4-9.5c2.8 0 3.9 2.9 3.9 5.4c0 2.6-1.1 5.5-3.9 5.5c-2.9 0-3.9-2.9-3.9-5.5c0-2.5 1-5.4 3.9-5.4zm0 .8c-2.3 0-3 2.5-3 4.6c0 2.2.7 4.7 3 4.7c2.2 0 2.9-2.5 2.9-4.7c0-2.1-.7-4.6-2.9-4.6zm9.5-.8c2.8 0 3.9 2.9 3.9 5.4c0 2.6-1.1 5.5-3.9 5.5c-2.9 0-3.9-2.9-3.9-5.5c0-2.5 1-5.4 3.9-5.4zm0 .8c-2.3 0-3 2.5-3 4.6c0 2.2.7 4.7 3 4.7c2.2 0 2.9-2.5 2.9-4.7c0-2.1-.7-4.6-2.9-4.6zm7.7-.8c1.4 0 2.4 1.1 2.4 2.6c0 1.5-1 2.6-2.4 2.6c-1.5 0-2.5-1.1-2.5-2.6c0-1.5 1-2.6 2.5-2.6zm5.7.1h.8l-6.8 10.6h-.7l6.7-10.6zm-5.7.5c-1.1 0-1.8.9-1.8 2c0 1.1.7 2 1.8 2c1 0 1.7-.9 1.7-2c0-1.1-.7-2-1.7-2zm5.4 5.1c1.4 0 2.4 1.1 2.4 2.6c0 1.5-1 2.6-2.4 2.6c-1.5 0-2.5-1.1-2.5-2.6c0-1.5 1-2.6 2.5-2.6zm0 .7c-1.1 0-1.8.8-1.8 1.9c0 1.1.7 2 1.8 2c1 0 1.7-.9 1.7-2c0-1.1-.7-1.9-1.7-1.9z" stroke="none" fill="#242423"/></g><g id="Polygon293726"><path d="m4.8 160.6c2.9 0 4 3 4 5.5c0 2.5-1.1 5.5-4 5.5c-2.8 0-3.9-3-3.9-5.5c0-2.5 1.1-5.5 3.9-5.5zm0 .8c-2.2 0-2.9 2.5-2.9 4.7c0 2.2.7 4.6 2.9 4.6c2.3 0 3-2.4 3-4.6c0-2.2-.7-4.7-3-4.7zm9.5-.8c2.9 0 3.9 3 3.9 5.5c0 2.5-1 5.5-3.9 5.5c-2.8 0-3.9-3-3.9-5.5c0-2.5 1.1-5.5 3.9-5.5zm0 .8c-2.2 0-2.9 2.5-2.9 4.7c0 2.2.7 4.6 2.9 4.6c2.2 0 3-2.4 3-4.6c0-2.2-.7-4.7-3-4.7zm5.9 8.7c.3 0 .7.3.7.7c0 .4-.4.7-.7.7c-.4 0-.7-.3-.7-.7c0-.4.3-.7.7-.7zm6.4-9.5c2.8 0 3.9 3 3.9 5.5c0 2.5-1.1 5.5-3.9 5.5c-2.9 0-3.9-3-3.9-5.5c0-2.5 1-5.5 3.9-5.5zm0 .8c-2.3 0-3 2.5-3 4.7c0 2.2.7 4.6 3 4.6c2.2 0 2.9-2.4 2.9-4.6c0-2.2-.7-4.7-2.9-4.7zm9.5-.8c2.8 0 3.9 3 3.9 5.5c0 2.5-1.1 5.5-3.9 5.5c-2.9 0-3.9-3-3.9-5.5c0-2.5 1-5.5 3.9-5.5zm0 .8c-2.3 0-3 2.5-3 4.7c0 2.2.7 4.6 3 4.6c2.2 0 2.9-2.4 2.9-4.6c0-2.2-.7-4.7-2.9-4.7zm7.7-.8c1.4 0 2.4 1.1 2.4 2.6c0 1.5-1 2.6-2.4 2.6c-1.5 0-2.5-1.1-2.5-2.6c0-1.5 1-2.6 2.5-2.6zm5.7.2h.8l-6.8 10.6h-.7l6.7-10.6zm-5.7.4c-1.1 0-1.8.9-1.8 2c0 1.1.7 2 1.8 2c1 0 1.7-.9 1.7-2c0-1.1-.7-2-1.7-2zm5.4 5.2c1.4 0 2.4 1.1 2.4 2.6c0 1.5-1 2.6-2.4 2.6c-1.5 0-2.5-1.1-2.5-2.6c0-1.5 1-2.6 2.5-2.6zm0 .6c-1.1 0-1.8.9-1.8 2c0 1.1.7 1.9 1.8 1.9c1 0 1.7-.8 1.7-1.9c0-1.1-.7-2-1.7-2z" stroke="none" fill="#242423"/></g><g id="Polygon293725"><path d="m4.8 128.9c2.9 0 4 2.9 4 5.4c0 2.5-1.1 5.5-4 5.5c-2.8 0-3.9-3-3.9-5.5c0-2.5 1.1-5.4 3.9-5.4zm0 .8c-2.2 0-2.9 2.4-2.9 4.6c0 2.2.7 4.7 2.9 4.7c2.3 0 3-2.5 3-4.7c0-2.2-.7-4.6-3-4.6zm9.5-.8c2.9 0 3.9 2.9 3.9 5.4c0 2.5-1 5.5-3.9 5.5c-2.8 0-3.9-3-3.9-5.5c0-2.5 1.1-5.4 3.9-5.4zm0 .8c-2.2 0-2.9 2.4-2.9 4.6c0 2.2.7 4.7 2.9 4.7c2.2 0 3-2.5 3-4.7c0-2.2-.7-4.6-3-4.6zm5.9 8.7c.3 0 .7.3.7.6c0 .4-.4.8-.7.8c-.4 0-.7-.4-.7-.8c0-.3.3-.6.7-.6zm6.4-9.5c2.8 0 3.9 2.9 3.9 5.4c0 2.5-1.1 5.5-3.9 5.5c-2.9 0-3.9-3-3.9-5.5c0-2.5 1-5.4 3.9-5.4zm0 .8c-2.3 0-3 2.4-3 4.6c0 2.2.7 4.7 3 4.7c2.2 0 2.9-2.5 2.9-4.7c0-2.2-.7-4.6-2.9-4.6zm9.5-.8c2.8 0 3.9 2.9 3.9 5.4c0 2.5-1.1 5.5-3.9 5.5c-2.9 0-3.9-3-3.9-5.5c0-2.5 1-5.4 3.9-5.4zm0 .8c-2.3 0-3 2.4-3 4.6c0 2.2.7 4.7 3 4.7c2.2 0 2.9-2.5 2.9-4.7c0-2.2-.7-4.6-2.9-4.6zm7.7-.8c1.4 0 2.4 1.1 2.4 2.6c0 1.5-1 2.6-2.4 2.6c-1.5 0-2.5-1.1-2.5-2.6c0-1.5 1-2.6 2.5-2.6zm5.7.1h.8l-6.8 10.6h-.7l6.7-10.6zm-5.7.5c-1.1 0-1.8.9-1.8 2c0 1 .7 1.9 1.8 1.9c1 0 1.7-.9 1.7-1.9c0-1.1-.7-2-1.7-2zm5.4 5.1c1.4 0 2.4 1.1 2.4 2.6c0 1.5-1 2.6-2.4 2.6c-1.5 0-2.5-1.1-2.5-2.6c0-1.5 1-2.6 2.5-2.6zm0 .6c-1.1 0-1.8.9-1.8 2c0 1.1.7 2 1.8 2c1 0 1.7-.9 1.7-2c0-1.1-.7-2-1.7-2z" stroke="none" fill="#242423"/></g><g id="Polygon293724"><path d="m4.8 97.1c2.9 0 4 2.9 4 5.5c0 2.5-1.1 5.4-4 5.4c-2.8 0-3.9-2.9-3.9-5.4c0-2.6 1.1-5.5 3.9-5.5zm0 .8c-2.2 0-2.9 2.5-2.9 4.7c0 2.1.7 4.6 2.9 4.6c2.3 0 3-2.5 3-4.6c0-2.2-.7-4.7-3-4.7zm9.5-.8c2.9 0 3.9 2.9 3.9 5.5c0 2.5-1 5.4-3.9 5.4c-2.8 0-3.9-2.9-3.9-5.4c0-2.6 1.1-5.5 3.9-5.5zm0 .8c-2.2 0-2.9 2.5-2.9 4.7c0 2.1.7 4.6 2.9 4.6c2.2 0 3-2.5 3-4.6c0-2.2-.7-4.7-3-4.7zm5.9 8.7c.3 0 .7.3.7.7c0 .4-.4.7-.7.7c-.4 0-.7-.3-.7-.7c0-.4.3-.7.7-.7zm6.4-9.5c2.8 0 3.9 2.9 3.9 5.5c0 2.5-1.1 5.4-3.9 5.4c-2.9 0-3.9-2.9-3.9-5.4c0-2.6 1-5.5 3.9-5.5zm0 .8c-2.3 0-3 2.5-3 4.7c0 2.1.7 4.6 3 4.6c2.2 0 2.9-2.5 2.9-4.6c0-2.2-.7-4.7-2.9-4.7zm9.5-.8c2.8 0 3.9 2.9 3.9 5.5c0 2.5-1.1 5.4-3.9 5.4c-2.9 0-3.9-2.9-3.9-5.4c0-2.6 1-5.5 3.9-5.5zm0 .8c-2.3 0-3 2.5-3 4.7c0 2.1.7 4.6 3 4.6c2.2 0 2.9-2.5 2.9-4.6c0-2.2-.7-4.7-2.9-4.7zm7.7-.8c1.4 0 2.4 1.1 2.4 2.6c0 1.5-1 2.6-2.4 2.6c-1.5 0-2.5-1.1-2.5-2.6c0-1.5 1-2.6 2.5-2.6zm5.7.1h.8l-6.8 10.6h-.7l6.7-10.6zm-5.7.5c-1.1 0-1.8.9-1.8 2c0 1.1.7 2 1.8 2c1 0 1.7-.9 1.7-2c0-1.1-.7-2-1.7-2zm5.4 5.1c1.4 0 2.4 1.1 2.4 2.6c0 1.5-1 2.6-2.4 2.6c-1.5 0-2.5-1.1-2.5-2.6c0-1.5 1-2.6 2.5-2.6zm0 .7c-1.1 0-1.8.8-1.8 1.9c0 1.1.7 2 1.8 2c1 0 1.7-.9 1.7-2c0-1.1-.7-1.9-1.7-1.9z" stroke="none" fill="#242423"/></g><g id="Polygon293723"><path d="m4.8 65.3c2.9 0 4 3 4 5.5c0 2.5-1.1 5.5-4 5.5c-2.8 0-3.9-3-3.9-5.5c0-2.5 1.1-5.5 3.9-5.5zm0 .8c-2.2 0-2.9 2.5-2.9 4.7c0 2.2.7 4.6 2.9 4.6c2.3 0 3-2.4 3-4.6c0-2.2-.7-4.7-3-4.7zm9.5-.8c2.9 0 3.9 3 3.9 5.5c0 2.5-1 5.5-3.9 5.5c-2.8 0-3.9-3-3.9-5.5c0-2.5 1.1-5.5 3.9-5.5zm0 .8c-2.2 0-2.9 2.5-2.9 4.7c0 2.2.7 4.6 2.9 4.6c2.2 0 3-2.4 3-4.6c0-2.2-.7-4.7-3-4.7zm5.9 8.7c.3 0 .7.4.7.7c0 .4-.4.7-.7.7c-.4 0-.7-.3-.7-.7c0-.3.3-.7.7-.7zm6.4-9.5c2.8 0 3.9 3 3.9 5.5c0 2.5-1.1 5.5-3.9 5.5c-2.9 0-3.9-3-3.9-5.5c0-2.5 1-5.5 3.9-5.5zm0 .8c-2.3 0-3 2.5-3 4.7c0 2.2.7 4.6 3 4.6c2.2 0 2.9-2.4 2.9-4.6c0-2.2-.7-4.7-2.9-4.7zm9.5-.8c2.8 0 3.9 3 3.9 5.5c0 2.5-1.1 5.5-3.9 5.5c-2.9 0-3.9-3-3.9-5.5c0-2.5 1-5.5 3.9-5.5zm0 .8c-2.3 0-3 2.5-3 4.7c0 2.2.7 4.6 3 4.6c2.2 0 2.9-2.4 2.9-4.6c0-2.2-.7-4.7-2.9-4.7zm7.7-.8c1.4 0 2.4 1.2 2.4 2.6c0 1.5-1 2.6-2.4 2.6c-1.5 0-2.5-1.1-2.5-2.6c0-1.4 1-2.6 2.5-2.6zm5.7.2h.8l-6.8 10.6h-.7l6.7-10.6zm-5.7.4c-1.1 0-1.8.9-1.8 2c0 1.1.7 2 1.8 2c1 0 1.7-.9 1.7-2c0-1.1-.7-2-1.7-2zm5.4 5.2c1.4 0 2.4 1.1 2.4 2.6c0 1.5-1 2.6-2.4 2.6c-1.5 0-2.5-1.1-2.5-2.6c0-1.5 1-2.6 2.5-2.6zm0 .6c-1.1 0-1.8.9-1.8 2c0 1.1.7 1.9 1.8 1.9c1 0 1.7-.8 1.7-1.9c0-1.1-.7-2-1.7-2z" stroke="none" fill="#242423"/></g><g id="Polygon293722"><path d="m4.9 33.6C7.8 33.6 9 36.4 9 39c0 2.6-1.2 5.5-4.1 5.5c-3 0-4.2-2.9-4.2-5.5c0-2.6 1.2-5.4 4.2-5.4zm0 1.4c-1.9 0-2.6 2-2.6 4c0 2.1.7 4.1 2.6 4.1c1.9 0 2.5-2 2.5-4.1c0-2-.6-4-2.5-4zm9.6-1.4c2.9 0 4.1 2.8 4.1 5.4c0 2.6-1.2 5.5-4.1 5.5c-3 0-4.2-2.9-4.2-5.5c0-2.6 1.2-5.4 4.2-5.4zm0 1.4c-1.9 0-2.6 2-2.6 4c0 2.1.7 4.1 2.6 4.1c1.8 0 2.5-2 2.5-4.1c0-2-.7-4-2.5-4zm6.1 7.5c.6 0 1 .4 1 1c0 .5-.4 1-1 1c-.5 0-1-.5-1-1c0-.6.5-1 1-1zm6.6-8.9c3 0 4.2 2.8 4.2 5.4c0 2.6-1.2 5.5-4.2 5.5c-2.9 0-4.1-2.9-4.1-5.5c0-2.6 1.2-5.4 4.1-5.4zm0 1.4c-1.8 0-2.5 2-2.5 4c0 2.1.7 4.1 2.5 4.1c1.9 0 2.6-2 2.6-4.1c0-2-.7-4-2.6-4zm9.6-1.4c3 0 4.2 2.8 4.2 5.4c0 2.6-1.2 5.5-4.2 5.5c-2.9 0-4.1-2.9-4.1-5.5c0-2.6 1.2-5.4 4.1-5.4zm0 1.4c-1.8 0-2.5 2-2.5 4c0 2.1.7 4.1 2.5 4.1c1.9 0 2.6-2 2.6-4.1c0-2-.7-4-2.6-4zm7.8-1.4c1.6 0 2.6 1.1 2.6 2.6c0 1.5-1 2.6-2.6 2.6c-1.5 0-2.6-1.1-2.6-2.6c0-1.5 1.1-2.6 2.6-2.6zm5.8.1h.9l-6.8 10.6h-.9l6.8-10.6zm-5.8.8c-.9 0-1.5.7-1.5 1.7c0 .9.6 1.7 1.5 1.7c.9 0 1.5-.8 1.5-1.7c0-1-.6-1.7-1.5-1.7zm5.6 4.8c1.6 0 2.6 1.1 2.6 2.6c0 1.5-1 2.6-2.6 2.6c-1.5 0-2.6-1.1-2.6-2.6c0-1.5 1.1-2.6 2.6-2.6zm0 .9c-.9 0-1.5.7-1.5 1.7c0 1 .6 1.7 1.5 1.7c.9 0 1.5-.7 1.5-1.7c0-1-.6-1.7-1.5-1.7z" stroke="none" fill="#242423"/></g><g id="Polygon293721"><path d="m1.2 2h1.6v10.5H1.2V2zm8.9 5.6c0-1.2-.6-1.6-1.6-1.6c-.9 0-1.7.5-2.1 1.1c-.03-.03 0 5.4 0 5.4H4.9V4.9h1.5s-.03 1.05 0 1.1c.5-.7 1.5-1.3 2.7-1.3c1.6 0 2.4.8 2.4 2.5c.05-.04 0 5.3 0 5.3h-1.4s.02-4.86 0-4.9zm7-2.9c1.4 0 2.3.6 2.9 1.3l-1 .9c-.5-.6-1.1-.9-1.8-.9c-1.6 0-2.5 1.1-2.5 2.7c0 1.6.9 2.8 2.5 2.8c.7 0 1.3-.3 1.8-1l1 .9c-.6.7-1.5 1.3-2.9 1.3c-2.3 0-3.9-1.7-3.9-4c0-2.3 1.6-4 3.9-4zm4.3.2h1.4v1.2c.6-.8 1.5-1.4 2.5-1.4v1.4h-.5c-.7 0-1.7.5-2 1.1v5.3h-1.4V4.9zm8.6-.2c2.3 0 3.7 1.8 3.7 4.1c-.02.03 0 .4 0 .4c0 0-6.08-.02-6.1 0c.1 1.3 1.1 2.4 2.6 2.4c.8 0 1.7-.4 2.3-.9l.7.9c-.8.7-1.9 1.1-3.1 1.1c-2.3 0-4-1.6-4-4c0-2.2 1.6-4 3.9-4zm-2.4 3.4h4.7c0-1-.7-2.2-2.3-2.2c-1.6 0-2.3 1.2-2.4 2.2zm12.5 3.6c-.6.7-1.5 1-2.6 1c-1.2 0-2.6-.8-2.6-2.5c0-1.8 1.4-2.5 2.6-2.5c1.1 0 2 .3 2.6 1V7.4c0-.9-.8-1.5-1.9-1.5c-.9 0-1.6.3-2.3 1l-.6-1c.8-.8 1.9-1.2 3.1-1.2c1.7 0 3.1.7 3.1 2.7c-.02-.03 0 5.1 0 5.1h-1.4s-.04-.79 0-.8zm0-2.1c-.5-.6-1.2-.9-2-.9c-1 0-1.8.6-1.8 1.5c0 .9.8 1.5 1.8 1.5c.8 0 1.5-.3 2-.8V9.6zm3.5.9c.6.6 1.6 1.1 2.6 1.1c1.1 0 1.7-.4 1.7-1.1c0-.8-.9-1-1.9-1.2c-1.3-.3-2.8-.7-2.8-2.3c0-1.3 1-2.3 2.9-2.3c1.3 0 2.3.5 2.9 1.1l-.6 1c-.5-.6-1.3-1-2.3-1c-1 0-1.6.4-1.6 1c0 .7.9.9 1.8 1.2c1.3.3 2.9.6 2.9 2.4c0 1.3-1 2.3-3.1 2.3c-1.2 0-2.4-.4-3.2-1.2l.7-1zm10.7-5.8c2.3 0 3.7 1.8 3.7 4.1c-.02.03 0 .4 0 .4c0 0-6.08-.02-6.1 0c.1 1.3 1.1 2.4 2.6 2.4c.8 0 1.7-.4 2.3-.9l.7.9c-.8.7-1.9 1.1-3.1 1.1c-2.3 0-4-1.6-4-4c0-2.2 1.6-4 3.9-4zm-2.4 3.4h4.7c0-1-.7-2.2-2.3-2.2c-1.6 0-2.3 1.2-2.4 2.2z" stroke="none" fill="#88898a"/></g></svg>