<?xml version="1.0" standalone="no"?><!DOCTYPE svg PUBLIC "-//W3C//DTD SVG 1.1//EN" "http://www.w3.org/Graphics/SVG/1.1/DTD/svg11.dtd"><svg xmlns="http://www.w3.org/2000/svg" version="1.1" width="303px" height="28.3px" viewBox="0 -6 303 28.3" style="top:-6px"><desc>Request More Info</desc><defs/><g id="Polygon285577"><path d="m91.9 8.5h-2v4h-1.6V2s4.51-.05 4.5 0c2 0 3.4 1.3 3.4 3.2c0 1.9-1.3 2.9-2.6 3.1c-.03 0 2.7 4.2 2.7 4.2h-1.9l-2.5-4zm.7-5.2c0 .05-2.7 0-2.7 0v3.8s2.7-.03 2.7 0c1.1 0 2-.8 2-1.9c0-1.1-.9-1.9-2-1.9zm8.4 1.4c2.3 0 3.7 1.8 3.7 4.1c.05.03 0 .4 0 .4c0 0-6.02-.02-6 0c.1 1.3 1 2.4 2.6 2.4c.8 0 1.7-.4 2.3-.9l.6.9c-.7.7-1.8 1.1-3.1 1.1c-2.2 0-3.9-1.6-3.9-4c0-2.2 1.6-4 3.8-4zm-2.3 3.4h4.7c-.1-1-.8-2.2-2.4-2.2c-1.5 0-2.3 1.2-2.3 2.2zm13.3 7.4v-4.1c-.6.9-1.5 1.3-2.5 1.3c-2 0-3.4-1.5-3.4-4c0-2.5 1.4-4 3.4-4c1 0 1.9.5 2.5 1.3c.01-.03 0-1.1 0-1.1h1.4v10.6H112zm0-8.4c-.4-.6-1.3-1.1-2.1-1.1c-1.5 0-2.3 1.1-2.3 2.7c0 1.6.8 2.8 2.3 2.8c.8 0 1.7-.6 2.1-1.2V7.1zm8.9 4.4c-.6.6-1.6 1.2-2.7 1.2c-1.7 0-2.5-.8-2.5-2.4V4.9h1.4s.04 4.91 0 4.9c0 1.3.7 1.7 1.7 1.7c.8 0 1.7-.5 2.1-1.1V4.9h1.4v7.6h-1.4v-1zm7.1-6.8c2.3 0 3.7 1.8 3.7 4.1c-.02.03 0 .4 0 .4c0 0-6.08-.02-6.1 0c.1 1.3 1.1 2.4 2.6 2.4c.8 0 1.7-.4 2.3-.9l.7.9c-.8.7-1.9 1.1-3.1 1.1c-2.3 0-4-1.6-4-4c0-2.2 1.6-4 3.9-4zm-2.4 3.4h4.7c0-1-.7-2.2-2.3-2.2c-1.6 0-2.3 1.2-2.4 2.2zm7.9 2.4c.5.6 1.5 1.1 2.6 1.1c1 0 1.6-.5 1.6-1.1c0-.8-.9-1-1.8-1.2c-1.3-.3-2.9-.7-2.9-2.3c0-1.3 1.1-2.3 3-2.3c1.3 0 2.2.5 2.9 1.1l-.7 1c-.4-.6-1.3-1-2.2-1c-1 0-1.6.4-1.6 1c0 .7.8.9 1.8 1.2c1.3.3 2.9.6 2.9 2.4c0 1.3-1.1 2.3-3.1 2.3c-1.3 0-2.4-.4-3.2-1.2l.7-1zm7.7.3V6.1h-1.3V4.9h1.3V2.8h1.4v2.1h1.6v1.2h-1.6s.02 4.43 0 4.4c0 .6.3 1 .8 1c.3 0 .6-.2.7-.3l.4 1c-.3.3-.7.5-1.5.5c-1.2 0-1.8-.6-1.8-1.9zM159 4.1l-3.4 8.4h-.7l-3.4-8.4v8.4h-1.6V2h2.3l3 7.6l3.1-7.6h2.3v10.5H159V4.1zm3.4 4.6c0-2.2 1.5-4 3.9-4c2.4 0 3.9 1.8 3.9 4c0 2.2-1.5 4-3.9 4c-2.4 0-3.9-1.8-3.9-4zm6.3 0c0-1.4-.8-2.7-2.4-2.7c-1.5 0-2.4 1.3-2.4 2.7c0 1.5.9 2.8 2.4 2.8c1.6 0 2.4-1.3 2.4-2.8zm3.3-3.8h1.4s.03 1.15 0 1.1c.6-.7 1.5-1.3 2.5-1.3v1.4h-.5c-.7 0-1.6.5-2 1.1c.03.01 0 5.3 0 5.3H172V4.9zm8.7-.2c2.3 0 3.8 1.8 3.8 4.1c-.03.03 0 .4 0 .4c0 0-6.1-.02-6.1 0c.1 1.3 1.1 2.4 2.6 2.4c.8 0 1.7-.4 2.3-.9l.6.9c-.7.7-1.8 1.1-3 1.1c-2.3 0-4-1.6-4-4c0-2.2 1.6-4 3.8-4zm-2.3 3.4h4.7c-.1-1-.7-2.2-2.4-2.2c-1.5 0-2.2 1.2-2.3 2.2zm12-6.1h1.6v10.5h-1.6V2zm9.1 5.6c0-1.2-.7-1.6-1.6-1.6c-.9 0-1.7.5-2.2 1.1c.04-.03 0 5.4 0 5.4h-1.4V4.9h1.4s.04 1.05 0 1.1c.5-.7 1.6-1.3 2.8-1.3c1.6 0 2.4.8 2.4 2.5c.02-.04 0 5.3 0 5.3h-1.4V7.6zm4-1.5h-1.2V4.9h1.2s.04-.53 0-.5c0-1.7 1-2.6 2.4-2.6c.5 0 .9.1 1.2.3l-.3 1c-.2-.1-.4-.1-.7-.1c-.7 0-1.1.4-1.1 1.4c-.03-.03 0 .5 0 .5h1.5v1.2H205v6.4h-1.5V6.1zm3.9 2.6c0-2.2 1.5-4 3.9-4c2.4 0 3.9 1.8 3.9 4c0 2.2-1.5 4-3.9 4c-2.4 0-3.9-1.8-3.9-4zm6.3 0c0-1.4-.9-2.7-2.4-2.7c-1.5 0-2.4 1.3-2.4 2.7c0 1.5.9 2.8 2.4 2.8c1.5 0 2.4-1.3 2.4-2.8z" stroke="none" fill="#ffffff"/></g></svg>