<?xml version="1.0" standalone="no"?><!DOCTYPE svg PUBLIC "-//W3C//DTD SVG 1.1//EN" "http://www.w3.org/Graphics/SVG/1.1/DTD/svg11.dtd"><svg xmlns="http://www.w3.org/2000/svg" version="1.1" width="77px" height="16.9px" viewBox="0 -4 77 16.9" style="top:-4px"><desc>Average Income</desc><defs/><g id="Polygon299408"><path d="m4.5 5.9h-3L1 7.1h-1l2.4-6h1.2l2.3 6h-1l-.4-1.2zm-2.7-.8h2.4L3 1.9l-1.2 3.2zm4-2.3h.9L8 6.2l1.4-3.4h.9L8.5 7.1h-.9L5.8 2.8zm7-.1c1.3 0 2.2 1 2.2 2.3c-.04 0 0 .2 0 .2h-3.5c.1.7.6 1.4 1.5 1.4c.5 0 1-.2 1.3-.6l.4.6c-.5.4-1.1.6-1.8.6c-1.3 0-2.2-.9-2.2-2.3c0-1.2.9-2.2 2.1-2.2zm-1.3 1.9h2.7c-.1-.6-.4-1.3-1.4-1.3c-.8 0-1.2.7-1.3 1.3zM16 2.8h.8s-.02.63 0 .6c.3-.4.8-.7 1.4-.7v.8h-.3c-.4 0-.9.3-1.1.6c-.02-.01 0 3 0 3h-.8V2.8zm5.7 3.8c-.3.4-.8.6-1.4.6c-.7 0-1.5-.5-1.5-1.4c0-1 .7-1.4 1.5-1.4c.6 0 1.1.1 1.4.5v-.7c0-.5-.4-.9-1.1-.9c-.5 0-.9.2-1.3.6l-.3-.5c.5-.5 1.1-.7 1.8-.7c.9 0 1.7.4 1.7 1.5v2.9h-.8v-.5zm0-1.2c-.2-.3-.7-.5-1.1-.5c-.6 0-1 .4-1 .9c0 .5.4.9 1 .9c.4 0 .9-.2 1.1-.5v-.8zm2.5 2.2c.3.4.8.6 1.4.6c.6 0 1.3-.3 1.3-1.2v-.6c-.3.4-.8.7-1.4.7c-1.2 0-2-.8-2-2.2c0-1.4.8-2.2 2-2.2c.5 0 1.1.2 1.4.7v-.6h.8v4.1c0 1.5-1.1 2-2.1 2c-.8 0-1.3-.2-1.8-.7l.4-.6zM26.9 4c-.2-.3-.7-.6-1.2-.6c-.8 0-1.3.6-1.3 1.5c0 .9.5 1.5 1.3 1.5c.5 0 1-.3 1.2-.6V4zm4-1.3c1.3 0 2.1 1 2.1 2.3c.02 0 0 .2 0 .2h-3.4c0 .7.6 1.4 1.5 1.4c.4 0 .9-.2 1.2-.6l.4.6c-.4.4-1 .6-1.7.6c-1.3 0-2.3-.9-2.3-2.3c0-1.2.9-2.2 2.2-2.2zm-1.3 1.9h2.6c0-.6-.4-1.3-1.3-1.3c-.9 0-1.3.7-1.3 1.3zm6.8-3.5h.9v6h-.9v-6zm5.1 3.2c0-.7-.3-.9-.9-.9c-.5 0-1 .3-1.2.6v3.1h-.8V2.8h.8v.6c.3-.4.9-.7 1.5-.7c1 0 1.4.4 1.4 1.4c.04-.04 0 3 0 3h-.8s.04-2.77 0-2.8zm4.1-1.6c.8 0 1.3.3 1.6.7l-.5.5c-.3-.4-.6-.5-1.1-.5c-.8 0-1.4.6-1.4 1.5c0 .9.6 1.6 1.4 1.6c.5 0 .8-.2 1.1-.5l.5.5c-.3.4-.8.7-1.6.7c-1.3 0-2.2-1-2.2-2.3c0-1.3.9-2.2 2.2-2.2zm2.2 2.2c0-1.2.9-2.2 2.2-2.2c1.4 0 2.2 1 2.2 2.2c0 1.3-.8 2.3-2.2 2.3c-1.3 0-2.2-1-2.2-2.3zm3.6 0c0-.8-.5-1.5-1.4-1.5c-.8 0-1.3.7-1.3 1.5c0 .9.5 1.6 1.3 1.6c.9 0 1.4-.7 1.4-1.6zm7.1-.7c0-.5-.2-.8-.7-.8c-.5 0-.9.3-1.1.6v3.1h-.8s-.02-2.89 0-2.9c0-.5-.2-.8-.8-.8c-.4 0-.8.3-1 .6c-.05 0 0 3.1 0 3.1h-.9V2.8h.9s-.05.57 0 .6c.1-.3.7-.7 1.4-.7c.6 0 1 .3 1.1.8c.3-.4.9-.8 1.5-.8c.8 0 1.2.4 1.2 1.3c.04-.03 0 3.1 0 3.1h-.8s.03-2.89 0-2.9zm4-1.5c1.3 0 2.1 1 2.1 2.3c.05 0 0 .2 0 .2h-3.4c.1.7.6 1.4 1.5 1.4c.4 0 .9-.2 1.3-.6l.3.6c-.4.4-1 .6-1.7.6c-1.3 0-2.2-.9-2.2-2.3c0-1.2.9-2.2 2.1-2.2zm-1.3 1.9h2.7c-.1-.6-.5-1.3-1.4-1.3c-.8 0-1.3.7-1.3 1.3z" stroke="none" fill="#000"/></g></svg>