<?xml version="1.0" standalone="no"?><!DOCTYPE svg PUBLIC "-//W3C//DTD SVG 1.1//EN" "http://www.w3.org/Graphics/SVG/1.1/DTD/svg11.dtd"><svg xmlns="http://www.w3.org/2000/svg" version="1.1" width="330.5px" height="16.9px" viewBox="0 -4 330.5 16.9" style="top:-4px"><desc>CONTACT AGENT NAME</desc><defs/><g id="Polygon281254"><path d="m213.5 4.1c0-1.8 1.4-3.1 3.1-3.1c1.2 0 1.9.6 2.4 1.3l-.8.4c-.3-.5-.9-.9-1.6-.9c-1.2 0-2.2 1-2.2 2.3c0 1.4 1 2.3 2.2 2.3c.7 0 1.3-.4 1.6-.9l.8.4c-.5.8-1.2 1.3-2.4 1.3c-1.7 0-3.1-1.2-3.1-3.1zm9.1-3.1c1.8 0 3.1 1.3 3.1 3.1c0 1.8-1.3 3.1-3.1 3.1c-1.7 0-3-1.3-3-3.1c0-1.8 1.3-3.1 3-3.1zm0 .8c-1.2 0-2.1 1-2.1 2.3c0 1.3.9 2.3 2.1 2.3c1.3 0 2.1-1 2.1-2.3c0-1.3-.8-2.3-2.1-2.3zm5.1.7v4.6h-.9v-6h.9l3.3 4.5V1.1h.8v6h-.8l-3.3-4.6zm6.9-.6h-1.8v-.8h4.6v.8h-1.9v5.2h-.9V1.9zm6.9 4h-2.9l-.5 1.2h-1l2.4-6h1.1l2.4 6h-1l-.5-1.2zm-2.6-.8h2.4l-1.2-3.2l-1.2 3.2zm4.3-1c0-1.8 1.3-3.1 3-3.1c1.2 0 2 .6 2.4 1.3l-.7.4c-.4-.5-.9-.9-1.7-.9c-1.2 0-2.1 1-2.1 2.3c0 1.4.9 2.3 2.1 2.3c.8 0 1.3-.4 1.7-.9l.7.4c-.5.8-1.2 1.3-2.4 1.3c-1.7 0-3-1.2-3-3.1zm7.8-2.2h-1.9v-.8h4.6v.8h-1.8v5.2h-.9V1.9zm5.6 1.9l4-1.9v.6l-3.4 1.6l3.4 1.6v.6l-4-1.9v-.6zm4.5 0l4-1.9v.6l-3.4 1.6l3.4 1.6v.6l-4-1.9v-.6zm8.7 2.1h-2.9l-.5 1.2h-1l2.4-6h1.1l2.4 6h-1l-.5-1.2zm-2.7-.8h2.4l-1.2-3.2l-1.2 3.2zm7.4-4.1c1.2 0 1.9.5 2.4 1.2l-.7.4c-.4-.4-1-.8-1.7-.8c-1.2 0-2.2 1-2.2 2.3c0 1.4 1 2.3 2.2 2.3c.7 0 1.3-.3 1.6-.6c-.04.03 0-1 0-1h-2v-.8h2.9s-.04 2.17 0 2.2c-.6.6-1.4 1-2.5 1c-1.7 0-3.1-1.2-3.1-3.1c0-1.9 1.4-3.1 3.1-3.1zm3.6.1h4v.8H279v1.8h3.1v.7H279v1.9h3.1v.8h-4v-6zm6.1 1.4v4.6h-.9v-6h.9l3.3 4.5V1.1h.9v6h-.9l-3.3-4.6zm7-.6h-1.9v-.8h4.6v.8h-1.8v5.2h-.9V1.9zm6.9.6v4.6h-.9v-6h.9l3.3 4.5V1.1h.9v6h-.9l-3.3-4.6zm9.3 3.4h-2.9l-.5 1.2h-1l2.4-6h1.1l2.4 6h-1l-.5-1.2zm-2.7-.8h2.4l-1.2-3.2l-1.2 3.2zm10.1-2.8l-2 4.8h-.4l-1.9-4.8v4.8h-.9v-6h1.3l1.7 4.3l1.8-4.3h1.3v6h-.9V2.3zm2.2-1.2h4v.8h-3.1v1.8h3.1v.7h-3.1v1.9h3.1v.8h-4v-6zm4.7 4.6l3.4-1.6l-3.4-1.6v-.6l4 1.9v.6l-4 1.9v-.6zm4.5 0l3.4-1.6l-3.4-1.6v-.6l4 1.9v.6l-4 1.9v-.6z" stroke="none" fill="#3797ef"/></g></svg>