<?xml version="1.0" standalone="no"?><!DOCTYPE svg PUBLIC "-//W3C//DTD SVG 1.1//EN" "http://www.w3.org/Graphics/SVG/1.1/DTD/svg11.dtd"><svg xmlns="http://www.w3.org/2000/svg" version="1.1" width="343px" height="46.5px" viewBox="0 -10 343 46.5" style="top:-10px"><desc>SITE PLAN</desc><defs/><g id="Polygon63558"><path d="m134.2 9.3s.05-2.75 0-2.7c0-1.3-.7-1.7-1.6-1.7c-1 0-1.7.4-1.7 1.7v1.3c0 1 .4 1.5 1.3 2l2.3 1.3c1.9 1.1 3 2 3 4.1v2.8c0 3.1-1.9 4.1-4.9 4.1c-3 0-4.9-1-4.9-4.1c-.01.03 0-3.4 0-3.4h3.2v3c0 1.2.7 1.7 1.7 1.7c1 0 1.7-.5 1.7-1.7v-1.6c0-1-.3-1.5-1.3-2l-2.3-1.3c-1.9-1.1-3-2-3-4.1V6.1c0-2.9 2.1-4.1 4.9-4.1c2.7 0 4.9 1.2 4.9 4.1c-.04 0 0 3.2 0 3.2h-3.3zm5.5 12.7V2.3h3.3V22h-3.3zm14.7-16.9h-3.3V22h-3.3V5.1h-3.3V2.3h9.9v2.8zm1.4 16.9V2.3h8.7v2.8h-5.4v5.5h4.5v2.8h-4.5v5.7h5.5v2.9h-8.8zm25.1-15.6v3.8c0 3-2 4.2-5 4.2c.05-.03-1.8 0-1.8 0v7.6h-3.3V2.3s5.15-.04 5.1 0c3 0 5 1.1 5 4.1zm-3.3.5c0-1.4-.7-1.8-1.8-1.8c.04.04-1.7 0-1.7 0v6.4s1.74-.01 1.7 0c1.1 0 1.8-.4 1.8-1.8V6.9zM191.1 22h-8.4V2.3h3.3v16.8h5.1v2.9zm7.7-4.4h-3.6l-.7 4.4h-3.2L195 2.3h4.1l3.8 19.7h-3.4l-.7-4.4zm-.4-2.7L197 6.1l-1.4 8.8h2.8zm5.8 7.1V2.3h3.3l4.1 12.2V2.3h3V22h-3.1l-4.3-12.8V22h-3z" stroke="none" fill="#282828"/></g></svg>