<?xml version="1.0" standalone="no"?><!DOCTYPE svg PUBLIC "-//W3C//DTD SVG 1.1//EN" "http://www.w3.org/Graphics/SVG/1.1/DTD/svg11.dtd"><svg xmlns="http://www.w3.org/2000/svg" xmlns:xlink="http://www.w3.org/1999/xlink" version="1.1" width="134.3px" height="25.9px" viewBox="0 -8 134.3 25.9" style="top:-8px"><desc/><defs/><g id="Polygon52269"><path d="m53.8 3.9l4-2v.4l-3.5 1.8l3.5 1.8v.4l-4-2v-.4zm4.5 0l3.9-2v.4l-3.5 1.8l3.5 1.8v.4l-3.9-2v-.4zm6.8.7h-1.4v2.5h-.5v-6h2.3c1 0 1.8.7 1.8 1.8c0 1.1-.8 1.7-1.7 1.7c.03-.01 1.8 2.5 1.8 2.5h-.7l-1.6-2.5zm.3-3c.02-.03-1.7 0-1.7 0v2.6s1.72-.04 1.7 0c.8 0 1.4-.6 1.4-1.3c0-.8-.6-1.3-1.4-1.3zM68 4.9c0-1.2.9-2.2 2.1-2.2c1.3 0 2.1 1 2.1 2.2c0 1.3-.8 2.3-2.1 2.3c-1.2 0-2.1-1-2.1-2.3zm3.7 0c0-.9-.6-1.8-1.6-1.8c-1 0-1.6.9-1.6 1.8c0 1 .6 1.9 1.6 1.9c1 0 1.6-.9 1.6-1.9zm1.5 0c0-1.2.8-2.2 2.1-2.2c1.2 0 2.1 1 2.1 2.2c0 1.3-.9 2.3-2.1 2.3c-1.3 0-2.1-1-2.1-2.3zm3.7 0c0-.9-.6-1.8-1.6-1.8c-1 0-1.6.9-1.6 1.8c0 1 .6 1.9 1.6 1.9c1 0 1.6-.9 1.6-1.9zm1.8-1.7h-.7v-.4h.7s.02-.43 0-.4c0-.9.5-1.4 1.2-1.4c.2 0 .4.1.6.2l-.2.3c-.1 0-.2-.1-.4-.1c-.5 0-.7.4-.7 1c-.02-.03 0 .4 0 .4h.9v.4h-.9v3.9h-.5V3.2zm8.6 3.9c-.3-.2-.5-.4-.8-.7c-.4.5-1 .8-1.8.8c-1 0-1.8-.5-1.8-1.6c0-1 .7-1.5 1.4-1.8c-.3-.5-.5-1-.5-1.4c0-.8.6-1.4 1.4-1.4c.7 0 1.3.4 1.3 1.2c0 .9-.8 1.2-1.6 1.7c.3.3.6.7.8.9c.3.3.5.6.8.9c.3-.6.6-1.1.7-1.5l.4.2c-.2.5-.4 1.1-.8 1.6c.4.4.7.7 1.2 1.1h-.7zm-2.6-3.6c.7-.3 1.3-.7 1.3-1.3c0-.5-.3-.8-.8-.8c-.5 0-.9.4-.9 1c0 .3.2.7.4 1.1zm1.5 2.6c-.4-.4-.7-.8-.9-1c-.3-.3-.6-.6-.8-1c-.6.3-1.1.7-1.1 1.5c0 .8.7 1.2 1.4 1.2c.6 0 1-.3 1.4-.7zm5.2-.2c.4.4 1 .9 1.9.9c1.2 0 1.5-.7 1.5-1.2c0-.9-.8-1.1-1.6-1.4c-1-.2-2-.5-2-1.6c0-1 .9-1.6 2-1.6c.9 0 1.6.3 2 .9l-.3.3c-.4-.5-1-.7-1.7-.7c-.8 0-1.4.4-1.4 1.1c0 .7.7.9 1.5 1.1c1 .3 2.1.6 2.1 1.8c0 .8-.5 1.7-2.2 1.7c-.9 0-1.7-.4-2.2-.9l.4-.4zm5.1.4V3.2h-.7v-.4h.7V1.6h.5v1.2h.9v.4h-.9s-.02 3 0 3c0 .4.1.6.4.6c.2 0 .4-.1.5-.2l.2.3c-.2.2-.4.3-.7.3c-.6 0-.9-.3-.9-.9zm2.4-3.5h.5s-.04.71 0 .7c.3-.5.8-.8 1.4-.8v.5h-.2c-.4 0-1 .4-1.2.7c-.04.04 0 3.2 0 3.2h-.5V2.8zm5.8 3.7c-.4.4-1 .7-1.6.7c-.9 0-1.4-.4-1.4-1.4c.05.02 0-3 0-3h.5v2.9c0 .9.4 1.1 1.1 1.1c.5 0 1.1-.3 1.4-.7c-.02-.02 0-3.3 0-3.3h.4v4.3h-.4s-.02-.63 0-.6zm3.8-3.8c.7 0 1.2.3 1.5.7l-.3.3c-.3-.5-.7-.6-1.2-.6c-1 0-1.6.8-1.6 1.8c0 1.1.6 1.9 1.6 1.9c.5 0 .9-.2 1.2-.6l.3.3c-.3.4-.8.7-1.5.7c-1.3 0-2.1-1-2.1-2.3c0-1.2.8-2.2 2.1-2.2zm2.6 3.6c.04-.03 0-3.1 0-3.1h-.7v-.4h.7V1.6h.5v1.2h.9v.4h-.9s.02 3 0 3c0 .4.2.6.5.6c.2 0 .4-.1.5-.2l.1.3c-.1.2-.3.3-.7.3c-.6 0-.9-.3-.9-.9zm5.4.2c-.4.4-1 .7-1.6.7c-.9 0-1.4-.4-1.4-1.4c.03.02 0-3 0-3h.5v2.9c0 .9.4 1.1 1 1.1c.6 0 1.2-.3 1.5-.7c-.04-.02 0-3.3 0-3.3h.4v4.3h-.4s-.04-.63 0-.6zm1.9-3.7h.5s-.05.71 0 .7c.3-.5.8-.8 1.4-.8v.5h-.2c-.5 0-1 .4-1.2.7c-.05.04 0 3.2 0 3.2h-.5V2.8zm4.7-.1c1.3 0 2 1 2 2.3c.04-.04 0 .1 0 .1c0 0-3.6-.02-3.6 0c0 .9.7 1.7 1.7 1.7c.6 0 1-.2 1.4-.6l.3.3c-.5.5-1 .7-1.7.7c-1.3 0-2.2-.9-2.2-2.3c0-1.2.9-2.2 2.1-2.2zm-1.6 2h3.2c0-.7-.5-1.6-1.6-1.6c-1.1 0-1.6.9-1.6 1.6zm4.4 1.2l3.4-1.8l-3.4-1.8v-.4l3.9 2v.4l-3.9 2v-.4zm4.4 0l3.5-1.8l-3.5-1.8v-.4l4 2v.4l-4 2v-.4z" stroke="none" fill="#000"/><a xlink:href="DBF_Roof%20&amp;%20Structure" xlink:show="new" xlink:title="&lt;&lt;Roof &amp; Structure&gt;&gt;"><rect style="fill:transparent;" x="53" y="0" width="81" height="7"/></a></g></svg>