<?xml version="1.0" standalone="no"?><!DOCTYPE svg PUBLIC "-//W3C//DTD SVG 1.1//EN" "http://www.w3.org/Graphics/SVG/1.1/DTD/svg11.dtd"><svg xmlns="http://www.w3.org/2000/svg" version="1.1" width="172.4px" height="349.5px" viewBox="0 -4 172.4 349.5" style="top:-4px"><desc>Point of Interest 00 Min Drive 00 Miles From Subject Property Point of Interest 00 Min Drive 00 Miles From Subject Pr</desc><defs/><g id="Polygon304191"><path d="m20.1 336.4c1.3 0 1.8 1.2 1.8 2.4c0 1.1-.5 2.4-1.8 2.4c-1.2 0-1.7-1.3-1.7-2.4c0-1.2.5-2.4 1.7-2.4zm0 .5c-.8 0-1.1.9-1.1 1.9c0 .9.3 1.9 1.1 1.9c.9 0 1.2-1 1.2-1.9c0-1-.3-1.9-1.2-1.9zm4.3-.5c1.2 0 1.7 1.2 1.7 2.4c0 1.1-.5 2.4-1.7 2.4c-1.3 0-1.8-1.3-1.8-2.4c0-1.2.5-2.4 1.8-2.4zm0 .5c-.9 0-1.2.9-1.2 1.9c0 .9.3 1.9 1.2 1.9c.8 0 1.1-1 1.1-1.9c0-1-.3-1.9-1.1-1.9zm8.3.3l-1.6 3.9h-.2l-1.6-3.9v3.9h-.6v-4.7h.8L31 340l1.4-3.6h.9v4.7h-.6v-3.9zm1.5-.4c0-.2.2-.3.3-.3c.2 0 .4.1.4.3c0 .2-.2.4-.4.4c-.1 0-.3-.2-.3-.4zm.1.9h.5v3.4h-.5v-3.4zm1.5-1.3h.5v4.7h-.5v-4.7zm3 1.2c1 0 1.6.8 1.6 1.9v.1h-2.8c.1.6.5 1.2 1.3 1.2c.4 0 .7-.2 1-.5l.3.4c-.4.3-.8.5-1.4.5c-1 0-1.7-.7-1.7-1.8c0-1 .7-1.8 1.7-1.8zm-1.2 1.6h2.3c0-.5-.4-1.1-1.1-1.1c-.8 0-1.1.6-1.2 1.1zm3.5 1.1c.3.2.7.5 1.2.5c.5 0 .8-.3.8-.6c0-.4-.5-.5-.9-.6c-.6-.1-1.2-.3-1.2-1c0-.5.4-1 1.2-1c.6 0 1 .3 1.3.5l-.3.4c-.2-.2-.5-.4-1-.4c-.4 0-.7.2-.7.5c0 .3.4.4.8.5c.6.2 1.3.3 1.3 1.1c0 .5-.5 1-1.4 1c-.5 0-1-.2-1.3-.5l.2-.4zm5-3.9h3.1v.6h-2.5v1.5h2.4v.5h-2.4v2.1h-.6v-4.7zm3.8 1.3h.5v.6c.3-.4.7-.6 1.1-.6v.5h-.2c-.3 0-.8.2-.9.5v2.4h-.5v-3.4zm2 1.7c0-1 .7-1.8 1.7-1.8c1 0 1.7.8 1.7 1.8c0 1-.7 1.8-1.7 1.8c-1 0-1.7-.8-1.7-1.8zm2.8 0c0-.7-.4-1.3-1.1-1.3c-.7 0-1.1.6-1.1 1.3c0 .7.4 1.3 1.1 1.3c.7 0 1.1-.6 1.1-1.3zm5.4-.6c0-.4-.2-.7-.6-.7c-.4 0-.7.3-.9.5v2.5h-.5s-.03-2.29 0-2.3c0-.4-.2-.7-.6-.7c-.4 0-.8.3-.9.5c-.04.04 0 2.5 0 2.5h-.6v-3.4h.6s-.04.52 0 .5c.1-.2.6-.6 1.1-.6c.5 0 .8.3.9.7c.2-.3.6-.7 1.1-.7c.6 0 .9.4.9 1.1c.04-.03 0 2.4 0 2.4h-.5s.02-2.29 0-2.3zm3.3 1.2c.4.4.9.7 1.5.7c.8 0 1.1-.5 1.1-.8c0-.6-.6-.7-1.2-.9c-.7-.2-1.6-.4-1.6-1.3c0-.8.7-1.3 1.7-1.3c.7 0 1.2.2 1.6.6l-.3.4c-.4-.3-.9-.5-1.4-.5c-.6 0-1 .3-1 .7c0 .5.6.6 1.2.8c.7.2 1.6.4 1.6 1.4c0 .7-.4 1.4-1.7 1.4c-.8 0-1.4-.3-1.8-.7l.3-.5zm6.3.6c-.3.3-.7.6-1.2.6c-.7 0-1.1-.3-1.1-1.1v-2.4h.5s.02 2.26 0 2.3c0 .6.3.7.8.7c.4 0 .8-.2 1-.5c-.03.01 0-2.5 0-2.5h.5v3.4h-.5s-.03-.47 0-.5zm1.5-4.2h.5v1.8c.3-.3.7-.6 1.1-.6c.9 0 1.5.7 1.5 1.8c0 1.1-.6 1.8-1.5 1.8c-.4 0-.8-.3-1.1-.6v.5h-.5v-4.7zm1.5 4.3c.7 0 1.1-.5 1.1-1.3c0-.7-.4-1.3-1.1-1.3c-.4 0-.8.3-1 .6v1.5c.2.3.6.5 1 .5zm2.3-3.9c0-.2.2-.3.4-.3c.2 0 .3.1.3.3c0 .2-.1.4-.3.4c-.2 0-.4-.2-.4-.4zm.7 4.6c0 .7-.4 1.1-1 1.1c-.2 0-.3 0-.4-.1l.1-.4h.2c.3 0 .5-.1.5-.6c.03.04 0-3.7 0-3.7h.6s-.04 3.74 0 3.7zm2.4-3.8c1 0 1.6.8 1.6 1.9c.03-.04 0 .1 0 .1H77c0 .6.5 1.2 1.2 1.2c.4 0 .8-.2 1.1-.5l.2.4c-.3.3-.8.5-1.3.5c-1 0-1.8-.7-1.8-1.8c0-1 .7-1.8 1.7-1.8zm-1.1 1.6h2.2c0-.5-.3-1.1-1.1-1.1c-.7 0-1.1.6-1.1 1.1zm5-1.6c.6 0 1 .3 1.2.6l-.3.4c-.2-.4-.5-.5-.9-.5c-.7 0-1.1.6-1.1 1.3c0 .8.4 1.3 1.1 1.3c.4 0 .7-.1.9-.4l.3.3c-.2.3-.6.6-1.2.6c-1 0-1.7-.8-1.7-1.8c0-1 .7-1.8 1.7-1.8zm2 2.8c.01 0 0-2.2 0-2.2h-.6v-.5h.6v-.9h.5v.9h.7v.5h-.7s.03 2.09 0 2.1c0 .2.1.4.4.4c.1 0 .3 0 .3-.1l.2.4c-.1.1-.3.2-.6.2c-.5 0-.8-.3-.8-.8zm3.6-4s1.93.04 1.9 0c1 0 1.5.7 1.5 1.4c0 .8-.6 1.5-1.5 1.5c.03-.05-1.3 0-1.3 0v1.8h-.6v-4.7zm1.9.6c-.04-.04-1.3 0-1.3 0v1.7s1.26.04 1.3 0c.5 0 .9-.3.9-.9c0-.5-.4-.8-.9-.8zm2.2.7h.5v.6c.3-.4.7-.6 1.1-.6v.5h-.2c-.3 0-.8.2-.9.5v2.4h-.5v-3.4zm2 1.7c0-1 .7-1.8 1.7-1.8c1 0 1.7.8 1.7 1.8c0 1-.7 1.8-1.7 1.8c-1 0-1.7-.8-1.7-1.8zm2.8 0c0-.7-.4-1.3-1.1-1.3c-.7 0-1.1.6-1.1 1.3c0 .7.4 1.3 1.1 1.3c.7 0 1.1-.6 1.1-1.3zm1.3 3v-4.7h.6s-.03.53 0 .5c.2-.3.6-.6 1.1-.6c.9 0 1.5.7 1.5 1.8c0 1.1-.6 1.8-1.5 1.8c-.5 0-.9-.2-1.1-.6c-.03 0 0 1.8 0 1.8h-.6zm1.6-4.3c-.4 0-.9.3-1 .6v1.5c.1.3.6.5 1 .5c.7 0 1.1-.5 1.1-1.3c0-.7-.4-1.3-1.1-1.3zm3.9-.5c1 0 1.6.8 1.6 1.9c-.02-.04 0 .1 0 .1h-2.8c.1.6.5 1.2 1.3 1.2c.3 0 .7-.2 1-.5l.3.4c-.4.3-.8.5-1.4.5c-1 0-1.7-.7-1.7-1.8c0-1 .7-1.8 1.7-1.8zm-1.2 1.6h2.3c0-.5-.4-1.1-1.1-1.1c-.8 0-1.1.6-1.2 1.1zm3.6-1.5h.5s-.02.57 0 .6c.3-.4.6-.6 1.1-.6v.5h-.2c-.3 0-.8.2-.9.5c-.02.02 0 2.4 0 2.4h-.5v-3.4zm2.3 2.7v-2.2h-.6v-.5h.6v-.9h.5v.9h.7v.5h-.7s.03 2.09 0 2.1c0 .2.1.4.4.4c.1 0 .3 0 .3-.1l.2.4c-.1.1-.3.2-.6.2c-.5 0-.8-.3-.8-.8zm2.1 1.6c.2 0 .4-.1.5-.3c-.03-.04.2-.6.2-.6l-1.4-3.4h.6l1.1 2.8l1.1-2.8h.6s-1.72 4.1-1.7 4.1c-.2.5-.6.7-1 .7c-.1 0-.3 0-.4-.1l.1-.4h.3z" stroke="none" fill="#888888"/></g><g id="Polygon304190"><path d="m20.8 323c1.6 0 2.3 1.6 2.3 3.1c0 1.5-.7 3.1-2.3 3.1c-1.7 0-2.4-1.6-2.4-3.1c0-1.5.7-3.1 2.4-3.1zm0 .8c-1.1 0-1.5 1.1-1.5 2.3c0 1.2.4 2.3 1.5 2.3c1 0 1.4-1.1 1.4-2.3c0-1.2-.4-2.3-1.4-2.3zm5.4-.8c1.7 0 2.3 1.6 2.3 3.1c0 1.5-.6 3.1-2.3 3.1c-1.7 0-2.3-1.6-2.3-3.1c0-1.5.6-3.1 2.3-3.1zm0 .8c-1.1 0-1.4 1.1-1.4 2.3c0 1.2.3 2.3 1.4 2.3c1.1 0 1.4-1.1 1.4-2.3c0-1.2-.3-2.3-1.4-2.3zm10.7.5l-1.9 4.8h-.4l-1.9-4.8v4.8h-.9v-6h1.3l1.7 4.3l1.7-4.3h1.3v6h-.9v-4.8zm2-.8c0-.3.3-.5.6-.5c.2 0 .5.2.5.5c0 .3-.3.5-.5.5c-.3 0-.6-.2-.6-.5zm.2 1.3h.8v4.3h-.8v-4.3zm4.9 1.5c0-.7-.4-.9-.9-.9c-.5 0-1 .3-1.2.6c-.02 0 0 3.1 0 3.1h-.8v-4.3h.8s-.02.57 0 .6c.3-.4.8-.7 1.5-.7c.9 0 1.4.4 1.4 1.4v3h-.8v-2.8zm4.3-3.2h2.1c1.9 0 3.1 1.3 3.1 3c0 1.8-1.2 3-3.1 3h-2.1v-6zm2.1 5.2c1.4 0 2.2-1 2.2-2.2c0-1.2-.8-2.2-2.2-2.2h-1.2v4.4s1.2.02 1.2 0zm4.1-3.5h.8v.6c.3-.4.8-.7 1.4-.7v.8h-.3c-.4 0-.9.3-1.1.6v3h-.8v-4.3zm2.8-1.3c0-.3.3-.5.5-.5c.3 0 .6.2.6.5c0 .3-.3.5-.6.5c-.2 0-.5-.2-.5-.5zm.1 1.3h.9v4.3h-.9v-4.3zm1.4 0h.9l1.3 3.4l1.4-3.4h.9l-1.8 4.3h-.9l-1.8-4.3zm6.9-.1c1.3 0 2.2 1 2.2 2.3c-.04 0 0 .2 0 .2h-3.5c.1.7.6 1.4 1.5 1.4c.5 0 1-.2 1.3-.6l.4.6c-.5.4-1.1.6-1.8.6c-1.3 0-2.2-.9-2.2-2.3c0-1.2.9-2.2 2.1-2.2zm-1.3 1.9h2.7c-.1-.6-.4-1.3-1.4-1.3c-.8 0-1.2.7-1.3 1.3z" stroke="none" fill="#282828"/></g><g id="Polygon304189"><path d="m3 311c.7 0 1.3.3 1.7.7l-.5.7c-.3-.4-.6-.6-1.2-.6c-1.1 0-1.7 1.1-1.7 2.2v.2c.3-.4.9-.9 1.7-.9c1.1 0 2 .7 2 1.9c0 1.1-.9 2-2.2 2c-1.7 0-2.4-1.4-2.4-3.1c0-1.7.8-3.1 2.6-3.1zm-.2 3.1c-.6 0-1.1.3-1.5.8c.1.7.5 1.5 1.5 1.5c.8 0 1.3-.6 1.3-1.1c0-.8-.6-1.2-1.3-1.2zm3.5 2c.3 0 .6.2.6.5c0 .3-.3.6-.6.6c-.3 0-.5-.3-.5-.6c0-.3.2-.5.5-.5zm12.4-5s2.5.01 2.5 0c1.2 0 1.9.9 1.9 1.9c0 1-.7 1.8-1.9 1.8h-1.6v2.3h-.9v-6zm2.4.8h-1.5v2.1h1.5c.6 0 1.1-.4 1.1-1c0-.7-.5-1.1-1.1-1.1zm2.4 3c0-1.2.9-2.2 2.2-2.2c1.4 0 2.2 1 2.2 2.2c0 1.3-.8 2.3-2.2 2.3c-1.3 0-2.2-1-2.2-2.3zm3.6 0c0-.8-.5-1.5-1.4-1.5c-.8 0-1.3.7-1.3 1.5c0 .9.5 1.6 1.3 1.6c.9 0 1.4-.7 1.4-1.6zm1.6-3.4c0-.3.3-.5.6-.5c.2 0 .5.2.5.5c0 .3-.3.5-.5.5c-.3 0-.6-.2-.6-.5zm.2 1.3h.8v4.3h-.8v-4.3zm4.9 1.5c0-.7-.4-.9-.9-.9c-.5 0-1 .3-1.2.6c-.02 0 0 3.1 0 3.1h-.8v-4.3h.8s-.02.57 0 .6c.3-.4.8-.7 1.5-.7c.9 0 1.4.4 1.4 1.4v3h-.8v-2.8zm2.2 1.8c-.03.05 0-2.6 0-2.6h-.7v-.7h.7v-1.2h.8v1.2h.9v.7h-.9s-.02 2.47 0 2.5c0 .3.1.5.4.5c.2 0 .4-.1.4-.2l.3.6c-.2.2-.5.3-.9.3c-.7 0-1-.4-1-1.1zm4.4-1.2c0-1.2.9-2.2 2.2-2.2c1.4 0 2.2 1 2.2 2.2c0 1.3-.8 2.3-2.2 2.3c-1.3 0-2.2-1-2.2-2.3zm3.6 0c0-.8-.5-1.5-1.4-1.5c-.8 0-1.3.7-1.3 1.5c0 .9.5 1.6 1.3 1.6c.9 0 1.4-.7 1.4-1.6zm2-1.4h-.8v-.7h.8s-.04-.32 0-.3c0-1 .5-1.5 1.3-1.5c.3 0 .5.1.7.2l-.2.6c-.1-.1-.2-.1-.4-.1c-.4 0-.6.3-.6.8c-.03-.02 0 .3 0 .3h.9v.7h-.9v3.6h-.8v-3.6zm4.6-2.4h.9v6h-.9v-6zm5.1 3.2c0-.7-.4-.9-1-.9c-.5 0-.9.3-1.2.6c.03 0 0 3.1 0 3.1h-.8v-4.3h.8s.03.57 0 .6c.3-.4.9-.7 1.6-.7c.9 0 1.4.4 1.4 1.4c-.04-.04 0 3 0 3h-.8s-.04-2.77 0-2.8zm2.1 1.8c.02.05 0-2.6 0-2.6h-.7v-.7h.7v-1.2h.8v1.2h.9v.7h-.9s.03 2.47 0 2.5c0 .3.2.5.5.5c.1 0 .3-.1.4-.2l.2.6c-.2.2-.4.3-.8.3c-.7 0-1.1-.4-1.1-1.1zm4.4-3.4c1.3 0 2.1 1 2.1 2.3c.05 0 0 .2 0 .2h-3.4c.1.7.6 1.4 1.5 1.4c.4 0 1-.2 1.3-.6l.4.6c-.5.4-1.1.6-1.8.6c-1.3 0-2.2-.9-2.2-2.3c0-1.2.9-2.2 2.1-2.2zm-1.3 1.9h2.7c-.1-.6-.4-1.3-1.4-1.3c-.8 0-1.3.7-1.3 1.3zm4.4-1.8h.8v.6c.3-.4.8-.7 1.4-.7v.8h-.3c-.4 0-.9.3-1.1.6v3h-.8v-4.3zm4.8-.1c1.3 0 2.2 1 2.2 2.3c-.05 0 0 .2 0 .2h-3.5c.1.7.6 1.4 1.5 1.4c.4 0 1-.2 1.3-.6l.4.6c-.5.4-1.1.6-1.8.6c-1.3 0-2.2-.9-2.2-2.3c0-1.2.9-2.2 2.1-2.2zm-1.3 1.9h2.7c-.1-.6-.4-1.3-1.4-1.3c-.8 0-1.3.7-1.3 1.3zm4.4 1.3c.3.4.9.7 1.4.7c.7 0 1-.3 1-.7c0-.4-.5-.5-1.1-.7c-.7-.1-1.6-.3-1.6-1.3c0-.7.6-1.2 1.7-1.2c.7 0 1.3.2 1.6.6l-.3.5c-.3-.3-.8-.5-1.3-.5c-.6 0-.9.2-.9.6c0 .4.5.5 1 .6c.8.2 1.7.4 1.7 1.4c0 .7-.6 1.3-1.8 1.3c-.7 0-1.4-.2-1.8-.7l.4-.6zm4.3.2c-.04.05 0-2.6 0-2.6h-.8v-.7h.8v-1.2h.8v1.2h.9v.7h-.9s-.03 2.47 0 2.5c0 .3.1.5.4.5c.2 0 .4-.1.4-.2l.2.6c-.1.2-.4.3-.8.3c-.7 0-1-.4-1-1.1z" stroke="none" fill="#282828"/></g><g id="Polygon304188"><path d="m20.1 274.4c1.3 0 1.8 1.2 1.8 2.4c0 1.1-.5 2.4-1.8 2.4c-1.2 0-1.7-1.3-1.7-2.4c0-1.2.5-2.4 1.7-2.4zm0 .5c-.8 0-1.1.9-1.1 1.9c0 .9.3 1.9 1.1 1.9c.9 0 1.2-1 1.2-1.9c0-1-.3-1.9-1.2-1.9zm4.3-.5c1.2 0 1.7 1.2 1.7 2.4c0 1.1-.5 2.4-1.7 2.4c-1.3 0-1.8-1.3-1.8-2.4c0-1.2.5-2.4 1.8-2.4zm0 .5c-.9 0-1.2.9-1.2 1.9c0 .9.3 1.9 1.2 1.9c.8 0 1.1-1 1.1-1.9c0-1-.3-1.9-1.1-1.9zm8.3.3l-1.6 3.9h-.2l-1.6-3.9v3.9h-.6v-4.7h.8L31 278l1.4-3.6h.9v4.7h-.6v-3.9zm1.5-.4c0-.2.2-.3.3-.3c.2 0 .4.1.4.3c0 .2-.2.4-.4.4c-.1 0-.3-.2-.3-.4zm.1.9h.5v3.4h-.5v-3.4zm1.5-1.3h.5v4.7h-.5v-4.7zm3 1.2c1 0 1.6.8 1.6 1.9v.1h-2.8c.1.6.5 1.2 1.3 1.2c.4 0 .7-.2 1-.5l.3.4c-.4.3-.8.5-1.4.5c-1 0-1.7-.7-1.7-1.8c0-1 .7-1.8 1.7-1.8zm-1.2 1.6h2.3c0-.5-.4-1.1-1.1-1.1c-.8 0-1.1.6-1.2 1.1zm3.5 1.1c.3.2.7.5 1.2.5c.5 0 .8-.3.8-.6c0-.4-.5-.5-.9-.6c-.6-.1-1.2-.3-1.2-1c0-.5.4-1 1.2-1c.6 0 1 .3 1.3.5l-.3.4c-.2-.2-.5-.4-1-.4c-.4 0-.7.2-.7.5c0 .3.4.4.8.5c.6.2 1.3.3 1.3 1.1c0 .5-.5 1-1.4 1c-.5 0-1-.2-1.3-.5l.2-.4zm5-3.9h3.1v.6h-2.5v1.5h2.4v.5h-2.4v2.1h-.6v-4.7zm3.8 1.3h.5v.6c.3-.4.7-.6 1.1-.6v.5h-.2c-.3 0-.8.2-.9.5v2.4h-.5v-3.4zm2 1.7c0-1 .7-1.8 1.7-1.8c1 0 1.7.8 1.7 1.8c0 1-.7 1.8-1.7 1.8c-1 0-1.7-.8-1.7-1.8zm2.8 0c0-.7-.4-1.3-1.1-1.3c-.7 0-1.1.6-1.1 1.3c0 .7.4 1.3 1.1 1.3c.7 0 1.1-.6 1.1-1.3zm5.4-.6c0-.4-.2-.7-.6-.7c-.4 0-.7.3-.9.5v2.5h-.5s-.03-2.29 0-2.3c0-.4-.2-.7-.6-.7c-.4 0-.8.3-.9.5c-.04.04 0 2.5 0 2.5h-.6v-3.4h.6s-.04.52 0 .5c.1-.2.6-.6 1.1-.6c.5 0 .8.3.9.7c.2-.3.6-.7 1.1-.7c.6 0 .9.4.9 1.1c.04-.03 0 2.4 0 2.4h-.5s.02-2.29 0-2.3zm3.3 1.2c.4.4.9.7 1.5.7c.8 0 1.1-.5 1.1-.8c0-.6-.6-.7-1.2-.9c-.7-.2-1.6-.4-1.6-1.3c0-.8.7-1.3 1.7-1.3c.7 0 1.2.2 1.6.6l-.3.4c-.4-.3-.9-.5-1.4-.5c-.6 0-1 .3-1 .7c0 .5.6.6 1.2.8c.7.2 1.6.4 1.6 1.4c0 .7-.4 1.4-1.7 1.4c-.8 0-1.4-.3-1.8-.7l.3-.5zm6.3.6c-.3.3-.7.6-1.2.6c-.7 0-1.1-.3-1.1-1.1v-2.4h.5s.02 2.26 0 2.3c0 .6.3.7.8.7c.4 0 .8-.2 1-.5c-.03.01 0-2.5 0-2.5h.5v3.4h-.5s-.03-.47 0-.5zm1.5-4.2h.5v1.8c.3-.3.7-.6 1.1-.6c.9 0 1.5.7 1.5 1.8c0 1.1-.6 1.8-1.5 1.8c-.4 0-.8-.3-1.1-.6v.5h-.5v-4.7zm1.5 4.3c.7 0 1.1-.5 1.1-1.3c0-.7-.4-1.3-1.1-1.3c-.4 0-.8.3-1 .6v1.5c.2.3.6.5 1 .5zm2.3-3.9c0-.2.2-.3.4-.3c.2 0 .3.1.3.3c0 .2-.1.4-.3.4c-.2 0-.4-.2-.4-.4zm.7 4.6c0 .7-.4 1.1-1 1.1c-.2 0-.3 0-.4-.1l.1-.4h.2c.3 0 .5-.1.5-.6c.03.04 0-3.7 0-3.7h.6s-.04 3.74 0 3.7zm2.4-3.8c1 0 1.6.8 1.6 1.9c.03-.04 0 .1 0 .1H77c0 .6.5 1.2 1.2 1.2c.4 0 .8-.2 1.1-.5l.2.4c-.3.3-.8.5-1.3.5c-1 0-1.8-.7-1.8-1.8c0-1 .7-1.8 1.7-1.8zm-1.1 1.6h2.2c0-.5-.3-1.1-1.1-1.1c-.7 0-1.1.6-1.1 1.1zm5-1.6c.6 0 1 .3 1.2.6l-.3.4c-.2-.4-.5-.5-.9-.5c-.7 0-1.1.6-1.1 1.3c0 .8.4 1.3 1.1 1.3c.4 0 .7-.1.9-.4l.3.3c-.2.3-.6.6-1.2.6c-1 0-1.7-.8-1.7-1.8c0-1 .7-1.8 1.7-1.8zm2 2.8c.01 0 0-2.2 0-2.2h-.6v-.5h.6v-.9h.5v.9h.7v.5h-.7s.03 2.09 0 2.1c0 .2.1.4.4.4c.1 0 .3 0 .3-.1l.2.4c-.1.1-.3.2-.6.2c-.5 0-.8-.3-.8-.8zm3.6-4s1.93.04 1.9 0c1 0 1.5.7 1.5 1.4c0 .8-.6 1.5-1.5 1.5c.03-.05-1.3 0-1.3 0v1.8h-.6v-4.7zm1.9.6c-.04-.04-1.3 0-1.3 0v1.7s1.26.04 1.3 0c.5 0 .9-.3.9-.9c0-.5-.4-.8-.9-.8zm2.2.7h.5v.6c.3-.4.7-.6 1.1-.6v.5h-.2c-.3 0-.8.2-.9.5v2.4h-.5v-3.4zm2 1.7c0-1 .7-1.8 1.7-1.8c1 0 1.7.8 1.7 1.8c0 1-.7 1.8-1.7 1.8c-1 0-1.7-.8-1.7-1.8zm2.8 0c0-.7-.4-1.3-1.1-1.3c-.7 0-1.1.6-1.1 1.3c0 .7.4 1.3 1.1 1.3c.7 0 1.1-.6 1.1-1.3zm1.3 3v-4.7h.6s-.03.53 0 .5c.2-.3.6-.6 1.1-.6c.9 0 1.5.7 1.5 1.8c0 1.1-.6 1.8-1.5 1.8c-.5 0-.9-.2-1.1-.6c-.03 0 0 1.8 0 1.8h-.6zm1.6-4.3c-.4 0-.9.3-1 .6v1.5c.1.3.6.5 1 .5c.7 0 1.1-.5 1.1-1.3c0-.7-.4-1.3-1.1-1.3zm3.9-.5c1 0 1.6.8 1.6 1.9c-.02-.04 0 .1 0 .1h-2.8c.1.6.5 1.2 1.3 1.2c.3 0 .7-.2 1-.5l.3.4c-.4.3-.8.5-1.4.5c-1 0-1.7-.7-1.7-1.8c0-1 .7-1.8 1.7-1.8zm-1.2 1.6h2.3c0-.5-.4-1.1-1.1-1.1c-.8 0-1.1.6-1.2 1.1zm3.6-1.5h.5s-.02.57 0 .6c.3-.4.6-.6 1.1-.6v.5h-.2c-.3 0-.8.2-.9.5c-.02.02 0 2.4 0 2.4h-.5v-3.4zm2.3 2.7v-2.2h-.6v-.5h.6v-.9h.5v.9h.7v.5h-.7s.03 2.09 0 2.1c0 .2.1.4.4.4c.1 0 .3 0 .3-.1l.2.4c-.1.1-.3.2-.6.2c-.5 0-.8-.3-.8-.8zm2.1 1.6c.2 0 .4-.1.5-.3c-.03-.04.2-.6.2-.6l-1.4-3.4h.6l1.1 2.8l1.1-2.8h.6s-1.72 4.1-1.7 4.1c-.2.5-.6.7-1 .7c-.1 0-.3 0-.4-.1l.1-.4h.3z" stroke="none" fill="#888888"/></g><g id="Polygon304187"><path d="m20.8 261c1.6 0 2.3 1.6 2.3 3.1c0 1.5-.7 3.1-2.3 3.1c-1.7 0-2.4-1.6-2.4-3.1c0-1.5.7-3.1 2.4-3.1zm0 .8c-1.1 0-1.5 1.1-1.5 2.3c0 1.2.4 2.3 1.5 2.3c1 0 1.4-1.1 1.4-2.3c0-1.2-.4-2.3-1.4-2.3zm5.4-.8c1.7 0 2.3 1.6 2.3 3.1c0 1.5-.6 3.1-2.3 3.1c-1.7 0-2.3-1.6-2.3-3.1c0-1.5.6-3.1 2.3-3.1zm0 .8c-1.1 0-1.4 1.1-1.4 2.3c0 1.2.3 2.3 1.4 2.3c1.1 0 1.4-1.1 1.4-2.3c0-1.2-.3-2.3-1.4-2.3zm10.7.5l-1.9 4.8h-.4l-1.9-4.8v4.8h-.9v-6h1.3l1.7 4.3l1.7-4.3h1.3v6h-.9v-4.8zm2-.8c0-.3.3-.5.6-.5c.2 0 .5.2.5.5c0 .3-.3.5-.5.5c-.3 0-.6-.2-.6-.5zm.2 1.3h.8v4.3h-.8v-4.3zm4.9 1.5c0-.7-.4-.9-.9-.9c-.5 0-1 .3-1.2.6c-.02 0 0 3.1 0 3.1h-.8v-4.3h.8s-.02.57 0 .6c.3-.4.8-.7 1.5-.7c.9 0 1.4.4 1.4 1.4v3h-.8v-2.8zm4.3-3.2h2.1c1.9 0 3.1 1.3 3.1 3c0 1.8-1.2 3-3.1 3h-2.1v-6zm2.1 5.2c1.4 0 2.2-1 2.2-2.2c0-1.2-.8-2.2-2.2-2.2h-1.2v4.4s1.2.02 1.2 0zm4.1-3.5h.8v.6c.3-.4.8-.7 1.4-.7v.8h-.3c-.4 0-.9.3-1.1.6v3h-.8v-4.3zm2.8-1.3c0-.3.3-.5.5-.5c.3 0 .6.2.6.5c0 .3-.3.5-.6.5c-.2 0-.5-.2-.5-.5zm.1 1.3h.9v4.3h-.9v-4.3zm1.4 0h.9l1.3 3.4l1.4-3.4h.9l-1.8 4.3h-.9l-1.8-4.3zm6.9-.1c1.3 0 2.2 1 2.2 2.3c-.04 0 0 .2 0 .2h-3.5c.1.7.6 1.4 1.5 1.4c.5 0 1-.2 1.3-.6l.4.6c-.5.4-1.1.6-1.8.6c-1.3 0-2.2-.9-2.2-2.3c0-1.2.9-2.2 2.1-2.2zm-1.3 1.9h2.7c-.1-.6-.4-1.3-1.4-1.3c-.8 0-1.2.7-1.3 1.3z" stroke="none" fill="#282828"/></g><g id="Polygon304186"><path d="m1.1 253.7c.4.4.9.7 1.6.7c.8 0 1.3-.5 1.3-1.2c0-.7-.5-1.1-1.3-1.1c-.5 0-.9.1-1.3.5c-.01.01-.7-.2-.7-.2v-3.3h3.8v.8H1.6s.04 1.92 0 1.9c.3-.3.8-.5 1.4-.5c1 0 1.9.7 1.9 1.9c0 1.2-.9 2-2.2 2c-1 0-1.7-.3-2.2-.9l.6-.6zm5.2.4c.3 0 .6.2.6.5c0 .3-.3.6-.6.6c-.3 0-.5-.3-.5-.6c0-.3.2-.5.5-.5zm12.4-5s2.5.01 2.5 0c1.2 0 1.9.9 1.9 1.9c0 1-.7 1.8-1.9 1.8h-1.6v2.3h-.9v-6zm2.4.8h-1.5v2.1h1.5c.6 0 1.1-.4 1.1-1c0-.7-.5-1.1-1.1-1.1zm2.4 3c0-1.2.9-2.2 2.2-2.2c1.4 0 2.2 1 2.2 2.2c0 1.3-.8 2.3-2.2 2.3c-1.3 0-2.2-1-2.2-2.3zm3.6 0c0-.8-.5-1.5-1.4-1.5c-.8 0-1.3.7-1.3 1.5c0 .9.5 1.6 1.3 1.6c.9 0 1.4-.7 1.4-1.6zm1.6-3.4c0-.3.3-.5.6-.5c.2 0 .5.2.5.5c0 .3-.3.5-.5.5c-.3 0-.6-.2-.6-.5zm.2 1.3h.8v4.3h-.8v-4.3zm4.9 1.5c0-.7-.4-.9-.9-.9c-.5 0-1 .3-1.2.6c-.02 0 0 3.1 0 3.1h-.8v-4.3h.8s-.02.57 0 .6c.3-.4.8-.7 1.5-.7c.9 0 1.4.4 1.4 1.4v3h-.8v-2.8zm2.2 1.8c-.03.05 0-2.6 0-2.6h-.7v-.7h.7v-1.2h.8v1.2h.9v.7h-.9s-.02 2.47 0 2.5c0 .3.1.5.4.5c.2 0 .4-.1.4-.2l.3.6c-.2.2-.5.3-.9.3c-.7 0-1-.4-1-1.1zm4.4-1.2c0-1.2.9-2.2 2.2-2.2c1.4 0 2.2 1 2.2 2.2c0 1.3-.8 2.3-2.2 2.3c-1.3 0-2.2-1-2.2-2.3zm3.6 0c0-.8-.5-1.5-1.4-1.5c-.8 0-1.3.7-1.3 1.5c0 .9.5 1.6 1.3 1.6c.9 0 1.4-.7 1.4-1.6zm2-1.4h-.8v-.7h.8s-.04-.32 0-.3c0-1 .5-1.5 1.3-1.5c.3 0 .5.1.7.2l-.2.6c-.1-.1-.2-.1-.4-.1c-.4 0-.6.3-.6.8c-.03-.02 0 .3 0 .3h.9v.7h-.9v3.6h-.8v-3.6zm4.6-2.4h.9v6h-.9v-6zm5.1 3.2c0-.7-.4-.9-1-.9c-.5 0-.9.3-1.2.6c.03 0 0 3.1 0 3.1h-.8v-4.3h.8s.03.57 0 .6c.3-.4.9-.7 1.6-.7c.9 0 1.4.4 1.4 1.4c-.04-.04 0 3 0 3h-.8s-.04-2.77 0-2.8zm2.1 1.8c.02.05 0-2.6 0-2.6h-.7v-.7h.7v-1.2h.8v1.2h.9v.7h-.9s.03 2.47 0 2.5c0 .3.2.5.5.5c.1 0 .3-.1.4-.2l.2.6c-.2.2-.4.3-.8.3c-.7 0-1.1-.4-1.1-1.1zm4.4-3.4c1.3 0 2.1 1 2.1 2.3c.05 0 0 .2 0 .2h-3.4c.1.7.6 1.4 1.5 1.4c.4 0 1-.2 1.3-.6l.4.6c-.5.4-1.1.6-1.8.6c-1.3 0-2.2-.9-2.2-2.3c0-1.2.9-2.2 2.1-2.2zm-1.3 1.9h2.7c-.1-.6-.4-1.3-1.4-1.3c-.8 0-1.3.7-1.3 1.3zm4.4-1.8h.8v.6c.3-.4.8-.7 1.4-.7v.8h-.3c-.4 0-.9.3-1.1.6v3h-.8v-4.3zm4.8-.1c1.3 0 2.2 1 2.2 2.3c-.05 0 0 .2 0 .2h-3.5c.1.7.6 1.4 1.5 1.4c.4 0 1-.2 1.3-.6l.4.6c-.5.4-1.1.6-1.8.6c-1.3 0-2.2-.9-2.2-2.3c0-1.2.9-2.2 2.1-2.2zm-1.3 1.9h2.7c-.1-.6-.4-1.3-1.4-1.3c-.8 0-1.3.7-1.3 1.3zm4.4 1.3c.3.4.9.7 1.4.7c.7 0 1-.3 1-.7c0-.4-.5-.5-1.1-.7c-.7-.1-1.6-.3-1.6-1.3c0-.7.6-1.2 1.7-1.2c.7 0 1.3.2 1.6.6l-.3.5c-.3-.3-.8-.5-1.3-.5c-.6 0-.9.2-.9.6c0 .4.5.5 1 .6c.8.2 1.7.4 1.7 1.4c0 .7-.6 1.3-1.8 1.3c-.7 0-1.4-.2-1.8-.7l.4-.6zm4.3.2c-.04.05 0-2.6 0-2.6h-.8v-.7h.8v-1.2h.8v1.2h.9v.7h-.9s-.03 2.47 0 2.5c0 .3.1.5.4.5c.2 0 .4-.1.4-.2l.2.6c-.1.2-.4.3-.8.3c-.7 0-1-.4-1-1.1z" stroke="none" fill="#282828"/></g><g id="Polygon304185"><path d="m20.1 212.4c1.3 0 1.8 1.2 1.8 2.4c0 1.1-.5 2.4-1.8 2.4c-1.2 0-1.7-1.3-1.7-2.4c0-1.2.5-2.4 1.7-2.4zm0 .5c-.8 0-1.1.9-1.1 1.9c0 .9.3 1.9 1.1 1.9c.9 0 1.2-1 1.2-1.9c0-1-.3-1.9-1.2-1.9zm4.3-.5c1.2 0 1.7 1.2 1.7 2.4c0 1.1-.5 2.4-1.7 2.4c-1.3 0-1.8-1.3-1.8-2.4c0-1.2.5-2.4 1.8-2.4zm0 .5c-.9 0-1.2.9-1.2 1.9c0 .9.3 1.9 1.2 1.9c.8 0 1.1-1 1.1-1.9c0-1-.3-1.9-1.1-1.9zm8.3.3l-1.6 3.9h-.2l-1.6-3.9v3.9h-.6v-4.7h.8L31 216l1.4-3.6h.9v4.7h-.6v-3.9zm1.5-.4c0-.2.2-.3.3-.3c.2 0 .4.1.4.3c0 .2-.2.4-.4.4c-.1 0-.3-.2-.3-.4zm.1.9h.5v3.4h-.5v-3.4zm1.5-1.3h.5v4.7h-.5v-4.7zm3 1.2c1 0 1.6.8 1.6 1.9v.1h-2.8c.1.6.5 1.2 1.3 1.2c.4 0 .7-.2 1-.5l.3.4c-.4.3-.8.5-1.4.5c-1 0-1.7-.7-1.7-1.8c0-1 .7-1.8 1.7-1.8zm-1.2 1.6h2.3c0-.5-.4-1.1-1.1-1.1c-.8 0-1.1.6-1.2 1.1zm3.5 1.1c.3.2.7.5 1.2.5c.5 0 .8-.3.8-.6c0-.4-.5-.5-.9-.6c-.6-.1-1.2-.3-1.2-1c0-.5.4-1 1.2-1c.6 0 1 .3 1.3.5l-.3.4c-.2-.2-.5-.4-1-.4c-.4 0-.7.2-.7.5c0 .3.4.4.8.5c.6.2 1.3.3 1.3 1.1c0 .5-.5 1-1.4 1c-.5 0-1-.2-1.3-.5l.2-.4zm5-3.9h3.1v.6h-2.5v1.5h2.4v.5h-2.4v2.1h-.6v-4.7zm3.8 1.3h.5v.6c.3-.4.7-.6 1.1-.6v.5h-.2c-.3 0-.8.2-.9.5v2.4h-.5v-3.4zm2 1.7c0-1 .7-1.8 1.7-1.8c1 0 1.7.8 1.7 1.8c0 1-.7 1.8-1.7 1.8c-1 0-1.7-.8-1.7-1.8zm2.8 0c0-.7-.4-1.3-1.1-1.3c-.7 0-1.1.6-1.1 1.3c0 .7.4 1.3 1.1 1.3c.7 0 1.1-.6 1.1-1.3zm5.4-.6c0-.4-.2-.7-.6-.7c-.4 0-.7.3-.9.5v2.5h-.5s-.03-2.29 0-2.3c0-.4-.2-.7-.6-.7c-.4 0-.8.3-.9.5c-.04.04 0 2.5 0 2.5h-.6v-3.4h.6s-.04.52 0 .5c.1-.2.6-.6 1.1-.6c.5 0 .8.3.9.7c.2-.3.6-.7 1.1-.7c.6 0 .9.4.9 1.1c.04-.03 0 2.4 0 2.4h-.5s.02-2.29 0-2.3zm3.3 1.2c.4.4.9.7 1.5.7c.8 0 1.1-.5 1.1-.8c0-.6-.6-.7-1.2-.9c-.7-.2-1.6-.4-1.6-1.3c0-.8.7-1.3 1.7-1.3c.7 0 1.2.2 1.6.6l-.3.4c-.4-.3-.9-.5-1.4-.5c-.6 0-1 .3-1 .7c0 .5.6.6 1.2.8c.7.2 1.6.4 1.6 1.4c0 .7-.4 1.4-1.7 1.4c-.8 0-1.4-.3-1.8-.7l.3-.5zm6.3.6c-.3.3-.7.6-1.2.6c-.7 0-1.1-.3-1.1-1.1v-2.4h.5s.02 2.26 0 2.3c0 .6.3.7.8.7c.4 0 .8-.2 1-.5c-.03.01 0-2.5 0-2.5h.5v3.4h-.5s-.03-.47 0-.5zm1.5-4.2h.5v1.8c.3-.3.7-.6 1.1-.6c.9 0 1.5.7 1.5 1.8c0 1.1-.6 1.8-1.5 1.8c-.4 0-.8-.3-1.1-.6v.5h-.5v-4.7zm1.5 4.3c.7 0 1.1-.5 1.1-1.3c0-.7-.4-1.3-1.1-1.3c-.4 0-.8.3-1 .6v1.5c.2.3.6.5 1 .5zm2.3-3.9c0-.2.2-.3.4-.3c.2 0 .3.1.3.3c0 .2-.1.4-.3.4c-.2 0-.4-.2-.4-.4zm.7 4.6c0 .7-.4 1.1-1 1.1c-.2 0-.3 0-.4-.1l.1-.4h.2c.3 0 .5-.1.5-.6c.03.04 0-3.7 0-3.7h.6s-.04 3.74 0 3.7zm2.4-3.8c1 0 1.6.8 1.6 1.9c.03-.04 0 .1 0 .1H77c0 .6.5 1.2 1.2 1.2c.4 0 .8-.2 1.1-.5l.2.4c-.3.3-.8.5-1.3.5c-1 0-1.8-.7-1.8-1.8c0-1 .7-1.8 1.7-1.8zm-1.1 1.6h2.2c0-.5-.3-1.1-1.1-1.1c-.7 0-1.1.6-1.1 1.1zm5-1.6c.6 0 1 .3 1.2.6l-.3.4c-.2-.4-.5-.5-.9-.5c-.7 0-1.1.6-1.1 1.3c0 .8.4 1.3 1.1 1.3c.4 0 .7-.1.9-.4l.3.3c-.2.3-.6.6-1.2.6c-1 0-1.7-.8-1.7-1.8c0-1 .7-1.8 1.7-1.8zm2 2.8c.01 0 0-2.2 0-2.2h-.6v-.5h.6v-.9h.5v.9h.7v.5h-.7s.03 2.09 0 2.1c0 .2.1.4.4.4c.1 0 .3 0 .3-.1l.2.4c-.1.1-.3.2-.6.2c-.5 0-.8-.3-.8-.8zm3.6-4s1.93.04 1.9 0c1 0 1.5.7 1.5 1.4c0 .8-.6 1.5-1.5 1.5c.03-.05-1.3 0-1.3 0v1.8h-.6v-4.7zm1.9.6c-.04-.04-1.3 0-1.3 0v1.7s1.26.04 1.3 0c.5 0 .9-.3.9-.9c0-.5-.4-.8-.9-.8zm2.2.7h.5v.6c.3-.4.7-.6 1.1-.6v.5h-.2c-.3 0-.8.2-.9.5v2.4h-.5v-3.4zm2 1.7c0-1 .7-1.8 1.7-1.8c1 0 1.7.8 1.7 1.8c0 1-.7 1.8-1.7 1.8c-1 0-1.7-.8-1.7-1.8zm2.8 0c0-.7-.4-1.3-1.1-1.3c-.7 0-1.1.6-1.1 1.3c0 .7.4 1.3 1.1 1.3c.7 0 1.1-.6 1.1-1.3zm1.3 3v-4.7h.6s-.03.53 0 .5c.2-.3.6-.6 1.1-.6c.9 0 1.5.7 1.5 1.8c0 1.1-.6 1.8-1.5 1.8c-.5 0-.9-.2-1.1-.6c-.03 0 0 1.8 0 1.8h-.6zm1.6-4.3c-.4 0-.9.3-1 .6v1.5c.1.3.6.5 1 .5c.7 0 1.1-.5 1.1-1.3c0-.7-.4-1.3-1.1-1.3zm3.9-.5c1 0 1.6.8 1.6 1.9c-.02-.04 0 .1 0 .1h-2.8c.1.6.5 1.2 1.3 1.2c.3 0 .7-.2 1-.5l.3.4c-.4.3-.8.5-1.4.5c-1 0-1.7-.7-1.7-1.8c0-1 .7-1.8 1.7-1.8zm-1.2 1.6h2.3c0-.5-.4-1.1-1.1-1.1c-.8 0-1.1.6-1.2 1.1zm3.6-1.5h.5s-.02.57 0 .6c.3-.4.6-.6 1.1-.6v.5h-.2c-.3 0-.8.2-.9.5c-.02.02 0 2.4 0 2.4h-.5v-3.4zm2.3 2.7v-2.2h-.6v-.5h.6v-.9h.5v.9h.7v.5h-.7s.03 2.09 0 2.1c0 .2.1.4.4.4c.1 0 .3 0 .3-.1l.2.4c-.1.1-.3.2-.6.2c-.5 0-.8-.3-.8-.8zm2.1 1.6c.2 0 .4-.1.5-.3c-.03-.04.2-.6.2-.6l-1.4-3.4h.6l1.1 2.8l1.1-2.8h.6s-1.72 4.1-1.7 4.1c-.2.5-.6.7-1 .7c-.1 0-.3 0-.4-.1l.1-.4h.3z" stroke="none" fill="#888888"/></g><g id="Polygon304184"><path d="m20.8 199c1.6 0 2.3 1.6 2.3 3.1c0 1.5-.7 3.1-2.3 3.1c-1.7 0-2.4-1.6-2.4-3.1c0-1.5.7-3.1 2.4-3.1zm0 .8c-1.1 0-1.5 1.1-1.5 2.3c0 1.2.4 2.3 1.5 2.3c1 0 1.4-1.1 1.4-2.3c0-1.2-.4-2.3-1.4-2.3zm5.4-.8c1.7 0 2.3 1.6 2.3 3.1c0 1.5-.6 3.1-2.3 3.1c-1.7 0-2.3-1.6-2.3-3.1c0-1.5.6-3.1 2.3-3.1zm0 .8c-1.1 0-1.4 1.1-1.4 2.3c0 1.2.3 2.3 1.4 2.3c1.1 0 1.4-1.1 1.4-2.3c0-1.2-.3-2.3-1.4-2.3zm10.7.5l-1.9 4.8h-.4l-1.9-4.8v4.8h-.9v-6h1.3l1.7 4.3l1.7-4.3h1.3v6h-.9v-4.8zm2-.8c0-.3.3-.5.6-.5c.2 0 .5.2.5.5c0 .3-.3.5-.5.5c-.3 0-.6-.2-.6-.5zm.2 1.3h.8v4.3h-.8v-4.3zm4.9 1.5c0-.7-.4-.9-.9-.9c-.5 0-1 .3-1.2.6c-.02 0 0 3.1 0 3.1h-.8v-4.3h.8s-.02.57 0 .6c.3-.4.8-.7 1.5-.7c.9 0 1.4.4 1.4 1.4v3h-.8v-2.8zm4.3-3.2h2.1c1.9 0 3.1 1.3 3.1 3c0 1.8-1.2 3-3.1 3h-2.1v-6zm2.1 5.2c1.4 0 2.2-1 2.2-2.2c0-1.2-.8-2.2-2.2-2.2h-1.2v4.4s1.2.02 1.2 0zm4.1-3.5h.8v.6c.3-.4.8-.7 1.4-.7v.8h-.3c-.4 0-.9.3-1.1.6v3h-.8v-4.3zm2.8-1.3c0-.3.3-.5.5-.5c.3 0 .6.2.6.5c0 .3-.3.5-.6.5c-.2 0-.5-.2-.5-.5zm.1 1.3h.9v4.3h-.9v-4.3zm1.4 0h.9l1.3 3.4l1.4-3.4h.9l-1.8 4.3h-.9l-1.8-4.3zm6.9-.1c1.3 0 2.2 1 2.2 2.3c-.04 0 0 .2 0 .2h-3.5c.1.7.6 1.4 1.5 1.4c.5 0 1-.2 1.3-.6l.4.6c-.5.4-1.1.6-1.8.6c-1.3 0-2.2-.9-2.2-2.3c0-1.2.9-2.2 2.1-2.2zm-1.3 1.9h2.7c-.1-.6-.4-1.3-1.4-1.3c-.8 0-1.2.7-1.3 1.3z" stroke="none" fill="#282828"/></g><g id="Polygon304183"><path d="m3.1 191.7H.3v-.8l2.5-3.8h1.2v3.8h.9v.8h-.9v1.4h-.9v-1.4zm-1.9-.8h1.9v-3l-1.9 3zm4.9 1.2c.3 0 .6.2.6.5c0 .3-.3.6-.6.6c-.3 0-.6-.3-.6-.6c0-.3.3-.5.6-.5zm12.6-5s2.5.01 2.5 0c1.2 0 1.9.9 1.9 1.9c0 1-.7 1.8-1.9 1.8h-1.6v2.3h-.9v-6zm2.4.8h-1.5v2.1h1.5c.6 0 1.1-.4 1.1-1c0-.7-.5-1.1-1.1-1.1zm2.4 3c0-1.2.9-2.2 2.2-2.2c1.4 0 2.2 1 2.2 2.2c0 1.3-.8 2.3-2.2 2.3c-1.3 0-2.2-1-2.2-2.3zm3.6 0c0-.8-.5-1.5-1.4-1.5c-.8 0-1.3.7-1.3 1.5c0 .9.5 1.6 1.3 1.6c.9 0 1.4-.7 1.4-1.6zm1.6-3.4c0-.3.3-.5.6-.5c.2 0 .5.2.5.5c0 .3-.3.5-.5.5c-.3 0-.6-.2-.6-.5zm.2 1.3h.8v4.3h-.8v-4.3zm4.9 1.5c0-.7-.4-.9-.9-.9c-.5 0-1 .3-1.2.6c-.02 0 0 3.1 0 3.1h-.8v-4.3h.8s-.02.57 0 .6c.3-.4.8-.7 1.5-.7c.9 0 1.4.4 1.4 1.4v3h-.8v-2.8zm2.2 1.8c-.03.05 0-2.6 0-2.6h-.7v-.7h.7v-1.2h.8v1.2h.9v.7h-.9s-.02 2.47 0 2.5c0 .3.1.5.4.5c.2 0 .4-.1.4-.2l.3.6c-.2.2-.5.3-.9.3c-.7 0-1-.4-1-1.1zm4.4-1.2c0-1.2.9-2.2 2.2-2.2c1.4 0 2.2 1 2.2 2.2c0 1.3-.8 2.3-2.2 2.3c-1.3 0-2.2-1-2.2-2.3zm3.6 0c0-.8-.5-1.5-1.4-1.5c-.8 0-1.3.7-1.3 1.5c0 .9.5 1.6 1.3 1.6c.9 0 1.4-.7 1.4-1.6zm2-1.4h-.8v-.7h.8s-.04-.32 0-.3c0-1 .5-1.5 1.3-1.5c.3 0 .5.1.7.2l-.2.6c-.1-.1-.2-.1-.4-.1c-.4 0-.6.3-.6.8c-.03-.02 0 .3 0 .3h.9v.7h-.9v3.6h-.8v-3.6zm4.6-2.4h.9v6h-.9v-6zm5.1 3.2c0-.7-.4-.9-1-.9c-.5 0-.9.3-1.2.6c.03 0 0 3.1 0 3.1h-.8v-4.3h.8s.03.57 0 .6c.3-.4.9-.7 1.6-.7c.9 0 1.4.4 1.4 1.4c-.04-.04 0 3 0 3h-.8s-.04-2.77 0-2.8zm2.1 1.8c.02.05 0-2.6 0-2.6h-.7v-.7h.7v-1.2h.8v1.2h.9v.7h-.9s.03 2.47 0 2.5c0 .3.2.5.5.5c.1 0 .3-.1.4-.2l.2.6c-.2.2-.4.3-.8.3c-.7 0-1.1-.4-1.1-1.1zm4.4-3.4c1.3 0 2.1 1 2.1 2.3c.05 0 0 .2 0 .2h-3.4c.1.7.6 1.4 1.5 1.4c.4 0 1-.2 1.3-.6l.4.6c-.5.4-1.1.6-1.8.6c-1.3 0-2.2-.9-2.2-2.3c0-1.2.9-2.2 2.1-2.2zm-1.3 1.9h2.7c-.1-.6-.4-1.3-1.4-1.3c-.8 0-1.3.7-1.3 1.3zm4.4-1.8h.8v.6c.3-.4.8-.7 1.4-.7v.8h-.3c-.4 0-.9.3-1.1.6v3h-.8v-4.3zm4.8-.1c1.3 0 2.2 1 2.2 2.3c-.05 0 0 .2 0 .2h-3.5c.1.7.6 1.4 1.5 1.4c.4 0 1-.2 1.3-.6l.4.6c-.5.4-1.1.6-1.8.6c-1.3 0-2.2-.9-2.2-2.3c0-1.2.9-2.2 2.1-2.2zm-1.3 1.9h2.7c-.1-.6-.4-1.3-1.4-1.3c-.8 0-1.3.7-1.3 1.3zm4.4 1.3c.3.4.9.7 1.4.7c.7 0 1-.3 1-.7c0-.4-.5-.5-1.1-.7c-.7-.1-1.6-.3-1.6-1.3c0-.7.6-1.2 1.7-1.2c.7 0 1.3.2 1.6.6l-.3.5c-.3-.3-.8-.5-1.3-.5c-.6 0-.9.2-.9.6c0 .4.5.5 1 .6c.8.2 1.7.4 1.7 1.4c0 .7-.6 1.3-1.8 1.3c-.7 0-1.4-.2-1.8-.7l.4-.6zm4.3.2c-.04.05 0-2.6 0-2.6h-.8v-.7h.8v-1.2h.8v1.2h.9v.7h-.9s-.03 2.47 0 2.5c0 .3.1.5.4.5c.2 0 .4-.1.4-.2l.2.6c-.1.2-.4.3-.8.3c-.7 0-1-.4-1-1.1z" stroke="none" fill="#282828"/></g><g id="Polygon304182"><path d="m20.1 150.4c1.3 0 1.8 1.2 1.8 2.4c0 1.1-.5 2.4-1.8 2.4c-1.2 0-1.7-1.3-1.7-2.4c0-1.2.5-2.4 1.7-2.4zm0 .5c-.8 0-1.1.9-1.1 1.9c0 .9.3 1.9 1.1 1.9c.9 0 1.2-1 1.2-1.9c0-1-.3-1.9-1.2-1.9zm4.3-.5c1.2 0 1.7 1.2 1.7 2.4c0 1.1-.5 2.4-1.7 2.4c-1.3 0-1.8-1.3-1.8-2.4c0-1.2.5-2.4 1.8-2.4zm0 .5c-.9 0-1.2.9-1.2 1.9c0 .9.3 1.9 1.2 1.9c.8 0 1.1-1 1.1-1.9c0-1-.3-1.9-1.1-1.9zm8.3.3l-1.6 3.9h-.2l-1.6-3.9v3.9h-.6v-4.7h.8L31 154l1.4-3.6h.9v4.7h-.6v-3.9zm1.5-.4c0-.2.2-.3.3-.3c.2 0 .4.1.4.3c0 .2-.2.4-.4.4c-.1 0-.3-.2-.3-.4zm.1.9h.5v3.4h-.5v-3.4zm1.5-1.3h.5v4.7h-.5v-4.7zm3 1.2c1 0 1.6.8 1.6 1.9v.1h-2.8c.1.6.5 1.2 1.3 1.2c.4 0 .7-.2 1-.5l.3.4c-.4.3-.8.5-1.4.5c-1 0-1.7-.7-1.7-1.8c0-1 .7-1.8 1.7-1.8zm-1.2 1.6h2.3c0-.5-.4-1.1-1.1-1.1c-.8 0-1.1.6-1.2 1.1zm3.5 1.1c.3.2.7.5 1.2.5c.5 0 .8-.3.8-.6c0-.4-.5-.5-.9-.6c-.6-.1-1.2-.3-1.2-1c0-.5.4-1 1.2-1c.6 0 1 .3 1.3.5l-.3.4c-.2-.2-.5-.4-1-.4c-.4 0-.7.2-.7.5c0 .3.4.4.8.5c.6.2 1.3.3 1.3 1.1c0 .5-.5 1-1.4 1c-.5 0-1-.2-1.3-.5l.2-.4zm5-3.9h3.1v.6h-2.5v1.5h2.4v.5h-2.4v2.1h-.6v-4.7zm3.8 1.3h.5v.6c.3-.4.7-.6 1.1-.6v.5h-.2c-.3 0-.8.2-.9.5v2.4h-.5v-3.4zm2 1.7c0-1 .7-1.8 1.7-1.8c1 0 1.7.8 1.7 1.8c0 1-.7 1.8-1.7 1.8c-1 0-1.7-.8-1.7-1.8zm2.8 0c0-.7-.4-1.3-1.1-1.3c-.7 0-1.1.6-1.1 1.3c0 .7.4 1.3 1.1 1.3c.7 0 1.1-.6 1.1-1.3zm5.4-.6c0-.4-.2-.7-.6-.7c-.4 0-.7.3-.9.5v2.5h-.5s-.03-2.29 0-2.3c0-.4-.2-.7-.6-.7c-.4 0-.8.3-.9.5c-.04.04 0 2.5 0 2.5h-.6v-3.4h.6s-.04.52 0 .5c.1-.2.6-.6 1.1-.6c.5 0 .8.3.9.7c.2-.3.6-.7 1.1-.7c.6 0 .9.4.9 1.1c.04-.03 0 2.4 0 2.4h-.5s.02-2.29 0-2.3zm3.3 1.2c.4.4.9.7 1.5.7c.8 0 1.1-.5 1.1-.8c0-.6-.6-.7-1.2-.9c-.7-.2-1.6-.4-1.6-1.3c0-.8.7-1.3 1.7-1.3c.7 0 1.2.2 1.6.6l-.3.4c-.4-.3-.9-.5-1.4-.5c-.6 0-1 .3-1 .7c0 .5.6.6 1.2.8c.7.2 1.6.4 1.6 1.4c0 .7-.4 1.4-1.7 1.4c-.8 0-1.4-.3-1.8-.7l.3-.5zm6.3.6c-.3.3-.7.6-1.2.6c-.7 0-1.1-.3-1.1-1.1v-2.4h.5s.02 2.26 0 2.3c0 .6.3.7.8.7c.4 0 .8-.2 1-.5c-.03.01 0-2.5 0-2.5h.5v3.4h-.5s-.03-.47 0-.5zm1.5-4.2h.5v1.8c.3-.3.7-.6 1.1-.6c.9 0 1.5.7 1.5 1.8c0 1.1-.6 1.8-1.5 1.8c-.4 0-.8-.3-1.1-.6v.5h-.5v-4.7zm1.5 4.3c.7 0 1.1-.5 1.1-1.3c0-.7-.4-1.3-1.1-1.3c-.4 0-.8.3-1 .6v1.5c.2.3.6.5 1 .5zm2.3-3.9c0-.2.2-.3.4-.3c.2 0 .3.1.3.3c0 .2-.1.4-.3.4c-.2 0-.4-.2-.4-.4zm.7 4.6c0 .7-.4 1.1-1 1.1c-.2 0-.3 0-.4-.1l.1-.4h.2c.3 0 .5-.1.5-.6c.03.04 0-3.7 0-3.7h.6s-.04 3.74 0 3.7zm2.4-3.8c1 0 1.6.8 1.6 1.9c.03-.04 0 .1 0 .1H77c0 .6.5 1.2 1.2 1.2c.4 0 .8-.2 1.1-.5l.2.4c-.3.3-.8.5-1.3.5c-1 0-1.8-.7-1.8-1.8c0-1 .7-1.8 1.7-1.8zm-1.1 1.6h2.2c0-.5-.3-1.1-1.1-1.1c-.7 0-1.1.6-1.1 1.1zm5-1.6c.6 0 1 .3 1.2.6l-.3.4c-.2-.4-.5-.5-.9-.5c-.7 0-1.1.6-1.1 1.3c0 .8.4 1.3 1.1 1.3c.4 0 .7-.1.9-.4l.3.3c-.2.3-.6.6-1.2.6c-1 0-1.7-.8-1.7-1.8c0-1 .7-1.8 1.7-1.8zm2 2.8c.01 0 0-2.2 0-2.2h-.6v-.5h.6v-.9h.5v.9h.7v.5h-.7s.03 2.09 0 2.1c0 .2.1.4.4.4c.1 0 .3 0 .3-.1l.2.4c-.1.1-.3.2-.6.2c-.5 0-.8-.3-.8-.8zm3.6-4s1.93.04 1.9 0c1 0 1.5.7 1.5 1.4c0 .8-.6 1.5-1.5 1.5c.03-.05-1.3 0-1.3 0v1.8h-.6v-4.7zm1.9.6c-.04-.04-1.3 0-1.3 0v1.7s1.26.04 1.3 0c.5 0 .9-.3.9-.9c0-.5-.4-.8-.9-.8zm2.2.7h.5v.6c.3-.4.7-.6 1.1-.6v.5h-.2c-.3 0-.8.2-.9.5v2.4h-.5v-3.4zm2 1.7c0-1 .7-1.8 1.7-1.8c1 0 1.7.8 1.7 1.8c0 1-.7 1.8-1.7 1.8c-1 0-1.7-.8-1.7-1.8zm2.8 0c0-.7-.4-1.3-1.1-1.3c-.7 0-1.1.6-1.1 1.3c0 .7.4 1.3 1.1 1.3c.7 0 1.1-.6 1.1-1.3zm1.3 3v-4.7h.6s-.03.53 0 .5c.2-.3.6-.6 1.1-.6c.9 0 1.5.7 1.5 1.8c0 1.1-.6 1.8-1.5 1.8c-.5 0-.9-.2-1.1-.6c-.03 0 0 1.8 0 1.8h-.6zm1.6-4.3c-.4 0-.9.3-1 .6v1.5c.1.3.6.5 1 .5c.7 0 1.1-.5 1.1-1.3c0-.7-.4-1.3-1.1-1.3zm3.9-.5c1 0 1.6.8 1.6 1.9c-.02-.04 0 .1 0 .1h-2.8c.1.6.5 1.2 1.3 1.2c.3 0 .7-.2 1-.5l.3.4c-.4.3-.8.5-1.4.5c-1 0-1.7-.7-1.7-1.8c0-1 .7-1.8 1.7-1.8zm-1.2 1.6h2.3c0-.5-.4-1.1-1.1-1.1c-.8 0-1.1.6-1.2 1.1zm3.6-1.5h.5s-.02.57 0 .6c.3-.4.6-.6 1.1-.6v.5h-.2c-.3 0-.8.2-.9.5c-.02.02 0 2.4 0 2.4h-.5v-3.4zm2.3 2.7v-2.2h-.6v-.5h.6v-.9h.5v.9h.7v.5h-.7s.03 2.09 0 2.1c0 .2.1.4.4.4c.1 0 .3 0 .3-.1l.2.4c-.1.1-.3.2-.6.2c-.5 0-.8-.3-.8-.8zm2.1 1.6c.2 0 .4-.1.5-.3c-.03-.04.2-.6.2-.6l-1.4-3.4h.6l1.1 2.8l1.1-2.8h.6s-1.72 4.1-1.7 4.1c-.2.5-.6.7-1 .7c-.1 0-.3 0-.4-.1l.1-.4h.3z" stroke="none" fill="#888888"/></g><g id="Polygon304181"><path d="m20.8 137c1.6 0 2.3 1.6 2.3 3.1c0 1.5-.7 3.1-2.3 3.1c-1.7 0-2.4-1.6-2.4-3.1c0-1.5.7-3.1 2.4-3.1zm0 .8c-1.1 0-1.5 1.1-1.5 2.3c0 1.2.4 2.3 1.5 2.3c1 0 1.4-1.1 1.4-2.3c0-1.2-.4-2.3-1.4-2.3zm5.4-.8c1.7 0 2.3 1.6 2.3 3.1c0 1.5-.6 3.1-2.3 3.1c-1.7 0-2.3-1.6-2.3-3.1c0-1.5.6-3.1 2.3-3.1zm0 .8c-1.1 0-1.4 1.1-1.4 2.3c0 1.2.3 2.3 1.4 2.3c1.1 0 1.4-1.1 1.4-2.3c0-1.2-.3-2.3-1.4-2.3zm10.7.5l-1.9 4.8h-.4l-1.9-4.8v4.8h-.9v-6h1.3l1.7 4.3l1.7-4.3h1.3v6h-.9v-4.8zm2-.8c0-.3.3-.5.6-.5c.2 0 .5.2.5.5c0 .3-.3.5-.5.5c-.3 0-.6-.2-.6-.5zm.2 1.3h.8v4.3h-.8v-4.3zm4.9 1.5c0-.7-.4-.9-.9-.9c-.5 0-1 .3-1.2.6c-.02 0 0 3.1 0 3.1h-.8v-4.3h.8s-.02.57 0 .6c.3-.4.8-.7 1.5-.7c.9 0 1.4.4 1.4 1.4v3h-.8v-2.8zm4.3-3.2h2.1c1.9 0 3.1 1.3 3.1 3c0 1.8-1.2 3-3.1 3h-2.1v-6zm2.1 5.2c1.4 0 2.2-1 2.2-2.2c0-1.2-.8-2.2-2.2-2.2h-1.2v4.4s1.2.02 1.2 0zm4.1-3.5h.8v.6c.3-.4.8-.7 1.4-.7v.8h-.3c-.4 0-.9.3-1.1.6v3h-.8v-4.3zm2.8-1.3c0-.3.3-.5.5-.5c.3 0 .6.2.6.5c0 .3-.3.5-.6.5c-.2 0-.5-.2-.5-.5zm.1 1.3h.9v4.3h-.9v-4.3zm1.4 0h.9l1.3 3.4l1.4-3.4h.9l-1.8 4.3h-.9l-1.8-4.3zm6.9-.1c1.3 0 2.2 1 2.2 2.3c-.04 0 0 .2 0 .2h-3.5c.1.7.6 1.4 1.5 1.4c.5 0 1-.2 1.3-.6l.4.6c-.5.4-1.1.6-1.8.6c-1.3 0-2.2-.9-2.2-2.3c0-1.2.9-2.2 2.1-2.2zm-1.3 1.9h2.7c-.1-.6-.4-1.3-1.4-1.3c-.8 0-1.2.7-1.3 1.3z" stroke="none" fill="#282828"/></g><g id="Polygon304180"><path d="m.7 129.7c.4.4 1 .7 1.7.7c.8 0 1.3-.4 1.3-1c0-.7-.5-1-1.4-1c-.2 0-.5 0-.6.1v-.9h.6c.8 0 1.3-.2 1.3-.8c0-.7-.5-1-1.2-1c-.7 0-1.2.3-1.6.7l-.5-.5c.5-.6 1.2-1 2.1-1c1.3 0 2.1.6 2.1 1.6c0 .9-.7 1.3-1.3 1.4c.6.1 1.4.5 1.4 1.5c0 1-.8 1.7-2.2 1.7c-1 0-1.8-.4-2.2-1l.5-.5zm5.4.4c.3 0 .5.2.5.5c0 .3-.2.6-.5.6c-.3 0-.6-.3-.6-.6c0-.3.3-.5.6-.5zm12.6-5s2.5.01 2.5 0c1.2 0 1.9.9 1.9 1.9c0 1-.7 1.8-1.9 1.8h-1.6v2.3h-.9v-6zm2.4.8h-1.5v2.1h1.5c.6 0 1.1-.4 1.1-1c0-.7-.5-1.1-1.1-1.1zm2.4 3c0-1.2.9-2.2 2.2-2.2c1.4 0 2.2 1 2.2 2.2c0 1.3-.8 2.3-2.2 2.3c-1.3 0-2.2-1-2.2-2.3zm3.6 0c0-.8-.5-1.5-1.4-1.5c-.8 0-1.3.7-1.3 1.5c0 .9.5 1.6 1.3 1.6c.9 0 1.4-.7 1.4-1.6zm1.6-3.4c0-.3.3-.5.6-.5c.2 0 .5.2.5.5c0 .3-.3.5-.5.5c-.3 0-.6-.2-.6-.5zm.2 1.3h.8v4.3h-.8v-4.3zm4.9 1.5c0-.7-.4-.9-.9-.9c-.5 0-1 .3-1.2.6c-.02 0 0 3.1 0 3.1h-.8v-4.3h.8s-.02.57 0 .6c.3-.4.8-.7 1.5-.7c.9 0 1.4.4 1.4 1.4v3h-.8v-2.8zm2.2 1.8c-.03.05 0-2.6 0-2.6h-.7v-.7h.7v-1.2h.8v1.2h.9v.7h-.9s-.02 2.47 0 2.5c0 .3.1.5.4.5c.2 0 .4-.1.4-.2l.3.6c-.2.2-.5.3-.9.3c-.7 0-1-.4-1-1.1zm4.4-1.2c0-1.2.9-2.2 2.2-2.2c1.4 0 2.2 1 2.2 2.2c0 1.3-.8 2.3-2.2 2.3c-1.3 0-2.2-1-2.2-2.3zm3.6 0c0-.8-.5-1.5-1.4-1.5c-.8 0-1.3.7-1.3 1.5c0 .9.5 1.6 1.3 1.6c.9 0 1.4-.7 1.4-1.6zm2-1.4h-.8v-.7h.8s-.04-.32 0-.3c0-1 .5-1.5 1.3-1.5c.3 0 .5.1.7.2l-.2.6c-.1-.1-.2-.1-.4-.1c-.4 0-.6.3-.6.8c-.03-.02 0 .3 0 .3h.9v.7h-.9v3.6h-.8v-3.6zm4.6-2.4h.9v6h-.9v-6zm5.1 3.2c0-.7-.4-.9-1-.9c-.5 0-.9.3-1.2.6c.03 0 0 3.1 0 3.1h-.8v-4.3h.8s.03.57 0 .6c.3-.4.9-.7 1.6-.7c.9 0 1.4.4 1.4 1.4c-.04-.04 0 3 0 3h-.8s-.04-2.77 0-2.8zm2.1 1.8c.02.05 0-2.6 0-2.6h-.7v-.7h.7v-1.2h.8v1.2h.9v.7h-.9s.03 2.47 0 2.5c0 .3.2.5.5.5c.1 0 .3-.1.4-.2l.2.6c-.2.2-.4.3-.8.3c-.7 0-1.1-.4-1.1-1.1zm4.4-3.4c1.3 0 2.1 1 2.1 2.3c.05 0 0 .2 0 .2h-3.4c.1.7.6 1.4 1.5 1.4c.4 0 1-.2 1.3-.6l.4.6c-.5.4-1.1.6-1.8.6c-1.3 0-2.2-.9-2.2-2.3c0-1.2.9-2.2 2.1-2.2zm-1.3 1.9h2.7c-.1-.6-.4-1.3-1.4-1.3c-.8 0-1.3.7-1.3 1.3zm4.4-1.8h.8v.6c.3-.4.8-.7 1.4-.7v.8h-.3c-.4 0-.9.3-1.1.6v3h-.8v-4.3zm4.8-.1c1.3 0 2.2 1 2.2 2.3c-.05 0 0 .2 0 .2h-3.5c.1.7.6 1.4 1.5 1.4c.4 0 1-.2 1.3-.6l.4.6c-.5.4-1.1.6-1.8.6c-1.3 0-2.2-.9-2.2-2.3c0-1.2.9-2.2 2.1-2.2zm-1.3 1.9h2.7c-.1-.6-.4-1.3-1.4-1.3c-.8 0-1.3.7-1.3 1.3zm4.4 1.3c.3.4.9.7 1.4.7c.7 0 1-.3 1-.7c0-.4-.5-.5-1.1-.7c-.7-.1-1.6-.3-1.6-1.3c0-.7.6-1.2 1.7-1.2c.7 0 1.3.2 1.6.6l-.3.5c-.3-.3-.8-.5-1.3-.5c-.6 0-.9.2-.9.6c0 .4.5.5 1 .6c.8.2 1.7.4 1.7 1.4c0 .7-.6 1.3-1.8 1.3c-.7 0-1.4-.2-1.8-.7l.4-.6zm4.3.2c-.04.05 0-2.6 0-2.6h-.8v-.7h.8v-1.2h.8v1.2h.9v.7h-.9s-.03 2.47 0 2.5c0 .3.1.5.4.5c.2 0 .4-.1.4-.2l.2.6c-.1.2-.4.3-.8.3c-.7 0-1-.4-1-1.1z" stroke="none" fill="#282828"/></g><g id="Polygon304179"><path d="m20.1 88.4c1.3 0 1.8 1.2 1.8 2.4c0 1.1-.5 2.4-1.8 2.4c-1.2 0-1.7-1.3-1.7-2.4c0-1.2.5-2.4 1.7-2.4zm0 .5c-.8 0-1.1.9-1.1 1.9c0 .9.3 1.9 1.1 1.9c.9 0 1.2-1 1.2-1.9c0-1-.3-1.9-1.2-1.9zm4.3-.5c1.2 0 1.7 1.2 1.7 2.4c0 1.1-.5 2.4-1.7 2.4c-1.3 0-1.8-1.3-1.8-2.4c0-1.2.5-2.4 1.8-2.4zm0 .5c-.9 0-1.2.9-1.2 1.9c0 .9.3 1.9 1.2 1.9c.8 0 1.1-1 1.1-1.9c0-1-.3-1.9-1.1-1.9zm8.3.3l-1.6 3.9h-.2l-1.6-3.9v3.9h-.6v-4.7h.8L31 92l1.4-3.6h.9v4.7h-.6v-3.9zm1.5-.4c0-.2.2-.3.3-.3c.2 0 .4.1.4.3c0 .2-.2.4-.4.4c-.1 0-.3-.2-.3-.4zm.1.9h.5v3.4h-.5v-3.4zm1.5-1.3h.5v4.7h-.5v-4.7zm3 1.2c1 0 1.6.8 1.6 1.9v.1h-2.8c.1.6.5 1.2 1.3 1.2c.4 0 .7-.2 1-.5l.3.4c-.4.3-.8.5-1.4.5c-1 0-1.7-.7-1.7-1.8c0-1 .7-1.8 1.7-1.8zm-1.2 1.6h2.3c0-.5-.4-1.1-1.1-1.1c-.8 0-1.1.6-1.2 1.1zm3.5 1.1c.3.2.7.5 1.2.5c.5 0 .8-.3.8-.6c0-.4-.5-.5-.9-.6c-.6-.1-1.2-.3-1.2-1c0-.5.4-1 1.2-1c.6 0 1 .3 1.3.5l-.3.4c-.2-.2-.5-.4-1-.4c-.4 0-.7.2-.7.5c0 .3.4.4.8.5c.6.2 1.3.3 1.3 1.1c0 .5-.5 1-1.4 1c-.5 0-1-.2-1.3-.5l.2-.4zm5-3.9h3.1v.6h-2.5v1.5h2.4v.5h-2.4v2.1h-.6v-4.7zm3.8 1.3h.5v.6c.3-.4.7-.6 1.1-.6v.5h-.2c-.3 0-.8.2-.9.5v2.4h-.5v-3.4zm2 1.7c0-1 .7-1.8 1.7-1.8c1 0 1.7.8 1.7 1.8c0 1-.7 1.8-1.7 1.8c-1 0-1.7-.8-1.7-1.8zm2.8 0c0-.7-.4-1.3-1.1-1.3c-.7 0-1.1.6-1.1 1.3c0 .7.4 1.3 1.1 1.3c.7 0 1.1-.6 1.1-1.3zm5.4-.6c0-.4-.2-.7-.6-.7c-.4 0-.7.3-.9.5v2.5h-.5s-.03-2.29 0-2.3c0-.4-.2-.7-.6-.7c-.4 0-.8.3-.9.5c-.04.04 0 2.5 0 2.5h-.6v-3.4h.6s-.04.52 0 .5c.1-.2.6-.6 1.1-.6c.5 0 .8.3.9.7c.2-.3.6-.7 1.1-.7c.6 0 .9.4.9 1.1c.04-.03 0 2.4 0 2.4h-.5s.02-2.29 0-2.3zm3.3 1.2c.4.4.9.7 1.5.7c.8 0 1.1-.5 1.1-.8c0-.6-.6-.7-1.2-.9c-.7-.2-1.6-.4-1.6-1.3c0-.8.7-1.3 1.7-1.3c.7 0 1.2.2 1.6.6l-.3.4c-.4-.3-.9-.5-1.4-.5c-.6 0-1 .3-1 .7c0 .5.6.6 1.2.8c.7.2 1.6.4 1.6 1.4c0 .7-.4 1.4-1.7 1.4c-.8 0-1.4-.3-1.8-.7l.3-.5zm6.3.6c-.3.3-.7.6-1.2.6c-.7 0-1.1-.3-1.1-1.1v-2.4h.5s.02 2.26 0 2.3c0 .6.3.7.8.7c.4 0 .8-.2 1-.5c-.03.01 0-2.5 0-2.5h.5v3.4h-.5s-.03-.47 0-.5zm1.5-4.2h.5v1.8c.3-.3.7-.6 1.1-.6c.9 0 1.5.7 1.5 1.8c0 1.1-.6 1.8-1.5 1.8c-.4 0-.8-.3-1.1-.6v.5h-.5v-4.7zm1.5 4.3c.7 0 1.1-.5 1.1-1.3c0-.7-.4-1.3-1.1-1.3c-.4 0-.8.3-1 .6v1.5c.2.3.6.5 1 .5zm2.3-3.9c0-.2.2-.3.4-.3c.2 0 .3.1.3.3c0 .2-.1.4-.3.4c-.2 0-.4-.2-.4-.4zm.7 4.6c0 .7-.4 1.1-1 1.1c-.2 0-.3 0-.4-.1l.1-.4h.2c.3 0 .5-.1.5-.6c.03.04 0-3.7 0-3.7h.6s-.04 3.74 0 3.7zm2.4-3.8c1 0 1.6.8 1.6 1.9c.03-.04 0 .1 0 .1H77c0 .6.5 1.2 1.2 1.2c.4 0 .8-.2 1.1-.5l.2.4c-.3.3-.8.5-1.3.5c-1 0-1.8-.7-1.8-1.8c0-1 .7-1.8 1.7-1.8zM77 91.2h2.2c0-.5-.3-1.1-1.1-1.1c-.7 0-1.1.6-1.1 1.1zm5-1.6c.6 0 1 .3 1.2.6l-.3.4c-.2-.4-.5-.5-.9-.5c-.7 0-1.1.6-1.1 1.3c0 .8.4 1.3 1.1 1.3c.4 0 .7-.1.9-.4l.3.3c-.2.3-.6.6-1.2.6c-1 0-1.7-.8-1.7-1.8c0-1 .7-1.8 1.7-1.8zm2 2.8c.01 0 0-2.2 0-2.2h-.6v-.5h.6v-.9h.5v.9h.7v.5h-.7s.03 2.09 0 2.1c0 .2.1.4.4.4c.1 0 .3 0 .3-.1l.2.4c-.1.1-.3.2-.6.2c-.5 0-.8-.3-.8-.8zm3.6-4s1.93.04 1.9 0c1 0 1.5.7 1.5 1.4c0 .8-.6 1.5-1.5 1.5c.03-.05-1.3 0-1.3 0v1.8h-.6v-4.7zm1.9.6c-.04-.04-1.3 0-1.3 0v1.7s1.26.04 1.3 0c.5 0 .9-.3.9-.9c0-.5-.4-.8-.9-.8zm2.2.7h.5v.6c.3-.4.7-.6 1.1-.6v.5h-.2c-.3 0-.8.2-.9.5v2.4h-.5v-3.4zm2 1.7c0-1 .7-1.8 1.7-1.8c1 0 1.7.8 1.7 1.8c0 1-.7 1.8-1.7 1.8c-1 0-1.7-.8-1.7-1.8zm2.8 0c0-.7-.4-1.3-1.1-1.3c-.7 0-1.1.6-1.1 1.3c0 .7.4 1.3 1.1 1.3c.7 0 1.1-.6 1.1-1.3zm1.3 3v-4.7h.6s-.03.53 0 .5c.2-.3.6-.6 1.1-.6c.9 0 1.5.7 1.5 1.8c0 1.1-.6 1.8-1.5 1.8c-.5 0-.9-.2-1.1-.6c-.03 0 0 1.8 0 1.8h-.6zm1.6-4.3c-.4 0-.9.3-1 .6v1.5c.1.3.6.5 1 .5c.7 0 1.1-.5 1.1-1.3c0-.7-.4-1.3-1.1-1.3zm3.9-.5c1 0 1.6.8 1.6 1.9c-.02-.04 0 .1 0 .1h-2.8c.1.6.5 1.2 1.3 1.2c.3 0 .7-.2 1-.5l.3.4c-.4.3-.8.5-1.4.5c-1 0-1.7-.7-1.7-1.8c0-1 .7-1.8 1.7-1.8zm-1.2 1.6h2.3c0-.5-.4-1.1-1.1-1.1c-.8 0-1.1.6-1.2 1.1zm3.6-1.5h.5s-.02.57 0 .6c.3-.4.6-.6 1.1-.6v.5h-.2c-.3 0-.8.2-.9.5c-.02.02 0 2.4 0 2.4h-.5v-3.4zm2.3 2.7v-2.2h-.6v-.5h.6v-.9h.5v.9h.7v.5h-.7s.03 2.09 0 2.1c0 .2.1.4.4.4c.1 0 .3 0 .3-.1l.2.4c-.1.1-.3.2-.6.2c-.5 0-.8-.3-.8-.8zm2.1 1.6c.2 0 .4-.1.5-.3c-.03-.04.2-.6.2-.6l-1.4-3.4h.6l1.1 2.8l1.1-2.8h.6s-1.72 4.1-1.7 4.1c-.2.5-.6.7-1 .7c-.1 0-.3 0-.4-.1l.1-.4h.3z" stroke="none" fill="#888888"/></g><g id="Polygon304178"><path d="m20.8 75c1.6 0 2.3 1.6 2.3 3.1c0 1.5-.7 3.1-2.3 3.1c-1.7 0-2.4-1.6-2.4-3.1c0-1.5.7-3.1 2.4-3.1zm0 .8c-1.1 0-1.5 1.1-1.5 2.3c0 1.2.4 2.3 1.5 2.3c1 0 1.4-1.1 1.4-2.3c0-1.2-.4-2.3-1.4-2.3zm5.4-.8c1.7 0 2.3 1.6 2.3 3.1c0 1.5-.6 3.1-2.3 3.1c-1.7 0-2.3-1.6-2.3-3.1c0-1.5.6-3.1 2.3-3.1zm0 .8c-1.1 0-1.4 1.1-1.4 2.3c0 1.2.3 2.3 1.4 2.3c1.1 0 1.4-1.1 1.4-2.3c0-1.2-.3-2.3-1.4-2.3zm10.7.5L35 81.1h-.4l-1.9-4.8v4.8h-.9v-6h1.3l1.7 4.3l1.7-4.3h1.3v6h-.9v-4.8zm2-.8c0-.3.3-.5.6-.5c.2 0 .5.2.5.5c0 .3-.3.5-.5.5c-.3 0-.6-.2-.6-.5zm.2 1.3h.8v4.3h-.8v-4.3zm4.9 1.5c0-.7-.4-.9-.9-.9c-.5 0-1 .3-1.2.6c-.02 0 0 3.1 0 3.1h-.8v-4.3h.8s-.02.57 0 .6c.3-.4.8-.7 1.5-.7c.9 0 1.4.4 1.4 1.4v3h-.8v-2.8zm4.3-3.2h2.1c1.9 0 3.1 1.3 3.1 3c0 1.8-1.2 3-3.1 3h-2.1v-6zm2.1 5.2c1.4 0 2.2-1 2.2-2.2c0-1.2-.8-2.2-2.2-2.2h-1.2v4.4s1.2.02 1.2 0zm4.1-3.5h.8v.6c.3-.4.8-.7 1.4-.7v.8h-.3c-.4 0-.9.3-1.1.6v3h-.8v-4.3zm2.8-1.3c0-.3.3-.5.5-.5c.3 0 .6.2.6.5c0 .3-.3.5-.6.5c-.2 0-.5-.2-.5-.5zm.1 1.3h.9v4.3h-.9v-4.3zm1.4 0h.9l1.3 3.4l1.4-3.4h.9l-1.8 4.3h-.9l-1.8-4.3zm6.9-.1c1.3 0 2.2 1 2.2 2.3c-.04 0 0 .2 0 .2h-3.5c.1.7.6 1.4 1.5 1.4c.5 0 1-.2 1.3-.6l.4.6c-.5.4-1.1.6-1.8.6c-1.3 0-2.2-.9-2.2-2.3c0-1.2.9-2.2 2.1-2.2zm-1.3 1.9h2.7c-.1-.6-.4-1.3-1.4-1.3c-.8 0-1.2.7-1.3 1.3z" stroke="none" fill="#282828"/></g><g id="Polygon304177"><path d="m.5 68.4c2.2-1.7 3.3-2.6 3.3-3.6c0-.7-.6-1-1.2-1c-.7 0-1.3.3-1.6.8L.4 64c.5-.6 1.3-1 2.2-1c1.1 0 2.1.6 2.1 1.8c0 1.2-1.2 2.2-2.8 3.5c0 .02 2.8 0 2.8 0v.8H.5s-.03-.7 0-.7zm5.8-.3c.3 0 .6.2.6.5c0 .3-.3.6-.6.6c-.3 0-.6-.3-.6-.6c0-.3.3-.5.6-.5zm12.4-5s2.5.01 2.5 0c1.2 0 1.9.9 1.9 1.9c0 1-.7 1.8-1.9 1.8h-1.6v2.3h-.9v-6zm2.4.8h-1.5v2.1h1.5c.6 0 1.1-.4 1.1-1c0-.7-.5-1.1-1.1-1.1zm2.4 3c0-1.2.9-2.2 2.2-2.2c1.4 0 2.2 1 2.2 2.2c0 1.3-.8 2.3-2.2 2.3c-1.3 0-2.2-1-2.2-2.3zm3.6 0c0-.8-.5-1.5-1.4-1.5c-.8 0-1.3.7-1.3 1.5c0 .9.5 1.6 1.3 1.6c.9 0 1.4-.7 1.4-1.6zm1.6-3.4c0-.3.3-.5.6-.5c.2 0 .5.2.5.5c0 .3-.3.5-.5.5c-.3 0-.6-.2-.6-.5zm.2 1.3h.8v4.3h-.8v-4.3zm4.9 1.5c0-.7-.4-.9-.9-.9c-.5 0-1 .3-1.2.6c-.02 0 0 3.1 0 3.1h-.8v-4.3h.8s-.02.57 0 .6c.3-.4.8-.7 1.5-.7c.9 0 1.4.4 1.4 1.4v3h-.8v-2.8zm2.2 1.8c-.03.05 0-2.6 0-2.6h-.7v-.7h.7v-1.2h.8v1.2h.9v.7h-.9s-.02 2.47 0 2.5c0 .3.1.5.4.5c.2 0 .4-.1.4-.2l.3.6c-.2.2-.5.3-.9.3c-.7 0-1-.4-1-1.1zm4.4-1.2c0-1.2.9-2.2 2.2-2.2c1.4 0 2.2 1 2.2 2.2c0 1.3-.8 2.3-2.2 2.3c-1.3 0-2.2-1-2.2-2.3zm3.6 0c0-.8-.5-1.5-1.4-1.5c-.8 0-1.3.7-1.3 1.5c0 .9.5 1.6 1.3 1.6c.9 0 1.4-.7 1.4-1.6zm2-1.4h-.8v-.7h.8s-.04-.32 0-.3c0-1 .5-1.5 1.3-1.5c.3 0 .5.1.7.2l-.2.6c-.1-.1-.2-.1-.4-.1c-.4 0-.6.3-.6.8c-.03-.02 0 .3 0 .3h.9v.7h-.9v3.6h-.8v-3.6zm4.6-2.4h.9v6h-.9v-6zm5.1 3.2c0-.7-.4-.9-1-.9c-.5 0-.9.3-1.2.6c.03 0 0 3.1 0 3.1h-.8v-4.3h.8s.03.57 0 .6c.3-.4.9-.7 1.6-.7c.9 0 1.4.4 1.4 1.4c-.04-.04 0 3 0 3h-.8s-.04-2.77 0-2.8zm2.1 1.8c.02.05 0-2.6 0-2.6h-.7v-.7h.7v-1.2h.8v1.2h.9v.7h-.9s.03 2.47 0 2.5c0 .3.2.5.5.5c.1 0 .3-.1.4-.2l.2.6c-.2.2-.4.3-.8.3c-.7 0-1.1-.4-1.1-1.1zm4.4-3.4c1.3 0 2.1 1 2.1 2.3c.05 0 0 .2 0 .2h-3.4c.1.7.6 1.4 1.5 1.4c.4 0 1-.2 1.3-.6l.4.6c-.5.4-1.1.6-1.8.6c-1.3 0-2.2-.9-2.2-2.3c0-1.2.9-2.2 2.1-2.2zm-1.3 1.9h2.7c-.1-.6-.4-1.3-1.4-1.3c-.8 0-1.3.7-1.3 1.3zm4.4-1.8h.8v.6c.3-.4.8-.7 1.4-.7v.8h-.3c-.4 0-.9.3-1.1.6v3h-.8v-4.3zm4.8-.1c1.3 0 2.2 1 2.2 2.3c-.05 0 0 .2 0 .2h-3.5c.1.7.6 1.4 1.5 1.4c.4 0 1-.2 1.3-.6l.4.6c-.5.4-1.1.6-1.8.6c-1.3 0-2.2-.9-2.2-2.3c0-1.2.9-2.2 2.1-2.2zm-1.3 1.9h2.7c-.1-.6-.4-1.3-1.4-1.3c-.8 0-1.3.7-1.3 1.3zm4.4 1.3c.3.4.9.7 1.4.7c.7 0 1-.3 1-.7c0-.4-.5-.5-1.1-.7c-.7-.1-1.6-.3-1.6-1.3c0-.7.6-1.2 1.7-1.2c.7 0 1.3.2 1.6.6l-.3.5c-.3-.3-.8-.5-1.3-.5c-.6 0-.9.2-.9.6c0 .4.5.5 1 .6c.8.2 1.7.4 1.7 1.4c0 .7-.6 1.3-1.8 1.3c-.7 0-1.4-.2-1.8-.7l.4-.6zm4.3.2c-.04.05 0-2.6 0-2.6h-.8v-.7h.8v-1.2h.8v1.2h.9v.7h-.9s-.03 2.47 0 2.5c0 .3.1.5.4.5c.2 0 .4-.1.4-.2l.2.6c-.1.2-.4.3-.8.3c-.7 0-1-.4-1-1.1z" stroke="none" fill="#282828"/></g><g id="Polygon304176"><path d="m20.1 26.4c1.3 0 1.8 1.2 1.8 2.4c0 1.1-.5 2.4-1.8 2.4c-1.2 0-1.7-1.3-1.7-2.4c0-1.2.5-2.4 1.7-2.4zm0 .5c-.8 0-1.1.9-1.1 1.9c0 .9.3 1.9 1.1 1.9c.9 0 1.2-1 1.2-1.9c0-1-.3-1.9-1.2-1.9zm4.3-.5c1.2 0 1.7 1.2 1.7 2.4c0 1.1-.5 2.4-1.7 2.4c-1.3 0-1.8-1.3-1.8-2.4c0-1.2.5-2.4 1.8-2.4zm0 .5c-.9 0-1.2.9-1.2 1.9c0 .9.3 1.9 1.2 1.9c.8 0 1.1-1 1.1-1.9c0-1-.3-1.9-1.1-1.9zm8.3.3l-1.6 3.9h-.2l-1.6-3.9v3.9h-.6v-4.7h.8L31 30l1.4-3.6h.9v4.7h-.6v-3.9zm1.5-.4c0-.2.2-.3.3-.3c.2 0 .4.1.4.3c0 .2-.2.4-.4.4c-.1 0-.3-.2-.3-.4zm.1.9h.5v3.4h-.5v-3.4zm1.5-1.3h.5v4.7h-.5v-4.7zm3 1.2c1 0 1.6.8 1.6 1.9v.1h-2.8c.1.6.5 1.2 1.3 1.2c.4 0 .7-.2 1-.5l.3.4c-.4.3-.8.5-1.4.5c-1 0-1.7-.7-1.7-1.8c0-1 .7-1.8 1.7-1.8zm-1.2 1.6h2.3c0-.5-.4-1.1-1.1-1.1c-.8 0-1.1.6-1.2 1.1zm3.5 1.1c.3.2.7.5 1.2.5c.5 0 .8-.3.8-.6c0-.4-.5-.5-.9-.6c-.6-.1-1.2-.3-1.2-1c0-.5.4-1 1.2-1c.6 0 1 .3 1.3.5l-.3.4c-.2-.2-.5-.4-1-.4c-.4 0-.7.2-.7.5c0 .3.4.4.8.5c.6.2 1.3.3 1.3 1.1c0 .5-.5 1-1.4 1c-.5 0-1-.2-1.3-.5l.2-.4zm5-3.9h3.1v.6h-2.5v1.5h2.4v.5h-2.4v2.1h-.6v-4.7zm3.8 1.3h.5v.6c.3-.4.7-.6 1.1-.6v.5h-.2c-.3 0-.8.2-.9.5v2.4h-.5v-3.4zm2 1.7c0-1 .7-1.8 1.7-1.8c1 0 1.7.8 1.7 1.8c0 1-.7 1.8-1.7 1.8c-1 0-1.7-.8-1.7-1.8zm2.8 0c0-.7-.4-1.3-1.1-1.3c-.7 0-1.1.6-1.1 1.3c0 .7.4 1.3 1.1 1.3c.7 0 1.1-.6 1.1-1.3zm5.4-.6c0-.4-.2-.7-.6-.7c-.4 0-.7.3-.9.5v2.5h-.5s-.03-2.29 0-2.3c0-.4-.2-.7-.6-.7c-.4 0-.8.3-.9.5c-.04.04 0 2.5 0 2.5h-.6v-3.4h.6s-.04.52 0 .5c.1-.2.6-.6 1.1-.6c.5 0 .8.3.9.7c.2-.3.6-.7 1.1-.7c.6 0 .9.4.9 1.1c.04-.03 0 2.4 0 2.4h-.5s.02-2.29 0-2.3zm3.3 1.2c.4.4.9.7 1.5.7c.8 0 1.1-.5 1.1-.8c0-.6-.6-.7-1.2-.9c-.7-.2-1.6-.4-1.6-1.3c0-.8.7-1.3 1.7-1.3c.7 0 1.2.2 1.6.6l-.3.4c-.4-.3-.9-.5-1.4-.5c-.6 0-1 .3-1 .7c0 .5.6.6 1.2.8c.7.2 1.6.4 1.6 1.4c0 .7-.4 1.4-1.7 1.4c-.8 0-1.4-.3-1.8-.7l.3-.5zm6.3.6c-.3.3-.7.6-1.2.6c-.7 0-1.1-.3-1.1-1.1v-2.4h.5s.02 2.26 0 2.3c0 .6.3.7.8.7c.4 0 .8-.2 1-.5c-.03.01 0-2.5 0-2.5h.5v3.4h-.5s-.03-.47 0-.5zm1.5-4.2h.5v1.8c.3-.3.7-.6 1.1-.6c.9 0 1.5.7 1.5 1.8c0 1.1-.6 1.8-1.5 1.8c-.4 0-.8-.3-1.1-.6v.5h-.5v-4.7zm1.5 4.3c.7 0 1.1-.5 1.1-1.3c0-.7-.4-1.3-1.1-1.3c-.4 0-.8.3-1 .6v1.5c.2.3.6.5 1 .5zm2.3-3.9c0-.2.2-.3.4-.3c.2 0 .3.1.3.3c0 .2-.1.4-.3.4c-.2 0-.4-.2-.4-.4zm.7 4.6c0 .7-.4 1.1-1 1.1c-.2 0-.3 0-.4-.1l.1-.4h.2c.3 0 .5-.1.5-.6c.03.04 0-3.7 0-3.7h.6s-.04 3.74 0 3.7zm2.4-3.8c1 0 1.6.8 1.6 1.9c.03-.04 0 .1 0 .1H77c0 .6.5 1.2 1.2 1.2c.4 0 .8-.2 1.1-.5l.2.4c-.3.3-.8.5-1.3.5c-1 0-1.8-.7-1.8-1.8c0-1 .7-1.8 1.7-1.8zM77 29.2h2.2c0-.5-.3-1.1-1.1-1.1c-.7 0-1.1.6-1.1 1.1zm5-1.6c.6 0 1 .3 1.2.6l-.3.4c-.2-.4-.5-.5-.9-.5c-.7 0-1.1.6-1.1 1.3c0 .8.4 1.3 1.1 1.3c.4 0 .7-.1.9-.4l.3.3c-.2.3-.6.6-1.2.6c-1 0-1.7-.8-1.7-1.8c0-1 .7-1.8 1.7-1.8zm2 2.8c.01 0 0-2.2 0-2.2h-.6v-.5h.6v-.9h.5v.9h.7v.5h-.7s.03 2.09 0 2.1c0 .2.1.4.4.4c.1 0 .3 0 .3-.1l.2.4c-.1.1-.3.2-.6.2c-.5 0-.8-.3-.8-.8zm3.6-4s1.93.04 1.9 0c1 0 1.5.7 1.5 1.4c0 .8-.6 1.5-1.5 1.5c.03-.05-1.3 0-1.3 0v1.8h-.6v-4.7zm1.9.6c-.04-.04-1.3 0-1.3 0v1.7s1.26.04 1.3 0c.5 0 .9-.3.9-.9c0-.5-.4-.8-.9-.8zm2.2.7h.5v.6c.3-.4.7-.6 1.1-.6v.5h-.2c-.3 0-.8.2-.9.5v2.4h-.5v-3.4zm2 1.7c0-1 .7-1.8 1.7-1.8c1 0 1.7.8 1.7 1.8c0 1-.7 1.8-1.7 1.8c-1 0-1.7-.8-1.7-1.8zm2.8 0c0-.7-.4-1.3-1.1-1.3c-.7 0-1.1.6-1.1 1.3c0 .7.4 1.3 1.1 1.3c.7 0 1.1-.6 1.1-1.3zm1.3 3v-4.7h.6s-.03.53 0 .5c.2-.3.6-.6 1.1-.6c.9 0 1.5.7 1.5 1.8c0 1.1-.6 1.8-1.5 1.8c-.5 0-.9-.2-1.1-.6c-.03 0 0 1.8 0 1.8h-.6zm1.6-4.3c-.4 0-.9.3-1 .6v1.5c.1.3.6.5 1 .5c.7 0 1.1-.5 1.1-1.3c0-.7-.4-1.3-1.1-1.3zm3.9-.5c1 0 1.6.8 1.6 1.9c-.02-.04 0 .1 0 .1h-2.8c.1.6.5 1.2 1.3 1.2c.3 0 .7-.2 1-.5l.3.4c-.4.3-.8.5-1.4.5c-1 0-1.7-.7-1.7-1.8c0-1 .7-1.8 1.7-1.8zm-1.2 1.6h2.3c0-.5-.4-1.1-1.1-1.1c-.8 0-1.1.6-1.2 1.1zm3.6-1.5h.5s-.02.57 0 .6c.3-.4.6-.6 1.1-.6v.5h-.2c-.3 0-.8.2-.9.5c-.02.02 0 2.4 0 2.4h-.5v-3.4zm2.3 2.7v-2.2h-.6v-.5h.6v-.9h.5v.9h.7v.5h-.7s.03 2.09 0 2.1c0 .2.1.4.4.4c.1 0 .3 0 .3-.1l.2.4c-.1.1-.3.2-.6.2c-.5 0-.8-.3-.8-.8zm2.1 1.6c.2 0 .4-.1.5-.3c-.03-.04.2-.6.2-.6l-1.4-3.4h.6l1.1 2.8l1.1-2.8h.6s-1.72 4.1-1.7 4.1c-.2.5-.6.7-1 .7c-.1 0-.3 0-.4-.1l.1-.4h.3z" stroke="none" fill="#888888"/></g><g id="Polygon304175"><path d="m20.8 13c1.6 0 2.3 1.6 2.3 3.1c0 1.5-.7 3.1-2.3 3.1c-1.7 0-2.4-1.6-2.4-3.1c0-1.5.7-3.1 2.4-3.1zm0 .8c-1.1 0-1.5 1.1-1.5 2.3c0 1.2.4 2.3 1.5 2.3c1 0 1.4-1.1 1.4-2.3c0-1.2-.4-2.3-1.4-2.3zm5.4-.8c1.7 0 2.3 1.6 2.3 3.1c0 1.5-.6 3.1-2.3 3.1c-1.7 0-2.3-1.6-2.3-3.1c0-1.5.6-3.1 2.3-3.1zm0 .8c-1.1 0-1.4 1.1-1.4 2.3c0 1.2.3 2.3 1.4 2.3c1.1 0 1.4-1.1 1.4-2.3c0-1.2-.3-2.3-1.4-2.3zm10.7.5L35 19.1h-.4l-1.9-4.8v4.8h-.9v-6h1.3l1.7 4.3l1.7-4.3h1.3v6h-.9v-4.8zm2-.8c0-.3.3-.5.6-.5c.2 0 .5.2.5.5c0 .3-.3.5-.5.5c-.3 0-.6-.2-.6-.5zm.2 1.3h.8v4.3h-.8v-4.3zm4.9 1.5c0-.7-.4-.9-.9-.9c-.5 0-1 .3-1.2.6c-.02 0 0 3.1 0 3.1h-.8v-4.3h.8s-.02.57 0 .6c.3-.4.8-.7 1.5-.7c.9 0 1.4.4 1.4 1.4v3h-.8v-2.8zm4.3-3.2h2.1c1.9 0 3.1 1.3 3.1 3c0 1.8-1.2 3-3.1 3h-2.1v-6zm2.1 5.2c1.4 0 2.2-1 2.2-2.2c0-1.2-.8-2.2-2.2-2.2h-1.2v4.4s1.2.02 1.2 0zm4.1-3.5h.8v.6c.3-.4.8-.7 1.4-.7v.8h-.3c-.4 0-.9.3-1.1.6v3h-.8v-4.3zm2.8-1.3c0-.3.3-.5.5-.5c.3 0 .6.2.6.5c0 .3-.3.5-.6.5c-.2 0-.5-.2-.5-.5zm.1 1.3h.9v4.3h-.9v-4.3zm1.4 0h.9l1.3 3.4l1.4-3.4h.9l-1.8 4.3h-.9l-1.8-4.3zm6.9-.1c1.3 0 2.2 1 2.2 2.3c-.04 0 0 .2 0 .2h-3.5c.1.7.6 1.4 1.5 1.4c.5 0 1-.2 1.3-.6l.4.6c-.5.4-1.1.6-1.8.6c-1.3 0-2.2-.9-2.2-2.3c0-1.2.9-2.2 2.1-2.2zm-1.3 1.9h2.7c-.1-.6-.4-1.3-1.4-1.3c-.8 0-1.2.7-1.3 1.3z" stroke="none" fill="#282828"/></g><g id="Polygon304174"><path d="m1.7 2.3l-1 1l-.5-.5l1.6-1.7h.8v6h-.9V2.3zm2.5 3.8c.3 0 .6.2.6.5c0 .3-.3.6-.6.6c-.3 0-.6-.3-.6-.6c0-.3.3-.5.6-.5zm14.5-5s2.5.01 2.5 0c1.2 0 1.9.9 1.9 1.9c0 1-.7 1.8-1.9 1.8h-1.6v2.3h-.9v-6zm2.4.8h-1.5v2.1h1.5c.6 0 1.1-.4 1.1-1c0-.7-.5-1.1-1.1-1.1zm2.4 3c0-1.2.9-2.2 2.2-2.2c1.4 0 2.2 1 2.2 2.2c0 1.3-.8 2.3-2.2 2.3c-1.3 0-2.2-1-2.2-2.3zm3.6 0c0-.8-.5-1.5-1.4-1.5c-.8 0-1.3.7-1.3 1.5c0 .9.5 1.6 1.3 1.6c.9 0 1.4-.7 1.4-1.6zm1.6-3.4c0-.3.3-.5.6-.5c.2 0 .5.2.5.5c0 .3-.3.5-.5.5c-.3 0-.6-.2-.6-.5zm.2 1.3h.8v4.3h-.8V2.8zm4.9 1.5c0-.7-.4-.9-.9-.9c-.5 0-1 .3-1.2.6c-.02 0 0 3.1 0 3.1h-.8V2.8h.8s-.02.57 0 .6c.3-.4.8-.7 1.5-.7c.9 0 1.4.4 1.4 1.4v3h-.8V4.3zM36 6.1c-.03.05 0-2.6 0-2.6h-.7v-.7h.7V1.6h.8v1.2h.9v.7h-.9s-.02 2.47 0 2.5c0 .3.1.5.4.5c.2 0 .4-.1.4-.2l.3.6c-.2.2-.5.3-.9.3c-.7 0-1-.4-1-1.1zm4.4-1.2c0-1.2.9-2.2 2.2-2.2c1.4 0 2.2 1 2.2 2.2c0 1.3-.8 2.3-2.2 2.3c-1.3 0-2.2-1-2.2-2.3zm3.6 0c0-.8-.5-1.5-1.4-1.5c-.8 0-1.3.7-1.3 1.5c0 .9.5 1.6 1.3 1.6c.9 0 1.4-.7 1.4-1.6zm2-1.4h-.8v-.7h.8s-.04-.32 0-.3c0-1 .5-1.5 1.3-1.5c.3 0 .5.1.7.2l-.2.6c-.1-.1-.2-.1-.4-.1c-.4 0-.6.3-.6.8c-.03-.02 0 .3 0 .3h.9v.7h-.9v3.6h-.8V3.5zm4.6-2.4h.9v6h-.9v-6zm5.1 3.2c0-.7-.4-.9-1-.9c-.5 0-.9.3-1.2.6c.03 0 0 3.1 0 3.1h-.8V2.8h.8s.03.57 0 .6c.3-.4.9-.7 1.6-.7c.9 0 1.4.4 1.4 1.4c-.04-.04 0 3 0 3h-.8s-.04-2.77 0-2.8zm2.1 1.8c.02.05 0-2.6 0-2.6h-.7v-.7h.7V1.6h.8v1.2h.9v.7h-.9s.03 2.47 0 2.5c0 .3.2.5.5.5c.1 0 .3-.1.4-.2l.2.6c-.2.2-.4.3-.8.3c-.7 0-1.1-.4-1.1-1.1zm4.4-3.4c1.3 0 2.1 1 2.1 2.3c.05 0 0 .2 0 .2h-3.4c.1.7.6 1.4 1.5 1.4c.4 0 1-.2 1.3-.6l.4.6c-.5.4-1.1.6-1.8.6c-1.3 0-2.2-.9-2.2-2.3c0-1.2.9-2.2 2.1-2.2zm-1.3 1.9h2.7c-.1-.6-.4-1.3-1.4-1.3c-.8 0-1.3.7-1.3 1.3zm4.4-1.8h.8v.6c.3-.4.8-.7 1.4-.7v.8h-.3c-.4 0-.9.3-1.1.6v3h-.8V2.8zm4.8-.1c1.3 0 2.2 1 2.2 2.3c-.05 0 0 .2 0 .2h-3.5c.1.7.6 1.4 1.5 1.4c.4 0 1-.2 1.3-.6l.4.6c-.5.4-1.1.6-1.8.6c-1.3 0-2.2-.9-2.2-2.3c0-1.2.9-2.2 2.1-2.2zm-1.3 1.9h2.7c-.1-.6-.4-1.3-1.4-1.3c-.8 0-1.3.7-1.3 1.3zm4.4 1.3c.3.4.9.7 1.4.7c.7 0 1-.3 1-.7c0-.4-.5-.5-1.1-.7c-.7-.1-1.6-.3-1.6-1.3c0-.7.6-1.2 1.7-1.2c.7 0 1.3.2 1.6.6l-.3.5c-.3-.3-.8-.5-1.3-.5c-.6 0-.9.2-.9.6c0 .4.5.5 1 .6c.8.2 1.7.4 1.7 1.4c0 .7-.6 1.3-1.8 1.3c-.7 0-1.4-.2-1.8-.7l.4-.6zm4.3.2c-.04.05 0-2.6 0-2.6h-.8v-.7h.8V1.6h.8v1.2h.9v.7h-.9s-.03 2.47 0 2.5c0 .3.1.5.4.5c.2 0 .4-.1.4-.2l.2.6c-.1.2-.4.3-.8.3c-.7 0-1-.4-1-1.1z" stroke="none" fill="#282828"/></g></svg>