<?xml version="1.0" standalone="no"?><!DOCTYPE svg PUBLIC "-//W3C//DTD SVG 1.1//EN" "http://www.w3.org/Graphics/SVG/1.1/DTD/svg11.dtd"><svg xmlns="http://www.w3.org/2000/svg" version="1.1" width="9px" height="18.2px" viewBox="0 -4 9 18.2" style="top:-4px"><desc>05</desc><defs/><g id="Polygon68424"><path d="m4.1 2.2v4.2c0 1.1-.7 1.5-1.7 1.5h-.1c-1 0-1.7-.4-1.7-1.5V2.2C.6 1.1 1.3.7 2.3.7h.1c1 0 1.7.4 1.7 1.5zm-1.8-.5c-.3 0-.6.2-.6.7v3.8c0 .5.3.7.6.7c.4 0 .6-.2.6-.7V2.4c0-.5-.2-.7-.6-.7zm3.8.1v1.6c.2-.1.4-.3.8-.3c.8 0 1.4.4 1.4 1.4v1.9c0 1.1-.6 1.5-1.7 1.5c-1.1 0-1.7-.4-1.7-1.5c.04.04 0-1.1 0-1.1h1.1s.04 1.02 0 1c0 .5.3.6.6.6c.3 0 .6-.1.6-.6V4.7c0-.5-.2-.6-.5-.6c-.3 0-.5.1-.6.4L5 4.2V.8h3.2v1H6.1z" stroke="none" fill="#fff"/></g></svg>