<?xml version="1.0" standalone="no"?>
<!DOCTYPE svg PUBLIC "-//W3C//DTD SVG 1.1//EN" "http://www.w3.org/Graphics/SVG/1.1/DTD/svg11.dtd">
<svg xmlns="http://www.w3.org/2000/svg" version="1.1" width="106.4px" height="31.9px" viewBox="0 -6 106.4 31.9" style="top:-6px">
  <desc>Agent 1</desc>
  <defs/>
  <g id="Polygon265795">
    <path d="M 73.2 12.7 C 73.21 12.72 73.2 14.1 73.2 14.1 L 72.5 14.1 C 72.5 14.1 72.48 12.74 72.5 12.7 C 70.9 12.7 69.7 12 68.9 11.1 C 68.9 11.1 69.5 10.4 69.5 10.4 C 70.1 11.1 71.1 11.8 72.5 11.9 C 72.5 11.9 72.5 7.4 72.5 7.4 C 70.9 7 69.2 6.5 69.2 4.6 C 69.2 3 70.7 1.9 72.5 1.8 C 72.48 1.8 72.5 0.4 72.5 0.4 L 73.2 0.4 C 73.2 0.4 73.21 1.81 73.2 1.8 C 74.6 1.9 75.6 2.4 76.3 3.3 C 76.3 3.3 75.7 3.9 75.7 3.9 C 75.1 3.2 74.2 2.7 73.2 2.7 C 73.2 2.7 73.2 6.6 73.2 6.6 C 74.9 7.1 76.5 7.7 76.5 9.8 C 76.5 11 75.7 12.6 73.2 12.7 Z M 72.5 6.4 C 72.5 6.4 72.5 2.6 72.5 2.6 C 71.2 2.7 70.2 3.5 70.2 4.6 C 70.2 5.7 71.2 6.1 72.5 6.4 Z M 75.6 9.8 C 75.6 8.5 74.5 8 73.2 7.6 C 73.2 7.6 73.2 11.9 73.2 11.9 C 75.1 11.8 75.6 10.6 75.6 9.8 Z M 82.3 1.8 C 85.1 1.8 86.2 4.7 86.2 7.3 C 86.2 9.8 85.1 12.7 82.3 12.7 C 79.4 12.7 78.3 9.8 78.3 7.3 C 78.3 4.7 79.4 1.8 82.3 1.8 Z M 82.3 2.6 C 80 2.6 79.3 5.1 79.3 7.3 C 79.3 9.4 80 11.9 82.3 11.9 C 84.5 11.9 85.2 9.4 85.2 7.3 C 85.2 5.1 84.5 2.6 82.3 2.6 Z M 91.9 1.8 C 94.7 1.8 95.8 4.7 95.8 7.3 C 95.8 9.8 94.7 12.7 91.9 12.7 C 89.1 12.7 88 9.8 88 7.3 C 88 4.7 89.1 1.8 91.9 1.8 Z M 91.9 2.6 C 89.7 2.6 88.9 5.1 88.9 7.3 C 88.9 9.4 89.7 11.9 91.9 11.9 C 94.1 11.9 94.9 9.4 94.9 7.3 C 94.9 5.1 94.1 2.6 91.9 2.6 Z M 101.6 1.8 C 104.4 1.8 105.5 4.7 105.5 7.3 C 105.5 9.8 104.4 12.7 101.6 12.7 C 98.7 12.7 97.7 9.8 97.7 7.3 C 97.7 4.7 98.7 1.8 101.6 1.8 Z M 101.6 2.6 C 99.3 2.6 98.6 5.1 98.6 7.3 C 98.6 9.4 99.3 11.9 101.6 11.9 C 103.8 11.9 104.5 9.4 104.5 7.3 C 104.5 5.1 103.8 2.6 101.6 2.6 Z " stroke="none" fill="#000"/>
  </g>
</svg>