<?xml version="1.0" standalone="no"?>
<!DOCTYPE svg PUBLIC "-//W3C//DTD SVG 1.1//EN" "http://www.w3.org/Graphics/SVG/1.1/DTD/svg11.dtd">
<svg xmlns="http://www.w3.org/2000/svg" version="1.1" width="62px" height="16.9px" viewBox="0 -4 62 16.9" style="top:-4px">
  <desc>Year Built</desc>
  <defs/>
  <g id="Polygon267121">
    <path d="M 2.4 4.6 L 0 1.1 L 1.1 1.1 L 2.8 3.8 L 4.6 1.1 L 5.6 1.1 L 3.3 4.6 L 3.3 7.1 L 2.4 7.1 L 2.4 4.6 Z M 7.1 2.7 C 8.4 2.7 9.2 3.7 9.2 5 C 9.22 5 9.2 5.2 9.2 5.2 C 9.2 5.2 5.79 5.2 5.8 5.2 C 5.8 5.9 6.4 6.6 7.3 6.6 C 7.7 6.6 8.2 6.4 8.6 6 C 8.6 6 8.9 6.6 8.9 6.6 C 8.5 7 7.9 7.2 7.2 7.2 C 5.9 7.2 4.9 6.3 4.9 4.9 C 4.9 3.7 5.8 2.7 7.1 2.7 Z M 5.8 4.6 C 5.8 4.6 8.4 4.6 8.4 4.6 C 8.4 4 8 3.3 7.1 3.3 C 6.2 3.3 5.8 4 5.8 4.6 Z M 12.9 6.6 C 12.6 7 12.1 7.2 11.5 7.2 C 10.8 7.2 10 6.7 10 5.8 C 10 4.8 10.8 4.4 11.5 4.4 C 12.1 4.4 12.6 4.5 12.9 4.9 C 12.9 4.9 12.9 4.2 12.9 4.2 C 12.9 3.7 12.5 3.3 11.9 3.3 C 11.4 3.3 10.9 3.5 10.6 3.9 C 10.6 3.9 10.2 3.4 10.2 3.4 C 10.7 2.9 11.3 2.7 12 2.7 C 12.9 2.7 13.7 3.1 13.7 4.2 C 13.73 4.18 13.7 7.1 13.7 7.1 L 12.9 7.1 C 12.9 7.1 12.92 6.63 12.9 6.6 Z M 12.9 5.4 C 12.7 5.1 12.3 4.9 11.8 4.9 C 11.2 4.9 10.8 5.3 10.8 5.8 C 10.8 6.3 11.2 6.7 11.8 6.7 C 12.3 6.7 12.7 6.5 12.9 6.2 C 12.9 6.2 12.9 5.4 12.9 5.4 Z M 15 2.8 L 15.8 2.8 C 15.8 2.8 15.84 3.43 15.8 3.4 C 16.2 3 16.7 2.7 17.3 2.7 C 17.3 2.7 17.3 3.5 17.3 3.5 C 17.2 3.5 17.1 3.5 17 3.5 C 16.6 3.5 16 3.8 15.8 4.1 C 15.84 4.09 15.8 7.1 15.8 7.1 L 15 7.1 L 15 2.8 Z M 20.4 1.1 C 20.4 1.1 23.23 1.11 23.2 1.1 C 24.3 1.1 24.9 1.8 24.9 2.6 C 24.9 3.4 24.4 3.9 23.9 4 C 24.5 4.1 25 4.8 25 5.5 C 25 6.4 24.4 7.1 23.3 7.1 C 23.3 7.11 20.4 7.1 20.4 7.1 L 20.4 1.1 Z M 23.1 3.7 C 23.7 3.7 24 3.3 24 2.8 C 24 2.3 23.7 1.9 23.1 1.9 C 23.06 1.9 21.3 1.9 21.3 1.9 L 21.3 3.7 C 21.3 3.7 23.06 3.65 23.1 3.7 Z M 23.1 6.3 C 23.7 6.3 24.1 6 24.1 5.4 C 24.1 4.9 23.8 4.4 23.1 4.4 C 23.1 4.45 21.3 4.4 21.3 4.4 L 21.3 6.3 C 21.3 6.3 23.1 6.32 23.1 6.3 Z M 29.1 6.5 C 28.7 6.9 28.2 7.2 27.5 7.2 C 26.6 7.2 26.1 6.8 26.1 5.8 C 26.14 5.83 26.1 2.8 26.1 2.8 L 26.9 2.8 C 26.9 2.8 26.95 5.56 26.9 5.6 C 26.9 6.3 27.3 6.5 27.9 6.5 C 28.4 6.5 28.8 6.2 29.1 5.9 C 29.07 5.89 29.1 2.8 29.1 2.8 L 29.9 2.8 L 29.9 7.1 L 29.1 7.1 C 29.1 7.1 29.07 6.52 29.1 6.5 Z M 31 1.5 C 31 1.2 31.3 1 31.6 1 C 31.9 1 32.1 1.2 32.1 1.5 C 32.1 1.8 31.9 2 31.6 2 C 31.3 2 31 1.8 31 1.5 Z M 31.2 2.8 L 32 2.8 L 32 7.1 L 31.2 7.1 L 31.2 2.8 Z M 33.3 1.1 L 34.1 1.1 L 34.1 7.1 L 33.3 7.1 L 33.3 1.1 Z M 35.5 6.1 C 35.52 6.15 35.5 3.5 35.5 3.5 L 34.8 3.5 L 34.8 2.8 L 35.5 2.8 L 35.5 1.6 L 36.3 1.6 L 36.3 2.8 L 37.2 2.8 L 37.2 3.5 L 36.3 3.5 C 36.3 3.5 36.33 5.97 36.3 6 C 36.3 6.3 36.5 6.5 36.8 6.5 C 36.9 6.5 37.1 6.4 37.2 6.3 C 37.2 6.3 37.4 6.9 37.4 6.9 C 37.2 7.1 37 7.2 36.6 7.2 C 35.9 7.2 35.5 6.8 35.5 6.1 Z " stroke="none" fill="#000"/>
  </g>
</svg>