<?xml version="1.0" standalone="no"?><!DOCTYPE svg PUBLIC "-//W3C//DTD SVG 1.1//EN" "http://www.w3.org/Graphics/SVG/1.1/DTD/svg11.dtd"><svg xmlns="http://www.w3.org/2000/svg" version="1.1" width="86px" height="124.9px" viewBox="0 -4 86 124.9" style="top:-4px"><desc>Investment Summary Lease Summary Retail Aerial Site Plan Rent Schedule About the Brand Location Overview</desc><defs/><g id="Polygon271306"><path d="m.7 109.1h.9v5.2h2.7v.8H.7v-6zm4 3.8c0-1.2.9-2.2 2.2-2.2c1.4 0 2.2 1 2.2 2.2c0 1.3-.8 2.3-2.2 2.3c-1.3 0-2.2-1-2.2-2.3zm3.6 0c0-.8-.5-1.5-1.4-1.5c-.8 0-1.3.7-1.3 1.5c0 .9.5 1.6 1.3 1.6c.9 0 1.4-.7 1.4-1.6zm3.7-2.2c.8 0 1.3.3 1.6.7l-.5.5c-.3-.4-.6-.5-1-.5c-.9 0-1.5.6-1.5 1.5c0 .9.6 1.6 1.5 1.6c.4 0 .7-.2 1-.5l.5.5c-.3.4-.8.7-1.6.7c-1.3 0-2.2-1-2.2-2.3c0-1.3.9-2.2 2.2-2.2zm5.1 3.9c-.3.4-.8.6-1.4.6c-.7 0-1.5-.5-1.5-1.4c0-1 .8-1.4 1.5-1.4c.6 0 1.1.1 1.4.5v-.7c0-.5-.4-.9-1-.9c-.5 0-1 .2-1.3.6l-.4-.5c.5-.5 1.1-.7 1.8-.7c.9 0 1.7.4 1.7 1.5c.04-.02 0 2.9 0 2.9h-.8s.03-.47 0-.5zm0-1.2c-.2-.3-.6-.5-1.1-.5c-.6 0-1 .4-1 .9c0 .5.4.9 1 .9c.5 0 .9-.2 1.1-.5v-.8zm2.2.7v-2.6h-.7v-.7h.7v-1.2h.8v1.2h.9v.7h-.9s.01 2.47 0 2.5c0 .3.2.5.4.5c.2 0 .4-.1.5-.2l.2.6c-.2.2-.4.3-.9.3c-.6 0-1-.4-1-1.1zm2.4-4.6c0-.3.2-.5.5-.5c.3 0 .5.2.5.5c0 .3-.2.5-.5.5c-.3 0-.5-.2-.5-.5zm.1 1.3h.8v4.3h-.8v-4.3zm1.7 2.1c0-1.2.9-2.2 2.2-2.2c1.4 0 2.2 1 2.2 2.2c0 1.3-.8 2.3-2.2 2.3c-1.3 0-2.2-1-2.2-2.3zm3.6 0c0-.8-.5-1.5-1.4-1.5c-.8 0-1.3.7-1.3 1.5c0 .9.5 1.6 1.3 1.6c.9 0 1.4-.7 1.4-1.6zm4.7-.6c0-.7-.4-.9-.9-.9c-.5 0-1 .3-1.2.6c-.02 0 0 3.1 0 3.1h-.8v-4.3h.8s-.02.57 0 .6c.3-.4.8-.7 1.5-.7c.9 0 1.4.4 1.4 1.4v3h-.8v-2.8zm7-3.3c1.8 0 3.1 1.3 3.1 3.1c0 1.8-1.3 3.1-3.1 3.1c-1.8 0-3-1.3-3-3.1c0-1.8 1.2-3.1 3-3.1zm0 .8c-1.3 0-2.1 1-2.1 2.3c0 1.3.8 2.3 2.1 2.3c1.3 0 2.1-1 2.1-2.3c0-1.3-.8-2.3-2.1-2.3zm3.4 1h.9l1.3 3.4l1.4-3.4h.9l-1.8 4.3h-.9l-1.8-4.3zm6.9-.1c1.3 0 2.1 1 2.1 2.3c.04 0 0 .2 0 .2h-3.4c.1.7.6 1.4 1.5 1.4c.4 0 .9-.2 1.3-.6l.3.6c-.4.4-1 .6-1.7.6c-1.3 0-2.2-.9-2.2-2.3c0-1.2.9-2.2 2.1-2.2zm-1.3 1.9h2.7c-.1-.6-.5-1.3-1.4-1.3c-.8 0-1.3.7-1.3 1.3zm4.4-1.8h.8s-.02.63 0 .6c.3-.4.8-.7 1.4-.7v.8h-.3c-.4 0-.9.3-1.1.6c-.02-.01 0 3 0 3h-.8v-4.3zm2.3 0h.8l1.4 3.4l1.4-3.4h.8l-1.8 4.3h-.8l-1.8-4.3zm4.9-1.3c0-.3.2-.5.5-.5c.3 0 .5.2.5.5c0 .3-.2.5-.5.5c-.3 0-.5-.2-.5-.5zm.1 1.3h.8v4.3h-.8v-4.3zm3.9-.1c1.3 0 2.1 1 2.1 2.3c.04 0 0 .2 0 .2h-3.4c.1.7.6 1.4 1.5 1.4c.4 0 .9-.2 1.3-.6l.3.6c-.4.4-1 .6-1.7.6c-1.3 0-2.3-.9-2.3-2.3c0-1.2 1-2.2 2.2-2.2zm-1.3 1.9h2.6c0-.6-.4-1.3-1.3-1.3c-.9 0-1.3.7-1.3 1.3zm7.1-.8l-1.1 3.3h-.8l-1.4-4.3h.8l1 3.3l1.1-3.3h.7l1.1 3.3l1-3.3h.8l-1.3 4.3h-.9l-1-3.3z" stroke="none" fill="#242423"/></g><g id="Polygon271305"><path d="m4.5 95.9h-3L1 97.1h-1l2.4-6h1.2l2.3 6h-1l-.4-1.2zm-2.7-.8h2.4L3 91.9l-1.2 3.2zm4.8-4h.8s-.04 2.29 0 2.3c.3-.5.8-.7 1.4-.7c1.1 0 1.9.8 1.9 2.2c0 1.5-.8 2.3-1.9 2.3c-.6 0-1.1-.3-1.4-.7c-.04-.01 0 .6 0 .6h-.8v-6zm2 5.4c.8 0 1.3-.6 1.3-1.6c0-.9-.5-1.5-1.3-1.5c-.5 0-1 .3-1.2.6v1.9c.2.3.7.6 1.2.6zm2.8-1.6c0-1.2.8-2.2 2.2-2.2c1.3 0 2.2 1 2.2 2.2c0 1.3-.9 2.3-2.2 2.3c-1.4 0-2.2-1-2.2-2.3zm3.5 0c0-.8-.4-1.5-1.3-1.5c-.9 0-1.4.7-1.4 1.5c0 .9.5 1.6 1.4 1.6c.9 0 1.3-.7 1.3-1.6zm4.8 1.6c-.4.4-.9.7-1.6.7c-.9 0-1.4-.4-1.4-1.4c.02.03 0-3 0-3h.8s.03 2.76 0 2.8c0 .7.4.9.9.9c.6 0 1-.3 1.3-.6c-.04-.01 0-3.1 0-3.1h.8v4.3h-.8s-.04-.58 0-.6zm2.1-.4c.03.05 0-2.6 0-2.6h-.7v-.7h.7v-1.2h.8v1.2h.9v.7h-.9s.03 2.47 0 2.5c0 .3.2.5.5.5c.1 0 .3-.1.4-.2l.2.6c-.2.2-.4.3-.8.3c-.7 0-1.1-.4-1.1-1.1zm4.9 0c.02.05 0-2.6 0-2.6h-.7v-.7h.7v-1.2h.8v1.2h.9v.7h-.9s.03 2.47 0 2.5c0 .3.2.5.5.5c.1 0 .3-.1.4-.2l.2.6c-.2.2-.4.3-.8.3c-.7 0-1.1-.4-1.1-1.1zm5.5-1.8c0-.7-.4-.9-1-.9c-.5 0-.9.3-1.2.6c.03 0 0 3.1 0 3.1h-.8v-6h.8s.03 2.27 0 2.3c.3-.4.9-.7 1.6-.7c.9 0 1.4.4 1.4 1.3c-.03.04 0 3.1 0 3.1h-.8s-.04-2.79 0-2.8zm3.9-1.6c1.3 0 2.1 1 2.1 2.3v.2h-3.4c0 .7.6 1.4 1.4 1.4c.5 0 1-.2 1.3-.6l.4.6c-.4.4-1 .6-1.7.6c-1.3 0-2.3-.9-2.3-2.3c0-1.2.9-2.2 2.2-2.2zm-1.4 1.9h2.7c0-.6-.4-1.3-1.3-1.3c-.9 0-1.3.7-1.4 1.3zm6.7-3.5h2.8c1.1 0 1.7.7 1.7 1.5c0 .8-.5 1.3-1.1 1.4c.7.1 1.2.8 1.2 1.5c0 .9-.6 1.6-1.7 1.6h-2.9v-6zm2.6 2.6c.6 0 1-.4 1-.9c0-.5-.4-.9-1-.9h-1.7v1.8s1.72-.05 1.7 0zm.1 2.6c.6 0 1-.3 1-.9c0-.5-.4-1-1-1c-.04.05-1.8 0-1.8 0v1.9s1.76.02 1.8 0zm2.9-3.5h.8s.02.63 0 .6c.3-.4.9-.7 1.4-.7v.8h-.2c-.4 0-1 .3-1.2.6c.02-.01 0 3 0 3h-.8v-4.3zm5.6 3.8c-.3.4-.8.6-1.4.6c-.7 0-1.5-.5-1.5-1.4c0-1 .8-1.4 1.5-1.4c.6 0 1.1.1 1.4.5v-.7c0-.5-.4-.9-1-.9c-.5 0-.9.2-1.3.6l-.4-.5c.5-.5 1.1-.7 1.8-.7c.9 0 1.7.4 1.7 1.5c.05-.02 0 2.9 0 2.9h-.8s.04-.47 0-.5zm0-1.2c-.2-.3-.6-.5-1.1-.5c-.6 0-1 .4-1 .9c0 .5.4.9 1 .9c.5 0 .9-.2 1.1-.5v-.8zm5-1.1c0-.7-.4-.9-.9-.9c-.5 0-1 .3-1.2.6c-.03 0 0 3.1 0 3.1h-.8v-4.3h.8s-.03.57 0 .6c.3-.4.8-.7 1.5-.7c.9 0 1.4.4 1.4 1.4v3h-.8v-2.8zm5.1 2.2c-.3.4-.9.7-1.4.7c-1.2 0-2-.8-2-2.3c0-1.4.8-2.2 2-2.2c.5 0 1 .2 1.4.7v-2.3h.8v6h-.8v-.6zm0-2.5c-.2-.3-.7-.6-1.2-.6c-.8 0-1.3.6-1.3 1.5c0 .9.5 1.6 1.3 1.6c.5 0 1-.3 1.2-.6V94z" stroke="none" fill="#242423"/></g><g id="Polygon271304"><path d="m2.7 76.8H1.6v2.3h-.9v-6s2.5.01 2.5 0c1.1 0 1.9.7 1.9 1.9c0 1-.7 1.6-1.5 1.7c.03.01 1.6 2.4 1.6 2.4H4.1l-1.4-2.3zm.4-2.9H1.6v2.1h1.5c.6 0 1.1-.4 1.1-1c0-.7-.5-1.1-1.1-1.1zm4.7.8c1.3 0 2.1 1 2.1 2.3c-.03 0 0 .2 0 .2H6.4c.1.7.6 1.4 1.5 1.4c.5 0 1-.2 1.3-.6l.4.6c-.5.4-1.1.6-1.8.6c-1.3 0-2.2-.9-2.2-2.3c0-1.2.9-2.2 2.2-2.2zm-1.4 1.9h2.7c0-.6-.4-1.3-1.3-1.3c-.9 0-1.3.7-1.4 1.3zm7.3-.3c0-.7-.3-.9-.9-.9c-.5 0-1 .3-1.2.6v3.1h-.8v-4.3h.8v.6c.3-.4.9-.7 1.5-.7c1 0 1.4.4 1.4 1.4c.04-.04 0 3 0 3h-.8s.03-2.77 0-2.8zm2.2 1.8v-2.6h-.7v-.7h.7v-1.2h.8v1.2h.9v.7h-.9s.01 2.47 0 2.5c0 .3.2.5.4.5c.2 0 .4-.1.5-.2l.2.6c-.2.2-.4.3-.9.3c-.6 0-1-.4-1-1.1zm4.9-.5c.4.4 1.1.8 1.9.8c1 0 1.3-.5 1.3-.9c0-.6-.7-.8-1.4-1c-1-.3-2.1-.5-2.1-1.8c0-1 .8-1.7 2.1-1.7c.9 0 1.7.3 2.2.9l-.5.6c-.5-.5-1.1-.7-1.8-.7c-.6 0-1.1.4-1.1.9c0 .5.6.7 1.4.9c1 .2 2.1.5 2.1 1.8c0 .9-.6 1.8-2.2 1.8c-1.1 0-1.9-.4-2.4-.9l.5-.7zm7-2.9c.8 0 1.3.3 1.6.7l-.5.5c-.3-.4-.6-.5-1.1-.5c-.8 0-1.4.6-1.4 1.5c0 .9.6 1.6 1.4 1.6c.5 0 .8-.2 1.1-.5l.5.5c-.3.4-.8.7-1.6.7c-1.3 0-2.2-1-2.2-2.3c0-1.3.9-2.2 2.2-2.2zm5.4 1.6c0-.7-.4-.9-1-.9c-.5 0-.9.3-1.2.6c.04 0 0 3.1 0 3.1h-.8v-6h.8s.04 2.27 0 2.3c.3-.4.9-.7 1.6-.7c.9 0 1.4.4 1.4 1.3c-.03.04 0 3.1 0 3.1h-.8s-.03-2.79 0-2.8zm3.9-1.6c1.3 0 2.1 1 2.1 2.3v.2h-3.4c0 .7.6 1.4 1.4 1.4c.5 0 1-.2 1.3-.6l.4.6c-.4.4-1 .6-1.7.6c-1.3 0-2.3-.9-2.3-2.3c0-1.2.9-2.2 2.2-2.2zm-1.3 1.9h2.6c0-.6-.4-1.3-1.3-1.3c-.9 0-1.3.7-1.3 1.3zm7.4 1.9c-.3.4-.8.7-1.4.7c-1.1 0-1.9-.8-1.9-2.3c0-1.4.8-2.2 1.9-2.2c.6 0 1.1.2 1.4.7c.03-.01 0-2.3 0-2.3h.8v6h-.8s.03-.61 0-.6zm0-2.5c-.2-.3-.7-.6-1.2-.6c-.8 0-1.3.6-1.3 1.5c0 .9.5 1.6 1.3 1.6c.5 0 1-.3 1.2-.6V76zm5 2.5c-.4.4-.9.7-1.6.7c-.9 0-1.4-.4-1.4-1.4c.04.03 0-3 0-3h.9s-.05 2.76 0 2.8c0 .7.3.9.9.9c.5 0 .9-.3 1.2-.6c-.02-.01 0-3.1 0-3.1h.8v4.3h-.8s-.02-.58 0-.6zm2-5.4h.8v6h-.8v-6zm3.9 1.6c1.3 0 2.1 1 2.1 2.3v.2h-3.4c0 .7.6 1.4 1.5 1.4c.4 0 .9-.2 1.2-.6l.4.6c-.4.4-1 .6-1.7.6c-1.3 0-2.3-.9-2.3-2.3c0-1.2.9-2.2 2.2-2.2zm-1.3 1.9h2.6c0-.6-.4-1.3-1.3-1.3c-.9 0-1.3.7-1.3 1.3z" stroke="none" fill="#242423"/></g><g id="Polygon271303"><path d="m.8 59.6c.4.4 1.1.8 1.9.8c1 0 1.3-.5 1.3-.9c0-.6-.7-.8-1.4-1c-1-.3-2.1-.5-2.1-1.8c0-1 .9-1.7 2.1-1.7c.9 0 1.7.3 2.2.9l-.5.6c-.5-.5-1.1-.7-1.8-.7c-.6 0-1.1.4-1.1.9c0 .5.7.7 1.4.9c1 .2 2.1.5 2.1 1.8c0 .9-.6 1.8-2.2 1.8c-1.1 0-1.9-.4-2.4-.9l.5-.7zm4.9-4.1c0-.3.3-.5.6-.5c.3 0 .5.2.5.5c0 .3-.2.5-.5.5c-.3 0-.6-.2-.6-.5zm.2 1.3h.8v4.3h-.8v-4.3zM8 60.1c.04.05 0-2.6 0-2.6h-.7v-.7h.7v-1.2h.8v1.2h.9v.7h-.9s.05 2.47 0 2.5c0 .3.2.5.5.5c.2 0 .3-.1.4-.2l.2.6c-.2.2-.4.3-.8.3c-.7 0-1.1-.4-1.1-1.1zm4.4-3.4c1.4 0 2.2 1 2.2 2.3c-.04 0 0 .2 0 .2h-3.5c.1.7.6 1.4 1.5 1.4c.5 0 1-.2 1.3-.6l.4.6c-.5.4-1.1.6-1.8.6c-1.3 0-2.2-.9-2.2-2.3c0-1.2.9-2.2 2.1-2.2zm-1.3 1.9h2.7c0-.6-.4-1.3-1.4-1.3c-.8 0-1.2.7-1.3 1.3zm6.6-3.5h2.6c1.2 0 1.9.9 1.9 1.9c0 1-.7 1.8-1.9 1.8h-1.7v2.3h-.9v-6zm2.5.8h-1.6v2.1h1.6c.6 0 1.1-.4 1.1-1c0-.7-.5-1.1-1.1-1.1zm2.8-.8h.8v6h-.8v-6zm4.7 5.5c-.3.4-.8.6-1.4.6c-.8 0-1.5-.5-1.5-1.4c0-1 .7-1.4 1.5-1.4c.6 0 1.1.1 1.4.5v-.7c0-.5-.4-.9-1.1-.9c-.5 0-.9.2-1.3.6l-.3-.5c.5-.5 1.1-.7 1.8-.7c.9 0 1.7.4 1.7 1.5v2.9h-.8v-.5zm0-1.2c-.3-.3-.7-.5-1.1-.5c-.6 0-1 .4-1 .9c0 .5.4.9 1 .9c.4 0 .8-.2 1.1-.5v-.8zm4.9-1.1c0-.7-.3-.9-.9-.9c-.5 0-.9.3-1.2.6c.02 0 0 3.1 0 3.1h-.8v-4.3h.8s.02.57 0 .6c.3-.4.9-.7 1.6-.7c.9 0 1.4.4 1.4 1.4c-.05-.04 0 3 0 3h-.9s.04-2.77 0-2.8z" stroke="none" fill="#242423"/></g><g id="Polygon271302"><path d="m2.7 40.8H1.6v2.3h-.9v-6s2.5.01 2.5 0c1.1 0 1.9.7 1.9 1.9c0 1-.7 1.6-1.5 1.7c.03.01 1.6 2.4 1.6 2.4H4.1l-1.4-2.3zm.4-2.9H1.6v2.1h1.5c.6 0 1.1-.4 1.1-1c0-.7-.5-1.1-1.1-1.1zm4.7.8c1.3 0 2.1 1 2.1 2.3c-.03 0 0 .2 0 .2H6.4c.1.7.6 1.4 1.5 1.4c.5 0 1-.2 1.3-.6l.4.6c-.5.4-1.1.6-1.8.6c-1.3 0-2.2-.9-2.2-2.3c0-1.2.9-2.2 2.2-2.2zm-1.4 1.9h2.7c0-.6-.4-1.3-1.3-1.3c-.9 0-1.3.7-1.4 1.3zm4.6 1.5c-.04.05 0-2.6 0-2.6h-.8v-.7h.8v-1.2h.8v1.2h.9v.7h-.9s-.03 2.47 0 2.5c0 .3.1.5.4.5c.2 0 .4-.1.4-.2l.2.6c-.1.2-.4.3-.8.3c-.7 0-1-.4-1-1.1zm5.1.5c-.3.4-.8.6-1.4.6c-.7 0-1.5-.5-1.5-1.4c0-1 .8-1.4 1.5-1.4c.6 0 1.1.1 1.4.5v-.7c0-.5-.4-.9-1-.9c-.5 0-.9.2-1.3.6l-.4-.5c.5-.5 1.1-.7 1.8-.7c1 0 1.8.4 1.8 1.5c-.04-.02 0 2.9 0 2.9h-.9s.05-.47 0-.5zm0-1.2c-.2-.3-.6-.5-1.1-.5c-.6 0-1 .4-1 .9c0 .5.4.9 1 .9c.5 0 .9-.2 1.1-.5v-.8zm1.9-3.9c0-.3.3-.5.6-.5c.2 0 .5.2.5.5c0 .3-.3.5-.5.5c-.3 0-.6-.2-.6-.5zm.2 1.3h.8v4.3h-.8v-4.3zm2-1.7h.8v6h-.8v-6zm8 4.8h-2.9l-.5 1.2h-1l2.4-6h1.1l2.4 6h-1l-.5-1.2zm-2.7-.8h2.5l-1.3-3.2l-1.2 3.2zm6.7-2.4c1.3 0 2.1 1 2.1 2.3c.03 0 0 .2 0 .2h-3.4c.1.7.6 1.4 1.5 1.4c.4 0 .9-.2 1.3-.6l.3.6c-.4.4-1 .6-1.7.6c-1.3 0-2.3-.9-2.3-2.3c0-1.2.9-2.2 2.2-2.2zm-1.3 1.9h2.6c0-.6-.4-1.3-1.3-1.3c-.9 0-1.3.7-1.3 1.3zm4.4-1.8h.8s-.03.63 0 .6c.3-.4.8-.7 1.4-.7v.8h-.3c-.4 0-.9.3-1.1.6c-.03-.01 0 3 0 3h-.8v-4.3zm2.8-1.3c0-.3.2-.5.5-.5c.3 0 .5.2.5.5c0 .3-.2.5-.5.5c-.3 0-.5-.2-.5-.5zm.1 1.3h.8v4.3h-.8v-4.3zm4.7 3.8c-.3.4-.8.6-1.4.6c-.7 0-1.5-.5-1.5-1.4c0-1 .8-1.4 1.5-1.4c.6 0 1.1.1 1.4.5v-.7c0-.5-.4-.9-1.1-.9c-.5 0-.9.2-1.3.6l-.3-.5c.5-.5 1.1-.7 1.8-.7c.9 0 1.7.4 1.7 1.5v2.9h-.8v-.5zm0-1.2c-.2-.3-.7-.5-1.1-.5c-.6 0-1 .4-1 .9c0 .5.4.9 1 .9c.4 0 .9-.2 1.1-.5v-.8zm2-4.3h.8v6h-.8v-6z" stroke="none" fill="#242423"/></g><g id="Polygon271301"><path d="m.7 19.1h.9v5.2h2.7v.8H.7v-6zm6.2 1.6c1.3 0 2.1 1 2.1 2.3c.04 0 0 .2 0 .2H5.6c.1.7.6 1.4 1.5 1.4c.4 0 .9-.2 1.3-.6l.3.6c-.4.4-1 .6-1.7.6c-1.3 0-2.3-.9-2.3-2.3c0-1.2 1-2.2 2.2-2.2zm-1.3 1.9h2.6c0-.6-.4-1.3-1.3-1.3c-.9 0-1.3.7-1.3 1.3zm7 2c-.3.4-.8.6-1.4.6c-.7 0-1.5-.5-1.5-1.4c0-1 .8-1.4 1.5-1.4c.6 0 1.1.1 1.4.5v-.7c0-.5-.4-.9-1-.9c-.5 0-.9.2-1.3.6l-.4-.5c.5-.5 1.1-.7 1.8-.7c1 0 1.8.4 1.8 1.5c-.05-.02 0 2.9 0 2.9h-.9s.05-.47 0-.5zm0-1.2c-.2-.3-.6-.5-1.1-.5c-.6 0-1 .4-1 .9c0 .5.4.9 1 .9c.5 0 .9-.2 1.1-.5v-.8zm2.1.5c.3.4.8.7 1.4.7c.6 0 1-.3 1-.7c0-.4-.5-.5-1.1-.7c-.7-.1-1.6-.3-1.6-1.3c0-.7.6-1.2 1.7-1.2c.7 0 1.3.2 1.6.6l-.3.5c-.3-.3-.8-.5-1.3-.5c-.6 0-.9.2-.9.6c0 .4.5.5 1 .6c.7.2 1.6.4 1.6 1.4c0 .7-.6 1.3-1.7 1.3c-.7 0-1.4-.2-1.8-.7l.4-.6zm6-3.2c1.3 0 2.1 1 2.1 2.3v.2h-3.4c0 .7.6 1.4 1.4 1.4c.5 0 1-.2 1.3-.6l.4.6c-.4.4-1 .6-1.7.6c-1.3 0-2.3-.9-2.3-2.3c0-1.2.9-2.2 2.2-2.2zm-1.3 1.9h2.6c0-.6-.4-1.3-1.3-1.3c-.9 0-1.3.7-1.3 1.3zm6.7 1c.4.4 1.1.8 1.9.8c1 0 1.3-.5 1.3-.9c0-.6-.7-.8-1.4-1c-1-.3-2.1-.5-2.1-1.8c0-1 .9-1.7 2.1-1.7c1 0 1.7.3 2.2.9l-.5.6c-.5-.5-1.1-.7-1.7-.7c-.7 0-1.2.4-1.2.9c0 .5.7.7 1.4.9c1 .2 2.1.5 2.1 1.8c0 .9-.6 1.8-2.2 1.8c-1.1 0-1.9-.4-2.4-.9l.5-.7zm8 .9c-.3.4-.9.7-1.5.7c-1 0-1.4-.4-1.4-1.4v-3h.8v2.8c0 .7.4.9.9.9c.5 0 1-.3 1.2-.6c.02-.01 0-3.1 0-3.1h.8v4.3h-.8s.02-.58 0-.6zm7.3-2.3c0-.5-.2-.8-.7-.8c-.5 0-.9.3-1.1.6c-.03 0 0 3.1 0 3.1h-.8s-.04-2.89 0-2.9c0-.5-.3-.8-.8-.8c-.4 0-.8.3-1.1.6c.04 0 0 3.1 0 3.1h-.8v-4.3h.8s.04.57 0 .6c.2-.3.8-.7 1.4-.7c.7 0 1.1.3 1.2.8c.3-.4.8-.8 1.5-.8c.8 0 1.2.4 1.2 1.3c.02-.03 0 3.1 0 3.1h-.8v-2.9zm7.3 0c0-.5-.2-.8-.8-.8c-.4 0-.8.3-1 .6c-.04 0 0 3.1 0 3.1h-.8s-.05-2.89 0-2.9c0-.5-.3-.8-.8-.8c-.4 0-.9.3-1.1.6c.02 0 0 3.1 0 3.1h-.8v-4.3h.8s.02.57 0 .6c.2-.3.8-.7 1.4-.7c.7 0 1.1.3 1.2.8c.3-.4.8-.8 1.5-.8c.8 0 1.2.4 1.2 1.3v3.1h-.8v-2.9zm4.7 2.4c-.4.4-.8.6-1.4.6c-.8 0-1.5-.5-1.5-1.4c0-1 .7-1.4 1.5-1.4c.6 0 1.1.1 1.4.5v-.7c0-.5-.5-.9-1.1-.9c-.5 0-.9.2-1.3.6l-.3-.5c.5-.5 1-.7 1.8-.7c.9 0 1.7.4 1.7 1.5v2.9h-.8v-.5zm0-1.2c-.3-.3-.7-.5-1.1-.5c-.6 0-1 .4-1 .9c0 .5.4.9 1 .9c.4 0 .8-.2 1.1-.5v-.8zm2-2.6h.8v.6c.3-.4.9-.7 1.4-.7v.8h-.2c-.4 0-1 .3-1.2.6v3h-.8v-4.3zm3.2 5.4c.3 0 .5-.1.7-.5c-.04.03.2-.5.2-.5l-1.8-4.4h.9l1.3 3.4l1.4-3.4h.9s-2.17 5.14-2.2 5.1c-.2.7-.7 1-1.4 1c-.1 0-.3-.1-.5-.1l.2-.7c.1 0 .2.1.3.1z" stroke="none" fill="#242423"/></g><g id="Polygon271300"><path d="m.7 1.1h.9v6h-.9v-6zm5 3.2c0-.7-.3-.9-.9-.9c-.5 0-1 .3-1.2.6v3.1h-.8V2.8h.8v.6c.3-.4.9-.7 1.5-.7c1 0 1.4.4 1.4 1.4c.04-.04 0 3 0 3h-.8s.03-2.77 0-2.8zm1.4-1.5h.9l1.3 3.4l1.4-3.4h.9L9.8 7.1h-.9L7.1 2.8zm6.9-.1c1.3 0 2.1 1 2.1 2.3c.05 0 0 .2 0 .2h-3.4c.1.7.6 1.4 1.5 1.4c.4 0 .9-.2 1.3-.6l.3.6c-.4.4-1 .6-1.7.6c-1.3 0-2.2-.9-2.2-2.3c0-1.2.9-2.2 2.1-2.2zm-1.3 1.9h2.7c-.1-.6-.5-1.3-1.4-1.3c-.8 0-1.3.7-1.3 1.3zm4.4 1.3c.3.4.9.7 1.4.7c.7 0 1-.3 1-.7c0-.4-.5-.5-1.1-.7c-.7-.1-1.6-.3-1.6-1.3c0-.7.6-1.2 1.7-1.2c.7 0 1.3.2 1.6.6l-.3.5c-.3-.3-.8-.5-1.3-.5c-.6 0-.9.2-.9.6c0 .4.5.5 1 .6c.8.2 1.7.4 1.7 1.4c0 .7-.7 1.3-1.8 1.3c-.7 0-1.4-.2-1.8-.7l.4-.6zm4.3.2c-.04.05 0-2.6 0-2.6h-.8v-.7h.8V1.6h.8v1.2h.8v.7h-.8s-.03 2.47 0 2.5c0 .3.1.5.4.5c.2 0 .3-.1.4-.2l.2.6c-.1.2-.4.3-.8.3c-.7 0-1-.4-1-1.1zm7.7-1.9c0-.5-.2-.8-.7-.8c-.5 0-.9.3-1.1.6v3.1h-.8V4.2c0-.5-.2-.8-.8-.8c-.4 0-.8.3-1 .6c-.03 0 0 3.1 0 3.1h-.8V2.8h.8s-.03.57 0 .6c.1-.3.7-.7 1.4-.7c.6 0 1 .3 1.2.8c.2-.4.8-.8 1.4-.8c.8 0 1.3.4 1.3 1.3c-.05-.03 0 3.1 0 3.1h-.9s.04-2.89 0-2.9zm4-1.5c1.3 0 2.1 1 2.1 2.3c-.03 0 0 .2 0 .2h-3.5c.1.7.6 1.4 1.5 1.4c.5 0 1-.2 1.3-.6l.4.6c-.5.4-1.1.6-1.8.6c-1.3 0-2.2-.9-2.2-2.3c0-1.2.9-2.2 2.2-2.2zm-1.4 1.9h2.7c0-.6-.4-1.3-1.3-1.3c-.9 0-1.3.7-1.4 1.3zm7.3-.3c0-.7-.3-.9-.9-.9c-.5 0-1 .3-1.2.6v3.1h-.8V2.8h.8v.6c.3-.4.9-.7 1.5-.7c1 0 1.4.4 1.4 1.4c.04-.04 0 3 0 3h-.8s.03-2.77 0-2.8zm2.2 1.8V3.5h-.7v-.7h.7V1.6h.8v1.2h.9v.7h-.9s.01 2.47 0 2.5c0 .3.2.5.4.5c.2 0 .4-.1.5-.2l.2.6c-.2.2-.4.3-.9.3c-.6 0-1-.4-1-1.1zm4.9-.5c.4.4 1.1.8 1.9.8c1 0 1.3-.5 1.3-.9c0-.6-.7-.8-1.4-1c-1-.3-2.1-.5-2.1-1.8c0-1 .8-1.7 2.1-1.7c.9 0 1.7.3 2.2.9l-.5.6c-.5-.5-1.1-.7-1.8-.7c-.6 0-1.1.4-1.1.9c0 .5.6.7 1.4.9c1 .2 2.1.5 2.1 1.8c0 .9-.6 1.8-2.2 1.8c-1.1 0-1.9-.4-2.4-.9l.5-.7zm8 .9c-.3.4-.9.7-1.6.7c-.9 0-1.3-.4-1.3-1.4c-.04.03 0-3 0-3h.8s-.04 2.76 0 2.8c0 .7.3.9.9.9c.5 0 .9-.3 1.2-.6V2.8h.8v4.3h-.8v-.6zm7.3-2.3c0-.5-.2-.8-.8-.8c-.4 0-.9.3-1.1.6c.04 0 0 3.1 0 3.1h-.8s.03-2.89 0-2.9c0-.5-.2-.8-.7-.8c-.5 0-.9.3-1.1.6v3.1h-.8V2.8h.8v.6c.2-.3.8-.7 1.4-.7c.7 0 1.1.3 1.2.8c.2-.4.8-.8 1.5-.8c.8 0 1.2.4 1.2 1.3v3.1h-.8s-.02-2.89 0-2.9zm7.3 0c0-.5-.3-.8-.8-.8c-.4 0-.9.3-1.1.6c.03 0 0 3.1 0 3.1h-.8s.02-2.89 0-2.9c0-.5-.2-.8-.7-.8c-.5 0-.9.3-1.1.6v3.1h-.8V2.8h.8v.6c.2-.3.8-.7 1.4-.7c.7 0 1 .3 1.2.8c.2-.4.8-.8 1.4-.8c.8 0 1.3.4 1.3 1.3c-.02-.03 0 3.1 0 3.1h-.8s-.03-2.89 0-2.9zm4.7 2.4c-.4.4-.9.6-1.5.6c-.7 0-1.5-.5-1.5-1.4c0-1 .8-1.4 1.5-1.4c.6 0 1.1.1 1.5.5v-.7c0-.5-.5-.9-1.1-.9c-.5 0-.9.2-1.3.6l-.4-.5c.5-.5 1.1-.7 1.8-.7c1 0 1.8.4 1.8 1.5c-.03-.02 0 2.9 0 2.9h-.8s-.04-.47 0-.5zm0-1.2c-.3-.3-.7-.5-1.2-.5c-.5 0-1 .4-1 .9c0 .5.5.9 1 .9c.5 0 .9-.2 1.2-.5v-.8zm2-2.6h.8s-.02.63 0 .6c.3-.4.8-.7 1.4-.7v.8h-.3c-.4 0-.9.3-1.1.6c-.02-.01 0 3 0 3h-.8V2.8zm3.2 5.4c.3 0 .5-.1.6-.5c.03.03.3-.5.3-.5l-1.8-4.4h.9l1.3 3.4l1.4-3.4h.8S80 7.94 80 7.9c-.3.7-.8 1-1.4 1c-.1 0-.4-.1-.5-.1l.1-.7c.1 0 .3.1.4.1z" stroke="none" fill="#242423"/></g></svg>