<?xml version="1.0" standalone="no"?>
<!DOCTYPE svg PUBLIC "-//W3C//DTD SVG 1.1//EN" "http://www.w3.org/Graphics/SVG/1.1/DTD/svg11.dtd">
<svg xmlns="http://www.w3.org/2000/svg" version="1.1" width="375px" height="67.5px" viewBox="0 -6 375 67.5" style="top:-6px">
  <desc>SUBJECT PROPERTY INVESTMENT SUMMARY</desc>
  <defs/>
  <g id="Polygon206334">
    <path d="M 82.2 46.4 L 82.2 26.7 L 85.5 26.7 L 85.5 46.4 L 82.2 46.4 Z M 88.4 46.4 L 88.4 26.7 L 91.7 26.7 L 95.8 38.9 L 95.8 26.7 L 98.8 26.7 L 98.8 46.4 L 95.7 46.4 L 91.4 33.6 L 91.4 46.4 L 88.4 46.4 Z M 107.8 46.4 L 104.2 46.4 L 100.5 26.7 L 103.8 26.7 L 106.1 41.3 L 108.4 26.7 L 111.5 26.7 L 107.8 46.4 Z M 113.2 46.4 L 113.2 26.7 L 121.9 26.7 L 121.9 29.5 L 116.5 29.5 L 116.5 35 L 121 35 L 121 37.8 L 116.5 37.8 L 116.5 43.5 L 121.9 43.5 L 121.9 46.4 L 113.2 46.4 Z M 130.2 33.7 C 130.2 33.7 130.24 30.96 130.2 31 C 130.2 29.7 129.5 29.3 128.6 29.3 C 127.6 29.3 126.9 29.7 126.9 31 C 126.9 31 126.9 32.3 126.9 32.3 C 126.9 33.3 127.2 33.8 128.2 34.3 C 128.2 34.3 130.5 35.6 130.5 35.6 C 132.4 36.7 133.5 37.6 133.5 39.7 C 133.5 39.7 133.5 42.5 133.5 42.5 C 133.5 45.6 131.6 46.7 128.6 46.7 C 128.6 46.7 128.6 46.7 128.6 46.7 C 125.6 46.7 123.7 45.6 123.7 42.5 C 123.69 42.53 123.7 39.1 123.7 39.1 L 126.9 39.1 C 126.9 39.1 126.91 42.08 126.9 42.1 C 126.9 43.3 127.6 43.8 128.6 43.8 C 129.6 43.8 130.3 43.3 130.3 42.1 C 130.3 42.1 130.3 40.5 130.3 40.5 C 130.3 39.5 130 39 129 38.5 C 129 38.5 126.7 37.2 126.7 37.2 C 124.8 36.1 123.7 35.2 123.7 33.1 C 123.7 33.1 123.7 30.5 123.7 30.5 C 123.7 27.6 125.8 26.4 128.5 26.4 C 128.5 26.4 128.6 26.4 128.6 26.4 C 131.3 26.4 133.5 27.6 133.5 30.5 C 133.46 30.5 133.5 33.7 133.5 33.7 L 130.2 33.7 Z M 144.5 29.5 L 141.2 29.5 L 141.2 46.4 L 137.9 46.4 L 137.9 29.5 L 134.6 29.5 L 134.6 26.7 L 144.5 26.7 L 144.5 29.5 Z M 154.1 43.5 L 152.2 43.5 L 149.3 34.3 L 149.3 46.4 L 146.2 46.4 L 146.2 26.7 L 149.3 26.7 L 153.1 38.2 L 157 26.7 L 160.2 26.7 L 160.2 46.4 L 157 46.4 L 157 34.3 L 154.1 43.5 Z M 163 46.4 L 163 26.7 L 171.7 26.7 L 171.7 29.5 L 166.3 29.5 L 166.3 35 L 170.8 35 L 170.8 37.8 L 166.3 37.8 L 166.3 43.5 L 171.8 43.5 L 171.8 46.4 L 163 46.4 Z M 174.1 46.4 L 174.1 26.7 L 177.4 26.7 L 181.5 38.9 L 181.5 26.7 L 184.5 26.7 L 184.5 46.4 L 181.4 46.4 L 177.1 33.6 L 177.1 46.4 L 174.1 46.4 Z M 196.1 29.5 L 192.8 29.5 L 192.8 46.4 L 189.5 46.4 L 189.5 29.5 L 186.2 29.5 L 186.2 26.7 L 196.1 26.7 L 196.1 29.5 Z M 208.2 33.7 C 208.2 33.7 208.17 30.96 208.2 31 C 208.2 29.7 207.5 29.3 206.5 29.3 C 205.5 29.3 204.8 29.7 204.8 31 C 204.8 31 204.8 32.3 204.8 32.3 C 204.8 33.3 205.2 33.8 206.1 34.3 C 206.1 34.3 208.4 35.6 208.4 35.6 C 210.3 36.7 211.4 37.6 211.4 39.7 C 211.4 39.7 211.4 42.5 211.4 42.5 C 211.4 45.6 209.6 46.7 206.6 46.7 C 206.6 46.7 206.5 46.7 206.5 46.7 C 203.5 46.7 201.6 45.6 201.6 42.5 C 201.62 42.53 201.6 39.1 201.6 39.1 L 204.8 39.1 C 204.8 39.1 204.84 42.08 204.8 42.1 C 204.8 43.3 205.5 43.8 206.5 43.8 C 207.5 43.8 208.2 43.3 208.2 42.1 C 208.2 42.1 208.2 40.5 208.2 40.5 C 208.2 39.5 207.9 39 206.9 38.5 C 206.9 38.5 204.6 37.2 204.6 37.2 C 202.7 36.1 201.6 35.2 201.6 33.1 C 201.6 33.1 201.6 30.5 201.6 30.5 C 201.6 27.6 203.8 26.4 206.5 26.4 C 206.5 26.4 206.5 26.4 206.5 26.4 C 209.2 26.4 211.4 27.6 211.4 30.5 C 211.39 30.5 211.4 33.7 211.4 33.7 L 208.2 33.7 Z M 223.7 42.5 C 223.7 45.5 221.8 46.7 218.8 46.7 C 218.8 46.7 218.7 46.7 218.7 46.7 C 215.7 46.7 213.8 45.6 213.8 42.5 C 213.76 42.48 213.8 26.7 213.8 26.7 L 217 26.7 C 217 26.7 217.03 41.97 217 42 C 217 43.4 217.7 43.8 218.7 43.8 C 219.8 43.8 220.4 43.4 220.4 42 C 220.42 41.97 220.4 26.7 220.4 26.7 L 223.7 26.7 C 223.7 26.7 223.7 42.48 223.7 42.5 Z M 234.3 43.5 L 232.5 43.5 L 229.5 34.3 L 229.5 46.4 L 226.5 46.4 L 226.5 26.7 L 229.6 26.7 L 233.4 38.2 L 237.2 26.7 L 240.4 26.7 L 240.4 46.4 L 237.3 46.4 L 237.3 34.3 L 234.3 43.5 Z M 251.1 43.5 L 249.3 43.5 L 246.3 34.3 L 246.3 46.4 L 243.3 46.4 L 243.3 26.7 L 246.4 26.7 L 250.2 38.2 L 254 26.7 L 257.2 26.7 L 257.2 46.4 L 254.1 46.4 L 254.1 34.3 L 251.1 43.5 Z M 266.4 42 L 262.7 42 L 262 46.4 L 258.9 46.4 L 262.5 26.7 L 266.7 26.7 L 270.4 46.4 L 267.1 46.4 L 266.4 42 Z M 265.9 39.3 L 264.6 30.5 L 263.2 39.3 L 265.9 39.3 Z M 279.5 46.4 L 276.9 38.6 L 275.3 38.6 L 275.3 46.4 L 272 46.4 L 272 26.7 C 272 26.7 277.15 26.66 277.1 26.7 C 280.1 26.7 282.1 27.9 282.1 30.8 C 282.1 30.8 282.1 34.4 282.1 34.4 C 282.1 36.3 281.3 37.5 280 38 C 279.97 38.04 282.8 46.4 282.8 46.4 L 279.5 46.4 Z M 275.3 35.7 C 275.3 35.7 277.03 35.73 277 35.7 C 278.1 35.7 278.8 35.3 278.8 33.9 C 278.8 33.9 278.8 31.4 278.8 31.4 C 278.8 29.9 278.1 29.5 277 29.5 C 277.03 29.54 275.3 29.5 275.3 29.5 L 275.3 35.7 Z M 290.4 46.4 L 287.1 46.4 L 287.1 39.4 L 283.1 26.7 L 286.6 26.7 L 288.8 35.8 L 291 26.7 L 294.4 26.7 L 290.4 39.4 L 290.4 46.4 Z " stroke="none" fill="#282828"/>
  </g>
  <g id="Polygon206333">
    <path d="M 113.8 9.8 C 114.5 10.6 115.6 11.3 117.1 11.3 C 118.8 11.3 119.4 10.5 119.4 9.7 C 119.4 8.6 118.2 8.3 116.9 7.9 C 115.2 7.5 113.2 7 113.2 4.8 C 113.2 3.1 114.8 1.8 117 1.8 C 118.6 1.8 119.9 2.3 120.8 3.3 C 120.8 3.3 119.9 4.4 119.9 4.4 C 119.1 3.6 118 3.2 116.8 3.2 C 115.7 3.2 114.9 3.8 114.9 4.7 C 114.9 5.7 116 6 117.3 6.3 C 119 6.7 121.1 7.3 121.1 9.5 C 121.1 11.2 119.9 12.7 117.1 12.7 C 115.2 12.7 113.8 12.1 112.9 11.1 C 112.9 11.1 113.8 9.8 113.8 9.8 Z M 122.9 2 L 124.5 2 C 124.5 2 124.51 8.36 124.5 8.4 C 124.5 10.2 125.5 11.3 127.4 11.3 C 129.2 11.3 130.2 10.2 130.2 8.4 C 130.21 8.36 130.2 2 130.2 2 L 131.8 2 C 131.8 2 131.82 8.39 131.8 8.4 C 131.8 11 130.3 12.7 127.4 12.7 C 124.4 12.7 122.9 11 122.9 8.4 C 122.91 8.4 122.9 2 122.9 2 Z M 134.2 2 C 134.2 2 139.16 1.95 139.2 2 C 141 2 142.1 3.1 142.1 4.7 C 142.1 6 141.3 6.9 140.3 7.1 C 141.4 7.3 142.3 8.4 142.3 9.7 C 142.3 11.4 141.2 12.5 139.3 12.5 C 139.28 12.55 134.2 12.5 134.2 12.5 L 134.2 2 Z M 138.9 6.4 C 139.9 6.4 140.5 5.8 140.5 4.9 C 140.5 4 139.9 3.4 138.9 3.4 C 138.85 3.35 135.8 3.4 135.8 3.4 L 135.8 6.4 C 135.8 6.4 138.85 6.45 138.9 6.4 Z M 138.9 11.2 C 140 11.2 140.7 10.5 140.7 9.5 C 140.7 8.6 140.1 7.8 138.9 7.8 C 138.93 7.84 135.8 7.8 135.8 7.8 L 135.8 11.2 C 135.8 11.2 138.93 11.15 138.9 11.2 Z M 144.1 10.4 C 144.5 10.9 145.1 11.3 146 11.3 C 147.2 11.3 148 10.5 148 9.3 C 147.95 9.26 148 2 148 2 L 149.5 2 C 149.5 2 149.54 9.28 149.5 9.3 C 149.5 11.6 148 12.7 146.1 12.7 C 145 12.7 144 12.4 143.3 11.6 C 143.3 11.6 144.1 10.4 144.1 10.4 Z M 151.9 2 L 159 2 L 159 3.4 L 153.5 3.4 L 153.5 6.4 L 158.9 6.4 L 158.9 7.8 L 153.5 7.8 L 153.5 11.2 L 159 11.2 L 159 12.5 L 151.9 12.5 L 151.9 2 Z M 160.6 7.3 C 160.6 4 163 1.8 166 1.8 C 168.1 1.8 169.4 2.8 170.2 4 C 170.2 4 168.9 4.7 168.9 4.7 C 168.3 3.8 167.2 3.2 166 3.2 C 163.9 3.2 162.2 4.9 162.2 7.3 C 162.2 9.6 163.9 11.3 166 11.3 C 167.2 11.3 168.3 10.7 168.9 9.8 C 168.9 9.8 170.2 10.5 170.2 10.5 C 169.4 11.7 168.1 12.7 166 12.7 C 163 12.7 160.6 10.5 160.6 7.3 Z M 174.4 3.4 L 171.1 3.4 L 171.1 2 L 179.2 2 L 179.2 3.4 L 176 3.4 L 176 12.5 L 174.4 12.5 L 174.4 3.4 Z M 185 2 C 185 2 189.45 1.95 189.5 2 C 191.6 2 192.8 3.4 192.8 5.2 C 192.8 7 191.6 8.5 189.5 8.5 C 189.45 8.46 186.6 8.5 186.6 8.5 L 186.6 12.5 L 185 12.5 L 185 2 Z M 189.2 3.4 C 189.25 3.35 186.6 3.4 186.6 3.4 L 186.6 7.1 C 186.6 7.1 189.25 7.07 189.2 7.1 C 190.4 7.1 191.2 6.3 191.2 5.2 C 191.2 4.1 190.4 3.4 189.2 3.4 Z M 198 8.5 L 196.1 8.5 L 196.1 12.5 L 194.5 12.5 L 194.5 2 C 194.5 2 198.94 1.95 198.9 2 C 201 2 202.3 3.3 202.3 5.2 C 202.3 7.1 201 8.1 199.7 8.3 C 199.7 8.31 202.4 12.5 202.4 12.5 L 200.6 12.5 L 198 8.5 Z M 198.7 3.4 C 198.73 3.35 196.1 3.4 196.1 3.4 L 196.1 7.1 C 196.1 7.1 198.73 7.07 198.7 7.1 C 199.9 7.1 200.7 6.3 200.7 5.2 C 200.7 4.1 199.9 3.4 198.7 3.4 Z M 209.2 1.8 C 212.3 1.8 214.5 4.1 214.5 7.3 C 214.5 10.4 212.3 12.7 209.2 12.7 C 206 12.7 203.8 10.4 203.8 7.3 C 203.8 4.1 206 1.8 209.2 1.8 Z M 209.2 3.2 C 206.9 3.2 205.5 4.9 205.5 7.3 C 205.5 9.6 206.9 11.3 209.2 11.3 C 211.4 11.3 212.9 9.6 212.9 7.3 C 212.9 4.9 211.4 3.2 209.2 3.2 Z M 216.4 2 C 216.4 2 220.9 1.95 220.9 2 C 223.1 2 224.3 3.4 224.3 5.2 C 224.3 7 223.1 8.5 220.9 8.5 C 220.9 8.46 218 8.5 218 8.5 L 218 12.5 L 216.4 12.5 L 216.4 2 Z M 220.7 3.4 C 220.69 3.35 218 3.4 218 3.4 L 218 7.1 C 218 7.1 220.69 7.07 220.7 7.1 C 221.8 7.1 222.6 6.3 222.6 5.2 C 222.6 4.1 221.8 3.4 220.7 3.4 Z M 225.9 2 L 233 2 L 233 3.4 L 227.5 3.4 L 227.5 6.4 L 232.9 6.4 L 232.9 7.8 L 227.5 7.8 L 227.5 11.2 L 233 11.2 L 233 12.5 L 225.9 12.5 L 225.9 2 Z M 238.6 8.5 L 236.6 8.5 L 236.6 12.5 L 235 12.5 L 235 2 C 235 2 239.48 1.95 239.5 2 C 241.5 2 242.9 3.3 242.9 5.2 C 242.9 7.1 241.6 8.1 240.2 8.3 C 240.25 8.31 243 12.5 243 12.5 L 241.1 12.5 L 238.6 8.5 Z M 239.3 3.4 C 239.28 3.35 236.6 3.4 236.6 3.4 L 236.6 7.1 C 236.6 7.1 239.28 7.07 239.3 7.1 C 240.4 7.1 241.2 6.3 241.2 5.2 C 241.2 4.1 240.4 3.4 239.3 3.4 Z M 247.3 3.4 L 244 3.4 L 244 2 L 252.1 2 L 252.1 3.4 L 248.9 3.4 L 248.9 12.5 L 247.3 12.5 L 247.3 3.4 Z M 256.8 8.1 L 252.7 2 L 254.5 2 L 257.6 6.7 L 260.7 2 L 262.5 2 L 258.4 8.1 L 258.4 12.5 L 256.8 12.5 L 256.8 8.1 Z " stroke="none" fill="#3797ef"/>
  </g>
</svg>