<?xml version="1.0" standalone="no"?>
<!DOCTYPE svg PUBLIC "-//W3C//DTD SVG 1.1//EN" "http://www.w3.org/Graphics/SVG/1.1/DTD/svg11.dtd">
<svg xmlns="http://www.w3.org/2000/svg" version="1.1" width="134.3px" height="15.9px" viewBox="0 -4 134.3 15.9" style="top:-4px">
  <desc>Lorem Ipsum</desc>
  <defs/>
  <g id="Polygon267516">
    <path d="M 85 1.1 L 85.5 1.1 L 85.5 6.6 L 88.4 6.6 L 88.4 7.1 L 85 7.1 L 85 1.1 Z M 89 4.9 C 89 3.7 89.8 2.7 91.1 2.7 C 92.4 2.7 93.2 3.7 93.2 4.9 C 93.2 6.2 92.4 7.2 91.1 7.2 C 89.8 7.2 89 6.2 89 4.9 Z M 92.7 4.9 C 92.7 4 92.1 3.1 91.1 3.1 C 90.1 3.1 89.5 4 89.5 4.9 C 89.5 5.9 90.1 6.8 91.1 6.8 C 92.1 6.8 92.7 5.9 92.7 4.9 Z M 94.4 2.8 L 94.9 2.8 C 94.9 2.8 94.86 3.51 94.9 3.5 C 95.2 3 95.7 2.7 96.3 2.7 C 96.3 2.7 96.3 3.2 96.3 3.2 C 96.2 3.2 96.2 3.2 96.1 3.2 C 95.7 3.2 95.1 3.6 94.9 3.9 C 94.86 3.94 94.9 7.1 94.9 7.1 L 94.4 7.1 L 94.4 2.8 Z M 99.1 2.7 C 100.4 2.7 101.1 3.7 101.1 5 C 101.14 4.96 101.1 5.1 101.1 5.1 C 101.1 5.1 97.51 5.08 97.5 5.1 C 97.6 6 98.2 6.8 99.2 6.8 C 99.8 6.8 100.3 6.6 100.6 6.2 C 100.6 6.2 100.9 6.5 100.9 6.5 C 100.4 7 99.9 7.2 99.2 7.2 C 97.9 7.2 97 6.3 97 4.9 C 97 3.7 97.9 2.7 99.1 2.7 Z M 97.5 4.7 C 97.5 4.7 100.7 4.7 100.7 4.7 C 100.7 4 100.2 3.1 99.1 3.1 C 98.1 3.1 97.5 4 97.5 4.7 Z M 107.5 4.1 C 107.5 3.5 107.3 3.1 106.7 3.1 C 106.2 3.1 105.7 3.4 105.4 3.8 C 105.41 3.82 105.4 7.1 105.4 7.1 L 104.9 7.1 C 104.9 7.1 104.93 4.07 104.9 4.1 C 104.9 3.5 104.7 3.1 104.1 3.1 C 103.6 3.1 103.1 3.4 102.8 3.8 C 102.82 3.82 102.8 7.1 102.8 7.1 L 102.3 7.1 L 102.3 2.8 L 102.8 2.8 C 102.8 2.8 102.82 3.42 102.8 3.4 C 103 3.1 103.6 2.7 104.2 2.7 C 104.9 2.7 105.3 3.1 105.4 3.5 C 105.6 3.1 106.2 2.7 106.8 2.7 C 107.6 2.7 108 3.1 108 4 C 107.99 3.98 108 7.1 108 7.1 L 107.5 7.1 C 107.5 7.1 107.52 4.07 107.5 4.1 Z M 111.8 1.1 L 112.3 1.1 L 112.3 7.1 L 111.8 7.1 L 111.8 1.1 Z M 113.8 8.8 L 113.8 2.8 L 114.3 2.8 C 114.3 2.8 114.25 3.46 114.3 3.5 C 114.6 3 115.1 2.7 115.8 2.7 C 116.9 2.7 117.7 3.5 117.7 4.9 C 117.7 6.3 116.9 7.2 115.8 7.2 C 115.2 7.2 114.6 6.9 114.3 6.4 C 114.25 6.41 114.3 8.8 114.3 8.8 L 113.8 8.8 Z M 115.7 3.1 C 115.1 3.1 114.5 3.4 114.3 3.9 C 114.3 3.9 114.3 6 114.3 6 C 114.5 6.4 115.1 6.8 115.7 6.8 C 116.7 6.8 117.2 6 117.2 4.9 C 117.2 3.9 116.7 3.1 115.7 3.1 Z M 118.8 6.2 C 119.1 6.5 119.6 6.8 120.2 6.8 C 121 6.8 121.4 6.5 121.4 6 C 121.4 5.4 120.8 5.2 120.2 5.1 C 119.4 4.9 118.6 4.7 118.6 3.9 C 118.6 3.2 119.2 2.7 120.2 2.7 C 120.9 2.7 121.4 2.9 121.7 3.3 C 121.7 3.3 121.5 3.6 121.5 3.6 C 121.2 3.3 120.8 3.1 120.2 3.1 C 119.5 3.1 119.1 3.4 119.1 3.8 C 119.1 4.3 119.7 4.5 120.3 4.6 C 121 4.8 121.8 5 121.8 5.9 C 121.8 6.6 121.3 7.2 120.2 7.2 C 119.5 7.2 119 7 118.5 6.5 C 118.5 6.5 118.8 6.2 118.8 6.2 Z M 126 6.5 C 125.6 6.9 125 7.2 124.4 7.2 C 123.5 7.2 123 6.8 123 5.8 C 123.05 5.82 123 2.8 123 2.8 L 123.5 2.8 C 123.5 2.8 123.52 5.72 123.5 5.7 C 123.5 6.6 123.9 6.8 124.6 6.8 C 125.1 6.8 125.7 6.5 126 6.1 C 125.98 6.08 126 2.8 126 2.8 L 126.4 2.8 L 126.4 7.1 L 126 7.1 C 126 7.1 125.98 6.47 126 6.5 Z M 133.1 4.1 C 133.1 3.5 132.8 3.1 132.2 3.1 C 131.7 3.1 131.2 3.4 131 3.8 C 130.97 3.82 131 7.1 131 7.1 L 130.5 7.1 C 130.5 7.1 130.49 4.07 130.5 4.1 C 130.5 3.5 130.2 3.1 129.6 3.1 C 129.2 3.1 128.6 3.4 128.4 3.8 C 128.38 3.82 128.4 7.1 128.4 7.1 L 127.9 7.1 L 127.9 2.8 L 128.4 2.8 C 128.4 2.8 128.38 3.42 128.4 3.4 C 128.6 3.1 129.1 2.7 129.8 2.7 C 130.5 2.7 130.8 3.1 130.9 3.5 C 131.2 3.1 131.8 2.7 132.4 2.7 C 133.2 2.7 133.6 3.1 133.6 4 C 133.55 3.98 133.6 7.1 133.6 7.1 L 133.1 7.1 C 133.1 7.1 133.08 4.07 133.1 4.1 Z " stroke="none" fill="#000"/>
  </g>
</svg>