<?xml version="1.0" standalone="no"?><!DOCTYPE svg PUBLIC "-//W3C//DTD SVG 1.1//EN" "http://www.w3.org/Graphics/SVG/1.1/DTD/svg11.dtd"><svg xmlns="http://www.w3.org/2000/svg" version="1.1" width="158.4px" height="28.3px" viewBox="0 -6 158.4 28.3" style="top:-6px"><desc>REQUEST MORE INFO</desc><defs/><g id="Polygon314498"><path d="m4.7 8.5H2.8v4H1.2V2s4.44-.05 4.4 0C7.7 2 9 3.3 9 5.2c0 1.9-1.2 2.9-2.6 3.1l2.7 4.2H7.3l-2.6-4zm.7-5.2c.03.05-2.6 0-2.6 0v3.8s2.63-.03 2.6 0c1.2 0 2-.8 2-1.9c0-1.1-.8-1.9-2-1.9zM11 2h7.1v1.3h-5.5v3.1h5.4v1.4h-5.4v3.3h5.5v1.4H11V2zm17.9 9.1c-.01.02.9 1 .9 1l-1.1 1s-.94-1.08-.9-1.1c-.8.5-1.8.7-2.8.7c-3.2 0-5.4-2.3-5.4-5.4c0-3.2 2.2-5.5 5.4-5.5c3.1 0 5.3 2.3 5.3 5.5c0 1.5-.5 2.8-1.4 3.8zm-2.2-.2c.04-.01-1.4-1.6-1.4-1.6l1.1-.9s1.44 1.56 1.4 1.6c.6-.8.9-1.7.9-2.7c0-2.4-1.5-4.1-3.7-4.1c-2.3 0-3.7 1.7-3.7 4.1c0 2.3 1.4 4 3.7 4c.6 0 1.2-.1 1.7-.4zM32.2 2h1.6s.04 6.35 0 6.4c0 1.8 1 2.9 2.9 2.9c1.9 0 2.8-1.1 2.8-2.9c.04-.05 0-6.4 0-6.4h1.6s.04 6.39 0 6.4c0 2.6-1.4 4.3-4.4 4.3c-3 0-4.5-1.7-4.5-4.3c.04 0 0-6.4 0-6.4zm11.3 0h7.1v1.3h-5.5v3.1h5.4v1.4h-5.4v3.3h5.5v1.4h-7.1V2zm9.4 7.8c.7.8 1.8 1.5 3.3 1.5c1.7 0 2.3-.9 2.3-1.6c0-1.1-1.2-1.4-2.5-1.8c-1.7-.4-3.7-.9-3.7-3.1c0-1.7 1.5-3 3.7-3c1.7 0 3 .5 3.9 1.5L59 4.4c-.8-.8-1.9-1.2-3.1-1.2c-1.2 0-2 .6-2 1.5c0 1 1.2 1.3 2.5 1.6c1.7.4 3.7 1 3.7 3.2c0 1.7-1.1 3.2-4 3.2c-1.9 0-3.2-.6-4.1-1.6l.9-1.3zm11.5-6.5h-3.2V2h8.1v1.3H66v9.2h-1.6V3.3zm19.8.8l-3.5 8.4h-.6l-3.5-8.4v8.4H75V2h2.3l3.1 7.6L83.5 2h2.3v10.5h-1.6V4.1zM93 1.8c3.2 0 5.3 2.3 5.3 5.5c0 3.1-2.1 5.4-5.3 5.4c-3.2 0-5.3-2.3-5.3-5.4c0-3.2 2.1-5.5 5.3-5.5zm0 1.4c-2.3 0-3.7 1.7-3.7 4.1c0 2.3 1.4 4 3.7 4c2.2 0 3.7-1.7 3.7-4c0-2.4-1.5-4.1-3.7-4.1zm10.8 5.3h-2v4h-1.5V2s4.41-.05 4.4 0c2 0 3.4 1.3 3.4 3.2c0 1.9-1.3 2.9-2.6 3.1c-.03 0 2.7 4.2 2.7 4.2h-1.9l-2.5-4zm.7-5.2c.01.05-2.7 0-2.7 0v3.8s2.71-.03 2.7 0c1.1 0 2-.8 2-1.9c0-1.1-.9-1.9-2-1.9zm5.6-1.3h7.1v1.3h-5.5v3.1h5.4v1.4h-5.4v3.3h5.5v1.4h-7.1V2zm13.2 0h1.5v10.5h-1.5V2zm5.5 2.4v8.1h-1.6V2h1.6l5.8 7.9V2h1.6v10.5h-1.5l-5.9-8.1zm9.8-2.4h7.1v1.3h-5.6v3.1h5.5v1.4h-5.5v4.7h-1.5V2zm13.7-.2c3.1 0 5.3 2.3 5.3 5.5c0 3.1-2.2 5.4-5.3 5.4c-3.2 0-5.4-2.3-5.4-5.4c0-3.2 2.2-5.5 5.4-5.5zm0 1.4c-2.3 0-3.7 1.7-3.7 4.1c0 2.3 1.4 4 3.7 4c2.2 0 3.7-1.7 3.7-4c0-2.4-1.5-4.1-3.7-4.1z" stroke="none" fill="#ffffff"/></g></svg>