<?xml version="1.0" standalone="no"?><!DOCTYPE svg PUBLIC "-//W3C//DTD SVG 1.1//EN" "http://www.w3.org/Graphics/SVG/1.1/DTD/svg11.dtd"><svg xmlns="http://www.w3.org/2000/svg" version="1.1" width="19px" height="51.8px" viewBox="0 -13 19 51.8" style="top:-13px"><desc/><defs/><g id="Polygon278696"><path d="m10.5 23.6c.05.05 0 2.9 0 2.9H8.6v-2.8c-3.2-.2-5.7-1.5-7.3-3.4l1.6-2c1.3 1.4 3.2 2.7 5.7 3v-7.7c-3.2-.9-6.6-2-6.6-5.9c0-3.3 2.8-5.6 6.6-5.9v-2.9h1.9s.05 2.99 0 3c2.7.2 4.8 1.3 6.3 2.9l-1.6 1.9c-1.2-1.4-2.9-2.1-4.7-2.4v6.9c3.3.9 6.8 2.1 6.8 6.3c0 2.8-1.8 5.8-6.8 6.1zM8.6 10.7V4.2c-2.3.1-3.9 1.5-3.9 3.3c0 1.9 1.8 2.6 3.9 3.2zm6 7c0-2.2-1.9-2.9-4.1-3.6v7.2c3.1-.3 4.1-2.1 4.1-3.6z" stroke="none" fill="#fff"/></g></svg>