<?xml version="1.0" standalone="no"?>
<!DOCTYPE svg PUBLIC "-//W3C//DTD SVG 1.1//EN" "http://www.w3.org/Graphics/SVG/1.1/DTD/svg11.dtd">
<svg xmlns="http://www.w3.org/2000/svg" version="1.1" width="153px" height="27.9px" viewBox="0 -6 153 27.9" style="top:-6px">
  <desc>Agent 1</desc>
  <defs/>
  <g id="Polygon270361">
    <path d="M 2.8 4.4 L 2.8 12.5 L 1.2 12.5 L 1.2 2 L 2.8 2 L 8.6 9.9 L 8.6 2 L 10.2 2 L 10.2 12.5 L 8.6 12.5 L 2.8 4.4 Z M 15.7 4.7 C 18 4.7 19.4 6.5 19.4 8.8 C 19.42 8.83 19.4 9.2 19.4 9.2 C 19.4 9.2 13.36 9.18 13.4 9.2 C 13.5 10.5 14.4 11.6 16 11.6 C 16.8 11.6 17.7 11.2 18.2 10.7 C 18.2 10.7 18.9 11.6 18.9 11.6 C 18.1 12.3 17.1 12.7 15.8 12.7 C 13.5 12.7 11.8 11.1 11.8 8.7 C 11.8 6.5 13.5 4.7 15.7 4.7 Z M 13.3 8.1 C 13.3 8.1 18 8.1 18 8.1 C 18 7.1 17.3 5.9 15.7 5.9 C 14.2 5.9 13.4 7.1 13.3 8.1 Z M 21.3 10.8 C 21.35 10.85 21.3 6.1 21.3 6.1 L 20.1 6.1 L 20.1 4.9 L 21.3 4.9 L 21.3 2.8 L 22.8 2.8 L 22.8 4.9 L 24.3 4.9 L 24.3 6.1 L 22.8 6.1 C 22.8 6.1 22.77 10.53 22.8 10.5 C 22.8 11.1 23 11.5 23.5 11.5 C 23.9 11.5 24.2 11.3 24.3 11.2 C 24.3 11.2 24.7 12.2 24.7 12.2 C 24.4 12.5 23.9 12.7 23.2 12.7 C 22 12.7 21.3 12.1 21.3 10.8 Z M 34.6 1.8 C 37.8 1.8 40 4.1 40 7.3 C 40 10.4 37.8 12.7 34.6 12.7 C 31.5 12.7 29.3 10.4 29.3 7.3 C 29.3 4.1 31.5 1.8 34.6 1.8 Z M 34.6 3.2 C 32.4 3.2 30.9 4.9 30.9 7.3 C 30.9 9.6 32.4 11.3 34.6 11.3 C 36.9 11.3 38.3 9.6 38.3 7.3 C 38.3 4.9 36.9 3.2 34.6 3.2 Z M 41.7 15.5 L 41.7 4.9 L 43.1 4.9 C 43.1 4.9 43.12 5.97 43.1 6 C 43.7 5.2 44.6 4.7 45.6 4.7 C 47.6 4.7 49 6.2 49 8.7 C 49 11.2 47.6 12.7 45.6 12.7 C 44.6 12.7 43.7 12.3 43.1 11.4 C 43.12 11.44 43.1 15.5 43.1 15.5 L 41.7 15.5 Z M 45.2 6 C 44.4 6 43.5 6.5 43.1 7.1 C 43.1 7.1 43.1 10.3 43.1 10.3 C 43.5 10.9 44.4 11.5 45.2 11.5 C 46.7 11.5 47.6 10.3 47.6 8.7 C 47.6 7.1 46.7 6 45.2 6 Z M 54.1 4.7 C 56.4 4.7 57.8 6.5 57.8 8.8 C 57.79 8.83 57.8 9.2 57.8 9.2 C 57.8 9.2 51.73 9.18 51.7 9.2 C 51.8 10.5 52.8 11.6 54.3 11.6 C 55.1 11.6 56 11.2 56.6 10.7 C 56.6 10.7 57.3 11.6 57.3 11.6 C 56.5 12.3 55.4 12.7 54.2 12.7 C 51.9 12.7 50.2 11.1 50.2 8.7 C 50.2 6.5 51.8 4.7 54.1 4.7 Z M 51.7 8.1 C 51.7 8.1 56.4 8.1 56.4 8.1 C 56.4 7.1 55.7 5.9 54.1 5.9 C 52.5 5.9 51.8 7.1 51.7 8.1 Z M 59.4 4.9 L 60.9 4.9 C 60.9 4.9 60.86 6.05 60.9 6.1 C 61.4 5.3 62.4 4.7 63.4 4.7 C 63.4 4.7 63.4 6.1 63.4 6.1 C 63.2 6.1 63.1 6.1 62.9 6.1 C 62.2 6.1 61.2 6.6 60.9 7.2 C 60.86 7.21 60.9 12.5 60.9 12.5 L 59.4 12.5 L 59.4 4.9 Z M 69.4 11.7 C 68.8 12.4 67.9 12.7 66.9 12.7 C 65.6 12.7 64.2 11.9 64.2 10.2 C 64.2 8.4 65.6 7.7 66.9 7.7 C 67.9 7.7 68.8 8 69.4 8.7 C 69.4 8.7 69.4 7.4 69.4 7.4 C 69.4 6.5 68.6 5.9 67.5 5.9 C 66.6 5.9 65.9 6.2 65.2 6.9 C 65.2 6.9 64.6 5.9 64.6 5.9 C 65.4 5.1 66.5 4.7 67.7 4.7 C 69.4 4.7 70.8 5.4 70.8 7.4 C 70.8 7.37 70.8 12.5 70.8 12.5 L 69.4 12.5 C 69.4 12.5 69.37 11.71 69.4 11.7 Z M 69.4 9.6 C 68.9 9 68.2 8.7 67.4 8.7 C 66.4 8.7 65.6 9.3 65.6 10.2 C 65.6 11.1 66.4 11.7 67.4 11.7 C 68.2 11.7 68.9 11.4 69.4 10.9 C 69.4 10.9 69.4 9.6 69.4 9.6 Z M 73.2 10.8 C 73.22 10.85 73.2 6.1 73.2 6.1 L 71.9 6.1 L 71.9 4.9 L 73.2 4.9 L 73.2 2.8 L 74.6 2.8 L 74.6 4.9 L 76.2 4.9 L 76.2 6.1 L 74.6 6.1 C 74.6 6.1 74.65 10.53 74.6 10.5 C 74.6 11.1 74.9 11.5 75.4 11.5 C 75.7 11.5 76 11.3 76.2 11.2 C 76.2 11.2 76.5 12.2 76.5 12.2 C 76.2 12.5 75.8 12.7 75 12.7 C 73.8 12.7 73.2 12.1 73.2 10.8 Z M 77.4 2.7 C 77.4 2.2 77.8 1.8 78.3 1.8 C 78.8 1.8 79.3 2.2 79.3 2.7 C 79.3 3.2 78.8 3.6 78.3 3.6 C 77.8 3.6 77.4 3.2 77.4 2.7 Z M 77.6 4.9 L 79.1 4.9 L 79.1 12.5 L 77.6 12.5 L 77.6 4.9 Z M 86.4 7.6 C 86.4 6.4 85.7 6 84.7 6 C 83.8 6 83 6.5 82.6 7.1 C 82.6 7.07 82.6 12.5 82.6 12.5 L 81.2 12.5 L 81.2 4.9 L 82.6 4.9 C 82.6 4.9 82.6 5.95 82.6 6 C 83.1 5.3 84.1 4.7 85.3 4.7 C 86.9 4.7 87.8 5.5 87.8 7.2 C 87.78 7.16 87.8 12.5 87.8 12.5 L 86.4 12.5 C 86.4 12.5 86.35 7.64 86.4 7.6 Z M 90.5 13.5 C 91.1 14.2 91.9 14.5 93 14.5 C 94.2 14.5 95.4 13.9 95.4 12.3 C 95.4 12.3 95.4 11.3 95.4 11.3 C 94.8 12.1 93.9 12.6 92.8 12.6 C 90.8 12.6 89.4 11.2 89.4 8.6 C 89.4 6.2 90.8 4.7 92.8 4.7 C 93.8 4.7 94.7 5.2 95.4 6 C 95.36 5.99 95.4 4.9 95.4 4.9 L 96.8 4.9 C 96.8 4.9 96.79 12.24 96.8 12.2 C 96.8 14.9 94.9 15.7 93 15.7 C 91.7 15.7 90.8 15.4 89.8 14.5 C 89.8 14.5 90.5 13.5 90.5 13.5 Z M 95.4 7.1 C 95 6.5 94.1 6 93.2 6 C 91.8 6 90.9 7.1 90.9 8.6 C 90.9 10.2 91.8 11.3 93.2 11.3 C 94.1 11.3 95 10.8 95.4 10.2 C 95.4 10.2 95.4 7.1 95.4 7.1 Z M 102.9 2 L 104.5 2 L 104.5 12.5 L 102.9 12.5 L 102.9 2 Z M 111.8 7.6 C 111.8 6.4 111.2 6 110.2 6 C 109.3 6 108.5 6.5 108.1 7.1 C 108.06 7.07 108.1 12.5 108.1 12.5 L 106.6 12.5 L 106.6 4.9 L 108.1 4.9 C 108.1 4.9 108.06 5.95 108.1 6 C 108.6 5.3 109.6 4.7 110.8 4.7 C 112.4 4.7 113.2 5.5 113.2 7.2 C 113.24 7.16 113.2 12.5 113.2 12.5 L 111.8 12.5 C 111.8 12.5 111.81 7.64 111.8 7.6 Z M 118.8 4.7 C 120.2 4.7 121.1 5.3 121.7 6 C 121.7 6 120.7 6.9 120.7 6.9 C 120.2 6.3 119.6 6 118.8 6 C 117.3 6 116.4 7.1 116.4 8.7 C 116.4 10.3 117.3 11.5 118.8 11.5 C 119.6 11.5 120.2 11.2 120.7 10.5 C 120.7 10.5 121.7 11.4 121.7 11.4 C 121.1 12.1 120.2 12.7 118.8 12.7 C 116.5 12.7 114.9 11 114.9 8.7 C 114.9 6.4 116.5 4.7 118.8 4.7 Z M 122.6 8.7 C 122.6 6.5 124.1 4.7 126.5 4.7 C 128.9 4.7 130.3 6.5 130.3 8.7 C 130.3 10.9 128.9 12.7 126.5 12.7 C 124.1 12.7 122.6 10.9 122.6 8.7 Z M 128.9 8.7 C 128.9 7.3 128 6 126.5 6 C 124.9 6 124.1 7.3 124.1 8.7 C 124.1 10.2 124.9 11.5 126.5 11.5 C 128 11.5 128.9 10.2 128.9 8.7 Z M 141.3 7.4 C 141.3 6.5 140.9 6 140 6 C 139.2 6 138.4 6.5 138.1 7.1 C 138.08 7.05 138.1 12.5 138.1 12.5 L 136.7 12.5 C 136.7 12.5 136.65 7.43 136.7 7.4 C 136.7 6.5 136.3 6 135.3 6 C 134.6 6 133.8 6.5 133.4 7.1 C 133.43 7.07 133.4 12.5 133.4 12.5 L 132 12.5 L 132 4.9 L 133.4 4.9 C 133.4 4.9 133.43 5.95 133.4 6 C 133.7 5.5 134.8 4.7 135.9 4.7 C 137.1 4.7 137.7 5.3 138 6.1 C 138.4 5.4 139.4 4.7 140.6 4.7 C 142 4.7 142.7 5.5 142.7 7 C 142.75 7 142.7 12.5 142.7 12.5 L 141.3 12.5 C 141.3 12.5 141.32 7.43 141.3 7.4 Z M 148.2 4.7 C 150.5 4.7 152 6.5 152 8.8 C 151.96 8.83 152 9.2 152 9.2 C 152 9.2 145.89 9.18 145.9 9.2 C 146 10.5 147 11.6 148.5 11.6 C 149.3 11.6 150.2 11.2 150.8 10.7 C 150.8 10.7 151.4 11.6 151.4 11.6 C 150.7 12.3 149.6 12.7 148.4 12.7 C 146.1 12.7 144.4 11.1 144.4 8.7 C 144.4 6.5 146 4.7 148.2 4.7 Z M 145.9 8.1 C 145.9 8.1 150.6 8.1 150.6 8.1 C 150.5 7.1 149.8 5.9 148.2 5.9 C 146.7 5.9 146 7.1 145.9 8.1 Z " stroke="none" fill="#3797ef"/>
  </g>
</svg>