<?xml version="1.0" standalone="no"?>
<!DOCTYPE svg PUBLIC "-//W3C//DTD SVG 1.1//EN" "http://www.w3.org/Graphics/SVG/1.1/DTD/svg11.dtd">
<svg xmlns="http://www.w3.org/2000/svg" version="1.1" width="58.2px" height="16.9px" viewBox="0 -4 58.2 16.9" style="top:-4px">
  <desc>Agent 1</desc>
  <defs/>
  <g id="Polygon268226">
    <path d="M 2.7 4.8 L 1.6 4.8 L 1.6 7.1 L 0.7 7.1 L 0.7 1.1 C 0.7 1.1 3.2 1.11 3.2 1.1 C 4.3 1.1 5.1 1.8 5.1 3 C 5.1 4 4.4 4.6 3.6 4.7 C 3.63 4.71 5.2 7.1 5.2 7.1 L 4.1 7.1 L 2.7 4.8 Z M 3.1 1.9 C 3.08 1.9 1.6 1.9 1.6 1.9 L 1.6 4 C 1.6 4 3.08 4.01 3.1 4 C 3.7 4 4.2 3.6 4.2 3 C 4.2 2.3 3.7 1.9 3.1 1.9 Z M 7.8 2.7 C 9.1 2.7 9.9 3.7 9.9 5 C 9.87 5 9.9 5.2 9.9 5.2 C 9.9 5.2 6.43 5.2 6.4 5.2 C 6.5 5.9 7 6.6 7.9 6.6 C 8.4 6.6 8.9 6.4 9.2 6 C 9.2 6 9.6 6.6 9.6 6.6 C 9.1 7 8.5 7.2 7.8 7.2 C 6.5 7.2 5.6 6.3 5.6 4.9 C 5.6 3.7 6.5 2.7 7.8 2.7 Z M 6.4 4.6 C 6.4 4.6 9.1 4.6 9.1 4.6 C 9.1 4 8.7 3.3 7.8 3.3 C 6.9 3.3 6.5 4 6.4 4.6 Z M 13.7 4.3 C 13.7 3.6 13.4 3.4 12.8 3.4 C 12.3 3.4 11.8 3.7 11.6 4 C 11.61 4 11.6 7.1 11.6 7.1 L 10.8 7.1 L 10.8 2.8 L 11.6 2.8 C 11.6 2.8 11.61 3.37 11.6 3.4 C 11.9 3 12.5 2.7 13.1 2.7 C 14.1 2.7 14.5 3.1 14.5 4.1 C 14.54 4.06 14.5 7.1 14.5 7.1 L 13.7 7.1 C 13.7 7.1 13.73 4.33 13.7 4.3 Z M 15.9 6.1 C 15.9 6.15 15.9 3.5 15.9 3.5 L 15.2 3.5 L 15.2 2.8 L 15.9 2.8 L 15.9 1.6 L 16.7 1.6 L 16.7 2.8 L 17.6 2.8 L 17.6 3.5 L 16.7 3.5 C 16.7 3.5 16.71 5.97 16.7 6 C 16.7 6.3 16.9 6.5 17.1 6.5 C 17.3 6.5 17.5 6.4 17.6 6.3 C 17.6 6.3 17.8 6.9 17.8 6.9 C 17.6 7.1 17.4 7.2 16.9 7.2 C 16.3 7.2 15.9 6.8 15.9 6.1 Z M 22.1 0.9 L 22.7 0.9 L 20.6 7.3 L 20 7.3 L 22.1 0.9 Z M 25.7 5.6 C 26.1 6 26.7 6.4 27.6 6.4 C 28.6 6.4 28.9 5.9 28.9 5.5 C 28.9 4.9 28.2 4.7 27.4 4.5 C 26.5 4.2 25.4 4 25.4 2.7 C 25.4 1.7 26.2 1 27.5 1 C 28.4 1 29.2 1.3 29.7 1.9 C 29.7 1.9 29.2 2.5 29.2 2.5 C 28.7 2 28.1 1.8 27.4 1.8 C 26.8 1.8 26.3 2.2 26.3 2.7 C 26.3 3.2 26.9 3.4 27.7 3.6 C 28.7 3.8 29.8 4.1 29.8 5.4 C 29.8 6.3 29.2 7.2 27.5 7.2 C 26.5 7.2 25.7 6.8 25.2 6.3 C 25.2 6.3 25.7 5.6 25.7 5.6 Z M 30.8 1.1 L 34.8 1.1 L 34.8 1.9 L 31.7 1.9 L 31.7 3.7 L 34.7 3.7 L 34.7 4.4 L 31.7 4.4 L 31.7 7.1 L 30.8 7.1 L 30.8 1.1 Z " stroke="none" fill="#3797ef"/>
  </g>
</svg>