<?xml version="1.0" standalone="no"?><!DOCTYPE svg PUBLIC "-//W3C//DTD SVG 1.1//EN" "http://www.w3.org/Graphics/SVG/1.1/DTD/svg11.dtd"><svg xmlns="http://www.w3.org/2000/svg" version="1.1" width="343px" height="29.9px" viewBox="0 -7 343 29.9" style="top:-7px"><desc>05</desc><defs/><g id="Polygon286550"><path d="m5.2 1.9c3.1 0 4.3 3 4.3 5.8c0 2.8-1.2 5.8-4.3 5.8c-3.1 0-4.4-3-4.4-5.8c0-2.8 1.3-5.8 4.4-5.8zm0 1.5c-2 0-2.7 2.1-2.7 4.3c0 2.2.7 4.3 2.7 4.3c1.9 0 2.6-2.1 2.6-4.3c0-2.2-.7-4.3-2.6-4.3zm7.1 7.2c.8.9 1.8 1.4 3.1 1.4c1.5 0 2.4-1 2.4-2.2c0-1.3-.9-2.2-2.4-2.2c-.9 0-1.7.3-2.5 1l-1.2-.4V2.1h7.1v1.4h-5.4s-.02 3.63 0 3.6c.5-.5 1.5-1 2.6-1c1.8 0 3.5 1.3 3.5 3.6c0 2.3-1.7 3.8-4.1 3.8c-1.9 0-3.2-.7-4-1.8l.9-1.1z" stroke="none" fill="#88898a"/></g></svg>