<?xml version="1.0" standalone="no"?><!DOCTYPE svg PUBLIC "-//W3C//DTD SVG 1.1//EN" "http://www.w3.org/Graphics/SVG/1.1/DTD/svg11.dtd"><svg xmlns="http://www.w3.org/2000/svg" version="1.1" width="292.2px" height="47.4px" viewBox="0 -10 292.2 47.4" style="top:-10px"><desc>27 States, 5 Countries</desc><defs/><g id="Polygon104135"><path d="m1.5 20.1c7-5.4 10.3-8.3 10.3-11.2c0-2.2-1.9-3.2-3.7-3.2c-2.2 0-3.9.9-5.1 2.3L1.3 6.2c1.6-2 4.1-3 6.8-3c3.4 0 6.6 1.9 6.6 5.7c0 3.6-3.6 6.9-8.7 10.9c-.04.02 8.7 0 8.7 0v2.5H1.5s-.03-2.22 0-2.2zM27.4 6h-9.9V3.5h13.2v1.9l-7.5 16.9h-3.1L27.4 6zm13.9 11.5c1.2 1.4 3.3 2.6 5.9 2.6c3.1 0 4.1-1.5 4.1-2.9c0-2-2.1-2.5-4.5-3.1c-3-.8-6.5-1.7-6.5-5.5c0-3.2 2.7-5.4 6.6-5.4c2.9 0 5.2.9 6.9 2.6l-1.7 2.1c-1.4-1.5-3.4-2.2-5.4-2.2c-2.1 0-3.5 1.1-3.5 2.7c0 1.7 2 2.2 4.3 2.8c3.1.8 6.7 1.8 6.7 5.8c0 2.9-2 5.6-7.1 5.6c-3.4 0-5.8-1.2-7.4-2.9l1.6-2.2zm16.2 1.8v-8.4h-2.3V8.7h2.3V4.9h2.5v3.8h2.8v2.2H60s.03 7.82 0 7.8c0 1 .5 1.7 1.4 1.7c.5 0 1.1-.3 1.3-.6l.7 2c-.5.5-1.3.8-2.7.8c-2.1 0-3.2-1.2-3.2-3.3zM74 20.8c-1 1.2-2.6 1.8-4.4 1.8c-2.3 0-4.8-1.5-4.8-4.5c0-3.1 2.5-4.4 4.8-4.4c1.8 0 3.4.6 4.4 1.8v-2.3c0-1.7-1.4-2.7-3.3-2.7c-1.6 0-2.9.6-4.1 1.8l-1.1-1.7c1.5-1.5 3.4-2.3 5.6-2.3c3 0 5.5 1.3 5.5 4.8c-.03 0 0 9.2 0 9.2H74s.03-1.49 0-1.5zm0-3.8c-.7-1-2.1-1.6-3.5-1.6c-1.8 0-3.1 1.1-3.1 2.8c0 1.6 1.3 2.7 3.1 2.7c1.4 0 2.8-.6 3.5-1.6V17zm7.1 2.3c.05-.02 0-8.4 0-8.4h-2.2V8.7h2.2V4.9h2.6v3.8h2.8v2.2h-2.8v7.8c0 1 .4 1.7 1.3 1.7c.6 0 1.1-.3 1.4-.6l.6 2c-.5.5-1.3.8-2.6.8c-2.2 0-3.3-1.2-3.3-3.3zm14.2-11c4.1 0 6.6 3.2 6.6 7.4v.6s-10.79.02-10.8 0c.2 2.3 1.9 4.3 4.6 4.3c1.5 0 3.1-.6 4.1-1.7l1.2 1.7c-1.4 1.3-3.3 2-5.5 2c-4.1 0-7.1-2.8-7.1-7.1c0-4 2.9-7.2 6.9-7.2zm-4.2 6.2h8.3c0-1.8-1.3-4.1-4.1-4.1c-2.8 0-4.1 2.2-4.2 4.1zm14 4.2c1 1 2.8 1.9 4.6 1.9c1.9 0 2.9-.8 2.9-1.9c0-1.4-1.5-1.8-3.3-2.2c-2.3-.6-5-1.2-5-4.1c0-2.2 1.9-4.1 5.2-4.1c2.3 0 4 .9 5.2 2l-1.1 1.8c-.8-1-2.4-1.7-4.1-1.7c-1.7 0-2.8.7-2.8 1.8c0 1.2 1.5 1.6 3.2 1.9c2.4.6 5.2 1.2 5.2 4.4c0 2.3-1.9 4.1-5.5 4.1c-2.3 0-4.3-.7-5.7-2.1l1.2-1.8zm12.8 6.3c.9-.6 1.8-1.7 1.9-2.6h-.4c-.9 0-1.5-.7-1.5-1.6c0-1 .7-1.7 1.7-1.7c1 0 2 .8 2 2.3c0 1.9-1.1 3.6-2.5 4.6l-1.2-1zm15.8-7.2c1.2 1.5 2.9 2.3 5.1 2.3c2.5 0 4.1-1.6 4.1-3.6c0-2.3-1.6-3.7-4-3.7c-1.7 0-3 .5-4.3 1.7c.02-.04-2-.7-2-.7V3.5h11.9v2.5h-9.1s.02 5.97 0 6c.9-.9 2.5-1.7 4.3-1.7c3.2 0 6 2.2 6 6c0 3.9-2.9 6.3-6.9 6.3c-3.2 0-5.3-1.1-6.8-2.9l1.7-1.9zm22-4.9c0-5.8 4.3-9.7 9.6-9.7c3.7 0 6 1.7 7.5 3.9l-2.4 1.3c-1-1.6-2.9-2.7-5.1-2.7c-3.8 0-6.7 3-6.7 7.2c0 4.2 2.9 7.2 6.7 7.2c2.2 0 4.1-1.1 5.1-2.7l2.4 1.3c-1.5 2.2-3.8 3.9-7.5 3.9c-5.3 0-9.6-3.9-9.6-9.7zm19 2.6c0-4 2.7-7.2 6.9-7.2c4.3 0 6.9 3.2 6.9 7.2c0 3.9-2.6 7.1-6.9 7.1c-4.2 0-6.9-3.2-6.9-7.1zm11.1 0c0-2.6-1.5-4.9-4.2-4.9c-2.7 0-4.2 2.3-4.2 4.9c0 2.6 1.5 4.9 4.2 4.9c2.7 0 4.2-2.3 4.2-4.9zm15.1 4.9c-1 1.2-2.7 2.2-4.8 2.2c-2.9 0-4.4-1.4-4.4-4.3c.02 0 0-9.6 0-9.6h2.6s-.04 8.75 0 8.7c0 2.3 1.1 3 2.8 3c1.6 0 3.1-.9 3.8-1.9c.02-.03 0-9.8 0-9.8h2.6v13.6h-2.6s.02-1.86 0-1.9zm15.8-6.8c0-2.3-1.2-3-2.9-3c-1.6 0-3 .9-3.8 2c.04-.04 0 9.7 0 9.7h-2.5V8.7h2.5s.04 1.89 0 1.9c.9-1.1 2.8-2.3 4.9-2.3c2.8 0 4.3 1.6 4.3 4.4c.04.03 0 9.6 0 9.6h-2.5v-8.7zm7.1 5.7v-8.4h-2.3V8.7h2.3V4.9h2.5v3.8h2.8v2.2h-2.8s.03 7.82 0 7.8c0 1 .5 1.7 1.4 1.7c.6 0 1.1-.3 1.3-.6l.7 2c-.5.5-1.3.8-2.7.8c-2.1 0-3.2-1.2-3.2-3.3zm8.1-10.6h2.6s-.04 2.06 0 2.1c1-1.4 2.6-2.4 4.4-2.4v2.5c-.2 0-.5-.1-.9-.1c-1.2 0-2.9 1-3.5 2c-.04.02 0 9.5 0 9.5h-2.6V8.7zm9.2-3.9c0-.9.7-1.7 1.6-1.7c.9 0 1.6.8 1.6 1.7c0 .9-.7 1.6-1.6 1.6c-.9 0-1.6-.7-1.6-1.6zm.4 3.9h2.5v13.6h-2.5V8.7zm12.5-.4c4.1 0 6.7 3.2 6.7 7.4c-.04 0 0 .6 0 .6c0 0-10.82.02-10.8 0c.2 2.3 1.9 4.3 4.6 4.3c1.4 0 3-.6 4-1.7l1.2 1.7c-1.3 1.3-3.2 2-5.4 2c-4.1 0-7.1-2.8-7.1-7.1c0-4 2.8-7.2 6.8-7.2zm-4.1 6.2h8.3c-.1-1.8-1.3-4.1-4.2-4.1c-2.7 0-4 2.2-4.1 4.1zm14 4.2c.9 1 2.7 1.9 4.6 1.9c1.9 0 2.9-.8 2.9-1.9c0-1.4-1.6-1.8-3.3-2.2c-2.3-.6-5-1.2-5-4.1c0-2.2 1.8-4.1 5.2-4.1c2.3 0 4 .9 5.2 2l-1.2 1.8c-.8-1-2.3-1.7-4-1.7c-1.7 0-2.8.7-2.8 1.8c0 1.2 1.5 1.6 3.2 1.9c2.3.6 5.2 1.2 5.2 4.4c0 2.3-2 4.1-5.6 4.1c-2.2 0-4.2-.7-5.6-2.1l1.2-1.8z" stroke="none" fill="#000"/></g></svg>