<?xml version="1.0" standalone="no"?><!DOCTYPE svg PUBLIC "-//W3C//DTD SVG 1.1//EN" "http://www.w3.org/Graphics/SVG/1.1/DTD/svg11.dtd"><svg xmlns="http://www.w3.org/2000/svg" version="1.1" width="77px" height="15.9px" viewBox="0 -4 77 15.9" style="top:-4px"><desc>9 56%</desc><defs/><g id="Polygon108822"><path d="m54.3 6.1c.3.4.6.6 1.3.6c1.3 0 1.8-1.3 1.8-2.6v-.3c-.3.4-1 1-1.8 1c-1.1 0-1.9-.6-1.9-1.9c0-1 .7-1.9 2-1.9c1.6 0 2.2 1.5 2.2 3.1c0 1.6-.7 3.1-2.3 3.1c-.8 0-1.3-.3-1.6-.8l.3-.3zm1.4-4.6c-1 0-1.5.8-1.5 1.4c0 1 .6 1.5 1.5 1.5c.7 0 1.3-.5 1.6-1.1c0-.8-.5-1.8-1.6-1.8zm3.4 4.9c.2 0 .4.2.4.4c0 .2-.2.4-.4.4c-.2 0-.4-.2-.4-.4c0-.2.2-.4.4-.4zm2-.5c.4.5.9.9 1.7.9c.8 0 1.5-.7 1.5-1.5c0-.9-.7-1.5-1.5-1.5c-.6 0-1.1.2-1.5.6c.01.02-.4-.1-.4-.1V1.1h3.5v.5h-3s.03 2.32 0 2.3c.3-.3.8-.5 1.5-.5c1 0 1.9.6 1.9 1.9c0 1.2-.9 1.9-2 1.9c-1 0-1.7-.4-2.1-1l.4-.3zm7-4.9c.8 0 1.3.3 1.6.8l-.3.4c-.3-.4-.6-.7-1.3-.7c-1.3 0-1.8 1.3-1.8 2.6c0 .1 0 .2.1.3c.2-.4.9-1 1.7-1c1.1 0 1.9.6 1.9 1.9c0 1-.7 1.9-2 1.9c-1.6 0-2.2-1.5-2.2-3.1c0-1.5.7-3.1 2.3-3.1zM68 3.9c-.6 0-1.3.4-1.6 1c.1.8.5 1.9 1.6 1.9c1 0 1.5-.8 1.5-1.5c0-1-.6-1.4-1.5-1.4zM72.3 1c.8 0 1.4.7 1.4 1.5c0 .8-.6 1.5-1.4 1.5c-.9 0-1.4-.7-1.4-1.5c0-.8.5-1.5 1.4-1.5zm3.2.1h.5l-3.9 6h-.4l3.8-6zm-3.2.3c-.6 0-1 .5-1 1.1c0 .6.4 1.1 1 1.1c.6 0 1-.5 1-1.1c0-.6-.4-1.1-1-1.1zm3 2.9c.9 0 1.4.6 1.4 1.5c0 .8-.5 1.4-1.4 1.4c-.8 0-1.4-.6-1.4-1.4c0-.9.6-1.5 1.4-1.5zm0 .3c-.6 0-1 .5-1 1.2c0 .6.4 1.1 1 1.1c.6 0 1-.5 1-1.1c0-.7-.4-1.2-1-1.2z" stroke="none" fill="#000"/></g></svg>