<?xml version="1.0" standalone="no"?>
<!DOCTYPE svg PUBLIC "-//W3C//DTD SVG 1.1//EN" "http://www.w3.org/Graphics/SVG/1.1/DTD/svg11.dtd">
<svg xmlns="http://www.w3.org/2000/svg" version="1.1" width="158px" height="27.9px" viewBox="0 -6 158 27.9" style="top:-6px">
  <desc>Ownership</desc>
  <defs/>
  <g id="Polygon276564">
    <path d="M 6.1 1.8 C 9.2 1.8 11.4 4.1 11.4 7.3 C 11.4 10.4 9.2 12.7 6.1 12.7 C 2.9 12.7 0.7 10.4 0.7 7.3 C 0.7 4.1 2.9 1.8 6.1 1.8 Z M 6.1 3.2 C 3.8 3.2 2.4 4.9 2.4 7.3 C 2.4 9.6 3.8 11.3 6.1 11.3 C 8.3 11.3 9.8 9.6 9.8 7.3 C 9.8 4.9 8.3 3.2 6.1 3.2 Z M 18.1 6.7 L 16.2 12.5 L 14.7 12.5 L 12.3 4.9 L 13.8 4.9 L 15.5 10.7 L 17.4 4.9 L 18.7 4.9 L 20.6 10.7 L 22.3 4.9 L 23.8 4.9 L 21.4 12.5 L 19.9 12.5 L 18.1 6.7 Z M 30.3 7.6 C 30.3 6.4 29.6 6 28.7 6 C 27.8 6 27 6.5 26.5 7.1 C 26.54 7.07 26.5 12.5 26.5 12.5 L 25.1 12.5 L 25.1 4.9 L 26.5 4.9 C 26.5 4.9 26.54 5.95 26.5 6 C 27 5.3 28.1 4.7 29.3 4.7 C 30.9 4.7 31.7 5.5 31.7 7.2 C 31.72 7.16 31.7 12.5 31.7 12.5 L 30.3 12.5 C 30.3 12.5 30.29 7.64 30.3 7.6 Z M 37.4 4.7 C 39.7 4.7 41.1 6.5 41.1 8.8 C 41.09 8.83 41.1 9.2 41.1 9.2 C 41.1 9.2 35.02 9.18 35 9.2 C 35.1 10.5 36.1 11.6 37.6 11.6 C 38.4 11.6 39.3 11.2 39.9 10.7 C 39.9 10.7 40.6 11.6 40.6 11.6 C 39.8 12.3 38.7 12.7 37.5 12.7 C 35.2 12.7 33.5 11.1 33.5 8.7 C 33.5 6.5 35.1 4.7 37.4 4.7 Z M 35 8.1 C 35 8.1 39.7 8.1 39.7 8.1 C 39.7 7.1 39 5.9 37.4 5.9 C 35.8 5.9 35.1 7.1 35 8.1 Z M 42.9 4.9 L 44.3 4.9 C 44.3 4.9 44.31 6.05 44.3 6.1 C 44.9 5.3 45.8 4.7 46.8 4.7 C 46.8 4.7 46.8 6.1 46.8 6.1 C 46.7 6.1 46.5 6.1 46.3 6.1 C 45.6 6.1 44.6 6.6 44.3 7.2 C 44.31 7.21 44.3 12.5 44.3 12.5 L 42.9 12.5 L 42.9 4.9 Z M 48.3 10.5 C 48.8 11.1 49.8 11.6 50.8 11.6 C 51.9 11.6 52.5 11.2 52.5 10.5 C 52.5 9.7 51.6 9.5 50.6 9.3 C 49.3 9 47.8 8.6 47.8 7 C 47.8 5.7 48.9 4.7 50.7 4.7 C 52 4.7 53 5.2 53.6 5.8 C 53.6 5.8 53 6.8 53 6.8 C 52.6 6.2 51.7 5.8 50.7 5.8 C 49.8 5.8 49.2 6.2 49.2 6.8 C 49.2 7.5 50 7.7 51 8 C 52.3 8.3 53.9 8.6 53.9 10.4 C 53.9 11.7 52.8 12.7 50.8 12.7 C 49.5 12.7 48.4 12.3 47.6 11.5 C 47.6 11.5 48.3 10.5 48.3 10.5 Z M 60.9 7.6 C 60.9 6.3 60.2 6 59.2 6 C 58.3 6 57.5 6.5 57.1 7.1 C 57.11 7.07 57.1 12.5 57.1 12.5 L 55.7 12.5 L 55.7 2 L 57.1 2 C 57.1 2 57.11 5.95 57.1 6 C 57.6 5.3 58.7 4.7 59.8 4.7 C 61.5 4.7 62.3 5.5 62.3 7.1 C 62.29 7.13 62.3 12.5 62.3 12.5 L 60.9 12.5 C 60.9 12.5 60.86 7.61 60.9 7.6 Z M 64.4 2.7 C 64.4 2.2 64.8 1.8 65.3 1.8 C 65.8 1.8 66.2 2.2 66.2 2.7 C 66.2 3.2 65.8 3.6 65.3 3.6 C 64.8 3.6 64.4 3.2 64.4 2.7 Z M 64.6 4.9 L 66 4.9 L 66 12.5 L 64.6 12.5 L 64.6 4.9 Z M 68.3 15.5 L 68.3 4.9 L 69.7 4.9 C 69.7 4.9 69.71 5.97 69.7 6 C 70.3 5.2 71.2 4.7 72.2 4.7 C 74.2 4.7 75.6 6.2 75.6 8.7 C 75.6 11.2 74.2 12.7 72.2 12.7 C 71.2 12.7 70.3 12.3 69.7 11.4 C 69.71 11.44 69.7 15.5 69.7 15.5 L 68.3 15.5 Z M 71.8 6 C 71 6 70.1 6.5 69.7 7.1 C 69.7 7.1 69.7 10.3 69.7 10.3 C 70.1 10.9 71 11.5 71.8 11.5 C 73.3 11.5 74.1 10.3 74.1 8.7 C 74.1 7.1 73.3 6 71.8 6 Z " stroke="none" fill="#000"/>
  </g>
</svg>