<?xml version="1.0" standalone="no"?><!DOCTYPE svg PUBLIC "-//W3C//DTD SVG 1.1//EN" "http://www.w3.org/Graphics/SVG/1.1/DTD/svg11.dtd"><svg xmlns="http://www.w3.org/2000/svg" version="1.1" width="23.3px" height="218.9px" viewBox="0 -6 23.3 218.9" style="top:-6px"><desc>03 04 05 07 08 09 10</desc><defs/><g id="Polygon272478"><path d="m3.1 195l-1.8 1.8l-1.1-1.2l3.1-3.1h1.6v10.6H3.1V195zm7.7-2.6c2.9 0 4.2 2.8 4.2 5.4c0 2.7-1.3 5.5-4.2 5.5c-3 0-4.3-2.8-4.3-5.5c0-2.6 1.3-5.4 4.3-5.4zm0 1.6c-1.8 0-2.4 1.8-2.4 3.8c0 2.1.6 3.9 2.4 3.9c1.7 0 2.3-1.8 2.3-3.9c0-2-.6-3.8-2.3-3.8z" stroke="none" fill="#88898a"/></g><g id="Polygon272477"><path d="m4.9 160.6c3 0 4.2 2.8 4.2 5.5c0 2.7-1.2 5.5-4.2 5.5c-3 0-4.2-2.8-4.2-5.5c0-2.7 1.2-5.5 4.2-5.5zm0 1.7c-1.7 0-2.4 1.8-2.4 3.8c0 2 .7 3.8 2.4 3.8c1.7 0 2.3-1.8 2.3-3.8c0-2-.6-3.8-2.3-3.8zm6.8 6.7c.5.5 1.1.9 2.1.9c2 0 2.8-1.8 2.8-3.5v-.3c-.5.7-1.6 1.5-2.8 1.5c-1.9 0-3.6-1.2-3.6-3.4c0-2 1.6-3.6 3.9-3.6c3.1 0 4.4 2.5 4.4 5.5c0 3-1.6 5.4-4.7 5.4c-1.3 0-2.3-.4-3-1.1l.9-1.4zm2.5-6.7c-1.4 0-2.1 1-2.1 1.8c0 1.3 1 1.9 2.2 1.9c.9 0 1.8-.5 2.3-1.3c-.1-1.1-.7-2.4-2.4-2.4z" stroke="none" fill="#88898a"/></g><g id="Polygon272476"><path d="m4.9 128.9c3 0 4.2 2.7 4.2 5.4c0 2.7-1.2 5.5-4.2 5.5c-3 0-4.2-2.8-4.2-5.5c0-2.7 1.2-5.4 4.2-5.4zm0 1.6c-1.7 0-2.4 1.8-2.4 3.8c0 2 .7 3.8 2.4 3.8c1.7 0 2.3-1.8 2.3-3.8c0-2-.6-3.8-2.3-3.8zm7.8 3.6c-1.2-.3-2.2-1.1-2.2-2.5c0-1.9 2-2.7 3.9-2.7c1.8 0 3.8.8 3.8 2.7c0 1.4-1 2.2-2.2 2.5c1.3.5 2.4 1.4 2.4 2.8c0 1.9-1.9 2.9-4 2.9c-2.2 0-4.1-1-4.1-2.9c0-1.4 1.1-2.3 2.4-2.8zm1.7-3.6c-1.2 0-2.1.5-2.1 1.4c0 1 1.4 1.4 2.1 1.5c.6-.1 2-.5 2-1.5c0-.9-.9-1.4-2-1.4zm0 4.5c-.7.1-2.2.6-2.2 1.7c0 .9 1 1.4 2.2 1.4c1.1 0 2.1-.5 2.1-1.4c0-1.1-1.5-1.6-2.1-1.7z" stroke="none" fill="#88898a"/></g><g id="Polygon272475"><path d="m4.9 97.1c3 0 4.2 2.8 4.2 5.5c0 2.6-1.2 5.4-4.2 5.4c-3 0-4.2-2.8-4.2-5.4c0-2.7 1.2-5.5 4.2-5.5zm0 1.6c-1.7 0-2.4 1.8-2.4 3.9c0 2 .7 3.8 2.4 3.8c1.7 0 2.3-1.8 2.3-3.8c0-2.1-.6-3.9-2.3-3.9zm10.6.2h-5.4v-1.7h7.6v1.3l-4.1 9.3h-2.1l4-8.9z" stroke="none" fill="#88898a"/></g><g id="Polygon272474"><path d="m4.9 65.3c3 0 4.2 2.8 4.2 5.5c0 2.7-1.2 5.5-4.2 5.5c-3 0-4.2-2.8-4.2-5.5c0-2.7 1.2-5.5 4.2-5.5zm0 1.7c-1.7 0-2.4 1.8-2.4 3.8c0 2 .7 3.8 2.4 3.8c1.7 0 2.3-1.8 2.3-3.8c0-2-.6-3.8-2.3-3.8zm6.7 6.4c.7.8 1.6 1.2 2.8 1.2c1.4 0 2.2-.8 2.2-1.8c0-1.2-.8-1.9-2.1-1.9c-.9 0-1.7.3-2.3.9l-1.4-.4v-5.9h7v1.6h-5.1v3.1c.5-.5 1.4-.9 2.4-.9c1.8 0 3.4 1.2 3.4 3.4c0 2.2-1.7 3.6-4 3.6c-1.9 0-3.1-.7-4-1.7l1.1-1.2z" stroke="none" fill="#88898a"/></g><g id="Polygon272473"><path d="m4.9 33.6c3 0 4.2 2.8 4.2 5.4c0 2.7-1.2 5.5-4.2 5.5c-3 0-4.2-2.8-4.2-5.5c0-2.6 1.2-5.4 4.2-5.4zm0 1.6c-1.7 0-2.4 1.8-2.4 3.8c0 2 .7 3.9 2.4 3.9c1.7 0 2.3-1.9 2.3-3.9c0-2-.6-3.8-2.3-3.8zm10.2 6.7h-5v-1.5l4.3-6.7h2.6v6.6h1.4v1.6H17v2.4h-1.9v-2.4zm-3.2-1.6h3.2v-4.9l-3.2 4.9z" stroke="none" fill="#88898a"/></g><g id="Polygon272472"><path d="m4.9 1.8c3 0 4.2 2.8 4.2 5.5c0 2.6-1.2 5.4-4.2 5.4c-3 0-4.2-2.8-4.2-5.4c0-2.7 1.2-5.5 4.2-5.5zm0 1.6c-1.7 0-2.4 1.8-2.4 3.9c0 2 .7 3.8 2.4 3.8c1.7 0 2.3-1.8 2.3-3.8c0-2.1-.6-3.9-2.3-3.9zM11 9.8c.7.8 1.8 1.3 2.9 1.3c1.4 0 2.3-.6 2.3-1.6c0-1.1-.9-1.5-2.4-1.5h-1.2V6.3h1.2c1.2 0 2.2-.4 2.2-1.4c0-.9-1-1.5-2.2-1.5c-1 0-1.9.5-2.7 1.2l-1-1.1c.9-1 2.1-1.7 3.9-1.7c2.3 0 3.8 1.1 3.8 2.9c0 1.4-1.2 2.2-2.3 2.4c1.1.1 2.5.9 2.5 2.6c0 1.8-1.5 3-4 3c-1.9 0-3.3-.7-4-1.7l1-1.2z" stroke="none" fill="#88898a"/></g></svg>