<?xml version="1.0" standalone="no"?><!DOCTYPE svg PUBLIC "-//W3C//DTD SVG 1.1//EN" "http://www.w3.org/Graphics/SVG/1.1/DTD/svg11.dtd"><svg xmlns="http://www.w3.org/2000/svg" xmlns:xlink="http://www.w3.org/1999/xlink" version="1.1" width="134.3px" height="27.9px" viewBox="0 -8 134.3 27.9" style="top:-8px"><desc/><defs/><g id="Polygon52188"><path d="m62.4 3.9l3.9-2v.4l-3.5 1.8l3.5 1.8v.4l-3.9-2v-.4zm4.4 0l4-2v.4l-3.5 1.8l3.5 1.8v.4l-4-2v-.4zm5-2.8h.5v6h-.5v-6zm4.9 3.1c0-.9-.4-1.1-1.1-1.1c-.5 0-1.1.3-1.4.7c.03.02 0 3.3 0 3.3h-.4V2.8h.4s.03.62 0 .6c.3-.4 1-.7 1.6-.7c.9 0 1.4.4 1.4 1.4c-.03-.03 0 3 0 3h-.5V4.2zm1.8 2c.3.3.8.6 1.4.6c.8 0 1.2-.3 1.2-.8c0-.6-.6-.8-1.2-.9c-.8-.2-1.6-.4-1.6-1.2c0-.7.6-1.2 1.6-1.2c.7 0 1.2.2 1.6.6l-.3.3c-.3-.3-.7-.5-1.3-.5c-.7 0-1.1.3-1.1.7c0 .5.6.7 1.2.8c.7.2 1.6.4 1.6 1.3c0 .7-.6 1.3-1.7 1.3c-.7 0-1.2-.2-1.7-.7l.3-.3zm7.2.3c-.4.4-.9.7-1.6.7c-.9 0-1.3-.4-1.3-1.4c-.04.02 0-3 0-3h.4s.02 2.92 0 2.9c0 .9.4 1.1 1.1 1.1c.5 0 1.1-.3 1.4-.7c-.01-.02 0-3.3 0-3.3h.5v4.3h-.5v-.6zm1.9-3.7h.5s-.02.71 0 .7c.4-.5.8-.8 1.5-.8v.5h-.3c-.4 0-1 .4-1.2.7c-.02.04 0 3.2 0 3.2h-.5V2.8zm5.6 3.8c-.4.4-.8.6-1.4.6c-.8 0-1.6-.5-1.6-1.4c0-1 .8-1.5 1.6-1.5c.6 0 1 .2 1.4.6v-.8c0-.7-.5-1-1.1-1c-.6 0-1 .2-1.4.6l-.3-.3c.5-.5 1-.7 1.7-.7c.9 0 1.6.4 1.6 1.4v3h-.5s.03-.5 0-.5zm0-1.3c-.3-.4-.8-.6-1.3-.6c-.7 0-1.2.5-1.2 1.1c0 .6.5 1 1.2 1c.5 0 1-.1 1.3-.5v-1zm4.9-1.1c0-.9-.4-1.1-1.1-1.1c-.5 0-1.1.3-1.4.7c.03.02 0 3.3 0 3.3h-.4V2.8h.4s.03.62 0 .6c.3-.4 1-.7 1.6-.7c.9 0 1.4.4 1.4 1.4c-.04-.03 0 3 0 3h-.5V4.2zm3.8-1.5c.7 0 1.2.3 1.5.7l-.3.3c-.3-.5-.7-.6-1.2-.6c-1 0-1.6.8-1.6 1.8c0 1.1.6 1.9 1.6 1.9c.5 0 .9-.2 1.2-.6l.3.3c-.3.4-.8.7-1.5.7c-1.3 0-2.1-1-2.1-2.3c0-1.2.8-2.2 2.1-2.2zm4.4 0c1.3 0 2.1 1 2.1 2.3c-.04-.04 0 .1 0 .1c0 0-3.68-.02-3.7 0c.1.9.7 1.7 1.7 1.7c.6 0 1.1-.2 1.4-.6l.3.3c-.4.5-1 .7-1.7.7c-1.3 0-2.2-.9-2.2-2.3c0-1.2.9-2.2 2.1-2.2zm-1.6 2h3.2c0-.7-.5-1.6-1.6-1.6c-1 0-1.5.9-1.6 1.6zm6.9.2c0-1.4.4-2.8 1.2-4l.3.2c-.6 1.2-1 2.3-1 3.8c0 1.6.4 2.6 1 3.8l-.3.2c-.8-1.2-1.2-2.5-1.2-4zm2.4-3.8h.5v5.5h2.9v.5H114v-6zm8.3 4.5h-3.2l-.6 1.5h-.6l2.4-6h.7l2.4 6h-.5l-.6-1.5zm-3.1-.4h2.9l-1.4-3.6l-1.5 3.6zm4.5-4.1l.3-.2c.8 1.2 1.2 2.6 1.2 4c0 1.5-.4 2.8-1.2 4l-.3-.2c.6-1.2 1-2.2 1-3.8c0-1.5-.4-2.6-1-3.8zm2.2 4.8l3.4-1.8l-3.4-1.8v-.4l3.9 2v.4l-3.9 2v-.4zm4.4 0l3.5-1.8l-3.5-1.8v-.4l4 2v.4l-4 2v-.4z" stroke="none" fill="#000"/><a xlink:href="DBF_Insurance%20(LA)" xlink:show="new" xlink:title="&lt;&lt;Insurance (LA)&gt;&gt;"><rect style="fill:transparent;" x="61" y="0" width="73" height="9"/></a></g></svg>