<?xml version="1.0" standalone="no"?><!DOCTYPE svg PUBLIC "-//W3C//DTD SVG 1.1//EN" "http://www.w3.org/Graphics/SVG/1.1/DTD/svg11.dtd"><svg xmlns="http://www.w3.org/2000/svg" xmlns:xlink="http://www.w3.org/1999/xlink" version="1.1" width="131.2px" height="35.3px" viewBox="0 -7 131.2 35.3" style="top:-7px"><desc/><defs/><g id="Polygon79434"><path d="m7.5 6.9l6.9-3.6v.8L8.3 7.2l6.1 3.1v.8L7.5 7.5v-.6zm7.9 0l6.9-3.6v.8l-6.1 3.1l6.1 3.1v.8l-6.9-3.6v-.6zm8.3 4.9c3.6-2.9 6-5 6-7c0-1.5-1.3-2.2-2.4-2.2c-1.4 0-2.4.6-2.9 1.4l-.7-.6c.8-1 2.1-1.6 3.6-1.6c1.5 0 3.3.9 3.3 3c0 2.3-2.5 4.4-5.5 6.9c-.03.02 5.5 0 5.5 0v.8h-6.9s-.04-.7 0-.7zm13.2-10c2.8 0 3.9 2.9 3.9 5.5c0 2.5-1.1 5.4-3.9 5.4c-2.9 0-4-2.9-4-5.4c0-2.6 1.1-5.5 4-5.5zm0 .8c-2.3 0-3 2.5-3 4.7c0 2.1.7 4.6 3 4.6c2.2 0 2.9-2.5 2.9-4.6c0-2.2-.7-4.7-2.9-4.7zm5.7 9.2c3.6-2.9 6-5 6-7c0-1.5-1.3-2.2-2.4-2.2c-1.4 0-2.4.6-2.9 1.4l-.7-.6c.8-1 2.1-1.6 3.6-1.6c1.5 0 3.3.9 3.3 3c0 2.3-2.5 4.4-5.5 6.9c-.03.02 5.5 0 5.5 0v.8h-6.9s-.04-.7 0-.7zm9.4-1.4c.6.9 1.7 1.5 3 1.5c1.6 0 2.7-.8 2.7-2.2c0-1.6-1.3-2.2-2.9-2.2h-1v-.8h1c1.4 0 2.7-.6 2.7-2c0-1.4-1.2-2.1-2.5-2.1c-1.2 0-2.1.5-2.9 1.4l-.5-.6c.7-.9 1.9-1.6 3.4-1.6c1.9 0 3.4 1 3.4 2.8c0 1.6-1.3 2.3-2.2 2.5c.9.1 2.4.9 2.4 2.6c0 1.8-1.3 3-3.6 3c-1.7 0-3-.8-3.6-1.7l.6-.6zM65 2s3.95-.05 3.9 0c2.1 0 3.2 1.4 3.2 3c0 1.7-1.1 3.1-3.2 3.1c.05.05-3 0-3 0v4.4h-.9V2zm3.9.8c-.05-.02-3 0-3 0v4.5s2.95.02 3 0c1.4 0 2.3-.9 2.3-2.3c0-1.3-.9-2.2-2.3-2.2zM74 4.9h.8s.04 1.29 0 1.3c.7-.9 1.6-1.5 2.6-1.5v.9h-.4c-.8 0-1.8.7-2.2 1.4c.04-.05 0 5.5 0 5.5h-.8V4.9zm4.6 3.8c0-2.2 1.4-4 3.7-4c2.3 0 3.7 1.8 3.7 4c0 2.2-1.4 4-3.7 4c-2.3 0-3.7-1.8-3.7-4zm6.5 0c0-1.7-1-3.3-2.8-3.3c-1.8 0-2.8 1.6-2.8 3.3c0 1.7 1 3.3 2.8 3.3c1.8 0 2.8-1.6 2.8-3.3zm2.8-5.8c0-.3.3-.6.6-.6c.4 0 .7.3.7.6c0 .4-.3.7-.7.7c-.3 0-.6-.3-.6-.7zm1 10.6c0 1.4-.7 2.2-2 2.2c-.3 0-.6-.1-.9-.2l.2-.7c.2.1.4.1.6.1c.8 0 1.3-.4 1.3-1.4c.02.03 0-8.6 0-8.6h.8s.04 8.63 0 8.6zm5.9-8.8c2.3 0 3.6 1.8 3.6 4v.3s-6.43-.03-6.4 0c.1 1.6 1.2 3 3 3c.9 0 1.8-.3 2.5-1l.4.5c-.7.8-1.7 1.2-3 1.2c-2.2 0-3.8-1.6-3.8-4c0-2.2 1.5-4 3.7-4zM92 8.3h5.5c0-1.3-.8-2.9-2.7-2.9C92.9 5.4 92 7 92 8.3zm11.8-3.6c1.3 0 2.1.5 2.7 1.3l-.6.5c-.5-.8-1.2-1.1-2-1.1c-1.8 0-2.9 1.5-2.9 3.3c0 1.8 1.1 3.3 2.9 3.3c.8 0 1.5-.3 2-1.1l.6.5c-.6.8-1.4 1.3-2.7 1.3c-2.3 0-3.7-1.8-3.7-4c0-2.2 1.4-4 3.7-4zm4.7 6.4c.02-.03 0-5.5 0-5.5h-1.2v-.7h1.2V2.8h.9v2.1h1.5v.7h-1.5s-.04 5.34 0 5.3c0 .7.2 1.1.8 1.1c.3 0 .6-.2.8-.4l.3.7c-.3.2-.6.4-1.3.4c-1 0-1.5-.6-1.5-1.6zm4-8.2c0-.3.3-.6.6-.6c.4 0 .7.3.7.6c0 .4-.3.7-.7.7c-.3 0-.6-.3-.6-.7zm.2 2h.9v7.6h-.9V4.9zm3 3.8c0-2.2 1.4-4 3.7-4c2.2 0 3.7 1.8 3.7 4c0 2.2-1.5 4-3.7 4c-2.3 0-3.7-1.8-3.7-4zm6.5 0c0-1.7-1-3.3-2.8-3.3c-1.8 0-2.8 1.6-2.8 3.3c0 1.7 1 3.3 2.8 3.3c1.8 0 2.8-1.6 2.8-3.3zm8.2-1.3c0-1.5-.8-2-1.9-2c-1 0-2 .7-2.5 1.3c.02.05 0 5.8 0 5.8h-.8V4.9h.8s.02 1.13 0 1.1c.6-.6 1.7-1.3 2.8-1.3c1.5 0 2.4.7 2.4 2.5v5.3h-.8s-.03-5.13 0-5.1z" stroke="none" fill="#000"/><a xlink:href="DBF_2023%20Projection%20-%201%20Mile1" xlink:show="new" xlink:title="&lt;&lt;2023 Projection - 1 Mile1&gt;&gt;"><rect style="fill:transparent;" x="6" y="1" width="125" height="15"/></a></g></svg>