<?xml version="1.0" standalone="no"?><!DOCTYPE svg PUBLIC "-//W3C//DTD SVG 1.1//EN" "http://www.w3.org/Graphics/SVG/1.1/DTD/svg11.dtd"><svg xmlns="http://www.w3.org/2000/svg" xmlns:xlink="http://www.w3.org/1999/xlink" version="1.1" width="236px" height="27.9px" viewBox="0 -8 236 27.9" style="top:-8px"><desc/><defs/><g id="Polygon38465"><path d="m0 3.8l4-1.9v.6L.6 4.1L4 5.7v.6L0 4.4v-.6zm4.5 0l4-1.9v.6L5.1 4.1l3.4 1.6v.6l-4-1.9v-.6zm6.4-1.9H9v-.8h4.6v.8h-1.8v5.2h-.9V1.9zm4.6.8c1.3 0 2.1 1 2.1 2.3c-.02 0 0 .2 0 .2h-3.5c.1.7.6 1.4 1.5 1.4c.5 0 1-.2 1.3-.6l.4.6c-.5.4-1.1.6-1.8.6c-1.3 0-2.2-.9-2.2-2.3c0-1.2.9-2.2 2.2-2.2zm-1.4 1.9h2.7c0-.6-.4-1.3-1.3-1.3c-.9 0-1.3.7-1.4 1.3zm7.4-.3c0-.7-.3-.9-.9-.9c-.5 0-1 .3-1.2.6v3.1h-.8V2.8h.8v.6c.3-.4.9-.7 1.5-.7c1 0 1.4.4 1.4 1.4c.04-.04 0 3 0 3h-.8s.03-2.77 0-2.8zm4.8 2.3c-.3.4-.8.6-1.4.6c-.7 0-1.5-.5-1.5-1.4c0-1 .8-1.4 1.5-1.4c.6 0 1.1.1 1.4.5v-.7c0-.5-.4-.9-1.1-.9c-.5 0-.9.2-1.3.6l-.3-.5c.5-.5 1.1-.7 1.8-.7c.9 0 1.7.4 1.7 1.5c.02-.02 0 2.9 0 2.9h-.8v-.5zm0-1.2c-.2-.3-.7-.5-1.1-.5c-.6 0-1 .4-1 .9c0 .5.4.9 1 .9c.4 0 .9-.2 1.1-.5v-.8zm5-1.1c0-.7-.3-.9-.9-.9c-.5 0-.9.3-1.2.6c.02 0 0 3.1 0 3.1h-.8V2.8h.8s.02.57 0 .6c.3-.4.9-.7 1.6-.7c.9 0 1.4.4 1.4 1.4c-.04-.04 0 3 0 3h-.9s.05-2.77 0-2.8zm2.3 1.8V3.5h-.7v-.7h.7V1.6h.8v1.2h.9v.7h-.9s.01 2.47 0 2.5c0 .3.2.5.4.5c.2 0 .4-.1.5-.2l.2.6c-.2.2-.4.3-.9.3c-.6 0-1-.4-1-1.1zm2.3-1.2c0-1.4.5-2.9 1.3-4l.5.4c-.5 1.1-.9 2.2-.9 3.6c0 1.5.4 2.5.9 3.6l-.5.4c-.8-1.1-1.3-2.5-1.3-4zm2.7 1c.3.4.8.7 1.4.7c.6 0 1-.3 1-.7c0-.4-.5-.5-1.1-.7c-.7-.1-1.6-.3-1.6-1.3c0-.7.6-1.2 1.7-1.2c.7 0 1.2.2 1.6.6l-.3.5c-.3-.3-.8-.5-1.3-.5c-.6 0-.9.2-.9.6c0 .4.4.5 1 .6c.7.2 1.6.4 1.6 1.4c0 .7-.6 1.3-1.7 1.3c-.7 0-1.4-.2-1.8-.7l.4-.6zm3.7-4.6l.5-.4c.8 1.1 1.3 2.6 1.3 4c0 1.5-.5 2.9-1.3 4l-.5-.4c.6-1.1.9-2.1.9-3.6c0-1.4-.3-2.5-.9-3.6zm2.4 4.4l3.4-1.6l-3.4-1.6v-.6l4 1.9v.6l-4 1.9v-.6zm4.5 0l3.4-1.6l-3.4-1.6v-.6l4 1.9v.6l-4 1.9v-.6z" stroke="none" fill="#88898a"/><a xlink:href="DBF_Tenant(s)" xlink:show="new" xlink:title="&lt;&lt;Tenant(s)&gt;&gt;"><rect style="fill:transparent;" x="-1" y="0" width="54" height="9"/></a></g></svg>