<?xml version="1.0" standalone="no"?><!DOCTYPE svg PUBLIC "-//W3C//DTD SVG 1.1//EN" "http://www.w3.org/Graphics/SVG/1.1/DTD/svg11.dtd"><svg xmlns="http://www.w3.org/2000/svg" xmlns:xlink="http://www.w3.org/1999/xlink" version="1.1" width="237px" height="54.4px" viewBox="0 -13 237 54.4" style="top:-13px"><desc/><defs/><g id="Polygon46736"><path d="m0 11.9l12.5-6v2.1L2 12.9l10.5 4.9v2L0 13.8v-1.9zm13.8 0l12.5-6v2.1l-10.5 4.9l10.5 4.9v2l-12.5-6v-1.9zM33.5 6h-5.8V3.5h14.5v2.5h-5.8v16.3h-2.9V6zm14.2 2.3c4.1 0 6.6 3.2 6.6 7.4v.6s-10.79.02-10.8 0c.2 2.3 1.9 4.3 4.6 4.3c1.5 0 3.1-.6 4.1-1.7l1.2 1.7c-1.4 1.3-3.3 2-5.5 2c-4.1 0-7.1-2.8-7.1-7.1c0-4 2.9-7.2 6.9-7.2zm-4.2 6.2h8.3c0-1.8-1.3-4.1-4.1-4.1c-2.8 0-4.1 2.2-4.2 4.1zm13.7-5.8h2.5s.05 2.06 0 2.1c1.1-1.4 2.7-2.4 4.5-2.4v2.5c-.2 0-.5-.1-.9-.1c-1.2 0-3 1-3.6 2c.05.02 0 9.5 0 9.5h-2.5V8.7zM83 13.2c0-1.6-.7-2.6-2.3-2.6c-1.4 0-2.8.9-3.4 1.9c-.02.04 0 9.8 0 9.8h-2.6s.04-9.09 0-9.1c0-1.6-.6-2.6-2.4-2.6c-1.3 0-2.6 1-3.3 2v9.7h-2.5V8.7h2.5v1.9c.6-.9 2.4-2.3 4.4-2.3c2.1 0 3.3 1.1 3.7 2.6c.8-1.3 2.6-2.6 4.6-2.6c2.5 0 3.9 1.4 3.9 4.2c-.02-.05 0 9.8 0 9.8H83s.04-9.09 0-9.1z" stroke="none" fill="#282828"/><a xlink:href="DBF_Term%20Remaining" xlink:show="new" xlink:title="&lt;&lt;Term Remaining&gt;&gt;"><rect style="fill:transparent;" x="-1" y="2" width="87" height="20"/></a></g></svg>