<?xml version="1.0" standalone="no"?><!DOCTYPE svg PUBLIC "-//W3C//DTD SVG 1.1//EN" "http://www.w3.org/Graphics/SVG/1.1/DTD/svg11.dtd"><svg xmlns="http://www.w3.org/2000/svg" version="1.1" width="8.4px" height="18.2px" viewBox="0 -4 8.4 18.2" style="top:-4px"><desc>02</desc><defs/><g id="Polygon64089"><path d="m3.9 2.2v4.2c0 1.1-.6 1.5-1.7 1.5C1.1 7.9.5 7.5.5 6.4V2.2C.5 1.1 1.1.7 2.2.7c1.1 0 1.7.4 1.7 1.5zm-1.7-.5c-.4 0-.6.2-.6.7v3.8c0 .5.2.7.6.7c.4 0 .6-.2.6-.7V2.4c0-.5-.2-.7-.6-.7zm2.5.5c0-1.1.6-1.5 1.7-1.5C7.5.7 8 1.1 8 2.2v.8c0 .9-.5 1.2-1.2 1.9c-.6.5-1 .9-1 1.3c.04 0 0 .6 0 .6h2.2v1H4.7s.03-1.62 0-1.6c0-.9.8-1.5 1.5-2.2c.5-.5.7-.7.7-1v-.7c0-.5-.2-.6-.5-.6c-.3 0-.6.1-.6.6c.04-.02 0 1 0 1H4.7s.05-1.14 0-1.1z" stroke="none" fill="#fff"/></g></svg>