<?xml version="1.0" standalone="no"?><!DOCTYPE svg PUBLIC "-//W3C//DTD SVG 1.1//EN" "http://www.w3.org/Graphics/SVG/1.1/DTD/svg11.dtd"><svg xmlns="http://www.w3.org/2000/svg" version="1.1" width="106.4px" height="46.5px" viewBox="0 -10 106.4 46.5" style="top:-10px"><desc>Agent 1</desc><defs/><g id="Polygon271389"><path d="m11 6.2v11.9c0 3-1.8 4.1-4.7 4.1h-.3c-2.9 0-4.7-1.1-4.7-4.1V6.2C1.3 3.2 3.1 2 6 2h.3C9.2 2 11 3.2 11 6.2zM6.2 4.9c-1.1 0-1.7.4-1.7 1.8v10.9c0 1.4.6 1.8 1.7 1.8c1 0 1.6-.4 1.6-1.8V6.7c0-1.4-.6-1.8-1.6-1.8zM16.4 22h-3.2v-3.6h3.2v3.6zM28.2 6.2v11.9c0 3-1.7 4.1-4.7 4.1h-.2c-3 0-4.8-1.1-4.8-4.1V6.2c0-3 1.8-4.2 4.8-4.2h.2c3 0 4.7 1.2 4.7 4.2zm-4.8-1.3c-1.1 0-1.7.4-1.7 1.8v10.9c0 1.4.6 1.8 1.7 1.8c1 0 1.7-.4 1.7-1.8V6.7c0-1.4-.7-1.8-1.7-1.8zm16.9 1.3v11.9c0 3-1.8 4.1-4.8 4.1h-.2c-3 0-4.8-1.1-4.8-4.1V6.2c0-3 1.8-4.2 4.8-4.2h.2c3 0 4.8 1.2 4.8 4.2zm-4.9-1.3c-1 0-1.7.4-1.7 1.8v10.9c0 1.4.7 1.8 1.7 1.8c1.1 0 1.7-.4 1.7-1.8V6.7c0-1.4-.6-1.8-1.7-1.8zm12.1-.4v3.7c0 1.7-1.2 2.4-2.5 2.4h-.4c-1.4 0-2.5-.7-2.5-2.4V4.5c0-1.7 1.1-2.4 2.5-2.4h.4c1.3 0 2.5.7 2.5 2.4zM44.8 22H43l9.2-19.7h1.8L44.8 22zm.1-18.1h-.2c-.5 0-.8.2-.8.9v3.1c0 .7.3.9.8.9h.2c.4 0 .8-.2.8-.9V4.8c0-.7-.4-.9-.8-.9zm10 12.2v3.7c0 1.7-1.2 2.3-2.5 2.3h-.4c-1.4 0-2.5-.6-2.5-2.3v-3.7c0-1.7 1.1-2.4 2.5-2.4h.4c1.3 0 2.5.7 2.5 2.4zm-2.6-.7h-.2c-.5 0-.8.3-.8 1v3.1c0 .7.3.9.8.9h.2c.4 0 .8-.2.8-.9v-3.1c0-.7-.4-1-.8-1z" stroke="none" fill="#282828"/></g></svg>