<?xml version="1.0" standalone="no"?>
<!DOCTYPE svg PUBLIC "-//W3C//DTD SVG 1.1//EN" "http://www.w3.org/Graphics/SVG/1.1/DTD/svg11.dtd">
<svg xmlns="http://www.w3.org/2000/svg" version="1.1" width="109.3px" height="276.3px" viewBox="0 -6 109.3 276.3" style="top:-6px">
  <desc>Tenant Street Address City State Zip GLA Lot Size Year Built *Optional Note</desc>
  <defs/>
  <g id="Polygon181560">
    <path d="M 1.6 257.8 L 0.6 258.5 L 0.4 258 L 1.4 257.5 L 0.4 256.9 L 0.6 256.5 L 1.6 257.2 L 1.6 256 L 2 256 L 2 257.2 L 3 256.5 L 3.2 256.9 L 2.2 257.5 L 3.2 258 L 3 258.5 L 2 257.8 L 2 259 L 1.6 259 L 1.6 257.8 Z M 7.5 256 C 9.6 256 11 257.5 11 259.6 C 11 261.7 9.6 263.3 7.5 263.3 C 5.4 263.3 4 261.7 4 259.6 C 4 257.5 5.4 256 7.5 256 Z M 7.5 256.7 C 6 256.7 4.9 258 4.9 259.6 C 4.9 261.3 6 262.5 7.5 262.5 C 9.1 262.5 10.1 261.3 10.1 259.6 C 10.1 258 9.1 256.7 7.5 256.7 Z M 12.3 265.1 L 12.3 258 L 13.1 258 C 13.1 258 13.08 258.78 13.1 258.8 C 13.4 258.3 14.1 257.9 14.8 257.9 C 16.1 257.9 17.1 258.9 17.1 260.6 C 17.1 262.2 16.1 263.3 14.8 263.3 C 14.1 263.3 13.5 262.9 13.1 262.4 C 13.08 262.36 13.1 265.1 13.1 265.1 L 12.3 265.1 Z M 14.6 258.6 C 14 258.6 13.4 259 13.1 259.4 C 13.1 259.4 13.1 261.7 13.1 261.7 C 13.4 262.2 14 262.6 14.6 262.6 C 15.6 262.6 16.2 261.7 16.2 260.6 C 16.2 259.4 15.6 258.6 14.6 258.6 Z M 18.4 262.1 C 18.41 262.07 18.4 258.7 18.4 258.7 L 17.6 258.7 L 17.6 258 L 18.4 258 L 18.4 256.6 L 19.2 256.6 L 19.2 258 L 20.2 258 L 20.2 258.7 L 19.2 258.7 C 19.2 258.7 19.21 261.9 19.2 261.9 C 19.2 262.3 19.4 262.6 19.7 262.6 C 19.9 262.6 20.2 262.5 20.3 262.3 C 20.3 262.3 20.5 262.9 20.5 262.9 C 20.3 263.1 20 263.3 19.5 263.3 C 18.8 263.3 18.4 262.8 18.4 262.1 Z M 21.1 256.6 C 21.1 256.3 21.4 256.1 21.7 256.1 C 21.9 256.1 22.2 256.3 22.2 256.6 C 22.2 256.9 21.9 257.2 21.7 257.2 C 21.4 257.2 21.1 256.9 21.1 256.6 Z M 21.3 258 L 22.1 258 L 22.1 263.1 L 21.3 263.1 L 21.3 258 Z M 23.2 260.6 C 23.2 259.1 24.2 257.9 25.8 257.9 C 27.3 257.9 28.3 259.1 28.3 260.6 C 28.3 262.1 27.3 263.3 25.8 263.3 C 24.2 263.3 23.2 262.1 23.2 260.6 Z M 27.5 260.6 C 27.5 259.5 26.9 258.6 25.8 258.6 C 24.7 258.6 24.1 259.5 24.1 260.6 C 24.1 261.6 24.7 262.6 25.8 262.6 C 26.9 262.6 27.5 261.6 27.5 260.6 Z M 32.9 259.8 C 32.9 258.9 32.5 258.6 31.8 258.6 C 31.2 258.6 30.6 259 30.3 259.4 C 30.28 259.4 30.3 263.1 30.3 263.1 L 29.5 263.1 L 29.5 258 L 30.3 258 C 30.3 258 30.28 258.76 30.3 258.8 C 30.6 258.3 31.3 257.9 32.1 257.9 C 33.2 257.9 33.7 258.4 33.7 259.5 C 33.73 259.55 33.7 263.1 33.7 263.1 L 32.9 263.1 C 32.9 263.1 32.94 259.79 32.9 259.8 Z M 38.4 262.6 C 38 263 37.4 263.3 36.7 263.3 C 35.9 263.3 34.9 262.7 34.9 261.6 C 34.9 260.4 35.9 259.9 36.7 259.9 C 37.4 259.9 38 260.1 38.4 260.6 C 38.4 260.6 38.4 259.7 38.4 259.7 C 38.4 259 37.9 258.6 37.1 258.6 C 36.5 258.6 36 258.8 35.6 259.3 C 35.6 259.3 35.2 258.7 35.2 258.7 C 35.7 258.2 36.4 257.9 37.2 257.9 C 38.3 257.9 39.2 258.4 39.2 259.6 C 39.21 259.62 39.2 263.1 39.2 263.1 L 38.4 263.1 C 38.4 263.1 38.41 262.55 38.4 262.6 Z M 38.4 261.1 C 38.1 260.7 37.6 260.5 37 260.5 C 36.3 260.5 35.7 260.9 35.7 261.6 C 35.7 262.2 36.3 262.7 37 262.7 C 37.6 262.7 38.1 262.5 38.4 262.1 C 38.4 262.1 38.4 261.1 38.4 261.1 Z M 40.7 256.1 L 41.5 256.1 L 41.5 263.1 L 40.7 263.1 L 40.7 256.1 Z M 46.5 257.4 L 46.5 263.1 L 45.6 263.1 L 45.6 256.1 L 46.5 256.1 L 50.6 261.7 L 50.6 256.1 L 51.5 256.1 L 51.5 263.1 L 50.6 263.1 L 46.5 257.4 Z M 52.7 260.6 C 52.7 259.1 53.7 257.9 55.2 257.9 C 56.8 257.9 57.7 259.1 57.7 260.6 C 57.7 262.1 56.8 263.3 55.2 263.3 C 53.7 263.3 52.7 262.1 52.7 260.6 Z M 56.9 260.6 C 56.9 259.5 56.3 258.6 55.2 258.6 C 54.1 258.6 53.5 259.5 53.5 260.6 C 53.5 261.6 54.1 262.6 55.2 262.6 C 56.3 262.6 56.9 261.6 56.9 260.6 Z M 59.1 262.1 C 59.09 262.07 59.1 258.7 59.1 258.7 L 58.2 258.7 L 58.2 258 L 59.1 258 L 59.1 256.6 L 59.9 256.6 L 59.9 258 L 60.9 258 L 60.9 258.7 L 59.9 258.7 C 59.9 258.7 59.89 261.9 59.9 261.9 C 59.9 262.3 60.1 262.6 60.4 262.6 C 60.6 262.6 60.8 262.5 60.9 262.3 C 60.9 262.3 61.2 262.9 61.2 262.9 C 61 263.1 60.7 263.3 60.2 263.3 C 59.5 263.3 59.1 262.8 59.1 262.1 Z M 64.2 257.9 C 65.7 257.9 66.6 259.1 66.6 260.6 C 66.62 260.64 66.6 260.8 66.6 260.8 C 66.6 260.8 62.48 260.84 62.5 260.8 C 62.5 261.8 63.2 262.6 64.3 262.6 C 64.9 262.6 65.5 262.4 65.9 262 C 65.9 262 66.3 262.5 66.3 262.5 C 65.8 263 65.1 263.3 64.2 263.3 C 62.7 263.3 61.6 262.2 61.6 260.6 C 61.6 259.1 62.7 257.9 64.2 257.9 Z M 62.5 260.3 C 62.5 260.3 65.8 260.3 65.8 260.3 C 65.8 259.5 65.3 258.5 64.2 258.5 C 63.1 258.5 62.5 259.5 62.5 260.3 Z " stroke="none" fill="#88898a"/>
  </g>
  <g id="Polygon181559">
    <path d="M 4.2 230.5 L 0.1 224.3 L 1.9 224.3 L 5 229 L 8.1 224.3 L 9.9 224.3 L 5.8 230.5 L 5.8 234.9 L 4.2 234.9 L 4.2 230.5 Z M 12.4 227 C 14.7 227 16.1 228.8 16.1 231.2 C 16.12 231.18 16.1 231.5 16.1 231.5 C 16.1 231.5 10.05 231.53 10.1 231.5 C 10.2 232.8 11.1 233.9 12.7 233.9 C 13.5 233.9 14.4 233.6 14.9 233 C 14.9 233 15.6 233.9 15.6 233.9 C 14.8 234.7 13.8 235.1 12.5 235.1 C 10.2 235.1 8.5 233.5 8.5 231.1 C 8.5 228.8 10.1 227 12.4 227 Z M 10 230.5 C 10 230.5 14.7 230.5 14.7 230.5 C 14.7 229.5 14 228.2 12.4 228.2 C 10.8 228.2 10.1 229.5 10 230.5 Z M 22.5 234.1 C 21.9 234.7 21 235.1 20 235.1 C 18.7 235.1 17.3 234.2 17.3 232.5 C 17.3 230.8 18.7 230 20 230 C 21 230 21.9 230.4 22.5 231.1 C 22.5 231.1 22.5 229.8 22.5 229.8 C 22.5 228.8 21.7 228.3 20.6 228.3 C 19.7 228.3 19 228.6 18.3 229.3 C 18.3 229.3 17.7 228.3 17.7 228.3 C 18.5 227.5 19.6 227 20.8 227 C 22.5 227 23.9 227.8 23.9 229.7 C 23.92 229.72 23.9 234.9 23.9 234.9 L 22.5 234.9 C 22.5 234.9 22.49 234.06 22.5 234.1 Z M 22.5 231.9 C 22.1 231.3 21.3 231 20.5 231 C 19.5 231 18.8 231.7 18.8 232.6 C 18.8 233.5 19.5 234.1 20.5 234.1 C 21.3 234.1 22.1 233.8 22.5 233.2 C 22.5 233.2 22.5 231.9 22.5 231.9 Z M 26 227.2 L 27.5 227.2 C 27.5 227.2 27.48 228.4 27.5 228.4 C 28.1 227.6 29 227.1 30 227.1 C 30 227.1 30 228.5 30 228.5 C 29.8 228.5 29.7 228.5 29.5 228.5 C 28.8 228.5 27.8 229 27.5 229.6 C 27.48 229.56 27.5 234.9 27.5 234.9 L 26 234.9 L 26 227.2 Z M 35.2 224.3 C 35.2 224.3 40.2 224.31 40.2 224.3 C 42.1 224.3 43.2 225.5 43.2 227 C 43.2 228.3 42.3 229.2 41.3 229.4 C 42.5 229.6 43.4 230.8 43.4 232 C 43.4 233.7 42.3 234.9 40.3 234.9 C 40.33 234.9 35.2 234.9 35.2 234.9 L 35.2 224.3 Z M 39.9 228.8 C 41 228.8 41.5 228.1 41.5 227.3 C 41.5 226.4 41 225.7 39.9 225.7 C 39.9 225.7 36.8 225.7 36.8 225.7 L 36.8 228.8 C 36.8 228.8 39.9 228.8 39.9 228.8 Z M 40 233.5 C 41.1 233.5 41.8 232.9 41.8 231.8 C 41.8 231 41.2 230.2 40 230.2 C 39.98 230.2 36.8 230.2 36.8 230.2 L 36.8 233.5 C 36.8 233.5 39.98 233.5 40 233.5 Z M 50.3 233.9 C 49.8 234.5 48.8 235.1 47.6 235.1 C 46 235.1 45.2 234.3 45.2 232.6 C 45.17 232.65 45.2 227.2 45.2 227.2 L 46.6 227.2 C 46.6 227.2 46.6 232.17 46.6 232.2 C 46.6 233.4 47.2 233.8 48.2 233.8 C 49.1 233.8 49.9 233.3 50.3 232.7 C 50.35 232.74 50.3 227.2 50.3 227.2 L 51.8 227.2 L 51.8 234.9 L 50.3 234.9 C 50.3 234.9 50.35 233.85 50.3 233.9 Z M 53.7 225 C 53.7 224.5 54.1 224.1 54.6 224.1 C 55.1 224.1 55.5 224.5 55.5 225 C 55.5 225.5 55.1 225.9 54.6 225.9 C 54.1 225.9 53.7 225.5 53.7 225 Z M 53.9 227.2 L 55.3 227.2 L 55.3 234.9 L 53.9 234.9 L 53.9 227.2 Z M 57.4 224.3 L 58.9 224.3 L 58.9 234.9 L 57.4 234.9 L 57.4 224.3 Z M 61.3 233.2 C 61.26 233.2 61.3 228.5 61.3 228.5 L 60 228.5 L 60 227.2 L 61.3 227.2 L 61.3 225.1 L 62.7 225.1 L 62.7 227.2 L 64.2 227.2 L 64.2 228.5 L 62.7 228.5 C 62.7 228.5 62.69 232.88 62.7 232.9 C 62.7 233.4 62.9 233.8 63.4 233.8 C 63.8 233.8 64.1 233.7 64.2 233.5 C 64.2 233.5 64.6 234.6 64.6 234.6 C 64.3 234.9 63.8 235.1 63.1 235.1 C 61.9 235.1 61.3 234.4 61.3 233.2 Z " stroke="none" fill="#242423"/>
  </g>
  <g id="Polygon181558">
    <path d="M 1.2 192.5 L 2.8 192.5 L 2.8 201.7 L 7.6 201.7 L 7.6 203.1 L 1.2 203.1 L 1.2 192.5 Z M 8.4 199.3 C 8.4 197.1 9.9 195.3 12.2 195.3 C 14.6 195.3 16.1 197.1 16.1 199.3 C 16.1 201.5 14.6 203.3 12.2 203.3 C 9.9 203.3 8.4 201.5 8.4 199.3 Z M 14.6 199.3 C 14.6 197.8 13.8 196.5 12.2 196.5 C 10.7 196.5 9.9 197.8 9.9 199.3 C 9.9 200.8 10.7 202.1 12.2 202.1 C 13.8 202.1 14.6 200.8 14.6 199.3 Z M 18.1 201.4 C 18.06 201.44 18.1 196.7 18.1 196.7 L 16.8 196.7 L 16.8 195.5 L 18.1 195.5 L 18.1 193.4 L 19.5 193.4 L 19.5 195.5 L 21 195.5 L 21 196.7 L 19.5 196.7 C 19.5 196.7 19.49 201.12 19.5 201.1 C 19.5 201.7 19.7 202.1 20.2 202.1 C 20.6 202.1 20.9 201.9 21 201.8 C 21 201.8 21.4 202.8 21.4 202.8 C 21.1 203.1 20.6 203.3 19.9 203.3 C 18.7 203.3 18.1 202.6 18.1 201.4 Z M 26.7 200.4 C 27.4 201.2 28.6 201.9 30 201.9 C 31.7 201.9 32.4 201 32.4 200.3 C 32.4 199.2 31.1 198.8 29.8 198.5 C 28.1 198.1 26.1 197.6 26.1 195.4 C 26.1 193.7 27.7 192.4 29.9 192.4 C 31.5 192.4 32.8 192.9 33.7 193.9 C 33.7 193.9 32.8 195 32.8 195 C 32 194.2 30.9 193.8 29.7 193.8 C 28.6 193.8 27.8 194.4 27.8 195.3 C 27.8 196.2 28.9 196.5 30.2 196.9 C 32 197.3 34 197.9 34 200.1 C 34 201.8 32.8 203.3 30 203.3 C 28.1 203.3 26.7 202.6 25.8 201.6 C 25.8 201.6 26.7 200.4 26.7 200.4 Z M 35.4 193.3 C 35.4 192.8 35.8 192.4 36.3 192.4 C 36.8 192.4 37.2 192.8 37.2 193.3 C 37.2 193.8 36.8 194.2 36.3 194.2 C 35.8 194.2 35.4 193.8 35.4 193.3 Z M 35.6 195.5 L 37.1 195.5 L 37.1 203.1 L 35.6 203.1 L 35.6 195.5 Z M 38.8 202 L 42.8 196.7 L 38.8 196.7 L 38.8 195.5 L 44.7 195.5 L 44.7 196.5 L 40.7 201.9 L 44.8 201.9 L 44.8 203.1 L 38.8 203.1 L 38.8 202 Z M 49.9 195.3 C 52.2 195.3 53.6 197.1 53.6 199.4 C 53.63 199.42 53.6 199.8 53.6 199.8 C 53.6 199.8 47.57 199.77 47.6 199.8 C 47.7 201.1 48.6 202.2 50.2 202.2 C 51 202.2 51.9 201.8 52.4 201.2 C 52.4 201.2 53.1 202.2 53.1 202.2 C 52.3 202.9 51.3 203.3 50 203.3 C 47.7 203.3 46.1 201.7 46.1 199.3 C 46.1 197.1 47.7 195.3 49.9 195.3 Z M 47.6 198.7 C 47.6 198.7 52.2 198.7 52.2 198.7 C 52.2 197.7 51.5 196.4 49.9 196.4 C 48.4 196.4 47.6 197.7 47.6 198.7 Z " stroke="none" fill="#242423"/>
  </g>
  <g id="Polygon181557">
    <path d="M 6.2 160.6 C 8.2 160.6 9.5 161.5 10.4 162.7 C 10.4 162.7 9.1 163.4 9.1 163.4 C 8.5 162.6 7.5 162 6.2 162 C 4 162 2.4 163.7 2.4 166.1 C 2.4 168.4 4 170.2 6.2 170.2 C 7.4 170.2 8.4 169.6 8.9 169.1 C 8.91 169.12 8.9 167.2 8.9 167.2 L 5.5 167.2 L 5.5 165.8 L 10.5 165.8 C 10.5 165.8 10.5 169.7 10.5 169.7 C 9.5 170.8 8 171.6 6.2 171.6 C 3.2 171.6 0.7 169.4 0.7 166.1 C 0.7 162.8 3.2 160.6 6.2 160.6 Z M 12.4 160.8 L 14 160.8 L 14 170 L 18.8 170 L 18.8 171.4 L 12.4 171.4 L 12.4 160.8 Z M 27.1 169.2 L 21.9 169.2 L 21 171.4 L 19.3 171.4 L 23.5 160.8 L 25.5 160.8 L 29.7 171.4 L 27.9 171.4 L 27.1 169.2 Z M 22.3 167.8 L 26.6 167.8 L 24.5 162.2 L 22.3 167.8 Z " stroke="none" fill="#242423"/>
  </g>
  <g id="Polygon181556">
    <path d="M 0.7 138.3 L 6.4 130.4 L 0.7 130.4 L 0.7 129 L 8.5 129 L 8.5 130.3 L 2.8 138.2 L 8.6 138.2 L 8.6 139.6 L 0.7 139.6 L 0.7 138.3 Z M 10.1 129.7 C 10.1 129.2 10.5 128.8 11 128.8 C 11.5 128.8 11.9 129.2 11.9 129.7 C 11.9 130.3 11.5 130.6 11 130.6 C 10.5 130.6 10.1 130.3 10.1 129.7 Z M 10.3 131.9 L 11.7 131.9 L 11.7 139.6 L 10.3 139.6 L 10.3 131.9 Z M 13.9 142.5 L 13.9 131.9 L 15.3 131.9 C 15.3 131.9 15.28 133.03 15.3 133 C 15.8 132.3 16.8 131.7 17.8 131.7 C 19.8 131.7 21.2 133.3 21.2 135.8 C 21.2 138.3 19.8 139.8 17.8 139.8 C 16.8 139.8 15.9 139.3 15.3 138.5 C 15.28 138.49 15.3 142.5 15.3 142.5 L 13.9 142.5 Z M 17.4 133 C 16.5 133 15.7 133.5 15.3 134.1 C 15.3 134.1 15.3 137.4 15.3 137.4 C 15.7 138 16.5 138.5 17.4 138.5 C 18.8 138.5 19.7 137.4 19.7 135.8 C 19.7 134.2 18.8 133 17.4 133 Z " stroke="none" fill="#242423"/>
  </g>
  <g id="Polygon181555">
    <path d="M 1.4 105.1 C 2.1 105.9 3.3 106.6 4.8 106.6 C 6.5 106.6 7.1 105.7 7.1 105 C 7.1 103.9 5.9 103.6 4.5 103.2 C 2.8 102.8 0.9 102.3 0.9 100.1 C 0.9 98.4 2.4 97.1 4.6 97.1 C 6.2 97.1 7.5 97.6 8.5 98.6 C 8.5 98.6 7.5 99.7 7.5 99.7 C 6.7 98.9 5.6 98.5 4.5 98.5 C 3.3 98.5 2.5 99.1 2.5 100 C 2.5 100.9 3.6 101.2 5 101.6 C 6.7 102 8.7 102.6 8.7 104.8 C 8.7 106.5 7.6 108 4.7 108 C 2.8 108 1.4 107.3 0.5 106.3 C 0.5 106.3 1.4 105.1 1.4 105.1 Z M 10.4 106.1 C 10.39 106.14 10.4 101.4 10.4 101.4 L 9.1 101.4 L 9.1 100.2 L 10.4 100.2 L 10.4 98.1 L 11.8 98.1 L 11.8 100.2 L 13.4 100.2 L 13.4 101.4 L 11.8 101.4 C 11.8 101.4 11.82 105.82 11.8 105.8 C 11.8 106.4 12.1 106.8 12.6 106.8 C 12.9 106.8 13.2 106.6 13.3 106.5 C 13.3 106.5 13.7 107.5 13.7 107.5 C 13.4 107.8 13 108 12.2 108 C 11 108 10.4 107.3 10.4 106.1 Z M 19.5 107 C 18.9 107.7 18.1 108 17 108 C 15.8 108 14.4 107.2 14.4 105.5 C 14.4 103.7 15.7 103 17 103 C 18.1 103 18.9 103.3 19.5 104 C 19.5 104 19.5 102.7 19.5 102.7 C 19.5 101.8 18.8 101.2 17.7 101.2 C 16.8 101.2 16 101.5 15.4 102.2 C 15.4 102.2 14.7 101.2 14.7 101.2 C 15.6 100.4 16.6 100 17.9 100 C 19.6 100 21 100.7 21 102.7 C 20.96 102.66 21 107.8 21 107.8 L 19.5 107.8 C 19.5 107.8 19.54 107 19.5 107 Z M 19.5 104.9 C 19.1 104.3 18.4 104 17.6 104 C 16.5 104 15.8 104.6 15.8 105.5 C 15.8 106.4 16.5 107 17.6 107 C 18.4 107 19.1 106.7 19.5 106.2 C 19.5 106.2 19.5 104.9 19.5 104.9 Z M 23.4 106.1 C 23.38 106.14 23.4 101.4 23.4 101.4 L 22.1 101.4 L 22.1 100.2 L 23.4 100.2 L 23.4 98.1 L 24.8 98.1 L 24.8 100.2 L 26.4 100.2 L 26.4 101.4 L 24.8 101.4 C 24.8 101.4 24.81 105.82 24.8 105.8 C 24.8 106.4 25.1 106.8 25.6 106.8 C 25.9 106.8 26.2 106.6 26.3 106.5 C 26.3 106.5 26.7 107.5 26.7 107.5 C 26.4 107.8 26 108 25.2 108 C 24 108 23.4 107.3 23.4 106.1 Z M 31.2 100 C 33.5 100 34.9 101.8 34.9 104.1 C 34.89 104.12 34.9 104.5 34.9 104.5 C 34.9 104.5 28.83 104.47 28.8 104.5 C 28.9 105.8 29.9 106.9 31.4 106.9 C 32.2 106.9 33.1 106.5 33.7 106 C 33.7 106 34.4 106.9 34.4 106.9 C 33.6 107.6 32.5 108 31.3 108 C 29 108 27.3 106.4 27.3 104 C 27.3 101.8 28.9 100 31.2 100 Z M 28.8 103.4 C 28.8 103.4 33.5 103.4 33.5 103.4 C 33.5 102.4 32.8 101.2 31.2 101.2 C 29.6 101.2 28.9 102.4 28.8 103.4 Z " stroke="none" fill="#242423"/>
  </g>
  <g id="Polygon181554">
    <path d="M 0.7 70.8 C 0.7 67.5 3.1 65.3 6.2 65.3 C 8.2 65.3 9.5 66.3 10.4 67.5 C 10.4 67.5 9 68.3 9 68.3 C 8.5 67.4 7.4 66.7 6.2 66.7 C 4 66.7 2.4 68.4 2.4 70.8 C 2.4 73.2 4 74.9 6.2 74.9 C 7.4 74.9 8.5 74.2 9 73.3 C 9 73.3 10.4 74 10.4 74 C 9.5 75.3 8.2 76.3 6.2 76.3 C 3.1 76.3 0.7 74 0.7 70.8 Z M 11.5 66.2 C 11.5 65.7 12 65.3 12.5 65.3 C 13 65.3 13.4 65.7 13.4 66.2 C 13.4 66.7 13 67.1 12.5 67.1 C 12 67.1 11.5 66.7 11.5 66.2 Z M 11.8 68.4 L 13.2 68.4 L 13.2 76.1 L 11.8 76.1 L 11.8 68.4 Z M 15.6 74.4 C 15.6 74.38 15.6 69.7 15.6 69.7 L 14.3 69.7 L 14.3 68.4 L 15.6 68.4 L 15.6 66.3 L 17 66.3 L 17 68.4 L 18.6 68.4 L 18.6 69.7 L 17 69.7 C 17 69.7 17.02 74.06 17 74.1 C 17 74.6 17.3 75 17.8 75 C 18.1 75 18.4 74.9 18.5 74.7 C 18.5 74.7 18.9 75.8 18.9 75.8 C 18.6 76.1 18.2 76.3 17.4 76.3 C 16.2 76.3 15.6 75.6 15.6 74.4 Z M 20.5 77.9 C 21 77.9 21.4 77.7 21.6 77.2 C 21.6 77.17 22 76.2 22 76.2 L 18.9 68.4 L 20.4 68.4 L 22.8 74.4 L 25.2 68.4 L 26.7 68.4 C 26.7 68.4 22.97 77.54 23 77.5 C 22.5 78.7 21.6 79.2 20.5 79.2 C 20.3 79.2 19.9 79.1 19.6 79.1 C 19.6 79.1 19.9 77.8 19.9 77.8 C 20 77.9 20.3 77.9 20.5 77.9 Z " stroke="none" fill="#242423"/>
  </g>
  <g id="Polygon181553">
    <path d="M 1.4 41.6 C 2.1 42.4 3.3 43.1 4.8 43.1 C 6.5 43.1 7.1 42.2 7.1 41.5 C 7.1 40.3 5.9 40 4.5 39.7 C 2.8 39.2 0.9 38.7 0.9 36.6 C 0.9 34.8 2.4 33.6 4.6 33.6 C 6.2 33.6 7.5 34.1 8.5 35 C 8.5 35 7.5 36.2 7.5 36.2 C 6.7 35.4 5.6 35 4.5 35 C 3.3 35 2.5 35.6 2.5 36.5 C 2.5 37.4 3.6 37.7 5 38.1 C 6.7 38.5 8.7 39.1 8.7 41.3 C 8.7 43 7.6 44.5 4.7 44.5 C 2.8 44.5 1.4 43.8 0.5 42.8 C 0.5 42.8 1.4 41.6 1.4 41.6 Z M 10.4 42.6 C 10.39 42.61 10.4 37.9 10.4 37.9 L 9.1 37.9 L 9.1 36.6 L 10.4 36.6 L 10.4 34.5 L 11.8 34.5 L 11.8 36.6 L 13.4 36.6 L 13.4 37.9 L 11.8 37.9 C 11.8 37.9 11.82 42.3 11.8 42.3 C 11.8 42.8 12.1 43.2 12.6 43.2 C 12.9 43.2 13.2 43.1 13.3 42.9 C 13.3 42.9 13.7 44 13.7 44 C 13.4 44.3 13 44.5 12.2 44.5 C 11 44.5 10.4 43.8 10.4 42.6 Z M 14.8 36.6 L 16.2 36.6 C 16.2 36.6 16.23 37.81 16.2 37.8 C 16.8 37.1 17.7 36.5 18.7 36.5 C 18.7 36.5 18.7 37.9 18.7 37.9 C 18.6 37.9 18.4 37.9 18.2 37.9 C 17.5 37.9 16.6 38.4 16.2 39 C 16.23 38.97 16.2 44.3 16.2 44.3 L 14.8 44.3 L 14.8 36.6 Z M 23.4 36.5 C 25.7 36.5 27.1 38.2 27.1 40.6 C 27.11 40.59 27.1 40.9 27.1 40.9 C 27.1 40.9 21.04 40.94 21 40.9 C 21.2 42.2 22.1 43.3 23.6 43.3 C 24.5 43.3 25.3 43 25.9 42.4 C 25.9 42.4 26.6 43.4 26.6 43.4 C 25.8 44.1 24.7 44.5 23.5 44.5 C 21.2 44.5 19.5 42.9 19.5 40.5 C 19.5 38.2 21.1 36.5 23.4 36.5 Z M 21 39.9 C 21 39.9 25.7 39.9 25.7 39.9 C 25.7 38.9 25 37.6 23.4 37.6 C 21.8 37.6 21.1 38.9 21 39.9 Z M 32.1 36.5 C 34.4 36.5 35.8 38.2 35.8 40.6 C 35.85 40.59 35.8 40.9 35.8 40.9 C 35.8 40.9 29.78 40.94 29.8 40.9 C 29.9 42.2 30.8 43.3 32.4 43.3 C 33.2 43.3 34.1 43 34.7 42.4 C 34.7 42.4 35.3 43.4 35.3 43.4 C 34.6 44.1 33.5 44.5 32.2 44.5 C 30 44.5 28.3 42.9 28.3 40.5 C 28.3 38.2 29.9 36.5 32.1 36.5 Z M 29.8 39.9 C 29.8 39.9 34.4 39.9 34.4 39.9 C 34.4 38.9 33.7 37.6 32.1 37.6 C 30.6 37.6 29.8 38.9 29.8 39.9 Z M 37.8 42.6 C 37.77 42.61 37.8 37.9 37.8 37.9 L 36.5 37.9 L 36.5 36.6 L 37.8 36.6 L 37.8 34.5 L 39.2 34.5 L 39.2 36.6 L 40.8 36.6 L 40.8 37.9 L 39.2 37.9 C 39.2 37.9 39.2 42.3 39.2 42.3 C 39.2 42.8 39.5 43.2 39.9 43.2 C 40.3 43.2 40.6 43.1 40.7 42.9 C 40.7 42.9 41.1 44 41.1 44 C 40.8 44.3 40.3 44.5 39.6 44.5 C 38.4 44.5 37.8 43.8 37.8 42.6 Z M 52.9 42.1 L 47.7 42.1 L 46.8 44.3 L 45.1 44.3 L 49.3 33.7 L 51.3 33.7 L 55.5 44.3 L 53.7 44.3 L 52.9 42.1 Z M 48.1 40.7 L 52.4 40.7 L 50.3 35.1 L 48.1 40.7 Z M 62 43.2 C 61.4 44 60.5 44.5 59.5 44.5 C 57.5 44.5 56.1 43 56.1 40.5 C 56.1 38 57.5 36.5 59.5 36.5 C 60.5 36.5 61.4 36.9 62 37.8 C 62.01 37.75 62 33.7 62 33.7 L 63.4 33.7 L 63.4 44.3 L 62 44.3 C 62 44.3 62.01 43.22 62 43.2 Z M 62 38.8 C 61.6 38.2 60.8 37.7 59.9 37.7 C 58.4 37.7 57.6 38.9 57.6 40.5 C 57.6 42.1 58.4 43.2 59.9 43.2 C 60.8 43.2 61.6 42.7 62 42.1 C 62 42.1 62 38.8 62 38.8 Z M 71 43.2 C 70.5 44 69.5 44.5 68.5 44.5 C 66.5 44.5 65.1 43 65.1 40.5 C 65.1 38 66.5 36.5 68.5 36.5 C 69.5 36.5 70.4 36.9 71 37.8 C 71.03 37.75 71 33.7 71 33.7 L 72.5 33.7 L 72.5 44.3 L 71 44.3 C 71 44.3 71.03 43.22 71 43.2 Z M 71 38.8 C 70.6 38.2 69.8 37.7 68.9 37.7 C 67.5 37.7 66.6 38.9 66.6 40.5 C 66.6 42.1 67.5 43.2 68.9 43.2 C 69.8 43.2 70.6 42.7 71 42.1 C 71 42.1 71 38.8 71 38.8 Z M 74.6 36.6 L 76 36.6 C 76 36.6 76.01 37.81 76 37.8 C 76.6 37.1 77.5 36.5 78.5 36.5 C 78.5 36.5 78.5 37.9 78.5 37.9 C 78.4 37.9 78.2 37.9 78 37.9 C 77.3 37.9 76.3 38.4 76 39 C 76.01 38.97 76 44.3 76 44.3 L 74.6 44.3 L 74.6 36.6 Z M 83.2 36.5 C 85.5 36.5 86.9 38.2 86.9 40.6 C 86.89 40.59 86.9 40.9 86.9 40.9 C 86.9 40.9 80.82 40.94 80.8 40.9 C 80.9 42.2 81.9 43.3 83.4 43.3 C 84.2 43.3 85.1 43 85.7 42.4 C 85.7 42.4 86.4 43.4 86.4 43.4 C 85.6 44.1 84.5 44.5 83.3 44.5 C 81 44.5 79.3 42.9 79.3 40.5 C 79.3 38.2 80.9 36.5 83.2 36.5 Z M 80.8 39.9 C 80.8 39.9 85.5 39.9 85.5 39.9 C 85.5 38.9 84.8 37.6 83.2 37.6 C 81.6 37.6 80.9 38.9 80.8 39.9 Z M 88.5 42.3 C 89.1 42.8 90.1 43.4 91.1 43.4 C 92.2 43.4 92.8 42.9 92.8 42.3 C 92.8 41.5 91.9 41.2 90.9 41 C 89.6 40.7 88.1 40.4 88.1 38.7 C 88.1 37.5 89.1 36.5 91 36.5 C 92.3 36.5 93.3 36.9 93.9 37.5 C 93.9 37.5 93.3 38.5 93.3 38.5 C 92.8 38 92 37.6 91 37.6 C 90.1 37.6 89.4 38 89.4 38.6 C 89.4 39.3 90.3 39.5 91.2 39.7 C 92.6 40 94.1 40.4 94.1 42.2 C 94.1 43.5 93.1 44.5 91.1 44.5 C 89.8 44.5 88.6 44.1 87.9 43.3 C 87.9 43.3 88.5 42.3 88.5 42.3 Z M 95.8 42.3 C 96.3 42.8 97.4 43.4 98.4 43.4 C 99.5 43.4 100 42.9 100 42.3 C 100 41.5 99.2 41.2 98.2 41 C 96.9 40.7 95.4 40.4 95.4 38.7 C 95.4 37.5 96.4 36.5 98.3 36.5 C 99.6 36.5 100.6 36.9 101.2 37.5 C 101.2 37.5 100.6 38.5 100.6 38.5 C 100.1 38 99.3 37.6 98.3 37.6 C 97.3 37.6 96.7 38 96.7 38.6 C 96.7 39.3 97.5 39.5 98.5 39.7 C 99.8 40 101.4 40.4 101.4 42.2 C 101.4 43.5 100.3 44.5 98.3 44.5 C 97 44.5 95.9 44.1 95.1 43.3 C 95.1 43.3 95.8 42.3 95.8 42.3 Z " stroke="none" fill="#242423"/>
  </g>
  <g id="Polygon181552">
    <path d="M 3.8 3.4 L 0.5 3.4 L 0.5 2 L 8.6 2 L 8.6 3.4 L 5.4 3.4 L 5.4 12.5 L 3.8 12.5 L 3.8 3.4 Z M 11.7 4.7 C 14 4.7 15.4 6.5 15.4 8.8 C 15.44 8.83 15.4 9.2 15.4 9.2 C 15.4 9.2 9.37 9.18 9.4 9.2 C 9.5 10.5 10.4 11.6 12 11.6 C 12.8 11.6 13.7 11.2 14.2 10.7 C 14.2 10.7 14.9 11.6 14.9 11.6 C 14.2 12.3 13.1 12.7 11.8 12.7 C 9.5 12.7 7.9 11.1 7.9 8.7 C 7.9 6.5 9.5 4.7 11.7 4.7 Z M 9.4 8.1 C 9.4 8.1 14 8.1 14 8.1 C 14 7.1 13.3 5.9 11.7 5.9 C 10.2 5.9 9.4 7.1 9.4 8.1 Z M 22.3 7.6 C 22.3 6.4 21.6 6 20.6 6 C 19.7 6 18.9 6.5 18.5 7.1 C 18.5 7.07 18.5 12.5 18.5 12.5 L 17.1 12.5 L 17.1 4.9 L 18.5 4.9 C 18.5 4.9 18.5 5.95 18.5 6 C 19 5.3 20 4.7 21.2 4.7 C 22.8 4.7 23.7 5.5 23.7 7.2 C 23.68 7.16 23.7 12.5 23.7 12.5 L 22.3 12.5 C 22.3 12.5 22.25 7.64 22.3 7.6 Z M 30.5 11.7 C 29.9 12.4 29 12.7 28 12.7 C 26.7 12.7 25.3 11.9 25.3 10.2 C 25.3 8.4 26.7 7.7 28 7.7 C 29 7.7 29.9 8 30.5 8.7 C 30.5 8.7 30.5 7.4 30.5 7.4 C 30.5 6.5 29.7 5.9 28.7 5.9 C 27.8 5.9 27 6.2 26.3 6.9 C 26.3 6.9 25.7 5.9 25.7 5.9 C 26.6 5.1 27.6 4.7 28.9 4.7 C 30.5 4.7 32 5.4 32 7.4 C 31.95 7.37 32 12.5 32 12.5 L 30.5 12.5 C 30.5 12.5 30.53 11.71 30.5 11.7 Z M 30.5 9.6 C 30.1 9 29.4 8.7 28.6 8.7 C 27.5 8.7 26.8 9.3 26.8 10.2 C 26.8 11.1 27.5 11.7 28.6 11.7 C 29.4 11.7 30.1 11.4 30.5 10.9 C 30.5 10.9 30.5 9.6 30.5 9.6 Z M 39.3 7.6 C 39.3 6.4 38.6 6 37.6 6 C 36.7 6 35.9 6.5 35.5 7.1 C 35.51 7.07 35.5 12.5 35.5 12.5 L 34.1 12.5 L 34.1 4.9 L 35.5 4.9 C 35.5 4.9 35.51 5.95 35.5 6 C 36 5.3 37 4.7 38.2 4.7 C 39.8 4.7 40.7 5.5 40.7 7.2 C 40.69 7.16 40.7 12.5 40.7 12.5 L 39.3 12.5 C 39.3 12.5 39.26 7.64 39.3 7.6 Z M 43.1 10.8 C 43.09 10.85 43.1 6.1 43.1 6.1 L 41.8 6.1 L 41.8 4.9 L 43.1 4.9 L 43.1 2.8 L 44.5 2.8 L 44.5 4.9 L 46.1 4.9 L 46.1 6.1 L 44.5 6.1 C 44.5 6.1 44.52 10.53 44.5 10.5 C 44.5 11.1 44.8 11.5 45.3 11.5 C 45.6 11.5 45.9 11.3 46 11.2 C 46 11.2 46.4 12.2 46.4 12.2 C 46.1 12.5 45.7 12.7 44.9 12.7 C 43.7 12.7 43.1 12.1 43.1 10.8 Z " stroke="none" fill="#242423"/>
  </g>
</svg>