<?xml version="1.0" standalone="no"?>
<!DOCTYPE svg PUBLIC "-//W3C//DTD SVG 1.1//EN" "http://www.w3.org/Graphics/SVG/1.1/DTD/svg11.dtd">
<svg xmlns="http://www.w3.org/2000/svg" version="1.1" width="109.3px" height="27.9px" viewBox="0 -6 109.3 27.9" style="top:-6px">
  <desc>Lot Size</desc>
  <defs/>
  <g id="Polygon269068">
    <path d="M 1.2 2 L 2.8 2 L 2.8 11.2 L 7.6 11.2 L 7.6 12.5 L 1.2 12.5 L 1.2 2 Z M 8.5 8.7 C 8.5 6.5 10 4.7 12.4 4.7 C 14.8 4.7 16.3 6.5 16.3 8.7 C 16.3 10.9 14.8 12.7 12.4 12.7 C 10 12.7 8.5 10.9 8.5 8.7 Z M 14.8 8.7 C 14.8 7.3 13.9 6 12.4 6 C 10.9 6 10 7.3 10 8.7 C 10 10.2 10.9 11.5 12.4 11.5 C 13.9 11.5 14.8 10.2 14.8 8.7 Z M 18.4 10.8 C 18.38 10.85 18.4 6.1 18.4 6.1 L 17.1 6.1 L 17.1 4.9 L 18.4 4.9 L 18.4 2.8 L 19.8 2.8 L 19.8 4.9 L 21.4 4.9 L 21.4 6.1 L 19.8 6.1 C 19.8 6.1 19.8 10.53 19.8 10.5 C 19.8 11.1 20.1 11.5 20.6 11.5 C 20.9 11.5 21.2 11.3 21.3 11.2 C 21.3 11.2 21.7 12.2 21.7 12.2 C 21.4 12.5 20.9 12.7 20.2 12.7 C 19 12.7 18.4 12.1 18.4 10.8 Z M 27.3 9.8 C 28 10.6 29.2 11.3 30.7 11.3 C 32.4 11.3 33 10.5 33 9.7 C 33 8.6 31.8 8.3 30.4 7.9 C 28.7 7.5 26.8 7 26.8 4.8 C 26.8 3.1 28.3 1.8 30.5 1.8 C 32.1 1.8 33.4 2.3 34.4 3.3 C 34.4 3.3 33.4 4.4 33.4 4.4 C 32.6 3.6 31.5 3.2 30.4 3.2 C 29.2 3.2 28.4 3.8 28.4 4.7 C 28.4 5.7 29.5 6 30.9 6.3 C 32.6 6.7 34.6 7.3 34.6 9.5 C 34.6 11.2 33.5 12.7 30.6 12.7 C 28.7 12.7 27.3 12.1 26.4 11.1 C 26.4 11.1 27.3 9.8 27.3 9.8 Z M 36.2 2.7 C 36.2 2.2 36.6 1.8 37.1 1.8 C 37.6 1.8 38 2.2 38 2.7 C 38 3.2 37.6 3.6 37.1 3.6 C 36.6 3.6 36.2 3.2 36.2 2.7 Z M 36.4 4.9 L 37.8 4.9 L 37.8 12.5 L 36.4 12.5 L 36.4 4.9 Z M 39.8 11.5 L 43.8 6.1 L 39.8 6.1 L 39.8 4.9 L 45.6 4.9 L 45.6 5.9 L 41.6 11.3 L 45.7 11.3 L 45.7 12.5 L 39.8 12.5 L 39.8 11.5 Z M 51 4.7 C 53.3 4.7 54.7 6.5 54.7 8.8 C 54.74 8.83 54.7 9.2 54.7 9.2 C 54.7 9.2 48.68 9.18 48.7 9.2 C 48.8 10.5 49.7 11.6 51.3 11.6 C 52.1 11.6 53 11.2 53.6 10.7 C 53.6 10.7 54.2 11.6 54.2 11.6 C 53.5 12.3 52.4 12.7 51.1 12.7 C 48.9 12.7 47.2 11.1 47.2 8.7 C 47.2 6.5 48.8 4.7 51 4.7 Z M 48.7 8.1 C 48.7 8.1 53.3 8.1 53.3 8.1 C 53.3 7.1 52.6 5.9 51 5.9 C 49.5 5.9 48.7 7.1 48.7 8.1 Z " stroke="none" fill="#000"/>
  </g>
</svg>