<?xml version="1.0" standalone="no"?><!DOCTYPE svg PUBLIC "-//W3C//DTD SVG 1.1//EN" "http://www.w3.org/Graphics/SVG/1.1/DTD/svg11.dtd"><svg xmlns="http://www.w3.org/2000/svg" version="1.1" width="229px" height="82.9px" viewBox="0 -10 229 82.9" style="top:-10px"><desc>Agent 1</desc><defs/><g id="Polygon85753"><path d="m.7 59.5c0-2.6.8-5.1 2.3-7.1l.9.7c-1.1 2-1.7 3.8-1.7 6.4c0 2.5.6 4.3 1.7 6.3l-.9.7C1.5 64.6.7 62 .7 59.5zm8.8 1.3h-5v-1.3l4.4-6.8h2.2v6.7h1.5v1.4h-1.5v2.5H9.5v-2.5zm-3.4-1.4h3.4v-5.2l-3.4 5.2zm7.6 2.7c4-3.1 5.8-4.7 5.8-6.3c0-1.3-1-1.8-2.1-1.8c-1.2 0-2.2.5-2.8 1.3l-1-1c.9-1.1 2.3-1.7 3.8-1.7c1.9 0 3.7 1.1 3.7 3.2c0 2-2 3.9-4.9 6.1c.03.03 5 0 5 0v1.4h-7.5v-1.2zm13.9-1.3h-5v-1.3l4.4-6.8h2.2v6.7h1.5v1.4h-1.5v2.5h-1.6v-2.5zm-3.4-1.4h3.4v-5.2l-3.4 5.2zm7.1-6.3l.8-.7c1.5 2 2.4 4.5 2.4 7.1c0 2.5-.9 5.1-2.4 7l-.8-.7c1-2 1.6-3.8 1.6-6.3c0-2.6-.6-4.4-1.6-6.4zm8.9 7.7c.7.8 1.8 1.3 3 1.3c1.4 0 2.3-.7 2.3-1.8c0-1.2-.9-1.7-2.5-1.7h-1.1v-1.4h1.1c1.3 0 2.4-.5 2.4-1.6c0-1-1.1-1.6-2.3-1.6c-1.1 0-2 .4-2.8 1.2l-.8-1c.8-.9 2-1.6 3.7-1.6c2.2 0 3.7 1 3.7 2.8c0 1.5-1.2 2.3-2.3 2.5c1 .1 2.5.9 2.5 2.6c0 1.7-1.5 3-3.9 3c-1.8 0-3.2-.8-3.9-1.7l.9-1zm8.4 1.3c3.9-3.1 5.8-4.7 5.8-6.3c0-1.3-1.1-1.8-2.1-1.8c-1.3 0-2.2.5-2.9 1.3l-.9-1c.9-1.1 2.3-1.7 3.8-1.7c1.9 0 3.7 1.1 3.7 3.2c0 2-2 3.9-4.9 6.1c-.01.03 4.9 0 4.9 0v1.4h-7.4s-.03-1.23 0-1.2zm10.3-1.3c.7.8 1.6 1.3 2.9 1.3c1.3 0 2.3-.9 2.3-2.1c0-1.2-.9-2-2.3-2c-.9 0-1.7.2-2.4.9l-1.1-.4v-5.8h6.7v1.4h-5.1s-.04 3.41 0 3.4c.5-.5 1.4-.9 2.4-.9c1.8 0 3.4 1.2 3.4 3.4c0 2.2-1.7 3.5-3.9 3.5c-1.8 0-3-.6-3.9-1.6l1-1.1zm7.8-1.9h3.8v1.2h-3.8v-1.2zm5 3.2c4-3.1 5.8-4.7 5.8-6.3c0-1.3-1-1.8-2.1-1.8c-1.2 0-2.2.5-2.9 1.3l-.9-1c.9-1.1 2.3-1.7 3.8-1.7c1.9 0 3.7 1.1 3.7 3.2c0 2-2 3.9-4.9 6.1c.02.03 5 0 5 0v1.4h-7.5v-1.2zm13.6-9.5c1.4 0 2.3.5 3 1.2l-.8 1.2c-.5-.6-1.1-1-2.2-1c-1.9 0-2.9 1.8-2.9 3.8v.4c.5-.7 1.6-1.6 3-1.6c1.9 0 3.5 1.2 3.5 3.4c0 1.9-1.5 3.5-3.9 3.5c-3 0-4.2-2.5-4.2-5.4c0-3 1.5-5.5 4.5-5.5zM85 58c-1 0-2 .5-2.5 1.4c.1 1.2.7 2.7 2.5 2.7c1.5 0 2.3-1.1 2.3-2c0-1.5-1.1-2.1-2.3-2.1zm9.3-5.4c2.9 0 4.1 2.8 4.1 5.4c0 2.7-1.2 5.5-4.1 5.5c-3 0-4.2-2.8-4.2-5.5c0-2.6 1.2-5.4 4.2-5.4zm0 1.4c-1.9 0-2.6 2-2.6 4c0 2.1.7 4.1 2.6 4.1c1.9 0 2.5-2 2.5-4.1c0-2-.6-4-2.5-4zm7.9 3.9c-1.2-.4-2.3-1.2-2.3-2.6c0-1.9 1.9-2.7 3.8-2.7c1.8 0 3.7.8 3.7 2.7c0 1.4-1.1 2.2-2.3 2.6c1.3.4 2.5 1.3 2.5 2.7c0 1.9-1.8 2.9-3.9 2.9c-2.2 0-4-1-4-2.9c0-1.4 1.2-2.3 2.5-2.7zm1.5-3.9c-1.3 0-2.2.6-2.2 1.6c0 1.1 1.5 1.5 2.2 1.6c.6-.1 2.1-.5 2.1-1.6c0-1-.9-1.6-2.1-1.6zm0 4.6c-.7.1-2.4.6-2.4 1.8c0 1.1 1.1 1.7 2.4 1.7c1.2 0 2.3-.6 2.3-1.7c0-1.2-1.7-1.7-2.3-1.8z" stroke="none" fill="#3797ef"/></g><g id="Polygon85752"><path d="m1.2 33.7s3.76-.02 3.8 0c3.3 0 5.4 2.2 5.4 5.3c0 3-2.1 5.3-5.4 5.3c-.04-.03-3.8 0-3.8 0V33.7zM5 42.9c2.4 0 3.8-1.8 3.8-3.9c0-2.2-1.4-3.9-3.8-3.9c-.04-.03-2.2 0-2.2 0v7.8s2.16-.03 2.2 0zm7-8.5c0-.5.4-.9.9-.9c.5 0 .9.4.9.9c0 .5-.4.9-.9.9c-.5 0-.9-.4-.9-.9zm.2 2.2h1.4v7.7h-1.4v-7.7zm3.5 0h1.5s-.05 1.17 0 1.2c.5-.8 1.4-1.4 2.5-1.4v1.5c-.2-.1-.3-.1-.5-.1c-.7 0-1.7.6-2 1.1c-.05.03 0 5.4 0 5.4h-1.5v-7.7zm8.6-.2c2.3 0 3.7 1.8 3.7 4.2c.03-.05 0 .3 0 .3h-6c.1 1.3 1 2.4 2.6 2.4c.8 0 1.7-.3 2.2-.9l.7.9c-.8.8-1.8 1.2-3.1 1.2c-2.3 0-3.9-1.7-3.9-4.1c0-2.2 1.6-4 3.8-4zm-2.4 3.5h4.7c0-1-.7-2.3-2.3-2.3c-1.5 0-2.3 1.2-2.4 2.3zm11.2-3.5c1.4 0 2.3.6 2.9 1.4l-1 .8c-.4-.6-1.1-.9-1.8-.9c-1.5 0-2.5 1.1-2.5 2.7c0 1.6 1 2.8 2.5 2.8c.7 0 1.4-.3 1.8-1l1 .9c-.6.8-1.5 1.4-2.9 1.4c-2.3 0-3.9-1.8-3.9-4.1c0-2.3 1.6-4 3.9-4zm4.6 6.2c-.03-.03 0-4.7 0-4.7h-1.3v-1.3h1.3v-2.1h1.4v2.1h1.6v1.3h-1.6v4.4c0 .5.3.9.7.9c.4 0 .7-.2.8-.3L41 44c-.3.3-.8.5-1.5.5c-1.2 0-1.8-.7-1.8-1.9zm3.9-2.2c0-2.2 1.5-4 3.9-4c2.4 0 3.9 1.8 3.9 4c0 2.2-1.5 4.1-3.9 4.1c-2.4 0-3.9-1.9-3.9-4.1zm6.3 0c0-1.4-.9-2.7-2.4-2.7c-1.5 0-2.4 1.3-2.4 2.7c0 1.5.9 2.8 2.4 2.8c1.5 0 2.4-1.3 2.4-2.8zm3.1-3.8h1.4s.04 1.17 0 1.2c.6-.8 1.5-1.4 2.6-1.4v1.5c-.2-.1-.4-.1-.5-.1c-.8 0-1.7.6-2.1 1.1c.04.03 0 5.4 0 5.4H51v-7.7z" stroke="none" fill="#888888"/></g><g id="Polygon85751"><path d="m8.8 23.1l-2.5-7.9H4.7v7.9H1.4V3.3s5.12.03 5.1 0c3 0 5 1.2 5 4.2v3.5c0 1.9-.8 3.1-2.2 3.7c.05.01 2.9 8.4 2.9 8.4H8.8zM4.7 12.4s1.71-.01 1.7 0c1.1 0 1.8-.4 1.8-1.8V8c0-1.4-.7-1.8-1.8-1.8c.01.01-1.7 0-1.7 0v6.2zM14 23.1V3.3h3.3v19.8H14zm15.8-4c0 3.1-2 4.2-5 4.2c-3 0-5-1.1-5-4.2V7.3c0-3 2-4.2 5-4.2c3 0 5 1.2 5 4.2c-.01-.02 0 3.6 0 3.6h-3.3V7.8c0-1.4-.7-1.8-1.7-1.8c-1.1 0-1.7.4-1.7 1.8v10.8c0 1.4.6 1.8 1.7 1.8c1 0 1.7-.4 1.7-1.8c.01.03 0-3.6 0-3.6h3.3v4.1zm5.6-15.8v8.3h3.7V3.3h3.3v19.8h-3.3v-8.6h-3.7v8.6h-3.3V3.3h3.3zm15.8 15.4h-3.6l-.7 4.4h-3.1l3.6-19.8h4.2l3.7 19.8H52l-.8-4.4zm-.4-2.7l-1.4-8.8l-1.3 8.8h2.7zm13.3 7.1l-2.5-7.9h-1.7v7.9h-3.3V3.3s5.15.03 5.1 0c3 0 5 1.2 5 4.2v3.5c0 1.9-.8 3.1-2.1 3.7c-.03.01 2.8 8.4 2.8 8.4h-3.3zm-4.2-10.7s1.74-.01 1.7 0c1.1 0 1.8-.4 1.8-1.8V8c0-1.4-.7-1.8-1.8-1.8c.04.01-1.7 0-1.7 0v6.2zm19.2-4.9v11.4c0 3-2 4.2-5 4.2c.04-.01-5 0-5 0V3.3s5.04.03 5 0c3 0 5 1.2 5 4.2zM74 6.2h-1.6v14h1.6c1.1 0 1.8-.4 1.8-1.8V8c0-1.4-.7-1.8-1.8-1.8zm19.5 6.6c1.7.3 2.3 1.6 2.3 3.1v3.3c0 2.5-1.9 3.9-4.9 3.9h-5.1V3.3s5.14.03 5.1 0c3 0 4.8 1.4 4.8 3.9v2.5c0 1.4-.6 2.9-2.2 3.1zm-4.4-1.3s1.79-.01 1.8 0c.9 0 1.5-.5 1.5-1.5V7.7c0-1.1-.6-1.5-1.5-1.5c-.01-.05-1.8 0-1.8 0v5.3zm1.9 2.8c0-.05-1.9 0-1.9 0v6s1.9-.03 1.9 0c.9 0 1.5-.5 1.5-1.6v-2.9c0-1.1-.6-1.5-1.5-1.5zm14.4 8.8l-2.5-7.9h-1.7v7.9h-3.3V3.3s5.16.03 5.2 0c2.9 0 4.9 1.2 4.9 4.2v3.5c0 1.9-.8 3.1-2.1 3.7c-.02.01 2.8 8.4 2.8 8.4h-3.3zm-4.2-10.7s1.74-.01 1.7 0c1.1 0 1.9-.4 1.9-1.8V8c0-1.4-.8-1.8-1.9-1.8c.04.01-1.7 0-1.7 0v6.2zm9.2 10.7V3.3h8.7v2.9h-5.4v5.4h4.5v2.9h-4.5v5.7h5.5v2.9h-8.8zm14.1-19.8v8.3h3.7V3.3h3.3v19.8h-3.3v-8.6h-3.7v8.6h-3.3V3.3h3.3zm15.8 15.4h-3.6l-.7 4.4h-3.2l3.7-19.8h4.1l3.8 19.8H141l-.7-4.4zm-.4-2.7l-1.4-8.8l-1.4 8.8h2.8zm15.5 3.1c0 3.1-1.9 4.2-4.9 4.2h-.1c-3 0-4.9-1.1-4.9-4.2V3.3h3.3s-.03 15.33 0 15.3c0 1.4.6 1.8 1.7 1.8c1 0 1.7-.4 1.7-1.8c-.04.03 0-15.3 0-15.3h3.2s.03 15.84 0 15.8zm11.3-12.9h-3.3v16.9h-3.3V6.2h-3.3V3.3h9.9v2.9z" stroke="none" fill="#282828"/></g></svg>