<?xml version="1.0" standalone="no"?><!DOCTYPE svg PUBLIC "-//W3C//DTD SVG 1.1//EN" "http://www.w3.org/Graphics/SVG/1.1/DTD/svg11.dtd"><svg xmlns="http://www.w3.org/2000/svg" version="1.1" width="237px" height="26.9px" viewBox="0 -6 237 26.9" style="top:-6px"><desc>7 10 2014</desc><defs/><g id="Polygon96151"><path d="m179.5 2.8h-5.9v-.8h7v.6l-4.6 9.9h-1l4.5-9.7zm5.3-1.2h.8l-3.8 11.3h-.7l3.7-11.3zm3.4 1.6L186.5 5l-.5-.6l2.3-2.4h.8v10.5h-.9V3.2zm7.1-1.4c2.8 0 3.9 2.9 3.9 5.5c0 2.5-1.1 5.4-3.9 5.4c-2.9 0-3.9-2.9-3.9-5.4c0-2.6 1-5.5 3.9-5.5zm0 .8c-2.2 0-3 2.5-3 4.7c0 2.1.8 4.6 3 4.6c2.2 0 2.9-2.5 2.9-4.6c0-2.2-.7-4.7-2.9-4.7zm8.6-1h.7l-3.8 11.3h-.7l3.8-11.3zm1.6 10.2c3.6-2.9 6-5 6-7c0-1.5-1.3-2.2-2.4-2.2c-1.3 0-2.4.6-2.9 1.4l-.6-.6c.7-1 2-1.6 3.5-1.6c1.5 0 3.3.9 3.3 3c0 2.3-2.4 4.4-5.5 6.9c-.01.02 5.6 0 5.6 0v.8h-7s-.03-.7 0-.7zm13.2-10c2.8 0 3.9 2.9 3.9 5.5c0 2.5-1.1 5.4-3.9 5.4c-2.9 0-4-2.9-4-5.4c0-2.6 1.1-5.5 4-5.5zm0 .8c-2.3 0-3 2.5-3 4.7c0 2.1.7 4.6 3 4.6c2.2 0 2.9-2.5 2.9-4.6c0-2.2-.7-4.7-2.9-4.7zm7.5.6L224.5 5l-.6-.6l2.3-2.4h.9v10.5h-.9V3.2zm7.7 6.5h-5v-.9l4.7-6.8h1.3v6.8h1.5v.9h-1.5v2.8h-1V9.7zm-4-.9h4V2.9l-4 5.9z" stroke="none" fill="#000"/></g></svg>