<?xml version="1.0" standalone="no"?><!DOCTYPE svg PUBLIC "-//W3C//DTD SVG 1.1//EN" "http://www.w3.org/Graphics/SVG/1.1/DTD/svg11.dtd"><svg xmlns="http://www.w3.org/2000/svg" version="1.1" width="60.3px" height="27.5px" viewBox="0 -6 60.3 27.5" style="top:-6px"><desc>Agent 1</desc><defs/><g id="Polygon269194"><path d="m6.1 8.7v1.6c0 1.4-.7 2.1-1.9 2.2v1.2H2.5s.04-1.14 0-1.1c-1.2-.2-1.9-.9-1.9-2.3c-.02-.03 0-2 0-2h1.8v1.7c0 .7.4 1 1 1c.5 0 .9-.3.9-1v-.9c0-.5-.2-.8-.7-1.1l-1.3-.8C1.2 6.6.6 6.1.6 4.9V3.5c0-1.4.8-2.1 1.9-2.3c.04.02 0-1.2 0-1.2h1.7v1.2c1.1.2 1.9.9 1.9 2.3c.01-.04 0 1.8 0 1.8H4.3V3.7c0-.7-.4-.9-1-.9c-.5 0-.9.2-.9.9v.8c0 .6.2.8.7 1.1l1.3.8c1.1.6 1.7 1.1 1.7 2.3zm6.7-5.2v6.7c0 1.7-1 2.4-2.7 2.4h-.1c-1.7 0-2.7-.7-2.7-2.4V3.5c0-1.7 1-2.3 2.7-2.3h.1c1.7 0 2.7.6 2.7 2.3zM10 2.8c-.6 0-.9.2-.9 1v6.2c0 .8.3 1 .9 1c.6 0 1-.2 1-1V3.8c0-.8-.4-1-1-1zm5.8 9.2c0 1-.5 2-1 2.6l-.7-.4c.3-.5.7-1.2.7-1.7c.03-.02-.8 0-.8 0v-2.1h1.8v1.6zm6.7-8.5v6.7c0 1.7-1 2.4-2.7 2.4h-.1c-1.7 0-2.7-.7-2.7-2.4V3.5c0-1.7 1-2.3 2.7-2.3h.1c1.7 0 2.7.6 2.7 2.3zm-2.7-.7c-.6 0-1 .2-1 1v6.2c0 .8.4 1 1 1c.6 0 .9-.2.9-1V3.8c0-.8-.3-1-.9-1zm9.5.7v6.7c0 1.7-1 2.4-2.6 2.4h-.2c-1.7 0-2.7-.7-2.7-2.4V3.5c0-1.7 1-2.3 2.7-2.3h.2c1.6 0 2.6.6 2.6 2.3zm-2.7-.7c-.6 0-1 .2-1 1v6.2c0 .8.4 1 1 1c.6 0 1-.2 1-1V3.8c0-.8-.4-1-1-1zm9.6.7v6.7c0 1.7-1 2.4-2.7 2.4h-.2c-1.6 0-2.6-.7-2.6-2.4V3.5c0-1.7 1-2.3 2.6-2.3h.2c1.7 0 2.7.6 2.7 2.3zm-2.8-.7c-.6 0-1 .2-1 1v6.2c0 .8.4 1 1 1c.6 0 1-.2 1-1V3.8c0-.8-.4-1-1-1zm5.8 9.2c0 1-.5 2-1 2.6l-.7-.4c.3-.5.6-1.2.7-1.7c.02-.02-.8 0-.8 0v-2.1h1.8v1.6zm6.7-8.5v6.7c0 1.7-1 2.4-2.7 2.4h-.1c-1.7 0-2.7-.7-2.7-2.4V3.5c0-1.7 1-2.3 2.7-2.3h.1c1.7 0 2.7.6 2.7 2.3zm-2.7-.7c-.6 0-1 .2-1 1v6.2c0 .8.4 1 1 1c.6 0 .9-.2.9-1V3.8c0-.8-.3-1-.9-1zm9.5.7v6.7c0 1.7-1 2.4-2.7 2.4h-.1c-1.7 0-2.7-.7-2.7-2.4V3.5c0-1.7 1-2.3 2.7-2.3h.1c1.7 0 2.7.6 2.7 2.3zM50 2.8c-.6 0-1 .2-1 1v6.2c0 .8.4 1 1 1c.6 0 .9-.2.9-1V3.8c0-.8-.3-1-.9-1zm9.6.7v6.7c0 1.7-1.1 2.4-2.7 2.4h-.2c-1.6 0-2.7-.7-2.7-2.4V3.5c0-1.7 1.1-2.3 2.7-2.3h.2c1.6 0 2.7.6 2.7 2.3zm-2.8-.7c-.6 0-1 .2-1 1v6.2c0 .8.4 1 1 1c.6 0 1-.2 1-1V3.8c0-.8-.4-1-1-1z" stroke="none" fill="#282828"/></g></svg>