<?xml version="1.0" standalone="no"?><!DOCTYPE svg PUBLIC "-//W3C//DTD SVG 1.1//EN" "http://www.w3.org/Graphics/SVG/1.1/DTD/svg11.dtd"><svg xmlns="http://www.w3.org/2000/svg" version="1.1" width="30px" height="65.8px" viewBox="0 -15 30 65.8" style="top:-15px"><desc>%</desc><defs/><g id="Polygon274367"><path d="m7.8 2.8c3.8 0 6.5 2.9 6.5 6.8c0 3.7-2.7 6.6-6.5 6.6c-3.9 0-6.5-2.9-6.5-6.6c0-3.9 2.6-6.8 6.5-6.8zm14.7.4h2.2L7.4 30.3H5.2L22.5 3.2zM7.8 4.9c-2.4 0-4.1 2-4.1 4.7c0 2.5 1.7 4.5 4.1 4.5c2.4 0 4.1-2 4.1-4.5c0-2.7-1.7-4.7-4.1-4.7zm14.1 12.5c3.8 0 6.5 3 6.5 6.8c0 3.7-2.7 6.6-6.5 6.6c-3.9 0-6.5-2.9-6.5-6.6c0-3.8 2.6-6.8 6.5-6.8zm0 2.1c-2.5 0-4.1 2-4.1 4.7c0 2.5 1.6 4.6 4.1 4.6c2.4 0 4.1-2.1 4.1-4.6c0-2.7-1.7-4.7-4.1-4.7z" stroke="none" fill="#fff"/></g></svg>