<?xml version="1.0" standalone="no"?><!DOCTYPE svg PUBLIC "-//W3C//DTD SVG 1.1//EN" "http://www.w3.org/Graphics/SVG/1.1/DTD/svg11.dtd"><svg xmlns="http://www.w3.org/2000/svg" version="1.1" width="19.4px" height="16.9px" viewBox="0 -4 19.4 16.9" style="top:-4px"><desc>Term</desc><defs/><g id="Polygon97835"><path d="m2.1 1.9H.3v-.8h4.6v.8H3v5.2h-.9V1.9zm4.5.8c1.3 0 2.1 1 2.1 2.3c.05 0 0 .2 0 .2H5.3c.1.7.6 1.4 1.5 1.4c.4 0 .9-.2 1.3-.6l.4.6c-.5.4-1.1.6-1.8.6c-1.3 0-2.2-.9-2.2-2.3c0-1.2.9-2.2 2.1-2.2zM5.3 4.6h2.7c-.1-.6-.4-1.3-1.4-1.3c-.8 0-1.3.7-1.3 1.3zm4.4-1.8h.8s-.02.63 0 .6c.3-.4.8-.7 1.4-.7v.8h-.3c-.4 0-.9.3-1.1.6c-.02-.01 0 3 0 3h-.8V2.8zm8.2 1.4c0-.5-.2-.8-.7-.8c-.5 0-.9.3-1.1.6c-.03 0 0 3.1 0 3.1h-.8s-.04-2.89 0-2.9c0-.5-.3-.8-.8-.8c-.4 0-.8.3-1.1.6c.04 0 0 3.1 0 3.1h-.8V2.8h.8s.04.57 0 .6c.2-.3.8-.7 1.4-.7c.7 0 1.1.3 1.2.8c.3-.4.8-.8 1.5-.8c.8 0 1.2.4 1.2 1.3c.02-.03 0 3.1 0 3.1h-.8V4.2z" stroke="none" fill="#88898a"/></g></svg>