<?xml version="1.0" standalone="no"?><!DOCTYPE svg PUBLIC "-//W3C//DTD SVG 1.1//EN" "http://www.w3.org/Graphics/SVG/1.1/DTD/svg11.dtd"><svg xmlns="http://www.w3.org/2000/svg" version="1.1" width="89.3px" height="16.9px" viewBox="0 -4 89.3 16.9" style="top:-4px"><desc>Options</desc><defs/><g id="Polygon54581"><path d="m3.4 1c1.8 0 3.1 1.3 3.1 3.1c0 1.8-1.3 3.1-3.1 3.1c-1.8 0-3-1.3-3-3.1C.4 2.3 1.6 1 3.4 1zm0 .8c-1.2 0-2.1 1-2.1 2.3c0 1.3.9 2.3 2.1 2.3c1.3 0 2.1-1 2.1-2.3c0-1.3-.8-2.3-2.1-2.3zm4.1 7v-6h.8s.04.58 0 .6c.4-.4.9-.7 1.5-.7c1.1 0 1.9.8 1.9 2.2c0 1.5-.8 2.3-1.9 2.3c-.6 0-1.1-.2-1.5-.7c.04-.02 0 2.3 0 2.3h-.8zm2-5.4c-.4 0-.9.3-1.2.6v1.9c.3.3.8.6 1.2.6c.9 0 1.4-.7 1.4-1.6c0-.9-.5-1.5-1.4-1.5zm3.4 2.7V3.5h-.7v-.7h.7V1.6h.8v1.2h.9v.7h-.9v2.5c0 .3.1.5.4.5c.2 0 .4-.1.5-.2l.2.6c-.2.2-.5.3-.9.3c-.7 0-1-.4-1-1.1zm2.5-4.6c0-.3.2-.5.5-.5c.3 0 .5.2.5.5c0 .3-.2.5-.5.5c-.3 0-.5-.2-.5-.5zm.1 1.3h.8v4.3h-.8V2.8zm1.8 2.1c0-1.2.9-2.2 2.2-2.2c1.4 0 2.2 1 2.2 2.2c0 1.3-.8 2.3-2.2 2.3c-1.3 0-2.2-1-2.2-2.3zm3.6 0c0-.8-.5-1.5-1.4-1.5c-.9 0-1.3.7-1.3 1.5c0 .9.4 1.6 1.3 1.6c.9 0 1.4-.7 1.4-1.6zm4.8-.6c0-.7-.4-.9-1-.9c-.5 0-.9.3-1.2.6c.03 0 0 3.1 0 3.1h-.8V2.8h.8s.03.57 0 .6c.3-.4.9-.7 1.6-.7c.9 0 1.4.4 1.4 1.4c-.03-.04 0 3 0 3h-.8s-.04-2.77 0-2.8zm2.1 1.6c.3.4.8.7 1.4.7c.6 0 1-.3 1-.7c0-.4-.5-.5-1.1-.7c-.7-.1-1.6-.3-1.6-1.3c0-.7.6-1.2 1.7-1.2c.7 0 1.2.2 1.6.6l-.3.5c-.3-.3-.8-.5-1.3-.5c-.6 0-.9.2-.9.6c0 .4.4.5 1 .6c.7.2 1.6.4 1.6 1.4c0 .7-.6 1.3-1.7 1.3c-.7 0-1.4-.2-1.8-.7l.4-.6z" stroke="none" fill="#000"/></g></svg>