<?xml version="1.0" standalone="no"?>
<!DOCTYPE svg PUBLIC "-//W3C//DTD SVG 1.1//EN" "http://www.w3.org/Graphics/SVG/1.1/DTD/svg11.dtd">
<svg xmlns="http://www.w3.org/2000/svg" version="1.1" width="48px" height="36.9px" viewBox="0 -6 48 36.9" style="top:-6px">
  <desc>Agent 1</desc>
  <defs/>
  <g id="Polygon205735">
    <path d="M 2.7 22.8 L 1.6 22.8 L 1.6 25.1 L 0.7 25.1 L 0.7 19.1 C 0.7 19.1 3.2 19.08 3.2 19.1 C 4.3 19.1 5.1 19.8 5.1 20.9 C 5.1 22 4.4 22.6 3.6 22.7 C 3.63 22.68 5.2 25.1 5.2 25.1 L 4.1 25.1 L 2.7 22.8 Z M 3.1 19.9 C 3.08 19.87 1.6 19.9 1.6 19.9 L 1.6 22 C 1.6 22 3.08 21.98 3.1 22 C 3.7 22 4.2 21.6 4.2 20.9 C 4.2 20.3 3.7 19.9 3.1 19.9 Z M 7.8 20.6 C 9.1 20.6 9.9 21.6 9.9 23 C 9.87 22.98 9.9 23.2 9.9 23.2 C 9.9 23.2 6.43 23.18 6.4 23.2 C 6.5 23.9 7 24.5 7.9 24.5 C 8.4 24.5 8.9 24.3 9.2 24 C 9.2 24 9.6 24.5 9.6 24.5 C 9.1 25 8.5 25.2 7.8 25.2 C 6.5 25.2 5.6 24.3 5.6 22.9 C 5.6 21.6 6.5 20.6 7.8 20.6 Z M 6.4 22.6 C 6.4 22.6 9.1 22.6 9.1 22.6 C 9.1 22 8.7 21.3 7.8 21.3 C 6.9 21.3 6.5 22 6.4 22.6 Z M 13.7 22.3 C 13.7 21.6 13.4 21.4 12.8 21.4 C 12.3 21.4 11.8 21.7 11.6 22 C 11.61 21.98 11.6 25.1 11.6 25.1 L 10.8 25.1 L 10.8 20.7 L 11.6 20.7 C 11.6 20.7 11.61 21.35 11.6 21.4 C 11.9 21 12.5 20.6 13.1 20.6 C 14.1 20.6 14.5 21.1 14.5 22 C 14.54 22.03 14.5 25.1 14.5 25.1 L 13.7 25.1 C 13.7 25.1 13.73 22.3 13.7 22.3 Z M 15.9 24.1 C 15.9 24.12 15.9 21.4 15.9 21.4 L 15.2 21.4 L 15.2 20.7 L 15.9 20.7 L 15.9 19.6 L 16.7 19.6 L 16.7 20.7 L 17.6 20.7 L 17.6 21.4 L 16.7 21.4 C 16.7 21.4 16.71 23.94 16.7 23.9 C 16.7 24.2 16.9 24.5 17.1 24.5 C 17.3 24.5 17.5 24.4 17.6 24.3 C 17.6 24.3 17.8 24.9 17.8 24.9 C 17.6 25.1 17.4 25.2 16.9 25.2 C 16.3 25.2 15.9 24.8 15.9 24.1 Z M 22.1 18.9 L 22.7 18.9 L 20.6 25.3 L 20 25.3 L 22.1 18.9 Z M 25.7 23.5 C 26.1 24 26.7 24.4 27.6 24.4 C 28.6 24.4 28.9 23.9 28.9 23.5 C 28.9 22.8 28.2 22.7 27.4 22.5 C 26.5 22.2 25.4 21.9 25.4 20.7 C 25.4 19.7 26.2 19 27.5 19 C 28.4 19 29.2 19.3 29.7 19.8 C 29.7 19.8 29.2 20.5 29.2 20.5 C 28.7 20 28.1 19.8 27.4 19.8 C 26.8 19.8 26.3 20.1 26.3 20.6 C 26.3 21.2 26.9 21.4 27.7 21.5 C 28.7 21.8 29.8 22.1 29.8 23.4 C 29.8 24.3 29.2 25.2 27.5 25.2 C 26.5 25.2 25.7 24.8 25.2 24.2 C 25.2 24.2 25.7 23.5 25.7 23.5 Z M 30.8 19.1 L 34.8 19.1 L 34.8 19.9 L 31.7 19.9 L 31.7 21.6 L 34.7 21.6 L 34.7 22.4 L 31.7 22.4 L 31.7 25.1 L 30.8 25.1 L 30.8 19.1 Z " stroke="none" fill="#3797ef"/>
  </g>
  <g id="Polygon205734">
    <path d="M 6.1 9.3 C 6.1 9.3 6.1 10.9 6.1 10.9 C 6.1 12.3 5.4 13 4.2 13.1 C 4.19 13.15 4.2 14.3 4.2 14.3 L 2.5 14.3 C 2.5 14.3 2.54 13.17 2.5 13.2 C 1.3 13 0.6 12.3 0.6 10.9 C 0.58 10.88 0.6 8.9 0.6 8.9 L 2.4 8.9 C 2.4 8.9 2.4 10.62 2.4 10.6 C 2.4 11.3 2.8 11.6 3.4 11.6 C 3.9 11.6 4.3 11.3 4.3 10.6 C 4.3 10.6 4.3 9.7 4.3 9.7 C 4.3 9.2 4.1 8.9 3.6 8.6 C 3.6 8.6 2.3 7.8 2.3 7.8 C 1.2 7.2 0.6 6.7 0.6 5.5 C 0.6 5.5 0.6 4.1 0.6 4.1 C 0.6 2.7 1.4 2 2.5 1.8 C 2.54 1.82 2.5 0.6 2.5 0.6 L 4.2 0.6 C 4.2 0.6 4.19 1.82 4.2 1.8 C 5.3 2 6.1 2.7 6.1 4.1 C 6.11 4.06 6.1 5.9 6.1 5.9 L 4.3 5.9 C 4.3 5.9 4.29 4.32 4.3 4.3 C 4.3 3.6 3.9 3.4 3.3 3.4 C 2.8 3.4 2.4 3.6 2.4 4.3 C 2.4 4.3 2.4 5.1 2.4 5.1 C 2.4 5.7 2.6 5.9 3.1 6.2 C 3.1 6.2 4.4 7 4.4 7 C 5.5 7.6 6.1 8.1 6.1 9.3 Z M 12.8 4.1 C 12.8 4.1 12.8 10.8 12.8 10.8 C 12.8 12.5 11.8 13.2 10.1 13.2 C 10.1 13.2 10 13.2 10 13.2 C 8.3 13.2 7.3 12.5 7.3 10.8 C 7.3 10.8 7.3 4.1 7.3 4.1 C 7.3 2.4 8.3 1.8 10 1.8 C 10 1.8 10.1 1.8 10.1 1.8 C 11.8 1.8 12.8 2.4 12.8 4.1 Z M 10 3.4 C 9.4 3.4 9.1 3.6 9.1 4.4 C 9.1 4.4 9.1 10.6 9.1 10.6 C 9.1 11.4 9.4 11.6 10 11.6 C 10.6 11.6 11 11.4 11 10.6 C 11 10.6 11 4.4 11 4.4 C 11 3.6 10.6 3.4 10 3.4 Z M 19.6 4.1 C 19.6 4.1 19.6 10.8 19.6 10.8 C 19.6 12.5 18.6 13.2 16.9 13.2 C 16.9 13.2 16.8 13.2 16.8 13.2 C 15.1 13.2 14.1 12.5 14.1 10.8 C 14.1 10.8 14.1 4.1 14.1 4.1 C 14.1 2.4 15.1 1.8 16.8 1.8 C 16.8 1.8 16.9 1.8 16.9 1.8 C 18.6 1.8 19.6 2.4 19.6 4.1 Z M 16.8 3.4 C 16.2 3.4 15.9 3.6 15.9 4.4 C 15.9 4.4 15.9 10.6 15.9 10.6 C 15.9 11.4 16.2 11.6 16.8 11.6 C 17.4 11.6 17.8 11.4 17.8 10.6 C 17.8 10.6 17.8 4.4 17.8 4.4 C 17.8 3.6 17.4 3.4 16.8 3.4 Z M 26.4 4.1 C 26.4 4.1 26.4 10.8 26.4 10.8 C 26.4 12.5 25.4 13.2 23.7 13.2 C 23.7 13.2 23.6 13.2 23.6 13.2 C 21.9 13.2 20.9 12.5 20.9 10.8 C 20.9 10.8 20.9 4.1 20.9 4.1 C 20.9 2.4 21.9 1.8 23.6 1.8 C 23.6 1.8 23.7 1.8 23.7 1.8 C 25.4 1.8 26.4 2.4 26.4 4.1 Z M 23.6 3.4 C 23.1 3.4 22.7 3.6 22.7 4.4 C 22.7 4.4 22.7 10.6 22.7 10.6 C 22.7 11.4 23.1 11.6 23.6 11.6 C 24.2 11.6 24.6 11.4 24.6 10.6 C 24.6 10.6 24.6 4.4 24.6 4.4 C 24.6 3.6 24.2 3.4 23.6 3.4 Z " stroke="none" fill="#282828"/>
  </g>
</svg>