<?xml version="1.0" standalone="no"?>
<!DOCTYPE svg PUBLIC "-//W3C//DTD SVG 1.1//EN" "http://www.w3.org/Graphics/SVG/1.1/DTD/svg11.dtd">
<svg xmlns="http://www.w3.org/2000/svg" version="1.1" width="58.2px" height="16.9px" viewBox="0 -4 58.2 16.9" style="top:-4px">
  <desc>Agent 1</desc>
  <defs/>
  <g id="Polygon268243">
    <path d="M 1.6 2.5 L 1.6 7.1 L 0.7 7.1 L 0.7 1.1 L 1.6 1.1 L 4.9 5.6 L 4.9 1.1 L 5.8 1.1 L 5.8 7.1 L 4.9 7.1 L 1.6 2.5 Z M 9.8 1 C 11.6 1 12.8 2.3 12.8 4.1 C 12.8 5.9 11.6 7.2 9.8 7.2 C 8 7.2 6.8 5.9 6.8 4.1 C 6.8 2.3 8 1 9.8 1 Z M 9.8 1.8 C 8.5 1.8 7.7 2.8 7.7 4.1 C 7.7 5.4 8.5 6.4 9.8 6.4 C 11 6.4 11.9 5.4 11.9 4.1 C 11.9 2.8 11 1.8 9.8 1.8 Z M 13.8 1.1 L 14.7 1.1 L 14.7 7.1 L 13.8 7.1 L 13.8 1.1 Z " stroke="none" fill="#3797ef"/>
  </g>
</svg>