<?xml version="1.0" standalone="no"?><!DOCTYPE svg PUBLIC "-//W3C//DTD SVG 1.1//EN" "http://www.w3.org/Graphics/SVG/1.1/DTD/svg11.dtd"><svg xmlns="http://www.w3.org/2000/svg" version="1.1" width="388.4px" height="67.5px" viewBox="0 -6 388.4 67.5" style="top:-6px"><desc>SUBJECT PROPERTY RENT SCHEDULE</desc><defs/><g id="Polygon299969"><path d="m8.8 46.4l-2.5-7.8H4.7v7.8H1.4V26.7s5.12-.04 5.1 0c3 0 5 1.2 5 4.1v3.6c0 1.9-.8 3.1-2.2 3.6c.05.04 2.9 8.4 2.9 8.4H8.8zM4.7 35.7s1.71.03 1.7 0c1.1 0 1.8-.4 1.8-1.8v-2.5c0-1.5-.7-1.9-1.8-1.9c.01.04-1.7 0-1.7 0v6.2zm9.2 10.7V26.7h8.6v2.8h-5.4v5.5h4.6v2.8h-4.6v5.7h5.5v2.9h-8.7zm10.7 0V26.7h3.3l4.2 12.2V26.7h3v19.7H32l-4.4-12.8v12.8h-3zm21.8-16.9h-3.3v16.9h-3.3V29.5h-3.3v-2.8h9.9v2.8zm11.5 4.2s-.02-2.74 0-2.7c0-1.3-.7-1.7-1.7-1.7c-.9 0-1.7.4-1.7 1.7v1.3c0 1 .4 1.5 1.3 2l2.3 1.3c1.9 1.1 3.1 2 3.1 4.1v2.8c0 3.1-1.9 4.2-4.9 4.2h-.1c-3 0-4.9-1.1-4.9-4.2c.03.03 0-3.4 0-3.4h3.2s.05 2.98 0 3c0 1.2.8 1.7 1.7 1.7c1 0 1.7-.5 1.7-1.7v-1.6c0-1-.3-1.5-1.3-2l-2.2-1.3c-2-1.1-3.1-2-3.1-4.1v-2.6c0-2.9 2.2-4.1 4.9-4.1c2.8 0 4.9 1.2 4.9 4.1v3.2h-3.2zm15.2 8.8c0 3-1.9 4.2-4.9 4.2h-.1c-3 0-5-1.1-5-4.2V30.6c0-2.9 2-4.2 5-4.2h.1c3 0 4.9 1.3 4.9 4.2c.03.02 0 3.6 0 3.6h-3.2s-.05-3.07 0-3.1c0-1.4-.7-1.8-1.8-1.8c-1 0-1.7.4-1.7 1.8V42c0 1.4.7 1.8 1.7 1.8c1.1 0 1.8-.4 1.8-1.8c-.05-.03 0-3.6 0-3.6h3.2s.03 4.08 0 4.1zm5.6-15.8v8.2h3.8v-8.2h3.2v19.7h-3.2v-8.6h-3.8v8.6h-3.3V26.7h3.3zm9.6 19.7V26.7h8.7v2.8h-5.4v5.5h4.5v2.8h-4.5v5.7h5.4v2.9h-8.7zm20.8-15.6v11.5c0 2.9-2 4.1-5 4.1c.03.03-5 0-5 0V26.7s5.03-.04 5 0c3 0 5 1.2 5 4.1zm-5.1-1.3c.02.04-1.6 0-1.6 0v14s1.62.05 1.6 0c1.1 0 1.8-.3 1.8-1.8V31.4c0-1.5-.7-1.9-1.8-1.9zm17.4 13c0 3-1.9 4.2-4.9 4.2h-.1c-3 0-4.9-1.1-4.9-4.2c-.03-.02 0-15.8 0-15.8h3.2s.05 15.27 0 15.3c0 1.4.7 1.8 1.7 1.8c1.1 0 1.7-.4 1.7-1.8c.03-.03 0-15.3 0-15.3h3.3v15.8zm10.8 3.9h-8.3V26.7h3.3v16.8h5v2.9zm1.5 0V26.7h8.7v2.8H137v5.5h4.5v2.8H137v5.7h5.4v2.9h-8.7z" stroke="none" fill="#282828"/></g><g id="Polygon299968"><path d="m1.4 9.8c.7.8 1.9 1.5 3.4 1.5c1.7 0 2.3-.8 2.3-1.6c0-1.1-1.2-1.4-2.6-1.8C2.8 7.5.9 7 .9 4.8c0-1.7 1.5-3 3.7-3c1.6 0 2.9.5 3.9 1.5l-1 1.1c-.8-.8-1.9-1.2-3-1.2c-1.2 0-2 .6-2 1.5c0 1 1.1 1.3 2.5 1.6c1.7.4 3.7 1 3.7 3.2c0 1.7-1.1 3.2-4 3.2c-1.9 0-3.3-.6-4.2-1.6l.9-1.3zm9-7.8h1.6v6.4c0 1.8 1 2.9 2.8 2.9c1.9 0 2.9-1.1 2.9-2.9V2h1.6v6.4c0 2.6-1.5 4.3-4.5 4.3c-2.9 0-4.4-1.7-4.4-4.3V2zm11.1 0s4.98-.05 5 0c1.9 0 3 1.1 3 2.7c0 1.3-.9 2.2-1.9 2.4c1.1.2 2.1 1.3 2.1 2.6c0 1.7-1.1 2.8-3.1 2.8c0 .05-5.1 0-5.1 0V2zm4.7 4.4c1 0 1.6-.6 1.6-1.5c0-.9-.6-1.5-1.6-1.5c-.03-.05-3.1 0-3.1 0v3s3.07.05 3.1 0zm.1 4.8c1.1 0 1.7-.7 1.7-1.7c0-.9-.6-1.7-1.7-1.7c-.05.04-3.2 0-3.2 0v3.4s3.15-.05 3.2 0zm4.9-.8c.5.5 1.1.9 1.9.9c1.3 0 2-.8 2-2c.02-.04 0-7.3 0-7.3h1.6v7.3c0 2.3-1.5 3.4-3.5 3.4c-1.1 0-2-.3-2.7-1.1l.7-1.2zM38.9 2h7.1v1.4h-5.5v3h5.4v1.4h-5.4v3.4h5.5v1.3h-7.1V2zm8.5 5.3c0-3.3 2.4-5.5 5.4-5.5c2.1 0 3.4 1 4.2 2.2l-1.3.7c-.6-.9-1.6-1.5-2.9-1.5c-2.1 0-3.8 1.7-3.8 4.1c0 2.3 1.7 4 3.8 4c1.3 0 2.3-.6 2.9-1.5l1.3.7c-.8 1.2-2.1 2.2-4.2 2.2c-3 0-5.4-2.2-5.4-5.4zm13.7-3.9h-3.3V2h8.1v1.4h-3.2v9.1h-1.6V3.4zM71.4 2s4.42-.05 4.4 0c2.2 0 3.4 1.4 3.4 3.2c0 1.8-1.2 3.3-3.4 3.3c.02-.04-2.9 0-2.9 0v4h-1.5V2zm4.2 1.4c.02-.05-2.7 0-2.7 0v3.7s2.72-.03 2.7 0c1.2 0 2-.8 2-1.9c0-1.1-.8-1.8-2-1.8zm8.7 5.1h-2v4h-1.6V2s4.44-.05 4.4 0c2.1 0 3.4 1.3 3.4 3.2c0 1.9-1.2 2.9-2.6 3.1l2.7 4.2h-1.8l-2.5-4zm.6-5.1c.04-.05-2.6 0-2.6 0v3.7s2.64-.03 2.6 0c1.2 0 2-.8 2-1.9c0-1.1-.8-1.8-2-1.8zm10.3-1.6c3.2 0 5.4 2.3 5.4 5.5c0 3.1-2.2 5.4-5.4 5.4c-3.1 0-5.3-2.3-5.3-5.4c0-3.2 2.2-5.5 5.3-5.5zm0 1.4c-2.2 0-3.7 1.7-3.7 4.1c0 2.3 1.5 4 3.7 4c2.3 0 3.7-1.7 3.7-4c0-2.4-1.4-4.1-3.7-4.1zm7.1-1.2s4.49-.05 4.5 0c2.2 0 3.4 1.4 3.4 3.2c0 1.8-1.2 3.3-3.4 3.3c-.01-.04-2.9 0-2.9 0v4h-1.6V2zm4.3 1.4c-.01-.05-2.7 0-2.7 0v3.7s2.69-.03 2.7 0c1.1 0 1.9-.8 1.9-1.9c0-1.1-.8-1.8-1.9-1.8zm5.1-1.4h7.1v1.4h-5.6v3h5.5v1.4h-5.5v3.4h5.6v1.3h-7.1V2zm12.5 6.5h-2v4h-1.6V2s4.46-.05 4.5 0c2 0 3.4 1.3 3.4 3.2c0 1.9-1.3 2.9-2.7 3.1c.02.01 2.7 4.2 2.7 4.2h-1.8l-2.5-4zm.6-5.1c.05-.05-2.6 0-2.6 0v3.7s2.65-.03 2.6 0c1.2 0 2-.8 2-1.9c0-1.1-.8-1.8-2-1.8zm7.9 0h-3.3V2h8.1v1.4h-3.2v9.1h-1.6V3.4zm9.4 4.7L137.9 2h1.9l3.1 4.7L146 2h1.8l-4.1 6.1v4.4h-1.6V8.1z" stroke="none" fill="#3797ef"/></g></svg>