<?xml version="1.0" standalone="no"?><!DOCTYPE svg PUBLIC "-//W3C//DTD SVG 1.1//EN" "http://www.w3.org/Graphics/SVG/1.1/DTD/svg11.dtd"><svg xmlns="http://www.w3.org/2000/svg" version="1.1" width="104px" height="28.4px" viewBox="0 -6 104 28.4" style="top:-6px"><desc>Agent 1</desc><defs/><g id="Polygon88481"><path d="m5.4 12.8c.04 0 0 1.4 0 1.4H4.3v-1.4c-1.6-.1-2.9-.8-3.7-1.7l.9-1.2c.7.7 1.6 1.3 2.8 1.5V7.9C2.7 7.5 1 6.9 1 4.8c0-1.6 1.3-2.8 3.3-3V.4h1.1s.04 1.44 0 1.4c1.4.2 2.4.7 3.2 1.5l-.9 1.2c-.6-.7-1.4-1-2.3-1.2v3.1c1.7.5 3.5 1.1 3.5 3.2c0 1.6-1 3-3.5 3.2zM4.3 6.1V3.2c-1 .1-1.7.7-1.7 1.5c0 .8.7 1.2 1.7 1.4zm2.9 3.7c0-1-.8-1.3-1.8-1.6v3.2c1.4-.2 1.8-1 1.8-1.6zm4.1.3c.7.8 1.7 1.3 3 1.3c1.3 0 2.3-.9 2.3-2.1c0-1.3-.9-2.1-2.3-2.1c-.9 0-1.7.3-2.4 1l-1.2-.4V2h6.8v1.4h-5.2s.04 3.38 0 3.4c.5-.5 1.4-1 2.5-1c1.8 0 3.4 1.3 3.4 3.5c0 2.2-1.7 3.5-3.9 3.5c-1.9 0-3.1-.6-3.9-1.6l.9-1.1zm8.4 4.1c.5-.4 1-1 1.1-1.5h-.3c-.5 0-.8-.4-.8-.9c0-.6.4-1 1-1c.5 0 1.1.5 1.1 1.3c0 1.1-.6 2-1.4 2.6l-.7-.5zm3.6-2.8c4-3.1 5.8-4.7 5.8-6.4c0-1.2-1-1.8-2.1-1.8c-1.2 0-2.2.6-2.9 1.3l-.9-1c.9-1.1 2.3-1.7 3.8-1.7c1.9 0 3.7 1.1 3.7 3.2c0 2.1-2 4-4.9 6.2c.01.03 5 0 5 0v1.4h-7.5s-.04-1.22 0-1.2zM37 1.8c1.3 0 2.3.5 3 1.2l-.8 1.3c-.5-.7-1.2-1.1-2.2-1.1c-1.9 0-2.9 1.9-2.9 3.9v.3c.5-.7 1.6-1.5 2.9-1.5c1.9 0 3.6 1.1 3.6 3.4c0 1.9-1.5 3.5-3.9 3.5c-3 0-4.2-2.5-4.2-5.5c0-3 1.4-5.5 4.5-5.5zm-.4 5.4c-1 0-1.9.6-2.5 1.5c.1 1.2.8 2.7 2.5 2.7c1.6 0 2.3-1.1 2.3-2.1c0-1.4-1-2.1-2.3-2.1zm6.5 3.2c.6.6 1.2 1 2.3 1c2 0 2.9-2 2.9-3.8v-.4c-.5.7-1.7 1.6-3 1.6c-1.9 0-3.5-1.2-3.5-3.5c0-1.9 1.5-3.5 3.8-3.5c3.1 0 4.3 2.6 4.3 5.5c0 3-1.5 5.5-4.5 5.5c-1.4 0-2.3-.5-3-1.2l.7-1.2zm2.6-7.2c-1.5 0-2.3 1.1-2.3 2.1c0 1.4 1.1 2.1 2.3 2.1c1 0 2-.6 2.5-1.4c-.1-1.3-.7-2.8-2.5-2.8zm5.2 11c.6-.4 1.1-1 1.1-1.5h-.2c-.5 0-.9-.4-.9-.9c0-.6.5-1 1-1c.6 0 1.1.5 1.1 1.3c0 1.1-.6 2-1.4 2.6l-.7-.5zm7.7-12.4c3 0 4.2 2.9 4.2 5.5c0 2.7-1.2 5.5-4.2 5.5c-3 0-4.2-2.8-4.2-5.5c0-2.6 1.2-5.5 4.2-5.5zm0 1.4c-1.9 0-2.6 2-2.6 4.1c0 2.1.7 4.1 2.6 4.1c1.9 0 2.5-2 2.5-4.1c0-2.1-.6-4.1-2.5-4.1zm6.8 7.2c.5.6 1.2 1 2.2 1c2.1 0 2.9-2 2.9-3.8v-.4c-.5.7-1.6 1.6-2.9 1.6c-1.9 0-3.6-1.2-3.6-3.5c0-1.9 1.5-3.5 3.9-3.5c3 0 4.2 2.6 4.2 5.5c0 3-1.4 5.5-4.5 5.5c-1.3 0-2.3-.5-3-1.2l.8-1.2zM68 3.2c-1.6 0-2.3 1.1-2.3 2.1c0 1.4 1 2.1 2.3 2.1c1 0 1.9-.6 2.5-1.4c-.1-1.3-.8-2.8-2.5-2.8zm7.7.9L74 5.9l-1-1L75.9 2h1.4v10.6h-1.6V4.1z" stroke="none" fill="#282828"/></g></svg>