<?xml version="1.0" standalone="no"?><!DOCTYPE svg PUBLIC "-//W3C//DTD SVG 1.1//EN" "http://www.w3.org/Graphics/SVG/1.1/DTD/svg11.dtd"><svg xmlns="http://www.w3.org/2000/svg" version="1.1" width="375px" height="46.5px" viewBox="0 -10 375 46.5" style="top:-10px"><desc>POINTS OF INTEREST</desc><defs/><g id="Polygon295039"><path d="m108.7 6.4v3.8c0 3-2 4.2-5 4.2c.01-.03-1.8 0-1.8 0v7.6h-3.3V2.3s5.11-.04 5.1 0c3 0 5 1.1 5 4.1zm-3.3.5c0-1.4-.7-1.8-1.8-1.8c0 .04-1.7 0-1.7 0v6.4s1.7-.01 1.7 0c1.1 0 1.8-.4 1.8-1.8V6.9zm9.9-4.9h.3c3 0 4.9 1.2 4.9 4.2v11.9c0 3-1.9 4.1-4.9 4.1h-.3c-2.9 0-4.9-1.1-4.9-4.1V6.2c0-3 2-4.2 4.9-4.2zm.2 17.4c1 0 1.8-.4 1.8-1.8V6.7c0-1.4-.8-1.8-1.8-1.8c-1.1 0-1.8.4-1.8 1.8v10.9c0 1.4.7 1.8 1.8 1.8zm7.6 2.6V2.3h3.3V22h-3.3zm5.9 0V2.3h3.3l4.1 12.2V2.3h3V22h-3.1L132 9.2V22h-3zm21.7-16.9h-3.3V22h-3.3V5.1h-3.3V2.3h9.9v2.8zm7.5 4.2s-.02-2.75 0-2.7c0-1.3-.7-1.7-1.7-1.7c-.9 0-1.7.4-1.7 1.7v1.3c0 1 .4 1.5 1.3 2l2.3 1.3c1.9 1.1 3.1 2 3.1 4.1v2.8c0 3.1-1.9 4.1-4.9 4.1h-.1c-3 0-4.9-1-4.9-4.1c.03.03 0-3.4 0-3.4h3.2s.05 2.98 0 3c0 1.2.8 1.7 1.7 1.7c1 0 1.7-.5 1.7-1.7v-1.6c0-1-.3-1.5-1.3-2l-2.3-1.3c-1.9-1.1-3-2-3-4.1V6.1c0-2.9 2.2-4.1 4.9-4.1c2.8 0 4.9 1.2 4.9 4.1v3.2h-3.2zM172.6 2h.3c3 0 4.9 1.2 4.9 4.2v11.9c0 3-1.9 4.1-4.9 4.1h-.3c-3 0-4.9-1.1-4.9-4.1V6.2c0-3 1.9-4.2 4.9-4.2zm.1 17.4c1.1 0 1.9-.4 1.9-1.8V6.7c0-1.4-.8-1.8-1.9-1.8c-1 0-1.8.4-1.8 1.8v10.9c0 1.4.8 1.8 1.8 1.8zm7.6-17.1h8.5v2.8h-5.3v5.6h4.4v2.9h-4.4v8.4h-3.2V2.3zM194.7 22V2.3h3.3V22h-3.3zm6 0V2.3h3.2l4.2 12.2V2.3h3V22H208l-4.3-12.8V22h-3zm21.7-16.9h-3.3V22h-3.3V5.1h-3.3V2.3h9.9v2.8zm1.4 16.9V2.3h8.7v2.8h-5.4v5.5h4.5v2.8h-4.5v5.7h5.4v2.9h-8.7zm18.2 0l-2.5-7.9h-1.6v7.9h-3.3V2.3s5.09-.04 5.1 0c3 0 5 1.1 5 4.1v3.6c0 1.9-.8 3-2.2 3.6l2.8 8.4H242zm-4.1-10.7s1.68.02 1.7 0c1.1 0 1.8-.4 1.8-1.8V6.9c0-1.4-.7-1.8-1.8-1.8c-.02.04-1.7 0-1.7 0v6.2zM247 22V2.3h8.7v2.8h-5.4v5.5h4.5v2.8h-4.5v5.7h5.5v2.9H247zm16.8-12.7V6.6c0-1.3-.7-1.7-1.7-1.7c-.9 0-1.6.4-1.6 1.7v1.3c0 1 .3 1.5 1.2 2l2.4 1.3c1.9 1.1 3 2 3 4.1v2.8c0 3.1-1.9 4.1-4.9 4.1h-.1c-3 0-4.8-1-4.8-4.1c-.05.03 0-3.4 0-3.4h3.2s-.03 2.98 0 3c0 1.2.7 1.7 1.7 1.7c1 0 1.7-.5 1.7-1.7v-1.6c0-1-.3-1.5-1.3-2l-2.3-1.3c-1.9-1.1-3-2-3-4.1V6.1c0-2.9 2.1-4.1 4.8-4.1h.1c2.7 0 4.8 1.2 4.8 4.1c.02 0 0 3.2 0 3.2h-3.2zm14-4.2h-3.3V22h-3.3V5.1h-3.3V2.3h9.9v2.8z" stroke="none" fill="#282828"/></g></svg>