<?xml version="1.0" standalone="no"?>
<!DOCTYPE svg PUBLIC "-//W3C//DTD SVG 1.1//EN" "http://www.w3.org/Graphics/SVG/1.1/DTD/svg11.dtd">
<svg xmlns="http://www.w3.org/2000/svg" version="1.1" width="155px" height="27.9px" viewBox="0 -6 155 27.9" style="top:-6px">
  <desc>PAGE</desc>
  <defs/>
  <g id="Polygon204051">
    <path d="M 1.2 2 C 1.2 2 5.64 1.95 5.6 2 C 7.8 2 9 3.4 9 5.2 C 9 7 7.8 8.5 5.6 8.5 C 5.64 8.46 2.8 8.5 2.8 8.5 L 2.8 12.5 L 1.2 12.5 L 1.2 2 Z M 5.4 3.4 C 5.43 3.35 2.8 3.4 2.8 3.4 L 2.8 7.1 C 2.8 7.1 5.43 7.07 5.4 7.1 C 6.6 7.1 7.4 6.3 7.4 5.2 C 7.4 4.1 6.6 3.4 5.4 3.4 Z M 16 10.4 L 10.8 10.4 L 9.9 12.5 L 8.2 12.5 L 12.4 2 L 14.4 2 L 18.6 12.5 L 16.9 12.5 L 16 10.4 Z M 11.3 8.9 L 15.5 8.9 L 13.4 3.3 L 11.3 8.9 Z M 24.2 1.8 C 26.2 1.8 27.5 2.7 28.4 3.9 C 28.4 3.9 27.1 4.6 27.1 4.6 C 26.5 3.8 25.4 3.2 24.2 3.2 C 22 3.2 20.3 4.9 20.3 7.3 C 20.3 9.6 22 11.3 24.2 11.3 C 25.4 11.3 26.4 10.8 26.9 10.3 C 26.87 10.29 26.9 8.4 26.9 8.4 L 23.5 8.4 L 23.5 7 L 28.5 7 C 28.5 7 28.46 10.88 28.5 10.9 C 27.4 12 26 12.8 24.2 12.8 C 21.2 12.8 18.7 10.6 18.7 7.3 C 18.7 4 21.2 1.8 24.2 1.8 Z M 30.3 2 L 37.4 2 L 37.4 3.4 L 31.9 3.4 L 31.9 6.4 L 37.3 6.4 L 37.3 7.8 L 31.9 7.8 L 31.9 11.2 L 37.4 11.2 L 37.4 12.5 L 30.3 12.5 L 30.3 2 Z " stroke="none" fill="#3797ef"/>
  </g>
</svg>