<?xml version="1.0" standalone="no"?>
<!DOCTYPE svg PUBLIC "-//W3C//DTD SVG 1.1//EN" "http://www.w3.org/Graphics/SVG/1.1/DTD/svg11.dtd">
<svg xmlns="http://www.w3.org/2000/svg" version="1.1" width="89.3px" height="16.9px" viewBox="0 -4 89.3 16.9" style="top:-4px">
  <desc>Real Estate Taxes</desc>
  <defs/>
  <g id="Polygon273969">
    <path d="M 2.7 4.8 L 1.6 4.8 L 1.6 7.1 L 0.7 7.1 L 0.7 1.1 C 0.7 1.1 3.2 1.11 3.2 1.1 C 4.3 1.1 5.1 1.8 5.1 3 C 5.1 4 4.4 4.6 3.6 4.7 C 3.63 4.71 5.2 7.1 5.2 7.1 L 4.1 7.1 L 2.7 4.8 Z M 3.1 1.9 C 3.08 1.9 1.6 1.9 1.6 1.9 L 1.6 4 C 1.6 4 3.08 4.01 3.1 4 C 3.7 4 4.2 3.6 4.2 3 C 4.2 2.3 3.7 1.9 3.1 1.9 Z M 7.8 2.7 C 9.2 2.7 10 3.7 10 5 C 9.96 5 10 5.2 10 5.2 C 10 5.2 6.52 5.2 6.5 5.2 C 6.6 5.9 7.1 6.6 8 6.6 C 8.5 6.6 9 6.4 9.3 6 C 9.3 6 9.7 6.6 9.7 6.6 C 9.2 7 8.6 7.2 7.9 7.2 C 6.6 7.2 5.7 6.3 5.7 4.9 C 5.7 3.7 6.6 2.7 7.8 2.7 Z M 6.5 4.6 C 6.5 4.6 9.2 4.6 9.2 4.6 C 9.2 4 8.8 3.3 7.8 3.3 C 7 3.3 6.6 4 6.5 4.6 Z M 13.7 6.6 C 13.3 7 12.8 7.2 12.2 7.2 C 11.5 7.2 10.7 6.7 10.7 5.8 C 10.7 4.8 11.5 4.4 12.2 4.4 C 12.8 4.4 13.3 4.5 13.7 4.9 C 13.7 4.9 13.7 4.2 13.7 4.2 C 13.7 3.7 13.2 3.3 12.6 3.3 C 12.1 3.3 11.7 3.5 11.3 3.9 C 11.3 3.9 10.9 3.4 10.9 3.4 C 11.4 2.9 12 2.7 12.7 2.7 C 13.7 2.7 14.5 3.1 14.5 4.2 C 14.47 4.18 14.5 7.1 14.5 7.1 L 13.7 7.1 C 13.7 7.1 13.66 6.63 13.7 6.6 Z M 13.7 5.4 C 13.4 5.1 13 4.9 12.5 4.9 C 12 4.9 11.5 5.3 11.5 5.8 C 11.5 6.3 12 6.7 12.5 6.7 C 13 6.7 13.4 6.5 13.7 6.2 C 13.7 6.2 13.7 5.4 13.7 5.4 Z M 15.8 1.1 L 16.6 1.1 L 16.6 7.1 L 15.8 7.1 L 15.8 1.1 Z M 20.2 1.1 L 24.2 1.1 L 24.2 1.9 L 21.1 1.9 L 21.1 3.7 L 24.2 3.7 L 24.2 4.4 L 21.1 4.4 L 21.1 6.3 L 24.2 6.3 L 24.2 7.1 L 20.2 7.1 L 20.2 1.1 Z M 25.4 5.9 C 25.6 6.3 26.2 6.6 26.8 6.6 C 27.4 6.6 27.7 6.3 27.7 5.9 C 27.7 5.5 27.3 5.4 26.7 5.2 C 26 5.1 25.1 4.9 25.1 3.9 C 25.1 3.2 25.7 2.7 26.7 2.7 C 27.5 2.7 28 2.9 28.4 3.3 C 28.4 3.3 28 3.8 28 3.8 C 27.8 3.5 27.3 3.3 26.8 3.3 C 26.2 3.3 25.9 3.5 25.9 3.9 C 25.9 4.3 26.3 4.4 26.9 4.5 C 27.6 4.7 28.5 4.9 28.5 5.9 C 28.5 6.6 27.9 7.2 26.8 7.2 C 26 7.2 25.4 7 25 6.5 C 25 6.5 25.4 5.9 25.4 5.9 Z M 29.7 6.1 C 29.72 6.15 29.7 3.5 29.7 3.5 L 29 3.5 L 29 2.8 L 29.7 2.8 L 29.7 1.6 L 30.5 1.6 L 30.5 2.8 L 31.4 2.8 L 31.4 3.5 L 30.5 3.5 C 30.5 3.5 30.53 5.97 30.5 6 C 30.5 6.3 30.7 6.5 31 6.5 C 31.1 6.5 31.3 6.4 31.4 6.3 C 31.4 6.3 31.6 6.9 31.6 6.9 C 31.4 7.1 31.2 7.2 30.8 7.2 C 30.1 7.2 29.7 6.8 29.7 6.1 Z M 35 6.6 C 34.7 7 34.2 7.2 33.6 7.2 C 32.8 7.2 32.1 6.7 32.1 5.8 C 32.1 4.8 32.8 4.4 33.6 4.4 C 34.2 4.4 34.7 4.5 35 4.9 C 35 4.9 35 4.2 35 4.2 C 35 3.7 34.6 3.3 33.9 3.3 C 33.4 3.3 33 3.5 32.6 3.9 C 32.6 3.9 32.3 3.4 32.3 3.4 C 32.8 2.9 33.4 2.7 34.1 2.7 C 35 2.7 35.8 3.1 35.8 4.2 C 35.8 4.18 35.8 7.1 35.8 7.1 L 35 7.1 C 35 7.1 34.99 6.63 35 6.6 Z M 35 5.4 C 34.7 5.1 34.3 4.9 33.9 4.9 C 33.3 4.9 32.9 5.3 32.9 5.8 C 32.9 6.3 33.3 6.7 33.9 6.7 C 34.3 6.7 34.7 6.5 35 6.2 C 35 6.2 35 5.4 35 5.4 Z M 37.3 6.1 C 37.26 6.15 37.3 3.5 37.3 3.5 L 36.5 3.5 L 36.5 2.8 L 37.3 2.8 L 37.3 1.6 L 38.1 1.6 L 38.1 2.8 L 39 2.8 L 39 3.5 L 38.1 3.5 C 38.1 3.5 38.07 5.97 38.1 6 C 38.1 6.3 38.2 6.5 38.5 6.5 C 38.7 6.5 38.9 6.4 38.9 6.3 C 38.9 6.3 39.1 6.9 39.1 6.9 C 39 7.1 38.7 7.2 38.3 7.2 C 37.6 7.2 37.3 6.8 37.3 6.1 Z M 41.8 2.7 C 43.1 2.7 43.9 3.7 43.9 5 C 43.87 5 43.9 5.2 43.9 5.2 C 43.9 5.2 40.44 5.2 40.4 5.2 C 40.5 5.9 41 6.6 41.9 6.6 C 42.4 6.6 42.9 6.4 43.2 6 C 43.2 6 43.6 6.6 43.6 6.6 C 43.1 7 42.5 7.2 41.8 7.2 C 40.5 7.2 39.6 6.3 39.6 4.9 C 39.6 3.7 40.5 2.7 41.8 2.7 Z M 40.4 4.6 C 40.4 4.6 43.1 4.6 43.1 4.6 C 43.1 4 42.7 3.3 41.8 3.3 C 40.9 3.3 40.5 4 40.4 4.6 Z M 48.7 1.9 L 46.8 1.9 L 46.8 1.1 L 51.5 1.1 L 51.5 1.9 L 49.6 1.9 L 49.6 7.1 L 48.7 7.1 L 48.7 1.9 Z M 54.2 6.6 C 53.9 7 53.4 7.2 52.8 7.2 C 52.1 7.2 51.3 6.7 51.3 5.8 C 51.3 4.8 52.1 4.4 52.8 4.4 C 53.4 4.4 53.9 4.5 54.2 4.9 C 54.2 4.9 54.2 4.2 54.2 4.2 C 54.2 3.7 53.8 3.3 53.2 3.3 C 52.7 3.3 52.3 3.5 51.9 3.9 C 51.9 3.9 51.5 3.4 51.5 3.4 C 52 2.9 52.6 2.7 53.3 2.7 C 54.3 2.7 55.1 3.1 55.1 4.2 C 55.05 4.18 55.1 7.1 55.1 7.1 L 54.2 7.1 C 54.2 7.1 54.24 6.63 54.2 6.6 Z M 54.2 5.4 C 54 5.1 53.6 4.9 53.1 4.9 C 52.5 4.9 52.1 5.3 52.1 5.8 C 52.1 6.3 52.5 6.7 53.1 6.7 C 53.6 6.7 54 6.5 54.2 6.2 C 54.2 6.2 54.2 5.4 54.2 5.4 Z M 57.9 5.4 L 56.7 7.1 L 55.8 7.1 L 57.4 4.9 L 55.9 2.8 L 56.8 2.8 L 57.9 4.3 L 59 2.8 L 59.9 2.8 L 58.4 4.9 L 60 7.1 L 59.1 7.1 L 57.9 5.4 Z M 62.4 2.7 C 63.7 2.7 64.5 3.7 64.5 5 C 64.54 5 64.5 5.2 64.5 5.2 C 64.5 5.2 61.1 5.2 61.1 5.2 C 61.2 5.9 61.7 6.6 62.6 6.6 C 63 6.6 63.5 6.4 63.9 6 C 63.9 6 64.2 6.6 64.2 6.6 C 63.8 7 63.2 7.2 62.5 7.2 C 61.2 7.2 60.2 6.3 60.2 4.9 C 60.2 3.7 61.2 2.7 62.4 2.7 Z M 61.1 4.6 C 61.1 4.6 63.7 4.6 63.7 4.6 C 63.7 4 63.3 3.3 62.4 3.3 C 61.6 3.3 61.1 4 61.1 4.6 Z M 65.6 5.9 C 65.9 6.3 66.4 6.6 67 6.6 C 67.6 6.6 68 6.3 68 5.9 C 68 5.5 67.5 5.4 66.9 5.2 C 66.2 5.1 65.3 4.9 65.3 3.9 C 65.3 3.2 65.9 2.7 67 2.7 C 67.7 2.7 68.2 2.9 68.6 3.3 C 68.6 3.3 68.3 3.8 68.3 3.8 C 68 3.5 67.5 3.3 67 3.3 C 66.4 3.3 66.1 3.5 66.1 3.9 C 66.1 4.3 66.5 4.4 67.1 4.5 C 67.8 4.7 68.7 4.9 68.7 5.9 C 68.7 6.6 68.1 7.2 67 7.2 C 66.3 7.2 65.6 7 65.2 6.5 C 65.2 6.5 65.6 5.9 65.6 5.9 Z " stroke="none" fill="#000"/>
  </g>
</svg>