<?xml version="1.0" standalone="no"?><!DOCTYPE svg PUBLIC "-//W3C//DTD SVG 1.1//EN" "http://www.w3.org/Graphics/SVG/1.1/DTD/svg11.dtd"><svg xmlns="http://www.w3.org/2000/svg" version="1.1" width="172.4px" height="349.5px" viewBox="0 -4 172.4 349.5" style="top:-4px"><desc>Patriots Point Naval &amp; Maritime Museum 19 Min Drive 15 7 Miles from subject property South Carolina Aquarium 20 Min D</desc><defs/><g id="Polygon106380"><path d="m19.2 337.2l-.7.8l-.4-.4l1.2-1.2h.5v4.7h-.6v-3.9zm1.6 2.9c.3.3.8.6 1.4.6c.6 0 1-.4 1-.9c0-.6-.4-.8-1.1-.8h-.5v-.5h.5c.6 0 1.1-.3 1.1-.8c0-.5-.5-.8-1.1-.8c-.5 0-.9.2-1.2.6l-.3-.4c.3-.4.8-.7 1.6-.7c.9 0 1.5.4 1.5 1.2c0 .7-.5 1-1 1.1c.5 0 1.1.4 1.1 1.1c0 .8-.6 1.4-1.6 1.4c-.8 0-1.4-.4-1.7-.8l.3-.3zm4.1.3c.2 0 .4.2.4.4c0 .2-.2.4-.4.4c-.2 0-.3-.2-.3-.4c0-.2.1-.4.3-.4zm3-3.4h-2.5v-.6h3.2v.4l-1.9 4.3h-.6l1.8-4.1zm7.1.2l-1.6 3.9h-.2l-1.6-3.9v3.9h-.6v-4.7h.9l1.4 3.6l1.5-3.6h.8v4.7h-.6v-3.9zm1.6-.8h.6v4.7h-.6v-4.7zm1.6 0h.6v4.2h2.2v.5h-2.8v-4.7zm3.5 0h3.1v.6h-2.5v1.5h2.4v.5h-2.4v1.6h2.5v.5h-3.1v-4.7zm4 3.6c.3.4.8.7 1.5.7c.8 0 1.1-.5 1.1-.8c0-.6-.6-.7-1.2-.9c-.8-.2-1.6-.4-1.6-1.3c0-.8.7-1.3 1.6-1.3c.7 0 1.3.2 1.7.6l-.4.4c-.3-.3-.8-.5-1.3-.5c-.6 0-1 .3-1 .7c0 .5.5.6 1.1.8c.8.2 1.7.4 1.7 1.4c0 .7-.5 1.4-1.8 1.4c-.8 0-1.4-.3-1.7-.7l.3-.5zm5.7-3.6h3.1v.6H52v1.5h2.4v.5H52v2.1h-.6v-4.7zm5.3 2.9h-.9v1.8h-.6v-4.7s1.86.04 1.9 0c.8 0 1.4.6 1.4 1.4c0 .9-.6 1.3-1.2 1.4l1.3 1.9h-.7l-1.2-1.8zm.3-2.3c-.01-.04-1.2 0-1.2 0v1.7s1.19.04 1.2 0c.5 0 .9-.3.9-.9c0-.5-.4-.8-.9-.8zm4.5-.6c1.4 0 2.3 1 2.3 2.4c0 1.4-.9 2.4-2.3 2.4c-1.4 0-2.3-1-2.3-2.4c0-1.4.9-2.4 2.3-2.4zm0 .5c-1.1 0-1.7.8-1.7 1.9c0 1.1.6 1.9 1.7 1.9c1 0 1.7-.8 1.7-1.9c0-1.1-.7-1.9-1.7-1.9zm7.1.3l-1.5 3.9h-.3l-1.6-3.9v3.9h-.5v-4.7h.8l1.4 3.6l1.5-3.6h.8v4.7h-.6v-3.9zM72 340c.4.4.9.7 1.5.7c.8 0 1.1-.5 1.1-.8c0-.6-.6-.7-1.2-.9c-.7-.2-1.5-.4-1.5-1.3c0-.8.6-1.3 1.6-1.3c.7 0 1.2.2 1.6.6l-.3.4c-.4-.3-.9-.5-1.4-.5c-.5 0-.9.3-.9.7c0 .5.5.6 1.1.8c.7.2 1.6.4 1.6 1.4c0 .7-.4 1.4-1.7 1.4c-.8 0-1.4-.3-1.8-.7l.3-.5zm4-3.6h.6v2.9c0 .8.5 1.4 1.3 1.4c.9 0 1.3-.6 1.3-1.4c.04-.02 0-2.9 0-2.9h.6s.02 2.89 0 2.9c0 1.2-.6 1.9-1.9 1.9c-1.2 0-1.9-.8-1.9-1.9c.02 0 0-2.9 0-2.9zm4.8 0s2.12.04 2.1 0c.8 0 1.3.5 1.3 1.2c0 .6-.4 1-.8 1.1c.5.1.9.6.9 1.1c0 .8-.5 1.3-1.3 1.3c-.03.01-2.2 0-2.2 0v-4.7zm2 2.1c.6 0 .8-.4.8-.8c0-.4-.2-.7-.8-.7c.03-.04-1.4 0-1.4 0v1.5s1.43-.04 1.4 0zm.1 2.1c.5 0 .8-.3.8-.8c0-.4-.3-.8-.8-.8c-.05-.02-1.5 0-1.5 0v1.6h1.5zm2.1-.4c.2.3.5.5.9.5c.6 0 .9-.4.9-1c.03 0 0-3.3 0-3.3h.6s.01 3.3 0 3.3c0 1-.6 1.5-1.5 1.5c-.5 0-.9-.2-1.2-.5l.3-.5zm3.4-3.8h3.1v.6H89v1.5h2.4v.5H89v1.6h2.5v.5h-3.1v-4.7zm3.8 2.4c0-1.5 1-2.4 2.3-2.4c.9 0 1.5.4 1.8.9l-.5.3c-.2-.4-.7-.7-1.3-.7c-1 0-1.7.8-1.7 1.9c0 1.1.7 1.9 1.7 1.9c.6 0 1.1-.3 1.3-.7l.5.3c-.4.5-.9.9-1.8.9c-1.3 0-2.3-1-2.3-2.4zm6-1.8h-1.5v-.6h3.5v.6h-1.5v4.1h-.5V337zm4.5-.6s1.84.04 1.8 0c1 0 1.5.7 1.5 1.4c0 .8-.5 1.5-1.5 1.5c.04-.05-1.3 0-1.3 0v1.8h-.5v-4.7zm1.8.6c-.03-.04-1.3 0-1.3 0v1.7s1.27.04 1.3 0c.5 0 .9-.3.9-.9c0-.5-.4-.8-.9-.8zm3.7 2.3h-.9v1.8h-.6v-4.7s1.88.04 1.9 0c.8 0 1.4.6 1.4 1.4c0 .9-.5 1.3-1.2 1.4c.03.01 1.3 1.9 1.3 1.9h-.7l-1.2-1.8zm.3-2.3c.01-.04-1.2 0-1.2 0v1.7s1.21.04 1.2 0c.6 0 .9-.3.9-.9c0-.5-.3-.8-.9-.8zm4.5-.6c1.4 0 2.3 1 2.3 2.4c0 1.4-.9 2.4-2.3 2.4c-1.4 0-2.3-1-2.3-2.4c0-1.4.9-2.4 2.3-2.4zm0 .5c-1 0-1.7.8-1.7 1.9c0 1.1.7 1.9 1.7 1.9c1.1 0 1.7-.8 1.7-1.9c0-1.1-.6-1.9-1.7-1.9zm3.2-.5s1.85.04 1.8 0c1 0 1.5.7 1.5 1.4c0 .8-.5 1.5-1.5 1.5c.05-.05-1.2 0-1.2 0v1.8h-.6v-4.7zm1.8.6c-.02-.04-1.2 0-1.2 0v1.7s1.18.04 1.2 0c.5 0 .9-.3.9-.9c0-.5-.4-.8-.9-.8zm2.2-.6h3.1v.6h-2.5v1.5h2.4v.5h-2.4v1.6h2.5v.5h-3.1v-4.7zm5.4 2.9h-.9v1.8h-.6v-4.7s1.9.04 1.9 0c.9 0 1.5.6 1.5 1.4c0 .9-.6 1.3-1.2 1.4c-.05.01 1.2 1.9 1.2 1.9h-.7l-1.2-1.8zm.3-2.3c.03-.04-1.2 0-1.2 0v1.7s1.23.04 1.2 0c.6 0 1-.3 1-.9c0-.5-.4-.8-1-.8zm3.5 0h-1.5v-.6h3.6v.6H130v4.1h-.6V337zm4.1 2.1l-1.8-2.7h.7l1.4 2.2l1.5-2.2h.6l-1.8 2.7v2h-.6v-2z" stroke="none" fill="#888888"/></g><g id="Polygon106379"><path d="m18.5 328.4c2.2-1.7 3.3-2.6 3.3-3.6c0-.7-.6-1-1.2-1c-.7 0-1.3.3-1.6.8l-.6-.6c.5-.6 1.3-1 2.2-1c1.1 0 2.1.6 2.1 1.8c0 1.2-1.2 2.2-2.8 3.5c0 .02 2.8 0 2.8 0v.8h-4.2s-.03-.7 0-.7zm5.2 0c2.2-1.7 3.3-2.6 3.3-3.6c0-.7-.6-1-1.2-1c-.7 0-1.2.3-1.6.8l-.5-.6c.4-.6 1.3-1 2.1-1c1.1 0 2.1.6 2.1 1.8c0 1.2-1.1 2.2-2.8 3.5c.03.02 2.8 0 2.8 0v.8h-4.2v-.7zm12.8-4.1l-1.9 4.8h-.4l-1.9-4.8v4.8h-.9v-6h1.2l1.8 4.3l1.7-4.3h1.3v6h-.9v-4.8zm2-.8c0-.3.3-.5.5-.5c.3 0 .6.2.6.5c0 .3-.3.5-.6.5c-.2 0-.5-.2-.5-.5zm.1 1.3h.9v4.3h-.9v-4.3zm5 1.5c0-.7-.4-.9-.9-.9c-.5 0-1 .3-1.2.6c-.04 0 0 3.1 0 3.1h-.8v-4.3h.8s-.04.57 0 .6c.3-.4.8-.7 1.5-.7c.9 0 1.4.4 1.4 1.4v3h-.8v-2.8zm4.2-3.2s2.19.01 2.2 0c1.9 0 3.1 1.3 3.1 3c0 1.8-1.2 3-3.1 3c-.01.01-2.2 0-2.2 0v-6zm2.2 5.2c1.4 0 2.2-1 2.2-2.2c0-1.2-.8-2.2-2.2-2.2h-1.3v4.4s1.29.02 1.3 0zm4.1-3.5h.8v.6c.3-.4.8-.7 1.4-.7v.8h-.3c-.4 0-.9.3-1.1.6v3h-.8v-4.3zm2.8-1.3c0-.3.2-.5.5-.5c.3 0 .5.2.5.5c0 .3-.2.5-.5.5c-.3 0-.5-.2-.5-.5zm.1 1.3h.8v4.3h-.8v-4.3zm1.4 0h.9l1.3 3.4l1.4-3.4h.9l-1.8 4.3h-.9l-1.8-4.3zm6.9-.1c1.3 0 2.1 1 2.1 2.3c.04 0 0 .2 0 .2H64c.1.7.6 1.4 1.5 1.4c.4 0 .9-.2 1.3-.6l.3.6c-.4.4-1 .6-1.7.6c-1.3 0-2.2-.9-2.2-2.3c0-1.2.9-2.2 2.1-2.2zm-1.3 1.9h2.7c-.1-.6-.5-1.3-1.4-1.3c-.8 0-1.3.7-1.3 1.3z" stroke="none" fill="#282828"/></g><g id="Polygon106378"><path d="m3 311c.7 0 1.3.3 1.7.7l-.5.7c-.3-.4-.6-.6-1.2-.6c-1.1 0-1.7 1.1-1.7 2.2v.2c.3-.4.9-.9 1.7-.9c1.1 0 2 .7 2 1.9c0 1.1-.9 2-2.2 2c-1.7 0-2.4-1.4-2.4-3.1c0-1.7.8-3.1 2.6-3.1zm-.2 3.1c-.6 0-1.1.3-1.5.8c.1.7.5 1.5 1.5 1.5c.8 0 1.3-.6 1.3-1.1c0-.8-.6-1.2-1.3-1.2zm3.5 2c.3 0 .6.2.6.5c0 .3-.3.6-.6.6c-.3 0-.5-.3-.5-.6c0-.3.2-.5.5-.5zm16.6-1.7h-3.3v2.7h-.9v-6h.9v2.5h3.3v-2.5h.9v6h-.9v-2.7zm2-2.9c0-.3.2-.5.5-.5c.3 0 .5.2.5.5c0 .3-.2.5-.5.5c-.3 0-.5-.2-.5-.5zm.1 1.3h.8v4.3h-.8v-4.3zm2 3.1c.3.4.9.7 1.5.7c.6 0 .9-.3.9-.7c0-.4-.5-.5-1-.7c-.8-.1-1.6-.3-1.6-1.3c0-.7.6-1.2 1.6-1.2c.8 0 1.3.2 1.7.6l-.4.5c-.2-.3-.7-.5-1.3-.5c-.5 0-.9.2-.9.6c0 .4.5.5 1 .6c.8.2 1.7.4 1.7 1.4c0 .7-.6 1.3-1.8 1.3c-.7 0-1.3-.2-1.8-.7l.4-.6zm4.3.2v-2.6h-.7v-.7h.7v-1.2h.8v1.2h.9v.7h-.9s.01 2.47 0 2.5c0 .3.2.5.4.5c.2 0 .4-.1.5-.2l.2.6c-.2.2-.4.3-.9.3c-.6 0-1-.4-1-1.1zm2.2-1.2c0-1.2.9-2.2 2.2-2.2c1.4 0 2.2 1 2.2 2.2c0 1.3-.8 2.3-2.2 2.3c-1.3 0-2.2-1-2.2-2.3zm3.6 0c0-.8-.5-1.5-1.4-1.5c-.8 0-1.3.7-1.3 1.5c0 .9.5 1.6 1.3 1.6c.9 0 1.4-.7 1.4-1.6zm1.8-2.1h.8s-.03.63 0 .6c.3-.4.8-.7 1.4-.7v.8h-.3c-.4 0-.9.3-1.1.6c-.03-.01 0 3 0 3h-.8v-4.3zm2.8-1.3c0-.3.2-.5.5-.5c.3 0 .5.2.5.5c0 .3-.2.5-.5.5c-.3 0-.5-.2-.5-.5zm.1 1.3h.8v4.3h-.8v-4.3zm4-.1c.8 0 1.3.3 1.6.7l-.5.5c-.3-.4-.7-.5-1.1-.5c-.9 0-1.4.6-1.4 1.5c0 .9.5 1.6 1.4 1.6c.4 0 .8-.2 1.1-.5l.5.5c-.3.4-.8.7-1.6.7c-1.4 0-2.2-1-2.2-2.3c0-1.3.8-2.2 2.2-2.2zm4.4 1.4c0-1.8 1.4-3.1 3.1-3.1c1.1 0 1.9.6 2.4 1.3l-.8.4c-.3-.5-.9-.9-1.6-.9c-1.2 0-2.2 1-2.2 2.3c0 1.4 1 2.3 2.2 2.3c.7 0 1.3-.4 1.6-.9l.8.4c-.5.8-1.3 1.3-2.4 1.3c-1.7 0-3.1-1.2-3.1-3.1zm9.2.2c0-.7-.4-.9-.9-.9c-.5 0-1 .3-1.2.6c-.04 0 0 3.1 0 3.1h-.9v-6h.9s-.04 2.27 0 2.3c.2-.4.8-.7 1.5-.7c.9 0 1.4.4 1.4 1.3v3.1h-.8s-.02-2.79 0-2.8zm4.7 2.3c-.4.4-.9.6-1.4.6c-.8 0-1.6-.5-1.6-1.4c0-1 .8-1.4 1.6-1.4c.5 0 1 .1 1.4.5v-.7c0-.5-.5-.9-1.1-.9c-.5 0-.9.2-1.3.6l-.3-.5c.4-.5 1-.7 1.7-.7c1 0 1.8.4 1.8 1.5v2.9h-.8s-.02-.47 0-.5zm0-1.2c-.3-.3-.7-.5-1.1-.5c-.6 0-1 .4-1 .9c0 .5.4.9 1 .9c.4 0 .8-.2 1.1-.5v-.8zm2-2.6h.8v.6c.3-.4.9-.7 1.4-.7v.8h-.3c-.4 0-.9.3-1.1.6v3h-.8v-4.3zm2.9-1.7h.9v6h-.9v-6zm4 1.6c1.3 0 2.1 1 2.1 2.3c-.02 0 0 .2 0 .2h-3.5c.1.7.6 1.4 1.5 1.4c.5 0 1-.2 1.3-.6l.4.6c-.5.4-1.1.6-1.8.6c-1.3 0-2.2-.9-2.2-2.3c0-1.2.9-2.2 2.2-2.2zm-1.4 1.9h2.7c0-.6-.4-1.3-1.3-1.3c-.9 0-1.3.7-1.4 1.3zm4.4 1.3c.3.4.9.7 1.5.7c.6 0 .9-.3.9-.7c0-.4-.5-.5-1-.7c-.8-.1-1.6-.3-1.6-1.3c0-.7.5-1.2 1.6-1.2c.8 0 1.3.2 1.7.6l-.4.5c-.2-.3-.7-.5-1.3-.5c-.5 0-.9.2-.9.6c0 .4.5.5 1 .6c.8.2 1.7.4 1.7 1.4c0 .7-.6 1.3-1.8 1.3c-.7 0-1.3-.2-1.8-.7l.4-.6zm4.3.2v-2.6h-.7v-.7h.7v-1.2h.8v1.2h.9v.7h-.9v2.5c0 .3.1.5.4.5c.2 0 .4-.1.5-.2l.2.6c-.2.2-.5.3-.9.3c-.7 0-1-.4-1-1.1zm2.2-1.2c0-1.2.9-2.2 2.2-2.2c1.4 0 2.2 1 2.2 2.2c0 1.3-.8 2.3-2.2 2.3c-1.3 0-2.2-1-2.2-2.3zm3.6 0c0-.8-.5-1.5-1.4-1.5c-.8 0-1.3.7-1.3 1.5c0 .9.5 1.6 1.3 1.6c.9 0 1.4-.7 1.4-1.6zm4.7-.6c0-.7-.4-.9-.9-.9c-.5 0-1 .3-1.2.6c-.04 0 0 3.1 0 3.1h-.9v-4.3h.9s-.04.57 0 .6c.2-.4.8-.7 1.5-.7c.9 0 1.4.4 1.4 1.4v3h-.8s-.02-2.77 0-2.8zm4-.2c0-1.8 1.4-3.1 3.1-3.1c1.1 0 1.9.6 2.3 1.3l-.7.4c-.3-.5-.9-.9-1.6-.9c-1.3 0-2.2 1-2.2 2.3c0 1.4.9 2.3 2.2 2.3c.7 0 1.3-.4 1.6-.9l.7.4c-.4.8-1.2 1.3-2.3 1.3c-1.7 0-3.1-1.2-3.1-3.1zm6.1-2.6c0-.3.3-.5.5-.5c.3 0 .6.2.6.5c0 .3-.3.5-.6.5c-.2 0-.5-.2-.5-.5zm.1 1.3h.9v4.3h-.9v-4.3zm2.2 3.3v-2.6h-.7v-.7h.7v-1.2h.8v1.2h.9v.7h-.9s.02 2.47 0 2.5c0 .3.2.5.4.5c.2 0 .4-.1.5-.2l.2.6c-.2.2-.4.3-.9.3c-.6 0-1-.4-1-1.1zm2.8 2.1c.3 0 .5-.1.6-.5c.01.03.3-.5.3-.5l-1.8-4.4h.8l1.4 3.4l1.4-3.4h.8l-2.1 5.1c-.3.7-.8 1-1.4 1c-.1 0-.4-.1-.5-.1l.1-.7c.1 0 .3.1.4.1zm11.5-5.9l-1.9 4.8h-.4l-2-4.8v4.8h-.9v-6h1.3l1.8 4.3l1.7-4.3h1.3v6h-.9v-4.8zm4.8 4.3c-.3.4-.8.6-1.4.6c-.7 0-1.5-.5-1.5-1.4c0-1 .8-1.4 1.5-1.4c.6 0 1.1.1 1.4.5v-.7c0-.5-.4-.9-1-.9c-.5 0-1 .2-1.3.6l-.4-.5c.5-.5 1.1-.7 1.8-.7c.9 0 1.7.4 1.7 1.5c.03-.02 0 2.9 0 2.9h-.8s.02-.47 0-.5zm0-1.2c-.2-.3-.6-.5-1.1-.5c-.6 0-1 .4-1 .9c0 .5.4.9 1 .9c.5 0 .9-.2 1.1-.5v-.8zm2-2.6h.8s.04.63 0 .6c.4-.4.9-.7 1.5-.7v.8h-.3c-.4 0-1 .3-1.2.6c.04-.01 0 3 0 3h-.8v-4.3zm4.5 2.4l-.7.7v1.2h-.8v-6h.8v3.9l2.1-2.2h1l-1.9 1.9l1.9 2.4h-1l-1.4-1.9zm4.8-2.5c1.3 0 2.1 1 2.1 2.3c-.02 0 0 .2 0 .2h-3.5c.1.7.6 1.4 1.5 1.4c.5 0 1-.2 1.3-.6l.4.6c-.4.4-1.1.6-1.8.6c-1.3 0-2.2-.9-2.2-2.3c0-1.2.9-2.2 2.2-2.2zm-1.4 1.9h2.7c0-.6-.4-1.3-1.3-1.3c-.9 0-1.3.7-1.4 1.3zm4.6 1.5c-.03.05 0-2.6 0-2.6h-.7v-.7h.7v-1.2h.8v1.2h.9v.7h-.9s-.02 2.47 0 2.5c0 .3.1.5.4.5c.2 0 .4-.1.4-.2l.3.6c-.2.2-.5.3-.9.3c-.7 0-1-.4-1-1.1z" stroke="none" fill="#282828"/></g><g id="Polygon106377"><path d="m19.2 275.2l-.7.8l-.4-.4l1.2-1.2h.5v4.7h-.6v-3.9zm1.9 2.9c.3.4.7.6 1.3.6c.6 0 1.1-.5 1.1-1c0-.6-.5-1-1.1-1c-.4 0-.7.1-1.1.4l-.4-.1v-2.6h2.9v.6h-2.3v1.6c.2-.2.6-.4 1.1-.4c.8 0 1.5.5 1.5 1.5c0 .9-.8 1.5-1.7 1.5c-.8 0-1.3-.3-1.6-.8l.3-.3zm4.1.3c.2 0 .4.2.4.4c0 .2-.2.4-.4.4c-.2 0-.4-.2-.4-.4c0-.2.2-.4.4-.4zm3-4c.6 0 1 .2 1.3.5l-.3.5c-.3-.3-.6-.5-1-.5c-.9 0-1.4.9-1.4 1.8v.2c.3-.3.8-.7 1.4-.7c.8 0 1.5.5 1.5 1.5c0 .8-.6 1.5-1.6 1.5c-1.3 0-1.8-1.1-1.8-2.4c0-1.3.5-2.4 1.9-2.4zm-.2 2.3c-.4 0-.9.3-1.1.7c0 .6.3 1.3 1.1 1.3c.8 0 1.1-.6 1.1-1c0-.7-.5-1-1.1-1zm8.2-1.5l-1.5 3.9h-.3l-1.6-3.9v3.9h-.5v-4.7h.8l1.4 3.6l1.5-3.6h.8v4.7h-.6v-3.9zm1.6-.8h.6v4.7h-.6v-4.7zm1.6 0h.6v4.2h2.2v.5h-2.8v-4.7zm3.5 0h3.1v.6h-2.5v1.5h2.5v.5h-2.5v1.6h2.5v.5h-3.1v-4.7zm4 3.6c.3.4.8.7 1.5.7c.8 0 1.1-.5 1.1-.8c0-.6-.6-.7-1.2-.9c-.7-.2-1.6-.4-1.6-1.3c0-.8.7-1.3 1.6-1.3c.7 0 1.3.2 1.7.6l-.4.4c-.3-.3-.8-.5-1.3-.5c-.6 0-1 .3-1 .7c0 .5.6.6 1.2.8c.7.2 1.6.4 1.6 1.4c0 .7-.5 1.4-1.7 1.4c-.8 0-1.4-.3-1.8-.7l.3-.5zm5.7-3.6h3.1v.6h-2.5v1.5h2.4v.5h-2.4v2.1h-.6v-4.7zm5.3 2.9h-.9v1.8h-.6v-4.7s1.88.04 1.9 0c.8 0 1.4.6 1.4 1.4c0 .9-.5 1.3-1.2 1.4c.04.01 1.3 1.9 1.3 1.9h-.7l-1.2-1.8zm.3-2.3c.01-.04-1.2 0-1.2 0v1.7s1.21.04 1.2 0c.6 0 .9-.3.9-.9c0-.5-.3-.8-.9-.8zm4.5-.6c1.4 0 2.3 1 2.3 2.4c0 1.4-.9 2.4-2.3 2.4c-1.4 0-2.3-1-2.3-2.4c0-1.4.9-2.4 2.3-2.4zm0 .5c-1 0-1.7.8-1.7 1.9c0 1.1.7 1.9 1.7 1.9c1.1 0 1.7-.8 1.7-1.9c0-1.1-.6-1.9-1.7-1.9zm7.2.3l-1.6 3.9h-.3l-1.5-3.9v3.9h-.6v-4.7h.8l1.5 3.6l1.4-3.6h.8v4.7h-.5v-3.9zm3.4 2.8c.3.4.8.7 1.4.7c.9 0 1.1-.5 1.1-.8c0-.6-.5-.7-1.1-.9c-.8-.2-1.6-.4-1.6-1.3c0-.8.7-1.3 1.6-1.3c.7 0 1.2.2 1.6.6l-.3.4c-.4-.3-.9-.5-1.4-.5c-.5 0-.9.3-.9.7c0 .5.5.6 1.1.8c.8.2 1.6.4 1.6 1.4c0 .7-.4 1.4-1.7 1.4c-.8 0-1.4-.3-1.8-.7l.4-.5zm3.9-3.6h.6s.02 2.88 0 2.9c0 .8.5 1.4 1.3 1.4c.9 0 1.4-.6 1.4-1.4c-.03-.02 0-2.9 0-2.9h.5s.05 2.89 0 2.9c0 1.2-.6 1.9-1.9 1.9c-1.2 0-1.9-.8-1.9-1.9c.04 0 0-2.9 0-2.9zm4.9 0s2.05.04 2 0c.9 0 1.4.5 1.4 1.2c0 .6-.4 1-.9 1.1c.5.1.9.6.9 1.1c0 .8-.4 1.3-1.3 1.3h-2.1v-4.7zm2 2.1c.5 0 .8-.4.8-.8c0-.4-.3-.7-.8-.7c-.05-.04-1.4 0-1.4 0v1.5s1.35-.04 1.4 0zm0 2.1c.5 0 .8-.3.8-.8c0-.4-.2-.8-.8-.8c-.02-.02-1.4 0-1.4 0v1.6h1.4zm2.1-.4c.2.3.5.5.9.5c.6 0 1-.4 1-1c-.04 0 0-3.3 0-3.3h.5s.04 3.3 0 3.3c0 1-.6 1.5-1.4 1.5c-.5 0-.9-.2-1.3-.5l.3-.5zm3.5-3.8h3v.6h-2.5v1.5h2.5v.5h-2.5v1.6h2.5v.5h-3v-4.7zm3.7 2.4c0-1.5 1-2.4 2.4-2.4c.8 0 1.4.4 1.8.9l-.5.3c-.3-.4-.8-.7-1.3-.7c-1 0-1.8.8-1.8 1.9c0 1.1.8 1.9 1.8 1.9c.5 0 1-.3 1.3-.7l.5.3c-.4.5-1 .9-1.8.9c-1.4 0-2.4-1-2.4-2.4zm6-1.8h-1.5v-.6h3.6v.6H100v4.1h-.6V275zm4.5-.6s1.86.04 1.9 0c.9 0 1.4.7 1.4 1.4c0 .8-.5 1.5-1.4 1.5c-.04-.05-1.3 0-1.3 0v1.8h-.6v-4.7zm1.8.6c-.01-.04-1.2 0-1.2 0v1.7s1.19.04 1.2 0c.5 0 .9-.3.9-.9c0-.5-.4-.8-.9-.8zm3.7 2.3h-.9v1.8h-.6v-4.7s1.9.04 1.9 0c.9 0 1.5.6 1.5 1.4c0 .9-.6 1.3-1.2 1.4c-.04.01 1.2 1.9 1.2 1.9h-.7l-1.2-1.8zm.3-2.3c.03-.04-1.2 0-1.2 0v1.7s1.23.04 1.2 0c.6 0 1-.3 1-.9c0-.5-.4-.8-1-.8zm4.5-.6c1.4 0 2.4 1 2.4 2.4c0 1.4-1 2.4-2.4 2.4c-1.3 0-2.3-1-2.3-2.4c0-1.4 1-2.4 2.3-2.4zm0 .5c-1 0-1.7.8-1.7 1.9c0 1.1.7 1.9 1.7 1.9c1.1 0 1.8-.8 1.8-1.9c0-1.1-.7-1.9-1.8-1.9zm3.2-.5s1.87.04 1.9 0c.9 0 1.4.7 1.4 1.4c0 .8-.5 1.5-1.4 1.5c-.03-.05-1.3 0-1.3 0v1.8h-.6v-4.7zm1.8.6c0-.04-1.2 0-1.2 0v1.7s1.2.04 1.2 0c.6 0 .9-.3.9-.9c0-.5-.3-.8-.9-.8zm2.2-.6h3.1v.6H122v1.5h2.4v.5H122v1.6h2.5v.5h-3.1v-4.7zm5.5 2.9h-1v1.8h-.5v-4.7s1.83.04 1.8 0c.9 0 1.5.6 1.5 1.4c0 .9-.6 1.3-1.2 1.4c-.02.01 1.2 1.9 1.2 1.9h-.6l-1.2-1.8zm.3-2.3c-.04-.04-1.3 0-1.3 0v1.7s1.26.04 1.3 0c.5 0 .9-.3.9-.9c0-.5-.4-.8-.9-.8zm3.4 0h-1.5v-.6h3.6v.6h-1.5v4.1h-.6V275zm4.1 2.1l-1.8-2.7h.7l1.4 2.2l1.5-2.2h.7l-1.9 2.7v2h-.6v-2z" stroke="none" fill="#888888"/></g><g id="Polygon106376"><path d="m18.5 266.4c2.2-1.7 3.3-2.6 3.3-3.6c0-.7-.6-1-1.2-1c-.7 0-1.3.3-1.6.8l-.6-.6c.5-.6 1.3-1 2.2-1c1.1 0 2.1.6 2.1 1.8c0 1.2-1.2 2.2-2.8 3.5c0 .02 2.8 0 2.8 0v.8h-4.2s-.03-.7 0-.7zm5.2 0c2.2-1.7 3.3-2.6 3.3-3.6c0-.7-.6-1-1.2-1c-.7 0-1.2.3-1.6.8l-.5-.6c.4-.6 1.3-1 2.1-1c1.1 0 2.1.6 2.1 1.8c0 1.2-1.1 2.2-2.8 3.5c.03.02 2.8 0 2.8 0v.8h-4.2v-.7zm12.8-4.1l-1.9 4.8h-.4l-1.9-4.8v4.8h-.9v-6h1.2l1.8 4.3l1.7-4.3h1.3v6h-.9v-4.8zm2-.8c0-.3.3-.5.5-.5c.3 0 .6.2.6.5c0 .3-.3.5-.6.5c-.2 0-.5-.2-.5-.5zm.1 1.3h.9v4.3h-.9v-4.3zm5 1.5c0-.7-.4-.9-.9-.9c-.5 0-1 .3-1.2.6c-.04 0 0 3.1 0 3.1h-.8v-4.3h.8s-.04.57 0 .6c.3-.4.8-.7 1.5-.7c.9 0 1.4.4 1.4 1.4v3h-.8v-2.8zm4.2-3.2s2.19.01 2.2 0c1.9 0 3.1 1.3 3.1 3c0 1.8-1.2 3-3.1 3c-.01.01-2.2 0-2.2 0v-6zm2.2 5.2c1.4 0 2.2-1 2.2-2.2c0-1.2-.8-2.2-2.2-2.2h-1.3v4.4s1.29.02 1.3 0zm4.1-3.5h.8v.6c.3-.4.8-.7 1.4-.7v.8h-.3c-.4 0-.9.3-1.1.6v3h-.8v-4.3zm2.8-1.3c0-.3.2-.5.5-.5c.3 0 .5.2.5.5c0 .3-.2.5-.5.5c-.3 0-.5-.2-.5-.5zm.1 1.3h.8v4.3h-.8v-4.3zm1.4 0h.9l1.3 3.4l1.4-3.4h.9l-1.8 4.3h-.9l-1.8-4.3zm6.9-.1c1.3 0 2.1 1 2.1 2.3c.04 0 0 .2 0 .2H64c.1.7.6 1.4 1.5 1.4c.4 0 .9-.2 1.3-.6l.3.6c-.4.4-1 .6-1.7.6c-1.3 0-2.2-.9-2.2-2.3c0-1.2.9-2.2 2.1-2.2zm-1.3 1.9h2.7c-.1-.6-.5-1.3-1.4-1.3c-.8 0-1.3.7-1.3 1.3z" stroke="none" fill="#282828"/></g><g id="Polygon106375"><path d="m1.1 253.7c.4.4.9.7 1.6.7c.8 0 1.3-.5 1.3-1.2c0-.7-.5-1.1-1.3-1.1c-.5 0-.9.1-1.3.5c-.01.01-.7-.2-.7-.2v-3.3h3.8v.8H1.6s.04 1.92 0 1.9c.3-.3.8-.5 1.4-.5c1 0 1.9.7 1.9 1.9c0 1.2-.9 2-2.2 2c-1 0-1.7-.3-2.2-.9l.6-.6zm5.2.4c.3 0 .6.2.6.5c0 .3-.3.6-.6.6c-.3 0-.5-.3-.5-.6c0-.3.2-.5.5-.5zm17.5-3.8l-1.9 4.8h-.4l-1.9-4.8v4.8h-.9v-6h1.3l1.7 4.3l1.7-4.3h1.3v6h-.9v-4.8zm4.8 4.3c-.3.4-.8.6-1.4.6c-.7 0-1.5-.5-1.5-1.4c0-1 .8-1.4 1.5-1.4c.6 0 1.1.1 1.4.5v-.7c0-.5-.4-.9-1-.9c-.5 0-.9.2-1.3.6l-.4-.5c.5-.5 1.1-.7 1.8-.7c.9 0 1.7.4 1.7 1.5c.05-.02 0 2.9 0 2.9h-.8s.04-.47 0-.5zm0-1.2c-.2-.3-.6-.5-1.1-.5c-.6 0-1 .4-1 .9c0 .5.4.9 1 .9c.5 0 .9-.2 1.1-.5v-.8zm2.4 2.2c.4.4.8.6 1.4.6c.7 0 1.4-.3 1.4-1.2v-.6c-.4.4-.9.7-1.5.7c-1.1 0-1.9-.8-1.9-2.2c0-1.4.8-2.2 1.9-2.2c.6 0 1.1.2 1.5.7c-.05-.01 0-.6 0-.6h.8s-.04 4.14 0 4.1c0 1.5-1.1 2-2.2 2c-.7 0-1.3-.2-1.8-.7l.4-.6zm2.8-3.6c-.3-.3-.8-.6-1.3-.6c-.8 0-1.3.6-1.3 1.5c0 .9.5 1.5 1.3 1.5c.5 0 1-.3 1.3-.6V252zm4.9.3c0-.7-.4-.9-.9-.9c-.5 0-1 .3-1.2.6c-.03 0 0 3.1 0 3.1h-.8v-4.3h.8s-.03.57 0 .6c.3-.4.8-.7 1.5-.7c.9 0 1.4.4 1.4 1.4v3h-.8v-2.8zm1.7.6c0-1.2.9-2.2 2.2-2.2c1.4 0 2.2 1 2.2 2.2c0 1.3-.8 2.3-2.2 2.3c-1.3 0-2.2-1-2.2-2.3zm3.6 0c0-.8-.5-1.5-1.4-1.5c-.8 0-1.3.7-1.3 1.5c0 .9.5 1.6 1.3 1.6c.9 0 1.4-.7 1.4-1.6zm1.8-3.8h.8v6h-.8v-6zm1.8.4c0-.3.3-.5.6-.5c.2 0 .5.2.5.5c0 .3-.3.5-.5.5c-.3 0-.6-.2-.6-.5zm.2 1.3h.8v4.3h-.8v-4.3zm4.7 3.8c-.4.4-.9.6-1.5.6c-.7 0-1.5-.5-1.5-1.4c0-1 .8-1.4 1.5-1.4c.6 0 1.1.1 1.5.5v-.7c0-.5-.5-.9-1.1-.9c-.5 0-.9.2-1.3.6l-.4-.5c.5-.5 1.1-.7 1.8-.7c1 0 1.8.4 1.8 1.5c-.04-.02 0 2.9 0 2.9h-.8s-.05-.47 0-.5zm0-1.2c-.3-.3-.7-.5-1.2-.5c-.5 0-1 .4-1 .9c0 .5.5.9 1 .9c.5 0 .9-.2 1.2-.5v-.8zm4.2-4.3s2.55.01 2.5 0c1.3 0 2 .9 2 1.9c0 1-.7 1.8-2 1.8h-1.6v2.3h-.9v-6zm2.4.8h-1.5v2.1h1.5c.7 0 1.1-.4 1.1-1c0-.7-.4-1.1-1.1-1.1zm2.9-.8h.8v6h-.8v-6zm4.7 5.5c-.4.4-.9.6-1.5.6c-.7 0-1.5-.5-1.5-1.4c0-1 .8-1.4 1.5-1.4c.6 0 1.1.1 1.5.5v-.7c0-.5-.5-.9-1.1-.9c-.5 0-.9.2-1.3.6l-.3-.5c.4-.5 1-.7 1.7-.7c1 0 1.8.4 1.8 1.5c-.02-.02 0 2.9 0 2.9h-.8s-.03-.47 0-.5zm0-1.2c-.3-.3-.7-.5-1.1-.5c-.6 0-1 .4-1 .9c0 .5.4.9 1 .9c.4 0 .8-.2 1.1-.5v-.8zm4.9-1.1c0-.7-.3-.9-.9-.9c-.5 0-1 .3-1.2.6v3.1h-.8v-4.3h.8v.6c.3-.4.9-.7 1.5-.7c1 0 1.4.4 1.4 1.4c.03-.04 0 3 0 3h-.8s.02-2.77 0-2.8zm2.2 1.8v-2.6h-.7v-.7h.7v-1.2h.8v1.2h.9v.7h-.9v2.5c0 .3.1.5.4.5c.2 0 .4-.1.5-.2l.2.6c-.2.2-.5.3-.9.3c-.7 0-1-.4-1-1.1zm5.2.5c-.4.4-.9.6-1.4.6c-.8 0-1.6-.5-1.6-1.4c0-1 .8-1.4 1.6-1.4c.5 0 1 .1 1.4.5v-.7c0-.5-.5-.9-1.1-.9c-.5 0-.9.2-1.3.6l-.3-.5c.4-.5 1-.7 1.7-.7c1 0 1.8.4 1.8 1.5c-.02-.02 0 2.9 0 2.9h-.8s-.03-.47 0-.5zm0-1.2c-.3-.3-.7-.5-1.1-.5c-.6 0-1 .4-1 .9c0 .5.4.9 1 .9c.4 0 .8-.2 1.1-.5v-.8zm2.2.7c-.05.05 0-2.6 0-2.6h-.8v-.7h.8v-1.2h.8v1.2h.8v.7h-.8s-.04 2.47 0 2.5c0 .3.1.5.4.5c.2 0 .3-.1.4-.2l.2.6c-.1.2-.4.3-.8.3c-.7 0-1-.4-1-1.1zm2.3-4.6c0-.3.3-.5.5-.5c.3 0 .6.2.6.5c0 .3-.3.5-.6.5c-.2 0-.5-.2-.5-.5zm.2 1.3h.8v4.3h-.8v-4.3zm1.7 2.1c0-1.2.8-2.2 2.2-2.2c1.3 0 2.2 1 2.2 2.2c0 1.3-.9 2.3-2.2 2.3c-1.4 0-2.2-1-2.2-2.3zm3.5 0c0-.8-.4-1.5-1.3-1.5c-.9 0-1.4.7-1.4 1.5c0 .9.5 1.6 1.4 1.6c.9 0 1.3-.7 1.3-1.6zm4.8-.6c0-.7-.4-.9-1-.9c-.5 0-.9.3-1.2.6c.03 0 0 3.1 0 3.1h-.8v-4.3h.8s.03.57 0 .6c.3-.4.9-.7 1.6-.7c.9 0 1.4.4 1.4 1.4c-.04-.04 0 3 0 3h-.8s-.05-2.77 0-2.8zm6.9 2.3c-.4.4-.9.6-1.4.6c-.8 0-1.6-.5-1.6-1.4c0-1 .8-1.4 1.6-1.4c.5 0 1 .1 1.4.5v-.7c0-.5-.5-.9-1.1-.9c-.5 0-.9.2-1.3.6l-.3-.5c.4-.5 1-.7 1.7-.7c1 0 1.8.4 1.8 1.5c-.02-.02 0 2.9 0 2.9h-.8s-.03-.47 0-.5zm0-1.2c-.3-.3-.7-.5-1.1-.5c-.6 0-1 .4-1 .9c0 .5.4.9 1 .9c.4 0 .8-.2 1.1-.5v-.8zm4.9-1.1c0-.7-.3-.9-.9-.9c-.5 0-1 .3-1.2.6v3.1h-.8v-4.3h.8v.6c.3-.4.9-.7 1.5-.7c1 0 1.4.4 1.4 1.4c.03-.04 0 3 0 3h-.8s.02-2.77 0-2.8zm5.1 2.2c-.3.4-.8.7-1.4.7c-1.1 0-1.9-.8-1.9-2.3c0-1.4.8-2.2 1.9-2.2c.6 0 1.1.2 1.4.7c.03-.01 0-2.3 0-2.3h.8v6h-.8s.03-.61 0-.6zm0-2.5c-.2-.3-.7-.6-1.2-.6c-.8 0-1.3.6-1.3 1.5c0 .9.5 1.6 1.3 1.6c.5 0 1-.3 1.2-.6V252zm7.2-3c1.1 0 1.8.5 2.3 1.2l-.7.4c-.3-.4-.9-.8-1.6-.8c-1.3 0-2.2 1-2.2 2.3c0 1.4.9 2.3 2.2 2.3c.6 0 1.2-.3 1.5-.6c-.02.03 0-1 0-1h-2v-.8h2.9s-.03 2.17 0 2.2c-.6.6-1.4 1-2.4 1c-1.8 0-3.2-1.2-3.2-3.1c0-1.9 1.4-3.1 3.2-3.1zm6.1 5.6c-.3.4-.8.6-1.4.6c-.7 0-1.5-.5-1.5-1.4c0-1 .7-1.4 1.5-1.4c.6 0 1.1.1 1.4.5v-.7c0-.5-.4-.9-1.1-.9c-.5 0-.9.2-1.3.6l-.3-.5c.5-.5 1.1-.7 1.8-.7c.9 0 1.7.4 1.7 1.5v2.9h-.8v-.5zm0-1.2c-.2-.3-.7-.5-1.1-.5c-.6 0-1 .4-1 .9c0 .5.4.9 1 .9c.4 0 .9-.2 1.1-.5v-.8zm2-2.6h.8s.03.63 0 .6c.4-.4.9-.7 1.4-.7v.8h-.2c-.4 0-1 .3-1.2.6c.03-.01 0 3 0 3h-.8v-4.3zm6.1 3.7c-.4.4-.9.7-1.5.7c-1.1 0-1.9-.8-1.9-2.3c0-1.4.8-2.2 1.9-2.2c.6 0 1.1.2 1.5.7c-.03-.01 0-2.3 0-2.3h.8v6h-.8s-.03-.61 0-.6zm0-2.5c-.3-.3-.7-.6-1.2-.6c-.9 0-1.4.6-1.4 1.5c0 .9.5 1.6 1.4 1.6c.5 0 .9-.3 1.2-.6V252zm3.9-1.3c1.3 0 2.1 1 2.1 2.3v.2h-3.4c0 .7.6 1.4 1.4 1.4c.5 0 1-.2 1.3-.6l.4.6c-.4.4-1 .6-1.7.6c-1.3 0-2.3-.9-2.3-2.3c0-1.2.9-2.2 2.2-2.2zm-1.3 1.9h2.6c0-.6-.4-1.3-1.3-1.3c-.9 0-1.3.7-1.3 1.3zm7.3-.3c0-.7-.4-.9-1-.9c-.5 0-.9.3-1.2.6c.04 0 0 3.1 0 3.1h-.8v-4.3h.8s.04.57 0 .6c.3-.4.9-.7 1.6-.7c.9 0 1.4.4 1.4 1.4c-.03-.04 0 3 0 3h-.8s-.03-2.77 0-2.8zm2 1.6c.3.4.9.7 1.4.7c.7 0 1-.3 1-.7c0-.4-.5-.5-1.1-.7c-.7-.1-1.6-.3-1.6-1.3c0-.7.6-1.2 1.7-1.2c.7 0 1.3.2 1.6.6l-.3.5c-.3-.3-.8-.5-1.3-.5c-.6 0-.9.2-.9.6c0 .4.5.5 1 .6c.8.2 1.7.4 1.7 1.4c0 .7-.7 1.3-1.8 1.3c-.7 0-1.4-.2-1.8-.7l.4-.6z" stroke="none" fill="#282828"/></g><g id="Polygon106374"><path d="m19.2 213.2l-.7.8l-.4-.4l1.2-1.2h.5v4.7h-.6v-3.9zm3.5 2.7h-2.2v-.5l2-3h.8v3h.7v.5h-.7v1.2h-.6v-1.2zm-1.6-.5h1.6V213l-1.6 2.4zm3.8 1c.3 0 .4.2.4.4c0 .2-.1.4-.4.4c-.2 0-.3-.2-.3-.4c0-.2.1-.4.3-.4zm1.5-3.2l-.8.8l-.3-.4l1.1-1.2h.6v4.7h-.6v-3.9zm7.3 0l-1.6 3.9h-.2l-1.6-3.9v3.9h-.6v-4.7h.9L32 216l1.5-3.6h.8v4.7h-.6v-3.9zm1.6-.8h.6v4.7h-.6v-4.7zm1.6 0h.6v4.2h2.2v.5h-2.8v-4.7zm3.5 0h3.1v.6H41v1.5h2.4v.5H41v1.6h2.5v.5h-3.1v-4.7zm4 3.6c.3.4.8.7 1.5.7c.8 0 1.1-.5 1.1-.8c0-.6-.6-.7-1.2-.9c-.8-.2-1.6-.4-1.6-1.3c0-.8.7-1.3 1.6-1.3c.7 0 1.3.2 1.7.6l-.4.4c-.3-.3-.8-.5-1.3-.5c-.6 0-1 .3-1 .7c0 .5.5.6 1.1.8c.8.2 1.7.4 1.7 1.4c0 .7-.5 1.4-1.8 1.4c-.8 0-1.4-.3-1.8-.7l.4-.5zm5.7-3.6h3.1v.6h-2.5v1.5h2.4v.5h-2.4v2.1h-.6v-4.7zm5.3 2.9h-.9v1.8h-.6v-4.7s1.85.04 1.9 0c.8 0 1.4.6 1.4 1.4c0 .9-.6 1.3-1.2 1.4l1.3 1.9h-.7l-1.2-1.8zm.3-2.3c-.02-.04-1.2 0-1.2 0v1.7s1.18.04 1.2 0c.5 0 .9-.3.9-.9c0-.5-.4-.8-.9-.8zm4.5-.6c1.4 0 2.3 1 2.3 2.4c0 1.4-.9 2.4-2.3 2.4c-1.4 0-2.3-1-2.3-2.4c0-1.4.9-2.4 2.3-2.4zm0 .5c-1.1 0-1.7.8-1.7 1.9c0 1.1.6 1.9 1.7 1.9c1 0 1.7-.8 1.7-1.9c0-1.1-.7-1.9-1.7-1.9zm7.1.3l-1.6 3.9h-.2l-1.6-3.9v3.9h-.6v-4.7h.9l1.4 3.6l1.5-3.6h.8v4.7h-.6v-3.9zm3.4 2.8c.3.4.8.7 1.5.7c.8 0 1.1-.5 1.1-.8c0-.6-.6-.7-1.2-.9c-.7-.2-1.6-.4-1.6-1.3c0-.8.7-1.3 1.6-1.3c.8 0 1.3.2 1.7.6l-.3.4c-.4-.3-.9-.5-1.4-.5c-.6 0-1 .3-1 .7c0 .5.6.6 1.2.8c.7.2 1.6.4 1.6 1.4c0 .7-.5 1.4-1.7 1.4c-.8 0-1.4-.3-1.8-.7l.3-.5zm4-3.6h.6v2.9c0 .8.4 1.4 1.3 1.4c.9 0 1.3-.6 1.3-1.4c.03-.02 0-2.9 0-2.9h.6v2.9c0 1.2-.6 1.9-1.9 1.9c-1.3 0-1.9-.8-1.9-1.9v-2.9zm4.8 0s2.12.04 2.1 0c.8 0 1.3.5 1.3 1.2c0 .6-.4 1-.8 1.1c.5.1.9.6.9 1.1c0 .8-.5 1.3-1.3 1.3c-.04.01-2.2 0-2.2 0v-4.7zm2 2.1c.5 0 .8-.4.8-.8c0-.4-.3-.7-.8-.7c.02-.04-1.4 0-1.4 0v1.5s1.42-.04 1.4 0zm0 2.1c.6 0 .9-.3.9-.8c0-.4-.3-.8-.9-.8c.05-.02-1.4 0-1.4 0v1.6h1.4zm2.2-.4c.2.3.5.5.9.5c.6 0 .9-.4.9-1c.02 0 0-3.3 0-3.3h.6v3.3c0 1-.6 1.5-1.5 1.5c-.5 0-.9-.2-1.2-.5l.3-.5zm3.4-3.8h3.1v.6h-2.5v1.5h2.4v.5h-2.4v1.6h2.5v.5h-3.1v-4.7zm3.7 2.4c0-1.5 1.1-2.4 2.4-2.4c.9 0 1.4.4 1.8.9l-.5.3c-.2-.4-.7-.7-1.3-.7c-1 0-1.8.8-1.8 1.9c0 1.1.8 1.9 1.8 1.9c.6 0 1.1-.3 1.3-.7l.5.3c-.4.5-.9.9-1.8.9c-1.3 0-2.4-1-2.4-2.4zm6.1-1.8h-1.5v-.6h3.5v.6h-1.5v4.1h-.5V213zm4.5-.6s1.83.04 1.8 0c1 0 1.5.7 1.5 1.4c0 .8-.5 1.5-1.5 1.5c.03-.05-1.3 0-1.3 0v1.8h-.5v-4.7zm1.8.6c-.04-.04-1.3 0-1.3 0v1.7s1.26.04 1.3 0c.5 0 .9-.3.9-.9c0-.5-.4-.8-.9-.8zm3.7 2.3h-.9v1.8h-.6v-4.7s1.87.04 1.9 0c.8 0 1.4.6 1.4 1.4c0 .9-.5 1.3-1.2 1.4c.02.01 1.3 1.9 1.3 1.9h-.7l-1.2-1.8zm.3-2.3c0-.04-1.2 0-1.2 0v1.7s1.2.04 1.2 0c.6 0 .9-.3.9-.9c0-.5-.3-.8-.9-.8zm4.5-.6c1.4 0 2.3 1 2.3 2.4c0 1.4-.9 2.4-2.3 2.4c-1.4 0-2.3-1-2.3-2.4c0-1.4.9-2.4 2.3-2.4zm0 .5c-1 0-1.7.8-1.7 1.9c0 1.1.7 1.9 1.7 1.9c1.1 0 1.7-.8 1.7-1.9c0-1.1-.6-1.9-1.7-1.9zm3.2-.5s1.84.04 1.8 0c1 0 1.5.7 1.5 1.4c0 .8-.5 1.5-1.5 1.5c.04-.05-1.3 0-1.3 0v1.8h-.5v-4.7zm1.8.6c-.03-.04-1.3 0-1.3 0v1.7s1.27.04 1.3 0c.5 0 .9-.3.9-.9c0-.5-.4-.8-.9-.8zm2.2-.6h3.1v.6h-2.5v1.5h2.4v.5h-2.4v1.6h2.5v.5h-3.1v-4.7zm5.4 2.9h-.9v1.8h-.6v-4.7s1.89.04 1.9 0c.8 0 1.5.6 1.5 1.4c0 .9-.6 1.3-1.3 1.4c.04.01 1.3 1.9 1.3 1.9h-.7l-1.2-1.8zm.3-2.3c.02-.04-1.2 0-1.2 0v1.7s1.22.04 1.2 0c.6 0 1-.3 1-.9c0-.5-.4-.8-1-.8zm3.5 0h-1.5v-.6h3.6v.6h-1.5v4.1h-.6V213zm4.1 2.1l-1.8-2.7h.6l1.5 2.2l1.4-2.2h.7l-1.8 2.7v2h-.6v-2z" stroke="none" fill="#888888"/></g><g id="Polygon106373"><path d="m18.5 204.4c2.2-1.7 3.3-2.6 3.3-3.6c0-.7-.6-1-1.2-1c-.7 0-1.3.3-1.6.8l-.6-.6c.5-.6 1.3-1 2.2-1c1.1 0 2.1.6 2.1 1.8c0 1.2-1.2 2.2-2.8 3.5c0 .02 2.8 0 2.8 0v.8h-4.2s-.03-.7 0-.7zm5.5-.7c.3.4 1 .7 1.6.7c.9 0 1.4-.4 1.4-1c0-.7-.6-1-1.4-1c-.3 0-.6 0-.7.1v-.9h.7c.7 0 1.3-.2 1.3-.8c0-.7-.6-1-1.3-1c-.6 0-1.1.3-1.6.7l-.5-.5c.5-.6 1.2-1 2.2-1c1.2 0 2.1.6 2.1 1.6c0 .9-.7 1.3-1.3 1.4c.5.1 1.4.5 1.4 1.5c0 1-.9 1.7-2.2 1.7c-1.1 0-1.8-.4-2.2-1l.5-.5zm12.3-3.4l-2 4.8h-.3l-2-4.8v4.8h-.9v-6h1.3l1.8 4.3l1.7-4.3h1.3v6h-.9v-4.8zm2-.8c0-.3.2-.5.5-.5c.3 0 .5.2.5.5c0 .3-.2.5-.5.5c-.3 0-.5-.2-.5-.5zm.1 1.3h.8v4.3h-.8v-4.3zm5 1.5c0-.7-.4-.9-1-.9c-.5 0-.9.3-1.2.6c.03 0 0 3.1 0 3.1h-.8v-4.3h.8s.03.57 0 .6c.3-.4.9-.7 1.6-.7c.9 0 1.4.4 1.4 1.4c-.04-.04 0 3 0 3h-.8s-.05-2.77 0-2.8zm4.2-3.2s2.15.01 2.2 0c1.8 0 3.1 1.3 3.1 3c0 1.8-1.3 3-3.1 3c-.05.01-2.2 0-2.2 0v-6zm2.2 5.2c1.3 0 2.1-1 2.1-2.2c0-1.2-.7-2.2-2.1-2.2h-1.3v4.4s1.25.02 1.3 0zm4-3.5h.9s-.04.63 0 .6c.3-.4.8-.7 1.4-.7v.8h-.3c-.4 0-1 .3-1.1.6c-.04-.01 0 3 0 3h-.9v-4.3zm2.9-1.3c0-.3.2-.5.5-.5c.3 0 .5.2.5.5c0 .3-.2.5-.5.5c-.3 0-.5-.2-.5-.5zm.1 1.3h.8v4.3h-.8v-4.3zm1.4 0h.8l1.4 3.4l1.3-3.4h.9l-1.8 4.3h-.8l-1.8-4.3zm6.9-.1c1.3 0 2.1 1 2.1 2.3v.2h-3.4c0 .7.6 1.4 1.4 1.4c.5 0 1-.2 1.3-.6l.4.6c-.4.4-1 .6-1.7.6c-1.3 0-2.3-.9-2.3-2.3c0-1.2.9-2.2 2.2-2.2zm-1.3 1.9h2.6c0-.6-.4-1.3-1.3-1.3c-.9 0-1.3.7-1.3 1.3z" stroke="none" fill="#282828"/></g><g id="Polygon106372"><path d="m3.1 191.7H.3v-.8l2.5-3.8h1.2v3.8h.9v.8h-.9v1.4h-.9v-1.4zm-1.9-.8h1.9v-3l-1.9 3zm4.9 1.2c.3 0 .6.2.6.5c0 .3-.3.6-.6.6c-.3 0-.6-.3-.6-.6c0-.3.3-.5.6-.5zm12.4-.2c.3.3.6.5 1.1.5c.7 0 1.1-.5 1.1-1.2c.03.05 0-4.1 0-4.1h.9s.03 4.16 0 4.2c0 1.3-.8 1.9-1.9 1.9c-.7 0-1.2-.2-1.6-.6l.4-.7zm4.1-1c0-1.2.8-2.2 2.2-2.2c1.3 0 2.2 1 2.2 2.2c0 1.3-.9 2.3-2.2 2.3c-1.4 0-2.2-1-2.2-2.3zm3.5 0c0-.8-.4-1.5-1.3-1.5c-.9 0-1.4.7-1.4 1.5c0 .9.5 1.6 1.4 1.6c.9 0 1.3-.7 1.3-1.6zm3.7-2.2c1.3 0 2.1 1 2.1 2.3c.04 0 0 .2 0 .2h-3.4c.1.7.6 1.4 1.5 1.4c.4 0 .9-.2 1.3-.6l.3.6c-.4.4-1 .6-1.7.6c-1.3 0-2.3-.9-2.3-2.3c0-1.2 1-2.2 2.2-2.2zm-1.3 1.9h2.6c0-.6-.4-1.3-1.3-1.3c-.8 0-1.3.7-1.3 1.3zm8.6.2H36v2.3h-.9v-6s2.55.01 2.5 0c1.2 0 2 .7 2 1.9c0 1-.8 1.6-1.5 1.7c-.02.01 1.5 2.4 1.5 2.4h-1l-1.5-2.3zm.4-2.9H36v2.1h1.5c.7 0 1.1-.4 1.1-1c0-.7-.4-1.1-1.1-1.1zm2.9-.4c0-.3.3-.5.6-.5c.3 0 .5.2.5.5c0 .3-.2.5-.5.5c-.3 0-.6-.2-.6-.5zm.2 1.3h.8v4.3h-.8v-4.3zm2-1.7h.8v6h-.8v-6zm3.9 1.6c1.3 0 2.1 1 2.1 2.3v.2h-3.4c0 .7.6 1.4 1.4 1.4c.5 0 1-.2 1.3-.6l.4.6c-.4.4-1 .6-1.7.6c-1.3 0-2.3-.9-2.3-2.3c0-1.2.9-2.2 2.2-2.2zm-1.3 1.9h2.6c0-.6-.4-1.3-1.3-1.3c-.9 0-1.3.7-1.3 1.3zm4.6 3.6c.3 0 .5-.1.6-.5c.04.03.3-.5.3-.5l-1.8-4.4h.9l1.3 3.4l1.4-3.4h.9s-2.19 5.14-2.2 5.1c-.3.7-.7 1-1.4 1c-.1 0-.4-.1-.5-.1l.1-.7c.1 0 .3.1.4.1zm9.7-5.7l-1.2 4.6h-1l-1.7-6h1l1.2 4.8l1.4-4.8h.7l1.3 4.8l1.2-4.8h1l-1.7 6h-.9l-1.3-4.6zm6.9 4.1c-.3.4-.8.6-1.4.6c-.7 0-1.5-.5-1.5-1.4c0-1 .8-1.4 1.5-1.4c.6 0 1.1.1 1.4.5v-.7c0-.5-.4-.9-1-.9c-.5 0-1 .2-1.3.6l-.4-.5c.5-.5 1.1-.7 1.8-.7c.9 0 1.7.4 1.7 1.5c.03-.02 0 2.9 0 2.9h-.8s.02-.47 0-.5zm0-1.2c-.2-.3-.6-.5-1.1-.5c-.6 0-1 .4-1 .9c0 .5.4.9 1 .9c.5 0 .9-.2 1.1-.5v-.8zm2.2.7v-2.6h-.7v-.7h.7v-1.2h.8v1.2h.9v.7h-.9s.01 2.47 0 2.5c0 .3.2.5.4.5c.2 0 .4-.1.5-.2l.2.6c-.2.2-.4.3-.9.3c-.7 0-1-.4-1-1.1zm4.4-3.4c1.3 0 2.1 1 2.1 2.3c.02 0 0 .2 0 .2h-3.4c0 .7.6 1.4 1.5 1.4c.4 0 .9-.2 1.2-.6l.4.6c-.4.4-1 .6-1.7.6c-1.3 0-2.3-.9-2.3-2.3c0-1.2.9-2.2 2.2-2.2zm-1.3 1.9h2.6c0-.6-.4-1.3-1.3-1.3c-.9 0-1.3.7-1.3 1.3zm4.3-1.8h.9s-.04.63 0 .6c.3-.4.8-.7 1.4-.7v.8h-.3c-.4 0-1 .3-1.1.6c-.04-.01 0 3 0 3h-.9v-4.3zm3.2.7h-.7v-.7h.7v-.3c0-1 .5-1.5 1.3-1.5c.3 0 .5.1.7.2l-.2.6c-.1-.1-.2-.1-.3-.1c-.4 0-.7.3-.7.8v.3h.9v.7h-.9v3.6h-.8v-3.6zm2.4-.7h.8s-.02.63 0 .6c.3-.4.8-.7 1.4-.7v.8h-.3c-.4 0-.9.3-1.1.6c-.02-.01 0 3 0 3h-.8v-4.3zm2.7 2.1c0-1.2.8-2.2 2.2-2.2c1.3 0 2.1 1 2.1 2.2c0 1.3-.8 2.3-2.1 2.3c-1.4 0-2.2-1-2.2-2.3zm3.5 0c0-.8-.5-1.5-1.3-1.5c-.9 0-1.4.7-1.4 1.5c0 .9.5 1.6 1.4 1.6c.8 0 1.3-.7 1.3-1.6zm4.7-.6c0-.7-.3-.9-.9-.9c-.5 0-1 .3-1.2.6v3.1h-.8v-4.3h.8v.6c.3-.4.9-.7 1.5-.7c1 0 1.4.4 1.4 1.4c.03-.04 0 3 0 3h-.8s.02-2.77 0-2.8zm2.2 1.8v-2.6h-.7v-.7h.7v-1.2h.8v1.2h.9v.7h-.9v2.5c0 .3.1.5.4.5c.2 0 .4-.1.5-.2l.2.6c-.2.2-.5.3-.9.3c-.7 0-1-.4-1-1.1zm4.7-5h2.6c1.2 0 1.9.9 1.9 1.9c0 1-.7 1.8-1.9 1.8h-1.7v2.3h-.9v-6zm2.5.8h-1.6v2.1h1.6c.6 0 1.1-.4 1.1-1c0-.7-.5-1.1-1.1-1.1zm5.3 4.7c-.3.4-.8.6-1.4.6c-.7 0-1.5-.5-1.5-1.4c0-1 .8-1.4 1.5-1.4c.6 0 1.1.1 1.4.5v-.7c0-.5-.4-.9-1.1-.9c-.5 0-.9.2-1.3.6l-.3-.5c.5-.5 1.1-.7 1.8-.7c.9 0 1.7.4 1.7 1.5c.02-.02 0 2.9 0 2.9h-.8v-.5zm0-1.2c-.2-.3-.7-.5-1.1-.5c-.6 0-1 .4-1 .9c0 .5.4.9 1 .9c.4 0 .9-.2 1.1-.5v-.8zm2-2.6h.8s.03.63 0 .6c.4-.4.9-.7 1.5-.7v.8h-.3c-.4 0-1 .3-1.2.6c.03-.01 0 3 0 3h-.8v-4.3zm4.4 2.4l-.6.7v1.2h-.8v-6h.8v3.9l2.1-2.2h1l-1.9 1.9l1.9 2.4h-1l-1.5-1.9z" stroke="none" fill="#282828"/></g><g id="Polygon106371"><path d="m19.2 151.2l-.7.8l-.4-.4l1.2-1.2h.5v4.7h-.6v-3.9zm1.6 2.9c.3.3.8.6 1.4.6c.6 0 1-.4 1-.9c0-.6-.4-.8-1.1-.8h-.5v-.5h.5c.6 0 1.1-.3 1.1-.8c0-.5-.5-.8-1.1-.8c-.5 0-.9.2-1.2.6l-.3-.4c.3-.4.8-.7 1.6-.7c.9 0 1.5.4 1.5 1.2c0 .7-.5 1-1 1.1c.5 0 1.1.4 1.1 1.1c0 .8-.6 1.4-1.6 1.4c-.8 0-1.4-.4-1.7-.8l.3-.3zm9.6-2.9l-1.6 3.9h-.2l-1.6-3.9v3.9h-.6v-4.7h.8l1.5 3.6l1.5-3.6h.8v4.7h-.6v-3.9zm1.6-.8h.6v4.7h-.6v-4.7zm1.6 0h.6v4.2h2.2v.5h-2.8v-4.7zm3.5 0h3.1v.6h-2.5v1.5h2.4v.5h-2.4v1.6h2.5v.5h-3.1v-4.7zm4 3.6c.3.4.8.7 1.5.7c.8 0 1.1-.5 1.1-.8c0-.6-.6-.7-1.2-.9c-.8-.2-1.6-.4-1.6-1.3c0-.8.7-1.3 1.6-1.3c.7 0 1.3.2 1.7.6l-.4.4c-.3-.3-.8-.5-1.3-.5c-.6 0-1 .3-1 .7c0 .5.5.6 1.1.8c.8.2 1.7.4 1.7 1.4c0 .7-.5 1.4-1.8 1.4c-.8 0-1.4-.3-1.8-.7l.4-.5zm5.7-3.6h3v.6h-2.4v1.5h2.4v.5h-2.4v2.1h-.6v-4.7zm5.3 2.9h-.9v1.8h-.6v-4.7s1.85.04 1.8 0c.9 0 1.5.6 1.5 1.4c0 .9-.6 1.3-1.2 1.4l1.3 1.9h-.7l-1.2-1.8zm.3-2.3c-.02-.04-1.2 0-1.2 0v1.7s1.18.04 1.2 0c.5 0 .9-.3.9-.9c0-.5-.4-.8-.9-.8zm4.5-.6c1.4 0 2.3 1 2.3 2.4c0 1.4-.9 2.4-2.3 2.4c-1.4 0-2.3-1-2.3-2.4c0-1.4.9-2.4 2.3-2.4zm0 .5c-1.1 0-1.7.8-1.7 1.9c0 1.1.6 1.9 1.7 1.9c1 0 1.7-.8 1.7-1.9c0-1.1-.7-1.9-1.7-1.9zm7.1.3l-1.6 3.9h-.2l-1.6-3.9v3.9h-.6v-4.7h.9l1.4 3.6l1.5-3.6h.8v4.7h-.6v-3.9zm3.4 2.8c.3.4.8.7 1.5.7c.8 0 1.1-.5 1.1-.8c0-.6-.6-.7-1.2-.9c-.7-.2-1.6-.4-1.6-1.3c0-.8.7-1.3 1.6-1.3c.8 0 1.3.2 1.7.6l-.4.4c-.3-.3-.8-.5-1.3-.5c-.6 0-1 .3-1 .7c0 .5.6.6 1.2.8c.7.2 1.6.4 1.6 1.4c0 .7-.5 1.4-1.7 1.4c-.8 0-1.4-.3-1.8-.7l.3-.5zm4-3.6h.6s-.02 2.88 0 2.9c0 .8.4 1.4 1.3 1.4c.9 0 1.3-.6 1.3-1.4c.03-.02 0-2.9 0-2.9h.6v2.9c0 1.2-.6 1.9-1.9 1.9c-1.3 0-1.9-.8-1.9-1.9v-2.9zm4.8 0s2.11.04 2.1 0c.8 0 1.3.5 1.3 1.2c0 .6-.4 1-.8 1.1c.5.1.9.6.9 1.1c0 .8-.5 1.3-1.3 1.3c-.04.01-2.2 0-2.2 0v-4.7zm2 2.1c.5 0 .8-.4.8-.8c0-.4-.3-.7-.8-.7c.01-.04-1.4 0-1.4 0v1.5s1.41-.04 1.4 0zm0 2.1c.6 0 .9-.3.9-.8c0-.4-.3-.8-.9-.8c.04-.02-1.4 0-1.4 0v1.6h1.4zm2.2-.4c.2.3.5.5.9.5c.6 0 .9-.4.9-1c.02 0 0-3.3 0-3.3h.6v3.3c0 1-.7 1.5-1.5 1.5c-.5 0-.9-.2-1.2-.5l.3-.5zm3.4-3.8h3.1v.6h-2.5v1.5h2.4v.5h-2.4v1.6h2.5v.5h-3.1v-4.7zm3.7 2.4c0-1.5 1.1-2.4 2.4-2.4c.9 0 1.4.4 1.8.9l-.5.3c-.2-.4-.7-.7-1.3-.7c-1 0-1.8.8-1.8 1.9c0 1.1.8 1.9 1.8 1.9c.6 0 1.1-.3 1.3-.7l.5.3c-.4.5-.9.9-1.8.9c-1.3 0-2.4-1-2.4-2.4zm6.1-1.8h-1.5v-.6h3.5v.6h-1.5v4.1h-.5V151zm4.5-.6s1.83.04 1.8 0c1 0 1.5.7 1.5 1.4c0 .8-.5 1.5-1.5 1.5c.03-.05-1.3 0-1.3 0v1.8h-.5v-4.7zm1.8.6c-.04-.04-1.3 0-1.3 0v1.7s1.26.04 1.3 0c.5 0 .9-.3.9-.9c0-.5-.4-.8-.9-.8zm3.7 2.3h-.9v1.8h-.6v-4.7s1.87.04 1.9 0c.8 0 1.4.6 1.4 1.4c0 .9-.5 1.3-1.2 1.4c.02.01 1.3 1.9 1.3 1.9h-.7l-1.2-1.8zm.3-2.3c0-.04-1.2 0-1.2 0v1.7s1.2.04 1.2 0c.5 0 .9-.3.9-.9c0-.5-.4-.8-.9-.8zm4.5-.6c1.4 0 2.3 1 2.3 2.4c0 1.4-.9 2.4-2.3 2.4c-1.4 0-2.3-1-2.3-2.4c0-1.4.9-2.4 2.3-2.4zm0 .5c-1 0-1.7.8-1.7 1.9c0 1.1.7 1.9 1.7 1.9c1 0 1.7-.8 1.7-1.9c0-1.1-.7-1.9-1.7-1.9zm3.2-.5s1.84.04 1.8 0c1 0 1.5.7 1.5 1.4c0 .8-.5 1.5-1.5 1.5c.04-.05-1.3 0-1.3 0v1.8h-.5v-4.7zm1.8.6c-.03-.04-1.3 0-1.3 0v1.7s1.27.04 1.3 0c.5 0 .9-.3.9-.9c0-.5-.4-.8-.9-.8zm2.2-.6h3.1v.6h-2.5v1.5h2.4v.5h-2.4v1.6h2.5v.5h-3.1v-4.7zm5.4 2.9h-.9v1.8h-.6v-4.7s1.89.04 1.9 0c.8 0 1.5.6 1.5 1.4c0 .9-.6 1.3-1.3 1.4c.04.01 1.3 1.9 1.3 1.9h-.7l-1.2-1.8zm.3-2.3c.02-.04-1.2 0-1.2 0v1.7s1.22.04 1.2 0c.6 0 1-.3 1-.9c0-.5-.4-.8-1-.8zm3.5 0h-1.5v-.6h3.5v.6h-1.4v4.1h-.6V151zm4.1 2.1l-1.8-2.7h.6l1.5 2.2l1.4-2.2h.7l-1.8 2.7v2h-.6v-2z" stroke="none" fill="#888888"/></g><g id="Polygon106370"><path d="m19.7 138.3l-1 1l-.5-.5l1.6-1.7h.8v6h-.9v-4.8zm2.6 3.5c.3.4.6.6 1.2.6c1.2 0 1.7-1.1 1.7-2.2v-.2c-.3.4-.9.9-1.7.9c-1.1 0-2-.6-2-1.9c0-1.1.9-2 2.2-2c1.7 0 2.4 1.5 2.4 3.1c0 1.7-.8 3.1-2.6 3.1c-.7 0-1.3-.3-1.6-.7l.4-.7zm1.4-4c-.8 0-1.3.6-1.3 1.2c0 .8.6 1.1 1.4 1.1c.5 0 1-.3 1.4-.8c-.1-.6-.5-1.5-1.5-1.5zm10.8.5l-2 4.8h-.3l-2-4.8v4.8h-.9v-6h1.3l1.7 4.3l1.8-4.3h1.3v6h-.9v-4.8zm2-.8c0-.3.2-.5.5-.5c.3 0 .5.2.5.5c0 .3-.2.5-.5.5c-.3 0-.5-.2-.5-.5zm.1 1.3h.8v4.3h-.8v-4.3zm4.9 1.5c0-.7-.3-.9-.9-.9c-.5 0-.9.3-1.2.6c.02 0 0 3.1 0 3.1h-.8v-4.3h.8s.02.57 0 .6c.3-.4.9-.7 1.6-.7c.9 0 1.4.4 1.4 1.4c-.05-.04 0 3 0 3h-.9s.04-2.77 0-2.8zm4.3-3.2h2.1c1.9 0 3.2 1.3 3.2 3c0 1.8-1.3 3-3.2 3h-2.1v-6zm2.1 5.2c1.4 0 2.2-1 2.2-2.2c0-1.2-.7-2.2-2.2-2.2h-1.2v4.4s1.24.02 1.2 0zm4.1-3.5h.8s.05.63 0 .6c.4-.4.9-.7 1.5-.7v.8h-.3c-.4 0-1 .3-1.2.6c.05-.01 0 3 0 3h-.8v-4.3zm2.9-1.3c0-.3.2-.5.5-.5c.3 0 .5.2.5.5c0 .3-.2.5-.5.5c-.3 0-.5-.2-.5-.5zm.1 1.3h.8v4.3h-.8v-4.3zm1.4 0h.8l1.4 3.4l1.3-3.4h.9l-1.8 4.3h-.9l-1.7-4.3zm6.9-.1c1.3 0 2.1 1 2.1 2.3v.2H62c0 .7.6 1.4 1.4 1.4c.5 0 1-.2 1.3-.6l.4.6c-.4.4-1 .6-1.7.6c-1.3 0-2.3-.9-2.3-2.3c0-1.2.9-2.2 2.2-2.2zm-1.3 1.9h2.6c0-.6-.4-1.3-1.3-1.3c-.9 0-1.3.7-1.3 1.3z" stroke="none" fill="#282828"/></g><g id="Polygon106369"><path d="m.7 129.7c.4.4 1 .7 1.7.7c.8 0 1.3-.4 1.3-1c0-.7-.5-1-1.4-1c-.2 0-.5 0-.6.1v-.9h.6c.8 0 1.3-.2 1.3-.8c0-.7-.5-1-1.2-1c-.7 0-1.2.3-1.6.7l-.5-.5c.5-.6 1.2-1 2.1-1c1.3 0 2.1.6 2.1 1.6c0 .9-.7 1.3-1.3 1.4c.6.1 1.4.5 1.4 1.5c0 1-.8 1.7-2.2 1.7c-1 0-1.8-.4-2.2-1l.5-.5zm5.4.4c.3 0 .5.2.5.5c0 .3-.2.6-.5.6c-.3 0-.6-.3-.6-.6c0-.3.3-.5.6-.5zm14-4.2h-1.8v-.8h4.6v.8H21v5.2h-.9v-5.2zm6.5 2.4c0-.7-.3-.9-.9-.9c-.5 0-.9.3-1.2.6c.02 0 0 3.1 0 3.1h-.8v-6h.8s.02 2.27 0 2.3c.3-.4.9-.7 1.6-.7c.9 0 1.4.4 1.4 1.3c-.04.04 0 3.1 0 3.1h-.9s.05-2.79 0-2.8zm4-1.6c1.3 0 2.1 1 2.1 2.3v.2h-3.5c.1.7.7 1.4 1.5 1.4c.5 0 1-.2 1.3-.6l.4.6c-.4.4-1.1.6-1.8.6c-1.3 0-2.2-.9-2.2-2.3c0-1.2.9-2.2 2.2-2.2zm-1.4 1.9h2.7c0-.6-.4-1.3-1.3-1.3c-.9 0-1.3.7-1.4 1.3zm6.4-.5c0-1.8 1.4-3.1 3.1-3.1c1.2 0 1.9.6 2.4 1.3l-.8.4c-.3-.5-.9-.9-1.6-.9c-1.2 0-2.2 1-2.2 2.3c0 1.4 1 2.3 2.2 2.3c.7 0 1.3-.4 1.6-.9l.8.4c-.5.8-1.2 1.3-2.4 1.3c-1.7 0-3.1-1.2-3.1-3.1zm9.2.2c0-.7-.4-.9-.9-.9c-.5 0-1 .3-1.2.6c-.02 0 0 3.1 0 3.1h-.8v-6h.8s-.02 2.27 0 2.3c.3-.4.9-.7 1.5-.7c.9 0 1.4.4 1.4 1.3v3.1h-.8v-2.8zm4.7 2.3c-.3.4-.8.6-1.4.6c-.7 0-1.5-.5-1.5-1.4c0-1 .7-1.4 1.5-1.4c.6 0 1.1.1 1.4.5v-.7c0-.5-.4-.9-1.1-.9c-.5 0-.9.2-1.3.6l-.3-.5c.5-.5 1.1-.7 1.8-.7c.9 0 1.7.4 1.7 1.5v2.9h-.8v-.5zm0-1.2c-.2-.3-.7-.5-1.1-.5c-.6 0-1 .4-1 .9c0 .5.4.9 1 .9c.4 0 .9-.2 1.1-.5v-.8zm2-2.6h.8s.03.63 0 .6c.4-.4.9-.7 1.4-.7v.8h-.2c-.4 0-1 .3-1.2.6c.03-.01 0 3 0 3h-.8v-4.3zm3-1.7h.8v6h-.8v-6zm3.9 1.6c1.3 0 2.1 1 2.1 2.3v.2h-3.4c0 .7.6 1.4 1.4 1.4c.5 0 1-.2 1.3-.6l.4.6c-.4.4-1 .6-1.7.6c-1.3 0-2.3-.9-2.3-2.3c0-1.2.9-2.2 2.2-2.2zm-1.3 1.9h2.6c0-.6-.4-1.3-1.3-1.3c-.9 0-1.3.7-1.3 1.3zm4.3 1.3c.3.4.9.7 1.5.7c.6 0 .9-.3.9-.7c0-.4-.5-.5-1-.7c-.8-.1-1.6-.3-1.6-1.3c0-.7.6-1.2 1.6-1.2c.8 0 1.3.2 1.7.6l-.4.5c-.2-.3-.7-.5-1.3-.5c-.5 0-.9.2-.9.6c0 .4.5.5 1.1.6c.7.2 1.6.4 1.6 1.4c0 .7-.6 1.3-1.7 1.3c-.8 0-1.4-.2-1.9-.7l.4-.6zm4.3.2v-2.6h-.7v-.7h.7v-1.2h.8v1.2h.9v.7h-.9s.02 2.47 0 2.5c0 .3.2.5.4.5c.2 0 .4-.1.5-.2l.2.6c-.2.2-.4.3-.9.3c-.6 0-1-.4-1-1.1zm2.2-1.2c0-1.2.9-2.2 2.2-2.2c1.4 0 2.2 1 2.2 2.2c0 1.3-.8 2.3-2.2 2.3c-1.3 0-2.2-1-2.2-2.3zm3.6 0c0-.8-.5-1.5-1.4-1.5c-.8 0-1.3.7-1.3 1.5c0 .9.5 1.6 1.3 1.6c.9 0 1.4-.7 1.4-1.6zm4.7-.6c0-.7-.4-.9-.9-.9c-.5 0-1 .3-1.2.6c-.02 0 0 3.1 0 3.1h-.8v-4.3h.8s-.02.57 0 .6c.3-.4.8-.7 1.5-.7c.9 0 1.4.4 1.4 1.4v3h-.8v-2.8zm9.4-2l-1.9 4.8h-.4l-1.9-4.8v4.8h-.9v-6h1.2l1.8 4.3l1.7-4.3h1.3v6h-.9v-4.8zm5.1 4.2c-.3.4-.9.7-1.6.7c-.9 0-1.4-.4-1.4-1.4c.05.03 0-3 0-3h.9s-.04 2.76 0 2.8c0 .7.3.9.9.9c.5 0 .9-.3 1.2-.6c-.02-.01 0-3.1 0-3.1h.8v4.3h-.8s-.02-.58 0-.6zm2-.6c.3.4.9.7 1.5.7c.6 0 .9-.3.9-.7c0-.4-.5-.5-1.1-.7c-.7-.1-1.6-.3-1.6-1.3c0-.7.6-1.2 1.7-1.2c.7 0 1.3.2 1.6.6l-.3.5c-.3-.3-.7-.5-1.3-.5c-.5 0-.9.2-.9.6c0 .4.5.5 1 .6c.8.2 1.7.4 1.7 1.4c0 .7-.6 1.3-1.8 1.3c-.7 0-1.3-.2-1.8-.7l.4-.6zm6-3.2c1.3 0 2.1 1 2.1 2.3c.03 0 0 .2 0 .2h-3.4c.1.7.6 1.4 1.5 1.4c.4 0 .9-.2 1.3-.6l.3.6c-.4.4-1 .6-1.7.6c-1.3 0-2.3-.9-2.3-2.3c0-1.2 1-2.2 2.2-2.2zm-1.3 1.9h2.6c0-.6-.4-1.3-1.3-1.3c-.9 0-1.3.7-1.3 1.3zm7.3 1.9c-.3.4-.9.7-1.6.7c-.9 0-1.3-.4-1.3-1.4c-.04.03 0-3 0-3h.8s-.03 2.76 0 2.8c0 .7.3.9.9.9c.5 0 1-.3 1.2-.6v-3.1h.8v4.3h-.8v-.6zm7.3-2.3c0-.5-.2-.8-.8-.8c-.4 0-.8.3-1.1.6c.05 0 0 3.1 0 3.1h-.8s.04-2.89 0-2.9c0-.5-.2-.8-.7-.8c-.4 0-.9.3-1.1.6v3.1h-.8v-4.3h.8v.6c.2-.3.8-.7 1.4-.7c.7 0 1.1.3 1.2.8c.2-.4.8-.8 1.5-.8c.8 0 1.2.4 1.2 1.3v3.1h-.8v-2.9z" stroke="none" fill="#282828"/></g><g id="Polygon106368"><path d="m19.2 89.2l-.7.8l-.4-.4l1.2-1.2h.5v4.7h-.6v-3.9zm1.6 2.9c.3.3.8.6 1.4.6c.6 0 1-.4 1-.9c0-.6-.4-.8-1.1-.8h-.5v-.5h.5c.6 0 1.1-.3 1.1-.8c0-.5-.5-.8-1.1-.8c-.5 0-.9.2-1.2.6l-.3-.4c.3-.4.8-.7 1.6-.7c.9 0 1.5.4 1.5 1.2c0 .7-.5 1-1 1.1c.5 0 1.1.4 1.1 1.1c0 .8-.6 1.4-1.6 1.4c-.8 0-1.4-.4-1.7-.8l.3-.3zm4.1.3c.2 0 .4.2.4.4c0 .2-.2.4-.4.4c-.2 0-.3-.2-.3-.4c0-.2.1-.4.3-.4zm1.6-.3c.3.4.7.6 1.3.6c.6 0 1.1-.5 1.1-1c0-.6-.5-1-1.1-1c-.4 0-.8.1-1.1.4l-.4-.1v-2.6h2.8v.6h-2.2s-.04 1.58 0 1.6c.2-.2.6-.4 1.1-.4c.7 0 1.4.5 1.4 1.5c0 .9-.7 1.5-1.6 1.5c-.8 0-1.3-.3-1.7-.8l.4-.3zm9.5-2.9l-1.6 3.9h-.2l-1.6-3.9v3.9h-.6v-4.7h.8l1.5 3.6l1.5-3.6h.8v4.7h-.6v-3.9zm1.6-.8h.6v4.7h-.6v-4.7zm1.6 0h.6v4.2h2.2v.5h-2.8v-4.7zm3.5 0h3.1v.6h-2.5v1.5h2.4v.5h-2.4v1.6h2.5v.5h-3.1v-4.7zm4 3.6c.3.4.8.7 1.5.7c.8 0 1.1-.5 1.1-.8c0-.6-.6-.7-1.2-.9c-.8-.2-1.6-.4-1.6-1.3c0-.8.7-1.3 1.6-1.3c.7 0 1.3.2 1.7.6l-.4.4c-.3-.3-.8-.5-1.3-.5c-.6 0-1 .3-1 .7c0 .5.5.6 1.1.8c.8.2 1.7.4 1.7 1.4c0 .7-.5 1.4-1.8 1.4c-.8 0-1.4-.3-1.8-.7l.4-.5zm5.7-3.6h3v.6H53v1.5h2.4v.5H53v2.1h-.6v-4.7zm5.3 2.9h-.9v1.8h-.6v-4.7s1.85.04 1.8 0c.9 0 1.5.6 1.5 1.4c0 .9-.6 1.3-1.2 1.4l1.3 1.9h-.7l-1.2-1.8zM58 89c-.02-.04-1.2 0-1.2 0v1.7s1.18.04 1.2 0c.5 0 .9-.3.9-.9c0-.5-.4-.8-.9-.8zm4.5-.6c1.4 0 2.3 1 2.3 2.4c0 1.4-.9 2.4-2.3 2.4c-1.4 0-2.3-1-2.3-2.4c0-1.4.9-2.4 2.3-2.4zm0 .5c-1.1 0-1.7.8-1.7 1.9c0 1.1.6 1.9 1.7 1.9c1 0 1.7-.8 1.7-1.9c0-1.1-.7-1.9-1.7-1.9zm7.1.3L68 93.1h-.2l-1.6-3.9v3.9h-.6v-4.7h.9l1.4 3.6l1.5-3.6h.8v4.7h-.6v-3.9zM73 92c.3.4.8.7 1.5.7c.8 0 1.1-.5 1.1-.8c0-.6-.6-.7-1.2-.9c-.7-.2-1.6-.4-1.6-1.3c0-.8.7-1.3 1.6-1.3c.8 0 1.3.2 1.7.6l-.4.4c-.3-.3-.8-.5-1.3-.5c-.6 0-1 .3-1 .7c0 .5.6.6 1.2.8c.7.2 1.6.4 1.6 1.4c0 .7-.5 1.4-1.7 1.4c-.8 0-1.4-.3-1.8-.7l.3-.5zm4-3.6h.6s-.02 2.88 0 2.9c0 .8.4 1.4 1.3 1.4c.9 0 1.3-.6 1.3-1.4c.03-.02 0-2.9 0-2.9h.6v2.9c0 1.2-.6 1.9-1.9 1.9c-1.3 0-1.9-.8-1.9-1.9v-2.9zm4.8 0s2.11.04 2.1 0c.8 0 1.3.5 1.3 1.2c0 .6-.4 1-.8 1.1c.5.1.9.6.9 1.1c0 .8-.5 1.3-1.3 1.3c-.04.01-2.2 0-2.2 0v-4.7zm2 2.1c.5 0 .8-.4.8-.8c0-.4-.3-.7-.8-.7c.01-.04-1.4 0-1.4 0v1.5s1.41-.04 1.4 0zm0 2.1c.6 0 .9-.3.9-.8c0-.4-.3-.8-.9-.8c.04-.02-1.4 0-1.4 0v1.6h1.4zm2.2-.4c.2.3.5.5.9.5c.6 0 .9-.4.9-1c.02 0 0-3.3 0-3.3h.6v3.3c0 1-.7 1.5-1.5 1.5c-.5 0-.9-.2-1.2-.5l.3-.5zm3.4-3.8h3.1v.6H90v1.5h2.4v.5H90v1.6h2.5v.5h-3.1v-4.7zm3.7 2.4c0-1.5 1.1-2.4 2.4-2.4c.9 0 1.4.4 1.8.9l-.5.3c-.2-.4-.7-.7-1.3-.7c-1 0-1.8.8-1.8 1.9c0 1.1.8 1.9 1.8 1.9c.6 0 1.1-.3 1.3-.7l.5.3c-.4.5-.9.9-1.8.9c-1.3 0-2.4-1-2.4-2.4zm6.1-1.8h-1.5v-.6h3.5v.6h-1.5v4.1h-.5V89zm4.5-.6s1.83.04 1.8 0c1 0 1.5.7 1.5 1.4c0 .8-.5 1.5-1.5 1.5c.03-.05-1.3 0-1.3 0v1.8h-.5v-4.7zm1.8.6c-.04-.04-1.3 0-1.3 0v1.7s1.26.04 1.3 0c.5 0 .9-.3.9-.9c0-.5-.4-.8-.9-.8zm3.7 2.3h-.9v1.8h-.6v-4.7s1.87.04 1.9 0c.8 0 1.4.6 1.4 1.4c0 .9-.5 1.3-1.2 1.4c.02.01 1.3 1.9 1.3 1.9h-.7l-1.2-1.8zm.3-2.3c0-.04-1.2 0-1.2 0v1.7s1.2.04 1.2 0c.5 0 .9-.3.9-.9c0-.5-.4-.8-.9-.8zm4.5-.6c1.4 0 2.3 1 2.3 2.4c0 1.4-.9 2.4-2.3 2.4c-1.4 0-2.3-1-2.3-2.4c0-1.4.9-2.4 2.3-2.4zm0 .5c-1 0-1.7.8-1.7 1.9c0 1.1.7 1.9 1.7 1.9c1 0 1.7-.8 1.7-1.9c0-1.1-.7-1.9-1.7-1.9zm3.2-.5s1.84.04 1.8 0c1 0 1.5.7 1.5 1.4c0 .8-.5 1.5-1.5 1.5c.04-.05-1.3 0-1.3 0v1.8h-.5v-4.7zm1.8.6c-.03-.04-1.3 0-1.3 0v1.7s1.27.04 1.3 0c.5 0 .9-.3.9-.9c0-.5-.4-.8-.9-.8zm2.2-.6h3.1v.6h-2.5v1.5h2.4v.5h-2.4v1.6h2.5v.5h-3.1v-4.7zm5.4 2.9h-.9v1.8h-.6v-4.7s1.89.04 1.9 0c.8 0 1.5.6 1.5 1.4c0 .9-.6 1.3-1.3 1.4c.04.01 1.3 1.9 1.3 1.9h-.7l-1.2-1.8zm.3-2.3c.02-.04-1.2 0-1.2 0v1.7s1.22.04 1.2 0c.6 0 .9-.3.9-.9c0-.5-.3-.8-.9-.8zm3.5 0h-1.5v-.6h3.5v.6H131v4.1h-.6V89zm4.1 2.1l-1.8-2.7h.6l1.5 2.2l1.4-2.2h.7l-1.8 2.7v2h-.6v-2z" stroke="none" fill="#888888"/></g><g id="Polygon106367"><path d="m18.5 80.4c2.2-1.7 3.3-2.6 3.3-3.6c0-.7-.6-1-1.2-1c-.7 0-1.3.3-1.6.8l-.6-.6c.5-.6 1.3-1 2.2-1c1.1 0 2.1.6 2.1 1.8c0 1.2-1.2 2.2-2.8 3.5c0 .02 2.8 0 2.8 0v.8h-4.2s-.03-.7 0-.7zM26 75c1.7 0 2.3 1.6 2.3 3.1c0 1.5-.6 3.1-2.3 3.1c-1.7 0-2.4-1.6-2.4-3.1c0-1.5.7-3.1 2.4-3.1zm0 .8c-1.1 0-1.4 1.1-1.4 2.3c0 1.2.3 2.3 1.4 2.3c1.1 0 1.4-1.1 1.4-2.3c0-1.2-.3-2.3-1.4-2.3zm10.7.5l-1.9 4.8h-.4l-1.9-4.8v4.8h-.9v-6h1.2l1.8 4.3l1.7-4.3h1.3v6h-.9v-4.8zm2-.8c0-.3.3-.5.5-.5c.3 0 .6.2.6.5c0 .3-.3.5-.6.5c-.2 0-.5-.2-.5-.5zm.2 1.3h.8v4.3h-.8v-4.3zm4.9 1.5c0-.7-.4-.9-.9-.9c-.5 0-1 .3-1.2.6c-.03 0 0 3.1 0 3.1h-.8v-4.3h.8s-.03.57 0 .6c.3-.4.8-.7 1.5-.7c.9 0 1.4.4 1.4 1.4v3h-.8v-2.8zm4.3-3.2h2.1c1.9 0 3.1 1.3 3.1 3c0 1.8-1.2 3-3.1 3h-2.1v-6zm2.1 5.2c1.4 0 2.2-1 2.2-2.2c0-1.2-.8-2.2-2.2-2.2h-1.3v4.4s1.29.02 1.3 0zm4.1-3.5h.8v.6c.3-.4.8-.7 1.4-.7v.8h-.3c-.4 0-.9.3-1.1.6v3h-.8v-4.3zm2.8-1.3c0-.3.3-.5.5-.5c.3 0 .6.2.6.5c0 .3-.3.5-.6.5c-.2 0-.5-.2-.5-.5zm.1 1.3h.8v4.3h-.8v-4.3zm1.4 0h.9l1.3 3.4l1.4-3.4h.9l-1.8 4.3h-.9l-1.8-4.3zm6.9-.1c1.3 0 2.2 1 2.2 2.3c-.05 0 0 .2 0 .2h-3.5c.1.7.6 1.4 1.5 1.4c.4 0 1-.2 1.3-.6l.4.6c-.5.4-1.1.6-1.8.6c-1.3 0-2.2-.9-2.2-2.3c0-1.2.9-2.2 2.1-2.2zm-1.3 1.9h2.7c-.1-.6-.4-1.3-1.4-1.3c-.8 0-1.3.7-1.3 1.3z" stroke="none" fill="#282828"/></g><g id="Polygon106366"><path d="m.5 68.4c2.2-1.7 3.3-2.6 3.3-3.6c0-.7-.6-1-1.2-1c-.7 0-1.3.3-1.6.8L.4 64c.5-.6 1.3-1 2.2-1c1.1 0 2.1.6 2.1 1.8c0 1.2-1.2 2.2-2.8 3.5c0 .02 2.8 0 2.8 0v.8H.5s-.03-.7 0-.7zm5.8-.3c.3 0 .6.2.6.5c0 .3-.3.6-.6.6c-.3 0-.6-.3-.6-.6c0-.3.3-.5.6-.5zm12.5-.5c.4.4 1.1.8 1.9.8c1 0 1.3-.5 1.3-.9c0-.6-.7-.8-1.4-1c-1-.3-2.1-.5-2.1-1.8c0-1 .9-1.7 2.1-1.7c.9 0 1.7.3 2.2.9l-.5.6c-.5-.5-1.1-.7-1.8-.7c-.6 0-1.1.4-1.1.9c0 .5.7.7 1.4.9c1 .2 2.1.5 2.1 1.8c0 .9-.6 1.8-2.2 1.8c-1.1 0-1.9-.4-2.4-.9l.5-.7zm4.8-.7c0-1.2.8-2.2 2.2-2.2c1.4 0 2.2 1 2.2 2.2c0 1.3-.8 2.3-2.2 2.3c-1.4 0-2.2-1-2.2-2.3zm3.5 0c0-.8-.4-1.5-1.3-1.5c-.9 0-1.4.7-1.4 1.5c0 .9.5 1.6 1.4 1.6c.9 0 1.3-.7 1.3-1.6zm4.8 1.6c-.4.4-.9.7-1.6.7c-.9 0-1.4-.4-1.4-1.4c.03.03 0-3 0-3h.8s.04 2.76 0 2.8c0 .7.4.9 1 .9c.5 0 .9-.3 1.2-.6c-.04-.01 0-3.1 0-3.1h.8v4.3h-.8s-.04-.58 0-.6zm2.1-.4c.03.05 0-2.6 0-2.6h-.7v-.7h.7v-1.2h.8v1.2h.9v.7h-.9s.04 2.47 0 2.5c0 .3.2.5.5.5c.2 0 .3-.1.4-.2l.2.6c-.2.2-.4.3-.8.3c-.7 0-1.1-.4-1.1-1.1zm5.5-1.8c0-.7-.4-.9-1-.9c-.5 0-.9.3-1.2.6c.04 0 0 3.1 0 3.1h-.8v-6h.8s.04 2.27 0 2.3c.3-.4.9-.7 1.6-.7c.9 0 1.4.4 1.4 1.3c-.03.04 0 3.1 0 3.1h-.8s-.03-2.79 0-2.8zm4-.2c0-1.8 1.3-3.1 3.1-3.1c1.1 0 1.9.6 2.3 1.3l-.7.4c-.3-.5-.9-.9-1.6-.9c-1.3 0-2.2 1-2.2 2.3c0 1.4.9 2.3 2.2 2.3c.7 0 1.3-.4 1.6-.9l.7.4c-.4.8-1.2 1.3-2.3 1.3c-1.8 0-3.1-1.2-3.1-3.1zm8.9 2.5c-.3.4-.8.6-1.4.6c-.7 0-1.5-.5-1.5-1.4c0-1 .8-1.4 1.5-1.4c.6 0 1.1.1 1.4.5v-.7c0-.5-.4-.9-1-.9c-.5 0-1 .2-1.4.6l-.3-.5c.5-.5 1.1-.7 1.8-.7c.9 0 1.7.4 1.7 1.5c.03-.02 0 2.9 0 2.9h-.8s.02-.47 0-.5zm0-1.2c-.2-.3-.7-.5-1.1-.5c-.6 0-1 .4-1 .9c0 .5.4.9 1 .9c.4 0 .9-.2 1.1-.5v-.8zm2-2.6h.8s.04.63 0 .6c.4-.4.9-.7 1.5-.7v.8h-.3c-.4 0-1 .3-1.2.6c.04-.01 0 3 0 3h-.8v-4.3zm2.7 2.1c0-1.2.9-2.2 2.2-2.2c1.4 0 2.2 1 2.2 2.2c0 1.3-.8 2.3-2.2 2.3c-1.3 0-2.2-1-2.2-2.3zm3.6 0c0-.8-.5-1.5-1.4-1.5c-.9 0-1.3.7-1.3 1.5c0 .9.4 1.6 1.3 1.6c.9 0 1.4-.7 1.4-1.6zm1.7-3.8h.9v6h-.9v-6zm1.9.4c0-.3.3-.5.5-.5c.3 0 .6.2.6.5c0 .3-.3.5-.6.5c-.2 0-.5-.2-.5-.5zm.1 1.3h.9v4.3h-.9v-4.3zm5 1.5c0-.7-.4-.9-.9-.9c-.5 0-1 .3-1.2.6c-.04 0 0 3.1 0 3.1h-.8v-4.3h.8s-.04.57 0 .6c.3-.4.8-.7 1.5-.7c.9 0 1.4.4 1.4 1.4v3h-.8v-2.8zm4.7 2.3c-.4.4-.9.6-1.4.6c-.8 0-1.6-.5-1.6-1.4c0-1 .8-1.4 1.6-1.4c.5 0 1 .1 1.4.5v-.7c0-.5-.5-.9-1.1-.9c-.5 0-.9.2-1.3.6l-.3-.5c.4-.5 1-.7 1.7-.7c1 0 1.8.4 1.8 1.5v2.9h-.8s-.02-.47 0-.5zm0-1.2c-.3-.3-.7-.5-1.1-.5c-.6 0-1 .4-1 .9c0 .5.4.9 1 .9c.4 0 .8-.2 1.1-.5v-.8zm8 .5h-2.9l-.5 1.2h-1l2.4-6h1.1l2.4 6h-1l-.5-1.2zm-2.6-.8h2.4l-1.2-3.2l-1.2 3.2zm7.8 3.7s.03-2.32 0-2.3c-.3.5-.8.7-1.4.7c-1.1 0-1.9-.8-1.9-2.3c0-1.4.8-2.2 1.9-2.2c.6 0 1.1.3 1.4.7c.03-.02 0-.6 0-.6h.8v6h-.8zm0-4.8c-.2-.3-.7-.6-1.2-.6c-.8 0-1.3.6-1.3 1.5c0 .9.5 1.6 1.3 1.6c.5 0 1-.3 1.2-.6V66zm5 2.5c-.4.4-.9.7-1.6.7c-.9 0-1.4-.4-1.4-1.4c.03.03 0-3 0-3h.8s.04 2.76 0 2.8c0 .7.4.9 1 .9c.5 0 .9-.3 1.2-.6c-.03-.01 0-3.1 0-3.1h.8v4.3h-.8s-.03-.58 0-.6zm4.7.1c-.4.4-.9.6-1.5.6c-.7 0-1.5-.5-1.5-1.4c0-1 .8-1.4 1.5-1.4c.6 0 1.1.1 1.5.5v-.7c0-.5-.5-.9-1.1-.9c-.5 0-.9.2-1.3.6l-.4-.5c.5-.5 1.1-.7 1.8-.7c1 0 1.8.4 1.8 1.5c-.03-.02 0 2.9 0 2.9h-.8s-.04-.47 0-.5zm0-1.2c-.3-.3-.7-.5-1.2-.5c-.5 0-1 .4-1 .9c0 .5.5.9 1 .9c.5 0 .9-.2 1.2-.5v-.8zm2-2.6h.8s-.02.63 0 .6c.3-.4.8-.7 1.4-.7v.8h-.3c-.4 0-.9.3-1.1.6c-.02-.01 0 3 0 3h-.8v-4.3zm2.8-1.3c0-.3.2-.5.5-.5c.3 0 .5.2.5.5c0 .3-.2.5-.5.5c-.3 0-.5-.2-.5-.5zm.1 1.3h.8v4.3h-.8v-4.3zm5 3.7c-.4.4-.9.7-1.6.7c-.9 0-1.4-.4-1.4-1.4c.03.03 0-3 0-3h.8s.04 2.76 0 2.8c0 .7.4.9 1 .9c.5 0 .9-.3 1.2-.6c-.03-.01 0-3.1 0-3.1h.8v4.3h-.8s-.03-.58 0-.6zm7.3-2.3c0-.5-.3-.8-.8-.8c-.4 0-.9.3-1.1.6c.02 0 0 3.1 0 3.1h-.8v-2.9c0-.5-.2-.8-.8-.8c-.4 0-.8.3-1 .6c-.02 0 0 3.1 0 3.1h-.8v-4.3h.8s-.02.57 0 .6c.2-.3.7-.7 1.4-.7c.6 0 1 .3 1.2.8c.2-.4.8-.8 1.4-.8c.8 0 1.3.4 1.3 1.3c-.04-.03 0 3.1 0 3.1h-.8s-.04-2.89 0-2.9z" stroke="none" fill="#282828"/></g><g id="Polygon106365"><path d="m19.2 27.2l-.7.8l-.4-.4l1.2-1.2h.5v4.7h-.6v-3.9zm1.9 2.9c.3.4.7.6 1.3.6c.6 0 1.1-.5 1.1-1c0-.6-.5-1-1.1-1c-.4 0-.7.1-1.1.4l-.4-.1v-2.6h2.9v.6h-2.3v1.6c.2-.2.6-.4 1.1-.4c.8 0 1.5.5 1.5 1.5c0 .9-.8 1.5-1.7 1.5c-.8 0-1.3-.3-1.6-.8l.3-.3zm4.1.3c.2 0 .4.2.4.4c0 .2-.2.4-.4.4c-.2 0-.4-.2-.4-.4c0-.2.2-.4.4-.4zm3-3.4h-2.5v-.6h3.1v.4l-1.9 4.3h-.6l1.9-4.1zm7 .2l-1.5 3.9h-.3l-1.6-3.9v3.9h-.5v-4.7h.8l1.4 3.6l1.5-3.6h.8v4.7h-.6v-3.9zm1.7-.8h.5v4.7h-.5v-4.7zm1.6 0h.5v4.2h2.2v.5h-2.7v-4.7zm3.5 0h3v.6h-2.5v1.5h2.5v.5h-2.5v1.6h2.5v.5h-3v-4.7zm3.9 3.6c.3.4.8.7 1.5.7c.8 0 1.1-.5 1.1-.8c0-.6-.6-.7-1.2-.9c-.7-.2-1.6-.4-1.6-1.3c0-.8.7-1.3 1.6-1.3c.8 0 1.3.2 1.7.6l-.4.4c-.3-.3-.8-.5-1.3-.5c-.6 0-1 .3-1 .7c0 .5.6.6 1.2.8c.7.2 1.6.4 1.6 1.4c0 .7-.5 1.4-1.7 1.4c-.8 0-1.4-.3-1.8-.7l.3-.5zm5.7-3.6h3.1v.6h-2.5v1.5h2.4v.5h-2.4v2.1h-.6v-4.7zm5.3 2.9h-.9v1.8h-.6v-4.7s1.89.04 1.9 0c.8 0 1.5.6 1.5 1.4c0 .9-.6 1.3-1.3 1.4c.04.01 1.3 1.9 1.3 1.9h-.7l-1.2-1.8zm.3-2.3c.02-.04-1.2 0-1.2 0v1.7s1.22.04 1.2 0c.6 0 1-.3 1-.9c0-.5-.4-.8-1-.8zm4.5-.6c1.4 0 2.3 1 2.3 2.4c0 1.4-.9 2.4-2.3 2.4c-1.4 0-2.3-1-2.3-2.4c0-1.4.9-2.4 2.3-2.4zm0 .5c-1 0-1.7.8-1.7 1.9c0 1.1.7 1.9 1.7 1.9c1.1 0 1.7-.8 1.7-1.9c0-1.1-.6-1.9-1.7-1.9zm7.2.3l-1.6 3.9h-.3l-1.5-3.9v3.9h-.6v-4.7h.8l1.5 3.6l1.4-3.6h.9v4.7h-.6v-3.9zm3.4 2.8c.3.4.8.7 1.4.7c.9 0 1.1-.5 1.1-.8c0-.6-.5-.7-1.1-.9c-.8-.2-1.6-.4-1.6-1.3c0-.8.7-1.3 1.6-1.3c.7 0 1.3.2 1.6.6l-.3.4c-.4-.3-.8-.5-1.4-.5c-.5 0-.9.3-.9.7c0 .5.5.6 1.1.8c.8.2 1.6.4 1.6 1.4c0 .7-.4 1.4-1.7 1.4c-.8 0-1.4-.3-1.8-.7l.4-.5zm3.9-3.6h.6s.03 2.88 0 2.9c0 .8.5 1.4 1.4 1.4c.8 0 1.3-.6 1.3-1.4c-.03-.02 0-2.9 0-2.9h.6s-.05 2.89 0 2.9c0 1.2-.7 1.9-1.9 1.9c-1.3 0-2-.8-2-1.9c.05 0 0-2.9 0-2.9zm4.9 0s2.06.04 2.1 0c.8 0 1.3.5 1.3 1.2c0 .6-.4 1-.9 1.1c.5.1 1 .6 1 1.1c0 .8-.5 1.3-1.4 1.3h-2.1v-4.7zm2 2.1c.5 0 .8-.4.8-.8c0-.4-.3-.7-.8-.7c-.04-.04-1.4 0-1.4 0v1.5s1.36-.04 1.4 0zm0 2.1c.5 0 .9-.3.9-.8c0-.4-.3-.8-.9-.8c-.01-.02-1.4 0-1.4 0v1.6h1.4zm2.1-.4c.2.3.5.5.9.5c.6 0 1-.4 1-1c-.04 0 0-3.3 0-3.3h.5s.04 3.3 0 3.3c0 1-.6 1.5-1.4 1.5c-.5 0-.9-.2-1.3-.5l.3-.5zm3.5-3.8h3v.6h-2.5v1.5h2.5v.5h-2.5v1.6h2.5v.5h-3v-4.7zm3.7 2.4c0-1.5 1-2.4 2.4-2.4c.8 0 1.4.4 1.8.9l-.5.3c-.3-.4-.8-.7-1.3-.7c-1 0-1.8.8-1.8 1.9c0 1.1.8 1.9 1.8 1.9c.5 0 1-.3 1.3-.7l.5.3c-.4.5-1 .9-1.8.9c-1.4 0-2.4-1-2.4-2.4zm6-1.8h-1.5v-.6h3.6v.6H99v4.1h-.6V27zm4.5-.6s1.87.04 1.9 0c.9 0 1.4.7 1.4 1.4c0 .8-.5 1.5-1.4 1.5c-.03-.05-1.3 0-1.3 0v1.8h-.6v-4.7zm1.8.6c0-.04-1.2 0-1.2 0v1.7s1.2.04 1.2 0c.6 0 .9-.3.9-.9c0-.5-.3-.8-.9-.8zm3.7 2.3h-.9v1.8h-.6v-4.7s1.91.04 1.9 0c.9 0 1.5.6 1.5 1.4c0 .9-.6 1.3-1.2 1.4c-.04.01 1.2 1.9 1.2 1.9h-.7l-1.2-1.8zm.3-2.3c.04-.04-1.2 0-1.2 0v1.7s1.24.04 1.2 0c.6 0 1-.3 1-.9c0-.5-.4-.8-1-.8zm4.5-.6c1.4 0 2.4 1 2.4 2.4c0 1.4-1 2.4-2.4 2.4c-1.3 0-2.3-1-2.3-2.4c0-1.4 1-2.4 2.3-2.4zm0 .5c-1 0-1.7.8-1.7 1.9c0 1.1.7 1.9 1.7 1.9c1.1 0 1.8-.8 1.8-1.9c0-1.1-.7-1.9-1.8-1.9zm3.2-.5s1.88.04 1.9 0c.9 0 1.4.7 1.4 1.4c0 .8-.5 1.5-1.4 1.5c-.02-.05-1.3 0-1.3 0v1.8h-.6v-4.7zm1.8.6c.01-.04-1.2 0-1.2 0v1.7s1.21.04 1.2 0c.6 0 .9-.3.9-.9c0-.5-.3-.8-.9-.8zm2.2-.6h3.1v.6H121v1.5h2.5v.5H121v1.6h2.5v.5h-3.1v-4.7zm5.5 2.9h-1v1.8h-.5v-4.7s1.83.04 1.8 0c.9 0 1.5.6 1.5 1.4c0 .9-.6 1.3-1.2 1.4c-.02.01 1.2 1.9 1.2 1.9h-.6l-1.2-1.8zm.3-2.3c-.04-.04-1.3 0-1.3 0v1.7s1.26.04 1.3 0c.5 0 .9-.3.9-.9c0-.5-.4-.8-.9-.8zm3.4 0h-1.4v-.6h3.5v.6h-1.5v4.1h-.6V27zm4.2 2.1l-1.9-2.7h.7l1.4 2.2l1.5-2.2h.7l-1.9 2.7v2h-.5v-2z" stroke="none" fill="#888888"/></g><g id="Polygon106364"><path d="m19.7 14.3l-1 1l-.5-.5l1.6-1.7h.8v6h-.9v-4.8zm2.6 3.5c.3.4.6.6 1.2.6c1.2 0 1.7-1.1 1.7-2.2v-.2c-.3.4-.9.9-1.7.9c-1.1 0-2-.6-2-1.9c0-1.1.9-2 2.2-2c1.7 0 2.4 1.5 2.4 3.1c0 1.7-.8 3.1-2.6 3.1c-.7 0-1.3-.3-1.6-.7l.4-.7zm1.4-4c-.8 0-1.3.6-1.3 1.2c0 .8.6 1.1 1.4 1.1c.5 0 1-.3 1.4-.8c-.1-.6-.5-1.5-1.5-1.5zm10.8.5l-2 4.8h-.3l-2-4.8v4.8h-.9v-6h1.3l1.7 4.3l1.8-4.3h1.3v6h-.9v-4.8zm2-.8c0-.3.2-.5.5-.5c.3 0 .5.2.5.5c0 .3-.2.5-.5.5c-.3 0-.5-.2-.5-.5zm.1 1.3h.8v4.3h-.8v-4.3zm4.9 1.5c0-.7-.3-.9-.9-.9c-.5 0-.9.3-1.2.6c.02 0 0 3.1 0 3.1h-.8v-4.3h.8s.02.57 0 .6c.3-.4.9-.7 1.6-.7c.9 0 1.4.4 1.4 1.4c-.05-.04 0 3 0 3h-.9s.04-2.77 0-2.8zm4.3-3.2h2.1c1.9 0 3.2 1.3 3.2 3c0 1.8-1.3 3-3.2 3h-2.1v-6zm2.1 5.2c1.4 0 2.2-1 2.2-2.2c0-1.2-.7-2.2-2.2-2.2h-1.2v4.4s1.24.02 1.2 0zm4.1-3.5h.8s.05.63 0 .6c.4-.4.9-.7 1.5-.7v.8h-.3c-.4 0-1 .3-1.2.6c.05-.01 0 3 0 3h-.8v-4.3zm2.9-1.3c0-.3.2-.5.5-.5c.3 0 .5.2.5.5c0 .3-.2.5-.5.5c-.3 0-.5-.2-.5-.5zm.1 1.3h.8v4.3h-.8v-4.3zm1.4 0h.8l1.4 3.4l1.3-3.4h.9L59 19.1h-.9l-1.7-4.3zm6.9-.1c1.3 0 2.1 1 2.1 2.3v.2H62c0 .7.6 1.4 1.4 1.4c.5 0 1-.2 1.3-.6l.4.6c-.4.4-1 .6-1.7.6c-1.3 0-2.3-.9-2.3-2.3c0-1.2.9-2.2 2.2-2.2zM62 16.6h2.6c0-.6-.4-1.3-1.3-1.3c-.9 0-1.3.7-1.3 1.3z" stroke="none" fill="#282828"/></g><g id="Polygon106363"><path d="m1.7 2.3l-1 1l-.5-.5l1.6-1.7h.8v6h-.9V2.3zm2.5 3.8c.3 0 .6.2.6.5c0 .3-.3.6-.6.6c-.3 0-.6-.3-.6-.6c0-.3.3-.5.6-.5zm14.5-5s2.5.01 2.5 0c1.2 0 1.9.9 1.9 1.9c0 1-.7 1.8-1.9 1.8h-1.6v2.3h-.9v-6zm2.4.8h-1.5v2.1h1.5c.6 0 1.1-.4 1.1-1c0-.7-.5-1.1-1.1-1.1zm5.3 4.7c-.3.4-.8.6-1.4.6c-.7 0-1.5-.5-1.5-1.4c0-1 .8-1.4 1.5-1.4c.6 0 1.1.1 1.4.5v-.7c0-.5-.4-.9-1-.9c-.5 0-.9.2-1.3.6l-.4-.5c.5-.5 1.1-.7 1.8-.7c.9 0 1.7.4 1.7 1.5c.04-.02 0 2.9 0 2.9h-.8s.03-.47 0-.5zm0-1.2c-.2-.3-.6-.5-1.1-.5c-.6 0-1 .4-1 .9c0 .5.4.9 1 .9c.5 0 .9-.2 1.1-.5v-.8zm2.2.7V3.5h-.7v-.7h.7V1.6h.8v1.2h.9v.7h-.9s.02 2.47 0 2.5c0 .3.2.5.4.5c.2 0 .4-.1.5-.2l.2.6c-.2.2-.4.3-.9.3c-.6 0-1-.4-1-1.1zm2.5-3.3h.8s.02.63 0 .6c.4-.4.9-.7 1.4-.7v.8h-.2c-.4 0-1 .3-1.2.6c.02-.01 0 3 0 3h-.8V2.8zm2.8-1.3c0-.3.3-.5.6-.5c.2 0 .5.2.5.5c0 .3-.3.5-.5.5c-.3 0-.6-.2-.6-.5zm.2 1.3h.8v4.3h-.8V2.8zm1.7 2.1c0-1.2.8-2.2 2.2-2.2c1.4 0 2.2 1 2.2 2.2c0 1.3-.8 2.3-2.2 2.3c-1.4 0-2.2-1-2.2-2.3zm3.5 0c0-.8-.4-1.5-1.3-1.5c-.9 0-1.4.7-1.4 1.5c0 .9.5 1.6 1.4 1.6c.9 0 1.3-.7 1.3-1.6zm2 1.2V3.5h-.7v-.7h.7V1.6h.8v1.2h.9v.7h-.9v2.5c0 .3.1.5.4.5c.2 0 .4-.1.5-.2l.2.6c-.2.2-.5.3-.9.3c-.7 0-1-.4-1-1.1zm2.5-.2c.3.4.9.7 1.5.7c.6 0 .9-.3.9-.7c0-.4-.5-.5-1.1-.7c-.7-.1-1.6-.3-1.6-1.3c0-.7.6-1.2 1.7-1.2c.7 0 1.3.2 1.7.6l-.4.5c-.3-.3-.7-.5-1.3-.5c-.5 0-.9.2-.9.6c0 .4.5.5 1 .6c.8.2 1.7.4 1.7 1.4c0 .7-.6 1.3-1.8 1.3c-.7 0-1.3-.2-1.8-.7l.4-.6zm6.1-4.8h2.6c1.2 0 1.9.9 1.9 1.9c0 1-.7 1.8-1.9 1.8h-1.7v2.3h-.9v-6zm2.4.8h-1.5v2.1h1.5c.7 0 1.2-.4 1.2-1c0-.7-.5-1.1-1.2-1.1zm2.5 3c0-1.2.9-2.2 2.2-2.2c1.4 0 2.2 1 2.2 2.2c0 1.3-.8 2.3-2.2 2.3c-1.3 0-2.2-1-2.2-2.3zm3.6 0c0-.8-.5-1.5-1.4-1.5c-.9 0-1.3.7-1.3 1.5c0 .9.4 1.6 1.3 1.6c.9 0 1.4-.7 1.4-1.6zM60 1.5c0-.3.3-.5.5-.5c.3 0 .6.2.6.5c0 .3-.3.5-.6.5c-.2 0-.5-.2-.5-.5zm.1 1.3h.8v4.3h-.8V2.8zm5 1.5c0-.7-.4-.9-1-.9c-.5 0-.9.3-1.1.6c-.05 0 0 3.1 0 3.1h-.9V2.8h.9s-.05.57 0 .6c.2-.4.8-.7 1.5-.7c.9 0 1.4.4 1.4 1.4c-.02-.04 0 3 0 3h-.8s-.02-2.77 0-2.8zm2.1 1.8c.04.05 0-2.6 0-2.6h-.7v-.7h.7V1.6h.9v1.2h.8v.7h-.8s-.05 2.47 0 2.5c0 .3.1.5.4.5c.2 0 .3-.1.4-.2l.2.6c-.1.2-.4.3-.8.3c-.7 0-1.1-.4-1.1-1.1zm5.5-3.6v4.6h-.9v-6h.9L76 5.6V1.1h.9v6h-.9l-3.3-4.6zm8.1 4.1c-.4.4-.9.6-1.5.6c-.7 0-1.5-.5-1.5-1.4c0-1 .8-1.4 1.5-1.4c.6 0 1.1.1 1.5.5v-.7c0-.5-.5-.9-1.1-.9c-.5 0-.9.2-1.3.6l-.3-.5c.4-.5 1-.7 1.7-.7c1 0 1.8.4 1.8 1.5c-.02-.02 0 2.9 0 2.9h-.8s-.03-.47 0-.5zm0-1.2c-.3-.3-.7-.5-1.1-.5c-.6 0-1 .4-1 .9c0 .5.4.9 1 .9c.4 0 .8-.2 1.1-.5v-.8zm1.3-2.6h.9l1.4 3.4l1.3-3.4h.9l-1.8 4.3h-.9l-1.8-4.3zm7.7 3.8c-.3.4-.8.6-1.4.6c-.7 0-1.5-.5-1.5-1.4c0-1 .8-1.4 1.5-1.4c.6 0 1.1.1 1.4.5v-.7c0-.5-.4-.9-1-.9c-.5 0-.9.2-1.3.6l-.4-.5c.5-.5 1.1-.7 1.8-.7c1 0 1.8.4 1.8 1.5c-.04-.02 0 2.9 0 2.9h-.9s.05-.47 0-.5zm0-1.2c-.2-.3-.6-.5-1.1-.5c-.6 0-1 .4-1 .9c0 .5.4.9 1 .9c.5 0 .9-.2 1.1-.5v-.8zm2.1-4.3h.8v6h-.8v-6zm8.9 6h-1.1c-.1-.1-.4-.3-.6-.6c-.4.4-1 .7-1.7.7c-1 0-1.9-.5-1.9-1.7c0-.9.6-1.4 1.3-1.7c-.2-.5-.4-1-.4-1.4c0-.8.7-1.4 1.6-1.4c.8 0 1.4.5 1.4 1.2c0 .9-.8 1.3-1.5 1.7c.2.3.4.6.6.8c.2.3.4.5.7.7c.3-.4.5-.9.6-1.3l.7.3c-.3.5-.5 1.1-.9 1.5l1.2 1.2zm-3.3-3.7c.6-.3 1.1-.6 1.1-1.1c0-.4-.2-.7-.6-.7c-.4 0-.8.4-.8.8c0 .3.2.7.3 1zM98.7 6c-.4-.3-.7-.6-.8-.8c-.3-.3-.5-.6-.7-.9c-.5.3-.8.6-.8 1.2c0 .7.5 1.1 1.1 1.1c.5 0 .8-.2 1.2-.6zm10.1-3.7l-2 4.8h-.4l-1.9-4.8v4.8h-.9v-6h1.3l1.7 4.3l1.8-4.3h1.3v6h-.9V2.3zm4.8 4.3c-.4.4-.9.6-1.5.6c-.7 0-1.5-.5-1.5-1.4c0-1 .8-1.4 1.5-1.4c.6 0 1.1.1 1.5.5v-.7c0-.5-.5-.9-1.1-.9c-.5 0-.9.2-1.3.6l-.4-.5c.5-.5 1.1-.7 1.8-.7c1 0 1.8.4 1.8 1.5c-.03-.02 0 2.9 0 2.9h-.8s-.04-.47 0-.5zm0-1.2c-.3-.3-.7-.5-1.2-.5c-.5 0-1 .4-1 .9c0 .5.5.9 1 .9c.5 0 .9-.2 1.2-.5v-.8zm2-2.6h.8s-.02.63 0 .6c.3-.4.8-.7 1.4-.7v.8h-.3c-.4 0-.9.3-1.1.6c-.02-.01 0 3 0 3h-.8V2.8zm2.8-1.3c0-.3.2-.5.5-.5c.3 0 .5.2.5.5c0 .3-.2.5-.5.5c-.3 0-.5-.2-.5-.5zm.1 1.3h.8v4.3h-.8V2.8zm2.2 3.3V3.5h-.7v-.7h.7V1.6h.8v1.2h.9v.7h-.9v2.5c0 .3.1.5.4.5c.2 0 .4-.1.5-.2l.2.6c-.2.2-.4.3-.9.3c-.7 0-1-.4-1-1.1zm2.4-4.6c0-.3.2-.5.5-.5c.3 0 .5.2.5.5c0 .3-.2.5-.5.5c-.3 0-.5-.2-.5-.5zm.1 1.3h.8v4.3h-.8V2.8zm7.3 1.4c0-.5-.2-.8-.8-.8c-.4 0-.8.3-1.1.6c.05 0 0 3.1 0 3.1h-.8s.04-2.89 0-2.9c0-.5-.2-.8-.7-.8c-.4 0-.9.3-1.1.6v3.1h-.8V2.8h.8v.6c.2-.3.8-.7 1.4-.7c.7 0 1.1.3 1.2.8c.2-.4.8-.8 1.5-.8c.8 0 1.2.4 1.2 1.3v3.1h-.8V4.2zm3.9-1.5c1.3 0 2.1 1 2.1 2.3c.02 0 0 .2 0 .2h-3.4c0 .7.6 1.4 1.5 1.4c.4 0 .9-.2 1.2-.6l.4.6c-.4.4-1 .6-1.7.6c-1.3 0-2.3-.9-2.3-2.3c0-1.2.9-2.2 2.2-2.2zm-1.3 1.9h2.6c0-.6-.4-1.3-1.3-1.3c-.9 0-1.3.7-1.3 1.3zm11.5-2.3l-1.9 4.8h-.4l-1.9-4.8v4.8h-.9v-6h1.3l1.7 4.3l1.7-4.3h1.3v6h-.9V2.3zm5.1 4.2c-.3.4-.9.7-1.6.7c-.9 0-1.3-.4-1.3-1.4c-.04.03 0-3 0-3h.8s-.04 2.76 0 2.8c0 .7.3.9.9.9c.5 0 .9-.3 1.2-.6V2.8h.8v4.3h-.8v-.6zm2-.6c.3.4.9.7 1.5.7c.6 0 .9-.3.9-.7c0-.4-.5-.5-1.1-.7c-.7-.1-1.6-.3-1.6-1.3c0-.7.6-1.2 1.7-1.2c.7 0 1.3.2 1.7.6l-.4.5c-.3-.3-.7-.5-1.3-.5c-.5 0-.9.2-.9.6c0 .4.5.5 1 .6c.8.2 1.7.4 1.7 1.4c0 .7-.6 1.3-1.8 1.3c-.7 0-1.3-.2-1.8-.7l.4-.6zm6-3.2c1.3 0 2.1 1 2.1 2.3c.04 0 0 .2 0 .2h-3.4c.1.7.6 1.4 1.5 1.4c.4 0 .9-.2 1.3-.6l.3.6c-.4.4-1 .6-1.7.6c-1.3 0-2.3-.9-2.3-2.3c0-1.2 1-2.2 2.2-2.2zm-1.3 1.9h2.6c0-.6-.4-1.3-1.3-1.3c-.8 0-1.3.7-1.3 1.3zm7.3 1.9c-.3.4-.9.7-1.5.7c-1 0-1.4-.4-1.4-1.4c-.03.03 0-3 0-3h.8s-.02 2.76 0 2.8c0 .7.3.9.9.9c.5 0 1-.3 1.2-.6V2.8h.8v4.3h-.8v-.6zm7.3-2.3c0-.5-.2-.8-.8-.8c-.4 0-.8.3-1 .6c-.04 0 0 3.1 0 3.1h-.9s.05-2.89 0-2.9c0-.5-.2-.8-.7-.8c-.4 0-.9.3-1.1.6c.02 0 0 3.1 0 3.1h-.8V2.8h.8s.02.57 0 .6c.2-.3.8-.7 1.4-.7c.7 0 1.1.3 1.2.8c.3-.4.8-.8 1.5-.8c.8 0 1.2.4 1.2 1.3v3.1h-.8V4.2z" stroke="none" fill="#282828"/></g></svg>