<?xml version="1.0" standalone="no"?>
<!DOCTYPE svg PUBLIC "-//W3C//DTD SVG 1.1//EN" "http://www.w3.org/Graphics/SVG/1.1/DTD/svg11.dtd">
<svg xmlns="http://www.w3.org/2000/svg" version="1.1" width="48px" height="37.9px" viewBox="0 -6 48 37.9" style="top:-6px">
  <desc>Agent 1</desc>
  <defs/>
  <g id="Polygon236825">
    <path d="M 0.7 20 C 0.7 20 3.2 20.04 3.2 20 C 4.4 20 5.1 20.9 5.1 21.9 C 5.1 22.9 4.4 23.7 3.2 23.7 C 3.2 23.73 1.6 23.7 1.6 23.7 L 1.6 26 L 0.7 26 L 0.7 20 Z M 3.1 20.8 C 3.08 20.83 1.6 20.8 1.6 20.8 L 1.6 22.9 C 1.6 22.9 3.08 22.94 3.1 22.9 C 3.7 22.9 4.2 22.5 4.2 21.9 C 4.2 21.3 3.7 20.8 3.1 20.8 Z M 5.9 21.7 L 6.7 21.7 C 6.7 21.7 6.74 22.36 6.7 22.4 C 7.1 21.9 7.6 21.6 8.2 21.6 C 8.2 21.6 8.2 22.4 8.2 22.4 C 8.1 22.4 8 22.4 7.9 22.4 C 7.5 22.4 6.9 22.7 6.7 23 C 6.74 23.02 6.7 26 6.7 26 L 5.9 26 L 5.9 21.7 Z M 8.8 20.5 C 8.8 20.2 9 19.9 9.3 19.9 C 9.6 19.9 9.8 20.2 9.8 20.5 C 9.8 20.7 9.6 21 9.3 21 C 9 21 8.8 20.7 8.8 20.5 Z M 8.9 21.7 L 9.7 21.7 L 9.7 26 L 8.9 26 L 8.9 21.7 Z M 12.8 21.6 C 13.7 21.6 14.1 21.9 14.5 22.3 C 14.5 22.3 13.9 22.8 13.9 22.8 C 13.7 22.5 13.3 22.3 12.9 22.3 C 12 22.3 11.5 23 11.5 23.9 C 11.5 24.8 12 25.4 12.9 25.4 C 13.3 25.4 13.7 25.2 13.9 24.9 C 13.9 24.9 14.5 25.4 14.5 25.4 C 14.1 25.8 13.7 26.1 12.8 26.1 C 11.5 26.1 10.6 25.2 10.6 23.9 C 10.6 22.6 11.5 21.6 12.8 21.6 Z M 17.2 21.6 C 18.5 21.6 19.3 22.6 19.3 23.9 C 19.29 23.93 19.3 24.1 19.3 24.1 C 19.3 24.1 15.85 24.13 15.8 24.1 C 15.9 24.9 16.5 25.5 17.3 25.5 C 17.8 25.5 18.3 25.3 18.6 25 C 18.6 25 19 25.5 19 25.5 C 18.6 25.9 17.9 26.1 17.2 26.1 C 15.9 26.1 15 25.2 15 23.9 C 15 22.6 15.9 21.6 17.2 21.6 Z M 15.8 23.5 C 15.8 23.5 18.5 23.5 18.5 23.5 C 18.5 23 18.1 22.3 17.2 22.3 C 16.3 22.3 15.9 23 15.8 23.5 Z M 23.9 19.9 L 24.6 19.9 L 22.4 26.2 L 21.8 26.2 L 23.9 19.9 Z M 27.5 24.5 C 27.9 25 28.6 25.3 29.4 25.3 C 30.4 25.3 30.7 24.9 30.7 24.4 C 30.7 23.8 30 23.6 29.3 23.4 C 28.3 23.2 27.2 22.9 27.2 21.7 C 27.2 20.7 28.1 19.9 29.3 19.9 C 30.2 19.9 31 20.2 31.5 20.8 C 31.5 20.8 31 21.4 31 21.4 C 30.5 21 29.9 20.7 29.2 20.7 C 28.6 20.7 28.1 21.1 28.1 21.6 C 28.1 22.1 28.8 22.3 29.5 22.5 C 30.5 22.8 31.6 23.1 31.6 24.3 C 31.6 25.3 31 26.1 29.4 26.1 C 28.3 26.1 27.5 25.8 27 25.2 C 27 25.2 27.5 24.5 27.5 24.5 Z M 32.6 20 L 36.6 20 L 36.6 20.8 L 33.5 20.8 L 33.5 22.6 L 36.5 22.6 L 36.5 23.4 L 33.5 23.4 L 33.5 26 L 32.6 26 L 32.6 20 Z " stroke="none" fill="#3797ef"/>
  </g>
  <g id="Polygon236824">
    <path d="M 6.1 10.2 C 6.1 10.2 6.1 11.8 6.1 11.8 C 6.1 13.3 5.4 13.9 4.2 14.1 C 4.19 14.1 4.2 15.3 4.2 15.3 L 2.5 15.3 C 2.5 15.3 2.54 14.12 2.5 14.1 C 1.3 13.9 0.6 13.3 0.6 11.8 C 0.58 11.83 0.6 9.9 0.6 9.9 L 2.4 9.9 C 2.4 9.9 2.4 11.58 2.4 11.6 C 2.4 12.3 2.8 12.6 3.4 12.6 C 3.9 12.6 4.3 12.3 4.3 11.6 C 4.3 11.6 4.3 10.7 4.3 10.7 C 4.3 10.1 4.1 9.8 3.6 9.5 C 3.6 9.5 2.3 8.8 2.3 8.8 C 1.2 8.2 0.6 7.7 0.6 6.5 C 0.6 6.5 0.6 5 0.6 5 C 0.6 3.6 1.4 3 2.5 2.8 C 2.54 2.78 2.5 1.6 2.5 1.6 L 4.2 1.6 C 4.2 1.6 4.19 2.78 4.2 2.8 C 5.3 3 6.1 3.7 6.1 5 C 6.11 5.02 6.1 6.8 6.1 6.8 L 4.3 6.8 C 4.3 6.8 4.29 5.27 4.3 5.3 C 4.3 4.6 3.9 4.3 3.3 4.3 C 2.8 4.3 2.4 4.6 2.4 5.3 C 2.4 5.3 2.4 6 2.4 6 C 2.4 6.6 2.6 6.9 3.1 7.2 C 3.1 7.2 4.4 7.9 4.4 7.9 C 5.5 8.5 6.1 9 6.1 10.2 Z M 12.8 5.1 C 12.8 5.1 12.8 11.8 12.8 11.8 C 12.8 13.5 11.8 14.2 10.1 14.2 C 10.1 14.2 10 14.2 10 14.2 C 8.3 14.2 7.3 13.5 7.3 11.8 C 7.3 11.8 7.3 5.1 7.3 5.1 C 7.3 3.4 8.3 2.7 10 2.7 C 10 2.7 10.1 2.7 10.1 2.7 C 11.8 2.7 12.8 3.4 12.8 5.1 Z M 10 4.3 C 9.4 4.3 9.1 4.6 9.1 5.4 C 9.1 5.4 9.1 11.5 9.1 11.5 C 9.1 12.3 9.4 12.5 10 12.5 C 10.6 12.5 11 12.3 11 11.5 C 11 11.5 11 5.4 11 5.4 C 11 4.6 10.6 4.3 10 4.3 Z M 15.8 13.6 C 15.8 14.6 15.3 15.5 14.8 16.2 C 14.8 16.2 14.1 15.8 14.1 15.8 C 14.4 15.3 14.8 14.6 14.8 14 C 14.83 14.04 14 14 14 14 L 14 12 L 15.8 12 C 15.8 12 15.81 13.56 15.8 13.6 Z M 22.5 5.1 C 22.5 5.1 22.5 11.8 22.5 11.8 C 22.5 13.5 21.5 14.2 19.8 14.2 C 19.8 14.2 19.7 14.2 19.7 14.2 C 18 14.2 17 13.5 17 11.8 C 17 11.8 17 5.1 17 5.1 C 17 3.4 18 2.7 19.7 2.7 C 19.7 2.7 19.8 2.7 19.8 2.7 C 21.5 2.7 22.5 3.4 22.5 5.1 Z M 19.8 4.3 C 19.2 4.3 18.8 4.6 18.8 5.4 C 18.8 5.4 18.8 11.5 18.8 11.5 C 18.8 12.3 19.2 12.5 19.8 12.5 C 20.4 12.5 20.7 12.3 20.7 11.5 C 20.7 11.5 20.7 5.4 20.7 5.4 C 20.7 4.6 20.4 4.3 19.8 4.3 Z M 29.3 5.1 C 29.3 5.1 29.3 11.8 29.3 11.8 C 29.3 13.5 28.3 14.2 26.7 14.2 C 26.7 14.2 26.5 14.2 26.5 14.2 C 24.8 14.2 23.8 13.5 23.8 11.8 C 23.8 11.8 23.8 5.1 23.8 5.1 C 23.8 3.4 24.8 2.7 26.5 2.7 C 26.5 2.7 26.7 2.7 26.7 2.7 C 28.3 2.7 29.3 3.4 29.3 5.1 Z M 26.6 4.3 C 26 4.3 25.6 4.6 25.6 5.4 C 25.6 5.4 25.6 11.5 25.6 11.5 C 25.6 12.3 26 12.5 26.6 12.5 C 27.2 12.5 27.6 12.3 27.6 11.5 C 27.6 11.5 27.6 5.4 27.6 5.4 C 27.6 4.6 27.2 4.3 26.6 4.3 Z M 36.2 5.1 C 36.2 5.1 36.2 11.8 36.2 11.8 C 36.2 13.5 35.2 14.2 33.5 14.2 C 33.5 14.2 33.3 14.2 33.3 14.2 C 31.7 14.2 30.7 13.5 30.7 11.8 C 30.7 11.8 30.7 5.1 30.7 5.1 C 30.7 3.4 31.7 2.7 33.3 2.7 C 33.3 2.7 33.5 2.7 33.5 2.7 C 35.2 2.7 36.2 3.4 36.2 5.1 Z M 33.4 4.3 C 32.8 4.3 32.4 4.6 32.4 5.4 C 32.4 5.4 32.4 11.5 32.4 11.5 C 32.4 12.3 32.8 12.5 33.4 12.5 C 34 12.5 34.4 12.3 34.4 11.5 C 34.4 11.5 34.4 5.4 34.4 5.4 C 34.4 4.6 34 4.3 33.4 4.3 Z " stroke="none" fill="#282828"/>
  </g>
</svg>