<?xml version="1.0" standalone="no"?><!DOCTYPE svg PUBLIC "-//W3C//DTD SVG 1.1//EN" "http://www.w3.org/Graphics/SVG/1.1/DTD/svg11.dtd"><svg xmlns="http://www.w3.org/2000/svg" xmlns:xlink="http://www.w3.org/1999/xlink" version="1.1" width="75.4px" height="27.9px" viewBox="0 -8 75.4 27.9" style="top:-8px"><desc>-</desc><defs/><g id="Polygon70579"><path d="m.3 3.9l3.9-2v.4L.7 4.1l3.5 1.8v.4l-3.9-2v-.4zm4.4 0l4-2v.4L5.2 4.1l3.5 1.8v.4l-4-2v-.4zm4.7 2.8c2.1-1.7 3.5-2.8 3.5-4c0-.9-.8-1.2-1.4-1.2c-.8 0-1.3.3-1.7.8l-.3-.4c.4-.5 1.1-.9 2-.9c.9 0 1.9.5 1.9 1.7c0 1.3-1.4 2.5-3.2 3.9c.04.04 3.2 0 3.2 0v.5h-4s.04-.41 0-.4zM16.9 1c1.6 0 2.2 1.7 2.2 3.1c0 1.4-.6 3.1-2.2 3.1c-1.6 0-2.2-1.7-2.2-3.1c0-1.4.6-3.1 2.2-3.1zm0 .5c-1.2 0-1.7 1.4-1.7 2.6c0 1.2.5 2.7 1.7 2.7c1.3 0 1.7-1.5 1.7-2.7c0-1.2-.4-2.6-1.7-2.6zm3.3 5.2c2-1.7 3.4-2.8 3.4-4c0-.9-.7-1.2-1.4-1.2c-.8 0-1.3.3-1.7.8l-.3-.4c.4-.5 1.2-.9 2-.9c.9 0 1.9.5 1.9 1.7c0 1.3-1.4 2.5-3.1 3.9c-.05.04 3.1 0 3.1 0v.5h-3.9s-.05-.41 0-.4zm5.3-.8c.4.5.9.9 1.7.9c.9 0 1.5-.5 1.5-1.3c0-.9-.7-1.2-1.6-1.2h-.5v-.5h.5c.8 0 1.5-.4 1.5-1.2c0-.7-.6-1.1-1.4-1.1c-.7 0-1.2.3-1.6.7l-.3-.3c.4-.5 1-.9 1.9-.9c1.1 0 2 .6 2 1.6c0 .9-.8 1.3-1.3 1.4c.5.1 1.3.5 1.3 1.5c0 1-.7 1.7-2 1.7c-1 0-1.7-.4-2-1l.3-.3zm7.4-4.8s2.21.01 2.2 0c1.2 0 1.8.8 1.8 1.8c0 .9-.6 1.7-1.8 1.7c.01.02-1.7 0-1.7 0v2.5h-.5v-6zm2.2.5c-.04-.03-1.7 0-1.7 0v2.5s1.66.05 1.7 0c.7 0 1.3-.5 1.3-1.2c0-.8-.6-1.3-1.3-1.3zM38 2.8h.4s.05.71 0 .7c.4-.5.9-.8 1.5-.8v.5h-.2c-.5 0-1.1.4-1.3.7c.05.04 0 3.2 0 3.2h-.4V2.8zm2.6 2.1c0-1.2.8-2.2 2.1-2.2c1.3 0 2.1 1 2.1 2.2c0 1.3-.8 2.3-2.1 2.3c-1.3 0-2.1-1-2.1-2.3zm3.7 0c0-.9-.6-1.8-1.6-1.8c-1 0-1.6.9-1.6 1.8c0 1 .6 1.9 1.6 1.9c1 0 1.6-.9 1.6-1.9zm1.5-3.2c0-.2.2-.4.4-.4c.2 0 .4.2.4.4c0 .2-.2.3-.4.3c-.2 0-.4-.1-.4-.3zm.6 6c0 .8-.4 1.2-1.1 1.2c-.2 0-.4-.1-.5-.1l.1-.4c.1 0 .2.1.4.1c.4 0 .7-.3.7-.8c-.03-.03 0-4.9 0-4.9h.4s.04 4.87 0 4.9zm3.3-5c1.4 0 2.1 1 2.1 2.3v.1s-3.64-.02-3.6 0c0 .9.6 1.7 1.7 1.7c.5 0 1-.2 1.4-.6l.2.3c-.4.5-1 .7-1.7.7c-1.2 0-2.2-.9-2.2-2.3c0-1.2.9-2.2 2.1-2.2zm-1.5 2h3.1c0-.7-.5-1.6-1.6-1.6c-1 0-1.5.9-1.5 1.6zm6.7-2c.7 0 1.2.3 1.5.7l-.3.3c-.3-.5-.7-.6-1.2-.6c-1 0-1.6.8-1.6 1.8c0 1.1.6 1.9 1.6 1.9c.5 0 .9-.2 1.2-.6l.3.3c-.3.4-.8.7-1.5.7c-1.3 0-2.1-1-2.1-2.3c0-1.2.8-2.2 2.1-2.2zm2.6 3.6c.04-.03 0-3.1 0-3.1h-.7v-.4h.7V1.6h.5v1.2h.9v.4h-.9v3c0 .4.2.6.5.6c.2 0 .4-.1.5-.2l.1.3c-.1.2-.3.3-.7.3c-.6 0-.9-.3-.9-.9zm2.3-4.6c0-.2.2-.4.4-.4c.2 0 .3.2.3.4c0 .2-.1.3-.3.3c-.2 0-.4-.1-.4-.3zm.1 1.1h.5v4.3h-.5V2.8zm1.7 2.1c0-1.2.8-2.2 2.1-2.2c1.3 0 2.1 1 2.1 2.2c0 1.3-.8 2.3-2.1 2.3c-1.3 0-2.1-1-2.1-2.3zm3.7 0c0-.9-.6-1.8-1.6-1.8c-1 0-1.6.9-1.6 1.8c0 1 .6 1.9 1.6 1.9c1 0 1.6-.9 1.6-1.9zm4.6-.7c0-.9-.4-1.1-1-1.1c-.6 0-1.2.3-1.4.7c-.04.02 0 3.3 0 3.3h-.5V2.8h.5s-.04.62 0 .6c.3-.4.9-.7 1.5-.7c.9 0 1.4.4 1.4 1.4v3h-.5s.02-2.92 0-2.9z" stroke="none" fill="#000"/><a xlink:href="DBF_2023%20Projection%20-%205%20Mile" xlink:show="new" xlink:title="&lt;&lt;2023 Projection - 5 Mile&gt;&gt;"><rect style="fill:transparent;" x="-1" y="0" width="71" height="9"/></a></g><g id="Rectangle70580"><path d="m73 4.7h2.1v.4H73v-.4z" stroke="none" fill="#000"/></g></svg>