<?xml version="1.0" standalone="no"?><!DOCTYPE svg PUBLIC "-//W3C//DTD SVG 1.1//EN" "http://www.w3.org/Graphics/SVG/1.1/DTD/svg11.dtd"><svg xmlns="http://www.w3.org/2000/svg" version="1.1" width="77px" height="15.9px" viewBox="0 -4 77 15.9" style="top:-4px"><desc>48,485</desc><defs/><g id="Polygon111477"><path d="m47.4 7.2c.03.01 0 .8 0 .8h-.4s.02-.78 0-.8c-.9 0-1.6-.4-2-.9l.3-.4c.4.4 1 .8 1.7.8V4.2c-.9-.2-1.8-.5-1.8-1.6c0-.9.8-1.5 1.8-1.6c.02.02 0-.8 0-.8h.4s.03.83 0 .8c.8.1 1.4.4 1.8.9l-.4.3c-.3-.4-.8-.6-1.4-.7v2.3c1 .2 1.9.6 1.9 1.7c0 .7-.4 1.6-1.9 1.7zM47 3.7V1.5c-.7 0-1.3.5-1.3 1.1c0 .6.6.8 1.3 1.1zm1.8 1.9c0-.8-.6-1.1-1.4-1.3v2.4c1.1 0 1.4-.7 1.4-1.1zm4.2-.1h-2.9v-.5l2.7-3.9h.7v3.9h.9v.5h-.9v1.6h-.5V5.5zM50.7 5h2.3V1.6L50.7 5zm6-1c-.7-.2-1.4-.6-1.4-1.4c0-1.1 1-1.6 2-1.6c.9 0 1.9.5 1.9 1.6c0 .8-.7 1.2-1.4 1.4c.8.2 1.5.8 1.5 1.6c0 1-.9 1.6-2 1.6c-1.2 0-2.1-.6-2.1-1.6c0-.8.7-1.4 1.5-1.6zm.6-2.5c-.8 0-1.5.4-1.5 1.1c0 .9 1.1 1.1 1.5 1.2c.3-.1 1.4-.3 1.4-1.2c0-.7-.7-1.1-1.4-1.1zm0 2.7c-.4.1-1.6.5-1.6 1.4c0 .7.8 1.2 1.6 1.2c.7 0 1.5-.5 1.5-1.2c0-.9-1.2-1.3-1.5-1.4zm3 3.8c.3-.2.5-.6.6-.8h-.1c-.2 0-.4-.2-.4-.4c0-.2.2-.4.4-.4c.2 0 .5.2.5.6c0 .5-.3 1-.7 1.2l-.3-.2zM65 5.5h-2.9v-.5l2.7-3.9h.7v3.9h.8v.5h-.8v1.6h-.5V5.5zM62.6 5h2.4V1.6L62.6 5zm6.1-1c-.7-.2-1.4-.6-1.4-1.4c0-1.1 1-1.6 1.9-1.6c1 0 2 .5 2 1.6c0 .8-.7 1.2-1.4 1.4c.8.2 1.5.8 1.5 1.6c0 1-.9 1.6-2.1 1.6c-1.1 0-2-.6-2-1.6c0-.8.7-1.4 1.5-1.6zm.5-2.5c-.8 0-1.4.4-1.4 1.1c0 .9 1.1 1.1 1.4 1.2c.4-.1 1.5-.3 1.5-1.2c0-.7-.7-1.1-1.5-1.1zm0 2.7c-.3.1-1.5.5-1.5 1.4c0 .7.7 1.2 1.5 1.2c.8 0 1.6-.5 1.6-1.2c0-.9-1.2-1.3-1.6-1.4zm3.6 1.7c.4.5.9.9 1.7.9c.9 0 1.5-.7 1.5-1.5c0-.9-.6-1.5-1.5-1.5c-.5 0-1 .2-1.5.6l-.4-.1V1.1h3.5v.5h-2.9s-.03 2.32 0 2.3c.3-.3.8-.5 1.4-.5c1 0 1.9.6 1.9 1.9c0 1.2-.9 1.9-2 1.9c-1 0-1.6-.4-2-1l.3-.3z" stroke="none" fill="#000"/></g></svg>