<?xml version="1.0" standalone="no"?><!DOCTYPE svg PUBLIC "-//W3C//DTD SVG 1.1//EN" "http://www.w3.org/Graphics/SVG/1.1/DTD/svg11.dtd"><svg xmlns="http://www.w3.org/2000/svg" version="1.1" width="114px" height="28.4px" viewBox="0 -6 114 28.4" style="top:-6px"><desc>25,000+</desc><defs/><g id="Polygon102985"><path d="m.8 11.4c4-3.1 5.9-4.7 5.9-6.4c0-1.2-1.1-1.8-2.1-1.8c-1.3 0-2.2.6-2.9 1.3l-.9-1c.8-1.1 2.3-1.7 3.8-1.7c1.9 0 3.7 1.1 3.7 3.2c0 2.1-2 4-4.9 6.2c-.02.03 5 0 5 0v1.4H.8s.03-1.22 0-1.2zm10.6-1.3c.7.8 1.6 1.3 2.9 1.3c1.4 0 2.3-.9 2.3-2.1c0-1.3-.9-2.1-2.3-2.1c-.9 0-1.7.3-2.4 1c.02-.01-1.1-.4-1.1-.4V2h6.7v1.4h-5.1s-.03 3.38 0 3.4c.5-.5 1.4-1 2.4-1c1.8 0 3.4 1.3 3.4 3.5c0 2.2-1.6 3.5-3.9 3.5c-1.8 0-3-.6-3.9-1.6l1-1.1zm8.5 4.1c.5-.4 1-1 1.1-1.5h-.3c-.5 0-.8-.4-.8-.9c0-.6.4-1 .9-1c.6 0 1.2.5 1.2 1.3c0 1.1-.6 2-1.4 2.6l-.7-.5zm7.8-12.4c3 0 4.2 2.9 4.2 5.5c0 2.7-1.2 5.5-4.2 5.5c-3 0-4.2-2.8-4.2-5.5c0-2.6 1.2-5.5 4.2-5.5zm0 1.4c-1.9 0-2.5 2-2.5 4.1c0 2.1.6 4.1 2.5 4.1c1.9 0 2.5-2 2.5-4.1c0-2.1-.6-4.1-2.5-4.1zm9.8-1.4c3 0 4.2 2.9 4.2 5.5c0 2.7-1.2 5.5-4.2 5.5c-2.9 0-4.2-2.8-4.2-5.5c0-2.6 1.3-5.5 4.2-5.5zm0 1.4c-1.9 0-2.5 2-2.5 4.1c0 2.1.6 4.1 2.5 4.1c1.9 0 2.6-2 2.6-4.1c0-2.1-.7-4.1-2.6-4.1zm9.8-1.4c3 0 4.2 2.9 4.2 5.5c0 2.7-1.2 5.5-4.2 5.5c-2.9 0-4.1-2.8-4.1-5.5c0-2.6 1.2-5.5 4.1-5.5zm0 1.4c-1.8 0-2.5 2-2.5 4.1c0 2.1.7 4.1 2.5 4.1c1.9 0 2.6-2 2.6-4.1c0-2.1-.7-4.1-2.6-4.1zm9.5 7.9h-1.1V7.7h-3v-.9h3V3.5h1.1v3.3h3v.9h-3v3.4z" stroke="none" fill="#000"/></g></svg>