<?xml version="1.0" standalone="no"?>
<!DOCTYPE svg PUBLIC "-//W3C//DTD SVG 1.1//EN" "http://www.w3.org/Graphics/SVG/1.1/DTD/svg11.dtd">
<svg xmlns="http://www.w3.org/2000/svg" version="1.1" width="114px" height="141.9px" viewBox="0 -4 114 141.9" style="top:-4px">
  <desc>Lorem Ipsum Lorem Ipsum Lorem Ipsum Lorem Ipsum Lorem Ipsum Lorem Ipsum Lorem Ipsum Lorem Ipsum</desc>
  <defs/>
  <g id="Polygon241728">
    <path d="M 65.4 127.1 L 65.9 127.1 L 65.9 132.6 L 68.8 132.6 L 68.8 133.1 L 65.4 133.1 L 65.4 127.1 Z M 69.3 130.9 C 69.3 129.7 70.1 128.7 71.4 128.7 C 72.7 128.7 73.5 129.7 73.5 130.9 C 73.5 132.2 72.7 133.2 71.4 133.2 C 70.1 133.2 69.3 132.2 69.3 130.9 Z M 73 130.9 C 73 130 72.4 129.1 71.4 129.1 C 70.4 129.1 69.8 130 69.8 130.9 C 69.8 131.9 70.4 132.8 71.4 132.8 C 72.4 132.8 73 131.9 73 130.9 Z M 74.6 128.8 L 75.1 128.8 C 75.1 128.8 75.06 129.51 75.1 129.5 C 75.4 129 75.9 128.7 76.5 128.7 C 76.5 128.7 76.5 129.2 76.5 129.2 C 76.4 129.2 76.4 129.2 76.3 129.2 C 75.9 129.2 75.3 129.6 75.1 129.9 C 75.06 129.94 75.1 133.1 75.1 133.1 L 74.6 133.1 L 74.6 128.8 Z M 79.2 128.7 C 80.5 128.7 81.3 129.7 81.3 131 C 81.25 130.96 81.3 131.1 81.3 131.1 C 81.3 131.1 77.62 131.08 77.6 131.1 C 77.7 132 78.3 132.8 79.3 132.8 C 79.9 132.8 80.4 132.6 80.7 132.2 C 80.7 132.2 81 132.5 81 132.5 C 80.6 133 80 133.2 79.3 133.2 C 78 133.2 77.1 132.3 77.1 130.9 C 77.1 129.7 78 128.7 79.2 128.7 Z M 77.6 130.7 C 77.6 130.7 80.8 130.7 80.8 130.7 C 80.8 130 80.3 129.1 79.2 129.1 C 78.2 129.1 77.7 130 77.6 130.7 Z M 87.5 130.1 C 87.5 129.5 87.3 129.1 86.7 129.1 C 86.2 129.1 85.7 129.4 85.4 129.8 C 85.43 129.82 85.4 133.1 85.4 133.1 L 85 133.1 C 85 133.1 84.95 130.07 85 130.1 C 85 129.5 84.7 129.1 84.1 129.1 C 83.6 129.1 83.1 129.4 82.8 129.8 C 82.84 129.82 82.8 133.1 82.8 133.1 L 82.4 133.1 L 82.4 128.8 L 82.8 128.8 C 82.8 128.8 82.84 129.42 82.8 129.4 C 83 129.1 83.6 128.7 84.2 128.7 C 84.9 128.7 85.3 129.1 85.4 129.5 C 85.6 129.1 86.2 128.7 86.8 128.7 C 87.6 128.7 88 129.1 88 130 C 88.01 129.98 88 133.1 88 133.1 L 87.5 133.1 C 87.5 133.1 87.54 130.07 87.5 130.1 Z M 91.6 127.1 L 92.2 127.1 L 92.2 133.1 L 91.6 133.1 L 91.6 127.1 Z M 93.5 134.8 L 93.5 128.8 L 94 128.8 C 94 128.8 94 129.46 94 129.5 C 94.3 129 94.9 128.7 95.5 128.7 C 96.7 128.7 97.5 129.5 97.5 130.9 C 97.5 132.3 96.7 133.2 95.5 133.2 C 94.9 133.2 94.4 132.9 94 132.4 C 94 132.41 94 134.8 94 134.8 L 93.5 134.8 Z M 95.4 129.1 C 94.8 129.1 94.3 129.4 94 129.9 C 94 129.9 94 132 94 132 C 94.3 132.4 94.8 132.8 95.4 132.8 C 96.4 132.8 97 132 97 130.9 C 97 129.9 96.4 129.1 95.4 129.1 Z M 98.5 132.2 C 98.8 132.5 99.3 132.8 99.9 132.8 C 100.6 132.8 101 132.5 101 132 C 101 131.4 100.4 131.2 99.8 131.1 C 99.1 130.9 98.3 130.7 98.3 129.9 C 98.3 129.2 98.9 128.7 99.8 128.7 C 100.6 128.7 101.1 128.9 101.4 129.3 C 101.4 129.3 101.1 129.6 101.1 129.6 C 100.9 129.3 100.4 129.1 99.8 129.1 C 99.2 129.1 98.8 129.4 98.8 129.8 C 98.8 130.3 99.3 130.5 99.9 130.6 C 100.7 130.8 101.5 131 101.5 131.9 C 101.5 132.6 101 133.2 99.9 133.2 C 99.2 133.2 98.6 133 98.2 132.5 C 98.2 132.5 98.5 132.2 98.5 132.2 Z M 105.6 132.5 C 105.2 132.9 104.6 133.2 104 133.2 C 103.1 133.2 102.6 132.8 102.6 131.8 C 102.62 131.82 102.6 128.8 102.6 128.8 L 103.1 128.8 C 103.1 128.8 103.09 131.72 103.1 131.7 C 103.1 132.6 103.5 132.8 104.1 132.8 C 104.7 132.8 105.3 132.5 105.6 132.1 C 105.55 132.08 105.6 128.8 105.6 128.8 L 106 128.8 L 106 133.1 L 105.6 133.1 C 105.6 133.1 105.55 132.47 105.6 132.5 Z M 112.6 130.1 C 112.6 129.5 112.3 129.1 111.7 129.1 C 111.2 129.1 110.7 129.4 110.4 129.8 C 110.45 129.82 110.4 133.1 110.4 133.1 L 110 133.1 C 110 133.1 109.97 130.07 110 130.1 C 110 129.5 109.7 129.1 109.1 129.1 C 108.6 129.1 108.1 129.4 107.9 129.8 C 107.86 129.82 107.9 133.1 107.9 133.1 L 107.4 133.1 L 107.4 128.8 L 107.9 128.8 C 107.9 128.8 107.86 129.42 107.9 129.4 C 108 129.1 108.6 128.7 109.3 128.7 C 109.9 128.7 110.3 129.1 110.4 129.5 C 110.6 129.1 111.2 128.7 111.8 128.7 C 112.6 128.7 113 129.1 113 130 C 113.03 129.98 113 133.1 113 133.1 L 112.6 133.1 C 112.6 133.1 112.56 130.07 112.6 130.1 Z " stroke="none" fill="#242423"/>
  </g>
  <g id="Polygon241727">
    <path d="M 65.4 109.1 L 65.9 109.1 L 65.9 114.6 L 68.8 114.6 L 68.8 115.1 L 65.4 115.1 L 65.4 109.1 Z M 69.3 112.9 C 69.3 111.7 70.1 110.7 71.4 110.7 C 72.7 110.7 73.5 111.7 73.5 112.9 C 73.5 114.2 72.7 115.2 71.4 115.2 C 70.1 115.2 69.3 114.2 69.3 112.9 Z M 73 112.9 C 73 112 72.4 111.1 71.4 111.1 C 70.4 111.1 69.8 112 69.8 112.9 C 69.8 113.9 70.4 114.8 71.4 114.8 C 72.4 114.8 73 113.9 73 112.9 Z M 74.6 110.8 L 75.1 110.8 C 75.1 110.8 75.06 111.51 75.1 111.5 C 75.4 111 75.9 110.7 76.5 110.7 C 76.5 110.7 76.5 111.2 76.5 111.2 C 76.4 111.2 76.4 111.2 76.3 111.2 C 75.9 111.2 75.3 111.6 75.1 111.9 C 75.06 111.94 75.1 115.1 75.1 115.1 L 74.6 115.1 L 74.6 110.8 Z M 79.2 110.7 C 80.5 110.7 81.3 111.7 81.3 113 C 81.25 112.96 81.3 113.1 81.3 113.1 C 81.3 113.1 77.62 113.08 77.6 113.1 C 77.7 114 78.3 114.8 79.3 114.8 C 79.9 114.8 80.4 114.6 80.7 114.2 C 80.7 114.2 81 114.5 81 114.5 C 80.6 115 80 115.2 79.3 115.2 C 78 115.2 77.1 114.3 77.1 112.9 C 77.1 111.7 78 110.7 79.2 110.7 Z M 77.6 112.7 C 77.6 112.7 80.8 112.7 80.8 112.7 C 80.8 112 80.3 111.1 79.2 111.1 C 78.2 111.1 77.7 112 77.6 112.7 Z M 87.5 112.1 C 87.5 111.5 87.3 111.1 86.7 111.1 C 86.2 111.1 85.7 111.4 85.4 111.8 C 85.43 111.82 85.4 115.1 85.4 115.1 L 85 115.1 C 85 115.1 84.95 112.07 85 112.1 C 85 111.5 84.7 111.1 84.1 111.1 C 83.6 111.1 83.1 111.4 82.8 111.8 C 82.84 111.82 82.8 115.1 82.8 115.1 L 82.4 115.1 L 82.4 110.8 L 82.8 110.8 C 82.8 110.8 82.84 111.42 82.8 111.4 C 83 111.1 83.6 110.7 84.2 110.7 C 84.9 110.7 85.3 111.1 85.4 111.5 C 85.6 111.1 86.2 110.7 86.8 110.7 C 87.6 110.7 88 111.1 88 112 C 88.01 111.98 88 115.1 88 115.1 L 87.5 115.1 C 87.5 115.1 87.54 112.07 87.5 112.1 Z M 91.6 109.1 L 92.2 109.1 L 92.2 115.1 L 91.6 115.1 L 91.6 109.1 Z M 93.5 116.8 L 93.5 110.8 L 94 110.8 C 94 110.8 94 111.46 94 111.5 C 94.3 111 94.9 110.7 95.5 110.7 C 96.7 110.7 97.5 111.5 97.5 112.9 C 97.5 114.3 96.7 115.2 95.5 115.2 C 94.9 115.2 94.4 114.9 94 114.4 C 94 114.41 94 116.8 94 116.8 L 93.5 116.8 Z M 95.4 111.1 C 94.8 111.1 94.3 111.4 94 111.9 C 94 111.9 94 114 94 114 C 94.3 114.4 94.8 114.8 95.4 114.8 C 96.4 114.8 97 114 97 112.9 C 97 111.9 96.4 111.1 95.4 111.1 Z M 98.5 114.2 C 98.8 114.5 99.3 114.8 99.9 114.8 C 100.6 114.8 101 114.5 101 114 C 101 113.4 100.4 113.2 99.8 113.1 C 99.1 112.9 98.3 112.7 98.3 111.9 C 98.3 111.2 98.9 110.7 99.8 110.7 C 100.6 110.7 101.1 110.9 101.4 111.3 C 101.4 111.3 101.1 111.6 101.1 111.6 C 100.9 111.3 100.4 111.1 99.8 111.1 C 99.2 111.1 98.8 111.4 98.8 111.8 C 98.8 112.3 99.3 112.5 99.9 112.6 C 100.7 112.8 101.5 113 101.5 113.9 C 101.5 114.6 101 115.2 99.9 115.2 C 99.2 115.2 98.6 115 98.2 114.5 C 98.2 114.5 98.5 114.2 98.5 114.2 Z M 105.6 114.5 C 105.2 114.9 104.6 115.2 104 115.2 C 103.1 115.2 102.6 114.8 102.6 113.8 C 102.62 113.82 102.6 110.8 102.6 110.8 L 103.1 110.8 C 103.1 110.8 103.09 113.72 103.1 113.7 C 103.1 114.6 103.5 114.8 104.1 114.8 C 104.7 114.8 105.3 114.5 105.6 114.1 C 105.55 114.08 105.6 110.8 105.6 110.8 L 106 110.8 L 106 115.1 L 105.6 115.1 C 105.6 115.1 105.55 114.47 105.6 114.5 Z M 112.6 112.1 C 112.6 111.5 112.3 111.1 111.7 111.1 C 111.2 111.1 110.7 111.4 110.4 111.8 C 110.45 111.82 110.4 115.1 110.4 115.1 L 110 115.1 C 110 115.1 109.97 112.07 110 112.1 C 110 111.5 109.7 111.1 109.1 111.1 C 108.6 111.1 108.1 111.4 107.9 111.8 C 107.86 111.82 107.9 115.1 107.9 115.1 L 107.4 115.1 L 107.4 110.8 L 107.9 110.8 C 107.9 110.8 107.86 111.42 107.9 111.4 C 108 111.1 108.6 110.7 109.3 110.7 C 109.9 110.7 110.3 111.1 110.4 111.5 C 110.6 111.1 111.2 110.7 111.8 110.7 C 112.6 110.7 113 111.1 113 112 C 113.03 111.98 113 115.1 113 115.1 L 112.6 115.1 C 112.6 115.1 112.56 112.07 112.6 112.1 Z " stroke="none" fill="#242423"/>
  </g>
  <g id="Polygon241726">
    <path d="M 65.4 91.1 L 65.9 91.1 L 65.9 96.6 L 68.8 96.6 L 68.8 97.1 L 65.4 97.1 L 65.4 91.1 Z M 69.3 94.9 C 69.3 93.7 70.1 92.7 71.4 92.7 C 72.7 92.7 73.5 93.7 73.5 94.9 C 73.5 96.2 72.7 97.2 71.4 97.2 C 70.1 97.2 69.3 96.2 69.3 94.9 Z M 73 94.9 C 73 94 72.4 93.1 71.4 93.1 C 70.4 93.1 69.8 94 69.8 94.9 C 69.8 95.9 70.4 96.8 71.4 96.8 C 72.4 96.8 73 95.9 73 94.9 Z M 74.6 92.8 L 75.1 92.8 C 75.1 92.8 75.06 93.51 75.1 93.5 C 75.4 93 75.9 92.7 76.5 92.7 C 76.5 92.7 76.5 93.2 76.5 93.2 C 76.4 93.2 76.4 93.2 76.3 93.2 C 75.9 93.2 75.3 93.6 75.1 93.9 C 75.06 93.94 75.1 97.1 75.1 97.1 L 74.6 97.1 L 74.6 92.8 Z M 79.2 92.7 C 80.5 92.7 81.3 93.7 81.3 95 C 81.25 94.96 81.3 95.1 81.3 95.1 C 81.3 95.1 77.62 95.08 77.6 95.1 C 77.7 96 78.3 96.8 79.3 96.8 C 79.9 96.8 80.4 96.6 80.7 96.2 C 80.7 96.2 81 96.5 81 96.5 C 80.6 97 80 97.2 79.3 97.2 C 78 97.2 77.1 96.3 77.1 94.9 C 77.1 93.7 78 92.7 79.2 92.7 Z M 77.6 94.7 C 77.6 94.7 80.8 94.7 80.8 94.7 C 80.8 94 80.3 93.1 79.2 93.1 C 78.2 93.1 77.7 94 77.6 94.7 Z M 87.5 94.1 C 87.5 93.5 87.3 93.1 86.7 93.1 C 86.2 93.1 85.7 93.4 85.4 93.8 C 85.43 93.82 85.4 97.1 85.4 97.1 L 85 97.1 C 85 97.1 84.95 94.07 85 94.1 C 85 93.5 84.7 93.1 84.1 93.1 C 83.6 93.1 83.1 93.4 82.8 93.8 C 82.84 93.82 82.8 97.1 82.8 97.1 L 82.4 97.1 L 82.4 92.8 L 82.8 92.8 C 82.8 92.8 82.84 93.42 82.8 93.4 C 83 93.1 83.6 92.7 84.2 92.7 C 84.9 92.7 85.3 93.1 85.4 93.5 C 85.6 93.1 86.2 92.7 86.8 92.7 C 87.6 92.7 88 93.1 88 94 C 88.01 93.98 88 97.1 88 97.1 L 87.5 97.1 C 87.5 97.1 87.54 94.07 87.5 94.1 Z M 91.6 91.1 L 92.2 91.1 L 92.2 97.1 L 91.6 97.1 L 91.6 91.1 Z M 93.5 98.8 L 93.5 92.8 L 94 92.8 C 94 92.8 94 93.46 94 93.5 C 94.3 93 94.9 92.7 95.5 92.7 C 96.7 92.7 97.5 93.5 97.5 94.9 C 97.5 96.3 96.7 97.2 95.5 97.2 C 94.9 97.2 94.4 96.9 94 96.4 C 94 96.41 94 98.8 94 98.8 L 93.5 98.8 Z M 95.4 93.1 C 94.8 93.1 94.3 93.4 94 93.9 C 94 93.9 94 96 94 96 C 94.3 96.4 94.8 96.8 95.4 96.8 C 96.4 96.8 97 96 97 94.9 C 97 93.9 96.4 93.1 95.4 93.1 Z M 98.5 96.2 C 98.8 96.5 99.3 96.8 99.9 96.8 C 100.6 96.8 101 96.5 101 96 C 101 95.4 100.4 95.2 99.8 95.1 C 99.1 94.9 98.3 94.7 98.3 93.9 C 98.3 93.2 98.9 92.7 99.8 92.7 C 100.6 92.7 101.1 92.9 101.4 93.3 C 101.4 93.3 101.1 93.6 101.1 93.6 C 100.9 93.3 100.4 93.1 99.8 93.1 C 99.2 93.1 98.8 93.4 98.8 93.8 C 98.8 94.3 99.3 94.5 99.9 94.6 C 100.7 94.8 101.5 95 101.5 95.9 C 101.5 96.6 101 97.2 99.9 97.2 C 99.2 97.2 98.6 97 98.2 96.5 C 98.2 96.5 98.5 96.2 98.5 96.2 Z M 105.6 96.5 C 105.2 96.9 104.6 97.2 104 97.2 C 103.1 97.2 102.6 96.8 102.6 95.8 C 102.62 95.82 102.6 92.8 102.6 92.8 L 103.1 92.8 C 103.1 92.8 103.09 95.72 103.1 95.7 C 103.1 96.6 103.5 96.8 104.1 96.8 C 104.7 96.8 105.3 96.5 105.6 96.1 C 105.55 96.08 105.6 92.8 105.6 92.8 L 106 92.8 L 106 97.1 L 105.6 97.1 C 105.6 97.1 105.55 96.47 105.6 96.5 Z M 112.6 94.1 C 112.6 93.5 112.3 93.1 111.7 93.1 C 111.2 93.1 110.7 93.4 110.4 93.8 C 110.45 93.82 110.4 97.1 110.4 97.1 L 110 97.1 C 110 97.1 109.97 94.07 110 94.1 C 110 93.5 109.7 93.1 109.1 93.1 C 108.6 93.1 108.1 93.4 107.9 93.8 C 107.86 93.82 107.9 97.1 107.9 97.1 L 107.4 97.1 L 107.4 92.8 L 107.9 92.8 C 107.9 92.8 107.86 93.42 107.9 93.4 C 108 93.1 108.6 92.7 109.3 92.7 C 109.9 92.7 110.3 93.1 110.4 93.5 C 110.6 93.1 111.2 92.7 111.8 92.7 C 112.6 92.7 113 93.1 113 94 C 113.03 93.98 113 97.1 113 97.1 L 112.6 97.1 C 112.6 97.1 112.56 94.07 112.6 94.1 Z " stroke="none" fill="#242423"/>
  </g>
  <g id="Polygon241725">
    <path d="M 65.4 73.1 L 65.9 73.1 L 65.9 78.6 L 68.8 78.6 L 68.8 79.1 L 65.4 79.1 L 65.4 73.1 Z M 69.3 76.9 C 69.3 75.7 70.1 74.7 71.4 74.7 C 72.7 74.7 73.5 75.7 73.5 76.9 C 73.5 78.2 72.7 79.2 71.4 79.2 C 70.1 79.2 69.3 78.2 69.3 76.9 Z M 73 76.9 C 73 76 72.4 75.1 71.4 75.1 C 70.4 75.1 69.8 76 69.8 76.9 C 69.8 77.9 70.4 78.8 71.4 78.8 C 72.4 78.8 73 77.9 73 76.9 Z M 74.6 74.8 L 75.1 74.8 C 75.1 74.8 75.06 75.51 75.1 75.5 C 75.4 75 75.9 74.7 76.5 74.7 C 76.5 74.7 76.5 75.2 76.5 75.2 C 76.4 75.2 76.4 75.2 76.3 75.2 C 75.9 75.2 75.3 75.6 75.1 75.9 C 75.06 75.94 75.1 79.1 75.1 79.1 L 74.6 79.1 L 74.6 74.8 Z M 79.2 74.7 C 80.5 74.7 81.3 75.7 81.3 77 C 81.25 76.96 81.3 77.1 81.3 77.1 C 81.3 77.1 77.62 77.08 77.6 77.1 C 77.7 78 78.3 78.8 79.3 78.8 C 79.9 78.8 80.4 78.6 80.7 78.2 C 80.7 78.2 81 78.5 81 78.5 C 80.6 79 80 79.2 79.3 79.2 C 78 79.2 77.1 78.3 77.1 76.9 C 77.1 75.7 78 74.7 79.2 74.7 Z M 77.6 76.7 C 77.6 76.7 80.8 76.7 80.8 76.7 C 80.8 76 80.3 75.1 79.2 75.1 C 78.2 75.1 77.7 76 77.6 76.7 Z M 87.5 76.1 C 87.5 75.5 87.3 75.1 86.7 75.1 C 86.2 75.1 85.7 75.4 85.4 75.8 C 85.43 75.82 85.4 79.1 85.4 79.1 L 85 79.1 C 85 79.1 84.95 76.07 85 76.1 C 85 75.5 84.7 75.1 84.1 75.1 C 83.6 75.1 83.1 75.4 82.8 75.8 C 82.84 75.82 82.8 79.1 82.8 79.1 L 82.4 79.1 L 82.4 74.8 L 82.8 74.8 C 82.8 74.8 82.84 75.42 82.8 75.4 C 83 75.1 83.6 74.7 84.2 74.7 C 84.9 74.7 85.3 75.1 85.4 75.5 C 85.6 75.1 86.2 74.7 86.8 74.7 C 87.6 74.7 88 75.1 88 76 C 88.01 75.98 88 79.1 88 79.1 L 87.5 79.1 C 87.5 79.1 87.54 76.07 87.5 76.1 Z M 91.6 73.1 L 92.2 73.1 L 92.2 79.1 L 91.6 79.1 L 91.6 73.1 Z M 93.5 80.8 L 93.5 74.8 L 94 74.8 C 94 74.8 94 75.46 94 75.5 C 94.3 75 94.9 74.7 95.5 74.7 C 96.7 74.7 97.5 75.5 97.5 76.9 C 97.5 78.3 96.7 79.2 95.5 79.2 C 94.9 79.2 94.4 78.9 94 78.4 C 94 78.41 94 80.8 94 80.8 L 93.5 80.8 Z M 95.4 75.1 C 94.8 75.1 94.3 75.4 94 75.9 C 94 75.9 94 78 94 78 C 94.3 78.4 94.8 78.8 95.4 78.8 C 96.4 78.8 97 78 97 76.9 C 97 75.9 96.4 75.1 95.4 75.1 Z M 98.5 78.2 C 98.8 78.5 99.3 78.8 99.9 78.8 C 100.6 78.8 101 78.5 101 78 C 101 77.4 100.4 77.2 99.8 77.1 C 99.1 76.9 98.3 76.7 98.3 75.9 C 98.3 75.2 98.9 74.7 99.8 74.7 C 100.6 74.7 101.1 74.9 101.4 75.3 C 101.4 75.3 101.1 75.6 101.1 75.6 C 100.9 75.3 100.4 75.1 99.8 75.1 C 99.2 75.1 98.8 75.4 98.8 75.8 C 98.8 76.3 99.3 76.5 99.9 76.6 C 100.7 76.8 101.5 77 101.5 77.9 C 101.5 78.6 101 79.2 99.9 79.2 C 99.2 79.2 98.6 79 98.2 78.5 C 98.2 78.5 98.5 78.2 98.5 78.2 Z M 105.6 78.5 C 105.2 78.9 104.6 79.2 104 79.2 C 103.1 79.2 102.6 78.8 102.6 77.8 C 102.62 77.82 102.6 74.8 102.6 74.8 L 103.1 74.8 C 103.1 74.8 103.09 77.72 103.1 77.7 C 103.1 78.6 103.5 78.8 104.1 78.8 C 104.7 78.8 105.3 78.5 105.6 78.1 C 105.55 78.08 105.6 74.8 105.6 74.8 L 106 74.8 L 106 79.1 L 105.6 79.1 C 105.6 79.1 105.55 78.47 105.6 78.5 Z M 112.6 76.1 C 112.6 75.5 112.3 75.1 111.7 75.1 C 111.2 75.1 110.7 75.4 110.4 75.8 C 110.45 75.82 110.4 79.1 110.4 79.1 L 110 79.1 C 110 79.1 109.97 76.07 110 76.1 C 110 75.5 109.7 75.1 109.1 75.1 C 108.6 75.1 108.1 75.4 107.9 75.8 C 107.86 75.82 107.9 79.1 107.9 79.1 L 107.4 79.1 L 107.4 74.8 L 107.9 74.8 C 107.9 74.8 107.86 75.42 107.9 75.4 C 108 75.1 108.6 74.7 109.3 74.7 C 109.9 74.7 110.3 75.1 110.4 75.5 C 110.6 75.1 111.2 74.7 111.8 74.7 C 112.6 74.7 113 75.1 113 76 C 113.03 75.98 113 79.1 113 79.1 L 112.6 79.1 C 112.6 79.1 112.56 76.07 112.6 76.1 Z " stroke="none" fill="#242423"/>
  </g>
  <g id="Polygon241724">
    <path d="M 65.4 55.1 L 65.9 55.1 L 65.9 60.6 L 68.8 60.6 L 68.8 61.1 L 65.4 61.1 L 65.4 55.1 Z M 69.3 58.9 C 69.3 57.7 70.1 56.7 71.4 56.7 C 72.7 56.7 73.5 57.7 73.5 58.9 C 73.5 60.2 72.7 61.2 71.4 61.2 C 70.1 61.2 69.3 60.2 69.3 58.9 Z M 73 58.9 C 73 58 72.4 57.1 71.4 57.1 C 70.4 57.1 69.8 58 69.8 58.9 C 69.8 59.9 70.4 60.8 71.4 60.8 C 72.4 60.8 73 59.9 73 58.9 Z M 74.6 56.8 L 75.1 56.8 C 75.1 56.8 75.06 57.51 75.1 57.5 C 75.4 57 75.9 56.7 76.5 56.7 C 76.5 56.7 76.5 57.2 76.5 57.2 C 76.4 57.2 76.4 57.2 76.3 57.2 C 75.9 57.2 75.3 57.6 75.1 57.9 C 75.06 57.94 75.1 61.1 75.1 61.1 L 74.6 61.1 L 74.6 56.8 Z M 79.2 56.7 C 80.5 56.7 81.3 57.7 81.3 59 C 81.25 58.96 81.3 59.1 81.3 59.1 C 81.3 59.1 77.62 59.08 77.6 59.1 C 77.7 60 78.3 60.8 79.3 60.8 C 79.9 60.8 80.4 60.6 80.7 60.2 C 80.7 60.2 81 60.5 81 60.5 C 80.6 61 80 61.2 79.3 61.2 C 78 61.2 77.1 60.3 77.1 58.9 C 77.1 57.7 78 56.7 79.2 56.7 Z M 77.6 58.7 C 77.6 58.7 80.8 58.7 80.8 58.7 C 80.8 58 80.3 57.1 79.2 57.1 C 78.2 57.1 77.7 58 77.6 58.7 Z M 87.5 58.1 C 87.5 57.5 87.3 57.1 86.7 57.1 C 86.2 57.1 85.7 57.4 85.4 57.8 C 85.43 57.82 85.4 61.1 85.4 61.1 L 85 61.1 C 85 61.1 84.95 58.07 85 58.1 C 85 57.5 84.7 57.1 84.1 57.1 C 83.6 57.1 83.1 57.4 82.8 57.8 C 82.84 57.82 82.8 61.1 82.8 61.1 L 82.4 61.1 L 82.4 56.8 L 82.8 56.8 C 82.8 56.8 82.84 57.42 82.8 57.4 C 83 57.1 83.6 56.7 84.2 56.7 C 84.9 56.7 85.3 57.1 85.4 57.5 C 85.6 57.1 86.2 56.7 86.8 56.7 C 87.6 56.7 88 57.1 88 58 C 88.01 57.98 88 61.1 88 61.1 L 87.5 61.1 C 87.5 61.1 87.54 58.07 87.5 58.1 Z M 91.6 55.1 L 92.2 55.1 L 92.2 61.1 L 91.6 61.1 L 91.6 55.1 Z M 93.5 62.8 L 93.5 56.8 L 94 56.8 C 94 56.8 94 57.46 94 57.5 C 94.3 57 94.9 56.7 95.5 56.7 C 96.7 56.7 97.5 57.5 97.5 58.9 C 97.5 60.3 96.7 61.2 95.5 61.2 C 94.9 61.2 94.4 60.9 94 60.4 C 94 60.41 94 62.8 94 62.8 L 93.5 62.8 Z M 95.4 57.1 C 94.8 57.1 94.3 57.4 94 57.9 C 94 57.9 94 60 94 60 C 94.3 60.4 94.8 60.8 95.4 60.8 C 96.4 60.8 97 60 97 58.9 C 97 57.9 96.4 57.1 95.4 57.1 Z M 98.5 60.2 C 98.8 60.5 99.3 60.8 99.9 60.8 C 100.6 60.8 101 60.5 101 60 C 101 59.4 100.4 59.2 99.8 59.1 C 99.1 58.9 98.3 58.7 98.3 57.9 C 98.3 57.2 98.9 56.7 99.8 56.7 C 100.6 56.7 101.1 56.9 101.4 57.3 C 101.4 57.3 101.1 57.6 101.1 57.6 C 100.9 57.3 100.4 57.1 99.8 57.1 C 99.2 57.1 98.8 57.4 98.8 57.8 C 98.8 58.3 99.3 58.5 99.9 58.6 C 100.7 58.8 101.5 59 101.5 59.9 C 101.5 60.6 101 61.2 99.9 61.2 C 99.2 61.2 98.6 61 98.2 60.5 C 98.2 60.5 98.5 60.2 98.5 60.2 Z M 105.6 60.5 C 105.2 60.9 104.6 61.2 104 61.2 C 103.1 61.2 102.6 60.8 102.6 59.8 C 102.62 59.82 102.6 56.8 102.6 56.8 L 103.1 56.8 C 103.1 56.8 103.09 59.72 103.1 59.7 C 103.1 60.6 103.5 60.8 104.1 60.8 C 104.7 60.8 105.3 60.5 105.6 60.1 C 105.55 60.08 105.6 56.8 105.6 56.8 L 106 56.8 L 106 61.1 L 105.6 61.1 C 105.6 61.1 105.55 60.47 105.6 60.5 Z M 112.6 58.1 C 112.6 57.5 112.3 57.1 111.7 57.1 C 111.2 57.1 110.7 57.4 110.4 57.8 C 110.45 57.82 110.4 61.1 110.4 61.1 L 110 61.1 C 110 61.1 109.97 58.07 110 58.1 C 110 57.5 109.7 57.1 109.1 57.1 C 108.6 57.1 108.1 57.4 107.9 57.8 C 107.86 57.82 107.9 61.1 107.9 61.1 L 107.4 61.1 L 107.4 56.8 L 107.9 56.8 C 107.9 56.8 107.86 57.42 107.9 57.4 C 108 57.1 108.6 56.7 109.3 56.7 C 109.9 56.7 110.3 57.1 110.4 57.5 C 110.6 57.1 111.2 56.7 111.8 56.7 C 112.6 56.7 113 57.1 113 58 C 113.03 57.98 113 61.1 113 61.1 L 112.6 61.1 C 112.6 61.1 112.56 58.07 112.6 58.1 Z " stroke="none" fill="#242423"/>
  </g>
  <g id="Polygon241723">
    <path d="M 65.4 37.1 L 65.9 37.1 L 65.9 42.6 L 68.8 42.6 L 68.8 43.1 L 65.4 43.1 L 65.4 37.1 Z M 69.3 40.9 C 69.3 39.7 70.1 38.7 71.4 38.7 C 72.7 38.7 73.5 39.7 73.5 40.9 C 73.5 42.2 72.7 43.2 71.4 43.2 C 70.1 43.2 69.3 42.2 69.3 40.9 Z M 73 40.9 C 73 40 72.4 39.1 71.4 39.1 C 70.4 39.1 69.8 40 69.8 40.9 C 69.8 41.9 70.4 42.8 71.4 42.8 C 72.4 42.8 73 41.9 73 40.9 Z M 74.6 38.8 L 75.1 38.8 C 75.1 38.8 75.06 39.51 75.1 39.5 C 75.4 39 75.9 38.7 76.5 38.7 C 76.5 38.7 76.5 39.2 76.5 39.2 C 76.4 39.2 76.4 39.2 76.3 39.2 C 75.9 39.2 75.3 39.6 75.1 39.9 C 75.06 39.94 75.1 43.1 75.1 43.1 L 74.6 43.1 L 74.6 38.8 Z M 79.2 38.7 C 80.5 38.7 81.3 39.7 81.3 41 C 81.25 40.96 81.3 41.1 81.3 41.1 C 81.3 41.1 77.62 41.08 77.6 41.1 C 77.7 42 78.3 42.8 79.3 42.8 C 79.9 42.8 80.4 42.6 80.7 42.2 C 80.7 42.2 81 42.5 81 42.5 C 80.6 43 80 43.2 79.3 43.2 C 78 43.2 77.1 42.3 77.1 40.9 C 77.1 39.7 78 38.7 79.2 38.7 Z M 77.6 40.7 C 77.6 40.7 80.8 40.7 80.8 40.7 C 80.8 40 80.3 39.1 79.2 39.1 C 78.2 39.1 77.7 40 77.6 40.7 Z M 87.5 40.1 C 87.5 39.5 87.3 39.1 86.7 39.1 C 86.2 39.1 85.7 39.4 85.4 39.8 C 85.43 39.82 85.4 43.1 85.4 43.1 L 85 43.1 C 85 43.1 84.95 40.07 85 40.1 C 85 39.5 84.7 39.1 84.1 39.1 C 83.6 39.1 83.1 39.4 82.8 39.8 C 82.84 39.82 82.8 43.1 82.8 43.1 L 82.4 43.1 L 82.4 38.8 L 82.8 38.8 C 82.8 38.8 82.84 39.42 82.8 39.4 C 83 39.1 83.6 38.7 84.2 38.7 C 84.9 38.7 85.3 39.1 85.4 39.5 C 85.6 39.1 86.2 38.7 86.8 38.7 C 87.6 38.7 88 39.1 88 40 C 88.01 39.98 88 43.1 88 43.1 L 87.5 43.1 C 87.5 43.1 87.54 40.07 87.5 40.1 Z M 91.6 37.1 L 92.2 37.1 L 92.2 43.1 L 91.6 43.1 L 91.6 37.1 Z M 93.5 44.8 L 93.5 38.8 L 94 38.8 C 94 38.8 94 39.46 94 39.5 C 94.3 39 94.9 38.7 95.5 38.7 C 96.7 38.7 97.5 39.5 97.5 40.9 C 97.5 42.3 96.7 43.2 95.5 43.2 C 94.9 43.2 94.4 42.9 94 42.4 C 94 42.41 94 44.8 94 44.8 L 93.5 44.8 Z M 95.4 39.1 C 94.8 39.1 94.3 39.4 94 39.9 C 94 39.9 94 42 94 42 C 94.3 42.4 94.8 42.8 95.4 42.8 C 96.4 42.8 97 42 97 40.9 C 97 39.9 96.4 39.1 95.4 39.1 Z M 98.5 42.2 C 98.8 42.5 99.3 42.8 99.9 42.8 C 100.6 42.8 101 42.5 101 42 C 101 41.4 100.4 41.2 99.8 41.1 C 99.1 40.9 98.3 40.7 98.3 39.9 C 98.3 39.2 98.9 38.7 99.8 38.7 C 100.6 38.7 101.1 38.9 101.4 39.3 C 101.4 39.3 101.1 39.6 101.1 39.6 C 100.9 39.3 100.4 39.1 99.8 39.1 C 99.2 39.1 98.8 39.4 98.8 39.8 C 98.8 40.3 99.3 40.5 99.9 40.6 C 100.7 40.8 101.5 41 101.5 41.9 C 101.5 42.6 101 43.2 99.9 43.2 C 99.2 43.2 98.6 43 98.2 42.5 C 98.2 42.5 98.5 42.2 98.5 42.2 Z M 105.6 42.5 C 105.2 42.9 104.6 43.2 104 43.2 C 103.1 43.2 102.6 42.8 102.6 41.8 C 102.62 41.82 102.6 38.8 102.6 38.8 L 103.1 38.8 C 103.1 38.8 103.09 41.72 103.1 41.7 C 103.1 42.6 103.5 42.8 104.1 42.8 C 104.7 42.8 105.3 42.5 105.6 42.1 C 105.55 42.08 105.6 38.8 105.6 38.8 L 106 38.8 L 106 43.1 L 105.6 43.1 C 105.6 43.1 105.55 42.47 105.6 42.5 Z M 112.6 40.1 C 112.6 39.5 112.3 39.1 111.7 39.1 C 111.2 39.1 110.7 39.4 110.4 39.8 C 110.45 39.82 110.4 43.1 110.4 43.1 L 110 43.1 C 110 43.1 109.97 40.07 110 40.1 C 110 39.5 109.7 39.1 109.1 39.1 C 108.6 39.1 108.1 39.4 107.9 39.8 C 107.86 39.82 107.9 43.1 107.9 43.1 L 107.4 43.1 L 107.4 38.8 L 107.9 38.8 C 107.9 38.8 107.86 39.42 107.9 39.4 C 108 39.1 108.6 38.7 109.3 38.7 C 109.9 38.7 110.3 39.1 110.4 39.5 C 110.6 39.1 111.2 38.7 111.8 38.7 C 112.6 38.7 113 39.1 113 40 C 113.03 39.98 113 43.1 113 43.1 L 112.6 43.1 C 112.6 43.1 112.56 40.07 112.6 40.1 Z " stroke="none" fill="#242423"/>
  </g>
  <g id="Polygon241722">
    <path d="M 65.4 19.1 L 65.9 19.1 L 65.9 24.6 L 68.8 24.6 L 68.8 25.1 L 65.4 25.1 L 65.4 19.1 Z M 69.3 22.9 C 69.3 21.7 70.1 20.7 71.4 20.7 C 72.7 20.7 73.5 21.7 73.5 22.9 C 73.5 24.2 72.7 25.2 71.4 25.2 C 70.1 25.2 69.3 24.2 69.3 22.9 Z M 73 22.9 C 73 22 72.4 21.1 71.4 21.1 C 70.4 21.1 69.8 22 69.8 22.9 C 69.8 23.9 70.4 24.8 71.4 24.8 C 72.4 24.8 73 23.9 73 22.9 Z M 74.6 20.8 L 75.1 20.8 C 75.1 20.8 75.06 21.51 75.1 21.5 C 75.4 21 75.9 20.7 76.5 20.7 C 76.5 20.7 76.5 21.2 76.5 21.2 C 76.4 21.2 76.4 21.2 76.3 21.2 C 75.9 21.2 75.3 21.6 75.1 21.9 C 75.06 21.94 75.1 25.1 75.1 25.1 L 74.6 25.1 L 74.6 20.8 Z M 79.2 20.7 C 80.5 20.7 81.3 21.7 81.3 23 C 81.25 22.96 81.3 23.1 81.3 23.1 C 81.3 23.1 77.62 23.08 77.6 23.1 C 77.7 24 78.3 24.8 79.3 24.8 C 79.9 24.8 80.4 24.6 80.7 24.2 C 80.7 24.2 81 24.5 81 24.5 C 80.6 25 80 25.2 79.3 25.2 C 78 25.2 77.1 24.3 77.1 22.9 C 77.1 21.7 78 20.7 79.2 20.7 Z M 77.6 22.7 C 77.6 22.7 80.8 22.7 80.8 22.7 C 80.8 22 80.3 21.1 79.2 21.1 C 78.2 21.1 77.7 22 77.6 22.7 Z M 87.5 22.1 C 87.5 21.5 87.3 21.1 86.7 21.1 C 86.2 21.1 85.7 21.4 85.4 21.8 C 85.43 21.82 85.4 25.1 85.4 25.1 L 85 25.1 C 85 25.1 84.95 22.07 85 22.1 C 85 21.5 84.7 21.1 84.1 21.1 C 83.6 21.1 83.1 21.4 82.8 21.8 C 82.84 21.82 82.8 25.1 82.8 25.1 L 82.4 25.1 L 82.4 20.8 L 82.8 20.8 C 82.8 20.8 82.84 21.42 82.8 21.4 C 83 21.1 83.6 20.7 84.2 20.7 C 84.9 20.7 85.3 21.1 85.4 21.5 C 85.6 21.1 86.2 20.7 86.8 20.7 C 87.6 20.7 88 21.1 88 22 C 88.01 21.98 88 25.1 88 25.1 L 87.5 25.1 C 87.5 25.1 87.54 22.07 87.5 22.1 Z M 91.6 19.1 L 92.2 19.1 L 92.2 25.1 L 91.6 25.1 L 91.6 19.1 Z M 93.5 26.8 L 93.5 20.8 L 94 20.8 C 94 20.8 94 21.46 94 21.5 C 94.3 21 94.9 20.7 95.5 20.7 C 96.7 20.7 97.5 21.5 97.5 22.9 C 97.5 24.3 96.7 25.2 95.5 25.2 C 94.9 25.2 94.4 24.9 94 24.4 C 94 24.41 94 26.8 94 26.8 L 93.5 26.8 Z M 95.4 21.1 C 94.8 21.1 94.3 21.4 94 21.9 C 94 21.9 94 24 94 24 C 94.3 24.4 94.8 24.8 95.4 24.8 C 96.4 24.8 97 24 97 22.9 C 97 21.9 96.4 21.1 95.4 21.1 Z M 98.5 24.2 C 98.8 24.5 99.3 24.8 99.9 24.8 C 100.6 24.8 101 24.5 101 24 C 101 23.4 100.4 23.2 99.8 23.1 C 99.1 22.9 98.3 22.7 98.3 21.9 C 98.3 21.2 98.9 20.7 99.8 20.7 C 100.6 20.7 101.1 20.9 101.4 21.3 C 101.4 21.3 101.1 21.6 101.1 21.6 C 100.9 21.3 100.4 21.1 99.8 21.1 C 99.2 21.1 98.8 21.4 98.8 21.8 C 98.8 22.3 99.3 22.5 99.9 22.6 C 100.7 22.8 101.5 23 101.5 23.9 C 101.5 24.6 101 25.2 99.9 25.2 C 99.2 25.2 98.6 25 98.2 24.5 C 98.2 24.5 98.5 24.2 98.5 24.2 Z M 105.6 24.5 C 105.2 24.9 104.6 25.2 104 25.2 C 103.1 25.2 102.6 24.8 102.6 23.8 C 102.62 23.82 102.6 20.8 102.6 20.8 L 103.1 20.8 C 103.1 20.8 103.09 23.72 103.1 23.7 C 103.1 24.6 103.5 24.8 104.1 24.8 C 104.7 24.8 105.3 24.5 105.6 24.1 C 105.55 24.08 105.6 20.8 105.6 20.8 L 106 20.8 L 106 25.1 L 105.6 25.1 C 105.6 25.1 105.55 24.47 105.6 24.5 Z M 112.6 22.1 C 112.6 21.5 112.3 21.1 111.7 21.1 C 111.2 21.1 110.7 21.4 110.4 21.8 C 110.45 21.82 110.4 25.1 110.4 25.1 L 110 25.1 C 110 25.1 109.97 22.07 110 22.1 C 110 21.5 109.7 21.1 109.1 21.1 C 108.6 21.1 108.1 21.4 107.9 21.8 C 107.86 21.82 107.9 25.1 107.9 25.1 L 107.4 25.1 L 107.4 20.8 L 107.9 20.8 C 107.9 20.8 107.86 21.42 107.9 21.4 C 108 21.1 108.6 20.7 109.3 20.7 C 109.9 20.7 110.3 21.1 110.4 21.5 C 110.6 21.1 111.2 20.7 111.8 20.7 C 112.6 20.7 113 21.1 113 22 C 113.03 21.98 113 25.1 113 25.1 L 112.6 25.1 C 112.6 25.1 112.56 22.07 112.6 22.1 Z " stroke="none" fill="#242423"/>
  </g>
  <g id="Polygon241721">
    <path d="M 65.4 1.1 L 65.9 1.1 L 65.9 6.6 L 68.8 6.6 L 68.8 7.1 L 65.4 7.1 L 65.4 1.1 Z M 69.3 4.9 C 69.3 3.7 70.1 2.7 71.4 2.7 C 72.7 2.7 73.5 3.7 73.5 4.9 C 73.5 6.2 72.7 7.2 71.4 7.2 C 70.1 7.2 69.3 6.2 69.3 4.9 Z M 73 4.9 C 73 4 72.4 3.1 71.4 3.1 C 70.4 3.1 69.8 4 69.8 4.9 C 69.8 5.9 70.4 6.8 71.4 6.8 C 72.4 6.8 73 5.9 73 4.9 Z M 74.6 2.8 L 75.1 2.8 C 75.1 2.8 75.06 3.51 75.1 3.5 C 75.4 3 75.9 2.7 76.5 2.7 C 76.5 2.7 76.5 3.2 76.5 3.2 C 76.4 3.2 76.4 3.2 76.3 3.2 C 75.9 3.2 75.3 3.6 75.1 3.9 C 75.06 3.94 75.1 7.1 75.1 7.1 L 74.6 7.1 L 74.6 2.8 Z M 79.2 2.7 C 80.5 2.7 81.3 3.7 81.3 5 C 81.25 4.96 81.3 5.1 81.3 5.1 C 81.3 5.1 77.62 5.08 77.6 5.1 C 77.7 6 78.3 6.8 79.3 6.8 C 79.9 6.8 80.4 6.6 80.7 6.2 C 80.7 6.2 81 6.5 81 6.5 C 80.6 7 80 7.2 79.3 7.2 C 78 7.2 77.1 6.3 77.1 4.9 C 77.1 3.7 78 2.7 79.2 2.7 Z M 77.6 4.7 C 77.6 4.7 80.8 4.7 80.8 4.7 C 80.8 4 80.3 3.1 79.2 3.1 C 78.2 3.1 77.7 4 77.6 4.7 Z M 87.5 4.1 C 87.5 3.5 87.3 3.1 86.7 3.1 C 86.2 3.1 85.7 3.4 85.4 3.8 C 85.43 3.82 85.4 7.1 85.4 7.1 L 85 7.1 C 85 7.1 84.95 4.07 85 4.1 C 85 3.5 84.7 3.1 84.1 3.1 C 83.6 3.1 83.1 3.4 82.8 3.8 C 82.84 3.82 82.8 7.1 82.8 7.1 L 82.4 7.1 L 82.4 2.8 L 82.8 2.8 C 82.8 2.8 82.84 3.42 82.8 3.4 C 83 3.1 83.6 2.7 84.2 2.7 C 84.9 2.7 85.3 3.1 85.4 3.5 C 85.6 3.1 86.2 2.7 86.8 2.7 C 87.6 2.7 88 3.1 88 4 C 88.01 3.98 88 7.1 88 7.1 L 87.5 7.1 C 87.5 7.1 87.54 4.07 87.5 4.1 Z M 91.6 1.1 L 92.2 1.1 L 92.2 7.1 L 91.6 7.1 L 91.6 1.1 Z M 93.5 8.8 L 93.5 2.8 L 94 2.8 C 94 2.8 94 3.46 94 3.5 C 94.3 3 94.9 2.7 95.5 2.7 C 96.7 2.7 97.5 3.5 97.5 4.9 C 97.5 6.3 96.7 7.2 95.5 7.2 C 94.9 7.2 94.4 6.9 94 6.4 C 94 6.41 94 8.8 94 8.8 L 93.5 8.8 Z M 95.4 3.1 C 94.8 3.1 94.3 3.4 94 3.9 C 94 3.9 94 6 94 6 C 94.3 6.4 94.8 6.8 95.4 6.8 C 96.4 6.8 97 6 97 4.9 C 97 3.9 96.4 3.1 95.4 3.1 Z M 98.5 6.2 C 98.8 6.5 99.3 6.8 99.9 6.8 C 100.6 6.8 101 6.5 101 6 C 101 5.4 100.4 5.2 99.8 5.1 C 99.1 4.9 98.3 4.7 98.3 3.9 C 98.3 3.2 98.9 2.7 99.8 2.7 C 100.6 2.7 101.1 2.9 101.4 3.3 C 101.4 3.3 101.1 3.6 101.1 3.6 C 100.9 3.3 100.4 3.1 99.8 3.1 C 99.2 3.1 98.8 3.4 98.8 3.8 C 98.8 4.3 99.3 4.5 99.9 4.6 C 100.7 4.8 101.5 5 101.5 5.9 C 101.5 6.6 101 7.2 99.9 7.2 C 99.2 7.2 98.6 7 98.2 6.5 C 98.2 6.5 98.5 6.2 98.5 6.2 Z M 105.6 6.5 C 105.2 6.9 104.6 7.2 104 7.2 C 103.1 7.2 102.6 6.8 102.6 5.8 C 102.62 5.82 102.6 2.8 102.6 2.8 L 103.1 2.8 C 103.1 2.8 103.09 5.72 103.1 5.7 C 103.1 6.6 103.5 6.8 104.1 6.8 C 104.7 6.8 105.3 6.5 105.6 6.1 C 105.55 6.08 105.6 2.8 105.6 2.8 L 106 2.8 L 106 7.1 L 105.6 7.1 C 105.6 7.1 105.55 6.47 105.6 6.5 Z M 112.6 4.1 C 112.6 3.5 112.3 3.1 111.7 3.1 C 111.2 3.1 110.7 3.4 110.4 3.8 C 110.45 3.82 110.4 7.1 110.4 7.1 L 110 7.1 C 110 7.1 109.97 4.07 110 4.1 C 110 3.5 109.7 3.1 109.1 3.1 C 108.6 3.1 108.1 3.4 107.9 3.8 C 107.86 3.82 107.9 7.1 107.9 7.1 L 107.4 7.1 L 107.4 2.8 L 107.9 2.8 C 107.9 2.8 107.86 3.42 107.9 3.4 C 108 3.1 108.6 2.7 109.3 2.7 C 109.9 2.7 110.3 3.1 110.4 3.5 C 110.6 3.1 111.2 2.7 111.8 2.7 C 112.6 2.7 113 3.1 113 4 C 113.03 3.98 113 7.1 113 7.1 L 112.6 7.1 C 112.6 7.1 112.56 4.07 112.6 4.1 Z " stroke="none" fill="#242423"/>
  </g>
</svg>