<?xml version="1.0" standalone="no"?><!DOCTYPE svg PUBLIC "-//W3C//DTD SVG 1.1//EN" "http://www.w3.org/Graphics/SVG/1.1/DTD/svg11.dtd"><svg xmlns="http://www.w3.org/2000/svg" xmlns:xlink="http://www.w3.org/1999/xlink" version="1.1" width="134px" height="32.3px" viewBox="0 -7 134 32.3" style="top:-7px"><desc/><defs/><g id="Polygon74420"><path d="m23 6.9l7-3.6v.8l-6.2 3.1l6.2 3.1v.8l-7-3.6v-.6zm7.9 0l6.9-3.6v.8l-6.1 3.1l6.1 3.1v.8l-6.9-3.6v-.6zm13.7-5.1c1.7 0 3 .7 4 1.8l-.7.5c-.7-.9-2-1.5-3.3-1.5c-2.5 0-4.4 1.9-4.4 4.7c0 2.7 1.9 4.6 4.4 4.6c1.4 0 2.5-.7 3.1-1.3c.01.04 0-2.5 0-2.5h-4v-.8h4.9s.01 3.69 0 3.7c-.9 1-2.3 1.8-4 1.8c-3 0-5.4-2.3-5.4-5.5c0-3.3 2.4-5.5 5.4-5.5zm6.3 3.1h.8v1.3c.7-.9 1.5-1.5 2.6-1.5v.9h-.4c-.8 0-1.8.7-2.2 1.4v5.5h-.8V4.9zm4.6 3.8c0-2.2 1.4-4 3.7-4c2.2 0 3.7 1.8 3.7 4c0 2.2-1.5 4-3.7 4c-2.3 0-3.7-1.8-3.7-4zm6.5 0c0-1.7-1-3.3-2.8-3.3c-1.8 0-2.8 1.6-2.8 3.3c0 1.7 1 3.3 2.8 3.3C61 12 62 10.4 62 8.7zM69.4 6l-2.1 6.5h-.8L64 4.9h.9l2 6.5l2.2-6.5h.7l2.1 6.5L74 4.9h.8l-2.4 7.6h-.8L69.4 6zm7.2 5.1c-.04-.03 0-5.5 0-5.5h-1.3v-.7h1.3V2.8h.8v2.1h1.6v.7h-1.6v5.3c0 .7.3 1.1.8 1.1c.4 0 .7-.2.9-.4l.3.7c-.3.2-.7.4-1.3.4c-1 0-1.5-.6-1.5-1.6zm9.3-3.8c0-1.5-.7-1.9-1.8-1.9c-1 0-2 .7-2.5 1.3v5.8h-.8V2h.8v4c.6-.6 1.6-1.3 2.8-1.3c1.5 0 2.4.7 2.4 2.4c-.03.04 0 5.4 0 5.4h-.9s.05-5.18 0-5.2zm7.2 4.5c3.6-2.9 6-5 6-7c0-1.5-1.3-2.2-2.4-2.2c-1.4 0-2.4.6-2.9 1.4l-.7-.6c.8-1 2.1-1.6 3.6-1.6c1.5 0 3.3.9 3.3 3c0 2.3-2.5 4.4-5.5 6.9c-.02.02 5.5 0 5.5 0v.8h-6.9s-.04-.7 0-.7zm13.2-10c2.8 0 3.9 2.9 3.9 5.5c0 2.5-1.1 5.4-3.9 5.4c-2.9 0-4-2.9-4-5.4c0-2.6 1.1-5.5 4-5.5zm0 .8c-2.3 0-3 2.5-3 4.7c0 2.1.7 4.6 3 4.6c2.2 0 2.9-2.5 2.9-4.6c0-2.2-.7-4.7-2.9-4.7zm7.4.6L112 5l-.5-.6l2.3-2.4h.8v10.5h-.9V3.2zm7.1-1.4c2.8 0 3.9 2.9 3.9 5.5c0 2.5-1.1 5.4-3.9 5.4c-2.9 0-3.9-2.9-3.9-5.4c0-2.6 1-5.5 3.9-5.5zm0 .8c-2.2 0-3 2.5-3 4.7c0 2.1.8 4.6 3 4.6c2.2 0 2.9-2.5 2.9-4.6c0-2.2-.7-4.7-2.9-4.7zm9.4 5.7h3.8v.8h-3.8v-.8z" stroke="none" fill="#000"/><a xlink:href="DBF_Growth%202010%20-%202018%20(1%20Mile)1" xlink:show="new" xlink:title="&lt;&lt;Growth 2010 - 2018 (1 Mile)1&gt;&gt;"><rect style="fill:transparent;" x="22" y="1" width="112" height="12"/></a></g></svg>