<?xml version="1.0" standalone="no"?><!DOCTYPE svg PUBLIC "-//W3C//DTD SVG 1.1//EN" "http://www.w3.org/Graphics/SVG/1.1/DTD/svg11.dtd"><svg xmlns="http://www.w3.org/2000/svg" xmlns:xlink="http://www.w3.org/1999/xlink" version="1.1" width="134.3px" height="25.9px" viewBox="0 -8 134.3 25.9" style="top:-8px"><desc/><defs/><g id="Polygon49503"><path d="m49.5 3.9l3.9-2v.4L50 4.1l3.4 1.8v.4l-3.9-2v-.4zm4.4 0l4-2v.4l-3.5 1.8l3.5 1.8v.4l-4-2v-.4zm6.8.7h-1.3v2.5h-.5v-6s2.24.01 2.2 0c1.1 0 1.9.7 1.9 1.8c0 1.1-.8 1.7-1.7 1.7L63 7.1h-.6l-1.7-2.5zm.4-3c-.01-.03-1.7 0-1.7 0v2.6s1.69-.04 1.7 0c.8 0 1.3-.6 1.3-1.3c0-.8-.5-1.3-1.3-1.3zm4.7 1.1c1.3 0 2.1 1 2.1 2.3c-.05-.04 0 .1 0 .1c0 0-3.68-.02-3.7 0c.1.9.7 1.7 1.7 1.7c.6 0 1.1-.2 1.4-.6l.3.3c-.4.5-1 .7-1.7.7c-1.3 0-2.2-.9-2.2-2.3c0-1.2.9-2.2 2.1-2.2zm-1.6 2h3.2c0-.7-.5-1.6-1.6-1.6c-1 0-1.5.9-1.6 1.6zm7.6 1.9c-.4.4-.9.6-1.5.6c-.7 0-1.5-.5-1.5-1.4c0-1 .8-1.5 1.5-1.5c.6 0 1.1.2 1.5.6v-.8c0-.7-.5-1-1.1-1c-.6 0-1 .2-1.4.6l-.3-.3c.5-.5 1-.7 1.7-.7c.9 0 1.6.4 1.6 1.4v3h-.5s.02-.5 0-.5zm0-1.3c-.3-.4-.8-.6-1.3-.6c-.7 0-1.2.5-1.2 1.1c0 .6.5 1 1.2 1c.5 0 1-.1 1.3-.5v-1zm1.9-4.2h.5v6h-.5v-6zm4.3 0h3.8v.5h-3.3v2.2h3.3v.5h-3.3v2.3h3.3v.5H78v-6zm5 5.1c.3.3.8.6 1.4.6c.7 0 1.1-.3 1.1-.8c0-.6-.5-.8-1.2-.9c-.7-.2-1.5-.4-1.5-1.2c0-.7.6-1.2 1.5-1.2c.8 0 1.3.2 1.6.6l-.3.3c-.2-.3-.7-.5-1.3-.5c-.6 0-1 .3-1 .7c0 .5.5.7 1.1.8c.8.2 1.6.4 1.6 1.3c0 .7-.5 1.3-1.6 1.3c-.7 0-1.3-.2-1.7-.7l.3-.3zm4.3.1V3.2h-.7v-.4h.7V1.6h.5v1.2h.9v.4h-.9s-.02 3 0 3c0 .4.1.6.4.6c.2 0 .4-.1.5-.2l.2.3c-.2.2-.4.3-.7.3c-.6 0-.9-.3-.9-.9zm5.1.3c-.3.4-.8.6-1.4.6c-.8 0-1.5-.5-1.5-1.4c0-1 .7-1.5 1.5-1.5c.6 0 1.1.2 1.4.6v-.8c0-.7-.5-1-1.1-1c-.6 0-1 .2-1.4.6l-.2-.3c.4-.5.9-.7 1.6-.7c.9 0 1.6.4 1.6 1.4c.02-.05 0 3 0 3h-.5s.05-.5 0-.5zm0-1.3c-.3-.4-.7-.6-1.3-.6c-.7 0-1.2.5-1.2 1.1c0 .6.5 1 1.2 1c.6 0 1-.1 1.3-.5v-1zm2.1 1c-.03-.03 0-3.1 0-3.1h-.8v-.4h.8V1.6h.4v1.2h.9v.4h-.9s.04 3 0 3c0 .4.2.6.5.6c.2 0 .4-.1.5-.2l.2.3c-.2.2-.4.3-.8.3c-.6 0-.8-.3-.8-.9zm4.2-3.6c1.3 0 2 1 2 2.3c.05-.04 0 .1 0 .1c0 0-3.59-.02-3.6 0c.1.9.7 1.7 1.7 1.7c.6 0 1.1-.2 1.4-.6l.3.3c-.5.5-1 .7-1.7.7c-1.3 0-2.2-.9-2.2-2.3c0-1.2.9-2.2 2.1-2.2zm-1.6 2h3.2c0-.7-.5-1.6-1.6-1.6c-1 0-1.6.9-1.6 1.6zm8.7-3.1h-1.9v-.5h4.4v.5h-1.9v5.5h-.6V1.6zm5.4 5c-.4.4-.9.6-1.5.6c-.7 0-1.5-.5-1.5-1.4c0-1 .8-1.5 1.5-1.5c.6 0 1.1.2 1.5.6v-.8c0-.7-.5-1-1.2-1c-.5 0-.9.2-1.3.6l-.3-.3c.5-.5 1-.7 1.7-.7c.9 0 1.6.4 1.6 1.4c-.04-.05 0 3 0 3h-.5v-.5zm0-1.3c-.3-.4-.8-.6-1.3-.6c-.7 0-1.2.5-1.2 1.1c0 .6.5 1 1.2 1c.5 0 1-.1 1.3-.5v-1zm3.4-.1l-1.5 1.9h-.6l1.8-2.2l-1.7-2.1h.6l1.4 1.8l1.3-1.8h.6l-1.7 2.1l1.8 2.2h-.6l-1.4-1.9zm4.4-2.5c1.3 0 2 1 2 2.3v.1s-3.63-.02-3.6 0c0 .9.6 1.7 1.7 1.7c.5 0 1-.2 1.4-.6l.2.3c-.4.5-.9.7-1.7.7c-1.2 0-2.1-.9-2.1-2.3c0-1.2.8-2.2 2.1-2.2zm-1.6 2h3.1c0-.7-.5-1.6-1.6-1.6c-1 0-1.5.9-1.5 1.6zm4.7 1.5c.3.3.8.6 1.4.6c.7 0 1.2-.3 1.2-.8c0-.6-.6-.8-1.2-.9c-.8-.2-1.6-.4-1.6-1.2c0-.7.6-1.2 1.6-1.2c.7 0 1.2.2 1.5.6l-.2.3c-.3-.3-.7-.5-1.3-.5c-.7 0-1.1.3-1.1.7c0 .5.5.7 1.2.8c.7.2 1.5.4 1.5 1.3c0 .7-.5 1.3-1.6 1.3c-.7 0-1.2-.2-1.7-.7l.3-.3zm3.8-.3l3.4-1.8l-3.4-1.8v-.4l3.9 2v.4l-3.9 2v-.4zm4.4 0l3.5-1.8l-3.5-1.8v-.4l4 2v.4l-4 2v-.4z" stroke="none" fill="#000"/><a xlink:href="DBF_Real%20Estate%20Taxes" xlink:show="new" xlink:title="&lt;&lt;Real Estate Taxes&gt;&gt;"><rect style="fill:transparent;" x="48" y="0" width="86" height="7"/></a></g></svg>