<?xml version="1.0" standalone="no"?><!DOCTYPE svg PUBLIC "-//W3C//DTD SVG 1.1//EN" "http://www.w3.org/Graphics/SVG/1.1/DTD/svg11.dtd"><svg xmlns="http://www.w3.org/2000/svg" version="1.1" width="106.4px" height="31.9px" viewBox="0 -6 106.4 31.9" style="top:-6px"><desc>Agent 1</desc><defs/><g id="Polygon274473"><path d="m73.2 12.7v1.4h-.7s-.02-1.36 0-1.4c-1.6 0-2.8-.7-3.6-1.6l.6-.7c.6.7 1.6 1.4 3 1.5V7.4c-1.6-.4-3.3-.9-3.3-2.8c0-1.6 1.5-2.7 3.3-2.8c-.02 0 0-1.4 0-1.4h.7v1.4c1.4.1 2.4.6 3.1 1.5l-.6.6c-.6-.7-1.5-1.2-2.5-1.2v3.9c1.7.5 3.3 1.1 3.3 3.2c0 1.2-.8 2.8-3.3 2.9zm-.7-6.3V2.6c-1.3.1-2.3.9-2.3 2c0 1.1 1 1.5 2.3 1.8zm3.1 3.4c0-1.3-1.1-1.8-2.4-2.2v4.3c1.9-.1 2.4-1.3 2.4-2.1zm6.7-8c2.8 0 3.9 2.9 3.9 5.5c0 2.5-1.1 5.4-3.9 5.4c-2.9 0-4-2.9-4-5.4c0-2.6 1.1-5.5 4-5.5zm0 .8c-2.3 0-3 2.5-3 4.7c0 2.1.7 4.6 3 4.6c2.2 0 2.9-2.5 2.9-4.6c0-2.2-.7-4.7-2.9-4.7zm9.6-.8c2.8 0 3.9 2.9 3.9 5.5c0 2.5-1.1 5.4-3.9 5.4c-2.8 0-3.9-2.9-3.9-5.4c0-2.6 1.1-5.5 3.9-5.5zm0 .8c-2.2 0-3 2.5-3 4.7c0 2.1.8 4.6 3 4.6c2.2 0 3-2.5 3-4.6c0-2.2-.8-4.7-3-4.7zm9.7-.8c2.8 0 3.9 2.9 3.9 5.5c0 2.5-1.1 5.4-3.9 5.4c-2.9 0-3.9-2.9-3.9-5.4c0-2.6 1-5.5 3.9-5.5zm0 .8c-2.3 0-3 2.5-3 4.7c0 2.1.7 4.6 3 4.6c2.2 0 2.9-2.5 2.9-4.6c0-2.2-.7-4.7-2.9-4.7z" stroke="none" fill="#000"/></g></svg>