<?xml version="1.0" standalone="no"?><!DOCTYPE svg PUBLIC "-//W3C//DTD SVG 1.1//EN" "http://www.w3.org/Graphics/SVG/1.1/DTD/svg11.dtd"><svg xmlns="http://www.w3.org/2000/svg" version="1.1" width="130px" height="28.3px" viewBox="0 -6 130 28.3" style="top:-6px"><desc>Tony</desc><defs/><g id="Polygon116845"><path d="m1.2 2S4.95 1.95 5 2c3.3 0 5.4 2.2 5.4 5.3c0 3-2.1 5.2-5.4 5.2c-.05.04-3.8 0-3.8 0V2zM5 11.1c2.4 0 3.8-1.7 3.8-3.8c0-2.2-1.4-4-3.8-4c-.05.05-2.2 0-2.2 0v7.8s2.15.05 2.2 0zm7.1-8.4c0-.5.4-.9.9-.9c.5 0 1 .4 1 .9c0 .5-.5.9-1 .9c-.5 0-.9-.4-.9-.9zm.2 2.2h1.5v7.6h-1.5V4.9zm3.7 0h1.5s-.03 1.15 0 1.1c.6-.7 1.5-1.3 2.5-1.3v1.4h-.5c-.7 0-1.7.5-2 1.1c-.03.01 0 5.3 0 5.3H16V4.9zm8.8-.2c2.3 0 3.7 1.8 3.7 4.1v.4s-6.06-.02-6.1 0c.1 1.3 1.1 2.4 2.6 2.4c.9 0 1.7-.4 2.3-.9l.7.9c-.8.7-1.9 1.1-3.1 1.1c-2.3 0-4-1.6-4-4c0-2.2 1.6-4 3.9-4zm-2.4 3.4h4.7c0-1-.7-2.2-2.3-2.2c-1.6 0-2.3 1.2-2.4 2.2zm11.3-3.4c1.5 0 2.3.6 2.9 1.3l-1 .9c-.4-.6-1-.9-1.8-.9c-1.5 0-2.5 1.1-2.5 2.7c0 1.6 1 2.8 2.5 2.8c.8 0 1.4-.4 1.8-1l1 .9c-.6.7-1.4 1.3-2.9 1.3c-2.3 0-3.9-1.7-3.9-4c0-2.3 1.6-4 3.9-4zm4.8 6.1c-.04.05 0-4.7 0-4.7h-1.3V4.9h1.3V2.8h1.4v2.1h1.5v1.2h-1.5s-.01 4.43 0 4.4c0 .6.2 1 .7 1c.4 0 .7-.2.8-.3l.4 1c-.3.3-.8.5-1.5.5c-1.2 0-1.8-.6-1.8-1.9zm4.1-2.1c0-2.2 1.4-4 3.8-4c2.4 0 3.9 1.8 3.9 4c0 2.2-1.5 4-3.9 4c-2.4 0-3.8-1.8-3.8-4zm6.2 0c0-1.4-.8-2.7-2.4-2.7C44.9 6 44 7.3 44 8.7c0 1.5.9 2.8 2.4 2.8c1.6 0 2.4-1.3 2.4-2.8zm3.3-3.8h1.4s.05 1.15 0 1.1c.6-.7 1.5-1.3 2.6-1.3v1.4h-.5c-.8 0-1.7.5-2.1 1.1c.05.01 0 5.3 0 5.3h-1.4V4.9z" stroke="none" fill="#88898a"/></g></svg>