<?xml version="1.0" standalone="no"?><!DOCTYPE svg PUBLIC "-//W3C//DTD SVG 1.1//EN" "http://www.w3.org/Graphics/SVG/1.1/DTD/svg11.dtd"><svg xmlns="http://www.w3.org/2000/svg" version="1.1" width="37.1px" height="16.9px" viewBox="0 -4 37.1 16.9" style="top:-4px"><desc>CAP Rate</desc><defs/><g id="Polygon98047"><path d="m.4 4.1C.4 2.3 1.8 1 3.5 1c1.2 0 1.9.6 2.4 1.3l-.8.4c-.3-.5-.9-.9-1.6-.9c-1.2 0-2.2 1-2.2 2.3c0 1.4 1 2.3 2.2 2.3c.7 0 1.3-.4 1.6-.9l.8.4c-.5.8-1.2 1.3-2.4 1.3C1.8 7.2.4 6 .4 4.1zm10 1.8H7.5L7 7.1h-1l2.4-6h1.1l2.4 6h-1l-.5-1.2zm-2.6-.8h2.4L9 1.9l-1.2 3.2zm4.8-4s2.48.01 2.5 0C16.3 1.1 17 2 17 3c0 1-.7 1.8-1.9 1.8h-1.6v2.3h-.9v-6zm2.4.8h-1.5v2.1h1.5c.6 0 1.1-.4 1.1-1c0-.7-.5-1.1-1.1-1.1zm7.1 2.9H21v2.3h-.9v-6s2.5.01 2.5 0c1.1 0 1.9.7 1.9 1.9c0 1-.7 1.6-1.5 1.7c.03.01 1.6 2.4 1.6 2.4h-1.1l-1.4-2.3zm.4-2.9H21v2.1h1.5c.6 0 1.1-.4 1.1-1c0-.7-.5-1.1-1.1-1.1zM28 6.6c-.3.4-.8.6-1.4.6c-.7 0-1.5-.5-1.5-1.4c0-1 .8-1.4 1.5-1.4c.6 0 1.1.1 1.4.5v-.7c0-.5-.4-.9-1-.9c-.5 0-1 .2-1.3.6l-.4-.5c.5-.5 1.1-.7 1.8-.7c.9 0 1.7.4 1.7 1.5c.04-.02 0 2.9 0 2.9h-.8s.03-.47 0-.5zm0-1.2c-.2-.3-.6-.5-1.1-.5c-.6 0-1 .4-1 .9c0 .5.4.9 1 .9c.5 0 .9-.2 1.1-.5v-.8zm2.2.7V3.5h-.7v-.7h.7V1.6h.8v1.2h.9v.7h-.9s.01 2.47 0 2.5c0 .3.2.5.4.5c.2 0 .4-.1.5-.2l.2.6c-.2.2-.4.3-.9.3c-.6 0-1-.4-1-1.1zm4.4-3.4c1.3 0 2.1 1 2.1 2.3c.03 0 0 .2 0 .2h-3.4c.1.7.6 1.4 1.5 1.4c.4 0 .9-.2 1.3-.6l.3.6c-.4.4-1 .6-1.7.6c-1.3 0-2.3-.9-2.3-2.3c0-1.2.9-2.2 2.2-2.2zm-1.3 1.9h2.6c0-.6-.4-1.3-1.3-1.3c-.9 0-1.3.7-1.3 1.3z" stroke="none" fill="#88898a"/></g></svg>