<?xml version="1.0" standalone="no"?><!DOCTYPE svg PUBLIC "-//W3C//DTD SVG 1.1//EN" "http://www.w3.org/Graphics/SVG/1.1/DTD/svg11.dtd"><svg xmlns="http://www.w3.org/2000/svg" xmlns:xlink="http://www.w3.org/1999/xlink" version="1.1" width="134.3px" height="25.9px" viewBox="0 -8 134.3 25.9" style="top:-8px"><desc>SF</desc><defs/><g id="Polygon43498"><path d="m124.9 5.9c.4.4 1 .9 1.9.9c1.2 0 1.6-.7 1.6-1.2c0-.9-.8-1.1-1.7-1.4c-.9-.2-1.9-.5-1.9-1.6c0-1 .9-1.6 1.9-1.6c.9 0 1.6.3 2.1.9l-.4.3c-.4-.5-1-.7-1.7-.7c-.8 0-1.4.4-1.4 1.1c0 .7.8.9 1.6 1.1c.9.3 2 .6 2 1.8c0 .8-.5 1.7-2.1 1.7c-1 0-1.8-.4-2.2-.9l.3-.4zm5.2-4.8h3.9v.5h-3.3v2.2h3.2v.5h-3.2v2.8h-.6v-6z" stroke="none" fill="#000"/></g><g id="Polygon43497"><path d="m87.8 3.9l3.9-2v.4l-3.5 1.8l3.5 1.8v.4l-3.9-2v-.4zm4.4 0l4-2v.4l-3.5 1.8l3.5 1.8v.4l-4-2v-.4zM100 1c1 0 1.7.4 2.2 1l-.3.3c-.5-.5-1.2-.8-1.9-.8c-1.4 0-2.5 1-2.5 2.6c0 1.6 1.1 2.7 2.5 2.7c.8 0 1.4-.4 1.7-.8c.05.03 0-1.4 0-1.4h-2.2v-.5h2.8s-.04 2.13 0 2.1c-.6.6-1.4 1-2.3 1c-1.7 0-3.1-1.2-3.1-3.1c0-1.8 1.4-3.1 3.1-3.1zm3.6.1h.5v5.5h2.9v.5h-3.4v-6zm8.3 4.5h-3.2l-.6 1.5h-.6l2.4-6h.7l2.4 6h-.5l-.6-1.5zm-3.1-.4h2.9l-1.4-3.6l-1.5 3.6zm4.6.7l3.5-1.8l-3.5-1.8v-.4l4 2v.4l-4 2v-.4zm4.5 0l3.5-1.8l-3.5-1.8v-.4l3.9 2v.4l-3.9 2v-.4z" stroke="none" fill="#000"/><a xlink:href="DBF_GLA" xlink:show="new" xlink:title="&lt;&lt;GLA&gt;&gt;"><rect style="fill:transparent;" x="87" y="0" width="35" height="7"/></a></g></svg>