<?xml version="1.0" standalone="no"?><!DOCTYPE svg PUBLIC "-//W3C//DTD SVG 1.1//EN" "http://www.w3.org/Graphics/SVG/1.1/DTD/svg11.dtd"><svg xmlns="http://www.w3.org/2000/svg" version="1.1" width="234px" height="28.3px" viewBox="0 -6 234 28.3" style="top:-6px"><desc>REQUEST MORE INFO</desc><defs/><g id="Polygon78515"><path d="m36 8.5h-2v4h-1.5V2s4.41-.05 4.4 0c2 0 3.4 1.3 3.4 3.2c0 1.9-1.3 2.9-2.6 3.1c-.02 0 2.7 4.2 2.7 4.2h-1.8l-2.6-4zm.7-5.2c.01.05-2.7 0-2.7 0v3.8s2.71-.03 2.7 0c1.2 0 2-.8 2-1.9c0-1.1-.8-1.9-2-1.9zM43.1 2h7.1v1.3h-5.6v3.1h5.5v1.4h-5.5v3.3h5.6v1.4h-7.1V2zm18.7 9.1c-.05.02.9 1 .9 1l-1.1 1l-1-1.1c-.8.5-1.7.7-2.8.7c-3.1 0-5.3-2.3-5.3-5.4c0-3.2 2.2-5.5 5.3-5.5c3.2 0 5.4 2.3 5.4 5.5c0 1.5-.5 2.8-1.4 3.8zm-2.2-.2c.01-.01-1.4-1.6-1.4-1.6l1.1-.9s1.4 1.56 1.4 1.6c.5-.8.8-1.7.8-2.7c0-2.4-1.4-4.1-3.7-4.1c-2.2 0-3.7 1.7-3.7 4.1c0 2.3 1.5 4 3.7 4c.7 0 1.3-.1 1.8-.4zM65.9 2h1.6v6.4c0 1.8 1 2.9 2.9 2.9c1.8 0 2.8-1.1 2.8-2.9V2h1.6v6.4c0 2.6-1.5 4.3-4.4 4.3c-3 0-4.5-1.7-4.5-4.3V2zM78 2h7.1v1.3h-5.6v3.1h5.5v1.4h-5.5v3.3h5.6v1.4H78V2zm10.1 7.8c.7.8 1.9 1.5 3.3 1.5c1.8 0 2.4-.9 2.4-1.6c0-1.1-1.2-1.4-2.6-1.8c-1.7-.4-3.7-.9-3.7-3.1c0-1.7 1.6-3 3.8-3c1.6 0 2.9.5 3.8 1.5l-.9 1.1c-.8-.8-1.9-1.2-3-1.2c-1.2 0-2 .6-2 1.5c0 1 1.1 1.3 2.4 1.6c1.8.4 3.8 1 3.8 3.2c0 1.7-1.2 3.2-4 3.2c-1.9 0-3.3-.6-4.2-1.6l.9-1.3zm12.4-6.5h-3.3V2h8.1v1.3h-3.2v9.2h-1.6V3.3zm21.3.8l-3.4 8.4h-.7l-3.4-8.4v8.4h-1.6V2h2.2l3.1 7.6l3.1-7.6h2.3v10.5h-1.6V4.1zm9.6-2.3c3.2 0 5.3 2.3 5.3 5.5c0 3.1-2.1 5.4-5.3 5.4c-3.1 0-5.3-2.3-5.3-5.4c0-3.2 2.2-5.5 5.3-5.5zm0 1.4c-2.3 0-3.7 1.7-3.7 4.1c0 2.3 1.4 4 3.7 4c2.3 0 3.7-1.7 3.7-4c0-2.4-1.4-4.1-3.7-4.1zM143 8.5h-1.9v4h-1.6V2s4.43-.05 4.4 0c2 0 3.4 1.3 3.4 3.2c0 1.9-1.3 2.9-2.6 3.1l2.7 4.2h-1.8l-2.6-4zm.7-5.2c.02.05-2.6 0-2.6 0v3.8s2.62-.03 2.6 0c1.2 0 2-.8 2-1.9c0-1.1-.8-1.9-2-1.9zm6.4-1.3h7.1v1.3h-5.5v3.1h5.4v1.4h-5.4v3.3h5.5v1.4h-7.1V2zm14.8 0h1.5v10.5h-1.5V2zm6.3 2.4v8.1h-1.6V2h1.6l5.8 7.9V2h1.6v10.5h-1.5l-5.9-8.1zM181.7 2h7.2v1.3h-5.6v3.1h5.4v1.4h-5.4v4.7h-1.6V2zm14.6-.2c3.1 0 5.3 2.3 5.3 5.5c0 3.1-2.2 5.4-5.3 5.4c-3.2 0-5.4-2.3-5.4-5.4c0-3.2 2.2-5.5 5.4-5.5zm0 1.4c-2.3 0-3.7 1.7-3.7 4.1c0 2.3 1.4 4 3.7 4c2.2 0 3.7-1.7 3.7-4c0-2.4-1.5-4.1-3.7-4.1z" stroke="none" fill="#ffffff"/></g></svg>