<?xml version="1.0" standalone="no"?>
<!DOCTYPE svg PUBLIC "-//W3C//DTD SVG 1.1//EN" "http://www.w3.org/Graphics/SVG/1.1/DTD/svg11.dtd">
<svg xmlns="http://www.w3.org/2000/svg" version="1.1" width="89.3px" height="16.9px" viewBox="0 -4 89.3 16.9" style="top:-4px">
  <desc>Lease Guarantor</desc>
  <defs/>
  <g id="Polygon274365">
    <path d="M 0.7 1.1 L 1.6 1.1 L 1.6 6.3 L 4.3 6.3 L 4.3 7.1 L 0.7 7.1 L 0.7 1.1 Z M 7 2.7 C 8.3 2.7 9.1 3.7 9.1 5 C 9.13 5 9.1 5.2 9.1 5.2 C 9.1 5.2 5.69 5.2 5.7 5.2 C 5.8 5.9 6.3 6.6 7.2 6.6 C 7.6 6.6 8.1 6.4 8.5 6 C 8.5 6 8.8 6.6 8.8 6.6 C 8.4 7 7.8 7.2 7.1 7.2 C 5.8 7.2 4.8 6.3 4.8 4.9 C 4.8 3.7 5.7 2.7 7 2.7 Z M 5.7 4.6 C 5.7 4.6 8.3 4.6 8.3 4.6 C 8.3 4 7.9 3.3 7 3.3 C 6.1 3.3 5.7 4 5.7 4.6 Z M 12.8 6.6 C 12.5 7 12 7.2 11.4 7.2 C 10.7 7.2 9.9 6.7 9.9 5.8 C 9.9 4.8 10.7 4.4 11.4 4.4 C 12 4.4 12.5 4.5 12.8 4.9 C 12.8 4.9 12.8 4.2 12.8 4.2 C 12.8 3.7 12.4 3.3 11.8 3.3 C 11.3 3.3 10.8 3.5 10.5 3.9 C 10.5 3.9 10.1 3.4 10.1 3.4 C 10.6 2.9 11.2 2.7 11.9 2.7 C 12.8 2.7 13.6 3.1 13.6 4.2 C 13.63 4.18 13.6 7.1 13.6 7.1 L 12.8 7.1 C 12.8 7.1 12.83 6.63 12.8 6.6 Z M 12.8 5.4 C 12.6 5.1 12.2 4.9 11.7 4.9 C 11.1 4.9 10.7 5.3 10.7 5.8 C 10.7 6.3 11.1 6.7 11.7 6.7 C 12.2 6.7 12.6 6.5 12.8 6.2 C 12.8 6.2 12.8 5.4 12.8 5.4 Z M 14.9 5.9 C 15.2 6.3 15.8 6.6 16.4 6.6 C 17 6.6 17.3 6.3 17.3 5.9 C 17.3 5.5 16.8 5.4 16.3 5.2 C 15.5 5.1 14.7 4.9 14.7 3.9 C 14.7 3.2 15.3 2.7 16.3 2.7 C 17.1 2.7 17.6 2.9 18 3.3 C 18 3.3 17.6 3.8 17.6 3.8 C 17.4 3.5 16.9 3.3 16.3 3.3 C 15.8 3.3 15.5 3.5 15.5 3.9 C 15.5 4.3 15.9 4.4 16.5 4.5 C 17.2 4.7 18.1 4.9 18.1 5.9 C 18.1 6.6 17.5 7.2 16.4 7.2 C 15.6 7.2 15 7 14.6 6.5 C 14.6 6.5 14.9 5.9 14.9 5.9 Z M 21.1 2.7 C 22.4 2.7 23.2 3.7 23.2 5 C 23.17 5 23.2 5.2 23.2 5.2 C 23.2 5.2 19.73 5.2 19.7 5.2 C 19.8 5.9 20.3 6.6 21.2 6.6 C 21.7 6.6 22.2 6.4 22.5 6 C 22.5 6 22.9 6.6 22.9 6.6 C 22.4 7 21.8 7.2 21.1 7.2 C 19.8 7.2 18.9 6.3 18.9 4.9 C 18.9 3.7 19.8 2.7 21.1 2.7 Z M 19.7 4.6 C 19.7 4.6 22.4 4.6 22.4 4.6 C 22.4 4 22 3.3 21.1 3.3 C 20.2 3.3 19.8 4 19.7 4.6 Z M 29.4 1 C 30.5 1 31.3 1.5 31.8 2.2 C 31.8 2.2 31 2.6 31 2.6 C 30.7 2.2 30.1 1.8 29.4 1.8 C 28.1 1.8 27.2 2.8 27.2 4.1 C 27.2 5.5 28.1 6.4 29.4 6.4 C 30.1 6.4 30.6 6.1 30.9 5.8 C 30.91 5.83 30.9 4.8 30.9 4.8 L 29 4.8 L 29 4 L 31.8 4 C 31.8 4 31.81 6.17 31.8 6.2 C 31.2 6.8 30.4 7.2 29.4 7.2 C 27.7 7.2 26.3 6 26.3 4.1 C 26.3 2.2 27.7 1 29.4 1 Z M 35.9 6.5 C 35.5 6.9 35 7.2 34.3 7.2 C 33.4 7.2 32.9 6.8 32.9 5.8 C 32.94 5.83 32.9 2.8 32.9 2.8 L 33.7 2.8 C 33.7 2.8 33.75 5.56 33.7 5.6 C 33.7 6.3 34.1 6.5 34.7 6.5 C 35.2 6.5 35.6 6.2 35.9 5.9 C 35.87 5.89 35.9 2.8 35.9 2.8 L 36.7 2.8 L 36.7 7.1 L 35.9 7.1 C 35.9 7.1 35.87 6.52 35.9 6.5 Z M 40.7 6.6 C 40.3 7 39.8 7.2 39.2 7.2 C 38.5 7.2 37.7 6.7 37.7 5.8 C 37.7 4.8 38.5 4.4 39.2 4.4 C 39.8 4.4 40.3 4.5 40.7 4.9 C 40.7 4.9 40.7 4.2 40.7 4.2 C 40.7 3.7 40.2 3.3 39.6 3.3 C 39.1 3.3 38.7 3.5 38.3 3.9 C 38.3 3.9 37.9 3.4 37.9 3.4 C 38.4 2.9 39 2.7 39.7 2.7 C 40.7 2.7 41.5 3.1 41.5 4.2 C 41.46 4.18 41.5 7.1 41.5 7.1 L 40.7 7.1 C 40.7 7.1 40.65 6.63 40.7 6.6 Z M 40.7 5.4 C 40.4 5.1 40 4.9 39.5 4.9 C 39 4.9 38.5 5.3 38.5 5.8 C 38.5 6.3 39 6.7 39.5 6.7 C 40 6.7 40.4 6.5 40.7 6.2 C 40.7 6.2 40.7 5.4 40.7 5.4 Z M 42.8 2.8 L 43.6 2.8 C 43.6 2.8 43.57 3.43 43.6 3.4 C 43.9 3 44.4 2.7 45 2.7 C 45 2.7 45 3.5 45 3.5 C 44.9 3.5 44.8 3.5 44.7 3.5 C 44.3 3.5 43.8 3.8 43.6 4.1 C 43.57 4.09 43.6 7.1 43.6 7.1 L 42.8 7.1 L 42.8 2.8 Z M 48.5 6.6 C 48.1 7 47.6 7.2 47.1 7.2 C 46.3 7.2 45.5 6.7 45.5 5.8 C 45.5 4.8 46.3 4.4 47.1 4.4 C 47.6 4.4 48.1 4.5 48.5 4.9 C 48.5 4.9 48.5 4.2 48.5 4.2 C 48.5 3.7 48 3.3 47.4 3.3 C 46.9 3.3 46.5 3.5 46.1 3.9 C 46.1 3.9 45.8 3.4 45.8 3.4 C 46.3 2.9 46.8 2.7 47.5 2.7 C 48.5 2.7 49.3 3.1 49.3 4.2 C 49.29 4.18 49.3 7.1 49.3 7.1 L 48.5 7.1 C 48.5 7.1 48.48 6.63 48.5 6.6 Z M 48.5 5.4 C 48.2 5.1 47.8 4.9 47.4 4.9 C 46.8 4.9 46.4 5.3 46.4 5.8 C 46.4 6.3 46.8 6.7 47.4 6.7 C 47.8 6.7 48.2 6.5 48.5 6.2 C 48.5 6.2 48.5 5.4 48.5 5.4 Z M 53.5 4.3 C 53.5 3.6 53.2 3.4 52.6 3.4 C 52.1 3.4 51.6 3.7 51.4 4 C 51.4 4 51.4 7.1 51.4 7.1 L 50.6 7.1 L 50.6 2.8 L 51.4 2.8 C 51.4 2.8 51.4 3.37 51.4 3.4 C 51.7 3 52.3 2.7 52.9 2.7 C 53.9 2.7 54.3 3.1 54.3 4.1 C 54.33 4.06 54.3 7.1 54.3 7.1 L 53.5 7.1 C 53.5 7.1 53.52 4.33 53.5 4.3 Z M 55.8 6.1 C 55.78 6.15 55.8 3.5 55.8 3.5 L 55.1 3.5 L 55.1 2.8 L 55.8 2.8 L 55.8 1.6 L 56.6 1.6 L 56.6 2.8 L 57.5 2.8 L 57.5 3.5 L 56.6 3.5 C 56.6 3.5 56.59 5.97 56.6 6 C 56.6 6.3 56.7 6.5 57 6.5 C 57.2 6.5 57.4 6.4 57.5 6.3 C 57.5 6.3 57.7 6.9 57.7 6.9 C 57.5 7.1 57.2 7.2 56.8 7.2 C 56.1 7.2 55.8 6.8 55.8 6.1 Z M 58.1 4.9 C 58.1 3.7 58.9 2.7 60.3 2.7 C 61.7 2.7 62.5 3.7 62.5 4.9 C 62.5 6.2 61.7 7.2 60.3 7.2 C 58.9 7.2 58.1 6.2 58.1 4.9 Z M 61.7 4.9 C 61.7 4.1 61.2 3.4 60.3 3.4 C 59.4 3.4 58.9 4.1 58.9 4.9 C 58.9 5.8 59.4 6.5 60.3 6.5 C 61.2 6.5 61.7 5.8 61.7 4.9 Z M 63.5 2.8 L 64.3 2.8 C 64.3 2.8 64.33 3.43 64.3 3.4 C 64.7 3 65.2 2.7 65.8 2.7 C 65.8 2.7 65.8 3.5 65.8 3.5 C 65.7 3.5 65.6 3.5 65.5 3.5 C 65.1 3.5 64.5 3.8 64.3 4.1 C 64.33 4.09 64.3 7.1 64.3 7.1 L 63.5 7.1 L 63.5 2.8 Z " stroke="none" fill="#000"/>
  </g>
</svg>