<?xml version="1.0" standalone="no"?><!DOCTYPE svg PUBLIC "-//W3C//DTD SVG 1.1//EN" "http://www.w3.org/Graphics/SVG/1.1/DTD/svg11.dtd"><svg xmlns="http://www.w3.org/2000/svg" version="1.1" width="8.4px" height="18.2px" viewBox="0 -4 8.4 18.2" style="top:-4px"><desc>01</desc><defs/><g id="Polygon68210"><path d="m4.7 2.2v4.2c0 1.1-.6 1.5-1.7 1.5c-1.1 0-1.7-.4-1.7-1.5V2.2C1.3 1.1 1.9.7 3 .7c1.1 0 1.7.4 1.7 1.5zM3 1.7c-.4 0-.6.2-.6.7v3.8c0 .5.2.7.6.7c.4 0 .6-.2.6-.7V2.4c0-.5-.2-.7-.6-.7zm2.8 6.1V1.6c.2-.2.4-.5.5-.8h.6v7H5.8z" stroke="none" fill="#fff"/></g></svg>