<?xml version="1.0" standalone="no"?><!DOCTYPE svg PUBLIC "-//W3C//DTD SVG 1.1//EN" "http://www.w3.org/Graphics/SVG/1.1/DTD/svg11.dtd"><svg xmlns="http://www.w3.org/2000/svg" version="1.1" width="237px" height="26.9px" viewBox="0 -6 237 26.9" style="top:-6px"><desc>7225 Rivers Ave</desc><defs/><g id="Polygon88962"><path d="m131 2.8h-5.8v-.8h6.9v.6l-4.5 9.9h-1l4.4-9.7zm2.5 9c3.6-2.9 6-5 6-7c0-1.5-1.2-2.2-2.4-2.2c-1.3 0-2.3.6-2.9 1.4l-.6-.6c.7-1 2-1.6 3.5-1.6c1.6 0 3.3.9 3.3 3c0 2.3-2.4 4.4-5.5 6.9c.01.02 5.6 0 5.6 0v.8h-7v-.7zm9.2 0c3.6-2.9 6.1-5 6.1-7c0-1.5-1.3-2.2-2.5-2.2c-1.3 0-2.3.6-2.9 1.4l-.6-.6c.8-1 2.1-1.6 3.5-1.6c1.6 0 3.4.9 3.4 3c0 2.3-2.5 4.4-5.5 6.9c-.05.02 5.5 0 5.5 0v.8h-7s.04-.7 0-.7zm10.2-1.4c.7 1 1.6 1.5 2.9 1.5c1.6 0 2.7-1.1 2.7-2.5c0-1.7-1.1-2.6-2.6-2.6c-1 0-1.8.3-2.6 1l-.7-.3V2h6.1v.8h-5.2v4.1c.5-.5 1.4-1 2.5-1c1.8 0 3.4 1.2 3.4 3.4c0 2.1-1.6 3.4-3.6 3.4c-1.7 0-2.8-.6-3.5-1.7l.6-.6zM169 8.2h-2.3v4.3h-.9V2s3.92-.05 3.9 0c1.8 0 3.2 1.1 3.2 3.1c0 1.9-1.3 2.9-2.9 3l3.1 4.4H172l-3-4.3zm.6-5.4c.04-.02-2.9 0-2.9 0v4.5s2.94.04 2.9 0c1.4 0 2.4-.9 2.4-2.2c0-1.4-1-2.3-2.4-2.3zm5.3.1c0-.3.3-.6.7-.6c.3 0 .6.3.6.6c0 .4-.3.7-.6.7c-.4 0-.7-.3-.7-.7zm.3 2h.8v7.6h-.8V4.9zm2.2 0h.9l2.8 6.7l2.8-6.7h.9l-3.2 7.6h-1l-3.2-7.6zm12.1-.2c2.3 0 3.6 1.8 3.6 4.1c-.02-.05 0 .2 0 .2c0 0-6.43-.03-6.4 0c0 1.6 1.2 3 3 3c.9 0 1.8-.3 2.5-1l.4.5c-.8.8-1.7 1.2-3 1.2c-2.2 0-3.8-1.6-3.8-4c0-2.2 1.5-4 3.7-4zm-2.8 3.6h5.5c0-1.3-.8-2.9-2.8-2.9c-1.8 0-2.7 1.6-2.7 2.9zm8.5-3.4h.8s.04 1.29 0 1.3c.7-.9 1.6-1.5 2.6-1.5v.9h-.4c-.8 0-1.8.7-2.2 1.4c.04-.04 0 5.5 0 5.5h-.8V4.9zm4.9 6c.5.6 1.4 1.1 2.4 1.1c1.3 0 2.1-.6 2.1-1.5c0-1-1.1-1.3-2.2-1.5c-1.2-.4-2.6-.7-2.6-2.2c0-1.2.9-2.1 2.7-2.1c1.3 0 2.2.5 2.7 1.1l-.4.6c-.5-.6-1.3-1-2.3-1c-1.2 0-1.9.6-1.9 1.4c0 .8.9 1.1 2 1.3c1.3.4 2.8.7 2.8 2.4c0 1.2-1 2.2-2.9 2.2c-1.2 0-2.2-.3-2.9-1.2l.5-.6zm18.2-1h-5.6l-1.1 2.6h-1L214.9 2h1.2l4.3 10.5h-1l-1.1-2.6zm-5.3-.8h5l-2.5-6.3l-2.5 6.3zm7.4-4.2h1l2.7 6.7l2.8-6.7h.9l-3.2 7.6h-.9l-3.3-7.6zm12.1-.2c2.3 0 3.6 1.8 3.6 4.1c.02-.05 0 .2 0 .2c0 0-6.39-.03-6.4 0c.1 1.6 1.2 3 3 3c1 0 1.9-.3 2.5-1l.4.5c-.7.8-1.7 1.2-3 1.2c-2.2 0-3.8-1.6-3.8-4c0-2.2 1.6-4 3.7-4zm-2.8 3.6h5.6c0-1.3-.9-2.9-2.8-2.9c-1.8 0-2.7 1.6-2.8 2.9z" stroke="none" fill="#000"/></g></svg>