<?xml version="1.0" standalone="no"?>
<!DOCTYPE svg PUBLIC "-//W3C//DTD SVG 1.1//EN" "http://www.w3.org/Graphics/SVG/1.1/DTD/svg11.dtd">
<svg xmlns="http://www.w3.org/2000/svg" version="1.1" width="62px" height="157.3px" viewBox="0 -4 62 157.3" style="top:-4px">
  <desc>Tenant Street Address City State Zip GLA Lot Size Year Built *Optional Note</desc>
  <defs/>
  <g id="Polygon208283">
    <path d="M 0.9 146.1 L 0.3 146.5 L 0.2 146.2 L 0.8 145.9 L 0.2 145.6 L 0.3 145.4 L 0.9 145.7 L 0.9 145 L 1.2 145 L 1.1 145.7 L 1.7 145.4 L 1.8 145.6 L 1.2 145.9 L 1.8 146.2 L 1.7 146.5 L 1.1 146.1 L 1.2 146.8 L 0.9 146.8 L 0.9 146.1 Z M 4.3 145 C 5.5 145 6.3 145.9 6.3 147.1 C 6.3 148.3 5.5 149.2 4.3 149.2 C 3.1 149.2 2.3 148.3 2.3 147.1 C 2.3 145.9 3.1 145 4.3 145 Z M 4.3 145.5 C 3.4 145.5 2.8 146.2 2.8 147.1 C 2.8 148 3.4 148.7 4.3 148.7 C 5.2 148.7 5.7 148 5.7 147.1 C 5.7 146.2 5.2 145.5 4.3 145.5 Z M 7 150.2 L 7 146.2 L 7.4 146.2 C 7.4 146.2 7.41 146.64 7.4 146.6 C 7.6 146.3 8 146.1 8.4 146.1 C 9.2 146.1 9.7 146.7 9.7 147.7 C 9.7 148.6 9.2 149.2 8.4 149.2 C 8 149.2 7.6 149 7.4 148.7 C 7.41 148.67 7.4 150.2 7.4 150.2 L 7 150.2 Z M 8.3 146.5 C 7.9 146.5 7.6 146.8 7.4 147 C 7.4 147 7.4 148.3 7.4 148.3 C 7.6 148.6 7.9 148.8 8.3 148.8 C 8.9 148.8 9.2 148.3 9.2 147.7 C 9.2 147 8.9 146.5 8.3 146.5 Z M 10.4 148.5 C 10.43 148.5 10.4 146.6 10.4 146.6 L 10 146.6 L 10 146.2 L 10.4 146.2 L 10.4 145.4 L 10.9 145.4 L 10.9 146.2 L 11.5 146.2 L 11.5 146.6 L 10.9 146.6 C 10.9 146.6 10.88 148.41 10.9 148.4 C 10.9 148.6 11 148.8 11.2 148.8 C 11.3 148.8 11.4 148.7 11.5 148.7 C 11.5 148.7 11.6 149 11.6 149 C 11.5 149.1 11.3 149.2 11.1 149.2 C 10.6 149.2 10.4 148.9 10.4 148.5 Z M 12 145.4 C 12 145.3 12.1 145.1 12.3 145.1 C 12.4 145.1 12.6 145.3 12.6 145.4 C 12.6 145.6 12.4 145.7 12.3 145.7 C 12.1 145.7 12 145.6 12 145.4 Z M 12 146.2 L 12.5 146.2 L 12.5 149.1 L 12 149.1 L 12 146.2 Z M 13.2 147.7 C 13.2 146.8 13.7 146.1 14.6 146.1 C 15.5 146.1 16 146.8 16 147.7 C 16 148.5 15.5 149.2 14.6 149.2 C 13.7 149.2 13.2 148.5 13.2 147.7 Z M 15.6 147.7 C 15.6 147.1 15.2 146.5 14.6 146.5 C 14 146.5 13.6 147.1 13.6 147.7 C 13.6 148.3 14 148.8 14.6 148.8 C 15.2 148.8 15.6 148.3 15.6 147.7 Z M 18.7 147.2 C 18.7 146.7 18.4 146.5 18 146.5 C 17.7 146.5 17.3 146.8 17.2 147 C 17.16 146.99 17.2 149.1 17.2 149.1 L 16.7 149.1 L 16.7 146.2 L 17.2 146.2 C 17.2 146.2 17.16 146.63 17.2 146.6 C 17.4 146.4 17.8 146.1 18.2 146.1 C 18.8 146.1 19.1 146.4 19.1 147.1 C 19.12 147.08 19.1 149.1 19.1 149.1 L 18.7 149.1 C 18.7 149.1 18.67 147.21 18.7 147.2 Z M 21.8 148.8 C 21.5 149 21.2 149.2 20.8 149.2 C 20.3 149.2 19.8 148.9 19.8 148.2 C 19.8 147.6 20.3 147.3 20.8 147.3 C 21.2 147.3 21.5 147.4 21.8 147.7 C 21.8 147.7 21.8 147.1 21.8 147.1 C 21.8 146.8 21.5 146.5 21 146.5 C 20.7 146.5 20.4 146.7 20.1 146.9 C 20.1 146.9 19.9 146.6 19.9 146.6 C 20.2 146.3 20.6 146.1 21.1 146.1 C 21.7 146.1 22.2 146.4 22.2 147.1 C 22.22 147.12 22.2 149.1 22.2 149.1 L 21.8 149.1 C 21.8 149.1 21.77 148.78 21.8 148.8 Z M 21.8 148 C 21.6 147.7 21.3 147.6 21 147.6 C 20.5 147.6 20.3 147.9 20.3 148.2 C 20.3 148.6 20.5 148.9 21 148.9 C 21.3 148.9 21.6 148.7 21.8 148.5 C 21.8 148.5 21.8 148 21.8 148 Z M 23.1 145.1 L 23.5 145.1 L 23.5 149.1 L 23.1 149.1 L 23.1 145.1 Z M 26.4 145.9 L 26.4 149.1 L 25.9 149.1 L 25.9 145.1 L 26.4 145.1 L 28.7 148.3 L 28.7 145.1 L 29.2 145.1 L 29.2 149.1 L 28.7 149.1 L 26.4 145.9 Z M 29.9 147.7 C 29.9 146.8 30.4 146.1 31.3 146.1 C 32.2 146.1 32.7 146.8 32.7 147.7 C 32.7 148.5 32.2 149.2 31.3 149.2 C 30.4 149.2 29.9 148.5 29.9 147.7 Z M 32.2 147.7 C 32.2 147.1 31.9 146.5 31.3 146.5 C 30.7 146.5 30.3 147.1 30.3 147.7 C 30.3 148.3 30.7 148.8 31.3 148.8 C 31.9 148.8 32.2 148.3 32.2 147.7 Z M 33.5 148.5 C 33.49 148.5 33.5 146.6 33.5 146.6 L 33 146.6 L 33 146.2 L 33.5 146.2 L 33.5 145.4 L 33.9 145.4 L 33.9 146.2 L 34.5 146.2 L 34.5 146.6 L 33.9 146.6 C 33.9 146.6 33.94 148.41 33.9 148.4 C 33.9 148.6 34 148.8 34.2 148.8 C 34.4 148.8 34.5 148.7 34.5 148.7 C 34.5 148.7 34.7 149 34.7 149 C 34.6 149.1 34.4 149.2 34.1 149.2 C 33.7 149.2 33.5 148.9 33.5 148.5 Z M 36.4 146.1 C 37.2 146.1 37.8 146.8 37.8 147.7 C 37.75 147.69 37.8 147.8 37.8 147.8 C 37.8 147.8 35.41 147.81 35.4 147.8 C 35.4 148.4 35.8 148.8 36.4 148.8 C 36.8 148.8 37.1 148.7 37.3 148.4 C 37.3 148.4 37.6 148.7 37.6 148.7 C 37.3 149 36.9 149.2 36.4 149.2 C 35.5 149.2 34.9 148.6 34.9 147.7 C 34.9 146.8 35.5 146.1 36.4 146.1 Z M 35.4 147.5 C 35.4 147.5 37.3 147.5 37.3 147.5 C 37.3 147 37 146.5 36.4 146.5 C 35.7 146.5 35.4 147 35.4 147.5 Z " stroke="none" fill="#88898a"/>
  </g>
  <g id="Polygon208282">
    <path d="M 2.4 130.6 L 0 127.1 L 1.1 127.1 L 2.8 129.8 L 4.6 127.1 L 5.6 127.1 L 3.3 130.6 L 3.3 133.1 L 2.4 133.1 L 2.4 130.6 Z M 7 128.7 C 8.3 128.7 9.1 129.7 9.1 131 C 9.13 131 9.1 131.2 9.1 131.2 C 9.1 131.2 5.7 131.2 5.7 131.2 C 5.8 131.9 6.3 132.6 7.2 132.6 C 7.6 132.6 8.1 132.4 8.5 132 C 8.5 132 8.8 132.6 8.8 132.6 C 8.4 133 7.8 133.2 7.1 133.2 C 5.8 133.2 4.8 132.3 4.8 130.9 C 4.8 129.7 5.8 128.7 7 128.7 Z M 5.7 130.6 C 5.7 130.6 8.3 130.6 8.3 130.6 C 8.3 130 7.9 129.3 7 129.3 C 6.1 129.3 5.7 130 5.7 130.6 Z M 12.7 132.6 C 12.4 133 11.9 133.2 11.3 133.2 C 10.6 133.2 9.8 132.7 9.8 131.8 C 9.8 130.8 10.6 130.4 11.3 130.4 C 11.9 130.4 12.4 130.5 12.7 130.9 C 12.7 130.9 12.7 130.2 12.7 130.2 C 12.7 129.7 12.3 129.3 11.7 129.3 C 11.2 129.3 10.8 129.5 10.4 129.9 C 10.4 129.9 10 129.4 10 129.4 C 10.5 128.9 11.1 128.7 11.8 128.7 C 12.8 128.7 13.6 129.1 13.6 130.2 C 13.55 130.18 13.6 133.1 13.6 133.1 L 12.7 133.1 C 12.7 133.1 12.74 132.63 12.7 132.6 Z M 12.7 131.4 C 12.5 131.1 12.1 130.9 11.6 130.9 C 11 130.9 10.6 131.3 10.6 131.8 C 10.6 132.3 11 132.7 11.6 132.7 C 12.1 132.7 12.5 132.5 12.7 132.2 C 12.7 132.2 12.7 131.4 12.7 131.4 Z M 14.8 128.8 L 15.6 128.8 C 15.6 128.8 15.57 129.43 15.6 129.4 C 15.9 129 16.4 128.7 17 128.7 C 17 128.7 17 129.5 17 129.5 C 16.9 129.5 16.8 129.5 16.7 129.5 C 16.3 129.5 15.8 129.8 15.6 130.1 C 15.57 130.09 15.6 133.1 15.6 133.1 L 14.8 133.1 L 14.8 128.8 Z M 20 127.1 C 20 127.1 22.78 127.11 22.8 127.1 C 23.9 127.1 24.5 127.8 24.5 128.6 C 24.5 129.4 24 129.9 23.4 130 C 24.1 130.1 24.6 130.8 24.6 131.5 C 24.6 132.4 24 133.1 22.9 133.1 C 22.85 133.11 20 133.1 20 133.1 L 20 127.1 Z M 22.6 129.7 C 23.2 129.7 23.5 129.3 23.5 128.8 C 23.5 128.3 23.2 127.9 22.6 127.9 C 22.61 127.9 20.9 127.9 20.9 127.9 L 20.9 129.7 C 20.9 129.7 22.61 129.65 22.6 129.7 Z M 22.7 132.3 C 23.3 132.3 23.7 132 23.7 131.4 C 23.7 130.9 23.3 130.4 22.7 130.4 C 22.65 130.45 20.9 130.4 20.9 130.4 L 20.9 132.3 C 20.9 132.3 22.65 132.32 22.7 132.3 Z M 28.5 132.5 C 28.2 132.9 27.6 133.2 27 133.2 C 26.1 133.2 25.6 132.8 25.6 131.8 C 25.6 131.83 25.6 128.8 25.6 128.8 L 26.4 128.8 C 26.4 128.8 26.41 131.56 26.4 131.6 C 26.4 132.3 26.8 132.5 27.3 132.5 C 27.8 132.5 28.3 132.2 28.5 131.9 C 28.53 131.89 28.5 128.8 28.5 128.8 L 29.3 128.8 L 29.3 133.1 L 28.5 133.1 C 28.5 133.1 28.53 132.52 28.5 132.5 Z M 30.4 127.5 C 30.4 127.2 30.7 127 30.9 127 C 31.2 127 31.5 127.2 31.5 127.5 C 31.5 127.8 31.2 128 30.9 128 C 30.7 128 30.4 127.8 30.4 127.5 Z M 30.5 128.8 L 31.3 128.8 L 31.3 133.1 L 30.5 133.1 L 30.5 128.8 Z M 32.5 127.1 L 33.4 127.1 L 33.4 133.1 L 32.5 133.1 L 32.5 127.1 Z M 34.7 132.1 C 34.71 132.15 34.7 129.5 34.7 129.5 L 34 129.5 L 34 128.8 L 34.7 128.8 L 34.7 127.6 L 35.5 127.6 L 35.5 128.8 L 36.4 128.8 L 36.4 129.5 L 35.5 129.5 C 35.5 129.5 35.52 131.97 35.5 132 C 35.5 132.3 35.7 132.5 35.9 132.5 C 36.1 132.5 36.3 132.4 36.4 132.3 C 36.4 132.3 36.6 132.9 36.6 132.9 C 36.4 133.1 36.2 133.2 35.7 133.2 C 35.1 133.2 34.7 132.8 34.7 132.1 Z " stroke="none" fill="#242423"/>
  </g>
  <g id="Polygon208281">
    <path d="M 0.7 109.1 L 1.6 109.1 L 1.6 114.3 L 4.3 114.3 L 4.3 115.1 L 0.7 115.1 L 0.7 109.1 Z M 4.7 112.9 C 4.7 111.7 5.6 110.7 6.9 110.7 C 8.3 110.7 9.1 111.7 9.1 112.9 C 9.1 114.2 8.3 115.2 6.9 115.2 C 5.6 115.2 4.7 114.2 4.7 112.9 Z M 8.3 112.9 C 8.3 112.1 7.8 111.4 6.9 111.4 C 6.1 111.4 5.6 112.1 5.6 112.9 C 5.6 113.8 6.1 114.5 6.9 114.5 C 7.8 114.5 8.3 113.8 8.3 112.9 Z M 10.2 114.1 C 10.23 114.15 10.2 111.5 10.2 111.5 L 9.5 111.5 L 9.5 110.8 L 10.2 110.8 L 10.2 109.6 L 11 109.6 L 11 110.8 L 11.9 110.8 L 11.9 111.5 L 11 111.5 C 11 111.5 11.04 113.97 11 114 C 11 114.3 11.2 114.5 11.5 114.5 C 11.7 114.5 11.8 114.4 11.9 114.3 C 11.9 114.3 12.1 114.9 12.1 114.9 C 11.9 115.1 11.7 115.2 11.3 115.2 C 10.6 115.2 10.2 114.8 10.2 114.1 Z M 15.1 113.6 C 15.5 114 16.2 114.4 17 114.4 C 18 114.4 18.3 113.9 18.3 113.5 C 18.3 112.9 17.6 112.7 16.9 112.5 C 15.9 112.2 14.8 112 14.8 110.7 C 14.8 109.7 15.7 109 16.9 109 C 17.9 109 18.6 109.3 19.1 109.9 C 19.1 109.9 18.6 110.5 18.6 110.5 C 18.1 110 17.5 109.8 16.9 109.8 C 16.2 109.8 15.7 110.2 15.7 110.7 C 15.7 111.2 16.4 111.4 17.1 111.6 C 18.1 111.8 19.3 112.1 19.3 113.4 C 19.3 114.3 18.6 115.2 17 115.2 C 15.9 115.2 15.1 114.8 14.6 114.3 C 14.6 114.3 15.1 113.6 15.1 113.6 Z M 20.1 109.5 C 20.1 109.2 20.3 109 20.6 109 C 20.9 109 21.1 109.2 21.1 109.5 C 21.1 109.8 20.9 110 20.6 110 C 20.3 110 20.1 109.8 20.1 109.5 Z M 20.2 110.8 L 21 110.8 L 21 115.1 L 20.2 115.1 L 20.2 110.8 Z M 22 114.5 L 24.3 111.5 L 22 111.5 L 22 110.8 L 25.3 110.8 L 25.3 111.4 L 23 114.4 L 25.4 114.4 L 25.4 115.1 L 22 115.1 L 22 114.5 Z M 28.3 110.7 C 29.6 110.7 30.4 111.7 30.4 113 C 30.39 113 30.4 113.2 30.4 113.2 C 30.4 113.2 26.95 113.2 27 113.2 C 27 113.9 27.6 114.6 28.4 114.6 C 28.9 114.6 29.4 114.4 29.7 114 C 29.7 114 30.1 114.6 30.1 114.6 C 29.7 115 29.1 115.2 28.3 115.2 C 27.1 115.2 26.1 114.3 26.1 112.9 C 26.1 111.7 27 110.7 28.3 110.7 Z M 26.9 112.6 C 26.9 112.6 29.6 112.6 29.6 112.6 C 29.6 112 29.2 111.3 28.3 111.3 C 27.4 111.3 27 112 26.9 112.6 Z " stroke="none" fill="#242423"/>
  </g>
  <g id="Polygon208280">
    <path d="M 3.5 91 C 4.7 91 5.4 91.5 5.9 92.2 C 5.9 92.2 5.2 92.6 5.2 92.6 C 4.8 92.2 4.2 91.8 3.5 91.8 C 2.3 91.8 1.3 92.8 1.3 94.1 C 1.3 95.5 2.3 96.4 3.5 96.4 C 4.2 96.4 4.8 96.1 5 95.8 C 5.05 95.83 5 94.8 5 94.8 L 3.1 94.8 L 3.1 94 L 5.9 94 C 5.9 94 5.95 96.17 5.9 96.2 C 5.4 96.8 4.5 97.2 3.5 97.2 C 1.8 97.2 0.4 96 0.4 94.1 C 0.4 92.2 1.8 91 3.5 91 Z M 7 91.1 L 7.9 91.1 L 7.9 96.3 L 10.6 96.3 L 10.6 97.1 L 7 97.1 L 7 91.1 Z M 15.3 95.9 L 12.4 95.9 L 11.9 97.1 L 10.9 97.1 L 13.3 91.1 L 14.4 91.1 L 16.8 97.1 L 15.8 97.1 L 15.3 95.9 Z M 12.7 95.1 L 15.1 95.1 L 13.9 91.9 L 12.7 95.1 Z " stroke="none" fill="#242423"/>
  </g>
  <g id="Polygon208279">
    <path d="M 0.4 78.4 L 3.6 73.9 L 0.4 73.9 L 0.4 73.1 L 4.8 73.1 L 4.8 73.8 L 1.6 78.3 L 4.9 78.3 L 4.9 79.1 L 0.4 79.1 L 0.4 78.4 Z M 5.7 73.5 C 5.7 73.2 6 73 6.2 73 C 6.5 73 6.8 73.2 6.8 73.5 C 6.8 73.8 6.5 74 6.2 74 C 6 74 5.7 73.8 5.7 73.5 Z M 5.8 74.8 L 6.7 74.8 L 6.7 79.1 L 5.8 79.1 L 5.8 74.8 Z M 7.8 80.8 L 7.8 74.8 L 8.7 74.8 C 8.7 74.8 8.66 75.38 8.7 75.4 C 9 75 9.5 74.7 10.1 74.7 C 11.2 74.7 12 75.5 12 76.9 C 12 78.4 11.2 79.2 10.1 79.2 C 9.5 79.2 9 79 8.7 78.5 C 8.66 78.48 8.7 80.8 8.7 80.8 L 7.8 80.8 Z M 9.9 75.4 C 9.4 75.4 8.9 75.7 8.7 76 C 8.7 76 8.7 77.9 8.7 77.9 C 8.9 78.2 9.4 78.5 9.9 78.5 C 10.7 78.5 11.2 77.8 11.2 76.9 C 11.2 76 10.7 75.4 9.9 75.4 Z " stroke="none" fill="#242423"/>
  </g>
  <g id="Polygon208278">
    <path d="M 0.8 59.6 C 1.2 60 1.9 60.4 2.7 60.4 C 3.7 60.4 4 59.9 4 59.5 C 4 58.9 3.3 58.7 2.6 58.5 C 1.6 58.2 0.5 58 0.5 56.7 C 0.5 55.7 1.4 55 2.6 55 C 3.5 55 4.3 55.3 4.8 55.9 C 4.8 55.9 4.3 56.5 4.3 56.5 C 3.8 56 3.2 55.8 2.5 55.8 C 1.9 55.8 1.4 56.2 1.4 56.7 C 1.4 57.2 2.1 57.4 2.8 57.6 C 3.8 57.8 4.9 58.1 4.9 59.4 C 4.9 60.3 4.3 61.2 2.7 61.2 C 1.6 61.2 0.8 60.8 0.3 60.3 C 0.3 60.3 0.8 59.6 0.8 59.6 Z M 5.9 60.1 C 5.89 60.15 5.9 57.5 5.9 57.5 L 5.2 57.5 L 5.2 56.8 L 5.9 56.8 L 5.9 55.6 L 6.7 55.6 L 6.7 56.8 L 7.6 56.8 L 7.6 57.5 L 6.7 57.5 C 6.7 57.5 6.7 59.97 6.7 60 C 6.7 60.3 6.8 60.5 7.1 60.5 C 7.3 60.5 7.5 60.4 7.6 60.3 C 7.6 60.3 7.8 60.9 7.8 60.9 C 7.6 61.1 7.3 61.2 6.9 61.2 C 6.2 61.2 5.9 60.8 5.9 60.1 Z M 11.1 60.6 C 10.7 61 10.2 61.2 9.6 61.2 C 8.9 61.2 8.1 60.7 8.1 59.8 C 8.1 58.8 8.9 58.4 9.6 58.4 C 10.2 58.4 10.7 58.5 11.1 58.9 C 11.1 58.9 11.1 58.2 11.1 58.2 C 11.1 57.7 10.6 57.3 10 57.3 C 9.5 57.3 9.1 57.5 8.7 57.9 C 8.7 57.9 8.4 57.4 8.4 57.4 C 8.8 56.9 9.4 56.7 10.1 56.7 C 11.1 56.7 11.9 57.1 11.9 58.2 C 11.88 58.18 11.9 61.1 11.9 61.1 L 11.1 61.1 C 11.1 61.1 11.07 60.63 11.1 60.6 Z M 11.1 59.4 C 10.8 59.1 10.4 58.9 10 58.9 C 9.4 58.9 9 59.3 9 59.8 C 9 60.3 9.4 60.7 10 60.7 C 10.4 60.7 10.8 60.5 11.1 60.2 C 11.1 60.2 11.1 59.4 11.1 59.4 Z M 13.2 60.1 C 13.25 60.15 13.2 57.5 13.2 57.5 L 12.5 57.5 L 12.5 56.8 L 13.2 56.8 L 13.2 55.6 L 14.1 55.6 L 14.1 56.8 L 14.9 56.8 L 14.9 57.5 L 14.1 57.5 C 14.1 57.5 14.06 59.97 14.1 60 C 14.1 60.3 14.2 60.5 14.5 60.5 C 14.7 60.5 14.8 60.4 14.9 60.3 C 14.9 60.3 15.1 60.9 15.1 60.9 C 15 61.1 14.7 61.2 14.3 61.2 C 13.6 61.2 13.2 60.8 13.2 60.1 Z M 17.7 56.7 C 19 56.7 19.8 57.7 19.8 59 C 19.77 59 19.8 59.2 19.8 59.2 C 19.8 59.2 16.33 59.2 16.3 59.2 C 16.4 59.9 16.9 60.6 17.8 60.6 C 18.3 60.6 18.8 60.4 19.1 60 C 19.1 60 19.5 60.6 19.5 60.6 C 19 61 18.4 61.2 17.7 61.2 C 16.4 61.2 15.5 60.3 15.5 58.9 C 15.5 57.7 16.4 56.7 17.7 56.7 Z M 16.3 58.6 C 16.3 58.6 19 58.6 19 58.6 C 19 58 18.6 57.3 17.7 57.3 C 16.8 57.3 16.4 58 16.3 58.6 Z " stroke="none" fill="#242423"/>
  </g>
  <g id="Polygon208277">
    <path d="M 0.4 40.1 C 0.4 38.3 1.8 37 3.5 37 C 4.7 37 5.4 37.6 5.9 38.3 C 5.9 38.3 5.1 38.7 5.1 38.7 C 4.8 38.2 4.2 37.8 3.5 37.8 C 2.3 37.8 1.3 38.8 1.3 40.1 C 1.3 41.5 2.3 42.4 3.5 42.4 C 4.2 42.4 4.8 42 5.1 41.5 C 5.1 41.5 5.9 41.9 5.9 41.9 C 5.4 42.7 4.7 43.2 3.5 43.2 C 1.8 43.2 0.4 42 0.4 40.1 Z M 6.5 37.5 C 6.5 37.2 6.8 37 7.1 37 C 7.4 37 7.6 37.2 7.6 37.5 C 7.6 37.8 7.4 38 7.1 38 C 6.8 38 6.5 37.8 6.5 37.5 Z M 6.7 38.8 L 7.5 38.8 L 7.5 43.1 L 6.7 43.1 L 6.7 38.8 Z M 8.8 42.1 C 8.84 42.15 8.8 39.5 8.8 39.5 L 8.1 39.5 L 8.1 38.8 L 8.8 38.8 L 8.8 37.6 L 9.6 37.6 L 9.6 38.8 L 10.5 38.8 L 10.5 39.5 L 9.6 39.5 C 9.6 39.5 9.65 41.97 9.6 42 C 9.6 42.3 9.8 42.5 10.1 42.5 C 10.3 42.5 10.4 42.4 10.5 42.3 C 10.5 42.3 10.7 42.9 10.7 42.9 C 10.5 43.1 10.3 43.2 9.9 43.2 C 9.2 43.2 8.8 42.8 8.8 42.1 Z M 11.6 44.2 C 11.9 44.2 12.1 44.1 12.2 43.7 C 12.24 43.73 12.5 43.2 12.5 43.2 L 10.7 38.8 L 11.6 38.8 L 12.9 42.2 L 14.3 38.8 L 15.2 38.8 C 15.2 38.8 13.01 43.94 13 43.9 C 12.7 44.6 12.3 44.9 11.6 44.9 C 11.5 44.9 11.3 44.8 11.1 44.8 C 11.1 44.8 11.3 44.1 11.3 44.1 C 11.3 44.1 11.5 44.2 11.6 44.2 Z " stroke="none" fill="#242423"/>
  </g>
  <g id="Polygon208276">
    <path d="M 0.8 23.6 C 1.2 24 1.9 24.4 2.7 24.4 C 3.7 24.4 4 23.9 4 23.5 C 4 22.9 3.3 22.7 2.6 22.5 C 1.6 22.2 0.5 22 0.5 20.7 C 0.5 19.7 1.4 19 2.6 19 C 3.5 19 4.3 19.3 4.8 19.9 C 4.8 19.9 4.3 20.5 4.3 20.5 C 3.8 20 3.2 19.8 2.5 19.8 C 1.9 19.8 1.4 20.2 1.4 20.7 C 1.4 21.2 2.1 21.4 2.8 21.6 C 3.8 21.8 4.9 22.1 4.9 23.4 C 4.9 24.3 4.3 25.2 2.7 25.2 C 1.6 25.2 0.8 24.8 0.3 24.3 C 0.3 24.3 0.8 23.6 0.8 23.6 Z M 5.9 24.1 C 5.89 24.15 5.9 21.5 5.9 21.5 L 5.2 21.5 L 5.2 20.8 L 5.9 20.8 L 5.9 19.6 L 6.7 19.6 L 6.7 20.8 L 7.6 20.8 L 7.6 21.5 L 6.7 21.5 C 6.7 21.5 6.7 23.97 6.7 24 C 6.7 24.3 6.8 24.5 7.1 24.5 C 7.3 24.5 7.5 24.4 7.6 24.3 C 7.6 24.3 7.8 24.9 7.8 24.9 C 7.6 25.1 7.3 25.2 6.9 25.2 C 6.2 25.2 5.9 24.8 5.9 24.1 Z M 8.4 20.8 L 9.2 20.8 C 9.2 20.8 9.2 21.43 9.2 21.4 C 9.5 21 10 20.7 10.6 20.7 C 10.6 20.7 10.6 21.5 10.6 21.5 C 10.5 21.5 10.4 21.5 10.3 21.5 C 9.9 21.5 9.4 21.8 9.2 22.1 C 9.2 22.09 9.2 25.1 9.2 25.1 L 8.4 25.1 L 8.4 20.8 Z M 13.2 20.7 C 14.6 20.7 15.4 21.7 15.4 23 C 15.36 23 15.4 23.2 15.4 23.2 C 15.4 23.2 11.92 23.2 11.9 23.2 C 12 23.9 12.5 24.6 13.4 24.6 C 13.9 24.6 14.4 24.4 14.7 24 C 14.7 24 15.1 24.6 15.1 24.6 C 14.6 25 14 25.2 13.3 25.2 C 12 25.2 11.1 24.3 11.1 22.9 C 11.1 21.7 12 20.7 13.2 20.7 Z M 11.9 22.6 C 11.9 22.6 14.6 22.6 14.6 22.6 C 14.6 22 14.2 21.3 13.2 21.3 C 12.4 21.3 12 22 11.9 22.6 Z M 18.2 20.7 C 19.5 20.7 20.3 21.7 20.3 23 C 20.31 23 20.3 23.2 20.3 23.2 C 20.3 23.2 16.87 23.2 16.9 23.2 C 16.9 23.9 17.5 24.6 18.4 24.6 C 18.8 24.6 19.3 24.4 19.6 24 C 19.6 24 20 24.6 20 24.6 C 19.6 25 19 25.2 18.3 25.2 C 17 25.2 16 24.3 16 22.9 C 16 21.7 16.9 20.7 18.2 20.7 Z M 16.9 22.6 C 16.9 22.6 19.5 22.6 19.5 22.6 C 19.5 22 19.1 21.3 18.2 21.3 C 17.3 21.3 16.9 22 16.9 22.6 Z M 21.4 24.1 C 21.4 24.15 21.4 21.5 21.4 21.5 L 20.7 21.5 L 20.7 20.8 L 21.4 20.8 L 21.4 19.6 L 22.2 19.6 L 22.2 20.8 L 23.1 20.8 L 23.1 21.5 L 22.2 21.5 C 22.2 21.5 22.21 23.97 22.2 24 C 22.2 24.3 22.4 24.5 22.6 24.5 C 22.8 24.5 23 24.4 23.1 24.3 C 23.1 24.3 23.3 24.9 23.3 24.9 C 23.1 25.1 22.9 25.2 22.4 25.2 C 21.8 25.2 21.4 24.8 21.4 24.1 Z M 30 23.9 L 27 23.9 L 26.5 25.1 L 25.5 25.1 L 27.9 19.1 L 29 19.1 L 31.4 25.1 L 30.4 25.1 L 30 23.9 Z M 27.3 23.1 L 29.7 23.1 L 28.5 19.9 L 27.3 23.1 Z M 35.1 24.5 C 34.8 24.9 34.3 25.2 33.7 25.2 C 32.6 25.2 31.8 24.4 31.8 22.9 C 31.8 21.5 32.6 20.7 33.7 20.7 C 34.3 20.7 34.8 20.9 35.1 21.4 C 35.14 21.39 35.1 19.1 35.1 19.1 L 35.9 19.1 L 35.9 25.1 L 35.1 25.1 C 35.1 25.1 35.14 24.49 35.1 24.5 Z M 35.1 22 C 34.9 21.7 34.4 21.4 33.9 21.4 C 33.1 21.4 32.6 22 32.6 22.9 C 32.6 23.8 33.1 24.5 33.9 24.5 C 34.4 24.5 34.9 24.2 35.1 23.9 C 35.1 23.9 35.1 22 35.1 22 Z M 40.2 24.5 C 39.9 24.9 39.4 25.2 38.8 25.2 C 37.7 25.2 36.9 24.4 36.9 22.9 C 36.9 21.5 37.7 20.7 38.8 20.7 C 39.4 20.7 39.9 20.9 40.2 21.4 C 40.25 21.39 40.2 19.1 40.2 19.1 L 41.1 19.1 L 41.1 25.1 L 40.2 25.1 C 40.2 25.1 40.25 24.49 40.2 24.5 Z M 40.2 22 C 40 21.7 39.5 21.4 39 21.4 C 38.2 21.4 37.7 22 37.7 22.9 C 37.7 23.8 38.2 24.5 39 24.5 C 39.5 24.5 40 24.2 40.2 23.9 C 40.2 23.9 40.2 22 40.2 22 Z M 42.3 20.8 L 43.1 20.8 C 43.1 20.8 43.07 21.43 43.1 21.4 C 43.4 21 43.9 20.7 44.5 20.7 C 44.5 20.7 44.5 21.5 44.5 21.5 C 44.4 21.5 44.3 21.5 44.2 21.5 C 43.8 21.5 43.3 21.8 43.1 22.1 C 43.07 22.09 43.1 25.1 43.1 25.1 L 42.3 25.1 L 42.3 20.8 Z M 47.1 20.7 C 48.4 20.7 49.2 21.7 49.2 23 C 49.24 23 49.2 23.2 49.2 23.2 C 49.2 23.2 45.8 23.2 45.8 23.2 C 45.9 23.9 46.4 24.6 47.3 24.6 C 47.7 24.6 48.2 24.4 48.6 24 C 48.6 24 48.9 24.6 48.9 24.6 C 48.5 25 47.9 25.2 47.2 25.2 C 45.9 25.2 44.9 24.3 44.9 22.9 C 44.9 21.7 45.9 20.7 47.1 20.7 Z M 45.8 22.6 C 45.8 22.6 48.4 22.6 48.4 22.6 C 48.4 22 48 21.3 47.1 21.3 C 46.3 21.3 45.8 22 45.8 22.6 Z M 50.2 23.9 C 50.5 24.3 51 24.6 51.6 24.6 C 52.2 24.6 52.6 24.3 52.6 23.9 C 52.6 23.5 52.1 23.4 51.5 23.2 C 50.8 23.1 49.9 22.9 49.9 21.9 C 49.9 21.2 50.5 20.7 51.6 20.7 C 52.3 20.7 52.9 20.9 53.2 21.3 C 53.2 21.3 52.9 21.8 52.9 21.8 C 52.6 21.5 52.1 21.3 51.6 21.3 C 51 21.3 50.7 21.5 50.7 21.9 C 50.7 22.3 51.2 22.4 51.7 22.5 C 52.5 22.7 53.4 22.9 53.4 23.9 C 53.4 24.6 52.7 25.2 51.6 25.2 C 50.9 25.2 50.2 25 49.8 24.5 C 49.8 24.5 50.2 23.9 50.2 23.9 Z M 54.3 23.9 C 54.6 24.3 55.2 24.6 55.8 24.6 C 56.4 24.6 56.7 24.3 56.7 23.9 C 56.7 23.5 56.2 23.4 55.6 23.2 C 54.9 23.1 54 22.9 54 21.9 C 54 21.2 54.6 20.7 55.7 20.7 C 56.4 20.7 57 20.9 57.3 21.3 C 57.3 21.3 57 21.8 57 21.8 C 56.7 21.5 56.2 21.3 55.7 21.3 C 55.2 21.3 54.8 21.5 54.8 21.9 C 54.8 22.3 55.3 22.4 55.8 22.5 C 56.6 22.7 57.5 22.9 57.5 23.9 C 57.5 24.6 56.9 25.2 55.7 25.2 C 55 25.2 54.4 25 53.9 24.5 C 53.9 24.5 54.3 23.9 54.3 23.9 Z " stroke="none" fill="#242423"/>
  </g>
  <g id="Polygon208275">
    <path d="M 2.1 1.9 L 0.3 1.9 L 0.3 1.1 L 4.9 1.1 L 4.9 1.9 L 3 1.9 L 3 7.1 L 2.1 7.1 L 2.1 1.9 Z M 6.6 2.7 C 7.9 2.7 8.7 3.7 8.7 5 C 8.75 5 8.7 5.2 8.7 5.2 C 8.7 5.2 5.31 5.2 5.3 5.2 C 5.4 5.9 5.9 6.6 6.8 6.6 C 7.2 6.6 7.7 6.4 8.1 6 C 8.1 6 8.5 6.6 8.5 6.6 C 8 7 7.4 7.2 6.7 7.2 C 5.4 7.2 4.5 6.3 4.5 4.9 C 4.5 3.7 5.4 2.7 6.6 2.7 Z M 5.3 4.6 C 5.3 4.6 8 4.6 8 4.6 C 7.9 4 7.6 3.3 6.6 3.3 C 5.8 3.3 5.3 4 5.3 4.6 Z M 12.6 4.3 C 12.6 3.6 12.2 3.4 11.7 3.4 C 11.2 3.4 10.7 3.7 10.5 4 C 10.48 4 10.5 7.1 10.5 7.1 L 9.7 7.1 L 9.7 2.8 L 10.5 2.8 C 10.5 2.8 10.48 3.37 10.5 3.4 C 10.8 3 11.3 2.7 12 2.7 C 12.9 2.7 13.4 3.1 13.4 4.1 C 13.42 4.06 13.4 7.1 13.4 7.1 L 12.6 7.1 C 12.6 7.1 12.61 4.33 12.6 4.3 Z M 17.3 6.6 C 17 7 16.5 7.2 15.9 7.2 C 15.2 7.2 14.4 6.7 14.4 5.8 C 14.4 4.8 15.1 4.4 15.9 4.4 C 16.5 4.4 17 4.5 17.3 4.9 C 17.3 4.9 17.3 4.2 17.3 4.2 C 17.3 3.7 16.9 3.3 16.2 3.3 C 15.7 3.3 15.3 3.5 14.9 3.9 C 14.9 3.9 14.6 3.4 14.6 3.4 C 15.1 2.9 15.7 2.7 16.4 2.7 C 17.3 2.7 18.1 3.1 18.1 4.2 C 18.11 4.18 18.1 7.1 18.1 7.1 L 17.3 7.1 C 17.3 7.1 17.3 6.63 17.3 6.6 Z M 17.3 5.4 C 17.1 5.1 16.6 4.9 16.2 4.9 C 15.6 4.9 15.2 5.3 15.2 5.8 C 15.2 6.3 15.6 6.7 16.2 6.7 C 16.6 6.7 17.1 6.5 17.3 6.2 C 17.3 6.2 17.3 5.4 17.3 5.4 Z M 22.2 4.3 C 22.2 3.6 21.9 3.4 21.3 3.4 C 20.8 3.4 20.4 3.7 20.1 4 C 20.12 4 20.1 7.1 20.1 7.1 L 19.3 7.1 L 19.3 2.8 L 20.1 2.8 C 20.1 2.8 20.12 3.37 20.1 3.4 C 20.4 3 21 2.7 21.7 2.7 C 22.6 2.7 23.1 3.1 23.1 4.1 C 23.06 4.06 23.1 7.1 23.1 7.1 L 22.2 7.1 C 22.2 7.1 22.25 4.33 22.2 4.3 Z M 24.4 6.1 C 24.42 6.15 24.4 3.5 24.4 3.5 L 23.7 3.5 L 23.7 2.8 L 24.4 2.8 L 24.4 1.6 L 25.2 1.6 L 25.2 2.8 L 26.1 2.8 L 26.1 3.5 L 25.2 3.5 C 25.2 3.5 25.23 5.97 25.2 6 C 25.2 6.3 25.4 6.5 25.6 6.5 C 25.8 6.5 26 6.4 26.1 6.3 C 26.1 6.3 26.3 6.9 26.3 6.9 C 26.1 7.1 25.9 7.2 25.5 7.2 C 24.8 7.2 24.4 6.8 24.4 6.1 Z " stroke="none" fill="#242423"/>
  </g>
</svg>