<?xml version="1.0" standalone="no"?><!DOCTYPE svg PUBLIC "-//W3C//DTD SVG 1.1//EN" "http://www.w3.org/Graphics/SVG/1.1/DTD/svg11.dtd"><svg xmlns="http://www.w3.org/2000/svg" version="1.1" width="103.1px" height="16.9px" viewBox="0 -4 103.1 16.9" style="top:-4px"><desc>Tony</desc><defs/><g id="Polygon115846"><path d="m.4 4.1C.4 2.3 1.8 1 3.5 1c1.2 0 1.9.6 2.4 1.3l-.8.4c-.3-.5-.9-.9-1.6-.9c-1.2 0-2.2 1-2.2 2.3c0 1.4 1 2.3 2.2 2.3c.7 0 1.3-.4 1.6-.9l.8.4c-.5.8-1.2 1.3-2.4 1.3C1.8 7.2.4 6 .4 4.1zm10.1 1.8H7.6l-.5 1.2h-1l2.4-6h1.1l2.4 6h-1l-.5-1.2zm-2.6-.8h2.4L9.1 1.9l-1.2 3.2zm9.2-.3H16v2.3h-.9v-6s2.49.01 2.5 0c1.1 0 1.9.7 1.9 1.9c0 1-.7 1.6-1.5 1.7c.02.01 1.6 2.4 1.6 2.4h-1.1l-1.4-2.3zm.4-2.9H16v2.1h1.5c.6 0 1.1-.4 1.1-1c0-.7-.5-1.1-1.1-1.1zm3.1-.8h4.1v.8h-3.2v1.8h3.1v.7h-3.1v1.9h3.2v.8h-4.1v-6zm7.5 0h.9v5.2h2.7v.8h-3.6v-6zm4.5.4c0-.3.2-.5.5-.5c.3 0 .5.2.5.5c0 .3-.2.5-.5.5c-.3 0-.5-.2-.5-.5zm.1 1.3h.8v4.3h-.8V2.8zm4-.1c.9 0 1.4.3 1.7.7l-.6.5c-.2-.4-.6-.5-1-.5c-.9 0-1.4.6-1.4 1.5c0 .9.5 1.6 1.4 1.6c.4 0 .8-.2 1-.5l.6.5c-.3.4-.8.7-1.7.7c-1.3 0-2.2-1-2.2-2.3c0-1.3.9-2.2 2.2-2.2zm3 3.4c.3 0 .5.2.5.5c0 .3-.2.6-.5.6c-.3 0-.6-.3-.6-.6c0-.3.3-.5.6-.5zM45.8 1c1.7 0 2.4 1.6 2.4 3.1c0 1.5-.7 3.1-2.4 3.1c-1.6 0-2.3-1.6-2.3-3.1c0-1.5.7-3.1 2.3-3.1zm0 .8c-1 0-1.4 1.1-1.4 2.3c0 1.2.4 2.3 1.4 2.3c1.1 0 1.5-1.1 1.5-2.3c0-1.2-.4-2.3-1.5-2.3zm4.5.5l-1 1l-.5-.5l1.6-1.7h.8v6h-.9V2.3zM53 5.8c.3.4.6.6 1.2.6c1.2 0 1.7-1.1 1.7-2.2v-.2c-.3.4-1 .9-1.7.9c-1.1 0-2-.6-2-1.9c0-1.1.9-2 2.2-2c1.7 0 2.4 1.5 2.4 3.1c0 1.7-.9 3.1-2.6 3.1c-.7 0-1.3-.3-1.7-.7l.5-.7zm1.4-4c-.8 0-1.3.6-1.3 1.2c0 .8.6 1.1 1.3 1.1c.6 0 1.1-.3 1.4-.8c0-.6-.4-1.5-1.4-1.5zm3.5 3.9c.4.4 1 .7 1.7.7c.8 0 1.3-.4 1.3-1c0-.7-.5-1-1.4-1c-.2 0-.5 0-.6.1v-.9h.6c.7 0 1.3-.2 1.3-.8c0-.7-.5-1-1.2-1c-.7 0-1.2.3-1.6.7l-.5-.5c.5-.6 1.2-1 2.1-1c1.3 0 2.1.6 2.1 1.6c0 .9-.7 1.3-1.3 1.4c.6.1 1.4.5 1.4 1.5c0 1-.8 1.7-2.2 1.7c-1 0-1.8-.4-2.2-1l.5-.5zm7.5 0h-2.9v-.8l2.6-3.8h1.2v3.8h.8v.8h-.8v1.4h-.9V5.7zm-2-.8h2v-3l-2 3zm7.4-3h-3.1v-.8h4.2v.6l-2.4 5.4h-1l2.3-5.2zm4.3-.9c.7 0 1.3.3 1.7.7l-.5.7c-.3-.4-.6-.6-1.2-.6c-1.1 0-1.7 1.1-1.7 2.2v.2c.3-.4.9-.9 1.7-.9c1.1 0 2 .7 2 1.9c0 1.1-.9 2-2.2 2c-1.7 0-2.4-1.4-2.4-3.1c0-1.7.8-3.1 2.6-3.1zm-.2 3.1c-.6 0-1.1.3-1.5.8c.1.7.5 1.5 1.5 1.5c.8 0 1.3-.6 1.3-1.1c0-.8-.6-1.2-1.3-1.2zM80.2 1c1.7 0 2.4 1.6 2.4 3.1c0 1.5-.7 3.1-2.4 3.1c-1.6 0-2.3-1.6-2.3-3.1c0-1.5.7-3.1 2.3-3.1zm0 .8c-1 0-1.4 1.1-1.4 2.3c0 1.2.4 2.3 1.4 2.3c1.1 0 1.5-1.1 1.5-2.3c0-1.2-.4-2.3-1.5-2.3z" stroke="none" fill="#88898a"/></g></svg>