<?xml version="1.0" standalone="no"?><!DOCTYPE svg PUBLIC "-//W3C//DTD SVG 1.1//EN" "http://www.w3.org/Graphics/SVG/1.1/DTD/svg11.dtd"><svg xmlns="http://www.w3.org/2000/svg" version="1.1" width="134.3px" height="15.9px" viewBox="0 -4 134.3 15.9" style="top:-4px"><desc>Fee Simple</desc><defs/><g id="Polygon93002"><path d="m91.2 1.1h3.8v.5h-3.3v2.2h3.2v.5h-3.2v2.8h-.5v-6zm6.7 1.6c1.3 0 2.1 1 2.1 2.3c-.05-.04 0 .1 0 .1c0 0-3.68-.02-3.7 0c.1.9.7 1.7 1.7 1.7c.6 0 1.1-.2 1.4-.6l.3.3c-.4.5-1 .7-1.7.7c-1.3 0-2.2-.9-2.2-2.3c0-1.2.9-2.2 2.1-2.2zm-1.6 2h3.2c0-.7-.5-1.6-1.6-1.6c-1 0-1.5.9-1.6 1.6zm6.7-2c1.3 0 2.1 1 2.1 2.3c-.04-.04 0 .1 0 .1c0 0-3.68-.02-3.7 0c.1.9.7 1.7 1.7 1.7c.6 0 1.1-.2 1.4-.6l.3.3c-.4.5-1 .7-1.7.7c-1.3 0-2.2-.9-2.2-2.3c0-1.2.9-2.2 2.1-2.2zm-1.6 2h3.2c0-.7-.5-1.6-1.6-1.6c-1 0-1.5.9-1.6 1.6zm7.2 1.2c.4.4 1 .9 1.9.9c1.2 0 1.6-.7 1.6-1.2c0-.9-.8-1.1-1.7-1.4c-.9-.2-1.9-.5-1.9-1.6c0-1 .9-1.6 1.9-1.6c.9 0 1.6.3 2.1.9l-.4.3c-.4-.5-1-.7-1.7-.7c-.8 0-1.4.4-1.4 1.1c0 .7.8.9 1.6 1.1c.9.3 2 .6 2 1.8c0 .8-.5 1.7-2.1 1.7c-1 0-1.8-.4-2.2-.9l.3-.4zm5.1-4.2c0-.2.2-.4.4-.4c.2 0 .3.2.3.4c0 .2-.1.3-.3.3c-.2 0-.4-.1-.4-.3zm.1 1.1h.5v4.3h-.5V2.8zm7.1 1.3c0-.6-.2-1-.8-1c-.5 0-1 .3-1.3.7c.01.02 0 3.3 0 3.3h-.5s.03-3.03 0-3c0-.6-.2-1-.8-1c-.5 0-1 .3-1.3.7c.02.02 0 3.3 0 3.3h-.5V2.8h.5s.02.62 0 .6c.2-.3.8-.7 1.4-.7c.7 0 1.1.4 1.2.8c.2-.4.8-.8 1.4-.8c.8 0 1.2.4 1.2 1.3v3.1h-.5s.02-3.03 0-3zm2 4.7v-6h.4s.02.66 0 .7c.3-.5.9-.8 1.5-.8c1.2 0 2 .8 2 2.2c0 1.4-.8 2.3-2 2.3c-.6 0-1.1-.3-1.5-.8c.02.01 0 2.4 0 2.4h-.4zm1.8-5.7c-.6 0-1.1.3-1.4.8v2.1c.3.4.8.8 1.4.8c1 0 1.6-.8 1.6-1.9c0-1-.6-1.8-1.6-1.8zm3.3-2h.4v6h-.4v-6zm3.8 1.6c1.3 0 2 1 2 2.3v.1s-3.63-.02-3.6 0c0 .9.6 1.7 1.7 1.7c.5 0 1-.2 1.4-.6l.2.3c-.4.5-.9.7-1.7.7c-1.2 0-2.1-.9-2.1-2.3c0-1.2.8-2.2 2.1-2.2zm-1.6 2h3.1c0-.7-.5-1.6-1.6-1.6c-1 0-1.5.9-1.5 1.6z" stroke="none" fill="#000"/></g></svg>