<?xml version="1.0" standalone="no"?><!DOCTYPE svg PUBLIC "-//W3C//DTD SVG 1.1//EN" "http://www.w3.org/Graphics/SVG/1.1/DTD/svg11.dtd"><svg xmlns="http://www.w3.org/2000/svg" version="1.1" width="184px" height="16.9px" viewBox="0 -4 184 16.9" style="top:-4px"><desc>05</desc><defs/><g id="Polygon92351"><path d="m2.8 1c1.6 0 2.3 1.6 2.3 3.1c0 1.5-.7 3.1-2.3 3.1C1.1 7.2.4 5.6.4 4.1C.4 2.6 1.1 1 2.8 1zm0 .8c-1.1 0-1.5 1.1-1.5 2.3c0 1.2.4 2.3 1.5 2.3c1 0 1.4-1.1 1.4-2.3c0-1.2-.4-2.3-1.4-2.3zm3.8 3.9c.4.4.9.7 1.6.7c.8 0 1.3-.5 1.3-1.2c0-.7-.5-1.1-1.2-1.1c-.6 0-1 .1-1.4.5l-.6-.2V1.1h3.8v.8H7.2s-.04 1.92 0 1.9c.3-.3.8-.5 1.3-.5c1 0 2 .7 2 1.9c0 1.2-1 2-2.2 2c-1.1 0-1.8-.3-2.2-.9l.5-.6z" stroke="none" fill="#88898a"/></g></svg>