<?xml version="1.0" standalone="no"?><!DOCTYPE svg PUBLIC "-//W3C//DTD SVG 1.1//EN" "http://www.w3.org/Graphics/SVG/1.1/DTD/svg11.dtd"><svg xmlns="http://www.w3.org/2000/svg" version="1.1" width="22px" height="41.3px" viewBox="0 -8 22 41.3" style="top:-8px"><desc>01</desc><defs/><g id="Polygon64615"><path d="m12.3 5.3v10.1c0 2.5-1.5 3.5-4.1 3.5h-.1c-2.6 0-4.1-1-4.1-3.5V5.3c0-2.6 1.5-3.6 4.1-3.6h.1c2.6 0 4.1 1 4.1 3.6zM8.1 4.2c-.8 0-1.4.3-1.4 1.5v9.2c0 1.2.6 1.6 1.4 1.6c.9 0 1.5-.4 1.5-1.6V5.7c0-1.2-.6-1.5-1.5-1.5zm6.7 14.5s.02-14.81 0-14.8c.5-.5 1-1.2 1.2-2c-.01.02 1.5 0 1.5 0v16.8h-2.7z" stroke="none" fill="#fff"/></g></svg>