<?xml version="1.0" standalone="no"?><!DOCTYPE svg PUBLIC "-//W3C//DTD SVG 1.1//EN" "http://www.w3.org/Graphics/SVG/1.1/DTD/svg11.dtd"><svg xmlns="http://www.w3.org/2000/svg" version="1.1" width="23.2px" height="51.8px" viewBox="0 -13 23.2 51.8" style="top:-13px"><desc>%</desc><defs/><g id="Polygon279752"><path d="m6.1 1.8c3 0 5.1 2.3 5.1 5.3c0 3-2.1 5.2-5.1 5.2C3 12.3 1 10.1 1 7.1c0-3 2-5.3 5.1-5.3zm11.5.3h1.7L5.8 23.3H4.1L17.6 2.1zM6.1 3.4C4.2 3.4 2.9 5 2.9 7.1c0 2 1.3 3.6 3.2 3.6c1.9 0 3.2-1.6 3.2-3.6C9.3 5 8 3.4 6.1 3.4zm11 9.9c3 0 5.1 2.2 5.1 5.2c0 3-2.1 5.2-5.1 5.2c-3 0-5.1-2.2-5.1-5.2c0-3 2.1-5.2 5.1-5.2zm0 1.6c-1.9 0-3.2 1.5-3.2 3.6c0 2 1.3 3.6 3.2 3.6c1.9 0 3.3-1.6 3.3-3.6c0-2.1-1.4-3.6-3.3-3.6z" stroke="none" fill="#fff"/></g></svg>