<?xml version="1.0" standalone="no"?>
<!DOCTYPE svg PUBLIC "-//W3C//DTD SVG 1.1//EN" "http://www.w3.org/Graphics/SVG/1.1/DTD/svg11.dtd">
<svg xmlns="http://www.w3.org/2000/svg" version="1.1" width="416.3px" height="27.9px" viewBox="0 -6 416.3 27.9" style="top:-6px">
  <desc>TENANT NAME</desc>
  <defs/>
  <g id="Polygon205060">
    <path d="M 3.8 3.4 L 0.5 3.4 L 0.5 2 L 8.6 2 L 8.6 3.4 L 5.4 3.4 L 5.4 12.5 L 3.8 12.5 L 3.8 3.4 Z M 10.3 2 L 17.4 2 L 17.4 3.4 L 11.9 3.4 L 11.9 6.4 L 17.3 6.4 L 17.3 7.8 L 11.9 7.8 L 11.9 11.2 L 17.4 11.2 L 17.4 12.5 L 10.3 12.5 L 10.3 2 Z M 21 4.4 L 21 12.5 L 19.4 12.5 L 19.4 2 L 21 2 L 26.8 9.9 L 26.8 2 L 28.4 2 L 28.4 12.5 L 26.8 12.5 L 21 4.4 Z M 37.4 10.4 L 32.2 10.4 L 31.4 12.5 L 29.6 12.5 L 33.8 2 L 35.8 2 L 40 12.5 L 38.3 12.5 L 37.4 10.4 Z M 32.7 8.9 L 37 8.9 L 34.8 3.3 L 32.7 8.9 Z M 42.9 4.4 L 42.9 12.5 L 41.3 12.5 L 41.3 2 L 42.9 2 L 48.7 9.9 L 48.7 2 L 50.3 2 L 50.3 12.5 L 48.7 12.5 L 42.9 4.4 Z M 55.2 3.4 L 51.9 3.4 L 51.9 2 L 60.1 2 L 60.1 3.4 L 56.8 3.4 L 56.8 12.5 L 55.2 12.5 L 55.2 3.4 Z M 67.4 4.4 L 67.4 12.5 L 65.8 12.5 L 65.8 2 L 67.5 2 L 73.2 9.9 L 73.2 2 L 74.8 2 L 74.8 12.5 L 73.3 12.5 L 67.4 4.4 Z M 83.9 10.4 L 78.7 10.4 L 77.8 12.5 L 76.1 12.5 L 80.3 2 L 82.3 2 L 86.5 12.5 L 84.7 12.5 L 83.9 10.4 Z M 79.1 8.9 L 83.4 8.9 L 81.3 3.3 L 79.1 8.9 Z M 96.9 4.1 L 93.4 12.5 L 92.8 12.5 L 89.3 4.1 L 89.3 12.5 L 87.7 12.5 L 87.7 2 L 90 2 L 93.1 9.6 L 96.2 2 L 98.5 2 L 98.5 12.5 L 96.9 12.5 L 96.9 4.1 Z M 100.8 2 L 107.9 2 L 107.9 3.4 L 102.4 3.4 L 102.4 6.4 L 107.8 6.4 L 107.8 7.8 L 102.4 7.8 L 102.4 11.2 L 107.9 11.2 L 107.9 12.5 L 100.8 12.5 L 100.8 2 Z " stroke="none" fill="#88898a"/>
  </g>
</svg>