<?xml version="1.0" standalone="no"?>
<!DOCTYPE svg PUBLIC "-//W3C//DTD SVG 1.1//EN" "http://www.w3.org/Graphics/SVG/1.1/DTD/svg11.dtd">
<svg xmlns="http://www.w3.org/2000/svg" version="1.1" width="62px" height="16.9px" viewBox="0 -4 62 16.9" style="top:-4px">
  <desc>GLA</desc>
  <defs/>
  <g id="Polygon267019">
    <path d="M 3.5 1 C 4.7 1 5.4 1.5 5.9 2.2 C 5.9 2.2 5.2 2.6 5.2 2.6 C 4.8 2.2 4.2 1.8 3.5 1.8 C 2.3 1.8 1.3 2.8 1.3 4.1 C 1.3 5.5 2.3 6.4 3.5 6.4 C 4.2 6.4 4.8 6.1 5 5.8 C 5.05 5.83 5 4.8 5 4.8 L 3.1 4.8 L 3.1 4 L 5.9 4 C 5.9 4 5.95 6.17 5.9 6.2 C 5.4 6.8 4.5 7.2 3.5 7.2 C 1.8 7.2 0.4 6 0.4 4.1 C 0.4 2.2 1.8 1 3.5 1 Z M 7.1 1.1 L 8 1.1 L 8 6.3 L 10.7 6.3 L 10.7 7.1 L 7.1 7.1 L 7.1 1.1 Z M 15.5 5.9 L 12.6 5.9 L 12.1 7.1 L 11.1 7.1 L 13.5 1.1 L 14.6 1.1 L 17 7.1 L 16 7.1 L 15.5 5.9 Z M 12.8 5.1 L 15.3 5.1 L 14 1.9 L 12.8 5.1 Z " stroke="none" fill="#000"/>
  </g>
</svg>