<?xml version="1.0" standalone="no"?><!DOCTYPE svg PUBLIC "-//W3C//DTD SVG 1.1//EN" "http://www.w3.org/Graphics/SVG/1.1/DTD/svg11.dtd"><svg xmlns="http://www.w3.org/2000/svg" version="1.1" width="9.1px" height="18.2px" viewBox="0 -4 9.1 18.2" style="top:-4px"><desc>06</desc><defs/><g id="Polygon64307"><path d="m4.2 2.2v4.2c0 1.1-.7 1.5-1.7 1.5h-.1C1.3 7.9.7 7.5.7 6.4V2.2C.7 1.1 1.3.7 2.4.7h.1c1 0 1.7.4 1.7 1.5zm-1.8-.5c-.3 0-.6.2-.6.7v3.8c0 .5.3.7.6.7c.4 0 .6-.2.6-.7V2.4c0-.5-.2-.7-.6-.7zm4.8 1.1s.02-.52 0-.5c0-.5-.2-.6-.5-.6c-.3 0-.5.1-.5.6v1.4c.2-.1.3-.3.8-.3c.8 0 1.4.4 1.4 1.4v1.6c0 1.1-.6 1.5-1.7 1.5c-1 0-1.6-.4-1.6-1.5V2.2c0-1.1.5-1.5 1.6-1.5c1.1 0 1.6.4 1.6 1.5c.04-.04 0 .6 0 .6H7.2zM6.2 5v1.3c0 .5.2.6.5.6c.4 0 .6-.1.6-.6V5c0-.5-.2-.6-.6-.6c-.3 0-.5.1-.5.6z" stroke="none" fill="#fff"/></g></svg>