<?xml version="1.0" standalone="no"?>
<!DOCTYPE svg PUBLIC "-//W3C//DTD SVG 1.1//EN" "http://www.w3.org/Graphics/SVG/1.1/DTD/svg11.dtd">
<svg xmlns="http://www.w3.org/2000/svg" version="1.1" width="155.5px" height="27.9px" viewBox="0 -6 155.5 27.9" style="top:-6px">
  <desc>Tenant</desc>
  <defs/>
  <g id="Polygon265868">
    <path d="M 57.9 3.4 L 54.6 3.4 L 54.6 2 L 62.7 2 L 62.7 3.4 L 59.4 3.4 L 59.4 12.5 L 57.9 12.5 L 57.9 3.4 Z M 66 4.7 C 68.3 4.7 69.7 6.5 69.7 8.8 C 69.69 8.83 69.7 9.2 69.7 9.2 C 69.7 9.2 63.62 9.18 63.6 9.2 C 63.7 10.5 64.7 11.6 66.2 11.6 C 67 11.6 67.9 11.2 68.5 10.7 C 68.5 10.7 69.2 11.6 69.2 11.6 C 68.4 12.3 67.3 12.7 66.1 12.7 C 63.8 12.7 62.1 11.1 62.1 8.7 C 62.1 6.5 63.7 4.7 66 4.7 Z M 63.6 8.1 C 63.6 8.1 68.3 8.1 68.3 8.1 C 68.3 7.1 67.6 5.9 66 5.9 C 64.4 5.9 63.7 7.1 63.6 8.1 Z M 76.7 7.6 C 76.7 6.4 76 6 75 6 C 74.1 6 73.3 6.5 72.9 7.1 C 72.91 7.07 72.9 12.5 72.9 12.5 L 71.5 12.5 L 71.5 4.9 L 72.9 4.9 C 72.9 4.9 72.91 5.95 72.9 6 C 73.4 5.3 74.4 4.7 75.6 4.7 C 77.3 4.7 78.1 5.5 78.1 7.2 C 78.09 7.16 78.1 12.5 78.1 12.5 L 76.7 12.5 C 76.7 12.5 76.66 7.64 76.7 7.6 Z M 85.1 11.7 C 84.5 12.4 83.6 12.7 82.6 12.7 C 81.3 12.7 79.9 11.9 79.9 10.2 C 79.9 8.4 81.3 7.7 82.6 7.7 C 83.6 7.7 84.5 8 85.1 8.7 C 85.1 8.7 85.1 7.4 85.1 7.4 C 85.1 6.5 84.3 5.9 83.2 5.9 C 82.3 5.9 81.6 6.2 80.9 6.9 C 80.9 6.9 80.3 5.9 80.3 5.9 C 81.2 5.1 82.2 4.7 83.4 4.7 C 85.1 4.7 86.5 5.4 86.5 7.4 C 86.52 7.37 86.5 12.5 86.5 12.5 L 85.1 12.5 C 85.1 12.5 85.1 11.71 85.1 11.7 Z M 85.1 9.6 C 84.7 9 83.9 8.7 83.1 8.7 C 82.1 8.7 81.4 9.3 81.4 10.2 C 81.4 11.1 82.1 11.7 83.1 11.7 C 83.9 11.7 84.7 11.4 85.1 10.9 C 85.1 10.9 85.1 9.6 85.1 9.6 Z M 94 7.6 C 94 6.4 93.3 6 92.4 6 C 91.5 6 90.7 6.5 90.2 7.1 C 90.24 7.07 90.2 12.5 90.2 12.5 L 88.8 12.5 L 88.8 4.9 L 90.2 4.9 C 90.2 4.9 90.24 5.95 90.2 6 C 90.7 5.3 91.8 4.7 93 4.7 C 94.6 4.7 95.4 5.5 95.4 7.2 C 95.42 7.16 95.4 12.5 95.4 12.5 L 94 12.5 C 94 12.5 93.99 7.64 94 7.6 Z M 98 10.8 C 97.98 10.85 98 6.1 98 6.1 L 96.7 6.1 L 96.7 4.9 L 98 4.9 L 98 2.8 L 99.4 2.8 L 99.4 4.9 L 101 4.9 L 101 6.1 L 99.4 6.1 C 99.4 6.1 99.4 10.53 99.4 10.5 C 99.4 11.1 99.7 11.5 100.2 11.5 C 100.5 11.5 100.8 11.3 100.9 11.2 C 100.9 11.2 101.3 12.2 101.3 12.2 C 101 12.5 100.5 12.7 99.8 12.7 C 98.6 12.7 98 12.1 98 10.8 Z " stroke="none" fill="#000"/>
  </g>
</svg>