<?xml version="1.0" standalone="no"?><!DOCTYPE svg PUBLIC "-//W3C//DTD SVG 1.1//EN" "http://www.w3.org/Graphics/SVG/1.1/DTD/svg11.dtd"><svg xmlns="http://www.w3.org/2000/svg" version="1.1" width="51.1px" height="52px" viewBox="0 -11 51.1 52" style="top:-11px"><desc>02</desc><defs/><g id="Polygon107782"><path d="m24.7 7v13.3c0 3.4-2 4.7-5.3 4.7h-.3c-3.3 0-5.3-1.3-5.3-4.7V7c0-3.4 2-4.7 5.3-4.7h.3c3.3 0 5.3 1.3 5.3 4.7zm-5.4-1.5c-1.2 0-1.9.5-1.9 2.1v12.2c0 1.5.7 2 1.9 2c1.1 0 1.9-.5 1.9-2V7.6c0-1.6-.8-2.1-1.9-2.1zm8 1.4c0-3.3 1.9-4.6 5.2-4.6h.1c3.4 0 5.2 1.3 5.2 4.6v2.6c0 2.8-1.8 4-3.9 6c-1.9 1.8-3.1 3-3.1 4.2c.02-.01 0 2 0 2h7v3.1H27.3s-.04-5.17 0-5.2c0-2.8 2.3-4.6 4.5-6.7c1.7-1.7 2.5-2.3 2.5-3.5V7.2c0-1.5-.8-1.9-1.8-1.9c-1 0-1.7.4-1.7 1.9c.02.04 0 3.3 0 3.3h-3.5s.03-3.64 0-3.6z" stroke="none" fill="#fff"/></g></svg>