<?xml version="1.0" standalone="no"?>
<!DOCTYPE svg PUBLIC "-//W3C//DTD SVG 1.1//EN" "http://www.w3.org/Graphics/SVG/1.1/DTD/svg11.dtd">
<svg xmlns="http://www.w3.org/2000/svg" version="1.1" width="62px" height="16.9px" viewBox="0 -4 62 16.9" style="top:-4px">
  <desc>Street Address</desc>
  <defs/>
  <g id="Polygon266721">
    <path d="M 0.8 5.6 C 1.2 6 1.9 6.4 2.7 6.4 C 3.7 6.4 4 5.9 4 5.5 C 4 4.9 3.3 4.7 2.6 4.5 C 1.6 4.2 0.5 4 0.5 2.7 C 0.5 1.7 1.4 1 2.6 1 C 3.5 1 4.3 1.3 4.8 1.9 C 4.8 1.9 4.3 2.5 4.3 2.5 C 3.8 2 3.2 1.8 2.5 1.8 C 1.9 1.8 1.4 2.2 1.4 2.7 C 1.4 3.2 2.1 3.4 2.8 3.6 C 3.8 3.8 4.9 4.1 4.9 5.4 C 4.9 6.3 4.3 7.2 2.7 7.2 C 1.6 7.2 0.8 6.8 0.3 6.3 C 0.3 6.3 0.8 5.6 0.8 5.6 Z M 6 6.1 C 5.98 6.15 6 3.5 6 3.5 L 5.3 3.5 L 5.3 2.8 L 6 2.8 L 6 1.6 L 6.8 1.6 L 6.8 2.8 L 7.7 2.8 L 7.7 3.5 L 6.8 3.5 C 6.8 3.5 6.79 5.97 6.8 6 C 6.8 6.3 6.9 6.5 7.2 6.5 C 7.4 6.5 7.6 6.4 7.6 6.3 C 7.6 6.3 7.9 6.9 7.9 6.9 C 7.7 7.1 7.4 7.2 7 7.2 C 6.3 7.2 6 6.8 6 6.1 Z M 8.6 2.8 L 9.4 2.8 C 9.4 2.8 9.38 3.43 9.4 3.4 C 9.7 3 10.2 2.7 10.8 2.7 C 10.8 2.7 10.8 3.5 10.8 3.5 C 10.7 3.5 10.6 3.5 10.5 3.5 C 10.1 3.5 9.6 3.8 9.4 4.1 C 9.38 4.09 9.4 7.1 9.4 7.1 L 8.6 7.1 L 8.6 2.8 Z M 13.5 2.7 C 14.8 2.7 15.6 3.7 15.6 5 C 15.63 5 15.6 5.2 15.6 5.2 C 15.6 5.2 12.19 5.2 12.2 5.2 C 12.3 5.9 12.8 6.6 13.7 6.6 C 14.1 6.6 14.6 6.4 15 6 C 15 6 15.3 6.6 15.3 6.6 C 14.9 7 14.3 7.2 13.6 7.2 C 12.3 7.2 11.3 6.3 11.3 4.9 C 11.3 3.7 12.2 2.7 13.5 2.7 Z M 12.2 4.6 C 12.2 4.6 14.8 4.6 14.8 4.6 C 14.8 4 14.4 3.3 13.5 3.3 C 12.6 3.3 12.2 4 12.2 4.6 Z M 18.6 2.7 C 19.9 2.7 20.7 3.7 20.7 5 C 20.67 5 20.7 5.2 20.7 5.2 C 20.7 5.2 17.23 5.2 17.2 5.2 C 17.3 5.9 17.8 6.6 18.7 6.6 C 19.2 6.6 19.7 6.4 20 6 C 20 6 20.4 6.6 20.4 6.6 C 19.9 7 19.3 7.2 18.6 7.2 C 17.3 7.2 16.4 6.3 16.4 4.9 C 16.4 3.7 17.3 2.7 18.6 2.7 Z M 17.2 4.6 C 17.2 4.6 19.9 4.6 19.9 4.6 C 19.9 4 19.5 3.3 18.6 3.3 C 17.7 3.3 17.3 4 17.2 4.6 Z M 21.9 6.1 C 21.85 6.15 21.9 3.5 21.9 3.5 L 21.1 3.5 L 21.1 2.8 L 21.9 2.8 L 21.9 1.6 L 22.7 1.6 L 22.7 2.8 L 23.5 2.8 L 23.5 3.5 L 22.7 3.5 C 22.7 3.5 22.66 5.97 22.7 6 C 22.7 6.3 22.8 6.5 23.1 6.5 C 23.3 6.5 23.4 6.4 23.5 6.3 C 23.5 6.3 23.7 6.9 23.7 6.9 C 23.6 7.1 23.3 7.2 22.9 7.2 C 22.2 7.2 21.9 6.8 21.9 6.1 Z M 30.6 5.9 L 27.6 5.9 L 27.2 7.1 L 26.2 7.1 L 28.5 1.1 L 29.7 1.1 L 32.1 7.1 L 31.1 7.1 L 30.6 5.9 Z M 27.9 5.1 L 30.3 5.1 L 29.1 1.9 L 27.9 5.1 Z M 35.9 6.5 C 35.5 6.9 35 7.2 34.4 7.2 C 33.3 7.2 32.5 6.4 32.5 4.9 C 32.5 3.5 33.3 2.7 34.4 2.7 C 35 2.7 35.5 2.9 35.9 3.4 C 35.86 3.39 35.9 1.1 35.9 1.1 L 36.7 1.1 L 36.7 7.1 L 35.9 7.1 C 35.9 7.1 35.86 6.49 35.9 6.5 Z M 35.9 4 C 35.6 3.7 35.1 3.4 34.6 3.4 C 33.8 3.4 33.3 4 33.3 4.9 C 33.3 5.8 33.8 6.5 34.6 6.5 C 35.1 6.5 35.6 6.2 35.9 5.9 C 35.9 5.9 35.9 4 35.9 4 Z M 41.1 6.5 C 40.7 6.9 40.2 7.2 39.6 7.2 C 38.5 7.2 37.7 6.4 37.7 4.9 C 37.7 3.5 38.5 2.7 39.6 2.7 C 40.2 2.7 40.7 2.9 41.1 3.4 C 41.06 3.39 41.1 1.1 41.1 1.1 L 41.9 1.1 L 41.9 7.1 L 41.1 7.1 C 41.1 7.1 41.06 6.49 41.1 6.5 Z M 41.1 4 C 40.8 3.7 40.3 3.4 39.9 3.4 C 39 3.4 38.5 4 38.5 4.9 C 38.5 5.8 39 6.5 39.9 6.5 C 40.3 6.5 40.8 6.2 41.1 5.9 C 41.1 5.9 41.1 4 41.1 4 Z M 43.2 2.8 L 44 2.8 C 44 2.8 43.97 3.43 44 3.4 C 44.3 3 44.8 2.7 45.4 2.7 C 45.4 2.7 45.4 3.5 45.4 3.5 C 45.3 3.5 45.2 3.5 45.1 3.5 C 44.7 3.5 44.2 3.8 44 4.1 C 43.97 4.09 44 7.1 44 7.1 L 43.2 7.1 L 43.2 2.8 Z M 48.1 2.7 C 49.4 2.7 50.2 3.7 50.2 5 C 50.23 5 50.2 5.2 50.2 5.2 C 50.2 5.2 46.79 5.2 46.8 5.2 C 46.9 5.9 47.4 6.6 48.3 6.6 C 48.7 6.6 49.2 6.4 49.6 6 C 49.6 6 49.9 6.6 49.9 6.6 C 49.5 7 48.9 7.2 48.2 7.2 C 46.9 7.2 45.9 6.3 45.9 4.9 C 45.9 3.7 46.8 2.7 48.1 2.7 Z M 46.8 4.6 C 46.8 4.6 49.4 4.6 49.4 4.6 C 49.4 4 49 3.3 48.1 3.3 C 47.2 3.3 46.8 4 46.8 4.6 Z M 51.3 5.9 C 51.6 6.3 52.1 6.6 52.7 6.6 C 53.3 6.6 53.6 6.3 53.6 5.9 C 53.6 5.5 53.2 5.4 52.6 5.2 C 51.9 5.1 51 4.9 51 3.9 C 51 3.2 51.6 2.7 52.6 2.7 C 53.4 2.7 53.9 2.9 54.3 3.3 C 54.3 3.3 53.9 3.8 53.9 3.8 C 53.7 3.5 53.2 3.3 52.7 3.3 C 52.1 3.3 51.8 3.5 51.8 3.9 C 51.8 4.3 52.2 4.4 52.8 4.5 C 53.5 4.7 54.4 4.9 54.4 5.9 C 54.4 6.6 53.8 7.2 52.7 7.2 C 51.9 7.2 51.3 7 50.9 6.5 C 50.9 6.5 51.3 5.9 51.3 5.9 Z M 55.5 5.9 C 55.8 6.3 56.3 6.6 56.9 6.6 C 57.5 6.6 57.9 6.3 57.9 5.9 C 57.9 5.5 57.4 5.4 56.8 5.2 C 56.1 5.1 55.2 4.9 55.2 3.9 C 55.2 3.2 55.8 2.7 56.9 2.7 C 57.6 2.7 58.1 2.9 58.5 3.3 C 58.5 3.3 58.2 3.8 58.2 3.8 C 57.9 3.5 57.4 3.3 56.9 3.3 C 56.3 3.3 56 3.5 56 3.9 C 56 4.3 56.4 4.4 57 4.5 C 57.7 4.7 58.6 4.9 58.6 5.9 C 58.6 6.6 58 7.2 56.9 7.2 C 56.2 7.2 55.5 7 55.1 6.5 C 55.1 6.5 55.5 5.9 55.5 5.9 Z " stroke="none" fill="#000"/>
  </g>
</svg>