<?xml version="1.0" standalone="no"?>
<!DOCTYPE svg PUBLIC "-//W3C//DTD SVG 1.1//EN" "http://www.w3.org/Graphics/SVG/1.1/DTD/svg11.dtd">
<svg xmlns="http://www.w3.org/2000/svg" version="1.1" width="62px" height="16.9px" viewBox="0 -4 62 16.9" style="top:-4px">
  <desc>Lot Size</desc>
  <defs/>
  <g id="Polygon266986">
    <path d="M 0.7 1.1 L 1.6 1.1 L 1.6 6.3 L 4.3 6.3 L 4.3 7.1 L 0.7 7.1 L 0.7 1.1 Z M 4.8 4.9 C 4.8 3.7 5.7 2.7 7 2.7 C 8.4 2.7 9.2 3.7 9.2 4.9 C 9.2 6.2 8.4 7.2 7 7.2 C 5.7 7.2 4.8 6.2 4.8 4.9 Z M 8.4 4.9 C 8.4 4.1 7.9 3.4 7 3.4 C 6.2 3.4 5.7 4.1 5.7 4.9 C 5.7 5.8 6.2 6.5 7 6.5 C 7.9 6.5 8.4 5.8 8.4 4.9 Z M 10.4 6.1 C 10.41 6.15 10.4 3.5 10.4 3.5 L 9.7 3.5 L 9.7 2.8 L 10.4 2.8 L 10.4 1.6 L 11.2 1.6 L 11.2 2.8 L 12.1 2.8 L 12.1 3.5 L 11.2 3.5 C 11.2 3.5 11.22 5.97 11.2 6 C 11.2 6.3 11.4 6.5 11.6 6.5 C 11.8 6.5 12 6.4 12.1 6.3 C 12.1 6.3 12.3 6.9 12.3 6.9 C 12.1 7.1 11.9 7.2 11.4 7.2 C 10.8 7.2 10.4 6.8 10.4 6.1 Z M 15.5 5.6 C 15.9 6 16.5 6.4 17.4 6.4 C 18.4 6.4 18.7 5.9 18.7 5.5 C 18.7 4.9 18 4.7 17.2 4.5 C 16.3 4.2 15.2 4 15.2 2.7 C 15.2 1.7 16 1 17.3 1 C 18.2 1 18.9 1.3 19.5 1.9 C 19.5 1.9 19 2.5 19 2.5 C 18.5 2 17.9 1.8 17.2 1.8 C 16.6 1.8 16.1 2.2 16.1 2.7 C 16.1 3.2 16.7 3.4 17.5 3.6 C 18.5 3.8 19.6 4.1 19.6 5.4 C 19.6 6.3 19 7.2 17.3 7.2 C 16.3 7.2 15.5 6.8 15 6.3 C 15 6.3 15.5 5.6 15.5 5.6 Z M 20.5 1.5 C 20.5 1.2 20.8 1 21 1 C 21.3 1 21.6 1.2 21.6 1.5 C 21.6 1.8 21.3 2 21 2 C 20.8 2 20.5 1.8 20.5 1.5 Z M 20.6 2.8 L 21.4 2.8 L 21.4 7.1 L 20.6 7.1 L 20.6 2.8 Z M 22.5 6.5 L 24.8 3.5 L 22.5 3.5 L 22.5 2.8 L 25.9 2.8 L 25.9 3.4 L 23.6 6.4 L 25.9 6.4 L 25.9 7.1 L 22.5 7.1 L 22.5 6.5 Z M 28.9 2.7 C 30.2 2.7 31 3.7 31 5 C 31.02 5 31 5.2 31 5.2 C 31 5.2 27.58 5.2 27.6 5.2 C 27.6 5.9 28.2 6.6 29.1 6.6 C 29.5 6.6 30 6.4 30.3 6 C 30.3 6 30.7 6.6 30.7 6.6 C 30.3 7 29.7 7.2 29 7.2 C 27.7 7.2 26.7 6.3 26.7 4.9 C 26.7 3.7 27.6 2.7 28.9 2.7 Z M 27.6 4.6 C 27.6 4.6 30.2 4.6 30.2 4.6 C 30.2 4 29.8 3.3 28.9 3.3 C 28 3.3 27.6 4 27.6 4.6 Z " stroke="none" fill="#000"/>
  </g>
</svg>