<?xml version="1.0" standalone="no"?><!DOCTYPE svg PUBLIC "-//W3C//DTD SVG 1.1//EN" "http://www.w3.org/Graphics/SVG/1.1/DTD/svg11.dtd"><svg xmlns="http://www.w3.org/2000/svg" version="1.1" width="88px" height="16.9px" viewBox="0 -4 88 16.9" style="top:-4px"><desc>LISTING AGENTS</desc><defs/><g id="Polygon312896"><path d="m.7 1.1h.9v5.2h2.7v.8H.7v-6zm4.5 0h.9v6h-.9v-6zm2.3 4.5c.4.4 1 .8 1.9.8c1 0 1.3-.5 1.3-.9c0-.6-.7-.8-1.5-1c-.9-.3-2-.5-2-1.8C7.2 1.7 8 1 9.3 1c.9 0 1.6.3 2.2.9l-.5.6c-.5-.5-1.1-.7-1.8-.7c-.7 0-1.1.4-1.1.9c0 .5.6.7 1.4.9c1 .2 2.1.5 2.1 1.8c0 .9-.6 1.8-2.3 1.8c-1 0-1.8-.4-2.3-.9l.5-.7zM14 1.9h-1.9v-.8h4.6v.8h-1.8v5.2h-.9V1.9zm3.6-.8h.9v6h-.9v-6zm3 1.4v4.6h-.9v-6h.9l3.3 4.5V1.1h.9v6h-.9l-3.3-4.6zM28.9 1c1.1 0 1.9.5 2.4 1.2l-.7.4c-.4-.4-1-.8-1.7-.8c-1.2 0-2.2 1-2.2 2.3c0 1.4 1 2.3 2.2 2.3c.7 0 1.2-.3 1.5-.6c.03.03 0-1 0-1h-1.9v-.8h2.8s.03 2.17 0 2.2c-.5.6-1.4 1-2.4 1c-1.7 0-3.1-1.2-3.1-3.1c0-1.9 1.4-3.1 3.1-3.1zm9.5 4.9h-2.9L35 7.1h-1l2.4-6h1.1l2.4 6h-1l-.5-1.2zm-2.7-.8h2.5l-1.3-3.2l-1.2 3.2zM43.1 1c1.1 0 1.8.5 2.3 1.2l-.7.4c-.3-.4-.9-.8-1.6-.8c-1.3 0-2.2 1-2.2 2.3c0 1.4.9 2.3 2.2 2.3c.6 0 1.2-.3 1.5-.6v-1h-1.9v-.8h2.8s-.02 2.17 0 2.2c-.6.6-1.4 1-2.4 1C41.3 7.2 40 6 40 4.1C40 2.2 41.3 1 43.1 1zm3.4.1h4.1v.8h-3.2v1.8h3.1v.7h-3.1v1.9h3.2v.8h-4.1v-6zm6 1.4v4.6h-.9v-6h.9l3.3 4.5V1.1h.9v6h-.9l-3.3-4.6zm6.9-.6h-1.8v-.8h4.6v.8h-1.9v5.2h-.9V1.9zm3.7 3.7c.4.4 1.1.8 1.9.8c1 0 1.3-.5 1.3-.9c0-.6-.7-.8-1.4-1c-1-.3-2.1-.5-2.1-1.8c0-1 .9-1.7 2.1-1.7c1 0 1.7.3 2.2.9l-.5.6c-.5-.5-1.1-.7-1.7-.7c-.7 0-1.2.4-1.2.9c0 .5.7.7 1.4.9c1 .2 2.1.5 2.1 1.8c0 .9-.6 1.8-2.2 1.8c-1.1 0-1.9-.4-2.4-.9l.5-.7z" stroke="none" fill="#3797ef"/></g></svg>