<?xml version="1.0" standalone="no"?><!DOCTYPE svg PUBLIC "-//W3C//DTD SVG 1.1//EN" "http://www.w3.org/Graphics/SVG/1.1/DTD/svg11.dtd"><svg xmlns="http://www.w3.org/2000/svg" version="1.1" width="77px" height="15.9px" viewBox="0 -4 77 15.9" style="top:-4px"><desc>49,136</desc><defs/><g id="Polygon111371"><path d="m50.6 7.2c-.02.01 0 .8 0 .8h-.4s-.03-.78 0-.8c-.9 0-1.6-.4-2.1-.9l.4-.4c.3.4.9.8 1.7.8V4.2c-.9-.2-1.9-.5-1.9-1.6c0-.9.8-1.5 1.9-1.6c-.03.02 0-.8 0-.8h.4s-.02.83 0 .8c.7.1 1.3.4 1.7.9l-.3.3c-.4-.4-.9-.6-1.4-.7v2.3c.9.2 1.9.6 1.9 1.7c0 .7-.5 1.6-1.9 1.7zm-.4-3.5V1.5c-.8 0-1.3.5-1.3 1.1c0 .6.6.8 1.3 1.1zm1.7 1.9c0-.8-.6-1.1-1.3-1.3v2.4c1 0 1.3-.7 1.3-1.1zm4.2-.1h-2.8v-.5l2.6-3.9h.7v3.9h.9v.5h-.9v1.6h-.5V5.5zM53.8 5h2.3V1.6L53.8 5zm5.1 1.1c.3.4.7.6 1.4.6c1.3 0 1.7-1.3 1.7-2.6v-.3c-.2.4-.9 1-1.7 1c-1.1 0-2-.6-2-1.9c0-1 .8-1.9 2.1-1.9c1.6 0 2.2 1.5 2.2 3.1c0 1.6-.7 3.1-2.3 3.1c-.8 0-1.3-.3-1.6-.8l.2-.3zm1.5-4.6c-1 0-1.5.8-1.5 1.4c0 1 .6 1.5 1.5 1.5c.6 0 1.3-.5 1.6-1.1c-.1-.8-.5-1.8-1.6-1.8zM63.3 8c.3-.2.5-.6.5-.8h-.1c-.2 0-.3-.2-.3-.4c0-.2.1-.4.3-.4c.3 0 .5.2.5.6c0 .5-.3 1-.7 1.2l-.2-.2zm2.3-6.2l-.9 1l-.4-.3l1.4-1.4h.4v6h-.5V1.8zm1.9 4.1c.4.5.9.9 1.7.9c.9 0 1.5-.5 1.5-1.3c0-.9-.7-1.2-1.6-1.2h-.5v-.5h.5c.8 0 1.5-.4 1.5-1.2c0-.7-.6-1.1-1.4-1.1c-.7 0-1.2.3-1.6.7l-.3-.3c.4-.5 1-.9 1.9-.9c1.1 0 2 .6 2 1.6c0 .9-.8 1.3-1.3 1.4c.5.1 1.3.5 1.3 1.5c0 1-.7 1.7-2 1.7c-1 0-1.7-.4-2-1l.3-.3zM74.6 1c.8 0 1.3.3 1.6.8l-.3.4c-.3-.4-.6-.7-1.3-.7c-1.3 0-1.8 1.3-1.8 2.6v.3c.3-.4 1-1 1.8-1c1.1 0 1.9.6 1.9 1.9c0 1-.7 1.9-2 1.9c-1.6 0-2.2-1.5-2.2-3.1c0-1.5.6-3.1 2.3-3.1zm-.1 2.9c-.7 0-1.3.4-1.6 1c0 .8.5 1.9 1.6 1.9c1 0 1.5-.8 1.5-1.5c0-1-.6-1.4-1.5-1.4z" stroke="none" fill="#000"/></g></svg>