<?xml version="1.0" standalone="no"?>
<!DOCTYPE svg PUBLIC "-//W3C//DTD SVG 1.1//EN" "http://www.w3.org/Graphics/SVG/1.1/DTD/svg11.dtd">
<svg xmlns="http://www.w3.org/2000/svg" version="1.1" width="58.2px" height="16.9px" viewBox="0 -4 58.2 16.9" style="top:-4px">
  <desc>Agent 1</desc>
  <defs/>
  <g id="Polygon268014">
    <path d="M 0.7 1.1 C 0.7 1.1 3.2 1.11 3.2 1.1 C 4.4 1.1 5.1 2 5.1 3 C 5.1 4 4.4 4.8 3.2 4.8 C 3.2 4.8 1.6 4.8 1.6 4.8 L 1.6 7.1 L 0.7 7.1 L 0.7 1.1 Z M 3.1 1.9 C 3.08 1.9 1.6 1.9 1.6 1.9 L 1.6 4 C 1.6 4 3.08 4.01 3.1 4 C 3.7 4 4.2 3.6 4.2 3 C 4.2 2.3 3.7 1.9 3.1 1.9 Z M 5.9 2.8 L 6.7 2.8 C 6.7 2.8 6.74 3.43 6.7 3.4 C 7.1 3 7.6 2.7 8.2 2.7 C 8.2 2.7 8.2 3.5 8.2 3.5 C 8.1 3.5 8 3.5 7.9 3.5 C 7.5 3.5 6.9 3.8 6.7 4.1 C 6.74 4.09 6.7 7.1 6.7 7.1 L 5.9 7.1 L 5.9 2.8 Z M 8.8 1.5 C 8.8 1.2 9 1 9.3 1 C 9.6 1 9.8 1.2 9.8 1.5 C 9.8 1.8 9.6 2 9.3 2 C 9 2 8.8 1.8 8.8 1.5 Z M 8.9 2.8 L 9.7 2.8 L 9.7 7.1 L 8.9 7.1 L 8.9 2.8 Z M 12.8 2.7 C 13.7 2.7 14.1 3 14.5 3.4 C 14.5 3.4 13.9 3.9 13.9 3.9 C 13.7 3.5 13.3 3.4 12.9 3.4 C 12 3.4 11.5 4 11.5 4.9 C 11.5 5.8 12 6.5 12.9 6.5 C 13.3 6.5 13.7 6.3 13.9 6 C 13.9 6 14.5 6.5 14.5 6.5 C 14.1 6.9 13.7 7.2 12.8 7.2 C 11.5 7.2 10.6 6.2 10.6 4.9 C 10.6 3.6 11.5 2.7 12.8 2.7 Z M 17.2 2.7 C 18.5 2.7 19.3 3.7 19.3 5 C 19.29 5 19.3 5.2 19.3 5.2 C 19.3 5.2 15.85 5.2 15.8 5.2 C 15.9 5.9 16.5 6.6 17.3 6.6 C 17.8 6.6 18.3 6.4 18.6 6 C 18.6 6 19 6.6 19 6.6 C 18.6 7 17.9 7.2 17.2 7.2 C 15.9 7.2 15 6.3 15 4.9 C 15 3.7 15.9 2.7 17.2 2.7 Z M 15.8 4.6 C 15.8 4.6 18.5 4.6 18.5 4.6 C 18.5 4 18.1 3.3 17.2 3.3 C 16.3 3.3 15.9 4 15.8 4.6 Z M 23.9 0.9 L 24.6 0.9 L 22.4 7.3 L 21.8 7.3 L 23.9 0.9 Z M 27.5 5.6 C 27.9 6 28.6 6.4 29.4 6.4 C 30.4 6.4 30.7 5.9 30.7 5.5 C 30.7 4.9 30 4.7 29.3 4.5 C 28.3 4.2 27.2 4 27.2 2.7 C 27.2 1.7 28.1 1 29.3 1 C 30.2 1 31 1.3 31.5 1.9 C 31.5 1.9 31 2.5 31 2.5 C 30.5 2 29.9 1.8 29.2 1.8 C 28.6 1.8 28.1 2.2 28.1 2.7 C 28.1 3.2 28.8 3.4 29.5 3.6 C 30.5 3.8 31.6 4.1 31.6 5.4 C 31.6 6.3 31 7.2 29.4 7.2 C 28.3 7.2 27.5 6.8 27 6.3 C 27 6.3 27.5 5.6 27.5 5.6 Z M 32.6 1.1 L 36.6 1.1 L 36.6 1.9 L 33.5 1.9 L 33.5 3.7 L 36.5 3.7 L 36.5 4.4 L 33.5 4.4 L 33.5 7.1 L 32.6 7.1 L 32.6 1.1 Z " stroke="none" fill="#3797ef"/>
  </g>
</svg>