<?xml version="1.0" standalone="no"?><!DOCTYPE svg PUBLIC "-//W3C//DTD SVG 1.1//EN" "http://www.w3.org/Graphics/SVG/1.1/DTD/svg11.dtd"><svg xmlns="http://www.w3.org/2000/svg" version="1.1" width="22px" height="41.3px" viewBox="0 -8 22 41.3" style="top:-8px"><desc>06</desc><defs/><g id="Polygon64890"><path d="m10.1 5.3v10.1c0 2.5-1.5 3.5-4.1 3.5h-.2c-2.5 0-4-1-4-3.5V5.3c0-2.6 1.5-3.6 4-3.6h.2c2.6 0 4.1 1 4.1 3.6zM5.9 4.2c-.8 0-1.4.3-1.4 1.5v9.2c0 1.2.6 1.6 1.4 1.6c.9 0 1.5-.4 1.5-1.6V5.7c0-1.2-.6-1.5-1.5-1.5zm11.5 2.6V5.5c0-1.2-.4-1.5-1.2-1.5c-.8 0-1.2.3-1.2 1.5v3.4c.3-.4.8-.7 1.9-.7c1.9 0 3.3.9 3.3 3.4v3.9c0 2.5-1.4 3.4-3.9 3.4h-.1c-2.5 0-3.9-.9-3.9-3.4V5.2c0-2.5 1.3-3.5 3.9-3.5c2.6 0 3.9 1 3.9 3.5v1.6h-2.7zM15 12v3.2c0 1.1.4 1.4 1.3 1.4c.8 0 1.3-.3 1.3-1.4V12c0-1.2-.5-1.5-1.3-1.5c-.8 0-1.3.3-1.3 1.5z" stroke="none" fill="#fff"/></g></svg>