<?xml version="1.0" standalone="no"?><!DOCTYPE svg PUBLIC "-//W3C//DTD SVG 1.1//EN" "http://www.w3.org/Graphics/SVG/1.1/DTD/svg11.dtd"><svg xmlns="http://www.w3.org/2000/svg" version="1.1" width="22px" height="41.3px" viewBox="0 -8 22 41.3" style="top:-8px"><desc>03</desc><defs/><g id="Polygon64727"><path d="m10.3 5.3v10.1c0 2.5-1.5 3.5-4 3.5h-.2c-2.5 0-4.1-1-4.1-3.5V5.3c0-2.6 1.6-3.6 4.1-3.6h.2c2.5 0 4 1 4 3.6zM6.2 4.2c-.9 0-1.5.3-1.5 1.5v9.2c0 1.2.6 1.6 1.5 1.6c.9 0 1.4-.4 1.4-1.6V5.7c0-1.2-.5-1.5-1.4-1.5zM18.5 10c1.5.3 1.7 1.5 1.7 2.4v3c0 2.3-1.3 3.5-3.7 3.5h-.7c-2.4 0-3.7-1.2-3.7-3.5c.02-.04 0-2.3 0-2.3h2.7v2c0 1.1.6 1.5 1.3 1.5h.1c.7 0 1.3-.4 1.3-1.5v-2.6c0-.9-.5-1.3-1.2-1.3c.02-.04-2 0-2 0V8.9h1.8c.8 0 1.4-.4 1.4-1.5V5.6c0-1.2-.6-1.6-1.3-1.6h-.2c-.6 0-1.2.4-1.2 1.6c-.04-.03 0 1.6 0 1.6h-2.7s.02-1.92 0-1.9c0-2.6 1.5-3.6 4-3.6h.1c2.5 0 4 1 4 3.6v2c0 1.1-.3 2.5-1.7 2.7z" stroke="none" fill="#fff"/></g></svg>