<?xml version="1.0" standalone="no"?><!DOCTYPE svg PUBLIC "-//W3C//DTD SVG 1.1//EN" "http://www.w3.org/Graphics/SVG/1.1/DTD/svg11.dtd"><svg xmlns="http://www.w3.org/2000/svg" xmlns:xlink="http://www.w3.org/1999/xlink" version="1.1" width="134.3px" height="25.9px" viewBox="0 -8 134.3 25.9" style="top:-8px"><desc/><defs/><g id="Polygon57243"><path d="m36.3 3.9l3.9-2v.4l-3.4 1.8l3.4 1.8v.4l-3.9-2v-.4zm4.5 0l3.9-2v.4l-3.5 1.8l3.5 1.8v.4l-3.9-2v-.4zm5.4-2v5.2h-.5v-6h.5L50 6.2V1.1h.5v6h-.5l-3.8-5.2zm8.7 4.6c-.3.4-.9.7-1.5.7c-.9 0-1.4-.4-1.4-1.4v-3h.5s-.04 2.92 0 2.9c0 .9.4 1.1 1 1.1c.6 0 1.1-.3 1.4-.7c.03-.02 0-3.3 0-3.3h.5v4.3h-.5s.03-.63 0-.6zM62 4.1c0-.6-.2-1-.8-1c-.5 0-1 .3-1.3.7c.01.02 0 3.3 0 3.3h-.5s.04-3.03 0-3c0-.6-.2-1-.8-1c-.5 0-1 .3-1.3.7c.02.02 0 3.3 0 3.3h-.4V2.8h.4s.02.62 0 .6c.2-.3.8-.7 1.4-.7c.7 0 1.1.4 1.2.8c.2-.4.8-.8 1.4-.8c.8 0 1.2.4 1.2 1.3v3.1h-.5s.03-3.03 0-3zm2-3h.4s.02 2.36 0 2.4c.4-.5.9-.8 1.5-.8c1.2 0 2 .9 2 2.2c0 1.4-.8 2.3-2 2.3c-.6 0-1.2-.3-1.5-.8c.02.02 0 .7 0 .7h-.4v-6zm1.9 5.7c.9 0 1.5-.8 1.5-1.9c0-1-.6-1.8-1.5-1.8c-.6 0-1.2.4-1.5.8v2.1c.3.4.9.8 1.5.8zm5-4.1c1.4 0 2.1 1 2.1 2.3v.1s-3.65-.02-3.6 0c0 .9.6 1.7 1.6 1.7c.6 0 1.1-.2 1.5-.6l.2.3c-.4.5-1 .7-1.7.7c-1.2 0-2.2-.9-2.2-2.3c0-1.2.9-2.2 2.1-2.2zm-1.5 2h3.1c0-.7-.5-1.6-1.6-1.6c-1 0-1.5.9-1.5 1.6zm4.8-1.9h.5s-.04.71 0 .7c.3-.5.8-.8 1.4-.8v.5h-.2c-.4 0-1 .4-1.2.7c-.04.04 0 3.2 0 3.2h-.5V2.8zm4.9 2.1c0-1.2.8-2.2 2.1-2.2c1.3 0 2.1 1 2.1 2.2c0 1.3-.8 2.3-2.1 2.3c-1.3 0-2.1-1-2.1-2.3zm3.7 0c0-.9-.6-1.8-1.6-1.8c-1 0-1.6.9-1.6 1.8c0 1 .6 1.9 1.6 1.9c1 0 1.6-.9 1.6-1.9zm1.9-1.7h-.7v-.4h.7s-.03-.43 0-.4c0-.9.4-1.4 1.2-1.4c.2 0 .4.1.5.2l-.1.3c-.1 0-.2-.1-.4-.1c-.5 0-.8.4-.8 1c.04-.03 0 .4 0 .4h.9v.4h-.9v3.9h-.4V3.2zm4.6-2.1h.5v5.5h2.9v.5h-3.4v-6zm4 3.8c0-1.2.8-2.2 2.1-2.2c1.3 0 2.1 1 2.1 2.2c0 1.3-.8 2.3-2.1 2.3c-1.3 0-2.1-1-2.1-2.3zm3.7 0c0-.9-.6-1.8-1.6-1.8c-1 0-1.6.9-1.6 1.8c0 1 .6 1.9 1.6 1.9c1 0 1.6-.9 1.6-1.9zm3.5-2.2c.8 0 1.2.3 1.6.7l-.3.3c-.4-.5-.8-.6-1.2-.6c-1.1 0-1.7.8-1.7 1.8c0 1.1.6 1.9 1.7 1.9c.4 0 .8-.2 1.2-.6l.3.3c-.4.4-.8.7-1.6.7c-1.2 0-2.1-1-2.1-2.3c0-1.2.9-2.2 2.1-2.2zm5.4 3.9c-.4.4-.9.6-1.5.6c-.7 0-1.5-.5-1.5-1.4c0-1 .8-1.5 1.5-1.5c.6 0 1.1.2 1.5.6v-.8c0-.7-.5-1-1.2-1c-.5 0-.9.2-1.3.6l-.3-.3c.4-.5.9-.7 1.7-.7c.9 0 1.6.4 1.6 1.4c-.05-.05 0 3 0 3h-.5v-.5zm0-1.3c-.3-.4-.8-.6-1.3-.6c-.7 0-1.2.5-1.2 1.1c0 .6.5 1 1.2 1c.5 0 1-.1 1.3-.5v-1zm2 1V3.2h-.7v-.4h.7V1.6h.5v1.2h.9v.4h-.9s-.02 3 0 3c0 .4.1.6.4.6c.2 0 .4-.1.5-.2l.2.3c-.2.2-.4.3-.7.3c-.6 0-.9-.3-.9-.9zm2.3-4.6c0-.2.1-.4.3-.4c.2 0 .4.2.4.4c0 .2-.2.3-.4.3c-.2 0-.3-.1-.3-.3zm.1 1.1h.5v4.3h-.5V2.8zm1.7 2.1c0-1.2.8-2.2 2-2.2c1.3 0 2.1 1 2.1 2.2c0 1.3-.8 2.3-2.1 2.3c-1.2 0-2-1-2-2.3zm3.6 0c0-.9-.5-1.8-1.6-1.8c-1 0-1.5.9-1.5 1.8c0 1 .5 1.9 1.5 1.9c1.1 0 1.6-.9 1.6-1.9zm4.7-.7c0-.9-.4-1.1-1.1-1.1c-.5 0-1.1.3-1.4.7c.02.02 0 3.3 0 3.3h-.4V2.8h.4s.02.62 0 .6c.3-.4 1-.7 1.6-.7c.9 0 1.4.4 1.4 1.4c-.05-.03 0 3 0 3h-.5V4.2zm1.8 2c.3.3.8.6 1.4.6c.7 0 1.2-.3 1.2-.8c0-.6-.6-.8-1.2-.9c-.8-.2-1.6-.4-1.6-1.2c0-.7.6-1.2 1.6-1.2c.7 0 1.2.2 1.5.6l-.2.3c-.3-.3-.7-.5-1.3-.5c-.7 0-1.1.3-1.1.7c0 .5.5.7 1.2.8c.7.2 1.5.4 1.5 1.3c0 .7-.5 1.3-1.6 1.3c-.7 0-1.2-.2-1.7-.7l.3-.3zm3.8-.3l3.4-1.8l-3.4-1.8v-.4l3.9 2v.4l-3.9 2v-.4zm4.4 0l3.5-1.8l-3.5-1.8v-.4l4 2v.4l-4 2v-.4z" stroke="none" fill="#000"/><a xlink:href="DBF_Number%20of%20Locations" xlink:show="new" xlink:title="&lt;&lt;Number of Locations&gt;&gt;"><rect style="fill:transparent;" x="35" y="0" width="99" height="7"/></a></g></svg>