<?xml version="1.0" standalone="no"?><!DOCTYPE svg PUBLIC "-//W3C//DTD SVG 1.1//EN" "http://www.w3.org/Graphics/SVG/1.1/DTD/svg11.dtd"><svg xmlns="http://www.w3.org/2000/svg" version="1.1" width="62px" height="16.9px" viewBox="0 -4 62 16.9" style="top:-4px"><desc>State</desc><defs/><g id="Polygon268384"><path d="m.8 5.6c.4.4 1.1.8 1.9.8c1 0 1.3-.5 1.3-.9c0-.6-.7-.8-1.4-1C1.6 4.2.5 4 .5 2.7c0-1 .9-1.7 2.1-1.7c.9 0 1.7.3 2.2.9l-.5.6c-.5-.5-1.1-.7-1.8-.7c-.6 0-1.1.4-1.1.9c0 .5.7.7 1.4.9c1 .2 2.1.5 2.1 1.8c0 .9-.6 1.8-2.2 1.8c-1.1 0-1.9-.4-2.4-.9l.5-.7zm5.2.5c-.02.05 0-2.6 0-2.6h-.7v-.7h.7V1.6h.8v1.2h.9v.7h-.9s-.01 2.47 0 2.5c0 .3.1.5.4.5c.2 0 .4-.1.4-.2l.3.6c-.2.2-.5.3-.9.3c-.7 0-1-.4-1-1.1zm5.3.5c-.4.4-.9.6-1.5.6c-.7 0-1.5-.5-1.5-1.4c0-1 .8-1.4 1.5-1.4c.6 0 1.1.1 1.5.5v-.7c0-.5-.5-.9-1.1-.9c-.5 0-.9.2-1.3.6l-.4-.5c.5-.5 1.1-.7 1.8-.7c1 0 1.8.4 1.8 1.5c-.04-.02 0 2.9 0 2.9h-.8s-.05-.47 0-.5zm0-1.2c-.3-.3-.7-.5-1.2-.5c-.6 0-1 .4-1 .9c0 .5.4.9 1 .9c.5 0 .9-.2 1.2-.5v-.8zm2.2.7c.02.05 0-2.6 0-2.6h-.7v-.7h.7V1.6h.8v1.2h.9v.7h-.9s.03 2.47 0 2.5c0 .3.2.5.5.5c.1 0 .3-.1.4-.2l.2.6c-.2.2-.4.3-.8.3c-.7 0-1.1-.4-1.1-1.1zM18 2.7c1.3 0 2.1 1 2.1 2.3c.03 0 0 .2 0 .2h-3.4c.1.7.6 1.4 1.5 1.4c.4 0 .9-.2 1.3-.6l.3.6c-.4.4-1 .6-1.7.6c-1.3 0-2.3-.9-2.3-2.3c0-1.2.9-2.2 2.2-2.2zm-1.3 1.9h2.6c0-.6-.4-1.3-1.3-1.3c-.9 0-1.3.7-1.3 1.3z" stroke="none" fill="#000"/></g></svg>