<?xml version="1.0" standalone="no"?><!DOCTYPE svg PUBLIC "-//W3C//DTD SVG 1.1//EN" "http://www.w3.org/Graphics/SVG/1.1/DTD/svg11.dtd"><svg xmlns="http://www.w3.org/2000/svg" version="1.1" width="236px" height="16.9px" viewBox="0 -4 236 16.9" style="top:-4px"><desc>16</desc><defs/><g id="Polygon94853"><path d="m1.7 2.3l-1 1l-.5-.5l1.6-1.7h.8v6h-.9V2.3zM6.2 1c.7 0 1.3.3 1.7.7l-.5.7c-.3-.4-.6-.6-1.2-.6c-1.1 0-1.6 1.1-1.6 2.2v.2c.2-.4.9-.9 1.6-.9c1.1 0 2 .7 2 1.9c0 1.1-.8 2-2.2 2c-1.7 0-2.4-1.4-2.4-3.1c0-1.7.9-3.1 2.6-3.1zM6 4.1c-.6 0-1.1.3-1.4.8c0 .7.4 1.5 1.4 1.5c.9 0 1.3-.6 1.3-1.1c0-.8-.6-1.2-1.3-1.2z" stroke="none" fill="#88898a"/></g></svg>