<?xml version="1.0" standalone="no"?><!DOCTYPE svg PUBLIC "-//W3C//DTD SVG 1.1//EN" "http://www.w3.org/Graphics/SVG/1.1/DTD/svg11.dtd"><svg xmlns="http://www.w3.org/2000/svg" version="1.1" width="220.1px" height="17.9px" viewBox="0 -4 220.1 17.9" style="top:-4px"><desc>SUBJECT PROPERTY</desc><defs/><g id="Polygon286655"><path d="m.8 5.6c.4.4 1.1.8 1.9.8c1 0 1.3-.5 1.3-.9c0-.6-.7-.8-1.4-1C1.6 4.2.5 4 .5 2.7c0-1 .9-1.7 2.1-1.7c.9 0 1.7.3 2.2.9l-.5.6c-.5-.5-1.1-.7-1.8-.7c-.6 0-1.1.4-1.1.9c0 .5.7.7 1.4.9c1 .2 2.1.5 2.1 1.8c0 .9-.6 1.8-2.2 1.8c-1.1 0-1.9-.4-2.4-.9l.5-.7zm5.1-4.5h.9s-.01 3.63 0 3.6c0 1.1.6 1.7 1.6 1.7c1.1 0 1.6-.6 1.6-1.7c.03.03 0-3.6 0-3.6h.9s.03 3.65 0 3.7c0 1.4-.8 2.4-2.5 2.4c-1.7 0-2.5-1-2.5-2.4c-.01-.04 0-3.7 0-3.7zm6.3 0h2.8c1.1 0 1.7.7 1.7 1.5c0 .8-.5 1.3-1 1.4c.6.1 1.1.8 1.1 1.5c0 .9-.6 1.6-1.7 1.6h-2.9v-6zm2.6 2.6c.6 0 1-.4 1-.9c0-.5-.4-.9-1-.9h-1.7v1.8s1.73-.05 1.7 0zm.1 2.6c.6 0 1-.3 1-.9c0-.5-.4-1-1-1c-.02.05-1.8 0-1.8 0v1.9s1.78.02 1.8 0zm2.8-.4c.2.3.6.5 1.1.5c.7 0 1.1-.5 1.1-1.2V1.1h.9v4.2c0 1.3-.8 1.9-2 1.9c-.6 0-1.1-.2-1.5-.6l.4-.7zm4.4-4.8h4v.8h-3.2v1.8h3.1v.7h-3.1v1.9h3.2v.8h-4v-6zm4.8 3c0-1.8 1.3-3.1 3-3.1c1.2 0 2 .6 2.4 1.3l-.7.4c-.4-.5-.9-.9-1.7-.9c-1.2 0-2.1 1-2.1 2.3c0 1.4.9 2.3 2.1 2.3c.8 0 1.3-.4 1.7-.9l.7.4c-.4.8-1.2 1.3-2.4 1.3c-1.7 0-3-1.2-3-3.1zm7.7-2.2h-1.9v-.8h4.7v.8h-1.9v5.2h-.9V1.9zm5.8-.8h2.6c1.2 0 1.9.9 1.9 1.9c0 1-.7 1.8-1.9 1.8h-1.7v2.3h-.9v-6zm2.4.8h-1.5v2.1h1.5c.7 0 1.2-.4 1.2-1c0-.7-.5-1.1-1.2-1.1zm4.9 2.9h-1.1v2.3h-.9v-6s2.55.01 2.5 0c1.2 0 2 .7 2 1.9c0 1-.8 1.6-1.5 1.7c-.02.01 1.5 2.4 1.5 2.4h-1l-1.5-2.3zm.4-2.9h-1.5v2.1h1.5c.7 0 1.1-.4 1.1-1c0-.7-.4-1.1-1.1-1.1zM54 1c1.8 0 3 1.3 3 3.1c0 1.8-1.2 3.1-3 3.1c-1.8 0-3.1-1.3-3.1-3.1C50.9 2.3 52.2 1 54 1zm0 .8c-1.3 0-2.1 1-2.1 2.3c0 1.3.8 2.3 2.1 2.3c1.2 0 2.1-1 2.1-2.3c0-1.3-.9-2.3-2.1-2.3zm4-.7s2.52.01 2.5 0c1.2 0 1.9.9 1.9 1.9c0 1-.7 1.8-1.9 1.8h-1.6v2.3h-.9v-6zm2.4.8h-1.5v2.1h1.5c.6 0 1.1-.4 1.1-1c0-.7-.5-1.1-1.1-1.1zm2.9-.8h4v.8h-3.1v1.8h3v.7h-3v1.9h3.1v.8h-4v-6zm7.1 3.7h-1.2v2.3h-.9v-6h2.6c1.1 0 1.9.7 1.9 1.9c0 1-.7 1.6-1.5 1.7l1.5 2.4h-1l-1.4-2.3zm.3-2.9h-1.5v2.1h1.5c.7 0 1.2-.4 1.2-1c0-.7-.5-1.1-1.2-1.1zm4.5 0h-1.9v-.8h4.6v.8h-1.8v5.2h-.9V1.9zm5.3 2.7l-2.3-3.5h1L81 3.8l1.7-2.7h1.1l-2.4 3.5v2.5h-.9V4.6z" stroke="none" fill="#3797ef"/></g></svg>