<?xml version="1.0" standalone="no"?>
<!DOCTYPE svg PUBLIC "-//W3C//DTD SVG 1.1//EN" "http://www.w3.org/Graphics/SVG/1.1/DTD/svg11.dtd">
<svg xmlns="http://www.w3.org/2000/svg" version="1.1" width="155.5px" height="293.9px" viewBox="0 -6 155.5 293.9" style="top:-6px">
  <desc>Lorem Ipsum Lorem Ipsum Lorem Ipsum Lorem Ipsum Lorem Ipsum Lorem Ipsum Lorem Ipsum Lorem Ipsum</desc>
  <defs/>
  <g id="Polygon235129">
    <path d="M 35.7 224.3 L 36.6 224.3 L 36.6 234.1 L 41.7 234.1 L 41.7 234.9 L 35.7 234.9 L 35.7 224.3 Z M 42.7 231.1 C 42.7 228.8 44.1 227 46.3 227 C 48.6 227 50 228.8 50 231.1 C 50 233.3 48.6 235.1 46.3 235.1 C 44.1 235.1 42.7 233.3 42.7 231.1 Z M 49.1 231.1 C 49.1 229.4 48.1 227.8 46.3 227.8 C 44.6 227.8 43.5 229.4 43.5 231.1 C 43.5 232.8 44.6 234.3 46.3 234.3 C 48.1 234.3 49.1 232.8 49.1 231.1 Z M 52 227.2 L 52.8 227.2 C 52.8 227.2 52.83 228.55 52.8 228.5 C 53.5 227.7 54.4 227.1 55.4 227.1 C 55.4 227.1 55.4 228 55.4 228 C 55.3 228 55.2 227.9 55 227.9 C 54.2 227.9 53.2 228.6 52.8 229.3 C 52.83 229.31 52.8 234.9 52.8 234.9 L 52 234.9 L 52 227.2 Z M 60.1 227 C 62.5 227 63.8 228.9 63.8 231.1 C 63.76 231.1 63.8 231.3 63.8 231.3 C 63.8 231.3 57.34 231.33 57.3 231.3 C 57.4 233 58.5 234.4 60.3 234.4 C 61.3 234.4 62.2 234 62.9 233.3 C 62.9 233.3 63.3 233.9 63.3 233.9 C 62.5 234.6 61.6 235.1 60.3 235.1 C 58 235.1 56.4 233.4 56.4 231.1 C 56.4 228.8 58 227 60.1 227 Z M 57.3 230.7 C 57.3 230.7 62.9 230.7 62.9 230.7 C 62.9 229.4 62 227.8 60.1 227.8 C 58.3 227.8 57.4 229.3 57.3 230.7 Z M 74.9 229.5 C 74.9 228.5 74.4 227.8 73.3 227.8 C 72.5 227.8 71.6 228.4 71.1 229.1 C 71.13 229.09 71.1 234.9 71.1 234.9 L 70.3 234.9 C 70.3 234.9 70.29 229.53 70.3 229.5 C 70.3 228.5 69.8 227.8 68.7 227.8 C 67.9 227.8 67 228.4 66.6 229.1 C 66.55 229.1 66.6 234.9 66.6 234.9 L 65.7 234.9 L 65.7 227.2 L 66.6 227.2 C 66.6 227.2 66.55 228.39 66.6 228.4 C 66.9 227.9 67.9 227 69 227 C 70.2 227 70.9 227.7 71 228.5 C 71.5 227.8 72.5 227 73.6 227 C 75 227 75.7 227.8 75.7 229.4 C 75.68 229.37 75.7 234.9 75.7 234.9 L 74.9 234.9 C 74.9 234.9 74.86 229.53 74.9 229.5 Z M 82.1 224.3 L 83 224.3 L 83 234.9 L 82.1 234.9 L 82.1 224.3 Z M 85.4 237.8 L 85.4 227.2 L 86.3 227.2 C 86.3 227.2 86.26 228.45 86.3 228.5 C 86.8 227.7 87.8 227 88.9 227 C 91 227 92.4 228.6 92.4 231.1 C 92.4 233.5 91 235.1 88.9 235.1 C 87.9 235.1 86.9 234.5 86.3 233.7 C 86.26 233.66 86.3 237.8 86.3 237.8 L 85.4 237.8 Z M 88.8 227.8 C 87.7 227.8 86.7 228.4 86.3 229.2 C 86.3 229.2 86.3 232.9 86.3 232.9 C 86.7 233.7 87.7 234.3 88.8 234.3 C 90.5 234.3 91.5 232.9 91.5 231.1 C 91.5 229.2 90.5 227.8 88.8 227.8 Z M 94.2 233.3 C 94.6 233.9 95.5 234.4 96.6 234.4 C 97.9 234.4 98.7 233.8 98.7 232.9 C 98.7 231.9 97.6 231.6 96.5 231.3 C 95.3 231 93.8 230.7 93.8 229.2 C 93.8 228 94.8 227 96.6 227 C 97.9 227 98.8 227.5 99.3 228.2 C 99.3 228.2 98.9 228.8 98.9 228.8 C 98.4 228.1 97.6 227.7 96.6 227.7 C 95.4 227.7 94.6 228.3 94.6 229.1 C 94.6 230 95.6 230.2 96.7 230.5 C 98 230.8 99.5 231.2 99.5 232.8 C 99.5 234.1 98.5 235.1 96.6 235.1 C 95.4 235.1 94.4 234.7 93.7 233.9 C 93.7 233.9 94.2 233.3 94.2 233.3 Z M 106.6 233.8 C 106 234.5 105 235.1 103.9 235.1 C 102.3 235.1 101.5 234.4 101.5 232.6 C 101.46 232.63 101.5 227.2 101.5 227.2 L 102.3 227.2 C 102.3 227.2 102.29 232.44 102.3 232.4 C 102.3 233.9 103 234.3 104.1 234.3 C 105.1 234.3 106.1 233.8 106.6 233.1 C 106.64 233.07 106.6 227.2 106.6 227.2 L 107.5 227.2 L 107.5 234.9 L 106.6 234.9 C 106.6 234.9 106.64 233.77 106.6 233.8 Z M 119 229.5 C 119 228.5 118.6 227.8 117.5 227.8 C 116.6 227.8 115.7 228.4 115.3 229.1 C 115.28 229.09 115.3 234.9 115.3 234.9 L 114.4 234.9 C 114.4 234.9 114.44 229.53 114.4 229.5 C 114.4 228.5 114 227.8 112.9 227.8 C 112.1 227.8 111.2 228.4 110.7 229.1 C 110.7 229.1 110.7 234.9 110.7 234.9 L 109.9 234.9 L 109.9 227.2 L 110.7 227.2 C 110.7 227.2 110.7 228.39 110.7 228.4 C 111 227.9 112.1 227 113.2 227 C 114.4 227 115 227.7 115.2 228.5 C 115.6 227.8 116.7 227 117.7 227 C 119.2 227 119.8 227.8 119.8 229.4 C 119.84 229.37 119.8 234.9 119.8 234.9 L 119 234.9 C 119 234.9 119.01 229.53 119 229.5 Z " stroke="none" fill="#242423"/>
  </g>
  <g id="Polygon235128">
    <path d="M 35.7 192.5 L 36.6 192.5 L 36.6 202.3 L 41.7 202.3 L 41.7 203.1 L 35.7 203.1 L 35.7 192.5 Z M 42.7 199.3 C 42.7 197.1 44.1 195.3 46.3 195.3 C 48.6 195.3 50 197.1 50 199.3 C 50 201.5 48.6 203.3 46.3 203.3 C 44.1 203.3 42.7 201.5 42.7 199.3 Z M 49.1 199.3 C 49.1 197.6 48.1 196 46.3 196 C 44.6 196 43.5 197.6 43.5 199.3 C 43.5 201 44.6 202.6 46.3 202.6 C 48.1 202.6 49.1 201 49.1 199.3 Z M 52 195.5 L 52.8 195.5 C 52.8 195.5 52.83 196.78 52.8 196.8 C 53.5 195.9 54.4 195.3 55.4 195.3 C 55.4 195.3 55.4 196.2 55.4 196.2 C 55.3 196.2 55.2 196.2 55 196.2 C 54.2 196.2 53.2 196.9 52.8 197.5 C 52.83 197.54 52.8 203.1 52.8 203.1 L 52 203.1 L 52 195.5 Z M 60.1 195.3 C 62.5 195.3 63.8 197.1 63.8 199.3 C 63.76 199.34 63.8 199.6 63.8 199.6 C 63.8 199.6 57.34 199.56 57.3 199.6 C 57.4 201.2 58.5 202.6 60.3 202.6 C 61.3 202.6 62.2 202.2 62.9 201.5 C 62.9 201.5 63.3 202.1 63.3 202.1 C 62.5 202.9 61.6 203.3 60.3 203.3 C 58 203.3 56.4 201.7 56.4 199.3 C 56.4 197.1 58 195.3 60.1 195.3 Z M 57.3 198.9 C 57.3 198.9 62.9 198.9 62.9 198.9 C 62.9 197.6 62 196 60.1 196 C 58.3 196 57.4 197.6 57.3 198.9 Z M 74.9 197.8 C 74.9 196.7 74.4 196 73.3 196 C 72.5 196 71.6 196.6 71.1 197.3 C 71.13 197.32 71.1 203.1 71.1 203.1 L 70.3 203.1 C 70.3 203.1 70.29 197.77 70.3 197.8 C 70.3 196.7 69.8 196 68.7 196 C 67.9 196 67 196.6 66.6 197.3 C 66.55 197.34 66.6 203.1 66.6 203.1 L 65.7 203.1 L 65.7 195.5 L 66.6 195.5 C 66.6 195.5 66.55 196.62 66.6 196.6 C 66.9 196.1 67.9 195.3 69 195.3 C 70.2 195.3 70.9 196 71 196.7 C 71.5 196 72.5 195.3 73.6 195.3 C 75 195.3 75.7 196.1 75.7 197.6 C 75.68 197.61 75.7 203.1 75.7 203.1 L 74.9 203.1 C 74.9 203.1 74.86 197.77 74.9 197.8 Z M 82.1 192.5 L 83 192.5 L 83 203.1 L 82.1 203.1 L 82.1 192.5 Z M 85.4 206.1 L 85.4 195.5 L 86.3 195.5 C 86.3 195.5 86.26 196.69 86.3 196.7 C 86.8 195.9 87.8 195.3 88.9 195.3 C 91 195.3 92.4 196.8 92.4 199.3 C 92.4 201.7 91 203.3 88.9 203.3 C 87.9 203.3 86.9 202.8 86.3 201.9 C 86.26 201.9 86.3 206.1 86.3 206.1 L 85.4 206.1 Z M 88.8 196 C 87.7 196 86.7 196.7 86.3 197.4 C 86.3 197.4 86.3 201.2 86.3 201.2 C 86.7 201.9 87.7 202.6 88.8 202.6 C 90.5 202.6 91.5 201.2 91.5 199.3 C 91.5 197.4 90.5 196 88.8 196 Z M 94.2 201.5 C 94.6 202.1 95.5 202.6 96.6 202.6 C 97.9 202.6 98.7 202 98.7 201.1 C 98.7 200.1 97.6 199.8 96.5 199.5 C 95.3 199.2 93.8 198.9 93.8 197.4 C 93.8 196.2 94.8 195.3 96.6 195.3 C 97.9 195.3 98.8 195.8 99.3 196.4 C 99.3 196.4 98.9 197 98.9 197 C 98.4 196.4 97.6 196 96.6 196 C 95.4 196 94.6 196.6 94.6 197.4 C 94.6 198.2 95.6 198.5 96.7 198.7 C 98 199.1 99.5 199.4 99.5 201.1 C 99.5 202.3 98.5 203.3 96.6 203.3 C 95.4 203.3 94.4 203 93.7 202.1 C 93.7 202.1 94.2 201.5 94.2 201.5 Z M 106.6 202 C 106 202.7 105 203.3 103.9 203.3 C 102.3 203.3 101.5 202.6 101.5 200.9 C 101.46 200.87 101.5 195.5 101.5 195.5 L 102.3 195.5 C 102.3 195.5 102.29 200.67 102.3 200.7 C 102.3 202.2 103 202.6 104.1 202.6 C 105.1 202.6 106.1 202 106.6 201.3 C 106.64 201.31 106.6 195.5 106.6 195.5 L 107.5 195.5 L 107.5 203.1 L 106.6 203.1 C 106.6 203.1 106.64 202.01 106.6 202 Z M 119 197.8 C 119 196.7 118.6 196 117.5 196 C 116.6 196 115.7 196.6 115.3 197.3 C 115.28 197.32 115.3 203.1 115.3 203.1 L 114.4 203.1 C 114.4 203.1 114.44 197.77 114.4 197.8 C 114.4 196.7 114 196 112.9 196 C 112.1 196 111.2 196.6 110.7 197.3 C 110.7 197.34 110.7 203.1 110.7 203.1 L 109.9 203.1 L 109.9 195.5 L 110.7 195.5 C 110.7 195.5 110.7 196.62 110.7 196.6 C 111 196.1 112.1 195.3 113.2 195.3 C 114.4 195.3 115 196 115.2 196.7 C 115.6 196 116.7 195.3 117.7 195.3 C 119.2 195.3 119.8 196.1 119.8 197.6 C 119.84 197.61 119.8 203.1 119.8 203.1 L 119 203.1 C 119 203.1 119.01 197.77 119 197.8 Z " stroke="none" fill="#242423"/>
  </g>
  <g id="Polygon235127">
    <path d="M 35.7 160.8 L 36.6 160.8 L 36.6 170.5 L 41.7 170.5 L 41.7 171.4 L 35.7 171.4 L 35.7 160.8 Z M 42.7 167.5 C 42.7 165.3 44.1 163.5 46.3 163.5 C 48.6 163.5 50 165.3 50 167.5 C 50 169.8 48.6 171.6 46.3 171.6 C 44.1 171.6 42.7 169.8 42.7 167.5 Z M 49.1 167.5 C 49.1 165.8 48.1 164.3 46.3 164.3 C 44.6 164.3 43.5 165.8 43.5 167.5 C 43.5 169.2 44.6 170.8 46.3 170.8 C 48.1 170.8 49.1 169.2 49.1 167.5 Z M 52 163.7 L 52.8 163.7 C 52.8 163.7 52.83 165.02 52.8 165 C 53.5 164.2 54.4 163.5 55.4 163.5 C 55.4 163.5 55.4 164.4 55.4 164.4 C 55.3 164.4 55.2 164.4 55 164.4 C 54.2 164.4 53.2 165.1 52.8 165.8 C 52.83 165.78 52.8 171.4 52.8 171.4 L 52 171.4 L 52 163.7 Z M 60.1 163.5 C 62.5 163.5 63.8 165.4 63.8 167.6 C 63.76 167.57 63.8 167.8 63.8 167.8 C 63.8 167.8 57.34 167.8 57.3 167.8 C 57.4 169.5 58.5 170.8 60.3 170.8 C 61.3 170.8 62.2 170.5 62.9 169.8 C 62.9 169.8 63.3 170.3 63.3 170.3 C 62.5 171.1 61.6 171.6 60.3 171.6 C 58 171.6 56.4 169.9 56.4 167.5 C 56.4 165.3 58 163.5 60.1 163.5 Z M 57.3 167.1 C 57.3 167.1 62.9 167.1 62.9 167.1 C 62.9 165.8 62 164.2 60.1 164.2 C 58.3 164.2 57.4 165.8 57.3 167.1 Z M 74.9 166 C 74.9 164.9 74.4 164.3 73.3 164.3 C 72.5 164.3 71.6 164.9 71.1 165.6 C 71.13 165.56 71.1 171.4 71.1 171.4 L 70.3 171.4 C 70.3 171.4 70.29 166 70.3 166 C 70.3 164.9 69.8 164.3 68.7 164.3 C 67.9 164.3 67 164.9 66.6 165.6 C 66.55 165.57 66.6 171.4 66.6 171.4 L 65.7 171.4 L 65.7 163.7 L 66.6 163.7 C 66.6 163.7 66.55 164.86 66.6 164.9 C 66.9 164.4 67.9 163.5 69 163.5 C 70.2 163.5 70.9 164.2 71 165 C 71.5 164.2 72.5 163.5 73.6 163.5 C 75 163.5 75.7 164.3 75.7 165.8 C 75.68 165.84 75.7 171.4 75.7 171.4 L 74.9 171.4 C 74.9 171.4 74.86 166 74.9 166 Z M 82.1 160.8 L 83 160.8 L 83 171.4 L 82.1 171.4 L 82.1 160.8 Z M 85.4 174.3 L 85.4 163.7 L 86.3 163.7 C 86.3 163.7 86.26 164.92 86.3 164.9 C 86.8 164.1 87.8 163.5 88.9 163.5 C 91 163.5 92.4 165.1 92.4 167.5 C 92.4 170 91 171.6 88.9 171.6 C 87.9 171.6 86.9 171 86.3 170.1 C 86.26 170.13 86.3 174.3 86.3 174.3 L 85.4 174.3 Z M 88.8 164.3 C 87.7 164.3 86.7 164.9 86.3 165.6 C 86.3 165.6 86.3 169.4 86.3 169.4 C 86.7 170.1 87.7 170.8 88.8 170.8 C 90.5 170.8 91.5 169.4 91.5 167.5 C 91.5 165.7 90.5 164.3 88.8 164.3 Z M 94.2 169.7 C 94.6 170.4 95.5 170.9 96.6 170.9 C 97.9 170.9 98.7 170.2 98.7 169.3 C 98.7 168.4 97.6 168.1 96.5 167.8 C 95.3 167.5 93.8 167.1 93.8 165.6 C 93.8 164.5 94.8 163.5 96.6 163.5 C 97.9 163.5 98.8 164 99.3 164.7 C 99.3 164.7 98.9 165.2 98.9 165.2 C 98.4 164.6 97.6 164.2 96.6 164.2 C 95.4 164.2 94.6 164.8 94.6 165.6 C 94.6 166.5 95.6 166.7 96.7 167 C 98 167.3 99.5 167.7 99.5 169.3 C 99.5 170.5 98.5 171.6 96.6 171.6 C 95.4 171.6 94.4 171.2 93.7 170.4 C 93.7 170.4 94.2 169.7 94.2 169.7 Z M 106.6 170.2 C 106 170.9 105 171.6 103.9 171.6 C 102.3 171.6 101.5 170.8 101.5 169.1 C 101.46 169.1 101.5 163.7 101.5 163.7 L 102.3 163.7 C 102.3 163.7 102.29 168.91 102.3 168.9 C 102.3 170.4 103 170.8 104.1 170.8 C 105.1 170.8 106.1 170.2 106.6 169.5 C 106.64 169.55 106.6 163.7 106.6 163.7 L 107.5 163.7 L 107.5 171.4 L 106.6 171.4 C 106.6 171.4 106.64 170.24 106.6 170.2 Z M 119 166 C 119 164.9 118.6 164.3 117.5 164.3 C 116.6 164.3 115.7 164.9 115.3 165.6 C 115.28 165.56 115.3 171.4 115.3 171.4 L 114.4 171.4 C 114.4 171.4 114.44 166 114.4 166 C 114.4 164.9 114 164.3 112.9 164.3 C 112.1 164.3 111.2 164.9 110.7 165.6 C 110.7 165.57 110.7 171.4 110.7 171.4 L 109.9 171.4 L 109.9 163.7 L 110.7 163.7 C 110.7 163.7 110.7 164.86 110.7 164.9 C 111 164.4 112.1 163.5 113.2 163.5 C 114.4 163.5 115 164.2 115.2 165 C 115.6 164.2 116.7 163.5 117.7 163.5 C 119.2 163.5 119.8 164.3 119.8 165.8 C 119.84 165.84 119.8 171.4 119.8 171.4 L 119 171.4 C 119 171.4 119.01 166 119 166 Z " stroke="none" fill="#242423"/>
  </g>
  <g id="Polygon235126">
    <path d="M 35.7 129 L 36.6 129 L 36.6 138.8 L 41.7 138.8 L 41.7 139.6 L 35.7 139.6 L 35.7 129 Z M 42.7 135.8 C 42.7 133.5 44.1 131.7 46.3 131.7 C 48.6 131.7 50 133.5 50 135.8 C 50 138 48.6 139.8 46.3 139.8 C 44.1 139.8 42.7 138 42.7 135.8 Z M 49.1 135.8 C 49.1 134.1 48.1 132.5 46.3 132.5 C 44.6 132.5 43.5 134.1 43.5 135.8 C 43.5 137.5 44.6 139.1 46.3 139.1 C 48.1 139.1 49.1 137.5 49.1 135.8 Z M 52 131.9 L 52.8 131.9 C 52.8 131.9 52.83 133.25 52.8 133.3 C 53.5 132.4 54.4 131.8 55.4 131.8 C 55.4 131.8 55.4 132.7 55.4 132.7 C 55.3 132.7 55.2 132.6 55 132.6 C 54.2 132.6 53.2 133.3 52.8 134 C 52.83 134.01 52.8 139.6 52.8 139.6 L 52 139.6 L 52 131.9 Z M 60.1 131.7 C 62.5 131.7 63.8 133.6 63.8 135.8 C 63.76 135.81 63.8 136 63.8 136 C 63.8 136 57.34 136.03 57.3 136 C 57.4 137.7 58.5 139.1 60.3 139.1 C 61.3 139.1 62.2 138.7 62.9 138 C 62.9 138 63.3 138.6 63.3 138.6 C 62.5 139.4 61.6 139.8 60.3 139.8 C 58 139.8 56.4 138.1 56.4 135.8 C 56.4 133.5 58 131.7 60.1 131.7 Z M 57.3 135.4 C 57.3 135.4 62.9 135.4 62.9 135.4 C 62.9 134.1 62 132.5 60.1 132.5 C 58.3 132.5 57.4 134 57.3 135.4 Z M 74.9 134.2 C 74.9 133.2 74.4 132.5 73.3 132.5 C 72.5 132.5 71.6 133.1 71.1 133.8 C 71.13 133.79 71.1 139.6 71.1 139.6 L 70.3 139.6 C 70.3 139.6 70.29 134.24 70.3 134.2 C 70.3 133.2 69.8 132.5 68.7 132.5 C 67.9 132.5 67 133.1 66.6 133.8 C 66.55 133.81 66.6 139.6 66.6 139.6 L 65.7 139.6 L 65.7 131.9 L 66.6 131.9 C 66.6 131.9 66.55 133.09 66.6 133.1 C 66.9 132.6 67.9 131.7 69 131.7 C 70.2 131.7 70.9 132.4 71 133.2 C 71.5 132.5 72.5 131.7 73.6 131.7 C 75 131.7 75.7 132.5 75.7 134.1 C 75.68 134.08 75.7 139.6 75.7 139.6 L 74.9 139.6 C 74.9 139.6 74.86 134.24 74.9 134.2 Z M 82.1 129 L 83 129 L 83 139.6 L 82.1 139.6 L 82.1 129 Z M 85.4 142.5 L 85.4 131.9 L 86.3 131.9 C 86.3 131.9 86.26 133.16 86.3 133.2 C 86.8 132.4 87.8 131.7 88.9 131.7 C 91 131.7 92.4 133.3 92.4 135.8 C 92.4 138.2 91 139.8 88.9 139.8 C 87.9 139.8 86.9 139.2 86.3 138.4 C 86.26 138.37 86.3 142.5 86.3 142.5 L 85.4 142.5 Z M 88.8 132.5 C 87.7 132.5 86.7 133.1 86.3 133.9 C 86.3 133.9 86.3 137.7 86.3 137.7 C 86.7 138.4 87.7 139.1 88.8 139.1 C 90.5 139.1 91.5 137.6 91.5 135.8 C 91.5 133.9 90.5 132.5 88.8 132.5 Z M 94.2 138 C 94.6 138.6 95.5 139.1 96.6 139.1 C 97.9 139.1 98.7 138.5 98.7 137.6 C 98.7 136.6 97.6 136.3 96.5 136 C 95.3 135.7 93.8 135.4 93.8 133.9 C 93.8 132.7 94.8 131.7 96.6 131.7 C 97.9 131.7 98.8 132.3 99.3 132.9 C 99.3 132.9 98.9 133.5 98.9 133.5 C 98.4 132.9 97.6 132.4 96.6 132.4 C 95.4 132.4 94.6 133 94.6 133.8 C 94.6 134.7 95.6 134.9 96.7 135.2 C 98 135.5 99.5 135.9 99.5 137.5 C 99.5 138.8 98.5 139.8 96.6 139.8 C 95.4 139.8 94.4 139.4 93.7 138.6 C 93.7 138.6 94.2 138 94.2 138 Z M 106.6 138.5 C 106 139.2 105 139.8 103.9 139.8 C 102.3 139.8 101.5 139.1 101.5 137.3 C 101.46 137.34 101.5 131.9 101.5 131.9 L 102.3 131.9 C 102.3 131.9 102.29 137.15 102.3 137.1 C 102.3 138.6 103 139.1 104.1 139.1 C 105.1 139.1 106.1 138.5 106.6 137.8 C 106.64 137.78 106.6 131.9 106.6 131.9 L 107.5 131.9 L 107.5 139.6 L 106.6 139.6 C 106.6 139.6 106.64 138.48 106.6 138.5 Z M 119 134.2 C 119 133.2 118.6 132.5 117.5 132.5 C 116.6 132.5 115.7 133.1 115.3 133.8 C 115.28 133.79 115.3 139.6 115.3 139.6 L 114.4 139.6 C 114.4 139.6 114.44 134.24 114.4 134.2 C 114.4 133.2 114 132.5 112.9 132.5 C 112.1 132.5 111.2 133.1 110.7 133.8 C 110.7 133.81 110.7 139.6 110.7 139.6 L 109.9 139.6 L 109.9 131.9 L 110.7 131.9 C 110.7 131.9 110.7 133.09 110.7 133.1 C 111 132.6 112.1 131.7 113.2 131.7 C 114.4 131.7 115 132.4 115.2 133.2 C 115.6 132.5 116.7 131.7 117.7 131.7 C 119.2 131.7 119.8 132.5 119.8 134.1 C 119.84 134.08 119.8 139.6 119.8 139.6 L 119 139.6 C 119 139.6 119.01 134.24 119 134.2 Z " stroke="none" fill="#242423"/>
  </g>
  <g id="Polygon235125">
    <path d="M 35.7 97.2 L 36.6 97.2 L 36.6 107 L 41.7 107 L 41.7 107.8 L 35.7 107.8 L 35.7 97.2 Z M 42.7 104 C 42.7 101.8 44.1 100 46.3 100 C 48.6 100 50 101.8 50 104 C 50 106.2 48.6 108 46.3 108 C 44.1 108 42.7 106.2 42.7 104 Z M 49.1 104 C 49.1 102.3 48.1 100.7 46.3 100.7 C 44.6 100.7 43.5 102.3 43.5 104 C 43.5 105.7 44.6 107.3 46.3 107.3 C 48.1 107.3 49.1 105.7 49.1 104 Z M 52 100.2 L 52.8 100.2 C 52.8 100.2 52.83 101.49 52.8 101.5 C 53.5 100.6 54.4 100 55.4 100 C 55.4 100 55.4 100.9 55.4 100.9 C 55.3 100.9 55.2 100.9 55 100.9 C 54.2 100.9 53.2 101.6 52.8 102.2 C 52.83 102.25 52.8 107.8 52.8 107.8 L 52 107.8 L 52 100.2 Z M 60.1 100 C 62.5 100 63.8 101.8 63.8 104 C 63.76 104.04 63.8 104.3 63.8 104.3 C 63.8 104.3 57.34 104.27 57.3 104.3 C 57.4 105.9 58.5 107.3 60.3 107.3 C 61.3 107.3 62.2 107 62.9 106.3 C 62.9 106.3 63.3 106.8 63.3 106.8 C 62.5 107.6 61.6 108 60.3 108 C 58 108 56.4 106.4 56.4 104 C 56.4 101.8 58 100 60.1 100 Z M 57.3 103.6 C 57.3 103.6 62.9 103.6 62.9 103.6 C 62.9 102.3 62 100.7 60.1 100.7 C 58.3 100.7 57.4 102.3 57.3 103.6 Z M 74.9 102.5 C 74.9 101.4 74.4 100.7 73.3 100.7 C 72.5 100.7 71.6 101.3 71.1 102 C 71.13 102.03 71.1 107.8 71.1 107.8 L 70.3 107.8 C 70.3 107.8 70.29 102.47 70.3 102.5 C 70.3 101.4 69.8 100.7 68.7 100.7 C 67.9 100.7 67 101.3 66.6 102 C 66.55 102.04 66.6 107.8 66.6 107.8 L 65.7 107.8 L 65.7 100.2 L 66.6 100.2 C 66.6 100.2 66.55 101.33 66.6 101.3 C 66.9 100.8 67.9 100 69 100 C 70.2 100 70.9 100.7 71 101.4 C 71.5 100.7 72.5 100 73.6 100 C 75 100 75.7 100.8 75.7 102.3 C 75.68 102.31 75.7 107.8 75.7 107.8 L 74.9 107.8 C 74.9 107.8 74.86 102.47 74.9 102.5 Z M 82.1 97.2 L 83 97.2 L 83 107.8 L 82.1 107.8 L 82.1 97.2 Z M 85.4 110.8 L 85.4 100.2 L 86.3 100.2 C 86.3 100.2 86.26 101.39 86.3 101.4 C 86.8 100.6 87.8 100 88.9 100 C 91 100 92.4 101.5 92.4 104 C 92.4 106.4 91 108 88.9 108 C 87.9 108 86.9 107.5 86.3 106.6 C 86.26 106.6 86.3 110.8 86.3 110.8 L 85.4 110.8 Z M 88.8 100.7 C 87.7 100.7 86.7 101.4 86.3 102.1 C 86.3 102.1 86.3 105.9 86.3 105.9 C 86.7 106.6 87.7 107.3 88.8 107.3 C 90.5 107.3 91.5 105.9 91.5 104 C 91.5 102.1 90.5 100.7 88.8 100.7 Z M 94.2 106.2 C 94.6 106.8 95.5 107.3 96.6 107.3 C 97.9 107.3 98.7 106.7 98.7 105.8 C 98.7 104.8 97.6 104.5 96.5 104.3 C 95.3 103.9 93.8 103.6 93.8 102.1 C 93.8 100.9 94.8 100 96.6 100 C 97.9 100 98.8 100.5 99.3 101.1 C 99.3 101.1 98.9 101.7 98.9 101.7 C 98.4 101.1 97.6 100.7 96.6 100.7 C 95.4 100.7 94.6 101.3 94.6 102.1 C 94.6 102.9 95.6 103.2 96.7 103.4 C 98 103.8 99.5 104.1 99.5 105.8 C 99.5 107 98.5 108 96.6 108 C 95.4 108 94.4 107.7 93.7 106.8 C 93.7 106.8 94.2 106.2 94.2 106.2 Z M 106.6 106.7 C 106 107.4 105 108 103.9 108 C 102.3 108 101.5 107.3 101.5 105.6 C 101.46 105.57 101.5 100.2 101.5 100.2 L 102.3 100.2 C 102.3 100.2 102.29 105.38 102.3 105.4 C 102.3 106.9 103 107.3 104.1 107.3 C 105.1 107.3 106.1 106.7 106.6 106 C 106.64 106.02 106.6 100.2 106.6 100.2 L 107.5 100.2 L 107.5 107.8 L 106.6 107.8 C 106.6 107.8 106.64 106.71 106.6 106.7 Z M 119 102.5 C 119 101.4 118.6 100.7 117.5 100.7 C 116.6 100.7 115.7 101.3 115.3 102 C 115.28 102.03 115.3 107.8 115.3 107.8 L 114.4 107.8 C 114.4 107.8 114.44 102.47 114.4 102.5 C 114.4 101.4 114 100.7 112.9 100.7 C 112.1 100.7 111.2 101.3 110.7 102 C 110.7 102.04 110.7 107.8 110.7 107.8 L 109.9 107.8 L 109.9 100.2 L 110.7 100.2 C 110.7 100.2 110.7 101.33 110.7 101.3 C 111 100.8 112.1 100 113.2 100 C 114.4 100 115 100.7 115.2 101.4 C 115.6 100.7 116.7 100 117.7 100 C 119.2 100 119.8 100.8 119.8 102.3 C 119.84 102.31 119.8 107.8 119.8 107.8 L 119 107.8 C 119 107.8 119.01 102.47 119 102.5 Z " stroke="none" fill="#242423"/>
  </g>
  <g id="Polygon235124">
    <path d="M 35.7 65.5 L 36.6 65.5 L 36.6 75.3 L 41.7 75.3 L 41.7 76.1 L 35.7 76.1 L 35.7 65.5 Z M 42.7 72.2 C 42.7 70 44.1 68.2 46.3 68.2 C 48.6 68.2 50 70 50 72.2 C 50 74.5 48.6 76.3 46.3 76.3 C 44.1 76.3 42.7 74.5 42.7 72.2 Z M 49.1 72.2 C 49.1 70.5 48.1 69 46.3 69 C 44.6 69 43.5 70.5 43.5 72.2 C 43.5 73.9 44.6 75.5 46.3 75.5 C 48.1 75.5 49.1 73.9 49.1 72.2 Z M 52 68.4 L 52.8 68.4 C 52.8 68.4 52.83 69.72 52.8 69.7 C 53.5 68.9 54.4 68.2 55.4 68.2 C 55.4 68.2 55.4 69.2 55.4 69.2 C 55.3 69.1 55.2 69.1 55 69.1 C 54.2 69.1 53.2 69.8 52.8 70.5 C 52.83 70.48 52.8 76.1 52.8 76.1 L 52 76.1 L 52 68.4 Z M 60.1 68.2 C 62.5 68.2 63.8 70.1 63.8 72.3 C 63.76 72.28 63.8 72.5 63.8 72.5 C 63.8 72.5 57.34 72.5 57.3 72.5 C 57.4 74.2 58.5 75.6 60.3 75.6 C 61.3 75.6 62.2 75.2 62.9 74.5 C 62.9 74.5 63.3 75 63.3 75 C 62.5 75.8 61.6 76.3 60.3 76.3 C 58 76.3 56.4 74.6 56.4 72.2 C 56.4 70 58 68.2 60.1 68.2 Z M 57.3 71.9 C 57.3 71.9 62.9 71.9 62.9 71.9 C 62.9 70.5 62 68.9 60.1 68.9 C 58.3 68.9 57.4 70.5 57.3 71.9 Z M 74.9 70.7 C 74.9 69.6 74.4 69 73.3 69 C 72.5 69 71.6 69.6 71.1 70.3 C 71.13 70.26 71.1 76.1 71.1 76.1 L 70.3 76.1 C 70.3 76.1 70.29 70.71 70.3 70.7 C 70.3 69.6 69.8 69 68.7 69 C 67.9 69 67 69.6 66.6 70.3 C 66.55 70.28 66.6 76.1 66.6 76.1 L 65.7 76.1 L 65.7 68.4 L 66.6 68.4 C 66.6 68.4 66.55 69.56 66.6 69.6 C 66.9 69.1 67.9 68.2 69 68.2 C 70.2 68.2 70.9 68.9 71 69.7 C 71.5 68.9 72.5 68.2 73.6 68.2 C 75 68.2 75.7 69 75.7 70.5 C 75.68 70.55 75.7 76.1 75.7 76.1 L 74.9 76.1 C 74.9 76.1 74.86 70.71 74.9 70.7 Z M 82.1 65.5 L 83 65.5 L 83 76.1 L 82.1 76.1 L 82.1 65.5 Z M 85.4 79 L 85.4 68.4 L 86.3 68.4 C 86.3 68.4 86.26 69.63 86.3 69.6 C 86.8 68.8 87.8 68.2 88.9 68.2 C 91 68.2 92.4 69.8 92.4 72.2 C 92.4 74.7 91 76.3 88.9 76.3 C 87.9 76.3 86.9 75.7 86.3 74.8 C 86.26 74.84 86.3 79 86.3 79 L 85.4 79 Z M 88.8 69 C 87.7 69 86.7 69.6 86.3 70.3 C 86.3 70.3 86.3 74.1 86.3 74.1 C 86.7 74.9 87.7 75.5 88.8 75.5 C 90.5 75.5 91.5 74.1 91.5 72.2 C 91.5 70.4 90.5 69 88.8 69 Z M 94.2 74.4 C 94.6 75.1 95.5 75.6 96.6 75.6 C 97.9 75.6 98.7 74.9 98.7 74 C 98.7 73.1 97.6 72.8 96.5 72.5 C 95.3 72.2 93.8 71.8 93.8 70.3 C 93.8 69.2 94.8 68.2 96.6 68.2 C 97.9 68.2 98.8 68.7 99.3 69.4 C 99.3 69.4 98.9 69.9 98.9 69.9 C 98.4 69.3 97.6 68.9 96.6 68.9 C 95.4 68.9 94.6 69.5 94.6 70.3 C 94.6 71.2 95.6 71.4 96.7 71.7 C 98 72 99.5 72.4 99.5 74 C 99.5 75.3 98.5 76.3 96.6 76.3 C 95.4 76.3 94.4 75.9 93.7 75.1 C 93.7 75.1 94.2 74.4 94.2 74.4 Z M 106.6 74.9 C 106 75.6 105 76.3 103.9 76.3 C 102.3 76.3 101.5 75.5 101.5 73.8 C 101.46 73.81 101.5 68.4 101.5 68.4 L 102.3 68.4 C 102.3 68.4 102.29 73.62 102.3 73.6 C 102.3 75.1 103 75.5 104.1 75.5 C 105.1 75.5 106.1 74.9 106.6 74.3 C 106.64 74.25 106.6 68.4 106.6 68.4 L 107.5 68.4 L 107.5 76.1 L 106.6 76.1 C 106.6 76.1 106.64 74.95 106.6 74.9 Z M 119 70.7 C 119 69.6 118.6 69 117.5 69 C 116.6 69 115.7 69.6 115.3 70.3 C 115.28 70.26 115.3 76.1 115.3 76.1 L 114.4 76.1 C 114.4 76.1 114.44 70.71 114.4 70.7 C 114.4 69.6 114 69 112.9 69 C 112.1 69 111.2 69.6 110.7 70.3 C 110.7 70.28 110.7 76.1 110.7 76.1 L 109.9 76.1 L 109.9 68.4 L 110.7 68.4 C 110.7 68.4 110.7 69.56 110.7 69.6 C 111 69.1 112.1 68.2 113.2 68.2 C 114.4 68.2 115 68.9 115.2 69.7 C 115.6 68.9 116.7 68.2 117.7 68.2 C 119.2 68.2 119.8 69 119.8 70.5 C 119.84 70.55 119.8 76.1 119.8 76.1 L 119 76.1 C 119 76.1 119.01 70.71 119 70.7 Z " stroke="none" fill="#242423"/>
  </g>
  <g id="Polygon235123">
    <path d="M 35.7 33.7 L 36.6 33.7 L 36.6 43.5 L 41.7 43.5 L 41.7 44.3 L 35.7 44.3 L 35.7 33.7 Z M 42.7 40.5 C 42.7 38.2 44.1 36.5 46.3 36.5 C 48.6 36.5 50 38.2 50 40.5 C 50 42.7 48.6 44.5 46.3 44.5 C 44.1 44.5 42.7 42.7 42.7 40.5 Z M 49.1 40.5 C 49.1 38.8 48.1 37.2 46.3 37.2 C 44.6 37.2 43.5 38.8 43.5 40.5 C 43.5 42.2 44.6 43.8 46.3 43.8 C 48.1 43.8 49.1 42.2 49.1 40.5 Z M 52 36.6 L 52.8 36.6 C 52.8 36.6 52.83 37.96 52.8 38 C 53.5 37.1 54.4 36.5 55.4 36.5 C 55.4 36.5 55.4 37.4 55.4 37.4 C 55.3 37.4 55.2 37.4 55 37.4 C 54.2 37.4 53.2 38.1 52.8 38.7 C 52.83 38.72 52.8 44.3 52.8 44.3 L 52 44.3 L 52 36.6 Z M 60.1 36.5 C 62.5 36.5 63.8 38.3 63.8 40.5 C 63.76 40.52 63.8 40.7 63.8 40.7 C 63.8 40.7 57.34 40.74 57.3 40.7 C 57.4 42.4 58.5 43.8 60.3 43.8 C 61.3 43.8 62.2 43.4 62.9 42.7 C 62.9 42.7 63.3 43.3 63.3 43.3 C 62.5 44.1 61.6 44.5 60.3 44.5 C 58 44.5 56.4 42.8 56.4 40.5 C 56.4 38.2 58 36.5 60.1 36.5 Z M 57.3 40.1 C 57.3 40.1 62.9 40.1 62.9 40.1 C 62.9 38.8 62 37.2 60.1 37.2 C 58.3 37.2 57.4 38.8 57.3 40.1 Z M 74.9 38.9 C 74.9 37.9 74.4 37.2 73.3 37.2 C 72.5 37.2 71.6 37.8 71.1 38.5 C 71.13 38.5 71.1 44.3 71.1 44.3 L 70.3 44.3 C 70.3 44.3 70.29 38.94 70.3 38.9 C 70.3 37.9 69.8 37.2 68.7 37.2 C 67.9 37.2 67 37.8 66.6 38.5 C 66.55 38.51 66.6 44.3 66.6 44.3 L 65.7 44.3 L 65.7 36.6 L 66.6 36.6 C 66.6 36.6 66.55 37.8 66.6 37.8 C 66.9 37.3 67.9 36.5 69 36.5 C 70.2 36.5 70.9 37.1 71 37.9 C 71.5 37.2 72.5 36.5 73.6 36.5 C 75 36.5 75.7 37.2 75.7 38.8 C 75.68 38.78 75.7 44.3 75.7 44.3 L 74.9 44.3 C 74.9 44.3 74.86 38.94 74.9 38.9 Z M 82.1 33.7 L 83 33.7 L 83 44.3 L 82.1 44.3 L 82.1 33.7 Z M 85.4 47.2 L 85.4 36.6 L 86.3 36.6 C 86.3 36.6 86.26 37.86 86.3 37.9 C 86.8 37.1 87.8 36.5 88.9 36.5 C 91 36.5 92.4 38 92.4 40.5 C 92.4 42.9 91 44.5 88.9 44.5 C 87.9 44.5 86.9 43.9 86.3 43.1 C 86.26 43.07 86.3 47.2 86.3 47.2 L 85.4 47.2 Z M 88.8 37.2 C 87.7 37.2 86.7 37.8 86.3 38.6 C 86.3 38.6 86.3 42.4 86.3 42.4 C 86.7 43.1 87.7 43.8 88.8 43.8 C 90.5 43.8 91.5 42.3 91.5 40.5 C 91.5 38.6 90.5 37.2 88.8 37.2 Z M 94.2 42.7 C 94.6 43.3 95.5 43.8 96.6 43.8 C 97.9 43.8 98.7 43.2 98.7 42.3 C 98.7 41.3 97.6 41 96.5 40.7 C 95.3 40.4 93.8 40.1 93.8 38.6 C 93.8 37.4 94.8 36.5 96.6 36.5 C 97.9 36.5 98.8 37 99.3 37.6 C 99.3 37.6 98.9 38.2 98.9 38.2 C 98.4 37.6 97.6 37.1 96.6 37.1 C 95.4 37.1 94.6 37.7 94.6 38.5 C 94.6 39.4 95.6 39.6 96.7 39.9 C 98 40.2 99.5 40.6 99.5 42.2 C 99.5 43.5 98.5 44.5 96.6 44.5 C 95.4 44.5 94.4 44.1 93.7 43.3 C 93.7 43.3 94.2 42.7 94.2 42.7 Z M 106.6 43.2 C 106 43.9 105 44.5 103.9 44.5 C 102.3 44.5 101.5 43.8 101.5 42 C 101.46 42.04 101.5 36.6 101.5 36.6 L 102.3 36.6 C 102.3 36.6 102.29 41.85 102.3 41.9 C 102.3 43.3 103 43.8 104.1 43.8 C 105.1 43.8 106.1 43.2 106.6 42.5 C 106.64 42.49 106.6 36.6 106.6 36.6 L 107.5 36.6 L 107.5 44.3 L 106.6 44.3 C 106.6 44.3 106.64 43.19 106.6 43.2 Z M 119 38.9 C 119 37.9 118.6 37.2 117.5 37.2 C 116.6 37.2 115.7 37.8 115.3 38.5 C 115.28 38.5 115.3 44.3 115.3 44.3 L 114.4 44.3 C 114.4 44.3 114.44 38.94 114.4 38.9 C 114.4 37.9 114 37.2 112.9 37.2 C 112.1 37.2 111.2 37.8 110.7 38.5 C 110.7 38.51 110.7 44.3 110.7 44.3 L 109.9 44.3 L 109.9 36.6 L 110.7 36.6 C 110.7 36.6 110.7 37.8 110.7 37.8 C 111 37.3 112.1 36.5 113.2 36.5 C 114.4 36.5 115 37.1 115.2 37.9 C 115.6 37.2 116.7 36.5 117.7 36.5 C 119.2 36.5 119.8 37.2 119.8 38.8 C 119.84 38.78 119.8 44.3 119.8 44.3 L 119 44.3 C 119 44.3 119.01 38.94 119 38.9 Z " stroke="none" fill="#242423"/>
  </g>
  <g id="Polygon235122">
    <path d="M 35.7 2 L 36.6 2 L 36.6 11.7 L 41.7 11.7 L 41.7 12.5 L 35.7 12.5 L 35.7 2 Z M 42.7 8.7 C 42.7 6.5 44.1 4.7 46.3 4.7 C 48.6 4.7 50 6.5 50 8.7 C 50 10.9 48.6 12.7 46.3 12.7 C 44.1 12.7 42.7 10.9 42.7 8.7 Z M 49.1 8.7 C 49.1 7 48.1 5.4 46.3 5.4 C 44.6 5.4 43.5 7 43.5 8.7 C 43.5 10.4 44.6 12 46.3 12 C 48.1 12 49.1 10.4 49.1 8.7 Z M 52 4.9 L 52.8 4.9 C 52.8 4.9 52.83 6.19 52.8 6.2 C 53.5 5.3 54.4 4.7 55.4 4.7 C 55.4 4.7 55.4 5.6 55.4 5.6 C 55.3 5.6 55.2 5.6 55 5.6 C 54.2 5.6 53.2 6.3 52.8 7 C 52.83 6.96 52.8 12.5 52.8 12.5 L 52 12.5 L 52 4.9 Z M 60.1 4.7 C 62.5 4.7 63.8 6.5 63.8 8.8 C 63.76 8.75 63.8 9 63.8 9 C 63.8 9 57.34 8.97 57.3 9 C 57.4 10.6 58.5 12 60.3 12 C 61.3 12 62.2 11.7 62.9 11 C 62.9 11 63.3 11.5 63.3 11.5 C 62.5 12.3 61.6 12.7 60.3 12.7 C 58 12.7 56.4 11.1 56.4 8.7 C 56.4 6.5 58 4.7 60.1 4.7 Z M 57.3 8.3 C 57.3 8.3 62.9 8.3 62.9 8.3 C 62.9 7 62 5.4 60.1 5.4 C 58.3 5.4 57.4 7 57.3 8.3 Z M 74.9 7.2 C 74.9 6.1 74.4 5.4 73.3 5.4 C 72.5 5.4 71.6 6 71.1 6.7 C 71.13 6.73 71.1 12.5 71.1 12.5 L 70.3 12.5 C 70.3 12.5 70.29 7.18 70.3 7.2 C 70.3 6.1 69.8 5.4 68.7 5.4 C 67.9 5.4 67 6.1 66.6 6.7 C 66.55 6.75 66.6 12.5 66.6 12.5 L 65.7 12.5 L 65.7 4.9 L 66.6 4.9 C 66.6 4.9 66.55 6.03 66.6 6 C 66.9 5.5 67.9 4.7 69 4.7 C 70.2 4.7 70.9 5.4 71 6.1 C 71.5 5.4 72.5 4.7 73.6 4.7 C 75 4.7 75.7 5.5 75.7 7 C 75.68 7.02 75.7 12.5 75.7 12.5 L 74.9 12.5 C 74.9 12.5 74.86 7.18 74.9 7.2 Z M 82.1 2 L 83 2 L 83 12.5 L 82.1 12.5 L 82.1 2 Z M 85.4 15.5 L 85.4 4.9 L 86.3 4.9 C 86.3 4.9 86.26 6.1 86.3 6.1 C 86.8 5.3 87.8 4.7 88.9 4.7 C 91 4.7 92.4 6.2 92.4 8.7 C 92.4 11.2 91 12.7 88.9 12.7 C 87.9 12.7 86.9 12.2 86.3 11.3 C 86.26 11.31 86.3 15.5 86.3 15.5 L 85.4 15.5 Z M 88.8 5.4 C 87.7 5.4 86.7 6.1 86.3 6.8 C 86.3 6.8 86.3 10.6 86.3 10.6 C 86.7 11.3 87.7 12 88.8 12 C 90.5 12 91.5 10.6 91.5 8.7 C 91.5 6.8 90.5 5.4 88.8 5.4 Z M 94.2 10.9 C 94.6 11.5 95.5 12 96.6 12 C 97.9 12 98.7 11.4 98.7 10.5 C 98.7 9.5 97.6 9.2 96.5 9 C 95.3 8.6 93.8 8.3 93.8 6.8 C 93.8 5.6 94.8 4.7 96.6 4.7 C 97.9 4.7 98.8 5.2 99.3 5.8 C 99.3 5.8 98.9 6.4 98.9 6.4 C 98.4 5.8 97.6 5.4 96.6 5.4 C 95.4 5.4 94.6 6 94.6 6.8 C 94.6 7.6 95.6 7.9 96.7 8.1 C 98 8.5 99.5 8.8 99.5 10.5 C 99.5 11.7 98.5 12.7 96.6 12.7 C 95.4 12.7 94.4 12.4 93.7 11.5 C 93.7 11.5 94.2 10.9 94.2 10.9 Z M 106.6 11.4 C 106 12.1 105 12.7 103.9 12.7 C 102.3 12.7 101.5 12 101.5 10.3 C 101.46 10.28 101.5 4.9 101.5 4.9 L 102.3 4.9 C 102.3 4.9 102.29 10.09 102.3 10.1 C 102.3 11.6 103 12 104.1 12 C 105.1 12 106.1 11.4 106.6 10.7 C 106.64 10.72 106.6 4.9 106.6 4.9 L 107.5 4.9 L 107.5 12.5 L 106.6 12.5 C 106.6 12.5 106.64 11.42 106.6 11.4 Z M 119 7.2 C 119 6.1 118.6 5.4 117.5 5.4 C 116.6 5.4 115.7 6 115.3 6.7 C 115.28 6.73 115.3 12.5 115.3 12.5 L 114.4 12.5 C 114.4 12.5 114.44 7.18 114.4 7.2 C 114.4 6.1 114 5.4 112.9 5.4 C 112.1 5.4 111.2 6.1 110.7 6.7 C 110.7 6.75 110.7 12.5 110.7 12.5 L 109.9 12.5 L 109.9 4.9 L 110.7 4.9 C 110.7 4.9 110.7 6.03 110.7 6 C 111 5.5 112.1 4.7 113.2 4.7 C 114.4 4.7 115 5.4 115.2 6.1 C 115.6 5.4 116.7 4.7 117.7 4.7 C 119.2 4.7 119.8 5.5 119.8 7 C 119.84 7.02 119.8 12.5 119.8 12.5 L 119 12.5 C 119 12.5 119.01 7.18 119 7.2 Z " stroke="none" fill="#242423"/>
  </g>
</svg>