<?xml version="1.0" standalone="no"?>
<!DOCTYPE svg PUBLIC "-//W3C//DTD SVG 1.1//EN" "http://www.w3.org/Graphics/SVG/1.1/DTD/svg11.dtd">
<svg xmlns="http://www.w3.org/2000/svg" version="1.1" width="85px" height="65.9px" viewBox="0 -11 85 65.9" style="top:-11px">
  <desc>Agent 1</desc>
  <defs/>
  <g id="Polygon206999">
    <path d="M 10.3 35.7 C 10.3 35.7 14.72 35.68 14.7 35.7 C 16.9 35.7 18.1 37.2 18.1 38.9 C 18.1 40.7 16.9 42.2 14.7 42.2 C 14.72 42.19 11.8 42.2 11.8 42.2 L 11.8 46.3 L 10.3 46.3 L 10.3 35.7 Z M 14.5 37.1 C 14.51 37.07 11.8 37.1 11.8 37.1 L 11.8 40.8 C 11.8 40.8 14.51 40.79 14.5 40.8 C 15.7 40.8 16.5 40 16.5 38.9 C 16.5 37.8 15.7 37.1 14.5 37.1 Z M 19.7 38.6 L 21.1 38.6 C 21.1 38.6 21.14 39.77 21.1 39.8 C 21.7 39 22.6 38.4 23.6 38.4 C 23.6 38.4 23.6 39.9 23.6 39.9 C 23.5 39.8 23.3 39.8 23.2 39.8 C 22.4 39.8 21.5 40.4 21.1 40.9 C 21.14 40.93 21.1 46.3 21.1 46.3 L 19.7 46.3 L 19.7 38.6 Z M 24.9 36.4 C 24.9 35.9 25.3 35.5 25.8 35.5 C 26.3 35.5 26.7 35.9 26.7 36.4 C 26.7 36.9 26.3 37.3 25.8 37.3 C 25.3 37.3 24.9 36.9 24.9 36.4 Z M 25.1 38.6 L 26.5 38.6 L 26.5 46.3 L 25.1 46.3 L 25.1 38.6 Z M 32.2 38.4 C 33.7 38.4 34.5 39 35.1 39.8 C 35.1 39.8 34.1 40.6 34.1 40.6 C 33.7 40 33 39.7 32.3 39.7 C 30.8 39.7 29.8 40.8 29.8 42.4 C 29.8 44 30.8 45.2 32.3 45.2 C 33 45.2 33.7 44.9 34.1 44.2 C 34.1 44.2 35.1 45.1 35.1 45.1 C 34.5 45.9 33.7 46.5 32.2 46.5 C 29.9 46.5 28.3 44.7 28.3 42.4 C 28.3 40.1 29.9 38.4 32.2 38.4 Z M 40 38.4 C 42.3 38.4 43.8 40.2 43.8 42.6 C 43.75 42.55 43.8 42.9 43.8 42.9 C 43.8 42.9 37.68 42.9 37.7 42.9 C 37.8 44.2 38.7 45.3 40.3 45.3 C 41.1 45.3 42 45 42.6 44.4 C 42.6 44.4 43.2 45.3 43.2 45.3 C 42.5 46.1 41.4 46.5 40.1 46.5 C 37.9 46.5 36.2 44.8 36.2 42.4 C 36.2 40.2 37.8 38.4 40 38.4 Z M 37.7 41.9 C 37.7 41.9 42.4 41.9 42.4 41.9 C 42.3 40.9 41.6 39.6 40 39.6 C 38.5 39.6 37.7 40.8 37.7 41.9 Z M 52.3 35.4 L 53.4 35.4 L 49.6 46.6 L 48.5 46.6 L 52.3 35.4 Z M 58.9 43.6 C 59.6 44.3 60.7 45 62.2 45 C 63.9 45 64.5 44.2 64.5 43.4 C 64.5 42.3 63.3 42 62 41.6 C 60.3 41.2 58.3 40.7 58.3 38.5 C 58.3 36.8 59.9 35.5 62.1 35.5 C 63.7 35.5 65 36 65.9 37 C 65.9 37 65 38.2 65 38.2 C 64.2 37.3 63.1 36.9 61.9 36.9 C 60.8 36.9 60 37.5 60 38.4 C 60 39.4 61.1 39.7 62.4 40 C 64.1 40.5 66.2 41 66.2 43.3 C 66.2 44.9 65 46.5 62.2 46.5 C 60.3 46.5 58.9 45.8 58 44.8 C 58 44.8 58.9 43.6 58.9 43.6 Z M 68 35.7 L 75.1 35.7 L 75.1 37.1 L 69.6 37.1 L 69.6 40.2 L 75 40.2 L 75 41.6 L 69.6 41.6 L 69.6 46.3 L 68 46.3 L 68 35.7 Z " stroke="none" fill="#3797ef"/>
  </g>
  <g id="Polygon206998">
    <path d="M 20 18.3 C 20 18.3 20 21.2 20 21.2 C 20 23.7 18.7 24.9 16.5 25.2 C 16.51 25.21 16.5 27.3 16.5 27.3 L 13.6 27.3 C 13.6 27.3 13.6 25.24 13.6 25.2 C 11.4 24.9 10.1 23.8 10.1 21.2 C 10.13 21.2 10.1 17.8 10.1 17.8 L 13.3 17.8 C 13.3 17.8 13.35 20.75 13.3 20.7 C 13.3 22 14.1 22.5 15 22.5 C 16 22.5 16.7 22 16.7 20.7 C 16.7 20.7 16.7 19.2 16.7 19.2 C 16.7 18.2 16.4 17.7 15.4 17.1 C 15.4 17.1 13.1 15.8 13.1 15.8 C 11.2 14.7 10.1 13.8 10.1 11.8 C 10.1 11.8 10.1 9.2 10.1 9.2 C 10.1 6.7 11.6 5.6 13.6 5.2 C 13.6 5.22 13.6 3.1 13.6 3.1 L 16.5 3.1 C 16.5 3.1 16.51 5.22 16.5 5.2 C 18.5 5.6 19.9 6.8 19.9 9.2 C 19.9 9.17 19.9 12.4 19.9 12.4 L 16.7 12.4 C 16.7 12.4 16.68 9.62 16.7 9.6 C 16.7 8.4 16 7.9 15 7.9 C 14.1 7.9 13.3 8.4 13.3 9.6 C 13.3 9.6 13.3 11 13.3 11 C 13.3 12 13.7 12.4 14.6 13 C 14.6 13 16.9 14.3 16.9 14.3 C 18.8 15.4 20 16.2 20 18.3 Z M 31.9 9.3 C 31.9 9.3 31.9 21.1 31.9 21.1 C 31.9 24.1 30.1 25.3 27.2 25.3 C 27.2 25.3 27 25.3 27 25.3 C 24 25.3 22.2 24.1 22.2 21.1 C 22.2 21.1 22.2 9.3 22.2 9.3 C 22.2 6.3 24 5.1 27 5.1 C 27 5.1 27.2 5.1 27.2 5.1 C 30.1 5.1 31.9 6.3 31.9 9.3 Z M 27.1 8 C 26 8 25.4 8.4 25.4 9.8 C 25.4 9.8 25.4 20.6 25.4 20.6 C 25.4 22 26 22.4 27.1 22.4 C 28.1 22.4 28.8 22 28.8 20.6 C 28.8 20.6 28.8 9.8 28.8 9.8 C 28.8 8.4 28.1 8 27.1 8 Z M 37.6 24.2 C 37.6 26 36.7 27.7 35.7 28.8 C 35.7 28.8 34.5 28.2 34.5 28.2 C 35.2 27.3 35.7 26.1 35.8 25.1 C 35.85 25.09 34.4 25.1 34.4 25.1 L 34.4 21.4 L 37.6 21.4 C 37.6 21.4 37.57 24.25 37.6 24.2 Z M 49.7 9.3 C 49.7 9.3 49.7 21.1 49.7 21.1 C 49.7 24.1 47.9 25.3 45 25.3 C 45 25.3 44.7 25.3 44.7 25.3 C 41.8 25.3 40 24.1 40 21.1 C 40 21.1 40 9.3 40 9.3 C 40 6.3 41.8 5.1 44.7 5.1 C 44.7 5.1 45 5.1 45 5.1 C 47.9 5.1 49.7 6.3 49.7 9.3 Z M 44.9 8 C 43.8 8 43.2 8.4 43.2 9.8 C 43.2 9.8 43.2 20.6 43.2 20.6 C 43.2 22 43.8 22.4 44.9 22.4 C 45.9 22.4 46.5 22 46.5 20.6 C 46.5 20.6 46.5 9.8 46.5 9.8 C 46.5 8.4 45.9 8 44.9 8 Z M 62 9.3 C 62 9.3 62 21.1 62 21.1 C 62 24.1 60.2 25.3 57.3 25.3 C 57.3 25.3 57.1 25.3 57.1 25.3 C 54.1 25.3 52.3 24.1 52.3 21.1 C 52.3 21.1 52.3 9.3 52.3 9.3 C 52.3 6.3 54.1 5.1 57.1 5.1 C 57.1 5.1 57.3 5.1 57.3 5.1 C 60.2 5.1 62 6.3 62 9.3 Z M 57.2 8 C 56.1 8 55.5 8.4 55.5 9.8 C 55.5 9.8 55.5 20.6 55.5 20.6 C 55.5 22 56.1 22.4 57.2 22.4 C 58.2 22.4 58.9 22 58.9 20.6 C 58.9 20.6 58.9 9.8 58.9 9.8 C 58.9 8.4 58.2 8 57.2 8 Z M 74.3 9.3 C 74.3 9.3 74.3 21.1 74.3 21.1 C 74.3 24.1 72.6 25.3 69.6 25.3 C 69.6 25.3 69.4 25.3 69.4 25.3 C 66.4 25.3 64.6 24.1 64.6 21.1 C 64.6 21.1 64.6 9.3 64.6 9.3 C 64.6 6.3 66.4 5.1 69.4 5.1 C 69.4 5.1 69.6 5.1 69.6 5.1 C 72.6 5.1 74.3 6.3 74.3 9.3 Z M 69.5 8 C 68.4 8 67.8 8.4 67.8 9.8 C 67.8 9.8 67.8 20.6 67.8 20.6 C 67.8 22 68.4 22.4 69.5 22.4 C 70.5 22.4 71.2 22 71.2 20.6 C 71.2 20.6 71.2 9.8 71.2 9.8 C 71.2 8.4 70.5 8 69.5 8 Z " stroke="none" fill="#282828"/>
  </g>
</svg>