<?xml version="1.0" standalone="no"?><!DOCTYPE svg PUBLIC "-//W3C//DTD SVG 1.1//EN" "http://www.w3.org/Graphics/SVG/1.1/DTD/svg11.dtd"><svg xmlns="http://www.w3.org/2000/svg" version="1.1" width="51.1px" height="52px" viewBox="0 -11 51.1 52" style="top:-11px"><desc>03</desc><defs/><g id="Polygon284627"><path d="m24.6 7v13.3c0 3.4-2 4.7-5.3 4.7h-.2c-3.4 0-5.4-1.3-5.4-4.7V7c0-3.4 2-4.7 5.4-4.7h.2c3.3 0 5.3 1.3 5.3 4.7zm-5.4-1.5c-1.2 0-1.9.5-1.9 2.1v12.2c0 1.5.7 2 1.9 2c1.2 0 1.9-.5 1.9-2V7.6c0-1.6-.7-2.1-1.9-2.1zm16.3 7.7c2 .4 2.2 2 2.2 3.2v3.9c0 3.1-1.7 4.7-4.9 4.7h-.8c-3.3 0-4.9-1.6-4.9-4.7c-.04.03 0-3 0-3h3.5s.02 2.65 0 2.6c0 1.6.8 2.1 1.7 2.1h.2c.8 0 1.6-.5 1.6-2.1v-3.4c0-1.2-.6-1.7-1.5-1.7c.02-.03-2.7 0-2.7 0v-3s2.4-.02 2.4 0c1.1 0 1.8-.6 1.8-2V7.4c0-1.6-.8-2.1-1.6-2.1h-.3c-.9 0-1.6.5-1.6 2.1c-.05-.03 0 2.1 0 2.1h-3.5s-.04-2.51 0-2.5c0-3.4 1.9-4.7 5.2-4.7h.2c3.2 0 5.2 1.3 5.2 4.7v2.7c0 1.4-.3 3.2-2.2 3.5z" stroke="none" fill="#fff"/></g></svg>