<?xml version="1.0" standalone="no"?><!DOCTYPE svg PUBLIC "-//W3C//DTD SVG 1.1//EN" "http://www.w3.org/Graphics/SVG/1.1/DTD/svg11.dtd"><svg xmlns="http://www.w3.org/2000/svg" version="1.1" width="33.3px" height="21.5px" viewBox="0 -4 33.3 21.5" style="top:-4px"><desc>5-Mile</desc><defs/><g id="Polygon295114"><path d="m1.5 7.3c.6.5 1.3.8 2.2.8c.9 0 1.4-.5 1.4-1.2c0-.7-.5-1.2-1.4-1.2c-.7 0-1.2.2-1.7.7C2.03 6.37.8 6 .8 6V1.5h5.5v1.4H2.5v2c.4-.3 1.1-.6 1.8-.6c1.4 0 2.6.9 2.6 2.6c0 1.7-1.3 2.7-3.2 2.7c-1.4 0-2.4-.4-3.1-1.2l.9-1.1zm6-1.4h2.9v1.3H7.5V5.9zm10.9-2.2l-2.2 5.8h-.8l-2.2-5.8v5.8h-1.8v-8h2.4l2 5l1.9-5h2.4v8h-1.7V3.7zm3-1.8c0-.5.4-.9.9-.9c.5 0 .9.4.9.9c0 .5-.4.9-.9.9c-.5 0-.9-.4-.9-.9zm.2 1.8h1.5v5.8h-1.5V3.7zm2.9-2.2h1.5v8h-1.5v-8zm5.5 2c1.7 0 2.9 1.3 2.9 3.2v.4s-4.29-.03-4.3 0c.1.7.7 1.3 1.7 1.3c.5 0 1.2-.2 1.5-.6l.7 1c-.6.5-1.5.8-2.4.8c-1.8 0-3.1-1.2-3.1-3c0-1.7 1.2-3.1 3-3.1zM28.6 6h2.8c0-.5-.4-1.2-1.4-1.2c-.9 0-1.3.7-1.4 1.2z" stroke="none" fill="#282828"/></g></svg>