<?xml version="1.0" standalone="no"?><!DOCTYPE svg PUBLIC "-//W3C//DTD SVG 1.1//EN" "http://www.w3.org/Graphics/SVG/1.1/DTD/svg11.dtd"><svg xmlns="http://www.w3.org/2000/svg" version="1.1" width="202.3px" height="64.9px" viewBox="0 -4 202.3 64.9" style="top:-4px"><desc>Historic Charleston City Market The City Market is a historic market complex in downtown Charleston Established in</desc><defs/><g id="Polygon107453"><path d="m3.5 55c-.4.4-.9.6-1.5.6c-.7 0-1.5-.5-1.5-1.4c0-1 .8-1.5 1.5-1.5c.6 0 1.1.2 1.5.6v-.8c0-.7-.5-1-1.2-1c-.5 0-.9.2-1.3.6l-.3-.3c.5-.5 1-.7 1.7-.7c.9 0 1.6.4 1.6 1.4c-.04-.05 0 3 0 3h-.5v-.5zm0-1.3c-.3-.4-.8-.6-1.3-.6c-.7 0-1.2.5-1.2 1.1c0 .6.5 1 1.2 1c.5 0 1-.1 1.3-.5v-1zm1.8-2.5h.5v.7c.4-.5.9-.8 1.5-.8v.5h-.3c-.4 0-1 .4-1.2.7v3.2h-.5v-4.3zm4.7-.1c.7 0 1.1.3 1.5.7l-.3.3c-.4-.5-.7-.6-1.2-.6c-1 0-1.7.8-1.7 1.8c0 1.1.7 1.9 1.7 1.9c.5 0 .8-.2 1.2-.6l.3.3c-.4.4-.8.7-1.5.7c-1.3 0-2.2-1-2.2-2.3c0-1.2.9-2.2 2.2-2.2zm5.4 1.4c0-.8-.4-1-1.1-1c-.5 0-1.1.3-1.4.7c.01.02 0 3.3 0 3.3h-.5v-6h.5v2.3c.3-.4 1-.7 1.6-.7c.9 0 1.3.4 1.3 1.3c.05.05 0 3.1 0 3.1h-.4s-.02-2.95 0-3zm1.7-2.4c0-.2.2-.4.4-.4c.1 0 .3.2.3.4c0 .2-.2.3-.3.3c-.2 0-.4-.1-.4-.3zm.1 1.1h.5v4.3h-.5v-4.3zm1.9 3.5c.04-.03 0-3.1 0-3.1h-.7v-.4h.7V50h.5v1.2h.9v.4h-.9s.02 3 0 3c0 .4.2.6.5.6c.2 0 .4-.1.5-.2l.1.3c-.1.2-.3.3-.7.3c-.6 0-.9-.3-.9-.9zm4.2-3.6c1.3 0 2 1 2 2.3c.03-.04 0 .1 0 .1c0 0-3.6-.02-3.6 0c0 .9.7 1.7 1.7 1.7c.5 0 1-.2 1.4-.6l.3.3c-.5.5-1 .7-1.7.7c-1.3 0-2.2-.9-2.2-2.3c0-1.2.9-2.2 2.1-2.2zm-1.6 2h3.2c-.1-.7-.5-1.6-1.6-1.6c-1.1 0-1.6.9-1.6 1.6zm6.6-2c.8 0 1.2.3 1.6.7l-.4.3c-.3-.5-.7-.6-1.2-.6c-1 0-1.6.8-1.6 1.8c0 1.1.6 1.9 1.6 1.9c.5 0 .9-.2 1.2-.6l.4.3c-.4.4-.8.7-1.6.7c-1.3 0-2.1-1-2.1-2.3c0-1.2.8-2.2 2.1-2.2zm2.6 3.6v-3.1h-.7v-.4h.7V50h.5v1.2h.9v.4h-.9s-.03 3 0 3c0 .4.1.6.4.6c.2 0 .4-.1.5-.2l.2.3c-.2.2-.4.3-.7.3c-.6 0-.9-.3-.9-.9zm5.2.2c-.3.4-.9.7-1.5.7c-.9 0-1.4-.4-1.4-1.4v-3h.5s-.04 2.92 0 2.9c0 .9.4 1.1 1 1.1c.6 0 1.1-.3 1.4-.7c.03-.02 0-3.3 0-3.3h.5v4.3h-.5s.03-.63 0-.6zm1.9-3.7h.4s.03.71 0 .7c.4-.5.9-.8 1.5-.8v.5h-.2c-.5 0-1.1.4-1.3.7c.03.04 0 3.2 0 3.2h-.4v-4.3zm5.5 3.8c-.4.4-.9.6-1.5.6c-.7 0-1.5-.5-1.5-1.4c0-1 .8-1.5 1.5-1.5c.6 0 1.1.2 1.5.6v-.8c0-.7-.5-1-1.2-1c-.5 0-.9.2-1.3.6l-.3-.3c.4-.5 1-.7 1.7-.7c.9 0 1.6.4 1.6 1.4c-.05-.05 0 3 0 3h-.5v-.5zm0-1.3c-.3-.4-.8-.6-1.3-.6c-.7 0-1.2.5-1.2 1.1c0 .6.5 1 1.2 1c.5 0 1-.1 1.3-.5v-1zm1.8-4.2h.5v6h-.5v-6zm1.9 0h.4v6h-.4v-6zm2 7.4c.3 0 .5-.2.6-.6c.02.02.4-.8.4-.8l-1.9-4.3h.6l1.5 3.8l1.6-3.8h.5s-2.22 5.26-2.2 5.3c-.3.5-.6.8-1.1.8c-.2 0-.4-.1-.5-.1l.1-.4c.1 0 .3.1.4.1zm3.6-3.8h2.1v.4h-2.1v-.4zm2.9 1.5c.3.3.8.6 1.4.6c.8 0 1.2-.3 1.2-.8c0-.6-.6-.8-1.2-.9c-.7-.2-1.5-.4-1.5-1.2c0-.7.5-1.2 1.5-1.2c.8 0 1.3.2 1.6.6l-.3.3c-.2-.3-.7-.5-1.3-.5c-.7 0-1.1.3-1.1.7c0 .5.6.7 1.2.8c.7.2 1.6.4 1.6 1.3c0 .7-.6 1.3-1.7 1.3c-.7 0-1.2-.2-1.6-.7l.2-.3zm4.1-4.5c0-.2.1-.4.3-.4c.2 0 .4.2.4.4c0 .2-.2.3-.4.3c-.2 0-.3-.1-.3-.3zm.1 1.1h.5v4.3h-.5v-4.3zm2.1 5.1c.4.4.8.6 1.4.6c.8 0 1.5-.4 1.5-1.4v-.7c-.3.4-.8.8-1.5.8c-1.1 0-1.9-.9-1.9-2.3c0-1.3.8-2.2 1.9-2.2c.6 0 1.2.3 1.5.8c.03-.04 0-.7 0-.7h.5v4.3c0 1.3-.9 1.8-2 1.8c-.7 0-1.2-.2-1.7-.7l.3-.3zm2.9-4c-.2-.5-.8-.8-1.4-.8c-1 0-1.5.8-1.5 1.8c0 1.1.5 1.9 1.5 1.9c.6 0 1.2-.4 1.4-.8v-2.1zm4.8.3c0-.9-.4-1.1-1.1-1.1c-.5 0-1.1.3-1.4.7c.03.02 0 3.3 0 3.3h-.4v-4.3h.4s.03.62 0 .6c.3-.4 1-.7 1.6-.7c.9 0 1.4.4 1.4 1.4c-.04-.03 0 3 0 3h-.5v-2.9zm1.7-2.5c0-.2.2-.4.4-.4c.2 0 .3.2.3.4c0 .2-.1.3-.3.3c-.2 0-.4-.1-.4-.3zm.1 1.1h.5v4.3h-.5v-4.3zm2 .4h-.7v-.4h.7s.02-.43 0-.4c0-.9.5-1.4 1.2-1.4c.2 0 .4.1.6.2l-.2.3c-.1 0-.2-.1-.4-.1c-.5 0-.7.4-.7 1v.4h.9v.4h-.9v3.9h-.5v-3.9zm2.1-1.5c0-.2.2-.4.4-.4c.2 0 .3.2.3.4c0 .2-.1.3-.3.3c-.2 0-.4-.1-.4-.3zm.2 1.1h.4v4.3h-.4v-4.3zm3.6-.1c.8 0 1.2.3 1.6.7l-.3.3c-.4-.5-.8-.6-1.2-.6c-1 0-1.7.8-1.7 1.8c0 1.1.7 1.9 1.7 1.9c.4 0 .8-.2 1.2-.6l.3.3c-.4.4-.8.7-1.6.7c-1.2 0-2.1-1-2.1-2.3c0-1.2.9-2.2 2.1-2.2zm5.3 3.9c-.4.4-.9.6-1.5.6c-.7 0-1.5-.5-1.5-1.4c0-1 .8-1.5 1.5-1.5c.6 0 1.1.2 1.5.6v-.8c0-.7-.5-1-1.2-1c-.5 0-.9.2-1.3.6l-.3-.3c.5-.5 1-.7 1.7-.7c.9 0 1.6.4 1.6 1.4c-.04-.05 0 3 0 3h-.5v-.5zm0-1.3c-.3-.4-.8-.6-1.3-.6c-.7 0-1.2.5-1.2 1.1c0 .6.5 1 1.2 1c.5 0 1-.1 1.3-.5v-1zm4.8-1.1c0-.9-.5-1.1-1.1-1.1c-.5 0-1.1.3-1.4.7v3.3h-.5v-4.3h.5v.6c.3-.4.9-.7 1.6-.7c.8 0 1.3.4 1.3 1.4c.03-.03 0 3 0 3h-.4s-.03-2.92 0-2.9zm1.9 2.1v-3.1h-.7v-.4h.7V50h.5v1.2h.9v.4h-.9s-.03 3 0 3c0 .4.1.6.4.6c.2 0 .4-.1.5-.2l.2.3c-.2.2-.4.3-.8.3c-.5 0-.8-.3-.8-.9zm9.6-4.5l-2.1 5.3h-.2l-2.2-5.3v5.3h-.6v-6h.8l2.1 5l2-5h.8v6h-.6v-5.3zm4.7 4.8c-.4.4-.9.6-1.5.6c-.7 0-1.5-.5-1.5-1.4c0-1 .8-1.5 1.5-1.5c.6 0 1.1.2 1.5.6v-.8c0-.7-.5-1-1.2-1c-.5 0-.9.2-1.3.6l-.3-.3c.5-.5 1-.7 1.7-.7c.9 0 1.6.4 1.6 1.4c-.03-.05 0 3 0 3h-.5v-.5zm0-1.3c-.3-.4-.8-.6-1.3-.6c-.7 0-1.2.5-1.2 1.1c0 .6.5 1 1.2 1c.5 0 1-.1 1.3-.5v-1zm1.8-2.5h.5v.7c.4-.5.9-.8 1.5-.8v.5h-.3c-.4 0-1 .4-1.2.7v3.2h-.5v-4.3zm4.1 2.2l-.8.8v1.3h-.5v-6h.5v4.1l2.5-2.4h.7l-2.1 1.9l2 2.4h-.6l-1.7-2.1zm4.8-2.3c1.3 0 2.1 1 2.1 2.3c-.04-.04 0 .1 0 .1c0 0-3.68-.02-3.7 0c.1.9.7 1.7 1.7 1.7c.6 0 1.1-.2 1.4-.6l.3.3c-.4.5-1 .7-1.7.7c-1.3 0-2.2-.9-2.2-2.3c0-1.2.9-2.2 2.1-2.2zm-1.6 2h3.2c0-.7-.5-1.6-1.6-1.6c-1 0-1.5.9-1.6 1.6zm4.9 1.6c-.04-.03 0-3.1 0-3.1h-.8v-.4h.8V50h.4v1.2h.9v.4h-.9s.04 3 0 3c0 .4.2.6.5.6c.2 0 .4-.1.5-.2l.2.3c-.2.2-.4.3-.8.3c-.6 0-.8-.3-.8-.9zm8.8-2h-3.8v2.8h-.5v-6h.5v2.7h3.8v-2.7h.6v6h-.6v-2.8zm4.7 2.3c-.4.4-.9.6-1.5.6c-.7 0-1.5-.5-1.5-1.4c0-1 .8-1.5 1.5-1.5c.6 0 1.1.2 1.5.6v-.8c0-.7-.5-1-1.2-1c-.5 0-.9.2-1.3.6l-.3-.3c.5-.5 1-.7 1.7-.7c.9 0 1.6.4 1.6 1.4c-.04-.05 0 3 0 3h-.5v-.5zm0-1.3c-.3-.4-.8-.6-1.3-.6c-.7 0-1.2.5-1.2 1.1c0 .6.5 1 1.2 1c.5 0 1-.1 1.3-.5v-1zm1.8-4.2h.5v6h-.5v-6zm1.9 0h.4v6h-.4v-6zm2.1 5.3c.2 0 .4.2.4.4c0 .2-.2.4-.4.4c-.3 0-.4-.2-.4-.4c0-.2.1-.4.4-.4z" stroke="none" fill="#000"/></g><g id="Polygon107452"><path d="m.8 43.9c.02-.03 0-3.1 0-3.1h-.7v-.4h.7v-1.2h.5v1.2h.9v.4h-.9v3c0 .4.1.6.4.6c.3 0 .4-.1.5-.2l.2.3c-.2.2-.4.3-.7.3c-.6 0-.9-.3-.9-.9zM6 41.7c0-.8-.4-1-1-1c-.6 0-1.1.3-1.4.7c-.02.02 0 3.3 0 3.3h-.5v-6h.5s-.02 2.32 0 2.3c.3-.4.9-.7 1.5-.7c.9 0 1.4.4 1.4 1.3c.02.05 0 3.1 0 3.1h-.5s.05-2.95 0-3zm3.7-1.4c1.4 0 2.1 1 2.1 2.3c-.02-.04 0 .1 0 .1c0 0-3.66-.02-3.7 0c.1.9.7 1.7 1.7 1.7c.6 0 1.1-.2 1.5-.6l.2.3c-.4.5-1 .7-1.7.7c-1.3 0-2.2-.9-2.2-2.3c0-1.2.9-2.2 2.1-2.2zm-1.6 2h3.2c0-.7-.5-1.6-1.6-1.6c-1 0-1.5.9-1.6 1.6zm14.7-.6c0-.6-.3-1-.9-1c-.5 0-1 .3-1.3.7c.03.02 0 3.3 0 3.3h-.4s-.04-3.03 0-3c0-.6-.3-1-.9-1c-.5 0-1 .3-1.3.7c.04.02 0 3.3 0 3.3h-.4v-4.3h.4s.04.62 0 .6c.2-.3.8-.7 1.4-.7c.7 0 1.1.4 1.2.8c.2-.4.8-.8 1.4-.8c.8 0 1.2.4 1.2 1.3c.02-.02 0 3.1 0 3.1h-.4s-.05-3.03 0-3zm4.5 2.5c-.3.4-.8.6-1.4.6c-.8 0-1.5-.5-1.5-1.4c0-1 .7-1.5 1.5-1.5c.6 0 1.1.2 1.4.6v-.8c0-.7-.5-1-1.1-1c-.6 0-1 .2-1.4.6l-.2-.3c.4-.5.9-.7 1.6-.7c.9 0 1.6.4 1.6 1.4c.02-.05 0 3 0 3h-.5s.05-.5 0-.5zm0-1.3c-.3-.4-.7-.6-1.3-.6c-.7 0-1.2.5-1.2 1.1c0 .6.5 1 1.2 1c.6 0 1-.1 1.3-.5v-1zm1.9-2.5h.5s-.05.71 0 .7c.3-.5.8-.8 1.4-.8v.5h-.2c-.5 0-1 .4-1.2.7c-.05.04 0 3.2 0 3.2h-.5v-4.3zm4 2.2l-.8.8v1.3h-.5v-6h.5v4.1l2.6-2.4h.6l-2 1.9l2 2.4h-.6l-1.8-2.1zm4.8-2.3c1.4 0 2.1 1 2.1 2.3v.1s-3.63-.02-3.6 0c0 .9.6 1.7 1.7 1.7c.5 0 1-.2 1.4-.6l.2.3c-.4.5-.9.7-1.7.7c-1.2 0-2.1-.9-2.1-2.3c0-1.2.8-2.2 2-2.2zm-1.5 2h3.1c0-.7-.5-1.6-1.6-1.6c-1 0-1.5.9-1.5 1.6zm4.8 1.6v-3.1h-.7v-.4h.7v-1.2h.5v1.2h.9v.4h-.9s-.02 3 0 3c0 .4.1.6.4.6c.2 0 .4-.1.5-.2l.2.3c-.2.2-.4.3-.7.3c-.6 0-.9-.3-.9-.9zm6.9-.1c.3.3.8.6 1.4.6c.7 0 1.1-.3 1.1-.8c0-.6-.5-.8-1.2-.9c-.7-.2-1.5-.4-1.5-1.2c0-.7.6-1.2 1.5-1.2c.8 0 1.3.2 1.6.6l-.3.3c-.2-.3-.7-.5-1.3-.5c-.6 0-1 .3-1 .7c0 .5.5.7 1.1.8c.8.2 1.6.4 1.6 1.3c0 .7-.5 1.3-1.6 1.3c-.7 0-1.3-.2-1.7-.7l.3-.3zm4.2.1v-3.1h-.7v-.4h.7v-1.2h.5v1.2h.9v.4h-.9v3c0 .4.1.6.4.6c.2 0 .4-.1.5-.2l.2.3c-.2.2-.4.3-.7.3c-.6 0-.9-.3-.9-.9zm2.3-3.5h.5s-.03.71 0 .7c.3-.5.8-.8 1.4-.8v.5h-.2c-.4 0-1 .4-1.2.7c-.03.04 0 3.2 0 3.2h-.5v-4.3zm4.6-.1c1.3 0 2.1 1 2.1 2.3c-.03-.04 0 .1 0 .1c0 0-3.67-.02-3.7 0c.1.9.7 1.7 1.7 1.7c.6 0 1.1-.2 1.5-.6l.2.3c-.4.5-1 .7-1.7.7c-1.3 0-2.2-.9-2.2-2.3c0-1.2.9-2.2 2.1-2.2zm-1.6 2h3.2c0-.7-.5-1.6-1.6-1.6c-1 0-1.5.9-1.6 1.6zm4.9 1.6c-.03-.03 0-3.1 0-3.1h-.7v-.4h.7v-1.2h.4v1.2h.9v.4h-.9s.05 3 0 3c0 .4.2.6.5.6c.2 0 .4-.1.5-.2l.2.3c-.2.2-.4.3-.8.3c-.5 0-.8-.3-.8-.9zm4.1-3.6c.8 0 1.2.3 1.6.7l-.4.3c-.3-.5-.7-.6-1.1-.6c-1.1 0-1.7.8-1.7 1.8c0 1.1.6 1.9 1.7 1.9c.4 0 .8-.2 1.1-.6l.4.3c-.4.4-.8.7-1.6.7c-1.2 0-2.1-1-2.1-2.3c0-1.2.9-2.2 2.1-2.2zm5.5 1.4c0-.8-.5-1-1.1-1c-.6 0-1.1.3-1.4.7c-.01.02 0 3.3 0 3.3h-.5v-6h.5v2.3c.3-.4.9-.7 1.6-.7c.8 0 1.3.4 1.3 1.3c.02.05 0 3.1 0 3.1h-.4s-.04-2.95 0-3zm3.6-1.4c1.4 0 2.1 1 2.1 2.3v.1s-3.65-.02-3.6 0c0 .9.6 1.7 1.6 1.7c.6 0 1.1-.2 1.5-.6l.2.3c-.4.5-1 .7-1.7.7c-1.3 0-2.2-.9-2.2-2.3c0-1.2.9-2.2 2.1-2.2zm-1.5 2h3.1c0-.7-.5-1.6-1.6-1.6c-1 0-1.5.9-1.5 1.6zm4.6 1.5c.3.3.8.6 1.4.6c.7 0 1.2-.3 1.2-.8c0-.6-.6-.8-1.3-.9c-.7-.2-1.5-.4-1.5-1.2c0-.7.6-1.2 1.6-1.2c.7 0 1.2.2 1.5.6l-.2.3c-.3-.3-.7-.5-1.3-.5c-.7 0-1.1.3-1.1.7c0 .5.5.7 1.1.8c.8.2 1.6.4 1.6 1.3c0 .7-.5 1.3-1.6 1.3c-.7 0-1.2-.2-1.7-.7l.3-.3zm9-3h-.7v-.4h.7s-.02-.43 0-.4c0-.9.4-1.4 1.2-1.4c.2 0 .4.1.5.2l-.1.3c-.1 0-.2-.1-.4-.1c-.5 0-.8.4-.8 1c.05-.03 0 .4 0 .4h.9v.4h-.9v3.9h-.4v-3.9zm1.9 1.7c0-1.2.8-2.2 2.1-2.2c1.2 0 2.1 1 2.1 2.2c0 1.3-.9 2.3-2.1 2.3c-1.3 0-2.1-1-2.1-2.3zm3.6 0c0-.9-.5-1.8-1.5-1.8c-1.1 0-1.6.9-1.6 1.8c0 1 .5 1.9 1.6 1.9c1 0 1.5-.9 1.5-1.9zm1.7-2.1h.4s.04.71 0 .7c.4-.5.9-.8 1.5-.8v.5h-.2c-.5 0-1.1.4-1.3.7c.04.04 0 3.2 0 3.2h-.4v-4.3zm7.6.4h-.8v-.4h.8s-.04-.43 0-.4c0-.9.4-1.4 1.1-1.4c.3 0 .5.1.6.2l-.1.3c-.1 0-.3-.1-.4-.1c-.5 0-.8.4-.8 1c.03-.03 0 .4 0 .4h.9v.4h-.9v3.9h-.4v-3.9zm1.9 1.7c0-1.2.8-2.2 2-2.2c1.3 0 2.1 1 2.1 2.2c0 1.3-.8 2.3-2.1 2.3c-1.2 0-2-1-2-2.3zm3.6 0c0-.9-.5-1.8-1.6-1.8c-1 0-1.5.9-1.5 1.8c0 1 .5 1.9 1.5 1.9c1.1 0 1.6-.9 1.6-1.9zm4.6 1.6c-.4.4-.9.7-1.6.7c-.9 0-1.3-.4-1.3-1.4c-.05.02 0-3 0-3h.4s.02 2.92 0 2.9c0 .9.4 1.1 1.1 1.1c.5 0 1.1-.3 1.4-.7c-.01-.02 0-3.3 0-3.3h.5v4.3h-.5v-.6zm1.8-3.7h.5v.7c.4-.5.9-.8 1.5-.8v.5h-.3c-.4 0-1 .4-1.2.7v3.2h-.5v-4.3zm9.3-.1c.8 0 1.2.3 1.6.7l-.4.3c-.3-.5-.7-.6-1.1-.6c-1.1 0-1.7.8-1.7 1.8c0 1.1.6 1.9 1.7 1.9c.4 0 .8-.2 1.1-.6l.4.3c-.4.4-.8.7-1.6.7c-1.3 0-2.1-1-2.1-2.3c0-1.2.8-2.2 2.1-2.2zm2.4-1c0-.2.2-.4.4-.4c.2 0 .3.2.3.4c0 .2-.1.3-.3.3c-.2 0-.4-.1-.4-.3zm.1 1.1h.5v4.3h-.5v-4.3zm1.9 3.5c.05-.03 0-3.1 0-3.1h-.7v-.4h.7v-1.2h.5v1.2h.9v.4h-.9s.02 3 0 3c0 .4.2.6.5.6c.2 0 .4-.1.5-.2l.1.3c-.1.2-.3.3-.7.3c-.6 0-.9-.3-.9-.9zm2.5 2.2c.3 0 .5-.2.7-.6c-.03.02.3-.8.3-.8l-1.8-4.3h.5l1.6 3.8l1.5-3.8h.6s-2.27 5.26-2.3 5.3c-.2.5-.6.8-1.1.8c-.1 0-.3-.1-.4-.1v-.4c.1 0 .3.1.4.1zm8.8-7.4h.4s.03 2.36 0 2.4c.4-.5.9-.8 1.5-.8c1.2 0 2 .9 2 2.2c0 1.4-.8 2.3-2 2.3c-.6 0-1.2-.3-1.5-.8c.03.02 0 .7 0 .7h-.4v-6zm1.9 5.7c.9 0 1.5-.8 1.5-1.9c0-1-.6-1.8-1.5-1.8c-.6 0-1.2.4-1.5.8v2.1c.3.4.9.8 1.5.8zm3.1-5.7h.5v6h-.5v-6zm1.6 3.8c0-1.2.8-2.2 2.1-2.2c1.3 0 2.1 1 2.1 2.2c0 1.3-.8 2.3-2.1 2.3c-1.3 0-2.1-1-2.1-2.3zm3.7 0c0-.9-.6-1.8-1.6-1.8c-1 0-1.6.9-1.6 1.8c0 1 .6 1.9 1.6 1.9c1 0 1.6-.9 1.6-1.9zm3.5-2.2c.7 0 1.1.3 1.5.7l-.3.3c-.4-.5-.7-.6-1.2-.6c-1 0-1.7.8-1.7 1.8c0 1.1.7 1.9 1.7 1.9c.5 0 .8-.2 1.2-.6l.3.3c-.4.4-.8.7-1.5.7c-1.3 0-2.2-1-2.2-2.3c0-1.2.9-2.2 2.2-2.2zm3.7 2.3l-.8.8v1.3h-.5v-6h.5v4.1l2.6-2.4h.6l-2 1.9l2 2.4h-.6l-1.8-2.1zm3.1 1.2c.3.3.8.6 1.4.6c.7 0 1.1-.3 1.1-.8c0-.6-.6-.8-1.2-.9c-.7-.2-1.5-.4-1.5-1.2c0-.7.6-1.2 1.5-1.2c.8 0 1.3.2 1.6.6l-.3.3c-.2-.3-.7-.5-1.3-.5c-.6 0-1 .3-1 .7c0 .5.5.7 1.1.8c.8.2 1.6.4 1.6 1.3c0 .7-.5 1.3-1.6 1.3c-.7 0-1.3-.2-1.7-.7l.3-.3zm8.9-3h-.7v-.4h.7s.05-.43 0-.4c0-.9.5-1.4 1.2-1.4c.2 0 .4.1.6.2l-.1.3c-.1 0-.3-.1-.4-.1c-.5 0-.8.4-.8 1c.02-.03 0 .4 0 .4h.9v.4h-.9v3.9h-.5v-3.9zm2.2-.4h.5s-.04.71 0 .7c.3-.5.8-.8 1.4-.8v.5h-.2c-.5 0-1 .4-1.2.7c-.04.04 0 3.2 0 3.2h-.5v-4.3zm2.5 2.1c0-1.2.8-2.2 2.1-2.2c1.3 0 2.1 1 2.1 2.2c0 1.3-.8 2.3-2.1 2.3c-1.3 0-2.1-1-2.1-2.3zm3.7 0c0-.9-.6-1.8-1.6-1.8c-1 0-1.6.9-1.6 1.8c0 1 .6 1.9 1.6 1.9c1 0 1.6-.9 1.6-1.9zm6.8-.8c0-.6-.3-1-.9-1c-.5 0-1 .3-1.2.7c-.04.02 0 3.3 0 3.3h-.5v-3c0-.6-.3-1-.9-1c-.4 0-1 .3-1.2.7c-.03.02 0 3.3 0 3.3h-.5v-4.3h.5s-.03.62 0 .6c.1-.3.7-.7 1.4-.7c.6 0 1 .4 1.1.8c.3-.4.8-.8 1.5-.8c.8 0 1.1.4 1.1 1.3c.04-.02 0 3.1 0 3.1h-.4s-.02-3.03 0-3zm6.6 2.2c-.02-.03 0-3.1 0-3.1h-.7v-.4h.7v-1.2h.5v1.2h.8v.4h-.8s-.04 3 0 3c0 .4.1.6.4.6c.2 0 .4-.1.5-.2l.2.3c-.2.2-.4.3-.8.3c-.5 0-.8-.3-.8-.9zm5.2-2.2c0-.8-.4-1-1-1c-.6 0-1.2.3-1.5.7c.04.02 0 3.3 0 3.3h-.4v-6h.4s.04 2.32 0 2.3c.4-.4 1-.7 1.6-.7c.9 0 1.4.4 1.4 1.3c-.02.05 0 3.1 0 3.1h-.5v-3zm3.7-1.4c1.3 0 2 1 2 2.3c.04-.04 0 .1 0 .1c0 0-3.59-.02-3.6 0c.1.9.7 1.7 1.7 1.7c.6 0 1.1-.2 1.4-.6l.3.3c-.5.5-1 .7-1.7.7c-1.3 0-2.2-.9-2.2-2.3c0-1.2.9-2.2 2.1-2.2zm-1.6 2h3.2c0-.7-.5-1.6-1.6-1.6c-1 0-1.6.9-1.6 1.6z" stroke="none" fill="#000"/></g><g id="Polygon107451"><path d="m3.9 33.2c-.3.5-.8.8-1.5.8c-1.1 0-1.9-.9-1.9-2.3c0-1.3.8-2.2 1.9-2.2c.6 0 1.2.3 1.5.8c.03-.04 0-2.4 0-2.4h.5v6h-.5s.03-.68 0-.7zm0-2.5c-.2-.5-.8-.8-1.4-.8c-1 0-1.5.8-1.5 1.8c0 1.1.5 1.9 1.5 1.9c.6 0 1.2-.4 1.4-.8v-2.1zm1.6 1c0-1.2.8-2.2 2.1-2.2c1.3 0 2.1 1 2.1 2.2c0 1.3-.8 2.3-2.1 2.3c-1.3 0-2.1-1-2.1-2.3zm3.7 0c0-.9-.6-1.8-1.6-1.8c-1 0-1.6.9-1.6 1.8c0 1 .6 1.9 1.6 1.9c1 0 1.6-.9 1.6-1.9zm4.1-1.5l-1.2 3.7h-.4l-1.4-4.3h.5l1.1 3.7l1.2-3.7h.4l1.3 3.7l1.1-3.7h.5L15 33.9h-.4l-1.3-3.7zm6.8.8c0-.9-.4-1.1-1-1.1c-.6 0-1.1.3-1.4.7c-.02.02 0 3.3 0 3.3h-.5v-4.3h.5s-.02.62 0 .6c.3-.4.9-.7 1.5-.7c.9 0 1.4.4 1.4 1.4v3h-.5s.04-2.92 0-2.9zm2 2.1c-.03-.03 0-3.1 0-3.1h-.8v-.4h.8v-1.2h.4v1.2h.9v.4h-.9s.04 3 0 3c0 .4.2.6.5.6c.2 0 .4-.1.5-.2l.2.3c-.2.2-.4.3-.8.3c-.6 0-.8-.3-.8-.9zm2-1.4c0-1.2.8-2.2 2.1-2.2c1.3 0 2.1 1 2.1 2.2c0 1.3-.8 2.3-2.1 2.3c-1.3 0-2.1-1-2.1-2.3zm3.7 0c0-.9-.6-1.8-1.6-1.8c-1 0-1.6.9-1.6 1.8c0 1 .6 1.9 1.6 1.9c1 0 1.6-.9 1.6-1.9zm4.1-1.5l-1.2 3.7h-.5l-1.4-4.3h.5l1.2 3.7l1.2-3.7h.4l1.2 3.7l1.2-3.7h.5l-1.4 4.3h-.5l-1.2-3.7zm6.8.8c0-.9-.4-1.1-1-1.1c-.6 0-1.2.3-1.4.7c-.04.02 0 3.3 0 3.3h-.5v-4.3h.5s-.04.62 0 .6c.3-.4.9-.7 1.5-.7c.9 0 1.4.4 1.4 1.4v3h-.5s.03-2.92 0-2.9zm7.2-.1c0-1.8 1.4-3.1 3-3.1c1 0 1.7.4 2.2 1.1l-.4.2c-.4-.5-1-.8-1.8-.8c-1.4 0-2.4 1-2.4 2.6c0 1.6 1 2.7 2.4 2.7c.8 0 1.4-.4 1.8-.9l.4.2c-.5.7-1.2 1.1-2.2 1.1c-1.6 0-3-1.2-3-3.1zm9.1 0c0-.8-.4-1-1-1c-.6 0-1.2.3-1.4.7c-.05.02 0 3.3 0 3.3h-.5v-6h.5s-.05 2.32 0 2.3c.3-.4.9-.7 1.5-.7c.9 0 1.4.4 1.4 1.3c-.02.05 0 3.1 0 3.1h-.5s.02-2.95 0-3zm4.6 2.5c-.4.4-.9.6-1.5.6c-.7 0-1.5-.5-1.5-1.4c0-1 .8-1.5 1.5-1.5c.6 0 1.1.2 1.5.6v-.8c0-.7-.5-1-1.2-1c-.5 0-.9.2-1.3.6l-.3-.3c.5-.5 1-.7 1.7-.7c.9 0 1.6.4 1.6 1.4c-.02-.05 0 3 0 3h-.5s.02-.5 0-.5zm0-1.3c-.3-.4-.8-.6-1.3-.6c-.7 0-1.2.5-1.2 1.1c0 .6.5 1 1.2 1c.5 0 1-.1 1.3-.5v-1zm1.9-2.5h.4s.02.71 0 .7c.4-.5.9-.8 1.5-.8v.5h-.2c-.5 0-1.1.4-1.3.7c.02.04 0 3.2 0 3.2h-.4v-4.3zm2.7-1.7h.5v6h-.5v-6zm3.7 1.6c1.3 0 2 1 2 2.3c.05-.04 0 .1 0 .1c0 0-3.59-.02-3.6 0c.1.9.7 1.7 1.7 1.7c.6 0 1.1-.2 1.4-.6l.3.3c-.5.5-1 .7-1.7.7c-1.3 0-2.2-.9-2.2-2.3c0-1.2.9-2.2 2.1-2.2zm-1.6 2h3.2c0-.7-.5-1.6-1.6-1.6c-1 0-1.6.9-1.6 1.6zM71 33c.2.3.7.6 1.4.6c.7 0 1.1-.3 1.1-.8c0-.6-.6-.8-1.2-.9c-.7-.2-1.5-.4-1.5-1.2c0-.7.5-1.2 1.5-1.2c.8 0 1.3.2 1.6.6l-.3.3c-.2-.3-.7-.5-1.3-.5c-.6 0-1.1.3-1.1.7c0 .5.6.7 1.2.8c.8.2 1.6.4 1.6 1.3c0 .7-.6 1.3-1.6 1.3c-.7 0-1.3-.2-1.7-.7l.3-.3zm4.2.1V30h-.7v-.4h.7v-1.2h.5v1.2h.9v.4h-.9s-.03 3 0 3c0 .4.1.6.4.6c.2 0 .4-.1.5-.2l.2.3c-.2.2-.4.3-.8.3c-.5 0-.8-.3-.8-.9zm2-1.4c0-1.2.9-2.2 2.1-2.2c1.3 0 2.1 1 2.1 2.2c0 1.3-.8 2.3-2.1 2.3c-1.2 0-2.1-1-2.1-2.3zm3.7 0c0-.9-.5-1.8-1.6-1.8c-1 0-1.6.9-1.6 1.8c0 1 .6 1.9 1.6 1.9c1.1 0 1.6-.9 1.6-1.9zm4.6-.7c0-.9-.5-1.1-1.1-1.1c-.5 0-1.1.3-1.4.7c.01.02 0 3.3 0 3.3h-.5v-4.3h.5v.6c.3-.4.9-.7 1.6-.7c.9 0 1.3.4 1.3 1.4c.04-.03 0 3 0 3h-.4s-.03-2.92 0-2.9zm7.6 2.2c.2 0 .4.2.4.4c0 .2-.2.4-.4.4c-.2 0-.4-.2-.4-.4c0-.2.2-.4.4-.4zm7.2-5.3h3.8v.5h-3.3v2.2h3.3v.5h-3.3v2.3h3.3v.5h-3.8v-6zm4.9 5.1c.3.3.8.6 1.4.6c.7 0 1.2-.3 1.2-.8c0-.6-.6-.8-1.3-.9c-.7-.2-1.5-.4-1.5-1.2c0-.7.6-1.2 1.6-1.2c.7 0 1.2.2 1.5.6l-.2.3c-.3-.3-.8-.5-1.3-.5c-.7 0-1.1.3-1.1.7c0 .5.5.7 1.1.8c.8.2 1.6.4 1.6 1.3c0 .7-.5 1.3-1.6 1.3c-.7 0-1.2-.2-1.7-.7l.3-.3zm4.2.1c.03-.03 0-3.1 0-3.1h-.7v-.4h.7v-1.2h.5v1.2h.9v.4h-.9v3c0 .4.2.6.5.6c.2 0 .3-.1.4-.2l.2.3c-.1.2-.4.3-.7.3c-.6 0-.9-.3-.9-.9zm5.1.3c-.4.4-.9.6-1.5.6c-.7 0-1.5-.5-1.5-1.4c0-1 .8-1.5 1.5-1.5c.6 0 1.1.2 1.5.6v-.8c0-.7-.5-1-1.2-1c-.5 0-.9.2-1.3.6l-.3-.3c.4-.5 1-.7 1.7-.7c.9 0 1.6.4 1.6 1.4c-.04-.05 0 3 0 3h-.5v-.5zm0-1.3c-.3-.4-.8-.6-1.3-.6c-.7 0-1.2.5-1.2 1.1c0 .6.5 1 1.2 1c.5 0 1-.1 1.3-.5v-1zm1.8-4.2h.5v2.4c.3-.5.9-.8 1.5-.8c1.2 0 1.9.9 1.9 2.2c0 1.4-.7 2.3-1.9 2.3c-.6 0-1.2-.3-1.5-.8v.7h-.5v-6zm1.9 5.7c1 0 1.5-.8 1.5-1.9c0-1-.5-1.8-1.5-1.8c-.6 0-1.2.4-1.4.8v2.1c.2.4.8.8 1.4.8zm3.2-5.7h.4v6h-.4v-6zm1.7.6c0-.2.2-.4.3-.4c.2 0 .4.2.4.4c0 .2-.2.3-.4.3c-.1 0-.3-.1-.3-.3zm.1 1.1h.5v4.3h-.5v-4.3zm1.7 3.4c.3.3.8.6 1.5.6c.7 0 1.1-.3 1.1-.8c0-.6-.6-.8-1.2-.9c-.7-.2-1.5-.4-1.5-1.2c0-.7.5-1.2 1.5-1.2c.8 0 1.3.2 1.6.6l-.3.3c-.2-.3-.7-.5-1.3-.5c-.7 0-1.1.3-1.1.7c0 .5.6.7 1.2.8c.7.2 1.6.4 1.6 1.3c0 .7-.6 1.3-1.7 1.3c-.7 0-1.2-.2-1.6-.7l.2-.3zm7.1-2.1c0-.8-.4-1-1-1c-.6 0-1.2.3-1.4.7c-.05.02 0 3.3 0 3.3h-.5v-6h.5s-.05 2.32 0 2.3c.3-.4.9-.7 1.5-.7c.9 0 1.4.4 1.4 1.3v3.1h-.5s.02-2.95 0-3zm3.7-1.4c1.3 0 2.1 1 2.1 2.3c-.05-.04 0 .1 0 .1c0 0-3.68-.02-3.7 0c.1.9.7 1.7 1.7 1.7c.6 0 1.1-.2 1.4-.6l.3.3c-.4.5-1 .7-1.7.7c-1.3 0-2.2-.9-2.2-2.3c0-1.2.9-2.2 2.1-2.2zm-1.6 2h3.2c0-.7-.5-1.6-1.6-1.6c-1 0-1.5.9-1.6 1.6zm8 1.7c-.3.5-.9.8-1.5.8c-1.2 0-2-.9-2-2.3c0-1.3.8-2.2 2-2.2c.6 0 1.1.3 1.5.8c-.03-.04 0-2.4 0-2.4h.5v6h-.5s-.03-.68 0-.7zm0-2.5c-.3-.5-.8-.8-1.5-.8c-.9 0-1.5.8-1.5 1.8c0 1.1.6 1.9 1.5 1.9c.7 0 1.2-.4 1.5-.8v-2.1zm7.3-2.2c0-.2.1-.4.3-.4c.2 0 .4.2.4.4c0 .2-.2.3-.4.3c-.2 0-.3-.1-.3-.3zm.1 1.1h.4v4.3h-.4v-4.3zm4.8 1.4c0-.9-.5-1.1-1.1-1.1c-.6 0-1.1.3-1.4.7c-.02.02 0 3.3 0 3.3h-.5v-4.3h.5s-.02.62 0 .6c.3-.4.9-.7 1.6-.7c.8 0 1.3.4 1.3 1.4c.02-.03 0 3 0 3h-.4s-.05-2.92 0-2.9zm7.4 2.1c.04-.03 0-3.1 0-3.1h-.7v-.4h.7v-1.2h.5v1.2h.9v.4h-.9s.02 3 0 3c0 .4.2.6.5.6c.2 0 .4-.1.5-.2l.1.3c-.1.2-.3.3-.7.3c-.6 0-.9-.3-.9-.9zm5.3-2.2c0-.8-.5-1-1.1-1c-.5 0-1.1.3-1.4.7v3.3h-.5v-6h.5v2.3c.3-.4.9-.7 1.6-.7c.9 0 1.3.4 1.3 1.3c.04.05 0 3.1 0 3.1h-.4s-.03-2.95 0-3zm3.6-1.4c1.4 0 2.1 1 2.1 2.3v.1s-3.64-.02-3.6 0c0 .9.6 1.7 1.7 1.7c.5 0 1-.2 1.4-.6l.2.3c-.4.5-.9.7-1.7.7c-1.2 0-2.1-.9-2.1-2.3c0-1.2.8-2.2 2-2.2zm-1.5 2h3.1c0-.7-.5-1.6-1.6-1.6c-1 0-1.5.9-1.5 1.6zm11.1-2.9l-1 1l-.3-.3l1.3-1.4h.5v6h-.5v-5.3zm4.7-.2h-3.3v-.5h4v.4l-2.6 5.6h-.6l2.5-5.5zm2 4.5c.3.4.6.6 1.3.6c1.3 0 1.8-1.3 1.8-2.6v-.3c-.3.4-1 1-1.8 1c-1.1 0-1.9-.6-1.9-1.9c0-1 .7-1.9 2-1.9c1.6 0 2.2 1.5 2.2 3.1c0 1.6-.7 3.1-2.3 3.1c-.8 0-1.3-.3-1.6-.8l.3-.3zm1.4-4.6c-1 0-1.5.8-1.5 1.4c0 1 .6 1.5 1.5 1.5c.7 0 1.3-.5 1.6-1.1c0-.8-.5-1.8-1.6-1.8zm5.4-.5c1.6 0 2.2 1.7 2.2 3.1c0 1.4-.6 3.1-2.2 3.1c-1.6 0-2.3-1.7-2.3-3.1c0-1.4.7-3.1 2.3-3.1zm0 .5c-1.3 0-1.7 1.4-1.7 2.6c0 1.2.4 2.7 1.7 2.7c1.2 0 1.6-1.5 1.6-2.7c0-1.2-.4-2.6-1.6-2.6zm3.2 4.7c.3.3.8.6 1.4.6c.8 0 1.2-.3 1.2-.8c0-.6-.6-.8-1.2-.9c-.7-.2-1.5-.4-1.5-1.2c0-.7.5-1.2 1.5-1.2c.8 0 1.2.2 1.6.6l-.3.3c-.2-.3-.7-.5-1.3-.5c-.7 0-1.1.3-1.1.7c0 .5.6.7 1.2.8c.7.2 1.6.4 1.6 1.3c0 .7-.6 1.3-1.7 1.3c-.7 0-1.2-.2-1.6-.7l.2-.3zm4 1.8c.3-.2.5-.6.5-.8h-.1c-.2 0-.4-.2-.4-.4c0-.2.2-.4.4-.4c.3 0 .5.2.5.6c0 .5-.3 1-.7 1.2l-.2-.2z" stroke="none" fill="#000"/></g><g id="Polygon107450"><path d="m2.3 17.6h-2v-.5h4.5v.5h-2v5.5h-.5v-5.5zm6.3 2.5c0-.8-.4-1-1-1c-.6 0-1.1.3-1.4.7c-.02.02 0 3.3 0 3.3h-.5v-6h.5s-.02 2.32 0 2.3c.3-.4.9-.7 1.5-.7c.9 0 1.4.4 1.4 1.3c.02.05 0 3.1 0 3.1h-.5s.05-2.95 0-3zm3.7-1.4c1.4 0 2.1 1 2.1 2.3c-.02-.04 0 .1 0 .1c0 0-3.65-.02-3.7 0c.1.9.7 1.7 1.7 1.7c.6 0 1.1-.2 1.5-.6l.2.3c-.4.5-1 .7-1.7.7c-1.3 0-2.2-.9-2.2-2.3c0-1.2.9-2.2 2.1-2.2zm-1.6 2h3.2c0-.7-.5-1.6-1.6-1.6c-1 0-1.5.9-1.6 1.6zm10.2-.6c0-1.8 1.3-3.1 3-3.1c1 0 1.7.4 2.2 1.1l-.4.2c-.4-.5-1.1-.8-1.8-.8c-1.4 0-2.5 1-2.5 2.6c0 1.6 1.1 2.7 2.5 2.7c.7 0 1.4-.4 1.8-.9l.4.2c-.5.7-1.2 1.1-2.2 1.1c-1.7 0-3-1.2-3-3.1zm6-2.4c0-.2.2-.4.4-.4c.2 0 .3.2.3.4c0 .2-.1.3-.3.3c-.2 0-.4-.1-.4-.3zm.1 1.1h.5v4.3h-.5v-4.3zm2 3.5c-.05-.03 0-3.1 0-3.1h-.8v-.4h.8v-1.2h.4v1.2h.9v.4h-.9s.03 3 0 3c0 .4.2.6.5.6c.2 0 .4-.1.5-.2l.1.3c-.1.2-.3.3-.7.3c-.6 0-.8-.3-.8-.9zm2.4 2.2c.3 0 .5-.2.7-.6c-.02.02.3-.8.3-.8l-1.8-4.3h.5l1.6 3.8l1.6-3.8h.5s-2.26 5.26-2.3 5.3c-.2.5-.6.8-1.1.8c-.1 0-.3-.1-.4-.1v-.4c.1 0 .3.1.4.1zm14.8-6.7L44 23.1h-.2l-2.2-5.3v5.3h-.5v-6h.7l2.1 5l2-5h.8v6h-.5v-5.3zm4.6 4.8c-.4.4-.8.6-1.4.6c-.8 0-1.6-.5-1.6-1.4c0-1 .8-1.5 1.6-1.5c.6 0 1 .2 1.4.6v-.8c0-.7-.5-1-1.1-1c-.6 0-1 .2-1.4.6l-.3-.3c.5-.5 1-.7 1.7-.7c.9 0 1.6.4 1.6 1.4v3h-.5s.03-.5 0-.5zm0-1.3c-.3-.4-.8-.6-1.3-.6c-.7 0-1.2.5-1.2 1.1c0 .6.5 1 1.2 1c.5 0 1-.1 1.3-.5v-1zm1.9-2.5h.4s.04.71 0 .7c.4-.5.9-.8 1.5-.8v.5h-.2c-.5 0-1.1.4-1.3.7c.04.04 0 3.2 0 3.2h-.4v-4.3zm4 2.2l-.8.8v1.3h-.5v-6h.5v4.1l2.6-2.4h.6l-2 1.9l2 2.4h-.7L56.7 21zm4.8-2.3c1.4 0 2.1 1 2.1 2.3v.1s-3.65-.02-3.6 0c0 .9.6 1.7 1.6 1.7c.6 0 1.1-.2 1.5-.6l.2.3c-.4.5-1 .7-1.7.7c-1.3 0-2.2-.9-2.2-2.3c0-1.2.9-2.2 2.1-2.2zm-1.5 2h3.1c0-.7-.5-1.6-1.6-1.6c-1 0-1.5.9-1.5 1.6zm4.8 1.6v-3.1h-.7v-.4h.7v-1.2h.5v1.2h.9v.4h-.9s-.03 3 0 3c0 .4.1.6.4.6c.2 0 .4-.1.5-.2l.2.3c-.2.2-.4.3-.8.3c-.5 0-.8-.3-.8-.9zm7.7-4.6c0-.2.2-.4.4-.4c.2 0 .4.2.4.4c0 .2-.2.3-.4.3c-.2 0-.4-.1-.4-.3zm.2 1.1h.4v4.3h-.4v-4.3zm1.7 3.4c.3.3.8.6 1.4.6c.7 0 1.2-.3 1.2-.8c0-.6-.6-.8-1.3-.9c-.7-.2-1.5-.4-1.5-1.2c0-.7.6-1.2 1.6-1.2c.7 0 1.2.2 1.5.6l-.2.3c-.3-.3-.8-.5-1.3-.5c-.7 0-1.1.3-1.1.7c0 .5.5.7 1.1.8c.8.2 1.6.4 1.6 1.3c0 .7-.5 1.3-1.6 1.3c-.7 0-1.2-.2-1.7-.7l.3-.3zm12.5.4c-.4.4-.9.6-1.5.6c-.8 0-1.5-.5-1.5-1.4c0-1 .7-1.5 1.5-1.5c.6 0 1.1.2 1.5.6v-.8c0-.7-.5-1-1.2-1c-.5 0-1 .2-1.4.6l-.2-.3c.4-.5.9-.7 1.6-.7c.9 0 1.6.4 1.6 1.4c.04-.05 0 3 0 3h-.4s-.03-.5 0-.5zm0-1.3c-.3-.4-.8-.6-1.3-.6c-.8 0-1.2.5-1.2 1.1c0 .6.4 1 1.2 1c.5 0 1-.1 1.3-.5v-1zm10.3-1.2c0-.8-.4-1-1-1c-.6 0-1.2.3-1.5.7c.05.02 0 3.3 0 3.3h-.4v-6h.4s.05 2.32 0 2.3c.4-.4 1-.7 1.6-.7c.9 0 1.4.4 1.4 1.3c-.02.05 0 3.1 0 3.1h-.5s.02-2.95 0-3zm1.7-2.4c0-.2.2-.4.4-.4c.2 0 .3.2.3.4c0 .2-.1.3-.3.3c-.2 0-.4-.1-.4-.3zm.2 1.1h.4v4.3h-.4v-4.3zm1.7 3.4c.3.3.8.6 1.4.6c.7 0 1.2-.3 1.2-.8c0-.6-.6-.8-1.3-.9c-.7-.2-1.5-.4-1.5-1.2c0-.7.6-1.2 1.6-1.2c.7 0 1.2.2 1.5.6l-.2.3c-.3-.3-.8-.5-1.3-.5c-.7 0-1.1.3-1.1.7c0 .5.5.7 1.1.8c.8.2 1.6.4 1.6 1.3c0 .7-.5 1.3-1.6 1.3c-.7 0-1.3-.2-1.7-.7l.3-.3zm4.2.1c.02-.03 0-3.1 0-3.1h-.7v-.4h.7v-1.2h.5v1.2h.9v.4h-.9v3c0 .4.1.6.4.6c.3 0 .4-.1.5-.2l.2.3c-.2.2-.4.3-.7.3c-.6 0-.9-.3-.9-.9zm2.1-1.4c0-1.2.8-2.2 2-2.2c1.3 0 2.1 1 2.1 2.2c0 1.3-.8 2.3-2.1 2.3c-1.2 0-2-1-2-2.3zm3.6 0c0-.9-.5-1.8-1.6-1.8c-1 0-1.5.9-1.5 1.8c0 1 .5 1.9 1.5 1.9c1.1 0 1.6-.9 1.6-1.9zm1.7-2.1h.4s.03.71 0 .7c.4-.5.9-.8 1.5-.8v.5h-.2c-.5 0-1.1.4-1.3.7c.03.04 0 3.2 0 3.2h-.4v-4.3zm2.6-1.1c0-.2.2-.4.4-.4c.2 0 .3.2.3.4c0 .2-.1.3-.3.3c-.2 0-.4-.1-.4-.3zm.1 1.1h.5v4.3h-.5v-4.3zm3.7-.1c.8 0 1.2.3 1.6.7l-.4.3c-.3-.5-.7-.6-1.1-.6c-1.1 0-1.7.8-1.7 1.8c0 1.1.6 1.9 1.7 1.9c.4 0 .8-.2 1.1-.6l.4.3c-.4.4-.8.7-1.6.7c-1.3 0-2.1-1-2.1-2.3c0-1.2.8-2.2 2.1-2.2zm13.3 1.4c0-.6-.3-1-.9-1c-.5 0-1 .3-1.3.7c.05.02 0 3.3 0 3.3h-.4s-.03-3.03 0-3c0-.6-.3-1-.9-1c-.5 0-1 .3-1.2.7c-.04.02 0 3.3 0 3.3h-.5v-4.3h.5s-.04.62 0 .6c.1-.3.7-.7 1.4-.7c.6 0 1 .4 1.1.8c.2-.4.8-.8 1.4-.8c.8 0 1.2.4 1.2 1.3c.03-.02 0 3.1 0 3.1h-.4s-.04-3.03 0-3zm4.6 2.5c-.4.4-.9.6-1.5.6c-.8 0-1.5-.5-1.5-1.4c0-1 .7-1.5 1.5-1.5c.6 0 1.1.2 1.5.6v-.8c0-.7-.6-1-1.2-1c-.5 0-1 .2-1.4.6l-.2-.3c.4-.5.9-.7 1.6-.7c.9 0 1.6.4 1.6 1.4c.03-.05 0 3 0 3h-.4s-.04-.5 0-.5zm0-1.3c-.3-.4-.8-.6-1.4-.6c-.7 0-1.1.5-1.1 1.1c0 .6.4 1 1.1 1c.6 0 1.1-.1 1.4-.5v-1zm1.8-2.5h.5s-.03.71 0 .7c.3-.5.8-.8 1.4-.8v.5h-.2c-.4 0-1 .4-1.2.7c-.03.04 0 3.2 0 3.2h-.5v-4.3zm4 2.2l-.8.8v1.3h-.4v-6h.4v4.1l2.6-2.4h.6l-2 1.9l2 2.4h-.6l-1.8-2.1zm4.9-2.3c1.3 0 2 1 2 2.3c.02-.04 0 .1 0 .1c0 0-3.62-.02-3.6 0c0 .9.7 1.7 1.7 1.7c.5 0 1-.2 1.4-.6l.2.3c-.4.5-.9.7-1.7.7c-1.2 0-2.1-.9-2.1-2.3c0-1.2.9-2.2 2.1-2.2zm-1.6 2h3.1c0-.7-.5-1.6-1.5-1.6c-1.1 0-1.6.9-1.6 1.6zm4.8 1.6c.02-.03 0-3.1 0-3.1h-.7v-.4h.7v-1.2h.5v1.2h.9v.4h-.9v3c0 .4.1.6.4.6c.3 0 .4-.1.5-.2l.2.3c-.2.2-.4.3-.7.3c-.6 0-.9-.3-.9-.9zm9.8-3.6c.7 0 1.1.3 1.5.7l-.3.3c-.4-.5-.7-.6-1.2-.6c-1 0-1.7.8-1.7 1.8c0 1.1.7 1.9 1.7 1.9c.5 0 .8-.2 1.2-.6l.3.3c-.4.4-.8.7-1.5.7c-1.3 0-2.2-1-2.2-2.3c0-1.2.9-2.2 2.2-2.2zm2.2 2.2c0-1.2.8-2.2 2.1-2.2c1.3 0 2.1 1 2.1 2.2c0 1.3-.8 2.3-2.1 2.3c-1.3 0-2.1-1-2.1-2.3zm3.7 0c0-.9-.6-1.8-1.6-1.8c-1 0-1.6.9-1.6 1.8c0 1 .6 1.9 1.6 1.9c1 0 1.6-.9 1.6-1.9zm6.8-.8c0-.6-.3-1-.9-1c-.5 0-1 .3-1.2.7c-.05.02 0 3.3 0 3.3h-.5s-.02-3.03 0-3c0-.6-.3-1-.9-1c-.5 0-1 .3-1.2.7c-.04.02 0 3.3 0 3.3h-.5v-4.3h.5s-.04.62 0 .6c.1-.3.7-.7 1.4-.7c.6 0 1 .4 1.1.8c.3-.4.8-.8 1.4-.8c.9 0 1.2.4 1.2 1.3c.04-.02 0 3.1 0 3.1h-.4s-.03-3.03 0-3zm1.8 4.7v-6h.5s-.03.66 0 .7c.3-.5.8-.8 1.5-.8c1.1 0 1.9.8 1.9 2.2c0 1.4-.8 2.3-1.9 2.3c-.6 0-1.2-.3-1.5-.8c-.03.01 0 2.4 0 2.4h-.5zm1.9-5.7c-.6 0-1.2.3-1.4.8v2.1c.2.4.8.8 1.4.8c1 0 1.5-.8 1.5-1.9c0-1-.5-1.8-1.5-1.8zm3.1-2h.5v6h-.5v-6zm3.7 1.6c1.3 0 2.1 1 2.1 2.3c-.02-.04 0 .1 0 .1c0 0-3.66-.02-3.7 0c.1.9.7 1.7 1.7 1.7c.6 0 1.1-.2 1.5-.6l.2.3c-.4.5-1 .7-1.7.7c-1.3 0-2.2-.9-2.2-2.3c0-1.2.9-2.2 2.1-2.2zm-1.6 2h3.2c0-.7-.5-1.6-1.6-1.6c-1 0-1.5.9-1.6 1.6zm6 .5l-1.5 1.9h-.5l1.7-2.2l-1.6-2.1h.5l1.4 1.8l1.3-1.8h.6l-1.6 2.1l1.7 2.2h-.6l-1.4-1.9zm8.2-3.5c0-.2.2-.4.4-.4c.2 0 .3.2.3.4c0 .2-.1.3-.3.3c-.2 0-.4-.1-.4-.3zm.2 1.1h.4v4.3h-.4v-4.3zm4.7 1.4c0-.9-.4-1.1-1-1.1c-.6 0-1.2.3-1.4.7c-.04.02 0 3.3 0 3.3h-.5v-4.3h.5s-.04.62 0 .6c.3-.4.9-.7 1.5-.7c.9 0 1.4.4 1.4 1.4v3h-.5s.02-2.92 0-2.9z" stroke="none" fill="#000"/></g><g id="Polygon107449"><path d="m4.9 4.4H1.6v2.7h-.9v-6h.9v2.5h3.3V1.1h.9v6h-.9V4.4zm2-2.9c0-.3.2-.5.5-.5c.3 0 .5.2.5.5c0 .3-.2.5-.5.5c-.3 0-.5-.2-.5-.5zM7 2.8h.8v4.3h-.8V2.8zm2 3.1c.3.4.9.7 1.5.7c.6 0 .9-.3.9-.7c0-.4-.5-.5-1-.7c-.8-.1-1.6-.3-1.6-1.3c0-.7.6-1.2 1.6-1.2c.8 0 1.3.2 1.7.6l-.4.5c-.2-.3-.7-.5-1.3-.5c-.5 0-.9.2-.9.6c0 .4.5.5 1 .6c.8.2 1.7.4 1.7 1.4c0 .7-.6 1.3-1.8 1.3c-.7 0-1.3-.2-1.8-.7l.4-.6zm4.3.2V3.5h-.7v-.7h.7V1.6h.8v1.2h.9v.7h-.9s.01 2.47 0 2.5c0 .3.2.5.4.5c.2 0 .4-.1.5-.2l.2.6c-.2.2-.4.3-.9.3c-.6 0-1-.4-1-1.1zm2.2-1.2c0-1.2.9-2.2 2.2-2.2c1.4 0 2.2 1 2.2 2.2c0 1.3-.8 2.3-2.2 2.3c-1.3 0-2.2-1-2.2-2.3zm3.6 0c0-.8-.5-1.5-1.4-1.5c-.8 0-1.3.7-1.3 1.5c0 .9.5 1.6 1.3 1.6c.9 0 1.4-.7 1.4-1.6zm1.8-2.1h.8s-.03.63 0 .6c.3-.4.8-.7 1.4-.7v.8h-.3c-.4 0-.9.3-1.1.6c-.03-.01 0 3 0 3h-.8V2.8zm2.8-1.3c0-.3.2-.5.5-.5c.3 0 .5.2.5.5c0 .3-.2.5-.5.5c-.3 0-.5-.2-.5-.5zm.1 1.3h.8v4.3h-.8V2.8zm4-.1c.8 0 1.3.3 1.6.7l-.5.5c-.3-.4-.7-.5-1.1-.5c-.9 0-1.4.6-1.4 1.5c0 .9.5 1.6 1.4 1.6c.4 0 .8-.2 1.1-.5l.5.5c-.3.4-.8.7-1.6.7c-1.4 0-2.2-1-2.2-2.3c0-1.3.8-2.2 2.2-2.2zm4.4 1.4c0-1.8 1.4-3.1 3.1-3.1c1.1 0 1.9.6 2.4 1.3l-.8.4c-.3-.5-.9-.9-1.6-.9c-1.2 0-2.2 1-2.2 2.3c0 1.4 1 2.3 2.2 2.3c.7 0 1.3-.4 1.6-.9l.8.4c-.5.8-1.3 1.3-2.4 1.3c-1.7 0-3.1-1.2-3.1-3.1zm9.2.2c0-.7-.4-.9-.9-.9c-.5 0-1 .3-1.2.6c-.04 0 0 3.1 0 3.1h-.9v-6h.9s-.04 2.27 0 2.3c.2-.4.8-.7 1.5-.7c.9 0 1.4.4 1.4 1.3v3.1h-.8s-.02-2.79 0-2.8zm4.7 2.3c-.4.4-.9.6-1.4.6c-.8 0-1.6-.5-1.6-1.4c0-1 .8-1.4 1.6-1.4c.5 0 1 .1 1.4.5v-.7c0-.5-.5-.9-1.1-.9c-.5 0-.9.2-1.3.6l-.3-.5c.4-.5 1-.7 1.7-.7c1 0 1.8.4 1.8 1.5v2.9h-.8s-.02-.47 0-.5zm0-1.2c-.3-.3-.7-.5-1.1-.5c-.6 0-1 .4-1 .9c0 .5.4.9 1 .9c.4 0 .8-.2 1.1-.5v-.8zm2-2.6h.8v.6c.3-.4.9-.7 1.4-.7v.8h-.3c-.4 0-.9.3-1.1.6v3h-.8V2.8zM51 1.1h.9v6h-.9v-6zm4 1.6c1.3 0 2.1 1 2.1 2.3c-.02 0 0 .2 0 .2h-3.5c.1.7.6 1.4 1.5 1.4c.5 0 1-.2 1.3-.6l.4.6c-.5.4-1.1.6-1.8.6c-1.3 0-2.2-.9-2.2-2.3c0-1.2.9-2.2 2.2-2.2zm-1.4 1.9h2.7c0-.6-.4-1.3-1.3-1.3c-.9 0-1.3.7-1.4 1.3zM58 5.9c.3.4.9.7 1.5.7c.6 0 .9-.3.9-.7c0-.4-.5-.5-1-.7c-.8-.1-1.6-.3-1.6-1.3c0-.7.5-1.2 1.6-1.2c.8 0 1.3.2 1.7.6l-.4.5c-.2-.3-.7-.5-1.3-.5c-.5 0-.9.2-.9.6c0 .4.5.5 1 .6c.8.2 1.7.4 1.7 1.4c0 .7-.6 1.3-1.8 1.3c-.7 0-1.3-.2-1.8-.7l.4-.6zm4.3.2V3.5h-.7v-.7h.7V1.6h.8v1.2h.9v.7h-.9v2.5c0 .3.1.5.4.5c.2 0 .4-.1.5-.2l.2.6c-.2.2-.5.3-.9.3c-.7 0-1-.4-1-1.1zm2.2-1.2c0-1.2.9-2.2 2.2-2.2c1.4 0 2.2 1 2.2 2.2c0 1.3-.8 2.3-2.2 2.3c-1.3 0-2.2-1-2.2-2.3zm3.6 0c0-.8-.5-1.5-1.4-1.5c-.8 0-1.3.7-1.3 1.5c0 .9.5 1.6 1.3 1.6c.9 0 1.4-.7 1.4-1.6zm4.7-.6c0-.7-.4-.9-.9-.9c-.5 0-1 .3-1.2.6c-.04 0 0 3.1 0 3.1h-.9V2.8h.9s-.04.57 0 .6c.2-.4.8-.7 1.5-.7c.9 0 1.4.4 1.4 1.4v3h-.8s-.02-2.77 0-2.8zm4-.2c0-1.8 1.4-3.1 3.1-3.1c1.1 0 1.9.6 2.3 1.3l-.7.4c-.3-.5-.9-.9-1.6-.9c-1.3 0-2.2 1-2.2 2.3c0 1.4.9 2.3 2.2 2.3c.7 0 1.3-.4 1.6-.9l.7.4c-.4.8-1.2 1.3-2.3 1.3c-1.7 0-3.1-1.2-3.1-3.1zm6.1-2.6c0-.3.3-.5.5-.5c.3 0 .6.2.6.5c0 .3-.3.5-.6.5c-.2 0-.5-.2-.5-.5zm.1 1.3h.9v4.3h-.9V2.8zm2.2 3.3V3.5h-.7v-.7h.7V1.6h.8v1.2h.9v.7h-.9s.02 2.47 0 2.5c0 .3.2.5.4.5c.2 0 .4-.1.5-.2l.2.6c-.2.2-.4.3-.9.3c-.6 0-1-.4-1-1.1zM88 8.2c.3 0 .5-.1.6-.5c.01.03.3-.5.3-.5l-1.8-4.4h.8l1.4 3.4l1.4-3.4h.8l-2.1 5.1c-.3.7-.8 1-1.4 1c-.1 0-.4-.1-.5-.1l.1-.7c.1 0 .3.1.4.1zm11.5-5.9l-1.9 4.8h-.4l-2-4.8v4.8h-.9v-6h1.3l1.8 4.3l1.7-4.3h1.3v6h-.9V2.3zm4.8 4.3c-.3.4-.8.6-1.4.6c-.7 0-1.5-.5-1.5-1.4c0-1 .8-1.4 1.5-1.4c.6 0 1.1.1 1.4.5v-.7c0-.5-.4-.9-1-.9c-.5 0-1 .2-1.3.6l-.4-.5c.5-.5 1.1-.7 1.8-.7c.9 0 1.7.4 1.7 1.5c.03-.02 0 2.9 0 2.9h-.8s.02-.47 0-.5zm0-1.2c-.2-.3-.6-.5-1.1-.5c-.6 0-1 .4-1 .9c0 .5.4.9 1 .9c.5 0 .9-.2 1.1-.5v-.8zm2-2.6h.8s.04.63 0 .6c.4-.4.9-.7 1.5-.7v.8h-.3c-.4 0-1 .3-1.2.6c.04-.01 0 3 0 3h-.8V2.8zm4.5 2.4l-.7.7v1.2h-.8v-6h.8v3.9l2.1-2.2h1l-1.9 1.9l1.9 2.4h-1l-1.4-1.9zm4.8-2.5c1.3 0 2.1 1 2.1 2.3c-.02 0 0 .2 0 .2h-3.5c.1.7.6 1.4 1.5 1.4c.5 0 1-.2 1.3-.6l.4.6c-.4.4-1.1.6-1.8.6c-1.3 0-2.2-.9-2.2-2.3c0-1.2.9-2.2 2.2-2.2zm-1.4 1.9h2.7c0-.6-.4-1.3-1.3-1.3c-.9 0-1.3.7-1.4 1.3zm4.6 1.5c-.03.05 0-2.6 0-2.6h-.7v-.7h.7V1.6h.8v1.2h.9v.7h-.9s-.02 2.47 0 2.5c0 .3.1.5.4.5c.2 0 .4-.1.4-.2l.3.6c-.2.2-.5.3-.9.3c-.7 0-1-.4-1-1.1z" stroke="none" fill="#3797ef"/></g></svg>