<?xml version="1.0" standalone="no"?>
<!DOCTYPE svg PUBLIC "-//W3C//DTD SVG 1.1//EN" "http://www.w3.org/Graphics/SVG/1.1/DTD/svg11.dtd">
<svg xmlns="http://www.w3.org/2000/svg" version="1.1" width="85px" height="50.8px" viewBox="0 -11 85 50.8" style="top:-11px">
  <desc>Agent 1</desc>
  <defs/>
  <g id="Polygon236311">
    <path d="M 39.8 25.3 C 39.79 25.27 39.8 26.7 39.8 26.7 L 39.1 26.7 C 39.1 26.7 39.07 25.28 39.1 25.3 C 37.5 25.2 36.3 24.5 35.5 23.6 C 35.5 23.6 36.1 22.9 36.1 22.9 C 36.7 23.6 37.7 24.3 39.1 24.4 C 39.1 24.4 39.1 20 39.1 20 C 37.5 19.5 35.8 19 35.8 17.2 C 35.8 15.5 37.3 14.4 39.1 14.3 C 39.07 14.34 39.1 12.9 39.1 12.9 L 39.8 12.9 C 39.8 12.9 39.79 14.36 39.8 14.4 C 41.1 14.5 42.2 15 42.9 15.8 C 42.9 15.8 42.3 16.5 42.3 16.5 C 41.7 15.7 40.8 15.3 39.8 15.2 C 39.8 15.2 39.8 19.2 39.8 19.2 C 41.4 19.6 43.1 20.2 43.1 22.3 C 43.1 23.6 42.3 25.1 39.8 25.3 Z M 39.1 19 C 39.1 19 39.1 15.2 39.1 15.2 C 37.8 15.2 36.8 16 36.8 17.1 C 36.8 18.2 37.8 18.6 39.1 19 Z M 42.2 22.3 C 42.2 21 41.1 20.6 39.8 20.2 C 39.8 20.2 39.8 24.4 39.8 24.4 C 41.7 24.3 42.2 23.2 42.2 22.3 Z M 48.7 14.3 C 51.5 14.3 52.6 17.3 52.6 19.8 C 52.6 22.3 51.5 25.3 48.7 25.3 C 45.8 25.3 44.8 22.3 44.8 19.8 C 44.8 17.3 45.8 14.3 48.7 14.3 Z M 48.7 15.2 C 46.4 15.2 45.7 17.6 45.7 19.8 C 45.7 22 46.4 24.5 48.7 24.5 C 50.9 24.5 51.6 22 51.6 19.8 C 51.6 17.6 50.9 15.2 48.7 15.2 Z M 53.7 26.6 C 54.2 26.3 54.6 25.7 54.6 25.2 C 54.6 25.2 54.5 25.2 54.5 25.2 C 54.1 25.2 53.8 24.9 53.8 24.5 C 53.8 24.2 54.1 23.9 54.5 23.9 C 54.9 23.9 55.3 24.2 55.3 24.9 C 55.3 25.8 54.8 26.6 54.2 27 C 54.2 27 53.7 26.6 53.7 26.6 Z M 60.9 14.3 C 63.8 14.3 64.8 17.3 64.8 19.8 C 64.8 22.3 63.8 25.3 60.9 25.3 C 58.1 25.3 57 22.3 57 19.8 C 57 17.3 58.1 14.3 60.9 14.3 Z M 60.9 15.2 C 58.7 15.2 58 17.6 58 19.8 C 58 22 58.7 24.5 60.9 24.5 C 63.1 24.5 63.9 22 63.9 19.8 C 63.9 17.6 63.2 15.2 60.9 15.2 Z M 70.4 14.3 C 73.3 14.3 74.3 17.3 74.3 19.8 C 74.3 22.3 73.3 25.3 70.4 25.3 C 67.6 25.3 66.5 22.3 66.5 19.8 C 66.5 17.3 67.6 14.3 70.4 14.3 Z M 70.4 15.2 C 68.2 15.2 67.5 17.6 67.5 19.8 C 67.5 22 68.2 24.5 70.4 24.5 C 72.6 24.5 73.4 22 73.4 19.8 C 73.4 17.6 72.7 15.2 70.4 15.2 Z M 79.9 14.3 C 82.8 14.3 83.8 17.3 83.8 19.8 C 83.8 22.3 82.8 25.3 79.9 25.3 C 77.1 25.3 76 22.3 76 19.8 C 76 17.3 77.1 14.3 79.9 14.3 Z M 79.9 15.2 C 77.7 15.2 77 17.6 77 19.8 C 77 22 77.7 24.5 79.9 24.5 C 82.1 24.5 82.9 22 82.9 19.8 C 82.9 17.6 82.2 15.2 79.9 15.2 Z " stroke="none" fill="#242423"/>
  </g>
</svg>