<?xml version="1.0" standalone="no"?><!DOCTYPE svg PUBLIC "-//W3C//DTD SVG 1.1//EN" "http://www.w3.org/Graphics/SVG/1.1/DTD/svg11.dtd"><svg xmlns="http://www.w3.org/2000/svg" version="1.1" width="130px" height="16.9px" viewBox="0 -4 130 16.9" style="top:-4px"><desc>Tony</desc><defs/><g id="Polygon115683"><path d="m.7 1.1h2.1c1.9 0 3.1 1.3 3.1 3c0 1.8-1.2 3-3.1 3H.7v-6zm2.1 5.2c1.4 0 2.2-1 2.2-2.2c0-1.2-.8-2.2-2.2-2.2H1.6v4.4s1.21.02 1.2 0zm4.1-4.8c0-.3.2-.5.5-.5c.3 0 .5.2.5.5c0 .3-.2.5-.5.5c-.3 0-.5-.2-.5-.5zM7 2.8h.8v4.3h-.8V2.8zm2.1 0h.8v.6c.3-.4.8-.7 1.4-.7v.8h-.3c-.4 0-.9.3-1.1.6v3h-.8V2.8zm4.9-.1c1.3 0 2.2 1 2.2 2.3c-.05 0 0 .2 0 .2h-3.5c.1.7.6 1.4 1.5 1.4c.5 0 1-.2 1.3-.6l.4.6c-.5.4-1.1.6-1.8.6c-1.3 0-2.2-.9-2.2-2.3c0-1.2.9-2.2 2.1-2.2zm-1.3 1.9h2.7C15.3 4 15 3.3 14 3.3c-.8 0-1.2.7-1.3 1.3zm6.4-1.9c.8 0 1.3.3 1.6.7l-.5.5c-.3-.4-.6-.5-1-.5c-.9 0-1.5.6-1.5 1.5c0 .9.6 1.6 1.5 1.6c.4 0 .7-.2 1-.5l.5.5c-.3.4-.8.7-1.6.7c-1.3 0-2.2-1-2.2-2.3c0-1.3.9-2.2 2.2-2.2zm2.7 3.4V3.5h-.7v-.7h.7V1.6h.8v1.2h.9v.7h-.9s.01 2.47 0 2.5c0 .3.2.5.4.5c.2 0 .4-.1.5-.2l.2.6c-.2.2-.4.3-.9.3c-.7 0-1-.4-1-1.1zm2.3-1.2c0-1.2.9-2.2 2.2-2.2c1.4 0 2.2 1 2.2 2.2c0 1.3-.8 2.3-2.2 2.3c-1.3 0-2.2-1-2.2-2.3zm3.6 0c0-.8-.5-1.5-1.4-1.5c-.8 0-1.3.7-1.3 1.5c0 .9.5 1.6 1.3 1.6c.9 0 1.4-.7 1.4-1.6zm1.8-2.1h.8s.05.63 0 .6c.4-.4.9-.7 1.5-.7v.8h-.3c-.4 0-1 .3-1.2.6c.05-.01 0 3 0 3h-.8V2.8z" stroke="none" fill="#88898a"/></g></svg>