<?xml version="1.0" standalone="no"?><!DOCTYPE svg PUBLIC "-//W3C//DTD SVG 1.1//EN" "http://www.w3.org/Graphics/SVG/1.1/DTD/svg11.dtd"><svg xmlns="http://www.w3.org/2000/svg" xmlns:xlink="http://www.w3.org/1999/xlink" version="1.1" width="77px" height="25.9px" viewBox="0 -8 77 25.9" style="top:-8px"><desc/><defs/><g id="Polygon75676"><path d="m8.6 3.9l3.9-2v.4L9 4.1l3.5 1.8v.4l-3.9-2v-.4zm4.4 0l4-2v.4l-3.5 1.8L17 5.9v.4l-4-2v-.4zm4.7 2.8c2.1-1.7 3.5-2.8 3.5-4c0-.9-.8-1.2-1.4-1.2c-.8 0-1.3.3-1.7.8l-.3-.4c.4-.5 1.1-.9 2-.9c.9 0 1.9.5 1.9 1.7c0 1.3-1.4 2.5-3.2 3.9c.04.04 3.2 0 3.2 0v.5h-4s.04-.41 0-.4zM25.2 1c1.6 0 2.2 1.7 2.2 3.1c0 1.4-.6 3.1-2.2 3.1c-1.6 0-2.2-1.7-2.2-3.1c0-1.4.6-3.1 2.2-3.1zm0 .5c-1.2 0-1.7 1.4-1.7 2.6c0 1.2.5 2.7 1.7 2.7c1.3 0 1.7-1.5 1.7-2.7c0-1.2-.4-2.6-1.7-2.6zm4.3.3l-1 1l-.3-.3l1.3-1.4h.5v6h-.5V1.8zm4-.8c1.6 0 2.2 1.7 2.2 3.1c0 1.4-.6 3.1-2.2 3.1c-1.7 0-2.3-1.7-2.3-3.1c0-1.4.6-3.1 2.3-3.1zm0 .5c-1.3 0-1.7 1.4-1.7 2.6c0 1.2.4 2.7 1.7 2.7c1.2 0 1.6-1.5 1.6-2.7c0-1.2-.4-2.6-1.6-2.6zM39 4.1C39 2.3 40.4 1 42.1 1c.9 0 1.7.4 2.2 1.1l-.5.2c-.3-.5-1-.8-1.7-.8c-1.4 0-2.5 1-2.5 2.6c0 1.6 1.1 2.7 2.5 2.7c.7 0 1.4-.4 1.7-.9l.5.2c-.6.7-1.3 1.1-2.2 1.1C40.4 7.2 39 6 39 4.1zm8.1-1.4c1.4 0 2.1 1 2.1 2.3v.1s-3.64-.02-3.6 0c0 .9.6 1.7 1.7 1.7c.5 0 1-.2 1.4-.6l.2.3c-.4.5-1 .7-1.7.7c-1.2 0-2.2-.9-2.2-2.3c0-1.2.9-2.2 2.1-2.2zm-1.5 2h3.1c0-.7-.5-1.6-1.6-1.6c-1 0-1.5.9-1.5 1.6zm7.7-.5c0-.9-.4-1.1-1-1.1c-.6 0-1.2.3-1.4.7c-.03.02 0 3.3 0 3.3h-.5V2.8h.5s-.03.62 0 .6c.3-.4.9-.7 1.5-.7c.9 0 1.4.4 1.4 1.4v3h-.5s.04-2.92 0-2.9zm1.9 2c.2.3.7.6 1.4.6c.7 0 1.1-.3 1.1-.8c0-.6-.6-.8-1.2-.9c-.7-.2-1.5-.4-1.5-1.2c0-.7.5-1.2 1.5-1.2c.8 0 1.3.2 1.6.6l-.3.3c-.2-.3-.7-.5-1.3-.5c-.6 0-1.1.3-1.1.7c0 .5.6.7 1.2.8c.7.2 1.6.4 1.6 1.3c0 .7-.6 1.3-1.6 1.3c-.7 0-1.3-.2-1.7-.7l.3-.3zm7.1.3c-.3.4-.9.7-1.5.7c-.9 0-1.4-.4-1.4-1.4v-3h.5s-.04 2.92 0 2.9c0 .9.4 1.1 1 1.1c.6 0 1.1-.3 1.4-.7c.03-.02 0-3.3 0-3.3h.5v4.3h-.5s.03-.63 0-.6zm1.9-.3c.2.3.7.6 1.4.6c.7 0 1.1-.3 1.1-.8c0-.6-.6-.8-1.2-.9c-.7-.2-1.5-.4-1.5-1.2c0-.7.5-1.2 1.5-1.2c.8 0 1.3.2 1.6.6l-.3.3c-.2-.3-.7-.5-1.3-.5c-.7 0-1.1.3-1.1.7c0 .5.6.7 1.2.8c.7.2 1.6.4 1.6 1.3c0 .7-.6 1.3-1.7 1.3c-.7 0-1.2-.2-1.6-.7l.3-.3zm6.1-1.5h2.1v.4h-2.1v-.4zm6.2-2.9l-.9 1l-.4-.3l1.4-1.4h.4v6h-.5V1.8z" stroke="none" fill="#000"/><a xlink:href="DBF_2010%20Census%20-%201%20Mile1" xlink:show="new" xlink:title="&lt;&lt;2010 Census - 1 Mile1&gt;&gt;"><rect style="fill:transparent;" x="8" y="0" width="69" height="7"/></a></g></svg>