<?xml version="1.0" standalone="no"?><!DOCTYPE svg PUBLIC "-//W3C//DTD SVG 1.1//EN" "http://www.w3.org/Graphics/SVG/1.1/DTD/svg11.dtd"><svg xmlns="http://www.w3.org/2000/svg" version="1.1" width="188.3px" height="27.3px" viewBox="0 -6 188.3 27.3" style="top:-6px"><desc>45,088</desc><defs/><g id="Polygon102578"><path d="m144.8 9.7h-5.1v-.9l4.7-6.8h1.3v6.8h1.5v.9h-1.5v2.8h-.9V9.7zm-4.1-.9h4.1V2.9l-4.1 5.9zm8.9 1.6c.6 1 1.6 1.5 2.9 1.5c1.5 0 2.7-1.1 2.7-2.5c0-1.7-1.1-2.6-2.7-2.6c-.9 0-1.8.3-2.5 1c-.03 0-.7-.3-.7-.3V2h6.1v.8h-5.2v4.1c.5-.5 1.4-1 2.5-1c1.8 0 3.4 1.2 3.4 3.4c0 2.1-1.6 3.4-3.6 3.4c-1.7 0-2.8-.6-3.5-1.7l.6-.6zm8.3 3.7c.5-.3.9-1 1-1.5l-.2.1c-.4 0-.7-.3-.7-.7c0-.4.4-.7.7-.7c.5 0 .8.4.8 1c0 .9-.5 1.8-1.1 2.2l-.5-.4zm7.4-12.3c2.9 0 3.9 2.9 3.9 5.5c0 2.5-1 5.4-3.9 5.4c-2.8 0-3.9-2.9-3.9-5.4c0-2.6 1.1-5.5 3.9-5.5zm0 .8c-2.2 0-2.9 2.5-2.9 4.7c0 2.1.7 4.6 2.9 4.6c2.2 0 3-2.5 3-4.6c0-2.2-.7-4.7-3-4.7zm8.4 4.5c-1.2-.3-2.4-1.2-2.4-2.6c0-1.8 1.7-2.7 3.4-2.7c1.6 0 3.4.9 3.4 2.7c0 1.4-1.2 2.3-2.4 2.6c1.3.4 2.6 1.3 2.6 2.8c0 1.7-1.6 2.8-3.6 2.8c-2.1 0-3.6-1.1-3.6-2.8c0-1.5 1.3-2.4 2.6-2.8zm1-4.5c-1.4 0-2.5.8-2.5 2c0 1.5 1.9 2 2.5 2.1c.6-.1 2.5-.6 2.5-2.1c0-1.2-1.1-2-2.5-2zm0 4.9c-.7.1-2.7.7-2.7 2.3c0 1.3 1.3 2.1 2.7 2.1c1.4 0 2.7-.8 2.7-2.1c0-1.6-2.1-2.2-2.7-2.3zm8.1-.4c-1.3-.3-2.5-1.2-2.5-2.6c0-1.8 1.8-2.7 3.5-2.7c1.6 0 3.4.9 3.4 2.7c0 1.4-1.2 2.3-2.5 2.6c1.4.4 2.6 1.3 2.6 2.8c0 1.7-1.5 2.8-3.5 2.8c-2.1 0-3.6-1.1-3.6-2.8c0-1.5 1.2-2.4 2.6-2.8zm1-4.5c-1.4 0-2.6.8-2.6 2c0 1.5 1.9 2 2.6 2.1c.6-.1 2.5-.6 2.5-2.1c0-1.2-1.2-2-2.5-2zm0 4.9c-.7.1-2.7.7-2.7 2.3c0 1.3 1.2 2.1 2.7 2.1c1.3 0 2.6-.8 2.6-2.1c0-1.6-2-2.2-2.6-2.3z" stroke="none" fill="#000"/></g></svg>