<?xml version="1.0" standalone="no"?><!DOCTYPE svg PUBLIC "-//W3C//DTD SVG 1.1//EN" "http://www.w3.org/Graphics/SVG/1.1/DTD/svg11.dtd"><svg xmlns="http://www.w3.org/2000/svg" version="1.1" width="237px" height="26.9px" viewBox="0 -6 237 26.9" style="top:-6px"><desc>7 09 2034</desc><defs/><g id="Polygon96204"><path d="m171.4 2.8h-5.9v-.8h6.9v.6l-4.5 9.9h-1l4.5-9.7zm5.3-1.2h.7l-3.7 11.3h-.8l3.8-11.3zm5.6.2c2.8 0 3.9 2.9 3.9 5.5c0 2.5-1.1 5.4-3.9 5.4c-2.9 0-4-2.9-4-5.4c0-2.6 1.1-5.5 4-5.5zm0 .8c-2.3 0-3 2.5-3 4.7c0 2.1.7 4.6 3 4.6c2.2 0 2.9-2.5 2.9-4.6c0-2.2-.7-4.7-2.9-4.7zm6.7 8.1c.6.7 1.2 1.2 2.4 1.2c2.3 0 3.1-2.4 3.1-4.7v-.4c-.4.7-1.7 1.7-3.1 1.7c-1.9 0-3.4-1.1-3.4-3.3c0-1.8 1.3-3.4 3.5-3.4c2.9 0 3.9 2.6 3.9 5.5c0 2.7-1.1 5.4-4 5.4c-1.4 0-2.2-.5-2.9-1.3l.5-.7zm2.6-8.1c-1.8 0-2.7 1.4-2.7 2.5c0 1.8 1.1 2.6 2.7 2.6c1.1 0 2.2-.7 2.8-1.8c-.1-1.5-.8-3.3-2.8-3.3zm8.5-1h.7l-3.7 11.3h-.7l3.7-11.3zm1.6 10.2c3.6-2.9 6-5 6-7c0-1.5-1.2-2.2-2.4-2.2c-1.3 0-2.3.6-2.9 1.4l-.6-.6c.7-1 2-1.6 3.5-1.6c1.6 0 3.4.9 3.4 3c0 2.3-2.5 4.4-5.6 6.9c.04.02 5.6 0 5.6 0v.8h-7s.02-.7 0-.7zm13.2-10c2.8 0 3.9 2.9 3.9 5.5c0 2.5-1.1 5.4-3.9 5.4c-2.8 0-3.9-2.9-3.9-5.4c0-2.6 1.1-5.5 3.9-5.5zm0 .8c-2.2 0-3 2.5-3 4.7c0 2.1.8 4.6 3 4.6c2.2 0 3-2.5 3-4.6c0-2.2-.8-4.7-3-4.7zm6 7.8c.5.9 1.6 1.5 2.9 1.5c1.7 0 2.7-.8 2.7-2.2c0-1.6-1.3-2.2-2.8-2.2h-1v-.8h1c1.4 0 2.6-.6 2.6-2c0-1.3-1.1-2.1-2.5-2.1c-1.2 0-2.1.5-2.8 1.4l-.6-.6c.7-.9 1.9-1.6 3.4-1.6c1.9 0 3.5 1 3.5 2.8c0 1.6-1.4 2.3-2.3 2.5c.9.1 2.4.9 2.4 2.6c0 1.8-1.3 3-3.6 3c-1.7 0-3-.8-3.6-1.7l.7-.6zm13-.7h-5v-.9l4.7-6.8h1.3v6.8h1.5v.9h-1.5v2.8h-1V9.7zm-4-.9h4V2.9l-4 5.9z" stroke="none" fill="#000"/></g></svg>