<?xml version="1.0" standalone="no"?><!DOCTYPE svg PUBLIC "-//W3C//DTD SVG 1.1//EN" "http://www.w3.org/Graphics/SVG/1.1/DTD/svg11.dtd"><svg xmlns="http://www.w3.org/2000/svg" version="1.1" width="51.1px" height="52px" viewBox="0 -11 51.1 52" style="top:-11px"><desc>04</desc><defs/><g id="Polygon68611"><path d="m25 7v13.3c0 3.4-2 4.7-5.3 4.7h-.3c-3.3 0-5.3-1.3-5.3-4.7V7c0-3.4 2-4.7 5.3-4.7h.3C23 2.3 25 3.6 25 7zm-5.5-1.5c-1.1 0-1.9.5-1.9 2.1v12.2c0 1.5.8 2 1.9 2c1.2 0 2-.5 2-2V7.6c0-1.6-.8-2.1-2-2.1zm17.1 11h1.6v3.2h-1.6v5.1h-3.5v-5.1h-6.4v-3.2l5.2-14h4.7v14zm-7.1 0h3.6V6.1l-3.6 10.4z" stroke="none" fill="#fff"/></g></svg>