<?xml version="1.0" standalone="no"?><!DOCTYPE svg PUBLIC "-//W3C//DTD SVG 1.1//EN" "http://www.w3.org/Graphics/SVG/1.1/DTD/svg11.dtd"><svg xmlns="http://www.w3.org/2000/svg" version="1.1" width="196.3px" height="12.3px" viewBox="0 -3 196.3 12.3" style="top:-3px"><desc>*Optional Note</desc><defs/><g id="Polygon275868"><path d="m.9 1.8l-.6.3l-.1-.2l.6-.3l-.6-.3l.1-.3l.6.4v-.7h.3l-.1.7l.6-.4l.2.3l-.6.3l.6.3l-.2.2l-.6-.3l.1.6h-.3v-.6zM4.3.7c1.2 0 2.1.9 2.1 2c0 1.2-.9 2.1-2.1 2.1c-1.1 0-2-.9-2-2.1c0-1.1.9-2 2-2zm0 .5c-.8 0-1.3.7-1.3 1.5c0 .9.5 1.6 1.3 1.6c.9 0 1.4-.7 1.4-1.6c0-.8-.5-1.5-1.4-1.5zm2.8 4.6v-4h.5s.02.46 0 .5c.2-.3.6-.5 1-.5c.7 0 1.3.5 1.3 1.5c0 .9-.6 1.5-1.3 1.5c-.4 0-.7-.2-1-.5c.02.02 0 1.5 0 1.5h-.5zm1.3-3.6c-.3 0-.6.2-.8.5v1.2c.2.2.5.4.8.4c.6 0 .9-.4.9-1c0-.6-.3-1.1-.9-1.1zm2.3 1.9c-.05 0 0-1.8 0-1.8h-.5v-.5h.5v-.7h.5v.7h.6v.5h-.6s-.01 1.68 0 1.7c0 .2.1.3.3.3c.1 0 .2 0 .3-.1l.1.4c-.1.1-.3.2-.6.2c-.4 0-.6-.2-.6-.7zM12.3 1c0-.2.2-.3.3-.3c.2 0 .4.1.4.3c0 .2-.2.4-.4.4c-.1 0-.3-.2-.3-.4zm.1.8h.5v2.9h-.5V1.8zm1.2 1.5c0-.8.6-1.5 1.5-1.5c.9 0 1.4.7 1.4 1.5c0 .8-.5 1.5-1.4 1.5c-.9 0-1.5-.7-1.5-1.5zm2.4 0c0-.6-.4-1.1-.9-1.1c-.6 0-.9.5-.9 1.1c0 .5.3 1 .9 1c.5 0 .9-.5.9-1zm3.2-.4c0-.5-.3-.7-.7-.7c-.3 0-.6.3-.8.5c.05-.03 0 2 0 2h-.5V1.8h.5s.05.45 0 .4c.2-.2.6-.4 1.1-.4c.6 0 .9.3.9.9v2h-.5s-.04-1.81 0-1.8zm3.2 1.5c-.3.3-.6.4-1 .4c-.5 0-1-.3-1-.9c0-.7.5-1 1-1c.4 0 .7.1 1 .4v-.5c0-.4-.3-.6-.8-.6c-.3 0-.6.2-.8.4l-.3-.4c.4-.3.8-.4 1.2-.4c.7 0 1.2.2 1.2 1v1.9h-.5s-.05-.28 0-.3zm0-.8c-.2-.2-.5-.3-.8-.3c-.4 0-.7.2-.7.6c0 .3.3.5.7.5c.3 0 .6-.1.8-.3v-.5zM23.8.7h.5v4h-.5v-4zm3.5 1v3h-.6v-4h.6l2.2 3v-3h.6v4h-.6l-2.2-3zm3.5 1.6c0-.8.6-1.5 1.5-1.5c.9 0 1.4.7 1.4 1.5c0 .8-.5 1.5-1.4 1.5c-.9 0-1.5-.7-1.5-1.5zm2.4 0c0-.6-.4-1.1-.9-1.1c-.6 0-.9.5-.9 1.1c0 .5.3 1 .9 1c.5 0 .9-.5.9-1zm1.3.8c.02 0 0-1.8 0-1.8h-.5v-.5h.5v-.7h.6v.7h.6v.5h-.6s-.04 1.68 0 1.7c0 .2.1.3.2.3c.2 0 .3 0 .3-.1l.2.4c-.1.1-.3.2-.6.2c-.4 0-.7-.2-.7-.7zm3-2.3c.9 0 1.4.6 1.4 1.5c.03.04 0 .2 0 .2c0 0-2.26-.03-2.3 0c.1.5.4.9 1 .9c.3 0 .7-.2.9-.4l.2.4c-.3.3-.7.4-1.1.4c-.9 0-1.5-.6-1.5-1.5c0-.9.6-1.5 1.4-1.5zm-.9 1.3h1.8c0-.4-.3-.9-.9-.9c-.6 0-.8.5-.9.9z" stroke="none" fill="#878787"/></g></svg>